<?xml version="1.0" standalone="no"?>
<!DOCTYPE svg PUBLIC "-//W3C//DTD SVG 1.1//EN" "http://www.w3.org/Graphics/SVG/1.1/DTD/svg11.dtd" >
<svg xmlns="http://www.w3.org/2000/svg" xmlns:xlink="http://www.w3.org/1999/xlink" version="1.1" viewBox="-10 0 1034 1024">
  <g transform="matrix(1 0 0 -1 0 820)">
   <path fill="currentColor"
d="M786 418q-42 0 -72 -26q-39 -31 -39 -83q0 -45 32 -78q30 -33 78 -33q45 0 76 32q31 31 32 78q0 45 -32 77q-31 33 -75 33zM783 385q30 0 55 -22q22 -22 23 -54q0 -33 -22 -55t-55 -23q-30 0 -54 23q-21 24 -22 54q0 30 23 54q21 22 52 23v0z" />
  </g>

</svg>
