<?xml version="1.0" standalone="no"?>
<!DOCTYPE svg PUBLIC "-//W3C//DTD SVG 1.1//EN" "http://www.w3.org/Graphics/SVG/1.1/DTD/svg11.dtd" >
<svg xmlns="http://www.w3.org/2000/svg" xmlns:xlink="http://www.w3.org/1999/xlink" version="1.1" viewBox="-10 0 1034 1024">
  <g transform="matrix(1 0 0 -1 0 820)">
   <path fill="currentColor"
d="M753 425q-27 0 -40 -17q-15 -13 -16 -42q0 -13 6 -25q10 -19 28 -23l27 -7q15 -4 16 -22q0 -25 -26 -60q-13 -15 -34 -32q-12 -9 -12 -16q0 -9 12 -9q4 0 16 6q28 19 49 42q45 54 45 118q0 36 -15 57q-21 30 -56 30v0z" />
  </g>

</svg>
