<?xml version="1.0" standalone="no"?>
<!DOCTYPE svg PUBLIC "-//W3C//DTD SVG 1.1//EN" "http://www.w3.org/Graphics/SVG/1.1/DTD/svg11.dtd" >
<svg xmlns="http://www.w3.org/2000/svg" xmlns:xlink="http://www.w3.org/1999/xlink" version="1.1" viewBox="-10 0 1034 1024">
  <g transform="matrix(1 0 0 -1 0 820)">
   <path fill="currentColor"
d="M381 10q-7 0 -8 -9q0 -10 13 -11h239q13 0 14 11q0 6 -9 9q-12 3 -24 5q-64 16 -66 82q55 4 103 11q108 16 163 61q73 61 74 161q0 57 -21 102q-21 46 -69 75q-43 25 -96 36q-60 12 -154 15q10 48 58 60q15 4 30 7q6 1 7 9q0 6 -7 7h-251q-7 0 -8 -8q0 -6 8 -9l23 -6
q51 -12 67 -62q-73 0 -121 -9q-129 -22 -170 -98q-33 -52 -33 -127q0 -43 15 -82q33 -73 114 -108q57 -24 195 -35q-6 -66 -61 -81zM467 121q-12 1 -22 1q-87 7 -147 40q-76 42 -77 156q0 39 4 63q4 39 21 62q22 42 84 66q57 21 137 26v-414zM540 535q12 0 26 -1
q66 -6 120 -24q117 -42 117 -176q0 -96 -49 -144q-42 -39 -124 -58q-33 -6 -90 -12v415z" />
  </g>

</svg>
