<?xml version="1.0" standalone="no"?>
<!DOCTYPE svg PUBLIC "-//W3C//DTD SVG 1.1//EN" "http://www.w3.org/Graphics/SVG/1.1/DTD/svg11.dtd" >
<svg xmlns="http://www.w3.org/2000/svg" xmlns:xlink="http://www.w3.org/1999/xlink" version="1.1" viewBox="-10 0 1034 1024">
  <g transform="matrix(1 0 0 -1 0 820)">
   <path fill="currentColor"
d="M976 9q-66 1 -94 27q-24 27 -24 86v399q0 84 62 100q12 3 24 5q9 1 9 9q0 9 -17 10h-217q-16 0 -17 -10q0 -6 14 -12q9 -1 20 -5q54 -15 54 -97v-399q0 -39 -7 -59q-18 -46 -74 -47h-80q-67 0 -85 44q-6 13 -6 69v393q0 55 9 70q9 18 47 27l23 6q6 1 7 9q0 4 -4 8h-230
q-13 0 -12 -11q0 -6 10 -8q12 -1 25 -4q21 -1 42 -29q15 -22 15 -68v-394q0 -70 -21 -92q-18 -19 -57 -20h-95q-42 0 -66 35q-12 21 -13 78v383q0 48 7 65q10 30 44 40q10 3 23 5q10 3 11 10q0 9 -15 9h-229q-12 0 -12 -9q0 -7 11 -10q9 -1 20 -4q39 -9 57 -43
q12 -24 12 -64v-383q0 -60 -12 -84q-15 -30 -58 -38q-9 0 -17 -2q-9 0 -9 -11q0 -7 11 -8l793 -1q16 -1 30 -8q43 -18 54 -97q9 -64 27 -65q9 0 10 12v183z" />
  </g>

</svg>
