<?xml version="1.0" standalone="no"?>
<!DOCTYPE svg PUBLIC "-//W3C//DTD SVG 1.1//EN" "http://www.w3.org/Graphics/SVG/1.1/DTD/svg11.dtd" >
<svg xmlns="http://www.w3.org/2000/svg" xmlns:xlink="http://www.w3.org/1999/xlink" version="1.1" viewBox="-10 0 1034 1024">
  <g transform="matrix(1 0 0 -1 0 820)">
   <path fill="currentColor"
d="M678 10q-9 -3 -9 -12q0 -7 9 -8h249q9 0 10 11q0 6 -6 9q-12 3 -22 5q-28 7 -46 28q-24 24 -25 99v389q0 39 15 59q15 19 55 30q9 3 19 4q9 3 12 10q1 9 -12 10h-255q-9 0 -9 -8q0 -7 12 -12q9 -1 20 -4q25 -4 48 -22q24 -19 25 -69v-387q0 -42 -7 -67q-12 -48 -63 -61
q-10 -1 -20 -4zM257 358v182q0 24 7 44q10 24 51 33q12 3 24 4q15 1 15 11q0 9 -12 9h-240q-7 0 -8 -9q0 -6 6 -8q13 -1 27 -5q18 -3 32 -16q25 -21 26 -64v-417q0 -55 -18 -82q-18 -21 -56 -28q-13 -1 -25 -4q-9 -1 -9 -9q0 -10 15 -11h266q132 0 203 45q63 45 64 140
q0 64 -32 112q-33 45 -130 64q-48 9 -120 9h-86zM257 321h82q34 0 77 -8q61 -13 94 -47q30 -33 31 -91q0 -49 -15 -75q-39 -75 -160 -76h-66q-24 0 -32 7q-10 9 -11 45v245z" />
  </g>

</svg>
