<?xml version="1.0" standalone="no"?>
<!DOCTYPE svg PUBLIC "-//W3C//DTD SVG 1.1//EN" "http://www.w3.org/Graphics/SVG/1.1/DTD/svg11.dtd" >
<svg xmlns="http://www.w3.org/2000/svg" xmlns:xlink="http://www.w3.org/1999/xlink" version="1.1" viewBox="-10 0 1034 1024">
  <g transform="matrix(1 0 0 -1 0 820)">
   <path fill="currentColor"
d="M707 311q0 -52 -10 -92q-22 -81 -82 -140q-67 -60 -169 -60q-75 0 -121 30q-42 25 -67 69q-9 19 -22 32q-4 4 -11 5q-10 0 -11 -12q0 -9 17 -39q36 -60 72 -86q66 -48 162 -49q67 0 128 23q81 31 137 119q55 90 56 205q0 72 -22 133q-18 57 -65 111q-85 90 -220 90
q-63 0 -124 -21q-27 -9 -39 -14q-6 -1 -13 -2q-18 0 -24 21q-3 6 -6 14q-3 6 -9 7q-9 0 -9 -9l-19 -207q0 -9 7 -9q9 0 16 15l12 33q7 25 22 48q25 48 55 64q51 28 117 29q91 0 148 -54q54 -51 75 -128q6 -18 9 -38q4 -24 9 -56h-202q-21 0 -43 2q-21 3 -30 13
q-24 25 -27 61q-1 24 -12 25q-9 0 -9 -12v-202q0 -19 10 -20q9 0 13 26q1 34 24 54q24 21 75 21h202z" />
  </g>

</svg>
