<?xml version="1.0" standalone="no"?>
<!DOCTYPE svg PUBLIC "-//W3C//DTD SVG 1.1//EN" "http://www.w3.org/Graphics/SVG/1.1/DTD/svg11.dtd" >
<svg xmlns="http://www.w3.org/2000/svg" xmlns:xlink="http://www.w3.org/1999/xlink" version="1.1" viewBox="-10 0 1010 1000">
   <path fill="currentColor"
d="M692 433v250q5 43 46 38v79h-61q-61 -10 -66 -63q0 -4 -4 -2q-2 1 -2 0q-80 90 -222 74q-120 -24 -123 -134q1 -147 169 -163q6 -1 18 -2q145 -10 156 -63v-8q-2 -92 -123 -91q-113 5 -121 89h-85q6 -159 208 -169q203 3 210 165zM605 594v-52q-49 31 -153 36
q-105 7 -109 95q1 80 123 65q121 -24 139 -144z" />
</svg>
