<?xml version="1.0" standalone="no"?>
<!DOCTYPE svg PUBLIC "-//W3C//DTD SVG 1.1//EN" "http://www.w3.org/Graphics/SVG/1.1/DTD/svg11.dtd" >
<svg xmlns="http://www.w3.org/2000/svg" xmlns:xlink="http://www.w3.org/1999/xlink" version="1.1" viewBox="-10 0 1034 1024">
  <g transform="matrix(1 0 0 -1 0 820)">
   <path fill="currentColor"
d="M640 475q-10 0 -21 -6q-18 -9 -36 -64l-73 -213q-6 -9 -6 -20q1 -3 4 -5q18 0 63 76l41 68q57 96 59 133q0 30 -31 31zM499 473q-12 0 -22 -6q-12 -6 -84 -207q-3 -4 -4 -10q-12 -36 -22 -60q-4 -10 -5 -19q0 -6 5 -6q16 0 63 76q97 165 99 201q0 30 -30 31v0z" />
  </g>

</svg>
