<?xml version="1.0" standalone="no"?>
<!DOCTYPE svg PUBLIC "-//W3C//DTD SVG 1.1//EN" "http://www.w3.org/Graphics/SVG/1.1/DTD/svg11.dtd" >
<svg xmlns="http://www.w3.org/2000/svg" xmlns:xlink="http://www.w3.org/1999/xlink" version="1.1" viewBox="-10 0 1010 1000">
   <path fill="currentColor"
d="M425 62l95 48q4 2 4 15q-1 10 -25 20q-9 4 -13 6q-32 70 -65 109h234q11 1 30 -11q18 -11 29 -11q66 42 82 86q1 25 -22 28h-24q-12 0 -21 18q-2 3 -3 5q-56 89 -196 246q71 52 83 99q9 53 -44 60q-24 0 -83 -99q-19 -31 -26 -42q-53 -70 -105 -113l2 -8q79 31 137 76
q117 -127 204 -290q-2 -5 -8 -4h-291q-103 114 -185 149q-13 -2 -12 -16q110 -92 172 -196q54 -95 27 -151q6 -33 24 -24z" />
</svg>
