<?xml version="1.0" standalone="no"?>
<!DOCTYPE svg PUBLIC "-//W3C//DTD SVG 1.1//EN" "http://www.w3.org/Graphics/SVG/1.1/DTD/svg11.dtd" >
<svg xmlns="http://www.w3.org/2000/svg" xmlns:xlink="http://www.w3.org/1999/xlink" version="1.1" viewBox="-10 0 1010 1000">
   <path fill="currentColor"
d="M67 149l4 -4q82 10 133 28q-2 8 -7 22q-10 31 -10 49q0 2 -1 5q-3 26 -3 41v28q0 89 17 165q21 88 52 152q34 67 69 66q25 1 56 -28q48 -44 65 -77h8l48 73q3 4 0 8q-20 44 -56 75q-64 62 -129 62q-91 -2 -146 -129q-23 -49 -44 -133q-29 -115 -40 -214q-1 -14 -4 -42
q-3 -25 -4 -36q-4 -40 -8 -111zM651 252l89 -31h8q76 99 153 258q1 2 4 7q27 50 28 78l-96 44h-12q-45 -155 -178 -348z" />
</svg>
