<?xml version="1.0" standalone="no"?>
<!DOCTYPE svg PUBLIC "-//W3C//DTD SVG 1.1//EN" "http://www.w3.org/Graphics/SVG/1.1/DTD/svg11.dtd" >
<svg xmlns="http://www.w3.org/2000/svg" xmlns:xlink="http://www.w3.org/1999/xlink" version="1.1" viewBox="-10 0 1010 1000">
   <path fill="currentColor"
d="M155 201l93 20q3 14 -8 31v22q1 140 52 258q2 5 7 16q21 53 42 67q6 4 20 4q17 0 46 -26q4 -3 6 -5q16 -14 40 -49q3 -5 5 -7h8l44 76q3 5 0 11q-30 30 -64 58q-46 44 -89 44q-66 1 -125 -121q-44 -89 -70 -291q-5 -33 -7 -49q-1 -10 -4 -30q-3 -19 -4 -29h8zM853 502
l-81 30q-64 -154 -149 -268l65 -31h8q107 138 157 269z" />
</svg>
