<?xml version="1.0" standalone="no"?>
<!DOCTYPE svg PUBLIC "-//W3C//DTD SVG 1.1//EN" "http://www.w3.org/Graphics/SVG/1.1/DTD/svg11.dtd" >
<svg xmlns="http://www.w3.org/2000/svg" xmlns:xlink="http://www.w3.org/1999/xlink" version="1.1" viewBox="-10 0 1010 1000">
   <path fill="currentColor"
d="M397 88l36 -94h4q175 65 271 82l4 4q-2 12 -8 36q-11 42 -12 65l-5 4q-26 -2 -84 -20q-92 -27 -202 -69zM232 338h24q30 0 86 -16q18 -6 27 -8q13 -4 39 -11q39 -11 58 -17q77 -22 125 -22h16q80 3 129 74q35 56 36 129v35q-6 242 -218 425q-2 1 -5 4q-9 8 -15 8h-4
q-53 -46 -84 -62v-8q214 -156 221 -386v-20q-6 -100 -88 -105h-16q-34 0 -104 27q-6 3 -9 4q-58 22 -109 58q-2 2 -7 6q-13 14 -22 10l-84 -117z" />
</svg>
