<?xml version="1.0" standalone="no"?>
<!DOCTYPE svg PUBLIC "-//W3C//DTD SVG 1.1//EN" "http://www.w3.org/Graphics/SVG/1.1/DTD/svg11.dtd" >
<svg xmlns="http://www.w3.org/2000/svg" xmlns:xlink="http://www.w3.org/1999/xlink" version="1.1" viewBox="-10 0 1010 1000">
   <path fill="currentColor"
d="M429 2h8l42 21q96 48 148 69q2 1 8 2q25 6 28 18l-36 81l-8 4q-132 -49 -234 -109v-8q18 -33 44 -78zM179 314h21q72 1 209 -20q2 0 7 -1q85 -11 126 -29q4 -2 11 -7q7 -4 10 -5h8l92 54q5 3 4 16v4q-56 34 -130 133q-28 37 -43 55h28q43 1 69 26q24 24 32 79q2 9 5 29
q7 48 15 73q19 50 57 53h48q39 0 111 -13q17 -3 26 -5v113q-17 1 -50 4q-50 4 -75 4h-81q-76 -2 -108 -51q-20 -36 -35 -117q-2 -5 -2 -8q-1 -5 -2 -16q-4 -32 -14 -46q-18 -31 -52 -31q-40 0 -81 45q-109 125 -169 224h-8q-49 -46 -93 -63v-8q132 -132 270 -304
q64 -76 97 -133l-8 -7q-35 14 -109 29q-66 13 -97 24q-5 2 -15 8q-15 10 -25 8z" />
</svg>
