<?xml version="1.0" standalone="no"?>
<!DOCTYPE svg PUBLIC "-//W3C//DTD SVG 1.1//EN" "http://www.w3.org/Graphics/SVG/1.1/DTD/svg11.dtd" >
<svg xmlns="http://www.w3.org/2000/svg" xmlns:xlink="http://www.w3.org/1999/xlink" version="1.1" viewBox="-10 0 1010 1000">
   <path fill="currentColor"
d="M641 264l40 -63q89 45 146 93l-41 64q-4 -3 -11 -8q-85 -66 -134 -86zM343 108l101 11l8 8q-21 43 -25 106q-3 18 0 11q22 -4 70 -15q26 -5 39 -8v73q-20 5 -66 15q-37 8 -47 11v113q83 -34 158 -34h24q72 0 117 32q62 45 64 113v16q-1 83 -76 137q-47 36 -154 59l-8 -4
l-44 -63v-8q195 -26 198 -129q-2 -88 -121 -89q-60 2 -158 49v44q0 30 4 89q3 40 4 60v16q-3 40 -44 57q-36 12 -89 -8q-123 -44 -125 -125q-1 -53 65 -105q28 -21 84 -60q9 -6 13 -9v-60q0 -24 3 -71q1 -5 1 -8q-47 6 -101 6h-28l-8 -82q36 4 56 4h16q36 -1 71 -4
q2 -14 2 -51v-24q0 -24 -8 -69zM339 556q-86 62 -85 89q0 20 24 36q25 18 53 20q15 -2 16 -12q-1 -21 -4 -64q-3 -45 -4 -69z" />
</svg>
