<?xml version="1.0" standalone="no"?>
<!DOCTYPE svg PUBLIC "-//W3C//DTD SVG 1.1//EN" "http://www.w3.org/Graphics/SVG/1.1/DTD/svg11.dtd" >
<svg xmlns="http://www.w3.org/2000/svg" xmlns:xlink="http://www.w3.org/1999/xlink" version="1.1" viewBox="-10 0 1010 1000">
   <path fill="currentColor"
d="M562 2h9l104 74v12q-28 21 -70 83q-7 9 -10 14q-54 77 -153 196q-38 47 -37 78q-1 29 28 57q16 22 50 65q13 15 19 23q27 30 75 97q17 24 26 36q56 67 93 132v8l-101 62h-8q-14 -24 -40 -74q-31 -62 -49 -91q-50 -81 -137 -194q-4 -6 -13 -17q-46 -56 -44 -96v-16
q0 -43 37 -93q27 -36 68 -88q68 -87 117 -178q29 -54 36 -90z" />
</svg>
