<?xml version="1.0" standalone="no"?>
<!DOCTYPE svg PUBLIC "-//W3C//DTD SVG 1.1//EN" "http://www.w3.org/Graphics/SVG/1.1/DTD/svg11.dtd" >
<svg xmlns="http://www.w3.org/2000/svg" xmlns:xlink="http://www.w3.org/1999/xlink" version="1.1" viewBox="-10 0 1034 1024">
  <g transform="matrix(1 0 0 -1 0 820)">
   <path fill="currentColor"
d="M476 391q-10 -10 -24 -21q-40 -28 -73 -39q-18 -6 -39 -10q-24 -3 -67 -6q-21 0 -21 -11q0 -6 10 -18q9 -9 29 -23q33 -24 57 -24q13 0 30 12q12 7 52 45q3 3 46 36q16 10 33 10q10 0 11 -10q0 -13 -11 -30q-22 -36 -39 -58q-18 -22 -46 -54q-93 -108 -102 -123
q-33 -39 -76 -98q-9 -9 -19 -27q-15 -24 -15 -52q0 -33 32 -33q30 0 51 33q9 16 37 61q22 39 73 97q39 43 67 44q25 0 26 -60v-36q0 -37 3 -58q9 -48 66 -68q30 -9 86 -9q40 0 57 2q60 4 83 20q18 13 19 36q0 43 -50 44q-27 0 -58 -10q-27 -6 -53 -13q-31 -7 -50 -8
q-19 0 -35 15q-10 13 -9 44l-3 108q-6 21 -11 26q-12 13 -35 13q-22 0 -71 -24q129 183 169 216q15 12 23 20q9 9 10 23q0 22 -38 43q-39 19 -51 20q-22 0 -48 -22q-13 -10 -26 -23zM402 636q-12 -1 -13 -22q-1 -18 13 -34q18 -18 51 -29q39 -12 39 -26q0 -9 -37 -40
q-7 -6 -13 -12q0 -4 9 -5q3 0 20 6q40 16 77 46q24 22 24 42q0 12 -8 24q-16 24 -70 26q-54 3 -71 16q-15 9 -21 8v0z" />
  </g>

</svg>
