<?xml version="1.0" standalone="no"?>
<!DOCTYPE svg PUBLIC "-//W3C//DTD SVG 1.1//EN" "http://www.w3.org/Graphics/SVG/1.1/DTD/svg11.dtd" >
<svg xmlns="http://www.w3.org/2000/svg" xmlns:xlink="http://www.w3.org/1999/xlink" version="1.1" viewBox="-10 0 1010 1000">
   <path fill="currentColor"
d="M669 221v-8q22 -21 69 -56q9 -7 34 18l2 2q22 21 59 66q9 11 14 17q73 86 121 163v12l-93 59q-111 -179 -206 -273zM476 274h60q56 0 77 28q23 33 24 79v14q0 101 -36 232q-35 139 -109 183q-47 29 -133 28h-20q-10 0 -12 -4q-27 -70 -45 -105v-8q10 1 28 5q34 7 53 7h16
q47 0 73 -36q26 -32 44 -78q36 -97 36 -188v-24q-3 -42 -40 -45q-31 0 -90 7q-24 3 -37 4q-60 176 -151 320q-40 67 -81 113q-14 -3 -39 -19q-19 -13 -29 -17q-3 -2 -13 -5q-17 -5 -20 -13q80 -77 153 -212q38 -75 71 -153q-59 3 -111 32q-3 1 -8 4q-13 8 -24 8l-53 -113
l3 -8q45 9 139 -7q5 -1 8 -1q39 -7 78 -10q2 -5 4 -15q3 -15 6 -21q20 -73 21 -156v-16q0 -9 -3 -24q-1 -3 -1 -4q90 11 129 24q1 11 -11 32q-4 7 -6 11q-8 17 -13 57q-2 12 -3 17q-7 46 -18 83q42 -6 83 -6z" />
</svg>
