<?xml version="1.0" standalone="no"?>
<!DOCTYPE svg PUBLIC "-//W3C//DTD SVG 1.1//EN" "http://www.w3.org/Graphics/SVG/1.1/DTD/svg11.dtd" >
<svg xmlns="http://www.w3.org/2000/svg" xmlns:xlink="http://www.w3.org/1999/xlink" version="1.1" viewBox="-10 0 1010 1000">
   <path fill="currentColor"
d="M657 76h8q30 53 33 81q-49 27 -123 50q28 55 58 109q35 -12 103 -38q25 -9 38 -14h12l33 74l-4 8q-20 9 -65 23q-16 5 -24 8q-36 12 -51 14q2 3 5 10q6 9 8 14q32 57 110 153q1 2 4 6q15 20 13 34l-85 81q-120 -80 -311 -81h-24q-52 1 -82 15q-53 32 -35 86q5 13 32 36
q7 5 9 7q30 19 92 30q73 12 117 12h20q13 0 40 -3q3 -1 5 -1l-8 117h-25q-363 -19 -379 -218v-20q3 -70 77 -113q72 -36 157 -36h37q92 0 197 36l4 -4q-39 -64 -76 -133q-45 11 -81 16q-49 9 -152 15q-41 3 -62 5l-8 -4l-48 -74l4 -8h28q84 0 222 -19q10 -2 29 -5t29 -5
q-27 -54 -54 -107q-95 23 -169 31q-8 -18 -33 -50q-3 -3 -4 -5q-2 -2 -5 -6q-13 -13 -11 -22q105 -14 180 -32q-5 -12 -17 -37q-18 -40 -26 -60q-1 -3 -3 -8q-9 -18 -9 -30l105 -16q5 13 16 41q21 56 34 84q61 -22 115 -47z" />
</svg>
