<?xml version="1.0" standalone="no"?>
<!DOCTYPE svg PUBLIC "-//W3C//DTD SVG 1.1//EN" "http://www.w3.org/Graphics/SVG/1.1/DTD/svg11.dtd" >
<svg xmlns="http://www.w3.org/2000/svg" xmlns:xlink="http://www.w3.org/1999/xlink" version="1.1" viewBox="-10 0 1034 1024">
  <g transform="matrix(1 0 0 -1 0 820)">
   <path fill="currentColor"
d="M621 585q10 12 11 18q0 10 -18 30q-15 18 -34 32q-37 24 -63 24q-12 0 -13 -10q0 -6 6 -25q3 -6 3 -20q0 -39 -32 -96q-27 -49 -53 -92q-25 -43 -63 -98l-42 -67q-18 -37 -19 -55q0 -28 51 -74q135 -114 175 -180l34 -49q18 -27 41 -48q15 -12 35 -12q36 0 36 33
q0 36 -29 71q-28 34 -64 67q-66 57 -166 119q-30 18 -57 44q-13 18 -14 34q0 19 36 63l85 99l81 102q12 18 53 68q9 12 20 22v0z" />
  </g>

</svg>
