<?xml version="1.0" standalone="no"?>
<!DOCTYPE svg PUBLIC "-//W3C//DTD SVG 1.1//EN" "http://www.w3.org/Graphics/SVG/1.1/DTD/svg11.dtd" >
<svg xmlns="http://www.w3.org/2000/svg" xmlns:xlink="http://www.w3.org/1999/xlink" version="1.1" viewBox="-10 0 1013 1000">
   <path fill="currentColor"
d="M867 435l-4 8l-81 47q-82 -151 -193 -269v-8l76 -44q105 96 202 266zM895 173v8l-52 40h-8q-50 -76 -93 -98v-8l48 -39q4 -3 8 0q57 46 97 97zM839 40v-8l48 -38q4 -3 8 0q36 25 73 66q2 3 7 8q19 19 17 32l-48 39h-6q-41 -56 -99 -99zM270 56l133 32q-2 10 -12 25
q-9 14 -12 22q-5 13 -9 44q-2 15 -3 22q-4 28 -15 79q-1 4 -1 6q24 -5 64 -8q2 0 7 -1q24 -3 38 -3h16q51 0 76 16q36 27 37 79v46q0 98 -33 246q-28 132 -108 161q-53 23 -121 24h-25q-26 -67 -48 -106l4 -7q9 1 26 4q37 7 55 7h16q58 -2 83 -51q22 -55 34 -105
q24 -103 24 -181q-4 -48 -56 -45q-55 7 -115 19q-71 245 -216 441l-8 4q-31 -27 -93 -52v-8q81 -92 141 -198q37 -66 71 -169q-71 19 -115 40q-3 1 -9 4q-16 8 -27 8l-41 -109l8 -8q7 0 21 3q21 3 32 1q28 -5 83 -18q49 -11 74 -16q1 -4 2 -11q1 -8 2 -11q20 -98 20 -182
v-44z" />
</svg>
