<?xml version="1.0" standalone="no"?>
<!DOCTYPE svg PUBLIC "-//W3C//DTD SVG 1.1//EN" "http://www.w3.org/Graphics/SVG/1.1/DTD/svg11.dtd" >
<svg xmlns="http://www.w3.org/2000/svg" xmlns:xlink="http://www.w3.org/1999/xlink" version="1.1" viewBox="-10 0 1010 1000">
   <path fill="currentColor"
d="M488 502v-55q-3 -45 -40 -48q-21 0 -45 28q-40 47 -28 113q13 54 60 56q51 -2 53 -94zM944 36l-49 44q-59 -60 -93 -82l41 -43q8 5 23 16q56 38 78 65zM879 104l-52 41q-58 -60 -105 -93l52 -42q34 23 93 82zM597 -6l4 8q-25 44 -28 137q0 -6 0 22q84 -4 161 -4h169v107
q-152 -20 -278 -20h-56q0 -11 1 -16q0 -12 0 -3q-1 17 -1 57v89q10 9 16 18q35 47 36 125v26q-2 174 -113 318q-24 27 -73 70q-8 7 -12 11q-4 3 -8 0q-9 -4 -25 -11q-64 -29 -100 -37v-2q70 -31 117 -75q76 -74 81 -133q-31 8 -48 8h-13q-133 -14 -149 -169v-14
q17 -165 162 -180h16q18 0 26 2q1 -9 2 -28q4 -38 4 -56q-96 3 -202 16q-72 4 -185 34l-45 -117l4 -8l21 3q45 8 68 9h20q53 0 160 -7q57 -4 86 -5q21 0 67 -4h6q-5 -96 -32 -182q22 2 65 5q51 4 76 6z" />
</svg>
