<?xml version="1.0" standalone="no"?>
<!DOCTYPE svg PUBLIC "-//W3C//DTD SVG 1.1//EN" "http://www.w3.org/Graphics/SVG/1.1/DTD/svg11.dtd" >
<svg xmlns="http://www.w3.org/2000/svg" xmlns:xlink="http://www.w3.org/1999/xlink" version="1.1" viewBox="-10 0 1034 1024">
  <g transform="matrix(1 0 0 -1 0 820)">
   <path fill="currentColor"
d="M660 594q-15 0 -15 -8q10 -15 20 -25l13 -13q15 -12 48 -43q39 -33 59 -36q31 0 32 41q0 28 -18 43q-24 16 -85 30q-3 1 -10 2q-12 3 -22 5q-16 6 -22 4zM739 682q-22 0 -23 -8q3 -7 18 -19q36 -30 66 -51q42 -36 59 -36q12 0 19 10q7 12 8 25q0 43 -41 60q-6 3 -45 11
q-46 9 -61 8zM183 213q-9 0 -18 -17q-33 -48 -33 -104q0 -69 48 -117q39 -39 128 -69q66 -18 143 -19q63 0 117 10q48 10 72 27q27 19 28 45q0 34 -43 35q-30 0 -72 -9q-79 -15 -148 -16q-61 0 -108 14q-66 19 -101 58q-27 30 -28 65q0 45 19 76q3 6 4 12q0 9 -8 9zM522 537
q-60 0 -128 12q-43 6 -69 16q-25 9 -38 15q-6 1 -11 2q-12 0 -12 -12q0 -15 18 -33t39 -30q36 -18 91 -32q39 -6 39 -16q-3 -6 -10 -10q-27 -15 -27 -22t13 -8q84 7 99 8l74 2q27 0 37 8q10 7 11 32q0 67 -83 68h-43z" />
  </g>

</svg>
