<?xml version="1.0" standalone="no"?>
<!DOCTYPE svg PUBLIC "-//W3C//DTD SVG 1.1//EN" "http://www.w3.org/Graphics/SVG/1.1/DTD/svg11.dtd" >
<svg xmlns="http://www.w3.org/2000/svg" xmlns:xlink="http://www.w3.org/1999/xlink" version="1.1" viewBox="-10 0 1010 1000">
   <path fill="currentColor"
d="M206 213l-21 -105q24 3 73 13q85 19 133 18h16q70 1 206 -27v121q-9 1 -26 3q-68 8 -107 8h-42q-83 1 -232 -31zM52 657l69 -61q6 -3 12 0q58 60 105 77q67 28 153 28h47q148 0 300 -44v137q-186 13 -286 12h-65q-86 0 -157 -20q-73 -21 -157 -97q-24 -17 -21 -32z
M694 260v-8l52 -51q4 -3 8 0q47 33 93 73l4 4q11 9 12 16q-2 6 -8 12l-15 12q-21 18 -30 28q-4 3 -8 0q-7 -6 -20 -17q-56 -47 -88 -69zM790 161l45 -53q23 3 60 32l12 9q24 20 45 44q3 4 0 8l-49 51q-4 3 -8 0q-62 -46 -105 -83v-8z" />
</svg>
