<?xml version="1.0" standalone="no"?>
<!DOCTYPE svg PUBLIC "-//W3C//DTD SVG 1.1//EN" "http://www.w3.org/Graphics/SVG/1.1/DTD/svg11.dtd" >
<svg xmlns="http://www.w3.org/2000/svg" xmlns:xlink="http://www.w3.org/1999/xlink" version="1.1" viewBox="-10 0 1034 1024">
  <g transform="matrix(1 0 0 -1 0 820)">
   <path fill="currentColor"
d="M302 477q-31 0 -48 -3q-25 -3 -26 -19q0 -42 98 -42q22 0 50 3q33 3 85 13l75 -65l65 -54q-51 1 -78 3q-129 0 -201 -51t-73 -141q0 -96 91 -150q70 -39 169 -40q24 0 52 2q66 6 97 18q45 21 46 57q0 39 -52 40q-36 0 -77 -10q-69 -12 -119 -13q-36 0 -62 5q-30 6 -50 17
q-48 24 -49 83q0 33 13 60q13 30 52 49q48 25 121 26q72 0 130 -28q18 -6 76 -37q27 -12 43 -12q30 0 31 36q0 27 -15 50q-21 34 -55 68q-24 24 -55 51q-30 27 -65 56q13 6 27 10q55 19 56 49q0 28 -48 55q-21 12 -32 18q-4 3 -10 3q-9 0 -9 -7q0 -6 3 -9q19 -24 20 -29
q0 -15 -32 -27q-7 -3 -39 -12q-64 46 -86 73q-24 30 -25 49q0 15 20 19q15 3 30 5q6 1 6 7q0 9 -20 16q-30 9 -74 10q-39 0 -39 -38q0 -58 50 -118q16 -18 38 -41q-34 0 -105 -5v0z" />
  </g>

</svg>
