<?xml version="1.0" standalone="no"?>
<!DOCTYPE svg PUBLIC "-//W3C//DTD SVG 1.1//EN" "http://www.w3.org/Graphics/SVG/1.1/DTD/svg11.dtd" >
<svg xmlns="http://www.w3.org/2000/svg" xmlns:xlink="http://www.w3.org/1999/xlink" version="1.1" viewBox="-10 0 1010 1000">
   <path fill="currentColor"
d="M446 24l4 4q-18 26 -29 76q-10 40 -20 95q140 -12 266 -58v107q-153 39 -280 50q-2 22 -8 64q-4 31 -6 45q-1 9 -4 27q-4 28 -4 41v15q-1 6 4 8q177 -102 290 -99h24q94 2 154 64q58 59 60 145v15q-3 93 -85 175q-81 72 -197 91q-10 1 -29 3q-55 7 -84 7h-24
q-6 -9 -16 -27q-17 -27 -25 -42q-2 -2 -5 -6q-17 -18 -15 -30h49q85 0 137 -12q62 -12 101 -34q53 -30 77 -86q21 -54 -1 -102q-34 -63 -129 -66h-16q-166 5 -294 175q-17 -1 -51 -7q-17 -4 -26 -5q-3 -6 -4 -12v-14q19 -219 36 -329h-20h-28q-42 0 -121 -10q-8 -1 -12 -2
l-12 -101q3 0 8 1q94 11 145 11h54q2 -13 6 -41q9 -64 9 -100v-16q0 -14 -4 -30q34 0 101 7z" />
</svg>
