<?xml version="1.0" standalone="no"?>
<!DOCTYPE svg PUBLIC "-//W3C//DTD SVG 1.1//EN" "http://www.w3.org/Graphics/SVG/1.1/DTD/svg11.dtd" >
<svg xmlns="http://www.w3.org/2000/svg" xmlns:xlink="http://www.w3.org/1999/xlink" version="1.1" viewBox="-10 0 1010 1000">
   <path fill="currentColor"
d="M663 358h33q29 0 86 7q21 3 31 4l-5 102q-95 -21 -145 -20h-36q-25 0 -75 7q-25 4 -38 5l12 -94q11 -1 35 -4q67 -7 102 -7zM659 764h37q100 0 161 -20l-12 114q-3 0 -9 1q-83 10 -128 10h-25q-87 1 -233 -43l12 -93l45 9q97 23 152 22zM708 193v-8l52 -50q4 -3 8 0
q45 29 93 74l4 4q11 9 12 16q-2 7 -8 11q-8 7 -24 19t-24 19q-4 3 -8 0q-66 -57 -105 -85zM804 96l45 -56q24 3 62 36q7 5 10 8q10 8 27 25l18 18q3 4 0 8l-49 50q-4 3 -8 0q-14 -11 -41 -31q-44 -33 -64 -50v-8zM325 24h12l125 32v8q-20 20 -29 55q-17 48 -32 102
q51 -8 149 -32l8 4l-12 101q-86 15 -173 24l-18 57q-51 159 -83 244q-51 139 -117 266l-4 4l-117 -43q89 -123 166 -336q39 -92 68 -186q-29 2 -81 2h-60q-6 -1 -12 -4l-20 -101q18 1 54 6q43 6 63 6h44h40q30 -112 29 -185v-24z" />
</svg>
