<?xml version="1.0" standalone="no"?>
<!DOCTYPE svg PUBLIC "-//W3C//DTD SVG 1.1//EN" "http://www.w3.org/Graphics/SVG/1.1/DTD/svg11.dtd" >
<svg xmlns="http://www.w3.org/2000/svg" xmlns:xlink="http://www.w3.org/1999/xlink" version="1.1" viewBox="-10 0 1010 1000">
   <path fill="currentColor"
d="M621 189h20q99 1 165 59q66 65 69 163v16q0 66 -36 121q-34 55 -105 101q-104 73 -234 84l-62 -76q150 -25 235 -73q115 -73 117 -169v-16q-14 -117 -161 -135h-16q-48 -1 -121 22q-38 12 -93 36q-77 33 -157 81q-3 2 -8 6q-17 14 -28 10l-81 -93q67 -15 196 -60l18 -6
q15 -5 46 -16q154 -57 236 -55z" />
</svg>
