<?xml version="1.0" standalone="no"?>
<!DOCTYPE svg PUBLIC "-//W3C//DTD SVG 1.1//EN" "http://www.w3.org/Graphics/SVG/1.1/DTD/svg11.dtd" >
<svg xmlns="http://www.w3.org/2000/svg" xmlns:xlink="http://www.w3.org/1999/xlink" version="1.1" viewBox="-10 0 1034 1024">
  <g transform="matrix(1 0 0 -1 0 820)">
   <path fill="currentColor"
d="M641 598q-85 0 -223 -68q-127 -63 -160 -76q-21 -9 -29 -13q-69 -24 -100 -26q-25 -1 -26 -17q0 -9 12 -21l26 -24q37 -33 57 -33q18 0 89 52q69 55 165 105q111 58 177 59q85 0 127 -62q36 -54 36 -141q0 -81 -34 -139q-39 -66 -134 -119q-75 -39 -172 -67
q-21 -3 -21 -15q0 -9 27 -10q33 0 81 12q81 24 142 57q177 96 177 272q0 94 -34 163q-60 111 -183 111v0z" />
  </g>

</svg>
