<?xml version="1.0" standalone="no"?>
<!DOCTYPE svg PUBLIC "-//W3C//DTD SVG 1.1//EN" "http://www.w3.org/Graphics/SVG/1.1/DTD/svg11.dtd" >
<svg xmlns="http://www.w3.org/2000/svg" xmlns:xlink="http://www.w3.org/1999/xlink" version="1.1" viewBox="-10 0 1034 1024">
  <g transform="matrix(1 0 0 -1 0 820)">
   <path fill="currentColor"
d="M732 653q-13 0 -14 -8q9 -15 21 -26l80 -71q24 -16 38 -20q33 0 33 40q0 30 -18 44q-21 18 -85 30q-9 3 -32 7q-18 6 -23 4zM861 732q-46 10 -62 9q-22 0 -23 -9q12 -15 22 -21q6 -6 31 -24q55 -45 69 -52q12 -7 22 -8q9 0 18 9q9 10 9 26q0 24 -12 38q-15 19 -48 27
q-13 3 -26 5zM585 606q-90 0 -224 -67l-131 -65q-79 -31 -89 -36q-42 -12 -69 -15q-24 -3 -25 -17q0 -10 12 -22q10 -9 26 -23q36 -31 57 -32q12 0 30 10q16 9 58 41q78 60 165 105q111 58 177 59q87 0 128 -62q34 -54 35 -141q0 -78 -33 -139q-39 -66 -135 -117
q-75 -42 -172 -68q-19 -4 -20 -14q0 -10 25 -11q36 0 82 13q81 21 143 56q177 96 177 272q0 51 -12 100q-24 91 -85 134q-54 39 -120 39v0z" />
  </g>

</svg>
