<?xml version="1.0" standalone="no"?>
<!DOCTYPE svg PUBLIC "-//W3C//DTD SVG 1.1//EN" "http://www.w3.org/Graphics/SVG/1.1/DTD/svg11.dtd" >
<svg xmlns="http://www.w3.org/2000/svg" xmlns:xlink="http://www.w3.org/1999/xlink" version="1.1" viewBox="-10 0 1034 1024">
  <g transform="matrix(1 0 0 -1 0 820)">
   <path fill="currentColor"
d="M650 630q-13 0 -14 -8q9 -15 28 -34l80 -69q16 -12 31 -14q33 0 33 41q0 28 -18 43q-10 6 -53 21q-12 3 -32 9q-16 3 -32 7q-16 6 -23 4zM775 643l32 -24q39 -36 60 -36q12 0 18 9q7 12 8 26q0 42 -41 59q-6 3 -45 11q-49 9 -61 8q-22 0 -23 -8q0 -7 20 -20zM127 50
q-15 -21 -16 -45q0 -36 33 -37q12 0 26 8q15 12 33 48q3 4 7 12q0 3 13 34q33 81 59 149q13 36 29 82l38 118q43 7 77 19q48 18 79 42q28 24 31 49q0 30 -30 30q-21 0 -44 -15q-18 -10 -35 -23q-6 -4 -11 -7q-21 -7 -41 -13q27 91 41 105q15 22 16 27q0 22 -37 42
q-36 19 -55 20q-21 0 -21 -12q0 -3 3 -8q13 -24 14 -50q0 -36 -35 -144q-36 -4 -87 -8q-25 0 -37 -13q-3 -1 -4 -12q0 -15 18 -26q25 -15 64 -15q9 0 24 1l-54 -165q-18 -51 -38 -94q-21 -45 -32 -58q-15 -19 -28 -41zM396 122q-6 0 -14 -17q-16 -31 -17 -62q0 -54 37 -86
q55 -45 168 -45q96 0 157 21q48 18 49 51q0 33 -56 33q-19 0 -39 -3q-69 -9 -125 -15l-88 4q-37 4 -55 19q-16 13 -17 45q3 21 9 43q0 12 -9 12zM731 309q18 0 25 3q24 7 25 31q0 39 -45 66q-48 25 -114 26q-25 0 -71 -7q-49 -7 -50 -28q0 -12 30 -13q36 0 77 -8
q45 -7 46 -32q0 -9 -15 -24q-39 -28 -58 -41q-9 -6 -9 -12q0 -4 7 -5q9 0 33 12q12 9 42 18q27 9 50 11z" />
  </g>

</svg>
