<?xml version="1.0" standalone="no"?>
<!DOCTYPE svg PUBLIC "-//W3C//DTD SVG 1.1//EN" "http://www.w3.org/Graphics/SVG/1.1/DTD/svg11.dtd" >
<svg xmlns="http://www.w3.org/2000/svg" xmlns:xlink="http://www.w3.org/1999/xlink" version="1.1" viewBox="-10 0 1010 1000">
   <path fill="currentColor"
d="M722 181l88 97v8q-240 72 -379 161q-87 54 -121 117q-24 40 -24 67v14q3 72 73 107q55 22 133 22h28q104 0 226 -30l8 125q-27 1 -80 4q-77 4 -114 4h-60q-135 1 -206 -43q-101 -65 -104 -185v-18q1 -131 161 -246q2 -1 5 -3q11 -6 15 -11q-33 -136 -125 -327l105 -20
q70 144 115 294q73 -40 143 -70q71 -30 113 -67z" />
</svg>
