<?xml version="1.0" standalone="no"?>
<!DOCTYPE svg PUBLIC "-//W3C//DTD SVG 1.1//EN" "http://www.w3.org/Graphics/SVG/1.1/DTD/svg11.dtd" >
<svg xmlns="http://www.w3.org/2000/svg" xmlns:xlink="http://www.w3.org/1999/xlink" version="1.1" viewBox="-10 0 1010 1000">
   <path fill="currentColor"
d="M151 56l137 40q-3 19 -21 52q-11 19 -15 29q-59 146 -60 313v30q0 109 36 181h8q19 -43 40 -82l41 8q-3 16 -10 47q-20 91 -19 140v24l-96 20q-44 -57 -69 -161q-24 -96 -24 -199v-43q-1 -90 32 -250q2 -12 7 -35q14 -61 13 -94v-20zM647 139h41q71 0 149 10v103
q-17 -1 -53 -4q-59 -4 -88 -4h-41q-41 0 -121 10q-61 8 -92 10l-9 -103q31 -2 92 -10q80 -12 122 -12zM639 681h36q103 0 218 -32l8 107q-89 26 -185 26h-41q-181 0 -274 -85q-30 -25 -32 -48l69 -41q75 72 201 73z" />
</svg>
