<?xml version="1.0" standalone="no"?>
<!DOCTYPE svg PUBLIC "-//W3C//DTD SVG 1.1//EN" "http://www.w3.org/Graphics/SVG/1.1/DTD/svg11.dtd" >
<svg xmlns="http://www.w3.org/2000/svg" xmlns:xlink="http://www.w3.org/1999/xlink" version="1.1" viewBox="-10 0 1034 1024">
  <g transform="matrix(1 0 0 -1 0 820)">
   <path fill="currentColor"
d="M660 603q-15 0 -15 -8q10 -15 20 -25q1 -3 26 -25l35 -31q42 -33 59 -36q31 0 32 40q0 30 -18 44q-24 16 -85 30q-9 3 -32 7q-16 6 -22 4zM741 689q-22 0 -23 -8q3 -7 18 -19q9 -7 34 -26q15 -9 32 -25q42 -34 60 -35q9 0 18 9q7 12 8 25q0 45 -41 60q-6 3 -45 11
q-46 9 -61 8zM369 338q-19 -12 -36 -24q-13 -12 -28 -21l-22 -19q-10 -9 -23 -20q-64 -64 -65 -144q0 -85 62 -135q42 -33 130 -51q70 -12 153 -13q84 0 132 18q45 16 45 48q0 21 -22 32q-21 10 -70 11q-30 0 -69 -3q-138 -6 -169 -7q-99 3 -123 41q-15 21 -15 67
q0 30 10 48q19 42 82 79q70 42 132 63q103 36 147 54q30 12 39 17q40 21 41 37q0 10 -9 22q-10 16 -33 35q-24 18 -35 18q-9 0 -15 -10q-12 -24 -22 -36q-6 -6 -31 -21q-54 -27 -101 -46l-2 97q0 78 17 104q15 25 16 32q0 21 -45 43q-60 30 -91 30q-15 0 -16 -11
q0 -4 13 -26q16 -25 17 -98q0 -42 6 -211v0z" />
  </g>

</svg>
