<?xml version="1.0" standalone="no"?>
<!DOCTYPE svg PUBLIC "-//W3C//DTD SVG 1.1//EN" "http://www.w3.org/Graphics/SVG/1.1/DTD/svg11.dtd" >
<svg xmlns="http://www.w3.org/2000/svg" xmlns:xlink="http://www.w3.org/1999/xlink" version="1.1" viewBox="-10 0 1034 1024">
  <g transform="matrix(1 0 0 -1 0 820)">
   <path fill="currentColor"
d="M792 10q15 -16 32 -33q12 -15 33 -15q31 0 32 42q0 37 -26 71q-19 27 -59 47q19 88 20 163q0 111 -31 173q-40 78 -139 79q-43 0 -101 -18l-35 -13l-46 -23q1 60 4 64q4 19 11 40q0 30 -52 43q-36 10 -62 11q-22 0 -23 -12q0 -6 5 -15q24 -25 30 -45q9 -27 9 -68
q0 -25 -2 -60q-69 -45 -120 -98q-3 55 -4 83q1 36 12 57q12 25 8 31q-6 13 -35 27q-33 15 -72 15q-22 0 -23 -9q0 -4 3 -8q27 -33 36 -75q0 -6 2 -17q3 -21 7 -64q4 -48 14 -101q-39 -54 -60 -100q-30 -73 -31 -146q0 -55 24 -76q19 -18 53 -19q49 0 91 42q13 15 49 64
q15 -3 23 -4q30 0 30 31q0 18 -13 42q19 48 38 108q15 58 26 105q9 48 19 115q34 19 51 26q58 25 104 26q27 0 46 -10q40 -16 61 -66q22 -54 23 -142q0 -28 -2 -53q-3 -37 -20 -84q-30 1 -48 3q-60 0 -104 -18q-72 -30 -73 -93q0 -33 21 -51q34 -31 87 -32q51 0 102 35
q18 13 47 48zM234 227q25 -72 39 -97q12 -28 32 -54q-19 -30 -36 -46q-19 -19 -41 -20q-24 0 -35 26q-6 18 -7 39q0 40 12 83q9 34 36 69zM390 389q-3 -102 -45 -232q-24 36 -33 55q-12 28 -31 77q39 42 109 100zM700 67q-9 -18 -19 -31q-33 -40 -87 -41q-54 0 -54 43
q0 22 14 33q16 16 51 17q42 0 95 -21v0z" />
  </g>

</svg>
