<?xml version="1.0" standalone="no"?>
<!DOCTYPE svg PUBLIC "-//W3C//DTD SVG 1.1//EN" "http://www.w3.org/Graphics/SVG/1.1/DTD/svg11.dtd" >
<svg xmlns="http://www.w3.org/2000/svg" xmlns:xlink="http://www.w3.org/1999/xlink" version="1.1" viewBox="-10 0 1010 1000">
   <path fill="currentColor"
d="M962 435v28q-1 132 -101 246q-95 105 -194 149q-4 3 -8 0q-7 -5 -20 -16q-44 -38 -72 -52v-8q279 -134 282 -339v-20q-4 -101 -85 -179q-72 -63 -165 -73q-37 174 -85 288q-4 10 -13 30q-62 151 -104 224q-58 101 -129 101q-109 -2 -193 -141q-37 -74 -37 -133v-20
q0 -54 29 -131q34 -74 68 -115q89 -114 210 -159q110 -40 185 -39h41q176 2 282 105q106 109 109 254zM139 502v18q1 58 40 119q32 49 73 50q39 -1 69 -50q17 -25 46 -82q4 -9 6 -13q100 -210 129 -373q-78 9 -145 42q-97 51 -161 145q-57 84 -57 144z" />
</svg>
