<?xml version="1.0" standalone="no"?>
<!DOCTYPE svg PUBLIC "-//W3C//DTD SVG 1.1//EN" "http://www.w3.org/Graphics/SVG/1.1/DTD/svg11.dtd" >
<svg xmlns="http://www.w3.org/2000/svg" xmlns:xlink="http://www.w3.org/1999/xlink" version="1.1" viewBox="-10 0 1010 1000">
   <path fill="currentColor"
d="M232 14h12l125 22q-1 13 -15 40q-6 13 -9 20q-20 55 -26 123q5 -3 14 -10q18 -12 28 -20q4 -3 8 0q16 11 46 34l27 21q-55 53 -117 151q68 -72 153 -131q124 -84 210 -83h16q86 0 141 109q36 77 36 161v24q0 88 -26 162q72 31 119 84l-53 85h-4q-48 -45 -80 -66
q-9 -3 -22 -13q-71 114 -196 119h-20q-105 -8 -145 -80q-34 -92 52 -154q50 -36 125 -36h16q43 0 107 18q10 -50 10 -119v-64q-1 -74 -44 -113q-43 -40 -117 -12q-81 32 -198 141q-63 56 -97 93v28q0 79 16 234q1 8 1 12q1 13 4 39q3 24 4 36l-113 8v-16q4 -158 4 -244
q-5 8 -14 22t-14 22q-7 13 -22 38q-37 60 -43 95h-12l-93 -61v-12q21 -18 53 -61q11 -14 16 -21q81 -112 129 -208q3 -45 6 -89q-7 3 -20 8q-100 35 -143 69l-41 -105v-8q16 -3 50 -10q108 -20 160 -38q0 -17 4 -50q-3 23 0 -3v-5q4 -38 4 -59v-18q0 -25 -7 -73
q-4 -24 -5 -36zM718 685q-56 -16 -115 -16q-34 1 -55 22q-18 18 -6 42q18 30 57 31q31 0 60 -16q28 -16 53 -51z" />
</svg>
