<?xml version="1.0" standalone="no"?>
<!DOCTYPE svg PUBLIC "-//W3C//DTD SVG 1.1//EN" "http://www.w3.org/Graphics/SVG/1.1/DTD/svg11.dtd" >
<svg xmlns="http://www.w3.org/2000/svg" xmlns:xlink="http://www.w3.org/1999/xlink" version="1.1" viewBox="-10 0 1034 1024">
  <g transform="matrix(1 0 0 -1 0 820)">
   <path fill="currentColor"
d="M330 450q-39 -87 -63 -124q-37 -51 -72 -74q-18 -12 -18 -30q0 -42 32 -42q7 0 13 3q15 10 33 36l43 66q18 27 41 68q25 45 58 108q75 21 113 36q48 18 76 38q15 12 16 26q0 21 -15 41q-16 19 -30 20q-13 0 -29 -21q-15 -13 -29 -29q-21 -12 -63 -24q12 33 37 70
q9 13 10 20q0 6 -8 16q-15 18 -37 33q-33 27 -54 27q-12 0 -12 -11q0 -3 14 -36q6 -12 6 -36q-3 -37 -28 -100q-18 -4 -35 -8q-51 -6 -60 -8q-21 4 -41 9q-21 0 -21 -23q0 -21 28 -36q33 -15 65 -16q15 1 30 1zM703 2q18 -9 33 -9q30 0 31 34q0 45 -65 71q-34 13 -86 23
q-6 43 -17 95q-7 42 -8 70q0 19 5 35q7 24 45 31q45 9 77 10q51 1 76 12q39 12 39 41q0 33 -36 57q-33 22 -57 23q-27 0 -29 -16q1 -6 4 -10q16 -30 17 -44q0 -15 -11 -22q-13 -9 -42 -16q-84 -18 -118 -66q-27 -37 -27 -115q0 -39 3 -84q-49 -3 -83 -12q-72 -18 -104 -44
q-37 -30 -38 -74q0 -39 25 -63q19 -21 56 -36q42 -15 90 -15q69 0 108 31q33 33 34 95l-1 32q6 0 79 -34zM539 59q3 -24 3 -48q0 -39 -19 -62q-19 -24 -75 -25h-10q-4 0 -15 2q-33 6 -49 17q-24 15 -25 51q0 69 117 70q25 0 73 -5v0z" />
  </g>

</svg>
