<?xml version="1.0" standalone="no"?>
<!DOCTYPE svg PUBLIC "-//W3C//DTD SVG 1.1//EN" "http://www.w3.org/Graphics/SVG/1.1/DTD/svg11.dtd" >
<svg xmlns="http://www.w3.org/2000/svg" xmlns:xlink="http://www.w3.org/1999/xlink" version="1.1" viewBox="-10 0 1034 1024">
  <g transform="matrix(1 0 0 -1 0 820)">
   <path fill="currentColor"
d="M182 459q42 -37 78 -38q10 0 28 7q129 46 156 54q1 1 81 25q-33 -46 -52 -76q-37 -58 -58 -126q-24 -81 -24 -158q0 -145 109 -191q46 -19 139 -20q60 0 99 12q48 19 49 57q0 45 -53 46l-96 -4l-63 1q-27 3 -49 10q-45 15 -63 40q-21 27 -21 89q0 85 26 164q25 85 91 135
q46 39 120 55q67 16 121 18q76 1 77 24q0 6 -22 30q-10 12 -38 31q-24 18 -34 19q-9 0 -21 -9q-39 -21 -81 -37q-84 -33 -227 -68q-159 -39 -210 -39l-76 6q-21 0 -21 -13q0 -3 5 -10q0 -3 30 -34v0z" />
  </g>

</svg>
