<?xml version="1.0" standalone="no"?>
<!DOCTYPE svg PUBLIC "-//W3C//DTD SVG 1.1//EN" "http://www.w3.org/Graphics/SVG/1.1/DTD/svg11.dtd" >
<svg xmlns="http://www.w3.org/2000/svg" xmlns:xlink="http://www.w3.org/1999/xlink" version="1.1" viewBox="-10 0 1010 1000">
   <path fill="currentColor"
d="M556 177h23q152 4 242 89q89 93 92 221v15q-1 104 -50 201q69 34 99 61l-45 90q-40 -31 -104 -72q-80 92 -218 95h-20q-134 -11 -142 -121q10 -114 170 -129h20q76 0 153 34q32 -67 32 -133v-22q-2 -105 -68 -172q-60 -59 -161 -60h-16q-15 0 -23 2q-18 99 -54 195
q-24 59 -53 113q8 11 31 27q7 5 10 8l-65 70h-8q-5 -4 -14 -11t-14 -11q-24 32 -52 62q-92 97 -166 97h-16q-93 -5 -101 -141v-20q0 -77 45 -167q31 -56 70 -107q-37 -65 -62 -127q-9 -22 -12 -43l96 -40q16 77 43 139q111 -100 242 -133q2 -17 2 -48v-27q0 -18 -4 -52
q-3 -24 -4 -36q66 5 125 20q3 10 -7 23q-4 6 -5 9q-5 24 -9 73q0 2 -1 8q-1 12 -1 20zM446 294q-55 20 -97 48q-37 24 -77 65q45 68 93 109q61 -103 81 -222zM131 661v16q3 41 40 44q30 1 81 -48q42 -41 60 -65q-56 -60 -104 -125q-13 15 -20 27q-57 89 -57 151zM599 701
h-24q-22 1 -37 12q-18 17 -20 35q4 39 65 46h20q58 -1 121 -57q-8 -6 -16 -8q-58 -28 -109 -28z" />
</svg>
