<?xml version="1.0" standalone="no"?>
<!DOCTYPE svg PUBLIC "-//W3C//DTD SVG 1.1//EN" "http://www.w3.org/Graphics/SVG/1.1/DTD/svg11.dtd" >
<svg xmlns="http://www.w3.org/2000/svg" xmlns:xlink="http://www.w3.org/1999/xlink" version="1.1" viewBox="-10 0 1010 1000">
   <path fill="currentColor"
d="M954 560l4 8l-61 101h-12q-164 -90 -375 -270q-22 -17 -64 -51q-9 -7 -13 -10q-45 -36 -72 -20q-17 9 -47 42l-2 2q-45 40 -84 85q-51 57 -69 101h-8l-109 -97v-12q35 -3 91 -50q9 -8 14 -12q19 -15 54 -49q18 -17 27 -26q5 -5 16 -15q76 -77 137 -74q47 0 125 57
q11 8 16 12q108 85 186 137q102 65 246 141z" />
</svg>
