<?xml version="1.0" standalone="no"?>
<!DOCTYPE svg PUBLIC "-//W3C//DTD SVG 1.1//EN" "http://www.w3.org/Graphics/SVG/1.1/DTD/svg11.dtd" >
<svg xmlns="http://www.w3.org/2000/svg" xmlns:xlink="http://www.w3.org/1999/xlink" version="1.1" viewBox="-10 0 1034 1024">
  <g transform="matrix(1 0 0 -1 0 820)">
   <path fill="currentColor"
d="M150 429q-21 -96 -21 -180q0 -78 16 -148q18 -75 45 -119q28 -39 58 -40q24 0 24 25q0 13 -8 41q-13 45 -14 101q0 52 10 93q0 6 1 11q0 18 -11 18q-12 0 -29 -66q0 -9 -22 -76q-9 28 -13 50q-12 54 -12 115q0 72 18 143q16 63 44 116q12 22 36 40q16 13 17 22
q0 6 -21 32q-18 22 -45 43q-25 18 -39 19q-15 0 -16 -15q0 -6 3 -11q9 -21 9 -55q0 -24 -4 -41zM552 416l3 -262q-54 -1 -71 -5q-61 -7 -92 -32q-37 -27 -38 -77q0 -42 28 -64q33 -24 95 -24q73 0 112 34q27 27 37 87q39 -21 52 -35q21 -19 30 -27q9 -9 28 -9q36 0 37 35
q0 18 -11 34q-21 30 -57 47q-30 15 -80 28q-4 54 -9 117l-3 160q48 13 79 27q52 25 53 58q0 10 -5 26q-9 24 -21 25q-6 0 -11 -7q-15 -21 -21 -26q-9 -6 -27 -15q-21 -9 -50 -15q-1 28 -3 44q0 39 16 62q6 12 7 15q0 9 -27 29q-12 7 -47 24q-31 12 -47 13q-21 0 -21 -13
q0 -3 5 -7q21 -33 31 -57q15 -45 24 -124q-109 -19 -147 -20q-43 0 -44 -12q0 -1 2 -4q6 -10 30 -19q36 -12 113 -13q18 0 50 2zM549 93q-3 -45 -16 -67q-21 -30 -80 -31q-24 0 -34 3q-37 12 -38 47q0 25 23 39q33 13 85 14q25 0 60 -5zM836 757q-36 0 -60 -22
q-31 -27 -32 -69q0 -39 27 -66q24 -27 64 -27q37 0 64 27q27 25 27 65q0 37 -27 65q-27 27 -63 27zM833 720q54 0 55 -54q0 -55 -55 -56q-54 0 -54 55q0 54 54 55v0z" />
  </g>

</svg>
