<?xml version="1.0" standalone="no"?>
<!DOCTYPE svg PUBLIC "-//W3C//DTD SVG 1.1//EN" "http://www.w3.org/Graphics/SVG/1.1/DTD/svg11.dtd" >
<svg xmlns="http://www.w3.org/2000/svg" xmlns:xlink="http://www.w3.org/1999/xlink" version="1.1" viewBox="-10 0 1034 1024">
  <g transform="matrix(1 0 0 -1 0 820)">
   <path fill="currentColor"
d="M536 493q27 18 30 19q34 24 35 53q0 22 -23 46q-30 30 -85 41q-33 4 -47 5q-22 0 -23 -13q0 -9 23 -23q42 -24 51 -33q12 -12 14 -36q0 -21 -36 -57q-52 -57 -55 -62q-27 -33 -27 -63q0 -19 20 -51q18 -28 77 -80q-85 -33 -137 -66l-67 -46q-15 -15 -36 -29q-18 6 -29 8
q-25 3 -48 4q-21 0 -31 -4q-36 -9 -36 -43q0 -22 20 -45q27 -31 69 -32q34 0 71 36q15 15 21 20q81 -36 121 -66q16 -13 34 -27q27 -21 58 -21q51 0 97 52q51 58 51 138q0 33 -8 61q-4 15 -16 34q52 -6 101 -34q61 -33 62 -69q0 -13 -19 -23q-24 -9 -38 -13q-22 -4 -23 -13
q0 -9 34 -10q39 -1 80 -25q13 -6 27 -14q10 -6 29 -7q34 0 35 44q0 54 -56 105q-57 51 -144 79q-54 16 -118 19q-25 25 -38 35q-7 6 -56 37q-67 45 -68 70q0 12 15 34q19 24 55 44q16 10 34 21zM212 68q-34 -24 -52 -25q-21 0 -21 18q0 16 27 17q18 0 46 -10zM310 68
q48 63 72 83q48 40 137 60q21 -27 26 -37q13 -33 15 -79q0 -90 -71 -91q-42 0 -133 43z" />
  </g>

</svg>
