<?xml version="1.0" standalone="no"?>
<!DOCTYPE svg PUBLIC "-//W3C//DTD SVG 1.1//EN" "http://www.w3.org/Graphics/SVG/1.1/DTD/svg11.dtd" >
<svg xmlns="http://www.w3.org/2000/svg" xmlns:xlink="http://www.w3.org/1999/xlink" version="1.1" viewBox="-10 0 1015 1000">
   <path fill="currentColor"
d="M361 127l64 -71q5 3 15 8q125 62 171 117l-61 71q-87 -74 -189 -125zM276 588l41 81q3 6 0 12q-43 48 -81 75q-47 26 -77 26h-16q-59 0 -89 -77q-20 -42 -48 -129l93 -32q14 41 28 71q18 43 48 42q30 0 76 -46q17 -16 25 -23zM994 713l-85 51h-8q-95 -152 -193 -244
l68 -41q6 -3 12 0q6 5 18 16q44 36 67 61q37 39 89 105q2 3 8 9q27 26 24 43zM716 185l60 -46q52 48 101 121l-64 46h-5q-52 -80 -92 -121zM994 189l-61 44q-45 -66 -100 -121l60 -36q54 51 101 113zM369 314h93v12q11 51 32 105q20 49 56 109q4 9 14 26q62 109 43 171
q-32 95 -121 101q-29 0 -82 -11q-5 -1 -7 -1l-4 -4l-16 -93l4 -8q67 27 101 -12q29 -33 -12 -105q-13 -26 -37 -77q-8 -17 -12 -25q-53 -105 -52 -172v-16z" />
</svg>
