<?xml version="1.0" standalone="no"?>
<!DOCTYPE svg PUBLIC "-//W3C//DTD SVG 1.1//EN" "http://www.w3.org/Graphics/SVG/1.1/DTD/svg11.dtd" >
<svg xmlns="http://www.w3.org/2000/svg" xmlns:xlink="http://www.w3.org/1999/xlink" version="1.1" viewBox="-10 0 1034 1024">
  <g transform="matrix(1 0 0 -1 0 820)">
   <path fill="currentColor"
d="M822 719q-39 0 -66 -26q-27 -27 -27 -65q0 -39 27 -65q27 -27 65 -27q37 0 64 27q27 25 27 65q0 36 -27 64q-27 27 -63 27zM818 682q21 0 36 -12q19 -15 20 -42q0 -55 -56 -56q-54 0 -54 56q0 54 54 54zM639 430q10 -12 25 -25q48 -46 49 -63q0 -10 -12 -22
q-10 -6 -21 -14q0 -1 -2 -4q0 -10 24 -11q43 0 67 8q40 12 41 42q0 27 -29 57l-25 26q-27 25 -38 42l-11 14q-27 42 -41 97q-4 24 -15 29q-4 3 -12 3q-27 0 -52 -16q-24 -15 -24 -34q0 -10 12 -34q28 -58 29 -135q0 -201 -90 -314q-55 -67 -140 -68q-75 0 -117 54
q-42 52 -42 144q0 99 59 207q15 28 37 61q21 34 31 43q18 21 38 40q13 13 14 30q0 12 -16 31q-33 34 -55 35q-15 0 -27 -15q-16 -16 -31 -34q-9 -10 -22 -20q-4 -4 -12 -8q-30 -18 -77 -19q-49 0 -50 -21q0 -12 17 -26q31 -24 77 -24q24 0 72 10l-49 -88q-16 -34 -33 -72
q-36 -87 -37 -157q0 -73 36 -139q57 -97 172 -98q60 0 118 29q63 33 105 101q33 60 46 149q10 81 11 171v38z" />
  </g>

</svg>
