<?xml version="1.0" standalone="no"?>
<!DOCTYPE svg PUBLIC "-//W3C//DTD SVG 1.1//EN" "http://www.w3.org/Graphics/SVG/1.1/DTD/svg11.dtd" >
<svg xmlns="http://www.w3.org/2000/svg" xmlns:xlink="http://www.w3.org/1999/xlink" version="1.1" viewBox="-10 0 1010 1000">
   <path fill="currentColor"
d="M97 32h12q40 15 113 44v12q-14 13 -29 47l-3 6q-39 117 -53 177q-24 101 -24 180v42q0 24 8 68q11 69 32 105q2 -5 7 -14q23 -48 30 -72l56 18q-46 133 -44 209v15l-73 20h-8q-37 -49 -56 -107q-37 -121 -37 -238v-65q-2 -79 35 -223l9 -42q26 -103 25 -158v-24zM855 189
q-113 -6 -121 -113q8 -106 119 -113q114 6 119 113q-5 108 -117 113zM855 127q52 -2 56 -49q-4 -50 -58 -54q-52 4 -55 52q1 50 57 51zM476 270h48q23 0 36 -2q-9 -143 -24 -212l133 8v8q-15 14 -14 50q1 21 -2 31q0 17 1 54t1 53q2 0 7 -2q8 -2 11 -2q85 -15 137 -35v97
q-49 13 -155 30q1 27 3 86q2 58 3 86q4 59 4 92v15q80 25 206 94l-56 105q-53 -41 -152 -89q-14 51 -38 81q-51 58 -145 59h-24q-157 -17 -170 -144q11 -122 174 -137h24q32 0 81 8v-16q-5 -138 -5 -193v-37q0 -1 -32 0h-20h-40q-62 0 -170 -16v-98q105 26 178 26zM468 681
h-20q-74 6 -77 56q3 39 77 45h16q40 0 72 -22q28 -25 27 -63q-47 -16 -95 -16z" />
</svg>
