<?xml version="1.0" standalone="no"?>
<!DOCTYPE svg PUBLIC "-//W3C//DTD SVG 1.1//EN" "http://www.w3.org/Graphics/SVG/1.1/DTD/svg11.dtd" >
<svg xmlns="http://www.w3.org/2000/svg" xmlns:xlink="http://www.w3.org/1999/xlink" version="1.1" viewBox="-10 0 1014 1000">
   <path fill="currentColor"
d="M313 56h4l88 59v8q-80 42 -153 147q-65 96 -97 189q-24 60 -24 113v16q17 169 182 186h16q75 -1 121 -37q51 -40 84 -102q52 -116 53 -262v-35q0 -72 -33 -214q-3 -11 -4 -16q30 -4 93 -12q72 201 214 335l-81 63q-50 -46 -101 -136q-2 21 -5 63q-8 186 -55 272
q-96 175 -286 184h-21q-113 -4 -197 -83q-70 -74 -73 -190v-24q-5 -132 132 -343q15 -24 22 -36q-18 9 -59 18q-61 12 -83 33l-44 -103q19 -4 59 -11q145 -22 215 -62q5 -2 13 -9q13 -11 20 -11zM740 100l56 -44q49 47 105 125l-64 52q-45 -79 -97 -133zM829 24l52 -53
q81 69 113 117l-52 51q-50 -61 -113 -115z" />
</svg>
