<?xml version="1.0" standalone="no"?>
<!DOCTYPE svg PUBLIC "-//W3C//DTD SVG 1.1//EN" "http://www.w3.org/Graphics/SVG/1.1/DTD/svg11.dtd" >
<svg xmlns="http://www.w3.org/2000/svg" xmlns:xlink="http://www.w3.org/1999/xlink" version="1.1" viewBox="-10 0 1010 1000">
   <path fill="currentColor"
d="M107 32h12l113 44q-3 19 -23 56q-9 17 -13 25q-77 184 -77 330v27q0 119 40 207q5 -10 14 -31q19 -42 27 -63l48 26q-38 121 -36 189v27l-85 20h-8q-84 -175 -85 -369v-33q0 -76 36 -225q3 -15 5 -22q33 -116 32 -180v-28zM885 139l-52 46q-29 -28 -96 -79q-9 -7 -13 -10
l52 -52q12 10 37 30q50 39 72 65zM966 68l-49 47q-19 -16 -57 -47q-35 -30 -52 -44l49 -49q11 9 34 26q54 39 75 67zM546 56l125 8q-9 47 -16 125q0 4 -1 15q-2 23 -3 50q3 0 10 -1t10 -1q92 -11 154 -31v101q-103 19 -172 26q1 13 3 35q2 18 3 28q3 33 8 98q5 66 8 99
q0 2 1 7q1 8 1 12q93 32 212 106l-64 93q-78 -59 -150 -93q-11 56 -44 89q-55 53 -157 55h-16q-115 -7 -150 -87q-34 -89 37 -155q51 -38 137 -39h16q52 0 85 8q-1 -12 -4 -46q-4 -41 -16 -202q-15 2 -53 2h-48q-76 0 -154 -16v-98q90 22 150 22h48q40 0 57 -2
q0 -74 -1 -107q0 -4 -1 -13q-2 -59 -15 -88zM482 681h-20q-48 1 -73 28q-29 41 20 73q64 35 149 -26q20 -19 27 -57q-47 -18 -103 -18z" />
</svg>
