<?xml version="1.0" standalone="no"?>
<!DOCTYPE svg PUBLIC "-//W3C//DTD SVG 1.1//EN" "http://www.w3.org/Graphics/SVG/1.1/DTD/svg11.dtd" >
<svg xmlns="http://www.w3.org/2000/svg" xmlns:xlink="http://www.w3.org/1999/xlink" version="1.1" viewBox="-10 0 1010 1000">
   <path fill="currentColor"
d="M603 181l-61 71q-77 -67 -177 -117l52 -79q99 55 186 125zM466 318v16v8q13 65 48 133q10 21 32 62q34 65 49 98q20 44 20 66v16q-13 117 -121 129h-16q-19 0 -41 -4q-3 0 -10 -1q-19 -2 -30 -7l-12 -101l52 11q52 1 61 -47v-16q0 -38 -42 -109q-7 -11 -10 -16
q-79 -143 -73 -242q16 1 47 2t46 2zM272 588l49 81q-37 51 -81 91q-26 23 -48 30q-36 11 -77 -8q-27 -14 -52 -49q-49 -73 -53 -145l89 -44q6 36 20 71q22 54 56 54q12 0 35 -18l2 -2q25 -18 60 -61zM700 516l84 -45q134 117 206 242l-85 51q-82 -122 -205 -248zM861 338
q-114 -8 -121 -121q8 -110 121 -119q113 6 119 121q-5 114 -119 119zM861 272q55 -1 56 -53q-4 -54 -56 -58q-52 3 -55 56q2 53 55 55z" />
</svg>
