<?xml version="1.0" standalone="no"?>
<!DOCTYPE svg PUBLIC "-//W3C//DTD SVG 1.1//EN" "http://www.w3.org/Graphics/SVG/1.1/DTD/svg11.dtd" >
<svg xmlns="http://www.w3.org/2000/svg" xmlns:xlink="http://www.w3.org/1999/xlink" version="1.1" viewBox="-10 0 1034 1024">
  <g transform="matrix(1 0 0 -1 0 820)">
   <path fill="currentColor"
d="M503 289q34 -33 79 -63q81 -54 167 -87q51 -16 89 -17q58 0 59 54q0 28 -23 44q-10 7 -70 19q-45 6 -138 47q-91 39 -152 81q-73 51 -76 52q-19 15 -46 16q-18 0 -35 -6q-30 -10 -58 -40l-46 -48q-42 -45 -85 -62q-36 -9 -38 -10q-9 -4 -9 -14q0 -18 23 -36
q27 -21 59 -22q21 0 37 13q18 13 33 37q21 30 35 52l14 22q34 46 64 47q13 0 26 -6q19 -9 45 -30z" />
  </g>

</svg>
