<?xml version="1.0" standalone="no"?>
<!DOCTYPE svg PUBLIC "-//W3C//DTD SVG 1.1//EN" "http://www.w3.org/Graphics/SVG/1.1/DTD/svg11.dtd" >
<svg xmlns="http://www.w3.org/2000/svg" xmlns:xlink="http://www.w3.org/1999/xlink" version="1.1" viewBox="-10 0 1010 1000">
   <path fill="currentColor"
d="M357 127l68 -75q97 44 186 121l-69 79q-100 -82 -185 -125zM373 314h93v12q11 51 32 105q20 49 56 109q4 9 14 26q62 109 43 171q-32 95 -121 101q-29 0 -82 -11q-5 -1 -7 -1l-4 -4l-16 -93l4 -8q67 27 101 -12q29 -33 -12 -105q-36 -67 -49 -102q-53 -105 -52 -172v-16z
M10 576l93 -32q15 42 32 83q13 29 36 30q9 0 26 -11q7 -5 11 -7q48 -36 72 -63q15 54 32 105q-11 10 -33 31q-55 57 -92 66q-78 23 -133 -81q-35 -68 -44 -121zM708 514l80 -47q108 83 202 222l-85 63h-8q-77 -113 -189 -238z" />
</svg>
