<?xml version="1.0" standalone="no"?>
<!DOCTYPE svg PUBLIC "-//W3C//DTD SVG 1.1//EN" "http://www.w3.org/Graphics/SVG/1.1/DTD/svg11.dtd" >
<svg xmlns="http://www.w3.org/2000/svg" xmlns:xlink="http://www.w3.org/1999/xlink" version="1.1" viewBox="-10 0 1034 1024">
  <g transform="matrix(1 0 0 -1 0 820)">
   <path fill="currentColor"
d="M499 131q-45 1 -78 -3q-82 -9 -126 -37q-45 -30 -45 -73q0 -42 40 -72q33 -22 91 -23q85 0 131 43q21 21 41 77q58 -27 73 -36q15 -10 30 -22q24 -15 52 -16q36 0 37 27q0 15 -9 27q-13 22 -36 40q-36 25 -66 35q-28 9 -71 12l-2 169q34 1 71 12q70 24 71 60q0 15 -19 35
q-18 18 -36 19q-9 0 -14 -7l-12 -18q0 -1 -4 -5q-12 -7 -41 -13q-9 0 -17 -3l-1 104q36 3 61 7q46 9 77 25q27 15 27 37q0 27 -32 28q-15 0 -26 -3l-49 -17q-33 -12 -58 -18q-1 60 9 81q9 18 10 26q0 18 -45 35q-36 12 -64 12q-18 0 -18 -10q0 -6 10 -17q24 -25 31 -57
q1 -15 3 -27v-53l-41 -4q-33 -1 -56 -2q-18 -1 -30 -2q-13 0 -23 -4q-16 -4 -17 -20q0 -15 24 -25q15 -6 52 -7q36 0 92 9l2 -121q-42 -12 -127 -21q-64 -4 -65 -30q0 -10 25 -21q21 -9 68 -9q42 0 99 13zM486 64q-12 -40 -29 -63q-30 -43 -98 -44q-33 0 -51 12
q-19 10 -20 42q0 69 109 69q42 0 89 -16v0z" />
  </g>

</svg>
