<?xml version="1.0" standalone="no"?>
<!DOCTYPE svg PUBLIC "-//W3C//DTD SVG 1.1//EN" "http://www.w3.org/Graphics/SVG/1.1/DTD/svg11.dtd" >
<svg xmlns="http://www.w3.org/2000/svg" xmlns:xlink="http://www.w3.org/1999/xlink" version="1.1" viewBox="-10 0 1034 1024">
  <g transform="matrix(1 0 0 -1 0 820)">
   <path fill="currentColor"
d="M523 539q27 51 29 53q4 6 11 14q7 12 8 18q0 10 -20 34q-6 7 -23 21q-12 10 -31 23q-24 15 -37 15q-16 0 -17 -15q0 -3 1 -8q6 -15 13 -30q7 -24 8 -41q0 -45 -25 -121q-9 1 -19 5q-58 15 -79 30q-18 9 -22 10q-13 0 -14 -21q0 -36 33 -63q22 -21 78 -46q-1 -13 -5 -26
q-81 -18 -123 -55q-36 -30 -37 -71q0 -51 50 -86q21 -15 60 -31q0 -94 19 -142q12 -39 48 -78q54 -54 127 -54q69 0 129 37q90 60 91 159q0 96 -68 185q-22 27 -40 28q-7 0 -8 -6q0 -6 11 -17q15 -15 31 -46q18 -42 18 -98q0 -42 -16 -80q-42 -90 -145 -90q-75 0 -113 52
q-27 43 -28 104q0 9 2 31q28 -3 50 -3q79 0 80 42q0 33 -41 45q-30 7 -84 10l12 64q3 24 16 63q55 12 66 17q39 13 40 48q0 34 -29 55q-15 10 -27 16q9 25 20 49zM399 347q-6 -33 -25 -114q-43 1 -64 8q-33 15 -33 43q0 24 30 40q18 12 92 23v0z" />
  </g>

</svg>
