<?xml version="1.0" standalone="no"?>
<!DOCTYPE svg PUBLIC "-//W3C//DTD SVG 1.1//EN" "http://www.w3.org/Graphics/SVG/1.1/DTD/svg11.dtd" >
<svg xmlns="http://www.w3.org/2000/svg" xmlns:xlink="http://www.w3.org/1999/xlink" version="1.1" viewBox="-10 0 1010 1000">
   <path fill="currentColor"
d="M538 32h16h8l101 24q-2 11 -5 32q-11 74 -19 113q132 6 202 65q99 87 101 228v22q-1 114 -53 189q-50 71 -133 125q-58 36 -109 51q-8 0 -24 -21q-6 -8 -8 -10q-22 -22 -53 -44q251 -69 267 -282v-14q-3 -104 -73 -164q-54 -44 -137 -52q-43 164 -129 294q28 31 72 61
l-80 72q-4 3 -8 0q-34 -33 -47 -50q-27 32 -58 62q-105 95 -181 93h-13q-106 -7 -117 -161v-20q1 -83 53 -170q44 -72 89 -115q-60 -116 -89 -179l105 -54v18v8q18 78 58 149q129 -84 268 -99q8 -59 8 -88v-15q0 -36 -12 -68zM520 298q-111 19 -201 83q6 9 19 27t19 27
q23 34 68 83q2 -3 5 -8q27 -47 40 -75q30 -66 50 -137zM155 641v16q2 46 24 60q19 11 61 -8q48 -25 101 -82q12 -15 24 -23q-35 -39 -57 -76q-30 -40 -58 -85q-40 43 -58 73q-36 71 -37 125z" />
</svg>
