<?xml version="1.0" standalone="no"?>
<!DOCTYPE svg PUBLIC "-//W3C//DTD SVG 1.1//EN" "http://www.w3.org/Graphics/SVG/1.1/DTD/svg11.dtd" >
<svg xmlns="http://www.w3.org/2000/svg" xmlns:xlink="http://www.w3.org/1999/xlink" version="1.1" viewBox="-10 0 1010 1000">
   <path fill="currentColor"
d="M474 14l121 14l4 4q-14 21 -20 48q-4 14 -8 83q46 -3 137 -17q24 -3 36 -5l-8 92q-83 14 -165 17q3 63 6 127h6q105 -10 173 -31l-12 93q-69 21 -161 28q4 79 12 186q105 32 222 121l-49 80q-77 -63 -169 -98q-3 85 -73 121q-52 22 -121 22h-36q-93 -1 -149 -49
q-57 -63 -28 -137q21 -43 72 -64q61 -22 137 -22h36q31 0 67 6q-1 -27 -5 -81q-4 -52 -5 -77q0 1 0 -4h-81q-75 -1 -145 -4l-8 -4l-16 -86v-8l45 6q64 10 100 10h77h24q0 -30 -3 -99q-1 -22 -1 -34h-28q-69 0 -194 -8l-8 -4l-20 -91q24 2 72 7q69 9 105 9h73v-42
q0 -42 -12 -109zM389 701h-20q-89 6 -93 63q1 23 36 38q26 12 61 12h20q53 0 85 -24q28 -22 28 -61v-16q-14 -1 -41 -5q-50 -7 -76 -7z" />
</svg>
