<?xml version="1.0" standalone="no"?>
<!DOCTYPE svg PUBLIC "-//W3C//DTD SVG 1.1//EN" "http://www.w3.org/Graphics/SVG/1.1/DTD/svg11.dtd" >
<svg xmlns="http://www.w3.org/2000/svg" xmlns:xlink="http://www.w3.org/1999/xlink" version="1.1" viewBox="-10 0 1034 1024">
  <g transform="matrix(1 0 0 -1 0 820)">
   <path fill="currentColor"
d="M314 524q6 12 7 23q0 22 -23 49q-33 39 -47 37q-10 0 -11 -11q0 -7 8 -24q4 -12 5 -25q0 -21 -20 -74q-33 -93 -42 -159t-9 -138q0 -111 27 -186q16 -45 39 -77q27 -40 58 -41q24 0 24 17q0 12 -7 23q-22 54 -23 111q0 54 14 119q1 12 2 15q0 9 -6 10q-6 0 -12 -25
q-3 -15 -11 -37q-3 -3 -7 -21q-7 -24 -18 -25q-3 0 -5 3q-10 10 -16 65q-3 24 -4 87q0 46 11 103q12 81 41 132q12 25 25 49zM710 372q63 15 84 22q27 12 27 29q0 19 -25 35q-22 12 -46 12q-18 0 -43 -12q-16 -7 -32 -17q-9 -3 -23 -7q-3 42 -11 90q45 18 72 33q39 24 40 53
q0 28 -42 29q-25 0 -47 -9q-57 -25 -86 -35q-24 -6 -61 -10q-30 -1 -35 -2q-18 -3 -19 -19q0 -30 51 -42q18 -3 55 -6q9 -52 12 -103q-48 -9 -80 -14q-25 -3 -50 -4q-19 0 -26 -3q-15 -3 -15 -14q0 -12 25 -29q40 -25 81 -26q9 0 19 2q18 1 55 11l12 -175q0 -18 2 -43
q-81 0 -124 -17q-94 -36 -95 -110q0 -27 14 -50q28 -45 97 -46q63 0 107 37q28 21 58 79q21 -9 50 -29l34 -24q19 -13 44 -14q40 0 41 39q0 28 -24 50q-18 18 -54 39t-74 33l-17 252zM593 38q-18 -33 -35 -48q-27 -27 -79 -28q-54 0 -55 36q0 21 17 32q30 21 81 21
q37 0 71 -13v0z" />
  </g>

</svg>
