<?xml version="1.0" standalone="no"?>
<!DOCTYPE svg PUBLIC "-//W3C//DTD SVG 1.1//EN" "http://www.w3.org/Graphics/SVG/1.1/DTD/svg11.dtd" >
<svg xmlns="http://www.w3.org/2000/svg" xmlns:xlink="http://www.w3.org/1999/xlink" version="1.1" viewBox="-10 0 1034 1024">
  <g transform="matrix(1 0 0 -1 0 820)">
   <path fill="currentColor"
d="M359 551q-13 -7 -27 -24q-37 -42 -53 -141l-12 -76q-1 -21 -7 -38l-26 -101q-3 -15 -4 -17q-1 -39 31 -40q21 0 38 20q9 12 65 75q45 39 101 68q72 39 134 39q54 0 84 -33q31 -31 32 -96q0 -70 -54 -129q-39 -37 -115 -66q-42 -13 -67 -19q-12 -3 -12 -8q0 -6 10 -11
q12 -6 44 -6q70 0 144 38q126 69 127 200q0 94 -60 132q-48 33 -113 33q-96 0 -206 -53q-39 -18 -89 -46q-10 70 -11 135q0 57 11 91q18 51 87 73q21 7 78 16q49 6 50 29q0 15 -42 47q-16 13 -38 27l-38 24q-34 19 -51 20q-15 0 -16 -13q0 -18 26 -49q36 -42 37 -54
q0 -12 -17 -23z" />
  </g>

</svg>
