<?xml version="1.0" standalone="no"?>
<!DOCTYPE svg PUBLIC "-//W3C//DTD SVG 1.1//EN" "http://www.w3.org/Graphics/SVG/1.1/DTD/svg11.dtd" >
<svg xmlns="http://www.w3.org/2000/svg" xmlns:xlink="http://www.w3.org/1999/xlink" version="1.1" viewBox="-10 0 1034 1024">
  <g transform="matrix(1 0 0 -1 0 820)">
   <path fill="currentColor"
d="M502 530q-9 -81 -13 -146l-3 -223q-69 -3 -87 -7q-76 -10 -111 -40q-34 -25 -35 -66q0 -42 27 -66q45 -42 117 -42q85 0 123 48q22 27 29 88q75 -30 96 -47q22 -15 45 -32q18 -12 37 -13q30 0 31 38q0 27 -13 44q-25 33 -82 58q-48 22 -116 32l-3 156q0 76 9 149
q75 -34 128 -35q40 0 68 9q45 15 46 46q0 24 -22 35q-12 4 -17 5q-16 0 -87 -16q-27 -6 -60 -6q-21 0 -48 7q10 36 19 46q13 19 19 29q3 3 3 9q0 27 -56 63q-40 27 -63 27q-10 0 -11 -10q0 -6 10 -23q12 -18 16 -33q4 -25 5 -55q-1 -13 -1 -29zM485 93q-4 -48 -27 -72
q-31 -30 -91 -30q-27 0 -43 3q-51 10 -51 51q0 28 28 46q27 16 88 17q46 0 96 -15v0z" />
  </g>

</svg>
