<?xml version="1.0" standalone="no"?>
<!DOCTYPE svg PUBLIC "-//W3C//DTD SVG 1.1//EN" "http://www.w3.org/Graphics/SVG/1.1/DTD/svg11.dtd" >
<svg xmlns="http://www.w3.org/2000/svg" xmlns:xlink="http://www.w3.org/1999/xlink" version="1.1" viewBox="-10 0 1010 1000">
   <path fill="currentColor"
d="M280 64l61 -74q115 44 205 102v8l-68 69q-87 -60 -198 -105zM196 201l108 20q-25 119 -32 293q141 -114 278 -115h29q108 0 173 44q77 59 81 149v20q-3 98 -81 170q-64 60 -177 95q-46 19 -97 22l-49 -85v-8q5 -1 14 -3q94 -22 140 -39q132 -50 133 -137v-15
q-8 -107 -141 -118h-17q-75 0 -153 38q-94 50 -125 125l-113 -38q3 -39 11 -117q19 -171 18 -258v-43z" />
</svg>
