<?xml version="1.0" standalone="no"?>
<!DOCTYPE svg PUBLIC "-//W3C//DTD SVG 1.1//EN" "http://www.w3.org/Graphics/SVG/1.1/DTD/svg11.dtd" >
<svg xmlns="http://www.w3.org/2000/svg" xmlns:xlink="http://www.w3.org/1999/xlink" version="1.1" viewBox="-10 0 1034 1024">
  <g transform="matrix(1 0 0 -1 0 820)">
   <path fill="currentColor"
d="M404 483l-53 -62q-52 -66 -70 -125q-15 -54 -25 -55q-6 0 -11 22q-6 19 -6 47q0 40 7 74q6 37 30 90q18 36 26 57q4 13 5 20q0 24 -40 57q-30 25 -39 26q-15 0 -15 -24q6 -48 6 -57q-3 -30 -14 -80q-25 -93 -26 -174q0 -117 30 -180q25 -60 65 -60q33 0 33 36q0 9 -1 15
q-6 36 -6 80q0 52 20 111q13 39 34 71q12 19 45 59q-1 -43 -3 -71q0 -96 31 -170q16 -42 69 -90q-25 -49 -68 -95q-49 -51 -85 -70q-16 -9 -17 -18q0 -7 12 -8q30 0 101 47q63 45 115 116q39 -7 66 -8q39 0 73 14q76 34 116 120q30 66 31 168q0 63 -13 114q-15 57 -52 85
q-36 30 -98 30q-24 0 -52 -3q-9 42 -21 61q-21 36 -57 37q-66 0 -108 -93q-16 -39 -35 -114zM522 149q-63 39 -81 85q-18 51 -19 123q0 45 6 101q60 45 134 71q6 -66 6 -108q0 -66 -9 -129q-9 -61 -37 -143zM439 512q21 73 29 88q19 39 45 40q24 0 37 -31q3 -10 5 -36
q-61 -21 -116 -61zM585 132q21 67 32 113q16 93 17 208q0 36 -3 88q16 0 29 2q60 0 93 -45q25 -42 26 -113q0 -121 -58 -197q-40 -49 -105 -55q-16 0 -31 -1v0z" />
  </g>

</svg>
