<?xml version="1.0" standalone="no"?>
<!DOCTYPE svg PUBLIC "-//W3C//DTD SVG 1.1//EN" "http://www.w3.org/Graphics/SVG/1.1/DTD/svg11.dtd" >
<svg xmlns="http://www.w3.org/2000/svg" xmlns:xlink="http://www.w3.org/1999/xlink" version="1.1" viewBox="-10 0 1034 1024">
  <g transform="matrix(1 0 0 -1 0 820)">
   <path fill="currentColor"
d="M381 52q12 -22 34 -23q16 0 17 22q0 6 -1 9q-9 93 -9 129q-1 37 -1 111q21 36 54 60q63 48 141 48q57 0 96 -28q48 -37 49 -119q0 -58 -28 -104q-24 -39 -64 -66q-36 -22 -71 -34q-13 -3 -14 -9q0 -4 16 -5q27 0 66 14q69 25 113 94q40 66 41 137q0 75 -61 125
q-51 39 -118 40q-69 0 -137 -33q-36 -18 -83 -58q6 33 33 71q10 15 11 27q0 6 -8 13q-6 3 -29 4q3 42 9 59q3 12 4 19q0 16 -22 35q-22 18 -36 18q-15 0 -16 -13q6 -18 11 -40l1 -92q-42 -19 -90 -29q-30 -4 -30 -23q0 -33 45 -34q15 0 54 12q9 3 18 5q-3 -46 -50 -142
q-37 -79 -77 -112q-12 -9 -17 -14q-9 -9 -9 -22q0 -24 31 -25q15 0 33 16q6 7 23 31q34 -21 50 -45q10 -13 21 -29zM332 155q13 33 42 75l5 -118q-15 9 -47 43v0z" />
  </g>

</svg>
