<?xml version="1.0" standalone="no"?>
<!DOCTYPE svg PUBLIC "-//W3C//DTD SVG 1.1//EN" "http://www.w3.org/Graphics/SVG/1.1/DTD/svg11.dtd" >
<svg xmlns="http://www.w3.org/2000/svg" xmlns:xlink="http://www.w3.org/1999/xlink" version="1.1" viewBox="-10 0 1010 1000">
   <path fill="currentColor"
d="M657 252h31q47 0 140 -4q62 -3 93 -4v118q-149 -4 -225 -4h-39q-3 -52 10 408v20q-3 71 -84 103q-32 10 -106 16q-16 1 -23 2l-8 -4q-7 -33 -32 -96l-9 -21v-4h14q63 2 91 -8q39 -16 40 -49v-165q1 34 -2 -137q-43 65 -147 165q-133 118 -234 160q-8 -6 -20 -18
q-5 -6 -8 -9q-27 -30 -60 -56v-8q246 -95 391 -299h-141q-44 0 -134 4l-84 3v-121q29 1 87 4q82 4 123 4h223q-2 -18 -4 -53q-4 -72 -10 -167q31 3 97 9q27 2 40 3q-1 10 -6 28q-5 21 -6 32q0 -37 2 148z" />
</svg>
