<?xml version="1.0" standalone="no"?>
<!DOCTYPE svg PUBLIC "-//W3C//DTD SVG 1.1//EN" "http://www.w3.org/Graphics/SVG/1.1/DTD/svg11.dtd" >
<svg xmlns="http://www.w3.org/2000/svg" xmlns:xlink="http://www.w3.org/1999/xlink" version="1.1" viewBox="-10 0 1034 1024">
  <g transform="matrix(1 0 0 -1 0 820)">
   <path fill="currentColor"
d="M586 425q-30 28 -67 42q-36 12 -64 13q-15 0 -15 -10q0 -3 2 -5q12 -21 25 -42q7 -12 8 -42q0 -84 -47 -198q-37 -90 -106 -176q-24 -30 -59 -67q-9 -9 -10 -13q0 -4 7 -5q6 0 20 8q21 12 29 18q70 51 130 138q24 36 48 79q22 43 34 77q10 30 22 59q6 21 14 42
q12 30 32 38q16 7 17 15q0 4 -5 12l108 55q73 36 109 38h16q24 0 24 18q0 24 -33 70q-27 33 -44 48q-36 30 -52 31q-9 0 -56 -27q-9 -6 -39 -13l-101 -23q-63 -13 -117 -23q-96 -18 -152 -18l-86 7q-9 1 -12 2q-13 0 -14 -12q0 -4 4 -12q15 -27 19 -32q34 -52 62 -53
q6 0 21 5q45 24 58 28q15 7 38 11q16 3 201 47q87 15 117 16q27 0 28 -15v-20l-61 -66q-15 -10 -53 -45v0z" />
  </g>

</svg>
