<?xml version="1.0" standalone="no"?>
<!DOCTYPE svg PUBLIC "-//W3C//DTD SVG 1.1//EN" "http://www.w3.org/Graphics/SVG/1.1/DTD/svg11.dtd" >
<svg xmlns="http://www.w3.org/2000/svg" xmlns:xlink="http://www.w3.org/1999/xlink" version="1.1" viewBox="-10 0 1010 1000">
   <path fill="currentColor"
d="M63 237v-118q21 1 63 4q62 4 92 4h556l32 -19q9 -3 17 0l115 73q0 30 -7 28q-3 4 -15 7q-10 2 -13 5q-7 9 -22 26q-151 178 -248 255q-4 3 -8 0q-42 -29 -93 -59v-8q141 -85 210 -202h-565q-43 0 -114 4zM425 326l137 20q2 10 -11 23q-7 8 -9 12q-6 16 -12 51
q-5 26 -8 39q-31 131 -85 226q-76 120 -181 202q-4 3 -8 0q-60 -38 -117 -65v-8q277 -146 294 -476v-24z" />
</svg>
