<?xml version="1.0" standalone="no"?>
<!DOCTYPE svg PUBLIC "-//W3C//DTD SVG 1.1//EN" "http://www.w3.org/Graphics/SVG/1.1/DTD/svg11.dtd" >
<svg xmlns="http://www.w3.org/2000/svg" xmlns:xlink="http://www.w3.org/1999/xlink" version="1.1" viewBox="-10 0 1034 1024">
  <g transform="matrix(1 0 0 -1 0 820)">
   <path fill="currentColor"
d="M550 564q6 6 6 13q0 21 -46 29q-39 6 -57 7q-24 0 -25 -11q0 -3 1 -6q6 -6 12 -16q18 -22 18 -92v-31l-39 -4q-49 -9 -67 -2q-10 6 -29 24q-12 12 -16 14q-6 3 -13 2q-19 0 -20 -14q4 -19 9 -44q-1 -1 0 -5q0 -46 -7 -85q-15 -78 -15 -94q0 -10 8 -22q15 -21 35 -21
q24 0 34 34q9 36 9 89q-1 18 -2 60q0 10 16 9q0 1 271 26q18 0 18 -20q0 -15 -4 -31q-7 -33 -17 -63q-45 -130 -119 -224q-54 -66 -121 -113q-12 -9 -19 -15q-9 -4 -10 -10q0 -6 10 -7q6 0 16 5q39 22 56 34q43 28 96 78q69 67 123 169q6 13 14 32q49 138 56 144q7 9 21 16
q9 9 10 16q0 10 -25 36q-43 40 -60 41q-7 0 -20 -11q-25 -19 -71 -28q-30 -4 -65 -8q0 33 6 57q3 24 10 29q6 7 12 13v0z" />
  </g>

</svg>
