<?xml version="1.0" standalone="no"?>
<!DOCTYPE svg PUBLIC "-//W3C//DTD SVG 1.1//EN" "http://www.w3.org/Graphics/SVG/1.1/DTD/svg11.dtd" >
<svg xmlns="http://www.w3.org/2000/svg" xmlns:xlink="http://www.w3.org/1999/xlink" version="1.1" viewBox="-10 0 1010 1000">
   <path fill="currentColor"
d="M819 139l-53 50q-2 -2 -5 -6q-58 -65 -88 -95l53 -44q68 58 93 95zM766 14l47 -51q56 35 98 85l-48 60q-5 -6 -15 -17q-47 -57 -82 -77zM738 814h-117v-28q-343 4 -532 8v-117h14q139 4 212 4h92q74 0 214 -8v-371q-343 4 -532 8v-113q105 3 209 4h202q45 0 139 -4
q61 -3 91 -4q4 410 8 621z" />
</svg>
