<?xml version="1.0" standalone="no"?>
<!DOCTYPE svg PUBLIC "-//W3C//DTD SVG 1.1//EN" "http://www.w3.org/Graphics/SVG/1.1/DTD/svg11.dtd" >
<svg xmlns="http://www.w3.org/2000/svg" xmlns:xlink="http://www.w3.org/1999/xlink" version="1.1" viewBox="-10 0 1034 1024">
  <g transform="matrix(1 0 0 -1 0 820)">
   <path fill="currentColor"
d="M374 594q0 -6 -21 -84q-6 -28 -25 -70q-39 -84 -107 -169q-24 -30 -25 -38q0 -4 5 -5q12 0 51 26q46 33 106 103q39 -12 64 -13q39 0 121 18q9 -25 10 -46q0 -36 -19 -93q-25 -69 -69 -128q-72 -100 -194 -180q-36 -21 -36 -28t11 -8q15 4 32 9q100 37 183 105
q117 99 188 246q18 42 34 57q15 15 16 22q0 12 -24 33q-7 7 -40 33l174 40q19 6 20 19q0 12 -32 39q-33 25 -50 26q-7 0 -32 -12q-10 -6 -25 -13q-22 -9 -47 -18q-60 -22 -107 -33q-64 -12 -138 -12q45 93 58 113q7 16 27 35q15 15 16 20q0 4 -18 23q-10 12 -55 38
q-27 16 -43 17q-12 0 -12 -11z" />
  </g>

</svg>
