<?xml version="1.0" standalone="no"?>
<!DOCTYPE svg PUBLIC "-//W3C//DTD SVG 1.1//EN" "http://www.w3.org/Graphics/SVG/1.1/DTD/svg11.dtd" >
<svg xmlns="http://www.w3.org/2000/svg" xmlns:xlink="http://www.w3.org/1999/xlink" version="1.1" viewBox="-10 0 1034 1024">
  <g transform="matrix(1 0 0 -1 0 820)">
   <path fill="currentColor"
d="M446 188q4 -9 10 -19l71 -160l35 -74q27 -51 63 -51t36 45q0 31 -36 94l-111 206q108 48 189 72q30 9 46 20q7 4 8 15q0 18 -38 34q-25 9 -37 15q-6 1 -9 2q-9 0 -27 -14q-55 -43 -157 -85l-50 115l154 61q57 18 58 36q0 19 -35 30l-45 15q-9 0 -27 -17q-34 -28 -128 -63
q-27 73 -36 103q-7 28 -8 57q0 15 -2 21q-6 6 -21 11q-25 6 -66 7q-18 0 -30 -2q-21 -3 -22 -18q0 -7 17 -21q28 -24 49 -60q18 -34 48 -123l-104 -37q-34 -12 -93 -14q-18 1 -18 -9q0 -15 26 -37q37 -31 55 -32q3 0 16 5q51 25 80 36l60 24l47 -120q-75 -36 -149 -61
q-72 -24 -114 -28q-22 0 -27 -5q-9 -3 -9 -9q0 -12 27 -37q39 -36 58 -36q6 0 30 13q30 21 73 43q45 22 138 62q1 -4 5 -10zM676 626q-18 6 -24 4q-13 0 -14 -8q6 -12 23 -28q28 -28 77 -69q24 -16 39 -20q33 0 33 41q0 28 -18 43q-19 15 -85 30q-16 4 -31 7zM804 710
q-42 9 -61 8q-22 0 -23 -8q3 -6 10 -12q1 -1 3 -4q103 -78 109 -82q13 -7 22 -8q10 0 19 9q6 13 7 26q0 24 -10 38q-18 22 -49 28q-13 3 -27 5v0z" />
  </g>

</svg>
