<?xml version="1.0" standalone="no"?>
<!DOCTYPE svg PUBLIC "-//W3C//DTD SVG 1.1//EN" "http://www.w3.org/Graphics/SVG/1.1/DTD/svg11.dtd" >
<svg xmlns="http://www.w3.org/2000/svg" xmlns:xlink="http://www.w3.org/1999/xlink" version="1.1" viewBox="-10 0 1034 1024">
  <g transform="matrix(1 0 0 -1 0 820)">
   <path fill="currentColor"
d="M328 449l46 91q7 15 27 35q15 12 16 19q0 4 -17 24q-13 13 -56 37q-27 16 -43 17q-12 0 -12 -10q1 -39 2 -70q-1 -3 -2 -9q-18 -73 -25 -92q-13 -37 -29 -67q-34 -72 -108 -163q-12 -13 -13 -23q0 -4 5 -5q10 0 27 10q37 24 69 53q30 30 61 66q37 -12 64 -12q40 0 121 17
q9 -25 10 -46q0 -36 -19 -93q-25 -69 -69 -128q-72 -102 -195 -179q-36 -22 -36 -29t12 -8q7 0 31 9q102 39 184 105q117 102 188 246q18 42 28 51l6 6q15 15 16 22q0 9 -24 34q-6 4 -40 32q6 0 10 3q1 0 20 6q132 27 144 31q19 6 20 19q0 13 -32 40q-34 24 -50 25
q-7 0 -32 -12q-13 -7 -41 -19l-48 -19q-57 -19 -90 -26q-57 -12 -138 -12zM675 625q-13 0 -14 -8q0 -6 19 -25q15 -16 62 -56q37 -33 58 -36q33 0 33 41q0 30 -19 43q-24 18 -85 29q-10 3 -31 8q-18 4 -23 4zM793 659l24 -20l7 -5q42 -36 60 -36q10 0 19 9q7 12 8 26
q0 42 -41 59q-6 3 -12 4q-9 3 -33 8q-48 9 -62 8q-21 0 -22 -8q0 -6 19 -21z" />
  </g>

</svg>
