<?xml version="1.0" standalone="no"?>
<!DOCTYPE svg PUBLIC "-//W3C//DTD SVG 1.1//EN" "http://www.w3.org/Graphics/SVG/1.1/DTD/svg11.dtd" >
<svg xmlns="http://www.w3.org/2000/svg" xmlns:xlink="http://www.w3.org/1999/xlink" version="1.1" viewBox="-10 0 1034 1024">
  <g transform="matrix(1 0 0 -1 0 820)">
   <path fill="currentColor"
d="M418 388l-2 96q0 51 11 69q3 6 6 15q0 21 -62 42q-33 12 -67 12q-21 0 -21 -15q0 -6 13 -24q24 -24 34 -71q9 -46 10 -137q-42 -9 -104 -17l-54 1q-19 4 -38 5q-13 0 -14 -15q0 -18 25 -43q33 -30 50 -30q6 0 24 8q21 9 39 13l72 13q3 -37 3 -65v-38q-3 -54 11 -76
q9 -12 29 -13q40 0 41 50l-6 155l84 17l90 15l-19 -127q-19 -76 -61 -148q-66 -109 -155 -182q-15 -9 -15 -19q0 -9 11 -9q10 0 29 11q60 36 120 99q87 96 124 190q22 63 42 196q64 7 116 8l82 -4q9 0 14 2q12 6 12 16q0 24 -42 54q-30 24 -44 25q-6 0 -36 -13
q-9 -6 -97 -20q3 49 4 86q0 33 4 47q1 22 19 43q10 15 11 23q0 16 -46 36q-39 13 -74 14q-24 0 -24 -15q0 -6 8 -17q16 -22 20 -41q3 -24 4 -94l-2 -94z" />
  </g>

</svg>
