<?xml version="1.0" standalone="no"?>
<!DOCTYPE svg PUBLIC "-//W3C//DTD SVG 1.1//EN" "http://www.w3.org/Graphics/SVG/1.1/DTD/svg11.dtd" >
<svg xmlns="http://www.w3.org/2000/svg" xmlns:xlink="http://www.w3.org/1999/xlink" version="1.1" viewBox="-10 0 1010 1000">
   <path fill="currentColor"
d="M728 104v148q0 21 0 12q42 -1 122 -4q72 -3 108 -4v121q-22 -1 -66 -4q-67 -4 -100 -4h-66q-7 157 -47 266q-66 163 -221 276q-4 3 -8 0q-22 -17 -73 -47l-12 -6v-12q234 -184 254 -407q4 -52 6 -70h-228v258h-121q1 -26 4 -78q4 -79 4 -118v-62h-60q-36 0 -111 4
q-48 3 -71 4v-125q20 1 60 5q83 7 126 7h56v-119q0 -21 -7 -66q-4 -24 -5 -35q20 1 62 4q47 3 71 4q0 10 -4 28t-4 28v156h230v-12q0 -54 -13 -163q-5 -38 -7 -57q30 1 85 7q32 4 48 5q1 11 -6 32q-6 19 -6 28z" />
</svg>
