<?xml version="1.0" standalone="no"?>
<!DOCTYPE svg PUBLIC "-//W3C//DTD SVG 1.1//EN" "http://www.w3.org/Graphics/SVG/1.1/DTD/svg11.dtd" >
<svg xmlns="http://www.w3.org/2000/svg" xmlns:xlink="http://www.w3.org/1999/xlink" version="1.1" viewBox="-10 0 1010 1000">
   <path fill="currentColor"
d="M726 112l89 57q5 3 4 16v4q-6 7 -22 19q-7 6 -11 9q-12 10 -25 33l-3 6q-4 6 -11 19q-60 98 -94 148l-24 36q36 28 105 90q11 10 16 15q69 61 173 180v8q-46 35 -88 86h-8q-22 -25 -65 -76q-126 -151 -200 -224q-27 30 -54 58q-132 132 -331 234q-4 3 -8 0q-5 -4 -15 -13
q-49 -44 -77 -61v-4q395 -179 528 -470q14 -31 16 -49h-230q-37 0 -110 4q-44 2 -67 3v-121q32 1 94 4q88 4 132 4h185q34 0 63 -12q2 -1 5 -2q20 -11 33 -1z" />
</svg>
