<?xml version="1.0" standalone="no"?>
<!DOCTYPE svg PUBLIC "-//W3C//DTD SVG 1.1//EN" "http://www.w3.org/Graphics/SVG/1.1/DTD/svg11.dtd" >
<svg xmlns="http://www.w3.org/2000/svg" xmlns:xlink="http://www.w3.org/1999/xlink" version="1.1" viewBox="-10 0 1010 1000">
   <path fill="currentColor"
d="M103 181l93 -58q106 106 189 246l-93 62h-8q-72 -124 -181 -250zM752 96h8l137 73v12q-50 31 -88 135q-3 9 -5 14q-67 149 -165 274q-94 110 -177 174q-58 51 -141 91q-4 3 -8 0q-31 -36 -53 -51q-3 -3 -12 -7q-18 -7 -20 -17q57 -20 141 -85q142 -112 206 -199
q76 -97 117 -204q55 -121 60 -210z" />
</svg>
