<?xml version="1.0" standalone="no"?>
<!DOCTYPE svg PUBLIC "-//W3C//DTD SVG 1.1//EN" "http://www.w3.org/Graphics/SVG/1.1/DTD/svg11.dtd" >
<svg xmlns="http://www.w3.org/2000/svg" xmlns:xlink="http://www.w3.org/1999/xlink" version="1.1" viewBox="-10 0 1034 1024">
  <g transform="matrix(1 0 0 -1 0 820)">
   <path fill="currentColor"
d="M548 209q-73 -106 -173 -194q-96 -78 -155 -108q-24 -9 -25 -20q0 -6 11 -7q18 0 62 20q45 19 92 48q58 34 111 80q58 51 134 130q27 -24 45 -24t29 25q15 34 15 72q0 24 -7 34q-3 4 -9 9q45 78 75 119q24 33 53 59q19 15 20 26q0 7 -5 21q-15 24 -38 47q-42 37 -60 38
q-9 0 -26 -15q-55 -40 -164 -43q21 57 56 86q12 13 12 17q0 6 -19 25q-18 16 -36 28q-34 19 -62 20q-12 0 -12 -12q3 -25 9 -52q0 -51 -39 -134q-34 -75 -89 -154q-24 -36 -69 -79q-15 -13 -16 -20q0 -6 8 -7q9 0 44 21q27 18 84 70l65 -53zM422 352q25 28 47 59
q19 30 46 78q12 -12 24 -16q24 -15 49 -15q24 0 55 12q12 6 25 6q12 0 12 -16t-28 -73q-16 -36 -43 -81q-54 18 -90 27z" />
  </g>

</svg>
