<?xml version="1.0" standalone="no"?>
<!DOCTYPE svg PUBLIC "-//W3C//DTD SVG 1.1//EN" "http://www.w3.org/Graphics/SVG/1.1/DTD/svg11.dtd" >
<svg xmlns="http://www.w3.org/2000/svg" xmlns:xlink="http://www.w3.org/1999/xlink" version="1.1" viewBox="-10 0 1010 1000">
   <path fill="currentColor"
d="M415 80h166q35 0 104 -4q46 -3 69 -4v117q-4 0 -12 -1q-85 -3 -133 -3h-186q-64 0 -189 4v-113h13q108 4 168 4zM359 314h282q55 0 166 -4q77 -3 116 -4v133q-157 -4 -235 -4h-101q-6 86 -18 133q-51 201 -283 343q-4 3 -8 0q-12 -8 -35 -25q-39 -28 -58 -40v-8
q139 -72 198 -145q80 -100 81 -238v-20h-117q-90 0 -270 4v-133q39 1 116 4q111 4 166 4z" />
</svg>
