<?xml version="1.0" standalone="no"?>
<!DOCTYPE svg PUBLIC "-//W3C//DTD SVG 1.1//EN" "http://www.w3.org/Graphics/SVG/1.1/DTD/svg11.dtd" >
<svg xmlns="http://www.w3.org/2000/svg" xmlns:xlink="http://www.w3.org/1999/xlink" version="1.1" viewBox="-10 0 1010 1000">
   <path fill="currentColor"
d="M210 399l-97 44l-8 -4q-5 -15 -17 -44q-10 -25 -15 -37q-30 -90 -61 -145q56 -17 101 -24q56 94 97 210zM476 342l-109 31l-4 -4q-3 -10 -9 -29q-39 -126 -68 -191l109 -26l8 4q2 6 7 17q52 125 66 198zM698 157h8l117 76v11q-29 9 -51 61q-1 3 -2 5q-33 77 -64 133
q-29 60 -93 141q-84 112 -214 206q-81 60 -161 91h-8q-33 -42 -85 -75v-8q55 -13 137 -61q148 -89 250 -227q4 -6 12 -17q60 -88 85 -135q54 -101 69 -201zM750 119l52 -51q74 47 105 81l-44 52q-36 -37 -113 -82zM823 24l52 -41q6 -3 12 0q67 38 101 73l-50 52
q-67 -63 -115 -84z" />
</svg>
