<?xml version="1.0" standalone="no"?>
<!DOCTYPE svg PUBLIC "-//W3C//DTD SVG 1.1//EN" "http://www.w3.org/Graphics/SVG/1.1/DTD/svg11.dtd" >
<svg xmlns="http://www.w3.org/2000/svg" xmlns:xlink="http://www.w3.org/1999/xlink" version="1.1" viewBox="-10 0 1034 1024">
  <g transform="matrix(1 0 0 -1 0 820)">
   <path fill="currentColor"
d="M325 634q10 -19 13 -62l2 -185l-1 -136q0 -57 -3 -105q-4 -87 -16 -162q-3 -21 -4 -45q0 -60 51 -60q24 0 38 23q10 18 16 73l4 368v22q34 -24 60 -42q24 -18 50 -40l48 -41l19 -16q33 -24 44 -24q18 0 30 25q4 16 5 36q0 63 -24 84q-28 24 -103 35q-10 0 -30 4l-100 10
l-1 68q0 49 3 90q1 33 14 51q13 21 14 26q0 21 -60 38q-39 12 -61 13q-21 0 -21 -13q0 -6 3 -15q4 -9 10 -20zM672 591q-12 3 -10 2q-18 6 -24 4q-13 0 -14 -8q9 -15 24 -30q27 -27 75 -67q21 -16 40 -20q33 0 33 40q0 30 -19 44q-24 16 -85 30q-10 3 -20 5zM725 685
q-21 0 -22 -8q1 -3 17 -19q4 -4 35 -26l32 -25q42 -36 59 -36q10 0 20 10q6 12 7 25q0 43 -41 60q-6 3 -45 11q-42 9 -62 8v0z" />
  </g>

</svg>
