<?xml version="1.0" standalone="no"?>
<!DOCTYPE svg PUBLIC "-//W3C//DTD SVG 1.1//EN" "http://www.w3.org/Graphics/SVG/1.1/DTD/svg11.dtd" >
<svg xmlns="http://www.w3.org/2000/svg" xmlns:xlink="http://www.w3.org/1999/xlink" version="1.1" viewBox="-10 0 1010 1000">
   <path fill="currentColor"
d="M744 24l81 95v8q-32 5 -96 26q-33 11 -50 16q-36 9 -72 16v105v58q169 -3 335 -18v133q-30 -1 -89 -4q-90 -4 -137 -4h-119q-12 94 -35 157q-61 151 -217 269q-22 19 -33 18h-4q-7 -4 -20 -12q-54 -34 -88 -45v-4q4 -3 11 -7q122 -83 174 -142q79 -93 99 -234h-171
q-51 0 -153 4q-68 3 -102 4v-117q71 0 215 2q146 2 219 2q2 -35 2 -98v-47q-120 18 -250 24q-10 -4 -22 -25q-4 -8 -6 -11q-7 -11 -20 -32q-12 -18 -17 -26l4 -8h53q116 0 266 -19q139 -18 210 -68q3 -2 9 -7q13 -13 23 -9z" />
</svg>
