<?xml version="1.0" standalone="no"?>
<!DOCTYPE svg PUBLIC "-//W3C//DTD SVG 1.1//EN" "http://www.w3.org/Graphics/SVG/1.1/DTD/svg11.dtd" >
<svg xmlns="http://www.w3.org/2000/svg" xmlns:xlink="http://www.w3.org/1999/xlink" version="1.1" viewBox="-10 0 1034 1024">
  <g transform="matrix(1 0 0 -1 0 820)">
   <path fill="currentColor"
d="M471 185q-72 -105 -173 -195q-96 -81 -155 -107q-24 -12 -25 -21q0 -6 11 -7q15 0 66 21q106 48 188 117q63 55 145 141q27 -24 46 -25q16 0 28 27q15 33 16 71q0 24 -8 33q-3 4 -9 10l75 119q27 37 53 59q18 15 19 26q0 16 -22 44t-53 49q-21 12 -27 12q-9 0 -26 -14
q-54 -42 -164 -43q19 52 56 86q12 10 12 16t-18 25q-18 18 -37 29q-34 18 -62 19q-12 0 -12 -11q3 -25 9 -53q0 -49 -39 -134q-33 -72 -89 -154q-30 -42 -68 -78q-16 -16 -17 -21q0 -6 8 -6q12 0 44 20q33 22 85 70l63 -52zM345 327q25 28 47 59q19 30 46 79q9 -9 24 -17
q24 -15 49 -15q27 0 55 12q16 6 25 7q12 0 12 -17q0 -15 -27 -73q-18 -36 -43 -81l-74 23q-9 1 -19 5q-36 7 -95 18zM689 634q-13 0 -14 -8q9 -15 19 -25l62 -56q37 -33 58 -36q33 0 33 40q0 30 -18 44q-16 9 -53 22q-4 1 -7 2q-72 18 -77 17q-3 1 -3 0zM780 719
q-22 0 -23 -8q3 -6 10 -12q3 -6 42 -33q16 -12 32 -25q42 -36 59 -36q12 0 19 9q7 12 8 26q0 42 -41 60q-6 3 -45 11q-42 9 -61 8v0z" />
  </g>

</svg>
