<?xml version="1.0" standalone="no"?>
<!DOCTYPE svg PUBLIC "-//W3C//DTD SVG 1.1//EN" "http://www.w3.org/Graphics/SVG/1.1/DTD/svg11.dtd" >
<svg xmlns="http://www.w3.org/2000/svg" xmlns:xlink="http://www.w3.org/1999/xlink" version="1.1" viewBox="-10 0 1034 1024">
  <g transform="matrix(1 0 0 -1 0 820)">
   <path fill="currentColor"
d="M490 227q9 16 17 34q6 9 13 16q7 4 17 8q12 9 12 15q0 7 -24 23q-4 3 -11 8l-31 20q157 31 190 32q33 0 68 -3q27 0 28 14q0 27 -37 54q-33 27 -57 28q-9 0 -35 -11q-45 -19 -119 -36l-292 -61q-91 -15 -109 -16l-26 -2q-27 0 -28 -13q0 -15 23 -39q30 -33 57 -34
q13 0 46 14q42 21 194 57q10 -33 11 -60q0 -57 -36 -124q-66 -123 -159 -201q-37 -30 -69 -48q-18 -6 -19 -15q0 -9 17 -9q31 0 103 41q157 88 235 259zM642 551q28 0 29 18q0 18 -21 40q-36 36 -61 37q-10 0 -33 -13q-45 -24 -143 -40q-133 -24 -172 -24h-47q-24 0 -25 -15
q0 -13 29 -46q27 -27 60 -27q16 0 34 7l51 21l26 7q24 4 61 14l78 14q55 7 93 8q19 0 41 -1zM722 610q-15 3 -17 -10q0 -6 24 -28q36 -30 72 -55q34 -24 45 -24q22 0 23 33q0 45 -45 64q-30 13 -86 19q-13 0 -16 1zM803 699q-18 0 -19 -11q-1 -4 23 -27q48 -39 73 -56
q36 -24 45 -24q22 0 23 32q0 34 -23 53q-30 21 -73 26q-27 4 -40 7h-9z" />
  </g>

</svg>
