<?xml version="1.0" standalone="no"?>
<!DOCTYPE svg PUBLIC "-//W3C//DTD SVG 1.1//EN" "http://www.w3.org/Graphics/SVG/1.1/DTD/svg11.dtd" >
<svg xmlns="http://www.w3.org/2000/svg" xmlns:xlink="http://www.w3.org/1999/xlink" version="1.1" viewBox="-10 0 1010 1000">
   <path fill="currentColor"
d="M425 165h234q21 0 66 -4q31 -3 47 -4v125q-24 -1 -72 -4q-69 -4 -105 -4h-174q-41 0 -120 4q-54 3 -81 4v-121h13q124 4 192 4zM361 627h266q54 0 163 -4q72 -3 107 -4v133q-34 -1 -102 -4q-105 -4 -156 -4h-278q-51 0 -156 4q-68 3 -102 4v-133q34 1 102 4q105 4 156 4z
" />
</svg>
