<?xml version="1.0" standalone="no"?>
<!DOCTYPE svg PUBLIC "-//W3C//DTD SVG 1.1//EN" "http://www.w3.org/Graphics/SVG/1.1/DTD/svg11.dtd" >
<svg xmlns="http://www.w3.org/2000/svg" xmlns:xlink="http://www.w3.org/1999/xlink" version="1.1" viewBox="-10 0 1010 1000">
   <path fill="currentColor"
d="M298 233h12l113 61v12q-26 21 -61 79q-13 20 -19 30q-111 175 -234 270q-6 3 -12 0l-81 -70v-7q208 -161 282 -375zM871 657h-8q-101 -188 -266 -375l88 -61q143 145 299 367q-29 15 -83 50q-20 13 -30 19zM734 139l44 -43q49 38 101 93l-52 44q-28 -42 -93 -94zM972 108
l-49 49q-65 -62 -108 -93l52 -50q62 46 105 94z" />
</svg>
