<?xml version="1.0" standalone="no"?>
<!DOCTYPE svg PUBLIC "-//W3C//DTD SVG 1.1//EN" "http://www.w3.org/Graphics/SVG/1.1/DTD/svg11.dtd" >
<svg xmlns="http://www.w3.org/2000/svg" xmlns:xlink="http://www.w3.org/1999/xlink" version="1.1" viewBox="-10 0 1010 1000">
   <path fill="currentColor"
d="M581 189v93h36q70 0 211 -7q73 -4 110 -5v125q-29 -1 -86 -3q-107 -3 -164 -3h-109q-7 103 -35 191q-39 107 -133 214q-58 69 -109 105q-7 6 -24 -8q-6 -5 -8 -6q-27 -17 -80 -43l-2 -8q147 -89 223 -234q44 -96 55 -211h-115q-71 0 -216 7l-72 3v-125q39 1 115 4
q112 4 169 4h121v-18q0 -58 -17 -171q-5 -33 -7 -49q37 1 109 8q32 3 48 4q-1 9 -8 26t-8 26q-4 28 -4 81z" />
</svg>
