<?xml version="1.0" standalone="no"?>
<!DOCTYPE svg PUBLIC "-//W3C//DTD SVG 1.1//EN" "http://www.w3.org/Graphics/SVG/1.1/DTD/svg11.dtd" >
<svg xmlns="http://www.w3.org/2000/svg" xmlns:xlink="http://www.w3.org/1999/xlink" version="1.1" viewBox="-10 0 1034 1024">
  <g transform="matrix(1 0 0 -1 0 820)">
   <path fill="currentColor"
d="M317 489h-18q-7 0 -8 -7q0 -9 23 -39q33 -37 59 -38q10 0 27 8q54 19 124 35l88 20q21 4 34 5q25 0 26 -21q0 -10 -7 -24q-10 -28 -23 -55q-24 -55 -55 -112q-114 39 -209 40q-19 0 -20 -8q0 -9 46 -26q63 -25 143 -65q-67 -90 -194 -167q-75 -42 -137 -62
q-27 -9 -23 -16q3 -4 28 -7q27 4 99 25q6 3 15 6q127 54 211 122q27 21 63 63q52 -42 93 -97q42 -60 74 -60q45 0 45 56q0 61 -57 109q-30 27 -102 62q19 33 38 69q18 37 40 87q24 57 30 68q7 13 24 26q15 15 16 17q0 10 -44 46q-43 34 -55 35q-9 0 -28 -15q-28 -19 -67 -32
q-76 -24 -173 -39q-24 -3 -117 -9h-9z" />
  </g>

</svg>
