<?xml version="1.0" standalone="no"?>
<!DOCTYPE svg PUBLIC "-//W3C//DTD SVG 1.1//EN" "http://www.w3.org/Graphics/SVG/1.1/DTD/svg11.dtd" >
<svg xmlns="http://www.w3.org/2000/svg" xmlns:xlink="http://www.w3.org/1999/xlink" version="1.1" viewBox="-10 0 1010 1000">
   <path fill="currentColor"
d="M980 592v8l-77 105h-12q-28 -12 -82 -49q-10 -8 -15 -11q-104 -67 -293 -224q-35 -29 -53 -44q-32 -32 -57 -31q-18 0 -48 27q-5 6 -8 8q-10 9 -33 28q-37 33 -56 50q-54 46 -97 89q-3 3 -10 11q-16 21 -30 17l-89 -93v-8q115 -73 186 -129q15 -12 44 -36t44 -36
q2 -1 5 -4q35 -27 60 -33q49 -17 125 37q48 32 89 68q235 186 407 250zM790 38q105 10 113 115q-5 109 -113 115q-113 -4 -117 -117q10 -105 117 -113zM845 151q-5 -50 -55 -55q-58 3 -62 55q2 60 62 62q54 -1 55 -62z" />
</svg>
