<?xml version="1.0" standalone="no"?>
<!DOCTYPE svg PUBLIC "-//W3C//DTD SVG 1.1//EN" "http://www.w3.org/Graphics/SVG/1.1/DTD/svg11.dtd" >
<svg xmlns="http://www.w3.org/2000/svg" xmlns:xlink="http://www.w3.org/1999/xlink" version="1.1" viewBox="-10 0 1010 1000">
   <path fill="currentColor"
d="M339 157h258q65 0 99 -3q39 -5 70 -15h4l101 58q4 2 4 12q0 13 -16 31q-17 11 -31 48q-6 15 -9 22q-98 214 -246 347q-117 112 -291 201q-6 3 -12 0l-93 -76v-8q399 -172 537 -522h-408q-58 0 -168 4h-13v-103q107 3 214 4z" />
</svg>
