<?xml version="1.0" standalone="no"?>
<!DOCTYPE svg PUBLIC "-//W3C//DTD SVG 1.1//EN" "http://www.w3.org/Graphics/SVG/1.1/DTD/svg11.dtd" >
<svg xmlns="http://www.w3.org/2000/svg" xmlns:xlink="http://www.w3.org/1999/xlink" version="1.1" viewBox="-10 0 1010 1000">
   <path fill="currentColor"
d="M238 439h8l101 55v8q-20 15 -46 57q-12 19 -19 29q-26 33 -83 98q-34 39 -50 58q-12 3 -31 -12q-6 -5 -9 -7q-13 -9 -42 -21q-10 -5 -15 -7v-8q128 -129 186 -250zM661 502l73 -59q88 74 185 214l-80 68h-8q-12 -16 -35 -49q-83 -119 -135 -174zM698 127l48 -43
q44 31 97 85l-37 52q-66 -68 -108 -94zM794 32l45 -45q72 42 109 89l-49 51q-48 -49 -105 -95zM438 56h14q25 0 73 5q30 2 44 3q2 6 -2 16q-4 8 -4 12q-3 12 -3 39v125h134q58 0 168 -4h13v117h-13q-100 -4 -156 -4h-146v292q0 11 2 36q8 84 -18 117q-19 24 -68 36
q-35 9 -101 12l-32 -106v-8h64q48 -4 53 -71v-308h-162q-66 0 -192 4h-13v-117q99 3 197 4h170q-9 -129 -22 -200z" />
</svg>
