<?xml version="1.0" standalone="no"?>
<!DOCTYPE svg PUBLIC "-//W3C//DTD SVG 1.1//EN" "http://www.w3.org/Graphics/SVG/1.1/DTD/svg11.dtd" >
<svg xmlns="http://www.w3.org/2000/svg" xmlns:xlink="http://www.w3.org/1999/xlink" version="1.1" viewBox="-10 0 1010 1000">
   <path fill="currentColor"
d="M286 189h238q72 1 109 -8q4 -1 13 -5q20 -7 31 -7h4l97 83q-1 10 -13 28q-8 14 -11 22q-3 7 -8 21q-21 60 -36 88q-38 77 -65 117q-57 89 -133 161q-111 101 -286 196q-4 3 -8 0l-93 -71v-8q424 -211 508 -512h-367q-75 0 -214 4v-113q151 4 234 4zM762 44l101 95l-50 50
l-107 -101zM948 64l-53 44l-101 -94l49 -43z" />
</svg>
