<?xml version="1.0" standalone="no"?>
<!DOCTYPE svg PUBLIC "-//W3C//DTD SVG 1.1//EN" "http://www.w3.org/Graphics/SVG/1.1/DTD/svg11.dtd" >
<svg xmlns="http://www.w3.org/2000/svg" xmlns:xlink="http://www.w3.org/1999/xlink" version="1.1" viewBox="-10 0 1034 1024">
  <g transform="matrix(1 0 0 -1 0 820)">
   <path fill="currentColor"
d="M888 108q3 0 14 -1q18 0 19 15q0 24 -43 71q-30 33 -50 34q-9 0 -31 -12q-24 -15 -188 -29q3 19 18 77q24 93 31 103q18 48 45 65q37 30 41 34q3 9 -1 16q-4 9 -40 45q-7 6 -13 12q-27 24 -44 25q-7 0 -28 -13q-28 -18 -82 -30q-63 -12 -116 -20q-49 -4 -88 -6
q-9 0 -14 1l-54 6q-18 0 -18 -14q1 -4 5 -10q15 -27 29 -39q46 -46 63 -47q9 0 42 16q25 16 78 24q75 10 83 10q16 -1 25 -13q9 -9 2 -60l-19 -96l-24 -94q-18 -3 -48 -7l-195 -30q-36 -3 -66 -6l-92 -1q-36 3 -41 4q-12 0 -12 -9q0 -13 31 -49q9 -10 38 -32q21 -18 30 -18
q6 0 11 4q37 19 142 42q75 18 213 36q123 16 201 17q48 0 79 -8z" />
  </g>

</svg>
