<?xml version="1.0" standalone="no"?>
<!DOCTYPE svg PUBLIC "-//W3C//DTD SVG 1.1//EN" "http://www.w3.org/Graphics/SVG/1.1/DTD/svg11.dtd" >
<svg xmlns="http://www.w3.org/2000/svg" xmlns:xlink="http://www.w3.org/1999/xlink" version="1.1" viewBox="-10 0 1034 1024">
  <g transform="matrix(1 0 0 -1 0 820)">
   <path fill="currentColor"
d="M539 444q12 25 21 34l33 32q0 3 1 3q0 13 -33 36q-21 15 -54 30q-22 9 -27 9q-3 1 -10 2q-15 0 -15 -14l7 -36q0 -25 -14 -77q-31 -111 -85 -221q-30 -63 -54 -88q-24 -19 -70 -24q-18 0 -31 -2q-18 -1 -18 -22q0 -37 19 -73q19 -39 41 -40q4 0 17 5q37 19 128 49l316 94
q19 -48 36 -79q18 -39 42 -40q16 0 33 21q24 30 24 70q0 45 -42 83q-40 37 -100 70l-37 20q-12 9 -25 10q-10 0 -11 -11q0 -4 4 -11q33 -52 59 -96l-202 -27l-123 -14q10 22 46 79q51 87 91 161z" />
  </g>

</svg>
