<?xml version="1.0" standalone="no"?>
<!DOCTYPE svg PUBLIC "-//W3C//DTD SVG 1.1//EN" "http://www.w3.org/Graphics/SVG/1.1/DTD/svg11.dtd" >
<svg xmlns="http://www.w3.org/2000/svg" xmlns:xlink="http://www.w3.org/1999/xlink" version="1.1" viewBox="-10 0 1010 1000">
   <path fill="currentColor"
d="M736 64h8l125 63v12q-25 11 -36 30q-11 18 -26 56q-10 24 -15 35q-56 113 -100 175q78 54 145 109l-69 101h-8q-19 -15 -56 -45q-53 -44 -81 -66q-7 9 -22 27t-22 27q-153 175 -343 274q-4 2 -8 0q-30 -27 -61 -52q-3 -2 -11 -6q-21 -11 -25 -22q228 -95 399 -303
q1 -1 2 -3t2 -3q-12 -8 -35 -23q-96 -63 -150 -92l64 -84q92 47 188 105q100 -152 135 -315z" />
</svg>
