<?xml version="1.0" standalone="no"?>
<!DOCTYPE svg PUBLIC "-//W3C//DTD SVG 1.1//EN" "http://www.w3.org/Graphics/SVG/1.1/DTD/svg11.dtd" >
<svg xmlns="http://www.w3.org/2000/svg" xmlns:xlink="http://www.w3.org/1999/xlink" version="1.1" viewBox="-10 0 1034 1024">
  <g transform="matrix(1 0 0 -1 0 820)">
   <path fill="currentColor"
d="M821 124q3 -1 11 -2q15 0 15 13q0 21 -35 57q-24 27 -40 27q-6 0 -25 -9q-12 -7 -42 -12q-39 -6 -109 -12q3 21 8 38q6 19 16 57q18 78 51 103q30 24 32 25q1 6 2 13q-4 9 -43 48q-24 19 -36 20q-7 0 -23 -11q-19 -12 -65 -23q-51 -10 -94 -17q-39 -4 -67 -5q-13 0 -49 5
h-6q-18 0 -18 -10q0 -1 22 -34q-1 0 6 -6q37 -37 51 -38q6 0 34 13q19 15 62 20q60 7 63 8q16 0 24 -11q3 -3 3 -18q0 -21 -7 -60q-9 -46 -28 -124q-117 -18 -172 -26q-33 -4 -61 -7q-37 -3 -82 -3q-4 1 -6 1q-18 1 -35 3q-9 0 -9 -7q0 -6 13 -26q13 -18 34 -35
q24 -18 32 -19q4 0 9 3q55 27 178 47q168 30 267 30q33 0 64 -5q27 -4 55 -11v0z" />
  </g>

</svg>
