<?xml version="1.0" standalone="no"?>
<!DOCTYPE svg PUBLIC "-//W3C//DTD SVG 1.1//EN" "http://www.w3.org/Graphics/SVG/1.1/DTD/svg11.dtd" >
<svg xmlns="http://www.w3.org/2000/svg" xmlns:xlink="http://www.w3.org/1999/xlink" version="1.1" viewBox="-10 0 1010 1000">
   <path fill="currentColor"
d="M419 88h12l36 12q73 22 106 41v12l-21 20q-24 15 -42 67q-6 18 -10 26q-96 245 -179 385l2 2q5 -1 16 -2t16 -2q198 -17 359 -45v-2q-50 -75 -113 -139v-8l76 -60q4 -3 8 0q123 111 263 306q3 4 0 8l-69 69l-2 2q-22 18 -34 18q-17 -24 -46 -73q-12 -21 -19 -32l-2 -2
q-149 32 -445 71q-95 13 -143 20q-17 3 -39 12q-17 9 -32 20q-2 2 -6 5q-9 11 -18 7l-41 -149l4 -8h17q46 0 123 -4l2 -2q181 -336 221 -575z" />
</svg>
