<?xml version="1.0" standalone="no"?>
<!DOCTYPE svg PUBLIC "-//W3C//DTD SVG 1.1//EN" "http://www.w3.org/Graphics/SVG/1.1/DTD/svg11.dtd" >
<svg xmlns="http://www.w3.org/2000/svg" xmlns:xlink="http://www.w3.org/1999/xlink" version="1.1" viewBox="-10 0 1010 1000">
   <path fill="currentColor"
d="M228 139h16q26 0 77 3q26 2 40 3q0 11 -4 33q-4 23 -4 35v43q0 54 -12 151q-11 96 -28 141q-52 149 -190 258q-4 3 -8 0q-53 -44 -89 -62l-4 -7q126 -75 170 -177q55 -111 56 -254v-36q0 -71 -20 -131zM591 189v434q-1 6 4 8q118 -40 290 -202q29 -27 44 -40l49 94
q-114 123 -323 250q-9 5 -26 14q-59 28 -75 59q-13 4 -31 -18q-1 -1 -1 -2q-29 -30 -56 -61q-3 -6 0 -12q24 -82 24 -145v-359q0 -34 -4 -90q73 3 121 8q-1 9 -7 26q-9 23 -9 36z" />
</svg>
