<?xml version="1.0" standalone="no"?>
<!DOCTYPE svg PUBLIC "-//W3C//DTD SVG 1.1//EN" "http://www.w3.org/Graphics/SVG/1.1/DTD/svg11.dtd" >
<svg xmlns="http://www.w3.org/2000/svg" xmlns:xlink="http://www.w3.org/1999/xlink" version="1.1" viewBox="-10 0 1034 1024">
  <g transform="matrix(1 0 0 -1 0 820)">
   <path fill="currentColor"
d="M419 327q1 4 3 10q7 15 25 33q18 13 18 23q0 24 -61 64q-45 27 -66 28q-19 0 -20 -10l13 -114l-41 -137q-25 -52 -56 -104q-30 -48 -65 -93q-39 -45 -92 -92q-16 -15 -17 -21q0 -6 8 -7q4 0 10 2q9 4 31 18q12 6 40 27q30 21 43 34q51 45 100 107q61 78 100 169zM526 25
q27 -36 61 -37q13 0 56 29q24 15 122 95q55 46 108 98q55 57 70 78q16 25 24 38q3 6 3 11q0 7 -8 8q-9 1 -64 -44q-42 -33 -101 -75q-60 -42 -117 -74q-49 -27 -62 -28q-13 0 -15 16l-1 151q0 111 11 186q7 52 25 75l6 12q0 21 -58 43q-40 16 -72 17q-15 0 -15 -12
q0 -6 5 -16q13 -22 21 -42q9 -30 10 -82l-3 -200l-9 -113q-7 -43 -20 -66q-10 -16 -8 -22q0 -3 31 -46v0z" />
  </g>

</svg>
