<?xml version="1.0" standalone="no"?>
<!DOCTYPE svg PUBLIC "-//W3C//DTD SVG 1.1//EN" "http://www.w3.org/Graphics/SVG/1.1/DTD/svg11.dtd" >
<svg xmlns="http://www.w3.org/2000/svg" xmlns:xlink="http://www.w3.org/1999/xlink" version="1.1" viewBox="-10 0 1034 1024">
  <g transform="matrix(1 0 0 -1 0 820)">
   <path fill="currentColor"
d="M232 538q-12 13 -31 14q-21 0 -21 -23q0 -7 3 -20q4 -24 5 -64q0 -63 -12 -125q-9 -51 -9 -64q0 -15 7 -28q16 -31 49 -32q22 0 36 36q4 16 7 43q3 30 3 79l2 75q27 1 54 5l236 22l59 6q19 0 22 -1q7 -3 8 -16q0 -6 -3 -26q-4 -34 -17 -76q-48 -147 -128 -259
q-75 -102 -169 -172q-33 -24 -35 -26q-6 -6 -6 -12q0 -7 10 -8q4 0 27 10q49 27 105 69q111 87 184 193q60 90 106 236q21 64 38 73q7 6 17 11q6 3 7 11q0 12 -19 36q-16 21 -55 47q-21 13 -33 14q-9 0 -33 -17q-39 -24 -164 -35q4 51 12 80q4 24 14 40q12 18 12 28
q0 22 -50 32q-39 9 -75 9q-25 0 -26 -13q0 -6 4 -13q12 -21 27 -52q4 -27 5 -59v-62l-71 -7q-30 -3 -42 -3q-21 0 -35 16zM698 668q-15 0 -15 -8q9 -15 28 -34l73 -63q24 -16 39 -20q31 0 32 40q0 30 -18 44q-21 15 -85 30l-31 7q-18 6 -23 4zM789 750q-22 0 -23 -8
q1 -4 16 -19q1 0 4 -3q48 -34 54 -40q4 -3 10 -8q42 -36 60 -36q12 0 19 9q6 10 7 26q0 42 -41 59q-6 3 -12 4q-9 3 -33 8q-42 9 -61 8v0z" />
  </g>

</svg>
