<?xml version="1.0" standalone="no"?>
<!DOCTYPE svg PUBLIC "-//W3C//DTD SVG 1.1//EN" "http://www.w3.org/Graphics/SVG/1.1/DTD/svg11.dtd" >
<svg xmlns="http://www.w3.org/2000/svg" xmlns:xlink="http://www.w3.org/1999/xlink" version="1.1" viewBox="-10 0 1010 1000">
   <path fill="currentColor"
d="M855 185v4l-20 20q-10 19 -18 65q-2 16 -4 24q-69 268 -208 399q-142 134 -359 184h-8q-30 -44 -57 -79q-3 -3 -10 -9q-16 -13 -14 -23q219 -13 379 -162q67 -69 109 -157h-294q-74 0 -206 4v-101q70 3 145 4h393q5 -23 14 -67q9 -39 13 -58h-391q-33 0 -102 4l-60 3
v-113q77 3 156 4h272q69 -1 133 -4q4 -1 11 -4q14 -7 21 -4q5 2 15 7q52 23 78 43q9 6 12 16z" />
</svg>
