<?xml version="1.0" standalone="no"?>
<!DOCTYPE svg PUBLIC "-//W3C//DTD SVG 1.1//EN" "http://www.w3.org/Graphics/SVG/1.1/DTD/svg11.dtd" >
<svg xmlns="http://www.w3.org/2000/svg" xmlns:xlink="http://www.w3.org/1999/xlink" version="1.1" viewBox="-10 0 1034 1024">
  <g transform="matrix(1 0 0 -1 0 820)">
   <path fill="currentColor"
d="M711 377q28 0 46 2l71 -4q18 0 19 10q0 6 -22 39q-34 42 -48 43q-3 0 -17 -5q-3 -1 -12 -5q-9 -3 -28 -7q3 21 5 37l3 45q4 49 27 63q13 10 14 17q0 9 -14 25q-6 7 -14 14q-10 6 -35 23q-25 15 -35 16q-6 0 -20 -9q-25 -18 -103 -31l-95 -16l-134 -24q-36 -4 -67 -5
q-34 4 -47 5q-18 0 -18 -12q0 -9 19 -32q39 -45 63 -46q6 0 26 5q39 15 75 24l152 32q66 10 87 11q39 0 39 -65q0 -46 -5 -90l-209 -39q-138 -22 -177 -23q-25 0 -67 8q-9 1 -15 2q-18 0 -19 -14q0 -15 35 -50q42 -36 64 -37q7 0 33 10q18 9 106 29q48 10 101 21l136 22
q-24 -148 -107 -265q-102 -141 -257 -212q-30 -13 -31 -22q0 -6 11 -7q16 0 54 11q81 27 170 89q126 93 189 238q31 78 51 179v0z" />
  </g>

</svg>
