<?xml version="1.0" standalone="no"?>
<!DOCTYPE svg PUBLIC "-//W3C//DTD SVG 1.1//EN" "http://www.w3.org/Graphics/SVG/1.1/DTD/svg11.dtd" >
<svg xmlns="http://www.w3.org/2000/svg" xmlns:xlink="http://www.w3.org/1999/xlink" version="1.1" viewBox="-10 0 1034 1024">
  <g transform="matrix(1 0 0 -1 0 820)">
   <path fill="currentColor"
d="M419 608q30 36 30 42q0 10 -24 35q-18 18 -43 37q-27 18 -36 18q-12 0 -13 -14q6 -48 7 -55q-3 -33 -20 -76q-24 -67 -65 -118q-27 -31 -59 -37q-21 -3 -21 -13q0 -9 19 -31q19 -19 31 -20q6 0 21 8q24 15 42 20q12 4 82 17q177 30 180 29q78 9 109 2q19 -3 29 -14
q12 -12 12 -40q0 -72 -34 -190q-16 -54 -38 -105t-38 -72q-13 -16 -32 -17q-22 0 -42 12q-60 40 -64 41q-7 0 -8 -7q0 -1 12 -14q40 -57 52 -78q6 -13 10 -26q6 -24 19 -33q3 -1 7 -2q25 0 65 45q54 60 105 199q12 34 21 66l31 124q21 84 30 90q9 7 19 15q9 6 9 13q0 4 -6 9
q-9 12 -44 36q-66 39 -70 40q-9 0 -24 -12q-12 -7 -45 -17q-39 -9 -79 -18q-124 -24 -261 -45q21 39 51 70q36 43 73 86v0z" />
  </g>

</svg>
