<?xml version="1.0" standalone="no"?>
<!DOCTYPE svg PUBLIC "-//W3C//DTD SVG 1.1//EN" "http://www.w3.org/Graphics/SVG/1.1/DTD/svg11.dtd" >
<svg xmlns="http://www.w3.org/2000/svg" xmlns:xlink="http://www.w3.org/1999/xlink" version="1.1" viewBox="-10 0 1010 1000">
   <path fill="currentColor"
d="M438 62q68 29 86 75q0 9 -13 17l-3 3q-18 9 -103 117q-116 149 -179 211q61 60 148 137q133 108 120 170q-4 38 -48 48q-21 4 -59 -60q-79 -134 -212 -292v-7q194 -219 244 -395q-2 -24 19 -24zM490 453v-8q220 -212 224 -339q3 -22 28 -24q54 35 81 91q0 14 -17 20
q-20 7 -30 20q-90 120 -228 240q278 229 275 315q4 50 -51 64q-20 -3 -46 -44q-101 -202 -236 -335z" />
</svg>
