<?xml version="1.0" standalone="no"?>
<!DOCTYPE svg PUBLIC "-//W3C//DTD SVG 1.1//EN" "http://www.w3.org/Graphics/SVG/1.1/DTD/svg11.dtd" >
<svg xmlns="http://www.w3.org/2000/svg" xmlns:xlink="http://www.w3.org/1999/xlink" version="1.1" viewBox="-10 0 1010 1000">
   <path fill="currentColor"
d="M159 358h8q76 -2 268 -28q19 -118 19 -185q0 -38 -15 -76q-4 -9 -4 -11q0 -1 -1 -3q-5 -15 10 -17q98 20 129 75q0 9 -13 22q-12 12 -14 22q-4 47 -30 161q134 -25 182 -38q6 -1 18 -5q22 -7 34 -7q64 13 91 78q-5 29 -20 31q-13 -1 -38 -4q-41 -4 -63 -4h-45
q-87 0 -177 10q-64 228 -137 358h14q114 -13 290 -48q-17 -25 -53 -70q-16 -19 -23 -29q-8 -20 16 -24q199 112 197 200q-4 45 -56 58q-20 -2 -33 -44q-3 -12 -5 -16q-4 -9 -13 -26q-5 -9 -7 -13q-169 35 -297 87q-10 5 -28 23q-20 21 -30 21q-52 -32 -75 -92
q85 -49 163 -371q-56 10 -132 29q-43 11 -51 11q-55 -23 -79 -75z" />
</svg>
