<?xml version="1.0" standalone="no"?>
<!DOCTYPE svg PUBLIC "-//W3C//DTD SVG 1.1//EN" "http://www.w3.org/Graphics/SVG/1.1/DTD/svg11.dtd" >
<svg xmlns="http://www.w3.org/2000/svg" xmlns:xlink="http://www.w3.org/1999/xlink" version="1.1" viewBox="-10 0 1010 1000">
   <path fill="currentColor"
d="M173 113h43q128 0 441 -63q87 -18 97 -18q41 4 75 41q22 31 -12 40q-38 -7 -81 -7q-31 -2 -260 33q36 32 46 54q1 5 0 9v3q-1 12 -34 32q-7 7 -70 100q-20 29 -27 40q22 -4 63 -10q107 -13 163 -37q5 -2 12 -6q12 -6 20 -6q90 30 121 79q0 11 -15 19q-14 8 -19 17
q-6 11 -25 57q-158 378 -263 373q-9 -1 -13 -19q-3 -13 -6 -20q-1 -2 -3 -7q-13 -34 -81 -80q-7 -8 -1 -22q6 -10 17 -8q5 3 14 9q39 26 77 32q105 -11 205 -327q1 -25 -20 -24q-164 14 -216 40q-54 29 -68 32q-36 -15 -59 -68q-2 -15 16 -20q63 -50 111 -172q5 -15 9 -43
l3 -21l-165 25q-42 7 -44 7q-26 -2 -52 -33q-22 -30 1 -31z" />
</svg>
