<?xml version="1.0" standalone="no"?>
<!DOCTYPE svg PUBLIC "-//W3C//DTD SVG 1.1//EN" "http://www.w3.org/Graphics/SVG/1.1/DTD/svg11.dtd" >
<svg xmlns="http://www.w3.org/2000/svg" xmlns:xlink="http://www.w3.org/1999/xlink" version="1.1" viewBox="-10 0 1034 1024">
  <g transform="matrix(1 0 0 -1 0 820)">
   <path fill="currentColor"
d="M467 260q-7 3 -13 5q-34 15 -38 15q-7 0 -8 -5q6 -7 47 -44q15 -13 63 -61l3 -3q-46 -54 -108 -103q-39 -30 -94 -63q-90 -49 -97 -53q-30 -12 -48 -21q-3 -1 -6 -7q0 -9 16 -9q30 0 68 13q84 25 178 91q72 52 135 112q12 -9 33 -33q48 -54 60 -63q9 -6 21 -7q24 0 25 33
q0 33 -23 64q-16 27 -65 61q73 93 133 216q24 57 39 65q13 10 28 21q12 6 12 15t-30 31q-18 16 -44 29q-36 15 -42 16q-7 0 -28 -13q-18 -12 -40 -18l-82 -19l-107 -23l-119 -26q9 10 37 50l43 52q46 54 66 63q7 4 17 8q6 6 7 11q0 7 -19 27q-1 3 -22 23q-7 6 -20 15
q-21 16 -29 17q-12 0 -13 -13q3 -31 4 -36q-3 -19 -16 -55q-24 -57 -74 -120q-36 -46 -67 -53q-9 0 -17 -3q-9 -4 -9 -13q0 -7 16 -28q12 -18 29 -18q6 0 11 3q7 7 17 13q9 7 39 16q18 4 51 12l191 40q36 9 73 9q39 0 40 -32q0 -33 -32 -102q-36 -70 -96 -150q-13 6 -24 12z
" />
  </g>

</svg>
