<?xml version="1.0" standalone="no"?>
<!DOCTYPE svg PUBLIC "-//W3C//DTD SVG 1.1//EN" "http://www.w3.org/Graphics/SVG/1.1/DTD/svg11.dtd" >
<svg xmlns="http://www.w3.org/2000/svg" xmlns:xlink="http://www.w3.org/1999/xlink" version="1.1" viewBox="-10 0 1034 1024">
  <g transform="matrix(1 0 0 -1 0 820)">
   <path fill="currentColor"
d="M539 215q4 0 168 11q6 -22 8 -26q6 -21 16 -22q6 0 19 24q15 34 24 95q10 90 17 120q7 54 11 57q1 6 6 12q12 13 19 27q0 7 -37 33q-12 7 -24 13q-33 16 -43 17q-10 0 -11 -9q1 -6 6 -11q9 -15 14 -31q7 -24 8 -71q-3 -48 -14 -124q-7 -36 -25 -58v-8l-161 -12l3 280
q0 52 4 69q4 27 27 54l6 12q0 6 -15 17q-28 24 -51 34q-45 22 -56 23q-10 0 -11 -10q0 -4 6 -14q22 -36 28 -94q3 -33 3 -139v-235l-181 -9l-3 126q0 94 25 124q6 6 9 14q0 9 -42 31q-45 21 -63 21q-10 0 -11 -9q0 -7 9 -23q18 -33 24 -108q4 -99 5 -137q-3 -27 -14 -40
q-18 -16 -19 -23q0 -15 24 -30q9 -6 28 -14q6 0 20 13q16 13 64 21q57 4 125 6l-5 -209l-202 -13q-9 1 -17 0l-105 -1q-10 0 -20 1q-18 0 -18 -9q0 -3 13 -13l23 -17q18 -15 46 -15q12 1 35 6q19 6 79 10l183 14q127 4 272 6l134 -4q13 0 14 9q0 7 -16 20q-10 9 -24 17
q-30 15 -45 21q-6 3 -11 3q-3 0 -19 -7q-24 -15 -266 -24z" />
  </g>

</svg>
