<?xml version="1.0" standalone="no"?>
<!DOCTYPE svg PUBLIC "-//W3C//DTD SVG 1.1//EN" "http://www.w3.org/Graphics/SVG/1.1/DTD/svg11.dtd" >
<svg xmlns="http://www.w3.org/2000/svg" xmlns:xlink="http://www.w3.org/1999/xlink" version="1.1" viewBox="-10 0 1034 1024">
  <g transform="matrix(1 0 0 -1 0 820)">
   <path fill="currentColor"
d="M268 622q-9 0 -10 -6q0 -3 2 -7q3 -6 11 -12q37 -18 72 -19q9 0 85 16l107 18q13 0 50 9q21 3 44 4q40 0 41 -31q0 -24 -16 -75q-7 -25 -14 -37q-54 -10 -111 -21l-166 -27q-12 12 -32 23q-4 3 -10 5q-12 4 -19 10q-9 3 -13 4q-12 0 -12 -11q0 -6 3 -10q15 -28 16 -107
q0 -127 -40 -236q-37 -96 -119 -168q-33 -27 -34 -34q0 -7 11 -8q6 0 15 3q19 9 30 16q40 21 75 57q66 66 97 169q12 43 21 100q6 60 9 149l109 17l157 22l100 11q10 0 11 6q0 6 -13 15l-26 19q39 96 71 118q10 6 18 17q0 4 -21 23q-18 18 -49 31q-33 15 -41 15
q-4 0 -35 -12q-12 -6 -93 -25q-42 -9 -71 -14q-90 -15 -131 -18z" />
  </g>

</svg>
