<?xml version="1.0" standalone="no"?>
<!DOCTYPE svg PUBLIC "-//W3C//DTD SVG 1.1//EN" "http://www.w3.org/Graphics/SVG/1.1/DTD/svg11.dtd" >
<svg xmlns="http://www.w3.org/2000/svg" xmlns:xlink="http://www.w3.org/1999/xlink" version="1.1" viewBox="-10 0 1010 1000">
   <path fill="currentColor"
d="M417 338v400q-7 74 -36 96q-37 -26 -46 -82q0 -11 5 -49q12 -68 15 -222v-165q0 -90 -12 -153q-5 -1 -8 2q-16 3 -43 11q-31 9 -40 9q-47 -14 -65 -75q2 -4 9 -4q261 -7 453 -62q5 -1 14 -5q18 -7 29 -7q88 34 120 93q0 9 -16 21q-17 12 -20 23q-98 354 -197 363
q-10 0 -17 -21q-5 -15 -10 -23q-1 -1 -3 -4q-9 -18 -73 -59q-21 -12 -22 -25q2 -18 20 -19q12 5 39 16q47 21 54 20q79 7 129 -268q3 -32 -43 -36q-73 2 -270 42q47 46 50 74q0 7 -4 17q-12 31 -12 92z" />
</svg>
