<?xml version="1.0" standalone="no"?>
<!DOCTYPE svg PUBLIC "-//W3C//DTD SVG 1.1//EN" "http://www.w3.org/Graphics/SVG/1.1/DTD/svg11.dtd" >
<svg xmlns="http://www.w3.org/2000/svg" xmlns:xlink="http://www.w3.org/1999/xlink" version="1.1" viewBox="-10 0 1034 1024">
  <g transform="matrix(1 0 0 -1 0 820)">
   <path fill="currentColor"
d="M581 579q13 6 14 13q0 3 -25 32l-18 18q-15 12 -30 22q-18 12 -26 12q-13 0 -14 -12q1 -12 5 -25q0 -21 -10 -50q-12 -39 -41 -100q-48 -94 -113 -176q-15 -16 -15 -27q0 -10 31 -33q48 -34 126 -118q75 -81 122 -149q27 -42 46 -43q24 0 24 53q0 36 -28 71
q-27 31 -95 84l-182 140l63 82l113 164q7 9 13 18q7 12 37 23q0 1 3 1v0z" />
  </g>

</svg>
