<?xml version="1.0" standalone="no"?>
<!DOCTYPE svg PUBLIC "-//W3C//DTD SVG 1.1//EN" "http://www.w3.org/Graphics/SVG/1.1/DTD/svg11.dtd" >
<svg xmlns="http://www.w3.org/2000/svg" xmlns:xlink="http://www.w3.org/1999/xlink" version="1.1" viewBox="-10 0 1010 1000">
   <path fill="currentColor"
d="M736 173v119q0 57 6 307q2 83 2 90q-3 86 -48 103q-17 1 -37 -36h-30q-48 -11 -192 14q-59 10 -74 10q-9 0 -28 -18q-11 -10 -16 -12q-3 -1 -8 -7l-3 -3v4q-4 56 -24 72q-44 -21 -56 -83q0 -6 5 -16q25 8 35 -312v-145q0 -36 -17 -113q-7 -34 -7 -41q1 -11 12 -8
q4 2 15 10t17 11q302 -31 377 -79q87 28 107 70q0 9 -15 23q-22 21 -21 40zM419 336q-2 -8 17 -14h1q130 83 134 143q1 33 -26 57q-25 18 -41 -6q-22 -69 -66 -139q-20 -31 -19 -41zM308 709h39q82 6 237 -25q17 -3 19 -3q19 0 48 18q2 -12 8 -42q20 -103 18 -153v-176
q0 -140 -8 -163q-15 -36 -54 -32q-63 -3 -272 48q-9 -6 -20 -12v73q2 171 -12 401q-3 51 -3 66z" />
</svg>
