<?xml version="1.0" standalone="no"?>
<!DOCTYPE svg PUBLIC "-//W3C//DTD SVG 1.1//EN" "http://www.w3.org/Graphics/SVG/1.1/DTD/svg11.dtd" >
<svg xmlns="http://www.w3.org/2000/svg" xmlns:xlink="http://www.w3.org/1999/xlink" version="1.1" viewBox="-10 0 1010 1000">
   <path fill="currentColor"
d="M450 54q13 -5 26 3q11 6 40 37q47 50 32 79q-3 7 -22 39q-8 13 -10 17q-102 171 -278 472q157 -16 361 -40q87 -6 88 -10q-8 -29 -40 -102q-19 -46 -24 -61q-4 -10 2 -16q7 -4 18 1q83 58 161 212q54 136 -32 147q-41 0 -55 -81q-5 -33 -11 -38q-203 22 -383 53
q-14 2 -45 15q-46 18 -60 13q-50 -34 -67 -93q0 -18 31 -51q7 -7 8 -9q98 -120 241 -432q5 -12 8 -38q3 -32 1 -46q-9 -58 10 -71z" />
</svg>
