<?xml version="1.0" standalone="no"?>
<!DOCTYPE svg PUBLIC "-//W3C//DTD SVG 1.1//EN" "http://www.w3.org/Graphics/SVG/1.1/DTD/svg11.dtd" >
<svg xmlns="http://www.w3.org/2000/svg" xmlns:xlink="http://www.w3.org/1999/xlink" version="1.1" viewBox="-10 0 1034 1024">
  <g transform="matrix(1 0 0 -1 0 820)">
   <path fill="currentColor"
d="M755 620q7 4 8 12q0 12 -22 29l-15 10l-37 19q-28 18 -36 16q-4 0 -19 -8q-30 -18 -81 -27q-42 -6 -104 -13l-144 -13q-69 -3 -126 -4q-12 0 -13 -7q0 -9 24 -25q34 -21 56 -21q12 0 45 9q31 9 165 24q67 4 121 6q30 0 39 -2q27 -3 28 -26q0 -15 -14 -59q-15 -48 -28 -76
q-4 -7 -9 -19q-36 -75 -35 -82q0 -13 16 -14q7 0 16 6q9 7 27 32q15 24 31 56q18 36 46 100q25 57 45 67q7 6 16 10zM328 413q7 16 16 31q18 39 35 47q18 15 19 19q0 12 -34 38q-12 10 -36 23t-32 14q-9 0 -9 -9q3 -21 9 -44q0 -33 -9 -75q-15 -66 -39 -116q-18 -34 -42 -45
q-18 -4 -19 -17q0 -9 11 -27q18 -27 35 -28q7 0 20 8q9 6 19 12q7 6 42 10l159 17l94 7q27 0 45 2l82 -2q49 -4 50 -39q0 -21 -14 -59q-24 -72 -40 -103q-33 -70 -77 -99q-6 -3 -8 -16q-1 -24 -3 -48q0 -33 17 -34q9 0 35 23q12 10 25 30q15 24 37 68q43 90 82 189
q19 57 34 66q10 6 21 10q7 3 8 10q0 10 -21 30q-15 12 -51 34q-30 18 -35 18q-4 0 -23 -10q-22 -12 -40 -16q-33 -6 -89 -12l-337 -29q27 49 41 80q10 21 22 42v0z" />
  </g>

</svg>
