<?xml version="1.0" standalone="no"?>
<!DOCTYPE svg PUBLIC "-//W3C//DTD SVG 1.1//EN" "http://www.w3.org/Graphics/SVG/1.1/DTD/svg11.dtd" >
<svg xmlns="http://www.w3.org/2000/svg" xmlns:xlink="http://www.w3.org/1999/xlink" version="1.1" viewBox="-10 0 1010 1000">
   <path fill="currentColor"
d="M488 397v-28v-58q-1 -23 -2 -43q-80 9 -197 31q-58 11 -69 11q-37 -14 -63 -62q1 -16 16 -19q73 5 146 1q69 -3 165 -17q-2 -63 -8 -127q0 -9 -14 -49q-6 -16 -6 -17q-1 -20 48 -8q57 16 61 36q0 9 -9 23q-10 14 -10 23q-2 43 -2 111q20 -3 64 -9q32 -4 49 -7
q12 -1 38 -6q32 -6 45 -6q79 13 101 71q-2 21 -16 20q-11 -1 -32 -4q-56 -8 -108 -8q-74 0 -139 6q3 92 17 146q2 10 2 13q-4 38 -39 44q-3 0 -17 -1q-34 -3 -49 -3q-143 6 -150 145q10 154 182 162q98 3 141 -43q21 -32 37 -13q12 25 -9 56q-64 88 -181 95
q-216 -26 -240 -242q15 -208 248 -224z" />
</svg>
