<?xml version="1.0" standalone="no"?>
<!DOCTYPE svg PUBLIC "-//W3C//DTD SVG 1.1//EN" "http://www.w3.org/Graphics/SVG/1.1/DTD/svg11.dtd" >
<svg xmlns="http://www.w3.org/2000/svg" xmlns:xlink="http://www.w3.org/1999/xlink" version="1.1" viewBox="-10 0 1010 1000">
   <path fill="currentColor"
d="M294 429l218 8q145 -187 135 -232q8 -15 20 -14q67 52 87 89q0 8 -12 20q-6 5 -26 12q-22 9 -26 14q-229 269 -380 411q96 -20 270 -61l87 -21q-19 -39 -38 -65q-26 -38 -23 -52q6 -15 33 4q165 143 178 218q0 52 -47 61q-40 1 -54 -53q-7 -27 -31 -75q-353 102 -419 163
q-4 4 -20 4q-12 1 -63 -100q-5 -14 4 -23q4 -2 20 -7q42 -12 57 -23q88 -75 212 -226q-29 3 -71 8q-88 4 -163 35q-33 -13 -57 -89q0 -17 27 -24q37 -10 58 -30q210 -217 206 -327q2 -11 16 -22q48 19 89 74q5 8 -4 19q-15 14 -31 20q-4 5 -13 16q-155 190 -239 264
q-2 0 -2 2t2 2z" />
</svg>
