<?xml version="1.0" standalone="no"?>
<!DOCTYPE svg PUBLIC "-//W3C//DTD SVG 1.1//EN" "http://www.w3.org/Graphics/SVG/1.1/DTD/svg11.dtd" >
<svg xmlns="http://www.w3.org/2000/svg" xmlns:xlink="http://www.w3.org/1999/xlink" version="1.1" viewBox="-10 0 1010 1000">
   <path fill="currentColor"
d="M308 177l11 -8q48 26 72 64q5 10 -4 19q-5 7 -21 16q-9 6 -11 8q-2 5 -7 13q-36 72 -64 112q-1 0 25 -3q114 -15 165 -23q36 -121 42 -256q-80 12 -194 37q-41 9 -46 9q-64 -20 -70 -83h54q371 -17 429 -54q26 -8 33 -8q35 9 70 55q22 33 -4 42q-97 -7 -113 -7
q-55 0 -117 5q70 44 69 66q1 8 -9 15q-24 18 -31 60q-12 54 -29 107q121 -19 132 -25q5 -2 15 -7q18 -9 29 -9q49 19 93 71q5 6 4 13v3q0 12 -14 21q-17 11 -25 27q-54 184 -197 339q-47 40 -61 14q144 -172 176 -373q-6 -42 -35 -40q-24 2 -110 14q-17 3 -25 4
q-141 331 -338 421q-21 -2 -12 -24q178 -131 268 -383q-142 22 -178 36q-15 5 -38 22q-18 13 -24 13q-37 -19 -51 -75q1 -16 20 -24q37 14 113 -164q2 -7 4 -30q2 -22 4 -30z" />
</svg>
