<?xml version="1.0" standalone="no"?>
<!DOCTYPE svg PUBLIC "-//W3C//DTD SVG 1.1//EN" "http://www.w3.org/Graphics/SVG/1.1/DTD/svg11.dtd" >
<svg xmlns="http://www.w3.org/2000/svg" xmlns:xlink="http://www.w3.org/1999/xlink" version="1.1" viewBox="-10 0 1034 1024">
  <g transform="matrix(1 0 0 -1 0 820)">
   <path fill="currentColor"
d="M274 377q21 60 30 75q21 34 30 44q12 15 12 19q0 12 -40 39t-52 27q-10 0 -11 -11q0 -9 5 -17q12 -30 12 -60q0 -48 -23 -102q-16 -40 -44 -55q-15 -9 -16 -18q0 -13 24 -32q24 -15 36 -15q3 0 9 3q7 6 16 11q12 10 40 16q18 4 177 21q-39 -159 -132 -266
q-19 -22 -65 -61q-45 -36 -75 -53q-33 -16 -47 -24q-6 -3 -9 -5q-13 -9 -14 -15q0 -7 11 -8q15 0 45 11q82 33 157 93q81 70 135 176q30 61 54 160q9 0 20 2l58 6q6 1 44 3q27 0 43 2q28 0 42 -13q10 -12 11 -37q0 -30 -10 -75q-13 -66 -34 -121q-21 -60 -61 -98
q-10 -10 -13 -18q-3 -15 -3 -37t6 -37q3 -12 12 -12q15 0 37 29q28 39 61 119q33 91 55 190q15 58 19 67q6 13 26 32q6 6 11 13q0 4 -14 17q-16 15 -38 29q-33 24 -45 24q-6 0 -20 -8q-25 -12 -65 -21q-49 -9 -136 -19q1 15 4 30q15 135 18 137q4 21 21 33q3 3 7 10
q0 4 -24 19q-9 4 -32 21l164 11l98 4l76 1q21 0 22 10q0 10 -18 22q-13 9 -27 17q-30 19 -39 20q-6 0 -16 -6q-24 -10 -68 -18l-154 -19l-274 -25l-74 -7q-45 -4 -80 -5q-27 0 -28 -11q0 -6 32 -20q34 -13 42 -14q7 0 20 4q51 15 85 16l128 11l67 4l4 -14q3 -12 4 -51v-49
q0 -21 -3 -40q-3 -40 -13 -96q-43 -6 -88 -10l-138 -11q6 18 13 36v0z" />
  </g>

</svg>
