<?xml version="1.0" standalone="no"?>
<!DOCTYPE svg PUBLIC "-//W3C//DTD SVG 1.1//EN" "http://www.w3.org/Graphics/SVG/1.1/DTD/svg11.dtd" >
<svg xmlns="http://www.w3.org/2000/svg" xmlns:xlink="http://www.w3.org/1999/xlink" version="1.1" viewBox="-10 0 1034 1024">
  <g transform="matrix(1 0 0 -1 0 820)">
   <path fill="currentColor"
d="M363 363l-1 83q0 61 4 105q4 34 17 50q10 15 11 19q0 10 -19 22q-18 12 -38 22q-33 13 -56 14q-12 0 -13 -10q0 -6 7 -19q21 -37 29 -121q0 -114 3 -174q-126 -21 -146 -23q-28 -1 -56 -5q-10 0 -11 -7q0 -6 19 -20q33 -24 47 -24q7 0 28 8q31 15 120 28q3 -58 8 -110
q6 -66 16 -100q7 -33 22 -59q37 -66 130 -90q64 -15 155 -15q87 0 124 3l91 14q30 9 31 20q0 15 -23 34q-27 15 -38 15q-9 0 -40 -10q-18 -6 -86 -17q-66 -9 -101 -9q-120 0 -174 47q-40 39 -53 156q-6 46 -5 132l246 41q-12 -72 -25 -117q-12 -42 -35 -96q-15 -40 -22 -51
q-6 -12 -7 -24q0 -12 9 -13q12 0 38 40q36 54 68 152q7 25 15 51q6 27 14 68q177 30 206 34h7q33 0 33 14q0 9 -42 28q-42 21 -48 21t-19 -8q-30 -21 -129 -42q7 60 8 86q6 63 12 90q6 22 20 38q3 4 6 12q0 16 -53 41q-43 19 -59 20q-10 0 -11 -9q0 -10 11 -30
q10 -18 14 -58q3 -27 3 -63q0 -72 -7 -138z" />
  </g>

</svg>
