<?xml version="1.0" standalone="no"?>
<!DOCTYPE svg PUBLIC "-//W3C//DTD SVG 1.1//EN" "http://www.w3.org/Graphics/SVG/1.1/DTD/svg11.dtd" >
<svg xmlns="http://www.w3.org/2000/svg" xmlns:xlink="http://www.w3.org/1999/xlink" version="1.1" viewBox="-10 0 1010 1000">
   <path fill="currentColor"
d="M536 117v496q-1 29 0 72q1 40 0 65q-2 98 -42 100q-29 -24 -52 -123q0 -6 7 -19q14 -22 13 -43q5 -106 6 -169q2 -65 2 -158v-193q1 -53 -23 -121q-6 -16 -7 -20q4 -17 16 -17q77 21 102 69v4q1 7 -2 10q-1 1 -3 4q-17 27 -17 43z" />
</svg>
