<?xml version="1.0" standalone="no"?>
<!DOCTYPE svg PUBLIC "-//W3C//DTD SVG 1.1//EN" "http://www.w3.org/Graphics/SVG/1.1/DTD/svg11.dtd" >
<svg xmlns="http://www.w3.org/2000/svg" xmlns:xlink="http://www.w3.org/1999/xlink" version="1.1" viewBox="-10 0 1010 1000">
   <path fill="currentColor"
d="M187 836q-15 3 -21 -6q-5 -10 5 -20q178 -141 311 -345q-125 -132 -276 -256q-10 -10 -7 -17q5 -8 19 -7q150 94 302 220q126 -220 127 -377q-2 -18 18 -22q45 22 97 76q8 8 1 25q-1 2 -1 3q-2 4 -9 9q-16 13 -23 34q-45 140 -155 300q251 220 258 319q-3 40 -37 53
q-31 7 -50 -29q-72 -123 -216 -282q-163 212 -343 322z" />
</svg>
