<?xml version="1.0" standalone="no"?>
<!DOCTYPE svg PUBLIC "-//W3C//DTD SVG 1.1//EN" "http://www.w3.org/Graphics/SVG/1.1/DTD/svg11.dtd" >
<svg xmlns="http://www.w3.org/2000/svg" xmlns:xlink="http://www.w3.org/1999/xlink" version="1.1" viewBox="-10 0 1034 1024">
  <g transform="matrix(1 0 0 -1 0 820)">
   <path fill="currentColor"
d="M197 47q48 6 311 7l313 -7q0 24 1 48l-35 -4q-570 0 -590 5v-49zM749 557q-63 -6 -386 -7q-93 0 -113 7v-49q30 6 446 6q37 0 53 -5v48zM771 715q187 -187 140 -512q-1 -3 -2 -8q-34 -159 -130 -243q-6 -4 -11 -10q15 -15 30 -31q13 16 29 33q136 136 137 387
q0 217 -143 383l-21 25q-15 -12 -29 -24zM236 705l-35 31q-45 -45 -81 -112q-111 -174 -61 -428q3 -15 8 -33q33 -136 145 -248q15 16 30 31q-168 150 -151 444q0 13 2 21q12 180 137 289q3 3 6 5v0z" />
  </g>

</svg>
