<?xml version="1.0" standalone="no"?>
<!DOCTYPE svg PUBLIC "-//W3C//DTD SVG 1.1//EN" "http://www.w3.org/Graphics/SVG/1.1/DTD/svg11.dtd" >
<svg xmlns="http://www.w3.org/2000/svg" xmlns:xlink="http://www.w3.org/1999/xlink" version="1.1" viewBox="-10 0 1010 1000">
   <path fill="currentColor"
d="M222 108h544v73h-544v-73zM286 389h424v74h-424v-74zM173 709h642v73h-642v-73zM137 -17l28 11q-103 175 -117 467v14q8 261 117 456l-24 16q-117 -194 -125 -462v-42q12 -282 121 -460zM835 -6l28 -11q119 218 121 460v32q-16 312 -125 472l-24 -16q100 -168 117 -464
v-10q-4 -255 -117 -463z" />
</svg>
