<?xml version="1.0" standalone="no"?>
<!DOCTYPE svg PUBLIC "-//W3C//DTD SVG 1.1//EN" "http://www.w3.org/Graphics/SVG/1.1/DTD/svg11.dtd" >
<svg xmlns="http://www.w3.org/2000/svg" xmlns:xlink="http://www.w3.org/1999/xlink" version="1.1" viewBox="-10 0 1034 1024">
  <g transform="matrix(1 0 0 -1 0 820)">
   <path fill="currentColor"
d="M813 80q-63 -6 -382 -7l-195 3q-15 0 -27 4v-49q39 6 443 6q144 0 161 -5v48zM226 530q37 9 271 8q253 0 274 -8v49q-84 -6 -274 -6q-249 0 -271 7v-50zM730 352q-75 -6 -415 -6q-9 1 -24 3q-6 0 -17 3v-49q7 1 16 2q84 3 389 4q36 0 51 -5v48zM776 706
q187 -187 140 -512q-1 -3 -2 -8q-27 -136 -99 -217q-4 -3 -7 -8q-18 -13 -35 -27q15 -15 30 -31q13 16 29 33q135 132 137 385q0 244 -164 408q-15 -10 -29 -23zM241 695q-18 16 -34 33q-124 -159 -145 -280q-28 -139 10 -293q30 -120 119 -222l26 -26q15 15 31 30
q-184 165 -150 462q-1 1 0 3q10 187 143 293v0z" />
  </g>

</svg>
