<?xml version="1.0" standalone="no"?>
<!DOCTYPE svg PUBLIC "-//W3C//DTD SVG 1.1//EN" "http://www.w3.org/Graphics/SVG/1.1/DTD/svg11.dtd" >
<svg xmlns="http://www.w3.org/2000/svg" xmlns:xlink="http://www.w3.org/1999/xlink" version="1.1" viewBox="-10 0 1010 1000">
   <path fill="currentColor"
d="M137 -17l28 11q-103 175 -117 467v14q8 261 117 456l-24 16q-117 -194 -125 -462v-42q12 -282 121 -460zM835 -6l28 -11q119 218 121 460v32q-16 312 -125 472l-24 -16q100 -168 117 -464v-10q-4 -255 -117 -463zM234 76h520v73h-264l-32 209h223l9 386h137v70h-654v-70
h156l48 -313h-111v-73h123l32 -209h-187v-73zM401 744h216l-8 -313h-163z" />
</svg>
