<?xml version="1.0" standalone="no"?>
<!DOCTYPE svg PUBLIC "-//W3C//DTD SVG 1.1//EN" "http://www.w3.org/Graphics/SVG/1.1/DTD/svg11.dtd" >
<svg xmlns="http://www.w3.org/2000/svg" xmlns:xlink="http://www.w3.org/1999/xlink" version="1.1" viewBox="-10 0 1034 1024">
  <g transform="matrix(1 0 0 -1 0 820)">
   <path fill="currentColor"
d="M408 74l-186 6v-48q66 6 369 6q186 0 221 -6v48q-69 -6 -117 -6l22 218l7 59q-42 -4 -221 -5l35 191l246 -4q6 -1 11 -3v50q-21 -7 -70 -8l-458 3q-15 3 -30 5v-50q76 6 164 7h97l-35 -191q-153 0 -190 6v-48q21 6 183 7zM452 74l46 237h181l-22 -237h-205zM776 706
q187 -187 140 -512q-1 -3 -2 -8q-27 -136 -99 -217q-4 -3 -7 -8q-18 -13 -35 -27q15 -15 30 -31q13 16 29 33q135 132 137 385q0 244 -164 408q-15 -10 -29 -23zM241 695q-18 16 -34 33q-124 -159 -145 -280q-28 -139 10 -293q30 -120 119 -222l26 -26q15 15 31 30
q-184 165 -150 462q-1 1 0 3q10 187 143 293v0z" />
  </g>

</svg>
