<?xml version="1.0" standalone="no"?>
<!DOCTYPE svg PUBLIC "-//W3C//DTD SVG 1.1//EN" "http://www.w3.org/Graphics/SVG/1.1/DTD/svg11.dtd" >
<svg xmlns="http://www.w3.org/2000/svg" xmlns:xlink="http://www.w3.org/1999/xlink" version="1.1" viewBox="-10 0 1034 1024">
  <g transform="matrix(1 0 0 -1 0 820)">
   <path fill="currentColor"
d="M488 354l-321 7v-50q24 6 321 7q0 -303 -7 -353h54q-1 13 -2 19q-3 15 -4 334q282 0 334 -7v50q-55 -6 -334 -7q0 264 10 289q1 6 4 11h-62q0 -9 3 -16q3 -67 4 -284zM779 708q186 -186 139 -512q-1 -3 -2 -8q-24 -129 -102 -221q-9 -3 -39 -32l30 -30q13 16 29 32
q135 136 137 386q0 244 -164 408q-15 -10 -28 -23zM243 694l-34 32q-22 -15 -68 -90q-132 -196 -70 -472q1 -4 3 -11q30 -120 119 -222l26 -26q15 15 31 30q-184 165 -150 462q-1 1 0 3q9 153 117 271q10 12 26 23v0z" />
  </g>

</svg>
