<?xml version="1.0" standalone="no"?>
<!DOCTYPE svg PUBLIC "-//W3C//DTD SVG 1.1//EN" "http://www.w3.org/Graphics/SVG/1.1/DTD/svg11.dtd" >
<svg xmlns="http://www.w3.org/2000/svg" xmlns:xlink="http://www.w3.org/1999/xlink" version="1.1" viewBox="-10 0 1034 1024">
  <g transform="matrix(1 0 0 -1 0 820)">
   <path fill="currentColor"
d="M420 393q-9 -208 -141 -303q-48 -30 -85 -37q30 -27 40 -44q138 75 191 197q31 87 40 189l161 3q-4 -108 -15 -222q-1 -36 -3 -58v-13q0 -51 30 -63q58 -24 158 -1q15 6 29 15q21 21 41 116q-40 21 -54 31q4 -37 -4 -88q-9 -33 -33 -40q-7 -1 -85 -2q-24 1 -30 10
q-6 6 8 302l7 55q-24 0 -41 -3l-68 -3q-48 -3 -101 -3q10 93 11 135q0 36 26 58q-40 4 -73 11q6 -135 -5 -205l-163 -5q-27 0 -54 4l3 -51q75 15 210 15zM776 706q187 -187 140 -512q-1 -3 -2 -8q-24 -129 -102 -221q-3 0 -39 -31q15 -15 30 -31q13 16 29 32
q135 136 137 386q0 244 -164 408q-15 -10 -29 -23zM241 695l-34 32q-24 -16 -78 -106q-120 -187 -60 -456q1 -4 3 -11q33 -135 145 -248q15 16 31 31q-169 156 -152 443q0 13 2 21q12 189 143 294v0z" />
  </g>

</svg>
