<?xml version="1.0" standalone="no"?>
<!DOCTYPE svg PUBLIC "-//W3C//DTD SVG 1.1//EN" "http://www.w3.org/Graphics/SVG/1.1/DTD/svg11.dtd" >
<svg xmlns="http://www.w3.org/2000/svg" xmlns:xlink="http://www.w3.org/1999/xlink" version="1.1" viewBox="-10 0 1034 1024">
  <g transform="matrix(1 0 0 -1 0 820)">
   <path fill="currentColor"
d="M422 452q-45 -15 -67 -28q-63 -40 -64 -106q0 -30 18 -53q24 -30 147 -88q162 -67 182 -101q9 -16 10 -38q0 -45 -40 -70q-40 -27 -111 -28q-66 0 -103 28q-30 24 -30 49q4 24 11 50q0 39 -49 40q-49 0 -50 -52q0 -33 20 -63q54 -87 198 -88q100 0 164 44q63 43 64 114
q0 45 -40 80q-28 24 -86 46q51 15 80 31q63 33 64 97q0 33 -18 56q-31 39 -244 127q-4 3 -8 4q-15 6 -27 13q-58 27 -58 67q0 48 47 69q34 19 86 20q72 0 108 -36q10 -10 5 -72q-1 -36 43 -37q48 0 49 52q0 57 -58 93t-148 36q-93 0 -149 -37q-54 -36 -55 -99q0 -51 39 -85
q24 -16 70 -35zM460 432l122 -55q40 -12 68 -38q18 -13 19 -44q0 -39 -46 -67q-27 -13 -65 -22q-27 10 -60 26q-63 27 -95 45q-39 25 -40 58q0 36 39 68q18 15 58 29v0z" />
  </g>

</svg>
