<?xml version="1.0" standalone="no"?>
<!DOCTYPE svg PUBLIC "-//W3C//DTD SVG 1.1//EN" "http://www.w3.org/Graphics/SVG/1.1/DTD/svg11.dtd" >
<svg xmlns="http://www.w3.org/2000/svg" xmlns:xlink="http://www.w3.org/1999/xlink" version="1.1" viewBox="-10 0 1010 1000">
   <path fill="currentColor"
d="M506 2q109 -2 119 12q0 5 -8 15q-16 23 -16 43q0 49 -4 135h147q46 0 147 -7q9 -1 14 -1v87q-26 -2 -61 -3q-17 -1 -38 -1h-56h-151q3 263 -73 365q158 108 407 131q-48 41 -62 101q-261 -68 -395 -176q-103 106 -347 192q-30 -52 -79 -85q220 -37 365 -155
q-111 -105 -185 -299l91 -24q12 115 143 266q55 -109 52 -316h-264q-96 -1 -169 8v-91q87 8 163 8h268q4 -109 -8 -205z" />
</svg>
