<?xml version="1.0" standalone="no"?>
<!DOCTYPE svg PUBLIC "-//W3C//DTD SVG 1.1//EN" "http://www.w3.org/Graphics/SVG/1.1/DTD/svg11.dtd" >
<svg xmlns="http://www.w3.org/2000/svg" xmlns:xlink="http://www.w3.org/1999/xlink" version="1.1" viewBox="-10 0 1010 1000">
   <path fill="currentColor"
d="M919 50v97q-109 -8 -195 -8h-121q-8 16 -26 55q-20 41 -31 64v425q1 118 6 194h-100q8 -61 8 -198v-310q-111 156 -331 326q-46 -46 -97 -66q305 -148 484 -490h-244q-84 0 -199 8v-97q107 9 199 10h452q109 0 195 -10zM677 318q164 162 263 294l-91 65
q-97 -159 -242 -306z" />
</svg>
