<?xml version="1.0" standalone="no"?>
<!DOCTYPE svg PUBLIC "-//W3C//DTD SVG 1.1//EN" "http://www.w3.org/Graphics/SVG/1.1/DTD/svg11.dtd" >
<svg xmlns="http://www.w3.org/2000/svg" xmlns:xlink="http://www.w3.org/1999/xlink" version="1.1" viewBox="-10 0 1010 1000">
   <path fill="currentColor"
d="M427 -17q99 17 103 29q0 5 -8 14q-12 12 -16 22t-17 52l-11 33h193q114 -1 176 -8v88q-84 -6 -174 -8h-211q-10 41 -37 123h319q133 -1 189 -8v87q-77 -6 -189 -8h-337q-46 119 -44 102v1q1 -1 4 0h339q54 0 119 -14v92q-91 4 -269 164q89 39 196 90l-65 81
q-175 -120 -453 -202l48 -74q65 18 208 78q18 -16 53 -48q68 -65 118 -99h-64q-305 -3 -313 16l-32 -84q40 0 75 -103h-95q-85 2 -174 8v-87q63 7 178 8h111q24 -70 36 -123h-83q-44 0 -153 6v-86q16 1 56 3q74 5 97 5h99q21 -79 28 -150z" />
</svg>
