<?xml version="1.0" standalone="no"?>
<!DOCTYPE svg PUBLIC "-//W3C//DTD SVG 1.1//EN" "http://www.w3.org/Graphics/SVG/1.1/DTD/svg11.dtd" >
<svg xmlns="http://www.w3.org/2000/svg" xmlns:xlink="http://www.w3.org/1999/xlink" version="1.1" viewBox="-10 0 1010 1000">
   <path fill="currentColor"
d="M258 12q115 5 123 20q0 4 -7 14q-14 23 -17 44q-13 149 -28 273q74 58 173 167l-79 72q-51 -91 -110 -159q-53 181 -170 299q-30 -26 -89 -45q193 -126 204 -427q8 -189 0 -258zM613 14q118 1 123 12q0 4 -5 12q-26 2 -25 208q29 319 258 405q-52 30 -85 80
q-193 -123 -206 -360q-25 229 -223 391q-29 -34 -89 -55q242 -111 258 -459q4 -55 2 -124q-2 -71 -8 -110zM62 776q82 8 178 8h536q90 0 168 -8v89q-73 -5 -162 -5h-538q-94 0 -182 7v-91z" />
</svg>
