<?xml version="1.0" standalone="no"?>
<!DOCTYPE svg PUBLIC "-//W3C//DTD SVG 1.1//EN" "http://www.w3.org/Graphics/SVG/1.1/DTD/svg11.dtd" >
<svg xmlns="http://www.w3.org/2000/svg" xmlns:xlink="http://www.w3.org/1999/xlink" version="1.1" viewBox="-10 0 1034 1024">
  <g transform="matrix(1 0 0 -1 0 820)">
   <path fill="currentColor"
d="M68 -53v-46q4 1 55 5l815 -3q6 0 17 -2v46q-18 -1 -24 -2q-27 0 -55 -3h-251v713q0 36 13 82h-58q1 -40 5 -82v-713h-154v713q0 31 13 82h-56q3 -42 5 -82v-713l-294 1q-19 3 -31 4zM137 491q22 -30 47 -71q25 -48 62 -123q24 -57 39 -93q12 -30 18 -61l19 12q4 0 9 4
q6 1 16 8q-66 159 -169 346zM856 437q21 39 51 62q-21 6 -65 29q-15 -60 -70 -175q-24 -48 -54 -98q-28 -48 -54 -83q9 -3 17 -9q12 -4 24 -13l88 157l48 99q7 16 15 31v0z" />
  </g>

</svg>
