<?xml version="1.0" standalone="no"?>
<!DOCTYPE svg PUBLIC "-//W3C//DTD SVG 1.1//EN" "http://www.w3.org/Graphics/SVG/1.1/DTD/svg11.dtd" >
<svg xmlns="http://www.w3.org/2000/svg" xmlns:xlink="http://www.w3.org/1999/xlink" version="1.1" viewBox="-10 0 1034 1024">
  <g transform="matrix(1 0 0 -1 0 820)">
   <path fill="currentColor"
d="M249 -48h-119q-42 0 -69 5v-46q24 3 40 4l794 1q21 0 72 -5v46q-36 -1 -72 -5h-230v366l180 -1l31 -4v46q-33 -1 -66 -5h-521v247l264 22q202 24 248 28q21 1 49 1q-12 12 -24 27q-10 12 -23 31q-21 -9 -37 -13q-15 -4 -45 -11q-111 -18 -231 -32q-60 -6 -116 -9
q-51 -3 -81 -4q-18 0 -50 3l6 -64v-628zM289 -48v366h336v-366h-336z" />
  </g>

</svg>
