<?xml version="1.0" standalone="no"?>
<!DOCTYPE svg PUBLIC "-//W3C//DTD SVG 1.1//EN" "http://www.w3.org/Graphics/SVG/1.1/DTD/svg11.dtd" >
<svg xmlns="http://www.w3.org/2000/svg" xmlns:xlink="http://www.w3.org/1999/xlink" version="1.1" viewBox="-10 0 1010 1000">
   <path fill="currentColor"
d="M298 2q101 48 101 54q0 3 -17 20q-15 15 -19 20q-95 139 -182 258q20 -3 57 -8q79 -11 125 -20q35 -56 58 -113q89 46 97 57q0 3 -14 18q-20 14 -266 308q123 -10 238 -26l-2 81q-227 4 -337 36l-26 -105q73 -7 214 -195q-118 24 -208 52l-42 -85q67 -42 115 -125
q3 -5 8 -14q67 -115 100 -213zM683 10q111 37 113 50q1 5 -10 12q-21 14 -32 30q-17 26 -64 106q-74 123 -95 152q9 -1 26 -3q81 -8 113 -13q40 -60 74 -137q106 57 105 67q0 7 -16 13q-21 8 -30 19q-13 17 -39 48q-105 135 -209 232q176 -10 290 -36l-8 95q-204 1 -377 28
l-30 -91q92 -32 210 -181q-102 20 -177 40q-23 6 -21 4l-32 -80l3 -1q42 -9 77 -62q83 -138 129 -292zM929 766v92q-27 -8 -157 -8h-544q-133 0 -147 8v-92q31 8 147 8h536q133 0 165 -8z" />
</svg>
