<?xml version="1.0" standalone="no"?>
<!DOCTYPE svg PUBLIC "-//W3C//DTD SVG 1.1//EN" "http://www.w3.org/Graphics/SVG/1.1/DTD/svg11.dtd" >
<svg xmlns="http://www.w3.org/2000/svg" xmlns:xlink="http://www.w3.org/1999/xlink" version="1.1" viewBox="-10 0 1034 1024">
  <g transform="matrix(1 0 0 -1 0 820)">
   <path fill="currentColor"
d="M139 601q-55 3 -59 4q-1 0 -5 1v-47q15 4 41 5l233 1q-27 -60 -93 -168q-34 -52 -47 -67q-15 -16 -35 -28q12 -21 20 -44q33 3 69 5h251v-333q0 -27 -15 -34q-25 -7 -71 -8q-51 4 -61 6l-12 3q15 -30 19 -53q36 1 74 3q19 0 50 6q22 4 37 12q19 12 20 48v350h225
q25 0 52 -2q6 0 15 -3v46q-24 -4 -67 -5h-225q0 120 2 130q3 27 7 32q1 6 8 13h-63q4 -18 5 -66v-109h-275l76 123q21 36 32 56q27 54 49 87l496 -1q24 0 40 -5v47q-24 -4 -68 -5h-448q33 72 48 94q15 27 40 47q-15 3 -31 10q-18 4 -37 15q-9 -34 -21 -69q-15 -39 -44 -97
h-232zM118 -93q4 1 77 59q9 9 19 17q36 33 82 81q51 58 58 62q12 12 35 18q-21 12 -53 40q-12 -24 -31 -48q-24 -30 -70 -77q-88 -93 -157 -109q15 -10 23 -19q7 -12 17 -24zM834 51q-108 90 -130 112q-1 3 -3 4q-9 -12 -15 -19q-4 -6 -21 -19q39 -21 59 -37q40 -31 98 -83
q24 -22 60 -62l29 -38l15 21q6 9 21 19z" />
  </g>

</svg>
