<?xml version="1.0" standalone="no"?>
<!DOCTYPE svg PUBLIC "-//W3C//DTD SVG 1.1//EN" "http://www.w3.org/Graphics/SVG/1.1/DTD/svg11.dtd" >
<svg xmlns="http://www.w3.org/2000/svg" xmlns:xlink="http://www.w3.org/1999/xlink" version="1.1" viewBox="-10 0 1010 1000">
   <path fill="currentColor"
d="M437 -13q95 1 101 9q0 4 -6 14q-12 20 -12 36v54h168q83 0 121 -2q42 -2 58 -6v85q-17 -8 -175 -8h-174v266h208q117 0 149 -2q43 -2 60 -8v89q-14 -8 -205 -8h-218q22 97 85 165q89 -64 147 -135q71 48 81 68q0 3 -16 8q-23 6 -33 13q-75 54 -137 90q133 66 305 83
q-44 46 -61 93q-396 -81 -445 -383h-138v286q94 -43 166 -83l-2 89q-94 38 -238 111l-43 -71q1 -1 10 -8q26 -18 27 -26v-298q-146 0 -172 10v-91q25 9 170 10h222v-268h-184q-83 0 -111 1q-36 2 -50 7v-85q13 5 49 7q18 0 44 1h72h182q0 -90 -5 -113zM706 205q74 29 84 45
q0 3 -7 7q-23 12 -43 39q-10 14 -51 72q-20 30 -24 35q-11 -15 -76 -32q64 -62 117 -166zM242 213q65 70 115 150l-83 46q-49 -101 -103 -157z" />
</svg>
