<?xml version="1.0" standalone="no"?>
<!DOCTYPE svg PUBLIC "-//W3C//DTD SVG 1.1//EN" "http://www.w3.org/Graphics/SVG/1.1/DTD/svg11.dtd" >
<svg xmlns="http://www.w3.org/2000/svg" xmlns:xlink="http://www.w3.org/1999/xlink" version="1.1" viewBox="-10 0 1034 1024">
  <g transform="matrix(1 0 0 -1 0 820)">
   <path fill="currentColor"
d="M489 336h-348q-28 0 -50 3q1 0 -16 2v-46q54 4 80 5h89v-366q0 -21 -12 -34q-6 -6 -21 -12q13 -18 31 -50q76 57 95 69q4 3 9 5q129 90 147 99q3 3 8 5q-3 27 -8 53q-49 -46 -208 -147v378h172q15 -40 27 -67q12 -25 29 -56q39 -75 102 -142q99 -108 302 -196
q13 27 40 53q-61 12 -95 25q-85 36 -141 79q-28 21 -48 39q-13 12 -34 36l150 128q27 24 50 32q3 1 8 3q-40 21 -63 38q-48 -75 -177 -168q-67 90 -106 196l420 -1l41 -4v46q-18 -1 -16 -2q-27 0 -54 -3h-362v270h284q39 0 70 -5v47l-70 -6h-284v57q0 12 3 28q1 21 11 38
h-61q3 -12 6 -62v-61h-263q-25 0 -50 3q-3 0 -16 3v-47q70 6 101 5h228v-270zM226 522l78 -75q24 -27 52 -62q27 24 35 32l-93 95q-19 19 -39 40q-6 -9 -24 -23q-4 -3 -9 -7zM682 423q15 15 32 34q18 21 39 43q15 16 41 27q-34 22 -51 36q-22 -33 -63 -82q-33 -39 -77 -79
q15 -4 39 -24q19 22 40 45v0z" />
  </g>

</svg>
