<?xml version="1.0" standalone="no"?>
<!DOCTYPE svg PUBLIC "-//W3C//DTD SVG 1.1//EN" "http://www.w3.org/Graphics/SVG/1.1/DTD/svg11.dtd" >
<svg xmlns="http://www.w3.org/2000/svg" xmlns:xlink="http://www.w3.org/1999/xlink" version="1.1" viewBox="-10 0 1034 1024">
  <g transform="matrix(1 0 0 -1 0 820)">
   <path fill="currentColor"
d="M213 650q18 -12 63 -55q72 -64 120 -125q6 12 25 27q3 1 8 7l-58 57l-47 44l-146 125q-16 -19 -28 -31q9 -9 30 -23q16 -12 33 -26zM480 -132h50q-3 9 -5 54v471q115 84 233 198q72 75 80 78q22 18 53 26q-16 12 -30 24q-15 13 -26 26q-31 -48 -84 -103
q-84 -82 -148 -140q-66 -54 -123 -85q1 -30 5 -61l-1 -454q-3 -31 -4 -34v0z" />
  </g>

</svg>
