<?xml version="1.0" standalone="no"?>
<!DOCTYPE svg PUBLIC "-//W3C//DTD SVG 1.1//EN" "http://www.w3.org/Graphics/SVG/1.1/DTD/svg11.dtd" >
<svg xmlns="http://www.w3.org/2000/svg" xmlns:xlink="http://www.w3.org/1999/xlink" version="1.1" viewBox="-10 0 1034 1024">
  <g transform="matrix(1 0 0 -1 0 820)">
   <path fill="currentColor"
d="M513 233q12 7 70 48v-349q0 -34 -6 -65h50q-3 7 -4 22q-1 19 -2 43l1 772q0 6 6 30q1 9 7 17h-58l6 -65v-363l-117 -81q-57 -40 -97 -67q-36 -24 -82 -49l30 -40l124 94zM302 575q100 -99 157 -180l31 26q-33 42 -79 95l-79 83l-30 -24v0z" />
  </g>

</svg>
