<?xml version="1.0" standalone="no"?>
<!DOCTYPE svg PUBLIC "-//W3C//DTD SVG 1.1//EN" "http://www.w3.org/Graphics/SVG/1.1/DTD/svg11.dtd" >
<svg xmlns="http://www.w3.org/2000/svg" xmlns:xlink="http://www.w3.org/1999/xlink" version="1.1" viewBox="-10 0 1034 1024">
  <g transform="matrix(1 0 0 -1 0 820)">
   <path fill="currentColor"
d="M964 707q-30 -1 -61 -5l-809 1q-15 3 -27 4v-47l62 6l805 -1q4 0 10 -2q9 0 20 -3v47zM195 -145q-1 4 -5 58v566h233v-526q0 -30 -9 -39q-9 -6 -35 -7q-27 0 -62 9q21 -27 25 -54q78 4 97 18q21 12 22 56l1 539q0 4 5 45q-30 -1 -62 -5l-215 1q-15 3 -43 4q1 -19 2 -33
q3 -21 3 -66l-1 -531q-3 -15 -4 -35h48zM228 344q31 -39 66 -95q21 -39 47 -102q15 13 37 24l-49 84l-68 108q-15 -9 -33 -19zM567 526q1 -31 5 -65l-1 -553q-1 -7 -2 -32q-1 -3 -2 -16h49q-6 21 -6 66v559h242v-535q0 -24 -13 -30q-12 -6 -38 -6q-27 0 -67 9q21 -27 29 -54
l65 7q36 7 48 17q15 12 15 53l1 536l4 44q-54 -4 -62 -5l-226 1q-15 3 -41 4zM793 168l-45 96l-59 112q-15 -10 -35 -16q63 -91 105 -216q9 7 34 24v0z" />
  </g>

</svg>
