<?xml version="1.0" standalone="no"?>
<!DOCTYPE svg PUBLIC "-//W3C//DTD SVG 1.1//EN" "http://www.w3.org/Graphics/SVG/1.1/DTD/svg11.dtd" >
<svg xmlns="http://www.w3.org/2000/svg" xmlns:xlink="http://www.w3.org/1999/xlink" version="1.1" viewBox="-10 0 1034 1024">
  <g transform="matrix(1 0 0 -1 0 820)">
   <path fill="currentColor"
d="M117 -144q78 58 135 109q45 42 105 111q117 150 165 350h305q-12 -135 -14 -173l-19 -246l-7 -43q-9 -34 -40 -49q-31 -12 -87 -13q-21 0 -57 7q15 -21 23 -53q93 3 136 19q40 16 55 55q6 18 11 49q3 18 6 47q3 70 7 107q0 16 9 103l9 119q6 79 10 90q0 10 3 22
q-30 -1 -62 -5h-284q7 52 12 101q6 66 10 121q3 34 20 58q-36 6 -66 14q3 -49 4 -100q0 -39 -10 -130q0 -9 -10 -64h-317q-42 0 -69 5v-46q30 4 69 5h311q-25 -126 -93 -238q-84 -139 -218 -242q-63 -43 -107 -57q22 -9 42 -24q6 -4 13 -9zM223 696q66 -63 123 -164
q18 18 37 28q-15 22 -98 132q-9 12 -26 32q-13 -13 -36 -28zM497 228q102 -69 153 -141q9 10 15 17l6 6q3 1 11 10l-68 66q-39 34 -85 72q-15 -18 -32 -30v0z" />
  </g>

</svg>
