<?xml version="1.0" standalone="no"?>
<!DOCTYPE svg PUBLIC "-//W3C//DTD SVG 1.1//EN" "http://www.w3.org/Graphics/SVG/1.1/DTD/svg11.dtd" >
<svg xmlns="http://www.w3.org/2000/svg" xmlns:xlink="http://www.w3.org/1999/xlink" version="1.1" viewBox="-10 0 1010 1000">
   <path fill="currentColor"
d="M286 66h311q88 0 127 -1q46 -1 76 -5q8 1 6 10q-24 60 -94 284h34q98 -2 151 -10q8 -1 6 10q-2 22 -7 64q-36 360 -71 374q-45 42 -178 50q-6 -60 -46 -107q43 9 93 6q46 -4 62 -18q13 5 50 -290h-199q-7 0 -6 -6v-2q13 -33 36 -99l55 -181h-220q-22 307 -81 426
q-47 119 -240 287q-23 -35 -95 -72q151 -61 244 -206q73 -126 89 -435h-101q-80 1 -149 6v-93q9 1 25 2q70 6 122 6z" />
</svg>
