<?xml version="1.0" standalone="no"?>
<!DOCTYPE svg PUBLIC "-//W3C//DTD SVG 1.1//EN" "http://www.w3.org/Graphics/SVG/1.1/DTD/svg11.dtd" >
<svg xmlns="http://www.w3.org/2000/svg" xmlns:xlink="http://www.w3.org/1999/xlink" version="1.1" viewBox="-10 0 1010 1000">
   <path fill="currentColor"
d="M748 24q75 80 71 93q-3 3 -17 3q-40 0 -86 9q-82 17 -230 42v234l258 -12q140 -8 175 -14l2 94q-51 -6 -169 0l-266 10v228q-1 59 16 70q13 14 87 13h119q82 2 99 -25q21 -21 16 -124q44 42 106 54q-14 99 -50 137q-32 37 -111 35h-205q-103 1 -132 -24q-33 -23 -32 -101
v-259l-214 9q-103 7 -135 14l-6 -93q41 8 144 2l211 -10v-228q-206 24 -252 26q-12 -51 -42 -94q306 25 643 -89z" />
</svg>
