<?xml version="1.0" standalone="no"?>
<!DOCTYPE svg PUBLIC "-//W3C//DTD SVG 1.1//EN" "http://www.w3.org/Graphics/SVG/1.1/DTD/svg11.dtd" >
<svg xmlns="http://www.w3.org/2000/svg" xmlns:xlink="http://www.w3.org/1999/xlink" version="1.1" viewBox="-10 0 1010 1000">
   <path fill="currentColor"
d="M377 8q99 21 123 36q0 4 -11 14q-49 45 -86 129h210q70 0 111 -8q-46 104 -103 252q79 269 341 349q-65 35 -103 97q-234 -166 -292 -373q-90 197 -418 385q-33 -46 -97 -81q211 -56 394 -260q80 -109 147 -282h-230q-106 166 -159 230q-31 -27 -101 -43
q198 -167 274 -445z" />
</svg>
