<?xml version="1.0" standalone="no"?>
<!DOCTYPE svg PUBLIC "-//W3C//DTD SVG 1.1//EN" "http://www.w3.org/Graphics/SVG/1.1/DTD/svg11.dtd" >
<svg xmlns="http://www.w3.org/2000/svg" xmlns:xlink="http://www.w3.org/1999/xlink" version="1.1" viewBox="-10 0 1010 1000">
   <path fill="currentColor"
d="M393 -19q97 9 109 23q0 2 -8 9q-17 16 -22 29t-16 44q-5 15 -8 22h237q57 0 111 -6q-15 218 -40 267q-22 51 -191 66q-9 -67 -37 -107q45 12 85 10t52 -18q21 -27 27 -137h-392v292h446q85 0 145 -10q-19 271 -34 367q-8 71 -186 85q-13 -58 -58 -107q84 4 119 -2
q32 -5 38 -24q12 -27 17 -204q1 -22 1 -30h-465q-75 0 -115 6q9 -45 10 -123v-232q0 -44 -6 -101q12 1 32 3q43 5 77 5h52q18 -56 20 -127zM63 659q94 8 149 8h348q59 -1 138 -10v97q-54 -10 -136 -10h-344q-59 -1 -155 8v-93z" />
</svg>
