<?xml version="1.0" standalone="no"?>
<!DOCTYPE svg PUBLIC "-//W3C//DTD SVG 1.1//EN" "http://www.w3.org/Graphics/SVG/1.1/DTD/svg11.dtd" >
<svg xmlns="http://www.w3.org/2000/svg" xmlns:xlink="http://www.w3.org/1999/xlink" version="1.1" viewBox="-10 0 1034 1024">
  <g transform="matrix(1 0 0 -1 0 820)">
   <path fill="currentColor"
d="M127 -88q36 36 77 82q40 46 73 87q13 19 29 39q12 16 26 32q18 24 45 38q-12 4 -24 12q-18 9 -35 22q-9 -27 -37 -71q-30 -43 -53 -70q-30 -34 -54 -60q-21 -22 -37 -37q-27 -22 -64 -42q25 -7 38 -19zM509 307v-371q0 -25 -10 -35q-10 -9 -35 -9q-30 0 -83 8
q10 -33 13 -54q31 3 65 4q42 1 63 12q27 16 28 55v390l330 -1q24 0 40 -5v47q-24 -4 -68 -5h-302v153q0 10 3 26q3 21 17 39h-66q1 -31 5 -65v-153h-291l41 316q285 9 489 24l92 6q-24 33 -32 53q-33 -12 -85 -18t-100 -11q-181 -15 -259 -18l-95 -2q-25 1 -52 5
q1 -58 0 -89q-9 -93 -28 -198l-3 -19q-7 -39 -38 -49q18 -21 26 -46q12 4 20 5q6 0 47 5h268zM828 109l-53 57q-13 15 -57 59q-24 -24 -41 -38q30 -16 53 -37q30 -30 73 -78q42 -49 68 -83q19 -27 31 -53l26 25q3 3 19 13q-27 33 -119 135v0z" />
  </g>

</svg>
