<?xml version="1.0" standalone="no"?>
<!DOCTYPE svg PUBLIC "-//W3C//DTD SVG 1.1//EN" "http://www.w3.org/Graphics/SVG/1.1/DTD/svg11.dtd" >
<svg xmlns="http://www.w3.org/2000/svg" xmlns:xlink="http://www.w3.org/1999/xlink" version="1.1" viewBox="-10 0 1010 1000">
   <path fill="currentColor"
d="M786 8q71 83 77 96q0 3 -23 2q-35 -2 -58 0q-17 2 -85 9q-99 12 -141 16v312h240q105 0 146 -14v97q-40 -12 -148 -12h-238v286q23 62 -177 89q-14 -61 -42 -107q89 7 113 -2q24 -6 22 -45v-221h-295q-100 0 -135 8v-87q46 8 135 8h295v-304q-128 11 -319 38
q-19 -60 -58 -93q377 8 691 -76zM734 189q95 26 103 40q0 2 -6 8q-44 44 -113 168q-30 -15 -87 -24q70 -98 103 -192zM284 199q46 79 85 174l-83 28q-35 -103 -80 -168z" />
</svg>
