<?xml version="1.0" standalone="no"?>
<!DOCTYPE svg PUBLIC "-//W3C//DTD SVG 1.1//EN" "http://www.w3.org/Graphics/SVG/1.1/DTD/svg11.dtd" >
<svg xmlns="http://www.w3.org/2000/svg" xmlns:xlink="http://www.w3.org/1999/xlink" version="1.1" viewBox="-10 0 1034 1024">
  <g transform="matrix(1 0 0 -1 0 820)">
   <path fill="currentColor"
d="M567 491q39 -46 71 -76q30 -30 76 -64q100 -72 226 -124q15 28 45 50q-30 1 -54 9q-58 18 -102 43q-135 75 -206 162l283 -3q3 0 11 -3v47q-33 -1 -66 -5h-380q24 66 42 143l95 10l138 20q45 6 53 6h24q-15 13 -22 24q-6 9 -18 30q-31 -10 -55 -16q-49 -10 -124 -22
q-157 -22 -301 -23q-64 0 -125 10q18 -31 24 -56l177 6q54 3 87 6q-6 -36 -14 -63q-9 -30 -29 -75l-278 1q-9 1 -22 2q-3 0 -17 2v-47q60 6 67 6h233q-37 -57 -87 -106q-75 -67 -180 -112q-46 -18 -92 -23q22 -18 49 -48q247 99 360 289h111zM406 207q1 30 5 59q1 31 5 37
q0 1 7 16q-28 0 -60 4q3 -42 4 -85q0 -132 -21 -195q-24 -75 -100 -122q-31 -18 -89 -36q27 -21 42 -41q75 43 105 69q51 43 74 95q19 49 25 137zM663 323q1 -31 5 -64l-1 -359q-1 -10 -2 -25q0 -1 -2 -16h51q-1 6 -6 64l1 358q0 16 4 27q1 9 8 15h-58z" />
  </g>

</svg>
