<?xml version="1.0" standalone="no"?>
<!DOCTYPE svg PUBLIC "-//W3C//DTD SVG 1.1//EN" "http://www.w3.org/Graphics/SVG/1.1/DTD/svg11.dtd" >
<svg xmlns="http://www.w3.org/2000/svg" xmlns:xlink="http://www.w3.org/1999/xlink" version="1.1" viewBox="-10 0 1010 1000">
   <path fill="currentColor"
d="M760 8q60 76 55 98q-3 3 -21 0q-26 -5 -46 -4q-49 3 -156 13q-37 4 -58 6v86h250q76 -1 139 -10v83q-69 -9 -131 -8h-258v185q112 270 416 287q-53 51 -75 104q-264 -86 -341 -276v172q0 101 9 143q1 7 1 10h-90q0 -2 1 -9q9 -50 9 -144v-170q-115 201 -353 293
q-25 -37 -77 -85q206 -31 333 -180h-73q3 -25 6 -64q-88 47 -171 83l-34 -79q105 -23 205 -65v-52h-70q-62 0 -121 8v-75q85 7 117 7h74q-1 -8 -1 -26q0 -20 -1 -31q83 5 89 14q0 3 -5 10q-11 17 -11 33v135q0 52 8 86q55 -67 85 -121v-193h-248q-65 -1 -149 8v-81
q98 8 143 8h254v-84q-167 16 -293 24q-7 -47 -34 -83q398 9 623 -56zM617 306q85 2 93 10q0 4 -4 13q-14 28 -14 64q86 -36 145 -75q50 58 50 69q-2 2 -18 5q-75 16 -175 53v38q0 31 12 39q10 9 52 8q46 1 60 -18q16 -19 17 -77q37 33 78 46q-18 71 -43 92q-24 24 -84 23
h-68q-99 3 -95 -96v-125q0 -50 -6 -69z" />
</svg>
