<?xml version="1.0" standalone="no"?>
<!DOCTYPE svg PUBLIC "-//W3C//DTD SVG 1.1//EN" "http://www.w3.org/Graphics/SVG/1.1/DTD/svg11.dtd" >
<svg xmlns="http://www.w3.org/2000/svg" xmlns:xlink="http://www.w3.org/1999/xlink" version="1.1" viewBox="-10 0 1010 1000">
   <path fill="currentColor"
d="M278 24q106 5 121 16q0 3 -5 9q-23 33 -23 96v155q326 -87 425 -117q-3 29 -7 83q-17 176 -21 246q5 106 -187 121q-13 -61 -45 -109q83 14 113 4q32 -9 36 -51q1 -20 6 -71q6 -71 9 -116l-329 91v310q-2 80 13 88q9 15 92 13h211q88 2 113 -26q31 -27 37 -117
q42 40 98 68q-33 102 -72 128q-20 15 -50 21q-26 5 -85 5h-297q-103 2 -123 -21q-26 -17 -24 -106v-341q-151 39 -205 62l-23 -100q57 1 228 -43v-187q2 -52 -5 -106q-1 -3 -1 -5z" />
</svg>
