<?xml version="1.0" standalone="no"?>
<!DOCTYPE svg PUBLIC "-//W3C//DTD SVG 1.1//EN" "http://www.w3.org/Graphics/SVG/1.1/DTD/svg11.dtd" >
<svg xmlns="http://www.w3.org/2000/svg" xmlns:xlink="http://www.w3.org/1999/xlink" version="1.1" viewBox="-10 0 1010 1000">
   <path fill="currentColor"
d="M470 -6q87 34 101 54q0 5 -9 8q-17 7 -30 20q-21 21 -72 76q-110 118 -166 164l256 -10q110 -95 164 -191q86 47 101 68q-1 7 -15 12q-19 8 -34 20q-21 16 -73 63q-88 90 -324 256q103 -1 254 -9q65 -3 103 -5q34 -91 30 -172q111 13 121 27q0 4 -7 10q-18 16 -25 38
q-3 9 -9 28q-62 217 -195 301q-159 110 -478 147q-26 -52 -57 -84q-8 -8 -7 -11q450 -5 593 -216q-71 5 -193 11q-210 10 -269 22l-42 -87q145 -25 290 -167q-159 4 -291 26l-32 -91q70 -9 147 -81q119 -129 168 -227z" />
</svg>
