<?xml version="1.0" standalone="no"?>
<!DOCTYPE svg PUBLIC "-//W3C//DTD SVG 1.1//EN" "http://www.w3.org/Graphics/SVG/1.1/DTD/svg11.dtd" >
<svg xmlns="http://www.w3.org/2000/svg" xmlns:xlink="http://www.w3.org/1999/xlink" version="1.1" viewBox="-10 0 1010 1000">
   <path fill="currentColor"
d="M319 -2q97 28 104 42q0 3 -12 10q-19 11 -26 22q-6 10 -18 28q-19 29 -30 45h371q45 0 156 -6q18 -1 27 -2v90q-89 -9 -185 -8h-410q-76 106 -153 194q-27 -26 -87 -38q190 -171 263 -377zM798 334v91q-80 -1 -203 71q-138 82 -250 181q-59 56 -47 85q15 24 115 24h230
q105 -1 131 -24q36 -36 45 -121q48 39 94 50q-32 100 -64 133q-42 35 -164 36h-292q-117 -2 -161 -30q-53 -43 -24 -109q40 -70 207 -189q130 -88 174 -115h-192q-84 1 -177 6v-81q79 7 173 8h270q60 0 122 -14q11 -2 13 -2z" />
</svg>
