<?xml version="1.0" standalone="no"?>
<!DOCTYPE svg PUBLIC "-//W3C//DTD SVG 1.1//EN" "http://www.w3.org/Graphics/SVG/1.1/DTD/svg11.dtd" >
<svg xmlns="http://www.w3.org/2000/svg" xmlns:xlink="http://www.w3.org/1999/xlink" version="1.1" viewBox="-10 0 1010 1000">
   <path fill="currentColor"
d="M851 246q-1 29 -3 93q-10 413 -23 439q-12 71 -198 99q-9 -41 -35 -91q-5 -9 -5 -10q121 5 141 -34q28 0 32 -589h-474q-71 0 -133 7q-12 1 -14 1v-89q4 0 23 2q69 8 122 8h315q176 -1 268 -16q-10 52 -16 180zM325 229q110 61 219 166l-68 64q-97 -106 -210 -163z
M653 483l12 71q-148 63 -397 147q-35 12 -67 42q-10 9 -13 9q-22 -29 -47 -115q160 -27 512 -154z" />
</svg>
