<?xml version="1.0" standalone="no"?>
<!DOCTYPE svg PUBLIC "-//W3C//DTD SVG 1.1//EN" "http://www.w3.org/Graphics/SVG/1.1/DTD/svg11.dtd" >
<svg xmlns="http://www.w3.org/2000/svg" xmlns:xlink="http://www.w3.org/1999/xlink" version="1.1" viewBox="-10 0 1034 1024">
  <g transform="matrix(1 0 0 -1 0 820)">
   <path fill="currentColor"
d="M426 414l6 48l240 5l-31 -405q-4 -96 -3 -107q1 -24 16 -39q13 -12 57 -19q37 -3 71 -4q25 0 68 4q58 6 83 25q33 24 52 125q-6 1 -14 6q-21 10 -41 26q3 -24 3 -40q0 -45 -13 -71q-15 -27 -58 -31q-55 -3 -102 -4q-15 1 -42 3q-39 1 -40 39q0 12 2 34l4 55q0 40 8 121
l14 181q0 6 13 145q-24 -3 -33 -4l-103 -3l-148 -4q1 22 4 45q3 28 4 54q3 84 9 104q4 21 23 36q-28 1 -72 11q3 -30 3 -49q0 -28 -4 -82l-8 -120l-161 -4q-57 -1 -92 0q-9 1 -17 2l3 -58q30 9 66 11l104 7l93 2q-6 -72 -15 -120q-7 -45 -23 -104q-45 -171 -179 -272
q-73 -54 -131 -64q21 -16 26 -23q6 -4 20 -20q51 30 76 49q21 15 45 35q108 96 150 195q36 78 57 211q4 34 10 68v0z" />
  </g>

</svg>
