<?xml version="1.0" standalone="no"?>
<!DOCTYPE svg PUBLIC "-//W3C//DTD SVG 1.1//EN" "http://www.w3.org/Graphics/SVG/1.1/DTD/svg11.dtd" >
<svg xmlns="http://www.w3.org/2000/svg" xmlns:xlink="http://www.w3.org/1999/xlink" version="1.1" viewBox="-10 0 1010 1000">
   <path fill="currentColor"
d="M470 -8q104 8 109 24q1 5 -5 16q-14 32 -14 72v158l281 -83q9 -3 8 3v1q-14 50 -33 253q-11 117 -16 142q-8 53 -157 77q-18 -48 -52 -107q101 13 123 -18q13 -39 36 -252l-188 56v222q0 113 5 155h-95q6 -52 6 -159v-198l-165 43v349q0 27 19 36q13 9 79 16
q112 11 256 6q121 -6 143 -24q34 -28 41 -135q48 53 101 74q-37 147 -117 156q-41 7 -129 9q-90 3 -190 1q-200 -5 -240 -22q-47 -22 -46 -69v-377l-32 10q-16 5 -54 17q-63 18 -82 27l-22 -80q54 -9 139 -31l51 -14v-143q0 -38 -6 -80q104 9 107 24q1 6 -6 18
q-12 22 -12 42v121l163 -42v-186q0 -39 -6 -108z" />
</svg>
