<?xml version="1.0" standalone="no"?>
<!DOCTYPE svg PUBLIC "-//W3C//DTD SVG 1.1//EN" "http://www.w3.org/Graphics/SVG/1.1/DTD/svg11.dtd" >
<svg xmlns="http://www.w3.org/2000/svg" xmlns:xlink="http://www.w3.org/1999/xlink" version="1.1" viewBox="-10 0 1010 1000">
   <path fill="currentColor"
d="M121 50q39 3 74 3q17 1 42 1h75h367q87 0 200 -11q17 -2 26 -3q-39 118 -66 222l-95 -24l42 -113h-471q-125 0 -194 6v-81zM508 171q115 7 111 22q0 7 -6 17q-15 23 -16 58q-1 22 -3 79q-4 114 -5 167h139q85 0 187 -6v84q-47 -6 -183 -6h-153q-65 214 -442 291
q-2 -4 -5 -13q-14 -44 -53 -80q337 -20 417 -198h-226q-80 0 -184 5q-9 1 -13 1v-86h8q133 8 189 8h240q6 -160 5 -234q0 -83 -7 -109zM298 177q95 55 174 121l-57 65q-93 -82 -171 -126zM214 308q117 69 177 117l-58 63q-67 -65 -168 -121zM619 647q155 75 278 167l-64 79
q-134 -110 -277 -180z" />
</svg>
