<?xml version="1.0" standalone="no"?>
<!DOCTYPE svg PUBLIC "-//W3C//DTD SVG 1.1//EN" "http://www.w3.org/Graphics/SVG/1.1/DTD/svg11.dtd" >
<svg xmlns="http://www.w3.org/2000/svg" xmlns:xlink="http://www.w3.org/1999/xlink" version="1.1" viewBox="-10 0 1034 1024">
  <g transform="matrix(1 0 0 -1 0 820)">
   <path fill="currentColor"
d="M148 220q-40 0 -69 5v-47q10 3 62 7h366q-42 -117 -197 -203q-118 -63 -218 -72q18 -21 36 -48q84 33 139 57q46 21 99 53q136 81 182 212h322q31 0 68 -6v47q-33 -4 -68 -5h-317q6 40 10 88q4 54 9 138q1 79 8 105q3 22 22 44q-36 3 -72 12q1 -27 5 -57q0 -42 -7 -158
q-1 -10 -2 -24q-1 -45 -5 -75q-3 -30 -9 -73h-364zM206 699q-42 0 -56 3q-6 3 -13 3v-47q3 0 8 2q21 3 61 4h650q-48 -84 -112 -151q24 -9 42 -22l45 62q15 21 27 41l71 111q-66 -6 -68 -6h-655zM200 422q-6 -9 -15 -19q118 -63 169 -128q12 16 30 34q-69 60 -173 128
q-6 -7 -11 -15zM280 569q-1 -3 -15 -22q111 -60 175 -122q3 3 17 24q3 3 9 13q-27 21 -45 34q-27 19 -65 45l-67 43zM593 88q81 -40 188 -117q76 -57 113 -101l18 25q1 3 13 15q-57 45 -120 91l-187 126q-9 -15 -17 -27l-8 -12v0z" />
  </g>

</svg>
