<?xml version="1.0" standalone="no"?>
<!DOCTYPE svg PUBLIC "-//W3C//DTD SVG 1.1//EN" "http://www.w3.org/Graphics/SVG/1.1/DTD/svg11.dtd" >
<svg xmlns="http://www.w3.org/2000/svg" xmlns:xlink="http://www.w3.org/1999/xlink" version="1.1" viewBox="-10 0 1010 1000">
   <path fill="currentColor"
d="M645 6q116 -1 115 10q0 7 -8 20q-14 21 -14 44v601q-1 78 9 91q8 19 49 18q75 7 77 -113q33 38 93 58q-22 76 -49 101q-27 28 -82 27h-69q-68 2 -88 -25q-23 -26 -23 -107v-562q-2 -88 -10 -163zM534 22q73 68 71 84q-2 6 -26 4q-26 -3 -41 0q-199 34 -439 69
q-16 -50 -47 -85q307 -9 482 -72zM510 161q73 23 85 38q0 3 -10 12q-17 16 -22 27q-2 5 -5 15q-17 50 -36 97l-68 -26q29 -53 56 -163zM369 185q26 64 40 125l-78 20q-11 -73 -37 -129zM198 213q28 54 44 113l-77 16q-11 -63 -40 -115zM107 379q72 7 121 8h248q74 0 123 -4
q3 12 -154 141q-31 25 -44 36v30l202 -30l-12 75l-190 28v139q11 84 -159 95q-5 -55 -34 -101q100 19 109 -4q4 -7 5 -31q1 -12 1 -31v-55l-232 34l-35 -82l265 -27v-64l125 -85h-216q-77 1 -123 8v-80z" />
</svg>
