<?xml version="1.0" standalone="no"?>
<!DOCTYPE svg PUBLIC "-//W3C//DTD SVG 1.1//EN" "http://www.w3.org/Graphics/SVG/1.1/DTD/svg11.dtd" >
<svg xmlns="http://www.w3.org/2000/svg" xmlns:xlink="http://www.w3.org/1999/xlink" version="1.1" viewBox="-10 0 1034 1024">
  <g transform="matrix(1 0 0 -1 0 820)">
   <path fill="currentColor"
d="M69 654q6 -9 15 -22q3 -7 9 -22q109 15 197 33q82 16 172 41q18 3 33 9q40 9 63 11q-36 27 -50 48q-15 -10 -37 -20q-42 -15 -94 -29q-36 -10 -69 -18l-81 -15q-91 -15 -137 -16h-21zM103 65l2 -5q1 -4 4 -10l68 21l154 40v-160q0 -42 -31 -49q-27 -3 -51 -5q-9 0 -26 1
q-19 1 -39 7q18 -27 22 -50l85 6q36 6 53 19q24 18 25 61v181l170 45q-1 18 -2 21q0 7 3 27q-54 -21 -171 -54v54q3 1 29 28l76 73q27 27 66 71q-33 -1 -66 -5l-346 1l-34 4v-46q66 6 85 5h275q-33 -36 -68 -67q-33 -28 -61 -48q6 -48 6 -70v-10q-108 -27 -161 -39
q-58 -10 -83 -13zM126 538q40 -51 64 -111q0 -6 5 -13q15 9 34 17q-27 63 -73 127q-16 -10 -15 -11q-6 -4 -15 -9zM361 490q-21 55 -51 111q-3 -1 -10 -6q-12 -6 -23 -12q28 -45 51 -112q4 3 11 7q4 3 12 6q4 3 10 6zM418 419q3 -1 7 -4q1 0 4 -2l18 27q15 18 28 39
q13 19 27 37q9 15 19 30q27 36 49 49q-10 6 -20 8l-20 8q-6 3 -16 11q-24 -52 -55 -101q-37 -52 -67 -88q6 -3 13 -8q6 -3 13 -6zM634 758q4 -30 5 -71v-720q0 -54 25 -71q15 -9 60 -14q36 -3 57 -3q15 0 41 2q51 3 71 15q22 12 40 49q12 27 23 74q-24 7 -48 26
q-1 -54 -9 -75q-12 -42 -57 -48q-34 -4 -58 -5q-24 0 -57 4q-25 1 -38 11q-12 10 -12 50v705q0 4 3 22q3 22 10 49h-56z" />
  </g>

</svg>
