<?xml version="1.0" standalone="no"?>
<!DOCTYPE svg PUBLIC "-//W3C//DTD SVG 1.1//EN" "http://www.w3.org/Graphics/SVG/1.1/DTD/svg11.dtd" >
<svg xmlns="http://www.w3.org/2000/svg" xmlns:xlink="http://www.w3.org/1999/xlink" version="1.1" viewBox="-10 0 1034 1024">
  <g transform="matrix(1 0 0 -1 0 820)">
   <path fill="currentColor"
d="M490 192q-402 0 -421 3q-4 1 -13 2v-46q31 3 65 5h369v-82q-309 0 -331 3q-4 1 -13 2v-46q27 3 57 5h287v-110q0 -37 -20 -47q-18 -9 -57 -10q-12 0 -33 3q-16 1 -36 7q13 -24 19 -52l87 4q31 4 53 17q27 18 27 73v115h268q-3 -33 -3 -50q-3 -6 -3 -15h50q-4 54 -5 81
v102h65q42 0 69 -5v46q-28 -4 -69 -5h-65q0 75 2 88q0 18 3 36q-30 -1 -62 -5h-250v81l253 -1l41 -4q-6 60 -6 78q0 45 2 53l4 39q-28 -1 -58 -5h-236v72l376 -1l45 -4v46q-18 -1 -16 -2q-28 -3 -54 -3h-351q0 54 2 62q0 9 12 48h-60q6 -36 6 -69v-41h-344q-25 0 -50 3
q1 0 -16 2v-46q33 3 66 5h344v-72l-254 1q-1 0 -41 4q1 -28 5 -58q0 -52 -2 -77q-3 -3 -3 -35q27 3 56 5h239v-81l-308 1l-32 4v-46q66 6 83 5h257v-83zM238 428v88h252v-88h-252zM530 74v82h268v-82h-268zM798 275v-83h-268v83h268zM530 428v88h249v-88h-249z" />
  </g>

</svg>
