<?xml version="1.0" standalone="no"?>
<!DOCTYPE svg PUBLIC "-//W3C//DTD SVG 1.1//EN" "http://www.w3.org/Graphics/SVG/1.1/DTD/svg11.dtd" >
<svg xmlns="http://www.w3.org/2000/svg" xmlns:xlink="http://www.w3.org/1999/xlink" version="1.1" viewBox="-10 0 1034 1024">
  <g transform="matrix(1 0 0 -1 0 820)">
   <path fill="currentColor"
d="M944 401q-34 -1 -70 -5l-773 1l-31 4v-46l66 5h328q-39 -67 -89 -139q-54 -75 -97 -120q-42 -48 -76 -82q-21 -21 -48 -35q-9 -3 -18 -7q12 -21 18 -36q3 -12 10 -22q48 12 125 19q436 33 486 35q27 -36 47 -81q19 15 27 23q6 7 16 11l-115 150q-27 34 -85 102
q-15 15 -34 39q-3 0 -4 -4q-1 0 -23 -18q-4 -4 -13 -11q37 -27 70 -64q19 -21 40 -47l55 -70l-232 -14l-271 -13q-21 0 -39 -2q114 120 192 222q24 33 49 65q7 9 15 20q6 10 13 16q12 12 35 21q-21 21 -41 42l455 -3q4 0 12 -2v46zM805 681q-18 -1 -16 -2q-42 0 -86 -3
l-491 2q-9 0 -19 3v-46q33 3 66 5l505 -1l41 -4v46z" />
  </g>

</svg>
