<?xml version="1.0" standalone="no"?>
<!DOCTYPE svg PUBLIC "-//W3C//DTD SVG 1.1//EN" "http://www.w3.org/Graphics/SVG/1.1/DTD/svg11.dtd" >
<svg xmlns="http://www.w3.org/2000/svg" xmlns:xlink="http://www.w3.org/1999/xlink" version="1.1" viewBox="-10 0 1010 1000">
   <path fill="currentColor"
d="M804 46v91q-48 -9 -137 -8h-332q-93 0 -150 8v-91q66 8 148 8h328q60 0 143 -8zM63 264q103 8 183 8h496q50 0 161 -7q13 -1 20 -1v96q-93 -9 -177 -8h-355l-26 148h318q77 0 119 -6q-41 271 -68 310q-43 71 -234 79q-9 -57 -46 -113q143 26 179 -2q42 -30 61 -194h-291
q-81 0 -131 7q-3 1 -4 1l-4 -8l36 -222h-52q-113 -1 -185 8v-96z" />
</svg>
