<?xml version="1.0" standalone="no"?>
<!DOCTYPE svg PUBLIC "-//W3C//DTD SVG 1.1//EN" "http://www.w3.org/Graphics/SVG/1.1/DTD/svg11.dtd" >
<svg xmlns="http://www.w3.org/2000/svg" xmlns:xlink="http://www.w3.org/1999/xlink" version="1.1" viewBox="-10 0 1034 1024">
  <g transform="matrix(1 0 0 -1 0 820)">
   <path fill="currentColor"
d="M979 501q-30 -1 -60 -5l-818 1q-24 3 -31 4v-46q42 6 70 5h118l-1 -528q-3 -12 -4 -43q30 3 60 5l555 -1q19 0 32 -4v47l-32 -4q-24 -1 -100 -2h-471v530h622q18 0 44 -3q3 0 16 -2v46zM548 642l-79 91q-21 -16 -39 -28q34 -27 85 -88q45 -54 75 -108q10 9 18 16
q9 6 22 17l-20 22z" />
  </g>

</svg>
