<?xml version="1.0" standalone="no"?>
<!DOCTYPE svg PUBLIC "-//W3C//DTD SVG 1.1//EN" "http://www.w3.org/Graphics/SVG/1.1/DTD/svg11.dtd" >
<svg xmlns="http://www.w3.org/2000/svg" xmlns:xlink="http://www.w3.org/1999/xlink" version="1.1" viewBox="-10 0 1010 1000">
   <path fill="currentColor"
d="M312 -4q117 8 121 20q1 3 -7 13q-23 30 -23 65v101h34q55 0 97 -8v83q-43 -8 -97 -8h-34v155q49 -9 127 -26l-6 84q-359 49 -461 89l-29 -101q30 3 111 -8v-264q1 -69 -8 -107q114 4 117 14q1 2 -4 7q-22 30 -22 78v262l91 -14v-319q0 -80 -7 -116zM563 6q109 5 114 16
q0 3 -6 12q-20 32 -20 68v144q149 -94 198 -146q79 70 93 101q-1 2 -13 2q-37 2 -68 16q-38 17 -135 64q-58 27 -75 35v75q-2 54 16 65q15 14 83 13q64 1 84 -22q20 -15 27 -91q41 38 95 51q-22 70 -35 93q-15 27 -51 35q-35 9 -132 9q-121 2 -142 -18q-28 -14 -25 -99v-335
q0 -52 -8 -88zM214 610q5 0 16 1q77 6 131 6h286q82 0 129 -7v87q-42 -8 -125 -8h-292q-69 0 -145 8v-87zM73 790q68 8 135 8h568q71 0 133 -8v91q-20 -5 -47 -6q-26 -2 -86 -2h-570q-68 0 -133 8v-91z" />
</svg>
