<?xml version="1.0" standalone="no"?>
<!DOCTYPE svg PUBLIC "-//W3C//DTD SVG 1.1//EN" "http://www.w3.org/Graphics/SVG/1.1/DTD/svg11.dtd" >
<svg xmlns="http://www.w3.org/2000/svg" xmlns:xlink="http://www.w3.org/1999/xlink" version="1.1" viewBox="-10 0 1010 1000">
   <path fill="currentColor"
d="M524 6q39 61 77 175l-93 24q-27 -99 -75 -167zM60 225q12 5 55 6q21 1 51 2h82h486q98 0 139 -2q47 -1 62 -6v89q-22 -10 -197 -10h-403v464h336q104 0 133 -1q40 -2 57 -7v92q-14 -5 -58 -7q-21 0 -52 -1h-84h-227q-174 0 -204 8q6 -20 8 -56q2 -33 2 -111v-379
q-151 -3 -186 8v-89z" />
</svg>
