<?xml version="1.0" standalone="no"?>
<!DOCTYPE svg PUBLIC "-//W3C//DTD SVG 1.1//EN" "http://www.w3.org/Graphics/SVG/1.1/DTD/svg11.dtd" >
<svg xmlns="http://www.w3.org/2000/svg" xmlns:xlink="http://www.w3.org/1999/xlink" version="1.1" viewBox="-10 0 1034 1024">
  <g transform="matrix(1 0 0 -1 0 820)">
   <path fill="currentColor"
d="M58 92q25 -7 52 -25q25 31 55 75q24 36 41 64q16 28 40 73q25 48 57 69q-31 15 -55 32q-12 -34 -30 -70q-18 -39 -48 -87q-31 -54 -54 -81q-21 -24 -58 -50zM944 559q-30 -1 -61 -5l-758 1q-24 3 -38 4v-46q39 4 61 5h264v-80q0 -70 -4 -129q-4 -54 -12 -100
q-22 -123 -104 -217q-58 -63 -115 -96q-21 -10 -53 -21q33 -21 52 -40q12 12 24 22q79 64 84 72q30 30 34 36q73 81 102 179q15 60 24 148q6 93 5 226h184v-566q0 -13 -3 -26q-1 -15 -18 -21q-24 -9 -62 -9q-16 0 -46 3q12 -19 22 -49q52 6 81 11q37 7 53 29q10 18 11 59
v569h212q18 0 44 -3q3 0 17 -2v46zM422 747q81 -75 129 -156q18 18 37 32l-131 157q-18 -18 -35 -33zM794 370q-21 -15 -43 -26q48 -57 89 -122l46 -81q16 -34 26 -65q21 15 46 28l-46 83l-34 54z" />
  </g>

</svg>
