<?xml version="1.0" standalone="no"?>
<!DOCTYPE svg PUBLIC "-//W3C//DTD SVG 1.1//EN" "http://www.w3.org/Graphics/SVG/1.1/DTD/svg11.dtd" >
<svg xmlns="http://www.w3.org/2000/svg" xmlns:xlink="http://www.w3.org/1999/xlink" version="1.1" viewBox="-10 0 1010 1000">
   <path fill="currentColor"
d="M524 14q27 94 39 121h187q126 -1 185 -8v96q-53 -10 -169 -10h-322q58 26 56 31q-1 2 -9 5q-30 13 -60 41q-10 10 -36 33q-46 40 -74 66l254 -24q36 -50 56 -95q80 37 91 52q-2 6 -13 12q-26 14 -46 41q-104 114 -205 183q-103 66 -281 127q-26 -39 -86 -75
q237 -28 429 -179q-133 3 -314 42l-27 -86q3 -3 12 -3q29 0 65 -26q83 -61 147 -145h-169q-116 1 -167 8v-92q46 8 165 8h246q-10 -19 -61 -103zM734 419q83 48 93 64q1 2 -6 5q-36 17 -73 56q-31 31 -131 121q79 37 284 147l-78 73q-45 -37 -191 -129q-51 -32 -74 -47
q-168 105 -411 172q-7 -10 -18 -26q-23 -39 -56 -59q458 -50 661 -377z" />
</svg>
