<?xml version="1.0" standalone="no"?>
<!DOCTYPE svg PUBLIC "-//W3C//DTD SVG 1.1//EN" "http://www.w3.org/Graphics/SVG/1.1/DTD/svg11.dtd" >
<svg xmlns="http://www.w3.org/2000/svg" xmlns:xlink="http://www.w3.org/1999/xlink" version="1.1" viewBox="-10 0 1010 1000">
   <path fill="currentColor"
d="M552 -13q16 49 29 89h211q57 0 133 -10v87q-63 -9 -129 -8h-562q-72 0 -145 10v-89q57 8 137 10h266q-7 -36 -40 -82zM218 191q43 6 78 6h406q35 0 82 -6q-6 35 -6 69v50q1 36 6 71q-54 -6 -82 -6h-400q-37 0 -84 6q6 -39 6 -77v-42q-1 -34 -6 -71zM304 254v64h394v-64
h-394zM73 421q62 7 98 8h668q24 0 88 -6q-6 23 -6 71q1 44 6 78h-96q11 -44 12 -80h-676q0 62 6 98h-102q9 -31 10 -90q0 -44 -8 -79zM738 520q54 69 60 78q-1 1 -19 0q-31 -1 -45 0q-95 6 -216 15v60l252 -16q64 -5 131 -18l4 90q-25 -3 -62 -3q-40 -1 -71 1l-254 10v31
q-1 44 11 55q10 14 48 13h117q61 1 77 -16q18 -15 25 -78q39 41 93 52q-28 81 -70 103q-23 13 -117 12h-158q-71 1 -88 -17q-20 -14 -18 -78v-76l-220 16q-74 6 -137 18l-8 -87q26 3 67 4q40 1 64 0l234 -12v-58q-36 3 -149 9q-43 2 -63 3q-5 -40 -34 -75q141 9 313 -2
q169 -12 233 -34z" />
</svg>
