<?xml version="1.0" standalone="no"?>
<!DOCTYPE svg PUBLIC "-//W3C//DTD SVG 1.1//EN" "http://www.w3.org/Graphics/SVG/1.1/DTD/svg11.dtd" >
<svg xmlns="http://www.w3.org/2000/svg" xmlns:xlink="http://www.w3.org/1999/xlink" version="1.1" viewBox="-10 0 1010 1000">
   <path fill="currentColor"
d="M540 -19q13 57 29 99h191q122 -3 157 -6v81q-18 -3 -56 -5q-18 0 -43 -1h-62h-532q-58 0 -89 1q-35 2 -60 5v-81q44 5 147 6h256q-12 -49 -38 -93zM599 157q94 8 97 16q0 4 -9 19q-13 22 -14 31q0 4 -1 10q-1 4 -1 5q43 -3 135 -13q-9 40 -11 81t4 79q17 91 48 102
q24 -8 30 -86q38 35 75 40q-31 123 -105 135q-123 -43 -125 -278q-14 1 -30 3t-31 3q-11 60 -32 113l93 64q-24 19 -47 49q-22 -21 -78 -61q-49 57 -109 101q-34 -34 -75 -48q84 -39 131 -91q-33 -22 -76 -40l46 -43q8 5 28 17q20 11 31 18q15 -42 18 -73q-101 12 -129 18
l-8 -76q75 0 147 -8q3 -49 -2 -87zM248 167q91 -1 89 6q1 2 -2 9q-10 26 -10 62h18q35 0 50 -1q19 -1 36 -5v70q-25 -5 -89 -4h-15v71q45 -9 110 -27q-10 29 -10 73q-57 3 -100 14v91q1 36 -21 49q-17 13 -98 27q-9 -42 -35 -78q55 6 67 -1q17 -6 16 -35v-39
q-134 33 -161 43q-3 -41 -20 -83q69 1 183 -20v-85h-24q-77 0 -119 6v-72q46 6 121 6h20q0 -41 -6 -77zM407 554q9 5 28 14q56 29 51 34q-1 5 -14 7q-18 4 -28 10q-3 2 -9 7q-25 18 -44 31v137q14 -7 72 -47q27 -19 41 -28q5 46 20 81q-68 30 -205 115q-14 -34 -45 -73
q50 -20 51 -56v-85q-77 61 -224 131q-16 -33 -61 -74q162 -28 367 -204zM589 566q3 1 7 23q4 20 7 24q3 6 7 16q9 21 19 38q44 -36 95 -97q69 33 80 47q-2 6 -14 10q-15 6 -30 14q-59 32 -99 64q109 73 301 81q-45 41 -75 95q-310 -58 -379 -307q8 -1 23 -3q57 -7 58 -5z
" />
</svg>
