<?xml version="1.0" standalone="no"?>
<!DOCTYPE svg PUBLIC "-//W3C//DTD SVG 1.1//EN" "http://www.w3.org/Graphics/SVG/1.1/DTD/svg11.dtd" >
<svg xmlns="http://www.w3.org/2000/svg" xmlns:xlink="http://www.w3.org/1999/xlink" version="1.1" viewBox="-10 0 1010 1000">
   <path fill="currentColor"
d="M518 -2q23 58 38 121h252q30 0 130 -9v89q-89 -9 -130 -8h-629q-38 0 -123 6v-85q51 6 121 7h285q-35 -100 -49 -111zM806 270q0 2 -1 11q-5 36 -5 77v93q0 65 6 101q-1 0 -8 -1q-45 -5 -96 -5h-156v258q2 84 -149 91q-6 -43 -42 -89q67 6 88 -3q24 -8 23 -41v-216h-174
q-43 0 -88 5q-11 1 -14 1q6 -42 6 -87v-105q0 -39 -5 -79q-1 -9 -1 -11q31 6 100 6h416q61 0 100 -6zM720 348h-444v127h444v-127zM282 600l18 9q68 32 65 38q0 4 -10 8q-20 8 -36 22q-110 103 -190 165l-73 -54q131 -72 226 -188zM704 608q113 71 219 156l-80 64
q-75 -84 -208 -173z" />
</svg>
