<?xml version="1.0" standalone="no"?>
<!DOCTYPE svg PUBLIC "-//W3C//DTD SVG 1.1//EN" "http://www.w3.org/Graphics/SVG/1.1/DTD/svg11.dtd" >
<svg xmlns="http://www.w3.org/2000/svg" xmlns:xlink="http://www.w3.org/1999/xlink" version="1.1" viewBox="-10 0 1034 1024">
  <g transform="matrix(1 0 0 -1 0 820)">
   <path fill="currentColor"
d="M597 135v-203q0 -52 39 -69q18 -6 36 -8q15 -1 72 -2q75 0 102 6q34 9 59 46q9 18 30 70q-27 12 -53 28q0 -31 -5 -56q-9 -37 -35 -47q-24 -9 -91 -9q-96 0 -108 20q-6 10 -7 36l1 184l4 46q-28 -1 -57 -5q-168 0 -193 2q-6 3 -39 3q3 -36 4 -69q0 -30 -7 -58
q-10 -46 -38 -76q-45 -49 -126 -75q-45 -13 -106 -16q24 -25 35 -51q52 16 85 29q25 9 45 19q105 48 138 139q6 21 9 42q3 24 7 74h199zM100 281q3 -48 4 -76q0 -45 -6 -62v-1h49q-4 15 -5 36v81h734l-3 -107q-1 -1 -2 -10h48l-4 30l1 94q0 16 3 34q-28 -1 -57 -5l-718 1
q-15 3 -46 4q0 -9 2 -19zM106 608q30 4 40 5l744 -1l33 -4v46q-24 -1 -50 -5l-729 1q-24 3 -38 4v-46zM275 356q48 3 65 4l383 -1q15 0 43 -4q-4 52 -5 105l5 91q-15 -1 -30 -3q-21 -3 -29 -3h-393q-7 0 -30 3q-9 0 -28 3q1 -31 5 -65q0 -66 -2 -93q-1 -1 -1 -6
q0 -12 -2 -32q9 1 19 1zM299 396v113h423v-113h-423zM438 734q63 -24 136 -83q12 24 23 40l-40 27q-51 33 -80 48l-15 10q-12 -22 -24 -42v0z" />
  </g>

</svg>
