<?xml version="1.0" standalone="no"?>
<!DOCTYPE svg PUBLIC "-//W3C//DTD SVG 1.1//EN" "http://www.w3.org/Graphics/SVG/1.1/DTD/svg11.dtd" >
<svg xmlns="http://www.w3.org/2000/svg" xmlns:xlink="http://www.w3.org/1999/xlink" version="1.1" viewBox="-10 0 1010 1000">
   <path fill="currentColor"
d="M544 -2q4 11 13 47q11 44 14 51h169q116 -1 169 -8v77q-78 -8 -167 -10h-490q-93 0 -153 6v-73q100 8 157 8h224q-7 -27 -32 -86zM319 260v86h371v-86h-371zM232 455h520q109 -1 145 -8q-4 44 -4 79v12q0 31 5 71q1 3 1 4h-97q6 -44 6 -99h-620q0 55 6 99h-91
q4 -44 4 -83v-18q0 -44 -6 -65q56 7 131 8zM238 201q30 7 74 8h378q28 0 82 -8q-2 30 -2 49v92q-3 30 8 63q-51 -12 -88 -8h-373q-55 0 -83 6q6 -19 6 -61v-100q0 -5 -1 -17q-1 -15 -1 -24zM329 584q31 3 80 4h176l74 -4q-9 56 -10 113q-1 61 6 77q10 13 60 16q54 2 69 -10
q26 -29 33 -103q33 38 90 54q-40 114 -70 123q-22 8 -89 10q-77 2 -125 -4q-48 -7 -48 -46v-169h-170q-10 159 -99 197q-63 30 -133 57q-21 -45 -58 -85q136 -14 177 -62q46 -46 37 -168z" />
</svg>
