<?xml version="1.0" standalone="no"?>
<!DOCTYPE svg PUBLIC "-//W3C//DTD SVG 1.1//EN" "http://www.w3.org/Graphics/SVG/1.1/DTD/svg11.dtd" >
<svg xmlns="http://www.w3.org/2000/svg" xmlns:xlink="http://www.w3.org/1999/xlink" version="1.1" viewBox="-10 0 1010 1000">
   <path fill="currentColor"
d="M274 8q97 33 113 52q0 3 -7 8q-47 35 -94 153v549q0 64 6 117h-94q7 -50 6 -119v-408q-6 9 -18 26q-54 80 -87 132q-19 -41 -53 -81q167 -180 228 -429zM865 113v78q-94 -17 -285 315l-30 48q-80 128 -78 171q3 28 51 35q45 9 183 4q87 -1 105 -24q23 -17 26 -103
q51 39 98 46q-27 147 -94 149q-43 7 -137 10q-106 4 -176 0q-218 -15 -99 -238q131 -235 269 -405h-178h-15q-62 -2 -114 8v-94q45 8 123 8h226q58 0 110 -6q12 -2 15 -2z" />
</svg>
