<?xml version="1.0" standalone="no"?>
<!DOCTYPE svg PUBLIC "-//W3C//DTD SVG 1.1//EN" "http://www.w3.org/Graphics/SVG/1.1/DTD/svg11.dtd" >
<svg xmlns="http://www.w3.org/2000/svg" xmlns:xlink="http://www.w3.org/1999/xlink" version="1.1" viewBox="-10 0 1034 1024">
  <g transform="matrix(1 0 0 -1 0 820)">
   <path fill="currentColor"
d="M235 -98l-4 -56q0 -1 -1 -4h49q-3 30 -5 60v633q15 27 18 30q16 30 32 61q36 66 46 79q10 15 32 31q-28 13 -58 33q-27 -72 -52 -121q-16 -30 -47 -81q-30 -49 -51 -80q-28 -40 -52 -70q-18 -24 -35 -43q-27 -27 -54 -40q30 -16 50 -31q21 24 47 57q15 18 34 45
q22 28 51 69v-572zM888 490l-14 -463q-1 -3 -2 -17q-3 -37 -17 -53q-28 -27 -108 -27q-13 0 -38 3q10 -27 17 -53q30 3 62 11q87 18 108 50q6 12 10 25q3 18 6 52l8 220l6 228q0 21 5 65q-28 -1 -58 -5h-238v183q0 27 14 63h-57q1 -30 5 -63v-183l-202 4q-1 0 -5 1v-46
q15 4 65 5h141q-3 -87 -13 -171q-9 -84 -23 -126q-39 -142 -144 -246q-51 -48 -99 -59q33 -19 53 -38q205 172 245 414q7 55 13 120q4 60 6 106h254z" />
  </g>

</svg>
