<?xml version="1.0" standalone="no"?>
<!DOCTYPE svg PUBLIC "-//W3C//DTD SVG 1.1//EN" "http://www.w3.org/Graphics/SVG/1.1/DTD/svg11.dtd" >
<svg xmlns="http://www.w3.org/2000/svg" xmlns:xlink="http://www.w3.org/1999/xlink" version="1.1" viewBox="-10 0 1010 1000">
   <path fill="currentColor"
d="M153 48q51 12 117 12h488q108 0 149 -10v93q-36 -6 -133 -6h-530q3 156 -2 261t-19 184q-25 150 -108 274q-59 -39 -87 -44q82 -88 108 -214q29 -125 25 -393q-1 -78 -8 -157zM514 179q111 6 119 14q0 2 -5 8q-22 26 -23 55q-14 408 333 524q-32 19 -79 82
q-223 -108 -296 -360q-62 223 -285 379q-70 -56 -97 -67q330 -142 335 -506v-4q2 -99 -2 -125z" />
</svg>
