<?xml version="1.0" standalone="no"?>
<!DOCTYPE svg PUBLIC "-//W3C//DTD SVG 1.1//EN" "http://www.w3.org/Graphics/SVG/1.1/DTD/svg11.dtd" >
<svg xmlns="http://www.w3.org/2000/svg" xmlns:xlink="http://www.w3.org/1999/xlink" version="1.1" viewBox="-10 0 1010 1000">
   <path fill="currentColor"
d="M258 -10q70 21 117 44q-2 2 -6 5q-20 13 -42 53q-45 83 -67 131v504q0 152 7 176q1 3 1 4h-99q12 -18 12 -178v-385q-47 77 -114 170q-18 -58 -45 -95q164 -163 236 -429zM962 100v89q-26 -6 -143 -6h-67v623q1 46 -33 63q-29 18 -138 30q-9 -61 -51 -113q90 11 114 4
q26 -5 25 -36v-571h-133q-159 -1 -169 10v-91q29 6 165 6h278q111 0 152 -8z" />
</svg>
