<?xml version="1.0" standalone="no"?>
<!DOCTYPE svg PUBLIC "-//W3C//DTD SVG 1.1//EN" "http://www.w3.org/Graphics/SVG/1.1/DTD/svg11.dtd" >
<svg xmlns="http://www.w3.org/2000/svg" xmlns:xlink="http://www.w3.org/1999/xlink" version="1.1" viewBox="-10 0 1034 1024">
  <g transform="matrix(1 0 0 -1 0 820)">
   <path fill="currentColor"
d="M135 392q12 18 79 108v-598q0 -45 -6 -69h50q-3 34 -5 69v667q57 124 61 126q19 36 44 54q-25 7 -63 26q-19 -64 -62 -151q-30 -63 -56 -103q-27 -43 -62 -88q-36 -45 -85 -79q37 -12 57 -27q9 18 22 31q12 18 26 34zM779 459l-22 -240l-21 -225q-3 -27 -3 -56
q1 -24 16 -41q10 -10 36 -17q21 -7 57 -8q24 0 50 4q33 6 53 34q9 18 22 63q4 15 9 33l-15 6q-15 6 -32 17q-1 -45 -8 -73q-9 -27 -25 -35q-16 -9 -54 -9q-25 0 -44 5q-24 9 -25 41l1 35q3 22 7 62l21 233l7 86q1 13 2 19q6 66 15 111q-31 -4 -57 -7l-198 -12l9 203
q1 31 21 58q-22 3 -53 10q-1 0 -17 5q6 -36 6 -59l-1 -105q-4 -109 -5 -112q-168 -6 -203 -6h-10v-46l64 6h10l136 7q-6 -132 -29 -225q-36 -139 -106 -236q-48 -72 -116 -105q31 -15 54 -32q33 33 51 54q13 15 29 36q46 64 87 151q55 127 73 360z" />
  </g>

</svg>
