<?xml version="1.0" standalone="no"?>
<!DOCTYPE svg PUBLIC "-//W3C//DTD SVG 1.1//EN" "http://www.w3.org/Graphics/SVG/1.1/DTD/svg11.dtd" >
<svg xmlns="http://www.w3.org/2000/svg" xmlns:xlink="http://www.w3.org/1999/xlink" version="1.1" viewBox="-10 0 1010 1000">
   <path fill="currentColor"
d="M452 -15q107 20 117 31q1 5 -8 9q-11 5 -13 11q130 259 428 302q-52 36 -81 95q-310 -135 -391 -349q-104 196 -383 389q-30 -48 -97 -76q322 -124 428 -412zM282 365q96 -4 113 6q0 5 -5 15q-15 31 -15 73v109q186 -83 286 -155q92 71 93 79q-1 1 -15 5q-45 10 -80 25
q-23 10 -67 30q-134 60 -217 89v123q-2 37 17 46q19 12 80 12h131q92 2 116 -23q30 -23 33 -106q50 47 103 51q-25 107 -65 131q-21 15 -56 21q-33 5 -103 5h-185q-104 1 -130 -21q-30 -17 -28 -92v-300q0 -87 -6 -123z" />
</svg>
