<?xml version="1.0" standalone="no"?>
<!DOCTYPE svg PUBLIC "-//W3C//DTD SVG 1.1//EN" "http://www.w3.org/Graphics/SVG/1.1/DTD/svg11.dtd" >
<svg xmlns="http://www.w3.org/2000/svg" xmlns:xlink="http://www.w3.org/1999/xlink" version="1.1" viewBox="-10 0 1010 1000">
   <path fill="currentColor"
d="M452 -13q13 3 41 9q70 14 67 20q0 7 -13 18q-6 7 -9 10q97 218 418 296q-49 42 -67 99q-301 -141 -401 -341q-107 184 -385 387q-24 -50 -73 -74q319 -158 422 -424zM518 266q34 94 45 157l-93 16q-3 -67 -39 -159zM159 479q41 13 125 13h397q13 0 56 -3q39 -3 63 -4
q-44 72 -96 159q-63 112 -182 275q-39 -42 -89 -56q109 -92 226 -299h-375q-88 -1 -125 10v-95z" />
</svg>
