<?xml version="1.0" standalone="no"?>
<!DOCTYPE svg PUBLIC "-//W3C//DTD SVG 1.1//EN" "http://www.w3.org/Graphics/SVG/1.1/DTD/svg11.dtd" >
<svg xmlns="http://www.w3.org/2000/svg" xmlns:xlink="http://www.w3.org/1999/xlink" version="1.1" viewBox="-10 0 1010 1000">
   <path fill="currentColor"
d="M458 -10q96 13 109 28q0 4 -8 10q-11 7 -15 14q146 231 414 288q-58 35 -87 93q-242 -127 -373 -321q-156 235 -363 359q-30 -44 -85 -68q286 -121 408 -403zM321 360q105 0 108 11q1 5 -8 17q-8 10 -8 15q-1 225 -44 311q-46 108 -177 193q-24 -36 -85 -67
q155 -69 193 -162q22 -48 26 -122q5 -70 -5 -196zM605 360q90 -2 109 7q0 3 -4 10q-14 26 -14 64v323q0 64 7 116q1 12 1 15h-101q0 -4 1 -14q5 -46 5 -119v-319q0 -46 -3 -76q-1 -5 -1 -7z" />
</svg>
