<?xml version="1.0" standalone="no"?>
<!DOCTYPE svg PUBLIC "-//W3C//DTD SVG 1.1//EN" "http://www.w3.org/Graphics/SVG/1.1/DTD/svg11.dtd" >
<svg xmlns="http://www.w3.org/2000/svg" xmlns:xlink="http://www.w3.org/1999/xlink" version="1.1" viewBox="-10 0 1034 1024">
  <g transform="matrix(1 0 0 -1 0 820)">
   <path fill="currentColor"
d="M549 639q24 -33 52 -66q46 -54 98 -98q40 -36 94 -70q60 -37 145 -84q22 28 46 46q-99 21 -209 99q-75 57 -124 112q-54 58 -124 162l14 14q-28 9 -54 27q-70 -184 -222 -315q-129 -109 -217 -131q24 -16 50 -40q73 45 119 79q39 30 81 67q55 52 105 113q48 63 101 147z
M790 232q-55 -3 -74 -4l-462 1q-18 1 -31 4v-46q25 4 67 5h449q-39 -64 -68 -107q-27 -39 -65 -80q-87 -96 -152 -145q13 -6 22 -11l24 -17l77 80q28 30 63 71q45 52 80 102l93 148q-12 0 -23 -1zM607 306q-28 39 -68 87l-72 82q-13 -15 -35 -30q73 -63 145 -173q1 1 3 4
q12 15 27 30v0z" />
  </g>

</svg>
