<?xml version="1.0" standalone="no"?>
<!DOCTYPE svg PUBLIC "-//W3C//DTD SVG 1.1//EN" "http://www.w3.org/Graphics/SVG/1.1/DTD/svg11.dtd" >
<svg xmlns="http://www.w3.org/2000/svg" xmlns:xlink="http://www.w3.org/1999/xlink" version="1.1" viewBox="-10 0 1010 1000">
   <path fill="currentColor"
d="M472 -13q109 20 113 31q0 9 -11 14q-10 5 -16 12q106 233 408 302q1 2 -7 8q-41 29 -72 91q-248 -115 -385 -339q-243 267 -393 355q-28 -46 -70 -70q-10 -5 -9 -8q274 -118 442 -396zM333 369h300q66 -1 107 -4q-20 229 -34 272q-32 66 -172 72q-18 -53 -44 -86
q-10 -10 -4 -13q103 15 121 0q33 -32 32 -165h-304v282q-2 58 19 69q18 15 102 14h181q100 2 121 -20q26 -14 38 -105q1 -1 4 3q24 24 89 52q-29 98 -61 122q-28 29 -110 27h-268q-132 1 -164 -20q-37 -17 -34 -91v-331q0 -68 -4 -82q30 3 85 4z" />
</svg>
