<?xml version="1.0" standalone="no"?>
<!DOCTYPE svg PUBLIC "-//W3C//DTD SVG 1.1//EN" "http://www.w3.org/Graphics/SVG/1.1/DTD/svg11.dtd" >
<svg xmlns="http://www.w3.org/2000/svg" xmlns:xlink="http://www.w3.org/1999/xlink" version="1.1" viewBox="-10 0 1034 1024">
  <g transform="matrix(1 0 0 -1 0 820)">
   <path fill="currentColor"
d="M211 -102q0 -39 -5 -65h48q-3 33 -5 65v616l35 73q39 84 54 105q13 24 35 39q-28 10 -63 30q-10 -39 -29 -83q-33 -78 -74 -154q-99 -165 -174 -220q37 -15 54 -25l124 170v-551zM298 335l69 20q34 10 71 19v-396q0 -55 21 -79t91 -32q67 -3 131 -5q78 0 146 8
q78 12 108 54q9 12 18 33l25 75q-24 9 -53 25q-3 -76 -17 -100q-21 -39 -93 -49q-57 -7 -135 -8q-39 0 -95 4q-64 4 -84 16q-24 12 -25 63v399l159 38v-322q0 -19 -3 -46l-2 -17h48q-4 49 -5 63v331l174 41l-7 -253q-1 -13 -2 -27q-1 -21 -16 -30q-19 -9 -45 -10q-3 0 -42 4
q15 -24 24 -51q54 10 76 18q39 18 43 61l13 342q-33 -12 -46 -15l-172 -43v221q0 6 2 26q1 24 11 48h-56q4 -45 5 -74v-229l-159 -38v183q0 30 13 67h-56q1 -33 5 -67v-191q-37 -7 -75 -17q-24 -3 -53 -8q-3 0 -22 -1q4 -25 10 -51v0z" />
  </g>

</svg>
