<?xml version="1.0" standalone="no"?>
<!DOCTYPE svg PUBLIC "-//W3C//DTD SVG 1.1//EN" "http://www.w3.org/Graphics/SVG/1.1/DTD/svg11.dtd" >
<svg xmlns="http://www.w3.org/2000/svg" xmlns:xlink="http://www.w3.org/1999/xlink" version="1.1" viewBox="-10 0 1010 1000">
   <path fill="currentColor"
d="M254 -10q112 38 109 44q0 4 -10 11q-21 14 -30 33q-8 15 -24 48q-35 69 -43 83v496q1 148 8 194h-99q12 -50 12 -200v-355q-49 81 -88 125q-27 -45 -57 -70q136 -129 222 -409zM633 8q113 0 113 10q0 4 -5 7q-16 10 -17 53q-3 33 -4 135h97q54 0 118 -8v89q-4 0 -17 -2
q-59 -8 -106 -8h-92q-10 256 -65 367q104 90 295 117q-48 58 -55 107q-176 -65 -288 -160q-66 92 -242 182q-26 -47 -75 -79q167 -45 262 -159q-51 -65 -120 -201q-36 -70 -49 -87q48 -10 97 -27q21 109 117 254q46 -121 44 -314h-141q-57 0 -138 6q-31 2 -39 2v-87
q4 0 13 1q110 7 154 7h153q0 -128 -10 -205z" />
</svg>
