<?xml version="1.0" standalone="no"?>
<!DOCTYPE svg PUBLIC "-//W3C//DTD SVG 1.1//EN" "http://www.w3.org/Graphics/SVG/1.1/DTD/svg11.dtd" >
<svg xmlns="http://www.w3.org/2000/svg" xmlns:xlink="http://www.w3.org/1999/xlink" version="1.1" viewBox="-10 0 1034 1024">
  <g transform="matrix(1 0 0 -1 0 820)">
   <path fill="currentColor"
d="M51 319q18 -6 34 -18q63 81 72 92q7 15 53 78v-555q0 -45 -7 -69h51q-6 25 -6 69v630q21 46 55 114q6 15 19 34q18 33 42 51q-36 9 -69 25q-21 -72 -54 -146q-63 -132 -114 -200q-45 -60 -101 -95q12 -4 25 -10zM660 334q-300 0 -322 3q-4 1 -14 2v-47q21 6 72 6h264
v-348q0 -48 -32 -56q-18 -3 -49 -4q-21 0 -58 9q13 -30 18 -52q39 1 56 4q10 0 16 1q49 6 65 18q21 21 22 71v357h208q21 0 51 -2q9 0 16 -4v47q-24 -4 -67 -5h-208v122q63 57 114 109q48 51 96 112q-33 -1 -66 -5l-412 1q-19 1 -34 4v-46q-3 0 9 1l64 4h355
q-40 -46 -86 -91t-84 -70q6 -60 6 -82v-59z" />
  </g>

</svg>
