<?xml version="1.0" standalone="no"?>
<!DOCTYPE svg PUBLIC "-//W3C//DTD SVG 1.1//EN" "http://www.w3.org/Graphics/SVG/1.1/DTD/svg11.dtd" >
<svg xmlns="http://www.w3.org/2000/svg" xmlns:xlink="http://www.w3.org/1999/xlink" version="1.1" viewBox="-10 0 1010 1000">
   <path fill="currentColor"
d="M464 -23q100 21 105 33q0 5 -10 11q-14 7 -19 15q146 231 436 280q-46 45 -71 97q-287 -114 -405 -329q-110 181 -391 359q-22 -32 -73 -78q298 -112 428 -388zM518 242q28 59 53 149l-91 20q-13 -75 -51 -155zM163 459q26 8 135 8h379q83 0 146 -8q-127 174 -256 315
q5 3 16 9q80 45 111 59l-75 77q-126 -109 -345 -218l57 -64q65 41 134 79q20 11 31 17q58 -57 157 -182q6 -8 10 -13h-365q-57 0 -135 8v-87z" />
</svg>
