<?xml version="1.0" standalone="no"?>
<!DOCTYPE svg PUBLIC "-//W3C//DTD SVG 1.1//EN" "http://www.w3.org/Graphics/SVG/1.1/DTD/svg11.dtd" >
<svg xmlns="http://www.w3.org/2000/svg" xmlns:xlink="http://www.w3.org/1999/xlink" version="1.1" viewBox="-10 0 1010 1000">
   <path fill="currentColor"
d="M228 -2q104 39 97 46q-1 2 -9 11q-15 18 -20 29q-12 23 -64 131v464q0 134 8 196h-99q12 -33 12 -196v-314q-47 84 -82 137q-35 -60 -59 -79q148 -155 216 -425zM520 24q6 7 17 21q46 56 38 57q-4 3 -15 3q-45 2 -127 24v510q15 -13 61 -64q32 -36 52 -57q9 40 35 76
q-126 119 -204 206q-19 -39 -48 -71q15 -14 19 -40q5 -23 5 -83v-459q-1 -55 -6 -73q79 6 173 -50zM808 58q76 -1 103 -4q-8 33 -8 109v464q2 80 -22 96q-18 20 -127 31q0 -48 -30 -99q110 31 99 -49v-473h-138v548q1 153 9 218h-97q5 -31 6 -72q2 -41 2 -146v-496
q0 -57 -2 -83q-1 -26 -6 -48q39 4 115 4h96z" />
</svg>
