<?xml version="1.0" standalone="no"?>
<!DOCTYPE svg PUBLIC "-//W3C//DTD SVG 1.1//EN" "http://www.w3.org/Graphics/SVG/1.1/DTD/svg11.dtd" >
<svg xmlns="http://www.w3.org/2000/svg" xmlns:xlink="http://www.w3.org/1999/xlink" version="1.1" viewBox="-10 0 1034 1024">
  <g transform="matrix(1 0 0 -1 0 820)">
   <path fill="currentColor"
d="M234 -92q0 -45 -5 -69h48q-4 28 -5 69v637l33 57q45 81 51 93q1 3 4 6q18 28 32 36q3 3 9 6q-30 10 -60 29l-35 -82q-12 -28 -30 -60q-72 -135 -145 -221q-27 -30 -48 -49q-22 -18 -46 -33q31 -12 54 -28q51 60 83 101q25 33 60 80v-572zM315 349q30 -9 55 -29
q64 66 121 131q54 66 113 150q57 85 74 106q12 18 37 32q-39 15 -62 27q-25 -58 -74 -138q-39 -55 -81 -109q-48 -60 -80 -91q-25 -25 -51 -46q-21 -15 -52 -33zM426 -38q97 115 179 224q78 115 172 270q21 36 55 49q-36 16 -62 36q-21 -51 -56 -114q-36 -64 -90 -149
q-93 -141 -206 -270q-45 -48 -80 -55q9 -15 17 -35q-1 0 0 -2q3 -6 5 -12l92 20l221 29l217 28q16 -36 27 -60q9 -19 18 -49q13 10 46 23l-16 31q-79 162 -153 297q-19 -12 -42 -23q27 -39 48 -74l57 -111l-119 -17z" />
  </g>

</svg>
