<?xml version="1.0" standalone="no"?>
<!DOCTYPE svg PUBLIC "-//W3C//DTD SVG 1.1//EN" "http://www.w3.org/Graphics/SVG/1.1/DTD/svg11.dtd" >
<svg xmlns="http://www.w3.org/2000/svg" xmlns:xlink="http://www.w3.org/1999/xlink" version="1.1" viewBox="-10 0 1010 1000">
   <path fill="currentColor"
d="M641 12q106 11 107 16q0 7 -7 15q-13 17 -13 45v297q59 -44 141 -147l36 36q38 36 33 40q0 2 -6 3q-25 4 -51 27q-4 3 -11 9q-81 70 -142 112v291q-1 26 10 31q7 6 50 5q41 1 53 -21q14 -22 14 -88q38 45 83 61q-10 73 -32 100q-21 28 -71 27h-105q-83 1 -83 -89v-647
q0 -93 -4 -106q-1 -8 -2 -17zM260 2q20 6 54 15q59 16 57 21q1 5 -8 11q-21 15 -34 43q-13 29 -36 84q-16 38 -23 53v486q0 167 8 182h-91q7 -47 7 -178v-367q-1 0 -21 36q-63 111 -82 134q-20 -55 -51 -83q164 -169 220 -437zM391 36q12 1 36 2q73 3 73 12q1 3 -4 9
q-18 22 -18 54v219q108 0 133 -8v85q-48 -6 -133 -6v353q2 -2 7 -5q67 -53 108 -98q4 39 20 93q-151 104 -196 153q-19 -37 -56 -69l4 -4q32 -28 32 -76v-575q0 -37 -6 -139z" />
</svg>
