<?xml version="1.0" standalone="no"?>
<!DOCTYPE svg PUBLIC "-//W3C//DTD SVG 1.1//EN" "http://www.w3.org/Graphics/SVG/1.1/DTD/svg11.dtd" >
<svg xmlns="http://www.w3.org/2000/svg" xmlns:xlink="http://www.w3.org/1999/xlink" version="1.1" viewBox="-10 0 1034 1024">
  <g transform="matrix(1 0 0 -1 0 820)">
   <path fill="currentColor"
d="M454 440v221q0 27 14 63h-57q0 -1 1 -3q0 1 2 -11q0 -22 2 -49v-699q0 -21 -5 -36q-6 -15 -21 -27q19 -30 26 -42q46 37 103 72q33 19 65 41q15 10 43 26q-3 21 -8 46q-48 -34 -80 -55l-85 -55v472q120 0 137 -2q6 0 19 -4v47q-15 -3 -22 -4zM714 673q0 27 14 63h-57
q1 -30 5 -63l1 -726q3 -25 16 -39q18 -16 81 -17q66 0 109 5q61 9 82 89q4 15 9 33q-3 1 -26 11q-16 6 -29 15q3 -24 3 -45q0 -24 -9 -42q-10 -18 -44 -24q-30 -3 -77 -4q-57 0 -69 12q-9 9 -9 40v401q55 25 90 46q70 39 76 39q27 9 48 13q-15 22 -33 54q-33 -27 -80 -56
l-61 -35q-18 -10 -40 -19v249zM214 -89l-4 -56q0 -1 -1 -4h49q-3 30 -5 60v630l61 124q15 30 26 43q12 16 27 28q-28 12 -60 28q-12 -42 -57 -140q-72 -135 -123 -206q-48 -60 -88 -80q31 -13 60 -31q19 24 45 61q30 42 70 103v-560z" />
  </g>

</svg>
