<?xml version="1.0" standalone="no"?>
<!DOCTYPE svg PUBLIC "-//W3C//DTD SVG 1.1//EN" "http://www.w3.org/Graphics/SVG/1.1/DTD/svg11.dtd" >
<svg xmlns="http://www.w3.org/2000/svg" xmlns:xlink="http://www.w3.org/1999/xlink" version="1.1" viewBox="-10 0 1034 1024">
  <g transform="matrix(1 0 0 -1 0 820)">
   <path fill="currentColor"
d="M223 -90q0 -42 -5 -69h48l-4 41l-1 688l58 116q18 33 41 48q-27 9 -62 26q-6 -22 -17 -52q-10 -28 -31 -72q-45 -96 -104 -177q-39 -54 -64 -81q-25 -24 -61 -46q39 -13 58 -28q64 75 144 205v-599zM274 367q34 -15 55 -33q85 60 160 144q76 88 137 204q72 -138 191 -226
q15 -10 99 -63l30 -17q19 27 49 49q-135 15 -259 156q-22 27 -38 51l-53 91q6 7 14 16q3 3 8 10q-18 3 -39 10q-10 3 -23 8q-10 -61 -51 -135q-69 -118 -165 -199q-36 -30 -59 -43q-21 -12 -56 -23zM522 362q-21 3 -24 5q3 -25 4 -58q0 -96 -5 -162q-1 -4 -1 -11
q-3 -30 -12 -72q-21 -81 -93 -149q-36 -30 -84 -46q31 -12 55 -32q93 69 136 147q37 75 41 223q3 45 5 104q1 30 19 46q-12 1 -19 2zM757 371l2 -11l4 -56l-1 -431q-3 -18 -5 -32h50q-6 25 -6 69v394q0 30 14 67h-58z" />
  </g>

</svg>
