<?xml version="1.0" standalone="no"?>
<!DOCTYPE svg PUBLIC "-//W3C//DTD SVG 1.1//EN" "http://www.w3.org/Graphics/SVG/1.1/DTD/svg11.dtd" >
<svg xmlns="http://www.w3.org/2000/svg" xmlns:xlink="http://www.w3.org/1999/xlink" version="1.1" viewBox="-10 0 1034 1024">
  <g transform="matrix(1 0 0 -1 0 820)">
   <path fill="currentColor"
d="M638 575v-284l-313 2q-6 3 -12 3v-47q1 1 37 5l288 1l-1 -370q-3 -21 -4 -35h48q-3 16 -5 34v371l269 -1q13 -1 28 -5v47q-6 -1 -12 -3q-24 -1 -50 -2h-235v284l207 -1q18 0 40 -6v48q-7 -3 -23 -4q-18 -1 -39 -2h-383q30 72 34 76q10 24 32 46q-36 10 -62 23
q-10 -52 -40 -125q-33 -78 -68 -136q-57 -90 -90 -108q33 -9 60 -24l69 117l51 96h174zM104 341q18 27 38 52q4 4 14 20q28 40 55 82l-1 -617q-1 -9 -2 -22q0 -4 -2 -9h48q-3 30 -5 60v653q66 141 70 144q3 6 9 15t26 28q-31 12 -60 28q-3 -6 -4 -13l-19 -58
q-12 -30 -32 -69q-28 -58 -55 -104q-25 -42 -60 -92q-27 -39 -48 -60q-21 -18 -43 -32q39 -15 58 -25q6 10 13 19v0z" />
  </g>

</svg>
