<?xml version="1.0" standalone="no"?>
<!DOCTYPE svg PUBLIC "-//W3C//DTD SVG 1.1//EN" "http://www.w3.org/Graphics/SVG/1.1/DTD/svg11.dtd" >
<svg xmlns="http://www.w3.org/2000/svg" xmlns:xlink="http://www.w3.org/1999/xlink" version="1.1" viewBox="-10 0 1010 1000">
   <path fill="currentColor"
d="M464 0q95 17 111 30q1 6 -10 15q-10 8 -13 13q101 206 414 290q-40 36 -69 99q-257 -121 -391 -324q-145 204 -387 350q-37 -44 -83 -66q324 -137 428 -407zM478 292q94 1 101 10q0 2 -3 9q-14 29 -14 66v129h97q120 0 154 -8v84q-19 -7 -115 -6h-37h-99v218h132
q159 0 197 -12v95q-15 -6 -59 -8q-41 -2 -136 -2h-446q-136 0 -173 8v-91q22 8 173 8v-294q0 -6 -1 -22q-1 -37 -1 -65q89 2 103 12q0 2 -4 10q-16 27 -16 55v306h149v-432z" />
</svg>
