<?xml version="1.0" standalone="no"?>
<!DOCTYPE svg PUBLIC "-//W3C//DTD SVG 1.1//EN" "http://www.w3.org/Graphics/SVG/1.1/DTD/svg11.dtd" >
<svg xmlns="http://www.w3.org/2000/svg" xmlns:xlink="http://www.w3.org/1999/xlink" version="1.1" viewBox="-10 0 1010 1000">
   <path fill="currentColor"
d="M556 -12q98 0 119 12q0 3 -5 9q-14 19 -15 43q-3 51 -6 124q-2 63 -4 84h139q83 0 114 -2q37 -2 54 -8v98q-28 -10 -160 -10h-147q24 341 313 434q-47 48 -73 101q-214 -98 -278 -375q-57 261 -252 389q-4 -3 -10 -9q-46 -40 -75 -56q247 -107 284 -482h-44
q-149 1 -191 8v-94q11 5 55 6q22 1 53 2h79h56q6 -113 4 -174q-1 -65 -10 -100zM234 -10q106 23 117 40q0 5 -11 14q-15 13 -21 24q-31 69 -59 139v520q0 96 2 130q1 33 6 50h-97q8 -32 8 -180v-379q-19 37 -74 122q-9 14 -14 22q-25 -44 -63 -69q150 -156 206 -433zM786 36
q58 83 85 141l-77 38q-29 -74 -84 -141z" />
</svg>
