<?xml version="1.0" standalone="no"?>
<!DOCTYPE svg PUBLIC "-//W3C//DTD SVG 1.1//EN" "http://www.w3.org/Graphics/SVG/1.1/DTD/svg11.dtd" >
<svg xmlns="http://www.w3.org/2000/svg" xmlns:xlink="http://www.w3.org/1999/xlink" version="1.1" viewBox="-10 0 1010 1000">
   <path fill="currentColor"
d="M268 -8q96 30 117 40q0 5 -9 10q-22 11 -33 38q-39 97 -69 155v498q0 114 8 170h-101q11 -44 13 -168v-362q-41 90 -99 167q-19 -45 -65 -79q160 -140 238 -469zM573 0q12 0 37 1q84 2 80 7q0 3 -3 8q-20 31 -20 139h93q125 -2 171 -10v88q-27 -6 -167 -6h-97v133h81
q83 -1 125 -8q-68 220 -190 355q98 63 267 91q-34 40 -53 95q-173 -60 -272 -135q-93 66 -272 143q-26 -49 -65 -85q144 -30 283 -111q-52 -57 -129 -201q67 -28 90 -35q28 105 95 190q82 -93 125 -228h-220q-99 0 -157 8v-85q33 6 147 6h65v-133h-97q-109 1 -145 10v-92
q70 10 137 10h105q-3 -118 -14 -155z" />
</svg>
