<?xml version="1.0" standalone="no"?>
<!DOCTYPE svg PUBLIC "-//W3C//DTD SVG 1.1//EN" "http://www.w3.org/Graphics/SVG/1.1/DTD/svg11.dtd" >
<svg xmlns="http://www.w3.org/2000/svg" xmlns:xlink="http://www.w3.org/1999/xlink" version="1.1" viewBox="-10 0 1034 1024">
  <g transform="matrix(1 0 0 -1 0 820)">
   <path fill="currentColor"
d="M518 364h205v-406q0 -45 26 -62q21 -15 81 -16q46 0 68 6q31 6 47 33q12 24 34 110q-30 6 -54 16q3 -21 3 -35q0 -55 -22 -77q-19 -15 -61 -16q-25 0 -44 3q-22 1 -33 13q-6 9 -7 46l1 373l4 53q-30 -1 -59 -5l-190 1q-3 0 -43 4q3 -33 5 -57l1 -32l-2 -71q0 -45 -4 -80
q-6 -99 -47 -162q-42 -63 -101 -104q-25 -15 -53 -24q33 -22 48 -41q123 108 159 183q33 75 37 245zM333 520q15 4 64 5h469q46 0 62 -5v46q-15 -3 -22 -4l-570 3q-1 1 -3 1v-46zM506 743q93 -78 151 -150q12 18 33 37q-54 48 -118 112q-18 16 -34 33q-18 -19 -32 -32z
M160 427q18 24 45 63l-1 -621q-3 -27 -4 -31q0 -3 -1 -5h50q0 6 -2 10l-4 51v657q76 130 86 141q4 9 21 24q6 7 17 15q-27 10 -61 28q-34 -90 -116 -217q-54 -81 -91 -130q-31 -36 -61 -52l22 -11q12 -7 29 -18z" />
  </g>

</svg>
