<?xml version="1.0" standalone="no"?>
<!DOCTYPE svg PUBLIC "-//W3C//DTD SVG 1.1//EN" "http://www.w3.org/Graphics/SVG/1.1/DTD/svg11.dtd" >
<svg xmlns="http://www.w3.org/2000/svg" xmlns:xlink="http://www.w3.org/1999/xlink" version="1.1" viewBox="-10 0 1034 1024">
  <g transform="matrix(1 0 0 -1 0 820)">
   <path fill="currentColor"
d="M862 483q18 0 52 -3q9 0 16 -3v47q-27 -4 -68 -5h-225v184q0 6 2 24q1 21 12 42h-58l6 -66v-184l-242 1l-43 4v-47q21 6 73 6h203q-28 -64 -53 -110q-24 -43 -56 -96q-33 -51 -71 -103q-36 -51 -67 -84q-25 -28 -47 -48q-19 -15 -44 -30q24 -9 50 -30q49 55 85 98
q30 36 57 75q43 61 73 109l33 56l48 87v-496q0 -45 -5 -72h49q-4 45 -5 56v527l52 -101q21 -39 46 -78l63 -88q25 -34 55 -65l86 -88q18 15 50 36q-36 21 -62 42q-21 16 -49 44q-78 82 -137 184q-25 42 -47 82l-42 93h210zM209 -92q0 -42 -6 -69h49q-4 24 -5 69v658l56 102
q18 36 30 48q7 9 33 21q-39 18 -67 34q-30 -84 -84 -183q-54 -100 -111 -168q-48 -57 -85 -77q33 -15 54 -32q42 54 73 97q28 39 63 91v-591z" />
  </g>

</svg>
