<?xml version="1.0" standalone="no"?>
<!DOCTYPE svg PUBLIC "-//W3C//DTD SVG 1.1//EN" "http://www.w3.org/Graphics/SVG/1.1/DTD/svg11.dtd" >
<svg xmlns="http://www.w3.org/2000/svg" xmlns:xlink="http://www.w3.org/1999/xlink" version="1.1" viewBox="-10 0 1010 1000">
   <path fill="currentColor"
d="M266 -12q89 41 87 56q-1 5 -12 14q-16 14 -24 28q-1 3 -4 8q-29 57 -53 111v502q70 -55 129 -147q74 -117 113 -258h-62q-50 1 -138 6v-75q58 3 142 4h125v-127q0 -75 -7 -112q109 -2 103 14q-1 6 -6 16q-12 20 -12 44v165h129q94 -1 149 -6v77q-50 -5 -147 -6h-72
q12 100 74 194q76 120 184 179q-52 43 -71 68q-5 6 -8 9q-112 -113 -165 -218q-44 -92 -64 -191l-9 -39v411q1 91 8 190h-92q6 -120 6 -188v-409q-88 274 -236 454q-29 -28 -73 -37q0 110 6 180h-83q5 -101 5 -196v-383q-51 102 -97 176q-23 -44 -61 -63q160 -212 236 -451z
" />
</svg>
