<?xml version="1.0" standalone="no"?>
<!DOCTYPE svg PUBLIC "-//W3C//DTD SVG 1.1//EN" "http://www.w3.org/Graphics/SVG/1.1/DTD/svg11.dtd" >
<svg xmlns="http://www.w3.org/2000/svg" xmlns:xlink="http://www.w3.org/1999/xlink" version="1.1" viewBox="-10 0 1010 1000">
   <path fill="currentColor"
d="M254 -10q5 2 15 5q94 34 90 41q0 4 -9 11q-21 14 -29 35q-13 35 -46 100q-11 22 -15 31v502q-1 188 10 180h-101q8 -53 8 -182v-359q-41 63 -96 134q-25 -41 -55 -71q175 -181 228 -427zM381 74q38 8 167 8h230q119 0 143 -6v85q-12 -9 -143 -6v222q164 1 174 -10v88
q-12 -8 -174 -8v353q2 55 -33 75q-36 23 -138 32q-1 -49 -36 -97q77 3 100 -6q25 -7 23 -38v-317h-19q-74 243 -318 420q-26 -32 -85 -61q245 -125 321 -357q-154 -4 -209 15q-2 1 -3 1q-16 -47 -32 -84q77 -30 95 -192q12 4 33 12q61 22 57 24q0 2 -5 6q-18 14 -29 39
q-11 24 -26 59q-14 32 -20 46h240v-224h-146q-143 -1 -167 8v-87z" />
</svg>
