<?xml version="1.0" standalone="no"?>
<!DOCTYPE svg PUBLIC "-//W3C//DTD SVG 1.1//EN" "http://www.w3.org/Graphics/SVG/1.1/DTD/svg11.dtd" >
<svg xmlns="http://www.w3.org/2000/svg" xmlns:xlink="http://www.w3.org/1999/xlink" version="1.1" viewBox="-10 0 1034 1024">
  <g transform="matrix(1 0 0 -1 0 820)">
   <path fill="currentColor"
d="M37 395l24 -17q13 -12 29 -27q63 36 103 63q34 24 71 52q129 106 217 219q30 -36 62 -63q79 -72 132 -108q57 -36 110 -66l163 -78q18 31 42 57q-39 1 -76 13q-75 24 -147 65q-150 84 -262 212l32 24q-4 0 -58 21q-27 -48 -55 -84q-66 -88 -181 -178q-114 -88 -206 -105z
M919 211q-24 -4 -67 -5l-726 1q-12 1 -30 4v-46q54 4 105 5h239q-30 -48 -87 -114q-30 -33 -63 -68q-30 -30 -47 -46q-27 -25 -43 -37q-12 -7 -28 -12q3 -4 7 -15q7 -18 10 -33q24 7 73 15l100 13l216 22l187 16q30 -27 67 -74q15 21 37 37l-25 22q-111 103 -216 193
q-18 -21 -33 -33q66 -42 147 -116q-12 0 -23 -2l-43 -3l-169 -13l-251 -20q21 22 43 44q27 31 71 75q15 13 28 30q54 60 72 75q15 12 40 19q-24 18 -31 25h373q42 0 67 -5v46zM267 363q33 3 69 5l385 -1q16 0 31 -4v46q-24 -4 -67 -5l-386 1q-12 1 -32 4v-46z" />
  </g>

</svg>
