<?xml version="1.0" standalone="no"?>
<!DOCTYPE svg PUBLIC "-//W3C//DTD SVG 1.1//EN" "http://www.w3.org/Graphics/SVG/1.1/DTD/svg11.dtd" >
<svg xmlns="http://www.w3.org/2000/svg" xmlns:xlink="http://www.w3.org/1999/xlink" version="1.1" viewBox="-10 0 1034 1024">
  <g transform="matrix(1 0 0 -1 0 820)">
   <path fill="currentColor"
d="M227 -101q0 -21 -5 -61h48q-4 27 -5 61v649q21 43 70 132l13 26q10 18 36 29q-36 15 -64 31q-21 -90 -120 -256q-58 -93 -88 -127t-74 -57q27 -7 58 -26q36 45 64 84q30 40 67 100v-585zM621 416h-160q-30 0 -62 5v-46q30 4 62 5h160v-141h-234q-31 0 -62 5v-46
q30 4 62 5h234l-1 -335q-3 -12 -3 -23q-1 -3 -1 -7h48q-4 27 -5 61v304h245q-3 -72 -6 -92v-10q-4 -66 -20 -86q-21 -24 -79 -25h-15q-21 0 -50 8q0 -3 9 -22q3 -15 6 -32q48 1 80 5q27 4 44 11q33 10 48 51q13 40 17 131q1 28 3 66q3 15 6 36q-45 -4 -57 -5h-231v141h184
q36 0 61 -5v46q-24 -4 -61 -5h-184v137h253q31 0 59 -5v46q-21 -4 -59 -5h-253v102q0 9 2 25q1 19 11 41h-56q1 -33 5 -66v-102h-216q-37 0 -60 5v-46q4 3 47 5h229v-137z" />
  </g>

</svg>
