<?xml version="1.0" standalone="no"?>
<!DOCTYPE svg PUBLIC "-//W3C//DTD SVG 1.1//EN" "http://www.w3.org/Graphics/SVG/1.1/DTD/svg11.dtd" >
<svg xmlns="http://www.w3.org/2000/svg" xmlns:xlink="http://www.w3.org/1999/xlink" version="1.1" viewBox="-10 0 1034 1024">
  <g transform="matrix(1 0 0 -1 0 820)">
   <path fill="currentColor"
d="M545 746q-31 9 -53 20q-42 -78 -130 -166q-90 -85 -181 -137q-72 -39 -138 -50q40 -28 56 -45q54 28 96 55q39 24 78 52q63 46 114 95q52 52 112 126q42 -49 91 -98q63 -54 105 -87q40 -30 83 -56q120 -66 152 -82q9 12 19 22q7 7 33 26q-55 7 -116 34q-96 40 -187 116
q-102 85 -153 157q9 9 19 18zM495 85h-348q-31 0 -53 3q1 0 -16 2v-46q33 3 69 5h348v-148q0 -39 -6 -67h49q-4 30 -5 67v148h335q42 0 66 -5v46q-24 -4 -66 -5h-335v362q0 9 2 26q1 18 12 44h-58q0 -4 1 -9q4 -24 5 -61v-362zM222 363q-9 -6 -11 -7q81 -72 161 -201
q18 25 32 35q-27 39 -66 87l-91 111q-7 -4 -13 -12q-6 -6 -12 -13zM654 187l99 118q28 36 67 54q-31 19 -53 37q-36 -54 -84 -113q-48 -57 -90 -100q27 -13 35 -20l4 -4q10 15 22 28v0z" />
  </g>

</svg>
