<?xml version="1.0" standalone="no"?>
<!DOCTYPE svg PUBLIC "-//W3C//DTD SVG 1.1//EN" "http://www.w3.org/Graphics/SVG/1.1/DTD/svg11.dtd" >
<svg xmlns="http://www.w3.org/2000/svg" xmlns:xlink="http://www.w3.org/1999/xlink" version="1.1" viewBox="-10 0 1010 1000">
   <path fill="currentColor"
d="M452 -17q109 26 111 35q0 4 -11 6q-14 4 -20 10q109 197 422 256q-43 29 -77 95q-261 -102 -391 -289q-139 192 -373 329q-22 -31 -54 -51q-16 -11 -27 -18q302 -121 420 -373zM438 221q93 -2 118 8q1 3 -4 10q-20 39 -20 101v289h224q101 0 155 -6v88q-45 -6 -151 -6
h-228q-3 147 6 206h-101q5 -74 5 -204h-218q-82 -1 -157 8v-96q54 12 149 12h228v-309q0 -72 -6 -101zM270 373q8 14 22 40q58 102 77 143l-83 36q-37 -105 -92 -181zM710 379q87 28 90 44q0 1 -5 6q-53 48 -108 165q-29 -19 -74 -38q70 -96 97 -177z" />
</svg>
