<?xml version="1.0" standalone="no"?>
<!DOCTYPE svg PUBLIC "-//W3C//DTD SVG 1.1//EN" "http://www.w3.org/Graphics/SVG/1.1/DTD/svg11.dtd" >
<svg xmlns="http://www.w3.org/2000/svg" xmlns:xlink="http://www.w3.org/1999/xlink" version="1.1" viewBox="-10 0 1010 1000">
   <path fill="currentColor"
d="M268 -4q5 2 14 4q104 33 99 44q0 3 -7 8q-23 15 -41 50q-45 89 -67 133v456q-1 203 10 208h-103q10 -15 10 -200v-347q-16 27 -75 111q-33 45 -39 55q-1 -2 -2 -6q-12 -51 -39 -91q167 -157 240 -425zM659 4q26 55 43 139l-93 20q-10 -92 -40 -147zM375 179q46 8 179 8
h178q154 0 181 -8q-11 11 -8 155q-1 113 10 125h-100q6 -24 6 -125v-72h-353v76q0 118 8 129h-99q8 -29 8 -135q0 -141 -10 -153zM351 701q15 10 189 10h242q155 -1 170 -10v95q-13 -11 -164 -10h-244q-178 0 -193 10v-95z" />
</svg>
