<?xml version="1.0" standalone="no"?>
<!DOCTYPE svg PUBLIC "-//W3C//DTD SVG 1.1//EN" "http://www.w3.org/Graphics/SVG/1.1/DTD/svg11.dtd" >
<svg xmlns="http://www.w3.org/2000/svg" xmlns:xlink="http://www.w3.org/1999/xlink" version="1.1" viewBox="-10 0 1034 1024">
  <g transform="matrix(1 0 0 -1 0 820)">
   <path fill="currentColor"
d="M111 339l45 61q12 21 26 40q15 24 32 47l-1 -616q-3 -18 -3 -30q-1 -3 -1 -8h48q-4 27 -5 62v669q66 138 69 140q12 21 33 35q-43 15 -65 28q-22 -78 -65 -169q-46 -99 -101 -174q-45 -57 -91 -84q36 -9 60 -27q9 13 19 26zM642 532h-245q-33 0 -61 6v-47q27 6 61 6h245
v-220l-171 1q-15 3 -43 4q1 -30 5 -60l-1 -356l-4 -33h48q-6 30 -5 94h387v-23q0 -39 -6 -66h51q-6 33 -6 66l1 334q1 21 5 44q-30 -1 -60 -5h-163v220h243q39 0 61 -6v47q-27 -6 -61 -6h-243v180q0 9 2 24q1 21 11 41h-56q1 -31 5 -65v-180zM471 -37v278h387v-278h-387z
" />
  </g>

</svg>
