<?xml version="1.0" standalone="no"?>
<!DOCTYPE svg PUBLIC "-//W3C//DTD SVG 1.1//EN" "http://www.w3.org/Graphics/SVG/1.1/DTD/svg11.dtd" >
<svg xmlns="http://www.w3.org/2000/svg" xmlns:xlink="http://www.w3.org/1999/xlink" version="1.1" viewBox="-10 0 1010 1000">
   <path fill="currentColor"
d="M567 -15q98 32 98 41q0 4 -5 6q-8 4 -9 10q95 228 315 300q-39 34 -65 93q-185 -91 -296 -329q-135 207 -256 327q-42 -49 -87 -64q197 -116 305 -384zM224 -2q106 33 109 46q1 4 -3 7q-20 14 -36 53q-7 16 -25 55q-21 46 -29 66v466q0 160 12 208h-99q12 -36 12 -202
v-316q-31 67 -74 131q-21 -30 -57 -69q128 -138 190 -445zM607 262q31 57 56 131l-74 22q-14 -59 -55 -127zM877 443q-114 184 -222 317l91 92l-69 61q-104 -127 -248 -246l65 -57l107 97q56 -67 129 -185h-240q-120 0 -160 7q-5 1 -7 1v-85q39 10 171 10h145q184 0 238 -12
z" />
</svg>
