<?xml version="1.0" standalone="no"?>
<!DOCTYPE svg PUBLIC "-//W3C//DTD SVG 1.1//EN" "http://www.w3.org/Graphics/SVG/1.1/DTD/svg11.dtd" >
<svg xmlns="http://www.w3.org/2000/svg" xmlns:xlink="http://www.w3.org/1999/xlink" version="1.1" viewBox="-10 0 1010 1000">
   <path fill="currentColor"
d="M232 -4q99 40 109 50q-1 5 -7 9q-16 10 -28 33q-11 19 -33 67q-17 37 -23 46v532q0 121 10 166h-103q10 -43 10 -164v-383q-4 7 -11 20q-45 81 -75 128q-26 -45 -57 -73q149 -192 208 -431zM573 -2q110 0 112 4q1 2 -4 13q-18 46 -18 95v232h103q92 -3 139 -8v89
q-40 -8 -139 -8h-103v143h131q124 -3 152 -6v87q-31 -8 -152 -8h-131v125q1 101 8 139h-100q5 -19 6 -51q1 -16 2 -36v-54v-123h-131q-84 0 -144 12v-93q59 8 148 8h127v-143h-101q-101 2 -137 8v-87q24 3 131 6h107v-191q-1 -123 -6 -153zM806 74q98 42 97 51q-1 4 -9 9
q-20 12 -33 33q-31 51 -65 117q-46 -26 -80 -32q58 -75 90 -178zM437 80q30 53 73 166l-83 28q-31 -98 -70 -172z" />
</svg>
