<?xml version="1.0" standalone="no"?>
<!DOCTYPE svg PUBLIC "-//W3C//DTD SVG 1.1//EN" "http://www.w3.org/Graphics/SVG/1.1/DTD/svg11.dtd" >
<svg xmlns="http://www.w3.org/2000/svg" xmlns:xlink="http://www.w3.org/1999/xlink" version="1.1" viewBox="-10 0 1034 1024">
  <g transform="matrix(1 0 0 -1 0 820)">
   <path fill="currentColor"
d="M196 -92l-4 -54v-7h48q-4 24 -5 61v632l36 65q12 25 25 49l32 58q13 27 43 42q-36 12 -69 29q-18 -54 -42 -108q-48 -100 -104 -185q-40 -60 -69 -92q-30 -30 -61 -46q31 -12 58 -31q24 30 46 60l66 93v-566zM896 404l41 -23q1 0 3 3q6 4 13 13q15 21 33 33
q-96 13 -198 89q-94 69 -183 210q15 27 28 43q-33 6 -56 16q-25 -87 -79 -168q-60 -90 -149 -175q-48 -43 -106 -61q24 -15 53 -40q67 52 142 132q84 96 147 211q102 -165 256 -252zM408 275q-34 0 -61 5v-46q21 6 61 6h398q-39 -57 -81 -104q-22 -25 -51 -55l-73 -73
l-118 77q-15 -24 -29 -40q66 -31 183 -111q70 -49 112 -95q6 21 27 49l-139 97q69 72 127 140q57 67 124 155q-33 -1 -66 -5h-414zM537 463q75 -48 130 -131q12 16 36 35q-25 28 -49 51l-83 78q-19 -21 -34 -33v0z" />
  </g>

</svg>
