<?xml version="1.0" standalone="no"?>
<!DOCTYPE svg PUBLIC "-//W3C//DTD SVG 1.1//EN" "http://www.w3.org/Graphics/SVG/1.1/DTD/svg11.dtd" >
<svg xmlns="http://www.w3.org/2000/svg" xmlns:xlink="http://www.w3.org/1999/xlink" version="1.1" viewBox="-10 0 1010 1000">
   <path fill="currentColor"
d="M353 -13q107 5 109 13q1 4 -6 12q-18 20 -19 48q-2 65 -2 54v30v41q147 1 172 -8q-8 57 -12 167q-2 41 -5 157q-6 296 -17 313q-21 42 -129 53q-6 -46 -45 -99q80 10 95 -4q22 -1 24 -508h-83q-4 268 -29 381q-23 121 -96 226q-8 -9 -57 -33q-27 -12 -27 -14
q80 -85 105 -200q29 -113 28 -360q-45 0 -73 7q-5 1 -6 1v-85q1 0 5 1q29 5 74 5q0 -155 -6 -198zM655 147q27 6 113 6h34q88 0 115 -6q-8 30 -8 203v305q0 141 9 195q1 5 1 6h-84q0 -6 1 -22q3 -37 3 -66h-105q2 68 8 90h-87q0 -2 1 -8q7 -43 7 -179v-309q0 -153 -8 -215z
M734 217v488h103v-488h-103zM232 909h-93q10 -54 10 -184v-403q-39 65 -95 161q-9 -42 -40 -98q116 -112 178 -385q15 4 42 10q75 14 68 24q0 2 -5 5q-16 11 -27 35q-10 22 -32 75q-10 24 -14 34v633q0 39 8 93z" />
</svg>
