<?xml version="1.0" standalone="no"?>
<!DOCTYPE svg PUBLIC "-//W3C//DTD SVG 1.1//EN" "http://www.w3.org/Graphics/SVG/1.1/DTD/svg11.dtd" >
<svg xmlns="http://www.w3.org/2000/svg" xmlns:xlink="http://www.w3.org/1999/xlink" version="1.1" viewBox="-10 0 1034 1024">
  <g transform="matrix(1 0 0 -1 0 820)">
   <path fill="currentColor"
d="M239 -92l-4 -54q-1 -3 -1 -7h48q-4 28 -5 61v649l46 84l39 65q15 22 41 33q-40 15 -67 31q-24 -60 -68 -149q-18 -36 -65 -110q-48 -73 -72 -100q-45 -51 -84 -72q36 -9 64 -25l71 97q0 1 57 82v-585zM818 506q-21 -4 -60 -5h-327q-30 0 -61 5v-46q22 4 61 5h327
q37 0 60 -5v46zM943 689q-15 -1 -27 -3q-24 -3 -32 -3h-410q-30 0 -61 6v-47q24 4 61 5h425v-701q0 -46 -52 -56q-19 -4 -44 -5q-21 0 -56 6q12 -22 22 -52q63 4 99 12q30 6 49 21q19 18 20 62l1 710q0 9 5 45zM686 69q30 -1 61 -5q-4 49 -5 71l1 174l4 43l-61 -5l-207 1
q-3 0 -43 4q1 -28 5 -59l-1 -184q-3 -12 -4 -45q28 3 59 5h191zM478 105v206h225v-206h-225z" />
  </g>

</svg>
