<?xml version="1.0" standalone="no"?>
<!DOCTYPE svg PUBLIC "-//W3C//DTD SVG 1.1//EN" "http://www.w3.org/Graphics/SVG/1.1/DTD/svg11.dtd" >
<svg xmlns="http://www.w3.org/2000/svg" xmlns:xlink="http://www.w3.org/1999/xlink" version="1.1" viewBox="-10 0 1010 1000">
   <path fill="currentColor"
d="M232 -6q128 33 123 44q0 1 -6 4q-25 11 -36 34l-23 46q-32 65 -46 95v504q3 118 12 180h-101q10 -53 14 -178v-371q-31 51 -74 113q-11 -19 -44 -53l-15 -15q145 -163 196 -403zM913 68q-6 31 -6 141v561q4 79 -26 95q-25 23 -151 36q-2 -59 -36 -105q139 32 133 -56
v-589h-297q-117 3 -141 10v-93q24 5 137 8h228q129 -3 159 -8zM339 246q24 5 137 8h137q119 -3 143 -8v90q-35 -10 -135 -10h-149q-90 0 -133 8v-88zM385 409q9 1 53 5q29 2 46 3h123q69 -3 97 -6q-4 19 -4 76v123q1 65 8 117h-89q4 -19 4 -46h-157l6 67h-91q8 -36 10 -135
v-115q0 -68 -6 -89zM466 485v128h159v-128h-159z" />
</svg>
