<?xml version="1.0" standalone="no"?>
<!DOCTYPE svg PUBLIC "-//W3C//DTD SVG 1.1//EN" "http://www.w3.org/Graphics/SVG/1.1/DTD/svg11.dtd" >
<svg xmlns="http://www.w3.org/2000/svg" xmlns:xlink="http://www.w3.org/1999/xlink" version="1.1" viewBox="-10 0 1034 1024">
  <g transform="matrix(1 0 0 -1 0 820)">
   <path fill="currentColor"
d="M195 -88q0 -39 -6 -66h50q-6 24 -6 66v643q45 82 65 122q18 39 49 62q-24 6 -34 11q-10 3 -32 14q-9 -33 -25 -73q-15 -39 -42 -90t-58 -101q-30 -48 -56 -83q-42 -51 -78 -71q30 -12 36 -16q7 -3 21 -12q27 33 51 70l65 96v-572zM406 628q6 -60 6 -68l-1 -489
q-4 -33 -25 -58q25 -19 39 -36q42 58 87 108l128 134q-7 18 -16 52q-18 -27 -30 -41q-34 -36 -68 -74q-28 -33 -77 -82v486q0 24 14 68h-57zM578 756q-25 -15 -43 -24q45 -58 85 -128q25 -48 53 -119q15 10 41 25q-45 90 -77 148zM862 589q3 30 4 55q1 31 18 50q-13 3 -25 4
q-24 3 -45 8q6 -48 6 -76q0 -99 -2 -136q-1 -6 -1 -14q0 -33 -6 -117q-1 -6 -2 -14q-7 -87 -22 -145q-15 -54 -42 -105q-57 -102 -160 -159q-45 -24 -118 -40q18 -12 23 -18q7 -9 22 -29q82 42 128 72q48 36 79 69q28 33 75 103q30 -33 53 -60q45 -61 74 -106q12 -24 20 -43
q21 19 47 35q-24 33 -54 70l-123 149q24 79 33 147q6 40 9 92q4 57 8 129q0 40 1 79v0z" />
  </g>

</svg>
