<?xml version="1.0" standalone="no"?>
<!DOCTYPE svg PUBLIC "-//W3C//DTD SVG 1.1//EN" "http://www.w3.org/Graphics/SVG/1.1/DTD/svg11.dtd" >
<svg xmlns="http://www.w3.org/2000/svg" xmlns:xlink="http://www.w3.org/1999/xlink" version="1.1" viewBox="-10 0 1034 1024">
  <g transform="matrix(1 0 0 -1 0 820)">
   <path fill="currentColor"
d="M209 -91q-3 -57 -6 -61h49q-4 24 -5 61v632q34 78 85 177q9 16 32 32q-33 9 -67 24q-18 -64 -43 -128q-57 -132 -128 -224q-54 -63 -98 -85l38 -15q9 -6 20 -12q25 28 59 72q33 45 64 90v-563zM300 -84q21 6 61 6h550q42 0 60 -6v47q-27 -6 -60 -6h-550q-36 0 -61 6v-47z
M411 689q4 -49 5 -60l-1 -450q-3 -12 -4 -44q30 3 62 5l368 -1l43 -4q-3 30 -5 60l1 451q0 19 4 43q-30 -1 -60 -5l-369 1q-19 3 -44 4zM454 176v222h385v-222h-385zM454 434v214h385v-214h-385z" />
  </g>

</svg>
