<?xml version="1.0" standalone="no"?>
<!DOCTYPE svg PUBLIC "-//W3C//DTD SVG 1.1//EN" "http://www.w3.org/Graphics/SVG/1.1/DTD/svg11.dtd" >
<svg xmlns="http://www.w3.org/2000/svg" xmlns:xlink="http://www.w3.org/1999/xlink" version="1.1" viewBox="-10 0 1034 1024">
  <g transform="matrix(1 0 0 -1 0 820)">
   <path fill="currentColor"
d="M195 -110l-4 -55q-1 -3 -1 -7h48q-4 30 -5 62v687l67 130q12 22 39 38q-24 9 -39 14q-7 3 -23 12q-6 -15 -11 -30q-45 -127 -141 -272q-31 -43 -54 -69q-21 -19 -48 -37q25 -7 52 -26q15 18 53 70l67 102v-619zM395 678q1 -30 5 -61l-1 -673q-4 -18 -10 -29l-17 -17
q27 -36 33 -49l87 107l123 141q-7 9 -8 12q-7 15 -13 31q-147 -177 -150 -181q-4 -1 -6 -6v410h225q9 -90 21 -140q12 -52 25 -91q12 -45 32 -82q36 -79 86 -127q42 -45 79 -45q36 0 50 54q6 28 15 85q-18 4 -30 9q-6 1 -22 13q3 -27 3 -43q0 -31 -6 -52q-4 -19 -20 -20
q-13 0 -41 26q-49 51 -86 128q-21 45 -42 126l-14 71l-11 88h168q37 0 60 -5v46q-24 -4 -60 -5h-172q-7 105 -9 200v63q12 0 44 7q48 7 114 14q13 1 23 1q12 0 20 -1q-30 37 -41 56q-22 -9 -57 -18q-66 -15 -128 -26l-122 -12q-67 -3 -117 -5h-30zM438 399v241q34 1 71 5
l96 7q21 3 42 5l12 -258h-221zM700 -149q12 18 27 37q-21 25 -43 47l-68 70q-7 -10 -21 -21l-10 -10q37 -27 58 -51q24 -25 36 -42q10 -13 21 -30v0z" />
  </g>

</svg>
