<?xml version="1.0" standalone="no"?>
<!DOCTYPE svg PUBLIC "-//W3C//DTD SVG 1.1//EN" "http://www.w3.org/Graphics/SVG/1.1/DTD/svg11.dtd" >
<svg xmlns="http://www.w3.org/2000/svg" xmlns:xlink="http://www.w3.org/1999/xlink" version="1.1" viewBox="-10 0 1034 1024">
  <g transform="matrix(1 0 0 -1 0 820)">
   <path fill="currentColor"
d="M83 306q27 42 53 83l67 116l-1 -638q-3 -12 -3 -21q-1 -3 -1 -7h49q-6 24 -6 61v681q10 21 21 45q33 75 42 89q9 15 32 30q-34 9 -67 25q-10 -43 -23 -77q-12 -33 -30 -71q-66 -145 -124 -227q-33 -45 -68 -69q21 -6 43 -14q7 -3 16 -6zM602 79h-124q-33 0 -54 5
q-4 1 -7 2v-48q4 3 35 5l150 1v-140q0 -21 -5 -61h49q-6 22 -6 61v140h140q36 0 60 -6v48q-19 -6 -60 -7h-140v435h9q34 -120 68 -190q58 -117 108 -179q66 -82 122 -146q18 19 50 37q-42 25 -63 45q-75 75 -130 163q-78 129 -118 270h202q37 0 60 -5v47q-19 -6 -60 -6h-248
q0 180 3 189q1 15 11 32h-57q1 -31 5 -65v-156h-237q-22 0 -46 3q-3 0 -15 3v-47q22 4 61 5h201q-78 -204 -165 -334q-73 -108 -147 -148q33 -9 56 -28q42 46 86 103q46 63 75 111q69 117 131 280v-419z" />
  </g>

</svg>
