<?xml version="1.0" standalone="no"?>
<!DOCTYPE svg PUBLIC "-//W3C//DTD SVG 1.1//EN" "http://www.w3.org/Graphics/SVG/1.1/DTD/svg11.dtd" >
<svg xmlns="http://www.w3.org/2000/svg" xmlns:xlink="http://www.w3.org/1999/xlink" version="1.1" viewBox="-10 0 1034 1024">
  <g transform="matrix(1 0 0 -1 0 820)">
   <path fill="currentColor"
d="M46 327q28 -12 44 -22q42 54 68 91q25 36 68 104v-601q0 -36 -5 -56h48q-3 21 -5 44v682q57 123 69 141q7 15 14 20q3 6 24 16q-27 9 -60 29q-30 -84 -85 -193q-48 -93 -115 -183q-39 -49 -73 -68q3 -1 8 -4zM378 604q1 -18 2 -29q3 -21 3 -31v-76q0 -37 -5 -55h47
q-3 21 -5 43v107h487v-88q0 -36 -5 -56h48q-3 21 -5 44q0 93 2 104q0 18 3 37q-30 -1 -59 -5l-472 1q-15 3 -41 4zM585 378q0 6 2 24q1 16 12 36h-59q1 -30 5 -60l1 -427q3 -39 25 -60q24 -24 93 -28q51 -3 79 -4q33 0 93 4q70 4 94 20q19 12 36 57q4 16 11 33q3 12 8 19
q-25 7 -56 27l1 -31q0 -33 -8 -54q-12 -27 -64 -32q-31 -3 -79 -4l-118 3q-36 4 -51 12q-24 16 -25 70v196q171 48 292 100q24 10 52 11q-15 12 -26 24q-6 4 -22 23q-69 -57 -296 -121v162zM557 750q43 -42 73 -73q25 -27 52 -60q9 12 20 21q4 3 10 8q-36 45 -128 131
q-12 -15 -27 -27v0z" />
  </g>

</svg>
