<?xml version="1.0" standalone="no"?>
<!DOCTYPE svg PUBLIC "-//W3C//DTD SVG 1.1//EN" "http://www.w3.org/Graphics/SVG/1.1/DTD/svg11.dtd" >
<svg xmlns="http://www.w3.org/2000/svg" xmlns:xlink="http://www.w3.org/1999/xlink" version="1.1" viewBox="-10 0 1034 1024">
  <g transform="matrix(1 0 0 -1 0 820)">
   <path fill="currentColor"
d="M62 376l27 -28q69 39 125 74q36 25 77 61q105 91 207 213q75 -90 193 -176q46 -34 118 -72q70 -37 145 -67q13 24 40 54q-69 4 -144 37q-102 46 -210 135q-30 27 -55 51l-63 72q12 9 24 16q-39 15 -58 26q-33 -67 -117 -160q-103 -111 -215 -176q-63 -36 -114 -43z
M132 -104q57 40 139 116q43 43 57 54q13 10 38 19q-30 16 -54 36q-60 -75 -112 -122q-64 -52 -122 -72q21 -9 38 -20q7 -6 16 -11zM539 190h277q33 0 61 -5v46q-24 -4 -61 -5h-609q-34 0 -62 5v-46q30 3 62 5h294v-253q0 -30 -4 -40q-3 -9 -16 -14q-24 -6 -55 -7
q-12 0 -21 1q-3 0 -46 9q12 -18 20 -35q3 -7 7 -17q79 4 110 13q42 12 43 75v268zM266 381q22 4 62 5h383q37 0 60 -5v47q-22 -6 -60 -6h-383q-33 0 -48 3q-1 0 -14 3v-47zM891 -87l8 12q6 6 13 14l-95 84l-122 97q-12 -19 -29 -35q57 -39 102 -75l71 -63q16 -15 43 -47
q4 7 9 13v0z" />
  </g>

</svg>
