<?xml version="1.0" standalone="no"?>
<!DOCTYPE svg PUBLIC "-//W3C//DTD SVG 1.1//EN" "http://www.w3.org/Graphics/SVG/1.1/DTD/svg11.dtd" >
<svg xmlns="http://www.w3.org/2000/svg" xmlns:xlink="http://www.w3.org/1999/xlink" version="1.1" viewBox="-10 0 1034 1024">
  <g transform="matrix(1 0 0 -1 0 820)">
   <path fill="currentColor"
d="M542 759q-40 9 -64 18q-34 -84 -113 -176q-21 -24 -46 -49l-55 -51q-63 -52 -105 -75q-57 -33 -118 -49q21 -13 50 -42q37 18 85 50q48 31 89 64q60 49 112 106q55 63 123 152q51 -64 63 -76q1 -1 3 -4q57 -63 118 -111q48 -37 105 -72q64 -39 152 -84q6 6 9 13q3 3 9 11
q7 12 29 24q-49 10 -84 22q-19 6 -72 35q-51 27 -81 50q-132 93 -229 226q9 9 20 18zM331 47q4 4 8 6q3 3 8 6q10 6 38 14q-28 21 -53 45q-51 -67 -117 -121q-60 -45 -85 -60q-24 -12 -72 -26q28 -16 50 -40q87 57 134 99q43 39 89 77zM489 211h-269q-36 0 -62 5v-46
q24 4 62 5h269v-242q0 -27 -5 -36q-6 -9 -28 -13q-16 -1 -34 -2q-24 0 -57 9q10 -19 21 -53q55 1 86 6q21 3 34 10q21 13 21 67v254h262q39 0 60 -5v46q-18 -4 -60 -5h-262v162h167q40 0 61 -6v47q-25 -6 -61 -6h-375q-39 0 -61 6v-47q27 6 61 6h170v-162zM640 65l74 -38
l65 -42q45 -31 72 -54q21 -16 47 -45q18 30 28 41q-115 84 -255 173q-12 -15 -31 -35v0z" />
  </g>

</svg>
