<?xml version="1.0" standalone="no"?>
<!DOCTYPE svg PUBLIC "-//W3C//DTD SVG 1.1//EN" "http://www.w3.org/Graphics/SVG/1.1/DTD/svg11.dtd" >
<svg xmlns="http://www.w3.org/2000/svg" xmlns:xlink="http://www.w3.org/1999/xlink" version="1.1" viewBox="-10 0 1010 1000">
   <path fill="currentColor"
d="M494 -17q110 24 113 37q-27 17 -38 44q-13 29 -35 70q-4 7 -6 11h176q124 0 199 -8q-7 64 -10 183q-3 81 -7 207q-8 263 -19 297q-22 63 -179 89q-2 -46 -51 -107q134 8 145 -26q18 -13 26 -563h-314q0 -1 -10 14q-41 60 -75 103q24 6 119 6h39q78 0 133 -4q-6 43 -6 139
v83q0 136 8 169h-93q-1 0 1 -7q5 -30 5 -61h-141q0 70 6 93h-95q10 -22 10 -182v-82q0 -98 -4 -126q-14 19 -42 52q-20 24 -28 35q-21 -55 -59 -80q176 -144 232 -386zM238 -10q108 24 113 36q2 4 -6 10q-23 17 -35 46q-2 4 -6 15q-45 103 -58 136v476q-1 179 10 188h-99
q10 -42 10 -186v-346q-48 101 -88 161q-13 -56 -51 -93q151 -166 210 -443zM474 403v193h141v-193h-141z" />
</svg>
