<?xml version="1.0" standalone="no"?>
<!DOCTYPE svg PUBLIC "-//W3C//DTD SVG 1.1//EN" "http://www.w3.org/Graphics/SVG/1.1/DTD/svg11.dtd" >
<svg xmlns="http://www.w3.org/2000/svg" xmlns:xlink="http://www.w3.org/1999/xlink" version="1.1" viewBox="-10 0 1034 1024">
  <g transform="matrix(1 0 0 -1 0 820)">
   <path fill="currentColor"
d="M119 322q24 31 54 80q15 25 32 51v-562q0 -33 -6 -57h51q0 6 -2 13l-4 44v627l80 177q3 7 7 15q7 15 28 25q-42 12 -62 24q-10 -54 -30 -101q-18 -45 -44 -99q-25 -51 -48 -90q-81 -124 -131 -158q25 -6 51 -22zM367 297q-36 0 -49 3q-3 1 -11 2v-47q3 0 6 1q7 3 36 4
l252 1q-24 -105 -64 -180q-48 -84 -125 -143q-61 -43 -109 -56q25 -19 46 -40q39 25 83 62q81 64 132 150q51 90 73 196q43 -111 58 -140q9 -21 37 -63q52 -84 192 -192q15 21 56 37q-57 18 -122 70q-81 72 -124 150q-16 33 -31 64q-10 24 -29 85l233 -1q18 -1 38 -5v47
q-9 -1 -15 -3q-30 0 -48 -2h-238l8 190l192 -1l38 -4v46q-15 -3 -28 -4l-202 -1v177q0 6 2 24q3 19 13 36h-59q1 -4 7 -58v-179h-161l6 22q1 7 24 85q9 31 32 43q-42 10 -59 18q-22 -114 -65 -223q-27 -64 -60 -96q9 -3 20 -6q13 -6 29 -11q31 63 60 134h172q0 -48 -2 -85
l-6 -107h-238z" />
  </g>

</svg>
