<?xml version="1.0" standalone="no"?>
<!DOCTYPE svg PUBLIC "-//W3C//DTD SVG 1.1//EN" "http://www.w3.org/Graphics/SVG/1.1/DTD/svg11.dtd" >
<svg xmlns="http://www.w3.org/2000/svg" xmlns:xlink="http://www.w3.org/1999/xlink" version="1.1" viewBox="-10 0 1010 1000">
   <path fill="currentColor"
d="M466 -17q103 18 119 33q1 3 -8 7q-12 6 -15 11q111 221 402 262q-40 32 -67 95q24 18 -153 -71v77q-49 -8 -188 -8h-118q-124 -1 -172 8v-89q-87 58 -153 97q-14 -28 -77 -69q269 -102 430 -353zM508 74q-14 13 -48 53q-55 77 -180 175q64 11 155 12h123q101 0 160 -12
q-133 -88 -210 -228zM107 481q81 12 161 13h432q87 0 195 -11v99q-67 -11 -197 -12h-150v258q6 46 -32 64q-35 18 -141 21q-6 -61 -36 -109q75 22 97 16q24 -3 24 -40v-210h-190q-102 2 -163 14v-103zM280 613q94 33 91 40q-1 3 -10 9q-23 15 -42 37q-19 23 -126 139
q-17 19 -24 27q-45 -32 -94 -47q87 -37 205 -205zM673 623q5 0 152 111q50 39 76 58l-80 70q-84 -95 -210 -183z" />
</svg>
