<?xml version="1.0" standalone="no"?>
<!DOCTYPE svg PUBLIC "-//W3C//DTD SVG 1.1//EN" "http://www.w3.org/Graphics/SVG/1.1/DTD/svg11.dtd" >
<svg xmlns="http://www.w3.org/2000/svg" xmlns:xlink="http://www.w3.org/1999/xlink" version="1.1" viewBox="-10 0 1034 1024">
  <g transform="matrix(1 0 0 -1 0 820)">
   <path fill="currentColor"
d="M217 489l-1 -623q-3 -12 -3 -21q-1 -3 -1 -7h48q-4 24 -5 61v665l62 134q18 34 41 47q-30 12 -63 29q-9 -34 -25 -73q-15 -42 -41 -100q-42 -91 -106 -177q-33 -42 -77 -69q30 -10 56 -30q49 66 77 107q18 28 38 57zM647 178v-201q0 -31 -5 -62h49q-4 28 -5 62v201h202
v-209q0 -63 -37 -69q-19 -3 -43 -4q-33 0 -56 6q12 -36 14 -53q75 6 104 14q27 7 41 26q15 21 16 80l1 688l4 43q-60 -6 -87 -6l-379 1q-19 3 -30 4q-7 1 -14 1q1 -30 5 -60v-252q0 -90 -9 -200q-6 -87 -27 -161q-22 -79 -54 -122q-15 -18 -42 -39q39 -9 61 -20
q73 123 101 332h190zM460 214l5 189h182v-189h-187zM465 439v220h182v-220h-182zM686 214v189h202v-189h-202zM686 439v220h202v-220h-202z" />
  </g>

</svg>
