<?xml version="1.0" standalone="no"?>
<!DOCTYPE svg PUBLIC "-//W3C//DTD SVG 1.1//EN" "http://www.w3.org/Graphics/SVG/1.1/DTD/svg11.dtd" >
<svg xmlns="http://www.w3.org/2000/svg" xmlns:xlink="http://www.w3.org/1999/xlink" version="1.1" viewBox="-10 0 1010 1000">
   <path fill="currentColor"
d="M210 0q102 38 98 44q-1 2 -5 6q-16 13 -29 46q-15 37 -42 97q-15 34 -22 51v465q0 8 1 23q5 156 9 161h-95q10 -56 10 -184v-324q-13 33 -54 96q-27 -47 -51 -76q107 -112 180 -405zM329 54q30 5 143 8h248q117 -3 153 -6q-8 57 -14 379q-7 333 28 341q13 0 20 -73
q25 36 63 49q-27 123 -83 127q-59 -2 -81 -95q-24 -93 -20 -309q1 -59 2 -172q1 -122 2 -170h-391q-2 342 -22 483q-19 149 -77 263q-22 -29 -62 -65q61 -92 75 -230q18 -139 16 -530zM438 197q25 3 94 6h127q19 0 91 -8v77q-21 -6 -87 -6h-52v88h62q36 0 61 -4
q-1 42 -1 121q-1 121 -3 202q0 51 -16 63q-12 15 -75 26q-1 -27 -20 -59q-8 -13 -6 -16q64 18 60 -48v-222h-62v355v14q-1 74 2 93h-69q7 -44 8 -113v-349h-56v214q0 95 4 127h-69q4 -20 7 -133v-156q2 -61 -3 -119q17 3 65 4h52v-88h-22q-68 0 -92 6v-75z" />
</svg>
