<?xml version="1.0" standalone="no"?>
<!DOCTYPE svg PUBLIC "-//W3C//DTD SVG 1.1//EN" "http://www.w3.org/Graphics/SVG/1.1/DTD/svg11.dtd" >
<svg xmlns="http://www.w3.org/2000/svg" xmlns:xlink="http://www.w3.org/1999/xlink" version="1.1" viewBox="-10 0 1034 1024">
  <g transform="matrix(1 0 0 -1 0 820)">
   <path fill="currentColor"
d="M201 -80q0 -40 -5 -70h48l-4 41l-1 684q54 117 61 125q16 31 38 43q-27 7 -64 24q-48 -174 -162 -343q-48 -66 -82 -90q21 -9 29 -11q10 -4 27 -14q33 48 58 89l57 97v-575zM522 639h374q18 0 53 -3q9 0 16 -3v47q-24 -4 -69 -5l-540 1q-7 1 -35 4v-47q21 6 70 6h92
l-54 -662q-3 -36 -8 -49q-4 -9 -23 -18q12 -19 24 -50q21 12 42 26l71 39q64 31 140 65q-1 12 -1 24q0 9 1 25q-42 -24 -91 -49l-119 -60l41 503h249l-21 -390l-2 -66q0 -60 34 -79q27 -12 66 -13q27 0 54 3q51 1 75 72q9 28 20 79q-25 10 -49 24q0 -48 -8 -84
q-9 -36 -32 -46q-21 -7 -54 -8q-34 0 -49 11q-18 10 -19 52l5 100q0 25 2 57q12 256 16 277q1 30 5 52q-27 -1 -55 -5h-234zM527 269q82 -51 142 -134q6 12 25 28q3 3 8 7q-66 66 -142 132q-15 -18 -33 -33v0z" />
  </g>

</svg>
