<?xml version="1.0" standalone="no"?>
<!DOCTYPE svg PUBLIC "-//W3C//DTD SVG 1.1//EN" "http://www.w3.org/Graphics/SVG/1.1/DTD/svg11.dtd" >
<svg xmlns="http://www.w3.org/2000/svg" xmlns:xlink="http://www.w3.org/1999/xlink" version="1.1" viewBox="-10 0 1010 1000">
   <path fill="currentColor"
d="M718 -10q123 37 113 48q-1 6 -9 9q-20 7 -38 31q-37 47 -74 103h46q116 0 167 -10v93q-47 -12 -163 -12h-101v135h61q98 0 167 -8v90q-3 0 -8 -1q-39 -9 -165 -9h-55v145h81q149 0 210 -10v89q-61 -8 -204 -8h-85q-1 211 10 230h-102q10 -30 10 -230h-87q-139 0 -188 8
v-89q44 10 188 10h87v-145h-61q-137 0 -169 10v-90q80 8 181 8h49v-135h-47q-140 0 -193 12v-95q50 12 181 12h117q52 -78 81 -191zM226 -8q13 4 36 11q83 22 81 35q1 2 -5 5q-24 16 -36 49q-9 26 -30 75q-16 39 -20 50v504q0 148 14 180h-103q10 -42 10 -182v-354
q-38 86 -88 151q-8 -29 -63 -69q154 -148 204 -455zM510 -4q38 55 73 137l-85 32q-24 -80 -69 -139z" />
</svg>
