<?xml version="1.0" standalone="no"?>
<!DOCTYPE svg PUBLIC "-//W3C//DTD SVG 1.1//EN" "http://www.w3.org/Graphics/SVG/1.1/DTD/svg11.dtd" >
<svg xmlns="http://www.w3.org/2000/svg" xmlns:xlink="http://www.w3.org/1999/xlink" version="1.1" viewBox="-10 0 1010 1000">
   <path fill="currentColor"
d="M248 4q15 6 44 17q67 25 63 27q-1 6 -11 18q-16 19 -25 36q-1 3 -5 11q-39 82 -52 104v494q0 138 8 188h-103q12 -73 12 -190v-365q-27 58 -90 150q-23 -41 -65 -81q153 -140 224 -409zM357 82q47 7 135 8h248q117 -2 153 -8v87q-47 -10 -159 -10h-165q6 2 18 7
q41 16 38 19q-1 1 -5 4q-15 7 -27 20q-9 10 -52 66q-64 82 -81 100l308 -12q-9 -11 -27 -31q-42 -50 -64 -72l69 -43q79 77 183 212l-86 56q-16 -38 -33 -60l-163 4v139h99q78 0 129 -10v83q-15 -3 -42 -3q-13 -1 -32 -1h-57h-97v143h91q108 -1 189 -8v88q-72 -10 -175 -10
h-286q-121 1 -162 6v-86q65 9 160 10h107v-143h-89q-69 1 -123 8v-85q33 8 123 8h89v-135q-155 10 -214 30q-7 -45 -30 -90q90 3 197 -214h-38q-96 0 -129 12v-89z" />
</svg>
