<?xml version="1.0" standalone="no"?>
<!DOCTYPE svg PUBLIC "-//W3C//DTD SVG 1.1//EN" "http://www.w3.org/Graphics/SVG/1.1/DTD/svg11.dtd" >
<svg xmlns="http://www.w3.org/2000/svg" xmlns:xlink="http://www.w3.org/1999/xlink" version="1.1" viewBox="-10 0 1034 1024">
  <g transform="matrix(1 0 0 -1 0 820)">
   <path fill="currentColor"
d="M460 332q-9 0 -29 4q4 -42 5 -72q0 -117 -21 -197q-27 -102 -110 -167q-19 -13 -51 -25q22 -18 44 -38q70 57 105 110q34 57 49 114q15 66 22 181q3 40 5 50q0 12 10 39q-15 1 -29 1zM380 713q1 -30 5 -62l-1 -213q-3 -7 -4 -36v-3q15 3 51 4l380 1q30 -1 60 -5
q-1 15 -3 29q-3 21 -3 29l1 211q0 7 2 16l3 29q-19 -1 -35 -3q-19 -1 -50 -2l-362 1q-15 3 -44 4zM422 440v232h405v-232h-405zM641 -109q0 1 -1 5q-1 3 -4 55l1 331q1 22 13 49h-57q1 -31 5 -64l-1 -341q-1 -10 -2 -26q0 -4 -2 -9h48zM816 272q0 24 15 64h-58q0 -13 3 -29
q0 -16 3 -35l1 -350q3 -21 16 -32q21 -15 66 -16q37 0 66 14q30 16 41 65q0 3 11 45q-19 9 -52 28q4 -22 5 -41q0 -45 -23 -61q-18 -10 -49 -11q-30 0 -37 12q-7 7 -8 38v309zM118 399q3 3 12 18q16 21 23 33q13 24 30 44v-604q0 -21 -3 -51q0 -6 -2 -10h49q-4 19 -5 50v681
l71 140q15 31 40 50q-24 6 -39 12q-15 4 -25 10q-28 -108 -122 -257q-75 -117 -124 -143q27 -15 49 -33q6 9 46 60v0z" />
  </g>

</svg>
