<?xml version="1.0" standalone="no"?>
<!DOCTYPE svg PUBLIC "-//W3C//DTD SVG 1.1//EN" "http://www.w3.org/Graphics/SVG/1.1/DTD/svg11.dtd" >
<svg xmlns="http://www.w3.org/2000/svg" xmlns:xlink="http://www.w3.org/1999/xlink" version="1.1" viewBox="-10 0 1034 1024">
  <g transform="matrix(1 0 0 -1 0 820)">
   <path fill="currentColor"
d="M274 200q12 -7 30 -20q76 73 156 188l-1 -497q-3 -19 -4 -28h49q-4 19 -5 37v192h334v-136q0 -21 -4 -28q-3 -6 -23 -14q-18 -4 -41 -5q-18 0 -44 4q12 -28 21 -50q76 7 104 24q24 16 25 55l1 465l4 43q-30 -1 -60 -5h-317q3 9 26 50q19 39 32 68l377 -1q13 0 28 -3l2 -1
v46q-6 -1 -12 -3q-12 0 -52 -2h-330q6 10 14 33q21 69 32 89q9 22 30 42q-24 6 -63 20q-4 -30 -17 -70q-12 -43 -38 -114h-151q-48 0 -66 5v-46q6 0 12 3l108 2h83q-57 -117 -131 -212q-84 -102 -133 -117q12 -6 24 -14zM833 266h-334v123h334v-123zM833 108h-334v122h334
v-122zM57 318q13 -6 18 -9q7 -4 18 -13l105 158v-559q0 -21 -3 -51q0 -3 -2 -8v-2h48q-3 24 -5 50l1 640q79 172 86 180q13 24 33 38q-30 12 -59 27q-27 -84 -74 -180q-31 -67 -58 -112q-24 -40 -59 -88q-33 -42 -63 -63q6 -3 14 -8v0z" />
  </g>

</svg>
