<?xml version="1.0" standalone="no"?>
<!DOCTYPE svg PUBLIC "-//W3C//DTD SVG 1.1//EN" "http://www.w3.org/Graphics/SVG/1.1/DTD/svg11.dtd" >
<svg xmlns="http://www.w3.org/2000/svg" xmlns:xlink="http://www.w3.org/1999/xlink" version="1.1" viewBox="-10 0 1034 1024">
  <g transform="matrix(1 0 0 -1 0 820)">
   <path fill="currentColor"
d="M221 -106q0 -31 -5 -62h48q-4 28 -5 62v651q40 78 78 141q18 34 52 49q-31 12 -68 32q-21 -63 -88 -187q-63 -106 -112 -164q-39 -48 -88 -74q33 -9 60 -29q42 51 70 88q27 34 58 81v-588zM638 413h-240q-33 0 -53 4q-4 1 -8 1v-46q3 3 47 5l566 -1q16 0 30 -4v46
q-16 -4 -63 -5h-239v151h171q36 0 63 -5v46q-24 -4 -63 -5h-171q0 123 3 132q1 16 10 30h-58q6 -66 6 -85v-77h-170q-33 0 -53 4q-4 1 -9 1v-46q6 3 49 5h182v-151zM770 226h-340q-33 0 -53 4q-4 1 -8 1v-46q3 3 44 5h357v-247q0 -48 -28 -53q-28 -6 -57 -6q-28 0 -53 6
q15 -28 20 -53q63 3 103 13q52 13 53 87v253h92q37 0 63 -5v46q-24 -4 -63 -5h-92q0 90 3 95q1 18 11 33h-57q1 -31 5 -65v-63zM460 101q76 -55 131 -123q4 6 9 12q4 3 11 12q6 4 12 11l-61 58q-24 24 -69 62q-18 -19 -33 -32v0z" />
  </g>

</svg>
