<?xml version="1.0" standalone="no"?>
<!DOCTYPE svg PUBLIC "-//W3C//DTD SVG 1.1//EN" "http://www.w3.org/Graphics/SVG/1.1/DTD/svg11.dtd" >
<svg xmlns="http://www.w3.org/2000/svg" xmlns:xlink="http://www.w3.org/1999/xlink" version="1.1" viewBox="-10 0 1034 1024">
  <g transform="matrix(1 0 0 -1 0 820)">
   <path fill="currentColor"
d="M200 -94q0 -31 -5 -61h48q-4 27 -5 61v646l55 117q19 39 27 49q6 7 30 23q-40 13 -67 28q-15 -51 -39 -107q-69 -165 -137 -256q-30 -39 -72 -66q40 -12 51 -19q4 -3 8 -5q27 37 51 73q24 37 55 93v-576zM642 450q-55 -3 -78 -4h-95q19 52 33 94l27 93h125q39 0 61 -5v46
q-18 -4 -61 -5h-267q-33 0 -62 5v-46q49 4 75 5h88q-27 -109 -56 -175q-36 -93 -89 -169q-33 -42 -64 -56q13 -4 27 -8q15 -4 33 -15q39 58 66 105q24 45 49 96h146q-12 -73 -26 -128q-12 -48 -28 -97q-63 48 -116 90q-19 -30 -35 -45q63 -27 132 -88q-21 -46 -39 -73
q-15 -21 -53 -64q-75 -81 -163 -111q27 -7 45 -22q12 -6 17 -11q147 108 218 239q30 60 49 124l21 90l28 137q-4 0 -8 -2zM719 572q1 -31 5 -65q0 -390 -3 -404q-1 -4 -1 -9q-1 -3 -1 -7h48q-4 24 -5 61l1 374q0 18 12 50h-56zM925 687q0 9 2 25q1 19 11 41h-56q1 -33 5 -66
l-1 -758q-3 -13 -7 -21q-6 -7 -26 -12q-16 -3 -38 -3q-30 0 -57 7q10 -30 17 -52l65 4q48 4 69 22q15 15 16 68v745z" />
  </g>

</svg>
