<?xml version="1.0" standalone="no"?>
<!DOCTYPE svg PUBLIC "-//W3C//DTD SVG 1.1//EN" "http://www.w3.org/Graphics/SVG/1.1/DTD/svg11.dtd" >
<svg xmlns="http://www.w3.org/2000/svg" xmlns:xlink="http://www.w3.org/1999/xlink" version="1.1" viewBox="-10 0 1010 1000">
   <path fill="currentColor"
d="M238 -12q15 4 40 12q78 20 73 28q0 6 -12 16q-22 19 -31 42q-18 40 -40 83q-9 19 -16 32v537q0 126 8 167h-101q10 -48 10 -165v-378q-32 57 -89 135q-3 5 -5 7q-10 -25 -51 -85q137 -132 214 -431zM593 -6q91 -3 97 8q2 4 -2 11q-13 19 -13 55v113h79q113 -1 149 -10v85
q-39 -8 -147 -8h-81v157h107q122 0 156 -12v92q-29 -10 -154 -10h-52q79 214 234 275q-46 27 -85 70q-166 -145 -206 -347v262q0 140 10 170h-96q-1 -3 1 -13q9 -52 9 -152v-265q-67 225 -260 361q-22 -41 -81 -62q187 -85 270 -301h-72q-111 0 -156 10v-88q40 9 158 10h141
v-157h-139q-19 48 -45 108q-30 -18 -82 -28q81 -129 96 -292q104 20 103 28q1 7 -8 15q-14 13 -20 31q-3 9 -9 26q-9 29 -15 45h119v-103q0 -57 -6 -84z" />
</svg>
