<?xml version="1.0" standalone="no"?>
<!DOCTYPE svg PUBLIC "-//W3C//DTD SVG 1.1//EN" "http://www.w3.org/Graphics/SVG/1.1/DTD/svg11.dtd" >
<svg xmlns="http://www.w3.org/2000/svg" xmlns:xlink="http://www.w3.org/1999/xlink" version="1.1" viewBox="-10 0 1010 1000">
   <path fill="currentColor"
d="M244 -10q10 3 29 9q98 29 88 39q-1 3 -7 9q-19 17 -35 47q-18 35 -61 135v498q0 139 10 176h-95q10 -60 10 -166v-379q-60 102 -96 146q-13 -27 -57 -71q166 -169 214 -443zM552 -6q127 47 119 52q-2 4 -14 8q-29 11 -48 32q-22 25 -64 70q-54 60 -69 77l290 -12
q-51 -60 -93 -94l75 -43q137 142 185 208l-86 50q-3 -6 -13 -22q-16 -23 -24 -38q-288 3 -435 34q-10 -52 -26 -78q52 -8 97 -69q82 -107 106 -175zM591 314q106 7 105 14q2 3 -3 10q-10 19 -10 43v52h55q116 0 143 -8v79q-13 -2 -45 -3q-16 -1 -38 -1h-64h-51v129h85
q116 0 170 -10v92q-62 -10 -168 -10h-87v34q0 133 9 170h-101q-1 0 0 -8q8 -59 8 -151v-43h-113h-50q-98 -1 -121 4v-86q31 10 171 10h113v-131h-151q-15 36 -45 96l-86 -30q85 -95 116 -242q13 3 37 8q62 12 58 20q0 2 -6 9q-27 25 -48 72h123q0 -102 -6 -119z" />
</svg>
