<?xml version="1.0" standalone="no"?>
<!DOCTYPE svg PUBLIC "-//W3C//DTD SVG 1.1//EN" "http://www.w3.org/Graphics/SVG/1.1/DTD/svg11.dtd" >
<svg xmlns="http://www.w3.org/2000/svg" xmlns:xlink="http://www.w3.org/1999/xlink" version="1.1" viewBox="-10 0 1034 1024">
  <g transform="matrix(1 0 0 -1 0 820)">
   <path fill="currentColor"
d="M215 -106q0 -31 -5 -62h48q-4 28 -5 62v652q16 42 29 68q18 36 35 75q16 39 45 57q-34 10 -67 25q-22 -84 -55 -155q-57 -121 -117 -205q-25 -36 -44 -56q-15 -15 -46 -36q13 -3 24 -8q9 -4 24 -13q3 -3 7 -4q54 63 127 186v-586zM495 249h-129q-36 0 -61 5v-46
q30 3 61 5l593 -1q15 0 29 -4v46q-24 -4 -60 -5h-142v264h98q33 0 61 -5v46q-24 -4 -61 -5h-98v159q0 7 2 24q1 21 11 41h-56q1 -31 5 -65v-159h-217v156q0 7 3 23q1 19 13 42h-58q0 -3 1 -8q4 -18 5 -57v-156h-96q-30 0 -61 5v-46q39 4 49 5h108v-264zM531 249v264h217
v-264h-217zM317 -120q34 -15 56 -33q82 91 148 203q30 49 37 57q12 12 36 22q-42 15 -65 32q-27 -73 -94 -172q-60 -81 -118 -109zM705 129q60 -51 134 -139q60 -72 89 -125q10 16 35 41l-74 89q-118 135 -146 164q-27 -24 -38 -30v0z" />
  </g>

</svg>
