<?xml version="1.0" standalone="no"?>
<!DOCTYPE svg PUBLIC "-//W3C//DTD SVG 1.1//EN" "http://www.w3.org/Graphics/SVG/1.1/DTD/svg11.dtd" >
<svg xmlns="http://www.w3.org/2000/svg" xmlns:xlink="http://www.w3.org/1999/xlink" version="1.1" viewBox="-10 0 1010 1000">
   <path fill="currentColor"
d="M236 2q105 26 107 44q-1 2 -7 8q-19 19 -26 38q-6 14 -14 36q-19 48 -42 103v408q141 -131 250 -389h-54q-79 0 -146 8v-85q39 3 140 6h312q109 0 159 -6v83q-56 -5 -153 -6h-123q12 138 46 254q90 -95 119 -158q94 60 87 71q-2 4 -14 11q-23 13 -40 27q-47 42 -125 109
q64 111 246 194q-47 30 -85 82q-156 -104 -212 -207q-66 -142 -84 -371l-9 21q-28 66 -42 94v381l99 -55q0 47 24 83q-70 38 -191 109l-55 -75l15 -9q15 -8 38 -23v-296q-26 66 -135 209q-28 -31 -67 -46v52q0 106 4 182h-81q6 -68 6 -180v-351q-53 97 -98 162
q-24 -53 -61 -77q157 -206 212 -441zM619 10q18 32 53 113q4 7 5 10l-100 26q-27 -82 -53 -123z" />
</svg>
