<?xml version="1.0" standalone="no"?>
<!DOCTYPE svg PUBLIC "-//W3C//DTD SVG 1.1//EN" "http://www.w3.org/Graphics/SVG/1.1/DTD/svg11.dtd" >
<svg xmlns="http://www.w3.org/2000/svg" xmlns:xlink="http://www.w3.org/1999/xlink" version="1.1" viewBox="-10 0 1034 1024">
  <g transform="matrix(1 0 0 -1 0 820)">
   <path fill="currentColor"
d="M226 -107q0 -31 -5 -62h48q-4 28 -5 62v646q27 45 55 100q33 66 61 78q-31 13 -61 33q-22 -75 -77 -172q-57 -102 -110 -171q-55 -66 -103 -91q42 -15 53 -24q1 -1 8 -6l70 90q27 37 66 98v-581zM509 -61q0 -25 -6 -38q-3 -9 -21 -22q15 -15 19 -21l16 -21q54 60 75 80
q54 54 89 84q9 7 18 15q-9 15 -19 49q-28 -34 -57 -64q-30 -30 -76 -71v444l37 80q13 31 29 72h289q37 0 62 -5v46q-24 -4 -62 -5h-517q-33 0 -53 4q-4 1 -9 1v-46q6 3 49 5h196l-12 -33q-16 -45 -31 -75q-12 -27 -33 -62q-21 -33 -46 -68q-24 -34 -49 -65q-42 -48 -65 -69
q-24 -21 -61 -39q30 -9 60 -29q94 102 178 221v-368zM575 745q-18 -18 -37 -35q87 -48 143 -127q12 15 34 35zM758 271q-16 -19 -32 -39q-27 81 -32 106q-12 49 -12 74q0 12 8 27q-27 3 -59 11l4 -25l12 -60q6 -27 20 -74q25 -108 82 -205q66 -109 190 -206q21 19 52 33
q-78 39 -134 98q-73 78 -115 179q18 27 50 64l62 71q39 39 67 52q-30 19 -50 44l-72 -99q-24 -25 -41 -51v0z" />
  </g>

</svg>
