<?xml version="1.0" standalone="no"?>
<!DOCTYPE svg PUBLIC "-//W3C//DTD SVG 1.1//EN" "http://www.w3.org/Graphics/SVG/1.1/DTD/svg11.dtd" >
<svg xmlns="http://www.w3.org/2000/svg" xmlns:xlink="http://www.w3.org/1999/xlink" version="1.1" viewBox="-10 0 1034 1024">
  <g transform="matrix(1 0 0 -1 0 820)">
   <path fill="currentColor"
d="M199 -107q0 -31 -5 -62h48q-4 28 -5 62v623q48 94 67 135q24 52 35 64q7 12 34 26q-16 4 -29 10q-13 4 -41 18q-9 -36 -20 -64q-12 -31 -37 -82q-51 -111 -121 -212q-49 -69 -101 -93q43 -15 61 -25q30 34 56 70q25 36 58 86v-556zM650 770q-12 3 -28 10
q-21 -70 -74 -157q-75 -112 -167 -183q-51 -39 -115 -57q36 -21 54 -39q90 57 163 132q72 78 149 210q61 -103 140 -174q87 -76 194 -129q13 30 38 48q-88 13 -191 97q-91 75 -161 200q12 18 26 35q-15 4 -28 7zM931 218q-39 -4 -63 -5l-487 1q-16 1 -30 4v-46q30 3 60 5
h197q-33 -54 -71 -106q-39 -54 -96 -122q-34 -39 -69 -49q10 -18 21 -49q52 15 71 18q24 3 34 4l84 13l264 33q21 -30 30 -46l12 -21q4 -6 9 -14q24 21 38 28l-67 91l-93 118q-3 0 -13 -9l-12 -8q-3 -1 -12 -5q45 -48 87 -104l-171 -17l-190 -22l106 136l93 131l230 -1
l38 -4v46zM437 354q3 3 45 5l330 -1q15 0 30 -4v46q-24 -4 -62 -5h-281q-33 0 -54 4q-4 1 -8 1v-46z" />
  </g>

</svg>
