<?xml version="1.0" standalone="no"?>
<!DOCTYPE svg PUBLIC "-//W3C//DTD SVG 1.1//EN" "http://www.w3.org/Graphics/SVG/1.1/DTD/svg11.dtd" >
<svg xmlns="http://www.w3.org/2000/svg" xmlns:xlink="http://www.w3.org/1999/xlink" version="1.1" viewBox="-10 0 1034 1024">
  <g transform="matrix(1 0 0 -1 0 820)">
   <path fill="currentColor"
d="M889 578q57 -3 63 -6v47q-9 -3 -23 -3q-18 -1 -40 -3l-514 1q-13 1 -29 2q-4 1 -7 2t-5 1v-47q18 6 64 6h365q-46 -84 -122 -153q-15 10 -31 21q-6 4 -35 30q-43 37 -62 76q-19 -21 -40 -38l57 -52q15 -12 32 -27q21 -15 49 -38q-18 -18 -42 -35q-43 -30 -74 -47
q-111 -55 -190 -59q22 -27 36 -48q96 31 166 70q63 33 142 97q126 -81 305 -124q4 9 10 21q1 4 21 33q-73 0 -146 22q-88 30 -161 76q37 39 69 79q30 40 67 96h75zM332 -122q28 -24 43 -41q48 30 78 57q48 51 68 93q16 39 25 71q6 24 13 92q3 37 9 59q3 15 12 34
q-27 0 -60 5q1 -34 2 -57q0 -79 -15 -131q-30 -94 -84 -139q-31 -27 -91 -43zM577 763q-9 -10 -19 -19q67 -48 118 -109q15 24 31 37l-121 102q-4 -4 -9 -11zM777 245q6 -54 6 -82l-1 -285q-1 -10 -2 -26q0 -3 -3 -9h49q-4 19 -5 60v279q0 27 14 63h-58zM229 -106l-4 -56
q0 -3 -1 -5h48q-3 24 -5 48l1 711q3 9 10 17q13 34 30 63q12 24 24 42q15 24 33 37q-37 15 -61 27q-15 -46 -47 -118q-70 -144 -136 -234q-42 -55 -84 -79q31 -15 54 -34q19 24 48 68l90 138v-625z" />
  </g>

</svg>
