<?xml version="1.0" standalone="no"?>
<!DOCTYPE svg PUBLIC "-//W3C//DTD SVG 1.1//EN" "http://www.w3.org/Graphics/SVG/1.1/DTD/svg11.dtd" >
<svg xmlns="http://www.w3.org/2000/svg" xmlns:xlink="http://www.w3.org/1999/xlink" version="1.1" viewBox="-10 0 1034 1024">
  <g transform="matrix(1 0 0 -1 0 820)">
   <path fill="currentColor"
d="M202 -104q0 -31 -5 -62h49q-6 25 -6 62v643l64 146q15 33 44 51q-33 12 -63 29q-19 -70 -65 -175q-30 -69 -54 -112q-19 -36 -46 -74q-31 -46 -83 -84q33 -7 64 -22q24 34 47 70q22 37 54 94v-566zM893 591q3 0 63 -5v47q-24 -6 -63 -6h-412q34 70 48 89q10 15 36 30
q-30 9 -37 12q-10 3 -26 12q-63 -165 -158 -269q-37 -42 -82 -66q33 -12 55 -28q72 73 144 184h432zM578 154q72 -58 115 -112q3 3 12 16q3 6 15 18l-47 47q-24 24 -67 62q-10 -13 -28 -31zM644 383q-12 9 -37 30q-12 -16 -29 -32q42 -27 61 -44q22 -19 54 -60q7 13 23 25
l7 7q-34 36 -39 39zM440 245l-120 3q-12 3 -20 3v-47q3 3 29 5l109 1q-12 -186 -18 -237q30 3 61 5h335q-1 -19 -1 -40q-1 -24 -4 -30q-6 -13 -30 -22q-21 -3 -47 -4q-19 0 -53 7q10 -27 16 -50q67 1 110 13q42 13 46 88q0 19 1 38h48q37 0 62 -5v46q-43 -4 -78 -5h-32
l4 196h65q39 0 63 -6v47q-54 -6 -84 -6h-41l4 180q0 12 6 62q-55 -4 -77 -5l-303 1q-15 3 -42 4q3 -36 3 -62q0 -6 -12 -180zM464 14l12 196h346l-5 -196h-353zM479 245l13 201h334l-4 -201h-343z" />
  </g>

</svg>
