<?xml version="1.0" standalone="no"?>
<!DOCTYPE svg PUBLIC "-//W3C//DTD SVG 1.1//EN" "http://www.w3.org/Graphics/SVG/1.1/DTD/svg11.dtd" >
<svg xmlns="http://www.w3.org/2000/svg" xmlns:xlink="http://www.w3.org/1999/xlink" version="1.1" viewBox="-10 0 1010 1000">
   <path fill="currentColor"
d="M206 4q12 6 35 16q62 26 57 30q-2 4 -6 9q-11 12 -22 33q-7 13 -17 32q-25 44 -33 61v540q0 120 6 162h-95q11 -46 14 -160v-391q-18 37 -63 117q-8 14 -11 20q-23 -42 -55 -66q120 -148 190 -403zM819 10q19 2 54 5q53 4 48 7q0 1 -2 4q-16 26 -16 74v672v12
q29 92 -135 107q-3 -50 -38 -95q65 9 81 -4q18 -8 16 -61v-604q-1 -83 -8 -117zM290 68q18 0 105 6h143q24 -1 59 -3q28 -1 34 -1q-7 44 -8 87v320q1 63 8 131h-87q7 -38 8 -131v-338h-187v332q0 97 6 139h-85q7 -58 8 -141v-308q0 -66 -4 -93zM685 113q91 7 91 12q0 1 -2 7
q-18 39 -18 103v273q2 85 8 139h-83q7 -43 7 -145v-301v-10q1 -54 -3 -78zM425 197q16 3 52 6q30 2 31 4q1 3 -4 8q-10 13 -10 31q2 324 -29 414q-21 93 -152 203q-24 -22 -79 -47q144 -81 170 -185q18 -57 22 -153q5 -88 -1 -281zM540 625q69 69 141 159l-70 52
q-60 -94 -129 -165z" />
</svg>
