<?xml version="1.0" standalone="no"?>
<!DOCTYPE svg PUBLIC "-//W3C//DTD SVG 1.1//EN" "http://www.w3.org/Graphics/SVG/1.1/DTD/svg11.dtd" >
<svg xmlns="http://www.w3.org/2000/svg" xmlns:xlink="http://www.w3.org/1999/xlink" version="1.1" viewBox="-10 0 1034 1024">
  <g transform="matrix(1 0 0 -1 0 820)">
   <path fill="currentColor"
d="M212 -120q0 -31 -5 -62h48q-4 27 -5 62v684l41 82q27 60 36 68q9 12 33 21l-66 30q-25 -78 -64 -160q-21 -40 -52 -92q-30 -51 -55 -84q-45 -57 -91 -83q30 -6 62 -24l118 172v-614zM534 392q0 60 2 66q4 18 18 30q-16 1 -32 1q-12 0 -37 6q7 -51 11 -99l2 -126
q0 -120 -30 -194q-39 -93 -113 -160q-27 -22 -71 -38q22 -10 56 -33l47 47q43 48 76 94q57 84 67 201q3 21 4 49v156zM351 674q1 -28 5 -58l-1 -459l-4 -31h47q-4 27 -5 61v446h229v-434q0 -31 -5 -61h48q-4 27 -5 61l1 433l4 42q-27 -1 -56 -5l-215 1q-15 3 -43 4zM540 89
q36 -27 86 -82q48 -52 76 -99q15 18 32 38q-16 19 -119 132q-18 19 -39 41q-12 -12 -36 -30zM749 631q1 -33 5 -66l-1 -440l-4 -32h48q-4 27 -5 61l1 426q0 16 13 51h-57zM938 688q0 9 2 25q3 21 12 41h-57q1 -33 5 -66v-765q0 -34 -31 -41q-21 -3 -44 -4q-28 0 -63 8
q13 -31 17 -42q1 -6 3 -14q46 3 105 11q22 6 35 17q15 15 16 75v755z" />
  </g>

</svg>
