<?xml version="1.0" standalone="no"?>
<!DOCTYPE svg PUBLIC "-//W3C//DTD SVG 1.1//EN" "http://www.w3.org/Graphics/SVG/1.1/DTD/svg11.dtd" >
<svg xmlns="http://www.w3.org/2000/svg" xmlns:xlink="http://www.w3.org/1999/xlink" version="1.1" viewBox="-10 0 1034 1024">
  <g transform="matrix(1 0 0 -1 0 820)">
   <path fill="currentColor"
d="M222 -107q0 -21 -5 -60h48q-4 28 -5 60l1 685q7 19 18 38q4 9 5 11l12 24q7 21 16 33q9 21 45 37q-42 15 -67 28q-21 -63 -56 -138q-33 -70 -66 -123q-72 -111 -131 -152q33 -10 58 -26q31 43 58 84l69 112v-613zM319 -105q6 -4 24 -23q0 -3 14 -17q171 63 288 149
q105 -72 209 -107l63 -21q18 -4 35 -11q15 28 38 50q-84 6 -181 41q-33 12 -62 29q-27 15 -73 46q48 45 84 90q33 45 71 106q-60 -4 -80 -5l-277 1q-18 1 -32 4v-43q7 3 33 4h16q48 -79 128 -158q-75 -54 -144 -85q-42 -18 -80 -29q-42 -9 -81 -14zM761 188q-28 -42 -54 -73
q-24 -27 -61 -60q-70 66 -112 133h227zM346 339l4 -53q0 -48 -3 -73q-1 -4 -2 -10h47q-4 27 -5 60v45h517v-40q0 -30 -6 -59h49q-6 24 -6 61q0 30 3 48q0 15 3 29q-28 -1 -57 -5l-507 1l-38 4q0 -3 1 -8zM821 467h-353q-33 0 -53 4q-4 1 -9 1v-44q6 3 49 5l368 -1l42 -4
l-7 56l1 192q1 19 6 41q-45 -4 -57 -5l-380 1q-12 3 -24 4v-45q6 3 50 5h367v-86h-325q-33 0 -54 4q-4 1 -8 1v-45q30 3 61 5h326v-89z" />
  </g>

</svg>
