<?xml version="1.0" standalone="no"?>
<!DOCTYPE svg PUBLIC "-//W3C//DTD SVG 1.1//EN" "http://www.w3.org/Graphics/SVG/1.1/DTD/svg11.dtd" >
<svg xmlns="http://www.w3.org/2000/svg" xmlns:xlink="http://www.w3.org/1999/xlink" version="1.1" viewBox="-10 0 1034 1024">
  <g transform="matrix(1 0 0 -1 0 820)">
   <path fill="currentColor"
d="M220 -75q0 -40 -5 -60h46q-4 27 -5 60v662q27 58 58 115q12 21 38 33q-27 12 -59 31q-22 -81 -119 -254q-73 -123 -124 -150q36 -9 58 -22q69 103 85 133l27 47v-595zM837 230q22 0 53 -5q-3 27 -5 56l1 239l4 40q-55 -4 -85 -5h-130l-3 114h217q30 0 61 -5v44
q-39 -4 -61 -5l-504 1l-23 3q-4 1 -8 1v-44q30 4 58 5h220l3 -114l-186 1q-3 0 -43 4l6 -56l-1 -235q-4 -19 -5 -44q45 4 90 5h133q-6 -96 -58 -179q-72 48 -104 75q-36 27 -59 57q-3 -7 -30 -34q-3 0 -3 -2q3 -1 8 -5q7 -6 17 -12q18 -15 134 -98q4 -3 11 -7
q-69 -57 -132 -84q-42 -16 -115 -26q22 -27 30 -39l5 -8q75 24 129 51q49 27 122 86q54 -30 124 -57q51 -18 94 -30l144 -26q15 31 30 55q-27 -3 -45 -4q-81 0 -169 27q-69 21 -157 61q25 46 41 88q12 42 23 111h168zM447 264v109h189l-3 -109h-186zM447 406v115h188l1 -115
h-189zM671 264l4 109h173v-109h-177zM675 406v115h173v-115h-173z" />
  </g>

</svg>
