<?xml version="1.0" standalone="no"?>
<!DOCTYPE svg PUBLIC "-//W3C//DTD SVG 1.1//EN" "http://www.w3.org/Graphics/SVG/1.1/DTD/svg11.dtd" >
<svg xmlns="http://www.w3.org/2000/svg" xmlns:xlink="http://www.w3.org/1999/xlink" version="1.1" viewBox="-10 0 1010 1000">
   <path fill="currentColor"
d="M623 12q31 4 96 14q6 1 9 2q-2 4 -8 9q-16 11 -16 35q-2 48 -3 102q-1 25 -1 55v71h82q80 -4 141 -10v85q-42 -5 -141 -8h-80q0 84 30 215q44 -76 68 -163l85 46q0 5 -9 12q-17 14 -29 35q-54 93 -91 141q60 114 95 121q18 -11 16 -85q30 40 77 63q-16 98 -59 129
q-83 2 -181 -168q-52 52 -125 105q-21 -33 -63 -62q87 -36 159 -113q-41 -138 -44 -276h-125v135q61 -21 97 -39q-6 43 -6 79q-32 6 -91 28v188q2 59 -23 71q-12 14 -130 27q-7 -53 -30 -94q120 22 112 -39v-133l-129 47q-4 -52 -20 -85q49 -5 149 -34v-151h-28q-28 0 -89 7
q-17 2 -22 3v-85q38 7 105 8h34v-113l-90 24q-15 -39 -37 -72q141 -12 246 -75l33 39q19 21 28 32q-3 3 -17 5q-43 6 -92 25v135h123q-1 -34 -1 -96q-2 -150 -5 -192zM246 10q102 32 103 42q-18 3 -36 36q-31 50 -67 125v512q0 97 8 156h-93q10 -80 10 -154v-371
q-6 7 -24 38q-37 62 -64 100q-14 -41 -45 -85q114 -103 208 -399zM829 104q47 61 68 103l-74 41q-15 -37 -67 -107z" />
</svg>
