<?xml version="1.0" standalone="no"?>
<!DOCTYPE svg PUBLIC "-//W3C//DTD SVG 1.1//EN" "http://www.w3.org/Graphics/SVG/1.1/DTD/svg11.dtd" >
<svg xmlns="http://www.w3.org/2000/svg" xmlns:xlink="http://www.w3.org/1999/xlink" version="1.1" viewBox="-10 0 1034 1024">
  <g transform="matrix(1 0 0 -1 0 820)">
   <path fill="currentColor"
d="M229 -108q0 -36 -5 -62h47q-4 28 -5 62l1 652q3 12 26 49l39 75q4 15 15 26q12 21 37 34q-34 13 -63 29q-28 -84 -83 -185q-51 -96 -99 -156q-45 -55 -86 -81q36 -12 58 -28l118 168v-583zM578 544q-34 31 -57 54l-101 88q-10 -12 -21 -24q-7 -9 -10 -12q33 -21 74 -56
q54 -48 83 -83q4 4 7 8q1 0 3 3q6 9 17 19q1 3 5 3zM449 -99q0 -21 -5 -68h48q-4 18 -5 39l-1 204h390v-157q0 -31 -25 -36q-15 -3 -42 -4q-21 0 -52 7q12 -34 14 -56l83 8q18 3 35 11q24 15 25 71l1 485l4 43q-18 -1 -28 -2q-22 -3 -32 -3h-173v245q0 9 2 25q1 19 12 41
h-57q1 -33 5 -66v-245l-160 1q-1 0 -44 4q4 -54 5 -61v-486zM486 112v126h390v-126h-390zM486 274v133h390v-133h-390zM820 513q28 43 48 66q7 12 44 58q24 33 60 47q-3 1 -55 36q-63 -112 -149 -198q22 -7 41 -22q4 7 11 13v0z" />
  </g>

</svg>
