<?xml version="1.0" standalone="no"?>
<!DOCTYPE svg PUBLIC "-//W3C//DTD SVG 1.1//EN" "http://www.w3.org/Graphics/SVG/1.1/DTD/svg11.dtd" >
<svg xmlns="http://www.w3.org/2000/svg" xmlns:xlink="http://www.w3.org/1999/xlink" version="1.1" viewBox="-10 0 1034 1024">
  <g transform="matrix(1 0 0 -1 0 820)">
   <path fill="currentColor"
d="M212 -102q0 -34 -6 -61h48q-4 27 -5 61v654q55 118 70 141q6 10 11 16q6 12 30 26q-31 10 -66 27q-21 -67 -47 -126q-24 -54 -67 -127q-43 -70 -77 -111q-31 -34 -75 -60q25 -6 58 -29q27 31 52 69q30 42 74 109v-589zM635 575q-33 -90 -134 -194q-72 -69 -112 -94
q-40 -24 -104 -35q21 -18 31 -28q9 -9 16 -21q51 30 87 54q31 24 68 56q39 36 72 73q33 39 77 98q48 -69 97 -114q72 -67 146 -111l73 -43q15 21 50 47q-66 7 -158 68q-109 75 -183 186q10 21 27 42q-24 3 -53 16zM396 505q9 9 19 18l86 92q21 30 42 51q19 27 47 35
q-24 9 -37 16l-25 14q-36 -67 -86 -123q-52 -54 -98 -72q21 -9 40 -22zM472 -157q-4 28 -5 68v17h357v-14q0 -39 -6 -68h49q-3 34 -5 69l1 272l4 48q-49 -4 -61 -5l-337 1q-6 1 -14 2q-13 0 -30 2q1 -31 5 -64l-1 -291l-4 -37h47zM467 -36v230h357v-230h-357zM754 724
q-1 -3 -32 -33q90 -60 167 -156q9 16 32 38l-43 43l-64 57q-9 9 -22 21z" />
  </g>

</svg>
