<?xml version="1.0" standalone="no"?>
<!DOCTYPE svg PUBLIC "-//W3C//DTD SVG 1.1//EN" "http://www.w3.org/Graphics/SVG/1.1/DTD/svg11.dtd" >
<svg xmlns="http://www.w3.org/2000/svg" xmlns:xlink="http://www.w3.org/1999/xlink" version="1.1" viewBox="-10 0 1034 1024">
  <g transform="matrix(1 0 0 -1 0 820)">
   <path fill="currentColor"
d="M214 -92q0 -31 -5 -61h48q-4 27 -5 61v639l65 128q16 30 48 45q-28 12 -65 35q-12 -39 -29 -77q-18 -42 -47 -101q-21 -43 -52 -95q-34 -57 -48 -75q-43 -57 -81 -75q27 -12 39 -18q9 -3 19 -13q24 31 46 66l67 108v-567zM334 69q9 15 19 29l42 69l94 154v-409
q0 -30 -5 -61h49q-6 24 -6 61v374q99 -67 139 -125q13 24 31 45l-170 133v66h94q34 0 62 -5v46q-24 -4 -62 -5h-94v194q114 21 130 22l35 1q-15 16 -25 36q-3 9 -9 18q-66 -28 -169 -48q-108 -18 -160 -20q15 -22 21 -43q18 1 50 9q39 6 89 17v-186q-138 0 -160 2
q-15 3 -20 3v-46q49 4 76 5h99q-18 -48 -94 -173q-76 -121 -129 -162q34 -10 57 -22q7 10 16 21zM732 605l6 -65l-1 -391q-1 -13 -4 -32q-1 -3 -1 -7h49q-6 25 -6 62v368q0 7 2 24q3 21 12 41h-57zM929 684q0 9 2 25q1 19 12 41h-57q1 -33 5 -66l-1 -747q-1 -12 -3 -17
q-3 -10 -21 -16q-34 -9 -64 -10q-27 0 -58 4q12 -18 23 -54q7 1 22 3q51 6 53 7q39 7 64 21q22 15 23 77v732z" />
  </g>

</svg>
