<?xml version="1.0" standalone="no"?>
<!DOCTYPE svg PUBLIC "-//W3C//DTD SVG 1.1//EN" "http://www.w3.org/Graphics/SVG/1.1/DTD/svg11.dtd" >
<svg xmlns="http://www.w3.org/2000/svg" xmlns:xlink="http://www.w3.org/1999/xlink" version="1.1" viewBox="-10 0 1010 1000">
   <path fill="currentColor"
d="M232 -6q13 5 35 13q78 28 74 37q1 6 -8 11q-21 15 -35 45q-7 14 -21 41q-23 43 -25 54v516q0 138 10 188h-101q12 -33 12 -180v-369q-60 104 -80 135q-17 -36 -59 -78q137 -162 198 -413zM575 0q9 0 27 1q75 1 77 7q2 1 -2 8q-14 22 -14 52v222h53q95 0 175 -8
q-12 53 -12 173v341q2 57 -31 77q-31 22 -128 30q-7 -48 -39 -103q125 17 119 -30v-71h-350v34q0 113 8 154h-97q10 -47 10 -190v-244q0 -124 -8 -173q66 8 179 8h41v-190q0 -47 -8 -98zM808 44q7 3 21 10q76 36 72 42q-1 6 -14 14q-21 12 -32 27q-21 31 -65 107
q-18 -14 -68 -31q58 -74 86 -169zM425 54q67 105 89 153l-72 33q-49 -103 -91 -144zM800 356h-350v105h350v-105zM450 528v103h350v-103h-350z" />
</svg>
