<?xml version="1.0" standalone="no"?>
<!DOCTYPE svg PUBLIC "-//W3C//DTD SVG 1.1//EN" "http://www.w3.org/Graphics/SVG/1.1/DTD/svg11.dtd" >
<svg xmlns="http://www.w3.org/2000/svg" xmlns:xlink="http://www.w3.org/1999/xlink" version="1.1" viewBox="-10 0 1034 1024">
  <g transform="matrix(1 0 0 -1 0 820)">
   <path fill="currentColor"
d="M882 711l-35 -3h-377q-45 0 -66 5v-46q33 3 66 5h343q-34 -37 -63 -66q-25 -25 -58 -52q-18 12 -63 39q-16 9 -33 18q-12 -21 -25 -35q87 -46 111 -63l66 -43l26 37q-22 13 -46 27q16 18 71 68q60 57 107 106q1 3 4 5q-15 0 -28 -2zM941 403q4 60 6 71l-60 -6l-415 1
q-6 0 -50 5q0 -9 5 -71l-1 -526q-3 -27 -4 -35h48q-3 30 -5 59v185h196v-137q0 -21 -3 -51q0 -4 -2 -9h48q-4 49 -5 69v128h205v-152q0 -31 -19 -41q-24 -9 -55 -9q-16 0 -42 4q9 -25 15 -49q31 3 62 10q46 9 61 27t15 58v469zM465 121v129h196v-129h-196zM465 285v147h196
v-147h-196zM699 121v129h205v-129h-205zM699 285v147h205v-147h-205zM56 337q3 -1 10 -4q15 -6 35 -18q6 7 12 17q27 40 50 68q49 72 63 94l-1 -618l-4 -37h48q-4 49 -5 60v657q9 18 9 20q12 25 27 51q24 49 32 61q18 33 41 51q-33 13 -59 26q-21 -63 -66 -152
q-72 -126 -122 -194q-45 -55 -81 -78q4 -1 11 -4v0z" />
  </g>

</svg>
