<?xml version="1.0" standalone="no"?>
<!DOCTYPE svg PUBLIC "-//W3C//DTD SVG 1.1//EN" "http://www.w3.org/Graphics/SVG/1.1/DTD/svg11.dtd" >
<svg xmlns="http://www.w3.org/2000/svg" xmlns:xlink="http://www.w3.org/1999/xlink" version="1.1" viewBox="-10 0 1010 1000">
   <path fill="currentColor"
d="M220 -6q101 30 107 46q-1 3 -6 5q-13 6 -23 25q-15 28 -37 79q-14 33 -23 52v452q101 -93 167 -280h-24q-84 -1 -103 8v-81q24 5 107 8h46v-145q3 0 -27 8q-52 14 -83 24q-5 -34 -41 -76q174 -7 305 -81q38 41 66 81q-4 4 -23 4q-27 0 -47 4l-15 3q-55 12 -68 17v163h22
q68 0 99 -8v81q-64 -8 -105 -8h-16v112l50 -28q54 52 109 123l-74 49q-39 -74 -85 -121v256q1 117 10 137h-87q6 -16 9 -54q3 -41 1 -83v-305q-34 108 -133 262q-19 -27 -60 -60v87v22q-2 106 10 127h-95q10 -33 10 -147v-416l-88 154q-11 -27 -57 -73q155 -168 202 -423z
M813 34q101 4 106 12q1 2 -3 11q-16 39 -17 100v643q4 56 -25 70q-25 19 -136 31q-1 -55 -38 -107q74 19 96 11q22 -5 21 -47v-631q0 -55 -4 -93zM661 161q104 7 105 18q0 2 -3 6q-21 21 -19 79v308q0 101 6 125h-87q9 -43 6 -125v-316q-1 -50 -8 -95z" />
</svg>
