<?xml version="1.0" standalone="no"?>
<!DOCTYPE svg PUBLIC "-//W3C//DTD SVG 1.1//EN" "http://www.w3.org/Graphics/SVG/1.1/DTD/svg11.dtd" >
<svg xmlns="http://www.w3.org/2000/svg" xmlns:xlink="http://www.w3.org/1999/xlink" version="1.1" viewBox="-10 0 1010 1000">
   <path fill="currentColor"
d="M216 -6q114 28 115 34q-1 2 -6 6q-21 18 -35 52q-17 39 -38 96q-6 15 -8 21v543q0 71 2 101q1 36 6 54h-95q9 -47 8 -155v-400q-29 69 -92 170q-16 -34 -59 -73q146 -154 202 -449zM345 54q37 7 169 8h186q142 0 211 -8v85q-40 -15 -266 135h109q79 0 135 -6
q-6 48 -6 119v417q6 50 -21 67q-26 19 -116 26q-9 -61 -40 -97q74 10 87 4q18 -3 15 -34v-89h-159v75q0 71 8 100h-92q7 -32 8 -106v-69h-146v61q0 120 8 147h-92q11 -46 8 -149v-347q0 -62 -6 -125q29 3 127 6h88q-2 -2 -10 -8q-70 -53 -98 -69l74 -48q16 14 43 39
q27 26 36 33q54 -36 141 -90h-234q-114 1 -167 8v-85zM649 338v111h159v-111h-159zM427 338v111h146v-111h-146zM573 512h-146v105h146v-105zM649 512v105h159v-105h-159z" />
</svg>
