<?xml version="1.0" standalone="no"?>
<!DOCTYPE svg PUBLIC "-//W3C//DTD SVG 1.1//EN" "http://www.w3.org/Graphics/SVG/1.1/DTD/svg11.dtd" >
<svg xmlns="http://www.w3.org/2000/svg" xmlns:xlink="http://www.w3.org/1999/xlink" version="1.1" viewBox="-10 0 1010 1000">
   <path fill="currentColor"
d="M218 14q106 25 119 34q2 4 -7 11q-20 15 -30 37q-14 29 -32 77q6 0 128 99q37 29 58 46q-33 23 -73 61q-24 -32 -106 -109q-23 -22 -35 -33q-45 92 -131 204q-30 -26 -81 -48q157 -129 190 -379zM875 64q-7 62 -8 159v581q66 -2 95 -8v93q-86 -7 -178 -8h-244
q-117 1 -187 6v-91q45 8 113 8v-593q-1 -83 -8 -147q76 8 173 8h79q96 0 165 -8zM550 149v173h234v-173h-234zM550 391v169h234v-169h-234zM212 395q112 18 111 28q0 1 -5 7q-20 20 -26 39q-3 12 -11 38q-8 28 -13 45q32 23 126 103q34 29 54 46q-35 21 -67 53l-10 10
q-35 -55 -125 -143q-53 131 -131 244q-38 -36 -85 -51q160 -140 182 -419zM550 629v175h234v-175h-234z" />
</svg>
