<?xml version="1.0" standalone="no"?>
<!DOCTYPE svg PUBLIC "-//W3C//DTD SVG 1.1//EN" "http://www.w3.org/Graphics/SVG/1.1/DTD/svg11.dtd" >
<svg xmlns="http://www.w3.org/2000/svg" xmlns:xlink="http://www.w3.org/1999/xlink" version="1.1" viewBox="-10 0 1034 1024">
  <g transform="matrix(1 0 0 -1 0 820)">
   <path fill="currentColor"
d="M182 437q18 30 38 58v-603q0 -31 -5 -62h48q-4 28 -5 62v672q75 144 79 148q13 18 39 27q-40 15 -68 30q-10 -39 -52 -125q-37 -75 -78 -142q-84 -130 -144 -168l44 -17q7 -3 17 -8q43 61 52 76q16 27 35 52zM896 156q16 0 63 -5v46q-39 -4 -63 -5h-242q6 30 6 48l10 117
h151q42 0 62 -6v46q-27 -4 -62 -5h-326q18 33 28 46q10 15 33 25q-36 13 -63 32l268 16l109 7q39 -40 55 -69q9 15 29 33q4 3 10 8q-64 69 -113 107l-108 92q-21 -24 -34 -38q75 -49 126 -100l-387 -21l103 103q27 24 52 51q34 39 72 49q-25 21 -35 26l-21 18
q-28 -43 -54 -73q-27 -33 -84 -88q-42 -42 -68 -62q-24 -18 -49 -26q12 -21 19 -47q48 7 105 14q-9 -39 -23 -68q-15 -30 -46 -79q-45 -66 -101 -98q36 -9 63 -25q78 108 94 132h154q0 -37 -4 -68q-3 -34 -12 -97h-217q-34 0 -61 5v-46q30 3 60 5h209q-42 -133 -131 -210
q-87 -69 -170 -79q21 -18 43 -44q36 15 96 52q93 58 148 147q30 49 55 127q84 -186 305 -306q10 21 23 31l20 20q-82 15 -154 73q-102 79 -156 189h213z" />
  </g>

</svg>
