<?xml version="1.0" standalone="no"?>
<!DOCTYPE svg PUBLIC "-//W3C//DTD SVG 1.1//EN" "http://www.w3.org/Graphics/SVG/1.1/DTD/svg11.dtd" >
<svg xmlns="http://www.w3.org/2000/svg" xmlns:xlink="http://www.w3.org/1999/xlink" version="1.1" viewBox="-10 0 1034 1024">
  <g transform="matrix(1 0 0 -1 0 820)">
   <path fill="currentColor"
d="M998 466q-16 1 -52 10q-64 18 -138 53q-187 99 -265 213l25 12q-28 15 -37 17q-15 6 -21 11q-3 0 -6 3q-12 -36 -72 -103q-78 -87 -214 -177q-97 -61 -180 -84q30 -21 49 -40q106 57 189 116q69 51 125 99q52 49 114 117q105 -138 303 -237q97 -45 137 -57q3 3 10 12
q15 21 22 26q4 4 11 9zM194 -73q0 -37 -5 -76h48q-4 24 -5 76v146h240v-115q0 -48 -25 -55q-18 -3 -40 -3q-9 0 -30 3q-15 0 -28 3q12 -28 18 -55q54 6 89 12q6 3 15 5q39 18 39 74l1 399l4 45l-63 -6q-204 0 -238 3l-25 3q1 -31 5 -64v-395zM232 108v106h240v-106h-240z
M232 249v96h240v-96h-240zM752 501q-55 -4 -67 -5q-375 3 -385 5v-46q12 3 20 3q21 1 45 3l380 -4q3 0 7 -2v46zM636 329q4 -66 5 -101q0 -162 -2 -196l-3 -20h48q-4 27 -5 77v173q0 36 14 67h-57zM847 336q0 36 15 66h-58l5 -91l-1 -373q-3 -18 -11 -25q-18 -9 -55 -10
q-24 3 -54 3q12 -21 23 -52q49 3 79 11q57 15 57 81v390z" />
  </g>

</svg>
