<?xml version="1.0" standalone="no"?>
<!DOCTYPE svg PUBLIC "-//W3C//DTD SVG 1.1//EN" "http://www.w3.org/Graphics/SVG/1.1/DTD/svg11.dtd" >
<svg xmlns="http://www.w3.org/2000/svg" xmlns:xlink="http://www.w3.org/1999/xlink" version="1.1" viewBox="-10 0 1010 1000">
   <path fill="currentColor"
d="M238 6q105 27 105 34q0 3 -6 9q-16 15 -25 39q-46 103 -62 139v492q0 124 6 158h-95q7 -38 10 -160v-326q-28 56 -66 113q-5 -7 -15 -19q-26 -33 -44 -50q106 -102 192 -429zM837 22q74 90 64 90q-2 3 -15 2q-39 -2 -96 3q-10 1 -34 3q-274 26 -389 35q-7 -37 -38 -79
q336 10 508 -54zM790 155q10 4 28 12q75 32 69 34q-1 1 -4 3q-37 28 -107 148q-33 -15 -66 -26q54 -80 80 -171zM623 169q24 58 34 139l-80 16q-1 -72 -35 -141zM442 193q34 80 46 131l-79 18q-12 -69 -48 -133zM879 365v92q-35 4 -193 82q-10 5 -15 7v32h123q84 0 139 -8
v79q-69 -8 -135 -8h-127v177q2 39 -29 52q-29 14 -128 19q-9 -52 -34 -89q72 12 91 2q21 -7 20 -52v-109h-133q-101 3 -145 10v-81q76 8 141 8h137v-60q42 -13 146 -70q14 -8 19 -11h-270q-92 1 -121 8v-78q30 6 127 6h260q93 -1 127 -8z" />
</svg>
