<?xml version="1.0" standalone="no"?>
<!DOCTYPE svg PUBLIC "-//W3C//DTD SVG 1.1//EN" "http://www.w3.org/Graphics/SVG/1.1/DTD/svg11.dtd" >
<svg xmlns="http://www.w3.org/2000/svg" xmlns:xlink="http://www.w3.org/1999/xlink" version="1.1" viewBox="-10 0 1010 1000">
   <path fill="currentColor"
d="M256 2q80 30 103 50q-1 6 -16 16t-20 18q-1 1 -19 34q-35 68 -66 124v502q0 121 8 143h-87q8 -31 8 -145v-371q-13 21 -37 59q-38 62 -55 86q-23 -53 -53 -81q132 -123 234 -435zM478 121v157h288v-157h-288zM248 770q158 -68 258 -250h-89q-90 -1 -121 8v-83q17 8 117 8
h160v-107h-59q-40 0 -98 5q-18 1 -23 1v-5q6 -57 6 -99v-101q0 -60 -6 -99q42 6 105 6h236q60 0 117 -6q-6 45 -6 111v78q0 16 4 77q2 33 2 38q-101 -6 -125 -6h-77v107h149q91 0 127 -6v87q-36 -15 -127 -14h-100q84 167 258 250q-45 34 -75 78q-173 -114 -232 -318v220
q0 78 6 127q2 9 2 14h-92q8 -33 8 -141v-214q-85 179 -240 302q-24 -29 -85 -68z" />
</svg>
