<?xml version="1.0" standalone="no"?>
<!DOCTYPE svg PUBLIC "-//W3C//DTD SVG 1.1//EN" "http://www.w3.org/Graphics/SVG/1.1/DTD/svg11.dtd" >
<svg xmlns="http://www.w3.org/2000/svg" xmlns:xlink="http://www.w3.org/1999/xlink" version="1.1" viewBox="-10 0 1010 1000">
   <path fill="currentColor"
d="M230 2q118 35 111 38q-1 3 -6 7q-17 15 -33 51q-16 34 -37 84q-17 40 -25 56v451q3 161 10 204h-95q10 -60 10 -200v-300q-2 3 -5 9q-45 75 -75 120q-24 -48 -49 -89q129 -138 194 -431zM343 72q28 7 115 8h328q137 -3 156 -8v79q-34 -6 -144 -8h-72v127h78q64 -1 97 -4
q-4 21 -6 90v424q3 67 -24 80q-24 18 -135 23q-2 -50 -38 -99q131 22 121 -40v-410h-95l-6 99q8 16 49 116q27 69 45 112q-20 3 -68 32q-13 -88 -44 -169q-21 119 -85 238q-32 -24 -71 -25q114 -148 115 -403h-99l-4 75q9 26 44 107q13 30 19 44q-30 15 -50 30
q-16 -66 -31 -96q-24 146 -58 227q-37 -16 -75 -26q76 -117 89 -361h-91v335q1 157 4 198h-92q10 -41 12 -200v-274q0 -106 -4 -133q28 7 100 10h73v-127h-40h-9q-80 4 -104 8v-79zM659 143h-97v127h97v-127z" />
</svg>
