<?xml version="1.0" standalone="no"?>
<!DOCTYPE svg PUBLIC "-//W3C//DTD SVG 1.1//EN" "http://www.w3.org/Graphics/SVG/1.1/DTD/svg11.dtd" >
<svg xmlns="http://www.w3.org/2000/svg" xmlns:xlink="http://www.w3.org/1999/xlink" version="1.1" viewBox="-10 0 1034 1024">
  <g transform="matrix(1 0 0 -1 0 820)">
   <path fill="currentColor"
d="M68 349q6 -1 34 -16q34 48 60 84q22 34 50 80v-603q0 -31 -5 -62h48q-4 28 -5 62v668q34 79 61 125q15 33 48 47l-33 12q-15 6 -34 16q-33 -103 -106 -231q-42 -72 -73 -110q-30 -33 -72 -61q13 -4 27 -11zM918 313q36 0 62 -5v46q-19 -4 -62 -5h-163v295h133q33 0 63 -5
v46q-31 -1 -63 -5l-476 1q-16 1 -30 4v-46q49 4 76 5h105v-295q-96 0 -122 2q-6 3 -36 3q6 -60 6 -93q-1 -73 -9 -143q-12 -96 -52 -164q-24 -42 -78 -81q25 -6 36 -9q9 -3 28 -12q94 126 105 264l8 94q3 45 4 103h465zM601 349v295h116v-295h-116zM357 545q30 -19 69 -59
q36 -34 58 -68q10 13 35 32q-36 39 -61 63l-70 67q-18 -25 -31 -35zM776 456q18 -10 34 -28q102 114 109 118q9 7 31 12q-18 12 -48 41q-57 -78 -126 -143v0z" />
  </g>

</svg>
