<?xml version="1.0" standalone="no"?>
<!DOCTYPE svg PUBLIC "-//W3C//DTD SVG 1.1//EN" "http://www.w3.org/Graphics/SVG/1.1/DTD/svg11.dtd" >
<svg xmlns="http://www.w3.org/2000/svg" xmlns:xlink="http://www.w3.org/1999/xlink" version="1.1" viewBox="-10 0 1010 1000">
   <path fill="currentColor"
d="M228 -10q96 34 97 50q-2 8 -12 18q-15 14 -25 30q-12 18 -43 77q-14 27 -23 44v531q0 122 4 163h-81q5 -60 6 -163v-402q-49 73 -76 119q-34 -60 -49 -74q127 -144 202 -393zM552 -2q93 22 93 34q-2 7 -13 15q-10 7 -15 13q-8 9 -23 29q-9 11 -11 13l205 -4q14 -1 41 -4
q47 -3 64 -6q3 0 3 1q1 2 -1 5q-82 144 -163 218q66 34 232 61q-31 39 -45 92q-181 -57 -242 -105q-20 19 -235 128q-18 -50 -57 -75q126 -35 236 -97q-48 -46 -87 -111q-19 36 -94 129q-25 -24 -69 -42q120 -109 181 -294zM774 159l-203 4q34 55 106 113q60 -61 97 -117z
M692 403q67 65 60 78q-3 3 -17 4q-22 2 -37 9q-10 5 -53 30q-122 70 -163 88q-28 -43 -63 -66q156 -41 273 -143zM782 506q64 61 61 80q-1 2 -9 2q-19 2 -30 8q-12 6 -55 30q-176 100 -259 128q-31 -45 -65 -69q228 -55 357 -179zM861 610q67 61 68 81q-2 4 -14 5
q-14 1 -20 5q-13 8 -44 28q-179 129 -420 178q-28 -46 -56 -83q292 -22 486 -214zM369 701h-87q6 -46 9 -251q2 -98 1 -169q0 -68 -2 -82q84 -4 89 6q1 6 -6 19q-5 9 -6 14q-3 75 -3 254q1 136 5 209z" />
</svg>
