<?xml version="1.0" standalone="no"?>
<!DOCTYPE svg PUBLIC "-//W3C//DTD SVG 1.1//EN" "http://www.w3.org/Graphics/SVG/1.1/DTD/svg11.dtd" >
<svg xmlns="http://www.w3.org/2000/svg" xmlns:xlink="http://www.w3.org/1999/xlink" version="1.1" viewBox="-10 0 1034 1024">
  <g transform="matrix(1 0 0 -1 0 820)">
   <path fill="currentColor"
d="M196 473v-581q0 -31 -5 -62h48q-4 28 -5 62v653q12 28 26 56q16 34 24 52l8 16q24 48 54 64q-30 9 -68 27q-18 -66 -60 -156q-30 -63 -55 -109q-21 -40 -49 -78q-25 -36 -39 -50q-13 -15 -46 -37q21 -9 31 -13q9 -3 26 -15q30 43 72 110q18 31 38 61zM323 520q0 -3 1 -8
q4 -18 5 -57v-370q0 -30 -6 -62h49q-6 31 -6 62v370q0 7 3 24q1 21 11 41h-57zM840 658q-21 -1 -42 -5h-218q16 34 31 57q15 21 38 34q-36 12 -61 24q-27 -79 -79 -159q-58 -84 -119 -113q1 0 4 -1q9 -3 18 -8q16 -4 32 -19q57 61 116 150h229q-51 -87 -123 -155
q-51 37 -66 52q-18 18 -35 41q-19 -24 -32 -36l103 -80q-64 -48 -128 -79q-48 -21 -118 -30q24 -24 36 -47q81 31 137 62q52 27 111 71q99 -60 293 -107q3 15 7 22q3 4 17 30q-82 3 -138 20q-84 24 -150 61q46 51 80 95q31 46 76 121q-10 0 -19 -1zM961 76l-54 44
q-90 -99 -244 -171q-141 -66 -256 -70q22 -22 40 -47q94 27 187 64q118 49 251 143q36 27 43 29q9 4 33 8zM567 180q28 15 53 30q21 16 102 64q4 4 20 10t34 9q-25 22 -46 49q-39 -40 -66 -60q-31 -22 -83 -51q-82 -45 -151 -54q24 -22 42 -46q9 6 32 16zM447 27
q18 -15 25 -25q6 -9 15 -20q78 30 133 60q61 33 132 78l71 46q16 9 43 12q-33 30 -48 50q-25 -30 -62 -56q-58 -42 -97 -67q-123 -69 -212 -78v0z" />
  </g>

</svg>
