<?xml version="1.0" standalone="no"?>
<!DOCTYPE svg PUBLIC "-//W3C//DTD SVG 1.1//EN" "http://www.w3.org/Graphics/SVG/1.1/DTD/svg11.dtd" >
<svg xmlns="http://www.w3.org/2000/svg" xmlns:xlink="http://www.w3.org/1999/xlink" version="1.1" viewBox="-10 0 1010 1000">
   <path fill="currentColor"
d="M224 -4q113 33 119 46q0 3 -10 13q-19 19 -27 35q-23 44 -54 117v541q0 11 1 34q2 99 9 113h-95q10 -44 10 -141v-396q-37 65 -86 156q-13 -30 -65 -69q148 -164 198 -449zM262 586q103 -44 194 -165h-45q-88 1 -117 8v-77q31 7 123 8h65q15 -24 24 -60h-54
q-88 -3 -121 6v-73q30 7 117 7h70q0 -2 1 -5q3 -11 9 -56h-84q-104 0 -129 8v-75q46 6 127 7h90q3 -62 0 -119q96 10 113 20q0 3 -5 7q-14 10 -21 39q-3 10 -8 42q-1 8 -2 11h139q121 -3 151 -7v75q-36 -9 -149 -8h-147q-5 19 -13 54q-1 5 -1 7h113q107 0 151 -7v75
q-35 -9 -147 -8h-127l-19 60h218q97 0 147 -8v77q-36 -9 -139 -8h-60q93 114 226 129q-40 35 -57 85q-106 -50 -133 -79v63q-27 -6 -111 -6h-20v74h91q87 -1 157 -10v79q-21 -5 -56 -7q-17 0 -40 -1h-61h-91v26q0 102 8 125h-87q9 -35 8 -125v-26h-96q-107 -1 -143 8v-79
q19 3 113 8q21 1 32 2h94v-74h-12q-41 -1 -105 4h-5v-63q14 2 110 2h12v-14q0 -42 -6 -73q87 1 95 10q0 2 -4 7q-14 20 -14 54v18h18q76 -1 103 -8q-44 -45 -85 -129h-133q-88 142 -213 228q-14 -35 -59 -63z" />
</svg>
