<?xml version="1.0" standalone="no"?>
<!DOCTYPE svg PUBLIC "-//W3C//DTD SVG 1.1//EN" "http://www.w3.org/Graphics/SVG/1.1/DTD/svg11.dtd" >
<svg xmlns="http://www.w3.org/2000/svg" xmlns:xlink="http://www.w3.org/1999/xlink" version="1.1" viewBox="-10 0 1010 1000">
   <path fill="currentColor"
d="M224 -17q12 4 33 12q84 27 76 31q-1 4 -14 19q-14 15 -17 21q-41 88 -72 141v520q2 134 4 182h-93q8 -47 14 -182v-379q-6 10 -21 39q-42 80 -55 92q-31 -46 -63 -70q140 -147 208 -426zM641 187h-76q-73 122 -162 194q6 2 23 3q14 1 58 1h72q0 -7 -1 -22q-2 -78 -11 -97
q105 3 101 10q1 3 -3 10q-14 31 -13 99h107q48 -1 62 -4q-117 -77 -157 -194zM427 437v79h129v-79h-129zM627 437v79h131v-79h-131zM427 564v81h129v-81h-129zM627 564v81h131v-81h-131zM238 403q151 -71 244 -216h-55q-60 1 -127 10v-84q76 9 138 10h72q23 -64 30 -136
q8 1 23 3q93 9 86 20l-4 8q-22 32 -52 105h155q134 -6 177 -13v87q-24 -6 -143 -8h-74q84 132 260 157q-35 32 -59 91q-50 -22 -76 -38q-4 27 -4 91v118q0 23 6 95q-22 -4 -91 -6h-117v77q0 39 50 38h93q48 1 63 -20q18 -19 26 -87q51 38 87 47q-25 84 -54 104
q-26 23 -110 21h-131q-97 2 -95 -83v-97h-129q0 57 4 91h-82q5 -65 6 -135v-230q-38 33 -59 48q-8 -9 -29 -34q-18 -22 -29 -34z" />
</svg>
