<?xml version="1.0" standalone="no"?>
<!DOCTYPE svg PUBLIC "-//W3C//DTD SVG 1.1//EN" "http://www.w3.org/Graphics/SVG/1.1/DTD/svg11.dtd" >
<svg xmlns="http://www.w3.org/2000/svg" xmlns:xlink="http://www.w3.org/1999/xlink" version="1.1" viewBox="-10 0 1034 1024">
  <g transform="matrix(1 0 0 -1 0 820)">
   <path fill="currentColor"
d="M45 317q4 0 43 -16l2 -1q61 90 106 161v-565q0 -40 -5 -63h47q-4 52 -5 105v589q72 165 78 171q12 27 39 44q-42 13 -68 29q-10 -48 -28 -96q-39 -90 -77 -165q-46 -81 -80 -130q-28 -39 -59 -60q3 -1 7 -3zM665 589q51 -79 117 -135q60 -51 176 -107q6 12 12 19
q4 9 25 30q-94 21 -169 74q-75 54 -112 119l185 -1l36 -4v46q-28 -1 -58 -5h-258l13 33q7 21 16 42q1 4 4 10q10 19 33 35q-36 3 -67 15q-12 -75 -46 -135h-191q-33 0 -45 3q1 0 -14 2v-46q22 4 59 5h171q-118 -178 -275 -216q33 -19 52 -41q99 63 160 119q57 54 112 138h64
zM616 379l-163 1q-15 3 -43 4q1 -30 5 -61l-1 -241q0 -1 -4 -43q54 6 80 6h126v-95q0 -45 15 -67q15 -21 70 -29q34 -4 70 -5q40 0 83 6q55 9 77 44q16 30 30 74q-12 3 -50 22q-3 -51 -13 -71q-15 -30 -62 -33q-39 -3 -68 -4q-27 0 -52 4q-30 3 -45 11q-18 13 -18 54v89
l184 -1q12 0 42 -5q-3 30 -5 61l1 241l4 43q-28 -1 -58 -5h-168v49q0 6 3 24q1 15 11 38h-57q6 -24 6 -62v-49zM452 80v115h164v-115h-164zM452 231v112h164v-112h-164zM653 80v115h183v-115h-183zM653 231v112h183v-112h-183z" />
  </g>

</svg>
