<?xml version="1.0" standalone="no"?>
<!DOCTYPE svg PUBLIC "-//W3C//DTD SVG 1.1//EN" "http://www.w3.org/Graphics/SVG/1.1/DTD/svg11.dtd" >
<svg xmlns="http://www.w3.org/2000/svg" xmlns:xlink="http://www.w3.org/1999/xlink" version="1.1" viewBox="-10 0 1010 1000">
   <path fill="currentColor"
d="M534 -8l12 3q94 24 89 31q0 1 -5 7q-20 22 -41 57h121q90 0 161 -6q-49 135 -141 242q48 16 114 22t122 0q-30 38 -47 97q-164 -20 -252 -68q-80 49 -202 97q-23 9 -34 13q-16 -30 -60 -64v175q0 69 6 99h-87q6 -29 6 -103v-316q-1 -56 -6 -91q90 0 93 8q1 2 -2 7
q-10 23 -10 78v129q148 -20 242 -79q-32 -32 -69 -79q-15 -19 -24 -30q-50 73 -74 109q-21 -31 -69 -50q108 -66 157 -288zM218 -6q101 25 111 36q1 2 -5 9q-23 25 -40 63q-8 18 -22 47q-25 55 -38 86v515q0 129 8 145h-89q8 -27 8 -139v-400q-26 39 -79 126q-5 8 -7 12
q-22 -37 -55 -73q168 -191 208 -427zM756 155h-200q47 77 115 135q44 -45 85 -135zM603 425q86 1 105 10q0 4 -4 10q-12 17 -16 43q0 3 -1 9q-4 37 -4 55h121q86 1 121 -8v85q-39 -8 -121 -8h-125q-2 8 -6 32q164 94 265 157q-41 43 -67 75q-108 -90 -224 -164
q-57 108 -240 182q-30 -43 -80 -79q237 -26 276 -203h-69q-54 0 -76 1q-26 2 -45 7v-85q31 9 115 8h79q0 -94 -4 -127zM800 437q22 29 43 83l-69 22q-13 -39 -40 -81z" />
</svg>
