<?xml version="1.0" standalone="no"?>
<!DOCTYPE svg PUBLIC "-//W3C//DTD SVG 1.1//EN" "http://www.w3.org/Graphics/SVG/1.1/DTD/svg11.dtd" >
<svg xmlns="http://www.w3.org/2000/svg" xmlns:xlink="http://www.w3.org/1999/xlink" version="1.1" viewBox="-10 0 1034 1024">
  <g transform="matrix(1 0 0 -1 0 820)">
   <path fill="currentColor"
d="M348 531l-4 -55q0 -1 -1 -4h48q-3 27 -5 55v69h535v-51q0 -21 -3 -51q0 -6 -2 -10h48q-3 24 -5 50q0 57 2 69q0 16 3 34q-30 -1 -62 -5h-204l34 32l-70 64q-22 19 -59 49q-1 -1 -2 -3l-29 -28q33 -24 66 -54q28 -25 54 -60l-305 1q-19 3 -44 4q1 -30 5 -61v-45zM444 -108
q-4 -57 -5 -60h48q-3 24 -5 47v37h394l-4 -77q-1 0 -1 -3v-2h48q-3 24 -5 50l1 229l4 44q-30 -1 -61 -5h-376v108l343 -1l44 -4q-4 49 -5 74l1 106l4 44l-101 -5l-280 1q-7 1 -15 2q-15 0 -34 2q1 -30 5 -62v-525zM876 -48h-394v164h394v-164zM482 296v142h344v-142h-344z
M186 431q7 10 16 25l-1 -590l-4 -37h49q-4 9 -5 38l-1 660q54 126 62 142q6 16 13 33q7 15 30 33q-33 16 -49 23q-6 3 -11 6q-24 -85 -55 -161q-43 -99 -110 -198q-36 -51 -76 -80q10 -4 20 -10t29 -20q27 33 62 87q15 25 31 49v0z" />
  </g>

</svg>
