<?xml version="1.0" standalone="no"?>
<!DOCTYPE svg PUBLIC "-//W3C//DTD SVG 1.1//EN" "http://www.w3.org/Graphics/SVG/1.1/DTD/svg11.dtd" >
<svg xmlns="http://www.w3.org/2000/svg" xmlns:xlink="http://www.w3.org/1999/xlink" version="1.1" viewBox="-10 0 1034 1024">
  <g transform="matrix(1 0 0 -1 0 820)">
   <path fill="currentColor"
d="M199 -92q0 -31 -5 -61h48q-4 27 -5 61v675q30 63 43 96q24 51 32 63q9 12 29 24q-31 7 -65 27q-12 -45 -26 -83q-13 -36 -32 -75q-21 -46 -43 -83q-21 -36 -56 -85q-39 -54 -87 -87q28 -9 54 -27q36 43 113 167v-612zM325 523q0 -3 1 -8q4 -18 5 -57v-318q0 -25 -6 -62
h49q-4 24 -5 62v318q0 7 2 24q1 21 11 41h-57zM898 160q42 0 64 -5v47q-19 -6 -64 -6h-224q1 36 10 110l6 54h145q36 0 62 -5v47q-60 -6 -81 -6h-268q12 28 23 44q10 18 33 32q-36 7 -60 21q-36 -97 -70 -147q-40 -58 -86 -82q30 -9 53 -27q45 57 89 123h117l-7 -87
q-3 -34 -9 -77l-191 1q-18 3 -36 5v-47q27 4 61 5h161q-15 -51 -29 -85q-33 -67 -84 -103q-81 -54 -177 -66q21 -16 44 -47q96 39 144 72q51 36 87 88q19 30 30 57q13 31 29 83q36 -112 118 -190q54 -51 160 -102q16 27 46 50q-93 18 -164 72q-70 51 -118 171h186zM761 557
l-318 1q-19 3 -29 4v-46q30 3 60 5l452 -1l33 -4v46q-18 -4 -63 -5h-95l19 62l20 63q6 21 17 51q-30 -1 -59 -5l-282 1q-12 1 -21 3q-4 1 -9 1v-46q6 3 49 5h267z" />
  </g>

</svg>
