<?xml version="1.0" standalone="no"?>
<!DOCTYPE svg PUBLIC "-//W3C//DTD SVG 1.1//EN" "http://www.w3.org/Graphics/SVG/1.1/DTD/svg11.dtd" >
<svg xmlns="http://www.w3.org/2000/svg" xmlns:xlink="http://www.w3.org/1999/xlink" version="1.1" viewBox="-10 0 1010 1000">
   <path fill="currentColor"
d="M232 -12q108 40 101 50q-1 2 -7 12q-36 48 -84 135v526q0 96 4 186h-91q8 -88 8 -184v-385q-25 57 -80 135l-61 -74q146 -210 210 -401zM683 -10q97 0 99 16q0 3 -5 10q-13 16 -13 40v79h44q82 -1 121 -6v78q-50 -5 -125 -6h-42v125h40q86 0 154 -6v79q-91 -6 -152 -6
h-389q-60 0 -87 1q-32 1 -54 3v-77q23 4 62 5q41 1 128 1v-127q-109 0 -145 6v-80q25 3 103 5q26 1 42 1v-85q0 -33 -4 -54q58 0 73 2q20 2 21 8q1 7 -4 14q-10 14 -10 38v81h147v-75q0 -18 -3 -63q-1 -5 -1 -7zM687 203h-147v123h147v-123zM772 526h-316v93h316v-93z
M456 679v99h316v-99h-316zM861 463q-6 35 -6 101v244q0 60 8 99h-97q6 -42 6 -69h-316q0 39 4 57h-99q12 -58 12 -127v-188q0 -82 -12 -121q30 8 137 8h242q57 1 82 0q24 0 39 -4z" />
</svg>
