<?xml version="1.0" standalone="no"?>
<!DOCTYPE svg PUBLIC "-//W3C//DTD SVG 1.1//EN" "http://www.w3.org/Graphics/SVG/1.1/DTD/svg11.dtd" >
<svg xmlns="http://www.w3.org/2000/svg" xmlns:xlink="http://www.w3.org/1999/xlink" version="1.1" viewBox="-10 0 1034 1024">
  <g transform="matrix(1 0 0 -1 0 820)">
   <path fill="currentColor"
d="M225 -111q0 -31 -3 -49q0 -1 -2 -14h47q-3 30 -5 59v690q34 69 43 83q37 64 41 66q7 7 28 17q-16 6 -39 19q-13 7 -25 14q-12 -33 -27 -68l-63 -119q-39 -67 -78 -125q-15 -22 -26 -36q-48 -60 -86 -83q27 -9 57 -28q54 69 138 201v-627zM515 416h-142q-36 0 -53 4
q-3 1 -6 1v-46q19 4 59 5l577 -1q21 0 29 -4v46l-96 -5h-102v163l127 -3q6 0 9 -3v47l-36 -4q-18 -1 -80 -2h-20v86q0 27 13 66h-60q6 -66 6 -83v-69h-185v81q0 27 13 67h-58q6 -66 6 -89v-59q-90 0 -111 2q-15 3 -24 4v-47q18 6 58 6h76v-163zM555 416v163h184v-163h-184z
M478 -170q-4 24 -5 48q-1 10 -1 25h365q0 -31 -2 -48q0 -10 -3 -23h50q-3 36 -5 73l1 330l4 44q-15 -1 -30 -3q-19 -3 -28 -3l-351 1q-19 4 -45 5q6 -60 6 -82l-1 -321q-1 -12 -2 -26q0 -3 -3 -20h50zM472 -61v133h365v-133h-365zM472 108v129h365v-129h-365z" />
  </g>

</svg>
