<?xml version="1.0" standalone="no"?>
<!DOCTYPE svg PUBLIC "-//W3C//DTD SVG 1.1//EN" "http://www.w3.org/Graphics/SVG/1.1/DTD/svg11.dtd" >
<svg xmlns="http://www.w3.org/2000/svg" xmlns:xlink="http://www.w3.org/1999/xlink" version="1.1" viewBox="-10 0 1034 1024">
  <g transform="matrix(1 0 0 -1 0 820)">
   <path fill="currentColor"
d="M729 324q45 -69 99 -118q63 -57 127 -95q21 27 50 45q-72 22 -106 46q-72 49 -119 122l178 -3q6 0 9 -2v47q-10 -1 -56 -6h-356q24 48 47 110l285 -1q12 -1 27 -4v45q-30 -1 -60 -5h-243q12 48 20 91q21 123 25 131q4 12 21 28q-36 4 -70 13q-3 -124 -39 -263l-181 1
l-26 4v-45q21 4 59 5h138q-10 -31 -20 -54q-9 -21 -27 -56l-181 1q-15 3 -18 3q-4 1 -7 2v-47q21 4 59 5h126q-48 -79 -100 -135q-49 -49 -118 -81q34 -15 56 -34q27 24 47 42q27 27 90 97v-246q0 -45 11 -66q9 -18 50 -31q19 -3 58 -6q40 -1 60 -3q48 0 95 3q4 1 10 1
q55 1 82 11q25 9 47 32q10 12 22 34q10 22 23 62q-33 18 -52 32q-6 -60 -15 -81q-16 -39 -90 -49q-57 -3 -128 -4q-12 1 -21 1l-51 4q-12 0 -21 2q-21 3 -29 12q-12 12 -13 53v215h253q-1 -18 -1 -36q-3 -84 -12 -95q-12 -10 -51 -11q-21 0 -54 6q10 -27 15 -50q85 3 110 18
q25 18 30 95l2 64q0 19 4 50q-18 -1 -27 -2q-19 -3 -28 -3h-272q34 48 66 99h191zM87 301q36 48 63 87q25 36 56 87v-579q0 -22 -4 -49q0 -6 -2 -14h49q-6 27 -6 63v648l32 65l27 58q16 36 28 54q7 10 31 25q-12 3 -48 17q-13 6 -18 8q-24 -78 -63 -164q-58 -124 -120 -206
q-31 -42 -79 -71q19 -7 38 -20q7 -4 16 -9zM378 693q54 -42 102 -128q13 15 38 30l-56 74q-18 22 -46 54q-9 -9 -38 -30zM784 606q18 25 42 48q24 33 57 39q-27 19 -53 44q-55 -90 -135 -161q21 -12 29 -20q4 -3 10 -8q1 1 50 58v0z" />
  </g>

</svg>
