<?xml version="1.0" standalone="no"?>
<!DOCTYPE svg PUBLIC "-//W3C//DTD SVG 1.1//EN" "http://www.w3.org/Graphics/SVG/1.1/DTD/svg11.dtd" >
<svg xmlns="http://www.w3.org/2000/svg" xmlns:xlink="http://www.w3.org/1999/xlink" version="1.1" viewBox="-10 0 1034 1024">
  <g transform="matrix(1 0 0 -1 0 820)">
   <path fill="currentColor"
d="M210 -111q0 -31 -5 -62h47q-4 39 -5 62v661l73 162q1 3 4 5q6 9 28 24q-30 6 -68 22q-12 -55 -58 -161q-43 -102 -94 -176q-49 -69 -98 -101q30 -7 56 -26q51 72 120 177v-587zM318 -160q1 -1 3 -4q3 -3 8 -7q43 22 65 37q61 39 109 101q69 93 84 261l4 37h108v-298
q0 -39 12 -60q12 -18 51 -23q27 -3 61 -4q24 0 61 4t59 18q21 16 48 100q-24 10 -50 28q-1 -45 -8 -74q-7 -27 -41 -34l-33 -4q-24 -1 -41 -2q-45 4 -65 10l-1 1q-15 7 -16 44v294q117 0 131 -2q15 0 33 -3q-3 28 -5 58l1 344l4 40q-13 -1 -29 -3q-40 0 -82 -3l-80 1l-24 2
q-7 1 -15 3v-45q21 4 58 5h129v-160q-133 0 -154 2q-12 3 -17 3v-46q18 6 59 6h112v-167h-424v161l162 -3q3 0 8 -2v46q-6 0 -13 -3q-18 -3 -68 -3h-89v150q39 12 139 48q27 9 59 11q-30 21 -48 44q-69 -48 -192 -75q1 -18 2 -30q3 -21 3 -50l-1 -292q-3 -12 -4 -42
q30 4 54 5h107q-7 -235 -145 -343q-54 -40 -123 -52z" />
  </g>

</svg>
