<?xml version="1.0" standalone="no"?>
<!DOCTYPE svg PUBLIC "-//W3C//DTD SVG 1.1//EN" "http://www.w3.org/Graphics/SVG/1.1/DTD/svg11.dtd" >
<svg xmlns="http://www.w3.org/2000/svg" xmlns:xlink="http://www.w3.org/1999/xlink" version="1.1" viewBox="-10 0 1010 1000">
   <path fill="currentColor"
d="M236 -4q116 35 111 40q1 1 -5 7q-29 27 -44 67q-9 22 -26 60q-22 49 -28 67v509q0 120 8 153h-95q6 -28 9 -72q2 -47 1 -81v-384q-19 29 -78 126q48 -79 -6 10q-28 -34 -69 -61q158 -164 222 -441zM373 56q64 6 173 6h166q135 -1 181 -6q-6 33 -6 99v30q-2 70 6 121
q-63 -6 -141 -6h-46v99h68q124 -1 170 -10v86q-58 -8 -168 -8h-70v97h54q74 0 131 -6q-9 54 -6 101v93q0 73 1 100q1 32 5 41h-91q4 -16 4 -73h-241q0 57 6 77h-93q6 -22 6 -129v-115q0 -61 -6 -95q39 6 117 6h36v-97h-177q-27 277 -107 414q-42 -35 -85 -47q70 -76 99 -229
q14 -73 18 -169q5 -80 2 -241q0 -47 -5 -118q-1 -14 -1 -21zM808 127h-354v108h354v-108zM456 300l-2 101h175v-101h-173zM804 629h-242v125h242v-125z" />
</svg>
