<?xml version="1.0" standalone="no"?>
<!DOCTYPE svg PUBLIC "-//W3C//DTD SVG 1.1//EN" "http://www.w3.org/Graphics/SVG/1.1/DTD/svg11.dtd" >
<svg xmlns="http://www.w3.org/2000/svg" xmlns:xlink="http://www.w3.org/1999/xlink" version="1.1" viewBox="-10 0 1010 1000">
   <path fill="currentColor"
d="M234 6q112 30 117 36q1 1 -4 4q-22 15 -37 46q-5 11 -14 29q-25 50 -38 82v589q2 32 10 97h-101q15 -87 16 -208v-337q-57 110 -92 164q-36 -46 -61 -65q158 -192 204 -437zM278 818q121 -29 160 -93q45 -64 42 -207h-38q-15 0 -46 3q-18 1 -23 1q9 -72 10 -149v-174
q0 -13 -4 -63q-3 -34 -4 -54q97 -4 194 -40q50 90 44 91q-6 2 -18 0q-47 -6 -137 10v119q123 1 133 -8v76q-17 -6 -133 -6v123h332v-123q-77 0 -101 1q-31 0 -50 3v-74q18 3 100 5q33 1 51 1v-113h-64q-56 0 -79 4v-81q33 6 117 6q75 -2 107 -8q-5 43 -6 165v168q1 87 6 123
q-24 -6 -95 -6h-48v211q-1 42 11 51q12 12 57 10q47 0 56 -18q13 -15 15 -87q46 47 93 55q-17 75 -45 102q-23 25 -82 23h-71q-76 1 -92 -19q-19 -14 -17 -92v-236h-93q9 267 -209 371q-18 -26 -73 -71z" />
</svg>
