<?xml version="1.0" standalone="no"?>
<!DOCTYPE svg PUBLIC "-//W3C//DTD SVG 1.1//EN" "http://www.w3.org/Graphics/SVG/1.1/DTD/svg11.dtd" >
<svg xmlns="http://www.w3.org/2000/svg" xmlns:xlink="http://www.w3.org/1999/xlink" version="1.1" viewBox="-10 0 1034 1024">
  <g transform="matrix(1 0 0 -1 0 820)">
   <path fill="currentColor"
d="M611 -102q0 -27 -5 -60h48q-3 30 -5 60v311q42 -55 76 -96q33 -36 69 -68q45 -39 80 -64q34 -22 81 -49q0 4 14 21q6 13 14 18q4 4 13 8q-78 15 -154 77q-81 61 -160 174h207q51 0 64 -6v47q-12 -3 -23 -4l-281 -1v108l180 -1l28 -4q4 0 16 -1q-3 31 -5 63l1 259l4 49
l-62 -6l-377 1q-22 3 -45 5q1 -33 5 -66l-1 -264q-3 -7 -4 -34v-7q66 6 87 6h135v-108h-240q-48 0 -66 5v-47q6 1 37 5l248 1q-63 -90 -175 -190q-42 -36 -75 -59q-25 -15 -60 -28q27 -18 50 -37q88 72 158 137q66 66 123 137v-292zM431 409v128h180v-128h-180zM431 698h180
v-126h-180v126zM649 409v128h181v-128h-181zM649 572v126h181v-126h-181zM161 421q18 30 37 60l-1 -610q-1 -3 -2 -28q0 -4 -2 -10h48q-4 54 -5 61v650q27 57 44 97q22 57 32 72q7 15 31 39q-7 3 -15 4q-21 6 -44 16q-6 -25 -17 -55q-10 -30 -25 -63q-30 -70 -64 -129
q-45 -79 -78 -122q-30 -39 -63 -60q12 -3 22 -10q12 -6 30 -18z" />
  </g>

</svg>
