<?xml version="1.0" standalone="no"?>
<!DOCTYPE svg PUBLIC "-//W3C//DTD SVG 1.1//EN" "http://www.w3.org/Graphics/SVG/1.1/DTD/svg11.dtd" >
<svg xmlns="http://www.w3.org/2000/svg" xmlns:xlink="http://www.w3.org/1999/xlink" version="1.1" viewBox="-10 0 1010 1000">
   <path fill="currentColor"
d="M188 -13q101 26 106 37q-3 7 -12 17q-13 13 -20 27q-22 49 -50 131v571q-1 115 8 139h-85q8 -31 8 -135v-412q-13 23 -43 79q-23 42 -35 65q-16 -39 -53 -75q137 -186 176 -444zM929 40v85q-39 -9 -185 -8h-365v677h389q129 0 178 -6v81q-33 -6 -172 -6h-316
q-109 0 -158 6q4 -18 5 -51q1 -16 1 -38v-57v-564q0 -84 -6 -117q41 6 140 6h300q81 0 121 -2q44 -1 68 -6zM859 157q-6 40 -6 119v52q0 86 6 129q-49 -6 -135 -6h-97q46 12 52 24q0 1 -7 5q-21 11 -33 28h174q64 0 112 -6v70q-30 -6 -108 -6h-15q-19 40 -58 91q19 7 93 30
q40 13 64 20q-27 29 -46 65q-82 -41 -161 -67q-62 47 -232 81q-10 -25 -57 -71q118 9 218 -36q-12 -6 -114 -29q-23 -6 -37 -9l9 -9q35 -39 53 -64h-12q-105 0 -121 8v-74q30 6 125 6h43q2 -4 7 -12q16 -26 25 -45q-87 -1 -131 6q7 -39 6 -123v-60q1 -69 -6 -117q41 5 127 6
h129q82 1 133 -6zM784 223h-236v59h236v-59zM784 332h-236v59h236v-59zM732 566h-125q-23 24 -38 47q25 7 69 18q28 7 41 10q32 -33 53 -75z" />
</svg>
