<?xml version="1.0" standalone="no"?>
<!DOCTYPE svg PUBLIC "-//W3C//DTD SVG 1.1//EN" "http://www.w3.org/Graphics/SVG/1.1/DTD/svg11.dtd" >
<svg xmlns="http://www.w3.org/2000/svg" xmlns:xlink="http://www.w3.org/1999/xlink" version="1.1" viewBox="-10 0 1034 1024">
  <g transform="matrix(1 0 0 -1 0 820)">
   <path fill="currentColor"
d="M201 -92q0 -33 -5 -61h47q-4 27 -5 61v652l36 75q27 60 37 73q9 15 34 29l-42 17q-12 6 -27 15q-7 -37 -21 -73q-15 -40 -40 -97q-46 -102 -114 -196q-33 -40 -68 -63q31 -10 57 -31l67 104q19 30 44 74v-579zM388 444l1 144q0 24 12 51h-57q1 -33 5 -66l-1 -464l-6 -20
q-6 -9 -21 -17q6 -7 18 -28q3 -12 9 -24l86 61l95 59q-3 21 -3 51l-138 -92v309h76q36 0 62 -5v47q-21 -6 -62 -6h-76zM438 -138q9 -9 19 -22q81 45 128 79q45 31 84 69q48 51 70 113q22 66 28 165q3 64 7 78q1 12 19 34q-25 3 -70 11q4 -33 5 -60l-6 -115q-9 -75 -30 -120
q-34 -76 -142 -150q-64 -42 -138 -58q12 -12 26 -24zM764 661h143q40 0 62 -6v47q-19 -6 -62 -6h-347q-27 0 -52 5q-4 1 -8 1v-47q3 3 29 5l193 1l-25 -78q-10 -33 -29 -82l-84 4q-9 1 -18 1q4 -99 5 -103l-1 -299l-4 -30h47q-4 30 -5 62v329h270v-321q0 -31 -5 -61h48
q-4 27 -5 61l1 317l4 45q-30 -1 -59 -5h-152q12 39 25 76zM978 -111l-54 48l-144 115q-12 -16 -31 -36q54 -31 107 -76q25 -21 41 -36q21 -21 51 -53q13 21 30 38v0z" />
  </g>

</svg>
