<?xml version="1.0" standalone="no"?>
<!DOCTYPE svg PUBLIC "-//W3C//DTD SVG 1.1//EN" "http://www.w3.org/Graphics/SVG/1.1/DTD/svg11.dtd" >
<svg xmlns="http://www.w3.org/2000/svg" xmlns:xlink="http://www.w3.org/1999/xlink" version="1.1" viewBox="-10 0 1034 1024">
  <g transform="matrix(1 0 0 -1 0 820)">
   <path fill="currentColor"
d="M466 -102v-12l-4 -44q0 -1 -1 -4h48q-4 49 -5 77v25h336l-4 -93q0 -1 -1 -4h48q-3 16 -5 34l1 290l4 42l-60 -6l-307 1q-24 3 -39 4q84 109 98 131l360 -1q15 0 36 -4v46l-59 -5h-315q15 22 34 56q21 36 54 63q-21 6 -33 11q-9 3 -28 13q-21 -57 -74 -143h-175
q-48 0 -66 5v-46q54 4 76 5h139q-54 -82 -120 -148q-33 -31 -63 -54q-22 -15 -52 -27q22 -16 47 -40l69 64l58 58q0 -19 3 -40v-254zM504 -24v192h336v-192h-336zM477 620h-65q-48 0 -66 5v-47q24 6 44 6h87v-64q0 -21 -3 -51q0 -4 -2 -9h48q-4 49 -5 77v47h237l-1 -85
q-3 -27 -4 -35h48q-4 39 -5 57v63q120 0 136 -2q3 0 20 -4v47q-19 -3 -23 -4l-133 -1v70q0 24 14 64h-57l5 -106v-28h-237v66q0 27 14 64h-57q3 -6 3 -15q0 -21 2 -49v-66zM199 496l-1 -624q-1 -3 -2 -28q0 -4 -2 -10h48q-3 24 -5 48v681q3 4 5 13q0 3 12 23q13 28 26 59
q25 54 53 76l-59 26q-19 -69 -68 -164q-49 -96 -99 -163q-36 -49 -72 -72q36 -19 49 -30q43 60 56 76q6 9 15 21z" />
  </g>

</svg>
