<?xml version="1.0" standalone="no"?>
<!DOCTYPE svg PUBLIC "-//W3C//DTD SVG 1.1//EN" "http://www.w3.org/Graphics/SVG/1.1/DTD/svg11.dtd" >
<svg xmlns="http://www.w3.org/2000/svg" xmlns:xlink="http://www.w3.org/1999/xlink" version="1.1" viewBox="-10 0 1010 1000">
   <path fill="currentColor"
d="M228 -8q109 22 115 28q0 6 -8 15q-18 18 -29 45q-55 125 -54 135v506q0 131 8 170q-49 -6 -91 0q11 -41 10 -170v-371q-64 120 -92 162q-12 -25 -57 -75q152 -164 198 -445zM357 36q63 6 157 6h206q103 0 161 -6q-6 37 -6 127v131q0 89 6 119q-47 -9 -155 -6h-212
q-101 0 -157 6q6 -41 6 -133v-113q0 -89 -6 -131zM581 112h-143v87h143v-87zM798 112h-143v85h143v-85zM438 254v84h143v-84h-143zM798 252h-143v86h143v-86zM286 461q27 5 141 8h335q131 -1 175 -8v83q-28 -7 -135 -6h-36h-137q22 71 63 127q81 -67 110 -103q79 59 75 65
q-1 2 -10 5q-28 7 -54 23q-41 24 -77 54q71 51 226 67q-52 47 -75 95q-279 -93 -333 -333h-92v238q66 -40 123 -91q1 55 10 93q-112 58 -198 127q-35 -57 -54 -77q1 -2 11 -9q29 -21 29 -31v-248q-66 0 -97 6v-85z" />
</svg>
