<?xml version="1.0" standalone="no"?>
<!DOCTYPE svg PUBLIC "-//W3C//DTD SVG 1.1//EN" "http://www.w3.org/Graphics/SVG/1.1/DTD/svg11.dtd" >
<svg xmlns="http://www.w3.org/2000/svg" xmlns:xlink="http://www.w3.org/1999/xlink" version="1.1" viewBox="-10 0 1034 1024">
  <g transform="matrix(1 0 0 -1 0 820)">
   <path fill="currentColor"
d="M217 -104q0 -40 -5 -63h49q-4 21 -5 63v675l54 112q12 25 45 42q-31 13 -61 31q-6 -22 -60 -142q-30 -60 -62 -116q-31 -51 -59 -90q-39 -48 -71 -70q22 -6 49 -25q51 63 126 189v-606zM326 186q0 -33 -5 -62h48q-4 15 -5 33l-1 83h570v-46q0 -24 -3 -50l-2 -13h48
q-7 87 -4 111q0 15 4 39q-27 -1 -54 -5l-561 1q-3 0 -40 4q4 -60 5 -92v-3zM389 629l-51 4q-3 0 -7 1v-46q18 4 58 5l540 -1q21 0 29 -4v46q-30 -1 -59 -5h-219q6 10 20 20l-71 65q-13 12 -62 52q-15 -24 -30 -38q73 -48 122 -99h-270zM889 152q-28 -1 -58 -5l-404 1
q-7 1 -11 2q1 0 -14 2v-46q22 4 60 5h198v-186q0 -36 -24 -44q-19 -6 -47 -6q-16 0 -40 4q-4 0 -29 5q9 -31 13 -51q9 0 20 2q60 3 90 9q13 3 24 6q31 9 32 73v188l161 -1q21 0 29 -4v46zM430 405q0 -18 -6 -55q46 4 79 5l306 -1l40 -4q-4 45 -5 88l5 94q-45 -4 -55 -5
l-329 1q-6 1 -11 2q-15 0 -30 2q6 -54 6 -75v-52zM806 491v-100h-339v100h339z" />
  </g>

</svg>
