<?xml version="1.0" standalone="no"?>
<!DOCTYPE svg PUBLIC "-//W3C//DTD SVG 1.1//EN" "http://www.w3.org/Graphics/SVG/1.1/DTD/svg11.dtd" >
<svg xmlns="http://www.w3.org/2000/svg" xmlns:xlink="http://www.w3.org/1999/xlink" version="1.1" viewBox="-10 0 1010 1000">
   <path fill="currentColor"
d="M216 -13q92 32 96 51q-1 6 -10 14q-13 12 -18 26q-9 20 -26 59q-21 49 -32 74v492q0 92 1 127q1 43 3 67h-79q1 -13 2 -43q6 -91 6 -149v-379l-80 155l-65 -66q144 -161 202 -428zM692 0q110 20 108 34q-1 5 -10 16q-15 17 -22 32q-16 38 -30 76q-10 28 -18 47h88
q63 -1 138 -8v83q-32 -4 -79 -4q-11 291 -91 413q77 80 166 127q-45 26 -77 73q-72 -55 -133 -135q-74 84 -188 157q-32 -39 -76 -65q136 -38 220 -153q-59 -118 -75 -276q-3 6 -10 22q-26 -27 -71 -36q98 -130 160 -403zM690 276q-9 16 -28 52q-22 42 -35 65l61 -8
q-2 94 44 244q52 -133 62 -353h-104zM363 490v173h143v-173h-143zM583 433q-5 42 -6 109v105q0 81 8 125h-83q0 -8 2 -33q1 -15 2 -24h-143q0 64 6 91h-85q1 -16 3 -64q3 -56 5 -93v-73q-2 -99 -8 -143q35 5 103 6h12v-147h-30q-82 0 -121 6v-75q16 0 71 2q32 1 50 2h30
v-149q0 -31 -8 -78q92 1 95 14q0 8 -6 23q-10 22 -10 39v151h30q31 0 62 -4q15 -1 25 -2v77q-20 -6 -87 -6h-30v147h14q63 -1 99 -6z" />
</svg>
