<?xml version="1.0" standalone="no"?>
<!DOCTYPE svg PUBLIC "-//W3C//DTD SVG 1.1//EN" "http://www.w3.org/Graphics/SVG/1.1/DTD/svg11.dtd" >
<svg xmlns="http://www.w3.org/2000/svg" xmlns:xlink="http://www.w3.org/1999/xlink" version="1.1" viewBox="-10 0 1034 1024">
  <g transform="matrix(1 0 0 -1 0 820)">
   <path fill="currentColor"
d="M294 -98q9 -3 28 -14q12 28 40 77q9 15 26 54q18 40 45 69q-27 12 -53 28q-18 -57 -49 -123q-27 -54 -53 -86q7 -1 16 -5zM572 581q-9 -24 -21 -45q-15 -24 -42 -63q-28 18 -56 34q-10 -21 -24 -40q24 -9 52 -26q-24 -25 -67 -61q-30 -24 -50 -36q-21 -10 -39 -17
q27 -16 44 -34q39 28 71 57q33 30 75 73q46 -27 83 -55q-66 -69 -134 -119q-66 -48 -105 -53q27 -22 41 -41q3 3 32 24q60 42 103 77q42 36 98 92q42 -30 67 -58q7 12 11 18q6 9 20 27q-31 18 -73 45q21 25 49 73q18 36 32 63q12 27 26 65h84l-10 -186q-9 -123 -11 -134
q-4 -16 -10 -24q-15 -16 -60 -17q-22 0 -55 6q7 -22 14 -53q84 4 117 20q21 12 29 35q6 25 10 90l12 181l12 122q-49 -4 -62 -5h-359q10 24 20 35q18 36 24 42q16 27 36 42q-33 10 -61 23q-6 -21 -13 -38q-6 -18 -22 -50q-39 -82 -88 -142q-37 -42 -73 -61q30 -12 51 -29
q36 43 61 76q21 30 45 67h116zM721 581q-27 -96 -95 -181l-85 54q40 57 77 127h103zM603 -100q-51 0 -61 17q-9 13 -9 34v106q0 28 14 64h-58q0 -3 3 -6l3 -155q0 -27 3 -43q1 -6 4 -14q7 -19 33 -31q21 -9 87 -9q30 1 61 1q51 3 71 9q37 15 57 56q4 7 9 18q6 13 17 45
q-18 10 -23 12q-9 4 -28 17q0 -13 1 -25q0 -51 -33 -79q-24 -16 -90 -17h-61zM632 182l-17 24q-13 -12 -34 -25q27 -33 52 -67q21 -30 38 -60q15 13 37 26q-13 21 -32 45zM963 -18l-41 68l-58 91q-16 -12 -38 -23q39 -54 58 -85q0 -1 49 -88q1 -7 6 -16q15 12 40 27
q-9 13 -16 26zM195 -99q-3 -57 -5 -60h49q-4 9 -5 35l-1 642q48 102 68 136q7 21 20 45q6 12 22 28q7 9 17 16q-6 3 -16 6q-16 6 -45 18q-21 -64 -67 -161q-57 -109 -123 -201q-40 -54 -82 -81q21 -6 55 -24q13 16 30 39q34 48 83 122v-560z" />
  </g>

</svg>
