<?xml version="1.0" standalone="no"?>
<!DOCTYPE svg PUBLIC "-//W3C//DTD SVG 1.1//EN" "http://www.w3.org/Graphics/SVG/1.1/DTD/svg11.dtd" >
<svg xmlns="http://www.w3.org/2000/svg" xmlns:xlink="http://www.w3.org/1999/xlink" version="1.1" viewBox="-10 0 1010 1000">
   <path fill="currentColor"
d="M194 -8q6 1 16 4q92 23 84 36q-3 8 -11 19q-11 15 -17 31q-36 87 -44 123v617q56 -38 111 -117q-44 -66 -81 -199l77 -16q13 85 46 153q29 -102 38 -204q-50 1 -111 14l-20 -70q31 -8 45 -51q9 -22 34 -101q13 -38 20 -60q-57 0 -89 4v-73q15 1 40 2t49 2q52 0 91 -4
q8 1 6 8q-19 50 -50 140q-28 80 -43 121l89 -8q-13 207 -55 338q35 46 113 63q53 12 91 16q14 1 16 4v-95h-28q-79 1 -127 6v-66q57 3 127 4h28v-73h-20q-67 -1 -113 4v-70q44 4 133 4v-67q-66 0 -88 1q-29 1 -43 3v-72q42 3 131 4v-71h-48q-49 1 -109 4v-67q16 0 51 2
q32 2 46 2h60v-72q-13 0 -62 2q-50 2 -63 2v-67q48 4 85 4h40q0 -50 -8 -102q94 -1 91 10q0 6 -5 15q-8 14 -9 29v48h56q46 -1 115 -6q-4 31 -4 87v48q55 0 83 -4v73q-28 -4 -81 -4v42q0 71 6 95q-35 -8 -129 -8h-50v69h56q107 -6 137 -6v70q-66 -4 -137 -4h-56v71h80
q79 -1 121 -6v72q-77 -5 -121 -6h-80v97q54 0 153 -8q24 0 91 -12q-31 55 -49 101q-149 -3 -209 -7q-273 -19 -303 -104q-42 69 -91 113l-74 -37q0 46 2 73h-75q3 -76 4 -188v-357q-27 53 -74 134q-17 -49 -53 -79q126 -203 168 -423zM802 165h-98v72h98v-72zM704 296v73h98
v-73h-98z" />
</svg>
