<?xml version="1.0" standalone="no"?>
<!DOCTYPE svg PUBLIC "-//W3C//DTD SVG 1.1//EN" "http://www.w3.org/Graphics/SVG/1.1/DTD/svg11.dtd" >
<svg xmlns="http://www.w3.org/2000/svg" xmlns:xlink="http://www.w3.org/1999/xlink" version="1.1" viewBox="-10 0 1010 1000">
   <path fill="currentColor"
d="M208 -10q12 2 34 7q73 13 68 21q0 5 -7 14q-12 16 -19 32q-11 28 -26 67q-19 49 -28 74v530q0 131 4 172h-83q7 -82 8 -174v-393q-32 64 -82 145l-45 -84q131 -147 176 -411zM425 104v99h133v-99h-133zM629 104v99h143v-99h-143zM425 254v102h133v-102h-133zM629 254v102
h143v-102h-143zM855 36q-11 45 -8 76v204q-3 53 8 107q-53 -13 -95 -8h-131v73h183q46 0 97 -3q-7 51 -4 87v262q4 55 -141 63q-7 -56 -34 -97q96 16 97 -4v-250h-198v125l77 -8q-8 -21 -27 -61l59 -20q31 55 70 153l-74 23l-6 -24q-4 -15 -6 -23q-111 10 -266 49
q-10 -33 -27 -71q58 -3 129 -12v-129h-165v236q-3 53 8 105h-89q7 -53 7 -105v-222q0 -35 -7 -75q39 3 105 3h141v-75h-116q-35 -4 -101 8q9 -45 8 -99v-207q0 -30 -4 -81q54 8 113 8h254q29 0 109 -6q22 -1 34 -2z" />
</svg>
