<?xml version="1.0" standalone="no"?>
<!DOCTYPE svg PUBLIC "-//W3C//DTD SVG 1.1//EN" "http://www.w3.org/Graphics/SVG/1.1/DTD/svg11.dtd" >
<svg xmlns="http://www.w3.org/2000/svg" xmlns:xlink="http://www.w3.org/1999/xlink" version="1.1" viewBox="-10 0 1010 1000">
   <path fill="currentColor"
d="M520 -2l87 20q0 2 -6 11q-24 32 -43 75h218q89 -3 113 -6q-7 30 -8 103v196q1 72 4 95q-8 -1 -49 -2q-33 -1 -52 -2h-155q-6 15 -12 42q8 2 23 5q55 10 54 15q1 2 -4 12q-10 20 -11 34v158q-1 44 8 50q6 9 49 8h62q51 0 85 -74q25 27 75 46q-20 61 -48 79q-27 21 -91 20
h-117q-71 1 -84 -16q-15 -10 -13 -85v-222q-63 187 -272 333q-10 -9 -24 -22q-26 -26 -61 -39q229 -82 308 -344h-131q-1 64 4 78h-88q6 -35 10 -153v-210q-2 -84 -6 -105q15 3 103 6h46q16 -42 26 -106zM238 12q85 34 97 44q-1 1 -4 3q-15 9 -31 47q-35 80 -68 146v483
q0 128 6 164h-95q11 -69 14 -162v-354q-19 28 -50 76q-23 37 -28 43q-14 -17 -46 -48l-15 -15q134 -119 220 -427zM579 173h-154v97h150zM647 173l-2 97h163v-97h-161zM425 326v103h142l6 -103h-148zM643 326l-6 103h171v-103h-165zM683 685q46 -18 81 -159q9 3 26 9
q58 19 53 23q-1 3 -7 9q-30 32 -78 110l97 -6q-1 -2 -2 -5q-10 -30 -26 -56l60 -18q41 97 51 129l-67 17q-1 -10 -8 -31q-110 23 -159 31z" />
</svg>
