<?xml version="1.0" standalone="no"?>
<!DOCTYPE svg PUBLIC "-//W3C//DTD SVG 1.1//EN" "http://www.w3.org/Graphics/SVG/1.1/DTD/svg11.dtd" >
<svg xmlns="http://www.w3.org/2000/svg" xmlns:xlink="http://www.w3.org/1999/xlink" version="1.1" viewBox="-10 0 1034 1024">
  <g transform="matrix(1 0 0 -1 0 820)">
   <path fill="currentColor"
d="M85 343l12 -6q31 34 59 70l68 94l-1 -628q-1 -6 -4 -28h48q-4 19 -5 62v656q57 111 62 116q16 33 35 43q6 4 15 9q-25 4 -67 24q-18 -51 -60 -134q-40 -76 -78 -131q-72 -97 -131 -125q25 -12 47 -22zM965 211q-28 -1 -58 -5l-560 1q-12 1 -19 3q-4 1 -8 1v-46q28 3 59 5
h198q-24 -36 -46 -80q-27 -48 -64 -100q-27 -34 -40 -46q-15 -10 -33 -13q10 -24 18 -46q60 10 153 24l285 33q36 -49 53 -87q27 27 42 36q-63 93 -171 218q-15 -15 -39 -31q21 -18 39 -36q21 -24 54 -66l-351 -36q40 57 71 104l77 126l313 -1q18 0 27 -4v46zM339 512
q6 -54 6 -74l-4 -95q-1 -1 -2 -6h48q-4 49 -5 76v58h533q0 -76 -2 -107l-3 -23h48q-6 43 -5 70q0 58 2 69q0 15 3 32q-18 -1 -28 -2q-22 -3 -32 -3h-233v189q0 9 2 24q1 18 12 39h-57q1 -30 5 -63v-189l-248 1q-15 3 -40 4zM398 693q37 -30 64 -64q27 -39 45 -75
q21 21 37 31q-21 31 -43 59q-24 30 -68 80q-15 -15 -35 -31zM452 322q22 6 76 5l284 -1l33 -4v46q-28 -1 -58 -5l-310 1q-12 1 -18 3q-4 1 -7 1v-46zM753 587q24 -16 36 -30q48 57 85 97q27 33 59 40q-16 10 -30 20q-12 9 -27 22q-60 -93 -123 -149v0z" />
  </g>

</svg>
