<?xml version="1.0" standalone="no"?>
<!DOCTYPE svg PUBLIC "-//W3C//DTD SVG 1.1//EN" "http://www.w3.org/Graphics/SVG/1.1/DTD/svg11.dtd" >
<svg xmlns="http://www.w3.org/2000/svg" xmlns:xlink="http://www.w3.org/1999/xlink" version="1.1" viewBox="-10 0 1034 1024">
  <g transform="matrix(1 0 0 -1 0 820)">
   <path fill="currentColor"
d="M211 -107q-3 -48 -4 -54q0 -3 -1 -6h48q-4 19 -5 38v646q93 186 100 193q0 3 9 12q7 9 26 18q-34 10 -65 23q-16 -54 -51 -124q-64 -129 -153 -244q-30 -36 -76 -73q30 -9 53 -23l52 67q27 34 67 92v-565zM844 260l43 -4q9 0 19 -1q-6 57 -6 75l1 265q1 24 5 48
q-55 -4 -80 -5h-258q40 72 52 85q12 18 36 26q-33 12 -62 29q-10 -39 -68 -140q-69 0 -91 2q-6 3 -34 3q1 -30 5 -61l-1 -286q-3 -12 -4 -41q42 6 70 5h149q-15 -63 -34 -105q-48 -91 -109 -156q-102 -96 -182 -115q33 -21 49 -40q165 111 244 233q27 46 42 80q15 39 30 103
h184zM443 296v132h191q0 -51 -3 -78q-1 -24 -7 -54h-181zM443 464v138h191v-138h-191zM665 296q9 108 9 132h189v-132h-198zM674 464v138h189v-138h-189zM663 209q6 -21 6 -61v-201q0 -42 8 -57q12 -22 57 -31q30 -3 92 -4q99 0 125 43q10 19 24 74q-30 9 -49 22
q0 -15 1 -25q0 -37 -13 -56q-18 -21 -105 -22q-76 0 -91 14q-12 9 -12 37v206q0 31 13 61h-56zM895 168q-12 -15 -16 -15q-7 -4 -13 -9q22 -24 44 -55l-135 -26q27 54 55 99q15 24 18 26q6 7 23 24q-30 9 -55 23q-9 -40 -39 -97q-33 -64 -56 -83q12 -21 23 -43q63 27 182 46
q13 -24 25 -47q10 13 29 26q-13 27 -33 57z" />
  </g>

</svg>
