<?xml version="1.0" standalone="no"?>
<!DOCTYPE svg PUBLIC "-//W3C//DTD SVG 1.1//EN" "http://www.w3.org/Graphics/SVG/1.1/DTD/svg11.dtd" >
<svg xmlns="http://www.w3.org/2000/svg" xmlns:xlink="http://www.w3.org/1999/xlink" version="1.1" viewBox="-10 0 1034 1024">
  <g transform="matrix(1 0 0 -1 0 820)">
   <path fill="currentColor"
d="M213 -107l-4 -51q0 -4 -1 -9h49q-3 12 -4 32v698q7 24 19 45q15 39 28 68q18 51 29 64q0 1 2 3q9 9 23 18q-34 7 -67 19q-4 -30 -14 -59q-9 -31 -29 -77q-58 -132 -125 -227q-48 -67 -83 -92q33 -9 55 -21l122 182v-593zM313 70l64 6h412v-148q0 -33 -18 -42
q-18 -7 -47 -8q-28 0 -74 9q13 -27 19 -54l63 5q60 6 81 29q15 16 15 64v145h86q30 0 63 -6v47q-33 -4 -63 -5h-86q0 30 4 42q1 12 9 27h-57q0 -3 1 -8l4 -61h-412q-48 0 -64 5v-47zM344 611q6 1 14 3q22 1 47 3h208v-75l-183 1q-19 4 -45 5q1 -30 5 -62l-3 -296
q-1 -3 -2 -12h48q-4 49 -5 77v13h185q-1 -33 -3 -67q-1 -3 -2 -11h49q-4 19 -5 26l-1 52h204l-4 -70q-1 -1 -2 -8h50q-4 13 -5 61l1 253q0 15 4 44l-63 -6h-185v75h232q30 0 63 -6v48q-27 -6 -63 -7h-232q0 72 2 81q0 10 11 38h-56q4 -42 5 -75v-44h-208q-24 0 -50 3
q-3 0 -8 3l-3 1v-48zM428 304v78h185v-78h-185zM613 418h-185v88h185v-88zM651 418v88h204v-88h-204zM651 304v78h204v-78h-204zM467 8q36 -24 67 -56q25 -25 51 -64q15 24 35 39q-51 51 -105 99q-6 6 -14 12q-15 -15 -34 -30zM703 740q72 -31 119 -77q10 18 25 36
q-30 21 -100 64q-7 4 -15 8q-13 -15 -29 -31v0z" />
  </g>

</svg>
