<?xml version="1.0" standalone="no"?>
<!DOCTYPE svg PUBLIC "-//W3C//DTD SVG 1.1//EN" "http://www.w3.org/Graphics/SVG/1.1/DTD/svg11.dtd" >
<svg xmlns="http://www.w3.org/2000/svg" xmlns:xlink="http://www.w3.org/1999/xlink" version="1.1" viewBox="-10 0 1034 1024">
  <g transform="matrix(1 0 0 -1 0 820)">
   <path fill="currentColor"
d="M461 130h-99q-42 0 -65 6v-47q31 3 65 5l581 -1q12 0 30 -4v47q-6 -1 -12 -4q-25 0 -50 -2h-168v163q114 0 130 -2q9 0 19 -3v46q-15 -3 -22 -4l-372 -1v106q51 1 114 8q63 6 111 14q60 9 76 10q9 0 36 -3q-19 24 -35 56q-48 -21 -106 -32q-45 -6 -101 -12q-54 -6 -89 -6
q-18 0 -48 3q4 -90 5 -95v-248zM498 130v163h208v-163h-208zM311 -112q21 -24 31 -37q43 27 75 52q33 25 81 67q42 36 78 48q-22 18 -42 42q-45 -57 -144 -130q-45 -30 -79 -42zM357 515l-4 -55q0 -3 -1 -5h48q-3 24 -5 49v83h493q0 -69 -2 -96q-3 -6 -3 -18h48q-3 48 -5 92
q1 31 5 63q-30 -1 -59 -5h-188q6 12 15 20q0 1 13 14q-10 7 -19 14l-48 38l-67 53q-10 -13 -27 -32q94 -66 126 -107l-279 1q-15 3 -46 4q1 -33 5 -66v-47zM699 24q141 -91 212 -167q6 12 25 35l4 4l-156 118l-58 42q-18 -24 -27 -32zM218 -94q-3 -57 -5 -60h48q-3 30 -5 60
v666l37 73q22 45 33 58q9 12 32 28q-37 18 -57 33q-58 -162 -185 -334q-36 -46 -79 -75q18 -6 54 -29l51 71q18 24 34 49l42 65v-605z" />
  </g>

</svg>
