<?xml version="1.0" standalone="no"?>
<!DOCTYPE svg PUBLIC "-//W3C//DTD SVG 1.1//EN" "http://www.w3.org/Graphics/SVG/1.1/DTD/svg11.dtd" >
<svg xmlns="http://www.w3.org/2000/svg" xmlns:xlink="http://www.w3.org/1999/xlink" version="1.1" viewBox="-10 0 1034 1024">
  <g transform="matrix(1 0 0 -1 0 820)">
   <path fill="currentColor"
d="M555 156q-3 -67 -30 -127q-34 -67 -132 -116q-52 -22 -96 -23q19 -24 37 -48q33 10 60 24q28 15 56 33q30 18 43 30q88 73 102 227h82v-227q0 -40 42 -55q30 -9 92 -9q72 0 103 23q27 21 51 87l9 27q-21 10 -52 31q1 -18 2 -30q0 -52 -30 -80q-24 -21 -92 -21
q-40 0 -63 6q-24 7 -24 43v205q63 0 76 -2q18 0 37 -3q-4 49 -5 69l1 126q0 21 4 48q-55 -4 -78 -5l-270 1q-3 0 -46 4q6 -48 6 -81l-1 -121q-1 -6 -2 -14q0 -15 -3 -27q51 4 83 5h38zM477 192v161h308v-161h-308zM591 768q1 -30 5 -63v-178l-228 1q-19 3 -45 4q6 -54 6 -83
q-6 -66 -6 -73h49q-3 6 -5 31l-1 84h518q0 -66 -3 -100q0 -3 -2 -7h48q-3 18 -5 37q0 63 2 77q0 16 3 34q-30 -1 -60 -5h-232v178q0 27 14 63h-58zM513 614q-67 67 -100 104q-4 -3 -12 -10q-6 -6 -22 -17q60 -54 119 -130q15 21 33 33zM828 652q27 28 61 43q-21 15 -45 39
q-42 -54 -88 -100q-33 -30 -56 -44q18 -12 36 -29zM50 326l26 -12q7 -1 11 -4q36 48 60 84q24 33 54 83l-5 -644h48q-3 24 -5 50v658q13 25 20 41q27 57 59 117q3 9 16 22q9 10 23 22q-33 10 -60 23q-15 -45 -33 -87t-46 -93q-78 -144 -127 -198q-18 -21 -32 -33
q-12 -9 -33 -20z" />
  </g>

</svg>
