<?xml version="1.0" standalone="no"?>
<!DOCTYPE svg PUBLIC "-//W3C//DTD SVG 1.1//EN" "http://www.w3.org/Graphics/SVG/1.1/DTD/svg11.dtd" >
<svg xmlns="http://www.w3.org/2000/svg" xmlns:xlink="http://www.w3.org/1999/xlink" version="1.1" viewBox="-10 0 1034 1024">
  <g transform="matrix(1 0 0 -1 0 820)">
   <path fill="currentColor"
d="M401 316q-3 -63 -9 -106q-4 -42 -12 -70q-15 -61 -43 -115q-37 -69 -97 -103q31 -12 57 -26q57 73 85 134q28 64 48 157h136q-1 -25 -15 -133q-6 -27 -11 -57q-9 -34 -47 -35q-30 0 -58 7q24 -46 25 -54q81 7 101 31q21 27 36 150l10 82q3 25 11 50q-21 -1 -35 -2
q-27 -3 -35 -3h-113l8 93h152q43 0 63 -5v46q-16 -4 -63 -5h-107v113h68q33 0 59 -5v46q-24 -4 -59 -5h-68v104l122 -1l28 -4v46q-30 -1 -59 -5h-91v59q0 21 15 62h-57q0 -9 3 -20q3 -42 3 -101h-106q-21 0 -47 3q-4 0 -14 2v-46q3 1 54 5h113v-104h-88q-31 0 -59 5v-46
q27 4 59 5h88v-113q-142 0 -167 2q-3 1 -5 1l-11 2v-46q1 1 5 1q1 1 4 1q36 1 75 3h48zM795 33l38 -56q6 -10 31 -39q3 -3 48 -54q13 -13 34 -32l48 31q3 1 7 4q-45 15 -103 76q-55 63 -97 143q39 90 60 178q18 88 26 225q88 -3 93 -5v47q-6 -3 -48 -6h-213q22 66 43 133
q9 33 18 49q7 16 21 31q-22 3 -66 16q-6 -75 -34 -164q-21 -64 -36 -101q-9 -25 -25 -51q-28 -45 -56 -71q33 -3 62 -12l62 134h141l-8 -102q-1 -30 -5 -51l-8 -42q-15 -76 -49 -163q-18 52 -30 121q-12 67 -13 91l4 48q-33 0 -66 4q16 -31 27 -93q19 -111 25 -127
q3 -15 30 -97q-54 -90 -126 -150q-51 -37 -112 -55q28 -18 51 -38q70 45 110 83q39 37 100 120zM197 -101q0 -27 -5 -59h49q-3 30 -5 59v666l53 120q21 48 51 74q-39 6 -71 17q-6 -54 -67 -183q-87 -186 -174 -247q28 -4 59 -20q39 54 65 95q22 34 45 73v-595z" />
  </g>

</svg>
