<?xml version="1.0" standalone="no"?>
<!DOCTYPE svg PUBLIC "-//W3C//DTD SVG 1.1//EN" "http://www.w3.org/Graphics/SVG/1.1/DTD/svg11.dtd" >
<svg xmlns="http://www.w3.org/2000/svg" xmlns:xlink="http://www.w3.org/1999/xlink" version="1.1" viewBox="-10 0 1010 1000">
   <path fill="currentColor"
d="M504 -17q60 21 93 37q-3 4 -17 15q-33 23 -46 45q139 0 266 -4q-12 19 -58 90q-19 29 -30 45q127 0 185 -8q-3 23 -3 43q-1 15 -1 62q0 44 1 64q1 24 3 43q-36 -6 -101 -6h-175l-40 40q45 38 82 91q101 -59 150 -109q57 62 58 75q-2 2 -8 2q-29 4 -79 32q49 158 182 214
q-37 17 -85 70q-101 -87 -149 -258q-6 3 -17 10q-17 10 -27 16q95 283 -140 323q-8 -48 -38 -91q156 20 123 -165q-107 114 -290 201q-15 -40 -53 -72q183 -36 323 -192q-6 -14 -21 -35q-4 -7 -7 -11q-47 69 -246 173q-19 -30 -59 -68q122 -11 276 -143q-14 -18 -32 -29
q-82 61 -183 101q-15 -41 -63 -70q167 -30 246 -105q-79 0 -104 1q-32 1 -47 3q4 -57 4 -111v-46l-40 42q-25 -32 -75 -50q134 -66 242 -265zM228 2q107 35 101 44q0 1 -3 3q-47 46 -76 142v544q-3 124 8 168h-93q10 -60 10 -165v-414q-13 22 -35 61q-51 90 -65 109
q-10 -15 -25 -41q-16 -30 -24 -38q128 -134 202 -413zM681 139h-193q-30 36 -53 72h198zM442 266v86h135q19 -53 26 -86h-161zM677 266l-2 6q-13 55 -24 80h174v-86h-148z" />
</svg>
