<?xml version="1.0" standalone="no"?>
<!DOCTYPE svg PUBLIC "-//W3C//DTD SVG 1.1//EN" "http://www.w3.org/Graphics/SVG/1.1/DTD/svg11.dtd" >
<svg xmlns="http://www.w3.org/2000/svg" xmlns:xlink="http://www.w3.org/1999/xlink" version="1.1" viewBox="-10 0 1010 1000">
   <path fill="currentColor"
d="M220 -13q105 36 109 45l-1 1q-24 24 -30 39q-34 93 -66 163v543q1 72 10 131h-97q9 -62 10 -131v-395q-36 68 -88 135q-12 -41 -47 -95q130 -130 200 -436zM565 -13q90 -2 100 9q-18 29 -22 80h174q67 -1 118 -8v79q-55 -8 -114 -8h-178v54h129q53 0 107 -8v75
q-42 -5 -86 -4h-17h-320q-67 0 -105 6v-77q33 5 101 8h117v-54h-138q-66 0 -114 8v-79q58 8 114 8h140q3 -50 -6 -89zM363 292q36 5 83 6h320q24 0 85 -6q-6 36 -6 68v39q1 36 6 70q-58 -6 -83 -6h-42q67 26 60 31l-4 3q-28 25 -52 49h101q62 0 109 -6v73q-82 -7 -113 -7
h-446q-64 1 -113 7v-77q64 9 113 10h99l-40 -58l80 -21q19 54 38 79h97q29 -30 51 -83h-266q-32 0 -77 6q5 -29 6 -68v-36q0 -35 -6 -73zM770 350h-328v59h328v-59zM351 645q54 6 87 6h344q42 1 89 -6q-5 33 -6 80v79q2 62 8 99h-95q5 -23 6 -53h-344q1 32 6 53h-99
q9 -47 10 -105v-77q-1 -35 -6 -76zM438 709v83h346v-83h-346z" />
</svg>
