<?xml version="1.0" standalone="no"?>
<!DOCTYPE svg PUBLIC "-//W3C//DTD SVG 1.1//EN" "http://www.w3.org/Graphics/SVG/1.1/DTD/svg11.dtd" >
<svg xmlns="http://www.w3.org/2000/svg" xmlns:xlink="http://www.w3.org/1999/xlink" version="1.1" viewBox="-10 0 1034 1024">
  <g transform="matrix(1 0 0 -1 0 820)">
   <path fill="currentColor"
d="M60 349q9 -3 31 -16q27 42 41 58l66 107v-612q0 -36 -5 -57h48q-4 39 -5 45v695q27 66 60 132q4 10 7 13q10 18 33 28q-28 10 -61 31q-27 -90 -70 -178q-43 -91 -92 -157q-40 -54 -74 -80zM349 209q-24 1 -46 2q-9 3 -14 3v-46h6q7 3 36 4l588 1q39 0 56 -5h6v46
q-10 -3 -15 -3q-19 0 -47 -2h-190q66 72 74 84q45 0 75 -5q0 1 2 0q-4 45 -5 87q1 42 5 86q-27 -1 -55 -5l-391 1q-15 3 -40 4q1 -18 2 -28q3 -18 3 -65q-1 -30 -3 -63q-1 -12 -2 -17q42 6 69 5h10q30 -39 56 -84h-180zM436 329v91h401v-91h-401zM751 293q-24 -33 -42 -54
q-15 -15 -36 -30h-98l-30 46l-26 38h232zM608 672l-258 1q-6 1 -19 4v-46q28 3 59 5h218v-78h-171q-33 0 -46 2q-1 0 -14 3v-47q7 3 24 4q9 1 62 2l392 -1q18 -1 38 -5v47q-6 0 -35 -4q-13 1 -27 -1h-185v78l284 -3q3 0 9 -2h2v46q-9 0 -33 -4q-15 1 -30 -1h-232q0 64 3 71
q1 15 11 28h-57q4 -42 5 -78v-21zM445 103q-28 3 -57 5q1 -28 5 -59l-1 -199q-3 -7 -4 -19h47q-4 48 -5 70h416v-8q0 -36 -5 -56h48q-3 21 -5 44l1 184l4 43q-30 -1 -60 -5h-384zM846 67v-130h-416v130h416z" />
  </g>

</svg>
