<?xml version="1.0" standalone="no"?>
<!DOCTYPE svg PUBLIC "-//W3C//DTD SVG 1.1//EN" "http://www.w3.org/Graphics/SVG/1.1/DTD/svg11.dtd" >
<svg xmlns="http://www.w3.org/2000/svg" xmlns:xlink="http://www.w3.org/1999/xlink" version="1.1" viewBox="-10 0 1010 1000">
   <path fill="currentColor"
d="M210 -12l12 3q95 26 95 35q2 5 -11 16q-19 18 -26 34l-3 6q-26 52 -41 91v571q0 130 8 157h-91q7 -48 8 -153v-426q-33 60 -84 159q-36 -39 -73 -52q161 -198 206 -441zM623 34q27 6 87 6h107q76 1 100 -6v72q-24 -6 -96 -6h-9q-1 7 -2 20q-7 60 -14 99h31q21 -2 54 -4
q21 -2 48 -4v73q-21 -6 -96 -6h-51l-10 24q64 0 65 10q0 2 -3 6q-12 19 -13 47v44q-3 24 14 28q25 5 36 -8q12 -26 10 -66q29 24 75 32q-13 89 -47 97q-28 9 -92 6t-59 -59v-44q0 -5 -1 -18q-1 -27 -1 -47q-38 98 -125 190q-27 -33 -73 -47q96 -43 160 -197h-33
q-58 -1 -78 4q6 -28 6 -73v-10q0 -30 -4 -62q85 1 89 12q0 1 -3 4q-20 22 -18 54v12h57q12 -73 12 -117h-32q-76 0 -91 6v-72zM577 38v74q-22 -6 -87 -6q-6 41 -18 113h26q54 0 83 -6v69q-10 -2 -28 -3q-15 -1 -59 -1h-36l-4 18h7q71 4 69 10q0 1 -4 5q-16 19 -16 39v53
q33 -24 85 -81q7 45 16 67q-33 13 -143 115q-13 -26 -39 -59q1 -1 5 -6q18 -18 18 -28v-40q0 -4 -1 -17q-1 -27 -1 -46q-33 109 -131 208q-40 -37 -75 -47q117 -69 155 -191h-36q-45 0 -69 6q0 -15 3 -55q1 -11 1 -16v-12q0 -4 -1 -15q-1 -26 -1 -47q78 9 79 16q0 2 -4 5
q-14 13 -14 35v24h56q8 -48 14 -113h-26q-57 0 -82 6v-74q21 4 84 4h95q44 3 79 -4zM357 520q51 5 139 6h218q57 0 86 -1q33 -2 57 -5q-7 46 -6 129v107q0 123 6 143h-91q3 -18 6 -55h-332q0 43 6 61h-93q10 -35 10 -131v-141q0 -59 -6 -113zM438 588v71h334v-71h-334z
M438 713v71h334v-71h-334z" />
</svg>
