<?xml version="1.0" standalone="no"?>
<!DOCTYPE svg PUBLIC "-//W3C//DTD SVG 1.1//EN" "http://www.w3.org/Graphics/SVG/1.1/DTD/svg11.dtd" >
<svg xmlns="http://www.w3.org/2000/svg" xmlns:xlink="http://www.w3.org/1999/xlink" version="1.1" viewBox="-10 0 1010 1000">
   <path fill="currentColor"
d="M220 -8q7 2 22 8q85 30 85 38q-1 3 -13 14q-21 20 -26 32q-41 95 -62 135v553q0 67 10 127h-97q9 -47 10 -123v-413q-31 60 -78 124q-15 -42 -55 -68q142 -175 204 -427zM667 10q37 0 107 14q1 1 -4 11q-15 34 -18 57q-6 64 -10 170h81q55 -1 115 -8v84q-60 -8 -111 -8
h-91q-13 426 -178 575q-37 -39 -86 -45q186 -94 197 -530q-36 0 -70 8v-82q40 8 72 8q1 -72 2 -101v-63q-1 -56 -6 -90zM464 20q26 55 44 129l-89 18q-8 -65 -44 -127zM841 58q48 77 78 137l-82 34q-16 -73 -67 -141zM280 175q54 8 103 8h97q51 0 109 -8v83q-67 -9 -109 -8
h-95q-45 0 -105 8v-83zM294 310q39 5 83 6h117q45 -1 81 -6q-6 44 -6 73v104q1 30 6 69q-49 -6 -79 -6h-24v222q2 64 -21 80q-23 20 -108 25q0 -48 -35 -93q103 28 95 -32v-202h-38q-31 1 -71 6q5 -39 6 -85v-84q0 -42 -6 -77zM502 379h-135v108h135v-108zM746 375
q81 7 103 16q-26 31 -28 107q-1 15 -2 58q-6 153 -6 202q-3 53 30 50q52 1 42 -93q40 37 81 39q-14 82 -41 107q-23 25 -94 24q-99 4 -91 -77q0 -15 3 -77q13 -246 3 -356zM310 586q35 18 81 29q-22 31 -69 127l-24 48q-16 -12 -58 -29q-5 -2 -8 -3q52 -70 78 -172zM478 613
l64 -27q37 49 67 97l-61 44q-36 -72 -70 -114z" />
</svg>
