<?xml version="1.0" standalone="no"?>
<!DOCTYPE svg PUBLIC "-//W3C//DTD SVG 1.1//EN" "http://www.w3.org/Graphics/SVG/1.1/DTD/svg11.dtd" >
<svg xmlns="http://www.w3.org/2000/svg" xmlns:xlink="http://www.w3.org/1999/xlink" version="1.1" viewBox="-10 0 1034 1024">
  <g transform="matrix(1 0 0 -1 0 820)">
   <path fill="currentColor"
d="M233 520l-1 -634q0 -21 -4 -46h49q0 1 -1 5q0 1 -4 54v688q49 96 61 112q15 27 43 44q-33 13 -65 30q-60 -186 -204 -356q-27 -31 -71 -63q27 -6 60 -22q15 16 26 31zM500 444q24 -21 32 -30q3 -3 18 -23q12 15 30 30q-36 39 -52 51q-19 16 -38 33l-15 15
q-15 -15 -30 -27zM680 422q27 -13 46 -25q9 6 16 14q48 48 63 60q13 12 42 26l-44 37q-21 -36 -60 -70q-34 -30 -63 -42zM361 372q-3 -36 -5 -73q36 3 72 5l461 -1q18 0 46 -4q-4 60 -5 118l1 144l4 51q-31 -1 -64 -5h-139l76 90q12 12 16 17q19 21 50 36q-30 18 -58 40
q-19 -37 -47 -74l-56 -73q-15 -19 -32 -36l-273 1q-3 0 -52 4q1 -39 5 -78v-162zM399 340v231h219v-231h-219zM657 340v231h234v-231h-234zM412 -102q-3 -27 -5 -55q-1 0 -2 -3h50q0 6 -3 9q-3 42 -3 67h391q0 -58 -6 -72h50q0 1 -1 5q-3 7 -4 36l1 299l4 49q-36 -1 -71 -5
l-356 1q-19 3 -52 4q1 -15 3 -34q3 -21 4 -34v-267zM449 -48v100h391v-100h-391zM449 88v104h391v-104h-391zM439 739q73 -42 135 -119q12 19 27 39l-58 55l-69 55q-13 -13 -35 -30v0z" />
  </g>

</svg>
