<?xml version="1.0" standalone="no"?>
<!DOCTYPE svg PUBLIC "-//W3C//DTD SVG 1.1//EN" "http://www.w3.org/Graphics/SVG/1.1/DTD/svg11.dtd" >
<svg xmlns="http://www.w3.org/2000/svg" xmlns:xlink="http://www.w3.org/1999/xlink" version="1.1" viewBox="-10 0 1034 1024">
  <g transform="matrix(1 0 0 -1 0 820)">
   <path fill="currentColor"
d="M508 494v-132q0 -18 -7 -33q-3 -4 -13 -18l16 -21q6 -9 10 -19q3 3 6 5q0 3 39 35q87 72 92 74q0 1 2 1q-7 13 -14 32q-3 7 -4 10q-42 -42 -51 -47q-9 -9 -39 -31v144q36 0 77 -6v47q-9 -3 -23 -4q-18 0 -40 -2h-69q0 12 3 23q3 21 6 52q0 22 4 34l4 41q48 0 101 -5v46
q-10 -1 -22 -4h-236q-18 1 -29 4v-46q1 0 3 1q-1 0 10 1q24 3 53 3h79q0 -24 -3 -43q0 -33 -4 -55q-3 -21 -10 -52h-82q10 54 20 80q4 10 12 24q-24 1 -56 8q0 -61 -25 -153q60 6 80 6h40q-22 -81 -84 -157q-37 -54 -95 -72q27 -12 55 -31q57 51 98 113q21 31 34 60
q15 33 36 87h26zM417 -115q-3 -30 -5 -61h48q-4 49 -5 76v10h391q0 -33 -5 -72h48q-4 49 -5 77l1 259l4 45q-28 -1 -58 -5l-373 1q-15 3 -46 4q1 -30 5 -63v-271zM455 80v98h391v-98h-391zM455 -54v99h391v-99h-391zM816 498v-163q0 -30 18 -40q15 -9 50 -10q54 0 76 25
q12 18 21 73q-18 3 -51 15q4 -22 5 -39q0 -24 -16 -33q-9 -4 -38 -5q-13 0 -22 5q-4 9 -5 23v149q75 0 106 -3q4 0 10 -2v46l-9 -2q1 0 -13 -2l-134 -1l11 148q84 0 102 -2q3 0 20 -3v46q-1 0 -60 -5l-208 1q-18 1 -29 4v-46q54 4 80 5h57q0 -36 -4 -66l-9 -82h-80
q3 12 5 25q3 27 7 43q3 12 13 29q-24 1 -55 6v-26q0 -15 -7 -62q0 -16 -10 -56q46 4 95 5h24q-22 -79 -75 -141q-58 -64 -106 -82q33 -15 46 -25q1 -1 8 -6l56 57q16 18 32 38q27 36 47 72q16 36 31 87h11zM194 -118q-3 -57 -5 -61h48q-3 30 -5 61v666q22 54 39 96
q21 55 28 65q10 21 29 37q-36 12 -62 25q-9 -54 -51 -155q-66 -148 -119 -224q-30 -43 -62 -62q30 -12 56 -26q22 31 42 63q6 9 62 109v-594z" />
  </g>

</svg>
