<?xml version="1.0" standalone="no"?>
<!DOCTYPE svg PUBLIC "-//W3C//DTD SVG 1.1//EN" "http://www.w3.org/Graphics/SVG/1.1/DTD/svg11.dtd" >
<svg xmlns="http://www.w3.org/2000/svg" xmlns:xlink="http://www.w3.org/1999/xlink" version="1.1" viewBox="-10 0 1010 1000">
   <path fill="currentColor"
d="M196 -4q108 19 112 28q0 8 -11 21q-18 20 -27 41q-39 83 -50 119v533q0 139 8 157h-91q5 -20 6 -56q1 -18 2 -41v-60v-396q-9 17 -26 50q-19 35 -50 95q-19 -41 -51 -84q135 -170 178 -407zM319 52q35 6 123 6h324q100 0 135 -6v71q-39 -6 -139 -6h-66v86h66q77 0 109 -6
q-7 40 -6 111v18q0 83 6 113q-72 -6 -127 -6h-119v143h171q83 0 131 -6v69q-39 -6 -127 -6h-113q50 99 240 128q12 2 17 3q-28 19 -51 57q-10 19 -18 31q-195 -50 -250 -215v113q1 107 10 151h-93q12 -49 12 -147v-119q-69 123 -244 230q-29 -39 -74 -69q172 -59 256 -163
h-89q-104 0 -133 6v-71q40 7 133 8h151v-143h-112q-89 0 -132 6q5 -22 5 -115v-28q0 -48 -5 -99q43 6 109 6h59v-86h-40q-95 0 -119 6v-71zM635 117h-95v86h95v-86zM385 260v115h93v-115h-93zM540 260v115h95v-115h-95zM696 260v115h96v-115h-96zM437 443q42 65 47 81
l-79 34q-21 -48 -52 -81zM748 445q45 13 87 36q-34 20 -87 83q-33 -18 -71 -30q44 -31 71 -89z" />
</svg>
