<?xml version="1.0" standalone="no"?>
<!DOCTYPE svg PUBLIC "-//W3C//DTD SVG 1.1//EN" "http://www.w3.org/Graphics/SVG/1.1/DTD/svg11.dtd" >
<svg xmlns="http://www.w3.org/2000/svg" xmlns:xlink="http://www.w3.org/1999/xlink" version="1.1" viewBox="-10 0 1010 1000">
   <path fill="currentColor"
d="M214 -4q121 23 111 30q-2 3 -8 11q-49 57 -83 166v534q0 80 8 148h-99q18 -58 18 -158v-373q-10 15 -39 65q-34 59 -51 85q-18 -51 -47 -81q112 -110 190 -427zM331 36l3 1q44 11 114 11h310q72 -1 125 -10v79q-33 -5 -71 -6q-21 -1 -59 -1h-124v65q262 0 290 -10
q0 1 -1 4q-3 18 -3 71q-1 65 4 86h-90q10 -34 10 -97h-210v85q0 51 1 71q1 25 3 40h-79q8 -39 8 -117v-79h-201q0 74 2 107h-75q6 -36 6 -82q0 -60 -4 -87q46 6 272 6v-63h-129q-60 0 -102 5v-79zM397 272l4 1q28 5 53 5q48 0 64 -2v56h-5q-35 -4 -59 -4q-46 0 -57 2v-58z
M671 274h3q24 4 60 4q13 0 37 -1q21 -1 31 -1v56q-20 -5 -72 -4q-33 -1 -59 2v-56zM671 367h3q36 4 76 4q12 0 36 -1t35 -1v60q-30 -8 -73 -8q-59 -1 -77 4v-58zM371 369q2 0 7 1q29 3 66 3q55 0 70 -2v56h-3q-29 -4 -67 -4q-58 -1 -73 4v-58zM288 465q76 8 127 8h367
q74 0 135 -8v77q-51 -12 -141 -12h-143l-22 64h153q60 0 117 -6q-3 5 -2 104v148q16 45 -125 59q1 -49 -28 -93q75 15 78 -24v-129h-102q0 100 1 136q1 45 3 69h-75q7 -27 8 -65q2 -37 2 -142h-95q0 107 2 151q1 45 6 60h-76q0 -3 1 -9q9 -50 9 -202h-93q-2 179 4 232h-86
q12 -43 12 -139q0 -110 -8 -158q43 8 225 8l18 -64h-151q-41 0 -100 6q-15 2 -21 2v-73z" />
</svg>
