<?xml version="1.0" standalone="no"?>
<!DOCTYPE svg PUBLIC "-//W3C//DTD SVG 1.1//EN" "http://www.w3.org/Graphics/SVG/1.1/DTD/svg11.dtd" >
<svg xmlns="http://www.w3.org/2000/svg" xmlns:xlink="http://www.w3.org/1999/xlink" version="1.1" viewBox="-10 0 1034 1024">
  <g transform="matrix(1 0 0 -1 0 820)">
   <path fill="currentColor"
d="M182 475l-1 -607q-3 -12 -4 -30h48q-3 28 -5 57v650q61 148 73 168q9 19 24 32q6 6 15 13q-33 10 -65 25q-4 -30 -13 -55q-12 -33 -37 -87q-33 -75 -59 -125q-27 -48 -70 -114q-36 -51 -73 -79q45 -12 59 -19q12 16 24 36q7 12 7 10l60 95q7 15 17 30zM948 305
q-7 -1 -15 -4q-36 -1 -81 -2l-542 1q-6 1 -17 2q-3 0 -6 3v-47q15 4 68 5h228l-45 -87h-141q-9 0 -31 3q-15 0 -30 2q1 -30 5 -61l-1 -243q-3 -19 -4 -34h48q-3 30 -5 62v235h132l-1 -220q-1 -7 -2 -13q-1 -3 -2 -12h49q-6 66 -6 92v153h128l-1 -221q-3 -19 -4 -24h49
q0 6 -3 14q0 -1 -1 10q0 18 -2 38v183h144v-207q0 -27 -13 -37q-12 -9 -41 -9q-19 0 -53 8q13 -27 19 -52q61 6 87 15q39 15 40 78l1 198l6 47q-27 -1 -54 -5h-268l44 87h261q40 0 60 -5v47zM343 447q-4 18 -5 62v62h252v-176l-6 -59h50l-6 59v176h270l-2 -70l-4 -42h51
q-4 4 -5 23l-1 73q0 27 6 57q-27 -1 -55 -5h-260v88l223 -1l41 -4v46q-6 -1 -15 -3q-31 -1 -47 -2l-482 3q-3 0 -7 2v-46h6q7 3 34 4l209 1v-88l-252 1q-15 3 -43 4q6 -48 6 -75l-4 -83q-1 -3 -2 -7h48zM391 459q3 1 50 5q78 0 89 -2q7 0 14 -3v46q-27 -1 -55 -5
q-87 3 -98 5v-46zM388 358q15 6 57 6h41q24 0 55 -6v47q-9 -3 -30 -3q-24 0 -50 -2q-33 1 -67 3q-3 0 -6 2v-47zM684 459q0 1 27 4l81 1q25 0 46 -4q3 0 6 -1v46q-43 -4 -72 -5q-55 0 -77 3q-6 1 -11 2v-46zM684 358q3 0 9 2q102 4 111 3l38 -4l2 -1v47q-9 -1 -26 -3l-93 -1
q-13 1 -25 2q-3 0 -16 2v-47z" />
  </g>

</svg>
