<?xml version="1.0" standalone="no"?>
<!DOCTYPE svg PUBLIC "-//W3C//DTD SVG 1.1//EN" "http://www.w3.org/Graphics/SVG/1.1/DTD/svg11.dtd" >
<svg xmlns="http://www.w3.org/2000/svg" xmlns:xlink="http://www.w3.org/1999/xlink" version="1.1" viewBox="-10 0 1010 1000">
   <path fill="currentColor"
d="M83 62q60 7 153 8h518q99 0 163 -8v93q-28 -5 -64 -6q-18 -1 -39 -2h-54h-119v530q-2 45 7 57q8 13 42 12q62 0 85 -3q26 -2 37 -10q29 -16 37 -112q43 47 93 56q-20 85 -53 119q-15 16 -75 23q-31 4 -72 5q-44 2 -81 0q-76 -3 -92 -24q-18 -15 -13 -93v-560h-131
q14 287 -48 436q-50 139 -234 267q-35 -34 -103 -66q192 -77 253 -214q66 -135 46 -423h-99q-109 -1 -157 8v-93z" />
</svg>
