<?xml version="1.0" standalone="no"?>
<!DOCTYPE svg PUBLIC "-//W3C//DTD SVG 1.1//EN" "http://www.w3.org/Graphics/SVG/1.1/DTD/svg11.dtd" >
<svg xmlns="http://www.w3.org/2000/svg" xmlns:xlink="http://www.w3.org/1999/xlink" version="1.1" viewBox="-10 0 1034 1024">
  <g transform="matrix(1 0 0 -1 0 820)">
   <path fill="currentColor"
d="M97 -149q66 18 141 60q129 72 184 202q24 63 37 207h134v-356q0 -28 10 -45q12 -22 54 -29q33 -3 86 -4q90 0 137 9q51 9 77 58q6 13 11 31l13 62q-24 12 -51 30l1 -31q0 -40 -9 -67q-12 -36 -56 -45q-45 -7 -111 -8q-72 0 -94 6q-28 9 -29 49v340l114 -1q19 0 52 -4
l-6 73l1 271q1 25 5 52q-69 -4 -73 -5l-453 1q-15 3 -48 4q1 -24 2 -38q3 -27 3 -33l-1 -274q-3 -15 -4 -51q54 4 75 5h119q-9 -118 -27 -173t-63 -112q-108 -127 -270 -135q16 -15 29 -34q4 -7 10 -15zM267 356v314h486v-314h-486z" />
  </g>

</svg>
