<?xml version="1.0" standalone="no"?>
<!DOCTYPE svg PUBLIC "-//W3C//DTD SVG 1.1//EN" "http://www.w3.org/Graphics/SVG/1.1/DTD/svg11.dtd" >
<svg xmlns="http://www.w3.org/2000/svg" xmlns:xlink="http://www.w3.org/1999/xlink" version="1.1" viewBox="-10 0 1010 1000">
   <path fill="currentColor"
d="M524 8q1 2 2 6q22 70 37 129h187q72 0 141 -3q15 -1 24 -1v80q-66 -8 -159 -8h-312q54 20 46 29q-16 5 -70 51q-86 75 -150 114l424 -14q-26 -32 -95 -99l66 -46q82 69 204 213l-83 59q-24 -42 -50 -69l-103 4v278q-2 34 13 38q11 8 80 7q74 1 88 -17q16 -10 27 -100
q48 32 92 44q-30 110 -59 126q-27 25 -136 23q-126 1 -154 -14q-33 -11 -30 -68v-315l-141 6q6 200 -46 269q-50 82 -234 159q-32 -55 -60 -85q158 -24 209 -95q55 -66 55 -246q-45 2 -139 14q-12 2 -15 2l-26 -92q60 0 101 -37q83 -70 123 -139h-135q-94 0 -161 4v-82
q76 9 155 10h232q-18 -61 -49 -115z" />
</svg>
