<?xml version="1.0" standalone="no"?>
<!DOCTYPE svg PUBLIC "-//W3C//DTD SVG 1.1//EN" "http://www.w3.org/Graphics/SVG/1.1/DTD/svg11.dtd" >
<svg xmlns="http://www.w3.org/2000/svg" xmlns:xlink="http://www.w3.org/1999/xlink" version="1.1" viewBox="-10 0 1034 1024">
  <g transform="matrix(1 0 0 -1 0 820)">
   <path fill="currentColor"
d="M439 608q0 57 3 69q1 28 13 52q-31 0 -62 4q3 -31 5 -47l4 -236q-1 -30 0 -62q0 -30 -3 -93q-51 -21 -142 -56q-36 -13 -67 -24q-49 -15 -101 -23q25 -36 34 -51l50 24l59 24l165 63q-3 -76 -41 -144q-55 -94 -161 -150q-64 -33 -133 -43q24 -22 44 -47q129 61 194 113
q87 73 121 176q10 39 14 88q3 27 3 69zM146 551q48 -30 74 -52l68 -63q21 -24 40 -51l34 40q-93 87 -181 162q-15 -19 -35 -36zM616 669q0 33 12 64h-56q0 -1 2 -3l4 -61l1 -712q3 -21 16 -37q6 -9 23 -14q31 -12 121 -12q81 0 122 7q46 10 68 51q6 12 13 28q6 18 15 47
q-21 9 -52 33l1 -29q0 -24 -9 -47q-12 -30 -32 -40q-34 -10 -131 -11l-57 1q-37 3 -51 16q-9 12 -10 46v673zM691 296q-15 9 -34 20l-30 -38q27 -9 60 -27l75 -43q43 -25 70 -46q24 -18 52 -45l26 45q-60 40 -131 82zM633 401q22 -10 49 -27l73 74q24 24 53 59q34 36 45 45
q15 12 42 25q-33 18 -58 39q-16 -28 -37 -56q-22 -30 -56 -67q-67 -70 -111 -92v0z" />
  </g>

</svg>
