<?xml version="1.0" standalone="no"?>
<!DOCTYPE svg PUBLIC "-//W3C//DTD SVG 1.1//EN" "http://www.w3.org/Graphics/SVG/1.1/DTD/svg11.dtd" >
<svg xmlns="http://www.w3.org/2000/svg" xmlns:xlink="http://www.w3.org/1999/xlink" version="1.1" viewBox="-10 0 1034 1024">
  <g transform="matrix(1 0 0 -1 0 820)">
   <path fill="currentColor"
d="M577 367v-402q0 -33 18 -57q15 -15 46 -21q36 -6 124 -6q79 0 121 18q27 12 42 48q18 54 29 95q-18 6 -28 12q-6 3 -25 15q0 -45 -5 -71q-9 -54 -40 -67q-15 -6 -36 -8q-16 -1 -74 -2q-78 0 -101 6q-28 9 -29 51v395l158 12q42 -42 66 -101q18 21 42 36q-75 96 -128 157
l-3 3l-132 151q-12 -15 -37 -35q28 -21 47 -44q30 -30 91 -101q1 -3 7 -9q9 -9 18 -20l-524 -42q55 60 100 115q43 54 91 121l62 86q1 3 7 9q15 19 46 40q-30 18 -57 39q-36 -87 -169 -259q-70 -87 -102 -117q-30 -27 -66 -39l15 -44q31 3 37 4l202 18q-6 -136 -32 -216
q-33 -108 -160 -174q-69 -34 -144 -47q24 -21 46 -48q66 30 88 43q51 28 97 59q1 3 5 4q60 46 92 111q30 63 42 168l9 103z" />
  </g>

</svg>
