<?xml version="1.0" standalone="no"?>
<!DOCTYPE svg PUBLIC "-//W3C//DTD SVG 1.1//EN" "http://www.w3.org/Graphics/SVG/1.1/DTD/svg11.dtd" >
<svg xmlns="http://www.w3.org/2000/svg" xmlns:xlink="http://www.w3.org/1999/xlink" version="1.1" viewBox="-10 0 1010 1000">
   <path fill="currentColor"
d="M534 14q106 0 111 12q1 2 -4 12q-22 40 -22 95v582q-2 53 17 61q13 11 102 10q69 2 84 -19q20 -20 29 -108q25 40 87 52q-18 105 -50 126q-29 28 -138 26q-153 1 -180 -16q-35 -13 -32 -89v-619q-1 -54 -5 -96q-3 -20 1 -29zM347 32q113 -1 115 12q1 3 -3 10
q-17 30 -17 83q3 434 -45 528q-29 109 -250 226q-29 -51 -84 -73q293 -95 294 -339q-74 45 -228 148q-23 -39 -62 -81q112 -45 280 -141q7 -4 10 -6l-2 -272q1 -59 -8 -95zM800 133q107 56 99 66q-3 5 -17 12q-27 11 -45 27q-7 6 -27 26q-77 76 -108 103q-22 -32 -67 -55
q82 -59 165 -179zM181 149q84 94 134 167l-87 46q-37 -82 -115 -175zM688 439q108 53 215 113l-60 81q-80 -65 -198 -131z" />
</svg>
