<?xml version="1.0" standalone="no"?>
<!DOCTYPE svg PUBLIC "-//W3C//DTD SVG 1.1//EN" "http://www.w3.org/Graphics/SVG/1.1/DTD/svg11.dtd" >
<svg xmlns="http://www.w3.org/2000/svg" xmlns:xlink="http://www.w3.org/1999/xlink" version="1.1" viewBox="-10 0 1010 1000">
   <path fill="currentColor"
d="M464 -10q96 0 101 14q1 6 -4 16q-9 21 -9 46v107h127q115 -2 162 -8v85q-77 -5 -164 -6h-123v145h200q137 -1 184 -6v86q-58 -6 -184 -8h-135v307q-4 24 54 28q128 3 146 -26q13 -32 18 -109q47 41 98 54q-34 109 -66 135q-18 13 -77 19q-31 3 -70 3q-43 1 -79 -1
q-113 -3 -109 -81v-329h-117q-16 212 -69 284q-47 79 -225 162q-8 -11 -20 -28q-22 -34 -47 -55q159 -41 215 -117q57 -68 64 -246h-103q-135 0 -184 8v-90q67 8 182 10h244v-145h-214q-33 50 -54 86q-2 -1 -9 -5q-38 -25 -76 -35q89 -92 137 -270q102 28 101 42
q-37 20 -71 111h184v-103q0 -13 -5 -52q-2 -18 -3 -28z" />
</svg>
