<?xml version="1.0" standalone="no"?>
<!DOCTYPE svg PUBLIC "-//W3C//DTD SVG 1.1//EN" "http://www.w3.org/Graphics/SVG/1.1/DTD/svg11.dtd" >
<svg xmlns="http://www.w3.org/2000/svg" xmlns:xlink="http://www.w3.org/1999/xlink" version="1.1" viewBox="-10 0 1010 1000">
   <path fill="currentColor"
d="M355 -10q104 24 111 34q1 6 -12 14q-40 24 -73 72h258q69 0 111 -6q-33 41 -129 170h153q39 0 87 -6q-6 31 -6 74v133q0 55 6 79q-2 0 -13 -1q-40 -5 -70 -5h-234q-52 208 -371 357q-37 -54 -84 -73q298 -82 377 -284h-184q0 41 4 62h-80q4 -19 4 -94v-149q0 -24 -4 -63
q-31 32 -83 73q-30 -33 -67 -49q-9 -4 -8 -6q203 -118 307 -332zM611 177h-284q-4 5 -12 14q-45 50 -71 77q33 7 73 6h217zM282 342v139h200q6 -45 12 -139h-212zM573 342q-1 14 -3 40q-3 64 -10 99h224v-139h-211zM538 578q22 1 56 2q44 0 41 6q0 6 -6 20q-12 32 -12 61v97
q-2 34 21 39q18 7 120 5q74 0 90 -24q19 -18 17 -109q56 37 95 46q-20 100 -46 128q-25 31 -91 30h-176q-64 0 -84 -14q-22 -14 -21 -57v-139q0 -66 -4 -91z" />
</svg>
