<?xml version="1.0" standalone="no"?>
<!DOCTYPE svg PUBLIC "-//W3C//DTD SVG 1.1//EN" "http://www.w3.org/Graphics/SVG/1.1/DTD/svg11.dtd" >
<svg xmlns="http://www.w3.org/2000/svg" xmlns:xlink="http://www.w3.org/1999/xlink" version="1.1" viewBox="-10 0 1034 1024">
  <g transform="matrix(1 0 0 -1 0 820)">
   <path fill="currentColor"
d="M585 218v-245q0 -21 6 -40q7 -22 27 -33q25 -15 116 -16q105 0 141 15q33 15 56 63l27 69q-24 7 -51 26q-1 -40 -5 -58q-12 -57 -55 -70q-30 -7 -122 -8q-52 0 -78 10q-24 10 -25 55v232l149 -3q9 0 17 -2q-3 28 -5 57l1 247l4 44q-30 -1 -61 -5h-116q24 27 56 68
q57 66 73 79q3 6 11 9q7 6 29 16q-30 18 -54 38q-24 -39 -61 -88q-42 -54 -104 -122l-304 1q-15 3 -37 4q1 -18 3 -31q3 -21 3 -30l-1 -246q-1 -3 -5 -41q46 4 94 5h71q-10 -75 -24 -114q-12 -36 -42 -73q-57 -70 -151 -112q-40 -18 -105 -29q22 -18 41 -45q55 24 101 49
q67 39 106 71q33 30 62 79q19 37 31 72q9 34 21 102h160zM263 253v268h481v-268h-481zM394 562q16 18 33 34l-180 145q-18 -18 -36 -31q36 -19 69 -43q40 -30 68 -54q22 -24 46 -51v0z" />
  </g>

</svg>
