<?xml version="1.0" standalone="no"?>
<!DOCTYPE svg PUBLIC "-//W3C//DTD SVG 1.1//EN" "http://www.w3.org/Graphics/SVG/1.1/DTD/svg11.dtd" >
<svg xmlns="http://www.w3.org/2000/svg" xmlns:xlink="http://www.w3.org/1999/xlink" version="1.1" viewBox="-10 0 1034 1024">
  <g transform="matrix(1 0 0 -1 0 820)">
   <path fill="currentColor"
d="M574 289v-338q0 -54 31 -73q30 -18 121 -19q45 0 82 3q54 4 77 17q24 13 43 45q7 12 15 33q9 27 21 73q-22 9 -56 29q3 -21 4 -43q0 -69 -45 -100q-16 -9 -49 -14q-30 -3 -95 -4q-39 0 -65 4q-27 3 -37 17q-9 13 -10 42v328l201 -1l33 -4q6 0 13 -1q-3 31 -5 63l1 342
l4 44q-60 -4 -88 -5l-138 1q-19 3 -50 4q1 -30 5 -63v-172h-168l1 187l4 47q-55 -4 -84 -5l-150 3q-9 1 -16 2q1 -33 5 -66l-1 -336q-3 -15 -4 -46q60 6 93 6h120q0 -93 -38 -178q-48 -114 -190 -191q-57 -30 -110 -34q24 -24 40 -49q96 48 146 81q51 36 93 85
q82 102 102 286h144zM216 324v367h166l-1 -193q-3 -15 -4 -42q49 4 70 5l136 -1l46 -4q-4 49 -5 72v163h191v-367h-599z" />
  </g>

</svg>
