<?xml version="1.0" standalone="no"?>
<!DOCTYPE svg PUBLIC "-//W3C//DTD SVG 1.1//EN" "http://www.w3.org/Graphics/SVG/1.1/DTD/svg11.dtd" >
<svg xmlns="http://www.w3.org/2000/svg" xmlns:xlink="http://www.w3.org/1999/xlink" version="1.1" viewBox="-10 0 1034 1024">
  <g transform="matrix(1 0 0 -1 0 820)">
   <path fill="currentColor"
d="M576 194v-234q0 -51 25 -72q33 -24 139 -24q85 0 128 14q39 12 56 44q7 19 20 65q3 18 8 38q-18 6 -41 20q-3 1 -11 6q3 -24 4 -41q0 -22 -9 -54q-9 -25 -29 -36q-27 -15 -96 -16q-85 0 -103 3q-30 4 -41 19q-9 12 -10 48v220l123 7q24 -22 55 -60l36 38q-63 54 -111 91
l-112 85q-15 -21 -33 -41q75 -36 124 -80l-402 -13l57 49q21 18 49 45q48 45 78 70l58 41q-27 18 -49 40q-39 -66 -179 -184q-33 -27 -53 -37q-24 -12 -56 -19l23 -53q66 12 178 15q-3 -55 -9 -89q-3 -25 -18 -53q-40 -78 -151 -123q-67 -27 -156 -29q16 -27 29 -53
q40 9 68 17q24 6 52 17q126 48 181 134q21 36 30 68q6 28 14 112zM145 628q-27 0 -61 5v-46q39 4 61 5l750 -1l33 -4v46q-30 -1 -60 -5h-319q9 21 29 42q-28 22 -56 42l-95 64q-12 -18 -29 -39q54 -27 83 -48q39 -27 63 -61h-399zM124 392q21 -19 38 -45q108 64 211 142
q36 30 78 47q-25 16 -47 40q-46 -51 -121 -106q-54 -36 -90 -57q-33 -15 -69 -21zM596 509q55 -15 144 -63q76 -42 124 -83q13 27 30 48l-272 145z" />
  </g>

</svg>
