<?xml version="1.0" standalone="no"?>
<!DOCTYPE svg PUBLIC "-//W3C//DTD SVG 1.1//EN" "http://www.w3.org/Graphics/SVG/1.1/DTD/svg11.dtd" >
<svg xmlns="http://www.w3.org/2000/svg" xmlns:xlink="http://www.w3.org/1999/xlink" version="1.1" viewBox="-10 0 1010 1000">
   <path fill="currentColor"
d="M524 6q20 76 34 104h204q95 0 173 -10v93q-38 -10 -173 -10h-534q-117 1 -157 10v-91q38 7 159 8h236q-10 -29 -45 -96zM315 199q92 45 92 53q-3 4 -15 8q-32 12 -63 36q-72 59 -190 147q-14 -27 -62 -62q147 -69 238 -182zM651 205q11 7 36 21q65 37 232 136l-66 73
q-118 -100 -260 -177zM444 298q98 36 104 46q-1 1 -11 6q-33 16 -53 31q-23 16 -102 85q-21 18 -33 28h300q-9 -11 -72 -71l70 -42q79 68 182 177l-81 52l-38 -42h-95v172q-1 42 8 49q7 10 48 11q105 3 131 -10q32 -17 43 -119q33 39 88 60q-14 57 -44 105q-38 54 -286 33
q-78 -4 -69 -89v-212h-105q-24 179 -94 232q-72 58 -204 93q-27 -54 -73 -87q99 5 206 -52q75 -47 81 -188h-35l-82 16q0 -35 -24 -86h9q24 5 71 -27q114 -85 160 -171z" />
</svg>
