<?xml version="1.0" standalone="no"?>
<!DOCTYPE svg PUBLIC "-//W3C//DTD SVG 1.1//EN" "http://www.w3.org/Graphics/SVG/1.1/DTD/svg11.dtd" >
<svg xmlns="http://www.w3.org/2000/svg" xmlns:xlink="http://www.w3.org/1999/xlink" version="1.1" viewBox="-10 0 1034 1024">
  <g transform="matrix(1 0 0 -1 0 820)">
   <path fill="currentColor"
d="M776 215q15 0 58 -6q-4 49 -5 71l1 148l4 44q-28 -1 -58 -5h-221l152 179q-31 -1 -63 -5h-318q28 34 47 55q12 12 38 32q-27 9 -48 20q-3 1 -11 6q-42 -81 -125 -173q-81 -87 -153 -122q28 -15 53 -31q42 36 91 85q48 49 84 92h317q-63 -82 -117 -138l-277 1q-15 3 -41 4
q1 -31 5 -64l-1 -154q-3 -12 -4 -45q60 6 67 6h211q-31 -78 -68 -124q-46 -57 -117 -112q-108 -79 -211 -104q24 -19 44 -44q36 18 122 68q33 19 72 50q96 79 136 138q43 63 65 128h271zM228 251v180h255q0 -63 -4 -106q-3 -37 -9 -74h-242zM513 251q3 31 6 56l5 74l3 50
h263v-180h-277zM560 -46v164q0 16 3 32q1 18 12 33h-58q0 -3 1 -5q0 -12 4 -60l1 -204q3 -24 17 -41q3 -3 8 -6q27 -16 160 -17q114 0 147 7q43 9 68 54q7 15 22 63q3 12 7 27q-33 10 -54 23q0 -9 1 -20q0 -54 -15 -81q-12 -21 -41 -28q-25 -6 -109 -7l-121 3q-28 3 -40 12
q-12 10 -13 43v8zM648 136q31 -18 67 -51q24 -22 35 -36q3 -3 12 -16q6 -9 13 -21q12 15 31 30l7 7q-37 36 -65 62l-66 60q-21 -25 -34 -35v0z" />
  </g>

</svg>
