<?xml version="1.0" standalone="no"?>
<!DOCTYPE svg PUBLIC "-//W3C//DTD SVG 1.1//EN" "http://www.w3.org/Graphics/SVG/1.1/DTD/svg11.dtd" >
<svg xmlns="http://www.w3.org/2000/svg" xmlns:xlink="http://www.w3.org/1999/xlink" version="1.1" viewBox="-10 0 1034 1024">
  <g transform="matrix(1 0 0 -1 0 820)">
   <path fill="currentColor"
d="M918 -69q6 -6 14 -12q27 21 58 36q-48 18 -86 49q-42 33 -73 66q-30 36 -72 89q-75 105 -144 286q-30 82 -52 124q-21 42 -48 73q-19 19 -38 31l-85 41q-15 -27 -27 -44q54 -13 78 -27q21 -10 44 -36q-30 -120 -97 -257q-108 -204 -257 -343q-57 -54 -109 -72
q36 -12 67 -31q30 27 50 48q18 18 46 50q90 96 152 183q60 87 103 175q40 87 77 201q27 -54 44 -97l42 -104l27 -60q54 -114 116 -195q30 -42 71 -83q42 -45 74 -71z" />
  </g>

</svg>
