<?xml version="1.0" standalone="no"?>
<!DOCTYPE svg PUBLIC "-//W3C//DTD SVG 1.1//EN" "http://www.w3.org/Graphics/SVG/1.1/DTD/svg11.dtd" >
<svg xmlns="http://www.w3.org/2000/svg" xmlns:xlink="http://www.w3.org/1999/xlink" version="1.1" viewBox="-10 0 1034 1024">
  <g transform="matrix(1 0 0 -1 0 820)">
   <path fill="currentColor"
d="M31 -86l42 -14q9 -3 24 -13q72 90 86 111q70 103 117 211q58 136 110 361q10 57 17 72q4 15 21 36q-45 9 -68 17q-3 -63 -19 -143q-19 -96 -40 -164q-72 -235 -178 -372q-54 -69 -112 -102zM913 -76q9 -12 18 -23q24 21 58 35q-72 42 -121 101q-27 34 -52 71
q-24 37 -50 86q-63 120 -97 243q-45 166 -45 258v26q-31 -7 -59 -11q13 -24 23 -73l36 -180q19 -69 43 -137q18 -46 37 -90q16 -42 25 -53q63 -120 140 -205z" />
  </g>

</svg>
