<?xml version="1.0" standalone="no"?>
<!DOCTYPE svg PUBLIC "-//W3C//DTD SVG 1.1//EN" "http://www.w3.org/Graphics/SVG/1.1/DTD/svg11.dtd" >
<svg xmlns="http://www.w3.org/2000/svg" xmlns:xlink="http://www.w3.org/1999/xlink" version="1.1" viewBox="-10 0 1010 1000">
   <path fill="currentColor"
d="M635 2q2 1 2 8q-1 36 20 76q116 219 307 270q-61 43 -87 87q-51 -37 -114 -89q-11 -9 -17 -14v59q-42 -6 -159 -6h-164l-46 141h169q147 0 230 -10q-3 21 -9 59q-4 20 -5 29q-29 205 -52 216q-38 49 -232 69q-10 -48 -53 -113q52 14 111 12q58 -2 87 -20q42 -23 52 -164
h-274q-95 0 -137 7l77 -224h-15q-63 -1 -98 6v-67q-13 16 -88 102q-17 20 -25 29q-30 -26 -87 -56q179 -119 299 -395q113 37 108 46q-1 3 -8 9q-27 20 -50 56q-69 106 -129 185q50 7 127 6h204q108 -3 131 -6q-86 -98 -170 -286q79 -26 95 -22z" />
</svg>
