<?xml version="1.0" standalone="no"?>
<!DOCTYPE svg PUBLIC "-//W3C//DTD SVG 1.1//EN" "http://www.w3.org/Graphics/SVG/1.1/DTD/svg11.dtd" >
<svg xmlns="http://www.w3.org/2000/svg" xmlns:xlink="http://www.w3.org/1999/xlink" version="1.1" viewBox="-10 0 1034 1024">
  <g transform="matrix(1 0 0 -1 0 820)">
   <path fill="currentColor"
d="M375 612l24 43q16 27 47 44q-42 15 -64 30q-25 -63 -45 -103q-21 -40 -55 -94q-33 -51 -59 -87q-90 -120 -171 -156q34 -19 56 -40q96 106 102 112q61 72 134 197q15 27 31 54zM771 -39q31 -54 44 -92q30 21 50 30l-90 146l-110 166q-15 -12 -40 -24q-3 0 -6 -2
q54 -60 132 -189q-90 -12 -183 -20l-307 -27q58 90 106 169q45 72 84 141q63 114 69 119q13 18 40 34q-33 9 -68 28q-18 -48 -36 -84l-107 -198q-12 -18 -20 -34q-22 -39 -78 -120q-33 -46 -75 -58q15 -28 24 -55l190 30zM635 634l22 -47q15 -33 44 -79q24 -42 50 -75
q21 -25 39 -50q19 -21 39 -43q40 -42 96 -92q12 16 29 27q9 6 20 14q-60 24 -123 87q-87 90 -146 200q-51 102 -67 174q-34 -12 -53 -16q15 -27 34 -65q7 -16 16 -35v0z" />
  </g>

</svg>
