<?xml version="1.0" standalone="no"?>
<!DOCTYPE svg PUBLIC "-//W3C//DTD SVG 1.1//EN" "http://www.w3.org/Graphics/SVG/1.1/DTD/svg11.dtd" >
<svg xmlns="http://www.w3.org/2000/svg" xmlns:xlink="http://www.w3.org/1999/xlink" version="1.1" viewBox="-10 0 1010 1000">
   <path fill="currentColor"
d="M667 12q37 7 80 23l9 3q50 18 11 40q-9 6 -11 8q-35 36 -107 152h125q86 1 123 -7v95q-42 -9 -119 -8h-534q-95 -1 -139 8v-95q33 7 137 7h318q83 -141 107 -226zM315 24q76 72 131 161l-99 48q-45 -94 -121 -165zM163 483q42 7 156 7h369q96 1 147 -7v97q-47 -8 -152 -8
h-362q-107 0 -158 8v-97zM65 768q44 9 131 8h602q96 0 135 -8v97q-44 -7 -135 -7h-604q-76 -1 -129 7v-97z" />
</svg>
