<?xml version="1.0" standalone="no"?>
<!DOCTYPE svg PUBLIC "-//W3C//DTD SVG 1.1//EN" "http://www.w3.org/Graphics/SVG/1.1/DTD/svg11.dtd" >
<svg xmlns="http://www.w3.org/2000/svg" xmlns:xlink="http://www.w3.org/1999/xlink" version="1.1" viewBox="-10 0 1010 1000">
   <path fill="currentColor"
d="M496 30q40 67 81 187l-93 25q-30 -109 -75 -186zM65 262q51 8 135 8h588q108 0 141 -10v98q-46 -9 -139 -10h-596q-91 0 -129 6v-92zM341 437q74 30 99 53q0 3 -8 9q-28 23 -51 61q-101 164 -232 311q-40 -32 -91 -49q183 -146 283 -385zM631 445q128 148 272 359l-86 59
q-121 -218 -255 -375z" />
</svg>
