<?xml version="1.0" standalone="no"?>
<!DOCTYPE svg PUBLIC "-//W3C//DTD SVG 1.1//EN" "http://www.w3.org/Graphics/SVG/1.1/DTD/svg11.dtd" >
<svg xmlns="http://www.w3.org/2000/svg" xmlns:xlink="http://www.w3.org/1999/xlink" version="1.1" viewBox="-10 0 1010 1000">
   <path fill="currentColor"
d="M363 -19q49 45 99 101l-67 37h176q39 -62 70 -134q100 17 107 35q-1 4 -16 17q-47 36 -77 82h69q133 -1 169 -4v72q-13 -2 -49 -3q-17 -1 -43 -1h-73h-182q-1 5 -4 16q-4 20 -16 61h172q84 0 149 -4v70q-73 -4 -151 -4h-186q-1 3 -3 10q-16 53 -25 69h266q74 -2 171 -6
v72q-45 -3 -53 -2h-42h-68h-123q41 57 127 101q74 34 192 44q-26 34 -51 83q-7 13 -10 20q-110 -41 -210 -113v140q0 69 6 163h-94q3 -54 4 -163v-166l54 6q-30 -17 -89 -115h-118q-12 16 -19 26q-18 27 -40 48q-8 9 -22 23q92 2 87 16q0 8 -6 16q-10 14 -11 35
q-10 156 -90 215q-51 37 -139 71q-3 -5 -9 -14q-17 -32 -64 -63q137 -11 192 -92q34 -72 24 -172q-11 9 -21 17q-42 41 -141 93q-26 15 -66 37q-32 -53 -67 -74q213 -52 309 -182h-131q-133 3 -163 6v-76q27 0 165 6h165q17 -26 36 -79h-127q-76 0 -103 1q-33 1 -50 3v-70
q18 0 78 2q43 1 69 2h150q3 -11 9 -32q9 -32 11 -45h-198q-85 0 -113 1q-35 1 -52 3v-72q41 4 165 4h109q-29 -43 -93 -95z" />
</svg>
