<?xml version="1.0" standalone="no"?>
<!DOCTYPE svg PUBLIC "-//W3C//DTD SVG 1.1//EN" "http://www.w3.org/Graphics/SVG/1.1/DTD/svg11.dtd" >
<svg xmlns="http://www.w3.org/2000/svg" xmlns:xlink="http://www.w3.org/1999/xlink" version="1.1" viewBox="-10 0 1034 1024">
  <g transform="matrix(1 0 0 -1 0 820)">
   <path fill="currentColor"
d="M404 136q0 7 2 11q6 24 16 39l-31 3q-13 3 -32 9q0 -28 3 -58q0 -60 -17 -124q-24 -87 -99 -127q-25 -13 -91 -30q24 -16 45 -46q72 40 103 66q73 69 92 189zM582 317q70 -82 167 -140q24 -15 91 -45q51 -24 108 -42q12 24 34 50q-63 7 -142 37q-79 33 -121 65
q-15 10 -31 25l-52 50q285 0 292 -3q3 0 9 -3v47q-24 -4 -65 -5h-421q6 9 13 29l28 73l293 -1q15 0 42 -5v47q-22 -6 -66 -6h-262q6 21 12 60q3 27 7 38l346 -1q15 0 29 -5v47q-6 0 -12 -2q-13 -3 -53 -3h-230l67 70q34 36 71 55q-3 3 -16 10q-24 12 -38 27q-18 -30 -38 -55
q-54 -63 -99 -107h-353q-15 0 -53 3q-7 0 -13 2v-47q6 3 13 3q24 3 53 3h282q-4 -42 -10 -69q-3 -13 -8 -29l-233 1q-24 3 -29 3q-3 0 -6 2v-47q4 3 13 3q31 3 55 3h189q-18 -58 -41 -102h-254q-15 0 -53 3q-7 0 -13 2v-47q9 4 42 5l255 1q-70 -88 -149 -140
q-48 -31 -86 -47q-36 -12 -102 -26q18 -15 40 -48q54 21 95 41q37 21 82 51q97 69 172 169h149zM429 665q-63 57 -110 97l-13 13q-3 -6 -28 -30q15 -9 35 -30l31 -26q51 -48 57 -53q13 15 28 29zM651 193l6 -60l-1 -259l-3 -27q0 -6 -2 -14h49q0 6 -2 14l-4 53l1 248
q3 21 18 45h-62z" />
  </g>

</svg>
