<?xml version="1.0" standalone="no"?>
<!DOCTYPE svg PUBLIC "-//W3C//DTD SVG 1.1//EN" "http://www.w3.org/Graphics/SVG/1.1/DTD/svg11.dtd" >
<svg xmlns="http://www.w3.org/2000/svg" xmlns:xlink="http://www.w3.org/1999/xlink" version="1.1" viewBox="-10 0 1010 1000">
   <path fill="currentColor"
d="M440 -8q111 -3 114 10q2 8 -5 19q-15 25 -15 67q0 29 -6 95h218q47 0 121 -9l6 -1q-7 68 -8 133v470q-1 114 -161 129q-14 -61 -39 -97q122 19 121 -73v-477h-262q-9 89 -18 115q86 73 189 173q30 30 49 48l-77 61q-80 -112 -181 -208q-45 125 -165 230q-24 -34 -75 -50
q183 -113 200 -369h-220v471q0 144 8 168h-95q8 -66 8 -168v-433q0 -40 -7 -114l-1 -7q55 8 111 8h198v-103q-1 -56 -8 -88z" />
</svg>
