<?xml version="1.0" standalone="no"?>
<!DOCTYPE svg PUBLIC "-//W3C//DTD SVG 1.1//EN" "http://www.w3.org/Graphics/SVG/1.1/DTD/svg11.dtd" >
<svg xmlns="http://www.w3.org/2000/svg" xmlns:xlink="http://www.w3.org/1999/xlink" version="1.1" viewBox="-10 0 1034 1024">
  <g transform="matrix(1 0 0 -1 0 820)">
   <path fill="currentColor"
d="M385 -95q-6 -66 -6 -74h48q-3 10 -5 59v269h152v-249q0 -33 -5 -63q0 -3 -1 -8h49l-6 71v243q36 -42 66 -74q28 -28 65 -60q33 -27 65 -48q42 -25 117 -68q18 30 43 50q-66 10 -144 58q-90 57 -167 148q106 0 121 -2l36 -4q-4 52 -5 102v45q112 0 135 -3q6 0 12 -2v46
l-47 -4l-100 -1l1 101q0 19 4 47q-60 -4 -90 -5h-112v108q270 0 290 -3q6 0 12 -2v46q-4 0 -8 -1q-6 0 -58 -4h-254q63 69 91 93q24 19 62 33q-37 19 -65 46q-24 -36 -53 -74q-33 -42 -82 -98h-388q-43 0 -66 5v-46q30 4 66 5h227v-108h-148q-40 0 -66 5v-46q24 4 66 5h148
v-107h-254q-36 0 -67 5v-46q30 4 67 5h254v-105h-150q-39 0 -67 5v-47q6 3 23 4q30 1 100 2h64q-58 -73 -159 -150q-85 -61 -148 -72q36 -24 53 -42q60 39 135 96q93 75 149 143v-229zM422 195v105h152v-105h-152zM422 336v107h152v-107h-152zM422 479v108h152v-108h-152z
M611 195v105h159v-105h-159zM611 336v107h159v-107h-159zM241 734q70 -34 140 -102q1 1 3 4q3 3 5 7q1 3 4 7q4 7 20 18q-37 30 -78 59q-36 25 -65 43q-15 -21 -29 -36v0z" />
  </g>

</svg>
