<?xml version="1.0" standalone="no"?>
<!DOCTYPE svg PUBLIC "-//W3C//DTD SVG 1.1//EN" "http://www.w3.org/Graphics/SVG/1.1/DTD/svg11.dtd" >
<svg xmlns="http://www.w3.org/2000/svg" xmlns:xlink="http://www.w3.org/1999/xlink" version="1.1" viewBox="-10 0 1034 1024">
  <g transform="matrix(1 0 0 -1 0 820)">
   <path fill="currentColor"
d="M147 -74l-4 -64q-1 -3 -1 -8h49q-4 33 -5 72v594h307q-9 -96 -28 -157q-19 -60 -64 -127q-87 -123 -187 -164q27 -15 34 -20q9 -6 20 -18q93 82 139 140q46 60 92 153q78 -73 164 -176q33 -42 61 -86q7 6 15 12q10 10 28 20q-79 97 -104 122l-153 157q9 39 14 69l10 75
h295v-525q0 -42 -8 -59q-10 -18 -45 -24q-24 -4 -47 -5q-27 0 -59 6q16 -33 22 -59l81 10q48 6 70 26q27 24 27 73l1 552l4 46q-30 -1 -61 -5h-277q1 63 8 126q3 34 21 63q-31 3 -71 14q4 -42 5 -87l-1 -39q0 -27 -4 -77l-308 1q-1 0 -45 4q1 -30 5 -62v-573z" />
  </g>

</svg>
