<?xml version="1.0" standalone="no"?>
<!DOCTYPE svg PUBLIC "-//W3C//DTD SVG 1.1//EN" "http://www.w3.org/Graphics/SVG/1.1/DTD/svg11.dtd" >
<svg xmlns="http://www.w3.org/2000/svg" xmlns:xlink="http://www.w3.org/1999/xlink" version="1.1" viewBox="-10 0 1034 1024">
  <g transform="matrix(1 0 0 -1 0 820)">
   <path fill="currentColor"
d="M193 -141q-4 24 -5 77v722h655v-687q0 -36 -11 -49q-6 -7 -27 -12q-27 -6 -62 -7q-21 0 -65 8q12 -30 17 -59l60 5q6 0 24 2q57 7 77 24q27 18 28 88l1 680q0 21 4 49l-62 -7l-638 1q-10 1 -21 3q-1 0 -4 1q-6 0 -20 2q1 -33 5 -67l-1 -729l-4 -45h49zM498 240q7 9 25 27
q57 -60 121 -134q30 -37 45 -62q1 -3 4 -7q21 27 41 37q-15 15 -29 31l-45 48l-113 118q93 138 125 179q9 15 19 25q12 13 40 28q-25 15 -59 39q-12 -27 -23 -48q-10 -21 -32 -54q-43 -69 -97 -141q-72 69 -94 92l-104 101q-15 -18 -34 -33q21 -15 64 -51l141 -140
q-96 -108 -146 -153q-54 -45 -112 -70q27 -12 56 -37q6 9 24 24q30 27 56 51l81 80q22 25 46 50v0z" />
  </g>

</svg>
