<?xml version="1.0" standalone="no"?>
<!DOCTYPE svg PUBLIC "-//W3C//DTD SVG 1.1//EN" "http://www.w3.org/Graphics/SVG/1.1/DTD/svg11.dtd" >
<svg xmlns="http://www.w3.org/2000/svg" xmlns:xlink="http://www.w3.org/1999/xlink" version="1.1" viewBox="-10 0 1034 1024">
  <g transform="matrix(1 0 0 -1 0 820)">
   <path fill="currentColor"
d="M721 99l-58 -6l-519 1l-18 2q-6 0 -13 3v-49q24 6 62 6h486q42 0 60 -6v49zM905 701q-15 -1 -27 -3q-18 -3 -27 -4l-678 1q-16 3 -43 6q1 -30 5 -61l-3 -109q0 -4 -2 -11h49q0 6 -3 10l-2 98v31h687l-3 -105q0 -12 -4 -26h51q-6 18 -6 71q0 52 2 61q0 12 4 40q-1 1 0 1z
M279 589q0 -3 2 -7q1 -15 4 -57l-4 -96l-6 -108l-8 -82q12 3 47 4q13 3 23 2h479l-3 -260l-3 -12q-9 -37 -47 -52q-37 -12 -97 -13q-27 0 -64 5q13 -24 17 -53q82 3 134 16q73 21 88 64q6 13 9 43l4 212l5 94l-26 -4q-19 -3 -28 -3h-494l9 157h432q39 0 60 -5v48
q-4 -1 -27 -4q-18 -1 -33 -2h-430l3 49q3 31 14 64h-60z" />
  </g>

</svg>
