<?xml version="1.0" standalone="no"?>
<!DOCTYPE svg PUBLIC "-//W3C//DTD SVG 1.1//EN" "http://www.w3.org/Graphics/SVG/1.1/DTD/svg11.dtd" >
<svg xmlns="http://www.w3.org/2000/svg" xmlns:xlink="http://www.w3.org/1999/xlink" version="1.1" viewBox="-10 0 1034 1024">
  <g transform="matrix(1 0 0 -1 0 820)">
   <path fill="currentColor"
d="M474 583q-37 -94 -66 -140q-45 -72 -86 -116q-42 -45 -105 -92q-84 -60 -165 -79q24 -16 45 -43q84 45 212 142v-313q0 -13 -10 -34q-6 -10 -17 -21l35 -47q69 66 86 79q13 12 29 23l36 31q28 27 57 50q13 12 29 23l-5 20q-3 10 -5 36q-39 -45 -82 -82q-46 -40 -116 -95
v367q31 37 51 64q16 22 32 46q21 33 36 60q15 31 40 89q6 16 14 32h316l-5 -150q-1 0 -1 -3h50q0 6 -3 10l-2 108q0 27 3 53q0 12 2 23q-30 -1 -59 -5h-290q19 70 22 76q9 28 13 34q4 10 15 22q-28 7 -34 10q-9 1 -30 9q-3 -54 -22 -126l-7 -25l-273 1q-15 3 -44 4
q4 -54 5 -87l-4 -107q-1 0 -1 -4h49q0 6 -3 10l-2 108v39h260zM617 185q-25 45 -51 108q-30 90 -36 113q-24 -12 -52 -20q21 -27 36 -64q13 -33 22 -55q7 -21 35 -79q51 -93 121 -158q114 -102 235 -158q16 21 45 44q-105 21 -206 105q-46 36 -68 60q-21 21 -60 71
q31 27 53 49q19 18 40 40q48 49 61 60q15 13 50 30q-28 21 -50 44q-67 -94 -175 -190v0z" />
  </g>

</svg>
