<?xml version="1.0" standalone="no"?>
<!DOCTYPE svg PUBLIC "-//W3C//DTD SVG 1.1//EN" "http://www.w3.org/Graphics/SVG/1.1/DTD/svg11.dtd" >
<svg xmlns="http://www.w3.org/2000/svg" xmlns:xlink="http://www.w3.org/1999/xlink" version="1.1" viewBox="-10 0 1010 1000">
   <path fill="currentColor"
d="M462 -13q114 15 109 27q1 8 -7 18q-7 11 -10 20q-2 8 -7 25q-9 33 -15 52h214q88 -2 157 -8q-8 29 -8 86v8q0 39 5 87q1 8 1 12h-103q6 -54 6 -117h-290q-54 141 -129 254l-12 313q90 -52 157 -105l30 91q-117 55 -266 161l-42 -75q29 -22 42 -84l8 -212
q-97 106 -199 175q-36 -50 -81 -72q311 -158 407 -446h-242q0 76 5 127h-89q2 -19 3 -41q1 -18 1 -60v-18q-1 -58 -8 -84q4 0 15 1q100 7 136 7h194q22 -68 18 -142zM563 328q8 104 48 192l7 -7q84 -76 138 -142q69 55 69 74q-2 4 -12 7q-18 6 -35 17q-31 21 -139 101
q76 125 296 188q-34 24 -63 65q-13 18 -21 29q-319 -153 -373 -512z" />
</svg>
