<?xml version="1.0" standalone="no"?>
<!DOCTYPE svg PUBLIC "-//W3C//DTD SVG 1.1//EN" "http://www.w3.org/Graphics/SVG/1.1/DTD/svg11.dtd" >
<svg xmlns="http://www.w3.org/2000/svg" xmlns:xlink="http://www.w3.org/1999/xlink" version="1.1" viewBox="-10 0 1034 1024">
  <g transform="matrix(1 0 0 -1 0 820)">
   <path fill="currentColor"
d="M610 248q13 19 27 38q9 12 15 22l20 25q-15 21 -28 42q-24 -45 -49 -82q-72 -96 -103 -143q-13 -13 -35 -42q-27 -30 -72 -76q-7 -6 -15 -13q18 -12 29 -22q6 -6 13 -15zM514 440q9 -10 19 -21q10 15 26 27q3 3 7 6q-10 9 -19 18l-37 40l-38 40l-61 59q-15 -18 -31 -30
l51 -46q27 -27 50 -52q16 -19 33 -41v0z" />
  </g>

</svg>
