<?xml version="1.0" standalone="no"?>
<!DOCTYPE svg PUBLIC "-//W3C//DTD SVG 1.1//EN" "http://www.w3.org/Graphics/SVG/1.1/DTD/svg11.dtd" >
<svg xmlns="http://www.w3.org/2000/svg" xmlns:xlink="http://www.w3.org/1999/xlink" version="1.1" viewBox="-10 0 1034 1024">
  <g transform="matrix(1 0 0 -1 0 820)">
   <path fill="currentColor"
d="M558 214v-236q0 -24 13 -44q13 -19 46 -27q30 -7 81 -8l98 2q39 1 65 7q57 12 77 70q6 16 13 43q3 12 7 31q-25 9 -51 26q3 -21 3 -32q0 -18 -4 -35q-6 -28 -23 -46q-21 -21 -80 -26l-104 -2q-51 0 -73 7q-30 10 -30 48v222l183 -1l41 -4q-6 60 -6 87q0 84 2 97q0 9 4 34
q-28 -1 -57 -5h-173q36 34 80 82q22 22 50 55q-30 -1 -59 -5h-256l21 21q30 30 61 43q-27 15 -53 33q-24 -33 -46 -56q-24 -25 -47 -46q-19 -18 -38 -31q-75 -54 -113 -75q-37 -19 -83 -29q25 -19 47 -40q27 18 45 26q15 10 30 19l3 -149q0 -21 -6 -61q27 3 57 5h182
q-37 -87 -104 -154q-40 -39 -101 -78q-63 -37 -111 -52q-55 -15 -90 -15q27 -31 39 -50q69 24 119 47q97 45 189 138q28 30 50 64q24 39 54 100h48zM283 422q-21 3 -44 3q42 25 70 47q27 19 57 46h265q-33 -33 -39 -40q-31 -34 -59 -56h-250zM270 250v136h236q-3 -28 -8 -52
q-6 -30 -20 -84h-208zM519 250q7 27 14 56q6 33 14 80h228v-136h-256zM124 595l-4 -48q0 -4 -2 -11h50q-3 12 -5 26l-1 108h682l-3 -115q0 -4 -2 -11h49q0 6 -3 10l-2 103q1 27 5 54q-27 -1 -55 -5l-674 1q-15 3 -41 4q6 -60 6 -84v-32zM722 168q-6 3 -16 14q-7 -12 -13 -16
q-3 -4 -20 -19q87 -57 130 -115q12 15 35 33q-75 69 -116 103v0z" />
  </g>

</svg>
