<?xml version="1.0" standalone="no"?>
<!DOCTYPE svg PUBLIC "-//W3C//DTD SVG 1.1//EN" "http://www.w3.org/Graphics/SVG/1.1/DTD/svg11.dtd" >
<svg xmlns="http://www.w3.org/2000/svg" xmlns:xlink="http://www.w3.org/1999/xlink" version="1.1" viewBox="-10 0 1010 1000">
   <path fill="currentColor"
d="M911 36q-8 33 -8 83q0 93 6 119h-94q3 -18 3 -39q1 -16 1 -82h-636q0 91 5 123h-95q0 -3 1 -9q5 -48 5 -96q0 -66 -6 -99q79 8 175 8h428q165 -1 215 -8zM369 129q94 35 105 48q1 3 -14 10q-33 13 -53 30h204q84 0 135 -6q4 0 -22 31q-14 18 -22 28q-28 36 -59 73
q-11 13 -16 19h65q102 0 149 -8q-8 41 -8 121q-1 106 8 125q-52 -7 -160 -8h-165q-84 229 -395 299q-13 -36 -63 -81q270 -27 379 -218h-155q0 14 2 32q1 8 2 13h-94q7 -42 8 -158v-76q-73 53 -89 60q-26 -36 -67 -60q212 -89 325 -274zM595 276h-238q-29 30 -95 78
q4 9 99 8h177q69 -92 57 -86zM474 423h-194v107h176q16 -61 18 -107zM756 423h-206q-4 53 -18 107h224v-107zM536 615q91 1 101 10q1 3 -5 13q-13 24 -13 45v63q-1 32 11 38q11 8 62 8h110q60 1 71 -103q58 45 89 51q-26 82 -57 103q-29 25 -109 24h-137q-71 1 -93 -17
q-26 -19 -26 -70q0 -113 -4 -165zM732 619q36 32 78 86l-70 51q-37 -62 -75 -95z" />
</svg>
