<?xml version="1.0" standalone="no"?>
<!DOCTYPE svg PUBLIC "-//W3C//DTD SVG 1.1//EN" "http://www.w3.org/Graphics/SVG/1.1/DTD/svg11.dtd" >
<svg xmlns="http://www.w3.org/2000/svg" xmlns:xlink="http://www.w3.org/1999/xlink" version="1.1" viewBox="-10 0 1010 1000">
   <path fill="currentColor"
d="M538 12q102 0 105 12q1 4 -3 9q-13 24 -13 80q0 113 42 243q26 -28 43 -47q55 -55 87 -106q6 -9 14 -20l102 65q-28 -6 -219 171q81 187 262 276q-61 18 -97 73q-204 -176 -234 -395v371q1 79 -33 105q-28 27 -134 34q-10 -74 -55 -111q142 31 139 -35v-629q0 -78 -6 -96
zM147 90q44 36 127 145l-78 55q-48 -90 -121 -153zM284 235q20 7 95 7h54q47 0 77 -5q-35 385 -238 559q-34 -39 -91 -50q216 -124 240 -428h-42q-86 -1 -95 8v-91zM185 371l77 54q-66 229 -141 351l-79 -65q76 -103 143 -340z" />
</svg>
