<?xml version="1.0" standalone="no"?>
<!DOCTYPE svg PUBLIC "-//W3C//DTD SVG 1.1//EN" "http://www.w3.org/Graphics/SVG/1.1/DTD/svg11.dtd" >
<svg xmlns="http://www.w3.org/2000/svg" xmlns:xlink="http://www.w3.org/1999/xlink" version="1.1" viewBox="-10 0 1010 1000">
   <path fill="currentColor"
d="M347 40q66 11 220 12q140 0 262 -8q-1 17 -7 55q-10 43 -44 330q36 0 87 -3q23 -1 30 -1l-3 36q-5 89 -23 307q-2 58 -38 76q-37 22 -154 33q-8 -61 -44 -111q151 31 153 -39q16 -116 18 -225h-270q-78 -3 -131 4q11 -42 21 -157q9 -132 5 -176q82 4 97 12q1 2 -1 11
q-17 65 -29 233h198l40 -304h-264q-85 -3 -123 8v-93zM177 68q42 66 101 178l6 12l-90 42q-29 -87 -103 -192zM210 354q23 34 82 51q-4 11 -12 32q-73 198 -111 339q-39 -34 -107 -65q104 -143 148 -357zM280 588q4 1 13 2q41 8 106 8h196q91 0 133 -6v91q-19 -7 -49 -10
q-29 -2 -90 -2h-184q-83 -1 -125 8v-91z" />
</svg>
