<?xml version="1.0" standalone="no"?>
<!DOCTYPE svg PUBLIC "-//W3C//DTD SVG 1.1//EN" "http://www.w3.org/Graphics/SVG/1.1/DTD/svg11.dtd" >
<svg xmlns="http://www.w3.org/2000/svg" xmlns:xlink="http://www.w3.org/1999/xlink" version="1.1" viewBox="-10 0 1010 1000">
   <path fill="currentColor"
d="M526 -13q109 16 113 27q1 6 -11 10q-10 3 -11 8q136 236 343 296q-40 22 -79 83q-205 -125 -302 -329q-70 207 -279 365q-32 -40 -80 -58q234 -123 306 -402zM157 58q53 48 145 179l-82 59q-29 -65 -135 -181zM593 262q29 51 60 147l-84 22q-16 -77 -57 -145zM177 385
l77 74q-70 225 -143 347l-75 -77q88 -124 141 -344zM323 453q22 8 127 8h304q48 0 129 -6q-4 8 -175 218q-45 57 -73 91l89 88l-89 57q-91 -140 -234 -252l73 -59q51 52 105 111q96 -110 141 -177h-270q-124 0 -127 8v-87z" />
</svg>
