<?xml version="1.0" standalone="no"?>
<!DOCTYPE svg PUBLIC "-//W3C//DTD SVG 1.1//EN" "http://www.w3.org/Graphics/SVG/1.1/DTD/svg11.dtd" >
<svg xmlns="http://www.w3.org/2000/svg" xmlns:xlink="http://www.w3.org/1999/xlink" version="1.1" viewBox="-10 0 1034 1024">
  <g transform="matrix(1 0 0 -1 0 820)">
   <path fill="currentColor"
d="M173 135l36 78l46 87q-18 22 -30 47q-19 -55 -36 -93q-16 -37 -45 -93q-54 -105 -91 -140q36 -24 51 -41q4 12 9 22q0 1 27 62zM78 628q93 -54 170 -144q9 21 29 40q-24 27 -64 59l-104 81q-10 -15 -31 -36zM589 467v-131h-232q-39 0 -64 5v-46q27 4 64 5h232v-149h-177
q-45 0 -65 5v-46q24 4 65 5h177v-173q0 -24 -8 -37q-3 -4 -20 -11q-19 -4 -50 -5q-37 0 -79 6q19 -30 26 -51q52 3 83 6q24 3 43 9q45 13 46 90v166q186 0 202 -2q15 0 37 -3q-4 52 -5 97v93h38q34 0 64 -5v46q-36 -4 -64 -5h-38l1 129l4 43q-31 -1 -63 -5h-120l76 114
q19 27 39 57q-33 -1 -66 -5h-229q18 30 32 46q10 15 36 24l-24 12q-7 3 -16 8q-13 6 -20 12q-28 -67 -108 -176q-60 -78 -124 -105q36 -18 53 -31q18 15 41 38v-35q7 0 17 2q51 3 100 3h96zM385 508q43 55 94 125h248q-39 -63 -89 -130l-217 1q-24 3 -36 4zM630 151v149h193
v-149h-193zM823 467v-131h-193v131h193z" />
  </g>

</svg>
