<?xml version="1.0" standalone="no"?>
<!DOCTYPE svg PUBLIC "-//W3C//DTD SVG 1.1//EN" "http://www.w3.org/Graphics/SVG/1.1/DTD/svg11.dtd" >
<svg xmlns="http://www.w3.org/2000/svg" xmlns:xlink="http://www.w3.org/1999/xlink" version="1.1" viewBox="-10 0 1010 1000">
   <path fill="currentColor"
d="M448 -4q103 19 108 30q1 1 -8 9q-32 30 -56 67h185q50 -1 107 -10q-15 34 -137 174q138 0 200 -12q-8 42 -8 167q60 0 98 -8v83q-26 -10 -100 -8q0 156 12 217h-95q6 -33 6 -60h-167v165q2 53 -27 67q-22 15 -129 22q-1 -46 -36 -97q86 8 98 1q20 -6 19 -43v-115h-131
q-67 -1 -99 4v-71q7 6 95 6h135v-97h-135q-84 0 -115 5v-75l3 1q50 9 106 7h141v-99q-64 0 -94 2q-26 1 -65 6v-42q-29 37 -67 73q-37 -31 -78 -43q154 -114 234 -326zM145 76q59 77 107 164l-83 46q-42 -93 -102 -165zM645 163h-189l-71 93q10 5 43 7q17 1 44 1h84z
M762 326h-169v99h169v-99zM169 391q24 36 77 54q-89 257 -101 335q-31 -29 -78 -59q-11 -6 -17 -10q81 -126 119 -320zM593 487v97h169v-97h-169z" />
</svg>
