<?xml version="1.0" standalone="no"?>
<!DOCTYPE svg PUBLIC "-//W3C//DTD SVG 1.1//EN" "http://www.w3.org/Graphics/SVG/1.1/DTD/svg11.dtd" >
<svg xmlns="http://www.w3.org/2000/svg" xmlns:xlink="http://www.w3.org/1999/xlink" version="1.1" viewBox="-10 0 1034 1024">
  <g transform="matrix(1 0 0 -1 0 820)">
   <path fill="currentColor"
d="M697 273v-374q0 -27 23 -44q24 -15 83 -15q39 0 74 4q63 9 87 66q6 18 17 48l-54 25q1 -13 2 -29q0 -24 -8 -42q-12 -19 -47 -28q-25 -3 -74 -4q-45 0 -58 15q-7 6 -8 34v344l190 -1q15 0 36 -4v47q-10 -3 -23 -4q-18 0 -40 -2h-238v214l197 -1q3 0 28 -5v47q-1 0 -60 -5
h-165v141q0 27 14 63h-57l5 -101v-103h-145q12 28 20 50q7 18 14 31q9 18 29 38q-27 6 -59 21q-6 -37 -18 -71q-15 -37 -45 -101q-39 -84 -86 -115l53 -24l47 81q12 22 27 54h163v-214l-238 1l-36 5v-47q1 0 3 1q-3 0 9 1q27 3 54 3h125q-4 -111 -27 -174
q-42 -105 -153 -171q-40 -22 -70 -33q-27 -9 -64 -14q21 -21 41 -44q150 69 214 135q46 51 68 115q18 60 32 186h118zM110 4q16 27 34 52l50 76l130 197q-15 15 -33 35q-15 -31 -38 -69q-30 -49 -93 -143l-32 -45q-34 -48 -45 -59q-12 -13 -34 -29q21 -12 50 -32q4 9 11 17z
M257 487q19 27 26 31q3 4 7 5q-37 36 -75 75q-36 36 -69 73q-18 -19 -31 -30q49 -46 82 -80q28 -30 60 -74v0z" />
  </g>

</svg>
