<?xml version="1.0" standalone="no"?>
<!DOCTYPE svg PUBLIC "-//W3C//DTD SVG 1.1//EN" "http://www.w3.org/Graphics/SVG/1.1/DTD/svg11.dtd" >
<svg xmlns="http://www.w3.org/2000/svg" xmlns:xlink="http://www.w3.org/1999/xlink" version="1.1" viewBox="-10 0 1034 1024">
  <g transform="matrix(1 0 0 -1 0 820)">
   <path fill="currentColor"
d="M59 608q9 -10 20 -21q24 -27 35 -41q21 -25 46 -60q15 -16 29 -42q18 18 32 26l-76 97l-55 67q-21 -15 -31 -26zM203 237q13 36 25 73q-3 3 -26 14q-1 0 -13 11q-10 -55 -27 -107q-6 -21 -56 -162q-18 -51 -46 -89q21 -7 46 -24q9 28 14 36q12 31 22 67zM366 -83
q-4 -64 -5 -70h49q-6 66 -6 70v420l58 -69q21 -27 43 -60q9 18 29 31q-18 27 -38 49l-92 100v89h71q12 0 52 -5v46q-46 -4 -77 -5h-46v168q3 33 4 39q1 13 11 28h-58q4 -49 5 -77v-158l-90 3q-7 1 -24 2v-46q6 1 12 1q36 3 45 4h53q-10 -54 -25 -100q-16 -48 -46 -117
q-34 -78 -55 -113q-18 -30 -54 -58q22 -7 50 -26q18 25 34 52q15 28 36 71q18 39 34 76q13 39 30 93v-438zM498 325q27 -12 45 -24q69 105 107 279q13 63 17 68q4 18 27 38q-33 4 -63 14q-3 -46 -23 -131q-24 -105 -54 -168q-25 -51 -56 -76zM697 397l-9 -58l-18 -80
q-6 -36 -15 -65q-9 -33 -25 -82q-4 -18 -9 -31l-20 -60q-18 -63 -53 -73l12 -19q6 -13 11 -29q40 13 84 23l204 32q15 -40 22 -63q3 -12 6 -27q18 9 42 15l-63 167l-62 146q-12 -10 -37 -16q39 -72 81 -191l-231 -31q16 42 29 82l53 174l32 122q10 30 29 47q-16 3 -27 7
q-18 6 -36 10zM794 727q-30 0 -49 4q9 -231 155 -447q21 16 50 28q-48 43 -73 83q-60 97 -80 209q-9 61 -10 82q0 9 7 41v0z" />
  </g>

</svg>
