<?xml version="1.0" standalone="no"?>
<!DOCTYPE svg PUBLIC "-//W3C//DTD SVG 1.1//EN" "http://www.w3.org/Graphics/SVG/1.1/DTD/svg11.dtd" >
<svg xmlns="http://www.w3.org/2000/svg" xmlns:xlink="http://www.w3.org/1999/xlink" version="1.1" viewBox="-10 0 1034 1024">
  <g transform="matrix(1 0 0 -1 0 820)">
   <path fill="currentColor"
d="M60 40q15 -19 36 -54q37 73 92 156l90 132q-12 18 -27 42q-16 -33 -37 -66q-22 -37 -59 -91q-36 -54 -57 -82q-15 -18 -38 -37zM88 626q96 -75 143 -155q18 18 39 37l-72 78l-73 73q-18 -18 -37 -33zM385 -109q-4 -45 -5 -60h49q-4 19 -5 38v68l473 1q49 0 61 -6v47
q-30 -1 -61 -5h-231v175l188 -1l33 -4v47q-4 -1 -27 -4q-18 -1 -33 -2h-161v167h161q10 0 44 -3q3 0 16 -2v46q-30 -1 -60 -5h-161v158h193q42 0 62 -5v46q-30 -1 -62 -5h-434l45 94q16 42 43 70q-33 10 -57 23q-21 -93 -94 -223q-40 -72 -76 -119q-34 -40 -71 -68
q27 -9 51 -25l74 100l45 69v-612zM424 185v167h203v-167h-203zM424 388v158h203v-158h-203zM424 -26v175h203v-175h-203zM608 735q30 -18 68 -57q30 -33 52 -68q6 6 13 14q3 4 24 21q-61 64 -123 123q-18 -19 -34 -33v0z" />
  </g>

</svg>
