<?xml version="1.0" standalone="no"?>
<!DOCTYPE svg PUBLIC "-//W3C//DTD SVG 1.1//EN" "http://www.w3.org/Graphics/SVG/1.1/DTD/svg11.dtd" >
<svg xmlns="http://www.w3.org/2000/svg" xmlns:xlink="http://www.w3.org/1999/xlink" version="1.1" viewBox="-10 0 1010 1000">
   <path fill="currentColor"
d="M536 -6q92 -3 101 8q1 2 -3 8q-17 27 -17 72h157q84 0 149 -8v79q-51 -12 -151 -12h-157v68h101q75 0 131 -8q-16 39 -16 125q45 0 56 -1q15 -1 36 -5v73q-16 -5 -33 -7q-14 -1 -59 -1q0 71 1 94q1 29 3 41q-11 -11 -133 -10h-172q26 8 61 30q-15 3 -47 54h194
q107 0 169 -8v73q-36 -6 -131 -6q-42 68 -82 103q39 14 108 35q64 19 95 31q-42 32 -62 75q-65 -38 -198 -95q-110 67 -365 101q-14 -50 -48 -89q181 4 318 -42q-101 -30 -191 -51q33 -30 68 -72q-110 -1 -167 8v-75q25 6 67 8q40 2 141 2q34 -47 46 -84q-149 0 -175 6v-71
q7 1 19 2q72 6 98 6h94v-68h-145q-87 0 -123 6v-65q17 2 44 3q13 1 32 1h49h143v-60h-102q-16 -2 -53 -1q-34 1 -56 3v-67q27 6 98 6h113v-68h-141q-71 -1 -143 8v-77q75 9 149 10h135q0 -47 -1 -58q-1 -15 -5 -30zM141 66q91 141 117 188l-81 42q-5 -10 -16 -29
q-57 -106 -99 -161zM613 268v60h147v-60h-147zM613 383v68h145v-68h-145zM155 385q28 21 68 35q9 3 13 5q-65 230 -95 379q-55 -35 -99 -52q94 -202 113 -367zM687 653h-185q-15 12 -32 40q79 21 143 44q59 -58 74 -84z" />
</svg>
