<?xml version="1.0" standalone="no"?>
<!DOCTYPE svg PUBLIC "-//W3C//DTD SVG 1.1//EN" "http://www.w3.org/Graphics/SVG/1.1/DTD/svg11.dtd" >
<svg xmlns="http://www.w3.org/2000/svg" xmlns:xlink="http://www.w3.org/1999/xlink" version="1.1" viewBox="-10 0 1034 1024">
  <g transform="matrix(1 0 0 -1 0 820)">
   <path fill="currentColor"
d="M168 127q21 39 43 84q30 64 52 98q-15 18 -30 45q-15 -39 -31 -72l-64 -127q-27 -51 -46 -80q-13 -21 -36 -43q27 -21 47 -42q18 42 29 66q9 16 16 33q9 19 20 38zM89 621q40 -22 81 -54q24 -18 44 -38q9 -9 35 -42q12 21 32 39q-55 51 -117 100q-21 15 -45 35
q-13 -22 -30 -40zM645 360q55 -70 147 -131q45 -28 133 -70q12 21 18 27q13 15 22 24q-135 7 -268 150l185 -1q6 0 40 -4v47l-61 -6h-326q21 42 39 88l225 -1l33 -4v46q-24 -4 -61 -5h-191q7 33 15 87h229q31 0 60 -5v46q-30 -1 -60 -5h-226q0 15 1 28q3 61 16 95
q-12 0 -24 -1q-15 0 -37 4q3 -46 4 -80q0 -16 -2 -46q-201 0 -241 3q-3 0 -9 2v-46q30 4 34 5h214q-3 -40 -14 -87l-148 1q-12 1 -25 2l-12 2v-46q30 4 35 5h138q-18 -54 -41 -88l-186 1q-12 1 -26 2q-3 0 -12 3v-47q42 6 70 5h134q-54 -72 -133 -131q-45 -33 -112 -50
q24 -19 43 -41q48 27 73 45q22 16 56 46q39 31 66 59q24 28 56 72h129zM694 208q12 0 61 -6v47l-61 -6q-219 0 -243 3q-6 0 -15 3v-47q31 6 55 6h74q0 -18 -3 -42q-3 -22 -10 -59l-201 1q-12 0 -29 4v-47q15 4 34 5l185 1q-36 -84 -118 -139q-63 -39 -151 -45q21 -22 36 -47
q73 21 121 48q75 42 139 141q78 -48 155 -101q64 -48 105 -97q13 24 33 47l-132 96l-145 93q0 3 1 4l256 -1q18 0 33 -5v47q-30 -1 -61 -5h-220q9 51 15 101h86z" />
  </g>

</svg>
