<?xml version="1.0" standalone="no"?>
<!DOCTYPE svg PUBLIC "-//W3C//DTD SVG 1.1//EN" "http://www.w3.org/Graphics/SVG/1.1/DTD/svg11.dtd" >
<svg xmlns="http://www.w3.org/2000/svg" xmlns:xlink="http://www.w3.org/1999/xlink" version="1.1" viewBox="-10 0 1034 1024">
  <g transform="matrix(1 0 0 -1 0 820)">
   <path fill="currentColor"
d="M64 15q18 -10 44 -37q24 51 42 95q13 36 56 127l47 110q3 6 8 17q-19 18 -35 39q-24 -75 -55 -147q-48 -111 -66 -143q-7 -13 -38 -58q-3 0 -3 -3zM189 589l-73 76q-18 -18 -39 -33q21 -15 38 -30q10 -9 37 -38l37 -43l33 -48q15 21 37 36q-10 12 -24 27zM516 243
q27 39 47 60q12 15 46 43q-27 12 -53 32q-31 -72 -121 -164q-37 -39 -69 -61q-30 -19 -67 -33q21 -16 43 -40q63 51 94 80q21 18 51 48h229q-45 -93 -106 -161q-76 70 -100 129q-21 -18 -43 -32q79 -90 113 -125q-60 -51 -163 -90q-73 -24 -150 -28q18 -18 35 -49
q45 10 79 21q30 9 65 24q51 21 83 39q37 21 86 58q81 -54 139 -81l90 -34q37 -12 78 -23q10 30 32 52q-66 0 -153 32q-87 31 -158 83q42 55 66 91q21 33 50 83q19 31 30 52l-61 -6h-212zM579 493l-267 1q-9 1 -19 2q-3 0 -13 2v-46q30 4 40 5l577 -1q15 0 31 -4v46
q-30 -1 -60 -5h-250v111l196 -1q18 0 33 -5v47q-58 -4 -71 -5h-158q0 91 3 95q1 13 11 27h-58l5 -102v-20l-217 1q-18 3 -28 4v-47q18 6 61 6h184v-111zM365 288q108 96 121 105q1 3 44 25q-27 16 -50 36q-36 -48 -97 -98q-28 -24 -49 -37q-15 -9 -44 -20q27 -15 48 -36
q13 13 27 25zM718 434q-12 9 -27 19q-15 -21 -37 -40q49 -19 110 -58l56 -39q15 -12 48 -45q12 21 34 44q-75 48 -115 76z" />
  </g>

</svg>
