<?xml version="1.0" standalone="no"?>
<!DOCTYPE svg PUBLIC "-//W3C//DTD SVG 1.1//EN" "http://www.w3.org/Graphics/SVG/1.1/DTD/svg11.dtd" >
<svg xmlns="http://www.w3.org/2000/svg" xmlns:xlink="http://www.w3.org/1999/xlink" version="1.1" viewBox="-10 0 1010 1000">
   <path fill="currentColor"
d="M528 -12q104 1 111 10q0 2 -4 9q-21 34 -28 91q207 0 264 -12v79q-24 -4 -78 -5q-57 -1 -194 -1q-1 5 -3 16q-6 31 -11 44h143q48 0 105 -4v69q-38 -6 -99 -6h-165q-1 5 -4 13q-9 30 -19 53h224q78 0 127 -8v75q-52 -8 -187 -8q89 87 236 117q-30 42 -43 92
q-134 -65 -199 -122v66q-44 -6 -105 -6l-4 67q203 0 266 -7v83q-45 -13 -109 -10h-169l-12 22q138 59 290 119q-47 35 -61 77q-77 -51 -258 -149q-88 99 -246 155q-17 -53 -64 -83q216 -29 274 -143h-105q-45 -3 -111 10v-74q-3 2 -9 5q-10 6 -21 13q-33 -35 -77 -53
q-34 108 -62 216q-48 -51 -95 -65q81 -122 115 -304q22 29 75 46q-5 12 -12 29q-17 39 -17 60q126 -26 248 -163q-95 0 -127 1q-42 1 -62 3v-73q76 8 220 8q12 -21 24 -62h-83q-73 -1 -92 2v-67q38 4 77 5q41 1 114 1q12 -39 14 -60q-182 -4 -238 8v-77q55 8 99 8h147
q11 -81 0 -110zM109 72q78 78 139 180l-79 54q-51 -102 -129 -181zM627 403h-107q-30 42 -66 82h244l-18 -18q-36 -35 -53 -64zM427 508q-57 60 -129 102q67 9 226 9q6 -47 6 -71l-103 6v-46z" />
</svg>
