<?xml version="1.0" standalone="no"?>
<!DOCTYPE svg PUBLIC "-//W3C//DTD SVG 1.1//EN" "http://www.w3.org/Graphics/SVG/1.1/DTD/svg11.dtd" >
<svg xmlns="http://www.w3.org/2000/svg" xmlns:xlink="http://www.w3.org/1999/xlink" version="1.1" viewBox="-10 0 1034 1024">
  <g transform="matrix(1 0 0 -1 0 820)">
   <path fill="currentColor"
d="M944 -49q0 -54 -29 -55q-19 0 -41 47q-28 57 -45 158q-12 72 -13 181q1 96 8 201l21 218l-58 -6l-549 1q-24 4 -41 5h-6q6 -57 8 -108q3 -72 3 -139q0 -174 -17 -282q-21 -123 -85 -222q-30 -43 -78 -75q30 -7 58 -26q45 58 75 116q52 96 71 218q15 97 15 218l-2 259h558
l-19 -316q-1 -34 -2 -67q0 -114 21 -220q18 -93 56 -158q30 -46 67 -47q33 0 51 41q6 16 22 70q-25 12 -50 31q0 -21 1 -43zM586 184q-9 7 -16 14q45 72 81 143q12 27 23 55q13 33 38 104l-68 -6l-309 1l-18 2q-6 0 -12 3v-47q39 4 61 5h290q-42 -126 -115 -234l-31 26
q-115 96 -136 112q-16 -19 -34 -41q30 -13 45 -24q15 -9 74 -56l57 -49q-82 -96 -182 -159q-42 -24 -100 -36q24 -18 42 -43q48 25 94 55q39 27 66 50q30 25 78 74q16 15 34 33q109 -102 125 -120q18 -21 33 -44q1 -3 5 -9q13 21 35 40q-12 9 -21 21q-16 15 -35 35z" />
  </g>

</svg>
