<?xml version="1.0" standalone="no"?>
<!DOCTYPE svg PUBLIC "-//W3C//DTD SVG 1.1//EN" "http://www.w3.org/Graphics/SVG/1.1/DTD/svg11.dtd" >
<svg xmlns="http://www.w3.org/2000/svg" xmlns:xlink="http://www.w3.org/1999/xlink" version="1.1" viewBox="-10 0 1034 1024">
  <g transform="matrix(1 0 0 -1 0 820)">
   <path fill="currentColor"
d="M231 311q-3 -27 -3 -47q-1 -1 -2 -10h48q-3 18 -5 35v304q0 4 55 71q3 4 7 8q22 27 28 29q7 6 25 17q-31 12 -59 27q-13 -31 -55 -90q-81 -108 -140 -150q-51 -39 -74 -47q30 -15 51 -31l124 120v-236zM676 183v-241q0 -48 31 -66q22 -10 92 -11q69 0 97 8q28 9 44 33
q7 12 26 65q4 15 7 19q-39 19 -51 27q0 -36 -4 -55q-6 -34 -24 -46q-24 -13 -102 -14q-58 0 -69 13q-6 9 -7 37v205q0 9 3 33q0 15 2 33q-28 -1 -58 -5l-268 1q-3 0 -48 4q9 -51 9 -72q0 -87 -32 -137q-39 -67 -136 -104q-42 -13 -98 -21q22 -22 39 -46q192 72 236 162
q15 33 23 66q6 36 10 112h278zM607 514l-261 1q-18 3 -29 4v-45q24 4 62 5h228v-137l-180 1q-24 3 -37 4v-45q3 3 24 3q9 1 138 2l309 -1q12 -1 27 -4v45q-24 -1 -50 -5h-192v137h262q36 0 61 -5v45q-43 -4 -61 -5h-262v146q24 3 107 17q75 13 104 14q12 0 27 -1
q-28 28 -44 53q-43 -18 -87 -29q-40 -9 -89 -15t-105 -10q-84 -4 -130 -5q-19 1 -45 5q15 -22 28 -51l195 17v-141z" />
  </g>

</svg>
