<?xml version="1.0" standalone="no"?>
<!DOCTYPE svg PUBLIC "-//W3C//DTD SVG 1.1//EN" "http://www.w3.org/Graphics/SVG/1.1/DTD/svg11.dtd" >
<svg xmlns="http://www.w3.org/2000/svg" xmlns:xlink="http://www.w3.org/1999/xlink" version="1.1" viewBox="-10 0 1034 1024">
  <g transform="matrix(1 0 0 -1 0 820)">
   <path fill="currentColor"
d="M953 489q-27 0 -77 9q-24 3 -51 13t-68 32q12 16 43 49q39 40 53 47q6 4 17 9q-24 13 -46 29q-24 -31 -46 -57q-22 -25 -54 -57q-45 28 -86 65l36 32q12 12 23 20q15 12 34 22q-22 13 -43 30q-42 -49 -75 -83q-16 15 -29 33q-15 21 -26 43q-16 -15 -41 -31
q67 -70 113 -109q40 -33 101 -70q70 -45 202 -74q15 27 35 48h-15zM114 210q-48 0 -61 5v-45q39 4 61 5l781 -1q15 0 31 -4v45q-39 -4 -60 -5h-248q28 34 38 42q9 9 36 22q-12 7 -35 25q67 0 80 -2q16 0 34 -3q-4 45 -5 87q0 48 4 77q0 3 1 4q-28 -1 -57 -5l-459 1
q-1 0 -37 4q4 -90 5 -95l-4 -56q-1 -7 -1 -17q49 4 101 5h34q-13 -9 -37 -19q24 -21 53 -70h-255zM261 334v88h466v-88h-466zM637 299l-28 -45q-16 -15 -31 -36q-4 -3 -6 -8h-156q-15 27 -56 89h277zM322 116q3 -39 4 -59q0 -63 -37 -103q-30 -27 -96 -51q-49 -15 -92 -16
q-12 0 -35 2q15 -18 20 -27q6 -10 14 -24q9 1 19 5q87 21 127 40q75 36 100 90q9 25 21 102h244v-124q0 -28 13 -49q10 -15 37 -27q24 -9 92 -9q54 0 88 4q39 3 63 27q21 24 46 88q-21 6 -51 28q-1 -12 -1 -25q-1 -33 -18 -58q-18 -24 -78 -27l-62 -1q-52 0 -71 11
q-18 15 -18 50v95q0 7 3 29q0 3 2 10q0 4 2 19q-28 -1 -57 -5l-233 1q-15 3 -46 4zM194 698l-55 4q-3 0 -6 1v-45q0 1 26 4l228 1q-34 -34 -65 -61q-30 -24 -68 -51q-33 34 -68 73q-15 -13 -36 -26q30 -21 71 -67q-15 -9 -31 -16q-61 -27 -92 -36q-22 -6 -63 -13
q24 -19 39 -42q66 25 142 63q97 54 175 130q31 28 50 47q33 36 35 39q-49 -4 -60 -5h-222zM307 500h2q39 4 60 5l286 -1q15 0 28 -4v46q-39 -4 -60 -5l-292 1q-19 3 -24 4v-46z" />
  </g>

</svg>
