<?xml version="1.0" standalone="no"?>
<!DOCTYPE svg PUBLIC "-//W3C//DTD SVG 1.1//EN" "http://www.w3.org/Graphics/SVG/1.1/DTD/svg11.dtd" >
<svg xmlns="http://www.w3.org/2000/svg" xmlns:xlink="http://www.w3.org/1999/xlink" version="1.1" viewBox="-10 0 1034 1024">
  <g transform="matrix(1 0 0 -1 0 820)">
   <path fill="currentColor"
d="M171 -52v408q0 13 2 32q1 15 12 33h-58q0 -1 1 -5q0 -1 1 -4l3 -108l-1 -359q-3 -12 -4 -44q4 0 10 2q25 3 52 8l659 35q-1 -33 -3 -66q-1 -3 -1 -6l-2 -6h50q-4 9 -5 36l-1 467q0 15 3 33q1 18 11 31h-57l5 -90v-362zM536 529q9 7 20 15l133 86q51 36 105 83
q-13 0 -64 -5l-519 1q-24 3 -38 4v-46q39 4 61 5h448q-16 -15 -29 -23l-108 -69q-1 0 -52 -31q1 -27 5 -54l-1 -377q-1 -4 -2 -11q-3 -16 -21 -22q-22 -9 -54 -10q-19 0 -54 8q15 -27 22 -55q66 7 92 16q28 9 40 23q15 21 16 62v400zM206 170q21 -24 35 -44l130 88l91 58
q-13 27 -15 48q-19 -18 -44 -36q-28 -21 -80 -56q-66 -42 -117 -58zM226 465q49 -18 95 -46q49 -30 87 -67q12 25 27 42l-181 112q-12 -21 -28 -41zM566 398q25 -13 46 -35q18 13 44 34q28 19 63 46q15 9 26 17q10 9 19 12q12 6 43 16q-21 21 -37 43q-49 -39 -106 -81
q-57 -39 -98 -52zM623 291q-12 7 -22 15q-9 -19 -25 -43q36 -15 47 -23q76 -48 92 -60q12 -9 38 -30q13 -13 30 -32q7 25 23 48l-102 72z" />
  </g>

</svg>
