<?xml version="1.0" standalone="no"?>
<!DOCTYPE svg PUBLIC "-//W3C//DTD SVG 1.1//EN" "http://www.w3.org/Graphics/SVG/1.1/DTD/svg11.dtd" >
<svg xmlns="http://www.w3.org/2000/svg" xmlns:xlink="http://www.w3.org/1999/xlink" version="1.1" viewBox="-10 0 1034 1024">
  <g transform="matrix(1 0 0 -1 0 820)">
   <path fill="currentColor"
d="M166 461q0 30 14 63h-57q1 -30 5 -63l-1 -506q-3 -12 -4 -43l58 7l45 4q144 12 187 12l446 22l-4 -78q0 -3 -1 -5h50q-6 24 -6 29l-1 549q0 24 15 63h-58q1 -30 5 -63v-458l-693 -34v501zM315 544l-60 4q-3 0 -5 1v-46q51 4 85 5h79q-19 -81 -49 -151q-36 -87 -106 -162
q-33 -33 -70 -46q27 -15 54 -35q120 118 168 247q15 42 26 78l29 110q-66 -4 -98 -5h-53zM547 454q48 -49 133 -162l46 -63q15 -24 27 -40q21 -34 29 -54q36 30 41 32q-10 12 -21 26q-12 18 -26 36l-29 41l-78 101l-46 56q36 34 82 85q9 12 20 22q10 12 22 22q18 21 51 37
l-43 46q-21 -36 -54 -74q-37 -45 -102 -109l-52 61v158q0 28 14 64h-57q0 -6 3 -15l2 -85l-1 -525q-1 -12 -12 -15q-21 -9 -54 -9q-12 0 -36 3q12 -18 24 -49q79 12 101 29q15 13 16 54v327z" />
  </g>

</svg>
