<?xml version="1.0" standalone="no"?>
<!DOCTYPE svg PUBLIC "-//W3C//DTD SVG 1.1//EN" "http://www.w3.org/Graphics/SVG/1.1/DTD/svg11.dtd" >
<svg xmlns="http://www.w3.org/2000/svg" xmlns:xlink="http://www.w3.org/1999/xlink" version="1.1" viewBox="-10 0 1010 1000">
   <path fill="currentColor"
d="M462 -10q109 3 111 14q1 3 -4 8q-21 23 -21 72v131l47 73q89 -103 115 -167q6 6 18 16q65 54 54 58q-1 2 -6 5q-39 28 -147 136q26 41 79 124q66 102 80 126q-48 18 -88 49q-50 -153 -152 -319v301q1 51 -28 68q-21 16 -129 32q-4 -61 -36 -105q71 13 92 3q22 -8 21 -51
v-478q0 -71 -6 -96zM790 131q124 17 117 22q1 1 -3 6q-23 33 -23 78v539q1 92 8 125h-87l4 -73h-502q-133 1 -203 8q9 -86 10 -169v-438q-2 -65 -6 -94q108 3 115 16q1 2 -3 9q-29 50 -30 168v426h619v-492q-4 -76 -16 -131zM192 608q145 -108 169 -362q-58 0 -119 8v-83
q36 6 95 6q85 -4 105 -6q-22 316 -176 492q-27 -32 -74 -55z" />
</svg>
