<?xml version="1.0" standalone="no"?>
<!DOCTYPE svg PUBLIC "-//W3C//DTD SVG 1.1//EN" "http://www.w3.org/Graphics/SVG/1.1/DTD/svg11.dtd" >
<svg xmlns="http://www.w3.org/2000/svg" xmlns:xlink="http://www.w3.org/1999/xlink" version="1.1" viewBox="-10 0 1034 1024">
  <g transform="matrix(1 0 0 -1 0 820)">
   <path fill="currentColor"
d="M830 -15l-315 -18l-319 -15v673q0 9 3 28q1 21 11 36h-57q0 -9 2 -19l3 -45l-1 -665q-3 -15 -4 -51l36 4q10 3 43 4l598 35v-26q0 -27 -4 -46h47q-4 60 -5 81l1 698q0 13 5 29q1 9 7 18h-56q0 -24 5 -65v-656z" />
  </g>

</svg>
