<?xml version="1.0" standalone="no"?>
<!DOCTYPE svg PUBLIC "-//W3C//DTD SVG 1.1//EN" "http://www.w3.org/Graphics/SVG/1.1/DTD/svg11.dtd" >
<svg xmlns="http://www.w3.org/2000/svg" xmlns:xlink="http://www.w3.org/1999/xlink" version="1.1" viewBox="-10 0 1010 1000">
   <path fill="currentColor"
d="M635 2q3 2 0 12q-6 23 4 44q104 248 325 311q-42 45 -71 96q-226 -114 -355 -443q6 -2 18 -5q74 -21 79 -15zM351 20q95 30 109 48q-3 12 -23 23q-16 9 -20 17q-108 220 -302 373q-2 -2 -8 -7q-43 -39 -75 -59q221 -117 319 -395zM238 381q38 5 137 6h210q144 0 179 -6
q-7 45 -12 133q0 9 -1 29q-11 254 -33 281q-35 54 -178 63q-9 -66 -48 -111q135 25 147 -18q22 -75 26 -295h-207q-9 296 -305 430q-38 -41 -95 -75q309 -65 319 -355q-107 0 -139 4v-86z" />
</svg>
