<?xml version="1.0" standalone="no"?>
<!DOCTYPE svg PUBLIC "-//W3C//DTD SVG 1.1//EN" "http://www.w3.org/Graphics/SVG/1.1/DTD/svg11.dtd" >
<svg xmlns="http://www.w3.org/2000/svg" xmlns:xlink="http://www.w3.org/1999/xlink" version="1.1" viewBox="-10 0 1010 1000">
   <path fill="currentColor"
d="M369 14q89 7 91 12q1 2 -6 8q-16 15 -16 30v178h120v-158q0 -37 -4 -63q-1 -6 0 -7q70 -2 97 6q2 2 -6 11q-18 21 -18 35v176h119q134 0 192 -7v79q-45 -8 -188 -8h-500q-151 1 -202 8v-79q14 4 62 6q24 0 57 1h83h121v-152q0 -37 -4 -67q-2 -12 2 -9zM798 36
q86 46 85 62q0 3 -9 6q-18 5 -29 13q-13 11 -36 30q-45 37 -81 70q-30 -27 -61 -44q77 -57 131 -137zM216 46q44 42 113 127l-73 42q-45 -74 -111 -125zM589 318q46 18 82 42q-20 16 -74 78q-11 13 -16 19q82 3 121 -8v77q-22 -5 -61 -7q-18 0 -44 -1h-71v74h53q88 1 133 -6
v71q-38 -6 -131 -6h-55q0 54 1 71q2 23 7 36h-82q12 -42 10 -107h-45q-92 0 -143 10v-77q25 5 57 7q15 0 35 1h55h43v-74q-11 1 -48 1q-102 1 -126 7v-77q26 8 172 8h107q-2 -2 -6 -5q-24 -20 -39 -27q44 -56 65 -107zM409 326q30 38 59 89l-67 30q-20 -49 -62 -89zM153 371
q102 7 103 16q1 2 -6 10q-18 20 -18 38v349h522v-309q0 -45 -6 -80q-1 -9 0 -10q100 4 103 14q1 2 -5 9q-15 18 -15 33v284q0 108 8 170h-93q6 -15 6 -49h-433q-126 0 -172 8q7 -20 9 -112q1 -22 1 -33v-238q0 -46 -4 -88q-2 -15 0 -12z" />
</svg>
