<?xml version="1.0" standalone="no"?>
<!DOCTYPE svg PUBLIC "-//W3C//DTD SVG 1.1//EN" "http://www.w3.org/Graphics/SVG/1.1/DTD/svg11.dtd" >
<svg xmlns="http://www.w3.org/2000/svg" xmlns:xlink="http://www.w3.org/1999/xlink" version="1.1" viewBox="-10 0 1010 1000">
   <path fill="currentColor"
d="M117 86q37 9 200 10h358q120 0 170 -6q-3 86 -10 255q-12 320 -14 370q-3 79 -44 103q-32 25 -174 40q-3 -13 -8 -32q-7 -40 -33 -78q99 21 136 5q38 -13 40 -74q6 -112 17 -375q3 -85 5 -129h-454q-154 0 -189 6v-95zM581 260q6 19 30 65q8 16 12 23q-58 54 -236 201
q-187 153 -228 195q-30 -47 -76 -95q283 -152 498 -389z" />
</svg>
