<?xml version="1.0" standalone="no"?>
<!DOCTYPE svg PUBLIC "-//W3C//DTD SVG 1.1//EN" "http://www.w3.org/Graphics/SVG/1.1/DTD/svg11.dtd" >
<svg xmlns="http://www.w3.org/2000/svg" xmlns:xlink="http://www.w3.org/1999/xlink" version="1.1" viewBox="-10 0 1010 1000">
   <path fill="currentColor"
d="M554 16q94 3 99 10q0 1 -2 7q-18 41 -18 108v675q21 65 -157 89q2 -55 -30 -101q68 10 90 6q25 -4 24 -26v-631v-19q-2 -74 -6 -118zM369 106q75 -1 99 11q0 2 -2 8q-18 44 -18 123v324q0 75 4 117h-81q4 -44 4 -117v-326q0 -81 -6 -140z" />
</svg>
