<?xml version="1.0" standalone="no"?>
<!DOCTYPE svg PUBLIC "-//W3C//DTD SVG 1.1//EN" "http://www.w3.org/Graphics/SVG/1.1/DTD/svg11.dtd" >
<svg xmlns="http://www.w3.org/2000/svg" xmlns:xlink="http://www.w3.org/1999/xlink" version="1.1" viewBox="-10 0 1034 1024">
  <g transform="matrix(1 0 0 -1 0 820)">
   <path fill="currentColor"
d="M33 310q33 -12 59 -30q157 141 266 346q25 49 35 60q9 10 33 23q-33 15 -62 34l-1 1q-73 -195 -203 -337q-63 -66 -127 -97zM117 -145q223 105 297 303q10 31 18 63q4 18 10 44l12 71h262l-22 -314l-6 -52q-7 -25 -27 -38q-30 -12 -71 -12q-25 0 -66 5q10 -18 19 -41
q1 -9 5 -18q87 6 126 22q37 16 51 53q3 12 7 35q3 30 8 88l14 211q3 55 10 86q1 9 2 16q-36 -1 -72 -5l-441 1l-35 4v-46q-1 0 10 1q75 3 116 4h66q-19 -198 -119 -308q-102 -108 -227 -132q19 -9 41 -29zM978 331q-24 9 -43 18q-49 24 -108 78q-81 72 -142 171
q-57 93 -57 133q0 10 3 26q-33 -9 -65 -13q13 -21 19 -35q4 -9 13 -29q69 -159 187 -272q66 -61 104 -92q22 -18 39 -27q16 16 34 28q7 7 16 14v0z" />
  </g>

</svg>
