<?xml version="1.0" standalone="no"?>
<!DOCTYPE svg PUBLIC "-//W3C//DTD SVG 1.1//EN" "http://www.w3.org/Graphics/SVG/1.1/DTD/svg11.dtd" >
<svg xmlns="http://www.w3.org/2000/svg" xmlns:xlink="http://www.w3.org/1999/xlink" version="1.1" viewBox="-10 0 1010 1000">
   <path fill="currentColor"
d="M377 -15q94 31 105 49q1 4 -14 12q-18 9 -28 18q-12 10 -40 42q-7 8 -11 13h270q52 0 129 -6q-1 5 -19 30q-16 24 -25 38q-67 108 -109 155h119q32 0 103 -8q-6 62 -6 95v353q0 118 8 137h-99q6 -18 6 -81h-474q-70 1 -159 8v-94q103 8 157 8h476v-144h-413
q-102 1 -149 7v-87q64 8 147 8h415v-131h-419q-79 0 -135 8v-79q-46 53 -73 77q-31 -33 -89 -55q168 -115 327 -373zM647 189h-308l-119 139q42 5 125 8h191z" />
</svg>
