<?xml version="1.0" standalone="no"?>
<!DOCTYPE svg PUBLIC "-//W3C//DTD SVG 1.1//EN" "http://www.w3.org/Graphics/SVG/1.1/DTD/svg11.dtd" >
<svg xmlns="http://www.w3.org/2000/svg" xmlns:xlink="http://www.w3.org/1999/xlink" version="1.1" viewBox="-10 0 1034 1024">
  <g transform="matrix(1 0 0 -1 0 820)">
   <path fill="currentColor"
d="M530 434q-21 -147 -70 -260l-169 120q-12 -22 -28 -42q39 -18 75 -42q54 -36 102 -75q-78 -148 -249 -225q-54 -21 -98 -28q27 -27 40 -44q96 36 191 104q136 99 198 291q16 52 32 116q15 63 26 126q-28 -1 -58 -5h-213q15 40 25 73q10 36 28 105h216q37 0 60 -5v46
q-30 -1 -60 -5l-457 1q-18 3 -28 4v-46q39 4 61 5h166q-15 -78 -36 -131q-42 -114 -114 -205q-58 -72 -116 -105l30 -16q9 -6 21 -16q69 76 105 127q39 57 83 132h237zM698 638q0 -7 4 -32q0 -15 2 -31l-1 -451q-1 -6 -2 -25q-3 -3 -3 -11h50q0 1 -1 5q-3 7 -4 36l1 463
q0 15 5 28q3 10 8 18h-59zM923 693q0 9 2 27q3 24 12 37h-58q1 -31 5 -64v-744q0 -37 -18 -47q-21 -9 -62 -9q-30 0 -72 5q12 -30 17 -52q51 3 79 7q48 7 66 20q28 21 29 73v747z" />
  </g>

</svg>
