<?xml version="1.0" standalone="no"?>
<!DOCTYPE svg PUBLIC "-//W3C//DTD SVG 1.1//EN" "http://www.w3.org/Graphics/SVG/1.1/DTD/svg11.dtd" >
<svg xmlns="http://www.w3.org/2000/svg" xmlns:xlink="http://www.w3.org/1999/xlink" version="1.1" viewBox="-10 0 1010 1000">
   <path fill="currentColor"
d="M282 -13q20 37 49 96q14 29 20 40l-99 30q-21 -79 -62 -135zM458 106q11 7 115 7h239q74 0 119 -5q0 1 -1 5q-11 38 -11 88q-13 476 -20 553q2 120 -189 133q-11 -60 -35 -105q140 23 142 -61q9 -135 18 -532h-154q-11 346 -51 445q-30 107 -192 257q-11 -8 -26 -20
q-30 -28 -67 -37q162 -98 203 -215q46 -102 49 -430h-22q-111 0 -117 8v-91zM399 185q-33 96 -117 228q18 11 45 35q4 3 6 5q69 -67 107 -115q14 14 35 34q35 33 29 37q-3 5 -14 8q-46 16 -107 70q26 16 99 85l-73 61q-54 -69 -102 -118l-19 -19v272q0 105 8 143h-92
q8 -71 8 -143v-280q-31 50 -123 138q-18 17 -26 25l-35 -89q156 -100 252 -285q6 -11 8 -15h-107q-91 0 -109 6h-1v-83h1q20 6 113 6h99q61 0 115 -6z" />
</svg>
