<?xml version="1.0" standalone="no"?>
<!DOCTYPE svg PUBLIC "-//W3C//DTD SVG 1.1//EN" "http://www.w3.org/Graphics/SVG/1.1/DTD/svg11.dtd" >
<svg xmlns="http://www.w3.org/2000/svg" xmlns:xlink="http://www.w3.org/1999/xlink" version="1.1" viewBox="-10 0 1034 1024">
  <g transform="matrix(1 0 0 -1 0 820)">
   <path fill="currentColor"
d="M261 -95q-1 -13 -1 -27l-4 -28v-4h49q-1 3 -1 5q-1 3 -4 54v359q51 -30 99 -62q57 -36 83 -68q12 24 29 44l-103 69q52 73 71 93q16 21 46 42q-27 12 -52 30q-7 -18 -34 -61q-25 -39 -61 -87q-36 24 -74 47q-3 13 -4 25q61 85 75 106q27 46 53 96l-62 -6l-253 1
q-30 3 -40 5v-48q21 6 55 7h232q-34 -78 -125 -177q-111 -114 -180 -140q30 -19 44 -35l74 61q19 18 88 86v-387zM239 765q-16 -19 -34 -35q72 -43 139 -130q12 19 34 36q-33 30 -65 62zM902 607l-20 -555q-3 -33 -4 -68q-3 -34 -16 -49q-21 -21 -89 -22q-25 0 -54 6
q12 -31 17 -55q132 12 159 48q13 21 18 41q3 19 5 82l20 500q3 39 4 62q3 21 5 51q-27 -1 -56 -5l-378 1q-9 1 -16 2q-3 0 -13 2v-46q30 4 39 5h125l-7 -191q-4 -66 -12 -114q-36 -219 -139 -335q-54 -57 -106 -78q30 -15 52 -34q100 90 154 187q51 96 75 239q7 51 15 137
q6 93 8 189h214z" />
  </g>

</svg>
