<?xml version="1.0" standalone="no"?>
<!DOCTYPE svg PUBLIC "-//W3C//DTD SVG 1.1//EN" "http://www.w3.org/Graphics/SVG/1.1/DTD/svg11.dtd" >
<svg xmlns="http://www.w3.org/2000/svg" xmlns:xlink="http://www.w3.org/1999/xlink" version="1.1" viewBox="-10 0 1034 1024">
  <g transform="matrix(1 0 0 -1 0 820)">
   <path fill="currentColor"
d="M139 198q-30 0 -62 5v-46q54 4 62 5h185q-21 -91 -91 -176q-66 -72 -139 -87q30 -22 45 -42q75 52 110 89q46 54 74 100q24 45 44 116h174q39 0 60 -5v46q-30 -1 -60 -5h-168q0 15 2 31l4 92v44h138q40 0 61 -5v47q-9 -3 -61 -6l-137 -3l3 255q0 42 4 61q3 19 9 42
q-34 0 -59 4q6 -42 6 -107l-2 -252l-179 1q-12 1 -26 2q-3 0 -12 3v-47q16 4 61 5h156q0 -54 -3 -94q-1 -36 -6 -73h-193zM108 635q27 -25 63 -73q28 -42 47 -88q24 21 40 30l-65 100q-22 31 -47 61q-15 -15 -38 -30zM444 496q16 -6 40 -17l24 39l46 72q18 27 26 35
q6 9 22 21q-19 9 -40 22q-6 3 -10 6q-12 -31 -48 -90l-33 -51q-10 -16 -27 -37zM660 652q0 -7 5 -63l-3 -471q-1 -3 -1 -7q-1 -1 -1 -4h50q0 1 -2 5q-3 15 -4 55l1 439q0 18 9 36q1 6 4 10h-58zM768 -125q36 3 75 11q25 7 40 19q22 18 23 64v732q0 7 2 26q3 22 12 37h-58
q0 -9 2 -19q0 -6 3 -44l-1 -729q-3 -25 -14 -36q-15 -12 -53 -13q-24 0 -78 6q13 -27 21 -56q12 1 26 2v0z" />
  </g>

</svg>
