<?xml version="1.0" standalone="no"?>
<!DOCTYPE svg PUBLIC "-//W3C//DTD SVG 1.1//EN" "http://www.w3.org/Graphics/SVG/1.1/DTD/svg11.dtd" >
<svg xmlns="http://www.w3.org/2000/svg" xmlns:xlink="http://www.w3.org/1999/xlink" version="1.1" viewBox="-10 0 1034 1024">
  <g transform="matrix(1 0 0 -1 0 820)">
   <path fill="currentColor"
d="M644 289q6 9 14 18l-143 106q-76 54 -109 78q12 15 24 28l55 66q19 24 43 60q9 12 19 28q-33 -1 -66 -5l-341 1q-12 0 -30 4v-46q3 1 13 2q36 3 53 3h293q-42 -64 -106 -129q-61 -61 -128 -106q-118 -78 -193 -82q24 -18 44 -45l90 45q55 30 95 59q43 33 109 89l145 -108
q55 -42 68 -55q15 -15 32 -37l12 16q3 6 7 10zM378 218l159 -1q22 0 32 -4v46q-10 -1 -22 -4l-388 1q-3 1 -4 1q-3 0 -12 2v-46q3 1 12 2q37 3 54 3h132v-242l-164 -27q-42 -4 -72 -5q12 -25 19 -54q43 15 108 26q297 57 338 62q19 3 45 6q0 24 4 50q-12 -3 -24 -7
q-39 -12 -57 -15l-38 -7q-117 -21 -122 -22v235zM741 108q0 1 -2 5q-3 4 -5 48l1 431q0 10 7 32q3 10 8 20h-60q0 -1 2 -5q0 -4 2 -11q0 -12 3 -48l-1 -425q-3 -15 -3 -38q-1 -1 -2 -5q-1 -1 -1 -4h51zM883 759q0 -1 1 -5q0 -3 2 -6l3 -104v-694q0 -30 -21 -39
q-19 -6 -57 -7q-22 0 -70 7q18 -45 20 -53q36 0 75 5q57 6 77 26q13 16 14 53v752q0 9 2 27q3 22 12 38h-58z" />
  </g>

</svg>
