<?xml version="1.0" standalone="no"?>
<!DOCTYPE svg PUBLIC "-//W3C//DTD SVG 1.1//EN" "http://www.w3.org/Graphics/SVG/1.1/DTD/svg11.dtd" >
<svg xmlns="http://www.w3.org/2000/svg" xmlns:xlink="http://www.w3.org/1999/xlink" version="1.1" viewBox="-10 0 1010 1000">
   <path fill="currentColor"
d="M228 -2q78 27 95 44q0 3 -8 9q-16 11 -23 23q-5 9 -21 36q-14 24 -19 33h222q22 0 88 -6q-3 42 -6 162q-7 281 -22 316q-16 54 -125 66q-7 -55 -40 -93q80 13 91 -22q17 -95 16 -355h-258q-20 27 -55 81q-3 4 -4 6q33 6 63 6h90q26 0 83 -6q-6 39 -6 81v121q0 46 5 69
q1 6 1 9q-2 0 -8 -1q-25 -5 -66 -5h-109v111q0 47 2 59q2 18 10 26q12 17 82 16h69q82 0 103 -10q43 -31 38 -103q28 37 87 58q-24 87 -55 106q-30 24 -125 23h-151q-54 0 -72 -3q-23 -4 -35 -16q-25 -21 -24 -108v-352q0 -33 -6 -51q-5 8 -16 23q-30 42 -48 66
q-16 -30 -55 -71q126 -118 212 -348zM810 14q105 2 115 12q0 3 -5 13q-19 43 -19 86v653q15 110 -173 129q-14 -62 -47 -115q82 15 109 3q28 -10 27 -60v-602q0 -23 -4 -80q-2 -25 -3 -39zM645 127q99 1 103 10q0 2 -4 10q-18 33 -18 74v319q0 46 7 118q2 17 3 25h-93
q8 -53 8 -141v-315q0 -46 -6 -100zM317 371h-105v133h105v-133z" />
</svg>
