<?xml version="1.0" standalone="no"?>
<!DOCTYPE svg PUBLIC "-//W3C//DTD SVG 1.1//EN" "http://www.w3.org/Graphics/SVG/1.1/DTD/svg11.dtd" >
<svg xmlns="http://www.w3.org/2000/svg" xmlns:xlink="http://www.w3.org/1999/xlink" version="1.1" viewBox="-10 0 1010 1000">
   <path fill="currentColor"
d="M804 8q100 6 107 16q0 1 -2 5q-16 26 -16 77v674q1 63 -34 86q-33 25 -127 27q1 -52 -32 -105q119 22 113 -28v-664q0 -51 -9 -88zM460 12q75 39 88 56q0 2 -10 6q-23 9 -38 24t-45 46q-26 27 -38 39q32 24 96 68q51 35 80 55l-69 67q-82 -84 -157 -142
q-139 128 -208 178q-38 -42 -80 -71q122 -43 227 -145q-69 -52 -179 -95l54 -64q12 8 36 22q104 62 142 87q63 -71 101 -131zM629 119q97 4 99 10q0 4 -3 17q-9 33 -9 55v325q0 69 8 145h-95q8 -50 8 -147v-321q0 -32 -7 -80q-1 -3 -1 -4zM304 350q99 -3 105 6
q-22 25 -20 81h71q55 0 115 -8v83q-39 -8 -111 -8h-75v288q14 76 -153 89q-5 -46 -34 -97q107 17 108 -24v-256h-98q-63 1 -127 8v-83q50 8 125 8h100q2 -41 -6 -87zM478 566q8 2 139 165l-81 51q-39 -95 -117 -174zM179 572q83 26 85 36q-15 10 -54 78q-44 78 -75 120
q-19 -17 -75 -40q81 -69 119 -194z" />
</svg>
