<?xml version="1.0" standalone="no"?>
<!DOCTYPE svg PUBLIC "-//W3C//DTD SVG 1.1//EN" "http://www.w3.org/Graphics/SVG/1.1/DTD/svg11.dtd" >
<svg xmlns="http://www.w3.org/2000/svg" xmlns:xlink="http://www.w3.org/1999/xlink" version="1.1" viewBox="-10 0 1034 1024">
  <g transform="matrix(1 0 0 -1 0 820)">
   <path fill="currentColor"
d="M616 337q34 -39 59 -62q55 -45 104 -80q30 -18 65 -36l107 -51q15 27 31 44q-63 12 -159 63q-79 46 -153 122h236q39 0 61 -5v46q-39 -4 -61 -5h-504q15 21 32 53q24 43 41 85h334q21 0 44 -2q7 0 17 -4v47q-30 -1 -61 -5h-323q12 36 12 39l22 84l19 67q4 15 14 27
q-33 3 -64 11q-1 -39 -10 -95l-7 -40q-4 -21 -16 -63q-3 -12 -11 -30l-261 1q-6 1 -26 2q-3 0 -12 2v-47q15 4 29 5l257 1q-28 -67 -75 -138l-253 1q-18 3 -31 4v-46q19 3 40 5h216q-39 -42 -74 -72q-31 -25 -77 -54q-73 -45 -135 -61q27 -25 37 -44q48 25 78 44
q27 16 59 39q99 69 161 148h238zM228 -148q24 10 46 23q69 43 106 88q49 61 83 193h246q-3 -87 -9 -150q-7 -72 -19 -92q-15 -24 -65 -24q-24 0 -66 5q15 -33 18 -55l25 3q52 6 76 14q21 6 39 26q13 19 21 47q6 36 12 103l9 105q0 27 6 59q-27 -1 -56 -5l-417 1q-18 3 -28 4
v-46q42 6 68 5h99q-37 -157 -121 -217q-87 -63 -173 -70q22 -21 39 -47zM274 707l-41 33q-12 -18 -33 -39q90 -49 136 -114q12 18 21 25l12 12q-21 21 -36 34zM648 597q15 18 32 34q48 51 62 64q10 9 41 26q-24 18 -44 40q-13 -21 -31 -41q-21 -25 -65 -71q-16 -18 -47 -42
q22 -13 36 -27q7 9 16 17v0z" />
  </g>

</svg>
