<?xml version="1.0" standalone="no"?>
<!DOCTYPE svg PUBLIC "-//W3C//DTD SVG 1.1//EN" "http://www.w3.org/Graphics/SVG/1.1/DTD/svg11.dtd" >
<svg xmlns="http://www.w3.org/2000/svg" xmlns:xlink="http://www.w3.org/1999/xlink" version="1.1" viewBox="-10 0 1034 1024">
  <g transform="matrix(1 0 0 -1 0 820)">
   <path fill="currentColor"
d="M415 -10q-16 -3 -31 -4l-22 -3v197h147q37 0 60 -5v46q-43 -4 -70 -5h-137v178l45 4q16 0 23 2q39 3 79 5q18 0 35 3q19 -21 41 -61q9 12 37 32l-83 103q-67 75 -85 96q-7 7 -13 14q-16 -21 -39 -36q45 -36 65 -56q21 -21 51 -56l-335 -25q34 39 51 62l110 151
q18 24 35 48h161q36 0 59 -5v46q-39 -4 -59 -5l-399 1q-24 3 -37 4v-46q18 3 39 5h186q-88 -133 -151 -207q-42 -48 -72 -57l15 -48q73 16 203 23v-175l-156 1q-24 3 -38 4v-46q42 6 70 5h124v-202q-139 -15 -194 -15q-16 0 -46 3q9 -21 15 -58l50 10l73 10l130 16l242 30
q0 18 5 45q-141 -24 -144 -25q-21 -1 -40 -4zM676 642l4 -34l2 -80l-3 -379q-1 -1 -1 -4q-1 -3 -2 -7h50q-6 55 -5 85l1 373q0 15 5 28q3 10 8 18h-59zM902 689q0 12 2 27q3 19 12 37h-59q0 -9 2 -20q1 -6 4 -44l-1 -749q-3 -13 -9 -21q-13 -15 -59 -15q-33 0 -71 8
q9 -27 18 -59l81 9q13 1 29 7q19 6 35 22q15 18 16 61v737z" />
  </g>

</svg>
