<?xml version="1.0" standalone="no"?>
<!DOCTYPE svg PUBLIC "-//W3C//DTD SVG 1.1//EN" "http://www.w3.org/Graphics/SVG/1.1/DTD/svg11.dtd" >
<svg xmlns="http://www.w3.org/2000/svg" xmlns:xlink="http://www.w3.org/1999/xlink" version="1.1" viewBox="-10 0 1010 1000">
   <path fill="currentColor"
d="M290 -12q64 7 91 12q11 2 13 9q1 6 -7 15q-18 14 -24 38q-7 27 -18 57h105q77 -1 127 -6v78q-57 -8 -129 -8h-49q117 73 200 141l-55 69q-107 -105 -229 -190q-72 110 -218 214q-26 -38 -71 -59q134 -62 212 -175h-57q-75 3 -114 10v-81q30 5 118 7h81q23 -61 24 -131z
M806 -2q110 5 115 16q0 3 -4 8q-22 37 -22 139v621q1 48 -4 62q-5 20 -20 32q-25 23 -143 39q-4 -54 -45 -111q90 18 109 7q23 -7 21 -65v-587q0 -128 -7 -161zM635 115q17 1 48 3q63 2 59 7q1 4 -4 13q-20 41 -20 128v258q1 96 6 143h-89q7 -50 8 -139v-250
q-2 -127 -8 -163zM58 463q13 5 174 8h175q65 0 180 -8v81q-36 -6 -178 -8h-125l-18 72h159q75 0 99 -6q-40 221 -70 244q-43 37 -180 51q0 -63 -32 -111q91 23 143 0q23 -7 42 -113h-161q-75 0 -99 4q17 -38 39 -141h-35q-99 2 -113 8v-81zM294 338h77q38 0 81 -5q6 -1 8 -1
v73q-30 -6 -97 -6h-63q-59 1 -90 6v-73q43 5 84 6z" />
</svg>
