<?xml version="1.0" standalone="no"?>
<!DOCTYPE svg PUBLIC "-//W3C//DTD SVG 1.1//EN" "http://www.w3.org/Graphics/SVG/1.1/DTD/svg11.dtd" >
<svg xmlns="http://www.w3.org/2000/svg" xmlns:xlink="http://www.w3.org/1999/xlink" version="1.1" viewBox="-10 0 1010 1000">
   <path fill="currentColor"
d="M331 -6q92 21 113 44q-2 6 -15 12q-22 11 -32 28q169 102 256 180q-31 25 -66 68q-82 -92 -232 -201q-61 88 -139 165q36 8 78 8h129q63 0 111 -8v83q-57 -9 -103 -8h-143q-38 0 -98 8v-55q-38 41 -89 87q-21 -40 -71 -61q208 -122 301 -350zM817 12q106 2 114 14
q-21 40 -22 68v676q1 69 -31 94q-31 28 -124 37q-4 -60 -52 -117q140 32 127 -32v-639q0 -70 -10 -94q-2 -4 -2 -7zM81 453q47 7 125 8h274q17 0 78 -5q28 -2 43 -3v83q-51 -8 -119 -8h-93q-2 2 -31 47q-85 134 -122 183q88 -14 200 -30q28 -4 38 -5q-35 -66 -65 -104
l73 -29q81 124 137 226l-89 38q-15 -38 -30 -68q-263 42 -349 66l-46 -98l6 -2q47 -9 70 -33q48 -63 111 -191h-80q-89 1 -131 8v-83zM657 173q0 -32 -8 -71q96 8 107 15q0 4 -7 19q-13 31 -13 47v327q0 95 8 175h-95q8 -61 8 -177v-335z" />
</svg>
