<?xml version="1.0" standalone="no"?>
<!DOCTYPE svg PUBLIC "-//W3C//DTD SVG 1.1//EN" "http://www.w3.org/Graphics/SVG/1.1/DTD/svg11.dtd" >
<svg xmlns="http://www.w3.org/2000/svg" xmlns:xlink="http://www.w3.org/1999/xlink" version="1.1" viewBox="-10 0 1010 1000">
   <path fill="currentColor"
d="M419 -13q101 39 97 47q-2 3 -10 8q-43 26 -101 107h79q20 0 49 -1q19 -1 29 -1q-9 17 -8 119q0 43 3 89q1 25 1 36q-14 -4 -63 -7q-18 0 -25 -1h-105v111h125q47 -2 85 -7q-8 33 -12 126q0 117 -23 142q-18 31 -113 47q-10 -42 -42 -89q46 7 58 4q17 -2 27 -16
q18 -34 16 -143h-121v214q1 100 8 137h-85q0 -7 2 -20q4 -40 4 -113v-166q-85 141 -211 242q-3 -3 -12 -13q-30 -34 -53 -51q122 -55 225 -211q9 -13 13 -19h-77q-6 1 -24 2q-43 3 -60 6q11 -40 16 -131q4 -87 -2 -123q13 5 70 8h115v-107h-92q-46 0 -115 7q-9 1 -12 1v-78
q36 6 121 6h145q39 -45 78 -162zM220 -12q44 69 60 118l-72 25q-23 -68 -57 -113zM806 -6q106 7 113 14q0 3 -4 9q-20 31 -20 96v665q4 84 -24 99q-22 22 -145 34q2 -49 -36 -101q91 13 107 3q20 -5 18 -59v-648q-1 -81 -9 -112zM637 102q95 4 101 11q1 4 -3 13
q-11 26 -11 57v351q0 126 6 153h-91q6 -27 6 -155v-361q-1 -47 -8 -69zM365 213v107h111l4 -107h-115zM183 383l-6 111h117v-111h-111z" />
</svg>
