<?xml version="1.0" standalone="no"?>
<!DOCTYPE svg PUBLIC "-//W3C//DTD SVG 1.1//EN" "http://www.w3.org/Graphics/SVG/1.1/DTD/svg11.dtd" >
<svg xmlns="http://www.w3.org/2000/svg" xmlns:xlink="http://www.w3.org/1999/xlink" version="1.1" viewBox="-10 0 1034 1024">
  <g transform="matrix(1 0 0 -1 0 820)">
   <path fill="currentColor"
d="M138 -40l61 74q43 52 75 95q31 42 76 109l-3 -382q-1 -1 -2 -11h50q0 1 -2 5q-3 7 -4 36v313q37 -27 99 -85q30 -28 74 -92q19 24 28 30q1 1 8 6l-103 101q-6 4 -9 8l-53 45l-44 37v190h168v-153q0 -25 -11 -31q-13 -4 -27 -5q-12 0 -34 5q15 -37 16 -48q45 6 57 10
q27 9 33 23q3 13 4 34l1 162l4 44q-27 -1 -56 -5h-155v117h179q39 0 61 -5v47q-60 -6 -73 -6h-167v70q0 18 14 63h-58l5 -105v-28l-226 1q-10 1 -23 2q-3 0 -12 3v-47q39 4 61 5h200v-117l-151 1q-15 3 -44 4q1 -16 3 -31q3 -21 3 -50l-3 -180q-3 -3 -3 -11h51q-1 3 -1 5
q-1 3 -5 44v182h150v-125q-64 -117 -184 -260q-54 -60 -96 -82q30 -18 48 -33q9 10 20 21zM699 634q0 -9 5 -64l-1 -432q-1 -9 -2 -30q-1 -1 -2 -11h49q-1 3 -1 5q-3 7 -4 36l1 452q0 10 5 25q3 10 8 19h-58zM906 704q0 7 2 26q3 22 12 37h-58q1 -30 5 -63l-1 -767
q-3 -24 -12 -34q-15 -13 -62 -14q-28 0 -61 6q12 -27 16 -49q117 4 141 34q18 21 18 83v741z" />
  </g>

</svg>
