<?xml version="1.0" standalone="no"?>
<!DOCTYPE svg PUBLIC "-//W3C//DTD SVG 1.1//EN" "http://www.w3.org/Graphics/SVG/1.1/DTD/svg11.dtd" >
<svg xmlns="http://www.w3.org/2000/svg" xmlns:xlink="http://www.w3.org/1999/xlink" version="1.1" viewBox="-10 0 1034 1024">
  <g transform="matrix(1 0 0 -1 0 820)">
   <path fill="currentColor"
d="M542 292q-9 -30 -20 -56q-10 -27 -28 -60q-37 -67 -61 -93q-31 27 -58 54t-70 67q-15 -16 -33 -31l69 -60q27 -25 63 -64q-64 -67 -162 -116q-84 -39 -158 -47q21 -22 37 -47q117 42 203 95q138 85 216 249q31 73 57 150l-70 -6h-210q30 54 41 69q10 13 32 27
q-30 16 -53 34q-39 -87 -84 -155q-22 -33 -68 -77q-45 -45 -68 -58q-37 -24 -50 -24q30 -18 48 -37q96 76 179 186h248zM544 468q27 0 58 -5q0 3 -1 10l-4 46q0 121 3 128q3 16 11 31h-58q0 -3 3 -9q0 -37 3 -77v-88h-176v188q0 12 2 27q3 18 12 38h-58q0 -1 2 -5q0 -3 1 -6
q0 -27 3 -54v-188h-173v104q0 9 2 27q3 19 12 38h-57q0 -4 2 -9l3 -109l-5 -92q30 3 61 5h354zM740 100q-6 24 -6 32l-1 388q0 24 4 32q3 18 12 33h-59q0 -4 2 -9q0 -27 3 -56l-1 -376q-1 -7 -2 -35q-1 -1 -2 -9h50zM865 743q0 -3 1 -6q0 -3 2 -6l3 -152v-643q0 -33 -20 -41
q-16 -4 -43 -5q-33 0 -75 6q15 -28 22 -53q60 3 96 10q27 6 43 21q15 16 15 53v751q0 12 2 27q3 15 12 38h-58z" />
  </g>

</svg>
