<?xml version="1.0" standalone="no"?>
<!DOCTYPE svg PUBLIC "-//W3C//DTD SVG 1.1//EN" "http://www.w3.org/Graphics/SVG/1.1/DTD/svg11.dtd" >
<svg xmlns="http://www.w3.org/2000/svg" xmlns:xlink="http://www.w3.org/1999/xlink" version="1.1" viewBox="-10 0 1034 1024">
  <g transform="matrix(1 0 0 -1 0 820)">
   <path fill="currentColor"
d="M123 572l-62 6v-47q15 4 28 5l815 1q39 0 60 -6v47l-60 -6h-297q121 139 127 142q6 6 13 9q10 6 24 14q-25 16 -57 40q-25 -46 -50 -79q-57 -70 -110 -126h-431zM158 -104q-3 -27 -3 -48q-1 -1 -2 -11h49q-4 49 -5 52v213h246v-171q0 -22 -5 -35q-3 -4 -10 -8
q-13 -6 -41 -7q-22 0 -52 3q13 -27 20 -49q30 6 45 6q6 0 34 8q12 6 25 13q21 16 22 61l1 482l4 43l-54 -6l-238 1q-19 4 -41 5q1 -30 5 -61v-491zM197 138v114h246v-114h-246zM197 288v118h246v-118h-246zM268 719q27 -15 63 -46q28 -27 45 -46q9 -12 27 -39q13 16 39 35
l-53 54l-84 80q-15 -21 -37 -38zM616 403q0 -7 5 -63l-1 -274q-1 -3 -2 -20q-1 -1 -2 -12h49q-4 49 -5 60l1 265q0 13 5 26q3 10 8 18h-58zM684 -144q0 -3 4 -24q55 4 86 10q24 4 38 10q18 6 28 24q9 16 9 58v483q0 34 14 63h-58q0 -6 5 -63v-481q0 -37 -15 -45
q-24 -12 -63 -12q-21 0 -54 5z" />
  </g>

</svg>
