<?xml version="1.0" standalone="no"?>
<!DOCTYPE svg PUBLIC "-//W3C//DTD SVG 1.1//EN" "http://www.w3.org/Graphics/SVG/1.1/DTD/svg11.dtd" >
<svg xmlns="http://www.w3.org/2000/svg" xmlns:xlink="http://www.w3.org/1999/xlink" version="1.1" viewBox="-10 0 1034 1024">
  <g transform="matrix(1 0 0 -1 0 820)">
   <path fill="currentColor"
d="M128 366l-62 6v-47q31 6 55 6l461 -1q15 -1 27 -5v47q-12 -1 -23 -4l-169 -2q34 87 49 111q12 24 34 48q-25 9 -54 23q-12 -43 -26 -79q-15 -39 -43 -103h-249zM567 628q-15 0 -22 -3q-18 0 -38 -2l-371 1q-18 3 -29 4v-46q30 4 40 5l392 -1q15 0 28 -4v46zM152 -88
q-3 -27 -3 -48q-3 -3 -3 -11h50q-3 6 -5 54v47h305q-1 -27 -3 -56q-1 -1 -1 -4q-1 -3 -2 -7h50q0 1 -1 5q-3 7 -4 36l1 262l4 48q-28 -1 -57 -5l-293 1q-15 3 -44 4q6 -63 6 -82v-244zM191 -10v207h305v-207h-305zM226 513q-6 12 -16 24q-18 -13 -42 -27q54 -48 86 -131
q15 12 41 26q-1 3 -69 108zM345 712q-1 3 -10 12t-33 37q-21 -18 -39 -30q25 -18 52 -49q21 -21 37 -55q15 16 37 30q-9 10 -17 22zM673 648q0 -7 5 -63l-1 -451q-1 -6 -2 -25q-1 -1 -2 -11h49q0 6 -2 11q-1 9 -3 48v428q0 12 2 26q3 22 12 37h-58zM911 685q0 9 2 27
q3 21 12 37h-58q1 -31 5 -64l-1 -758q-3 -10 -6 -19q-12 -15 -55 -16q-31 0 -64 7q9 -34 14 -55q37 3 93 11q16 4 31 12q27 18 27 69v749z" />
  </g>

</svg>
