<?xml version="1.0" standalone="no"?>
<!DOCTYPE svg PUBLIC "-//W3C//DTD SVG 1.1//EN" "http://www.w3.org/Graphics/SVG/1.1/DTD/svg11.dtd" >
<svg xmlns="http://www.w3.org/2000/svg" xmlns:xlink="http://www.w3.org/1999/xlink" version="1.1" viewBox="-10 0 1034 1024">
  <g transform="matrix(1 0 0 -1 0 820)">
   <path fill="currentColor"
d="M412 732q-31 15 -53 28q-9 -28 -23 -56q-15 -30 -44 -70q-37 -57 -70 -98q-31 -37 -80 -83q-51 -48 -94 -64q25 -16 44 -36q39 33 64 56q21 21 43 45q81 90 160 211q85 -57 157 -112q70 -60 78 -69q9 -12 19 -27q12 18 19 25q7 9 17 19l-62 48l-129 93l-81 57
q16 16 35 33zM638 -25q0 6 3 34q-25 -9 -46 -15q-22 -4 -62 -12q-13 -1 -28 -5l-56 -10q13 34 50 109l36 82l26 61q19 33 43 63q-54 21 -57 23q-9 -34 -20 -60q-19 -57 -60 -151q-3 -4 -66 -136l-181 -28q-48 -6 -110 -7q15 -25 21 -52q39 10 71 16q307 54 352 60
q40 6 83 11q0 9 1 17zM225 194q-12 34 -35 90q-19 -12 -45 -24q27 -39 49 -94q34 -87 43 -135l22 11q4 3 21 8q-7 18 -16 43zM192 390q39 4 62 5l299 -1q16 0 30 -4v46q-30 -1 -61 -5l-291 1q-24 3 -39 4v-46zM345 336q-1 -1 -5 -3q-3 -1 -6 -3q-15 -6 -32 -14
q21 -36 47 -109q12 -40 18 -65q3 -21 5 -43q7 3 17 7q9 6 30 9l-24 74q-3 15 -32 93zM690 619l5 -91l-1 -394q-1 -9 -2 -30q-1 -1 -2 -11h50q-4 12 -5 27l-1 435q0 12 3 30q4 22 12 34h-59zM922 674q0 12 2 27q3 19 12 36h-58q1 -30 5 -63l-1 -738q-3 -21 -12 -31
q-18 -12 -66 -12q-24 0 -55 5q12 -30 18 -51q33 1 50 4q49 6 77 22q27 18 28 60v741z" />
  </g>

</svg>
