<?xml version="1.0" standalone="no"?>
<!DOCTYPE svg PUBLIC "-//W3C//DTD SVG 1.1//EN" "http://www.w3.org/Graphics/SVG/1.1/DTD/svg11.dtd" >
<svg xmlns="http://www.w3.org/2000/svg" xmlns:xlink="http://www.w3.org/1999/xlink" version="1.1" viewBox="-10 0 1034 1024">
  <g transform="matrix(1 0 0 -1 0 820)">
   <path fill="currentColor"
d="M713 118q-6 30 -6 37l1 444q0 12 6 30q3 10 8 20h-58q1 -31 5 -64l-1 -422q-1 -9 -2 -35q-1 -3 -2 -10h49zM853 754q0 -1 1 -5q0 -3 2 -6q0 -18 3 -54v-760q0 -33 -19 -39q-15 -6 -43 -6q-31 0 -74 6q3 -9 7 -18q6 -12 14 -35q60 3 96 10q27 6 43 20q13 18 14 54v768
q0 9 2 27q3 18 13 38h-59zM490 445l-119 81q6 40 10 88q3 48 9 101q3 19 15 39q-33 1 -59 7q3 -34 3 -56q0 -16 -2 -48q-1 -51 -6 -74q-15 -84 -97 -171q-48 -49 -101 -77q-18 -9 -41 -14q25 -18 44 -42l20 15q75 55 111 94q37 39 75 100l115 -75q69 -48 107 -88
q15 25 31 45zM254 655l-55 16q-4 -31 -14 -64q-24 -70 -50 -105q24 -3 45 -13q19 48 40 104q12 39 34 62zM228 202q7 21 24 34l-57 18q-6 -39 -27 -95q-27 -60 -52 -94q24 -6 45 -19zM561 262q-10 6 -23 18q-27 -73 -100 -154q3 0 5 -2q24 -12 35 -21l38 58q30 49 38 57
q13 18 32 26q-13 9 -25 18zM593 652q-19 12 -36 24q-6 4 -14 10q-18 -36 -31 -53q-46 -61 -77 -83q21 -9 40 -27q90 111 95 114q7 7 23 15zM582 -100q9 12 17 24q9 12 11 15q-3 3 -148 112q-9 7 -18 13q-13 9 -28 20l-41 28l8 83q1 22 4 44q1 34 2 52q0 9 1 14q3 22 15 46
q-30 1 -61 3q0 -15 4 -69q0 -15 -1 -45q-1 -33 -5 -61q-6 -72 -29 -118q-49 -100 -157 -159q-37 -18 -80 -27q27 -24 44 -46q52 31 100 67q87 66 143 175l55 -38l60 -47q36 -27 57 -47q18 -15 43 -45q1 3 4 6v0z" />
  </g>

</svg>
