<?xml version="1.0" standalone="no"?>
<!DOCTYPE svg PUBLIC "-//W3C//DTD SVG 1.1//EN" "http://www.w3.org/Graphics/SVG/1.1/DTD/svg11.dtd" >
<svg xmlns="http://www.w3.org/2000/svg" xmlns:xlink="http://www.w3.org/1999/xlink" version="1.1" viewBox="-10 0 1034 1024">
  <g transform="matrix(1 0 0 -1 0 820)">
   <path fill="currentColor"
d="M337 374q0 -18 -4 -38q-3 -19 -12 -65q-7 -45 -19 -79q-39 30 -81 67q-15 -18 -33 -33q51 -31 100 -75q-39 -96 -105 -172q-57 -63 -112 -86q28 -15 50 -33q52 49 87 87q28 33 54 71q69 111 94 237q15 84 25 160q-57 -6 -82 -6h-49q18 54 31 76q10 21 30 43q-36 9 -58 20
l-22 -75q-9 -28 -20 -56q-48 -117 -88 -175q-15 -21 -28 -35q-12 -12 -32 -27q24 -4 55 -20l55 89l64 125h100zM308 724q31 -13 98 -62q15 -10 33 -30q6 15 22 34q4 4 7 8l-133 91q-12 -22 -27 -41zM432 -145l99 96q57 52 99 83q-3 24 -8 55q-61 -63 -86 -85l-81 -71v465
h104v-194q0 -24 -18 -33q-9 -3 -29 -4q-15 0 -40 5q12 -31 18 -52q36 3 58 9q25 9 36 22q12 18 13 48l1 193q0 19 4 47q-27 -1 -54 -5l-93 1q-15 3 -43 4q1 -31 5 -65l-1 -438q-4 -22 -19 -45q16 -18 35 -36zM762 125q-4 19 -5 36l-1 423q0 24 4 36q3 13 10 27h-58l5 -90
l-3 -421q0 -4 -2 -11h50zM917 702q0 7 2 26q3 22 12 37h-58q0 -9 1 -11q0 -3 1 -8q0 -6 3 -44v-758q0 -30 -10 -40q-9 -10 -47 -11q-25 0 -66 7q9 -30 13 -51l79 6q30 9 39 14q9 7 17 15q13 18 14 62v756zM135 541q-3 -27 -3 -48q-1 -3 -2 -12h49q0 6 -2 12q-3 18 -3 70v32
h426q0 -78 -3 -100v-1q-3 -3 -3 -12h50q-4 49 -5 77q0 28 3 58q0 10 2 19q-25 -1 -52 -5l-422 1q-3 0 -40 4q1 -16 2 -28q3 -18 3 -26v-41z" />
  </g>

</svg>
