<?xml version="1.0" standalone="no"?>
<!DOCTYPE svg PUBLIC "-//W3C//DTD SVG 1.1//EN" "http://www.w3.org/Graphics/SVG/1.1/DTD/svg11.dtd" >
<svg xmlns="http://www.w3.org/2000/svg" xmlns:xlink="http://www.w3.org/1999/xlink" version="1.1" viewBox="-10 0 1034 1024">
  <g transform="matrix(1 0 0 -1 0 820)">
   <path fill="currentColor"
d="M126 631q-30 0 -62 5v-46q30 4 40 5l820 -1q16 0 30 -4v46q-30 -1 -61 -5h-276q31 31 36 38q39 39 59 53q12 9 43 22q-27 15 -54 38q-24 -34 -53 -66q-31 -34 -84 -85h-438zM439 83q-45 -99 -141 -157q-97 -54 -204 -59q25 -36 32 -49q112 33 172 65q66 34 107 78
q42 45 80 122h328q-1 -31 -5 -56l-6 -57q-3 -15 -7 -28q-9 -31 -42 -47q-28 -10 -70 -11q-18 0 -46 3q10 -24 19 -53q76 12 109 23q55 18 74 110q4 28 19 157l-54 -6l-613 1q-12 1 -26 2q-3 0 -13 3v-47q28 4 49 6h238zM177 545q1 -30 5 -60l-2 -302q-3 -3 -3 -11h49
q0 6 -2 11q-1 9 -3 48v60h250v-40q0 -21 -14 -29q-16 -4 -41 -5q-10 0 -36 3q9 -25 16 -49q37 3 59 9q30 7 43 24q10 18 11 47l1 251l4 43q-25 -1 -51 -5l-244 1q-15 3 -42 4zM221 326v70h250v-70h-250zM221 432v72h250v-72h-250zM417 654q6 12 21 23q-76 63 -117 92
q-9 -15 -30 -39q28 -12 60 -36q36 -25 55 -53q4 7 11 13zM633 514l5 -101l-3 -105q-1 -1 -2 -11h49q0 6 -2 11q-3 18 -3 67q0 102 3 108q3 18 11 31h-58zM852 491q0 9 2 27q3 22 13 37h-59q0 -9 5 -64l-1 -230q-3 -13 -11 -20q-24 -12 -58 -13q-15 0 -37 3q9 -27 15 -48
q97 12 117 40q13 18 14 54v214z" />
  </g>

</svg>
