<?xml version="1.0" standalone="no"?>
<!DOCTYPE svg PUBLIC "-//W3C//DTD SVG 1.1//EN" "http://www.w3.org/Graphics/SVG/1.1/DTD/svg11.dtd" >
<svg xmlns="http://www.w3.org/2000/svg" xmlns:xlink="http://www.w3.org/1999/xlink" version="1.1" viewBox="-10 0 1034 1024">
  <g transform="matrix(1 0 0 -1 0 820)">
   <path fill="currentColor"
d="M408 347v-143q-94 0 -114 2q-19 3 -42 4q1 -30 5 -62l-3 -281q-1 -1 -2 -11h49q0 6 -2 11q-1 9 -3 48v33h273q0 -46 -3 -71v-1q-1 -1 -2 -11h49q-3 30 -5 60l1 240l4 45q-57 -6 -79 -6h-87v143h178q39 0 61 -5v46q-43 -4 -73 -5h-166v133l138 -1q12 0 41 -4q-4 49 -5 94
q0 79 2 91q0 13 3 32q-28 -1 -57 -5l-364 1q-15 3 -41 4q3 -27 7 -54q3 -33 4 -88l1 -140q0 -154 -16 -255q-15 -108 -49 -194q-19 -49 -61 -90q33 -6 55 -17q0 3 38 82q15 45 33 107q12 54 21 113q7 64 15 155h196zM212 552v135h372v-135h-372zM212 383v133h196v-133h-196z
M296 -16v185h273v-185h-273zM764 102q-4 19 -5 36l-1 458q0 24 4 37q3 13 10 27h-58q0 -9 5 -64l-1 -458q-1 -6 -2 -25q-1 -1 -1 -4q-1 -3 -1 -7h50zM929 700q0 12 2 26q3 21 13 37h-59q0 -9 1 -11l4 -52v-754q0 -34 -22 -46q-24 -9 -65 -10q-18 0 -54 5q9 -27 15 -50
q30 3 102 15q16 6 28 11q34 21 35 69v760z" />
  </g>

</svg>
