<?xml version="1.0" standalone="no"?>
<!DOCTYPE svg PUBLIC "-//W3C//DTD SVG 1.1//EN" "http://www.w3.org/Graphics/SVG/1.1/DTD/svg11.dtd" >
<svg xmlns="http://www.w3.org/2000/svg" xmlns:xlink="http://www.w3.org/1999/xlink" version="1.1" viewBox="-10 0 1034 1024">
  <g transform="matrix(1 0 0 -1 0 820)">
   <path fill="currentColor"
d="M189 10q12 9 24 20l97 98q25 33 53 64l-3 -316q-1 -1 -2 -11h49q-3 30 -5 60v247q36 -21 66 -42l72 -53q39 -30 80 -82q12 21 32 43l-122 94q-57 39 -128 84v307h190q37 0 60 -5v46q-15 0 -22 -3l-133 -2h-95v118l39 4q99 15 106 15q21 0 45 -2q-24 39 -36 51
q-67 -18 -134 -28l-111 -14q-48 -3 -81 -5q-28 0 -80 7q15 -27 24 -51q97 10 150 13l39 4v-112l-233 1q-24 3 -38 4v-46q39 4 61 5h210v-266q-24 -36 -42 -58q-15 -21 -38 -45q-46 -54 -80 -83q-84 -73 -144 -89q27 -18 46 -42q6 3 14 12q4 3 10 8zM280 213q-3 24 -4 41v168
q0 16 14 63h-59q0 -3 4 -15q-1 -4 0 -12l2 -59l-101 1l-24 2l-12 2v-47q18 6 71 6h66v-84q-72 -12 -134 -12l-36 1q13 -27 20 -50q105 22 135 26q6 1 15 1q0 -16 -4 -32h47zM531 417q0 15 15 63h-59q6 -63 7 -81l1 -137q3 -18 19 -29q18 -10 63 -11q55 0 76 20q16 18 32 69
q-21 10 -47 30q1 -15 2 -23q0 -39 -16 -52q-12 -7 -45 -8q-18 0 -28 3q-21 6 -22 34v67q72 22 90 26q21 4 39 5q-15 22 -27 44q-39 -19 -100 -41v21zM775 153q-3 30 -5 60l1 383q0 13 5 26q3 12 9 20h-59q0 -9 2 -19l3 -93l-3 -365q-1 -1 -2 -12h49zM906 711q0 7 2 26
q3 18 12 37h-58q0 -9 2 -19l3 -93v-683q0 -42 -17 -52q-21 -15 -59 -15q-18 0 -42 3q12 -28 17 -51q54 9 68 14q45 10 58 33q13 22 14 79v721z" />
  </g>

</svg>
