<?xml version="1.0" standalone="no"?>
<!DOCTYPE svg PUBLIC "-//W3C//DTD SVG 1.1//EN" "http://www.w3.org/Graphics/SVG/1.1/DTD/svg11.dtd" >
<svg xmlns="http://www.w3.org/2000/svg" xmlns:xlink="http://www.w3.org/1999/xlink" version="1.1" viewBox="-10 0 1034 1024">
  <g transform="matrix(1 0 0 -1 0 820)">
   <path fill="currentColor"
d="M347 -47q0 -30 -12 -39q-15 -9 -48 -10q-25 0 -66 7q9 -30 13 -54l66 7q6 0 11 2q39 6 56 23q18 16 18 52v214q103 -67 144 -101q52 -40 76 -77q18 25 39 45q-39 30 -100 72l-134 92l86 73q33 30 51 39q13 9 45 18q-28 24 -47 48q-22 -27 -45 -51l-58 -53
q-27 -27 -57 -49v197h199q39 0 60 -5v46q-43 -4 -76 -5h-44l10 113l7 84q0 22 11 85l-96 -5l-270 1q-24 3 -38 4v-46q30 4 35 5h321l-7 -100l-282 1q-6 1 -27 2q-3 0 -12 2v-46q39 4 61 5h257l-9 -105l-380 1l-18 2q-3 0 -13 2v-46q54 4 62 5h211v-226q-121 -82 -156 -103
q-7 -4 -68 -38l-56 -19q24 -27 34 -48q24 15 237 160l9 6v-187zM121 308q78 -45 121 -116q15 22 28 35l7 7l-122 113q-15 -21 -34 -39zM687 644q0 -6 5 -63l-1 -435q-1 -6 -2 -25q-1 -1 -2 -11h49q0 6 -2 11q-1 10 -3 49v411q0 7 2 26q3 19 13 37h-59zM897 692q0 12 2 27
q6 25 13 37h-59q1 -31 5 -64l-1 -752q-3 -15 -8 -21q-12 -13 -51 -14q-24 0 -73 6q12 -30 16 -52q18 0 39 3q42 3 59 7q24 6 42 20q15 15 16 54v749z" />
  </g>

</svg>
