<?xml version="1.0" standalone="no"?>
<!DOCTYPE svg PUBLIC "-//W3C//DTD SVG 1.1//EN" "http://www.w3.org/Graphics/SVG/1.1/DTD/svg11.dtd" >
<svg xmlns="http://www.w3.org/2000/svg" xmlns:xlink="http://www.w3.org/1999/xlink" version="1.1" viewBox="-10 0 1010 1000">
   <path fill="currentColor"
d="M798 6q97 1 105 16q1 5 -3 14q-9 23 -9 50v680q-7 122 -163 125q-3 -53 -34 -107q96 23 110 -20v-647q0 -26 -6 -111zM573 42v83q-78 -6 -174 -8h-179q-27 0 -103 5q-32 2 -44 3v-83q84 7 145 8h183q90 -2 172 -8zM625 133q86 2 99 12q0 7 -6 19q-10 20 -10 39v284
q0 124 4 164h-87q3 -68 4 -163v-281q-1 -14 -2 -37q-1 -29 -2 -37zM431 246h-221v78h221v-78zM472 508h-121v84h121v-84zM169 508v84h115v-84h-115zM284 651h-115v91h115v-91zM351 651v91h121v-91h-121zM510 179q-4 23 -4 63v82q-1 52 4 67q-7 -2 -24 -3q-13 -1 -55 -1h-221
q-55 0 -77 4q5 -38 4 -69v-78q0 -43 -4 -65q8 4 79 4h215q63 0 83 -4zM556 441q-5 13 -4 69v296q0 40 4 57h-90q4 -19 4 -57h-299q-2 36 6 65h-92q6 -18 6 -67v-294q0 -36 -4 -69q37 4 82 4h303q36 0 84 -4z" />
</svg>
