<?xml version="1.0" standalone="no"?>
<!DOCTYPE svg PUBLIC "-//W3C//DTD SVG 1.1//EN" "http://www.w3.org/Graphics/SVG/1.1/DTD/svg11.dtd" >
<svg xmlns="http://www.w3.org/2000/svg" xmlns:xlink="http://www.w3.org/1999/xlink" version="1.1" viewBox="-10 0 1010 1000">
   <path fill="currentColor"
d="M210 677v91h266v-91h-266zM653 167q93 0 97 14q1 6 -4 16q-10 23 -10 49v256q0 120 4 157h-83q4 -55 4 -165v-242q0 -45 -8 -85zM806 18q89 1 103 14q1 6 -4 18q-14 32 -14 77v671q2 53 -32 71q-29 19 -143 32q-10 -42 -39 -99q134 13 136 -32v-639q0 -100 -7 -113z
M357 -4q17 28 42 99q1 5 2 7q187 0 210 -4q-6 8 -6 67q0 38 1 50q0 16 3 25h-85q4 -23 4 -79h-373q0 64 4 79h-84q6 -20 6 -71q0 -39 -1 -50q-1 -14 -5 -23q33 6 86 6h154q-8 -29 -45 -86zM292 183q81 2 101 10q0 3 -7 9q-13 13 -13 25v31h105q-3 -4 74 -4v64q-36 -6 -74 -6
h-105v61h111q47 0 66 -4v62q-30 -4 -60 -4h-117v61h123q54 0 99 -3v69q-10 -6 -91 -6h-131v69q164 0 185 -4q-4 21 -4 191q0 51 1 64q0 19 3 29h-86q4 -21 4 -69h-268q-3 58 2 73h-85q7 -52 10 -161v-64q0 -20 -1 -32q0 -24 -3 -32q19 5 169 5v-69h-153q-42 0 -68 4v-67
q21 3 72 3h149v-61h-119q-42 -1 -58 4v-64q21 6 60 6h117v-61h-110q-34 0 -42 1q-11 0 -25 3v-64l73 6h104q0 -60 -8 -75z" />
</svg>
