<?xml version="1.0" standalone="no"?>
<!DOCTYPE svg PUBLIC "-//W3C//DTD SVG 1.1//EN" "http://www.w3.org/Graphics/SVG/1.1/DTD/svg11.dtd" >
<svg xmlns="http://www.w3.org/2000/svg" xmlns:xlink="http://www.w3.org/1999/xlink" version="1.1" viewBox="-10 0 1034 1024">
  <g transform="matrix(1 0 0 -1 0 820)">
   <path fill="currentColor"
d="M373 -97q-3 -27 -3 -48q-1 -1 -1 -4l-3 -7h51q0 6 -2 11q-1 9 -3 48v165q114 -57 128 -65q60 -36 69 -45q10 -9 28 -26q6 21 28 49l-87 47q-30 16 -35 18l-131 62v8h214q37 0 60 -5v46q-22 -4 -60 -5h-214v75l173 -1l42 -4q-4 48 -5 88q0 136 2 150q0 18 3 36l-52 -6
l-377 1q-33 4 -44 5q1 -30 5 -61q0 -154 -2 -179q-3 -3 -3 -34q46 4 91 5h128v-75l-255 1q-18 3 -28 4v-46q39 4 61 5h187q-52 -81 -132 -149q-66 -51 -122 -65q25 -21 41 -43q45 30 90 67q24 18 56 51q46 45 102 120v-194zM197 367v88h176v-88h-176zM197 263v69h176v-69
h-176zM412 263v69h173v-69h-173zM412 367v88h173v-88h-173zM209 652q37 51 42 54l39 29q-25 12 -49 28q-10 -22 -30 -49q-22 -31 -72 -90q21 -22 33 -33q34 -34 44 -47q9 -12 25 -40q15 18 35 36q-61 57 -90 87q10 13 23 25zM416 691q15 18 40 35q-21 10 -44 31
q-15 -28 -32 -51l-60 -82q39 -45 58 -70q12 -15 26 -45q18 16 38 31l-79 88q45 57 53 63zM525 599q21 -21 30 -34q10 -12 31 -44q12 16 35 33l-82 81q10 15 22 29q30 42 64 63q-33 18 -47 30q-12 -25 -29 -50q-19 -28 -57 -74q16 -16 33 -34zM784 97q0 6 -2 11q-1 9 -3 48
v408q0 12 2 27q3 21 12 37h-59q0 -7 4 -32q0 -15 2 -32l-2 -456q-1 -1 -2 -5l-2 -6h50zM914 707q0 7 2 26q3 22 12 37h-58q1 -30 5 -63v-767q0 -31 -13 -38q-21 -7 -42 -8q-21 0 -55 5q13 -31 16 -51q33 1 59 5q39 6 56 21q18 16 18 58v775z" />
  </g>

</svg>
