<?xml version="1.0" standalone="no"?>
<!DOCTYPE svg PUBLIC "-//W3C//DTD SVG 1.1//EN" "http://www.w3.org/Graphics/SVG/1.1/DTD/svg11.dtd" >
<svg xmlns="http://www.w3.org/2000/svg" xmlns:xlink="http://www.w3.org/1999/xlink" version="1.1" viewBox="-10 0 1034 1024">
  <g transform="matrix(1 0 0 -1 0 820)">
   <path fill="currentColor"
d="M197 153q0 -25 -4 -54h46q-3 12 -4 54l399 -1q12 0 33 -5v46q-43 -4 -78 -5h-145v103q123 0 140 -2l21 -4v47q-36 -6 -92 -6h-69v98q72 0 148 -3q3 0 13 -2v46q-6 0 -12 -3q-16 0 -54 -2h-95v107h131q24 0 52 -3l15 -2v46q-33 -1 -67 -5h-336q18 30 36 66q25 48 50 60
q-33 15 -57 29q-7 -36 -41 -99q-40 -76 -101 -149q-39 -42 -77 -58q27 -10 53 -29q16 18 43 51t52 68v-389zM235 188v103h171v-103h-171zM235 326v98h171v-98h-171zM235 460v107h171v-107h-171zM193 80q-6 -39 -50 -102q-28 -39 -82 -70q25 -12 48 -28q51 46 93 121
q19 34 54 51q-36 12 -48 20q-7 3 -15 8zM387 -91q-4 12 -7 22l-23 78q-9 28 -23 62q-18 -7 -37 -13q33 -69 52 -164zM469 625q4 7 21 19l-49 57l-48 54q-6 -3 -21 -18q-1 0 -2 -2q-6 -3 -10 -7q6 -3 45 -47l55 -65zM452 76q-6 -1 -12 -4l-12 -4q33 -58 58 -158q1 1 3 2
q3 3 8 4q6 0 13 6q9 3 13 7q-15 42 -26 76l-31 78l-3 -2q-3 -1 -6 -3q-3 0 -5 -2zM556 89q-3 -1 -11 -4q30 -48 61 -104q33 -63 44 -92q3 3 36 21l-103 191q-13 -6 -27 -12zM754 83q-3 34 -5 69l1 461l4 26q3 6 8 18h-55l4 -62l-1 -479q-4 -24 -5 -33h49zM881 767l1 -2
q0 -6 2 -11q0 -21 3 -48v-768q0 -24 -20 -35q-19 -6 -49 -6q-19 0 -55 7l10 -49q9 1 19 1q16 0 38 3q51 3 74 21q21 16 21 62l1 782q0 9 6 29q1 6 6 14h-57z" />
  </g>

</svg>
