<?xml version="1.0" standalone="no"?>
<!DOCTYPE svg PUBLIC "-//W3C//DTD SVG 1.1//EN" "http://www.w3.org/Graphics/SVG/1.1/DTD/svg11.dtd" >
<svg xmlns="http://www.w3.org/2000/svg" xmlns:xlink="http://www.w3.org/1999/xlink" version="1.1" viewBox="-10 0 1010 1000">
   <path fill="currentColor"
d="M720 -12q6 25 20 63q8 23 10 31h54q3 0 11 -1q76 -3 92 -9v75q-10 -4 -31 -5q-14 -1 -74 -1h-209q-77 3 -95 6v-75q31 8 95 10h86q-18 -34 -46 -76zM127 32q8 1 49 5q26 2 42 3h159q66 0 89 -6q-7 28 -8 70v67q3 62 8 77q-9 -5 -75 -4h-193q-7 21 -11 58q17 3 77 4h109
l89 -4l-6 65v72q0 34 4 73q-83 -3 -89 -4h-2h-113q-62 0 -83 6q1 -14 2 -36q2 -32 2 -39v-101q-23 70 -70 131q-41 -27 -77 -42q132 -98 97 -395zM200 100v85h187v-85h-187zM776 147q16 8 47 22q38 16 36 18q-1 2 -6 7q-26 20 -63 72h35q73 -4 112 -10v76q-34 -3 -116 -6
h-91v69h76q81 -2 99 -6v74q-24 -6 -93 -8h-82q1 0 2 36q2 59 4 65h-85q8 -38 8 -101h-48q-50 0 -66 1q-21 0 -39 3v-70q28 5 101 6h52v-69h-34q-3 -3 -53 -2q-54 1 -84 4v-70q13 1 70 4q38 3 61 4h107q42 -56 50 -119zM635 157q23 40 44 80l-70 19l-4 -8q-23 -45 -42 -73z
M248 362v91h137v-91h-137zM137 568q34 5 139 7q29 1 45 1h318q75 0 226 -12q-23 234 -48 276q-13 40 -180 51q-12 -61 -50 -99q92 17 137 0q37 -8 42 -145h-278q-13 219 -349 258q-13 -26 -53 -67q-11 -12 -17 -18q312 5 338 -173h-84q-130 0 -186 8v-87z" />
</svg>
