<?xml version="1.0" standalone="no"?>
<!DOCTYPE svg PUBLIC "-//W3C//DTD SVG 1.1//EN" "http://www.w3.org/Graphics/SVG/1.1/DTD/svg11.dtd" >
<svg xmlns="http://www.w3.org/2000/svg" xmlns:xlink="http://www.w3.org/1999/xlink" version="1.1" viewBox="-10 0 1034 1024">
  <g transform="matrix(1 0 0 -1 0 820)">
   <path fill="currentColor"
d="M657 81q-12 -3 -28 -4l-559 1q-6 0 -15 3v-39q3 1 12 2q37 3 53 3h107q-4 -91 -56 -144q-30 -27 -73 -38q28 -18 47 -37q55 39 81 76q16 28 25 52q7 25 18 91h180l-1 -188q-3 -15 -4 -32h49q-3 12 -5 26l-1 194l136 -1q21 0 34 -4v39zM529 134q30 -1 61 -5q-4 45 -5 70
q0 105 2 116q0 16 3 34q-30 -1 -60 -5l-364 1q-15 3 -42 4q1 -28 5 -59q0 -102 -2 -131q-3 -3 -3 -30q30 3 62 5h343zM338 226v-64h-172v64h172zM338 255h-172v60h172v-60zM375 255v60h172v-60h-172zM547 162h-172v65h172v-65zM155 681q1 -28 5 -58l-1 -187l-4 -43
q54 6 77 6l285 -1q12 0 42 -5q-4 48 -5 91l1 154l4 43q-27 -1 -56 -5h-199q24 45 57 71q-25 6 -57 19q-13 -33 -23 -52q-6 -16 -20 -38q-40 1 -82 3zM516 487v-60h-319v60h319zM516 565v-52h-319v52h319zM197 593v52h319v-52h-319zM747 64q-4 19 -5 30l-1 472q0 6 3 29
q3 18 12 36h-58q1 -31 5 -65l-1 -457q-1 -9 -2 -36q-1 -1 -2 -9h49zM871 749q0 -1 1 -5q0 -1 1 -4l4 -56v-748q0 -28 -21 -39q-21 -10 -62 -11q-24 0 -65 7q12 -21 21 -51q109 3 143 28q21 18 22 64v750q0 9 2 27q3 15 12 38h-58z" />
  </g>

</svg>
