<?xml version="1.0" standalone="no"?>
<!DOCTYPE svg PUBLIC "-//W3C//DTD SVG 1.1//EN" "http://www.w3.org/Graphics/SVG/1.1/DTD/svg11.dtd" >
<svg xmlns="http://www.w3.org/2000/svg" xmlns:xlink="http://www.w3.org/1999/xlink" version="1.1" viewBox="-10 0 1010 1000">
   <path fill="currentColor"
d="M585 -8q118 0 119 10q0 5 -6 15q-9 15 -10 25q-11 153 -11 189q192 -5 238 -22q-2 36 -7 107q-29 479 -53 504q-26 59 -182 73q-3 -53 -38 -111q105 21 141 -20q24 -25 39 -460l-140 6q10 432 -278 607q-36 -44 -91 -67q293 -109 283 -536q-84 0 -136 9q-7 1 -9 1v-95
q16 4 42 5q13 1 35 1h70q0 -169 -6 -241zM431 135v90q-1 0 -7 -1q-47 -7 -118 -7h-6v396l154 -51l2 93l-377 123l-33 -101l172 -44v-416h-12q-49 0 -105 6q-16 2 -20 2v-90q3 0 12 1q50 7 117 7h96q68 0 116 -7q7 -1 9 -1z" />
</svg>
