<?xml version="1.0" standalone="no"?>
<!DOCTYPE svg PUBLIC "-//W3C//DTD SVG 1.1//EN" "http://www.w3.org/Graphics/SVG/1.1/DTD/svg11.dtd" >
<svg xmlns="http://www.w3.org/2000/svg" xmlns:xlink="http://www.w3.org/1999/xlink" version="1.1" viewBox="-10 0 1010 1000">
   <path fill="currentColor"
d="M405 -4q109 -1 119 14q0 3 -4 9q-27 45 -30 188h143q106 0 135 -10q-1 22 -5 84q-25 393 -35 454q-11 80 -53 106q-39 28 -163 38q-9 -56 -46 -109q102 15 135 2q37 -12 42 -65q31 -326 32 -433h-187q-3 442 -329 625q-34 -47 -97 -75q335 -95 345 -550h-151
q-62 0 -117 6q-14 2 -18 2v-83q5 0 17 2q47 6 116 6h157v-111q-1 -73 -6 -100zM196 377q82 21 92 34q1 5 -7 13q-17 17 -27 39q-8 17 -25 54q-38 89 -62 128q-41 -28 -90 -39q86 -92 119 -229zM849 391q70 121 123 240l-93 40q-46 -153 -113 -244z" />
</svg>
