<?xml version="1.0" standalone="no"?>
<!DOCTYPE svg PUBLIC "-//W3C//DTD SVG 1.1//EN" "http://www.w3.org/Graphics/SVG/1.1/DTD/svg11.dtd" >
<svg xmlns="http://www.w3.org/2000/svg" xmlns:xlink="http://www.w3.org/1999/xlink" version="1.1" viewBox="-10 0 1034 1024">
  <g transform="matrix(1 0 0 -1 0 820)">
   <path fill="currentColor"
d="M305 552h106q37 0 60 -5v46q-30 -1 -60 -5l-280 1q-24 3 -38 4v-46q42 6 69 5h107v-456q-67 -18 -114 -27q-40 -6 -87 -9q15 -33 19 -48q0 -4 2 -9l172 49l234 61q0 13 4 50q-48 -18 -92 -30l-102 -28v447zM888 470q0 -90 -3 -154l-10 -250q-1 -58 -6 -93q-6 -27 -17 -37
q-22 -22 -80 -23q-46 3 -62 6q9 -30 15 -55q84 6 122 20q39 15 50 44q4 10 8 25q0 4 9 109q-1 4 0 6l4 129q6 139 7 184q3 60 10 130q-25 -1 -51 -5h-215l5 193q3 36 11 56q-33 1 -62 7q7 -72 8 -152l-1 -104l-150 1q-24 3 -39 4v-46q30 4 39 5h149q0 -12 -15 -198
q-10 -78 -28 -130q-36 -99 -135 -188q-34 -30 -61 -46q-21 -10 -61 -21q21 -18 31 -27q6 -7 13 -18q6 6 16 13q109 79 177 171q63 90 81 214q7 49 12 89l10 141h219z" />
  </g>

</svg>
