<?xml version="1.0" standalone="no"?>
<!DOCTYPE svg PUBLIC "-//W3C//DTD SVG 1.1//EN" "http://www.w3.org/Graphics/SVG/1.1/DTD/svg11.dtd" >
<svg xmlns="http://www.w3.org/2000/svg" xmlns:xlink="http://www.w3.org/1999/xlink" version="1.1" viewBox="-10 0 1010 1000">
   <path fill="currentColor"
d="M466 -12q105 4 107 12q0 3 -5 11q-14 23 -14 43v117q-1 119 8 133q83 -42 130 -101q70 61 80 85q0 4 -15 6q-28 6 -43 16q-205 137 -605 178q-15 -56 -65 -95q285 13 502 -81h-88q10 -19 10 -139v-95q0 -77 -2 -90zM290 64q88 46 91 63q0 3 -7 5q-22 7 -41 27
q-92 101 -192 183q-17 -21 -74 -56q136 -91 223 -222zM736 64q122 94 234 220l-89 64q-96 -137 -216 -231zM448 431q108 12 119 26q0 2 -5 9q-18 26 -28 68h149q144 0 168 -8q-43 312 -61 320q-28 51 -193 63q-12 -74 -53 -117q101 25 158 -2q29 -15 44 -188h-228
q-76 253 -391 307q-9 -23 -45 -70l-15 -21q296 -20 360 -212h-88q-145 0 -208 9v-87q17 5 65 6q23 1 55 2h86h105q5 -22 7 -54q2 -34 -1 -51z" />
</svg>
