<?xml version="1.0" standalone="no"?>
<!DOCTYPE svg PUBLIC "-//W3C//DTD SVG 1.1//EN" "http://www.w3.org/Graphics/SVG/1.1/DTD/svg11.dtd" >
<svg xmlns="http://www.w3.org/2000/svg" xmlns:xlink="http://www.w3.org/1999/xlink" version="1.1" viewBox="-10 0 1010 1000">
   <path fill="currentColor"
d="M649 -8q92 4 113 12q1 3 -4 9q-15 22 -20 59q-7 56 -12 155h58q65 0 137 -8q-8 55 -25 492q-1 25 -1 37q-1 74 -33 97q-24 23 -138 40q-6 -52 -45 -109q80 20 105 7q26 -11 29 -70q4 -67 9 -196q6 -135 11 -225h-109q10 439 -258 613q-34 -39 -87 -53q278 -129 268 -560
q-51 0 -121 8v-81q71 8 125 8q3 -168 -2 -235zM62 102q54 8 117 8h220q94 0 137 -8v91q-43 -8 -129 -8h-94q-2 30 -4 82q-2 44 -3 63h75q58 0 117 -8q-2 34 -6 96q-18 283 -30 317q-23 52 -152 59q-4 -43 -40 -97q124 24 127 -42q9 -104 18 -260h-117q-20 266 -191 445
q-41 -32 -85 -42q121 -98 167 -232q47 -129 47 -381h-57q-47 0 -117 8v-91z" />
</svg>
