<?xml version="1.0" standalone="no"?>
<!DOCTYPE svg PUBLIC "-//W3C//DTD SVG 1.1//EN" "http://www.w3.org/Graphics/SVG/1.1/DTD/svg11.dtd" >
<svg xmlns="http://www.w3.org/2000/svg" xmlns:xlink="http://www.w3.org/1999/xlink" version="1.1" viewBox="-10 0 1010 1000">
   <path fill="currentColor"
d="M637 -10q93 5 115 14q0 2 -3 8q-13 28 -19 82q-2 18 -5 59q-3 48 -5 66h70q66 -1 135 -10q-1 8 -3 25q-8 50 -9 76q-23 379 -42 476q-3 73 -177 85q-4 -56 -45 -109q103 28 131 -4q34 -37 51 -468h-113q-8 429 -234 615q-56 -39 -107 -55q4 -2 8 -3q21 -5 69 -44
q9 -6 20 -15q-57 -8 -125 -8h-145q0 29 8 80h-97q10 -45 10 -137v-129q1 -98 -8 -127l-8 4q-1 -1 -4 -5q-24 -29 -67 -61q163 -37 184 -272h-16q-82 1 -131 8v-85q55 9 141 10h141q90 -1 155 -8q-1 3 -3 11q-13 51 -15 80q-13 216 -40 236q-26 35 -139 42q-6 -51 -39 -97
q80 30 107 2q29 -24 30 -199h-113q-18 221 -167 320q67 3 133 4h57q27 -1 71 -2q68 -2 86 -2q-1 19 -3 51q-3 38 -3 56v95q0 25 3 72q2 34 3 53q144 -117 159 -490q-92 -1 -127 8v-89q47 9 133 10q2 -41 0 -108q-3 -73 -8 -121zM204 524v189h191v-189h-191z" />
</svg>
