<?xml version="1.0" standalone="no"?>
<!DOCTYPE svg PUBLIC "-//W3C//DTD SVG 1.1//EN" "http://www.w3.org/Graphics/SVG/1.1/DTD/svg11.dtd" >
<svg xmlns="http://www.w3.org/2000/svg" xmlns:xlink="http://www.w3.org/1999/xlink" version="1.1" viewBox="-10 0 1034 1024">
  <g transform="matrix(1 0 0 -1 0 820)">
   <path fill="currentColor"
d="M483 536l-5 -237l-4 -199l-2 -87q-3 -51 -40 -65q-30 -10 -76 -11q-13 0 -39 3q9 -16 21 -50q67 7 101 16q28 9 46 29q22 27 25 96l7 304q0 154 3 176q0 31 5 66q-18 -1 -28 -2q-21 -3 -30 -4h-247l46 86q21 45 49 64q-22 9 -60 28q-22 -96 -128 -244q-46 -57 -81 -73
q27 -12 52 -31q6 6 33 42q22 30 66 93h286zM147 158l-4 -42q0 -9 -2 -20q51 4 103 5l93 -1l43 -4q-1 18 -3 36q0 15 -2 24l1 207l4 42q-28 -1 -57 -5l-160 3q-10 1 -22 2l6 -59v-188zM184 137v225h153v-225h-153zM893 488l-6 -521q-6 -37 -7 -44q-4 -7 -10 -14
q-16 -10 -65 -11q-24 0 -55 7q9 -22 18 -53q28 0 66 6q51 4 72 27q18 21 19 94l6 482q0 12 1 25q1 15 4 44q-60 -6 -80 -6h-124v179q0 7 2 26q3 18 13 38h-59q0 -1 2 -5q0 -1 1 -4q0 -39 3 -79v-155h-66q-43 0 -66 6v-47q3 1 13 2q36 3 53 3h65l-10 -165q-3 -46 -9 -92
q-16 -106 -53 -184q-36 -72 -79 -124q-45 -49 -77 -59q31 -18 52 -34q18 18 56 66q36 49 44 64q39 67 54 104q15 39 33 118q9 36 17 122q6 85 10 184h162z" />
  </g>

</svg>
