<?xml version="1.0" standalone="no"?>
<!DOCTYPE svg PUBLIC "-//W3C//DTD SVG 1.1//EN" "http://www.w3.org/Graphics/SVG/1.1/DTD/svg11.dtd" >
<svg xmlns="http://www.w3.org/2000/svg" xmlns:xlink="http://www.w3.org/1999/xlink" version="1.1" viewBox="-10 0 1034 1024">
  <g transform="matrix(1 0 0 -1 0 820)">
   <path fill="currentColor"
d="M455 657l-10 -226q-4 -25 -18 -36q-18 -12 -51 -13q-18 0 -47 4q9 -19 13 -34q0 -3 6 -16q54 6 83 15q33 12 44 39q9 27 12 99l3 123q1 37 7 86q-45 -6 -63 -6l-314 1l-29 5v-47q7 3 36 4q9 1 85 2h29q-3 -40 -7 -66q-12 -69 -27 -103q-33 -79 -88 -134q-30 -25 -65 -39
q28 -13 52 -32q45 45 68 72q22 27 43 64q22 40 38 93q13 57 28 145h172zM153 244q3 -60 4 -83l-1 -262q-1 -10 -2 -26q0 -4 -2 -9h48q-4 49 -5 75v12h264q0 -33 -5 -70h48q-3 30 -5 60l1 276l4 47q-49 -4 -61 -5l-243 1q-19 3 -46 4q0 -9 1 -20zM195 -11v234h264v-234h-264z
M898 463l-6 -251q-1 -13 -5 -129q0 -96 -3 -121q-1 -3 -2 -8q-9 -49 -83 -50q-24 0 -56 4q12 -31 18 -53q19 0 80 10q16 3 36 11q28 15 40 51q3 15 6 40q1 33 3 89l8 270q1 49 3 84q3 78 7 94q-31 -1 -63 -5h-156v202q0 7 2 26q3 18 13 38h-59q0 -1 2 -5q0 -1 1 -4
q0 -27 3 -55v-202q-84 0 -114 2q-4 1 -7 1t-12 2v-46q3 1 12 2q37 3 54 3h67l-4 -111q0 -40 -4 -71q-3 -51 -11 -106q-6 -45 -31 -112q-22 -60 -52 -103q-51 -75 -100 -96q24 -12 54 -31q147 171 173 385q3 33 7 94l6 151h173z" />
  </g>

</svg>
