<?xml version="1.0" standalone="no"?>
<!DOCTYPE svg PUBLIC "-//W3C//DTD SVG 1.1//EN" "http://www.w3.org/Graphics/SVG/1.1/DTD/svg11.dtd" >
<svg xmlns="http://www.w3.org/2000/svg" xmlns:xlink="http://www.w3.org/1999/xlink" version="1.1" viewBox="-10 0 1034 1024">
  <g transform="matrix(1 0 0 -1 0 820)">
   <path fill="currentColor"
d="M278 429v-121q0 -28 -16 -36q-15 -7 -44 -8q-21 0 -52 5q10 -33 13 -48q18 0 50 5q57 7 70 24q16 21 17 65v125l114 36q0 24 2 50l-26 -13q-18 -7 -54 -20q-10 -4 -36 -13v118q96 0 110 -3q1 0 4 -2q3 0 5 -1v46q-3 0 -4 -1q-1 0 -3 -1q-3 0 -5 -1q-10 0 -47 -2h-58
q0 93 3 100q3 18 12 31h-60q0 -12 2 -19q3 -39 4 -84v-28h-103q-45 0 -62 5v-46q3 0 7 1q7 3 36 4l121 1v-130q-75 -24 -124 -37q-39 -9 -79 -12q13 -18 24 -52q3 0 44 17q24 6 62 20q36 13 73 25zM490 116h314q-13 -163 -32 -193q-18 -34 -79 -35q-27 0 -71 6
q10 -30 16 -54q10 0 83 9q60 6 85 49l16 45l10 68q9 91 15 118q1 12 4 28q-30 -1 -60 -5h-290q6 24 9 42q3 13 6 25q4 13 18 40q-27 0 -62 5q-1 -60 -12 -112l-308 1q-24 3 -39 4v-46q30 4 39 5h296q-33 -93 -117 -155q-118 -81 -227 -82q21 -30 32 -53q199 60 287 166
q36 45 57 100q4 12 10 24zM698 392l-56 30q-21 10 -44 21q15 46 23 77q6 27 13 63h152q0 -18 -9 -114q-1 -3 -6 -84q0 -27 -2 -44q0 -21 5 -35q9 -22 30 -34q25 -13 67 -14q34 0 60 14q18 10 33 39q10 24 26 70q-24 9 -51 24q0 -21 -1 -27q-1 -30 -11 -54q-13 -27 -55 -28
q-22 0 -42 7q-21 9 -22 44q0 52 4 81l15 150q3 18 8 46q-25 -1 -51 -5h-147q0 4 1 8q0 28 8 81q0 7 2 11q12 43 13 46q-27 1 -59 8q3 -33 3 -53q0 -39 -6 -101q-60 0 -122 5v-47q15 4 29 5l88 1q-12 -73 -31 -123q-3 3 -53 25q-16 9 -31 16q-10 -21 -24 -41q58 -19 92 -36
q-37 -72 -106 -118q-42 -27 -112 -40q24 -24 38 -46q49 24 77 40q22 15 40 30q58 48 98 117q60 -28 108 -66q3 12 17 32q1 6 6 10z" />
  </g>

</svg>
