<?xml version="1.0" standalone="no"?>
<!DOCTYPE svg PUBLIC "-//W3C//DTD SVG 1.1//EN" "http://www.w3.org/Graphics/SVG/1.1/DTD/svg11.dtd" >
<svg xmlns="http://www.w3.org/2000/svg" xmlns:xlink="http://www.w3.org/1999/xlink" version="1.1" viewBox="-10 0 1034 1024">
  <g transform="matrix(1 0 0 -1 0 820)">
   <path fill="currentColor"
d="M345 249q3 21 14 61q-25 0 -55 4q1 -24 2 -42q0 -42 -9 -109q-12 -78 -48 -126q-36 -45 -82 -76q-40 -25 -102 -42q27 -21 44 -43q99 66 134 100q72 73 92 201q4 36 10 72zM119 409l6 -53l-1 -223l-4 -25q-1 -3 -1 -7h51q-4 19 -5 36l-1 242h317l-3 -263q-1 -1 -1 -4
q-1 -3 -1 -7h49q0 6 -2 11q-1 9 -3 49l1 210l4 45q-30 -1 -59 -5l-304 1q-15 3 -43 4v-11zM210 708l-40 4q-10 1 -20 1q4 -90 5 -93q0 -72 -2 -97q-1 -15 -3 -30q28 3 58 5l255 -1l40 -4q-4 42 -5 59q0 117 2 128q0 16 3 33q-27 -1 -56 -5h-237zM192 534v138h268v-138h-268z
M347 52q48 -28 80 -50q31 -24 52 -44q3 6 8 11q7 9 13 18q-3 -1 9 10l-143 93q-4 -9 -9 -21q-6 -6 -10 -17zM871 491l-14 -466q-4 -45 -6 -53l-3 -10q-16 -36 -95 -36q-12 0 -67 5q12 -30 18 -53q13 0 26 3q126 12 148 52q7 15 11 35q0 3 10 225l6 164q1 55 3 85q0 21 2 39
q3 27 5 50q-27 -1 -53 -5h-149l3 95q1 34 3 61q3 40 15 80q-27 0 -57 4v-178l-2 -62l-99 1q-24 3 -38 4v-46q42 6 66 5h70q-6 -138 -12 -205q-16 -126 -46 -196q-75 -178 -167 -206q33 -18 51 -31q159 171 193 385q3 27 9 91l11 162z" />
  </g>

</svg>
