<?xml version="1.0" standalone="no"?>
<!DOCTYPE svg PUBLIC "-//W3C//DTD SVG 1.1//EN" "http://www.w3.org/Graphics/SVG/1.1/DTD/svg11.dtd" >
<svg xmlns="http://www.w3.org/2000/svg" xmlns:xlink="http://www.w3.org/1999/xlink" version="1.1" viewBox="-10 0 1034 1024">
  <g transform="matrix(1 0 0 -1 0 820)">
   <path fill="currentColor"
d="M328 -64l116 22l105 16q25 3 50 8q3 27 10 47q-36 -9 -68 -16l1 187q0 16 4 49l-35 -5q-24 -1 -119 -2l-196 1q-24 6 -44 6q1 -33 5 -66v-237q-39 -6 -93 -7q12 -25 21 -53q42 12 96 21zM194 -47v251h82v-238q-42 -6 -82 -13zM312 -26v230h77v-218zM503 204v-196
q-39 -6 -77 -14v210h77zM342 482h-189q-39 0 -65 5v-46q3 1 12 2q37 3 53 3h189v-87q0 -24 -11 -30q-15 -7 -46 -8q-16 0 -44 5q6 -13 11 -23q3 -9 9 -29q33 3 43 6q31 6 53 19q21 15 22 48v99q144 0 163 -2q15 0 21 -3v46q-6 -1 -12 -3q-12 0 -50 -2h-122v55
q105 79 157 134q7 7 15 16q-66 -4 -91 -5l-285 1l-18 2q-3 0 -12 2v-46q3 1 12 2q37 3 54 3h241q-51 -46 -115 -89q1 -24 5 -51v-24zM892 483l-7 -251q-6 -111 -6 -219q0 -18 -2 -33q-3 -51 -36 -64q-21 -7 -47 -8q-18 0 -52 4q9 -24 17 -52q66 1 112 21q42 19 46 102
q0 31 1 63l13 399q0 16 2 36l4 44q-18 -1 -22 -2l-41 -4h-136v182q0 7 2 26q3 19 12 38h-59q0 -1 2 -5q0 -1 2 -4q0 -27 3 -55v-182h-38q-45 0 -66 6v-47q3 1 12 2q37 3 54 3h38q-1 -15 -2 -78q-6 -153 -22 -246q-24 -124 -90 -223q-40 -55 -79 -74q24 -10 48 -25q3 0 8 -4
q33 40 70 99q78 132 94 301l11 250h154z" />
  </g>

</svg>
