<?xml version="1.0" standalone="no"?>
<!DOCTYPE svg PUBLIC "-//W3C//DTD SVG 1.1//EN" "http://www.w3.org/Graphics/SVG/1.1/DTD/svg11.dtd" >
<svg xmlns="http://www.w3.org/2000/svg" xmlns:xlink="http://www.w3.org/1999/xlink" version="1.1" viewBox="-10 0 1034 1024">
  <g transform="matrix(1 0 0 -1 0 820)">
   <path fill="currentColor"
d="M136 459q0 -27 -5 -61h48q-3 24 -5 48v212h353l-1 -222q-3 -21 -4 -35h48q-3 24 -5 50l1 202l4 47l-62 -7l-332 1q-30 6 -45 6q1 -31 5 -64v-177zM170 351q1 -31 5 -65l-1 -394q0 -12 -4 -28h47q-3 9 -4 30q-1 13 -1 27h262l-3 -28h46q0 6 -2 11q-1 10 -3 51l1 352
q0 19 4 44q-28 -1 -58 -5l-246 1q-19 3 -43 4zM212 91v90h262v-90h-262zM474 217h-262v93h262v-93zM212 -44v99h262v-99h-262zM472 585l-103 -5q-102 0 -129 2q-4 1 -7 1t-12 2v-46q6 3 31 3q15 1 68 2q111 0 131 -2q15 0 21 -3v46zM221 433q6 3 31 3q15 1 67 2
q111 0 131 -2q15 0 21 -3v46q-3 0 -8 -2q-15 0 -31 -2l-196 1q-6 0 -15 3v-46zM891 483q0 -51 -9 -250l-4 -130q0 6 -2 -27l-6 -96q-1 -30 -9 -42q-15 -21 -57 -22q-33 0 -58 9q4 -13 8 -30q1 -9 4 -23q66 0 90 9q52 15 59 75q7 103 12 237l7 197l11 134q-31 -1 -64 -5h-123
v185q0 6 2 25q3 21 12 38h-58q0 -1 2 -5q0 -1 1 -4q0 -27 3 -54v-185q-79 0 -108 2q-4 1 -7 1t-12 2v-46q3 1 12 2q37 3 53 3h62l-4 -111q-1 -42 -5 -72q-3 -51 -12 -98q-27 -147 -109 -252q-43 -52 -90 -71l56 -32q87 93 128 180q40 88 58 207q6 39 9 89l7 160h141z" />
  </g>

</svg>
