<?xml version="1.0" standalone="no"?>
<!DOCTYPE svg PUBLIC "-//W3C//DTD SVG 1.1//EN" "http://www.w3.org/Graphics/SVG/1.1/DTD/svg11.dtd" >
<svg xmlns="http://www.w3.org/2000/svg" xmlns:xlink="http://www.w3.org/1999/xlink" version="1.1" viewBox="-10 0 1010 1000">
   <path fill="currentColor"
d="M665 -8q100 15 115 20q1 3 -5 10q-21 28 -25 76q-6 64 -6 105h42q83 0 137 -12q-16 469 -32 587q5 62 -159 84q-4 -49 -45 -114q86 16 106 6q25 -7 28 -55q13 -174 20 -425h-99q5 418 -228 631q-31 -38 -95 -51q18 -14 51 -34q4 -3 6 -4q-64 -10 -147 -10h-139q0 29 8 63
h-89q0 -3 1 -11q9 -67 9 -118v-204q0 -95 -8 -151q47 5 82 6q35 2 81 2h73q103 0 177 -8q0 6 -2 22q-8 73 -8 117v119q0 40 8 105q1 12 2 18q140 -147 145 -492q-60 0 -106 8v-87q52 8 106 8v-39q1 -138 -4 -172zM75 40q65 8 171 8h149q104 0 155 -8q-8 56 -8 107v72
q0 60 8 121h-90q0 -3 1 -9q9 -73 9 -116v-102h-315v110q0 72 8 113h-88q7 -48 8 -113v-62q0 -74 -8 -121zM200 161q42 8 113 8q62 -1 120 -8v70q-55 -8 -120 -8q-34 0 -89 6q-15 1 -24 2v-70zM196 272q57 8 117 8q85 0 120 -8v70q-45 -8 -116 -8q-66 -2 -121 8v-70zM190 449
v63h252v-63h-252zM190 564v67h252v-67h-252zM442 683h-252v67h252v-67z" />
</svg>
