<?xml version="1.0" standalone="no"?>
<!DOCTYPE svg PUBLIC "-//W3C//DTD SVG 1.1//EN" "http://www.w3.org/Graphics/SVG/1.1/DTD/svg11.dtd" >
<svg xmlns="http://www.w3.org/2000/svg" xmlns:xlink="http://www.w3.org/1999/xlink" version="1.1" viewBox="-10 0 1010 1000">
   <path fill="currentColor"
d="M657 0q64 0 115 12q0 2 -3 7q-14 23 -17 53q-10 92 -10 151h38q70 0 137 -8q-8 73 -10 133q-16 395 -22 442q-10 79 -165 87q-5 -56 -41 -109q75 18 99 8q25 -7 30 -55q21 -249 21 -429h-89q5 456 -218 613q-38 -31 -103 -57q51 -13 135 -92q-297 17 -492 68l-24 -91
q30 0 71 -2v-181q0 -25 -4 -91q72 4 113 4h226q38 0 98 -4q-4 55 -4 87v151q15 0 37 -6l-2 38q84 -89 94 -435q-49 0 -69 1q-24 1 -40 5v-83q36 7 109 6q0 -75 -2 -121q-2 -52 -8 -102zM558 44v85q-165 59 -169 74v34q105 0 149 -6v81q-36 -7 -130 -6h-19v59q2 48 -22 62
q-17 15 -111 30q-3 -43 -26 -84q84 24 83 -21v-46h-99q-97 0 -135 8v-81q44 5 135 5h99v-63q0 -6 66 -33q36 -14 56 -23h-163q-114 0 -153 6v-81q63 8 155 8h105q101 -1 179 -8zM292 524v195q18 -3 63 -6v-189h-63zM177 524v203q17 -3 59 -6v-197h-59zM411 524v185
q27 -4 59 -4v-181h-59z" />
</svg>
