<?xml version="1.0" standalone="no"?>
<!DOCTYPE svg PUBLIC "-//W3C//DTD SVG 1.1//EN" "http://www.w3.org/Graphics/SVG/1.1/DTD/svg11.dtd" >
<svg xmlns="http://www.w3.org/2000/svg" xmlns:xlink="http://www.w3.org/1999/xlink" version="1.1" viewBox="-10 0 1010 1000">
   <path fill="currentColor"
d="M331 -15q93 1 98 9q1 4 -6 13q-21 30 -18 69h174q0 -50 -4 -89q89 1 94 9q0 3 -5 10q-17 29 -17 70h89q136 -1 202 -8v73q-57 -8 -204 -8h-87v50h47q94 0 125 -8q-6 27 -7 87v100q0 68 7 91q-33 -7 -113 -8h-246q-1 2 -4 6q-21 32 -33 45h321q125 0 196 -8v74
q-88 -7 -186 -8h-66q115 98 282 113q-42 31 -63 79q-64 -22 -147 -61q-12 164 -44 180q-45 33 -143 38q-1 -42 -35 -85q95 14 115 -6q27 -29 22 -105h-183q-50 165 -323 206q-13 -45 -64 -83q256 7 316 -123h-62q-74 0 -117 8v-52q-112 63 -155 83q-13 -31 -59 -73
q124 -23 258 -115h-88q-91 0 -154 8v-79q44 7 152 7h145q25 -27 38 -49h-89q-78 1 -109 8q7 -29 7 -111v-86q0 -61 -7 -81q39 8 111 8h47v-50h-131q-88 1 -137 10v-75q42 8 135 8h133q0 -30 -8 -91zM579 133h-176v50h176v-50zM264 238v48h472v-48h-472zM264 342v47h472v-47
h-472zM623 556h-242q-18 14 -52 42l-63 51q31 8 93 8h68q10 -40 10 -81q103 3 99 12q0 2 -7 9q-27 26 -31 60h105q70 -1 111 -8q-55 -47 -91 -93z" />
</svg>
