<?xml version="1.0" standalone="no"?>
<!DOCTYPE svg PUBLIC "-//W3C//DTD SVG 1.1//EN" "http://www.w3.org/Graphics/SVG/1.1/DTD/svg11.dtd" >
<svg xmlns="http://www.w3.org/2000/svg" xmlns:xlink="http://www.w3.org/1999/xlink" version="1.1" viewBox="-10 0 1034 1024">
  <g transform="matrix(1 0 0 -1 0 820)">
   <path fill="currentColor"
d="M93 48q153 45 287 175h253q42 -37 85 -67q78 -48 169 -70q30 -9 59 -17q7 15 12 22q6 9 24 28h-13q-88 0 -199 55q-45 22 -77 49l247 -1l26 -4v47q-19 -1 -40 -5l-512 -1q33 39 56 73l281 -1q9 0 50 -5q-4 54 -5 82q0 124 2 136q0 18 3 37q-34 -1 -69 -5h-60v76
q276 0 286 -3q3 0 8 -2v47q-18 -1 -35 -5l-259 -1v34q0 15 3 31q1 16 12 31h-59q4 -30 5 -62v-34h-215q0 64 3 67q3 15 12 27h-59q6 -60 6 -94h-238q-21 0 -47 3q-6 0 -17 3v-47q13 0 20 2q19 0 44 3h238v-76h-74q-9 0 -34 3q-15 0 -35 2q1 -30 5 -62l-1 -147q-3 -12 -4 -46
q18 1 36 3q24 3 79 3h69q-31 -42 -63 -73h-222q-21 0 -46 3q-6 0 -17 3v-47q31 3 38 4l209 1q-48 -42 -112 -81q-73 -39 -153 -50q18 -15 29 -31q4 -6 9 -13zM281 367v67h476v-67h-476zM281 470v70h476v-70h-476zM418 576v76h215v-76h-215zM315 108q-54 6 -63 6v-47
q30 4 59 5h126q-16 -39 -35 -63q-33 -42 -88 -70q-79 -39 -155 -40h-19q18 -24 30 -52q46 9 108 32q57 21 93 45q76 57 109 148h262q0 -30 -3 -68q-1 -42 -6 -56q-6 -30 -26 -39q-27 -9 -68 -10q-21 0 -57 9q13 -21 22 -59q19 0 36 2q16 1 38 6q70 15 88 50q6 18 11 39
l12 168l-71 -6h-230q1 9 2 16q7 36 9 41q3 15 24 31q-36 3 -63 13q-6 -57 -14 -101h-131z" />
  </g>

</svg>
