<?xml version="1.0" standalone="no"?>
<!DOCTYPE svg PUBLIC "-//W3C//DTD SVG 1.1//EN" "http://www.w3.org/Graphics/SVG/1.1/DTD/svg11.dtd" >
<svg xmlns="http://www.w3.org/2000/svg" xmlns:xlink="http://www.w3.org/1999/xlink" version="1.1" viewBox="-10 0 1034 1024">
  <g transform="matrix(1 0 0 -1 0 820)">
   <path fill="currentColor"
d="M266 273l-7 -212q-3 -39 -15 -47q-10 -9 -29 -9q-6 0 -36 5q1 -13 4 -29q1 -6 3 -15q37 3 56 8q27 9 37 23q7 15 12 55q0 30 2 60l4 119q0 27 7 83q-30 -1 -60 -5h-37q1 9 3 21q1 27 18 56q-9 1 -16 1q-16 0 -37 4l1 -41q0 -13 -3 -41l-74 4q-1 1 -4 1v-47q9 4 26 5l49 1
q-12 -132 -42 -217q-31 -75 -65 -108q24 -3 48 -15q39 78 61 152q9 37 16 71q12 75 17 117h61zM449 621q0 -18 -2 -38q-6 -75 -24 -95q-18 -18 -66 -19q-12 0 -29 4q9 -24 14 -46q81 12 106 34q22 21 30 85l6 73q3 21 5 43q-66 -4 -81 -5h-101q1 6 4 21l9 53q3 15 20 36
q-10 1 -21 1l-18 3q-9 0 -20 2q1 -15 2 -24q0 -19 -13 -92l-129 3q-3 1 -9 2v-46q28 3 59 5h73q-12 -42 -23 -70q-13 -24 -33 -46q-54 -54 -117 -73q15 -12 23 -20q9 -9 18 -20q24 18 54 43q27 22 44 42q40 46 71 144h148zM466 273l-13 -274l-2 -8q-9 -21 -37 -22
q-19 0 -37 4q15 -42 15 -44q33 3 55 12q24 9 33 33q6 21 10 98l15 242q-28 -1 -58 -5h-33q0 22 3 38q3 21 5 26q0 3 10 15q-24 3 -22 2q-7 0 -32 5q3 -28 3 -45q0 -16 -2 -41q-28 1 -57 3q-3 1 -11 2v-47q6 3 18 4q16 0 48 2q-9 -129 -31 -213q-27 -90 -75 -131q6 0 40 -9
q3 0 9 -5q43 79 62 154q18 75 28 204h56zM537 36q33 129 39 141q4 12 19 26q-30 7 -46 15l-6 -25q-7 -43 -13 -59q-9 -28 -16 -59q-6 -21 -13 -32q7 0 36 -7zM545 339q30 3 62 5l251 -1q15 0 47 -4l-3 34q-3 25 -3 34l1 273q1 22 5 45q-33 -1 -66 -5l-250 1q-15 3 -44 4
q1 -31 5 -65l-1 -280q-3 -7 -4 -34v-7zM584 551v133h120v-133h-120zM584 380v135h120v-135h-120zM739 551v133h125v-133h-125zM739 380v135h125v-135h-125zM654 182q0 7 4 32q3 18 17 37h-62q0 -7 3 -16q3 -22 3 -53l1 -228q3 -22 16 -35q19 -19 78 -20q79 0 107 31
q9 12 18 31q9 24 24 70q-27 6 -42 20q-10 -66 -22 -87q-15 -27 -72 -28q-54 0 -66 16q-6 10 -7 37v193zM794 173l-66 143q-3 -1 -7 -6q-10 -7 -24 -12q39 -69 71 -159q13 6 35 14q-4 10 -9 20zM896 208q-3 6 -7 19q-3 -1 -6 -4t-8 -4q-4 -3 -23 -8q57 -114 72 -177
q13 13 24 18q4 1 10 5z" />
  </g>

</svg>
