<?xml version="1.0" standalone="no"?>
<!DOCTYPE svg PUBLIC "-//W3C//DTD SVG 1.1//EN" "http://www.w3.org/Graphics/SVG/1.1/DTD/svg11.dtd" >
<svg xmlns="http://www.w3.org/2000/svg" xmlns:xlink="http://www.w3.org/1999/xlink" version="1.1" viewBox="-10 0 1010 1000">
   <path fill="currentColor"
d="M308 -2q122 21 130 36q1 4 -10 13q-26 20 -43 47q-24 33 -42 69h284q165 -1 256 -6q-12 113 -12 125q-5 38 -12 192q-5 99 -8 147q-7 190 -38 217q-30 49 -212 59q-5 -64 -47 -119q146 29 182 -20q26 5 44 -518h-474q-127 202 -159 239q-52 -33 -103 -42
q193 -173 264 -439zM377 363q134 119 224 229l-89 61q-87 -122 -204 -228z" />
</svg>
