<?xml version="1.0" standalone="no"?>
<!DOCTYPE svg PUBLIC "-//W3C//DTD SVG 1.1//EN" "http://www.w3.org/Graphics/SVG/1.1/DTD/svg11.dtd" >
<svg xmlns="http://www.w3.org/2000/svg" xmlns:xlink="http://www.w3.org/1999/xlink" version="1.1" viewBox="-10 0 1010 1000">
   <path fill="currentColor"
d="M286 4q105 30 101 38q0 2 -3 4q-29 19 -61 109h407q85 0 133 -8q-10 129 -24 574q-1 87 -40 116q-36 33 -158 48q0 -47 -34 -93q91 6 119 -8q31 -11 34 -59q11 -142 16 -502h-478q-74 156 -145 267q-42 -33 -90 -41q172 -199 223 -445z" />
</svg>
