<?xml version="1.0" standalone="no"?>
<!DOCTYPE svg PUBLIC "-//W3C//DTD SVG 1.1//EN" "http://www.w3.org/Graphics/SVG/1.1/DTD/svg11.dtd" >
<svg xmlns="http://www.w3.org/2000/svg" xmlns:xlink="http://www.w3.org/1999/xlink" version="1.1" viewBox="-10 0 1010 1000">
   <path fill="currentColor"
d="M313 -10l18 6q103 36 98 44q0 6 -13 14q-40 24 -71 71h391q57 0 123 -10q-5 39 -14 210q-10 219 -24 281q-16 53 -144 71q-6 -51 -40 -95q54 2 75 -4q22 -5 30 -22q10 -9 20 -237q4 -76 6 -118h-472q-54 71 -82 113q4 -2 22 -1q68 7 173 7h57q57 0 163 -6q-2 24 -3 55
q-1 15 -1 35v51v61q0 48 4 84q-38 -4 -89 -4h-254v150q0 57 73 56h369q69 1 94 -27q25 -24 27 -102q42 33 99 50q-27 101 -58 125q-36 33 -118 33h-437q-79 0 -110 -26q-15 -12 -20 -32q-6 -17 -5 -55v-436q-46 49 -79 97q-34 -41 -66 -53q-10 -3 -9 -9q156 -117 267 -377z
M286 389v131h262v-131h-262z" />
</svg>
