<?xml version="1.0" standalone="no"?>
<!DOCTYPE svg PUBLIC "-//W3C//DTD SVG 1.1//EN" "http://www.w3.org/Graphics/SVG/1.1/DTD/svg11.dtd" >
<svg xmlns="http://www.w3.org/2000/svg" xmlns:xlink="http://www.w3.org/1999/xlink" version="1.1" viewBox="-10 0 1034 1024">
  <g transform="matrix(1 0 0 -1 0 820)">
   <path fill="currentColor"
d="M460 545q-12 -57 -27 -104q-18 -48 -46 -106q-57 37 -113 79l-15 -24q-6 -9 -12 -19q63 -24 122 -72q-36 -57 -67 -97q-30 -34 -76 -78q-60 -57 -124 -77q34 -22 48 -36q0 3 14 11q87 67 139 123q51 57 98 131q33 -21 109 -81q18 -13 36 -27q-15 -24 -36 -50
q-21 -27 -45 -55q-55 -63 -96 -95q-93 -75 -166 -96q28 -19 47 -38q28 18 67 45q36 25 58 43q120 100 201 219q70 -54 111 -108l34 40q-15 16 -43 39q-19 15 -56 46q-7 7 -24 20q79 151 116 367h157l-24 -336q0 -6 -9 -128l-10 -106q-1 -1 -1 -5q-9 -58 -58 -72
q-30 -9 -77 -9q-18 0 -61 6q12 -24 18 -53q150 6 192 55q12 16 19 39q6 27 9 72q39 531 43 547q0 15 3 32l-67 -6h-535q6 10 20 31q48 81 52 83q10 13 31 27q-30 13 -59 31q-13 -42 -59 -119q-45 -72 -92 -129q-75 -90 -137 -118q22 -10 49 -32q51 51 89 92q36 40 82 98h171
zM420 312q46 90 83 233h169q-6 -42 -12 -76q-6 -31 -16 -64q-16 -63 -35 -112q-18 -45 -43 -92q-129 96 -146 111v0z" />
  </g>

</svg>
