<?xml version="1.0" standalone="no"?>
<!DOCTYPE svg PUBLIC "-//W3C//DTD SVG 1.1//EN" "http://www.w3.org/Graphics/SVG/1.1/DTD/svg11.dtd" >
<svg xmlns="http://www.w3.org/2000/svg" xmlns:xlink="http://www.w3.org/1999/xlink" version="1.1" viewBox="-10 0 1034 1024">
  <g transform="matrix(1 0 0 -1 0 820)">
   <path fill="currentColor"
d="M134 409q81 91 97 112q19 24 48 68h529l-4 -194l-5 -122q0 -60 -4 -81v-2q-6 -28 -33 -39q-33 -9 -71 -9q-27 0 -64 6q13 -19 24 -52q139 1 167 43q12 18 16 39q3 30 4 92l6 238q1 57 4 72q0 33 4 49q-30 -1 -62 -5h-488q9 15 19 34q30 54 38 62q6 9 34 35q-34 9 -65 22
q-3 -12 -7 -22q-9 -33 -54 -112q-61 -102 -126 -167q-52 -48 -91 -64q33 -13 58 -28q12 13 26 25zM232 464q1 -30 5 -63l1 -427q3 -27 17 -43q15 -21 51 -33q39 -10 112 -11l344 6q75 6 113 29q30 21 48 60l29 70q-22 9 -52 32q-1 -60 -18 -95q-18 -36 -58 -49
q-21 -6 -55 -9l-118 -6l-232 -1q-66 0 -106 12q-12 4 -21 13q-16 16 -17 61v181l315 -1l42 -4q-4 45 -5 66l1 168l4 44q-55 -4 -77 -5l-287 1q-15 3 -36 4zM275 226v198h313v-198h-313z" />
  </g>

</svg>
