<?xml version="1.0" standalone="no"?>
<!DOCTYPE svg PUBLIC "-//W3C//DTD SVG 1.1//EN" "http://www.w3.org/Graphics/SVG/1.1/DTD/svg11.dtd" >
<svg xmlns="http://www.w3.org/2000/svg" xmlns:xlink="http://www.w3.org/1999/xlink" version="1.1" viewBox="-10 0 1010 1000">
   <path fill="currentColor"
d="M315 -2q109 26 116 34q-28 30 -76 112q-9 17 -14 25h365q161 0 191 -6q-11 58 -38 357q-15 156 -24 252q11 111 -218 125q-8 -65 -34 -107q71 2 92 1q28 -1 42 -7q29 -9 35 -59q29 -251 46 -481h-108q-27 169 -81 300q19 13 52 36q40 29 55 39l-65 66q-28 -31 -78 -72
q-99 169 -361 262q-17 -32 -81 -73q256 -49 379 -236q-23 -18 -101 -69l-18 -12q-100 128 -240 200q-27 -39 -74 -66q162 -50 252 -176q-29 -23 -97 -50l56 -59q20 14 55 35q15 10 22 14q31 -64 46 -139h-119q-123 158 -169 195q-34 -38 -75 -58q188 -135 267 -383zM609 244
h-119q-23 100 -61 179q56 39 113 75q51 -136 67 -254z" />
</svg>
