<?xml version="1.0" standalone="no"?>
<!DOCTYPE svg PUBLIC "-//W3C//DTD SVG 1.1//EN" "http://www.w3.org/Graphics/SVG/1.1/DTD/svg11.dtd" >
<svg xmlns="http://www.w3.org/2000/svg" xmlns:xlink="http://www.w3.org/1999/xlink" version="1.1" viewBox="-10 0 1034 1024">
  <g transform="matrix(1 0 0 -1 0 820)">
   <path fill="currentColor"
d="M356 494q112 -97 119 -107q16 25 29 38q-10 7 -19 15l-69 55l-101 82l153 -1q15 0 36 -5v47q-15 -4 -34 -5l-172 -1q1 12 4 24q9 55 15 75q6 19 19 39q-30 0 -60 6q-1 -45 -6 -74q-3 -28 -12 -70h-101q-46 0 -65 6v-47q1 0 3 1q-3 0 9 1q21 3 53 4h89q-24 -60 -78 -120
q-39 -42 -60 -57q-19 -15 -53 -28q24 -18 45 -36q21 21 24 23q46 43 70 69q18 21 42 54q16 24 44 72q4 -1 12 -8q6 -3 64 -52zM448 229q48 0 63 -6v47q-3 0 -60 -5l-349 1q-19 1 -28 4v-47q6 3 13 3q27 3 53 3h72q-6 -28 -16 -60q-10 -36 -30 -89l60 6h186q-3 -13 -4 -28
l-7 -78q-9 -60 -25 -75q-21 -13 -58 -14q-33 0 -75 6q10 -28 16 -50q55 1 77 5q27 3 46 11q27 12 39 36q10 25 17 88q10 111 14 124q0 9 3 16q-63 -6 -87 -6h-147q15 55 34 108h193zM193 357q24 6 44 6l160 -1q18 -1 36 -5v47q-10 -1 -22 -4h-189q-18 1 -29 4v-47zM863 585
l-4 -190l-1 -179q-1 -48 -11 -64q-12 -19 -64 -20q-13 0 -38 3q12 -30 16 -50q51 3 72 9q45 12 57 57q4 22 5 53l4 355q1 33 5 67q-30 -1 -60 -5h-217q12 33 43 93q7 18 33 38q-39 9 -64 20q-27 -126 -105 -237q-36 -51 -64 -66q27 -10 52 -25q15 21 31 46q54 87 59 95h251z
M539 442q1 -30 5 -62l1 -446q6 -36 35 -55q15 -9 51 -14q42 -3 156 -3q55 3 87 10q48 15 70 57q12 24 26 77q-30 12 -51 27q3 -24 3 -31q0 -22 -9 -46q-12 -28 -39 -43q-39 -15 -126 -15q-88 0 -119 5q-48 9 -48 71v225q141 0 156 -2l30 -4q-4 49 -5 77l1 132q0 19 4 40
q-27 -1 -53 -5l-132 1q-15 3 -43 4zM581 235v166h144v-166h-144z" />
  </g>

</svg>
