<?xml version="1.0" standalone="no"?>
<!DOCTYPE svg PUBLIC "-//W3C//DTD SVG 1.1//EN" "http://www.w3.org/Graphics/SVG/1.1/DTD/svg11.dtd" >
<svg xmlns="http://www.w3.org/2000/svg" xmlns:xlink="http://www.w3.org/1999/xlink" version="1.1" viewBox="-10 0 1010 1000">
   <path fill="currentColor"
d="M202 32q119 0 119 12l-1 2q-22 28 -22 85v276q322 -144 446 -264q82 89 75 103q-1 2 -8 1q-38 0 -89 31q-149 96 -424 210v207q-3 47 33 56q29 12 179 11q182 2 224 -26q51 -22 56 -124q49 58 103 65q-44 122 -98 140q-44 26 -267 25q-228 3 -270 -22q-29 -12 -39 -39
q-10 -23 -9 -84v-554q0 -73 -8 -111z" />
</svg>
