<?xml version="1.0" standalone="no"?>
<!DOCTYPE svg PUBLIC "-//W3C//DTD SVG 1.1//EN" "http://www.w3.org/Graphics/SVG/1.1/DTD/svg11.dtd" >
<svg xmlns="http://www.w3.org/2000/svg" xmlns:xlink="http://www.w3.org/1999/xlink" version="1.1" viewBox="-10 0 1034 1024">
  <g transform="matrix(1 0 0 -1 0 820)">
   <path fill="currentColor"
d="M133 706q4 -109 5 -115l-1 -657q-1 -4 -2 -15q0 -18 -2 -36h11q-3 0 9 1q60 3 90 4l633 -1q15 0 38 -4v46q-31 -1 -64 -5h-673v741h648q21 0 49 -3l13 -2v46q-12 -3 -25 -3q-16 0 -39 -2l-644 1q-15 3 -46 4v0z" />
  </g>

</svg>
