<?xml version="1.0" standalone="no"?>
<!DOCTYPE svg PUBLIC "-//W3C//DTD SVG 1.1//EN" "http://www.w3.org/Graphics/SVG/1.1/DTD/svg11.dtd" >
<svg xmlns="http://www.w3.org/2000/svg" xmlns:xlink="http://www.w3.org/1999/xlink" version="1.1" viewBox="-10 0 1010 1000">
   <path fill="currentColor"
d="M613 4q94 -2 107 12q0 2 -4 9q-28 40 -28 116v149q50 -21 163 -123q79 72 74 85q-1 1 -5 0q-27 -4 -63 18q-74 48 -169 93v215q-1 25 14 31q12 6 64 6q46 1 61 -20q16 -16 20 -81q41 38 84 46q-20 90 -46 106q-20 21 -113 21q-106 2 -129 -12q-28 -11 -26 -67v-441
q0 -124 -4 -163zM137 28q88 8 188 8q126 -1 179 -4q-8 45 -8 99v115q0 72 6 133q-37 -10 -194 -10q-131 -4 -173 8q10 -65 10 -137v-79q0 -58 -8 -133zM425 88h-209v93h209v-93zM425 233h-209v81h209v-81zM562 427v81q-43 -7 -77 -8q-34 -2 -114 -2v92q63 1 97 -1
q32 -1 56 -7v77q-46 -12 -153 -12v127q81 20 266 18q189 -3 325 -26q-3 5 -9 13q-37 48 -42 90q-53 0 -144 -1q-238 0 -325 -8q-164 -8 -269 -155q-36 123 -66 186q-33 -25 -75 -35q95 -155 97 -322q89 5 95 18q1 2 -3 6q-21 20 -25 71q28 58 102 119v-250h-119q-63 0 -81 1
q-24 1 -44 5v-75h4q62 8 121 6h186h97q30 0 45 -1q28 -1 55 -7z" />
</svg>
