<?xml version="1.0" standalone="no"?>
<!DOCTYPE svg PUBLIC "-//W3C//DTD SVG 1.1//EN" "http://www.w3.org/Graphics/SVG/1.1/DTD/svg11.dtd" >
<svg xmlns="http://www.w3.org/2000/svg" xmlns:xlink="http://www.w3.org/1999/xlink" version="1.1" viewBox="-10 0 1010 1000">
   <path fill="currentColor"
d="M895 44v79q-13 0 -76 -2q-73 -2 -91 -2h-528v139v528h566q130 0 167 -4v80q-54 -3 -171 -4h-445q-82 0 -123 1q-47 1 -79 3q5 -72 6 -193v-427q0 -138 -6 -200q62 5 206 6h403q100 -1 171 -4zM395 141q85 26 85 38q-3 6 -16 15q-11 6 -14 11t-7 12q-8 15 -14 25h265
q70 -1 129 -4v72q-60 -4 -131 -4h-81q2 59 -10 129h151q80 0 133 -4v71q-62 -4 -133 -4h-163q-1 6 -7 17q-3 7 -5 11q245 117 300 151l-71 77q-134 -115 -260 -164q-84 109 -252 182q-20 -39 -66 -77q100 -22 165 -60q69 -46 115 -137h-131q-62 0 -85 1q-28 1 -44 3v-69
q18 1 47 2h33h49h149q12 -67 10 -129h-141q-43 58 -64 83q-26 -28 -79 -31q81 -80 143 -217z" />
</svg>
