<?xml version="1.0" standalone="no"?>
<!DOCTYPE svg PUBLIC "-//W3C//DTD SVG 1.1//EN" "http://www.w3.org/Graphics/SVG/1.1/DTD/svg11.dtd" >
<svg xmlns="http://www.w3.org/2000/svg" xmlns:xlink="http://www.w3.org/1999/xlink" version="1.1" viewBox="-10 0 1034 1024">
  <g transform="matrix(1 0 0 -1 0 820)">
   <path fill="currentColor"
d="M111 709q1 -30 5 -63l-1 -710q-3 -15 -4 -47q30 3 62 5l735 -1q16 0 28 -4v46q-19 -4 -65 -5h-716v738h687q43 0 66 -5v46q-21 -4 -66 -5l-688 1q-15 3 -43 4zM550 470l-6 -53q-1 -30 -15 -116h-212q-33 0 -61 5v-46q34 4 61 5h200q-31 -87 -124 -158q-76 -57 -158 -64
q25 -24 40 -49q172 75 273 227q76 -49 153 -107q88 -72 136 -126q18 24 34 36q-90 78 -102 87q-108 82 -148 109l-60 40q0 3 1 5h260q40 0 65 -5v46q-19 -4 -65 -5h-254l21 169h175q45 0 66 -5v46q-19 -4 -66 -5h-368q15 21 27 39q9 15 18 24q9 12 36 30q-15 6 -28 12
q-12 6 -34 19q-33 -81 -85 -151q-57 -69 -118 -100q33 -12 52 -29q25 24 47 48q24 27 61 72h178z" />
  </g>

</svg>
