<?xml version="1.0" standalone="no"?>
<!DOCTYPE svg PUBLIC "-//W3C//DTD SVG 1.1//EN" "http://www.w3.org/Graphics/SVG/1.1/DTD/svg11.dtd" >
<svg xmlns="http://www.w3.org/2000/svg" xmlns:xlink="http://www.w3.org/1999/xlink" version="1.1" viewBox="-10 0 1010 1000">
   <path fill="currentColor"
d="M911 36v83q-24 -6 -189 -6h-129q12 36 20 72h56q125 0 170 -8q-8 14 -8 103q0 79 6 97q-29 -8 -176 -8h-304q-13 160 -93 328q-45 -30 -77 -34v129h541q148 0 188 -8h3v87q-1 0 -4 -1q-43 -7 -185 -7h-420q-204 -1 -209 10v-2q10 -39 10 -254v-355q0 -199 -10 -226
q42 6 276 6h341q175 0 193 -6zM187 113v524q61 -51 91 -179q28 -129 12 -279q50 8 194 8h56q-9 -36 -28 -74h-325zM359 242v72h405v-72h-405zM357 425q24 3 175 4h155q139 0 186 -8q-8 25 -8 141v145q6 60 -115 65q-6 -41 -24 -77q41 14 66 -2q5 -4 7 -18q1 -11 1 -54h-100
q0 96 8 114h-71q8 -28 8 -114h-82q0 92 6 116h-73q12 -24 12 -116h-83q0 110 6 131h-80q10 -27 10 -139v-65q0 -101 -4 -123zM508 485h-83v83h83v-83zM645 485h-82v83h82v-83zM700 485v83h98v-83h-98z" />
</svg>
