<?xml version="1.0" standalone="no"?>
<!DOCTYPE svg PUBLIC "-//W3C//DTD SVG 1.1//EN" "http://www.w3.org/Graphics/SVG/1.1/DTD/svg11.dtd" >
<svg xmlns="http://www.w3.org/2000/svg" xmlns:xlink="http://www.w3.org/1999/xlink" version="1.1" viewBox="-10 0 1034 1024">
  <g transform="matrix(1 0 0 -1 0 820)">
   <path fill="currentColor"
d="M246 279q0 -36 -7 -75h51q-6 39 -6 75v303q6 6 10 12q4 9 8 13q6 7 8 13q13 24 29 46q4 9 28 39q10 12 31 23q-33 15 -56 31q-39 -99 -129 -206q-84 -97 -151 -124q21 -9 48 -34q30 27 58 55l78 81v-252zM542 341q0 -28 14 -51q12 -21 44 -31q42 -12 114 -12q75 0 116 6
q57 9 83 54q4 9 10 21l15 52q-27 13 -49 29q-1 -63 -13 -85q-16 -25 -69 -33q-45 -6 -89 -6q-15 0 -59 4q-46 3 -62 15q-15 15 -15 51v135q22 12 46 22l132 67q15 7 25 14q33 18 42 21q16 7 46 14q-27 24 -44 48q-96 -78 -247 -142v141q0 28 13 79h-58q4 -33 5 -79v-158
q-90 -39 -186 -54q21 -21 31 -41l71 21q34 10 84 29v-131zM484 236q1 -36 5 -74v-44h-344q-25 0 -50 3q-3 0 -16 3v-47l66 6h344v-171q0 -31 -5 -66h52q0 4 -1 8q-4 49 -5 93v136l370 -1q25 -1 52 -5v47q-15 -3 -18 -3q-24 -1 -52 -3h-352q0 57 2 65q0 9 12 53h-60z" />
  </g>

</svg>
