<?xml version="1.0" standalone="no"?>
<!DOCTYPE svg PUBLIC "-//W3C//DTD SVG 1.1//EN" "http://www.w3.org/Graphics/SVG/1.1/DTD/svg11.dtd" >
<svg xmlns="http://www.w3.org/2000/svg" xmlns:xlink="http://www.w3.org/1999/xlink" version="1.1" viewBox="-10 0 1010 1000">
   <path fill="currentColor"
d="M304 -2q95 43 97 60q-2 5 -12 11q-16 10 -28 23q-16 16 -39 47l-9 12v205q1 82 8 164h-97q6 -53 6 -166v-106q-61 77 -109 125l-73 -61q159 -125 256 -314zM619 20q1 2 -3 9q-10 21 -13 45q-7 71 -4 129q150 -84 201 -153q86 80 83 91q-3 5 -19 10q-20 7 -35 14
q-16 8 -74 39q-105 55 -154 80v93q-5 36 28 48q27 10 88 8q56 -2 81 -14q24 -11 34 -85q2 -14 3 -20q51 45 94 49q-1 4 -4 14q-20 95 -68 115q-40 19 -126 21q-96 1 -150 -15q-65 -19 -63 -85v-91q-88 40 -131 53q-14 -41 -54 -79q74 -11 183 -54q1 -55 0 -117
q-1 -67 -4 -121q99 4 107 16zM448 504q96 1 108 14q1 1 -2 8q-9 19 -10 38q-2 25 -2 46h222q123 -3 176 -8v91q-4 0 -13 -1q-133 -7 -157 -7h-228v46q2 103 8 172h-100q4 -55 6 -172v-46h-220q-95 2 -171 8v-91q75 6 167 8h224q0 -34 -1 -54q-2 -23 -7 -52z" />
</svg>
