<?xml version="1.0" standalone="no"?>
<!DOCTYPE svg PUBLIC "-//W3C//DTD SVG 1.1//EN" "http://www.w3.org/Graphics/SVG/1.1/DTD/svg11.dtd" >
<svg xmlns="http://www.w3.org/2000/svg" xmlns:xlink="http://www.w3.org/1999/xlink" version="1.1" viewBox="-10 0 1034 1024">
  <g transform="matrix(1 0 0 -1 0 820)">
   <path fill="currentColor"
d="M173 489l-111 3q-3 1 -19 3v-47q63 6 86 6h44v-532q0 -30 -5 -71h49q-4 46 -5 71v532q75 0 89 -2q13 -1 29 -4v47q-21 -1 -44 -5l-74 -1v192q0 9 2 27q3 22 11 47h-57q1 -36 5 -72v-194zM602 529h184l-28 -426q-1 -6 -2 -14q-4 -67 -12 -111q-6 -19 -17 -28
q-25 -15 -82 -15q-25 0 -60 8q15 -24 21 -55q81 3 119 16q36 12 50 41q6 16 11 40q3 33 8 100l8 117l15 211l8 104q1 27 7 54q-16 -1 -32 -3q-21 -3 -31 -3h-167q4 120 8 129q3 36 17 59q-36 3 -66 9q6 -63 6 -94l-1 -39q0 -24 -3 -64l-166 1l-38 5v-47q39 4 66 5h138
l-4 -72q-1 -48 -8 -94q-15 -115 -42 -180q-48 -115 -121 -194q-66 -67 -123 -83q22 -12 50 -34q198 144 249 356q24 105 34 247q1 27 4 54zM289 165q27 -12 48 -24q28 49 59 111q7 15 15 31q9 18 21 39q6 12 26 24q-28 10 -60 27q-21 -73 -47 -123q-22 -43 -62 -85zM839 322
q36 -49 59 -87q18 -31 41 -90q19 15 39 28q-46 88 -102 175q-9 -9 -22 -17q-6 -3 -15 -9v0z" />
  </g>

</svg>
