<?xml version="1.0" standalone="no"?>
<!DOCTYPE svg PUBLIC "-//W3C//DTD SVG 1.1//EN" "http://www.w3.org/Graphics/SVG/1.1/DTD/svg11.dtd" >
<svg xmlns="http://www.w3.org/2000/svg" xmlns:xlink="http://www.w3.org/1999/xlink" version="1.1" viewBox="-10 0 1010 1000">
   <path fill="currentColor"
d="M310 -6q4 1 13 4q103 27 96 38q-2 5 -17 16q-18 14 -23 22q-13 21 -28 51l-10 20h342q89 0 160 -3q14 -1 18 -1v84q-46 -4 -178 -4h-125v244h188q71 0 107 -1q42 -1 70 -3v83q-86 -4 -175 -4h-190v173q0 100 5 192h-99q5 -63 6 -192v-171h-230q-81 0 -169 4v-83
q30 2 68 3q18 1 42 1h61h228v-246h-158q-8 11 -36 54q-54 87 -86 130q-30 -29 -93 -38q122 -146 213 -373z" />
</svg>
