<?xml version="1.0" standalone="no"?>
<!DOCTYPE svg PUBLIC "-//W3C//DTD SVG 1.1//EN" "http://www.w3.org/Graphics/SVG/1.1/DTD/svg11.dtd" >
<svg xmlns="http://www.w3.org/2000/svg" xmlns:xlink="http://www.w3.org/1999/xlink" version="1.1" viewBox="-10 0 1010 1000">
   <path fill="currentColor"
d="M452 -2q108 -2 117 10q0 6 -6 14q-18 28 -17 84h160q75 0 191 -6v83q-119 -6 -187 -6h-168v89h158q146 -1 207 -8q-24 57 -60 147q-9 24 -14 36l-105 -16l46 -87h-480q-21 0 -96 3q-63 2 -95 3v-84q73 6 205 6h152v-89h-164q-135 0 -173 6v-87q101 10 177 10h160
q0 -81 -8 -108zM514 356q117 6 109 25q0 1 -2 4q-14 20 -22 76q-2 14 -8 60q-9 58 -12 83h149q84 0 181 -5q14 -1 20 -1v85q-8 0 -30 -2q-109 -6 -169 -6h-172q-84 165 -415 222q-4 -5 -10 -14q-22 -39 -79 -77q292 4 414 -131h-198q-95 0 -197 4v-81q16 1 52 2q95 4 141 4
h42q-82 -60 -151 -98l59 -55q103 55 165 103l-46 50h165q25 -161 14 -248zM627 693q145 55 280 127l-78 77q-139 -97 -258 -143zM288 342q80 38 174 101l-59 57q-94 -70 -167 -109z" />
</svg>
