<?xml version="1.0" standalone="no"?>
<!DOCTYPE svg PUBLIC "-//W3C//DTD SVG 1.1//EN" "http://www.w3.org/Graphics/SVG/1.1/DTD/svg11.dtd" >
<svg xmlns="http://www.w3.org/2000/svg" xmlns:xlink="http://www.w3.org/1999/xlink" version="1.1" viewBox="-10 0 1034 1024">
  <g transform="matrix(1 0 0 -1 0 820)">
   <path fill="currentColor"
d="M479 110q-57 -96 -181 -157q-127 -58 -230 -61q22 -24 35 -52q87 21 166 54q87 34 157 93q66 57 104 123l382 -1l42 -4v46q-45 -4 -70 -5h-344q10 37 18 71q27 198 28 201q1 10 10 25q-27 1 -65 12q3 -39 4 -69l-11 -109q-7 -67 -30 -131h-351q-27 0 -51 3q3 0 -15 2v-46
l66 5h336zM500 525l-352 1q-4 1 -9 1q-12 1 -26 3v-46q22 4 66 5h688q-24 -46 -45 -77q-18 -27 -41 -57q18 -4 28 -8l16 -8q30 48 53 87q22 39 57 104q-60 -4 -68 -5h-326v100l318 -3q6 0 11 -2v46q-39 -4 -70 -5h-259q0 45 3 68q3 21 12 37h-61q3 -12 4 -31l1 -74h-257
q-34 0 -65 5v-46q30 4 56 5h266v-100zM164 301q94 -45 199 -115q9 21 24 38q-51 33 -138 81q-28 15 -58 33q-1 -3 -27 -37zM250 425q60 -27 98 -50l37 -24q12 -6 19 -13q9 -7 20 -15q6 16 24 40q-33 22 -72 45l-103 55q-9 -18 -23 -38zM525 22q48 -18 127 -52
q156 -78 174 -89l61 -37q12 25 26 41l-160 83l-197 91q-6 -7 -8 -12q-9 -15 -23 -25v0z" />
  </g>

</svg>
