<?xml version="1.0" standalone="no"?>
<!DOCTYPE svg PUBLIC "-//W3C//DTD SVG 1.1//EN" "http://www.w3.org/Graphics/SVG/1.1/DTD/svg11.dtd" >
<svg xmlns="http://www.w3.org/2000/svg" xmlns:xlink="http://www.w3.org/1999/xlink" version="1.1" viewBox="-10 0 1034 1024">
  <g transform="matrix(1 0 0 -1 0 820)">
   <path fill="currentColor"
d="M194 316q1 -30 5 -60l-1 -389q-3 -19 -4 -36h48q-4 60 -5 90v6h535q0 -37 -5 -88q-1 -1 -1 -4h51q-4 31 -5 71l1 368l4 42q-30 -1 -59 -5h-241v230h342q45 0 66 -5v46q-16 -4 -66 -5h-342q0 153 3 162q1 15 10 33h-58q1 -33 5 -69v-392l-241 1q-15 3 -42 4zM237 -37v312
h535v-312h-535z" />
  </g>

</svg>
