<?xml version="1.0" standalone="no"?>
<!DOCTYPE svg PUBLIC "-//W3C//DTD SVG 1.1//EN" "http://www.w3.org/Graphics/SVG/1.1/DTD/svg11.dtd" >
<svg xmlns="http://www.w3.org/2000/svg" xmlns:xlink="http://www.w3.org/1999/xlink" version="1.1" viewBox="-10 0 1034 1024">
  <g transform="matrix(1 0 0 -1 0 820)">
   <path fill="currentColor"
d="M610 100q33 -36 43 -50q10 -13 33 -52q12 15 35 40q-18 24 -45 51l-30 31l-97 101q75 90 101 116q9 12 24 22q7 6 19 12q-39 22 -50 33l-3 3q-21 -37 -46 -73q-27 -37 -71 -89q-36 36 -67 61l-58 49q-21 19 -42 37q-15 -19 -32 -36q79 -51 173 -135q-48 -57 -122 -118
q-43 -33 -104 -54q22 -15 46 -36q123 90 206 181q55 -55 76 -80zM148 -167h48q-4 15 -6 63h624q-1 -40 -5 -57h48q-4 27 -5 57l1 553l4 48q-63 -6 -82 -6h-270v135h306q45 0 65 -5v46q-18 -4 -65 -5h-306q0 72 3 79q1 16 11 33h-57q4 -25 5 -67v-216l-265 1q-30 4 -54 5
q1 -33 5 -66l-1 -566q-3 -15 -3 -26q-1 -3 -1 -6zM814 -68h-624v524h624v-524z" />
  </g>

</svg>
