<?xml version="1.0" standalone="no"?>
<!DOCTYPE svg PUBLIC "-//W3C//DTD SVG 1.1//EN" "http://www.w3.org/Graphics/SVG/1.1/DTD/svg11.dtd" >
<svg xmlns="http://www.w3.org/2000/svg" xmlns:xlink="http://www.w3.org/1999/xlink" version="1.1" viewBox="-10 0 1010 1000">
   <path fill="currentColor"
d="M810 22q7 12 18 33q36 64 27 64q-3 2 -11 1q-26 -5 -68 -1q-376 33 -528 28v107h524q105 0 141 -6v82q-51 -7 -145 -8h-518q7 344 -123 553q-46 -33 -101 -37q88 -87 118 -219q16 -66 21 -156q6 -88 2 -223q-3 -135 -12 -166q46 8 125 7q80 0 183 -8q248 -21 347 -51z
M329 413q49 6 153 6h153q80 -1 149 -6q-11 69 -18 147q-3 25 -4 34q-8 54 -41 69q-29 17 -136 24q2 -51 -31 -95q71 17 96 12q26 -4 33 -36q4 -20 6 -52q2 -17 3 -29h-277v228q-2 56 20 66q19 14 111 13h142q86 1 112 -24q26 -18 31 -99q39 44 96 62q-31 90 -70 113
q-33 25 -141 23h-190q-141 2 -163 -17q-31 -13 -28 -98v-198q0 -113 -6 -143z" />
</svg>
