<?xml version="1.0" standalone="no"?>
<!DOCTYPE svg PUBLIC "-//W3C//DTD SVG 1.1//EN" "http://www.w3.org/Graphics/SVG/1.1/DTD/svg11.dtd" >
<svg xmlns="http://www.w3.org/2000/svg" xmlns:xlink="http://www.w3.org/1999/xlink" version="1.1" viewBox="-10 0 1010 1000">
   <path fill="currentColor"
d="M157 66q10 6 129 6h416q84 0 125 -8q0 5 -5 48q-6 58 -7 75l-7 266q-1 107 -34 125q-39 31 -143 35q-8 -56 -32 -101q90 18 113 -18q12 -17 19 -258q2 -67 3 -85h-240v587h292q103 0 145 -7v95q-82 -8 -141 -8h-582q-37 0 -133 8v-95q87 6 133 7h203v-587h-123
q-104 0 -131 6v-91z" />
</svg>
