<?xml version="1.0" standalone="no"?>
<!DOCTYPE svg PUBLIC "-//W3C//DTD SVG 1.1//EN" "http://www.w3.org/Graphics/SVG/1.1/DTD/svg11.dtd" >
<svg xmlns="http://www.w3.org/2000/svg" xmlns:xlink="http://www.w3.org/1999/xlink" version="1.1" viewBox="-10 0 1034 1024">
  <g transform="matrix(1 0 0 -1 0 820)">
   <path fill="currentColor"
d="M335 -79q-3 -31 -5 -65h48q-4 30 -5 38v782h284v-489q0 -28 -17 -36q-22 -6 -57 -7q-33 0 -79 14q7 -30 10 -55l107 3q31 3 47 11q25 18 26 70l1 474l6 54q-24 -1 -36 -2q-24 -3 -32 -3h-234q-10 0 -38 3q-15 0 -31 2q1 -36 5 -72v-722z" />
  </g>

</svg>
