<?xml version="1.0" standalone="no"?>
<!DOCTYPE svg PUBLIC "-//W3C//DTD SVG 1.1//EN" "http://www.w3.org/Graphics/SVG/1.1/DTD/svg11.dtd" >
<svg xmlns="http://www.w3.org/2000/svg" xmlns:xlink="http://www.w3.org/1999/xlink" version="1.1" viewBox="-10 0 1010 1000">
   <path fill="currentColor"
d="M631 0q107 1 111 12q0 2 -4 9q-20 32 -20 79v218l46 -32q98 107 188 262l-87 48q-35 -83 -147 -225v360q0 66 10 166h-97q9 -65 8 -166v-610q0 -12 -4 -62q-3 -37 -4 -59zM560 50v87q-2 0 -8 -1q-42 -7 -119 -7h-44v167h55q27 1 88 -8q-8 46 -8 77v133q0 43 8 80
q-44 -8 -86 -8h-59v174h61q42 0 66 -1q28 -1 55 -5v86q-57 -8 -117 -8h-254q-60 0 -97 8q8 -48 8 -86v-599q-1 -58 -8 -89q6 0 19 1q20 1 78 7h235q79 -3 127 -8zM310 129h-122v167h122v-167zM444 367h-256v131h256v-131zM308 570h-120v174h120v-174z" />
</svg>
