<?xml version="1.0" standalone="no"?>
<!DOCTYPE svg PUBLIC "-//W3C//DTD SVG 1.1//EN" "http://www.w3.org/Graphics/SVG/1.1/DTD/svg11.dtd" >
<svg xmlns="http://www.w3.org/2000/svg" xmlns:xlink="http://www.w3.org/1999/xlink" version="1.1" viewBox="-10 0 1010 1000">
   <path fill="currentColor"
d="M458 -10q54 77 60 104q-5 4 -19 -2q-22 -8 -39 -6q-37 5 -100 15q-80 13 -144 22v435q53 -16 175 -50q3 -35 3 -90q1 -27 1 -65v-109q0 -40 -6 -93q62 8 105 20q1 3 -5 10q-21 24 -21 61v37q7 323 -63 428q-90 125 -264 194q-16 -41 -74 -77q270 -58 318 -254
q-124 35 -242 95l-36 -59q29 -19 30 -82v-343q0 -73 -10 -121q194 -19 331 -70zM544 50q36 8 103 8h155q54 0 97 -8q-4 24 -5 45q-1 17 -1 50v486q3 55 -35 76q-39 24 -138 30q-8 -54 -47 -108q111 17 127 6q14 -8 13 -81v-32v-389h-182v572q0 123 7 187q1 11 1 15h-95
q0 -3 1 -10q7 -61 7 -192v-558q0 -54 -8 -97zM308 219q19 62 47 232l-79 10q-6 -112 -38 -232zM732 229q28 98 52 258l-86 7q-4 -141 -39 -259z" />
</svg>
