<?xml version="1.0" standalone="no"?>
<!DOCTYPE svg PUBLIC "-//W3C//DTD SVG 1.1//EN" "http://www.w3.org/Graphics/SVG/1.1/DTD/svg11.dtd" >
<svg xmlns="http://www.w3.org/2000/svg" xmlns:xlink="http://www.w3.org/1999/xlink" version="1.1" viewBox="-10 0 1034 1024">
  <g transform="matrix(1 0 0 -1 0 820)">
   <path fill="currentColor"
d="M196 567q-48 0 -64 5v-43q9 3 12 3q3 1 52 3h183q-24 -42 -49 -68q-45 -48 -101 -78q-87 -48 -154 -49q-10 0 -19 1q21 -19 37 -43q88 28 125 46q42 21 88 54q76 57 134 174q-55 -4 -77 -5h-167zM198 247q15 4 35 5l557 -1l17 -4v44q-18 -4 -36 -5l-557 1q-6 0 -16 4v-44
zM280 702q-48 0 -64 5v-43q12 3 45 4l428 1l-79 -44q-28 -15 -53 -27q-39 -18 -73 -27q1 -16 2 -27q3 -21 3 -28v-116q0 -24 -8 -35q-9 -9 -48 -10q-24 0 -63 6q6 -15 9 -23q0 -3 3 -21q22 0 42 3q57 3 77 13q24 12 25 42v139q75 -93 182 -140q78 -34 237 -67q7 24 24 48
q-19 -1 -34 -2q-76 0 -176 37q-57 21 -111 58q1 0 3 2q3 0 23 15q67 46 112 74q1 0 3 2q0 1 5 4q16 7 42 11q-19 18 -33 38q-3 3 -7 10q-37 -42 -176 -135q-22 19 -36 34q-12 10 -43 47q24 15 51 28q100 51 136 73l88 56q-30 -1 -61 -5h-475zM736 201l-46 -4l-403 1
q-7 1 -16 2q-12 0 -29 2l6 -62l1 -197q0 -1 2 -6q6 -27 37 -39q16 -4 71 -7l218 -2l139 2q40 0 75 4q45 6 63 25q18 16 27 64q3 25 11 58q-34 6 -51 12q3 -27 3 -49q0 -58 -41 -71q-13 -3 -55 -7q-114 -4 -161 -5l-250 3q-19 1 -30 5q-22 9 -23 40v195h419v-58
q0 -39 -13 -47q-21 -12 -77 -13l-43 1q-24 0 -62 5q7 -19 13 -45q15 3 66 4q36 0 81 5q16 3 41 10l16 9q15 18 16 60q0 67 2 77q0 15 3 29q-6 0 -10 -1v0z" />
  </g>

</svg>
