<?xml version="1.0" standalone="no"?>
<!DOCTYPE svg PUBLIC "-//W3C//DTD SVG 1.1//EN" "http://www.w3.org/Graphics/SVG/1.1/DTD/svg11.dtd" >
<svg xmlns="http://www.w3.org/2000/svg" xmlns:xlink="http://www.w3.org/1999/xlink" version="1.1" viewBox="-10 0 1034 1024">
  <g transform="matrix(1 0 0 -1 0 820)">
   <path fill="currentColor"
d="M193 673l709 -1q3 0 26 -5v47q-12 -3 -22 -3q-18 0 -40 -2l-676 1q-12 3 -41 4q6 -60 6 -63l-1 -390q-10 -115 -11 -120q-15 -97 -49 -166q-24 -43 -61 -71q30 -9 55 -25q45 82 63 133q21 64 31 150q10 142 11 153v358zM575 81l-298 1q-12 1 -30 2q-7 3 -13 4v-49
q12 6 64 7h277l-1 -169q-3 -27 -5 -34h49q-3 4 -5 35l-1 168h296q30 0 50 -3q4 0 12 -4v49q-10 -3 -22 -4q-19 -1 -40 -3h-296v148h185q45 0 62 -5v46q-60 -4 -62 -5h-185v54q0 24 15 64h-58q6 -63 6 -96v-22h-209q6 10 14 20q39 52 65 94q24 37 53 88l371 -1q15 0 38 -4v46
q-13 -3 -23 -3q-21 0 -41 -2h-325q9 21 29 55q18 37 49 54q-33 13 -63 30q-7 -30 -18 -56q-12 -30 -40 -83l-154 1q-19 1 -39 3q-1 0 -5 1v-46q15 4 65 5h111q-24 -43 -45 -75q-19 -30 -45 -63q-24 -33 -58 -56l25 -49q40 4 69 5h176v-148z" />
  </g>

</svg>
