<?xml version="1.0" standalone="no"?>
<!DOCTYPE svg PUBLIC "-//W3C//DTD SVG 1.1//EN" "http://www.w3.org/Graphics/SVG/1.1/DTD/svg11.dtd" >
<svg xmlns="http://www.w3.org/2000/svg" xmlns:xlink="http://www.w3.org/1999/xlink" version="1.1" viewBox="-10 0 1010 1000">
   <path fill="currentColor"
d="M143 26q30 6 218 6h329q167 -1 225 -12v93q-65 -7 -207 -7h-480q3 164 -1 286q-5 123 -19 220q-27 195 -91 291q-11 -7 -27 -19q-34 -25 -62 -34q80 -94 101 -231q13 -72 17 -180q4 -105 1 -276v-12q-3 -61 -4 -125zM510 121q91 33 91 40q-1 3 -7 7q-24 17 -46 59h164
q113 -2 163 -10v87q-32 -6 -167 -8h-204q-10 15 -29 43q-52 79 -78 108h165q0 -88 -4 -125q8 1 24 2q83 5 79 14q0 1 -2 5q-16 28 -18 104h89q5 -1 28 -2q83 -3 113 -10v83q-17 -5 -110 -4h-15h-105v121h139q1 -1 42 -3q86 -3 103 -7v90q-43 -8 -139 -8h-145v85q0 78 6 109
h-91q6 -24 6 -104v-5v-85h-139q-89 0 -161 6v-86q52 8 165 8h135v-121h-139q-92 3 -123 10q-5 -46 -18 -79q65 -3 143 -147h-42q-96 3 -121 8v-85q24 3 119 6h81q19 -30 48 -106z" />
</svg>
