<?xml version="1.0" standalone="no"?>
<!DOCTYPE svg PUBLIC "-//W3C//DTD SVG 1.1//EN" "http://www.w3.org/Graphics/SVG/1.1/DTD/svg11.dtd" >
<svg xmlns="http://www.w3.org/2000/svg" xmlns:xlink="http://www.w3.org/1999/xlink" version="1.1" viewBox="-10 0 1034 1024">
  <g transform="matrix(1 0 0 -1 0 820)">
   <path fill="currentColor"
d="M237 671l651 1q33 0 65 -5v46q-30 -4 -65 -5l-648 1q-15 3 -46 4q1 -33 5 -66l-1 -300q-1 -19 -2 -42q0 -16 -13 -135q-1 -3 -2 -8q-16 -87 -60 -172q-24 -48 -63 -74q27 -9 58 -25q33 60 60 123q36 96 48 177q12 105 13 223v257zM352 382l-56 4q-3 1 -6 1v-46q30 4 62 5
h200q-9 -103 -52 -193q-60 -117 -166 -200q-57 -42 -114 -55q30 -18 48 -42q127 84 206 188q36 48 61 95q24 51 48 121q45 -103 53 -115q40 -78 97 -141q58 -58 79 -74q10 -7 25 -19l68 -51q24 25 53 37q-60 19 -116 60q-106 85 -164 193q-60 111 -80 196h254q33 0 65 -5v46
q-31 -4 -65 -5h-258l3 169q3 39 20 60q-9 0 -21 3l-47 8q4 -54 6 -94v-89q0 -24 -2 -57h-201zM664 544q87 -54 139 -119q6 12 23 29q3 6 5 8q-3 1 -89 78l-49 38q-1 -4 -9 -14q-6 -4 -11 -11z" />
  </g>

</svg>
