<?xml version="1.0" standalone="no"?>
<!DOCTYPE svg PUBLIC "-//W3C//DTD SVG 1.1//EN" "http://www.w3.org/Graphics/SVG/1.1/DTD/svg11.dtd" >
<svg xmlns="http://www.w3.org/2000/svg" xmlns:xlink="http://www.w3.org/1999/xlink" version="1.1" viewBox="-10 0 1034 1024">
  <g transform="matrix(1 0 0 -1 0 820)">
   <path fill="currentColor"
d="M232 670l690 -1q21 0 33 -4v46q-33 -4 -65 -5l-658 1q-3 0 -43 4q1 -31 5 -65q0 -291 -3 -357q-1 -63 -16 -144q-24 -114 -66 -179q-19 -31 -51 -59q28 -6 56 -18q21 36 33 60q36 70 56 155q28 117 29 294v272zM858 387l-6 -253q-1 -73 -5 -117q-3 -33 -9 -49
q-9 -21 -31 -29q-25 -10 -84 -11q-30 0 -62 8q13 -25 24 -56l75 8q57 9 86 27q25 18 32 56q6 39 10 204l3 119q3 105 7 134q-51 -4 -70 -5h-243q0 22 2 41q3 85 6 105q3 19 19 42q-30 3 -66 12q3 -42 4 -76q0 -58 -3 -124q-204 0 -225 3q-4 1 -13 2v-46q33 4 63 5h172
q-3 -88 -31 -191q-39 -124 -135 -214q-63 -55 -138 -78q24 -16 49 -41q46 33 76 56q24 18 51 46q100 106 134 221q10 39 18 80l15 121h275z" />
  </g>

</svg>
