<?xml version="1.0" standalone="no"?>
<!DOCTYPE svg PUBLIC "-//W3C//DTD SVG 1.1//EN" "http://www.w3.org/Graphics/SVG/1.1/DTD/svg11.dtd" >
<svg xmlns="http://www.w3.org/2000/svg" xmlns:xlink="http://www.w3.org/1999/xlink" version="1.1" viewBox="-10 0 1010 1000">
   <path fill="currentColor"
d="M113 24q45 6 123 6h548q87 0 156 -6v84q-29 -6 -148 -6h-594q0 239 -2 310q-2 103 -10 174q-14 149 -67 277q-42 -29 -99 -41q67 -92 84 -218q9 -62 12 -156q3 -73 1 -281q0 -103 -4 -143zM808 151q105 3 101 10q0 1 -3 6q-19 28 -19 81v556q2 49 -28 64q-25 18 -129 29
q-10 -55 -49 -103q139 26 131 -46v-508q0 -56 -4 -89zM260 171q70 4 109 4h151q26 0 81 -3q5 -1 8 -1q-8 35 -8 81v258q0 81 6 121h-83q6 -59 6 -121v-268h-195v280q0 72 6 117h-85q8 -35 8 -121v-258q0 -53 -4 -89zM667 203q94 0 95 8q0 1 -3 6q-21 27 -21 75v272
q0 63 4 103h-79q8 -43 8 -105v-280q0 -42 -4 -79zM395 304q90 1 93 8q0 2 -5 8q-15 21 -15 42q4 212 -37 300q-35 94 -177 215q-28 -34 -91 -55q153 -76 196 -165q48 -85 40 -290q0 -43 -4 -63zM504 649q75 75 137 155l-70 46q-49 -85 -129 -163z" />
</svg>
