<?xml version="1.0" standalone="no"?>
<!DOCTYPE svg PUBLIC "-//W3C//DTD SVG 1.1//EN" "http://www.w3.org/Graphics/SVG/1.1/DTD/svg11.dtd" >
<svg xmlns="http://www.w3.org/2000/svg" xmlns:xlink="http://www.w3.org/1999/xlink" version="1.1" viewBox="-10 0 1010 1000">
   <path fill="currentColor"
d="M401 266v90h359v-90h-359zM401 413v93h359v-93h-359zM381 617l83 50q-73 103 -172 185q-26 -30 -80 -46q100 -77 169 -189zM744 621q62 47 181 167l-82 56q-70 -97 -162 -175zM903 26v87q-107 -10 -155 -7h-230q83 19 83 33q-1 3 -7 5q-11 4 -17 13q-5 8 -13 23
q-10 17 -14 23h210q16 0 64 -5q15 -2 23 -3q-11 41 -8 77v244q-1 25 6 62q-58 -12 -91 -8h-133v262q-10 57 -155 65q-3 -42 -29 -91q95 18 103 -22v-214h-167q-18 -1 -60 8q0 -4 1 -11q7 -52 7 -77v-232q-3 -45 -8 -63q48 8 92 8h73q17 -33 28 -97h-274q2 350 -19 473
q-23 153 -96 283q-33 -22 -93 -34q89 -101 115 -282q11 -95 14 -253q3 -155 -4 -263q51 9 97 6h498q63 0 159 -10z" />
</svg>
