<?xml version="1.0" standalone="no"?>
<!DOCTYPE svg PUBLIC "-//W3C//DTD SVG 1.1//EN" "http://www.w3.org/Graphics/SVG/1.1/DTD/svg11.dtd" >
<svg xmlns="http://www.w3.org/2000/svg" xmlns:xlink="http://www.w3.org/1999/xlink" version="1.1" viewBox="-10 0 1034 1024">
  <g transform="matrix(1 0 0 -1 0 820)">
   <path fill="currentColor"
d="M64 -102q12 -3 29 -14q12 24 28 64q21 54 34 101q19 78 26 151l6 111l2 121v239l724 -1q24 0 36 -4v46q-28 -4 -68 -5h-671q-9 0 -33 3q-13 0 -31 2q4 -60 5 -67l-3 -368l-2 -38l-7 -76q-10 -88 -42 -168q-21 -48 -60 -91zM591 -55l22 3q6 42 7 47q-49 -15 -151 -26
q45 96 49 100q16 27 39 39q-7 4 -13 7q-3 0 -43 27q-10 -33 -29 -74q-18 -45 -48 -106q-33 -7 -116 -17q-72 -7 -116 -8q9 -24 15 -48q42 9 89 17l212 30zM225 498q33 3 66 5q261 0 278 -3q3 0 15 -2v46q-28 -4 -67 -5l-255 1q-12 3 -37 4v-46zM486 163q28 -1 59 -5
q-4 49 -5 98l1 94l4 39q-30 -1 -59 -5l-183 1q-15 3 -44 4q4 -90 5 -95q0 -76 -2 -103q-3 -3 -3 -33q46 4 92 5h135zM301 199v149h201v-149h-201zM337 -23q6 3 14 8q9 6 23 11q0 1 2 1q-31 63 -69 124q-18 -10 -37 -19q48 -69 67 -125zM800 428h-143q-24 0 -50 3q-6 0 -16 2
v-46l33 4l176 1v-455q0 -34 -21 -42q-18 -6 -45 -7q-16 0 -57 5q13 -28 20 -53q46 3 66 7q42 6 62 29q12 18 13 64v452q97 0 114 -2q12 0 22 -3v46q-21 -4 -66 -5h-70v111q0 10 2 26q1 16 11 40h-57q6 -30 6 -65v-112zM604 244q67 -51 113 -130q13 18 34 32q-30 39 -56 68
l-56 60q-15 -15 -35 -30v0z" />
  </g>

</svg>
