<?xml version="1.0" standalone="no"?>
<!DOCTYPE svg PUBLIC "-//W3C//DTD SVG 1.1//EN" "http://www.w3.org/Graphics/SVG/1.1/DTD/svg11.dtd" >
<svg xmlns="http://www.w3.org/2000/svg" xmlns:xlink="http://www.w3.org/1999/xlink" version="1.1" viewBox="-10 0 1010 1000">
   <path fill="currentColor"
d="M917 34v79q-83 -7 -137 -7h-582q3 221 1 310q-2 111 -11 191q-17 166 -73 276q-33 -29 -83 -47q56 -101 75 -224q9 -59 12 -136q3 -58 2 -220v-123q0 -57 -8 -99q51 8 105 8h552q71 0 147 -8zM242 171q5 1 13 2q50 6 68 6h114q30 0 73 -7q5 -1 8 -1q-8 37 -8 77v213
q0 38 8 85q-3 0 -8 -1q-36 -7 -73 -7h-122v197q17 -12 51 -35q50 -34 76 -53q-21 -28 -41 -49l59 -34q44 52 98 141l-64 41q-8 -23 -22 -45q-129 81 -210 153l-48 -66q0 -2 7 -8q27 -27 27 -55v-479q0 -27 -6 -75zM897 177v79q-29 -7 -97 -8h-28q0 127 -8 189h36
q63 0 106 -7q8 -1 11 -1v81q-45 -8 -113 -8h-48q-1 4 -3 14q-7 28 -13 48q63 -2 73 4q-11 22 -11 67v121q-4 55 27 46q36 4 42 -91q37 34 75 47q-16 82 -45 102q-17 11 -76 11q-61 2 -76 -14q-16 -12 -15 -71v-206q-64 193 -222 297q-29 -34 -74 -55q211 -100 252 -322h-47
q-47 0 -85 8q7 -35 7 -65v-62q0 -18 -7 -67q96 0 95 10q-23 21 -21 87q1 17 1 26h67q3 -34 3 -70q1 -18 1 -43v-76h-41q-68 1 -105 8v-79q54 8 103 8h135q47 0 101 -8zM315 242v84h127v-84h-127zM315 389v86h127v-86h-127z" />
</svg>
