<?xml version="1.0" standalone="no"?>
<!DOCTYPE svg PUBLIC "-//W3C//DTD SVG 1.1//EN" "http://www.w3.org/Graphics/SVG/1.1/DTD/svg11.dtd" >
<svg xmlns="http://www.w3.org/2000/svg" xmlns:xlink="http://www.w3.org/1999/xlink" version="1.1" viewBox="-10 0 1034 1024">
  <g transform="matrix(1 0 0 -1 0 820)">
   <path fill="currentColor"
d="M504 314l-401 1q-9 1 -16 2q-3 0 -13 2v-46q39 4 62 5h351q-39 -60 -77 -111q-69 -84 -127 -149q-60 -69 -100 -82q6 -24 13 -49q66 12 169 19q396 18 421 22q1 1 5 1q15 -19 48 -78q3 3 40 34l-169 198l-84 92q-28 -30 -37 -35q33 -24 47 -38q70 -72 125 -141
q-204 -7 -239 -11q-36 0 -259 -11l116 131q39 45 61 76q21 25 41 54l33 44q13 16 27 34h357q39 0 61 -5v46q-39 -4 -61 -5h-356v213l291 -1q10 0 31 -5v47q-30 -1 -61 -5h-260v124q0 9 3 27q0 16 11 37h-59l4 -35l2 -87v-66l-294 1q-18 3 -28 4v-47q15 4 32 5l290 1v-213z
" />
  </g>

</svg>
