<?xml version="1.0" standalone="no"?>
<!DOCTYPE svg PUBLIC "-//W3C//DTD SVG 1.1//EN" "http://www.w3.org/Graphics/SVG/1.1/DTD/svg11.dtd" >
<svg xmlns="http://www.w3.org/2000/svg" xmlns:xlink="http://www.w3.org/1999/xlink" version="1.1" viewBox="-10 0 1034 1024">
  <g transform="matrix(1 0 0 -1 0 820)">
   <path fill="currentColor"
d="M893 382q46 0 63 -4q3 0 6 -2v48q-12 -3 -19 -3q-43 -3 -50 -3h-467q13 21 27 44q16 27 42 76q12 0 25 2q19 0 195 14l43 3l49 -53q18 21 33 36q-117 117 -218 188q-15 -21 -28 -37q57 -34 135 -104l-82 -6l-189 -12l-183 -8q51 39 86 70q33 27 72 64q55 51 86 63
q-6 6 -37 27q-9 6 -19 14q-24 -36 -46 -63q-39 -42 -72 -73q-52 -45 -84 -65q-30 -18 -72 -32q10 -30 16 -55q42 9 81 12q6 0 15 1q30 1 70 6l76 6q-27 -57 -68 -118l-306 4l-8 2v-48q12 3 24 3q24 1 49 3h213q-63 -70 -121 -118q-103 -78 -180 -104q-12 -3 -23 -7
q30 -15 51 -38q69 39 146 96q28 21 52 41q21 18 42 38q19 18 39 41q19 22 42 51h217q58 -88 167 -165q78 -54 172 -90q24 33 41 49q-72 7 -148 48q-111 55 -186 158h231zM166 -120q3 -6 7 -8q3 -6 12 -15l19 -24q0 -1 2 -4q72 12 121 23q43 9 88 23q154 52 325 175
q48 36 53 39q18 12 49 16q-31 24 -53 46l-52 -51l-58 -44q-121 -84 -222 -123q-96 -37 -184 -48q-69 -6 -86 -7q-10 1 -21 2zM570 336q-90 -93 -228 -149q-51 -18 -108 -29q28 -19 50 -42q51 21 107 51q34 16 67 36q36 21 91 59q34 22 70 29q-33 27 -49 45zM672 238
q-28 -31 -99 -79q-67 -43 -131 -73q-118 -54 -186 -58q25 -21 43 -43q175 61 344 174q37 27 80 33q-39 34 -51 46v0z" />
  </g>

</svg>
