<?xml version="1.0" standalone="no"?>
<!DOCTYPE svg PUBLIC "-//W3C//DTD SVG 1.1//EN" "http://www.w3.org/Graphics/SVG/1.1/DTD/svg11.dtd" >
<svg xmlns="http://www.w3.org/2000/svg" xmlns:xlink="http://www.w3.org/1999/xlink" version="1.1" viewBox="-10 0 1010 1000">
   <path fill="currentColor"
d="M423 -23q86 40 85 53q-5 8 -24 17q-14 6 -20 11q-11 9 -40 31q-70 55 -109 82h362q-45 -39 -108 -79l72 -54q117 87 202 173l-69 61q-36 -39 -46 -45h-161q-54 1 -85 2q-10 20 -32 57q-11 19 -15 26h317q104 -2 177 -8v83q-70 -6 -173 -8h-75q111 126 283 147
q-51 50 -67 87q-200 -80 -292 -234h-208q-115 142 -284 244q-33 -40 -73 -69q119 -35 268 -175h-82q-70 1 -157 8v-83q15 1 57 3q75 5 94 5h129q10 -12 46 -83q-118 5 -185 16q-4 1 -6 1l-21 -83h3q60 -8 108 -46q73 -60 129 -140zM512 407q79 51 73 62q-3 8 -18 13
q-14 4 -21 10q-122 97 -286 163q-21 -38 -58 -65q197 -61 310 -183zM633 496q74 52 69 62q-4 8 -18 13q-14 6 -23 13q-4 3 -15 13q-131 118 -386 189q-13 -42 -52 -77q250 -39 425 -213zM746 586q71 49 71 73q-4 9 -18 14q-16 7 -29 16q-15 11 -46 35q-86 72 -166 108
q-132 60 -360 87q-38 -66 -53 -85q371 8 601 -248z" />
</svg>
