<?xml version="1.0" standalone="no"?>
<!DOCTYPE svg PUBLIC "-//W3C//DTD SVG 1.1//EN" "http://www.w3.org/Graphics/SVG/1.1/DTD/svg11.dtd" >
<svg xmlns="http://www.w3.org/2000/svg" xmlns:xlink="http://www.w3.org/1999/xlink" version="1.1" viewBox="-10 0 1034 1024">
  <g transform="matrix(1 0 0 -1 0 820)">
   <path fill="currentColor"
d="M764 684l-40 -4l-514 1q-24 3 -38 4v-46q39 4 61 5h497q-34 -138 -86 -244q-63 -120 -138 -202q-70 78 -134 186q-55 96 -62 148q-15 -9 -34 -15q-7 -1 -12 -4l7 -13q12 -33 27 -59q39 -73 71 -124q24 -42 33 -52q31 -42 76 -94q-75 -76 -197 -152q-75 -43 -113 -59
q-36 -15 -97 -25q24 -25 40 -49q118 54 202 107q85 55 196 147l100 -75q24 -18 54 -36q52 -31 88 -51l44 -23l69 -32q21 -12 54 -26q15 28 39 53q-43 3 -78 15q-36 10 -97 42q-151 76 -245 164q79 93 134 197q52 112 88 237q9 34 25 80q-10 0 -20 -1zM448 590
q-18 -18 -33 -30q64 -72 102 -142q12 9 38 27q-6 9 -51 69q-37 46 -56 76v0z" />
  </g>

</svg>
