<?xml version="1.0" standalone="no"?>
<!DOCTYPE svg PUBLIC "-//W3C//DTD SVG 1.1//EN" "http://www.w3.org/Graphics/SVG/1.1/DTD/svg11.dtd" >
<svg xmlns="http://www.w3.org/2000/svg" xmlns:xlink="http://www.w3.org/1999/xlink" version="1.1" viewBox="-10 0 1010 1000">
   <path fill="currentColor"
d="M421 -19q81 34 91 47q0 3 -14 11q-17 10 -28 19q-77 71 -129 115h334q-28 -27 -100 -75l68 -48q96 67 198 181l-73 59q-16 -29 -38 -53h-228q-7 15 -24 49q-19 36 -24 48h308q95 -1 175 -10v85q-49 -7 -173 -8h-93q91 94 293 153q-28 22 -51 61q-11 17 -18 28
q-114 -49 -216 -137v70q-37 -9 -153 -8h-64q-110 0 -150 8v-64q-24 33 -209 141q-22 -46 -65 -71q193 -65 287 -185h-95q-117 0 -161 8v-83q42 9 163 10h135q30 -60 44 -95h-70q-93 0 -143 13l-19 -65q1 -3 16 -7q53 -13 101 -51q73 -61 125 -146zM419 401q-17 22 -67 73
q-9 10 -13 14q23 8 119 8h62q63 0 91 -2q33 -1 50 -6l-70 -87h-172zM244 623q69 9 181 10h156q107 -2 161 -10v90q-41 -7 -161 -8h-154q-138 0 -183 8v-90zM867 766v96q-50 -8 -167 -8h-394q-132 0 -169 8v-96q54 8 169 8h392q64 0 98 -2q40 -1 71 -6z" />
</svg>
