<?xml version="1.0" standalone="no"?>
<!DOCTYPE svg PUBLIC "-//W3C//DTD SVG 1.1//EN" "http://www.w3.org/Graphics/SVG/1.1/DTD/svg11.dtd" >
<svg xmlns="http://www.w3.org/2000/svg" xmlns:xlink="http://www.w3.org/1999/xlink" version="1.1" viewBox="-10 0 1034 1024">
  <g transform="matrix(1 0 0 -1 0 820)">
   <path fill="currentColor"
d="M742 295q-52 -115 -152 -215q-70 60 -134 156q-22 -19 -43 -34q24 -16 51 -46q69 -75 98 -103q-114 -99 -257 -144q-51 -13 -106 -17q18 -25 31 -50q76 21 159 57q64 28 103 55q45 30 98 76q78 -52 115 -74q36 -18 86 -40q66 -25 145 -52q15 25 29 39q3 6 7 9
q-184 24 -353 143q103 114 167 239q7 21 20 42q-31 -1 -63 -5h-317q12 22 22 49q12 28 29 79h410q36 0 61 -5v46q-30 -1 -61 -5h-400l27 134q12 67 19 85q4 18 19 44q-37 6 -63 15q-1 -64 -10 -122l-17 -95q-6 -33 -15 -61h-247q85 147 91 153q4 12 33 33q-13 9 -26 14
q-18 9 -26 16q-18 -48 -67 -139q-24 -42 -40 -62q-12 -15 -31 -25l18 -40q36 13 78 14h206q-12 -39 -23 -66q-9 -25 -24 -54q-58 -117 -122 -185q-117 -121 -209 -150q30 -22 46 -41q60 43 96 74q33 27 62 57q40 42 75 88q34 46 74 113h331zM695 726q-12 -21 -28 -40
q87 -45 150 -121q12 16 33 38l-67 56z" />
  </g>

</svg>
