<?xml version="1.0" standalone="no"?>
<!DOCTYPE svg PUBLIC "-//W3C//DTD SVG 1.1//EN" "http://www.w3.org/Graphics/SVG/1.1/DTD/svg11.dtd" >
<svg xmlns="http://www.w3.org/2000/svg" xmlns:xlink="http://www.w3.org/1999/xlink" version="1.1" viewBox="-10 0 1034 1024">
  <g transform="matrix(1 0 0 -1 0 820)">
   <path fill="currentColor"
d="M736 363q-60 -168 -160 -276q-57 55 -114 152q-27 43 -36 72q-31 -19 -50 -28q24 -24 32 -35q9 -12 49 -72q27 -42 38 -57q19 -25 50 -60q-67 -57 -166 -111q-99 -48 -190 -61q21 -22 35 -47q12 4 27 10q33 15 67 28q54 24 88 43q45 24 81 48q37 24 89 64
q138 -108 274 -153q40 -12 88 -31q12 24 37 54q-78 1 -171 37q-111 45 -199 121q81 94 127 192q15 30 27 59q15 33 37 92q-27 -1 -55 -5h-338q27 79 52 161h414q37 0 60 -5v47l-60 -6h-406q6 33 13 66q9 58 33 96q-7 0 -64 8q-1 -48 -6 -82q-4 -36 -16 -88l-289 1
q-12 1 -26 2q-3 0 -12 3v-47q39 4 61 5h257q-33 -123 -63 -192q-66 -147 -174 -261q-66 -66 -123 -95q31 -16 51 -33q1 0 3 3l19 19q1 0 3 3l61 62q30 33 55 62q24 28 33 42q58 84 115 193h342z" />
  </g>

</svg>
