<?xml version="1.0" standalone="no"?>
<!DOCTYPE svg PUBLIC "-//W3C//DTD SVG 1.1//EN" "http://www.w3.org/Graphics/SVG/1.1/DTD/svg11.dtd" >
<svg xmlns="http://www.w3.org/2000/svg" xmlns:xlink="http://www.w3.org/1999/xlink" version="1.1" viewBox="-10 0 1034 1024">
  <g transform="matrix(1 0 0 -1 0 820)">
   <path fill="currentColor"
d="M289 195q1 12 4 16h128q42 0 61 -5v46q-43 -4 -69 -5h-116q0 21 2 37l3 115h94q31 0 61 -5v46q-30 -1 -61 -5h-94q0 187 2 208q0 51 3 70q1 25 10 48q-9 0 -20 -1q-15 0 -42 4q3 -34 5 -60l2 -82l3 -187q-138 0 -166 2l-19 3v-46q3 0 6 1q16 3 56 4h121q-1 -30 -2 -114
q0 -16 -3 -38l-166 1q-18 3 -32 4v-46q21 4 61 5h132q-18 -111 -91 -205q-54 -73 -118 -105q30 -15 52 -32q28 30 69 80q84 108 113 209q4 19 11 37zM198 534q-48 81 -58 95q-9 13 -22 34q-21 -18 -42 -30q58 -48 96 -147q10 10 39 27q-7 10 -13 21zM827 423
q-30 -180 -102 -302q-66 130 -89 234q-27 -12 -51 -19q21 -36 36 -69q15 -42 30 -78l50 -103q-39 -46 -67 -71q-63 -55 -124 -86q-48 -21 -94 -29q24 -25 38 -47q102 52 154 91q48 36 117 109q57 -66 75 -84q30 -27 73 -60q15 -12 64 -48q12 22 39 46q-120 39 -225 179
q30 60 45 96q12 27 19 50q22 67 47 160q6 25 10 42l10 30q-30 -1 -59 -5h-268l-5 190q117 15 237 38q67 13 82 10q9 0 21 -2q-19 33 -27 59q-58 -25 -122 -39q-135 -27 -209 -27q-15 0 -30 2q6 -39 9 -66q1 -28 3 -72l3 -156q0 -67 -6 -125q-6 -66 -24 -115
q-39 -118 -138 -200q-31 -22 -76 -42q30 -18 44 -38q93 78 145 149q49 75 72 161q18 85 21 237h272zM347 494q21 -9 38 -20q48 93 64 115q18 27 43 46q-27 12 -52 29l-63 -123q-3 -3 -5 -8q-9 -16 -25 -39v0z" />
  </g>

</svg>
