<?xml version="1.0" standalone="no"?>
<!DOCTYPE svg PUBLIC "-//W3C//DTD SVG 1.1//EN" "http://www.w3.org/Graphics/SVG/1.1/DTD/svg11.dtd" >
<svg xmlns="http://www.w3.org/2000/svg" xmlns:xlink="http://www.w3.org/1999/xlink" version="1.1" viewBox="-10 0 1010 1000">
   <path fill="currentColor"
d="M234 -8q103 0 105 10q0 3 -5 10q-15 23 -15 46l-4 252q125 1 149 -8v83q-26 -9 -149 -8q0 39 -5 113q74 0 96 -1q28 -1 48 -6v83q-27 -8 -150 -8q-20 202 -165 331q-31 -31 -91 -51q161 -82 184 -278q-87 0 -114 1q-36 1 -53 5v-85q29 10 173 9q3 -50 6 -113
q-114 0 -155 8v-81q33 8 155 8q0 -212 -10 -320zM873 20q61 72 62 95q-2 3 -23 0q-43 -4 -71 0q-160 24 -258 38v123h157q119 0 165 -14q-41 249 -127 411q77 79 204 129q-38 16 -77 77q-83 -42 -173 -139q-65 77 -190 169q-21 -34 -92 -61q132 -52 235 -175
q-65 -162 -90 -306q33 -8 54 -21h-66q1 379 -210 531q-45 -42 -91 -53q139 -84 182 -192q44 -98 42 -344q3 -157 -6 -210q45 9 95 6q196 -20 278 -64zM403 66q81 19 85 28q0 5 -10 13q-13 10 -18 20q-7 14 -23 53q-20 46 -34 76l-66 -23q39 -67 66 -167zM153 76
q28 49 57 155l-77 17q-21 -94 -54 -154zM734 606q43 -96 70 -260h-139q30 165 69 260z" />
</svg>
