<?xml version="1.0" standalone="no"?>
<!DOCTYPE svg PUBLIC "-//W3C//DTD SVG 1.1//EN" "http://www.w3.org/Graphics/SVG/1.1/DTD/svg11.dtd" >
<svg xmlns="http://www.w3.org/2000/svg" xmlns:xlink="http://www.w3.org/1999/xlink" version="1.1" viewBox="-10 0 1034 1024">
  <g transform="matrix(1 0 0 -1 0 820)">
   <path fill="currentColor"
d="M863 -134l39 -13q10 24 32 53h-10q-16 0 -68 8q-69 15 -140 44q-75 31 -178 99q57 57 99 105q36 42 74 99q12 19 25 39l-66 -6l-404 1q-12 1 -26 2q-3 0 -12 3v-47q30 4 40 5h34q40 -69 76 -109q33 -40 97 -93q-103 -81 -231 -129q-76 -27 -160 -33q18 -30 26 -50
q145 42 214 75q40 19 83 45q45 28 101 67q145 -99 296 -146zM663 258q-36 -54 -68 -88q-36 -40 -89 -90q-112 87 -158 178h315zM102 312q-3 -27 -3 -48q-1 -1 -2 -12h50l-2 6q0 1 -4 51v83h722l-3 -117q-1 -4 -1 -6q-1 -1 -2 -11h50q0 6 -2 11q-3 21 -3 72l5 92
q-55 -4 -71 -5h-153q69 94 87 122q6 9 22 27q12 13 42 32q-30 18 -59 37q-12 -33 -26 -55q-10 -19 -68 -101q-15 -21 -46 -62l-496 1q-15 3 -42 4q4 -99 5 -105v-16zM705 698q28 4 57 8q33 4 85 7q-21 22 -39 52q-39 -15 -72 -21q-84 -16 -173 -28q-60 -6 -130 -11
q-67 -3 -122 -5q-78 0 -167 13q15 -30 22 -54l297 9q81 6 167 18zM251 586l-16 16q-18 -18 -37 -32q27 -18 61 -55q33 -39 49 -68q13 15 36 33q-15 21 -93 106zM454 607q21 -22 46 -64q19 -39 29 -71q15 10 45 25l-77 127q-3 4 -5 7q-25 -18 -38 -24v0z" />
  </g>

</svg>
