<?xml version="1.0" standalone="no"?>
<!DOCTYPE svg PUBLIC "-//W3C//DTD SVG 1.1//EN" "http://www.w3.org/Graphics/SVG/1.1/DTD/svg11.dtd" >
<svg xmlns="http://www.w3.org/2000/svg" xmlns:xlink="http://www.w3.org/1999/xlink" version="1.1" viewBox="-10 0 1010 1000">
   <path fill="currentColor"
d="M829 4q62 75 62 100q-2 3 -15 1q-42 -8 -96 -3q-300 25 -639 41q-36 -71 -54 -91q74 8 181 9q108 0 222 -7q234 -16 339 -50zM722 137q99 32 107 46q0 5 -13 13q-56 37 -118 124h112q66 0 105 -6q-6 41 -6 89q0 61 7 102q1 7 1 9h-102q9 -32 8 -129h-648q0 78 8 123h-100
q0 -3 2 -12q6 -33 6 -87q0 -69 -6 -97q41 8 109 8h425q78 -104 103 -183zM504 145q28 42 59 111l-83 34q-20 -68 -59 -119zM286 163q33 45 65 119l-87 20q-16 -58 -60 -115zM236 467q3 0 13 1q47 7 100 7h274q87 0 131 -6q-83 183 -179 268q53 26 139 35q87 11 228 8
q-45 60 -51 107q-260 -30 -393 -97q-120 55 -377 103q-13 -50 -61 -95q194 -2 371 -63q-80 -80 -129 -191q-30 0 -58 3q-6 1 -8 1v-81zM379 544q40 93 125 153q76 -67 123 -153h-248z" />
</svg>
