<?xml version="1.0" standalone="no"?>
<!DOCTYPE svg PUBLIC "-//W3C//DTD SVG 1.1//EN" "http://www.w3.org/Graphics/SVG/1.1/DTD/svg11.dtd" >
<svg xmlns="http://www.w3.org/2000/svg" xmlns:xlink="http://www.w3.org/1999/xlink" version="1.1" viewBox="-10 0 1010 1000">
   <path fill="currentColor"
d="M244 -2q62 0 82 2q26 2 29 8t-8 22q-20 28 -20 52v73h88q76 0 85 -6v80q-9 -6 -85 -6h-88v139h125q94 0 100 -6v83q-6 -6 -100 -6h-105v321q10 135 -131 139q-14 3 -22 4q-1 -54 -35 -101q48 3 61 2q18 -1 28 -5q21 -8 20 -45v-315h-123q-81 0 -105 6v-83q12 6 107 6h101
v-282q0 -22 -4 -76q4 39 0 -6zM913 104q-57 411 -151 553q57 98 216 165q-11 8 -28 19q-40 23 -63 60q-130 -111 -175 -178q-99 106 -244 176q-15 -25 -53 -53q-16 -12 -26 -20q173 -49 282 -177q-75 -182 -102 -444q33 -1 62 -20q-63 0 -99 6v-85h1q18 4 108 4h165
q44 0 107 -6zM135 496q13 3 38 9q56 11 53 17q0 4 -5 11q-18 22 -33 67q-31 92 -79 178l-85 -24q73 -99 111 -258zM458 500q55 59 119 163l-85 48q-25 -82 -103 -169zM649 185q17 247 69 391q72 -165 94 -391h-163z" />
</svg>
