<?xml version="1.0" standalone="no"?>
<!DOCTYPE svg PUBLIC "-//W3C//DTD SVG 1.1//EN" "http://www.w3.org/Graphics/SVG/1.1/DTD/svg11.dtd" >
<svg xmlns="http://www.w3.org/2000/svg" xmlns:xlink="http://www.w3.org/1999/xlink" version="1.1" viewBox="-10 0 1034 1024">
  <g transform="matrix(1 0 0 -1 0 820)">
   <path fill="currentColor"
d="M528 209v107l263 -1q12 0 41 -4q-3 30 -5 61l1 278l4 39q-28 -1 -57 -5q-138 0 -153 3l-13 2v-46q7 3 36 4l144 1v-123q-132 0 -160 2q-3 1 -20 3v-46q15 3 33 4l147 1v-135h-261v349q0 7 2 26q3 18 13 38h-59q0 -1 2 -5q0 -10 4 -59v-349h-263v131q153 0 172 -2
q15 0 21 -3v46l-98 -5h-95v144q54 4 94 11q60 7 83 8h25l-31 51q-43 -15 -86 -22q-66 -9 -127 -12q1 -31 5 -64l-1 -285l-4 -41q31 3 64 5h241v-107l-274 1l-18 2q-3 0 -12 2v-46q3 1 12 2q37 3 54 3h46q39 -48 67 -75q100 -90 127 -110l-75 -35q-21 -9 -34 -14
q-72 -24 -108 -33q-84 -19 -149 -20q-15 0 -42 3q7 -12 23 -52l109 16q39 6 77 17q60 15 106 34q54 22 132 62q87 -42 153 -67q72 -22 159 -42q42 -9 77 -15q18 36 31 52l-32 -1q-75 0 -175 30q-79 21 -174 67q21 15 52 41q33 27 73 63q69 66 111 120q-33 -1 -66 -5h-212z
M717 173q-76 -88 -186 -163q-117 84 -181 163h367z" />
  </g>

</svg>
