<?xml version="1.0" standalone="no"?>
<!DOCTYPE svg PUBLIC "-//W3C//DTD SVG 1.1//EN" "http://www.w3.org/Graphics/SVG/1.1/DTD/svg11.dtd" >
<svg xmlns="http://www.w3.org/2000/svg" xmlns:xlink="http://www.w3.org/1999/xlink" version="1.1" viewBox="-10 0 1034 1024">
  <g transform="matrix(1 0 0 -1 0 820)">
   <path fill="currentColor"
d="M188 601q3 -27 3 -36l-1 -598q-1 -7 -2 -27q-1 -3 -1 -6q-1 -1 -1 -5h49q-3 15 -3 24l-2 80v14h558l-3 -105q0 -6 -2 -13h51q0 3 -2 9q-1 10 -3 55l1 589l4 49q-66 -4 -99 -5l-513 1l-36 4q0 -15 2 -30zM230 83v507h558v-507h-558z" />
  </g>

</svg>
