<?xml version="1.0" standalone="no"?>
<!DOCTYPE svg PUBLIC "-//W3C//DTD SVG 1.1//EN" "http://www.w3.org/Graphics/SVG/1.1/DTD/svg11.dtd" >
<svg xmlns="http://www.w3.org/2000/svg" xmlns:xlink="http://www.w3.org/1999/xlink" version="1.1" viewBox="-10 0 1010 1000">
   <path fill="currentColor"
d="M141 54q49 8 171 8h380q99 0 161 -8q-26 275 -41 309q-13 44 -181 74q-9 -63 -40 -103q120 8 135 -18q17 -23 28 -178q0 -6 0 -5h-254q-19 286 -379 367q-28 -54 -67 -85q350 -41 365 -282h-106q-145 0 -172 10v-89zM839 473q-6 31 -6 97v168q0 37 3 85q2 34 3 58h-89
q4 -23 4 -79h-437q-2 45 4 77h-89q1 -10 2 -33q4 -72 4 -98v-174q0 -63 -6 -101q33 6 119 6h365q76 0 123 -6zM317 550v181h437v-181h-437z" />
</svg>
