<?xml version="1.0" standalone="no"?>
<!DOCTYPE svg PUBLIC "-//W3C//DTD SVG 1.1//EN" "http://www.w3.org/Graphics/SVG/1.1/DTD/svg11.dtd" >
<svg xmlns="http://www.w3.org/2000/svg" xmlns:xlink="http://www.w3.org/1999/xlink" version="1.1" viewBox="-10 0 1010 1000">
   <path fill="currentColor"
d="M435 -12q113 36 115 52q0 6 -14 13q-24 12 -38 29q-129 142 -248 246q74 -3 310 -16q108 -7 168 -10q-31 -29 -105 -90q-30 -24 -42 -35l80 -58q128 117 260 260l-84 68q-5 -7 -12 -18q-19 -31 -45 -58q-434 39 -651 52l-28 -97q80 -6 167 -103q107 -117 167 -235z
M821 498q-6 38 -6 104v180q0 29 4 90q2 17 2 25h-93l4 -65h-464l4 73h-95q8 -72 8 -115v-192q0 -58 -6 -100q26 6 103 6h422q73 0 117 -6zM732 580h-464v176h464v-176z" />
</svg>
