<?xml version="1.0" standalone="no"?>
<!DOCTYPE svg PUBLIC "-//W3C//DTD SVG 1.1//EN" "http://www.w3.org/Graphics/SVG/1.1/DTD/svg11.dtd" >
<svg xmlns="http://www.w3.org/2000/svg" xmlns:xlink="http://www.w3.org/1999/xlink" version="1.1" viewBox="-10 0 1034 1024">
  <g transform="matrix(1 0 0 -1 0 820)">
   <path fill="currentColor"
d="M142 19q-6 66 -5 93h215q-1 -57 -5 -79h51q-1 6 -6 69q0 487 3 515q0 12 3 28q-34 -1 -69 -5l-187 1q-19 3 -48 4q1 -30 5 -63l-1 -528l-4 -35h48zM137 149v455h215v-455h-215zM714 422l1 299q0 27 11 45q0 1 3 4h-59q1 -33 5 -69v-279h-162q-48 0 -73 6v-48q36 6 59 6
h176v-476q0 -46 -5 -70h49q-4 40 -5 70v476l225 -1q15 0 34 -5v48q-36 -6 -70 -6h-189z" />
  </g>

</svg>
