<?xml version="1.0" standalone="no"?>
<!DOCTYPE svg PUBLIC "-//W3C//DTD SVG 1.1//EN" "http://www.w3.org/Graphics/SVG/1.1/DTD/svg11.dtd" >
<svg xmlns="http://www.w3.org/2000/svg" xmlns:xlink="http://www.w3.org/1999/xlink" version="1.1" viewBox="-10 0 1010 1000">
   <path fill="currentColor"
d="M429 52q32 5 156 8h129q107 -1 159 -6q-53 394 -183 571q97 103 270 147q-50 47 -69 95q-191 -97 -260 -182q-75 81 -290 198q-32 -48 -81 -85q208 -64 327 -183q-74 -143 -123 -460q38 -6 62 -26q-68 4 -97 10v-87zM91 58q29 4 92 4h107q48 0 93 -4q-4 29 -4 91v363
q1 86 8 165h-87q4 -42 4 -85h-131v31q1 73 8 131h-100q14 -66 14 -180v-439q0 -9 -2 -40q-1 -23 -2 -37zM171 129v395h133v-395h-133zM546 129q22 249 97 429q104 -183 133 -431h-185q-28 0 -45 2z" />
</svg>
