<?xml version="1.0" standalone="no"?>
<!DOCTYPE svg PUBLIC "-//W3C//DTD SVG 1.1//EN" "http://www.w3.org/Graphics/SVG/1.1/DTD/svg11.dtd" >
<svg xmlns="http://www.w3.org/2000/svg" xmlns:xlink="http://www.w3.org/1999/xlink" version="1.1" viewBox="-10 0 1034 1024">
  <g transform="matrix(1 0 0 -1 0 820)">
   <path fill="currentColor"
d="M62 301q51 6 65 6h209q-42 -138 -67 -183q30 3 63 5h434q-6 -33 -25 -111q-22 -70 -54 -98q-33 -28 -123 -29q-42 0 -95 15q15 -21 28 -58q157 6 203 32q33 18 54 59q21 45 44 139q6 30 14 58q4 15 10 33l-65 -6h-426l12 39q21 70 28 83q3 13 7 22l547 -1q-1 0 22 -2
q6 0 16 -3v47q-31 -1 -63 -5l-801 1q-18 0 -37 4v-47zM232 687q3 -24 3 -53l-1 -140q0 -3 -5 -47l67 6l455 -1q18 0 53 -5q-4 60 -5 117l1 106l4 48q-60 -4 -70 -5l-457 1q-15 3 -48 4zM274 488v189h484v-189h-484z" />
  </g>

</svg>
