<?xml version="1.0" standalone="no"?>
<!DOCTYPE svg PUBLIC "-//W3C//DTD SVG 1.1//EN" "http://www.w3.org/Graphics/SVG/1.1/DTD/svg11.dtd" >
<svg xmlns="http://www.w3.org/2000/svg" xmlns:xlink="http://www.w3.org/1999/xlink" version="1.1" viewBox="-10 0 1010 1000">
   <path fill="currentColor"
d="M448 -12q90 4 117 14q1 2 -3 7q-24 30 -24 87v61h274q60 0 110 -6q9 -2 13 -2v86q-44 -8 -118 -8h-279v135h198q54 0 109 -6q19 -1 28 -2v85q-40 -8 -141 -8h-484q-56 0 -112 7q-5 1 -7 1v-85q6 1 16 2q54 6 103 6h208v-135h-283q-73 0 -115 8v-90q4 0 16 2q54 10 101 10
h281v-55q0 -72 -7 -110q-1 -3 -1 -4zM185 514q61 8 156 8h324q74 0 137 -7q8 -1 11 -1q-7 57 -7 115v155q0 58 6 108q1 3 1 5h-99q9 -27 8 -67h-446q0 41 8 73h-99q8 -41 7 -119v-155q0 -65 -6 -109q-1 -4 -1 -6zM276 590v172h446v-172h-446z" />
</svg>
