<?xml version="1.0" standalone="no"?>
<!DOCTYPE svg PUBLIC "-//W3C//DTD SVG 1.1//EN" "http://www.w3.org/Graphics/SVG/1.1/DTD/svg11.dtd" >
<svg xmlns="http://www.w3.org/2000/svg" xmlns:xlink="http://www.w3.org/1999/xlink" version="1.1" viewBox="-10 0 1034 1024">
  <g transform="matrix(1 0 0 -1 0 820)">
   <path fill="currentColor"
d="M249 459l681 -1q22 0 36 -4q1 0 5 -1v47q-30 -4 -71 -5h-651v162q33 -1 116 -2l144 8q66 4 224 25q126 13 146 14q-24 21 -44 56q-19 -15 -73 -27q-36 -6 -88 -14l-215 -22l-120 -5q-61 0 -106 5l-27 3q1 -30 5 -61l-2 -238q-1 -10 -1 -23q-1 -72 -5 -123q-3 -42 -8 -72
q-22 -123 -84 -212q-21 -30 -61 -59q36 -6 61 -23q33 49 69 121q30 69 44 122q10 45 15 85l7 125zM337 288q1 -33 5 -66l-1 -339q-1 -19 -4 -32h49l-5 71v35h467q0 -72 -5 -97h49q-4 40 -5 70l1 309l4 49q-66 -6 -68 -6l-437 1q-24 4 -50 5zM381 -7v254h467v-254h-467z" />
  </g>

</svg>
