<?xml version="1.0" standalone="no"?>
<!DOCTYPE svg PUBLIC "-//W3C//DTD SVG 1.1//EN" "http://www.w3.org/Graphics/SVG/1.1/DTD/svg11.dtd" >
<svg xmlns="http://www.w3.org/2000/svg" xmlns:xlink="http://www.w3.org/1999/xlink" version="1.1" viewBox="-10 0 1010 1000">
   <path fill="currentColor"
d="M393 -10q56 8 103 30q16 9 -7 26q-15 12 -21 20q-14 18 -25 39q-4 7 -6 10h273h17q85 1 132 -5q-67 120 -198 257q-110 98 -201 141h308q15 0 47 -1q36 -1 56 -1q-10 74 -10 104v178q1 87 10 117h-99q6 -11 6 -73h-403q0 62 6 75h-97q9 -28 8 -103v-208q-64 35 -185 77
q-18 -29 -53 -71q-12 -15 -12 -16q212 -39 412 -165q-50 -52 -127 -91l78 -56q65 46 121 99q112 -84 180 -188h-317q-76 106 -185 204l-91 -49q85 -50 173 -155q72 -89 107 -195zM778 576h-403v186h403v-186z" />
</svg>
