<?xml version="1.0" standalone="no"?>
<!DOCTYPE svg PUBLIC "-//W3C//DTD SVG 1.1//EN" "http://www.w3.org/Graphics/SVG/1.1/DTD/svg11.dtd" >
<svg xmlns="http://www.w3.org/2000/svg" xmlns:xlink="http://www.w3.org/1999/xlink" version="1.1" viewBox="-10 0 1034 1024">
  <g transform="matrix(1 0 0 -1 0 820)">
   <path fill="currentColor"
d="M88 630l4 -41l-1 -496q-1 -13 -4 -27h48q-6 24 -6 48v22h176v-10q0 -42 -5 -57h50q-6 18 -6 36l1 502q1 21 5 44q-55 -4 -88 -5l-135 1q-3 0 -40 4q0 -10 1 -21zM305 172h-176v438h176v-438zM607 495q7 6 13 11l-89 98l-146 146q-18 -21 -33 -30q69 -63 135 -128
q66 -67 100 -118q9 10 20 21zM624 -87q0 -36 -5 -56h50q-3 27 -5 56v506l153 158q28 30 71 78q37 45 55 54q7 4 21 7q-9 7 -18 13q-18 13 -35 29q-31 -48 -62 -86q-30 -37 -74 -86q-42 -48 -77 -82q-34 -33 -79 -69q1 -27 5 -55v-467z" />
  </g>

</svg>
