<?xml version="1.0" standalone="no"?>
<!DOCTYPE svg PUBLIC "-//W3C//DTD SVG 1.1//EN" "http://www.w3.org/Graphics/SVG/1.1/DTD/svg11.dtd" >
<svg xmlns="http://www.w3.org/2000/svg" xmlns:xlink="http://www.w3.org/1999/xlink" version="1.1" viewBox="-10 0 1034 1024">
  <g transform="matrix(1 0 0 -1 0 820)">
   <path fill="currentColor"
d="M146 281q3 -72 4 -97q0 -280 -3 -320q-1 -6 -2 -15h48q-6 36 -6 76v31h651q0 -39 -5 -100h49q-4 67 -5 100l1 287q0 21 4 50q-33 -1 -67 -5l-619 1q-3 0 -51 4q0 -6 1 -12zM187 -8v260h651v-260h-651zM231 497q0 -9 -6 -71q33 3 67 5l473 -1l41 -4q-4 54 -5 104l1 162
l4 43q-30 -1 -60 -5l-472 1q-1 0 -49 4q6 -54 6 -82v-156zM267 467v227h496v-227h-496z" />
  </g>

</svg>
