<?xml version="1.0" standalone="no"?>
<!DOCTYPE svg PUBLIC "-//W3C//DTD SVG 1.1//EN" "http://www.w3.org/Graphics/SVG/1.1/DTD/svg11.dtd" >
<svg xmlns="http://www.w3.org/2000/svg" xmlns:xlink="http://www.w3.org/1999/xlink" version="1.1" viewBox="-10 0 1010 1000">
   <path fill="currentColor"
d="M530 6q106 15 111 32q0 2 -4 4q-20 14 -30 48q-55 180 -103 272q25 5 81 5h161q35 -1 69 -9q-98 -104 -140 -352q81 -4 89 4q2 4 -1 13q-5 21 -1 45q35 193 214 299q-45 23 -85 70q-33 -26 -64 -68q-1 39 -3 111q-6 326 -16 330q-20 52 -173 75q-9 -62 -40 -105
q102 20 129 -12q21 -82 24 -337h-131q-9 206 -51 281q-46 96 -179 185q-26 -39 -89 -67q249 -64 246 -397q-39 0 -60 6v-48q-16 21 -46 64q-15 21 -23 32q-27 -40 -72 -66q165 -155 187 -415zM149 145v375h109v-375h-109zM335 544q1 75 8 141h-91q7 -28 6 -92v-9h-107
q-1 97 8 143h-92q8 -87 8 -173v-393q-1 -49 -8 -87q45 8 88 8h113q31 0 75 -8q-7 26 -8 77v393z" />
</svg>
