<?xml version="1.0" standalone="no"?>
<!DOCTYPE svg PUBLIC "-//W3C//DTD SVG 1.1//EN" "http://www.w3.org/Graphics/SVG/1.1/DTD/svg11.dtd" >
<svg xmlns="http://www.w3.org/2000/svg" xmlns:xlink="http://www.w3.org/1999/xlink" version="1.1" viewBox="-10 0 1010 1000">
   <path fill="currentColor"
d="M597 6q99 1 109 12q2 7 -7 18q-20 24 -20 52v59h148q45 0 108 -8v86q-48 -6 -110 -6h-146v317h113v-153q0 -32 -10 -77q96 1 103 12q1 5 -6 16q-12 21 -12 39v175q0 37 8 92q1 13 2 19h-89l4 -55h-113v150q-8 73 69 66q56 1 71 -8q34 -23 38 -95q1 -2 7 3q28 27 80 52
q-21 71 -47 95q-27 26 -80 26h-71q-101 2 -120 -19q-25 -15 -23 -98v-172h-65q-82 0 -115 6v-4q6 -47 6 -94v-137q0 -21 -10 -75q114 11 107 20q2 5 -6 13q-16 17 -16 36v167h99v-317h-123q-42 0 -103 6v-86q7 1 19 2q59 6 84 6h123v-69q0 -39 -6 -72zM190 106h40
q69 0 113 -6q0 2 -1 11q-5 53 -5 112v381q0 64 8 134h-85q6 -29 6 -83h-109v26q0 79 6 127h-86q1 -19 3 -54q5 -78 5 -103v-442q0 -51 -5 -100q-1 -8 -1 -9h3q47 6 108 6zM157 173v415h109v-415h-109z" />
</svg>
