<?xml version="1.0" standalone="no"?>
<!DOCTYPE svg PUBLIC "-//W3C//DTD SVG 1.1//EN" "http://www.w3.org/Graphics/SVG/1.1/DTD/svg11.dtd" >
<svg xmlns="http://www.w3.org/2000/svg" xmlns:xlink="http://www.w3.org/1999/xlink" version="1.1" viewBox="-10 0 1034 1024">
  <g transform="matrix(1 0 0 -1 0 820)">
   <path fill="currentColor"
d="M102 124q0 -51 -5 -74h48q-3 15 -4 51l-1 46h165q-3 -76 -5 -93h49q-4 37 -5 73l1 499l4 48q-60 -6 -89 -6q-102 0 -126 2q-3 1 -36 4h-3l7 -67v-483zM140 183v449h165v-449h-165zM570 344q-13 -132 -48 -214q-45 -115 -157 -187q-49 -30 -100 -38q34 -18 54 -43
q147 93 208 194q61 100 83 288h190l-9 -253l-4 -95q-1 -52 -24 -65q-24 -15 -65 -15q-19 0 -42 5q-16 3 -31 4q24 -27 33 -60q51 4 98 18q57 15 68 84q15 391 17 400q0 9 2 17q-36 -1 -73 -5l-261 1q-36 3 -51 6v-48q36 6 67 6h45zM398 325q39 48 82 117q51 84 102 236
q10 31 29 48q-28 4 -60 21q-6 -49 -18 -94q-39 -118 -101 -215q-43 -64 -86 -88zM717 725q9 -24 16 -50q36 -111 105 -214q46 -66 97 -113q27 25 46 34q-46 24 -79 59q-93 106 -130 237q-15 54 -16 81q-13 -4 -24 -7q-6 0 -24 -2q4 -12 9 -25v0z" />
  </g>

</svg>
