<?xml version="1.0" standalone="no"?>
<!DOCTYPE svg PUBLIC "-//W3C//DTD SVG 1.1//EN" "http://www.w3.org/Graphics/SVG/1.1/DTD/svg11.dtd" >
<svg xmlns="http://www.w3.org/2000/svg" xmlns:xlink="http://www.w3.org/1999/xlink" version="1.1" viewBox="-10 0 1010 1000">
   <path fill="currentColor"
d="M587 4q7 2 20 6q86 28 81 36q0 3 -5 7q-20 16 -42 55q-101 172 -149 222q69 -3 219 -12q51 -3 77 -4q-51 -78 -100 -117l76 -44q94 105 182 234l-83 54q-10 -22 -34 -56q-10 -13 -16 -22l-67 8v369q-1 35 12 43q10 9 54 7q41 0 51 -19q13 -17 18 -88q46 46 83 46
q-19 93 -36 109q-14 22 -77 29q-31 3 -75 0q-68 -3 -85 -19q-21 -15 -20 -64v-405l-86 8q-7 242 -59 328q-51 101 -213 176q-14 -38 -77 -71q158 -41 215 -135q58 -87 53 -292q-68 9 -95 18q-13 -49 -28 -83q1 -1 7 -4q57 -27 86 -74q78 -125 113 -246zM83 100q32 8 121 8
h42q82 0 131 -8q-10 37 -10 164v282q0 129 8 159h-93q7 -28 10 -88h-123q0 53 8 110h-98q12 -54 12 -155v-294q0 -124 -8 -178zM167 175v375h125v-375h-125z" />
</svg>
