<?xml version="1.0" standalone="no"?>
<!DOCTYPE svg PUBLIC "-//W3C//DTD SVG 1.1//EN" "http://www.w3.org/Graphics/SVG/1.1/DTD/svg11.dtd" >
<svg xmlns="http://www.w3.org/2000/svg" xmlns:xlink="http://www.w3.org/1999/xlink" version="1.1" viewBox="-10 0 1034 1024">
  <g transform="matrix(1 0 0 -1 0 820)">
   <path fill="currentColor"
d="M113 605q4 -66 5 -95l-1 -477l-4 -36h48q-6 24 -6 74v25h143q0 -49 -3 -68q-1 -7 -2 -15h50q-4 60 -5 114v262q16 -3 37 -24q27 31 49 65q24 37 61 102h114q-7 -51 -39 -125q-30 -72 -65 -119q-72 -99 -145 -133q21 -7 42 -21q7 -6 12 -8q177 156 236 406h93
q-1 -36 -7 -83l-11 -75q-15 -78 -72 -190q-46 -88 -122 -165q-54 -52 -118 -77q28 -15 57 -36l95 88q105 102 163 257q24 66 35 118q12 57 21 163h98l-5 -126l-5 -241l-2 -118q-1 -37 -6 -68q-3 -36 -30 -55q-39 -24 -97 -24q-24 0 -65 8q22 -27 32 -60q52 6 103 20
q52 16 74 38q18 21 25 72q1 15 3 46l4 153l10 398l-71 -6h-336l3 9q3 6 7 16q6 18 26 63q9 21 19 47q3 15 25 38q-24 3 -57 16q-3 -25 -8 -38l-15 -49q-7 -27 -34 -83q-25 -51 -55 -97q-42 -63 -79 -90q0 151 2 165q0 18 3 39q-33 -1 -68 -5l-125 2q-19 3 -37 3zM298 132
h-143v432h143v-432z" />
  </g>

</svg>
