<?xml version="1.0" standalone="no"?>
<!DOCTYPE svg PUBLIC "-//W3C//DTD SVG 1.1//EN" "http://www.w3.org/Graphics/SVG/1.1/DTD/svg11.dtd" >
<svg xmlns="http://www.w3.org/2000/svg" xmlns:xlink="http://www.w3.org/1999/xlink" version="1.1" viewBox="-10 0 1034 1024">
  <g transform="matrix(1 0 0 -1 0 820)">
   <path fill="currentColor"
d="M98 669q1 -31 5 -65l-1 -515q-1 -19 -4 -35h48q-6 21 -6 92h140l-4 -77q-1 -1 -1 -6h48q-4 21 -5 73l1 488q1 22 5 45q-33 -1 -66 -5q-96 0 -121 2q-6 3 -39 3zM140 182v446h140v-446h-140zM494 250q0 -319 -3 -329q-3 -6 -8 -11q-12 -6 -34 -6q-39 0 -82 7
q15 -30 15 -33q1 -6 6 -21q39 3 63 6q49 6 65 18q15 10 15 50v344q36 21 71 45q28 18 55 37q-4 13 -7 26q0 9 -4 23q-27 -30 -115 -88v185l108 137l53 65q-36 -1 -74 -5l-237 1q-19 1 -33 4v-47q36 6 67 6h196l-65 -86l-52 -60v-225q-102 -66 -160 -89q21 -16 37 -42
q18 18 30 27l56 38q18 12 37 23zM763 684q6 55 9 58q1 6 7 12h-60q1 -34 5 -70l1 -735q1 -31 14 -44q18 -21 92 -21q33 0 61 7q33 7 45 42q3 7 8 32q0 1 5 19q3 10 6 27q-24 4 -46 24q0 -33 -4 -62q-6 -36 -17 -43q-13 -9 -60 -9q-37 0 -50 7q-15 7 -16 40v716z" />
  </g>

</svg>
