<?xml version="1.0" standalone="no"?>
<!DOCTYPE svg PUBLIC "-//W3C//DTD SVG 1.1//EN" "http://www.w3.org/Graphics/SVG/1.1/DTD/svg11.dtd" >
<svg xmlns="http://www.w3.org/2000/svg" xmlns:xlink="http://www.w3.org/1999/xlink" version="1.1" viewBox="-10 0 1010 1000">
   <path fill="currentColor"
d="M175 137v387h111v-387h-111zM91 66q4 0 13 1q36 2 69 3h111q54 0 85 -4q-5 20 -4 79v409q0 62 4 91h-93q4 -21 4 -53h-113q0 51 1 73q1 26 3 52h-80q4 -37 4 -125v-250v-197q1 -50 -4 -79zM857 34q-59 176 -95 252h67q71 -4 80 -8q-72 281 -163 401q102 99 216 125
q-19 20 -39 55q-9 16 -14 22q-128 -60 -213 -150q-93 87 -210 156q-30 -42 -73 -63q139 -55 238 -147q-84 -139 -125 -278q1 282 -211 484q-20 -22 -77 -45q139 -113 179 -253q44 -130 47 -472q-28 0 -69 8v-87q42 8 97 8h242q58 0 114 -7q8 -1 9 -1zM742 113h-202
q-3 192 -12 270l79 -12q30 145 89 248q70 -117 104 -261h-159q93 -198 101 -245z" />
</svg>
