<?xml version="1.0" standalone="no"?>
<!DOCTYPE svg PUBLIC "-//W3C//DTD SVG 1.1//EN" "http://www.w3.org/Graphics/SVG/1.1/DTD/svg11.dtd" >
<svg xmlns="http://www.w3.org/2000/svg" xmlns:xlink="http://www.w3.org/1999/xlink" version="1.1" viewBox="-10 0 1010 1000">
   <path fill="currentColor"
d="M694 20q63 0 82 1q24 2 26 7q1 3 -5 10q-23 25 -23 60v609q-1 52 8 65q8 15 39 16q39 2 51 -21q13 -21 13 -88q29 34 91 44q-32 133 -93 137q-14 1 -56 0h-21q-68 2 -87 -16q-22 -17 -21 -76v-660v-16q1 -49 -4 -72zM375 50q42 6 131 6h56q79 0 103 -6v81
q-68 59 -119 135v159q49 -15 113 -36q-4 12 -5 27q-1 11 -1 51q-40 10 -60 14q-38 10 -39 11q-3 0 -8 2v298q1 40 -32 57q-25 15 -125 26q-2 -47 -38 -95q78 10 97 4q23 -6 22 -38v-236q-50 10 -86 25q-6 3 -7 3q-5 -41 -27 -82q-2 -5 -3 -7q4 -1 17 -2q43 -1 106 -10v-191
q36 -47 99 -125h-75q-92 0 -119 6v-77zM77 70q48 9 113 10h42q93 0 117 -6q-12 24 -12 163v315q0 100 8 153h-89q6 -24 6 -78h-99q0 84 8 133h-96q12 -62 12 -190v-333q0 -132 -10 -167zM163 143v423h99v-423h-99z" />
</svg>
