<?xml version="1.0" standalone="no"?>
<!DOCTYPE svg PUBLIC "-//W3C//DTD SVG 1.1//EN" "http://www.w3.org/Graphics/SVG/1.1/DTD/svg11.dtd" >
<svg xmlns="http://www.w3.org/2000/svg" xmlns:xlink="http://www.w3.org/1999/xlink" version="1.1" viewBox="-10 0 1010 1000">
   <path fill="currentColor"
d="M413 42q27 9 135 8h269q67 -1 118 -8v83q-44 -8 -118 -8h-325q3 206 -3 317q-6 116 -24 192q-28 143 -148 267q-29 -35 -87 -59q124 -76 157 -206q38 -128 30 -461q0 -4 -1 -30q-2 -53 -3 -95zM65 56q37 6 108 6h51q78 -3 109 -6q-5 26 -7 98q-1 20 -1 31v327q1 96 8 141
h-89q6 -24 6 -73h-105q0 95 6 125h-89q9 -32 9 -125v-397q-3 -99 -6 -127zM147 129v383h105v-383h-105zM548 211q33 3 127 6h83q96 -3 111 -6q-4 82 -10 323q0 60 -33 82q-30 23 -128 33q0 -54 -33 -97q119 20 111 -36q3 -63 4 -230h-153v449q-2 53 15 61q11 11 88 10
q77 2 92 -17q20 -15 23 -92q30 25 93 45q-30 97 -61 114q-27 23 -137 23q-137 3 -160 -15q-16 -9 -21 -29q-6 -15 -5 -63v-405q0 -120 -6 -156z" />
</svg>
