<?xml version="1.0" standalone="no"?>
<!DOCTYPE svg PUBLIC "-//W3C//DTD SVG 1.1//EN" "http://www.w3.org/Graphics/SVG/1.1/DTD/svg11.dtd" >
<svg xmlns="http://www.w3.org/2000/svg" xmlns:xlink="http://www.w3.org/1999/xlink" version="1.1" viewBox="-10 0 1010 1000">
   <path fill="currentColor"
d="M585 4q97 3 113 18q-1 3 -6 9q-14 19 -15 37q-2 23 -6 83q-5 71 -8 109h147q74 -1 111 -8v82q-40 -6 -106 -6h-150q56 354 293 450q-46 26 -89 76q-182 -141 -242 -403q-53 277 -306 440q-35 -35 -97 -57q304 -114 353 -506h-79q-45 0 -115 8v-84q42 7 115 8h85
q9 -193 2 -256zM93 108q27 3 101 5h60q90 -2 121 -5q-6 34 -6 119v327q2 87 8 141h-91q3 -24 6 -78h-121q0 46 1 62q1 20 3 30h-84q8 -47 8 -145v-326q-1 -94 -6 -130zM173 181v369h121v-369h-121zM615 665q39 74 72 155l-84 26q-13 -67 -65 -155z" />
</svg>
