<?xml version="1.0" standalone="no"?>
<!DOCTYPE svg PUBLIC "-//W3C//DTD SVG 1.1//EN" "http://www.w3.org/Graphics/SVG/1.1/DTD/svg11.dtd" >
<svg xmlns="http://www.w3.org/2000/svg" xmlns:xlink="http://www.w3.org/1999/xlink" version="1.1" viewBox="-10 0 1034 1024">
  <g transform="matrix(1 0 0 -1 0 820)">
   <path fill="currentColor"
d="M502 283q-4 -78 -26 -152q-39 -126 -203 -200q-84 -36 -179 -42q22 -22 38 -48q255 70 343 203q21 33 32 61q12 34 26 90q12 51 30 79q-18 0 -29 3q-10 1 -32 6zM187 400q1 -30 5 -63l-1 -269l-4 -34h49q-3 36 -5 71v254h555v-235q0 -46 -5 -70h49q-4 40 -5 70l1 232
l4 44q-33 -1 -67 -5l-527 1q-19 3 -49 4zM237 545l-5 -61q30 3 63 5l445 -1l44 -4q-4 52 -5 105l1 99l4 44q-33 -1 -65 -5l-443 1q-6 1 -14 2q-13 0 -30 2q1 -30 5 -61v-126zM274 525v166h466v-166h-466zM578 29q21 -6 50 -21q18 -7 117 -58l106 -61q13 -9 23 -14l20 -14
q4 -3 11 -8q15 24 30 37q-60 31 -131 74l-172 90l-33 16q-9 -24 -21 -41v0z" />
  </g>

</svg>
