<?xml version="1.0" standalone="no"?>
<!DOCTYPE svg PUBLIC "-//W3C//DTD SVG 1.1//EN" "http://www.w3.org/Graphics/SVG/1.1/DTD/svg11.dtd" >
<svg xmlns="http://www.w3.org/2000/svg" xmlns:xlink="http://www.w3.org/1999/xlink" version="1.1" viewBox="-10 0 1034 1024">
  <g transform="matrix(1 0 0 -1 0 820)">
   <path fill="currentColor"
d="M102 95q0 -45 -5 -74h48q-4 60 -5 121h174q0 -43 -4 -61h47q-3 48 -4 61l1 457q0 6 2 14l3 31q-33 -1 -65 -5l-151 1q-6 1 -14 2q-16 0 -32 2q1 -30 5 -62v-487zM140 178v425h174v-425h-174zM787 66q-31 -4 -71 -5h-286q-40 0 -72 5v-47q36 6 60 6l334 -1q4 0 35 -5v47z
M478 276q-3 -33 -5 -67q33 3 67 5h348q0 -66 -4 -134q-1 -63 -5 -101q-6 -46 -29 -64q-36 -24 -94 -24q-24 0 -74 10q21 -27 32 -59q90 12 129 25q45 18 61 49q13 31 16 115l4 114l7 110q-34 -1 -70 -5h-344v358h297q0 -96 -3 -127q-3 -51 -19 -60q-18 -9 -51 -9
q-30 0 -74 12q15 -25 21 -60q103 7 134 29q27 21 30 92q0 118 4 136q0 9 2 28q-33 -1 -67 -5h-176q21 49 31 67q9 18 25 38q-22 1 -35 5q-4 0 -21 9q-4 -24 -12 -47q-9 -27 -31 -72l-99 5q1 -31 5 -65v-308z" />
  </g>

</svg>
