<?xml version="1.0" standalone="no"?>
<!DOCTYPE svg PUBLIC "-//W3C//DTD SVG 1.1//EN" "http://www.w3.org/Graphics/SVG/1.1/DTD/svg11.dtd" >
<svg xmlns="http://www.w3.org/2000/svg" xmlns:xlink="http://www.w3.org/1999/xlink" version="1.1" viewBox="-10 0 1010 1000">
   <path fill="currentColor"
d="M153 22q61 6 91 6h564q33 0 93 -6q-6 48 -6 84v682q1 65 -37 91q-34 26 -132 30q-13 -69 -43 -111q121 24 129 -60v-636h-570v135q2 155 0 228q-5 240 -117 428q-54 -29 -109 -37q141 -122 143 -385v-354q0 -50 -6 -95zM474 125q8 0 21 1q83 3 74 11q1 2 -2 9
q-11 25 -11 71h67q73 0 117 -6v75q-31 -6 -115 -6h-69v95h81q81 0 123 -4h8v74q-3 0 -12 -1q-52 -3 -115 -3h-230q-77 0 -97 1q-27 0 -38 3v-74q2 0 7 1q26 3 116 3h77v-95h-53q-72 0 -111 6v-75q2 0 7 1q39 5 102 5h53v-48q0 -16 -1 -33q-2 -11 1 -11zM331 492q28 6 88 6
h190q40 0 76 -3q8 -1 11 -1q-1 10 -2 26v48v117q-1 53 4 67q-1 0 -7 -1q-27 -3 -68 -3h-206q-42 0 -76 3q-8 1 -10 1q0 -7 1 -25q1 -36 1 -60v-109q0 -16 -1 -42q-1 -17 -1 -24zM409 562v123h208v-123h-208z" />
</svg>
