<?xml version="1.0" standalone="no"?>
<!DOCTYPE svg PUBLIC "-//W3C//DTD SVG 1.1//EN" "http://www.w3.org/Graphics/SVG/1.1/DTD/svg11.dtd" >
<svg xmlns="http://www.w3.org/2000/svg" xmlns:xlink="http://www.w3.org/1999/xlink" version="1.1" viewBox="-10 0 1034 1024">
  <g transform="matrix(1 0 0 -1 0 820)">
   <path fill="currentColor"
d="M852 662v-701q0 -43 -27 -58q-19 -9 -51 -9q-18 0 -43 3t-46 9q13 -19 19 -43q0 -3 2 -11q54 1 85 6q52 7 77 32q19 21 20 70l1 697l4 44q-18 -1 -34 -3q-22 -3 -32 -3l-564 1q-6 1 -45 5q6 -42 6 -106q-3 -45 -3 -167q0 -105 -5 -191q-3 -63 -11 -114q-7 -43 -20 -85
q-33 -102 -93 -153q36 -10 53 -23q72 117 93 250q4 30 9 67q3 37 5 92l6 391h594zM527 355l-175 1l-31 4v-44q24 4 57 5l362 -1q7 0 16 -2q3 0 15 -2v44q-45 -1 -89 -5h-119v116q159 0 166 -3q4 0 11 -3v45q-24 -4 -61 -5h-116v51q0 19 3 36q1 12 13 27h-57q4 -99 5 -103
v-11l-155 3q-12 0 -17 2v-45q6 4 43 5l129 1v-116zM643 27q13 0 64 -5q-4 49 -5 73q0 87 2 98q0 18 3 36q-33 -1 -66 -5l-214 1q-1 0 -39 4q4 -49 5 -77l-3 -117q-1 -6 -2 -13q49 4 63 5h192zM429 61v130h238v-130h-238z" />
  </g>

</svg>
