<?xml version="1.0" standalone="no"?>
<!DOCTYPE svg PUBLIC "-//W3C//DTD SVG 1.1//EN" "http://www.w3.org/Graphics/SVG/1.1/DTD/svg11.dtd" >
<svg xmlns="http://www.w3.org/2000/svg" xmlns:xlink="http://www.w3.org/1999/xlink" version="1.1" viewBox="-10 0 1034 1024">
  <g transform="matrix(1 0 0 -1 0 820)">
   <path fill="currentColor"
d="M98 670q1 -33 5 -66l-1 -499l-4 -36h48q-4 18 -5 42l-1 62h157l-4 -77q-1 -3 -2 -7h48q-3 36 -5 72l1 463l4 46q-66 -4 -103 -5q-72 0 -98 2q-6 3 -40 3zM140 209v420h157v-420h-157zM815 446q31 -1 64 -5q-4 54 -5 106q0 121 2 135q0 19 3 39q-33 -1 -66 -5l-335 1
q-19 3 -50 4q1 -36 5 -72l-2 -309q-6 -105 -18 -170q-30 -130 -107 -225q-22 -24 -56 -47q30 -9 52 -26q37 45 77 111q39 69 53 116q21 66 30 139q3 39 6 88q3 52 3 120h344zM471 482v196h365v-196h-365zM594 305q0 18 3 31q4 18 23 38h-71q4 -27 5 -70v-356q0 -64 77 -76
q36 -3 113 -4q81 0 117 11q33 10 50 42q9 19 20 72q0 6 2 10l3 18q-21 9 -49 26q1 -27 2 -50q0 -24 -6 -43q-12 -34 -52 -43l-83 -6l-103 5q-22 1 -30 5q-21 9 -22 52v163q75 30 140 59q93 45 118 54q22 10 45 16q-21 15 -44 41q-42 -37 -141 -83q-87 -36 -117 -51v139z" />
  </g>

</svg>
