<?xml version="1.0" standalone="no"?>
<!DOCTYPE svg PUBLIC "-//W3C//DTD SVG 1.1//EN" "http://www.w3.org/Graphics/SVG/1.1/DTD/svg11.dtd" >
<svg xmlns="http://www.w3.org/2000/svg" xmlns:xlink="http://www.w3.org/1999/xlink" version="1.1" viewBox="-10 0 1010 1000">
   <path fill="currentColor"
d="M478 4q105 31 97 38q-1 3 -10 14q-17 19 -23 32q-60 141 -125 256l109 -18q3 -8 8 -22q14 -37 18 -56q72 37 83 58q-1 3 -6 7q-15 10 -26 29q-99 177 -180 279l148 -25q-20 -27 -39 -60l67 -26q14 32 49 96q5 9 7 13q49 -111 53 -349h-25q-53 0 -76 4v-75q14 4 47 5
q18 0 29 1h25q2 -119 -8 -197q90 5 106 12q1 3 -9 17q-13 19 -13 25v143h77q33 0 81 -6q-5 77 -13 233q-6 106 -16 293q-3 78 -39 105q-28 28 -142 45q-12 -65 -45 -107q140 33 142 -55q14 -104 28 -443h-73q8 493 -306 621q-36 -41 -85 -65q140 -46 214 -135
q-8 -27 -14 -38q-157 25 -226 52q-15 -45 -40 -90q75 -28 173 -230q-75 16 -135 36q-7 -47 -36 -79q76 -22 149 -338zM67 98q23 3 104 6h55l99 -4q-8 35 -8 135v361q0 95 6 142h-89q6 -25 6 -79h-83q0 77 6 107h-94q7 -41 8 -131v-402q-1 -101 -10 -135zM155 171v421h87
v-421h-87z" />
</svg>
