<?xml version="1.0" standalone="no"?>
<!DOCTYPE svg PUBLIC "-//W3C//DTD SVG 1.1//EN" "http://www.w3.org/Graphics/SVG/1.1/DTD/svg11.dtd" >
<svg xmlns="http://www.w3.org/2000/svg" xmlns:xlink="http://www.w3.org/1999/xlink" version="1.1" viewBox="-10 0 1034 1024">
  <g transform="matrix(1 0 0 -1 0 820)">
   <path fill="currentColor"
d="M624 769q-6 -27 -13 -48q-15 -34 -40 -81q-28 -51 -50 -78q-111 -148 -202 -174q28 -16 51 -37q75 61 132 126q36 42 63 82q15 21 31 49l43 74q54 -100 159 -208q57 -55 139 -117q21 21 53 43q-46 10 -98 45q-102 73 -170 173q-43 64 -57 110q6 13 21 20q-27 4 -62 21z
M478 289l-61 4q-3 0 -6 2v-47q25 4 66 5h345q-30 -45 -55 -78q-21 -30 -41 -53q-36 -45 -92 -104l-29 25l-61 54q-12 -18 -30 -36q12 -9 17 -13l40 -32q-6 6 19 -17l134 -117q16 -16 34 -35q12 18 32 37l-125 108q63 69 110 129q24 31 52 72q31 42 71 102q-24 -1 -42 -3
q-27 -3 -41 -3h-337zM680 336q7 7 18 12q9 3 16 10l-46 73l-27 42q-10 15 -15 24q-12 -12 -37 -21q45 -60 88 -142q1 1 3 2zM80 126q-3 -33 -3 -56q-1 -3 -1 -8q-1 -3 -1 -6h49q-6 42 -7 71v2h162q0 -15 -2 -31q0 -21 -4 -36h50q-3 12 -4 29l-2 65l1 439q1 24 5 48
q-36 -1 -71 -5q-109 0 -139 2q-9 3 -38 3q1 -33 5 -67v-450zM279 602v-437h-162v437h162z" />
  </g>

</svg>
