<?xml version="1.0" standalone="no"?>
<!DOCTYPE svg PUBLIC "-//W3C//DTD SVG 1.1//EN" "http://www.w3.org/Graphics/SVG/1.1/DTD/svg11.dtd" >
<svg xmlns="http://www.w3.org/2000/svg" xmlns:xlink="http://www.w3.org/1999/xlink" version="1.1" viewBox="-10 0 1010 1000">
   <path fill="currentColor"
d="M427 30q57 8 115 8h198q61 -1 121 -10q-6 39 -6 99v90q0 49 8 93q-36 -6 -105 -6h-250l-2 161q-1 147 -54 236q-35 69 -135 164q-45 -38 -101 -51q123 -77 165 -151q46 -74 46 -161l6 -144v-221q0 -59 -6 -107zM351 62q-6 46 -6 101v308q0 90 6 150h-89q8 -30 8 -57h-105
q0 82 6 117h-88q9 -48 8 -161v-359q1 -61 -6 -97q54 6 123 6q88 0 143 -8zM508 108v127h270v-127h-270zM270 133h-107v367h107v-367zM575 336q54 6 84 12q17 3 5 21q-11 17 -11 28v151q109 -70 174 -145q36 26 78 60q23 17 -14 23q-23 3 -30 8q-96 65 -208 123v96
q0 33 13 42q10 10 52 9h50q102 9 91 -127q40 47 97 60q-21 91 -59 121q-31 30 -117 28h-74q-82 0 -106 -17q-25 -14 -23 -69v-277v-88q-1 -35 -2 -59z" />
</svg>
