<?xml version="1.0" standalone="no"?>
<!DOCTYPE svg PUBLIC "-//W3C//DTD SVG 1.1//EN" "http://www.w3.org/Graphics/SVG/1.1/DTD/svg11.dtd" >
<svg xmlns="http://www.w3.org/2000/svg" xmlns:xlink="http://www.w3.org/1999/xlink" version="1.1" viewBox="-10 0 1014 1000">
   <path fill="currentColor"
d="M839 12q69 89 58 92q-1 2 -5 1q-16 -7 -53 -3q-24 4 -67 10q-19 484 222 692q-43 17 -87 43q-18 11 -22 11q-106 -160 -150 -336q-22 -88 -30 -187q-9 -99 -5 -216l-75 8l-10 604l62 -12q-15 -45 -34 -80l65 -18q39 75 82 199l-88 24q0 -3 -1 -8q-1 -36 -11 -62
q-91 20 -164 54q-3 -2 -11 -26q-12 -33 -21 -52q44 -19 44 -63l16 -554l-76 6q6 368 -27 492q-25 125 -151 254q-37 -48 -92 -59q136 -77 171 -228q40 -146 20 -522q278 -4 440 -64zM212 72q67 0 117 -6q-10 57 -10 153v271q0 129 8 159h-89q-1 0 1 -8q5 -26 5 -49h-97
q-3 30 6 129h-91q9 -35 9 -123v-348q0 -96 -8 -184q36 6 106 6h43zM244 135h-97v393h97v-393z" />
</svg>
