<?xml version="1.0" standalone="no"?>
<!DOCTYPE svg PUBLIC "-//W3C//DTD SVG 1.1//EN" "http://www.w3.org/Graphics/SVG/1.1/DTD/svg11.dtd" >
<svg xmlns="http://www.w3.org/2000/svg" xmlns:xlink="http://www.w3.org/1999/xlink" version="1.1" viewBox="-10 0 1034 1024">
  <g transform="matrix(1 0 0 -1 0 820)">
   <path fill="currentColor"
d="M577 427q84 0 99 -3q4 0 9 -2v46q-9 -3 -22 -3q-19 0 -41 -2h-45v218q0 39 13 68h-56q1 -6 2 -14q1 -27 3 -54v-697l-102 -35v562q0 12 3 32q1 18 11 35h-57q1 -6 2 -14q3 -48 3 -53v-574q-39 -15 -87 -18l22 -33l9 -22q22 13 47 24q10 6 117 46l185 69q-3 19 -4 29
q0 3 2 20q-22 -15 -113 -53v428zM762 687q0 37 13 67h-56q1 -6 2 -13q1 -27 3 -54v-724q0 -31 9 -52q19 -31 106 -32q48 0 73 5q36 6 51 37q6 13 28 87q-30 7 -52 19q1 -19 2 -34q0 -21 -7 -44q-6 -18 -25 -26q-25 -7 -70 -8q-48 0 -62 11q-15 9 -15 45v427q99 63 134 87
q27 15 35 18q9 3 25 6q-22 27 -37 52q-25 -30 -67 -60q-45 -33 -90 -59v245zM82 92q-3 -48 -6 -62h49q-4 9 -5 26l-1 39h150q-1 -25 -3 -53q0 -3 -2 -12h48q-3 6 -4 34l-1 509q1 33 5 66q-18 -1 -31 -2q-19 -3 -41 -3l-122 1q-15 3 -42 4l6 -66v-481zM119 131v467h150v-467
h-150z" />
  </g>

</svg>
