<?xml version="1.0" standalone="no"?>
<!DOCTYPE svg PUBLIC "-//W3C//DTD SVG 1.1//EN" "http://www.w3.org/Graphics/SVG/1.1/DTD/svg11.dtd" >
<svg xmlns="http://www.w3.org/2000/svg" xmlns:xlink="http://www.w3.org/1999/xlink" version="1.1" viewBox="-10 0 1010 1000">
   <path fill="currentColor"
d="M583 4q16 0 42 1q63 0 60 7q1 4 -5 12q-13 21 -13 46v93h77q84 -1 143 -16v90q-50 -8 -139 -8h-81v152h95q90 0 147 -12v88q-42 -8 -135 -8h-62q65 223 264 297q-36 16 -83 64l-10 10q-176 -105 -216 -355v266q-1 144 10 160h-98q10 -50 10 -153v-251q-61 202 -228 357
q-38 -48 -87 -64q189 -111 266 -331h-22q-82 0 -121 6v-82q71 8 131 8h61v-148h-47q-83 0 -123 7v-89q32 12 119 12h51v-93q0 -30 -6 -66zM77 110q49 7 123 7h38q87 0 131 -9q-6 62 -6 182v228q0 119 10 163h-97q0 -2 1 -5q7 -34 7 -53h-117q0 91 8 127h-98q10 -65 10 -148
v-294q0 -131 -10 -198zM284 189h-117v363h117v-363z" />
</svg>
