<?xml version="1.0" standalone="no"?>
<!DOCTYPE svg PUBLIC "-//W3C//DTD SVG 1.1//EN" "http://www.w3.org/Graphics/SVG/1.1/DTD/svg11.dtd" >
<svg xmlns="http://www.w3.org/2000/svg" xmlns:xlink="http://www.w3.org/1999/xlink" version="1.1" viewBox="-10 0 1010 1000">
   <path fill="currentColor"
d="M446 -19q104 22 112 31q0 3 -6 7t-10 9q157 216 430 254q-50 35 -75 95q-85 -31 -187 -91v56q-43 -4 -91 -4h-216q-63 0 -99 4v-60q-78 64 -199 137q-27 -39 -81 -73q276 -99 422 -365zM486 68q-50 87 -169 198q5 0 13 1q66 3 91 3h176q19 0 66 -3q8 -1 12 -1
q-100 -74 -189 -198zM849 413q-6 27 -6 83v203q1 37 -4 51q-5 17 -20 29q-31 24 -123 35q-7 -49 -32 -77q-8 -10 -13 -16q46 3 62 1q20 -1 32 -8q23 -12 23 -59v-165h-155v292q0 50 8 135h-89q6 -88 6 -127v-266q0 -62 -6 -111q39 6 105 6h105q42 0 107 -6zM151 419
q9 0 39 3q34 3 46 3h131q50 0 91 -6q0 2 -1 14q-5 38 -5 65v181q0 86 6 113h-85l4 -61h-145l4 107h-85q6 -36 6 -143v-187q0 -30 -6 -89zM377 492h-145v171h145v-171z" />
</svg>
