<?xml version="1.0" standalone="no"?>
<!DOCTYPE svg PUBLIC "-//W3C//DTD SVG 1.1//EN" "http://www.w3.org/Graphics/SVG/1.1/DTD/svg11.dtd" >
<svg xmlns="http://www.w3.org/2000/svg" xmlns:xlink="http://www.w3.org/1999/xlink" version="1.1" viewBox="-10 0 1010 1000">
   <path fill="currentColor"
d="M437 -6q113 13 107 22l-3 3q-27 19 -53 182h60q33 0 81 -8q-22 290 -81 422q3 3 10 11q11 10 79 77q-49 31 -68 53q-12 -22 -59 -75q-66 101 -200 206q-30 -36 -78 -59q140 -57 228 -199q-69 -58 -119 -87q33 -77 66 -274q-47 0 -76 8v-79q26 5 86 4q19 -133 20 -207z
M87 106q28 5 86 6h53q17 -1 45 -2q44 -2 54 -2q-7 30 -8 111v375q2 79 6 113h-81q4 -16 4 -58h-87q0 62 6 86h-82q9 -41 10 -141v-377q-2 -90 -6 -111zM641 112q25 2 103 5h46q89 -1 119 -4q-18 407 -97 556q63 86 176 139q-42 31 -73 75q-87 -76 -145 -148
q-103 108 -208 174q-24 -41 -70 -69q143 -54 232 -173q-72 -158 -73 -458q37 -3 63 -20q-43 1 -73 8v-85zM250 183h-89v395h89v-395zM552 266h-74q-18 100 -53 254l67 50q45 -105 60 -304zM726 189q-9 262 40 407q51 -120 57 -407h-97z" />
</svg>
