<?xml version="1.0" standalone="no"?>
<!DOCTYPE svg PUBLIC "-//W3C//DTD SVG 1.1//EN" "http://www.w3.org/Graphics/SVG/1.1/DTD/svg11.dtd" >
<svg xmlns="http://www.w3.org/2000/svg" xmlns:xlink="http://www.w3.org/1999/xlink" version="1.1" viewBox="-10 0 1034 1024">
  <g transform="matrix(1 0 0 -1 0 820)">
   <path fill="currentColor"
d="M91 117q0 -46 -5 -74h48q-6 30 -6 59v41h160v-14q0 -45 -6 -75h49q-4 19 -5 51l-1 477q0 10 4 31q0 15 2 33q-33 -1 -66 -5l-132 1q-25 3 -47 4q1 -31 5 -64v-465zM128 177v428h160v-428h-160zM856 580l-2 -86l-2 -294q-1 -36 -8 -48q-15 -19 -53 -20q-27 0 -75 10
q6 -9 13 -22q0 -1 10 -35q81 7 110 19q28 12 37 42q4 19 5 47q3 325 5 353q1 30 2 75q-36 -1 -71 -5h-290q13 27 30 66q24 54 57 67q-15 4 -28 10q-12 4 -39 17q-6 -42 -29 -89q-54 -115 -111 -189q-46 -51 -85 -69q24 -9 51 -34q48 58 77 97q25 36 58 88h338zM522 433
q-33 3 -66 5q1 -30 5 -63l1 -441q3 -30 25 -47q21 -18 82 -22l130 -2q36 0 80 3q60 3 90 14q34 9 56 42q9 12 18 32q7 18 20 65q-31 9 -57 28q3 -30 3 -37q0 -34 -15 -61q-18 -30 -73 -40q-48 -6 -145 -7l-75 1q-43 1 -53 4q-48 6 -48 54v230l202 -1q9 0 45 -5q-4 54 -5 82
l1 127l4 44q-33 -1 -65 -5h-160zM703 397v-172h-203v172h203z" />
  </g>

</svg>
