<?xml version="1.0" standalone="no"?>
<!DOCTYPE svg PUBLIC "-//W3C//DTD SVG 1.1//EN" "http://www.w3.org/Graphics/SVG/1.1/DTD/svg11.dtd" >
<svg xmlns="http://www.w3.org/2000/svg" xmlns:xlink="http://www.w3.org/1999/xlink" version="1.1" viewBox="-10 0 1034 1024">
  <g transform="matrix(1 0 0 -1 0 820)">
   <path fill="currentColor"
d="M96 101q0 -51 -5 -75h48q-4 16 -5 74v32h145q-3 -87 -5 -97h49q-6 21 -6 74l1 504q1 24 5 48q-66 -6 -86 -6q-75 0 -99 2q-24 3 -47 4q1 -33 5 -68v-492zM134 166v454h145v-454h-145zM803 494h-202q-48 0 -73 6v-48q30 6 59 6h216v-491q0 -37 -14 -45q-19 -10 -56 -11
q-33 0 -73 10q15 -19 27 -58q54 7 68 10q46 9 66 24q21 16 21 66v495q87 0 102 -2q12 0 26 -4v48q-28 -6 -71 -6h-57v193q0 18 4 38q6 18 19 31h-67q1 -7 3 -14q0 -15 2 -55v-193zM568 306q57 -46 119 -155q24 24 27 25q4 4 9 7l-70 93q-40 51 -50 58q-27 -21 -35 -28z
M460 -75q0 -34 -5 -75h48q-4 18 -5 42l-1 669q27 96 47 133q10 24 37 40q-33 9 -67 27q0 -16 -17 -75q-18 -54 -41 -115q-52 -133 -137 -230q18 -10 37 -29q25 34 104 169v-556z" />
  </g>

</svg>
