<?xml version="1.0" standalone="no"?>
<!DOCTYPE svg PUBLIC "-//W3C//DTD SVG 1.1//EN" "http://www.w3.org/Graphics/SVG/1.1/DTD/svg11.dtd" >
<svg xmlns="http://www.w3.org/2000/svg" xmlns:xlink="http://www.w3.org/1999/xlink" version="1.1" viewBox="-10 0 1034 1024">
  <g transform="matrix(1 0 0 -1 0 820)">
   <path fill="currentColor"
d="M101 121q0 -45 -5 -73h48q-6 21 -6 72v28h155q0 -42 -4 -65h45q-3 27 -4 63l1 444l4 49q-33 -1 -66 -5q-112 0 -137 2q-6 3 -36 3q1 -33 5 -68v-450zM138 184v413h155v-413h-155zM597 520l2 135l1 34q1 39 15 68h-64q3 -27 4 -34l2 -142q-1 -25 -2 -61h-120q-43 0 -72 5
v-47q30 6 59 6h132q-9 -154 -47 -262q-61 -169 -172 -276q-52 -48 -113 -72q33 -9 63 -36q16 12 34 31q21 21 61 66q120 130 176 315q15 55 22 94q9 54 17 140l305 -1q18 0 34 -5v47q-34 -1 -70 -5h-267zM641 -42q0 -54 37 -71q30 -12 90 -12q51 0 93 8q45 9 67 45
q21 39 36 111q-27 10 -53 30q3 -21 3 -35q0 -27 -8 -56q-15 -45 -44 -55q-27 -9 -70 -9q-45 4 -72 5q-39 6 -40 56v105q102 114 166 221q19 30 41 44q-3 1 -5 2q-12 6 -25 10q-1 0 -23 13q-54 -132 -154 -233l1 237q6 39 9 41q1 4 5 9h-59q1 -34 5 -70v-257q-21 -21 -39 -37
q-21 -18 -57 -46q-34 -28 -102 -57q21 -6 51 -35q78 57 147 123v-87zM873 603q-15 15 -104 96q-12 12 -43 33q-16 -22 -26 -32q12 -6 30 -22q12 -9 51 -42q39 -36 65 -64q4 6 9 13q1 0 3 3l2 3q9 9 13 12v0z" />
  </g>

</svg>
