<?xml version="1.0" standalone="no"?>
<!DOCTYPE svg PUBLIC "-//W3C//DTD SVG 1.1//EN" "http://www.w3.org/Graphics/SVG/1.1/DTD/svg11.dtd" >
<svg xmlns="http://www.w3.org/2000/svg" xmlns:xlink="http://www.w3.org/1999/xlink" version="1.1" viewBox="-10 0 1034 1024">
  <g transform="matrix(1 0 0 -1 0 820)">
   <path fill="currentColor"
d="M110 81q0 -30 -4 -51q-1 -1 -1 -5h47q-1 3 -5 46v58h164v-39q0 -36 -5 -57h48q-4 39 -5 49l1 536q0 19 4 43q-31 0 -47 -4q-13 0 -28 -2l-126 1q-3 0 -48 5q1 -19 2 -32q3 -21 3 -29v-519zM147 163v457h164v-457h-164zM624 389l-216 1q-7 3 -17 4v-47q3 1 6 1q7 3 36 4
l191 1l-1 -467q-1 -1 -1 -6q-1 -10 -3 -22h48q-4 19 -5 39v456l279 -1q18 -1 38 -5v47q-3 0 -4 -1q-13 0 -58 -4h-255v187q175 0 191 -2l43 -4v47q-3 0 -5 -1q-4 0 -7 -2l-97 -3h-125v92q0 6 2 24q1 19 12 36h-57q0 -10 3 -23q0 -18 2 -37v-314zM758 252q-9 10 -22 23
q-24 -19 -31 -24q105 -105 187 -218q12 15 29 30q-46 60 -105 124z" />
  </g>

</svg>
