<?xml version="1.0" standalone="no"?>
<!DOCTYPE svg PUBLIC "-//W3C//DTD SVG 1.1//EN" "http://www.w3.org/Graphics/SVG/1.1/DTD/svg11.dtd" >
<svg xmlns="http://www.w3.org/2000/svg" xmlns:xlink="http://www.w3.org/1999/xlink" version="1.1" viewBox="-10 0 1034 1024">
  <g transform="matrix(1 0 0 -1 0 820)">
   <path fill="currentColor"
d="M638 318v-349q0 -34 10 -53q13 -18 44 -26q31 -6 79 -6q69 0 100 8q30 9 47 33q10 15 28 73q0 9 7 26q-27 13 -54 34q6 -25 6 -34q0 -21 -8 -49q-6 -30 -29 -41q-28 -9 -89 -9q-66 0 -84 8q-18 9 -19 56l1 322l4 48q-33 -1 -66 -5l-216 1q-4 0 -54 4q7 -42 8 -102
q0 -73 -8 -127q-13 -91 -76 -147q-43 -36 -105 -66q-48 -18 -103 -23q28 -19 47 -51q37 15 67 30q102 51 144 100q52 63 65 144l9 132l-1 69h246zM387 448q33 -1 66 -5l-7 66q0 171 2 183q0 12 5 38l-31 -3q-27 -3 -89 -3l-126 1q-33 4 -47 5q6 -63 6 -86q0 -136 -2 -158
q-3 -12 -4 -43q49 4 73 5h154zM201 484v204h209v-204h-209zM596 514q-3 -34 -5 -71q54 4 109 5l134 -1l45 -4q-4 57 -5 110q0 123 2 136q0 21 3 41q-60 -6 -87 -6l-152 1q-1 0 -49 5q1 -33 5 -66v-150zM632 484v204h205v-204h-205z" />
  </g>

</svg>
