<?xml version="1.0" standalone="no"?>
<!DOCTYPE svg PUBLIC "-//W3C//DTD SVG 1.1//EN" "http://www.w3.org/Graphics/SVG/1.1/DTD/svg11.dtd" >
<svg xmlns="http://www.w3.org/2000/svg" xmlns:xlink="http://www.w3.org/1999/xlink" version="1.1" viewBox="-10 0 1010 1000">
   <path fill="currentColor"
d="M520 -2q102 4 109 14q1 6 -7 17q-17 25 -17 49v149h173q121 0 151 -6v81q-42 -8 -147 -8h-179q-45 398 -329 605q-45 -43 -95 -59q298 -120 341 -544q-102 -3 -151 8v-81q57 8 153 8q2 -80 -1 -205q-1 -18 -1 -28zM720 34q71 48 129 105l-69 62q-62 -68 -121 -109z
M77 112q33 5 119 5h30q91 0 127 -5q-8 35 -8 156v290q0 95 8 131h-85q0 -1 1 -4q5 -24 5 -68h-115q0 98 9 141q1 5 1 6h-92q10 -36 10 -149v-317q0 -134 -10 -186zM159 181v373h115v-373h-115zM615 413q0 -64 -6 -85q8 0 23 1q72 2 70 9q1 3 -3 10q-12 21 -12 55v183
q71 -76 126 -203q5 3 14 7q76 41 74 45q0 3 -10 7q-22 9 -32 25q-75 121 -172 210v83q-1 30 13 36q9 7 62 4q61 -1 79 -22q20 -18 22 -85q37 44 85 49q-11 127 -113 137q-19 2 -105 2q-122 3 -115 -77v-62q-68 71 -103 92q-39 -37 -75 -52q94 -45 178 -125v-244z" />
</svg>
