<?xml version="1.0" standalone="no"?>
<!DOCTYPE svg PUBLIC "-//W3C//DTD SVG 1.1//EN" "http://www.w3.org/Graphics/SVG/1.1/DTD/svg11.dtd" >
<svg xmlns="http://www.w3.org/2000/svg" xmlns:xlink="http://www.w3.org/1999/xlink" version="1.1" viewBox="-10 0 1010 1000">
   <path fill="currentColor"
d="M681 -12q37 57 55 120l-89 29q-16 -66 -56 -121zM77 92q22 5 86 6h119q43 0 91 -8q-7 35 -8 85v393q0 65 8 125h-93q4 -39 4 -97h-121q0 87 4 150h-90q9 -38 8 -152v-417q3 -27 -8 -85zM927 137q-7 22 -8 54v47q0 60 8 104h-100q8 -60 8 -131h-311q1 61 4 135h-91
q7 -54 7 -104v-45q-3 -45 -7 -60q26 6 85 8h325q39 0 80 -8zM286 165h-121v363h121v-363zM407 415q45 6 153 10h236q81 -1 152 -10v87q-49 -8 -144 -8h-74v324q13 82 -167 89q-5 -52 -35 -103q116 26 119 -24v-284h-89q-73 -1 -151 8v-89z" />
</svg>
