<?xml version="1.0" standalone="no"?>
<!DOCTYPE svg PUBLIC "-//W3C//DTD SVG 1.1//EN" "http://www.w3.org/Graphics/SVG/1.1/DTD/svg11.dtd" >
<svg xmlns="http://www.w3.org/2000/svg" xmlns:xlink="http://www.w3.org/1999/xlink" version="1.1" viewBox="-10 0 1034 1024">
  <g transform="matrix(1 0 0 -1 0 820)">
   <path fill="currentColor"
d="M90 120q-1 -22 -3 -47q-1 -4 -1 -9q-1 -3 -1 -7h48q-6 15 -6 42v53h143l-4 -86q-1 -1 -1 -6h48q-3 9 -3 20l-2 76l1 458l4 47q-63 -6 -91 -6q-78 0 -98 2l-39 4q1 -30 5 -63v-478zM127 188v432h143v-432h-143zM305 -104q4 1 9 1q6 3 34 3l557 1q28 -1 41 -2q10 0 15 -2
q3 0 7 -1v45l-58 -6q-3 1 -5 0l-583 3q-9 3 -17 3v-45zM613 112l-73 -12l-110 -12q45 81 77 145l106 225q16 36 26 46q6 9 25 22l-57 29q-16 -51 -31 -86q-13 -34 -38 -86l-132 -4q3 9 107 234q6 18 24 48q10 21 35 42q-30 12 -60 30q-12 -45 -41 -121q-24 -64 -45 -110
q-18 -42 -43 -86q-19 -31 -44 -41q9 -24 18 -45q6 0 67 13q34 3 99 7l-62 -129q-22 -45 -49 -88q-31 -46 -61 -58q12 -19 26 -46q21 9 51 15q12 3 128 17l49 6q3 22 8 45zM927 108q-58 -10 -107 -16q-48 -4 -121 -9q24 39 56 96l78 144q33 69 51 100l27 42q12 19 33 33
q-15 7 -26 14q-15 9 -32 19q-9 -27 -28 -71q-16 -39 -31 -67l-137 -8q16 27 29 51q12 25 30 67q45 111 66 150q15 27 38 46q-9 3 -20 9q-19 9 -39 20q-48 -160 -107 -276q-18 -37 -30 -53q-12 -12 -31 -23q12 -22 20 -43q25 6 43 11l116 15q-40 -84 -83 -165
q-36 -64 -55 -89q-18 -21 -45 -31q13 -22 21 -44l30 6q15 1 33 5q58 9 106 13h5l102 10q3 22 8 44v0z" />
  </g>

</svg>
