<?xml version="1.0" standalone="no"?>
<!DOCTYPE svg PUBLIC "-//W3C//DTD SVG 1.1//EN" "http://www.w3.org/Graphics/SVG/1.1/DTD/svg11.dtd" >
<svg xmlns="http://www.w3.org/2000/svg" xmlns:xlink="http://www.w3.org/1999/xlink" version="1.1" viewBox="-10 0 1010 1000">
   <path fill="currentColor"
d="M831 8q108 -1 106 12q0 4 -5 9q-15 17 -15 55v726q6 69 -165 79q-10 -61 -44 -107q87 15 107 6q23 -7 22 -51v-622q0 -59 -6 -107zM351 54q42 6 109 6h86q59 0 107 -8v83q-33 -9 -101 -8h-42q0 -2 -4 20q-15 94 -22 113q107 0 159 -8q0 449 -298 627q-24 -26 -77 -53
q155 -65 234 -218q-36 -57 -91 -104l51 -55l70 83q23 -83 31 -204h-91q-44 131 -109 234q-1 -3 -4 -8q-33 -61 -40 -66q90 -111 116 -359q-63 0 -84 6v-81zM683 135q55 0 74 2q23 1 25 6q2 3 -2 7q-16 17 -16 61v329q0 96 8 139h-91q7 -37 7 -145v-284q0 -47 -5 -115z
M149 143v427h93v-427h-93zM310 574q0 93 7 135h-83q6 -27 6 -72h-89q0 72 8 107h-88q10 -34 10 -121v-390q0 -129 -10 -165q41 8 104 8h47q72 0 95 -6q-7 20 -7 170v334z" />
</svg>
