<?xml version="1.0" standalone="no"?>
<!DOCTYPE svg PUBLIC "-//W3C//DTD SVG 1.1//EN" "http://www.w3.org/Graphics/SVG/1.1/DTD/svg11.dtd" >
<svg xmlns="http://www.w3.org/2000/svg" xmlns:xlink="http://www.w3.org/1999/xlink" version="1.1" viewBox="-10 0 1010 1000">
   <path fill="currentColor"
d="M593 10q4 0 12 1q93 5 89 13q1 2 -4 8q-17 20 -17 54v260h105q97 -1 145 -10v87q-28 -10 -139 -10h-66q64 232 262 308q-47 16 -81 71q-5 8 -6 8q-171 -116 -218 -379v319q0 96 12 149h-100q10 -58 10 -139v-319q-73 221 -244 389q-40 -38 -89 -54q163 -83 272 -351h-20
q-87 0 -129 8v-83q59 8 121 8h89v-260q0 -9 -2 -42q-1 -22 -2 -36zM815 68q103 27 100 44q-2 3 -9 9q-19 11 -31 30q-6 10 -32 56q-44 79 -61 103q-23 -18 -70 -32q64 -82 103 -210zM468 76q54 108 75 171q6 15 9 23l-84 30q-41 -151 -83 -200zM79 102q36 6 111 6h38
q62 0 125 -8q-8 24 -8 144v286q0 108 8 133h-93q10 -43 10 -85h-107q0 89 8 129h-94q10 -51 10 -163v-268q0 -109 -8 -174zM163 175v335h107v-335h-107z" />
</svg>
