<?xml version="1.0" standalone="no"?>
<!DOCTYPE svg PUBLIC "-//W3C//DTD SVG 1.1//EN" "http://www.w3.org/Graphics/SVG/1.1/DTD/svg11.dtd" >
<svg xmlns="http://www.w3.org/2000/svg" xmlns:xlink="http://www.w3.org/1999/xlink" version="1.1" viewBox="-10 0 1034 1024">
  <g transform="matrix(1 0 0 -1 0 820)">
   <path fill="currentColor"
d="M99 134q-3 -63 -5 -70h49q-3 6 -4 34l-1 63h125q-1 -52 -5 -70h49q-4 60 -5 68l1 463l4 48q-36 -1 -71 -5q-78 0 -102 2q-6 3 -40 3q1 -33 5 -68v-468zM138 197v433h125v-433h-125zM880 233q-1 -46 -10 -73q-12 -33 -60 -34q-21 0 -55 5q10 -24 16 -53q55 3 96 15
q30 10 42 43q10 37 20 143q-36 -4 -70 -10h-227q4 49 7 108l195 -1l46 -4q-6 60 -6 93l6 86q-66 -4 -82 -5h-156l1 90l260 -1q6 0 42 -4v46q-33 -1 -65 -5h-237v40q0 31 16 57h-61q4 -90 5 -94v-3q-243 3 -256 5v-46q24 4 57 5h198l-2 -90h-163q-6 0 -44 3q-3 0 -18 2v-46
q-1 0 7 1q51 3 66 4h152l-1 -97h-155q-9 0 -34 3q-15 0 -31 2l3 -50l-8 -95q-4 -22 -8 -45q51 4 105 5h112q-36 -172 -208 -293q-60 -39 -131 -56q28 -15 51 -44q102 60 163 113q99 87 157 226q46 -138 162 -232q28 -22 61 -43q37 -21 94 -51q18 30 47 47q-87 9 -169 73
q-123 94 -170 259zM411 269l10 108h177q0 -34 -3 -56q0 -21 -6 -52h-178zM640 413l2 97h196v-97h-198z" />
  </g>

</svg>
