<?xml version="1.0" standalone="no"?>
<!DOCTYPE svg PUBLIC "-//W3C//DTD SVG 1.1//EN" "http://www.w3.org/Graphics/SVG/1.1/DTD/svg11.dtd" >
<svg xmlns="http://www.w3.org/2000/svg" xmlns:xlink="http://www.w3.org/1999/xlink" version="1.1" viewBox="-10 0 1034 1024">
  <g transform="matrix(1 0 0 -1 0 820)">
   <path fill="currentColor"
d="M383 -7q13 10 27 23q51 52 109 125q30 39 55 74q24 36 50 84l-1 -409q-1 -7 -2 -38q0 -4 -3 -13h50q-6 18 -6 69v378q69 -114 82 -130q18 -27 42 -56q31 -39 71 -79q34 -37 72 -68q24 24 53 42q-67 22 -134 94q-93 96 -173 259q240 0 249 -2q10 0 22 -3v47q-9 -3 -13 -3
q-27 -1 -54 -3h-217v305q0 16 3 35q1 21 10 40h-57l6 -69q-1 -3 0 -6v-305h-194q-27 0 -55 3q-6 0 -14 3v-47q27 4 67 5h175q-21 -52 -69 -124q-51 -73 -98 -123q-84 -91 -168 -119q27 -15 55 -38q6 3 19 14q19 18 41 35zM443 661q-3 4 -7 11q-3 -1 -9 -8q-13 -12 -25 -18
q34 -49 72 -107q39 -63 50 -85q3 0 5 3l24 16q3 1 9 5l-63 99q6 -9 -18 25zM740 477q6 -3 13 -8q3 -1 11 -6l41 67q4 10 11 20q12 19 25 39q19 34 29 43q7 9 30 19q-12 6 -23 12q-10 6 -33 21q-12 -33 -57 -109q-42 -72 -63 -90q7 -3 16 -8zM99 624q3 -27 3 -67l-5 -499
q-1 0 -1 -2h48q-3 33 -5 73v47h154q-3 -27 -2 -27q0 -27 -3 -37h48q-3 12 -3 29q0 21 -2 41l1 426l4 49q-72 -6 -92 -6q-81 0 -106 2l-40 4h-2zM139 212v404h154v-404h-154z" />
  </g>

</svg>
