<?xml version="1.0" standalone="no"?>
<!DOCTYPE svg PUBLIC "-//W3C//DTD SVG 1.1//EN" "http://www.w3.org/Graphics/SVG/1.1/DTD/svg11.dtd" >
<svg xmlns="http://www.w3.org/2000/svg" xmlns:xlink="http://www.w3.org/1999/xlink" version="1.1" viewBox="-10 0 1034 1024">
  <g transform="matrix(1 0 0 -1 0 820)">
   <path fill="currentColor"
d="M80 120q-3 -60 -5 -70h50q-4 12 -5 30l-1 65h153l-4 -80l-1 -6h49q-1 3 -2 12q0 -3 -1 9l-2 81l1 448q0 7 2 15q0 10 2 29q-33 -1 -67 -5l-126 1q-19 3 -48 4q1 -30 5 -63v-470zM119 181v431h153v-431h-153zM835 665l-50 -4h-216l35 57q18 25 40 38q-33 10 -58 29
q-12 -39 -39 -84q-21 -33 -48 -66q-30 -36 -54 -57q-46 -43 -96 -68q30 -13 49 -33q18 15 41 37q24 22 44 44q48 55 62 67h246q-43 -90 -125 -177q-6 6 -20 19q-72 69 -86 113q-12 -10 -30 -19q-9 -3 -16 -6q6 -6 12 -14q12 -16 77 -90q16 -16 31 -30q-90 -69 -183 -107
q-57 -21 -121 -22q21 -19 40 -53q96 33 164 68q66 34 134 86l72 -49q24 -15 48 -28q75 -39 162 -71q12 27 38 55q-57 0 -126 27q-75 30 -162 96q33 39 53 64q16 22 37 54q21 33 38 64l31 61q-12 0 -24 -1zM459 215q3 -55 4 -79q0 -261 -3 -292q-1 -1 -2 -11h50q-3 7 -4 34
q0 27 -2 56h319v-13l-5 -58q0 -6 -3 -12h52q-6 69 -6 88l1 254q0 21 5 56q-66 -4 -104 -5l-255 1q-3 0 -48 4q0 -10 1 -23zM502 -42v239h319v-239h-319z" />
  </g>

</svg>
