<?xml version="1.0" standalone="no"?>
<!DOCTYPE svg PUBLIC "-//W3C//DTD SVG 1.1//EN" "http://www.w3.org/Graphics/SVG/1.1/DTD/svg11.dtd" >
<svg xmlns="http://www.w3.org/2000/svg" xmlns:xlink="http://www.w3.org/1999/xlink" version="1.1" viewBox="-10 0 1034 1024">
  <g transform="matrix(1 0 0 -1 0 820)">
   <path fill="currentColor"
d="M74 639q4 -66 5 -96l-1 -454q-1 -9 -2 -29q0 -4 -2 -12h50q-3 3 -3 12q-3 21 -2 20l-1 63h177l-4 -84l-1 -6h50q0 6 -2 14q-3 66 -3 117l1 409l4 46q-34 -1 -70 -5q-126 0 -153 2q-6 3 -43 3zM118 179v419h177v-419h-177zM497 278q13 -12 33 -47q28 -48 54 -85
q25 -36 59 -77q-27 -31 -51 -53q-64 -55 -138 -88q-97 -42 -162 -45q21 -16 37 -45q60 18 165 67q102 49 179 137q39 -39 115 -88q78 -48 160 -85q6 7 12 18q9 15 30 26q-49 9 -113 36q-105 51 -178 123q46 78 91 167q12 30 18 39q6 15 26 32q-31 9 -57 26q-7 -34 -16 -59
q-6 -21 -16 -42q-37 -75 -77 -134q-48 54 -81 112q-34 54 -46 94q-24 -18 -44 -29zM367 318q31 -9 51 -27q36 36 62 64q22 27 50 63q24 31 42 51q12 12 29 21q-16 7 -23 13q-9 6 -24 21q-19 -42 -88 -126q-55 -58 -99 -80zM950 588q-45 -4 -66 -5q-483 3 -496 5v-46
q39 4 63 5q460 0 477 -2q1 0 5 -1q3 0 17 -2v46zM673 698q-36 30 -85 77q-6 -6 -8 -10q-12 -13 -24 -22q28 -21 65 -54q40 -37 69 -75l13 13q6 6 23 19q-6 7 -15 15zM924 361q4 7 9 13q-13 13 -64 54q-16 13 -31 27q-85 69 -88 71q-13 -24 -27 -38q18 -9 69 -48
q21 -15 70 -57l44 -44z" />
  </g>

</svg>
