<?xml version="1.0" standalone="no"?>
<!DOCTYPE svg PUBLIC "-//W3C//DTD SVG 1.1//EN" "http://www.w3.org/Graphics/SVG/1.1/DTD/svg11.dtd" >
<svg xmlns="http://www.w3.org/2000/svg" xmlns:xlink="http://www.w3.org/1999/xlink" version="1.1" viewBox="-10 0 1010 1000">
   <path fill="currentColor"
d="M526 -10q12 2 34 5q73 10 71 17q2 5 -6 10q-15 12 -24 28q-7 13 -21 38q-15 26 -13 24h163q84 0 137 -6q-69 155 -175 265q97 59 280 74q-40 35 -57 79q-4 11 -6 12q-171 -38 -272 -115q-85 66 -228 139q-3 -5 -10 -18q-19 -36 -32 -50q116 -32 216 -121
q-50 -67 -79 -140q-33 58 -67 107q-21 -15 -70 -42q128 -138 159 -306zM552 179q34 90 85 145q51 -52 107 -145h-192zM288 177h-117v399h117v-399zM546 598v164h222v-164h-222zM359 568q0 98 8 137h-85q6 -41 6 -62h-117q-3 61 6 111h-84q6 -41 6 -127v-385q0 -95 -6 -138
q36 6 113 6h42q69 0 119 -6q-8 25 -8 127v337zM470 534h123h109q92 0 134 -5q7 -1 11 -1q-2 10 -3 35q-1 12 -1 31v53v107q-2 111 10 149h-91q6 -39 6 -79h-218q0 55 6 79h-96q10 -38 10 -125v-127v-117z" />
</svg>
