<?xml version="1.0" standalone="no"?>
<!DOCTYPE svg PUBLIC "-//W3C//DTD SVG 1.1//EN" "http://www.w3.org/Graphics/SVG/1.1/DTD/svg11.dtd" >
<svg xmlns="http://www.w3.org/2000/svg" xmlns:xlink="http://www.w3.org/1999/xlink" version="1.1" viewBox="-10 0 1010 1000">
   <path fill="currentColor"
d="M496 -17q88 9 105 19q0 3 -3 11q-19 43 -38 148h255q69 0 110 -6v82q-36 -6 -112 -6h-267q-26 98 -62 178q78 5 85 18q0 1 -2 7q-8 23 -11 45q-8 93 -40 148q-30 -15 -83 -15q50 -75 45 -189q-49 103 -119 196q-18 -24 -36 -39q0 75 6 123h-85q4 -25 4 -70h-103
q0 73 6 117h-84q6 -41 6 -121v-398q0 -76 -6 -116q40 6 132 6t130 -6q-7 36 -6 107v13v291q97 -120 145 -295q-71 0 -125 6v-82q54 6 139 6q19 -125 14 -178zM248 189h-103v377h103v-377zM613 266q103 0 107 10q1 3 -3 11q-24 48 -21 146q0 9 1 26q-2 96 21 147
q54 159 262 228q-43 26 -81 83q-214 -138 -238 -300q-69 194 -314 294q-24 -46 -73 -79q151 -23 250 -125q66 -68 85 -165q10 -47 10 -111q2 -59 -6 -165zM823 401q97 28 94 40q-1 2 -5 6q-16 15 -23 36q-37 104 -74 162q-31 -21 -75 -30q65 -101 83 -214z" />
</svg>
