<?xml version="1.0" standalone="no"?>
<!DOCTYPE svg PUBLIC "-//W3C//DTD SVG 1.1//EN" "http://www.w3.org/Graphics/SVG/1.1/DTD/svg11.dtd" >
<svg xmlns="http://www.w3.org/2000/svg" xmlns:xlink="http://www.w3.org/1999/xlink" version="1.1" viewBox="-10 0 1034 1024">
  <g transform="matrix(1 0 0 -1 0 820)">
   <path fill="currentColor"
d="M219 553h398q0 -27 8 -153q12 -111 18 -142q6 -40 15 -79q13 -51 31 -104q-31 -51 -82 -102q-69 -66 -118 -91q27 -6 57 -28q45 39 89 87q42 45 74 88q18 -42 34 -65q30 -54 67 -93q33 -31 62 -32q24 0 43 19q15 15 33 52q12 30 23 62q-24 15 -42 37q-21 -123 -58 -123
q-24 0 -71 62q-36 51 -64 122q63 102 121 272q24 61 27 64q7 10 28 18q-19 3 -35 7q-6 1 -40 17q-3 -30 -8 -48q-3 -6 -7 -29q-9 -39 -18 -63q-19 -54 -55 -135l-32 -55q-49 162 -57 343q0 18 -3 92l230 -1q6 0 39 -4v46q-6 -1 -15 -2q-24 0 -48 -3h-206q0 138 3 148
q3 19 15 32q-43 0 -66 4q1 -19 3 -44q0 -69 3 -140h-367q-12 0 -40 3q-15 0 -34 2q1 -21 2 -35q3 -24 3 -35v-172q0 -61 -3 -121q-3 -55 -8 -97q-18 -132 -73 -210q-18 -27 -60 -59q34 -9 55 -26q24 31 43 59q45 78 66 169q13 61 17 153l3 135v198zM258 383q3 0 7 1
q1 1 60 4l220 -1q6 0 39 -4v46q-39 -4 -65 -5l-261 5v-46zM554 277l-96 -5l-124 1q-7 1 -15 2q-13 0 -30 2q1 -31 5 -64l-1 -161q-3 -12 -4 -46q54 4 75 5l149 -1q16 0 41 -4q-4 49 -5 70l1 156q0 21 4 45zM332 47v189h179v-189h-179zM722 718q54 -33 115 -106q15 24 31 37
q-3 6 -59 57q-6 6 -56 47q-12 -18 -31 -35v0z" />
  </g>

</svg>
