<?xml version="1.0" standalone="no"?>
<!DOCTYPE svg PUBLIC "-//W3C//DTD SVG 1.1//EN" "http://www.w3.org/Graphics/SVG/1.1/DTD/svg11.dtd" >
<svg xmlns="http://www.w3.org/2000/svg" xmlns:xlink="http://www.w3.org/1999/xlink" version="1.1" viewBox="-10 0 1010 1000">
   <path fill="currentColor"
d="M548 -4q106 0 113 8q2 4 -5 11q-18 15 -19 37q-3 27 0 109h176q73 0 116 -8v89q-28 -8 -114 -7h-174q4 177 55 343q52 -134 70 -266q95 31 111 40q0 3 -6 11q-27 32 -50 98q-41 119 -81 196q75 131 97 129q19 -3 28 -103q39 47 81 63q-45 155 -89 153q-78 -7 -170 -162
q-78 93 -191 166q-18 -34 -73 -59q153 -82 224 -183q-66 -154 -85 -426h-348v39q13 434 -99 609q-43 -27 -93 -39q62 -73 85 -169q24 -96 24 -274v-115q0 -75 -8 -133q4 0 16 1q86 7 139 7h282q-2 -101 -12 -165zM786 14q45 61 59 96l-87 33q-25 -60 -56 -99zM248 324
q51 8 117 8h52q104 1 125 -8v87q-42 -8 -117 -8h-52q-72 0 -125 8v-87zM534 477q-9 31 -8 107v49q0 46 6 98q1 15 2 21q-7 0 -27 -2q-51 -4 -96 -4h-30q-56 0 -108 6q-9 1 -13 2q8 -45 8 -123v-37q0 -84 -10 -115q42 6 119 6h34q81 0 123 -8zM452 546h-111v139h111v-139z
" />
</svg>
