<?xml version="1.0" standalone="no"?>
<!DOCTYPE svg PUBLIC "-//W3C//DTD SVG 1.1//EN" "http://www.w3.org/Graphics/SVG/1.1/DTD/svg11.dtd" >
<svg xmlns="http://www.w3.org/2000/svg" xmlns:xlink="http://www.w3.org/1999/xlink" version="1.1" viewBox="-10 0 1034 1024">
  <g transform="matrix(1 0 0 -1 0 820)">
   <path fill="currentColor"
d="M93 106q-4 -66 -5 -68q-1 0 -1 -2h48q-6 51 -5 83h132l-4 -77q-1 -1 -1 -6h48q-3 12 -3 29q0 19 -2 41l1 501l4 48q-36 -1 -72 -5q-81 0 -104 2q-6 3 -42 3q6 -42 6 -68v-481zM130 155v459h132v-459h-132zM430 -88q-1 -15 -1 -32q0 -21 -5 -37h50q-3 12 -6 52v639
q27 69 52 123q21 39 32 53q9 10 28 19q-27 15 -38 20q-13 6 -24 13q-3 -21 -20 -64l-26 -60q-21 -48 -45 -94q-69 -135 -125 -174q12 -3 23 -6l35 -10q25 40 43 70q15 24 27 48v-560zM717 -78q-3 -34 -5 -70h49q-3 12 -6 48v480q36 -102 83 -190q40 -76 101 -159q12 4 23 10
q6 3 28 11q4 0 8 2q-37 25 -72 72q-57 79 -111 208l-38 95q-9 24 -18 67l181 -3q3 0 13 -3v48q-7 -1 -64 -7h-134v139q0 13 3 35q1 21 10 40h-56q0 -10 2 -18l3 -57v-139l-153 1q-15 0 -37 6v-48q24 6 67 6h119q-6 -37 -16 -74q-9 -33 -28 -78q-54 -130 -108 -218
q-42 -63 -81 -89q21 -1 32 -5q6 -3 13 -4q12 -3 15 -4l6 -1q102 163 171 337v-438z" />
  </g>

</svg>
