<?xml version="1.0" standalone="no"?>
<!DOCTYPE svg PUBLIC "-//W3C//DTD SVG 1.1//EN" "http://www.w3.org/Graphics/SVG/1.1/DTD/svg11.dtd" >
<svg xmlns="http://www.w3.org/2000/svg" xmlns:xlink="http://www.w3.org/1999/xlink" version="1.1" viewBox="-10 0 1010 1000">
   <path fill="currentColor"
d="M532 -19q8 19 22 55q15 39 23 58h193q116 -1 161 -10v81q-17 -2 -51 -3q-16 -1 -40 -1h-66h-526q-125 0 -177 8v-81q51 6 169 6h244q-18 -53 -49 -86zM796 244q-10 27 -10 147q0 69 8 105q-10 0 -31 -1q-98 -5 -269 -5q-57 68 -121 118v188q37 -21 139 -87l12 83
q-160 84 -220 135q-12 -33 -42 -77q37 -24 36 -36v-155q-66 45 -201 115q-14 -34 -65 -75q242 -67 369 -209q-92 0 -124 2q-30 1 -71 8q1 -8 2 -21q6 -41 6 -96q0 -81 -4 -139q66 6 143 6h322q76 0 121 -6zM706 314h-412v113h412v-113zM548 510q32 79 83 133
q92 -84 115 -121q74 44 79 58q-2 2 -11 6q-57 24 -137 103q101 74 285 89q-46 43 -69 91q-301 -77 -419 -339q37 -5 74 -20z" />
</svg>
