<?xml version="1.0" standalone="no"?>
<!DOCTYPE svg PUBLIC "-//W3C//DTD SVG 1.1//EN" "http://www.w3.org/Graphics/SVG/1.1/DTD/svg11.dtd" >
<svg xmlns="http://www.w3.org/2000/svg" xmlns:xlink="http://www.w3.org/1999/xlink" version="1.1" viewBox="-10 0 1034 1024">
  <g transform="matrix(1 0 0 -1 0 820)">
   <path fill="currentColor"
d="M80 629q6 -54 6 -62l-1 -515q-1 -3 -2 -22q0 -1 -3 -13h50q-3 6 -4 36l-1 61h174l-4 -84q-1 -1 -1 -3h50q-3 6 -3 12q-3 60 -3 90l1 460q0 9 5 40q-33 -1 -65 -5q-129 0 -159 2q-12 3 -40 3zM125 150v441h174v-441h-174zM657 724q15 19 32 29q-30 9 -64 25
q-3 -22 -28 -76q-24 -55 -46 -89q-91 -150 -209 -213q27 -12 44 -28q37 31 70 63q30 31 64 73q33 40 56 76q24 37 59 102q111 -177 299 -296q27 36 46 47q-69 12 -133 62q-55 45 -105 105q-54 63 -85 120zM511 222q-6 0 -71 5q1 -33 5 -66l-1 -304q-1 -7 -2 -17q0 -7 -2 -13
h49q-3 6 -3 33q-1 16 -2 53h333q0 -51 -4 -68q0 -3 -2 -6h52q0 6 -2 12l-4 58l1 266q1 25 5 52q-24 -1 -37 -2q-27 -3 -35 -3h-280zM484 -51v237h333v-237h-333zM843 398q-45 -4 -66 -5l-270 3q-9 0 -24 2v-46q24 4 60 5l270 -1q6 0 14 -2q1 0 16 -2v46z" />
  </g>

</svg>
