<?xml version="1.0" standalone="no"?>
<!DOCTYPE svg PUBLIC "-//W3C//DTD SVG 1.1//EN" "http://www.w3.org/Graphics/SVG/1.1/DTD/svg11.dtd" >
<svg xmlns="http://www.w3.org/2000/svg" xmlns:xlink="http://www.w3.org/1999/xlink" version="1.1" viewBox="-10 0 1010 1000">
   <path fill="currentColor"
d="M562 -21q137 10 123 17q0 4 -6 10q-17 17 -20 42q-10 60 -10 254h174q99 1 121 -6v85q-44 -11 -119 -12h-176q4 173 41 274q78 -120 102 -218q104 45 99 50q-1 3 -9 6q-14 5 -17 11q-12 21 -32 58q-51 96 -107 161q70 98 117 103q20 -14 22 -97q12 8 30 19q44 31 59 32
q-34 139 -81 149q-82 9 -208 -147q-97 84 -195 139q-37 -38 -87 -65q112 -19 244 -139q-53 -131 -54 -336h-392q-92 0 -137 8v-85q68 9 135 10h99v-105h-62q-44 1 -123 8v-84q48 7 121 8h64v-37q2 -91 -6 -102q112 7 113 16q-1 2 -4 6q-24 26 -24 117h72q64 -1 97 -6v84
q-2 0 -5 -1q-58 -9 -94 -9h-70v105h216q0 -131 -4 -232q-1 -67 -7 -91zM796 58q25 34 87 145l-93 34q-22 -69 -76 -145zM121 455q33 5 133 6h115q87 -3 113 -6q-5 46 -8 115v129q0 32 6 99h-89q1 -6 2 -24q1 -13 2 -22h-189v13q-1 45 4 69h-93q10 -33 10 -125v-129
q-3 -93 -6 -125zM206 528v157h189v-157h-189z" />
</svg>
