<?xml version="1.0" standalone="no"?>
<!DOCTYPE svg PUBLIC "-//W3C//DTD SVG 1.1//EN" "http://www.w3.org/Graphics/SVG/1.1/DTD/svg11.dtd" >
<svg xmlns="http://www.w3.org/2000/svg" xmlns:xlink="http://www.w3.org/1999/xlink" version="1.1" viewBox="-10 0 1010 1000">
   <path fill="currentColor"
d="M714 4q12 0 34 1q68 0 65 9q1 3 -4 11q-13 27 -13 59v135q86 0 117 -10v87q-36 -6 -117 -6v226h33q73 0 113 -8v92q-50 -6 -130 -6h-262q-114 -1 -157 8v-88q13 2 37 3q11 1 27 1h43v-228q-69 0 -99 6v-83q30 6 99 6v-139q1 -56 -6 -72q99 0 101 8l-2 2q-18 24 -18 60
v141h145v-135q1 -70 -6 -80zM65 86q43 8 122 8h53q72 0 119 -6q-10 31 -10 160v318q0 92 8 131h-87q-1 0 1 -10q5 -38 5 -72h-129q0 78 6 114h-88q10 -39 10 -167v-268q0 -172 -10 -208zM278 157h-131v395h131v-395zM575 290v228h145v-228h-145zM528 617q24 14 63 34
q42 21 38 24q-2 5 -12 7q-22 5 -40 23q-130 131 -214 192q-21 -26 -87 -55q167 -65 252 -225zM748 621q101 85 196 197l-69 55q-70 -95 -188 -204z" />
</svg>
