<?xml version="1.0" standalone="no"?>
<!DOCTYPE svg PUBLIC "-//W3C//DTD SVG 1.1//EN" "http://www.w3.org/Graphics/SVG/1.1/DTD/svg11.dtd" >
<svg xmlns="http://www.w3.org/2000/svg" xmlns:xlink="http://www.w3.org/1999/xlink" version="1.1" viewBox="-10 0 1010 1000">
   <path fill="currentColor"
d="M601 -6q4 1 10 2q101 18 99 30q3 7 -9 10q-11 4 -13 8q74 225 286 312q-34 28 -62 74q-8 12 -9 11q-3 -2 -11 -8q-75 -52 -106 -83v65q-21 -6 -96 -6h-75q-69 0 -105 6v-55q-34 46 -75 91q-33 -34 -72 -54v167q0 110 8 163h-95q7 -54 8 -84h-119l6 113h-96
q10 -53 10 -162v-336q0 -102 -6 -158q24 9 125 10h20q80 0 145 -8q-6 32 -6 129v144q165 -106 238 -381zM649 112q-76 163 -129 226q24 3 89 4h76q13 0 56 -2q22 -1 35 -2q-93 -111 -127 -226zM284 177h-119v399h119v-399zM444 506q61 10 165 10h78q98 0 170 -8
q-8 47 -8 153v97q0 108 10 141h-99q10 -36 10 -73h-236q0 48 6 77h-96q8 -51 8 -155v-93q0 -105 -8 -149zM532 584v174h238v-174h-238z" />
</svg>
