<?xml version="1.0" standalone="no"?>
<!DOCTYPE svg PUBLIC "-//W3C//DTD SVG 1.1//EN" "http://www.w3.org/Graphics/SVG/1.1/DTD/svg11.dtd" >
<svg xmlns="http://www.w3.org/2000/svg" xmlns:xlink="http://www.w3.org/1999/xlink" version="1.1" viewBox="-10 0 1034 1024">
  <g transform="matrix(1 0 0 -1 0 820)">
   <path fill="currentColor"
d="M97 91q-4 -64 -5 -70h49q-6 60 -5 88v9h160q-3 -81 -5 -89h49q-3 7 -4 33l-1 518q0 33 5 68q-34 -1 -70 -5q-112 0 -139 2q-6 3 -39 3q1 -33 5 -68v-489zM136 154v453h159v-453h-159zM281 -116q30 -18 47 -32q34 27 65 59q27 27 58 65q33 37 46 56q37 58 44 62q7 9 30 18
q-42 18 -60 32q-3 -16 -28 -62q-27 -42 -59 -80q-75 -88 -143 -118zM504 236l-100 1q-6 1 -26 2q-6 0 -18 2v-46q51 4 62 5l492 -1q7 0 17 -2l17 -2v46l-43 -4l-139 -1v281q97 0 113 -2q4 0 23 -4v47q-33 -1 -66 -5h-71q0 178 3 185q1 10 13 23h-61q4 -49 5 -86v-122h-182
v136q0 21 4 39q1 16 12 29h-60q4 -49 5 -85v-119q-120 3 -126 5v-47q15 4 40 5l86 1v-281zM725 236h-181v281h181v-281zM717 156q-12 -15 -34 -35q54 -36 128 -117q49 -57 75 -88q18 -24 31 -42q12 18 34 36q-147 159 -178 191z" />
  </g>

</svg>
