<?xml version="1.0" standalone="no"?>
<!DOCTYPE svg PUBLIC "-//W3C//DTD SVG 1.1//EN" "http://www.w3.org/Graphics/SVG/1.1/DTD/svg11.dtd" >
<svg xmlns="http://www.w3.org/2000/svg" xmlns:xlink="http://www.w3.org/1999/xlink" version="1.1" viewBox="-10 0 1034 1024">
  <g transform="matrix(1 0 0 -1 0 820)">
   <path fill="currentColor"
d="M77 621q1 -25 5 -53l-1 -514q-1 -12 -4 -26q-1 -3 -1 -6h48q-6 54 -6 76v10h156v-34q0 -33 -3 -44q0 1 -2 -12h48q-3 21 -5 44l1 525l4 44q-28 -1 -58 -5l-143 1q-15 3 -40 4q0 -4 1 -10zM118 144v446h156v-446h-156zM453 637q24 3 50 5l78 8q33 3 72 9l137 20
q72 12 94 12q10 0 29 -2q-24 27 -41 56q-34 -16 -101 -32q-94 -19 -197 -30q-27 -3 -71 -5q-40 -3 -65 -3q-9 0 -28 3q1 -33 5 -69l-5 -346q-1 -6 -8 -70q-18 -132 -83 -226q-36 -54 -82 -81q42 -21 51 -27q25 31 43 55q39 55 65 113q40 90 51 244q6 102 6 136v230z
M534 -105q7 -9 18 -28q36 42 195 158q-3 30 -4 47q-39 -34 -74 -62q-36 -27 -90 -64v522q49 13 101 25q1 -31 8 -66q12 -108 27 -169q13 -63 39 -120q43 -111 154 -243q21 19 57 28q-34 15 -58 41q-13 12 -27 29q-12 15 -26 33q-60 87 -94 197l112 80q33 21 44 27q15 6 35 7
q-6 6 -15 16q-1 3 -5 5q-3 6 -9 13t-11 16q-24 -25 -53 -48l-107 -82q-24 99 -36 243l96 28q27 6 40 11l40 1q-18 21 -37 45q-54 -27 -150 -55q-66 -15 -111 -24q-39 -6 -57 -6q1 -28 5 -59l-1 -495q0 -3 -8 -18l-14 -14z" />
  </g>

</svg>
