<?xml version="1.0" standalone="no"?>
<!DOCTYPE svg PUBLIC "-//W3C//DTD SVG 1.1//EN" "http://www.w3.org/Graphics/SVG/1.1/DTD/svg11.dtd" >
<svg xmlns="http://www.w3.org/2000/svg" xmlns:xlink="http://www.w3.org/1999/xlink" version="1.1" viewBox="-10 0 1034 1024">
  <g transform="matrix(1 0 0 -1 0 820)">
   <path fill="currentColor"
d="M80 657l-1 -599q-1 -19 -4 -32h50q-3 12 -4 18q-3 54 -3 82v22h162l-4 -97q-1 -1 -1 -6h49q-4 19 -5 71v489q1 27 5 52h-244zM118 184v436h162v-436h-162zM792 342q9 18 26 33l-29 11q-12 4 -26 14q-39 -174 -132 -296q-58 72 -101 174q-19 54 -29 115q-21 -6 -52 -10
q7 -27 18 -51l36 -84q42 -93 100 -175q-24 -24 -44 -40q-12 -9 -42 -30q-78 -51 -132 -74q-70 -27 -132 -37q27 -24 43 -45q45 15 147 67q94 51 186 131q96 -84 166 -122q69 -40 146 -71q15 28 41 48q-51 4 -127 37q-115 54 -197 136q57 81 98 181q15 42 30 73zM495 606h-71
q-49 0 -72 6v-48q36 6 59 6h84v-51q0 -54 -6 -75h48q-6 48 -6 85v41h184l-4 -116q-1 -1 -1 -6h49q-4 18 -5 52l-1 70q133 0 151 -2q9 0 23 -4v48q-28 -6 -71 -6h-103v87q0 21 4 39q3 15 13 32h-60q4 -24 5 -70v-88h-184q0 102 3 107q0 13 5 26q1 12 10 22h-60q0 -6 3 -19
q3 -33 3 -50v-86z" />
  </g>

</svg>
