<?xml version="1.0" standalone="no"?>
<!DOCTYPE svg PUBLIC "-//W3C//DTD SVG 1.1//EN" "http://www.w3.org/Graphics/SVG/1.1/DTD/svg11.dtd" >
<svg xmlns="http://www.w3.org/2000/svg" xmlns:xlink="http://www.w3.org/1999/xlink" version="1.1" viewBox="-10 0 1010 1000">
   <path fill="currentColor"
d="M673 12q100 1 109 10q0 2 -7 11q-15 22 -15 33q-3 39 -4 110q-1 35 -2 53h44q53 0 123 -10v85q-3 0 -8 -1q-74 -5 -105 -5h-54l-4 79q163 243 192 302q-33 9 -83 46q-48 -122 -129 -252q-34 162 -119 267q-33 -30 -79 -43q140 -122 147 -397h-30q-69 0 -97 6v-83
q35 6 97 6h32q0 -168 -8 -217zM448 60l24 57q31 75 48 114l-83 27q-17 -75 -66 -174zM62 119q23 3 107 6h59q77 0 103 -4q-6 41 -8 143v320q0 55 1 78q1 29 5 49h-89q3 -19 6 -64h-99q0 98 6 125h-91q6 -53 7 -119v-387q-1 -110 -7 -147zM248 197h-103v379h103v-379z
M353 350q37 7 78 8q60 1 91 -8q-1 13 -4 61q-2 40 -4 64v256q70 113 472 47q-21 39 -38 99q-249 3 -339 -17q-41 -10 -91 -44q-36 -25 -54 -24q-31 3 -97 91q-15 -19 -52 -58l-11 -11q17 -12 55 -37q83 -54 79 -62v-288q-64 0 -85 6v-83z" />
</svg>
