<?xml version="1.0" standalone="no"?>
<!DOCTYPE svg PUBLIC "-//W3C//DTD SVG 1.1//EN" "http://www.w3.org/Graphics/SVG/1.1/DTD/svg11.dtd" >
<svg xmlns="http://www.w3.org/2000/svg" xmlns:xlink="http://www.w3.org/1999/xlink" version="1.1" viewBox="-10 0 1010 1000">
   <path fill="currentColor"
d="M845 50q-6 33 -6 109v199q-1 76 6 113q-44 -9 -89 -6h-91q3 71 51 150q62 -58 117 -134q75 47 82 61q-1 2 -7 4q-55 18 -150 119q78 76 206 109q-50 30 -75 78q-261 -123 -298 -387h-71v297q40 -24 117 -81q-2 45 16 87q-146 78 -189 125l-43 -75q30 -16 27 -70v-583
q0 -53 -1 -67q-1 -18 -5 -48q33 6 125 6h151q57 0 127 -6zM363 86q-6 45 -6 111v337q-1 102 8 141h-83q4 -48 4 -97h-109q0 89 6 143h-82q6 -47 6 -143v-383q0 -62 -6 -109q42 6 131 6q90 0 131 -6zM766 125h-248v102h248v-102zM286 155h-109v357h109v-357zM768 294h-248
v101h248v-101z" />
</svg>
