<?xml version="1.0" standalone="no"?>
<!DOCTYPE svg PUBLIC "-//W3C//DTD SVG 1.1//EN" "http://www.w3.org/Graphics/SVG/1.1/DTD/svg11.dtd" >
<svg xmlns="http://www.w3.org/2000/svg" xmlns:xlink="http://www.w3.org/1999/xlink" version="1.1" viewBox="-10 0 1034 1024">
  <g transform="matrix(1 0 0 -1 0 820)">
   <path fill="currentColor"
d="M424 -60q0 -18 -7 -34q-6 -7 -19 -20q16 -25 35 -51q24 27 47 45l102 70q21 15 78 51q-6 21 -13 49q-34 -37 -186 -135v405h145q36 -150 103 -250q66 -96 215 -201q21 31 51 47q-72 15 -140 76q-48 45 -65 65q-18 21 -49 65q30 25 62 50l66 53q36 28 69 35q-12 13 -40 52
q-6 -12 -54 -58q-39 -34 -120 -98q-39 69 -57 164l179 -1q15 0 44 -4q-4 52 -5 103l1 272l4 47q-31 -1 -63 -5l-344 1q-19 3 -44 4q1 -33 5 -69v-728zM461 356v150h366v-150h-366zM461 542v154h366v-154h-366zM84 140q-3 -51 -6 -63h49q-1 3 -1 6q-3 3 -5 59v2h170
q-3 -57 -5 -67q-1 0 -1 -1h49q-3 6 -5 58l1 493l4 47q-57 -6 -85 -6q-111 0 -136 2q-3 1 -15 2q-9 0 -20 2l6 -67v-467zM121 180v452h170v-452h-170z" />
  </g>

</svg>
