<?xml version="1.0" standalone="no"?>
<!DOCTYPE svg PUBLIC "-//W3C//DTD SVG 1.1//EN" "http://www.w3.org/Graphics/SVG/1.1/DTD/svg11.dtd" >
<svg xmlns="http://www.w3.org/2000/svg" xmlns:xlink="http://www.w3.org/1999/xlink" version="1.1" viewBox="-10 0 1034 1024">
  <g transform="matrix(1 0 0 -1 0 820)">
   <path fill="currentColor"
d="M342 -128l13 -13q37 54 68 75q24 18 44 19q10 0 37 -13q39 -21 69 -35q28 -12 54 -20q70 -21 197 -22l120 2q3 3 4 9l13 31l10 21q-36 -12 -80 -17q-45 -3 -89 -4q-75 0 -127 9q-63 12 -130 48q-27 13 -42 21q-6 3 -25 10l1 341l4 50q-66 -6 -94 -6l-40 3l-13 3v-46
q25 4 66 5h38v-356q-24 -9 -41 -22l-60 -52q-13 -13 -22 -18q4 -4 13 -10q6 -6 12 -13zM517 540l-71 88q-21 28 -38 48q-12 15 -32 33q-6 -9 -19 -21q-7 -6 -10 -8q66 -60 138 -170q24 24 32 30zM523 13q12 -4 30 -17q33 36 55 64q18 24 37 53q42 72 70 183q33 -43 74 -102
q45 -66 70 -115q18 -30 35 -61q16 12 34 27l-100 160q-9 13 -15 21l-90 125l8 126q157 0 169 -2q12 0 22 -3v47q-9 -3 -59 -6h-132v157q0 18 3 36q1 18 11 40h-57q1 -37 5 -76v-157q-93 0 -122 2q-4 1 -7 1t-13 3v-47q25 4 67 5h75q-3 -96 -20 -184q-21 -117 -98 -207
q-25 -27 -80 -61q13 -6 28 -12zM85 54q-3 -33 -3 -57q-1 -3 -2 -8q-1 -1 -1 -5h49q-3 12 -4 29q-1 36 -3 74v8h139q-3 -78 -5 -88q-1 0 -1 -2h50q-6 18 -6 69l1 501q1 24 5 49q-36 -1 -72 -5q-84 0 -115 2q-9 3 -38 3l6 -68v-502zM260 583v-452h-139v452h139z" />
  </g>

</svg>
