<?xml version="1.0" standalone="no"?>
<!DOCTYPE svg PUBLIC "-//W3C//DTD SVG 1.1//EN" "http://www.w3.org/Graphics/SVG/1.1/DTD/svg11.dtd" >
<svg xmlns="http://www.w3.org/2000/svg" xmlns:xlink="http://www.w3.org/1999/xlink" version="1.1" viewBox="-10 0 1034 1024">
  <g transform="matrix(1 0 0 -1 0 820)">
   <path fill="currentColor"
d="M91 644q3 -24 3 -65l-1 -467q-1 -7 -2 -27q0 -6 -2 -13h49q-6 60 -5 113h143q0 -84 -5 -95h50q0 1 -5 31l-1 489l6 65q-33 -1 -65 -5q-96 0 -126 2q-4 1 -7 1q-15 0 -34 2q0 -15 2 -31zM133 221v413h142v-413h-142zM517 -52l-251 5v-47q7 1 17 3q21 3 20 2l583 1
q37 0 58 -4q1 0 7 -2v47q-21 -4 -65 -5h-172v714q141 0 171 -3q3 0 13 -2v46q-45 -4 -65 -5q-448 3 -467 5v-46q55 6 92 5h59v-714zM554 -52v714h121v-714h-121zM383 469q-10 -6 -28 -12q-9 0 -13 -4q24 -46 55 -135q27 -79 45 -167q21 9 42 14q-15 58 -44 147
q-30 90 -57 157zM847 297q1 4 3 8q3 6 9 21q12 30 25 59q12 33 42 59q-15 4 -28 11q-13 4 -32 15q-3 -15 -21 -72q-19 -61 -57 -137q-18 -39 -44 -78q-9 -9 -19 -22q27 -3 54 -13z" />
  </g>

</svg>
