<?xml version="1.0" standalone="no"?>
<!DOCTYPE svg PUBLIC "-//W3C//DTD SVG 1.1//EN" "http://www.w3.org/Graphics/SVG/1.1/DTD/svg11.dtd" >
<svg xmlns="http://www.w3.org/2000/svg" xmlns:xlink="http://www.w3.org/1999/xlink" version="1.1" viewBox="-10 0 1010 1000">
   <path fill="currentColor"
d="M627 -39q35 48 65 121l-77 28q-27 -64 -63 -118zM331 92q-6 27 -6 137v337q0 83 6 127h-79q2 -17 3 -40q1 -11 1 -25v-38h-105q0 91 6 127h-80q6 -45 6 -143v-351q0 -97 -6 -131q40 7 126 7t128 -7zM917 113v76q-15 -2 -37 -3q-18 -1 -61 -1q-51 95 -115 157
q104 56 234 61q-31 43 -37 85q-139 -26 -258 -97q-107 63 -252 113q-14 -40 -54 -75q133 -23 242 -83q-85 -69 -127 -161q-41 0 -58 1q-20 1 -33 3v-76q36 6 139 6h302q90 0 115 -6zM256 163h-105v363h105v-363zM740 185h-214q37 72 113 123q61 -50 101 -123zM718 492
q53 0 70 2q22 2 24 8q0 1 -2 5q-14 25 -14 95v180q0 71 6 123h-84q6 -38 6 -121v-182v-14q1 -61 -6 -96zM476 490q78 1 93 10q1 1 -2 8q-12 29 -11 72q4 131 -38 187q-35 57 -183 138q-17 -36 -73 -69q199 -65 216 -173q11 -85 -2 -173z" />
</svg>
