<?xml version="1.0" standalone="no"?>
<!DOCTYPE svg PUBLIC "-//W3C//DTD SVG 1.1//EN" "http://www.w3.org/Graphics/SVG/1.1/DTD/svg11.dtd" >
<svg xmlns="http://www.w3.org/2000/svg" xmlns:xlink="http://www.w3.org/1999/xlink" version="1.1" viewBox="-10 0 1010 1000">
   <path fill="currentColor"
d="M490 26q9 1 71 5q28 2 44 3h89q6 -1 41 -2q56 -2 80 -4q-10 40 -13 87q0 2 -2 69q-2 55 -2 56q-4 45 9 53q14 13 58 5q13 -2 32 -4q34 -4 51 -10q-22 56 -23 99q-60 2 -51 2h-29h-39q-55 -1 -73 -18q-18 -15 -15 -61v-200h-145q3 145 -26 198q-30 65 -126 117
q-22 -44 -70 -69q102 -28 127 -93q14 -32 16 -83q3 -41 -4 -150zM73 66q36 7 100 8h75q67 1 107 -8q-8 27 -8 79v377q0 84 8 127h-89q5 -27 6 -71h-115q1 13 3 54q2 45 3 57h-88q7 -41 6 -161v-379q0 -54 -8 -83zM157 137v377h115v-377h-115zM591 346q69 -4 101 6q0 3 -4 9
q-21 37 -21 110h101q110 0 153 -10v81q-31 -8 -143 -8h-34q79 161 216 216q-44 35 -73 82q-158 -127 -216 -310v232q0 89 8 131h-88q5 -24 7 -54q0 -14 1 -32v-45v-228q-99 201 -262 304q-30 -42 -75 -66q164 -65 256 -230h-24q-45 -2 -119 8v-81q51 9 125 10h97
q0 -82 -6 -125z" />
</svg>
