<?xml version="1.0" standalone="no"?>
<!DOCTYPE svg PUBLIC "-//W3C//DTD SVG 1.1//EN" "http://www.w3.org/Graphics/SVG/1.1/DTD/svg11.dtd" >
<svg xmlns="http://www.w3.org/2000/svg" xmlns:xlink="http://www.w3.org/1999/xlink" version="1.1" viewBox="-10 0 1010 1000">
   <path fill="currentColor"
d="M125 36q18 3 97 4h133q74 0 97 -4q-4 22 -4 81v123q0 54 4 82q-22 -3 -99 -4h-137l-91 4l4 -82v-115q0 -70 -4 -89zM530 36q24 3 93 4h147q74 0 101 -4q-4 18 -4 81v121q0 57 4 82q-28 -3 -105 -4h-135q-71 0 -101 4q4 -12 4 -78v-125q0 -63 -4 -81zM212 112v134h153
v-134h-153zM617 112v132h167v-132h-167zM438 330q121 -1 118 10q0 1 -5 8q-18 23 -21 41q-5 34 -10 86h254q81 -1 145 -10v91q-22 -9 -145 -10h-220q95 200 404 226q-44 38 -71 107q-289 -65 -387 -309q-74 238 -389 319q-18 -51 -75 -97q301 -8 395 -246h-213
q-108 1 -141 8v-89q38 9 143 10h222v-25q3 -84 -4 -120zM742 332q27 39 58 101l-92 26q-23 -59 -57 -103z" />
</svg>
