<?xml version="1.0" standalone="no"?>
<!DOCTYPE svg PUBLIC "-//W3C//DTD SVG 1.1//EN" "http://www.w3.org/Graphics/SVG/1.1/DTD/svg11.dtd" >
<svg xmlns="http://www.w3.org/2000/svg" xmlns:xlink="http://www.w3.org/1999/xlink" version="1.1" viewBox="-10 0 1034 1024">
  <g transform="matrix(1 0 0 -1 0 820)">
   <path fill="currentColor"
d="M667 398h138l-1 -506l-2 -26l-2 -11h48q-1 3 -1 5q0 1 -4 53v485q54 0 110 -3q1 0 4 -2q3 0 5 -1v47q-9 -3 -23 -3q-19 0 -41 -2h-231v216q96 7 189 22q37 4 52 5q10 0 24 -1q-12 18 -14 24q-3 9 -11 29q-39 -15 -78 -23q-43 -9 -93 -15q-46 -6 -78 -6q-12 0 -34 2
q1 -30 5 -60v-419q0 -118 -28 -195q-19 -54 -49 -89q-19 -21 -45 -32q24 -12 49 -34q37 51 55 85q55 114 56 268v187zM74 608q1 -31 5 -65q-3 -513 -5 -527h49q0 1 -5 31l-1 79h126q-1 -30 -3 -63q0 -3 -2 -11h49q-1 3 -2 5q0 1 -4 54l1 451q1 22 5 46q-28 -1 -57 -5
q-97 0 -122 2q-6 3 -34 3zM117 161v406h126v-406h-126zM441 -68q0 -27 -16 -33q-18 -6 -44 -6q-15 0 -58 7q7 -22 11 -49q45 1 59 3q55 3 73 21q12 15 13 38v338q67 39 125 62q-9 25 -14 43q-36 -24 -54 -35q-13 -6 -29 -14q-12 -7 -28 -15v205l108 -3q3 -1 7 -3v47
q-6 -1 -12 -3q-12 0 -51 -3h-52v151q0 36 14 67h-57l5 -107v-111l-107 3q-10 1 -16 3v-47q9 4 43 5l80 1v-222q-78 -40 -127 -50q13 -21 23 -46q30 18 104 55v-302z" />
  </g>

</svg>
