<?xml version="1.0" standalone="no"?>
<!DOCTYPE svg PUBLIC "-//W3C//DTD SVG 1.1//EN" "http://www.w3.org/Graphics/SVG/1.1/DTD/svg11.dtd" >
<svg xmlns="http://www.w3.org/2000/svg" xmlns:xlink="http://www.w3.org/1999/xlink" version="1.1" viewBox="-10 0 1010 1000">
   <path fill="currentColor"
d="M548 -6q96 0 99 10q1 5 -6 14q-16 21 -16 44v57q7 -1 30 -2q62 -4 81 -7v77q-20 -4 -59 -7q-35 -2 -50 -1v107h50q82 -96 146 -240q95 47 90 54q-3 4 -12 8q-21 8 -38 31q-64 96 -105 147h52q44 2 134 -8v80q-66 -8 -138 -10h-92q-38 38 -93 89h155q72 -3 107 -12v85
q-4 1 -13 2q-19 1 -39 10q-69 35 -115 74v27h74q93 -1 147 -8v82q-57 -8 -147 -10h-72v153q8 58 -136 67q-10 1 -15 2q-3 -49 -35 -99q102 23 111 -12v-111h-80q-94 2 -152 8v-80q32 7 151 8h83v-57q-5 -5 61 -38q37 -19 62 -32h-208q-37 26 -156 108q7 -5 -13 9
q-26 -45 -48 -51q1 51 8 115h-85q0 -4 2 -16q4 -32 4 -63h-115v19q1 70 8 108h-90q8 -69 8 -177v-391q0 -36 -8 -69q67 8 82 8h113q52 -1 81 -8q-8 29 -8 77v385q49 -20 104 -56q13 -8 21 -13v-54l62 6q15 -12 65 -59q19 -18 30 -28h-107q-104 3 -143 10v-78q32 6 147 8h34
v-107h-30q-45 -1 -111 8v-77q91 11 113 9h26v-65q0 -36 -6 -60zM272 163h-117v367h117v-367z" />
</svg>
