<?xml version="1.0" standalone="no"?>
<!DOCTYPE svg PUBLIC "-//W3C//DTD SVG 1.1//EN" "http://www.w3.org/Graphics/SVG/1.1/DTD/svg11.dtd" >
<svg xmlns="http://www.w3.org/2000/svg" xmlns:xlink="http://www.w3.org/1999/xlink" version="1.1" viewBox="-10 0 1034 1024">
  <g transform="matrix(1 0 0 -1 0 820)">
   <path fill="currentColor"
d="M787 298l169 -3q6 0 10 -2v47q-9 -3 -59 -6l-810 1q-9 1 -17 2q-3 0 -13 3v-47q27 4 67 5h615v-360q0 -28 -14 -38q-15 -7 -51 -8q-30 0 -63 7q15 -27 25 -55q12 0 24 3q49 4 61 8q33 7 46 27q9 12 10 54v362zM138 374q150 99 176 258h152q0 -57 -3 -97q0 -33 -4 -55
q-4 -28 -20 -36q-13 -6 -45 -7q-24 0 -55 5q3 -6 7 -10q1 -3 3 -6q3 -18 10 -36l18 2q12 0 28 2q66 6 84 42q3 4 6 20q3 21 5 65l7 113q3 21 7 40q-72 -6 -106 -6h-91q6 60 10 74q3 15 22 31l-68 4q3 -27 3 -50q-4 -31 -5 -59h-99q-33 0 -55 3q-6 0 -14 3v-47q27 4 67 5h98
q-10 -72 -53 -131q-55 -73 -130 -92q22 -16 45 -35zM224 219l5 -121q0 -28 -5 -105q34 3 71 5l230 -1l57 -4q-4 24 -5 65q0 105 2 118q0 6 3 43q-36 -1 -74 -5l-235 1q-19 3 -49 4zM266 34v145h272v-145h-272zM604 511q-3 -36 -5 -74q15 3 60 4l141 1q36 -1 74 -5
q-4 60 -5 116q0 97 2 111q0 21 3 42q-36 -1 -74 -5l-150 1q-3 0 -51 4q1 -34 5 -71v-124zM642 478v188h189v-188h-189z" />
  </g>

</svg>
