<?xml version="1.0" standalone="no"?>
<!DOCTYPE svg PUBLIC "-//W3C//DTD SVG 1.1//EN" "http://www.w3.org/Graphics/SVG/1.1/DTD/svg11.dtd" >
<svg xmlns="http://www.w3.org/2000/svg" xmlns:xlink="http://www.w3.org/1999/xlink" version="1.1" viewBox="-10 0 1010 1000">
   <path fill="currentColor"
d="M385 34q48 9 147 10h276q92 0 148 -12v89q-30 -10 -146 -9h-118v77h78q97 0 139 -6q-8 22 -8 139v85q0 94 8 141q-51 -8 -117 -8h-104q-11 90 -45 157q190 85 337 75q-33 46 -55 105q-173 -30 -324 -123q-69 84 -254 133q-21 -46 -61 -75q174 -11 250 -93
q-72 -58 -125 -107l67 -40q34 40 101 87q22 -38 34 -119h-155q-15 -1 -37 4q-7 1 -10 2q8 -68 8 -147v-101q0 -90 -10 -119q72 10 133 10h77v-77h-81q-107 0 -153 7v-85zM77 92q35 8 113 8h52q63 0 103 -10q-10 31 -10 170v244q0 138 12 177h-95q8 -27 8 -85h-97
q-2 100 10 133h-98q10 -33 10 -151v-334q0 -96 -8 -152zM161 163v369h99v-369h-99zM619 248h-125v86h125v-86zM692 248v86h133v-86h-133zM494 393v88h125v-88h-125zM690 393v88h135v-88h-135z" />
</svg>
