<?xml version="1.0" standalone="no"?>
<!DOCTYPE svg PUBLIC "-//W3C//DTD SVG 1.1//EN" "http://www.w3.org/Graphics/SVG/1.1/DTD/svg11.dtd" >
<svg xmlns="http://www.w3.org/2000/svg" xmlns:xlink="http://www.w3.org/1999/xlink" version="1.1" viewBox="-10 0 1010 1000">
   <path fill="currentColor"
d="M587 -15q111 40 105 51q0 3 -7 4q-24 6 -42 28q-94 111 -143 153l278 -6q-53 -73 -84 -102l74 -35q90 106 151 220l-84 34q-3 -11 -18 -43q-5 -10 -7 -15q-308 0 -395 19q-6 1 -8 1q-10 -60 -24 -85q115 -32 204 -224zM77 86q42 8 113 8h38q89 0 113 -8q-10 47 -10 174
v288q0 125 8 161h-89q-1 0 1 -7q9 -40 9 -83h-105q0 102 8 137h-92q12 -50 12 -158v-379q0 -94 -6 -133zM155 161v391h105v-391h-105zM480 300q89 22 89 28q0 3 -7 7q-13 9 -20 19q-6 7 -14 19q-8 10 -10 12h222q78 0 129 -6v80q-32 -9 -131 -8h-61q-2 15 -5 48q-6 52 -7 67
h141q89 -1 131 -10v83q-34 -8 -135 -8h-92q49 142 246 197q-52 36 -77 83q-197 -102 -230 -284q-55 214 -270 284q-34 -47 -87 -79q241 -46 279 -203h-63l-141 8v-79q71 8 137 8h81q13 -70 12 -117h-113q-6 9 -19 29q-20 31 -32 48l-72 -32q78 -79 119 -194z" />
</svg>
