<?xml version="1.0" standalone="no"?>
<!DOCTYPE svg PUBLIC "-//W3C//DTD SVG 1.1//EN" "http://www.w3.org/Graphics/SVG/1.1/DTD/svg11.dtd" >
<svg xmlns="http://www.w3.org/2000/svg" xmlns:xlink="http://www.w3.org/1999/xlink" version="1.1" viewBox="-10 0 1034 1024">
  <g transform="matrix(1 0 0 -1 0 820)">
   <path fill="currentColor"
d="M545 337v-88l-239 5v-46q31 4 68 5h171v-97l-180 1q-19 3 -47 4q1 -39 5 -79l-1 -176q-3 -6 -3 -38q-1 -3 -1 -8h48q-4 21 -6 75h450q-1 -27 -3 -57q0 -6 -1 -14h48q-4 37 -5 75l1 163l4 59q-39 -1 -78 -5h-192v97l207 -1q18 0 50 -4q-4 57 -5 113v16q72 0 94 -2
q19 0 34 -4v47q-55 -4 -92 -5h-36l5 132q-21 -1 -35 -2q-25 -3 -34 -3h-188v102l308 -1q3 0 43 -4v46q-55 -4 -66 -5h-249q0 3 2 4q3 9 12 18q3 3 5 6q1 3 8 12l-66 44l-82 46q-4 -12 -30 -40q39 -13 82 -40q31 -18 66 -50l-384 1q-19 3 -54 4l6 -76v-212q0 -121 -21 -236
q-19 -99 -59 -180q-22 -45 -51 -76q39 -1 62 -8q57 126 79 222q19 94 27 260h323zM222 373v229h323v-102l-207 1q-7 1 -21 2l-11 2v-46q31 4 68 5h171v-91h-323zM359 -69v149h451v-149h-451zM584 249v88h214v-88h-214zM584 373v91h214v-91h-214z" />
  </g>

</svg>
