<?xml version="1.0" standalone="no"?>
<!DOCTYPE svg PUBLIC "-//W3C//DTD SVG 1.1//EN" "http://www.w3.org/Graphics/SVG/1.1/DTD/svg11.dtd" >
<svg xmlns="http://www.w3.org/2000/svg" xmlns:xlink="http://www.w3.org/1999/xlink" version="1.1" viewBox="-10 0 1034 1024">
  <g transform="matrix(1 0 0 -1 0 820)">
   <path fill="currentColor"
d="M599 485v-99l-229 1q-9 1 -20 2q-3 0 -13 3v-47q25 4 66 5h158q-69 -111 -147 -190q-40 -37 -68 -56q-27 -15 -79 -37q7 -6 16 -12t20 -13l13 -13q9 10 51 40q18 15 75 67l75 75h234q-48 -97 -123 -167q-69 72 -100 127q-6 -3 -11 -10q-9 -9 -28 -19q12 -10 20 -21
q6 -6 36 -42q27 -33 54 -60q-63 -54 -157 -94q-88 -37 -151 -45q22 -19 42 -45l16 8q159 60 279 148q55 -42 115 -71q66 -30 174 -68q15 30 41 54q-84 7 -161 33q-93 36 -141 80q87 84 161 233q-42 -1 -84 -5h-191q3 6 8 11l15 21q15 24 31 52q6 10 12 19l308 -3q6 0 10 -2
v47q-7 -3 -12 -3q-30 -1 -56 -3h-221v99q180 0 186 -3q1 3 12 -1q3 0 7 -1v47q-7 -1 -59 -6h-146v98l204 -1q1 0 30 -6v48q-66 -6 -89 -6h-145v42q0 16 3 36q1 21 10 39h-56q4 -42 5 -86v-31q-184 0 -202 3q-6 0 -16 3v-48q6 4 20 5l87 2h111v-98q-133 0 -162 2q-4 1 -7 1
t-13 3v-47q30 4 42 5h140zM100 97q-3 -33 -3 -57q0 -3 -3 -13h48q-3 21 -5 70v57h128l-5 -53h48q0 9 -2 14q0 21 -3 39l1 464q0 19 4 48q-66 -4 -106 -5l-108 5l6 -69v-500zM137 190v435h128v-435h-128z" />
  </g>

</svg>
