<?xml version="1.0" standalone="no"?>
<!DOCTYPE svg PUBLIC "-//W3C//DTD SVG 1.1//EN" "http://www.w3.org/Graphics/SVG/1.1/DTD/svg11.dtd" >
<svg xmlns="http://www.w3.org/2000/svg" xmlns:xlink="http://www.w3.org/1999/xlink" version="1.1" viewBox="-10 0 1034 1024">
  <g transform="matrix(1 0 0 -1 0 820)">
   <path fill="currentColor"
d="M364 66q37 10 51 11q15 3 140 15v-136q0 -46 16 -66q21 -27 85 -32l102 -3q48 0 82 6q39 7 68 35q19 21 45 75q-12 6 -19 13l-27 28q0 -19 -4 -34q-6 -27 -24 -49q-31 -36 -138 -36q-39 0 -78 3q-24 1 -40 8q-30 10 -30 53v139q267 25 301 26q24 0 49 -2q-3 27 -5 54
q-16 -6 -55 -13q-9 -1 -20 -3l-270 -28q0 96 3 106q1 15 10 29h-56q1 -36 5 -75v-63l-123 -10q-25 -1 -44 -3q-10 0 -30 2zM420 378q-3 -36 -5 -75q15 3 57 4l326 1q28 0 75 -5q-3 19 -4 61l-1 218q0 36 5 70q-37 -1 -75 -5h-218q6 9 12 17q34 51 71 61q-37 24 -56 40
q-15 -42 -76 -118l-116 5q1 -34 5 -70v-204zM457 344v114h373v-114h-373zM457 494v117h373v-117h-373zM82 598q3 -24 3 -36l-5 -525q-1 -3 -2 -8h49q-6 54 -6 85v13h154q-3 -81 -5 -92h48q-3 12 -3 29l-2 72l1 447l4 48q-36 -1 -71 -5q-100 0 -127 2q-6 3 -42 3q1 -16 4 -33
zM121 162v428h154v-428h-154z" />
  </g>

</svg>
