<?xml version="1.0" standalone="no"?>
<!DOCTYPE svg PUBLIC "-//W3C//DTD SVG 1.1//EN" "http://www.w3.org/Graphics/SVG/1.1/DTD/svg11.dtd" >
<svg xmlns="http://www.w3.org/2000/svg" xmlns:xlink="http://www.w3.org/1999/xlink" version="1.1" viewBox="-10 0 1010 1000">
   <path fill="currentColor"
d="M542 -6q110 25 103 30q0 3 -6 6q-17 8 -32 26q-7 8 -24 35q-8 13 -12 19h110q86 -1 150 -10q-48 93 -123 180h52q92 0 113 -6q-8 36 -8 131v137q45 0 87 -8v85q-37 -6 -144 -6h-98q49 136 254 205q-46 27 -77 83q-174 -92 -234 -270q-52 183 -276 272q-37 -44 -87 -73
q236 -38 293 -217h-89q-81 0 -127 7q-7 1 -10 1v-83q32 8 72 8v-153q0 -81 -6 -117q8 1 21 2q14 2 16 2h159q84 -107 75 -107h-160q-32 54 -74 103q-53 -24 -89 -36q111 -81 171 -246zM83 90q39 6 111 6h32q72 -1 119 -4q-12 29 -12 131v327q0 107 8 143h-89q8 -32 8 -72
h-99q0 79 6 117h-90q12 -44 12 -162v-324q0 -116 -6 -162zM262 159h-101v399h101v-399zM601 344h-97v202h91q4 -57 5 -101q1 -22 1 -45v-56zM790 344h-111q0 103 -8 202h119v-202z" />
</svg>
