<?xml version="1.0" standalone="no"?>
<!DOCTYPE svg PUBLIC "-//W3C//DTD SVG 1.1//EN" "http://www.w3.org/Graphics/SVG/1.1/DTD/svg11.dtd" >
<svg xmlns="http://www.w3.org/2000/svg" xmlns:xlink="http://www.w3.org/1999/xlink" version="1.1" viewBox="-10 0 1010 1000">
   <path fill="currentColor"
d="M621 -10q99 1 109 10q1 3 -4 9q-24 29 -24 91v184h90q89 -6 113 -6q-6 31 -6 125v157q1 67 6 107h-92q5 -30 6 -105v-210h-299v226l6 91h-93q6 -49 7 -131v-155v-13q1 -71 -5 -92q25 6 115 6h77v-192q-1 -84 -6 -102zM853 46q77 38 78 54q-1 2 -8 5q-18 9 -30 26
q-4 6 -19 25q-48 64 -64 92q-28 -27 -64 -41q62 -59 107 -161zM480 52q51 73 105 157l-69 33q-26 -67 -105 -152zM89 92q30 3 109 4h54q23 -1 59 -2q26 -2 50 -2q-5 43 -6 123v355q1 72 6 113h-89q8 -38 8 -91h-109q0 113 6 143h-90q8 -40 8 -129v-387q0 -97 -6 -127z
M280 163h-111v361h111v-361zM623 401q111 7 105 16q-1 2 -6 10q-10 15 -10 20q-14 228 -77 303q-59 87 -262 155q-24 -47 -69 -83q195 -18 266 -115q73 -93 53 -306zM738 681q42 27 131 81q71 43 107 66l-73 69q-78 -80 -216 -155z" />
</svg>
