<?xml version="1.0" standalone="no"?>
<!DOCTYPE svg PUBLIC "-//W3C//DTD SVG 1.1//EN" "http://www.w3.org/Graphics/SVG/1.1/DTD/svg11.dtd" >
<svg xmlns="http://www.w3.org/2000/svg" xmlns:xlink="http://www.w3.org/1999/xlink" version="1.1" viewBox="-10 0 1010 1000">
   <path fill="currentColor"
d="M593 -2q88 17 95 24q0 1 -3 4q-27 24 -48 89h143q90 0 119 -5q-7 41 -8 132v98q1 96 6 137q-39 -6 -143 -6h-187q-130 0 -148 6q5 -31 6 -121v-119q-2 -90 -6 -127q33 5 115 5h29q17 -39 30 -117zM85 113q11 0 55 2q32 1 52 2h64q79 -1 103 -4q-7 49 -8 124v384
q1 75 6 110h-87q6 -30 6 -108h-107v38q0 40 5 109q1 8 1 12h-94q9 -34 10 -127v-415q-2 -95 -6 -127zM504 179v89h308v-89h-308zM167 183v375h109v-375h-109zM504 326v81h308v-81h-308zM575 487q91 2 98 11q1 2 -2 8q-12 34 -12 90l182 -28q7 -1 23 -4q60 -12 78 -18l12 81
q-16 -1 -78 4q-18 1 -25 2l-194 30v107q-1 38 10 47q9 10 49 9h54q51 1 68 -20q19 -17 29 -85q16 25 54 47q15 8 25 14q-18 68 -51 90q-31 24 -107 23h-82q-84 1 -103 -17q-23 -15 -22 -78v-129l-89 14q-64 13 -105 24l-12 -80q19 2 38 0q20 -2 75 -10l93 -13
q1 -101 -6 -119z" />
</svg>
