<?xml version="1.0" standalone="no"?>
<!DOCTYPE svg PUBLIC "-//W3C//DTD SVG 1.1//EN" "http://www.w3.org/Graphics/SVG/1.1/DTD/svg11.dtd" >
<svg xmlns="http://www.w3.org/2000/svg" xmlns:xlink="http://www.w3.org/1999/xlink" version="1.1" viewBox="-10 0 1034 1024">
  <g transform="matrix(1 0 0 -1 0 820)">
   <path fill="currentColor"
d="M695 373q39 -70 104 -130q45 -40 107 -82q21 24 47 41q-52 12 -119 62q-63 52 -92 109l171 -1l35 -6v48q-13 -1 -27 -5q-18 -1 -40 -2h-319q3 6 9 21l3 5l12 39l9 30q256 -3 263 -6v47q-33 -1 -66 -5h-188q3 15 8 32q3 19 11 57l258 -1q6 0 30 -5v48q-9 -3 -64 -6h-220
q0 10 1 20q3 40 7 51q3 10 22 31q-15 0 -68 9q1 -10 2 -27q0 -27 -5 -84l-207 1l-29 5v-48q7 3 26 4l140 2h65q-3 -33 -18 -89q-126 0 -155 2q-3 1 -6 1t-13 2v-47q6 3 28 4q27 1 136 2q-15 -52 -34 -95q-174 0 -192 3q-6 0 -16 4v-48q1 0 3 1q3 3 10 3q21 0 55 3h120
q-85 -139 -217 -167q33 -24 46 -44q81 52 129 97q49 48 90 114h148zM587 52l-229 1q-9 1 -16 2q-3 0 -13 2v-47q6 3 27 4q19 1 41 2h190l-1 -143q-3 -25 -4 -43h48q-3 31 -5 64v122l251 -1q6 0 30 -5v47q-33 -1 -67 -5h-214v109h102q25 0 53 -3l15 -2v46q-30 -4 -68 -5h-102
q0 87 3 97q1 13 10 25h-56q0 -12 2 -25q0 -36 3 -75v-22q-112 0 -138 2l-19 3v-46q25 4 69 5h88v-109zM85 637q3 -24 3 -36l-5 -575q-1 0 -1 -2h48q-6 66 -5 88v34h117l-4 -85q-1 -1 -1 -6h48q-3 12 -3 30l-2 73l1 464q0 19 4 48q-36 -1 -71 -5q-66 0 -91 2q-6 3 -41 3z
M125 182v447h117v-447h-117z" />
  </g>

</svg>
