<?xml version="1.0" standalone="no"?>
<!DOCTYPE svg PUBLIC "-//W3C//DTD SVG 1.1//EN" "http://www.w3.org/Graphics/SVG/1.1/DTD/svg11.dtd" >
<svg xmlns="http://www.w3.org/2000/svg" xmlns:xlink="http://www.w3.org/1999/xlink" version="1.1" viewBox="-10 0 1034 1024">
  <g transform="matrix(1 0 0 -1 0 820)">
   <path fill="currentColor"
d="M89 637q0 -31 2 -65v-462q0 -48 -5 -71h48q-4 60 -5 115h139q-1 -61 -5 -78h47q-1 3 -2 13q-3 39 -3 57v426q0 33 2 65l-124 -2zM129 190v409h139v-409h-139zM436 548h454q-19 -48 -45 -76q27 -6 43 -20q12 33 34 75q6 18 32 62q-49 -4 -66 -5h-238v83h166q31 0 62 -5v46
q-36 -4 -64 -5h-161q0 21 3 39q1 15 11 31h-59q6 -27 7 -61v-128l-186 1q-1 0 -41 4q9 -63 9 -163q0 -66 -3 -152q-1 -72 -6 -125q-4 -46 -13 -80q-19 -82 -79 -149q-31 -33 -69 -51q33 -6 58 -27q52 61 86 112q30 51 43 105q12 58 16 155q3 57 4 137zM743 154v-214
q0 -40 27 -58q22 -13 78 -14q61 0 82 34q15 24 34 97q-19 4 -45 27q-6 -79 -20 -98q-12 -21 -53 -21q-51 0 -60 14q-6 10 -7 43q0 177 2 191l4 40q-37 -1 -75 -5l-125 1q-19 3 -48 4q6 -57 7 -99q0 -45 -5 -80q-12 -63 -58 -100q-22 -16 -81 -40q30 -12 44 -36q33 22 45 34
q3 3 7 5q54 45 71 106q13 46 14 117l-1 52h163zM477 397q0 -15 -3 -30q25 12 67 18q37 3 71 9v-61q0 -46 21 -60q24 -18 98 -18q99 0 134 36q18 21 35 79q-24 3 -43 23q-3 -37 -7 -53q-9 -28 -37 -40q-22 -7 -80 -8q-36 0 -56 4q-28 9 -29 40v62q7 0 195 20q-1 6 -7 44
q-61 -18 -188 -30q0 58 5 69q3 10 12 23h-59q6 -24 6 -60v-36q-33 -6 -56 -7q-36 -1 -46 -2q-10 0 -36 3z" />
  </g>

</svg>
