<?xml version="1.0" standalone="no"?>
<!DOCTYPE svg PUBLIC "-//W3C//DTD SVG 1.1//EN" "http://www.w3.org/Graphics/SVG/1.1/DTD/svg11.dtd" >
<svg xmlns="http://www.w3.org/2000/svg" xmlns:xlink="http://www.w3.org/1999/xlink" version="1.1" viewBox="-10 0 1034 1024">
  <g transform="matrix(1 0 0 -1 0 820)">
   <path fill="currentColor"
d="M508 780q-7 -15 -28 -34q57 -33 120 -107q10 15 32 31q-9 7 -19 17l-62 59q-21 13 -43 34zM214 231q0 -31 -4 -52h45q-3 13 -4 52h635q30 0 63 -5v46l-106 -5h-269v87h220q33 0 61 -5v46q-33 -4 -63 -5h-218v80h215q31 0 62 -5v46q-34 -4 -63 -5h-214v84h269q30 0 63 -5
v46q-39 -4 -64 -5h-572q18 30 40 62q24 36 49 42q-9 6 -18 11q-24 10 -44 25q-12 -37 -31 -75q-18 -34 -65 -100q-63 -84 -89 -113q-30 -30 -68 -51q30 -12 51 -29q12 9 22 22l97 119v-308zM535 267h-284v87h284v-87zM251 390v80h284v-80h-284zM251 506v84h284v-84h-284z
M233 146q4 -66 5 -100l-3 -195q-1 -3 -2 -11h49l-5 51v29h496q0 -36 -2 -56q0 -12 -3 -18h49q-3 15 -4 48l-1 186q1 33 5 66q-33 -1 -68 -5l-463 1q-19 3 -53 4zM277 -45v150h496v-150h-496z" />
  </g>

</svg>
