<?xml version="1.0" standalone="no"?>
<!DOCTYPE svg PUBLIC "-//W3C//DTD SVG 1.1//EN" "http://www.w3.org/Graphics/SVG/1.1/DTD/svg11.dtd" >
<svg xmlns="http://www.w3.org/2000/svg" xmlns:xlink="http://www.w3.org/1999/xlink" version="1.1" viewBox="-10 0 1010 1000">
   <path fill="currentColor"
d="M821 12q106 6 104 18q1 3 -2 11q-14 45 -14 150v603q1 38 -28 53q-24 15 -117 30q-7 -57 -46 -103q66 16 89 9q24 -5 24 -37v-571q0 -132 -10 -163zM333 46q24 4 115 4h94q70 0 111 -4q-5 23 -4 75v10v62q1 47 6 85q-27 -6 -111 -6h-147q0 6 -1 18q-2 48 -3 95q6 0 27 2
q12 1 18 2h44q0 -84 -8 -97q78 1 89 8q1 2 -2 8q-15 27 -15 81h47q54 -1 78 -4q-6 25 -6 105v211q1 42 -15 53q-12 12 -77 22q-1 -40 -19 -75q57 15 51 -20v-232h-59v335q-1 58 8 97h-80q7 -22 8 -97v-335h-51v240q0 29 6 101h-76q6 -31 10 -99v-135q-60 217 -99 280
q-30 -25 -82 -30q96 -105 126 -263q34 -162 21 -465q0 -8 -4 -32zM73 88q4 0 26 1q38 2 66 3h35q54 -1 84 -4q-6 26 -6 123v313q0 85 6 109h-78q0 -13 3 -45q1 -9 1 -14h-63v18q1 85 6 121h-86q9 -37 12 -111v-401q0 -90 -6 -113zM397 112v101h182v-101h-182zM698 119
q83 7 88 14q2 2 -1 12q-11 36 -11 84v325q1 53 8 105h-80q7 -22 6 -94v-11v-296q-1 -113 -10 -139zM210 153h-63v359h63v-359z" />
</svg>
