<?xml version="1.0" standalone="no"?>
<!DOCTYPE svg PUBLIC "-//W3C//DTD SVG 1.1//EN" "http://www.w3.org/Graphics/SVG/1.1/DTD/svg11.dtd" >
<svg xmlns="http://www.w3.org/2000/svg" xmlns:xlink="http://www.w3.org/1999/xlink" version="1.1" viewBox="-10 0 1010 1000">
   <path fill="currentColor"
d="M569 -13q62 0 78 1q22 2 24 6t-5 10q-13 11 -13 28v30h139q57 0 109 -8v77q-42 -6 -111 -6h-137v70h162q84 -1 125 -10q-8 28 -28 94q-15 47 -23 73q-47 -16 -81 -20l33 -74h-202v62q90 -10 151 -22l8 71q-55 2 -159 14v36q-5 37 42 38h10q50 2 65 0q70 -1 69 -80
q32 33 72 54q-16 56 -39 70q-24 18 -90 23q-13 1 -44 1t-47 -1q-69 -4 -86 -18q-21 -13 -20 -57v-58q-16 3 -49 8q-31 5 -46 8l-6 -71q20 0 83 -6q12 -1 18 -2v-72h-123v133q1 196 -29 290q-26 98 -119 214q-26 -19 -100 -35q119 -91 145 -211q16 -62 21 -162q5 -87 3 -296
q78 8 131 8h73v-147q0 -14 -3 -53q-1 -7 -1 -10zM62 86q29 6 95 6h33q75 0 116 -6q-10 31 -10 166v272q0 107 6 131h-82q1 -5 2 -17q3 -26 6 -42h-91q-3 106 8 150h-85q9 -63 9 -146v-369q0 -94 -7 -145zM228 151h-91v385h91v-385zM516 566q39 9 125 10h30q75 0 105 -6
q-1 10 -4 28q-6 40 -6 83v73q-4 58 53 52q31 -1 42 -21q11 -17 18 -86q47 49 81 55q-13 135 -81 131h-8q-43 2 -89 2q-60 0 -77 -15q-17 -11 -15 -62v-177h-97q12 176 -127 276q-23 -26 -89 -46q94 -51 120 -112q15 -31 19 -74q5 -41 0 -111z" />
</svg>
