<?xml version="1.0" standalone="no"?>
<!DOCTYPE svg PUBLIC "-//W3C//DTD SVG 1.1//EN" "http://www.w3.org/Graphics/SVG/1.1/DTD/svg11.dtd" >
<svg xmlns="http://www.w3.org/2000/svg" xmlns:xlink="http://www.w3.org/1999/xlink" version="1.1" viewBox="-10 0 1010 1000">
   <path fill="currentColor"
d="M675 -8q17 58 29 110h86q77 -2 115 -8q-5 37 -6 101v49q1 69 6 98q-36 -6 -139 -6h-292q-1 229 -32 338q-29 111 -121 219q-40 -33 -97 -47q116 -76 146 -198q17 -63 23 -162q6 -90 4 -279q0 -15 -6 -111q24 3 107 6h127q-24 -60 -48 -94zM69 100q25 4 98 6h67
q69 -1 91 -4q-6 48 -8 136v338q0 100 6 129h-87q5 -17 8 -105h-93v25q0 92 6 127h-90q9 -41 10 -127v-388q-3 -96 -8 -137zM472 165v107h347v-107h-347zM153 173v359h91v-359h-91zM833 350q25 37 58 97l-68 30q-19 -60 -61 -100zM631 362q12 1 35 3q70 5 68 10q1 2 -2 7
q-19 29 -22 103h117q71 -1 96 -6v79q-28 -6 -100 -8h-105q55 207 246 262q-28 25 -63 87q-163 -84 -216 -258q-45 168 -201 266q-35 -44 -79 -61q196 -85 224 -296h-44q-69 0 -93 6v-79q42 5 101 8h40q3 -35 3 -75q-1 -37 -5 -48z" />
</svg>
