<?xml version="1.0" standalone="no"?>
<!DOCTYPE svg PUBLIC "-//W3C//DTD SVG 1.1//EN" "http://www.w3.org/Graphics/SVG/1.1/DTD/svg11.dtd" >
<svg xmlns="http://www.w3.org/2000/svg" xmlns:xlink="http://www.w3.org/1999/xlink" version="1.1" viewBox="-10 0 1034 1024">
  <g transform="matrix(1 0 0 -1 0 820)">
   <path fill="currentColor"
d="M917 -103q1 6 5 11l-217 97q51 66 91 163h72q33 0 51 -3q1 0 15 -4v48q-66 -6 -85 -6h-271q6 9 11 20q16 33 29 45q7 9 36 23q-12 6 -25 11q-27 10 -40 19q-6 -24 -16 -46q-12 -25 -38 -72q-136 0 -155 3q-3 0 -17 3v-48q4 0 9 4q60 3 86 3h54q-39 -70 -75 -110
q12 -3 80 -27q63 -18 86 -29q10 -3 24 -10q-42 -34 -93 -61q-82 -39 -171 -39l-35 1q15 -21 34 -58q180 33 312 139q84 -36 142 -64q45 -21 83 -46l8 16q4 9 10 17zM504 78q15 27 27 49q12 18 26 41h193q-30 -81 -86 -147l-152 54q-4 3 -8 3zM418 382l-63 4q-3 0 -6 1v-47
q6 3 28 4q25 1 196 2l349 -1q6 0 30 -5v47q-33 -1 -67 -5h-168l51 84q30 45 70 54q-30 15 -69 41q-12 -36 -50 -105l-45 -74h-256zM375 581q15 3 50 4l428 1q21 0 67 -5v47q-9 -3 -59 -6l-457 1l-29 5v-47zM557 422q6 -7 13 -17q6 9 13 13l19 12q-6 10 -97 120
q-15 -15 -31 -27q36 -39 61 -71zM566 755l70 -69l35 -46q13 18 16 19q3 3 15 10q-30 39 -104 114q0 -3 -11 -14q-6 -3 -15 -10q-3 -1 -6 -4zM105 588q3 -27 3 -36l-1 -463q-1 -7 -2 -28q0 -3 -3 -13h48q-6 51 -5 85v6h134l-4 -73q-1 -1 -1 -6h48q-3 12 -3 29q0 21 -2 42
l1 441q0 21 4 49q-36 -1 -71 -5q-81 0 -107 2q-6 3 -42 3zM145 175v405h134v-405h-134z" />
  </g>

</svg>
