<?xml version="1.0" standalone="no"?>
<!DOCTYPE svg PUBLIC "-//W3C//DTD SVG 1.1//EN" "http://www.w3.org/Graphics/SVG/1.1/DTD/svg11.dtd" >
<svg xmlns="http://www.w3.org/2000/svg" xmlns:xlink="http://www.w3.org/1999/xlink" version="1.1" viewBox="-10 0 1010 1000">
   <path fill="currentColor"
d="M925 60v87q-37 -8 -123 -8h-94q-97 96 -129 119q95 113 106 141q74 -76 134 -170q11 8 29 21q54 38 49 42q0 2 -4 5q-16 7 -36 25q-14 12 -38 34q-14 13 -19 17q22 242 168 340q-23 16 -60 57q-12 13 -17 18q-137 -168 -143 -367l-38 38q18 62 25 132q6 68 -1 124
q-16 111 -79 150q-44 27 -125 38q-10 -54 -44 -99q100 8 129 -16q32 -26 44 -98q11 -83 -4 -152q-151 186 -326 300q-24 -43 -69 -72q201 -90 375 -305q-6 -21 -34 -68q-52 61 -69 76q21 28 35 59l-67 38q-4 -13 -13 -29q-7 -10 -9 -17q-39 33 -105 82q-6 -12 -29 -44
q-18 -24 -17 -26q58 -19 117 -63q-25 -40 -51 -62l61 -36l44 52q27 -25 64 -83q-6 -12 -30 -42q-42 30 -131 75q-20 -41 -64 -65q166 -45 276 -169h-99q-84 -1 -129 8v-85q54 9 141 10h272q85 0 127 -12zM159 181v379h89v-379h-89zM323 578q0 76 10 111h-91q6 -21 6 -66h-89
l4 131h-90q10 -28 10 -158v-326q0 -118 -10 -158q27 5 102 5h47q46 0 109 -9q-8 34 -8 156v314z" />
</svg>
