<?xml version="1.0" standalone="no"?>
<!DOCTYPE svg PUBLIC "-//W3C//DTD SVG 1.1//EN" "http://www.w3.org/Graphics/SVG/1.1/DTD/svg11.dtd" >
<svg xmlns="http://www.w3.org/2000/svg" xmlns:xlink="http://www.w3.org/1999/xlink" version="1.1" viewBox="-10 0 1034 1024">
  <g transform="matrix(1 0 0 -1 0 820)">
   <path fill="currentColor"
d="M452 691h429q0 -747 -3 -762q-1 -1 -3 -6q-12 -13 -48 -14q-33 0 -70 5q12 -27 17 -51q109 9 131 29q13 12 14 58l1 732l4 49q-66 -4 -97 -5l-367 1q-19 3 -52 4q6 -66 6 -88l-1 -326l-3 -55q-6 -69 -16 -121q-27 -120 -75 -189q-28 -39 -69 -64q39 -12 63 -25
q31 49 50 83q57 108 76 233q12 90 13 195v317zM634 387q-96 0 -125 2q-3 1 -6 1l-14 2v-47q30 6 58 6l265 -1q10 0 29 -5v47q-6 0 -12 -2q-21 -3 -82 -3h-75v130h77q24 0 51 -3q6 0 15 -3v46q-33 -1 -66 -5h-77v21q0 18 3 37q1 21 11 38h-57q0 -7 2 -14q3 -60 3 -82
q-79 0 -107 2q-3 1 -6 1t-13 2v-46q6 3 13 3l113 3v-130zM535 94q-6 -48 -6 -75q69 6 94 6q108 0 123 -2q3 0 7 -1q16 0 37 -3q-4 63 -5 89l1 112q1 24 5 50q-37 -1 -75 -5q-117 0 -144 2q-9 3 -43 3q6 -66 6 -97v-79zM572 61v169h174v-169h-174zM92 139q-3 -33 -3 -56
q0 -6 -3 -14h48q-4 60 -5 73h145q0 -36 -5 -65h49l-4 30l-2 164l1 355q0 3 5 48q-36 -1 -72 -5q-93 0 -119 2q-6 3 -41 3q6 -66 6 -100v-435zM129 178v455h145v-455h-145z" />
  </g>

</svg>
