<?xml version="1.0" standalone="no"?>
<!DOCTYPE svg PUBLIC "-//W3C//DTD SVG 1.1//EN" "http://www.w3.org/Graphics/SVG/1.1/DTD/svg11.dtd" >
<svg xmlns="http://www.w3.org/2000/svg" xmlns:xlink="http://www.w3.org/1999/xlink" version="1.1" viewBox="-10 0 1010 1000">
   <path fill="currentColor"
d="M337 30q31 6 121 6q71 0 119 -6q-32 167 -83 320q60 102 64 204q10 132 -120 149q-3 -45 -31 -78q0 106 2 160q2 60 6 92h-78q3 -28 5 -86q0 -28 1 -66v-96v-496q0 -55 -6 -103zM593 56q38 6 101 6h173q63 0 93 -6v71q-7 0 -21 -1q-23 -3 -44 -3v645q-11 95 -147 107
q-8 -58 -46 -97q121 19 117 -41v-614h-125q-66 0 -101 6v-73zM71 70q33 7 108 6q70 0 105 -4q-2 19 -3 41q-1 18 -1 58v367q0 55 1 84q1 33 3 57h-72q3 -10 4 -75h-77q-1 108 6 144h-78q7 -49 8 -142v-447q0 -56 -4 -89zM407 96v67v450q37 15 66 -5q25 -19 25 -64
q-6 -94 -69 -196q28 -76 67 -252h-89zM139 137v411h77v-411h-77zM581 235q37 5 94 5q60 -2 97 -5q-7 32 -6 93v222q-1 71 6 109h-68q6 -23 6 -57h-67q-1 42 6 83h-68q3 -22 5 -52q1 -15 1 -33v-46v-224q1 -68 -6 -95zM643 292v258h67v-258h-67z" />
</svg>
