<?xml version="1.0" standalone="no"?>
<!DOCTYPE svg PUBLIC "-//W3C//DTD SVG 1.1//EN" "http://www.w3.org/Graphics/SVG/1.1/DTD/svg11.dtd" >
<svg xmlns="http://www.w3.org/2000/svg" xmlns:xlink="http://www.w3.org/1999/xlink" version="1.1" viewBox="-10 0 1010 1000">
   <path fill="currentColor"
d="M613 -8q117 14 115 24q0 5 -9 14q-21 20 -23 42q-1 7 -3 23q-11 94 -20 128q77 41 179 88q59 28 94 45q-36 29 -61 75q-90 -72 -234 -151q-67 90 -224 161q-8 -11 -20 -26q-23 -32 -50 -50q165 -28 217 -108q56 -77 39 -265zM823 52q77 30 86 46q0 2 -4 5
q-36 24 -101 132q-33 -24 -70 -36q54 -49 89 -147zM448 62q83 -2 92 10q0 2 -2 5q-21 35 -34 165q-29 -4 -77 -4q13 -29 19 -77q6 -53 2 -99zM81 90q29 3 123 6h46q72 0 109 -4q-4 23 -7 100q0 27 -1 39v347q1 75 6 125h-93q7 -35 10 -93h-107v31q0 106 4 135h-94
q8 -43 10 -135v-401q-2 -110 -6 -150zM274 165h-109v377h109v-377zM597 369q92 5 105 16q0 1 -5 7q-15 17 -16 29q-29 290 287 381q-47 41 -69 91q-225 -120 -252 -281q-21 203 -280 293q-26 -53 -79 -77q188 -31 251 -130q68 -97 58 -329zM810 457q82 28 81 39q0 1 -3 3
q-29 26 -90 140q-32 -18 -68 -31q51 -52 80 -151zM452 467q82 7 82 20q0 1 -2 4q-24 38 -56 160q-36 -12 -75 -12q40 -86 51 -172z" />
</svg>
