<?xml version="1.0" standalone="no"?>
<!DOCTYPE svg PUBLIC "-//W3C//DTD SVG 1.1//EN" "http://www.w3.org/Graphics/SVG/1.1/DTD/svg11.dtd" >
<svg xmlns="http://www.w3.org/2000/svg" xmlns:xlink="http://www.w3.org/1999/xlink" version="1.1" viewBox="-10 0 1010 1000">
   <path fill="currentColor"
d="M589 -13q92 9 99 15q0 4 -6 8q-27 23 -47 90h137q98 0 135 -8q-6 27 -6 139v132l6 159q-21 -11 -157 -10v125h75q65 0 117 -10v86q-41 -8 -117 -8h-75v87q0 78 8 119h-91q8 -55 8 -113v-93h-181q-99 0 -135 8v-84q60 8 111 8q49 -48 82 -125h-30q-89 -1 -119 8
q8 -57 8 -143v-146q0 -84 -8 -139q47 8 157 8q21 -49 29 -113zM71 82q36 6 110 6h39q70 0 119 -8q-8 42 -8 166v278q0 145 10 177h-89q8 -39 8 -80h-107q1 99 10 149h-90q8 -77 8 -147v-359q0 -119 -10 -182zM260 155h-107v399h107v-399zM629 167h-143v107h131
q9 -30 12 -107zM825 169h-119q-8 34 -14 105h133v-105zM607 338h-121v111h91q20 -64 30 -111zM825 338h-142q-6 41 -32 111h174v-111zM675 512h-48q-31 73 -71 125h119v-125z" />
</svg>
