<?xml version="1.0" standalone="no"?>
<!DOCTYPE svg PUBLIC "-//W3C//DTD SVG 1.1//EN" "http://www.w3.org/Graphics/SVG/1.1/DTD/svg11.dtd" >
<svg xmlns="http://www.w3.org/2000/svg" xmlns:xlink="http://www.w3.org/1999/xlink" version="1.1" viewBox="-10 0 1010 1000">
   <path fill="currentColor"
d="M774 8q8 24 29 112q5 20 7 29l-92 18q-16 -93 -31 -141zM425 12q22 1 67 10q17 2 26 4t0 16q-17 24 -16 44v133q49 0 77 -6v77q-16 -5 -54 -4h-23v151q31 -13 69 -42q-10 42 2 82q-29 15 -71 33v282q1 47 -29 65q-21 17 -118 30q0 -46 -36 -95q74 8 93 -3q20 -8 17 -52
v-205l-74 42l-30 -78q9 -2 6 -1q72 -16 98 -24v-187q-43 0 -56 1q-17 0 -34 3v-75q51 6 90 6v-135q0 -40 -4 -72zM67 117q26 4 55 5q15 1 32 1h44q47 0 71 -1q28 -1 52 -5q-6 36 -6 102v412q0 67 6 104h-87q7 -36 6 -82h-93q0 107 6 151h-86q7 -44 6 -141v-220v-224
q0 -62 -6 -102zM145 189v399h97v-399h-97zM938 189v77q-27 -5 -81 -6h-169q-59 1 -93 6v-77q31 6 90 6h176q51 0 77 -6zM800 312q59 9 107 28q-20 10 -26 47q-29 182 -68 385h46q51 0 95 -6v74q-22 -4 -91 -4h-232q-68 0 -97 4v-76q29 6 95 6h111q60 -272 60 -458zM673 332
q3 19 10 72q7 60 37 275q-48 -3 -87 6q8 -136 -30 -341z" />
</svg>
