<?xml version="1.0" standalone="no"?>
<!DOCTYPE svg PUBLIC "-//W3C//DTD SVG 1.1//EN" "http://www.w3.org/Graphics/SVG/1.1/DTD/svg11.dtd" >
<svg xmlns="http://www.w3.org/2000/svg" xmlns:xlink="http://www.w3.org/1999/xlink" version="1.1" viewBox="-10 0 1010 1000">
   <path fill="currentColor"
d="M403 -6q90 15 93 24q0 2 -3 6q-21 31 -41 127h52q29 0 85 -6v74q-23 -4 -83 -4h-66l-63 238h69v-105q-1 -40 -4 -70q81 1 96 10l-2 4q-22 30 -22 70v89q54 0 79 -6v69q-10 -2 -27 -3q-13 -1 -52 -1v102q29 -10 84 -36q9 -4 13 -6q-7 25 -9 65q0 13 -1 18q-48 12 -87 24
v135q0 68 6 93h-80q5 -29 6 -93v-111q-42 15 -86 33l-33 12q-1 -4 -3 -13q-10 -44 -20 -74h6q46 0 136 -28v-119q-85 4 -121 14q-3 -38 -27 -73q37 -22 75 -236q-42 0 -60 4v-74q21 3 74 6q15 -79 16 -159zM710 -2q109 12 103 18q0 2 -3 7q-17 33 -34 134h45q53 0 90 -8v82
q-41 -7 -88 -8h-53l-18 119h83q64 0 88 -6v75q-24 -6 -88 -6h-93l-14 107h119q59 -1 99 -8v82q-42 2 -140 168l109 80l-60 69q-81 -95 -254 -192l50 -66l103 72q48 -73 87 -141h-123q-29 0 -85 8q16 -44 38 -179q-60 0 -102 6v-75q24 6 112 6l15 -121q-52 0 -83 2v-72
q27 3 91 6q13 -98 6 -159zM67 96q25 3 94 6h37q64 0 98 -4q-7 41 -8 142v336q1 78 6 119h-80q0 -12 2 -46q1 -14 2 -22h-75q0 58 1 78q1 26 3 37h-84q10 -40 10 -134v-362q-3 -122 -6 -150zM220 165h-75v399h75v-399z" />
</svg>
