<?xml version="1.0" standalone="no"?>
<!DOCTYPE svg PUBLIC "-//W3C//DTD SVG 1.1//EN" "http://www.w3.org/Graphics/SVG/1.1/DTD/svg11.dtd" >
<svg xmlns="http://www.w3.org/2000/svg" xmlns:xlink="http://www.w3.org/1999/xlink" version="1.1" viewBox="-10 0 1034 1024">
  <g transform="matrix(1 0 0 -1 0 820)">
   <path fill="currentColor"
d="M154 647l-70 6q1 -21 2 -33q3 -27 3 -34v-480q0 -28 -3 -58q0 -4 -2 -12h49l-2 12q-3 57 -3 85h163l-4 -80q-1 -1 -3 -6h50q-3 6 -3 32q-1 16 -2 132l1 391l4 51q-60 -6 -85 -6h-95zM128 169v442h163v-442h-163zM595 255q-31 -57 -54 -85q-48 -54 -95 -66q33 -16 44 -34
h-73q-48 0 -62 5v-46q19 4 62 5h301q0 -139 -2 -178q-1 -3 -1 -8q0 -3 -3 -13h50q-1 3 -2 13q-3 40 -3 58v128h157q36 0 61 -5v46q-28 -4 -62 -5h-156v91q0 15 2 34q1 12 11 28h-58q3 -9 3 -16q1 -27 3 -46v-91h-222q19 15 51 47q24 24 40 48q21 30 55 90l203 -1q15 0 49 -4
q-4 57 -5 105l1 254l4 50l-69 -6h-210q15 33 31 60q15 22 41 30q-42 21 -58 34q-3 -18 -23 -58q-18 -39 -36 -66q-75 0 -92 2q-15 3 -48 4q1 -33 5 -68l-1 -294q-3 -15 -4 -47q57 4 89 5h76zM642 433q-6 -40 -12 -69l-17 -73h-141v142h170zM472 469v149h179q-1 -34 -2 -70
l-3 -79h-174zM654 291q10 40 16 69q6 28 12 73h169v-142h-197zM686 469l6 149h159v-149h-165z" />
  </g>

</svg>
