<?xml version="1.0" standalone="no"?>
<!DOCTYPE svg PUBLIC "-//W3C//DTD SVG 1.1//EN" "http://www.w3.org/Graphics/SVG/1.1/DTD/svg11.dtd" >
<svg xmlns="http://www.w3.org/2000/svg" xmlns:xlink="http://www.w3.org/1999/xlink" version="1.1" viewBox="-10 0 1010 1000">
   <path fill="currentColor"
d="M508 -4q14 33 35 97q3 10 5 15l-86 15q-11 -72 -37 -123zM661 62h3q52 6 128 6q65 0 92 -1q33 -2 49 -5q-48 197 -86 323q110 134 93 248q-17 115 -152 133q-3 -56 -40 -101q102 28 117 -59q0 -114 -91 -207q38 -114 59 -268h-99v643q1 93 8 127h-83q6 -47 8 -131v-577
q0 -91 -6 -131zM77 96q27 4 92 4h51q15 -1 40 -2q26 -2 52 -2q-5 49 -6 146v314q0 104 7 133h-83q3 -19 6 -70h-79q0 90 6 131h-86q8 -47 8 -133v-377q-1 -13 -2 -36q-4 -102 -6 -108zM361 131q18 3 101 4h54q69 -1 99 -4q-6 30 -8 119v159q0 100 6 133q-13 -2 -37 -3
q-11 -1 -27 -1h-43h-75v185l101 -58q-6 -11 -17 -32q-13 -23 -17 -31l64 -24q4 8 12 25q48 105 73 167l-70 26q-8 -47 -21 -73q-74 40 -185 131q-14 -39 -44 -78q34 -23 40 -49v-471q-1 -37 -6 -125zM155 165v391h81v-391h-81zM431 195v103h109v-103h-109zM431 356v123h111
v-123h-111z" />
</svg>
