<?xml version="1.0" standalone="no"?>
<!DOCTYPE svg PUBLIC "-//W3C//DTD SVG 1.1//EN" "http://www.w3.org/Graphics/SVG/1.1/DTD/svg11.dtd" >
<svg xmlns="http://www.w3.org/2000/svg" xmlns:xlink="http://www.w3.org/1999/xlink" version="1.1" viewBox="-10 0 1010 1000">
   <path fill="currentColor"
d="M67 84q3 0 24 1q40 2 72 3h37q58 -1 88 -4q-8 27 -8 123v313q0 85 8 109h-82q7 -23 4 -61h-63v20q1 86 6 123h-88q7 -36 8 -113v-401q0 -90 -6 -113zM212 151h-65v353h65v-353zM655 -25q73 4 91 12q2 1 -2 7q-16 22 -16 50v81h105h10q54 1 90 -8q-7 27 -22 86
q-18 66 -26 99q-19 -11 -75 -14q19 -55 27 -95h-109v169q50 0 79 -2q33 -3 64 -10q-51 238 -115 343q82 70 192 89q-31 52 -39 95q-113 -45 -197 -127q-84 88 -182 137q-32 -48 -66 -69q121 -43 193 -125q-67 -99 -97 -258q-17 266 -151 421q-36 -27 -82 -28
q155 -143 163 -439v-149q1 -77 -6 -123q23 5 45 7q17 1 56 1h74q0 -110 -4 -150zM343 16q69 41 131 101l-45 60q-57 -57 -129 -101zM657 193h-94v169h94v-169zM331 250q91 55 133 92l-45 63q-52 -45 -131 -91zM385 457q19 26 53 57q-93 194 -146 324q-25 -35 -66 -70
q84 -121 159 -311zM633 427q21 116 71 204q52 -104 66 -204h-137z" />
</svg>
