<?xml version="1.0" standalone="no"?>
<!DOCTYPE svg PUBLIC "-//W3C//DTD SVG 1.1//EN" "http://www.w3.org/Graphics/SVG/1.1/DTD/svg11.dtd" >
<svg xmlns="http://www.w3.org/2000/svg" xmlns:xlink="http://www.w3.org/1999/xlink" version="1.1" viewBox="-10 0 1010 1000">
   <path fill="currentColor"
d="M625 2h25q68 -2 68 6q1 4 -2 8q-12 16 -12 50v59h96q71 0 119 -6v80q-54 -6 -117 -6h-98v119h133q72 0 119 -8v85q-43 -6 -115 -6h-359q-100 -1 -133 8v-85q36 6 97 6v-159q0 -40 -4 -79q90 0 94 10q1 4 -3 10q-11 18 -11 47v171h107v-238v-16q1 -40 -4 -56zM71 82
q57 10 117 10h46q66 0 99 -8q-8 42 -8 154v310q0 119 8 155h-89q10 -27 10 -82h-103q0 90 8 125h-90q10 -44 10 -154v-342q0 -83 -8 -168zM151 159v395h103v-395h-103zM621 397q11 3 32 8q73 18 65 22q1 3 -5 6q-17 7 -23 26q-4 13 -14 38q-8 18 -11 27q14 11 45 34
q73 55 92 65q0 3 -11 14q-24 23 -49 50q-30 -45 -101 -97q-25 48 -85 118q-6 7 -8 9q-15 -12 -66 -48q117 -84 139 -272zM806 516q0 -60 -8 -83q15 1 42 2q59 2 55 10q0 2 -2 5q-12 16 -12 62v266q0 90 10 119h-93q8 -31 8 -57h-244q-126 0 -169 8q8 -49 8 -125v-203
q1 -59 -4 -79q16 1 44 1q52 0 55 5q1 2 -4 8q-16 21 -16 51v270h330v-260z" />
</svg>
