<?xml version="1.0" standalone="no"?>
<!DOCTYPE svg PUBLIC "-//W3C//DTD SVG 1.1//EN" "http://www.w3.org/Graphics/SVG/1.1/DTD/svg11.dtd" >
<svg xmlns="http://www.w3.org/2000/svg" xmlns:xlink="http://www.w3.org/1999/xlink" version="1.1" viewBox="-10 0 1034 1024">
  <g transform="matrix(1 0 0 -1 0 820)">
   <path fill="currentColor"
d="M367 631l6 -68v-591q0 -30 -24 -44q9 -15 25 -47l1 -2q18 18 39 31q120 81 150 98l24 14q9 -12 14 -26l17 -39q4 -9 10 -29q6 3 12 7l16 8q6 3 13 4q-9 24 -21 47l-33 64q-40 72 -60 101q-9 -9 -31 -21q-3 1 -5 -2q21 -27 49 -79q-15 -12 -64 -44q-45 -30 -94 -58v266
l167 -1q10 0 51 -5q-4 54 -5 106l1 261l4 49q-66 -4 -87 -5h-24q3 4 7 8q12 12 24 19l-74 94q-7 9 -15 19q-16 -15 -23 -19q-4 -3 -13 -7q9 -9 18 -19l31 -38q15 -18 24 -30q6 -10 15 -27q-75 0 -104 2q-12 3 -41 3zM411 256v152h175v-152h-175zM411 443v146h175v-146h-175z
M702 -91q-3 -33 -3 -56q0 -6 -4 -13h51q-3 12 -6 52v734h159q-21 -67 -53 -149q-33 -88 -53 -123q46 -42 79 -84q55 -72 56 -139q0 -51 -33 -72q-28 -16 -65 -17q-15 0 -57 5q13 -18 24 -55q54 6 89 19q78 30 79 117q0 63 -37 125q-22 39 -70 89q-16 16 -19 20q22 54 36 91
q10 27 18 49q43 120 48 126l16 39q-66 -4 -112 -5q-82 0 -110 2q-4 1 -7 1q-13 0 -33 2q3 -15 4 -34q3 -24 3 -79v-645zM85 72q-3 -33 -3 -55q0 -1 -4 -14h49q-6 54 -6 86v15h130q-1 -39 -3 -79q0 -3 -2 -19h48q-3 12 -3 29l-2 75l1 505l4 49q-36 -1 -72 -5q-76 0 -102 2
q-6 3 -42 3q3 -30 4 -33q3 -27 3 -36v-523zM121 140v483h130v-483h-130z" />
  </g>

</svg>
