<?xml version="1.0" standalone="no"?>
<!DOCTYPE svg PUBLIC "-//W3C//DTD SVG 1.1//EN" "http://www.w3.org/Graphics/SVG/1.1/DTD/svg11.dtd" >
<svg xmlns="http://www.w3.org/2000/svg" xmlns:xlink="http://www.w3.org/1999/xlink" version="1.1" viewBox="-10 0 1034 1024">
  <g transform="matrix(1 0 0 -1 0 820)">
   <path fill="currentColor"
d="M373 -76q-3 -55 -5 -68q-1 0 -1 -2h48q-4 49 -5 70v318h216v-155q-108 -6 -132 -7l-36 3q12 -30 20 -56q51 12 75 15l249 30q15 -22 25 -46l9 6q4 4 10 8q0 3 5 4q3 0 11 5l-52 88q-22 36 -41 61q-12 -9 -33 -20q18 -22 39 -60q4 -6 10 -16q-30 -3 -62 -5l-59 -6v151h234
v-293q0 -24 -11 -35q-12 -6 -37 -7q-21 0 -66 6q12 -21 20 -51q81 4 107 16q24 12 25 47l1 305q0 21 4 54l-74 -6h-203v86l163 -1q19 0 52 -4q-3 36 -5 72l1 257l4 47q-69 -4 -73 -5l-341 1q-3 0 -50 4q4 -49 5 -68l-1 -265l-4 -43q54 4 107 5h104v-86l-208 1q-6 1 -51 5
q6 -72 6 -92v-268zM455 400v128h171v-128h-171zM455 564v130h171v-130h-171zM664 400v128h171v-128h-171zM835 694v-130h-171v130h171zM89 115q-3 -30 -3 -55q0 -4 -3 -13h48q-3 18 -5 59v26h145q-3 -6 -3 -51q0 -1 -2 -12h49q-6 60 -6 71l1 493q1 24 5 48l-121 -5
q-43 0 -70 2q-6 3 -41 3q6 -42 6 -69v-497zM126 168v472h145v-472h-145z" />
  </g>

</svg>
