<?xml version="1.0" standalone="no"?>
<!DOCTYPE svg PUBLIC "-//W3C//DTD SVG 1.1//EN" "http://www.w3.org/Graphics/SVG/1.1/DTD/svg11.dtd" >
<svg xmlns="http://www.w3.org/2000/svg" xmlns:xlink="http://www.w3.org/1999/xlink" version="1.1" viewBox="-10 0 1010 1000">
   <path fill="currentColor"
d="M597 -10q15 1 39 1q44 0 47 5q1 1 -2 5q-12 17 -12 45v48h79q86 0 133 -10q-6 24 -6 81v70l83 -10v81q-32 -6 -83 -6v52q0 71 6 95q-30 -6 -117 -6h-95v319q0 102 8 143h-86q10 -44 10 -133v-329h-63q-82 0 -135 6v-76q42 6 127 6h71v-77h-107q-93 0 -135 6v-75
q48 6 133 6h109v-80h-59q-87 -1 -131 8v-79q38 8 127 8h63v-52q0 -38 -4 -52zM75 102q46 3 100 4h51q66 -1 107 -4q-12 59 -12 129v333q0 91 8 133h-85q10 -41 10 -117h-105q0 101 8 143h-84q8 -50 8 -143v-302q0 -120 -6 -176zM669 157v80h135v-80h-135zM149 169v347h105
v-347h-105zM669 300v77h135v-77h-135zM383 477q10 1 29 2q62 5 64 9q1 2 -5 8q-16 20 -17 42q-2 255 -123 371q-28 -24 -81 -44q83 -54 111 -140q30 -85 22 -248zM815 481q14 1 41 1q52 0 51 5q1 2 -3 8q-13 22 -13 53v218q0 80 10 122q2 6 2 9h-88q0 -3 1 -10q7 -35 7 -113
v-206q1 -67 -8 -87zM504 518q14 3 42 10q27 7 35 8q2 6 -3 11q-11 10 -15 29q-2 8 -7 33q-32 145 -42 167q-26 -13 -66 -18q53 -87 56 -240zM752 520q22 67 48 218l-76 16q-5 -132 -34 -220z" />
</svg>
