<?xml version="1.0" standalone="no"?>
<!DOCTYPE svg PUBLIC "-//W3C//DTD SVG 1.1//EN" "http://www.w3.org/Graphics/SVG/1.1/DTD/svg11.dtd" >
<svg xmlns="http://www.w3.org/2000/svg" xmlns:xlink="http://www.w3.org/1999/xlink" version="1.1" viewBox="-10 0 1010 1000">
   <path fill="currentColor"
d="M647 -10q7 19 18 46q17 42 20 58h111q80 0 125 -6q-4 21 -4 61v20q0 50 8 69h-92q6 -26 6 -59v-22h-393v34q0 34 8 57h-93q8 -37 8 -59v-34q0 -30 -4 -69q37 8 149 8h89q-12 -42 -43 -86zM71 94q19 6 94 6h51q86 0 103 -6q-2 10 -3 38q-1 14 -1 35v60v343q0 35 8 101h-85
q6 -33 6 -73h-95q-3 112 8 146h-90q10 -41 10 -160v-344q0 -111 -6 -146zM244 163h-95v371h95v-371zM716 320h-168q44 66 79 99q46 -30 89 -99zM522 655v135h232v-135h-232zM319 556q104 -6 256 -99q-38 -43 -67 -94q-18 23 -51 62q-16 21 -24 30q-15 -12 -66 -31
q-10 -3 -14 -5q125 -88 185 -242q14 5 37 12q57 18 52 22q-1 5 -10 11q-20 13 -36 38h121q59 0 135 -4q-75 141 -152 207q94 49 265 59q-33 43 -41 88q-188 -47 -284 -104q-72 48 -161 84q3 3 37 5q16 1 40 1h66h85q61 0 124 -2h17q-3 5 -3 33q-1 13 -1 36v66v55q0 87 8 119
h-87q-1 0 1 -21q3 -26 3 -36h-230q-1 48 4 59h-90q8 -52 8 -127v-45q0 -66 -1 -89q-1 -30 -5 -42q-12 5 -30 13q-25 11 -39 16q-12 -21 -52 -75z" />
</svg>
