<?xml version="1.0" standalone="no"?>
<!DOCTYPE svg PUBLIC "-//W3C//DTD SVG 1.1//EN" "http://www.w3.org/Graphics/SVG/1.1/DTD/svg11.dtd" >
<svg xmlns="http://www.w3.org/2000/svg" xmlns:xlink="http://www.w3.org/1999/xlink" version="1.1" viewBox="-10 0 1010 1000">
   <path fill="currentColor"
d="M879 16q-6 30 -6 131v131q1 81 8 135q-29 -3 -115 -6h-95v68h107q103 -1 151 -8q-6 30 -6 123v154q2 75 -25 93q-20 21 -124 28q-1 -59 -36 -99q69 15 87 6q19 -7 18 -53v-179h-172v109l51 -8l-12 -30q-8 -19 -12 -29l66 -14q30 83 55 161l-77 19q0 -27 -6 -51
q-17 3 -53 8q-166 26 -191 35q-6 -44 -18 -81q76 3 127 -4v-115h-145v230q3 84 8 107h-97q8 -35 10 -117v-180q-1 -82 -6 -111q24 3 123 6h107v-68h-75q-63 0 -84 1q-27 1 -39 3q8 -51 8 -137v-123q0 -104 -6 -131q9 0 51 1q58 2 100 3h150q132 -2 173 -8zM79 62q11 0 56 2
q31 1 50 2h47q78 -1 101 -4q-4 43 -6 153v323q1 94 8 139h-89q8 -55 8 -87h-95q0 82 6 115h-90q8 -47 10 -145v-343q-1 -110 -6 -155zM482 92v93h119v-93h-119zM671 90v95h121v-95h-121zM157 135v385h99v-385h-99zM671 244v98h121v-98h-121zM482 244v98h119v-98h-119z" />
</svg>
