<?xml version="1.0" standalone="no"?>
<!DOCTYPE svg PUBLIC "-//W3C//DTD SVG 1.1//EN" "http://www.w3.org/Graphics/SVG/1.1/DTD/svg11.dtd" >
<svg xmlns="http://www.w3.org/2000/svg" xmlns:xlink="http://www.w3.org/1999/xlink" version="1.1" viewBox="-10 0 1034 1024">
  <g transform="matrix(1 0 0 -1 0 820)">
   <path fill="currentColor"
d="M83 668q6 -60 6 -70q0 -487 -3 -512q0 -6 -3 -16h49q-3 12 -6 48v57h120q-1 -33 -5 -46h46q-19 -21 -34 -34q-12 -10 -30 -21q45 -12 51 -16l6 -4l92 136q1 6 6 11l64 110l-2 -449q-1 -1 -1 -6q0 -3 -3 -13h50q-3 12 -6 52v396q9 -12 74 -81q9 -12 20 -24q9 10 21 21
q6 6 10 9l-64 68l-61 63v74q69 0 82 -2q3 0 21 -4v47q-33 -1 -67 -5h-36v187q100 21 123 22q12 0 36 -3q-21 27 -31 54q-13 -9 -23 -13q-9 -3 -56 -13q-13 -3 -32 -7q-90 -16 -148 -17q-18 0 -43 3q13 -24 23 -45l113 13v-181q-67 0 -94 2q-4 1 -6 1q-3 0 -13 2v-47
q6 3 27 4q30 1 86 2q-3 -24 -12 -45q-9 -24 -48 -96l-94 -147q-4 28 -5 42l1 440q1 27 5 53q-76 -4 -117 -5l-69 4q-10 1 -20 1zM126 211v416h120v-416h-120zM558 -114q33 36 58 69q19 27 49 78q39 72 74 205q30 -147 136 -297l36 -50q4 -7 10 -17q39 18 51 22q6 0 10 3
q-25 15 -66 62q-82 96 -122 216q-34 106 -40 188q0 111 4 174l5 130q0 57 24 84q-36 1 -68 8q3 -30 4 -87l-3 -134l-6 -178q-6 -70 -25 -153q-31 -136 -110 -235q-39 -45 -92 -71q37 -15 60 -30q4 7 11 13zM578 319q4 0 9 -2q9 -1 17 -4q6 -3 12 -4l9 34q9 30 22 85
q6 30 19 72q6 19 23 35l-39 6l-12 2q-4 0 -10 3l-1 -37q-1 -1 -1 -4q-3 -16 -34 -134l-18 -51q1 0 4 -1zM800 363q1 0 24 -11q6 -3 12 -7l37 74q30 64 45 84q12 16 37 31q-33 12 -62 26q-9 -34 -28 -76q-24 -51 -42 -82q-12 -24 -23 -39v0z" />
  </g>

</svg>
