<?xml version="1.0" standalone="no"?>
<!DOCTYPE svg PUBLIC "-//W3C//DTD SVG 1.1//EN" "http://www.w3.org/Graphics/SVG/1.1/DTD/svg11.dtd" >
<svg xmlns="http://www.w3.org/2000/svg" xmlns:xlink="http://www.w3.org/1999/xlink" version="1.1" viewBox="-10 0 1034 1024">
  <g transform="matrix(1 0 0 -1 0 820)">
   <path fill="currentColor"
d="M104 134q0 -51 -5 -71h46q-4 57 -5 88v6h121l-4 -84l-1 -6h46q-3 36 -5 71l1 470l4 45q-33 -1 -67 -5q-72 0 -97 2q-6 3 -39 3q1 -31 5 -65v-454zM140 193v419h121v-419h-121zM224 -86q7 7 15 13q55 45 88 74q27 24 60 59q78 82 119 138v-287q0 -54 -5 -70h45q-1 3 -3 12
q-1 37 -2 58v277q16 -16 71 -81q30 -36 60 -76q3 4 8 8q0 3 4 6l9 9q7 3 12 7l-91 97q-36 39 -65 65q72 0 87 -2q19 0 41 -3q-4 54 -5 76l1 146l4 50q-34 -1 -69 -5h-67v122l128 -1l40 -4v43q-39 -4 -63 -5h-105v63q0 16 3 32q1 16 12 28h-55q1 -16 3 -20l2 -103
q-124 0 -158 2q-10 1 -22 3v-43q21 4 62 5h118v-122h-71q-9 0 -34 3q-15 0 -35 2q6 -66 6 -95l-1 -127q-4 -24 -5 -50q54 4 112 5h3q-72 -99 -164 -183q-75 -69 -149 -97q25 -10 49 -35q3 3 7 6zM406 257v195h100v-195h-100zM541 257v195h98v-195h-98zM756 628q4 -60 5 -63
l-1 -383q-1 -9 -2 -19q0 -7 -2 -12h44q-1 3 -2 12q-1 30 -3 59l1 364q1 24 12 42h-52zM921 707q0 15 2 34q3 15 11 26h-58q6 -24 6 -60v-736q0 -39 -17 -46q-21 -7 -49 -8q-15 0 -63 12q18 -27 23 -56q96 7 121 26q24 15 24 46v762z" />
  </g>

</svg>
