<?xml version="1.0" standalone="no"?>
<!DOCTYPE svg PUBLIC "-//W3C//DTD SVG 1.1//EN" "http://www.w3.org/Graphics/SVG/1.1/DTD/svg11.dtd" >
<svg xmlns="http://www.w3.org/2000/svg" xmlns:xlink="http://www.w3.org/1999/xlink" version="1.1" viewBox="-10 0 1010 1000">
   <path fill="currentColor"
d="M468 -6q72 0 78 8q1 1 -1 4q-9 15 -9 48v63h35q57 0 104 -9v75q-44 -6 -104 -6h-35v81h51q38 0 86 -8q-8 26 -8 123v60q0 68 6 95q-30 -6 -96 -6h-39v246q0 99 6 129h-78q8 -49 8 -119v-186q-58 141 -162 236q-16 -21 -74 -52q139 -82 218 -254h-29q-54 0 -84 6
q6 -24 6 -111v-71q0 -79 -6 -94q42 6 90 6h41v-81h-32q-54 0 -75 1q-26 1 -40 3v-69q27 5 113 5h34v-65q0 -18 -3 -53q-1 -3 -1 -5zM841 12q96 -1 97 12q1 2 -2 5q-15 19 -15 71v700q1 50 -32 69q-30 20 -133 32q-1 -56 -46 -111q138 25 135 -24v-627q0 -61 -1 -85
q-1 -29 -3 -42zM67 88q37 8 102 8h33q47 0 94 -4q-10 31 -10 170v322q0 91 8 133h-82q6 -24 6 -84h-77q0 54 6 125h-84q10 -27 10 -158v-358q0 -107 -6 -154zM712 115q13 1 35 3q50 2 53 7q2 1 -1 7q-13 26 -13 67v297q0 118 6 157h-86q8 -71 8 -143v-291v-69q-1 -23 -2 -35
zM141 159v411h77v-411h-77zM405 314v153h67v-153h-67zM536 314v153h65v-153h-65zM591 580q83 77 123 129l-63 49q-36 -60 -107 -135z" />
</svg>
