<?xml version="1.0" standalone="no"?>
<!DOCTYPE svg PUBLIC "-//W3C//DTD SVG 1.1//EN" "http://www.w3.org/Graphics/SVG/1.1/DTD/svg11.dtd" >
<svg xmlns="http://www.w3.org/2000/svg" xmlns:xlink="http://www.w3.org/1999/xlink" version="1.1" viewBox="-10 0 1010 1000">
   <path fill="currentColor"
d="M345 -4q34 27 72 86l-72 30h220q41 -70 60 -116l21 6q82 24 72 34q-1 5 -12 11q-35 19 -67 65h113q60 0 141 -6v71q-4 0 -14 -1q-68 -5 -125 -5h-220v67h139q108 0 150 -3v67q-59 -4 -146 -4h-143v64h210q101 0 135 -4v69q-82 -6 -131 -6h-63q79 26 73 36q0 7 -16 23
q-21 20 -36 38h88q64 0 146 -6v72q-10 0 -38 -2q-59 -4 -106 -4h-598q-53 0 -125 5q-13 1 -19 1v-72q56 6 144 6h106q-18 -26 -50 -61l65 -36h-67q-46 0 -111 4q-20 1 -30 2v-69q23 2 56 3q15 1 35 1h50h210v-66h-162h-40q-70 -1 -95 4v-67q27 6 135 4h162v-66h-208
q-81 0 -145 4v-69q82 6 143 6h79q-26 -53 -59 -88zM462 421h-131q3 4 9 14q41 64 47 83h75v-97zM534 421v97h99q31 -56 44 -97h-143zM714 701h-434v89h434v-89zM800 635q-6 36 -6 143q0 78 6 119h-90q4 -24 4 -47h-432q0 13 3 43q1 4 1 6h-94q8 -46 8 -129q0 -78 -4 -135
q45 6 117 6h360q94 0 127 -6z" />
</svg>
