<?xml version="1.0" standalone="no"?>
<!DOCTYPE svg PUBLIC "-//W3C//DTD SVG 1.1//EN" "http://www.w3.org/Graphics/SVG/1.1/DTD/svg11.dtd" >
<svg xmlns="http://www.w3.org/2000/svg" xmlns:xlink="http://www.w3.org/1999/xlink" version="1.1" viewBox="-10 0 1010 1000">
   <path fill="currentColor"
d="M903 40q-6 21 -6 97v32q0 71 6 107q-30 -10 -155 -10h-292q3 267 -25 378q-24 115 -116 239q-31 -24 -97 -39q114 -83 140 -197q34 -115 33 -438q0 -81 -1 -112q-1 -38 -5 -59q72 9 196 10h205q64 0 117 -8zM75 66q28 8 106 8h53q51 0 89 -8q-6 33 -6 127v339
q0 108 6 133h-85q8 -39 8 -75h-91q0 77 8 119h-90q12 -36 12 -149v-325q0 -134 -10 -169zM456 112v91h369v-91h-369zM157 137v389h89v-389h-89zM482 324q60 6 139 6h157q82 0 127 -6v75q-51 -6 -125 -6h-70l-119 123l213 -2q-5 -5 -17 -15q-10 -9 -47 -42l60 -34
q76 68 137 137l-68 42q-5 -6 -15 -19t-15 -19l-119 4v79h58q83 -1 125 -10v76q-30 -6 -125 -6h-58v87h76q93 0 141 -12v80q-45 -8 -133 -8h-233q-97 0 -138 8v-78q40 10 150 10h70v-87h-46q-89 0 -125 6v-74q71 8 129 8h42v-75q-127 0 -151 14q-12 -45 -24 -74
q64 4 153 -121q-102 0 -149 10v-77z" />
</svg>
