<?xml version="1.0" standalone="no"?>
<!DOCTYPE svg PUBLIC "-//W3C//DTD SVG 1.1//EN" "http://www.w3.org/Graphics/SVG/1.1/DTD/svg11.dtd" >
<svg xmlns="http://www.w3.org/2000/svg" xmlns:xlink="http://www.w3.org/1999/xlink" version="1.1" viewBox="-10 0 1034 1024">
  <g transform="matrix(1 0 0 -1 0 820)">
   <path fill="currentColor"
d="M452 405q-30 1 -61 3q-3 0 -8 3v-48q7 3 24 4q24 0 45 3l497 -1q12 0 40 -6v48q-12 -3 -27 -4q-21 0 -40 -2h-175q9 21 26 44q4 9 7 10l43 60q9 12 21 19q12 9 33 14q-30 15 -67 42q-6 -25 -29 -65q-39 -63 -82 -124h-247zM484 648l-62 4q-3 0 -6 1v-47q6 3 27 4
q27 1 199 2l276 -1q9 0 30 -5v47q-33 -1 -67 -5h-175q6 12 22 25l6 6q-22 21 -53 45q-36 28 -57 47q-12 -15 -32 -37q63 -33 106 -86h-214zM475 -71q-3 -33 -3 -57q0 -3 -3 -13h49l-4 30q-1 27 -2 47h330l-4 -72l-1 -6h50q-4 18 -5 35l-1 322l6 69l-75 -6l-292 1q-6 1 -51 5
q6 -66 6 -88v-267zM512 -28v113h330v-113h-330zM512 120v122h330v-122h-330zM596 429q15 9 31 17q-12 21 -68 105l-19 31q-19 -13 -39 -23q48 -66 86 -137q4 4 9 7zM112 99q-3 -58 -5 -68q-1 0 -1 -2h48q-6 51 -5 84v16h151q-3 -87 -5 -100h49q-6 27 -6 54l1 524q0 3 5 48
q-36 -1 -73 -5q-96 0 -123 2q-6 3 -42 3l6 -68v-488zM149 165v449h151v-449h-151z" />
  </g>

</svg>
