<?xml version="1.0" standalone="no"?>
<!DOCTYPE svg PUBLIC "-//W3C//DTD SVG 1.1//EN" "http://www.w3.org/Graphics/SVG/1.1/DTD/svg11.dtd" >
<svg xmlns="http://www.w3.org/2000/svg" xmlns:xlink="http://www.w3.org/1999/xlink" version="1.1" viewBox="-10 0 1010 1000">
   <path fill="currentColor"
d="M510 -17q94 12 103 25q0 2 -6 7q-27 21 -40 55h175q87 0 117 -6q-15 41 -82 208q-14 36 -15 38h73q79 0 103 -4v75q-35 -8 -109 -12h-182l-44 46q47 53 74 99q89 -63 131 -131q89 56 83 66q-2 4 -10 7q-29 9 -73 46q18 175 158 229q-41 24 -83 75q-118 -106 -133 -262
q-10 5 -46 32q16 59 20 95q4 37 0 85q-7 86 -42 115q-34 32 -134 42q-1 -58 -48 -103q118 34 137 -34q8 -36 9 -57q2 -23 -1 -58q-139 131 -304 197q-20 -44 -63 -78q203 -34 351 -190q-5 -20 -20 -50q-90 84 -234 157q-18 -36 -58 -62q152 -40 262 -147q-12 -23 -23 -35
q-75 53 -163 99q-21 -33 -64 -60q119 -20 233 -123h-104q-85 0 -115 6v-71q46 5 113 6h225l25 -60h-210q-53 1 -71 12q-12 -36 -30 -69q70 3 115 -210zM73 92q8 0 44 2q34 1 56 2h45q65 0 97 -4q-5 30 -5 127v391q0 72 5 97h-85l6 -95h-83v29q0 66 6 96h-88q8 -37 8 -96
v-416q-3 -109 -6 -133zM153 161v385h83v-385h-83zM752 129h-210l-28 62h214z" />
</svg>
