<?xml version="1.0" standalone="no"?>
<!DOCTYPE svg PUBLIC "-//W3C//DTD SVG 1.1//EN" "http://www.w3.org/Graphics/SVG/1.1/DTD/svg11.dtd" >
<svg xmlns="http://www.w3.org/2000/svg" xmlns:xlink="http://www.w3.org/1999/xlink" version="1.1" viewBox="-10 0 1010 1000">
   <path fill="currentColor"
d="M444 -6q103 0 102 12q1 3 -4 12q-12 23 -12 54h250q66 0 133 -8v75q-9 -9 -133 -8h-250v64h170q115 0 135 -8v75q-4 -8 -133 -8h-422q-114 -1 -123 8v-75q19 8 125 8h168v-64h-250q-115 -1 -121 8v-75q19 8 123 8h248q0 -62 -5 -75q-1 -2 -1 -3zM317 306h352q77 0 125 -6
q-6 29 -6 73v42q0 44 6 72q-48 -6 -111 -6h-379q-74 0 -108 6q6 -36 6 -74v-34q0 -48 -6 -79q48 6 121 6zM716 362h-442v63h442v-63zM611 492l76 18q-6 8 -18 25t-18 25h151q120 0 138 -8v75q-8 -9 -136 -8h-629q-120 -1 -129 8v-75q61 8 129 8h160l-35 -42l75 -24
q7 12 26 54l6 12h176q21 -42 28 -68zM183 665q37 6 125 6h379q91 0 126 -6q-5 37 -5 81v76q0 55 7 85h-83l4 -47h-476l4 47h-83q7 -38 7 -85v-80q1 -41 -5 -77zM260 727v77h476v-77h-476z" />
</svg>
