<?xml version="1.0" standalone="no"?>
<!DOCTYPE svg PUBLIC "-//W3C//DTD SVG 1.1//EN" "http://www.w3.org/Graphics/SVG/1.1/DTD/svg11.dtd" >
<svg xmlns="http://www.w3.org/2000/svg" xmlns:xlink="http://www.w3.org/1999/xlink" version="1.1" viewBox="-10 0 1034 1024">
  <g transform="matrix(1 0 0 -1 0 820)">
   <path fill="currentColor"
d="M536 -160q61 6 94 20q70 36 71 163q0 39 -4 75q-4 30 -16 70q28 21 57 45q12 -81 58 -161q54 -90 134 -155q30 25 54 40q-39 13 -61 31q-42 30 -83 88q-57 79 -67 185q21 15 36 29q15 9 27 18q21 12 46 14q-15 13 -34 35q-1 1 -14 18q-10 -18 -53 -58l-54 -47
q-21 -18 -61 -50q-22 40 -39 61q-21 24 -64 62q12 12 56 47q7 9 16 15l282 -1q18 0 30 -4v46q-33 -1 -67 -5h-155q1 6 68 186l33 77q-75 -4 -80 -5h-215q22 57 56 74q-45 16 -62 27q-1 -19 -18 -61q-9 -24 -23 -54q-15 -34 -36 -78q-12 -24 -30 -31q4 -6 10 -19q3 -13 8 -29
q10 3 22 5q30 3 42 4h220l-37 -96l-301 1q-42 3 -48 4v-46q30 4 68 5h173q-45 -37 -103 -75q-37 -22 -69 -35q-21 -9 -61 -14q10 -10 18 -19q7 -9 22 -26q64 28 148 84q24 -19 50 -48q-48 -58 -144 -114q-54 -30 -119 -40q30 -24 48 -43q115 60 166 103q63 54 76 62
q21 -30 30 -59q-85 -91 -192 -162q-87 -54 -161 -61q27 -18 50 -47q54 27 105 57q24 15 58 38q90 66 156 134q9 -45 9 -91q0 -84 -26 -113q-27 -27 -73 -28q-16 0 -50 6q3 -6 17 -39q1 -9 6 -15zM476 553l40 90h249q-13 -42 -33 -90h-256zM72 629q3 -27 3 -36
q-3 -540 -5 -552q-1 0 -1 -2h48q-4 34 -5 80h139l-5 -77h48q-3 12 -3 29q0 21 -2 41l1 501q0 21 4 49q-36 -1 -72 -5l-102 1q-19 3 -51 4zM112 155v466h139v-466h-139z" />
  </g>

</svg>
