<?xml version="1.0" standalone="no"?>
<!DOCTYPE svg PUBLIC "-//W3C//DTD SVG 1.1//EN" "http://www.w3.org/Graphics/SVG/1.1/DTD/svg11.dtd" >
<svg xmlns="http://www.w3.org/2000/svg" xmlns:xlink="http://www.w3.org/1999/xlink" version="1.1" viewBox="-10 0 1010 1000">
   <path fill="currentColor"
d="M429 32q4 0 15 1q56 7 161 7h129q114 -1 155 -10q-8 57 -8 135v87q0 96 8 137q-17 -2 -47 -3q-14 -1 -35 -1h-55h-147q-2 3 -5 7q-37 52 -38 61h214q119 -1 161 -4q-18 161 -20 253q-2 137 -28 158q-35 41 -163 45q-2 -46 -34 -99q90 24 127 -14q12 -18 30 -276h-149
l-23 60q101 62 131 83q-36 28 -56 64q-37 -45 -105 -92q-30 41 -85 88q-19 -25 -74 -44q110 -57 137 -159h-117q-24 23 -73 68q57 0 63 8q2 3 -4 10q-14 17 -14 39v117h97q60 0 100 -4v80q-41 -8 -92 -8h-63q-51 0 -73 1q-27 1 -46 3q6 -27 6 -76v-79v-46q-1 -13 -2 -19
q-12 5 -24 17q-9 -47 -42 -75q98 -49 185 -171q-57 0 -95 6q6 -33 6 -162v-60q0 -90 -8 -133zM512 185h294v-81h-294v81zM153 137v443h107v-443h-107zM512 240v82h294v-82h-294zM347 697h-95q6 -24 6 -50h-105q0 80 8 113h-92q8 -54 8 -127v-412q0 -99 -8 -157q45 6 114 6
h49q70 0 111 -4q-8 39 -8 127v355q0 59 12 149z" />
</svg>
