<?xml version="1.0" standalone="no"?>
<!DOCTYPE svg PUBLIC "-//W3C//DTD SVG 1.1//EN" "http://www.w3.org/Graphics/SVG/1.1/DTD/svg11.dtd" >
<svg xmlns="http://www.w3.org/2000/svg" xmlns:xlink="http://www.w3.org/1999/xlink" version="1.1" viewBox="-10 0 1010 1000">
   <path fill="currentColor"
d="M581 -2q13 0 33 1q61 0 59 9q1 2 -2 5q-14 13 -14 47v85h127q61 0 121 -8v84q-39 -9 -115 -8h-64q61 140 236 172q-49 37 -69 86q-11 -5 -42 -26q-8 -5 -12 -8q-3 12 -3 33q-1 15 -1 78v69q0 109 8 133q-42 -9 -147 -8h-140q-109 0 -150 9q-3 1 -5 1q10 -53 10 -142v-42
q0 -59 -1 -81q-1 -28 -3 -46l-32 26q-30 -44 -51 -63q-4 -4 -3 -5q94 -31 201 -190h-36q-83 -1 -125 8v-80q36 8 127 8h97v-85q0 -28 -3 -54q-1 -5 -1 -8zM246 185h-93v359h93v-359zM585 213q-76 128 -156 204q7 1 29 2h28h52h47v-206zM657 213v206h51q55 0 72 -1
q22 -1 32 -3q-117 -94 -141 -202h-14zM486 479v69h274v-69h-274zM486 604v79h274v-79h-274zM312 794q71 8 162 8h304q77 0 149 -8v87q-54 -8 -149 -8h-300q-101 0 -166 8v-87zM317 548q0 122 10 147h-91q10 -34 10 -87h-93q0 114 12 152h-96q12 -47 12 -166v-326
q0 -96 -8 -153q21 6 102 6h43q62 0 109 -8q-10 26 -10 124v311z" />
</svg>
