<?xml version="1.0" standalone="no"?>
<!DOCTYPE svg PUBLIC "-//W3C//DTD SVG 1.1//EN" "http://www.w3.org/Graphics/SVG/1.1/DTD/svg11.dtd" >
<svg xmlns="http://www.w3.org/2000/svg" xmlns:xlink="http://www.w3.org/1999/xlink" version="1.1" viewBox="-10 0 1010 1000">
   <path fill="currentColor"
d="M597 -4h31q60 -1 60 4q1 1 -2 5q-7 11 -7 27v50h103q56 0 127 -8v81q-42 -6 -123 -6h-105q0 50 6 80h-90q6 -30 6 -80h-87q-89 -1 -131 8v-81q30 6 131 6h87v-36q0 -33 -6 -50zM67 90q19 6 106 6h55q73 0 105 -6q-8 34 -8 133v335q0 97 8 139h-89q6 -24 6 -56h-99
q-3 74 4 115h-88q8 -70 8 -158v-360q0 -92 -8 -148zM250 163h-99v411h99v-411zM726 191q17 1 47 1q40 -1 40 3q1 2 -2 7q-9 14 -9 38v40h47q58 0 93 -6v80q-32 -6 -89 -6h-51q3 37 10 63h-90q8 -31 8 -63h-194q0 40 8 61h-88q8 -39 8 -61q-77 0 -119 6v-80q30 6 119 6v-36
q0 -32 -4 -49q88 -1 86 6q1 2 -2 6q-8 11 -8 31v42h194v-42q0 -20 -4 -47zM405 425q59 6 166 6h145q88 0 153 -8q-2 12 -3 41q-1 13 -1 34v58v32q0 105 10 125h-91q4 -17 5 -37q1 -22 1 -72v-110h-302v100q0 83 8 119h-91q8 -52 8 -115v-68q0 -71 -8 -105zM595 542q8 1 22 3
q78 10 83 17q0 1 -3 4q-17 17 -24 51q-29 233 -322 286q-16 -44 -61 -81q326 3 305 -280zM702 709q154 67 231 113l-58 77q-147 -105 -222 -135z" />
</svg>
