<?xml version="1.0" standalone="no"?>
<!DOCTYPE svg PUBLIC "-//W3C//DTD SVG 1.1//EN" "http://www.w3.org/Graphics/SVG/1.1/DTD/svg11.dtd" >
<svg xmlns="http://www.w3.org/2000/svg" xmlns:xlink="http://www.w3.org/1999/xlink" version="1.1" viewBox="-10 0 1010 1000">
   <path fill="currentColor"
d="M591 -2q91 0 96 10q2 3 -2 9q-14 20 -14 61v125h142q74 0 127 -12v87q-38 -8 -117 -8h-91q61 105 224 139q-33 36 -57 87q-154 -56 -228 -228v52q0 99 12 123h-92q8 -42 8 -115v-56q-53 124 -184 222q-17 -21 -62 -46q-12 -7 -18 -11q152 -60 205 -167h-50q-86 0 -117 8
v-85q21 9 121 10h105v-127q0 -59 -8 -78zM794 24q86 25 93 32q0 6 -8 10q-15 8 -26 24q-6 10 -26 45q-18 35 -27 50q-44 -17 -72 -22q47 -70 66 -139zM486 44q37 57 62 117l-74 30q-14 -53 -61 -123zM185 104h47q72 0 105 -6q-8 30 -8 144v348q0 109 8 156h-93
q10 -34 10 -109h-101q0 113 8 143h-94q10 -44 10 -139v-357q0 -139 -8 -188q28 8 116 8zM153 167v407h101v-407h-101zM569 451q91 22 98 34q-2 3 -8 5q-14 5 -22 16q-11 15 -22 34h222q59 0 105 -8v80q-23 -9 -101 -8h-41q-29 78 -60 127q46 14 155 57q35 13 47 18
q-33 35 -55 83q-121 -73 -193 -105q-111 75 -319 113q-13 -43 -54 -81q191 -7 302 -68q-183 -51 -197 -49q-7 -1 -11 -2q40 -36 85 -93h-34q-71 0 -113 6v-78q42 8 117 8h66q26 -52 33 -89zM577 604l-43 57q101 29 135 42q27 -36 45 -99h-137z" />
</svg>
