<?xml version="1.0" standalone="no"?>
<!DOCTYPE svg PUBLIC "-//W3C//DTD SVG 1.1//EN" "http://www.w3.org/Graphics/SVG/1.1/DTD/svg11.dtd" >
<svg xmlns="http://www.w3.org/2000/svg" xmlns:xlink="http://www.w3.org/1999/xlink" version="1.1" viewBox="-10 0 1034 1024">
  <g transform="matrix(1 0 0 -1 0 820)">
   <path fill="currentColor"
d="M87 606q3 -24 3 -34q0 -537 -3 -564q-1 -1 -2 -11h49q-6 21 -6 71v38h143q-3 -97 -6 -104h49q-3 33 -5 65l1 525q0 18 4 46q-72 -4 -105 -5q-57 0 -86 2q-4 1 -7 1q-12 0 -31 2q0 -15 2 -32zM128 142v455h143v-455h-143zM891 161q31 0 63 -5v46q-39 -4 -64 -5h-288
q30 45 40 56q9 12 27 22q-18 3 -29 8q-6 1 -25 14q-16 -42 -56 -100h-157q-48 0 -62 5v-46q19 4 62 5h133l-28 -42q-36 -49 -46 -59q-6 -6 -12 -13q0 -9 58 -23q34 -4 130 -43q-39 -27 -58 -37q-69 -33 -137 -44q-36 -6 -66 -6l-60 6q24 -22 36 -54q201 24 329 118l98 -43
l74 -36q49 -28 61 -43q6 24 24 45q-18 12 -82 41q-64 30 -144 64q31 43 52 77q18 34 43 92h84zM766 161q-39 -87 -93 -153q-36 12 -57 20q-16 6 -32 11q-66 21 -66 30q3 6 9 11q9 21 16 27q0 6 13 23q6 9 15 19q6 7 8 12h187zM619 385q0 -31 -3 -59q0 -4 -4 -13h51
q-6 51 -5 79v107q55 -75 118 -129q54 -46 143 -92q15 30 40 46q-57 9 -95 30q-99 58 -167 156h172q30 0 62 -6v47q-30 -4 -63 -5h-210v161q0 18 3 34q1 9 10 26h-59q6 -21 7 -60v-161l-207 1l-32 4v-47q24 6 61 6h156q-45 -52 -87 -91q-42 -36 -87 -66q-54 -33 -102 -41
q31 -15 48 -38q21 12 43 26q24 15 55 39q72 54 152 140v-94zM438 720q-3 -3 -18 -14q-1 -1 -5 -3q72 -51 112 -134q15 16 28 24q4 1 8 4q-16 25 -76 97q-24 30 -35 41q-7 -7 -14 -15zM725 609q15 -9 23 -14q6 -3 16 -17q0 1 71 79q33 39 45 45q6 4 20 10q-25 12 -44 34
q-7 -16 -51 -68q-28 -33 -47 -50q-15 -12 -33 -19v0z" />
  </g>

</svg>
