<?xml version="1.0" standalone="no"?>
<!DOCTYPE svg PUBLIC "-//W3C//DTD SVG 1.1//EN" "http://www.w3.org/Graphics/SVG/1.1/DTD/svg11.dtd" >
<svg xmlns="http://www.w3.org/2000/svg" xmlns:xlink="http://www.w3.org/1999/xlink" version="1.1" viewBox="-10 0 1010 1000">
   <path fill="currentColor"
d="M595 -21q107 28 101 33q2 4 -8 10q-12 9 -13 16q96 157 309 212q-47 30 -73 86q-79 -36 -155 -103v59q-36 -6 -97 -6h-46q-59 0 -101 6v-57q-25 30 -126 108q-13 10 -19 15q-9 -38 -44 -72q160 -71 272 -307zM631 88q-60 85 -105 133q3 0 12 1q30 5 67 5h50q59 0 84 -5
q2 -1 3 -1q-28 -26 -103 -122q-5 -7 -8 -11zM141 165v397h103v-397h-103zM808 358q101 3 99 11q1 3 -5 11q-15 23 -15 53v413q12 70 -143 73q-8 -57 -28 -91q102 23 96 -28v-361q-1 -52 -4 -81zM685 393h23q58 -2 62 6q1 2 -3 10q-9 21 -9 40v186q0 92 6 125h-83
q9 -41 9 -113v-157q-1 -70 -5 -97zM452 415v89h111v-89h-111zM452 564v95h111v-95h-111zM315 613q0 81 8 125h-89q10 -31 10 -109h-103v22q0 72 6 115h-87q9 -51 9 -141v-361q0 -119 -6 -172q21 6 98 6h47q65 0 115 -8q-8 17 -8 101v422zM478 352h50q71 0 107 -6q-2 7 -3 27
q-1 16 -1 66v385q6 67 -119 81q-1 -45 -22 -89q47 8 59 6q15 -1 14 -16v-87h-111v59q0 96 8 121h-83q8 -49 8 -119v-428h93z" />
</svg>
