<?xml version="1.0" standalone="no"?>
<!DOCTYPE svg PUBLIC "-//W3C//DTD SVG 1.1//EN" "http://www.w3.org/Graphics/SVG/1.1/DTD/svg11.dtd" >
<svg xmlns="http://www.w3.org/2000/svg" xmlns:xlink="http://www.w3.org/1999/xlink" version="1.1" viewBox="-10 0 1034 1024">
  <g transform="matrix(1 0 0 -1 0 820)">
   <path fill="currentColor"
d="M493 227l-402 1l-29 5v-48q6 3 13 3q21 0 56 3l796 -1q9 0 30 -5v48q-9 -3 -59 -6h-368v104h212q36 0 51 -4q1 0 15 -2v47l-66 -6h-212q0 51 3 68q1 18 11 37h-57q6 -87 6 -95v-10h-201q9 22 25 51q18 24 40 37q-43 13 -64 26q-3 -25 -34 -89q-43 -81 -89 -115
q9 -4 37 -14q1 0 14 -9l49 78h223v-104zM107 448q-3 -30 -3 -56q0 -4 -3 -13h50q-4 24 -5 43l-1 82h716l-5 -114q-1 -1 -2 -6h51q-6 34 -7 57q0 45 3 65q0 3 1 6l3 33q-120 -4 -123 -5h-73q15 30 30 50q1 4 60 96q24 40 57 55q-15 6 -27 14q-10 7 -34 26q-6 -22 -34 -78
q-48 -90 -100 -163l-511 1q-19 3 -49 4q6 -60 6 -92v-5zM188 729q-12 -9 -20 -17l75 -91q28 -36 46 -61q18 21 32 31q-75 96 -111 136q-3 6 -10 14zM416 762q42 -55 97 -173q7 4 13 10l25 13l-34 68q-22 42 -61 106q-18 -13 -40 -24zM203 126q6 -76 7 -87l-5 -179l-2 -6h50
q-6 21 -5 49q-1 9 -1 16h528q0 -36 -5 -61h48q-6 55 -5 85l1 134l4 49l-71 -6l-488 1q-39 4 -56 5zM247 -44v129h528v-129h-528z" />
  </g>

</svg>
