<?xml version="1.0" standalone="no"?>
<!DOCTYPE svg PUBLIC "-//W3C//DTD SVG 1.1//EN" "http://www.w3.org/Graphics/SVG/1.1/DTD/svg11.dtd" >
<svg xmlns="http://www.w3.org/2000/svg" xmlns:xlink="http://www.w3.org/1999/xlink" version="1.1" viewBox="-10 0 1010 1000">
   <path fill="currentColor"
d="M351 20q42 8 119 8h349q102 -3 125 -8v80q-24 -5 -93 -7q-20 -1 -30 -1h-162l-16 65h93q96 -3 133 -6q-6 33 -6 121v115q2 99 6 131q-44 -5 -121 -6h-200q2 1 5 2q48 14 46 18q0 2 -8 8q-19 12 -35 30h184q81 0 121 -6q-49 110 -165 198q134 45 268 44q-41 46 -55 97
q-204 -47 -278 -97q-101 55 -280 91q-15 -44 -59 -83q148 -1 275 -56q-51 -44 -89 -105q-39 45 -109 111q-28 -33 -71 -51q118 -59 204 -201q-69 0 -103 4q8 -21 8 -147v-89q0 -106 -4 -129q26 5 85 6h74l15 -65h-107q-83 -3 -119 4v-76zM79 72q21 3 98 4h53q20 0 95 -6h6
q-5 45 -6 139v345q1 92 8 119h-87q3 -22 6 -79h-93q0 85 6 115h-88q8 -43 8 -133v-357q-1 -107 -6 -147zM252 141h-93v387h93v-387zM484 213v45h300v-45h-300zM484 308v48h300v-48h-300zM784 405h-300v52h300v-52zM538 629q28 52 91 96q48 -28 107 -96h-198z" />
</svg>
