<?xml version="1.0" standalone="no"?>
<!DOCTYPE svg PUBLIC "-//W3C//DTD SVG 1.1//EN" "http://www.w3.org/Graphics/SVG/1.1/DTD/svg11.dtd" >
<svg xmlns="http://www.w3.org/2000/svg" xmlns:xlink="http://www.w3.org/1999/xlink" version="1.1" viewBox="-10 0 1034 1024">
  <g transform="matrix(1 0 0 -1 0 820)">
   <path fill="currentColor"
d="M363 -105q15 15 62 51q21 18 41 36q21 24 36 36q9 9 19 13q10 7 28 11q-12 6 -23 12q-18 9 -34 21q-46 -72 -127 -126q-24 -16 -53 -25q13 -9 29 -20q7 -7 17 -14q1 3 5 5zM613 443l-250 1q-7 1 -15 2q-1 0 -8 2v-47q6 3 33 4q21 1 62 2h110q-81 -69 -99 -82
q-24 -15 -50 -23q12 -27 16 -41q0 -4 2 -9q21 9 47 12q63 6 149 11q-24 -18 -125 -86q-61 -33 -102 -35q6 -21 13 -53q30 9 50 11q24 3 109 8q36 1 71 5v-192q0 -30 -15 -36q-21 -6 -48 -7q-18 0 -50 7q1 -1 4 -6q4 -9 13 -34q0 -4 5 -13q30 1 45 3q40 4 60 17q24 13 24 55
v207l173 8q36 -33 44 -43q10 10 32 26q-15 19 -44 48l-104 98q-10 -13 -18 -20q-6 -6 -14 -11q42 -33 75 -67l-305 -9q9 7 20 14q18 10 33 22q120 84 174 118q24 15 39 23q15 9 51 16q-30 16 -57 42q-33 -43 -100 -82l-183 -4q7 7 17 15q18 13 36 29q51 42 75 58l305 -1
q19 0 35 -5v47q-33 -1 -67 -5h-230v81l196 -1q9 0 30 -5v48q-9 -3 -59 -6h-167v70l229 -1q6 0 30 -5v47l-13 -2q-27 0 -54 -3h-192q0 60 3 65q3 12 11 26h-57q0 -6 3 -31l2 -60l-215 1q-9 1 -16 2q-3 0 -13 2v-47q6 3 27 4q27 1 217 2v-70h-143q-33 0 -55 3q-6 0 -14 3v-48
q7 3 23 4l189 2v-81zM784 63q-6 -7 -11 -15q-3 0 -8 -9q108 -73 158 -144q6 7 10 12q3 6 21 24l-93 87l-68 56q-4 -4 -9 -11zM92 609q3 -24 3 -36l-1 -507q-4 -45 -5 -48h48q-3 21 -5 70v50h134l-4 -66q-1 -1 -1 -4h48q-3 12 -3 29q0 21 -2 42l1 455q0 21 4 49
q-72 -6 -93 -6q-60 0 -85 2q-1 0 -42 4zM132 174v427h134v-427h-134z" />
  </g>

</svg>
