<?xml version="1.0" standalone="no"?>
<!DOCTYPE svg PUBLIC "-//W3C//DTD SVG 1.1//EN" "http://www.w3.org/Graphics/SVG/1.1/DTD/svg11.dtd" >
<svg xmlns="http://www.w3.org/2000/svg" xmlns:xlink="http://www.w3.org/1999/xlink" version="1.1" viewBox="-10 0 1034 1024">
  <g transform="matrix(1 0 0 -1 0 820)">
   <path fill="currentColor"
d="M140 661q-27 3 -53 5q1 -30 5 -61l-1 -506l-3 -20q-1 -3 -1 -6h47q-4 48 -5 74h151q0 -51 -4 -73q-1 -1 -1 -4h47q-3 30 -4 57l1 498q0 21 3 41q-28 -1 -58 -5h-124zM129 183v442h151v-442h-151zM434 245q1 -30 5 -61v-264l-108 4q-4 0 -8 1v-46q3 0 7 1q6 3 39 3l545 1
q25 0 53 -3q6 0 9 -2v46q-12 -3 -27 -3l-70 -2h-13l1 280l4 45q-31 -1 -63 -5l-331 1q-15 3 -43 4zM477 -80v284h92v-284h-92zM606 -80v284h92v-284h-92zM734 -80v284h94v-284h-94zM342 250q18 -13 27 -23q9 9 18 17q52 42 84 71q25 22 53 51q12 12 26 27q21 24 49 29
q-30 19 -53 40q-30 -54 -108 -125q-66 -57 -115 -73q9 -6 19 -14zM437 540q-36 0 -49 3q-3 1 -11 2v-46q3 0 6 1q6 3 40 3l438 1q25 0 53 -3q6 0 9 -2v46q-4 -1 -10 -2l-2 -1l-99 -2h-98l84 134q30 42 56 50q-13 9 -27 17q-13 7 -31 21q-21 -52 -57 -117q-42 -70 -70 -105
h-232zM489 714l-16 19q-18 -18 -32 -26q15 -12 27 -24q15 -15 41 -45q24 -27 38 -44q9 -9 21 -31q24 25 32 29q-31 39 -59 69zM709 444q-3 -6 -16 -18q13 -6 62 -39q54 -37 88 -67q33 -25 53 -45l27 -30q15 24 20 30q4 3 10 10q-39 33 -115 91q-24 15 -116 84q-7 -7 -13 -16
v0z" />
  </g>

</svg>
