<?xml version="1.0" standalone="no"?>
<!DOCTYPE svg PUBLIC "-//W3C//DTD SVG 1.1//EN" "http://www.w3.org/Graphics/SVG/1.1/DTD/svg11.dtd" >
<svg xmlns="http://www.w3.org/2000/svg" xmlns:xlink="http://www.w3.org/1999/xlink" version="1.1" viewBox="-10 0 1034 1024">
  <g transform="matrix(1 0 0 -1 0 820)">
   <path fill="currentColor"
d="M603 155l-5 -62h48q-4 54 -5 62l1 269q0 15 5 26q1 10 9 20h-58q1 -33 5 -67v-211l-86 -6v361q66 0 135 -4q1 1 6 -1q3 0 5 -1v46q-31 -3 -72 -4h-54q7 13 16 29q34 67 46 81q9 15 35 32q-27 18 -52 38q-12 -36 -32 -76q-9 -21 -18 -38q-21 -42 -37 -66h-108q-39 0 -65 4
v-46q15 3 29 4l72 2h56v-364q-39 -3 -77 -7v222q0 15 3 32q1 18 11 35h-57q1 -33 5 -67l-1 -222q-3 -15 -4 -43l116 14q-15 -123 -115 -209q-34 -28 -76 -37q21 -16 41 -42q54 34 118 112q55 72 73 179zM318 732q46 -34 109 -126q13 15 36 29q-42 46 -44 50q-63 72 -67 76
q-15 -15 -34 -29zM897 188v-246q0 -21 -11 -28q-12 -6 -37 -6q-40 0 -78 11q7 -27 10 -55l31 1q43 0 66 4q15 3 30 10q27 12 27 54l1 737l4 43q-27 -1 -56 -5l-135 1q-19 3 -41 4q1 -33 5 -66l-1 -454q-3 -51 -9 -89q-7 -31 -19 -61q-31 -85 -89 -128q-18 -12 -41 -17
q28 -15 51 -39q141 147 145 329h147zM751 457v215h146v-215h-146zM751 226v195h146v-195h-146zM91 628q1 -33 5 -66q-3 -528 -5 -542h48q-3 7 -4 33l-1 73h114q-1 -27 -3 -55q-1 -4 -1 -7l-2 -11h49q-3 7 -4 33q-1 19 -2 60l1 426q0 21 5 56q-18 -1 -31 -2q-18 -3 -60 -3
l-90 4q-10 1 -19 1zM134 161v426h114v-426h-114z" />
  </g>

</svg>
