<?xml version="1.0" standalone="no"?>
<!DOCTYPE svg PUBLIC "-//W3C//DTD SVG 1.1//EN" "http://www.w3.org/Graphics/SVG/1.1/DTD/svg11.dtd" >
<svg xmlns="http://www.w3.org/2000/svg" xmlns:xlink="http://www.w3.org/1999/xlink" version="1.1" viewBox="-10 0 1010 1000">
   <path fill="currentColor"
d="M550 -10q86 19 89 28q0 1 -2 5q-30 36 -72 162q60 -1 96 -4v73q-42 -9 -135 -6q-1 42 0 130q0 110 -2 154l53 -2v-113q0 -66 -4 -101q77 -5 80 4q1 2 -2 7q-14 34 -14 98v101q0 60 4 101h-68v-3q4 -18 4 -36l-61 4q-41 184 -216 303q-18 -29 -74 -57q174 -74 222 -240
q-78 3 -107 10q8 -55 8 -94v-85q0 -84 -6 -113q88 -1 88 8q0 2 -2 9q-16 57 -16 203l45 -2q6 -86 6 -286q-77 -1 -119 8v-77q45 6 163 6q40 -118 42 -195zM427 -8q32 61 55 137l-69 28q-13 -61 -52 -137zM685 54q37 6 119 6t115 -6q-7 26 -6 98v11v651q13 62 -127 83
q-4 -53 -30 -93q57 7 74 0q17 -4 15 -30v-208h-95q-11 172 -188 341q-30 -35 -76 -57q204 -111 204 -358v-335q0 -68 -5 -103zM83 90q29 6 115 6q85 0 110 -6q-7 28 -6 90v13v315q0 91 4 129h-76q4 -24 4 -71h-79q0 69 6 117h-78q6 -42 6 -129v-347q0 -82 -6 -117zM845 119
h-89v169h89v-169zM234 149h-79v363h79v-363zM845 348h-89v158h89v-158z" />
</svg>
