<?xml version="1.0" standalone="no"?>
<!DOCTYPE svg PUBLIC "-//W3C//DTD SVG 1.1//EN" "http://www.w3.org/Graphics/SVG/1.1/DTD/svg11.dtd" >
<svg xmlns="http://www.w3.org/2000/svg" xmlns:xlink="http://www.w3.org/1999/xlink" version="1.1" viewBox="-10 0 1010 1000">
   <path fill="currentColor"
d="M583 -6q89 -2 100 8q1 4 -4 13q-14 29 -14 75h156q81 0 104 -6v71q-35 -8 -104 -8h-156v58h123q60 -1 87 -6v65q-16 -3 -75 -2h-10h-125v56h166q79 0 111 -6v73q-26 -6 -107 -6h-218q-55 48 -97 80h147q43 -32 71 -72q69 39 81 60q-4 4 -12 5q-21 3 -47 19q-22 13 -74 45
q-115 72 -160 92l266 -12q-37 -34 -62 -50l58 -44q86 71 154 147l-61 52q-17 -24 -44 -54l-168 8v185q1 39 -27 51q-25 14 -114 20q-3 -48 -48 -93q117 23 109 -20v-139q-125 9 -198 30q-6 -61 -24 -89q86 2 230 -88q-155 10 -184 22q-2 -35 -22 -77q58 -2 141 -78h-82
q-8 1 -35 2q-57 3 -76 6v-75q30 6 109 6h143v-56h-101h-2q-76 -1 -95 4v-67q21 6 91 6h107v-58h-137q-75 2 -99 8v-69q21 4 99 4h137q0 -72 -8 -96zM69 106q14 3 68 5q26 0 38 1h47q13 -1 35 -2q34 -2 68 -2q-6 37 -6 115v367q0 80 6 107h-87q1 -9 4 -42q2 -32 4 -51h-97v53
v16q-1 68 4 85h-88q9 -27 10 -103v-426q-1 -91 -6 -123zM248 179h-99v357h99v-357zM440 685q15 9 43 24q40 21 35 26q-2 4 -10 7q-20 6 -42 28q-6 6 -27 28q-52 55 -74 75q-35 -32 -81 -47q110 -57 156 -141zM786 691q40 37 102 96q31 29 43 41l-68 53q-75 -98 -141 -143z
" />
</svg>
