<?xml version="1.0" standalone="no"?>
<!DOCTYPE svg PUBLIC "-//W3C//DTD SVG 1.1//EN" "http://www.w3.org/Graphics/SVG/1.1/DTD/svg11.dtd" >
<svg xmlns="http://www.w3.org/2000/svg" xmlns:xlink="http://www.w3.org/1999/xlink" version="1.1" viewBox="-10 0 1010 1000">
   <path fill="currentColor"
d="M73 80q30 6 139 6q91 0 127 -6q-8 40 -8 188v250q0 138 10 181h-93q8 -36 8 -91h-101q0 117 8 136h-94q10 -48 10 -212v-236q0 -134 -6 -216zM157 153v387h99v-387h-99zM524 0q45 52 75 123l-77 34q-16 -50 -68 -123zM528 270q77 30 87 50q-3 4 -17 9q-25 9 -40 21
q-28 20 -115 95q-19 16 -28 24q24 6 63 6h308q15 0 57 -3q17 0 26 -1q-6 22 -6 83v238h20q20 0 64 -3q6 -1 9 -1v72q-26 -6 -89 -6h-476q-60 0 -99 6v-72q24 3 71 4h28v-240q0 -51 -4 -79q-3 -3 -9 -12q-23 -31 -41 -40q124 -59 191 -151zM704 274q116 55 205 125l-62 62
q-73 -77 -196 -135zM458 534v258h74v-258h-74zM585 534v258h76v-258h-76zM714 534v258h82v-258h-82zM369 171q35 6 115 6h167q49 -78 87 -179q97 28 93 36q-1 3 -6 7q-39 32 -99 136h89q57 0 77 -1q25 -1 45 -5v73q-19 -4 -43 -5q-25 -1 -79 -1h-337q-73 0 -109 6v-73z" />
</svg>
