<?xml version="1.0" standalone="no"?>
<!DOCTYPE svg PUBLIC "-//W3C//DTD SVG 1.1//EN" "http://www.w3.org/Graphics/SVG/1.1/DTD/svg11.dtd" >
<svg xmlns="http://www.w3.org/2000/svg" xmlns:xlink="http://www.w3.org/1999/xlink" version="1.1" viewBox="-10 0 1010 1000">
   <path fill="currentColor"
d="M609 -15q58 0 77 1q23 2 24 6q1 3 -3 10q-17 38 -17 115v294h141v-105q-87 0 -117 6v-79q34 5 117 5v-97q-71 0 -107 6v-79q104 12 189 0q-6 25 -6 127v172v15q-1 73 6 101q-27 -9 -115 -6h-108v71h80q85 0 115 -6q-89 156 -177 226q55 24 140 38q83 12 128 2
q-35 39 -55 101q-150 -28 -288 -91q-142 66 -320 95q-17 -49 -65 -91q174 8 327 -54q-61 -50 -121 -153q-45 -3 -75 6v-79q39 6 115 6h123v-71h-97q-99 -3 -123 6q7 -42 6 -122v-7v-159v-10q1 -69 -6 -109q88 -6 153 -38q57 65 51 77q-2 3 -18 3q-50 1 -107 15v105
q71 0 99 -5v77q-35 -9 -99 -6v107h141v-299q0 -55 -1 -75q-2 -26 -7 -52zM77 80q42 6 134 6q93 0 128 -6q-6 40 -6 129v343q0 98 6 125h-85q4 -33 4 -83h-101q-3 93 6 129h-86q7 -31 6 -118v-13v-379q0 -83 -6 -133zM258 149h-101v381h101v-381zM536 615q41 68 107 116
q66 -50 109 -116h-216z" />
</svg>
