<?xml version="1.0" standalone="no"?>
<!DOCTYPE svg PUBLIC "-//W3C//DTD SVG 1.1//EN" "http://www.w3.org/Graphics/SVG/1.1/DTD/svg11.dtd" >
<svg xmlns="http://www.w3.org/2000/svg" xmlns:xlink="http://www.w3.org/1999/xlink" version="1.1" viewBox="-10 0 1010 1000">
   <path fill="currentColor"
d="M875 16q-37 70 -145 157q65 18 157 52l-48 63q-61 -35 -170 -73q-90 49 -211 73q-34 -34 -71 -51q126 -9 216 -48q-68 -18 -141 -26l34 -55q140 35 165 43q38 -23 87 -69h-218q-78 0 -107 8v-78q41 9 107 10h236q53 0 97 -5q9 -1 12 -1zM329 48q-12 42 -12 103v385
q2 63 12 123h-91q9 -27 8 -93h-105v44q1 85 8 119h-87q7 -34 7 -119v-477q0 -52 -7 -85q29 8 91 8h85q68 1 91 -8zM246 119h-105v383h105v-383zM952 284q-34 81 -109 169q17 7 56 27q28 14 43 22l-39 58q-45 -38 -105 -66q-41 33 -100 64q-26 -36 -69 -44q83 -27 111 -49
q-65 -39 -103 -44l40 -46q79 30 111 50q15 -11 49 -59q8 -11 10 -14h-65q-85 0 -121 8v-76q36 8 121 8h73q57 0 97 -8zM593 542q85 4 82 10q0 4 -5 12q-11 16 -11 32h158q84 0 118 -8v69q-17 -6 -118 -6h-85q79 111 234 137q-46 30 -77 74q-144 -69 -230 -221v135
q0 69 8 113h-80q8 -29 8 -113v-131q-83 117 -242 226q-30 -42 -79 -59q114 -25 240 -163h-42q-80 0 -111 6v-67q38 7 113 8h121q1 -42 -2 -54zM458 294h94q46 0 95 -8q-42 104 -95 165l71 32l-48 51q-28 -27 -61 -42q-76 63 -123 86q-21 -24 -56 -44q76 -26 129 -69
q-35 -21 -99 -34l32 -46q58 19 101 40q32 -34 46 -67h-90q-44 0 -83 7v-79q13 5 87 8z" />
</svg>
