<?xml version="1.0" standalone="no"?>
<!DOCTYPE svg PUBLIC "-//W3C//DTD SVG 1.1//EN" "http://www.w3.org/Graphics/SVG/1.1/DTD/svg11.dtd" >
<svg xmlns="http://www.w3.org/2000/svg" xmlns:xlink="http://www.w3.org/1999/xlink" version="1.1" viewBox="-10 0 1034 1024">
  <g transform="matrix(1 0 0 -1 0 820)">
   <path fill="currentColor"
d="M466 265q6 3 43 5l229 1q46 0 67 -4q1 0 7 -2v42q87 -43 123 -59q12 21 44 52q-96 9 -185 65q-96 63 -148 138q3 6 11 9q4 1 10 5q-33 12 -54 29q-9 -28 -27 -56q-45 -66 -112 -130q-88 -81 -164 -98q30 -24 46 -43q58 39 110 83v-37zM535 307q-25 1 -51 3q-3 0 -6 1
q75 67 144 161q27 -30 32 -39q16 -18 35 -36q31 -27 68 -56l46 -30q-36 -3 -65 -4h-203zM483 643h-76q-48 0 -68 5v-46q21 4 68 5h76l-4 -103q-1 -1 -1 -5h49q-4 24 -5 43l-1 65h218l-3 -91q0 -1 -1 -4l-2 -9h50q-3 9 -5 28l-2 76l135 -1q28 0 38 -4v46q-21 -3 -62 -5h-111
v46q0 46 15 75h-58q0 -4 2 -8q3 -15 4 -67v-46h-218q0 54 3 85q1 21 11 36h-57q1 -36 5 -75v-46zM85 596q3 -24 3 -36l-1 -519q-1 -7 -2 -28q0 -4 -3 -14h48q-3 33 -5 72v24h145l-4 -94q-1 -1 -1 -6h49l-4 30q-1 21 -2 41l1 515q1 24 5 48l-121 -5q-43 0 -70 2q-6 3 -41 3z
M125 131v457h145v-457h-145zM434 -88q-3 -30 -3 -56q0 -4 -3 -13h48q-4 60 -5 72h340q0 -13 -2 -30q0 -22 -3 -37h48q-3 12 -3 30l-2 138q0 111 2 126q0 19 3 40q-66 -6 -90 -6l-285 1q-24 4 -51 5q6 -60 6 -70v-200zM471 -48v188h340v-188h-340z" />
  </g>

</svg>
