<?xml version="1.0" standalone="no"?>
<!DOCTYPE svg PUBLIC "-//W3C//DTD SVG 1.1//EN" "http://www.w3.org/Graphics/SVG/1.1/DTD/svg11.dtd" >
<svg xmlns="http://www.w3.org/2000/svg" xmlns:xlink="http://www.w3.org/1999/xlink" version="1.1" viewBox="-10 0 1010 1000">
   <path fill="currentColor"
d="M702 -8q92 4 94 12q-1 4 -4 12q-12 31 -12 94h35q68 0 100 -8v81q-30 -6 -102 -6h-31q-1 61 4 79h-84q6 -24 6 -79h-190q0 57 6 81h-78q6 -21 6 -79h-33q-4 1 -25 1q-47 1 -61 5v-77q25 5 86 5h33q0 -83 -6 -113q93 4 92 12q0 1 -2 4q-18 33 -18 96h190q0 -96 -6 -120z
M73 94q19 3 94 6h67q63 -3 85 -6q-4 32 -4 113v248q191 -63 264 -252q90 31 90 35q0 6 -10 12q89 141 291 161q-26 26 -43 66q-8 18 -14 31q-178 -72 -282 -212q-61 90 -129 151q21 5 97 8h90q65 -3 95 -6v75q-29 -12 -93 -6h-94q-78 2 -107 6v-67q-66 55 -89 65
q-27 -37 -66 -53v135q0 86 6 113h-83q3 -29 6 -104h-97q0 84 6 120h-84q9 -49 10 -125v-395q-1 -76 -6 -119zM149 165v385h95v-385h-95zM405 578q67 8 135 6h160q88 -3 117 -6q-4 39 -4 115v91q0 98 6 117h-93q3 -20 6 -77h-246q1 48 4 69h-87q3 -20 5 -78q1 -24 1 -37v-93
v-17q1 -67 -4 -90zM486 647v113h248v-113h-248z" />
</svg>
