<?xml version="1.0" standalone="no"?>
<!DOCTYPE svg PUBLIC "-//W3C//DTD SVG 1.1//EN" "http://www.w3.org/Graphics/SVG/1.1/DTD/svg11.dtd" >
<svg xmlns="http://www.w3.org/2000/svg" xmlns:xlink="http://www.w3.org/1999/xlink" version="1.1" viewBox="-10 0 1010 1000">
   <path fill="currentColor"
d="M593 -21q95 -2 111 8q0 2 -3 6q-22 27 -22 85h146q83 -1 117 -8v79q-35 -6 -111 -6h-152v62h79q66 -3 95 -6q-5 50 -6 141v325h22q75 0 101 -6v76q-31 -8 -121 -8h-387q-6 1 -29 1q-64 2 -84 7v-76q30 6 86 6v-319q0 -115 -6 -145q29 6 115 6h57v-64h-117q-78 0 -111 6
v-77q24 6 107 6h121q0 -53 -8 -99zM63 76q32 4 106 6h59q87 -1 113 -4q-6 30 -6 127v381q0 88 8 117h-95q8 -30 8 -91h-107v49q0 76 6 107h-93q9 -56 9 -107v-448q-1 -16 -2 -44q-3 -70 -6 -93zM149 149v395h109v-395h-109zM768 268h-256v58h256v-58zM770 379h-258v56h258
v-56zM512 488v62h258v-62h-258zM770 604h-258v61h258v-61zM540 733q66 47 65 63q-2 2 -10 4q-24 5 -57 20q-15 7 -46 23q-98 49 -147 66q-1 -1 -3 -4q-33 -46 -64 -65q102 -11 262 -107zM960 846l-57 73q-76 -61 -232 -129l45 -59q86 28 244 115z" />
</svg>
