<?xml version="1.0" standalone="no"?>
<!DOCTYPE svg PUBLIC "-//W3C//DTD SVG 1.1//EN" "http://www.w3.org/Graphics/SVG/1.1/DTD/svg11.dtd" >
<svg xmlns="http://www.w3.org/2000/svg" xmlns:xlink="http://www.w3.org/1999/xlink" version="1.1" viewBox="-10 0 1010 1000">
   <path fill="currentColor"
d="M587 2q61 -1 98 12q1 1 -2 4q-18 22 -18 52v99h129v-79q0 -33 -4 -54q68 -1 97 8q1 2 -5 11q-13 21 -13 39v61q0 54 8 85q-45 -6 -95 -7h-117v81h162q90 0 123 -8v87q-37 -7 -123 -8h-353q-83 0 -131 8v-87q52 8 131 8h119v-81h-103q-68 0 -97 7q8 -27 8 -81v-59
q0 -48 -4 -60q92 9 99 14q1 1 -3 6q-17 22 -17 40v69h117v-101q-2 -42 -6 -66zM331 98q-9 36 -10 97v397q2 57 10 87h-93q7 -26 8 -67h-91q1 79 8 117h-92q8 -30 8 -116v-422q0 -57 -8 -93q33 8 96 8h67q56 -1 97 -8zM246 177h-91v371h91v-371zM591 395q81 4 92 12
q0 3 -5 10q-11 16 -11 30v20h101q58 0 102 -9q6 -1 7 -1q0 2 -2 11q-10 33 -10 68v81q0 41 12 78q-36 -7 -93 -8h-119v101q84 -2 143 -8q-12 -24 -38 -51l71 -22q31 38 88 130q17 27 25 40l-77 34q-12 -33 -38 -67q-351 20 -496 45l-22 -97q112 5 272 0v-105h-115q0 30 4 40
h-85q4 -18 6 -72v-119q0 -48 -10 -77q46 8 117 8h85q0 -33 -1 -45q0 -14 -3 -27zM478 526v101h115v-101h-115zM665 526v101h125v-101h-125z" />
</svg>
