<?xml version="1.0" standalone="no"?>
<!DOCTYPE svg PUBLIC "-//W3C//DTD SVG 1.1//EN" "http://www.w3.org/Graphics/SVG/1.1/DTD/svg11.dtd" >
<svg xmlns="http://www.w3.org/2000/svg" xmlns:xlink="http://www.w3.org/1999/xlink" version="1.1" viewBox="-10 0 1010 1000">
   <path fill="currentColor"
d="M532 -10q72 -2 87 6q0 1 -2 4q-12 12 -12 34v48q100 0 135 -6v65q5 -5 18 -17q44 -40 67 -72q11 7 30 18q52 31 48 36q-1 3 -15 6q-32 6 -47 19q-39 36 -107 87q-3 2 -4 3h99q90 -1 121 -10v81q-32 -9 -119 -8h-194q-12 9 -41 28q-38 26 -60 42q123 -9 260 -54
q6 10 18 27q30 44 23 50q-1 3 -11 0q-29 -8 -62 -2q-72 12 -167 22q-38 3 -61 6v24q0 13 18 17q11 4 75 5q79 3 131 0q108 -1 109 -99q26 40 66 57q-19 56 -53 77q-29 20 -108 24q-14 1 -63 0q-60 -1 -88 0q-99 4 -131 -14q-32 -15 -30 -73v-34q-74 42 -107 60
q-5 -41 -32 -74q92 -19 213 -89h-58q-59 0 -107 6q-21 2 -36 4v-81q64 8 139 8h60v-76h-44q-80 -1 -119 8v-79q59 8 117 8h46v-40q0 -38 -2 -52zM605 145v76h26q28 -11 95 -68q-11 -8 -121 -8zM141 161v357h101v-357h-101zM405 542q21 9 160 10h153q114 -1 155 -10
q-10 31 -10 137v87q0 94 8 139h-83l4 -49h-308l4 51h-83q8 -56 8 -133v-103q0 -62 -8 -129zM792 608h-308v65h308v-65zM792 729h-308v71h308v-71zM313 568q0 85 10 125h-91q10 -36 10 -107h-103q0 88 6 127h-85q9 -69 9 -163v-280q0 -110 -7 -186q37 9 109 10h35
q92 0 115 -6q-8 47 -8 154v326z" />
</svg>
