<?xml version="1.0" standalone="no"?>
<!DOCTYPE svg PUBLIC "-//W3C//DTD SVG 1.1//EN" "http://www.w3.org/Graphics/SVG/1.1/DTD/svg11.dtd" >
<svg xmlns="http://www.w3.org/2000/svg" xmlns:xlink="http://www.w3.org/1999/xlink" version="1.1" viewBox="-10 0 1010 1000">
   <path fill="currentColor"
d="M726 10l27 6q74 18 70 24q0 4 -7 9q-14 11 -24 25q-26 37 -46 75h62q55 0 111 -8v80q-33 -6 -106 -6h-142q-5 35 -8 77h77q93 -1 137 -10v83q-48 -7 -133 -7h-89q-7 47 -18 93h169q94 0 129 -10v81q-36 -9 -127 -8h-187q-22 48 -54 92h193q67 0 123 -8v79q-36 -9 -121 -8
h-62v145h119q64 0 102 -8q9 -2 12 -2v79q-24 -6 -114 -6h-263q-90 0 -143 8v-79q62 8 141 8h79v-145h-107q-83 95 -201 177q-26 -34 -73 -62q202 -83 292 -270h-52q-72 -1 -121 8v-81q53 8 117 8h77q11 -43 18 -93h-57q-54 0 -107 7v-79q51 8 117 8h55q3 -18 6 -58
q1 -15 2 -21h-63q-106 0 -147 10v-80q48 6 145 6h145q19 -34 45 -131q1 -6 2 -8zM562 12q23 41 45 105l-81 24q-12 -54 -42 -103zM347 112q-8 38 -8 148v304q0 82 8 121h-89q10 -27 10 -75h-113q0 98 8 142h-88q8 -66 8 -131v-367q0 -87 -10 -141q34 8 110 8h67q64 0 97 -9z
M268 185h-113v361h113v-361z" />
</svg>
