<?xml version="1.0" standalone="no"?>
<!DOCTYPE svg PUBLIC "-//W3C//DTD SVG 1.1//EN" "http://www.w3.org/Graphics/SVG/1.1/DTD/svg11.dtd" >
<svg xmlns="http://www.w3.org/2000/svg" xmlns:xlink="http://www.w3.org/1999/xlink" version="1.1" viewBox="-10 0 1034 1024">
  <g transform="matrix(1 0 0 -1 0 820)">
   <path fill="currentColor"
d="M523 237q-60 -76 -124 -128q-52 -36 -91 -42q13 -9 27 -19q9 -7 22 -20q129 96 214 209h120q30 -46 73 -91q39 -39 67 -59q24 -18 68 -45q15 -9 29 -18q25 25 49 43q-84 24 -120 48q-75 57 -118 122q159 0 175 -2q3 0 20 -4v47q-30 -4 -66 -5h-278q28 57 38 70
q9 13 34 24q-34 13 -54 26l202 -1l49 -4q-4 60 -5 90l1 137l4 54q-34 -1 -70 -5h-226q42 69 82 81q-21 9 -58 33q-18 -52 -67 -114l-86 4q-12 1 -22 1q1 -36 5 -72l-1 -159q-3 -19 -4 -50q57 4 85 5h99q-18 -70 -50 -120l-189 3q-4 1 -7 2v-47q7 3 23 4zM454 429v80h362v-80
h-362zM454 546v82h362v-82h-362zM604 50l-151 1q-9 1 -16 2q-3 0 -13 2v-47q6 3 28 4l152 2l-4 -167q-1 -1 -1 -4h49q-1 3 -2 14q0 -3 -1 9l-2 87v61h133q43 0 67 -6v47q-6 0 -12 -2q-21 -3 -82 -3h-106q0 90 3 97q1 13 11 26h-58q1 -36 5 -75v-48zM94 72q-4 -64 -5 -67
q-1 0 -1 -2h48q-3 33 -5 71v28h136q-3 -81 -5 -99h48q-3 12 -3 28l-2 146l1 435q0 21 4 49q-72 -6 -94 -6q-52 0 -77 2q-19 3 -51 4l6 -69v-520zM131 138v482h136v-482h-136z" />
  </g>

</svg>
