<?xml version="1.0" standalone="no"?>
<!DOCTYPE svg PUBLIC "-//W3C//DTD SVG 1.1//EN" "http://www.w3.org/Graphics/SVG/1.1/DTD/svg11.dtd" >
<svg xmlns="http://www.w3.org/2000/svg" xmlns:xlink="http://www.w3.org/1999/xlink" version="1.1" viewBox="-10 0 1010 1000">
   <path fill="currentColor"
d="M558 -12q106 16 109 30q-2 4 -7 7q-12 6 -25 21q-12 14 -40 60h226q70 -1 112 -10v81q-24 -7 -110 -8h-261q-40 65 -98 141q-26 -28 -77 -46q122 -119 171 -276zM371 10q59 89 83 145l-83 34q-24 -75 -75 -143zM65 113q22 6 82 8h61q43 0 80 -8q-8 37 -8 88v452
q1 37 8 56h-84q7 -22 8 -52h-71q-2 45 10 89h-86q7 -34 8 -91v-460q-1 -10 -2 -28q-3 -42 -6 -54zM141 185v409h71v-409h-71zM510 252q5 0 19 1q37 3 76 3h183q57 -1 93 -8q-8 24 -14 90l-8 133q62 -1 95 -8v87q-30 -7 -97 -8l-6 153q45 0 72 -8v83q-18 -7 -76 -8v26
q31 106 -157 121q-10 -58 -47 -95q71 18 105 6q25 -12 30 -58h-215q-69 0 -101 8q9 -28 16 -83l14 -147q-50 0 -81 8v-83q29 8 87 8l10 -137q5 -49 2 -80v-4zM577 324l-12 149h227l10 -149h-225zM688 340q2 4 5 12q31 71 33 85l-79 18q-13 -63 -38 -99zM361 536q38 33 72 48
q-90 242 -100 319q-46 -35 -93 -55q86 -124 121 -312zM562 540l-12 155h232l8 -155h-228zM692 562q20 36 38 101l-85 18q-7 -60 -28 -105zM365 276q18 24 72 133l-82 32q-31 -89 -67 -139z" />
</svg>
