<?xml version="1.0" standalone="no"?>
<!DOCTYPE svg PUBLIC "-//W3C//DTD SVG 1.1//EN" "http://www.w3.org/Graphics/SVG/1.1/DTD/svg11.dtd" >
<svg xmlns="http://www.w3.org/2000/svg" xmlns:xlink="http://www.w3.org/1999/xlink" version="1.1" viewBox="-10 0 1034 1024">
  <g transform="matrix(1 0 0 -1 0 820)">
   <path fill="currentColor"
d="M427 -79q-1 -16 -1 -33l-4 -33v-4h48q-3 7 -4 34l-1 503q22 37 33 56q6 10 10 16q19 31 48 40q-36 18 -59 37q-9 -33 -22 -57q-15 -30 -47 -84q-61 -108 -116 -142q21 -6 46 -21q30 36 69 93v-405zM549 651h-116q-33 0 -55 3q-4 0 -14 3v-47q12 3 31 3q54 3 92 3h62
q-1 -36 -3 -74q-1 -4 -1 -10q-1 -1 -1 -4h48q-4 57 -5 88h154q-1 -36 -3 -75q-3 -9 -3 -14h49q-3 7 -4 33l-1 56h101q19 0 37 -2l30 -4v47q-66 -6 -87 -6h-81q0 81 3 89q1 13 10 25h-57q1 -31 5 -65l1 -49h-154q0 78 3 86q1 15 10 26h-56l4 -45zM881 415h21q45 0 66 -6v47
q-66 -6 -86 -6l-313 1l-40 5v-47q36 6 50 6h264v-479q0 -27 -12 -34q-13 -6 -36 -6q-21 0 -63 8q12 -21 18 -52q79 3 106 16q24 13 25 62v485zM558 282q3 -24 3 -52l-1 -135q-3 -15 -4 -50q60 6 96 6q51 0 97 -5q6 0 14 -1q-4 60 -5 116q0 99 2 112q0 21 3 43
q-120 -4 -123 -5q-42 3 -84 5q0 -16 2 -34zM598 86v189h122v-189h-122zM85 598q3 -24 3 -36l-1 -539q-1 -7 -2 -29q0 -3 -3 -13h48q-3 21 -5 70v42h144q-3 -87 -5 -96h48q-3 12 -3 29q0 21 -2 42l1 515l4 48q-36 -1 -72 -5q-90 0 -117 2q-6 3 -41 3zM125 129v461h144v-461
h-144z" />
  </g>

</svg>
