<?xml version="1.0" standalone="no"?>
<!DOCTYPE svg PUBLIC "-//W3C//DTD SVG 1.1//EN" "http://www.w3.org/Graphics/SVG/1.1/DTD/svg11.dtd" >
<svg xmlns="http://www.w3.org/2000/svg" xmlns:xlink="http://www.w3.org/1999/xlink" version="1.1" viewBox="-10 0 1034 1024">
  <g transform="matrix(1 0 0 -1 0 820)">
   <path fill="currentColor"
d="M356 -140q9 6 27 24l59 52q40 37 58 49q12 9 33 14q3 3 17 7q-31 25 -50 49q-9 -21 -72 -82q-57 -52 -119 -72q6 -3 19 -15zM365 434q-3 -60 -5 -66q-1 -1 -1 -4h47q-3 63 -4 92v31h218q-9 -24 -68 -83q-45 -42 -73 -66q-22 -18 -43 -24q9 -19 14 -30q3 -9 4 -18
q45 15 106 18q30 0 88 6q-36 -33 -85 -72q-45 -34 -76 -55q-45 -22 -79 -26q15 -24 25 -51q34 15 74 22q43 7 132 13v-191q0 -24 -15 -30q-22 -7 -49 -8q-18 0 -47 8q12 -24 20 -52q30 3 44 4q48 6 65 17q19 13 20 51v209l178 15q12 -12 19 -22q9 -12 25 -36q12 13 31 27
q-27 42 -135 161q-12 -13 -32 -27q30 -28 69 -72l-302 -25l37 27q198 160 209 167q19 12 40 15q-30 19 -54 43q-15 -30 -75 -80l-179 -6l7 7q0 1 74 67q36 33 49 41q9 6 42 12q-15 9 -40 31q-4 4 -15 13h274l-4 -109q-1 -1 -1 -4h49q-3 15 -4 35q0 24 -2 50l6 69
q-36 -1 -72 -5h-204v105l219 -1q24 0 33 -4l2 -1v47q-10 -3 -27 -4q-21 0 -40 -2h-187q0 72 3 82q1 15 10 24h-57q0 -10 5 -61q-1 -7 0 -14v-31l-214 1l-39 5v-47q1 1 33 5l220 1v-105h-197q-9 0 -37 3q-15 0 -35 2q6 -42 6 -92v-2zM970 -78l-62 57l-70 63l-38 34
q-1 -1 -4 -5q-6 -3 -8 -9q-13 -15 -24 -22q30 -18 50 -35l81 -75q24 -22 41 -45q15 18 34 37zM77 617q3 -27 3 -36q0 -511 -3 -537q0 -6 -3 -16h49q0 3 -2 6l-4 85h151l-4 -84q-1 -1 -1 -3h49q-6 60 -6 71l1 498q1 24 5 48q-36 -1 -73 -5q-96 0 -123 2q-6 3 -42 3zM117 155
v453h151v-453h-151z" />
  </g>

</svg>
