<?xml version="1.0" standalone="no"?>
<!DOCTYPE svg PUBLIC "-//W3C//DTD SVG 1.1//EN" "http://www.w3.org/Graphics/SVG/1.1/DTD/svg11.dtd" >
<svg xmlns="http://www.w3.org/2000/svg" xmlns:xlink="http://www.w3.org/1999/xlink" version="1.1" viewBox="-10 0 1010 1000">
   <path fill="currentColor"
d="M935 14v80q-33 -6 -112 -6v283q55 -2 129 -9l4 75q-80 0 -133 2q0 36 6 55h-87q0 -17 6 -53q-291 14 -419 28l-4 -78h112v-305q-80 0 -104 6v-76q24 3 102 6h384q86 0 116 -8zM508 389q14 -1 41 -2q133 -7 199 -10v-61h-240v73zM60 70q17 3 105 6h47q70 -3 100 -6
q-6 36 -8 137v361q0 82 4 107h-86q6 -27 8 -95h-93v35q0 46 1 63q1 21 3 33h-81q7 -45 7 -99v-399q-1 -66 -7 -143zM746 86h-238v61h238v-61zM230 145h-91v365h91v-365zM508 203v57h240v-57h-240zM321 500q27 6 92 6h79q66 -1 89 -4q-19 97 -59 179q17 9 67 43q17 12 26 18
l-52 62q-33 -31 -79 -62q-92 101 -186 145q-28 -43 -72 -67q119 -28 201 -117q-47 -35 -106 -60l38 -47q41 17 105 55q16 -26 34 -85h-79q-64 0 -98 6v-72zM601 502q19 4 84 6h128q65 0 94 -4q-64 182 -115 240q67 51 176 64q-33 44 -45 87q-82 -30 -185 -103
q-75 63 -186 107q-18 -36 -72 -73q126 -14 216 -86q-36 -46 -87 -144q34 -11 48 -26q-33 0 -56 2v-70zM677 568q21 65 67 127q37 -43 68 -127h-135z" />
</svg>
