<?xml version="1.0" standalone="no"?>
<!DOCTYPE svg PUBLIC "-//W3C//DTD SVG 1.1//EN" "http://www.w3.org/Graphics/SVG/1.1/DTD/svg11.dtd" >
<svg xmlns="http://www.w3.org/2000/svg" xmlns:xlink="http://www.w3.org/1999/xlink" version="1.1" viewBox="-10 0 1034 1024">
  <g transform="matrix(1 0 0 -1 0 820)">
   <path fill="currentColor"
d="M563 184q0 -30 -3 -52q-1 -24 -8 -73q-4 -48 -9 -71q-3 -13 -9 -21q-15 -12 -44 -13q-7 0 -47 6q12 -19 21 -52q27 3 43 6q10 1 24 7q30 10 40 28q10 16 16 67l12 116q6 67 8 76q3 9 4 17q-36 -1 -71 -5h-99l6 88q150 0 164 -2q4 0 21 -4v47q-33 -1 -68 -5h-70v115
q73 0 86 -2q3 0 20 -4v47q-33 -1 -66 -5h-40v108q87 0 103 -2q6 0 22 -4v47q-30 0 -65 -5h-60v38q0 22 3 39q1 18 14 37h-60l4 -40l1 -74q-78 0 -104 2l-19 3v-47q6 3 28 4q25 1 80 2h15v-108q-78 0 -102 3q-3 0 -10 2v-47q4 3 13 3q21 0 55 3h44v-115q-85 0 -122 2
q-6 0 -21 3v-47q7 3 26 4l68 2q-7 -180 -62 -284q-54 -99 -126 -127q19 -7 30 -15l24 -17q63 61 107 143q36 72 55 176h128zM570 -144q6 -1 16 -10q88 81 172 209q63 -108 157 -197q36 21 60 31q-48 18 -93 65q-61 67 -101 142q37 106 54 188q15 87 24 231q64 0 78 -2
q9 0 19 -3v46q-33 -1 -67 -5h-191l40 136q13 48 36 65q-10 0 -31 5q-16 3 -36 10q-1 -57 -27 -142q-24 -81 -59 -154q-30 -58 -64 -84q33 -7 58 -19q3 12 31 65q0 3 39 82h135q-1 -40 -5 -70q0 -24 -4 -43q-1 -30 -6 -54q-12 -87 -48 -201q-16 36 -22 52l-19 71
q-18 78 -21 143q-24 -12 -51 -18q7 -18 12 -31q3 -12 12 -54q10 -57 24 -101q15 -48 41 -113q-39 -75 -91 -134q-57 -63 -113 -83q15 -9 41 -23zM87 594q3 -24 3 -36q-3 -528 -5 -540q-1 0 -1 -2h48q-3 21 -5 70v20h124q-3 -66 -5 -82h48q-3 15 -4 52l-1 482q0 36 5 70
q-72 -6 -95 -6q-57 0 -108 5q-4 1 -7 1zM127 142v444h124v-444h-124z" />
  </g>

</svg>
