<?xml version="1.0" standalone="no"?>
<!DOCTYPE svg PUBLIC "-//W3C//DTD SVG 1.1//EN" "http://www.w3.org/Graphics/SVG/1.1/DTD/svg11.dtd" >
<svg xmlns="http://www.w3.org/2000/svg" xmlns:xlink="http://www.w3.org/1999/xlink" version="1.1" viewBox="-10 0 1010 1000">
   <path fill="currentColor"
d="M855 2q56 61 70 100q-1 1 -10 0q-39 -8 -98 -4q-12 1 -34 2q-322 20 -396 21q-6 -43 -30 -81q53 4 129 4q75 -1 148 -6q142 -12 221 -36zM69 82q45 7 86 8h69q64 -3 89 -8q0 2 -1 5q-8 53 -8 80v441q0 58 8 79h-86q8 -21 8 -74h-91q0 95 8 122h-82q8 -37 8 -122v-436
q-1 -65 -8 -95zM786 112q81 20 101 33q0 2 -7 8q-19 15 -33 34q-35 48 -53 83h41q59 -1 102 -8q-8 54 -8 78q0 52 8 71h-94q9 -35 10 -79h-438q0 49 8 71h-88q7 -33 8 -71q-1 -44 -8 -74q43 8 92 10h297q39 -59 62 -156zM665 125q19 39 31 117l-83 16q-2 -57 -28 -119z
M145 157v389h91v-389h-91zM554 346q74 7 101 19q2 2 -6 10q-12 12 -16 20q-2 3 -8 17q-7 16 -10 21h171q87 0 119 -8v75q-31 -7 -119 -8h-191q-10 22 -35 68h190q59 -1 113 -8q-59 130 -139 218q93 44 209 44q-44 40 -62 91q-102 -13 -212 -81q-116 63 -272 85
q-2 -36 -50 -79q151 3 270 -56q-68 -56 -113 -129q-74 98 -202 179q-29 -38 -80 -56q201 -76 308 -274q-112 0 -143 6v-77q52 8 131 8h30q16 -49 16 -85zM546 619q48 67 115 114q28 -23 85 -114h-200zM425 149l75 -16q24 50 42 111l-80 18q-10 -49 -37 -113z" />
</svg>
