<?xml version="1.0" standalone="no"?>
<!DOCTYPE svg PUBLIC "-//W3C//DTD SVG 1.1//EN" "http://www.w3.org/Graphics/SVG/1.1/DTD/svg11.dtd" >
<svg xmlns="http://www.w3.org/2000/svg" xmlns:xlink="http://www.w3.org/1999/xlink" version="1.1" viewBox="-10 0 1010 1000">
   <path fill="currentColor"
d="M446 0q80 1 96 10q0 3 -4 12q-18 39 -18 99h24q5 0 17 -1q57 -3 68 -7v74q-21 -6 -85 -6h-24v73h14q50 -1 69 -6v74q-34 -6 -71 -6h-12v77h18q10 -1 28 -1q38 -2 55 -5v72q-24 -6 -87 -6h-48v4q-3 41 -6 69h68q53 0 71 -6q-3 75 -20 218q-5 54 -30 70q-26 19 -109 30
q7 -34 -25 -90q85 26 99 -27q9 -32 13 -120q1 -9 1 -13h-78q-34 184 -192 301q-28 -39 -80 -63q204 -71 221 -373h-14q-33 0 -76 6v-72q17 3 86 6h41v-77h-25q-35 0 -74 6v-72q18 4 78 4h21v-73h-37q-41 1 -80 6v-72q15 3 53 5q18 0 27 1h37q0 -82 -10 -121zM728 4q3 0 8 1
q94 7 93 17q1 5 -8 18q-12 15 -15 26q-7 20 -26 80q-13 39 -18 55h95q61 -1 95 -6v75q-16 -5 -57 -6q-20 316 -78 431q72 61 153 93q-33 26 -61 81q-60 -42 -129 -111q-86 95 -161 147q-27 -35 -75 -65q119 -53 190 -141q-78 -159 -75 -320q-16 -16 -48 -19
q92 -109 117 -356zM75 92q23 4 96 4h47q72 0 95 -6q-5 28 -5 127v379q1 46 4 85h-80q0 -7 2 -30q1 -15 2 -24h-83v32q0 53 1 72q1 23 3 35h-86q10 -33 10 -113v-430q0 -97 -6 -131zM236 165h-81v393h81v-393zM821 262h-79q-12 34 -44 96q-7 15 -10 21l42 -8q-4 140 42 252
q38 -85 49 -361z" />
</svg>
