<?xml version="1.0" standalone="no"?>
<!DOCTYPE svg PUBLIC "-//W3C//DTD SVG 1.1//EN" "http://www.w3.org/Graphics/SVG/1.1/DTD/svg11.dtd" >
<svg xmlns="http://www.w3.org/2000/svg" xmlns:xlink="http://www.w3.org/1999/xlink" version="1.1" viewBox="-10 0 1034 1024">
  <g transform="matrix(1 0 0 -1 0 820)">
   <path fill="currentColor"
d="M481 -7q-9 3 -21 10q-4 0 -12 3l1 346q0 15 5 50q-66 -4 -94 -5q-42 3 -53 5v-46q12 3 60 5h45v-358q-28 -21 -46 -33q-18 -18 -68 -62q21 -15 41 -39q12 24 15 25l8 14q12 19 35 37q24 19 43 20q16 0 29 -7l50 -27q45 -25 104 -36q60 -9 163 -10l160 3q9 24 24 55
q-30 -10 -84 -16q-61 -3 -147 -5q-73 0 -130 13q-40 9 -82 33zM391 658q-40 45 -46 51q-9 -12 -15 -17q-6 -6 -16 -12q39 -34 69 -72l38 -48q7 -10 17 -29q16 18 37 31zM871 733q-15 0 -28 -2h-269q-43 0 -65 5v-46q12 3 39 4l262 1q-31 -30 -55 -50q-21 -19 -56 -47
q-37 28 -81 64q-12 -18 -28 -34q51 -27 134 -104l-156 1q-19 4 -46 5q1 -33 5 -69q-3 -450 -5 -464h48q-1 3 -1 6q-3 6 -3 29l-1 163h130v-85q0 -24 -3 -51q0 -4 -3 -11h50q-1 3 -1 5q-4 12 -5 35v107h126l-1 -147q-1 -10 -10 -14q-16 -6 -37 -6q-12 0 -42 5q12 -24 13 -27
q3 -7 7 -22q30 1 50 6q33 7 48 24q9 9 10 39l1 425q0 21 6 52q-60 -6 -76 -6h-95q15 15 27 24q-16 15 -33 29l115 97q27 24 65 62zM565 231v110h130v-110h-130zM565 377v111h130v-111h-130zM733 231v110h126v-110h-126zM733 377v111h126v-111h-126zM76 648l6 -65l-1 -469
q-3 -12 -3 -37l-2 -10h49q0 4 -2 10q-3 12 -4 57h121q-1 -27 -3 -54q0 -3 -2 -11h48q-1 1 -1 3q-1 3 -2 23l-2 64l1 443q0 21 4 46q-60 -4 -93 -5q-55 0 -80 2q-6 3 -34 3zM119 170v437h121v-437h-121z" />
  </g>

</svg>
