<?xml version="1.0" standalone="no"?>
<!DOCTYPE svg PUBLIC "-//W3C//DTD SVG 1.1//EN" "http://www.w3.org/Graphics/SVG/1.1/DTD/svg11.dtd" >
<svg xmlns="http://www.w3.org/2000/svg" xmlns:xlink="http://www.w3.org/1999/xlink" version="1.1" viewBox="-10 0 1010 1000">
   <path fill="currentColor"
d="M446 8q95 3 96 10q1 2 -6 13q-23 33 -22 59v73h26q84 -1 133 -10v70q-65 -7 -131 -8h-28v69h85q40 1 56 -4q-5 11 -4 48v26q66 -119 77 -346q111 13 109 26q-1 2 -4 4q-12 7 -23 34q-10 23 -21 77q-9 38 -13 46h95q30 0 79 -4l-47 188l-82 -12q13 -24 40 -109h-99
q2 -13 -60 163q-26 -46 -53 -61v123q0 17 4 49q-18 -4 -56 -4h-81v232q2 73 8 129h-76q7 -55 8 -131v-152q-28 70 -186 226q-30 -30 -82 -48q158 -79 252 -256h-61q-36 -1 -54 4q4 -18 4 -65v-139q0 -33 -4 -50q33 6 54 6h75v-69h-27q-82 2 -110 8v-70q55 8 106 10h31v-73
q-1 -54 -8 -82zM62 86q36 7 77 8h87q40 -1 66 -8q-7 26 -8 91v379q-1 84 8 121h-80q4 -21 4 -65h-79q1 65 8 117h-83q7 -54 7 -159v-383q0 -67 -7 -101zM216 161h-79v381l79 2v-383zM589 340h-73v133h73v-133zM389 340v133h67v-133h-67zM736 385q88 3 101 16q0 1 -3 5
q-24 31 -24 75q0 36 13 105q33 137 151 228q-23 13 -58 43q-18 15 -23 18q-101 -147 -117 -265q-17 150 -165 271q-29 -38 -75 -51q122 -70 163 -167q23 -48 31 -114q9 -65 6 -164zM587 568q46 47 84 109l-68 40q-36 -79 -77 -117z" />
</svg>
