<?xml version="1.0" standalone="no"?>
<!DOCTYPE svg PUBLIC "-//W3C//DTD SVG 1.1//EN" "http://www.w3.org/Graphics/SVG/1.1/DTD/svg11.dtd" >
<svg xmlns="http://www.w3.org/2000/svg" xmlns:xlink="http://www.w3.org/1999/xlink" version="1.1" viewBox="-10 0 1010 1000">
   <path fill="currentColor"
d="M653 -4q90 1 103 12q0 5 -4 11q-19 31 -18 134h97q77 -1 106 -10v86q-34 -8 -100 -8h-101q3 191 38 363q46 -182 41 -302q6 0 17 1q87 5 81 17q-1 4 -5 9q-14 13 -19 47q-27 201 -79 321q35 91 63 105q18 2 20 -101q30 43 71 61q-28 146 -61 157q-66 6 -139 -145
q-40 60 -113 133q-44 -38 -88 -47q98 -48 167 -161q-50 -155 -67 -458h-252v246h81v-135q0 -63 -4 -84q98 7 93 14q0 2 -3 5q-18 16 -18 75q59 -3 83 -8v71q-20 -4 -35 -5q-13 -1 -48 -1v68h27q46 0 80 -8v73q-20 -6 -86 -6v246q12 69 -115 84q3 -40 -31 -90q57 11 66 6
q14 -3 13 -30v-216h-105q-14 230 -141 373q-36 -30 -83 -37q114 -112 135 -219q14 -59 18 -152q4 -85 -1 -266q0 -53 -4 -80q49 8 129 8h199q-2 -85 -8 -157zM835 10q36 54 56 100l-72 25q-18 -57 -51 -95zM63 153q24 3 90 4h45q67 -1 94 -4q-7 42 -8 119v318q0 80 6 107
h-80q3 -18 6 -60h-79q-2 54 4 84h-81q7 -43 9 -121v-332q-1 -76 -6 -115zM137 223v349h79v-349h-79zM437 570q3 1 10 2q63 8 59 14l-1 2q-11 13 -21 47q-2 9 -10 41q-13 54 -18 70q-16 -8 -69 -9q43 -71 50 -167zM639 576q33 43 61 101l-59 28q-15 -48 -52 -107z" />
</svg>
