<?xml version="1.0" standalone="no"?>
<!DOCTYPE svg PUBLIC "-//W3C//DTD SVG 1.1//EN" "http://www.w3.org/Graphics/SVG/1.1/DTD/svg11.dtd" >
<svg xmlns="http://www.w3.org/2000/svg" xmlns:xlink="http://www.w3.org/1999/xlink" version="1.1" viewBox="-10 0 1010 1000">
   <path fill="currentColor"
d="M442 -15q105 4 106 11q1 4 -6 10q-18 18 -18 42v20h264q60 0 107 -9q10 -2 14 -3v75q-19 -5 -41 -6q-23 -2 -80 -2h-264v60h184q84 0 131 -8v71q-4 0 -14 -2q-54 -6 -119 -6h-426q-66 0 -123 8v-71q63 8 125 8h168v-60h-234q-53 0 -73 1q-25 2 -56 7v-71q33 5 60 7
q22 1 71 1h232q0 -59 -8 -83zM185 282q46 8 115 8h387q61 0 105 -8q-8 39 -8 80v23q0 47 8 84q-14 -9 -104 -8h-53l9 3q56 18 50 24q-1 2 -6 4q-29 11 -49 48h192q76 0 113 -8v70q-15 -4 -37 -5q-17 -1 -74 -1h-521q-2 7 -6 25q-5 24 -8 36h69q70 1 99 -8q-12 149 -31 209
q-17 31 -112 49q-9 -36 -37 -75q66 8 79 -18q15 -24 20 -99h-101q-54 133 -153 194q-26 -34 -69 -47q106 -41 150 -147h-31q-59 0 -106 8v-74q27 9 106 8h47q1 -6 4 -19q6 -30 6 -42h-81q-55 0 -72 1q-22 0 -35 3v-68q39 8 109 8h190q-24 -33 -49 -53l49 -26h-59
q-56 0 -105 8q7 -25 7 -74v-37q0 -46 -7 -76zM264 346v59h448v-59h-448zM609 461h-246q30 33 60 79h150q23 -42 36 -79zM510 639q54 8 153 8h53q80 0 159 -8q-9 37 -8 101v44q0 86 8 115h-91q9 -26 8 -57h-205q0 32 7 55q1 3 1 4h-85q8 -40 8 -117v-42q0 -66 -8 -103z
M587 705v81h205v-81h-205z" />
</svg>
