<?xml version="1.0" standalone="no"?>
<!DOCTYPE svg PUBLIC "-//W3C//DTD SVG 1.1//EN" "http://www.w3.org/Graphics/SVG/1.1/DTD/svg11.dtd" >
<svg xmlns="http://www.w3.org/2000/svg" xmlns:xlink="http://www.w3.org/1999/xlink" version="1.1" viewBox="-10 0 1010 1000">
   <path fill="currentColor"
d="M181 -8q85 6 91 14q0 1 -3 6q-17 30 -17 62v129h36q48 0 81 -6v73q-31 -4 -81 -4h-36v165h30q24 0 52 -3q5 -1 7 -1q-5 18 -4 69v229q0 53 4 91h-77q6 -30 6 -78h-119q0 72 4 102h-80q8 -45 8 -98v-250q0 -40 -4 -67q30 3 78 4h28v-163h-44q-61 -1 -79 4v-73q26 6 81 6
h42v-121q0 -54 -4 -90zM651 391q30 3 87 4h83q49 -1 94 -4q-36 197 -109 314q64 62 162 101q-47 39 -61 75q-94 -61 -145 -121q-71 67 -165 121q-31 -39 -73 -63q112 -28 202 -115q-47 -85 -77 -222q33 -5 53 -22q-26 1 -51 4v-72zM151 492v183h119v-183h-119zM692 32
q16 0 66 2q23 1 36 2q40 0 88 -1q20 -1 27 -1q-6 33 -6 135q0 126 6 149q-8 -2 -30 -3q-11 -1 -26 -1h-45q-68 0 -116 6v-80q36 6 143 6v-142q-75 0 -99 1q-31 1 -44 3v-76zM405 36q63 4 135 4q59 0 123 -4q-8 37 -8 133q0 72 1 101q1 35 3 58q-21 -4 -53 -5q-16 -1 -43 -1
h-87v107q90 0 153 -6v75q-50 -10 -153 -10v125q99 0 153 -5v77q-17 -9 -43 -10q-13 -1 -36 -2h-74q-5 170 8 234h-79q1 -9 2 -26q6 -54 6 -123v-573q0 -78 -8 -149zM591 108h-115v146h115v-146zM718 459q15 113 50 184q35 -69 57 -184h-107z" />
</svg>
