<?xml version="1.0" standalone="no"?>
<!DOCTYPE svg PUBLIC "-//W3C//DTD SVG 1.1//EN" "http://www.w3.org/Graphics/SVG/1.1/DTD/svg11.dtd" >
<svg xmlns="http://www.w3.org/2000/svg" xmlns:xlink="http://www.w3.org/1999/xlink" version="1.1" viewBox="-10 0 1010 1000">
   <path fill="currentColor"
d="M65 96q4 0 26 1q38 2 66 3h35q54 -1 84 -4q-6 26 -6 123v313q0 84 6 109h-78q8 -28 8 -59h-71v26q1 64 8 113h-83q8 -38 11 -111v-401q0 -90 -6 -113zM206 155h-71v365h71v-365zM518 -12q79 8 83 14q-12 23 -16 48q-4 22 -4 71q32 0 80 -6v80q-41 -9 -80 -8v71q0 39 4 66
q-30 -8 -57 -8h-30v63h56q46 -1 77 -8q-1 12 -2 30q-3 26 -4 46v75q0 51 6 82q-4 -1 -11 -2q-40 -6 -58 -6h-64v69h67q37 1 76 -6v76q-28 -7 -66 -6h-12h-61v57q0 12 5 74q2 34 3 45h-81q7 -33 9 -121v-57h-83q-52 0 -85 8v-80q32 8 81 8h87v-67h-69q-15 0 -52 5q-8 1 -11 1
q0 -15 3 -50q1 -19 1 -24v-75q-1 -34 -8 -80q33 7 71 8h65v-63h-27q-26 0 -56 6q0 -12 2 -40q2 -23 2 -30v-69q-39 -1 -79 8v-76q34 7 79 6v-57q0 -17 -6 -60q-1 -8 -2 -12q83 5 86 18q-18 36 -18 109h103v-55q0 -30 -4 -78zM722 -10q83 10 90 18q-1 4 -5 11q-12 24 -15 57
q-1 16 -2 77q-1 59 -2 80h87q30 0 69 -6q-6 36 -9 103q-1 24 -2 39q-1 31 -4 101q-8 303 -22 334q-24 62 -141 77q1 -62 -36 -115q94 31 113 -14q18 -16 30 -452h-83q-8 249 -39 356q-27 112 -122 249q-30 -53 -75 -67q174 -111 174 -538h-16q-36 0 -93 10v-87q51 10 87 10
h22v-46q2 -133 -6 -197zM419 185v71h103v-71h-103zM565 439h-67v97h67v-97zM369 441v95h69v-95h-69z" />
</svg>
