<?xml version="1.0" standalone="no"?>
<!DOCTYPE svg PUBLIC "-//W3C//DTD SVG 1.1//EN" "http://www.w3.org/Graphics/SVG/1.1/DTD/svg11.dtd" >
<svg xmlns="http://www.w3.org/2000/svg" xmlns:xlink="http://www.w3.org/1999/xlink" version="1.1" viewBox="-10 0 1034 1024">
  <g transform="matrix(1 0 0 -1 0 820)">
   <path fill="currentColor"
d="M374 -64q-3 -33 -3 -56q0 -6 -4 -14h50q-4 12 -5 57q0 6 -1 16h166q-3 -57 -5 -65q-1 -3 -2 -8h50q-4 49 -5 70l1 315l4 50q-36 -1 -74 -5h-127q51 52 94 101q120 0 136 -2q6 0 21 -4v47q-33 -1 -67 -5h-64q9 12 17 26l45 64q10 15 21 33q18 30 30 43q9 9 33 22
q-42 18 -60 33q-6 -27 -43 -92q-42 -67 -89 -129h-9v145q46 0 69 -3q3 0 14 -4v48q-36 -6 -68 -6h-15v67q0 18 3 35q1 19 14 34h-61q3 -9 3 -17q3 -45 3 -49v-70q-93 0 -112 3q-6 0 -17 3v-48q9 4 16 5l113 2v-145h-93q-24 0 -55 3q-7 0 -14 2v-47q19 3 38 4t60 2h81
q-66 -72 -106 -105q-49 -36 -92 -53q19 -9 32 -19l19 -14q36 30 58 50v-320zM411 -25v122h166v-122h-166zM411 133v127h166v-127h-166zM698 -84l-2 -38q-3 -19 -2 -18q0 -4 -3 -13h51q-3 9 -5 28q0 21 -2 41v735h165q-10 -30 -23 -60l-41 -88l-39 -80q-9 -18 -21 -35
q21 -12 31 -21q34 -22 68 -63q45 -55 45 -131q0 -93 -90 -93q-15 0 -48 4q12 -21 20 -49q27 3 46 6l30 7q78 25 79 124q0 78 -41 139q-27 40 -89 89q3 9 59 129l50 113l24 50q-24 -1 -40 -2q-27 -3 -40 -3h-115q-9 0 -38 3q-16 0 -36 2l7 -68v-708zM69 614q3 -24 3 -35
l-5 -568q-1 0 -1 -2h48q0 1 -1 5q-3 6 -3 34l-1 37h116q-3 -60 -5 -76h48q-3 12 -3 28q0 21 -2 42l1 520q0 21 4 49q-48 -6 -84 -6q-61 0 -111 5q-4 1 -7 1zM109 120v486h116v-486h-116z" />
  </g>

</svg>
