<?xml version="1.0" standalone="no"?>
<!DOCTYPE svg PUBLIC "-//W3C//DTD SVG 1.1//EN" "http://www.w3.org/Graphics/SVG/1.1/DTD/svg11.dtd" >
<svg xmlns="http://www.w3.org/2000/svg" xmlns:xlink="http://www.w3.org/1999/xlink" version="1.1" viewBox="-10 0 1034 1024">
  <g transform="matrix(1 0 0 -1 0 820)">
   <path fill="currentColor"
d="M382 181l131 58q0 -22 10 -32q15 -15 52 -18q24 -3 77 -3q91 0 119 33q15 21 37 93q-18 9 -48 32q0 -43 -5 -63q-9 -36 -31 -46q-21 -9 -72 -9q-63 0 -86 7q-15 4 -15 21v5q42 25 82 56q42 31 70 59q22 21 60 68q31 40 42 47q9 9 32 12q-34 15 -62 37q-48 -123 -224 -237
q0 157 3 164q1 15 11 28h-57q0 -6 3 -31q-1 -1 0 -4l2 -77v-101l-101 -43q-37 -12 -82 -16q7 -7 16 -17q18 -15 20 -19q3 -1 7 -8q4 3 9 4zM387 291l31 54q22 42 31 50q6 9 28 18q-39 16 -55 28q-9 -30 -30 -69q-33 -57 -64 -76q25 -4 51 -21q3 9 8 16zM357 622l4 -57
l-4 -82q-1 -1 -1 -3h47q-1 3 -1 6q-3 6 -3 34l-1 72h496q0 -90 -5 -106h49q-3 15 -4 34q-1 31 -2 56l4 34q0 12 2 23q-37 -1 -75 -5h-185q3 9 21 36q-120 84 -130 90q-3 1 -4 2q-3 -7 -24 -34q93 -57 132 -94h-249q-10 0 -35 3q-15 0 -33 2q0 -4 1 -11zM443 -68l1 149
q0 9 6 37q1 9 8 17h-57q1 -36 5 -75l-1 -127q-3 -15 -4 -44q81 9 99 9l352 15v-42q0 -3 -3 -20h48q-6 55 -5 79l1 159q0 18 4 27q1 10 10 20h-58q4 -49 5 -90v-97l-188 -8l1 172q0 27 12 48h-56q4 -42 5 -84v-139zM587 568q-13 12 -20 15q-16 -22 -28 -30q48 -34 76 -57
q24 -21 52 -48q12 21 27 34q-85 70 -107 86zM939 261q4 6 11 11l12 9q-33 42 -55 68q-61 73 -65 80q-16 -18 -32 -29q37 -39 64 -72q25 -33 55 -76q4 4 10 9zM85 89q-4 -60 -5 -65q0 -3 -2 -5h49l-4 37q-1 21 -2 38h136q0 -30 -6 -66h50q-6 21 -6 66l1 502q0 13 5 48
l-121 -5l-100 5q1 -33 5 -68v-487zM121 130v473h136v-473h-136z" />
  </g>

</svg>
