<?xml version="1.0" standalone="no"?>
<!DOCTYPE svg PUBLIC "-//W3C//DTD SVG 1.1//EN" "http://www.w3.org/Graphics/SVG/1.1/DTD/svg11.dtd" >
<svg xmlns="http://www.w3.org/2000/svg" xmlns:xlink="http://www.w3.org/1999/xlink" version="1.1" viewBox="-10 0 1010 1000">
   <path fill="currentColor"
d="M663 -10q11 42 18 94h194q37 0 52 -2q-4 17 -4 45v40q1 60 8 81h-98q10 -21 10 -73v-26h-397v28q1 38 8 69h-93q7 -35 8 -73v-44q0 -21 -4 -49q21 4 62 4h176q-5 -25 -30 -88zM67 106q45 4 82 4h103q50 -1 73 -6q-6 53 -6 75v321q77 -3 167 -45v-137q0 -18 -3 -57
q-1 -3 -1 -5q83 5 91 18q1 3 -5 11q-18 23 -18 51v81q113 -74 190 -216q54 30 79 55q2 2 -5 6q-20 9 -32 26q-103 131 -222 202q30 8 80 7q52 -1 72 -10q24 -20 26 -82l9 6q49 32 76 40q-1 4 -3 11q-15 65 -46 86q-33 27 -230 14q-37 -3 -52 -38q-45 20 -119 56
q-10 -34 -54 -64v56q1 79 10 133h-81q4 -14 4 -64h-109q0 28 4 105h-84q9 -63 10 -160v-393q-1 -1 -4 -47q-1 -31 -2 -40zM613 165q30 40 62 93l-66 36q-24 -56 -65 -97zM141 173v405h111v-405h-111zM395 270q44 4 75 18q-15 24 -43 114q-9 31 -14 45q-1 -1 -3 -2
q-17 -12 -67 -20q44 -85 52 -155zM829 298q55 56 115 141l-73 44q-34 -74 -101 -145zM583 580q91 7 100 14q1 3 -2 12q-12 26 -12 59v115h131v-107q0 -47 -12 -79q82 4 97 12q2 3 -2 13q-8 23 -8 44v133q1 57 8 93h-87q1 -7 2 -19q2 -10 2 -22h-312q-57 1 -101 8
q9 -33 8 -82v-101q0 -38 -6 -67q88 2 99 9q0 2 -4 9q-14 22 -14 51v105h123v-109q0 -54 -10 -91z" />
</svg>
