<?xml version="1.0" standalone="no"?>
<!DOCTYPE svg PUBLIC "-//W3C//DTD SVG 1.1//EN" "http://www.w3.org/Graphics/SVG/1.1/DTD/svg11.dtd" >
<svg xmlns="http://www.w3.org/2000/svg" xmlns:xlink="http://www.w3.org/1999/xlink" version="1.1" viewBox="-10 0 1010 1000">
   <path fill="currentColor"
d="M343 28q15 0 105 6h60q60 -1 95 -4q-6 27 -6 101v157q1 54 6 79h-71q9 -28 8 -79v-198h-135v192q0 51 8 80h-72q5 -23 6 -82v-157q0 -74 -4 -95zM643 30q24 3 101 6h73q12 -1 34 -2q32 -2 64 -2q-6 30 -6 85v173q1 51 6 87h-70q5 -31 6 -87v-198h-147v190q0 46 1 62
q1 20 3 29h-69q7 -39 8 -91v-157q0 -71 -4 -95zM71 62q8 0 40 2q32 1 52 2h43q14 -1 38 -2q26 -2 50 -2q-6 42 -6 133v357q0 78 6 105h-80q0 -13 3 -47q1 -9 1 -14h-73q0 51 1 69q1 22 3 34h-80q6 -22 7 -82q0 -23 1 -31v-387q0 -40 -6 -137zM145 127v403h75v-403h-75z
M442 127q21 5 52 6q15 0 16 2q2 3 -2 13q-5 14 -6 25q-1 15 -2 46q-5 118 -12 141q14 9 45 29q57 37 90 58q-1 1 -4 2q-36 21 -56 49q-35 -45 -91 -87q-31 58 -105 123q-16 -23 -69 -44q101 -39 126 -109q15 -36 19 -94q4 -54 -1 -160zM742 127q22 5 52 8q20 1 19 4
q1 1 -3 7q-10 15 -10 29q0 107 -8 196q26 19 95 65q36 24 55 37q-49 35 -61 53q-37 -46 -109 -97q-39 52 -99 105q-23 -28 -74 -44q109 -45 133 -113q14 -35 16 -91q2 -52 -6 -159zM524 492q85 23 81 28q-1 2 -6 6q-19 13 -32 36h237q80 0 103 -4v75q-30 -8 -88 -8h-31
q-36 70 -74 115q17 6 54 20q94 33 151 56q-34 34 -66 79q-53 -44 -192 -105q-85 54 -312 103q-3 -49 -47 -91q128 7 273 -44q-61 -26 -172 -47q4 -6 12 -17q33 -44 49 -71h-29q-78 0 -102 6v-75q42 6 100 6h63q21 -32 28 -68zM710 625h-174q-2 -3 -32 48q84 24 141 42
q45 -48 65 -90z" />
</svg>
