<?xml version="1.0" standalone="no"?>
<!DOCTYPE svg PUBLIC "-//W3C//DTD SVG 1.1//EN" "http://www.w3.org/Graphics/SVG/1.1/DTD/svg11.dtd" >
<svg xmlns="http://www.w3.org/2000/svg" xmlns:xlink="http://www.w3.org/1999/xlink" version="1.1" viewBox="-10 0 1034 1024">
  <g transform="matrix(1 0 0 -1 0 820)">
   <path fill="currentColor"
d="M83 633q1 -27 5 -56l-1 -467q-3 -18 -3 -29q0 -1 -2 -8h50q-4 19 -5 51q0 4 -1 28h108q-3 -51 -6 -57h50q-3 9 -3 16q-1 27 -3 41l1 443q0 12 3 26q0 6 2 23q-66 -4 -105 -5q-15 0 -85 5h-6q0 -4 1 -11zM126 189v413h108v-413h-108zM224 -126q27 -9 45 -28q28 24 131 137
q24 30 51 40q-33 15 -52 30q-7 -15 -23 -38q-15 -21 -45 -55q-51 -54 -107 -86zM362 707q6 -33 7 -67v-86q-36 0 -67 5v-46q10 3 67 5v-390q-34 0 -51 2q-9 0 -18 4v-48q9 3 17 3q22 1 47 3l252 -1q24 0 42 -5v48q-13 -3 -18 -3q-30 0 -60 -3v390q46 0 59 -5v46
q-12 -3 -59 -5v95q0 18 3 34q1 18 14 33h-63q3 -9 3 -18q3 -45 3 -106v-38h-132q0 60 3 121q3 18 14 32h-63zM408 404v114h132v-114h-132zM408 258v110h132v-110h-132zM408 128v94h132v-94h-132zM577 -49q9 12 14 15q9 7 17 12q-21 22 -40 44q-6 9 -32 34q-12 -12 -31 -26
q0 -1 4 -4q0 -1 4 -4q0 -1 4 -4q28 -27 34 -34q3 -4 11 -15zM832 368q-3 -522 -5 -542h49q-6 21 -5 51l-1 491h28q40 0 67 -6v47q-51 -4 -78 -5h-160q-1 100 -9 216q36 3 72 11q40 9 98 24q33 9 60 12q-24 21 -39 49q-48 -27 -113 -43q-66 -13 -123 -16l7 -78l7 -222l1 -81
q0 -138 -19 -210q-27 -105 -93 -166q-19 -18 -60 -45q33 -6 51 -24q93 90 127 187q19 58 27 126q3 39 5 91l1 133h105z" />
  </g>

</svg>
