<?xml version="1.0" standalone="no"?>
<!DOCTYPE svg PUBLIC "-//W3C//DTD SVG 1.1//EN" "http://www.w3.org/Graphics/SVG/1.1/DTD/svg11.dtd" >
<svg xmlns="http://www.w3.org/2000/svg" xmlns:xlink="http://www.w3.org/1999/xlink" version="1.1" viewBox="-10 0 1010 1000">
   <path fill="currentColor"
d="M601 -8q78 -2 101 6q0 2 -3 9q-14 27 -14 61h132q86 -1 127 -10v69q-35 -7 -125 -8h-134v62h103q76 0 121 -8v67q-3 0 -17 -1q-52 -6 -104 -6h-270q-60 0 -115 7v-67q26 8 113 8h95v-62h-127q-83 1 -125 8v-69q37 9 125 10h127q0 -39 -8 -69q-2 -5 -2 -7zM331 58
q-8 34 -8 95v429q0 47 8 69h-91q7 -27 8 -69h-103v20q0 75 8 111h-95q7 -44 9 -137v-417q0 -63 -9 -101q26 8 99 8h81q68 0 93 -8zM248 133h-105v381h105v-381zM399 280q37 5 107 8h278q63 -1 105 -8q-6 33 -8 68v55q0 34 8 62q-31 -8 -99 -8h-54q23 10 63 33q9 5 11 6
q-31 18 -60 52h81q59 -1 121 -10v70q-33 -7 -123 -8h-349q-74 0 -119 8v-70q27 9 117 10h50q-20 -36 -48 -56l60 -31q33 30 59 67l-32 20h118q39 -60 45 -91h-226q-68 3 -105 8q7 -32 8 -66v-47q-1 -35 -8 -72zM478 340v65h332v-65h-332zM893 641q-6 27 -8 82v119q0 39 8 53
h-95q7 -18 8 -51h-340q0 34 8 51h-95q8 -18 8 -53v-115q-1 -53 -8 -86q36 6 109 8h298q77 -3 107 -8zM466 705v83h340v-83h-340z" />
</svg>
