<?xml version="1.0" standalone="no"?>
<!DOCTYPE svg PUBLIC "-//W3C//DTD SVG 1.1//EN" "http://www.w3.org/Graphics/SVG/1.1/DTD/svg11.dtd" >
<svg xmlns="http://www.w3.org/2000/svg" xmlns:xlink="http://www.w3.org/1999/xlink" version="1.1" viewBox="-10 0 1034 1024">
  <g transform="matrix(1 0 0 -1 0 820)">
   <path fill="currentColor"
d="M565 471l-42 58q-12 -9 -35 -22q18 -18 67 -90q9 -19 17 -37q18 15 38 25zM718 415q18 -7 35 -24q6 9 11 20q33 58 37 61q12 21 42 40q-25 12 -45 32q-22 -43 -40 -72q-15 -25 -40 -57zM865 300q30 -1 60 -5q-4 45 -5 59l1 229l4 49q-18 -1 -31 -2q-21 -3 -29 -3h-109
q21 42 46 86q21 34 47 52q-30 15 -56 31q-10 -34 -36 -90q-18 -42 -40 -79l-277 1q-3 1 -43 4v-8q0 3 2 -17q3 -27 3 -38l-1 -231q-3 -12 -4 -43q30 3 63 5h405zM439 591h197v-255h-197v255zM673 336v255h209v-255h-209zM452 -114q-3 -24 -4 -41l-2 -11h49q0 4 -2 8
q0 21 -4 47h360q-3 -40 -5 -49q-1 0 -1 -1h49q0 6 -2 11q0 18 -3 35l1 298q0 19 4 48q-30 -1 -62 -5l-338 1q-19 3 -46 4q6 -63 6 -84v-261zM489 79v111h360v-111h-360zM489 -75v119h360v-119h-360zM487 748q40 -42 63 -70q18 -21 32 -47q15 18 33 30q-12 15 -36 44l-59 68
q-15 -13 -33 -25zM103 115q-3 -36 -3 -51l-2 -11h48q-1 3 -1 5q0 1 -4 53v44h147q0 -30 -6 -60v-1h49q-3 7 -4 26q-1 7 -2 30l1 457q0 10 5 50q-1 1 0 2l-31 -4q-18 -3 -57 -3q-87 0 -111 2q-9 1 -34 5q1 -33 5 -67v-477zM141 191v426h147v-426h-147z" />
  </g>

</svg>
