<?xml version="1.0" standalone="no"?>
<!DOCTYPE svg PUBLIC "-//W3C//DTD SVG 1.1//EN" "http://www.w3.org/Graphics/SVG/1.1/DTD/svg11.dtd" >
<svg xmlns="http://www.w3.org/2000/svg" xmlns:xlink="http://www.w3.org/1999/xlink" version="1.1" viewBox="-10 0 1034 1024">
  <g transform="matrix(1 0 0 -1 0 820)">
   <path fill="currentColor"
d="M393 -81q-58 3 -69 5v-48q12 6 48 6l525 1q33 0 55 -4q3 0 12 -3v48q-33 -1 -67 -5h-184q6 9 29 46q30 51 62 66q-18 6 -50 21q-6 4 -11 7q-4 -18 -21 -52q-30 -54 -53 -88h-122q13 15 32 25q-36 48 -61 77l-30 35q-7 -6 -23 -21l-9 -6q52 -52 86 -110h-149zM601 667
l-232 1q-7 1 -16 2q-1 0 -8 2v-46q33 3 68 5h188v-74l-174 5v-46q15 4 69 5l372 -3q6 0 10 -2v46q-33 -1 -67 -5h-172v74l257 -1q13 -1 29 -4v46q-10 -3 -27 -4l-259 -1q0 66 3 71q1 15 11 27h-57q4 -49 5 -96v-2zM358 370q0 -30 -5 -70h47q-3 6 -3 40q-1 21 -2 60v19h495
l-4 -111q-1 -1 -1 -3h48q-4 72 -5 96l4 36q0 6 1 23q-34 -1 -70 -5l-463 1q-19 3 -47 4q1 -21 2 -33q3 -27 3 -35v-22zM419 254q1 -36 5 -72q0 -45 -2 -77q-3 -6 -3 -42q54 4 106 5l264 -1l53 -4q-4 60 -5 88l4 83q0 9 1 20q-36 -1 -73 -5l-300 1q-19 3 -50 4zM462 104v109
h336v-109h-336zM442 306q7 3 27 4q18 3 42 2l289 -1q6 0 30 -5v47q-33 -1 -67 -5l-297 1q-7 1 -15 2q-3 0 -9 2v-47zM101 111q0 -22 -3 -55q0 -4 -3 -13h48q-3 12 -4 38l-1 71h126q0 -33 -3 -57q0 1 -2 -14h48q-3 12 -3 29q0 21 -2 42l1 447q0 21 4 49q-48 -6 -82 -6
q-63 0 -88 2q-3 1 -19 2q-12 0 -23 2q6 -66 6 -100v-437zM138 188v418h126v-418h-126z" />
  </g>

</svg>
