<?xml version="1.0" standalone="no"?>
<!DOCTYPE svg PUBLIC "-//W3C//DTD SVG 1.1//EN" "http://www.w3.org/Graphics/SVG/1.1/DTD/svg11.dtd" >
<svg xmlns="http://www.w3.org/2000/svg" xmlns:xlink="http://www.w3.org/1999/xlink" version="1.1" viewBox="-10 0 1010 1000">
   <path fill="currentColor"
d="M587 -25q69 12 100 29q0 2 -7 4q-16 5 -21 12q131 153 305 201q-35 30 -63 81q-121 -62 -280 -244q-127 165 -254 254q-25 -28 -52 -45q-7 -4 -11 -7v312q0 72 9 129h-85q8 -55 8 -125h-91v34q0 82 8 109h-84q8 -54 8 -109v-445q0 -49 -8 -93q31 10 86 10h65q51 0 93 -10
q-9 43 -9 99v79q161 -66 283 -275zM145 149v359h91v-359h-91zM538 286q30 16 80 46q13 8 17 10q49 -28 71 -50q50 35 56 52q-1 3 -15 7q-32 9 -59 22q51 27 78 46l-42 48q-2 -2 -7 -6q-34 -25 -80 -56q-27 12 -105 60q-16 -25 -50 -50q36 -6 101 -40q-28 -17 -85 -35z
M782 290q-3 0 -12 -2q-38 -6 -85 -6h-122q-35 0 -71 5q-11 1 -14 1v-65q4 0 16 2q34 4 68 4h121q43 0 86 -5q10 -1 13 -1v67zM653 135q14 30 20 70l-74 16q-1 -40 -16 -74zM806 471v-90q1 -23 -6 -44q-3 -7 -2 -9q91 4 95 12q1 2 -5 8q-18 20 -19 43v60q1 57 8 85
q-29 -7 -93 -10h-117q-1 3 -4 9q-14 34 -24 51h174q60 0 94 -8q-10 54 -10 91v109q0 12 1 32q28 107 -136 119q-1 -44 -32 -85q66 11 87 -6q9 -3 8 -64v-129h-214q-29 44 -63 87q-4 6 -6 8q55 1 148 -9q-5 -18 -23 -48l55 -18q31 53 62 131l-64 24q-1 -3 -2 -7
q-7 -23 -12 -33q9 -3 -57 5q-87 10 -173 19l-24 -67q33 -12 81 -83q5 -8 7 -11h-121v157q0 66 8 113h-90q10 -41 10 -113v-129q0 -49 -10 -95q40 7 101 8h129q13 -21 24 -58h-109q-51 2 -99 8q7 -41 8 -81v-52q-1 -30 -3 -65q-1 -11 -1 -12q62 -2 89 8l-2 4q-20 22 -20 53
v82h352z" />
</svg>
