<?xml version="1.0" standalone="no"?>
<!DOCTYPE svg PUBLIC "-//W3C//DTD SVG 1.1//EN" "http://www.w3.org/Graphics/SVG/1.1/DTD/svg11.dtd" >
<svg xmlns="http://www.w3.org/2000/svg" xmlns:xlink="http://www.w3.org/1999/xlink" version="1.1" viewBox="-10 0 1010 1000">
   <path fill="currentColor"
d="M534 -21q81 20 89 35q-1 4 -16 10q-14 6 -20 10q-14 11 -27 26h138q71 1 115 -10l-115 129h106q68 0 95 -8q-8 36 -8 77v127q0 42 8 76q-30 -7 -95 -8h-328q-56 0 -91 8q8 -21 8 -68v-131q0 -40 -6 -55q-18 15 -40 28q-14 -41 -32 -58v448q1 56 10 94h-89q7 -28 8 -80
h-91v34q1 82 8 117h-86q7 -21 6 -129v-474q-1 -55 -6 -83q27 5 92 8h65q60 -2 93 -8q0 3 -2 11q-8 38 -8 56q143 -76 219 -182zM671 119h-167q-38 29 -79 52q14 8 55 8h131zM153 169v393h91v-393h-91zM464 235v49h143v-49h-143zM679 235v49h140v-49h-140zM464 340v49h143
v-49h-143zM679 340v49h140v-49h-140zM333 481q41 6 117 7h391q89 0 115 -7v71q-38 -7 -113 -8h-393q-63 1 -117 8v-71zM405 580q37 8 105 8h254q51 0 101 -8q-8 24 -8 79v204q1 32 8 50h-87q7 -21 8 -48h-302q1 33 8 48h-87q7 -18 8 -48v-202q1 -54 -8 -83zM484 643v56h302
v-56h-302zM786 754h-302v56h302v-56z" />
</svg>
