<?xml version="1.0" standalone="no"?>
<!DOCTYPE svg PUBLIC "-//W3C//DTD SVG 1.1//EN" "http://www.w3.org/Graphics/SVG/1.1/DTD/svg11.dtd" >
<svg xmlns="http://www.w3.org/2000/svg" xmlns:xlink="http://www.w3.org/1999/xlink" version="1.1" viewBox="-10 0 1034 1024">
  <g transform="matrix(1 0 0 -1 0 820)">
   <path fill="currentColor"
d="M401 126q-58 3 -66 5v-44q12 3 27 3l98 2h120q-49 -99 -119 -147q-73 -48 -171 -54q21 -18 42 -49q7 3 17 7q108 40 181 102q46 42 91 137q60 -121 192 -194q33 -19 54 -31q19 -9 39 -18q21 27 49 48q-42 6 -78 17q-63 25 -102 53q-81 57 -112 129l239 -1l30 -4v44
q-6 -1 -12 -3q-13 -1 -53 -2h-235q6 45 10 91l207 -3q6 0 9 -2v44q-3 0 -5 -1q-19 -3 -60 -4h-148q1 42 4 83l196 -1l32 -4v45q-48 -6 -79 -6h-86q4 9 10 17q30 51 41 62q7 10 30 19q-33 9 -62 27q-1 -15 -11 -36q-22 -51 -52 -89h-72l-58 66l-51 54q-16 -18 -32 -28
q18 -15 88 -86q1 -3 4 -6q-121 0 -149 2q-7 1 -15 2q-1 0 -8 2v-45q12 3 49 4l186 1q-3 -40 -4 -83q-166 0 -193 2q-3 1 -5 1q-3 0 -13 2v-44q6 3 25 3l174 2h9q-3 -45 -12 -91h-190zM535 542l-187 2q-3 1 -4 1q-3 0 -13 3v-45q12 3 27 3l70 2l468 -1l32 -4v45q-3 0 -35 -5
l-180 -1l1 175q0 27 12 47h-56q0 -6 3 -15l2 -157v-50h-103v141q0 19 3 39q1 18 11 34h-57q1 -6 2 -14l4 -115v-85zM356 672q78 -63 115 -107q9 15 28 32q-18 19 -59 54q-33 28 -54 51q-12 -18 -30 -30zM754 587q24 -6 51 -20q3 6 8 12l46 71q18 27 47 38q-34 15 -56 30
q-6 -21 -35 -67q-33 -46 -61 -64zM89 654q6 -60 6 -65l-1 -532q-1 -10 -2 -26q0 -4 -3 -13h47q-4 19 -5 49v61h119v-7q0 -40 -6 -62h49q0 1 -5 66l1 483l4 46q-36 -1 -71 -5q-72 0 -133 5zM131 162v454h119v-454h-119z" />
  </g>

</svg>
