<?xml version="1.0" standalone="no"?>
<!DOCTYPE svg PUBLIC "-//W3C//DTD SVG 1.1//EN" "http://www.w3.org/Graphics/SVG/1.1/DTD/svg11.dtd" >
<svg xmlns="http://www.w3.org/2000/svg" xmlns:xlink="http://www.w3.org/1999/xlink" version="1.1" viewBox="-10 0 1034 1024">
  <g transform="matrix(1 0 0 -1 0 820)">
   <path fill="currentColor"
d="M520 684q7 9 17 16q31 30 68 37q-42 21 -61 36q-13 -21 -31 -42t-51 -52q-76 -67 -140 -89q27 -16 42 -29q4 -4 8 -7q7 7 16 13l27 24l70 58h227q-24 -24 -45 -47l-30 -29h-170q-36 1 -70 2q3 -69 3 -122q0 -79 -2 -110q-1 -3 -2 -20q0 -12 -2 -23q36 3 74 5l378 -1
q48 -3 50 -4q-4 60 -5 118q0 105 2 119q0 21 3 42q-66 -6 -95 -6h-106q9 7 16 17q28 33 60 61l36 38l-92 -5h-195zM618 463h-181v75h181v-75zM437 341v86h181v-86h-181zM657 463v75h196v-75h-196zM853 341h-196v86h196v-86zM965 252q-33 -1 -67 -5l-541 1q-9 1 -16 2
q-3 0 -13 2v-48q3 3 16 4q12 3 52 3l540 -1q4 0 29 -6v48zM482 -173q-4 49 -5 60v6h345q-1 -48 -5 -60h48q-6 75 -6 87l1 179q1 28 5 58q-36 -1 -71 -5l-306 1q-19 3 -53 4q1 -33 5 -68l-1 -219q-1 -12 -2 -27q0 -1 -2 -16h47zM477 -72v74h345v-74h-345zM477 37v79h345v-79
h-345zM87 619q3 -27 3 -67l-5 -497q-1 0 -1 -2h48q-6 51 -5 84v10h128q-3 -69 -5 -87h48q0 1 -5 67l1 476q0 21 4 48q-66 -4 -106 -5l-108 5zM127 183v427h128v-427h-128z" />
  </g>

</svg>
