<?xml version="1.0" standalone="no"?>
<!DOCTYPE svg PUBLIC "-//W3C//DTD SVG 1.1//EN" "http://www.w3.org/Graphics/SVG/1.1/DTD/svg11.dtd" >
<svg xmlns="http://www.w3.org/2000/svg" xmlns:xlink="http://www.w3.org/1999/xlink" version="1.1" viewBox="-10 0 1010 1000">
   <path fill="currentColor"
d="M708 20q3 3 1 17q-5 45 11 86q58 -39 93 -97q74 56 68 62q-1 3 -9 7q-50 21 -134 88q10 30 32 61q38 -30 85 -95q5 4 15 10q63 41 55 52q-1 2 -9 5q-46 17 -108 74q52 61 160 95q-47 34 -63 74q-119 -74 -167 -141v55q-31 -5 -104 -6q-78 -1 -116 4v-51q-52 71 -149 149
q-20 -25 -50 -36v131q0 90 6 127h-75q4 -36 4 -85h-103q0 81 6 123h-80q7 -39 6 -123v-18v-365v-16q1 -80 -6 -111q122 12 248 0q-7 31 -6 116v17v186q78 -44 125 -109q-41 -47 -89 -79q31 -19 58 -50q36 45 69 73q36 -45 54 -121q-125 0 -179 6v-69q36 6 129 6t133 -6
q-19 116 -89 238q28 4 102 4q73 0 96 -4q-62 -87 -99 -278zM254 163h-103v381h103v-381zM748 481h-244v95h244v-95zM706 641q89 28 90 40q-1 4 -8 9q-34 27 -68 114h105q73 0 113 -6v77q-34 -5 -111 -6h-377q-55 0 -74 1q-24 1 -53 5v-77q42 6 125 6h207q35 -94 51 -163z
M520 645q29 33 73 119l-73 34q-19 -50 -68 -119zM437 417q34 7 143 6h47q105 0 140 -1q43 -1 54 -5q-4 20 -4 103q0 84 4 119q-23 -4 -62 -5q-19 -1 -47 -1h-79h-48q-125 -2 -150 6q4 -37 5 -117q0 -75 -3 -105z" />
</svg>
