<?xml version="1.0" standalone="no"?>
<!DOCTYPE svg PUBLIC "-//W3C//DTD SVG 1.1//EN" "http://www.w3.org/Graphics/SVG/1.1/DTD/svg11.dtd" >
<svg xmlns="http://www.w3.org/2000/svg" xmlns:xlink="http://www.w3.org/1999/xlink" version="1.1" viewBox="-10 0 1034 1024">
  <g transform="matrix(1 0 0 -1 0 820)">
   <path fill="currentColor"
d="M337 -161q25 10 52 20q10 3 23 10q60 30 101 64q63 54 106 152h6q42 -82 122 -145q85 -69 162 -101q22 27 45 47q-70 9 -137 48q-96 60 -149 151q243 0 252 -3q3 0 23 -4v48q-18 -1 -38 -5l-278 -1q0 9 9 31q7 19 23 32q-28 3 -62 12q-3 -54 -7 -68q-1 -3 -2 -7l-232 1
q-37 4 -40 5v-48q6 3 23 4q6 3 46 3h192q-34 -96 -148 -161q-76 -42 -154 -41q24 -25 41 -53zM383 652q1 -33 5 -69l-1 -388q-1 -9 -2 -22q0 -7 -2 -14h47q0 6 -2 14q-3 54 -3 82v356h396q0 -396 -3 -430l-3 -18h49q-6 60 -6 70l1 365q0 18 5 54q-69 -4 -83 -5h-188
q18 39 29 57q13 22 44 35q-3 3 -22 10q-24 9 -41 22q-3 -19 -13 -45q-19 -46 -39 -79q-96 0 -125 2q-6 3 -43 3zM586 324q6 13 20 27v-72q0 -21 -3 -55q0 -7 -2 -13h48q0 6 -2 13q-3 54 -3 80v29l81 -63q21 -16 39 -37q6 13 16 23q0 1 2 4l6 9q-10 6 -18 13l-26 20
q-97 75 -100 77v8q91 0 105 -2q3 0 20 -4v47q-66 -4 -102 -5h-23q0 117 3 124q1 15 11 28h-57q4 -64 5 -95v-57q-88 0 -117 2q-4 1 -7 1t-13 2v-47q6 3 28 4l91 2q-28 -45 -59 -80q-40 -45 -83 -59q33 -13 55 -26l65 77q9 13 20 25zM480 528q15 -12 36 -37q18 -21 34 -43
q3 6 15 14l14 10q-6 7 -11 13q-4 4 -9 11q-34 42 -52 59zM708 452q13 21 31 42q24 25 49 26q-30 24 -44 41q-3 -6 -4 -9q-3 -3 -10 -14q-3 -6 -30 -41q-7 -9 -23 -25zM58 611q3 -24 3 -35q-3 -549 -5 -563q-1 0 -1 -2h48q-6 66 -5 90h144l-1 -37q0 -22 -4 -37h48
q-3 15 -4 52l-1 497q1 33 5 68q-36 -1 -71 -5q-90 0 -117 2q-6 3 -42 3zM98 137v466h144v-466h-144z" />
  </g>

</svg>
