<?xml version="1.0" standalone="no"?>
<!DOCTYPE svg PUBLIC "-//W3C//DTD SVG 1.1//EN" "http://www.w3.org/Graphics/SVG/1.1/DTD/svg11.dtd" >
<svg xmlns="http://www.w3.org/2000/svg" xmlns:xlink="http://www.w3.org/1999/xlink" version="1.1" viewBox="-10 0 1010 1000">
   <path fill="currentColor"
d="M544 -10q87 13 109 24q0 2 -7 8q-12 9 -17 20q-4 7 -12 23q-16 27 -20 39h187q62 -1 105 -8q-8 25 -8 87v282q0 43 1 66q1 26 5 55h-87q6 -39 6 -121v-302h-358v304q0 89 6 119h-87q6 -33 6 -119v-282q0 -62 -8 -89q29 8 103 8h52q20 -43 24 -114zM67 104q43 11 88 11h67
q47 -1 93 -11q-7 27 -7 95v440q0 59 7 88h-87q8 -33 8 -88h-89q-2 64 10 123h-90q8 -29 8 -123v-438q-3 -81 -8 -97zM236 183h-89v389h89v-389zM720 203q33 10 64 28q-44 47 -68 87q-24 -14 -51 -14q33 -46 55 -101zM524 209q23 31 45 93l-57 16q-13 -49 -40 -89zM452 508
q67 -44 111 -115h-15q-53 0 -80 8v-71q21 8 80 8h45v-84q0 -43 -8 -63q74 1 88 8q1 2 -4 7q-20 22 -20 52v78h55q47 -1 78 -8v69q-22 -7 -78 -8h-55v48l51 -28q46 40 96 113l-62 28q-37 -71 -85 -111v26q0 66 8 87h-70q8 -26 8 -87v-40q-55 89 -101 131q-14 -29 -42 -48z
M851 621q60 -1 105 -8v76q-62 -8 -103 -8h-168q74 124 283 139q-49 36 -63 87q-206 -45 -280 -204q-38 148 -294 200q-16 -56 -61 -85q234 -4 292 -137h-131q-65 1 -108 6v-74q27 6 106 8h144q7 -26 4 -51q5 0 16 1q81 7 80 13q1 2 -5 9q-12 16 -15 28h198z" />
</svg>
