<?xml version="1.0" standalone="no"?>
<!DOCTYPE svg PUBLIC "-//W3C//DTD SVG 1.1//EN" "http://www.w3.org/Graphics/SVG/1.1/DTD/svg11.dtd" >
<svg xmlns="http://www.w3.org/2000/svg" xmlns:xlink="http://www.w3.org/1999/xlink" version="1.1" viewBox="-10 0 1010 1000">
   <path fill="currentColor"
d="M706 0q51 0 66 1q18 1 18 5q0 1 -2 5q-16 33 -16 102h69q54 0 78 -5v73q-27 -9 -82 -8h-37q50 121 146 179q-33 18 -57 51q-78 -80 -119 -174v103q0 16 4 65q2 13 2 18h-72q5 -32 6 -81v-103q-38 87 -111 174q-23 -27 -61 -38q105 -100 150 -194q-38 0 -59 4v-69
q24 3 83 5q0 -60 -1 -77q-1 -22 -5 -36zM448 -8q7 0 21 1q74 1 69 9q0 2 -3 6q-19 30 -19 105h24q43 -1 69 -7v73q-30 -6 -69 -6h-26v52l38 -28q32 33 57 71l-44 34q-18 -31 -51 -64v100q0 20 6 79h-72q5 -32 6 -79v-111q-44 89 -115 170q-19 -27 -55 -45q81 -74 135 -179
h-38q-27 0 -73 4v-71q32 5 87 7h59q0 -63 -1 -82q-1 -25 -5 -39zM135 159v381h79v-381h-79zM393 447q36 5 117 8h226q72 -3 101 -6v73q-27 -6 -99 -6h-230q-74 0 -115 4v-73zM937 570v75q-42 -7 -114 -8h-170v191q2 37 -25 49q-26 15 -116 24q-1 -50 -38 -93q108 25 101 -20
v-151h-152q-83 2 -111 8v-75q26 6 113 6h396q91 0 116 -6zM435 657q80 46 75 54q-2 4 -10 5q-21 4 -44 26q-71 68 -131 114q-33 -34 -71 -48q129 -74 181 -151zM770 663q86 72 153 139l-74 50q-54 -72 -141 -145zM282 538q0 89 6 125h-82q3 -18 6 -59h-77q0 71 6 101h-83
q7 -31 9 -105v-391q-1 -78 -5 -117q18 4 89 4h51q64 -1 88 -4q-8 24 -8 109v337z" />
</svg>
