<?xml version="1.0" standalone="no"?>
<!DOCTYPE svg PUBLIC "-//W3C//DTD SVG 1.1//EN" "http://www.w3.org/Graphics/SVG/1.1/DTD/svg11.dtd" >
<svg xmlns="http://www.w3.org/2000/svg" xmlns:xlink="http://www.w3.org/1999/xlink" version="1.1" viewBox="-10 0 1034 1024">
  <g transform="matrix(1 0 0 -1 0 820)">
   <path fill="currentColor"
d="M76 106q0 -36 -5 -67h48q-6 48 -6 81v21h136q0 -24 -2 -36q0 -6 -3 -12h46q-4 19 -5 48l1 435q1 28 5 57q-66 -6 -84 -6q-75 0 -100 2q-1 0 -36 4q4 -70 5 -99v-428zM249 591v-414h-136v414h136zM550 70q6 6 18 15q-48 63 -85 117q-9 12 -31 45q3 30 10 44q3 3 5 10
q4 7 14 22q-15 3 -34 11q-9 3 -20 9q-15 -148 -83 -254q-27 -39 -55 -63q24 -6 45 -20q60 81 102 195q39 -51 63 -87q18 -27 35 -61q7 9 16 17zM589 -72q-279 3 -294 5v-47q3 1 64 6q574 0 587 -2q6 0 24 -4v47q-24 -4 -65 -5h-275v463l269 -3q3 0 12 -2v47q-21 -6 -65 -6
l-488 3q-1 0 -17 3v-47q54 4 79 5h169v-463zM424 614h41l41 -75q10 -24 20 -52q16 12 40 18l-31 58l-30 51q88 0 101 -2q12 0 24 -3v46q-24 -4 -65 -5h-123q3 13 14 32q13 36 39 60q-9 1 -17 5q-7 0 -36 14q-9 -45 -49 -127q-48 -93 -96 -133q12 -1 23 -6q12 -6 21 -14
l38 58q13 21 14 23zM707 619h44q31 -48 48 -78q12 -22 24 -54q13 18 40 25q-43 66 -69 107q72 0 146 -4l6 -2v47q-36 -6 -65 -6h-162q1 9 8 25q7 27 17 48q3 6 20 25q-7 0 -15 3q-13 3 -23 8q-6 3 -16 6q-15 -118 -93 -248q-4 -9 -21 -26q25 -3 45 -14q15 25 33 67zM789 201
l10 -13q54 -78 76 -113l18 -40q18 21 39 31q-21 33 -58 82q-12 18 -24 32q-9 12 -17 24l-34 48q15 55 34 74q-1 0 -4 2q-6 1 -14 5q-16 4 -27 11q-3 1 -5 3q-13 -81 -54 -170q-43 -96 -85 -123q31 -6 47 -21q21 31 37 62q16 30 39 79q9 15 17 35q1 -3 5 -8v0z" />
  </g>

</svg>
