<?xml version="1.0" standalone="no"?>
<!DOCTYPE svg PUBLIC "-//W3C//DTD SVG 1.1//EN" "http://www.w3.org/Graphics/SVG/1.1/DTD/svg11.dtd" >
<svg xmlns="http://www.w3.org/2000/svg" xmlns:xlink="http://www.w3.org/1999/xlink" version="1.1" viewBox="-10 0 1010 1000">
   <path fill="currentColor"
d="M435 14q35 4 101 4h200q61 -1 101 -4q-4 34 -4 74v63q0 52 4 82q-39 -3 -99 -4h-202q-60 1 -101 4q3 -22 3 -68v-71q0 -59 -3 -80zM60 46q34 7 95 8h69q55 -1 95 -8q-7 35 -7 105v439q1 64 7 85h-89q7 -26 8 -85h-99v27q1 78 8 120h-87q8 -67 9 -124v-464q-1 -59 -9 -103
zM514 165h244v-83h-244v83zM141 129v385h99v-385h-99zM659 272q3 0 9 1q34 3 76 3h79q58 0 92 -4q-5 24 -4 74v71q0 36 4 75q-21 -4 -82 -4h-81q-73 0 -93 4q5 -13 4 -73v-61q1 -64 -4 -86zM357 272q20 4 83 4h82q47 0 85 -4q-4 20 -4 82v69q0 56 4 71q-33 -3 -93 -4h-72
q-65 0 -85 4q4 -24 4 -73v-71q0 -55 -4 -78zM540 340h-115v87h115v-87zM726 340v85h121v-85h-121zM579 510q87 4 94 10q1 1 -2 5q-14 18 -14 45h162q79 -1 123 -8v79q-66 -7 -123 -8h-113q107 112 262 141q-42 43 -55 91q-178 -52 -258 -234v157q1 72 8 101h-86
q9 -43 10 -107v-149q-97 156 -260 244q-27 -43 -81 -69q170 -54 268 -175h-52q-66 1 -117 8v-79q42 7 117 8h125q0 -29 -6 -53q-2 -5 -2 -7z" />
</svg>
