<?xml version="1.0" standalone="no"?>
<!DOCTYPE svg PUBLIC "-//W3C//DTD SVG 1.1//EN" "http://www.w3.org/Graphics/SVG/1.1/DTD/svg11.dtd" >
<svg xmlns="http://www.w3.org/2000/svg" xmlns:xlink="http://www.w3.org/1999/xlink" version="1.1" viewBox="-10 0 1010 1000">
   <path fill="currentColor"
d="M619 78v103h165v-103h-165zM601 758h181v-123h-181v123zM373 639h-155v119h155v-119zM760 304l-48 32h44q94 -1 161 -8v79q-79 -7 -163 -8h-200q52 44 161 66q117 21 235 10q-30 42 -35 93q-346 -30 -431 -165q-66 129 -407 173q-10 -44 -45 -84q287 0 381 -93h-181
q-92 2 -159 8v-79q73 7 159 8h203q7 -31 7 -74q86 4 98 12q0 3 -5 11q-15 24 -21 51h171q-26 -29 -58 -50l63 -38q20 13 57 45q9 7 13 11zM210 78v105h165v-105h-165zM452 568q-8 34 -8 77v175q0 37 8 61h-89q8 -16 8 -59h-155q0 48 8 67h-85q6 -23 8 -65v-183q0 -52 -6 -71
q20 7 75 6h155q43 0 81 -8zM857 566q-5 15 -4 71v185q1 33 8 55h-91q7 -22 8 -55h-173q0 36 8 59h-91q6 -17 8 -53v-185q0 -42 -8 -79q34 8 85 8h161q53 0 89 -6zM869 6q-10 37 -10 68v111q0 35 8 69q-39 -9 -81 -10h-175q-11 3 -43 5q-24 1 -32 3q8 -35 8 -67v-107
q-2 -48 -8 -72q41 8 77 8h171q44 -2 85 -8zM208 14h163q60 -1 83 -8q-8 24 -8 74v103q0 46 8 71q-25 -8 -79 -8h-165q-50 2 -79 8q8 -38 8 -69v-105q0 -49 -8 -76q32 9 77 10z" />
</svg>
