<?xml version="1.0" standalone="no"?>
<!DOCTYPE svg PUBLIC "-//W3C//DTD SVG 1.1//EN" "http://www.w3.org/Graphics/SVG/1.1/DTD/svg11.dtd" >
<svg xmlns="http://www.w3.org/2000/svg" xmlns:xlink="http://www.w3.org/1999/xlink" version="1.1" viewBox="-10 0 1034 1024">
  <g transform="matrix(1 0 0 -1 0 820)">
   <path fill="currentColor"
d="M398 508l-62 4q-3 0 -6 1v-47q4 3 13 3q27 1 55 3l525 -1q6 0 30 -5v47q-33 -1 -67 -5h-166q21 37 24 44q16 36 53 48q-28 12 -62 31q-10 -40 -57 -123h-108l19 16q-6 12 -56 86l-3 3q-1 0 -3 -2q-9 -6 -23 -14q-3 0 -7 -4q18 -18 57 -85h-156zM394 627q4 3 13 3
q27 1 56 3l377 -1q21 -1 42 -5v47q-33 -1 -68 -5h-158q9 10 21 18l-61 66q-6 4 -19 21q-1 1 -1 2q-18 -18 -35 -29q42 -36 74 -78l-212 1q-12 0 -29 4v-47zM320 -87q10 -4 17 -8q4 -3 12 -8q27 33 52 70q39 54 48 63q10 9 32 19q-30 19 -54 39q-16 -42 -50 -93
q-42 -52 -80 -69q10 -6 23 -13zM430 214q-3 -36 -5 -72q69 6 89 6l289 -1q27 -1 54 -5q-4 60 -5 89l1 132q0 21 4 50q-21 -1 -35 -2q-24 -3 -36 -4l-309 1q-12 1 -52 5q1 -34 5 -70v-129zM814 184h-347v82h347v-82zM467 302v70h347v-70h-347zM761 -34q-1 -31 -12 -47
q-9 -18 -42 -23q-114 0 -127 2l-9 4q-10 7 -11 25l2 115q1 19 12 34h-58q1 -36 5 -74v-85q0 -46 47 -56q34 -4 88 -5q55 0 76 4q34 6 58 44q9 16 21 54q-30 18 -41 26q-3 3 -8 7q-1 -12 -1 -25zM603 105q39 -46 86 -109q4 7 12 11q0 1 20 16q-3 6 -78 95l-11 11l-3 -2
q-7 -3 -26 -22zM796 76q37 -36 66 -69q28 -33 62 -77q7 12 31 32q-33 40 -66 77q-55 58 -62 67q-27 -27 -31 -30zM90 596q3 -24 3 -36l-1 -495q-1 -7 -2 -30q0 -4 -3 -13h48q-6 66 -5 86v18h149l-4 -65q-1 -1 -1 -4h48l-5 69l1 455l4 48q-36 -1 -71 -5q-97 0 -122 2
q-6 3 -42 3zM130 161v427h149v-427h-149z" />
  </g>

</svg>
