<?xml version="1.0" standalone="no"?>
<!DOCTYPE svg PUBLIC "-//W3C//DTD SVG 1.1//EN" "http://www.w3.org/Graphics/SVG/1.1/DTD/svg11.dtd" >
<svg xmlns="http://www.w3.org/2000/svg" xmlns:xlink="http://www.w3.org/1999/xlink" version="1.1" viewBox="-10 0 1010 1000">
   <path fill="currentColor"
d="M540 -19q59 0 75 1q21 1 20 5q0 2 -4 5q-16 14 -16 58h167q69 -1 119 -8v70q-27 -6 -113 -6h-173v43h206q57 0 78 -1q27 -1 43 -3q-8 30 -34 109q-3 11 -5 16q-38 -14 -80 -12q16 -25 28 -49h-230v41l79 -2q49 -3 80 -8l2 58q-9 -3 -59 -2h-15l-87 4v14q-1 19 8 22
q7 4 50 4h55q49 1 61 -11q13 -7 24 -55q28 36 66 48q-16 43 -41 55q-24 14 -84 14h-103q-64 0 -82 -10q-22 -9 -21 -41v-36l-133 8v109h400q78 -3 102 -6v73q-36 -7 -102 -7h-146q-9 8 -30 27q-8 6 -12 10q35 34 67 88q76 -55 112 -104q75 52 73 62q-1 4 -8 5q-32 7 -87 44
q51 128 174 181l-61 71q-127 -86 -157 -230l-30 24q31 161 -16 214q-40 37 -123 42q-2 -48 -31 -91q58 15 87 -2q28 -21 26 -105q-125 119 -230 166q-22 -32 -64 -53q187 -60 282 -175q-5 -25 -14 -40q-68 71 -177 135q-23 -28 -53 -47q98 -34 200 -129q-1 -1 -2 -3
q-13 -16 -20 -21q-64 40 -119 65q-20 -30 -47 -45q-18 176 -133 311q-39 -36 -86 -47q104 -72 134 -192q16 -61 20 -151q5 -83 1 -249q0 -11 -2 -54q-1 -28 -2 -45q60 6 82 6h117v-95q0 -59 -6 -73zM67 100q7 0 36 2q29 1 48 2h49q25 0 96 -4q-5 35 -6 119v365q0 73 6 109
h-82q3 -18 6 -66h-77v24q0 81 8 105h-88q8 -41 8 -105v-420q-1 -32 -3 -79q0 -26 -1 -52zM220 169h-79v393h79v-393zM554 209h-133v51l133 -6v-45zM591 481h-170q-3 41 -6 83q104 -31 176 -83z" />
</svg>
