<?xml version="1.0" standalone="no"?>
<!DOCTYPE svg PUBLIC "-//W3C//DTD SVG 1.1//EN" "http://www.w3.org/Graphics/SVG/1.1/DTD/svg11.dtd" >
<svg xmlns="http://www.w3.org/2000/svg" xmlns:xlink="http://www.w3.org/1999/xlink" version="1.1" viewBox="-10 0 1034 1024">
  <g transform="matrix(1 0 0 -1 0 820)">
   <path fill="currentColor"
d="M490 291v-355h-360q-34 0 -63 5v-46q27 4 63 5h768q33 0 61 -5v46q-27 -4 -61 -5h-369v355h336q36 0 60 -6v47q-22 -6 -60 -6h-336v341h304q36 0 61 -5v46q-24 -4 -61 -5h-642q-36 0 -62 5v-46q25 4 62 5h299v-341h-330q-27 0 -63 6v-47q21 6 63 6h330zM152 74l-4 -40
q-1 -9 -1 -18q45 4 66 5l164 -1l41 -4q-4 48 -5 94q0 39 3 80q0 12 2 23q-30 -1 -60 -5l-169 1q-6 1 -13 2q-13 0 -29 2q4 -99 5 -103v-36zM189 57v115h186v-115h-186zM162 454q-3 -27 -5 -54q39 4 80 5q135 0 147 -2q15 0 31 -3q-4 45 -5 86q0 60 2 70q0 15 3 34
q-25 -1 -52 -5q-153 0 -174 2q-6 3 -32 3q4 -90 5 -93v-43zM372 549v-108h-173v108h173zM607 207q3 -67 4 -102q-3 -40 -5 -83q15 3 50 4l159 1q28 -1 59 -5q-4 49 -5 75q0 69 2 83q0 18 3 38q-60 -6 -70 -6l-155 1q-9 3 -43 5q0 -4 1 -11zM831 63h-183v113h183v-113z
M807 413l57 -6q-6 57 -6 81q0 58 2 67l4 41q-55 -4 -86 -5q-120 0 -140 2q-6 3 -34 3q1 -30 5 -61q0 -64 -2 -92q-3 -3 -3 -36q54 6 76 6h127zM646 448v107h175v-107h-175z" />
  </g>

</svg>
