<?xml version="1.0" standalone="no"?>
<!DOCTYPE svg PUBLIC "-//W3C//DTD SVG 1.1//EN" "http://www.w3.org/Graphics/SVG/1.1/DTD/svg11.dtd" >
<svg xmlns="http://www.w3.org/2000/svg" xmlns:xlink="http://www.w3.org/1999/xlink" version="1.1" viewBox="-10 0 1010 1000">
   <path fill="currentColor"
d="M690 -10q92 -1 94 10q1 1 -2 5q-16 28 -16 77h73q67 -1 94 -6v73q-24 -6 -88 -6h-79v70h32q42 0 75 -4q-5 28 -6 83v113q0 55 4 80q-29 -6 -123 -6h-173q-17 24 -47 55h276q83 -1 117 -8q-5 58 -12 189q-4 69 -6 89q-3 60 -27 73q-21 17 -118 26q5 -50 -28 -87
q58 10 75 2q21 -9 26 -44q6 -49 10 -186h-147q-4 7 -11 21q-7 12 -10 18q50 24 125 70l-48 53q-60 -55 -101 -79q-34 34 -99 95q-22 -31 -64 -51q81 -21 139 -127h-149q-35 30 -77 57q11 1 33 1q43 -1 44 5q1 1 -3 10q-11 29 -11 56v69h141q77 -3 115 -6v76q-41 -8 -109 -8
h-109q-82 0 -111 6q5 -36 6 -104v-103l-38 28q-9 -47 -44 -60q0 58 4 92h-81q6 -21 6 -80h-89q-1 0 3 70q2 36 3 57h-86q7 -31 8 -123v-422q0 -91 -4 -123q22 5 104 6h47q66 0 91 -6q-6 36 -6 123v401q109 -38 183 -131h-20q-63 -1 -73 4q5 -29 6 -94v-83q0 -49 -1 -66
q-1 -21 -3 -31q21 3 83 4h26v-68h-64q-65 0 -95 6v-71q33 4 93 4h66q0 -40 -1 -56q-1 -20 -3 -34q84 0 87 8q1 2 -3 10q-13 29 -13 72h115q0 -49 -6 -94zM581 145v68h115v-68h-115zM153 155v409h89v-409h-89zM476 264v54h320v-54h-320zM476 367v60h320v-60h-320z" />
</svg>
