<?xml version="1.0" standalone="no"?>
<!DOCTYPE svg PUBLIC "-//W3C//DTD SVG 1.1//EN" "http://www.w3.org/Graphics/SVG/1.1/DTD/svg11.dtd" >
<svg xmlns="http://www.w3.org/2000/svg" xmlns:xlink="http://www.w3.org/1999/xlink" version="1.1" viewBox="-10 0 1010 1000">
   <path fill="currentColor"
d="M655 -4q14 39 16 88h168q42 -3 82 -6q-4 34 -4 59v22q0 53 8 81h-64v60q-52 -7 -125 -8v62q108 0 133 -8v69q-33 -7 -133 -8v68h48q75 -1 135 -10v83q-32 -9 -139 -10h-40q112 103 218 123q-25 15 -54 48q-11 13 -19 22q-31 -17 -70 -47q-15 -11 -25 -19v68
q-30 -8 -121 -8h-16v79h99q103 0 151 -8v79q-43 -7 -143 -8h-240q-134 0 -181 8v-79q17 5 165 8h77v-79h-41q-78 -1 -100 8v-72q-27 25 -114 90q-13 10 -20 15q-32 -38 -84 -47q166 -68 256 -181h-20q-85 1 -117 8v-81q51 9 121 10h40v-66q-95 1 -125 8v-69q35 8 125 8v-62
q-53 0 -109 8v-60h-46q7 -39 8 -81v-22q0 -36 -4 -59q44 4 66 4h178q-10 -45 -28 -78zM69 112q23 3 72 3h101q28 0 66 -3q0 4 -1 12q-3 29 -3 59v341q0 82 8 133h-84q6 -13 6 -42h-89q0 73 2 100h-82q9 -65 10 -159v-377q0 -21 -6 -67zM851 141h-428q1 66 8 90q10 7 67 7
q0 -48 -6 -75q79 2 91 12q0 1 -3 5q-17 17 -18 58h113q0 -53 -6 -77q80 6 85 14q0 2 -4 9q-13 24 -12 54q75 0 105 -7q8 -24 8 -90zM236 175h-93v381h93v-381zM562 294v62h115v-62h-115zM677 411h-115v64h115v-64zM685 538h-127q-42 56 -112 117q12 9 102 10h33v-26
q0 -11 -1 -37q-1 -22 -1 -30q81 1 88 12q1 2 -3 7q-13 21 -13 52v24h16q95 1 115 -8q-66 -70 -97 -121z" />
</svg>
