<?xml version="1.0" standalone="no"?>
<!DOCTYPE svg PUBLIC "-//W3C//DTD SVG 1.1//EN" "http://www.w3.org/Graphics/SVG/1.1/DTD/svg11.dtd" >
<svg xmlns="http://www.w3.org/2000/svg" xmlns:xlink="http://www.w3.org/1999/xlink" version="1.1" viewBox="-10 0 1034 1024">
  <g transform="matrix(1 0 0 -1 0 820)">
   <path fill="currentColor"
d="M500 253q-43 -67 -98 -112q-49 -37 -105 -48q30 -21 47 -39q54 31 99 74q63 63 103 125h183q54 -94 203 -188q12 16 44 44q-121 24 -204 144q132 0 146 -2q3 0 20 -4v48q-9 -3 -12 -3q-24 -1 -54 -3h-121v71q27 0 76 -3q4 0 12 -3v46q-33 -1 -67 -5h-21v73l94 -3
q3 0 11 -3v47q-6 0 -12 -3q-19 -1 -93 -2q0 34 2 44q1 9 10 25h-57l4 -45q0 -18 1 -24h-153q1 30 3 45q0 7 10 24h-56q4 -66 5 -69h-24q-48 0 -69 5v-47q6 3 28 4l65 2v-73q-72 3 -80 5v-46q6 3 25 4q27 0 55 2v-71q-123 0 -152 2q-9 1 -19 4v-48q6 3 26 4zM558 289v71h153
v-71h-153zM711 468v-73h-153v73h153zM613 -74h-189q-24 0 -55 3q-9 0 -14 2v-47q6 3 22 4q6 1 47 2l477 -1q9 0 29 -5v47q-33 -1 -66 -5h-210v131h115q24 0 52 -3l15 -2v46q-33 -1 -67 -5h-115v35q0 12 4 41q1 18 11 33h-58q1 -12 2 -15q3 -75 4 -94q-168 3 -176 5v-46
q9 3 31 3l134 2h7v-131zM359 562q0 -45 -4 -69h46q-6 66 -5 105v6h483q-3 -96 -5 -102h49q-3 33 -5 79q1 31 5 63q-36 -1 -73 -5l-449 1q-19 3 -47 4q4 -42 5 -80v-2zM675 666q1 3 7 8l-15 12q-24 21 -49 41l-40 32q-13 -21 -26 -33q66 -46 102 -85q12 15 21 25zM77 604
q3 -24 3 -36l-5 -554q-1 0 -1 -2h49q-4 19 -5 37l-1 59h135q-3 -78 -5 -95h48q-3 12 -3 29q0 21 -2 42l1 505q0 21 4 49q-72 -6 -93 -6q-60 0 -86 2q-3 1 -42 4zM117 144v452h135v-452h-135z" />
  </g>

</svg>
