<?xml version="1.0" standalone="no"?>
<!DOCTYPE svg PUBLIC "-//W3C//DTD SVG 1.1//EN" "http://www.w3.org/Graphics/SVG/1.1/DTD/svg11.dtd" >
<svg xmlns="http://www.w3.org/2000/svg" xmlns:xlink="http://www.w3.org/1999/xlink" version="1.1" viewBox="-10 0 1034 1024">
  <g transform="matrix(1 0 0 -1 0 820)">
   <path fill="currentColor"
d="M873 273q34 0 60 -4q1 0 6 -1v46q-33 -1 -66 -5l-497 1q-24 3 -28 4v-46q15 3 35 4l229 1q-9 -40 -20 -81l-158 1q-19 3 -52 4q1 -21 2 -36q3 -24 3 -33l-1 -231q-1 -9 -2 -23q0 -7 -2 -13h48q-3 34 -5 70v225h122l-5 -237h47q-4 57 -5 114v123h121v-167q0 -19 -3 -56
q0 -7 -2 -13h47q-6 43 -5 125v111h127v-220q0 -18 -5 -26q-9 -7 -29 -8q-24 0 -55 9q3 -15 15 -38q1 -6 3 -15l59 9q31 6 41 17q9 12 9 47l1 216q0 22 4 50q-36 -1 -71 -5h-208l20 81h220zM364 611q4 -90 5 -94q-3 -34 -5 -70q-1 -1 -1 -3h48q-3 15 -3 13l-3 124h218v-154
q0 -21 -3 -56q0 -9 -2 -14h48q0 7 -2 15q-3 54 -3 76v133h224q0 -78 -3 -116q0 -3 -2 -10h48q-7 88 -4 116l4 52q-16 -1 -34 -3q-22 -3 -32 -3h-201v86h159q25 0 52 -2q3 0 14 -3v46q-6 0 -12 -2q-21 -3 -54 -3l-388 1q-9 1 -14 2q-3 1 -11 2h-2v-46q15 3 33 4l185 1v-86
h-191q-10 0 -36 3q-12 0 -33 3q0 -6 1 -12zM455 472q19 3 44 4h30q30 0 49 -4v41q-15 -3 -49 -4h-29q-28 0 -45 4v-41zM93 146q-3 -33 -3 -55q0 -3 -3 -14h48q0 3 -1 6q0 1 -4 59v33h132l-4 -64q-1 -1 -1 -4h48l-5 68l1 456l4 48q-36 -1 -72 -5q-81 0 -104 2q-6 3 -42 3
q6 -42 6 -69v-464zM130 211v427h132v-427h-132zM455 366q34 4 72 5q28 0 45 -3q3 0 6 -2v41q-15 -3 -49 -4h-29q-28 0 -45 4v-41zM714 371q15 3 44 4h31q33 0 48 -4v41q-12 -4 -48 -5q-36 1 -71 3q-3 1 -4 2v-41zM715 475q15 3 44 4h31q33 0 48 -4v41q-12 -3 -48 -4
q-36 1 -72 3q-1 1 -3 1v-41z" />
  </g>

</svg>
