<?xml version="1.0" standalone="no"?>
<!DOCTYPE svg PUBLIC "-//W3C//DTD SVG 1.1//EN" "http://www.w3.org/Graphics/SVG/1.1/DTD/svg11.dtd" >
<svg xmlns="http://www.w3.org/2000/svg" xmlns:xlink="http://www.w3.org/1999/xlink" version="1.1" viewBox="-10 0 1034 1024">
  <g transform="matrix(1 0 0 -1 0 820)">
   <path fill="currentColor"
d="M84 664l4 -51l-1 -487l-4 -30h46q-6 39 -5 79v13h125q0 -9 -3 -68q0 3 -3 -14h47l-6 61l1 461q0 7 3 15l2 30q-55 -4 -81 -5l-87 1q-1 0 -39 4q0 -4 1 -9zM124 221v414h125v-414h-125zM441 3q49 -58 101 -84q63 -30 159 -36l168 -4l64 3q0 4 2 7q3 15 9 34q1 4 9 11
q-28 -7 -48 -11q-13 0 -95 -7q-48 0 -147 7q-9 1 -15 2v107l205 -1l31 -4v44q-24 -4 -66 -5h-170v96h186q-22 -27 -54 -54q24 -3 46 -16l10 13l44 56q9 12 17 22q6 6 12 15l2 1q-39 -1 -77 -5l-442 1q-12 1 -26 2q-1 0 -18 2v-42q34 4 68 5h196v-229q-46 12 -90 40
q-39 25 -78 84q24 49 26 50q6 9 16 14q-12 6 -23 9q-15 6 -29 15q-6 -39 -33 -87q-36 -66 -102 -117q-39 -27 -73 -42q25 -12 39 -34q108 82 159 157q7 -9 17 -19zM354 515v-10q0 -12 -5 -53h46q0 7 -2 15q-3 15 -3 71v20h503q-1 -42 -3 -84q0 -3 -1 -7q-1 -3 -1 -7h47
q0 6 -3 15q-3 69 -2 79q0 12 5 42l-62 -6h-225v68q234 0 255 -3l25 -3v44q-4 -1 -28 -4l-252 -1q0 48 3 55q1 15 13 25h-59q0 -7 3 -17l2 -63q-223 3 -248 5v-44q66 6 92 6h156v-68l-214 1q-9 1 -47 5q1 -28 5 -58v-23zM841 493q-15 -3 -31 -4q-19 -1 -31 -2h-281
q-10 0 -33 2q-13 0 -32 4q4 -99 5 -104l-1 -98q-3 -12 -4 -42q15 3 53 4l294 1q30 -1 61 -5q-4 48 -5 91q0 103 2 116q0 15 3 37zM610 456v-72h-136v72h136zM474 285v66h136v-66h-136zM648 384v72h152v-72h-152zM800 351v-66h-152v66h152z" />
  </g>

</svg>
