<?xml version="1.0" standalone="no"?>
<!DOCTYPE svg PUBLIC "-//W3C//DTD SVG 1.1//EN" "http://www.w3.org/Graphics/SVG/1.1/DTD/svg11.dtd" >
<svg xmlns="http://www.w3.org/2000/svg" xmlns:xlink="http://www.w3.org/1999/xlink" version="1.1" viewBox="-10 0 1010 1000">
   <path fill="currentColor"
d="M389 22q27 6 121 6h254q79 0 103 -6v72q-30 -6 -99 -6h-97v53h133q84 0 109 -6q-4 21 -4 80t4 81h-74q4 -33 4 -95h-174q0 86 6 125h-84q9 -43 8 -125h-186q1 1 1 25q1 54 5 72h-76q4 -31 5 -88q-1 -56 -5 -75q45 6 117 6h137v-53h-89q-86 0 -119 6v-72zM300 88
q-9 38 -6 107v288q0 49 8 103q120 -138 148 -211l-10 2v-49q23 1 72 1q48 0 59 -1v49q-7 -1 -27 -2h-70q56 12 58 22q-1 3 -9 9q-21 17 -37 41h155q-33 -65 -42 -74l62 -29l47 81l-43 22h150q78 0 108 -6v73q-28 -8 -108 -8h-125v50h86q65 0 101 -6v65q-41 -5 -103 -5h-84
v49h90q66 0 97 -6v66q-21 -6 -95 -6h-92v57h120q82 0 115 -6v72q-30 -6 -115 -6h-346q0 47 4 67h-77q6 -38 6 -111v-214q-35 42 -64 83q-33 -33 -61 -43q8 -6 22 -20h-72q4 -16 4 -32h-79q-3 110 6 149h-78q6 -48 6 -147v-367q0 -66 -6 -107q32 6 113 6q82 0 112 -6z
M226 153h-79v347h79v-347zM815 240v52q-46 -6 -115 0v-52q19 1 60 1t55 -1zM446 244q75 9 125 0v52q-11 -3 -57 -3t-68 3v-52zM817 328v49q-15 -1 -57 -2q-43 1 -60 2v-49q23 1 63 1t54 -1zM623 506h-159v50h159v-50zM623 610h-159v49h159v-49zM623 713h-159v57h159v-57z
" />
</svg>
