<?xml version="1.0" standalone="no"?>
<!DOCTYPE svg PUBLIC "-//W3C//DTD SVG 1.1//EN" "http://www.w3.org/Graphics/SVG/1.1/DTD/svg11.dtd" >
<svg xmlns="http://www.w3.org/2000/svg" xmlns:xlink="http://www.w3.org/1999/xlink" version="1.1" viewBox="-10 0 1034 1024">
  <g transform="matrix(1 0 0 -1 0 820)">
   <path fill="currentColor"
d="M96 117l-5 -67h46q-3 12 -5 62v62h104q0 -42 -5 -83h46q0 9 -2 15q-1 9 -3 51l1 451q0 21 4 45q-31 -1 -63 -5q-63 0 -88 2q-6 3 -35 3q1 -30 5 -62v-474zM132 207v409h104v-409h-104zM890 759q-81 -16 -150 -27l-145 -12q-76 -4 -134 -6l-44 1l-104 6q15 -24 19 -44
q130 0 240 6q102 6 207 18l62 7l83 5q-21 18 -34 46zM357 331q1 -30 5 -63l-1 -328q-4 -22 -26 -38q10 -13 16 -23q0 -1 7 -22q3 1 64 35q1 1 5 2q12 4 115 51q13 6 37 16q28 -30 50 -68q9 12 14 16q6 3 22 16l-71 76q-27 24 -54 53q-18 -18 -34 -26q33 -22 46 -42
q-70 -31 -154 -61v151l179 -1q10 0 46 -5q-4 49 -5 96l1 118l4 47q-16 -1 -30 -2q-27 -3 -51 -4q-126 0 -142 2q-15 3 -43 4zM582 222h-184v70h184v-70zM582 108h-184v82h184v-82zM343 551q4 -99 5 -105q-3 -33 -5 -68q30 3 60 5l452 -1q13 0 42 -4q-6 51 -5 101q1 36 5 72
q-28 -1 -58 -5h-77q15 30 56 81q9 12 24 23l7 7q-31 12 -47 24l-41 -73l-27 -40q-6 -12 -13 -22l-337 1q-15 3 -41 4zM381 417v96h132v-96h-132zM550 417v96h132v-96h-132zM718 416v97h141v-97h-141zM460 622l-43 43q-12 -18 -32 -31q28 -10 92 -87q3 4 27 29q-7 9 -44 46z
M644 603l-44 53q-6 6 -14 15q-6 -6 -12 -11q-6 -6 -21 -12q36 -21 76 -89q12 13 31 27zM848 266q-174 3 -189 5v-45q12 3 18 3q48 3 97 3h74v-296q0 -22 -4 -30q-6 -10 -24 -16q-21 -3 -41 -4q-16 0 -61 12q4 -12 10 -28q3 -6 6 -28q87 3 119 17q33 15 34 60v313q57 0 73 -5
q1 0 5 -1v45q-24 -4 -66 -5h-12v20q0 42 18 67h-62q1 -9 3 -18zM680 155q-7 -7 -23 -18q18 -10 21 -13q10 -9 30 -28q31 -33 52 -62q10 18 30 33q-18 21 -53 56q-9 7 -20 19q-12 12 -28 23q-4 -4 -9 -10v0z" />
  </g>

</svg>
