<?xml version="1.0" standalone="no"?>
<!DOCTYPE svg PUBLIC "-//W3C//DTD SVG 1.1//EN" "http://www.w3.org/Graphics/SVG/1.1/DTD/svg11.dtd" >
<svg xmlns="http://www.w3.org/2000/svg" xmlns:xlink="http://www.w3.org/1999/xlink" version="1.1" viewBox="-10 0 1034 1024">
  <g transform="matrix(1 0 0 -1 0 820)">
   <path fill="currentColor"
d="M460 -96q0 -9 -3 -17q-6 -10 -19 -16q10 -15 16 -25q3 -7 8 -19q21 13 38 26q15 10 30 18q27 15 54 29l20 12l8 58q-33 -31 -116 -80v119q33 30 57 48q9 6 17 15h22q36 -54 60 -82q42 -48 124 -91q19 -9 43 -18l74 -24q18 28 39 49q-69 3 -109 14q-37 10 -79 37
q64 42 98 42q12 0 22 -1q-7 9 -17 20q-12 15 -23 33q-15 -19 -35 -33q-28 -19 -47 -30q-12 -9 -25 -14q-63 49 -89 98l273 -1q9 0 29 -5v37l-12 -3q-18 -1 -55 -2h-133v56q102 0 117 -2q6 0 19 -4v38q-9 -3 -58 -6h-78v47l146 -3q6 0 10 -3v37q-33 -1 -66 -5h-90v42
q75 0 91 -2q15 0 31 -2l-4 56l4 66q-33 -1 -65 -5q-87 0 -110 2q-12 3 -34 3q0 -39 3 -81q-1 -19 -3 -41q9 1 19 2q15 0 32 2v-42h-148v42q18 -1 34 -2q7 0 16 -2q-3 48 -4 75q0 22 4 47q-30 -1 -62 -5q-81 0 -104 2q-12 3 -36 3l4 -57q-1 -25 -3 -52q0 -7 -1 -13l81 4h38
v-42q-127 0 -154 2q-12 3 -18 3v-37q15 6 69 6h103v-47q-103 0 -130 2q-9 3 -13 3q-3 1 -6 1v-38q19 4 35 5l114 1v-56h-146q-36 0 -63 4q-3 1 -5 1v-37q12 6 68 6h158q-45 -39 -138 -85q-64 -27 -137 -33q21 -21 40 -49q7 6 17 8q108 48 153 77v-86zM559 383v-63h-129v63
h129zM546 98v56h148v-56h-148zM546 180v47h148v-47h-148zM680 320v63h136v-63h-136zM307 411q0 -24 -3 -56q0 -6 -3 -14h43q-6 55 -5 114h563l-1 -68q-1 -12 -3 -30q0 -3 -2 -13h44q-3 39 -5 73q1 34 5 70q-60 -4 -69 -5h-236v46l173 -1q21 0 44 -3q-3 48 -4 73q0 22 4 43
q-79 -3 -83 -4h-134v40l258 -1q6 0 37 -4q1 0 4 -2v40q-13 -1 -26 -4l-273 -1q0 40 3 49q1 13 10 24h-54q1 -36 5 -73l-258 1q-24 3 -29 4v-40q15 6 69 7h218v-40q-162 0 -177 2q-19 0 -40 2l4 -53l-4 -63q79 3 82 4h135v-46l-248 1q-19 3 -50 4q6 -63 6 -76zM599 610v-57
h-180v57h180zM814 553h-179v57h179v-57zM93 644q3 -24 3 -36q0 -516 -3 -543q0 -6 -3 -15h48q-3 33 -5 73v40h95q-3 -48 -5 -52v-2h48l-5 68l1 452q0 19 4 48q-85 -4 -122 -5q-30 4 -59 5zM133 199v437h95v-437h-95z" />
  </g>

</svg>
