<?xml version="1.0" standalone="no"?>
<!DOCTYPE svg PUBLIC "-//W3C//DTD SVG 1.1//EN" "http://www.w3.org/Graphics/SVG/1.1/DTD/svg11.dtd" >
<svg xmlns="http://www.w3.org/2000/svg" xmlns:xlink="http://www.w3.org/1999/xlink" version="1.1" viewBox="-10 0 1010 1000">
   <path fill="currentColor"
d="M103 30q59 7 183 8h446q95 0 167 -8q-9 58 -10 149v569q3 94 10 125h-99q8 -23 8 -55h-618q-2 35 6 63h-93q7 -26 8 -63v-639q0 -94 -8 -149zM190 113v629h620v-629h-620zM438 125q79 -1 100 12q0 2 -4 7q-18 20 -18 47v36h85q91 -1 151 -10v77q-49 -7 -149 -8h-87v163
l117 -16v-52q0 -31 -6 -47q73 -1 87 10q0 1 -2 4q-14 22 -14 55v76q0 26 4 49h-73q5 -17 4 -40l-117 16v78q-1 42 36 47h4q99 6 123 -10q20 -20 23 -75q26 25 78 40q-20 83 -58 99q-31 12 -104 15q-67 2 -116 -7q-64 -8 -58 -83v-96l-95 14q-54 6 -75 16q4 -40 4 -67v-68
q-3 -52 -6 -61q82 1 87 6q0 1 -3 6q-11 23 -11 43v68l99 -12v-171h-35q-101 1 -169 8v-77q66 9 171 10h35q1 -92 -8 -102z" />
</svg>
