<?xml version="1.0" standalone="no"?>
<!DOCTYPE svg PUBLIC "-//W3C//DTD SVG 1.1//EN" "http://www.w3.org/Graphics/SVG/1.1/DTD/svg11.dtd" >
<svg xmlns="http://www.w3.org/2000/svg" xmlns:xlink="http://www.w3.org/1999/xlink" version="1.1" viewBox="-10 0 1034 1024">
  <g transform="matrix(1 0 0 -1 0 820)">
   <path fill="currentColor"
d="M313 466l-63 4q-3 0 -6 1v-47q18 6 69 6h94l-30 -77q-18 -45 -42 -84q30 -9 76 -28q49 -18 92 -37q-42 -33 -128 -72q-40 -15 -57 -19q-25 -6 -74 -10q15 -15 27 -30l13 -19q43 15 103 41q72 30 155 92q75 -36 136 -70l72 -44q6 24 20 40q-18 12 -39 22l-159 81
q40 58 59 95q18 39 43 119q87 0 103 -2q6 0 22 -4v47q-33 -1 -67 -5h-270q16 52 31 82q15 39 23 50q6 7 29 21q-19 6 -37 11q-15 3 -34 12q0 -46 -52 -176h-109zM401 319l33 82q6 13 12 29h187q-27 -120 -98 -197q-136 51 -146 58q6 15 12 28zM134 -64l-4 -65l-1 -6h47
q-3 63 -4 85h672v-4q0 -24 -3 -56q0 -4 -3 -14h49q0 6 -2 14q-1 27 -3 56l1 718l4 51l-75 -6l-634 1q-1 0 -49 5q4 -60 5 -72v-707zM172 -14v687h672v-687h-672z" />
  </g>

</svg>
