<?xml version="1.0" standalone="no"?>
<!DOCTYPE svg PUBLIC "-//W3C//DTD SVG 1.1//EN" "http://www.w3.org/Graphics/SVG/1.1/DTD/svg11.dtd" >
<svg xmlns="http://www.w3.org/2000/svg" xmlns:xlink="http://www.w3.org/1999/xlink" version="1.1" viewBox="-10 0 1010 1000">
   <path fill="currentColor"
d="M95 28q45 6 203 6h387q149 -3 216 -6q-8 62 -8 212v518q1 78 10 135h-95q0 -11 3 -42q1 -10 1 -15h-631q-1 37 4 53h-90q6 -42 8 -143v-527q-2 -150 -8 -191zM183 110v650h630v-650h-630zM367 119q11 4 35 12q77 26 68 30q-1 1 -5 3q-28 12 -68 65h210q110 -2 155 -8
q-12 111 -29 299q-6 64 -7 76q-7 71 -36 90q-23 22 -123 33q1 -48 -41 -98q70 12 94 -1q26 -11 31 -58q18 -133 26 -270h-66q-27 287 -248 421q-33 -34 -83 -52q224 -72 264 -369h-60q-32 148 -204 288q-22 -29 -74 -52q154 -62 215 -238h-70q-75 90 -101 117
q-26 -34 -58 -49q136 -124 175 -239z" />
</svg>
