<?xml version="1.0" standalone="no"?>
<!DOCTYPE svg PUBLIC "-//W3C//DTD SVG 1.1//EN" "http://www.w3.org/Graphics/SVG/1.1/DTD/svg11.dtd" >
<svg xmlns="http://www.w3.org/2000/svg" xmlns:xlink="http://www.w3.org/1999/xlink" version="1.1" viewBox="-10 0 1010 1000">
   <path fill="currentColor"
d="M202 108v634h602v-634h-602zM462 135q96 0 94 16q0 5 -4 12q-8 15 -8 40v55h61q83 -1 133 -4v76q-47 -3 -131 -4h-65v85l51 -38q86 76 167 185l-75 50q-69 -112 -143 -181v121q0 71 4 159h-80q4 -77 4 -169v-165q-48 133 -172 268q-24 -27 -84 -45q140 -113 219 -270h-28
q-79 1 -141 4v-76q59 3 141 4h63q0 -78 -6 -123zM111 32l121 4h552l111 -4l-4 107v659q0 66 4 95h-95q4 -25 4 -79h-604q-1 48 4 65h-93q4 -39 4 -111v-276v-355q0 -8 -1 -42q-2 -38 -3 -63z" />
</svg>
