<?xml version="1.0" standalone="no"?>
<!DOCTYPE svg PUBLIC "-//W3C//DTD SVG 1.1//EN" "http://www.w3.org/Graphics/SVG/1.1/DTD/svg11.dtd" >
<svg xmlns="http://www.w3.org/2000/svg" xmlns:xlink="http://www.w3.org/1999/xlink" version="1.1" viewBox="-10 0 1010 1000">
   <path fill="currentColor"
d="M345 2q98 9 107 22q0 3 -10 14q-40 39 -67 97h395q8 0 42 -1q38 -2 63 -3q-1 10 -2 31q-4 46 -4 61v541q-1 117 8 125h-99q6 -14 6 -71h-560q0 68 6 81h-97q5 -10 6 -43q2 -32 2 -112v-519q-1 -50 -8 -96q3 -1 40 2q44 4 59 4h62q31 -62 51 -133zM224 209v535h562v-535
h-562zM427 229q85 25 91 39q-1 4 -11 11q-28 20 -47 51h167q49 0 64 -1q19 0 45 -3q-43 139 -119 240q46 33 101 83l-59 54q-55 -52 -99 -86q-83 57 -231 98q-15 -43 -53 -78q158 -17 226 -65q-65 -45 -119 -74l57 -53q57 32 120 77q40 -44 71 -131h-204q-44 66 -106 129
q-33 -24 -73 -33q115 -91 179 -258z" />
</svg>
