<?xml version="1.0" standalone="no"?>
<!DOCTYPE svg PUBLIC "-//W3C//DTD SVG 1.1//EN" "http://www.w3.org/Graphics/SVG/1.1/DTD/svg11.dtd" >
<svg xmlns="http://www.w3.org/2000/svg" xmlns:xlink="http://www.w3.org/1999/xlink" version="1.1" viewBox="-10 0 1010 1000">
   <path fill="currentColor"
d="M103 24q72 6 302 6h224q239 -3 276 -8q-5 74 -8 216v500q1 100 10 159q-51 -9 -101 0q6 -29 6 -77h-616q-1 49 4 71q-46 -12 -99 0q11 -63 12 -145v-529q0 -84 -9 -184q-1 -6 -1 -9zM196 104v232q161 -52 268 -232h-268zM813 104h-325q75 26 74 37q0 2 -5 4q-6 3 -9 6
q57 113 265 179v-226zM500 193q-106 106 -147 137q4 1 12 2q87 14 83 22q1 3 -3 7q-20 24 -20 100q117 -49 174 -96q62 49 70 70q-4 5 -21 10q-79 20 -223 79v58q-1 27 14 35q13 8 59 8h81q32 1 45 -18q12 -15 23 -75q17 19 50 38q17 9 29 16q-25 74 -49 91q-21 20 -86 18
h-123q-84 1 -98 -13q-20 -11 -19 -70v-165q-3 -91 -6 -109q-36 29 -93 71q-19 -30 -56 -59v394h617v-412q-30 16 -67 69q-175 -89 -246 -208z" />
</svg>
