<?xml version="1.0" standalone="no"?>
<!DOCTYPE svg PUBLIC "-//W3C//DTD SVG 1.1//EN" "http://www.w3.org/Graphics/SVG/1.1/DTD/svg11.dtd" >
<svg xmlns="http://www.w3.org/2000/svg" xmlns:xlink="http://www.w3.org/1999/xlink" version="1.1" viewBox="-10 0 1034 1024">
  <g transform="matrix(1 0 0 -1 0 820)">
   <path fill="currentColor"
d="M481 118l-222 3q-3 0 -19 3v-47q9 0 19 2l49 4l440 -1q15 0 42 -5v47q-19 -6 -66 -6h-202v222q156 0 176 -2q19 0 29 -3v46q-24 -1 -49 -5h-156v152l234 -4q3 0 6 -2v47q-24 -4 -64 -5l-426 3q-9 0 -17 2v-47q25 6 67 6h159v-152l-173 3q-9 0 -17 2v-46q54 4 83 5h107
v-222zM682 148q12 18 34 31q-37 60 -99 131q-9 -9 -14 -15q-9 -9 -22 -14q57 -42 101 -133zM121 725q6 -36 6 -68l-1 -784q-1 -7 -2 -16q0 -3 -3 -15h49q-6 30 -6 59v32h700l-4 -77q-1 -3 -3 -10h49q0 7 -2 15q0 3 -4 51l1 755q0 22 5 58q-33 -1 -65 -5l-672 1q-19 3 -48 4z
M864 684v-715h-700v715h700z" />
  </g>

</svg>
