<?xml version="1.0" standalone="no"?>
<!DOCTYPE svg PUBLIC "-//W3C//DTD SVG 1.1//EN" "http://www.w3.org/Graphics/SVG/1.1/DTD/svg11.dtd" >
<svg xmlns="http://www.w3.org/2000/svg" xmlns:xlink="http://www.w3.org/1999/xlink" version="1.1" viewBox="-10 0 1034 1024">
  <g transform="matrix(1 0 0 -1 0 820)">
   <path fill="currentColor"
d="M477 295l-209 1q-18 0 -38 4v-46q31 4 69 5h178l-5 -230h49q-6 55 -5 89v141h220q0 -33 -6 -65q-6 -31 -25 -44q-19 -9 -44 -10q-18 0 -61 7q7 -9 13 -20q3 -10 10 -30q78 6 110 25q27 16 35 70q3 28 7 56q1 13 2 21q3 19 5 31q-54 -4 -70 -5h-196v97l205 -3q4 0 9 -2v46
q-30 -4 -64 -5h-150v85l224 -3q3 0 12 -2v47q-21 -6 -65 -6h-171v28q0 21 3 33q1 15 14 33h-61q4 -49 5 -82v-12l-184 1q-9 1 -21 2q-7 0 -18 3v-47q54 4 109 5h114v-85l-159 1q-18 0 -39 4v-46q45 4 85 5h113v-97zM128 -79q0 -16 -5 -67h48q-4 24 -5 49l-1 33h690
q-3 -36 -5 -74h48q-4 49 -5 66l1 744q0 15 4 44q-34 -1 -69 -5l-658 1q-19 3 -48 4q1 -30 5 -62v-733zM855 677v-704h-690v704h690z" />
  </g>

</svg>
