<?xml version="1.0" standalone="no"?>
<!DOCTYPE svg PUBLIC "-//W3C//DTD SVG 1.1//EN" "http://www.w3.org/Graphics/SVG/1.1/DTD/svg11.dtd" >
<svg xmlns="http://www.w3.org/2000/svg" xmlns:xlink="http://www.w3.org/1999/xlink" version="1.1" viewBox="-10 0 1010 1000">
   <path fill="currentColor"
d="M101 18q37 6 89 8q50 2 139 2h338q161 -1 242 -10q-7 112 -8 236v486q0 10 1 28q1 104 9 123h-86q0 -8 2 -30q1 -17 2 -27h-650q0 43 6 61h-90q0 -2 1 -6q11 -74 11 -137v-525q-1 -162 -6 -209zM829 88h-650v686h650v-686zM454 94q80 1 94 10q1 1 -2 7q-14 22 -14 52h147
q71 -1 109 -8v66q-36 -6 -107 -6h-149v35h115q52 0 101 -8v64q-24 -4 -103 -4h-113v36h172q77 0 117 -4v59q-55 -4 -115 -4h-424q-40 0 -57 1q-20 1 -38 3v-59q45 4 97 4h176v-36h-115q-61 0 -97 4v-62q50 6 99 6h113v-35h-121q-67 0 -117 10v-70q26 8 115 8h123
q1 -47 -6 -69zM262 409q61 6 117 6h258q69 0 117 -6q-7 14 -8 56v214q1 84 -123 89q0 -36 -46 -73q95 4 96 -20v-30h-332v38q0 46 4 69h-81q5 -18 6 -95v-192q0 -44 -8 -56zM675 467h-334v37h334v-37zM341 556v38h332v-38h-332z" />
</svg>
