<?xml version="1.0" standalone="no"?>
<!DOCTYPE svg PUBLIC "-//W3C//DTD SVG 1.1//EN" "http://www.w3.org/Graphics/SVG/1.1/DTD/svg11.dtd" >
<svg xmlns="http://www.w3.org/2000/svg" xmlns:xlink="http://www.w3.org/1999/xlink" version="1.1" viewBox="-10 0 1034 1024">
  <g transform="matrix(1 0 0 -1 0 820)">
   <path fill="currentColor"
d="M517 409q60 -30 119 -56q87 -33 187 -51l69 -12q21 -4 42 -9q12 30 21 43q3 6 6 10l-39 -1q-75 0 -182 28q-99 27 -189 74q55 45 87 72q25 22 55 54q51 54 114 145q-33 -1 -66 -5l-574 1q-24 3 -38 4v-46q42 6 69 5h51q48 -66 100 -120q54 -52 123 -110q-82 -48 -216 -88
q-54 -15 -97 -24q-42 -4 -95 -7q15 -16 22 -28q6 -9 12 -22q70 15 168 42q60 18 104 35q45 16 101 45zM728 665q-34 -51 -98 -114q-61 -57 -117 -92q-123 78 -215 206h430zM486 -54l-368 1q-18 3 -28 4v-46q39 4 61 5l750 -1q15 0 27 -4v46q-30 -1 -61 -5h-342v190h218
q39 0 60 -5v46q-30 -1 -60 -5h-218q0 102 3 105q3 21 12 31h-59q0 -9 1 -11q3 -67 4 -106v-19l-249 1q-18 3 -28 4v-46q39 4 61 5h216v-190z" />
  </g>

</svg>
