<?xml version="1.0" standalone="no"?>
<!DOCTYPE svg PUBLIC "-//W3C//DTD SVG 1.1//EN" "http://www.w3.org/Graphics/SVG/1.1/DTD/svg11.dtd" >
<svg xmlns="http://www.w3.org/2000/svg" xmlns:xlink="http://www.w3.org/1999/xlink" version="1.1" viewBox="-10 0 1034 1024">
  <g transform="matrix(1 0 0 -1 0 820)">
   <path fill="currentColor"
d="M500 387v-440l-392 1q-12 0 -29 4v-46q39 4 62 5l774 -1q16 0 33 -4v46q-27 -4 -62 -5h-347v440h269q36 0 61 -5v46q-30 -1 -61 -5h-269v229q0 9 2 27q3 24 12 37h-58q0 -9 1 -11l4 -53v-229l-294 1q-18 3 -28 4v-46q39 4 61 5h261z" />
  </g>

</svg>
