<?xml version="1.0" standalone="no"?>
<!DOCTYPE svg PUBLIC "-//W3C//DTD SVG 1.1//EN" "http://www.w3.org/Graphics/SVG/1.1/DTD/svg11.dtd" >
<svg xmlns="http://www.w3.org/2000/svg" xmlns:xlink="http://www.w3.org/1999/xlink" version="1.1" viewBox="-10 0 1010 1000">
   <path fill="currentColor"
d="M913 16q-9 54 -10 207v541q1 87 8 141h-99q4 -15 7 -51h-642q0 32 6 53h-104q11 -51 14 -163v-496q1 -212 -10 -232q54 5 244 8h312q220 -1 274 -8zM819 90h-642v698h642v-698zM246 135q31 6 137 6h206q92 0 147 -6q0 7 -1 31q-1 27 -1 35v32q0 54 6 77q-28 -6 -129 -8
h-242q-96 2 -123 6q3 -27 6 -71v-34q-3 -54 -6 -68zM534 187h-86v69h86v-69zM675 187h-90v69h90v-69zM397 187h-82v69h82v-69zM782 342v65q-40 -7 -111 -8h-350q-66 1 -115 6v-63q31 6 115 6h346q72 -1 115 -6zM708 439q-3 30 -4 59v28q1 5 0 23q-2 31 2 41l-33 -4
q36 24 51 39q-3 4 -11 5q-30 3 -70 41l113 58l-60 43q-60 -48 -220 -129l36 -41q17 9 46 24q44 24 37 19q12 -12 36 -33q24 -22 28 -26h-207q-6 3 -18 17q-6 6 -9 10v94q31 -15 73 -36q-5 28 -2 56q-80 28 -133 57q-9 -30 -30 -55q30 -7 35 -21q8 -11 7 -65q-59 51 -133 88
q-9 -17 -43 -45l-3 -3q113 -32 181 -97h-42q-52 0 -67 6q3 -24 6 -62v-38v-8q1 -30 -4 -47q25 3 157 6h103q148 -1 178 -4zM341 487v53h292v-53h-292z" />
</svg>
