<?xml version="1.0" standalone="no"?>
<!DOCTYPE svg PUBLIC "-//W3C//DTD SVG 1.1//EN" "http://www.w3.org/Graphics/SVG/1.1/DTD/svg11.dtd" >
<svg xmlns="http://www.w3.org/2000/svg" xmlns:xlink="http://www.w3.org/1999/xlink" version="1.1" viewBox="-10 0 1034 1024">
  <g transform="matrix(1 0 0 -1 0 820)">
   <path fill="currentColor"
d="M888 546q39 0 62 -4l2 -1v46q-12 -3 -23 -4l-364 -1q6 15 14 30q30 73 41 91q12 21 33 39q-28 9 -64 25q-6 -43 -34 -108q-48 -111 -120 -207q-43 -58 -96 -88q30 -9 57 -24q6 6 15 16q69 81 135 190h342zM530 371q-42 0 -64 6v-47q12 3 37 4l279 1l-120 -133l-98 -114
q-36 -43 -55 -75q-30 -48 -31 -81q0 -34 34 -53q30 -15 117 -15l136 1q45 0 84 4q66 9 94 67q12 25 29 74q-22 7 -55 24v-16q0 -54 -19 -78q-21 -30 -91 -35l-154 -3q-78 0 -106 10q-24 12 -25 29q0 12 20 44q30 52 35 56q4 9 57 71q61 73 138 157q66 66 71 70q18 16 43 38
q-72 -6 -91 -6h-265zM280 65q-10 -1 -23 -8v385q126 0 144 -3q3 0 9 -2v47q-7 -3 -13 -4q-12 0 -50 -2h-90v185q0 12 2 28q1 22 11 38h-57q3 -9 3 -16q1 -27 2 -50v-185h-79q-36 0 -52 3q-3 0 -13 3v-47q7 3 55 5h89v-395q-109 -40 -160 -44q9 -15 12 -22q4 -12 13 -35
q6 3 26 15q15 4 49 20q6 0 26 10l24 8l227 78q0 27 3 53q-34 -21 -115 -50z" />
  </g>

</svg>
