<?xml version="1.0" standalone="no"?>
<!DOCTYPE svg PUBLIC "-//W3C//DTD SVG 1.1//EN" "http://www.w3.org/Graphics/SVG/1.1/DTD/svg11.dtd" >
<svg xmlns="http://www.w3.org/2000/svg" xmlns:xlink="http://www.w3.org/1999/xlink" version="1.1" viewBox="-10 0 1010 1000">
   <path fill="currentColor"
d="M183 10q105 5 113 14q0 1 -3 7q-23 40 -23 102v129q51 2 119 -8v92q-42 -8 -119 -8v289q82 -22 153 -57l-8 93q-344 104 -338 119l-37 -103q64 -3 150 -32v-307q-76 -3 -128 8v-94q39 7 128 8v-135q1 -86 -7 -117zM435 62q42 7 152 8h135q120 -1 165 -8v89
q-46 -6 -161 -6h-137q-103 0 -154 10v-93zM944 274v89q-54 -6 -190 -7h-121l-38 152h101q90 0 181 -8q-2 12 -5 35q-8 48 -9 69q-17 208 -69 234q-59 34 -171 47q-9 -66 -56 -113q47 10 100 9q49 -1 65 -13q39 -38 50 -188h-147q-90 0 -147 6q19 -43 40 -117l26 -115
q-123 -1 -145 8v-90q56 9 153 10h192q137 1 190 -8z" />
</svg>
