<?xml version="1.0" standalone="no"?>
<!DOCTYPE svg PUBLIC "-//W3C//DTD SVG 1.1//EN" "http://www.w3.org/Graphics/SVG/1.1/DTD/svg11.dtd" >
<svg xmlns="http://www.w3.org/2000/svg" xmlns:xlink="http://www.w3.org/1999/xlink" version="1.1" viewBox="-10 0 1010 1000">
   <path fill="currentColor"
d="M192 4q102 3 100 10q1 2 -2 8q-16 35 -16 95v133q83 0 137 -6v78q-60 -6 -137 -6v290q97 -33 168 -64q-6 25 0 79q-354 117 -382 141q-3 -9 -13 -36q-13 -33 -21 -55q104 -20 174 -44v-311q-116 -1 -160 8v-82q71 8 160 8v-131q0 -47 -8 -115zM552 0q107 4 111 12
q1 2 -4 7q-35 36 -78 144h246q53 -3 111 -10v89q-55 -9 -111 -9h-271q-15 26 -40 65q-19 32 -30 50q41 8 93 8h171q38 0 101 -8v89q-83 -6 -240 216q-65 89 -59 131q4 42 79 42h145q60 1 77 -25q20 -23 22 -106q44 40 87 55q-19 86 -45 115q-25 31 -78 30h-242
q-112 -1 -128 -82q-12 -81 81 -203q5 -6 14 -20q70 -100 148 -165h-129q-61 -3 -103 6v-68q-9 14 -28 44q-16 25 -25 38q-38 -31 -84 -38q166 -159 209 -407z" />
</svg>
