<?xml version="1.0" standalone="no"?>
<!DOCTYPE svg PUBLIC "-//W3C//DTD SVG 1.1//EN" "http://www.w3.org/Graphics/SVG/1.1/DTD/svg11.dtd" >
<svg xmlns="http://www.w3.org/2000/svg" xmlns:xlink="http://www.w3.org/1999/xlink" version="1.1" viewBox="-10 0 1010 1000">
   <path fill="currentColor"
d="M161 -10q103 9 109 18q0 2 -4 8q-20 32 -20 88v158q85 -1 133 -8v88q-52 -7 -133 -8v274q3 -1 9 -4q74 -29 114 -48v91q-204 54 -304 97l-25 -93q57 -5 125 -24v-293q-84 1 -123 10v-90q46 8 123 8v-152q0 -74 -4 -120zM865 0q48 60 62 96q-1 2 -16 2q-44 -2 -90 4
q-125 15 -311 27v123h169q131 0 200 -6q-54 306 -135 423q89 95 240 147q-2 2 -8 6q-46 34 -79 75q-144 -91 -207 -157q-103 96 -214 165q-36 -47 -83 -69q153 -55 250 -163q-70 -113 -119 -325q26 -3 53 -24h-65q9 378 -185 569q-41 -32 -97 -39q110 -85 159 -209
q26 -68 36 -185q10 -120 6 -315q0 -25 -6 -91q224 14 440 -54zM601 324q32 170 91 286q50 -100 84 -286h-175z" />
</svg>
