<?xml version="1.0" standalone="no"?>
<!DOCTYPE svg PUBLIC "-//W3C//DTD SVG 1.1//EN" "http://www.w3.org/Graphics/SVG/1.1/DTD/svg11.dtd" >
<svg xmlns="http://www.w3.org/2000/svg" xmlns:xlink="http://www.w3.org/1999/xlink" version="1.1" viewBox="-10 0 1010 1000">
   <path fill="currentColor"
d="M173 8q86 -2 101 8q0 2 -4 9q-18 35 -18 67v170h22q63 0 111 -8v88q-48 -8 -111 -8h-22v266q25 -8 84 -32q24 -10 35 -14l2 79q-191 56 -286 119l-37 -97q70 -9 131 -34v-287h-30q-60 1 -97 8v-88q34 7 97 8h30v-174q-1 -51 -8 -80zM857 34q-59 176 -95 252h67
q48 0 80 -8q-1 3 -5 16q-90 295 -158 385q109 82 226 115q-21 21 -49 65q-10 16 -14 22q-114 -52 -213 -150q-84 83 -212 154q-9 -10 -23 -25q-39 -46 -52 -50q141 -36 242 -133q-94 -174 -123 -276q-18 263 -222 474q-10 -6 -25 -16q-37 -25 -71 -37q160 -115 203 -247
q49 -124 51 -462q-71 2 -91 8v-87q2 0 14 2q48 6 83 6h264q58 0 114 -7q8 -1 9 -1zM742 113h-202q-3 192 -12 270l79 -12q25 135 89 248q49 -75 94 -229q8 -25 10 -32h-159q93 -198 101 -245z" />
</svg>
