<?xml version="1.0" standalone="no"?>
<!DOCTYPE svg PUBLIC "-//W3C//DTD SVG 1.1//EN" "http://www.w3.org/Graphics/SVG/1.1/DTD/svg11.dtd" >
<svg xmlns="http://www.w3.org/2000/svg" xmlns:xlink="http://www.w3.org/1999/xlink" version="1.1" viewBox="-10 0 1010 1000">
   <path fill="currentColor"
d="M619 0q3 3 4 10q1 29 32 68q128 158 317 192q-39 41 -65 93q-85 -42 -133 -77q-19 187 -40 214q-21 43 -147 56q-9 -59 -47 -99q95 18 115 -8q23 -35 26 -123h-215q-53 196 -291 252q-23 -47 -78 -80q223 -7 282 -172q-119 -1 -147 12v-44q-42 36 -121 85
q-39 -46 -75 -63q216 -85 307 -306q110 39 119 52q1 4 -11 11q-29 17 -50 42q-28 37 -117 133q49 5 145 6h117q121 0 168 -8q-97 -71 -188 -208q84 -46 93 -38zM442 492q90 6 108 14q0 1 -3 5q-17 24 -17 73v26h160q80 -1 161 -14v89q-46 -7 -159 -8h-162v115h218
q128 -1 183 -10v93q-56 -7 -181 -8h-514q-126 1 -174 10v-95q69 8 172 10h216v-115h-156q-101 -1 -141 8v-87q71 12 145 12h152v-28q0 -53 -8 -90z" />
</svg>
