<?xml version="1.0" standalone="no"?>
<!DOCTYPE svg PUBLIC "-//W3C//DTD SVG 1.1//EN" "http://www.w3.org/Graphics/SVG/1.1/DTD/svg11.dtd" >
<svg xmlns="http://www.w3.org/2000/svg" xmlns:xlink="http://www.w3.org/1999/xlink" version="1.1" viewBox="-10 0 1010 1000">
   <path fill="currentColor"
d="M560 8q83 7 107 20q1 6 -11 15q-22 17 -29 39q-11 31 -30 77q-7 16 -10 24h183q125 0 155 -6q0 5 -2 22q-8 66 -8 83q-1 44 -3 140q-5 363 -29 394q-28 63 -187 75q-11 -62 -39 -105q103 9 135 -16q34 -38 35 -238v-282h-267q-32 57 -90 152q-11 17 -16 25
q-25 -13 -89 -28q125 -128 195 -391zM190 38q89 1 98 12q2 4 -4 14q-12 22 -12 46v150h41q19 0 69 -6q15 -1 23 -2v84q-12 -6 -90 -8h-43v305q4 -1 12 -4q81 -30 127 -51l4 85q-13 4 -44 13q-42 11 -65 19q-184 64 -225 93l-29 -101q106 -22 144 -34v-325h-43q-42 0 -90 6
v-80q22 5 90 6h43v-150q-1 -44 -6 -72zM615 318q50 77 83 149l-73 33q-29 -77 -77 -142zM764 514l6 84q-188 56 -296 127l-32 -92q124 -28 322 -119z" />
</svg>
