<?xml version="1.0" standalone="no"?>
<!DOCTYPE svg PUBLIC "-//W3C//DTD SVG 1.1//EN" "http://www.w3.org/Graphics/SVG/1.1/DTD/svg11.dtd" >
<svg xmlns="http://www.w3.org/2000/svg" xmlns:xlink="http://www.w3.org/1999/xlink" version="1.1" viewBox="-10 0 1010 1000">
   <path fill="currentColor"
d="M556 -12q10 0 31 1q85 2 82 9q0 5 -6 14q-11 14 -12 28v6q-4 38 -8 127h93q49 0 98 -6q13 -1 19 -2q-10 40 -8 115v177q78 0 113 -8v87q-55 -8 -129 -8h-141q40 231 278 290q-56 40 -79 85q-237 -99 -268 -381q-43 242 -311 387q-14 -12 -34 -29q-34 -34 -64 -42
q266 -68 330 -314h-52q-77 0 -137 8v-83q50 8 137 8h64q10 -133 11 -215h-47q-62 0 -117 8v-85q13 1 37 3q47 5 82 5h47q0 -128 -9 -185zM171 0q95 2 109 12q0 3 -5 10q-21 31 -21 82v158q75 0 127 -8v100q-30 -9 -127 -8v269q84 -19 149 -45l-18 93q-195 38 -331 95
l-30 -103q62 0 153 -22v-287h-26q-41 0 -95 6q-14 2 -20 2v-100q41 8 109 8h32v-162q0 -48 -5 -94q-1 -4 -1 -6zM641 242q-2 27 -4 88q-2 89 -6 127h141v-215h-131z" />
</svg>
