<?xml version="1.0" standalone="no"?>
<!DOCTYPE svg PUBLIC "-//W3C//DTD SVG 1.1//EN" "http://www.w3.org/Graphics/SVG/1.1/DTD/svg11.dtd" >
<svg xmlns="http://www.w3.org/2000/svg" xmlns:xlink="http://www.w3.org/1999/xlink" version="1.1" viewBox="-10 0 1034 1024">
  <g transform="matrix(1 0 0 -1 0 820)">
   <path fill="currentColor"
d="M149 706q0 -1 2 -12q3 -21 3 -59v-290q0 -42 -5 -68h48l-4 128l1 263q0 16 8 29q0 4 4 9h-57zM319 745l6 -70l-1 -398q-1 -12 -2 -25l-3 -17h47q-3 27 -5 53l1 415q0 19 9 42h-52zM490 687q-39 0 -66 5v-48q54 4 75 5q36 -72 61 -111q25 -40 82 -104q-24 -25 -106 -72
q-39 -21 -69 -34q-27 -9 -70 -18q24 -15 43 -42q126 57 237 137q51 -45 122 -85q69 -36 118 -59q19 30 44 46q-99 9 -259 124q42 43 87 105q19 28 36 57l53 99q-42 -1 -85 -5h-303zM808 649q-54 -111 -136 -189q-42 42 -79 98q-30 45 -49 91h264zM67 -109q12 4 31 5l784 1
q30 0 69 -6v47q-34 -1 -69 -5h-356v179h239q33 0 71 -6v47q-36 -1 -71 -5h-239v61q0 37 12 58h-58q6 -42 6 -64v-55h-226q-22 0 -63 5v-47l63 6h226v-179l-389 1q-12 3 -30 4v-47z" />
  </g>

</svg>
