<?xml version="1.0" standalone="no"?>
<!DOCTYPE svg PUBLIC "-//W3C//DTD SVG 1.1//EN" "http://www.w3.org/Graphics/SVG/1.1/DTD/svg11.dtd" >
<svg xmlns="http://www.w3.org/2000/svg" xmlns:xlink="http://www.w3.org/1999/xlink" version="1.1" viewBox="-10 0 1010 1000">
   <path fill="currentColor"
d="M179 2q81 6 107 22q0 2 -4 9q-21 33 -24 80v131h36q28 0 86 -6q13 -1 15 -1v85q-5 -2 -54 -5q-42 -2 -49 -1h-34v276q37 -12 124 -44l15 -6l8 83q-202 54 -322 119l-41 -97q53 -7 145 -35v-296h-28q-63 0 -105 8v-87q1 0 9 1q49 6 96 6h28v-166q-1 -48 -8 -76zM905 44
q-3 14 -6 53q-3 36 -2 48v347q0 81 8 131h-90q9 -61 10 -146v-354h-309v350q4 127 10 150h-89q2 -10 5 -73q3 -60 2 -73v-344q0 -42 -7 -89q45 8 95 8h278q44 1 95 -8zM617 225q97 13 115 27q1 3 -4 8q-25 27 -26 94q-3 242 -66 349q-59 112 -233 188q-18 -43 -74 -79
q179 -55 234 -150q62 -93 60 -320q0 -71 -6 -117zM742 641l222 169l-67 73q-76 -93 -210 -180z" />
</svg>
