<?xml version="1.0" standalone="no"?>
<!DOCTYPE svg PUBLIC "-//W3C//DTD SVG 1.1//EN" "http://www.w3.org/Graphics/SVG/1.1/DTD/svg11.dtd" >
<svg xmlns="http://www.w3.org/2000/svg" xmlns:xlink="http://www.w3.org/1999/xlink" version="1.1" viewBox="-10 0 1034 1024">
  <g transform="matrix(1 0 0 -1 0 820)">
   <path fill="currentColor"
d="M92 -85q42 6 70 6l724 -1q24 -1 49 -5v47q-72 -6 -74 -6h-332v146l242 -1q19 0 40 -5v46q-18 -1 -21 -2q-24 -1 -37 -3h-223q0 52 2 63q0 21 4 30q0 7 5 14h-55l6 -82v-25l-210 1q-19 3 -47 4v-46q9 3 65 6h192v-146h-330q-36 0 -70 6v-47zM220 746q-10 0 -71 5
q1 -37 5 -77l-1 -446l-5 -37h48q-4 39 -5 72v448h199q-19 -30 -42 -60l-61 -84q34 -24 50 -40q57 -54 57 -106q0 -49 -84 -50q-19 0 -50 5q16 -27 24 -55q57 3 89 16q63 21 63 82q0 54 -49 111q-12 15 -48 47l135 174q-120 -4 -122 -5h-132zM315 247q33 -18 48 -44
q123 79 173 133q72 81 113 223q31 -120 85 -201q61 -88 164 -155q16 21 50 41q-57 18 -103 55q-81 69 -132 183q-39 93 -50 191q0 6 -1 16q0 42 12 88q-21 -3 -32 -3q-13 0 -25 2q4 -45 5 -85q0 -73 -16 -136q-21 -93 -76 -163q-51 -66 -133 -113q-36 -19 -82 -32v0z" />
  </g>

</svg>
