<?xml version="1.0" standalone="no"?>
<!DOCTYPE svg PUBLIC "-//W3C//DTD SVG 1.1//EN" "http://www.w3.org/Graphics/SVG/1.1/DTD/svg11.dtd" >
<svg xmlns="http://www.w3.org/2000/svg" xmlns:xlink="http://www.w3.org/1999/xlink" version="1.1" viewBox="-10 0 1034 1024">
  <g transform="matrix(1 0 0 -1 0 820)">
   <path fill="currentColor"
d="M61 429q54 4 77 5h74v-337q-16 -7 -33 -14q-18 -6 -52 -16q-39 -10 -66 -14q15 -18 33 -54q45 22 95 44q1 1 6 2q9 3 171 71q27 12 52 25l3 54q-33 -24 -64 -40q-36 -16 -106 -45v324l145 -5v46q-43 -4 -80 -5h-65v201q0 28 12 60h-56q4 -45 5 -74v-187h-85q-21 0 -48 3
q-3 0 -18 2v-46zM341 9q25 6 70 6h335q28 0 71 -6v49q-19 -1 -23 -2q-25 -1 -38 -3l-373 1q-12 1 -26 2q-1 0 -16 2v-49zM480 275q0 -9 -5 -72q21 1 42 3q27 3 38 3h349q-3 -33 -14 -210q-1 -4 -1 -11q0 -19 -4 -35q-7 -49 -40 -62q-25 -9 -64 -9q-21 0 -78 10
q15 -30 16 -37q3 -9 6 -20q76 3 122 16q42 12 59 36q15 25 22 88l8 105q6 99 15 170l-71 -6h-361v352h303l1 -33q0 -39 -3 -82q-3 -36 -12 -57q-13 -33 -65 -33q-21 0 -64 7q12 -27 20 -54l29 3q79 6 105 38q24 30 26 132q3 81 5 88q1 16 4 33q-18 -1 -35 -3q-25 -3 -33 -3
h-182q31 60 46 78q16 24 39 40q-34 13 -64 28q-9 -33 -21 -62q-15 -33 -42 -84l-73 4q-13 0 -28 2q1 -19 3 -38q1 -16 2 -27v-298z" />
  </g>

</svg>
