<?xml version="1.0" standalone="no"?>
<!DOCTYPE svg PUBLIC "-//W3C//DTD SVG 1.1//EN" "http://www.w3.org/Graphics/SVG/1.1/DTD/svg11.dtd" >
<svg xmlns="http://www.w3.org/2000/svg" xmlns:xlink="http://www.w3.org/1999/xlink" version="1.1" viewBox="-10 0 1010 1000">
   <path fill="currentColor"
d="M601 -19q71 17 93 33q0 2 -3 6q-23 28 -52 99h131q60 0 111 -7q-8 39 -17 132q-4 44 -7 66q3 109 -104 116q-31 6 -49 11q-12 -60 -35 -93q102 16 109 -40q8 -58 10 -113h-248v294h272q99 -4 125 -10q-17 163 -24 242q-5 54 -6 67q4 103 -146 119q-19 4 -29 6
q-15 -63 -49 -99q50 3 69 2q24 -1 37 -8q27 -12 32 -62q18 -145 18 -186h-277q-88 5 -106 10q3 -5 6 -44q3 -43 2 -55v-254q1 -13 -2 -56q-3 -40 -6 -45q52 7 111 7q34 -72 34 -138zM190 18q87 5 114 20q1 2 -6 13q-24 42 -24 78v139h24q113 -6 123 -10v90q-4 -3 -52 -6
q-53 -3 -69 -2h-26v258q2 -1 7 -3q78 -33 132 -59v85q-195 76 -326 145l-45 -95l28 -7q51 -10 94 -27q14 -5 34 -12v-285h-29q-73 1 -115 8v-90q47 9 111 10h33v-137q0 -68 -8 -113zM748 657v89q-29 -6 -109 -8h-145q-89 2 -117 8v-89q60 9 117 10h137q92 -4 117 -10z" />
</svg>
