<?xml version="1.0" standalone="no"?>
<!DOCTYPE svg PUBLIC "-//W3C//DTD SVG 1.1//EN" "http://www.w3.org/Graphics/SVG/1.1/DTD/svg11.dtd" >
<svg xmlns="http://www.w3.org/2000/svg" xmlns:xlink="http://www.w3.org/1999/xlink" version="1.1" viewBox="-10 0 1034 1024">
  <g transform="matrix(1 0 0 -1 0 820)">
   <path fill="currentColor"
d="M830 431q30 -1 63 -5l-3 34l-2 198q1 33 5 67l-63 -6l-336 1q-6 1 -13 2q-7 0 -30 3q1 -33 5 -66l-1 -261q-6 -109 -12 -166q-13 -96 -57 -177q-45 -84 -93 -125q-21 -18 -45 -27q36 -12 61 -30q55 73 93 135q60 105 77 226q10 123 15 197h336zM494 466v217h356v-217
h-356zM907 293q-24 -19 -77 -42q-105 -42 -184 -62v106q0 37 14 66h-57q1 -6 2 -13q1 -27 3 -53v-323q0 -40 15 -65q13 -21 56 -33q30 -6 92 -7q66 0 108 7q54 12 78 65q3 10 8 23q4 13 12 42q-22 9 -50 24q0 -33 -2 -45q-4 -40 -23 -56q-30 -21 -130 -22q-87 0 -108 20
q-18 13 -18 46v177q37 10 93 30l128 44q33 10 44 13q12 3 35 4q-12 16 -26 33zM400 182q0 3 1 18q-16 -9 -63 -27q-42 -15 -92 -30v319q123 0 140 -2q9 0 18 -3v46q-6 -1 -12 -3q-12 0 -51 -2h-95v207q0 13 2 29q1 19 11 38h-57q3 -9 4 -16q1 -27 2 -51v-207q-103 0 -127 2
l-17 3v-46q10 3 60 5h84v-329q-60 -18 -99 -28q-25 -6 -40 -8q-7 0 -26 -1q18 -34 26 -56q19 12 44 21l94 33l110 34l83 22q0 6 -1 17q0 7 1 15v0z" />
  </g>

</svg>
