<?xml version="1.0" standalone="no"?>
<!DOCTYPE svg PUBLIC "-//W3C//DTD SVG 1.1//EN" "http://www.w3.org/Graphics/SVG/1.1/DTD/svg11.dtd" >
<svg xmlns="http://www.w3.org/2000/svg" xmlns:xlink="http://www.w3.org/1999/xlink" version="1.1" viewBox="-10 0 1010 1000">
   <path fill="currentColor"
d="M675 10q99 -5 103 14q1 3 -6 14q-20 36 -20 70v87h79q55 0 90 -8q-14 134 -18 542q0 70 -35 96q-35 30 -134 42q-3 -58 -42 -99q51 3 68 2q21 -1 32 -7q23 -10 25 -62q13 -212 16 -439h-81q-6 308 -43 393q-37 113 -181 236q-7 -4 -23 -16q-39 -31 -72 -39
q130 -67 192 -175l-34 14l-8 -22q-101 21 -238 68l-22 -60q-135 55 -246 117l-31 -87q85 -33 109 -48v-315q-61 0 -109 8v-86q47 8 109 8v-148q1 -12 -2 -55q-3 -40 -6 -45q101 -3 101 12q-1 4 -5 15q-16 37 -17 76v145q46 1 91 -8v86q-5 -3 -41 -6q-39 -3 -50 -2v293
q6 1 101 -47l-4 51q60 -9 149 -220q-98 2 -149 20l-23 -71q82 -49 133 -316q85 17 99 30q-21 17 -100 210q-22 51 -29 68q18 2 48 3q26 0 39 -1q20 -38 40 -100q90 39 87 44q-27 23 -72 119q-62 135 -122 218q45 -7 140 -27q-15 -43 -37 -70l59 -28q19 30 58 111
q29 -111 36 -353q-43 -3 -90 8v-83q43 8 94 8v-105q0 -34 -7 -76q-1 -3 -1 -4z" />
</svg>
