<?xml version="1.0" standalone="no"?>
<!DOCTYPE svg PUBLIC "-//W3C//DTD SVG 1.1//EN" "http://www.w3.org/Graphics/SVG/1.1/DTD/svg11.dtd" >
<svg xmlns="http://www.w3.org/2000/svg" xmlns:xlink="http://www.w3.org/1999/xlink" version="1.1" viewBox="-10 0 1034 1024">
  <g transform="matrix(1 0 0 -1 0 820)">
   <path fill="currentColor"
d="M421 -140q43 54 101 118l115 117q-12 12 -15 22l-11 22q-21 -28 -52 -65q-39 -45 -100 -109v391h200q7 -57 19 -115q12 -60 24 -97q12 -40 30 -84q34 -78 88 -132q45 -48 73 -48q13 0 21 7q21 19 34 54q9 33 19 66l6 16q-19 7 -50 24q-1 -34 -9 -71q-9 -43 -27 -44
q-9 0 -20 9q-22 18 -41 41q-34 42 -64 110q-25 66 -43 144q-15 66 -19 120l195 -1q24 0 33 -4v45l-96 -5h-135l-4 32l-4 74l-4 142v32q19 4 38 7l50 12q30 4 72 15q15 0 35 3q-13 16 -28 40q-3 4 -7 11q-39 -15 -76 -28q-82 -22 -153 -33q-94 -15 -149 -16q-12 0 -51 3
q1 -31 5 -64l-1 -662q-4 -21 -16 -44l-13 -16zM459 391v251q123 9 184 21q1 -30 3 -57l5 -128l3 -39l4 -48h-199zM592 -3q-6 -7 -17 -18q73 -72 108 -121q15 13 34 32l-112 121q-7 -6 -13 -14zM365 152q0 18 2 35q-45 -24 -145 -60v332q84 0 105 -2q15 0 21 -3v46
q-3 0 -8 -2q-15 0 -31 -2l-87 -1v181q0 12 2 27q3 15 12 38h-58q0 -3 3 -10q0 -39 3 -79v-157l-112 2q-6 0 -15 3v-46q3 1 12 2q37 3 54 3h61v-346q-39 -15 -81 -30q-43 -15 -64 -18q9 -22 17 -53q30 13 48 23q10 6 91 39l170 64v14z" />
  </g>

</svg>
