<?xml version="1.0" standalone="no"?>
<!DOCTYPE svg PUBLIC "-//W3C//DTD SVG 1.1//EN" "http://www.w3.org/Graphics/SVG/1.1/DTD/svg11.dtd" >
<svg xmlns="http://www.w3.org/2000/svg" xmlns:xlink="http://www.w3.org/1999/xlink" version="1.1" viewBox="-10 0 1034 1024">
  <g transform="matrix(1 0 0 -1 0 820)">
   <path fill="currentColor"
d="M63 -143q19 4 51 5l788 1q36 0 57 -4q1 0 7 -2v48q-24 -4 -46 -5l-376 -1v146l275 -1q6 0 17 -2q4 -1 14 -4v48q-6 0 -8 -1q-18 -4 -58 -5h-240q0 103 3 109q3 13 11 24h-61q0 -3 1 -6q4 -84 5 -87v-40l-244 1q-4 1 -6 1q-3 0 -42 4v-48l50 7h242v-146q-396 0 -414 3
q-12 1 -26 3v-48zM574 552v-197q-39 -15 -88 -32q-31 -9 -54 -15q-19 -3 -48 -8q21 -18 39 -43q78 27 151 57v-26q0 -36 20 -56q15 -12 57 -18q45 -3 100 -3q84 0 120 13q36 15 57 65q6 16 17 60q-28 6 -57 25q3 -36 4 -45q0 -19 -7 -37q-10 -28 -51 -38q-34 -6 -91 -7
l-55 1q-36 1 -47 5q-28 6 -29 49v30l90 51q31 18 56 35q45 30 65 40q3 0 10 4q-21 21 -38 50q-33 -42 -96 -88q-15 -12 -32 -21q-18 -10 -55 -29v178l309 -3q6 0 11 -2v46q-12 0 -16 -2q-21 0 -48 -3h-362q12 111 13 115q3 30 8 38q1 9 6 20q-12 -1 -26 -2q-4 0 -37 4
q3 -57 4 -74q-3 -27 -3 -71q0 -12 -4 -30l-346 5v-46q60 4 108 5h231q-25 -90 -86 -161q-75 -87 -180 -141q-52 -24 -108 -34q30 -22 49 -44q82 45 138 81q45 31 89 71q55 54 88 106q30 48 51 122h73zM663 728q60 -39 118 -114q12 19 29 34q-40 49 -115 110q-15 -15 -32 -30
v0z" />
  </g>

</svg>
