<?xml version="1.0" standalone="no"?>
<!DOCTYPE svg PUBLIC "-//W3C//DTD SVG 1.1//EN" "http://www.w3.org/Graphics/SVG/1.1/DTD/svg11.dtd" >
<svg xmlns="http://www.w3.org/2000/svg" xmlns:xlink="http://www.w3.org/1999/xlink" version="1.1" viewBox="-10 0 1010 1000">
   <path fill="currentColor"
d="M516 -8q5 0 15 1q104 7 100 13q0 3 -5 11q-15 25 -19 53q-3 27 -9 131q-1 21 -1 28h189q85 0 136 -11q6 -1 7 -1v93q-2 0 -9 -1q-50 -9 -134 -9h-191q-30 377 -301 603q-40 -39 -96 -55q291 -142 314 -550q-88 0 -121 10v-87q40 7 125 8q3 -117 0 -237zM179 6
q105 1 109 8q0 1 -3 5q-21 31 -21 100v151q79 -3 113 -10v92q-66 -8 -113 -8v283l121 -49l-6 91q-250 72 -323 109l-22 -99q39 0 154 -32v-303q-98 0 -144 10v-88q36 6 144 6v-151q-1 -79 -9 -115zM752 36q35 34 87 111l-81 52q-32 -76 -83 -127zM615 322q103 4 105 12
q0 1 -4 7q-20 29 -20 72v173q89 -102 125 -207q74 39 92 56q0 2 -7 8q-25 23 -53 61q-58 84 -157 181v65q-2 40 7 47q7 10 47 11q38 2 50 0q15 -2 29 -12q34 -22 38 -111q51 42 85 52q-21 137 -79 140q-72 12 -155 6q-66 -4 -82 -16q-18 -11 -17 -51v-78q-11 9 -32 25
q-56 45 -67 51q-21 -40 -68 -64q82 -23 169 -99v-242q-1 -57 -6 -87z" />
</svg>
