<?xml version="1.0" standalone="no"?>
<!DOCTYPE svg PUBLIC "-//W3C//DTD SVG 1.1//EN" "http://www.w3.org/Graphics/SVG/1.1/DTD/svg11.dtd" >
<svg xmlns="http://www.w3.org/2000/svg" xmlns:xlink="http://www.w3.org/1999/xlink" version="1.1" viewBox="-10 0 1034 1024">
  <g transform="matrix(1 0 0 -1 0 820)">
   <path fill="currentColor"
d="M433 157q-27 -16 -60 -32q-40 -18 -107 -44v353l102 -1l30 -4v45q-30 -1 -61 -5h-71v197q0 9 4 35q1 15 10 29h-58q4 -21 5 -70v-191q-105 0 -130 2q-15 3 -21 3v-45q-1 0 10 1l51 4h90v-367q-60 -21 -99 -33q-33 -9 -75 -15q15 -28 29 -58q16 9 32 17q16 6 35 16l129 52
l157 60q-1 25 -2 51zM347 -128h3q4 3 57 6l523 -1l37 -4q4 0 8 -1v47l-64 -6h-182q1 12 41 124q0 3 2 6l61 198l24 91q0 1 12 26q13 27 33 42q-16 4 -32 11q-15 6 -37 18q-4 -42 -15 -84q-10 -48 -30 -119q-27 -102 -52 -176q-22 -69 -51 -137h-270q-27 0 -68 6v-47z
M939 552q-24 -4 -63 -5l-417 1q-36 3 -38 4v-46q-3 0 9 1q72 3 106 4l375 -1l28 -4v46zM526 271q45 -145 55 -186l16 -66q24 9 41 18q-48 183 -112 352q-19 -9 -41 -17q4 -13 11 -27zM607 750q-16 -16 -33 -29q24 -24 84 -94l46 -61q18 18 35 28q-30 40 -55 71z" />
  </g>

</svg>
