<?xml version="1.0" standalone="no"?>
<!DOCTYPE svg PUBLIC "-//W3C//DTD SVG 1.1//EN" "http://www.w3.org/Graphics/SVG/1.1/DTD/svg11.dtd" >
<svg xmlns="http://www.w3.org/2000/svg" xmlns:xlink="http://www.w3.org/1999/xlink" version="1.1" viewBox="-10 0 1034 1024">
  <g transform="matrix(1 0 0 -1 0 820)">
   <path fill="currentColor"
d="M83 25q6 -12 12 -27l56 23q30 9 76 26l185 55q3 21 13 49q-76 -30 -151 -53v348q63 0 88 -3q3 0 9 -2h3v45q-12 -1 -16 -2l-84 -2v211q0 6 2 25q1 15 13 36h-60q4 -15 5 -61v-211l-142 2q-3 1 -14 2v-45q54 6 73 5h83v-359q-102 -33 -161 -43q4 -9 10 -19zM681 485v-359
q-36 -42 -74 -76q-57 -48 -105 -66q7 -4 16 -10q19 -12 29 -24q10 10 21 20q31 28 65 55l48 44v-107q0 -45 20 -63q15 -15 54 -21q30 -4 61 -5q39 0 72 9q36 9 53 33q10 18 22 64q3 13 7 25q-18 3 -53 20q1 -25 2 -46q0 -30 -12 -45q-12 -13 -44 -20q-24 -1 -47 -3
q-36 0 -41 2q-28 1 -42 12q-13 9 -14 52v137q61 75 111 147q12 21 26 41q9 13 20 29q12 15 35 21q-10 6 -21 13q-3 0 -20 13q-9 6 -18 13q-18 -51 -47 -101q-33 -51 -86 -118v314l187 -1l39 -4v46q-3 0 -5 -1q-4 0 -8 -1q-43 0 -87 -3h-237q3 198 6 200q3 16 18 30
q-21 1 -67 11q3 -19 4 -36l2 -156q-1 -24 -1 -49q-144 0 -158 3q-3 1 -11 2v-46q3 0 6 1q6 3 40 3l120 1q-7 -184 -35 -296q-28 -108 -89 -191q-67 -84 -132 -115q31 -16 44 -29q67 58 111 114q84 112 114 266q9 46 13 92q7 72 13 159h75zM760 726q-9 9 -16 18
q-10 -10 -32 -28q36 -27 72 -68q48 -51 60 -73q12 15 32 28q-19 24 -37 41q-15 18 -79 82v0z" />
  </g>

</svg>
