<?xml version="1.0" standalone="no"?>
<!DOCTYPE svg PUBLIC "-//W3C//DTD SVG 1.1//EN" "http://www.w3.org/Graphics/SVG/1.1/DTD/svg11.dtd" >
<svg xmlns="http://www.w3.org/2000/svg" xmlns:xlink="http://www.w3.org/1999/xlink" version="1.1" viewBox="-10 0 1010 1000">
   <path fill="currentColor"
d="M802 8q95 -3 103 8q0 3 -3 10q-13 28 -13 76v361q2 55 -34 76q-36 23 -137 31q5 -47 -30 -99q121 12 120 -26v-308q-1 -93 -6 -129zM99 42q2 0 10 1q49 7 117 7h226q57 0 99 -8q8 -2 11 -2v85q-2 0 -14 -1q-51 -5 -80 -5v147h16q35 0 82 -5q14 -1 17 -1v82q-2 0 -8 -1
q-32 -7 -91 -7h-14v65q0 57 5 93q1 7 1 10h-87q0 -4 1 -13q5 -36 5 -92v-63h-115q-12 139 -167 238q-28 -43 -73 -68q144 -45 162 -170h-33q-62 0 -105 9q-6 1 -8 1v-86q4 0 14 1q42 5 99 5h43v-143q-52 0 -100 5q-10 1 -13 1v-85zM623 82q88 0 95 6q1 2 -2 8q-14 28 -14 75
v151q0 60 3 99q1 7 1 10h-85q0 -3 1 -9q3 -35 3 -100v-149q0 -43 -2 -79v-12zM395 119h-109l-2 147h111v-147zM454 518q88 -3 96 6q0 5 -3 14q-9 28 -9 68h141q97 0 146 -9q3 -1 4 -1v87q-2 0 -10 -1q-51 -9 -136 -9h-145v107h192q123 0 193 -5q11 -1 14 -1v91q-2 0 -11 -1
q-71 -10 -184 -10h-490q-126 0 -184 7q-5 1 -6 1v-88q2 0 7 1q51 5 179 5h210v-109h-168q-66 0 -113 7q-9 1 -12 1v-83q2 0 10 1q51 7 115 7h168q0 -58 -4 -86z" />
</svg>
