<?xml version="1.0" standalone="no"?>
<!DOCTYPE svg PUBLIC "-//W3C//DTD SVG 1.1//EN" "http://www.w3.org/Graphics/SVG/1.1/DTD/svg11.dtd" >
<svg xmlns="http://www.w3.org/2000/svg" xmlns:xlink="http://www.w3.org/1999/xlink" version="1.1" viewBox="-10 0 1034 1024">
  <g transform="matrix(1 0 0 -1 0 820)">
   <path fill="currentColor"
d="M391 166l3 53q-21 -13 -41 -24q-22 -9 -61 -21q-24 -6 -39 -13v329h77q6 0 44 -3q3 0 15 -2v46q-24 -4 -60 -5h-76v193q0 30 11 54h-56l6 -61v-186q-99 0 -123 2q-12 3 -26 3v-46q30 4 64 5h85v-340q-48 -15 -95 -26q-49 -10 -78 -14q13 -31 24 -59q58 24 122 47l172 56
q7 3 32 12zM616 -85l-6 -66h50q-3 6 -6 59v313q67 -120 151 -200q60 -55 140 -109q16 27 47 50q-90 25 -169 100q-90 87 -132 173l209 -1q27 0 36 -4q1 0 3 -1v47q-30 -1 -60 -5h-225v91q0 9 3 25q0 13 7 32h-54l2 -17q3 -48 4 -75v-56l-205 3q-9 0 -17 2v-47q31 6 62 6h116
q-75 -148 -187 -233q-55 -40 -110 -56q30 -18 51 -41q166 102 290 319v-309zM536 683h213v-219q0 -39 17 -59q21 -18 78 -18q42 0 94 7q1 36 10 63q-27 -18 -52 -23q-30 -6 -55 -7q-39 0 -48 15q-4 9 -5 38l1 197q0 19 4 48q-66 -6 -76 -6l-177 1q-7 1 -50 5q6 -54 6 -91
q0 -69 -11 -117q-12 -58 -56 -97q-19 -18 -63 -38q28 -15 52 -30q46 42 64 62q16 19 28 46q13 39 20 78q6 42 6 109v36z" />
  </g>

</svg>
