<?xml version="1.0" standalone="no"?>
<!DOCTYPE svg PUBLIC "-//W3C//DTD SVG 1.1//EN" "http://www.w3.org/Graphics/SVG/1.1/DTD/svg11.dtd" >
<svg xmlns="http://www.w3.org/2000/svg" xmlns:xlink="http://www.w3.org/1999/xlink" version="1.1" viewBox="-10 0 1010 1000">
   <path fill="currentColor"
d="M157 -2q96 1 107 10q1 2 -3 7q-21 32 -21 85v154q75 0 123 -8v88q-53 -8 -123 -8v258q72 -24 117 -48v91q-210 65 -288 102l-29 -98q83 -24 125 -29v-276q-83 0 -117 8v-88q38 8 117 8v-156q0 -62 -7 -92q-1 -5 -1 -8zM365 453q19 4 64 8q45 3 67 2h99v-22q-1 -74 -8 -99
q99 1 107 10q0 2 -4 9q-19 27 -19 66v36h103q70 -1 149 -10v85q-60 -11 -145 -8h-38q69 160 230 216q-33 29 -71 73q-3 4 -4 5q-141 -79 -224 -290v224q1 95 12 141h-100q12 -36 12 -139v-224q-68 179 -248 306q-38 -36 -97 -58q189 -82 272 -256h-16q-104 -1 -141 8v-83z
M371 316q111 -40 107 -187q0 -18 -1 -54q-1 -27 -1 -37q54 8 127 10h40q88 0 143 -6q-10 127 -10 157q-3 46 13 57q16 14 66 6q23 -3 69 -18q13 -4 20 -6q-13 46 -17 104q-32 0 -87 1q-40 1 -58 1q-51 0 -69 -22q-9 -10 -12 -27q-3 -15 -3 -49v-64q1 -31 2 -63h-144
q1 113 -22 159q-21 48 -105 111q-16 -37 -58 -73z" />
</svg>
