<?xml version="1.0" standalone="no"?>
<!DOCTYPE svg PUBLIC "-//W3C//DTD SVG 1.1//EN" "http://www.w3.org/Graphics/SVG/1.1/DTD/svg11.dtd" >
<svg xmlns="http://www.w3.org/2000/svg" xmlns:xlink="http://www.w3.org/1999/xlink" version="1.1" viewBox="-10 0 1010 1000">
   <path fill="currentColor"
d="M149 20q97 4 111 14q1 2 -2 8q-18 34 -18 101v151q78 0 111 -8v87q-29 -8 -111 -8v292q44 -16 115 -45q16 -7 24 -10q-12 35 -6 89q-257 69 -313 111q-4 -46 -30 -93q39 -3 131 -32v-312q-54 0 -131 8v-87q65 8 131 8v-153q-1 -81 -12 -121zM927 74v89q-81 -8 -143 -8
h-183q61 27 64 36q-1 2 -7 6q-22 13 -45 40q-7 9 -20 24q-55 68 -105 120q139 -7 292 -18q-49 -73 -86 -105l74 -31q22 29 57 74q72 90 102 144l-82 42q-6 -12 -25 -48q-7 -12 -10 -18q-57 3 -137 10v139h73q60 0 143 -8v83q-66 -8 -145 -8h-71v159h129q103 0 150 -10v87
q-63 -10 -152 -10h-284q-91 0 -189 10v-85q3 0 10 1q92 7 179 7h81v-159h-32q-94 0 -160 10v-85q68 8 160 8h32v-133q-118 7 -214 36q-3 -11 -8 -31q-12 -44 -18 -61q49 -1 85 -41q55 -59 121 -185h-63q-74 1 -141 10v-91q73 8 145 8h274q98 0 149 -8z" />
</svg>
