<?xml version="1.0" standalone="no"?>
<!DOCTYPE svg PUBLIC "-//W3C//DTD SVG 1.1//EN" "http://www.w3.org/Graphics/SVG/1.1/DTD/svg11.dtd" >
<svg xmlns="http://www.w3.org/2000/svg" xmlns:xlink="http://www.w3.org/1999/xlink" version="1.1" viewBox="-10 0 1034 1024">
  <g transform="matrix(1 0 0 -1 0 820)">
   <path fill="currentColor"
d="M77 -122q36 4 64 5l775 -1l32 -4v46q-31 -1 -64 -5h-350v136q255 0 267 -2q9 0 20 -3v46q-33 -1 -68 -5h-219v86q0 18 11 52h-57q3 -34 6 -60v-78l-244 1q-7 1 -32 2q1 0 -16 2v-46q3 0 9 1q7 3 36 4h247v-136l-367 1q-19 3 -50 4v-46zM211 743q1 -33 5 -68l-1 -440
q-3 -10 -6 -17q-4 -4 -23 -14q15 -31 22 -48q54 33 57 34q81 40 209 99l3 57q-25 -30 -224 -117v182h211q111 -153 290 -236q33 -15 57 -24q22 -6 50 -14q9 15 24 32q6 6 14 16q-72 9 -114 25q-72 25 -132 66l63 33l48 22q25 9 54 10l-39 53q-31 -24 -64 -42
q-37 -21 -97 -50q-39 33 -63 58q-19 19 -41 51q210 0 232 -3q22 0 46 -3l-6 64l1 225q1 24 5 49l-73 -6l-450 1q-39 4 -58 5zM253 446v111h494v-111h-494zM253 593v109h494v-109h-494z" />
  </g>

</svg>
