<?xml version="1.0" standalone="no"?>
<!DOCTYPE svg PUBLIC "-//W3C//DTD SVG 1.1//EN" "http://www.w3.org/Graphics/SVG/1.1/DTD/svg11.dtd" >
<svg xmlns="http://www.w3.org/2000/svg" xmlns:xlink="http://www.w3.org/1999/xlink" version="1.1" viewBox="-10 0 1034 1024">
  <g transform="matrix(1 0 0 -1 0 820)">
   <path fill="currentColor"
d="M92 7q27 12 63 24l181 58q42 13 74 26l3 56q-57 -40 -148 -65v339q69 0 145 -3q7 0 14 -3v49q-6 0 -56 -6h-103v205q0 15 2 31q3 18 11 32h-56q4 -49 5 -72v-196l-118 1q-24 3 -28 4q-4 0 -8 1v-49q12 3 54 6h100v-350q-42 -12 -76 -21l-85 -14q9 -15 18 -35q3 -9 8 -18z
M472 -163l100 77q43 31 88 62q15 9 28 22q0 24 -4 56q-39 -39 -77 -67q-40 -30 -105 -71v415h148q27 -177 105 -283q69 -93 177 -176q24 27 55 44q-58 15 -119 66q-73 67 -113 142q27 24 143 108q3 4 22 15q18 12 36 16q-24 27 -39 51q-60 -67 -177 -156q-33 67 -51 173h139
q9 0 34 -4q15 -1 33 -2q-4 60 -5 70q0 300 3 320q0 9 2 18q-33 -1 -67 -5l-317 1q-19 3 -53 4q1 -33 5 -68l-1 -755q-3 -9 -8 -17q-6 -4 -11 -9q15 -18 16 -21zM502 546v146h349v-146h-349zM502 365v145h349v-145h-349z" />
  </g>

</svg>
