<?xml version="1.0" standalone="no"?>
<!DOCTYPE svg PUBLIC "-//W3C//DTD SVG 1.1//EN" "http://www.w3.org/Graphics/SVG/1.1/DTD/svg11.dtd" >
<svg xmlns="http://www.w3.org/2000/svg" xmlns:xlink="http://www.w3.org/1999/xlink" version="1.1" viewBox="-10 0 1010 1000">
   <path fill="currentColor"
d="M254 -10q95 36 107 52q0 4 -12 12q-22 14 -36 32q-4 6 -13 20q-22 35 -32 53v256q-1 130 8 153h-91q8 -37 7 -153v-155q-57 76 -111 139q-29 -62 -47 -81q135 -104 220 -328zM720 -10q43 39 78 98l-78 37q-26 -56 -69 -93zM464 4q97 -1 119 10q0 4 -5 11q-16 21 -13 57
q9 81 16 95l179 -34q88 -20 147 -39l18 95q-75 0 -141 14l-183 29q13 60 40 104q95 -49 163 -113q63 61 63 79q-1 1 -10 4q-32 8 -57 22q-8 4 -30 17q-87 48 -87 50q80 83 142 91q26 -11 24 -89q73 53 86 52q-18 73 -44 111q-31 38 -122 -2q-91 -43 -164 -129
q-151 56 -224 77l-9 -15q-27 -49 -55 -70q131 -9 250 -52q-29 -54 -47 -121l-74 14q-71 12 -125 34l-19 -93q53 2 129 -10l71 -10q-25 -105 -38 -189zM454 520q101 5 109 14q0 2 -4 7q-19 23 -19 55v39h127q105 -1 160 -10v90q-38 -9 -156 -8h-131v97h208q107 -1 183 -10v95
q-57 -9 -169 -10h-550q-82 0 -147 5q-12 1 -15 1v-89q41 7 162 8h248v-97h-152h-33q-85 -1 -120 4v-82q51 6 149 6h156v-25q0 -54 -6 -90z" />
</svg>
