<?xml version="1.0" standalone="no"?>
<!DOCTYPE svg PUBLIC "-//W3C//DTD SVG 1.1//EN" "http://www.w3.org/Graphics/SVG/1.1/DTD/svg11.dtd" >
<svg xmlns="http://www.w3.org/2000/svg" xmlns:xlink="http://www.w3.org/1999/xlink" version="1.1" viewBox="-10 0 1010 1000">
   <path fill="currentColor"
d="M145 22q97 6 97 14q1 2 -3 8q-17 28 -17 83v153q54 0 109 -8v86q-36 -8 -109 -8v291q10 -4 29 -12q68 -25 104 -47q-15 47 -6 91q-216 69 -287 109q-5 -45 -38 -93q63 -11 123 -30q4 -1 6 -2v-307q-57 0 -113 8v-86q53 8 113 8v-113q0 -103 -8 -145zM327 80q26 5 58 7
q16 0 35 1h50h310q103 -1 155 -8v83q-38 -8 -151 -8h-38v631h71q87 0 133 -8v85q-7 0 -37 -2q-66 -3 -101 -3h-358q-76 0 -174 9v-89q65 8 160 8h74v-631h-40q-83 0 -147 8v-83zM585 155v631h90v-631h-90zM423 290q14 72 34 203q15 95 25 152l-83 12q-7 -168 -54 -355z
M835 284q13 3 37 9q61 14 61 17q0 5 -6 11q-15 16 -22 48q-34 147 -72 286q-21 -8 -77 -20q51 -108 79 -351z" />
</svg>
