<?xml version="1.0" standalone="no"?>
<!DOCTYPE svg PUBLIC "-//W3C//DTD SVG 1.1//EN" "http://www.w3.org/Graphics/SVG/1.1/DTD/svg11.dtd" >
<svg xmlns="http://www.w3.org/2000/svg" xmlns:xlink="http://www.w3.org/1999/xlink" version="1.1" viewBox="-10 0 1034 1024">
  <g transform="matrix(1 0 0 -1 0 820)">
   <path fill="currentColor"
d="M569 247q-1 -87 -9 -127q-9 -42 -31 -86q-40 -76 -130 -124q-60 -25 -97 -29q27 -27 43 -48q55 25 107 60q91 64 129 162q21 60 29 192h99v-333q0 -39 35 -52q24 -9 90 -10q67 0 91 16q15 10 23 27q7 15 22 63q3 12 7 22q-21 7 -53 21q3 -18 3 -32q0 -42 -20 -63
q-19 -15 -66 -15q-64 0 -82 10q-12 6 -12 41v305l168 -1l36 -4q3 0 6 -1v47q-9 -3 -23 -4q-18 -1 -40 -2q-465 0 -485 3q-4 1 -10 3v-47q66 6 87 6h83zM899 583q0 -90 -2 -123q0 -6 -3 -21h49q-6 18 -6 54q0 81 2 94l4 37q-27 -1 -56 -5l-428 1q-19 3 -45 4q4 -99 5 -103
l-4 -78q0 -1 -1 -4h48q-4 49 -5 72v72h442zM843 465l-62 -5l-236 1l-18 2q-3 0 -12 2v-47q1 0 38 5l228 1q27 0 55 -3q3 0 7 -3v47zM571 736q72 -49 128 -112q16 24 31 36l-58 49q-37 33 -71 61q-13 -18 -30 -34zM407 112q0 7 3 32q-45 -16 -88 -31q-57 -15 -66 -19v361
l121 -3q3 0 7 -3v47q-6 -1 -12 -3q-12 0 -51 -3h-65v205q0 7 2 26q3 22 12 38h-58q0 -3 3 -9q0 -27 3 -55v-205l-138 3q-3 0 -15 3v-47q3 3 12 3q37 3 54 3h87v-369q-48 -12 -50 -13q-36 -6 -72 -13q-33 -4 -49 -5q13 -24 27 -56q40 15 70 25l79 23l185 46q-1 10 -1 19v0z
" />
  </g>

</svg>
