<?xml version="1.0" standalone="no"?>
<!DOCTYPE svg PUBLIC "-//W3C//DTD SVG 1.1//EN" "http://www.w3.org/Graphics/SVG/1.1/DTD/svg11.dtd" >
<svg xmlns="http://www.w3.org/2000/svg" xmlns:xlink="http://www.w3.org/1999/xlink" version="1.1" viewBox="-10 0 1034 1024">
  <g transform="matrix(1 0 0 -1 0 820)">
   <path fill="currentColor"
d="M912 414l-61 -6l-411 1q-3 1 -6 1q-18 0 -36 4v-47q7 3 13 4q13 0 52 2h406v-157l-383 1q-12 3 -40 4q1 -21 2 -35q3 -21 4 -32v-203q0 -19 8 -38q10 -24 43 -33q45 -15 203 -16q82 0 121 4q37 3 62 13q28 12 44 41q9 15 27 65q3 7 5 18q1 3 3 7q-21 6 -49 19v-15
q0 -31 -12 -64q-18 -37 -67 -46q-45 -6 -172 -6q-72 0 -111 4q-40 6 -55 20q-13 9 -14 51v205l382 -1q18 0 42 -4q-4 49 -5 70l1 125q0 19 4 44zM420 503q30 3 60 5l402 -1q16 0 41 -4q-4 48 -5 95l1 75q0 15 4 28q1 10 8 20h-56q3 -9 3 -16q1 -28 2 -51v-110h-187v167
q0 15 2 31q3 18 12 36h-57q6 -66 6 -89v-145h-193v111q0 15 2 30q0 18 11 38h-56q0 -9 3 -17l2 -146l-4 -39q-1 -9 -1 -18zM353 119q22 7 54 15q-1 18 5 47q-25 -12 -54 -21q-33 -10 -103 -30v334q93 0 111 -2q9 0 18 -3v46q-6 -1 -12 -3q-13 0 -52 -2h-65v192q0 15 2 30
q1 19 11 38h-57q1 -7 4 -16q1 -39 2 -148v-96q-109 0 -133 2l-17 3v-46q10 3 60 5h90v-346q-54 -16 -96 -27q-37 -7 -72 -13q21 -49 22 -54q24 12 49 22q84 28 139 44q46 15 94 29v0z" />
  </g>

</svg>
