<?xml version="1.0" standalone="no"?>
<!DOCTYPE svg PUBLIC "-//W3C//DTD SVG 1.1//EN" "http://www.w3.org/Graphics/SVG/1.1/DTD/svg11.dtd" >
<svg xmlns="http://www.w3.org/2000/svg" xmlns:xlink="http://www.w3.org/1999/xlink" version="1.1" viewBox="-10 0 1034 1024">
  <g transform="matrix(1 0 0 -1 0 820)">
   <path fill="currentColor"
d="M386 113q-33 -16 -55 -26q-12 -4 -85 -29v357q82 0 98 -2q6 0 19 -5v53q-30 -6 -74 -6h-43v232q0 6 4 31q1 15 9 28h-58q0 -6 1 -11q4 -21 5 -54v-226l-109 3q-12 1 -26 3v-53q36 6 61 7h74v-368q-90 -33 -161 -38q12 -30 23 -60q42 22 77 33q198 66 230 78q3 1 7 3z
M662 176l242 -1l32 -4v47q-22 -6 -60 -6h-212q3 45 5 77q1 30 2 78h153q36 0 63 -5v46q-30 -1 -62 -5h-313q6 9 12 20q18 27 47 47q-27 10 -54 28q-19 -43 -79 -132q-36 -48 -75 -78q27 -7 54 -17l42 59q12 15 29 37h143q0 -57 -7 -155l-203 1q-24 4 -50 5v-47q3 1 50 5h198
q-18 -72 -50 -121q-66 -93 -153 -135q-70 -33 -123 -40q21 -18 38 -48q81 39 130 68q39 24 74 54q36 33 58 63q21 33 52 94q58 -87 139 -158q61 -54 160 -111q18 25 41 43q-81 16 -177 98q-115 105 -147 189q0 3 1 4zM912 476q12 18 31 34q-40 45 -92 97q-49 49 -90 86
q-12 -10 -21 -19q-1 -1 -12 -10l48 -40q39 -39 50 -51q-63 -9 -165 -19l-181 -17q12 12 22 27q69 84 95 110q25 31 37 39q9 9 36 29q-28 12 -55 28q-31 -51 -62 -92q-33 -43 -91 -109q-19 -19 -48 -33q9 -24 16 -51q37 10 103 19l243 27l81 10q7 -7 16 -17q12 -18 30 -36z
" />
  </g>

</svg>
