<?xml version="1.0" standalone="no"?>
<!DOCTYPE svg PUBLIC "-//W3C//DTD SVG 1.1//EN" "http://www.w3.org/Graphics/SVG/1.1/DTD/svg11.dtd" >
<svg xmlns="http://www.w3.org/2000/svg" xmlns:xlink="http://www.w3.org/1999/xlink" version="1.1" viewBox="-10 0 1010 1000">
   <path fill="currentColor"
d="M425 371q50 0 68 -1q23 -1 43 -5q-21 235 -62 332q107 102 490 67q-39 45 -53 101q-44 -4 -124 -9q-238 -3 -347 -94q-57 78 -113 133q-37 -31 -83 -45q96 -68 143 -143q-57 -80 -83 -181l73 -16q23 84 46 129q24 -93 33 -210q-15 2 -46 5q-60 6 -89 13q-7 -22 -13 -65
q-1 -9 -2 -13q44 -7 71 -59q31 -57 67 -169q-39 -1 -63 0q-20 1 -66 6v-75q64 8 108 8q26 0 88 -6q18 -1 25 -2q-69 209 -111 299zM875 22q64 83 60 90q-2 1 -12 0q-53 -7 -133 17v195q46 1 115 -10v81q-55 -8 -115 -8v203q81 1 125 -8v87q-56 -8 -119 -8h-84q-64 0 -145 8
q5 -24 7 -49q1 -21 1 -64v-193q0 -79 -8 -123q86 6 96 18q1 3 -3 10q-17 28 -17 86v236h79v-453q-31 9 -143 26q-9 -48 -33 -83q140 17 329 -58zM129 -2q97 7 103 16q1 3 -3 10q-19 32 -19 93v145q55 0 103 -8v88q-33 -8 -103 -8v295q11 -6 35 -17q47 -22 68 -34q-4 46 6 83
q-177 72 -265 119q-16 -67 -30 -91l113 -30v-325q-50 0 -103 8v-86q41 6 103 6v-107q0 -64 -6 -139q-1 -12 -2 -18z" />
</svg>
