<?xml version="1.0" standalone="no"?>
<!DOCTYPE svg PUBLIC "-//W3C//DTD SVG 1.1//EN" "http://www.w3.org/Graphics/SVG/1.1/DTD/svg11.dtd" >
<svg xmlns="http://www.w3.org/2000/svg" xmlns:xlink="http://www.w3.org/1999/xlink" version="1.1" viewBox="-10 0 1034 1024">
  <g transform="matrix(1 0 0 -1 0 820)">
   <path fill="currentColor"
d="M534 339q0 6 5 33q-57 -6 -83 -6h-72q22 34 40 67l48 92q15 27 31 64l45 107q-60 -4 -90 -5q-109 0 -124 3l-13 2v-47q6 3 13 3q27 3 53 3h102q-31 -78 -73 -159q-33 -63 -57 -97q-18 -25 -34 -37q6 -19 13 -39q43 7 58 8h94q0 -31 -4 -57q-3 -25 -10 -58
q-12 -57 -31 -100q-27 45 -40 76q-15 48 -17 76q-24 -10 -47 -18q39 -102 84 -176q-52 -94 -152 -147q-45 -21 -82 -24q15 -16 23 -27q6 -9 14 -22q55 28 100 59q43 33 68 58q24 24 56 69q24 -36 72 -76q43 -36 86 -54q63 -22 134 -32q69 -9 212 -8q9 33 20 55
q-51 -12 -111 -13q-130 0 -213 26q-61 21 -119 72q-31 27 -60 70q34 85 52 197zM692 631q33 6 37 6v-546h-105v332q0 13 2 29q3 18 12 35h-58l6 -64l-1 -332l-5 -41q30 3 63 5l264 -1q22 0 32 -4v46l-99 -5h-74v266q112 0 130 -2q15 0 23 -4v47l-105 -5h-48v249
q105 25 150 26q-21 27 -34 51q-25 -12 -45 -20q-39 -12 -116 -27q-79 -12 -127 -13q-9 0 -29 3q12 -24 20 -45q21 1 36 4q34 6 71 10zM44 71q9 -16 19 -43q1 -3 3 -7l173 57l114 33q0 19 5 46q-19 -7 -51 -18q-34 -12 -78 -24v333l103 -3q4 0 7 -2v46q-10 -3 -13 -3l-97 -2
v192q0 10 2 27q3 15 12 38h-58q0 -4 4 -17l2 -144v-96q-90 0 -112 2l-17 3v-46q3 1 12 2q37 3 54 3h63v-343q-37 -10 -65 -18l-72 -15q-6 0 -10 -1z" />
  </g>

</svg>
