<?xml version="1.0" standalone="no"?>
<!DOCTYPE svg PUBLIC "-//W3C//DTD SVG 1.1//EN" "http://www.w3.org/Graphics/SVG/1.1/DTD/svg11.dtd" >
<svg xmlns="http://www.w3.org/2000/svg" xmlns:xlink="http://www.w3.org/1999/xlink" version="1.1" viewBox="-10 0 1010 1000">
   <path fill="currentColor"
d="M583 -6q99 4 104 10q0 1 -3 5q-21 27 -21 85v61h139q89 -1 144 -10v86q-40 -9 -142 -8h-141v89h55q112 -1 175 -6q-10 66 -10 119v357q1 41 -3 54q-4 18 -16 28q-22 22 -112 35q-11 -54 -42 -97q62 7 80 -1q19 -6 18 -37v-73h-145v51q1 107 10 139h-96q9 -42 10 -137v-51
h-135v45q1 108 10 161h-97q12 -46 12 -162v-292q0 -76 -6 -139q4 0 13 1q97 5 144 5h59v-89h-95q-116 0 -147 8v-88q76 10 147 12h95v-43q0 -85 -4 -118zM794 8q36 35 65 94l-71 37q-23 -50 -62 -89zM151 24q74 2 105 14q0 1 -4 8q-22 34 -22 77v151q63 3 109 -6v86
q-30 -6 -109 -6v293q28 -18 94 -52q6 -3 9 -5l6 87q-134 54 -264 139l-29 -97q7 -3 20 -8q69 -26 89 -36v-321q-40 -3 -105 6v-86q19 7 105 6v-153q0 -70 -4 -97zM587 375h-135v94h135v-94zM663 375v94h145v-94h-145zM808 532h-145v95h145v-95zM452 532v97h135v-97h-135z
" />
</svg>
