<?xml version="1.0" standalone="no"?>
<!DOCTYPE svg PUBLIC "-//W3C//DTD SVG 1.1//EN" "http://www.w3.org/Graphics/SVG/1.1/DTD/svg11.dtd" >
<svg xmlns="http://www.w3.org/2000/svg" xmlns:xlink="http://www.w3.org/1999/xlink" version="1.1" viewBox="-10 0 1034 1024">
  <g transform="matrix(1 0 0 -1 0 820)">
   <path fill="currentColor"
d="M820 308v15q0 34 14 64h-59q1 -7 5 -16l2 -63l-371 1q-9 1 -17 2q-3 0 -12 2v-47q1 0 38 5l362 1v-322q0 -24 -21 -37q-24 -9 -61 -10q-28 0 -62 4q12 -28 20 -53q51 4 62 7q63 7 84 30q15 18 16 52v329q111 0 127 -2q15 0 23 -4v47q-1 0 -54 -5q-4 1 -8 0h-88zM440 653
q37 3 77 4q55 1 118 7l168 22q54 9 89 12q18 3 43 3l-37 54q-36 -16 -68 -24q-78 -15 -153 -25q-39 -4 -87 -8q-48 -3 -101 -3q-63 0 -104 9q3 -9 8 -19q6 -15 10 -33q18 1 37 1zM428 567q25 -36 55 -82q30 -51 46 -93q15 10 41 27l-107 170q-15 -12 -35 -22zM504 178
q-6 6 -16 13q-12 -15 -28 -31q63 -48 91 -77q25 -24 58 -65q15 22 27 33l7 7q-3 3 -8 6l-73 65zM652 612q-19 -12 -36 -19q58 -108 73 -162q24 12 43 18q-4 10 -9 20zM891 534q3 4 11 15q18 27 44 43q-30 12 -59 30q-19 -52 -50 -107q-42 -72 -64 -90q25 -6 47 -17
q16 28 33 58q18 34 38 68zM255 450q94 0 114 -2q9 -1 21 -4v47q-6 -1 -12 -3q-12 0 -50 -2h-73v190q0 12 2 27q3 21 12 38h-58q0 -3 3 -10q0 -27 3 -55v-190h-87q-33 0 -54 3q-1 0 -12 2v-47q3 3 12 3q37 3 54 3h87v-370q-54 -18 -101 -30q-51 -12 -70 -15q12 -15 30 -52
q19 10 70 31l79 28l172 53q0 19 5 47q-36 -15 -70 -26q-33 -12 -77 -23v357z" />
  </g>

</svg>
