<?xml version="1.0" standalone="no"?>
<!DOCTYPE svg PUBLIC "-//W3C//DTD SVG 1.1//EN" "http://www.w3.org/Graphics/SVG/1.1/DTD/svg11.dtd" >
<svg xmlns="http://www.w3.org/2000/svg" xmlns:xlink="http://www.w3.org/1999/xlink" version="1.1" viewBox="-10 0 1034 1024">
  <g transform="matrix(1 0 0 -1 0 820)">
   <path fill="currentColor"
d="M379 645q4 -99 5 -102l-1 -577q-1 -9 -2 -22q0 -4 -2 -8h48q-4 49 -5 87h152q0 -40 -3 -67q-3 -6 -3 -17h49q0 4 -2 9q-3 15 -4 51l1 597q1 24 5 49q-28 -1 -57 -5l-138 1q-19 3 -43 4zM422 59v257h152v-257h-152zM574 352h-152v252h152v-252zM825 503q-132 0 -161 2
q-4 1 -7 1l-13 2v-47q6 3 13 3q27 3 53 3h115v-515q0 -27 -16 -37q-21 -10 -56 -11q-22 0 -51 7q9 -21 13 -39q1 -7 4 -16q111 9 131 36q12 16 13 53v522l99 -3q3 0 7 -3v47l-103 -5h-3v191q0 33 14 64h-59q1 -1 2 -5q0 -1 1 -4l4 -55v-191zM745 175q21 13 41 23
q-15 31 -40 74l-51 88q-13 -10 -37 -23q66 -103 87 -162zM265 105l-23 -6v344l90 -3q4 0 7 -2v46q-10 -3 -14 -3l-83 -2v201q0 9 2 27q3 18 13 38h-59q0 -1 2 -5q0 -7 2 -24l3 -36v-201h-68q-34 0 -53 3q-3 0 -13 2v-46q3 1 13 2q36 3 53 3h68v-353q-60 -15 -96 -22
q-27 -6 -58 -9q9 -18 22 -53q49 19 104 35l182 47q0 24 3 47q-6 -3 -19 -7q-33 -12 -48 -16q-15 -3 -30 -7v0z" />
  </g>

</svg>
