<?xml version="1.0" standalone="no"?>
<!DOCTYPE svg PUBLIC "-//W3C//DTD SVG 1.1//EN" "http://www.w3.org/Graphics/SVG/1.1/DTD/svg11.dtd" >
<svg xmlns="http://www.w3.org/2000/svg" xmlns:xlink="http://www.w3.org/1999/xlink" version="1.1" viewBox="-10 0 1034 1024">
  <g transform="matrix(1 0 0 -1 0 820)">
   <path fill="currentColor"
d="M404 118q1 28 4 57q-24 -19 -55 -36q-39 -18 -104 -45v339l129 -4q3 0 7 -1v46l-101 -5h-35l1 224q0 13 11 36h-56l4 -31l1 -229l-126 3q-6 0 -13 2v-46q30 4 57 5h82v-354q-18 -9 -34 -14q-57 -18 -98 -28l-25 -6q16 -21 31 -50q67 31 143 64q1 1 5 2l150 62q10 4 22 9z
M374 23q45 3 65 5h194l-1 -153q-4 -24 -5 -46h50q-3 9 -5 46v153l263 -1l28 -4v46q-28 -1 -57 -5h-234q0 79 3 82q1 10 12 26h-60l2 -11q3 -55 4 -65v-32h-194q-21 0 -65 5v-46zM439 664q1 -33 5 -66l-1 -357q-3 -15 -4 -53q36 3 73 5l343 -1l49 -4q-6 63 -6 93q0 45 3 63
q0 18 3 38q-34 -1 -69 -5h-353v92l340 -1l49 -4q-4 52 -5 105q0 36 3 73q0 12 2 22q-33 -1 -68 -5h-176q6 12 13 24q27 48 66 74l-73 19q-9 -37 -17 -60q-10 -25 -27 -57q-78 0 -107 2q-12 3 -43 3zM482 505v118h345v-118h-345zM859 229h-377v112h377v-112z" />
  </g>

</svg>
