<?xml version="1.0" standalone="no"?>
<!DOCTYPE svg PUBLIC "-//W3C//DTD SVG 1.1//EN" "http://www.w3.org/Graphics/SVG/1.1/DTD/svg11.dtd" >
<svg xmlns="http://www.w3.org/2000/svg" xmlns:xlink="http://www.w3.org/1999/xlink" version="1.1" viewBox="-10 0 1034 1024">
  <g transform="matrix(1 0 0 -1 0 820)">
   <path fill="currentColor"
d="M197 438v-352q-97 -36 -158 -36q21 -34 29 -62l32 17q60 24 117 43l146 54l-3 51q-42 -30 -124 -57v342h65q30 0 61 -5v46q-30 -1 -61 -5h-65v207q0 12 2 29q0 13 12 34h-59q3 -12 3 -17q1 -27 3 -47v-206q-124 3 -142 5v-46q4 0 11 1q7 3 34 4h97zM604 34q19 9 40 16
q-3 25 -3 52q-48 -27 -73 -39l-103 -35q-72 -24 -115 -36q-36 -7 -84 -14q12 -21 23 -51q1 -3 3 -7q21 12 66 29l121 44zM343 541q9 0 19 2q-1 0 9 1q24 0 40 2h243q7 -133 9 -147q1 -39 10 -93q16 -132 56 -246q-60 -90 -118 -136q-45 -34 -90 -53q33 -12 60 -31
q96 78 169 179q16 -33 31 -52q36 -58 59 -81q34 -37 65 -38q25 0 42 24q10 22 18 51l17 71q-25 10 -51 29q0 -19 1 -39q0 -18 -4 -37q-12 -48 -33 -48q-12 0 -32 28l-47 63q-25 40 -40 75q51 103 93 244q12 46 22 63q9 15 30 31q-39 10 -72 23q-3 -40 -11 -76
q-7 -36 -24 -84l-32 -95l-25 -64q-12 33 -22 74q-9 45 -20 108l-12 98l-9 159h210q34 0 60 -5v46q-24 -4 -60 -5h-210q0 135 3 150q1 22 10 41q-13 -1 -30 -2q-10 0 -33 3q3 -28 5 -48l3 -144l-268 1q-31 3 -41 4v-46zM542 161q31 -1 64 -5q-4 54 -5 111q0 99 2 112
q0 19 3 40q-33 -1 -66 -5q-93 0 -121 2q-3 1 -6 1q-12 0 -31 2q1 -33 5 -68l-1 -146q-3 -15 -4 -49q51 4 84 5h76zM424 197v181h138v-181h-138zM868 603q15 18 32 36q-28 30 -61 62l-55 49q-13 -18 -32 -32q33 -21 51 -39q15 -13 46 -52q3 -3 6 -8z" />
  </g>

</svg>
