<?xml version="1.0" standalone="no"?>
<!DOCTYPE svg PUBLIC "-//W3C//DTD SVG 1.1//EN" "http://www.w3.org/Graphics/SVG/1.1/DTD/svg11.dtd" >
<svg xmlns="http://www.w3.org/2000/svg" xmlns:xlink="http://www.w3.org/1999/xlink" version="1.1" viewBox="-10 0 1010 1000">
   <path fill="currentColor"
d="M157 6q97 -3 105 10q1 3 -4 12q-18 36 -18 84v168h22q55 0 91 -8v88q-48 -8 -91 -8h-22v263l111 -55l2 89q-188 81 -280 131l-31 -97q9 -2 17 -4q44 -10 78 -25q11 -4 28 -11v-291h-28q-55 0 -95 8v-88q7 1 24 2q40 3 69 6h30v-174q0 -62 -8 -100zM865 30q-8 40 -8 87
v100q0 57 8 93q-51 -8 -101 -8h-87q-1 67 -4 99h137q54 0 93 -8q-8 47 -8 99v272q1 71 -27 92q-23 23 -120 35q0 -58 -42 -105q43 6 59 6q20 1 31 -3q23 -7 23 -41v-279h-154q-4 8 -4 19q101 89 154 153l-77 52q-46 -84 -99 -135q-42 87 -99 155q-31 -28 -74 -42
q89 -70 125 -202h-129v277q1 86 8 133h-91q0 -5 2 -23q6 -58 6 -110v-254q0 -43 -8 -89q-2 -10 -2 -12q16 3 64 7q25 2 39 3h121q0 -7 1 -36q1 -46 1 -63h-93q-92 3 -99 8q2 -7 7 -76q1 -11 1 -17v-94l-8 -93q9 1 29 2q47 3 78 6h242q34 -3 86 -7q13 -1 19 -1zM494 106v129
h288v-129h-288z" />
</svg>
