<?xml version="1.0" standalone="no"?>
<!DOCTYPE svg PUBLIC "-//W3C//DTD SVG 1.1//EN" "http://www.w3.org/Graphics/SVG/1.1/DTD/svg11.dtd" >
<svg xmlns="http://www.w3.org/2000/svg" xmlns:xlink="http://www.w3.org/1999/xlink" version="1.1" viewBox="-10 0 1034 1024">
  <g transform="matrix(1 0 0 -1 0 820)">
   <path fill="currentColor"
d="M370 647l135 -157q9 -12 19 -12q9 0 10 9q-1 3 -1 6l-58 154h-105zM638 407q-27 21 -52 30q-34 12 -81 12q-84 0 -138 -43q-52 -43 -53 -113v-137q0 -36 4 -54q4 -33 36 -67q51 -57 138 -57q67 0 116 33q16 10 33 33v-49h59v457zM641 163q0 -51 -28 -90q-42 -60 -119 -60
q-69 0 -102 46q-19 28 -20 78v158q0 37 15 62q37 57 118 58q73 0 112 -51q24 -33 24 -90v-111z" />
  </g>

</svg>
