<?xml version="1.0" standalone="no"?>
<!DOCTYPE svg PUBLIC "-//W3C//DTD SVG 1.1//EN" "http://www.w3.org/Graphics/SVG/1.1/DTD/svg11.dtd" >
<svg xmlns="http://www.w3.org/2000/svg" xmlns:xlink="http://www.w3.org/1999/xlink" version="1.1" viewBox="-10 0 1034 1024">
  <g transform="matrix(1 0 0 -1 0 820)">
   <path fill="currentColor"
d="M607 -90q0 -27 -17 -32q-12 -4 -36 -5q-24 0 -53 5q9 -21 13 -31l5 -20q42 3 68 8q19 3 35 12q22 12 23 58v314q39 -72 64 -106q24 -34 61 -73q55 -55 160 -128q19 22 42 45q-69 21 -136 76q-52 42 -85 88l82 62q25 18 35 20q15 7 37 12q-25 25 -42 52q-30 -30 -58 -52
l-77 -61q-43 63 -77 147l183 -1q21 -1 43 -5q-6 36 -6 82v84q42 0 86 -3q3 0 7 -3v47q-3 0 -8 -2q-15 0 -32 -2l-53 -1q0 109 2 123q0 15 4 31q-30 -1 -62 -5h-170v62q0 34 15 63h-59q0 -1 1 -5q0 -1 1 -4q3 -72 4 -108v-8h-150q-30 0 -54 3q1 0 -12 2v-47q6 3 12 3
q27 3 54 3h150v-113l-231 2l-17 3v-47q6 3 13 3q27 3 52 3h183v-124l-183 1l-18 2q-3 0 -12 2v-47q1 0 38 5l175 1v-162q-36 -30 -54 -41l-137 -95q-21 -15 -43 -28q-15 -9 -29 -13q19 -24 34 -48q31 31 80 68q117 90 149 110v-182zM645 497v113h188v-113h-188zM645 337v124
h188v-124h-188zM401 217l72 -47q27 -21 50 -44q4 10 21 29q3 3 6 7q-9 9 -20 16q-78 52 -114 79q-12 -19 -26 -33q4 -3 11 -7zM234 86v344l95 -3q3 0 8 -3v47q-6 -1 -13 -3l-90 -2v223q0 9 2 27q3 16 13 38h-59q6 -54 6 -65v-223q-100 0 -124 2l-17 3v-47q3 3 12 3
q36 3 129 3v-360l-85 -28q-30 -7 -56 -11q13 -25 27 -55q46 24 110 49l181 68q0 12 6 49q-25 -13 -49 -23q-24 -9 -66 -23q-15 -4 -30 -10v0z" />
  </g>

</svg>
