<?xml version="1.0" standalone="no"?>
<!DOCTYPE svg PUBLIC "-//W3C//DTD SVG 1.1//EN" "http://www.w3.org/Graphics/SVG/1.1/DTD/svg11.dtd" >
<svg xmlns="http://www.w3.org/2000/svg" xmlns:xlink="http://www.w3.org/1999/xlink" version="1.1" viewBox="-10 0 1034 1024">
  <g transform="matrix(1 0 0 -1 0 820)">
   <path fill="currentColor"
d="M213 58l80 27q39 13 87 32l3 58q-49 -34 -147 -66v340h71q28 0 52 -5v46q-33 -4 -62 -5h-61v196q0 7 2 26q1 13 11 32h-57q1 -30 5 -63v-191h-83q-33 0 -59 5v-46q46 4 92 5h50v-353q-16 -6 -31 -11q-49 -15 -90 -23q-12 -3 -30 -4q12 -27 23 -56q25 15 66 28zM346 306
q36 6 60 6l535 -1q15 0 31 -5v46q-7 0 -57 -6h-181q57 105 74 129q18 28 44 49q-30 10 -58 27q-7 -24 -16 -42q-9 -21 -28 -54q-30 -57 -62 -109l-327 3q-9 3 -15 3v-46zM396 625v-47q12 3 20 3q21 1 45 3l437 -3q3 0 12 -3v47q-39 -4 -58 -5l-449 5h-7zM495 -172q0 4 -1 9
q0 6 -2 10q-1 33 -3 65h348q0 -43 -3 -64q-1 -3 -2 -15h49q-4 31 -5 63l1 267l4 50q-34 -1 -69 -5l-313 1q-19 3 -54 4q6 -63 6 -82l-1 -275q-3 -15 -5 -28h50zM489 -52v224h348v-224h-348zM470 520q7 -9 14 -19l26 -33q15 -24 25 -35q15 -27 35 -65q24 19 36 25
q-30 51 -53 86q-21 30 -51 66q-15 -13 -32 -25zM567 742q31 -22 83 -64l50 -48q10 19 27 37q-28 25 -61 52l-70 55q-13 -16 -29 -32v0z" />
  </g>

</svg>
