<?xml version="1.0" standalone="no"?>
<!DOCTYPE svg PUBLIC "-//W3C//DTD SVG 1.1//EN" "http://www.w3.org/Graphics/SVG/1.1/DTD/svg11.dtd" >
<svg xmlns="http://www.w3.org/2000/svg" xmlns:xlink="http://www.w3.org/1999/xlink" version="1.1" viewBox="-10 0 1010 1000">
   <path fill="currentColor"
d="M173 2q99 4 101 20q0 2 -3 8q-19 37 -19 97v133q60 -1 83 -4v78q-22 -7 -83 -6v258q8 -4 5 -3q52 -28 66 -37q-2 31 11 74q1 3 1 5q-171 74 -240 125q-5 -11 -13 -31q-14 -34 -26 -56q40 -11 116 -42q6 -3 9 -4v-289q-80 0 -119 6v-82q40 8 119 8v-131q0 -71 -8 -127z
M897 58q-4 35 -4 129v635q15 52 -131 71q5 -60 -28 -97q100 29 87 -22v-218h-91q-10 148 -91 327q-38 -44 -58 -49q-16 27 -121 49q5 -50 -35 -93q61 7 76 1q18 -5 17 -31v-204h-87q-4 163 -121 331q-36 -29 -84 -37q83 -87 111 -171q28 -74 26 -224v-268q0 -76 -6 -131
q37 6 122 6q83 0 110 -6q-4 31 -4 129v603q76 -107 74 -353v-252q0 -56 -1 -76q-1 -25 -5 -51q49 6 132 7q80 1 112 -5zM821 127h-91v155h91v-155zM518 127h-87v157h87v-157zM821 348h-91v142h91v-142zM518 350h-87v140h87v-140z" />
</svg>
