<?xml version="1.0" standalone="no"?>
<!DOCTYPE svg PUBLIC "-//W3C//DTD SVG 1.1//EN" "http://www.w3.org/Graphics/SVG/1.1/DTD/svg11.dtd" >
<svg xmlns="http://www.w3.org/2000/svg" xmlns:xlink="http://www.w3.org/1999/xlink" version="1.1" viewBox="-10 0 1034 1024">
  <g transform="matrix(1 0 0 -1 0 820)">
   <path fill="currentColor"
d="M490 -97l-386 1q-19 3 -33 4v-46q12 3 43 4l770 1l65 -4l2 -1v46q-12 -3 -34 -4l-388 -1v82l263 -1q24 0 37 -3q1 0 5 -2v47q-33 -1 -67 -5h-238v82l291 -1q33 0 44 -4l2 -1v47q-54 -6 -85 -6h-252v79h234q9 0 35 -3q13 0 35 -3q-6 48 -6 78q0 75 2 89l4 40
q-34 -1 -70 -5h-234v70q97 0 112 -2q21 0 42 -3q-4 54 -5 83v65l236 -1q22 0 41 -5v47q-12 -3 -27 -3q-21 0 -40 -2h-210q0 51 2 59q0 3 3 22q1 7 8 15h-56q0 -3 1 -6q0 -1 1 -5q0 -42 3 -85h-270q0 58 3 65q3 15 10 26h-55l4 -34l1 -57l-235 1q-7 1 -16 2q-3 0 -9 2v-47
q18 6 67 6h193q0 -78 -2 -108q-3 -6 -3 -40q54 4 112 5h50v-70l-251 1q-19 3 -49 4q4 -109 5 -115l-5 -92q60 6 69 6h231v-79l-304 1l-18 2q-3 0 -14 3v-47q18 6 66 6h270v-82l-271 1q-7 1 -16 2q-1 0 -8 2v-47q18 6 66 6h229v-82zM490 252h-256v126h256v-126zM370 519v107
h270v-107h-270zM529 252v126h260v-126h-260z" />
  </g>

</svg>
