<?xml version="1.0" standalone="no"?>
<!DOCTYPE svg PUBLIC "-//W3C//DTD SVG 1.1//EN" "http://www.w3.org/Graphics/SVG/1.1/DTD/svg11.dtd" >
<svg xmlns="http://www.w3.org/2000/svg" xmlns:xlink="http://www.w3.org/1999/xlink" version="1.1" viewBox="-10 0 1034 1024">
  <g transform="matrix(1 0 0 -1 0 820)">
   <path fill="currentColor"
d="M87 638v-46q49 4 75 5h52q-27 -70 -44 -98q-39 -60 -68 -72q7 -13 12 -24q3 -7 9 -18q30 9 66 9h134v-112q-69 -9 -104 -13q-70 -7 -111 -8q-3 0 -41 4l24 -59q37 10 90 19l142 22q0 -72 -2 -97q-1 -3 -1 -9q0 -3 -2 -15h49q-4 49 -5 75v49l25 4q4 0 10 2q84 10 114 18
l6 46q-33 -9 -78 -19q-51 -12 -77 -15v108q117 0 133 -2q6 0 22 -4v47q-6 0 -8 -1q-3 0 -5 -1l-136 -3h-6v64q0 6 3 22q3 18 14 30h-61q4 -84 5 -87v-29h-148q15 33 45 82q21 49 40 85h217q16 0 43 -3l15 -2v46q-30 -4 -58 -5h-202q30 75 36 84q7 13 24 29q-34 9 -66 21
q-6 -55 -38 -134l-126 3q-3 1 -18 2zM508 -99l-386 1q-31 3 -48 4v-46q33 3 68 5l792 -1q16 0 28 -4v46q-33 -1 -67 -5h-348v121l266 -1q6 0 31 -5v48l-62 -6h-235v25q0 3 4 26q3 16 11 29h-59q1 -25 5 -53v-27l-251 1q-9 1 -39 2q-6 3 -13 3v-48q16 4 43 5l260 1v-121z
M789 454q-3 -303 -5 -318q-1 -1 -1 -3h48q-4 52 -5 97v224h60l42 -4l19 -2v47q-60 -6 -80 -6h-245v170q12 0 143 18q12 3 158 23q-25 27 -41 54q-43 -22 -98 -36q-45 -9 -96 -16q-55 -6 -78 -7q-10 0 -32 3q3 -46 4 -85l1 -91q0 -93 -8 -144q-15 -93 -52 -147
q-21 -31 -67 -51q28 -12 58 -28q54 58 80 132q12 39 19 72q4 36 9 98h167z" />
  </g>

</svg>
