<?xml version="1.0" standalone="no"?>
<!DOCTYPE svg PUBLIC "-//W3C//DTD SVG 1.1//EN" "http://www.w3.org/Graphics/SVG/1.1/DTD/svg11.dtd" >
<svg xmlns="http://www.w3.org/2000/svg" xmlns:xlink="http://www.w3.org/1999/xlink" version="1.1" viewBox="-10 0 1010 1000">
   <path fill="currentColor"
d="M240 -17q75 12 103 25q0 1 -4 5q-16 14 -29 35q-11 18 -20 41q-2 4 -2 5h81q64 -1 137 -12v81q-31 -6 -137 -6h-107q-16 27 -52 92q-13 24 -20 37h102q1 -58 -8 -91q98 0 101 8q0 1 -3 6q-21 29 -21 77q94 -1 129 -8v78q-31 -6 -127 -6v77q5 -1 19 -3q63 -9 116 -19
l-20 80q-7 0 -20 1q-72 2 -95 6q0 65 8 100h-89q9 -35 10 -96q-130 12 -213 34l-23 -89q90 3 236 -8v-83h-46q-96 2 -137 13l-26 -65q0 -1 6 -4q33 -18 62 -69q14 -25 34 -68q-57 0 -81 1q-28 2 -41 5v-81q46 9 143 10q25 -63 34 -109zM855 14q57 66 66 94q-2 3 -35 2
q-41 0 -65 2q-89 6 -180 21v109h176q70 -1 133 -11v89q-35 -7 -129 -8v99q0 68 1 97q2 35 7 60h-97q10 -44 10 -155v-99h-101q-19 124 -89 244q-30 -19 -90 -34q52 -40 76 -109q20 -52 25 -131q6 -80 -1 -226q157 8 293 -44zM448 556q104 9 104 14q0 1 -3 4q-19 24 -19 67
h145q85 -2 146 -8v86q-36 -6 -138 -6h-153v93h240q114 -1 157 -12v95q-36 -7 -157 -8h-554q-106 0 -143 8v-91q48 7 143 8h238v-93h-137q-116 0 -150 6v-86q40 7 146 8h139q0 -62 -4 -85z" />
</svg>
