<?xml version="1.0" standalone="no"?>
<!DOCTYPE svg PUBLIC "-//W3C//DTD SVG 1.1//EN" "http://www.w3.org/Graphics/SVG/1.1/DTD/svg11.dtd" >
<svg xmlns="http://www.w3.org/2000/svg" xmlns:xlink="http://www.w3.org/1999/xlink" version="1.1" viewBox="-10 0 1034 1024">
  <g transform="matrix(1 0 0 -1 0 820)">
   <path fill="currentColor"
d="M205 483q-87 0 -109 2l-26 4v-47q6 1 17 2q42 3 64 3h54v-339q-60 -15 -94 -22q-27 -6 -65 -12q18 -24 29 -49l120 40q45 15 92 28q24 6 51 16l60 18q1 24 3 49q-42 -18 -76 -30t-83 -26v327h65q36 0 53 -5v47q-18 -6 -52 -6h-66v185q0 21 4 34q1 15 15 31h-62
q6 -27 6 -64v-186zM602 239q-60 -181 -224 -299q-49 -33 -129 -57q19 -12 27 -19q3 -4 20 -21q127 69 210 156q54 63 85 115q27 48 51 125l198 -1q15 0 48 -4q-4 60 -5 80q0 138 2 151q0 19 3 40q-55 -4 -84 -5h-99q96 130 124 164q-18 -1 -32 -3q-24 -3 -34 -3h-218
q54 70 58 74q12 13 32 21l-14 8q-3 0 -8 3q-10 6 -19 10q-6 3 -16 13q-33 -72 -106 -150q-57 -58 -133 -100q33 -15 51 -29q15 12 29 26l51 47l45 41h228q-45 -64 -93 -122l-200 1q-3 0 -50 4q1 -31 5 -65l-1 -153q-3 -15 -4 -53q54 4 112 5h90zM442 275v189h186l-7 -103
q-3 -40 -12 -86h-167zM648 275q9 51 12 82l8 107h177v-189h-197zM679 114q0 21 3 34q1 15 15 32h-61q4 -49 5 -85l1 -154q3 -33 18 -48q22 -27 104 -28q45 0 90 4q48 4 72 30q24 28 48 93q-18 6 -49 27q-7 -57 -20 -79q-12 -19 -47 -29q-28 -7 -87 -8q-67 0 -82 20
q-9 12 -10 51v140zM756 154q21 -18 59 -55q21 -24 36 -38q12 -13 22 -27q13 19 32 33q-13 15 -27 28l-89 90q-10 -13 -22 -22q-6 -4 -11 -9v0z" />
  </g>

</svg>
