<?xml version="1.0" standalone="no"?>
<!DOCTYPE svg PUBLIC "-//W3C//DTD SVG 1.1//EN" "http://www.w3.org/Graphics/SVG/1.1/DTD/svg11.dtd" >
<svg xmlns="http://www.w3.org/2000/svg" xmlns:xlink="http://www.w3.org/1999/xlink" version="1.1" viewBox="-10 0 1034 1024">
  <g transform="matrix(1 0 0 -1 0 820)">
   <path fill="currentColor"
d="M185 116q-84 -27 -147 -43q16 -24 29 -52q78 42 292 126q0 25 3 50q-34 -19 -139 -64v346h55q34 0 57 -5v46q-22 -6 -57 -6h-55v167q0 21 3 34q1 13 14 32h-61q3 -12 3 -17l3 -138v-78q-81 0 -102 2l-25 4v-46q49 4 74 5h53v-363zM480 762q-27 -99 -82 -194
q-48 -79 -83 -123q-33 -39 -68 -61q13 -3 41 -17q9 -6 16 -8q16 24 34 47l66 98v-583q0 -45 -5 -74h48q-3 19 -4 41l-1 682q25 49 39 79q18 42 29 55q9 13 32 29zM686 156q-39 -96 -110 -171q-61 -57 -122 -80q18 -12 35 -29q4 -3 10 -8q39 25 123 110q57 63 94 150
q42 -91 86 -148q51 -60 133 -120q19 18 50 34q-85 34 -144 101q-54 63 -95 161h169q36 0 56 -5v46q-24 -4 -56 -5h-184l8 148h114q34 0 57 -5v46q-7 -1 -14 -3q-21 -1 -43 -2h-255q0 3 14 25q21 45 52 61q-42 13 -63 25q-24 -75 -56 -127q-42 -63 -89 -93q19 -6 52 -27
q9 18 17 26l38 53q0 1 2 4q6 9 12 17h124q0 -51 -3 -84q-1 -30 -6 -64q-175 0 -197 2l-25 3v-46q12 1 16 2q42 3 65 3h135zM785 534l-265 1q-18 0 -37 4v-46q12 1 17 2q21 1 45 3l382 -1q13 0 27 -4v46q-16 -4 -57 -5h-74q9 105 17 149l6 28q-36 -1 -72 -5l-172 1
q-18 0 -37 4v-46q12 1 17 2q42 3 56 3h161z" />
  </g>

</svg>
