<?xml version="1.0" standalone="no"?>
<!DOCTYPE svg PUBLIC "-//W3C//DTD SVG 1.1//EN" "http://www.w3.org/Graphics/SVG/1.1/DTD/svg11.dtd" >
<svg xmlns="http://www.w3.org/2000/svg" xmlns:xlink="http://www.w3.org/1999/xlink" version="1.1" viewBox="-10 0 1010 1000">
   <path fill="currentColor"
d="M409 -6q102 23 109 34q-1 3 -7 8q-17 14 -23 32q-29 73 -46 121v563q0 137 8 149h-97q12 -52 14 -143v-398q-37 69 -65 111q-15 -47 -56 -74q27 -27 46 -57q-45 -9 -82 -6v281q47 -11 115 -45l-10 95q-82 18 -275 89l-20 -95q59 -8 111 -22v-303q-70 -1 -99 8v-82
q26 5 99 6v-153q1 -89 -8 -115q101 5 109 14q0 1 -2 4q-20 28 -20 92v156q52 0 86 -8v78q89 -150 113 -340zM452 830q157 -47 193 -211h-46q-78 -3 -129 6v-81q43 8 127 8h62q7 -47 8 -105h-86l-31 65q-40 -16 -82 -16q69 -82 97 -208q-65 -1 -83 6v-83q39 7 113 8h137v-96
h-57q-96 1 -133 8v-83q58 7 135 8h25q53 0 110 -5q6 -1 9 -1q-6 45 -6 101v68q90 0 135 -6v85q-48 -8 -129 -10h-248q69 22 76 32q0 2 -6 8q-24 22 -40 55h147q96 0 127 -6v74q-24 -4 -125 -4h-14q-2 53 -8 105h70q84 0 135 -6v77q-26 -5 -102 -4h-27h-48q53 162 206 209
q-48 29 -81 75q-133 -101 -177 -244q-37 146 -176 242q-30 -41 -78 -71z" />
</svg>
