<?xml version="1.0" standalone="no"?>
<!DOCTYPE svg PUBLIC "-//W3C//DTD SVG 1.1//EN" "http://www.w3.org/Graphics/SVG/1.1/DTD/svg11.dtd" >
<svg xmlns="http://www.w3.org/2000/svg" xmlns:xlink="http://www.w3.org/1999/xlink" version="1.1" viewBox="-10 0 1034 1024">
  <g transform="matrix(1 0 0 -1 0 820)">
   <path fill="currentColor"
d="M246 69l87 28l24 9l3 55q-33 -24 -134 -56v340l110 -3q3 0 10 -3v46q-45 -1 -89 -5h-31v210q0 18 3 33q3 18 12 31h-57q0 -12 2 -18l3 -46v-210q-118 3 -132 5v-46q24 6 46 6h86v-352q-51 -16 -83 -25q-27 -6 -60 -9q15 -24 28 -57q24 15 38 20q9 4 55 21q39 13 79 26z
M889 -116q25 0 66 -5v46q-9 0 -60 -5q-3 1 -5 0h-461v747l483 -1l33 -4v46q-9 0 -60 -5q-4 1 -8 0l-437 1l-55 4q1 -36 5 -73l-1 -709q-3 -15 -4 -47q37 3 77 5h427zM541 587q1 -27 5 -56q0 -138 -2 -167q-3 -6 -3 -38q13 1 28 3l39 4l221 -1q6 0 14 -2q13 -1 35 -4
q-4 52 -5 102l1 122l4 47q-18 -1 -35 -3q-22 -3 -32 -3l-222 1q-9 1 -48 5v-10zM584 480v75h250v-75h-250zM584 368v76h250v-76h-250zM464 195l25 4l118 2q-9 -10 -16 -21q-9 -13 -22 -29l-42 -41l94 -24l45 -19l24 -9q-30 -21 -61 -35q-27 -10 -59 -19q-31 -7 -54 -8l-30 1
q18 -18 25 -50q154 36 227 96q76 -30 102 -43l32 -18q16 -9 39 -24q0 9 4 13q6 19 14 34q-55 25 -139 59q-10 3 -23 7q48 51 81 130q54 0 113 -3l2 -1q3 0 7 -2v47q-9 0 -11 -2q-25 0 -51 -3h-224q30 45 68 53q-36 19 -60 39q-24 -51 -55 -92l-131 1q-19 3 -42 4v-47z
M803 201q-28 -64 -80 -115q-94 37 -121 48l56 67h145z" />
  </g>

</svg>
