<?xml version="1.0" standalone="no"?>
<!DOCTYPE svg PUBLIC "-//W3C//DTD SVG 1.1//EN" "http://www.w3.org/Graphics/SVG/1.1/DTD/svg11.dtd" >
<svg xmlns="http://www.w3.org/2000/svg" xmlns:xlink="http://www.w3.org/1999/xlink" version="1.1" viewBox="-10 0 1034 1024">
  <g transform="matrix(1 0 0 -1 0 820)">
   <path fill="currentColor"
d="M48 32q16 -25 27 -57q36 22 48 27l144 62q1 1 4 1q16 4 68 26q15 9 26 12q1 28 4 57q-33 -21 -45 -26q-24 -12 -51 -24q-15 -7 -39 -16v352q90 0 103 -2q9 0 20 -3v46q-10 -1 -28 -3l-95 -2v186q0 13 2 33q1 18 11 34h-58q1 -10 3 -19q3 -42 3 -48v-186l-96 2q-3 0 -28 3
v-46q3 1 8 1q6 3 36 3l80 1v-368q-3 -1 -7 -2q-6 -3 -14 -6q-63 -21 -85 -29q-10 0 -41 -9zM320 175q57 4 86 5h18l-1 -264q-3 -15 -4 -48q64 4 127 5l344 -1q9 0 45 -4v47q-9 -3 -15 -3l-52 -3h-405v271l470 -1q1 0 34 -4v46q-48 -4 -67 -5h-80v372q88 0 99 -2q6 0 16 -3
v45q-33 -4 -55 -5h-60v91q0 25 14 54h-59q6 -54 6 -73v-72h-265q0 105 3 114q1 12 9 23h-55q1 -27 5 -55v-82q-60 0 -115 5v-45q33 4 65 5h50v-372h-87q-6 0 -50 3q-7 0 -21 2v-46zM516 354v98h265v-98h-265zM516 487v101h265v-101h-265zM516 216v102h265v-102h-265zM476 -4
q28 -15 44 -30l77 85q0 3 36 42q15 15 41 27q-30 15 -55 33q-27 -46 -67 -92q-34 -37 -76 -65zM728 108q48 -39 72 -63q18 -18 65 -72q12 18 27 37q-60 73 -134 133q-15 -18 -30 -35v0z" />
  </g>

</svg>
