<?xml version="1.0" standalone="no"?>
<!DOCTYPE svg PUBLIC "-//W3C//DTD SVG 1.1//EN" "http://www.w3.org/Graphics/SVG/1.1/DTD/svg11.dtd" >
<svg xmlns="http://www.w3.org/2000/svg" xmlns:xlink="http://www.w3.org/1999/xlink" version="1.1" viewBox="-10 0 1010 1000">
   <path fill="currentColor"
d="M734 4q88 -1 101 18q1 4 -6 15q-16 24 -16 45v55q73 0 116 -8v86q-44 -9 -116 -10v337q84 0 133 -8v85q-7 -3 -59 -6q-57 -2 -75 -1h-354v184h296q81 0 151 -8v85q-12 -3 -72 -6t-79 -2h-244q-78 0 -135 8q4 -14 7 -58q2 -39 1 -65v-138q-33 0 -62 6q-7 1 -9 1v-83
q2 0 8 1q46 7 111 7v-339q-97 5 -114 10v-86q48 8 114 8v-51q0 -48 -8 -82q89 7 103 16q0 1 -3 5q-23 27 -21 63v49h240v-57q0 -40 -8 -76zM502 205v69h240v-69h-240zM502 342v67h240v-67h-240zM502 477v67h240v-67h-240zM736 613q64 39 145 102l-60 45q-57 -56 -134 -99z
M599 621q55 29 68 44q0 1 -11 8q-64 41 -128 103q-25 -34 -58 -51q63 -34 129 -104zM308 596l-4 79q-117 23 -248 93l-32 -81l127 -42v-299q-66 0 -107 8v-86q57 8 107 8v-161q-2 -49 -12 -93q94 10 107 18q1 2 -4 10q-20 37 -20 77v151q91 -5 107 -10v86q-8 -3 -49 -6
q-38 -3 -58 -2v277z" />
</svg>
