<?xml version="1.0" standalone="no"?>
<!DOCTYPE svg PUBLIC "-//W3C//DTD SVG 1.1//EN" "http://www.w3.org/Graphics/SVG/1.1/DTD/svg11.dtd" >
<svg xmlns="http://www.w3.org/2000/svg" xmlns:xlink="http://www.w3.org/1999/xlink" version="1.1" viewBox="-10 0 1010 1000">
   <path fill="currentColor"
d="M214 10q37 37 84 98l-58 35q-32 -46 -83 -91zM897 60q0 3 -1 14q-5 40 -5 77v332q1 63 -26 80q-24 19 -121 23q-9 -43 -30 -76q-7 -10 -6 -14q121 22 111 -37v-40h-176q-19 81 -85 153q-44 -32 -92 -33q-6 0 -6 -1q70 -31 99 -102q28 -64 26 -199v-98q0 -41 -6 -76v-3
q15 3 88 6h125q60 0 105 -6zM819 125h-162v100h162v-100zM657 280l-4 83h166v-83h-162zM464 570q83 1 96 12q1 5 -6 14q-16 20 -16 43h196q74 0 119 -8v84h-2q-33 -8 -113 -8h-194v93h238q108 0 153 -12v87q0 1 -13 -1q-65 -7 -136 -7h-580q-117 0 -146 8v-83h2q27 8 142 8
h264v-93h-202q-51 -1 -109 8v-84q2 0 6 1q53 7 105 7h200q0 -12 -3 -48q-1 -14 -1 -21zM323 151q39 -58 72 -133q90 22 89 36q-1 4 -8 8q-38 19 -83 89h79q8 0 27 -1q25 -1 41 -1v70q-18 -4 -64 -4h-127v162h88v-47q0 -27 -7 -57q-2 -10 -1 -11q55 0 69 1q19 1 20 5
q0 3 -4 8q-10 12 -10 36v119q0 40 4 56h-71v-50h-94q-33 112 -208 196q-32 -39 -71 -63q-10 -6 -10 -8q162 -26 214 -125h-91q-42 0 -60 4q4 -33 4 -72v-59q0 -14 -3 -51q-1 -5 -1 -7q80 1 85 8q1 4 -4 9q-10 13 -10 33v75h92q4 -75 4 -162h-143q-48 0 -68 4v-72q4 0 12 1
q27 2 54 3h184z" />
</svg>
