<?xml version="1.0" standalone="no"?>
<!DOCTYPE svg PUBLIC "-//W3C//DTD SVG 1.1//EN" "http://www.w3.org/Graphics/SVG/1.1/DTD/svg11.dtd" >
<svg xmlns="http://www.w3.org/2000/svg" xmlns:xlink="http://www.w3.org/1999/xlink" version="1.1" viewBox="-10 0 1034 1024">
  <g transform="matrix(1 0 0 -1 0 820)">
   <path fill="currentColor"
d="M82 536q36 6 66 6h162l2 -118q0 -39 -4 -94l-115 -6q0 102 2 123l3 28h-48q4 -33 5 -70q0 -55 -2 -86q-3 -6 -3 -38q18 3 43 5l2 1q7 0 16 2q43 3 89 4q-42 -82 -106 -132q-39 -25 -103 -39q25 -16 48 -42q57 31 112 79q49 48 91 137l131 5q-1 -22 -3 -47q-1 -1 -2 -13
h49q0 9 -2 20q-3 39 -3 109q0 58 3 90q0 9 2 17h-49q4 -94 5 -97v-43l-127 -5q3 58 4 96l-1 114l184 -1q9 0 30 -5v47q-30 -4 -62 -5h-103q69 93 75 98q7 7 12 14q15 15 43 23q-31 15 -69 36q-4 -16 -11 -29q-7 -15 -24 -40q-24 -37 -39 -59q-13 -19 -33 -43h-204
q-24 0 -66 5v-47zM89 -86v-46q3 0 55 5l794 -3q3 0 15 -2v46q-42 -3 -64 -5h-349v128q262 0 273 -2q4 0 10 -1l15 -2v47l-68 -6h-230v17q0 34 15 52h-60q0 -6 3 -12q0 -27 3 -57l-231 1q-36 3 -39 4q-3 0 -7 1v-47q34 4 70 5h207v-128h-348q-36 1 -50 4q-7 1 -14 1zM188 732
q-16 -13 -35 -25q51 -54 95 -120q16 15 35 31l-35 46zM856 317v-88q0 -30 -15 -38q-21 -6 -38 -7q-21 0 -54 14q16 -27 23 -58l43 5q39 6 56 17q24 18 25 68l1 418l5 46q-48 -6 -83 -6q-142 0 -173 2q-6 1 -19 2q-7 0 -24 2q6 -40 9 -74q3 -36 3 -84q0 -61 -3 -108
q-1 -43 -6 -68q-12 -69 -51 -125q-21 -28 -67 -48q28 -12 52 -31q66 75 97 161h219zM643 353q4 43 6 70l1 49h206v-119h-213zM650 508v144h206v-144h-206z" />
  </g>

</svg>
