<?xml version="1.0" standalone="no"?>
<!DOCTYPE svg PUBLIC "-//W3C//DTD SVG 1.1//EN" "http://www.w3.org/Graphics/SVG/1.1/DTD/svg11.dtd" >
<svg xmlns="http://www.w3.org/2000/svg" xmlns:xlink="http://www.w3.org/1999/xlink" version="1.1" viewBox="-10 0 1034 1024">
  <g transform="matrix(1 0 0 -1 0 820)">
   <path fill="currentColor"
d="M255 124l78 33q10 7 22 13l3 52q-21 -16 -39 -27q-18 -10 -53 -26q-10 -6 -24 -12v307h71q25 0 61 -5v46q-30 -1 -60 -5h-72v199q0 15 4 27q1 15 13 32h-61q1 -30 5 -63v-195l-124 3q-6 1 -16 2v-46q64 4 81 5h59v-323q-18 -6 -37 -14q-42 -18 -67 -26q-21 -4 -49 -9
q16 -25 32 -52q34 22 45 26q10 6 128 58zM584 -69q0 -18 -8 -27q-15 -12 -48 -12q-27 0 -66 9q13 -27 23 -56q28 0 45 3q49 6 72 25q21 15 21 57l1 345q0 21 4 48q-36 -1 -72 -5l-142 1q-15 3 -48 4v-46q66 6 97 5h121v-177q-24 -13 -53 -26q-30 -15 -77 -35
q-75 -31 -126 -41q18 -24 31 -52q58 42 225 111v-131zM401 200q63 -64 82 -92l30 30q-18 24 -35 42q-16 18 -48 47q-15 -13 -29 -27zM440 717q1 -33 5 -68l-1 -194q-3 -15 -4 -52q49 4 74 5l319 -1l52 -4q-4 60 -5 83l1 181l4 50q-36 -1 -73 -5l-320 1q-19 3 -52 4zM482 444
v97h359v-97h-359zM482 577v99h359v-99h-359zM886 -45q0 -27 -9 -39q-18 -16 -61 -17q-15 0 -66 8q16 -25 25 -57q96 13 125 33q24 18 25 73l1 319l4 50q-60 -6 -81 -6l-128 1q-36 3 -39 4q-3 0 -7 1v-47q39 4 68 5h143v-175q-72 -37 -143 -69q-45 -15 -85 -25q13 -19 30 -50
q24 18 38 25q13 9 53 26q1 0 68 35l39 19v-114zM701 212q51 -58 68 -102q18 16 34 27q0 1 -2 4q-12 25 -20 33q-7 7 -26 34l-26 30q-13 -15 -28 -26v0z" />
  </g>

</svg>
