<?xml version="1.0" standalone="no"?>
<!DOCTYPE svg PUBLIC "-//W3C//DTD SVG 1.1//EN" "http://www.w3.org/Graphics/SVG/1.1/DTD/svg11.dtd" >
<svg xmlns="http://www.w3.org/2000/svg" xmlns:xlink="http://www.w3.org/1999/xlink" version="1.1" viewBox="-10 0 1010 1000">
   <path fill="currentColor"
d="M669 -10q18 34 33 100h100q16 1 78 -2q56 -3 64 -6v79q-1 0 -7 -1q-54 -7 -139 -7h-100v66h92q55 0 93 -8q-8 40 -8 81v56q11 1 45 -2q32 -3 36 -6v81q-5 -3 -37 -6q-36 -3 -44 -2v48q-1 42 8 87q-39 -8 -101 -8h-84v70h80q63 0 107 -8q-8 42 -8 97v103q1 5 2 28
q5 66 8 69h-93q4 -10 7 -34q2 -21 1 -31h-246q-1 32 7 65h-91q3 -8 6 -42q3 -32 2 -47v-115q0 -55 -8 -93q41 8 90 8h65v-70h-50q-56 0 -89 8v-79q45 8 89 8h50v-66h-177q6 306 -148 494q-37 -36 -86 -49q164 -95 163 -423v-230q1 -61 -8 -119q56 8 113 8l131 -2
q-13 -41 -42 -82zM151 6q73 1 97 14q0 1 -2 6q-12 32 -12 64v162q56 0 95 -8v86q-4 -3 -41 -6q-42 -3 -54 -2v262q3 5 89 -32l4 73q-155 60 -267 119l-36 -89q39 1 135 -40v-293q-61 0 -109 8v-86q47 8 109 8v-156q0 -53 -8 -90zM450 153v195h177v-66h-36q-58 0 -101 8v-79
q48 8 103 8h34v-66h-177zM698 282v66h106v-66h-106zM804 411h-106v66h106v-66zM556 673v97h246v-97h-246z" />
</svg>
