<?xml version="1.0" standalone="no"?>
<!DOCTYPE svg PUBLIC "-//W3C//DTD SVG 1.1//EN" "http://www.w3.org/Graphics/SVG/1.1/DTD/svg11.dtd" >
<svg xmlns="http://www.w3.org/2000/svg" xmlns:xlink="http://www.w3.org/1999/xlink" version="1.1" viewBox="-10 0 1010 1000">
   <path fill="currentColor"
d="M440 -12q54 -1 104 14q-20 20 -20 62v44h188v-40q1 -38 -8 -78q57 3 108 16q0 2 -4 7q-19 21 -20 51v42h27q62 1 123 -8v85q-44 -8 -121 -8h-29q0 57 8 105h-92q3 -6 6 -47q3 -42 2 -58h-188q0 60 8 103h-92q8 -46 8 -103q-76 0 -125 8v-85q15 3 125 10v-48q1 -12 -8 -72
zM149 6q91 5 109 18q0 2 -3 6q-17 20 -23 68v156q71 0 133 -8v90q-62 -8 -133 -8v293q36 -12 125 -45l4 81q-108 30 -298 117l-21 -95q36 -10 91 -26q20 -6 28 -8v-317q-65 0 -115 8v-90q61 8 115 8v-144q-1 -56 -12 -104zM581 205q83 19 96 33q0 4 -8 8q-7 4 -8 8
q114 166 303 189q-36 40 -59 93q-52 -19 -143 -79v71q-9 -3 -49 -6q-41 -3 -54 -2h-94q-55 0 -97 8v-69q-62 48 -117 79q-28 -35 -79 -61q235 -91 309 -272zM615 294q-49 78 -127 149q14 3 47 7q18 2 28 3h94q70 -5 87 -10q-65 -56 -129 -149zM395 572q58 8 113 8h224
q67 0 109 -8q-8 52 -8 103v123q-3 27 8 107h-91q3 -8 6 -36q3 -26 2 -33h-280q-1 31 8 63h-91q8 -39 8 -87v-125q1 -58 -8 -115zM478 647v121h280v-121h-280z" />
</svg>
