<?xml version="1.0" standalone="no"?>
<!DOCTYPE svg PUBLIC "-//W3C//DTD SVG 1.1//EN" "http://www.w3.org/Graphics/SVG/1.1/DTD/svg11.dtd" >
<svg xmlns="http://www.w3.org/2000/svg" xmlns:xlink="http://www.w3.org/1999/xlink" version="1.1" viewBox="-10 0 1034 1024">
  <g transform="matrix(1 0 0 -1 0 820)">
   <path fill="currentColor"
d="M376 238q-43 -42 -84 -76q-37 -28 -92 -61q-91 -51 -161 -57q4 -3 9 -8q19 -18 41 -38q69 27 172 91q91 63 170 149h176q63 -75 140 -122q79 -45 202 -82q16 24 45 49h-15q-30 0 -81 14q-42 12 -113 48q-25 12 -51 31q-30 22 -74 62l213 -1q21 0 45 -5v48q-49 -4 -67 -5
h-194v75q78 0 89 -2q1 1 4 0q18 0 40 -4v48q-57 -4 -93 -5h-40v74l99 -1q30 0 50 -5v48q-61 -4 -77 -5h-72v21q0 12 3 28q1 16 11 39h-59q0 -3 1 -8q4 -22 5 -60v-20h-213q0 39 5 54q3 15 10 29h-59q1 -33 5 -69v-14h-86q-34 0 -67 5v-48q48 6 78 6h75v-74h-76q-46 0 -68 5
v-48q36 6 59 6h85v-75h-205q-43 0 -67 5v-48q36 6 59 6h223zM405 275v75h213v-75h-213zM405 387v74h213v-74h-213zM121 575q0 -58 -5 -78h49q0 3 -2 7l-4 71v41h697q0 -63 -5 -108h47q-6 51 -5 85q1 33 5 66l-62 -7h-280q12 19 30 33q-24 18 -43 29l-109 67q-9 -18 -28 -39
q67 -27 141 -90l-383 1q-10 1 -22 3q-1 0 -4 1q-6 0 -22 2q4 -66 5 -84zM494 -91h-291q-42 0 -67 6v-49q19 4 50 5l646 1q42 0 59 -4q3 0 7 -2v49q-12 -3 -19 -3q-24 -1 -36 -3h-310v127q144 0 167 -2q18 0 34 -4v48q-7 -1 -19 -3l-182 -2v51q0 33 14 64h-59q0 -9 2 -20
q3 -15 4 -68v-27l-188 1l-34 4v-48q36 6 62 6h160v-127z" />
  </g>

</svg>
