<?xml version="1.0" standalone="no"?>
<!DOCTYPE svg PUBLIC "-//W3C//DTD SVG 1.1//EN" "http://www.w3.org/Graphics/SVG/1.1/DTD/svg11.dtd" >
<svg xmlns="http://www.w3.org/2000/svg" xmlns:xlink="http://www.w3.org/1999/xlink" version="1.1" viewBox="-10 0 1010 1000">
   <path fill="currentColor"
d="M534 -2q25 53 33 104h237q78 0 113 -10q-9 99 -2 172h-94q6 -28 6 -97h-178v73h28q67 0 123 -7v71q-55 -8 -121 -8h-30v60h26q81 0 123 -8v69q-55 -11 -119 -12h-30v64h113q72 -1 135 -10v73q-71 -9 -131 -8h-123q120 105 309 109q-48 49 -65 92q-96 -32 -167 -68v62
q-54 -8 -105 -8h-91v81h190q34 0 125 -6q18 -1 28 -2v83q-82 -7 -153 -7h-454q-94 1 -155 7v-83q63 8 155 8h188v-81h-77q-72 0 -125 8v-68q-64 38 -153 72q-15 -27 -53 -72q147 -26 275 -127h-113q-78 1 -121 8v-71q46 7 117 8h143v-62h-59q-67 0 -97 8v-65q43 7 95 8h61
v-64h-26q-85 1 -125 8v-65q53 7 123 7h28v-77h-176q1 68 4 95h-90q2 -29 3 -67q1 -18 1 -41v-60q66 8 111 8h280q-5 -31 -34 -86zM409 167v77h170v-77h-170zM579 294h-170v64h170v-64zM409 407v62h170v-62h-170zM393 524q-78 82 -141 121q46 5 117 6h81q0 -65 -6 -89
q92 1 100 10q0 4 -4 11q-14 24 -14 68h89q16 0 64 -3q15 -1 23 -1q-71 -45 -135 -123h-174z" />
</svg>
