<?xml version="1.0" standalone="no"?>
<!DOCTYPE svg PUBLIC "-//W3C//DTD SVG 1.1//EN" "http://www.w3.org/Graphics/SVG/1.1/DTD/svg11.dtd" >
<svg xmlns="http://www.w3.org/2000/svg" xmlns:xlink="http://www.w3.org/1999/xlink" version="1.1" viewBox="-10 0 1034 1024">
  <g transform="matrix(1 0 0 -1 0 820)">
   <path fill="currentColor"
d="M447 670h451q37 0 52 -3l11 -2v46l-63 -5l-451 1q-3 1 -43 4q6 -69 6 -91l-1 -318q-1 -9 -2 -20q-3 -40 -19 -144q-6 -21 -11 -45q-31 -84 -75 -143q-30 -36 -58 -48q33 -15 58 -32q24 36 39 63q13 21 26 45q48 84 64 176q15 93 16 180v336zM403 -69q24 -13 43 -32
q10 12 21 27q52 63 104 133q25 36 56 50q-27 13 -53 35q-9 -24 -21 -43q-12 -21 -38 -54q-34 -48 -63 -79q-24 -24 -49 -37zM522 267q-3 -30 -5 -61q51 4 104 5h61v-272q0 -30 -12 -36q-16 -6 -41 -6q-21 0 -54 5q9 -21 17 -52q52 6 81 12q46 12 47 61v288q147 0 160 -3
q9 0 20 -2q-3 30 -5 62l1 227q0 18 4 46q-51 -4 -82 -5h-152q15 30 38 70q6 10 27 30q-27 9 -61 24q-9 -45 -15 -60q-6 -21 -26 -64h-50q-9 0 -32 3q-15 0 -30 2q1 -31 5 -64v-210zM559 247v107h298v-107h-298zM857 390h-298v110h298v-110zM898 -16q22 -30 38 -56
q10 15 29 30q3 3 7 6l-155 176q-15 -16 -21 -21q-1 -1 -12 -8q18 -16 90 -96q12 -15 24 -31zM367 158q0 3 1 9l2 17q-33 -18 -126 -49v317l115 -4q4 0 12 -2v47q-7 -3 -13 -4q-12 0 -51 -2h-63l3 228q0 16 11 33h-57l6 -49q-1 -7 0 -18v-194h-79q-36 0 -54 3q-1 0 -11 3v-47
q15 3 30 4q18 1 66 2h48v-328q-99 -34 -161 -43q15 -24 28 -52l36 18l64 25q105 36 192 63q0 12 1 23v0z" />
  </g>

</svg>
