<?xml version="1.0" standalone="no"?>
<!DOCTYPE svg PUBLIC "-//W3C//DTD SVG 1.1//EN" "http://www.w3.org/Graphics/SVG/1.1/DTD/svg11.dtd" >
<svg xmlns="http://www.w3.org/2000/svg" xmlns:xlink="http://www.w3.org/1999/xlink" version="1.1" viewBox="-10 0 1010 1000">
   <path fill="currentColor"
d="M161 6q81 -3 91 6q1 3 -2 17q-12 47 -12 98v131q57 0 101 -6v80q-41 -6 -101 -6v226q13 -6 35 -16q34 -16 46 -22q-2 47 12 76q-219 90 -268 141q-8 -37 -29 -84q-2 -7 -4 -10q41 -13 139 -53v-258q-84 0 -125 6v-80q53 6 125 6v-131q0 -71 -8 -121zM923 54v77
q-24 -6 -108 -6h-107q-20 48 -31 104h79q66 0 111 -6q-5 26 -4 126v52v51q-1 94 4 118q-42 -6 -147 -6v222q3 53 -20 67q-20 18 -113 38q-1 -45 -37 -93q108 22 97 -36v-198q-111 0 -153 6q5 -30 4 -120v-51q0 -87 -1 -117q-1 -38 -3 -59q30 6 115 6q5 -28 10 -87
q1 -11 2 -17h-183v322q8 206 -136 434q-42 -24 -92 -31q166 -181 163 -409q2 -235 -8 -387q42 6 137 6h313q66 1 108 -6zM794 292h-225v71h225v-71zM794 425h-223v75h223v-75zM522 612q72 21 79 35q-1 3 -11 10q-17 11 -25 22q-3 5 -10 15q-41 65 -91 134q-24 -22 -75 -40
q81 -66 133 -176zM815 613q97 90 141 151l-75 58q-47 -82 -131 -157z" />
</svg>
