<?xml version="1.0" standalone="no"?>
<!DOCTYPE svg PUBLIC "-//W3C//DTD SVG 1.1//EN" "http://www.w3.org/Graphics/SVG/1.1/DTD/svg11.dtd" >
<svg xmlns="http://www.w3.org/2000/svg" xmlns:xlink="http://www.w3.org/1999/xlink" version="1.1" viewBox="-10 0 1010 1000">
   <path fill="currentColor"
d="M141 0q107 2 105 12q2 3 -2 9q-22 30 -22 104v135q48 0 97 -10v84q-32 -8 -97 -8v272q48 -15 101 -38q-10 33 2 83q-138 41 -260 99q-14 -57 -35 -93q41 -4 117 -30v-293q-64 0 -107 8v-84q49 10 107 10v-139q0 -43 -4 -93q-1 -19 -2 -28zM389 20q63 8 159 8h142
q102 0 167 -8q-8 53 -8 115v66q0 62 8 115q-69 -8 -161 -8h-152q-86 -1 -155 8q8 -55 8 -107v-78q0 -77 -8 -111zM472 92v47h302v-47h-302zM774 191h-302v53h302v-53zM335 342q72 8 151 8h270q98 0 153 -8q-8 42 -8 107q0 67 8 107q-5 0 -18 -2q-96 -8 -149 -8h-258
q-40 0 -103 6q-32 3 -46 4q8 -39 8 -107q1 -73 -8 -107zM718 409v78h111v-78h-111zM415 409v78h95v-78h-95zM659 409h-94v78h94v-78zM355 584q53 8 139 8h222q86 0 153 -8q-82 118 -179 192q45 16 124 25q78 9 140 5q-37 40 -47 95q-179 -30 -286 -81q-108 49 -296 83
q-14 -41 -53 -85q164 0 274 -40q-85 -58 -133 -121q-28 0 -58 6v-79zM712 657h-202q61 69 109 87q59 -38 93 -87z" />
</svg>
