<?xml version="1.0" standalone="no"?>
<!DOCTYPE svg PUBLIC "-//W3C//DTD SVG 1.1//EN" "http://www.w3.org/Graphics/SVG/1.1/DTD/svg11.dtd" >
<svg xmlns="http://www.w3.org/2000/svg" xmlns:xlink="http://www.w3.org/1999/xlink" version="1.1" viewBox="-10 0 1034 1024">
  <g transform="matrix(1 0 0 -1 0 820)">
   <path fill="currentColor"
d="M133 625q-57 3 -62 5v-44l2 1q3 0 60 4l390 -1q12 0 28 -4v44q-16 -4 -56 -5h-145q12 13 25 27q-6 6 -18 14q-9 7 -8 7q-49 37 -59 42q-12 7 -30 21l-30 -32q15 -4 45 -26q21 -15 70 -53h-212zM481 -81l-377 1q-9 1 -21 2q-3 0 -11 2v-44q24 4 56 5l780 -1q13 0 24 -4v44
q-27 -1 -56 -5h-357v100h270q37 0 55 -5v44q-27 -1 -55 -5h-270q0 36 3 52q1 15 15 29h-61q4 -49 5 -81l-306 1q-9 1 -21 2q-1 0 -10 2v-44q31 4 62 5h275v-100zM314 251q-69 -10 -98 -14q-117 -12 -133 -13q7 -15 8 -21l7 -22l2 -3q28 9 81 19q69 12 133 21v-52
q0 -25 -17 -31q-24 -3 -51 -4l-33 1q12 -18 23 -42q16 1 36 5q48 4 65 19q15 12 15 49v60l56 10q33 4 101 17q1 21 5 40q-96 -25 -162 -33v23l83 54q33 22 73 53q-34 -1 -69 -5l-302 3q-9 0 -17 2v-44q19 3 44 4l229 1q-40 -24 -79 -49v-48zM166 479l-6 -58q33 3 66 5
l213 -1q18 0 46 -4q-6 54 -5 87q1 22 5 46q-33 -1 -65 -5l-219 1q-12 3 -41 4q6 -51 6 -75zM202 460v55h241v-55h-241zM529 167q42 48 68 81q19 27 45 73q36 -33 64 -67q3 6 7 8q4 10 13 15q3 4 7 8q0 3 -26 27q-36 31 -51 47q13 49 18 74q6 27 12 72q0 16 4 26h109
l-33 -297q0 -21 -2 -38q0 -33 30 -46q22 -9 56 -10q42 0 66 19q24 22 46 95q-22 7 -47 26q-1 -45 -10 -68q-15 -36 -52 -36q-31 0 -42 10q-6 6 -6 24q0 15 2 35l30 253q3 30 15 72q-31 -1 -63 -5h-98q0 33 4 73q0 18 5 33q4 25 19 41q-60 3 -67 4q4 -39 5 -76l-1 -75
q-111 3 -121 5v-44q24 4 56 5h62q-9 -78 -27 -145q-40 31 -70 59q-12 -16 -29 -31l42 -29l43 -38q-21 -45 -57 -92q-45 -54 -91 -79l50 -28q7 10 15 19v0z" />
  </g>

</svg>
