<?xml version="1.0" standalone="no"?>
<!DOCTYPE svg PUBLIC "-//W3C//DTD SVG 1.1//EN" "http://www.w3.org/Graphics/SVG/1.1/DTD/svg11.dtd" >
<svg xmlns="http://www.w3.org/2000/svg" xmlns:xlink="http://www.w3.org/1999/xlink" version="1.1" viewBox="-10 0 1034 1024">
  <g transform="matrix(1 0 0 -1 0 820)">
   <path fill="currentColor"
d="M499 -73h-333q-24 0 -49 3q-7 0 -20 2v-46q42 6 116 5l707 -3q3 0 16 -2v46q-55 -4 -69 -5h-330v115q249 0 271 -3q3 0 10 -1q3 0 20 -2v47q-6 -1 -11 -3q-30 0 -59 -3h-231q0 90 3 97q1 13 10 26h-56q4 -42 5 -80v-43h-232q-33 0 -69 6v-47q54 6 69 6h232v-115zM105 212
q7 -24 8 -29q28 9 100 17l303 29q4 19 15 40q1 4 4 7q-73 -15 -158 -23l-42 -4v85l130 -1q6 0 47 -4v46q-12 -3 -19 -3l-101 -2h-57v74l126 -1l47 -4q-4 54 -5 76q0 159 2 171q0 19 3 39q-33 -1 -66 -5l-271 1q-7 1 -16 2q-12 0 -30 2l5 -106l-1 -132q-3 -15 -4 -48
q51 4 86 5h86v-74h-109q-37 0 -69 5v-46q39 4 69 5h109v-90q-145 -9 -163 -10l-38 5zM167 480v84h130v-84h-130zM167 598v88h130v-88h-130zM335 480v84h130v-84h-130zM335 598v88h130v-88h-130zM600 508q-28 0 -69 5v-46q54 4 114 5h52v-206q0 -25 -10 -31t-27 -6
q-28 3 -58 5q12 -25 22 -51q12 1 26 1q30 1 55 11q30 12 30 71v206h144q-43 -78 -76 -116q31 -6 51 -13l37 74l55 96q-66 -4 -82 -5h-108q-15 18 -21 30l133 152l32 37q-49 -4 -60 -5l-243 1q-9 1 -22 2q-1 0 -14 2v-47q12 3 21 3q22 1 47 3h185q-22 -31 -40 -51
q-19 -24 -61 -69q-3 6 -11 16l-2 3l-20 26q-9 13 -15 20q-18 -15 -23 -18l-16 -8q16 -10 33 -30q19 -24 51 -67h-110z" />
  </g>

</svg>
