<?xml version="1.0" standalone="no"?>
<!DOCTYPE svg PUBLIC "-//W3C//DTD SVG 1.1//EN" "http://www.w3.org/Graphics/SVG/1.1/DTD/svg11.dtd" >
<svg xmlns="http://www.w3.org/2000/svg" xmlns:xlink="http://www.w3.org/1999/xlink" version="1.1" viewBox="-10 0 1034 1024">
  <g transform="matrix(1 0 0 -1 0 820)">
   <path fill="currentColor"
d="M235 427q66 0 117 -5v47q-7 0 -11 -3l-106 -3v206q0 12 2 30q0 15 12 34h-59q1 -6 6 -64v-206l-105 2q-7 1 -13 1t-16 3v-47q-3 0 9 1q72 3 106 4h19v-318q-88 -36 -147 -43q15 -27 28 -52q18 10 35 19l70 28l171 67q0 30 3 53q-42 -28 -121 -60v306zM420 339l3 188h463
q-12 -33 -42 -83q25 -4 50 -14q7 27 21 59q3 6 7 16q12 31 32 63q-36 -1 -71 -5h-248v83l242 -3q4 0 13 -2v47l-66 -6h-189q0 57 3 59q1 13 11 24h-59q3 -15 3 -18q3 -36 3 -44v-140l-168 1q-19 3 -50 4q3 -36 4 -64l1 -67l-2 -184q0 -46 -3 -80q-1 -28 -5 -52
q-21 -118 -85 -204q-22 -27 -60 -52q30 -12 52 -31q75 102 107 188q28 87 31 212zM595 -86q-129 0 -157 2q-3 1 -6 1q-9 1 -19 3v-47q42 6 70 6l432 -1q4 0 51 -5v47q-4 0 -8 -1q-3 0 -5 -2l-109 -3h-83l1 249q0 15 6 34l5 10h-56q1 -30 5 -63v-230h-88l1 249q0 22 11 40
h-56q4 -60 5 -62v-227zM520 17q7 -12 16 -26q4 -6 9 -13q18 12 35 26q-46 75 -101 138q-15 -15 -34 -27q42 -39 54 -59zM599 321q0 -30 12 -46q18 -21 58 -27q27 -4 85 -5q27 0 53 2q33 3 48 11q25 12 39 39q6 15 18 56q-24 10 -50 27q3 -18 3 -31q0 -39 -25 -54
q-18 -12 -89 -13q-30 0 -62 3q-25 1 -41 13q-9 9 -10 29v43q147 21 186 24h13q-3 25 -4 51q-27 -12 -67 -21q-49 -9 -128 -18q0 63 3 67l3 12q3 6 7 17h-58q6 -36 6 -87v-13q-7 0 -107 -10q-13 0 -34 2q7 -25 11 -51q42 12 130 23v-43zM788 9q15 -4 29 -14q1 -1 6 -5
q4 9 10 18l56 96q15 24 39 40q-34 15 -54 29q-19 -51 -35 -82q-13 -24 -40 -59q-7 -10 -16 -21q1 0 5 -2v0z" />
  </g>

</svg>
