<?xml version="1.0" standalone="no"?>
<!DOCTYPE svg PUBLIC "-//W3C//DTD SVG 1.1//EN" "http://www.w3.org/Graphics/SVG/1.1/DTD/svg11.dtd" >
<svg xmlns="http://www.w3.org/2000/svg" xmlns:xlink="http://www.w3.org/1999/xlink" version="1.1" viewBox="-10 0 1010 1000">
   <path fill="currentColor"
d="M530 -4q48 54 71 100l-59 33q-23 -49 -70 -97zM149 26q92 5 105 20q0 7 -7 18q-8 13 -9 22q-4 56 -4 194h14q66 -1 103 -6v72q-70 -5 -105 -6h-14v297q44 -13 131 -47v83q-102 41 -296 109l-35 -93q13 -3 46 -11q52 -13 83 -21v-315h-14q-56 1 -109 4v-72q73 6 105 6h18
q0 -222 -12 -254zM452 207v214h159v-214h-159zM677 207v214h172v-214h-172zM764 262l57 32q-32 56 -61 99l-48 -24q28 -44 52 -107zM542 262q18 56 31 101l-53 14q-17 -64 -34 -99zM496 596v73h310v-73h-310zM496 792h310v-71h-310v71zM748 -6q77 31 85 42q1 2 -9 10
q-17 15 -24 26q-3 4 -8 13q-19 29 -36 58h93q32 -1 80 -8q-8 29 -8 72v210q1 44 8 75q-29 -6 -82 -7h-393q-45 1 -81 7q8 -31 8 -71v-214q-1 -42 -10 -72q41 8 81 8h236q34 -50 60 -149zM417 532q37 7 83 8h298q51 -2 87 -8q-8 31 -8 62v252q0 34 8 53h-87q6 -36 6 -51h-306
q1 6 2 16q1 21 4 35h-87q7 -18 8 -51v-254q-1 -36 -8 -62z" />
</svg>
