<?xml version="1.0" standalone="no"?>
<!DOCTYPE svg PUBLIC "-//W3C//DTD SVG 1.1//EN" "http://www.w3.org/Graphics/SVG/1.1/DTD/svg11.dtd" >
<svg xmlns="http://www.w3.org/2000/svg" xmlns:xlink="http://www.w3.org/1999/xlink" version="1.1" viewBox="-10 0 1010 1000">
   <path fill="currentColor"
d="M280 -2q87 -7 91 4q0 2 -4 7q-14 17 -14 49h93q70 -3 100 -8v67q-32 -7 -102 -7h-95v49h91q55 -1 82 -4q-4 33 -4 64v99q1 54 4 73q-14 -4 -72 -4h-101v42h111q85 0 109 -8v66q-26 -7 -101 -8h-119v63h111q0 -36 -4 -52q50 0 72 4q-6 18 -6 42q-1 44 4 60q-16 -4 -74 -4
h-265q-59 1 -78 4q4 -32 4 -56q0 -22 -4 -46q47 0 76 4q-7 16 -10 28v16h111v-63h-109q-109 1 -121 8v-64q17 6 119 6h111v-42h-86q-50 1 -79 4q4 -14 4 -79v-89q0 -45 -4 -68q12 4 81 4h84v-49h-92q-79 1 -115 7v-67q46 7 115 8h90q0 -30 -4 -60zM843 36q-8 43 -10 111
q-5 55 105 18q-23 43 -23 85q-59 0 -90 -2q-63 2 -57 -55v-95h-91q10 118 -72 182q-4 -2 -15 -9q-32 -19 -54 -29q54 -29 66 -71q16 -47 3 -135l89 4h64zM349 203v49h105v-49h-105zM188 203v49h98v-49h-98zM905 278q-48 117 -123 209q28 17 78 28q50 10 92 7q-36 41 -45 88
q-97 -31 -179 -74q-54 43 -131 76q-30 -38 -63 -66q91 -19 143 -54q-44 -41 -90 -105q32 -14 52 -37q-41 0 -76 6v-76q39 7 145 8h80q87 0 117 -10zM349 292v52h107v-52h-107zM286 292h-98v52h98v-52zM462 608q14 1 43 1q50 0 49 4q1 2 -3 7q-15 20 -15 49h135q134 0 166 -8
v77q-32 -4 -160 -5h-141v75h194q168 0 205 -8v83q-37 -6 -199 -8h-482q-159 1 -183 8v-83q28 9 177 8h216v-75h-145q-112 1 -146 5v-77q35 8 144 8h147q0 -44 -2 -61zM649 350q43 72 77 101q46 -44 72 -103h-94q-34 0 -55 2z" />
</svg>
