<?xml version="1.0" standalone="no"?>
<!DOCTYPE svg PUBLIC "-//W3C//DTD SVG 1.1//EN" "http://www.w3.org/Graphics/SVG/1.1/DTD/svg11.dtd" >
<svg xmlns="http://www.w3.org/2000/svg" xmlns:xlink="http://www.w3.org/1999/xlink" version="1.1" viewBox="-10 0 1010 1000">
   <path fill="currentColor"
d="M278 -17q95 4 95 9q0 1 -3 5q-15 22 -15 51h97q67 0 110 -8v70q-27 -6 -110 -6h-97v45h145q47 -1 97 -6q-4 23 -4 64q-1 37 4 53h-85q0 -3 1 -8q3 -19 3 -39h-365q0 33 6 55h-82q4 -24 4 -57q0 -42 -4 -66q30 3 72 4h137v-85q0 -57 -6 -81zM605 52q40 8 127 10h60
q45 0 117 -8q-29 265 -103 381q36 43 158 97q-32 34 -51 76q-96 -46 -155 -116q-79 83 -137 127q-24 -28 -75 -55q99 -45 170 -131q-57 -105 -87 -284q30 -7 50 -20q-27 0 -74 10v-87zM250 238q36 3 89 4q29 0 92 -4v62q-24 -5 -90 -4q-62 0 -91 4v-62zM482 266
q33 12 124 64q13 7 19 10l-42 43q-54 -39 -135 -77zM194 278q49 28 58 40q-25 6 -145 81q-14 -26 -45 -36q76 -35 132 -85zM319 314q81 6 86 14q0 3 -7 9q-7 5 -9 9q81 29 232 103l-46 59q-18 -20 -61 -41q-6 13 -6 61v28q0 31 4 69q-2 0 -8 -1q-27 -3 -56 -3h-198
q-47 0 -75 4q4 -31 4 -63v-10q0 -39 -4 -58l-30 15q-37 17 -60 29q-12 -24 -49 -59q167 -37 283 -165zM339 387q-48 30 -99 66q27 5 85 6h82q60 0 87 -4q-34 -22 -155 -68zM250 514v52h187v-52h-187zM550 637q0 2 -3 6q-13 14 -13 40h166q13 0 39 -1q82 -2 112 -7v77
q-23 -4 -55 -5q-15 -1 -36 -1h-56h-170v68h236q110 -2 170 -12v87q-25 -6 -116 -7q-36 0 -50 -1h-548q-118 -3 -168 8v-87q56 12 164 12h240v-68h-188q-100 -1 -135 6v-75q38 5 135 6h186q0 -30 -3 -48q-1 -3 -1 -4q71 1 94 6zM700 129q14 156 60 250q56 -118 63 -250h-123z
" />
</svg>
