<?xml version="1.0" standalone="no"?>
<!DOCTYPE svg PUBLIC "-//W3C//DTD SVG 1.1//EN" "http://www.w3.org/Graphics/SVG/1.1/DTD/svg11.dtd" >
<svg xmlns="http://www.w3.org/2000/svg" xmlns:xlink="http://www.w3.org/1999/xlink" version="1.1" viewBox="-10 0 1010 1000">
   <path fill="currentColor"
d="M454 -8q94 1 106 10q1 2 -2 10q-14 31 -14 72v28h228q47 0 118 -6q14 -2 19 -2v81q-62 -8 -135 -8h-230v99h164q74 0 125 -8v80q-55 -6 -125 -6h-440q-57 0 -109 4q-13 2 -20 2v-80q22 5 48 6q26 2 81 2h194v-99h-274q-50 0 -93 3q-10 1 -16 1v-75q6 0 18 2q41 4 91 4
h274v-30q0 -44 -7 -86q-1 -3 -1 -4zM99 395q74 9 131 10h548q62 0 107 -8q12 -1 18 -2q-8 23 -8 78v15q0 64 8 92h-99q5 -26 6 -40q2 -16 2 -46v-23h-627v17q-1 53 7 96h-93q1 -7 3 -18q5 -32 5 -74v-17q0 -31 -2 -46q-1 -14 -6 -34zM325 536q95 8 151 8h56q65 0 143 -8
q-6 19 -11 172q-1 11 -1 17q-2 57 5 67q6 14 42 14q71 4 103 -6q31 -22 32 -99q46 48 88 59q-28 88 -52 102q-23 21 -107 21q-135 4 -166 -12q-34 -10 -29 -69q1 -31 3 -82q3 -70 3 -110h-178q6 143 -48 196q-47 58 -220 99q-19 -58 -70 -91q240 1 254 -135q3 -30 3 -72
q1 -46 -1 -71z" />
</svg>
