<?xml version="1.0" standalone="no"?>
<!DOCTYPE svg PUBLIC "-//W3C//DTD SVG 1.1//EN" "http://www.w3.org/Graphics/SVG/1.1/DTD/svg11.dtd" >
<svg xmlns="http://www.w3.org/2000/svg" xmlns:xlink="http://www.w3.org/1999/xlink" version="1.1" viewBox="-10 0 1010 1000">
   <path fill="currentColor"
d="M389 217q-25 46 -50 83q113 178 183 246q121 -137 196 -329h-329zM976 810q-50 52 -63 91q-231 -83 -401 -242q-206 164 -429 254q-14 -47 -55 -83q244 -59 432 -228q-97 -106 -168 -242q-71 98 -141 176q-23 -38 -70 -53q212 -219 320 -495q62 22 101 56q11 15 -8 22
q-15 1 -30 22q-25 40 -37 61h208q120 0 196 -8q-119 311 -260 463q174 163 405 206z" />
</svg>
