<?xml version="1.0" standalone="no"?>
<!DOCTYPE svg PUBLIC "-//W3C//DTD SVG 1.1//EN" "http://www.w3.org/Graphics/SVG/1.1/DTD/svg11.dtd" >
<svg xmlns="http://www.w3.org/2000/svg" xmlns:xlink="http://www.w3.org/1999/xlink" version="1.1" viewBox="-10 0 1010 1000">
   <path fill="currentColor"
d="M315 -8q107 17 112 26q0 3 -11 11q-35 24 -59 57h330q166 0 204 -8v85q-15 -5 -58 -7q-21 0 -53 -1h-93h-379q-15 12 -48 48q11 3 60 5q24 0 59 1h87h109q117 0 166 -2q52 -2 78 -8q-7 23 -7 121v51q0 115 7 139q-76 -10 -210 -10h-182q-8 9 -22 26q-16 19 -34 38h171
q131 0 176 -1q57 -1 86 -5q-61 105 -201 204q61 19 165 26q101 7 186 -2q-52 41 -73 101q-198 -19 -361 -79q-118 51 -393 93q-23 -52 -65 -85q199 8 384 -50q-85 -53 -140 -133q-58 54 -149 113q-26 -32 -84 -55q158 -58 262 -191q-84 0 -119 8q8 -36 8 -141q0 -65 -1 -85
q-1 -26 -5 -38q-24 24 -58 59l-21 21q-40 -37 -81 -46q174 -103 257 -286zM736 268h-436v56h436v-56zM300 383v58h436v-58h-436zM655 623h-280q46 64 149 106q70 -37 131 -106z" />
</svg>
