<?xml version="1.0" standalone="no"?>
<!DOCTYPE svg PUBLIC "-//W3C//DTD SVG 1.1//EN" "http://www.w3.org/Graphics/SVG/1.1/DTD/svg11.dtd" >
<svg xmlns="http://www.w3.org/2000/svg" xmlns:xlink="http://www.w3.org/1999/xlink" version="1.1" viewBox="-10 0 1034 1024">
  <g transform="matrix(1 0 0 -1 0 820)">
   <path fill="currentColor"
d="M301 650q39 60 79 84l-63 27q-15 -39 -53 -94q-63 -85 -116 -129q-43 -36 -85 -56q27 -9 48 -35q9 7 17 16q27 25 55 49q39 39 93 102l581 -1q18 0 41 -4v48q-7 -3 -15 -4q-27 -3 -52 -3h-530zM719 131q-36 -39 -80 -73q-33 -24 -56 -40q-18 -12 -36 -21
q-114 57 -172 117q-18 -21 -40 -40q21 -9 83 -49q4 -3 85 -50q-84 -45 -206 -74q-105 -18 -183 -20q19 -19 35 -51q96 13 165 32q54 15 104 33q54 21 132 57q93 -45 235 -77l110 -21q13 -3 29 -4q13 31 36 57q-27 -3 -44 -4q-61 0 -165 24q-78 15 -158 50q153 108 220 195
q-40 -1 -82 -5h-380l76 87l347 -1l48 -4q-6 66 -6 76l1 168q0 15 5 50q-72 -4 -97 -5l-436 1q-3 0 -49 4q1 -16 3 -33q3 -19 4 -31v-165q0 -10 -4 -34q0 -18 -3 -31q54 4 112 5h22q-58 -76 -135 -132q-75 -51 -140 -70q33 -15 51 -36q24 12 74 48l88 67h407zM284 290v88h492
v-88h-492zM284 413v89h492v-89h-492z" />
  </g>

</svg>
