<?xml version="1.0" standalone="no"?>
<!DOCTYPE svg PUBLIC "-//W3C//DTD SVG 1.1//EN" "http://www.w3.org/Graphics/SVG/1.1/DTD/svg11.dtd" >
<svg xmlns="http://www.w3.org/2000/svg" xmlns:xlink="http://www.w3.org/1999/xlink" version="1.1" viewBox="-10 0 1034 1024">
  <g transform="matrix(1 0 0 -1 0 820)">
   <path fill="currentColor"
d="M162 672q-30 3 -62 5v-44q10 0 17 3q22 0 45 2h347q-4 -27 -20 -70q-18 0 -68 5q1 -28 5 -59l-1 -189l-4 -36q54 6 89 5l125 -5q-4 48 -5 92l1 151q0 16 4 41q-55 -4 -76 -5h-31q0 6 16 46l8 24q378 -3 382 -5v44q-1 0 -62 -5h-245l68 68q22 21 52 30q-25 18 -47 37
q-18 -27 -37 -47q-27 -31 -67 -71q-6 -6 -20 -17h-117q9 18 23 33q-37 27 -109 69q-9 6 -19 11q-9 -21 -21 -34l64 -40l30 -20q9 -9 21 -19h-286zM595 486h-135v51h135v-51zM460 415v40h135v-40h-135zM460 325v59h135v-59h-135zM313 485q0 87 3 93q1 12 10 23h-54
q0 -7 3 -14q0 -27 2 -49v-215l-67 -19v192q0 12 3 32q3 16 11 31h-54q0 -7 3 -14q0 -27 2 -49v-201q-33 -9 -50 -13q12 -25 20 -49q39 19 99 41q60 19 113 36q25 6 42 13q0 24 2 48q-21 -16 -88 -35v114h30q39 0 62 -5v45q-33 -4 -68 -5h-24zM940 -37q-43 -6 -79 -6
q-88 0 -176 21q-48 12 -106 36q109 81 171 146q-39 -6 -75 -6h-192q9 7 26 24q30 28 59 38q-18 10 -38 21q-1 0 -5 3q-6 4 -10 7q-18 -25 -41 -49q-45 -40 -90 -76q-97 -70 -176 -91q15 -15 33 -40q54 28 100 57q45 30 104 72h205q-19 -19 -30 -28l-44 -34q-15 -9 -38 -26
q-48 30 -55 36q-9 9 -24 26q-15 -18 -31 -33q1 -1 71 -51q-33 -19 -61 -33q-76 -36 -162 -50q-88 -9 -106 -10l-34 4q9 -13 16 -20q9 -12 17 -32q75 7 177 36q45 12 87 30q45 21 109 54q75 -40 190 -62q40 -6 88 -11q48 -4 92 -6q7 21 19 38zM136 136q18 -15 35 -38
q114 51 174 92q45 31 59 38q10 6 43 11q-13 12 -21 20q-6 6 -10 8q-1 3 -5 5q-6 4 -11 10q-36 -39 -129 -94q-67 -33 -135 -52zM824 204q-9 6 -80 38q-15 7 -95 41q-6 -18 -15 -39q133 -48 244 -114q6 21 16 42q-16 6 -28 13q-21 10 -42 19zM686 583q4 -90 5 -92l1 -159
q1 -16 11 -28q9 -12 36 -15q6 -1 36 -4q22 -1 39 -2q28 0 52 7q36 10 53 56q4 13 9 25l-18 9q-12 6 -23 17q0 -13 -1 -20q-3 -42 -29 -51q-21 -6 -45 -6q-19 1 -38 1q-28 1 -39 9q-9 9 -10 29v53l99 -1q9 0 41 -5q1 1 4 0q-6 27 -5 65l1 76q0 12 4 36q-27 -1 -56 -5
q-75 0 -97 2q-6 3 -30 3zM725 443v103h104v-103h-104z" />
  </g>

</svg>
