<?xml version="1.0" standalone="no"?>
<!DOCTYPE svg PUBLIC "-//W3C//DTD SVG 1.1//EN" "http://www.w3.org/Graphics/SVG/1.1/DTD/svg11.dtd" >
<svg xmlns="http://www.w3.org/2000/svg" xmlns:xlink="http://www.w3.org/1999/xlink" version="1.1" viewBox="-10 0 1010 1000">
   <path fill="currentColor"
d="M403 10q115 27 127 38q0 1 -7 6q-53 40 -100 129h303q65 0 129 -8q-62 594 -674 712q-28 -58 -80 -103q255 -13 453 -161q-114 -119 -197 -160l74 -74q35 34 159 144q21 18 31 27q80 -112 119 -302h-351q-118 187 -153 230q-12 17 -20 28q-40 -35 -99 -47
q194 -173 286 -459z" />
</svg>
