<?xml version="1.0" standalone="no"?>
<!DOCTYPE svg PUBLIC "-//W3C//DTD SVG 1.1//EN" "http://www.w3.org/Graphics/SVG/1.1/DTD/svg11.dtd" >
<svg xmlns="http://www.w3.org/2000/svg" xmlns:xlink="http://www.w3.org/1999/xlink" version="1.1" viewBox="-10 0 1010 1000">
   <path fill="currentColor"
d="M379 -4q107 23 119 38q0 5 -19 20q-42 33 -68 67h301q86 0 157 -13q-123 201 -351 307q85 11 93 22q0 2 -10 8q-31 17 -51 40h244q59 0 117 -8q-119 420 -766 424q-12 -54 -52 -101q48 9 105 10q56 1 119 -6q131 -14 246 -54q-50 -58 -119 -109l74 -51q66 53 121 125
q98 -70 137 -165h-292q-92 88 -254 185q-27 -49 -81 -70q213 -81 347 -240q-166 68 -329 115q-15 -37 -70 -87q140 -4 351 -88q-43 -55 -103 -95l68 -49q72 63 107 113q128 -76 186 -147h-345q-103 113 -171 165q-35 -35 -83 -52q188 -104 272 -304z" />
</svg>
