<?xml version="1.0" standalone="no"?>
<!DOCTYPE svg PUBLIC "-//W3C//DTD SVG 1.1//EN" "http://www.w3.org/Graphics/SVG/1.1/DTD/svg11.dtd" >
<svg xmlns="http://www.w3.org/2000/svg" xmlns:xlink="http://www.w3.org/1999/xlink" version="1.1" viewBox="-10 0 1034 1024">
  <g transform="matrix(1 0 0 -1 0 820)">
   <path fill="currentColor"
d="M773 620q-81 -106 -201 -184q-21 18 -33 28q-1 0 -6 5l-59 45q-13 12 -16 13q-6 6 -21 16q-6 -9 -13 -18q-6 -7 -20 -18q58 -30 132 -92q-114 -60 -258 -103q-63 -16 -105 -26q-28 -6 -60 -6q27 -24 36 -48q33 10 152 45q34 10 146 55q42 18 107 50q76 42 144 99
q73 64 163 179q-21 -1 -41 -2q-25 -3 -38 -4h-353l19 24l38 45q10 10 29 21q-4 1 -7 3l-14 8q-9 3 -14 6q-4 3 -13 10q-24 -39 -46 -66q-54 -63 -101 -109q-87 -78 -178 -116q28 -9 52 -32q111 73 202 172h377zM533 252q22 24 47 46q18 21 49 41q-31 6 -60 23
q-40 -67 -138 -150q-126 -109 -253 -140q21 -10 41 -38q129 55 279 183h341q-16 -27 -41 -57q-39 -45 -72 -78q-36 -33 -91 -76q-120 99 -139 113q-3 1 -4 2l-35 -34q25 -10 57 -33q36 -25 49 -38q16 -15 33 -31q-27 -18 -49 -29q-64 -31 -151 -57q-51 -13 -112 -24
q-64 -9 -100 -10q-19 0 -57 4q18 -21 27 -51q153 16 261 48q108 31 203 85q42 22 109 80q67 60 105 109q39 51 74 103q3 4 9 14q-39 -1 -80 -5h-302z" />
  </g>

</svg>
