<?xml version="1.0" standalone="no"?>
<!DOCTYPE svg PUBLIC "-//W3C//DTD SVG 1.1//EN" "http://www.w3.org/Graphics/SVG/1.1/DTD/svg11.dtd" >
<svg xmlns="http://www.w3.org/2000/svg" xmlns:xlink="http://www.w3.org/1999/xlink" version="1.1" viewBox="-10 0 1034 1024">
  <g transform="matrix(1 0 0 -1 0 820)">
   <path fill="currentColor"
d="M433 592l-3 -541l-2 -69q0 -51 -29 -61q-19 -9 -56 -9q-24 0 -56 8q9 -16 11 -26q1 -6 5 -24q94 3 132 26q34 21 34 80l2 75l5 522q1 27 5 60q-19 -1 -33 -2q-22 -3 -30 -3h-212q16 58 26 80q7 18 30 49q-27 3 -56 14q-10 -45 -28 -98q-18 -54 -32 -85
q-48 -106 -100 -155q18 -3 29 -6q6 0 23 -10q39 61 92 175h243zM143 158l-4 -46q-1 -9 -1 -20q49 4 74 5q90 0 106 -2q19 0 40 -3q-3 33 -5 65l1 216q0 18 4 50q-16 -1 -33 -3q-24 -3 -76 -3l-96 4q-7 1 -15 2q1 -33 5 -69v-196zM180 133v248h135v-248h-135zM753 281
q12 16 26 33q18 27 43 45q-30 15 -50 32q-9 -21 -20 -39q-7 -13 -34 -50q-27 -39 -47 -63q-19 -22 -51 -53q-69 -69 -125 -88q24 -9 52 -32q52 45 89 80q36 36 92 99h192q-42 -108 -126 -201l-85 68l-16 13q-12 -24 -35 -40q18 -6 30 -15q13 -9 26 -16q18 -12 28 -21
q9 -7 21 -19q-75 -64 -144 -98q-52 -22 -87 -35q-30 -7 -67 -11q27 -21 41 -47q192 73 294 170q48 45 101 130q45 75 76 163q-31 -1 -63 -5h-161zM861 626q-72 -111 -130 -162q-37 33 -95 79q-9 -18 -33 -36q69 -34 97 -75q-123 -99 -203 -118q16 -9 26 -18l19 -20
q138 82 213 155q78 75 138 177q18 30 35 61q-15 -1 -30 -3q-22 -3 -30 -3h-202q45 72 72 90q-18 6 -26 10q-3 1 -24 14q-21 -51 -63 -107q-43 -57 -78 -86q-33 -27 -62 -37q30 -9 49 -27q34 27 105 106h222z" />
  </g>

</svg>
