<?xml version="1.0" standalone="no"?>
<!DOCTYPE svg PUBLIC "-//W3C//DTD SVG 1.1//EN" "http://www.w3.org/Graphics/SVG/1.1/DTD/svg11.dtd" >
<svg xmlns="http://www.w3.org/2000/svg" xmlns:xlink="http://www.w3.org/1999/xlink" version="1.1" viewBox="-10 0 1034 1024">
  <g transform="matrix(1 0 0 -1 0 820)">
   <path fill="currentColor"
d="M140 365h-10q-12 0 -40 3q-3 0 -17 4v-49q34 6 60 7h338q-15 -91 -56 -168q-84 -141 -219 -220q-40 -24 -69 -36q-27 -10 -60 -17q30 -15 51 -39q171 91 266 200q94 114 123 245q46 -120 130 -222q54 -63 110 -108q27 -21 68 -47q40 -25 91 -54q22 31 49 47
q-48 10 -86 28q-75 36 -148 101q-141 135 -183 290q375 0 397 -3q6 0 20 -4v49q-1 0 -5 -2q-4 0 -60 -5h-372l6 290q18 4 33 6q180 30 209 34l33 -1q-18 33 -30 61q-42 -16 -78 -26q-57 -15 -108 -25q-51 -9 -117 -20q-85 -10 -136 -14l-139 -4q-16 1 -40 4q16 -21 30 -50
q16 0 28 1l85 8q57 3 183 19q4 -87 5 -150q-1 -13 -2 -65q0 -28 -3 -68h-337z" />
  </g>

</svg>
