<?xml version="1.0" standalone="no"?>
<!DOCTYPE svg PUBLIC "-//W3C//DTD SVG 1.1//EN" "http://www.w3.org/Graphics/SVG/1.1/DTD/svg11.dtd" >
<svg xmlns="http://www.w3.org/2000/svg" xmlns:xlink="http://www.w3.org/1999/xlink" version="1.1" viewBox="-10 0 1034 1024">
  <g transform="matrix(1 0 0 -1 0 820)">
   <path fill="currentColor"
d="M129 477q1 -33 5 -66q-3 -90 -5 -101h45q-3 15 -4 34l-1 94h686l-4 -120q-1 -1 -1 -4h46q-4 24 -5 61l5 102q-30 -1 -62 -5h-254q-33 36 -72 77q90 30 172 74q84 48 129 86q-39 -1 -78 -5h-291q12 6 23 14q42 28 77 37q-3 0 -9 4q-3 0 -7 5q-1 0 -23 18q-3 3 -8 6
q-79 -60 -123 -83q-108 -52 -188 -60q18 -15 31 -39q48 9 168 64h303q-37 -25 -90 -49q-42 -18 -76 -31q-30 -10 -64 -21q-24 31 -53 61l-14 18q-15 -12 -36 -22q39 -39 62 -68q-36 -9 -74 -14q-93 -12 -124 -13q-22 0 -63 5l30 -43q0 -1 1 -3q6 0 31 5q24 1 51 5
q124 10 231 47q-16 -18 -23 -23q33 -27 51 -52l-346 1q-15 3 -49 4zM424 15q-48 -33 -138 -65q-88 -33 -145 -38q9 -9 29 -42q117 33 229 84q30 15 54 15q6 0 11 -1q-19 16 -40 47zM219 75q-3 -30 -5 -62q24 4 65 5l481 -1l48 -4q-4 49 -5 72l1 152l4 45q-31 -1 -64 -5h-215
v69h224q36 0 61 -5v44q-4 0 -6 -1q-3 0 -4 -1q-25 0 -51 -3l-508 1q-15 1 -26 2q-6 0 -10 2v-44q1 0 4 1q15 3 12 2q22 0 45 2h224v-69l-229 1q-3 0 -51 4q1 -21 2 -33q3 -24 3 -31v-143zM255 52v82h239v-82h-239zM255 168v75h239v-75h-239zM529 52v82h238v-82h-238z
M529 168v75h238v-75h-238zM870 -130q4 18 14 32l5 7l-148 62q-87 36 -124 46q-9 -19 -22 -36q120 -36 275 -111v0z" />
  </g>

</svg>
