<?xml version="1.0" standalone="no"?>
<!DOCTYPE svg PUBLIC "-//W3C//DTD SVG 1.1//EN" "http://www.w3.org/Graphics/SVG/1.1/DTD/svg11.dtd" >
<svg xmlns="http://www.w3.org/2000/svg" xmlns:xlink="http://www.w3.org/1999/xlink" version="1.1" viewBox="-10 0 1010 1000">
   <path fill="currentColor"
d="M843 64v87q-46 -8 -145 -8h-160q0 116 -6 205h228q77 0 153 -12v91q-45 -7 -155 -8h-198q103 308 398 316q-49 48 -73 103q-322 -100 -375 -389q-34 269 -379 413q-37 -56 -93 -86q333 -52 402 -357h-194q-107 0 -153 8v-87q23 5 56 7q16 0 37 1h58h204q4 -59 7 -156
q0 -32 1 -49h-154q-75 -1 -145 8v-87q13 1 42 3q65 5 105 5h388q107 1 151 -8z" />
</svg>
