<?xml version="1.0" standalone="no"?>
<!DOCTYPE svg PUBLIC "-//W3C//DTD SVG 1.1//EN" "http://www.w3.org/Graphics/SVG/1.1/DTD/svg11.dtd" >
<svg xmlns="http://www.w3.org/2000/svg" xmlns:xlink="http://www.w3.org/1999/xlink" version="1.1" viewBox="-10 0 1010 1000">
   <path fill="currentColor"
d="M552 4q105 8 111 20q0 5 -6 11q-11 10 -12 27q-26 267 -44 417h163q89 -1 171 -8v87q-73 -6 -171 -8h-175q-63 232 -426 333q-39 -55 -80 -87q333 -36 421 -244h-272q-74 1 -167 8v-87q100 7 169 8h288q34 -269 30 -477zM302 70q117 62 198 121l-62 71
q-106 -89 -200 -131zM200 233q96 49 203 130l-66 70q-98 -94 -204 -135zM661 621q133 95 248 205l-86 65q-101 -123 -240 -214z" />
</svg>
