<?xml version="1.0" standalone="no"?>
<!DOCTYPE svg PUBLIC "-//W3C//DTD SVG 1.1//EN" "http://www.w3.org/Graphics/SVG/1.1/DTD/svg11.dtd" >
<svg xmlns="http://www.w3.org/2000/svg" xmlns:xlink="http://www.w3.org/1999/xlink" version="1.1" viewBox="-10 0 1010 1000">
   <path fill="currentColor"
d="M454 0q107 6 111 18q1 4 -4 15q-10 24 -11 45q-1 9 -2 24q-3 36 -4 71h73q142 -2 198 -6q-6 72 -9 195v107h11q74 -1 118 -8v87q-64 -7 -116 -8h-254q105 221 401 240q-59 52 -77 111q-306 -79 -377 -335q-91 226 -395 341q-30 -52 -87 -95q286 -37 405 -260h-258
q-67 2 -123 8v-87q70 7 125 8h11v-127q-1 -100 -5 -179q40 6 184 8h95q3 -87 -10 -173zM270 244v227h178q15 -119 14 -227h-192zM540 244q-2 151 -12 225h198v-225h-186z" />
</svg>
