<?xml version="1.0" standalone="no"?>
<!DOCTYPE svg PUBLIC "-//W3C//DTD SVG 1.1//EN" "http://www.w3.org/Graphics/SVG/1.1/DTD/svg11.dtd" >
<svg xmlns="http://www.w3.org/2000/svg" xmlns:xlink="http://www.w3.org/1999/xlink" version="1.1" viewBox="-10 0 1034 1024">
  <g transform="matrix(1 0 0 -1 0 820)">
   <path fill="currentColor"
d="M531 570q58 -84 153 -151q88 -61 232 -111q12 24 43 49q-81 3 -175 49q-69 36 -115 72q-45 36 -89 92l288 -1l39 -4v47q-13 -3 -25 -4q-22 0 -43 -2h-360q16 40 29 75q10 34 19 46q4 7 25 19l-67 20q-15 -90 -52 -160l-354 5q-1 1 -2 1v-47q24 4 57 5h281
q-66 -114 -175 -184q-81 -49 -186 -72q34 -18 48 -44q42 16 109 53q30 15 54 31q25 15 33 23q52 42 89 83q34 42 78 110h66zM652 228l-552 2q-6 3 -18 3v-46q6 1 27 3q19 0 37 2h506v-256q0 -27 -11 -37q-13 -13 -54 -14q-31 0 -75 7q15 -25 24 -57q67 7 88 13q66 15 67 83
v261l217 -1q24 0 31 -3q3 0 8 -1v46q-13 -3 -25 -3q-21 -1 -43 -2h-188v86q0 15 2 34q1 15 12 33h-59l4 -31l2 -70v-52zM254 97q48 -24 81 -48q39 -27 98 -82q15 27 29 43q-42 33 -79 59l-104 68q-9 -19 -25 -40v0z" />
  </g>

</svg>
