<?xml version="1.0" standalone="no"?>
<!DOCTYPE svg PUBLIC "-//W3C//DTD SVG 1.1//EN" "http://www.w3.org/Graphics/SVG/1.1/DTD/svg11.dtd" >
<svg xmlns="http://www.w3.org/2000/svg" xmlns:xlink="http://www.w3.org/1999/xlink" version="1.1" viewBox="-10 0 1010 1000">
   <path fill="currentColor"
d="M442 -12q90 5 118 26q0 1 -5 5q-15 14 -23 31q-20 43 -38 73h216q134 -1 199 -8v92q-34 -4 -104 -7q-61 -2 -89 -1h-79q121 127 329 155q-46 26 -81 89q-129 -51 -206 -111v83q-81 -12 -102 -8h-140q-30 -4 -120 8v-69q-88 63 -216 111q-20 -38 -59 -67l-12 -9
q188 -23 337 -184h-95q-86 -2 -189 8v-92q69 8 183 8h141q29 -62 35 -133zM452 199q-55 81 -107 125q33 8 90 8h132q58 0 98 -8q-45 -35 -115 -125h-98zM65 473q89 7 223 8h408q80 1 215 -8v91q-71 -7 -221 -8h-291l-26 79h284q67 0 120 -8q13 -2 17 -2q-18 180 -46 225
q-30 52 -202 59q-11 -52 -50 -103q34 10 78 11q46 0 77 -9q37 -10 43 -101h-313q-80 0 -125 10l34 -84l27 -77h-33q-137 1 -219 8v-91z" />
</svg>
