<?xml version="1.0" standalone="no"?>
<!DOCTYPE svg PUBLIC "-//W3C//DTD SVG 1.1//EN" "http://www.w3.org/Graphics/SVG/1.1/DTD/svg11.dtd" >
<svg xmlns="http://www.w3.org/2000/svg" xmlns:xlink="http://www.w3.org/1999/xlink" version="1.1" viewBox="-10 0 1034 1024">
  <g transform="matrix(1 0 0 -1 0 820)">
   <path fill="currentColor"
d="M609 352q54 -84 136 -152q61 -54 184 -116q21 31 47 48q-61 6 -153 65q-88 58 -167 155l239 -1q24 0 31 -3q3 0 7 -1v46q-33 -1 -66 -5h-454q33 72 49 108l341 -4l2 -1q3 0 7 -1v47q-7 -1 -24 -3q-22 -1 -43 -3h-272q3 15 7 28q6 24 13 47q3 12 5 27l335 -1l39 -4v46
q-12 -3 -25 -3q-27 -1 -123 -2h-219q4 33 10 52q7 33 29 50q-10 0 -27 1q-22 1 -44 8l-4 -69q-1 -18 -7 -42l-273 1q-24 3 -22 2q-6 1 -13 2v-46q30 4 66 5h238l-15 -59l-14 -43q-150 0 -170 2q-15 3 -35 4v-47q18 6 57 6h137q-3 -9 -8 -20q-21 -48 -44 -88l-228 1
q-7 1 -26 2q-3 0 -12 2v-46q49 4 74 5h169q-54 -81 -138 -146q-87 -64 -151 -80q15 -6 23 -14q6 -3 23 -24q174 93 290 264h219zM537 154q168 0 193 -3q1 0 4 -2h6v46q-109 -4 -113 -5h-90q0 90 3 95q1 15 11 26h-58q0 -7 2 -12l3 -109l-183 1q-24 3 -22 2l-13 2v-46
q49 6 76 5h142v-121l-322 3q-6 0 -12 2v-46q24 4 61 5h273l-3 -158q-1 -3 -2 -12h50q-4 15 -5 39l-1 131l296 -1q24 0 32 -3q3 0 7 -1v46q-7 -1 -11 -2q-27 -1 -57 -3h-267v121z" />
  </g>

</svg>
