<?xml version="1.0" standalone="no"?>
<!DOCTYPE svg PUBLIC "-//W3C//DTD SVG 1.1//EN" "http://www.w3.org/Graphics/SVG/1.1/DTD/svg11.dtd" >
<svg xmlns="http://www.w3.org/2000/svg" xmlns:xlink="http://www.w3.org/1999/xlink" version="1.1" viewBox="-10 0 1010 1000">
   <path fill="currentColor"
d="M437 -15q103 16 115 27q2 6 -10 17q-15 15 -26 29q-6 9 -18 31q-15 25 -22 36h276q111 0 177 -8v92q-58 -7 -177 -8h-95q90 128 319 159q-54 38 -75 89q-7 -3 -21 -8q-38 -15 -86 -36q-11 30 -8 54v178q1 43 10 80q-55 -10 -86 -8h-186v51q-2 35 10 43q7 9 57 11
q26 1 67 1q38 -1 68 -3q58 -4 76 -12q29 -18 47 -109q25 39 88 49q-1 4 -4 13q-35 117 -100 126q-33 5 -113 7q-83 2 -153 -1q-78 -2 -98 -16q-22 -11 -21 -55v-105h-172q-1 58 8 89h-94q5 -40 7 -124q1 -27 1 -41v-139q-1 -38 -11 -75q-21 12 -82 48q-35 -43 -75 -70
q180 -44 307 -196h-99q-107 0 -163 8v-92q45 9 173 8h139q37 -64 50 -140zM435 201q-83 96 -173 170q24 5 75 6h107q0 -66 -1 -78q-1 -18 -5 -33q83 1 100 16q1 2 -3 12q-13 25 -13 50v33h137q43 0 83 -8q-101 -61 -161 -168h-146zM274 433v81h172v-81h-172zM710 433h-188
v81h188v-81zM274 570v83h174v-83h-174zM710 570h-186v83h186v-83z" />
</svg>
