<?xml version="1.0" standalone="no"?>
<!DOCTYPE svg PUBLIC "-//W3C//DTD SVG 1.1//EN" "http://www.w3.org/Graphics/SVG/1.1/DTD/svg11.dtd" >
<svg xmlns="http://www.w3.org/2000/svg" xmlns:xlink="http://www.w3.org/1999/xlink" version="1.1" viewBox="-10 0 1010 1000">
   <path fill="currentColor"
d="M450 -13q7 1 20 2q87 10 86 21q1 2 -3 4q-20 15 -29 70h258q29 0 95 -7q4 -1 6 -1v79q-51 -9 -101 -8h-270q-6 20 -18 68h238q38 0 107 -8v79q-49 -12 -103 -8h-264q-1 3 -4 8q-21 48 -28 56h368q59 -4 107 -10v81q-40 -8 -105 -8h-127q106 116 269 141q1 3 -8 12
q-29 28 -53 69q-139 -62 -212 -137v56q-29 -4 -86 -4h-55q0 17 -4 51q-1 15 -2 22h196q37 0 99 -5v77q-46 -8 -99 -8h-210q-3 12 -8 22q144 41 355 137q1 2 -11 12q-36 29 -58 61q-115 -82 -320 -165q-69 85 -327 153q-18 -41 -51 -75q-8 -9 -7 -10q282 -37 342 -135h-151
l-101 4v-73q58 5 105 5h168q4 -24 5 -38q1 -12 1 -35h-69q-44 0 -81 4v-61q-103 80 -209 140q-20 -31 -51 -55q-11 -8 -12 -12q162 -60 266 -153h-139q-66 0 -98 8v-81q50 10 104 10h186l38 -64h-127h-22q-51 -1 -89 4v-75q48 8 111 8h151q15 -45 19 -68h-210q-70 -1 -109 8
v-79q48 8 111 8h218q6 -51 2 -97zM393 405q-30 36 -72 70q30 4 70 4h202h76q-22 -20 -62 -74h-214z" />
</svg>
