<?xml version="1.0" standalone="no"?>
<!DOCTYPE svg PUBLIC "-//W3C//DTD SVG 1.1//EN" "http://www.w3.org/Graphics/SVG/1.1/DTD/svg11.dtd" >
<svg xmlns="http://www.w3.org/2000/svg" xmlns:xlink="http://www.w3.org/1999/xlink" version="1.1" viewBox="-10 0 1034 1024">
  <g transform="matrix(1 0 0 -1 0 820)">
   <path fill="currentColor"
d="M609 353q1 -3 4 -6q6 -6 33 -43q19 -24 49 -53q-54 -6 -74 -6l-260 1q-39 3 -49 5v-47q6 3 13 3q27 3 52 3h105q-10 -73 -25 -113l-234 1q-7 1 -27 2q-6 0 -12 3v-48q54 6 65 6h193q-31 -64 -133 -124q-88 -46 -178 -49q34 -21 51 -48q13 6 28 10q60 19 79 30
q63 27 109 66q66 57 94 115l328 -3l2 -1q3 0 7 -2v48q-6 -1 -25 -4q-21 -1 -43 -2h-258q6 18 9 34q9 60 15 79l135 -1q22 0 38 -5v44q54 -45 103 -77q24 -15 47 -28q28 -15 84 -40q15 28 45 45q-85 13 -185 79q-82 54 -131 126q262 0 273 -2q4 0 9 -2q3 0 7 -2v48
q-3 0 -37 -5l-512 -1q19 33 27 47l18 37q4 9 10 16l366 -3l2 -1q3 0 7 -1v47q-4 -1 -48 -6h-313q13 48 35 103l366 -1q27 0 33 -3l2 -1h5v47q-6 -3 -11 -3q-30 -1 -58 -3h-329q10 42 18 60q9 24 31 42q-33 1 -72 12q-6 -57 -20 -114l-343 2q-3 1 -5 1q-3 0 -13 3v-47
q24 4 63 5h288q-6 -33 -36 -103l-207 1q-18 3 -35 5v-47q51 4 76 5h152q-24 -51 -57 -100l-288 5q-1 1 -3 1v-48q6 3 62 6h208q-37 -51 -65 -80q-27 -27 -67 -59q-96 -72 -155 -84q27 -12 49 -40q30 15 79 52q43 33 84 67q60 55 125 144h225zM536 -6q48 -18 123 -62
l162 -103q6 19 23 41q-39 27 -101 63q-13 9 -177 100q-3 1 -4 2q-3 -3 -26 -41v0z" />
  </g>

</svg>
