<?xml version="1.0" standalone="no"?>
<!DOCTYPE svg PUBLIC "-//W3C//DTD SVG 1.1//EN" "http://www.w3.org/Graphics/SVG/1.1/DTD/svg11.dtd" >
<svg xmlns="http://www.w3.org/2000/svg" xmlns:xlink="http://www.w3.org/1999/xlink" version="1.1" viewBox="-10 0 1034 1024">
  <g transform="matrix(1 0 0 -1 0 820)">
   <path fill="currentColor"
d="M135 105q-30 3 -52 3q-3 0 -13 3v-48q6 3 28 4q18 1 37 2h311q-24 -40 -61 -68q-72 -55 -171 -86q-54 -15 -100 -15q-13 0 -38 2q18 -16 32 -50q112 10 210 58q117 57 178 159h32q106 -126 280 -186l69 -24q25 -7 48 -13q12 28 46 56h-20q-45 0 -79 8q-87 18 -184 72
q-51 30 -105 87l332 -1q19 0 26 -3q3 0 8 -2v48q-1 0 -38 -5l-400 -1q9 22 14 38q4 15 10 29q3 9 6 20l263 8q1 -1 4 -3q16 -15 35 -32q0 -1 2 -3q10 21 29 38q-16 15 -42 35q-30 24 -88 66l-57 39q-12 -15 -34 -34q9 -4 19 -11l93 -63l-455 -8q105 48 187 90q81 42 182 99
q40 21 74 28q-12 9 -23 17q-9 7 -27 26q-45 -37 -129 -83l-248 -4l33 21q28 16 57 35q39 24 49 28q10 6 38 13q-16 13 -23 20q-9 7 -20 25q-18 -19 -38 -35q-27 -21 -80 -55q-43 -27 -73 -42q-24 -9 -45 -10q6 -19 10 -47q81 6 162 10l112 4q-150 -78 -205 -104
q-66 -33 -108 -33q10 -19 16 -42q1 -4 3 -10q69 6 110 9l169 6q-12 -48 -30 -85h-328zM322 653l104 2l160 7l74 7q27 1 44 4q141 15 169 15q9 0 22 -1q-36 34 -47 52q-27 -9 -47 -14q-25 -4 -69 -10q-136 -15 -261 -22q-13 -1 -94 -2q-103 -1 -136 0q-12 3 -35 3
q-36 3 -59 11q9 -15 20 -50q39 -3 72 -3q40 1 83 1zM167 575q79 -40 143 -100q9 18 21 30q1 6 8 8q-45 36 -74 54q-42 30 -71 46q0 -3 -2 -5q0 -4 -13 -18zM442 597q27 -13 58 -41q45 -39 64 -59q6 16 30 39q-19 18 -56 48l-63 48q-18 -21 -33 -35zM710 490q55 52 64 62
q39 36 53 47q9 6 32 11q-30 24 -51 42q-27 -39 -54 -65q-24 -24 -44 -40l-33 -24q16 -13 33 -33v0z" />
  </g>

</svg>
