<?xml version="1.0" standalone="no"?>
<!DOCTYPE svg PUBLIC "-//W3C//DTD SVG 1.1//EN" "http://www.w3.org/Graphics/SVG/1.1/DTD/svg11.dtd" >
<svg xmlns="http://www.w3.org/2000/svg" xmlns:xlink="http://www.w3.org/1999/xlink" version="1.1" viewBox="-10 0 1034 1024">
  <g transform="matrix(1 0 0 -1 0 820)">
   <path fill="currentColor"
d="M172 160q-30 0 -56 3q-6 0 -10 3l-3 1v-48q31 6 67 6h284q-16 -33 -29 -53q-36 -54 -124 -105q-109 -64 -232 -74q15 -18 36 -51q139 42 230 99q118 73 161 184h19q54 -93 158 -165q54 -36 102 -60q45 -21 132 -53q13 19 22 32q9 9 19 21q-117 12 -209 66
q-118 69 -178 159l371 -3q9 0 19 -3v48q-3 0 -33 -6l-411 -1q12 60 19 76q4 12 23 34q-21 0 -33 4q-10 1 -34 8q0 -13 1 -25q0 -4 -6 -49q-3 -24 -11 -48h-294zM394 455l-277 1q-9 1 -16 2q-3 0 -13 2v-46q18 6 66 6h63q-7 -76 -42 -119q-24 -24 -72 -42q18 -7 38 -22
l13 -10q42 39 63 69q15 24 23 47q7 28 16 77h138q-3 -135 -5 -152h49q-3 12 -6 64l1 392q0 9 6 29q1 6 6 14h-56q0 -3 1 -7q0 -3 1 -6l3 -142v-15h-203q0 84 2 91q0 6 4 26q0 7 8 15h-56q0 -6 2 -11q0 -36 3 -74l-5 -88q54 4 78 5h167v-106zM722 595l1 130q0 9 6 29
q1 6 6 14h-56q0 -18 5 -48q-1 -6 0 -13v-112q-204 3 -212 5v-46q25 4 67 5h145v-192q-114 0 -136 2q-7 1 -12 2q-3 0 -14 3v-48q18 6 67 7l269 -1q24 0 33 -3q3 -1 7 -3v48q-9 -3 -63 -7h-113v192l205 -1q9 0 21 -4v46q-3 0 -5 -1q-4 0 -8 -1l-107 -3h-106z" />
  </g>

</svg>
