<?xml version="1.0" standalone="no"?>
<!DOCTYPE svg PUBLIC "-//W3C//DTD SVG 1.1//EN" "http://www.w3.org/Graphics/SVG/1.1/DTD/svg11.dtd" >
<svg xmlns="http://www.w3.org/2000/svg" xmlns:xlink="http://www.w3.org/1999/xlink" version="1.1" viewBox="-10 0 1010 1000">
   <path fill="currentColor"
d="M587 -2q13 5 33 14q62 25 57 28q0 2 -7 7q-31 23 -57 68h202q48 -1 98 -7q-126 360 -421 388q-21 -42 -61 -72q-7 -5 -8 -7q111 8 230 -54q-47 -42 -113 -71l55 -57l105 87q57 -66 94 -139h-223q-9 13 -60 81q-26 34 -41 54q-36 -33 -77 -48q100 -73 194 -272zM300 10
q100 6 95 8q1 1 -1 7q-13 32 -13 87v283q-2 27 3 77q2 19 3 30h-87q7 -50 6 -103v-67q-8 5 -22 15q-115 80 -157 122q-8 -18 -38 -54q-14 -17 -24 -28q144 -66 241 -133v-144q0 -46 -6 -100zM167 78q64 80 97 135l-68 43q-45 -77 -97 -131zM458 506q30 1 68 6q20 2 28 2
q1 4 -5 21q-6 15 -9 25h254q2 -1 34 -3q67 -3 87 -7v85q-49 -8 -113 -8h-240q125 165 384 169q1 3 -6 10q-27 33 -47 91q-283 -59 -379 -234q-92 175 -397 232q-18 -45 -53 -78q-9 -7 -8 -9q299 -10 390 -181h-256q-68 0 -113 8v-85q16 3 78 8q21 1 33 2h272q1 -24 -2 -54z
" />
</svg>
