<?xml version="1.0" standalone="no"?>
<!DOCTYPE svg PUBLIC "-//W3C//DTD SVG 1.1//EN" "http://www.w3.org/Graphics/SVG/1.1/DTD/svg11.dtd" >
<svg xmlns="http://www.w3.org/2000/svg" xmlns:xlink="http://www.w3.org/1999/xlink" version="1.1" viewBox="-10 0 1034 1024">
  <g transform="matrix(1 0 0 -1 0 820)">
   <path fill="currentColor"
d="M303 141l-209 1q-7 1 -28 2q-6 0 -12 3v-47q51 4 85 5h278q-30 -33 -56 -55q-27 -24 -76 -63q-39 -31 -64 -47q-19 -10 -51 -20q3 -12 10 -23q3 -7 5 -13q-1 3 6 -17q39 9 76 14l328 30l180 18q45 -33 77 -81q18 28 33 43q-63 57 -164 142q-31 25 -53 42q-18 -25 -34 -40
q45 -16 108 -74l-341 -28l-130 -9q3 1 9 7q75 60 101 84q6 4 81 75q7 7 16 15l481 -3l2 -1q3 0 7 -1v47q-7 -3 -22 -4q-22 0 -46 -2h-558v72l380 -1q12 0 31 -3q3 0 7 -2v47q-6 0 -10 -2q-27 -1 -57 -3h-351v74q391 0 402 -2q7 0 16 -3v46q-1 0 -50 -5h-368v78l391 -1
q15 0 23 -4q1 0 4 -1v11q78 -51 195 -83q12 30 41 50q-94 3 -190 55q-99 49 -178 148l236 -1q34 -3 39 -5v48q-6 -1 -60 -6h-359q6 15 11 20q31 61 70 87q-12 4 -22 8q-27 9 -41 21q-15 -63 -65 -136l-319 5q-1 1 -3 1v-48q3 0 45 5l252 1q-27 -39 -83 -91
q-73 -66 -188 -116q-36 -15 -60 -22q-21 -4 -46 -8q24 -15 44 -43q63 25 110 49q46 25 110 66q3 -27 4 -46v-260zM338 474q39 34 66 64t59 74h113q36 -43 62 -71l74 -67l-175 -2z" />
  </g>

</svg>
