<?xml version="1.0" standalone="no"?>
<!DOCTYPE svg PUBLIC "-//W3C//DTD SVG 1.1//EN" "http://www.w3.org/Graphics/SVG/1.1/DTD/svg11.dtd" >
<svg xmlns="http://www.w3.org/2000/svg" xmlns:xlink="http://www.w3.org/1999/xlink" version="1.1" viewBox="-10 0 1010 1000">
   <path fill="currentColor"
d="M613 -6q102 28 97 34q-1 2 -9 8q-37 24 -76 74h177q35 0 107 -6v73q-11 -1 -31 -3q-62 -5 -82 -5h-187v69h113q24 0 101 -3q-4 28 -4 81v218q0 44 4 76q-59 -6 -93 -6h-208l-6 59h292q55 0 109 -6v74q-43 -8 -109 -8h-248q55 50 147 69q45 10 102 12q55 3 129 -2
q1 3 -8 12q-31 33 -47 83q-322 -34 -389 -174q-57 139 -377 180q-6 -35 -46 -71q-14 -13 -11 -16q262 11 357 -93h-242q-50 -1 -104 8v-74q42 6 104 6h269l8 -59h-196q-27 0 -89 6q4 -63 4 -92v-198q0 -26 -3 -79q-1 -5 -1 -8q58 5 99 5h107v-69h-177q-74 0 -119 10v-77
q56 8 119 8h354q38 -52 44 -73q10 -23 19 -43zM433 169v69h115v-69h-115zM238 286v157h514v-48h-145q-43 -2 -52 -22q-11 -16 -9 -87h-113q13 102 -125 143q-10 -30 -38 -52q-9 -7 -10 -10q114 -7 113 -81h-135zM609 286q-2 38 7 47q7 10 41 9h95v-56h-143zM238 490v62h514
v-62h-514zM359 106q-28 -51 -67 -84l85 -26q34 41 61 90z" />
</svg>
