<?xml version="1.0" standalone="no"?>
<!DOCTYPE svg PUBLIC "-//W3C//DTD SVG 1.1//EN" "http://www.w3.org/Graphics/SVG/1.1/DTD/svg11.dtd" >
<svg xmlns="http://www.w3.org/2000/svg" xmlns:xlink="http://www.w3.org/1999/xlink" version="1.1" viewBox="-10 0 1010 1000">
   <path fill="currentColor"
d="M433 -23q120 20 117 25q0 2 -8 9q-33 30 -66 77h322q42 0 111 -6v83q-66 -6 -111 -6h-151q87 112 315 127q1 3 -9 12q-37 31 -60 83q-251 -81 -322 -222h-148q-156 171 -328 234q-21 -34 -66 -61q-11 -7 -9 -8q190 -33 309 -165h-137q-55 0 -115 6v-85q15 1 35 4
q37 5 78 4h195q34 -61 48 -111zM728 606h-405v65h405v-65zM728 731h-405v63h405v-63zM429 284q2 -33 -1 -69q-1 -7 -1 -10q8 0 22 1q69 1 69 7q2 2 -3 13q-13 29 -13 58q46 0 63 -1q21 -1 52 -5v74q-20 -2 -46 -3q-13 -1 -29 -1h-42v71h71q83 -69 100 -101q16 11 42 27
q44 27 39 30q-1 1 -10 4q-45 15 -81 40h162q23 0 84 -6q16 -1 24 -2v79q-45 -7 -106 -7h-246q-74 42 -125 63h252q24 0 84 -3q12 -1 18 -1q-4 28 -4 99v159q0 68 4 105h-84q4 -36 4 -51h-405q0 27 6 63h-85q4 -54 4 -101v-171q-41 18 -98 41q-41 16 -67 27q-9 -33 -43 -72
q-11 -12 -10 -14q100 -5 218 -51l-2 -36q45 6 81 6q53 -21 143 -63h-272q-74 0 -115 5v-77q48 5 109 8h237v-67q-48 0 -72 1q-28 1 -59 3v-76q47 3 131 4z" />
</svg>
