<?xml version="1.0" standalone="no"?>
<!DOCTYPE svg PUBLIC "-//W3C//DTD SVG 1.1//EN" "http://www.w3.org/Graphics/SVG/1.1/DTD/svg11.dtd" >
<svg xmlns="http://www.w3.org/2000/svg" xmlns:xlink="http://www.w3.org/1999/xlink" version="1.1" viewBox="-10 0 1034 1024">
  <g transform="matrix(1 0 0 -1 0 820)">
   <path fill="currentColor"
d="M479 155q-3 -30 -7 -48q-3 -15 -11 -34l-386 5q-1 1 -3 1v-47q39 4 65 5h304q-43 -66 -156 -114q-135 -55 -211 -56q33 -18 45 -44q63 18 103 32q30 9 76 31q76 37 120 71q37 30 74 80h5q42 -49 101 -87q100 -60 211 -87q76 -16 115 -21q6 25 32 48h-21q-45 0 -104 11
q-100 21 -185 66q-46 25 -100 70l406 -3l2 -1q3 0 7 -1v47q-9 -3 -25 -4q-19 0 -43 -2h-387q15 70 16 82l268 -1l44 -4q-4 24 -5 63l1 265q0 18 4 43q-30 -1 -60 -5h-163v86l272 -1q21 0 27 -3q3 0 7 -2v48q-6 -3 -45 -6h-243q7 6 20 21q69 69 108 77q-27 18 -53 41
q-6 -9 -15 -16q-49 -54 -74 -86q-13 -15 -36 -37h-165q7 13 12 17q3 3 7 10q-70 60 -132 100q-10 -18 -29 -37q79 -42 122 -90q-241 0 -260 3q-7 0 -15 3v-48q15 4 40 5l267 1q-3 -42 -5 -86h-142q-9 0 -37 3q-13 0 -33 2q1 -33 5 -69l-1 -257q-3 -15 -4 -45q34 3 70 5h200z
M252 291v189h166q-19 -58 -49 -88q-39 -33 -90 -50q21 -9 45 -34q108 75 135 172h115v-46q0 -34 15 -52q16 -21 71 -22h131v-69h-539zM252 191v64h539v-64h-539zM461 516l3 86h110v-86h-113zM791 395h-121q-33 0 -47 13q-12 13 -12 46v26h180v-85z" />
  </g>

</svg>
