<?xml version="1.0" standalone="no"?>
<!DOCTYPE svg PUBLIC "-//W3C//DTD SVG 1.1//EN" "http://www.w3.org/Graphics/SVG/1.1/DTD/svg11.dtd" >
<svg xmlns="http://www.w3.org/2000/svg" xmlns:xlink="http://www.w3.org/1999/xlink" version="1.1" viewBox="-10 0 1034 1024">
  <g transform="matrix(1 0 0 -1 0 820)">
   <path fill="currentColor"
d="M129 460q-36 0 -55 3q-4 0 -11 2v-46q9 3 62 5h229q-64 -133 -120 -214q6 -1 30 -10q147 -49 245 -102q-99 -88 -204 -140q-90 -40 -192 -52q9 -12 18 -26q6 -12 14 -25q69 21 112 39q37 15 76 33q109 57 214 151q21 -9 78 -39q81 -45 112 -66q69 -43 119 -94
q10 18 33 46q-111 72 -132 84q-12 6 -22 12q-120 69 -159 87q27 36 43 63q15 24 30 52q19 36 32 66q12 31 30 89l15 46l197 -1q21 0 35 -4v46q-6 0 -8 -1q-3 0 -4 -2q-28 0 -51 -2h-479q69 171 78 188q10 28 18 39q10 24 28 41q-30 12 -58 26q-9 -42 -39 -126
q-30 -79 -72 -168h-242zM682 424q-12 -67 -57 -166q-33 -66 -86 -130l-107 47l-135 55l33 61l69 133h283z" />
  </g>

</svg>
