<?xml version="1.0" standalone="no"?>
<!DOCTYPE svg PUBLIC "-//W3C//DTD SVG 1.1//EN" "http://www.w3.org/Graphics/SVG/1.1/DTD/svg11.dtd" >
<svg xmlns="http://www.w3.org/2000/svg" xmlns:xlink="http://www.w3.org/1999/xlink" version="1.1" viewBox="-10 0 1034 1024">
  <g transform="matrix(1 0 0 -1 0 820)">
   <path fill="currentColor"
d="M480 -27q4 6 9 11q-75 58 -128 95q-9 6 -17 13q-7 6 -23 15q37 84 58 171q19 93 36 252l-97 -5h-95q0 6 39 157q9 45 30 75q-33 4 -61 14q-1 -36 -9 -74l-37 -172l-102 1l-25 4v-46q24 4 44 5h75q-15 -66 -38 -140q-22 -75 -49 -143q28 -15 80 -46q70 -42 81 -51
q9 -6 20 -14q-42 -72 -98 -127q-66 -63 -131 -81q27 -19 48 -40q75 57 120 102q43 46 97 123l95 -73q27 -22 57 -58q3 6 8 14q1 3 3 6q3 3 6 7q1 3 4 5zM370 490q-12 -213 -81 -360l-152 94l80 265zM681 306l-218 1q-24 3 -27 4v-46q24 4 44 5h201l-1 -419q0 -6 -4 -18h49
q-1 9 -6 55v382l227 -1q19 0 26 -3q3 0 8 -1v46q-6 0 -8 -1q-3 0 -5 -2q-27 0 -50 -2h-198v357l179 -1q18 0 29 -4h5v47q-1 0 -3 -1q-3 0 -5 -1q-3 0 -4 -2q-27 0 -50 -2l-373 1l-25 5v-47q24 4 44 5h165v-357z" />
  </g>

</svg>
