<?xml version="1.0" standalone="no"?>
<!DOCTYPE svg PUBLIC "-//W3C//DTD SVG 1.1//EN" "http://www.w3.org/Graphics/SVG/1.1/DTD/svg11.dtd" >
<svg xmlns="http://www.w3.org/2000/svg" xmlns:xlink="http://www.w3.org/1999/xlink" version="1.1" viewBox="-10 0 1034 1024">
  <g transform="matrix(1 0 0 -1 0 820)">
   <path fill="currentColor"
d="M184 457q-12 -54 -35 -122q-22 -69 -47 -128q94 -49 180 -115q-103 -174 -231 -202q25 -25 41 -45q73 54 123 100q45 48 100 123q79 -54 118 -111q10 21 33 45l-70 56l-61 45q36 81 57 149q10 36 18 72q13 75 21 128l7 46q-30 -1 -59 -5h-147q22 93 26 103q18 73 22 82
q9 30 25 51q-31 6 -61 17q-6 -51 -16 -106q-12 -61 -34 -147q-94 0 -118 2q-6 3 -16 3v-46q24 4 44 5h80zM151 227q10 28 20 58q27 81 53 172h167q-6 -69 -14 -111q-6 -36 -21 -81q-27 -88 -54 -137q-6 4 -11 7q-12 7 -22 15zM506 639l-61 4q-3 0 -5 1v-46q24 4 52 5h30
q18 -144 52 -242q19 -60 42 -108q25 -57 58 -118q-51 -72 -157 -162q-73 -58 -152 -79q27 -22 43 -45q87 54 149 106q66 57 142 145q54 -69 65 -80q27 -30 73 -76q12 -12 90 -82q22 24 57 43q-31 9 -55 23q-37 24 -79 60q-64 57 -127 149q36 63 59 113q21 45 40 100
q13 43 27 103q18 85 37 191q-28 -1 -58 -5h-322zM837 603q-16 -141 -49 -237q-21 -63 -41 -105q-16 -36 -48 -87q-30 54 -53 99q-18 45 -37 100q-39 132 -45 230h273z" />
  </g>

</svg>
