<?xml version="1.0" standalone="no"?>
<!DOCTYPE svg PUBLIC "-//W3C//DTD SVG 1.1//EN" "http://www.w3.org/Graphics/SVG/1.1/DTD/svg11.dtd" >
<svg xmlns="http://www.w3.org/2000/svg" xmlns:xlink="http://www.w3.org/1999/xlink" version="1.1" viewBox="-10 0 1010 1000">
   <path fill="currentColor"
d="M190 -2q9 2 27 5q82 12 79 19q0 4 -4 10q-12 13 -18 42q-1 6 -4 22q-17 85 -22 129q51 -1 117 -3q50 -1 64 -1q-23 290 -80 402q8 6 28 22q77 58 99 80q-51 36 -75 67q-47 -56 -93 -95q-96 122 -175 188q-33 -33 -97 -55q109 -44 214 -181q-50 -50 -151 -99
q24 -74 60 -252q-75 0 -113 8v-87q33 6 123 6q23 -154 21 -227zM448 72q27 5 121 8h219q23 -2 61 -4q28 -2 58 -4v89q-20 -4 -76 -5q-26 0 -35 -1h-76v254h72q108 0 158 -8v91q-15 -5 -152 -5h-78v251q1 114 6 159h-99q7 -47 10 -159v-251h-62q-110 0 -148 7v-91q44 6 154 8
h56v-256h-74q-79 1 -115 6v-89zM341 296h-105q-12 59 -29 136q-12 55 -17 82q37 22 96 64q38 -100 55 -282z" />
</svg>
