<?xml version="1.0" standalone="no"?>
<!DOCTYPE svg PUBLIC "-//W3C//DTD SVG 1.1//EN" "http://www.w3.org/Graphics/SVG/1.1/DTD/svg11.dtd" >
<svg xmlns="http://www.w3.org/2000/svg" xmlns:xlink="http://www.w3.org/1999/xlink" version="1.1" viewBox="-10 0 1034 1024">
  <g transform="matrix(1 0 0 -1 0 820)">
   <path fill="currentColor"
d="M120 239q-42 0 -62 5h-3v-46q24 4 47 5h252q-37 -54 -79 -106q51 -9 87 -20q93 -28 173 -56q-34 -28 -75 -51q-75 -40 -173 -64q-90 -18 -132 -19l-31 1q15 -27 28 -54q172 37 263 73q90 36 164 97l92 -33l111 -47q84 -37 125 -70q7 22 24 47q-135 61 -172 76l-151 58
q49 63 81 111q27 48 34 57l202 -1q27 0 40 -4v46q-4 0 -8 -1q-3 0 -4 -2q-28 0 -50 -2h-480q36 63 47 77q12 16 32 31l-26 11q-9 3 -29 16q-12 -31 -25 -57l-44 -78h-258zM402 203h273q-42 -84 -108 -153l-221 75zM771 376q25 0 53 -3q3 0 5 -2h5v47q-1 0 -3 -1q-3 0 -5 -1
q-3 0 -4 -2q-28 0 -51 -2h-499v177l627 -1q27 0 39 -4l2 -1v47q-3 0 -8 -2q-3 0 -4 -1l-99 -2q-720 0 -736 3q-4 1 -9 2v-47q9 4 25 5l126 1l-1 -178q-3 -7 -4 -34v-6q28 3 59 5h482zM435 727q70 -27 129 -87q12 15 13 18q3 7 18 21q-48 37 -65 47q-40 24 -63 41
q-12 -18 -32 -40v0z" />
  </g>

</svg>
