<?xml version="1.0" standalone="no"?>
<!DOCTYPE svg PUBLIC "-//W3C//DTD SVG 1.1//EN" "http://www.w3.org/Graphics/SVG/1.1/DTD/svg11.dtd" >
<svg xmlns="http://www.w3.org/2000/svg" xmlns:xlink="http://www.w3.org/1999/xlink" version="1.1" viewBox="-10 0 1034 1024">
  <g transform="matrix(1 0 0 -1 0 820)">
   <path fill="currentColor"
d="M152 52q114 154 138 183q-9 24 -19 58q-45 -76 -96 -147q-39 -49 -65 -78q-21 -21 -47 -41q24 -16 44 -42q6 15 14 24q15 22 31 43zM105 591q-15 -24 -31 -41q63 -33 101 -65q48 -37 82 -85q12 22 33 43l-72 60zM312 760q4 -22 5 -65l-1 -839q-1 -9 -4 -18h49l-6 60
l1 805q0 12 7 34q1 13 7 23h-58zM720 101q46 73 77 153q25 75 49 196q90 0 109 -3q6 0 12 -2v46q-9 0 -12 -3l-88 -2h-242q4 19 53 188q16 51 38 81q-36 4 -62 13q-6 -42 -19 -99q-6 -28 -50 -183q-147 0 -161 3q-4 1 -9 2v-46q51 4 84 5h77q-21 -73 -48 -146
q-27 -75 -44 -108q40 -18 91 -49q51 -30 90 -57q-66 -75 -158 -139q-51 -30 -101 -42q27 -25 41 -45l72 47q18 12 36 26q75 57 145 131q75 -54 136 -102q57 -46 93 -94q15 24 34 48l-116 88zM548 247l51 151q7 27 16 52h188q-24 -192 -117 -328q-36 24 -148 92q4 16 10 33v0
z" />
  </g>

</svg>
