<?xml version="1.0" standalone="no"?>
<!DOCTYPE svg PUBLIC "-//W3C//DTD SVG 1.1//EN" "http://www.w3.org/Graphics/SVG/1.1/DTD/svg11.dtd" >
<svg xmlns="http://www.w3.org/2000/svg" xmlns:xlink="http://www.w3.org/1999/xlink" version="1.1" viewBox="-10 0 1034 1024">
  <g transform="matrix(1 0 0 -1 0 820)">
   <path fill="currentColor"
d="M190 -103l21 15q63 48 139 137q48 -42 72 -69q16 -19 29 -42l39 40q-28 24 -65 58l-53 49q69 133 94 318l15 107q-30 -1 -61 -5h-144l37 175q9 36 27 71q-31 1 -60 8q-6 -58 -16 -117q-10 -63 -26 -137q-120 0 -142 2q-6 3 -17 3v-46q25 3 52 5h99l-64 -239
q-4 -10 -10 -24l81 -61q48 -39 83 -70q-81 -105 -166 -152q-30 -15 -80 -27q27 -25 42 -48q36 25 74 49zM203 221q6 18 10 36q24 99 38 140q3 15 8 31l9 41h165q0 -87 -32 -209q-24 -90 -62 -149l-87 71zM906 624l-41 -4q-322 0 -337 3q-3 0 -11 2v-47q6 3 11 3q21 3 55 3
h298v-258h-287q-30 0 -54 4q-4 0 -12 2v-47q24 6 57 6h296v-303l-336 1q-24 3 -28 4v-46q27 3 57 5h307l-3 -94q-1 -1 -2 -4h49q-6 24 -6 48l1 676q1 24 5 47q-10 0 -19 -1v0z" />
  </g>

</svg>
