<?xml version="1.0" standalone="no"?>
<!DOCTYPE svg PUBLIC "-//W3C//DTD SVG 1.1//EN" "http://www.w3.org/Graphics/SVG/1.1/DTD/svg11.dtd" >
<svg xmlns="http://www.w3.org/2000/svg" xmlns:xlink="http://www.w3.org/1999/xlink" version="1.1" viewBox="-10 0 1010 1000">
   <path fill="currentColor"
d="M887 84q-8 46 -8 139v178q0 63 1 83q1 25 3 36h-89q6 -24 6 -69h-221v284q-1 43 22 55q21 14 93 14h72q88 4 97 -119q60 47 95 55q-34 98 -62 115q-30 25 -118 24h-119q-108 1 -132 -16q-29 -14 -27 -77v-303q0 -53 -8 -112q52 8 105 8h203v-220h-199q-75 0 -123 8v-81
q42 6 105 6h167q81 0 129 -7q5 -1 8 -1zM204 -2q102 20 109 28q0 3 -8 12q-17 18 -21 34q-19 66 -36 151q113 0 173 -6q-30 275 -84 416q11 8 34 24q60 43 95 72l-71 71q-35 -46 -95 -97q-83 121 -167 186q-30 -40 -75 -65q98 -47 180 -171q-27 -26 -143 -85q30 -96 60 -276
q-48 0 -90 8v-83q21 3 104 6q23 -116 35 -225zM335 290h-101q-8 36 -32 148q-12 58 -19 92q56 38 89 58q41 -121 63 -298z" />
</svg>
