<?xml version="1.0" standalone="no"?>
<!DOCTYPE svg PUBLIC "-//W3C//DTD SVG 1.1//EN" "http://www.w3.org/Graphics/SVG/1.1/DTD/svg11.dtd" >
<svg xmlns="http://www.w3.org/2000/svg" xmlns:xlink="http://www.w3.org/1999/xlink" version="1.1" viewBox="-10 0 1010 1000">
   <path fill="currentColor"
d="M228 0q109 13 103 24q0 8 -6 19q-12 22 -17 49q-4 15 -11 57q-8 38 -13 66h77q66 -1 113 -4q12 -1 8 12q-38 316 -91 420q89 63 131 101l-68 76q-48 -68 -107 -113q-88 96 -230 188q-37 -41 -85 -71q136 -35 254 -167q-76 -53 -159 -93q40 -86 69 -278h-25q-41 0 -115 8
v-83q52 4 109 4h39q2 -14 6 -38q12 -67 18 -177zM817 205h-196v466h196v-466zM393 286h-121q-34 155 -52 248q57 34 107 68q43 -112 66 -316zM905 125q-11 45 -8 78v532q-3 54 4 99h-91q5 -51 5 -72v-20h-194v46q-2 16 4 52h-89q6 -51 6 -92v-539q0 -27 -8 -82q39 6 97 6
h182q24 0 92 -8z" />
</svg>
