<?xml version="1.0" standalone="no"?>
<!DOCTYPE svg PUBLIC "-//W3C//DTD SVG 1.1//EN" "http://www.w3.org/Graphics/SVG/1.1/DTD/svg11.dtd" >
<svg xmlns="http://www.w3.org/2000/svg" xmlns:xlink="http://www.w3.org/1999/xlink" version="1.1" viewBox="-10 0 1010 1000">
   <path fill="currentColor"
d="M575 0q90 13 104 26q0 1 -2 5q-32 48 -70 219h230q68 0 115 -8v86q-43 -6 -121 -6q-24 186 -93 327q99 60 212 133q-46 43 -69 83q-78 -85 -189 -154q-122 116 -275 172q-21 -48 -70 -81q160 -29 276 -137q-35 -29 -194 -99q45 -97 85 -242q-86 0 -131 6v-88q45 9 147 6
q29 -119 45 -248zM258 10h39q63 -1 58 4q0 2 -3 10q-13 27 -13 58v684q-3 97 8 129h-89q6 -25 6 -125v-256q-113 125 -161 179q-28 -51 -65 -83q156 -124 226 -201v-315q0 -42 -6 -84zM131 149q60 84 113 195l-83 39q-23 -73 -105 -186zM746 322h-157q-16 58 -41 141
q-14 47 -18 63q32 20 90 51q40 21 53 29q58 -131 73 -284z" />
</svg>
