<?xml version="1.0" standalone="no"?>
<!DOCTYPE svg PUBLIC "-//W3C//DTD SVG 1.1//EN" "http://www.w3.org/Graphics/SVG/1.1/DTD/svg11.dtd" >
<svg xmlns="http://www.w3.org/2000/svg" xmlns:xlink="http://www.w3.org/1999/xlink" version="1.1" viewBox="-10 0 1034 1024">
  <g transform="matrix(1 0 0 -1 0 820)">
   <path fill="currentColor"
d="M116 498q-36 0 -54 3q-4 0 -11 2v-46q24 4 47 5h81q-21 -91 -51 -193l-29 -78q9 -6 11 -7l69 -45q40 -27 84 -60q-33 -54 -98 -121q-61 -54 -111 -70q31 -25 46 -42q130 111 197 209q76 -60 120 -115q7 15 24 34l7 7l-132 111q27 60 43 106q16 51 27 94q9 48 20 125
q7 60 14 86q-31 -1 -64 -5h-129q4 28 44 197q6 27 12 38q3 6 10 13q-33 3 -62 11q0 -36 -14 -124q-13 -85 -30 -135h-71zM371 462q-4 -61 -12 -108q-7 -42 -20 -90q-21 -76 -58 -148l-74 52l-61 40q22 67 39 125l34 129h152zM671 325q-208 0 -221 3q-1 1 -2 1q-4 0 -11 2
v-47q30 6 57 6h177v-363l-181 1l-25 4v-46q24 4 47 5l424 -4l2 -1h8v46q-10 0 -13 -3l-96 -2h-128v363q219 0 241 -3q9 0 16 -3h5v47q-6 0 -8 -2q-3 0 -4 -2q-27 0 -50 -2h-200v317q58 13 133 26q3 1 8 1q15 1 29 5q15 0 43 5q-24 28 -37 49q-28 -12 -50 -19
q-40 -10 -97 -23q-61 -10 -127 -19q-67 -7 -106 -8q-15 0 -52 3q15 -30 23 -52l195 27v-312z" />
  </g>

</svg>
