<?xml version="1.0" standalone="no"?>
<!DOCTYPE svg PUBLIC "-//W3C//DTD SVG 1.1//EN" "http://www.w3.org/Graphics/SVG/1.1/DTD/svg11.dtd" >
<svg xmlns="http://www.w3.org/2000/svg" xmlns:xlink="http://www.w3.org/1999/xlink" version="1.1" viewBox="-10 0 1034 1024">
  <g transform="matrix(1 0 0 -1 0 820)">
   <path fill="currentColor"
d="M301 105q46 99 73 190q24 90 39 220q-66 -6 -83 -6h-105q6 27 8 35q6 33 13 64q12 63 16 75q7 33 31 59q-9 1 -64 19q-3 -49 -15 -120q-12 -72 -28 -132l-80 1l-42 5v-47q9 0 18 2l96 3q-9 -40 -27 -96q-13 -48 -35 -109q-10 -28 -28 -61q97 -58 158 -111
q-16 -27 -36 -52q-21 -25 -58 -61q-45 -45 -95 -66q28 -15 47 -36q39 30 85 79q37 39 58 64q16 18 33 43q94 -78 127 -132q19 28 28 36q1 3 7 8q-22 25 -56 53zM364 473q-12 -168 -98 -342q-18 15 -41 31l-84 59q16 48 39 124l39 128h145zM648 756q-10 3 -19 6
q-7 -43 -34 -114q-27 -69 -53 -117q-79 -132 -156 -190q27 -9 46 -24q61 63 112 144q37 60 103 208q12 -30 39 -84q12 -22 53 -80q46 -63 110 -118q22 -18 45 -38l17 -14q16 16 55 36q-34 9 -64 30q-63 43 -109 97q-90 100 -126 223q6 12 21 22q-19 7 -40 13zM498 223
q-21 0 -66 5v-46q27 3 66 5h301q-16 -49 -90 -169q-72 -111 -152 -163q27 -9 49 -29q49 54 84 98q30 40 64 93q72 115 107 211q-33 -1 -68 -5h-295zM689 387l-50 75q-16 -16 -36 -28q54 -64 100 -157q19 16 40 28q-18 30 -49 74q-3 4 -5 8v0z" />
  </g>

</svg>
