<?xml version="1.0" standalone="no"?>
<!DOCTYPE svg PUBLIC "-//W3C//DTD SVG 1.1//EN" "http://www.w3.org/Graphics/SVG/1.1/DTD/svg11.dtd" >
<svg xmlns="http://www.w3.org/2000/svg" xmlns:xlink="http://www.w3.org/1999/xlink" version="1.1" viewBox="-10 0 1010 1000">
   <path fill="currentColor"
d="M661 26q60 0 80 1q24 1 25 5t-5 16q-17 35 -17 65v266q83 -76 125 -139q96 60 89 70q-1 2 -13 8q-81 37 -201 143v283q-8 51 66 46q40 0 53 -23q12 -15 16 -94q47 47 89 56q-17 92 -48 115q-15 14 -40 19q-21 4 -72 4q-105 2 -119 -18q-22 -13 -20 -109v-587
q0 -56 -8 -127zM448 32q63 0 82 1q23 2 22 7q0 2 -5 10q-21 38 -21 89v159q73 -1 115 -4v79q-1 0 -8 -1q-49 -5 -107 -5v379q27 -19 95 -73q3 43 24 81q-111 66 -181 119q-17 -33 -45 -75q32 -22 31 -81v-572q0 -20 -1 -59q-1 -36 -1 -54zM171 2q104 10 111 18q0 1 -3 5
q-16 23 -25 67q-16 70 -20 119q102 -3 167 -12q-40 307 -82 426q62 45 104 90l-60 67q-36 -50 -81 -87q-80 119 -171 182q-33 -46 -81 -63q119 -43 192 -169q-49 -40 -141 -85q38 -109 68 -282q-53 0 -97 8q-9 2 -12 2v-83q33 6 117 6q16 -126 14 -209zM222 274
q-26 133 -53 252q13 9 41 27q27 16 42 27q40 -99 60 -306h-90z" />
</svg>
