<?xml version="1.0" standalone="no"?>
<!DOCTYPE svg PUBLIC "-//W3C//DTD SVG 1.1//EN" "http://www.w3.org/Graphics/SVG/1.1/DTD/svg11.dtd" >
<svg xmlns="http://www.w3.org/2000/svg" xmlns:xlink="http://www.w3.org/1999/xlink" version="1.1" viewBox="-10 0 1034 1024">
  <g transform="matrix(1 0 0 -1 0 820)">
   <path fill="currentColor"
d="M114 513q-36 0 -54 3q-4 0 -11 2v-46q24 4 47 5h93l-12 -66q-18 -90 -38 -167q-9 -33 -25 -77q73 -42 155 -93q-22 -36 -49 -70q-27 -31 -62 -63q-51 -48 -97 -54q25 -24 44 -45q66 54 105 95q39 42 94 116q60 -36 114 -90q0 4 23 39q1 3 4 6q-24 16 -59 38l-64 42
q34 85 53 155q18 73 38 209q3 33 9 66l-35 -3l-154 -2l19 128q7 43 12 69q4 21 13 41q-33 0 -59 3q0 -57 -4 -106l-19 -135h-81zM375 477q-6 -33 -10 -68q-9 -72 -22 -135q-24 -97 -55 -166l-31 20l-61 36l-31 21l25 116q24 97 39 176h146zM420 -75q-33 0 -54 3q-4 0 -11 3
v-47q24 4 43 5l540 -1q21 0 28 -3q3 0 7 -1v47q-3 0 -12 -4l-98 -2h-32q34 670 37 676l9 68l-65 -6l-368 1l-25 5v-47q15 6 65 6h114l-32 -308q-84 0 -111 2q-9 3 -17 3v-46q24 4 44 5h80l-38 -359h-104zM561 -75l39 359h212l-17 -359h-234zM603 320l34 308h193l-8 -161
l-9 -147h-210z" />
  </g>

</svg>
