<?xml version="1.0" standalone="no"?>
<!DOCTYPE svg PUBLIC "-//W3C//DTD SVG 1.1//EN" "http://www.w3.org/Graphics/SVG/1.1/DTD/svg11.dtd" >
<svg xmlns="http://www.w3.org/2000/svg" xmlns:xlink="http://www.w3.org/1999/xlink" version="1.1" viewBox="-10 0 1010 1000">
   <path fill="currentColor"
d="M210 -17q104 12 109 25q-20 18 -48 148q-8 42 -13 61h48q53 -1 125 -6q8 0 4 8q-35 285 -90 410q56 36 105 70l-65 71q-21 -23 -71 -66q-5 -5 -8 -7q-72 97 -189 190q-25 -27 -70 -58q-3 -2 -5 -3q110 -54 200 -175q-100 -64 -147 -81q37 -116 72 -280h-16q-66 0 -97 4
v-79q14 0 61 2q20 1 32 2h34q30 -150 29 -236zM704 -12q46 80 68 141l-87 30q-26 -74 -70 -135zM958 181v81q-29 -4 -125 -4h-182l-8 133h101h23q96 1 128 -6q-25 343 -42 405q-9 74 -168 95q-6 -55 -34 -105q41 9 79 1q34 -9 42 -31q15 -35 32 -287h-167q-29 244 -119 359
q-46 58 -95 97q-40 -35 -86 -52q125 -93 167 -176q60 -129 67 -433h-15q-61 0 -110 4v-81q36 3 133 6h248q98 -4 131 -6zM345 288h-99q-4 20 -16 66q-23 86 -45 176q26 18 86 54q5 3 7 4q37 -75 67 -300z" />
</svg>
