<?xml version="1.0" standalone="no"?>
<!DOCTYPE svg PUBLIC "-//W3C//DTD SVG 1.1//EN" "http://www.w3.org/Graphics/SVG/1.1/DTD/svg11.dtd" >
<svg xmlns="http://www.w3.org/2000/svg" xmlns:xlink="http://www.w3.org/1999/xlink" version="1.1" viewBox="-10 0 1034 1024">
  <g transform="matrix(1 0 0 -1 0 820)">
   <path fill="currentColor"
d="M121 512q-42 0 -59 4q-3 1 -6 1v-47q9 4 25 5l94 1q-30 -168 -72 -266q81 -46 161 -112q-43 -66 -104 -126q-57 -54 -105 -79q27 -15 46 -34l71 66q27 25 47 49q33 36 80 103q7 -6 14 -10q6 -3 10 -7q16 -12 48 -44q12 -13 33 -38q27 40 27 44l1 1l-40 32q-15 12 -33 25
q-21 15 -42 33q16 42 29 82q12 37 22 81q9 45 17 100l18 141q-27 -1 -56 -5h-126q6 27 11 59l26 132q7 36 20 59q-22 1 -57 9q-1 -66 -39 -259h-61zM356 476q-3 -48 -9 -98q-6 -51 -16 -99q-18 -76 -49 -141q-3 1 -8 5q-15 12 -81 56q-12 6 -39 29q18 64 38 141l25 107h139z
M465 -49q-3 -30 -5 -60q49 4 88 5l384 -1l35 -4v46q-6 0 -8 -1q-3 0 -4 -2l-77 -2h-375v712l412 -1l36 -4v46q-9 0 -13 -3l-99 -2l-337 1q-19 3 -42 4q1 -21 2 -35q3 -21 3 -29v-670zM748 265q40 -55 76 -111q27 -43 43 -84q15 18 41 36q-63 87 -100 142l-41 55l13 24
q1 3 3 7q1 1 3 6q9 27 71 162q6 13 25 38q-31 6 -58 18q-24 -105 -84 -222q-9 9 -16 18l-107 133q-16 19 -24 32q-19 -18 -39 -33q27 -21 59 -56l107 -131q-36 -63 -81 -126q-27 -36 -52 -62q-21 -18 -51 -38q24 -15 44 -34q60 70 102 126q15 21 39 60z" />
  </g>

</svg>
