<?xml version="1.0" standalone="no"?>
<!DOCTYPE svg PUBLIC "-//W3C//DTD SVG 1.1//EN" "http://www.w3.org/Graphics/SVG/1.1/DTD/svg11.dtd" >
<svg xmlns="http://www.w3.org/2000/svg" xmlns:xlink="http://www.w3.org/1999/xlink" version="1.1" viewBox="-10 0 1010 1000">
   <path fill="currentColor"
d="M169 -8q21 4 58 8q52 5 49 12q0 5 -6 15q-15 24 -22 59q-10 48 -22 141h101q28 0 82 -6q-33 278 -84 392q5 4 24 15q42 26 62 41l-52 69l-71 -59q-49 68 -181 181q-21 -41 -67 -62q116 -56 190 -157q-28 -17 -112 -60q-17 -9 -25 -13q24 -52 58 -274h-24q-48 0 -77 6v-79
q32 6 87 6h20q8 -73 11 -121q2 -51 1 -114zM607 -4q13 1 38 1q62 0 59 7q0 4 -3 9q-11 19 -11 59v91h68q87 0 109 -8v83q-9 -7 -109 -7h-68v154h110q107 0 137 -8v84q-15 -9 -137 -8h-64q73 207 224 280q-37 36 -53 89q-160 -123 -217 -359v309q0 124 6 135h-87
q6 -11 6 -135v-305q-100 282 -212 396q-22 -20 -57 -37q-18 -10 -31 -16q137 -77 237 -357h-28q-116 0 -121 8v-84q56 8 121 8h91v-154h-67q-99 0 -106 7v-83q21 8 108 8h65v-95zM331 294h-111q-27 163 -47 242q71 34 93 46q42 -77 65 -288z" />
</svg>
