<?xml version="1.0" standalone="no"?>
<!DOCTYPE svg PUBLIC "-//W3C//DTD SVG 1.1//EN" "http://www.w3.org/Graphics/SVG/1.1/DTD/svg11.dtd" >
<svg xmlns="http://www.w3.org/2000/svg" xmlns:xlink="http://www.w3.org/1999/xlink" version="1.1" viewBox="-10 0 1034 1024">
  <g transform="matrix(1 0 0 -1 0 820)">
   <path fill="currentColor"
d="M406 88l-77 44q39 105 56 212l13 98l13 86q-30 -1 -59 -5h-110l36 156q15 51 35 81q-33 3 -61 12l-23 -125l-27 -124q-103 0 -128 2q-6 3 -16 3v-46q24 4 44 5h92q-9 -45 -25 -95q0 -3 -53 -162q-6 -13 -13 -33q52 -21 94 -40t79 -42q-48 -79 -140 -146q-45 -30 -94 -39
q21 -22 36 -45q67 39 122 84q36 31 54 53q27 30 57 75q66 -42 84 -64l10 24l14 23q-7 4 -13 8zM364 487q-15 -219 -69 -339q-9 4 -45 25q-42 19 -95 47l79 267h130zM649 -98q-3 -51 -4 -57q-1 0 -1 -3h49q-3 31 -6 60v389q57 -120 122 -202q30 -39 61 -70q33 -33 75 -71
q18 22 42 40q-85 42 -171 154q-36 49 -55 85q-18 31 -49 100l227 -4l2 -1q4 0 8 -1v47q-9 0 -13 -3q-27 0 -50 -2h-199v202l184 -1q21 0 28 -3q3 0 8 -1v47q-3 0 -13 -4l-207 -2v117q0 12 2 28q3 18 14 36h-60q0 -3 3 -10l3 -109v-62h-124q-36 0 -54 3q-4 0 -11 3v-47
q24 4 47 5h142v-202l-207 2q-6 0 -14 3v-47q6 3 11 3q21 3 55 3h143q-37 -81 -77 -145q-36 -57 -64 -95q-27 -34 -53 -58q-57 -49 -99 -64q27 -18 48 -37q84 72 142 149q52 69 115 189v-364z" />
  </g>

</svg>
