<?xml version="1.0" standalone="no"?>
<!DOCTYPE svg PUBLIC "-//W3C//DTD SVG 1.1//EN" "http://www.w3.org/Graphics/SVG/1.1/DTD/svg11.dtd" >
<svg xmlns="http://www.w3.org/2000/svg" xmlns:xlink="http://www.w3.org/1999/xlink" version="1.1" viewBox="-10 0 1034 1024">
  <g transform="matrix(1 0 0 -1 0 820)">
   <path fill="currentColor"
d="M396 160l-305 2q-4 3 -11 4v-45q21 3 60 6h224q-72 -70 -95 -98l111 -21q61 -13 126 -31q-58 -28 -99 -43q-66 -24 -133 -34q-46 -6 -91 -7q-21 0 -59 4q10 -25 18 -50q150 15 234 39q78 22 174 78q96 -27 168 -53q66 -27 138 -62q9 16 14 28q3 6 9 15l-80 29l-213 69
q42 36 73 66q30 30 64 71l194 -1q19 0 28 -4q3 0 6 -1v45h-3q-3 -1 -5 -3q-1 0 -3 -1q-3 0 -6 -1l-497 -1q48 52 88 76q-18 9 -37 20l295 -1l41 -4q-6 54 -6 76v62q57 0 116 -3l2 -1q3 0 8 -1v42q-10 0 -13 -3l-113 -2l1 87q1 22 5 46q-18 -1 -26 -2q-22 -3 -32 -3h-242v85
l334 -1q21 0 28 -3q3 0 7 -1v44q-9 0 -12 -3l-130 -2h-227v21q0 33 15 61h-57q0 -3 2 -8q0 -36 3 -74l-347 3l-6 2v-44q15 3 39 4l314 1v-85l-240 1q-21 0 -31 3q-1 1 -3 1v-41q24 3 48 5h226v-97l-391 2q-6 0 -13 3v-42q12 3 27 4l377 1v-103h-212q-33 0 -52 4q-4 0 -10 2
v-41q4 0 10 2q25 1 52 3h190q-10 -21 -36 -54q-4 -6 -11 -14q-12 -13 -22 -28zM378 43q-18 3 -36 8l70 76h261q-21 -27 -32 -38q-13 -15 -38 -37q-37 -33 -65 -49l-55 14zM524 286v103h258v-103h-258zM524 421v97h258v-97h-258z" />
  </g>

</svg>
