<?xml version="1.0" standalone="no"?>
<!DOCTYPE svg PUBLIC "-//W3C//DTD SVG 1.1//EN" "http://www.w3.org/Graphics/SVG/1.1/DTD/svg11.dtd" >
<svg xmlns="http://www.w3.org/2000/svg" xmlns:xlink="http://www.w3.org/1999/xlink" version="1.1" viewBox="-10 0 1034 1024">
  <g transform="matrix(1 0 0 -1 0 820)">
   <path fill="currentColor"
d="M143 526q-49 0 -66 5v-46q25 3 52 5h67q-30 -145 -72 -287l79 -38q34 -18 80 -47q-37 -70 -99 -127q-60 -55 -111 -67q28 -22 41 -41l26 20q67 57 89 78q25 25 44 51q19 25 44 65q76 -45 109 -87q12 24 23 36q3 6 7 9l-19 12q-15 7 -101 66q36 105 47 160q12 69 23 172
q7 55 8 66q-55 -4 -75 -5h-99l19 109l13 62q6 31 23 55l-39 5q-6 0 -22 6q-1 -55 -12 -119l-15 -83q-3 -25 -6 -35h-58zM370 490q-9 -195 -69 -339q-4 3 -129 74l26 102l25 109q6 21 12 54h135zM681 -102q-3 -51 -4 -57q-1 0 -1 -3h49q-3 31 -6 60v386h196q-1 -84 -5 -136
q-3 -66 -12 -86q-9 -27 -56 -28q-19 0 -57 5q12 -28 17 -53l41 5q12 0 27 5q42 9 55 33q10 21 15 41q3 30 8 95l4 71l8 89q-28 -1 -57 -5h-184v258l89 16q21 6 78 15q21 4 62 7q-18 18 -25 28l-16 22q-30 -18 -123 -39q-22 -3 -44 -8q-10 -3 -21 -5q0 120 3 123q3 16 12 31
h-59q0 -3 3 -9l3 -112v-39q-105 -15 -145 -16q-18 0 -43 3q0 -28 3 -58l-17 -192l-11 -66q51 4 81 5h102q-27 -49 -52 -89q-19 -34 -40 -63q-31 -45 -80 -94q-70 -66 -135 -85q25 -18 46 -41q96 72 157 143q60 70 134 201v-358zM514 320l21 234q78 7 146 17v-251h-167z" />
  </g>

</svg>
