<?xml version="1.0" standalone="no"?>
<!DOCTYPE svg PUBLIC "-//W3C//DTD SVG 1.1//EN" "http://www.w3.org/Graphics/SVG/1.1/DTD/svg11.dtd" >
<svg xmlns="http://www.w3.org/2000/svg" xmlns:xlink="http://www.w3.org/1999/xlink" version="1.1" viewBox="-10 0 1034 1024">
  <g transform="matrix(1 0 0 -1 0 820)">
   <path fill="currentColor"
d="M116 510q-36 0 -54 3q-4 0 -11 2v-46q24 4 47 5h84q-19 -85 -38 -148q-16 -57 -43 -117q36 -21 65 -42q16 -12 38 -30l57 -48q-40 -66 -107 -128q-54 -46 -100 -61q27 -15 45 -38q123 96 194 201q72 -72 87 -92q6 -10 16 -27q10 15 31 30q6 3 9 7l-126 119q34 87 54 173
q10 48 20 106l19 136q-18 -1 -27 -2q-22 -3 -31 -3h-117q15 57 21 86q16 76 25 100q6 27 20 45q-7 1 -24 4q-12 1 -35 7q-4 -69 -45 -242h-74zM355 474q-3 -66 -25 -181q-24 -106 -53 -167l-80 65q-34 28 -46 36q51 156 69 247h135zM461 390q33 9 66 12l369 23
q27 -34 41 -71q18 18 40 33q-42 63 -94 123l-81 93q-10 13 -21 26q-21 -18 -46 -33q72 -54 134 -136q-108 -9 -182 -13l-183 -8q27 33 57 79l69 101l30 51q4 6 8 13q22 37 55 61q-9 4 -18 7q-21 9 -41 21q-18 -48 -55 -111q-34 -58 -69 -109q-37 -54 -57 -74
q-24 -27 -48 -39zM481 269q1 -19 2 -32q3 -21 3 -50l-5 -346h49q-3 7 -4 23q-1 24 -2 71h315q-1 -42 -3 -85q-1 -1 -2 -4h49q-3 24 -6 60l1 316q1 24 5 47q-18 -1 -32 -2q-19 -3 -65 -3l-264 1q-7 3 -36 4h-5zM524 -29v257h315v-257h-315z" />
  </g>

</svg>
