<?xml version="1.0" standalone="no"?>
<!DOCTYPE svg PUBLIC "-//W3C//DTD SVG 1.1//EN" "http://www.w3.org/Graphics/SVG/1.1/DTD/svg11.dtd" >
<svg xmlns="http://www.w3.org/2000/svg" xmlns:xlink="http://www.w3.org/1999/xlink" version="1.1" viewBox="-10 0 1010 1000">
   <path fill="currentColor"
d="M627 -6q95 32 115 56q-2 6 -16 12q-19 9 -26 20q-81 121 -166 228l264 -8q-36 -54 -88 -97l78 -48q95 104 180 230l-75 58q-20 -40 -48 -72q-393 13 -388 24q-10 2 -13 2l-29 -91q0 -1 7 -5q122 -74 205 -309zM190 2q110 16 116 28q0 3 -4 9q-30 41 -54 168q120 0 169 -6
q-29 262 -84 416q82 62 129 110l-65 79q-66 -84 -107 -113q-82 115 -183 186q-41 -47 -77 -63q119 -58 194 -169q-62 -48 -149 -93q42 -81 76 -270q-45 0 -91 6q-12 2 -16 2v-91q4 0 20 2q58 6 103 6q16 -104 23 -207zM323 280h-89q-9 31 -36 133q-19 74 -27 103
q20 15 55 36q28 16 38 24q36 -90 59 -296zM565 479h203q83 0 121 -8q-8 38 -8 121v168q0 65 6 123q2 14 2 18h-95q6 -12 6 -111h-250q0 98 6 111h-96q0 -4 1 -16q7 -54 7 -125v-184q0 -80 -6 -105q43 7 103 8zM548 554v161h254v-161h-254z" />
</svg>
