<?xml version="1.0" standalone="no"?>
<!DOCTYPE svg PUBLIC "-//W3C//DTD SVG 1.1//EN" "http://www.w3.org/Graphics/SVG/1.1/DTD/svg11.dtd" >
<svg xmlns="http://www.w3.org/2000/svg" xmlns:xlink="http://www.w3.org/1999/xlink" version="1.1" viewBox="-10 0 1010 1000">
   <path fill="currentColor"
d="M262 217h101q25 0 60 -5q12 -2 12 -1q-2 14 -7 51q-37 285 -89 375q1 1 4 3q54 43 109 93l-65 63q-3 -4 -8 -11q-31 -43 -75 -82q-38 62 -183 184q-32 -41 -85 -63q117 -46 214 -167q-36 -24 -151 -93q40 -97 84 -280h-46q-74 0 -99 4h-2v-75h2q26 4 103 4h53
q9 -56 10 -205q20 4 56 9q49 7 46 11q1 7 -9 27q-15 29 -19 51q-2 9 -5 34q-6 47 -11 73zM494 70q40 6 109 6h157q66 0 123 -6q0 7 -2 24q-4 41 -4 75v627q39 2 82 -4h3v83q-18 -8 -109 -8h-333q-97 0 -105 8v-83q35 4 85 4v-631q0 -36 -6 -90v-5zM575 147v167h227v-167
h-227zM252 284q-7 27 -22 83q-27 104 -43 169q15 9 41 26q42 27 56 34q55 -135 65 -312h-97zM575 381v171h227v-171h-227zM802 619h-227v177h227v-177z" />
</svg>
