<?xml version="1.0" standalone="no"?>
<!DOCTYPE svg PUBLIC "-//W3C//DTD SVG 1.1//EN" "http://www.w3.org/Graphics/SVG/1.1/DTD/svg11.dtd" >
<svg xmlns="http://www.w3.org/2000/svg" xmlns:xlink="http://www.w3.org/1999/xlink" version="1.1" viewBox="-10 0 1034 1024">
  <g transform="matrix(1 0 0 -1 0 820)">
   <path fill="currentColor"
d="M415 520q-60 -3 -62 -4h-106q0 7 7 32l34 147q6 18 11 25q4 9 14 21q-30 4 -62 14q-3 -45 -11 -74l-30 -153q-1 -3 -3 -12q-109 0 -134 2q-6 3 -16 3v-46q24 4 44 5h97q-1 -12 -5 -23l-33 -129q-13 -48 -39 -117q73 -48 150 -105q-48 -75 -136 -146q-39 -28 -85 -45
q21 -21 40 -43q42 31 75 60q28 24 53 48q42 39 89 101l84 -70q25 -24 47 -53q7 18 19 33q6 6 12 15l-141 111q52 112 82 251q6 24 10 57l14 96q-10 0 -19 -1zM239 480h149q-24 -202 -95 -337q-12 7 -23 14l-99 69l24 90zM517 -88q-105 0 -119 3q-4 1 -9 2v-47q12 6 52 6
l487 -1q24 0 33 -4q3 0 7 -1v47q-6 0 -8 -2q-3 0 -4 -1l-99 -2v722q0 7 2 28q1 9 4 38l-55 -7l-253 1q-30 6 -43 6q1 -19 3 -35q1 -19 2 -29v-724zM554 423v235h266v-235h-266zM554 188v199h266v-199h-266zM820 -88h-266v240h266v-240z" />
  </g>

</svg>
