<?xml version="1.0" standalone="no"?>
<!DOCTYPE svg PUBLIC "-//W3C//DTD SVG 1.1//EN" "http://www.w3.org/Graphics/SVG/1.1/DTD/svg11.dtd" >
<svg xmlns="http://www.w3.org/2000/svg" xmlns:xlink="http://www.w3.org/1999/xlink" version="1.1" viewBox="-10 0 1034 1024">
  <g transform="matrix(1 0 0 -1 0 820)">
   <path fill="currentColor"
d="M287 113q-10 7 -19 14l40 104l28 114l28 183q-27 -1 -55 -5h-98q0 6 20 118q9 57 13 64q4 19 18 40q-31 3 -57 9l-16 -128q-9 -45 -17 -103l-96 1l-25 4v-46q24 4 47 5h67l-38 -163q-19 -72 -37 -121q39 -21 69 -42q27 -19 59 -44q-19 -34 -38 -61q-18 -25 -44 -57
q-42 -45 -92 -72q24 -12 48 -31q97 96 159 197q49 -39 68 -58q13 -13 25 -32q15 22 33 41q-13 9 -27 20zM317 487q-10 -96 -23 -164q-9 -42 -21 -77q-12 -37 -38 -95l-97 69l68 267h111zM577 339v-361q0 -33 -8 -40q-12 -9 -35 -10q-19 0 -52 5q12 -27 18 -47q36 3 58 8
q33 6 44 18q10 15 11 50v377h92l-1 -177q-3 -64 -9 -103q-10 -78 -34 -125q-18 -30 -44 -56q34 -12 52 -20q49 105 61 184q12 90 12 297h108l-1 -387q-1 -13 -9 -18q-12 -7 -35 -8q-18 0 -49 5l10 -38q0 -3 2 -11q39 3 64 7q21 4 30 9q25 13 26 65v376q60 0 80 -3q1 0 4 -2
h7v46q-9 0 -12 -3l-79 -2l1 307l4 41q-55 -4 -81 -5q-72 0 -100 4q-6 0 -12 1q1 -30 5 -61v-287h-92l1 288l6 58q-57 -6 -82 -6q-48 0 -71 2q-7 3 -34 4q1 -33 5 -68v-278q-48 0 -69 5h-3v-46q25 3 52 5h20q0 -205 -14 -265q-16 -72 -38 -117q-18 -37 -57 -71q22 -6 50 -22
q48 78 68 152q7 27 14 56q0 10 10 85l4 182h102zM475 375v304h102v-304h-102zM742 375v307h108v-307h-108z" />
  </g>

</svg>
