<?xml version="1.0" standalone="no"?>
<!DOCTYPE svg PUBLIC "-//W3C//DTD SVG 1.1//EN" "http://www.w3.org/Graphics/SVG/1.1/DTD/svg11.dtd" >
<svg xmlns="http://www.w3.org/2000/svg" xmlns:xlink="http://www.w3.org/1999/xlink" version="1.1" viewBox="-10 0 1034 1024">
  <g transform="matrix(1 0 0 -1 0 820)">
   <path fill="currentColor"
d="M129 182q-36 0 -55 3q-4 0 -11 2v-46q24 4 44 5h239q-63 -69 -72 -78l-23 -21q55 -15 136 -33q27 -6 53 -14l70 -19q-24 -15 -43 -26q-67 -34 -141 -55q-40 -12 -95 -21q-46 -9 -82 -9q-15 0 -44 3q21 -28 31 -52q160 27 252 59q99 36 173 88q237 -73 334 -136
q4 16 23 49l-148 58q-85 30 -173 58q58 64 103 149l219 -1l30 -4h5v46q-9 0 -13 -3l-81 -2h-433q51 61 55 63q13 13 40 28q-25 12 -53 32q-18 -30 -41 -58q-21 -30 -53 -65h-246zM398 146h255q-45 -93 -102 -135l-221 58q33 39 68 77zM105 303q24 4 44 5l722 -1q9 0 26 -3
q1 0 3 -1h6v46q-9 0 -13 -3q-27 0 -50 -2h-316v102l253 -1q25 0 34 -4h8v46q-4 0 -9 -2q-3 0 -4 -1q-27 0 -50 -2h-232v101l319 -1q25 0 34 -4h7v46q-3 0 -12 -3q-28 0 -50 -2h-228l69 68q36 36 66 54q-30 21 -47 36q-21 -34 -45 -61q-39 -43 -95 -97h-359q-36 0 -54 3
q-3 0 -12 2v-46q22 3 47 5h322v-101l-275 1q-24 3 -27 4v-46q24 4 44 5h258v-102l-357 1q-24 3 -27 4v-46zM263 727q66 -36 118 -104q12 15 32 30q-63 60 -119 108q-15 -18 -31 -34v0z" />
  </g>

</svg>
