<?xml version="1.0" standalone="no"?>
<!DOCTYPE svg PUBLIC "-//W3C//DTD SVG 1.1//EN" "http://www.w3.org/Graphics/SVG/1.1/DTD/svg11.dtd" >
<svg xmlns="http://www.w3.org/2000/svg" xmlns:xlink="http://www.w3.org/1999/xlink" version="1.1" viewBox="-10 0 1034 1024">
  <g transform="matrix(1 0 0 -1 0 820)">
   <path fill="currentColor"
d="M387 33l-96 79l42 113q7 27 18 79q12 54 19 98l16 129q-30 -1 -62 -5h-92l25 133q10 57 14 65q4 12 21 25q-30 3 -62 10q-4 -57 -16 -124q-10 -64 -22 -109l-116 2l-26 3v-46q7 0 17 2l117 3q-42 -195 -84 -286l33 -21q57 -36 108 -82q-31 -46 -54 -75q-15 -21 -37 -43
q-63 -61 -113 -90q27 -10 51 -29q48 45 99 103t84 109q24 -19 44 -37q19 -18 45 -46q4 6 9 15q0 3 18 25zM165 262q24 87 27 97q3 21 7 28q3 13 7 29q0 12 19 74h115q-9 -96 -32 -206q-16 -70 -49 -147l-107 82q6 22 13 43zM650 -104q-3 -42 -3 -52q-1 -1 -2 -12h48
q-6 60 -5 89v346l61 -104q25 -37 56 -76q28 -33 53 -60l81 -76q18 21 51 37q-42 21 -78 50q-66 57 -112 120q-48 69 -60 88q-15 24 -30 63q178 0 197 -2q6 0 30 -3v46q-4 0 -7 -1q-3 0 -4 -1q-27 0 -54 -3h-184v169h143q25 0 50 -3q3 0 15 -2v47q-72 -6 -75 -6h-133v149
q0 39 14 65h-57q4 -49 5 -85v-129h-144q6 15 11 32q9 27 19 52q1 3 3 8q6 18 26 30q-30 9 -60 22q-10 -69 -40 -144q-18 -49 -34 -81q-15 -27 -30 -45q21 -1 50 -10l35 84q3 9 7 16h157v-169l-208 1q-31 3 -40 4v-46q30 4 66 5h154q-45 -102 -111 -194q-87 -117 -171 -164
q33 -18 46 -29q79 75 131 137q36 43 74 104q37 63 59 111v-378z" />
  </g>

</svg>
