<?xml version="1.0" standalone="no"?>
<!DOCTYPE svg PUBLIC "-//W3C//DTD SVG 1.1//EN" "http://www.w3.org/Graphics/SVG/1.1/DTD/svg11.dtd" >
<svg xmlns="http://www.w3.org/2000/svg" xmlns:xlink="http://www.w3.org/1999/xlink" version="1.1" viewBox="-10 0 1010 1000">
   <path fill="currentColor"
d="M635 -4q95 4 95 14q0 4 -6 11q-14 16 -14 35v145h86q53 0 89 -6v79q-34 -6 -93 -6h-82v129h137q62 0 91 -6v82q-44 -8 -85 -8h-103q58 206 214 285q-41 29 -69 80q-147 -112 -185 -330v300q0 45 1 63q1 23 3 40h-81q8 -56 8 -111v-292q-83 216 -238 340q-31 -38 -80 -68
q182 -93 266 -307h-81q-59 0 -95 6v-80q0 -1 10 1q43 5 87 5h131v-129h-123q-3 7 -11 28q-17 46 -25 64q-26 -16 -81 -22q73 -108 95 -280q100 16 97 26q0 2 -4 8q-26 33 -49 109h101v-123q0 -52 -6 -82zM200 -8q7 2 19 5q91 24 85 33q0 4 -6 10q-11 12 -16 28q-2 6 -6 23
q-17 56 -28 114q116 -3 147 -8q-22 284 -74 411q22 13 72 47q16 11 24 16q-38 34 -60 64q-31 -37 -69 -66q-75 119 -159 194q-34 -36 -79 -57q107 -66 180 -177q-78 -48 -141 -79q44 -120 72 -274q-81 0 -101 4v-79q5 0 14 1q35 5 101 5q25 -149 25 -215zM236 274
q-24 96 -59 244q48 28 81 52q49 -138 59 -296h-81z" />
</svg>
