<?xml version="1.0" standalone="no"?>
<!DOCTYPE svg PUBLIC "-//W3C//DTD SVG 1.1//EN" "http://www.w3.org/Graphics/SVG/1.1/DTD/svg11.dtd" >
<svg xmlns="http://www.w3.org/2000/svg" xmlns:xlink="http://www.w3.org/1999/xlink" version="1.1" viewBox="-10 0 1010 1000">
   <path fill="currentColor"
d="M758 -10q13 4 35 10q64 18 60 26q1 4 -9 15q-18 20 -29 39q-3 6 -9 17q-32 65 -52 98q64 0 96 -2q36 -2 67 -8v81q-4 -3 -43 -4q-35 -1 -80 0v199q88 0 150 -8v81h-2q-52 -6 -148 -6v210q0 99 6 151h-88q0 -5 2 -18q6 -56 6 -131v-212h-123q0 252 -200 385
q-27 -44 -74 -65q203 -78 201 -320q-64 0 -86 1q-29 1 -43 3v-79h3q52 8 130 8v-199q-40 0 -56 1q-20 0 -45 3v-77q35 6 113 6h143q38 -75 75 -205zM560 -4q6 13 21 40q34 65 48 99l-75 28q-18 -71 -74 -139zM599 262v199h121v-199h-121zM187 -12q95 7 107 20q0 2 -11 18
q-19 27 -21 38q-3 18 -10 52q-11 63 -16 85q52 0 169 -8q-36 312 -84 422q5 4 21 14q68 43 96 66q-6 7 -19 21q-26 27 -42 50q-45 -49 -91 -83q-70 111 -163 208q-17 -24 -69 -59q80 -48 172 -193q-71 -51 -149 -85q33 -71 74 -280q-84 4 -117 8v-89q24 9 131 8
q22 -138 22 -213zM222 272l-55 248q47 27 91 54q41 -95 61 -302h-97z" />
</svg>
