<?xml version="1.0" standalone="no"?>
<!DOCTYPE svg PUBLIC "-//W3C//DTD SVG 1.1//EN" "http://www.w3.org/Graphics/SVG/1.1/DTD/svg11.dtd" >
<svg xmlns="http://www.w3.org/2000/svg" xmlns:xlink="http://www.w3.org/1999/xlink" version="1.1" viewBox="-10 0 1034 1024">
  <g transform="matrix(1 0 0 -1 0 820)">
   <path fill="currentColor"
d="M195 517q-120 0 -135 3q-4 1 -9 2v-47q9 4 25 5l113 1q-36 -174 -77 -275q57 -36 91 -59q15 -12 30 -22l28 -22q-115 -175 -218 -217q27 -18 46 -35q25 25 53 51q21 19 40 40q21 25 44 49q36 42 68 89l64 -54q16 -16 37 -46q3 6 30 40l-113 95q30 75 46 153q9 45 16 103
l17 151q-28 -1 -57 -5h-100l16 110q6 36 10 61q6 30 23 65q-30 1 -59 9q0 -31 -3 -55l-10 -75q-9 -52 -16 -115zM349 481l-13 -121q-3 -31 -10 -61q-19 -99 -46 -159q-3 3 -9 6t-19 13q-64 46 -92 63l34 119l34 140h121zM416 -140l51 28q27 15 54 28q30 18 53 36
q37 28 87 75q67 -61 120 -95q57 -36 152 -80q15 28 33 49q-67 7 -140 51q-52 30 -78 50q-24 19 -60 55q30 42 49 73q18 28 38 69q21 43 28 51q4 9 26 31q-27 9 -57 22q-12 -48 -41 -102q-39 -70 -70 -113q-72 90 -102 197q-24 -9 -56 -18q24 -30 33 -49l16 -31
q15 -30 81 -130q-61 -66 -145 -113q-54 -28 -79 -38q-24 -9 -56 -13q24 -27 39 -45zM408 315q27 -18 34 -28q3 -4 6 -9q54 48 105 102l46 48l41 31q-30 15 -47 31q-43 -63 -110 -128q-42 -36 -75 -47zM947 580q-15 0 -39 -4q-12 1 -24 -1l-438 1l-25 4v-46q24 4 47 5l437 -1
q25 0 34 -4h8v46zM749 636q-18 21 -48 51q-33 33 -75 72q-15 -19 -22 -25q-1 -1 -12 -10q78 -42 124 -125l15 21q9 9 18 16zM775 495q-15 -21 -34 -37q28 -18 49 -36q18 -15 41 -40q43 -45 68 -88q18 18 37 33q-42 51 -68 76z" />
  </g>

</svg>
