<?xml version="1.0" standalone="no"?>
<!DOCTYPE svg PUBLIC "-//W3C//DTD SVG 1.1//EN" "http://www.w3.org/Graphics/SVG/1.1/DTD/svg11.dtd" >
<svg xmlns="http://www.w3.org/2000/svg" xmlns:xlink="http://www.w3.org/1999/xlink" version="1.1" viewBox="-10 0 1034 1024">
  <g transform="matrix(1 0 0 -1 0 820)">
   <path fill="currentColor"
d="M373 452q1 15 5 30q3 18 7 34q-27 -1 -55 -5h-103l21 113l12 60q6 28 22 48q-33 3 -62 13q0 -15 -8 -88q-1 -7 -3 -19q-4 -36 -21 -118l-2 -9l-123 3l-6 2v-46q24 4 44 5h79q-12 -63 -33 -141q-13 -48 -26 -83q-10 -30 -24 -59q76 -48 147 -99q-45 -75 -102 -130
q-48 -42 -94 -57q24 -21 42 -42q69 58 115 106q36 39 73 98q85 -57 132 -116q13 27 30 45l-57 45q-31 24 -88 64l40 137zM147 209q18 54 36 112l38 154h112q-9 -96 -26 -181q-12 -57 -23 -97q-9 -33 -23 -66q-16 9 -48 32zM951 692q-12 0 -18 -3l-221 -2l-217 1q-15 3 -47 4
l6 -68l-1 -691q-4 -19 -5 -40v-2q15 1 31 3q21 3 29 3l461 -4l2 -1q3 0 7 -1v47q-6 0 -9 -2q-3 0 -4 -1l-94 -2h-119v204l87 -1l44 -4q-3 28 -5 57l1 233l4 45q-28 -1 -57 -5h-74v189q168 0 189 -3q4 0 10 -2v46zM492 -67v718h223v-189l-97 3q-3 1 -26 2q1 -30 5 -62
l-1 -236q-1 -3 -1 -7q0 -15 -3 -30q45 4 69 5h54v-204h-223zM633 173v253h205v-253h-205z" />
  </g>

</svg>
