<?xml version="1.0" standalone="no"?>
<!DOCTYPE svg PUBLIC "-//W3C//DTD SVG 1.1//EN" "http://www.w3.org/Graphics/SVG/1.1/DTD/svg11.dtd" >
<svg xmlns="http://www.w3.org/2000/svg" xmlns:xlink="http://www.w3.org/1999/xlink" version="1.1" viewBox="-10 0 1034 1024">
  <g transform="matrix(1 0 0 -1 0 820)">
   <path fill="currentColor"
d="M226 522q0 15 17 87q1 15 15 70q13 48 18 54q4 13 13 23q-30 1 -61 8q0 -30 -6 -59q-6 -39 -22 -116q-4 -27 -15 -67l-112 2q-6 0 -14 3v-47q12 6 52 6h67q-27 -114 -86 -268q36 -22 59 -40l74 -57q16 -12 31 -26q-42 -78 -115 -147q-52 -45 -97 -53q24 -22 44 -49
q75 69 125 121q39 43 76 101q54 -42 85 -88q30 39 33 41q-9 6 -19 15q-61 54 -83 71q30 78 46 152q9 45 20 107l23 161q-55 -4 -74 -5h-94zM347 486q-10 -96 -24 -171q-10 -63 -21 -98q-9 -33 -30 -84q-87 69 -110 85q-10 7 -22 17q42 123 79 251h128zM681 269
q15 -12 34 -36q24 -27 68 -89q10 -21 26 -53l24 20q6 3 14 10q-33 48 -66 90l-96 114l8 71q108 0 123 -3l2 -1q3 0 8 -1v47q-9 0 -13 -4l-97 -2h-23q3 117 6 129q0 4 2 9q3 10 7 26q-34 0 -58 3q4 -33 7 -60v-107h-58q-36 0 -54 3q-4 0 -11 3v-47q24 4 47 5h72
q-12 -144 -94 -256q-19 -25 -57 -49q24 -13 45 -31q79 90 125 215zM496 695q-42 6 -65 6q1 -30 5 -62l-3 -802q-1 -1 -2 -5h49q-6 48 -6 77v24h412q0 -42 -3 -90q0 -1 -2 -6h49q0 3 -2 6q-3 24 -4 53l1 758q1 24 5 47l-61 -6h-373zM474 -31v691h412v-691h-412z" />
  </g>

</svg>
