<?xml version="1.0" standalone="no"?>
<!DOCTYPE svg PUBLIC "-//W3C//DTD SVG 1.1//EN" "http://www.w3.org/Graphics/SVG/1.1/DTD/svg11.dtd" >
<svg xmlns="http://www.w3.org/2000/svg" xmlns:xlink="http://www.w3.org/1999/xlink" version="1.1" viewBox="-10 0 1010 1000">
   <path fill="currentColor"
d="M163 -4q115 12 109 24q0 1 -2 4q-27 34 -50 183q120 0 175 -10q-5 25 -15 99q-27 222 -72 333l33 24q35 26 54 40q-10 12 -24 28q-23 25 -36 47q-26 -37 -67 -71q-94 130 -173 182q-15 -29 -69 -65q104 -53 184 -165q-49 -37 -148 -85q29 -45 77 -286q-36 1 -69 5
q-14 1 -20 1v-83q19 3 99 6q12 -133 14 -211zM919 50q-5 78 -6 125v528q2 139 10 200h-94q4 -18 7 -50q2 -30 1 -49h-337q0 62 2 89h-93q12 -60 14 -218v-504q-1 -91 -6 -119q25 3 135 6h220q107 -3 147 -8zM498 129v604h339v-604h-339zM304 274h-94q-23 119 -57 258
q46 31 91 56q46 -128 60 -314zM764 655q-45 -100 -101 -170q-42 130 -96 200q-23 -33 -61 -56q97 -67 115 -266h-24q-48 0 -77 6v-75q21 3 77 6h30q-3 -110 -14 -137l42 3q58 4 55 7q1 5 -9 23q-9 17 -9 23q0 38 -2 79h46l77 -2v71l-77 -4h-48q-2 20 -7 54q73 79 148 189
q-21 8 -65 49z" />
</svg>
