<?xml version="1.0" standalone="no"?>
<!DOCTYPE svg PUBLIC "-//W3C//DTD SVG 1.1//EN" "http://www.w3.org/Graphics/SVG/1.1/DTD/svg11.dtd" >
<svg xmlns="http://www.w3.org/2000/svg" xmlns:xlink="http://www.w3.org/1999/xlink" version="1.1" viewBox="-10 0 1034 1024">
  <g transform="matrix(1 0 0 -1 0 820)">
   <path fill="currentColor"
d="M184 534q-99 0 -122 2q-6 3 -16 3v-46q24 4 47 5h85l-21 -103q-9 -42 -19 -76q-15 -63 -38 -126q46 -27 80 -49q33 -22 78 -56q-43 -78 -112 -151q-24 -25 -41 -39q-15 -9 -48 -24q25 -15 48 -35q63 60 100 103q40 51 85 118q42 -33 64 -52q18 -18 45 -53q13 24 32 40
q-3 1 -4 4q-9 6 -15 12l-28 22l-77 65q52 138 67 274l9 97q3 52 8 70q-30 -1 -60 -5h-108l19 103q7 33 13 58q7 33 22 56q-34 6 -61 14q-1 -12 -1 -26q0 -21 -14 -97l-14 -89zM180 330q0 4 7 29q4 31 31 139h127q-3 -72 -8 -124q-6 -45 -15 -89q-24 -106 -48 -161
q-55 40 -126 87q0 4 32 119zM682 484q34 -69 106 -142q51 -51 159 -118q13 19 39 43q-75 22 -150 84q-72 60 -108 133l208 -4l2 -1h8v46q-4 0 -9 -2q-3 0 -4 -1q-27 0 -50 -2h-240q18 79 33 169q10 1 155 29q21 4 65 8q-18 18 -41 48q-22 -10 -41 -17q-24 -7 -57 -15
q-34 -7 -75 -14q-114 -18 -192 -18q-28 0 -69 4q12 -27 19 -50l158 16l35 4q-3 -33 -9 -69q-7 -39 -22 -95l-171 2l-15 3v-46q24 4 47 5h127q-30 -75 -83 -134q-81 -84 -149 -96q27 -21 45 -41q63 40 133 112q58 63 97 159h49zM594 286q-15 0 -44 5q4 -49 5 -88
q0 -42 -5 -87q-7 -72 -29 -119q-24 -51 -67 -95q-27 -24 -67 -42q30 -16 46 -34q33 30 55 54q18 21 37 46q57 81 64 202q4 111 8 120q1 19 9 38h-12zM768 286q0 -12 3 -26q0 -9 2 -37l-1 -341l-4 -36h48q-3 6 -4 31l-1 346q0 10 10 46q1 10 5 17h-58z" />
  </g>

</svg>
