<?xml version="1.0" standalone="no"?>
<!DOCTYPE svg PUBLIC "-//W3C//DTD SVG 1.1//EN" "http://www.w3.org/Graphics/SVG/1.1/DTD/svg11.dtd" >
<svg xmlns="http://www.w3.org/2000/svg" xmlns:xlink="http://www.w3.org/1999/xlink" version="1.1" viewBox="-10 0 1034 1024">
  <g transform="matrix(1 0 0 -1 0 820)">
   <path fill="currentColor"
d="M126 522l-66 5v-46q7 0 17 2l109 3h4q-6 -36 -15 -70q-9 -36 -23 -83q-24 -84 -48 -135q70 -34 146 -92q-39 -58 -92 -109q-57 -51 -110 -72q19 -12 45 -37q54 42 104 91q42 45 86 101q85 -61 132 -110q6 21 22 43q-10 9 -135 103q34 75 49 126q13 55 25 151q3 42 8 84
q3 25 5 50q-31 -1 -63 -5h-91q3 31 13 74q6 39 10 70q0 21 6 44q3 18 21 39l-49 4q-7 1 -15 1q0 -36 -6 -103q-7 -75 -19 -129h-70zM220 448q4 18 9 38h115l-10 -121q-6 -55 -11 -71q-19 -94 -55 -155q-1 0 -4 2q-7 6 -15 12q-4 0 -56 37l-38 25q27 84 44 147zM968 266
q-54 -6 -65 -6l-473 1l-42 5v-47q54 6 82 5h101q-13 -40 -26 -82q-7 -24 -29 -62q19 1 36 3q27 3 38 3h258l-7 -78q-6 -79 -33 -101q-18 -15 -65 -15q-24 0 -63 5q19 -36 24 -50q81 6 110 16q25 9 43 40q9 22 14 43q6 37 23 181l-70 -6h-245l33 103h291q27 0 50 -3
q3 0 15 -2v47zM461 332q15 3 53 4l321 1q27 0 63 -5q-4 45 -5 65l1 212l4 48q-13 0 -29 -3q-27 -3 -90 -3h-84v44q0 39 14 67h-58q3 -15 6 -43l1 -68q-130 0 -157 2q-7 3 -36 4h-4q1 -34 5 -71l-1 -209q-3 -12 -4 -45zM503 475h155v-102h-155v102zM503 511v105h155v-105
h-155zM695 373v102h160v-102h-160zM695 511v105h160v-105h-160z" />
  </g>

</svg>
