<?xml version="1.0" standalone="no"?>
<!DOCTYPE svg PUBLIC "-//W3C//DTD SVG 1.1//EN" "http://www.w3.org/Graphics/SVG/1.1/DTD/svg11.dtd" >
<svg xmlns="http://www.w3.org/2000/svg" xmlns:xlink="http://www.w3.org/1999/xlink" version="1.1" viewBox="-10 0 1034 1024">
  <g transform="matrix(1 0 0 -1 0 820)">
   <path fill="currentColor"
d="M497 378q0 -30 -2 -52q0 -3 -3 -9h50q-4 19 -5 40l-1 161q70 -84 155 -128q79 -42 250 -82q10 25 30 53q-43 0 -80 6q-79 15 -124 32q-108 40 -186 125l298 -1q19 0 28 -4q3 0 7 -1v48q-3 0 -12 -4l-153 -2h-101l77 89q12 12 22 24q19 24 37 33q9 9 25 17q-37 22 -51 38
q-30 -49 -45 -69q-21 -27 -68 -81q-15 -19 -45 -51h-65v158q0 9 3 28q3 15 12 36h-60l4 -9q0 -37 3 -76v-137l-355 1l-26 5v-48q6 3 12 3q24 3 54 3h274q-97 -88 -248 -146q-87 -33 -152 -35q24 -27 37 -47l109 39q34 12 64 25q66 30 112 59q45 28 119 87v-128zM147 202
l-54 4q-4 0 -11 2v-47q19 4 45 5l243 1q-28 -37 -54 -65q-22 -25 -50 -50q117 -33 226 -70q-78 -39 -148 -63q-141 -45 -216 -45l-30 1q18 -24 34 -50q54 9 114 24q57 15 103 30q48 15 91 34q45 21 105 53q19 -6 202 -75q42 -18 90 -42q6 -3 42 -27q7 24 20 40l6 9
q-1 0 -126 52l-153 55l-48 16q51 48 88 87q33 37 67 86l177 -1q13 -1 29 -5h6v47q-3 0 -13 -4q-27 0 -50 -2h-433q31 48 71 75q-25 12 -53 32q-24 -48 -66 -107h-254zM421 167h262q-63 -90 -150 -157l-190 60zM213 707q36 -18 81 -52q27 -21 41 -35q7 -9 20 -28q31 36 36 39
l-73 59l-74 56q-7 -12 -11 -17q-6 -7 -20 -22v0z" />
  </g>

</svg>
