<?xml version="1.0" standalone="no"?>
<!DOCTYPE svg PUBLIC "-//W3C//DTD SVG 1.1//EN" "http://www.w3.org/Graphics/SVG/1.1/DTD/svg11.dtd" >
<svg xmlns="http://www.w3.org/2000/svg" xmlns:xlink="http://www.w3.org/1999/xlink" version="1.1" viewBox="-10 0 1010 1000">
   <path fill="currentColor"
d="M925 74v87q-51 -6 -173 -6v639q115 0 185 -8v87q-69 -8 -171 -8h-220q-123 0 -195 8v-89q24 6 59 8q34 2 126 2v-637q-95 0 -151 8v-89q18 5 52 6q34 2 111 2h252q48 0 71 -2t54 -8zM681 155h-74v639h74v-639zM841 302q81 12 92 24q1 4 -4 12q-13 22 -22 59q-1 6 -5 24
q-35 172 -51 224q-47 -20 -77 -20q43 -94 67 -323zM462 308q37 187 48 329l-83 8q3 -154 -40 -325zM175 -15q72 9 103 23q0 2 -8 13q-16 20 -18 31q-4 22 -11 60q-17 88 -19 109q51 0 155 -8q-33 297 -77 402q74 49 109 76q-38 36 -58 67q-38 -45 -83 -79q-76 124 -161 216
q-18 -27 -71 -63q94 -63 176 -195q-52 -40 -135 -81q32 -76 68 -266q-66 4 -104 8h-5v-85q24 9 121 8q10 -70 16 -138q5 -65 2 -98zM210 288l-51 236q51 31 83 52q37 -88 58 -288h-90z" />
</svg>
