<?xml version="1.0" standalone="no"?>
<!DOCTYPE svg PUBLIC "-//W3C//DTD SVG 1.1//EN" "http://www.w3.org/Graphics/SVG/1.1/DTD/svg11.dtd" >
<svg xmlns="http://www.w3.org/2000/svg" xmlns:xlink="http://www.w3.org/1999/xlink" version="1.1" viewBox="-10 0 1034 1024">
  <g transform="matrix(1 0 0 -1 0 820)">
   <path fill="currentColor"
d="M129 484h-10q-12 0 -40 3q-6 0 -16 3v-47q7 0 17 2l97 3q-15 -69 -40 -161q-10 -37 -34 -92q21 -12 63 -45q39 -31 78 -67q-81 -123 -181 -178q18 -12 39 -32l4 -4q54 46 91 86q34 40 78 101q42 -39 60 -57l28 -32q13 15 29 35l-79 71q0 1 -3 4t-6 5q-3 3 -8 9
q28 57 52 129q15 51 25 93l20 153q1 12 3 24q-19 -1 -38 -3q-25 -3 -37 -3h-96l26 128q12 73 20 91q4 15 25 32q-36 4 -67 13q-6 -54 -17 -113l-28 -151h-55zM349 448q-15 -195 -85 -330l-45 36q-39 30 -67 54l66 240h131zM662 98v-169l-276 5q-1 1 -2 1v-47q31 3 65 5
l493 -1q7 0 15 -2q3 0 15 -2v47l-66 -6h-207v169l225 -3q3 0 11 -2v46q-4 0 -7 -1q-3 0 -4 -1l-111 -3h-114v131l159 -1l48 -4l-6 65l1 307q1 30 5 60q-66 -4 -89 -5l-304 1q-24 3 -52 4q1 -34 5 -70l-1 -316q-1 -4 -2 -14q0 -15 -2 -32q60 4 116 5h85v-131h-160
q-24 0 -49 3q-3 0 -17 2v-46q54 4 77 5h149zM662 494h-159v157h159v-157zM662 458v-157h-159v157h159zM699 494v157h164v-157h-164zM863 301h-164v157h164v-157z" />
  </g>

</svg>
