<?xml version="1.0" standalone="no"?>
<!DOCTYPE svg PUBLIC "-//W3C//DTD SVG 1.1//EN" "http://www.w3.org/Graphics/SVG/1.1/DTD/svg11.dtd" >
<svg xmlns="http://www.w3.org/2000/svg" xmlns:xlink="http://www.w3.org/1999/xlink" version="1.1" viewBox="-10 0 1010 1000">
   <path fill="currentColor"
d="M728 -6q90 25 93 34q0 2 -4 5q-32 26 -77 122q72 0 101 -2q28 -1 56 -6q-8 39 -8 133q0 86 8 129q-26 -8 -91 -8h-119v119q146 0 244 -8q-6 68 -6 167q8 115 -157 121q-6 -69 -32 -95q68 12 93 -4q12 -5 15 -25q3 -16 3 -88h-160v178q0 99 7 145h-87q8 -79 8 -141v-174
q-99 190 -238 283q-34 -39 -81 -51q173 -80 246 -240q-79 -1 -131 6q8 -47 8 -76v-115q0 -22 -1 -52q-1 -17 -1 -23q25 4 67 5q21 1 50 1h81v-111h-48q-91 0 -156 6v-78q37 3 133 4h123q42 -79 61 -161zM556 -2q23 37 57 117l-71 26q-32 -83 -60 -119zM813 223h-126v111h79
h47v-111zM492 401v119h123v-119h-123zM171 -12q98 13 111 24q0 4 -11 15q-17 16 -19 27q-28 128 -28 153q76 -2 147 -10q-23 329 -59 418q15 12 51 38q39 28 60 44q-9 10 -27 29q-23 25 -33 36q-38 -40 -83 -79q-70 111 -161 186q-39 -36 -75 -57q111 -66 172 -171
q-50 -41 -141 -83q38 -129 62 -278q-30 2 -67 6q-22 2 -28 2v-81q0 -1 13 0q52 5 94 2q17 -110 22 -221zM290 270l-76 4q-34 168 -53 246q3 4 20 15q31 18 63 39q38 -124 46 -304z" />
</svg>
