<?xml version="1.0" standalone="no"?>
<!DOCTYPE svg PUBLIC "-//W3C//DTD SVG 1.1//EN" "http://www.w3.org/Graphics/SVG/1.1/DTD/svg11.dtd" >
<svg xmlns="http://www.w3.org/2000/svg" xmlns:xlink="http://www.w3.org/1999/xlink" version="1.1" viewBox="-10 0 1010 1000">
   <path fill="currentColor"
d="M185 -6q104 10 111 18q0 1 -3 7q-17 31 -25 65q0 1 -1 5q-15 68 -19 114q101 -3 167 -12q-40 307 -82 426q62 45 104 90l-60 67q-38 -52 -81 -87q-80 119 -171 182q-33 -45 -81 -63q119 -43 192 -169q-49 -40 -141 -85q38 -109 68 -282q-54 0 -98 8q-8 2 -11 2v-83
q32 6 117 6q16 -126 14 -209zM889 30q-7 36 -6 78v81q0 64 6 81q-10 -2 -36 -3q-13 -1 -33 -1h-56h-183q-62 1 -115 8q0 -9 2 -40q1 -23 2 -37v-95q-1 -50 -6 -70q28 4 111 4h187q70 0 127 -6zM546 100v103h262v-103h-262zM236 266q-16 82 -49 232q-3 13 -4 20q13 9 41 27
q27 16 42 27q40 -96 59 -306h-89zM911 316q-2 7 -3 29q-1 10 -1 26v46v377q3 71 -20 83q-18 17 -123 22q-8 -47 -36 -87q73 7 84 -1q16 -6 15 -51v-67h-297v55q-2 105 4 141h-94q7 -37 10 -143v-337q0 -68 -4 -93q11 1 58 5q26 2 42 3h252q71 0 113 -8zM530 387v96h297v-96
h-297zM827 542h-297v91h297v-91z" />
</svg>
