<?xml version="1.0" standalone="no"?>
<!DOCTYPE svg PUBLIC "-//W3C//DTD SVG 1.1//EN" "http://www.w3.org/Graphics/SVG/1.1/DTD/svg11.dtd" >
<svg xmlns="http://www.w3.org/2000/svg" xmlns:xlink="http://www.w3.org/1999/xlink" version="1.1" viewBox="-10 0 1010 1000">
   <path fill="currentColor"
d="M567 -10q94 18 106 28q-1 5 -7 10q-27 20 -55 76h121q36 0 83 -3q26 -1 36 -1q-67 118 -115 184h79q21 -2 53 -5q24 -2 33 -3q-7 49 -8 101v94q0 44 6 85q-73 -5 -117 -6h-105q-80 234 -276 355q-40 -44 -89 -59q226 -96 287 -296h-91q-42 1 -81 8q7 -33 8 -75v-139
q0 -51 -6 -66q17 6 95 6h129l71 -113h-151q-20 33 -57 83q-11 15 -16 22q-28 -24 -79 -34q105 -97 146 -252zM173 10q112 12 119 18q-1 5 -8 11q-15 13 -20 31q-23 99 -30 161q101 0 153 -8q-20 290 -70 398q33 26 90 68l24 18q-37 22 -74 67q-24 -30 -79 -81
q-84 119 -171 192q-41 -38 -87 -53q119 -66 196 -183q-55 -47 -127 -81q42 -119 62 -264q-73 0 -103 6v-83q18 3 113 6q23 -169 12 -223zM222 302q-15 94 -45 228q16 11 42 30q27 20 35 24q48 -113 52 -282h-84zM625 352h-115v131h105zM817 352h-117l-13 131h130v-131z
M667 592q23 1 59 0q31 -1 30 2q1 1 -2 5q-16 27 -16 74v95q-1 33 11 39q7 8 53 7q49 2 62 -18q16 -19 21 -91q40 41 91 43q-11 84 -37 114q-23 29 -82 27h-97q-70 2 -80 -14q-14 -11 -13 -87v-121v-75z" />
</svg>
