<?xml version="1.0" standalone="no"?>
<!DOCTYPE svg PUBLIC "-//W3C//DTD SVG 1.1//EN" "http://www.w3.org/Graphics/SVG/1.1/DTD/svg11.dtd" >
<svg xmlns="http://www.w3.org/2000/svg" xmlns:xlink="http://www.w3.org/1999/xlink" version="1.1" viewBox="-10 0 1034 1024">
  <g transform="matrix(1 0 0 -1 0 820)">
   <path fill="currentColor"
d="M121 178l-58 4q-3 0 -7 1v-46q9 4 25 5l275 1l-99 -96l154 -43l87 -27q-75 -48 -139 -68q-91 -25 -178 -26q-18 0 -47 2q15 -25 24 -51l124 19q21 4 103 26q30 10 57 23q45 22 107 61q240 -78 302 -130q6 16 14 29q4 9 10 22l-117 44q-55 21 -71 26l-57 21q-24 7 -48 17
q75 73 133 151l226 -1q6 0 14 -4q3 0 7 -1v46q-3 0 -12 -3l-202 -2h-302q34 42 73 64q-31 12 -53 27q-15 -24 -31 -42q-15 -19 -44 -49h-270zM664 143q-42 -64 -125 -137q-79 24 -140 40l-67 19l45 41l37 37h250zM284 300l134 23l37 7q-3 -54 -6 -58h50q-4 13 -5 66
q25 3 43 7q12 4 38 7q4 0 9 1q0 25 6 47l-96 -25v308q48 0 58 -3l2 -1q3 0 7 -1v45q-9 0 -12 -3q-27 0 -50 -2q-372 0 -391 3q-3 0 -10 2v-45q27 3 57 5h39v-361q-63 -10 -120 -14q6 -10 11 -23q3 -9 8 -27q21 6 129 30zM455 469h-224v85h224v-85zM231 434h224v-66
q-51 -10 -101 -19q-51 -9 -123 -19v104zM231 589v94h224v-94h-224zM613 674l-58 4q-3 0 -7 1v-45q24 4 47 5h28q22 -126 102 -232q-43 -42 -91 -80q-39 -25 -85 -43q27 -16 45 -34q103 75 160 131q84 -78 177 -140q28 33 48 43q-54 13 -86 35q-75 51 -114 92q93 115 154 268
q-55 -4 -74 -5h-246zM873 639q-34 -87 -120 -201q-34 42 -64 109q-21 55 -25 92h209z" />
  </g>

</svg>
