<?xml version="1.0" standalone="no"?>
<!DOCTYPE svg PUBLIC "-//W3C//DTD SVG 1.1//EN" "http://www.w3.org/Graphics/SVG/1.1/DTD/svg11.dtd" >
<svg xmlns="http://www.w3.org/2000/svg" xmlns:xlink="http://www.w3.org/1999/xlink" version="1.1" viewBox="-10 0 1034 1024">
  <g transform="matrix(1 0 0 -1 0 820)">
   <path fill="currentColor"
d="M248 761q-6 -51 -22 -124q-6 -36 -15 -69q-7 -30 -16 -53q-121 3 -131 5v-46q7 1 18 2q48 3 94 3h12q-21 -81 -45 -152q-19 -64 -43 -115q90 -51 165 -115q-33 -54 -76 -102q-57 -57 -121 -92q27 -15 42 -33q39 30 85 74q51 51 103 128q70 -57 102 -98l15 25q6 7 11 17
q-12 15 -34 32l-77 62q16 31 24 53q6 18 23 82q16 63 23 111q4 30 9 68l8 96q-31 -1 -63 -5h-103l46 178q6 24 11 30q6 10 21 19q-21 4 -45 12q-10 4 -21 7zM153 240q3 12 38 110l40 131h125q-1 -63 -12 -140q-16 -111 -62 -207l-56 43l-77 52q1 6 4 11zM453 -79
q0 -46 -7 -65h50q0 3 -2 7q-1 3 -2 26q-3 33 -3 81v320h171q-18 -97 -58 -163q-42 -63 -99 -100q24 -10 46 -29q90 96 130 190l114 -130q6 -10 14 -22q6 -9 13 -21q15 18 34 35l-16 20q-1 3 -4 6q-18 19 -35 39l-110 120q6 27 11 55h191v-329q0 -61 -63 -62q-21 0 -59 4
q18 -33 24 -52q13 0 29 4q54 6 76 20q30 21 31 81l1 327l4 48q-30 0 -59 -5l-172 -1q3 42 5 72q1 24 2 57l127 -1q12 0 54 -5q-6 54 -6 81q0 135 2 147l4 34q-69 -6 -87 -6l-275 1q-24 4 -48 5q1 -30 5 -62l-1 -153q-3 -12 -4 -47q6 1 31 2q27 3 44 4h113q-1 -15 -1 -30
q-3 -91 -4 -99h-146q-13 0 -39 4q-13 0 -33 2l7 -69v-341zM523 489v180h323v-180h-323z" />
  </g>

</svg>
