<?xml version="1.0" standalone="no"?>
<!DOCTYPE svg PUBLIC "-//W3C//DTD SVG 1.1//EN" "http://www.w3.org/Graphics/SVG/1.1/DTD/svg11.dtd" >
<svg xmlns="http://www.w3.org/2000/svg" xmlns:xlink="http://www.w3.org/1999/xlink" version="1.1" viewBox="-10 0 1010 1000">
   <path fill="currentColor"
d="M169 2q56 9 113 22q1 4 -7 11q-20 18 -25 41q-10 54 -22 133q52 0 162 -6h9q-4 25 -11 69q-35 251 -78 361q14 14 62 49q23 18 35 27q-16 11 -72 77q-31 -48 -67 -81q-85 116 -163 184q-36 -40 -83 -63q107 -49 192 -175q-53 -47 -137 -95q32 -92 64 -280q-71 0 -109 10
v-83q25 6 121 6q10 -68 14 -127q5 -57 2 -80zM885 40q-4 27 -4 105v143q3 90 8 111q-23 -3 -127 -6h-197q-97 0 -115 4q5 -44 6 -113v-139q-3 -89 -6 -107q12 1 74 5q27 2 43 3h217q71 -3 101 -6zM532 110v79h274v-79h-274zM532 248v82h274v-82h-274zM310 276h-92
q-23 123 -53 254q7 5 19 14q34 22 62 46q43 -128 64 -314zM411 459q12 1 74 5q28 2 45 3h256q98 -3 135 -6q-5 42 -6 109v194q1 84 6 131h-90l4 -67h-343q1 39 4 65h-93q8 -58 10 -141v-178v-85q-1 -24 -2 -30zM492 530v85h343v-85h-343zM492 679v85h343v-85h-343z" />
</svg>
