<?xml version="1.0" standalone="no"?>
<!DOCTYPE svg PUBLIC "-//W3C//DTD SVG 1.1//EN" "http://www.w3.org/Graphics/SVG/1.1/DTD/svg11.dtd" >
<svg xmlns="http://www.w3.org/2000/svg" xmlns:xlink="http://www.w3.org/1999/xlink" version="1.1" viewBox="-10 0 1010 1000">
   <path fill="currentColor"
d="M609 -4q95 0 95 6q1 2 -2 11q-17 41 -17 102h111q50 0 117 -5v83q-1 1 -18 -2q-61 -8 -107 -8h-103v79h69q45 0 109 -6v82q-5 0 -21 -2q-44 -6 -84 -6h-73v85h65q125 0 169 -6v78q-39 -9 -114 -8h-51h-64q14 97 40 146q59 -43 113 -103q9 8 24 22q53 46 44 48q-2 2 -9 4
q-50 12 -138 81q82 102 182 133q-47 15 -101 71q-197 -161 -222 -389q-6 9 -24 41q-18 31 -30 51v196q54 -36 90 -63q-1 33 14 79q-108 62 -169 119l-3 -6q-14 -41 -41 -71q31 -26 34 -42v-115q-81 88 -147 141q-33 -44 -83 -58q165 -78 296 -289h-62q-66 0 -111 10v-80
q33 5 50 6q17 2 41 2h135v-83h-59q-55 0 -76 1q-26 1 -40 3v-78q57 6 110 6h65v-79h-81q-78 0 -121 6v-81q0 -2 17 1q52 6 104 6h81v-49q0 -46 -4 -70zM171 -19q98 10 111 23q0 4 -11 15q-17 16 -19 27q-28 128 -28 153q76 -2 147 -10q-23 328 -59 419q47 29 71 47
q-39 38 -60 68q-19 -24 -43 -48q-69 109 -161 187q-37 -36 -75 -58q111 -66 172 -171q-50 -41 -141 -83q38 -129 62 -278q-30 2 -67 6q-21 2 -26 2v-83q15 5 78 4h27q17 -109 22 -220zM290 262l-76 4q-34 168 -53 246q3 4 20 15q31 18 63 39q38 -124 46 -304z" />
</svg>
