<?xml version="1.0" standalone="no"?>
<!DOCTYPE svg PUBLIC "-//W3C//DTD SVG 1.1//EN" "http://www.w3.org/Graphics/SVG/1.1/DTD/svg11.dtd" >
<svg xmlns="http://www.w3.org/2000/svg" xmlns:xlink="http://www.w3.org/1999/xlink" version="1.1" viewBox="-10 0 1010 1000">
   <path fill="currentColor"
d="M145 -2q9 1 27 4q86 11 82 18q0 2 -2 4q-23 28 -44 175q21 -1 61 -1q91 -2 112 -5q-9 44 -18 133q-14 179 -69 299l103 80q-25 22 -64 69q-14 -22 -41 -48q-20 -19 -36 -35q-64 100 -155 184q-28 -38 -77 -65q111 -59 176 -163q-60 -48 -138 -83q31 -73 65 -292
q-68 3 -95 6v-81q43 4 103 4q14 -104 10 -203zM835 4q9 12 25 35q44 57 33 57q-5 2 -19 -1q-32 -5 -66 -3q-23 1 -75 8q-21 3 -31 4q4 57 16 123h84q20 0 82 -5q24 -2 37 -3v79q-4 0 -13 -1q-46 -5 -104 -7h-70q54 142 125 143q26 -14 26 -87q34 38 75 53q-32 99 -59 115
q-22 19 -66 8v105v141q1 65 6 129h-85q0 -3 1 -9q5 -27 3 -58h-234q0 23 3 49q1 10 1 16h-90q8 -30 10 -141v-131q0 -82 -6 -119l-19 14q-2 -4 -7 -15q-16 -37 -29 -54q33 -18 38 -54q5 -65 7 -183q1 -109 -3 -160q232 8 404 -48zM629 112q-26 1 -107 4q10 0 -22 1v110h143
q-10 -62 -14 -115zM292 266h-94q-18 123 -49 260q36 23 85 56q53 -129 58 -316zM500 290v111q11 -6 34 -19q39 -22 59 -34q1 18 10 54q3 13 4 19q-83 33 -137 69q50 11 173 10q109 0 145 -8q-85 -60 -131 -202h-157zM526 556v83h234v-83h-234zM526 695v79h234v-79h-234z" />
</svg>
