<?xml version="1.0" standalone="no"?>
<!DOCTYPE svg PUBLIC "-//W3C//DTD SVG 1.1//EN" "http://www.w3.org/Graphics/SVG/1.1/DTD/svg11.dtd" >
<svg xmlns="http://www.w3.org/2000/svg" xmlns:xlink="http://www.w3.org/1999/xlink" version="1.1" viewBox="-10 0 1034 1024">
  <g transform="matrix(1 0 0 -1 0 820)">
   <path fill="currentColor"
d="M300 360q0 -27 -5 -60h48q-3 6 -4 33l-1 177q48 -36 74 -58q16 -15 36 -41q25 33 29 38q-27 24 -62 51l-77 57v25q115 0 125 -2q3 0 7 -3h7v46q-9 0 -12 -3l-97 -2h-30v85q0 34 14 63h-58q0 -1 2 -5q0 -1 1 -3q0 -37 3 -77v-63l-192 1q-12 0 -24 4v-46q24 4 43 5h156
q-34 -48 -113 -127q-66 -60 -116 -78q30 -19 46 -36q60 51 108 97q45 45 92 101v-179zM128 213q-39 0 -56 3q-3 0 -10 2v-47q12 3 26 4q18 1 40 2h251l-52 -76q-19 -27 -44 -56q27 -7 55 -15q9 0 129 -31q13 -4 27 -8q12 -3 24 -7q-51 -34 -123 -61q-120 -42 -204 -42l-39 1
q18 -30 22 -53l166 34l38 11q103 34 190 94q111 -37 202 -73q42 -18 68 -32q15 -7 34 -23q9 27 23 50q-123 55 -293 109q31 39 57 78q27 40 59 100l202 -1q12 0 21 -4q3 0 8 -1v47q-9 0 -13 -3q-27 0 -50 -2h-433q13 19 24 35q24 31 28 36q7 6 18 18q-9 4 -20 10
q-21 12 -36 23q-16 -60 -64 -122h-275zM669 177q-48 -99 -112 -163l-201 57l72 106h241zM511 357q15 16 47 41q31 33 65 62q45 45 64 67l-1 -184q-1 -7 -2 -33q-1 -1 -2 -4t-1 -7h50q-1 3 -1 6q-4 19 -5 50v170q60 -69 132 -126l77 -58q16 21 41 42q-42 13 -113 65
q-63 43 -137 136l213 -4l2 -1q4 0 8 -1v48q-6 0 -13 -4l-93 -2h-117v82q0 36 15 64h-59q0 -1 2 -5q0 -1 1 -4q0 -40 3 -82v-55l-153 2q-6 0 -14 4v-48q12 6 52 6h107q-9 -12 -54 -68q-30 -31 -69 -68q-57 -48 -97 -60q24 -16 34 -26l11 -11q3 3 7 6v0z" />
  </g>

</svg>
