<?xml version="1.0" standalone="no"?>
<!DOCTYPE svg PUBLIC "-//W3C//DTD SVG 1.1//EN" "http://www.w3.org/Graphics/SVG/1.1/DTD/svg11.dtd" >
<svg xmlns="http://www.w3.org/2000/svg" xmlns:xlink="http://www.w3.org/1999/xlink" version="1.1" viewBox="-10 0 1034 1024">
  <g transform="matrix(1 0 0 -1 0 820)">
   <path fill="currentColor"
d="M132 519q-39 0 -56 3q-3 0 -10 2v-46q24 4 44 5h74q-36 -169 -82 -271q99 -54 166 -111q-93 -159 -203 -208q30 -18 48 -37l65 63q24 24 42 45q34 42 83 112q10 -9 22 -17q43 -33 68 -69q9 12 14 22q7 6 20 20q-48 39 -105 79q-3 1 -5 3q48 114 68 328q0 33 4 48l4 34
q-90 -4 -92 -5h-71l20 105q9 54 17 80q4 18 20 43q-31 1 -62 8v-14q0 -18 -9 -89q-9 -67 -24 -133h-60zM350 483q-4 -99 -24 -201q-21 -102 -42 -144q-30 24 -87 62q-21 12 -45 29q30 84 70 254h128zM426 635q1 -30 5 -63q0 -54 -3 -78q0 -7 -2 -16h47v2l-4 43v71h438
l-4 -109q-1 0 -1 -3h48q-4 49 -5 78q1 37 5 75q-49 -4 -58 -5l-425 1q-15 3 -41 4zM605 780q-13 -18 -29 -33q24 -13 38 -23q1 -1 8 -6q37 -27 67 -53q10 -9 19 -17q7 -9 14 -16q6 7 9 11q9 10 20 21l-63 52zM468 433q4 -66 5 -90l-1 -311q-1 -10 -2 -26l-2 -11h48
q-1 4 -1 7q-3 7 -4 33v20h157l-1 -183q-3 -21 -4 -34h48q-1 3 -1 6q-1 1 -1 2q-3 51 -3 73v136h155q-3 -27 -4 -45q-1 -3 -2 -7h49q0 6 -2 9l-4 50l1 318q1 27 5 53q-31 -1 -63 -5h-135v41q0 34 14 63h-58l1 -2q0 -1 1 -3q0 -1 1 -4l3 -95q-141 0 -165 2q-6 3 -35 3zM511 91
v137h157v-137h-157zM668 264h-157v128h157v-128zM706 91v137h155v-137h-155zM706 264v128h155v-128h-155z" />
  </g>

</svg>
