<?xml version="1.0" standalone="no"?>
<!DOCTYPE svg PUBLIC "-//W3C//DTD SVG 1.1//EN" "http://www.w3.org/Graphics/SVG/1.1/DTD/svg11.dtd" >
<svg xmlns="http://www.w3.org/2000/svg" xmlns:xlink="http://www.w3.org/1999/xlink" version="1.1" viewBox="-10 0 1010 1000">
   <path fill="currentColor"
d="M631 -15q91 18 101 29q0 4 -7 10q-36 31 -66 105h190q42 0 84 -6v80q-18 -5 -62 -4h-12q-39 121 -99 192q83 44 192 52q-43 40 -59 91q-111 -38 -185 -95q-85 55 -170 87q-13 -41 -60 -75q119 -19 179 -62q-37 -34 -78 -113q-10 20 -16 26q-20 -21 -35 -26q-6 18 -18 55
q-10 34 -16 50q-37 -16 -87 -8q29 -32 45 -83h-77v169q7 46 -127 65q0 -50 -38 -91q92 16 94 -20v-121q-57 94 -187 196q-35 -39 -77 -55q120 -44 202 -143h-69q-41 0 -89 8q-7 1 -11 2v-83q38 10 100 10h139q-46 -36 -116 -74l56 -53q37 33 89 69q26 -22 63 -62
q14 -15 17 -17h-191q-85 0 -115 8v-80q56 8 113 8h207q46 0 109 -8v94q-62 -12 -181 115h107q8 0 58 -6q61 -87 103 -236zM411 451q9 4 27 11q65 25 60 32q-1 2 -6 6q-23 14 -50 56h338q123 -1 176 -10v85q-40 -7 -168 -8h-72q-36 64 -101 133q39 15 133 42q79 23 141 42
q-38 37 -62 81q-122 -69 -279 -113q-146 73 -425 97q-6 -56 -50 -97q83 18 183 9q103 -10 200 -45q-110 -30 -224 -51q31 -38 75 -89q6 -6 8 -9h-134q-59 0 -77 1q-23 2 -52 9v-87q59 10 133 10h172q34 -56 54 -105zM623 623h-220q-7 9 -20 26q-18 24 -26 32l179 50
q66 -59 87 -108zM788 197h-161q-4 7 -3 5q-31 49 -33 56l58 -25q16 56 59 117q54 -58 80 -153z" />
</svg>
