<?xml version="1.0" standalone="no"?>
<!DOCTYPE svg PUBLIC "-//W3C//DTD SVG 1.1//EN" "http://www.w3.org/Graphics/SVG/1.1/DTD/svg11.dtd" >
<svg xmlns="http://www.w3.org/2000/svg" xmlns:xlink="http://www.w3.org/1999/xlink" version="1.1" viewBox="-10 0 1034 1024">
  <g transform="matrix(1 0 0 -1 0 820)">
   <path fill="currentColor"
d="M359 479q3 24 8 55q-30 -6 -77 -6h-78l19 104l12 60q6 30 25 63q-30 3 -60 11q-1 -70 -36 -238q-79 0 -98 2q-7 1 -15 4v-47q30 6 58 6h49l-26 -106q-9 -39 -20 -70q-10 -33 -32 -84q39 -24 65 -42l82 -62q-24 -42 -50 -77q-24 -33 -54 -66q-40 -45 -85 -69
q30 -15 49 -29q10 10 74 81q31 37 73 95q10 18 26 39q72 -54 112 -110q15 24 36 41q-60 49 -132 105q21 60 38 120q13 61 26 143q4 39 11 77zM140 250q1 12 43 153l22 90h115q-3 -64 -26 -190q-15 -69 -42 -136q-12 7 -22 15q-85 63 -90 68zM922 353q21 0 42 -1q7 27 22 51
q-67 -9 -142 -10q-85 0 -158 9v110l180 -1q12 0 21 -4q3 0 7 -1v47q-6 0 -8 -2q-3 0 -4 -1l-99 -2h-97v126h177q-21 -43 -41 -77q21 0 28 -3q6 -1 15 -4q12 33 26 59l21 41q6 13 12 25q-30 -1 -61 -5l-420 1l-24 4v-46q24 4 47 5h183v-260q-69 24 -136 101q7 18 13 33l8 20
q3 6 21 30q-31 6 -55 20q0 -40 -48 -145q-51 -99 -104 -129q27 -9 51 -24l57 85q21 33 41 70q48 -49 94 -77q39 -21 95 -32q63 -9 163 -11q36 0 73 -2zM466 -101l-4 -56q0 -1 -1 -4h48q-4 19 -5 49v132h333v-91q0 -42 -53 -43q-19 0 -66 6q9 -27 13 -52q34 1 53 4q15 0 27 4
q63 12 64 73l1 344l4 48q-27 -1 -56 -5l-316 1q-3 0 -47 4q4 -60 5 -62v-352zM504 56v90h333v-90h-333zM504 182v90h333v-90h-333z" />
  </g>

</svg>
