<?xml version="1.0" standalone="no"?>
<!DOCTYPE svg PUBLIC "-//W3C//DTD SVG 1.1//EN" "http://www.w3.org/Graphics/SVG/1.1/DTD/svg11.dtd" >
<svg xmlns="http://www.w3.org/2000/svg" xmlns:xlink="http://www.w3.org/1999/xlink" version="1.1" viewBox="-10 0 1010 1000">
   <path fill="currentColor"
d="M169 -8q112 18 107 24q0 4 -6 9q-14 10 -16 29q-5 32 -14 82t-16 89q96 0 155 -6q-11 302 -66 398q54 34 112 78q-45 39 -62 67q-48 -49 -83 -77q-66 107 -173 200q-37 -34 -83 -55q126 -67 194 -185q-67 -46 -133 -75q33 -81 62 -278q-66 0 -101 4v-79q41 8 109 8
q23 -196 14 -233zM470 -4q18 2 46 4q51 2 49 10q1 2 -1 6q-13 22 -12 90h212q0 -50 -1 -66q-1 -20 -5 -44q11 0 32 1q72 2 69 7q0 1 -2 5q-16 25 -18 95h28q54 -1 83 -10v77q-11 -3 -51 -5q-17 0 -26 -1h-36v195q1 54 6 95q-6 -2 -23 -3q-14 -1 -58 -1h-79v81h142
q96 -3 127 -10v82q-36 -7 -127 -10h-81q83 132 232 182q-49 31 -71 74q-138 -78 -222 -252v186q1 88 7 123h-89q9 -32 10 -123v-180q-70 160 -218 269q-22 -34 -70 -59q156 -75 225 -220h-44q-42 0 -113 12v-84q6 1 24 3q62 7 89 7h107v-81h-51h-65q-20 1 -27 2q4 -23 6 -95
v-191h-24q-31 0 -73 6v-73q55 6 81 6h16q0 -75 -4 -110zM762 167h-212v79h212v-79zM300 292h-86q-2 10 -5 33q-24 159 -38 205q44 26 5 3q39 23 72 47q48 -101 52 -288zM762 308h-212v81h212v-81z" />
</svg>
