<?xml version="1.0" standalone="no"?>
<!DOCTYPE svg PUBLIC "-//W3C//DTD SVG 1.1//EN" "http://www.w3.org/Graphics/SVG/1.1/DTD/svg11.dtd" >
<svg xmlns="http://www.w3.org/2000/svg" xmlns:xlink="http://www.w3.org/1999/xlink" version="1.1" viewBox="-10 0 1034 1024">
  <g transform="matrix(1 0 0 -1 0 820)">
   <path fill="currentColor"
d="M107 -104q36 33 74 72q45 60 61 84l32 54q48 -30 62 -41q13 -10 29 -31q12 25 22 38q3 4 6 9q-7 6 -48 31l-52 32q15 43 30 97q13 51 22 89l27 190q-54 -6 -75 -6h-75q4 21 7 33q6 33 13 66q7 37 17 74q9 39 26 68q-30 3 -60 11q0 -84 -42 -252q-76 0 -99 2q-7 1 -15 4
v-47q24 4 44 5h60q-9 -45 -29 -121q-21 -81 -47 -154q52 -25 143 -76q-33 -70 -86 -130q-51 -54 -101 -71q31 -19 48 -36zM324 478q-3 -51 -9 -87q-3 -33 -10 -64q-10 -54 -22 -93q-12 -36 -26 -72l-111 63l68 253h110zM540 292q-30 -135 -120 -250q-81 -105 -154 -132
q31 -18 47 -36q159 141 232 302h256q-63 -97 -115 -142q-36 33 -54 54q-18 19 -36 44q-19 -21 -40 -34q24 -13 48 -38q33 -33 59 -54q-66 -55 -131 -89q-64 -33 -109 -34q19 -21 37 -49q127 66 183 108q24 21 50 40q105 -78 255 -120q9 25 31 50q-51 1 -123 27
q-76 30 -135 72q46 51 79 95q33 43 74 110q-30 -1 -59 -5h-258l25 81l333 -1q19 0 28 -4q3 0 8 -2v48q-10 0 -14 -3l-89 -3h-258q1 13 4 20q3 16 19 77l293 -4l2 -1h7v46q-4 0 -8 -1l-72 -4h-69q27 45 66 101q27 42 48 58q3 4 8 7q-30 12 -55 28q-27 -75 -114 -194l-277 1
q-9 1 -17 2l-11 2v-46q24 4 47 5h107q-10 -61 -19 -97q-123 0 -145 2q-9 0 -22 4v-48q9 6 60 7h98zM393 705q15 -30 21 -50q7 3 25 4l148 9q60 4 121 13q54 6 90 13q33 6 55 9q21 0 51 2q-27 27 -41 51q-30 -12 -67 -22q-87 -18 -195 -27q-72 -6 -132 -7q-33 0 -76 5z
M454 609q-15 -15 -34 -25q24 -18 51 -48q27 -31 40 -61q15 15 32 28q-12 16 -36 45zM581 610q16 -13 46 -50q24 -31 30 -53q18 15 36 25l-41 58l-37 47q-15 -13 -25 -20q-4 -3 -9 -7v0z" />
  </g>

</svg>
