<?xml version="1.0" standalone="no"?>
<!DOCTYPE svg PUBLIC "-//W3C//DTD SVG 1.1//EN" "http://www.w3.org/Graphics/SVG/1.1/DTD/svg11.dtd" >
<svg xmlns="http://www.w3.org/2000/svg" xmlns:xlink="http://www.w3.org/1999/xlink" version="1.1" viewBox="-10 0 1034 1024">
  <g transform="matrix(1 0 0 -1 0 820)">
   <path fill="currentColor"
d="M118 507q-48 0 -65 5v-47q9 4 25 5l90 1l-29 -144q-13 -60 -40 -152q18 -10 36 -23q79 -48 98 -62l14 -11q-36 -69 -101 -138q-54 -48 -89 -62q33 -21 49 -35q112 112 174 212q18 -12 71 -57l8 -8q9 -6 23 -26q9 18 32 43q-15 12 -105 73q-6 6 -12 10q27 66 42 130
q9 37 17 84q9 51 18 116q1 18 5 35l3 27q3 21 6 29q-33 -1 -66 -5h-107q7 36 14 75l13 86q3 12 5 18q6 27 20 49q-28 3 -61 11q0 -42 -8 -109q-9 -63 -22 -130h-58zM340 471q-25 -246 -76 -357q-78 52 -120 79q9 34 28 117l36 161h132zM447 -163q31 24 54 35l139 76
q-1 -1 30 16q-4 16 -7 45q-58 -42 -180 -101v198q154 0 166 -2q9 0 17 -3v46q-6 0 -8 -1q-3 0 -5 -2l-98 -2h-72v53q0 31 17 64h-60q0 -3 3 -9q0 -36 3 -73l-1 -269q-6 -12 -10 -18q-4 -3 -10 -9zM729 465l-27 18q21 25 55 57q19 19 39 28q-24 15 -46 33q-30 -48 -80 -97
l-92 61l-20 14q-12 -24 -24 -38q18 -7 40 -21l69 -42q-66 -57 -126 -86q24 -15 40 -33q6 4 12 10q3 3 12 10l61 52q21 15 33 26l60 -43l49 -43q9 15 29 34q-37 30 -84 60zM499 650q-9 0 -32 3q-18 0 -32 4q1 -33 5 -67l-1 -260q-3 -15 -4 -36q31 3 64 5l341 -1q15 0 45 -4
l-6 62l1 248q0 7 5 53q-42 -6 -65 -7h-228q37 75 74 98q-31 9 -58 24q-3 -16 -24 -60q-16 -36 -32 -62h-53zM477 335v281h364v-281h-364zM740 202q0 12 15 64h-57q1 -31 5 -64l1 -294q4 -22 27 -37q24 -12 92 -13q81 0 108 26q18 16 41 83q-33 12 -51 25l-1 -54
q-4 -15 -18 -28q-21 -15 -72 -16q-60 0 -78 12q-12 7 -12 43v132q141 64 146 66q18 6 49 14q-16 18 -35 45q-33 -22 -66 -41q-36 -18 -94 -45v82z" />
  </g>

</svg>
