<?xml version="1.0" standalone="no"?>
<!DOCTYPE svg PUBLIC "-//W3C//DTD SVG 1.1//EN" "http://www.w3.org/Graphics/SVG/1.1/DTD/svg11.dtd" >
<svg xmlns="http://www.w3.org/2000/svg" xmlns:xlink="http://www.w3.org/1999/xlink" version="1.1" viewBox="-10 0 1010 1000">
   <path fill="currentColor"
d="M583 -10q17 3 45 7q63 7 57 15q-1 3 -7 9q-28 28 -43 83h159q67 -1 109 -10q-11 47 -8 95v200q-3 63 8 103q-57 -7 -133 -7h-238q-67 0 -85 1q-23 1 -46 4q10 -69 10 -160v-97q0 -75 -8 -137q50 8 151 8q25 -75 29 -114zM486 171v246h333v-246h-333zM720 187q62 38 62 46
q0 3 -11 9q-37 20 -75 52q55 41 94 71l-52 44q-41 -41 -85 -79q-9 7 -25 18q-34 26 -76 55q-23 -31 -54 -41q57 -25 107 -66l-9 -6q-62 -39 -96 -53l50 -42q40 23 101 67q38 -31 69 -75zM643 496q18 1 48 3q46 2 43 5q1 3 -3 11q-13 25 -13 55v71q56 -28 131 -91q4 4 13 11
q63 54 57 58q-3 5 -18 8q-25 5 -46 14q-23 10 -76 37q-40 20 -63 31v71q-9 34 66 30q46 1 60 -18q15 -15 17 -73q41 36 85 45q-25 85 -49 101q-22 21 -97 20q-107 1 -128 -15q-28 -14 -25 -78v-173v-75q-1 -28 -2 -48zM417 598q0 -57 -6 -92q82 1 91 8q0 2 -3 6
q-13 24 -13 76q70 0 91 -1q29 0 42 -3v71q-26 -5 -51 -6q-26 -2 -84 -2v125q42 -18 119 -67q-3 40 14 81q-115 44 -198 111q-20 -41 -44 -71q43 -34 42 -68v-168zM159 -12q107 9 111 16q-1 5 -7 12q-12 14 -17 32q-21 96 -28 167q82 0 145 -10q-18 294 -65 410q49 43 109 88
q-31 18 -72 69q-21 -30 -75 -83q-89 131 -163 196q-40 -38 -83 -53q114 -70 186 -189q-55 -49 -121 -83q39 -115 60 -270q-71 0 -99 6v-87q61 8 107 8q23 -174 12 -229zM206 286q-22 147 -43 236q16 11 42 31q25 19 31 23q46 -111 50 -290h-80z" />
</svg>
