<?xml version="1.0" standalone="no"?>
<!DOCTYPE svg PUBLIC "-//W3C//DTD SVG 1.1//EN" "http://www.w3.org/Graphics/SVG/1.1/DTD/svg11.dtd" >
<svg xmlns="http://www.w3.org/2000/svg" xmlns:xlink="http://www.w3.org/1999/xlink" version="1.1" viewBox="-10 0 1010 1000">
   <path fill="currentColor"
d="M167 4q94 18 111 30q0 3 -7 12q-14 17 -19 34q-14 49 -30 151l179 -6q-38 287 -89 420q45 33 73 58q-29 27 -56 63q-26 -29 -55 -53q-53 76 -177 186q-27 -41 -67 -61q107 -58 186 -171q-19 -12 -47 -31q-66 -44 -92 -52q32 -78 66 -288l-89 4v-81q46 8 97 8
q14 -103 16 -223zM591 2q112 7 109 14q-1 4 -6 10q-20 23 -37 87h107q86 -1 121 -7q-10 45 -10 134v181q1 62 6 141q-21 -6 -143 -8h-186q-93 3 -121 6q6 -34 7 -127v-200q0 -105 -3 -125q23 3 89 5h55q6 -11 10 -45q4 -41 2 -66zM800 173h-286v75h286v-75zM313 294h-97
q-9 49 -32 172q-10 55 -15 84q49 30 79 52q39 -109 65 -308zM514 304v65h286v-65h-286zM514 425v69h286v-69h-286zM665 570q27 36 69 121l-71 26q-24 -81 -62 -123zM865 613q51 81 93 187l-81 36q-50 -155 -93 -199zM407 631q14 2 37 6q49 7 46 10q0 4 -5 10q-12 13 -17 32
q-22 94 -45 163q-14 -7 -48 -15q-17 -4 -26 -7q49 -75 58 -199zM510 631q30 9 75 10q15 1 16 2q1 3 -3 9q-11 23 -11 55v61q-10 42 72 40q51 3 64 -14q15 -13 23 -81q40 42 87 53q-19 69 -42 90q-23 24 -75 23h-107q-60 0 -77 -15q-19 -13 -18 -60v-95q0 -57 -4 -78z" />
</svg>
