<?xml version="1.0" standalone="no"?>
<!DOCTYPE svg PUBLIC "-//W3C//DTD SVG 1.1//EN" "http://www.w3.org/Graphics/SVG/1.1/DTD/svg11.dtd" >
<svg xmlns="http://www.w3.org/2000/svg" xmlns:xlink="http://www.w3.org/1999/xlink" version="1.1" viewBox="-10 0 1010 1000">
   <path fill="currentColor"
d="M669 -2q15 48 29 108h131q84 -3 108 -8q-5 37 -4 124v18h-88q1 -9 3 -38q0 -20 1 -33h-377q1 13 2 31q1 23 2 37h-81q5 -56 0 -139q10 2 69 6q18 1 28 2h131q-21 -56 -46 -96zM151 6q62 9 111 24q0 6 -14 21t-16 23q-13 48 -26 127q14 0 42 -1q87 -2 119 -7
q-15 257 -69 426l93 62l-58 71q-20 -26 -65 -65q-63 121 -155 198q-35 -41 -69 -61q102 -61 166 -183q-5 -3 -16 -10q-77 -50 -136 -77q39 -115 65 -284q-44 0 -57 1q-17 0 -24 3v-77q16 5 67 7q16 1 24 1q13 -84 18 -199zM286 268h-90q-32 187 -53 254l91 60
q37 -121 52 -314zM440 258q34 8 129 8h165q90 -6 119 -6v78q-25 -8 -127 -8h-73l-58 51q49 38 97 113q90 -59 137 -117q8 10 24 28q15 17 42 48q0 2 -17 7q-47 14 -74 34q30 166 162 246q-33 28 -65 74q-107 -110 -149 -286l-34 24q16 52 20 119q4 71 -6 109
q-10 92 -155 117q-3 -48 -33 -89q81 10 101 -26q16 -22 21 -72q4 -52 -5 -98q-90 118 -232 220q-21 -30 -64 -62q152 -66 276 -226q0 -13 -26 -50q-60 76 -194 169q-24 -36 -59 -57q-5 -3 -7 -4q113 -32 224 -149q-17 -18 -35 -30q-12 8 -63 40l-70 45q-19 -33 -60 -63
q103 -13 216 -115h-33q-66 0 -94 6v-78z" />
</svg>
