<?xml version="1.0" standalone="no"?>
<!DOCTYPE svg PUBLIC "-//W3C//DTD SVG 1.1//EN" "http://www.w3.org/Graphics/SVG/1.1/DTD/svg11.dtd" >
<svg xmlns="http://www.w3.org/2000/svg" xmlns:xlink="http://www.w3.org/1999/xlink" version="1.1" viewBox="-10 0 1010 1000">
   <path fill="currentColor"
d="M700 -10q58 0 72 1q19 1 20 5q1 2 -2 7q-12 31 -12 89h61q54 0 98 -6v63q-14 -1 -33 -2h-53h-73v70q74 4 123 -8v69q-39 -6 -123 -6v66q126 0 174 -10v69q-16 -2 -42 -3q-12 -1 -29 -1h-44h-166v58q118 0 196 -8q-2 13 -3 33q-1 16 -1 56v153q43 0 62 -1q23 -1 39 -3v69
q-23 -5 -37 -5q-10 -1 -62 -1v96q9 57 -137 65q-1 -47 -38 -87q69 8 86 1q19 -4 18 -33v-42h-306q-3 85 6 159h-81q10 -67 10 -159l-62 4v-59l58 2v-151q0 -46 -8 -93q47 6 190 6v-60h-151q-57 0 -93 6v-67q0 -1 10 1q40 5 79 5h56v-66q-63 -3 -117 6v-65q55 4 115 4v-68
q-74 0 -99 1q-32 1 -46 3v-67q36 6 145 6v-11q2 -64 -10 -87q91 0 93 6q1 2 -2 7q-12 28 -12 85h139q0 -77 -8 -102zM708 147h-139v70h139v-70zM708 272h-137v66h137v-66zM601 508h-113v66h113v-66zM794 508h-52h-71v66h123v-66zM794 625h-123v64h123v-64zM601 625h-113v64
h113v-64zM147 0q15 2 42 5q58 7 59 13q1 1 -2 5q-13 18 -20 53q-7 32 -22 141q79 0 135 -6q-12 271 -61 418q45 27 81 52q-25 26 -46 77q-18 -23 -65 -59q-65 107 -135 182q-50 -35 -95 -47q93 -47 170 -175q-34 -27 -115 -71q27 -112 54 -304q-32 0 -68 4q-10 2 -15 2v-79
q41 8 89 8q16 -148 14 -219zM264 284h-72q-4 24 -10 66q-14 101 -31 200q44 30 67 42q32 -119 46 -308z" />
</svg>
