<?xml version="1.0" standalone="no"?>
<!DOCTYPE svg PUBLIC "-//W3C//DTD SVG 1.1//EN" "http://www.w3.org/Graphics/SVG/1.1/DTD/svg11.dtd" >
<svg xmlns="http://www.w3.org/2000/svg" xmlns:xlink="http://www.w3.org/1999/xlink" version="1.1" viewBox="-10 0 1034 1024">
  <g transform="matrix(1 0 0 -1 0 820)">
   <path fill="currentColor"
d="M109 495l-58 4q-3 0 -7 1v-46q24 4 47 5h68l-33 -134q-6 -16 -12 -36q-10 -42 -19 -64q-6 -21 -18 -45q75 -43 151 -104q-37 -57 -84 -106q-51 -51 -96 -72q12 -7 25 -18q9 -7 20 -18q52 51 62 63l53 58q24 30 52 70q63 -39 100 -91q6 12 12 20q12 12 18 24
q-21 13 -44 32q-7 6 -67 50q21 48 37 91q13 39 24 79q9 42 17 97l16 145q-30 -1 -62 -5h-103l31 170q4 24 12 46q3 12 14 28q-33 6 -59 16q0 -27 -4 -48l-30 -191q-3 -9 -4 -21h-59zM328 459q-3 -78 -23 -184q-15 -70 -58 -165q-108 75 -120 86l17 59q22 72 34 115l22 89
h128zM730 247q1 -6 5 -12q0 -3 43 -105q18 -39 56 -87q39 -49 68 -82q15 -16 33 -35q15 12 23 21l21 17q-45 18 -108 96q-58 75 -108 213l86 80q25 21 48 27q-21 16 -42 41q-60 -64 -102 -105q-36 -34 -80 -69l-33 52q-16 22 -51 63q33 30 52 51q18 18 36 41q123 0 133 -2
q3 0 12 -4h7v47q-3 0 -8 -2q-3 0 -5 -2q-27 0 -50 -2q-262 0 -275 3l-13 3v-47q24 4 43 5l106 1q-36 -42 -107 -92q-81 -51 -141 -65q25 -21 41 -40q52 30 82 48l54 34q24 -27 45 -57q-57 -57 -122 -107q-58 -40 -116 -58q30 -21 42 -42q30 18 92 64q27 19 50 39
q27 22 78 71q21 -36 32 -67q-45 -54 -84 -94q-37 -37 -85 -77q-54 -46 -87 -67q-30 -19 -60 -28q24 -18 43 -42q54 42 96 78q36 30 67 58q54 51 122 123q10 -55 11 -109q0 -70 -13 -96q-24 -39 -92 -39q-24 0 -41 2q12 -27 17 -52q75 12 106 27q60 30 60 147q0 55 -6 101
q-3 40 -20 97zM907 624l-51 -4l-418 1q-7 1 -15 2q-15 0 -33 2q6 -48 6 -73l-4 -82q-1 -1 -2 -4h49q-3 6 -5 46v72h439l-4 -106q0 -1 -2 -4h49q-3 21 -5 44q0 60 2 72q0 18 3 35q-4 0 -9 -1zM560 737q78 -46 124 -105q9 10 14 19q6 6 18 20l-32 27q-27 21 -56 45
q-15 12 -39 30z" />
  </g>

</svg>
