<?xml version="1.0" standalone="no"?>
<!DOCTYPE svg PUBLIC "-//W3C//DTD SVG 1.1//EN" "http://www.w3.org/Graphics/SVG/1.1/DTD/svg11.dtd" >
<svg xmlns="http://www.w3.org/2000/svg" xmlns:xlink="http://www.w3.org/1999/xlink" version="1.1" viewBox="-10 0 1010 1000">
   <path fill="currentColor"
d="M613 -17q97 7 95 11q2 4 -3 14q-17 36 -17 100v263h151v-91q-71 4 -97 6v-65q39 4 97 4v-104q-28 0 -69 4q-20 1 -30 2v-75q26 5 76 6q57 2 103 0q-7 52 -8 133v137q1 83 4 113q-24 -6 -96 -8h-131v71h100q74 -3 111 -6q-111 193 -189 260q119 62 246 70q-36 40 -49 93
q-141 -43 -260 -119q-124 67 -272 113q-11 -30 -52 -77q134 -11 268 -80q-59 -53 -131 -152l42 -32q-51 2 -91 6v-82q27 3 149 6h55v-71h-101q-74 0 -107 4q7 -45 8 -149v-93q-2 -96 -8 -117q72 -4 135 -36q4 7 13 20q29 44 22 50q-1 2 -10 1q-34 -1 -85 10v102l89 -6v67
q-21 -5 -67 -7q-14 -1 -22 -1v93h135v-273q0 -87 -4 -115zM165 -15q106 20 99 23q0 3 -4 10q-22 45 -42 183q121 -1 175 -4q-44 288 -89 420q4 3 13 9q34 21 106 67q-39 35 -64 65q-48 -50 -85 -77q-56 107 -145 196q-28 -30 -93 -53q116 -56 176 -183q-34 -27 -88 -58
q-29 -16 -49 -27q36 -112 58 -286q-63 0 -87 4v-81q25 6 99 6q24 -183 20 -214zM302 270h-96q-24 149 -45 250q30 21 56 38q17 10 23 18q46 -144 62 -306zM524 572q65 92 129 147q62 -57 113 -147h-242z" />
</svg>
