<?xml version="1.0" standalone="no"?>
<!DOCTYPE svg PUBLIC "-//W3C//DTD SVG 1.1//EN" "http://www.w3.org/Graphics/SVG/1.1/DTD/svg11.dtd" >
<svg xmlns="http://www.w3.org/2000/svg" xmlns:xlink="http://www.w3.org/1999/xlink" version="1.1" viewBox="-10 0 1034 1024">
  <g transform="matrix(1 0 0 -1 0 820)">
   <path fill="currentColor"
d="M226 518q9 60 28 150q7 31 21 58q-30 1 -60 9q0 -42 -4 -60q-1 0 -5 -40l-18 -108q-1 -3 -2 -9l-96 2l-16 3v-46q24 4 52 5h55q-46 -195 -83 -285q25 -16 49 -34q33 -21 82 -60q-51 -78 -133 -141q-28 -21 -59 -30q28 -19 47 -38q63 54 106 99q34 36 71 84l53 -41l46 -47
q7 18 22 33q3 6 7 9q-21 19 -98 77q-6 4 -10 6q30 63 48 118q18 69 31 161q3 42 9 72q3 24 10 58q-19 -1 -33 -3q-15 -1 -25 -2h-95zM158 243l18 60l45 179h108q-9 -112 -27 -197q-18 -78 -54 -147q-18 13 -34 27l-65 48zM894 586q42 0 63 -5v46q-3 0 -12 -3l-219 -2l-186 1
q-19 3 -46 4l7 -92l1 -65l-4 -175q-111 -73 -160 -88q19 -24 33 -49q63 48 127 92q-12 -120 -41 -187q-42 -84 -111 -146q-28 -24 -69 -43q33 -18 49 -34q85 78 127 139q51 76 68 152q16 78 17 258l2 197h354zM771 669q-15 12 -53 47l-47 40l-31 -37q57 -33 105 -92
q12 16 18 21q3 1 14 15zM431 467q-6 6 -11 12q-16 -16 -33 -29q36 -30 50 -45q10 -13 28 -43q15 15 33 30zM910 177q42 0 62 -5v46q-6 0 -9 -1q-1 0 -3 -2l-97 -2h-92q0 21 2 44q3 46 8 91q0 15 2 32h82q42 0 62 -5v46q-9 0 -12 -3q-28 0 -50 -2h-198q15 36 34 76
q9 18 23 31q-22 6 -54 21q0 -6 -3 -12q0 -1 -2 -8q-18 -69 -64 -156q-24 -45 -54 -69q30 -7 52 -19q30 54 51 100h90q-1 -54 -5 -99l-6 -68q-123 0 -150 2q-6 1 -10 1l-11 2v-46q24 4 44 5h122q-16 -111 -97 -199q-69 -76 -155 -104q25 -15 45 -37q99 69 152 130
q19 24 30 40q31 57 49 95q36 -79 82 -142q42 -57 114 -120q21 22 26 25q10 9 29 17q-28 6 -61 26q-27 21 -60 58q-34 42 -55 78q-39 70 -56 133h143z" />
  </g>

</svg>
