<?xml version="1.0" standalone="no"?>
<!DOCTYPE svg PUBLIC "-//W3C//DTD SVG 1.1//EN" "http://www.w3.org/Graphics/SVG/1.1/DTD/svg11.dtd" >
<svg xmlns="http://www.w3.org/2000/svg" xmlns:xlink="http://www.w3.org/1999/xlink" version="1.1" viewBox="-10 0 1034 1024">
  <g transform="matrix(1 0 0 -1 0 820)">
   <path fill="currentColor"
d="M229 527q6 51 22 141q7 48 12 58q4 15 18 23q3 3 10 7l-31 5q-27 6 -42 6q-4 -76 -11 -123q-4 -45 -18 -117l-122 4l-9 3v-49q-3 0 9 1q51 3 89 4h28l-31 -137q-27 -99 -58 -180q21 -12 35 -21q15 -10 42 -31q42 -31 61 -51q-16 -27 -43 -55q-24 -27 -57 -58
q-45 -39 -92 -59q25 -15 42 -37q82 66 181 183q4 -4 55 -45q30 -24 52 -50q1 0 3 -3l28 39q-10 10 -23 19l-96 75q36 78 53 153q24 120 35 302q-48 -6 -67 -7h-75zM182 322q21 75 41 168h106q-7 -129 -26 -233q-15 -72 -51 -150l-75 60q-9 7 -18 15q-1 0 -14 9zM509 -34
l37 36q12 12 41 16q-19 15 -45 45q-15 -21 -31 -39q-18 -21 -53 -54q-37 -37 -67 -63q-27 -21 -65 -45q21 -10 39 -28q13 10 110 99q16 16 34 33zM492 142l-130 3l-9 3v-48q9 0 18 2q22 0 48 3l514 -1q6 0 40 -4v48q-12 -3 -61 -6h-157v168q82 0 104 -2q12 0 24 -3v48
q-48 -6 -66 -6h-288v81q90 9 123 16q147 22 152 23l37 -1q-31 48 -34 52q-1 3 -2 4q-64 -21 -108 -33q-36 -6 -86 -13q-48 -4 -81 -6q-15 0 -44 2q6 -66 6 -84v-246zM529 142v168h188v-168h-188zM412 535q0 -33 -2 -42q0 -12 -3 -17q0 -3 -2 -8h50q-6 24 -6 48l-1 83h444
q0 -70 -2 -101q-1 -4 -1 -10l-2 -11h48q0 3 -1 7l-4 78q1 39 5 79q-33 -1 -67 -5h-189q10 19 27 39q-27 24 -69 57q-33 24 -58 48q-12 -21 -27 -36q52 -37 72 -56q18 -15 51 -52l-223 1q-19 3 -47 4q1 -19 3 -34q3 -21 4 -34v-38zM851 -26q-97 84 -116 96q-10 -15 -27 -32
q147 -114 211 -182q7 12 30 34q-13 13 -98 84v0z" />
  </g>

</svg>
