<?xml version="1.0" standalone="no"?>
<!DOCTYPE svg PUBLIC "-//W3C//DTD SVG 1.1//EN" "http://www.w3.org/Graphics/SVG/1.1/DTD/svg11.dtd" >
<svg xmlns="http://www.w3.org/2000/svg" xmlns:xlink="http://www.w3.org/1999/xlink" version="1.1" viewBox="-10 0 1034 1024">
  <g transform="matrix(1 0 0 -1 0 820)">
   <path fill="currentColor"
d="M123 518q-19 1 -47 2q-6 3 -13 3v-46q54 6 81 5h32q-16 -75 -35 -138q-18 -63 -45 -136l100 -69q28 -21 62 -48q-33 -57 -84 -113q-57 -57 -107 -72q31 -18 46 -32q93 73 176 190q54 -39 104 -93q1 3 4 4q9 15 25 30l-24 21q-34 27 -69 57q-9 6 -24 19q16 43 30 84
q10 37 20 81q9 45 16 103l17 153q-43 -4 -68 -5h-99l10 42l28 126q7 31 11 36q3 9 20 18q-36 9 -60 19q-4 -48 -13 -92l-33 -149h-61zM142 224q19 58 34 110l39 148h129q-3 -51 -8 -97l-14 -89q-13 -81 -47 -169zM936 -166q1 4 5 8q13 19 35 37q-85 6 -154 54q-42 30 -70 61
q-21 27 -62 94l224 -1l39 -4v46q-4 0 -7 -2q-27 0 -56 -3h-217q6 46 12 97l140 -1l43 -4q-4 49 -5 74l1 177l4 43q-30 -1 -59 -5l-316 1q-15 3 -45 4q6 -60 6 -72l-1 -176q0 -1 -5 -44v-2q49 4 78 5h119q-3 -49 -11 -97l-243 4q-3 1 -4 1v-46h6q7 3 33 4l200 1
q-33 -100 -114 -160q-67 -48 -153 -54q15 -13 22 -22q1 -1 17 -22q94 33 154 79q39 33 63 64q24 36 46 92q58 -102 122 -152q48 -39 150 -83q1 3 3 4zM490 257v94h335v-94h-335zM490 387v82h335v-82h-335zM545 645q-132 0 -146 3q-3 1 -11 2v-47q3 0 6 1q7 3 36 4l115 1v-17
q0 -36 -5 -56h47q-4 45 -5 69v4h159q0 -48 -3 -62q0 -6 -3 -10h49q-4 45 -5 70v2l137 -1q18 -1 39 -5v47q-15 -3 -28 -4l-148 -1q0 72 3 79q1 15 11 29h-58q6 -60 6 -79v-29h-159q0 69 3 75q1 15 11 29h-56q4 -42 5 -77v-27z" />
  </g>

</svg>
