<?xml version="1.0" standalone="no"?>
<!DOCTYPE svg PUBLIC "-//W3C//DTD SVG 1.1//EN" "http://www.w3.org/Graphics/SVG/1.1/DTD/svg11.dtd" >
<svg xmlns="http://www.w3.org/2000/svg" xmlns:xlink="http://www.w3.org/1999/xlink" version="1.1" viewBox="-10 0 1034 1024">
  <g transform="matrix(1 0 0 -1 0 820)">
   <path fill="currentColor"
d="M128 494q-12 0 -45 2q-9 0 -18 4v-47q12 3 35 4q13 1 72 2q-27 -129 -42 -191q-3 -6 -4 -13q-7 -27 -20 -59q66 -37 148 -104q-24 -51 -75 -112q-54 -60 -117 -86q30 -12 51 -33q25 16 76 72q49 57 100 134q66 -51 81 -66q9 -9 23 -26q12 27 29 39l-67 54q-37 27 -49 38
q18 52 29 94q9 39 16 92l22 208q-16 -1 -32 -3q-24 -3 -31 -3h-92q1 7 4 24q6 40 28 148q10 63 28 85q-27 1 -57 10q-6 -63 -17 -123q-9 -66 -16 -100q-3 -24 -8 -44h-52zM329 459l-7 -92q-3 -36 -9 -70q-21 -115 -42 -168l-116 84l7 32l15 63l35 151h117zM398 513
q0 -28 -3 -52q0 -4 -3 -14h49q-3 30 -5 62v38h477q-1 -42 -3 -85q-3 -6 -3 -14h51q-4 24 -5 66q1 36 5 74q-33 -1 -66 -5h-111q51 66 67 82q28 33 36 37q13 10 30 20q-22 13 -47 37q-52 -79 -137 -176h-38v124q0 16 3 30q3 18 16 35h-63q0 -1 1 -3q0 1 2 -11q1 -28 2 -51
v-124l-217 1q-19 3 -44 4q6 -60 6 -75zM432 711q78 -48 114 -116q13 21 21 26q6 6 13 11q-16 18 -34 35q-10 9 -22 22q-33 33 -60 56q-10 -15 -32 -34zM447 -7q0 -34 -5 -65h48q-4 54 -5 76v154h167q0 -294 -3 -313q-3 -3 -3 -12h52q-3 16 -5 34l-1 291h194v-144
q0 -24 -11 -31q-27 -9 -52 -10q-9 0 -41 4q4 -9 10 -25q1 -6 5 -24q76 6 107 28q19 18 20 50l1 147q1 22 5 46q-33 -1 -66 -5h-172v91q96 0 111 -2q15 0 39 -4q-4 54 -5 80q0 72 2 83q0 18 3 37q-54 -6 -67 -6l-230 1q-1 0 -47 5q6 -60 6 -81l-4 -103q-1 -7 -2 -16
q60 6 88 6h66v-91l-162 1q-19 3 -48 4q1 -31 5 -65v-141zM541 320v117h258v-117h-258z" />
  </g>

</svg>
