<?xml version="1.0" standalone="no"?>
<!DOCTYPE svg PUBLIC "-//W3C//DTD SVG 1.1//EN" "http://www.w3.org/Graphics/SVG/1.1/DTD/svg11.dtd" >
<svg xmlns="http://www.w3.org/2000/svg" xmlns:xlink="http://www.w3.org/1999/xlink" version="1.1" viewBox="-10 0 1034 1024">
  <g transform="matrix(1 0 0 -1 0 820)">
   <path fill="currentColor"
d="M627 405l-198 1l-42 5v-45q60 6 66 6l508 -2q3 -1 13 -4v45l-66 -6h-243v217q249 0 255 -3q3 0 7 -2v44q-43 -3 -65 -6h-197v51q0 40 13 67h-56q4 -31 5 -67v-51h-142q-25 3 -49 4q-9 0 -16 2v-44q-3 0 9 1q3 0 8 1q24 0 48 3h142v-217zM551 75q-3 -28 -5 -58q49 4 77 5
q111 0 124 -2q16 0 35 -3q-6 57 -6 85q0 40 2 48l4 35q-19 -1 -31 -2q-19 -3 -27 -3h-117q-9 0 -31 3q-15 0 -30 2q1 -30 5 -61v-49zM587 146h153v-90h-153v90zM425 286q1 -21 2 -33q3 -24 3 -32l-1 -348q-3 -6 -3 -26q-1 -1 -1 -5h48q-1 4 -1 7t-4 60v6h391q-1 -30 -3 -62
q-3 -6 -3 -11h51q-6 21 -7 58l1 339l6 47q-31 -1 -64 -5l-368 1q-15 3 -47 4zM468 -49v294h391v-294h-391zM475 580q-10 -12 -19 -19q-4 -3 -11 -8q28 -34 45 -56q15 -21 38 -56q16 16 30 26q-12 15 -23 32q-54 70 -60 81zM735 465q18 -13 33 -26q10 12 20 25q58 72 65 75
q6 6 30 12l-23 17q-9 9 -23 24q-16 -27 -44 -61t-58 -66zM118 528l-49 3q-9 0 -16 3v-46q18 4 53 7h77l-29 -118q-9 -42 -19 -72q-15 -49 -36 -105q33 -19 78 -57q22 -18 36 -30q12 -12 16 -17q-28 -51 -78 -107q-55 -60 -110 -86q28 -15 50 -36q9 9 18 20q27 30 59 62
q15 19 32 38q33 39 62 82l21 -21l59 -58q10 -13 23 -28q9 9 14 16q4 4 19 21l-37 34l-46 42l-37 31q27 54 46 107q31 93 41 176q9 87 19 145q-69 -6 -87 -6h-68l39 196q4 19 27 35q-31 7 -49 8l-2 1q-7 0 -15 3q-4 -54 -15 -121q-12 -67 -25 -122h-71zM337 495
q-3 -84 -23 -171q-9 -46 -25 -93q-15 -45 -40 -100q-25 24 -70 57q-13 9 -32 28q22 75 43 153l31 126h116z" />
  </g>

</svg>
