<?xml version="1.0" standalone="no"?>
<!DOCTYPE svg PUBLIC "-//W3C//DTD SVG 1.1//EN" "http://www.w3.org/Graphics/SVG/1.1/DTD/svg11.dtd" >
<svg xmlns="http://www.w3.org/2000/svg" xmlns:xlink="http://www.w3.org/1999/xlink" version="1.1" viewBox="-10 0 1010 1000">
   <path fill="currentColor"
d="M607 -8q104 -3 105 10q0 2 -4 6q-21 24 -21 76h107q46 0 71 -2q23 -1 56 -6v67q-19 -2 -47 -3q-13 -1 -31 -1h-47h-109v60h67q56 0 115 -4v63q-12 -4 -119 -4h-216h-32q-49 -1 -71 4v-63q28 3 103 4h81v-60h-121q-80 0 -119 6v-67q36 6 117 6h123q0 -57 -7 -88
q-1 -3 -1 -4zM867 294q-8 21 -8 69v34q0 47 8 74q-48 -6 -111 -6h-196q-84 0 -127 10q6 -31 5 -76v-34q0 -51 -3 -69q54 8 111 8h125h79q62 1 117 -10zM792 352h-286v65h286v-65zM726 469q13 4 39 11q43 10 39 14q-1 4 -9 9q-22 13 -35 39h69q51 0 69 -1q22 -1 40 -5v70
q-14 -2 -39 -3q-12 -1 -28 -1h-46h-355q-48 0 -65 1q-22 1 -34 3v-70q51 6 99 6h54q-6 -15 -20 -42l-6 -12l71 -15q2 6 7 20q10 32 17 49h95q24 -42 38 -73zM869 641q-6 36 -6 94v83q0 47 8 79h-83l4 -53h-282q0 29 6 53h-85q7 -49 7 -99v-63q1 -57 -5 -90q50 6 134 6h195
q76 1 107 -10zM510 711v73h282v-73h-282zM167 -4q111 11 107 22q0 1 -2 4q-27 35 -50 189q124 0 169 -12q-4 24 -13 93q-25 235 -70 353q12 10 38 30q29 23 45 36q-8 10 -20 24q-25 28 -38 53q-19 -34 -63 -73q-95 137 -169 184q-9 -20 -57 -58q-4 -3 -6 -5
q121 -77 176 -171q-5 -3 -13 -9q-43 -32 -132 -78q25 -32 76 -300q-35 1 -68 6q-13 2 -19 2v-81q16 3 97 6q9 -81 11 -175q1 -26 1 -40zM304 278h-92q-18 114 -55 266l18 12q27 18 71 46q43 -124 58 -324z" />
</svg>
