<?xml version="1.0" standalone="no"?>
<!DOCTYPE svg PUBLIC "-//W3C//DTD SVG 1.1//EN" "http://www.w3.org/Graphics/SVG/1.1/DTD/svg11.dtd" >
<svg xmlns="http://www.w3.org/2000/svg" xmlns:xlink="http://www.w3.org/1999/xlink" version="1.1" viewBox="-10 0 1010 1000">
   <path fill="currentColor"
d="M657 -2q6 49 20 96h178q37 0 91 -8v75q-5 0 -18 -2q-43 -6 -83 -6h-420q-58 0 -100 6v-69q46 3 106 4h164q-6 -11 -21 -48q-7 -19 -12 -30zM139 6q109 15 101 22q2 3 -7 17q-17 29 -21 53q-6 40 -15 132q0 -4 -1 7h54q52 0 89 -8q-27 269 -71 428q56 38 91 68
q-27 23 -55 63q-26 -36 -64 -69q-84 127 -139 180q-32 -30 -75 -49q100 -83 157 -177q-44 -33 -120 -71q30 -89 58 -300h-22q-31 0 -61 6v-75q35 4 61 4h28q10 -113 12 -231zM373 191l147 6h246l137 -6l-6 105v105l6 111l-141 -6h-306q-43 0 -89 4q10 -44 10 -125v-89z
M829 248h-385v207h385v-207zM510 280q42 6 81 6h76q45 0 93 -6q-5 13 -4 60v23q-1 47 4 60q-24 -6 -95 -6h-58q-68 0 -97 8q6 -24 6 -52v-37q0 -38 -6 -56zM262 300h-77q-1 11 -7 46q-7 44 -33 224q16 11 50 34l15 9q35 -90 52 -313zM696 330h-121v43h121v-43zM409 538
q58 8 117 8h188q66 0 145 -8q-6 36 -6 79v82q-1 59 4 83q-54 -6 -123 -6h-216q-76 0 -115 6q10 -39 10 -77v-70q0 -49 -4 -97zM782 594h-298v47h298v-47zM782 685h-298v44h298v-44zM952 814v75q-55 -11 -142 -10h-344q-89 0 -133 8v-71q63 4 123 4h322h81q25 0 40 -1
q27 -1 53 -5z" />
</svg>
