<?xml version="1.0" standalone="no"?>
<!DOCTYPE svg PUBLIC "-//W3C//DTD SVG 1.1//EN" "http://www.w3.org/Graphics/SVG/1.1/DTD/svg11.dtd" >
<svg xmlns="http://www.w3.org/2000/svg" xmlns:xlink="http://www.w3.org/1999/xlink" version="1.1" viewBox="-10 0 1034 1024">
  <g transform="matrix(1 0 0 -1 0 820)">
   <path fill="currentColor"
d="M372 482l3 44q-33 -1 -66 -5h-78l12 72l24 119q3 15 22 33l-49 6q-7 3 -14 5q-4 -66 -11 -97l-13 -83q-3 -24 -9 -55l-125 4q-3 1 -6 1v-44q-3 0 9 1q3 0 8 1l107 3q-7 -52 -28 -140q-3 -9 -27 -102q-6 -25 -19 -54q-3 -9 -9 -20q9 -6 69 -40l62 -45q-33 -54 -88 -106
q-61 -55 -109 -74l20 -10q18 -10 30 -21l31 25q18 15 46 43q27 25 47 47q21 24 55 70q21 -15 55 -43q27 -21 40 -33q12 -12 20 -22q12 19 30 42q-15 9 -44 32q-18 15 -43 31q-15 10 -36 28q18 37 31 74q12 39 25 94l16 91q4 42 10 106q0 12 2 22zM155 187q4 13 9 29
q7 25 14 56l33 142q6 27 14 73h108q-4 -204 -77 -370q-10 7 -19 14q-6 4 -10 7l-50 34q-12 7 -22 15zM329 -138q9 3 65 6l549 -1q24 0 35 -4l2 -1v45l-35 -4h-582q-3 0 -34 4v-45zM406 646q-21 0 -65 5v-45q12 3 17 3q24 1 48 3l543 -1q16 0 30 -5v45l-35 -4l-256 -1
q6 12 23 31q-33 24 -63 50q-33 28 -60 46q-12 -15 -29 -32q43 -30 73 -54t45 -41h-271zM545 321q48 3 71 4l149 -1l41 -4q-4 42 -5 60q0 48 2 59q0 15 3 30q-18 -1 -26 -2q-22 -3 -41 -3l-169 1q-15 3 -45 4q4 -90 5 -92q0 -6 -5 -57q9 1 20 1zM764 431v-73h-198v73h198z
M425 289q0 -7 -3 -29q0 -12 -2 -30q45 4 66 5l368 -1l52 -4l-6 59l1 215q1 25 5 51q-34 -1 -69 -5l-371 1q-3 0 -46 4q1 -30 5 -62v-204zM462 269v247h401v-247h-401zM452 176q3 -60 4 -91q0 -60 -2 -89l-3 -38q36 6 84 6l308 -1q9 0 44 -5q-4 49 -5 76q0 105 2 117
q0 18 3 36q-48 -6 -63 -6l-328 1q-24 4 -45 5q0 -4 1 -11zM493 -3v61h351v-61h-351zM493 92v55h351v-55h-351z" />
  </g>

</svg>
