<?xml version="1.0" standalone="no"?>
<!DOCTYPE svg PUBLIC "-//W3C//DTD SVG 1.1//EN" "http://www.w3.org/Graphics/SVG/1.1/DTD/svg11.dtd" >
<svg xmlns="http://www.w3.org/2000/svg" xmlns:xlink="http://www.w3.org/1999/xlink" version="1.1" viewBox="-10 0 1034 1024">
  <g transform="matrix(1 0 0 -1 0 820)">
   <path fill="currentColor"
d="M126 158l-66 5v-44q46 4 66 6h247q-18 -24 -39 -46q-24 -24 -66 -62q54 -9 130 -28q81 -18 133 -36q-33 -13 -60 -22q-30 -10 -78 -22q-39 -9 -78 -14q-99 -9 -130 -9l-51 5q18 -24 31 -49l139 13q67 9 105 18q84 18 177 65q21 -1 100 -30l96 -35l96 -40q7 27 18 46
l-143 47q-102 31 -126 41q78 73 132 158q171 0 194 -3q3 0 9 -3v44q-4 0 -7 -1q-3 0 -4 -1q-27 0 -55 -3h-437q27 33 57 61q24 21 54 30q-30 16 -59 36q-37 -58 -104 -127h-281zM708 125q-28 -48 -55 -77q-22 -25 -75 -69l-119 32l-109 27l76 87h282zM419 517q21 0 58 -5
q-6 54 -6 71q0 76 2 87q0 3 1 5l3 27q-21 0 -52 -5h-218q-9 1 -23 3q-12 0 -29 2q6 -84 6 -117q-1 -55 -11 -101q-12 -63 -42 -109q-15 -22 -43 -48q25 -7 48 -16q60 88 77 185q0 15 4 21h225zM195 553v108h238v-108h-238zM408 260l61 -5q-4 42 -5 63l1 86l4 40
q-30 -1 -61 -5l-180 1q-15 3 -46 4q1 -13 3 -29q3 -18 3 -41q0 -64 -2 -89q0 -12 -4 -30q45 4 88 5h138zM426 403v-107h-201v107h201zM554 505l-67 5v-45q9 3 67 6h152v-94q-154 3 -175 5v-45q19 4 50 5l125 1l-3 -103q0 -4 -2 -11h48q-1 4 -1 7t-4 61v46q162 0 168 -3
q3 0 8 -3v45q-9 0 -11 -2q-39 0 -77 -3h-88v94q207 0 214 -3q3 0 7 -3v45q-9 0 -11 -2q-37 0 -76 -3h-85q6 9 12 17l36 43q15 21 43 26q-34 19 -54 36q-31 -60 -85 -122h-191zM575 675l-66 5v-45q19 4 46 5l309 1q49 0 59 -3q1 0 6 -3v45l-36 -4l-151 -1q1 1 4 6q6 9 17 22
l-68 61q-9 7 -16 14q-9 -12 -28 -30q45 -30 81 -73h-157zM577 594q13 -12 31 -36q12 -16 26 -35q1 -1 3 -4q1 -1 5 -6q15 10 30 24l-44 57q-9 12 -23 26q-12 -13 -28 -26v0z" />
  </g>

</svg>
