<?xml version="1.0" standalone="no"?>
<!DOCTYPE svg PUBLIC "-//W3C//DTD SVG 1.1//EN" "http://www.w3.org/Graphics/SVG/1.1/DTD/svg11.dtd" >
<svg xmlns="http://www.w3.org/2000/svg" xmlns:xlink="http://www.w3.org/1999/xlink" version="1.1" viewBox="-10 0 1010 1000">
   <path fill="currentColor"
d="M726 -2q2 12 13 65q5 20 7 31h73q55 0 82 -8v71h-3q-47 -4 -106 -4h-173q-68 -1 -119 8v-75q1 -1 16 1q47 7 81 7h78q-3 -3 -11 -26q-12 -38 -23 -62zM131 38q42 9 119 10h115q60 0 101 -6q-6 36 -6 93v54q0 45 6 75q-29 -9 -77 -8h-189q-6 35 -12 60q11 3 25 3
q11 1 55 1h99q60 0 101 -6q-8 48 -8 99v50q0 38 4 63l-35 -4q84 30 75 36q-2 3 -12 7q-28 9 -48 37h366q62 0 119 -6v71q-31 -9 -114 -8h-99q-3 3 -10 11q-62 68 -93 92q74 14 274 64q-53 39 -75 71q-109 -49 -256 -91q-149 75 -431 93q-27 -62 -60 -91q100 14 206 7
q107 -7 181 -31q-106 -25 -214 -40q38 -36 79 -85h-150q-70 0 -117 6v-73q72 10 129 10h178q29 -34 46 -80h-34h-105q-65 0 -83 6q7 -33 7 -87v-40q0 -64 -3 -75q-32 94 -86 155q-30 -30 -73 -42q113 -92 111 -268q2 -84 -6 -133zM212 108l-4 89h185v-89h-181zM770 159
q9 4 27 11q56 21 52 25q0 4 -7 9q-25 20 -56 66h37q88 0 108 -6v72l-98 -8h-105v79h60q74 0 109 -6v70q-51 -6 -105 -6h-64v27q0 32 5 66q1 8 1 12h-83q11 -35 10 -78v-27h-84q-50 -1 -79 6v-70q33 6 77 6h86v-79h-90q-36 -1 -85 6v-72q29 7 81 6h24q-19 -44 -39 -69l71 -24
q12 47 36 95h61q41 -69 50 -111zM393 375h-137v92h137v-92zM625 659h-226l-44 46q21 5 72 15q64 12 101 20q37 -27 97 -81z" />
</svg>
