<?xml version="1.0" standalone="no"?>
<!DOCTYPE svg PUBLIC "-//W3C//DTD SVG 1.1//EN" "http://www.w3.org/Graphics/SVG/1.1/DTD/svg11.dtd" >
<svg xmlns="http://www.w3.org/2000/svg" xmlns:xlink="http://www.w3.org/1999/xlink" version="1.1" viewBox="-10 0 1034 1024">
  <g transform="matrix(1 0 0 -1 0 820)">
   <path fill="currentColor"
d="M297 37v-87q0 -30 -10 -40q-12 -9 -38 -10q-13 0 -46 4q10 -21 16 -49q48 3 60 8q54 18 55 79l1 304q0 16 4 45q-57 -6 -86 -6q-58 0 -74 2q-12 3 -42 4q4 -99 5 -102q0 -85 -3 -126l-3 -25q-10 -60 -47 -124q-16 -24 -42 -45q21 -6 43 -18q57 73 83 186h124zM175 70
q1 33 3 70h119v-70h-122zM297 173h-119v80h119v-80zM130 668q-58 3 -66 6v-44q9 0 18 2l137 3q0 -45 -2 -71q-3 -3 -3 -34q63 6 94 6q477 0 483 -3q3 0 9 -3v43q-4 0 -7 -1q-3 0 -4 -1q-27 0 -55 -3h-477v67l647 -1q30 0 37 -3l3 -1v44q-4 0 -8 -2q-3 0 -4 -1l-94 -3h-262
q6 18 20 36q-24 13 -67 41q-60 34 -64 37q-13 -24 -27 -41q48 -24 80 -42q27 -16 44 -31h-432zM218 397q-3 -24 -5 -51q31 3 65 5l475 -1l45 -4q-4 45 -5 71q0 12 5 72q-60 -4 -95 -5l-447 1q-3 0 -43 4l5 -86v-6zM255 450h500v-65h-500v65zM529 14q51 100 62 204
q-24 -1 -48 -5h-62q21 63 27 68q6 10 26 18q-30 6 -59 17q-6 -27 -15 -57q-9 -27 -17 -46q-34 1 -70 3q-3 0 -8 1v-42q63 3 66 4q-19 -64 -53 -115q48 -21 102 -60q-21 -31 -54 -63q-45 -40 -75 -58q27 -12 42 -25q40 36 67 64q24 25 50 59q31 -25 56 -49q12 19 26 35
q-16 15 -38 30q-13 9 -25 17zM430 81q9 30 24 60q7 24 14 38h78q-6 -33 -20 -76q-10 -31 -23 -54q-1 -3 -6 -11q-3 0 -7 4q-6 4 -13 8l-29 19zM794 257v-315q0 -42 19 -58q21 -16 58 -17q34 0 59 17q21 15 33 54q4 15 9 30q-24 6 -46 22q-1 -33 -7 -51q-9 -31 -42 -32
q-30 0 -38 14q-7 12 -8 35l1 302l4 38q-27 -1 -53 -5l-111 1q-6 1 -13 2q-13 0 -29 2q6 -69 8 -121q0 -72 -5 -131q-7 -69 -38 -122q-18 -28 -67 -64q28 -9 52 -23q84 103 90 222q0 12 2 40l1 93l1 67h120zM720 143q-4 7 -9 13q-15 -10 -33 -21q36 -43 64 -95q7 -12 11 -18
q15 15 30 27q-3 3 -63 94v0z" />
  </g>

</svg>
