<?xml version="1.0" standalone="no"?>
<!DOCTYPE svg PUBLIC "-//W3C//DTD SVG 1.1//EN" "http://www.w3.org/Graphics/SVG/1.1/DTD/svg11.dtd" >
<svg xmlns="http://www.w3.org/2000/svg" xmlns:xlink="http://www.w3.org/1999/xlink" version="1.1" viewBox="-10 0 1010 1000">
   <path fill="currentColor"
d="M153 -2q104 12 105 22q1 2 -5 5q-13 10 -17 21q-14 46 -34 167h68q43 -1 67 -4q-32 307 -69 403q13 10 38 30q35 27 53 41q-33 23 -57 61q-36 -40 -66 -67q-82 132 -131 185q-38 -34 -85 -44q78 -48 159 -183q-22 -15 -80 -46q-25 -13 -39 -21q25 -95 59 -277q1 -8 2 -11
h-32q-37 -1 -53 4v-75h4q29 4 49 4h40q15 -84 24 -215zM397 30q48 3 101 4h278q77 -3 125 -6v76q-21 -4 -44 -5q-18 -1 -75 -1h-113v53h148q75 0 133 -6q-5 14 -7 30q-1 12 -1 50q0 40 4 67h-83q6 -23 6 -85h-200v129q-1 48 4 73l-80 -2q8 -40 8 -67v-133h-168q-1 61 4 83
h-82q8 -47 8 -69q0 -38 -1 -49q0 -14 -3 -29q40 8 91 8h151v-53h-97q-76 0 -107 4v-72zM706 254q16 3 64 3q49 0 69 -3v58q-20 -4 -66 -5q-45 1 -67 5v-58zM450 256q53 6 112 0v58q-19 -3 -58 -3q-40 0 -54 3v-58zM254 280h-62q-34 167 -49 250l65 40q36 -129 46 -290z
M407 348q18 3 76 3t82 -3v57q-26 -3 -82 -3q-57 0 -76 3v-57zM700 348q75 6 155 0v57q-86 -6 -155 0v-57zM435 425q90 1 91 12q-1 3 -6 8q-16 13 -16 40v27h22q30 0 39 -1q11 0 26 -3v68q-35 -9 -65 -8h-22v228q0 55 6 97h-77q0 -4 2 -14q5 -44 5 -81v-121q-31 74 -93 159
q-40 -28 -71 -36q115 -104 157 -232h-40q-30 0 -64 4l2 -72q24 5 37 6q15 2 41 2h31v-20q0 -33 -5 -63zM605 445q56 8 111 8h88q71 -1 113 -4q-12 29 -12 85v280q0 52 6 85h-86q-1 -1 1 -13q5 -27 5 -44h-150q-2 24 4 47h-82q1 -6 2 -18q4 -30 4 -59v-270q0 -46 -4 -97z
M681 512v62h152v-62h-152zM681 621v58h152v-58h-23h-129zM833 727h-152v59h152v-59zM512 639l44 -14q5 13 18 41q14 31 19 43l-51 28q-11 -50 -30 -98z" />
</svg>
