<?xml version="1.0" standalone="no"?>
<!DOCTYPE svg PUBLIC "-//W3C//DTD SVG 1.1//EN" "http://www.w3.org/Graphics/SVG/1.1/DTD/svg11.dtd" >
<svg xmlns="http://www.w3.org/2000/svg" xmlns:xlink="http://www.w3.org/1999/xlink" version="1.1" viewBox="-10 0 1010 1000">
   <path fill="currentColor"
d="M867 54v99q-77 -18 -309 171v87q267 -44 369 -85l-16 99q-94 12 -353 63v288q3 50 -32 67q-33 20 -157 40q-5 -65 -40 -113q101 8 122 1q28 -6 27 -38v-233q-376 72 -371 86l-34 -105h9q45 5 396 -58v-75q0 -39 -6 -60q100 -60 209 -149h-364q-111 0 -188 8v-91
q80 8 188 8h304q123 0 170 -2q50 -2 76 -8z" />
</svg>
