<?xml version="1.0" standalone="no"?>
<!DOCTYPE svg PUBLIC "-//W3C//DTD SVG 1.1//EN" "http://www.w3.org/Graphics/SVG/1.1/DTD/svg11.dtd" >
<svg xmlns="http://www.w3.org/2000/svg" xmlns:xlink="http://www.w3.org/1999/xlink" version="1.1" viewBox="-10 0 1010 1000">
   <path fill="currentColor"
d="M167 38q54 9 158 10h294q88 1 147 -8q-6 21 -20 64q-24 76 -32 103h115q57 0 84 -6q-4 26 -11 77q-26 202 -39 220q-15 43 -109 54q-1 -54 -9 -87q-2 -5 -1 -6q4 0 11 -1q39 3 43 -29q14 -89 19 -155h-127q-31 1 -81 6l50 -165h-205q-39 165 -119 247q11 5 34 7
q12 1 28 2h45h161q101 -2 131 -8v94q2 2 -54 29q-106 52 -132 72v48h210q109 0 163 -8v81q-17 -3 -55 -5q-19 0 -44 -1h-64h-208v143q17 77 -169 87q-8 -55 -44 -105q125 25 129 -36v-87h-234q-83 0 -161 8v-83q49 6 165 8h228v-82q59 -23 163 -87h-210q-98 3 -111 8v-56
q-56 52 -159 107q-29 -50 -74 -75q251 -62 292 -308h-73q-91 0 -125 8v-85z" />
</svg>
