<?xml version="1.0" standalone="no"?>
<!DOCTYPE svg PUBLIC "-//W3C//DTD SVG 1.1//EN" "http://www.w3.org/Graphics/SVG/1.1/DTD/svg11.dtd" >
<svg xmlns="http://www.w3.org/2000/svg" xmlns:xlink="http://www.w3.org/1999/xlink" version="1.1" viewBox="-10 0 1034 1024">
  <g transform="matrix(1 0 0 -1 0 820)">
   <path fill="currentColor"
d="M296 -49q0 -33 -26 -45q-21 -7 -65 -8q-21 0 -49 4q9 -25 14 -53q57 4 98 13q66 15 66 75v339q36 13 98 42l98 43q-3 9 -8 51q-25 -18 -65 -39q-42 -21 -102 -47l-21 -9v162l62 60q42 45 71 78q24 24 34 36q12 15 28 38q-30 -1 -61 -5l-348 1q-15 1 -29 4v-47q39 6 81 6
h273q-33 -43 -91 -102q-34 -31 -63 -50q1 -30 5 -61v-136q-51 -24 -118 -52q-45 -18 -73 -29q-21 -6 -43 -12q13 -18 16 -24q3 -7 9 -26q15 13 50 28q9 3 51 24q36 15 108 49v-308zM728 -92q-30 1 -47 12q-24 15 -24 62v701q0 19 3 33q1 15 15 33h-64q0 -1 1 -3l5 -32
q0 -757 3 -772q6 -33 29 -52q27 -21 117 -21q81 0 118 15q36 13 54 54q9 21 25 73q-19 7 -44 24q-6 -45 -12 -67q-15 -45 -65 -55q-33 -4 -93 -5h-21z" />
  </g>

</svg>
