<?xml version="1.0" standalone="no"?>
<!DOCTYPE svg PUBLIC "-//W3C//DTD SVG 1.1//EN" "http://www.w3.org/Graphics/SVG/1.1/DTD/svg11.dtd" >
<svg xmlns="http://www.w3.org/2000/svg" xmlns:xlink="http://www.w3.org/1999/xlink" version="1.1" viewBox="-10 0 1034 1024">
  <g transform="matrix(1 0 0 -1 0 820)">
   <path fill="currentColor"
d="M252 -50q0 -31 -17 -40q-19 -9 -53 -10q-18 0 -58 6q12 -24 17 -51q90 7 118 23q30 18 31 54v354q27 18 147 78l-4 54q-25 -21 -48 -36q-31 -19 -95 -53v130q66 69 195 239q-78 -6 -114 -6l-256 1q-3 0 -30 5v-47q16 1 35 3q39 1 79 3h207q-21 -33 -39 -56
q-19 -24 -56 -64q-21 -25 -35 -39q-12 -12 -29 -27q4 -70 5 -104v-59l-80 -43q-27 -13 -50 -24q-31 -13 -67 -20q16 -18 28 -43q1 -3 3 -7q21 16 122 70l33 18q4 3 11 7v-316zM374 60q7 -1 25 -4q12 0 22 -5q4 -1 12 -4q7 15 25 59q13 36 28 79q27 84 44 156q13 57 20 72
q6 18 29 51q-39 6 -43 6q-10 1 -25 7q0 -24 -3 -40q-3 -19 -11 -55q-12 -57 -30 -122l-18 -61q-3 -13 -8 -26q-3 -12 -9 -21q-15 -39 -29 -61q-12 -16 -29 -31zM704 678q0 19 3 33q1 15 14 33h-63q3 -6 3 -15q3 -31 3 -51v-714q0 -21 -4 -33q-7 -12 -23 -16q-21 -6 -58 -7
q-18 0 -48 9q9 -21 14 -53q33 0 57 3q46 6 73 20q28 15 29 63v728zM923 63q4 3 11 5l15 5q9 4 20 5q-6 21 -15 46l-32 96q-12 36 -32 85l-84 198q-12 -12 -27 -20q-3 0 -20 -7q18 -22 40 -63q21 -45 51 -117q46 -120 67 -235l6 2v0z" />
  </g>

</svg>
