<?xml version="1.0" standalone="no"?>
<!DOCTYPE svg PUBLIC "-//W3C//DTD SVG 1.1//EN" "http://www.w3.org/Graphics/SVG/1.1/DTD/svg11.dtd" >
<svg xmlns="http://www.w3.org/2000/svg" xmlns:xlink="http://www.w3.org/1999/xlink" version="1.1" viewBox="-10 0 1010 1000">
   <path fill="currentColor"
d="M613 -2q19 2 50 4q32 3 41 4q22 1 11 21q-13 23 -13 39v409v349q2 40 -25 51q-26 15 -125 24q-11 -56 -40 -103q70 12 88 5q22 -5 21 -37v-607q0 -64 -2 -95q-1 -36 -6 -64zM431 56v87q-39 11 -147 145v117l109 -57l34 71l-143 68v311q2 47 -26 64q-28 20 -125 37
q-11 -60 -46 -111q132 29 121 -34v-238l-133 74l-47 -82l180 -75v-44q1 -81 -12 -121q61 -50 139 -135q-168 3 -268 20v-95q50 8 118 8h144q40 0 59 -2q23 -2 43 -8zM843 233q69 202 119 486l-97 19q-43 -301 -107 -490zM462 250q57 4 96 10q34 3 7 34q-20 28 -23 48
q-21 136 -94 389q-25 -13 -103 -18q95 -133 117 -463z" />
</svg>
