<?xml version="1.0" standalone="no"?>
<!DOCTYPE svg PUBLIC "-//W3C//DTD SVG 1.1//EN" "http://www.w3.org/Graphics/SVG/1.1/DTD/svg11.dtd" >
<svg xmlns="http://www.w3.org/2000/svg" xmlns:xlink="http://www.w3.org/1999/xlink" version="1.1" viewBox="-10 0 1010 1000">
   <path fill="currentColor"
d="M393 -10q103 0 103 8q0 2 -2 6q-14 23 -14 106h46q104 -2 131 -8v85q-37 -10 -131 -10h-48v101h87q125 -94 203 -244q6 3 17 8q96 46 86 52q-2 3 -10 5q-18 7 -36 24q-9 9 -30 31q-99 100 -118 122h101q118 -2 159 -8v80q-30 -6 -165 -6h-155q-15 10 -47 35
q-50 37 -74 52h208q56 -2 109 -12v83q-55 2 -163 74l-51 34v23h173q89 0 132 -8q10 -1 15 -2v82q-19 -5 -130 -4h-11h-179v115q3 51 -26 64q-25 16 -138 27q-5 -51 -44 -101q87 11 107 3q23 -6 22 -45v-63h-199q-102 3 -142 10v-86q7 0 27 2q87 6 111 6h203v-55
q51 -30 129 -80h-248q-103 62 -294 155q-22 -42 -65 -79q133 -29 254 -99v-50q15 3 69 6q47 -24 129 -85h-226q-14 0 -49 1q-125 2 -148 9v-82q35 4 139 6h191v-101h-119q-79 0 -105 8v-83q34 7 107 8h119q-1 -89 -10 -120z" />
</svg>
