<?xml version="1.0" standalone="no"?>
<!DOCTYPE svg PUBLIC "-//W3C//DTD SVG 1.1//EN" "http://www.w3.org/Graphics/SVG/1.1/DTD/svg11.dtd" >
<svg xmlns="http://www.w3.org/2000/svg" xmlns:xlink="http://www.w3.org/1999/xlink" version="1.1" viewBox="-10 0 1034 1024">
  <g transform="matrix(1 0 0 -1 0 820)">
   <path fill="currentColor"
d="M510 141l-393 1l-43 5v-47q49 4 66 5h370v-168q0 -39 -34 -46q-31 -3 -57 -4l-57 5q13 -24 18 -50l70 4q18 0 30 4q69 12 69 87v168h333q28 0 50 -3q1 0 16 -2v47q-54 -6 -66 -6h-333v37q12 12 39 30q42 30 75 57l101 84q-42 -1 -86 -5l-381 1l-42 4v-46q7 0 17 2
q22 0 48 3h330q-22 -22 -72 -61q-51 -36 -73 -47q1 -27 5 -55v-4zM488 635l-348 1l-42 5v-47q33 3 66 5h324v-108l-303 1q-30 4 -58 5q4 -114 5 -117q-1 -27 -3 -57q0 -4 -2 -10h48q0 9 -2 20l-3 102v21h666q0 -90 -2 -119q-1 -3 -1 -6l-2 -12h48q0 3 -1 7l-4 80l5 91
q-72 -6 -90 -6h-262v108h327q27 0 51 -3q3 0 15 -2v47q-12 -3 -28 -4q-18 -1 -38 -2h-327v65q0 37 14 66h-59q6 -51 6 -79v-52z" />
  </g>

</svg>
