<?xml version="1.0" standalone="no"?>
<!DOCTYPE svg PUBLIC "-//W3C//DTD SVG 1.1//EN" "http://www.w3.org/Graphics/SVG/1.1/DTD/svg11.dtd" >
<svg xmlns="http://www.w3.org/2000/svg" xmlns:xlink="http://www.w3.org/1999/xlink" version="1.1" viewBox="-10 0 1010 1000">
   <path fill="currentColor"
d="M853 14q60 76 52 88q-5 6 -30 3q-21 -3 -30 -1q-21 2 -43 9q-12 85 2 243q14 153 41 242q28 109 129 220q-42 18 -89 55q-90 -132 -131 -339q-29 -180 -28 -411l-85 10v379q-7 196 -34 232l95 -19q-4 -32 -25 -88l55 -12q37 102 56 199l-64 14q-2 -32 -10 -58
q-126 31 -178 54l-34 -78q47 -11 56 -43q17 -51 17 -213v-359l-81 10v234q-1 187 -32 298q-23 81 -101 200q-52 -31 -99 -45q98 -59 139 -203q23 -112 24 -291v-111q0 -21 -6 -141q24 0 97 -6q278 -39 337 -72zM65 64q73 4 118 4h65q86 -1 141 -6v79q-46 27 -127 121v135
l115 -49l-2 81q-51 18 -111 46v281q1 51 -32 72q-28 20 -129 35q-9 -50 -36 -101q74 13 96 8q26 -5 25 -33v-229q0 1 -53 24t-73 32l-24 -83l149 -56v-183l99 -103h-101q-67 1 -120 4v-79z" />
</svg>
