<?xml version="1.0" standalone="no"?>
<!DOCTYPE svg PUBLIC "-//W3C//DTD SVG 1.1//EN" "http://www.w3.org/Graphics/SVG/1.1/DTD/svg11.dtd" >
<svg xmlns="http://www.w3.org/2000/svg" xmlns:xlink="http://www.w3.org/1999/xlink" version="1.1" viewBox="-10 0 1010 1000">
   <path fill="currentColor"
d="M534 0q20 6 59 21q33 11 50 17q-2 4 -11 10q-16 9 -23 20q-26 41 -44 89h199q94 0 139 -8q-12 93 -24 363q-3 60 -4 76q-3 59 -34 79q-22 20 -125 34q-5 -54 -31 -93q68 9 83 1q17 -4 22 -41q8 -52 22 -343h-282q-11 17 -30 47q-19 32 -32 50q12 3 72 4h73q67 0 93 -4
q-4 19 -4 81v111q1 53 6 86q-23 -4 -83 -4h-109v144q-1 48 19 61q10 7 27 9q14 2 55 2h137q60 1 82 -23q23 -23 27 -90q46 40 95 47q-27 89 -57 113q-28 27 -103 26h-209q-104 2 -123 -23q-27 -22 -26 -122v-259v-39q1 -67 -3 -75l-36 44q-30 -27 -72 -44q131 -108 205 -367
zM458 80q-9 12 -30 39q-99 133 -152 193v149q52 -16 117 -42q-6 39 0 79l-117 34v250q3 67 -20 79q-15 17 -127 34q-11 -63 -38 -101q79 8 91 0q19 -5 18 -42v-198q0 2 -49 17q-75 23 -89 31q-8 -32 -32 -88q32 1 170 -33v-183q70 -77 115 -139h-154q-39 0 -99 6v-85
q40 7 115 8h129q92 0 152 -8zM516 389v143h111v-143h-111z" />
</svg>
