<?xml version="1.0" standalone="no"?>
<!DOCTYPE svg PUBLIC "-//W3C//DTD SVG 1.1//EN" "http://www.w3.org/Graphics/SVG/1.1/DTD/svg11.dtd" >
<svg xmlns="http://www.w3.org/2000/svg" xmlns:xlink="http://www.w3.org/1999/xlink" version="1.1" viewBox="-10 0 1034 1024">
  <g transform="matrix(1 0 0 -1 0 820)">
   <path fill="currentColor"
d="M490 547h-352q-9 0 -28 2q-18 0 -35 3v-47q39 6 82 6h269q-88 -91 -186 -150q-96 -57 -185 -67q27 -24 37 -46q66 24 135 60q42 21 106 70l56 46q27 22 49 46q19 21 41 41h11q-3 -186 -5 -202h49q-3 12 -4 31l-2 171h14q129 -133 394 -235q10 27 37 50q-67 10 -156 47
q-130 55 -217 138l301 -1q24 0 40 -5v47q-21 -4 -68 -5h-345v124l135 20q42 9 85 17l67 8q-27 25 -41 44l-97 -25q-54 -10 -116 -20q-138 -21 -268 -21q-33 0 -65 2q-21 1 -47 7q9 -22 14 -49q40 1 45 3l190 5l60 5v-120zM509 87h-342q-39 0 -70 5v-46q39 6 63 6h349v-132
q0 -25 -20 -34q-25 -7 -59 -8q-10 0 -60 5q12 -34 16 -47q-1 0 0 -3q28 1 83 8q78 12 78 79v132q351 0 369 -3q6 1 18 -1q1 0 6 -2v46q-18 -4 -67 -5h-326v46q42 27 68 48q24 16 44 34q34 27 54 46q15 13 31 30q-18 -1 -33 -2q-30 -3 -53 -4l-370 1q-3 1 -41 5v-48
q24 6 41 6l357 1q-34 -30 -61 -50q-27 -19 -79 -52l4 -48v-13z" />
  </g>

</svg>
