<?xml version="1.0" standalone="no"?>
<!DOCTYPE svg PUBLIC "-//W3C//DTD SVG 1.1//EN" "http://www.w3.org/Graphics/SVG/1.1/DTD/svg11.dtd" >
<svg xmlns="http://www.w3.org/2000/svg" xmlns:xlink="http://www.w3.org/1999/xlink" version="1.1" viewBox="-10 0 1010 1000">
   <path fill="currentColor"
d="M508 -12q21 72 30 100h226q85 -1 149 -12v91q-34 -9 -151 -8h-137v111q0 105 8 129h-91q8 -38 8 -123v-117h-129v115q-3 105 8 129h-92q7 -44 8 -133v-111h-139q-94 0 -131 8v-87q38 8 131 8h246q-7 -27 -43 -78zM222 213q87 47 78 55q-3 3 -16 11q-23 14 -34 25
q-47 47 -127 137q-37 -33 -77 -60q107 -57 176 -168zM730 213q91 47 195 133l-70 61q-103 -93 -188 -141zM198 431q59 10 153 10h272q136 -1 190 -8v77q-100 9 -271 102v23h202q100 -2 179 -12v92q-26 -5 -81 -8q-61 -4 -96 -2h-204v127q9 86 -132 79h-19q-9 -58 -34 -95
q100 22 99 -28v-83h-238q-105 1 -149 8v-84q31 6 151 6h236v-55q1 -2 33 -14q70 -28 128 -54h-260q-94 1 -159 6v-87z" />
</svg>
