<?xml version="1.0" standalone="no"?>
<!DOCTYPE svg PUBLIC "-//W3C//DTD SVG 1.1//EN" "http://www.w3.org/Graphics/SVG/1.1/DTD/svg11.dtd" >
<svg xmlns="http://www.w3.org/2000/svg" xmlns:xlink="http://www.w3.org/1999/xlink" version="1.1" viewBox="-10 0 1034 1024">
  <g transform="matrix(1 0 0 -1 0 820)">
   <path fill="currentColor"
d="M523 94h-400q-21 0 -63 5v-47q42 6 63 6h400v-129q0 -22 -14 -31q-6 -3 -30 -8h-61q-3 1 -23 2q7 -21 11 -50l99 13q12 4 22 8q36 13 36 56v139l366 -1q24 0 40 -5v47q-21 -4 -69 -5h-337v41q13 7 28 14q45 30 92 59q42 24 67 42q16 10 50 39l-88 -6l-432 1q-10 1 -23 2
q-9 1 -18 3v-48q55 6 63 7h373q-70 -49 -156 -92l4 -49v-13zM271 462q16 12 41 21q-18 10 -43 35q-3 1 -4 3q-21 -33 -89 -92q-63 -51 -116 -68q33 -19 47 -38l100 82q48 45 64 57zM634 584l269 -1q22 0 41 -5v46q-6 0 -14 -1q-15 -1 -55 -3l-750 3q-9 0 -18 1v-46
q48 6 63 6h225q0 -234 -3 -258q0 -3 -2 -16h48q-4 49 -5 69v205h163q0 -228 -3 -259q0 -1 -2 -15h48q0 3 -1 7q-1 3 -4 62v205zM515 732q-18 16 -58 43q-15 -22 -34 -42q30 -9 79 -45q46 -33 69 -64q15 24 32 41q-15 15 -35 29q-9 6 -53 38zM949 380q-93 67 -148 103l-38 28
q-3 1 -12 8q-9 -16 -27 -39q25 -12 40 -22q24 -15 67 -45l63 -45q19 -15 40 -34q12 19 30 34z" />
  </g>

</svg>
