<?xml version="1.0" standalone="no"?>
<!DOCTYPE svg PUBLIC "-//W3C//DTD SVG 1.1//EN" "http://www.w3.org/Graphics/SVG/1.1/DTD/svg11.dtd" >
<svg xmlns="http://www.w3.org/2000/svg" xmlns:xlink="http://www.w3.org/1999/xlink" version="1.1" viewBox="-10 0 1010 1000">
   <path fill="currentColor"
d="M893 -2q64 79 53 88q-4 4 -15 1q-21 -5 -40 -1q-22 4 -73 14q-75 16 -233 45l-29 -65q200 -12 337 -82zM260 10q54 70 48 82q-23 -4 -86 8q-50 10 -85 15v120l44 -16q24 77 47 202v-37q1 -159 -4 -241q64 5 76 18q-15 12 -14 46v97q1 181 -4 276q-10 177 -147 303
q-45 -33 -89 -43q156 -83 180 -258q-10 7 -31 22q-68 47 -104 79l-33 -64q23 -17 23 -53v-419q0 -46 -8 -83q107 -7 187 -54zM546 62q-6 29 -6 79v498q1 42 -21 57q-22 17 -84 21q-4 -38 -32 -86q91 23 79 -27v-143l-49 8q-23 -130 -50 -199v461q0 116 9 159q1 4 1 5h-74
q0 -2 1 -7q7 -43 7 -157v-590q0 -50 -8 -79q32 8 78 8h75q37 1 74 -8zM853 115q51 14 87 32q-36 29 -86 167q-5 12 -7 18q-24 -16 -61 -22q44 -83 67 -195zM383 133v100l44 -16q36 129 55 232v-316h-99zM750 143q21 66 32 133l-62 10q-9 -77 -28 -129zM633 167q18 54 48 127
l-60 22q-17 -71 -48 -131zM137 248v332q24 -18 89 -60q2 -32 2 -69l-45 12q-20 -160 -46 -215zM923 340q-30 57 -125 154v50h33q57 0 123 -8v77q-51 -7 -117 -7h-37v192q1 44 -4 55q-4 16 -18 22q-35 17 -111 20q4 -43 -32 -87q106 25 93 -28v-172h-36q-75 -1 -119 5v-73
q43 5 56 5q13 1 59 1h40v-59l76 -80h-106q-65 1 -109 8v-77q42 8 99 8h137q33 0 98 -6z" />
</svg>
