<?xml version="1.0" standalone="no"?>
<!DOCTYPE svg PUBLIC "-//W3C//DTD SVG 1.1//EN" "http://www.w3.org/Graphics/SVG/1.1/DTD/svg11.dtd" >
<svg xmlns="http://www.w3.org/2000/svg" xmlns:xlink="http://www.w3.org/1999/xlink" version="1.1" viewBox="-10 0 1010 1000">
   <path fill="currentColor"
d="M52 42q50 8 109 8h71q71 0 127 -8v77q-76 43 -133 133v159l60 -24q18 -6 27 -10l8 74q-16 5 -40 13q-31 9 -55 17v305q16 62 -131 85q-4 -44 -24 -97q80 17 84 -28v-242q-64 29 -93 44l-22 -81q14 -3 71 -22q29 -9 44 -14v-89v-105q49 -51 97 -120h-97q-54 0 -103 10v-85
zM367 28q5 1 13 2q23 4 98 4h298q54 0 121 -8v80q-32 -6 -68 -7q-20 -1 -57 -1h-119v65q253 0 278 -10q0 5 -1 14q-1 26 -1 62v53q1 18 2 30h-82q6 -51 6 -95h-202v85v71q1 25 2 40h-74q2 -18 3 -43q1 -12 1 -28v-44v-81h-192q0 74 2 107q-42 -6 -72 0q4 -47 4 -82
q0 -60 -4 -87q48 6 262 6v-63h-123q-69 -1 -95 4v-74zM423 264l4 1q27 5 53 5q48 0 64 -2v56h-5q-35 -4 -59 -4q-39 -1 -57 2v-58zM694 260h3q25 4 61 4q27 0 69 -4v56q-1 1 -19 0q-31 -2 -54 -2q-33 -1 -60 2v-56zM698 362h3q37 3 77 3q12 0 36 -1q23 -1 35 -1v56
q-10 -3 -25 -3q-12 -1 -48 -1q-58 -1 -78 4v-57zM401 363q2 0 7 1q29 3 66 3q55 0 70 -2v56h-3q-29 -4 -67 -4q-59 -1 -73 4v-58zM315 457q0 -1 29 1q59 3 96 3h356q87 0 135 -6v75q-1 1 -15 -1q-63 -9 -124 -9h-139l-22 64h149q59 0 113 -6q-3 7 -2 106v150q15 45 -121 59
q1 -49 -28 -93q77 14 81 -24v-131h-105q0 153 6 207h-73q5 -29 6 -67q2 -40 2 -142h-92q0 109 2 153q1 45 6 60h-73q0 -3 1 -9q9 -50 9 -204h-91q-2 182 4 234h-84q12 -44 12 -140q0 -110 -8 -161q43 8 218 8l18 -64h-146q-49 0 -115 6h-5v-69z" />
</svg>
