<?xml version="1.0" standalone="no"?>
<!DOCTYPE svg PUBLIC "-//W3C//DTD SVG 1.1//EN" "http://www.w3.org/Graphics/SVG/1.1/DTD/svg11.dtd" >
<svg xmlns="http://www.w3.org/2000/svg" xmlns:xlink="http://www.w3.org/1999/xlink" version="1.1" viewBox="-10 0 1034 1024">
  <g transform="matrix(1 0 0 -1 0 820)">
   <path fill="currentColor"
d="M540 24h346q28 0 53 -3q1 0 16 -2v45q-24 -4 -69 -5h-346v18q3 0 9 5l13 6l95 43q43 21 122 65q12 6 28 21q-42 -1 -86 -5l-521 1q-4 0 -38 4v-44q51 4 63 5h443l-45 -25q-19 -9 -54 -24q-37 -16 -71 -24l4 -37v-9l-393 1q-24 3 -23 2q-7 1 -13 1q-3 1 -5 1v-45q-1 0 7 1
q36 3 56 4h371v-116q0 -18 -17 -23q-19 -4 -44 -5q-9 0 -39 4q-12 0 -27 6q6 -16 11 -27q3 -9 5 -24q48 3 87 9q61 10 62 63v113zM875 598q33 -1 68 -5v44q-24 -4 -68 -5h-255q51 57 77 79q21 21 48 32q-24 12 -48 34q-21 -28 -58 -70l-69 -75h-156q12 15 24 27
q-52 57 -105 107q-6 -9 -14 -17q-4 -6 -20 -19q45 -21 97 -98h-260q-27 0 -63 5v-44q24 4 56 5h573q-15 -27 -76 -84q-34 -30 -53 -43q-18 -10 -36 -14q9 -18 16 -45q33 4 164 15q-43 -36 -85 -66q-30 -19 -47 -28q-16 -9 -45 -15q12 -15 21 -44q40 10 55 11q78 10 166 17
q28 3 58 5q15 -31 23 -58q7 4 14 10q9 4 14 9q4 0 14 4q-18 42 -39 75q-21 37 -39 62q-24 -15 -44 -23q22 -18 41 -49l-66 -6q-45 -3 -89 -7q-15 -1 -33 -3q36 30 39 31q18 15 105 80q61 48 100 65l-26 14q-10 6 -26 20q-10 -15 -33 -36q-27 -25 -44 -37q-27 -3 -59 -3
q-34 -1 -89 -3q15 15 41 34q45 39 63 52q4 6 9 7q15 9 37 20q-31 19 -45 33h167zM240 507q-33 -33 -49 -46q-13 -9 -37 -19q15 -21 20 -42q36 6 74 11l82 6q-51 -51 -93 -81q-27 -19 -79 -31q3 -9 8 -15q6 -15 8 -30q82 13 177 25l63 7q21 3 42 5q12 -18 22 -58q21 16 42 25
q-6 15 -19 34q-60 90 -63 95q-21 -13 -42 -22q18 -10 42 -45l-136 -13q-7 0 -19 -2q-3 0 -22 -2l65 56q57 54 68 61q21 15 43 33q21 15 45 25q-30 21 -47 41q-24 -31 -69 -77q-27 0 -142 -5q69 67 89 82q19 16 53 31q-13 6 -24 11q-6 3 -26 21q-21 -27 -38 -43
q-19 -18 -38 -38v0z" />
  </g>

</svg>
