<?xml version="1.0" standalone="no"?>
<!DOCTYPE svg PUBLIC "-//W3C//DTD SVG 1.1//EN" "http://www.w3.org/Graphics/SVG/1.1/DTD/svg11.dtd" >
<svg xmlns="http://www.w3.org/2000/svg" xmlns:xlink="http://www.w3.org/1999/xlink" version="1.1" viewBox="-10 0 1010 1000">
   <path fill="currentColor"
d="M355 -10q50 43 87 88l-47 32h161q55 -74 79 -120q97 31 95 38q-2 4 -13 10q-41 23 -90 72h185q64 0 80 -1q21 0 33 -3v69q-18 -6 -110 -6h-121q44 19 56 38q-1 2 -9 4q-25 4 -45 18q-48 31 -85 61l121 -6q37 -37 64 -61q5 3 23 13q58 32 52 36q-3 2 -15 6q-20 5 -29 12
q-18 13 -58 41q-103 75 -152 104l177 -8q-20 -21 -44 -44l62 -25q42 37 101 129l-70 27q-3 -5 -10 -15q-9 -15 -14 -22q-267 12 -279 25l-28 -71q38 1 128 -68q29 -20 47 -33q-99 8 -161 26l-20 -66q54 -6 151 -121h-338q67 30 64 40q-2 2 -13 4q-24 4 -39 14q-10 6 -30 17
q-49 28 -79 46l145 -12q59 -54 71 -73q75 46 78 57q-2 5 -11 6q-22 4 -45 20q-134 96 -238 147l179 -8q-4 -6 -11 -18q-15 -25 -21 -36l62 -17q50 79 71 132l-69 18q-2 -4 -7 -15l-7 -14q-234 10 -284 29l-32 -71q70 2 214 -111q-140 12 -176 30l-22 -72q70 -1 173 -113
h-102q-71 0 -117 6v-71q33 6 119 6h161q-32 -43 -71 -76zM157 526q59 8 117 8h420q89 0 127 -8v84q-112 11 -279 71v12h236h68q22 0 35 -1q26 0 42 -3v77q-45 -10 -149 -10h-232v88q9 58 -143 63q-1 -45 -46 -91q108 26 121 -6v-54h-248q-107 0 -155 6v-77q29 9 149 8h254
v-50q94 -17 213 -57h-411q-74 0 -119 6v-66z" />
</svg>
