<?xml version="1.0" standalone="no"?>
<!DOCTYPE svg PUBLIC "-//W3C//DTD SVG 1.1//EN" "http://www.w3.org/Graphics/SVG/1.1/DTD/svg11.dtd" >
<svg xmlns="http://www.w3.org/2000/svg" xmlns:xlink="http://www.w3.org/1999/xlink" version="1.1" viewBox="-10 0 1010 1000">
   <path fill="currentColor"
d="M534 16l35 121h254q66 0 94 -6q-2 6 -3 22q-1 12 -1 52v32q0 67 1 84q0 24 3 27h-92q1 -8 2 -21q2 -31 2 -43v-71h-660v61q0 44 4 78h-92q4 -9 4 -108v-29q0 -48 -4 -84q2 0 9 1q38 5 77 5h313q-23 -62 -46 -98q-5 -8 -5 -11zM266 296q117 10 109 16q1 7 -5 19
q-15 30 -15 68v109q225 -51 397 -121q12 23 33 57q28 46 23 48q-1 3 -18 5q-18 -12 -435 83v168q0 54 64 54h256q89 9 101 -129q2 0 9 7q36 37 88 57q-55 151 -147 144h-347q-110 2 -107 -89v-395q-1 -73 -6 -101z" />
</svg>
