<?xml version="1.0" standalone="no"?>
<!DOCTYPE svg PUBLIC "-//W3C//DTD SVG 1.1//EN" "http://www.w3.org/Graphics/SVG/1.1/DTD/svg11.dtd" >
<svg xmlns="http://www.w3.org/2000/svg" xmlns:xlink="http://www.w3.org/1999/xlink" version="1.1" viewBox="-10 0 1034 1024">
  <g transform="matrix(1 0 0 -1 0 820)">
   <path fill="currentColor"
d="M121 584q3 -24 4 -36v-31q0 -48 -7 -76h51q-4 28 -5 75v68h703v-62q0 -43 -6 -76h50q-4 30 -5 75l5 103q-37 -1 -75 -5h-254q15 18 30 30q-60 52 -158 115q-12 -18 -31 -38q105 -49 152 -107l-399 1q-7 1 -17 2q-21 0 -41 2zM322 388q0 36 15 66h-60q6 -30 6 -67l1 -413
q3 -24 15 -43q15 -27 56 -41q30 -7 68 -13q33 -3 104 -4l78 1q126 6 172 22q30 10 53 48q6 12 17 43q10 31 26 90q-16 7 -44 26q-3 -40 -11 -74q-6 -27 -14 -45q-15 -36 -45 -51q-31 -13 -107 -20q-63 -3 -135 -4q-48 0 -82 3q-55 6 -85 23q-27 18 -28 68v200
q180 37 360 100q70 22 118 28q-33 27 -50 51q-33 -21 -70 -36q-48 -18 -133 -46q-123 -36 -225 -59v147z" />
  </g>

</svg>
