<?xml version="1.0" standalone="no"?>
<!DOCTYPE svg PUBLIC "-//W3C//DTD SVG 1.1//EN" "http://www.w3.org/Graphics/SVG/1.1/DTD/svg11.dtd" >
<svg xmlns="http://www.w3.org/2000/svg" xmlns:xlink="http://www.w3.org/1999/xlink" version="1.1" viewBox="-10 0 1010 1000">
   <path fill="currentColor"
d="M530 8q10 25 26 117h265q48 0 88 -6q-1 5 -2 15q-6 47 -6 69q0 71 6 119h-95q9 -65 9 -127h-642q0 57 9 133h-101q12 -57 12 -119q1 -51 -8 -92q37 8 88 8h289q-18 -60 -41 -103zM712 280q71 79 70 91q-2 2 -21 1q-36 -1 -63 1q-22 2 -91 10q-80 9 -113 12v149l304 -20
q85 -9 125 -18l4 90l-117 -2l-316 18v125q-2 46 14 56q17 13 75 13h76q74 2 101 -26q31 -28 38 -105q40 51 95 69q-36 99 -73 118q-34 25 -157 23h-119q-82 1 -104 -20q-24 -18 -23 -87v-157l-232 22q-42 4 -108 18l-8 -101q29 4 108 4l240 -12v-145q-30 6 -124 20
q-42 7 -61 10q-22 -57 -53 -89q294 9 533 -68z" />
</svg>
