<?xml version="1.0" standalone="no"?>
<!DOCTYPE svg PUBLIC "-//W3C//DTD SVG 1.1//EN" "http://www.w3.org/Graphics/SVG/1.1/DTD/svg11.dtd" >
<svg xmlns="http://www.w3.org/2000/svg" xmlns:xlink="http://www.w3.org/1999/xlink" version="1.1" viewBox="-10 0 1010 1000">
   <path fill="currentColor"
d="M480 413h149q66 0 103 -12q-19 150 -26 320q-3 48 8 54q6 10 60 9q56 2 63 -15q12 -9 20 -98q35 34 99 56q-31 103 -62 119q-17 13 -46 17q-26 4 -90 4q-158 4 -145 -77q3 -45 10 -140q9 -121 10 -162h-161q-12 272 -339 409q-29 -47 -89 -79q318 -79 341 -330h-127
q-73 0 -121 10v-93q39 8 117 8h139q4 -80 -2 -186q102 4 113 13q0 5 -6 13q-14 17 -14 37q-1 21 -2 62q-1 42 -2 61zM563 125h213q84 0 125 -6q-6 30 -6 64v32q-1 60 4 77h-95q8 -35 8 -95h-637q0 48 1 68q1 24 3 39h-94q6 -25 6 -69v-46q0 -42 -4 -72q38 9 109 8h278
q-28 -67 -45 -99l101 -24q10 45 33 123z" />
</svg>
