<?xml version="1.0" standalone="no"?>
<!DOCTYPE svg PUBLIC "-//W3C//DTD SVG 1.1//EN" "http://www.w3.org/Graphics/SVG/1.1/DTD/svg11.dtd" >
<svg xmlns="http://www.w3.org/2000/svg" xmlns:xlink="http://www.w3.org/1999/xlink" version="1.1" viewBox="-10 0 1010 1000">
   <path fill="currentColor"
d="M540 -4q20 48 33 127h217q61 0 103 -6q-8 31 -8 98q0 45 7 80q1 7 1 9h-97q6 -28 6 -107h-612q0 106 6 111h-97q0 -2 2 -13q6 -43 6 -80q0 -75 -6 -98q48 6 111 6h268q-23 -66 -51 -109zM79 391q6 0 30 2q72 6 131 6h530q60 0 133 -7q17 -1 20 -1v94q-2 0 -12 -1
q-61 -7 -141 -7h-210v291q2 77 -32 97q-29 24 -159 36q-14 -62 -44 -109q85 14 114 3q29 -8 27 -53v-265h-224q-74 0 -142 6q-16 2 -21 2v-94z" />
</svg>
