<?xml version="1.0" standalone="no"?>
<!DOCTYPE svg PUBLIC "-//W3C//DTD SVG 1.1//EN" "http://www.w3.org/Graphics/SVG/1.1/DTD/svg11.dtd" >
<svg xmlns="http://www.w3.org/2000/svg" xmlns:xlink="http://www.w3.org/1999/xlink" version="1.1" viewBox="-10 0 1034 1024">
  <g transform="matrix(1 0 0 -1 0 820)">
   <path fill="currentColor"
d="M101 364q4 -99 5 -103q-3 -69 -5 -83h48q-1 3 -1 5q0 1 -4 53v87h730q-3 -138 -5 -148q-1 0 -1 -1h49q0 3 -1 7q-3 7 -4 36q0 97 2 110q0 15 3 37q-45 -4 -59 -5l-712 1q-15 3 -45 4zM451 518q-12 9 -22 17q-7 -15 -24 -33q115 -75 156 -119q6 9 22 29q3 3 6 7
q-39 25 -138 99v0z" />
  </g>

</svg>
