<?xml version="1.0" standalone="no"?>
<!DOCTYPE svg PUBLIC "-//W3C//DTD SVG 1.1//EN" "http://www.w3.org/Graphics/SVG/1.1/DTD/svg11.dtd" >
<svg xmlns="http://www.w3.org/2000/svg" xmlns:xlink="http://www.w3.org/1999/xlink" version="1.1" viewBox="-10 0 1034 1024">
  <g transform="matrix(1 0 0 -1 0 820)">
   <path fill="currentColor"
d="M392 236q-10 -90 -26 -131q-33 -97 -125 -156q-90 -55 -177 -65q37 -33 47 -44q66 27 113 52q45 25 81 56q57 48 86 113q27 64 39 175h154v-273q0 -27 11 -48q9 -19 35 -29q28 -10 84 -11q66 0 113 10q67 12 93 62q12 25 26 92q-15 3 -48 19l1 -29q0 -64 -36 -90
q-37 -24 -137 -24q-73 0 -90 14q-13 10 -14 38v269l246 -1q3 0 43 -4v46q-55 -4 -67 -5l-686 1q-19 1 -30 4v-46q36 4 67 5h197zM118 623q6 -60 6 -81q0 -49 -4 -90q-1 -4 -2 -10h50q-6 33 -6 75v77h709v-67q0 -43 -6 -77h50q-6 36 -5 90q0 33 3 66q0 15 2 29
q-66 -4 -108 -5h-224q13 21 30 39q-33 21 -75 51q-36 19 -66 40q-12 7 -23 13q-9 -15 -23 -34q0 -3 -3 -5q0 -3 -3 -5q40 -15 70 -36q39 -24 54 -35q15 -12 30 -28l-403 1q-4 0 -53 4v-12zM253 400q25 6 67 6l425 -1q24 0 43 -5v48q-12 -3 -20 -3q-24 -1 -36 -3l-447 1
q-18 3 -32 5v-48z" />
  </g>

</svg>
