<?xml version="1.0" standalone="no"?>
<!DOCTYPE svg PUBLIC "-//W3C//DTD SVG 1.1//EN" "http://www.w3.org/Graphics/SVG/1.1/DTD/svg11.dtd" >
<svg xmlns="http://www.w3.org/2000/svg" xmlns:xlink="http://www.w3.org/1999/xlink" version="1.1" viewBox="-10 0 1010 1000">
   <path fill="currentColor"
d="M550 6q19 61 27 119h235q29 0 88 -7q3 -1 5 -1q-10 43 -10 84q0 51 6 93h-95q4 -51 4 -99h-612q0 24 6 81q1 9 2 14h-99q8 -46 8 -93q-1 -55 -6 -80q57 7 97 8h278q-15 -59 -44 -107zM413 217q92 20 117 31q0 3 -10 12q-18 17 -24 28q-8 15 -19 42q-13 29 -21 45h310
q62 0 135 -10v88q-53 -9 -133 -8h-343q-148 248 -306 389q-31 -41 -75 -64q177 -117 289 -327h-125q-65 1 -125 10v-88q59 7 119 8h163q26 -60 46 -146q1 -7 2 -10zM502 481q95 35 103 53q-4 4 -13 10q-21 14 -36 34q-6 7 -16 21q-92 117 -141 175l317 -18q-44 -72 -91 -125
l77 -39q98 121 173 258l-99 39q-8 -25 -32 -65q-372 20 -456 43q-13 -57 -34 -87q60 -8 115 -77q96 -108 133 -222z" />
</svg>
