<?xml version="1.0" standalone="no"?>
<!DOCTYPE svg PUBLIC "-//W3C//DTD SVG 1.1//EN" "http://www.w3.org/Graphics/SVG/1.1/DTD/svg11.dtd" >
<svg xmlns="http://www.w3.org/2000/svg" xmlns:xlink="http://www.w3.org/1999/xlink" version="1.1" viewBox="-10 0 1034 1024">
  <g transform="matrix(1 0 0 -1 0 820)">
   <path fill="currentColor"
d="M395 344q-42 -66 -73 -103q-33 -39 -90 -91q-108 -94 -171 -107q18 -10 35 -21q12 -6 9 -5l12 -9q90 61 178 146q45 46 75 84q33 43 74 106l464 -1q24 0 45 -5v47q-55 -4 -67 -5h-425q12 21 17 35q33 72 42 84q7 13 31 38q-33 9 -63 21q-24 -90 -73 -178h-244
q-46 0 -68 5v-47q36 6 62 6h230zM158 625q6 -60 6 -81q0 -30 -4 -68l-3 -18h51q-6 31 -6 74v64h663v-61q0 -48 -7 -76h51q-4 28 -5 75q0 36 3 73q0 18 2 31l-73 -6h-242q15 15 29 34q-60 51 -145 102q-9 -15 -34 -38q31 -13 68 -38q39 -22 54 -38q13 -13 24 -22l-375 1
q-13 3 -57 5v-13zM813 -66q18 -21 30 -38l32 -52q9 7 15 13q12 12 27 23l-153 185l-85 94q-12 -13 -44 -33q39 -24 73 -63l51 -59q12 -12 27 -34l-256 -19l-174 -11q34 40 96 118q3 6 7 10l87 121q10 13 18 24q9 18 31 30q6 4 16 10q-36 13 -60 29q-48 -84 -98 -155
q-39 -57 -67 -92q-21 -28 -41 -50q-40 -45 -76 -53q10 -19 22 -49q105 18 116 19q30 3 77 5q27 0 135 11z" />
  </g>

</svg>
