<?xml version="1.0" standalone="no"?>
<!DOCTYPE svg PUBLIC "-//W3C//DTD SVG 1.1//EN" "http://www.w3.org/Graphics/SVG/1.1/DTD/svg11.dtd" >
<svg xmlns="http://www.w3.org/2000/svg" xmlns:xlink="http://www.w3.org/1999/xlink" version="1.1" viewBox="-10 0 1034 1024">
  <g transform="matrix(1 0 0 -1 0 820)">
   <path fill="currentColor"
d="M668 339h-518q-45 0 -67 5v-47q25 6 67 6h518v-349q0 -36 -17 -49q-16 -16 -67 -17l-43 1q-24 1 -58 6q16 -30 23 -60q13 3 74 7q15 0 57 7q34 10 51 27q18 21 19 75v352l197 -1q22 0 43 -5v47q-18 -1 -20 -2q-24 -1 -36 -3h-184q0 126 3 131q1 10 8 22q1 3 3 7h-59
q6 -30 6 -73v-87zM146 518q0 -33 -5 -77h49q-4 28 -5 75v70h671v-64q0 -43 -6 -77h50q-4 27 -5 75l5 108q-21 -1 -41 -3q-27 -3 -82 -3l-582 1q-9 1 -54 5q1 -39 5 -79v-31zM456 91l-92 93l-62 57q-15 -18 -35 -38q34 -21 73 -59q30 -30 48 -50q16 -18 34 -42q12 19 34 39z
M600 666q-31 25 -72 52l-72 49q-9 -13 -32 -38q105 -49 151 -102q1 1 3 5q1 3 4 8z" />
  </g>

</svg>
