<?xml version="1.0" standalone="no"?>
<!DOCTYPE svg PUBLIC "-//W3C//DTD SVG 1.1//EN" "http://www.w3.org/Graphics/SVG/1.1/DTD/svg11.dtd" >
<svg xmlns="http://www.w3.org/2000/svg" xmlns:xlink="http://www.w3.org/1999/xlink" version="1.1" viewBox="-10 0 1034 1024">
  <g transform="matrix(1 0 0 -1 0 820)">
   <path fill="currentColor"
d="M112 528l-4 -67q-1 -3 -1 -8h49q-4 27 -5 74v59h720v-44q0 -46 -6 -77h50q-4 24 -5 76q0 21 5 87q-51 -6 -78 -6h-286q13 21 24 30q6 3 12 10q-15 15 -26 23l-34 25q-25 22 -67 52q-15 -15 -43 -36q40 -16 78 -49q39 -34 52 -55l-382 1q-18 3 -30 3t-28 2q1 -36 5 -74
v-26zM265 -87q0 -45 -6 -76h50q-4 28 -5 75v16h464q0 -33 -5 -83h49q-4 28 -5 76l1 191l4 50q-18 -1 -35 -3q-25 -3 -34 -3h-439v98l381 -1l56 -4q-3 30 -5 60l-1 87l6 73l-73 -6l-350 1q-9 1 -59 5q1 -22 3 -43q3 -28 3 -42v-471zM304 -36v156h464v-156h-464zM304 290v137
h394v-137h-394z" />
  </g>

</svg>
