<?xml version="1.0" standalone="no"?>
<!DOCTYPE svg PUBLIC "-//W3C//DTD SVG 1.1//EN" "http://www.w3.org/Graphics/SVG/1.1/DTD/svg11.dtd" >
<svg xmlns="http://www.w3.org/2000/svg" xmlns:xlink="http://www.w3.org/1999/xlink" version="1.1" viewBox="-10 0 1010 1000">
   <path fill="currentColor"
d="M212 304q76 3 157 4h268q67 0 139 -5q11 -1 16 -1v77q-81 -4 -151 -4h-91v145h144q16 0 73 -3q62 -3 80 -3v78q-72 -3 -151 -4h-146v190q72 16 184 13q116 -4 216 -25q-40 51 -45 113q-313 10 -455 -45q-145 -59 -200 -163q-50 113 -131 216q-34 -37 -89 -55
q151 -118 206 -379q110 25 109 39q-2 7 -12 15q-13 11 -20 23q-27 40 -27 82q47 94 180 152v-389h-99q-56 0 -155 6v-77zM534 0q4 11 14 46q14 46 19 60h256q66 -3 94 -8q-8 27 -8 83v28q0 60 4 87h-96q2 -6 3 -25q1 -16 1 -62v-26h-648v32q0 79 4 91h-96q4 -10 5 -29
q1 -15 1 -62v-36q1 -57 -8 -81q29 7 96 8h303q-3 -18 -31 -69q-9 -16 -12 -23z" />
</svg>
