<?xml version="1.0" standalone="no"?>
<!DOCTYPE svg PUBLIC "-//W3C//DTD SVG 1.1//EN" "http://www.w3.org/Graphics/SVG/1.1/DTD/svg11.dtd" >
<svg xmlns="http://www.w3.org/2000/svg" xmlns:xlink="http://www.w3.org/1999/xlink" version="1.1" viewBox="-10 0 1010 1000">
   <path fill="currentColor"
d="M544 8q4 34 17 94q1 7 2 10h227q66 -2 125 -10q-5 33 -6 81q0 37 8 101h-96q7 -48 8 -97h-654q0 23 5 84q2 26 3 37h-98q10 -45 10 -113q0 -51 -8 -91q44 8 86 8h305q-6 -15 -17 -42q-16 -38 -23 -54zM381 209q51 -1 105 14q-1 2 -4 5q-13 12 -14 42q-3 46 -8 106
q-2 13 -2 19h338q51 0 133 -10v88q-35 -6 -131 -6h-195v196q80 -72 139 -175q42 23 85 56q-26 7 -51 38q-68 83 -171 164q0 36 15 47q12 12 57 11h67q70 1 88 -18q19 -12 27 -85q43 39 93 43q-27 97 -57 114q-31 19 -95 19h-173q-58 1 -77 -17q-22 -19 -22 -70
q-38 28 -109 60q-33 -39 -76 -66q119 -28 181 -71v-246h-74q-13 247 -321 422q-31 -45 -91 -67q287 -83 335 -355h-161q-80 1 -127 8v-88q58 8 127 8h171q9 -138 -2 -186zM639 217q67 57 105 109l-79 45q-41 -59 -92 -107z" />
</svg>
