<?xml version="1.0" standalone="no"?>
<!DOCTYPE svg PUBLIC "-//W3C//DTD SVG 1.1//EN" "http://www.w3.org/Graphics/SVG/1.1/DTD/svg11.dtd" >
<svg xmlns="http://www.w3.org/2000/svg" xmlns:xlink="http://www.w3.org/1999/xlink" version="1.1" viewBox="-10 0 1010 1000">
   <path fill="currentColor"
d="M417 177q11 3 30 7q79 17 75 29q0 2 -4 4q-30 17 -60 73h342q99 0 127 -8v81q-28 -5 -115 -5h-389q-8 12 -34 55q-6 10 -8 14h61h254q72 0 125 -6q-9 27 -9 79v310q2 50 -27 68q-30 21 -118 33q-7 -59 -36 -91q106 14 101 -32v-51h-369v81q0 64 4 87h-85q1 -15 2 -33v-52
v-268q-102 95 -157 133q-3 -4 -10 -11q-33 -40 -69 -59q189 -88 289 -259h-156q-73 0 -102 6v-80q36 6 111 6h183q44 -94 44 -111zM363 487v65h367v-65h-367zM363 612v65h369v-65h-369zM538 -31q8 36 29 107q3 11 4 16h213q59 0 79 -1q25 0 42 -3q-4 21 -4 69v32q-1 59 4 69
h-90q0 -7 2 -24q6 -38 6 -71h-642q0 57 4 89h-94q6 -24 6 -69v-28q0 -42 -4 -71q38 9 109 8h278q-27 -67 -45 -100z" />
</svg>
