<?xml version="1.0" standalone="no"?>
<!DOCTYPE svg PUBLIC "-//W3C//DTD SVG 1.1//EN" "http://www.w3.org/Graphics/SVG/1.1/DTD/svg11.dtd" >
<svg xmlns="http://www.w3.org/2000/svg" xmlns:xlink="http://www.w3.org/1999/xlink" version="1.1" viewBox="-10 0 1010 1000">
   <path fill="currentColor"
d="M544 0q6 22 13 53q4 24 8 39h260q46 -1 84 -8q-8 41 -8 79q1 57 8 95h-94q9 -40 10 -103h-656q1 49 8 95h-88q5 -32 6 -87q1 -56 -6 -77q36 6 86 6h299q-11 -43 -34 -82zM216 215q40 5 80 6h389q29 -1 79 -8q-6 44 -6 83v139q0 16 4 46q1 15 2 23q-56 -8 -76 -8h-202
q-24 30 -48 66h383q47 0 119 -10v85q-53 -9 -113 -10h-121q-27 45 -65 92q-16 19 -14 21q8 3 41 12q136 41 211 66q-47 53 -58 75q-112 -56 -259 -101q-207 104 -425 103q-10 -47 -48 -75q226 3 377 -56l-39 -9q-146 -36 -201 -42q90 -90 78 -90h-123q-71 0 -133 10v-83
q70 9 133 10h168l42 -64h-95q-45 0 -78 6q5 -23 6 -73v-131q-1 -63 -8 -83zM302 284v52h377v-52h-377zM302 391v56h377v-56h-377zM623 627h-230q-17 17 -44 50q65 11 164 35q21 5 31 7q52 -42 79 -92z" />
</svg>
