<?xml version="1.0" standalone="no"?>
<!DOCTYPE svg PUBLIC "-//W3C//DTD SVG 1.1//EN" "http://www.w3.org/Graphics/SVG/1.1/DTD/svg11.dtd" >
<svg xmlns="http://www.w3.org/2000/svg" xmlns:xlink="http://www.w3.org/1999/xlink" version="1.1" viewBox="-10 0 1034 1024">
  <g transform="matrix(1 0 0 -1 0 820)">
   <path fill="currentColor"
d="M100 631q3 -84 4 -86l-4 -81q-1 -4 -1 -9h49q-4 37 -5 75v72h742l-3 -127q0 -6 -2 -13h49q-4 19 -5 50l-1 54q0 12 3 37l3 40q-37 -1 -75 -5l-695 1q-19 3 -60 4q0 -6 1 -12zM498 355l-236 1q-9 1 -52 5q4 -67 5 -99l-1 -394q-1 -3 -1 -8q0 -21 -3 -36h50q-6 31 -6 75
v130h521v-103q0 -30 -23 -38q-13 -3 -39 -4q-25 0 -54 6q13 -30 20 -48q54 3 78 8q57 13 57 78l1 376q1 28 5 57l-75 -6h-208v144q0 10 3 27q1 16 11 38h-58q1 -33 5 -66v-143zM254 65v107h521v-107h-521zM254 208v111h521v-111h-521zM225 506q18 -7 32 -16l39 -25
q42 -28 79 -68q18 27 29 37q-43 39 -151 111q-18 -27 -28 -39zM422 742q75 -33 143 -96q9 18 27 40q-30 21 -65 44q-3 0 -9 5q-27 19 -65 43q-9 -15 -31 -36zM714 438q6 6 13 12q34 36 52 47q12 9 45 20l-25 17q-9 9 -24 22q-78 -88 -152 -139q18 -10 37 -26q10 9 23 22
q15 13 31 25v0z" />
  </g>

</svg>
