<?xml version="1.0" standalone="no"?>
<!DOCTYPE svg PUBLIC "-//W3C//DTD SVG 1.1//EN" "http://www.w3.org/Graphics/SVG/1.1/DTD/svg11.dtd" >
<svg xmlns="http://www.w3.org/2000/svg" xmlns:xlink="http://www.w3.org/1999/xlink" version="1.1" viewBox="-10 0 1034 1024">
  <g transform="matrix(1 0 0 -1 0 820)">
   <path fill="currentColor"
d="M634 256q43 -105 84 -161q64 -87 181 -173q30 24 55 36q-54 24 -84 45q-27 18 -65 56q-51 51 -80 96q-25 40 -60 123q21 19 43 33l33 27q13 9 28 22q24 16 57 28q-39 25 -56 41q-76 -93 -218 -187q-40 97 -124 161q31 30 58 61l246 -1q24 0 42 -5v47q-55 -4 -66 -5
l-456 1q-19 1 -31 4v-47q24 6 68 6h145q-36 -36 -70 -62q-27 -21 -79 -50q-51 -27 -91 -45q-40 -13 -85 -23q28 -22 40 -42q75 31 130 59q51 30 120 78q30 -25 52 -49q-151 -150 -348 -226q31 -13 50 -31q18 9 36 20q79 42 135 81q66 48 153 123q27 -39 40 -89
q-54 -48 -110 -93q-24 -19 -49 -37t-38 -24q-75 -45 -119 -65q-45 -19 -118 -40q33 -21 50 -41q120 57 204 112q87 58 191 146q7 -48 8 -62l1 -61q0 -69 -12 -101q-9 -30 -43 -44q-25 -9 -81 -10q-18 0 -45 3q18 -30 26 -52q19 0 36 3q54 4 87 18q40 18 57 58q15 39 15 130
q0 79 -15 160zM112 569q0 -36 -5 -76h49q-4 27 -5 74v39h700v-35q0 -39 -5 -75h49q-4 24 -5 74q1 39 5 78q-16 -1 -31 -3q-25 -3 -35 -3h-258q24 27 28 32q-4 4 -8 7q-9 6 -17 12l-113 79q-15 -18 -36 -37q19 -9 34 -17q9 -3 39 -25q39 -27 63 -51l-409 1q-3 0 -45 5
q1 -30 5 -62v-17z" />
  </g>

</svg>
