<?xml version="1.0" standalone="no"?>
<!DOCTYPE svg PUBLIC "-//W3C//DTD SVG 1.1//EN" "http://www.w3.org/Graphics/SVG/1.1/DTD/svg11.dtd" >
<svg xmlns="http://www.w3.org/2000/svg" xmlns:xlink="http://www.w3.org/1999/xlink" version="1.1" viewBox="-10 0 1010 1000">
   <path fill="currentColor"
d="M200 233q79 9 181 9h304q90 0 128 -5v77q-56 -6 -123 -6h-367h-43l-6 196h496q67 0 115 -8v80q-45 -6 -107 -6h-203q25 58 68 113q65 -35 135 -91q13 8 39 23q50 27 44 30q-2 3 -12 4q-21 5 -39 14q-3 1 -14 7q-69 35 -106 53q93 54 252 81q-44 36 -65 85
q-290 -75 -375 -319h-97v220q69 -30 153 -69q-10 38 -4 87q-144 40 -235 101q-9 -28 -31 -62q-4 -7 -6 -11q54 -37 51 -54v-212h-63q-32 170 -143 315q-28 -19 -72 -39q-9 -4 -13 -6q153 -134 160 -391q2 -144 -2 -216zM313 369q40 3 112 4h212q106 0 137 -6v76
q-44 -6 -117 -6h-222q-83 0 -122 6v-74zM542 -21q17 44 37 109h252q60 -1 90 -4q-5 20 -4 73v44q0 48 8 73h-102q0 -4 2 -14q6 -40 6 -105h-170h-435h-53q0 73 4 109h-98q6 -36 6 -87v-28q0 -48 -4 -69q54 8 141 8h258q-26 -66 -42 -96z" />
</svg>
