<?xml version="1.0" standalone="no"?>
<!DOCTYPE svg PUBLIC "-//W3C//DTD SVG 1.1//EN" "http://www.w3.org/Graphics/SVG/1.1/DTD/svg11.dtd" >
<svg xmlns="http://www.w3.org/2000/svg" xmlns:xlink="http://www.w3.org/1999/xlink" version="1.1" viewBox="-10 0 1034 1024">
  <g transform="matrix(1 0 0 -1 0 820)">
   <path fill="currentColor"
d="M45 178q28 -24 46 -45q105 37 170 73q70 37 126 81q49 39 120 111q159 -184 441 -245q18 36 36 54q-120 3 -232 58q-136 66 -218 160q7 12 26 20q-34 9 -61 23q-48 -87 -151 -163q-153 -112 -303 -127zM125 663q6 -66 6 -91q0 -58 -3 -86l-3 -16h51q-1 6 -3 23
q-3 54 -3 80v48h671v-63q0 -42 -5 -78h49q-6 42 -6 107l6 76q-33 -1 -65 -5h-255q9 15 26 35q-21 16 -69 46q-51 33 -76 46q-13 -27 -25 -42q61 -24 139 -85l-388 1q-19 3 -47 4zM180 416q27 -19 45 -37q84 52 156 110q25 22 60 34q-39 24 -54 37q-33 -46 -106 -98
q-54 -33 -101 -46zM775 192q-33 -1 -66 -5l-412 1q-19 3 -51 4q1 -34 5 -71l-1 -241q-1 -3 -1 -8q0 -21 -3 -38h49q-6 31 -6 79v10h442v-19q0 -36 -4 -60h48q-3 39 -5 78l1 220q0 22 4 50zM289 -42v192h442v-192h-442zM599 521q33 -12 80 -42q81 -51 120 -89q12 21 28 38
q-34 28 -98 70q-48 30 -106 61q-9 -19 -24 -38v0z" />
  </g>

</svg>
