<?xml version="1.0" standalone="no"?>
<!DOCTYPE svg PUBLIC "-//W3C//DTD SVG 1.1//EN" "http://www.w3.org/Graphics/SVG/1.1/DTD/svg11.dtd" >
<svg xmlns="http://www.w3.org/2000/svg" xmlns:xlink="http://www.w3.org/1999/xlink" version="1.1" viewBox="-10 0 1010 1000">
   <path fill="currentColor"
d="M546 10q10 30 21 68q6 22 10 34h266q51 0 90 -6q-6 31 -6 67v20q0 19 6 48q1 9 2 13h-100q4 -28 4 -79h-670q-3 33 4 69h-96q8 -29 8 -57v-16q0 -34 -6 -65q31 6 76 6h325q-7 -30 -40 -84zM353 203q89 -2 97 8q2 5 -4 15q-13 24 -13 56h142q0 -43 -8 -73q66 0 79 1
q18 2 19 7q1 4 -4 11q-14 19 -14 54h97q68 0 117 -8v80q-22 -8 -115 -8h-99v83h43q50 0 92 -6q-6 33 -6 79v96q0 67 8 87h-94q6 -24 6 -109v-84h-410v86q0 69 6 105h-94q8 -55 8 -95v-78q0 -49 -6 -87q49 6 82 6h79v-83h-109q-84 0 -109 8v-80q44 8 109 8h109q0 -43 -8 -79z
M433 346v83h142v-83h-142zM544 536q3 9 -7 19q-20 24 -29 62q-31 227 -401 270l-53 -91q201 9 287 -56q93 -66 97 -220q97 0 106 16zM520 615q86 1 95 14q1 5 -4 15q-18 39 -10 108q3 33 12 42q11 11 40 12q115 5 145 -10q23 -4 29 -86q2 -22 4 -35q3 -1 9 7q25 35 83 53
q-4 12 -12 33q-25 86 -56 97q-25 13 -128 16q-104 1 -158 -10q-49 -7 -45 -53v-90v-43q-1 -25 -4 -70z" />
</svg>
