<?xml version="1.0" standalone="no"?>
<!DOCTYPE svg PUBLIC "-//W3C//DTD SVG 1.1//EN" "http://www.w3.org/Graphics/SVG/1.1/DTD/svg11.dtd" >
<svg xmlns="http://www.w3.org/2000/svg" xmlns:xlink="http://www.w3.org/1999/xlink" version="1.1" viewBox="-10 0 1010 1000">
   <path fill="currentColor"
d="M538 0q19 46 31 102h241q52 -1 105 -10q-7 30 -8 73q0 48 8 89h-100q9 -41 10 -79h-648q0 18 6 74q1 11 2 17h-94q9 -59 8 -95q0 -44 -8 -79q59 9 109 10h276q-5 -36 -36 -86zM252 201q5 1 14 4q100 29 93 30q0 1 -4 4q-16 10 -24 25q-8 16 -25 49q-20 42 -32 64v391
q2 78 12 119h-96q10 -36 10 -115v-266q-39 70 -85 125q-20 -27 -73 -53q162 -151 210 -377zM339 282q75 8 125 8h357q33 1 112 -10v85q-69 -9 -110 -9h-176l-40 99h145q33 0 95 -8q-10 47 -10 89v226q0 33 10 115h-93q5 -30 6 -59h-300q0 9 4 35q3 16 4 26h-97
q9 -52 10 -103v-240q-1 -60 -8 -89q53 8 111 8h60l19 -99h-97q-42 0 -127 7v-81zM758 514h-300v90h300v-90zM758 663h-300v95h300v-95z" />
</svg>
