<?xml version="1.0" standalone="no"?>
<!DOCTYPE svg PUBLIC "-//W3C//DTD SVG 1.1//EN" "http://www.w3.org/Graphics/SVG/1.1/DTD/svg11.dtd" >
<svg xmlns="http://www.w3.org/2000/svg" xmlns:xlink="http://www.w3.org/1999/xlink" version="1.1" viewBox="-10 0 1034 1024">
  <g transform="matrix(1 0 0 -1 0 820)">
   <path fill="currentColor"
d="M481 198q0 -45 -10 -85q-22 -87 -114 -148q-78 -51 -170 -72q-24 -4 -50 -9q-27 -3 -69 -6q28 -24 44 -47q76 18 130 35q43 13 86 35q163 88 186 236q7 43 11 51q4 12 24 32q-39 3 -68 8v-30zM114 645q1 -28 5 -58q0 -69 -3 -98q-1 -7 -3 -18h51q-6 30 -6 75v70h727
l-3 -125q-1 -4 -2 -9h49q-4 19 -5 49l-1 53l6 73l-68 -6h-255q3 9 11 17q3 3 7 8q-1 1 -164 97q-7 -15 -27 -42q81 -33 147 -80l-411 1q-24 4 -56 5q0 -6 1 -12zM379 494h-104q-43 0 -67 5v-47q6 1 59 6h112v-16q0 -40 -5 -76h50q-6 75 -6 92h202v-13q0 -40 -5 -75h49
q-4 28 -5 74v14q111 0 133 -2q16 0 35 -4v47q-18 -1 -20 -2q-24 -1 -35 -3h-113q0 54 3 60q1 12 12 29h-59q4 -21 5 -67v-22h-202v23q0 36 15 66h-59q3 -12 3 -28q1 -25 2 -61zM246 135q-1 -19 -2 -41q-1 -46 -6 -76h51q-6 22 -6 75v205h473v-183q0 -45 -6 -77h50
q-4 27 -5 75l1 166q0 27 4 60q-39 -1 -78 -5l-430 1q-19 3 -52 4q6 -78 6 -106v-98zM601 73q0 36 16 65h-61q6 -21 6 -67v-99q0 -72 43 -87q36 -9 79 -10h95q48 0 96 16q46 18 73 92q6 21 14 45q-24 9 -45 24l-10 -70q-7 -24 -22 -41q-18 -18 -53 -24q-31 -6 -126 -6
q-51 0 -73 8q-31 9 -32 53v101z" />
  </g>

</svg>
