<?xml version="1.0" standalone="no"?>
<!DOCTYPE svg PUBLIC "-//W3C//DTD SVG 1.1//EN" "http://www.w3.org/Graphics/SVG/1.1/DTD/svg11.dtd" >
<svg xmlns="http://www.w3.org/2000/svg" xmlns:xlink="http://www.w3.org/1999/xlink" version="1.1" viewBox="-10 0 1010 1000">
   <path fill="currentColor"
d="M554 -2q17 62 25 108h250q45 -1 96 -8q-3 15 -4 49q-1 18 -2 26q0 52 6 87h-96q7 -30 8 -83h-649q4 63 10 93h-97q7 -40 8 -87q0 -28 -8 -85q50 7 87 8h304q-12 -46 -42 -94zM252 225q97 1 99 10q-16 27 -16 75h32q36 0 109 -8v83q-54 -8 -109 -8h-32v84h80q34 1 105 -8
v81q-2 0 -6 -1q-65 -7 -97 -7h-54v292q11 72 -143 81q-3 -59 -33 -103q108 32 99 -38v-232h-107q-57 0 -110 8v-81q58 8 110 8h81v-157q-1 -52 -8 -79zM526 288q45 10 107 10h123q39 0 89 -6q-20 254 -111 397q73 69 212 101q-45 53 -61 89q-129 -58 -198 -129
q-81 85 -193 147q-29 -42 -81 -73q140 -40 224 -137q-67 -124 -93 -302l57 -20q-37 4 -75 10v-87zM440 580q14 10 63 59q38 37 60 58l-67 53q-51 -70 -113 -123zM153 582q5 2 14 6q48 19 73 27q-41 52 -109 207q-39 -24 -77 -32q54 -68 99 -208zM619 365q21 169 66 266
q54 -103 73 -266h-139z" />
</svg>
