<?xml version="1.0" standalone="no"?>
<!DOCTYPE svg PUBLIC "-//W3C//DTD SVG 1.1//EN" "http://www.w3.org/Graphics/SVG/1.1/DTD/svg11.dtd" >
<svg xmlns="http://www.w3.org/2000/svg" xmlns:xlink="http://www.w3.org/1999/xlink" version="1.1" viewBox="-10 0 1034 1024">
  <g transform="matrix(1 0 0 -1 0 820)">
   <path fill="currentColor"
d="M404 32q-75 -63 -168 -107q-61 -27 -133 -41q30 -24 40 -44q93 30 220 108q33 21 49 28q12 6 36 10q-27 24 -44 46zM115 655q6 -60 6 -99t-4 -75l-2 -12h52q-6 33 -7 75v72h707v-60q0 -45 -6 -77h50q-4 24 -5 75l5 101q-37 -1 -75 -5l-667 1q-19 3 -54 4zM494 393l-233 1
q-19 3 -58 4l6 -76l-1 -220q-1 -6 -5 -54v-3q64 4 78 5l502 -1l50 -4q-3 39 -5 80l1 219l4 54q-34 -1 -70 -5h-233v96l227 -1q21 0 42 -5v47q-55 -4 -67 -5l-455 1q-19 1 -31 4v-47q24 6 67 6h181v-96zM246 86v127h248v-127h-248zM246 248v109h248v-109h-248zM530 248v109
h259v-109h-259zM530 86v127h259v-127h-259zM872 -90l-102 51q-42 18 -80 37q-21 10 -54 25q-10 -19 -27 -41q81 -30 98 -38q25 -9 96 -45q24 -10 72 -39q7 -3 31 -22q12 28 24 43zM438 736q48 -21 71 -37q24 -15 62 -47q6 9 16 21q3 4 11 14l-149 98q-7 -18 -28 -41
q7 -3 17 -8v0z" />
  </g>

</svg>
