<?xml version="1.0" standalone="no"?>
<!DOCTYPE svg PUBLIC "-//W3C//DTD SVG 1.1//EN" "http://www.w3.org/Graphics/SVG/1.1/DTD/svg11.dtd" >
<svg xmlns="http://www.w3.org/2000/svg" xmlns:xlink="http://www.w3.org/1999/xlink" version="1.1" viewBox="-10 0 1034 1024">
  <g transform="matrix(1 0 0 -1 0 820)">
   <path fill="currentColor"
d="M376 277q-27 -42 -50 -64q-3 -6 -48 -50q-3 0 -4 -3q-54 -43 -58 -46q-85 -60 -164 -79q31 -18 47 -36q111 57 182 117q72 61 146 161h178q24 -39 43 -62q40 -45 111 -94q39 -27 79 -46q46 -21 117 -50q7 12 15 19q9 9 30 28q-54 1 -127 33q-72 30 -130 75q-63 48 -92 97
h228q25 -1 47 -3q1 0 20 -2v46q-18 -1 -20 -2q-24 -1 -36 -3h-238v71l125 -3q4 0 12 -3v47q-61 -4 -100 -5h-37v77l137 -3q3 0 14 -4v48q-18 -1 -20 -2q-42 -3 -69 -4h-62q0 45 15 73h-60q3 -12 5 -34l1 -39h-209q0 9 -1 20q0 25 15 53h-60q3 -12 4 -34q0 -21 2 -39h-82
q-33 0 -67 6v-48q12 3 20 4q19 0 47 3h82v-77h-66q-45 0 -68 5v-47q24 6 68 6h66v-71h-207q-43 0 -67 5v-46q-1 0 10 1l57 4h219zM404 313v71h209v-71h-209zM404 420v77h209v-77h-209zM126 671q1 -42 5 -84q0 -42 -5 -72h49q-4 24 -5 75v40h697v-35q0 -42 -5 -76h49
q-4 27 -5 75q1 39 5 77q-33 -1 -68 -5h-272q10 10 23 19q-66 45 -147 96q-12 -15 -35 -34q69 -27 139 -81l-374 1q-19 3 -51 4zM334 31q-10 -16 -29 -41q60 -16 90 -29l98 -40q37 -15 87 -43q51 -27 84 -50q9 25 19 37q0 1 5 6l-139 68l-124 53zM431 193q-9 -16 -29 -39
q150 -51 216 -98q12 27 23 42q-96 45 -112 51q-87 39 -98 44v0z" />
  </g>

</svg>
