<?xml version="1.0" standalone="no"?>
<!DOCTYPE svg PUBLIC "-//W3C//DTD SVG 1.1//EN" "http://www.w3.org/Graphics/SVG/1.1/DTD/svg11.dtd" >
<svg xmlns="http://www.w3.org/2000/svg" xmlns:xlink="http://www.w3.org/1999/xlink" version="1.1" viewBox="-10 0 1010 1000">
   <path fill="currentColor"
d="M546 -8q4 11 16 56q9 31 13 44h147q141 0 203 -8q-3 20 -3 37q-1 13 -1 50q0 56 4 91h-68q-67 122 -133 201q83 48 232 75q-26 26 -55 85q-205 -66 -270 -154v51q-29 -4 -129 -6q-44 -2 -109 3q-9 1 -14 1v-39q-50 61 -133 109h387q73 0 102 -1q35 -1 55 -3v77
q-66 -7 -157 -8h-83v189q7 57 -137 63q0 -44 -32 -89q96 15 93 -22v-141h-107q-50 0 -78 1q-31 1 -59 3v-59q-67 41 -131 65q-18 -43 -57 -75q109 -25 188 -74q-17 -28 -45 -55l37 -36q36 45 48 65q33 -26 59 -55q-29 -25 -61 -50l38 -37q46 39 55 53q38 -53 56 -95h-123
q-17 14 -63 61q-64 62 -96 90q-24 -39 -70 -56q156 -105 219 -220q93 14 89 24q-2 5 -8 9q-13 9 -26 28q107 0 175 -5q10 0 6 9q-38 86 -113 201q30 6 69 6h52q50 0 87 -6q-52 -84 -81 -216q56 3 168 4h123q3 -36 6 -74h-646q0 47 5 105h-101q6 -40 6 -93q0 -60 -2 -89
q74 9 220 10h177q-13 -33 -46 -86zM756 296h-137q29 90 62 127q52 -71 75 -127zM329 683l72 52q-128 87 -252 150q-23 -39 -74 -63q144 -50 254 -139zM663 693q141 65 234 133l-68 73q-114 -96 -218 -145z" />
</svg>
