<?xml version="1.0" standalone="no"?>
<!DOCTYPE svg PUBLIC "-//W3C//DTD SVG 1.1//EN" "http://www.w3.org/Graphics/SVG/1.1/DTD/svg11.dtd" >
<svg xmlns="http://www.w3.org/2000/svg" xmlns:xlink="http://www.w3.org/1999/xlink" version="1.1" viewBox="-10 0 1034 1024">
  <g transform="matrix(1 0 0 -1 0 820)">
   <path fill="currentColor"
d="M460 53q-24 -36 -50 -61q-51 -43 -117 -68q-57 -22 -106 -31q-43 -7 -90 -8q-12 0 -31 2q25 -30 40 -53q120 24 180 44q60 21 115 56q39 27 61 51q18 21 45 72q48 -54 93 -88q37 -28 102 -58q45 -18 86 -31q21 -6 55 -13q36 -7 82 -16q10 22 38 52q-81 1 -133 11
q-48 7 -111 33q-48 21 -78 40q-33 24 -80 66l322 -1q27 0 47 -5v47q-55 -4 -66 -5h-349q1 12 5 23q6 25 11 51l218 -1q12 0 26 -3q6 0 23 -2q-4 64 -5 125q0 81 2 96q0 22 3 46q-33 -1 -65 -5h-96v78l142 -1l40 -4q4 0 8 -2v49q-10 -1 -34 -4q-18 0 -34 -3h-122q0 49 13 76
h-58q0 -12 2 -25q0 -24 3 -51h-176q1 51 13 75h-58q4 -34 5 -70v-3h-124q-42 0 -68 5v-49q6 3 21 4q39 3 47 3h124v-78q-90 0 -113 2q-6 3 -40 3q1 -36 5 -75l-1 -137q-3 -19 -4 -55q42 6 65 6h197q-12 -57 -18 -75l-326 1q-45 0 -68 5v-47q36 6 62 6h320zM271 314v69h484
v-69h-484zM271 199v79h484v-79h-484zM421 419v78h176v-78h-176zM118 567q0 -30 -5 -76h47q-4 63 -5 93v44h704q0 -75 -2 -103q-1 -3 -1 -10t-3 -17h49q-6 21 -6 99q0 13 3 38q0 -1 2 14q0 6 1 20q-49 -4 -66 -5h-266q9 19 22 34q-13 6 -30 16q-25 13 -51 26q-43 21 -88 46
q-10 -19 -29 -44q33 -12 70 -27q42 -18 90 -51l-395 1q-3 0 -46 4q1 -33 5 -68v-34z" />
  </g>

</svg>
