<?xml version="1.0" standalone="no"?>
<!DOCTYPE svg PUBLIC "-//W3C//DTD SVG 1.1//EN" "http://www.w3.org/Graphics/SVG/1.1/DTD/svg11.dtd" >
<svg xmlns="http://www.w3.org/2000/svg" xmlns:xlink="http://www.w3.org/1999/xlink" version="1.1" viewBox="-10 0 1034 1024">
  <g transform="matrix(1 0 0 -1 0 820)">
   <path fill="currentColor"
d="M328 177q-93 -93 -178 -131q-45 -19 -93 -24q21 -19 36 -45q87 30 179 98v-25q60 6 94 6h37q-6 -24 -11 -39q-12 -33 -37 -63q-49 -55 -131 -73q-27 -6 -45 -7h-15q19 -19 37 -47q141 40 197 120q28 45 48 109h243q0 -76 -6 -112q-6 -30 -21 -39q-24 -12 -70 -12
q-30 0 -70 9q18 -46 19 -55q18 0 43 3q63 3 79 8q54 15 62 98q1 33 4 64q3 22 4 44l3 29q100 -61 208 -100q10 21 37 44q-70 15 -141 47q-45 21 -78 42q-24 15 -65 51h182q36 0 62 -5v41q-24 -4 -62 -5h-119l1 207q1 27 5 54q-69 -4 -76 -5h-182q6 28 14 56h203q22 0 46 -3
q3 0 17 -2v41q-45 -4 -63 -5l-460 1q-10 1 -19 2q-4 0 -21 2v-41q-3 0 9 1q4 0 49 4h195q-7 -27 -14 -56h-143q-12 0 -41 3q-15 0 -36 2l6 -74v-187l-164 3q-4 1 -11 2v-41q3 0 59 5h194zM288 380v53h433v-53h-433zM288 208v59h433v-59h-433zM288 296v56h433v-56h-433z
M383 177h257l36 -35q19 -18 57 -48q-36 -1 -72 -5h-326q-6 0 -43 4q27 21 43 36zM187 652q-48 6 -72 6q1 -40 5 -82q-3 -63 -5 -73h49q-3 12 -3 21q-3 54 -3 95h700q-3 -93 -5 -112h49q0 4 -3 9q-3 75 -3 80q0 9 2 22q1 15 4 40q-66 -6 -86 -6h-253q15 27 25 40l-30 19
l-48 31q-21 13 -55 34q-15 -25 -28 -40q27 -10 50 -24q30 -18 71 -49l14 -11h-375z" />
  </g>

</svg>
