<?xml version="1.0" standalone="no"?>
<!DOCTYPE svg PUBLIC "-//W3C//DTD SVG 1.1//EN" "http://www.w3.org/Graphics/SVG/1.1/DTD/svg11.dtd" >
<svg xmlns="http://www.w3.org/2000/svg" xmlns:xlink="http://www.w3.org/1999/xlink" version="1.1" viewBox="-10 0 1034 1024">
  <g transform="matrix(1 0 0 -1 0 820)">
   <path fill="currentColor"
d="M156 651l-44 4q-10 1 -21 2q1 -19 2 -32q3 -24 3 -82q-1 -18 -3 -38q0 -15 -2 -23h48q-6 72 -5 110v25h741q-3 -102 -5 -123h47q-4 60 -5 108q0 21 5 55l-70 -6h-288q9 15 25 28q-66 46 -144 91q-7 -15 -28 -40q78 -37 128 -79h-384zM454 337q-43 -31 -95 -65
q-54 -33 -88 -49q-142 -64 -229 -78q27 -24 38 -40q117 39 205 84q66 33 120 67q51 31 99 67q63 -51 158 -99q97 -48 180 -71l107 -29q6 18 30 44q1 3 6 7q-76 0 -184 34q-156 48 -268 136l24 8q-27 18 -44 36q-22 -24 -47 -44q-3 36 -4 101l5 111q-31 -1 -63 -5l-164 1
q-27 3 -26 2q-3 0 -19 2v-46q15 4 40 5l190 1v-128q-190 -37 -211 -41l-46 -5q18 -39 18 -44q19 6 40 10q72 24 89 26l45 10q31 7 65 14q-1 -10 -2 -22h31zM494 178q16 10 35 21q24 12 55 19q-27 21 -48 46q-13 -15 -23 -24q-15 -12 -45 -32q-49 -36 -140 -78
q-73 -31 -133 -44q27 -21 39 -35q73 27 125 52q46 21 93 49zM636 184q-34 -33 -55 -47q-30 -21 -77 -48q-84 -46 -168 -77q-66 -21 -124 -31q21 -15 40 -35q108 34 187 68q66 30 169 93q42 25 74 31q-28 24 -46 46zM354 437q-9 3 -20 9q-9 4 -21 9l-78 27q-4 -15 -18 -38
q49 -10 119 -46zM809 560q-30 -1 -59 -5l-212 3q-4 1 -11 2v-45q57 4 81 5h158v-111q-33 -9 -153 -36q-3 0 -47 -10q15 -18 31 -36q1 0 29 10q25 9 53 16q43 12 87 26l-2 -58q0 -13 -3 -20h48q-1 15 -2 21q-3 51 -3 77q0 114 2 124q0 15 3 37zM672 452l-52 21l-49 15
q-7 -18 -18 -39q78 -18 124 -47q4 24 16 42q-10 4 -21 8zM361 -132q57 18 104 35q97 37 194 90l86 51q30 15 68 26q-31 24 -51 42q-99 -88 -282 -161q-93 -37 -156 -54q-61 -15 -119 -19q24 -21 42 -45q3 0 7 3q6 0 25 9q40 12 82 23v0z" />
  </g>

</svg>
