<?xml version="1.0" standalone="no"?>
<!DOCTYPE svg PUBLIC "-//W3C//DTD SVG 1.1//EN" "http://www.w3.org/Graphics/SVG/1.1/DTD/svg11.dtd" >
<svg xmlns="http://www.w3.org/2000/svg" xmlns:xlink="http://www.w3.org/1999/xlink" version="1.1" viewBox="-10 0 1010 1000">
   <path fill="currentColor"
d="M538 -15q2 10 7 25q8 27 15 54h257q44 -1 106 -8q-8 37 -8 83t8 82h-98q8 -63 8 -96h-674q0 27 7 87q1 7 1 11h-88q7 -36 8 -96q0 -33 -10 -71q59 7 111 8h282q-11 -37 -32 -70zM204 165q3 0 9 1q71 7 91 7h381q32 0 105 -8v73q-26 -8 -107 -11h-155q-9 16 -22 49h184
q24 0 96 -8q-8 53 -8 80v196h55q51 -1 107 -10v76q-54 -8 -103 -8h-149q105 89 266 103q-42 44 -51 83q-93 -31 -159 -71q-2 9 -4 26q-16 100 -32 113q-30 35 -150 43q-1 -48 -38 -91q68 20 105 4q23 -7 40 -91h-181q-20 78 -73 115q-66 48 -215 75q-10 -40 -43 -77
q125 -2 168 -28q77 -35 88 -85h-20q-46 0 -105 8v-40q-99 69 -197 105q-24 -44 -59 -71q142 -20 289 -121h-134q-53 1 -125 10v-74q57 8 117 8h41v-206q-1 -46 -8 -72q60 8 86 8h144l8 -49h-140q-50 0 -102 8v-70zM290 328v45h412v-45h-412zM704 413h-414v46h414v-46z
M704 500h-414v46h414v-46zM617 602h-226q-36 32 -76 59q41 6 74 6h290q-39 -29 -62 -65z" />
</svg>
