<?xml version="1.0" standalone="no"?>
<!DOCTYPE svg PUBLIC "-//W3C//DTD SVG 1.1//EN" "http://www.w3.org/Graphics/SVG/1.1/DTD/svg11.dtd" >
<svg xmlns="http://www.w3.org/2000/svg" xmlns:xlink="http://www.w3.org/1999/xlink" version="1.1" viewBox="-10 0 1010 1000">
   <path fill="currentColor"
d="M798 183q-6 27 -6 55v80q0 48 2 61q-2 0 -7 -1q-42 -5 -85 -5h-402q-42 0 -58 1q-19 1 -30 3q4 -26 4 -81v-56q0 -20 -5 -48q-1 -6 -1 -9q33 3 107 4h385q57 -1 96 -4zM397 240h-113v80h113v-80zM452 240v80h111v-80h-111zM619 240v80h105v-80h-105zM83 405q36 3 133 4
h90h515q77 0 104 -6v68q-3 0 -10 -1q-41 -5 -94 -5h-468h-143q-60 0 -82 1q-28 1 -45 3v-64zM798 498q-8 41 -8 68v51l2 58q12 11 33 26q27 19 22 22q-1 2 -12 4q-59 12 -147 51q122 39 254 44q-41 44 -57 91q-302 -63 -399 -252q-9 5 -42 26q-54 35 -85 53v82
q85 -36 143 -76q-1 35 14 80q-150 59 -212 99q-6 -8 -14 -21q-14 -24 -28 -37q18 -20 23 -36t5 -53q-5 2 -15 7q-143 62 -172 73q-23 -45 -61 -82q157 -25 345 -113h-81q-37 0 -82 7q-4 1 -6 1q0 -4 1 -11q3 -22 3 -45v-57q0 -39 -4 -60q25 3 82 4h204h198q57 -1 96 -4z
M298 554v58h262h154v-58h-416zM562 663q1 2 4 5q37 48 71 74q61 -23 137 -71q-54 -9 -89 -8h-123zM538 -35l33 113h217q86 0 129 -6q-8 24 -8 57v30q-1 57 4 72h-96q8 -31 8 -88h-496h-156q0 45 1 63q1 22 3 36h-94q6 -24 6 -65v-42q0 -38 -4 -65q38 9 111 8h282
q-18 -41 -45 -91z" />
</svg>
