<?xml version="1.0" standalone="no"?>
<!DOCTYPE svg PUBLIC "-//W3C//DTD SVG 1.1//EN" "http://www.w3.org/Graphics/SVG/1.1/DTD/svg11.dtd" >
<svg xmlns="http://www.w3.org/2000/svg" xmlns:xlink="http://www.w3.org/1999/xlink" version="1.1" viewBox="-10 0 1034 1024">
  <g transform="matrix(1 0 0 -1 0 820)">
   <path fill="currentColor"
d="M726 203h-589q-19 0 -66 6v-48q15 3 21 4q21 1 45 3h589v-215q0 -27 -10 -39q-15 -18 -57 -18q-39 0 -97 7q13 -25 20 -52q48 1 80 5q54 6 79 24q22 18 23 62v226l175 -3q7 -1 16 -4v48q-15 -3 -38 -4l-2 -1l-151 -1q0 60 3 70q1 12 10 26h-56q4 -54 5 -92v-4zM202 421
q0 -40 20 -61q22 -21 85 -26q84 -3 192 -4l242 3q82 3 117 12q42 12 67 60q10 22 21 60q-25 15 -47 35q-3 -42 -8 -65q-9 -37 -41 -50q-24 -9 -87 -12q-57 -3 -100 -4l-312 1q-66 6 -82 10q-9 3 -13 6q-16 12 -17 55v71l547 -1l51 -5q-6 72 -6 91q0 78 2 92q0 9 4 42
q-69 -4 -72 -5l-518 1q-3 0 -50 4q1 -34 5 -70v-240zM239 548v142h554v-142h-554zM281 98q48 -30 84 -67q48 -45 73 -87q21 21 39 35q-79 87 -163 155q-15 -19 -33 -36v0z" />
  </g>

</svg>
