<?xml version="1.0" standalone="no"?>
<!DOCTYPE svg PUBLIC "-//W3C//DTD SVG 1.1//EN" "http://www.w3.org/Graphics/SVG/1.1/DTD/svg11.dtd" >
<svg xmlns="http://www.w3.org/2000/svg" xmlns:xlink="http://www.w3.org/1999/xlink" version="1.1" viewBox="-10 0 1034 1024">
  <g transform="matrix(1 0 0 -1 0 820)">
   <path fill="currentColor"
d="M663 548l-561 1q-25 3 -31 5v-48q7 3 28 4q18 1 37 2h527v-550q0 -37 -26 -49q-22 -9 -57 -9q-19 0 -73 8q9 -19 16 -56q19 0 62 3q60 3 84 16q34 21 35 75v562l202 -1q24 0 31 -3q3 0 8 -2v48q-7 -3 -12 -3q-28 -1 -56 -3h-173l1 171q0 6 6 34q0 4 6 12h-59q4 -64 5 -85
v-132zM244 346l84 -85q21 -24 85 -107q1 1 4 6q4 7 20 18q6 4 14 9l-101 116q-39 42 -71 74q-22 -22 -35 -31v0z" />
  </g>

</svg>
