<?xml version="1.0" standalone="no"?>
<!DOCTYPE svg PUBLIC "-//W3C//DTD SVG 1.1//EN" "http://www.w3.org/Graphics/SVG/1.1/DTD/svg11.dtd" >
<svg xmlns="http://www.w3.org/2000/svg" xmlns:xlink="http://www.w3.org/1999/xlink" version="1.1" viewBox="-10 0 1034 1024">
  <g transform="matrix(1 0 0 -1 0 820)">
   <path fill="currentColor"
d="M295 397l-238 5q-1 1 -3 1v-47q39 4 64 5q409 0 424 -2q3 0 8 -2q3 0 7 -1v47q-7 -3 -32 -5l-190 -1v149q81 0 166 -3q1 0 4 -2h5v47q-9 -3 -25 -4q-22 0 -43 -2h-107v114q0 39 13 66h-58q4 -42 5 -81v-99l-176 5q-1 1 -3 1v-47q49 6 80 5h99v-149zM427 -19q51 9 100 20
q16 3 32 7l4 34q1 6 3 16q-21 -9 -69 -22l-64 -15l-96 -18v168q162 0 182 -3l2 -1q3 0 7 -1v47q-3 -3 -11 -3q-31 -3 -56 -3h-124v57q0 36 13 65h-58q1 -42 5 -84v-38l-196 5q-1 1 -2 1v-47q39 4 66 5h132v-175q-75 -15 -142 -25q-66 -9 -88 -7q3 -15 5 -17q9 -28 11 -41
q39 13 94 25zM551 273q64 -57 120 -139q15 21 35 37q-19 21 -36 40l-72 74q-12 16 -34 35q-18 -21 -33 -29q9 -9 20 -18zM766 495l-182 1q-9 1 -28 2q-6 0 -12 3v-47q51 4 86 5h136v-495q0 -48 -25 -59q-24 -9 -67 -9q-27 0 -56 7q10 -21 14 -55q75 4 112 14q63 15 63 83
v514q72 0 148 -3l2 -1q3 0 7 -1v47q-6 -3 -45 -6h-112l1 222q0 12 5 30q1 7 8 14h-60q4 -39 5 -66v-200z" />
  </g>

</svg>
