<?xml version="1.0" standalone="no"?>
<!DOCTYPE svg PUBLIC "-//W3C//DTD SVG 1.1//EN" "http://www.w3.org/Graphics/SVG/1.1/DTD/svg11.dtd" >
<svg xmlns="http://www.w3.org/2000/svg" xmlns:xlink="http://www.w3.org/1999/xlink" version="1.1" viewBox="-10 0 1034 1024">
  <g transform="matrix(1 0 0 -1 0 820)">
   <path fill="currentColor"
d="M116 -96q60 27 101 53q39 25 88 65q91 78 151 153h17v-243q0 -57 -59 -57q-13 0 -70 8q13 -31 19 -54q72 6 91 11q57 15 57 85l1 688q0 18 4 51q-66 -6 -102 -6h-91q6 27 21 62q6 15 12 26q4 7 17 16q-21 1 -33 5q-9 1 -30 6q-3 -27 -10 -59q-9 -36 -17 -56q-57 0 -83 2
q-1 0 -38 4q1 -21 3 -34q3 -27 3 -36v-383l-88 3q-3 1 -13 2v-46q30 4 51 5h286q-69 -90 -165 -155q-99 -66 -191 -87q21 -12 44 -41zM206 505v117h267v-117h-267zM206 211v119h267v-119h-267zM206 365v104h267v-104h-267zM800 771q4 -39 5 -66v-224l-207 1q-7 1 -28 2
q-3 1 -13 2v-47q3 1 7 2q0 3 121 4h120v-488q0 -55 -24 -66q-16 -6 -63 -7q-22 0 -59 7q12 -22 19 -53q3 0 94 10q33 6 49 17q21 22 22 82v498q94 0 105 -3q6 0 16 -3v47l-106 -5h-15v224q0 39 13 66h-56zM576 320q66 -63 121 -162q6 12 14 17l23 16q-31 45 -58 78l-66 84
q-13 -15 -34 -33v0z" />
  </g>

</svg>
