<?xml version="1.0" standalone="no"?>
<!DOCTYPE svg PUBLIC "-//W3C//DTD SVG 1.1//EN" "http://www.w3.org/Graphics/SVG/1.1/DTD/svg11.dtd" >
<svg xmlns="http://www.w3.org/2000/svg" xmlns:xlink="http://www.w3.org/1999/xlink" version="1.1" viewBox="-10 0 1010 1000">
   <path fill="currentColor"
d="M431 -6q103 5 105 16q1 4 -7 13q-9 10 -11 17q-4 19 -8 48q-1 9 -2 12h210q84 -2 185 -12v81q-43 -6 -185 -6h-216q-2 9 -5 26q-7 35 -13 57h177q74 -1 174 -8v84q-67 -7 -168 -8h-197q-3 8 -7 22q-7 22 -19 55h340q68 0 162 -10v82q-25 -4 -75 -7q-45 -2 -73 -1h-54v105
q117 -1 167 -8v85q-69 -7 -165 -8v191q18 65 -163 83q-8 -54 -39 -95q117 15 123 -26v-153h-145q-91 2 -149 8v-85q66 9 145 10h147v-107h-244q-103 198 -284 345l-4 -4q-42 -36 -87 -52q185 -91 287 -289h-103q-105 2 -153 8v-82q56 8 153 10h131q16 -29 30 -77h-85
q-111 3 -159 8v-84q14 3 105 6q37 1 48 2h107q10 -30 18 -83h-153q-102 2 -147 8v-83q23 5 132 11q15 1 21 1h153q5 -82 0 -106zM470 659q30 47 56 105l-74 32q-15 -48 -55 -105z" />
</svg>
