<?xml version="1.0" standalone="no"?>
<!DOCTYPE svg PUBLIC "-//W3C//DTD SVG 1.1//EN" "http://www.w3.org/Graphics/SVG/1.1/DTD/svg11.dtd" >
<svg xmlns="http://www.w3.org/2000/svg" xmlns:xlink="http://www.w3.org/1999/xlink" version="1.1" viewBox="-10 0 1010 1000">
   <path fill="currentColor"
d="M605 -8q80 13 99 28q0 3 -9 9q-39 29 -80 83h137q128 0 161 -10v73q-26 -8 -157 -8h-149v66q114 0 147 -2q44 -2 71 -8q-6 28 -8 60t-2 90v70q0 144 8 167q-16 -6 -73 -6v61h42q111 0 146 -8v85q-36 -9 -144 -9h-42v93q13 73 -169 77q-9 -57 -41 -89q80 12 105 7
q27 -4 26 -31v-55h-449q-140 0 -164 7v-81h1q19 8 163 8h449v-65h-358q-134 0 -164 8q5 -13 7 -43q0 -15 1 -36v-58v-82q1 -146 -10 -168q38 10 166 10h62v-70h-151q-121 0 -163 8v-71q20 8 159 8h322q33 -45 61 -118zM437 165v70h107v-70h-107zM373 290h-145v153h516v-44
h-117q-89 3 -83 -43v-66h-109q2 110 -139 137q-10 -28 -48 -64q113 16 125 -73zM607 290v32q-10 30 46 26h89v-58h-135zM230 492v58h516v-58h-516zM399 842l-80 29q-16 -63 -47 -103l75 -30q34 53 52 104zM284 14l79 -26q31 39 56 90l-80 28q-19 -48 -55 -92z" />
</svg>
