<?xml version="1.0" standalone="no"?>
<!DOCTYPE svg PUBLIC "-//W3C//DTD SVG 1.1//EN" "http://www.w3.org/Graphics/SVG/1.1/DTD/svg11.dtd" >
<svg xmlns="http://www.w3.org/2000/svg" xmlns:xlink="http://www.w3.org/1999/xlink" version="1.1" viewBox="-10 0 1034 1024">
  <g transform="matrix(1 0 0 -1 0 820)">
   <path fill="currentColor"
d="M133 198q-60 3 -67 5v-47q3 0 45 5l364 1q-18 -46 -34 -72q-39 -69 -119 -119q-138 -84 -254 -85q24 -21 41 -48q75 21 149 53q69 30 111 62q96 72 146 197q67 -112 168 -187q87 -67 246 -119q12 21 41 49q-96 6 -214 71q-123 69 -201 198l400 -3q3 0 11 -3v47
q-4 0 -9 -2q-39 0 -80 -3h-349q7 51 15 70q6 19 25 41q-39 3 -66 13q-1 -30 -6 -57q-3 -27 -12 -67h-351zM111 393q22 -9 43 -28l93 119q30 39 52 74q33 51 70 64q-30 18 -61 39q-18 -40 -64 -109q-25 -37 -47 -65q-18 -24 -33 -42q-27 -30 -53 -52zM506 753q4 -39 5 -66
q-3 -319 -5 -341h51q-1 6 -6 64l1 298q0 21 10 37q0 4 3 8h-59zM926 431q3 1 10 8q-34 42 -83 95l-118 123q-19 -22 -35 -35q76 -75 127 -128q39 -43 70 -91q15 18 27 27q0 1 2 1v0z" />
  </g>

</svg>
