<?xml version="1.0" standalone="no"?>
<!DOCTYPE svg PUBLIC "-//W3C//DTD SVG 1.1//EN" "http://www.w3.org/Graphics/SVG/1.1/DTD/svg11.dtd" >
<svg xmlns="http://www.w3.org/2000/svg" xmlns:xlink="http://www.w3.org/1999/xlink" version="1.1" viewBox="-10 0 1034 1024">
  <g transform="matrix(1 0 0 -1 0 820)">
   <path fill="currentColor"
d="M83 -15q12 -12 27 -24q7 6 17 13q15 15 31 29q63 60 129 118q31 31 43 40q9 7 41 17q-24 13 -56 42q-33 -48 -128 -135q-39 -34 -68 -58q-24 -18 -49 -33q6 -4 13 -9zM90 310q10 -9 19 -21q3 -4 6 -10q10 4 17 9l66 30q18 9 36 22q28 18 50 37q78 61 117 151q6 15 17 50
l25 97h254q-42 -129 -45 -136q-6 -19 -16 -38q54 6 82 5h123q-3 -36 -11 -82q-10 -69 -23 -83q-18 -21 -65 -22q-15 0 -26 2q-18 1 -55 9q9 -16 15 -37q1 -7 4 -17q52 0 80 4q21 1 38 6q36 10 50 36q13 27 26 109q7 57 19 116q-33 -1 -65 -5h-131q39 136 42 141l13 31
q-33 -1 -67 -5l-482 1l-26 2l-17 2v-44q9 0 18 2l139 3h80q-25 -201 -163 -286q-76 -46 -157 -66zM550 285q0 39 14 67h-60q4 -21 5 -67v-289q0 -48 -16 -62q-24 -18 -69 -18q-15 0 -64 8q15 -30 20 -56q28 0 46 3q66 6 101 35q22 21 23 84v295zM699 179q63 -57 109 -106
q46 -51 107 -124q19 21 34 36l-21 25l-66 70l-86 90l-45 46q-15 -21 -32 -37v0z" />
  </g>

</svg>
