<?xml version="1.0" standalone="no"?>
<!DOCTYPE svg PUBLIC "-//W3C//DTD SVG 1.1//EN" "http://www.w3.org/Graphics/SVG/1.1/DTD/svg11.dtd" >
<svg xmlns="http://www.w3.org/2000/svg" xmlns:xlink="http://www.w3.org/1999/xlink" version="1.1" viewBox="-10 0 1010 1000">
   <path fill="currentColor"
d="M609 10q108 22 103 30q0 2 -4 6q-31 35 -61 139h129q62 0 119 -6q-7 79 -17 238q-8 127 -13 175q-5 64 -37 84q-31 22 -136 33q-2 -59 -37 -97q130 25 131 -28q16 -141 22 -332h-183l-15 30q-51 103 -90 165q-43 -22 -82 -32q145 -147 171 -405zM216 12q18 2 47 4
q63 4 60 10q1 4 -4 10q-14 18 -17 48q-1 12 -2 59q-1 41 -2 62h117q47 0 95 -8v79q-39 -6 -85 -6v463q-2 43 23 53q22 12 110 10h160q91 1 117 -25q27 -21 32 -110q22 33 75 62q5 3 8 4q-27 104 -59 120q-28 24 -151 22q-85 0 -132 -1q-55 -1 -118 -3q-93 -1 -116 -19
q-26 -14 -23 -72v-504h-55q-1 413 -173 615q-36 -40 -95 -51q191 -108 194 -564h-77q-40 0 -50 1q-11 0 -39 5v-81q45 10 87 10h81q0 -107 -1 -136q-2 -40 -7 -57zM643 350q63 107 83 160l-79 28q-25 -83 -74 -159z" />
</svg>
