<?xml version="1.0" standalone="no"?>
<!DOCTYPE svg PUBLIC "-//W3C//DTD SVG 1.1//EN" "http://www.w3.org/Graphics/SVG/1.1/DTD/svg11.dtd" >
<svg xmlns="http://www.w3.org/2000/svg" xmlns:xlink="http://www.w3.org/1999/xlink" version="1.1" viewBox="-10 0 1034 1024">
  <g transform="matrix(1 0 0 -1 0 820)">
   <path fill="currentColor"
d="M353 531l-7 -275l-5 -272q0 -75 62 -95q21 -6 81 -12q63 -3 212 -3q21 1 40 1q30 0 62 4q84 6 112 25q30 21 43 65q10 37 23 75q-28 10 -51 26q-6 -88 -21 -114q-18 -25 -79 -35q-21 -3 -80 -6q-54 -3 -110 -3q-70 0 -147 5q-66 6 -89 21q-18 12 -18 58l11 535
q51 0 64 -4q4 0 9 -1v46q-33 -1 -67 -5h-168l3 129q1 42 26 61q-33 0 -67 4q4 -33 4 -65l-4 -129q-124 3 -133 5v-46q21 4 67 5h66l-7 -230q-6 -142 -35 -238q-45 -133 -125 -181q37 -10 66 -23q72 102 105 225q15 57 22 148l7 121l5 178h123zM453 382l19 -6q18 39 32 72
l46 118h303l-18 -408q-7 -48 -31 -65q-24 -16 -70 -17q-19 0 -48 7q16 -33 23 -55q51 4 84 15q61 21 77 83q3 15 6 58l7 149l12 233q0 16 8 42q-76 -4 -112 -5h-230q1 13 4 18l17 65q10 46 38 68q-36 7 -67 21q0 -54 -27 -151q-25 -90 -62 -162q-27 -48 -57 -71q10 -3 23 -5
q10 -1 23 -4zM669 190q12 10 25 17l-50 76q-27 39 -73 100q-18 -18 -36 -27q63 -70 122 -174l12 8v0z" />
  </g>

</svg>
