<?xml version="1.0" standalone="no"?>
<!DOCTYPE svg PUBLIC "-//W3C//DTD SVG 1.1//EN" "http://www.w3.org/Graphics/SVG/1.1/DTD/svg11.dtd" >
<svg xmlns="http://www.w3.org/2000/svg" xmlns:xlink="http://www.w3.org/1999/xlink" version="1.1" viewBox="-10 0 1034 1024">
  <g transform="matrix(1 0 0 -1 0 820)">
   <path fill="currentColor"
d="M118 478l-63 5q-1 1 -2 1v-47q24 4 39 5h248q-1 -91 -19 -189l-183 1l-18 2l-11 2v-46q24 4 39 5h163q-46 -145 -172 -256q-39 -33 -86 -46q21 -10 51 -37q36 27 77 68q43 42 70 78q73 96 101 193h401q-1 -30 -3 -62q-1 -3 -2 -11h48q-1 3 -1 5q-1 3 -4 44v249
q81 0 167 -3l2 -1q3 0 7 -1v47q-13 -3 -47 -6h-129l1 204l4 43l-58 -6l-555 1q-24 3 -26 5v-47q24 4 47 5h139l1 -96q0 -39 -3 -109h-223zM360 253l7 52q6 39 8 60q1 39 5 77h373v-189h-393zM753 478h-372l4 206l368 -1v-205z" />
  </g>

</svg>
