<?xml version="1.0" standalone="no"?>
<!DOCTYPE svg PUBLIC "-//W3C//DTD SVG 1.1//EN" "http://www.w3.org/Graphics/SVG/1.1/DTD/svg11.dtd" >
<svg xmlns="http://www.w3.org/2000/svg" xmlns:xlink="http://www.w3.org/1999/xlink" version="1.1" viewBox="-10 0 1034 1024">
  <g transform="matrix(1 0 0 -1 0 820)">
   <path fill="currentColor"
d="M104 -48q78 111 88 127q24 33 27 35q7 7 20 13q-30 10 -51 25q-15 -36 -70 -115q-27 -39 -43 -59q-13 -15 -33 -32q30 -10 45 -20q7 13 17 26zM64 528l13 2l52 4l384 -1q22 0 32 -4q3 0 7 -1v48q-18 -6 -51 -6l-418 1q-4 1 -7 1q-6 0 -12 4v-48zM301 214v-271
q0 -42 -28 -51q-18 -6 -47 -7q-6 0 -51 8q15 -22 22 -50q36 0 59 5q37 6 57 21q25 18 26 70v275q94 0 108 -2q16 0 35 -3q-4 49 -5 69l1 124l4 39l-58 -4l-250 1q-9 3 -39 3l5 -75q0 -93 -2 -119q-1 -1 -1 -6q0 -12 -2 -32q49 4 76 5h90zM178 250v151h261v-151h-261z
M225 706q40 -33 65 -57l35 -39l21 -23q12 15 32 36q-18 19 -35 36q-81 76 -87 82q-3 -6 -24 -27q-4 -3 -7 -8zM898 399q27 0 59 -3q1 0 4 -2h5v47q-6 -3 -11 -3q-28 -1 -57 -3h-198l5 245q0 40 3 49q1 13 10 26q-30 1 -59 3q3 -24 4 -41v-163q-1 -24 -2 -119l-128 3
q-7 1 -13 3v-47q42 6 70 5h69q0 -51 -6 -98q-15 -154 -53 -231q-72 -145 -221 -205q30 -13 51 -34q34 25 59 46q21 16 40 35q79 70 119 171q19 51 32 116q6 36 10 83q4 51 9 117h199zM485 9q6 -7 14 -16q9 15 29 34q-12 15 -19 26q0 1 -57 66q-12 15 -32 36q-18 -18 -33 -28
q3 -6 10 -11l48 -54zM775 255q0 39 14 65h-58q1 -31 5 -65l1 -324q3 -37 22 -52q21 -19 84 -20q48 0 79 13q28 15 44 55q3 13 15 56q-18 4 -47 25q0 -30 -3 -43q-4 -36 -23 -54q-18 -13 -67 -14q-27 0 -40 7q-25 10 -26 64v287zM765 648q16 -15 49 -52l47 -62l12 -21
q12 15 39 33q-106 126 -114 134q-15 -15 -33 -32v0z" />
  </g>

</svg>
