<?xml version="1.0" standalone="no"?>
<!DOCTYPE svg PUBLIC "-//W3C//DTD SVG 1.1//EN" "http://www.w3.org/Graphics/SVG/1.1/DTD/svg11.dtd" >
<svg xmlns="http://www.w3.org/2000/svg" xmlns:xlink="http://www.w3.org/1999/xlink" version="1.1" viewBox="-10 0 1010 1000">
   <path fill="currentColor"
d="M135 28q70 7 137 8h422q84 0 163 -8q-7 36 -8 95v40q0 39 8 111q-61 -7 -145 -8h-492q2 397 -113 613q-36 -48 -75 -73q111 -150 111 -556v-99q-1 -74 -8 -123zM222 104v95h548v-95h-548zM512 290q96 -2 113 4q0 2 -7 15q-13 22 -13 27q9 88 56 174q88 -61 152 -141
q76 50 84 70q-30 4 -118 68q-54 39 -89 63q83 136 248 174q-47 39 -73 94q-207 -118 -266 -338v304q17 87 -159 101q-3 -44 -39 -101q126 19 119 -36v-397q0 -29 -8 -81zM254 411q62 8 111 8h50q12 0 54 -2q25 -1 39 -2q-7 21 -20 63q-35 122 -77 187q-62 99 -155 169
q-32 -41 -85 -60q174 -63 242 -287h-52q-67 0 -107 5v-81z" />
</svg>
