<?xml version="1.0" standalone="no"?>
<!DOCTYPE svg PUBLIC "-//W3C//DTD SVG 1.1//EN" "http://www.w3.org/Graphics/SVG/1.1/DTD/svg11.dtd" >
<svg xmlns="http://www.w3.org/2000/svg" xmlns:xlink="http://www.w3.org/1999/xlink" version="1.1" viewBox="-10 0 1010 1000">
   <path fill="currentColor"
d="M853 30q-2 15 -3 38q-1 11 -1 26v39v82q0 57 4 81q-35 -6 -95 -6h-526q1 229 -23 351q-22 125 -88 250q-34 -36 -85 -61q71 -79 94 -215q11 -66 15 -161q4 -78 4 -267q0 -76 -1 -100q-1 -32 -5 -53q39 3 113 4h500q42 0 97 -8zM232 110v109h534v-109h-534zM460 310
q84 -1 109 12q0 5 -6 12q-12 15 -13 37q0 33 -4 88q39 -2 127 -9q9 -1 14 -1q15 -1 59 -9q27 -4 34 -5q-14 120 -18 303q-1 37 5 42q6 9 35 8q35 1 46 -21q12 -18 15 -82q43 42 89 52q-20 90 -44 106q-27 25 -106 24q-78 0 -102 -13q-26 -12 -23 -52q4 -126 12 -258
q1 -11 1 -16q-47 2 -152 6q-29 269 -282 371q-16 -45 -73 -79q251 -79 269 -288q-89 7 -202 20l-4 -85q59 3 214 -8q3 -68 0 -155z" />
</svg>
