<?xml version="1.0" standalone="no"?>
<!DOCTYPE svg PUBLIC "-//W3C//DTD SVG 1.1//EN" "http://www.w3.org/Graphics/SVG/1.1/DTD/svg11.dtd" >
<svg xmlns="http://www.w3.org/2000/svg" xmlns:xlink="http://www.w3.org/1999/xlink" version="1.1" viewBox="-10 0 1010 1000">
   <path fill="currentColor"
d="M875 36q-8 40 -8 85v68q0 51 8 85q-61 -7 -147 -8h-510v183h105q0 -104 -8 -131q95 2 108 14q-14 16 -18 40q-3 12 -3 29q-1 14 -1 48h115v-66q-1 -40 -10 -79q81 -1 103 8q-13 27 -14 137h129v-56q0 -37 -9 -75q-3 -13 -3 -18q104 -3 105 6q-12 65 -13 143
q80 -1 136 -10v93q-3 0 -10 -2q-39 -8 -126 -6v115q0 29 8 80l-78 -8h-127q-36 0 -99 8q8 -40 8 -86v-109h-113v264h373q64 0 137 -10v93q-60 -8 -133 -8h-363q-54 1 -100 8q3 -34 6 -93v-254h-103q-13 193 -101 379q-45 -44 -87 -71q110 -139 107 -502v-151q-2 -85 -8 -143
q46 7 137 8h440q91 0 167 -8zM788 119h-570v72h570v-72zM595 524v111h129v-111h-129z" />
</svg>
