<?xml version="1.0" standalone="no"?>
<!DOCTYPE svg PUBLIC "-//W3C//DTD SVG 1.1//EN" "http://www.w3.org/Graphics/SVG/1.1/DTD/svg11.dtd" >
<svg xmlns="http://www.w3.org/2000/svg" xmlns:xlink="http://www.w3.org/1999/xlink" version="1.1" viewBox="-10 0 1034 1024">
  <g transform="matrix(1 0 0 -1 0 820)">
   <path fill="currentColor"
d="M196 545l641 -1l49 -4q-6 51 -5 108q0 33 3 67q0 12 2 22q-36 -1 -71 -5l-609 1q-19 3 -53 4q1 -36 5 -73l-5 -390q-10 -162 -69 -283q-21 -37 -46 -66q30 -6 50 -19q49 100 72 180q30 106 33 268zM196 581v115h647v-115h-647zM310 -96q-1 -25 -3 -53q0 -3 -1 -6
q-1 -1 -1 -5h47q-1 4 -1 7q-3 7 -4 36v324q46 67 52 70q13 19 32 27l-46 31q-25 -54 -76 -125q-58 -78 -135 -133q19 -6 46 -24q24 22 51 55q16 18 39 46v-250zM208 316q21 -6 44 -22q46 57 72 95q42 66 54 74l30 23q-19 9 -50 31q-21 -43 -56 -96q-25 -36 -48 -62
q-19 -21 -46 -43zM856 237q-79 -3 -115 -4h-49v120h154q28 0 50 -3q3 0 16 -2v46q-9 0 -12 -2l-106 -3h-102v65q0 39 14 66h-57q4 -49 5 -79v-52l-181 1q-1 0 -35 4v-46q15 1 19 2q45 3 87 3h110v-120l-164 1q-9 1 -20 3q-3 1 -4 1v-46q3 0 8 1l41 4h5q39 -100 117 -176
q-30 -27 -96 -71q-76 -48 -147 -61q18 -18 28 -26q6 -6 13 -15q25 9 47 21q21 9 55 31q75 48 129 92q28 -25 50 -41l70 -43q55 -30 144 -65q15 24 38 46q-73 9 -140 43q-85 42 -133 86q57 57 91 100q36 48 54 75q15 19 30 45q-7 0 -14 -1zM794 197q-55 -84 -128 -150
q-81 81 -105 150h233z" />
  </g>

</svg>
