<?xml version="1.0" standalone="no"?>
<!DOCTYPE svg PUBLIC "-//W3C//DTD SVG 1.1//EN" "http://www.w3.org/Graphics/SVG/1.1/DTD/svg11.dtd" >
<svg xmlns="http://www.w3.org/2000/svg" xmlns:xlink="http://www.w3.org/1999/xlink" version="1.1" viewBox="-10 0 1034 1024">
  <g transform="matrix(1 0 0 -1 0 820)">
   <path fill="currentColor"
d="M143 -4l12 31q21 51 33 98q15 60 22 147q3 48 5 107l2 142l631 -1l43 -4q-1 18 -3 37q-1 24 -2 123q1 22 5 45q-28 -4 -52 -5l-643 3q-12 1 -27 2q6 -66 9 -111l1 -144q0 -171 -11 -256q-21 -139 -74 -224q-19 -27 -43 -46q30 -9 52 -24q7 15 16 33zM217 555v127h631
v-127h-631zM554 -78l-4 -55q-1 0 -2 -3h49q-4 19 -5 40v293q36 -54 89 -104q78 -72 155 -115q51 -30 96 -52q12 18 36 44q-51 12 -120 47l-68 40q-27 21 -67 55q-42 36 -106 123l296 -3l2 -1q3 0 7 -1v44q-3 0 -5 -1l-110 -4h-205v165q0 9 2 26q1 15 11 36h-56q0 -3 1 -6
q0 -3 3 -13l1 -208l-303 4q-3 1 -5 1v-44q12 3 27 4l267 1q-84 -111 -207 -203q-73 -51 -141 -62q18 -18 37 -44q199 100 325 267v-271zM461 303q7 7 10 9q6 4 12 10q-10 12 -22 23q-9 12 -106 108q-10 -10 -36 -33q63 -45 129 -130q3 1 6 5t7 8zM722 306q3 9 39 53
q39 51 57 65q3 3 9 6q-21 12 -44 37q-39 -75 -107 -152q21 -15 34 -27z" />
  </g>

</svg>
