<?xml version="1.0" standalone="no"?>
<!DOCTYPE svg PUBLIC "-//W3C//DTD SVG 1.1//EN" "http://www.w3.org/Graphics/SVG/1.1/DTD/svg11.dtd" >
<svg xmlns="http://www.w3.org/2000/svg" xmlns:xlink="http://www.w3.org/1999/xlink" version="1.1" viewBox="-10 0 1010 1000">
   <path fill="currentColor"
d="M188 639q135 -102 191 -226q74 37 81 52q-2 4 -10 8q-16 6 -27 19q-11 12 -32 40q-11 13 -16 20v256q0 46 1 62q1 19 3 29h-87q6 -30 6 -93v-165q-5 6 -17 19q-23 24 -35 39q-21 -32 -58 -60zM462 288q0 1 -8 5q-26 12 -41 29q-72 82 -135 147q-29 -39 -56 -56
q96 -71 151 -159q11 4 32 10q60 18 57 24zM897 14q-6 30 -6 90v71q0 39 6 71q-42 -6 -103 -6h-570q-3 430 -129 637q-16 -21 -67 -59q-7 -5 -10 -8q69 -85 97 -241q28 -150 24 -418q0 -94 -12 -137q42 3 125 4h540q46 0 105 -4zM224 80v97h584v-97h-584zM593 750
q-35 -30 -96 -116q-9 -13 -15 -21q71 -36 81 -33q3 3 4 10q2 18 16 41q28 42 70 78q63 -67 93 -143h-218q-50 0 -82 6v-76q31 6 82 6h83v-99h-81q-53 0 -93 6v-77q8 1 31 3q28 3 46 5h99v-40q1 -27 -6 -50q102 -4 99 8q1 5 -5 11q-14 15 -14 39v32h117q56 0 89 -8v77
q-33 -6 -85 -6h-121v99h89q45 0 81 -6q-55 151 -141 254q73 40 224 50q-37 35 -59 95q-148 -47 -230 -95q-117 58 -214 93q-18 -49 -54 -75q134 -24 210 -68z" />
</svg>
