<?xml version="1.0" standalone="no"?>
<!DOCTYPE svg PUBLIC "-//W3C//DTD SVG 1.1//EN" "http://www.w3.org/Graphics/SVG/1.1/DTD/svg11.dtd" >
<svg xmlns="http://www.w3.org/2000/svg" xmlns:xlink="http://www.w3.org/1999/xlink" version="1.1" viewBox="-10 0 1010 1000">
   <path fill="currentColor"
d="M137 6q64 8 95 8h550q35 0 95 -10q-8 34 -8 80v55q0 39 8 76q-51 -8 -87 -8h-24q1 7 67 47q-61 27 -107 66h46q102 1 141 -8v83q-66 -8 -137 -8h-95q54 51 110 69q56 19 149 17q-39 35 -49 81q-193 -24 -286 -175q0 40 3 104q1 25 1 31h-79q21 8 45 24q0 3 -8 8
q-21 13 -35 34h254q93 1 139 -8v81q-53 -8 -135 -8h-30q-17 18 -60 68q-17 20 -27 31q124 29 236 68l-64 75q-90 -52 -228 -93q-123 71 -367 95q-14 -41 -52 -85q190 14 330 -36q-97 -28 -207 -41q42 -39 90 -84h-58q-76 1 -123 10v-83q3 0 39 3q72 7 84 7h95q33 -42 50 -84
l24 14q5 -26 4 -116v-13q-63 84 -211 171q-18 -37 -55 -62q110 -33 196 -107h-95q-71 1 -119 8v-79q4 0 26 2q63 6 93 6h46q-30 -23 -92 -52l56 -47q58 31 95 57l-45 42h105v-113h-302q10 428 -101 662q-48 -33 -91 -39q73 -112 94 -235q21 -105 19 -402v-103q-1 -43 -8 -84
zM224 78v65h566v-65h-566zM605 207v113h99q-18 -25 -45 -40q54 -31 87 -73h-141zM663 643h-171l-42 50q78 15 149 34q34 -28 64 -84z" />
</svg>
