<?xml version="1.0" standalone="no"?>
<!DOCTYPE svg PUBLIC "-//W3C//DTD SVG 1.1//EN" "http://www.w3.org/Graphics/SVG/1.1/DTD/svg11.dtd" >
<svg xmlns="http://www.w3.org/2000/svg" xmlns:xlink="http://www.w3.org/1999/xlink" version="1.1" viewBox="-10 0 1010 1000">
   <path fill="currentColor"
d="M891 8q-7 38 -8 80v31q0 29 8 80q-49 -6 -141 -8h-181q49 14 46 22q-1 2 -10 6q-28 10 -47 29h200q71 0 134 -6q16 -2 21 -2v68q-2 0 -11 -1q-65 -7 -142 -7h-236q-15 12 -36 36q24 6 64 6h228q39 0 93 -8q-8 41 -8 81v91q0 45 8 82q-34 -8 -81 -8h-159q-32 32 -46 43
l276 -4q-62 98 -143 157q84 28 232 16q-45 52 -55 91q-170 -27 -238 -63q-96 51 -226 77q-14 -44 -68 -81q123 11 236 -32q-1 -2 -16 -16q-37 -32 -67 -63q8 -11 -78 57q-24 -33 -63 -43q107 -45 185 -141q-54 0 -92 4q6 -27 6 -76v-79q-1 -42 -6 -67l-30 25
q-22 -28 -61 -41q90 -57 139 -153h-324q5 255 -15 413q-19 159 -70 281q-35 -42 -85 -61q97 -120 93 -492v-189q0 -75 -8 -135q71 7 143 8h486q104 -1 153 -8zM808 76h-616v55h616v-55zM552 393v42h238v-42h-238zM552 487v41h238v-41h-238zM562 671q46 54 97 75
q34 -20 89 -77zM200 367q74 -48 139 -164q86 34 82 43q-2 4 -13 12q-27 16 -45 38q-69 82 -113 125q-19 -26 -50 -54zM351 373q49 21 84 46q-28 21 -81 83q-3 4 -5 6v227q1 100 10 158h-89q8 -47 8 -156v-159q-14 19 -44 53q-22 -43 -44 -65q95 -64 161 -193z" />
</svg>
