<?xml version="1.0" standalone="no"?>
<!DOCTYPE svg PUBLIC "-//W3C//DTD SVG 1.1//EN" "http://www.w3.org/Graphics/SVG/1.1/DTD/svg11.dtd" >
<svg xmlns="http://www.w3.org/2000/svg" xmlns:xlink="http://www.w3.org/1999/xlink" version="1.1" viewBox="-10 0 1034 1024">
  <g transform="matrix(1 0 0 -1 0 820)">
   <path fill="currentColor"
d="M826 557q27 -1 55 -5q-4 42 -5 64q0 60 2 69q0 15 3 31q-27 -1 -54 -5l-626 1q-15 3 -39 4q1 -7 4 -25q3 -31 5 -53q1 -24 2 -61l3 -123l-1 -161q-1 -54 -5 -91q-12 -123 -62 -221q-27 -51 -64 -83q21 -7 55 -25l34 69q22 48 36 83q10 31 20 66q6 28 12 62q4 36 7 84
q3 54 4 127v193h614zM838 592h-628l-3 85h631v-85zM322 182l-3 -323q-3 -6 -3 -12h50q-6 24 -6 32v352q33 45 68 68q-21 12 -44 34q-31 -60 -94 -133q-45 -49 -95 -80q25 -15 42 -30q16 16 27 29zM319 368q18 22 50 65q33 48 64 70q-30 18 -45 31q-28 -49 -57 -91
q-64 -82 -103 -107q18 -9 27 -13q7 -6 17 -12q3 4 19 24q13 16 28 33zM864 453l34 -3q15 0 21 -2q3 0 7 -1v44q-9 0 -12 -3l-88 -2h-246q13 24 41 44q-15 3 -26 8q-6 1 -30 13q-19 -49 -54 -102q-48 -66 -100 -90q22 -12 46 -27q60 61 102 121h305zM580 396q-30 3 -59 5
q4 -90 5 -92q0 -72 -2 -102q-3 -3 -3 -29q45 4 68 5h8q-24 -54 -70 -109q-34 -39 -69 -58q25 -9 51 -28l45 60q10 16 25 30q21 -28 42 -49q21 -22 54 -51q-109 -70 -228 -83q25 -25 38 -45q81 30 133 53q48 24 87 51q69 -40 117 -62q52 -22 130 -46q15 24 37 46h-10
q-34 0 -89 16q-72 21 -155 72q75 67 143 152q-18 -1 -30 -2q-21 -3 -30 -3h-207q16 30 30 56l195 -1l38 -4q-4 49 -5 95l5 128q-28 -1 -57 -5h-237zM831 362v-51h-268v51h268zM563 217v60h268v-60h-268zM795 93q-54 -63 -92 -91q-58 52 -87 91h179z" />
  </g>

</svg>
