<?xml version="1.0" standalone="no"?>
<!DOCTYPE svg PUBLIC "-//W3C//DTD SVG 1.1//EN" "http://www.w3.org/Graphics/SVG/1.1/DTD/svg11.dtd" >
<svg xmlns="http://www.w3.org/2000/svg" xmlns:xlink="http://www.w3.org/1999/xlink" version="1.1" viewBox="-10 0 1034 1024">
  <g transform="matrix(1 0 0 -1 0 820)">
   <path fill="currentColor"
d="M543 -10v677q0 18 3 33q1 18 14 33h-60q4 -49 5 -66v-681l-310 -15v496q0 13 3 32q1 18 15 36h-60q4 -34 5 -67l-1 -492q-3 -15 -4 -46l65 5l618 35l-4 -92q-1 -3 -1 -7h48q-6 58 -5 102l1 531q0 15 8 27q3 7 8 13h-60q4 -42 5 -67v-472z" />
  </g>

</svg>
