<?xml version="1.0" standalone="no"?>
<!DOCTYPE svg PUBLIC "-//W3C//DTD SVG 1.1//EN" "http://www.w3.org/Graphics/SVG/1.1/DTD/svg11.dtd" >
<svg xmlns="http://www.w3.org/2000/svg" xmlns:xlink="http://www.w3.org/1999/xlink" version="1.1" viewBox="-10 0 1034 1024">
  <g transform="matrix(1 0 0 -1 0 820)">
   <path fill="currentColor"
d="M492 269l-283 -7v326q0 36 13 67h-57q3 -9 3 -13q3 -51 3 -94l-1 -282q-1 -3 -5 -46q60 6 78 6l249 7l-1 -341q-4 -33 -6 -36h51q-6 24 -6 47v331l281 6q-3 -75 -5 -84q-1 0 -1 -1h49q-3 7 -4 32l-1 408q0 36 14 68h-58l4 -31q0 -15 2 -37v-320l-281 -5v418q0 34 14 68
h-59q0 -6 3 -14l4 -54v-419z" />
  </g>

</svg>
