<?xml version="1.0" standalone="no"?>
<!DOCTYPE svg PUBLIC "-//W3C//DTD SVG 1.1//EN" "http://www.w3.org/Graphics/SVG/1.1/DTD/svg11.dtd" >
<svg xmlns="http://www.w3.org/2000/svg" xmlns:xlink="http://www.w3.org/1999/xlink" version="1.1" viewBox="-10 0 1010 1000">
   <path fill="currentColor"
d="M212 -6q86 1 98 12q0 5 -4 11q-14 22 -14 77v539l71 -8v-377q-1 -70 -4 -97q91 7 95 14q-17 24 -17 97v353q0 81 9 122h-87q3 -18 6 -48q-147 14 -302 42q7 -60 10 -149v-328q0 -74 -4 -109q18 3 50 7q49 5 46 9q1 4 -3 13q-15 32 -15 96v377l73 -6v-528q0 -68 -8 -119z
M944 54v83q-26 -7 -93 -4h-34v242h40q84 0 107 -6v84q-30 -6 -105 -6h-40v363q3 54 -23 67q-24 17 -125 28q-7 -59 -42 -97q70 12 93 4q23 -7 22 -40v-321q-108 244 -302 414q-33 -25 -93 -47q196 -106 320 -369q-11 0 -32 1q-103 1 -151 7q53 -143 66 -286q12 4 35 9
q65 17 60 23q0 2 -2 3q-25 23 -54 169h151v-242h-155q-64 1 -105 8v-83q12 2 34 3q11 1 27 1h42h254q89 -3 105 -8z" />
</svg>
