<?xml version="1.0" standalone="no"?>
<!DOCTYPE svg PUBLIC "-//W3C//DTD SVG 1.1//EN" "http://www.w3.org/Graphics/SVG/1.1/DTD/svg11.dtd" >
<svg xmlns="http://www.w3.org/2000/svg" xmlns:xlink="http://www.w3.org/1999/xlink" version="1.1" viewBox="-10 0 1034 1024">
  <g transform="matrix(1 0 0 -1 0 820)">
   <path fill="currentColor"
d="M779 314v-368q0 -34 -19 -43q-22 -6 -53 -7q-27 0 -59 10q10 -18 13 -26q3 -10 8 -31q94 6 122 22q24 15 25 65v378q123 0 143 -3q3 0 11 -2v46q-33 -1 -66 -5h-88v313q93 0 111 -3q3 0 12 -2v46q-33 -1 -66 -5l-380 1q-24 3 -29 4v-46q15 4 69 5h246v-313h-251l12 32
l15 41q6 24 34 99q12 42 22 53q6 12 27 22q-24 4 -31 8q-15 4 -39 17q-3 -51 -42 -167q-16 -51 -31 -78q-10 -21 -28 -30q12 -18 21 -42q36 9 57 9h175q-33 -58 -94 -132q-61 -72 -114 -117q-96 -78 -172 -93q30 -16 58 -41q45 28 93 66q49 37 76 65q108 106 203 252h9z
M78 59q27 9 95 17l84 9l116 11q-3 -45 -6 -57h49q0 7 -2 15q-3 54 -3 81l1 390q0 22 12 50h-57q1 -6 3 -10l3 -115v-320l-117 -10l1 580q0 27 13 48h-58q3 -9 3 -16l3 -59v-556q-49 -6 -98 -9v389q0 21 3 40q1 18 12 34h-57q6 -66 6 -99l-1 -360q-4 -31 -5 -51v-2z" />
  </g>

</svg>
