<?xml version="1.0" standalone="no"?>
<!DOCTYPE svg PUBLIC "-//W3C//DTD SVG 1.1//EN" "http://www.w3.org/Graphics/SVG/1.1/DTD/svg11.dtd" >
<svg xmlns="http://www.w3.org/2000/svg" xmlns:xlink="http://www.w3.org/1999/xlink" version="1.1" viewBox="-10 0 1034 1024">
  <g transform="matrix(1 0 0 -1 0 820)">
   <path fill="currentColor"
d="M172 423q-54 3 -68 5v-46q31 4 68 5h162q-25 -154 -70 -244t-133 -166q-34 -27 -87 -48q6 -3 18 -13q9 -3 32 -19q24 12 78 63q52 51 77 85q45 60 72 133q27 72 54 209h263q-12 -30 -23 -46q-3 -3 -58 -92q-9 -16 -34 -49q72 6 104 6h126q-75 -117 -161 -183
q-61 45 -129 134q-31 45 -41 84q-24 -24 -49 -38q7 -6 26 -29q52 -67 89 -110q31 -33 66 -66q-40 -24 -66 -37q-27 -12 -69 -28q-40 -15 -67 -22q-52 -12 -89 -12q-30 3 -55 3q15 -15 30 -38q4 -6 9 -14q40 6 71 13q33 7 79 23q57 16 97 34q42 18 100 52q126 -78 345 -114
q1 3 4 5q3 6 34 47q-100 1 -174 19q-96 24 -173 67q60 57 103 111q39 49 94 140q-72 -6 -104 -6h-120l71 125l38 62q-72 -4 -117 -5h-423zM795 531q33 -1 67 -5q0 9 -1 18q-4 37 -5 54l1 74q0 12 6 24q3 10 11 19h-61q3 -15 4 -38l1 -110h-276v132q0 13 2 32q3 18 14 34h-60
q6 -54 6 -75v-123h-289v80q0 15 3 28q3 16 15 39h-59q4 -45 5 -82q0 -42 -2 -68q-3 -3 -3 -38q31 3 65 5h556z" />
  </g>

</svg>
