<?xml version="1.0" standalone="no"?>
<!DOCTYPE svg PUBLIC "-//W3C//DTD SVG 1.1//EN" "http://www.w3.org/Graphics/SVG/1.1/DTD/svg11.dtd" >
<svg xmlns="http://www.w3.org/2000/svg" xmlns:xlink="http://www.w3.org/1999/xlink" version="1.1" viewBox="-10 0 1034 1024">
  <g transform="matrix(1 0 0 -1 0 820)">
   <path fill="currentColor"
d="M70 172q3 -4 8 -10q60 24 134 65q72 42 125 83q85 69 164 166q90 -121 199 -195q99 -69 245 -114q9 24 36 50q-48 3 -138 36q-108 42 -202 125q-25 22 -51 49l-67 83l15 27l266 -1q24 -1 50 -5q-4 54 -5 81q0 78 3 80q1 13 12 26h-60q0 -3 1 -8q3 -75 4 -116v-22h-270
v139q0 18 2 35q1 13 12 31h-59l4 -35l1 -170h-268q0 132 3 134q1 13 12 26h-58q0 -9 2 -13l3 -103l-4 -62q-1 -10 -1 -23q12 3 44 4q7 1 137 2h117q-73 -123 -198 -214q-147 -102 -254 -115q3 -3 5 -4zM298 149l-59 4q-4 1 -7 1v-46q3 3 50 5h392q-121 -195 -207 -264
q15 -6 47 -22q88 96 235 327q-40 -1 -81 -5h-370zM510 277q-19 15 -37 30l-25 19q-15 -19 -31 -33q66 -45 131 -110q10 16 26 29l7 7q-15 12 -30 26z" />
  </g>

</svg>
