<?xml version="1.0" standalone="no"?>
<!DOCTYPE svg PUBLIC "-//W3C//DTD SVG 1.1//EN" "http://www.w3.org/Graphics/SVG/1.1/DTD/svg11.dtd" >
<svg xmlns="http://www.w3.org/2000/svg" xmlns:xlink="http://www.w3.org/1999/xlink" version="1.1" viewBox="-10 0 1010 1000">
   <path fill="currentColor"
d="M780 -2q71 79 65 98q-2 2 -7 0q-23 -9 -68 -4q-17 2 -71 7q-102 10 -157 18q-15 50 -46 112h254q136 -1 187 -10v89q-54 -10 -185 -10h-115q85 145 327 187q-35 30 -65 89q-268 -92 -339 -276h-100q-134 184 -363 290q-39 -61 -69 -78q201 -51 339 -212h-121
q-129 0 -183 12v-93q42 12 189 12h157q26 -43 45 -112q-153 0 -287 8q-6 -39 -36 -89q58 11 147 14q90 2 194 -4q234 -15 308 -48zM444 409q99 1 112 14q1 3 -5 11q-21 25 -21 56v278h190v-123q0 -52 -6 -79q98 -3 103 10q0 1 -2 5q-15 22 -15 68v117q0 103 10 131h-100
q9 -23 8 -59h-339q-154 0 -192 12q13 -45 13 -108v-121q0 -18 -3 -65q-1 -8 -1 -12q98 0 104 12q1 4 -4 8q-16 16 -16 59v145h170v-268q0 -37 -6 -91z" />
</svg>
