<?xml version="1.0" standalone="no"?>
<!DOCTYPE svg PUBLIC "-//W3C//DTD SVG 1.1//EN" "http://www.w3.org/Graphics/SVG/1.1/DTD/svg11.dtd" >
<svg xmlns="http://www.w3.org/2000/svg" xmlns:xlink="http://www.w3.org/1999/xlink" version="1.1" viewBox="-10 0 1034 1024">
  <g transform="matrix(1 0 0 -1 0 820)">
   <path fill="currentColor"
d="M356 757q-15 -34 -44 -71q-45 -55 -84 -93q-87 -84 -187 -132q24 -12 43 -32q51 36 104 79q39 31 77 70q40 42 98 108q21 25 40 39q-21 10 -47 32zM304 531l-50 4q-10 0 -18 2v-47q21 6 68 6h118q-27 -102 -114 -174q-81 -60 -165 -80q25 -15 40 -41q79 39 152 94
q85 72 131 201h241l-6 -127q-3 -36 -6 -46q-6 -27 -20 -40q-18 -12 -55 -13q-24 0 -57 6q12 -22 18 -50q96 3 127 32q27 28 32 129q0 16 2 32l3 64q3 33 6 54q-72 -6 -96 -6h-351zM167 -106q96 7 108 8l506 21q-3 -58 -7 -71h50q-6 19 -6 64l3 224q3 18 14 32h-61
q1 -12 5 -25l2 -182v-10l-275 -9v222q0 15 2 32q3 18 14 34h-59q4 -42 5 -66v-225l-260 -9v163q0 13 3 30q1 18 15 36h-59q4 -24 5 -66l-1 -159q-3 -12 -4 -44zM576 730q12 -10 28 -31q69 -90 163 -162q63 -48 180 -112q18 30 37 45q-105 24 -219 118q-120 94 -144 172
q-19 -18 -36 -26l-9 -4v0z" />
  </g>

</svg>
