<?xml version="1.0" standalone="no"?>
<!DOCTYPE svg PUBLIC "-//W3C//DTD SVG 1.1//EN" "http://www.w3.org/Graphics/SVG/1.1/DTD/svg11.dtd" >
<svg xmlns="http://www.w3.org/2000/svg" xmlns:xlink="http://www.w3.org/1999/xlink" version="1.1" viewBox="-10 0 1010 1000">
   <path fill="currentColor"
d="M208 -4q22 3 59 7q43 3 39 7q0 2 -3 5q-19 21 -19 95v543l67 -6v-355q-1 -94 -6 -125q90 4 97 16q1 3 -3 9q-16 31 -16 100v371q0 78 4 111h-84q3 -19 6 -63q-146 12 -280 33q7 -46 8 -164v-272q-3 -104 -8 -139q21 2 55 4q48 2 45 8q0 2 -3 8q-19 35 -19 93v385l67 -6
v-542q-3 -102 -6 -123zM484 48q30 6 141 6h109q119 0 155 -6q-4 42 -4 127v282q1 72 6 119h-89q6 -29 6 -117v-338h-241v322q0 87 6 123h-89q6 -26 6 -121v-248q0 -120 -6 -149zM645 195q97 13 101 24q0 2 -5 9q-14 21 -15 40q-12 209 -32 268q13 1 36 1q43 0 42 5q1 2 -3 8
q-13 25 -13 71v137q-1 33 11 41q8 8 52 7q45 1 57 -17q12 -12 23 -86q35 42 81 55q-18 88 -45 103q-27 23 -122 22q-103 2 -116 -13q-21 -8 -18 -80v-198q-64 179 -248 309q-39 -38 -94 -59q183 -70 255 -224q74 -153 53 -423z" />
</svg>
