<?xml version="1.0" standalone="no"?>
<!DOCTYPE svg PUBLIC "-//W3C//DTD SVG 1.1//EN" "http://www.w3.org/Graphics/SVG/1.1/DTD/svg11.dtd" >
<svg xmlns="http://www.w3.org/2000/svg" xmlns:xlink="http://www.w3.org/1999/xlink" version="1.1" viewBox="-10 0 1010 1000">
   <path fill="currentColor"
d="M621 12q118 195 349 252q-37 33 -61 76q-63 -19 -153 -80q-5 23 -14 95q-7 63 -12 88q-6 45 -33 61q-23 17 -110 32q-4 -37 -41 -89q86 4 99 -16q19 -13 22 -105h-215q-52 191 -325 246q-21 -53 -65 -80q247 -9 307 -166h-50q-61 -1 -103 8v-72q-74 62 -111 92
q-33 -35 -75 -54q186 -90 309 -284q96 33 94 42q0 6 -14 14q-15 9 -22 16q-6 6 -17 18q-93 96 -150 144q30 6 95 6h302q43 0 113 -8q-95 -70 -184 -202zM444 494q102 4 102 14q0 1 -2 6q-14 27 -14 76v184h200v-109q0 -45 -1 -57q0 -15 -3 -30q92 1 97 12q0 2 -2 6
q-11 25 -11 65v149q0 48 5 83h-91q0 -3 1 -7q3 -28 3 -42h-430q-62 0 -131 8q8 -26 10 -43t2 -51v-85q0 -53 -4 -93q84 -2 97 10q1 3 -2 7q-12 17 -12 52v125h192v-178q0 -78 -6 -102z" />
</svg>
