<?xml version="1.0" standalone="no"?>
<!DOCTYPE svg PUBLIC "-//W3C//DTD SVG 1.1//EN" "http://www.w3.org/Graphics/SVG/1.1/DTD/svg11.dtd" >
<svg xmlns="http://www.w3.org/2000/svg" xmlns:xlink="http://www.w3.org/1999/xlink" version="1.1" viewBox="-10 0 1010 1000">
   <path fill="currentColor"
d="M198 28q86 1 96 10q1 1 -3 6q-15 22 -15 50v591l77 -14v-395q0 -42 -6 -63v-2q80 1 90 10q0 1 -3 6q-13 20 -13 43v445q2 61 8 111h-82q5 -41 6 -93l-190 31q-63 10 -103 24q4 -38 5 -87v-443q0 -47 -5 -65q88 0 93 8q0 1 -2 4q-18 18 -18 63v441l71 -12v-580
q0 -56 -6 -89zM942 64v83q-20 -5 -125 -6h-255v651h224q105 -1 149 -10v85q-44 -6 -149 -7h-191q-60 0 -113 3q8 -30 8 -95v-587q0 -51 -1 -70q0 -23 -3 -43q38 6 131 6h198q79 -3 127 -10zM810 193q75 27 95 45q0 1 -3 2q-17 9 -29 38q-26 64 -79 191q67 118 121 220
l-76 40q-20 -71 -77 -193q-57 125 -111 199q-45 -32 -78 -36q88 -83 153 -232q-63 -110 -135 -203l66 -45q52 92 97 178q36 -95 56 -204z" />
</svg>
