<?xml version="1.0" standalone="no"?>
<!DOCTYPE svg PUBLIC "-//W3C//DTD SVG 1.1//EN" "http://www.w3.org/Graphics/SVG/1.1/DTD/svg11.dtd" >
<svg xmlns="http://www.w3.org/2000/svg" xmlns:xlink="http://www.w3.org/1999/xlink" version="1.1" viewBox="-10 0 1010 1000">
   <path fill="currentColor"
d="M458 -13q106 0 107 13q0 2 -4 9q-19 30 -19 67v83h220v-67q0 -32 -4 -68q90 5 103 16q0 3 -5 13q-13 28 -13 53v25q0 81 6 100q-27 -4 -111 -4h-464q-100 0 -123 6q6 -25 6 -118q0 -50 -3 -88q-1 -6 -1 -7q98 5 107 18q0 3 -8 14q-18 22 -18 36v71h230v-83q0 -43 -5 -78
q-1 -8 -1 -11zM272 306h462q110 0 131 -6q-6 23 -6 143v367q12 89 -174 103q-14 -62 -46 -103q81 10 107 -1q27 -10 26 -53v-377h-546v346q0 127 10 172h-101q0 -3 1 -14q7 -64 7 -158v-288q0 -101 -8 -137q31 6 137 6zM619 411q65 39 87 70q-2 4 -14 8q-18 6 -31 15
q-23 16 -66 54q-15 12 -22 18q102 68 165 117l-71 69q-52 -65 -149 -137q-90 79 -208 141q-26 -37 -74 -67q97 -16 220 -113q-74 -50 -178 -103l61 -58q102 62 173 113q52 -51 107 -127z" />
</svg>
