<?xml version="1.0" standalone="no"?>
<!DOCTYPE svg PUBLIC "-//W3C//DTD SVG 1.1//EN" "http://www.w3.org/Graphics/SVG/1.1/DTD/svg11.dtd" >
<svg xmlns="http://www.w3.org/2000/svg" xmlns:xlink="http://www.w3.org/1999/xlink" version="1.1" viewBox="-10 0 1010 1000">
   <path fill="currentColor"
d="M268 0q91 33 105 52q-1 3 -8 6q-24 8 -38 30q-9 14 -26 39q-25 38 -31 50v254q0 88 8 117h-91q7 -48 7 -109v-173q-55 73 -113 129q-12 -30 -53 -75q177 -128 240 -320zM488 16q96 -8 105 0q2 5 -3 12q-11 18 -9 44q9 99 28 166q291 -57 316 -69l13 85q19 -11 -309 42
q91 150 194 175q30 -12 32 -100q35 40 83 60q-35 137 -83 139q-172 -20 -301 -258q-209 38 -227 50l-14 -82q19 7 225 -30q-29 -98 -50 -234zM746 20q44 43 77 111l-81 42q-26 -77 -71 -121zM460 514q9 1 27 2q79 5 75 12q0 1 -2 6q-14 27 -14 76v182h202v-109q1 -59 -6 -85
q3 0 11 1q88 3 86 11q0 1 -2 5q-10 25 -10 66v141q0 60 2 91h-89q6 -26 6 -50h-433q-61 0 -130 8q12 -39 11 -93v-85q0 -55 -4 -93q98 -1 98 8q1 2 -2 7q-12 18 -12 54v123h192v-177q0 -77 -6 -101z" />
</svg>
