<?xml version="1.0" standalone="no"?>
<!DOCTYPE svg PUBLIC "-//W3C//DTD SVG 1.1//EN" "http://www.w3.org/Graphics/SVG/1.1/DTD/svg11.dtd" >
<svg xmlns="http://www.w3.org/2000/svg" xmlns:xlink="http://www.w3.org/1999/xlink" version="1.1" viewBox="-10 0 1034 1024">
  <g transform="matrix(1 0 0 -1 0 820)">
   <path fill="currentColor"
d="M375 415q0 19 2 40q1 18 12 34h-57q1 -36 5 -74l-2 -211q-7 -55 -9 -71q-18 -87 -62 -147q-37 -51 -92 -85q-36 -21 -89 -30l24 -16l29 -29q48 30 85 60q102 87 132 198q21 84 22 197v134zM135 425q1 -36 5 -75l-1 -252q-1 -9 -2 -22q0 -7 -2 -13h48q0 6 -2 14
q-1 27 -3 56l1 244q0 27 13 48h-57zM492 581h-304q0 99 3 105q1 15 11 27h-56q1 -36 5 -75l-5 -98q54 4 107 5l567 -1l50 -4q-4 24 -5 65q0 87 3 92q1 15 11 28h-57l2 -15l3 -61v-68h-298q0 153 3 156q3 16 12 30h-59q3 -9 3 -15l4 -119v-52zM828 -31l-402 1q-24 3 -29 4
v-47q12 6 68 6h363l-4 -72l-1 -6h48q0 6 -2 14q-1 27 -3 56l1 459q0 4 4 49q-84 -4 -116 -5l-295 1q-24 3 -29 4v-46q12 4 68 5h329v-189l-331 1q-4 1 -7 1q-15 1 -31 3q-1 0 -5 1v-47q12 6 68 6h306v-199z" />
  </g>

</svg>
