<?xml version="1.0" standalone="no"?>
<!DOCTYPE svg PUBLIC "-//W3C//DTD SVG 1.1//EN" "http://www.w3.org/Graphics/SVG/1.1/DTD/svg11.dtd" >
<svg xmlns="http://www.w3.org/2000/svg" xmlns:xlink="http://www.w3.org/1999/xlink" version="1.1" viewBox="-10 0 1010 1000">
   <path fill="currentColor"
d="M450 -25q113 12 112 17q0 3 -10 19q-16 28 -16 37v127h230v-87q0 -49 -4 -68q100 8 101 18q0 2 -3 4q-15 14 -15 48v71q1 49 4 83q-48 -6 -252 -6h-240q-30 1 -86 3q-99 3 -122 7q7 -29 8 -119q3 -81 -4 -115q107 11 105 18q0 4 -8 13q-14 16 -14 31v99h220
q0 -126 -6 -200zM425 274q67 79 57 93q-3 2 -12 1q-38 -6 -99 5q-74 14 -179 24l2 199l161 -34q0 -84 -4 -131q106 7 105 12q-1 3 -7 11q-14 19 -14 31q6 207 -57 281q-45 72 -273 147q-22 -51 -67 -89q288 -21 313 -211q-38 15 -112 40q-82 28 -120 44q-21 -51 -40 -76
q44 -12 40 -75v-135q-1 -61 -8 -83q187 4 314 -54zM540 326q9 0 50 2q43 1 71 2h109q78 0 117 -6q-5 41 -6 107v242q3 67 -25 85q-22 21 -136 42q-5 -48 -39 -103q76 11 96 1q21 -7 19 -53v-244h-173v367q2 117 6 155h-95q11 -47 12 -159v-276q0 -124 -6 -162z" />
</svg>
