<?xml version="1.0" standalone="no"?>
<!DOCTYPE svg PUBLIC "-//W3C//DTD SVG 1.1//EN" "http://www.w3.org/Graphics/SVG/1.1/DTD/svg11.dtd" >
<svg xmlns="http://www.w3.org/2000/svg" xmlns:xlink="http://www.w3.org/1999/xlink" version="1.1" viewBox="-10 0 1034 1024">
  <g transform="matrix(1 0 0 -1 0 820)">
   <path fill="currentColor"
d="M407 358q1 -6 4 -15q3 -75 3 -101l-3 -43q-39 -15 -99 -35q-61 -19 -122 -36v267q27 3 61 9q4 0 9 2q171 33 187 35q19 3 42 3q-33 33 -47 54q-16 -13 -34 -21q-22 -7 -63 -17q-120 -27 -178 -28h-21l3 -33q3 -21 3 -32v-221q0 -10 -5 -21q-3 -7 -16 -17q4 -7 10 -15
q10 -15 17 -29q36 21 53 27q7 3 18 6q57 21 90 32q45 13 85 29q-3 -45 -17 -75q-27 -69 -91 -119q-87 -66 -204 -74q22 -25 37 -49q45 13 72 24q21 9 46 22q132 72 179 183q12 30 18 72q4 51 8 141q0 46 19 68q-25 0 -47 4zM195 585q0 114 3 120q1 15 12 27h-57l4 -141
q-3 -12 -4 -47q34 3 71 5l599 -1q18 0 50 -4q-3 60 -5 121q0 37 3 47q1 13 10 24h-56q4 -54 5 -120v-31h-292q0 153 3 161q1 13 10 25h-57q3 -9 3 -15l3 -171h-305zM597 -98q0 -28 -5 -70h48q-3 12 -5 70v495h214v-267q0 -33 -11 -44q-18 -18 -62 -18q-22 0 -53 6
q15 -28 22 -53q25 0 46 4q51 7 75 28q21 19 21 71l1 263l4 51q-60 -4 -85 -5q-144 0 -172 2q-4 1 -7 1q-15 0 -36 2q1 -34 5 -71v-465z" />
  </g>

</svg>
