<?xml version="1.0" standalone="no"?>
<!DOCTYPE svg PUBLIC "-//W3C//DTD SVG 1.1//EN" "http://www.w3.org/Graphics/SVG/1.1/DTD/svg11.dtd" >
<svg xmlns="http://www.w3.org/2000/svg" xmlns:xlink="http://www.w3.org/1999/xlink" version="1.1" viewBox="-10 0 1034 1024">
  <g transform="matrix(1 0 0 -1 0 820)">
   <path fill="currentColor"
d="M118 57v424q0 13 2 32q6 21 17 36h-60q6 -48 6 -67l-1 -419q-3 -24 -5 -50l285 41q-1 -58 -5 -74h48q-3 33 -5 65l1 464q0 18 14 36q0 3 3 4h-61q1 -25 5 -52v-406l-104 -17v606q0 15 2 33q3 18 14 34h-59q4 -42 5 -67v-610zM654 433q-204 3 -217 5v-46q34 4 68 5l427 -1
l38 -4v46q-24 -4 -64 -5h-215v152l181 -1l39 -4v47q-25 -6 -66 -6h-154q0 126 3 128q4 15 15 28h-61q3 -12 3 -18q0 -3 1 -6l2 -132l-144 1q-9 1 -21 2q-6 0 -17 3v-47q21 4 68 5h114v-152zM771 243l-291 3q-3 1 -14 2l-9 2v-48q12 0 30 4q19 0 37 2h247v-262q0 -36 -15 -46
q-21 -10 -55 -11q-16 0 -63 6q9 -21 14 -50q18 0 35 3q60 4 81 13q40 18 41 63v284h76q42 0 66 -6v48q-30 -6 -66 -7h-76q0 102 3 104q3 16 15 29h-61q1 -33 5 -66v-67zM585 115q-7 12 -25 29l-12 -14l-25 -19q24 -12 56 -50q30 -34 47 -68q19 21 37 30z" />
  </g>

</svg>
