<?xml version="1.0" standalone="no"?>
<!DOCTYPE svg PUBLIC "-//W3C//DTD SVG 1.1//EN" "http://www.w3.org/Graphics/SVG/1.1/DTD/svg11.dtd" >
<svg xmlns="http://www.w3.org/2000/svg" xmlns:xlink="http://www.w3.org/1999/xlink" version="1.1" viewBox="-10 0 1010 1000">
   <path fill="currentColor"
d="M627 -8q92 2 101 14q0 2 -3 6q-17 23 -17 62v55h56q56 0 82 -2q26 -1 53 -6v84q-20 -2 -50 -3q-15 -1 -34 -1h-51h-56v119h143q47 0 93 -4v85q-44 -6 -95 -6h-34v107h32q50 0 91 -6v86q-47 -9 -95 -8h-28v234q11 84 -150 95q-11 -54 -54 -101q81 9 105 1q24 -6 22 -39
v-190h-155q-96 0 -127 10v-88q39 6 129 6h153v-109h-200q-57 -1 -96 8v-89q48 8 96 8h95v-119h-42q-83 0 -127 8v-86q33 6 139 6h28v-53q0 -60 -4 -84zM200 26q7 1 20 1q83 5 80 13q1 2 -2 9q-18 40 -18 116v490l63 -10v-327q0 -97 -6 -121q99 5 107 14q0 2 -3 5
q-22 25 -22 104v363q0 51 1 73q1 26 3 44h-86q6 -33 6 -83l-202 27q-63 10 -81 16q1 -11 3 -29q4 -33 4 -46v-387q0 -78 -4 -107q102 0 98 14q-1 4 -4 11q-14 26 -14 78v379l63 -10v-500q0 -107 -6 -137zM577 612q14 45 44 126l-81 26q-6 -56 -42 -133z" />
</svg>
