<?xml version="1.0" standalone="no"?>
<!DOCTYPE svg PUBLIC "-//W3C//DTD SVG 1.1//EN" "http://www.w3.org/Graphics/SVG/1.1/DTD/svg11.dtd" >
<svg xmlns="http://www.w3.org/2000/svg" xmlns:xlink="http://www.w3.org/1999/xlink" version="1.1" viewBox="-10 0 1010 1000">
   <path fill="currentColor"
d="M516 -8q9 36 30 112h218q115 0 176 -8v83q-33 -4 -164 -4h-143v206q0 95 7 131q1 4 1 6h-95q12 -44 12 -139v-204h-133v153q0 130 4 192h-90q10 -146 10 -194v-151q-232 0 -291 6v-87q56 10 164 10h230q-6 -40 -41 -104zM224 237q78 39 80 49q-30 23 -147 147
q-32 33 -44 46q-18 -18 -69 -48q-4 -3 -6 -4q93 -55 186 -190zM732 246q57 40 150 113q34 28 55 44l-80 56q-97 -107 -190 -169zM442 524q89 -3 98 8q1 3 -2 9q-10 24 -10 76v155h218q3 -185 -4 -216q88 -4 93 6q1 3 -1 15q-9 38 -9 82v133q0 72 6 117h-87q3 -30 2 -65h-456
q-95 0 -137 12q6 -51 6 -161q0 -102 -6 -137q87 -2 97 10q1 4 -3 9q-11 18 -11 60v135h212v-147q0 -65 -6 -101z" />
</svg>
