<?xml version="1.0" standalone="no"?>
<!DOCTYPE svg PUBLIC "-//W3C//DTD SVG 1.1//EN" "http://www.w3.org/Graphics/SVG/1.1/DTD/svg11.dtd" >
<svg xmlns="http://www.w3.org/2000/svg" xmlns:xlink="http://www.w3.org/1999/xlink" version="1.1" viewBox="-10 0 1034 1024">
  <g transform="matrix(1 0 0 -1 0 820)">
   <path fill="currentColor"
d="M117 34v436q0 12 3 30q3 19 16 39h-60q6 -54 6 -66l-1 -431q-4 -24 -5 -49v-2q49 9 53 10q3 0 5 1l202 20l-4 -61q0 -3 -1 -6h48q-3 31 -5 64v231q24 -13 41 -33q129 96 235 268q39 -49 70 -83q27 -30 67 -63q60 -48 145 -99q3 3 8 10q15 18 22 22q4 6 11 11
q-90 27 -165 90q-90 78 -134 154q4 12 8 16l22 22l-30 6q-12 3 -29 10q-15 -51 -54 -114q-54 -90 -128 -154q-48 -39 -89 -56v217q0 15 2 33q3 16 15 33h-60q3 -15 4 -38l1 -445l-90 -10v616q0 13 2 32q3 18 15 33h-61q6 -51 6 -65v-620zM400 568q39 -25 44 -31
q66 60 118 133q21 28 23 30q6 6 22 9q-12 4 -25 11q-18 6 -28 20q-21 -39 -44 -70q-31 -43 -56 -66q-19 -18 -54 -36zM483 -96q0 -18 -5 -64h48q-4 24 -5 57v51h289l-4 -82q-1 -1 -2 -7h48q-4 24 -5 65l1 271l4 48q-33 -1 -68 -5l-256 1q-19 3 -50 4q1 -33 5 -69v-270z
M521 -16v218h289v-218h-289zM692 713q30 -18 85 -63q39 -33 58 -51q12 -12 31 -37q13 21 33 39q-24 24 -64 60q-48 37 -106 90q-9 -13 -13 -20q-7 -7 -24 -18v0z" />
  </g>

</svg>
