<?xml version="1.0" standalone="no"?>
<!DOCTYPE svg PUBLIC "-//W3C//DTD SVG 1.1//EN" "http://www.w3.org/Graphics/SVG/1.1/DTD/svg11.dtd" >
<svg xmlns="http://www.w3.org/2000/svg" xmlns:xlink="http://www.w3.org/1999/xlink" version="1.1" viewBox="-10 0 1010 1000">
   <path fill="currentColor"
d="M661 -2q95 1 105 10q1 4 -3 11q-10 21 -13 51q-5 45 -8 224h97q39 -1 84 -8v85q-24 -6 -82 -6h-97q7 123 28 225q42 -78 67 -179q4 2 13 6q80 34 73 38q-1 4 -6 9q-15 18 -32 50q-21 40 -59 108q-21 37 -28 51q55 104 79 109q13 -3 22 -95q27 44 77 71q-43 135 -87 135
q-61 -13 -143 -156q-23 26 -64 72q-7 9 -11 13q-29 -40 -76 -58q61 -27 121 -95q-38 -138 -47 -304h-96v153l66 -31l12 71l-78 32v216q3 53 -18 63q-15 14 -111 28q-3 -56 -37 -97q64 8 80 2q17 -3 15 -28v-155q-63 31 -87 46l-18 -87q57 -10 105 -34v-179h-18q-4 1 -23 2
q-45 2 -58 6v-87q24 7 73 8h26v-125l-81 22q-10 -30 -50 -76q108 9 236 -51q1 1 4 5q46 53 48 64q-8 -3 -86 22v139h94q-2 -77 0 -147v-8q-3 -101 -8 -141zM192 26q16 1 45 3q49 1 47 7q1 3 -3 10q-17 31 -17 85v554l59 -6v-367q0 -82 -4 -105q8 0 23 1q64 1 65 7
q-18 20 -18 95v387q1 88 8 125h-82q3 -27 6 -78q-212 23 -263 34q6 -45 7 -105v-357q0 -90 -3 -121q86 5 87 12q0 2 -3 9q-13 32 -13 80v401l65 -6v-536q-1 -104 -6 -129zM841 92q61 71 88 111l-72 41q-34 -62 -77 -109z" />
</svg>
