<?xml version="1.0" standalone="no"?>
<!DOCTYPE svg PUBLIC "-//W3C//DTD SVG 1.1//EN" "http://www.w3.org/Graphics/SVG/1.1/DTD/svg11.dtd" >
<svg xmlns="http://www.w3.org/2000/svg" xmlns:xlink="http://www.w3.org/1999/xlink" version="1.1" viewBox="-10 0 1034 1024">
  <g transform="matrix(1 0 0 -1 0 820)">
   <path fill="currentColor"
d="M322 44q-1 -39 -4 -51q-1 -1 -1 -5h48q-3 28 -5 57l1 446q0 19 7 32q1 7 7 14h-58q1 -30 5 -61v-399q-45 -3 -88 -7v611q0 9 2 25q1 18 13 36h-58q4 -30 5 -61v-612q-45 -3 -88 -7v418q0 6 2 25q1 18 11 36h-56q1 -7 3 -12l3 -102l-1 -364q-3 -9 -3 -24q0 -6 -2 -19
q36 6 56 8zM567 268l-31 7q3 -24 4 -52q-1 -30 -1 -61q-6 -108 -30 -163q-30 -57 -78 -90q-31 -21 -69 -30q21 -15 44 -36q51 30 92 70q49 60 63 121q6 24 9 54q10 156 13 157q1 10 12 20zM599 488q-57 -115 -146 -194q-37 -30 -75 -47q36 -15 53 -29q51 46 95 94
q57 63 114 176h53q45 -81 59 -102q12 -18 34 -42q55 -63 154 -131q27 27 53 41q-73 19 -142 80q-75 69 -117 154l165 -1l34 -4h4v46q-4 0 -7 -1q-3 0 -5 -1q-25 0 -51 -3h-222q15 46 25 93q0 6 16 74q40 4 79 14l65 11q10 1 22 2q12 0 30 -2q-36 45 -38 50q-45 -15 -85 -26
q-75 -15 -167 -25q-123 -6 -150 -6q-9 1 -16 3q10 -18 17 -27q3 -9 8 -18l193 17q-15 -90 -38 -160l-209 4q-3 0 -7 1v-46q3 0 6 1q6 3 41 3zM807 -155q-3 21 -5 44l1 349q0 15 5 25q1 9 8 18h-57q0 -6 5 -60l-1 -351q-1 -13 -4 -25h48z" />
  </g>

</svg>
