<?xml version="1.0" standalone="no"?>
<!DOCTYPE svg PUBLIC "-//W3C//DTD SVG 1.1//EN" "http://www.w3.org/Graphics/SVG/1.1/DTD/svg11.dtd" >
<svg xmlns="http://www.w3.org/2000/svg" xmlns:xlink="http://www.w3.org/1999/xlink" version="1.1" viewBox="-10 0 1034 1024">
  <g transform="matrix(1 0 0 -1 0 820)">
   <path fill="currentColor"
d="M117 46l1 444q0 12 8 37q1 4 7 14h-57l2 -19q3 -43 4 -48v-410q0 3 -4 -33q-1 -6 -2 -29q9 3 25 7q-3 0 9 1q9 0 15 1l209 20q-3 -60 -6 -77h48q-3 33 -5 65l1 483q0 15 8 27q1 7 7 13h-59q0 -3 3 -18l3 -49v-409l-87 -8v597q0 21 3 33q1 18 13 34h-60q3 -7 4 -18
q0 -24 3 -49v-601zM920 347q6 0 14 -5q22 30 41 45q-130 12 -261 87q25 21 46 41q22 21 58 60q40 43 73 87q-39 -1 -78 -5h-231q31 39 38 49q6 9 33 33q-27 15 -44 31q-33 -60 -86 -122q-34 -42 -60 -66q-21 -18 -48 -32q27 -7 50 -24q28 31 46 53q18 18 40 42h257l-67 -74
q-15 -16 -33 -31q-13 -12 -27 -22q-78 48 -95 82q-9 -12 -33 -33q21 -12 99 -72q-60 -37 -132 -72q-57 -24 -120 -38q25 -19 40 -40q19 7 34 15q102 48 116 56q4 6 96 58q49 -28 91 -49q46 -21 82 -34zM652 39l-219 4q-9 0 -17 2v-47q7 1 64 6h172v-96q0 -9 -3 -46
q0 -6 -3 -18h49q-4 24 -5 57v103l232 -4q3 0 7 -2v47q-66 -6 -77 -6h-162v91l159 -3q4 0 9 -2v47q-19 -6 -65 -6h-103v96q168 0 181 -3q6 0 17 -2v46q-43 -4 -73 -5h-125q0 64 3 68q3 13 15 29h-62q6 -63 6 -86v-11l-190 3q-9 0 -18 2v-46q22 4 68 5h140v-96l-154 3
q-3 0 -18 3v-47q54 4 109 5h63v-91z" />
  </g>

</svg>
