<?xml version="1.0" standalone="no"?>
<!DOCTYPE svg PUBLIC "-//W3C//DTD SVG 1.1//EN" "http://www.w3.org/Graphics/SVG/1.1/DTD/svg11.dtd" >
<svg xmlns="http://www.w3.org/2000/svg" xmlns:xlink="http://www.w3.org/1999/xlink" version="1.1" viewBox="-10 0 1034 1024">
  <g transform="matrix(1 0 0 -1 0 820)">
   <path fill="currentColor"
d="M75 33l25 4q3 1 30 5l195 15q-3 -58 -5 -71h49q-6 19 -6 66v432q0 16 2 33q6 21 16 34h-61q4 -45 5 -67v-392q-43 -3 -86 -7v589q0 16 2 34q1 12 8 21q3 4 7 11h-60q1 -13 2 -19l3 -126v-514l-85 -6v408q0 10 3 30q6 22 16 38h-60q4 -60 5 -93l-1 -383q-3 -15 -4 -42z
M360 -97q22 -24 37 -51q10 1 23 5q42 9 69 19q27 9 64 26q70 33 139 91q96 -67 246 -133q16 24 46 47q-51 6 -114 30q-96 42 -146 85q24 27 36 42q16 21 36 49q22 33 38 59l34 66q6 15 14 28q-39 -1 -80 -5h-175q9 9 13 16q31 45 60 66q-30 9 -52 24q-21 -45 -94 -135
q-36 -43 -74 -78q-28 -24 -60 -43q21 -6 43 -28q30 27 51 49l69 73q1 3 18 20h217q-48 -97 -125 -178q-66 49 -103 112q-9 -12 -16 -16t-24 -13q21 -18 59 -56q10 -12 53 -54q-36 -33 -76 -58q-48 -28 -97 -45q-60 -15 -86 -16q-21 0 -43 2zM584 400l17 17q10 9 40 18
q-34 21 -48 37q-33 -51 -101 -107q-51 -37 -97 -49q24 -16 40 -37q76 51 127 100q10 10 22 21zM563 651q-45 -61 -56 -73q-30 -33 -54 -37q-9 0 -16 -3q13 -28 18 -43q1 -4 3 -11q22 12 59 15q15 3 195 15q4 0 170 12q15 -15 37 -47l16 17q0 3 20 15l-132 143q-18 18 -35 39
q-15 -18 -32 -29q19 -18 39 -37l69 -75l-160 -8l-191 -10q30 33 65 78q33 45 67 88q9 12 20 23q15 19 41 33q-36 10 -62 26q-3 -13 -6 -19q-4 -7 -75 -112zM961 340q-13 13 -49 39q-31 25 -57 42l-72 45q-7 -9 -11 -17q-4 -9 -17 -20q52 -24 88 -48q39 -27 94 -80
q15 30 24 39v0z" />
  </g>

</svg>
