<?xml version="1.0" standalone="no"?>
<!DOCTYPE svg PUBLIC "-//W3C//DTD SVG 1.1//EN" "http://www.w3.org/Graphics/SVG/1.1/DTD/svg11.dtd" >
<svg xmlns="http://www.w3.org/2000/svg" xmlns:xlink="http://www.w3.org/1999/xlink" version="1.1" viewBox="-10 0 1010 1000">
   <path fill="currentColor"
d="M740 20q12 93 18 111h89q81 0 103 -6q-6 24 -6 94q1 62 6 89h-89q0 -22 6 -105h-317q0 77 6 107h-94q9 -26 10 -89q0 -48 -1 -63q-1 -19 -5 -33q30 6 103 6h104q-6 -50 -30 -103zM200 28q13 1 39 4q69 6 63 12q0 2 -4 6q-22 26 -22 85v564l77 -6v-363q-1 -82 -6 -123
q12 2 34 5q65 8 61 13q0 1 -2 5q-15 25 -15 76v421q1 80 6 113h-86q6 -18 8 -82q-127 6 -295 30q4 -30 5 -123v-339q0 -84 -7 -111q95 7 95 14q1 3 -3 12q-13 28 -13 63v407l71 -6v-558q0 -94 -6 -119zM784 266l141 171l-88 42q-12 -49 -125 -179zM609 268q17 10 46 24
q39 19 33 22q-2 3 -7 6q-14 8 -28 26q-73 94 -127 144q-21 -21 -82 -41q101 -54 165 -181zM492 528q10 1 50 4q33 2 53 4h209q83 0 113 -6v82q-41 -8 -111 -8h-66v194h107q84 -1 113 -4v79q-24 -9 -103 -8h-290q-89 0 -119 6v-83q27 7 98 9q15 1 23 1h92v-194h-56
q-4 -2 -52 0q-42 2 -61 4v-80z" />
</svg>
