<?xml version="1.0" standalone="no"?>
<!DOCTYPE svg PUBLIC "-//W3C//DTD SVG 1.1//EN" "http://www.w3.org/Graphics/SVG/1.1/DTD/svg11.dtd" >
<svg xmlns="http://www.w3.org/2000/svg" xmlns:xlink="http://www.w3.org/1999/xlink" version="1.1" viewBox="-10 0 1034 1024">
  <g transform="matrix(1 0 0 -1 0 820)">
   <path fill="currentColor"
d="M609 -100q0 -39 -5 -70h48q-4 30 -5 70v364q46 -84 64 -108q9 -15 52 -67q25 -30 70 -74q40 -37 100 -84q34 36 49 43q-69 24 -125 75q-97 90 -164 215h187q30 0 51 -3q1 0 16 -2v46q-7 -1 -13 -3q-15 -1 -54 -2h-233v289l229 -1q6 0 30 -5v47q-33 -1 -67 -5h-192
q0 114 3 120q1 15 11 27h-57q4 -54 5 -122v-25q-163 0 -192 2q-6 1 -14 2q-3 1 -6 1v-47q12 6 69 6h143v-289l-196 1q-12 1 -17 2l-12 2v-46q15 4 69 5h116q-49 -79 -86 -125q-33 -42 -89 -94q-39 -36 -66 -54q-25 -15 -85 -37q22 -12 50 -41q52 36 101 78q63 55 113 115
q45 57 102 147v-353zM438 521q-12 -15 -32 -26q16 -16 28 -31l56 -72q12 -15 24 -35q3 3 12 10q4 6 10 11q3 4 12 9q-21 30 -51 65zM736 359l103 132q16 19 45 22q-3 0 -8 4q-12 4 -40 25l-15 9q-15 -33 -35 -63q-25 -36 -46 -61q-18 -22 -40 -45q18 -10 36 -23zM370 48
q-3 10 -4 29q0 21 -2 40v356q0 18 2 39q1 13 13 36h-58q1 -36 5 -75v-348q-42 -6 -92 -10v537q0 21 2 40q1 21 13 35h-58l5 -75v-542q-9 0 -16 -1q-54 -4 -70 -8v373q0 21 2 41q1 19 13 35h-57q0 -1 1 -4l4 -72l-1 -373l-4 -49q33 9 79 15l179 22q0 -22 -2 -31q0 -6 -2 -10
h48z" />
  </g>

</svg>
