<?xml version="1.0" standalone="no"?>
<!DOCTYPE svg PUBLIC "-//W3C//DTD SVG 1.1//EN" "http://www.w3.org/Graphics/SVG/1.1/DTD/svg11.dtd" >
<svg xmlns="http://www.w3.org/2000/svg" xmlns:xlink="http://www.w3.org/1999/xlink" version="1.1" viewBox="-10 0 1034 1024">
  <g transform="matrix(1 0 0 -1 0 820)">
   <path fill="currentColor"
d="M120 35v443q0 15 4 30q3 18 16 39h-62q6 -60 6 -68l-1 -436q-4 -24 -5 -50l70 10l197 17q0 -51 -5 -74v-5h49q-3 12 -4 46l-1 492q0 27 4 36q1 16 13 32h-61q1 -33 5 -67v-425l-94 -8v648q0 12 3 29q1 19 14 40h-61q3 -9 3 -15q1 -24 3 -51v-654zM855 343l106 -3
q3 0 11 -2v46q-33 -1 -68 -5l-465 1q-18 1 -29 4v-46q30 3 62 5h345v-423q0 -30 -14 -36q-21 -9 -54 -10q-21 0 -43 6q12 -24 18 -48q81 9 110 26q21 15 21 50v435zM493 640q-30 0 -63 5v-46q49 4 101 5h105q-33 -141 -200 -165q6 -6 15 -16q1 -3 12 -25q48 15 99 47
q54 37 99 107q123 -63 212 -145q4 16 14 30l9 15q-3 3 -165 106q-16 10 -31 18q-13 7 -25 15q1 7 3 13l201 -1q9 0 41 -4v46l-44 -4l-191 -1q3 13 4 27q7 54 13 70q4 12 11 31q-28 4 -55 7q0 -37 -4 -69q-3 -30 -9 -66h-152zM474 -8q54 4 80 5q111 0 125 -2q1 1 6 0
q6 0 32 -3q-4 54 -5 82l1 126l4 45l-111 -5q-70 0 -90 2q-6 1 -12 1q-13 0 -30 2q4 -99 5 -104q0 -84 -2 -111q-3 -3 -3 -38zM516 33v171h159v-171h-159z" />
  </g>

</svg>
