<?xml version="1.0" standalone="no"?>
<!DOCTYPE svg PUBLIC "-//W3C//DTD SVG 1.1//EN" "http://www.w3.org/Graphics/SVG/1.1/DTD/svg11.dtd" >
<svg xmlns="http://www.w3.org/2000/svg" xmlns:xlink="http://www.w3.org/1999/xlink" version="1.1" viewBox="-10 0 1034 1024">
  <g transform="matrix(1 0 0 -1 0 820)">
   <path fill="currentColor"
d="M216 -93q0 -21 -5 -63h48q-1 12 -2 16q-3 48 -3 76l654 -1q9 0 42 -4v46q-58 -4 -90 -5h-292v117h209q30 0 54 -3q3 0 15 -2v46q-34 -1 -69 -5h-209v108l249 -1l33 -4v46l-36 -4q-24 -1 -139 -2h-107v116l283 -1q4 0 37 -4v46q-39 -4 -67 -5h-191q12 25 27 38l-133 82
q-7 -18 -24 -39q87 -39 125 -81h-348q4 10 35 55q22 37 50 53q-42 15 -62 26q-6 -24 -35 -78q-33 -51 -71 -104q-42 -55 -64 -79q-27 -30 -46 -46q-16 -12 -35 -23q28 -7 55 -26l112 136v-427zM254 -28v117h276v-117h-276zM254 125v108h276v-108h-276zM254 268v116h276v-116
h-276zM203 607v62q0 33 19 67h-61q0 -3 3 -12q0 -39 3 -80q-6 -57 -6 -78q33 3 66 5l620 -1l45 -4q-4 78 -5 87q0 40 5 51q3 18 13 32h-62q3 -6 3 -15q1 -16 3 -51q0 -31 1 -63h-297v111q0 40 17 68h-61q4 -60 5 -81v-98h-311z" />
  </g>

</svg>
