<?xml version="1.0" standalone="no"?>
<!DOCTYPE svg PUBLIC "-//W3C//DTD SVG 1.1//EN" "http://www.w3.org/Graphics/SVG/1.1/DTD/svg11.dtd" >
<svg xmlns="http://www.w3.org/2000/svg" xmlns:xlink="http://www.w3.org/1999/xlink" version="1.1" viewBox="-10 0 1010 1000">
   <path fill="currentColor"
d="M647 -10q83 8 99 16q1 3 -5 10q-10 15 -17 32q-5 12 -9 33q-3 14 -5 23h88q89 -1 121 -6v77q-36 -6 -117 -8h-104q111 55 217 121l-70 64q-66 -65 -176 -125q-60 82 -163 133q-28 -40 -60 -64q123 -27 185 -129h-58q-76 3 -115 8v-77q27 5 117 6h70q10 -41 2 -114zM200 4
q84 1 96 12q0 1 -3 5q-19 21 -19 65v581l63 -6v-444q0 -40 -2 -52q66 2 88 12q0 1 -2 5q-16 29 -16 76v415q3 99 8 121h-82q0 -7 2 -31q2 -29 2 -38l-188 19q-60 8 -84 14q7 -36 8 -67v-453q0 -33 -6 -63q-2 -8 -2 -10q84 -3 90 6q0 3 -3 9q-11 21 -11 47v456l67 -8v-623
q0 -33 -6 -48zM474 498q24 2 93 4h66q55 0 85 -4q-3 36 -4 72v93q1 45 4 75q-32 -2 -79 -3h-93q0 33 4 55h-76q5 -47 6 -93v-123q0 -29 -6 -76zM548 566v105h99v-105h-99zM869 363q57 -1 87 -7v83q-29 -7 -89 -8v345v15q30 90 -155 114q4 -45 -37 -97q92 14 109 -12
q0 -1 1 -2q11 -16 11 -75v-288h-262q-66 0 -107 8v-85q41 8 109 9h333z" />
</svg>
