<?xml version="1.0" standalone="no"?>
<!DOCTYPE svg PUBLIC "-//W3C//DTD SVG 1.1//EN" "http://www.w3.org/Graphics/SVG/1.1/DTD/svg11.dtd" >
<svg xmlns="http://www.w3.org/2000/svg" xmlns:xlink="http://www.w3.org/1999/xlink" version="1.1" viewBox="-10 0 1034 1024">
  <g transform="matrix(1 0 0 -1 0 820)">
   <path fill="currentColor"
d="M665 70l-226 1q-24 3 -28 4v-47q15 6 68 6h186v-115q0 -25 -14 -35q-19 -12 -57 -13q-21 0 -54 8q12 -30 17 -50q37 1 52 4q49 6 71 21q22 16 23 53v127l235 -1q12 -1 26 -5v47q-33 -1 -67 -5h-194v38q55 36 92 62q43 30 65 48q15 12 30 30q-87 -6 -124 -6l-273 1
q-9 1 -16 2q-9 3 -12 3v-47q21 6 69 6h252q-3 -3 -5 -4q-9 -4 -12 -6q-18 -12 -34 -24q-6 -4 -17 -12q-19 -9 -37 -20q-10 -4 -20 -11q3 -55 4 -60zM422 577q15 4 67 5h387q30 0 51 -3q1 0 16 -2v46q-33 -1 -67 -5l-430 1q-9 1 -12 2l-12 2v-46zM484 514q1 -21 2 -34
q3 -24 3 -53l-5 -108q34 3 71 5l255 -1l55 -4q-6 69 -6 103q0 24 3 48q0 21 3 44q-36 -1 -72 -5l-259 1q-19 3 -50 4zM526 359v114h296v-114h-296zM589 735q9 -7 14 -12l74 -59q15 -12 38 -35q4 7 10 13q3 0 7 7q1 0 3 3q3 3 8 9q-9 6 -27 24l-101 82q-7 -12 -18 -23
q-4 -4 -8 -9zM343 22l-4 -64l-1 -6h48q-3 34 -5 70l1 468q0 18 5 31q1 10 8 19h-57q3 -18 3 -35l2 -67v-374l-90 -8l1 638q0 27 13 48h-58q3 -9 3 -16l3 -59v-615l-101 -9v425q0 19 2 40q1 19 13 35h-57q0 -3 1 -6q0 -27 4 -69l-1 -426q-3 -15 -4 -49l77 17q9 1 23 2
q31 3 78 9l93 9v-8z" />
  </g>

</svg>
