<?xml version="1.0" standalone="no"?>
<!DOCTYPE svg PUBLIC "-//W3C//DTD SVG 1.1//EN" "http://www.w3.org/Graphics/SVG/1.1/DTD/svg11.dtd" >
<svg xmlns="http://www.w3.org/2000/svg" xmlns:xlink="http://www.w3.org/1999/xlink" version="1.1" viewBox="-10 0 1010 1000">
   <path fill="currentColor"
d="M129 260q33 7 60 8q27 2 93 2h488q64 0 86 -1q28 0 51 -3v76l-5 -1q-69 -9 -126 -9h-197v69h117q56 0 117 -4v70q-1 0 -4 -1q-47 -9 -109 -9h-121v69h193q33 0 45 -1q11 0 58 -3v72q-28 -9 -113 -8h-224h-163q-92 -3 -137 4v-70q51 4 73 5q28 1 62 1h133v-69h-119
q-65 -1 -101 8v-72q53 8 101 8h119v-69h-296q1 257 -19 364q-16 106 -78 199q-46 -28 -85 -32q68 -82 86 -174q22 -90 21 -314q0 -86 -6 -115zM500 604q93 0 93 8q0 2 -3 7q-11 16 -11 38v18h133q43 0 111 -4v67h-4q-56 -3 -107 -3h-133v73h187q110 0 145 -6v73
q-63 -8 -141 -8h-429q-79 0 -127 6v-71q41 0 123 6h169v-75h-125q-72 0 -107 4v-70q42 6 107 6h125v-16q0 -17 -4 -41q-1 -8 -2 -12zM464 -4q98 -3 107 6q0 3 -4 9q-17 23 -17 69v71h230v-45q0 -45 -6 -72q81 -5 99 6q0 2 -3 7q-15 21 -15 65v33q-1 39 8 68q-59 -3 -53 -2
h-32h-46h-462q-64 0 -111 6q6 -22 6 -68v-55q-1 -44 -6 -60q97 -3 105 6q0 2 -4 5q-20 18 -20 53v53h234v-65q1 -72 -10 -90z" />
</svg>
