<?xml version="1.0" standalone="no"?>
<!DOCTYPE svg PUBLIC "-//W3C//DTD SVG 1.1//EN" "http://www.w3.org/Graphics/SVG/1.1/DTD/svg11.dtd" >
<svg xmlns="http://www.w3.org/2000/svg" xmlns:xlink="http://www.w3.org/1999/xlink" version="1.1" viewBox="-10 0 1010 1000">
   <path fill="currentColor"
d="M696 -6q21 46 30 106h119q87 0 107 -6v81q-52 -8 -119 -8h-311q-68 0 -89 6v-79q29 6 89 6h125q-15 -57 -38 -88zM480 225q24 6 72 6h234q45 0 93 -4q-4 19 -4 65v66q0 47 4 67q-33 -4 -97 -4h-211q-69 -1 -93 4q6 -30 6 -73v-68q0 -30 -4 -59zM560 294v64h240v-64h-240z
M813 477q40 0 88 -6v83q-77 10 -179 77v18h137q51 -1 97 -4v76q-37 -6 -97 -6h-137v127q3 48 -20 58q-18 12 -117 19q1 -49 -33 -91q104 23 95 -36v-77h-127q-67 0 -80 6v-78q31 6 88 6h119v-49l113 -60h-177q-50 0 -96 5q-12 1 -15 1v-75q2 0 7 1q33 5 108 5h226zM198 8h10
q85 4 82 10q0 1 -2 5q-16 39 -16 124v504l59 -10v-337q0 -99 -6 -123q6 1 20 2q81 7 78 12q0 2 -3 6q-21 28 -21 109v347q0 74 6 143h-80q6 -33 6 -85l-190 27q-4 1 -11 2q-47 9 -61 14q0 -17 1 -47q1 -21 1 -30v-397q0 -32 -1 -80q-1 -24 -1 -33q72 2 88 14q0 2 -3 7
q-15 30 -15 90v387l65 -12v-504q0 -121 -6 -145z" />
</svg>
