<?xml version="1.0" standalone="no"?>
<!DOCTYPE svg PUBLIC "-//W3C//DTD SVG 1.1//EN" "http://www.w3.org/Graphics/SVG/1.1/DTD/svg11.dtd" >
<svg xmlns="http://www.w3.org/2000/svg" xmlns:xlink="http://www.w3.org/1999/xlink" version="1.1" viewBox="-10 0 1034 1024">
  <g transform="matrix(1 0 0 -1 0 820)">
   <path fill="currentColor"
d="M415 100v-149q0 -19 -13 -28q-15 -12 -45 -12q-12 0 -20 1q-10 0 -26 3q12 -25 17 -48q31 3 53 9q16 3 29 8q42 16 43 68l1 457q1 24 5 47q-30 0 -60 -5h-177q-30 4 -51 5q1 -33 5 -66l-1 -265l-7 -53q-15 -69 -39 -118q-24 -42 -77 -84q27 -3 48 -14q3 -3 7 -4
q24 31 44 64q15 27 29 61q22 64 30 123h205zM213 136v122h202v-122h-202zM213 294v121h202v-121h-202zM793 553q33 -1 66 -6q-4 52 -5 105q0 18 3 40q3 19 15 37h-61q4 -70 5 -110v-30h-277v114q0 10 3 27q1 19 14 40h-60q1 -33 5 -66v-115h-284q0 73 3 83q0 9 5 20
q0 7 11 21h-61q4 -49 5 -86q-3 -39 -5 -80q30 6 59 6h559zM833 105v-190q0 -18 -13 -27q-18 -6 -51 -7q-21 0 -44 5q13 -30 17 -47q81 9 111 26q18 10 18 50l1 496l4 49q-34 -1 -69 -5l-182 1q-19 3 -47 4l6 -67l-1 -285l-12 -77q-7 -30 -21 -59q-15 -30 -37 -59
q-18 -21 -46 -41q33 -9 53 -22q24 31 55 89q34 69 45 166h213zM621 141v122h212v-122h-212zM621 299v120h212v-120h-212z" />
  </g>

</svg>
