<?xml version="1.0" standalone="no"?>
<!DOCTYPE svg PUBLIC "-//W3C//DTD SVG 1.1//EN" "http://www.w3.org/Graphics/SVG/1.1/DTD/svg11.dtd" >
<svg xmlns="http://www.w3.org/2000/svg" xmlns:xlink="http://www.w3.org/1999/xlink" version="1.1" viewBox="-10 0 1010 1000">
   <path fill="currentColor"
d="M456 -8q96 6 96 14q1 1 -2 4q-10 16 -10 46v91h236q0 -72 -1 -95q-1 -30 -3 -42q88 7 99 18q1 2 -5 10q-11 16 -11 28v85q0 53 4 72q-33 -3 -93 -5q-29 0 -65 -1h-88h-226q-163 0 -236 6q7 -31 4 -110q0 -72 -6 -97q79 -4 105 6q0 3 -5 10q-15 24 -15 48v67h226v-85
q0 -55 -4 -70zM218 229q91 7 95 13q0 2 -2 6q-17 29 -17 115h49q65 0 90 -5v79q-48 -6 -94 -6h-47v329q0 112 6 145h-90q9 -50 12 -143v-190q-71 121 -141 188q-15 -43 -47 -85q123 -87 188 -244h-57q-6 0 -18 1q-54 4 -72 7v-81q33 6 90 7h61q0 -113 -6 -136zM772 240
q11 187 186 274q-25 19 -65 66q-5 7 -8 10q-166 -147 -197 -342q28 -4 78 -8h6zM544 254q91 27 97 38q0 1 -4 3q-18 10 -32 37q-85 170 -139 242q-26 -27 -75 -48q105 -76 153 -272zM619 467q90 31 91 43q-4 4 -10 9q-14 8 -35 47q-64 107 -139 200l248 -8q-25 -45 -66 -87
q42 -18 72 -30q85 119 131 209q-2 1 -7 3q-40 17 -71 34q-7 -20 -25 -60q-4 -9 -6 -13q-231 8 -344 36l-37 -94q96 -26 198 -289zM347 502q57 63 95 119l-69 40q-23 -48 -79 -123z" />
</svg>
