<?xml version="1.0" standalone="no"?>
<!DOCTYPE svg PUBLIC "-//W3C//DTD SVG 1.1//EN" "http://www.w3.org/Graphics/SVG/1.1/DTD/svg11.dtd" >
<svg xmlns="http://www.w3.org/2000/svg" xmlns:xlink="http://www.w3.org/1999/xlink" version="1.1" viewBox="-10 0 1010 1000">
   <path fill="currentColor"
d="M631 -6q12 3 35 8q70 14 64 20q-1 4 -8 9q-12 9 -18 23q-19 49 -21 61h160q87 -4 117 -7v77q-29 -6 -113 -6h-73q47 107 212 163q-38 28 -59 75q-4 -2 -13 -7q-20 -10 -27 -13q-9 39 -10 86v109q1 36 6 113q-39 -4 -119 -6h-68v75q-1 38 10 45q11 11 56 9q60 0 70 -16
q14 -12 21 -87q30 42 85 57q-16 74 -36 96q-19 24 -65 23h-125q-58 1 -69 -16q-15 -14 -14 -83v-103h-89q-1 51 4 71h-86q9 -46 10 -158v-135q0 -73 -6 -88l-16 14q-28 -33 -55 -53v279q0 126 6 163h-82q0 -3 1 -8q5 -28 7 -69l-174 18q-36 3 -91 11q9 -81 9 -176v-282
q-1 -85 -5 -113q12 1 35 4q64 5 62 12q0 1 -3 5q-23 28 -23 94v383l67 -6v-448q0 -149 -8 -203q97 8 98 18q0 2 -4 8q-20 26 -20 70v549l59 -8v-385q2 -45 -6 -93q81 4 92 16q0 2 -3 8q-17 29 -17 79v64q110 -47 180 -163h-37q-64 1 -109 8v-77q24 5 105 5h71
q18 -45 30 -119zM702 177h-47q-67 118 -165 194q52 6 73 6h66q0 -88 -4 -109l39 3q61 3 60 9q0 1 -3 5q-25 27 -25 92h82q51 0 69 -6q-74 -59 -145 -194zM540 433v75h89v-75h-89zM696 433v75h110v-75h-110zM540 560v83h89v-83h-89zM696 560v83h110v-83h-110z" />
</svg>
