<?xml version="1.0" standalone="no"?>
<!DOCTYPE svg PUBLIC "-//W3C//DTD SVG 1.1//EN" "http://www.w3.org/Graphics/SVG/1.1/DTD/svg11.dtd" >
<svg xmlns="http://www.w3.org/2000/svg" xmlns:xlink="http://www.w3.org/1999/xlink" version="1.1" viewBox="-10 0 1010 1000">
   <path fill="currentColor"
d="M254 227q82 19 95 33q0 3 -7 9q-22 17 -38 45h101q46 0 87 -4v73h-5q-53 -4 -88 -4h-133q-72 109 -107 143l125 -8v-24q1 -45 -4 -71q101 0 103 8q1 5 -7 15q-15 21 -15 46v22q82 -4 131 -12v74q-51 -5 -133 0v85q74 -7 141 -18q-19 46 -20 76q-60 0 -121 12v55
q0 67 4 115h-85q6 -29 6 -111v-49q-185 25 -203 41q-8 -27 -21 -74l-6 -21q68 2 230 -16v-95q-174 11 -195 24q-1 -44 -24 -82q68 -31 120 -133h-46q-55 0 -83 6v-75q46 4 97 4h67q24 -51 34 -89zM853 276q41 66 44 93q-1 2 -13 -1q-27 -7 -45 -6l-45 3q-139 11 -175 10
l-2 113h224q60 0 103 -7v77q-29 -6 -93 -6h-34v212q0 91 8 133h-97q10 -47 10 -137v-208h-123q-2 195 -95 351q-32 -25 -91 -45q72 -68 94 -159q26 -90 25 -288q0 -61 -6 -93q203 -6 311 -42zM460 -23q102 1 109 10q0 3 -4 9q-17 26 -17 78v81h232v-53q0 -50 -6 -80
q90 -3 99 6q0 3 -3 8q-15 25 -15 76v37q-1 45 8 76q-24 -2 -55 -3q-15 -1 -33 -1h-47h-466q-63 0 -111 6q9 -22 8 -74v-63q0 -49 -6 -68q97 -3 105 6q0 2 -5 7q-19 20 -19 59v61h236v-75q1 -79 -10 -103z" />
</svg>
