<?xml version="1.0" standalone="no"?>
<!DOCTYPE svg PUBLIC "-//W3C//DTD SVG 1.1//EN" "http://www.w3.org/Graphics/SVG/1.1/DTD/svg11.dtd" >
<svg xmlns="http://www.w3.org/2000/svg" xmlns:xlink="http://www.w3.org/1999/xlink" version="1.1" viewBox="-10 0 1010 1000">
   <path fill="currentColor"
d="M135 252q42 6 137 6h466q87 0 137 -6q-6 48 -6 141v383q0 90 6 131h-99q4 -27 4 -55h-558q0 41 2 57h-89q4 -42 4 -97v-445q0 -66 -4 -115zM222 322v462h560v-462h-248v85h115q48 -1 77 -4v62q-23 -6 -77 -6h-115v77h75h43q12 -1 27 -2q-5 10 -4 68v65q0 41 4 64
q-20 -4 -74 -4h-212q-56 -1 -78 4v-5q4 -42 4 -65v-67q0 -25 -4 -64q34 7 76 6h67v-77h-103q-67 0 -85 4v-62q43 6 85 6h103v-85h-236zM391 592v79h212v-79h-212zM456 -19q105 0 109 7q0 3 -5 8q-18 22 -18 66v67h234v-43q0 -44 -6 -68q58 0 76 1q23 1 23 3q0 3 -4 8
q-14 21 -14 64v31q0 38 8 64q-24 -2 -55 -3q-15 -1 -33 -1h-47h-133h-333q-63 -1 -111 8q9 -20 8 -66v-51q-1 -50 -6 -66q101 4 105 12q1 2 -5 9q-19 23 -19 47v51h236v-63q1 -65 -10 -85z" />
</svg>
