<?xml version="1.0" standalone="no"?>
<!DOCTYPE svg PUBLIC "-//W3C//DTD SVG 1.1//EN" "http://www.w3.org/Graphics/SVG/1.1/DTD/svg11.dtd" >
<svg xmlns="http://www.w3.org/2000/svg" xmlns:xlink="http://www.w3.org/1999/xlink" version="1.1" viewBox="-10 0 1034 1024">
  <g transform="matrix(1 0 0 -1 0 820)">
   <path fill="currentColor"
d="M246 67q-7 4 -15 7q-15 6 -29 16q-15 -48 -51 -102q-48 -67 -85 -95q18 -7 46 -28q27 34 52 70t54 87q15 27 42 39zM794 575l69 -6q-6 69 -6 103q0 39 7 52q3 7 8 15h-58l6 -86v-43h-291v93q0 18 4 32q1 18 12 32h-58l5 -101v-56h-290v61q0 18 3 34q1 13 12 31h-57
q1 -18 5 -38q-1 -10 1 -27q0 -42 -3 -63q-3 -3 -3 -39l68 6h566zM205 223q0 -3 -4 -36q0 -15 -2 -38q36 3 72 5l502 -1q16 0 49 -4l-6 63l1 231q1 25 5 52q-19 -1 -35 -2q-22 -3 -33 -4l-499 1q-30 4 -56 5q0 -36 5 -63zM241 190v113h251v-113h-251zM241 339v115h251v-115
h-251zM529 190v113h250v-113h-250zM529 339v115h250v-115h-250zM371 31q0 18 2 34q1 15 12 32h-57q1 -33 5 -66l1 -110q1 -13 9 -28q15 -22 48 -31q43 -10 146 -11q114 0 154 14q39 15 59 63q10 24 19 67q-3 0 -11 4q-1 0 -4 2q-19 6 -23 8q-3 1 -16 11q1 -21 2 -41
q0 -15 -5 -34q-9 -27 -32 -39q-13 -6 -47 -12q-36 -3 -93 -3q-87 0 -125 8q-43 9 -44 52v80zM603 36q-94 84 -103 93l-31 -30q30 -24 61 -52q30 -28 60 -61q12 21 30 35q-9 7 -17 15zM767 68q51 -42 85 -75q30 -30 71 -83q12 12 34 37q-103 103 -157 151q-16 -18 -33 -30v0z
" />
  </g>

</svg>
