<?xml version="1.0" standalone="no"?>
<!DOCTYPE svg PUBLIC "-//W3C//DTD SVG 1.1//EN" "http://www.w3.org/Graphics/SVG/1.1/DTD/svg11.dtd" >
<svg xmlns="http://www.w3.org/2000/svg" xmlns:xlink="http://www.w3.org/1999/xlink" version="1.1" viewBox="-10 0 1010 1000">
   <path fill="currentColor"
d="M476 590h-111l-28 65q39 11 86 30q32 -37 53 -95zM772 207q27 18 55 61l-55 24h57q60 0 109 -6v70q-18 -2 -43 -3q-12 -1 -28 -1h-40h-166q6 148 49 275q56 -151 58 -216q71 15 97 34q0 3 -6 8q-13 10 -18 24q-56 164 -89 226q57 74 107 97q20 3 22 -93q17 19 49 36
q15 9 26 15q-15 149 -67 151q-82 -17 -183 -143q-74 89 -131 133q-56 -44 -79 -47q94 -58 169 -149q-66 -125 -82 -351h-369q1 57 -6 182h105l28 -73h-20q-35 1 -79 8v-70q27 3 77 4h131q51 -1 84 -4v68q-42 -6 -84 -6h-37l-28 71h95q41 -1 95 -6q-29 118 -79 185
q10 4 28 14q34 16 59 27l-59 64q-2 -1 -6 -4q-49 -35 -78 -48q-81 73 -208 117q-23 -48 -63 -77q118 -14 206 -73q-83 -33 -129 -46q24 -48 48 -95h-90q-21 175 -107 289q-57 -27 -89 -35q83 -82 103 -162q25 -83 24 -285q0 -20 -5 -105q-1 -7 -1 -10q49 10 109 10h343
q-4 -35 -4 -87q94 8 92 12q1 3 -2 13q-10 27 -10 62h103q-20 -40 -48 -63zM448 -12q92 2 106 12q0 3 -4 7q-16 19 -16 65v69h230v-43q0 -45 -6 -72q92 1 99 10q0 2 -3 6q-15 18 -15 62v33q-1 39 8 68q-24 -2 -55 -3q-15 -1 -33 -1h-47h-460q-67 0 -109 8q6 -22 6 -68v-55
q-1 -44 -6 -60q91 1 99 10q0 2 -3 6q-15 25 -15 60v39h234v-63q1 -72 -10 -90z" />
</svg>
