<?xml version="1.0" standalone="no"?>
<!DOCTYPE svg PUBLIC "-//W3C//DTD SVG 1.1//EN" "http://www.w3.org/Graphics/SVG/1.1/DTD/svg11.dtd" >
<svg xmlns="http://www.w3.org/2000/svg" xmlns:xlink="http://www.w3.org/1999/xlink" version="1.1" viewBox="-10 0 1010 1000">
   <path fill="currentColor"
d="M165 258q23 6 89 6h452q91 0 119 -6q-6 35 -6 86v146q0 74 4 118q-27 -5 -93 -4h-490q-51 0 -79 4q8 -51 8 -80v-194q0 -29 -4 -76zM248 328v73h206v-73h-206zM534 328v73h206v-73h-206zM534 465v75h206v-75h-206zM248 465v75h206v-75h-206zM534 623q29 43 61 129l-85 26
q-25 -86 -56 -135zM770 631q74 52 178 169l-75 60q-79 -101 -173 -175zM286 633q96 0 99 10q1 3 -4 8q-14 15 -14 42v99q-1 26 16 31q12 6 83 5h99q103 7 110 -97q32 34 85 57q-28 71 -58 92q-25 21 -93 19h-176q-94 1 -118 -12q-28 -11 -27 -53v-107q0 -23 -1 -59
q-1 -25 -1 -35zM143 657q79 18 91 24q-16 28 -43 103q-27 71 -44 107q-44 -22 -91 -29q79 -99 87 -205zM446 -23q108 1 112 8q0 3 -4 9q-18 26 -18 74v75h234v-49q0 -46 -6 -76q84 2 97 12q0 3 -3 9q-13 24 -13 65v35q-1 41 8 72q-24 -2 -55 -3q-15 -1 -33 -1h-47h-472
q-63 -1 -111 8q9 -23 8 -72v-61q-1 -45 -6 -64q88 2 101 12q0 2 -4 7q-16 21 -16 57v49h238v-69q1 -76 -10 -97z" />
</svg>
