<?xml version="1.0" standalone="no"?>
<!DOCTYPE svg PUBLIC "-//W3C//DTD SVG 1.1//EN" "http://www.w3.org/Graphics/SVG/1.1/DTD/svg11.dtd" >
<svg xmlns="http://www.w3.org/2000/svg" xmlns:xlink="http://www.w3.org/1999/xlink" version="1.1" viewBox="-10 0 1010 1000">
   <path fill="currentColor"
d="M581 -2q94 5 106 20q-1 4 -8 13q-16 18 -18 33q-5 23 -9 61q-2 28 -5 44h176q77 0 108 -8v85q-31 -7 -104 -8h-188q-22 161 -177 278q-23 -38 -69 -61q141 -61 170 -217h-63q-57 0 -87 8v72q-22 -4 -42 -5q-17 -1 -52 -1h-31v95l63 -24q18 28 67 128q9 18 13 27l-80 26
q-31 -95 -63 -141v351q1 72 6 115h-90q8 -59 8 -115v-311q-57 129 -143 238q-21 -42 -51 -82q113 -90 184 -307h-63q-73 0 -97 6v-83q30 5 95 5h79v-117q-25 3 -75 12q-39 6 -54 8q-5 -34 -35 -81q151 11 339 -58q12 18 33 47q28 37 22 37q-2 1 -10 1q-51 -4 -146 17v136h29
q66 -3 86 -5v-78q35 8 97 10h71q8 -64 8 -171zM790 16q15 24 43 67q18 26 26 38l-75 36q-25 -57 -64 -109zM659 252q87 4 91 10q0 4 -4 13q-10 25 -10 57v49q0 32 8 39q5 8 36 7q45 1 58 -19q14 -16 15 -78q37 44 87 49q-20 78 -49 99q-28 24 -101 22q-89 0 -105 -16
q-22 -12 -20 -75v-75q0 -61 -6 -82zM603 496q98 7 95 14q0 4 -4 11q-13 29 -13 75v174h123v-123q0 -62 -4 -81q8 1 23 3q80 8 78 15q1 2 -3 6q-15 21 -15 59v159q0 63 6 89h-89q5 -8 4 -61h-254q-99 1 -141 6q5 -31 6 -94v-127q-1 -36 -6 -59q95 7 95 14q1 2 -3 9
q-13 22 -13 50v135h121v-180q0 -70 -6 -94z" />
</svg>
