<?xml version="1.0" standalone="no"?>
<!DOCTYPE svg PUBLIC "-//W3C//DTD SVG 1.1//EN" "http://www.w3.org/Graphics/SVG/1.1/DTD/svg11.dtd" >
<svg xmlns="http://www.w3.org/2000/svg" xmlns:xlink="http://www.w3.org/1999/xlink" version="1.1" viewBox="-10 0 1010 1000">
   <path fill="currentColor"
d="M206 2q83 3 84 10q1 2 -1 7q-15 35 -15 116v498l55 -6v-349q0 -71 -6 -109q67 -1 88 12q1 3 -3 8q-15 25 -15 83v363q1 72 6 123h-74q4 -32 4 -71q-209 21 -242 36q7 -53 6 -113v-336v-15q1 -73 -6 -106q55 2 84 10q1 1 -1 6q-13 35 -13 95v383l57 -6v-500q0 -93 -8 -139
zM929 56v75q-40 -6 -110 -6h-61v88q92 0 137 -6q-6 31 -6 122q0 90 6 128q-30 -6 -113 -6h-139q57 20 55 28q-1 3 -6 6q-19 11 -37 45h166q78 0 121 -6v80q-47 -6 -107 -6q-33 89 -81 144q41 21 114 54q37 17 57 26l-56 71q-84 -65 -167 -101q-88 60 -275 111
q-5 -50 -52 -83q150 -7 254 -62q-77 -35 -143 -59q39 -50 60 -101q-75 0 -127 6v-80q38 6 105 6h53q26 -59 32 -79h-57q-72 0 -108 6q7 -33 8 -125q-1 -92 -8 -125q42 6 131 6v-88h-45q-66 -1 -111 6v-75q35 6 113 6h287q68 0 110 -6zM696 125h-61v88h61v-88zM829 272h-71
v117h71v-117zM575 272h-63v117h63v-117zM696 272h-61v117h61v-117zM758 598h-135q-19 36 -42 75q20 9 57 26q30 12 47 20q44 -53 73 -121z" />
</svg>
