<?xml version="1.0" standalone="no"?>
<!DOCTYPE svg PUBLIC "-//W3C//DTD SVG 1.1//EN" "http://www.w3.org/Graphics/SVG/1.1/DTD/svg11.dtd" >
<svg xmlns="http://www.w3.org/2000/svg" xmlns:xlink="http://www.w3.org/1999/xlink" version="1.1" viewBox="-10 0 1034 1024">
  <g transform="matrix(1 0 0 -1 0 820)">
   <path fill="currentColor"
d="M123 52v439q0 6 2 25q1 19 12 36h-57q3 -9 3 -13q0 1 2 -23v-459q-4 -15 -5 -40v-6q37 6 57 8l197 20q-1 -48 -5 -61h48q-3 24 -5 47l1 485q0 15 4 26q1 10 8 18h-56q0 -12 2 -14q0 1 2 -23l1 -442q-43 -4 -86 -11v634q0 4 2 23q1 19 12 36h-59q0 -6 3 -13q3 -21 3 -46
v-636q-43 -4 -86 -10zM341 -121q1 0 5 -1l27 -6q48 87 72 144q34 93 43 219q4 88 5 162v76l404 -1l47 -4q-1 21 -4 34q-3 24 -3 33v128q0 6 3 31l4 34q-60 -4 -65 -5l-386 1q-15 3 -44 4q6 -63 6 -84l-1 -333l-9 -139l-3 -19q-16 -102 -63 -186q-28 -51 -65 -82zM493 509
v178h182v-178h-182zM714 509v178h185v-178h-185zM556 -94q0 -36 -5 -56h47q-4 45 -5 70v9h298v-21q0 -36 -5 -55h48q-3 27 -5 55l1 435l4 46q-30 -1 -59 -5l-281 1q-3 0 -43 4q4 -49 5 -63v-420zM593 247v101h298v-101h-298zM593 112v99h298v-99h-298zM593 -35v111h298v-111
h-298z" />
  </g>

</svg>
