<?xml version="1.0" standalone="no"?>
<!DOCTYPE svg PUBLIC "-//W3C//DTD SVG 1.1//EN" "http://www.w3.org/Graphics/SVG/1.1/DTD/svg11.dtd" >
<svg xmlns="http://www.w3.org/2000/svg" xmlns:xlink="http://www.w3.org/1999/xlink" version="1.1" viewBox="-10 0 1034 1024">
  <g transform="matrix(1 0 0 -1 0 820)">
   <path fill="currentColor"
d="M97 109l1 392q0 12 13 39h-56q0 -6 1 -9q0 -16 4 -57l-1 -356q-3 -19 -4 -53q33 6 69 10l174 15v-25q0 -18 -5 -46h48q-3 16 -3 35q0 22 -2 46v371q0 16 2 34q1 13 12 32h-57l4 -36l1 -375q-42 -3 -83 -8v543q0 16 2 33q1 15 12 32h-57q0 -3 1 -8q0 -15 4 -57v-545
q-40 -3 -80 -7zM291 -46q3 0 6 -3q-1 1 10 -7q18 -12 23 -14q46 30 117 89q84 73 162 167l-3 -331q-1 -3 -3 -10h49q-3 33 -5 66v310q27 -37 45 -56q55 -58 106 -105q9 -9 71 -53q36 -27 64 -43q18 18 38 33q3 3 9 5q-25 6 -38 13q-15 6 -54 31q-84 54 -157 136l-49 58
q-16 22 -35 51v229l238 -3q4 0 10 -2v47q-54 -6 -65 -6h-183v126q30 3 171 27q13 1 39 2q1 0 6 -1q-15 16 -24 32q-3 6 -11 18q-30 -10 -58 -18q-33 -7 -85 -16q-58 -9 -108 -13q-90 -6 -142 -6l-37 3q9 -9 21 -32q3 -6 10 -15l180 15v-122l-211 1q-18 3 -20 3l-6 2v-47
l33 4l204 1v-259q-19 -34 -48 -71q-52 -63 -101 -107q-66 -57 -108 -87q-36 -24 -72 -35q4 -3 11 -7zM374 214q21 9 34 14q13 3 27 10q31 13 63 25q0 -25 -5 -61h47q-1 3 -1 5q0 3 -2 10l-2 80l1 130q0 4 1 7q1 15 12 32h-56q0 -3 1 -8l4 -64l-119 3q-3 1 -14 2v-46l34 4
l99 1v-57q-27 -7 -72 -26q-51 -12 -73 -16zM760 398q0 16 2 34q1 13 12 32h-56l4 -36q0 -162 3 -176q4 -19 18 -29q21 -12 68 -12q22 0 45 2q30 3 41 15q13 13 36 63q-30 19 -46 32q-3 -39 -9 -53q-9 -19 -56 -20q-45 0 -55 9q-6 6 -7 29v44l91 36q30 12 61 11q-9 15 -12 19
q-6 18 -16 33q-69 -46 -124 -63v30z" />
  </g>

</svg>
