<?xml version="1.0" standalone="no"?>
<!DOCTYPE svg PUBLIC "-//W3C//DTD SVG 1.1//EN" "http://www.w3.org/Graphics/SVG/1.1/DTD/svg11.dtd" >
<svg xmlns="http://www.w3.org/2000/svg" xmlns:xlink="http://www.w3.org/1999/xlink" version="1.1" viewBox="-10 0 1010 1000">
   <path fill="currentColor"
d="M452 -4q22 2 61 3q46 -1 43 7q0 2 -2 5q-20 32 -18 130h228q0 -89 -6 -121q15 2 46 5q58 6 55 9q1 3 -5 8q-17 16 -17 50v51q1 39 4 66q-54 -6 -139 -8h-140q124 129 402 139q-46 47 -61 89q-142 -35 -234 -73v55q-18 -6 -117 -6h-143q-99 3 -105 6v-49q-92 48 -215 89
q-21 -39 -67 -74q223 -29 399 -176h-141q-93 3 -135 8q6 -18 6 -96q0 -73 -6 -91q17 2 48 6q59 6 55 12q0 3 -3 8q-18 27 -19 93h232q0 -82 -6 -145zM498 227q-5 4 -18 14q-80 64 -137 95q36 8 99 8h86q79 -1 109 -4q-69 -40 -139 -113zM752 439q21 3 55 7q38 3 38 7
q1 2 -1 8q-11 26 -11 71v292q2 55 -21 66q-17 14 -118 19q0 -40 -35 -91q67 14 83 6q17 -4 16 -42v-242q0 -76 -6 -101zM143 453q27 6 127 6h117q24 -1 62 -2q26 -2 53 -2q-7 32 -10 109v236q2 61 -24 80q-27 23 -103 27q0 -36 -36 -89q62 13 76 5q17 -5 16 -45v-36h-201v32
q0 87 4 121h-87q12 -32 12 -164v-161q-1 -73 -6 -117zM581 477q91 4 94 11l-1 3q-17 29 -17 67v111q0 84 6 105h-86q5 -45 8 -115v-73v-18q1 -70 -4 -91zM220 518v56h201v-56h-201zM220 629v54h201v-54h-201z" />
</svg>
