<?xml version="1.0" standalone="no"?>
<!DOCTYPE svg PUBLIC "-//W3C//DTD SVG 1.1//EN" "http://www.w3.org/Graphics/SVG/1.1/DTD/svg11.dtd" >
<svg xmlns="http://www.w3.org/2000/svg" xmlns:xlink="http://www.w3.org/1999/xlink" version="1.1" viewBox="-10 0 1010 1000">
   <path fill="currentColor"
d="M758 12q96 28 91 36q-1 2 -5 5q-23 17 -56 88h29q48 1 108 -6v80q-17 -4 -68 -5q-24 0 -34 -1h-111q-4 30 -8 75h92q74 -3 107 -6v76q-17 -2 -65 -3q-31 0 -40 -1h-102q-1 8 -6 36q-6 31 -9 51h156q78 -3 109 -8v83q-27 -7 -107 -8h-178q-30 60 -48 90h191q67 0 97 -6v77
q-54 -4 -103 -6h-72v147h97q18 -1 45 -1q50 0 67 -5v81q-22 -5 -112 -8h-271q-78 -3 -108 6v-81q17 5 104 8h101v-147h-80q-32 51 -79 99q-33 -42 -77 -55v32q1 69 8 105h-88q6 -21 8 -94q-230 32 -278 50q5 -55 8 -123v-355q0 -79 -6 -101q92 0 94 12q1 3 -3 9
q-13 21 -13 50v419l65 -10v-532q-2 -81 -8 -117q97 -1 94 8q0 1 -2 5q-14 20 -14 72v556l63 -8v-345v-7q1 -91 -4 -112q93 3 94 12q0 1 -2 5q-16 31 -16 92v371q106 -64 170 -193h-43l-103 6v-79q17 3 75 5q26 0 40 1h57q12 -37 20 -87h-56q-51 1 -109 6v-76q12 3 47 4
q37 1 58 0h68q2 -23 5 -63q1 -8 1 -12h-101q-50 1 -100 6v-80q15 4 64 5q25 0 36 1h25q-11 -45 -51 -97l79 -28q24 42 48 96l-74 29h147q35 -77 42 -129z" />
</svg>
