<?xml version="1.0" standalone="no"?>
<!DOCTYPE svg PUBLIC "-//W3C//DTD SVG 1.1//EN" "http://www.w3.org/Graphics/SVG/1.1/DTD/svg11.dtd" >
<svg xmlns="http://www.w3.org/2000/svg" xmlns:xlink="http://www.w3.org/1999/xlink" version="1.1" viewBox="-10 0 1010 1000">
   <path fill="currentColor"
d="M522 181q17 34 20 65h264q31 0 84 -1q35 -1 48 -1v68q-38 -6 -128 -6h-661q-70 0 -99 6v-72q43 6 97 6h315q-10 -33 -24 -51zM230 354q33 6 78 6h377q56 0 77 -6q-4 20 -4 53v58q-1 37 4 55q-24 -5 -81 -4h-369q-55 0 -84 4q4 -30 4 -71v-44q0 -11 -1 -29q-1 -15 -1 -22z
M687 411h-383v54h383v-54zM129 556q36 3 105 4h544q38 0 93 -4q-4 25 -4 77v191q2 45 -24 58q-24 17 -119 29q-5 -54 -32 -91q108 27 100 -34v-171h-584v187q0 60 8 101h-91q8 -40 8 -95v-177q0 -35 -4 -75zM308 663q30 4 63 4h216q51 -1 90 -4q-2 15 -2 64v43q0 37 2 64
q-24 -5 -80 -4h-204q-62 0 -85 4q4 -33 4 -66v-55q0 -27 -4 -50zM379 719v59h228v-59h-228zM456 -8q96 5 96 14q0 2 -3 7q-11 18 -11 55v49h230v-43q0 -45 -2 -50q89 4 91 12q0 3 -3 8q-11 15 -11 48v21q-1 39 8 68q-24 -2 -55 -3q-15 -1 -33 -1h-47h-460q-67 0 -109 8
q6 -22 6 -68v-25q0 -11 -1 -38q-1 -22 -1 -28q89 2 95 12q0 2 -4 8q-14 21 -14 50v21h234v-63q0 -20 -6 -59v-3z" />
</svg>
