<?xml version="1.0" standalone="no"?>
<!DOCTYPE svg PUBLIC "-//W3C//DTD SVG 1.1//EN" "http://www.w3.org/Graphics/SVG/1.1/DTD/svg11.dtd" >
<svg xmlns="http://www.w3.org/2000/svg" xmlns:xlink="http://www.w3.org/1999/xlink" version="1.1" viewBox="-10 0 1034 1024">
  <g transform="matrix(1 0 0 -1 0 820)">
   <path fill="currentColor"
d="M431 162q-27 -54 -82 -111q-79 -78 -198 -127q-60 -25 -104 -31q19 -18 30 -31q0 -1 13 -15q126 52 221 120q102 72 165 195h53v-227q0 -45 24 -65q16 -12 60 -18l111 -3l117 6q6 1 13 2q31 4 58 28q27 27 50 110q-22 10 -49 33q0 -24 -3 -40q-6 -49 -28 -75
q-16 -15 -67 -21q-48 -3 -102 -4q-36 1 -70 2q-42 3 -58 9q-18 9 -18 47v216l209 -1l47 -4l-6 68l1 207q1 24 5 48q-39 -1 -79 -5h-359q9 13 15 16q42 42 77 50q-7 6 -17 12q-18 12 -32 25h355q9 0 33 -3q12 0 35 -3q-4 54 -5 82q0 49 3 53q1 13 12 25h-58q0 -6 1 -9
q0 -3 1 -6q0 -36 3 -75v-30h-286v86q0 15 2 33q3 18 13 32h-58q0 -3 1 -8q0 -1 1 -4l3 -139h-287q0 85 3 88q1 13 11 26h-56q0 -7 2 -12q0 -40 3 -82q0 -6 -3 -29q0 -12 -2 -31l73 6h187q-9 -19 -36 -52q-24 -30 -46 -51q-87 0 -114 2q-12 3 -45 3q1 -30 5 -63l-1 -221
q-1 -3 -2 -14q0 -12 -2 -25q36 3 74 5h183zM216 197v103h251q-3 -30 -8 -49q-4 -21 -14 -54h-229zM216 335v105h263l-8 -105h-255zM487 197q0 9 7 30q9 40 9 52q1 9 3 21h274v-103h-293zM510 335l11 105h259v-105h-270zM708 149q-6 -18 -22 -47q-19 -30 -60 -86
q-6 -9 -28 -18q12 -18 26 -48q24 12 77 23l123 25q9 -16 18 -33q12 10 35 23q-45 75 -81 122q-15 -12 -32 -20q22 -30 43 -63l-149 -24q12 15 20 27q39 57 54 73q13 15 32 16q-6 3 -14 8q-3 3 -8 4q-19 9 -34 18v0z" />
  </g>

</svg>
