<?xml version="1.0" standalone="no"?>
<!DOCTYPE svg PUBLIC "-//W3C//DTD SVG 1.1//EN" "http://www.w3.org/Graphics/SVG/1.1/DTD/svg11.dtd" >
<svg xmlns="http://www.w3.org/2000/svg" xmlns:xlink="http://www.w3.org/1999/xlink" version="1.1" viewBox="-10 0 1010 1000">
   <path fill="currentColor"
d="M190 16q13 1 36 3q46 2 48 7q2 2 -3 15q-17 47 -17 102v516l59 -6v-377q0 -18 -3 -105q77 0 81 8q1 2 -3 11q-15 37 -15 88v397q0 53 1 70q1 23 3 35h-65v-29q1 -22 1 -34q-174 12 -242 33q4 -32 4 -91v-347v-11q1 -88 -6 -122q7 0 21 1q67 2 65 9q1 2 -2 10
q-14 41 -14 111v363l55 -6v-524q0 -13 -2 -62q-1 -40 -2 -65zM738 20q-3 43 10 115q55 -41 89 -91q64 52 58 58q-1 4 -18 14q-52 31 -113 79q13 36 28 63q58 -50 95 -99l21 21q36 34 34 39q0 3 -13 9q-49 24 -108 70q54 58 141 87q-37 24 -67 72q-95 -70 -139 -131
q-78 -121 -87 -304zM766 504h-228v88h228v-88zM720 661q88 27 88 38q0 2 -8 11q-37 37 -68 98h85q60 0 108 -6v77q-48 -6 -106 -6h-339q-74 0 -115 6v-77q30 6 113 6h195q31 -67 47 -147zM579 671q24 54 40 103l-69 20q-11 -58 -38 -103zM744 389q-18 -6 -90 -6q-73 0 -96 6
v-33q-11 15 -49 63q-10 13 -15 20q29 4 77 4h151q70 0 111 -6q-6 28 -6 106t6 114q-43 -6 -177 -6q-135 0 -186 6q6 -39 6 -105t-6 -89q-5 4 -13 13q-10 11 -17 16q-29 -37 -61 -55q94 -62 127 -117q-58 -65 -83 -85l51 -48q1 1 3 4q35 47 63 73q30 -52 39 -115
q-117 0 -170 6v-71q120 12 244 0q-18 131 -80 242q24 6 82 5q61 -1 89 -7v65z" />
</svg>
