<?xml version="1.0" standalone="no"?>
<!DOCTYPE svg PUBLIC "-//W3C//DTD SVG 1.1//EN" "http://www.w3.org/Graphics/SVG/1.1/DTD/svg11.dtd" >
<svg xmlns="http://www.w3.org/2000/svg" xmlns:xlink="http://www.w3.org/1999/xlink" version="1.1" viewBox="-10 0 1010 1000">
   <path fill="currentColor"
d="M111 193q101 0 101 10q0 5 -8 13q-16 16 -16 34v28q60 -7 207 -67q48 55 49 69q-4 5 -21 4q-19 0 -32 2q-17 2 -103 17q-80 14 -100 17v38q-2 12 14 14q13 3 82 3q56 0 66 -1q19 -2 27 -7q17 -6 24 -65q27 28 69 44q-23 67 -50 75q-15 8 -43 10q-23 2 -93 2
q-123 1 -142 -12q-28 -9 -25 -69v-92q0 -40 -6 -67zM899 213v83q-70 -3 -203 125h131h56q21 -1 36 -2l-42 131l-85 -10q24 -37 35 -59h-103v131h86q44 0 83 -6v75q-33 -6 -76 -6h-93v141q116 15 232 -4q-28 39 -39 95q-210 -9 -275 -44q-68 -28 -104 -142q-29 84 -101 194
q-49 -34 -88 -38q140 -108 149 -315q102 16 103 24q0 4 -7 11q-19 21 -29 56q23 80 84 137v-309h-105q-59 -1 -76 4v-68q32 4 82 4h99q-36 -37 -111 -79l65 -38q45 34 70 59q60 -50 107 -85h-199q-72 -1 -93 4v-67q30 3 89 4h231q61 0 91 -6zM133 439q2 0 5 1q79 11 78 21
q0 3 -6 6q-14 8 -20 23h159q24 0 65 -2q12 -1 17 -1v63q-19 -5 -82 -4h-34q-5 54 -5 75h65q40 0 75 -6v68q-15 -5 -71 -6h-75l-6 18q57 28 115 73l-52 64q-41 -48 -87 -76q-72 106 -143 163q-19 -22 -67 -48q-11 -5 -16 -8q145 -63 184 -184h-97q-65 -1 -87 4v-66q38 6 87 6
h109q0 -1 1 -14q2 -37 3 -63h-83q-12 27 -28 58q-42 -14 -66 -14q34 -49 62 -151zM456 -21q76 2 96 13q0 3 -3 8q-11 18 -11 54v50h230v-44q0 -45 -2 -50q84 5 91 14q0 3 -3 8q-11 15 -11 46v22q-1 38 8 67q-24 -2 -55 -3q-15 -1 -33 -1h-47h-460q-67 0 -109 8q6 -22 6 -67
v-26q0 -11 -1 -38q-1 -22 -1 -28q78 3 95 14q0 2 -4 8q-14 22 -14 48v22h234v-64q0 -23 -6 -61z" />
</svg>
