<?xml version="1.0" standalone="no"?>
<!DOCTYPE svg PUBLIC "-//W3C//DTD SVG 1.1//EN" "http://www.w3.org/Graphics/SVG/1.1/DTD/svg11.dtd" >
<svg xmlns="http://www.w3.org/2000/svg" xmlns:xlink="http://www.w3.org/1999/xlink" version="1.1" viewBox="-10 0 1010 1000">
   <path fill="currentColor"
d="M635 191q10 2 31 6q62 10 58 18q-1 2 -5 3q-23 10 -38 44h129q45 0 93 -8q-6 27 -6 96v133q0 68 8 105q-27 -6 -78 -6h-121l-18 55q3 0 11 1q53 3 53 9q1 2 -2 7q-12 22 -12 63v79q-1 32 11 37q9 8 61 7q47 0 64 -15q18 -14 27 -63q20 30 71 52q-29 64 -56 76
q-26 16 -114 15q-87 1 -106 -12q-23 -9 -21 -55v-169q-66 129 -209 248q-44 -39 -89 -48q194 -90 264 -289h-81q0 28 3 39h-71q6 -36 6 -85v-165q0 -77 -6 -113q18 3 85 4h44q14 -44 14 -69zM401 205q45 43 49 67q-2 5 -22 2q-25 -4 -39 -2q-5 0 -31 3q-27 3 -46 5v66h81
q42 0 77 -6v63q-39 -2 -77 -2h-81v36q0 54 3 83h-77q10 -36 10 -77v-34q-52 81 -131 149q-16 -24 -61 -40q67 -34 134 -115h-47q-44 0 -74 6v-67q33 6 72 6h107v-62q-79 7 -137 14q-4 -28 -34 -67q78 6 182 -2q94 -9 142 -26zM562 316v73h101v-73h-101zM829 318h-103l-2 71
h105v-71zM373 423q37 26 91 83l-53 42q-20 -37 -84 -89zM562 447v77h91q1 -9 3 -28q3 -36 3 -49h-97zM829 447h-107q-1 17 -1 11q-5 75 -5 68h113v-79zM234 530q4 1 13 2q72 13 68 18q0 3 -8 10q-18 14 -27 32h105q53 0 89 -4q-39 95 -101 170q32 13 81 38l-51 54
q-14 -7 -33 -18q-26 -15 -51 -26q-92 65 -208 105q-21 -44 -55 -61q126 -29 198 -74q-68 -25 -147 -41q33 -37 70 -86h-38q-61 -1 -79 4v-65q29 3 77 4h69q27 -40 28 -62zM804 594q9 3 26 8q41 10 39 17q0 2 -5 7q-27 29 -58 89l87 -14q-9 -21 -24 -44l44 -16q30 70 51 103
l-49 18q-3 -4 -7 -15l-3 -9q-100 22 -127 38q-10 -21 -27 -50q-3 -6 -5 -9q51 -41 58 -123zM371 649h-129q-18 32 -38 56q12 1 104 28q38 -40 63 -84zM464 -31q98 -3 107 6q0 3 -4 8q-17 23 -17 69v71h230v-45q0 -45 -6 -72q101 -1 99 6q0 2 -3 7q-15 21 -15 65v33
q-1 39 8 68q-24 -2 -55 -3q-15 -1 -33 -1h-47h-460q-63 -1 -109 8q6 -22 6 -68v-55q-1 -44 -6 -60q104 -4 103 16q0 6 -8 15q-14 17 -14 33v53h234v-65q1 -71 -10 -89z" />
</svg>
