<?xml version="1.0" standalone="no"?>
<!DOCTYPE svg PUBLIC "-//W3C//DTD SVG 1.1//EN" "http://www.w3.org/Graphics/SVG/1.1/DTD/svg11.dtd" >
<svg xmlns="http://www.w3.org/2000/svg" xmlns:xlink="http://www.w3.org/1999/xlink" version="1.1" viewBox="-10 0 1034 1024">
  <g transform="matrix(1 0 0 -1 0 820)">
   <path fill="currentColor"
d="M124 284q21 -30 44 -65l76 -134l44 -77l27 -51q16 -33 33 -77q3 3 9 8q12 9 33 15q-24 37 -50 86l-128 224q-9 15 -42 76q31 60 68 139q36 79 65 154q24 63 35 79q7 15 36 37q-16 6 -29 12l-30 17q-10 -39 -29 -90q-22 -60 -63 -155q-46 -106 -99 -198zM596 -20l-60 112
l-112 212q42 88 87 194l46 115q3 12 11 24q12 27 36 41q-34 16 -57 33l-13 -46q-4 -18 -14 -41q-9 -30 -26 -73q-63 -165 -115 -251q22 -36 44 -74l70 -130l70 -136q19 -43 28 -73q12 7 20 12q3 1 25 8q-12 18 -16 31zM637 277q37 -57 112 -181q73 -132 85 -157l20 -48
q18 15 45 24q-30 51 -48 77l-60 103q-112 189 -122 206q33 63 68 139l60 137q22 55 33 72q9 16 36 36q-28 12 -59 31q-21 -78 -66 -182q-39 -88 -67 -144q-24 -46 -51 -92q6 -10 14 -21v0z" />
  </g>

</svg>
