<?xml version="1.0" standalone="no"?>
<!DOCTYPE svg PUBLIC "-//W3C//DTD SVG 1.1//EN" "http://www.w3.org/Graphics/SVG/1.1/DTD/svg11.dtd" >
<svg xmlns="http://www.w3.org/2000/svg" xmlns:xlink="http://www.w3.org/1999/xlink" version="1.1" viewBox="-10 0 1010 1000">
   <path fill="currentColor"
d="M308 36q99 24 101 38q-1 1 -3 2q-22 13 -43 57q-42 88 -155 300q120 222 197 381q-64 21 -101 46q-28 -179 -191 -421q115 -155 195 -403zM538 52q108 29 99 34q-1 2 -5 5q-18 12 -41 54q-27 51 -88 173q-37 75 -57 115q52 79 155 271q37 67 50 90q-59 19 -93 48
q-80 -256 -209 -405q87 -116 189 -385zM772 60q102 34 99 42q0 3 -5 5q-18 9 -33 38q-18 39 -148 290q101 153 208 337q-45 18 -95 54q-67 -216 -211 -385q113 -164 185 -381z" />
</svg>
