<?xml version="1.0" standalone="no"?>
<!DOCTYPE svg PUBLIC "-//W3C//DTD SVG 1.1//EN" "http://www.w3.org/Graphics/SVG/1.1/DTD/svg11.dtd" >
<svg xmlns="http://www.w3.org/2000/svg" xmlns:xlink="http://www.w3.org/1999/xlink" version="1.1" viewBox="-10 0 1034 1024">
  <g transform="matrix(1 0 0 -1 0 820)">
   <path fill="currentColor"
d="M501 210v-78l-419 4q-3 1 -6 1v-47q16 4 40 5l325 1q-12 -12 -44 -36q-24 -18 -52 -37q-52 -36 -97 -58q-49 -24 -88 -37q-40 -10 -75 -15l40 -47q115 46 197 95q84 52 179 134l-3 -235q0 -3 -1 -5q0 -1 -2 -10h49q0 6 -2 15q-3 54 -3 102v132q49 -45 98 -76
q60 -36 105 -60q45 -19 98 -38l70 -23q7 -3 16 -6q6 13 13 23q6 9 24 33q-189 6 -366 149l310 -1q22 0 41 -5v47q-24 -4 -69 -5h-340v78l249 -1q6 0 45 -6q-4 49 -5 71q0 153 2 165q0 18 3 37q-31 -1 -64 -5l-520 1q-3 0 -43 4q4 -54 5 -82l-1 -149q-3 -12 -4 -42q13 1 26 4
q24 3 33 3h236zM501 318v-74h-253v74h253zM248 355v81h253v-81h-253zM539 244v74h251v-74h-251zM539 355v81h251v-81h-251zM188 608q40 -34 78 -68l53 -51q13 24 31 39q-39 21 -106 82q22 27 39 49l27 31q18 19 40 34q-9 3 -17 8q-4 3 -8 5q-12 12 -26 20q-7 -21 -35 -61
q-39 -52 -76 -88zM432 602q81 -55 131 -103q16 24 34 38q-30 15 -58 34q-31 21 -52 38q3 3 6 7q3 3 10 11q28 33 54 60q10 9 18 16q7 4 19 12q-18 9 -26 14q-9 4 -21 20q-54 -82 -115 -147zM789 680q28 28 51 39q-15 7 -24 14l-22 21q-7 -9 -12 -17q-27 -36 -44 -55l-34 -37
q-15 -12 -29 -31q85 -66 135 -116q15 21 34 33q-52 33 -113 87q27 30 38 45q9 9 20 17v0z" />
  </g>

</svg>
