<?xml version="1.0" standalone="no"?>
<!DOCTYPE svg PUBLIC "-//W3C//DTD SVG 1.1//EN" "http://www.w3.org/Graphics/SVG/1.1/DTD/svg11.dtd" >
<svg xmlns="http://www.w3.org/2000/svg" xmlns:xlink="http://www.w3.org/1999/xlink" version="1.1" viewBox="-10 0 1010 1000">
   <path fill="currentColor"
d="M683 4q22 50 35 111h80q75 0 148 -7v85q-47 -6 -146 -6h-187q44 20 52 36q0 1 -8 5q-24 13 -42 30q-27 27 -55 58q-24 27 -44 47q92 -5 270 -13q-20 -27 -80 -86l58 -41q33 21 186 182l-79 50q-3 -3 -8 -10q-19 -27 -32 -40q-262 13 -398 32l-22 -81q80 -21 162 -169h-27
q-95 0 -129 8v-85q40 5 133 5h89q-14 -44 -54 -97zM73 82q40 8 115 10h94q9 0 50 -2q39 -1 65 -2q-35 73 -87 147q62 33 117 93l-68 57q-37 -61 -89 -105q-56 64 -169 143q-22 -38 -65 -61q167 -69 242 -203h-88q-86 1 -117 8v-85zM89 431q38 7 109 8h84q74 1 103 -6v77
q-33 -9 -103 -8v163q78 -18 129 -40l-6 88q-142 15 -340 79l-21 -99q68 2 162 -16v-173q-85 -1 -117 8v-81zM464 463q68 -1 92 8q0 3 -3 10q-10 21 -11 51q-3 156 -36 215q-30 66 -147 146q-2 -1 -5 -4q-43 -36 -88 -57q88 -18 151 -88q60 -73 47 -281zM740 467q73 2 91 10
q0 1 -1 4q-11 25 -11 73v204q1 35 6 41q4 8 24 7q32 0 39 -82q1 -10 1 -15q23 27 79 43q-23 106 -75 123q-22 5 -89 2q-73 6 -60 -101v-220q0 -65 -4 -89zM593 473q82 1 94 8q0 1 -2 5q-10 24 -10 78v198q-1 87 8 117h-94q11 -25 10 -121v-192q1 -65 -6 -93z" />
</svg>
