<?xml version="1.0" standalone="no"?>
<!DOCTYPE svg PUBLIC "-//W3C//DTD SVG 1.1//EN" "http://www.w3.org/Graphics/SVG/1.1/DTD/svg11.dtd" >
<svg xmlns="http://www.w3.org/2000/svg" xmlns:xlink="http://www.w3.org/1999/xlink" version="1.1" viewBox="-10 0 1010 1000">
   <path fill="currentColor"
d="M627 4q110 20 107 36q-2 7 -15 16q-44 30 -88 99q151 0 236 -10v80q-92 -5 -165 -6h-174q-3 14 -9 38q-8 29 -11 41h145q93 0 178 -8v77q-90 -5 -176 -5h-165q-20 57 -36 87h278q130 -1 181 -8v77q-42 -6 -175 -6h-315q-6 9 -16 25q-22 33 -38 55q43 4 68 5q31 1 83 1
h127q118 0 166 -6v81q-78 -4 -228 -4v133q234 0 308 -8v83q-78 -6 -201 -6h-281q-156 0 -191 6v-83q5 0 19 1q129 7 267 7v-135q-115 0 -157 6v-54q-99 119 -226 205q-20 -24 -74 -58l-9 -6q179 -83 295 -250q-133 0 -183 2q-50 1 -83 6v-77q1 -1 14 0q51 4 117 4h169
q15 -27 32 -69q4 -9 6 -14q-188 0 -249 5h-7v-73q61 4 278 4q3 -9 10 -38q7 -28 11 -41h-166q-95 0 -159 4v-74q7 0 21 1q93 5 203 5q-5 -24 -65 -107l75 -30q52 59 79 105l-57 32h169q2 -4 6 -11q28 -48 71 -140z" />
</svg>
