<?xml version="1.0" standalone="no"?>
<!DOCTYPE svg PUBLIC "-//W3C//DTD SVG 1.1//EN" "http://www.w3.org/Graphics/SVG/1.1/DTD/svg11.dtd" >
<svg xmlns="http://www.w3.org/2000/svg" xmlns:xlink="http://www.w3.org/1999/xlink" version="1.1" viewBox="-10 0 1034 1024">
  <g transform="matrix(1 0 0 -1 0 820)">
   <path fill="currentColor"
d="M502 -65l-390 1q-12 1 -26 2q-3 0 -13 3v-47q39 4 62 5l795 -1q15 0 27 -4v47l-61 -6h-356v700h321q42 0 60 -6v47q-12 -1 -16 -2q-21 0 -44 -3l-696 1q-18 3 -28 4v-47q15 4 34 5l331 1v-700zM155 120l40 63q9 12 19 29q27 46 70 127q106 -103 144 -170q18 21 36 39
q-43 43 -69 74l-53 56l-41 40q46 123 49 126q9 16 24 35q-25 6 -57 20q-15 -69 -41 -137q-27 -66 -69 -145q-52 -91 -108 -146q25 -12 38 -21q3 -3 7 -6q4 9 11 16zM783 448l13 33q9 24 27 47q-25 7 -56 21q-24 -126 -90 -259q-27 -54 -52 -94q-22 -33 -56 -71q21 -9 43 -22
q78 120 128 227q51 -51 92 -97q48 -55 74 -100q9 12 17 17q3 4 22 18q-10 9 -22 22l-85 92l-83 84q0 6 28 82v0z" />
  </g>

</svg>
