<?xml version="1.0" standalone="no"?>
<!DOCTYPE svg PUBLIC "-//W3C//DTD SVG 1.1//EN" "http://www.w3.org/Graphics/SVG/1.1/DTD/svg11.dtd" >
<svg xmlns="http://www.w3.org/2000/svg" xmlns:xlink="http://www.w3.org/1999/xlink" version="1.1" viewBox="-10 0 1034 1024">
  <g transform="matrix(1 0 0 -1 0 820)">
   <path fill="currentColor"
d="M125 44q19 12 39 19q27 12 47 24q21 12 55 33q12 9 28 17q15 7 29 17h224v-208h-276q-43 0 -56 4q-3 1 -5 1v-44q15 4 62 5l656 -3l2 -1q3 0 7 -1v44q-3 0 -5 -1q-12 -3 -21 -3l-327 -1v208l236 -1q15 0 28 -4v44q-3 0 -6 -1q-3 0 -4 -1q-16 0 -50 -3h-426q51 48 101 118
h429q39 0 61 -5v44q-3 0 -5 -1q-4 -1 -21 -3l-447 -1q12 24 19 47q9 24 21 68l304 -1q9 0 21 -5v45q-6 -1 -12 -4l-134 -2h-172q9 54 16 104l370 -4q1 0 3 -1h4v44q-3 0 -5 -1l-56 -4h-208q61 75 84 95q19 21 50 39q-21 12 -28 19q-1 0 -6 5q-12 9 -18 13q-9 -30 -38 -68
l-49 -61q-18 -22 -38 -42h-384q-42 0 -56 4q-3 1 -6 1v-44q19 3 40 5h302q-4 -48 -15 -104l-258 1q-7 1 -11 2q-6 3 -10 3v-45q12 6 62 6h208q-3 -15 -17 -58q-15 -39 -26 -57l-306 1q-13 1 -28 3q-3 1 -5 1v-44q15 4 63 5h255q-61 -87 -167 -153q-58 -36 -99 -52
q-42 -16 -76 -22q12 -12 17 -19q6 -9 15 -27q9 6 19 11zM404 731l-50 46q-7 9 -15 16q-16 -21 -36 -37q93 -52 134 -123q13 18 33 35q-30 27 -66 63v0z" />
  </g>

</svg>
