<?xml version="1.0" standalone="no"?>
<!DOCTYPE svg PUBLIC "-//W3C//DTD SVG 1.1//EN" "http://www.w3.org/Graphics/SVG/1.1/DTD/svg11.dtd" >
<svg xmlns="http://www.w3.org/2000/svg" xmlns:xlink="http://www.w3.org/1999/xlink" version="1.1" viewBox="-10 0 1010 1000">
   <path fill="currentColor"
d="M802 217v133q2 96 8 154h-104q6 -24 6 -69h-458v284q0 48 46 57q34 6 126 9t181 0q162 -5 187 -23q35 -27 37 -129q53 39 104 52q-40 132 -88 153q-37 20 -220 24q-238 3 -393 -12q-71 -7 -67 -98v-383q1 -52 -6 -81q107 -1 105 14q1 6 -4 18q-8 22 -8 43h460v-222h-434
q-67 0 -144 7q-8 1 -13 1v-87q91 8 155 8h361q115 -2 173 -8q-9 57 -10 155z" />
</svg>
