<?xml version="1.0" standalone="no"?>
<!DOCTYPE svg PUBLIC "-//W3C//DTD SVG 1.1//EN" "http://www.w3.org/Graphics/SVG/1.1/DTD/svg11.dtd" >
<svg xmlns="http://www.w3.org/2000/svg" xmlns:xlink="http://www.w3.org/1999/xlink" version="1.1" viewBox="-10 0 1010 1000">
   <path fill="currentColor"
d="M587 -2q74 -2 94 8q2 3 -1 13q-14 40 -13 102h65q93 -1 147 -8v80q-61 -8 -147 -8h-65v107h85q98 -1 196 -10v81q-60 -6 -192 -7h-117q89 137 315 182q-33 37 -55 87q-130 -58 -193 -107v117q0 37 8 66q-46 -7 -129 -8h-252v73q-1 22 12 28q7 6 60 10q50 4 166 3
q109 -1 141 -7q53 -23 60 -95q36 43 91 55q-34 114 -123 121h-5q-199 4 -354 0q-132 0 -123 -95v-240q1 -2 -20 16q-63 52 -123 99q-22 -45 -81 -69q182 -62 315 -236h-125q-132 1 -170 7v-81q50 9 170 10h105v-107h-93q-50 0 -115 8v-80q60 8 113 8h95q0 -58 -6 -121
q84 -3 92 8q2 4 -2 16q-13 38 -12 97h192q0 -60 -6 -123zM401 185v107h194v-107h-194zM573 356h-142q-6 7 -18 22q-45 52 -78 87q24 7 78 8h147q43 0 85 -8q-45 -51 -72 -109zM333 528v109h298v-109h-298z" />
</svg>
