<?xml version="1.0" standalone="no"?>
<!DOCTYPE svg PUBLIC "-//W3C//DTD SVG 1.1//EN" "http://www.w3.org/Graphics/SVG/1.1/DTD/svg11.dtd" >
<svg xmlns="http://www.w3.org/2000/svg" xmlns:xlink="http://www.w3.org/1999/xlink" version="1.1" viewBox="-10 0 1034 1024">
  <g transform="matrix(1 0 0 -1 0 820)">
   <path fill="currentColor"
d="M346 397q-67 -108 -179 -194q-67 -46 -114 -55q1 -1 39 -43q43 27 93 66q37 28 63 51q24 21 55 54l4 -84l1 -250q4 -36 29 -55q24 -15 70 -20q67 -4 152 -5q118 0 158 6q42 6 66 26q30 24 57 116q-12 4 -27 11q-9 3 -25 14v-15q0 -30 -6 -52q-15 -52 -72 -63
q-33 -6 -107 -6l-100 1q-42 0 -71 3q-45 3 -65 12q-22 13 -23 51v100l338 -1q9 0 21 -3q6 0 20 -2q-4 48 -5 89l5 148q-54 -6 -76 -6l-298 1q-9 3 -30 3l78 102h242q52 -76 126 -139q48 -40 113 -82l61 -36q28 34 39 41q4 3 9 6q-57 7 -129 49q-99 63 -172 161l242 -1
q19 0 28 -4q3 0 7 -1v49q-1 0 -3 -1q-3 0 -5 -1q-3 0 -4 -2l-162 -2h-111v162l167 -1q21 0 29 -4h7v48q-3 0 -8 -3q-36 0 -74 -3h-121v78q0 10 3 29q1 16 12 36h-59q0 -1 2 -5q0 -1 1 -3l3 -135h-257v76q0 36 14 66h-57q0 -3 2 -8l3 -134l-182 3q-3 1 -8 3v-48q24 4 52 5
h138v-162l-254 1l-25 5v-49q6 3 54 6h226zM344 102v152h336v-152h-336zM383 434v162h257v-162h-257z" />
  </g>

</svg>
