<?xml version="1.0" standalone="no"?>
<!DOCTYPE svg PUBLIC "-//W3C//DTD SVG 1.1//EN" "http://www.w3.org/Graphics/SVG/1.1/DTD/svg11.dtd" >
<svg xmlns="http://www.w3.org/2000/svg" xmlns:xlink="http://www.w3.org/1999/xlink" version="1.1" viewBox="-10 0 1010 1000">
   <path fill="currentColor"
d="M454 -17q98 2 113 11q1 2 -5 9q-22 26 -22 67v127h174q72 0 153 -8q-1 4 -2 11q-10 56 -10 108v331q2 69 -30 94q-30 29 -129 45q-3 -54 -41 -103q65 6 103 -12q15 -3 14 -55v-338h-232v498q2 146 10 145h-102q10 -21 10 -141v-502h-224v343q3 125 8 137h-99
q8 -31 8 -133v-289q0 -81 -8 -139q49 8 149 8h166v-131q0 -44 -1 -58q-1 -18 -3 -25z" />
</svg>
