<?xml version="1.0" standalone="no"?>
<!DOCTYPE svg PUBLIC "-//W3C//DTD SVG 1.1//EN" "http://www.w3.org/Graphics/SVG/1.1/DTD/svg11.dtd" >
<svg xmlns="http://www.w3.org/2000/svg" xmlns:xlink="http://www.w3.org/1999/xlink" version="1.1" viewBox="-10 0 1010 1000">
   <path fill="currentColor"
d="M863 0q73 100 68 108q-1 1 -14 0q-47 -5 -94 -2q-32 2 -93 7q-108 9 -182 12v165h160q106 -1 157 -8q-7 49 -8 129v268q0 44 -5 57q-5 17 -22 28q-28 22 -151 38q2 -57 -32 -113q82 15 103 0q22 -7 20 -83v-241h-222v385q1 110 8 151h-104q8 -26 8 -151v-385h-206v239
q1 124 8 166h-103q7 -44 8 -160v-199q-1 -80 -8 -129q58 7 166 8h135v-155q-4 0 -13 1q-221 13 -320 23q-7 -40 -52 -93q383 15 788 -66z" />
</svg>
