<?xml version="1.0" standalone="no"?>
<!DOCTYPE svg PUBLIC "-//W3C//DTD SVG 1.1//EN" "http://www.w3.org/Graphics/SVG/1.1/DTD/svg11.dtd" >
<svg xmlns="http://www.w3.org/2000/svg" xmlns:xlink="http://www.w3.org/1999/xlink" version="1.1" viewBox="-10 0 1010 1000">
   <path fill="currentColor"
d="M702 -13q74 37 98 59q0 2 -16 7q-81 28 -185 86q86 37 227 95q26 11 39 16l-69 78q-111 -76 -258 -149q-134 64 -328 129q-18 -33 -75 -71q105 -10 279 -76q36 -14 40 -14q-11 -4 -32 -11q-133 -49 -216 -66l74 -68q30 13 75 33q103 45 171 71q123 -70 176 -119zM435 238
q91 27 99 40q0 3 -10 9q-36 21 -60 55h316q113 0 170 -10v79q-2 0 -8 -1q-76 -7 -162 -7h-355q-41 53 -108 119q20 7 82 6h105q0 -62 -8 -103q89 2 103 12q0 4 -4 12q-16 32 -16 79h135q97 0 145 -8q-9 37 -8 125v147q-2 59 -139 60q-6 -57 -41 -98q105 21 97 -29v-137h-187
v216q0 42 6 91q2 14 2 18h-91q0 -3 2 -17q6 -53 6 -94v-214h-173v149q0 70 8 109h-91q8 -39 8 -109v-48q0 -70 -12 -95q-63 52 -135 109q-28 -33 -75 -72q138 -56 299 -228h-135q-91 0 -138 8v-77q49 8 142 8h177q31 -41 54 -104z" />
</svg>
