<?xml version="1.0" standalone="no"?>
<!DOCTYPE svg PUBLIC "-//W3C//DTD SVG 1.1//EN" "http://www.w3.org/Graphics/SVG/1.1/DTD/svg11.dtd" >
<svg xmlns="http://www.w3.org/2000/svg" xmlns:xlink="http://www.w3.org/1999/xlink" version="1.1" viewBox="-10 0 1010 1000">
   <path fill="currentColor"
d="M210 -23q97 1 100 8q0 2 -4 8q-22 33 -22 83v93h47q56 0 104 -4q-4 40 -6 127v349q2 56 -18 71q-18 18 -92 28q-4 -45 -27 -87q72 18 63 -30v-386h-71v543q-1 89 8 133h-90q11 -36 12 -131v-545h-67v349q0 96 8 152h-93q10 -43 11 -156v-268q-1 -116 -6 -151q40 6 110 6
h37v-91q0 -81 -4 -101zM611 -21q8 0 21 1q93 1 84 8q0 2 -2 5q-22 31 -22 134h125q80 -2 110 -6v80q-20 -6 -110 -6h-125v103h92q77 -3 113 -8v81q-24 -6 -111 -6h-92v116h118l119 -8q-10 53 -14 246q1 66 -23 81q-20 19 -122 36q-9 -67 -38 -101q70 10 85 2q18 -5 18 -44
q1 -48 4 -101q1 -25 2 -40h-149v246q1 84 8 121h-95q10 -44 12 -125v-242h-63q-80 0 -104 6v-83q24 6 102 6h65v-116h-52q-61 0 -91 8v-79q25 4 95 4h46v-103h-61q-71 0 -104 6v-82q17 5 106 8h59v-63q0 -59 -6 -85z" />
</svg>
