<?xml version="1.0" standalone="no"?>
<!DOCTYPE svg PUBLIC "-//W3C//DTD SVG 1.1//EN" "http://www.w3.org/Graphics/SVG/1.1/DTD/svg11.dtd" >
<svg xmlns="http://www.w3.org/2000/svg" xmlns:xlink="http://www.w3.org/1999/xlink" version="1.1" viewBox="-10 0 1034 1024">
  <g transform="matrix(1 0 0 -1 0 820)">
   <path fill="currentColor"
d="M71 577q1 -31 5 -65l-1 -437q-1 -9 -2 -21q0 -6 -2 -19h46q-3 15 -4 44l-1 457h101v-635q0 -24 -3 -48q0 -1 -2 -18h47q-4 24 -5 66v635h112v-406q0 -21 -5 -28q-6 -7 -27 -8q-15 0 -39 5q12 -24 18 -48q24 1 37 5q10 1 20 6q31 10 32 55l1 415l4 45q-66 -6 -77 -6h-76
v133q0 15 3 31q3 19 15 35h-60q1 -33 5 -66v-133q-78 0 -94 2q-15 3 -48 4zM750 662v-718q0 -36 23 -55q19 -16 66 -17q39 0 55 4q27 9 43 35q19 33 33 108q-24 3 -45 16q-1 -16 -11 -73q-6 -22 -15 -35q-13 -18 -52 -19q-27 0 -40 6q-18 9 -19 48l1 692l4 47q-25 0 -60 -5
h-200q-15 3 -55 5l7 -118l2 -157q0 -210 -23 -305q-28 -117 -110 -196q-18 -18 -52 -40q31 -9 55 -32q36 42 58 73q64 87 90 193q21 94 21 286l-3 257h227zM575 370q58 -51 62 -55q22 -25 57 -68q18 18 34 32q-27 31 -78 79l-61 60q-12 -16 -32 -33z" />
  </g>

</svg>
