<?xml version="1.0" standalone="no"?>
<!DOCTYPE svg PUBLIC "-//W3C//DTD SVG 1.1//EN" "http://www.w3.org/Graphics/SVG/1.1/DTD/svg11.dtd" >
<svg xmlns="http://www.w3.org/2000/svg" xmlns:xlink="http://www.w3.org/1999/xlink" version="1.1" viewBox="-10 0 1034 1024">
  <g transform="matrix(1 0 0 -1 0 820)">
   <path fill="currentColor"
d="M109 512l-4 -59q-1 -3 -1 -8h48q0 4 -1 9q-1 3 -4 58v85h723v-77q0 -36 -5 -66h48q-4 24 -5 55q0 75 2 90q0 19 3 39q-22 -1 -35 -2q-25 -3 -36 -3l-688 1q-1 0 -50 4q4 -109 5 -115v-11zM570 636q12 16 22 32q3 3 6 8l-73 51l-77 49q-13 -21 -32 -40q69 -27 154 -100z
M124 330q22 -18 38 -37q109 73 185 144q55 54 58 54q15 12 40 20q-28 19 -50 39q-54 -64 -122 -123q-81 -69 -149 -97zM186 -22q0 -36 -5 -67h48q0 3 -1 9q-1 3 -4 58v261h262v-336q0 -36 -5 -66h49q0 4 -2 8q-1 3 -4 58v336h270v-216q0 -39 -22 -49q-21 -7 -58 -8
q-28 0 -71 8q10 -18 17 -42q0 -3 2 -12q60 3 90 6q79 10 80 92l1 215l4 47q-33 -1 -67 -5h-246q0 114 3 119q1 12 11 26h-57q0 -9 2 -13l3 -132l-257 1q-19 3 -48 4q1 -31 5 -65v-237zM567 514q57 -25 128 -71q66 -40 110 -71l37 -27q18 -12 31 -25q10 18 25 35q3 3 6 7
q-91 60 -134 86q-12 6 -123 76l-51 30q-12 -18 -29 -40v0z" />
  </g>

</svg>
