<?xml version="1.0" standalone="no"?>
<!DOCTYPE svg PUBLIC "-//W3C//DTD SVG 1.1//EN" "http://www.w3.org/Graphics/SVG/1.1/DTD/svg11.dtd" >
<svg xmlns="http://www.w3.org/2000/svg" xmlns:xlink="http://www.w3.org/1999/xlink" version="1.1" viewBox="-10 0 1010 1000">
   <path fill="currentColor"
d="M202 -17q96 0 98 11q1 2 -4 10q-18 31 -18 74v101h57q75 -1 98 -4q-7 44 -10 149v289q2 65 -17 79q-15 18 -96 31q-5 -55 -32 -76v137q0 92 6 125h-88q11 -43 12 -129v-536h-67v364q0 91 6 127h-84q8 -45 8 -133v-264q-1 -20 -2 -54q-3 -84 -6 -111q18 6 90 6h55v-105
q0 -28 -6 -91zM649 -17q87 -2 101 11q1 2 -4 9q-14 21 -14 45v99h105q69 -1 113 -10q-18 72 -55 187q-28 -9 -43 -11q-17 -3 -42 -3q29 -50 43 -95h-121v170h68q73 0 97 -6q-52 240 -131 352q63 55 210 91q-48 22 -75 81q-108 -52 -183 -121q-61 62 -176 131
q-35 -47 -78 -65q123 -42 205 -119q-43 -52 -86 -182q-8 -27 -12 -37l76 -14q15 85 69 181q55 -85 82 -222h-238q3 273 -153 442q-36 -37 -90 -43q110 -83 143 -203q17 -60 23 -146q6 -80 3 -231q-1 -114 -8 -133q23 3 99 6h80v-99q-2 -37 -8 -65zM657 215h-97v170h97v-170z
M353 244h-75v391q49 10 61 3q15 -5 14 -36v-358z" />
</svg>
