<?xml version="1.0" standalone="no"?>
<!DOCTYPE svg PUBLIC "-//W3C//DTD SVG 1.1//EN" "http://www.w3.org/Graphics/SVG/1.1/DTD/svg11.dtd" >
<svg xmlns="http://www.w3.org/2000/svg" xmlns:xlink="http://www.w3.org/1999/xlink" version="1.1" viewBox="-10 0 1034 1024">
  <g transform="matrix(1 0 0 -1 0 820)">
   <path fill="currentColor"
d="M112 258q135 58 237 137q73 -33 100 -49q9 -6 22 -14q6 19 25 42l-6 2q-4 3 -9 5q-18 6 -38 16l-40 18q-12 6 -24 11q34 39 65 89q13 21 26 45l36 76q-76 -4 -115 -5h-98q9 24 30 63q6 12 14 20q12 13 32 23q-49 22 -62 30q-12 -42 -32 -83q-21 -39 -27 -53
q-120 0 -147 2q-12 3 -18 3v-46q15 4 68 5h76q-6 -7 -10 -17q-21 -36 -36 -57q-13 -19 -35 -47l81 -27l80 -33q-45 -36 -104 -68q-81 -39 -136 -46q21 -13 36 -31q4 -4 9 -11zM215 503q7 16 37 58q0 3 20 34h170q-15 -36 -40 -75l-34 -50q-12 -13 -28 -28q-10 3 -19 6
q-15 9 -45 20l-30 12q-3 0 -36 15q1 4 5 8zM596 682q-27 0 -77 5v-45q24 3 40 4q36 -105 113 -198q-60 -42 -74 -49q-48 -24 -94 -28q33 -21 52 -45q36 19 71 42l76 52q66 -60 124 -98l60 -34q6 -4 23 -15q24 30 55 45q-60 10 -109 37q-66 37 -125 90q76 81 123 164
q33 66 42 78q-42 -1 -84 -5h-216zM827 646q-45 -96 -123 -172q-39 51 -63 84q-15 27 -40 88h226zM215 206q1 -30 5 -60l-1 -216q-1 -9 -2 -22q0 -3 -2 -13h47q-4 30 -5 70v211h235l-1 -309q-4 -36 -6 -41h51q-1 1 -1 2v4q-3 9 -4 22l-2 173v149h245v-211q0 -21 -19 -28
q-19 -6 -50 -7q-21 0 -57 8q0 -1 8 -18q0 -6 6 -18q1 -4 4 -19q33 3 45 4q57 6 79 22q21 16 22 54l1 204l4 51q-48 -6 -73 -6h-215q0 54 3 57q3 16 12 30h-59q3 -12 4 -35q0 -25 3 -52l-227 1q-15 3 -27 3q-6 0 -23 2v-12z" />
  </g>

</svg>
