<?xml version="1.0" standalone="no"?>
<!DOCTYPE svg PUBLIC "-//W3C//DTD SVG 1.1//EN" "http://www.w3.org/Graphics/SVG/1.1/DTD/svg11.dtd" >
<svg xmlns="http://www.w3.org/2000/svg" xmlns:xlink="http://www.w3.org/1999/xlink" version="1.1" viewBox="-10 0 1010 1000">
   <path fill="currentColor"
d="M210 -17q10 1 28 2q79 4 75 11q1 2 -4 9q-19 27 -19 57v113h65q60 -1 89 -4q-7 44 -7 157v311q2 42 -20 55q-19 15 -100 29q-1 -60 -27 -88v165q0 85 6 115h-86q7 -15 6 -115v-558h-69v364q-2 85 4 121h-84q5 -39 6 -121v-276q-1 -122 -6 -163q33 5 96 8h53v-105
q-1 -66 -6 -87zM665 -12l27 3q89 8 84 13q1 4 -8 15q-22 28 -22 57v129h71q81 -6 110 -12v87q-26 -10 -110 -10h-71q-1 25 -1 77q-1 77 -3 100h95q1 -1 30 -3q56 -3 75 -7v81q-26 -9 -101 -6h-91q52 236 224 330q-48 32 -75 71q-137 -103 -199 -303q-58 183 -250 297
q-25 -42 -95 -67q252 -83 292 -328h-78q-71 0 -111 8v-81q8 1 5 0q82 8 104 8h96q6 -69 8 -177h-102q-24 81 -37 117q-33 -17 -80 -20q66 -124 74 -299q14 3 41 7q69 11 62 17q-1 1 -3 4q-20 22 -41 109h86v-105v-9q1 -79 -6 -103zM363 242h-73v383q82 30 73 -23v-360z" />
</svg>
