<?xml version="1.0" standalone="no"?>
<!DOCTYPE svg PUBLIC "-//W3C//DTD SVG 1.1//EN" "http://www.w3.org/Graphics/SVG/1.1/DTD/svg11.dtd" >
<svg xmlns="http://www.w3.org/2000/svg" xmlns:xlink="http://www.w3.org/1999/xlink" version="1.1" viewBox="-10 0 1034 1024">
  <g transform="matrix(1 0 0 -1 0 820)">
   <path fill="currentColor"
d="M87 121q0 -25 -5 -66h47q-4 24 -5 66v410h92v-633q0 -19 -3 -47q0 -3 -3 -18h49q0 1 -5 58v640h104v-390q0 -22 -8 -30q-10 -9 -32 -9q-15 0 -34 3q12 -15 17 -32q1 -4 4 -15q45 6 67 16q24 18 25 67l-2 374l6 57q-33 -1 -66 -5h-81v137q0 19 3 33q1 15 14 33h-61
q3 -15 4 -29l2 -174q-72 0 -99 2q-6 3 -35 3q1 -33 5 -66v-385zM526 372q-78 3 -90 5v-46q31 4 67 5h23v-389q0 -15 -4 -31q-3 -13 -18 -28q4 -4 13 -17q3 -9 18 -26q12 15 34 34l111 96q19 15 38 34q-9 37 -9 51q-18 -21 -44 -47l-57 -52q-21 -18 -43 -34v409h109
q18 -133 78 -237q60 -103 183 -216q24 24 53 36q-61 27 -141 116q-117 132 -132 301l202 -1l38 -4v46q-24 -4 -66 -5h-324v333q0 15 3 31q3 21 14 35h-61q1 -25 5 -53v-346zM852 750q-24 -61 -94 -154q-75 -93 -121 -127q22 -10 43 -30q90 106 172 216q30 43 56 63
q-15 4 -20 8q-6 3 -15 9q-9 7 -21 15v0z" />
  </g>

</svg>
