<?xml version="1.0" standalone="no"?>
<!DOCTYPE svg PUBLIC "-//W3C//DTD SVG 1.1//EN" "http://www.w3.org/Graphics/SVG/1.1/DTD/svg11.dtd" >
<svg xmlns="http://www.w3.org/2000/svg" xmlns:xlink="http://www.w3.org/1999/xlink" version="1.1" viewBox="-10 0 1034 1024">
  <g transform="matrix(1 0 0 -1 0 820)">
   <path fill="currentColor"
d="M97 133q0 -25 -5 -67h47q-4 24 -5 67v422h98l-1 -681l-4 -41h49q-4 24 -5 67v655h113v-407q0 -15 -8 -22q-9 -9 -30 -10q-16 0 -41 6l7 -25q3 -10 5 -26q27 3 35 5q42 10 54 19q15 13 16 45v454l-66 -3h-85v112q0 19 3 33q1 18 15 33h-62q1 -25 5 -53v-125h-75
q-7 0 -32 3q-15 0 -33 3q1 -33 5 -69v-395zM519 -71v-11q-3 -27 -5 -57h47q-4 24 -5 68v33h336l-4 -89q-1 -1 -1 -6h48q-4 30 -5 57l1 637l4 47q-64 -4 -69 -5h-191q0 6 32 118q6 18 22 40q-36 4 -57 13q-1 -18 -6 -40q-3 -24 -10 -48q-10 -48 -21 -83q-54 0 -81 2
q-6 3 -40 3q1 -33 5 -67v-612zM892 306h-336v260h336v-260zM556 -3v273h336v-273h-336z" />
  </g>

</svg>
