<?xml version="1.0" standalone="no"?>
<!DOCTYPE svg PUBLIC "-//W3C//DTD SVG 1.1//EN" "http://www.w3.org/Graphics/SVG/1.1/DTD/svg11.dtd" >
<svg xmlns="http://www.w3.org/2000/svg" xmlns:xlink="http://www.w3.org/1999/xlink" version="1.1" viewBox="-10 0 1034 1024">
  <g transform="matrix(1 0 0 -1 0 820)">
   <path fill="currentColor"
d="M97 147q0 -25 -5 -67h48q-4 24 -5 67v399h102l-1 -675q-1 -9 -2 -22q0 -3 -2 -18h49q-4 24 -5 67v648h108v-367q0 -21 -5 -29q-7 -7 -28 -8q-18 0 -38 4q9 -25 10 -36q0 -6 2 -14q45 3 64 11q33 10 33 52l1 378l4 51q-109 -4 -113 -5h-38v118q0 19 3 33q1 16 14 33h-61
q1 -9 3 -18q0 -24 2 -48v-118q-76 0 -104 2l-41 3q1 -33 5 -69v-372zM369 -117q25 -12 48 -31q111 112 175 225q28 51 34 55q6 9 20 19q-16 3 -28 7q-7 3 -10 4q-4 3 -16 10q-12 -34 -40 -84q-48 -84 -109 -149q-39 -36 -74 -56zM509 695q1 -28 5 -59l-1 -330q-3 -15 -4 -49
q34 3 71 5l249 -1l49 -4q-4 57 -5 111l1 289l4 50q-36 -1 -71 -5l-247 1q-19 3 -51 4v-12zM551 298v368h285v-368h-285zM720 142q21 -21 28 -30q12 -15 26 -34q21 -27 50 -65q87 -123 105 -156q21 21 36 31q-60 87 -160 220q-25 36 -43 62q-12 -12 -17 -15z" />
  </g>

</svg>
