<?xml version="1.0" standalone="no"?>
<!DOCTYPE svg PUBLIC "-//W3C//DTD SVG 1.1//EN" "http://www.w3.org/Graphics/SVG/1.1/DTD/svg11.dtd" >
<svg xmlns="http://www.w3.org/2000/svg" xmlns:xlink="http://www.w3.org/1999/xlink" version="1.1" viewBox="-10 0 1034 1024">
  <g transform="matrix(1 0 0 -1 0 820)">
   <path fill="currentColor"
d="M101 375q4 -114 5 -117l-4 -70q-1 -1 -1 -3h47q-4 57 -5 86v63h357v-112l-206 1q-9 1 -51 5q6 -69 6 -93l-1 -175q-1 -9 -2 -22l-3 -13h49q0 6 -2 14q-1 27 -3 55v192h213l-1 -312q-1 -9 -2 -22q0 -3 -2 -13h48q-4 30 -5 69v278h229v-178q0 -24 -12 -34q-12 -9 -45 -9
q-30 0 -64 9q13 -22 24 -54q39 0 60 4q36 6 56 20q19 15 20 58l1 174q0 19 4 52l-75 -6h-198v112h357q0 -90 -2 -121q-1 -3 -1 -10t-2 -13h48q-4 57 -5 88l5 97q-36 -1 -74 -5l-715 1q-15 3 -48 4zM767 577v-92l-537 1q-24 3 -30 4v-46q15 4 69 5l488 -1l54 -4q-4 60 -5 115
q0 132 2 145q0 21 3 41q-72 -4 -104 -5l-477 1q-24 3 -30 4v-46q15 4 69 5h498v-93h-462l-56 2q-6 0 -13 4v-46q15 6 69 6h462z" />
  </g>

</svg>
