<?xml version="1.0" standalone="no"?>
<!DOCTYPE svg PUBLIC "-//W3C//DTD SVG 1.1//EN" "http://www.w3.org/Graphics/SVG/1.1/DTD/svg11.dtd" >
<svg xmlns="http://www.w3.org/2000/svg" xmlns:xlink="http://www.w3.org/1999/xlink" version="1.1" viewBox="-10 0 1034 1024">
  <g transform="matrix(1 0 0 -1 0 820)">
   <path fill="currentColor"
d="M231 627l694 -1q3 0 44 -4v46q-55 -4 -66 -5h-280q9 18 22 31q-49 40 -141 89q-18 -24 -33 -41q60 -22 140 -79l-372 1q-19 3 -53 4q4 -93 5 -122l-2 -217q-1 -6 -1 -15q-6 -96 -14 -136q-21 -99 -64 -169q-19 -33 -62 -78q37 -6 56 -18q24 39 40 66q12 21 23 43
q37 84 52 192q4 40 8 96q3 54 4 103v214zM425 489h-77q-24 0 -48 4q-10 0 -23 2v-47q10 0 23 2q63 3 94 4h31q0 -72 -2 -103q-3 -6 -3 -45q64 4 127 5h32v-107l-187 1q-34 4 -64 5q1 -37 5 -77l-1 -169q-1 -18 -3 -37q-1 -3 -1 -8h48q-4 28 -5 74v176h208l-1 -278
q-1 -3 -2 -27q0 -10 -2 -18h50q-4 27 -5 68v255h231v-183q0 -24 -24 -32q-27 -6 -54 -7q-7 0 -43 4q15 -24 24 -53l82 12q12 3 20 7q34 21 35 68l1 165l4 60l-72 -6h-204v107l121 -1l44 -4q-4 52 -5 103v45q118 0 133 -2l39 -6v49q-15 -1 -20 -2q-13 -3 -46 -4h-106v36
q0 15 2 33q1 15 13 37h-60q1 -13 2 -24q1 -22 4 -45v-37h-277v33q0 16 3 32q1 15 13 38h-59q4 -37 5 -70v-33zM740 454v-107h-277v107h277z" />
  </g>

</svg>
