<?xml version="1.0" standalone="no"?>
<!DOCTYPE svg PUBLIC "-//W3C//DTD SVG 1.1//EN" "http://www.w3.org/Graphics/SVG/1.1/DTD/svg11.dtd" >
<svg xmlns="http://www.w3.org/2000/svg" xmlns:xlink="http://www.w3.org/1999/xlink" version="1.1" viewBox="-10 0 1010 1000">
   <path fill="currentColor"
d="M599 -10q99 3 99 12q1 2 -2 10q-17 38 -23 113h127q86 0 127 -6v80q-33 -6 -125 -6h-129q0 7 -2 35q-1 23 -2 38h99q101 0 131 -6v78q-33 -6 -127 -6h-109q-2 34 -8 69h172q71 0 117 -6v80q-41 -6 -111 -6v95q63 0 109 -6v77q-46 -9 -109 -6v197q15 57 -135 73
q-4 -43 -29 -93q62 6 78 2q18 -4 17 -26v-153h-185q-56 101 -162 219q-27 -36 -76 -60q172 -121 224 -319q-97 0 -144 6v-80q56 6 162 6q5 -22 7 -55q1 -9 1 -14q-93 0 -135 6v-78q54 6 141 6q4 -47 4 -73q-94 -3 -164 6v-80q53 6 166 6q0 -95 -4 -135zM198 -4q80 -3 88 8
q1 2 -1 7q-14 34 -13 101v69q81 0 135 -6q-7 29 -6 88v29v306q1 39 -19 55q-15 15 -76 28q-1 -4 -3 -11q-12 -46 -25 -64q58 15 55 -28v-332h-61v522q0 90 6 139h-78q6 -50 6 -141v-520h-65v328q0 79 6 125h-80q6 -46 6 -125v-274q0 -84 -6 -125q45 6 139 6v-69
q1 -88 -8 -116zM764 469h-125q-11 44 -32 95h157v-95zM657 635q33 51 51 109l-61 28q-21 -70 -52 -109z" />
</svg>
