<?xml version="1.0" standalone="no"?>
<!DOCTYPE svg PUBLIC "-//W3C//DTD SVG 1.1//EN" "http://www.w3.org/Graphics/SVG/1.1/DTD/svg11.dtd" >
<svg xmlns="http://www.w3.org/2000/svg" xmlns:xlink="http://www.w3.org/1999/xlink" version="1.1" viewBox="-10 0 1034 1024">
  <g transform="matrix(1 0 0 -1 0 820)">
   <path fill="currentColor"
d="M487 376q30 0 65 -5v45q-27 -4 -65 -5h-146q4 51 6 93l129 -1q24 0 38 -4v45q-18 -4 -65 -5h-102v85l195 -4q1 1 4 -1v46q-66 -6 -83 -6h-116q0 42 4 58q3 12 13 33q-31 0 -64 6q1 -33 5 -66v-31l-190 3q-9 1 -17 3v-46q21 4 68 5h139v-85q-114 0 -137 2q-4 1 -9 1
q-3 0 -17 2v-45q21 4 68 5h95q0 -42 -5 -93h-133q-42 0 -68 5v-45q4 0 59 5h135q-18 -70 -84 -124q-30 -21 -51 -31q-27 -12 -70 -26q27 -18 41 -42q46 27 75 47q24 16 48 37q63 58 84 139h151zM233 -39q-4 -39 -5 -65h47q-4 27 -5 65v193h222l-1 -275q-1 -9 -3 -25
q0 -4 -2 -17h50q-6 27 -6 64v253h247v-167q0 -7 -2 -22q-3 -12 -12 -15q-22 -6 -45 -7q-6 0 -49 6l-9 2q19 -27 24 -48q19 0 36 2q33 3 59 12q33 15 34 58l1 173l4 44q-31 -1 -64 -5h-224v16q0 21 4 33q1 16 13 32h-60q0 -9 2 -17q3 -48 3 -64l-216 1q-19 3 -48 4
q1 -30 5 -62v-169zM613 303q-3 -30 -3 -47q0 -6 -2 -18h48q-6 21 -6 65v364h181q-3 -15 -29 -65q-21 -40 -45 -77q54 -36 87 -69q39 -39 39 -75q0 -51 -77 -52q-30 0 -64 11q15 -28 19 -56q64 6 98 16q60 21 61 79q0 42 -47 96q-30 34 -68 62q61 121 90 170q-60 -4 -96 -5
l-145 1q-3 0 -46 4q1 -30 5 -62v-342z" />
  </g>

</svg>
