<?xml version="1.0" standalone="no"?>
<!DOCTYPE svg PUBLIC "-//W3C//DTD SVG 1.1//EN" "http://www.w3.org/Graphics/SVG/1.1/DTD/svg11.dtd" >
<svg xmlns="http://www.w3.org/2000/svg" xmlns:xlink="http://www.w3.org/1999/xlink" version="1.1" viewBox="-10 0 1010 1000">
   <path fill="currentColor"
d="M292 -8q56 0 73 1q21 1 22 5t-3 13q-13 28 -13 65h64q89 -1 107 -4v71q-5 -3 -27 -3q-11 -1 -29 -1h-51h-66l-2 68h48q76 0 93 -4v67q-4 -3 -22 -3q-14 -1 -67 -1h-54q-2 36 -8 64h68q86 0 111 -4v71q-5 -3 -28 -3q-12 -1 -30 -1h-53h-82q-14 76 -97 145q5 -1 15 0
q28 4 72 4h141q0 -31 -3 -56q-1 -10 -1 -15q96 0 95 10q1 4 -4 11q-11 21 -11 50h180q69 0 117 -6q-6 28 -6 74v172q8 61 -153 81q-10 -35 -35 -75q-8 -13 -8 -16q128 11 119 -45v-117h-214v176q0 69 1 88q0 24 3 29h-84q4 -21 4 -123v-170h-182v144q0 65 4 98h-84
q4 -18 4 -149v-24q0 -63 -4 -103q-1 -10 0 -14q-4 3 -13 8q-32 20 -76 43q-25 -32 -64 -57q-12 -8 -11 -10q178 -43 224 -153h-85q-56 0 -71 1q-21 0 -27 3v-71q21 4 99 4h96q7 -33 8 -64h-62q-40 0 -57 1q-20 1 -34 3v-67q12 3 89 4h70v-68h-94q-66 0 -83 1q-23 0 -26 3
v-71q18 4 111 4h92q-1 -13 -1 -33q0 -36 -5 -51zM929 26q-28 55 -106 193q94 92 86 162q-11 78 -167 102q-3 -57 -24 -96q95 16 111 -27q4 -45 -87 -129l68 -131h-151v277q0 89 8 121h-88q8 -37 8 -123v-263q0 -56 -6 -86q22 0 100 6h160q58 0 88 -6z" />
</svg>
