<?xml version="1.0" standalone="no"?>
<!DOCTYPE svg PUBLIC "-//W3C//DTD SVG 1.1//EN" "http://www.w3.org/Graphics/SVG/1.1/DTD/svg11.dtd" >
<svg xmlns="http://www.w3.org/2000/svg" xmlns:xlink="http://www.w3.org/1999/xlink" version="1.1" viewBox="-10 0 1010 1000">
   <path fill="currentColor"
d="M629 -15q89 0 95 7q1 2 -3 5q-15 13 -15 39v44h78q91 0 139 -12v79q-42 -8 -135 -8h-82v66h78q56 0 115 -8v75q-32 -8 -115 -8h-78v68h111q76 0 135 -10v77q-48 -8 -133 -8h-261q-108 0 -143 6v-73q52 8 143 8h75v-68h-60q-86 0 -117 8v-75q11 1 41 3q44 3 72 5h64v-66
h-50q-119 0 -156 10v-77q67 8 152 8h54q0 -78 -4 -95zM187 -12q75 1 97 12q1 2 -3 6q-19 21 -19 60v99h38q72 0 111 -6q-10 39 -10 145v341q9 44 -101 60q-4 -56 -30 -82q57 0 57 -21v-371h-65v504q0 134 12 176h-95q13 -65 13 -176v-502h-59v327q0 135 8 165h-87
q9 -36 9 -169v-250q0 -102 -9 -149q32 6 111 6h27v-83q0 -60 -5 -92zM885 435q-8 24 -8 95v52q0 94 10 131h-95q8 -43 8 -121v-92h-252v80q0 97 6 133h-90q8 -63 8 -127v-44q0 -92 -6 -113q42 12 151 12h133q87 0 135 -6zM633 534q82 1 91 8q0 3 -4 10q-13 20 -14 48
q5 232 -299 299q-23 -47 -60 -85q317 2 286 -280zM736 701q158 74 220 127l-61 73q-84 -84 -205 -145z" />
</svg>
