<?xml version="1.0" standalone="no"?>
<!DOCTYPE svg PUBLIC "-//W3C//DTD SVG 1.1//EN" "http://www.w3.org/Graphics/SVG/1.1/DTD/svg11.dtd" >
<svg xmlns="http://www.w3.org/2000/svg" xmlns:xlink="http://www.w3.org/1999/xlink" version="1.1" viewBox="-10 0 1010 1000">
   <path fill="currentColor"
d="M282 24q49 42 93 99l-79 40q-30 -50 -96 -99zM317 363v96h356v-96h-356zM452 -10q86 2 102 8q1 2 -4 8q-17 21 -20 46v115h85q53 -78 79 -153q89 31 96 46q-1 3 -9 7q-16 10 -27 21q-41 43 -66 79h133q63 0 90 -4q-5 15 -4 72v31q0 71 4 88h-84q4 -26 4 -88v-31h-670v37
q0 60 4 91h-86q3 -10 6 -91v-39q0 -48 -4 -72q9 1 28 2q37 4 56 4h293v-115q1 -47 -6 -62zM752 300q-5 13 -4 65v92q0 40 4 65q-21 -4 -87 -4h-133v80h212q53 0 79 -4q-4 39 -4 81v113q-5 77 -150 83q-6 -46 -38 -95q114 13 113 -18v-97h-212v141q0 70 6 105h-88
q6 -62 6 -105v-141h-200v121q0 38 6 81h-87q6 -39 6 -81v-125q0 -42 -4 -63q17 4 77 4h202v-80h-139q-57 0 -79 4q4 -24 4 -63v-92q0 -43 -4 -67q20 5 77 4h356q62 1 81 -4z" />
</svg>
