<?xml version="1.0" standalone="no"?>
<!DOCTYPE svg PUBLIC "-//W3C//DTD SVG 1.1//EN" "http://www.w3.org/Graphics/SVG/1.1/DTD/svg11.dtd" >
<svg xmlns="http://www.w3.org/2000/svg" xmlns:xlink="http://www.w3.org/1999/xlink" version="1.1" viewBox="-10 0 1010 1000">
   <path fill="currentColor"
d="M85 24q49 8 191 8h450q129 0 193 -8q-8 39 -8 97l8 96h-94q8 -41 8 -129h-662q0 91 8 127h-94q8 -32 8 -100q0 -54 -8 -91zM216 151q67 8 193 8h178q161 0 203 -8q-8 34 -8 117v32q0 112 8 133q-15 -5 -50 -6q-34 -2 -123 -2h-159q-6 8 -19 25q-19 26 -26 33h361
q94 0 161 -8v71q-35 -8 -163 -8h-82q87 92 278 123q-47 30 -61 77q-43 -13 -137 -69v119q10 65 -153 72q-8 -50 -32 -82q58 5 77 4q23 0 26 -6q6 -10 6 -78v-23h-164v65v80q0 25 1 40q1 30 7 41h-92q6 -14 8 -48q2 -32 2 -109v-67h-150q0 153 7 177h-93q5 -23 6 -55
q2 -32 2 -100v-46q-76 57 -131 85q-23 -43 -61 -69q129 -34 248 -131h-62q-102 1 -157 8v-71q58 8 157 8h115q21 -27 36 -58q-63 0 -93 1q-35 1 -62 5q6 -50 6 -97v-50q0 -75 -8 -133zM302 207v61h408v-61h-408zM302 312v65h408v-65h-408zM369 538q-58 58 -101 87h186
q-1 -57 -6 -71q86 -3 94 2q2 4 -2 12q-8 22 -8 55h174q-40 -30 -77 -85h-260z" />
</svg>
