<?xml version="1.0" standalone="no"?>
<!DOCTYPE svg PUBLIC "-//W3C//DTD SVG 1.1//EN" "http://www.w3.org/Graphics/SVG/1.1/DTD/svg11.dtd" >
<svg xmlns="http://www.w3.org/2000/svg" xmlns:xlink="http://www.w3.org/1999/xlink" version="1.1" viewBox="-10 0 1034 1024">
  <g transform="matrix(1 0 0 -1 0 820)">
   <path fill="currentColor"
d="M78 124q0 -21 -5 -67h47q-4 24 -5 67v431h104v-660q0 -12 -3 -47q0 -9 -3 -19h50q-3 31 -5 64v662h102v-404q0 -21 -6 -27t-21 -7q-15 0 -44 7q13 -27 16 -52q27 3 38 7q6 0 18 6q36 12 36 55l1 410q1 24 5 47q-66 -6 -99 -6h-46v109q0 42 17 66h-62q6 -66 6 -88v-87
q-81 0 -107 2q-1 0 -39 4q1 -33 5 -66v-407zM441 666q34 4 68 5l441 -3q6 0 11 -2v46q-39 -4 -65 -5l-415 1q-24 3 -22 2q-6 0 -18 2v-46zM460 -101q-1 -24 -3 -48q0 -10 -2 -19h47q-4 37 -5 67v16h390v-10q0 -45 -5 -65h48q-4 27 -5 65l1 345l4 50q-33 -1 -68 -5l-358 1
q-7 1 -16 2q-15 0 -33 2q1 -33 5 -67v-334zM497 -49v143h168v-143h-168zM497 130v129h168v-129h-168zM703 -49v143h184v-143h-184zM887 130h-184v129h184v-129zM506 444q-3 -31 -5 -64q45 4 65 5l264 -1l50 -4q-6 66 -6 81q0 78 2 90l4 41q-36 -1 -71 -5l-260 1q-3 0 -48 4
l5 -111v-37zM542 421v130h294v-130h-294z" />
  </g>

</svg>
