<?xml version="1.0" standalone="no"?>
<!DOCTYPE svg PUBLIC "-//W3C//DTD SVG 1.1//EN" "http://www.w3.org/Graphics/SVG/1.1/DTD/svg11.dtd" >
<svg xmlns="http://www.w3.org/2000/svg" xmlns:xlink="http://www.w3.org/1999/xlink" version="1.1" viewBox="-10 0 1034 1024">
  <g transform="matrix(1 0 0 -1 0 820)">
   <path fill="currentColor"
d="M486 508l364 -1l50 -4q-4 54 -5 110l5 98q-54 -4 -71 -5l-334 1q-19 3 -52 4q1 -34 5 -70v-316q0 -144 -27 -237q-30 -93 -73 -147q-24 -30 -68 -55q34 -10 63 -28q24 33 47 70q55 93 78 187q18 82 18 208v185zM486 544v126h371v-126h-371zM687 -78q-166 0 -194 2
q-12 3 -19 3v-46q15 4 69 5q375 0 394 -3q3 0 12 -2v46q-43 -4 -78 -5h-146v131q156 0 171 -2q9 0 19 -3v46q-33 -1 -68 -5h-122v123l91 12q22 1 43 5q19 -25 24 -33q4 -6 13 -23l39 27q0 1 -24 32q-13 18 -27 37q-12 18 -23 31l-38 50q-18 -16 -36 -27q21 -24 49 -61
l-251 -28q10 9 21 20q72 79 88 92q1 3 18 19q6 7 14 13h116q34 0 67 -5v46q-39 -4 -67 -5l-294 1q-9 1 -14 2q-6 1 -13 2v-46q15 4 69 5h79q-9 -16 -32 -45q-22 -25 -60 -62q-30 -24 -54 -35q18 -43 19 -52q58 13 72 14l73 10v-119q-106 0 -134 2q-12 3 -19 3v-46q15 4 68 5
h85v-131zM87 557q1 -34 5 -71l-5 -413h47q-3 34 -5 70v373h90l-1 -649q-1 -9 -2 -23q0 -6 -3 -14h50q-4 19 -5 45l-1 641h82v-371q0 -31 -31 -32q-12 0 -36 8q0 -1 2 -6q1 -4 5 -11q1 -3 3 -7q3 -12 8 -26q4 1 11 1q37 4 54 16q21 15 22 55l1 364l4 50q-120 -4 -122 -5h-3
v125q0 21 3 40q1 18 11 35h-58q3 -9 3 -16l3 -59v-125q-63 0 -91 2q-12 3 -41 3v0z" />
  </g>

</svg>
