<?xml version="1.0" standalone="no"?>
<!DOCTYPE svg PUBLIC "-//W3C//DTD SVG 1.1//EN" "http://www.w3.org/Graphics/SVG/1.1/DTD/svg11.dtd" >
<svg xmlns="http://www.w3.org/2000/svg" xmlns:xlink="http://www.w3.org/1999/xlink" version="1.1" viewBox="-10 0 1034 1024">
  <g transform="matrix(1 0 0 -1 0 820)">
   <path fill="currentColor"
d="M241 -45q-3 -30 -3 -55q-1 -3 -1 -7q-1 -1 -1 -5h49q0 7 -2 15q-3 51 -3 70v117h207l-5 -265h49q0 7 -2 16q-1 25 -3 52v197h208v-122q0 -27 -9 -35q-9 -9 -36 -10q-21 0 -76 12q15 -22 22 -59q87 4 113 20q24 15 25 61v152q84 -42 174 -69q7 12 11 18q4 10 12 19
q1 0 4 3t11 8q-144 6 -301 129l212 -1q21 0 33 -4v47q-10 -1 -22 -4l-75 -2h-415q3 6 12 15q30 49 33 51l283 -1l49 -4q-4 54 -5 111q0 99 2 110q0 21 3 41q-31 -3 -36 -4q-24 -3 -78 -3h-16v73l252 -1q21 0 34 -4v45l-68 -6h-218v31q0 12 3 29q1 18 12 32h-59q4 -49 5 -75
v-17h-224q0 60 3 64q3 15 13 27h-61q3 -12 3 -16q0 1 2 -23l1 -52l-259 1q-34 4 -40 5v-45q24 3 37 4l262 1v-73q-67 0 -94 2q-7 3 -36 4q-3 1 -6 1q1 -33 5 -66l-1 -149q-3 -15 -4 -47q57 4 86 5h101q-24 -39 -50 -66l-278 5q-1 1 -3 1v-47q30 4 59 5h187q-33 -30 -62 -50
q-22 -15 -70 -41q-84 -42 -158 -55q18 -15 40 -43q42 15 88 38q45 21 75 40v-151zM269 459v78h481v-78h-481zM750 427v-75h-481v75h481zM487 217v-91h-212q24 15 46 33l64 58h102zM625 642v-73h-224v73h224zM526 126v91h103q57 -54 118 -91h-221z" />
  </g>

</svg>
