<?xml version="1.0" standalone="no"?>
<!DOCTYPE svg PUBLIC "-//W3C//DTD SVG 1.1//EN" "http://www.w3.org/Graphics/SVG/1.1/DTD/svg11.dtd" >
<svg xmlns="http://www.w3.org/2000/svg" xmlns:xlink="http://www.w3.org/1999/xlink" version="1.1" viewBox="-10 0 1010 1000">
   <path fill="currentColor"
d="M187 -12q70 0 97 12q0 1 -4 6q-20 23 -20 64v101h20q73 -1 125 -8q-8 32 -8 109v355q3 58 -20 77q-24 23 -93 29q-2 -53 -24 -70v113q-2 44 8 129h-87q9 -19 9 -131v-539h-57v357q1 96 8 125h-87q7 -40 8 -125v-326q-1 -68 -8 -101q34 6 136 6v-103q0 -46 -3 -75v-5z
M438 26q43 7 137 8h169q96 -1 143 -8q-8 34 -8 93v129q1 75 8 108q-50 -7 -141 -8h-48v170h114q57 0 115 -9q9 -1 11 -1v80q-38 -7 -128 -8h-40v174q-4 44 32 44q43 4 59 -10q17 -25 22 -77q47 38 85 45q-28 95 -85 111q-18 5 -57 6q-43 1 -70 -2q-69 -7 -62 -74v-15v-204
h-67q0 228 -202 317q-30 -40 -76 -73q194 -24 203 -244q-86 1 -131 8v-78q57 8 135 10h71v-170h-46q-77 1 -143 8q8 -46 8 -110v-121q-1 -63 -8 -99zM526 102v55h274v-55h-274zM526 225v55h274v-55h-274zM260 235v408q8 7 25 9q20 2 27 -3q13 -12 13 -47v-367h-65zM524 375
q30 47 47 94l-71 29q-11 -45 -46 -91zM740 487q43 -45 68 -114q79 24 87 34q0 3 -9 9q-15 10 -25 21q-11 13 -38 52q-16 23 -17 23q-48 -23 -66 -25z" />
</svg>
