<?xml version="1.0" standalone="no"?>
<!DOCTYPE svg PUBLIC "-//W3C//DTD SVG 1.1//EN" "http://www.w3.org/Graphics/SVG/1.1/DTD/svg11.dtd" >
<svg xmlns="http://www.w3.org/2000/svg" xmlns:xlink="http://www.w3.org/1999/xlink" version="1.1" viewBox="-10 0 1010 1000">
   <path fill="currentColor"
d="M187 -17q89 1 99 9q0 2 -4 8q-18 23 -18 60v111h53q54 0 80 -4q-6 29 -8 113v355q2 42 -16 53q-14 13 -89 27q4 -50 -22 -78v161q0 84 6 111h-81q8 -38 9 -115v-557h-53v382q1 78 4 112h-84q8 -48 8 -116v-329q0 -95 -4 -119q8 0 42 2q29 1 48 2h37v-101q-1 -45 -7 -87z
M875 20q-4 18 -7 77q0 21 -1 30v84q0 45 1 62q1 22 3 35q-36 -6 -145 -6h-131q-97 0 -127 6q5 -43 6 -111v-70q0 -80 -6 -107q18 3 145 4h117q102 0 145 -4zM792 84h-242v51h242v-51zM792 191h-242v51h242v-51zM262 237v384q58 22 55 -19v-365h-55zM437 346q10 2 37 3
q13 1 33 1h56h223q104 -3 139 -6q-6 20 -6 83v54q0 44 4 65q-37 -7 -133 -4h-215q-112 0 -138 6q4 -29 5 -79v-46q0 -60 -5 -77zM510 405v82h71v-82h-71zM645 405v82h65v-82h-65zM774 405v82h77v-82h-77zM875 584q-67 146 -149 200q31 16 97 24q67 7 147 4q-38 43 -47 91
q-155 -20 -264 -71q-93 47 -234 81q-12 -43 -58 -79q126 -6 230 -50q-18 -12 -57 -47q-37 -33 -46 -36l60 -48q-72 0 -108 6v-77q30 6 145 6h113q120 0 171 -4zM754 653h-192q31 60 101 97q56 -39 91 -97z" />
</svg>
