<?xml version="1.0" standalone="no"?>
<!DOCTYPE svg PUBLIC "-//W3C//DTD SVG 1.1//EN" "http://www.w3.org/Graphics/SVG/1.1/DTD/svg11.dtd" >
<svg xmlns="http://www.w3.org/2000/svg" xmlns:xlink="http://www.w3.org/1999/xlink" version="1.1" viewBox="-10 0 1010 1000">
   <path fill="currentColor"
d="M188 -17q97 9 96 19q0 4 -5 11q-17 24 -17 67v95h48q16 -1 42 -2q36 -2 45 -2q-6 24 -6 113v185q126 -73 171 -157h-46q-49 1 -99 8v-74q30 4 103 6h111v-139l-57 6q-92 10 -130 16q-6 -28 -35 -77q258 12 452 -66q60 69 56 88q-1 2 -10 1q-33 -5 -76 1q-17 3 -55 10
q-51 10 -78 14v144h133q74 -1 107 -8v74q-24 -4 -109 -4h-71q58 89 212 127q-37 32 -55 69l-38 -12q-8 53 -8 125v161q0 37 9 103q1 6 1 8h-87q3 -18 6 -57h-262q0 6 1 19q3 33 3 42h-86q9 -25 8 -111v-165q0 -82 -4 -105l-6 6q-29 -32 -61 -45v166q-2 59 -101 86
q-22 -87 -28 -74v151q0 38 6 107h-83q8 -43 9 -111v-562h-53v362q1 92 8 131l-87 -2q8 -31 9 -123v-322q0 -88 -6 -115q21 3 84 4h45v-97q-1 -72 -6 -95zM806 104q65 32 70 40l5 5q-1 1 -4 3q-15 10 -22 19q-3 5 -11 15q-22 27 -42 56q-19 -14 -64 -25q39 -42 68 -113z
M534 139q24 39 47 84l-69 19q-9 -47 -48 -85zM262 240v399q67 16 59 -22v-377h-59zM698 310v73q0 67 6 92h-81q7 -35 8 -88v-69q-67 121 -143 174q31 6 121 6h145q98 0 117 -6q-114 -67 -173 -182zM534 554v85h99v-85h-99zM698 554v85h100l2 -85h-102zM534 695v85h99v-85
h-99zM698 695v85h100v-85h-100z" />
</svg>
