<?xml version="1.0" standalone="no"?>
<!DOCTYPE svg PUBLIC "-//W3C//DTD SVG 1.1//EN" "http://www.w3.org/Graphics/SVG/1.1/DTD/svg11.dtd" >
<svg xmlns="http://www.w3.org/2000/svg" xmlns:xlink="http://www.w3.org/1999/xlink" version="1.1" viewBox="-10 0 1010 1000">
   <path fill="currentColor"
d="M266 0q18 10 57 27q62 27 52 31q-32 26 -108 140q-72 107 -114 156q6 -1 20 -2q78 -10 144 -20q9 -17 15 -29q22 -41 32 -71q4 -10 11 -27q94 57 91 65q0 5 -11 14q-25 19 -42 46q-198 301 -244 335l200 -36l-11 -22q-25 -54 -35 -69l72 -26q36 63 89 193l-73 28
q-8 -26 -20 -48q-247 60 -292 75l-32 -93q2 -2 9 -6q37 -20 69 -65q5 -6 15 -21q70 -97 118 -170q-164 15 -191 34l-27 -91q102 -67 206 -348zM601 4q19 2 55 6q72 8 68 12q1 6 -7 18q-13 18 -17 38q-11 51 -13 139h103q35 0 82 -6q25 -3 25 0q-24 380 -38 526
q-9 76 -48 103q-32 26 -152 43q-9 -59 -44 -115q4 1 13 2q100 17 122 -6q38 -32 54 -476h-119q-17 449 -264 609q-40 -39 -102 -59q276 -116 285 -525q1 -18 1 -25h-30q-91 0 -103 6v-83q12 3 109 6h26z" />
</svg>
