<?xml version="1.0" standalone="no"?>
<!DOCTYPE svg PUBLIC "-//W3C//DTD SVG 1.1//EN" "http://www.w3.org/Graphics/SVG/1.1/DTD/svg11.dtd" >
<svg xmlns="http://www.w3.org/2000/svg" xmlns:xlink="http://www.w3.org/1999/xlink" version="1.1" viewBox="-10 0 1034 1024">
  <g transform="matrix(1 0 0 -1 0 820)">
   <path fill="currentColor"
d="M496 463h-352q-21 0 -40 2q-9 0 -18 2q-1 1 -3 1q-3 1 -5 1v-47q22 4 66 5h734q30 0 70 -5v47q-3 0 -9 -2q-15 -1 -14 -2q-24 0 -47 -2h-342v128l262 -1l36 -4v46q-18 -1 -16 -2q-25 0 -54 -3h-228v74q0 22 13 64h-59q6 -63 6 -93v-45l-266 1l-32 4v-46q33 3 66 5h232
v-128zM496 73l-345 1q-10 1 -33 4v-46q33 3 66 5h312l-3 -178q-3 -6 -3 -17h52q-6 30 -6 58v137h308q24 0 51 -3l19 -2v46q-36 -4 -70 -5h-308v144l284 -3q4 0 14 -2v46q-18 -1 -16 -2l-106 -3h-77q42 66 57 93q18 25 43 37q-18 6 -34 17q-10 7 -21 13q-36 -85 -86 -160
h-187q6 6 13 12q4 6 18 13q-28 40 -56 69l-54 60q-16 -12 -25 -23q0 -3 -7 -7l68 -70q19 -21 38 -54h-139q-25 0 -50 3q1 0 -16 2v-46q51 4 66 5h233v-144z" />
  </g>

</svg>
