<?xml version="1.0" standalone="no"?>
<!DOCTYPE svg PUBLIC "-//W3C//DTD SVG 1.1//EN" "http://www.w3.org/Graphics/SVG/1.1/DTD/svg11.dtd" >
<svg xmlns="http://www.w3.org/2000/svg" xmlns:xlink="http://www.w3.org/1999/xlink" version="1.1" viewBox="-10 0 1034 1024">
  <g transform="matrix(1 0 0 -1 0 820)">
   <path fill="currentColor"
d="M395 420q-9 -18 -26 -48q-37 -1 -59 -2l-152 -7q36 57 64 104q15 25 35 61l53 98q21 39 34 55q6 9 27 26q-25 7 -34 12l-31 21q-9 -39 -24 -75q-12 -33 -46 -92q-30 -58 -65 -115l-27 -43q-19 -33 -47 -52q9 -21 12 -31q3 -9 4 -19q30 9 51 10q93 7 184 12
q-3 -4 -65 -114q-42 -69 -107 -165q-31 -36 -47 -47q-9 -4 -17 -8l13 -30q0 -10 6 -24q42 12 60 15q10 0 23 4l290 35q0 -6 31 -94q24 22 45 29l-113 251l-18 36q-34 -19 -45 -24q21 -24 40 -59q18 -33 45 -105q-288 -25 -296 -28l10 16q66 100 119 185q33 54 74 129l49 88
q39 66 43 70q12 18 31 35q-42 15 -61 29q-10 -33 -22 -58zM894 617q-21 -1 -42 -5l-280 1q-6 1 -9 1q-9 0 -12 2q-4 0 -12 2v-48q6 3 33 6l299 1l-19 -477l-6 -71q-9 -61 -28 -86q-25 -28 -101 -29q-31 0 -71 9q3 -9 7 -15q4 -18 8 -42q67 3 113 11q37 9 60 23q27 21 41 65
q12 46 17 148q15 447 19 473q0 13 3 32q-10 0 -20 -1v0z" />
  </g>

</svg>
