<?xml version="1.0" standalone="no"?>
<!DOCTYPE svg PUBLIC "-//W3C//DTD SVG 1.1//EN" "http://www.w3.org/Graphics/SVG/1.1/DTD/svg11.dtd" >
<svg xmlns="http://www.w3.org/2000/svg" xmlns:xlink="http://www.w3.org/1999/xlink" version="1.1" viewBox="-10 0 1010 1000">
   <path fill="currentColor"
d="M246 10q117 51 115 62q0 3 -10 9q-16 10 -22 19q-28 51 -89 153q-58 98 -81 140l172 -14q38 -60 74 -156q93 45 97 59q-1 4 -11 13q-30 26 -49 59q-130 224 -232 365l221 -38q1 -10 -58 -125l75 -28q47 102 123 242l-91 40q2 -12 -22 -62q-254 46 -349 82
q-12 -44 -46 -93q59 16 243 -300q-93 6 -215 36q-7 -32 -35 -77q-6 -10 -6 -11q114 -66 196 -375zM911 104q-10 94 -19 315q-11 226 -19 349q-1 59 -41 80q-36 23 -161 39q-2 -51 -42 -111q92 14 124 3q33 -9 35 -54q18 -286 27 -522h-152q-98 -3 -149 4v-95q54 5 202 5
q19 0 49 -1q105 1 146 -12z" />
</svg>
