<?xml version="1.0" standalone="no"?>
<!DOCTYPE svg PUBLIC "-//W3C//DTD SVG 1.1//EN" "http://www.w3.org/Graphics/SVG/1.1/DTD/svg11.dtd" >
<svg xmlns="http://www.w3.org/2000/svg" xmlns:xlink="http://www.w3.org/1999/xlink" version="1.1" viewBox="-10 0 1034 1024">
  <g transform="matrix(1 0 0 -1 0 820)">
   <path fill="currentColor"
d="M152 378q22 37 40 75q85 180 98 195q19 34 51 67q-33 15 -66 29q-12 -48 -45 -121q-60 -135 -96 -190q-30 -43 -57 -54q16 -22 25 -54q24 9 45 11q15 0 44 4q40 0 115 5q-40 -76 -70 -126q-27 -43 -60 -91q-24 -36 -46 -60q-15 -15 -43 -33q10 -21 15 -40q0 -1 4 -14
q28 6 53 14q28 9 79 14q24 6 90 14l99 14q7 -42 10 -76q36 18 45 19q0 1 2 1l-41 139q-13 48 -35 112q-19 -9 -47 -13q12 -18 25 -47l33 -98q-150 -21 -254 -32q49 72 99 149q51 82 108 185q55 108 60 111q15 22 42 44q-39 13 -66 27q-9 -28 -34 -84q-21 -48 -46 -91z
M878 483l-6 -115l-15 -254q-4 -78 -12 -128q-7 -57 -42 -74q-27 -12 -77 -12q-19 0 -61 5q9 -15 14 -39q0 -3 2 -12q102 4 143 22q36 18 55 71q7 28 12 76l23 384l9 117q-36 -1 -72 -5h-156l5 167q1 39 16 71h-64q6 -33 7 -106q0 -61 -5 -132l-154 3q-6 1 -13 2v-47
q15 4 39 5l126 1q-6 -136 -24 -232q-18 -87 -53 -163q-73 -147 -211 -210q21 -9 36 -25q3 -6 12 -12q132 88 198 226q36 78 55 165q16 85 28 251h185z" />
  </g>

</svg>
