<?xml version="1.0" standalone="no"?>
<!DOCTYPE svg PUBLIC "-//W3C//DTD SVG 1.1//EN" "http://www.w3.org/Graphics/SVG/1.1/DTD/svg11.dtd" >
<svg xmlns="http://www.w3.org/2000/svg" xmlns:xlink="http://www.w3.org/1999/xlink" version="1.1" viewBox="-10 0 1034 1024">
  <g transform="matrix(1 0 0 -1 0 820)">
   <path fill="currentColor"
d="M892 543q25 0 54 -3q3 0 14 -3v47q-33 -1 -68 -5l-632 1q-19 3 -54 4q3 -40 5 -61l-3 -315q-13 -90 -14 -96q-22 -96 -71 -171q-27 -39 -61 -61q33 -12 56 -30q85 118 112 230q13 55 20 151q3 54 3 127l1 185h638zM468 714q13 -6 17 -7q3 -1 6 -4l90 -66q16 -15 39 -38
q10 21 31 37l-79 65l-74 53q-10 -22 -30 -40v0z" />
  </g>

</svg>
