<?xml version="1.0" standalone="no"?>
<!DOCTYPE svg PUBLIC "-//W3C//DTD SVG 1.1//EN" "http://www.w3.org/Graphics/SVG/1.1/DTD/svg11.dtd" >
<svg xmlns="http://www.w3.org/2000/svg" xmlns:xlink="http://www.w3.org/1999/xlink" version="1.1" viewBox="-10 0 1010 1000">
   <path fill="currentColor"
d="M560 -13q10 30 26 74q11 30 15 41h212q78 0 131 -12v97q-59 -11 -131 -10h-595q3 317 -19 440q-17 126 -92 274q-58 -47 -91 -59q110 -131 121 -401q1 -308 -3 -319q-1 -11 -1 -18q55 9 115 8h260q-28 -52 -58 -100zM601 227q20 2 55 5q56 3 54 8q0 1 -2 6
q-21 38 -21 104v131q127 -85 170 -141q70 69 74 89q0 1 -5 3q-69 19 -239 128v204q-2 31 11 37q12 8 64 9q61 4 74 -18q17 -18 23 -109q46 43 93 54q-21 87 -49 120q-26 33 -76 30h-121q-103 3 -99 -83v-454q0 -35 -6 -123zM313 229q103 3 108 13q1 2 -2 6q-20 31 -20 112
v55q60 0 88 -1q34 -2 71 -7v83q-53 -6 -82 -7q-31 -2 -77 -2v285q30 -23 105 -78q17 -12 26 -19q0 44 18 93q-182 105 -217 147q-15 -38 -45 -89q27 -20 30 -33q5 -12 3 -66v-363q0 -76 -6 -129z" />
</svg>
