<?xml version="1.0" standalone="no"?>
<!DOCTYPE svg PUBLIC "-//W3C//DTD SVG 1.1//EN" "http://www.w3.org/Graphics/SVG/1.1/DTD/svg11.dtd" >
<svg xmlns="http://www.w3.org/2000/svg" xmlns:xlink="http://www.w3.org/1999/xlink" version="1.1" viewBox="-10 0 1034 1024">
  <g transform="matrix(1 0 0 -1 0 820)">
   <path fill="currentColor"
d="M174 628q6 -57 6 -85l-2 -190q0 -102 -5 -170q-4 -63 -14 -103q-16 -72 -45 -118q-25 -45 -63 -73q28 -4 53 -24q31 45 57 101q25 57 38 114q9 54 14 147l5 360l667 -1q9 0 41 -4v46q-7 0 -15 -3l-54 -2l-635 1q-15 3 -48 4zM560 372h-214q-18 0 -45 2q-7 0 -18 4v-46
q55 6 87 5h153q-45 -100 -126 -202q-90 -109 -187 -168q18 -6 31 -18q7 -6 15 -13q36 30 79 72q21 19 38 39q16 16 29 32q84 99 158 244l-3 -462q-1 -6 -3 -13h51q-4 21 -5 65v407q64 -121 186 -231q37 -33 72 -60q36 -27 81 -56q13 21 43 41q-63 19 -143 81
q-114 88 -206 242h207q28 0 53 -3q1 0 16 -2v46q-9 -3 -65 -6h-244v108q0 19 3 33q1 15 15 33h-64q3 -6 3 -15q3 -30 3 -51v-108zM497 758q-13 7 -25 16q-12 -19 -31 -41q25 -6 54 -24q72 -46 102 -79q13 27 29 42q-48 36 -74 52z" />
  </g>

</svg>
