<?xml version="1.0" standalone="no"?>
<!DOCTYPE svg PUBLIC "-//W3C//DTD SVG 1.1//EN" "http://www.w3.org/Graphics/SVG/1.1/DTD/svg11.dtd" >
<svg xmlns="http://www.w3.org/2000/svg" xmlns:xlink="http://www.w3.org/1999/xlink" version="1.1" viewBox="-10 0 1010 1000">
   <path fill="currentColor"
d="M563 -23q1 5 4 15q21 79 26 114h226h11q60 1 105 -6v81q-48 -9 -114 -8h-591q3 322 -20 433q-22 138 -105 293q-46 -27 -95 -39q140 -167 137 -473v-110q2 -123 -6 -179q59 8 119 8h246q-15 -39 -42 -108zM619 213q7 33 22 85q6 23 10 36h121q27 0 87 -7q5 -1 8 -1
q-6 47 -6 155q0 79 1 107q1 36 5 67h-91q3 -24 2 -65h-343q-28 183 -151 331q-3 -1 -26 -11q-56 -26 -75 -31q158 -124 166 -315q5 -140 0 -236q60 6 111 6h105q-18 -61 -43 -99zM435 397v129h343v-129h-343z" />
</svg>
