<?xml version="1.0" standalone="no"?>
<!DOCTYPE svg PUBLIC "-//W3C//DTD SVG 1.1//EN" "http://www.w3.org/Graphics/SVG/1.1/DTD/svg11.dtd" >
<svg xmlns="http://www.w3.org/2000/svg" xmlns:xlink="http://www.w3.org/1999/xlink" version="1.1" viewBox="-10 0 1034 1024">
  <g transform="matrix(1 0 0 -1 0 820)">
   <path fill="currentColor"
d="M214 595h691q24 0 45 -3q1 0 14 -2v46q-3 0 -6 -1l-2 -1l-151 -3h-198q10 18 29 37q-27 24 -59 47l-94 61q-6 -7 -11 -16q-3 -6 -7 -8q-6 -7 -10 -15q18 -9 33 -17q15 -9 36 -24q43 -27 76 -65l-379 1q-19 3 -53 4q6 -54 6 -74v-206q0 -127 -13 -212q-18 -126 -62 -201
q-18 -30 -61 -70q39 -7 60 -19q27 46 47 87q36 81 49 166q9 49 14 121q4 63 6 113v254zM343 249q-30 3 -51 3l-15 2v-46q39 4 66 5h262v-272q0 -39 -16 -48q-21 -10 -53 -11q-16 0 -64 5q12 -18 22 -54q31 0 52 4q48 6 73 22q27 19 28 67v287h258q-16 -36 -28 -56l-14 -24
q-12 -24 -22 -37q-9 -15 -21 -30q27 -3 49 -14l52 101q21 42 45 96h-304q6 16 22 36q-21 12 -42 23q84 66 121 100q37 33 84 79h-449q-18 0 -51 3q-6 0 -17 3v-47l43 4q10 0 23 2h356q-21 -21 -52 -47q-37 -31 -95 -76l-125 71q-7 -16 -24 -43q51 -16 100 -45q39 -22 65 -38
q18 -12 33 -25h-311z" />
  </g>

</svg>
