<?xml version="1.0" standalone="no"?>
<!DOCTYPE svg PUBLIC "-//W3C//DTD SVG 1.1//EN" "http://www.w3.org/Graphics/SVG/1.1/DTD/svg11.dtd" >
<svg xmlns="http://www.w3.org/2000/svg" xmlns:xlink="http://www.w3.org/1999/xlink" version="1.1" viewBox="-10 0 1010 1000">
   <path fill="currentColor"
d="M462 0l103 -2q12 50 24 98h207q66 -1 133 -8v91q-68 -9 -133 -8h-562q1 214 -2 310q-4 106 -14 173q-16 125 -93 239q-23 -33 -77 -61q73 -81 91 -188q21 -95 20 -386q0 -115 -10 -164q22 3 87 2h22h236q-11 -45 -32 -96zM843 250v86q-60 -8 -113 -8h-145q0 10 -1 28
q-2 56 -7 89h211q74 -1 121 -8v83q-59 -7 -133 -6h-97v195q-1 51 16 60q14 12 89 13q69 2 65 -107v-14q44 43 95 54q-16 81 -49 117q-32 29 -137 30q-121 2 -136 -20q-12 -11 -16 -37q-4 -17 -3 -88v-203h-38q-49 218 -271 383q-37 -44 -92 -65q235 -104 288 -318h-101
q-31 0 -87 6q-26 2 -42 4v-87q77 9 129 8h115q1 -10 3 -31q7 -59 7 -86h-113q-66 0 -113 8v-86q57 7 113 8h325q55 0 117 -8z" />
</svg>
