<?xml version="1.0" standalone="no"?>
<!DOCTYPE svg PUBLIC "-//W3C//DTD SVG 1.1//EN" "http://www.w3.org/Graphics/SVG/1.1/DTD/svg11.dtd" >
<svg xmlns="http://www.w3.org/2000/svg" xmlns:xlink="http://www.w3.org/1999/xlink" version="1.1" viewBox="-10 0 1034 1024">
  <g transform="matrix(1 0 0 -1 0 820)">
   <path fill="currentColor"
d="M533 281q-3 -24 -5 -49q-1 -30 -8 -63l-211 1q-9 1 -22 2q-9 0 -20 3v-47q39 4 68 5h175q-42 -103 -137 -176q-111 -79 -201 -93q27 -18 42 -43q61 22 139 72q73 46 113 90q51 58 89 150h3q57 -111 136 -178q93 -75 210 -124q12 25 48 47q-73 15 -120 37q-79 37 -147 105
q-54 55 -85 113l189 -1l50 -4q-4 54 -5 108v45l128 -3q4 0 13 -3v47q-61 -4 -81 -5h-60q0 102 4 145q0 6 1 10q-60 -4 -74 -5h-194v34q0 13 3 30q1 15 12 36h-59q6 -30 6 -66v-34l-221 1q-10 1 -23 2q-3 0 -20 2v-46q18 1 20 2q24 1 51 3h193v-114h-318l3 280h652
q33 0 63 -5v46q-21 -4 -63 -5l-641 1q-19 3 -59 4q6 -78 6 -101l-3 -241l-11 -135q-1 -6 -1 -12q-3 -27 -11 -57q-24 -106 -64 -176q-16 -24 -45 -53q36 -3 59 -18q27 51 41 82q15 39 30 86q21 75 29 126q7 60 13 142h320zM559 169l12 112h226v-112h-238zM571 317v114h226
v-114h-226zM464 726q61 -25 129 -88q16 25 34 35q-43 36 -130 92q-3 -6 -21 -24z" />
  </g>

</svg>
