<?xml version="1.0" standalone="no"?>
<!DOCTYPE svg PUBLIC "-//W3C//DTD SVG 1.1//EN" "http://www.w3.org/Graphics/SVG/1.1/DTD/svg11.dtd" >
<svg xmlns="http://www.w3.org/2000/svg" xmlns:xlink="http://www.w3.org/1999/xlink" version="1.1" viewBox="-10 0 1034 1024">
  <g transform="matrix(1 0 0 -1 0 820)">
   <path fill="currentColor"
d="M226 617l676 -1q24 -1 49 -5v48q-33 -6 -65 -7h-281q6 9 30 33q-19 18 -34 27l-68 50q-6 3 -19 12q-15 -19 -33 -38q58 -22 117 -84h-347q-9 0 -37 3q-7 3 -34 4q1 -24 3 -39q3 -30 3 -45v-156q0 -63 -4 -128q-3 -60 -13 -122q-24 -127 -71 -204q-18 -28 -54 -61
q34 -1 61 -18q33 54 59 119q33 91 48 191q13 94 14 202v219zM621 350v-254q-58 -43 -101 -67q-39 -21 -93 -38q25 -15 46 -40q60 36 148 94v-118q0 -54 50 -67q40 -7 123 -8q52 0 85 14q30 13 47 46q15 33 31 81q-18 4 -50 21q0 -13 -3 -25q-12 -72 -45 -87q-22 -9 -90 -10
q-51 0 -77 6q-33 7 -34 44v131q42 34 64 56l85 83q31 33 37 36q6 6 30 19q-18 12 -47 36q-46 -78 -169 -179v226h223q34 0 59 -5v46q-19 -4 -59 -5h-346l6 85q3 48 7 59q4 21 20 38q-34 1 -69 1q1 -25 2 -44q0 -15 -7 -139h-174q-36 0 -58 5v-46q25 4 58 5h169
q-18 -145 -57 -238q-48 -108 -144 -182q-60 -42 -106 -56q22 -9 51 -33q102 63 175 152q46 60 75 138q25 76 46 219h92zM653 526q51 -27 132 -111l30 38q-30 27 -67 58q-36 30 -65 49q-9 -13 -30 -34v0z" />
  </g>

</svg>
