<?xml version="1.0" standalone="no"?>
<!DOCTYPE svg PUBLIC "-//W3C//DTD SVG 1.1//EN" "http://www.w3.org/Graphics/SVG/1.1/DTD/svg11.dtd" >
<svg xmlns="http://www.w3.org/2000/svg" xmlns:xlink="http://www.w3.org/1999/xlink" version="1.1" viewBox="-10 0 1034 1024">
  <g transform="matrix(1 0 0 -1 0 820)">
   <path fill="currentColor"
d="M569 81l-286 1q-12 3 -35 3q-6 0 -17 2v-48q6 3 39 6l299 1l-4 -197q-1 -1 -1 -6h48q-4 54 -5 75v128q336 0 346 -2q6 0 11 -4q1 0 4 -1v48q-9 0 -11 -2q-3 0 -9 -1q-16 0 -45 -3h-296v137h193q27 0 51 -3q-3 0 15 -2v46q-10 0 -12 -2q-27 0 -54 -3h-193v127h238
q25 0 50 -3q1 0 16 -2v47q-7 -1 -14 -3q-15 -1 -52 -3h-176q42 51 70 81q36 39 66 45q-30 19 -56 44q-25 -40 -46 -69q-21 -30 -62 -77q-7 -10 -22 -24h-276q-24 0 -49 3q-4 0 -17 3v-47l43 4l249 1v-127h-182l-49 3l-17 2v-46q9 0 18 2q4 0 48 3h182v-137zM176 649
q1 -33 5 -68l-1 -302q-3 -54 -9 -121q-18 -111 -71 -197q-16 -27 -50 -62q27 -4 53 -17q6 9 11 19q24 42 35 64q19 42 33 85q24 76 31 147q3 34 4 86l2 87v238h657q25 0 50 -3l15 -2v46q-4 0 -7 -1q-3 0 -4 -1l-111 -3h-226q12 16 30 33q-28 28 -61 54q-48 39 -53 45
q-15 -19 -29 -33q22 -16 60 -49q28 -24 48 -50l-366 1q-19 3 -46 4zM407 569q-12 -15 -29 -29l65 -64q19 -21 42 -54l33 33l-75 80q-18 19 -36 34v0z" />
  </g>

</svg>
