<?xml version="1.0" standalone="no"?>
<!DOCTYPE svg PUBLIC "-//W3C//DTD SVG 1.1//EN" "http://www.w3.org/Graphics/SVG/1.1/DTD/svg11.dtd" >
<svg xmlns="http://www.w3.org/2000/svg" xmlns:xlink="http://www.w3.org/1999/xlink" version="1.1" viewBox="-10 0 1010 1000">
   <path fill="currentColor"
d="M554 -17q20 70 35 129h232q66 0 117 -8v91q-52 -8 -117 -8h-611v45q17 458 -99 677q-34 -29 -101 -38q109 -157 115 -363q2 -120 3 -155v-87q-2 -74 -11 -162q42 4 115 8h266q-2 -4 -5 -12q-25 -64 -45 -104zM442 213q112 7 110 16q0 1 -2 7q-23 38 -32 127h294l17 -1
q72 -1 98 -6v81q-39 -9 -115 -6h-145v198q102 -96 139 -168q5 3 15 10q72 47 70 53q0 2 -7 6q-26 15 -59 48q-27 27 -97 85q-39 33 -61 52q0 56 1 69q2 19 8 28q6 16 68 14q73 2 86 -19q16 -13 21 -108q33 43 95 55q-27 98 -52 124q-23 29 -82 27h-104q-86 0 -103 -25
q-11 -13 -13 -38q-3 -21 -1 -80q-42 27 -125 70q-8 -13 -39 -45q-23 -23 -22 -25q118 -31 186 -81v-250h-81q-28 294 -256 484q-33 -43 -87 -61q223 -111 264 -423h-70h-18q-42 -2 -99 6v-83q51 9 111 9h83q7 -101 4 -150zM629 250l75 -35q61 65 82 103l-80 38
q-24 -46 -77 -106z" />
</svg>
