<?xml version="1.0" standalone="no"?>
<!DOCTYPE svg PUBLIC "-//W3C//DTD SVG 1.1//EN" "http://www.w3.org/Graphics/SVG/1.1/DTD/svg11.dtd" >
<svg xmlns="http://www.w3.org/2000/svg" xmlns:xlink="http://www.w3.org/1999/xlink" version="1.1" viewBox="-10 0 1010 1000">
   <path fill="currentColor"
d="M548 -33q4 13 12 37q15 49 27 82h254q69 -4 113 -10v89q-47 -8 -117 -8h-635v204q-1 65 -2 96q-9 245 -117 468q-15 -19 -60 -50q-15 -10 -21 -15q111 -174 119 -397q4 -108 2 -215t-10 -170q64 8 129 8h254q-13 -50 -46 -99zM855 215q36 40 60 79q-2 4 -30 5
q-68 3 -139 13v129q72 0 100 -1q35 -2 73 -7v79q-35 -5 -73 -7q-19 0 -41 -1h-59v147q71 0 99 -1q35 -2 66 -7v80q-23 -5 -63 -7q-20 0 -47 -1h-79q-99 0 -132 1q-42 2 -64 7v-80q32 5 63 7q15 0 34 1h52v-147q-78 -1 -143 8v-79q69 9 143 8v-127q-45 3 -121 18
q-14 -43 -32 -70q206 -2 333 -47zM252 237q133 16 270 0q-48 88 -145 224q90 -1 125 -4q-21 154 -83 289q79 60 224 76q154 16 333 -14q-38 46 -47 105q-262 -4 -358 -24q-102 -19 -194 -85q-61 65 -153 127q-4 -3 -12 -10q-42 -38 -69 -50q107 -38 180 -119
q-54 -62 -105 -148q48 -24 74 -36q19 53 71 125q32 -60 50 -167q-104 -1 -143 10q-9 -38 -26 -71q56 9 155 -157q-100 0 -147 8v-79z" />
</svg>
