<?xml version="1.0" standalone="no"?>
<!DOCTYPE svg PUBLIC "-//W3C//DTD SVG 1.1//EN" "http://www.w3.org/Graphics/SVG/1.1/DTD/svg11.dtd" >
<svg xmlns="http://www.w3.org/2000/svg" xmlns:xlink="http://www.w3.org/1999/xlink" version="1.1" viewBox="-10 0 1034 1024">
  <g transform="matrix(1 0 0 -1 0 820)">
   <path fill="currentColor"
d="M226 588l691 -1q24 0 43 -5v47q-61 -4 -85 -5h-252q10 18 20 30q3 3 6 7q-34 30 -147 104q-3 -6 -34 -38q39 -18 75 -44q46 -34 77 -59l-385 1q-3 0 -54 4q4 -69 5 -81v-255q0 -123 -24 -213q-19 -84 -62 -151q-18 -33 -59 -68q34 -6 58 -19q34 52 55 94q39 87 59 182
q6 42 10 102q3 63 3 132v236zM571 -75h-272q-12 0 -47 3q-9 0 -21 3v-47q31 4 68 5l611 -1q30 0 47 -4q3 0 7 -2v49q-12 -3 -19 -3q-24 -1 -36 -3h-298v169l224 -1q30 0 47 -4q3 0 7 -2v49q-12 -3 -19 -3q-24 -1 -36 -3h-223v339q0 15 2 33q3 13 12 34h-59q1 -33 5 -67v-339
h-193q-12 0 -47 3q-9 0 -21 3v-47q31 4 68 5h193v-169zM352 298q12 18 30 49l84 -68q30 -25 55 -52q12 22 39 38q-55 34 -99 67l-66 50q39 79 63 100q-31 9 -56 23q-19 -75 -72 -171q-51 -84 -95 -125q12 -3 22 -8q4 -1 26 -17zM787 322q12 -6 56 -44q31 -24 52 -44
q9 -7 22 -21q9 21 33 40q-51 36 -53 38q-31 24 -67 49l-53 39q1 6 5 11q4 12 10 23q21 52 45 77q-36 10 -57 22q-15 -76 -62 -162q-52 -88 -97 -127q27 -6 47 -22q45 63 94 139q12 -9 25 -18v0z" />
  </g>

</svg>
