<?xml version="1.0" standalone="no"?>
<!DOCTYPE svg PUBLIC "-//W3C//DTD SVG 1.1//EN" "http://www.w3.org/Graphics/SVG/1.1/DTD/svg11.dtd" >
<svg xmlns="http://www.w3.org/2000/svg" xmlns:xlink="http://www.w3.org/1999/xlink" version="1.1" viewBox="-10 0 1010 1000">
   <path fill="currentColor"
d="M550 -25q5 15 14 46q13 41 21 61h246q46 1 104 -8v77q-51 -6 -102 -6h-250v64h169l83 -4q-6 41 -6 107q87 1 127 -6v61q-29 -5 -127 -5q-1 46 6 101q-31 -3 -49 -3q-15 -1 -38 -1h-165v53h161l105 -6q-6 38 -6 78v252q2 49 -23 62q-18 15 -114 25q-7 -43 -33 -87
q75 5 84 -6q16 -8 15 -62h-189q-1 88 6 133h-79q3 -28 5 -59q1 -15 1 -32v-42h-175q0 48 1 77q2 33 5 66h-85q9 -58 8 -143v-176v-13q1 -35 -4 -73q60 6 101 6h149v-53h-151q-41 0 -89 6v-62q42 6 89 6h151v-47h-294q7 317 -117 537q-54 -33 -99 -39q139 -142 135 -451
q1 -72 0 -186q-1 -109 -4 -149q33 5 58 7q21 1 55 1h244q-18 -42 -46 -88zM222 145v167h294v-54h-143q-45 0 -93 6v-61q42 6 93 6h143v-64h-294zM583 258v54h179v-54h-179zM583 362v47h179v-47h-179zM583 560v61h189v-61h-189zM516 560h-175v61h175v-61zM341 665v56h175v-56
h-175zM583 665v56h189v-56h-189z" />
</svg>
