<?xml version="1.0" standalone="no"?>
<!DOCTYPE svg PUBLIC "-//W3C//DTD SVG 1.1//EN" "http://www.w3.org/Graphics/SVG/1.1/DTD/svg11.dtd" >
<svg xmlns="http://www.w3.org/2000/svg" xmlns:xlink="http://www.w3.org/1999/xlink" version="1.1" viewBox="-10 0 1010 1000">
   <path fill="currentColor"
d="M548 -23q9 27 27 105h223q58 0 121 -6v83q-48 -6 -123 -6h-586v262q7 276 -109 480q-42 -37 -89 -45q71 -87 96 -188q26 -96 25 -285v-147q0 -47 -1 -73q-1 -52 -5 -83q64 9 129 8h230q-17 -57 -40 -90zM450 169q96 8 98 16q0 6 -13 15q-21 16 -35 33h208q96 0 143 -6
q-6 28 -6 87v149q0 67 6 113q-48 -6 -137 -6h-81v101h171q93 0 138 -6v83q-47 -6 -138 -6h-171q0 114 6 173h-87q6 -59 6 -173h-233q-75 0 -123 6v-81q34 3 94 4q68 -39 131 -101q-93 0 -133 6q4 -51 4 -125v-115q0 -72 -4 -109q46 6 135 6q3 -11 10 -28q9 -23 11 -36z
M542 298h-171v73h157q1 -4 3 -13q10 -36 11 -60zM768 298h-153q-5 41 -14 73h167v-73zM587 431q-5 20 -25 60q-4 9 -6 13h212v-73h-181zM512 431h-141v73h105q21 -32 36 -73zM558 570h-46q-35 46 -103 101h149v-101z" />
</svg>
