<?xml version="1.0" standalone="no"?>
<!DOCTYPE svg PUBLIC "-//W3C//DTD SVG 1.1//EN" "http://www.w3.org/Graphics/SVG/1.1/DTD/svg11.dtd" >
<svg xmlns="http://www.w3.org/2000/svg" xmlns:xlink="http://www.w3.org/1999/xlink" version="1.1" viewBox="-10 0 1034 1024">
  <g transform="matrix(1 0 0 -1 0 820)">
   <path fill="currentColor"
d="M534 350v-83l-251 5v-44l66 5h185v-124l-138 -77q-112 -58 -121 -63q-18 -9 -41 -15q6 -7 13 -15l25 -34q21 22 73 55l189 109v-140q0 -24 -12 -33q-15 -9 -47 -9q-27 0 -63 5q10 -21 20 -52q33 1 49 4q39 4 62 17q27 15 28 64v233q84 -114 206 -191q22 -15 79 -42
q46 -21 77 -29l13 13q15 21 20 23q4 6 11 10q-73 9 -130 32q-93 39 -161 106q6 3 14 9l25 16q7 6 16 10q4 3 15 11q48 30 66 37q10 6 25 8q-31 31 -42 44q-12 -15 -43 -41q-36 -27 -100 -70q-45 45 -91 116v13l212 -1q16 0 45 -4q-4 19 -5 51v71l118 -3q4 0 10 -3v46
q-1 0 -20 -3l-108 -2q0 78 2 90q0 16 3 34q-60 -4 -63 -5h-194v85l284 -1q30 0 51 -5v45q-27 -1 -56 -5l-626 1q-3 0 -48 4q1 -31 5 -65v-205q0 -147 -16 -245q-21 -114 -73 -192q-15 -21 -45 -50q39 -4 63 -11q24 33 49 94q22 54 37 108q21 79 26 288h312zM222 385v204h312
v-85l-251 5v-45q51 6 66 6h185v-85h-312zM571 267v83h214v-83h-214zM571 470h214v-85h-214v85zM280 153q69 -18 152 -76q7 13 14 24q3 4 8 12l-84 47q-48 25 -69 31q-9 -18 -21 -38zM605 659q4 6 10 10q-51 39 -156 90q-10 -22 -23 -39q66 -24 151 -86q3 6 18 25v0z" />
  </g>

</svg>
