<?xml version="1.0" standalone="no"?>
<!DOCTYPE svg PUBLIC "-//W3C//DTD SVG 1.1//EN" "http://www.w3.org/Graphics/SVG/1.1/DTD/svg11.dtd" >
<svg xmlns="http://www.w3.org/2000/svg" xmlns:xlink="http://www.w3.org/1999/xlink" version="1.1" viewBox="-10 0 1034 1024">
  <g transform="matrix(1 0 0 -1 0 820)">
   <path fill="currentColor"
d="M583 81q51 -96 145 -152q42 -24 103 -45q67 -24 108 -30q7 21 37 46q-88 0 -175 37q-126 54 -172 144l181 -1q22 -1 46 -5l-3 34q-3 25 -3 85l6 78q-66 -4 -92 -5l-377 1q-3 0 -52 4q6 -54 6 -103q0 -45 -5 -90q-10 -69 -48 -112q-37 -42 -87 -67q-22 -10 -65 -21
q31 -19 49 -37q96 52 141 111q39 52 52 128h205zM812 117h-433v114h433v-114zM455 494q0 43 3 50q1 12 11 25h-57q0 -9 2 -14q0 -30 3 -61l-148 4q-4 1 -7 2v-47q54 4 78 5h77l-5 -133l70 6l248 -1q25 -1 52 -5q-6 69 -6 103v30h119q24 0 51 -3l15 -2v47q-10 -3 -29 -4
l-156 -2q0 39 3 55q1 15 11 31h-58q0 -6 3 -23q0 -30 3 -63h-283zM738 366h-283v92h283v-92zM184 402l-1 -122q0 -51 -4 -85q-3 -30 -10 -64q-21 -102 -68 -181q-22 -33 -51 -61q24 -3 53 -19q42 76 47 86q18 39 35 89q24 81 31 147q6 132 6 172v239h654q25 0 50 -3l15 -2
v46q-9 0 -11 -2l-106 -3h-207q1 3 4 8q9 15 19 27q-24 18 -44 31q-27 18 -57 41l-36 22q-9 -18 -25 -39q55 -25 127 -90l-380 1q-19 3 -46 4q1 -33 5 -68v-174z" />
  </g>

</svg>
