<?xml version="1.0" standalone="no"?>
<!DOCTYPE svg PUBLIC "-//W3C//DTD SVG 1.1//EN" "http://www.w3.org/Graphics/SVG/1.1/DTD/svg11.dtd" >
<svg xmlns="http://www.w3.org/2000/svg" xmlns:xlink="http://www.w3.org/1999/xlink" version="1.1" viewBox="-10 0 1010 1000">
   <path fill="currentColor"
d="M567 328h-69q-22 23 -36 38q-42 46 -75 70q-7 6 -16 13q22 3 58 4h77v-32q0 -9 -1 -27t-1 -27q27 5 65 6q23 0 24 4q1 2 -5 9q-15 19 -15 39v30h98q29 -1 59 -4q-49 -28 -123 -123h-40zM375 502v62h131v-62h-131zM573 504v60h143v-60h-143zM375 610v61h131v-61h-131z
M573 610v61h143v-61h-143zM210 481q84 -33 195 -155h-64q-70 0 -99 8v-76q48 8 95 8h119q29 -53 36 -79q92 17 91 28q-1 2 -6 5q-24 14 -41 48h244q63 0 95 -6v72q-36 -6 -97 -6h-97q107 101 263 129q-40 36 -61 81q-68 -33 -95 -48v153q0 45 6 84q-30 -6 -82 -6h-139v57
q-5 42 34 38h133q49 1 65 -20q18 -21 18 -81q42 35 86 49q-24 83 -54 101q-25 22 -115 20h-125q-72 1 -90 -13q-21 -12 -19 -60v-91h-131q0 20 6 47h-83q6 -36 6 -71v-195l-58 42q-13 -36 -36 -63zM538 -6q20 48 39 116h215q83 -1 125 -10v85q-36 -9 -127 -8h-225h-174h-26
h-159v222q3 348 -91 520q-44 -31 -95 -56q65 -75 87 -198q21 -106 20 -379q1 -116 -7 -160q-2 -14 -3 -22q33 6 151 6h206q-12 -40 -41 -96z" />
</svg>
