<?xml version="1.0" standalone="no"?>
<!DOCTYPE svg PUBLIC "-//W3C//DTD SVG 1.1//EN" "http://www.w3.org/Graphics/SVG/1.1/DTD/svg11.dtd" >
<svg xmlns="http://www.w3.org/2000/svg" xmlns:xlink="http://www.w3.org/1999/xlink" version="1.1" viewBox="-10 0 1010 1000">
   <path fill="currentColor"
d="M524 -31q9 17 21 54q10 30 17 49h232q56 1 133 -10v93q-41 -5 -66 -7q-21 -1 -67 -1h-600q0 25 1 73q16 426 -78 689q-55 -36 -97 -47q76 -134 89 -294q6 -129 6 -233q-1 -114 -8 -271q4 0 13 1q70 7 98 7h256q-10 -33 -41 -80zM438 173q4 24 22 89q44 0 64 -1
q24 -1 45 -5q-4 42 -4 170t4 168q-44 -9 -111 -6h-121v162q41 -22 121 -57q-10 -17 -27 -42q-3 -4 -4 -6l59 -32q59 69 119 159l-77 40q-7 -18 -29 -54q-6 -9 -9 -14q-20 12 -57 33q-130 72 -143 96q-25 -37 -48 -69q16 -14 20 -29q4 -13 4 -52v-369q1 -47 -6 -98q8 1 20 2
q52 4 107 4q-3 -5 -8 -17q-16 -34 -30 -56zM917 211q-21 63 -51 156q-29 87 -35 104q122 141 92 246q-22 77 -155 101q-11 -53 -42 -97q38 2 58 0q21 -2 34 -10q27 -15 27 -60q-5 -77 -93 -163q32 -91 61 -200h-109v496q0 87 10 145h-89q9 -64 8 -141v-10v-446
q1 -74 -6 -119q45 4 91 4h94h18q45 3 87 -6zM494 318h-157v83h157v-83zM494 449h-157v83h157v-83z" />
</svg>
