<?xml version="1.0" standalone="no"?>
<!DOCTYPE svg PUBLIC "-//W3C//DTD SVG 1.1//EN" "http://www.w3.org/Graphics/SVG/1.1/DTD/svg11.dtd" >
<svg xmlns="http://www.w3.org/2000/svg" xmlns:xlink="http://www.w3.org/1999/xlink" version="1.1" viewBox="-10 0 1010 1000">
   <path fill="currentColor"
d="M552 -15q9 19 33 103h234q59 1 114 -8v79q-66 -9 -114 -8h-607q0 123 -1 187q-1 76 -5 168q-10 189 -109 397q-38 -35 -85 -61q100 -138 115 -332q6 -81 5 -204q-1 -126 -7 -226q63 8 105 8h266q-10 -29 -40 -82zM452 161q14 28 46 77q4 7 6 10h97q23 -41 44 -87
q89 15 95 26q-1 2 -6 4q-32 13 -61 57h135q62 1 95 -6v70q-45 -5 -87 -4h-8h-157v61h101q26 0 79 -5q12 -1 18 -2q-7 31 -6 100v23q38 0 54 -1q20 -2 40 -7v67q-47 -6 -94 -6q0 47 1 71q1 28 5 54q-38 -8 -129 -8q69 101 213 153q-36 44 -54 79q-160 -97 -226 -232v135
q0 60 8 119h-82q9 -67 8 -121v-133h-107v133q0 48 8 113h-77q7 -50 6 -109v-137q-77 141 -189 244q-37 -34 -73 -49q133 -81 194 -195q-46 -1 -91 4v-63q85 8 159 8v-66h-90q-47 0 -95 6v-65q34 4 93 8h92v-66q-93 0 -159 6v-64q66 6 159 6v-61h-84q-27 -3 -93 4v-70
q55 6 93 6h88q-5 -5 -15 -18q-17 -22 -31 -37zM587 308h-107v61h107v-61zM480 421v66h107v-66h-107zM774 421h-121v66h121v-66zM480 538v66h107v-66h-107zM653 538v66h123v-66h-123z" />
</svg>
