<?xml version="1.0" standalone="no"?>
<!DOCTYPE svg PUBLIC "-//W3C//DTD SVG 1.1//EN" "http://www.w3.org/Graphics/SVG/1.1/DTD/svg11.dtd" >
<svg xmlns="http://www.w3.org/2000/svg" xmlns:xlink="http://www.w3.org/1999/xlink" version="1.1" viewBox="-10 0 1034 1024">
  <g transform="matrix(1 0 0 -1 0 820)">
   <path fill="currentColor"
d="M503 105l-17 -164q-4 -12 -12 -20q-15 -16 -50 -17q-15 0 -47 4l25 -49q45 1 72 12q27 12 39 37q10 25 17 85l17 153q-33 -1 -65 -5h-105l3 24q1 33 6 59h133q22 0 50 -3q1 0 16 -2v45q-60 -6 -89 -6h-62v81q99 0 112 -5q1 1 4 0v45q-4 0 -7 -2q-7 0 -14 -2q-22 0 -45 -2
h-50v76l104 -1l32 -4v45q-7 0 -11 -3l-111 -3h-14q0 48 3 52q1 13 11 26h-56q0 -3 1 -8l4 -57v-13h-69q-24 0 -50 3l-16 3v-45l42 4l93 1v-76l-105 4q-3 1 -8 2v-45q66 6 103 5h10v-81l-118 1l-43 5v-45q51 4 85 5h24q-1 -51 -11 -106q-15 -75 -55 -146q-34 -63 -87 -101
q22 -3 55 -15q24 31 39 52q12 16 22 36q40 73 62 161h133zM878 385q33 -1 66 -5v46q-9 0 -12 -2l-113 -3h-118q31 97 37 105q10 22 29 31q-1 0 -7 2q-27 12 -54 21q-3 -33 -21 -89q-18 -60 -37 -95q-21 -40 -38 -67q-18 -24 -45 -51q25 -10 45 -24q54 82 75 131h148
q-1 -60 -16 -131q-19 -96 -61 -175q-33 48 -51 102q-21 57 -22 89q0 12 5 32q-21 -6 -49 -10q6 -48 19 -88q21 -72 77 -164q-39 -51 -94 -98q-52 -42 -112 -67l31 -18q9 -6 19 -15q105 73 180 164q45 -48 79 -80q30 -27 83 -67q30 30 50 38q-42 15 -90 47q-30 21 -52 43
q-24 24 -48 56q39 73 61 148q19 75 33 194h3zM179 405q0 -99 -6 -208q-3 -42 -11 -90q-10 -51 -31 -111q-27 -72 -74 -121q27 -3 56 -13q36 66 64 151q13 46 22 90q7 48 13 108q4 90 5 156v239l695 -1l32 -4v47q-4 0 -8 -2q-3 0 -4 -1l-106 -3h-207q9 19 22 34q-12 9 -24 16
l-49 33q-33 21 -60 37q-9 -18 -25 -37q78 -33 124 -83l-387 1q-3 0 -47 5q6 -60 6 -92v-151z" />
  </g>

</svg>
