<?xml version="1.0" standalone="no"?>
<!DOCTYPE svg PUBLIC "-//W3C//DTD SVG 1.1//EN" "http://www.w3.org/Graphics/SVG/1.1/DTD/svg11.dtd" >
<svg xmlns="http://www.w3.org/2000/svg" xmlns:xlink="http://www.w3.org/1999/xlink" version="1.1" viewBox="-10 0 1010 1000">
   <path fill="currentColor"
d="M528 -25q5 24 21 64q9 24 14 39h249q42 0 62 -1q25 -2 59 -7v85q-55 -10 -121 -10h-618q0 122 -1 195q-1 86 -5 188q-10 176 -85 385q-29 -51 -73 -79q80 -117 87 -377q3 -211 -6 -387q8 1 24 2q61 6 87 6h254q-13 -38 -45 -80zM440 159q11 30 29 72l3 6q49 0 74 -1
q28 -1 51 -5v67q-51 -3 -200 -4q-127 0 -169 4v-67q24 3 65 5q20 0 45 1h61q-2 -2 -5 -8q-17 -28 -33 -46zM923 221q-2 5 -5 15q-34 107 -83 237q105 129 78 230q-26 74 -149 87q-7 -47 -34 -93q107 15 111 -50q-2 -69 -79 -166q30 -78 55 -155q8 -26 12 -38h-117v490
q1 73 10 141h-93q8 -65 8 -141v-456q0 -31 -1 -51q-1 -22 -5 -50q46 4 148 4t144 -4zM575 332q-4 24 -4 79t4 83q-38 -4 -153 -5q-115 1 -156 5q9 -93 0 -162q43 4 151 4t158 -4zM329 383v58h183v-58h-183zM589 528v80q-17 1 -79 24q-29 11 -46 17v32q54 0 125 -14
q-6 39 -6 64q-51 0 -73 1q-27 1 -46 3v89q16 69 -135 81q-3 -34 -29 -83q103 18 93 -28v-56q-120 9 -173 20q-3 -32 -12 -77q17 2 57 3q19 1 48 1h80q0 -37 -6 -52q12 -5 41 -15q62 -22 92 -36h-191q-45 0 -87 6v-60q31 6 169 6q139 0 178 -6z" />
</svg>
