<?xml version="1.0" standalone="no"?>
<!DOCTYPE svg PUBLIC "-//W3C//DTD SVG 1.1//EN" "http://www.w3.org/Graphics/SVG/1.1/DTD/svg11.dtd" >
<svg xmlns="http://www.w3.org/2000/svg" xmlns:xlink="http://www.w3.org/1999/xlink" version="1.1" viewBox="-10 0 1010 1000">
   <path fill="currentColor"
d="M579 195q25 3 58 4h123q45 -1 93 -4q-5 24 -4 83v101v59q1 20 2 33h-81q8 -40 8 -70q-101 32 -137 50q-12 -26 -42 -58q68 -7 179 -49v-88h-121q-42 0 -78 6v-67zM688 280q7 29 22 68l-71 17q-12 -37 -24 -73zM393 280q10 35 22 68l-74 15q-10 -44 -26 -71zM550 524
q15 17 46 33q14 7 13 9q-1 4 -17 12q-18 10 -30 18q-85 53 -231 105q-14 -24 -47 -50q146 -28 266 -127zM633 594q16 13 48 29q27 15 25 20q-2 4 -13 5q-18 3 -28 11q-117 75 -330 141q-24 -28 -49 -52q236 -48 347 -154zM744 659q21 20 57 40q20 11 20 16q0 3 -13 7
q-33 9 -60 26q-173 112 -435 167q-18 -34 -49 -69q284 -25 480 -187zM220 562q176 -47 306 -133h-60l6 -28q-81 29 -194 66q-10 -29 -32 -70q91 -4 226 -41v-98h-125q-57 0 -87 6v-69q39 6 111 6h101q49 -1 76 -4q-4 29 -4 77v72q0 47 2 67q2 -1 5 -4q8 -6 11 -6
q148 139 375 147q-7 10 -17 24q-30 41 -35 63q-204 -61 -329 -164q-155 101 -292 148q-13 -33 -44 -59zM554 -29q18 45 37 115h215q82 -1 127 -10v85q-36 -9 -127 -8h-225h-174h-26h-159v222q3 344 -111 518q-6 -4 -19 -13q-41 -31 -68 -40q71 -101 95 -223q25 -116 24 -355
q1 -116 -7 -160q-2 -14 -3 -22q33 6 151 6h206q-15 -45 -42 -96z" />
</svg>
