<?xml version="1.0" standalone="no"?>
<!DOCTYPE svg PUBLIC "-//W3C//DTD SVG 1.1//EN" "http://www.w3.org/Graphics/SVG/1.1/DTD/svg11.dtd" >
<svg xmlns="http://www.w3.org/2000/svg" xmlns:xlink="http://www.w3.org/1999/xlink" version="1.1" viewBox="-10 0 1010 1000">
   <path fill="currentColor"
d="M853 258q-4 33 -4 104v99q-1 65 4 89q-24 -5 -87 -4h-381q-66 0 -99 6q4 -48 4 -99v-121q0 -45 -4 -72q40 6 135 6h289q91 0 143 -8zM357 310v192h425v-192h-425zM423 344q21 3 51 4h157q33 0 75 -4q-6 16 -6 51v32q0 19 4 42q-18 -5 -87 -4h-109h-60q-18 1 -25 2
q5 -26 4 -46v-24q0 -28 -4 -53zM645 383h-163v46h163v-46zM298 582q53 8 105 8h343q49 0 93 -6v53q-27 -5 -91 -4h-167h-180q-65 0 -105 6zM218 669q37 8 101 8h278h262q25 0 79 -8v64q-33 -8 -81 -8h-256v131q1 30 -27 41q-24 11 -104 14q-2 -44 -37 -93q91 30 99 -8v-85
h-205q-67 0 -109 6v-62zM395 731q23 18 57 34q17 7 16 11q-1 2 -11 4q-23 5 -38 14q-85 54 -187 95q-17 -29 -61 -61q80 -2 224 -97zM694 738q121 38 229 88l-50 65q-88 -55 -226 -99zM585 129q1 3 4 10q7 21 12 40h201q75 1 99 -8v60q-15 -2 -37 -3q-18 -1 -60 -1h-433
q0 -3 -119 4v-58q36 6 117 6h161q-2 -8 -20 -44zM560 -19q10 34 25 79h215q69 0 125 -8v75q-36 -9 -127 -8h-584v233q5 339 -117 517q-9 -5 -21 -16q-26 -20 -56 -35q69 -99 92 -220q24 -114 23 -360q0 -107 -8 -155q-3 -18 -4 -29q29 6 147 6h230q-1 -3 -3 -8
q-16 -38 -25 -54z" />
</svg>
