<?xml version="1.0" standalone="no"?>
<!DOCTYPE svg PUBLIC "-//W3C//DTD SVG 1.1//EN" "http://www.w3.org/Graphics/SVG/1.1/DTD/svg11.dtd" >
<svg xmlns="http://www.w3.org/2000/svg" xmlns:xlink="http://www.w3.org/1999/xlink" version="1.1" viewBox="-10 0 1010 1000">
   <path fill="currentColor"
d="M85 58q41 4 156 4t176 -4q-70 150 -155 274q98 -1 155 -4q-23 220 -109 347q39 25 86 33q23 4 54 6q25 1 84 1q292 1 412 -16q-32 43 -41 93q-57 -1 -156 -2h-110h-155q-144 5 -222 -59q-91 83 -155 123q-18 -42 -69 -70q105 -39 172 -105q-52 -70 -103 -155l74 -36
q11 55 75 133q55 -60 81 -228q-95 0 -124 3q-38 2 -72 13q-10 -47 -28 -75q105 7 193 -209h-131q-51 0 -88 8v-75z" />
</svg>
