<?xml version="1.0" standalone="no"?>
<!DOCTYPE svg PUBLIC "-//W3C//DTD SVG 1.1//EN" "http://www.w3.org/Graphics/SVG/1.1/DTD/svg11.dtd" >
<svg xmlns="http://www.w3.org/2000/svg" xmlns:xlink="http://www.w3.org/1999/xlink" version="1.1" viewBox="-10 0 1010 1000">
   <path fill="currentColor"
d="M304 54q93 6 103 22q0 3 -5 10q-19 27 -19 81v196h268v-194q1 -61 -8 -111q77 4 99 22q1 3 -2 11q-14 30 -14 78v194h99q78 0 127 -5v81q-46 -6 -127 -6h-99v302q0 56 1 86q2 35 5 64h-87q6 -51 6 -147v-305h-270q-5 268 -234 438q-27 -35 -84 -55q233 -123 245 -383
h-112h-1q-74 -1 -122 6v-81q38 6 113 5h10h114v-196q-1 -64 -6 -113z" />
</svg>
