<?xml version="1.0" standalone="no"?>
<!DOCTYPE svg PUBLIC "-//W3C//DTD SVG 1.1//EN" "http://www.w3.org/Graphics/SVG/1.1/DTD/svg11.dtd" >
<svg xmlns="http://www.w3.org/2000/svg" xmlns:xlink="http://www.w3.org/1999/xlink" version="1.1" viewBox="-10 0 1034 1024">
  <g transform="matrix(1 0 0 -1 0 820)">
   <path fill="currentColor"
d="M285 463l-185 1q-4 1 -7 1l-26 4v-47q54 4 76 5h142v-491q0 -39 -5 -74h53q-4 27 -5 74v42h380l-4 -105q-1 -3 -2 -8h52q-3 9 -3 23q0 27 -2 50v489q166 0 184 -2q15 0 25 -3v47q-69 -6 -79 -6h-130l1 220q0 12 7 41q0 1 7 26h-62q0 -4 2 -9q3 -33 4 -69v-209h-380l1 220
q1 16 5 33q7 24 8 33h-62q1 -39 5 -78v-208zM328 15v412h380v-412h-380z" />
  </g>

</svg>
