<?xml version="1.0" standalone="no"?>
<!DOCTYPE svg PUBLIC "-//W3C//DTD SVG 1.1//EN" "http://www.w3.org/Graphics/SVG/1.1/DTD/svg11.dtd" >
<svg xmlns="http://www.w3.org/2000/svg" xmlns:xlink="http://www.w3.org/1999/xlink" version="1.1" viewBox="-10 0 1010 1000">
   <path fill="currentColor"
d="M833 34q65 80 54 93q-2 2 -30 1q-83 -4 -155 5v169h72q50 0 91 -5q9 -1 12 -1v83q-2 0 -11 -1q-46 -5 -92 -5h-72v175h117q83 -1 112 -10v89q-20 -6 -108 -8h-323q-31 0 -82 6q-15 2 -17 2v-89q33 9 99 10h127v-175h-77q-37 0 -83 5q-11 1 -13 1v-83q2 0 12 1q43 5 82 5
h79v-167q-83 12 -163 18q-10 -42 -29 -79q32 5 97 4q63 -1 125 -7q117 -12 176 -37zM69 50q2 0 13 1q53 7 85 7h119q63 -1 99 -8q-43 78 -86 159q-38 73 -85 141h84q45 0 78 -6q8 -2 11 -2q-2 8 -5 22q-35 162 -92 287q130 150 660 93q-7 13 -17 32q-21 33 -26 74
q-74 -5 -195 -10q-341 5 -460 -129q-49 65 -149 152l-61 -51q105 -62 160 -151q-45 -70 -97 -161l74 -23q16 55 61 125q33 -91 58 -181h-106q-31 -1 -67 8l-24 -87q77 -20 169 -213h-103q-83 0 -98 6v-85z" />
</svg>
