<?xml version="1.0" standalone="no"?>
<!DOCTYPE svg PUBLIC "-//W3C//DTD SVG 1.1//EN" "http://www.w3.org/Graphics/SVG/1.1/DTD/svg11.dtd" >
<svg xmlns="http://www.w3.org/2000/svg" xmlns:xlink="http://www.w3.org/1999/xlink" version="1.1" viewBox="-10 0 1010 1000">
   <path fill="currentColor"
d="M530 -12q9 48 32 112h220q94 0 155 -8v85q-28 -9 -149 -8h-133v254q8 72 -147 81q-2 -45 -34 -95q65 13 84 5q20 -6 17 -43v-202h-121q14 256 -196 379q-16 -26 -85 -60q117 -45 159 -114q44 -66 43 -203h-135h-18q-90 -1 -137 8v-85q61 9 155 8h226q-5 -37 -39 -100z
M230 219q78 28 85 39q-2 5 -15 14q-23 16 -40 34l-9 9q-40 44 -110 112q-41 -34 -81 -48q87 -37 170 -160zM766 227q26 21 103 109q26 30 36 41l-84 50q-43 -74 -123 -159zM335 500q98 -2 107 8q-1 4 -4 9q-7 12 -17 75h172v-16q0 -54 -6 -78q93 -5 105 8q1 2 -2 7
q-12 20 -13 63v16h99q86 -1 174 -12v95q-45 -7 -172 -8h-101v109q-6 111 6 129h-94q6 -22 6 -133v-105h-184q-29 169 -284 244q-9 -30 -73 -87q233 -20 275 -159h-101q-121 0 -180 10v-95q56 10 178 10h115q1 -61 -6 -90z" />
</svg>
