<?xml version="1.0" standalone="no"?>
<!DOCTYPE svg PUBLIC "-//W3C//DTD SVG 1.1//EN" "http://www.w3.org/Graphics/SVG/1.1/DTD/svg11.dtd" >
<svg xmlns="http://www.w3.org/2000/svg" xmlns:xlink="http://www.w3.org/1999/xlink" version="1.1" viewBox="-10 0 1034 1024">
  <g transform="matrix(1 0 0 -1 0 820)">
   <path fill="currentColor"
d="M137 240l-63 4q-3 0 -6 1v-47q21 6 67 6h216q-10 -127 -84 -217q-75 -82 -163 -112q36 -24 51 -38q96 63 164 152q33 46 49 91q15 51 24 124h268l-5 -364q-1 0 -1 -2h50q-6 18 -6 69v297l224 -1q25 0 34 -4l2 -1v47q-33 -1 -67 -5h-193v106q0 12 2 29q1 9 3 15l8 17h-57
q0 -3 2 -7q0 -1 1 -4q0 -34 3 -71v-85h-267q0 60 4 100q0 34 12 47q4 7 14 16q-15 0 -70 8q3 -24 4 -96q0 -27 -4 -75h-216zM258 480l101 102q31 33 75 81q36 40 50 50q12 9 41 18l-26 16q-12 7 -35 26q-7 -22 -35 -58q-34 -42 -96 -108q-57 -61 -97 -93q-31 -24 -58 -29
q9 -19 12 -40q1 -6 4 -21q30 9 62 13l123 11l207 12l211 9q24 -24 45 -52q19 19 35 27l-64 70q-24 30 -53 61l-50 53q-15 18 -26 29q-18 -21 -32 -28q34 -33 61 -62l58 -66z" />
  </g>

</svg>
