<?xml version="1.0" standalone="no"?>
<!DOCTYPE svg PUBLIC "-//W3C//DTD SVG 1.1//EN" "http://www.w3.org/Graphics/SVG/1.1/DTD/svg11.dtd" >
<svg xmlns="http://www.w3.org/2000/svg" xmlns:xlink="http://www.w3.org/1999/xlink" version="1.1" viewBox="-10 0 1034 1024">
  <g transform="matrix(1 0 0 -1 0 820)">
   <path fill="currentColor"
d="M589 542l-483 1l-42 4v-46q3 0 7 1q7 3 36 4h483q6 -48 15 -139q13 -76 23 -119q28 -130 75 -229q45 -94 89 -136q33 -31 64 -32q48 0 74 63q12 24 28 74q-27 9 -46 31q-3 -33 -10 -59q-15 -63 -49 -64q-12 0 -27 14q-15 12 -32 36q-46 64 -76 141q-36 87 -65 231
q-15 82 -22 188q280 0 290 -3q3 0 16 -2v46q-31 -1 -64 -5h-244q-3 81 -3 104q0 30 4 61q3 24 15 43q-28 0 -64 4l3 -103q3 -96 5 -109zM582 48q-18 -7 -41 -12q-27 -6 -84 -15q-87 -10 -94 -13v274q165 0 178 -2q3 0 7 -1l13 -2v46q-39 -4 -64 -5l-343 3q-6 0 -13 2v-46
q6 3 36 4l145 1v-279q-7 0 -158 -23q-66 -6 -78 -6h-4q9 -28 14 -55q27 10 85 20q139 25 192 32l83 12l81 11q15 1 28 4q3 0 15 3q0 24 2 47zM825 579q9 12 25 30q1 3 6 4q-37 40 -128 110q-1 -3 -18 -23q-4 -7 -11 -14q42 -25 65 -46q3 0 46 -47q7 -6 15 -14v0z" />
  </g>

</svg>
