<?xml version="1.0" standalone="no"?>
<!DOCTYPE svg PUBLIC "-//W3C//DTD SVG 1.1//EN" "http://www.w3.org/Graphics/SVG/1.1/DTD/svg11.dtd" >
<svg xmlns="http://www.w3.org/2000/svg" xmlns:xlink="http://www.w3.org/1999/xlink" version="1.1" viewBox="-10 0 1034 1024">
  <g transform="matrix(1 0 0 -1 0 820)">
   <path fill="currentColor"
d="M38 -23q30 -6 53 -17q30 49 70 129q21 42 31 52q9 12 34 21q-42 18 -60 31q-6 -18 -16 -42q-12 -27 -31 -64q-21 -42 -41 -70q-15 -21 -40 -40zM105 391q75 64 91 81q12 9 23 22l38 35q19 -15 68 -64l67 -71q24 30 30 34q-3 1 -4 3q-1 3 -6 7q-9 9 -22 20l-108 102l66 80
q34 45 50 53q7 4 20 8q-24 15 -55 43q-19 -58 -111 -157q-55 51 -116 104l-16 16q-9 -15 -31 -34q69 -48 137 -118q-15 -18 -36 -37q-21 -21 -56 -52q-45 -37 -91 -55q21 -12 46 -35q7 7 16 15zM244 288h-101q-27 0 -55 3q-6 0 -14 3v-47q21 6 67 6h103v-313q0 -16 -16 -25
q-9 -4 -39 -5q-22 0 -48 5q12 -30 16 -50q18 0 39 4q45 6 59 14q27 15 27 51v319l120 -3q6 0 11 -3v47q-18 -6 -67 -6h-64v76q0 12 2 29q3 18 13 33h-58q0 -6 2 -11l3 -101v-26zM334 178q-3 -3 -11 -8q-6 -4 -10 -10q36 -39 57 -63q21 -25 52 -68l15 16q9 7 16 11
q-7 7 -15 16q-25 34 -55 70q-18 21 -40 45zM666 -2l41 18q1 33 7 56q-28 -21 -49 -32q-30 -15 -91 -39v306l90 -3q6 0 10 -3v47q-6 -1 -60 -6q-129 0 -155 2q-4 1 -7 1t-14 3v-47q21 6 67 6h31v-322q-33 -15 -64 -25q-33 -10 -69 -18q16 -22 26 -48q69 34 99 48
q24 12 132 54q1 1 6 2zM489 519l-61 4q-3 0 -6 2v-48q18 6 66 6h211l8 -140l5 -72q9 -142 56 -259q33 -81 77 -126q30 -31 57 -32q27 0 48 42q12 30 24 72q-24 12 -44 30q-1 -27 -8 -58q-7 -37 -25 -38q-15 0 -48 45q-33 48 -54 108q-31 87 -44 222l-11 206q180 0 190 -2
q9 -1 21 -4v48q-7 -3 -13 -3q-27 -1 -54 -3h-144l-2 79q0 63 4 114q1 21 18 40q-33 3 -65 4q4 -18 5 -44l-3 -137q0 -22 2 -56h-210zM894 579q3 6 8 10q10 9 13 11q3 4 6 7l-72 81q-12 12 -26 28q-15 -16 -30 -29q33 -33 74 -79q1 -3 27 -29v0z" />
  </g>

</svg>
