<?xml version="1.0" standalone="no"?>
<!DOCTYPE svg PUBLIC "-//W3C//DTD SVG 1.1//EN" "http://www.w3.org/Graphics/SVG/1.1/DTD/svg11.dtd" >
<svg xmlns="http://www.w3.org/2000/svg" xmlns:xlink="http://www.w3.org/1999/xlink" version="1.1" viewBox="-10 0 1010 1000">
   <path fill="currentColor"
d="M131 40q37 3 182 6h364q102 0 140 -6q0 18 -2 74q-2 41 -3 69q-4 82 -4 163q-24 -6 -125 -6h-425l-10 139h442q114 -1 171 -8q-7 35 -20 132q-26 198 -45 219q-27 60 -286 75q-10 -71 -36 -115q169 26 224 -12q43 -29 58 -212h-423q-103 1 -176 10q8 -41 14 -165
q5 -134 -2 -147q36 4 141 4h410l4 -135h-411q-143 3 -182 12v-97z" />
</svg>
