<?xml version="1.0" standalone="no"?>
<!DOCTYPE svg PUBLIC "-//W3C//DTD SVG 1.1//EN" "http://www.w3.org/Graphics/SVG/1.1/DTD/svg11.dtd" >
<svg xmlns="http://www.w3.org/2000/svg" xmlns:xlink="http://www.w3.org/1999/xlink" version="1.1" viewBox="-10 0 1034 1024">
  <g transform="matrix(1 0 0 -1 0 820)">
   <path fill="currentColor"
d="M142 126h-10q-6 0 -57 5v-47q48 6 67 6h196q-9 -79 -76 -144q-69 -61 -150 -71q21 -13 44 -42q105 51 160 113q49 60 67 144h250q-3 -231 -5 -257h50q-6 24 -6 48v209l267 -3q3 0 11 -3v47q-9 0 -65 -5h-213v47q0 15 3 31q1 19 10 34h-57q4 -42 5 -80v-32h-246
q3 57 21 83q-40 0 -60 5q-1 -33 -3 -66q0 -9 -3 -22h-200zM112 288q-4 -45 -5 -67h48q-4 18 -5 41l-1 283h141l-1 -271q-1 -10 -2 -24q-1 -7 -4 -17h52q-4 18 -5 45l-1 267h140v-226q0 -28 -17 -35q-15 -3 -29 -3q-16 0 -38 7q12 -24 14 -36q1 -10 4 -15q52 7 67 14
q37 16 38 64l1 225l4 47q-60 -6 -88 -6h-96v125q0 12 3 31q1 18 10 33h-59q3 -9 4 -13q3 -54 3 -76v-100q-112 0 -140 2q-3 1 -18 2q-9 0 -25 2q1 -36 5 -74v-225zM241 637q-18 21 -53 54q-24 21 -46 43q-9 -12 -27 -28q42 -33 95 -99q18 21 31 30zM162 348q22 -3 41 -13
q52 108 55 109q4 7 19 17q-15 3 -26 7q-9 3 -27 12q-16 -75 -62 -132zM359 455l24 -42q15 -42 27 -66q3 1 7 5h1q3 1 4 3q6 4 14 7q4 3 11 5q-3 9 -11 23q-21 37 -40 74q-1 6 -14 23q-3 -1 -7 -4q-10 -6 -25 -13zM367 639q16 -9 33 -27q52 58 67 71q16 15 41 23
q-25 16 -43 38q-33 -45 -98 -105zM590 524q6 9 12 20q3 6 16 24h158q-21 -84 -66 -155q-42 45 -53 105q-19 -12 -44 -30q10 -24 23 -44q15 -21 41 -54l9 -12q-76 -81 -170 -106q25 -18 42 -41q66 37 111 75l47 44q30 -24 84 -60l97 -59q18 24 53 41q-42 6 -114 43
q-67 40 -95 70q40 66 80 183l87 -3q3 0 11 -3v47q-33 -1 -65 -5h-219q24 49 32 74q15 45 26 60q6 12 28 24q-36 7 -64 19q-34 -135 -97 -229q-13 -21 -25 -35q-9 -10 -21 -20q27 -7 44 -22q13 18 32 49v0z" />
  </g>

</svg>
