<?xml version="1.0" standalone="no"?>
<!DOCTYPE svg PUBLIC "-//W3C//DTD SVG 1.1//EN" "http://www.w3.org/Graphics/SVG/1.1/DTD/svg11.dtd" >
<svg xmlns="http://www.w3.org/2000/svg" xmlns:xlink="http://www.w3.org/1999/xlink" version="1.1" viewBox="-10 0 1010 1000">
   <path fill="currentColor"
d="M363 -4q114 3 129 14q1 3 -9 16q-23 34 -23 56q2 109 14 234l272 -28q142 -18 175 -32l10 96q-43 -6 -163 8l-284 29q78 361 304 405q29 -18 37 -133q25 34 61 56q19 10 31 18q-41 130 -78 154q-54 35 -158 -27q-235 -154 -286 -463l-173 18q-135 12 -162 28l-8 -101
q37 7 160 -4l173 -16q-17 -215 -22 -328zM653 42q74 55 149 143l-82 63q-66 -100 -141 -148z" />
</svg>
