<?xml version="1.0" standalone="no"?>
<!DOCTYPE svg PUBLIC "-//W3C//DTD SVG 1.1//EN" "http://www.w3.org/Graphics/SVG/1.1/DTD/svg11.dtd" >
<svg xmlns="http://www.w3.org/2000/svg" xmlns:xlink="http://www.w3.org/1999/xlink" version="1.1" viewBox="-10 0 1010 1000">
   <path fill="currentColor"
d="M353 -4q98 4 97 6q2 2 0 7q-14 35 -13 118h123q0 -10 -1 -31q-2 -80 -9 -100q14 1 40 1q63 0 61 7q1 3 -1 8q-12 30 -15 115h133q82 -3 99 -8q-4 31 -4 129v98q1 29 2 41q-21 -6 -101 -6h-129v121h177q46 0 103 -6q-9 166 -22 235q-10 50 -163 71q-6 -56 -42 -99
q94 15 118 -14q15 -11 17 -119h-188v153q3 109 8 178h-91q0 -8 2 -30q6 -84 6 -146v-155h-131q-22 207 -282 325q-25 -46 -78 -75q251 -47 280 -250h-123l-91 6q9 -38 10 -139q0 -71 -1 -92q-1 -27 -5 -39l95 8h125v-119h-105q-86 4 -141 10v-88q30 6 143 10h105
q0 -85 -8 -131zM560 195h-125v119h125v-119zM635 195v119h149v-119h-149zM359 381h-139v121h139v-121zM560 381h-125v121h125v-121z" />
</svg>
