<?xml version="1.0" standalone="no"?>
<!DOCTYPE svg PUBLIC "-//W3C//DTD SVG 1.1//EN" "http://www.w3.org/Graphics/SVG/1.1/DTD/svg11.dtd" >
<svg xmlns="http://www.w3.org/2000/svg" xmlns:xlink="http://www.w3.org/1999/xlink" version="1.1" viewBox="-10 0 1010 1000">
   <path fill="currentColor"
d="M714 6q125 -4 119 10q0 2 -2 8q-19 35 -19 139v568q0 120 5 168h-99q6 -58 6 -170v-564q0 -94 -10 -147q-3 -12 0 -12zM95 36q3 -1 11 1q38 5 110 5h175q83 0 123 -8q-4 52 -4 93l-6 119q-1 61 4 80q-2 0 -6 -1q-39 -7 -101 -5h-187l-14 127h203q79 0 127 -6q-3 28 -8 78
q-22 270 -58 293q-49 54 -246 65q-4 -68 -24 -111q164 32 205 -28q14 -16 35 -194q3 -25 3 -22h-207q-53 0 -102 3q-10 1 -13 1l24 -288q35 8 125 6h161l6 -127h-215q-68 0 -107 5q-10 2 -14 1v-87z" />
</svg>
