<?xml version="1.0" standalone="no"?>
<!DOCTYPE svg PUBLIC "-//W3C//DTD SVG 1.1//EN" "http://www.w3.org/Graphics/SVG/1.1/DTD/svg11.dtd" >
<svg xmlns="http://www.w3.org/2000/svg" xmlns:xlink="http://www.w3.org/1999/xlink" version="1.1" viewBox="-10 0 1034 1024">
  <g transform="matrix(1 0 0 -1 0 820)">
   <path fill="currentColor"
d="M333 627q0 1 2 18l3 34q-27 -1 -55 -5l-197 1q-12 0 -24 4v-46q24 4 44 5h190v-190l-167 1q-9 1 -41 5l6 -56l-7 -146l-4 -43q-1 -7 -1 -16q42 4 76 5h152l-4 -151q-6 -85 -8 -104q-9 -34 -36 -47q-24 -9 -75 -10q-22 0 -56 5q12 -27 17 -52q70 6 112 16q54 16 66 55
q6 19 11 50l12 230l4 49q-25 -1 -52 -5h-177l8 179l162 -1q39 -4 44 -5q-4 48 -5 90v130zM877 519q33 0 53 -3l2 -1q3 0 7 -1v47q-7 0 -12 -4q-27 0 -50 -2l-469 1l-25 5v-47q24 4 47 5h178q-40 -73 -68 -117q-22 -36 -50 -75q-28 -40 -43 -55q-15 -12 -33 -18l21 -47
q51 12 101 16q87 6 131 12q-97 -145 -195 -254q-24 -27 -41 -39q-12 -7 -30 -16q7 -22 16 -47q51 15 67 15q351 46 389 50q12 -18 21 -33q6 -12 25 -56q21 21 42 32l-94 139q-37 51 -74 98q-21 -18 -41 -32q45 -33 98 -114l-186 -25l-186 -21l140 169l119 169q36 57 52 76
q24 33 45 50q-27 12 -53 32q-42 -90 -92 -156l-207 -16q10 12 21 28q49 69 57 80l60 96q15 24 34 59h223zM595 755q-16 -18 -37 -36q31 -19 73 -66q33 -39 56 -78q15 16 39 32z" />
  </g>

</svg>
