<?xml version="1.0" standalone="no"?>
<!DOCTYPE svg PUBLIC "-//W3C//DTD SVG 1.1//EN" "http://www.w3.org/Graphics/SVG/1.1/DTD/svg11.dtd" >
<svg xmlns="http://www.w3.org/2000/svg" xmlns:xlink="http://www.w3.org/1999/xlink" version="1.1" viewBox="-10 0 1034 1024">
  <g transform="matrix(1 0 0 -1 0 820)">
   <path fill="currentColor"
d="M339 662q0 30 5 60q-31 -1 -63 -5l-184 3q-6 0 -18 2v-44q4 1 10 1q6 3 33 3l179 1v-207l-147 1q-1 0 -45 4q1 -36 2 -74q-7 -105 -8 -135q-6 -39 -7 -53q60 6 87 6h119v-71q0 -36 -4 -105q-1 -54 -6 -80q-4 -24 -16 -37q-18 -19 -85 -20q-27 0 -58 5q6 -12 7 -17
q6 -18 6 -33l106 8q18 4 36 12q25 15 34 39q9 25 12 99l5 147q0 28 7 92q-55 -4 -88 -5h-121l13 183q139 0 155 -2q18 0 39 -3v10q0 -3 -1 9q-3 63 -4 91v115zM683 466q31 34 55 66q21 33 48 81q27 51 50 110q-30 -1 -60 -5l-297 1q-19 3 -53 4v-44q3 0 9 1l76 4h269
q-79 -195 -266 -296q-93 -48 -168 -59q15 -12 30 -41q87 34 150 68q64 34 131 83q180 -99 269 -166q10 18 22 36q-16 10 -43 27q-16 9 -42 25l-71 41l-87 51q-12 7 -22 13zM643 -73h-191q-3 0 -50 3q-6 0 -18 2v-44q39 4 64 5q456 0 474 -3q1 1 6 0q-1 0 16 -2v44
q-9 -1 -30 -3q-18 0 -35 -2h-198v271q156 0 173 -3l23 -2v45q-60 -6 -84 -6l-300 1q-9 1 -36 2q-3 0 -18 3v-45q7 1 62 5h142v-271z" />
  </g>

</svg>
