<?xml version="1.0" standalone="no"?>
<!DOCTYPE svg PUBLIC "-//W3C//DTD SVG 1.1//EN" "http://www.w3.org/Graphics/SVG/1.1/DTD/svg11.dtd" >
<svg xmlns="http://www.w3.org/2000/svg" xmlns:xlink="http://www.w3.org/1999/xlink" version="1.1" viewBox="-10 0 1010 1000">
   <path fill="currentColor"
d="M252 -19q96 20 99 33q1 3 -5 7q-27 24 -54 77h111q24 0 91 -6q-22 85 -85 198q38 11 81 26q-42 71 -46 83q-4 -3 -12 -8q-46 -31 -83 -45q-30 23 -139 79q78 8 201 8q180 1 264 0q74 -2 133 -8q-10 40 -10 111q0 66 6 99q-35 -10 -163 -10h-381v62h395q84 -1 190 -10
q-4 17 -10 54q-19 112 -39 138q-38 52 -199 48q1 -59 -28 -103q94 23 128 10q37 -13 37 -70h-369q-137 0 -188 8q10 -50 10 -113q0 -61 -6 -97q40 10 166 10h375v-66h-379q-105 0 -158 6v-67q-33 8 -84 26q-8 -39 -59 -80q149 -22 232 -67q-95 -32 -157 -46q25 -28 64 -97
q-61 0 -80 1q-25 1 -36 3v-83q30 3 149 4q27 -68 38 -115zM399 169h-141q-27 47 -36 62q41 8 113 33q37 -44 64 -95zM484 346q46 -1 151 -46q-59 -53 -107 -151l55 -28q-27 1 -77 10v-81q67 8 137 8h167q60 0 99 -6q-55 154 -157 250q114 38 216 42q-43 46 -51 97
q-153 -51 -225 -93q-46 29 -154 73q-26 -46 -54 -75zM599 121q36 89 89 141q73 -69 104 -141h-193z" />
</svg>
