<?xml version="1.0" standalone="no"?>
<!DOCTYPE svg PUBLIC "-//W3C//DTD SVG 1.1//EN" "http://www.w3.org/Graphics/SVG/1.1/DTD/svg11.dtd" >
<svg xmlns="http://www.w3.org/2000/svg" xmlns:xlink="http://www.w3.org/1999/xlink" version="1.1" viewBox="-10 0 1010 1000">
   <path fill="currentColor"
d="M530 -12q9 20 23 69q6 23 9 33h212q122 0 145 -8v83q-12 -9 -143 -8h-147v80q0 109 6 121h-87q6 -12 6 -129v-72h-121v81q0 108 5 120h-87q6 -12 6 -123v-78h-161q-109 0 -117 8v-83q19 8 117 8h274q-7 -33 -29 -76l-6 -12zM212 201q70 29 80 49q0 5 -9 9q-24 12 -51 37
q-70 68 -125 111q-22 -28 -65 -45q119 -68 170 -161zM750 209q100 71 177 145l-62 63q-51 -70 -177 -153zM157 389q52 8 105 8h446q49 0 94 -6q-6 27 -6 82v27q0 66 6 94q-38 -6 -92 -6h-440v63h446q59 0 123 -6q-8 69 -39 177q-13 73 -242 87q-1 -6 -2 -16q-5 -51 -30 -83
q1 0 10 1q120 16 156 -1q35 -14 54 -91h-468q-62 0 -90 6q6 -33 6 -80v-53q0 -48 -6 -78q30 6 92 6h440v-55h-456q-98 -1 -107 8v-84z" />
</svg>
