<?xml version="1.0" standalone="no"?>
<!DOCTYPE svg PUBLIC "-//W3C//DTD SVG 1.1//EN" "http://www.w3.org/Graphics/SVG/1.1/DTD/svg11.dtd" >
<svg xmlns="http://www.w3.org/2000/svg" xmlns:xlink="http://www.w3.org/1999/xlink" version="1.1" viewBox="-10 0 1034 1024">
  <g transform="matrix(1 0 0 -1 0 820)">
   <path fill="currentColor"
d="M129 718q-36 0 -55 3q-4 0 -11 2v-46q1 1 37 5l179 1v-211q-126 0 -153 2q-6 3 -27 3q-6 -132 -15 -223q0 -16 -4 -31q45 4 66 5h138l-7 -124q-3 -60 -8 -95q-4 -27 -12 -44q-19 -45 -91 -45q-27 0 -70 5q10 -27 18 -55q67 7 85 13q49 12 72 31q19 21 30 62q9 45 16 142
l6 84q0 34 7 67q-28 -1 -55 -5h-155l14 172l147 -1l40 -4q-4 45 -5 90l1 161l4 41q-27 -1 -54 -5h-138zM659 143l175 -1q10 0 22 -3q6 0 21 -2q-4 49 -5 78q0 132 2 143q0 19 3 37q-27 -1 -56 -5h-162v110l130 -1l38 -4q-4 48 -5 96l5 134q-90 -4 -92 -5l-247 1q-3 1 -41 4
q1 -13 4 -27q3 -24 3 -84q0 -57 -2 -81q-3 -15 -5 -38q45 4 88 5h86v-110q-159 0 -183 2q-6 3 -34 3q6 -66 6 -103q0 -96 -2 -119q-3 -12 -4 -36q54 6 67 6h150v-185l-143 -14l-80 -5q-12 0 -36 2q10 -28 15 -59l50 14l37 7q57 6 117 16l67 7l216 23q22 -45 33 -82
q15 9 24 16l20 11q-45 79 -77 129q-24 39 -50 76q-9 -9 -17 -13l-18 -12q27 -28 63 -90q-58 -9 -98 -13l-85 -8v180zM446 179v175h175v-175h-175zM490 536v148h294v-148h-294zM659 179v175h175v-175h-175z" />
  </g>

</svg>
