<?xml version="1.0" standalone="no"?>
<!DOCTYPE svg PUBLIC "-//W3C//DTD SVG 1.1//EN" "http://www.w3.org/Graphics/SVG/1.1/DTD/svg11.dtd" >
<svg xmlns="http://www.w3.org/2000/svg" xmlns:xlink="http://www.w3.org/1999/xlink" version="1.1" viewBox="-10 0 1010 1000">
   <path fill="currentColor"
d="M262 -8q86 0 91 4q-16 32 -16 72h109q20 1 102 -10v75q-62 -9 -104 -8h-107v50h36q57 -1 113 -8v73q-50 -7 -111 -7h-131q-33 0 -107 7v-73q55 8 105 8h24v-50h-97q-38 0 -107 8v-75q45 10 107 10h99zM595 44q39 8 80 8h83q22 0 66 -6q12 -1 19 -2q-3 22 -6 62
q-1 13 -2 19v117q-1 34 18 38q17 6 87 -10q-18 61 -19 88h-74q-58 1 -72 -20q-16 -17 -15 -90v-125h-87q7 174 -78 262q-20 -27 -59 -35q0 34 6 49h-80q5 -26 6 -69h-331q-1 46 6 65h-74q7 -74 -6 -129q49 6 84 6h313q29 0 80 -6q-6 24 -4 58q86 -61 59 -280zM163 360
q38 6 103 7h67q51 0 104 -7v73q-51 -8 -104 -8h-65q-53 0 -105 10v-75zM542 409q61 8 119 8h107q46 0 117 -6q-31 179 -121 308q84 67 200 93q-50 42 -73 81q-101 -51 -173 -115q-77 71 -186 125q-26 -37 -62 -67q91 -32 189 -119q-63 -85 -105 -189l79 -22q24 78 77 157
q48 -63 78 -178h-127q-57 0 -119 7v-83zM452 846q-37 55 -194 59q-2 -48 -36 -89q104 19 149 -2q22 -13 30 -85h-197q-54 0 -85 4q5 -38 6 -88q-1 -47 -8 -83q40 4 85 4h195v-44h-183q-80 0 -105 4v-69q58 8 101 8h181q37 -1 79 -8q-7 31 -6 85q0 30 6 87q-44 -6 -79 -6
h-191v48h203q40 0 85 -8q-11 118 -26 169z" />
</svg>
