<?xml version="1.0" standalone="no"?>
<!DOCTYPE svg PUBLIC "-//W3C//DTD SVG 1.1//EN" "http://www.w3.org/Graphics/SVG/1.1/DTD/svg11.dtd" >
<svg xmlns="http://www.w3.org/2000/svg" xmlns:xlink="http://www.w3.org/1999/xlink" version="1.1" viewBox="-10 0 1034 1024">
  <g transform="matrix(1 0 0 -1 0 820)">
   <path fill="currentColor"
d="M663 705q-4 0 -7 -1q-3 0 -5 -1l-98 -3q-138 0 -163 2q-1 0 -27 3v-45q51 4 84 5h53q-9 -75 -26 -163q-15 0 -81 5q1 -31 5 -64l-3 -493q0 -3 -2 -10h46q-3 6 -4 34l-1 60h157l-4 -86q-1 0 -1 -3h47q-3 12 -3 26q0 18 -2 37l1 454l4 45q-22 -1 -34 -2q-22 -3 -31 -3h-60
q6 39 33 163q84 0 102 -2q1 0 5 -1q3 0 15 -2v45zM434 70v185h157v-185h-157zM434 290v177h157v-177h-157zM161 711q-18 0 -63 5v-45q-3 0 9 1q72 3 107 4h62v-207l-121 1q-1 0 -40 4q0 -33 3 -69l-6 -106q0 -24 -5 -75q54 4 110 5h63l-3 -185q-6 -57 -10 -74
q-9 -39 -92 -40q-31 0 -63 7q12 -22 22 -52q24 0 79 8q87 13 94 80q3 46 5 81q1 31 2 72l2 80q0 24 7 63q-51 -4 -81 -5h-94l6 170q111 0 127 -2q15 0 37 -3q-4 49 -5 72l5 215q-60 -4 -78 -5h-79zM902 721q-33 -1 -68 -5l-128 4q-3 1 -4 1v-46q19 4 51 5l106 1v-206
q-94 0 -121 2q-6 3 -37 3q0 -66 2 -74q-4 -48 -5 -100l-6 -75q54 4 113 5h68l-5 -216q-1 -4 -1 -10q-4 -51 -26 -65q-21 -12 -74 -13q-18 0 -52 4q13 -30 19 -49q12 0 23 2q42 6 57 6q57 12 77 53q13 24 17 183l1 82l7 63q-33 -1 -67 -5h-116l8 169q108 0 122 -2q18 0 39 -3
q-6 42 -6 94l1 144q0 12 5 48v0z" />
  </g>

</svg>
