<?xml version="1.0" standalone="no"?>
<!DOCTYPE svg PUBLIC "-//W3C//DTD SVG 1.1//EN" "http://www.w3.org/Graphics/SVG/1.1/DTD/svg11.dtd" >
<svg xmlns="http://www.w3.org/2000/svg" xmlns:xlink="http://www.w3.org/1999/xlink" version="1.1" viewBox="-10 0 1010 1000">
   <path fill="currentColor"
d="M133 90q56 7 173 8h373h32q96 1 136 -4q-2 17 -3 50q-1 16 -1 38v62v423q0 83 1 105q0 29 3 46q-18 -2 -53 -3q-17 -1 -41 -1h-68h-403q-75 0 -105 1q-35 1 -48 3v-81h7q72 3 142 3h486v-271h-433q-61 0 -89 1q-34 2 -55 5v-86q33 5 62 7q14 0 31 1h45h439v-226h-464
q-126 0 -167 6v-87z" />
</svg>
