<?xml version="1.0" standalone="no"?>
<!DOCTYPE svg PUBLIC "-//W3C//DTD SVG 1.1//EN" "http://www.w3.org/Graphics/SVG/1.1/DTD/svg11.dtd" >
<svg xmlns="http://www.w3.org/2000/svg" xmlns:xlink="http://www.w3.org/1999/xlink" version="1.1" viewBox="-10 0 1010 1000">
   <path fill="currentColor"
d="M308 -19l44 11q64 15 59 22q-1 3 -8 9q-23 17 -36 49h254q103 0 163 -6q-13 40 -35 106q-32 98 -47 138h123q63 0 117 -8v81q-2 0 -7 -1q-49 -5 -114 -5h-287q-10 6 -29 21q-12 9 -17 13q51 48 91 107q87 -29 205 -121q4 3 11 9q82 71 68 73q-6 6 -22 10q-22 4 -41 11
q-33 12 -94 36q54 182 252 224q-68 43 -93 94q-163 -90 -220 -290l-14 7q-17 7 -26 11q44 172 -18 258q-52 58 -196 77q2 -55 -36 -111q210 52 181 -157q-163 128 -423 203q-9 -36 -46 -80q-5 -5 -7 -8q279 -23 460 -192q-3 -20 -22 -44q-156 114 -377 179q-8 -39 -58 -82
q204 -4 395 -148l-17 -17q-8 -7 -12 -11q-172 79 -308 109q-9 -42 -59 -77q215 -15 351 -104h-242q-79 0 -115 8v-83q48 8 125 8h442l18 -54h-345q-24 0 -96 20q-7 -49 -21 -77q75 -16 129 -218zM333 135l-29 58h353l18 -58h-342z" />
</svg>
