<?xml version="1.0" standalone="no"?>
<!DOCTYPE svg PUBLIC "-//W3C//DTD SVG 1.1//EN" "http://www.w3.org/Graphics/SVG/1.1/DTD/svg11.dtd" >
<svg xmlns="http://www.w3.org/2000/svg" xmlns:xlink="http://www.w3.org/1999/xlink" version="1.1" viewBox="-10 0 1034 1024">
  <g transform="matrix(1 0 0 -1 0 820)">
   <path fill="currentColor"
d="M647 394l-580 3q-6 0 -11 2v-46q22 3 64 5h323q-85 -37 -169 -67q-72 -22 -139 -27q21 -27 33 -46q76 18 244 82q39 -24 61 -49q-87 -60 -216 -117q-81 -30 -156 -47q21 -22 37 -43q207 73 364 180q30 -39 44 -71q-12 -15 -29 -29q-21 -15 -56 -39q-120 -78 -278 -144
q-69 -24 -110 -31q24 -22 37 -44q39 19 78 34l105 46l95 49q93 52 171 110q6 -37 6 -69q0 -69 -19 -104q-28 -48 -93 -49q-19 0 -62 8q15 -25 23 -57q19 3 27 4q54 4 87 20q13 9 28 20q48 45 49 160q0 61 -23 133q7 7 36 20q1 1 6 3l18 9q45 -94 98 -159q37 -43 73 -74
q45 -36 114 -84q27 30 51 40q-21 6 -41 14q-13 6 -50 30q-105 70 -153 146q-39 66 -54 108q6 3 17 9q7 3 16 8q18 9 52 24l36 14q6 1 27 5q-10 12 -17 25q-4 7 -7 15q-1 6 -6 14q-85 -57 -234 -130q-19 28 -41 50q-25 24 -70 63l67 37l419 -1q7 0 20 -4v46q-33 -1 -66 -5
h-202l59 213l23 67q-60 -4 -76 -5h-337q12 27 30 60q4 10 20 22q-34 3 -59 10q-18 -57 -32 -91l-44 -106q-13 -31 -34 -68q19 3 61 4l376 1zM306 536q19 49 41 97h366q-13 -48 -25 -97h-382z" />
  </g>

</svg>
