<?xml version="1.0" standalone="no"?>
<!DOCTYPE svg PUBLIC "-//W3C//DTD SVG 1.1//EN" "http://www.w3.org/Graphics/SVG/1.1/DTD/svg11.dtd" >
<svg xmlns="http://www.w3.org/2000/svg" xmlns:xlink="http://www.w3.org/1999/xlink" version="1.1" viewBox="-10 0 1034 1024">
  <g transform="matrix(1 0 0 -1 0 820)">
   <path fill="currentColor"
d="M217 367q-105 0 -129 2q-24 3 -34 4v-47q36 6 82 6h80q-1 -109 -16 -189q-15 -96 -89 -202q-27 -36 -61 -57q33 -10 53 -32q87 123 117 211q34 111 34 269h158l-3 -434q-3 -9 -3 -15h49q-4 15 -5 38l-1 411q72 0 147 -4q3 0 7 -2v47q-36 -6 -91 -6h-63v298q100 0 111 -2
q1 0 6 -1q3 0 16 -2v46q-24 -1 -49 -5l-414 1q-19 3 -29 4v-46q49 4 75 5h52v-298zM254 367v298h158v-298h-158zM953 180q-12 9 -22 23q-105 -123 -218 -201q-108 -75 -189 -93q25 -24 34 -45q195 102 348 246q37 37 68 52zM829 677q3 6 12 14q18 22 49 38q-46 24 -56 34
q-15 -27 -57 -87q-69 -94 -158 -166q-27 -21 -44 -31q-12 -6 -33 -13q30 -18 45 -36q24 16 49 39q25 22 51 47q57 54 84 89zM891 471q-28 -54 -128 -138q-117 -99 -212 -130q18 -9 30 -23q3 -1 12 -13q57 33 115 73q64 46 98 79q100 93 108 96q12 9 30 15q-21 12 -32 22
q-9 9 -21 19v0z" />
  </g>

</svg>
