<?xml version="1.0" standalone="no"?>
<!DOCTYPE svg PUBLIC "-//W3C//DTD SVG 1.1//EN" "http://www.w3.org/Graphics/SVG/1.1/DTD/svg11.dtd" >
<svg xmlns="http://www.w3.org/2000/svg" xmlns:xlink="http://www.w3.org/1999/xlink" version="1.1" viewBox="-10 0 1010 1000">
   <path fill="currentColor"
d="M266 284q10 0 29 1q65 2 64 7q1 2 -4 8q-18 23 -18 60v55h76q36 -1 65 -4v66q-39 -6 -67 -6h-76v103q-1 59 4 79h-73q6 -25 6 -79v-72q-56 87 -149 147q-18 -35 -56 -57q100 -42 165 -119h-69q-41 0 -55 1q-17 1 -27 3v-66q30 8 94 8h97v-61q0 -50 -6 -74zM417 292
q79 30 77 38l-9 3q-20 5 -27 13l-53 53q-24 -19 -52 -28q54 -44 64 -79zM196 296q26 29 50 67q4 7 6 10l-64 32q-18 -32 -50 -73q-2 -3 -3 -4zM385 487q56 34 81 65l-55 44q-26 -38 -72 -66zM802 532q10 4 65 39q36 23 58 37l-46 53q-55 -55 -123 -89zM351 635
q107 12 109 20q0 5 -7 14q-12 15 -16 34h170q1 -24 -8 -36q88 -6 95 6q1 3 -3 9q-6 10 -6 23h166q66 0 103 -6v71q-49 -6 -109 -6h-162v72q0 42 4 77h-88q8 -24 8 -75v-76h-186q-31 132 -266 159q-8 -28 -33 -57q-12 -15 -21 -26q218 14 240 -76h-160q-72 0 -125 5
q-7 1 -10 1v-73q21 8 117 8h192q6 -44 -4 -68zM702 310q0 3 -10 5q-37 10 -69 41l93 -6q50 -36 78 -74q74 44 75 62q-1 1 -5 1q-21 3 -43 15q-21 12 -90 55q-76 47 -108 66l202 -14q24 10 -61 -40l55 -38q84 63 131 109l-57 46q-9 -9 -23 -24q-8 -9 -11 -12l-127 10v52
q0 45 6 87h-81q4 -23 5 -42q1 -15 1 -45v-46q-78 5 -143 12q-11 -33 -26 -63q76 -5 175 -76q-75 8 -141 20q-12 -36 -18 -53q63 -23 97 -82q2 1 7 2q90 18 88 32zM313 -31q103 4 102 19q0 5 -11 12q-21 12 -33 28h319q72 -1 116 -4q-20 40 -61 133q-18 40 -25 56h95
q81 -1 137 -4v63q-27 -2 -59 -3q-16 -1 -34 -1h-46h-591q-81 0 -109 1q-36 1 -53 3v-67q2 0 5 1q34 7 139 7h425l18 -42h-387q-17 0 -47 6q-14 3 -19 4q-4 -40 -15 -58q71 -15 134 -154zM692 74h-353l-39 51h369zM488 653q-20 -15 -48 -33q-9 -5 -13 -8q80 -38 113 -80
q73 33 65 37v1q-17 6 -20 10q-40 33 -97 73z" />
</svg>
