<?xml version="1.0" standalone="no"?>
<!DOCTYPE svg PUBLIC "-//W3C//DTD SVG 1.1//EN" "http://www.w3.org/Graphics/SVG/1.1/DTD/svg11.dtd" >
<svg xmlns="http://www.w3.org/2000/svg" xmlns:xlink="http://www.w3.org/1999/xlink" version="1.1" viewBox="-10 0 1010 1000">
   <path fill="currentColor"
d="M804 4q98 67 97 80q-2 2 -11 5q-36 11 -63 36q-111 104 -244 195q-26 -44 -67 -62q221 -111 288 -254zM141 32q2 0 10 1q46 7 125 7h121q48 -1 99 -4q-10 45 -10 121v262q30 0 55 -6q11 -2 17 -2v83q-12 -5 -25 -6q-11 -1 -47 -1v277q2 53 -30 71q-31 20 -127 27
q2 -63 -41 -104q132 37 123 -20v-251h-187q-12 273 -95 394q-34 -40 -79 -57q89 -81 99 -337h-34h-42q-13 1 -27 3v-75q50 4 69 4h36v-272q-1 -73 -10 -115zM226 108v311h185v-311h-185zM345 195q19 101 24 167l-79 7q-6 -93 -24 -170zM812 244q100 55 97 64q-1 2 -8 5
q-29 10 -50 35q-119 146 -250 238q-33 -46 -73 -64q201 -93 284 -278zM855 483q78 43 93 69q-1 4 -10 7q-27 11 -49 39q-139 189 -322 293q-25 -46 -77 -67q252 -107 365 -341z" />
</svg>
