<?xml version="1.0" standalone="no"?>
<!DOCTYPE svg PUBLIC "-//W3C//DTD SVG 1.1//EN" "http://www.w3.org/Graphics/SVG/1.1/DTD/svg11.dtd" >
<svg xmlns="http://www.w3.org/2000/svg" xmlns:xlink="http://www.w3.org/1999/xlink" version="1.1" viewBox="-10 0 1034 1024">
  <g transform="matrix(1 0 0 -1 0 820)">
   <path fill="currentColor"
d="M309 635l-239 3q-3 0 -7 2v-46q51 4 63 5h183v-119l-188 3q-9 1 -17 3v-47q39 6 63 6l340 -1q24 0 43 -5v47q-7 -3 -15 -3q-45 -3 -108 -3h-80v119h177q30 -1 53 -2q6 -1 15 -3v46q-4 -1 -15 -2q-33 -3 -53 -3h-177v65q0 18 3 33q1 15 14 33h-61q0 -1 1 -3q0 1 2 -11
q3 -30 3 -51v-66zM433 165q-10 -31 -34 -77q-24 -42 -62 -102q-4 0 -11 -2q-199 -24 -216 -26q-19 0 -43 -1q9 -16 14 -40q1 -4 3 -11q24 9 81 18l242 37l138 18q3 18 8 37q0 3 3 7q-25 -6 -55 -12l-113 -18q72 117 75 120q1 3 4 5q9 7 18 19zM143 372q1 -31 5 -64
q0 -81 -2 -109q-3 -6 -3 -38l67 6l254 -1q13 0 54 -5q-4 52 -5 103l5 108q-18 -1 -33 -2q-22 -3 -34 -4l-256 1q-39 4 -52 5zM186 201v130h289v-130h-289zM251 89q-18 37 -35 62q-9 -9 -35 -20q49 -78 68 -137q12 10 39 21q-3 4 -5 7zM904 171q6 6 13 15q18 19 50 39
q-39 19 -57 37l-35 -59q-18 -27 -63 -77q-45 -51 -81 -82q-145 -132 -266 -156q30 -24 42 -44q90 45 184 116q90 69 152 141q30 36 61 70zM544 211q33 -22 47 -41q114 81 235 219q28 33 41 43q12 12 39 27q-18 9 -26 14q-10 7 -30 24q-9 -18 -18 -32q-9 -15 -47 -61
q-36 -42 -69 -77q-51 -51 -90 -78q-39 -24 -82 -38zM804 655q9 12 30 33q15 18 42 34q-28 15 -53 35q-16 -33 -48 -72q-40 -51 -74 -85q-27 -27 -56 -52q-48 -37 -90 -55q33 -15 49 -34q64 46 163 154q18 21 37 42v0z" />
  </g>

</svg>
