<?xml version="1.0" standalone="no"?>
<!DOCTYPE svg PUBLIC "-//W3C//DTD SVG 1.1//EN" "http://www.w3.org/Graphics/SVG/1.1/DTD/svg11.dtd" >
<svg xmlns="http://www.w3.org/2000/svg" xmlns:xlink="http://www.w3.org/1999/xlink" version="1.1" viewBox="-10 0 1034 1024">
  <g transform="matrix(1 0 0 -1 0 820)">
   <path fill="currentColor"
d="M264 564q34 -36 106 -156q13 15 35 27l-14 20l-92 134q-18 -12 -35 -25zM184 327h-60q-25 3 -50 4q-6 0 -16 2v-48q24 6 48 6l78 1q-4 -123 -19 -199q-15 -70 -49 -140q-27 -49 -58 -77q30 -4 53 -17q60 96 84 197q9 48 18 110q6 63 8 126h250v-284q0 -36 -8 -52
q-12 -19 -59 -20q-33 0 -69 10q9 -25 16 -57l60 4q63 3 84 32q13 19 14 82v285q39 0 85 -3q4 -1 9 -4v48q-4 0 -7 -1q-43 -1 -87 -5l1 344l4 52q-54 -4 -62 -5l-223 1q-19 3 -50 4q1 -34 5 -71v-325zM222 327v355h249v-355h-249zM494 -116q27 -21 44 -40q45 21 128 79
q109 75 216 197q51 60 61 68q12 10 36 20q-12 12 -51 42q-12 -21 -31 -49q-24 -31 -63 -79q-93 -106 -207 -180q-78 -48 -133 -58zM565 507q18 -10 42 -33q45 31 79 58q34 28 74 66q45 40 53 52q60 64 64 66q9 9 39 17q-21 13 -34 23q-9 7 -19 17q-46 -73 -128 -146
q-57 -51 -98 -81q-33 -24 -72 -39zM895 434q21 18 45 24q-33 24 -51 42q-48 -72 -143 -155q-57 -49 -97 -75q-37 -24 -71 -36q24 -15 43 -36q49 33 92 67q30 24 72 61q39 34 59 56q37 42 51 52v0z" />
  </g>

</svg>
