<?xml version="1.0" standalone="no"?>
<!DOCTYPE svg PUBLIC "-//W3C//DTD SVG 1.1//EN" "http://www.w3.org/Graphics/SVG/1.1/DTD/svg11.dtd" >
<svg xmlns="http://www.w3.org/2000/svg" xmlns:xlink="http://www.w3.org/1999/xlink" version="1.1" viewBox="-10 0 1010 1000">
   <path fill="currentColor"
d="M282 -6q102 4 107 10q1 3 -4 10q-14 24 -14 56h95q61 0 115 -4v75q-51 -6 -117 -6h-93v66h91q105 0 155 -6q-1 5 -4 19q-23 101 -30 140q-16 -4 -50 -10q-20 -4 -31 -6q14 -32 26 -72h-151v78q76 -10 113 -22l8 71q-27 -1 -121 12q-10 67 43 54h9q52 1 62 -10
q13 -8 21 -62q41 37 77 46q-22 62 -47 75q-25 19 -96 18q-95 1 -114 -8q-25 -8 -24 -41v-66q-55 7 -100 18l-4 -73q27 3 102 -2v-86h-123q1 180 -2 258q-3 88 -12 144q-14 106 -84 217q-21 -46 -59 -69q52 -63 68 -160q18 -101 15 -314q0 -80 -12 -149q52 8 99 8h96v-113
q0 -44 -2 -61q-2 -18 -8 -35zM837 244q82 55 80 66q-1 4 -18 14q-25 16 -36 28q-119 120 -220 188q-25 -40 -66 -61q161 -83 260 -235zM861 455q82 60 79 71q-3 6 -15 9q-28 9 -52 33q-116 113 -274 192q-9 -11 -22 -27q-27 -34 -47 -42q193 -68 331 -236zM423 576
q59 0 107 -8q-1 2 -2 7q-10 32 -10 94v89q0 46 69 46h143q76 1 105 -25q32 -25 46 -100q48 62 79 71q-39 127 -137 127h-232q-97 1 -123 -17q-29 -16 -28 -74v-147h-93q-11 184 -125 254q-34 -37 -81 -43q89 -50 112 -106q26 -55 13 -174l91 6h66zM615 258q125 -78 210 -246
q97 46 98 62q-1 3 -13 9q-28 13 -45 30q-9 9 -34 38q-83 94 -148 159q-21 -30 -68 -52z" />
</svg>
