<?xml version="1.0" standalone="no"?>
<!DOCTYPE svg PUBLIC "-//W3C//DTD SVG 1.1//EN" "http://www.w3.org/Graphics/SVG/1.1/DTD/svg11.dtd" >
<svg xmlns="http://www.w3.org/2000/svg" xmlns:xlink="http://www.w3.org/1999/xlink" version="1.1" viewBox="-10 0 1010 1000">
   <path fill="currentColor"
d="M788 2q100 40 93 58q-1 1 -6 3q-23 8 -46 47q-63 106 -164 212q-9 -5 -26 -14q-31 -18 -58 -28q134 -91 207 -278zM218 90v55h260v-55h-260zM218 193v49h260v-49h-260zM835 270q94 49 90 72q-2 7 -14 11q-25 9 -40 32q-94 132 -208 215l-4 -4q-41 -37 -76 -54
q167 -78 252 -272zM222 532v56h256v-56h-256zM871 530q97 58 87 74q-1 2 -8 4q-23 5 -35 23q-127 185 -322 278q-5 -4 -16 -15q-36 -37 -67 -56q247 -66 361 -308zM183 661l75 44q-91 94 -147 135q-24 -35 -67 -48q99 -78 139 -131zM504 667q32 34 77 101l-73 34
q-30 -58 -70 -101zM141 471q17 0 54 1q45 1 71 1h169q71 -1 125 -4q-6 40 -6 97q0 51 6 87q-54 -6 -167 -6v163q1 48 -24 65q-24 18 -103 26q-10 -48 -40 -91q95 21 91 -22v-143q-128 -1 -176 8q8 -47 8 -91q0 -49 -8 -91zM383 306q8 13 22 61h81q25 0 97 -3q31 -2 42 -2v69
q-53 -3 -139 -4h-296q-57 0 -132 4v-68q70 4 132 4h131q-10 -30 -25 -49zM137 24q48 6 107 6h198q63 -1 120 -4q-8 33 -8 70v137q0 27 6 75q-42 -6 -80 -6h-274q-20 0 -46 2q-16 2 -25 2q8 -40 8 -68v-138q0 -46 -6 -76z" />
</svg>
