<?xml version="1.0" standalone="no"?>
<!DOCTYPE svg PUBLIC "-//W3C//DTD SVG 1.1//EN" "http://www.w3.org/Graphics/SVG/1.1/DTD/svg11.dtd" >
<svg xmlns="http://www.w3.org/2000/svg" xmlns:xlink="http://www.w3.org/1999/xlink" version="1.1" viewBox="-10 0 1010 1000">
   <path fill="currentColor"
d="M232 8q80 49 93 76q-1 6 -16 12q-19 7 -27 16q-16 18 -53 62q-93 111 -126 138q-19 -37 -59 -70q123 -84 188 -234zM401 20q100 10 113 24q0 3 -8 13q-24 32 -24 56v171q81 -16 137 -32l12 82q-43 6 -140 24q-6 1 -9 2v212q9 -9 36 -35q35 -33 63 -60l32 81
q-112 89 -194 169l-56 -82q29 -25 36 -40q9 -14 8 -43v-187q-23 4 -65 13q-3 1 -5 1l-14 -83q39 -3 84 -10v-206q-1 -41 -6 -70zM550 92q2 0 11 1q50 7 104 7h139q79 0 117 -8q-5 28 -8 121q-2 71 -5 210q-4 338 -23 365q-16 64 -155 79q-19 -61 -67 -115q112 20 139 -10
q23 39 31 -569h-97q7 344 -46 471q-38 122 -226 239q-22 -37 -81 -67q195 -88 230 -194q52 -108 46 -447q-46 0 -93 6q-12 2 -16 2v-91zM248 246q59 49 73 74q0 3 -10 12q-30 28 -59 69v343q0 88 7 135q1 6 1 8h-97q0 -2 1 -11q7 -61 7 -132v-242q-16 19 -67 82
q-18 22 -21 26q-21 -45 -55 -78q135 -105 220 -286z" />
</svg>
