<?xml version="1.0" standalone="no"?>
<!DOCTYPE svg PUBLIC "-//W3C//DTD SVG 1.1//EN" "http://www.w3.org/Graphics/SVG/1.1/DTD/svg11.dtd" >
<svg xmlns="http://www.w3.org/2000/svg" xmlns:xlink="http://www.w3.org/1999/xlink" version="1.1" viewBox="-10 0 1034 1024">
  <g transform="matrix(1 0 0 -1 0 820)">
   <path fill="currentColor"
d="M183 254l32 37l-1 -429q-1 -3 -2 -19q-3 -6 -3 -14h49q-3 12 -4 45l-1 460q7 10 15 22q51 81 68 102q16 24 21 25q10 12 31 21q-24 7 -44 20q-3 3 -14 12q-15 -37 -40 -82q-58 -93 -119 -159q-66 -72 -137 -103q33 -9 62 -30q0 3 4 6q1 0 3 3q16 15 34 33q22 25 46 50z
M59 488q27 -9 57 -28q96 91 181 207q27 36 36 43q6 7 32 14q-28 10 -63 39q-10 -31 -26 -56q-31 -51 -80 -110q-64 -75 -137 -109zM458 -60l-139 3q-3 0 -7 2v-46q-1 0 7 1l56 4q580 0 590 -3q3 0 8 -2v46q-30 -4 -68 -5h-204v371l208 -3q3 0 11 -3v47q-18 -4 -69 -5h-150
v297l197 -1q16 0 41 -4v46q-18 -4 -68 -5l-438 1l-30 4v-46q27 4 63 5h197v-704h-169v385q0 10 3 30q3 21 17 37h-61q1 -33 5 -67v-385z" />
  </g>

</svg>
