<?xml version="1.0" standalone="no"?>
<!DOCTYPE svg PUBLIC "-//W3C//DTD SVG 1.1//EN" "http://www.w3.org/Graphics/SVG/1.1/DTD/svg11.dtd" >
<svg xmlns="http://www.w3.org/2000/svg" xmlns:xlink="http://www.w3.org/1999/xlink" version="1.1" viewBox="-10 0 1034 1024">
  <g transform="matrix(1 0 0 -1 0 820)">
   <path fill="currentColor"
d="M209 332l-3 -469q-1 -3 -1 -6q-1 -3 -2 -7h49q-3 12 -4 41l-1 482q36 48 46 63q30 42 40 52q9 7 38 20q-46 18 -64 36q-10 -28 -25 -55q-39 -63 -91 -118q-51 -54 -91 -89q-34 -28 -68 -42q18 -6 29 -12q6 -3 26 -17zM156 546q42 42 65 62q64 75 79 87q22 28 45 35
q6 3 15 5q-28 13 -57 40q-4 -15 -7 -20q-1 -3 -17 -24q-27 -34 -54 -65q-22 -25 -38 -40q-49 -45 -75 -64q-22 -15 -59 -28q33 -16 56 -34q22 24 47 46zM643 -31l-273 1q-19 3 -29 4v-46l36 4l534 1q33 -1 68 -5v46q-18 -3 -50 -5h-248v302q223 0 233 -3q3 0 8 -3v47
q-16 -4 -69 -5h-172v241q255 0 265 -3q3 0 10 -2v46q-16 -4 -68 -5l-484 1l-30 4v-46q-1 0 7 1q36 3 56 4h206v-241l-197 1q-15 1 -29 4v-47q24 6 48 6h178v-302zM704 652l-54 62l-70 68q-16 -18 -35 -34q66 -48 130 -139q16 18 39 31q-6 6 -10 12v0z" />
  </g>

</svg>
