<?xml version="1.0" standalone="no"?>
<!DOCTYPE svg PUBLIC "-//W3C//DTD SVG 1.1//EN" "http://www.w3.org/Graphics/SVG/1.1/DTD/svg11.dtd" >
<svg xmlns="http://www.w3.org/2000/svg" xmlns:xlink="http://www.w3.org/1999/xlink" version="1.1" viewBox="-10 0 1010 1000">
   <path fill="currentColor"
d="M256 0q81 53 79 70q-4 5 -13 9q-26 11 -54 42q-6 7 -25 29q-116 131 -146 162q-16 -38 -53 -70q125 -102 212 -242zM621 6q27 49 60 123l-80 28q-2 -4 -5 -13q-28 -69 -56 -114zM919 161v89q-112 -5 -185 -6h-73v193h51q36 0 155 -6v87q-56 -5 -153 -6h-53v254h109
q112 -2 159 -6v90q-45 -7 -157 -8h-298q-93 1 -141 6v-88q4 0 13 1q99 5 130 5h105v-254h-39q-77 2 -151 8v-89q35 6 149 6h41v-193h-51q-83 1 -161 8v-91q60 7 161 8h210q89 -1 179 -8zM274 209q93 59 85 71q-3 6 -15 12q-19 11 -32 28q-37 45 -54 67v320q1 106 4 188h-91
q7 -96 8 -188v-230q-38 49 -100 111q-16 -40 -47 -68q151 -142 242 -311z" />
</svg>
