<?xml version="1.0" standalone="no"?>
<!DOCTYPE svg PUBLIC "-//W3C//DTD SVG 1.1//EN" "http://www.w3.org/Graphics/SVG/1.1/DTD/svg11.dtd" >
<svg xmlns="http://www.w3.org/2000/svg" xmlns:xlink="http://www.w3.org/1999/xlink" version="1.1" viewBox="-10 0 1010 1000">
   <path fill="currentColor"
d="M268 -15q72 46 85 73q-1 5 -12 8q-30 8 -55 34l-17 17q-134 133 -186 171q-21 -36 -61 -67q150 -88 246 -236zM272 201q81 47 87 61q-1 3 -10 8q-23 11 -36 30q-23 36 -43 60v426q0 74 4 113h-93q6 -37 6 -111v-339q-24 25 -70 77l-48 54q-11 -43 -49 -84
q161 -117 252 -295zM488 -4q116 23 113 34q0 3 -5 8q-29 26 -56 101h218q128 -2 153 -10q-12 78 -15 420q-1 171 -3 247q0 57 -37 79q-32 22 -142 34q-6 -47 -47 -107q87 16 109 6q26 -8 28 -58q5 -87 12 -351q3 -128 5 -192h-307q-10 17 -36 69q-7 13 -10 20q33 6 78 6
q114 0 174 -8q-12 33 -12 113v236q0 65 8 117h-91q4 -24 4 -51h-131q0 46 4 71h-89q10 -42 10 -93v-318q-45 66 -66 96q-18 -41 -61 -66q150 -150 192 -403zM498 365v106h135v-106h-135zM498 534v111h135v-111h-135z" />
</svg>
