<?xml version="1.0" standalone="no"?>
<!DOCTYPE svg PUBLIC "-//W3C//DTD SVG 1.1//EN" "http://www.w3.org/Graphics/SVG/1.1/DTD/svg11.dtd" >
<svg xmlns="http://www.w3.org/2000/svg" xmlns:xlink="http://www.w3.org/1999/xlink" version="1.1" viewBox="-10 0 1034 1024">
  <g transform="matrix(1 0 0 -1 0 820)">
   <path fill="currentColor"
d="M73 210q19 -9 33 -20l102 117q12 15 26 32l-3 -495q-1 -3 -2 -14h48q-3 12 -4 45l-1 514q21 33 37 60q19 30 27 38q19 24 47 33q-33 12 -61 39q-13 -39 -43 -83l-42 -61q-21 -37 -89 -116q-51 -57 -101 -77q12 -6 26 -12zM62 517q40 -15 58 -32q39 39 82 90q45 49 71 84
q30 39 46 58q9 10 36 24q-22 9 -39 21q-12 7 -18 11q-9 -24 -46 -79q-19 -25 -52 -62q-40 -45 -52 -55q-52 -48 -86 -60zM556 506q1 -31 5 -65l-1 -256q-3 -12 -4 -47q49 4 100 5q69 0 83 -2q21 0 44 -3v10q0 -3 -1 9q-3 24 -5 47l1 246l5 56q-34 -1 -70 -5l-112 1
q-15 3 -45 4zM740 179h-143v286h143v-286zM406 694q1 -18 2 -30q3 -21 4 -34v-731q0 -21 -4 -52q0 -7 -2 -14h48q-6 27 -6 67v38h442q0 -60 -2 -79q-3 -3 -3 -10q-1 -3 -1 -7h49q-3 12 -4 44l-1 744q1 31 5 64q-21 -1 -36 -2q-24 -3 -59 -3l-384 1q-15 3 -48 4zM448 -26v679
h442v-679h-442z" />
  </g>

</svg>
