<?xml version="1.0" standalone="no"?>
<!DOCTYPE svg PUBLIC "-//W3C//DTD SVG 1.1//EN" "http://www.w3.org/Graphics/SVG/1.1/DTD/svg11.dtd" >
<svg xmlns="http://www.w3.org/2000/svg" xmlns:xlink="http://www.w3.org/1999/xlink" version="1.1" viewBox="-10 0 1034 1024">
  <g transform="matrix(1 0 0 -1 0 820)">
   <path fill="currentColor"
d="M102 212q16 18 35 35l33 33l55 68l-3 -479q-1 -3 -2 -13h49q-3 12 -4 41l-1 503q34 63 49 80q15 18 42 28q-31 13 -63 36q-3 -18 -21 -50q-21 -37 -44 -73q-21 -31 -39 -56q-75 -97 -160 -133q31 -12 61 -35q6 7 13 15zM62 520q28 -9 57 -30q39 39 88 96q48 55 75 93
q27 37 38 47q9 9 35 19q-30 12 -61 39q-10 -27 -24 -50q-45 -69 -75 -104q-49 -54 -73 -74q-21 -15 -60 -36zM630 434l-270 3q-9 0 -17 2v-46q51 4 58 5h376v-147l-356 1q-15 0 -35 4v-47q36 6 62 6h329v-272q0 -18 -14 -26q-15 -6 -63 -7q-30 0 -56 7q9 -21 16 -51
q57 1 91 7q64 12 65 70v272q91 0 109 -2q9 0 23 -4v47q-19 -4 -68 -5h-64v147q72 0 151 -3q3 0 13 -2v46q-33 -1 -67 -5h-245v152q210 0 220 -3q3 0 8 -2v46q-24 -1 -48 -5h-180v107q0 12 3 26q1 16 14 34h-61q3 -9 3 -16q1 -25 3 -44v-107l-182 1q-19 3 -29 4v-46
q24 4 57 5h154v-152zM484 114q51 -25 118 -92q10 16 16 20q3 4 11 10q-28 27 -117 95q-13 -21 -28 -33v0z" />
  </g>

</svg>
