<?xml version="1.0" standalone="no"?>
<!DOCTYPE svg PUBLIC "-//W3C//DTD SVG 1.1//EN" "http://www.w3.org/Graphics/SVG/1.1/DTD/svg11.dtd" >
<svg xmlns="http://www.w3.org/2000/svg" xmlns:xlink="http://www.w3.org/1999/xlink" version="1.1" viewBox="-10 0 1010 1000">
   <path fill="currentColor"
d="M565 -8q93 4 100 12q1 3 -3 8q-13 15 -13 42v79h73q122 0 155 -10v86q-29 -8 -149 -8h-79v131h131q117 0 153 -8v85q-31 -8 -151 -8h-115v121h81q66 0 91 -1q31 -2 48 -7v86q-17 -8 -137 -8h-83v186q60 7 141 5q79 -2 142 -11q-39 64 -41 105q-240 -11 -322 -52
q-82 -32 -150 -166q-35 127 -114 226q-24 -39 -59 -65q120 -118 135 -349q88 9 105 21q1 3 -4 10q-18 24 -28 62q28 110 117 188v-351h-111q-148 -1 -168 8v-85q24 8 174 8h89v-131h-67q-124 0 -153 8v-86q24 10 145 10h75q0 -114 -8 -141zM248 -4q79 43 97 68q0 2 -12 7
q-26 11 -35 23q-139 168 -189 218q-22 -32 -71 -62q131 -87 210 -254zM250 217q75 35 91 57q0 5 -10 12q-13 9 -19 18q-22 27 -61 83q-6 10 -9 14v316q0 93 2 129q1 36 6 53h-95q10 -35 10 -182v-217q-74 84 -80 84q-8 -23 -57 -76q162 -114 222 -291z" />
</svg>
