<?xml version="1.0" standalone="no"?>
<!DOCTYPE svg PUBLIC "-//W3C//DTD SVG 1.1//EN" "http://www.w3.org/Graphics/SVG/1.1/DTD/svg11.dtd" >
<svg xmlns="http://www.w3.org/2000/svg" xmlns:xlink="http://www.w3.org/1999/xlink" version="1.1" viewBox="-10 0 1034 1024">
  <g transform="matrix(1 0 0 -1 0 820)">
   <path fill="currentColor"
d="M91 478q4 -3 8 -4q42 39 69 66l66 71q30 33 34 39q24 27 32 34q3 3 29 17q-28 18 -49 40q-48 -81 -99 -136q-36 -40 -65 -65q-22 -19 -59 -42q3 -1 6 -3q3 -1 10 -6h1q7 -4 17 -11zM221 -79l-5 -67h48q-3 7 -5 53v469l54 88q31 46 61 61q-24 12 -55 35q-10 -27 -22 -51
q-13 -25 -39 -65q-48 -76 -109 -144q-57 -60 -99 -78q30 -15 48 -29q61 55 123 132v-404zM771 187q-39 -94 -138 -178q-52 48 -74 79q-18 27 -33 77q-21 -9 -43 -14q21 -51 44 -80q22 -31 76 -85q-67 -37 -131 -62q-78 -30 -164 -32q13 -21 26 -44q150 24 300 117
q55 -36 120 -64q99 -37 179 -51q9 24 31 47q-87 6 -104 10q-24 6 -78 24q-64 25 -117 57q112 99 164 238q-36 -1 -73 -5h-227q28 51 58 69q-3 0 -36 27l177 9l106 7q33 -48 57 -88q12 9 14 11q4 3 11 9q4 3 8 5q-18 30 -55 75l-94 118q-3 -3 -28 -22q6 -7 13 -17
q19 -22 30 -36q7 -9 18 -26l-184 -10l-100 -4q-24 -1 -50 -3q43 30 82 59q126 97 145 115q27 25 56 50q13 13 30 22q16 9 34 12q-24 24 -44 48q-15 -19 -42 -47t-57 -55q-39 -1 -77 -5q-66 -6 -114 -7q45 48 79 89q45 51 58 62q12 12 39 26q-24 19 -44 38q-33 -48 -60 -81
q-24 -31 -51 -63q-39 -43 -60 -60q-19 -13 -41 -17l5 -15q3 -12 5 -31q46 13 105 19q69 6 118 9q-87 -70 -151 -117q-42 -27 -67 -40q-24 -9 -60 -13q7 -22 12 -47q31 9 68 12l96 9q-30 -60 -55 -97q-30 -42 -54 -69q-19 -22 -39 -40q-45 -39 -85 -53q21 -16 37 -34
q43 31 77 65q33 33 86 98h266z" />
  </g>

</svg>
