<?xml version="1.0" standalone="no"?>
<!DOCTYPE svg PUBLIC "-//W3C//DTD SVG 1.1//EN" "http://www.w3.org/Graphics/SVG/1.1/DTD/svg11.dtd" >
<svg xmlns="http://www.w3.org/2000/svg" xmlns:xlink="http://www.w3.org/1999/xlink" version="1.1" viewBox="-10 0 1010 1000">
   <path fill="currentColor"
d="M565 0q98 1 104 8q1 3 -3 9q-17 26 -17 75v216h182q46 0 76 -6q-8 39 -8 71v393q4 65 -24 85q-21 20 -123 32q-4 -52 -46 -107q121 36 117 -36v-365h-402v344q0 116 6 144h-92q6 -26 8 -58q2 -30 2 -88v-336q0 -53 -6 -77q36 3 90 4h144v-208q0 -69 -8 -100zM242 12
q93 42 91 56q-1 3 -11 8q-20 10 -32 24q-9 11 -28 34q-114 137 -151 168q-26 -30 -79 -54q137 -74 210 -236zM802 56q88 35 89 46q-1 3 -6 5q-21 9 -40 36q-14 21 -64 102q-9 14 -13 21q-41 -26 -74 -35q53 -52 108 -175zM435 82q66 84 97 151l-72 39q-43 -93 -97 -151z
M256 215q73 37 87 55q0 2 -5 5q-21 12 -38 41q-30 49 -70 99v357q0 78 6 123h-89q12 -55 12 -129v-264q-1 2 -4 5q-37 48 -52 63q-42 -36 -81 -54q161 -115 234 -301zM740 451q-4 23 -4 61v123q0 53 4 78q-30 -3 -65 -2h-104q-65 -1 -87 4q4 -36 4 -84v-101q0 -53 -4 -79
q27 3 78 4h99q42 0 79 -4zM560 514v137h105v-137h-105z" />
</svg>
