<?xml version="1.0" standalone="no"?>
<!DOCTYPE svg PUBLIC "-//W3C//DTD SVG 1.1//EN" "http://www.w3.org/Graphics/SVG/1.1/DTD/svg11.dtd" >
<svg xmlns="http://www.w3.org/2000/svg" xmlns:xlink="http://www.w3.org/1999/xlink" version="1.1" viewBox="-10 0 1034 1024">
  <g transform="matrix(1 0 0 -1 0 820)">
   <path fill="currentColor"
d="M208 -94q-3 -36 -3 -52q-3 -6 -3 -13h49q-3 12 -4 44l-1 480q0 3 75 100q10 16 34 30q-30 15 -48 31q-13 -28 -45 -74q-30 -45 -68 -90q-72 -85 -150 -136q22 -7 43 -28q102 102 121 123v-415zM109 501l103 107l80 96q16 19 38 23q-45 33 -50 37q-19 -39 -102 -139
q-63 -75 -123 -107q21 -9 40 -32q6 7 14 15zM753 179l-416 1l-30 4v-46l36 4l410 1v-206q0 -33 -21 -40q-21 -6 -51 -6q-19 0 -63 7q12 -24 14 -30q3 -9 4 -21q30 0 59 4q54 6 70 18q24 18 24 59v215q159 0 167 -3q3 0 10 -2v46q-43 -4 -83 -5h-94v114q115 0 122 -3
q3 0 10 -2v46q-4 -1 -14 -2q-33 -3 -52 -3l-472 1q-7 1 -19 2q-3 0 -9 2v-46q30 3 61 5h337v-114zM410 411q33 3 66 5l330 -1l49 -4q-3 28 -5 58l1 222l4 45q-33 -1 -66 -5l-331 1q-19 3 -48 4q1 -30 5 -62l-1 -221q-3 -12 -4 -42zM452 592v104h359v-104h-359zM452 452v104
h359v-104h-359zM591 -15q6 10 18 20q-27 24 -38 32l-76 60q-9 6 -19 14q-7 -16 -24 -35q45 -24 130 -104q4 7 9 13z" />
  </g>

</svg>
