<?xml version="1.0" standalone="no"?>
<!DOCTYPE svg PUBLIC "-//W3C//DTD SVG 1.1//EN" "http://www.w3.org/Graphics/SVG/1.1/DTD/svg11.dtd" >
<svg xmlns="http://www.w3.org/2000/svg" xmlns:xlink="http://www.w3.org/1999/xlink" version="1.1" viewBox="-10 0 1010 1000">
   <path fill="currentColor"
d="M242 -12q90 41 93 56q-1 2 -6 4q-18 7 -37 34q-91 118 -197 232q-31 -46 -75 -62q129 -73 222 -264zM607 8q97 4 99 12q0 3 -4 10q-15 23 -15 56v61h97q48 0 115 -8v80q-14 -2 -35 -3q-17 -1 -58 -1h-119v133h138q84 0 108 -8v79q-19 -6 -106 -6h-140v119h121q64 0 99 -6
v84q-36 -6 -99 -6h-121v178q142 16 271 -4q-34 34 -47 101q-239 -12 -313 -49q-77 -29 -142 -153q-44 122 -117 212q-24 -32 -83 -55q142 -92 167 -373q88 16 101 27q0 3 -4 8q-21 25 -38 96q65 124 129 164v-343h-210q-45 0 -88 6v-75q21 5 80 4h32v-163q0 -43 -6 -81
q96 6 101 15q0 3 -5 9q-15 23 -15 49v171h111v-252q0 -33 -4 -88zM266 205q83 53 85 67q-1 2 -10 7q-21 12 -31 25q-7 8 -22 25q-30 34 -48 58v401q0 68 5 110q1 5 1 7h-81q4 -36 4 -117v-307q-5 6 -16 19q-60 70 -80 92q-9 -30 -38 -62q-12 -15 -13 -20q100 -65 244 -305z
" />
</svg>
