<?xml version="1.0" standalone="no"?>
<!DOCTYPE svg PUBLIC "-//W3C//DTD SVG 1.1//EN" "http://www.w3.org/Graphics/SVG/1.1/DTD/svg11.dtd" >
<svg xmlns="http://www.w3.org/2000/svg" xmlns:xlink="http://www.w3.org/1999/xlink" version="1.1" viewBox="-10 0 1034 1024">
  <g transform="matrix(1 0 0 -1 0 820)">
   <path fill="currentColor"
d="M199 -101q-3 -36 -3 -52q-1 -3 -2 -14h48q-3 12 -4 45l-1 488q34 67 98 136q-12 7 -23 13q-9 7 -18 16q-21 -39 -34 -58q-19 -30 -61 -83q-72 -100 -150 -154q19 -9 43 -33q22 22 46 49q25 28 61 71v-424zM65 520q30 -16 42 -33q16 13 34 33q25 27 69 77q36 45 74 100
q1 3 3 4l14 17l27 31q-24 6 -49 24q-15 -34 -28 -54q-39 -63 -75 -101q-57 -66 -111 -98zM517 355h-106q-40 0 -63 5v-46q31 4 60 5h109v-211q-147 0 -177 2q-9 3 -26 3v-46q51 4 58 5h145l-1 -204q-3 -25 -4 -38h47q-3 12 -4 45l-1 821q0 33 11 51q1 6 7 11h-60
q4 -49 5 -82v-92h-120q-46 0 -62 5v-46q49 4 70 5h112v-193zM744 362v191q204 0 210 -3q3 0 9 -2v46q-16 -4 -69 -5h-150v114q0 9 3 25q1 18 14 34h-60q4 -45 5 -59l-3 -859q-1 -3 -1 -6q-1 -3 -1 -8h49q-4 30 -5 38l-1 209q214 0 221 -3q3 0 10 -2v46q-21 -4 -67 -5h-164
v213l191 -3q3 0 11 -3v47q-6 -1 -16 -2q-33 -3 -53 -3h-133z" />
  </g>

</svg>
