<?xml version="1.0" standalone="no"?>
<!DOCTYPE svg PUBLIC "-//W3C//DTD SVG 1.1//EN" "http://www.w3.org/Graphics/SVG/1.1/DTD/svg11.dtd" >
<svg xmlns="http://www.w3.org/2000/svg" xmlns:xlink="http://www.w3.org/1999/xlink" version="1.1" viewBox="-10 0 1010 1000">
   <path fill="currentColor"
d="M248 -6q68 45 81 68q-3 4 -12 7q-21 8 -39 27q-93 101 -181 188q-27 -41 -63 -65q141 -97 214 -225zM262 215q76 43 85 63q0 5 -15 13q-14 8 -20 13q-33 31 -62 69v421q0 79 4 107h-83q4 -34 4 -117v-319q-6 7 -23 25q-46 49 -77 84q-14 -34 -61 -72q177 -129 248 -287z
M657 8q100 6 107 14q0 2 -4 7q-18 24 -18 51v85h46q72 0 133 -10v89q-48 -7 -131 -7h-48v146h44q82 -2 121 -8v82q-34 -6 -119 -6h-46v155h89q71 1 102 -8v83q-43 -7 -100 -8h-91v67q1 120 6 149h-91q6 -41 6 -145v-632q0 -54 -5 -95q-1 -7 -1 -9zM480 16q90 2 103 12
q0 3 -5 11q-13 20 -13 45v647q1 99 8 142h-95q8 -17 8 -138v-60h-44q-70 1 -115 8v-83q40 8 113 8h46v-157h-22q-87 1 -119 6v-82q44 8 123 8h18v-143h-40q-72 1 -127 8v-87q52 12 127 12h40v-83q0 -39 -5 -67q-1 -5 -1 -7z" />
</svg>
