<?xml version="1.0" standalone="no"?>
<!DOCTYPE svg PUBLIC "-//W3C//DTD SVG 1.1//EN" "http://www.w3.org/Graphics/SVG/1.1/DTD/svg11.dtd" >
<svg xmlns="http://www.w3.org/2000/svg" xmlns:xlink="http://www.w3.org/1999/xlink" version="1.1" viewBox="-10 0 1034 1024">
  <g transform="matrix(1 0 0 -1 0 820)">
   <path fill="currentColor"
d="M173 255q21 21 46 48l-3 -445q-1 -3 -2 -13h48q-3 12 -4 43l-1 454l2 3q6 13 34 51q48 72 52 73q9 10 27 22q-33 18 -53 37q-39 -93 -126 -193q-63 -72 -138 -119q27 -15 46 -29q7 7 12 11zM289 659q10 13 22 26q18 21 43 35q-21 12 -32 24l-15 15q-24 -46 -117 -154
q-42 -48 -70 -71q-22 -18 -52 -30q25 -7 47 -32q43 42 72 72q28 30 76 85q12 15 26 30zM329 -105q100 165 120 313q4 37 7 84l3 192h227l-9 -105l-112 1q-24 3 -48 4q1 -30 5 -63l-1 -449q-1 -7 -2 -15q0 -4 -2 -12h47q-4 30 -5 44v41h298q-3 -69 -5 -78v-4h48q-3 12 -4 40
l-1 432q0 28 5 64q-55 -4 -90 -5h-92l9 105l197 -1q28 0 41 -4l2 -1v46q-4 -1 -15 -2q-33 -3 -53 -3h-168q1 43 10 77q4 24 17 42q-31 0 -64 5q0 -42 -6 -124h-229l-3 129q112 1 207 10q90 9 181 26q48 7 84 12q-15 16 -33 51q-25 -13 -65 -23q-85 -18 -161 -28l-93 -7
q-49 -3 -82 -4q-27 0 -83 5q4 -31 7 -69v-235q-3 -133 -14 -199q-18 -111 -74 -204q-21 -34 -58 -66q22 -3 34 -10q4 -3 8 -5q7 -3 15 -7zM857 241h-298v104h298v-104zM559 110v98h298v-98h-298zM559 -34v109h298v-109h-298z" />
  </g>

</svg>
