<?xml version="1.0" standalone="no"?>
<!DOCTYPE svg PUBLIC "-//W3C//DTD SVG 1.1//EN" "http://www.w3.org/Graphics/SVG/1.1/DTD/svg11.dtd" >
<svg xmlns="http://www.w3.org/2000/svg" xmlns:xlink="http://www.w3.org/1999/xlink" version="1.1" viewBox="-10 0 1010 1000">
   <path fill="currentColor"
d="M728 -10q100 25 111 38q-2 7 -11 16q-16 15 -22 36q-15 44 -44 129h119q40 0 77 -6v79q-29 -6 -73 -6q-20 238 -77 421q45 64 148 119q-43 25 -69 71q-69 -63 -121 -127q-70 86 -181 135q-26 -43 -65 -67q126 -30 204 -133q-48 -109 -79 -272l14 -2q-48 -25 -76 -26
q124 -129 145 -405zM202 -2q87 53 88 66q-1 2 -10 5q-27 10 -40 27q-13 16 -37 50q-54 76 -108 136q-23 -36 -59 -65q112 -92 166 -219zM433 0q77 1 87 10q1 3 -4 17q-8 23 -8 37v155h61v-78q0 -17 -1 -48q-1 -22 -1 -31q80 -3 86 8q0 4 -4 9q-12 18 -12 60v64q0 59 2 73
q-16 -1 -39 -2h-62h-133q-63 -1 -97 8q5 -22 5 -63v-78q0 -42 -7 -81q3 0 8 1q86 7 81 13q-1 3 -4 9q-10 16 -10 40v96h59v-127q0 -69 -7 -92zM210 213q78 40 94 63q-1 2 -6 6q-30 19 -72 81v364q0 111 8 182h-97q14 -71 14 -186v-250q-10 12 -27 34q-31 39 -49 61
q-27 -54 -53 -80q130 -107 188 -275zM815 276h-77q-5 10 -14 32q-22 57 -53 111l53 -8q-6 50 30 192q4 15 6 22q41 -142 55 -349zM575 340v59q-24 -4 -67 -4h-127q-45 0 -77 6v-61q22 4 73 4h119q64 -1 79 -4zM280 457q33 4 119 4h143q51 0 81 -4v63q-19 -4 -75 -4h-62v76
h62q40 0 63 -4v61q-22 -4 -63 -4h-62v74h46q39 0 54 -1q20 -1 37 -3v65q-17 -6 -93 -6h-175q-32 0 -68 3q-5 1 -7 1v-65q36 6 79 6h60v-76h-38q-51 0 -77 4v-59q42 4 75 4h40v-76h-46q-72 0 -93 6v-65z" />
</svg>
