<?xml version="1.0" standalone="no"?>
<!DOCTYPE svg PUBLIC "-//W3C//DTD SVG 1.1//EN" "http://www.w3.org/Graphics/SVG/1.1/DTD/svg11.dtd" >
<svg xmlns="http://www.w3.org/2000/svg" xmlns:xlink="http://www.w3.org/1999/xlink" version="1.1" viewBox="-10 0 1034 1024">
  <g transform="matrix(1 0 0 -1 0 820)">
   <path fill="currentColor"
d="M178 -94q-1 -19 -2 -52q0 -4 -4 -14h49q-3 33 -5 66v443q18 27 45 65q30 42 58 53q-30 19 -50 37q-39 -78 -102 -159q-64 -79 -119 -121q9 -1 18 -8q6 -4 25 -18q3 3 43 49q6 9 20 23q10 12 24 28v-392zM47 507q16 -6 22 -11l24 -17q25 25 57 62q27 30 43 51l46 62
q24 34 36 44q9 9 29 15q-33 21 -53 38q-19 -39 -41 -70q-18 -27 -48 -65q-63 -78 -115 -109zM456 -6l-148 2q-1 0 -27 3v-46q33 3 67 5l240 -1q24 0 36 -4v46q-10 0 -13 -2l-118 -3v122l95 -3l2 -1q3 0 6 -1v46l-35 -4l-68 -1v107q97 0 109 -2q3 0 8 -2q3 0 8 -1v46
q-4 0 -8 -1l-58 -4l-217 1q-24 3 -33 4v-46q54 4 79 5h75v-107l-101 2q-12 3 -26 3v-46q51 4 85 5h42v-122zM622 419q-12 0 -23 -3q-19 0 -39 -2l-213 1q-36 3 -42 4v-46q33 3 66 5l215 -1q12 0 27 -3q-10 -12 -24 -24q21 -4 50 -19q12 19 30 53l53 120h125
q-4 -118 -19 -204q-19 -102 -49 -170q-19 49 -34 93q-27 91 -28 137q0 10 1 27q-25 -4 -47 -6q15 -93 34 -153q18 -60 53 -142q-42 -66 -117 -131q-69 -51 -131 -67q30 -24 47 -41q24 15 45 31q24 18 55 44q61 51 123 124q67 -108 168 -194q22 27 41 39q-49 24 -97 75
q-63 69 -89 119q37 96 56 176q9 45 17 102l14 141q60 0 82 -3q-1 0 16 -2v46q-33 -1 -66 -5h-186l38 120q16 49 23 59q4 12 26 30q-10 1 -21 5q-42 12 -44 12q-1 -21 -8 -45q-6 -33 -26 -101q-3 -12 -7 -23q-30 -105 -95 -214v36zM330 491q30 4 53 5l203 -1q4 0 14 -2
q15 0 31 -3q-4 52 -5 106q0 63 3 68q1 12 11 25h-57q0 -9 2 -14l3 -144h-93l1 180q0 21 13 43h-57q1 -33 5 -66v-157h-96q0 124 3 128q1 13 12 26h-57l4 -36l-1 -122q-3 -3 -3 -37q4 1 11 1v0z" />
  </g>

</svg>
