<?xml version="1.0" standalone="no"?>
<!DOCTYPE svg PUBLIC "-//W3C//DTD SVG 1.1//EN" "http://www.w3.org/Graphics/SVG/1.1/DTD/svg11.dtd" >
<svg xmlns="http://www.w3.org/2000/svg" xmlns:xlink="http://www.w3.org/1999/xlink" version="1.1" viewBox="-10 0 1010 1000">
   <path fill="currentColor"
d="M224 -10q21 10 55 24q37 15 34 18q0 3 -16 23q-25 27 -206 267q-22 -42 -61 -66q113 -112 194 -266zM571 -12q86 4 100 8q1 3 -2 9q-18 28 -30 87h167q48 0 123 -4v71q-17 -2 -44 -3q-13 -1 -30 -1h-47h-181l-14 74h173q75 0 107 -6v3q-6 36 -6 72v89q0 58 6 82
q-39 -6 -105 -6h-336q-61 0 -89 6q6 -36 6 -80v-87q0 -48 -6 -79q25 6 85 6h94l12 -76h-90q-56 0 -82 1q-30 1 -51 3v-67q60 4 129 4h103q5 -32 7 -81q1 -17 1 -25zM248 207q19 12 51 29q40 21 36 24q-1 3 -7 9q-39 34 -96 120v389q0 74 1 94q0 28 3 35h-83q4 -23 4 -125
v-286q-7 9 -18 23q-31 41 -62 77q-19 -57 -47 -82q134 -128 218 -307zM524 284h-87v123h87v-123zM671 284h-88v123h88v-123zM730 284v123h89v-123h-89zM917 514v72q-14 -2 -40 -3q-12 -1 -29 -1h-46h-389q-60 0 -77 1q-22 1 -26 3v-72q17 3 101 4h393q74 -1 113 -4zM817 608
q65 57 157 162l-75 52q-43 -80 -143 -171zM438 619q92 3 96 12q1 2 -2 8q-12 25 -12 68v53q-5 51 67 48h76q73 10 73 -103q3 0 12 7q35 26 77 38q-19 71 -47 100q-25 27 -74 25h-152q-119 6 -110 -79v-93q0 -68 -4 -84zM333 639l80 18q-38 133 -76 208l-83 -27
q46 -75 79 -199zM690 715l-71 25q-19 -71 -54 -136l60 -16q33 49 65 127z" />
</svg>
