<?xml version="1.0" standalone="no"?>
<!DOCTYPE svg PUBLIC "-//W3C//DTD SVG 1.1//EN" "http://www.w3.org/Graphics/SVG/1.1/DTD/svg11.dtd" >
<svg xmlns="http://www.w3.org/2000/svg" xmlns:xlink="http://www.w3.org/1999/xlink" version="1.1" viewBox="-10 0 1010 1000">
   <path fill="currentColor"
d="M442 26q61 63 141 173l-87 53q-60 -103 -133 -176zM698 94q10 5 27 13q100 48 92 50q-1 6 -10 13q-31 20 -57 72l-19 38q-129 280 -322 425q-1 56 12 68q10 14 61 13h117q62 3 77 -22q20 -25 30 -123q40 38 96 66q-28 111 -62 131q-32 29 -145 27h-145q-72 1 -97 -24
q-28 -24 -28 -89q-89 57 -192 110q-23 -34 -69 -68q-17 -13 -16 -16q106 -14 277 -117v-309q0 -83 -4 -129q18 1 52 3q60 1 58 7q1 4 -4 19q-18 45 -18 102v250q215 -205 289 -510zM159 300l105 28q-21 41 -89 319l-104 -22q57 -90 88 -325zM800 346q22 30 60 80
q86 115 108 148l-91 61q-74 -142 -159 -238z" />
</svg>
