<?xml version="1.0" standalone="no"?>
<!DOCTYPE svg PUBLIC "-//W3C//DTD SVG 1.1//EN" "http://www.w3.org/Graphics/SVG/1.1/DTD/svg11.dtd" >
<svg xmlns="http://www.w3.org/2000/svg" xmlns:xlink="http://www.w3.org/1999/xlink" version="1.1" viewBox="-10 0 1034 1024">
  <g transform="matrix(1 0 0 -1 0 820)">
   <path fill="currentColor"
d="M59 341q4 0 11 -2q7 0 14 -4l13 -4q19 54 44 133q18 60 24 70q4 9 24 29q-31 6 -60 18q-24 -132 -76 -239q3 0 6 -1zM270 -155q-3 7 -3 13q0 21 -3 53v792q0 36 21 66h-64q4 -22 5 -66v-792q0 -27 -3 -52q0 -6 -3 -14h50zM335 592q-1 0 -14 -9q-3 0 -13 -7q18 -31 48 -88
q16 -31 32 -80q3 3 12 8q7 3 16 5q6 3 12 7q-10 27 -30 63l-55 105q-4 -1 -8 -4zM876 629l-9 -484q-1 -18 -2 -40l-6 -123q-3 -40 -31 -50t-65 -11q-6 0 -54 6q15 -27 20 -54q58 3 115 22q34 12 45 36q9 24 11 108q0 61 8 269l3 160q3 162 6 175q0 13 4 27q-33 -1 -67 -5
l-441 3q-6 0 -13 2v-47q6 3 13 3q18 3 54 3h125l-6 -179q-3 -72 -9 -128q-9 -96 -33 -174q-64 -202 -219 -260q25 -13 51 -35q147 108 201 266q21 70 32 142q6 40 9 89l7 117l8 162h243z" />
  </g>

</svg>
