<?xml version="1.0" standalone="no"?>
<!DOCTYPE svg PUBLIC "-//W3C//DTD SVG 1.1//EN" "http://www.w3.org/Graphics/SVG/1.1/DTD/svg11.dtd" >
<svg xmlns="http://www.w3.org/2000/svg" xmlns:xlink="http://www.w3.org/1999/xlink" version="1.1" viewBox="-10 0 1010 1000">
   <path fill="currentColor"
d="M917 36v95q-40 -8 -127 -8h-278v227q-1 68 10 105l-103 2q10 -38 10 -105v-229h-205q-67 0 -133 8v-91q73 8 131 8h566q79 0 129 -12zM613 183q101 56 224 159l-71 61q-95 -94 -208 -165zM522 481q28 42 87 158l-89 30q-29 -93 -76 -161zM782 488q73 92 155 237l-86 47
q-36 -109 -141 -250zM149 510q42 8 93 26q-27 59 -93 264l-6 18q-45 -24 -93 -38q71 -112 99 -270zM296 520q96 2 107 12q-16 26 -16 80v109q-1 46 15 56q12 12 74 11h87q73 0 90 -24q24 -30 24 -101q52 40 99 52q-30 112 -70 133q-19 13 -43 16q-20 3 -88 3h-109
q-105 2 -130 -19q-33 -22 -32 -96v-142q-2 -58 -8 -90z" />
</svg>
