<?xml version="1.0" standalone="no"?>
<!DOCTYPE svg PUBLIC "-//W3C//DTD SVG 1.1//EN" "http://www.w3.org/Graphics/SVG/1.1/DTD/svg11.dtd" >
<svg xmlns="http://www.w3.org/2000/svg" xmlns:xlink="http://www.w3.org/1999/xlink" version="1.1" viewBox="-10 0 1034 1024">
  <g transform="matrix(1 0 0 -1 0 820)">
   <path fill="currentColor"
d="M112 -97q37 63 67 117q12 30 21 43q3 7 14 24q12 18 34 31q-39 9 -61 23q-45 -132 -127 -233q24 -6 42 -22q4 9 10 17zM500 648l389 -1q21 0 36 -5v47q-19 -4 -66 -5l-738 1q-12 3 -28 3q-3 1 -5 1v-47q4 3 51 6h323l-1 -364q0 -3 -2 -13q-3 -12 -3 -10h49q0 6 -2 13
l-3 143v78q6 -3 14 -8q94 -45 105 -51q67 -39 125 -78l31 -24l25 42q-9 6 -20 12q-96 63 -280 153v107zM361 88q0 12 3 26q1 15 19 40h-65q0 -3 1 -7q3 -18 4 -59v-134q0 -22 7 -40q9 -24 44 -34q36 -12 74 -14q27 -1 110 -2q46 0 80 4q69 7 95 41q21 33 38 107
q-25 9 -47 19q-1 -45 -11 -73q-16 -48 -92 -55q-30 -3 -142 -3q-39 3 -61 6q-40 7 -48 22q-9 15 -9 35v121zM417 213l34 -29q16 -15 41 -42q52 -60 73 -90q6 3 11 9q6 7 13 15l9 9q-27 30 -75 78l-58 61l-18 19q-6 -9 -18 -19q-6 -4 -12 -11zM820 163q-12 -10 -38 -27
q27 -27 53 -64q22 -30 64 -91l30 -50q13 12 40 26l-80 111l-41 59q-12 16 -28 36v0z" />
  </g>

</svg>
