<?xml version="1.0" standalone="no"?>
<!DOCTYPE svg PUBLIC "-//W3C//DTD SVG 1.1//EN" "http://www.w3.org/Graphics/SVG/1.1/DTD/svg11.dtd" >
<svg xmlns="http://www.w3.org/2000/svg" xmlns:xlink="http://www.w3.org/1999/xlink" version="1.1" viewBox="-10 0 1010 1000">
   <path fill="currentColor"
d="M409 -10q84 2 107 12q-16 37 -16 72v63h171q88 0 137 -9q4 -1 5 -1v94q-1 0 -7 -1q-44 -7 -131 -7h-175v170h284q69 -1 141 -10v92q-58 -9 -139 -10h-572q-78 0 -149 10v-92q46 9 149 10h203v-303q0 -44 -8 -90zM504 487q38 46 93 158l-83 34q-23 -72 -85 -159zM770 530
q95 106 161 212l-82 56q-54 -108 -149 -222zM159 550q47 11 91 24q-17 36 -53 158q-23 76 -34 108q-45 -18 -94 -30q72 -113 90 -260zM294 570q102 1 105 12q-19 37 -18 83v72q0 44 14 56q11 12 59 11h86q75 1 95 -28q17 -20 16 -91q29 35 93 61q-23 75 -59 110
q-29 27 -131 27h-104h-16q-146 26 -132 -137v-73q0 -80 -8 -103z" />
</svg>
