<?xml version="1.0" standalone="no"?>
<!DOCTYPE svg PUBLIC "-//W3C//DTD SVG 1.1//EN" "http://www.w3.org/Graphics/SVG/1.1/DTD/svg11.dtd" >
<svg xmlns="http://www.w3.org/2000/svg" xmlns:xlink="http://www.w3.org/1999/xlink" version="1.1" viewBox="-10 0 1034 1024">
  <g transform="matrix(1 0 0 -1 0 820)">
   <path fill="currentColor"
d="M59 -87q19 -6 46 -19q7 13 41 80q1 7 6 14q13 30 29 61q24 51 28 54q7 13 23 31q-15 4 -54 24q-55 -172 -119 -245zM810 698l-60 -6l-560 1q-18 1 -29 2q-3 0 -8 3v-47q15 6 66 6h548v-153l-517 1q-15 3 -43 4q1 -33 5 -67l1 -129q1 -19 14 -36q15 -19 65 -25l132 -3
l257 3q39 1 73 5q57 4 88 37q33 33 58 127q-18 6 -54 25l1 -29q0 -33 -16 -70q-21 -42 -79 -54q-21 -3 -57 -6q-93 -4 -187 -5h-153l-64 6q-30 4 -35 17q-6 12 -7 36v128l512 -1l49 -4q-6 39 -5 63l1 122q0 21 4 49zM713 18q0 -21 -3 -37q-7 -36 -34 -55q-18 -12 -78 -17
l-159 -4q-51 3 -73 10q-30 12 -30 55v128q0 15 13 63h-56q0 -1 1 -5l4 -112l1 -100q1 -21 12 -36q18 -27 65 -34q27 -4 107 -5q67 0 128 5q60 6 79 16q42 19 63 82q3 13 14 40q-24 9 -54 26v-20zM449 180q37 -21 85 -65q37 -37 55 -68q12 18 34 33q-18 21 -47 50
q-33 33 -86 83q-21 -21 -41 -33zM954 -22q-42 54 -73 90l-91 100q-13 -15 -37 -32q117 -94 172 -207q18 18 41 34z" />
  </g>

</svg>
