<?xml version="1.0" standalone="no"?>
<!DOCTYPE svg PUBLIC "-//W3C//DTD SVG 1.1//EN" "http://www.w3.org/Graphics/SVG/1.1/DTD/svg11.dtd" >
<svg xmlns="http://www.w3.org/2000/svg" xmlns:xlink="http://www.w3.org/1999/xlink" version="1.1" viewBox="-10 0 1034 1024">
  <g transform="matrix(1 0 0 -1 0 820)">
   <path fill="currentColor"
d="M87 -74q10 -3 22 -14q36 57 86 166q18 42 29 55q9 12 34 24q-39 13 -63 28q-21 -69 -58 -143q-37 -72 -69 -109q9 -3 19 -7zM480 370l-355 1q-12 3 -28 3q-3 1 -5 1v-48q9 4 20 5q9 1 46 2l750 -1q21 0 38 -5l2 -1v48q-21 -4 -66 -5h-364v205h225l50 -4q6 0 15 -3v46
q-19 -4 -65 -5h-225v84q0 13 3 27q3 18 19 40h-65q0 -3 1 -7q3 -18 4 -60v-323zM338 197q4 -66 5 -101l1 -169q1 -31 13 -43q33 -30 150 -30q82 0 128 8q75 13 101 58q6 9 23 60q4 12 9 26q-22 12 -44 28q-9 -49 -9 -52q-7 -36 -21 -53q-15 -21 -62 -29q-57 -7 -115 -8
q-79 0 -115 14q-21 9 -21 54v171q0 12 3 26q3 19 18 40h-64zM476 242q46 -52 76 -90q24 -30 55 -78q7 6 13 12t19 17l-131 164q-3 -3 -32 -25zM868 126q-33 63 -43 77q-27 -18 -36 -22q21 -33 55 -92q67 -129 76 -148q13 15 35 27q0 3 -5 7q-3 6 -9 15z" />
  </g>

</svg>
