<?xml version="1.0" standalone="no"?>
<!DOCTYPE svg PUBLIC "-//W3C//DTD SVG 1.1//EN" "http://www.w3.org/Graphics/SVG/1.1/DTD/svg11.dtd" >
<svg xmlns="http://www.w3.org/2000/svg" xmlns:xlink="http://www.w3.org/1999/xlink" version="1.1" viewBox="-10 0 1010 1000">
   <path fill="currentColor"
d="M833 62q-8 45 -10 105q0 8 -1 31q-2 191 -30 225q-48 48 -169 54q0 -53 -38 -104q100 19 127 -15q21 -38 28 -225h-177q-3 101 -39 183q-85 153 -359 206q-18 -49 -64 -93q158 15 290 -75q69 -49 86 -214q1 -5 1 -7h-174q-102 1 -159 6v-79q120 6 161 6h367q96 -1 156 -8
q5 -1 4 4zM268 179l81 20q-29 86 -65 145q-24 -22 -84 -22q45 -61 68 -143zM538 485q35 57 73 150l-83 36q-37 -100 -72 -157zM819 528q77 106 121 209l-91 43q-48 -136 -113 -216zM302 558q103 7 99 16q0 8 -5 20q-6 16 -7 29q-2 29 -2 96v8q-5 48 30 55q58 10 131 9
q59 -2 77 -15q29 -21 40 -113q50 45 95 62q-24 94 -68 121q-41 19 -143 23q-116 2 -180 -13q-61 -14 -59 -80q-1 -16 -2 -69q-3 -109 -6 -149zM151 572l93 18q-36 128 -83 220q-42 -26 -86 -26q55 -99 76 -212z" />
</svg>
