<?xml version="1.0" standalone="no"?>
<!DOCTYPE svg PUBLIC "-//W3C//DTD SVG 1.1//EN" "http://www.w3.org/Graphics/SVG/1.1/DTD/svg11.dtd" >
<svg xmlns="http://www.w3.org/2000/svg" xmlns:xlink="http://www.w3.org/1999/xlink" version="1.1" viewBox="-10 0 1034 1024">
  <g transform="matrix(1 0 0 -1 0 820)">
   <path fill="currentColor"
d="M116 -62l18 37l56 112q12 24 21 38q1 3 22 21q-31 6 -61 21q-10 -52 -64 -156q-27 -48 -56 -71q36 -12 52 -24q6 12 12 22zM760 672l-7 -143q-7 -90 -17 -149q-6 -25 -15 -38q-19 -24 -72 -24q-22 0 -61 5q12 -28 15 -50q51 3 81 8q22 4 40 13q27 15 41 50q12 36 19 116
l10 136q1 33 13 117q-30 -1 -59 -5l-577 1q-12 0 -24 4v-46q33 3 66 5h274q-15 -106 -60 -193q-57 -105 -175 -168q-72 -36 -143 -38q21 -27 23 -29l14 -20q126 46 196 97q67 52 117 137q22 42 34 74q12 36 27 96q3 16 10 44h230zM278 602q-39 -111 -104 -159q18 -7 49 -25
q12 21 26 42q39 67 52 84q9 15 33 34q-28 9 -41 17q-7 4 -15 7zM355 119q0 18 14 65h-57l4 -30l1 -186q0 -43 38 -63q28 -12 103 -12l109 1q54 1 84 11q43 12 62 49q4 10 11 29q7 21 20 63q-25 10 -54 28q1 -22 2 -41q0 -34 -13 -61q-15 -30 -73 -39q-19 -1 -56 -3l-81 -1
q-54 0 -77 5q-36 9 -37 53v132zM425 241q67 -46 117 -145q13 13 22 20q6 3 16 11q-22 31 -93 120q-10 12 -21 25q-19 -16 -41 -31zM768 198l-21 -18q27 -24 63 -62l73 -92q19 -28 37 -58q13 16 25 25q4 3 13 11q-27 36 -87 109q-55 66 -87 100q-9 -7 -16 -15v0z" />
  </g>

</svg>
