<?xml version="1.0" standalone="no"?>
<!DOCTYPE svg PUBLIC "-//W3C//DTD SVG 1.1//EN" "http://www.w3.org/Graphics/SVG/1.1/DTD/svg11.dtd" >
<svg xmlns="http://www.w3.org/2000/svg" xmlns:xlink="http://www.w3.org/1999/xlink" version="1.1" viewBox="-10 0 1010 1000">
   <path fill="currentColor"
d="M192 8q101 3 106 14q1 3 -3 11q-17 27 -17 73v597q0 167 10 188h-101q9 -70 9 -190v-570q0 -40 -4 -123zM395 98q13 5 50 6q36 2 122 2h114q195 0 224 -10q-30 657 -54 706q-26 58 -180 77q-5 -53 -48 -109q44 8 87 5q40 -4 54 -17q21 34 46 -581h-163q-7 324 -60 444
q-48 132 -218 254q-31 -43 -81 -63q174 -92 217 -205q53 -111 62 -430q-87 0 -121 2q-36 1 -51 6v-87zM369 205q15 26 57 123q18 42 24 55l-81 36q-22 -104 -73 -190zM81 225q26 3 62 6q33 2 32 6q0 1 -3 6q-14 20 -17 47q-12 90 -34 189q-31 -13 -85 -14q38 -99 45 -240z
" />
</svg>
