<?xml version="1.0" standalone="no"?>
<!DOCTYPE svg PUBLIC "-//W3C//DTD SVG 1.1//EN" "http://www.w3.org/Graphics/SVG/1.1/DTD/svg11.dtd" >
<svg xmlns="http://www.w3.org/2000/svg" xmlns:xlink="http://www.w3.org/1999/xlink" version="1.1" viewBox="-10 0 1034 1024">
  <g transform="matrix(1 0 0 -1 0 820)">
   <path fill="currentColor"
d="M54 -66q28 -3 54 -21q94 183 104 195q3 7 12 16q7 12 24 24q-30 9 -59 24q-27 -78 -82 -173q-27 -42 -53 -65zM929 610q-3 0 -12 -3l-99 -2l-722 1q-9 0 -24 4v-46q54 4 80 5h91l-1 -230q-3 -12 -4 -45q30 3 60 5l469 -1q16 0 28 -4v46q-9 0 -12 -3l-202 -2h-300v234h586
q37 0 62 -5v46zM349 129q0 7 13 63h-56q0 -3 1 -5l4 -111l1 -128q1 -28 12 -44q16 -24 62 -32q19 -3 47 -4h138q66 0 102 7q43 10 67 36q24 28 49 98q-24 6 -59 25q3 -18 3 -28q0 -18 -7 -35q-9 -24 -21 -38q-25 -22 -113 -25l-102 -2q-99 0 -123 14q-18 12 -18 43v166z
M420 782q-12 -24 -26 -40q106 -57 163 -114q12 22 28 41zM446 204q63 -55 112 -136q24 19 37 33l-114 135q-7 -9 -18 -18q-6 -6 -10 -7zM764 150q109 -91 163 -184q15 16 26 28q6 3 11 9l-132 146l-35 35q0 -1 -25 -26q-4 -3 -8 -8v0z" />
  </g>

</svg>
