<?xml version="1.0" standalone="no"?>
<!DOCTYPE svg PUBLIC "-//W3C//DTD SVG 1.1//EN" "http://www.w3.org/Graphics/SVG/1.1/DTD/svg11.dtd" >
<svg xmlns="http://www.w3.org/2000/svg" xmlns:xlink="http://www.w3.org/1999/xlink" version="1.1" viewBox="-10 0 1010 1000">
   <path fill="currentColor"
d="M446 2q104 4 106 12q1 8 -6 21t-8 23q-1 11 -2 32v67h202q75 -1 163 -8v88q-12 -1 -45 -3q-94 -5 -118 -5h-204v138h143q15 0 86 -3q50 -2 66 -2v85q-54 -6 -148 -8h-362q-97 1 -142 6v-83q15 0 57 2q68 3 87 3h133v-138h-218q-70 0 -151 8v-86q9 0 31 2q83 4 120 4h216
q0 -120 -6 -155zM504 488q32 34 102 131l9 12l-69 42q-46 -77 -106 -145zM780 550q72 64 164 194l-77 52q-79 -130 -159 -204zM157 570q89 19 85 28q-1 5 -9 14q-9 9 -11 15q-29 75 -81 189q-27 -22 -76 -22q62 -111 92 -224zM302 574q91 -1 91 12q2 9 -5 22q-5 10 -5 17
v117v4q-4 43 30 50q40 9 115 9q72 -1 93 -11q36 -17 44 -93q32 39 81 49q-15 81 -65 110q-37 18 -125 21q-100 2 -183 -12q-66 -12 -65 -79v-6q0 -166 -6 -210z" />
</svg>
