<?xml version="1.0" standalone="no"?>
<!DOCTYPE svg PUBLIC "-//W3C//DTD SVG 1.1//EN" "http://www.w3.org/Graphics/SVG/1.1/DTD/svg11.dtd" >
<svg xmlns="http://www.w3.org/2000/svg" xmlns:xlink="http://www.w3.org/1999/xlink" version="1.1" viewBox="-10 0 1034 1024">
  <g transform="matrix(1 0 0 -1 0 820)">
   <path fill="currentColor"
d="M487 585l-386 2l-15 3v-46q31 3 65 5h336v-181l-272 1q-12 0 -32 5v-48q3 3 9 4l162 3h419q45 0 63 -7v48q-6 0 -9 -2q-1 0 -3 -1q-18 0 -51 -3h-247v181h339q42 0 62 -5v46q-3 0 -8 -2q-3 0 -4 -1q-28 0 -50 -2h-339q0 144 3 153q3 16 11 26h-59q3 -15 6 -48
q-1 -9 0 -18v-113zM439 234q51 -49 77 -83q39 -49 51 -71l10 -19q18 18 40 32l-62 78l-80 94q-16 -16 -36 -31zM68 -60q31 -9 50 -20q102 223 106 227q6 10 24 28q-33 9 -61 20q-24 -75 -57 -156q-30 -64 -62 -99zM372 115q0 15 14 64h-57q0 -3 1 -5l4 -115q0 -99 2 -124
q3 -30 29 -43q36 -18 150 -18q75 0 110 4q33 4 53 13q36 18 64 77l22 43q-30 15 -55 33q0 -33 -5 -54q-10 -54 -57 -69q-28 -9 -122 -10q-82 0 -114 5q-27 7 -32 17q-6 13 -7 40v142zM743 198q27 -24 101 -119q40 -55 66 -105q9 9 16 14q4 3 18 11q3 1 8 5l-79 108l-92 117
q-34 -27 -38 -31v0z" />
  </g>

</svg>
