<?xml version="1.0" standalone="no"?>
<!DOCTYPE svg PUBLIC "-//W3C//DTD SVG 1.1//EN" "http://www.w3.org/Graphics/SVG/1.1/DTD/svg11.dtd" >
<svg xmlns="http://www.w3.org/2000/svg" xmlns:xlink="http://www.w3.org/1999/xlink" version="1.1" viewBox="-10 0 1034 1024">
  <g transform="matrix(1 0 0 -1 0 820)">
   <path fill="currentColor"
d="M96 319q15 46 22 81q7 40 16 79q1 16 8 34q6 25 25 45q-6 0 -43 6q-9 0 -22 3q-3 -64 -14 -121q-19 -82 -35 -121q33 -3 43 -6zM261 -161q-3 7 -3 13q0 21 -3 53l-1 796q0 36 21 66h-64q3 -19 5 -66l1 -796q-1 -60 -6 -66h50zM312 589q-6 -4 -11 -8q-1 0 -14 -6
q36 -52 68 -146q1 3 8 7q3 3 6 3q7 6 17 9q3 3 7 6q-19 45 -35 77l-35 64q-6 -3 -11 -6zM665 268l-265 1q-24 3 -29 4v-47q7 3 26 4q6 1 40 2h228l1 -323q-1 -57 -6 -66h51q-3 7 -4 23q0 22 -2 43v323l225 -1q24 0 40 -5v47q-18 -4 -66 -5h-199v291l173 -1q24 0 40 -5v47
q-19 -4 -66 -5h-303l21 69q6 16 11 35q4 12 14 26q9 15 26 27q-27 3 -43 7q-12 3 -27 8q-7 -55 -30 -127q-6 -27 -30 -82q-24 -57 -39 -83q-34 -57 -69 -78q18 -4 41 -14q1 0 20 -7q43 76 93 183h128v-291z" />
  </g>

</svg>
