<?xml version="1.0" standalone="no"?>
<!DOCTYPE svg PUBLIC "-//W3C//DTD SVG 1.1//EN" "http://www.w3.org/Graphics/SVG/1.1/DTD/svg11.dtd" >
<svg xmlns="http://www.w3.org/2000/svg" xmlns:xlink="http://www.w3.org/1999/xlink" version="1.1" viewBox="-10 0 1010 1000">
   <path fill="currentColor"
d="M603 -10q78 -2 103 8q2 3 -5 13q-14 18 -14 35v139h138q49 0 88 -6q-2 14 -3 35q-1 18 -1 60v268q0 72 6 93h-90q4 -33 4 -65h-142v238q0 50 5 97h-85q4 -33 4 -101v-234h-129q0 30 6 75h-95q10 -56 10 -133v-139l-72 22q-20 -84 -65 -174l67 -24q51 86 70 153v-98
q0 -32 -5 -69q-1 -3 -1 -4q32 3 91 6h123v-79q0 -83 -8 -116zM482 252v250h129v-250h-129zM829 252h-142v250h142v-250zM177 -4q7 0 23 1q81 2 78 11q0 2 -4 9q-14 27 -14 59v651q0 129 4 172h-89q6 -38 6 -176v-608q0 -59 -4 -119zM62 207q5 0 14 1q77 5 71 9q0 4 -4 12
q-9 15 -10 31q-9 102 -28 217q-41 -11 -85 -14q38 -88 42 -256z" />
</svg>
