<?xml version="1.0" standalone="no"?>
<!DOCTYPE svg PUBLIC "-//W3C//DTD SVG 1.1//EN" "http://www.w3.org/Graphics/SVG/1.1/DTD/svg11.dtd" >
<svg xmlns="http://www.w3.org/2000/svg" xmlns:xlink="http://www.w3.org/1999/xlink" version="1.1" viewBox="-10 0 1010 1000">
   <path fill="currentColor"
d="M589 -12q84 -2 99 6q4 2 -2 11q-17 26 -17 55v99h77q94 0 127 -2q41 -2 58 -8v88q-16 -5 -54 -6q-37 -2 -127 -2h-81v152q90 0 126 -1q43 -1 64 -5q-71 229 -176 346q104 70 275 75q-52 46 -71 105q-186 -55 -268 -127q-103 73 -260 121q-26 -46 -71 -79q149 -17 275 -99
q-76 -97 -125 -232l82 -22q14 99 105 206q77 -76 121 -220h-159q-158 -1 -190 8v-84q31 8 196 8v-152h-75h-40q-81 -2 -91 6v-84q10 1 28 3q46 5 103 5h75v-51q1 -108 -4 -120zM183 -8q100 4 103 14q1 3 -4 10q-14 20 -14 52v645q0 173 8 192h-99q10 -31 10 -186v-609
q0 -44 -3 -101q-1 -14 -1 -17zM347 191q42 69 86 157l-76 29q-25 -91 -79 -158zM71 201q16 2 41 5q46 4 49 7q1 1 -2 5q-13 19 -16 54q-8 108 -32 211q-34 -12 -87 -12q50 -124 47 -270z" />
</svg>
