<?xml version="1.0" standalone="no"?>
<!DOCTYPE svg PUBLIC "-//W3C//DTD SVG 1.1//EN" "http://www.w3.org/Graphics/SVG/1.1/DTD/svg11.dtd" >
<svg xmlns="http://www.w3.org/2000/svg" xmlns:xlink="http://www.w3.org/1999/xlink" version="1.1" viewBox="-10 0 1034 1024">
  <g transform="matrix(1 0 0 -1 0 820)">
   <path fill="currentColor"
d="M626 426q3 24 7 48h53v-517q0 -24 9 -46q7 -13 23 -21q25 -10 99 -11q69 0 99 14q31 16 51 69q6 21 17 62q-22 9 -51 30q3 -24 3 -37q0 -49 -23 -77q-21 -24 -85 -24q-60 0 -72 4q-31 6 -32 43v511h171q42 0 63 -5v46q-3 0 -12 -3l-223 -2h-86l10 168q3 57 19 96
q-25 0 -61 4v-161q-4 -42 -7 -107q-147 0 -168 3q-3 0 -10 2v-46q51 4 79 5h94q-12 -114 -19 -150q-9 -48 -24 -98q-39 -132 -139 -245q-51 -54 -115 -78q28 -21 46 -40q100 87 154 161q96 138 123 347q3 28 7 55zM126 457q7 48 28 79q-24 3 -58 12q-3 -61 -19 -140
q-12 -55 -30 -95q21 0 47 -7q12 58 20 94zM259 -171q-1 3 -1 5q-1 3 -4 46l1 844q0 18 4 30q1 10 8 18h-56q1 -33 5 -66l-1 -841q-3 -21 -4 -36h48zM288 539q63 -52 108 -151q18 13 39 24q-51 78 -105 153q-36 -24 -42 -26zM729 673q63 -37 124 -115q16 24 32 37
q-13 16 -51 49q-36 31 -75 64q-10 -15 -30 -35v0z" />
  </g>

</svg>
