<?xml version="1.0" standalone="no"?>
<!DOCTYPE svg PUBLIC "-//W3C//DTD SVG 1.1//EN" "http://www.w3.org/Graphics/SVG/1.1/DTD/svg11.dtd" >
<svg xmlns="http://www.w3.org/2000/svg" xmlns:xlink="http://www.w3.org/1999/xlink" version="1.1" viewBox="-10 0 1034 1024">
  <g transform="matrix(1 0 0 -1 0 820)">
   <path fill="currentColor"
d="M571 729q-9 -40 -19 -70q-9 -25 -21 -54q-43 -109 -99 -198q-43 -64 -82 -92q27 -6 54 -19q52 73 95 151q42 81 89 196q15 39 38 70q-27 4 -55 16zM447 -129q22 10 70 20q147 24 256 38l22 3q21 1 41 5q16 -39 28 -78q22 15 46 27l-129 264l-14 26q-28 -15 -49 -22
q39 -48 103 -180q-66 -12 -128 -20q-33 -4 -78 -10l-119 -12q61 147 117 305q22 69 35 99q6 13 14 28q7 13 18 32q-30 6 -59 20q-12 -66 -31 -130l-67 -195q-39 -97 -54 -129q-3 -1 -4 -6q-13 -19 -44 -39zM756 751q-22 -4 -36 -5q-10 0 -20 1q33 -168 120 -307
q18 -30 37 -56l67 -81q19 18 49 37q-30 15 -42 26q-12 10 -28 28q-15 18 -30 38q-51 69 -86 161q-33 79 -34 130q0 9 3 28zM42 316q24 -3 46 -11l47 156q13 52 37 81q-22 6 -56 19q-9 -63 -33 -145q-21 -63 -41 -100zM249 -170q-1 3 -1 5q-1 3 -2 13q-1 3 -3 43v815
q0 13 3 29q1 22 11 38h-57q1 -21 5 -44v-863q-3 -27 -4 -31q0 -3 -1 -5h49zM277 551q48 -66 76 -154q19 12 42 22l-30 64q-27 58 -46 89q-16 -9 -42 -21v0z" />
  </g>

</svg>
