<?xml version="1.0" standalone="no"?>
<!DOCTYPE svg PUBLIC "-//W3C//DTD SVG 1.1//EN" "http://www.w3.org/Graphics/SVG/1.1/DTD/svg11.dtd" >
<svg xmlns="http://www.w3.org/2000/svg" xmlns:xlink="http://www.w3.org/1999/xlink" version="1.1" viewBox="-10 0 1034 1024">
  <g transform="matrix(1 0 0 -1 0 820)">
   <path fill="currentColor"
d="M971 437q-34 0 -93 21q-85 31 -159 81q-54 33 -123 98l-78 87q12 9 25 18q-15 6 -26 13l-28 19q-21 -43 -47 -80q-30 -37 -75 -86q-114 -117 -224 -177q-52 -24 -100 -34q24 -24 37 -48q57 31 60 33q33 19 77 50q42 28 67 48q48 39 109 102q54 55 99 114q42 -49 72 -82
l72 -62l72 -52q81 -55 236 -114q15 28 41 51h-14zM316 366q-36 0 -52 3l-13 3v-47l65 6h354q-67 -88 -124 -137q18 -3 47 -19l119 146l39 51q-16 -1 -29 -2q-19 -3 -32 -4h-374zM440 504q84 -28 137 -95q9 19 28 39q-24 18 -63 47q-39 27 -73 47q-10 -19 -29 -38zM88 -80
q27 -7 51 -20l27 56l48 107q12 27 37 53q-12 3 -62 19q-10 -57 -34 -107q-22 -45 -38 -72q-12 -18 -29 -36zM372 80q0 13 2 29q1 19 11 38h-57q3 -15 6 -48q-1 -9 0 -19l1 -175q3 -19 16 -33q21 -19 71 -22l118 -3q88 0 129 9q42 9 63 45q6 9 9 18q6 15 17 52q4 16 7 20
q-18 6 -24 9q-10 6 -29 19l1 -36q0 -21 -6 -42q-7 -30 -30 -44q-25 -15 -150 -15q-84 0 -120 6q-22 6 -29 19q-6 13 -6 36v137zM463 147q28 -19 65 -64q31 -40 51 -81q7 6 13 13q7 6 23 16q-15 24 -75 106q-12 16 -33 42q-22 -21 -44 -32zM758 100q42 -22 93 -71
q49 -46 71 -83q13 21 33 37q-33 36 -81 83l-78 73q-18 -22 -38 -39v0z" />
  </g>

</svg>
