<?xml version="1.0" standalone="no"?>
<!DOCTYPE svg PUBLIC "-//W3C//DTD SVG 1.1//EN" "http://www.w3.org/Graphics/SVG/1.1/DTD/svg11.dtd" >
<svg xmlns="http://www.w3.org/2000/svg" xmlns:xlink="http://www.w3.org/1999/xlink" version="1.1" viewBox="-10 0 1010 1000">
   <path fill="currentColor"
d="M508 -12q110 11 111 20q0 2 -5 7q-29 32 -54 106h252q77 0 125 -6v80q-54 -6 -127 -6h-274q-56 116 -101 188q-36 -21 -82 -27q126 -150 155 -362zM171 -2q21 2 55 4q54 4 50 8q0 1 -3 5q-23 33 -23 114v635q1 84 8 145h-85q7 -45 6 -128v-19v-629q0 -78 -8 -135zM75 223
q84 4 88 12q0 1 -1 5q-26 53 -49 239l-85 -2q40 -102 47 -254zM855 262v76q-48 -6 -103 -6h-139q-32 0 -50 1q-22 1 -51 5v-76q45 6 99 6h141q60 0 103 -6zM812 409q-32 228 -6 328q19 72 44 59q24 -18 35 -109q29 42 75 63q-32 93 -43 113q-29 56 -82 40q-51 -18 -89 -97
q-46 -96 -28 -325h-214q-65 0 -109 6v-78q56 8 107 8h198q57 0 112 -8zM321 320q-21 -68 -59 -125l65 -30q22 33 66 121z" />
</svg>
