<?xml version="1.0" standalone="no"?>
<!DOCTYPE svg PUBLIC "-//W3C//DTD SVG 1.1//EN" "http://www.w3.org/Graphics/SVG/1.1/DTD/svg11.dtd" >
<svg xmlns="http://www.w3.org/2000/svg" xmlns:xlink="http://www.w3.org/1999/xlink" version="1.1" viewBox="-10 0 1034 1024">
  <g transform="matrix(1 0 0 -1 0 820)">
   <path fill="currentColor"
d="M444 598q-39 -114 -147 -209q-93 -78 -166 -93q27 -24 46 -43q36 21 83 57q45 33 68 55q57 54 90 102q36 51 72 131h143q-34 -171 -163 -292q-69 -63 -129 -78q33 -18 53 -38q58 45 95 79q33 33 70 79q78 94 118 250h140l-27 -214q-1 -1 -1 -4q-4 -43 -14 -70
q-9 -27 -32 -40q-24 -12 -69 -12q-18 0 -46 4q12 -30 18 -51l34 3q72 7 106 38q15 16 23 38q6 21 18 87l30 192q3 21 13 70q-15 0 -65 -5h-488q34 45 48 58q24 30 47 41q-31 15 -57 34q-33 -81 -123 -172q-84 -88 -144 -108q24 -18 44 -39q49 42 81 72l78 78h153zM185 49
l7 16q13 31 38 61q-16 3 -29 6q-12 3 -33 14q-4 -27 -12 -52q-7 -27 -23 -66q-37 -90 -68 -125q30 -6 51 -20l28 63q19 52 41 103zM358 83q0 12 2 28q1 21 12 38h-58q3 -15 6 -48q-1 -9 0 -18l1 -143q3 -19 18 -39q10 -15 35 -23q12 -4 42 -7l156 -2h19q30 1 52 5
q54 7 78 40q9 18 27 67q3 13 8 26q-25 9 -51 27q1 -19 2 -36q0 -42 -20 -62q-21 -24 -54 -28q-42 -3 -119 -4q-33 0 -72 2q-49 3 -64 14q-19 13 -20 50v113zM463 151q40 -36 69 -64q25 -28 56 -67q1 0 3 3l5 5q3 0 4 4q9 9 21 20l-72 76q-30 31 -55 55q-15 -18 -31 -32z
M759 141q21 -21 36 -38l50 -60q24 -28 40 -51q15 -22 33 -52q12 13 36 33q-51 67 -136 170q-12 15 -26 30q-16 -18 -33 -32v0z" />
  </g>

</svg>
