<?xml version="1.0" standalone="no"?>
<!DOCTYPE svg PUBLIC "-//W3C//DTD SVG 1.1//EN" "http://www.w3.org/Graphics/SVG/1.1/DTD/svg11.dtd" >
<svg xmlns="http://www.w3.org/2000/svg" xmlns:xlink="http://www.w3.org/1999/xlink" version="1.1" viewBox="-10 0 1034 1024">
  <g transform="matrix(1 0 0 -1 0 820)">
   <path fill="currentColor"
d="M72 301q18 0 26 -4l25 87q7 37 17 73q3 18 10 32q7 24 26 42q-7 3 -24 5q-21 3 -40 10q-3 -37 -26 -142q-13 -49 -36 -102q10 0 22 -1zM265 -163q0 6 -2 13q0 21 -3 53l1 817q0 12 5 20q3 15 15 29h-64q4 -22 5 -66l-3 -857l-3 -9h49zM418 411q3 1 12 8l-47 75
q-19 28 -49 76q-18 -12 -39 -22q34 -48 55 -80l43 -74q3 1 12 8q6 4 13 9zM495 382l-2 -115q-4 -64 -13 -118q-21 -127 -79 -212q-28 -40 -76 -72q39 -12 63 -27q27 31 62 97q15 27 27 57q13 33 19 53q19 61 29 143q9 81 9 198h214v-481q0 -28 -3 -53q0 -6 -3 -14h49
q-1 12 -3 26q0 21 -2 41v482q165 0 178 -3q1 0 6 -2v46q-18 -4 -65 -5h-371v242q69 3 124 9q49 3 88 10q54 6 108 15l71 7q-21 27 -34 51q-24 -9 -48 -16q-25 -6 -62 -13l-130 -18q-64 -6 -115 -7q-18 0 -47 2q1 -21 3 -35q3 -24 3 -34v-254z" />
  </g>

</svg>
