<?xml version="1.0" standalone="no"?>
<!DOCTYPE svg PUBLIC "-//W3C//DTD SVG 1.1//EN" "http://www.w3.org/Graphics/SVG/1.1/DTD/svg11.dtd" >
<svg xmlns="http://www.w3.org/2000/svg" xmlns:xlink="http://www.w3.org/1999/xlink" version="1.1" viewBox="-10 0 1010 1000">
   <path fill="currentColor"
d="M464 4q115 3 115 14q1 2 -5 9q-24 29 -24 73v269h281q75 -1 107 -4v86q-35 -6 -107 -6h-125q42 240 258 319q-41 31 -81 88q-203 -136 -250 -407h-83v315q67 -49 111 -97q1 42 27 87q-8 6 -22 16q-148 104 -174 141q-19 -34 -61 -77q44 -31 43 -93v-290h-41q-45 0 -72 6
v-88l76 6h37v-261q0 -75 -10 -106zM776 26q116 54 103 60q-3 6 -13 12q-24 14 -47 47q-9 14 -34 53q-56 89 -98 152q-29 -26 -84 -42q113 -112 173 -282zM185 4q13 1 35 2q72 3 66 10q0 2 -4 9q-14 27 -14 59v651q0 129 4 172h-89q5 -28 5 -176v-608q0 -59 -3 -119zM347 177
q51 86 78 159l-78 27q-17 -73 -65 -154zM65 215q70 1 86 10q0 4 -4 12q-8 15 -10 31q-2 17 -7 55q-13 115 -21 162q-41 -11 -85 -14q39 -92 41 -256z" />
</svg>
