<?xml version="1.0" standalone="no"?>
<!DOCTYPE svg PUBLIC "-//W3C//DTD SVG 1.1//EN" "http://www.w3.org/Graphics/SVG/1.1/DTD/svg11.dtd" >
<svg xmlns="http://www.w3.org/2000/svg" xmlns:xlink="http://www.w3.org/1999/xlink" version="1.1" viewBox="-10 0 1010 1000">
   <path fill="currentColor"
d="M938 44v83q-18 -2 -42 -3q-11 -1 -26 -1h-37h-357v645h337h69q22 0 34 -1q27 0 34 -3v82q-51 -4 -133 -4h-315q-78 0 -109 4q8 -38 8 -92v-595q0 -74 -6 -115q51 6 117 6h321q82 0 105 -6zM772 173q87 33 95 42q0 4 -11 14q-17 15 -23 29q-37 98 -81 191q28 39 79 106
q49 66 74 100l-88 46q-39 -87 -105 -183q-85 128 -143 199q-21 -34 -75 -54q100 -78 171 -202q-50 -77 -171 -211l68 -39q38 47 107 136l33 42q49 -122 70 -216zM317 197q44 80 74 166l-78 28q-22 -103 -63 -172zM161 -4q102 0 101 12q0 2 -4 9q-14 27 -14 59v651
q0 129 4 172h-89q6 -38 6 -176v-608q0 -59 -4 -119zM50 203q24 6 66 8q19 0 19 2q0 4 -4 12q-8 15 -10 31q-2 17 -7 55q-13 115 -21 162q-41 -11 -85 -14q40 -93 42 -256z" />
</svg>
