<?xml version="1.0" standalone="no"?>
<!DOCTYPE svg PUBLIC "-//W3C//DTD SVG 1.1//EN" "http://www.w3.org/Graphics/SVG/1.1/DTD/svg11.dtd" >
<svg xmlns="http://www.w3.org/2000/svg" xmlns:xlink="http://www.w3.org/1999/xlink" version="1.1" viewBox="-10 0 1034 1024">
  <g transform="matrix(1 0 0 -1 0 820)">
   <path fill="currentColor"
d="M359 585q-21 -10 -41 -18q46 -72 61 -138q18 10 42 19l-34 80q-10 24 -28 57zM547 358v352q0 12 2 29q1 18 11 37h-56q0 -7 3 -16q0 -24 2 -50v-352q-117 0 -137 3q-3 0 -9 2v-47q12 6 52 6h94v-385q0 -12 -3 -26q-3 -12 -14 -28l30 -42q27 30 61 53l142 91q-4 27 -7 51
l-68 -51q-1 0 -47 -32q-3 0 -4 -2q-6 -1 -52 -35v406h123q30 -130 71 -197q63 -114 196 -230q21 21 47 40q-49 21 -94 61q-84 79 -133 180q-15 31 -27 74q-13 42 -17 72h174q43 0 64 -6v47q-9 0 -13 -3l-221 -2h-170zM611 465q28 -15 46 -33l87 89q33 34 83 96q36 42 76 69
q-30 19 -52 38q-27 -42 -54 -78t-65 -77q-40 -45 -68 -69q-25 -21 -53 -35zM44 322q25 -4 48 -14l54 161q15 49 41 84q-27 7 -57 23q-13 -72 -40 -152q-27 -69 -46 -102zM274 -155q-3 6 -5 49l1 832q0 15 4 28q1 10 8 20h-56q1 -33 5 -66l-1 -828q-3 -21 -4 -35h48z" />
  </g>

</svg>
