<?xml version="1.0" standalone="no"?>
<!DOCTYPE svg PUBLIC "-//W3C//DTD SVG 1.1//EN" "http://www.w3.org/Graphics/SVG/1.1/DTD/svg11.dtd" >
<svg xmlns="http://www.w3.org/2000/svg" xmlns:xlink="http://www.w3.org/1999/xlink" version="1.1" viewBox="-10 0 1010 1000">
   <path fill="currentColor"
d="M248 6q90 10 97 22q0 4 -9 12q-13 14 -19 26q-2 5 -8 18q-15 35 -23 53q93 0 204 -12q-18 124 -85 258q18 9 84 45q11 6 17 9l-52 73q-2 -2 -8 -6q-59 -48 -87 -57q-72 72 -244 139q-6 -15 -40 -56q-12 -14 -17 -20q140 -21 238 -97q-56 -30 -159 -71q13 -27 20 -43
q20 -40 31 -76q3 -8 6 -18q-67 0 -93 2q-29 2 -41 8v-84q8 4 41 5q16 1 42 1h71q25 -77 34 -131zM522 76q18 5 58 7q18 0 47 1h81q171 0 201 -8q-58 197 -145 319q91 48 188 70q-48 53 -57 83q-105 -48 -179 -99q-58 53 -158 103q-25 -40 -70 -65q115 -34 171 -90
q-55 -67 -113 -188l81 -12q30 90 79 151q54 -72 94 -193h-117q-74 0 -107 2q-38 1 -54 6v-87zM399 203h-135l-38 107l117 48q33 -56 56 -155zM526 558q24 37 59 131l-79 28q-23 -92 -52 -139zM800 588q63 69 140 210l-81 44q-44 -111 -137 -221zM310 617q79 5 97 14
q0 4 -6 13q-14 25 -14 47v71q-3 56 50 54h130q51 1 68 -23q18 -23 22 -96q42 46 91 57q-27 89 -57 111q-26 26 -102 24h-160q-69 1 -92 -19q-26 -18 -25 -72v-83zM155 621q65 11 89 22q0 2 -5 9q-13 17 -21 39q-4 10 -16 48q-26 79 -39 113q-17 -6 -68 -16q-15 -3 -22 -4
q55 -68 82 -211z" />
</svg>
