<?xml version="1.0" standalone="no"?>
<!DOCTYPE svg PUBLIC "-//W3C//DTD SVG 1.1//EN" "http://www.w3.org/Graphics/SVG/1.1/DTD/svg11.dtd" >
<svg xmlns="http://www.w3.org/2000/svg" xmlns:xlink="http://www.w3.org/1999/xlink" version="1.1" viewBox="-10 0 1034 1024">
  <g transform="matrix(1 0 0 -1 0 820)">
   <path fill="currentColor"
d="M906 233q42 0 63 -5v46q-6 0 -8 -1l-55 -4h-47l1 261q1 27 5 53q-30 -1 -59 -5h-141v111q0 31 13 76q-31 0 -56 5l5 -106v-86h-131q-9 0 -31 3q-13 0 -32 2q1 -33 5 -67v-247h-43q-43 0 -65 5v-46q12 3 52 4l225 1q-39 -133 -173 -246q-85 -67 -149 -83q27 -21 45 -44
q66 48 112 85q39 33 76 69q88 91 128 212q69 -141 108 -190q72 -93 178 -173q9 13 15 18q7 12 32 27q-60 6 -134 81q-91 90 -159 244h220zM627 542l-5 -204l-7 -69h-140v273h152zM653 269l7 94l5 179h157v-273h-169zM144 458q7 31 17 46q7 15 21 32q-24 6 -35 10
q-12 4 -22 8q-13 -66 -35 -140q-21 -61 -43 -95q12 -1 48 -11zM249 -161q-1 3 -1 5q-1 3 -2 12q-1 3 -3 43v804q0 12 3 28q1 22 11 38h-57q1 -21 5 -43v-852q-3 -27 -4 -31q0 -1 -1 -4h49zM272 562q57 -60 90 -159q18 12 42 20q-39 78 -87 162q-9 -7 -19 -12q-7 -4 -26 -11
v0z" />
  </g>

</svg>
