<?xml version="1.0" standalone="no"?>
<!DOCTYPE svg PUBLIC "-//W3C//DTD SVG 1.1//EN" "http://www.w3.org/Graphics/SVG/1.1/DTD/svg11.dtd" >
<svg xmlns="http://www.w3.org/2000/svg" xmlns:xlink="http://www.w3.org/1999/xlink" version="1.1" viewBox="-10 0 1034 1024">
  <g transform="matrix(1 0 0 -1 0 820)">
   <path fill="currentColor"
d="M357 185l102 117l-1 -290q-3 -19 -4 -29h48q-3 21 -5 43v318h167l-1 -467q-3 -21 -4 -34h48q-1 3 -1 6q-3 31 -4 54v441h166v-261q0 -24 -17 -32q-15 -6 -43 -6q-19 0 -47 5q10 -25 18 -49q40 3 55 6q36 7 55 23q16 16 17 56l1 253q0 18 4 46l-101 -5h-108v43q0 16 13 63
h-56q4 -99 5 -103v-3h-154q27 48 48 91q21 42 45 101h299q42 0 62 -5v46q-9 0 -12 -3l-88 -2h-249l9 30l28 79q9 21 26 43q-33 3 -60 13q-1 -28 -44 -165q-183 0 -204 3q-3 1 -9 2v-46q54 4 75 5h125q-51 -130 -142 -256q-70 -93 -135 -120q33 -16 52 -36q10 13 21 25z
M49 296q18 0 49 -7l33 164q9 54 29 86q-15 1 -60 13q-1 -36 -6 -72q-4 -36 -14 -80q-12 -63 -31 -104zM255 -167q-1 3 -1 6q-1 3 -4 55l1 825q0 15 4 28q1 10 8 20h-57q3 -15 6 -48q-1 -7 0 -18l-1 -832l-4 -36h48zM280 537q57 -52 95 -147q16 10 41 19q-36 69 -93 150
q-15 -10 -29 -16q-6 -3 -14 -6v0z" />
  </g>

</svg>
