<?xml version="1.0" standalone="no"?>
<!DOCTYPE svg PUBLIC "-//W3C//DTD SVG 1.1//EN" "http://www.w3.org/Graphics/SVG/1.1/DTD/svg11.dtd" >
<svg xmlns="http://www.w3.org/2000/svg" xmlns:xlink="http://www.w3.org/1999/xlink" version="1.1" viewBox="-10 0 1034 1024">
  <g transform="matrix(1 0 0 -1 0 820)">
   <path fill="currentColor"
d="M284 575q43 -57 66 -130q18 15 41 25q-48 97 -57 112q-4 7 -9 14q-18 -12 -41 -21zM711 569q4 -6 36 -38l54 -52q72 -63 146 -112q16 24 44 44q-76 16 -184 115q-69 69 -77 80q-31 37 -80 100q15 24 40 45q-27 10 -57 25q-42 -138 -171 -275q-60 -63 -98 -91
q-37 -27 -74 -36q30 -27 44 -45l105 91q28 27 68 71q33 36 60 76q31 43 63 98zM456 251q-39 0 -56 3q-3 0 -10 2v-47q1 0 38 5l388 1q-37 -57 -75 -106q-39 -51 -104 -124q-66 54 -92 71l-36 28q-4 4 -8 7q-15 -19 -37 -39q69 -33 149 -99q58 -46 86 -75q28 -27 49 -58
q18 24 34 38q-1 1 -82 74l-30 28q7 13 88 106q3 6 100 135q18 24 38 55q-60 -4 -65 -5h-375zM109 550q-12 -67 -35 -141q-21 -60 -43 -95q25 -3 48 -11l50 150q13 51 38 78q-24 4 -35 10q-12 4 -23 9zM244 -175q-1 3 -1 5q-1 3 -4 46l1 840q0 16 4 27q1 10 9 21h-57
q3 -9 3 -16q1 -28 2 -50v-812q0 -21 -3 -52q0 -4 -2 -9h48zM588 437q75 -84 95 -136q15 15 41 33q-51 69 -100 129q-12 -9 -21 -15q-7 -4 -15 -11v0z" />
  </g>

</svg>
