<?xml version="1.0" standalone="no"?>
<!DOCTYPE svg PUBLIC "-//W3C//DTD SVG 1.1//EN" "http://www.w3.org/Graphics/SVG/1.1/DTD/svg11.dtd" >
<svg xmlns="http://www.w3.org/2000/svg" xmlns:xlink="http://www.w3.org/1999/xlink" version="1.1" viewBox="-10 0 1010 1000">
   <path fill="currentColor"
d="M887 50q-5 15 -4 67v106q0 61 6 103q-20 -5 -72 -4h-297v47q7 296 -137 491q-38 -29 -91 -44q109 -120 128 -226q26 -95 24 -441q0 -45 -7 -99q45 4 93 4h276h26q40 1 55 -4zM520 121v133h290v-133h-290zM583 352q86 2 102 11q0 1 -3 6q-15 28 -15 70v113
q117 -74 188 -147q74 57 76 82q-1 1 -5 1q-23 4 -53 20q-22 13 -81 48q-83 50 -125 75v98q-2 42 15 48q11 10 84 9q64 2 79 -20q19 -19 26 -101q36 39 91 54q-22 106 -52 122q-26 24 -144 22q-118 1 -148 -16q-33 -14 -31 -73v-313q0 -55 -4 -109zM196 -8q104 0 102 12
q0 2 -4 9q-14 27 -14 59v651q0 129 4 172h-90q6 -38 6 -176v-607q0 -60 -4 -120zM355 177q55 83 78 159l-78 27q-16 -68 -65 -154zM69 195q73 1 86 10q0 4 -4 12q-8 15 -10 31q-2 17 -7 55q-13 115 -21 162q-41 -11 -85 -14q39 -92 41 -256z" />
</svg>
