<?xml version="1.0" standalone="no"?>
<!DOCTYPE svg PUBLIC "-//W3C//DTD SVG 1.1//EN" "http://www.w3.org/Graphics/SVG/1.1/DTD/svg11.dtd" >
<svg xmlns="http://www.w3.org/2000/svg" xmlns:xlink="http://www.w3.org/1999/xlink" version="1.1" viewBox="-10 0 1034 1024">
  <g transform="matrix(1 0 0 -1 0 820)">
   <path fill="currentColor"
d="M124 474q7 43 27 70q-33 1 -63 10q-4 -172 -45 -238q21 0 51 -3q18 93 22 115q3 24 8 46zM237 -162q0 6 -2 13q0 21 -3 53l1 811q0 10 6 23q4 13 15 26h-65q4 -24 5 -66v-794q0 -25 -3 -53q0 -3 -3 -13h49zM384 401q-30 73 -69 158q-16 -10 -39 -19q16 -30 37 -74
q19 -45 33 -84q18 10 38 19zM628 237l-269 1q-12 1 -25 3q-3 1 -5 1v-47q4 3 52 6h247v-295q0 -27 -3 -53q0 -4 -3 -13h49q-1 9 -5 63v298h218l66 -2q9 -1 14 -4v47q-18 -4 -66 -5h-232v432l188 -1q22 0 39 -5v47q-19 -4 -65 -5q-400 0 -419 3q-4 0 -9 1q-3 1 -5 1v-47
q4 3 53 6h180v-432zM455 537q-15 -9 -23 -13q-10 -4 -13 -7l50 -101q7 -19 23 -50q3 -10 5 -13q4 -10 13 -35q13 12 37 18q-7 24 -29 66q-9 22 -21 47zM753 339q3 0 29 -13q15 27 36 72q33 72 47 91q10 16 38 32l-35 13q-16 6 -30 15q-24 -99 -94 -206q4 -1 9 -4v0z" />
  </g>

</svg>
