<?xml version="1.0" standalone="no"?>
<!DOCTYPE svg PUBLIC "-//W3C//DTD SVG 1.1//EN" "http://www.w3.org/Graphics/SVG/1.1/DTD/svg11.dtd" >
<svg xmlns="http://www.w3.org/2000/svg" xmlns:xlink="http://www.w3.org/1999/xlink" version="1.1" viewBox="-10 0 1034 1024">
  <g transform="matrix(1 0 0 -1 0 820)">
   <path fill="currentColor"
d="M661 604l-37 -53q-15 -21 -43 -55l-306 1q-24 3 -28 4v-46q9 1 65 5h487v-110l-517 1l-24 4v-46q34 3 70 5h471v-111l-541 1q-12 0 -32 5v-47q30 4 37 5l519 1l63 -6l-6 60l1 234q0 10 3 22q0 9 2 23q-99 -4 -103 -5h-112l116 149q-33 -1 -67 -5h-304q34 48 78 78
q-28 12 -55 34q-60 -109 -160 -205q-97 -91 -149 -108q27 -18 38 -29l8 -8q55 46 103 92t109 110h314zM32 -98q28 -12 46 -30l114 158q18 27 48 49q-15 6 -26 13q-10 6 -30 19q-13 -33 -59 -104q-30 -42 -51 -68q-21 -21 -42 -37zM718 -38q0 -30 -13 -59q-16 -25 -51 -34
q-21 -4 -49 -8l-109 -1q-24 0 -63 5q-27 3 -36 10q-10 12 -11 46v101q0 15 14 65h-61l4 -20q1 -31 2 -88l1 -88q3 -27 16 -41q19 -18 69 -23q27 -3 139 -3q46 1 81 5q55 7 82 42q12 18 29 68q3 12 8 26q-24 9 -53 27q0 -15 1 -30zM458 105q36 -21 75 -49q43 -33 73 -71
q12 21 32 42q-54 48 -151 116q-18 -27 -29 -38zM964 -78q16 16 21 19l-93 91l-88 78q-21 -22 -39 -36q72 -45 103 -76q37 -36 52 -53q9 -9 29 -39q7 9 15 16v0z" />
  </g>

</svg>
