<?xml version="1.0" standalone="no"?>
<!DOCTYPE svg PUBLIC "-//W3C//DTD SVG 1.1//EN" "http://www.w3.org/Graphics/SVG/1.1/DTD/svg11.dtd" >
<svg xmlns="http://www.w3.org/2000/svg" xmlns:xlink="http://www.w3.org/1999/xlink" version="1.1" viewBox="-10 0 1034 1024">
  <g transform="matrix(1 0 0 -1 0 820)">
   <path fill="currentColor"
d="M111 390q33 123 37 132q6 15 25 32q-40 9 -65 21l-3 -19q-6 -48 -12 -79q-6 -30 -18 -69q-18 -57 -37 -73q39 -6 41 -7l12 -3q0 4 20 65zM251 -162q-3 15 -5 66l1 812q0 9 6 25q4 13 14 25h-65q6 -21 6 -66l-1 -833q-4 -24 -6 -29h50zM828 427q30 -1 60 -5q-4 54 -5 77
l1 166l4 46q-60 -4 -84 -5l-304 1q-19 3 -48 4q1 -31 5 -65l-2 -317q-9 -120 -10 -134l-3 -28q-15 -105 -81 -199q-31 -45 -89 -84q27 -12 51 -29q126 127 155 282q7 45 12 101q3 33 3 77l2 112h333zM845 670v-207h-350v207h350zM399 429l-60 153q-21 -12 -42 -20
q25 -51 37 -80q21 -54 29 -89q1 0 3 2q6 0 29 13q3 1 9 6q-3 7 -5 15zM653 191v93q0 12 4 28q3 21 18 39h-65q0 -3 2 -7q3 -18 4 -60v-335q0 -75 72 -87q36 -3 96 -4q73 0 110 12q40 15 63 71q7 18 16 53q-24 9 -44 22q-6 -52 -16 -76q-13 -25 -37 -36q-24 -7 -85 -8
q-70 0 -97 4q-25 4 -34 20q-6 13 -7 53v180q67 24 139 55q12 6 92 40q27 9 51 10q-21 25 -35 51q-12 -9 -65 -39q-46 -24 -94 -44q-45 -16 -88 -35v0z" />
  </g>

</svg>
