<?xml version="1.0" standalone="no"?>
<!DOCTYPE svg PUBLIC "-//W3C//DTD SVG 1.1//EN" "http://www.w3.org/Graphics/SVG/1.1/DTD/svg11.dtd" >
<svg xmlns="http://www.w3.org/2000/svg" xmlns:xlink="http://www.w3.org/1999/xlink" version="1.1" viewBox="-10 0 1010 1000">
   <path fill="currentColor"
d="M619 -6q91 2 113 14q1 4 -8 16q-18 27 -18 48v149h90q62 0 116 -8q10 -2 13 -2v85q-1 0 -8 -1q-56 -7 -121 -7h-90v185h60q58 0 118 -6q14 -2 17 -2v89q-3 0 -17 -1q-58 -7 -118 -7h-60v224h98q75 0 135 -9q11 -1 13 -1v96q-4 0 -19 -2q-62 -6 -127 -6h-322q-62 0 -119 8
q-11 2 -14 2v-96q2 0 10 1q53 7 121 7h145v-224h-65q-72 0 -127 7q-7 1 -8 1v-87q3 0 17 1q63 7 118 7h65v-187h-133q-27 85 -46 131q-25 -12 -87 -12q78 -123 95 -335q85 9 107 24q0 3 -6 11q-28 36 -47 114h117v-139q0 -42 -7 -78q-1 -8 -1 -10zM67 203q79 2 94 12
q2 4 -2 11q-10 15 -12 36q-3 31 -7 90q-7 102 -13 131l-87 -8q35 -109 27 -272zM272 756q0 73 7 130q1 12 1 15h-95q0 -3 1 -13q6 -55 6 -136v-609q0 -72 -8 -132q-1 -11 -1 -13q83 2 115 12q2 4 -7 17q-19 29 -19 53v676zM397 328l-70 30q-19 -86 -49 -143l59 -28
q33 50 60 141z" />
</svg>
