<?xml version="1.0" standalone="no"?>
<!DOCTYPE svg PUBLIC "-//W3C//DTD SVG 1.1//EN" "http://www.w3.org/Graphics/SVG/1.1/DTD/svg11.dtd" >
<svg xmlns="http://www.w3.org/2000/svg" xmlns:xlink="http://www.w3.org/1999/xlink" version="1.1" viewBox="-10 0 1010 1000">
   <path fill="currentColor"
d="M341 -12q21 5 60 13q54 10 51 15q0 5 -17 19q-35 28 -58 59h274q67 0 115 -6l-40 48q-49 60 -89 106h121q45 0 91 -5q-6 28 -6 79v188q0 48 6 84q-27 -6 -93 -6h-429q-137 -1 -137 10v-84q10 10 139 10h431v-79h-435q-118 0 -121 8v-80q57 8 121 8h435v-69h-403
q-50 0 -69 1q-24 1 -40 3v-70q13 0 38 1q38 1 67 1h199q20 -19 63 -85h-292q-27 25 -103 101q-75 76 -89 86q-23 -38 -69 -60q171 -94 279 -296zM542 600l73 125l-81 29q2 -32 -70 -125zM810 604l158 180l-77 58q-70 -119 -153 -191zM306 617l39 3q64 3 62 9q1 4 -5 10
q-13 15 -13 40v91q-1 30 17 36q13 7 92 6h115q68 1 81 -99q22 21 65 44q15 8 25 13q-33 112 -139 113h-187q-155 3 -148 -73v-129q0 -44 -4 -64zM167 625q18 9 57 19q35 10 36 15t-7 12q-17 16 -27 42q-2 4 -6 14q-28 68 -59 144l-86 -25q59 -110 92 -221z" />
</svg>
