<?xml version="1.0" standalone="no"?>
<!DOCTYPE svg PUBLIC "-//W3C//DTD SVG 1.1//EN" "http://www.w3.org/Graphics/SVG/1.1/DTD/svg11.dtd" >
<svg xmlns="http://www.w3.org/2000/svg" xmlns:xlink="http://www.w3.org/1999/xlink" version="1.1" viewBox="-10 0 1010 1000">
   <path fill="currentColor"
d="M661 -4q87 -3 95 6q0 2 -3 7q-15 18 -15 57v75h87q47 0 76 -6q-2 12 -3 31q-1 15 -1 55v107q-1 44 4 69q-39 -6 -95 -6h-68v127h107q43 0 90 -8q-2 34 -5 88q-4 62 -5 93q6 83 -135 97q-5 -45 -36 -89q64 5 79 -5q18 -8 20 -49q2 -21 2 -59h-117v206q0 60 6 107h-85
q8 -48 8 -109v-204h-98q-30 206 -194 315q-29 -40 -85 -63q176 -69 204 -254h-81q-47 -1 -74 8q5 -30 12 -86l8 -97q3 -57 -4 -83l-30 14q-27 -73 -71 -127v506q0 129 4 172h-89q6 -38 6 -176v-607q0 -60 -4 -120q96 4 101 12q1 3 -4 11q-14 26 -14 57v135q39 -16 63 -24
q46 65 82 125l-40 20q30 3 74 4h69v-119h-75l-70 2v-76l70 6h73v-71q0 -48 -6 -74q94 0 95 8q0 5 -4 11q-14 19 -14 59v67h96v-73q0 -48 -6 -72zM667 209h-94v119h94v-119zM738 209v119h85v-119h-85zM573 391v127h94v-127h-94zM502 391h-75l-8 125h83v-125zM58 195
q11 1 30 3q58 4 55 7q0 4 -4 12q-9 15 -10 31q-6 85 -28 217q-41 -11 -85 -14q40 -93 42 -256z" />
</svg>
