<?xml version="1.0" standalone="no"?>
<!DOCTYPE svg PUBLIC "-//W3C//DTD SVG 1.1//EN" "http://www.w3.org/Graphics/SVG/1.1/DTD/svg11.dtd" >
<svg xmlns="http://www.w3.org/2000/svg" xmlns:xlink="http://www.w3.org/1999/xlink" version="1.1" viewBox="-10 0 1034 1024">
  <g transform="matrix(1 0 0 -1 0 820)">
   <path fill="currentColor"
d="M446 610q-27 -105 -83 -187q-52 45 -109 89q-15 -24 -30 -41q34 -16 53 -29q25 -19 64 -53q-70 -94 -180 -150q-40 -21 -97 -30q30 -21 43 -44q21 9 73 40q21 10 83 55q3 3 7 5q48 39 73 67q97 105 157 319q-49 -4 -54 -5h-184q18 48 28 64q7 15 25 32q-33 9 -60 23
q-21 -78 -45 -135q-43 -93 -94 -153q-31 -37 -63 -53q30 -9 56 -26q42 52 72 96q28 45 67 116h198zM548 669q3 -27 4 -39v-307q0 -27 15 -50q4 -7 20 -17q28 -19 135 -20q123 0 158 20q18 10 31 30q4 7 9 19l19 49q-22 7 -51 24v-14q0 -42 -13 -62q-15 -21 -60 -27
q-39 -3 -88 -4q-73 0 -111 14q-24 12 -25 52v313h223q-4 -123 -10 -151q-6 -27 -18 -39q-16 -16 -54 -17q-19 0 -53 5q10 -31 14 -52q87 7 117 33q28 25 35 102l8 109q0 9 6 51q-27 -1 -53 -5l-218 1q-15 3 -41 4q0 -10 1 -22zM227 40q4 9 9 17q15 27 43 55q-22 7 -35 15
q-12 6 -25 11q-9 -33 -45 -111q-42 -82 -78 -119q30 -10 47 -25zM391 72q0 12 2 29q1 21 11 38h-56q1 -33 5 -67q0 -132 2 -142q1 -10 6 -20q12 -27 47 -37q42 -6 142 -7q66 0 112 5q51 7 77 41q12 19 26 67q4 12 8 26q-24 9 -50 27l1 -35q0 -42 -19 -63q-19 -22 -54 -28
q-22 -3 -150 -4q-66 0 -87 10q-22 12 -23 48v112zM466 207q73 -67 116 -143q12 13 23 23q3 4 12 9q-63 81 -115 142q-15 -15 -36 -31zM757 126q39 -27 89 -83q45 -55 67 -99q18 21 38 33q-37 48 -81 99q-40 46 -74 82q-24 -24 -39 -32v0z" />
  </g>

</svg>
