<?xml version="1.0" standalone="no"?>
<!DOCTYPE svg PUBLIC "-//W3C//DTD SVG 1.1//EN" "http://www.w3.org/Graphics/SVG/1.1/DTD/svg11.dtd" >
<svg xmlns="http://www.w3.org/2000/svg" xmlns:xlink="http://www.w3.org/1999/xlink" version="1.1" viewBox="-10 0 1010 1000">
   <path fill="currentColor"
d="M246 -10q124 32 113 34q-1 5 -10 11q-29 18 -49 61h111q46 0 88 -4h5q-18 377 -395 484q-20 -41 -67 -76q170 -33 256 -111q-42 -47 -84 -77l66 -50q33 31 69 74q44 -76 60 -173h-141q-72 132 -119 199q-23 -16 -82 -38q121 -127 179 -334zM536 62q18 6 129 6h83
q78 0 121 -6q0 5 -1 14q-7 103 -17 190q-5 57 -34 75q-25 19 -121 30q1 -41 -37 -95q66 9 85 3q23 -4 28 -29q7 -34 10 -115h-161v244q-1 56 11 63q8 12 66 11h80q49 1 64 -16q18 -15 29 -72q17 21 81 56q-17 66 -52 87q-32 23 -116 22h-96q-104 0 -127 -23q-13 -12 -18 -33
q-4 -17 -3 -71v-216q0 -99 -4 -125zM506 504q57 87 103 171l-95 36q-34 -114 -87 -175zM312 578q6 1 19 2q101 13 94 20q-1 3 -6 9q-20 18 -20 72v63q-1 39 12 50q14 14 55 14h101q69 2 81 -15q16 -11 27 -94q35 33 89 55q-19 81 -50 104q-27 25 -109 23h-167q-73 1 -96 -19
q-26 -19 -25 -78v-117q0 -58 -5 -89zM819 580q99 122 135 198l-87 52q-50 -121 -129 -213zM161 594q11 3 33 8q71 17 64 23l-4 4q-16 13 -26 48q-16 52 -44 133q-11 32 -17 50q-31 -18 -96 -22q62 -91 90 -244z" />
</svg>
