<?xml version="1.0" standalone="no"?>
<!DOCTYPE svg PUBLIC "-//W3C//DTD SVG 1.1//EN" "http://www.w3.org/Graphics/SVG/1.1/DTD/svg11.dtd" >
<svg xmlns="http://www.w3.org/2000/svg" xmlns:xlink="http://www.w3.org/1999/xlink" version="1.1" viewBox="-10 0 1034 1024">
  <g transform="matrix(1 0 0 -1 0 820)">
   <path fill="currentColor"
d="M636 -94l-4 -56q0 -1 -1 -4h48q0 1 -1 5q-1 3 -4 55v465l38 -85q18 -34 53 -91q48 -79 118 -157q36 -36 47 -50q24 19 54 35q-72 39 -127 110q-73 97 -134 218q-39 84 -46 119h197q42 0 62 -5v46q-4 0 -8 -1q-3 0 -4 -2q-27 0 -50 -2h-200v201q0 9 2 28q1 19 11 38h-56
q1 -33 5 -66v-201l-216 2q-3 1 -4 1q-3 0 -12 2v-46q6 1 63 5h157q-51 -153 -151 -299q-58 -84 -89 -117q-34 -36 -70 -56q39 -13 57 -28q57 69 115 148q58 85 88 143q42 88 62 123v-478zM49 339q24 -3 48 -10q25 75 46 145q12 46 37 77q-19 3 -31 6q-3 1 -28 10
q-9 -63 -31 -136q-19 -57 -41 -92zM257 -158q-1 3 -1 5q-3 7 -4 55l1 817q0 15 4 28q1 10 8 20h-56q3 -9 3 -16q1 -27 2 -50v-799q0 -21 -3 -51q0 -4 -2 -9h48zM285 550q54 -66 82 -163q19 9 44 17l-35 78q-16 36 -44 87q-22 -10 -47 -19zM747 704q72 -46 127 -133
q15 18 35 29q-54 63 -124 135q-16 -15 -38 -31v0z" />
  </g>

</svg>
