<?xml version="1.0" standalone="no"?>
<!DOCTYPE svg PUBLIC "-//W3C//DTD SVG 1.1//EN" "http://www.w3.org/Graphics/SVG/1.1/DTD/svg11.dtd" >
<svg xmlns="http://www.w3.org/2000/svg" xmlns:xlink="http://www.w3.org/1999/xlink" version="1.1" viewBox="-10 0 1010 1000">
   <path fill="currentColor"
d="M587 -10q95 -2 100 10q0 2 -3 6q-15 24 -15 68v145h144q94 0 114 -8v81q-21 -2 -48 -3q-12 -1 -28 -1h-41h-118q71 293 274 409q-57 32 -85 71q-175 -169 -212 -377v387q0 91 4 129h-86q4 -41 4 -131v-385q-70 233 -228 393q-40 -39 -87 -59q185 -101 284 -435h-72
q-49 0 -85 6v-81q30 6 87 6h101v-129q0 -30 -4 -96q4 48 0 -6zM786 32q57 72 93 127l-77 40q-24 -54 -86 -129zM337 189q43 62 84 167l-76 31q-32 -106 -73 -174zM71 191q32 11 86 14q-24 192 -40 266q-41 -12 -83 -12q35 -126 37 -268zM179 -8q96 4 101 12q1 3 -4 11
q-14 26 -14 57v651q0 129 4 172h-89q6 -38 6 -176v-607q0 -60 -4 -120z" />
</svg>
