<?xml version="1.0" standalone="no"?>
<!DOCTYPE svg PUBLIC "-//W3C//DTD SVG 1.1//EN" "http://www.w3.org/Graphics/SVG/1.1/DTD/svg11.dtd" >
<svg xmlns="http://www.w3.org/2000/svg" xmlns:xlink="http://www.w3.org/1999/xlink" version="1.1" viewBox="-10 0 1010 1000">
   <path fill="currentColor"
d="M589 16q103 -3 105 8q1 2 -3 7q-20 36 -20 98v52h121q69 -2 107 -8v85q-54 -6 -105 -6h-123v165h146q70 0 127 -8v87q-62 -9 -125 -8h-345q-9 1 -30 1q-53 1 -97 7v-87q71 8 125 8h123v-165h-67q-74 0 -121 6v-85q55 7 119 8h69v-50q0 -62 -6 -115zM187 20q93 -2 109 6
q1 2 -3 9q-25 43 -25 136v544q0 82 8 164h-91q8 -57 7 -142v-18v-542q0 -90 -5 -157zM345 197q29 42 84 147l-80 35q-30 -87 -69 -150zM63 221q91 0 90 8q0 1 -1 4q-11 68 -25 259q-44 -11 -95 -4q19 -45 28 -118q8 -77 3 -149zM653 530q0 1 -6 8q-33 33 -62 79
q-16 27 -64 98q-26 39 -41 61l288 -30q-50 -78 -85 -113l73 -37q60 66 167 236l-88 49q-12 -28 -37 -71q-42 5 -113 14q-285 34 -288 45q-12 -45 -38 -95q113 -42 204 -280q11 4 30 10q66 20 60 26z" />
</svg>
