<?xml version="1.0" standalone="no"?>
<!DOCTYPE svg PUBLIC "-//W3C//DTD SVG 1.1//EN" "http://www.w3.org/Graphics/SVG/1.1/DTD/svg11.dtd" >
<svg xmlns="http://www.w3.org/2000/svg" xmlns:xlink="http://www.w3.org/1999/xlink" version="1.1" viewBox="-10 0 1034 1024">
  <g transform="matrix(1 0 0 -1 0 820)">
   <path fill="currentColor"
d="M214 314q-1 -19 -3 -40q-1 -15 -2 -24q31 3 65 5l499 -1l48 -4l-7 64l1 201l4 38q0 6 2 16l-106 -5h-115q51 54 99 100q37 36 75 59q-27 15 -52 41q-21 -39 -59 -82q-45 -48 -116 -118h-273q-7 0 -33 3q-15 0 -32 2q1 -33 5 -69v-186zM251 291v236h525v-236h-525z
M252 720q42 -22 100 -66q33 -24 47 -38q15 -13 30 -34q12 21 32 41l-87 68l-95 67q-12 -18 -27 -38zM55 -100q27 -7 46 -22q22 33 43 68l46 90q18 39 28 52q6 12 29 32q-24 9 -59 28q-12 -48 -47 -120q-43 -84 -86 -128zM376 86q0 13 13 64h-56q0 -3 1 -5q3 -19 4 -59v-146
q0 -21 11 -44q10 -21 32 -31q18 -7 52 -10l117 -3q66 0 111 5q52 7 78 41q9 16 26 67q3 12 8 25q-21 9 -51 28q1 -21 2 -36q0 -40 -19 -62t-55 -28q-37 -3 -117 -4q-36 0 -73 2q-51 3 -65 13q-18 15 -19 50v133zM457 195q31 -21 56 -43q4 -4 12 -11q30 -27 46 -47
q6 -9 18 -26q10 18 31 36q-12 9 -19 20q-19 18 -42 41q-57 54 -72 66q-9 -13 -18 -23q-6 -6 -12 -13zM807 168q-9 -9 -28 -22q24 -21 43 -40q19 -22 45 -56q45 -66 64 -112l41 34q-81 124 -151 209q-7 -6 -14 -13v0z" />
  </g>

</svg>
