<?xml version="1.0" standalone="no"?>
<!DOCTYPE svg PUBLIC "-//W3C//DTD SVG 1.1//EN" "http://www.w3.org/Graphics/SVG/1.1/DTD/svg11.dtd" >
<svg xmlns="http://www.w3.org/2000/svg" xmlns:xlink="http://www.w3.org/1999/xlink" version="1.1" viewBox="-10 0 1010 1000">
   <path fill="currentColor"
d="M329 330q-25 -70 -63 -117l65 -36q57 84 70 123l-44 18q33 6 81 6h143v-127q-87 -2 -124 0q-38 1 -72 8v-82q69 6 196 6v-48q1 -68 -4 -85q85 -2 102 4q1 3 -2 10q-16 35 -16 117h117q54 0 107 -6l-2 82q-4 0 -18 -1q-24 -5 -204 -7v129q173 0 224 -2q53 -1 67 -8l-2 83
q-8 -3 -38 -3q-14 -1 -38 -1h-72v111q84 0 135 -10v80q0 1 -28 0q-59 -2 -107 -2v244q3 66 -163 85q-6 -56 -40 -95q121 14 119 -38v-196h-272q-54 0 -71 1q-22 1 -32 3v-80q63 8 97 8h278v-113h-270q-65 0 -95 10l-2 -79zM500 600q53 86 75 137l-85 37q-18 -63 -67 -143z
M177 -4q100 0 101 12q0 2 -4 9q-14 27 -14 59v651q0 129 4 172h-89q6 -38 6 -176v-608q0 -59 -4 -119zM65 203l33 3q56 4 53 7q0 4 -4 12q-8 15 -10 31q-2 17 -7 55q-13 115 -21 162q-41 -11 -85 -14q39 -92 41 -256z" />
</svg>
