<?xml version="1.0" standalone="no"?>
<!DOCTYPE svg PUBLIC "-//W3C//DTD SVG 1.1//EN" "http://www.w3.org/Graphics/SVG/1.1/DTD/svg11.dtd" >
<svg xmlns="http://www.w3.org/2000/svg" xmlns:xlink="http://www.w3.org/1999/xlink" version="1.1" viewBox="-10 0 1034 1024">
  <g transform="matrix(1 0 0 -1 0 820)">
   <path fill="currentColor"
d="M379 -116q31 3 65 5l507 -1q15 0 27 -4v46q-3 0 -12 -3l-82 -2q-474 0 -495 3q-3 0 -10 2v-46zM404 654q3 3 12 4q30 1 54 3h414q43 0 63 -7v49q-3 0 -12 -3q-3 0 -6 -1q-12 0 -45 -3l-446 1q-18 1 -34 6v-49zM455 502q3 -24 3 -32v-323q0 -12 -3 -39q0 -12 -3 -22
q49 4 104 5l286 -1l45 -4q-3 30 -5 61l1 338l4 47q-30 -1 -59 -5l-335 1q-12 3 -41 4zM495 329v162h349v-162h-349zM495 293h349v-166h-349v166zM101 313l9 38l38 150q6 16 17 31q-27 4 -58 16q-6 -67 -22 -143q-15 -57 -41 -102q24 -1 52 -9q1 10 5 19zM258 -159
q-3 6 -5 45l1 835q0 18 4 30q1 10 8 18h-56q1 -33 5 -66l-1 -826q0 -27 -4 -36h48zM311 561q-16 -9 -33 -19q18 -22 47 -82q15 -31 29 -75q9 9 42 22q-12 30 -29 64l-50 94q-3 -1 -6 -4v0z" />
  </g>

</svg>
