<?xml version="1.0" standalone="no"?>
<!DOCTYPE svg PUBLIC "-//W3C//DTD SVG 1.1//EN" "http://www.w3.org/Graphics/SVG/1.1/DTD/svg11.dtd" >
<svg xmlns="http://www.w3.org/2000/svg" xmlns:xlink="http://www.w3.org/1999/xlink" version="1.1" viewBox="-10 0 1034 1024">
  <g transform="matrix(1 0 0 -1 0 820)">
   <path fill="currentColor"
d="M90 326q4 0 9 -2q15 36 25 68q10 34 27 98q7 33 34 58q-28 4 -61 14q-1 -18 -7 -40l-18 -77l-21 -62q-12 -33 -24 -46q18 -4 36 -11zM262 -166q0 9 -2 14q0 21 -3 53v800q0 15 4 29q3 21 17 38h-64q4 -24 5 -67v-800q0 -25 -3 -53q0 -4 -2 -14h48zM393 434q3 3 8 5
q-27 63 -63 140l-3 -2q-3 -1 -7 -5q-19 -9 -27 -10q12 -18 20 -37q7 -16 15 -32q19 -49 27 -76q6 6 30 17zM701 329v-369q0 -52 29 -68q30 -13 100 -14q60 0 85 16q19 15 44 83l6 20q-31 18 -47 33q-1 -33 -5 -50q-6 -33 -20 -50q-15 -15 -49 -16q-57 0 -76 6q-28 6 -29 36
v373l163 -1q27 0 45 -4q3 0 7 -2v48q-19 -6 -66 -6h-228v342q0 12 3 26q3 19 18 40h-64q4 -22 5 -66v-342l-247 3q-6 3 -13 3v-48l64 7h122q-12 -183 -65 -275q-30 -54 -83 -100q-51 -43 -102 -58q30 -21 50 -41q45 37 51 41q81 69 118 139q27 54 42 111q15 61 30 183h112z
M397 640l65 -82q27 -36 42 -61q12 -21 24 -44q13 13 35 28q-24 42 -133 186zM830 567q15 21 21 33l10 13q4 6 9 12q12 15 38 27q-36 21 -55 37q-21 -42 -75 -131q-25 -36 -61 -82q18 -7 37 -23z" />
  </g>

</svg>
