<?xml version="1.0" standalone="no"?>
<!DOCTYPE svg PUBLIC "-//W3C//DTD SVG 1.1//EN" "http://www.w3.org/Graphics/SVG/1.1/DTD/svg11.dtd" >
<svg xmlns="http://www.w3.org/2000/svg" xmlns:xlink="http://www.w3.org/1999/xlink" version="1.1" viewBox="-10 0 1034 1024">
  <g transform="matrix(1 0 0 -1 0 820)">
   <path fill="currentColor"
d="M428 421q0 12 4 34q-31 -13 -79 -28l-78 -24v258h85q45 0 63 -7v48q-9 0 -12 -3q-18 0 -51 -3l-250 1q-18 3 -33 5v-48q6 3 12 4q30 1 54 3h95v-267q-117 -28 -165 -29q16 -27 23 -56q21 9 56 21q3 1 8 2q13 3 32 10l236 67v12zM739 696v-371q0 -21 11 -36q4 -6 19 -14
q25 -10 72 -11q27 0 43 4q31 6 48 32q9 15 30 68q-27 12 -50 28q0 -12 1 -25q0 -40 -18 -56q-18 -13 -57 -14q-45 0 -55 14q-6 7 -6 33l1 337q1 25 5 52q-30 -1 -59 -5l-213 1q-1 0 -40 4q6 -57 6 -84l-1 -85q0 -51 -2 -82q0 -24 -4 -44q-15 -94 -94 -161q-27 -19 -56 -30
q33 -21 49 -38q96 94 119 157q15 33 21 99q3 37 6 90l2 137h222zM572 549q-7 -7 -19 -15q79 -78 108 -139q21 18 37 28q-18 25 -36 49q-9 12 -27 33q-18 22 -48 57q-7 -6 -15 -13zM63 -66q27 -6 48 -22q60 106 86 155q18 36 25 44q4 9 26 31q-22 6 -57 27q-18 -72 -76 -166
q-28 -45 -52 -69zM369 96q0 12 2 29q1 18 11 37h-57q6 -18 6 -66l1 -150q1 -22 12 -40q13 -21 77 -28q42 -6 107 -6q99 0 135 9q52 12 78 65q12 28 24 82q-19 6 -51 27l1 -36q0 -63 -35 -88q-18 -13 -46 -18q-28 -4 -101 -5l-62 1q-55 3 -77 11q-24 9 -25 50v126zM468 212
q42 -33 77 -68q24 -25 53 -65q12 19 31 36l-116 117q-6 6 -13 12q-18 -21 -26 -28q-3 -1 -6 -4zM786 191q-6 -6 -23 -19q25 -24 37 -37q19 -22 51 -64q39 -49 71 -110q15 13 40 31q-39 57 -85 117q-46 61 -78 94q-7 -6 -13 -12v0z" />
  </g>

</svg>
