<?xml version="1.0" standalone="no"?>
<!DOCTYPE svg PUBLIC "-//W3C//DTD SVG 1.1//EN" "http://www.w3.org/Graphics/SVG/1.1/DTD/svg11.dtd" >
<svg xmlns="http://www.w3.org/2000/svg" xmlns:xlink="http://www.w3.org/1999/xlink" version="1.1" viewBox="-10 0 1010 1000">
   <path fill="currentColor"
d="M589 -6q100 -3 105 10q0 1 -2 6q-17 33 -17 102v263h178q48 0 101 -8v88q-47 -8 -99 -8h-111v325q-2 33 60 26q55 7 57 -123q54 45 91 52q-18 158 -107 152h-105q-80 5 -75 -69v-363h-86q-8 204 -49 285q-40 90 -161 161q-28 -36 -77 -69q220 -52 212 -377h-38
q-70 -1 -115 8v-88q45 6 113 8h131v-262q1 -62 -6 -119zM171 -2q14 1 38 2q75 3 71 10q1 3 -2 9q-12 34 -20 102v627q0 99 8 153h-95q5 -27 6 -63q1 -18 2 -39v-53v-625q1 -63 -8 -123zM817 84q91 32 86 39q0 1 -2 3q-35 39 -103 198q-44 -20 -78 -30q49 -65 97 -210z
M474 92q16 26 82 200l-86 24q-21 -99 -77 -206zM58 195q88 3 87 10q0 1 -1 5q-19 54 -27 241q-24 -12 -79 -12q24 -110 20 -244zM268 207l53 -32q41 50 90 139l-66 44q-45 -107 -77 -151z" />
</svg>
