<?xml version="1.0" standalone="no"?>
<!DOCTYPE svg PUBLIC "-//W3C//DTD SVG 1.1//EN" "http://www.w3.org/Graphics/SVG/1.1/DTD/svg11.dtd" >
<svg xmlns="http://www.w3.org/2000/svg" xmlns:xlink="http://www.w3.org/1999/xlink" version="1.1" viewBox="-10 0 1010 1000">
   <path fill="currentColor"
d="M821 26q-15 73 -17 189v162q-6 61 35 52q37 8 50 -101q25 26 71 52q9 5 12 7q-18 70 -41 93q-24 26 -70 26h-61q-53 1 -65 -16q-13 -11 -11 -77v-303h-186q3 112 -2 174q-5 64 -20 107q-21 75 -125 155q-32 -40 -83 -52q160 -46 156 -299q-2 -135 -14 -169q43 10 187 10
q152 0 184 -10zM58 48q20 8 144 8h82q97 0 129 -6v85q-11 -4 -39 -5q-14 -1 -34 -1h-54v221q13 -3 48 -10q66 -13 85 -18l-16 81q-175 37 -340 78l-13 -102q2 -1 9 -1q49 -2 149 -16v-231q-74 0 -105 2q-35 1 -45 6v-91zM653 199q16 71 20 200l-86 8q8 -129 -10 -196z
M538 508q28 40 77 163l-87 32q-27 -102 -70 -159zM819 560q77 91 127 200l-91 54q-44 -118 -113 -210zM141 582q13 3 45 8q36 6 44 8q-24 108 -67 238q-37 -17 -100 -22q60 -86 78 -232zM302 588q106 9 111 20q0 1 -4 6q-18 21 -18 51v81q-1 33 11 41q10 9 50 9h117
q55 1 71 -23q19 -22 21 -98q51 39 101 60q-25 85 -66 115q-20 16 -47 22q-25 5 -74 5h-135q-88 1 -111 -19q-26 -17 -25 -82v-109q0 -21 -1 -53q-1 -19 -1 -26z" />
</svg>
