<?xml version="1.0" standalone="no"?>
<!DOCTYPE svg PUBLIC "-//W3C//DTD SVG 1.1//EN" "http://www.w3.org/Graphics/SVG/1.1/DTD/svg11.dtd" >
<svg xmlns="http://www.w3.org/2000/svg" xmlns:xlink="http://www.w3.org/1999/xlink" version="1.1" viewBox="-10 0 1010 1000">
   <path fill="currentColor"
d="M274 -10q109 24 103 30q-1 3 -5 7q-25 28 -59 102h118q67 -3 97 -6q-43 165 -95 246q40 15 115 52q-24 22 -56 62q-7 9 -12 15q-29 -33 -101 -71q-127 88 -252 121q-20 -41 -64 -77q124 -6 243 -80q-56 -28 -171 -59q24 -26 75 -135h-49q-51 0 -78 6v-80q33 6 82 6h69
q31 -79 40 -139zM579 98q11 1 54 4q35 2 57 4h98q70 0 103 -6q-6 41 -6 131v132q0 98 6 127q-48 -6 -101 -7h-105q-78 0 -106 5q7 -32 8 -130v-129q-1 -95 -8 -131zM810 175h-149v238h149v-238zM433 197h-145q-6 10 -19 39q-17 38 -29 58q6 3 20 9q57 25 99 41
q41 -55 74 -147zM546 534q10 21 35 69q25 46 38 72l-81 28q-33 -100 -66 -145zM806 558q14 18 51 67q70 92 93 125l-83 42q-48 -101 -141 -196zM310 562q107 8 107 18q0 2 -4 6q-24 25 -24 65v91q-1 41 15 51q14 11 70 11h84q78 2 93 -16q21 -16 26 -89q34 38 93 57
q-27 81 -61 103q-29 24 -114 22h-158q-85 1 -104 -18q-22 -14 -20 -85v-119q0 -73 -3 -97zM165 592q95 21 91 25q-1 2 -5 6q-11 12 -17 26q-4 10 -16 39q-47 118 -63 152q-32 -14 -84 -22q79 -104 94 -226z" />
</svg>
