<?xml version="1.0" standalone="no"?>
<!DOCTYPE svg PUBLIC "-//W3C//DTD SVG 1.1//EN" "http://www.w3.org/Graphics/SVG/1.1/DTD/svg11.dtd" >
<svg xmlns="http://www.w3.org/2000/svg" xmlns:xlink="http://www.w3.org/1999/xlink" version="1.1" viewBox="-10 0 1034 1024">
  <g transform="matrix(1 0 0 -1 0 820)">
   <path fill="currentColor"
d="M186 -39q27 48 38 59q9 10 31 22q-24 9 -38 17q-6 3 -21 12q-3 -7 -6 -17q-12 -39 -42 -87q-37 -61 -73 -93q30 -9 45 -20q18 27 66 107zM478 206h-320q-40 0 -66 5v-48q6 3 12 4q18 3 54 3h704q21 0 50 -3q6 0 15 -4v48q-18 -4 -65 -5h-346v107q286 0 296 -3q3 0 10 -3
v47q-24 -4 -66 -5h-240q0 61 12 78q3 7 11 14h-66q4 -19 5 -66v-26l-249 1q-4 1 -7 1q-12 1 -26 3v-47q6 3 13 3q27 3 54 3h215v-107zM478 506h-300q-36 0 -62 4q-3 1 -5 1v-47q7 3 27 4q6 1 40 2l675 -1q22 0 39 -5v47q-21 -4 -65 -5h-311v104l267 -1q21 0 40 -5v47
q-28 -4 -66 -5h-241q0 69 6 79q4 13 17 28h-66q4 -19 5 -67v-40l-253 1q-24 3 -26 4v-47q15 4 37 5l242 1v-104zM346 10q0 9 3 28t18 38h-64q4 -24 5 -66v-89q0 -48 39 -63q15 -6 52 -9l107 -3q48 0 96 4q60 6 84 24q24 22 52 99q-18 9 -46 30q-4 -51 -13 -71
q-13 -36 -74 -45q-46 -3 -104 -4q-49 0 -87 4q-30 3 -48 7q-19 7 -20 42v74zM521 96q-31 27 -40 36q-9 -15 -32 -33q45 -24 119 -106q9 13 31 32q-30 30 -64 60zM952 -76q-21 31 -47 64q-30 39 -68 80q-12 13 -28 29l-29 -30q72 -66 143 -173q1 0 3 3q1 3 7 8q9 10 19 19v0z
" />
  </g>

</svg>
