<?xml version="1.0" standalone="no"?>
<!DOCTYPE svg PUBLIC "-//W3C//DTD SVG 1.1//EN" "http://www.w3.org/Graphics/SVG/1.1/DTD/svg11.dtd" >
<svg xmlns="http://www.w3.org/2000/svg" xmlns:xlink="http://www.w3.org/1999/xlink" version="1.1" viewBox="-10 0 1010 1000">
   <path fill="currentColor"
d="M351 -6q32 45 62 112l-84 33h233q29 -50 59 -141q89 23 113 42q0 2 -5 4q-38 13 -88 95h151q68 0 115 -8v86q-70 -10 -111 -10h-262v101h168q53 0 121 -10v85q-52 -8 -117 -8h-172v108h281q72 -1 120 -12v91q-59 -8 -118 -8h-627q-95 1 -127 12v-93q48 10 125 10h266
v-108h-164q-94 0 -129 8v-85q60 9 129 10h164v-101h-246q-85 2 -123 10v-88q51 9 125 10h111q-17 -67 -57 -115zM520 574q28 33 91 125l-87 43q-26 -66 -80 -132zM794 604q73 65 162 174l-89 54q-42 -89 -143 -183zM284 617q109 3 119 20q0 5 -7 16q-21 30 -21 66v49
q-1 36 23 47q21 12 92 11h44q57 0 77 -10q37 -10 48 -111q38 40 91 55q-24 93 -56 117q-27 23 -113 24h-144q-98 2 -118 -19q-26 -16 -27 -98v-55q0 -37 -8 -112zM127 637q73 2 103 18q0 3 -8 11q-17 18 -22 35q-35 108 -59 166q-28 -20 -87 -29q52 -91 73 -201z" />
</svg>
