<?xml version="1.0" standalone="no"?>
<!DOCTYPE svg PUBLIC "-//W3C//DTD SVG 1.1//EN" "http://www.w3.org/Graphics/SVG/1.1/DTD/svg11.dtd" >
<svg xmlns="http://www.w3.org/2000/svg" xmlns:xlink="http://www.w3.org/1999/xlink" version="1.1" viewBox="-10 0 1034 1024">
  <g transform="matrix(1 0 0 -1 0 820)">
   <path fill="currentColor"
d="M502 261l-392 1q-12 0 -24 4v-47l39 5l761 1q45 0 63 -6v47q-3 0 -7 -1l-2 -1q-3 0 -4 -1q-27 0 -50 -2h-346v136l299 -3q3 0 7 -2v46q-9 0 -12 -3q-27 0 -50 -2h-244v134h304q40 0 63 -5v46q-10 0 -13 -3q-27 0 -50 -2h-211q18 19 28 29q9 9 45 49q9 12 24 24
q15 15 49 30q-30 16 -57 39q-30 -57 -141 -171l-436 2l-15 3v-46q51 4 85 5h287v-134l-282 1q-7 1 -16 2q-1 0 -8 2v-46q12 4 66 5h240v-136zM283 722q57 -25 118 -98q9 15 31 39q-45 45 -115 98q-18 -22 -34 -39zM186 12q15 22 32 45q18 27 50 50q-22 9 -54 33
q-18 -42 -59 -107q-54 -78 -92 -108q24 -13 41 -29q27 40 82 116zM373 83q0 10 2 28q3 21 11 38h-56q1 -33 5 -66l1 -160q4 -37 31 -56q18 -9 61 -13l93 -3q60 0 114 6q52 6 77 41q9 15 27 66q4 12 8 25q-25 9 -50 28l1 -35q0 -51 -35 -78q-27 -15 -63 -15l-100 -2
q-90 0 -107 10q-19 10 -20 45v141zM469 171q24 -18 63 -61q33 -37 55 -74q13 18 17 20l19 16q-15 18 -57 63q0 1 -16 16q-24 25 -50 51l-4 -4l-16 -16q-6 -4 -11 -11zM791 149q-12 -12 -34 -28q31 -22 48 -39q31 -31 73 -82q16 -21 41 -68q22 22 39 34q-39 51 -76 95l-85 95
q-3 -3 -6 -7v0z" />
  </g>

</svg>
