<?xml version="1.0" standalone="no"?>
<!DOCTYPE svg PUBLIC "-//W3C//DTD SVG 1.1//EN" "http://www.w3.org/Graphics/SVG/1.1/DTD/svg11.dtd" >
<svg xmlns="http://www.w3.org/2000/svg" xmlns:xlink="http://www.w3.org/1999/xlink" version="1.1" viewBox="-10 0 1034 1024">
  <g transform="matrix(1 0 0 -1 0 820)">
   <path fill="currentColor"
d="M145 596q-45 0 -66 6v-47q1 0 3 1q-3 0 9 1q30 1 54 3h91q-30 -73 -67 -146l78 -24l108 -39q-69 -60 -134 -96q-69 -36 -142 -37q15 -19 30 -51q93 30 157 68q60 36 130 101q37 -18 67 -34q30 -18 72 -45q12 31 15 35q3 6 8 10l-64 30l-74 32q51 70 73 115q39 87 51 123
q-60 -6 -62 -6h-190l24 62q18 43 24 53q6 12 27 33q-30 6 -61 20q-6 -30 -21 -75q-13 -40 -34 -93h-106zM484 560q-36 -109 -104 -178q-18 6 -38 14l-116 43q33 72 51 121h207zM600 647q1 -31 5 -64q0 -307 -3 -338q-1 -3 -1 -7q49 4 74 5l181 -1q15 0 40 -4q-3 30 -5 61
l1 304l4 44l-91 -5l-161 1q-15 3 -44 4zM642 281v325h211v-325h-211zM97 -87q27 -4 46 -16l72 145q21 42 46 66q-9 0 -17 3q-6 0 -14 4q-6 1 -34 13q-7 -39 -35 -104q-33 -76 -64 -111zM704 7q0 -18 -3 -34q-12 -43 -58 -53q-27 -6 -132 -6q-37 0 -66 3q-18 3 -26 8
q-22 10 -23 47v96q0 18 14 65h-57q0 -6 3 -14q0 -147 3 -170q4 -37 33 -55q18 -9 64 -13l98 -2q43 0 84 4q51 4 74 25q12 13 33 62q4 15 11 27q-27 13 -52 30v-20zM497 208q-21 -24 -34 -33q24 -19 39 -34q13 -12 28 -28q19 -18 28 -28q9 -12 22 -31q6 -10 13 -20
q15 18 36 35l-62 68zM837 121l-22 28q-12 -15 -33 -32q30 -27 75 -85q39 -49 63 -96q15 15 37 30q-37 54 -64 87z" />
  </g>

</svg>
