<?xml version="1.0" standalone="no"?>
<!DOCTYPE svg PUBLIC "-//W3C//DTD SVG 1.1//EN" "http://www.w3.org/Graphics/SVG/1.1/DTD/svg11.dtd" >
<svg xmlns="http://www.w3.org/2000/svg" xmlns:xlink="http://www.w3.org/1999/xlink" version="1.1" viewBox="-10 0 1010 1000">
   <path fill="currentColor"
d="M171 -2q5 0 15 1q98 2 86 13q1 4 -3 10q-15 28 -15 91v649q0 87 6 135h-87q6 -58 6 -137v-648q0 -58 -8 -114zM393 48q55 6 127 6h272q62 0 131 -6q-6 57 -6 119v623q3 61 -25 75q-25 19 -136 28q-1 -50 -32 -95q69 3 90 -4q24 -6 23 -30v-635h-359v619q-3 84 6 143h-93
q9 -53 8 -147v-585q0 -60 -6 -111zM331 201q29 67 50 182l-73 12q-11 -88 -40 -178zM67 211q85 0 88 12q0 1 -1 5q-19 51 -39 243q-37 -9 -77 -6q33 -108 29 -254zM512 223q33 3 83 4h95q43 -1 88 -4v71q-24 -5 -86 -4h-93q-58 0 -87 4v-71zM536 391q120 12 226 0
q-4 39 -4 145q0 107 4 155q-30 -6 -109 -6t-117 6q4 -58 5 -163q-1 -103 -5 -137zM694 457h-91v168h91v-168z" />
</svg>
