<?xml version="1.0" standalone="no"?>
<!DOCTYPE svg PUBLIC "-//W3C//DTD SVG 1.1//EN" "http://www.w3.org/Graphics/SVG/1.1/DTD/svg11.dtd" >
<svg xmlns="http://www.w3.org/2000/svg" xmlns:xlink="http://www.w3.org/1999/xlink" version="1.1" viewBox="-10 0 1034 1024">
  <g transform="matrix(1 0 0 -1 0 820)">
   <path fill="currentColor"
d="M337 361q-64 -81 -168 -159q-63 -42 -113 -51q28 -22 43 -43q-1 0 10 7l122 85q18 18 61 55q49 51 96 106h235l104 -97q60 -45 124 -85l79 -42q9 15 14 17q9 13 26 30q-48 9 -112 41q-103 55 -182 136h192q45 0 62 -5v46q-4 0 -8 -2q-3 0 -4 -1q-27 0 -50 -2h-187v176
h119q42 0 63 -6v47q-3 0 -8 -1l-2 -1q-1 0 -3 -1l-98 -2h-70v92q0 13 2 29q1 22 11 37h-57q0 -6 3 -15q1 -39 2 -100v-43h-267q0 117 3 129q1 15 10 26h-56q1 -33 5 -66v-89q-138 0 -159 2l-15 3v-47q12 3 27 4q25 1 140 2h7v-176q-222 0 -242 3q-3 0 -10 2v-46q31 3 65 5
h186zM643 573v-176h-267v176h267zM265 -19q15 21 30 41q36 57 43 63q24 39 53 58q-28 10 -57 29q-27 -57 -69 -122q-42 -61 -93 -104q27 -9 48 -25q9 15 45 60zM500 261q0 12 2 29q1 18 11 37h-56q3 -9 3 -16q1 -27 2 -50v-327q0 -25 -15 -35q-15 -9 -47 -10q-21 0 -64 4
q12 -30 15 -49q45 3 67 7q39 6 62 23q19 16 20 53v334zM549 129q27 -27 50 -66q33 -54 54 -117q19 15 39 22q-36 84 -99 187q-7 -6 -44 -26zM843 24l-89 141l-18 28q-18 -13 -44 -30q31 -33 40 -44q15 -21 41 -62q28 -45 44 -73q10 -19 20 -50q15 9 17 11l26 17
q-6 12 -14 24z" />
  </g>

</svg>
