<?xml version="1.0" standalone="no"?>
<!DOCTYPE svg PUBLIC "-//W3C//DTD SVG 1.1//EN" "http://www.w3.org/Graphics/SVG/1.1/DTD/svg11.dtd" >
<svg xmlns="http://www.w3.org/2000/svg" xmlns:xlink="http://www.w3.org/1999/xlink" version="1.1" viewBox="-10 0 1010 1000">
   <path fill="currentColor"
d="M585 -13q95 -5 98 5q1 3 -2 12q-12 28 -12 64v51h37q115 1 173 -7v83q-57 -7 -171 -8h-39v119h79q113 0 189 -8v83q-60 -7 -189 -8h-101q114 131 313 159q-39 38 -57 93q-245 -100 -336 -252h-150q-141 176 -316 280q-16 -32 -71 -71q179 -59 297 -209h-95q-124 0 -172 8
v-83q67 7 180 8h77v-119h-57q-88 1 -141 8v-83q50 6 139 7h59q0 -59 -7 -125q83 -3 95 8q2 3 -1 9q-9 18 -11 47v61h200q1 -59 -8 -132zM593 187h-200v119h200v-119zM437 439q95 0 101 10q2 4 -4 15q-11 24 -12 48v324q-7 56 -139 75q-1 -46 -34 -91q99 18 93 -40v-258
q0 -30 -5 -83zM752 564q69 72 139 208l-79 42q-53 -135 -125 -214zM609 576q66 94 113 212l-75 30q-59 -162 -109 -216zM292 590q58 13 89 35q-22 15 -101 123q-47 64 -60 78q-10 -4 -34 -16q-37 -18 -53 -24q89 -62 159 -196z" />
</svg>
