<?xml version="1.0" standalone="no"?>
<!DOCTYPE svg PUBLIC "-//W3C//DTD SVG 1.1//EN" "http://www.w3.org/Graphics/SVG/1.1/DTD/svg11.dtd" >
<svg xmlns="http://www.w3.org/2000/svg" xmlns:xlink="http://www.w3.org/1999/xlink" version="1.1" viewBox="-10 0 1010 1000">
   <path fill="currentColor"
d="M163 30q16 5 198 8h298q25 -1 67 -3q105 -4 119 -5q-5 65 -8 151v204q3 128 8 167q-61 -8 -208 -8h-276q-135 1 -200 8q11 -34 10 -179v-190q-2 -116 -8 -153zM250 110v363h504v-363h-504zM464 129q93 5 99 16q1 2 -3 8q-12 23 -16 58h61q14 -1 37 -1q42 0 62 -5v73
q-19 -6 -101 -6h-67q-1 5 -7 17q-5 10 -7 15q36 14 186 83q-35 29 -55 64q-91 -65 -167 -95q-78 78 -147 103q-16 -37 -65 -62q134 -22 186 -125h-71q-9 1 -31 2q-44 1 -54 4v-73q21 5 83 6h85q0 -46 -8 -82zM526 560q47 46 91 123l-85 38q-34 -73 -88 -129zM804 590
q65 67 140 172l-77 58q-74 -122 -131 -179zM292 604q105 0 105 8q0 4 -5 15q-13 27 -13 52v71q-5 56 77 52h104q60 1 78 -22q21 -22 25 -95q36 34 95 46q-32 110 -60 125q-16 13 -44 17q-23 4 -87 4h-136q-85 1 -107 -17q-29 -19 -28 -78v-93q0 -69 -4 -85zM121 610
q88 12 95 19q0 5 -5 14q-10 17 -15 34q-3 11 -12 48q-20 88 -31 117q-57 -15 -95 -16q52 -91 63 -216z" />
</svg>
