<?xml version="1.0" standalone="no"?>
<!DOCTYPE svg PUBLIC "-//W3C//DTD SVG 1.1//EN" "http://www.w3.org/Graphics/SVG/1.1/DTD/svg11.dtd" >
<svg xmlns="http://www.w3.org/2000/svg" xmlns:xlink="http://www.w3.org/1999/xlink" version="1.1" viewBox="-10 0 1010 1000">
   <path fill="currentColor"
d="M395 397l-83 14q-18 -96 -48 -184l69 -14q27 71 62 184zM548 -2q102 14 107 26q-1 2 -6 6q-32 22 -54 78q214 0 292 -6q-67 139 -177 263q127 90 252 96q-38 45 -53 99q-35 -11 -62 -24q-5 15 -4 66v148q0 64 2 91q1 27 6 42h-91q-2 1 0 -10q6 -33 6 -65h-222q-1 62 4 81
h-94q8 -66 8 -137v-158q0 -30 -4 -56q-58 20 -85 38q-16 -36 -65 -72q181 -52 299 -142q-47 -62 -71 -124q-6 11 -18 32q-34 59 -58 92q-33 -31 -81 -32q101 -96 169 -332zM577 173q42 99 80 143q61 -68 103 -143h-183zM657 415q-80 58 -171 107q39 4 70 4h188q39 -1 71 -4
q-81 -40 -158 -107zM540 594v146h226v-146h-226zM177 -8q102 0 101 12q0 2 -4 9q-14 27 -14 59v651q0 129 4 172h-89q6 -38 6 -176v-607q0 -60 -4 -120zM50 193q28 2 85 6q2 154 -12 268q-16 -1 -36 -2h-49q10 -43 15 -132q3 -96 -3 -140z" />
</svg>
