<?xml version="1.0" standalone="no"?>
<!DOCTYPE svg PUBLIC "-//W3C//DTD SVG 1.1//EN" "http://www.w3.org/Graphics/SVG/1.1/DTD/svg11.dtd" >
<svg xmlns="http://www.w3.org/2000/svg" xmlns:xlink="http://www.w3.org/1999/xlink" version="1.1" viewBox="-10 0 1010 1000">
   <path fill="currentColor"
d="M169 -6q109 -1 107 8q1 3 -5 11q-17 22 -17 51v645q0 151 10 192h-97q10 -23 10 -190v-574q0 -132 -8 -143zM938 52v93q-35 -12 -172 -12h-294v230h145q10 -146 -4 -196q58 0 76 1q23 1 25 5t-3 12q-12 21 -13 48q-6 86 -6 130h82q121 0 149 -7v85q-27 -11 -149 -10h-66
q52 272 252 365q-41 26 -88 70q-3 4 -5 5q-170 -131 -198 -353q-20 213 -189 381q-46 -50 -91 -59q195 -89 222 -409h-143q-18 287 -115 444q-49 -37 -85 -53q134 -123 129 -486l-76 20q-15 -84 -61 -165l65 -24q36 69 72 153q-2 -76 -2 -141q0 -99 -8 -127q36 11 178 10
h199q145 0 174 -10zM56 193q37 7 71 9q13 1 14 3q0 1 -2 4q-10 20 -12 53q0 6 -1 26q-5 108 -15 163l-75 -8q13 -43 19 -114q6 -76 1 -136zM802 193q64 73 87 113l-77 38q-23 -67 -76 -117z" />
</svg>
