<?xml version="1.0" standalone="no"?>
<!DOCTYPE svg PUBLIC "-//W3C//DTD SVG 1.1//EN" "http://www.w3.org/Graphics/SVG/1.1/DTD/svg11.dtd" >
<svg xmlns="http://www.w3.org/2000/svg" xmlns:xlink="http://www.w3.org/1999/xlink" version="1.1" viewBox="-10 0 1010 1000">
   <path fill="currentColor"
d="M353 92q48 4 91 4h104q49 -1 85 -4v77q-25 -4 -75 -4h-110q-76 0 -95 6v-79zM692 296h-17q-25 0 -42 4v79q-32 -4 -71 -4h-58q-37 79 -95 250l137 -33q-18 -54 -42 -102l73 -23q2 6 7 19q34 102 61 159q48 -108 47 -349zM250 185l58 -32q22 29 70 99q11 16 15 22l-50 28
q42 6 95 6h106q13 0 45 -3q9 -1 14 -1v-85q6 0 21 1q24 1 39 1h31q2 -180 -7 -223q108 5 111 14q1 5 -5 13q-14 20 -15 47q-2 51 -6 149h81q33 0 80 -8q-4 183 -6 283q-3 206 -6 241q-3 83 -34 104q-22 22 -143 34q7 -54 -38 -105q76 13 105 0q28 -11 28 -61q0 -4 1 -13
q7 -151 13 -402h-83q-9 283 -55 373q-44 113 -207 238q-31 -43 -91 -63q128 -62 212 -173l-60 22l-7 -40q-137 39 -233 84q-6 -25 -25 -66q-7 -14 -10 -22q57 3 115 -229q8 -28 12 -43h-30h-13q-48 -1 -61 2v-61q-8 -45 -67 -131zM165 0q15 1 44 2q60 2 57 10q0 2 -4 9
q-14 27 -14 59v651q0 129 4 172h-89q6 -38 6 -176v-608q0 -59 -4 -119zM58 183q70 1 85 10q0 4 -4 11q-9 16 -10 33q-8 101 -28 216q-41 -11 -85 -14q40 -94 42 -256z" />
</svg>
