<?xml version="1.0" standalone="no"?>
<!DOCTYPE svg PUBLIC "-//W3C//DTD SVG 1.1//EN" "http://www.w3.org/Graphics/SVG/1.1/DTD/svg11.dtd" >
<svg xmlns="http://www.w3.org/2000/svg" xmlns:xlink="http://www.w3.org/1999/xlink" version="1.1" viewBox="-10 0 1034 1024">
  <g transform="matrix(1 0 0 -1 0 820)">
   <path fill="currentColor"
d="M207 227q0 -22 -7 -33l-16 -16l27 -45q21 15 52 32l109 55q55 24 81 37q0 19 4 51q-31 -18 -51 -28q-136 -66 -146 -70q-9 -3 -17 -8v214h196q21 -30 48 -60q13 -16 42 -40q52 -45 116 -80q78 -36 135 -60l69 -20q15 -4 28 -9q6 12 8 15q9 18 24 36q-54 1 -108 16
q-61 15 -136 56l96 56q42 25 55 30q12 6 43 11q-19 21 -38 50q-48 -45 -196 -124q-84 51 -136 123l259 -1q15 0 40 -4q-3 33 -5 65l1 207l4 35v12q-28 -1 -57 -5l-486 1q-15 3 -44 4q1 -19 2 -32q3 -21 4 -32v-439zM243 452v98h502v-98h-502zM243 586v104h502v-104h-502z
M57 -99q27 -6 47 -20q10 12 26 36l65 98q28 45 45 61l9 9q-28 7 -57 22q-12 -39 -50 -100q-48 -75 -85 -106zM360 67q0 12 2 29q1 19 12 38h-58q3 -7 4 -17q1 -36 2 -99q0 -76 2 -88q3 -22 19 -39q13 -12 46 -17q42 -4 139 -5q78 0 125 5q54 9 78 41q9 15 27 67q3 13 8 26
q-24 9 -51 27q1 -19 2 -34q0 -42 -19 -64q-21 -22 -55 -28q-24 -3 -121 -4l-52 1q-33 0 -54 2q-13 0 -26 3q-30 7 -30 52v104zM461 159q24 -13 40 -26q24 -18 76 -65q10 -10 22 -26q12 19 30 35q-21 19 -57 50l-84 69q-12 -21 -27 -37zM795 72q90 -90 106 -109q3 -3 29 -46
q0 -1 3 -6q21 21 37 32q-79 99 -154 170q-12 -15 -30 -33q4 -3 9 -8v0z" />
  </g>

</svg>
