<?xml version="1.0" standalone="no"?>
<!DOCTYPE svg PUBLIC "-//W3C//DTD SVG 1.1//EN" "http://www.w3.org/Graphics/SVG/1.1/DTD/svg11.dtd" >
<svg xmlns="http://www.w3.org/2000/svg" xmlns:xlink="http://www.w3.org/1999/xlink" version="1.1" viewBox="-10 0 1034 1024">
  <g transform="matrix(1 0 0 -1 0 820)">
   <path fill="currentColor"
d="M357 581q24 4 62 5l524 -1q15 0 27 -4v46q-3 0 -12 -3q-27 0 -50 -2l-527 1q-9 0 -24 4v-46zM446 -59v438q0 12 2 28q3 24 12 38h-58q1 -33 5 -66l-1 -440q-3 -12 -4 -44q63 10 86 11l368 21v-4l-4 -57q0 -1 -1 -4h49q-4 19 -5 61v474q0 13 2 30q1 22 12 38h-58
q1 -33 5 -68v-435zM757 427q6 19 14 37q13 30 33 55q-30 7 -56 21q-10 -84 -84 -235l-139 198q-21 -21 -43 -34q24 -15 36 -28q7 -9 62 -81l63 -95q-24 -46 -45 -79q-16 -27 -52 -71q-37 -45 -85 -72q33 -18 47 -35q78 93 88 108q30 40 69 105q0 3 2 4q42 -69 64 -112
q15 -30 29 -79q18 15 44 25l-23 45q-10 21 -32 57l-60 107q22 46 33 74zM566 764q88 -58 126 -121q15 18 36 32q-57 63 -123 122q-9 -9 -39 -33zM116 378l16 81q6 27 10 47q4 19 18 45q-18 1 -57 11q-6 -90 -16 -131q-16 -60 -33 -104q21 0 50 -5zM259 -153q-3 6 -5 45
l1 852q0 15 4 28q1 10 8 20h-56q1 -33 5 -67l-1 -842l-4 -36h48zM270 544q30 -37 47 -79q12 -25 15 -40q3 -12 5 -34q24 13 46 20l-24 59l-45 94q-21 -12 -44 -20v0z" />
  </g>

</svg>
