<?xml version="1.0" standalone="no"?>
<!DOCTYPE svg PUBLIC "-//W3C//DTD SVG 1.1//EN" "http://www.w3.org/Graphics/SVG/1.1/DTD/svg11.dtd" >
<svg xmlns="http://www.w3.org/2000/svg" xmlns:xlink="http://www.w3.org/1999/xlink" version="1.1" viewBox="-10 0 1010 1000">
   <path fill="currentColor"
d="M161 2q81 2 105 14q1 3 -4 10q-18 28 -18 68v111l56 -18q2 3 5 9q43 70 62 108v-89q0 -87 -1 -116q-1 -36 -5 -57q45 10 201 10h130q182 0 227 -8q-14 72 -14 200v459q0 166 12 186h-98q10 -17 10 -79h-387q-1 65 6 77h-95q15 -34 14 -188v-371l-71 26q-13 -70 -52 -127
v444q-1 208 10 226h-103q12 -19 12 -224v-540q0 -21 -1 -65t-1 -66zM829 119h-387v623h387v-623zM56 187q89 7 89 12q1 3 -3 9q-14 22 -17 58q-2 30 -18 195l-81 -6q30 -120 30 -268zM454 580q80 -63 141 -252q-91 0 -123 8v-74q16 4 40 5q12 1 31 1h60q0 -42 -1 -93
q-1 -19 -1 -24q9 1 25 2q63 5 62 8q1 2 -4 9q-13 19 -13 35v63q62 0 84 -1q26 -1 41 -5v72q-30 -6 -127 -6v87q11 -1 29 -11q7 -5 12 -7q72 95 103 161l-69 34q-20 -65 -75 -141v127q0 75 2 104q1 30 6 45q-38 -9 -86 0q10 -24 10 -121v-32v-127q-42 114 -101 204
q-15 -21 -46 -71z" />
</svg>
