<?xml version="1.0" standalone="no"?>
<!DOCTYPE svg PUBLIC "-//W3C//DTD SVG 1.1//EN" "http://www.w3.org/Graphics/SVG/1.1/DTD/svg11.dtd" >
<svg xmlns="http://www.w3.org/2000/svg" xmlns:xlink="http://www.w3.org/1999/xlink" version="1.1" viewBox="-10 0 1010 1000">
   <path fill="currentColor"
d="M808 14q50 90 45 98q-1 1 -7 0q-37 -7 -92 -4q-57 3 -198 13l-22 2v159h89q45 -70 56 -139q77 24 101 42q-1 2 -6 5q-37 21 -82 92h108q87 -4 131 -12v92q-43 -7 -129 -8h-175q42 57 142 94q94 34 181 23q-48 56 -61 101q-250 -64 -355 -216v87q1 51 8 107h-98
q8 -32 10 -109v-85q-179 189 -357 252q-23 -46 -63 -78q189 -40 325 -176h-163q-91 0 -131 8v-90q54 9 129 10h260v-149q-43 1 -220 16q-72 6 -103 8q1 -36 -32 -93q58 6 143 6q87 -1 189 -8q216 -16 377 -48zM300 159q31 40 59 87l-71 32q-18 -38 -56 -85zM522 574
q3 4 9 11q36 42 84 102l-69 51q-44 -79 -96 -123zM296 586q99 7 103 18q1 3 -3 10q-15 27 -15 67v61q-1 45 15 56q12 13 64 12h103q66 2 78 -16q16 -13 24 -95q40 39 95 59q-33 86 -61 104q-25 22 -102 21h-172q-82 1 -102 -20q-21 -14 -19 -89v-109q-1 -39 -8 -79zM778 598
q78 67 166 172l-67 66q-71 -106 -169 -187zM151 631q91 14 91 20q-3 4 -7 10q-8 9 -17 34q-22 66 -65 172q-48 -22 -84 -29q59 -74 82 -207z" />
</svg>
