<?xml version="1.0" standalone="no"?>
<!DOCTYPE svg PUBLIC "-//W3C//DTD SVG 1.1//EN" "http://www.w3.org/Graphics/SVG/1.1/DTD/svg11.dtd" >
<svg xmlns="http://www.w3.org/2000/svg" xmlns:xlink="http://www.w3.org/1999/xlink" version="1.1" viewBox="-10 0 1034 1024">
  <g transform="matrix(1 0 0 -1 0 820)">
   <path fill="currentColor"
d="M661 129l-284 1q-12 0 -24 4v-46q33 3 66 5h242l-1 -215q-3 -21 -4 -35h48q-1 3 -1 6q0 6 -2 11l-2 43v190h226q40 0 63 -5v46q-3 0 -13 -3q-27 0 -50 -2h-226v138h164q42 0 63 -5v46q-6 0 -9 -2q-1 0 -3 -1l-226 -2q-234 0 -254 3q-3 0 -10 2v-46q51 4 76 5h161v-138z
M448 458q0 -9 -5 -61q30 3 62 5l358 -1l39 -4q-6 60 -6 62l1 226q1 21 5 44q-18 -1 -29 -2q-22 -3 -30 -3l-361 1q-1 0 -39 4q1 -30 5 -61v-210zM485 588v100h372v-100h-372zM485 438v114h372v-114h-372zM37 313q33 -4 53 -10l47 192q6 25 21 48q-25 4 -57 15
q-6 -72 -23 -142q-18 -69 -41 -103zM249 -163q-6 42 -6 49l1 830q0 12 5 28q1 10 8 20h-58l7 -61q-1 -1 0 -5l-1 -819q-4 -24 -5 -42h49zM370 392q19 15 29 24q-28 55 -101 146q-6 -6 -17 -14q-9 -6 -17 -16q69 -60 96 -148q4 4 10 8v0z" />
  </g>

</svg>
