<?xml version="1.0" standalone="no"?>
<!DOCTYPE svg PUBLIC "-//W3C//DTD SVG 1.1//EN" "http://www.w3.org/Graphics/SVG/1.1/DTD/svg11.dtd" >
<svg xmlns="http://www.w3.org/2000/svg" xmlns:xlink="http://www.w3.org/1999/xlink" version="1.1" viewBox="-10 0 1034 1024">
  <g transform="matrix(1 0 0 -1 0 820)">
   <path fill="currentColor"
d="M142 560q-7 0 -17 4q-6 -54 -21 -112q-24 -87 -45 -123l45 -10q30 97 49 168q10 39 32 64q-6 0 -16 2q-10 1 -8 1q-10 3 -19 6zM214 766q4 -22 5 -66v-791q0 -28 -3 -53q0 -4 -3 -13h49q-1 12 -3 25q0 21 -2 41l1 808q0 12 5 20q3 15 15 29h-64zM288 575q30 -52 48 -87
q12 -24 27 -65q21 16 27 19q1 0 3 3l4 4q-1 6 -36 76q-30 51 -39 68q-9 -9 -22 -14q-6 -1 -12 -4zM400 -26q0 -31 7 -55q7 -28 29 -43q19 -12 91 -15l154 -2q108 0 167 10q64 10 87 65q10 27 24 80q-28 7 -54 25q3 -30 3 -38q0 -24 -10 -49q-15 -39 -71 -48q-28 -3 -80 -5
h-225q-9 1 -17 1q-48 3 -58 23q-9 16 -9 47v172l411 -1l47 -4q-4 54 -5 76q0 138 2 152q0 18 3 38q-33 -1 -67 -5l-386 1q-7 1 -15 2q-15 0 -33 2q1 -19 2 -32q3 -24 3 -32v-365zM438 178v185h190v-185h-190zM665 178v185h188v-185h-188zM849 494q-3 42 -4 78q0 106 2 119
q0 18 3 39q-33 -1 -68 -5l-288 1q-19 3 -48 4l3 -30q3 -27 4 -50l-1 -119q-1 -6 -6 -49q54 6 85 5l279 -1q16 0 40 -4q-1 6 -1 12zM489 523v167h317v-167h-317z" />
  </g>

</svg>
