<?xml version="1.0" standalone="no"?>
<!DOCTYPE svg PUBLIC "-//W3C//DTD SVG 1.1//EN" "http://www.w3.org/Graphics/SVG/1.1/DTD/svg11.dtd" >
<svg xmlns="http://www.w3.org/2000/svg" xmlns:xlink="http://www.w3.org/1999/xlink" version="1.1" viewBox="-10 0 1034 1024">
  <g transform="matrix(1 0 0 -1 0 820)">
   <path fill="currentColor"
d="M111 396q25 36 94 123l-1 -304l-5 -36h49l-6 51v356q9 13 16 28q24 49 33 61q6 12 30 40q-24 9 -55 25q-16 -63 -69 -154q-76 -135 -147 -179q21 -9 49 -28q6 9 12 17zM390 286q-3 21 -5 43l1 232q0 18 4 30q1 10 8 18h-56q1 -33 5 -67l-1 -224q-4 -24 -5 -32h49z
M879 571q46 0 62 -6v46q-10 0 -17 -3l-85 -2h-259q28 64 35 73q13 30 39 51q-31 9 -61 20q-9 -36 -15 -50q-18 -54 -63 -129q-60 -99 -112 -129q31 -13 54 -28q24 30 54 75q33 51 50 83h211q-9 -49 -25 -99q-18 -51 -60 -113q-72 75 -96 152q-18 -10 -44 -21q9 -13 17 -28
q30 -51 42 -67q18 -24 53 -61q-72 -60 -161 -101q-69 -27 -136 -30q24 -24 37 -49q67 24 143 57q61 28 147 96q46 -36 104 -70q48 -27 137 -65q10 15 14 19q9 9 21 27q-52 7 -110 33q-64 27 -139 83q40 60 69 129q18 54 28 108q33 0 66 -1zM514 139q-6 -7 -8 -12
q-9 -12 -22 -22q84 -57 117 -103q21 24 33 37l-58 50q-31 24 -62 50zM156 -73q24 37 65 107q15 30 19 32q9 15 30 30q-33 12 -59 28q-7 -27 -16 -47q-12 -25 -35 -64q-27 -45 -43 -68q-12 -16 -29 -30q27 -12 46 -26q10 19 22 38zM385 -44q0 108 3 121q1 15 10 26h-56
q1 -33 5 -67q0 -117 2 -126q1 -16 14 -26q4 -4 16 -12q30 -16 111 -17l96 2q78 1 107 13q34 15 53 54q13 33 24 69q-22 9 -54 23q1 -18 2 -34q0 -54 -41 -77q-19 -7 -56 -11q-54 -3 -111 -3q-27 0 -66 3q-16 1 -34 7q-27 9 -26 41q0 7 1 14zM892 43q-19 18 -39 34l-51 49
q-12 -18 -31 -36q60 -46 72 -59q67 -63 89 -102q16 18 35 37z" />
  </g>

</svg>
