<?xml version="1.0" standalone="no"?>
<!DOCTYPE svg PUBLIC "-//W3C//DTD SVG 1.1//EN" "http://www.w3.org/Graphics/SVG/1.1/DTD/svg11.dtd" >
<svg xmlns="http://www.w3.org/2000/svg" xmlns:xlink="http://www.w3.org/1999/xlink" version="1.1" viewBox="-10 0 1010 1000">
   <path fill="currentColor"
d="M167 0q99 3 101 14q1 3 -4 9q-16 18 -16 51v137l62 -12q62 117 73 159l-71 25q-34 -106 -64 -152v494q0 159 8 186h-93q5 -20 6 -57q2 -37 2 -125v-623q0 -58 -4 -106zM669 110v123h133v-123h-133zM460 110v123h137v-123h-137zM65 205q87 7 86 14q0 6 -3 9q-9 11 -15 50
q-2 12 -7 47q-11 87 -23 154q-36 -6 -73 -8q33 -137 35 -266zM669 294v129h133v-129h-133zM597 294h-137v131h137v-131zM391 201q0 -86 -1 -116q-2 -37 -7 -55q68 12 206 12h78q117 0 152 -2q47 -2 70 -8q-10 48 -10 169v121q0 131 8 176q-60 -12 -218 -10v104h59
q92 0 125 -1q40 -1 52 -5v85q-17 -5 -50 -6q-34 -2 -113 -2h-73v113h103q147 0 180 -8v88q-14 -5 -51 -7q-18 0 -46 -1h-85h-264q-158 0 -189 8v-88q36 8 183 8h97v-113h-53q-141 0 -175 8v-85q19 4 56 5q18 1 43 1h66h63v-102q-160 -3 -216 12q10 -49 10 -144v-157z" />
</svg>
