<?xml version="1.0" standalone="no"?>
<!DOCTYPE svg PUBLIC "-//W3C//DTD SVG 1.1//EN" "http://www.w3.org/Graphics/SVG/1.1/DTD/svg11.dtd" >
<svg xmlns="http://www.w3.org/2000/svg" xmlns:xlink="http://www.w3.org/1999/xlink" version="1.1" viewBox="-10 0 1034 1024">
  <g transform="matrix(1 0 0 -1 0 820)">
   <path fill="currentColor"
d="M54 345q24 -3 48 -12q7 19 19 60q12 39 22 79q10 51 15 60q3 12 22 24q-28 6 -60 19q-6 -63 -16 -105q-21 -81 -50 -125zM257 -158q-3 27 -5 56l1 816q0 15 5 25q1 9 8 18h-57q1 -30 5 -61l-1 -829q-1 -13 -4 -25h48zM318 586q-13 -9 -22 -14l-12 -5q46 -73 77 -148
q18 13 34 22zM636 -64l-276 1q-9 3 -14 3q-3 1 -5 1v-46q28 3 59 5l530 -1l31 -4v46q-3 0 -4 -1q-4 0 -8 -2q-25 0 -52 -2h-223v164l215 -1q21 0 31 -4v46q-3 0 -4 -1q-4 0 -8 -2q-25 0 -51 -2h-183v154l159 -1q24 -1 48 -5q-4 52 -5 104l1 282l4 46q-31 -1 -64 -5l-347 1
q-15 3 -45 4q1 -31 5 -65l-1 -321l-4 -46q60 6 80 6h131v-154l-208 1q-12 3 -21 4v-46q49 4 73 5h156v-164zM636 675v-162h-169v162h169zM467 325v152h169v-152h-169zM674 513v162h164v-162h-164zM674 325v152h164v-152h-164z" />
  </g>

</svg>
