<?xml version="1.0" standalone="no"?>
<!DOCTYPE svg PUBLIC "-//W3C//DTD SVG 1.1//EN" "http://www.w3.org/Graphics/SVG/1.1/DTD/svg11.dtd" >
<svg xmlns="http://www.w3.org/2000/svg" xmlns:xlink="http://www.w3.org/1999/xlink" version="1.1" viewBox="-10 0 1034 1024">
  <g transform="matrix(1 0 0 -1 0 820)">
   <path fill="currentColor"
d="M716 237v-288q0 -27 9 -45q9 -19 30 -31q24 -9 76 -10q43 0 69 5q30 6 50 26q12 15 37 84q-22 7 -51 25q1 -18 2 -32q0 -43 -26 -61q-18 -10 -79 -11q-60 0 -72 22q-6 12 -7 40v276l140 -5q-3 28 -5 58l1 210l4 51q-27 -1 -56 -5h-81q9 13 16 25q24 33 67 98q22 33 35 46
q7 9 31 26q-27 10 -55 28q-6 -13 -27 -51q-15 -30 -36 -61q-40 -61 -80 -111h-193q-6 0 -28 3q-13 0 -29 2q1 -33 5 -67l-1 -209q-3 -12 -4 -43q46 4 97 5h19q-6 -126 -25 -173q-39 -97 -130 -150q-49 -27 -109 -35q21 -21 38 -47q106 42 173 116q46 54 67 115q18 60 25 174
h103zM500 273v237h351v-237h-351zM465 723q31 -22 76 -77q34 -45 47 -71q16 16 38 29l-56 74q-36 43 -65 75q-18 -16 -40 -30zM109 538q-18 -126 -67 -236q21 -1 43 -10l42 139l15 55q6 18 22 33q-21 4 -33 9q-12 6 -22 10zM248 -165l-6 52l1 836q0 10 5 25q3 10 8 20h-58
q1 -7 4 -16q1 -28 3 -50l-1 -820q-3 -3 -3 -38q-1 -1 -2 -9h49zM373 465q0 -3 -6 11q-24 63 -33 85q-3 -1 -7 -4q-12 -7 -39 -21q57 -85 69 -183q24 15 47 22q-4 12 -10 28z" />
  </g>

</svg>
