<?xml version="1.0" standalone="no"?>
<!DOCTYPE svg PUBLIC "-//W3C//DTD SVG 1.1//EN" "http://www.w3.org/Graphics/SVG/1.1/DTD/svg11.dtd" >
<svg xmlns="http://www.w3.org/2000/svg" xmlns:xlink="http://www.w3.org/1999/xlink" version="1.1" viewBox="-10 0 1010 1000">
   <path fill="currentColor"
d="M212 32q54 5 189 8h230q111 0 163 -6q-7 55 -10 139v226h45q85 -2 119 -6v76q-31 -8 -109 -8h-381q-68 58 -145 91l366 -4q-33 -27 -66 -48l68 -31q113 74 180 129l-81 45q-8 -9 -21 -22q-13 -14 -17 -19q-499 7 -559 25q-6 -33 -34 -77q84 4 210 -89h-198q-94 3 -109 8
v-78q43 6 109 8h59v-228q-2 -86 -8 -139zM708 100h-412v69h412v-69zM296 221v63h412v-63h-412zM296 336v63h412v-63h-412zM528 625q26 52 53 112l-83 19q-19 -62 -52 -117zM159 649l9 3q81 26 78 29q0 1 -4 5q-15 12 -28 33q-49 77 -87 133q-25 -18 -83 -36q84 -75 115 -167
zM798 649q90 88 137 147l-84 44q-44 -84 -125 -155zM282 651q98 5 99 12q0 3 -4 7q-14 15 -14 53v39q-10 48 95 44h119q76 10 74 -101q23 34 89 49q-21 86 -48 102q-27 22 -117 21h-119q-101 1 -134 -18q-35 -16 -34 -69v-89q0 -15 -6 -50z" />
</svg>
