<?xml version="1.0" standalone="no"?>
<!DOCTYPE svg PUBLIC "-//W3C//DTD SVG 1.1//EN" "http://www.w3.org/Graphics/SVG/1.1/DTD/svg11.dtd" >
<svg xmlns="http://www.w3.org/2000/svg" xmlns:xlink="http://www.w3.org/1999/xlink" version="1.1" viewBox="-10 0 1034 1024">
  <g transform="matrix(1 0 0 -1 0 820)">
   <path fill="currentColor"
d="M248 719l4 -40v-320q-147 0 -169 3q-3 1 -9 2v-46q18 4 66 5h252q-63 -49 -116 -84q-57 -33 -93 -36q4 -24 10 -48q111 13 125 14l462 30q15 1 31 1q21 -13 56 -47q12 21 28 40q-64 45 -98 67q-1 0 -70 43q-16 10 -33 20h222q42 0 62 -5v46q-3 0 -12 -3l-99 -2h-73l1 332
l4 46q-30 -1 -59 -5l-456 1q-15 3 -37 4q0 -9 1 -18zM289 359v94h467v-94h-467zM289 488v85h467v-85h-467zM289 609v87h467v-87h-467zM462 323h211q-7 -12 -23 -31q51 -18 113 -59q-30 0 -298 -17l-70 -4l-102 -6q150 106 166 115q1 1 3 2zM508 158q-15 -21 -32 -38
q72 -36 119 -100q15 21 30 36q-15 13 -28 27q-12 12 -28 24q-51 40 -61 51zM153 -79q24 33 48 69q16 25 33 52q1 6 7 10q13 16 35 33q-31 12 -58 29q-12 -33 -22 -55q-6 -12 -31 -51q-27 -40 -43 -58q-13 -16 -43 -40q30 -12 50 -26q12 19 24 37zM384 64q0 12 2 29
q1 21 11 38h-56q1 -33 5 -67l1 -116q1 -16 10 -32q9 -13 33 -26q16 -6 51 -9l156 -2h12q45 3 70 7q49 12 77 67q7 18 18 53q-24 9 -49 25q-1 -75 -31 -97q-22 -15 -65 -18l-131 -2q-66 0 -85 9q-28 10 -29 56v85zM768 90q37 -18 84 -64q40 -40 58 -63q18 -22 30 -47l38 40
l-41 42q-63 69 -133 132q-13 -19 -24 -30q-1 -1 -12 -10v0z" />
  </g>

</svg>
