<?xml version="1.0" standalone="no"?>
<!DOCTYPE svg PUBLIC "-//W3C//DTD SVG 1.1//EN" "http://www.w3.org/Graphics/SVG/1.1/DTD/svg11.dtd" >
<svg xmlns="http://www.w3.org/2000/svg" xmlns:xlink="http://www.w3.org/1999/xlink" version="1.1" viewBox="-10 0 1010 1000">
   <path fill="currentColor"
d="M502 14q92 0 95 8q1 2 -3 8q-15 28 -15 64v355q58 -20 113 -80q-41 -63 -81 -169q-5 -14 -8 -21q4 -1 12 -2q44 -7 72 -14q-3 54 45 153q44 -74 66 -195h-104q-44 0 -81 6v-69q21 3 40 3q15 1 51 1h78q57 1 101 -6q-31 201 -97 306q73 59 164 79q-46 39 -67 81
q-90 -53 -141 -99q-19 17 -51 46q-30 28 -42 39q-24 -30 -70 -55q0 32 2 59h-79q6 -22 6 -85v-343q0 -19 -6 -70zM171 16q79 -3 89 6q1 3 -3 9q-13 23 -13 65v119l60 -16q2 4 6 11q56 103 61 122v-173q0 -48 -6 -92v-3q6 0 17 1q77 5 72 11q0 4 -4 8q-8 10 -8 28v259
q0 51 1 71q1 25 3 39h-79q4 -78 4 -118l-65 22q-23 -85 -62 -158v559q0 61 1 81q1 26 3 38q-42 -6 -79 0q7 -39 8 -125v-647q0 -65 -5 -112q-1 -3 -1 -5zM58 195q7 1 20 3q46 8 67 15q-1 10 -5 42q-23 175 -31 220q-13 -2 -37 -5q-29 -3 -42 -5q15 -55 23 -136q9 -82 5 -134
zM589 512q82 1 92 10q1 2 -3 8q-15 22 -15 62h101q69 0 107 -10l-2 83h-4q-53 -6 -101 -6h-99v117h150q71 0 91 -1q26 -1 34 -5v88q-50 -10 -127 -10h-386q-67 0 -108 6q6 -45 0 -84l108 6h166v-117h-97q-66 0 -109 4v-77q48 6 111 6h95q0 -42 -4 -80z" />
</svg>
