<?xml version="1.0" standalone="no"?>
<!DOCTYPE svg PUBLIC "-//W3C//DTD SVG 1.1//EN" "http://www.w3.org/Graphics/SVG/1.1/DTD/svg11.dtd" >
<svg xmlns="http://www.w3.org/2000/svg" xmlns:xlink="http://www.w3.org/1999/xlink" version="1.1" viewBox="-10 0 1034 1024">
  <g transform="matrix(1 0 0 -1 0 820)">
   <path fill="currentColor"
d="M221 248l-4 -57q0 -1 -1 -4h48q-3 6 -5 50v366q49 81 64 95q4 7 12 13q10 9 23 21q-28 12 -57 28q-28 -75 -110 -180q-81 -100 -134 -125q28 -13 48 -32l116 129v-304zM444 543q13 15 34 41h368q-12 -43 -23 -71q-7 -22 -18 -41q12 0 21 1q9 0 26 -4q7 27 15 47
q9 28 16 57q6 18 16 52q-30 -1 -61 -5h-334q9 16 20 31q24 39 33 48q6 9 33 27q-27 12 -59 32q-9 -27 -23 -52q-36 -61 -72 -108q-37 -49 -65 -76q-24 -21 -55 -34q33 -16 51 -33q4 3 8 8q1 0 3 3q9 12 21 23q7 9 15 19q15 18 30 35zM613 515q0 -3 6 -54v-192q0 -30 -15 -35
q-16 -6 -40 -6q-16 0 -53 5q9 -24 12 -47q24 0 43 4q48 6 68 17q22 12 23 51v192q0 16 13 65h-57zM489 169q-24 -25 -33 -31q69 -55 108 -130q18 18 35 30l-85 103zM216 37q0 1 2 4l5 6q15 18 36 30q-39 18 -58 31q-13 -36 -23 -53q-10 -18 -31 -47q-40 -57 -83 -89
q22 -13 40 -30l77 99q16 25 35 49zM369 49q0 4 3 22q3 24 10 41h-58q0 -3 4 -16l3 -139q0 -31 8 -50q3 -9 12 -19q1 -1 7 -5q22 -15 74 -19l120 -2q45 0 87 3q60 4 87 31q19 18 30 56l15 47q-21 9 -50 27q0 -7 1 -17q0 -45 -15 -73q-16 -30 -63 -34q-30 -3 -181 -3
q-55 3 -72 11q-21 12 -22 54v85zM953 -32l12 15l-119 107l-71 60q-12 -19 -28 -37q108 -72 185 -169zM387 260q30 30 58 61q27 30 39 45q7 7 11 10q12 13 40 26q-36 21 -56 38q-16 -39 -65 -95q-48 -54 -94 -83q21 -15 37 -35zM922 290q-87 79 -133 118l-18 15q-9 9 -22 19
q-12 -18 -26 -32q-3 -3 -7 -6q25 -13 41 -25q21 -15 49 -40q33 -30 54 -50q13 -13 30 -38q12 18 20 24z" />
  </g>

</svg>
