<?xml version="1.0" standalone="no"?>
<!DOCTYPE svg PUBLIC "-//W3C//DTD SVG 1.1//EN" "http://www.w3.org/Graphics/SVG/1.1/DTD/svg11.dtd" >
<svg xmlns="http://www.w3.org/2000/svg" xmlns:xlink="http://www.w3.org/1999/xlink" version="1.1" viewBox="-10 0 1010 1000">
   <path fill="currentColor"
d="M754 -6q28 11 72 24q32 9 33 12q0 1 -5 6q-47 46 -108 173q39 0 122 -7q6 -1 9 -1q-6 39 -6 152t6 155q-51 -9 -129 -6v252q-7 49 64 42q37 -1 49 -20q13 -17 22 -83q34 33 85 49q-34 133 -101 127h-113q-88 6 -81 -71v-296h-76q-1 159 -43 226q-44 83 -173 167
q-30 -38 -81 -63q127 -51 176 -124q50 -70 50 -206q-65 0 -105 6q6 -52 6 -162q0 -108 -6 -143q43 6 97 6h155q61 -139 81 -215zM175 0q102 4 107 10q0 2 -2 6q-20 38 -20 143v593q-1 89 8 153h-95q9 -60 8 -155v-595q0 -83 -6 -155zM518 0q58 71 103 149l-79 38
q-33 -85 -102 -151zM341 187q33 76 64 180l-84 22q-20 -110 -53 -184zM63 207q91 0 92 8q0 1 -1 5q-20 59 -35 265l-81 -6q16 -53 23 -128q7 -77 2 -144zM796 276h-294v159h294v-159z" />
</svg>
