<?xml version="1.0" standalone="no"?>
<!DOCTYPE svg PUBLIC "-//W3C//DTD SVG 1.1//EN" "http://www.w3.org/Graphics/SVG/1.1/DTD/svg11.dtd" >
<svg xmlns="http://www.w3.org/2000/svg" xmlns:xlink="http://www.w3.org/1999/xlink" version="1.1" viewBox="-10 0 1034 1024">
  <g transform="matrix(1 0 0 -1 0 820)">
   <path fill="currentColor"
d="M388 491l-211 1q-12 0 -33 5v-47q18 6 66 6h178v-121h-246q-49 0 -65 5v-45q16 3 65 4h246l-4 -95q0 -3 -1 -5h48q-3 24 -5 47l1 462q0 18 4 30q1 10 8 18h-56q1 -33 5 -68v-40l-259 1q-12 0 -24 4v-46q19 4 65 5h218v-121zM469 154q30 -21 69 -63q28 -33 49 -62
q12 18 34 33q-63 69 -121 123q-18 -19 -31 -31zM621 657v31q0 15 2 30q1 22 11 38h-56q1 -33 5 -68l-1 -461q-3 -27 -4 -35h48q-1 3 -1 5q-1 3 -4 46v65l287 -1q12 0 29 -4v46q-9 0 -12 -3q-27 0 -50 -2h-254v117h190q37 0 63 -5v46q-3 0 -7 -1l-2 -1q-1 0 -3 -1l-146 -2
h-95v124h223q37 0 63 -5v46q-3 0 -13 -3q-27 0 -50 -2h-223zM147 -51q9 18 77 141q10 18 31 32q-33 12 -63 28q-9 -52 -45 -115q-27 -49 -41 -70q-13 -19 -29 -33q36 -12 50 -21q6 9 12 21q3 9 8 17zM692 33q1 -18 2 -31q0 -46 -21 -73q-13 -18 -69 -22q-49 -3 -98 -4
q-30 0 -72 3q-18 1 -35 7q-27 10 -25 41q0 157 3 164q0 9 6 33q1 9 5 17h-57l6 -93l1 -145q1 -15 6 -23q7 -12 25 -22q27 -18 110 -18l112 2q64 3 89 15t40 46q9 21 28 83q-15 6 -35 11q-3 0 -21 9zM760 134q27 -22 45 -46q24 -27 81 -106q10 -18 27 -50q9 7 15 14
q4 4 14 11q3 3 7 6q-66 94 -153 205q-15 -16 -36 -34v0z" />
  </g>

</svg>
