<?xml version="1.0" standalone="no"?>
<!DOCTYPE svg PUBLIC "-//W3C//DTD SVG 1.1//EN" "http://www.w3.org/Graphics/SVG/1.1/DTD/svg11.dtd" >
<svg xmlns="http://www.w3.org/2000/svg" xmlns:xlink="http://www.w3.org/1999/xlink" version="1.1" viewBox="-10 0 1010 1000">
   <path fill="currentColor"
d="M651 -21q17 26 43 113l-85 21q-9 -51 -42 -111zM157 2q99 1 107 14q0 2 -3 7q-19 36 -19 106v66l66 -28q63 119 91 195l-87 33q-26 -119 -70 -184v579q0 69 6 117h-91q6 -49 6 -121v-671q1 -60 -6 -113zM357 115q78 10 125 10h330q36 -2 111 -10v90q-56 -12 -110 -8h-303
q71 21 69 30q0 3 -6 12q-26 39 -47 95q25 16 84 76l7 7q-30 15 -63 50q-22 -44 -56 -78q-36 76 -85 155q-30 -25 -90 -36q140 -130 161 -311q-66 -1 -127 8v-90zM54 199q6 0 17 1q75 5 72 11q0 2 -1 8q-20 61 -31 248q-24 -9 -83 0q16 -61 24 -134q7 -75 2 -134zM581 528
q91 1 100 10q1 3 -3 11q-13 24 -13 55h170q54 0 107 -6v81q-49 -8 -105 -8h-172v137q0 53 8 111h-90q6 -42 6 -109v-139h-162q-60 -1 -115 8v-83q77 8 115 8h162q0 -41 -8 -76zM813 233q2 1 -2 5q-27 28 -49 94q78 56 175 139q-52 30 -80 59q-5 -7 -15 -20
q-58 -82 -106 -113q-8 16 -30 66q-16 35 -25 55q-37 -25 -78 -31q102 -129 125 -278q51 6 85 24z" />
</svg>
