<?xml version="1.0" standalone="no"?>
<!DOCTYPE svg PUBLIC "-//W3C//DTD SVG 1.1//EN" "http://www.w3.org/Graphics/SVG/1.1/DTD/svg11.dtd" >
<svg xmlns="http://www.w3.org/2000/svg" xmlns:xlink="http://www.w3.org/1999/xlink" version="1.1" viewBox="-10 0 1034 1024">
  <g transform="matrix(1 0 0 -1 0 820)">
   <path fill="currentColor"
d="M633 95l-295 1q-12 0 -24 4v-46q33 3 66 5h253l-1 -199q-3 -27 -4 -35h48q-1 3 -1 5q-1 3 -4 46v183l276 -1l30 -4v46q-6 0 -9 -2q-3 0 -4 -1q-27 0 -50 -2h-243v121h153q9 0 33 -3l28 -3q-3 27 -5 55l1 244l4 44q-30 -1 -59 -5h-175v94h224q42 0 62 -5v46q-3 0 -12 -3
q-27 0 -50 -2h-224q0 66 3 71q1 16 11 31h-57l5 -111v-121q-135 0 -164 2l-33 3q1 -30 5 -63l-1 -239q-3 -12 -4 -41q48 6 67 6h150v-121zM459 403v109h383v-109h-383zM459 251v116h383v-116h-383zM68 331q15 -4 24 -8l15 56l23 84q10 42 16 52q4 18 19 37q-22 4 -29 7
q-6 1 -26 10q-12 -75 -29 -137q-18 -63 -39 -94zM243 -177q-4 19 -5 61v817q0 12 2 28q1 22 12 38h-57q1 -33 5 -66l-1 -837q-1 -9 -2 -32q-1 -1 -1 -4q-1 -1 -1 -5h48zM351 522q-12 31 -33 70q-13 -9 -38 -22q46 -81 66 -168q10 9 45 20q-16 43 -26 63q-7 19 -14 37v0z" />
  </g>

</svg>
