<?xml version="1.0" standalone="no"?>
<!DOCTYPE svg PUBLIC "-//W3C//DTD SVG 1.1//EN" "http://www.w3.org/Graphics/SVG/1.1/DTD/svg11.dtd" >
<svg xmlns="http://www.w3.org/2000/svg" xmlns:xlink="http://www.w3.org/1999/xlink" version="1.1" viewBox="-10 0 1034 1024">
  <g transform="matrix(1 0 0 -1 0 820)">
   <path fill="currentColor"
d="M493 690h401v-741q0 -37 -16 -49q-13 -7 -49 -8q-30 0 -77 7q9 -30 13 -54q42 1 81 6q51 6 68 24q18 19 18 60l1 751q0 10 3 22q0 9 2 23q-28 -1 -58 -5l-387 1q-19 3 -42 4q1 -30 5 -61v-368q0 -121 -17 -216q-18 -81 -56 -154q-21 -37 -57 -70q27 -4 56 -16
q43 72 65 131q12 31 22 75q9 39 15 80q9 70 9 197v361zM670 367q-106 0 -122 3l-13 3v-47q12 3 9 3q31 0 56 3l232 -1q16 -1 26 -5v47q-4 0 -8 -1q-3 0 -4 -2q-36 0 -74 -3h-64v137q117 0 127 -3q4 0 6 -2v46q-6 0 -9 -1q-1 0 -3 -2l-121 -2v45q0 12 13 64h-56l4 -36l1 -73
q-90 0 -109 3q-3 0 -10 2v-46q54 4 80 5h39v-137zM570 76q-3 -27 -5 -54q19 4 50 5l166 -1q15 0 36 -4q-4 45 -5 86q0 102 2 113q0 9 2 14q0 10 1 19q-25 -1 -51 -5l-164 1q-3 1 -34 4h-3q4 -94 5 -98v-80zM607 63v150h167v-150h-167zM96 296q12 -3 21 -6q18 78 32 152
q9 42 14 57q6 18 18 44q-34 4 -57 12q-7 -85 -25 -169q-10 -48 -29 -86q1 0 4 -1q10 0 22 -3zM259 -166q-4 19 -5 61v808q0 12 2 28q1 22 11 38h-56q1 -33 5 -66l-1 -828q-1 -9 -2 -31q-1 -1 -1 -4q-1 -3 -1 -6h48zM382 377q4 4 37 21q-9 21 -13 27l-26 59q-40 84 -41 87
t-1 5q-21 -15 -41 -26q21 -30 46 -83q24 -54 36 -92q1 1 3 2v0z" />
  </g>

</svg>
