<?xml version="1.0" standalone="no"?>
<!DOCTYPE svg PUBLIC "-//W3C//DTD SVG 1.1//EN" "http://www.w3.org/Graphics/SVG/1.1/DTD/svg11.dtd" >
<svg xmlns="http://www.w3.org/2000/svg" xmlns:xlink="http://www.w3.org/1999/xlink" version="1.1" viewBox="-10 0 1010 1000">
   <path fill="currentColor"
d="M667 -12q24 40 49 120l-89 19q-16 -74 -44 -117zM173 -4q92 5 105 12q0 3 -6 12q-18 26 -18 54v635q0 116 1 144q2 39 7 50h-93q5 -20 6 -59q2 -39 2 -131v-617q-1 -65 -4 -100zM363 127q29 8 171 8h274q73 0 100 -1q33 -2 52 -7v90q-24 -8 -150 -8h-278q-129 0 -169 8
v-90zM69 195q80 2 94 8q1 5 -6 19q-13 23 -16 42q-1 4 -2 12q-15 102 -30 169q-18 -6 -83 -8q37 -85 43 -242zM411 296q50 8 166 8h104q82 0 122 -2q45 -2 66 -6q-4 13 -5 37q-1 12 -1 32v60q0 115 8 151q-31 -6 -190 -6v244q2 52 -25 68q-28 19 -112 23q-7 -52 -38 -95
q70 11 82 5q17 -4 15 -39v-206q-93 0 -132 2q-40 2 -58 8q6 -31 6 -149q0 -111 -8 -135zM498 371v131h286v-131h-286zM448 608q86 27 98 43q0 2 -6 5q-22 10 -36 31q-76 109 -129 173q-36 -29 -83 -38q87 -75 156 -214zM808 608q90 91 154 184l-73 60q-71 -123 -151 -199z
M329 199q31 49 64 139l-76 31q-23 -87 -57 -142z" />
</svg>
