<?xml version="1.0" standalone="no"?>
<!DOCTYPE svg PUBLIC "-//W3C//DTD SVG 1.1//EN" "http://www.w3.org/Graphics/SVG/1.1/DTD/svg11.dtd" >
<svg xmlns="http://www.w3.org/2000/svg" xmlns:xlink="http://www.w3.org/1999/xlink" version="1.1" viewBox="-10 0 1034 1024">
  <g transform="matrix(1 0 0 -1 0 820)">
   <path fill="currentColor"
d="M629 384q1 21 4 40q-28 -1 -57 -5h-67q6 15 11 29q16 48 42 80q-30 3 -61 13q-9 -61 -39 -141q-42 -105 -84 -169q-22 -31 -63 -61q27 -10 50 -28q81 118 132 241h94q-4 -78 -14 -126q-9 -48 -26 -100q-12 15 -57 62q-9 9 -18 17q-13 -16 -34 -37q28 -16 42 -29
q21 -19 51 -54q-54 -108 -134 -181q-48 -42 -95 -60q30 -19 46 -36q13 12 29 25q49 45 78 73q24 25 50 61q87 127 110 287zM393 623q4 -94 5 -98l-4 -63q-1 0 -1 -2h48q-4 18 -5 37v85h451l-4 -116q0 -1 -1 -4h48q-3 21 -5 42q0 72 2 86q0 10 2 15q0 9 1 18q-28 -1 -58 -5
l-438 1q-15 3 -41 4zM607 764q-13 -15 -32 -32q30 -16 86 -71q12 -12 28 -39q9 12 25 24q1 1 8 6q-33 36 -62 64q-24 24 -53 48zM677 -67q0 -21 8 -39q6 -16 25 -26q25 -12 93 -13q63 0 87 6q27 6 42 23q10 10 18 27q7 21 19 61q-12 3 -22 9q-9 4 -25 14q1 -15 2 -26
q0 -45 -24 -64q-18 -13 -86 -14q-75 0 -90 16q-9 9 -9 48v437h131v-234q0 -30 -15 -40q-12 -4 -26 -5q-12 0 -49 4q12 -24 20 -49q63 9 86 24q21 18 22 65l1 231l4 45q-27 -1 -54 -5l-124 1q-15 3 -39 4q1 -30 5 -60v-440zM113 545q-6 -84 -23 -155q-13 -48 -28 -79
q22 -3 47 -8l14 55l17 82q6 27 11 47q6 22 20 44q-21 3 -35 7q-12 4 -23 7zM255 -161q-4 18 -5 60v790q0 13 2 29q1 21 11 38h-56l5 -58q-1 -4 0 -9l-1 -810q-1 -9 -2 -31q-1 -1 -2 -9h48zM360 374q18 9 33 13q-27 81 -67 173q-21 -12 -39 -18q6 -9 18 -36l19 -47
q21 -60 27 -92q4 4 9 7v0z" />
  </g>

</svg>
