<?xml version="1.0" standalone="no"?>
<!DOCTYPE svg PUBLIC "-//W3C//DTD SVG 1.1//EN" "http://www.w3.org/Graphics/SVG/1.1/DTD/svg11.dtd" >
<svg xmlns="http://www.w3.org/2000/svg" xmlns:xlink="http://www.w3.org/1999/xlink" version="1.1" viewBox="-10 0 1034 1024">
  <g transform="matrix(1 0 0 -1 0 820)">
   <path fill="currentColor"
d="M630 412l-234 1q-12 0 -24 4v-46q31 3 65 5l518 -1q15 0 27 -4v46q-4 0 -8 -1q-3 0 -4 -2q-27 0 -50 -2h-252v91h150q42 0 63 -5v46q-3 0 -12 -3l-201 -2v85h185q43 0 64 -5v46q-10 0 -13 -3l-143 -2h-92v56l-1 1q0 16 6 46q0 3 8 20h-57q1 -33 5 -67v-56l-211 1
q-12 0 -24 4v-46q54 4 77 5h158v-85l-153 1q-9 1 -17 2q-3 0 -12 2v-46q1 0 3 1q-3 0 9 1q24 3 54 3h116v-91zM437 303l4 -50l-1 -386q-3 -21 -4 -36h48q-3 24 -5 47v126h362v-73q0 -30 -18 -37q-27 -7 -61 -8q-15 0 -41 2q10 -22 18 -47q30 1 61 7q49 9 67 26q12 16 12 53
l1 341q0 15 4 43q-27 -1 -55 -5l-352 1q-6 1 -13 2q-12 0 -28 2q0 -3 1 -8zM479 172v96h362v-96h-362zM479 39v97h362v-97h-362zM85 311q7 0 21 -5l31 144q4 33 12 54q0 6 8 22q3 9 10 18q-24 3 -35 6l-23 6q-6 -85 -22 -160q-12 -48 -28 -80zM255 -172q-4 27 -5 61v812
q0 12 2 28q1 19 11 38h-57q3 -15 6 -48q-1 -7 0 -18l-1 -838q-1 -6 -2 -25q-1 -1 -1 -5q-1 -1 -1 -5h48zM364 438q6 3 21 12q1 0 3 3l16 8l-60 94q-18 27 -33 46q-3 -1 -4 -4q-31 -22 -32 -25q60 -51 87 -136q0 1 2 2v0z" />
  </g>

</svg>
