<?xml version="1.0" standalone="no"?>
<!DOCTYPE svg PUBLIC "-//W3C//DTD SVG 1.1//EN" "http://www.w3.org/Graphics/SVG/1.1/DTD/svg11.dtd" >
<svg xmlns="http://www.w3.org/2000/svg" xmlns:xlink="http://www.w3.org/1999/xlink" version="1.1" viewBox="-10 0 1034 1024">
  <g transform="matrix(1 0 0 -1 0 820)">
   <path fill="currentColor"
d="M629 256q-16 -58 -65 -119q-70 -85 -157 -106q30 -24 46 -43q24 15 71 54q42 36 66 64q49 58 84 150h111q-21 -85 -29 -105q-21 -64 -65 -117q-51 -64 -147 -117q-64 -33 -104 -33q-6 0 -10 1q24 -24 41 -48q69 30 133 70q120 78 173 196q13 30 24 59l26 94h95l-9 -239
l-3 -23q-6 -57 -31 -72q-15 -9 -61 -10q-18 0 -51 4q13 -30 19 -55q57 3 96 15q40 16 56 60q6 24 10 58l22 303q-30 -1 -59 -5h-351q36 48 69 99l247 -1q15 0 43 -4q-3 30 -5 62l1 239l4 46q-30 -1 -60 -5l-335 1q-19 3 -45 4q1 -30 5 -62l-1 -240q-3 -12 -4 -45q49 4 101 5
q-36 -66 -105 -129q-60 -52 -111 -67q30 -18 48 -38q54 45 113 99h104zM521 427v118h355v-118h-355zM521 581v111h355v-111h-355zM86 281q1 0 7 -1q3 0 8 -2q3 -1 7 -2q4 24 35 154q9 43 13 51q6 25 16 40q1 4 5 7q-25 4 -62 18q-6 -79 -26 -173q-15 -51 -31 -87
q12 -3 14 -3q6 0 14 -2zM270 -169q-4 19 -5 61v798q0 15 2 30q1 22 11 38h-56q1 -33 5 -68l-1 -818q-1 -9 -2 -31q-1 -1 -1 -4q-1 -3 -1 -6h48zM392 401q15 9 20 9q6 0 19 6q0 3 -3 8q-4 9 -22 61l-44 107q-21 -13 -48 -26q25 -31 45 -78q18 -42 24 -90z" />
  </g>

</svg>
