<?xml version="1.0" standalone="no"?>
<!DOCTYPE svg PUBLIC "-//W3C//DTD SVG 1.1//EN" "http://www.w3.org/Graphics/SVG/1.1/DTD/svg11.dtd" >
<svg xmlns="http://www.w3.org/2000/svg" xmlns:xlink="http://www.w3.org/1999/xlink" version="1.1" viewBox="-10 0 1034 1024">
  <g transform="matrix(1 0 0 -1 0 820)">
   <path fill="currentColor"
d="M599 785q-16 0 -42 3l17 -151l-469 1q-9 1 -13 2q-3 0 -10 3v-47q18 4 62 5h433q24 -174 77 -276q-45 -52 -69 -72q-25 -21 -55 -33q30 -22 45 -36l40 42l61 65q33 -42 59 -71q18 -18 47 -41q42 -34 86 -35q39 0 57 47q9 27 20 76q-25 7 -52 24q3 -21 4 -41q0 -21 -6 -36
q-7 -27 -27 -27q-16 0 -47 16q-27 18 -61 54q-21 21 -55 66l45 70q6 7 8 12q10 19 25 38q18 30 50 57q-24 9 -54 27q-31 -79 -94 -165q-48 96 -64 239h244q42 0 60 -5v47q-7 0 -12 -4q-27 0 -48 -2h-249q-3 33 -7 55q0 13 -1 26q0 27 12 67h-17zM88 226q9 -21 20 -54
q144 33 148 34l84 17l80 16l48 10l49 7q0 22 3 26q1 6 6 23q-30 -9 -76 -21q-54 -12 -137 -28q-147 -30 -225 -30zM176 504q3 -51 4 -59q0 -51 -2 -79q-1 -3 -1 -7q0 -9 -2 -23q27 3 56 5l227 -1l37 -4q-6 57 -6 85q0 52 2 63q0 10 4 38q-27 -1 -53 -5l-229 1q-19 3 -38 4
q0 -9 1 -18zM216 377v104h237v-104h-237zM671 741q60 -33 90 -88q9 18 30 34q-37 40 -87 89q-16 -19 -33 -35zM471 181q-21 -21 -27 -25q-3 -3 -10 -7q27 -18 52 -51q21 -27 42 -69q6 3 14 11q3 4 21 16q-18 28 -29 44q-7 10 -15 20q-39 46 -48 61zM90 -105q25 -6 45 -17
q15 27 26 50l29 62q21 49 32 65q6 13 26 35q-12 3 -26 9q-9 3 -14 5l-16 7q-6 -33 -38 -112q-33 -73 -64 -104zM359 -18q0 111 3 120q1 15 10 27h-55q0 -3 5 -64l1 -122q1 -21 18 -37q4 -4 12 -8q30 -16 108 -17l115 2q81 3 108 22q15 10 29 38q24 60 25 64q-21 7 -49 25
q-1 -49 -11 -76q-15 -31 -66 -37q-48 -3 -105 -4q-34 0 -71 2q-51 6 -62 14q-18 12 -16 36q0 7 1 15zM801 103q-9 12 -19 26q-18 -19 -41 -37q40 -28 85 -84q36 -54 52 -84q18 18 37 30q-15 18 -31 42l-58 78z" />
  </g>

</svg>
