<?xml version="1.0" standalone="no"?>
<!DOCTYPE svg PUBLIC "-//W3C//DTD SVG 1.1//EN" "http://www.w3.org/Graphics/SVG/1.1/DTD/svg11.dtd" >
<svg xmlns="http://www.w3.org/2000/svg" xmlns:xlink="http://www.w3.org/1999/xlink" version="1.1" viewBox="-10 0 1010 1000">
   <path fill="currentColor"
d="M185 -17q109 2 109 9q1 1 -3 10q-23 52 -23 123v639q0 87 6 143h-87q5 -57 5 -139v-645q0 -12 -3 -57q-3 -51 -4 -83zM433 22q49 3 92 3q21 1 50 1h84q112 0 149 -1q47 0 75 -3q-5 34 -4 134v57q0 77 1 111q1 39 3 55q-12 -2 -34 -3q-11 -1 -27 -1h-42h-199q-9 15 -32 50
q-12 18 -17 26h266q71 0 137 -8q-21 190 -36 311q-5 85 -43 108q-40 32 -162 47q-5 -56 -41 -103q99 12 127 -3q30 -11 35 -74q8 -58 20 -164q4 -31 6 -47h-53q-69 252 -344 395q-35 -43 -79 -69q241 -56 347 -326h-63q-101 171 -264 262q-28 -33 -83 -61q171 -47 265 -201
h-83q-58 66 -103 105q-35 -35 -79 -55q119 -59 200 -193q-35 0 -69 6q4 -25 4 -141v-37q0 -91 -1 -122q-1 -38 -3 -59zM512 94v81h292v-81h-292zM349 169q37 56 74 167l-84 33q-14 -68 -63 -168zM62 193q12 2 33 5q68 8 66 15q0 2 -2 10q-19 65 -36 234q-42 -11 -89 -12
q28 -131 28 -252zM512 235v73h292v-73h-292z" />
</svg>
