<?xml version="1.0" standalone="no"?>
<!DOCTYPE svg PUBLIC "-//W3C//DTD SVG 1.1//EN" "http://www.w3.org/Graphics/SVG/1.1/DTD/svg11.dtd" >
<svg xmlns="http://www.w3.org/2000/svg" xmlns:xlink="http://www.w3.org/1999/xlink" version="1.1" viewBox="-10 0 1034 1024">
  <g transform="matrix(1 0 0 -1 0 820)">
   <path fill="currentColor"
d="M298 572q42 -51 63 -112q15 12 38 24q-3 6 -6 14l-40 66q-6 12 -20 31q-13 -9 -26 -16q-4 -3 -9 -7zM467 -106q0 -19 -3 -50q0 -3 -2 -8v-2h48q-3 6 -4 32l-1 71h404q42 0 62 -5v46q-4 0 -8 -1q-3 0 -4 -2l-97 -2h-130v164h129q42 0 62 -6v47q-9 0 -12 -3l-93 -2h-86v150
q168 0 183 -3q3 0 11 -3v47q-10 0 -13 -3l-94 -2h-87v151h151q43 0 64 -6v47q-6 0 -10 -2q-1 0 -3 -1l-228 -2h-202q18 48 61 142q21 46 43 63q-27 10 -56 26q-27 -94 -71 -189q-45 -97 -91 -160q-39 -54 -76 -82q28 -10 49 -26l104 153v-579zM505 359v151h189v-151h-189z
M505 173v150h189v-150h-189zM505 -27v164h189v-164h-189zM642 712q78 -42 137 -120q3 3 30 34q-45 48 -134 121q-15 -18 -33 -35zM117 550q-4 -42 -14 -92q-9 -46 -17 -79q-15 -45 -33 -87q19 -1 46 -13q9 34 16 63q24 99 38 148q6 21 21 46q-15 3 -57 14zM270 -166
q-4 19 -5 61v805q0 12 2 28q1 22 11 38h-56q1 -33 5 -66l-1 -825q-1 -9 -2 -31q-1 -1 -1 -4q-1 -3 -1 -6h48z" />
  </g>

</svg>
