<?xml version="1.0" standalone="no"?>
<!DOCTYPE svg PUBLIC "-//W3C//DTD SVG 1.1//EN" "http://www.w3.org/Graphics/SVG/1.1/DTD/svg11.dtd" >
<svg xmlns="http://www.w3.org/2000/svg" xmlns:xlink="http://www.w3.org/1999/xlink" version="1.1" viewBox="-10 0 1010 1000">
   <path fill="currentColor"
d="M833 129h-307h-72v185h189q32 -67 47 -151q5 1 15 4q81 23 75 28q-1 3 -8 8q-18 17 -34 41q-1 2 -3 5q-23 40 -43 65h141v-185zM569 171q17 35 42 109l-67 12q-13 -67 -36 -111zM663 403q1 2 3 9q14 37 21 73h29q32 0 68 -6v65q-20 -5 -70 -4h-103v123h77q38 0 78 -8v70
q-33 -6 -81 -6h-72q-46 0 -67 4q4 -33 4 -74v-109q-37 0 -64 4v-67q47 8 72 8h57q-6 -29 -28 -72zM310 213q36 64 69 150v-228q0 -37 -4 -81q48 4 103 4h349q45 0 92 -8q-8 27 -8 85v558v123q8 67 -153 81q-3 -47 -42 -99q124 19 117 -44v-377h-123h-256v381q-2 47 -1 70
q1 25 5 59h-87q8 -54 8 -145v-371l-73 24q-16 -52 -47 -135q-6 -18 -9 -25zM155 -8q97 4 101 12q1 3 -4 11q-14 26 -14 57v651q0 129 4 172h-89q6 -38 6 -176v-607q0 -60 -4 -120zM54 225q53 8 87 8q-9 122 -30 273q-41 -17 -85 -10q29 -137 28 -271z" />
</svg>
