<?xml version="1.0" standalone="no"?>
<!DOCTYPE svg PUBLIC "-//W3C//DTD SVG 1.1//EN" "http://www.w3.org/Graphics/SVG/1.1/DTD/svg11.dtd" >
<svg xmlns="http://www.w3.org/2000/svg" xmlns:xlink="http://www.w3.org/1999/xlink" version="1.1" viewBox="-10 0 1010 1000">
   <path fill="currentColor"
d="M179 -6q97 4 105 10q1 2 -3 12q-21 53 -21 125v609q1 95 8 153h-89q6 -53 6 -153v-607q-1 -82 -6 -149zM712 -2q42 52 76 115l-86 42q-21 -66 -65 -119zM62 201q12 2 33 4q52 5 52 10q1 3 -2 19q-14 79 -26 215q-38 -10 -85 -10q29 -87 28 -238zM665 229h-153v123h153
v-123zM512 417v125h153v-125h-153zM512 608v134h153v-134h-153zM266 191l57 -32q51 76 66 115l-62 46q-20 -64 -61 -129zM484 -6q102 23 101 32q1 2 -4 7q-29 34 -63 130h313q75 0 113 -6v78q-44 -6 -111 -6h-97v123h50q77 0 119 -6v79q-44 -8 -117 -8h-52v125h64
q78 1 109 -6v77q-34 -5 -105 -5h-68v134h115q72 -3 117 -7v79q-38 -7 -88 -6h-27h-341q-3 37 6 91h-85q7 -49 7 -145v-418q-17 58 -75 156q-30 -32 -73 -39q154 -211 192 -459z" />
</svg>
