<?xml version="1.0" standalone="no"?>
<!DOCTYPE svg PUBLIC "-//W3C//DTD SVG 1.1//EN" "http://www.w3.org/Graphics/SVG/1.1/DTD/svg11.dtd" >
<svg xmlns="http://www.w3.org/2000/svg" xmlns:xlink="http://www.w3.org/1999/xlink" version="1.1" viewBox="-10 0 1010 1000">
   <path fill="currentColor"
d="M498 -8h54q18 1 27 2q20 1 18 8q0 1 -1 3q-19 36 -19 128h135q0 -85 -6 -139q95 -3 94 10q0 2 -1 5q-15 28 -15 124q64 0 143 -8v82q-48 -10 -143 -10v143h57q63 0 117 -10v83q-59 -11 -115 -10h-355q-91 -3 -139 6v-73l78 4h79v-143q0 1 -22 1q-64 2 -101 7v-78
q57 6 123 6q0 -66 -8 -141zM577 197v143h135v-143h-135zM58 205q95 7 85 14q0 2 -1 8q-13 55 -19 236q-22 -7 -91 -8q26 -90 26 -250zM421 465q36 6 107 6h226q69 0 113 -6q-5 23 -4 142v62q0 119 1 159q1 50 3 73h-89q3 -24 6 -67h-280q1 0 2 22q2 34 4 47h-91
q6 -85 6 -109v-226v-16q1 -52 -4 -87zM504 534v87h280v-87h-280zM504 770h280v-89h-280v89zM264 768q-1 84 10 129h-93q7 -41 7 -131v-635q0 -78 -5 -127q108 4 113 14q0 2 -4 5q-28 25 -28 108v637zM331 334q-22 -69 -61 -125l57 -32q36 48 74 129z" />
</svg>
