<?xml version="1.0" standalone="no"?>
<!DOCTYPE svg PUBLIC "-//W3C//DTD SVG 1.1//EN" "http://www.w3.org/Graphics/SVG/1.1/DTD/svg11.dtd" >
<svg xmlns="http://www.w3.org/2000/svg" xmlns:xlink="http://www.w3.org/1999/xlink" version="1.1" viewBox="-10 0 1034 1024">
  <g transform="matrix(1 0 0 -1 0 820)">
   <path fill="currentColor"
d="M893 590q42 0 63 -5v46q-3 0 -8 -2q-3 0 -4 -1q-28 0 -51 -2l-433 1q-19 3 -44 4q7 -84 8 -103l2 -230l-7 -120q-6 -51 -17 -95q-22 -94 -67 -156q-18 -22 -43 -41q27 -13 49 -28q54 84 79 150q30 91 36 167q6 93 7 226l-3 189h433zM518 209q1 -27 5 -56l-1 -282
q-3 -18 -4 -34h48q-1 3 -1 6q-3 42 -4 69h306l-4 -69q-1 0 -1 -3h48q-3 21 -5 42l1 294l4 42q-28 -1 -57 -5h-151v167h203q42 0 63 -5v46q-6 0 -9 -2q-1 0 -3 -1l-153 -2h-101q0 97 3 110q1 15 10 26h-56q1 -33 5 -67v-272l-128 3l-18 2v-9zM561 -52v229h306v-229h-306z
M591 726q57 -19 127 -86q9 18 29 39q-48 36 -122 87q-16 -21 -34 -40zM49 332q10 -1 19 -3l28 -10q3 21 7 28q3 13 7 29q30 132 35 142q1 7 6 14q4 7 10 19q-24 3 -56 15q-10 -90 -28 -157q-12 -46 -28 -77zM238 -166q-4 19 -5 61v799q0 13 2 29q1 21 12 38h-57q1 -33 5 -67
l-1 -819q-1 -9 -2 -31q-1 -1 -1 -4q-1 -3 -1 -6h48zM347 413l6 3q6 4 13 8l21 9l-9 15q0 3 -4 8q-6 9 -12 17q-30 52 -36 58l-27 39q-24 -18 -36 -24q27 -31 40 -53q28 -51 41 -82q1 1 3 2v0z" />
  </g>

</svg>
