<?xml version="1.0" standalone="no"?>
<!DOCTYPE svg PUBLIC "-//W3C//DTD SVG 1.1//EN" "http://www.w3.org/Graphics/SVG/1.1/DTD/svg11.dtd" >
<svg xmlns="http://www.w3.org/2000/svg" xmlns:xlink="http://www.w3.org/1999/xlink" version="1.1" viewBox="-10 0 1010 1000">
   <path fill="currentColor"
d="M256 8q62 57 67 72q-3 2 -10 4q-24 8 -45 26q-127 108 -179 142q-27 -55 -45 -71q128 -63 212 -173zM893 48v85q-32 -9 -133 -10h-81v127h91q72 -4 89 -8v84q-34 -8 -87 -8h-93v143h144q85 -1 104 -8v87q-43 -9 -102 -10h-383q-98 0 -125 6v-81q35 6 84 6h24v-141
q0 -34 -6 -99q83 -3 93 6q1 3 -3 10q-11 20 -11 41v183h105v-338h-97q-99 0 -129 8v-83q76 8 127 8h254q76 0 135 -8zM292 159q74 60 71 64q-3 5 -13 8q-21 7 -44 27q-7 6 -26 23q-16 14 -22 19v163q0 50 1 69q1 24 3 38h-89q9 -30 10 -107v-100q-78 73 -116 104
q-9 -42 -39 -76q155 -95 264 -232zM524 568q20 24 82 111l9 12l-71 40q-20 -52 -86 -129zM782 600q15 14 45 41q85 77 115 111l-67 60q-49 -80 -159 -165zM296 613q92 4 97 10q1 5 -5 18q-11 28 -11 52v63q-1 34 16 42q15 11 73 10h103q73 2 86 -16q19 -16 22 -93
q40 45 97 59q-29 98 -54 110q-15 10 -41 14q-22 3 -84 3h-151q-100 2 -120 -14q-29 -16 -28 -75v-111v-72zM153 633q79 28 83 40q-1 4 -7 9q-14 11 -23 31q-5 11 -17 42q-21 55 -38 93q-38 -19 -78 -24q59 -92 80 -191z" />
</svg>
