<?xml version="1.0" standalone="no"?>
<!DOCTYPE svg PUBLIC "-//W3C//DTD SVG 1.1//EN" "http://www.w3.org/Graphics/SVG/1.1/DTD/svg11.dtd" >
<svg xmlns="http://www.w3.org/2000/svg" xmlns:xlink="http://www.w3.org/1999/xlink" version="1.1" viewBox="-10 0 1010 1000">
   <path fill="currentColor"
d="M742 -21q100 35 93 41q0 3 -7 10q-14 13 -22 26q-44 70 -62 107h66q11 0 35 -1q31 -1 48 -1q-5 20 -4 76v240q0 54 6 93q-36 -6 -83 -6h-137v93h174q53 0 115 -4v82q-19 -2 -45 -3q-12 -1 -28 -1h-40h-176v99q0 67 4 85h-80q4 -28 4 -89v-95h-161q-68 0 -120 5
q-7 1 -10 1v-84q35 3 125 4h166v-93h-135q-46 0 -73 4q6 -30 6 -83v-247q0 -47 -4 -77q51 4 85 4h187q51 -81 73 -186zM520 -10q74 91 89 131l-75 32q-28 -65 -84 -127zM478 231v97h125v-97h-125zM675 231v97h138v-97h-138zM603 391h-125v105h125v-105zM675 391v105h138
v-105h-138zM325 358q-27 -92 -61 -151l63 -28q46 76 70 141zM169 -4q7 0 22 1q83 2 79 11q0 2 -4 9q-14 27 -14 59v651q0 129 4 172h-89q6 -38 6 -176v-608q0 -59 -4 -119zM69 203q69 2 86 10q0 4 -4 12q-9 15 -10 31q-7 96 -23 188q-3 19 -5 29q-40 -9 -79 -12
q32 -117 35 -258z" />
</svg>
