<?xml version="1.0" standalone="no"?>
<!DOCTYPE svg PUBLIC "-//W3C//DTD SVG 1.1//EN" "http://www.w3.org/Graphics/SVG/1.1/DTD/svg11.dtd" >
<svg xmlns="http://www.w3.org/2000/svg" xmlns:xlink="http://www.w3.org/1999/xlink" version="1.1" viewBox="-10 0 1034 1024">
  <g transform="matrix(1 0 0 -1 0 820)">
   <path fill="currentColor"
d="M137 383q28 99 36 113q1 9 7 15q6 15 22 32q-52 6 -61 9q-13 -73 -41 -154q-13 -37 -24 -58q-9 -15 -17 -23q13 -3 24 -6q10 -3 26 -7q9 31 28 79zM275 -167q-6 21 -6 42l1 845q0 9 4 18q3 16 17 30h-65q4 -25 5 -66l-3 -860q0 -4 -2 -9h49zM310 554q16 -33 45 -105
q7 -18 18 -51q13 9 21 14l18 7q-6 9 -9 20l-30 79l-26 58q-13 -9 -37 -22zM635 83l-269 3q-4 1 -7 1q-3 1 -5 1v-48q13 6 41 7h240l-1 -160l-4 -48h49q-3 15 -4 34l-1 174h232q22 0 50 -3q6 0 15 -4v48q-19 -4 -65 -5h-232v107l167 -1l50 -4l-3 34q-3 24 -3 34l1 272
q1 24 5 48q-34 -1 -70 -5h-100q22 27 48 65q43 61 60 77q16 18 40 25q-27 15 -60 42q-4 -15 -13 -31q-10 -18 -34 -52q-28 -45 -47 -69q-15 -22 -44 -57l-192 1q-19 3 -48 4q1 -33 5 -67l-1 -273q-3 -15 -4 -48q54 4 113 5h91v-107zM473 392v142h162v-142h-162zM473 225v132
h162v-132h-162zM674 225v132h173v-132h-173zM674 392v142h173v-142h-173zM476 730q51 -43 104 -126q16 18 33 29q-64 87 -107 127q-9 -13 -30 -30v0z" />
  </g>

</svg>
