<?xml version="1.0" standalone="no"?>
<!DOCTYPE svg PUBLIC "-//W3C//DTD SVG 1.1//EN" "http://www.w3.org/Graphics/SVG/1.1/DTD/svg11.dtd" >
<svg xmlns="http://www.w3.org/2000/svg" xmlns:xlink="http://www.w3.org/1999/xlink" version="1.1" viewBox="-10 0 1034 1024">
  <g transform="matrix(1 0 0 -1 0 820)">
   <path fill="currentColor"
d="M275 226l-4 -55q0 -1 -1 -4h48q-4 54 -5 59v235q37 -36 66 -66q24 -27 45 -60q15 18 38 38q-75 78 -149 134v32h81q40 0 63 -5v46l-101 -5h-43v123q0 13 2 29q1 19 11 38h-56q3 -9 3 -16q1 -30 2 -51v-123q-153 0 -172 2l-15 3v-46q22 3 47 5h139q-49 -84 -105 -152
q-42 -49 -67 -73q-25 -22 -53 -36q24 -18 44 -37q9 15 25 29l77 89q36 43 80 101v-234zM500 273l-4 -41q-1 -10 -1 -22q46 4 94 5l243 -1l39 -4q-4 52 -5 88l1 370l4 46q-60 -4 -91 -5l-244 1q-19 3 -41 4q1 -31 5 -65v-376zM537 560v113h291v-113h-291zM537 250v120h291
v-120h-291zM537 405v119h291v-119h-291zM91 -104q24 -10 41 -23q3 9 10 16l84 146q0 1 2 4l5 6q9 13 33 31q-33 15 -60 32q-4 -24 -36 -91q-21 -40 -39 -68q-15 -24 -31 -43q-6 -6 -9 -10zM386 54q0 16 13 64h-56q1 -25 5 -52q0 -129 2 -136q7 -37 48 -56q30 -9 118 -10
q73 0 130 6q51 6 76 25q21 15 41 66q10 30 19 48q-22 9 -52 27q-1 -81 -24 -105q-18 -18 -56 -25q-37 -6 -125 -7q-75 0 -103 7q-36 9 -36 48v100zM602 29q9 9 22 19q-10 18 -33 47q-24 33 -63 80q-18 -18 -36 -30q52 -52 97 -128q6 6 13 12zM786 131q25 -24 60 -64
q16 -21 59 -80l28 -45q18 18 37 34l-82 108q-24 30 -63 75l-20 -15q-10 -6 -19 -13v0z" />
  </g>

</svg>
