<?xml version="1.0" standalone="no"?>
<!DOCTYPE svg PUBLIC "-//W3C//DTD SVG 1.1//EN" "http://www.w3.org/Graphics/SVG/1.1/DTD/svg11.dtd" >
<svg xmlns="http://www.w3.org/2000/svg" xmlns:xlink="http://www.w3.org/1999/xlink" version="1.1" viewBox="-10 0 1010 1000">
   <path fill="currentColor"
d="M379 -17q87 25 95 37q-1 4 -13 9q-13 6 -21 11q-7 6 -22 19t-27 23h282q77 -1 140 -12q-103 115 -230 178q175 52 375 42q-31 45 -43 87q-22 0 -76 -7q-25 -4 -37 -5q0 1 -1 4q-5 22 -5 54v159q1 46 6 73q-27 -6 -82 -6h-204q38 63 55 105l-75 30q-18 -57 -52 -107
l64 -28h-246q-38 0 -75 6q5 -27 5 -69v-167q-2 -28 -5 -48q-39 6 -100 18q-14 -41 -43 -79q192 2 393 -62q-76 -41 -125 -93q-48 42 -114 89q-20 -31 -73 -55q164 -83 254 -206zM643 137h-266q87 64 137 80q91 -40 129 -80zM508 288q-120 44 -286 74q17 6 44 7h456
q34 0 62 -5q8 -1 10 -1q-126 -18 -286 -75zM264 425v56h194v-56h-194zM530 425v56h194v-56h-194zM530 536v58h194v-58h-194zM264 536v58h194v-58h-194zM802 667q65 69 119 149l-76 38q-57 -97 -111 -151zM288 673q72 4 99 12q0 2 -4 7q-16 23 -16 64v24q-3 48 58 44h111
q73 0 95 -18q21 -18 32 -89q8 8 19 21q25 33 58 44q-25 76 -59 93q-35 17 -135 18h-143q-73 1 -90 -14q-20 -13 -19 -69v-66q-1 -42 -6 -71zM163 679q54 13 79 30q-15 14 -51 85q-29 59 -46 87q-33 -21 -83 -29q64 -70 101 -173z" />
</svg>
