<?xml version="1.0" standalone="no"?>
<!DOCTYPE svg PUBLIC "-//W3C//DTD SVG 1.1//EN" "http://www.w3.org/Graphics/SVG/1.1/DTD/svg11.dtd" >
<svg xmlns="http://www.w3.org/2000/svg" xmlns:xlink="http://www.w3.org/1999/xlink" version="1.1" viewBox="-10 0 1010 1000">
   <path fill="currentColor"
d="M169 2q74 2 83 3q17 1 20 7q1 2 -2 8q-16 40 -16 119v617q-3 100 6 135h-91q7 -47 6 -133v-617q0 -102 -6 -139zM421 32q44 4 117 4h252q75 0 105 -6q-7 33 -6 93v173q0 40 1 55q1 19 3 30q-25 -4 -93 -4h-110v102h120q72 0 111 -6v77q-32 -6 -88 -4h-25h-118v87h98
q65 0 101 -6v80q-42 -6 -103 -6h-96v99h159q56 0 95 -6v81q-40 -8 -97 -8h-412q-60 0 -116 8v-81q43 6 118 6h178v-99h-77q-75 0 -115 6v-80q34 6 111 6h81v-87h-169q-35 44 -69 97q-23 -17 -67 -37q88 -81 130 -213q98 37 88 38q0 1 -4 5q-18 15 -38 43h129v-102h-99
q-64 0 -93 6q4 -30 4 -89v-163q0 -54 -6 -99zM502 104v73h311v-73h-311zM331 163q33 54 78 163l-78 32q-16 -80 -69 -167zM58 173q11 1 31 3q64 6 60 13q0 1 -1 5q-17 42 -25 225q-18 -6 -79 -2q13 -43 17 -112q4 -72 -3 -132zM502 237v73h311v-73h-311z" />
</svg>
