<?xml version="1.0" standalone="no"?>
<!DOCTYPE svg PUBLIC "-//W3C//DTD SVG 1.1//EN" "http://www.w3.org/Graphics/SVG/1.1/DTD/svg11.dtd" >
<svg xmlns="http://www.w3.org/2000/svg" xmlns:xlink="http://www.w3.org/1999/xlink" version="1.1" viewBox="-10 0 1034 1024">
  <g transform="matrix(1 0 0 -1 0 820)">
   <path fill="currentColor"
d="M398 383q-10 30 -32 77l-48 98q-18 -12 -39 -23q54 -75 75 -177q15 10 26 16zM647 233v-128q-156 0 -178 2q-3 0 -15 3v-46q16 4 64 5h129v-145l-283 1l-24 4v-46q15 4 65 5h501q39 0 63 -5v46q-9 0 -12 -3l-162 -2h-110v145q183 0 190 -3q3 0 9 -2v46q-3 0 -8 -2
q-3 0 -4 -1l-96 -2h-91v128h168q42 0 63 -5v46q-6 0 -9 -2q-3 0 -4 -1l-95 -2h-123v131h148q6 0 30 -3q7 0 26 -2q-3 27 -5 54l1 234l4 42q-30 -1 -60 -5l-359 1q-7 3 -36 4h-4q1 -27 5 -57l-1 -234q-3 -12 -4 -39q15 3 50 4l167 1v-131h-174q15 34 51 62q-27 9 -57 27
q-15 -39 -30 -73q-7 -16 -17 -33q-6 -13 -21 -35q-30 -51 -80 -90q36 -12 56 -24q52 84 79 130h193zM472 580v104h374v-104h-374zM846 436h-374v108h374v-108zM79 294q15 -1 24 -4q3 21 7 32l17 108q0 3 2 5q0 9 13 56q3 10 14 26q-36 3 -59 8q-3 -78 -20 -151
q-12 -49 -25 -77q15 0 27 -3zM250 -175q-6 30 -6 51l3 850q1 18 11 35h-57q3 -13 4 -16q1 -28 2 -51l-1 -824q-1 -18 -3 -36q-1 -1 -1 -4q-1 -1 -1 -5h49z" />
  </g>

</svg>
