<?xml version="1.0" standalone="no"?>
<!DOCTYPE svg PUBLIC "-//W3C//DTD SVG 1.1//EN" "http://www.w3.org/Graphics/SVG/1.1/DTD/svg11.dtd" >
<svg xmlns="http://www.w3.org/2000/svg" xmlns:xlink="http://www.w3.org/1999/xlink" version="1.1" viewBox="-10 0 1034 1024">
  <g transform="matrix(1 0 0 -1 0 820)">
   <path fill="currentColor"
d="M675 356h222q46 0 64 -5v46q-9 0 -13 -3q-27 0 -51 -2l-520 1q-15 3 -24 4v-46q15 4 65 5h212q-9 -40 -39 -116h-137q-12 0 -34 3q-13 0 -30 2q1 -31 5 -65l-1 -293q-1 -10 -2 -26q0 -4 -2 -9h48q-3 6 -4 32l-1 320h122v-229q0 -22 -3 -51q0 -3 -2 -8v-2h48q-3 19 -5 39
v251h111v-229q0 -22 -3 -51q0 -3 -2 -8v-2h48q-4 15 -5 61v229h126v-276q0 -27 -18 -33q-16 -6 -39 -6q-15 0 -50 7q9 -30 12 -52q37 1 59 5q16 1 26 5q48 12 48 67l1 274q1 24 5 50q-30 -1 -60 -5h-219q1 9 8 25q24 63 25 66q4 13 9 25zM442 534v106q0 10 2 29q1 21 12 38
h-57q1 -33 5 -67q0 -87 -2 -115q-3 -6 -3 -30q31 3 65 5l385 -1q15 0 44 -4q-4 45 -5 68q0 111 3 117q1 15 11 30h-57l5 -111v-65h-188v169q0 13 2 29q1 18 11 37h-57q3 -15 6 -48q-1 -7 0 -18v-169h-182zM66 326q6 -1 13 -4q24 -3 30 -7q0 1 3 -1l23 95q6 24 11 53
q13 66 33 95q-21 3 -30 6q-1 0 -26 9q-9 -78 -28 -164q-10 -42 -29 -82zM253 -151q-4 19 -5 48l1 826q0 18 4 30q1 10 8 18h-56q1 -33 5 -66l-1 -812q-1 -7 -2 -35q-1 -1 -2 -9h48zM355 434q6 4 12 7t14 6q3 0 6 3q-9 24 -21 44q-46 84 -50 91q-24 -15 -39 -22
q54 -69 70 -132q3 1 8 3v0z" />
  </g>

</svg>
