<?xml version="1.0" standalone="no"?>
<!DOCTYPE svg PUBLIC "-//W3C//DTD SVG 1.1//EN" "http://www.w3.org/Graphics/SVG/1.1/DTD/svg11.dtd" >
<svg xmlns="http://www.w3.org/2000/svg" xmlns:xlink="http://www.w3.org/1999/xlink" version="1.1" viewBox="-10 0 1034 1024">
  <g transform="matrix(1 0 0 -1 0 820)">
   <path fill="currentColor"
d="M165 -28l76 119q-24 13 -39 36q-60 -145 -143 -213q25 -12 47 -34q39 66 59 92zM343 659l-259 5q-3 1 -5 1v-47q24 3 38 4l226 1v-25q0 -45 -5 -68h49q0 7 -2 16q-3 51 -3 77h271v-25q0 -45 -5 -68h50q0 6 -3 16q-3 51 -3 77l227 -1q3 0 27 -4v47q-30 -4 -35 -5l-219 -1
v43q0 13 3 29q3 19 13 33h-60q4 -54 5 -90v-15h-271v41q0 13 3 30q1 18 12 32h-59q4 -49 5 -84v-19zM116 207q57 30 88 50q27 16 69 46l-1 -106q0 -1 -5 -47q37 3 76 5l405 -1q15 0 49 -4q-4 54 -5 78q0 93 2 106q0 19 3 39q-30 0 -60 -5l-374 -1q37 39 62 60q9 7 19 17
q442 0 458 -3q1 0 7 -2v47q-36 -3 -65 -6h-366q24 25 50 55l34 22q-34 15 -56 31q-24 -40 -42 -65q-16 -21 -37 -43h-258q-21 0 -48 3q-6 0 -16 3v-47q25 3 64 5h218q-49 -48 -153 -120q-60 -37 -91 -51q-31 -13 -73 -19q18 -12 34 -32zM312 191v135q3 3 7 6h434v-141h-441z
M521 -104q-84 0 -119 4q-19 4 -29 11q-18 15 -18 59l2 90q3 18 14 32h-60q4 -49 5 -85q0 -60 2 -69q4 -43 35 -64q21 -10 71 -14l110 -2q75 0 114 7q54 9 83 67q12 24 25 61q-30 13 -51 28q-3 -39 -5 -51q-10 -48 -52 -64q-28 -9 -92 -10h-35zM524 51q7 -6 15 -14
q16 -18 37 -44q9 9 12 15q9 12 21 21q-18 19 -33 33l-69 62q-3 3 -9 7q-3 -4 -31 -32q12 -12 15 -14q21 -16 42 -34zM938 -15l-90 86l-50 44q-12 -16 -34 -31q55 -45 93 -80q36 -36 75 -81q12 18 31 39z" />
  </g>

</svg>
