<?xml version="1.0" standalone="no"?>
<!DOCTYPE svg PUBLIC "-//W3C//DTD SVG 1.1//EN" "http://www.w3.org/Graphics/SVG/1.1/DTD/svg11.dtd" >
<svg xmlns="http://www.w3.org/2000/svg" xmlns:xlink="http://www.w3.org/1999/xlink" version="1.1" viewBox="-10 0 1034 1024">
  <g transform="matrix(1 0 0 -1 0 820)">
   <path fill="currentColor"
d="M284 257l-4 -56q0 -3 -1 -5h49q-4 19 -5 29l-1 199q81 -57 112 -105q9 18 22 27q3 3 10 11q-87 73 -132 108l-12 9v17h81q45 0 63 -6v47q-6 0 -9 -2l-113 -3h-22v135q21 3 95 19q21 1 53 6q-18 21 -36 49q-16 -9 -36 -16q-43 -12 -93 -22q-96 -18 -145 -18q-13 0 -42 4
q16 -22 27 -49l139 19v-127q-159 0 -179 2l-15 3v-47q9 4 25 5l157 1q-18 -39 -83 -112q-69 -75 -130 -89q28 -22 44 -41q34 27 56 45q18 15 33 31q51 54 92 105v-173zM704 584q0 36 1 70q1 60 18 96q-30 3 -62 5q4 -54 5 -100q0 -133 -34 -221q-36 -90 -108 -157
q-39 -33 -87 -48q25 -18 44 -39q84 61 129 125q52 72 76 161q18 -48 44 -100q39 -75 106 -135q39 -36 61 -55q22 25 46 42q-67 21 -131 97q-69 85 -109 224q0 18 1 35zM482 441q24 -3 44 -11q24 57 36 87q18 54 25 66q3 7 25 36q-30 6 -56 16q-15 -66 -33 -113
q-18 -46 -41 -81zM777 485q15 -7 21 -10q1 4 5 7q78 132 84 138q9 13 30 24q-18 7 -44 22q-6 3 -10 6q-4 -19 -43 -85q-15 -27 -32 -53q-15 -24 -29 -41q9 -3 18 -8zM237 97q-15 9 -27 17q-7 -22 -17 -40q-10 -21 -36 -60q-36 -64 -82 -105q24 -9 46 -26l71 110q36 54 44 63
q6 9 29 25zM776 -3q-21 10 -49 27q-3 -39 -7 -57q-15 -48 -62 -61q-39 -7 -140 -8q-45 0 -90 3q-24 3 -33 10q-12 9 -12 34v108q0 16 13 64h-57q3 -6 3 -12q1 -27 3 -40l1 -148q4 -27 33 -42q31 -12 129 -12q69 0 124 4q57 6 79 21q27 21 45 61q7 24 20 48zM481 134
q57 -36 118 -100q6 7 11 15q9 12 18 21q-51 48 -120 100q-13 -21 -27 -36zM776 105q63 -45 114 -115l33 -43q15 19 33 34q-63 69 -72 80q-27 30 -74 75q-9 -10 -26 -25q-1 -1 -8 -6v0z" />
  </g>

</svg>
