<?xml version="1.0" standalone="no"?>
<!DOCTYPE svg PUBLIC "-//W3C//DTD SVG 1.1//EN" "http://www.w3.org/Graphics/SVG/1.1/DTD/svg11.dtd" >
<svg xmlns="http://www.w3.org/2000/svg" xmlns:xlink="http://www.w3.org/1999/xlink" version="1.1" viewBox="-10 0 1010 1000">
   <path fill="currentColor"
d="M573 -19q108 31 108 41q-1 4 -8 6l-10 4q73 156 311 238q-36 34 -57 86q-119 -68 -163 -108v50q-22 -4 -121 -5q-100 1 -139 5v-54q-54 61 -111 112q18 3 59 4h114h7q51 1 74 -4q-5 37 -4 94v15v357q2 47 -17 57q-15 13 -102 26q0 -54 -22 -81q76 16 70 -36v-75h-131v73
q0 53 1 72q1 24 3 39h-80q2 -20 3 -44q1 -20 1 -63v-311q0 -69 -4 -102q-23 12 -38 24q-28 -37 -50 -57q-7 -5 -5 -6q202 -86 311 -357zM617 72q-32 67 -105 153q24 2 65 2h76h48q16 -1 27 -2q-68 -63 -111 -153zM69 203q9 0 27 1q62 2 59 7q0 1 -1 4q-18 50 -37 264
q-41 -10 -83 -4q22 -66 29 -125q8 -59 6 -147zM808 342q82 0 95 10l-1 4q-11 41 -11 136v320q2 64 -24 79q-21 18 -123 26q-6 -52 -36 -95q65 15 86 5q22 -7 21 -49v-284q0 -97 -7 -152zM683 395q74 1 89 8q3 3 -1 14q-11 35 -11 83v141v17q-1 75 2 94h-79q6 -23 5 -96v-13
v-151q0 -60 -5 -97zM562 423h-131v85h131v-85zM431 568v85h131v-85h-131zM319 294q-14 -45 -51 -97l61 -38q31 39 56 97zM254 760q0 101 8 157h-89q6 -39 6 -155v-577q0 -125 -4 -173q109 5 111 10l-3 3q-29 24 -29 160v575z" />
</svg>
