<?xml version="1.0" standalone="no"?>
<!DOCTYPE svg PUBLIC "-//W3C//DTD SVG 1.1//EN" "http://www.w3.org/Graphics/SVG/1.1/DTD/svg11.dtd" >
<svg xmlns="http://www.w3.org/2000/svg" xmlns:xlink="http://www.w3.org/1999/xlink" version="1.1" viewBox="-10 0 1034 1024">
  <g transform="matrix(1 0 0 -1 0 820)">
   <path fill="currentColor"
d="M256 581q52 -42 91 -106q18 21 34 32q-45 57 -93 104q-12 -12 -21 -20q-6 -4 -11 -10zM659 762q-25 9 -58 29q-15 -42 -39 -85q-48 -84 -108 -155q-111 -120 -171 -135q31 -24 48 -40q75 66 152 152q34 39 56 70q27 37 74 115q37 -60 63 -91q30 -36 68 -70q43 -37 80 -65
l126 -79q19 33 44 51q-57 7 -104 35q-97 54 -165 130q-18 18 -33 41l-55 81q10 9 22 16zM373 377q1 -30 5 -62l-1 -434q-3 -27 -4 -35h48q-3 6 -4 31l-1 176h160v-108q0 -36 -18 -42q-16 -6 -39 -6q-12 0 -41 4q12 -27 16 -49q37 3 58 7q34 7 48 24q12 16 13 48l1 394l4 36
q0 6 1 16q-30 -1 -60 -5l-143 1q-15 3 -43 4zM416 89v104h160v-104h-160zM416 229v107h160v-107h-160zM797 498q-3 0 -12 -3l-147 -2l-138 1q-12 0 -24 4v-46q6 3 50 5l247 -1q12 -1 24 -4v46zM744 9q-3 6 -5 49l1 256q0 18 4 30q1 10 8 18h-57q3 -15 6 -48q-1 -9 0 -19
l-1 -251q-1 -10 -2 -26q0 -3 -3 -9h49zM870 330q0 12 2 28q1 19 11 38h-56q1 -33 5 -66l-1 -412q-3 -9 -5 -13q-9 -12 -47 -13q-19 0 -54 4q13 -30 18 -52q24 0 49 5q51 9 66 30q12 13 12 51v400zM57 320q9 -1 18 -6q4 0 8 -2l52 152q12 39 21 60q3 9 22 33q-30 6 -58 20
q-7 -45 -18 -83q-10 -39 -28 -85q-18 -51 -40 -83q3 0 5 -1q3 -1 10 -4q3 0 8 -1zM233 -154q-4 19 -5 40l1 838q0 18 4 30q1 10 8 18h-56q1 -33 5 -66l-1 -816q-3 -24 -4 -44h48z" />
  </g>

</svg>
