<?xml version="1.0" standalone="no"?>
<!DOCTYPE svg PUBLIC "-//W3C//DTD SVG 1.1//EN" "http://www.w3.org/Graphics/SVG/1.1/DTD/svg11.dtd" >
<svg xmlns="http://www.w3.org/2000/svg" xmlns:xlink="http://www.w3.org/1999/xlink" version="1.1" viewBox="-10 0 1010 1000">
   <path fill="currentColor"
d="M534 -13q2 8 7 31q10 50 17 68h162q75 0 163 -8v77q-41 -6 -167 -6h-416q-90 0 -181 8v-77q4 0 14 1q92 5 165 5h178q-9 -38 -43 -92zM385 159q27 44 40 79h156q25 -38 40 -79q91 19 95 28q-1 5 -9 10q-21 13 -38 41h103q113 0 166 -5v73q-64 -3 -168 -4h-566
q-69 1 -144 8v-79h7q92 7 139 7h139q-14 -20 -47 -59zM274 413v64h452v-64h-452zM274 528v64h452v-64h-452zM524 663q38 52 57 101l-79 22q-12 -42 -56 -101zM246 711q-62 105 -107 170q-36 -24 -83 -25q66 -95 107 -173zM286 681q86 1 91 10q1 7 -5 18q-13 25 -13 57
q-3 46 26 52q15 5 48 6q28 2 109 2q78 1 97 -18q22 -17 24 -87q41 38 87 47q-30 106 -85 117q-62 8 -248 8q-133 3 -131 -71v-141zM812 681q86 71 128 133l-79 53q-47 -81 -115 -148zM194 348q38 10 82 10h434q65 0 100 -4q-8 36 -8 67v147q0 36 11 85q-35 -6 -103 -6h-428
q-51 0 -88 6q4 -31 4 -85v-129q-4 -63 -4 -91z" />
</svg>
