<?xml version="1.0" standalone="no"?>
<!DOCTYPE svg PUBLIC "-//W3C//DTD SVG 1.1//EN" "http://www.w3.org/Graphics/SVG/1.1/DTD/svg11.dtd" >
<svg xmlns="http://www.w3.org/2000/svg" xmlns:xlink="http://www.w3.org/1999/xlink" version="1.1" viewBox="-10 0 1034 1024">
  <g transform="matrix(1 0 0 -1 0 820)">
   <path fill="currentColor"
d="M465 363l-296 1q-15 3 -38 4q1 -30 5 -61l-1 -167q-3 -27 -4 -35h48l-4 30l-1 192h291v-104q-117 -15 -178 -15q-19 0 -54 3q9 -33 14 -53q39 9 59 12l270 26l108 13q18 -19 34 -50q19 22 33 33q-49 60 -102 113l-28 -31l15 -12q12 -9 21 -22q-39 0 -47 -3q-37 -3 -75 -8
q-15 -1 -33 -3v101h328v-121q0 -31 -10 -38q-12 -9 -33 -9q-7 0 -36 4q12 -27 17 -49q69 12 88 31q12 12 13 50l1 133l4 40q-28 -1 -57 -5h-315v75l253 -1q9 0 39 -4q-4 45 -5 66l1 171l4 44q-30 -1 -59 -5l-507 1q-15 3 -43 4q1 -30 5 -60l-1 -179q-3 -12 -4 -42q30 3 61 5
h219v-75zM227 474v77h238v-77h-238zM227 587v84h238v-84h-238zM502 551h249v-77h-249v77zM502 587v84h249v-84h-249zM72 -124q25 -10 43 -24q102 162 110 169q9 7 21 16q-30 15 -56 33q-6 -28 -44 -94q-15 -27 -34 -51q-15 -21 -34 -42q-3 -3 -6 -7zM366 35q0 12 14 65h-58
q1 -3 7 -51l1 -140q4 -28 32 -42q30 -12 123 -12q135 0 175 8q51 12 76 61q13 27 23 55q-12 4 -22 11q-3 1 -26 17q-3 -51 -12 -73q-18 -34 -82 -41l-116 -3l-100 4q-15 3 -22 9q-12 9 -13 34v98zM449 113q57 -42 114 -120q15 18 33 35q-13 18 -51 56q-33 33 -65 62
q-10 -13 -31 -33zM824 64q-13 12 -18 17q-12 -15 -32 -32q39 -31 77 -71q18 -18 30 -34q15 -18 44 -56q15 19 33 36z" />
  </g>

</svg>
