<?xml version="1.0" standalone="no"?>
<!DOCTYPE svg PUBLIC "-//W3C//DTD SVG 1.1//EN" "http://www.w3.org/Graphics/SVG/1.1/DTD/svg11.dtd" >
<svg xmlns="http://www.w3.org/2000/svg" xmlns:xlink="http://www.w3.org/1999/xlink" version="1.1" viewBox="-10 0 1034 1024">
  <g transform="matrix(1 0 0 -1 0 820)">
   <path fill="currentColor"
d="M975 251q-12 0 -19 -3q-12 0 -43 -3l-523 1q-15 0 -34 5v-47q21 6 66 6h108l-16 -77q-6 -27 -17 -64q51 4 101 5h239q-7 -51 -15 -82q-3 -21 -12 -40q-16 -37 -46 -49q-34 -13 -93 -14q-22 0 -63 5q10 -30 15 -51q18 0 38 2q64 4 86 9q22 4 46 17q48 30 68 114l16 81
q3 18 11 49q-54 -4 -60 -5h-277q1 7 3 14q7 43 17 86l380 -1q9 0 24 -5v47zM550 479q27 -1 55 -5q-4 49 -5 70l1 125l4 45q-27 -1 -54 -5q-93 0 -114 2q-6 3 -35 3q1 -31 5 -65l-1 -131q-3 -12 -4 -44q46 4 94 5h54zM444 515v158h119v-158h-119zM422 344q15 4 65 5h338
q45 0 62 -5v46q-9 0 -12 -3q-28 0 -50 -2l-379 1l-24 4v-46zM683 708q1 -24 5 -49l-1 -142q-3 -3 -3 -28q-1 -4 -1 -11q46 4 95 5q82 0 95 -2q15 0 32 -3q-6 54 -6 73l1 120l4 33q0 7 1 13q-27 -1 -55 -5l-126 1q-3 0 -41 4v-9zM862 519h-137v157h137v-157zM65 310q3 0 6 -2
q1 0 23 -8l9 34q39 153 42 155q7 25 17 39q3 6 6 9q-33 7 -58 17q-6 -48 -21 -115q-16 -66 -43 -125q9 -1 19 -4zM263 -161q-4 19 -5 48l1 826q0 18 4 30q1 10 8 18h-56q1 -33 5 -67l-1 -811q-1 -9 -2 -35q-1 -1 -2 -9h48zM356 524l-25 49q-21 -13 -47 -26q60 -58 76 -149
q19 15 44 26q-12 28 -26 57z" />
  </g>

</svg>
