<?xml version="1.0" standalone="no"?>
<!DOCTYPE svg PUBLIC "-//W3C//DTD SVG 1.1//EN" "http://www.w3.org/Graphics/SVG/1.1/DTD/svg11.dtd" >
<svg xmlns="http://www.w3.org/2000/svg" xmlns:xlink="http://www.w3.org/1999/xlink" version="1.1" viewBox="-10 0 1034 1024">
  <g transform="matrix(1 0 0 -1 0 820)">
   <path fill="currentColor"
d="M109 115q61 81 84 156q18 54 22 313h404q18 -103 32 -151q18 -57 53 -145q-36 -45 -83 -88q-37 -30 -77 -43q27 -18 46 -40q75 70 135 134q42 -54 69 -85q7 -6 15 -14q42 -36 74 -37q36 0 62 50q4 9 11 26q6 18 16 50q-21 9 -50 28l2 -35q0 -18 -9 -40q-12 -36 -36 -36
t-71 51q-30 33 -55 75l52 86q0 3 2 4q34 66 45 79q3 7 13 15q7 10 22 21q-18 7 -56 30q-7 -31 -39 -94q-30 -60 -60 -103q-24 48 -46 122q-18 72 -26 140h194q45 0 63 -6v47q-3 0 -12 -3l-151 -2h-101q-6 60 -5 93q1 27 11 50l-44 1q-6 1 -13 2q1 -18 3 -35q0 -10 10 -111
l-405 1q-24 3 -40 4q4 -49 5 -90q-1 -19 -2 -137q0 -3 -7 -73q-16 -90 -61 -147q-18 -24 -58 -50q28 -10 51 -28q4 7 11 15zM572 498q-3 0 -8 -2q-3 0 -4 -1l-98 -2q-162 0 -183 2q-3 0 -15 3v-46q15 4 66 5h180q42 0 62 -5v46zM291 176q33 3 68 5q141 0 160 -2q3 0 34 -3
l-2 26q-3 33 -3 95q0 28 5 78q-43 -1 -87 -5l-133 1q-24 3 -42 4l5 -105q0 -27 -2 -54q-3 -15 -3 -40zM333 217v117h177v-117h-177zM806 717q-48 42 -53 46q-12 -13 -29 -30q63 -45 99 -91q10 18 27 34q-7 6 -16 15zM215 86q-7 -21 -46 -84q-46 -67 -81 -103q-3 -4 -10 -10
q24 -10 43 -27l73 105l45 60q10 10 29 23q-18 10 -38 25q-7 6 -15 11zM763 -26q-12 4 -24 11q-10 6 -27 17q0 -18 -3 -32q-3 -30 -20 -55q-15 -21 -52 -29q-39 -6 -134 -7q-46 0 -90 3q-24 3 -33 10q-12 9 -13 34l3 137q3 21 11 38h-57q3 -13 4 -16q1 -28 2 -51v-121
q0 -42 33 -57q31 -12 130 -12q69 0 125 4q57 6 80 20q25 21 43 56q9 25 22 50zM462 64q66 -36 123 -93q19 30 26 38q-49 39 -122 92q-12 -21 -27 -37zM791 52q16 -16 30 -31q15 -15 36 -43q18 -21 29 -38q12 -19 37 -57q18 18 36 30l-65 86q-27 34 -67 81z" />
  </g>

</svg>
