<?xml version="1.0" standalone="no"?>
<!DOCTYPE svg PUBLIC "-//W3C//DTD SVG 1.1//EN" "http://www.w3.org/Graphics/SVG/1.1/DTD/svg11.dtd" >
<svg xmlns="http://www.w3.org/2000/svg" xmlns:xlink="http://www.w3.org/1999/xlink" version="1.1" viewBox="-10 0 1034 1024">
  <g transform="matrix(1 0 0 -1 0 820)">
   <path fill="currentColor"
d="M77 299q4 -1 11 -3q13 36 24 76q27 103 37 128q7 25 26 44q-19 3 -19 2q-9 3 -44 10q0 -22 -5 -45q-4 -27 -16 -72q-13 -55 -25 -89q-12 -27 -24 -40q4 0 35 -11zM254 -166q-4 15 -5 37l-1 823q0 9 3 32q3 18 19 35h-65q4 -21 5 -67l-1 -811l-4 -49h49zM325 561l-8 18
q-15 -10 -35 -21q45 -72 74 -160q0 1 27 17q3 0 8 4q-19 52 -35 84zM395 -86q-63 0 -87 4q-3 0 -7 2v-47q4 3 35 6l569 1q54 -3 66 -7v47q-9 -3 -28 -4l-59 -2l1 269l4 47q-33 -1 -66 -5l-387 1q-6 1 -46 4q1 -31 5 -65v-251zM433 -86v275h106v-275h-106zM576 -86v275h113
v-275h-113zM726 -86v275h119v-275h-119zM792 345q27 0 69 -5q-6 66 -6 68l1 288q0 7 1 13l-374 1l-49 5q1 -18 3 -34q3 -24 3 -36l-1 -255q-1 -6 -5 -50q54 4 106 5h252zM477 381v125h340v-125h-340zM477 542v131h340v-131h-340z" />
  </g>

</svg>
