<?xml version="1.0" standalone="no"?>
<!DOCTYPE svg PUBLIC "-//W3C//DTD SVG 1.1//EN" "http://www.w3.org/Graphics/SVG/1.1/DTD/svg11.dtd" >
<svg xmlns="http://www.w3.org/2000/svg" xmlns:xlink="http://www.w3.org/1999/xlink" version="1.1" viewBox="-10 0 1010 1000">
   <path fill="currentColor"
d="M575 -13q17 1 44 3q51 3 52 8q0 2 -4 8q-14 16 -14 34v46h129q114 0 139 -8v75q-55 -8 -139 -8h-129v66h83h67q21 0 34 -1q27 -2 38 -7v73q-23 -7 -139 -6h-83v58h127q119 0 153 -10v79q-26 -8 -193 -8q63 27 64 42q-1 2 -7 4q-20 6 -45 22q-105 65 -228 137l254 -8
q-29 -28 -62 -52l62 -38q89 78 147 135l-66 48q-5 -7 -19 -22q-11 -11 -17 -18l-166 4v187q2 48 -22 62q-23 17 -99 19q-5 -46 -42 -85q58 9 74 0q16 -5 15 -40v-137q-140 6 -217 27q-9 3 -11 3q3 -15 -22 -79q97 -6 246 -104q-154 11 -224 28q-6 2 -8 2q-4 -38 -14 -71
q74 -4 157 -68q-145 -1 -180 10v-77q15 8 162 8h109v-58h-49q-124 0 -151 6v-73q23 8 155 8h45v-66h-79q-131 0 -151 8v-73q29 6 151 6h79q0 -49 -1 -67q-1 -22 -5 -32zM153 4q111 11 109 20q0 2 -5 8q-23 28 -23 58v601q0 111 2 155q2 46 8 57h-97q6 -12 8 -60
q2 -44 2 -154v-550q0 -108 -4 -135zM302 163q34 66 61 127l-71 30q-20 -78 -48 -129zM63 187q74 7 84 10q1 5 -3 11q-11 17 -13 48q-2 26 -8 78q-6 58 -8 89l-81 -6q29 -101 29 -230zM712 389h-139q-34 27 -91 66l169 -8q49 -34 61 -58zM456 669q79 37 74 42q-1 1 -5 3
q-19 9 -43 34q-62 68 -129 121q-23 -26 -63 -51q107 -55 166 -149zM758 679q100 77 161 133l-68 57q-68 -88 -147 -146z" />
</svg>
