<?xml version="1.0" standalone="no"?>
<!DOCTYPE svg PUBLIC "-//W3C//DTD SVG 1.1//EN" "http://www.w3.org/Graphics/SVG/1.1/DTD/svg11.dtd" >
<svg xmlns="http://www.w3.org/2000/svg" xmlns:xlink="http://www.w3.org/1999/xlink" version="1.1" viewBox="-10 0 1034 1024">
  <g transform="matrix(1 0 0 -1 0 820)">
   <path fill="currentColor"
d="M570 692q-18 -46 -42 -88q-145 0 -167 2q-18 3 -40 3q4 -99 5 -105q0 -84 -2 -111q-3 -3 -3 -38q31 3 64 5h196v-139q0 -9 -5 -15q-9 -9 -35 -10q-21 0 -47 5q9 -21 13 -49l18 2q24 0 40 3q12 1 22 6q33 15 34 63v134l199 -1q13 0 42 -4q-6 36 -6 63l1 145q0 6 2 14
q0 12 3 32q-30 -1 -59 -5h-234l55 88h253q42 0 62 -5v46q-3 0 -8 -2q-3 0 -4 -1l-93 -2l-613 1q-15 3 -46 4q6 -108 7 -140l-2 -222q-3 -96 -10 -164q-7 -51 -17 -92q-24 -85 -65 -152q-18 -25 -49 -50q36 -10 59 -23q67 123 92 218q22 94 27 260l3 324h350zM818 568v-68
h-455v68h455zM818 464v-68h-455v68h455zM227 -111q9 -4 20 -9q0 3 4 8q3 3 4 6t3 6q39 69 45 79q6 9 20 35q12 12 27 30q-21 10 -44 24q-10 -24 -22 -44q-12 -24 -35 -61q-22 -36 -49 -65q12 0 23 -7q1 0 4 -2zM247 171q27 -21 42 -35q69 58 107 92q28 27 41 36q9 6 18 10
q9 3 23 11q-24 21 -44 41q-9 -15 -23 -29q-18 -19 -54 -52q-67 -58 -110 -74zM701 285q63 -31 119 -70q58 -39 91 -73l26 40q-60 42 -133 89l-79 50q-7 -15 -24 -36zM770 -11q-10 7 -21 13q-9 4 -16 9q-1 -31 -6 -54q-12 -45 -51 -54q-28 -4 -106 -5q-39 0 -80 3
q-24 3 -32 10q-12 9 -13 34v61q0 10 2 28q3 21 12 38h-58q3 -15 6 -48q-1 -7 0 -18q0 -84 2 -89q3 -19 21 -35q24 -18 117 -19q96 0 135 6q43 6 68 44q10 19 30 70q-6 3 -10 6zM650 -9q4 6 10 10q-6 7 -14 15l-43 50q-16 19 -35 39q-4 4 -13 15q-6 -4 -10 -8q-9 -4 -24 -19
q63 -60 106 -126q3 6 19 21q1 3 4 3zM763 79q31 -21 68 -52q34 -30 65 -60q39 -45 43 -50q13 18 32 36q-48 48 -87 83q-31 30 -89 77q-9 -10 -15 -17q-9 -7 -17 -17v0z" />
  </g>

</svg>
