<?xml version="1.0" standalone="no"?>
<!DOCTYPE svg PUBLIC "-//W3C//DTD SVG 1.1//EN" "http://www.w3.org/Graphics/SVG/1.1/DTD/svg11.dtd" >
<svg xmlns="http://www.w3.org/2000/svg" xmlns:xlink="http://www.w3.org/1999/xlink" version="1.1" viewBox="-10 0 1010 1000">
   <path fill="currentColor"
d="M131 22q5 0 28 2q70 6 109 6h514q92 0 141 -8v78q-70 -8 -141 -8h-179q-2 5 -5 16q-9 31 -21 61h139q98 0 135 -6q-8 38 -8 103v66q0 74 8 113q-34 -8 -119 -8h-115v117q2 47 -22 60q-21 15 -111 23q0 -34 -28 -79q88 28 90 -18v-103h-117q-80 0 -125 8q0 -1 1 -4
q7 -38 7 -109v-68q1 -80 -8 -103q29 8 113 8h89q15 -39 18 -77h-302q2 362 -23 494q-24 157 -108 297q-31 -36 -79 -65q76 -83 100 -206q28 -124 27 -391v-62q0 -86 -8 -137zM387 221v57h375v-57h-375zM387 326v61h377v-61h-377zM403 463q65 39 73 53q0 3 -11 6
q-20 5 -34 14q-3 2 -9 5q-93 58 -130 86q-25 -31 -70 -49q121 -50 181 -115zM718 477q78 30 193 105l-56 67q-58 -56 -188 -117zM605 661q18 38 32 101l-75 10q-11 -54 -34 -99zM810 667q72 78 130 159l-71 49q-45 -89 -123 -168zM274 669q75 12 85 20q0 2 -6 8
q-20 18 -30 41q-10 30 -73 135q-28 -23 -89 -35q90 -70 113 -169zM387 667q88 0 89 10q0 2 -3 8q-13 24 -13 61v40q-5 45 50 44h123q59 3 57 -97q41 33 84 55q-25 63 -49 80q-23 20 -78 19h-147q-66 0 -87 -12q-23 -12 -22 -49v-82q0 -41 -4 -77z" />
</svg>
