<?xml version="1.0" standalone="no"?>
<!DOCTYPE svg PUBLIC "-//W3C//DTD SVG 1.1//EN" "http://www.w3.org/Graphics/SVG/1.1/DTD/svg11.dtd" >
<svg xmlns="http://www.w3.org/2000/svg" xmlns:xlink="http://www.w3.org/1999/xlink" version="1.1" viewBox="-10 0 1010 1000">
   <path fill="currentColor"
d="M710 -13q84 1 94 9q2 3 -4 12q-12 20 -12 42v52q77 0 106 -1q35 -2 46 -5v81q-17 -8 -152 -8q0 96 6 99h-88q8 -19 8 -97h-184q0 52 1 66q0 19 3 29h-84q6 -21 6 -93q-52 0 -73 1q-25 1 -38 5v-83q24 8 111 8q0 -92 -4 -106q87 1 98 10q1 3 -5 11q-15 19 -15 39v46h184
q0 -60 -1 -81q-1 -26 -3 -36zM169 6q88 3 107 14q0 3 -6 12q-18 26 -18 56v633q0 165 8 180h-95q6 -14 8 -50q2 -33 2 -128v-532q0 -140 -6 -185zM323 165q27 42 48 105l-67 30q-18 -71 -42 -109zM50 189q80 -2 93 6q1 3 -4 10q-13 16 -14 37q-8 148 -14 217q-48 -8 -81 -8
q12 -50 17 -109q4 -60 3 -153zM401 552q90 1 95 12q0 3 -6 10q-12 16 -12 30q4 238 -113 305q-37 -34 -89 -44q154 -64 125 -313zM726 560q90 1 97 10q0 2 -3 8q-12 20 -12 53v145q-5 44 31 40q46 6 44 -103q38 42 85 53q-24 128 -91 127h-79q-43 1 -55 -19q-14 -17 -13 -78
v-177q0 -41 -4 -59zM560 564q92 0 97 8q1 3 -5 12q-13 22 -13 43v119q0 134 8 145h-91q4 -10 6 -43q1 -29 1 -102v-87q0 -54 -3 -95zM333 298q47 8 151 8h117q-13 -38 -41 -75l87 -18q19 33 38 93h77q88 0 114 -2q34 -2 47 -8v81q-17 -8 -161 -8h-282v88h256q117 1 141 -8
v79q-3 1 -9 -1q-39 -7 -136 -7h-182q-116 0 -151 8q11 -29 8 -97v-60q-38 0 -74 6v-79z" />
</svg>
