<?xml version="1.0" standalone="no"?>
<!DOCTYPE svg PUBLIC "-//W3C//DTD SVG 1.1//EN" "http://www.w3.org/Graphics/SVG/1.1/DTD/svg11.dtd" >
<svg xmlns="http://www.w3.org/2000/svg" xmlns:xlink="http://www.w3.org/1999/xlink" version="1.1" viewBox="-10 0 1010 1000">
   <path fill="currentColor"
d="M343 -13q95 0 95 9q1 3 -4 11q-17 28 -17 67h168q0 -46 -4 -84q96 -4 100 6q2 4 -5 16q-19 30 -19 62h101q95 -1 169 -10v75q-62 -8 -169 -10h-101v66h71q48 -1 74 -8q-4 13 -7 53q0 14 -1 20v125q-1 55 8 78q-26 -6 -76 -8h-256q-16 23 -49 61h329q111 -1 177 -8v78
q-62 -8 -185 -10h-46q132 83 276 87q-39 37 -61 93q-120 -49 -177 -81q56 59 111 141l-79 40q-47 -91 -109 -163l57 -28q-88 -60 -115 -89h-222q-138 113 -274 174q-23 -48 -69 -65q117 -26 248 -111h-48q-116 1 -169 8v-76q63 9 167 8h103q23 -24 41 -51q3 -5 5 -8h-109
q-56 0 -82 8q2 -13 5 -35q3 -23 3 -27v-157q-1 -41 -8 -59q47 9 84 10h75v-66h-115q-111 1 -155 8v-73q68 9 157 10h111q0 -19 -3 -68q-1 -12 -1 -19zM587 129h-170v66h170v-66zM722 246h-452v54h452v-54zM270 348v55h452v-55h-452zM413 606h8q87 4 89 11q2 3 -4 13
q-12 21 -12 41v177q2 49 -135 61q-1 -60 -36 -101q101 24 96 -20v-107q0 -22 -6 -75zM296 665q45 13 77 32q-27 17 -161 168q-27 -25 -83 -47q96 -54 167 -153zM575 671q40 48 102 145l-72 34q-41 -81 -91 -145z" />
</svg>
