<?xml version="1.0" standalone="no"?>
<!DOCTYPE svg PUBLIC "-//W3C//DTD SVG 1.1//EN" "http://www.w3.org/Graphics/SVG/1.1/DTD/svg11.dtd" >
<svg xmlns="http://www.w3.org/2000/svg" xmlns:xlink="http://www.w3.org/1999/xlink" version="1.1" viewBox="-10 0 1010 1000">
   <path fill="currentColor"
d="M143 -8q106 0 115 10q0 1 -3 5q-29 38 -29 105v97l58 -20q27 44 53 137v-153q1 -57 -6 -117q30 6 110 6q81 0 122 -6q-6 35 -5 147v57q0 102 1 137q1 45 4 76q-27 -4 -63 -5q-18 -1 -40 -1h-59v226q59 -53 99 -85q-2 -4 -7 -12q-4 -9 -31 -54l62 -32q43 64 89 161l-69 44
q-5 -15 -13 -35q-3 -8 -5 -13q-136 121 -161 163q-33 -54 -57 -72q30 -34 29 -81v-339l-65 20q-16 -84 -46 -125v531q-1 72 8 139q-10 -4 -42 -4q-34 0 -49 4q9 -58 8 -139v-643v-24q2 -41 -8 -105zM923 48v73q-47 -6 -104 -6q-1 16 -2 49q-6 141 -13 219q102 0 131 -10v80
q-35 -8 -137 -8q-3 17 -10 44q-4 15 -4 17q24 1 48 0q16 -2 17 2q1 2 -3 10q-21 43 -21 103v145q-2 27 36 26q42 1 34 -93q33 30 91 43q-24 94 -43 107q-16 20 -86 20q-108 6 -99 -51v-244q-67 199 -212 333q-36 -35 -86 -59q197 -121 264 -401q-61 0 -77 1q-22 1 -38 5
q5 -43 4 -134q-1 -86 -6 -122q82 0 87 8q1 2 -3 11q-14 28 -14 60v107h57q10 -115 12 -266h-28q-63 -2 -117 6v-75q40 6 161 6t161 -6zM494 121h-93v114h93v-114zM50 213l79 10q0 2 -1 7q-19 57 -21 245l-71 -4q11 -68 14 -126q3 -56 0 -132zM494 294h-93v113h93v-113z" />
</svg>
