<?xml version="1.0" standalone="no"?>
<!DOCTYPE svg PUBLIC "-//W3C//DTD SVG 1.1//EN" "http://www.w3.org/Graphics/SVG/1.1/DTD/svg11.dtd" >
<svg xmlns="http://www.w3.org/2000/svg" xmlns:xlink="http://www.w3.org/1999/xlink" version="1.1" viewBox="-10 0 1034 1024">
  <g transform="matrix(1 0 0 -1 0 820)">
   <path fill="currentColor"
d="M309 462q-153 0 -173 2q-3 1 -4 1q-3 0 -12 2v-43q15 4 40 5l149 1q-1 -22 -3 -46q0 -3 -2 -7h49q-4 7 -6 29q-1 12 -1 24h78q45 0 62 -6v43q-3 0 -8 -2l-111 -3h-21v64h54q45 0 63 -5v43q-9 0 -12 -3l-105 -2v62h72q42 0 63 -5v43q-1 0 -3 -1q-3 0 -6 -1q-1 0 -3 -2
q-18 0 -44 -3q-4 1 -7 0h-72q0 66 3 79q1 15 10 26h-55q3 -9 3 -16q1 -28 2 -51v-38q-156 0 -173 3q3 0 -9 3l-2 1v-43q51 4 81 5h103v-62q-111 0 -132 2q-3 1 -4 1q-3 0 -12 2v-43q18 4 66 5h82v-64zM793 134h-534q-54 0 -66 5v-46q54 4 58 5l542 -1l43 -4q-4 48 -5 95
l1 122l4 46l-59 -6l-558 1q-7 1 -13 2q-3 0 -12 3v-47q19 4 66 5h533v-76h-496q-52 0 -66 5v-46q18 3 37 5h525v-68zM692 462l-118 1l-24 4v-43q6 3 51 6h91q-4 -24 -5 -48h45q-4 12 -5 35v13h145q45 0 63 -6v43q-9 0 -13 -3l-99 -2h-96v61h99q45 0 62 -5v43q-3 0 -8 -2
q-3 0 -4 -1l-96 -2h-53v65h123q40 0 63 -5v43q-1 0 -3 -1q-6 0 -10 -4l-99 -2h-74q0 66 3 72q1 18 11 29h-54q1 -33 5 -68v-33h-70q-39 0 -55 3q-3 0 -8 3l-3 1v-43q21 3 44 5h92v-65l-112 3q-3 0 -8 2v-43q19 4 66 5h54v-61zM111 -136q6 -4 14 -9q27 45 62 94l39 55
q7 9 25 20q-22 10 -56 32q-7 -27 -37 -76q-15 -27 -30 -49q-16 -21 -45 -51q12 -7 28 -16zM707 -23l-13 7q-3 3 -6 4q-3 -45 -10 -60q-10 -28 -55 -36q-34 -4 -123 -5q-43 0 -85 3q-22 1 -33 10q-12 9 -12 34v59q0 15 13 65h-58q3 -6 4 -12q1 -27 3 -41q0 -97 2 -104
q6 -25 31 -37q30 -12 125 -13q79 0 137 5q54 6 76 36q6 6 12 19q9 16 24 52q-19 9 -32 14zM456 54q48 -40 95 -108q6 6 13 14q6 9 20 18q-15 18 -42 48t-55 58q-16 -18 -31 -30zM772 42q60 -49 139 -160q16 18 34 31l-126 146q-6 6 -13 12q-16 -13 -34 -29v0z" />
  </g>

</svg>
