<?xml version="1.0" standalone="no"?>
<!DOCTYPE svg PUBLIC "-//W3C//DTD SVG 1.1//EN" "http://www.w3.org/Graphics/SVG/1.1/DTD/svg11.dtd" >
<svg xmlns="http://www.w3.org/2000/svg" xmlns:xlink="http://www.w3.org/1999/xlink" version="1.1" viewBox="-10 0 1034 1024">
  <g transform="matrix(1 0 0 -1 0 820)">
   <path fill="currentColor"
d="M358 26q0 -22 -16 -46l37 -41q52 66 61 72q37 39 108 107q16 -24 34 -63q18 19 37 33l-57 84l-51 69q-19 -16 -40 -28q24 -19 54 -65q-67 -66 -130 -123v287l148 -1q10 0 22 -3q6 0 21 -2q0 3 -1 12l-4 52l1 297l4 44l-96 -5q-78 0 -100 2q-18 1 -37 3q1 -30 5 -63v-622z
M395 348v143h149v-143h-149zM395 527v142h149v-142h-149zM902 337q30 -1 62 -5v46q-4 0 -8 -1q-3 0 -4 -2l-96 -2h-67q7 51 12 105l12 196q114 0 121 -3q3 0 10 -2v46q-4 0 -9 -2q-3 0 -4 -1q-27 0 -50 -2l-227 1q-12 0 -24 4v-46q0 1 27 4l117 1l-10 -187q-4 -55 -14 -114
h-89q6 27 14 66q12 69 35 113l-45 6q-4 1 -9 4q-3 -39 -13 -97l-28 -133q18 1 26 2q21 3 30 3h73q-31 -157 -108 -284q-46 -75 -76 -110q-31 -33 -63 -47q27 -15 42 -26q4 -3 9 -6q66 81 121 170q75 130 114 303h119zM824 216q0 12 2 28q1 22 11 38h-56q1 -33 5 -66v-270
q0 -40 24 -54q13 -7 47 -8q75 0 96 35q6 12 10 23l12 54l6 29q-24 9 -46 24q3 -18 3 -37q0 -30 -6 -52q-9 -30 -34 -37q-19 -3 -33 -4q-27 0 -36 10q-4 9 -5 35v252zM96 548q-6 -75 -24 -151q-9 -43 -26 -76q33 -6 46 -8q21 90 29 135q9 43 14 54q3 12 16 34q-27 3 -55 12z
M233 -162q-4 19 -5 48l1 834q0 15 4 28q1 10 8 20h-56q0 -3 5 -58q-1 -3 0 -9l-1 -819q-1 -9 -2 -35q-1 -1 -2 -9h48zM291 532q-4 9 -14 24q-15 -12 -38 -24q16 -18 39 -57q18 -36 26 -72q10 12 42 25q-12 27 -32 61z" />
  </g>

</svg>
