<?xml version="1.0" standalone="no"?>
<!DOCTYPE svg PUBLIC "-//W3C//DTD SVG 1.1//EN" "http://www.w3.org/Graphics/SVG/1.1/DTD/svg11.dtd" >
<svg xmlns="http://www.w3.org/2000/svg" xmlns:xlink="http://www.w3.org/1999/xlink" version="1.1" viewBox="-10 0 1010 1000">
   <path fill="currentColor"
d="M744 -13q105 31 99 39q0 4 -8 9q-40 22 -81 98h71q61 0 100 -6q-2 14 -3 36q-1 18 -1 64v152v9q-1 49 4 81q-38 -7 -108 -6h-11h-316q-81 0 -117 6q8 -64 8 -147l-73 28q-15 -85 -46 -151l69 -20q31 58 50 125v-31q1 -100 -6 -146q29 4 49 5q17 1 48 1h209
q34 -62 63 -146zM169 -8q111 3 113 14q0 2 -3 8q-25 37 -25 115v627q0 96 6 141h-91q6 -45 6 -143v-623q1 -73 -6 -139zM544 -8q32 39 59 102l-81 31q-23 -63 -66 -107zM452 193v210h161v-210h-161zM685 193v210h164v-210h-164zM67 195q6 0 18 1q72 1 68 9q0 2 -2 7
q-21 52 -26 255q-58 -10 -83 -8q28 -112 25 -264zM556 235q3 67 21 119l-67 9q-10 -50 -20 -123zM744 237q10 2 26 4q50 8 51 13q1 1 -3 6q-25 39 -50 113q-21 -10 -64 -13q30 -62 40 -123zM415 514q45 6 119 6h234q62 0 103 -6q-8 37 -8 109v167q0 86 6 119h-89q0 -5 1 -14
q3 -30 3 -63h-284q0 33 4 69h-91q9 -43 8 -125v-159q0 -61 -6 -103zM500 580v71h284v-71h-284zM500 703v69h284v-69h-284z" />
</svg>
