<?xml version="1.0" standalone="no"?>
<!DOCTYPE svg PUBLIC "-//W3C//DTD SVG 1.1//EN" "http://www.w3.org/Graphics/SVG/1.1/DTD/svg11.dtd" >
<svg xmlns="http://www.w3.org/2000/svg" xmlns:xlink="http://www.w3.org/1999/xlink" version="1.1" viewBox="-10 0 1034 1024">
  <g transform="matrix(1 0 0 -1 0 820)">
   <path fill="currentColor"
d="M154 -75l51 101q10 24 21 39q15 24 41 36q-45 13 -65 25q-12 -39 -47 -110q-24 -48 -39 -69q-12 -18 -38 -41q31 -7 55 -20l12 22q4 9 9 17zM123 679q3 -3 73 -65q12 -12 29 -31q7 9 18 20q6 4 12 11l-88 82q-6 3 -16 12q-13 -16 -28 -29zM139 264q-3 -54 -6 -67h47
q-3 16 -5 67v257h136l-1 -240q-3 -18 -3 -40l-2 -9h49q-3 33 -5 67v222h144v-222q0 -21 -13 -30q-15 -10 -45 -11q-7 0 -35 3q12 -25 17 -45q66 3 94 25q18 16 19 53l1 218q1 24 5 50q-33 -1 -66 -5h-121v122q0 9 3 28q3 22 18 44h-65l6 -64q-1 -3 0 -8v-122h-114
q-9 0 -31 3q-15 0 -33 2q1 -16 3 -32q3 -24 3 -34v-232zM249 466q-6 -31 -16 -56q-12 -33 -36 -79q22 -7 36 -16q30 76 39 93q9 18 27 31q-16 6 -35 17q-7 6 -15 10zM371 454q58 -87 72 -111q19 15 29 24l-18 28l-54 80q-15 -10 -29 -21zM399 603q18 -6 36 -21q51 66 65 78
q12 12 41 24q-30 18 -52 36q-21 -42 -90 -117zM582 204q81 48 150 125q16 -21 73 -64q55 -40 109 -70q21 30 42 43q-63 19 -105 43q-54 31 -93 75q30 46 54 94q16 37 25 64q6 21 11 47q13 1 29 1q33 -1 49 -3q3 0 17 -3v46q-24 -4 -66 -5h-210q1 4 4 9q0 6 19 54q4 18 19 40
q12 22 37 39q-54 18 -65 22q-10 -51 -63 -174q-42 -90 -77 -111q18 -3 56 -18q27 55 37 73l16 30h157q-19 -103 -77 -176q-13 12 -40 50q-18 30 -23 58q-9 -9 -16 -14q-9 -6 -29 -17q19 -25 46 -62q0 -3 35 -44l1 -1q-9 -12 -30 -33q-18 -16 -39 -31q-54 -34 -98 -47
q18 -10 32 -26q6 -6 13 -14zM375 76q0 9 3 29q3 19 18 38h-64q4 -24 5 -67v-109q0 -27 11 -45q9 -19 44 -31q21 -4 50 -7q34 -1 91 -2q78 0 106 4q52 7 80 40q13 16 28 66q0 6 5 20q-18 9 -44 28q-1 -42 -8 -63q-13 -42 -59 -51q-36 -6 -114 -7q-37 0 -91 4q-22 1 -36 7
q-24 10 -25 53v93zM495 177q-13 -18 -31 -31q54 -37 130 -115q12 21 28 31q-97 87 -102 92q-7 6 -25 23zM952 -44l-62 72l-105 114q-18 -21 -33 -33q30 -25 90 -92q33 -37 44 -53q9 -10 28 -40q18 16 38 32v0z" />
  </g>

</svg>
