<?xml version="1.0" standalone="no"?>
<!DOCTYPE svg PUBLIC "-//W3C//DTD SVG 1.1//EN" "http://www.w3.org/Graphics/SVG/1.1/DTD/svg11.dtd" >
<svg xmlns="http://www.w3.org/2000/svg" xmlns:xlink="http://www.w3.org/1999/xlink" version="1.1" viewBox="-10 0 1034 1024">
  <g transform="matrix(1 0 0 -1 0 820)">
   <path fill="currentColor"
d="M449 443q15 24 30 51l-2 -422l-3 -16h45q-3 24 -3 45h378q45 0 63 -5v46q-3 0 -12 -3l-215 -2v123q153 0 168 -2l19 -3v46q-9 0 -12 -3l-100 -2h-75v117h121q48 0 63 -6v47q-3 0 -7 -1l-2 -1q-1 0 -3 -2l-172 -2v118h138q36 0 61 -5v46q-6 0 -9 -2q-1 0 -3 -1
q-27 0 -49 -2h-337q43 105 47 107q10 24 28 38q-27 7 -58 22q-12 -57 -49 -145q-37 -85 -97 -181q-31 -49 -73 -80q28 -12 55 -24q31 54 65 104zM516 260h177v-123h-177v123zM516 296v117h177v-117h-177zM516 448v118h177v-118h-177zM352 -129q21 -12 39 -25q3 4 8 12
q21 27 47 69q31 54 43 63q7 7 21 16q-28 12 -54 26q-36 -94 -104 -161zM618 -122q9 0 23 5q-7 39 -21 84q-10 28 -17 53q-24 -6 -41 -9q27 -64 37 -139q9 3 19 6zM684 750q-16 -13 -19 -17q78 -78 99 -113q12 13 36 31l-41 48q-21 24 -60 64q-7 -6 -15 -13zM702 20
q31 -67 42 -141q19 6 42 10q-9 39 -22 76q-10 34 -23 67q-15 -6 -39 -12zM895 8l-28 41q-24 -18 -40 -27q55 -57 108 -169q18 15 41 30q-60 90 -81 125zM270 564q33 -42 72 -127q18 15 39 25q-25 48 -74 124q-18 -13 -37 -22zM55 327q18 -1 38 -5q10 37 16 61q30 135 33 138
q3 10 15 25q-27 3 -57 10q-6 -67 -20 -124q-18 -75 -34 -101q4 -1 9 -4zM239 -165q0 6 -2 12q0 15 -3 49v798q0 13 2 29q1 22 12 38h-57q1 -33 5 -67l-1 -839q0 -12 -4 -20h48z" />
  </g>

</svg>
