<?xml version="1.0" standalone="no"?>
<!DOCTYPE svg PUBLIC "-//W3C//DTD SVG 1.1//EN" "http://www.w3.org/Graphics/SVG/1.1/DTD/svg11.dtd" >
<svg xmlns="http://www.w3.org/2000/svg" xmlns:xlink="http://www.w3.org/1999/xlink" version="1.1" viewBox="-10 0 1010 1000">
   <path fill="currentColor"
d="M163 -12q105 7 107 12q1 2 -3 9q-23 43 -23 132v623q0 78 8 139h-91q9 -62 8 -141v-619q0 -68 -1 -98q-2 -36 -5 -57zM466 -10q97 28 99 38q0 1 -3 5q-26 24 -54 100h169q-24 -56 -60 -105l75 -30q30 41 62 110l-58 25h123q43 0 106 -8v80q-51 -9 -106 -8h-105v85h58
q62 0 131 -6v78q-54 -9 -127 -8h-62v85h90q57 0 99 -6v77q-40 -8 -99 -8h-90v86h99q82 -1 118 -4v75q-59 -9 -116 -8h-321l2 42h-79q7 -51 6 -111v-252q-16 35 -86 143q-24 -34 -65 -56q43 -47 81 -105l-53 10q-6 -50 -46 -135l69 -16q8 21 19 50q17 46 27 63
q74 -137 97 -286zM60 193l77 10q-10 52 -24 244h-83q34 -92 30 -254zM494 197v85h143v-85h-143zM494 346v85h143v-85h-143zM494 494v86h143v-86h-143zM853 693q38 70 76 172l-90 24q-8 -79 -61 -176zM375 695q11 3 32 8q54 14 51 18q0 3 -5 11q-31 48 -74 153
q-40 -20 -83 -25q63 -98 79 -165zM716 711q20 44 40 147l-79 5q-3 -67 -32 -146zM571 713q13 72 18 156l-79 4q1 -100 -12 -158z" />
</svg>
