<?xml version="1.0" standalone="no"?>
<!DOCTYPE svg PUBLIC "-//W3C//DTD SVG 1.1//EN" "http://www.w3.org/Graphics/SVG/1.1/DTD/svg11.dtd" >
<svg xmlns="http://www.w3.org/2000/svg" xmlns:xlink="http://www.w3.org/1999/xlink" version="1.1" viewBox="-10 0 1034 1024">
  <g transform="matrix(1 0 0 -1 0 820)">
   <path fill="currentColor"
d="M617 -86h-242q-28 1 -55 2q-3 0 -11 4v-47q3 0 11 2q16 3 55 4l570 -1q16 -1 30 -5v47h-3q-3 -1 -5 -3q-3 0 -4 -1l-85 -2h-224v95l225 -1q9 0 30 -4v46q-10 0 -13 -3q-27 0 -49 -2h-193v71l188 -1l41 -4q-4 49 -5 93q0 150 2 163q0 18 3 38q-30 -1 -59 -5l-382 1
q-3 0 -47 4q1 -31 5 -65l-1 -188q-3 -12 -4 -41q49 6 106 5h116v-71l-221 1l-24 4v-46q15 4 65 5h180v-95zM437 152v87h180v-87h-180zM437 275v89h180v-89h-180zM654 152v87h186v-87h-186zM654 275v89h186v-89h-186zM414 504q-30 0 -67 5v-46q21 3 44 5l544 -1q16 0 28 -4
v46q-4 0 -8 -1q-3 0 -4 -2l-223 -2q49 69 85 85q-22 12 -46 28h78q36 0 63 -6v48q-3 0 -10 -2l-3 -3l-77 -2l-411 1q-19 3 -21 5l-3 1v-48q21 6 65 6h308q-10 -25 -21 -40q-15 -22 -29 -47q-9 -12 -18 -26h-104q-70 78 -73 81q-7 10 -17 20l-36 -29q39 -33 72 -72h-116z
M550 737q69 -31 123 -78q3 9 21 31q1 3 5 5l-47 32l-75 47q-3 -4 -6 -7q-1 -3 -5 -7v-1q-12 -12 -16 -22zM249 531q48 -66 76 -149q18 12 41 24q0 3 -36 69l-41 78q-7 -3 -13 -6q-3 -3 -6 -4t-6 -3q-9 -3 -15 -9zM70 290q7 -1 21 -4q21 81 35 142q6 40 12 52q3 9 17 30
q-27 3 -57 11q-6 -70 -27 -151q-12 -46 -28 -76q6 -1 14 -3q6 0 13 -1zM228 -166q-1 12 -3 24q0 18 -2 37l1 813q0 16 4 29q1 10 8 19h-57q1 -7 4 -16q1 -30 2 -51l-1 -835q-3 -7 -4 -20h48z" />
  </g>

</svg>
