<?xml version="1.0" standalone="no"?>
<!DOCTYPE svg PUBLIC "-//W3C//DTD SVG 1.1//EN" "http://www.w3.org/Graphics/SVG/1.1/DTD/svg11.dtd" >
<svg xmlns="http://www.w3.org/2000/svg" xmlns:xlink="http://www.w3.org/1999/xlink" version="1.1" viewBox="-10 0 1034 1024">
  <g transform="matrix(1 0 0 -1 0 820)">
   <path fill="currentColor"
d="M375 643l137 -156q9 -12 19 -12t11 11q0 4 -2 9l-58 148h-107zM391 428h-128q-15 0 -15 -10q0 -9 15 -11q18 -3 38 -11q33 -12 33 -58v-201q0 -67 16 -102q25 -57 103 -57q54 0 117 47q30 21 61 51v-91q27 21 53 32q16 4 36 11q12 3 25 6q16 3 19 13q0 9 -5 9
q-22 -1 -45 -5q-9 0 -19 26q-7 27 -8 68v285h-125q-9 0 -9 -8q0 -7 19 -14q33 -4 48 -25q10 -15 11 -72v-204q-15 -16 -29 -28q-57 -45 -117 -45q-54 0 -80 39q-13 25 -14 84v271z" />
  </g>

</svg>
