<?xml version="1.0" standalone="no"?>
<!DOCTYPE svg PUBLIC "-//W3C//DTD SVG 1.1//EN" "http://www.w3.org/Graphics/SVG/1.1/DTD/svg11.dtd" >
<svg xmlns="http://www.w3.org/2000/svg" xmlns:xlink="http://www.w3.org/1999/xlink" version="1.1" viewBox="-10 0 1034 1024">
  <g transform="matrix(1 0 0 -1 0 820)">
   <path fill="currentColor"
d="M349 581l-255 1q-24 3 -26 4v-47q6 3 12 3q27 3 55 3h55v-322q-52 -9 -123 -12l18 -54q36 13 125 30l121 23l96 16q-3 -72 -5 -90h48q-4 54 -5 82v13q33 3 66 9l9 51q-15 -7 -25 -11q-16 -4 -50 -11v276q39 0 79 -3q3 0 10 -3v47q-27 -4 -66 -5h-100q10 22 16 39
q4 13 11 26l25 63q-34 -1 -69 -5q-166 0 -190 2q-1 0 -19 3v-47q19 6 64 6h157zM427 545v-81h-200v81h200zM227 354v74h200v-74h-200zM227 318h200v-55l-200 -35v90zM63 -104q31 -12 52 -29q27 40 45 69q15 25 34 61q21 39 33 53q6 9 30 27q-39 10 -59 21q-22 -63 -68 -133
q-30 -45 -67 -69zM523 417q10 -3 15 -8q0 1 2 4q6 12 29 45q3 4 56 89q0 3 2 5h158q-4 -37 -22 -103q-12 -42 -22 -70q-10 -24 -22 -41q-9 12 -17 24q-42 54 -53 116q-24 -15 -50 -29q28 -42 57 -87q37 -52 41 -57q-30 -33 -82 -69q-60 -36 -116 -45q25 -21 44 -46
q33 16 80 48q54 37 99 83q84 -78 212 -129q18 30 40 51q-54 3 -111 29q-66 30 -115 80q21 42 43 95q9 28 17 58q7 33 19 94q78 0 105 -3q9 0 13 -3v46q-24 -4 -66 -5h-233q1 9 36 77q4 10 20 30q12 21 34 36q-22 7 -62 27q-3 -15 -14 -42q-10 -28 -33 -77q-40 -87 -93 -160
q-15 -15 -56 -47q9 -3 16 -5zM364 23q0 7 3 29q3 18 19 38h-65q4 -25 5 -67v-78q0 -58 56 -76q45 -9 136 -10q85 0 133 14q46 15 66 65l19 65q-28 12 -50 29q-1 -45 -10 -83q-7 -31 -43 -42q-34 -9 -119 -10q-57 0 -100 5q-49 7 -50 60v61zM603 39l-110 90q-7 -15 -26 -36
q48 -30 121 -102q9 16 31 36q-9 6 -16 12zM920 -70q6 4 12 11l-64 85q-69 84 -71 89q-1 1 -2 3q-24 -16 -39 -24q45 -51 78 -91q30 -40 64 -92l4 3q1 3 7 8q4 4 11 8v0z" />
  </g>

</svg>
