<?xml version="1.0" standalone="no"?>
<!DOCTYPE svg PUBLIC "-//W3C//DTD SVG 1.1//EN" "http://www.w3.org/Graphics/SVG/1.1/DTD/svg11.dtd" >
<svg xmlns="http://www.w3.org/2000/svg" xmlns:xlink="http://www.w3.org/1999/xlink" version="1.1" viewBox="-10 0 1034 1024">
  <g transform="matrix(1 0 0 -1 0 820)">
   <path fill="currentColor"
d="M446 -58q21 18 38 35q34 31 42 35q7 6 23 12q-18 12 -45 38q-31 -43 -70 -79q-45 -40 -70 -56q-24 -15 -51 -22q25 -15 43 -38l23 20q6 3 11 9q27 24 56 46zM411 364l-59 4q-3 0 -7 2v-47q4 0 11 2q18 3 55 4l538 -1q16 -1 30 -5v47h-3q-6 0 -14 -4q-22 0 -45 -2h-213
q7 15 18 29q-12 10 -32 24q-21 12 -50 32q-18 13 -35 25q-9 -15 -26 -33l74 -49q18 -13 34 -28h-276zM834 477q24 0 56 -5q-4 45 -5 67q0 160 2 173q0 18 3 36q-27 -1 -56 -5l-363 1q-12 3 -41 4q1 -31 5 -65l-1 -173q-3 -12 -4 -38q30 3 63 5h341zM472 513v78h375v-78h-375
zM847 627h-375v80h375v-80zM647 101v-172q0 -25 -14 -32q-13 -6 -36 -6q-22 0 -67 8q10 -25 16 -52q39 3 78 5q30 7 47 19q0 3 3 4q13 21 14 42v184l159 -1l45 -4q-1 15 -3 30q-3 21 -3 70q0 28 6 71q-54 -4 -60 -5l-360 1q-19 3 -41 4q1 -30 5 -61q0 -51 -2 -79
q-3 -6 -3 -31q46 4 90 5h126zM473 137v89h375v-89h-375zM780 27q24 -15 42 -29l55 -46q30 -24 75 -76q3 9 13 19q4 9 16 18l-79 72l-92 75q-12 -16 -30 -33zM376 440q33 21 35 23q-9 12 -69 119q-3 9 -12 20q-6 -6 -27 -17q-3 -3 -11 -7q18 -22 44 -69q25 -46 35 -72
q1 1 5 3zM55 346q6 -1 14 -5l32 -7l22 55l31 87q19 57 41 78q-24 6 -58 19q-6 -51 -33 -126q-27 -70 -49 -101zM266 -161q0 6 -2 11q0 19 -3 49v807q0 13 2 29q1 19 11 38h-57q3 -15 6 -48q-1 -9 0 -19l-1 -847q0 -12 -4 -20h48z" />
  </g>

</svg>
