<?xml version="1.0" standalone="no"?>
<!DOCTYPE svg PUBLIC "-//W3C//DTD SVG 1.1//EN" "http://www.w3.org/Graphics/SVG/1.1/DTD/svg11.dtd" >
<svg xmlns="http://www.w3.org/2000/svg" xmlns:xlink="http://www.w3.org/1999/xlink" version="1.1" viewBox="-10 0 1034 1024">
  <g transform="matrix(1 0 0 -1 0 820)">
   <path fill="currentColor"
d="M270 541l-12 -6q51 -84 82 -177q13 12 36 21q-6 15 -13 28q-1 6 -5 16h263v-69l-181 1q-15 3 -47 4q1 -28 5 -59l-1 -168q-3 -12 -4 -43q6 3 40 3q9 1 122 2h66v-71l-244 1l-24 4v-41q15 4 66 5h202v-82l-313 1q-21 3 -25 4v-40q4 0 9 3q21 3 57 3l600 -1q16 -1 27 -5v40
q-3 0 -8 -2q-3 0 -4 -1q-27 0 -50 -2h-255v82l222 -1l30 -4v41q-3 0 -8 -2q-3 0 -5 -1q-27 0 -49 -2h-190v71l190 -1q3 0 40 -4q-4 48 -5 88q0 150 3 165q0 9 2 17q-28 -1 -58 -5h-172v69h259q42 0 62 -5v41q-7 0 -12 -4l-85 -2h-224v62q13 0 29 2l68 4q54 3 93 4
q16 0 45 -2q-7 13 -15 27q-6 7 -13 22q-27 -7 -62 -13q-49 -6 -92 -10l-207 -4l-103 7q-13 1 -27 4q6 -15 14 -45l232 3v-61h-276l-51 99q-4 -3 -12 -5zM435 125v89h186v-89h-186zM435 242v82h186v-82h-186zM659 125v89h187v-89h-187zM659 242v82h187v-82h-187zM512 670
q-148 0 -168 2l-15 3v-41q60 6 104 5h79q0 -30 -3 -45q-1 -9 -3 -11h49q-1 3 -1 5q-1 3 -4 37v14h173q-3 -27 -3 -47q0 -4 -2 -9h49q-4 49 -5 56h128q37 0 63 -5v41q-10 0 -13 -3l-93 -2h-86v20q0 46 13 67h-56q1 -33 5 -67v-20h-172q-1 10 -1 20q0 46 13 67h-57q3 -9 4 -16
zM75 299q9 0 20 -3q15 54 35 145q10 52 15 60q3 12 17 28q-34 6 -60 13q-6 -78 -25 -159q-12 -45 -28 -80q9 0 26 -4zM230 -176q0 6 -2 13q0 19 -3 48l1 824q0 18 4 30q1 10 8 18h-56q1 -33 5 -67l-1 -846q0 -12 -4 -20h48z" />
  </g>

</svg>
