<?xml version="1.0" standalone="no"?>
<!DOCTYPE svg PUBLIC "-//W3C//DTD SVG 1.1//EN" "http://www.w3.org/Graphics/SVG/1.1/DTD/svg11.dtd" >
<svg xmlns="http://www.w3.org/2000/svg" xmlns:xlink="http://www.w3.org/1999/xlink" version="1.1" viewBox="-10 0 1010 1000">
   <path fill="currentColor"
d="M655 -13h35q53 -1 54 3q2 3 -2 13q-12 31 -12 71h82q69 0 117 -6v73q-51 -7 -117 -4h-82v58q65 -7 105 -14q46 58 40 59q-3 3 -43 2q-34 -1 -50 0q-45 0 -145 6v52h182q84 0 114 -6v71q-38 -5 -110 -5h-186v45h139q58 0 91 -6q-5 19 -4 97v40q0 66 1 88q0 27 3 43
q-39 -6 -91 -6h-139v50h155q49 0 62 -1q18 -1 43 -5v63q-36 -6 -103 -6h-157v60h182q83 1 114 -6v69q-35 -8 -114 -8h-426q-68 0 -117 8v-69q37 6 119 6h174v-60h-142q-70 -1 -96 4v-59q21 3 39 3q14 1 55 1h144v-50h-132q-60 -3 -102 6q3 -16 3 -42q1 -13 1 -32v-53v-41
q1 -71 -4 -100q42 6 109 6h125v-45h-142q-67 0 -108 7v-53l-31 14q-16 -65 -54 -125l64 -22q31 49 55 117q33 0 74 2h142v-48q-21 0 -99 4q-47 3 -75 4q-9 -32 -26 -59q15 0 53 1q36 1 50 1v-66q-102 0 -159 6v-75q54 6 159 6q1 -57 -6 -86q91 3 90 8q1 3 -3 12
q-13 26 -13 66h121q0 -61 -6 -87zM143 -10q8 0 22 1q83 1 79 7q1 1 -2 9q-18 48 -18 128v643q1 92 8 131h-85q6 -44 6 -127v-649q0 -92 -10 -143zM659 137h-119v66q20 -1 61 -2q35 -1 58 -2v-62zM56 205q21 4 53 9q31 3 30 7q0 2 -2 5q-24 46 -34 223q-24 -5 -71 -2
q25 -112 24 -242zM405 455v57h164v-57h-164zM637 455v57h161v-57h-161zM569 558h-164v54h164v-54zM637 558v54h161v-54h-161z" />
</svg>
