<?xml version="1.0" standalone="no"?>
<!DOCTYPE svg PUBLIC "-//W3C//DTD SVG 1.1//EN" "http://www.w3.org/Graphics/SVG/1.1/DTD/svg11.dtd" >
<svg xmlns="http://www.w3.org/2000/svg" xmlns:xlink="http://www.w3.org/1999/xlink" version="1.1" viewBox="-10 0 1010 1000">
   <path fill="currentColor"
d="M403 -6q12 2 34 6q56 8 51 14q0 1 -4 4q-22 20 -49 80q107 0 154 -6q-36 86 -79 172q61 0 103 -6q-4 44 -4 86v450q2 46 -18 61q-19 18 -85 28q-5 -46 -28 -79q75 20 68 -42v-121h-64q-3 113 6 151h-63q3 -82 2 -67v-36v-48h-68q-25 142 -71 226q-42 -47 -60 -53
q72 -101 72 -290v-230l-28 14q-13 -59 -50 -121l52 -24l55 95q39 6 117 6q17 -29 45 -94q5 -12 7 -17h-89l-42 76q-30 -24 -65 -28q69 -68 101 -207zM762 371q48 2 83 8q0 2 -2 10q-10 34 -10 76q45 0 90 -6v61q-38 -7 -92 -4v101q78 0 113 -5v75q-32 -6 -113 -6v95
q0 78 6 127h-75q6 -49 6 -127v-95q-90 0 -135 6v-75q47 5 135 5v-101h-70q-4 8 -8 25q-5 22 -11 41q-30 -13 -58 -10q44 -96 44 -181h11q57 2 56 10q2 4 -3 13q-10 22 -19 51h58q0 -64 -6 -94zM222 895h-79q8 -33 8 -147v-613q0 -81 -6 -133q99 3 97 12q0 2 -3 7
q-21 36 -21 118v607q0 122 4 149zM712 127q-59 -3 -89 6v-73q33 4 155 4q121 0 157 -4q-5 34 -11 111q-3 40 -5 62q-4 77 -28 92q-23 24 -111 31q-3 -47 -22 -76q62 7 76 -2q17 -6 19 -45q2 -20 5 -66q2 -36 3 -40h-79q-17 120 -99 231q-35 -28 -70 -36q90 -76 99 -195z
M50 211q5 1 15 2q78 11 72 16q0 4 -4 12q-12 -2 -42 230q-13 -3 -39 -4q-28 -1 -38 0q17 -37 29 -118q11 -83 7 -138zM482 473v121h64v-121h-64zM363 473v121h64v-121h-64zM363 312v113h64v-113h-64zM482 312v113h64v-113h-64z" />
</svg>
