<?xml version="1.0" standalone="no"?>
<!DOCTYPE svg PUBLIC "-//W3C//DTD SVG 1.1//EN" "http://www.w3.org/Graphics/SVG/1.1/DTD/svg11.dtd" >
<svg xmlns="http://www.w3.org/2000/svg" xmlns:xlink="http://www.w3.org/1999/xlink" version="1.1" viewBox="-10 0 1010 1000">
   <path fill="currentColor"
d="M552 -21q13 2 37 5q73 7 66 14q-1 3 -5 8q-21 23 -41 82h175q60 1 107 -6q-6 44 -6 101v270q0 75 6 135h-83q5 -48 5 -133v-304h-365v304q0 60 1 84q1 28 3 45h-81q6 -42 6 -129v-92l-75 22q-11 -81 -50 -170l67 -18q30 50 58 143v-151q0 -63 -4 -107q51 6 163 6
q16 -58 16 -109zM712 197q6 2 17 5q56 16 53 25q0 3 -6 9q-23 27 -50 78q-35 -12 -59 -14q31 -45 45 -103zM52 205q14 1 40 3q52 2 49 7q0 2 -2 6q-19 52 -24 256q-34 -12 -83 -6q19 -135 20 -266zM528 203q22 56 41 87l-59 20q-19 -39 -38 -89zM248 768q0 99 8 145h-89
q6 -52 6 -141v-639v-18q2 -76 -8 -119q66 0 84 1q24 1 25 5q0 1 -3 7q-23 43 -23 124v635zM665 433l49 -32q16 18 45 55q19 24 29 36q-30 12 -56 38q-32 -60 -67 -97zM450 506q52 -37 110 -125q-42 0 -58 1q-19 1 -30 3v-57q42 6 119 6q0 -112 -6 -157q80 -3 84 6q0 2 -1 6
q-15 35 -15 145q87 0 129 -6v59q-24 -6 -127 -6q0 126 6 167h-76q6 -35 6 -127q-29 51 -76 109q-10 13 -15 20q-26 -33 -50 -44zM853 627q73 -1 117 -6v76q-92 -7 -115 -6h-163q102 122 274 129q-36 30 -63 95q-215 -70 -272 -224q-57 158 -280 226q-17 -41 -71 -87
q202 -11 280 -139h-145q-33 0 -127 4v-74q51 6 129 6h166q6 -34 -2 -61q55 0 72 1q22 2 24 7q1 1 -4 9q-14 21 -22 44h202z" />
</svg>
