<?xml version="1.0" standalone="no"?>
<!DOCTYPE svg PUBLIC "-//W3C//DTD SVG 1.1//EN" "http://www.w3.org/Graphics/SVG/1.1/DTD/svg11.dtd" >
<svg xmlns="http://www.w3.org/2000/svg" xmlns:xlink="http://www.w3.org/1999/xlink" version="1.1" viewBox="-10 0 1034 1024">
  <g transform="matrix(1 0 0 -1 0 820)">
   <path fill="currentColor"
d="M96 163q24 -9 51 -26q115 211 122 218q9 16 19 30q-21 12 -37 28q-13 -33 -29 -63q-16 -33 -42 -75q-27 -46 -46 -74q-15 -18 -38 -38zM734 515h145q42 0 64 -5v46q-10 0 -14 -3q-27 0 -50 -2l-528 1q-19 1 -26 4v-47q18 6 66 6h130q0 -37 -3 -77h-100q-9 0 -33 3
q-13 0 -31 2q6 -48 6 -73l-1 -187q-1 -7 -2 -22q0 -3 -3 -9h49q-4 19 -5 61v189h115q-9 -63 -42 -111q-33 -42 -61 -57q27 -12 47 -24q28 36 45 60q12 19 26 45q31 -22 51 -38q12 -10 32 -34q3 6 25 39l-95 68q4 27 10 52h138q-15 -103 -61 -165q-21 -24 -45 -39
q21 -7 48 -25q28 42 47 73q15 25 29 55q33 -30 55 -52q13 -15 35 -43q19 24 29 33q-25 27 -47 47l-62 55q0 4 2 13l7 35q0 7 1 13h123v-196q0 -27 -11 -34q-15 -9 -37 -10q-18 0 -43 7q7 -24 12 -50q28 1 46 5q15 3 29 8q42 13 42 52l1 216q1 21 5 43q-51 -4 -79 -5h-85
q1 39 4 77zM555 438l6 77h136q-3 -37 -4 -77h-138zM497 681l-128 1l-24 4v-46q27 3 57 5h95q0 -36 -2 -53q0 -9 -3 -14h48q-3 9 -4 21l-1 46h191q0 -34 -3 -50q-1 -10 -3 -13h49q-3 9 -4 20l-1 43q135 0 143 -3q3 0 9 -2v46q-3 0 -8 -2q-3 0 -4 -1l-140 -2q0 51 3 61
q1 15 10 28h-57q3 -9 3 -16q3 -57 3 -73h-191q0 51 3 64q1 15 10 26h-56q1 -33 5 -66v-24zM168 -32q21 36 39 58q18 28 47 42q-15 7 -38 26q-7 6 -15 11q-7 -21 -19 -43q-12 -24 -37 -57q-45 -69 -86 -93q31 -15 51 -28zM366 40q0 12 14 65h-58q0 -3 7 -50l1 -133
q3 -22 21 -38q24 -19 126 -20q82 0 140 4q51 3 81 23q25 18 49 72q9 25 16 36l-52 28q0 -18 -3 -34q-3 -34 -19 -56q-18 -27 -72 -33q-37 -3 -119 -4q-45 0 -86 3q-22 1 -33 10q-12 12 -13 33v94zM580 16q1 3 25 30q-21 22 -51 50l-44 39l-25 23q-16 -18 -29 -31
q63 -45 120 -115q1 3 4 4zM790 61q75 -63 129 -139q6 -10 14 -20q15 19 33 34q-13 13 -23 27l-62 68l-60 60q-15 -15 -31 -30zM150 720q31 -18 75 -49q40 -30 58 -51q0 1 4 5l7 10q6 10 15 23l-57 43l-49 33q-12 10 -26 21q-6 -12 -13 -19q-9 -9 -14 -16zM85 544
q66 -36 134 -98q0 3 3 6t7 10q4 9 15 22q-15 12 -100 71q-13 7 -34 24q-13 -21 -25 -35v0z" />
  </g>

</svg>
