<?xml version="1.0" standalone="no"?>
<!DOCTYPE svg PUBLIC "-//W3C//DTD SVG 1.1//EN" "http://www.w3.org/Graphics/SVG/1.1/DTD/svg11.dtd" >
<svg xmlns="http://www.w3.org/2000/svg" xmlns:xlink="http://www.w3.org/1999/xlink" version="1.1" viewBox="-10 0 1034 1024">
  <g transform="matrix(1 0 0 -1 0 820)">
   <path fill="currentColor"
d="M433 -75l-4 -57q0 -1 -1 -4h44q-3 30 -5 61v232l54 -45l55 -55q10 16 24 29q-22 22 -52 46q-24 18 -49 40l-32 26v42q69 0 83 -2l31 -4q-4 49 -5 78l3 164q0 7 2 13q-54 -6 -76 -6h-38v124h64q42 0 61 -5v42q-4 0 -8 -1q-1 0 -3 -2l-97 -2h-17q0 114 3 122q1 10 8 21h-50
q1 -33 5 -67v-76q-93 0 -114 2q-6 0 -19 3v-42q54 6 86 5h47v-124l-112 6q1 -30 5 -60q0 -135 -2 -159q-1 -1 -1 -5q0 -12 -2 -31q60 6 81 6h19q-22 -43 -39 -69q-42 -63 -70 -101q-42 -49 -79 -64q22 -15 46 -33q13 13 18 22q36 43 65 86q31 45 71 113v-269zM433 272h-74
v180h74v-180zM543 272h-76v180h76v-180zM790 325q0 13 2 29q1 22 11 38h-55q0 -7 3 -16l2 -167q-3 -36 -5 -74q-9 -45 -37 -92q-42 -63 -116 -107q-27 -13 -67 -24q25 -24 39 -45l71 50q81 63 116 130q36 67 36 165v113zM823 648q-16 -39 -32 -71q-15 -33 -39 -74
q-66 0 -86 2q-6 3 -36 3q1 -33 5 -66l-1 -325l-4 -36h47q-3 28 -5 57v329h199v-325q0 -6 -3 -51q0 -4 -2 -10h47l-4 30l-1 331q0 30 5 66q-27 -1 -55 -5h-62q81 177 88 186q-51 -4 -64 -5h-109q21 42 32 57q4 7 27 29q-28 10 -51 25q-9 -30 -42 -99q-34 -69 -56 -100
q-27 -39 -59 -59q31 -13 49 -26q21 30 32 50q12 22 29 47q7 15 22 40h129zM814 57q-10 -15 -27 -32q57 -51 92 -88q27 -28 56 -68q1 3 30 37zM312 540q-27 36 -37 55q-15 -12 -34 -26q39 -36 63 -93q10 9 17 16q6 6 15 13q-15 19 -24 35zM67 323l41 -4q18 88 29 158
q3 21 6 36q3 21 5 24q3 13 14 32q-24 1 -56 11q-1 -69 -18 -169q-12 -51 -26 -87q1 0 5 -1zM235 -139q-1 3 -5 61l1 816q0 18 4 29q1 10 8 19h-55q1 -33 5 -68l-1 -837q-3 -7 -4 -20h47z" />
  </g>

</svg>
