<?xml version="1.0" standalone="no"?>
<!DOCTYPE svg PUBLIC "-//W3C//DTD SVG 1.1//EN" "http://www.w3.org/Graphics/SVG/1.1/DTD/svg11.dtd" >
<svg xmlns="http://www.w3.org/2000/svg" xmlns:xlink="http://www.w3.org/1999/xlink" version="1.1" viewBox="-10 0 1010 1000">
   <path fill="currentColor"
d="M637 10q45 0 99 6q-22 32 -24 82h80q45 0 95 -10v71q-54 -6 -89 -6h-86q0 18 10 48h-85q6 -12 8 -48h-129q0 30 6 54h-82q8 -21 8 -54h-53q-69 0 -95 8v-73q51 10 93 10h55q0 -3 -6 -86q93 0 94 6q0 3 -4 11q-16 30 -16 69h129q1 -55 -8 -88zM157 32q73 41 129 93l-60 62
q-51 -56 -121 -99zM931 213v77q-43 -8 -108 -8h-111q-1 7 -1 19q-2 27 -5 45h86q29 0 77 -6q0 1 -1 4q-7 42 -7 57v141q1 57 -26 75q-23 20 -111 28q1 -38 -28 -81q71 8 80 0q15 -6 14 -50v-113h-94q-6 18 -13 48q38 15 95 45l-44 54q-33 -30 -65 -54q-27 57 -66 102
q-35 -22 -69 -28q78 -59 101 -167h-109q0 -3 -12 34q44 22 73 48l-39 49q-21 -27 -52 -49q-30 62 -58 93q-28 -26 -65 -30q-1 57 8 77h-87q7 -33 8 -79v-133q0 -38 -6 -71q29 6 75 6h101q2 -10 3 -37q0 -18 1 -27h-113q-65 0 -105 8v-79q50 11 111 12h454q61 -1 108 -10z
M83 215q71 27 133 71l-51 72q-71 -56 -133 -78zM649 282h-109q0 36 -6 64h109q5 -22 6 -64zM212 371q21 36 53 61l3 3q-72 98 -135 210q-14 -16 -75 -55q97 -94 154 -219zM373 401v135q61 -29 91 -135h-91zM516 596q34 42 73 115l-73 29q-24 -65 -66 -113zM292 645
q79 2 105 16q-23 20 -22 79q-1 54 11 64q8 13 56 12h100q66 -1 91 -18q23 -14 36 -93q26 32 79 57q-16 50 -42 90q-23 33 -152 33h-114q-92 1 -113 -13q-28 -14 -27 -64v-85q0 -49 -8 -78zM171 651q65 16 79 26q-54 99 -93 194q-41 -24 -82 -31q61 -78 96 -189zM808 651
q84 76 138 135l-79 48q-58 -85 -123 -139z" />
</svg>
