<?xml version="1.0" standalone="no"?>
<!DOCTYPE svg PUBLIC "-//W3C//DTD SVG 1.1//EN" "http://www.w3.org/Graphics/SVG/1.1/DTD/svg11.dtd" >
<svg xmlns="http://www.w3.org/2000/svg" xmlns:xlink="http://www.w3.org/1999/xlink" version="1.1" viewBox="-10 0 1034 1024">
  <g transform="matrix(1 0 0 -1 0 820)">
   <path fill="currentColor"
d="M48 321l17 -2q12 -1 27 -4q13 61 28 149q6 40 10 50q3 10 17 26q-7 0 -62 13q0 -15 1 -28q0 -12 -8 -75q-6 -45 -30 -129zM189 760l6 -71l-1 -809q-4 -31 -5 -42h48q-4 64 -5 130l1 738q0 18 4 27q1 13 9 27h-57zM331 405q24 12 31 14q-37 91 -68 135q-22 -13 -41 -23
q18 -22 34 -52q19 -39 34 -79q4 3 10 5zM303 -100q31 -16 49 -34q46 40 77 70q55 54 70 64q10 9 36 16q-34 27 -50 42q-30 -48 -81 -93q-57 -45 -101 -65zM660 75l271 -1q10 0 28 -2l19 -2v46q-55 -4 -69 -5l-547 1l-39 4v-46q33 3 69 5h230v-154q0 -27 -11 -32
q-9 -4 -26 -5q-37 0 -68 9q12 -33 13 -38q1 -6 3 -15q42 0 62 3q13 0 24 4q40 9 41 67v161zM400 657q-30 0 -68 5v-46q36 4 68 5l520 -1q6 0 47 -4v46l-19 -2q-27 -1 -40 -3h-225q12 18 26 33q-48 39 -114 84q-15 -21 -29 -38q60 -25 113 -79h-279zM718 367q15 0 46 -4
q-3 42 -4 70q0 10 4 55q-30 -3 -46 -4h-158q-15 0 -47 4q3 -43 4 -64q0 -18 -4 -61q33 3 47 4h158zM723 452v-52h-170v52h170zM386 575q1 -30 5 -63l-1 -191q-3 -15 -4 -47q31 3 65 5l392 -1l50 -4q-4 54 -5 78l1 177l4 46q-66 -6 -93 -6l-368 1q-4 0 -46 5zM428 315v219
h422v-219h-422zM397 176q55 6 69 5l370 -1q6 0 47 -4v47l-57 -6l-387 1q-9 1 -21 2q-7 0 -21 3v-47zM774 47q-7 -15 -29 -38l50 -32q75 -55 86 -66q22 -19 44 -42q12 18 30 34q-24 24 -65 55z" />
  </g>

</svg>
