<?xml version="1.0" standalone="no"?>
<!DOCTYPE svg PUBLIC "-//W3C//DTD SVG 1.1//EN" "http://www.w3.org/Graphics/SVG/1.1/DTD/svg11.dtd" >
<svg xmlns="http://www.w3.org/2000/svg" xmlns:xlink="http://www.w3.org/1999/xlink" version="1.1" viewBox="-10 0 1034 1024">
  <g transform="matrix(1 0 0 -1 0 820)">
   <path fill="currentColor"
d="M99 320q25 100 32 135l6 23q4 21 9 29q6 16 21 32q-31 3 -63 5q0 -19 -3 -46q-4 -31 -14 -81q-22 -87 -44 -115q1 0 50 -8zM238 -168q-3 12 -4 44l-1 813q0 15 3 31q3 19 20 38h-66q1 -33 5 -69l-1 -822q-3 -19 -4 -35h48zM304 572q-7 -3 -13 -7l-24 -12q34 -48 66 -133
q18 12 21 13t16 5q-19 39 -34 72q-24 45 -32 62zM345 261q-3 -51 -5 -67h48q-6 18 -6 67v39h545q-3 -81 -5 -92q-1 0 -1 -2h50q-4 12 -5 35l-1 37l6 63q-33 -1 -67 -5l-518 1q-15 3 -46 4q1 -30 5 -63v-17zM527 676l-170 3q-3 1 -9 2v-46q9 4 26 5l153 1q0 -21 -2 -36
q0 -9 -3 -19h46q-3 10 -5 55h167q0 -34 -4 -54h45q-3 13 -4 54l153 -1q24 0 40 -5v46q-21 -4 -66 -5h-127q0 51 6 61q3 15 16 28h-65q3 -9 3 -15q3 -51 3 -74h-167q0 48 7 63q4 13 16 23h-65q0 -6 3 -15q3 -54 3 -71zM397 572q1 -33 5 -67q0 -57 -2 -85q-1 -1 -1 -6
q0 -15 -2 -32q31 3 65 5l395 -1l50 -4q-6 51 -5 108q1 40 5 82q-66 -4 -93 -5l-371 1q-15 3 -46 4zM438 423v108h118v-108h-118zM593 423v108h111v-108h-111zM740 423v108h124v-108h-124zM439 -99l-5 -63q-1 -1 -1 -4h48q-6 19 -6 67v12h352q-3 -60 -5 -71q-1 0 -1 -2h49
q-3 33 -5 65l1 297l4 48q-66 -6 -87 -6l-300 1q-30 4 -50 5q6 -60 6 -83v-266zM475 57v67h352v-67h-352zM475 157v52h352v-52h-352zM827 -51h-352v73h352v-73z" />
  </g>

</svg>
