<?xml version="1.0" standalone="no"?>
<!DOCTYPE svg PUBLIC "-//W3C//DTD SVG 1.1//EN" "http://www.w3.org/Graphics/SVG/1.1/DTD/svg11.dtd" >
<svg xmlns="http://www.w3.org/2000/svg" xmlns:xlink="http://www.w3.org/1999/xlink" version="1.1" viewBox="-10 0 1034 1024">
  <g transform="matrix(1 0 0 -1 0 820)">
   <path fill="currentColor"
d="M271 661h-130q-39 0 -54 3q-1 0 -12 2v-46q15 4 66 5h130v-67q-90 0 -114 2q-3 0 -16 3v-47q15 6 66 6h171q43 0 62 -6v47q-9 0 -12 -3l-96 -2h-23v67h118q45 0 62 -5v46q-6 0 -9 -2q-1 0 -3 -1l-98 -2h-70q0 60 3 69q1 15 10 28h-56q3 -9 3 -16q1 -30 2 -52v-29zM82 394
l-4 -50q0 -3 -3 -9h50q-6 21 -6 42v47h334q0 -46 -3 -71q-3 -6 -3 -16h50q-3 9 -5 35q-3 45 0 56q0 4 2 9l3 28q-28 -1 -57 -5l-323 1q-15 3 -42 4q6 -58 7 -71zM84 -88q12 -27 19 -50q24 7 88 19l250 39q3 16 5 30q1 4 3 13q-43 -12 -91 -21q21 49 33 67q9 15 33 38
q-24 7 -48 22q-30 -79 -59 -132q-141 -24 -208 -25h-25zM144 236l4 -41q0 -69 -2 -97q-3 -6 -3 -29q49 4 72 5l186 -1q15 0 41 -4q-4 48 -5 95l4 72q0 7 1 16q-55 -4 -82 -5l-172 1q-15 3 -45 4q0 -7 1 -16zM185 110v101h214v-101h-214zM227 8l-16 22q-12 15 -22 30
q-24 -18 -32 -22q19 -22 35 -43l42 -61q7 10 12 13q6 6 16 14q-6 6 -11 16q-12 16 -24 31zM412 362q-7 0 -9 -1q-3 0 -4 -2l-97 -2q-93 0 -114 2q-6 0 -21 3v-46q66 6 81 5l135 -1q16 0 29 -4v46zM458 -88q27 -3 45 -6q12 28 20 50l22 63q15 42 38 74q-28 4 -49 12
q-15 -54 -36 -110q-13 -36 -23 -56q-7 -15 -17 -27zM477 291q24 -15 44 -30q21 48 71 138q6 12 12 22q6 9 17 27q-18 12 -35 28l-45 -97q-33 -60 -64 -88zM526 685q-21 -13 -33 -20q57 -82 78 -127q9 6 17 12q6 3 17 11q-16 28 -38 62zM544 204q27 -18 44 -34q72 70 106 120
q31 48 60 129q55 -93 83 -128q13 -18 83 -92q18 12 27 20q10 4 27 14q-45 12 -93 64q-36 42 -60 78q-24 40 -57 107q4 30 19 56q-12 0 -22 3q-12 0 -33 3l1 -29q0 -51 -17 -107q-12 -39 -42 -89q-33 -49 -73 -85q-24 -18 -53 -30zM880 603q-15 -48 -40 -99q9 0 41 -4l52 144
q-27 -1 -53 -5h-175q12 43 19 71q6 24 22 47q-25 3 -56 12q-1 -58 -29 -147q-28 -91 -58 -122q30 -3 50 -12q21 57 41 115h186zM678 50q0 16 13 64h-56q1 -31 5 -64l1 -136q3 -27 21 -43q19 -13 68 -14q15 0 32 2q37 4 58 22q22 21 47 81q-18 9 -45 31q-1 -57 -22 -81
q-18 -18 -61 -19q-42 0 -53 11q-7 9 -8 41v105zM714 224q-12 -9 -32 -18q18 -30 35 -65q16 -37 31 -77l17 13q1 1 17 9q-30 66 -68 138zM879 126q-16 -12 -36 -21q18 -24 45 -76q25 -48 41 -92q9 9 21 16q1 1 15 9q-12 19 -27 49q-24 54 -35 70z" />
  </g>

</svg>
