<?xml version="1.0" standalone="no"?>
<!DOCTYPE svg PUBLIC "-//W3C//DTD SVG 1.1//EN" "http://www.w3.org/Graphics/SVG/1.1/DTD/svg11.dtd" >
<svg xmlns="http://www.w3.org/2000/svg" xmlns:xlink="http://www.w3.org/1999/xlink" version="1.1" viewBox="-10 0 1010 1000">
   <path fill="currentColor"
d="M435 -8q97 1 119 12q1 3 -4 10q-17 21 -18 56q-3 66 0 121h256q78 0 129 -8v87q-58 -8 -125 -8h-256q17 166 75 312q85 -118 121 -238q114 35 117 49q-1 2 -7 4q-20 6 -32 26q-69 115 -153 224q97 140 160 151q20 4 26 -105q53 49 95 53q-43 175 -95 165
q-100 -2 -250 -200q-111 94 -276 172q-24 -47 -83 -89q195 -38 318 -155q-72 -129 -100 -369h-212q2 297 -17 386q-16 104 -94 249q-46 -29 -111 -30q85 -87 111 -181q27 -87 26 -287v-83q0 -91 -8 -133q82 8 176 8h123q-4 -45 -9 -147q-1 -36 -2 -52zM726 16q70 83 91 119
l-95 44q-25 -59 -77 -117z" />
</svg>
