<?xml version="1.0" standalone="no"?>
<!DOCTYPE svg PUBLIC "-//W3C//DTD SVG 1.1//EN" "http://www.w3.org/Graphics/SVG/1.1/DTD/svg11.dtd" >
<svg xmlns="http://www.w3.org/2000/svg" xmlns:xlink="http://www.w3.org/1999/xlink" version="1.1" viewBox="-10 0 1034 1024">
  <g transform="matrix(1 0 0 -1 0 820)">
   <path fill="currentColor"
d="M65 206q34 12 77 18l342 49q18 -54 39 -109q24 -58 41 -85q-57 -30 -118 -58q-63 -25 -125 -47q-129 -42 -216 -44q16 -24 29 -46q46 9 103 26l127 40q108 39 216 95q33 -46 54 -73q18 -21 33 -36q82 -81 165 -82q54 0 81 38q16 27 31 83l12 59q3 7 4 16q-24 10 -52 29
q1 -18 2 -31q0 -19 -3 -47t-8 -43q-16 -66 -69 -66q-30 0 -73 24q-45 27 -85 71q-28 31 -56 78l78 51q28 19 53 39q40 31 56 40q10 7 41 14q-24 21 -30 28q-4 4 -15 20q-27 -33 -71 -70q-54 -42 -131 -87q-18 28 -42 86q-19 49 -31 94l370 49q24 3 43 3q6 0 14 -1
q-4 27 -7 53q-37 -13 -80 -21l-351 -49l-14 72l-13 59q-1 15 -6 37l355 36l47 -1q1 0 5 -1q-3 27 -5 53q-37 -12 -89 -18l-321 -36l-10 107q-3 49 -4 81q0 22 17 46q-67 15 -71 15q6 -30 10 -54l21 -197l-243 -23l-33 -1q-22 0 -48 4l6 -55q42 13 83 17l241 23l34 -170
q-375 -48 -383 -51l-35 1q3 -25 8 -52zM632 714q-9 7 -20 13q-9 -18 -24 -38q109 -54 153 -98q13 27 23 37q-37 27 -69 47z" />
  </g>

</svg>
