<?xml version="1.0" standalone="no"?>
<!DOCTYPE svg PUBLIC "-//W3C//DTD SVG 1.1//EN" "http://www.w3.org/Graphics/SVG/1.1/DTD/svg11.dtd" >
<svg xmlns="http://www.w3.org/2000/svg" xmlns:xlink="http://www.w3.org/1999/xlink" version="1.1" viewBox="-10 0 1010 1000">
   <path fill="currentColor"
d="M577 -21q45 9 80 23q-32 19 -44 40h179q22 -2 56 -5t41 -3q-54 78 -153 135q39 12 99 17q61 5 107 1q-34 43 -35 71q-156 -28 -219 -57q-59 28 -138 49q24 6 75 6h121q67 1 85 -6v56q-34 -5 -85 -6h-34v48h115q38 0 90 -8v57q-51 -6 -88 -6h-264q-54 0 -101 6v-57
q42 8 98 8h83v-48h-20q-38 0 -81 4v-52l-62 18q-10 -40 -30 -55v53q-5 0 -15 -2q-41 -4 -62 -4h-234q-48 0 -93 6v-63q8 1 23 3q45 7 72 7h36q-12 -30 -36 -62l67 -12q14 34 24 74h62q18 -23 33 -74q30 2 78 20q-33 21 -48 54h20q31 0 73 -8q89 -1 181 -34q-35 -23 -71 -58
l-62 68q-34 -21 -67 -32q87 -62 144 -172zM288 -10q8 35 27 90h42q49 0 87 -6v57q-54 -4 -89 -4h-194q-40 0 -82 6v-63q47 10 82 10h83l-4 -8q-18 -37 -36 -66zM599 86q51 46 86 61q35 -20 87 -61h-173zM101 304q18 5 76 8h180q11 0 45 -3q20 -2 29 -3q-6 23 -6 59v118
q0 35 6 59q-24 -8 -74 -8h-57v46h71q52 -1 79 -8v59q-40 -4 -79 -4h-71q-1 33 10 66h-84q7 -14 8 -66h-93q-34 0 -81 6v-59q37 6 83 6h93v-46h-65q-29 0 -68 4q6 -19 6 -59v-116q0 -33 -8 -59zM177 356v45h180v-45h-180zM496 431q36 6 71 6h225q32 0 77 -6q-7 32 -6 71
q0 49 6 82h-77q4 -37 4 -72v-27h-227v39q0 49 8 72h-83q7 -34 8 -72v-26q0 -25 -6 -67zM357 445h-180v45h180v-45zM649 508q24 2 68 8q9 1 13 2q0 5 -7 13q-11 14 -15 29q-23 115 -258 161q-14 -37 -45 -61q-3 -2 -4 -3q115 -3 172 -32q70 -36 76 -117zM728 580
q103 31 209 75l-44 62q-75 -47 -199 -86zM157 699q68 14 79 20q-32 55 -65 174q-42 -21 -84 -18q35 -44 70 -176zM788 703q76 72 121 135l-72 43q-46 -82 -111 -143zM294 711q60 0 91 4q0 2 -4 8q-16 22 -16 59v20q-1 23 18 28q15 6 85 6h76q52 0 69 -5q19 -5 24 -21
q14 -36 16 -72q7 5 18 15q24 22 65 33q-28 83 -61 99q-20 15 -106 14h-156q-70 1 -91 -16q-24 -17 -24 -69v-34q-1 -12 -2 -34q-1 -24 -2 -35zM544 715q15 25 35 75l-81 20q-8 -43 -30 -79z" />
</svg>
