<?xml version="1.0" standalone="no"?>
<!DOCTYPE svg PUBLIC "-//W3C//DTD SVG 1.1//EN" "http://www.w3.org/Graphics/SVG/1.1/DTD/svg11.dtd" >
<svg xmlns="http://www.w3.org/2000/svg" xmlns:xlink="http://www.w3.org/1999/xlink" version="1.1" viewBox="-10 0 1010 1000">
   <path fill="currentColor"
d="M508 -10q111 0 113 14q0 5 -4 14q-12 29 -16 84q-5 33 -2 174h205q100 -1 115 -4v80q-3 -3 -28 -3q-11 -1 -30 -1h-57h-205q12 151 40 248q92 -110 123 -203q93 46 95 56q0 7 -15 15q-20 11 -29 24q-3 5 -10 15q-63 98 -132 162q61 99 146 133q22 -1 32 -115q37 45 88 65
q-38 148 -82 155q-127 -5 -242 -186q-92 71 -196 125q-21 -38 -59 -63q-9 -5 -9 -7q119 -36 228 -121q-47 -150 -51 -303h-197v140q57 -15 126 -41q14 -5 21 -8l-4 91q-19 4 -56 12q-60 12 -87 20v228q17 82 -168 101q-1 -44 -25 -89q-5 -10 -5 -12q119 13 123 -42v-166
q-129 33 -179 63l-31 -99q78 -11 166 -32q28 -6 44 -10v-156h-91q-64 0 -81 1q-23 0 -28 3v-80q9 3 107 4h93v-129q-22 5 -75 20q-50 13 -78 20q-19 -50 -43 -79q174 -5 349 -82q11 11 29 31q47 47 42 51q-4 6 -26 7q-55 1 -123 18v143h195q-3 -144 -16 -286zM750 42
q61 63 115 149l-81 49q-40 -81 -109 -146z" />
</svg>
