<?xml version="1.0" standalone="no"?>
<!DOCTYPE svg PUBLIC "-//W3C//DTD SVG 1.1//EN" "http://www.w3.org/Graphics/SVG/1.1/DTD/svg11.dtd" >
<svg xmlns="http://www.w3.org/2000/svg" xmlns:xlink="http://www.w3.org/1999/xlink" version="1.1" viewBox="-10 0 1034 1024">
  <g transform="matrix(1 0 0 -1 0 820)">
   <path fill="currentColor"
d="M448 331l-5 -127q0 -30 -4 -59q-4 -51 -24 -74q-27 -24 -75 -25q-16 0 -48 5q15 -27 20 -56l75 14q63 16 82 76q10 33 16 148q0 33 4 97l6 42q-34 0 -35 -2q-21 -3 -30 -4h-211v175h372q3 -99 35 -250q24 -115 65 -215q-27 -42 -115 -124q-60 -51 -131 -70q27 -13 52 -38
q21 10 39 24q19 13 49 39q75 63 126 124l49 -76q39 -52 76 -86q34 -30 67 -30q42 0 62 75q7 31 16 78q-24 6 -49 26q0 -45 -5 -85q-6 -45 -32 -46q-7 0 -14 4q-30 16 -63 55q-46 57 -78 124q31 57 57 112q24 55 49 127l24 67q7 18 32 33q-15 6 -30 11q-16 4 -35 13
q-15 -75 -44 -158q-16 -46 -33 -82q-16 -36 -41 -76q-37 99 -56 192q-21 99 -32 232l288 -1q4 0 38 -4v46q-33 -1 -65 -5h-263l-3 101q0 30 2 49q1 21 18 41q-33 1 -67 3q3 -30 4 -47l6 -147l-363 1q-19 3 -53 4q6 -66 7 -113l-2 -215q-1 -84 -14 -157q-18 -91 -60 -157
q-25 -42 -66 -76q21 -4 53 -23q79 108 106 222q10 49 15 93q3 27 4 67l3 108h229zM777 739l-24 21q-18 -25 -33 -39q24 -12 53 -38q46 -42 67 -71q6 7 8 12q13 15 26 26l-60 57z" />
  </g>

</svg>
