<?xml version="1.0" standalone="no"?>
<!DOCTYPE svg PUBLIC "-//W3C//DTD SVG 1.1//EN" "http://www.w3.org/Graphics/SVG/1.1/DTD/svg11.dtd" >
<svg xmlns="http://www.w3.org/2000/svg" xmlns:xlink="http://www.w3.org/1999/xlink" version="1.1" viewBox="-10 0 1010 1000">
   <path fill="currentColor"
d="M528 -4q106 2 113 12q0 4 -6 13q-18 25 -18 55q1 130 8 214l163 -36q58 -13 112 -31q15 -5 19 -6l18 89q-4 1 -18 2q-50 5 -111 18l-175 36q19 117 48 202q60 -90 95 -204q86 21 97 37q0 2 -7 11q-17 20 -29 41q-66 117 -125 192q73 135 139 157q9 -4 16 -34q6 -27 4 -57
l91 45q-29 134 -57 145q-125 15 -248 -192q-60 67 -195 157q-8 -26 -73 -68q148 -79 230 -163q-47 -130 -61 -252q-33 7 -98 28q-32 10 -39 12l-22 -95q3 -1 20 -2q79 -6 129 -16q-4 -33 -9 -125q-5 -111 -11 -185zM764 56q41 32 95 111l-77 54q-37 -71 -92 -119zM335 512
q107 139 133 185l-85 45q-34 -77 -85 -156q-75 133 -169 230q-38 -31 -85 -56q131 -97 200 -236q-61 -101 -157 -190l78 -52q25 33 71 90q36 43 46 57q23 -73 43 -238h-123q-68 0 -126 7q-12 1 -16 1v-89q3 0 17 1q67 6 133 6h58q71 0 102 -1q36 -1 47 -3q-36 292 -82 399z
" />
</svg>
