<?xml version="1.0" standalone="no"?>
<!DOCTYPE svg PUBLIC "-//W3C//DTD SVG 1.1//EN" "http://www.w3.org/Graphics/SVG/1.1/DTD/svg11.dtd" >
<svg xmlns="http://www.w3.org/2000/svg" xmlns:xlink="http://www.w3.org/1999/xlink" version="1.1" viewBox="-10 0 1034 1024">
  <g transform="matrix(1 0 0 -1 0 820)">
   <path fill="currentColor"
d="M361 243v-340q0 -43 -6 -59h50q-1 9 -6 51l1 815q0 6 5 27q1 7 9 17h-59q3 -12 6 -53v-249h-179v194q0 9 2 22q0 16 11 36h-56q1 -28 5 -58l-1 -193q-3 -15 -4 -42q46 4 91 5h131v-137l-276 1q-7 3 -20 5v-47q49 4 75 5h41q-1 -121 -30 -193q-36 -93 -122 -149
q15 -6 46 -26q81 87 111 158q27 72 35 210h140zM439 393q24 9 74 19q37 6 75 11q4 -19 8 -39q21 -108 72 -252q-45 -54 -118 -119q-61 -52 -119 -80q24 -15 45 -30q63 48 143 124q33 34 67 68l27 -54l30 -48q22 -34 39 -52q15 -19 39 -40q36 -31 62 -32q45 0 71 85l12 39
q1 9 5 16q-18 6 -51 29q0 -9 1 -21q0 -51 -12 -79q-10 -24 -29 -24q-30 0 -85 70q-48 60 -81 140q34 54 57 91l53 90q24 45 55 60q-34 15 -57 28q-37 -99 -127 -231q-22 61 -41 135q-21 76 -27 131l260 36q37 3 69 4l-3 50q-21 -10 -71 -20l-261 -37q-7 106 -8 126
q-3 102 0 131q1 19 16 35q-13 0 -66 7q3 -24 5 -45q6 -84 9 -170l7 -88q-118 -15 -128 -16q-9 1 -24 3q3 -25 7 -51zM726 690q42 -40 66 -70q27 -33 47 -61l30 30q-90 103 -113 126q-24 -21 -30 -25v0z" />
  </g>

</svg>
