<?xml version="1.0" standalone="no"?>
<!DOCTYPE svg PUBLIC "-//W3C//DTD SVG 1.1//EN" "http://www.w3.org/Graphics/SVG/1.1/DTD/svg11.dtd" >
<svg xmlns="http://www.w3.org/2000/svg" xmlns:xlink="http://www.w3.org/1999/xlink" version="1.1" viewBox="-10 0 1010 1000">
   <path fill="currentColor"
d="M536 -2q99 1 111 12q1 4 -3 10q-15 20 -15 54q0 66 2 99h171q85 0 123 -8v93q-52 -8 -123 -8h-169q2 206 52 358q66 -137 81 -288q107 23 111 32q1 2 -5 6q-26 21 -37 61q-44 162 -113 262q53 75 99 103q27 2 38 -97q31 35 85 61q-47 135 -81 147q-85 -3 -192 -147
q-66 68 -171 139q-51 -40 -87 -53q124 -54 218 -151q-65 -142 -75 -433h-352q-85 -1 -139 8v-95q50 9 139 10h348q0 -99 -16 -175zM782 24q29 40 55 107l-81 30q-14 -54 -50 -105zM198 308q99 0 102 8q1 3 -3 9q-11 15 -15 38q-3 17 -5 76q-1 14 -1 22h95v-60q0 -54 -8 -93
q91 1 99 10q1 2 -2 6q-16 24 -16 83v54q61 3 96 -6v83q-28 -8 -96 -8v179q0 43 8 87h-89q8 -43 8 -87v-179h-95q-1 234 -123 363q-35 -24 -84 -37q131 -97 135 -326h-35q-56 0 -104 8v-85q39 8 100 8h41q0 -68 -1 -89q-1 -27 -7 -64z" />
</svg>
