<?xml version="1.0" standalone="no"?>
<!DOCTYPE svg PUBLIC "-//W3C//DTD SVG 1.1//EN" "http://www.w3.org/Graphics/SVG/1.1/DTD/svg11.dtd" >
<svg xmlns="http://www.w3.org/2000/svg" xmlns:xlink="http://www.w3.org/1999/xlink" version="1.1" viewBox="-10 0 1034 1024">
  <g transform="matrix(1 0 0 -1 0 820)">
   <path fill="currentColor"
d="M408 236l-3 -273q-1 -3 -1 -7q-1 -3 -1 -8h49v3q-4 9 -5 26l-1 259q88 0 105 -2q12 0 25 -3v46q-51 -4 -83 -5h-47v118q0 18 3 35q3 16 12 31h-58q4 -54 5 -82v-102h-148q0 96 3 124q1 37 14 60q-39 0 -58 4l3 -140l-3 -48q-129 3 -140 5v-46q60 6 106 5h34
q-6 -78 -13 -122q-4 -33 -21 -70q-48 -103 -130 -154q39 -9 54 -24q87 81 120 180q12 37 19 78q6 46 11 112h149zM135 558q-36 0 -67 5v-47q4 3 32 5l476 1l11 -118q4 -43 13 -94l22 -104l43 -134q-51 -66 -123 -126q-72 -55 -129 -73q25 -12 50 -36q69 45 117 85
q45 39 105 104q22 -42 40 -69q36 -51 78 -87q45 -36 72 -36q39 0 74 78q6 18 16 36q-19 13 -46 44q-6 -39 -12 -61q-15 -46 -38 -47q-16 0 -54 32q-33 30 -61 75q-9 16 -19 33q-9 18 -20 43q18 27 46 79q27 51 48 97q27 60 30 66q6 9 7 14q9 18 29 32q-27 9 -64 32
q-24 -129 -117 -274q-16 45 -29 95l-25 110l-15 113l-7 91l287 -1q21 0 39 -5v47q-15 -3 -36 -4l-292 -1q-3 61 -2 69l6 104q1 15 15 30l-42 1q-6 0 -26 5q0 -99 4 -147q0 -25 4 -62h-440zM697 686q27 -16 64 -44q15 -12 48 -45q1 -3 6 -8q15 19 32 39l-88 70q-16 13 -38 26
q-4 -12 -17 -29q-4 -4 -7 -9v0z" />
  </g>

</svg>
