<?xml version="1.0" standalone="no"?>
<!DOCTYPE svg PUBLIC "-//W3C//DTD SVG 1.1//EN" "http://www.w3.org/Graphics/SVG/1.1/DTD/svg11.dtd" >
<svg xmlns="http://www.w3.org/2000/svg" xmlns:xlink="http://www.w3.org/1999/xlink" version="1.1" viewBox="-10 0 1034 1024">
  <g transform="matrix(1 0 0 -1 0 820)">
   <path fill="currentColor"
d="M296 191v-113h-184q-43 0 -59 6v-47q24 6 59 6h184v-152q0 -37 -5 -60h48l-4 36l-1 176h161q15 0 30 -2l33 -4v47q-25 -6 -63 -6h-161v113h101q6 0 27 -3q6 0 25 -2q-3 27 -5 55l1 217q0 15 4 40q-51 -4 -75 -5h-82v104h145q28 0 64 -5v46q-31 -1 -64 -5h-145q0 90 3 100
l10 27h-56q4 -90 5 -94v-33h-156q-21 0 -46 3q-6 0 -14 2v-46q18 4 60 5h156v-104l-129 1q-15 3 -40 4q1 -27 5 -57l-1 -215l-4 -40q45 4 85 5h88zM165 355v102h279v-102h-279zM165 227v92h279v-92h-279zM879 427l46 4q7 0 21 -2q-3 25 -5 49q-15 -6 -26 -10q-15 -3 -44 -8
l-183 -28l-6 75q-6 168 -7 189q0 21 5 39q0 12 10 26q-15 0 -26 2q-12 1 -38 6q4 -31 6 -52q0 -28 13 -231l4 -59q-31 -3 -61 -8q-33 -4 -46 -5q-9 0 -26 2l6 -49q22 9 64 16q33 6 67 11q18 -142 54 -283q-61 -72 -133 -134q-57 -48 -111 -75l43 -33q58 45 101 82l91 90
q10 13 23 27q10 -25 19 -42q15 -39 50 -80q60 -72 104 -73q15 0 28 13q13 15 24 40q3 6 8 24q6 19 16 65q-24 4 -54 20q1 -21 2 -36q0 -22 -4 -43q-6 -33 -27 -34q-15 0 -45 27q-36 34 -58 79q-16 30 -32 77q57 88 103 168q22 40 27 45q6 7 27 20q-27 9 -61 28
q-39 -108 -112 -212q-12 42 -24 111l-21 133zM754 677q-9 -12 -29 -32q46 -34 74 -58q25 -21 56 -52q13 15 29 32q-28 25 -66 57z" />
  </g>

</svg>
