<?xml version="1.0" standalone="no"?>
<!DOCTYPE svg PUBLIC "-//W3C//DTD SVG 1.1//EN" "http://www.w3.org/Graphics/SVG/1.1/DTD/svg11.dtd" >
<svg xmlns="http://www.w3.org/2000/svg" xmlns:xlink="http://www.w3.org/1999/xlink" version="1.1" viewBox="-10 0 1034 1024">
  <g transform="matrix(1 0 0 -1 0 820)">
   <path fill="currentColor"
d="M101 320q4 -70 5 -106q0 -285 -3 -313v-2q-1 -3 -1 -6q-1 -3 -1 -8h48q-4 19 -5 46v46h249q-3 -36 -5 -74h48q-3 24 -4 50l-1 301q1 33 5 66q-66 -6 -100 -6h-65v196l198 -1q4 0 38 -4v46l-44 -4l-192 -1v106q0 18 3 35q1 18 11 31h-57q4 -42 5 -66v-338q-66 0 -93 2
q-7 3 -36 4h-3zM144 13v265h249v-265h-249zM605 386q10 -175 71 -312q-34 -33 -65 -59q-27 -22 -59 -46q-63 -43 -111 -59q24 -15 36 -36q138 84 215 163q21 -31 38 -55l29 -38q64 -76 121 -77q36 0 57 52q6 13 10 28q6 18 13 49q-30 12 -49 30q0 -52 -8 -83q-9 -30 -29 -31
q-15 0 -42 20q-28 19 -70 74q-19 27 -40 64q55 66 101 140q19 37 36 60q12 21 33 31q-34 15 -52 37q-22 -57 -43 -96q-51 -85 -92 -130q-52 109 -62 279l246 33q27 3 68 4l3 54q-13 -6 -24 -9q-33 -9 -56 -12l-240 -33l-7 167l-1 93q0 30 25 52h-20q-25 0 -51 5l6 -72
l5 -176q3 -34 5 -74q-102 -12 -117 -15l-58 -2q6 -24 7 -47q48 12 73 15zM762 658l-20 19q-10 -15 -32 -39q16 -10 28 -19q13 -10 34 -29q34 -31 69 -73q6 3 16 17q0 1 1 2q12 12 18 16q-42 40 -69 66q-22 21 -45 40v0z" />
  </g>

</svg>
