<?xml version="1.0" standalone="no"?>
<!DOCTYPE svg PUBLIC "-//W3C//DTD SVG 1.1//EN" "http://www.w3.org/Graphics/SVG/1.1/DTD/svg11.dtd" >
<svg xmlns="http://www.w3.org/2000/svg" xmlns:xlink="http://www.w3.org/1999/xlink" version="1.1" viewBox="-10 0 1034 1024">
  <g transform="matrix(1 0 0 -1 0 820)">
   <path fill="currentColor"
d="M77 56q39 9 82 15l280 33l46 -66q21 -27 45 -56q-219 -78 -401 -81q18 -30 31 -46q28 3 60 10q40 6 115 24q66 13 121 29q54 15 113 35q36 -25 68 -45q60 -31 125 -50q49 -13 81 -14q46 0 78 49q6 9 12 24q7 18 22 62q-30 7 -51 22q-3 -48 -12 -73q-16 -39 -53 -40
q-27 0 -76 13q-37 9 -92 36q-36 15 -60 36q72 31 155 76q42 25 51 28q21 6 35 9q-18 13 -32 27l-14 14q-78 -63 -231 -129q-55 49 -93 112l384 43q48 3 84 4q-4 25 -7 51q-30 -13 -85 -21l-136 -15q-21 24 -68 65q-9 6 -17 14q-19 -18 -38 -27q27 -15 74 -59l-209 -24
q-19 45 -34 115l330 -1l37 -4q-4 39 -5 54l1 234q0 15 3 21q0 10 1 19q-48 -6 -71 -6h-244q10 36 23 72l377 -1q19 0 36 -4v44q-31 -1 -64 -5q-732 0 -745 3q-6 1 -10 2v-44q49 4 80 5h284l-21 -72l-186 1q-3 0 -42 5q1 -27 5 -55l-1 -234q-3 -12 -4 -39q45 4 85 5h87
q6 -27 13 -49q7 -25 23 -70q-291 -31 -323 -34l-29 1q3 -24 7 -48zM754 346v-56h-498v56h498zM256 380v67h498v-67h-498zM256 481v59h498v-59h-498z" />
  </g>

</svg>
