<?xml version="1.0" standalone="no"?>
<!DOCTYPE svg PUBLIC "-//W3C//DTD SVG 1.1//EN" "http://www.w3.org/Graphics/SVG/1.1/DTD/svg11.dtd" >
<svg xmlns="http://www.w3.org/2000/svg" xmlns:xlink="http://www.w3.org/1999/xlink" version="1.1" viewBox="-10 0 1034 1024">
  <g transform="matrix(1 0 0 -1 0 820)">
   <path fill="currentColor"
d="M140 565q-46 3 -67 6v-47q3 0 7 1q0 1 60 4h425q15 -171 36 -272q19 -99 59 -187q-30 -48 -102 -116q-57 -52 -130 -82q27 -9 54 -34q54 42 101 84q45 45 101 106q42 -64 78 -106q60 -72 109 -72q15 0 28 9q21 18 34 51q12 30 26 85q-30 9 -51 28q0 -45 -5 -69
q-13 -54 -39 -55q-12 0 -25 9q-10 9 -24 21l-27 28q-30 34 -77 112q21 33 51 92q28 55 69 180q13 43 36 62q-24 3 -49 13q-7 3 -19 7l-16 -89q-7 -30 -22 -70q-33 -94 -74 -157q-42 114 -55 190l-15 111l-9 121l295 -1q6 0 38 -4v47q-6 -1 -45 -6h-291q-6 84 -8 147
q0 30 20 57l-68 6q12 -195 14 -210h-423zM402 8l109 30q15 6 31 10q1 30 10 58q-30 -16 -76 -34q-43 -15 -86 -28l-154 -38l-63 -17q-60 -12 -97 -16l3 -3q6 -9 15 -33q3 -12 7 -17q76 25 90 29q39 13 211 59zM159 399q6 -51 6 -71l-1 -133q-4 -19 -5 -37v-6q57 4 82 5
l188 -1q18 0 51 -4q-4 48 -5 94q0 114 2 127q0 18 3 36q-22 -1 -36 -2q-25 -3 -83 -3l-153 1q-19 3 -49 4v-10zM203 193v175h234v-175h-234zM685 705q3 -3 12 -9q36 -22 59 -43q24 -21 52 -51q9 18 20 29q4 6 9 9q-76 72 -124 103q-10 -18 -28 -38v0z" />
  </g>

</svg>
