<?xml version="1.0" standalone="no"?>
<!DOCTYPE svg PUBLIC "-//W3C//DTD SVG 1.1//EN" "http://www.w3.org/Graphics/SVG/1.1/DTD/svg11.dtd" >
<svg xmlns="http://www.w3.org/2000/svg" xmlns:xlink="http://www.w3.org/1999/xlink" version="1.1" viewBox="-10 0 1010 1000">
   <path fill="currentColor"
d="M599 -6q125 9 117 20q0 6 -11 18q-14 16 -15 26q-7 116 -7 214l121 -14q68 -8 117 -20l10 84q-19 -2 -85 2q-22 1 -33 2l-125 12q7 113 40 250q61 -130 80 -225q105 40 99 50q-4 8 -15 16q-14 9 -19 20q-9 17 -27 55q-54 115 -88 171q55 124 89 117q22 -13 30 -107
q29 40 81 63q-46 153 -87 153q-79 1 -171 -157q-74 88 -170 153q-25 -43 -70 -69q113 -34 211 -161q-46 -170 -56 -317q-27 3 -68 10q-11 2 -15 3l-8 -83q33 6 85 -2q-1 -37 -4 -101q-5 -138 -6 -183zM800 50q29 35 97 141l-85 44q-19 -75 -90 -147zM194 108v67h243v-67
h-243zM194 235v73h243v-73h-243zM69 840q-9 -51 -15 -98q29 5 96 4q66 0 132 -6v-81h-50q-35 0 -89 6v-75q33 6 83 6h58v-72h-121q-13 22 -17 30q-8 13 -11 18q-4 5 -30 43q-26 -19 -67 -33q85 -89 115 -205q7 2 23 7q70 22 66 25q-1 3 -9 9q-23 16 -39 47h90v-98h-64
q-55 0 -73 1q-22 1 -32 3q7 -28 8 -107v-117q-3 -80 -6 -105q29 5 123 6h153q91 -3 121 -6q-6 49 -8 105v119q1 59 8 105q-18 -4 -101 -4h-54v98h64q57 0 103 -6v69q-13 -4 -103 -4h-64v74h44q52 -1 103 -6v75q-53 -8 -101 -8h-48v78q5 0 17 -1q120 -10 162 -23l-6 73
q-380 36 -461 54z" />
</svg>
