<?xml version="1.0" standalone="no"?>
<!DOCTYPE svg PUBLIC "-//W3C//DTD SVG 1.1//EN" "http://www.w3.org/Graphics/SVG/1.1/DTD/svg11.dtd" >
<svg xmlns="http://www.w3.org/2000/svg" xmlns:xlink="http://www.w3.org/1999/xlink" version="1.1" viewBox="-10 0 1010 1000">
   <path fill="currentColor"
d="M607 -8q7 0 20 1q91 1 87 11q1 5 -10 19q-13 18 -14 27q-6 88 0 222l133 -26q11 -2 34 -7q61 -12 70 -16l11 91q-35 -4 -95 4l-147 26q14 132 40 242q60 -99 85 -219q108 36 102 44q-4 5 -14 11q-14 8 -18 17q-4 8 -12 25q-70 148 -111 213q71 124 93 123q7 -2 11 -33
q4 -33 3 -72q44 42 89 55q-39 172 -79 171q-54 9 -169 -179q-62 79 -149 153q-4 -14 -33 -56q-14 -21 -14 -23q80 -33 165 -151q-49 -147 -62 -309q-62 11 -95 23l-14 -85q55 -4 103 -10q-3 -40 -6 -171q-2 -96 -4 -121zM800 54q20 18 107 123l-84 50q-44 -94 -99 -135z
M218 203v69h191v-69h-191zM218 328v71h191v-71h-191zM218 455v65h191v-65h-191zM444 598q63 47 125 101l-63 51q-76 -92 -113 -115zM194 709q63 -37 108 -107q13 7 39 17q41 16 36 22q-1 3 -6 5q-39 19 -123 112q-12 -13 -54 -49zM508 860q-46 -8 -111 -8h-177q-65 0 -85 1
q-26 1 -36 3q7 -48 8 -104v-168q-35 0 -71 4v-76q22 5 111 8v-317q-75 0 -95 4v-76q16 3 97 6q0 -97 -6 -133q11 1 30 3q68 6 65 11q0 1 -2 8q-18 40 -18 113h191q3 -109 -6 -127q94 -3 95 8q0 2 -2 7q-16 33 -16 112q72 -1 91 -6v76q-35 -6 -91 -6v317q62 0 99 -8v78
q-19 -7 -105 -6h-291v200h208q42 0 117 -10v86z" />
</svg>
