<?xml version="1.0" standalone="no"?>
<!DOCTYPE svg PUBLIC "-//W3C//DTD SVG 1.1//EN" "http://www.w3.org/Graphics/SVG/1.1/DTD/svg11.dtd" >
<svg xmlns="http://www.w3.org/2000/svg" xmlns:xlink="http://www.w3.org/1999/xlink" version="1.1" viewBox="-10 0 1034 1024">
  <g transform="matrix(1 0 0 -1 0 820)">
   <path fill="currentColor"
d="M103 452q-25 1 -51 3q-3 1 -8 3v-47q15 4 31 5l75 1v-413q-52 -12 -100 -17q1 -3 3 -6q6 -9 10 -17q3 -6 8 -13q3 -6 6 -14q54 18 71 22q153 42 188 49l91 20v-134q0 -40 -5 -60h49q-6 30 -6 60v141q55 15 102 26q0 21 7 48q-55 -21 -109 -36v344h146q6 -72 13 -121
q3 -36 12 -78q18 -87 46 -170q-66 -91 -160 -146q10 -4 47 -28q15 12 38 34l96 100q40 -63 80 -103q57 -60 103 -60q30 0 49 33q9 16 22 48q1 10 7 23q7 19 8 24q-33 15 -53 30v-22q0 -27 -4 -47q-9 -45 -36 -45q-39 0 -105 85q-18 22 -44 70q84 132 116 220l23 52
q3 6 22 22q-37 12 -58 21q-31 -138 -120 -270q-57 148 -61 328l280 -1q21 0 36 -5v47q-21 -1 -44 -5l-275 -1l-4 182q0 39 3 77q1 24 17 44q-36 4 -66 11q3 -24 4 -58l7 -256h-507zM187 175v104h240v-104h-240zM187 314v103h240v-103h-240zM427 139v-75l-240 -53v128h240z
M148 577q0 -1 -5 -57q27 3 55 5l241 -1q12 0 37 -4q-4 45 -5 69l1 101l4 36q-25 -1 -51 -5l-245 1q-15 3 -37 4q1 -24 5 -50v-99zM185 561v124h248v-124h-248zM730 667q36 -27 79 -68q36 -36 65 -68q18 28 28 35l-66 62q-9 9 -75 70l-29 -30q-1 0 -2 -1v0z" />
  </g>

</svg>
