<?xml version="1.0" standalone="no"?>
<!DOCTYPE svg PUBLIC "-//W3C//DTD SVG 1.1//EN" "http://www.w3.org/Graphics/SVG/1.1/DTD/svg11.dtd" >
<svg xmlns="http://www.w3.org/2000/svg" xmlns:xlink="http://www.w3.org/1999/xlink" version="1.1" viewBox="-10 0 1034 1024">
  <g transform="matrix(1 0 0 -1 0 820)">
   <path fill="currentColor"
d="M95 151q36 45 83 94l-3 -384q-1 -3 -1 -7q-1 -3 -1 -8h48q-1 4 -1 8q0 3 -4 59v23l373 -3q1 0 11 -2v46q-31 -1 -63 -5h-133v79q135 0 146 -3q1 0 4 -1l2 -1v47q-63 -6 -93 -6h-59v76q108 0 125 -2l25 -3v46q-3 0 -62 -5h-88v83q141 0 155 -2l25 -3v46q-43 -4 -79 -5h-92
q9 16 28 31l-33 35q-30 30 -52 50q-9 -13 -30 -34q42 -19 78 -82h-175q6 10 12 21q24 45 34 49q6 7 20 15q-21 10 -49 31q-21 -48 -42 -84q-19 -33 -52 -76q-54 -66 -118 -115q19 -6 44 -25q7 9 17 17zM366 87h-150v76h150v-76zM366 199h-150v83h150v-83zM216 -28v79h150
v-79h-150zM109 427q1 -4 5 -11q33 22 70 40q54 27 100 45q0 -24 -5 -70h49q-4 24 -5 42l-1 187q0 21 6 57q-22 -1 -34 -2q-24 -3 -77 -3q-106 3 -118 5v-47q6 3 32 5l153 1v-139q-21 -12 -42 -20q-4 0 -19 -6l-75 -30q-24 -9 -58 -17q9 -12 16 -29q0 -3 3 -8zM127 602
q24 -12 89 -65q12 18 24 31q-43 36 -91 68q-9 -15 -22 -34zM375 631q-13 -21 -17 -24q57 -27 84 -56q9 18 24 33q-15 12 -64 43q-9 6 -22 13q-3 -4 -5 -9zM513 500l-4 -58q-1 -3 -1 -8h48v3q-3 6 -4 32l-1 184q1 33 5 67q-63 -6 -94 -6l-61 1q-27 3 -34 5v-47q6 3 36 4
l110 1v-125q-33 -18 -59 -31q-24 -10 -67 -25q-15 -6 -21 -7q3 0 -12 -2q13 -18 18 -26q3 -7 8 -20q12 7 18 13q1 1 17 9q16 9 34 17l64 33v-14zM936 3q-3 -51 -4 -66q-4 -28 -22 -29q-19 0 -60 47q-36 48 -64 115q40 72 69 134q24 57 37 77q9 16 26 26q-34 12 -57 30
q-10 -40 -38 -105q-24 -60 -56 -115q-18 63 -26 133l-14 105l-4 53q7 1 16 1l76 10l135 14q1 24 5 47q-36 -9 -64 -15l-69 -9l-102 -13l-6 133q-4 102 -5 137q1 25 9 53l-53 3l2 -63q12 -216 13 -267q-40 -6 -83 -6l-38 1q3 -21 5 -47q96 15 118 15q3 -21 4 -32q1 -28 5 -57
l15 -96q12 -72 34 -144q-51 -72 -120 -133q-48 -39 -107 -66q25 -9 56 -31q57 45 96 84q42 43 92 103q18 -40 35 -62q33 -52 63 -76q36 -27 64 -28q36 0 53 56q6 21 14 58q-30 12 -50 37v-12zM760 660q16 -12 56 -56q36 -42 51 -64q18 21 36 31q-10 10 -20 22q-25 30 -74 82
q-7 7 -16 17q-6 -7 -11 -13q-19 -15 -22 -19v0z" />
  </g>

</svg>
