<?xml version="1.0" standalone="no"?>
<!DOCTYPE svg PUBLIC "-//W3C//DTD SVG 1.1//EN" "http://www.w3.org/Graphics/SVG/1.1/DTD/svg11.dtd" >
<svg xmlns="http://www.w3.org/2000/svg" xmlns:xlink="http://www.w3.org/1999/xlink" version="1.1" viewBox="-10 0 1034 1024">
  <g transform="matrix(1 0 0 -1 0 820)">
   <path fill="currentColor"
d="M231 382q-153 0 -171 3q-3 1 -11 2v-44q46 4 83 5l379 -1q12 0 20 -3q3 0 7 -1v44q-3 0 -4 -1q-79 -3 -114 -4h-36v256l111 -1q19 0 28 -4v44q-13 -1 -27 -4h-387q-15 3 -19 4v-44q46 4 97 5h44v-256zM268 382v256h78v-256h-78zM90 557q51 -72 71 -127l24 17q4 3 12 7
q-27 51 -73 124q-16 -12 -34 -21zM135 276q1 -30 5 -60l-1 -349q-1 -3 -4 -18h47q-3 21 -5 43v41h253v-21q0 -34 -5 -54h48q-4 49 -5 52l1 324l4 42q-49 -4 -60 -5l-235 1q-15 3 -43 4zM177 -33v119h253v-119h-253zM177 119v118h253v-118h-253zM410 449q13 -6 22 -10
q7 -3 19 -9q21 42 44 72q21 31 27 37t25 15q-31 15 -50 28q-9 -21 -17 -36q-6 -12 -24 -39q-24 -33 -46 -58zM520 -100q3 -1 8 -7q108 82 199 181q27 -51 44 -81q30 -46 62 -77q43 -40 74 -41q24 0 46 46q10 27 27 80q-18 7 -55 32q3 -31 4 -37q0 -67 -33 -68q-13 0 -39 22
q-34 33 -62 81q-21 34 -40 80q33 48 58 91q24 45 54 104q15 31 41 45q-31 9 -62 24q-12 -45 -37 -96q-16 -39 -32 -64q-13 -24 -36 -57q-27 117 -40 250q138 21 207 27q10 0 31 -3l-3 46q-36 -9 -69 -15l-169 -22q-6 112 -8 216q0 51 2 63q3 13 14 30q-21 0 -62 7
q4 -40 7 -87l5 -135q1 -30 2 -50q1 -21 3 -48q-22 -1 -43 -5q-22 -3 -35 -3l-31 1q3 -22 8 -47q28 9 66 14l38 6q6 -51 10 -91l9 -64q9 -57 26 -133q-46 -58 -107 -110q-69 -57 -116 -76q24 -19 34 -29zM740 664q45 -30 72 -54q45 -37 58 -52q10 18 23 35q-10 9 -129 103
q-10 -18 -24 -32v0z" />
  </g>

</svg>
