<?xml version="1.0" standalone="no"?>
<!DOCTYPE svg PUBLIC "-//W3C//DTD SVG 1.1//EN" "http://www.w3.org/Graphics/SVG/1.1/DTD/svg11.dtd" >
<svg xmlns="http://www.w3.org/2000/svg" xmlns:xlink="http://www.w3.org/1999/xlink" version="1.1" viewBox="-10 0 1010 1000">
   <path fill="currentColor"
d="M538 -29q28 46 71 131l-105 29q-24 -67 -67 -127zM187 139q24 8 123 8h444q95 0 123 -8q-8 19 -8 99v282q0 67 8 93h-109q8 -24 8 -91h-494q-16 230 -169 403q-38 -43 -87 -60q174 -137 172 -442q2 -64 -2 -190q-3 -56 -9 -94zM284 223v224h494v-224h-494z" />
</svg>
