<?xml version="1.0" standalone="no"?>
<!DOCTYPE svg PUBLIC "-//W3C//DTD SVG 1.1//EN" "http://www.w3.org/Graphics/SVG/1.1/DTD/svg11.dtd" >
<svg xmlns="http://www.w3.org/2000/svg" xmlns:xlink="http://www.w3.org/1999/xlink" version="1.1" viewBox="-10 0 1034 1024">
  <g transform="matrix(1 0 0 -1 0 820)">
   <path fill="currentColor"
d="M952 318q-9 0 -13 -3l-125 -2q-537 0 -552 3q-3 0 -10 2v-45q9 4 63 5h162q-6 -94 -34 -168q-37 -96 -137 -165q-54 -34 -95 -46q24 -18 46 -39q114 78 157 128q49 58 83 159h300l-1 -37q-1 -24 -8 -75q-12 -96 -37 -111q-15 -9 -61 -10q-24 0 -51 7q9 -30 13 -52l104 16
q18 7 32 19q15 18 23 46q7 33 16 99l11 89q3 24 8 48q-60 -4 -78 -5h-263q1 18 5 35q4 30 9 62l411 -1q10 -1 22 -4v45zM809 456q13 0 57 -6q-6 51 -5 88q0 76 2 85q0 15 3 30q-28 -1 -57 -5l-592 1q-7 3 -34 4h-5q6 -63 7 -70q3 -57 3 -176q-3 -147 -16 -226
q-16 -96 -55 -175q-25 -51 -60 -81q33 -12 52 -24q24 43 40 79l38 104l19 72q9 52 14 115q3 34 4 78l2 107h583zM226 489l-2 125h600v-125h-598zM443 742q10 -4 97 -53q12 -9 37 -31q10 21 29 42q-6 3 -103 63q-4 3 -35 20q-10 -21 -25 -41zM504 416q81 -42 133 -91
q12 24 31 41q-57 43 -139 86q-12 -18 -25 -36v0z" />
  </g>

</svg>
