<?xml version="1.0" standalone="no"?>
<!DOCTYPE svg PUBLIC "-//W3C//DTD SVG 1.1//EN" "http://www.w3.org/Graphics/SVG/1.1/DTD/svg11.dtd" >
<svg xmlns="http://www.w3.org/2000/svg" xmlns:xlink="http://www.w3.org/1999/xlink" version="1.1" viewBox="-10 0 1034 1024">
  <g transform="matrix(1 0 0 -1 0 820)">
   <path fill="currentColor"
d="M431 223v-14q0 -33 -6 -58h50q-6 24 -6 48l1 268q1 18 5 38q-27 -1 -53 -5h-217v143q171 33 229 47q30 4 53 1q1 0 6 -1q-18 21 -28 36q-7 9 -17 25q-45 -24 -132 -46q-103 -24 -155 -25l6 -62l-3 -406l-3 -34l-6 -70q-12 -96 -62 -166q-21 -28 -61 -54q39 -15 57 -25
q51 63 85 154q12 42 19 86q6 49 8 120h230zM203 259l2 205h226v-205h-228zM801 381v-460q0 -30 -5 -58h49q-4 18 -5 41l-1 477q114 0 130 -2q9 0 20 -3v47q-4 0 -8 -2q-3 0 -4 -1q-18 0 -46 -3h-325v221q75 12 134 27q72 18 81 20q48 10 69 11q15 0 37 -2q-27 30 -44 59
q-60 -30 -154 -53q-84 -21 -166 -28q1 -28 5 -58l-1 -293q-1 -6 -1 -15q0 -13 -9 -142q-7 -63 -20 -105q-24 -63 -65 -114q-28 -33 -73 -57q28 -12 58 -31q105 135 128 234q4 22 12 95l9 195h195z" />
  </g>

</svg>
