<?xml version="1.0" standalone="no"?>
<!DOCTYPE svg PUBLIC "-//W3C//DTD SVG 1.1//EN" "http://www.w3.org/Graphics/SVG/1.1/DTD/svg11.dtd" >
<svg xmlns="http://www.w3.org/2000/svg" xmlns:xlink="http://www.w3.org/1999/xlink" version="1.1" viewBox="-10 0 1034 1024">
  <g transform="matrix(1 0 0 -1 0 820)">
   <path fill="currentColor"
d="M617 -30q0 -37 -21 -49t-67 -12q-30 0 -72 11q12 -21 19 -58q39 0 100 5q13 3 24 5q57 16 58 86v563l238 -1q18 0 39 -3l2 -1v47q-6 0 -37 -5l-242 -1v159q0 16 2 33q4 21 11 33h-59q0 -6 2 -13l1 -2l2 -210l-523 5q-1 1 -3 1v-47q6 3 36 4l471 1q-69 -118 -150 -211
q-111 -132 -246 -213q-81 -48 -148 -62q28 -13 52 -47q67 37 151 90q63 42 114 87q49 46 107 112q72 82 139 187v-494z" />
  </g>

</svg>
