<?xml version="1.0" standalone="no"?>
<!DOCTYPE svg PUBLIC "-//W3C//DTD SVG 1.1//EN" "http://www.w3.org/Graphics/SVG/1.1/DTD/svg11.dtd" >
<svg xmlns="http://www.w3.org/2000/svg" xmlns:xlink="http://www.w3.org/1999/xlink" version="1.1" viewBox="-10 0 1010 1000">
   <path fill="currentColor"
d="M196 -2q104 6 102 20q1 6 -7 20q-11 20 -11 36v135h18q61 -1 101 -6v85q-58 -3 -103 -4h-16v135l101 -54l16 80l-115 55v322q4 62 -169 81q-3 -56 -34 -103q131 12 123 -28v-230l-113 71l-35 -85l146 -71v-173h-21q-64 2 -129 8v-91q58 6 125 8h25v-133q0 -54 -4 -78z
M808 16q84 70 81 84q-2 4 -23 6q-46 3 -84 15q-27 8 -95 23q-19 5 -30 7v282l83 -12q54 -6 183 -38l12 100q-46 -2 -181 17l-97 14v250q-4 36 53 42q70 6 113 -12q39 -19 34 -115q48 35 97 44q-9 89 -47 129q-26 25 -126 34q-108 8 -166 -9q-40 -7 -38 -71v-282l-65 10
q-49 6 -135 28l-16 -93q17 -2 70 -8q52 -6 69 -8l77 -10v-276q-1 0 -28 6q-98 22 -124 26l-48 -84q268 -15 431 -99z" />
</svg>
