<?xml version="1.0" standalone="no"?>
<!DOCTYPE svg PUBLIC "-//W3C//DTD SVG 1.1//EN" "http://www.w3.org/Graphics/SVG/1.1/DTD/svg11.dtd" >
<svg xmlns="http://www.w3.org/2000/svg" xmlns:xlink="http://www.w3.org/1999/xlink" version="1.1" viewBox="-10 0 1034 1024">
  <g transform="matrix(1 0 0 -1 0 820)">
   <path fill="currentColor"
d="M269 -59q0 -31 -13 -38q-24 -9 -50 -10q-18 0 -57 8q15 -16 28 -55q28 0 44 2q42 6 64 19q22 16 23 64v317q78 39 98 47q16 6 38 19q1 31 4 61q-33 -27 -140 -82v217q111 0 128 -3l22 -2v46q-43 -4 -76 -5h-74v146q0 16 3 33q1 18 10 33h-57q1 -9 3 -14q0 -25 2 -52v-146
l-189 5v-46q3 1 8 1q0 3 116 4h65v-235q-97 -48 -123 -59q-27 -10 -75 -24q15 -19 28 -53q105 57 116 62q24 13 54 27v-287zM529 -26q-1 -24 -3 -50q-1 -3 -2 -16h50q-6 39 -6 93v13h287l-3 -92q-1 -3 -1 -7q-1 -3 -1 -8h50q-6 60 -5 106l1 579l4 47q-30 -1 -60 -5l-270 1
q-15 3 -46 4q1 -33 5 -66v-599zM568 50v548h287v-548h-287z" />
  </g>

</svg>
