<?xml version="1.0" standalone="no"?>
<!DOCTYPE svg PUBLIC "-//W3C//DTD SVG 1.1//EN" "http://www.w3.org/Graphics/SVG/1.1/DTD/svg11.dtd" >
<svg xmlns="http://www.w3.org/2000/svg" xmlns:xlink="http://www.w3.org/1999/xlink" version="1.1" viewBox="-10 0 1034 1024">
  <g transform="matrix(1 0 0 -1 0 820)">
   <path fill="currentColor"
d="M227 215v-288q0 -31 -15 -39q-22 -7 -51 -8q-19 0 -54 8q3 -10 8 -20q6 -12 9 -24q1 -6 3 -11q15 0 25 1q72 3 97 27q15 15 16 65v305q9 4 25 10q87 34 101 41q0 27 2 54q-22 -13 -56 -29q-30 -15 -72 -32v206q87 0 111 -2q12 0 27 -4v47q-33 -1 -66 -5h-72l1 191
q3 33 10 44q0 3 2 4h-56l5 -102v-137q-111 0 -141 2q-3 1 -24 3v-47q4 1 9 2l77 4h79v-221q-127 -48 -177 -60q10 -21 20 -52q25 12 43 22q54 21 95 39q9 3 19 6zM812 323l-14 -341q-1 -51 -16 -66q-18 -18 -83 -19q-24 0 -54 6q12 -18 22 -55q108 6 137 29q30 24 33 104
l13 313q1 15 3 30q0 27 4 40q-34 -1 -69 -5l-284 1q-12 3 -35 4v-46q4 1 9 1l79 4h11l-7 -92q-4 -39 -12 -68q-33 -141 -126 -224q-60 -51 -111 -68q27 -15 43 -37q42 30 71 53q21 16 46 43q87 91 118 235q6 24 10 57l12 101h200zM374 347q21 -4 46 -21q60 84 94 145
q33 63 67 153q19 51 26 63q6 12 26 29q-34 7 -57 25q-21 -88 -74 -206q-61 -132 -128 -188zM733 640q3 -10 7 -23q24 -72 64 -138q48 -79 131 -159q16 21 50 31q-15 6 -25 13q-30 19 -70 65q-61 69 -101 169q-33 75 -33 120q0 9 3 25q-22 -9 -50 -17q3 -15 24 -86v0z" />
  </g>

</svg>
