<?xml version="1.0" standalone="no"?>
<!DOCTYPE svg PUBLIC "-//W3C//DTD SVG 1.1//EN" "http://www.w3.org/Graphics/SVG/1.1/DTD/svg11.dtd" >
<svg xmlns="http://www.w3.org/2000/svg" xmlns:xlink="http://www.w3.org/1999/xlink" version="1.1" viewBox="-10 0 1010 1000">
   <path fill="currentColor"
d="M210 -2q17 2 46 4q66 5 67 10q0 2 -5 8q-26 37 -26 97v86q111 0 141 -6v83q-28 -6 -141 -6v161q90 -39 127 -62v7q-1 60 8 87q-53 12 -133 45v292q15 77 -159 95q0 -56 -33 -97q-6 -6 -5 -8q71 14 92 5q24 -8 23 -47v-210q-91 39 -131 66q-6 -35 -31 -96q51 -10 166 -49
v-189q-117 0 -154 6v-83q45 6 154 6v-84q0 -77 -6 -121zM899 98q-6 32 -6 109v531q0 111 6 143h-91q0 -16 2 -45q3 -33 3 -54h-279q-87 0 -127 6v-91q71 10 123 10h283v-232h-214q-45 0 -123 6v-84q72 6 121 6h216v-222h-244q-89 0 -129 6v-87q34 6 127 6h229q55 0 103 -8z
" />
</svg>
