<?xml version="1.0" standalone="no"?>
<!DOCTYPE svg PUBLIC "-//W3C//DTD SVG 1.1//EN" "http://www.w3.org/Graphics/SVG/1.1/DTD/svg11.dtd" >
<svg xmlns="http://www.w3.org/2000/svg" xmlns:xlink="http://www.w3.org/1999/xlink" version="1.1" viewBox="-10 0 1010 1000">
   <path fill="currentColor"
d="M185 6q108 6 99 10q0 6 -4 11q-10 12 -10 47v123q89 -4 125 -10v81q-24 -6 -125 -6v159q29 -9 115 -50q-9 51 0 82q-74 28 -115 43v260q2 71 -24 90q-25 23 -125 37q-12 -65 -44 -105q123 30 115 -26v-230q-81 26 -123 47q-6 4 -7 3q-1 -2 -2 -8q-7 -32 -20 -76
q2 -1 8 -2q45 -10 144 -43v-179q-106 0 -140 6v-83q34 10 140 10v-101q0 -45 -7 -90zM528 8q36 44 87 131l-85 34q-12 -35 -62 -110q-16 -23 -16 -25zM649 64q48 8 103 8h42q78 0 113 -8q-8 30 -8 147v607q10 59 -149 69q5 -53 -38 -107q116 28 107 -24v-609h-43
q-90 0 -127 6v-89zM423 191q97 0 101 10q1 4 -3 11q-13 21 -13 60v445q-1 151 10 174h-99q10 -67 10 -168v-385q-1 -99 -6 -147z" />
</svg>
