<?xml version="1.0" standalone="no"?>
<!DOCTYPE svg PUBLIC "-//W3C//DTD SVG 1.1//EN" "http://www.w3.org/Graphics/SVG/1.1/DTD/svg11.dtd" >
<svg xmlns="http://www.w3.org/2000/svg" xmlns:xlink="http://www.w3.org/1999/xlink" version="1.1" viewBox="-10 0 1010 1000">
   <path fill="currentColor"
d="M196 -4q16 2 45 4q66 5 67 10q1 1 -4 9q-24 41 -24 91v89q7 0 19 -1q67 -1 108 -9v87q-31 -5 -56 -7q-21 -1 -71 -1v149q63 -30 95 -50q-10 49 -2 92q-43 12 -93 35v314q5 66 -167 75q-3 -50 -27 -92q-7 -11 -7 -15q117 31 123 -24v-228q-86 34 -133 64q-12 -59 -25 -100
q51 2 158 -43v-175q-77 -1 -137 8v-87q31 5 60 7q14 0 31 1h46v-91q0 -89 -6 -112zM587 0q18 2 48 5q70 6 71 11q1 2 -5 9q-30 33 -30 87v69h103q57 0 77 -1q26 -1 46 -5v83q-34 -6 -125 -6h-101v155h131q80 -1 125 -8v86q-34 -6 -123 -6h-112q50 240 270 317q-45 29 -83 89
q-189 -124 -238 -339q-60 206 -256 355q-37 -35 -93 -67q229 -107 285 -355h-71q-73 0 -113 6v-86q61 8 115 8h79q4 -60 4 -155h-51q-78 1 -111 6v-83q44 6 111 6h51v-73q0 -54 -1 -72q-1 -24 -3 -36z" />
</svg>
