<?xml version="1.0" standalone="no"?>
<!DOCTYPE svg PUBLIC "-//W3C//DTD SVG 1.1//EN" "http://www.w3.org/Graphics/SVG/1.1/DTD/svg11.dtd" >
<svg xmlns="http://www.w3.org/2000/svg" xmlns:xlink="http://www.w3.org/1999/xlink" version="1.1" viewBox="-10 0 1034 1024">
  <g transform="matrix(1 0 0 -1 0 820)">
   <path fill="currentColor"
d="M238 -44q0 -27 -7 -37q-10 -15 -50 -16q-24 0 -61 9q15 -21 21 -56q63 4 81 9q21 3 33 15q21 19 21 77v295q97 45 110 53q0 42 2 59q-16 -13 -52 -35q-34 -19 -60 -31v214l96 -3q4 0 12 -3v47q-33 -1 -68 -5h-40l1 170q0 12 5 31q1 9 8 17h-57q1 -33 5 -66v-152h-98
q-24 0 -48 3q-6 0 -18 2v-47q4 1 10 2l75 4h79v-237q-42 -24 -105 -54q-39 -18 -72 -28q15 -22 25 -49l35 24l67 36l50 27v-275zM938 -144q7 18 39 50q-121 19 -268 145q55 67 85 117q15 30 32 67q18 40 40 96q9 24 19 46q-34 -1 -70 -5h-126v183l232 -1q4 0 42 -4v47
q-12 -3 -16 -3q-27 -1 -51 -3h-207l1 147q3 34 12 47q0 1 1 1h-57q1 -33 5 -68v-127h-171q-24 0 -48 3q-3 0 -17 3v-47q19 4 51 5h185v-183l-189 1q-12 3 -35 4v-46q9 3 25 3q27 0 54 2q21 -63 46 -120q18 -42 35 -72q21 -36 59 -90q-73 -60 -138 -97q-96 -51 -168 -61
q22 -12 42 -49q174 75 294 177q108 -93 238 -156zM822 336q-27 -82 -60 -142q-31 -55 -85 -115l-45 73l-27 48q-40 85 -54 136h271z" />
  </g>

</svg>
