<?xml version="1.0" standalone="no"?>
<!DOCTYPE svg PUBLIC "-//W3C//DTD SVG 1.1//EN" "http://www.w3.org/Graphics/SVG/1.1/DTD/svg11.dtd" >
<svg xmlns="http://www.w3.org/2000/svg" xmlns:xlink="http://www.w3.org/1999/xlink" version="1.1" viewBox="-10 0 1010 1000">
   <path fill="currentColor"
d="M562 -8q110 0 109 10q1 2 -3 7q-20 23 -21 73v87h119q49 0 97 -6q-12 79 -24 282q45 0 98 -6v79q-50 -6 -104 -6h-164q53 214 291 284q-30 22 -79 73l-10 10q-230 -138 -250 -329q-40 226 -258 355q-41 -51 -85 -69q227 -75 278 -324h-46q-59 0 -119 6v-83q51 9 119 10
h53l6 -208q-70 -3 -152 5v-79q35 4 65 5q15 1 34 1h51q0 -82 -1 -115q-1 -40 -4 -62zM196 -2q5 0 14 1q97 5 92 11q1 2 -5 11q-21 34 -21 79v95q39 0 58 -1q24 0 55 -3v79q-28 -3 -51 -3q-18 -1 -62 -1v149q21 -10 68 -37l27 -15q-8 38 8 82l-103 51v294q8 69 -153 87
q-11 -59 -44 -105q74 13 96 8q26 -4 25 -32v-220q-22 11 -51 25q-43 20 -82 43l-25 -88q66 -15 158 -59v-183q-46 0 -73 1q-32 2 -64 5v-81q35 4 62 5q21 1 75 1v-95q0 -72 -4 -104zM645 237l-6 208h125l18 -208h-137z" />
</svg>
