<?xml version="1.0" standalone="no"?>
<!DOCTYPE svg PUBLIC "-//W3C//DTD SVG 1.1//EN" "http://www.w3.org/Graphics/SVG/1.1/DTD/svg11.dtd" >
<svg xmlns="http://www.w3.org/2000/svg" xmlns:xlink="http://www.w3.org/1999/xlink" version="1.1" viewBox="-10 0 1034 1024">
  <g transform="matrix(1 0 0 -1 0 820)">
   <path fill="currentColor"
d="M284 506q96 0 145 -3q3 0 13 -2v46q-33 -1 -67 -5h-91l1 171q0 9 6 31q1 9 7 17h-57q0 -6 6 -62q-1 -1 0 -5v-152q-129 0 -160 2q-3 1 -24 3v-46q4 1 9 1l80 4h94v-230q-58 -34 -101 -57q-33 -15 -69 -29q13 -22 24 -56q27 18 61 45q12 6 20 12q39 25 65 39v-307
q0 -34 -19 -43q-15 -9 -50 -9q-25 0 -58 9q16 -36 18 -59q7 1 15 2q34 1 48 4q42 6 64 24q19 18 20 65v337q13 7 27 16l43 27l53 30q1 33 4 66q-25 -24 -50 -43l-77 -48v205zM498 370q-6 0 -66 5v-46q4 1 9 1l57 4h183v-408q0 -16 -7 -24q-19 -21 -68 -22q-27 0 -66 4
q12 -25 17 -54q25 3 53 5q34 4 64 13q33 12 40 38q6 24 6 49v399h189q-21 -34 -23 -42q-4 -7 -7 -18q-13 -27 -14 -30l-38 -59q30 -3 32 -4q6 0 20 -6l91 200q-36 -1 -73 -5h-399zM887 700q-72 -6 -92 -6l-324 3l-22 3v-47q4 1 10 1q7 3 36 4l302 1q-10 -19 -50 -68
q-34 -42 -73 -83l-83 56q-9 6 -15 11q-15 -27 -28 -40q40 -16 90 -51q81 -57 120 -102q10 24 31 41l-82 63q40 43 81 94z" />
  </g>

</svg>
