<?xml version="1.0" standalone="no"?>
<!DOCTYPE svg PUBLIC "-//W3C//DTD SVG 1.1//EN" "http://www.w3.org/Graphics/SVG/1.1/DTD/svg11.dtd" >
<svg xmlns="http://www.w3.org/2000/svg" xmlns:xlink="http://www.w3.org/1999/xlink" version="1.1" viewBox="-10 0 1010 1000">
   <path fill="currentColor"
d="M206 -13q100 6 104 13q1 1 -2 5q-20 27 -20 101v99h47q12 0 54 -2q26 -1 42 -2v79q-50 -4 -100 -4h-43v159q98 -37 131 -52q0 3 -1 9q-7 45 -1 81l-129 35v296q3 42 -26 55q-24 14 -135 30q-3 -54 -27 -97q-5 -9 -5 -12q117 26 117 -20v-230q9 -7 -150 58q-2 -7 -4 -21
q-11 -54 -18 -75q77 -13 172 -37v-179h-71q-44 0 -89 4v-79q9 0 26 1q32 2 65 3h69v-103q0 -57 -6 -115zM700 -8q11 1 30 3q76 6 80 11q1 1 -1 8q-15 43 -15 125v389l73 -16q16 -2 77 -25l18 89q-46 3 -85 10l-83 16v182q-3 58 6 127h-92q6 -71 6 -125v-171l-194 40
q-50 9 -121 36l-16 -95q65 -2 125 -14l206 -40v-399q0 -84 -14 -151zM544 74q61 75 115 147l-78 41q-43 -88 -113 -149zM514 324q32 34 115 141l-69 43q-44 -82 -110 -146z" />
</svg>
