<?xml version="1.0" standalone="no"?>
<!DOCTYPE svg PUBLIC "-//W3C//DTD SVG 1.1//EN" "http://www.w3.org/Graphics/SVG/1.1/DTD/svg11.dtd" >
<svg xmlns="http://www.w3.org/2000/svg" xmlns:xlink="http://www.w3.org/1999/xlink" version="1.1" viewBox="-10 0 1034 1024">
  <g transform="matrix(1 0 0 -1 0 820)">
   <path fill="currentColor"
d="M229 -67q0 -28 -13 -35q-12 -6 -36 -7q-21 0 -49 8q10 -21 16 -52l72 6q24 6 36 21q12 16 12 51v309q10 6 22 10q21 10 39 15q3 3 22 10q3 0 7 3q3 0 5 2q1 1 13 5q0 27 4 60q-40 -28 -87 -49q-13 -6 -25 -12v238q75 0 125 -3q3 0 13 -2v46l-41 -4l-97 -1l1 170
q0 12 5 31q1 9 7 17h-56q1 -33 5 -66v-152h-96q-25 0 -58 4q-4 0 -8 1v-46q24 4 60 5h102v-253q-33 -15 -79 -34q-69 -24 -83 -28q-6 0 -13 -2q13 -21 28 -53q18 13 50 29l97 45v-287zM382 -161q168 75 282 169q123 -93 276 -154q12 25 40 50q-30 1 -59 10q-27 9 -73 30
q-109 52 -155 93q96 123 164 300q-33 -1 -65 -5l-330 1q-12 3 -35 4v-46q4 1 9 1l61 4q7 -27 32 -100l35 -68q27 -46 68 -93q-75 -64 -176 -113q-66 -30 -123 -38q19 -10 37 -30zM793 296q-4 -24 -12 -43q-9 -24 -31 -63q-42 -73 -88 -125q-45 39 -79 106q-36 69 -45 125
h255zM561 706h197q0 -222 2 -230q4 -28 22 -44q21 -21 86 -21q72 6 84 6v9q0 21 6 42q-60 -15 -97 -15q-42 0 -54 17q-10 15 -11 54q0 175 2 186q0 18 3 37q-30 -1 -62 -5l-178 1q-15 3 -45 4q3 -27 5 -44q0 -37 2 -75q0 -69 -11 -110q-15 -54 -77 -91q-19 -12 -58 -25
q24 -12 42 -38q66 43 97 79q40 42 43 157z" />
  </g>

</svg>
