<?xml version="1.0" standalone="no"?>
<!DOCTYPE svg PUBLIC "-//W3C//DTD SVG 1.1//EN" "http://www.w3.org/Graphics/SVG/1.1/DTD/svg11.dtd" >
<svg xmlns="http://www.w3.org/2000/svg" xmlns:xlink="http://www.w3.org/1999/xlink" version="1.1" viewBox="-10 0 1010 1000">
   <path fill="currentColor"
d="M206 -6q65 0 82 1q23 1 24 5q0 2 -3 6q-21 30 -21 107v94h39q49 0 106 -6v75q-57 -6 -106 -6h-39v165q1 -1 16 -8q40 -17 75 -34q0 46 4 80q-32 10 -95 35v290q2 51 -26 66q-25 18 -131 33q-10 -51 -44 -103q122 26 125 -26v-232q-40 15 -137 66l-27 -92q32 -5 132 -40
q24 -8 32 -11v-189h-47q-65 0 -111 6v-75q52 6 111 6h47v-95q1 -56 -6 -118zM907 50v95q-45 -15 -191 118q-14 12 -22 19q7 5 11 8q1 0 49 36l-56 37h147q33 0 109 -7q-8 21 -44 125q-21 60 -33 95q-43 -14 -95 -16q24 -33 53 -106q7 -16 10 -23h-145v377q10 83 -158 95
q-7 -60 -36 -99q116 31 119 -24v-349h-103q-68 -1 -115 6v-79q56 5 113 5h153q-76 -79 -187 -140l66 -50q15 10 43 32q32 25 52 39q14 -13 46 -41q60 -54 91 -80h-221q-33 0 -91 4q-29 2 -37 2v-79q5 0 30 2q63 4 97 4h230q58 0 115 -6z" />
</svg>
