<?xml version="1.0" standalone="no"?>
<!DOCTYPE svg PUBLIC "-//W3C//DTD SVG 1.1//EN" "http://www.w3.org/Graphics/SVG/1.1/DTD/svg11.dtd" >
<svg xmlns="http://www.w3.org/2000/svg" xmlns:xlink="http://www.w3.org/1999/xlink" version="1.1" viewBox="-10 0 1034 1024">
  <g transform="matrix(1 0 0 -1 0 820)">
   <path fill="currentColor"
d="M206 234q10 7 21 13v-301q0 -39 -25 -47q-18 -6 -44 -6q-21 6 -50 8q19 -30 23 -53q57 3 83 11q51 15 51 81v327q46 27 63 35q45 21 62 31q3 0 6 3q0 24 3 59q-9 -7 -45 -34q-7 -3 -16 -9q-67 -39 -73 -39v183q90 0 135 -3q1 0 4 -1l13 -2v47q-36 -3 -43 -4
q-19 -1 -81 -2h-28l1 174q1 15 4 29q3 6 8 19h-56q1 -33 5 -67v-155h-104q-9 0 -24 2q-15 0 -25 2l-17 2v-47q25 6 50 6h120v-205q-121 -67 -180 -79q21 -27 30 -50q45 27 79 47q24 13 50 25zM344 -121q27 36 29 37q33 48 56 99q42 93 52 212q3 48 4 123l2 271q3 1 89 9
q16 1 31 4l-1 -720q-1 -7 -2 -33q-1 -3 -2 -15h48q0 4 -1 8q-1 3 -4 58v707q51 3 107 19q0 -178 4 -243q-1 -3 0 -7q9 -93 17 -132q36 -204 149 -391q9 9 18 13q7 3 38 14q-48 39 -97 145q-36 81 -51 137q-15 57 -29 156q-6 33 -8 75l-3 153l2 88q21 3 54 10l40 7q7 0 17 -1
q-25 25 -41 50q-34 -13 -60 -21q-58 -15 -125 -30q-120 -21 -189 -21q-15 0 -44 2q1 -36 5 -72l-5 -351q-12 -147 -64 -237q-48 -81 -100 -112q27 -6 52 -28q6 9 12 17v0z" />
  </g>

</svg>
