<?xml version="1.0" standalone="no"?>
<!DOCTYPE svg PUBLIC "-//W3C//DTD SVG 1.1//EN" "http://www.w3.org/Graphics/SVG/1.1/DTD/svg11.dtd" >
<svg xmlns="http://www.w3.org/2000/svg" xmlns:xlink="http://www.w3.org/1999/xlink" version="1.1" viewBox="-10 0 1010 1000">
   <path fill="currentColor"
d="M567 -10q4 0 13 1q114 9 105 17q-1 2 -5 7q-16 18 -25 55q-1 7 -10 47q-6 29 -8 38h133q70 0 119 -14v90q-40 -6 -121 -6h-139l-20 115h203q71 0 119 -6v83q-42 -8 -118 -8h-214l-16 99h177q62 0 115 -10v88q-34 -14 -155 176l123 78l-81 67q-125 -120 -327 -224l63 -54
l159 96q49 -73 105 -149h-179q-41 0 -91 5q-6 1 -8 1q24 -96 38 -173h-66q-61 0 -83 6v-83q48 8 87 8h74l18 -115h-58q-67 0 -105 6v-84q7 1 20 2q49 6 89 6h60q6 -46 8 -92q3 -48 1 -73zM369 477q-26 10 -78 34q-7 3 -11 5v246q3 74 -24 90q-23 22 -129 33q2 -52 -36 -105
q73 16 91 6q21 -7 20 -53v-185q-69 29 -121 58l-41 -82q72 -19 162 -57v-207h-55q-63 0 -101 6v-83q41 6 101 6h55v-68q0 -97 -10 -127q14 1 39 2q69 3 65 10q0 2 -3 8q-13 23 -13 64v111h32q28 0 61 -6v83q-21 -6 -61 -6h-32v177q62 -28 81 -40q-6 36 8 80z" />
</svg>
