<?xml version="1.0" standalone="no"?>
<!DOCTYPE svg PUBLIC "-//W3C//DTD SVG 1.1//EN" "http://www.w3.org/Graphics/SVG/1.1/DTD/svg11.dtd" >
<svg xmlns="http://www.w3.org/2000/svg" xmlns:xlink="http://www.w3.org/1999/xlink" version="1.1" viewBox="-10 0 1034 1024">
  <g transform="matrix(1 0 0 -1 0 820)">
   <path fill="currentColor"
d="M232 -43q0 -30 -16 -43q-21 -13 -61 -14q-22 0 -60 6q12 -15 14 -24q4 -12 10 -31q28 0 54 6q51 9 70 23q27 18 27 73v317q27 9 71 29l69 27q-1 4 -2 11q0 3 6 48q-18 -16 -56 -34q-45 -21 -88 -39v208h99q4 0 50 -3q1 0 16 -2v46q-33 -1 -66 -5h-99l1 163q0 12 5 31
q1 9 7 17h-56l5 -104v-107q-117 0 -147 2q-3 1 -24 3v-46q4 1 9 1q7 3 36 4h126v-223q-42 -18 -96 -36q-63 -21 -87 -27q19 -19 31 -46l45 21l69 30q18 6 38 16v-298zM757 398l-3 -533q-1 -3 -1 -6q-1 -3 -1 -8h48q0 4 -1 8q-1 6 -4 57v482h115q3 0 50 -3q1 0 16 -2v46
q-33 -1 -66 -5h-376v226q112 6 175 13q57 7 141 23q42 7 73 9q-31 25 -47 53q-33 -15 -63 -24q-63 -15 -154 -25q-72 -6 -118 -8q-19 0 -54 3l6 -74l-1 -316l-3 -23q-6 -108 -38 -199q-33 -84 -96 -150q-24 -27 -60 -49q22 -4 47 -28q51 49 99 119q27 36 55 114
q22 73 30 143q6 93 8 157h223z" />
  </g>

</svg>
