<?xml version="1.0" standalone="no"?>
<!DOCTYPE svg PUBLIC "-//W3C//DTD SVG 1.1//EN" "http://www.w3.org/Graphics/SVG/1.1/DTD/svg11.dtd" >
<svg xmlns="http://www.w3.org/2000/svg" xmlns:xlink="http://www.w3.org/1999/xlink" version="1.1" viewBox="-10 0 1010 1000">
   <path fill="currentColor"
d="M198 2q10 0 28 1q75 1 74 7q1 2 -3 8q-17 33 -17 86v105q69 0 113 -6v79q-20 -7 -90 -6h-23v173q27 -15 68 -36q14 -6 21 -10q-8 39 4 84q-35 7 -93 31v280q1 43 -29 60q-25 17 -118 31q-9 -64 -38 -99q76 7 91 -2q19 -7 18 -50v-192q-54 20 -109 50q-15 -49 -33 -84
q28 -4 83 -21q37 -12 59 -18v-195q-44 0 -64 1q-24 1 -75 7v-87q46 7 67 9q18 1 72 1v-111q0 -42 -6 -96zM879 64v81q-39 -6 -115 -6h-115q-1 18 -2 66q-2 77 -4 131h163q71 -3 107 -8v81q-60 -6 -109 -6h-167q-42 296 -250 490q-32 -39 -87 -55q202 -118 262 -435h-86
q-62 1 -95 6v-79q57 6 97 6h89q2 -41 3 -87q1 -22 1 -48v-62h-77q-69 -1 -107 6v-81q48 8 107 8h268q74 0 117 -8zM637 459q104 -3 97 6q0 2 -2 7q-14 27 -14 100v178q-5 50 92 44q51 4 61 -105q49 43 91 49q-40 141 -105 135h-111q-109 4 -103 -69v-236q0 -51 -6 -109z" />
</svg>
