<?xml version="1.0" standalone="no"?>
<!DOCTYPE svg PUBLIC "-//W3C//DTD SVG 1.1//EN" "http://www.w3.org/Graphics/SVG/1.1/DTD/svg11.dtd" >
<svg xmlns="http://www.w3.org/2000/svg" xmlns:xlink="http://www.w3.org/1999/xlink" version="1.1" viewBox="-10 0 1010 1000">
   <path fill="currentColor"
d="M244 822q146 -156 143 -492q-26 4 -59 13q-13 3 -20 5l-8 -70q21 -2 72 -8q10 -1 15 -2q3 -227 -6 -260q98 6 99 22q-1 3 -4 9q-13 21 -14 67l-2 156q26 -4 68 -9q40 -5 53 -7q7 -2 8 8q-3 15 -3 32q-1 13 -1 52l-6 325q106 -112 109 -389q-10 1 -29 3q-42 4 -56 7
l-6 -83q8 0 29 1q38 1 64 1v-24q-1 -163 -11 -171q109 2 105 16q0 4 -5 12q-10 16 -9 36l-2 129l38 -2q80 -5 107 -12q3 -1 3 0q1 0 1 4q-1 17 -2 44q-1 28 -2 45q-4 82 -9 211q-3 87 -5 115q-2 48 -29 66q-25 19 -110 33q6 -48 -28 -95q60 14 78 -5q19 -14 19 -85
q0 -14 2 -52q6 -192 2 -204l-69 4q-9 277 -115 449l-7 -7q-24 -25 -63 -33v73q-1 34 29 44q25 10 114 8q102 0 124 -20q26 -15 27 -93q42 30 95 42l-8 24q3 145 -230 118q-147 1 -184 -17q-42 -14 -38 -74q8 -285 8 -466l-58 6q-11 360 -133 543q-5 -4 -14 -11
q-21 -23 -67 -32zM161 4q93 8 99 22q0 7 -6 18q-14 28 -14 62v93h18q38 0 75 -4v77q-16 -2 -81 -2h-12v145l95 -44l-4 86q-15 8 -53 24q-28 12 -38 17v312q-5 50 -155 65q0 -52 -27 -95q105 16 107 -18v-232q-11 5 -37 17q-49 21 -63 29l-19 -86l119 -47v-173q-58 0 -111 4
v-79q6 0 17 1q39 3 94 3v-131q0 -12 -2 -43q-1 -13 -2 -21z" />
</svg>
