<?xml version="1.0" standalone="no"?>
<!DOCTYPE svg PUBLIC "-//W3C//DTD SVG 1.1//EN" "http://www.w3.org/Graphics/SVG/1.1/DTD/svg11.dtd" >
<svg xmlns="http://www.w3.org/2000/svg" xmlns:xlink="http://www.w3.org/1999/xlink" version="1.1" viewBox="-10 0 1034 1024">
  <g transform="matrix(1 0 0 -1 0 820)">
   <path fill="currentColor"
d="M78 139l162 73v-285q0 -28 -24 -38q-22 -6 -54 -7q-22 0 -53 8q9 -18 12 -23q6 -12 14 -35q30 3 82 12q34 10 50 28q10 15 11 53v302l24 9q18 9 81 31q6 4 14 6q0 25 5 57q-25 -18 -41 -26l-83 -36v219q84 0 133 -3q3 0 14 -2v46q-33 -1 -68 -5h-79v155q0 13 2 33
q3 18 13 36h-58l5 -110v-114h-109q-24 0 -48 3q-6 0 -18 2v-46q4 1 9 1l79 4h87v-234q-15 -7 -34 -15l-55 -20q-48 -18 -104 -30q6 -6 22 -34q3 -9 9 -15zM339 374q27 -10 54 -35q58 48 142 150q28 36 50 70q24 36 60 100q91 -192 287 -317q28 30 39 37q4 3 8 5
q-90 31 -170 105q-94 94 -140 215q12 22 31 40q-36 4 -63 15q-18 -87 -125 -236q-90 -123 -173 -149zM473 361q1 -28 5 -59l1 -391q0 -7 3 -17q4 -30 48 -41q18 -3 70 -6l166 -1l46 4q33 4 55 24q27 27 58 118q-27 15 -48 38q-3 -43 -10 -69q-15 -57 -54 -68
q-31 -9 -124 -10l-99 2q-42 3 -57 11q-16 9 -17 49v386h251l-5 -163q-1 -39 -20 -51q-27 -10 -58 -11q-12 0 -62 7q15 -30 18 -54q66 4 92 11q66 18 70 95q3 150 6 165l4 42l-62 -6l-223 1q-30 4 -54 5v-11z" />
  </g>

</svg>
