<?xml version="1.0" standalone="no"?>
<!DOCTYPE svg PUBLIC "-//W3C//DTD SVG 1.1//EN" "http://www.w3.org/Graphics/SVG/1.1/DTD/svg11.dtd" >
<svg xmlns="http://www.w3.org/2000/svg" xmlns:xlink="http://www.w3.org/1999/xlink" version="1.1" viewBox="-10 0 1010 1000">
   <path fill="currentColor"
d="M573 2q107 9 112 20q0 7 -9 16q-7 6 -9 10q102 229 317 280q-48 46 -73 91q-207 -116 -286 -319q-58 137 -157 262q66 10 143 13h34q121 0 167 -6q8 0 7 8q-2 20 -4 66q-8 169 -31 202q-24 33 -135 46q-2 -54 -44 -101q35 9 72 7q32 -3 37 -15q16 -42 16 -143h-186v301
q-2 49 19 57q16 12 102 11q101 1 122 -18q25 -14 32 -97q42 42 94 55q-27 101 -67 115q-21 12 -61 15q-31 3 -132 3q-140 2 -161 -15q-31 -12 -28 -88v-411q-7 7 -19 21q-28 31 -42 45q-25 -21 -88 -48q190 -119 258 -383zM175 6q103 8 105 20q1 5 -5 14q-13 21 -13 46v131
q24 -1 65 -4q39 -2 50 -2v79q-10 -1 -30 -1q-38 -1 -85 -3v163l85 -40v87l-6 3q-36 18 -79 37v258q2 51 -31 69q-31 21 -130 32q-15 -61 -47 -109q120 30 129 -16v-202q-42 21 -114 55l-29 -95l143 -51v-191q-121 2 -131 8v-83q33 4 131 6v-139q0 -46 -8 -72z" />
</svg>
