<?xml version="1.0" standalone="no"?>
<!DOCTYPE svg PUBLIC "-//W3C//DTD SVG 1.1//EN" "http://www.w3.org/Graphics/SVG/1.1/DTD/svg11.dtd" >
<svg xmlns="http://www.w3.org/2000/svg" xmlns:xlink="http://www.w3.org/1999/xlink" version="1.1" viewBox="-10 0 1034 1024">
  <g transform="matrix(1 0 0 -1 0 820)">
   <path fill="currentColor"
d="M222 -54q0 -27 -13 -37q-21 -12 -58 -12q-24 0 -52 7q16 -21 28 -57q21 6 54 9q22 4 40 12q39 19 40 78v302q12 3 27 10q60 24 90 34q1 1 10 4q0 27 2 53q-24 -15 -45 -27q-30 -15 -84 -37v223q78 0 127 -3q3 0 13 -2v46q-33 -1 -66 -5h-74l1 179q0 12 5 31q1 9 7 17h-57
q1 -33 5 -66v-161q-111 0 -140 2q-3 1 -24 3v-46q7 1 62 5h102v-238q-109 -43 -169 -53q15 -22 24 -49q21 12 37 18q54 24 108 46v-286zM474 -107q-3 -33 -3 -50q-1 -3 -2 -16h48q-4 54 -5 66v430h327q-9 -49 -33 -116q-22 -63 -73 -145q-46 57 -71 98q-42 73 -46 134
q-28 -15 -49 -20q54 -135 139 -241q-15 -19 -32 -37q-16 -18 -43 -39q-51 -40 -111 -63q15 -4 21 -11q3 -1 24 -27q60 39 92 68q34 31 78 80q63 -57 198 -148q21 28 45 45q-45 7 -92 37q-78 51 -127 95q57 87 89 177q12 33 20 63q9 33 22 91q-33 -1 -67 -5h-311v322h312
l-10 -111q-3 -27 -11 -45q-12 -19 -38 -29q-30 -12 -77 -13q-16 0 -54 4q15 -19 30 -54q106 12 144 37q37 25 44 87l12 132l4 33q-55 -4 -83 -5l-269 1l-47 4q1 -31 5 -65v-764z" />
  </g>

</svg>
