<?xml version="1.0" standalone="no"?>
<!DOCTYPE svg PUBLIC "-//W3C//DTD SVG 1.1//EN" "http://www.w3.org/Graphics/SVG/1.1/DTD/svg11.dtd" >
<svg xmlns="http://www.w3.org/2000/svg" xmlns:xlink="http://www.w3.org/1999/xlink" version="1.1" viewBox="-10 0 1034 1024">
  <g transform="matrix(1 0 0 -1 0 820)">
   <path fill="currentColor"
d="M211 -49q0 -48 -56 -49q-21 0 -59 10q13 -28 17 -54q39 4 67 5q33 4 53 24q15 18 16 64v305q25 12 64 37l66 38l-3 56q-25 -21 -40 -31q-81 -46 -86 -53q-1 0 -1 -1v209l115 -3q3 0 13 -2v46q-51 -4 -88 -5h-40l1 169q0 12 5 31q1 9 7 17h-56q1 -33 5 -66v-151h-88
q-30 0 -66 5v-46q24 4 59 5h95v-232q-16 -10 -36 -21q-24 -13 -79 -41q-19 -9 -48 -20q18 -18 23 -28q4 -6 13 -22q24 24 127 84v-280zM631 229l-269 1q-15 3 -33 4v-46q4 1 9 1q1 0 56 4h237l-1 -324q-3 -12 -3 -18q-1 -3 -2 -8h52q-4 19 -5 47v303l257 -1q4 0 42 -4v46
q-45 -4 -66 -5h-233v431l216 -1q21 -1 42 -5v47q-36 -3 -42 -4q-19 -1 -78 -2l-364 1q-3 1 -6 1q-9 0 -42 4v-47q4 1 9 1q6 3 31 4l193 1v-431zM458 536q-33 -21 -42 -25q24 -37 52 -87q30 -61 61 -135q19 9 28 16q7 4 17 8l-92 176q-18 31 -24 47zM825 382q21 39 41 81
q19 39 25 45q6 9 26 22q-13 6 -24 13q-24 12 -32 18q-30 -78 -57 -135q-27 -52 -63 -109q15 -4 42 -21z" />
  </g>

</svg>
