<?xml version="1.0" standalone="no"?>
<!DOCTYPE svg PUBLIC "-//W3C//DTD SVG 1.1//EN" "http://www.w3.org/Graphics/SVG/1.1/DTD/svg11.dtd" >
<svg xmlns="http://www.w3.org/2000/svg" xmlns:xlink="http://www.w3.org/1999/xlink" version="1.1" viewBox="-10 0 1010 1000">
   <path fill="currentColor"
d="M181 12q91 5 103 12q0 1 -3 6q-17 21 -17 62v121q72 0 113 -6v83q-39 -9 -113 -8v167q29 -11 111 -52l4 82q-61 20 -115 47v284q4 63 -155 87q-10 -69 -34 -107q119 26 110 -18v-218q-64 25 -104 48q-11 6 -16 8l-29 -90q2 -1 10 -3q48 -10 139 -42v-193q-78 0 -131 6
v-83q55 8 131 8v-121q0 -40 -4 -80zM395 54q42 12 194 12h139q126 -1 149 -10q-6 42 -6 123v40q0 104 10 127q-18 -6 -117 -6h-58q1 71 10 131h64q97 -1 145 -10v89q-19 -10 -147 -10h-52q50 223 133 242q21 -10 24 -85q37 46 77 59q-29 136 -63 145q-75 -3 -151 -109
q-76 -120 -97 -252h-169v218q101 -51 157 -89l12 87q-152 68 -240 139l-50 -91l2 -1q40 -13 40 -53v-569q0 -88 -6 -127zM480 129v147h312v-147h-312zM480 340v133h161q-6 -31 -9 -92q-2 -26 -3 -41h-149z" />
</svg>
