<?xml version="1.0" standalone="no"?>
<!DOCTYPE svg PUBLIC "-//W3C//DTD SVG 1.1//EN" "http://www.w3.org/Graphics/SVG/1.1/DTD/svg11.dtd" >
<svg xmlns="http://www.w3.org/2000/svg" xmlns:xlink="http://www.w3.org/1999/xlink" version="1.1" viewBox="-10 0 1010 1000">
   <path fill="currentColor"
d="M669 -12q9 1 27 2q70 5 72 10q1 1 -1 4q-25 34 -25 139q75 0 105 -1q36 -1 60 -5q-6 26 -6 119t6 139q-15 -4 -52 -5q-17 -1 -43 -1h-70v133q16 0 44 -1q109 -1 154 -7q-1 15 -5 50q-10 112 -10 153q7 66 -137 77q-2 -53 -32 -93q89 23 93 -28q4 -25 4 -87h-111v194
q0 62 6 129h-81q5 -56 4 -125v-8v-190h-100q-12 161 -182 307q-38 -40 -91 -55q169 -76 202 -252q-66 0 -93 1q-33 1 -56 3q11 -32 14 -109v-74q0 -56 -6 -89q39 5 67 7q15 1 32 1h48q0 -14 1 -48q1 -45 1 -71q-59 -1 -145 8v-80q36 5 68 7q15 0 33 1h44q-3 -113 -8 -153
q14 1 39 2q64 2 62 12q0 2 -2 6q-20 32 -20 133h92q1 -69 -2 -131q-2 -22 0 -24zM161 -6q107 2 103 12q1 3 -3 9q-19 35 -19 112v70q48 1 101 -6v81q-44 -6 -101 -6v161q59 -32 89 -56q-5 25 10 82q-24 13 -66 33q-23 11 -33 16v316q4 88 -137 89q-2 -44 -36 -87
q-4 -5 -6 -8q69 13 85 6q20 -4 19 -38v-244q-11 7 -30 17q-37 20 -68 41l-23 -98q68 -13 121 -39v-191q-40 0 -60 1q-25 1 -49 5v-77q32 4 109 4v-68q0 -84 -6 -137zM579 207q0 11 -1 39q-1 48 -1 80h94v-119h-92zM742 207v119h83v-119h-83zM508 389h-75v133h73q0 -14 1 -47
q1 -53 1 -86zM671 389h-94q0 14 -1 49q-1 53 -1 84h96v-133z" />
</svg>
