<?xml version="1.0" standalone="no"?>
<!DOCTYPE svg PUBLIC "-//W3C//DTD SVG 1.1//EN" "http://www.w3.org/Graphics/SVG/1.1/DTD/svg11.dtd" >
<svg xmlns="http://www.w3.org/2000/svg" xmlns:xlink="http://www.w3.org/1999/xlink" version="1.1" viewBox="-10 0 1034 1024">
  <g transform="matrix(1 0 0 -1 0 820)">
   <path fill="currentColor"
d="M262 522l1 185q3 33 10 44q0 3 2 4h-57l5 -112v-121h-102q-39 0 -65 5v-47q4 1 9 2l76 4h82v-239q-57 -27 -111 -49q-40 -15 -66 -19q13 -27 16 -33q1 -1 11 -23l1 -2q7 3 15 9q3 0 7 4q1 0 52 31q9 3 69 33q3 3 6 4v-278q0 -31 -11 -41q-18 -12 -45 -12q-16 0 -58 8
q18 -30 21 -53q24 3 41 4q12 0 39 5q19 6 34 19q18 12 18 62v304l131 60l3 54q-43 -31 -134 -72v224q75 0 98 -2q18 0 30 -3l3 -1v47q-51 -4 -85 -5h-46zM366 -122q4 1 10 1t15 2l200 2l342 -1q4 0 42 -4v46q-33 -1 -66 -5l-509 1q-9 1 -16 2q-6 0 -18 2v-46zM477 114
q27 3 57 4l311 -1l46 -4q-3 36 -5 74l1 450l4 53q-66 -4 -101 -5l-274 1q-15 3 -49 4q1 -36 5 -74l-1 -450q0 -1 -4 -53q4 1 10 1zM509 154v234h339v-234h-339zM509 424v225h339v-225h-339z" />
  </g>

</svg>
