<?xml version="1.0" standalone="no"?>
<!DOCTYPE svg PUBLIC "-//W3C//DTD SVG 1.1//EN" "http://www.w3.org/Graphics/SVG/1.1/DTD/svg11.dtd" >
<svg xmlns="http://www.w3.org/2000/svg" xmlns:xlink="http://www.w3.org/1999/xlink" version="1.1" viewBox="-10 0 1034 1024">
  <g transform="matrix(1 0 0 -1 0 820)">
   <path fill="currentColor"
d="M224 -50q0 -45 -28 -50q-21 -3 -41 -3q-22 0 -49 4q12 -24 17 -50q36 1 61 5q46 6 67 25q12 15 13 53v326q18 13 58 35q12 6 21 12q-1 25 -1 49q-37 -27 -78 -52v205q79 0 100 -2q12 0 25 -3v47q-21 -1 -44 -5l-81 -1v150q0 9 2 23q1 18 11 39h-58q4 -99 5 -102v-110
l-147 3l-9 3v-47q42 6 67 5h89v-230q-90 -51 -159 -76q18 -25 27 -47q43 27 73 48l59 33v-287zM708 118l20 20q-18 22 -23 31q-6 6 -12 14q-18 27 -71 92q-12 -10 -33 -23q70 -81 106 -146q6 6 13 12zM733 449q-24 39 -50 72q-18 24 -29 40q-7 10 -17 28q-16 -12 -36 -23
q28 -36 57 -76q25 -39 43 -69q15 15 32 28zM460 367q-75 0 -88 3q-4 1 -12 4v-48q15 3 13 3q24 3 85 3l-19 -275q0 -22 -7 -53q15 3 54 4l335 1q-3 -28 -4 -58q0 -18 -4 -30q-4 -15 -26 -21q-21 -1 -48 -3q-13 0 -36 3q-7 0 -22 2q12 -25 21 -51q102 4 128 20q24 16 27 78
q0 30 2 60q42 0 90 -5v47q-22 -1 -45 -5l-42 -1l5 287q97 -3 106 -6q0 1 2 0v48q-4 0 -7 -2l-37 -4l-63 -1l7 276q0 13 1 27q1 12 4 33q-27 -1 -56 -5l-310 1q-15 3 -43 4q1 -25 2 -80zM477 45l18 287h333l-6 -287h-345zM498 367l15 295h323l-7 -295h-331z" />
  </g>

</svg>
