<?xml version="1.0" standalone="no"?>
<!DOCTYPE svg PUBLIC "-//W3C//DTD SVG 1.1//EN" "http://www.w3.org/Graphics/SVG/1.1/DTD/svg11.dtd" >
<svg xmlns="http://www.w3.org/2000/svg" xmlns:xlink="http://www.w3.org/1999/xlink" version="1.1" viewBox="-10 0 1034 1024">
  <g transform="matrix(1 0 0 -1 0 820)">
   <path fill="currentColor"
d="M55 178l19 -40l43 27q87 49 97 54q6 4 15 7v-287q0 -27 -4 -34q-4 -12 -24 -15q-21 -3 -36 -3q-19 0 -46 4q13 -30 17 -50q84 6 110 19q22 15 23 67v320l108 50q0 27 5 50q-55 -33 -113 -63v234l104 -3q3 0 12 -2v48q-4 0 -7 -2q-34 -1 -70 -5h-39v145q0 3 2 22
q1 18 12 39h-59q1 -30 5 -61v-145h-106q-27 0 -48 3q-6 0 -13 4v-48q42 6 68 5h99v-251q-108 -57 -180 -80zM672 -78l-261 3q-6 1 -10 3v-47q39 4 60 5l480 -1q3 0 36 -4v47l-62 -6h-204v319q150 0 172 -2q12 0 26 -4v47q-63 -6 -90 -6h-108v248l190 -1q21 0 43 -4v47
q-3 0 -6 -1l-2 -1l-82 -4l-414 3q-3 1 -8 3v-47q39 4 61 5h179v-248l-199 3q-3 1 -8 3v-47q15 4 34 5l173 1v-319zM570 723q12 -9 57 -51q28 -27 58 -59q10 -12 24 -29q27 28 33 32q-9 7 -114 109l-35 35q-9 -9 -11 -13q-3 -1 -18 -17q3 -3 6 -7v0z" />
  </g>

</svg>
