<?xml version="1.0" standalone="no"?>
<!DOCTYPE svg PUBLIC "-//W3C//DTD SVG 1.1//EN" "http://www.w3.org/Graphics/SVG/1.1/DTD/svg11.dtd" >
<svg xmlns="http://www.w3.org/2000/svg" xmlns:xlink="http://www.w3.org/1999/xlink" version="1.1" viewBox="-10 0 1010 1000">
   <path fill="currentColor"
d="M155 -4q108 3 107 14q0 1 -3 7q-21 38 -21 100v74q45 0 67 -1q26 -1 62 -5v79q-34 -4 -61 -5q-23 -1 -68 -1v163q59 -33 85 -52q-12 54 -2 92q-31 9 -83 37v320q20 48 -149 75q-5 -55 -37 -101q123 22 111 -44v-216q-60 26 -107 62l-26 -102q68 -16 133 -45v-187
q-33 0 -56 1q-25 1 -59 5v-81q33 4 58 5q22 1 57 1v-74q0 -37 -8 -121zM417 42q25 4 50 5q13 1 28 1h39h238q24 0 81 -3q9 -1 14 -1q-4 45 -8 121l-6 198q45 0 107 -5v85q-52 -7 -109 -6l-4 236q57 3 86 -4v77q-33 -4 -88 -4q0 93 -28 114q-28 30 -130 43q-8 -55 -46 -107
q81 15 100 5q21 -5 23 -57h-250q-60 0 -141 8q23 -114 32 -311q-31 -1 -68 4v-79q6 0 19 1q34 2 55 2l10 -202v-25q1 -58 -4 -96zM502 115l-14 254h286l8 -254h-280zM649 161q27 70 43 153l-89 20q-5 -51 -36 -153zM482 437l-14 236h298l6 -236h-290zM643 473q21 44 42 139
l-86 25q-6 -70 -36 -143z" />
</svg>
