<?xml version="1.0" standalone="no"?>
<!DOCTYPE svg PUBLIC "-//W3C//DTD SVG 1.1//EN" "http://www.w3.org/Graphics/SVG/1.1/DTD/svg11.dtd" >
<svg xmlns="http://www.w3.org/2000/svg" xmlns:xlink="http://www.w3.org/1999/xlink" version="1.1" viewBox="-10 0 1034 1024">
  <g transform="matrix(1 0 0 -1 0 820)">
   <path fill="currentColor"
d="M241 -7q0 -27 -17 -39q-18 -12 -64 -13q-19 0 -45 5q12 -21 21 -51q22 1 47 6q51 9 67 20q27 18 27 81v299l145 81q-3 21 -8 51q-28 -24 -53 -41q-31 -19 -84 -47v209q132 0 142 -3q3 0 8 -2v44l-75 -5h-75l1 156q0 12 5 31q3 6 7 16h-54q1 -31 5 -65v-138l-129 3
q1 0 -16 2v-44q12 3 42 4l103 1v-228l-71 -40q-27 -15 -47 -23q-18 -6 -41 -13q18 -27 29 -51q27 24 130 81v-287zM736 435v-187q-3 3 -5 4q-6 3 -11 8q-28 16 -49 32q-9 6 -18 13q-4 3 -12 7q-1 -1 -2 -5q-6 -9 -14 -24q-3 -6 -8 -14q37 -15 119 -68l-4 -294q-1 -3 -1 -8
h46q-3 21 -5 59v220q4 -3 10 -6l19 -13l51 -37l39 -30q9 -6 26 -24q7 18 26 42l-146 99q-12 6 -25 16v210q124 0 148 -2q12 0 27 -3v44q-31 -1 -63 -5h-355v219q60 3 137 14q40 6 87 16q94 22 102 23q18 3 42 5q-3 3 -38 50q-39 -21 -89 -35q-39 -9 -81 -17q-40 -6 -76 -11
q-66 -4 -103 -5q-10 1 -23 2q6 -66 6 -90v-142q0 -145 -15 -243q-21 -129 -79 -238q-31 -57 -77 -94q21 -6 32 -9q6 -3 20 -11q93 139 125 269q13 63 20 116q6 60 10 147h207z" />
  </g>

</svg>
