<?xml version="1.0" standalone="no"?>
<!DOCTYPE svg PUBLIC "-//W3C//DTD SVG 1.1//EN" "http://www.w3.org/Graphics/SVG/1.1/DTD/svg11.dtd" >
<svg xmlns="http://www.w3.org/2000/svg" xmlns:xlink="http://www.w3.org/1999/xlink" version="1.1" viewBox="-10 0 1034 1024">
  <g transform="matrix(1 0 0 -1 0 820)">
   <path fill="currentColor"
d="M215 539l-149 3q-3 1 -8 3v-47q46 4 91 5h66v-241q-79 -37 -148 -53q12 -18 17 -27q0 -1 7 -20q102 51 124 61v-277q0 -30 -4 -38q-4 -9 -25 -12q-18 -3 -42 -4q-18 0 -48 4q4 -10 9 -25l6 -24l60 4q51 6 68 24q13 15 14 57v309q19 10 40 19q21 10 44 19q13 6 27 12l6 53
q-30 -19 -56 -34q-25 -15 -61 -30v223l119 -3q4 0 10 -2v47q-4 0 -7 -2q-75 -3 -114 -4h-8v160q0 6 2 22q3 24 12 39h-57q1 -30 5 -61v-160zM365 378q4 -1 10 -5q18 -6 29 -14q13 22 29 45l48 78v-574q0 -45 -5 -59h48q-3 7 -4 34v679q9 27 39 93q9 28 15 37q12 30 34 39
q-30 6 -60 19q-15 -78 -79 -211q-60 -117 -109 -159q1 0 5 -2zM813 502l-237 3l-9 3v-47q34 4 60 5h186v-504q0 -33 -4 -41q-4 -10 -23 -16q-18 -3 -48 -4q-24 0 -51 5q15 -33 21 -53q100 6 125 25q18 13 18 59v529q105 0 115 -3q4 0 8 -2v47q-21 -1 -44 -5l-79 -1v196
q0 7 2 22q1 18 12 39h-57q1 -30 5 -61v-196zM598 306q55 -60 107 -137q9 12 30 26q-12 21 -37 51l-69 85q-12 -10 -31 -25v0z" />
  </g>

</svg>
