<?xml version="1.0" standalone="no"?>
<!DOCTYPE svg PUBLIC "-//W3C//DTD SVG 1.1//EN" "http://www.w3.org/Graphics/SVG/1.1/DTD/svg11.dtd" >
<svg xmlns="http://www.w3.org/2000/svg" xmlns:xlink="http://www.w3.org/1999/xlink" version="1.1" viewBox="-10 0 1010 1000">
   <path fill="currentColor"
d="M631 -6q127 16 123 32q1 3 -6 10q-38 38 -73 141h129q35 0 95 -6q-7 51 -6 103v486q-1 75 6 135h-91q4 -50 4 -101h-260q-2 2 -1 36q1 31 3 63h-88q7 -67 6 -135v-482q0 -56 -4 -105q51 7 112 6h21q33 -124 30 -183zM208 10q62 0 79 1q23 2 25 7q1 2 -3 9q-20 38 -19 94
v84q53 0 72 -1q25 -1 67 -5v79q-39 -4 -67 -5q-24 -1 -72 -1v171q94 -37 129 -58q-11 30 -4 90q-17 6 -50 17q-51 16 -75 26v276q2 58 -29 76q-27 20 -134 31q0 -54 -36 -103q125 26 123 -30v-226q-68 27 -135 60l-27 -92q55 -10 162 -43v-191q-51 0 -83 1q-35 2 -68 5v-83
q46 4 76 5q25 1 75 1v-82q0 -75 -6 -113zM552 244v201h261v-201h-261zM552 512v215h261v-215h-261z" />
</svg>
