<?xml version="1.0" standalone="no"?>
<!DOCTYPE svg PUBLIC "-//W3C//DTD SVG 1.1//EN" "http://www.w3.org/Graphics/SVG/1.1/DTD/svg11.dtd" >
<svg xmlns="http://www.w3.org/2000/svg" xmlns:xlink="http://www.w3.org/1999/xlink" version="1.1" viewBox="-10 0 1010 1000">
   <path fill="currentColor"
d="M496 4q104 34 101 44q-1 2 -6 7q-38 37 -73 146v549q0 84 6 137h-91q9 -64 9 -139v-406q-27 54 -57 99q-20 -36 -56 -54q122 -154 167 -383zM750 8q15 0 41 1q73 2 68 5q1 3 -4 12q-18 31 -18 72v137h46q45 -1 71 -4v77q-18 -5 -77 -4h-40v508q14 70 -154 81
q-6 -53 -34 -99q116 25 111 -40v-450h-101q-69 0 -115 6v-81q47 6 111 6h105v-131q0 -65 -10 -96zM655 381q24 82 45 193l-83 12q-2 -115 -38 -193zM349 479q-30 10 -81 40l-6 3v240q3 73 -25 88q-24 22 -134 31q2 -46 -38 -101q76 16 97 6q24 -7 23 -51v-187
q-24 10 -103 49q-17 9 -26 13l-44 -80q53 -18 173 -59v-197h-62q-64 0 -91 6v-79q29 4 91 4h62v-66q0 -83 -14 -123q8 0 24 1q91 1 85 9q0 2 -3 8q-15 23 -15 62v109h34q29 0 65 -6v81q-24 -6 -65 -6h-34v173q45 -19 73 -36z" />
</svg>
