<?xml version="1.0" standalone="no"?>
<!DOCTYPE svg PUBLIC "-//W3C//DTD SVG 1.1//EN" "http://www.w3.org/Graphics/SVG/1.1/DTD/svg11.dtd" >
<svg xmlns="http://www.w3.org/2000/svg" xmlns:xlink="http://www.w3.org/1999/xlink" version="1.1" viewBox="-10 0 1034 1024">
  <g transform="matrix(1 0 0 -1 0 820)">
   <path fill="currentColor"
d="M243 225v-295q0 -16 -12 -29q-12 -9 -40 -10q-30 0 -68 6q12 -18 22 -54q3 0 7 1q3 0 16 2l54 5q12 3 21 7q37 15 38 67v314q51 25 91 41q12 4 19 10q4 3 11 6l-3 54q-48 -33 -118 -67v223l103 -1q15 0 40 -4v46q-33 -1 -67 -5h-76v167q0 13 2 33q3 19 9 29q1 3 4 6h-58
l5 -101v-134q-121 0 -149 2q-3 1 -25 3v-46q4 1 9 1q6 3 32 3l133 1v-239q-97 -46 -123 -55q-28 -10 -60 -19q12 -22 25 -53q39 22 50 31q15 6 84 42zM888 221l-7 -227q-1 -58 -24 -75q-24 -19 -66 -20q-21 0 -63 5q18 -24 25 -52q10 0 23 3q37 3 62 9q21 6 42 21
q33 24 38 100l10 214l6 63q-33 -1 -66 -5h-204q3 96 6 101q1 13 13 26q-21 -1 -38 0q-7 3 -20 4q1 -33 2 -57q-3 -36 -4 -74h-120q-24 0 -48 3q-6 0 -18 2v-46q4 1 9 1l80 4h95q-6 -81 -34 -145q-42 -87 -117 -141q-55 -36 -123 -50q28 -15 46 -42q99 42 174 125
q42 51 64 104q18 51 32 149h225zM839 405q22 0 69 -5q-6 69 -6 93l1 171q0 1 5 47q-72 -4 -107 -5l-265 1q-7 1 -16 2q-13 0 -32 2l4 -28l3 -108q0 -105 -2 -135l-5 -40q33 3 67 5h284zM531 441v229h333v-229h-333z" />
  </g>

</svg>
