<?xml version="1.0" standalone="no"?>
<!DOCTYPE svg PUBLIC "-//W3C//DTD SVG 1.1//EN" "http://www.w3.org/Graphics/SVG/1.1/DTD/svg11.dtd" >
<svg xmlns="http://www.w3.org/2000/svg" xmlns:xlink="http://www.w3.org/1999/xlink" version="1.1" viewBox="-10 0 1010 1000">
   <path fill="currentColor"
d="M587 -13q95 9 111 17q0 1 -3 6q-16 22 -20 46q79 198 295 270q-47 27 -89 81q-210 -137 -248 -307q-86 184 -228 325q-9 -12 -34 -24l6 70q-48 12 -83 31v282q2 56 -28 73q-26 19 -131 32q-9 -60 -40 -111q126 27 117 -24v-218q-81 36 -120 63q-10 7 -15 9l-27 -94
q1 -2 11 -4q55 -11 151 -51v-183q-107 -4 -149 8v-89q45 9 149 10v-99q-1 -67 -8 -98q102 1 106 8q0 4 -4 12q-12 23 -12 58v117q66 0 107 -8v85q-24 -9 -107 -6v151q24 -9 63 -32l-30 -14q193 -143 260 -392zM639 268q32 49 59 135l-83 24q-29 -96 -55 -135zM881 457
q-71 133 -204 295q8 9 50 42q47 37 63 52l-80 63q-122 -134 -273 -232l69 -54l27 21q30 24 80 63q47 -54 127 -169h-184q-109 0 -147 10v-91q65 10 147 10h168q109 -1 157 -10z" />
</svg>
