<?xml version="1.0" standalone="no"?>
<!DOCTYPE svg PUBLIC "-//W3C//DTD SVG 1.1//EN" "http://www.w3.org/Graphics/SVG/1.1/DTD/svg11.dtd" >
<svg xmlns="http://www.w3.org/2000/svg" xmlns:xlink="http://www.w3.org/1999/xlink" version="1.1" viewBox="-10 0 1034 1024">
  <g transform="matrix(1 0 0 -1 0 820)">
   <path fill="currentColor"
d="M91 157q24 25 56 43q10 9 78 48v-291q0 -27 -12 -46q-15 -15 -51 -16q-27 0 -67 8q10 -21 17 -54q49 1 75 6q75 12 76 93v323q15 7 21 12q21 13 44 25q18 9 38 22q-3 27 -5 54q-24 -24 -98 -70v192q93 0 114 -5q0 1 3 0v46q-51 -4 -88 -5h-29v158q0 15 2 32q3 19 12 36
h-57q1 -33 5 -66v-160h-88q-24 0 -48 3q-6 0 -18 2v-46q4 1 9 1l80 4h65v-213q-13 -7 -25 -16q-31 -16 -62 -34q-49 -24 -74 -33q12 -19 25 -49q0 -1 2 -4zM466 250v-310q0 -45 32 -64q21 -12 82 -16q55 -3 113 -3l86 1q33 0 55 3q54 6 81 39q15 21 32 81q4 16 9 35
q-25 3 -50 23q0 -13 1 -22q0 -21 -3 -42q-12 -57 -53 -70q-39 -9 -125 -10q-109 0 -150 4q-33 3 -50 11q-21 12 -22 52v298l137 37q0 -259 -3 -284q-1 -3 -2 -16h48v4q-3 6 -4 31l-1 274l161 45l-5 -182q-1 -39 -5 -51q-7 -21 -45 -22q-27 0 -61 9q16 -24 22 -53q75 3 99 20
q24 18 27 72l7 204q0 18 4 61q-49 -19 -66 -24l-138 -40l1 124q0 12 5 31q1 9 7 17h-56l5 -105v-76l-137 -37v71q0 15 2 32q3 21 12 36h-57q1 -33 5 -66v-83q-33 -7 -65 -17q-21 -4 -46 -7q7 -24 11 -48q48 19 96 32q1 1 4 1zM500 546q9 12 17 25l384 -1q1 0 43 -4v46
q-49 -4 -67 -5h-340q15 42 22 51q0 1 16 34q16 42 41 60q-31 9 -58 21q-27 -85 -72 -171q-66 -118 -134 -177q30 -7 47 -23q36 45 69 96q15 24 32 48v0z" />
  </g>

</svg>
