<?xml version="1.0" standalone="no"?>
<!DOCTYPE svg PUBLIC "-//W3C//DTD SVG 1.1//EN" "http://www.w3.org/Graphics/SVG/1.1/DTD/svg11.dtd" >
<svg xmlns="http://www.w3.org/2000/svg" xmlns:xlink="http://www.w3.org/1999/xlink" version="1.1" viewBox="-10 0 1034 1024">
  <g transform="matrix(1 0 0 -1 0 820)">
   <path fill="currentColor"
d="M87 -135q10 -4 25 -17q96 87 132 150q24 42 36 81q9 46 20 125q130 0 143 -2q12 0 19 -3v46q-43 -4 -73 -5h-87l3 171q103 0 117 -2q16 0 29 -4v47q-9 -1 -43 -6h-102l-3 202q79 15 121 16q9 0 33 -3q-15 21 -29 54q-27 -9 -53 -16q-27 -6 -65 -12q-100 -16 -167 -17
q-24 0 -59 5q12 -21 22 -48q7 1 15 1q63 4 141 14l3 -196l-135 1q-6 1 -11 2q-4 0 -10 3v-47q54 6 79 6h77q0 -87 -4 -171l-158 1l-35 4v-46q30 4 59 5h133q-6 -82 -24 -133q-19 -51 -57 -98q-60 -67 -120 -92zM677 151l-215 1q-15 3 -21 3q-3 1 -5 1v-46q18 4 59 5h182
v-219q0 -25 -3 -44q0 -3 -2 -15h48q-3 30 -5 59v219l213 -1l37 -4v46q-24 -4 -59 -5h-191v148l159 -1l30 -4v46q-19 -4 -60 -5h-129v142l176 -3q6 0 9 -2v46q-16 -4 -59 -5h-126v150l183 -1q21 0 31 -4v45q-30 -1 -59 -5l-365 1q-9 1 -15 2q-1 0 -13 2v-45q18 4 59 5h141
v-150l-175 3q-3 1 -9 2v-47q15 4 35 5l149 1v-142h-122q-40 0 -59 5v-46q19 4 59 5h122v-148z" />
  </g>

</svg>
