<?xml version="1.0" standalone="no"?>
<!DOCTYPE svg PUBLIC "-//W3C//DTD SVG 1.1//EN" "http://www.w3.org/Graphics/SVG/1.1/DTD/svg11.dtd" >
<svg xmlns="http://www.w3.org/2000/svg" xmlns:xlink="http://www.w3.org/1999/xlink" version="1.1" viewBox="-10 0 1010 1000">
   <path fill="currentColor"
d="M198 10q70 0 90 1q25 2 25 7q0 1 -3 6q-24 32 -24 93v86q36 0 60 -1q29 -1 65 -5v81q-30 -4 -57 -5q-14 -1 -29 -1h-39v157q8 -4 23 -10q67 -28 86 -42q-8 33 4 80q-47 18 -113 45v300q17 67 -175 85q1 -60 -34 -105q76 11 103 2q29 -9 28 -46v-206q-86 35 -133 66
l-21 -104q69 -8 154 -39v-183q-39 0 -69 1q-33 1 -81 5v-83q44 4 72 5q23 1 78 1v-84q0 -55 -10 -107zM919 52q-12 61 -25 177q-9 78 -15 121q-5 59 -39 74q-33 19 -150 27q0 -56 -35 -99q139 31 145 -38q6 -31 15 -121q4 -40 6 -62h-150q-35 237 -185 344q-41 -40 -87 -58
q155 -55 194 -288h-53q-54 0 -119 6v-81q65 6 119 6h264q54 0 115 -8zM885 490q-6 32 -6 82v190q0 46 1 69q1 27 5 54h-87q0 -11 2 -46q1 -16 2 -25h-276q0 49 2 73h-86q6 -38 6 -127v-184v-17q2 -32 -6 -69q49 6 118 6h214q57 0 111 -6zM526 566v178h276v-178h-276z" />
</svg>
