<?xml version="1.0" standalone="no"?>
<!DOCTYPE svg PUBLIC "-//W3C//DTD SVG 1.1//EN" "http://www.w3.org/Graphics/SVG/1.1/DTD/svg11.dtd" >
<svg xmlns="http://www.w3.org/2000/svg" xmlns:xlink="http://www.w3.org/1999/xlink" version="1.1" viewBox="-10 0 1034 1024">
  <g transform="matrix(1 0 0 -1 0 820)">
   <path fill="currentColor"
d="M64 195l15 -18q7 -12 10 -18q12 12 36 27l103 62v-311q0 -22 -13 -34q-15 -9 -42 -10q-18 0 -55 7q15 -18 28 -58q60 9 74 13q16 7 31 19q15 16 15 57v336l49 27q27 12 54 27q-3 28 -4 56q-34 -36 -99 -68v210q88 0 118 -4q1 0 6 -1v47q-12 -3 -16 -3q-54 -3 -108 -3v156
q0 15 2 33q3 19 12 36h-57q1 -33 5 -67v-158h-94q-24 0 -48 3q-4 0 -18 3v-47q7 1 62 5h98v-229q-102 -58 -173 -81q4 -6 9 -14zM851 685l-9 -197q-3 -64 -21 -84q-22 -18 -79 -18q-28 0 -65 9q12 -24 17 -56q12 1 25 1q54 3 97 15q33 10 48 37t18 84l9 189q0 27 6 61
q-33 -1 -68 -5l-365 1q-12 3 -35 4v-46q4 1 9 1l77 4h56q0 -48 -7 -98q-9 -76 -35 -128q-39 -79 -133 -130q33 -10 53 -29q78 73 111 131q21 39 36 97q9 54 17 157h238zM461 -80q-1 -24 -3 -51q0 -3 -1 -7q-1 -3 -1 -8h47q-6 60 -5 81v2h370q0 -48 -3 -63q0 -6 -2 -13h48
q-6 60 -5 104l1 268q0 19 4 48q-33 -1 -67 -5l-339 1q-19 3 -49 4q1 -33 5 -66v-295zM498 -27v267h370v-267h-370z" />
  </g>

</svg>
