<?xml version="1.0" standalone="no"?>
<!DOCTYPE svg PUBLIC "-//W3C//DTD SVG 1.1//EN" "http://www.w3.org/Graphics/SVG/1.1/DTD/svg11.dtd" >
<svg xmlns="http://www.w3.org/2000/svg" xmlns:xlink="http://www.w3.org/1999/xlink" version="1.1" viewBox="-10 0 1034 1024">
  <g transform="matrix(1 0 0 -1 0 820)">
   <path fill="currentColor"
d="M231 518h-110q-21 0 -48 3q-4 0 -17 2v-46q6 1 65 5h110v-210q-63 -33 -102 -52q-33 -15 -74 -29q15 -19 29 -52q33 28 60 45q33 18 87 43v-288q0 -30 -10 -39q-15 -12 -54 -13q-27 0 -70 8q21 -33 24 -55q25 0 53 3q54 6 72 17q22 15 23 61v326l124 61q-6 27 -6 56
q-30 -24 -59 -42q-34 -19 -59 -33v193h67q6 0 51 -3q1 0 16 -2v46q-33 -1 -67 -5h-67v169q0 13 2 33q1 19 11 36h-56q1 -33 5 -67v-171zM965 -53q-45 -4 -67 -5l-489 1q-15 3 -33 4v-46q4 1 9 1q6 0 15 2l193 2l330 -1q4 0 42 -4v46zM512 518q-25 0 -66 5v-46q4 1 10 1
q3 0 8 1q21 3 20 2l381 1q21 0 67 -5v46q-51 -4 -86 -5h-125q78 115 120 170q12 16 35 24q-24 15 -53 39q-6 -18 -14 -30q-16 -31 -31 -51l-56 -83l-50 -69h-160zM463 714q66 -69 126 -170q3 3 9 10t13 13q6 6 14 12q-36 51 -66 90q-27 33 -64 75q-9 -10 -25 -24
q-4 -3 -7 -6zM478 227q4 1 9 1l76 4l290 -1q4 0 42 -4v47q-12 -3 -16 -3q-27 -1 -50 -3h-285q-24 0 -48 3q-4 0 -18 3v-47z" />
  </g>

</svg>
