<?xml version="1.0" standalone="no"?>
<!DOCTYPE svg PUBLIC "-//W3C//DTD SVG 1.1//EN" "http://www.w3.org/Graphics/SVG/1.1/DTD/svg11.dtd" >
<svg xmlns="http://www.w3.org/2000/svg" xmlns:xlink="http://www.w3.org/1999/xlink" version="1.1" viewBox="-10 0 1010 1000">
   <path fill="currentColor"
d="M585 -17q93 11 115 25q0 1 -3 4q-31 24 -68 119h159q80 0 131 -6v80q-60 -9 -129 -6h-187l-43 99q69 0 97 -1q34 -2 71 -7l-6 171h84q64 -3 105 -8v83q-27 -6 -105 -6h-84v300q2 37 -20 47q-15 12 -121 36q-3 -54 -37 -99q68 10 83 2q17 -6 16 -44v-244q-116 0 -161 3
q-51 3 -95 13q-7 -36 -24 -73q37 -9 87 -108q-12 0 -67 6v-75q67 6 97 6l44 -101h-32q-36 0 -58 1q-26 1 -69 5v-80q36 4 61 5q21 1 60 1h64q24 -86 35 -148zM643 362h-109l-9 15q-30 49 -47 84h165v-99zM847 586q59 79 131 194l-81 40q-39 -91 -119 -199zM498 596
q69 41 75 53l-3 3q-36 29 -171 182q-23 -27 -72 -52q101 -72 171 -186zM361 290q-26 -4 -50 -5q-19 -1 -55 -1v141q40 -16 77 -37q11 -5 18 -9q-7 33 6 84q-21 5 -66 25q-23 9 -35 14v320q15 49 -131 79q-4 -49 -32 -97q89 16 88 -30v-246q-66 26 -131 62l-20 -92
q70 -14 151 -47v-165q-42 0 -69 1q-30 1 -66 5v-81q46 4 69 5q20 1 66 1v-98q0 -71 -6 -125q99 4 101 12q0 1 -2 3q-18 33 -18 114v94q38 0 54 -1q19 0 51 -3v77z" />
</svg>
