<?xml version="1.0" standalone="no"?>
<!DOCTYPE svg PUBLIC "-//W3C//DTD SVG 1.1//EN" "http://www.w3.org/Graphics/SVG/1.1/DTD/svg11.dtd" >
<svg xmlns="http://www.w3.org/2000/svg" xmlns:xlink="http://www.w3.org/1999/xlink" version="1.1" viewBox="-10 0 1010 1000">
   <path fill="currentColor"
d="M175 0q101 1 105 12q0 3 -6 11q-20 27 -20 65v109h20q51 0 85 -7q6 -1 8 -1v87q-1 0 -8 -1q-39 -7 -85 -7h-20v161l99 -46l8 80l-107 45v260q3 67 -24 81q-25 19 -139 30q-6 -59 -29 -103q77 15 97 6q22 -7 20 -53v-195l-114 58l-27 -86l141 -51v-187h-18q-51 0 -96 7
q-8 1 -9 1v-87q2 0 12 1q43 7 93 7h18v-121q0 -59 -4 -76zM512 54h272q84 0 123 -6q-6 40 -6 127v613q2 67 -25 84q-25 22 -118 27q-19 -75 -42 -103q68 15 86 5q19 -7 17 -55v-166h-142v133q0 71 7 121q1 7 1 8h-92q0 -3 1 -12q7 -48 7 -115v-135h-131q-9 169 -111 313
q-38 -26 -97 -41q140 -115 135 -360v-321q0 -88 -8 -125q35 8 123 8zM470 125v173h131v-173h-131zM677 125v173h142v-173h-142zM470 363v153h131v-153h-131zM677 363v153h142v-153h-142z" />
</svg>
