<?xml version="1.0" standalone="no"?>
<!DOCTYPE svg PUBLIC "-//W3C//DTD SVG 1.1//EN" "http://www.w3.org/Graphics/SVG/1.1/DTD/svg11.dtd" >
<svg xmlns="http://www.w3.org/2000/svg" xmlns:xlink="http://www.w3.org/1999/xlink" version="1.1" viewBox="-10 0 1034 1024">
  <g transform="matrix(1 0 0 -1 0 820)">
   <path fill="currentColor"
d="M234 -47q0 -28 -16 -38q-21 -7 -45 -8q-24 0 -61 9q24 -28 30 -59q7 0 67 9q27 7 41 15q21 16 22 73v302l119 64q0 21 4 63q-66 -57 -123 -83v211l106 -3q4 0 9 -2v46q-33 -1 -67 -5h-48q0 169 2 178q0 6 4 28q1 9 7 17h-56l5 -108v-115h-88q-24 0 -48 3q-6 0 -18 2v-46
q54 4 78 5h76v-232q-30 -18 -87 -44q-36 -16 -57 -24q-15 -6 -35 -11q9 -9 13 -18l17 -35q18 15 32 23q36 18 69 39l48 26v-282zM500 564q0 15 2 33q1 16 11 36h-56q1 -33 5 -67l-1 -534q-4 -28 -22 -49q18 -18 31 -41q34 54 80 115l114 157q1 3 4 6l-12 19q0 1 -3 5
q0 6 -6 17q-3 7 -5 14q-18 -52 -93 -156q-16 -19 -31 -41l-18 -24v510zM533 739l12 -18q21 -30 32 -46l16 -30l52 -94q9 -16 22 -45q21 10 37 21q1 0 5 3q-45 82 -112 194q-18 28 -32 46q-12 -9 -26 -17q-6 -3 -12 -5zM961 -65q-30 33 -109 127q-15 19 -41 47q24 73 37 195
q6 66 6 124l3 181q0 54 16 86h-16q-15 0 -46 5q3 -15 3 -31l4 -86q-3 -78 -3 -162q0 -42 -5 -93q-3 -51 -8 -85q-13 -87 -47 -162q-48 -100 -139 -169q-27 -18 -82 -41q42 -21 55 -37q133 105 205 230q105 -106 138 -189q15 25 41 44q-6 9 -12 16v0z" />
  </g>

</svg>
