<?xml version="1.0" standalone="no"?>
<!DOCTYPE svg PUBLIC "-//W3C//DTD SVG 1.1//EN" "http://www.w3.org/Graphics/SVG/1.1/DTD/svg11.dtd" >
<svg xmlns="http://www.w3.org/2000/svg" xmlns:xlink="http://www.w3.org/1999/xlink" version="1.1" viewBox="-10 0 1034 1024">
  <g transform="matrix(1 0 0 -1 0 820)">
   <path fill="currentColor"
d="M214 241q12 4 25 11v-325q0 -30 -15 -39q-13 -9 -40 -9q-30 0 -69 11q15 -30 18 -57l90 10q22 6 35 16q18 18 19 68v341l41 18l89 36q-3 27 -5 53q-33 -22 -64 -38q-39 -15 -45 -21q-9 -3 -16 -7v202q118 0 132 -3q3 0 9 -2v46q-51 -4 -87 -5h-54l1 168q0 12 5 31
q1 9 8 17h-57l5 -107v-109h-106q-30 0 -66 5v-46q19 4 51 5h121v-215q-37 -19 -96 -43q-55 -21 -91 -29q13 -24 22 -53q18 12 37 22l39 19q31 15 64 29zM738 293l189 -1q4 0 42 -4v46q-33 -1 -67 -5l-432 1q-12 3 -35 4v-46q19 4 49 5h216v-350q0 -39 -13 -50
q-15 -15 -55 -15q-30 0 -68 9q12 -18 22 -55q18 1 36 1q67 3 91 23q24 19 25 71v366zM462 600q1 -30 5 -60l-4 -101q-1 -3 -1 -8h48q-1 4 -1 8q-1 3 -4 58v62h395l-3 -100q-1 -3 -2 -16h49q0 6 -1 9q-3 15 -4 30l-1 58l6 60q-33 -1 -67 -5l-366 1q-19 3 -49 4zM735 617
q10 13 21 21q-58 63 -132 134q-9 -15 -31 -31q3 -1 67 -66q39 -39 50 -52l14 -20q4 7 11 14v0z" />
  </g>

</svg>
