<?xml version="1.0" standalone="no"?>
<!DOCTYPE svg PUBLIC "-//W3C//DTD SVG 1.1//EN" "http://www.w3.org/Graphics/SVG/1.1/DTD/svg11.dtd" >
<svg xmlns="http://www.w3.org/2000/svg" xmlns:xlink="http://www.w3.org/1999/xlink" version="1.1" viewBox="-10 0 1010 1000">
   <path fill="currentColor"
d="M171 20q3 0 10 1q99 9 95 17q1 6 -7 20q-11 20 -11 36v127q13 -1 37 -2q35 -2 70 -2v77q-72 -4 -109 -4v155l99 -48l4 76q-16 7 -42 18q-62 25 -59 25v151q1 64 2 123q4 86 -157 95q-5 -52 -38 -103q107 25 114 -36v-196l-110 56l-23 -86q38 -4 135 -45v-183h-22
q-63 0 -101 4v-79q50 4 101 4h24q0 -141 -12 -201zM591 24q50 104 113 278l-87 34q-32 -143 -103 -288zM770 34q114 6 111 20q1 6 -9 23q-8 14 -9 19q-7 41 -14 174q-11 223 -32 322q104 123 155 198l-73 62q-51 -113 -111 -187q-68 125 -258 228q-29 -35 -86 -63
q290 -91 314 -340q12 -109 15 -209q2 -103 -3 -247zM409 115q97 7 97 20q0 6 -7 15q-7 8 -7 13q-1 249 -4 468q81 -78 139 -158l42 79q-122 104 -232 238l-60 -67q33 -23 34 -115q1 -56 2 -119v-129q-1 -138 -4 -245z" />
</svg>
