<?xml version="1.0" standalone="no"?>
<!DOCTYPE svg PUBLIC "-//W3C//DTD SVG 1.1//EN" "http://www.w3.org/Graphics/SVG/1.1/DTD/svg11.dtd" >
<svg xmlns="http://www.w3.org/2000/svg" xmlns:xlink="http://www.w3.org/1999/xlink" version="1.1" viewBox="-10 0 1034 1024">
  <g transform="matrix(1 0 0 -1 0 820)">
   <path fill="currentColor"
d="M209 -71q0 -18 -4 -29q-6 -6 -26 -11q-18 -3 -47 -4q-16 0 -50 7q13 -25 20 -52q19 3 40 5q48 6 59 9q30 6 37 19q9 18 9 42v306q79 45 123 62q-3 28 -5 57q-27 -21 -50 -38q-24 -15 -68 -39v225l111 -1l30 -4v47q-9 -3 -56 -6h-85q0 196 3 205q1 15 10 29h-57
q3 -7 4 -13q0 -21 2 -50v-171h-95q-24 0 -45 3q-1 0 -13 3v-47q46 4 96 5h57v-246q-114 -63 -170 -79q24 -22 36 -45q87 57 105 65q12 7 29 16v-270zM508 399q-30 -145 -89 -226q-67 -90 -145 -117q21 -9 46 -25q4 -3 9 -6q72 63 109 113q39 54 70 124q10 27 20 63
q10 42 26 115q-25 -1 -51 -5q-114 0 -130 2q-9 0 -17 3v-47q21 6 59 6h93zM945 -79q-19 -1 -39 -5l-582 1q-3 1 -5 2q-4 0 -13 2v-47q6 0 13 2l45 4q549 0 562 -3q9 0 19 -3v47zM744 569q24 21 45 44q33 36 80 90q-28 -1 -58 -5l-370 1q-10 1 -21 1q-1 0 -14 3v-46
q22 4 59 5h321q-42 -45 -89 -90q-42 -36 -79 -57q1 -27 5 -56l-1 -391q-4 -21 -15 -32q-12 -6 -44 -9q-15 0 -29 -1q-6 0 -34 4q13 -21 21 -49q36 3 66 8q42 6 59 25q15 18 16 63v314q93 -175 211 -279l52 -43q9 -9 15 -14q21 22 54 39q-63 21 -127 80q-82 78 -134 167
q18 10 53 36q69 46 85 53q25 15 54 19q-24 27 -43 54q-36 -42 -165 -132q-39 60 -52 125q13 12 32 30q22 22 47 43v0z" />
  </g>

</svg>
