<?xml version="1.0" standalone="no"?>
<!DOCTYPE svg PUBLIC "-//W3C//DTD SVG 1.1//EN" "http://www.w3.org/Graphics/SVG/1.1/DTD/svg11.dtd" >
<svg xmlns="http://www.w3.org/2000/svg" xmlns:xlink="http://www.w3.org/1999/xlink" version="1.1" viewBox="-10 0 1010 1000">
   <path fill="currentColor"
d="M603 -8q88 2 101 12q0 2 -4 9q-12 21 -12 49v101h106q101 -1 144 -10v85q-40 -7 -144 -7h-106v129h74q114 0 141 -12v87q-13 -8 -141 -8h-189q-121 -1 -156 8v-83q56 8 150 8h42v-129h-63q-131 0 -159 9v-85q57 8 153 8h69v-93q0 -41 -5 -67q-1 -7 -1 -11zM190 8
q94 2 108 12q0 2 -5 8q-19 29 -19 58v135q63 0 99 -6v81q-45 -6 -99 -6v167q74 -34 113 -58l4 86l-117 49v272q5 76 -159 95q-4 -65 -38 -111q115 30 121 -28v-200q-71 31 -115 54q-9 5 -10 5l-29 -101h8q38 1 146 -39v-191q-105 0 -146 8v-85q53 8 146 8v-123q0 -61 -7 -87
q-1 -2 -1 -3zM425 516q50 9 162 10h121q150 0 173 -6q-10 19 -10 147v77q0 125 10 155h-99q8 -33 8 -87h-280q-3 53 10 85h-97q8 -50 8 -153v-87q0 -99 -6 -141zM510 598v142h282v-142h-282z" />
</svg>
