<?xml version="1.0" standalone="no"?>
<!DOCTYPE svg PUBLIC "-//W3C//DTD SVG 1.1//EN" "http://www.w3.org/Graphics/SVG/1.1/DTD/svg11.dtd" >
<svg xmlns="http://www.w3.org/2000/svg" xmlns:xlink="http://www.w3.org/1999/xlink" version="1.1" viewBox="-10 0 1034 1024">
  <g transform="matrix(1 0 0 -1 0 820)">
   <path fill="currentColor"
d="M72 159q46 33 84 52l78 37v-320q0 -46 -47 -47q-36 0 -75 9q18 -27 24 -55q58 3 84 8q52 12 53 81v344l138 65q-3 27 -4 54q-22 -18 -52 -35q-72 -36 -82 -42v214q102 0 112 -3q3 0 10 -2v47q-7 -1 -64 -6h-58v141q0 31 12 68h-56q1 -33 5 -66v-143h-107q-21 0 -49 3
q-3 0 -17 3v-47q12 1 25 3l76 2h72v-232q-123 -58 -183 -74q9 -18 16 -40q1 -9 5 -19zM667 490l-202 1q-3 1 -6 1q-9 0 -41 4v-47q4 1 9 1q7 3 36 4l204 1v-191l-156 1q-19 3 -50 4q1 -31 5 -65l-2 -357q-3 -6 -3 -15h48q-3 24 -4 49l-1 40h353q-1 -31 -3 -64q0 -6 -2 -15
h48q0 4 -1 8q-3 7 -4 33l1 340q0 18 4 46q-33 -1 -67 -5h-128v191l218 -1q21 -1 45 -5v47l-68 -6h-195v199q46 7 89 19q31 9 63 16q6 0 11 3q21 3 51 4q-34 34 -40 41q-4 6 -7 10q-25 -12 -45 -20q-27 -9 -63 -18t-72 -17q-103 -21 -206 -21q-27 0 -66 4q7 -9 13 -20l16 -32
q18 0 39 4q76 9 109 10q33 3 70 10v-192zM504 -44v272h353v-272h-353z" />
  </g>

</svg>
