<?xml version="1.0" standalone="no"?>
<!DOCTYPE svg PUBLIC "-//W3C//DTD SVG 1.1//EN" "http://www.w3.org/Graphics/SVG/1.1/DTD/svg11.dtd" >
<svg xmlns="http://www.w3.org/2000/svg" xmlns:xlink="http://www.w3.org/1999/xlink" version="1.1" viewBox="-10 0 1010 1000">
   <path fill="currentColor"
d="M522 -8q73 -2 99 8q1 2 -4 8q-13 16 -14 32q-2 28 0 85h18q76 0 111 -4v70q-38 -4 -111 -4h-18v113h52q118 -132 160 -248q93 46 102 61q-1 3 -18 14q-29 17 -38 30q-5 7 -16 20q-38 45 -99 123h101q70 0 111 -6v73q-34 -4 -109 -4h-155q-13 15 -59 63q-25 26 -40 41h222
q69 -1 108 -4v69q-18 -2 -42 -3q-12 -1 -27 -1h-39h-140q-36 84 -30 91h145l91 -6q-13 49 -25 136q-10 75 -19 91q-41 69 -202 65q-4 -53 -40 -105q107 27 151 2q28 -17 38 -119h-139q-24 0 -85 12q-9 -27 -34 -70q27 4 45 -21q11 -14 28 -76h-69q-125 104 -185 141
q-25 -45 -69 -65q153 -60 325 -241h-117q-51 0 -71 1q-24 1 -38 3v-71q35 4 109 4h40v-113q-58 0 -80 1q-27 1 -45 3v-70q31 4 127 4q0 -109 -6 -133zM177 4q93 4 109 16q1 2 -5 10q-16 22 -17 44v137q67 0 95 -4v77q-46 -3 -97 -4v149q46 -23 99 -62q-2 35 10 88
q-27 9 -109 47q0 178 2 304v6q-8 66 -153 79q-2 -48 -38 -97q92 20 108 -8q5 -11 4 -44v-13v-187q-26 13 -82 51q-20 14 -28 19q-17 -75 -33 -106q54 -4 143 -45v-179h-52q-54 0 -81 4v-77q29 4 81 4h50v-137q0 -53 -6 -72z" />
</svg>
