<?xml version="1.0" standalone="no"?>
<!DOCTYPE svg PUBLIC "-//W3C//DTD SVG 1.1//EN" "http://www.w3.org/Graphics/SVG/1.1/DTD/svg11.dtd" >
<svg xmlns="http://www.w3.org/2000/svg" xmlns:xlink="http://www.w3.org/1999/xlink" version="1.1" viewBox="-10 0 1010 1000">
   <path fill="currentColor"
d="M165 -2q72 3 109 16q0 2 -5 7q-21 27 -21 61v137q79 0 127 -6v81q-35 -11 -127 -8v161q26 -10 81 -37q9 -5 14 -7l2 87q-17 5 -57 20q-25 9 -40 14v296q8 65 -163 77q-6 -54 -43 -105q121 26 129 -40v-206q-73 27 -111 55q-6 5 -8 5l-20 -100q3 -1 10 -2q42 -5 129 -35
v-183q-90 -4 -131 8v-83q35 8 131 8v-135q1 -69 -6 -86zM581 -2q115 13 113 20q1 4 -7 9q-9 6 -10 11q95 230 291 282q-55 48 -73 91q-26 -13 -87 -65v63q-36 -9 -139 -6v141h65q99 0 137 -12v87q-22 -8 -133 -7h-69v172h111q115 -1 157 -10v89q-54 -7 -155 -7h-304
q-118 0 -155 9v-91q61 10 165 10h105v-172h-57q-101 -1 -135 9v-89q42 12 141 12h51v-141q-100 0 -127 6v-47q-7 8 -5 5q-47 49 -60 62q-32 -34 -89 -52q214 -130 269 -379zM637 100q-55 120 -143 232q7 4 87 4h100q86 0 115 -4q-113 -111 -159 -232z" />
</svg>
