<?xml version="1.0" standalone="no"?>
<!DOCTYPE svg PUBLIC "-//W3C//DTD SVG 1.1//EN" "http://www.w3.org/Graphics/SVG/1.1/DTD/svg11.dtd" >
<svg xmlns="http://www.w3.org/2000/svg" xmlns:xlink="http://www.w3.org/1999/xlink" version="1.1" viewBox="-10 0 1034 1024">
  <g transform="matrix(1 0 0 -1 0 820)">
   <path fill="currentColor"
d="M958 568q-46 0 -109 13q-96 16 -188 58q-75 34 -136 81l30 15q-25 16 -47 35q-37 -45 -114 -103q-81 -57 -177 -99q-46 -18 -85 -28q-34 -7 -87 -11q18 -18 30 -39q3 -6 8 -12q61 21 108 40q42 16 83 37q45 22 83 45q39 25 142 98q42 -33 104 -66q54 -30 109 -51
q51 -19 95 -33l134 -34q9 28 34 54h-17zM721 561q-9 -3 -56 -6l-347 1q-13 3 -27 5v-47q21 4 58 5l345 -1q18 0 27 -4v47zM500 36l-411 1q-12 3 -24 5v-47q57 6 84 6h351v-103q0 -24 -14 -28q-16 -4 -34 -5q-10 0 -18 1q-15 0 -41 4q16 -30 19 -49q39 3 63 6q21 3 33 7
q30 12 30 54v113l356 -1l40 -4l2 -1v47q-9 -3 -55 -6h-343v68l276 -1q13 -1 29 -4v47q-9 -3 -56 -6h-249v77q211 16 256 17q21 0 57 -6q-21 27 -39 60q-61 -15 -122 -23q-52 -6 -114 -10l-108 -6l-122 -4l-123 1q-10 1 -16 2q-42 3 -64 8q18 -30 29 -50l328 10v-76l-285 1
q-24 3 -29 5v-47q19 4 49 5h265v-68zM249 350l-7 -57q45 4 84 5l389 -1l40 -4q-4 48 -5 94q0 34 5 80q-27 -1 -55 -5l-417 1q-15 3 -41 4q6 -66 7 -81v-36zM712 426v-92h-427v92h427z" />
  </g>

</svg>
