<?xml version="1.0" standalone="no"?>
<!DOCTYPE svg PUBLIC "-//W3C//DTD SVG 1.1//EN" "http://www.w3.org/Graphics/SVG/1.1/DTD/svg11.dtd" >
<svg xmlns="http://www.w3.org/2000/svg" xmlns:xlink="http://www.w3.org/1999/xlink" version="1.1" viewBox="-10 0 1034 1024">
  <g transform="matrix(1 0 0 -1 0 820)">
   <path fill="currentColor"
d="M231 -69q0 -25 -14 -33q-12 -9 -38 -9q-19 0 -70 10q18 -33 23 -55q42 3 59 4q15 1 17 2q60 9 61 75v319l116 50l-3 52q-40 -21 -58 -34q-18 -6 -37 -17q-10 -4 -18 -10v226q72 0 120 -3q3 0 13 -2v46l-111 -5h-22l1 166q0 12 5 31q1 9 7 17h-56q1 -33 5 -67v-147
q-114 0 -144 2q-3 1 -24 3v-46q7 1 62 5h106v-239q-105 -51 -177 -63q12 -24 22 -55q21 15 51 28l104 47v-298zM662 434h-196q-24 0 -49 3q-6 0 -18 2v-46q24 4 59 5h333v-144h-302q-19 0 -47 3q-6 0 -18 2v-46q19 4 51 5h316v-260q0 -13 -3 -29q-3 -15 -18 -21
q-24 -7 -48 -8q-21 0 -78 11q18 -27 23 -59l90 7q39 6 54 22q18 16 18 69v268q70 0 96 -2l28 -3v46q-55 -4 -90 -5h-34v144q84 0 132 -3q3 0 13 -2v46q-45 -4 -66 -5h-208v147l173 -1q6 0 43 -4v47q-10 -3 -17 -3q-27 -1 -50 -3h-149q0 117 3 124q3 15 11 28h-57
q1 -33 5 -66v-86h-141q-24 0 -48 3q-3 0 -17 3v-47q4 1 9 1q7 3 36 4h161v-147zM498 161q-9 -7 -16 -15q-3 -3 -5 -7q6 -6 10 -9q48 -39 76 -69q24 -24 55 -66q9 15 33 39q-24 28 -74 77q-51 48 -69 61q-6 -4 -10 -11v0z" />
  </g>

</svg>
