<?xml version="1.0" standalone="no"?>
<!DOCTYPE svg PUBLIC "-//W3C//DTD SVG 1.1//EN" "http://www.w3.org/Graphics/SVG/1.1/DTD/svg11.dtd" >
<svg xmlns="http://www.w3.org/2000/svg" xmlns:xlink="http://www.w3.org/1999/xlink" version="1.1" viewBox="-10 0 1010 1000">
   <path fill="currentColor"
d="M294 330v65h394v-65h-394zM812 483q4 5 12 16q42 53 31 55q-3 2 -15 0q-32 -4 -76 -4h-41q-98 -2 -185 0v56h129q104 -1 150 -6v65q-21 -2 -56 -3q-16 -1 -38 -1h-54h-131v50h238q99 -2 153 -8v69q-52 -6 -149 -6h-242v101q-7 38 -139 54q-5 -44 -44 -89q104 10 111 -12
v-54h-260q-94 0 -146 6v-69q76 7 146 8h260v-50h-151q-84 1 -138 6v-69q41 5 138 8h151v-54q-11 0 -30 1q-71 4 -285 7l-42 -73q122 13 291 12q160 -1 412 -16zM494 70q-53 48 -119 97h222q-72 -57 -103 -97zM468 -23q49 12 99 35q-22 10 -27 20q163 164 418 197
q-35 34 -55 85q-143 -44 -254 -117v34q-18 -1 -37 -2h-45h-144q-52 0 -90 4v-32q-12 8 -42 26q-38 24 -61 39q45 8 85 8h344q53 -1 101 -4q-4 33 -4 68v47q0 33 2 70q-36 -4 -75 -4h-383q-46 0 -84 4q6 -42 6 -72v-47q0 -36 -6 -60q-60 35 -109 60q-53 -65 -71 -70
q272 -88 432 -289z" />
</svg>
