<?xml version="1.0" standalone="no"?>
<!DOCTYPE svg PUBLIC "-//W3C//DTD SVG 1.1//EN" "http://www.w3.org/Graphics/SVG/1.1/DTD/svg11.dtd" >
<svg xmlns="http://www.w3.org/2000/svg" xmlns:xlink="http://www.w3.org/1999/xlink" version="1.1" viewBox="-10 0 1010 1000">
   <path fill="currentColor"
d="M595 -8q100 3 101 16q1 8 -6 18q-9 13 -11 26q-3 16 -2 57v36h47q76 -2 147 -8v84q-66 -6 -145 -8h-47v123h129q108 0 142 -6v81q-55 -6 -138 -8h-18v107h21q80 -1 127 -8v84q-54 -6 -129 -8h-19v258q-20 58 -149 61q-7 -55 -42 -103q76 18 103 6q6 -9 6 -222h-172
q-76 1 -149 8v-82q110 5 149 6h174v-107h-180q-92 2 -151 8v-83q6 0 24 2q95 6 125 6h67v-123h-36q-66 1 -144 8v-84q68 6 143 8h37q0 -91 -4 -153zM188 -6q103 4 108 16q0 5 -5 15q-10 19 -11 35q-2 26 -3 77q0 48 1 88h18q47 0 89 -8v81q-41 -7 -89 -8h-20v161l93 -48
l6 76l-97 45q0 186 -1 239q-1 69 -3 81q-27 47 -141 59q-6 -54 -42 -99q71 13 94 -6q13 -13 13 -213v-29l-129 61l-27 -73l154 -63v-189h-17q-61 1 -131 8v-83q46 7 127 8h23q-1 -162 -10 -231zM530 612q14 24 53 115q4 9 6 13l-79 26q-23 -74 -60 -131z" />
</svg>
