<?xml version="1.0" standalone="no"?>
<!DOCTYPE svg PUBLIC "-//W3C//DTD SVG 1.1//EN" "http://www.w3.org/Graphics/SVG/1.1/DTD/svg11.dtd" >
<svg xmlns="http://www.w3.org/2000/svg" xmlns:xlink="http://www.w3.org/1999/xlink" version="1.1" viewBox="-10 0 1034 1024">
  <g transform="matrix(1 0 0 -1 0 820)">
   <path fill="currentColor"
d="M218 -67q0 -24 -5 -33q-6 -7 -24 -10q-13 -1 -30 -2q-25 0 -48 6q12 -25 18 -55q60 4 85 10q21 6 30 17q12 15 12 49v332q21 12 46 24l44 22l18 9q0 25 7 53q-24 -15 -47 -29q-24 -15 -68 -36v221l97 -1q21 0 30 -4v46q-30 -1 -60 -5h-67q0 174 3 184q1 15 10 29h-56
q4 -99 5 -102v-111h-101q-27 0 -52 4q-3 1 -6 1v-46q19 4 58 5h101v-242q-58 -30 -100 -48q-34 -15 -71 -26q18 -28 28 -49l143 80v-293zM757 34q28 57 46 103q15 48 33 127l94 -1l37 -4v46l-96 -5h-245q6 21 33 84q1 6 5 11l12 33q15 45 45 68q-24 6 -38 11q-12 3 -26 11
q-13 -58 -28 -105q-15 -46 -44 -113h-126q-36 0 -52 4q-4 1 -7 1v-46q21 4 59 5h109q-33 -78 -75 -153q81 -28 200 -89q-75 -66 -186 -106q-84 -25 -149 -28q24 -27 39 -47q34 9 74 22q42 13 90 33q91 40 170 107q73 -45 124 -79q45 -30 82 -65q3 6 8 11q1 1 3 5q9 15 23 28
q-46 31 -94 61l-82 48zM794 264q-24 -132 -73 -212l-169 79l61 133h181zM433 502l-4 -55q0 -3 -1 -6h47q-4 52 -5 103v20h433v-48q0 -37 -6 -62h49q-6 24 -6 70q0 39 2 47l4 34q-18 -1 -27 -2q-19 -3 -28 -3h-407q-7 0 -29 3q-12 0 -27 2l5 -86v-17zM587 742
q66 -42 118 -116q21 21 36 35q-58 58 -115 111q-21 -18 -39 -30v0z" />
  </g>

</svg>
