<?xml version="1.0" standalone="no"?>
<!DOCTYPE svg PUBLIC "-//W3C//DTD SVG 1.1//EN" "http://www.w3.org/Graphics/SVG/1.1/DTD/svg11.dtd" >
<svg xmlns="http://www.w3.org/2000/svg" xmlns:xlink="http://www.w3.org/1999/xlink" version="1.1" viewBox="-10 0 1034 1024">
  <g transform="matrix(1 0 0 -1 0 820)">
   <path fill="currentColor"
d="M199 502v-264q-100 -36 -156 -39q15 -30 26 -54q48 21 99 41q3 1 7 2l24 9v-260q0 -39 -23 -47q-15 -3 -42 -4q-18 0 -48 4q15 -33 19 -47q0 -4 2 -8q96 9 117 31q15 15 15 55v287q54 18 101 28q0 22 7 54q-51 -21 -108 -39v251l97 -3q3 0 11 -3v47q-31 -1 -63 -5h-45
q0 180 3 186q1 13 11 32h-59q4 -42 5 -72v-146q-111 0 -127 2q-1 0 -17 3v-47q15 4 35 5zM314 334l26 -25q81 51 143 120q51 58 103 155h82q45 -99 100 -157q52 -55 164 -126q12 18 40 45q-174 55 -258 238l172 -1q21 0 36 -5v47q-31 -1 -63 -5h-255l17 54q4 13 9 28
q10 33 37 50q-7 0 -31 8q-7 3 -15 4q-12 3 -23 7q-6 -67 -39 -151l-184 3q-4 1 -9 2v-47q15 4 38 5l137 1q-39 -79 -101 -144q-69 -67 -140 -93q6 -6 14 -13zM557 212l318 -1q21 0 37 -4v47q-22 -1 -45 -5q-489 0 -497 3q-3 1 -7 2v-47q49 4 73 5h82q-3 -24 -29 -111
q-1 -1 -2 -6q-3 -12 -12 -32l30 3q18 3 26 3h258q-4 -33 -13 -72q-6 -36 -13 -57q-7 -18 -16 -27q-21 -18 -72 -25q-34 -3 -62 -4q-33 0 -62 4q9 -21 18 -50q30 0 134 13q16 4 35 10q54 22 70 106q6 42 15 73l16 69q-28 -1 -58 -5h-250zM484 357q42 6 70 5l167 -1q7 0 20 -2
q1 0 16 -2v47q-21 -1 -44 -5l-227 4q-1 1 -2 1v-47z" />
  </g>

</svg>
