<?xml version="1.0" standalone="no"?>
<!DOCTYPE svg PUBLIC "-//W3C//DTD SVG 1.1//EN" "http://www.w3.org/Graphics/SVG/1.1/DTD/svg11.dtd" >
<svg xmlns="http://www.w3.org/2000/svg" xmlns:xlink="http://www.w3.org/1999/xlink" version="1.1" viewBox="-10 0 1010 1000">
   <path fill="currentColor"
d="M587 268q99 35 98 48q-1 7 -10 14q-15 12 -24 28q-16 26 -34 63q-8 16 -10 18h222q69 0 119 -6v77q-48 -7 -121 -8h-19q-24 106 -84 197q105 54 201 115l-64 73q-80 -75 -180 -133q-102 101 -306 149q-14 -44 -56 -83q168 -15 290 -99q-76 -37 -194 -76q51 -71 91 -145
h-16q-35 0 -119 8v-79q87 8 121 8h40q33 -69 55 -169zM183 6q93 4 97 16q0 4 -5 12q-11 16 -11 32v151h14q14 0 46 -2q25 -2 33 -2v79q-26 -3 -77 -4h-16v165l91 -38v79q-26 8 -91 36v298q-1 56 -139 71q-2 -54 -38 -99q94 17 103 -14v-226q-70 38 -132 67l-18 -89l150 -57
v-193h-17q-57 0 -127 4v-81q83 6 125 6h19v-147q0 -15 -6 -59q0 2 -1 -5zM381 139q49 7 97 8h347q39 0 98 -6q-3 43 -4 82v17q0 28 5 78q1 8 1 12h-90q7 -37 8 -111h-381q0 88 8 113h-93q9 -29 10 -90v-19q0 -29 -6 -84zM730 502h-151l-57 106q65 25 137 61q51 -79 71 -167z
M659 -4q15 23 39 125l-85 14q-12 -71 -38 -125z" />
</svg>
