<?xml version="1.0" standalone="no"?>
<!DOCTYPE svg PUBLIC "-//W3C//DTD SVG 1.1//EN" "http://www.w3.org/Graphics/SVG/1.1/DTD/svg11.dtd" >
<svg xmlns="http://www.w3.org/2000/svg" xmlns:xlink="http://www.w3.org/1999/xlink" version="1.1" viewBox="-10 0 1010 1000">
   <path fill="currentColor"
d="M657 -6q24 52 35 108l-81 17q-10 -51 -42 -109zM163 2q99 6 99 14q0 1 -3 9q-15 38 -15 79v115q51 -1 89 -4v77q-23 -5 -89 -4v157q42 -24 85 -48q1 3 1 16q0 42 7 66q-38 13 -93 41v302q1 37 -26 51q-24 15 -117 28q-1 -49 -22 -84q-4 -7 -4 -9q94 16 94 -30v-224
q-63 30 -115 63l-6 -18q-6 -20 -22 -71q63 -21 143 -51v-191q-67 0 -125 8v-85q48 8 125 8v-115v-10q3 -59 -6 -90zM357 119q72 6 109 6h367q36 0 102 -6q-2 12 -3 32q-1 16 -1 58q0 53 4 87h-84q4 -37 4 -103h-418q-3 37 3 107h-83q4 -39 4 -89q0 -54 -4 -92zM534 252
l79 50q-1 3 -14 11q-64 42 -155 130l-71 -46q101 -55 161 -145zM716 254q102 67 177 129l-62 62q-72 -77 -170 -145zM845 471v97q-59 -13 -180 67q-129 81 -165 134q-34 55 36 57h212q53 1 74 -24q20 -21 31 -93q50 49 91 57q-26 81 -56 105q-29 27 -94 26h-254
q-185 -5 -137 -121q89 -126 289 -234h-218q-54 0 -101 4v-75q13 1 36 2q50 2 67 2h280q20 0 74 -3q10 -1 15 -1z" />
</svg>
