<?xml version="1.0" standalone="no"?>
<!DOCTYPE svg PUBLIC "-//W3C//DTD SVG 1.1//EN" "http://www.w3.org/Graphics/SVG/1.1/DTD/svg11.dtd" >
<svg xmlns="http://www.w3.org/2000/svg" xmlns:xlink="http://www.w3.org/1999/xlink" version="1.1" viewBox="-10 0 1034 1024">
  <g transform="matrix(1 0 0 -1 0 820)">
   <path fill="currentColor"
d="M73 199q1 -3 3 -7q3 -12 7 -17q3 -7 6 -16q18 9 40 22l103 48v-300q0 -33 -14 -38q-15 -3 -51 -5l-37 6q13 -28 17 -54l66 9q33 6 47 20q9 15 10 53v327q42 22 103 45q1 27 4 53q-57 -33 -107 -55v230l88 -3q6 0 9 -2v46q-30 -1 -59 -5h-38v143q0 9 2 23q1 18 11 39h-56
q1 -30 5 -62v-143h-101q-33 0 -45 3q-4 0 -14 2v-46q21 4 59 5h101v-250q-87 -40 -167 -58q3 -6 8 -13zM554 433q39 36 78 43l-22 20q-15 12 -27 28q-94 -120 -190 -156q24 -16 27 -20q3 -1 15 -16q9 7 31 24q46 37 67 57q10 10 21 20zM411 528q0 -37 -6 -62h48q-6 18 -6 62
v60h439q0 -72 -2 -96l-3 -17h48q-7 87 -4 114l4 40q-27 -1 -54 -5l-425 1q-1 0 -45 4q6 -57 6 -86v-15zM828 259q30 24 61 46q-10 0 -66 -5l-373 1l-22 3q-3 0 -7 1v-46q18 4 58 5h295l-153 -122l-69 -59q-103 -96 -104 -153q0 -24 17 -39q21 -16 75 -24q63 -7 127 -8l68 2
q54 1 81 6q79 12 110 65q18 33 29 88q-19 3 -51 17q0 -13 -4 -29q-3 -33 -7 -44q-9 -27 -29 -40q-25 -15 -83 -22q-66 -4 -123 -5q-6 1 -14 1q-33 0 -87 5q-19 3 -34 6q-33 9 -33 28q0 6 9 25q9 15 23 33q37 46 137 132l136 108zM678 644q7 7 15 14q-1 -3 8 7l1 1
q-31 40 -86 103q-24 -24 -33 -28q36 -36 53 -57q18 -24 32 -52q4 6 10 12zM834 449l-83 72q-15 -18 -34 -34q27 -15 43 -30q16 -12 52 -44l60 -58q15 -15 36 -45q19 27 36 37q-13 12 -20 19q-15 16 -90 83v0z" />
  </g>

</svg>
