<?xml version="1.0" standalone="no"?>
<!DOCTYPE svg PUBLIC "-//W3C//DTD SVG 1.1//EN" "http://www.w3.org/Graphics/SVG/1.1/DTD/svg11.dtd" >
<svg xmlns="http://www.w3.org/2000/svg" xmlns:xlink="http://www.w3.org/1999/xlink" version="1.1" viewBox="-10 0 1034 1024">
  <g transform="matrix(1 0 0 -1 0 820)">
   <path fill="currentColor"
d="M227 -60q0 -30 -11 -40q-12 -9 -35 -9q-30 0 -66 8q13 -18 23 -58q12 1 21 2q33 3 43 5q33 7 52 28q10 15 11 64v310l114 54q3 1 6 4q4 1 8 4q-4 27 -8 52q-15 -13 -39 -28q-30 -16 -81 -42v203q85 0 96 -3q3 0 11 -3v47q-66 -6 -89 -6h-18l1 173q1 15 4 29q3 6 8 19h-56
q1 -33 5 -68v-153l-139 3q-9 0 -21 3v-47q19 4 35 5l125 1v-222q-7 0 -58 -25q-19 -9 -38 -20q-9 -3 -18 -7l-66 -22q18 -27 28 -52q19 16 63 39q64 33 89 42v-290zM905 229q21 0 67 -5v46q-45 -4 -67 -5h-238q3 33 4 55l1 248l206 -1q24 0 42 -5v47q-33 -1 -67 -5h-181
l2 119q0 30 11 47q-33 1 -61 3q3 -22 5 -62l4 -107h-163q-24 0 -48 3q-6 0 -18 2v-47q3 0 13 2q1 1 5 1q21 3 20 2l191 1l-4 -275l-3 -28l-221 1q-15 3 -33 4v-46q4 1 9 1q1 0 56 4h184q-48 -196 -200 -300q-31 -21 -58 -36q-21 -9 -53 -18q33 -12 52 -41q60 39 103 73
q33 27 75 73q79 88 118 232q76 -223 289 -364q7 12 16 20l12 9q9 4 21 14q-72 19 -162 108q-96 93 -143 230h214zM525 315q21 21 39 34q-19 30 -52 73l-58 76q-12 -12 -37 -31q43 -33 96 -129q6 -10 12 -23zM835 514q-34 -96 -96 -172q24 -13 35 -24q3 3 14 19q0 3 5 9
q9 15 19 34q9 16 21 35q12 18 23 38q10 13 18 23q4 3 10 10z" />
  </g>

</svg>
