<?xml version="1.0" standalone="no"?>
<!DOCTYPE svg PUBLIC "-//W3C//DTD SVG 1.1//EN" "http://www.w3.org/Graphics/SVG/1.1/DTD/svg11.dtd" >
<svg xmlns="http://www.w3.org/2000/svg" xmlns:xlink="http://www.w3.org/1999/xlink" version="1.1" viewBox="-10 0 1034 1024">
  <g transform="matrix(1 0 0 -1 0 820)">
   <path fill="currentColor"
d="M213 -47q0 -37 -12 -48q-12 -10 -45 -11q-28 0 -65 8q13 -30 20 -55q102 3 122 24q18 21 18 66v327q13 9 16 10q16 9 33 21l30 17q6 4 13 8q-3 27 -5 52q-22 -19 -45 -35q-10 -7 -22 -14l-20 -14v180h57q4 0 50 -3l17 -2v46q-55 -4 -90 -5h-34l1 181q3 33 10 44q0 3 2 4
h-56q1 -33 5 -67v-162h-81q-24 0 -48 3q-6 0 -18 2v-46q24 4 59 5h88v-201l-43 -25l-60 -32q-36 -15 -56 -20l7 -10q6 -6 12 -19q0 3 4 -8q6 -9 11 -21q31 27 58 48q18 15 67 41v-289zM446 318v-310q-33 -9 -51 -19q-21 -12 -54 -40q-15 -13 -26 -20q-7 -6 -22 -14
q21 -15 44 -45q12 30 40 56q39 39 66 39q18 0 44 -16q72 -48 81 -51q12 -6 60 -20q36 -7 84 -11q54 -3 190 -3l63 3q3 30 25 57q-16 -3 -30 -4q-22 -3 -43 -8l-92 -4q-78 -1 -115 0q-4 1 -7 1q-27 1 -79 13q-42 12 -69 30l-71 46l1 315l4 46q-49 -3 -81 -4l-30 1q-6 3 -13 3
v-46q3 1 8 1q7 3 36 4h37zM460 511l9 -18q15 10 41 23q-30 60 -93 168q-3 6 -7 11q-19 -15 -41 -24l39 -61q15 -27 24 -44zM833 513v179q0 10 3 33q0 18 10 36h-56l5 -104v-144h-174q-25 0 -47 3q-6 0 -19 2v-46q24 4 59 5h181v-406q0 -25 -11 -41q-16 -16 -52 -17
q-24 0 -68 9q16 -25 21 -54q34 1 46 3q49 3 72 17q30 19 30 82v407q69 0 119 -3q3 0 13 -2v46q-51 -4 -85 -5h-47zM597 385q-18 -12 -26 -19q36 -45 60 -83q21 -36 47 -85q6 6 14 10q15 12 19 13q3 1 7 3l-72 113l-38 56q-6 -3 -11 -8v0z" />
  </g>

</svg>
