<?xml version="1.0" standalone="no"?>
<!DOCTYPE svg PUBLIC "-//W3C//DTD SVG 1.1//EN" "http://www.w3.org/Graphics/SVG/1.1/DTD/svg11.dtd" >
<svg xmlns="http://www.w3.org/2000/svg" xmlns:xlink="http://www.w3.org/1999/xlink" version="1.1" viewBox="-10 0 1010 1000">
   <path fill="currentColor"
d="M238 -4q71 1 87 10q0 2 -4 9q-13 26 -13 57v34q70 -5 109 -12v71q-34 -7 -109 -8v78q55 -11 111 -28l-6 71q-53 0 -105 12v103q5 53 -131 66q-5 -50 -38 -88q69 14 105 -15v-52q-116 26 -151 44l-18 -86q39 3 169 -18v-87h-40q-100 1 -123 8v-69q35 8 119 10h44
q0 -57 -5 -99q-1 -8 -1 -11zM587 -4q7 0 22 1q83 1 81 11q1 3 -4 9q-13 17 -17 41q-3 15 -7 41q-1 8 -1 11q106 -7 174 -22q-25 99 -21 178q7 87 37 94q34 -2 40 -92q27 32 69 50q-33 113 -107 121q-59 -4 -87 -78q-13 -36 -17 -86q-3 -49 3 -112q-18 1 -55 4q-33 3 -48 4
q-7 53 -22 93l105 66l-45 59q-19 -19 -84 -69q-62 92 -159 141q-27 -38 -75 -60q124 -41 177 -117q-41 -27 -88 -42l46 -51q34 24 67 42q6 -24 12 -56q-64 3 -139 14l-6 -72q94 -1 149 -4q3 -54 0 -119zM788 439q62 62 61 79q-1 3 -16 2q-21 -2 -39 -2q-57 0 -178 7
q-44 2 -60 3v72h134q63 -1 153 -12v71q-65 -7 -156 -8h-131v62h210q104 -1 176 -10v73q-52 -6 -178 -8h-208v80q-10 58 -151 69q-8 -55 -42 -95q96 21 117 -14v-40h-230q-147 3 -185 8v-71q66 6 189 8h226v-62h-163q-123 1 -152 8v-69q25 8 154 10h161v-66q-11 1 -59 2
q-191 6 -262 12q-7 -51 -36 -81q165 14 357 6q190 -8 308 -34z" />
</svg>
