<?xml version="1.0" standalone="no"?>
<!DOCTYPE svg PUBLIC "-//W3C//DTD SVG 1.1//EN" "http://www.w3.org/Graphics/SVG/1.1/DTD/svg11.dtd" >
<svg xmlns="http://www.w3.org/2000/svg" xmlns:xlink="http://www.w3.org/1999/xlink" version="1.1" viewBox="-10 0 1034 1024">
  <g transform="matrix(1 0 0 -1 0 820)">
   <path fill="currentColor"
d="M56 170q18 -30 30 -44q22 21 44 35q28 22 85 58v-300q0 -45 -57 -45q-28 0 -62 11q13 -30 21 -57q42 3 54 4q39 4 59 21q22 19 23 63v327l85 54q-4 25 -7 50q-15 -15 -30 -27l-48 -32v198q97 0 116 -5l3 -1v47q-55 -4 -92 -5h-27l1 193q0 12 5 31q1 9 7 17h-56
q0 -15 3 -32l2 -209l-122 1q-12 3 -35 4v-47q4 1 9 2l75 4h73v-222q-61 -39 -100 -61q-30 -15 -64 -28zM464 348v-345q-39 -15 -68 -37q-30 -21 -81 -74q30 -15 50 -34q25 45 48 67q33 36 62 36q9 0 27 -9l69 -39q42 -21 81 -33q69 -21 197 -21q45 0 106 3q9 37 26 62
q-81 -21 -172 -21q-126 0 -204 38q-9 3 -103 56l1 343l4 49q-60 -4 -88 -5q-34 0 -69 4q-1 1 -3 1v-47q25 6 50 6h67zM354 646q24 -13 63 -50q49 -48 72 -78q12 21 35 39q-13 13 -27 25l-109 99q-3 -3 -17 -19q-1 0 -17 -16zM881 491q6 0 68 -5v46q-55 -4 -86 -5h-117
q1 27 2 111q0 73 3 86q1 10 7 25q-27 0 -58 4q4 -36 7 -78l1 -148h-73q-24 0 -48 3q-4 0 -18 2v-46h3q3 1 59 5h77q-4 -222 -83 -359q-42 -69 -84 -94q33 -10 51 -27q39 39 88 140q27 61 52 168q46 -66 86 -136q55 -106 69 -163q13 16 37 30q3 1 7 4q-9 21 -22 46l-57 100
q-58 99 -111 178q4 94 5 113h135z" />
  </g>

</svg>
