<?xml version="1.0" standalone="no"?>
<!DOCTYPE svg PUBLIC "-//W3C//DTD SVG 1.1//EN" "http://www.w3.org/Graphics/SVG/1.1/DTD/svg11.dtd" >
<svg xmlns="http://www.w3.org/2000/svg" xmlns:xlink="http://www.w3.org/1999/xlink" version="1.1" viewBox="-10 0 1010 1000">
   <path fill="currentColor"
d="M677 2q75 3 107 14q0 1 -3 5q-17 25 -17 59q0 51 -6 149h38q83 0 133 -8v87q-36 -10 -139 -10h-36l-6 54q88 114 187 295l-88 48q-49 -151 -115 -250q-43 172 -129 276q-28 -27 -83 -42q139 -122 157 -379q-104 -3 -141 8v-85q37 10 147 10q5 -182 -6 -231zM183 6
q90 2 103 12q0 2 -3 6q-15 23 -15 58v135q57 0 101 -8v83q-33 -9 -101 -6v145l48 -24q18 -10 27 -14l6 86q-2 0 -5 1q-41 12 -76 28v308q11 64 -157 79q3 -52 -36 -107q70 11 93 3q25 -7 24 -41v-212q-59 30 -104 57q-17 10 -19 9l-29 -102h2q31 6 150 -43v-171
q-92 -1 -130 8v-85q32 6 130 6v-96q0 -86 -9 -115zM446 52q41 57 78 155l-87 31q-17 -90 -68 -160zM355 352q27 6 91 6q52 -1 70 -4q-11 11 -10 97v250q68 134 456 61q-33 50 -35 105q-233 4 -304 -11q-64 -15 -121 -60q-28 -22 -42 -22q-30 0 -82 79q-6 9 -7 10l-61 -83
q2 -3 23 -13q48 -25 98 -54v-284q-47 -3 -76 6v-83z" />
</svg>
