<?xml version="1.0" standalone="no"?>
<!DOCTYPE svg PUBLIC "-//W3C//DTD SVG 1.1//EN" "http://www.w3.org/Graphics/SVG/1.1/DTD/svg11.dtd" >
<svg xmlns="http://www.w3.org/2000/svg" xmlns:xlink="http://www.w3.org/1999/xlink" version="1.1" viewBox="-10 0 1010 1000">
   <path fill="currentColor"
d="M825 10q68 79 66 98q-3 2 -23 -1q-30 -4 -47 -3q-89 6 -156 11q-14 78 -26 127h125q86 0 165 -9v83q-60 -9 -121 -8h-78q64 146 232 190q-36 44 -57 92q-81 -54 -127 -96q-5 10 -7 25q-1 10 -1 49v192q0 90 10 139h-93q0 -3 1 -10q6 -77 6 -131v-198q0 -48 -6 -89
q36 5 76 8q-60 -70 -103 -171h-44q-45 95 -105 157q7 1 21 2q71 5 66 14q-1 4 -7 11q-18 19 -19 44q-3 144 -37 211q-33 72 -137 156q-40 -46 -101 -63q225 -57 194 -352q-83 77 -127 102q-24 -39 -77 -66q155 -48 252 -218h-72q-42 0 -55 1q-16 0 -38 3v-75q39 5 103 5h84
q14 -60 19 -121q-55 6 -146 13q-29 2 -42 3q1 -34 -38 -85q42 7 100 8q59 0 127 -5q149 -14 243 -43zM171 -6q14 1 45 3q75 4 72 9q0 2 -7 10q-29 31 -29 68v107q53 0 117 -8v81q-59 -9 -119 -6v173l121 -52q-5 18 -5 43q-1 27 3 41q-65 18 -119 39v278q12 83 -163 89
q2 -49 -41 -109q117 29 129 -23v-209q-9 4 -36 14q-60 22 -91 40l-24 -88q40 -8 140 -36q7 -2 11 -3v-197q-60 -3 -125 6v-83q57 10 127 10v-129q0 -32 -6 -68z" />
</svg>
