<?xml version="1.0" standalone="no"?>
<!DOCTYPE svg PUBLIC "-//W3C//DTD SVG 1.1//EN" "http://www.w3.org/Graphics/SVG/1.1/DTD/svg11.dtd" >
<svg xmlns="http://www.w3.org/2000/svg" xmlns:xlink="http://www.w3.org/1999/xlink" version="1.1" viewBox="-10 0 1010 1000">
   <path fill="currentColor"
d="M534 -8q12 54 24 100h202q133 -1 175 -10v85q-65 -10 -169 -10h-133q-3 136 6 230h-85q9 -83 6 -232h-122q-1 92 1 144q2 50 7 90h-87q6 -39 8 -83t2 -151h-119q-38 1 -65 1q-50 2 -106 9v-85q-1 -1 11 1q79 9 172 9h210l-6 -18q-16 -45 -26 -68zM232 199q7 5 22 15
q58 40 56 44q-37 11 -161 126q-18 16 -28 25q-26 -34 -73 -47q106 -56 184 -163zM744 219q101 76 174 138q7 7 11 10l-70 54q-65 -91 -174 -151zM752 385q70 75 60 86q-2 2 -18 -3q-39 -11 -68 -9q-24 2 -66 5q-74 5 -118 11v73h170q93 0 149 -8v75q-25 -9 -143 -9h-176v65
h236q109 0 157 -12v83q-7 -1 -20 -4q-37 -9 -125 -7h-248v111q1 36 -32 48q-29 14 -133 21q6 -38 -46 -93q143 26 133 -18v-69h-228q-136 -3 -192 11v-79q48 8 200 8h220v-65h-194q-88 -6 -135 6v-74q42 9 135 10h194v-71q-138 4 -295 8q-2 -38 -32 -74q140 17 334 10
q186 -9 281 -36z" />
</svg>
