<?xml version="1.0" standalone="no"?>
<!DOCTYPE svg PUBLIC "-//W3C//DTD SVG 1.1//EN" "http://www.w3.org/Graphics/SVG/1.1/DTD/svg11.dtd" >
<svg xmlns="http://www.w3.org/2000/svg" xmlns:xlink="http://www.w3.org/1999/xlink" version="1.1" viewBox="-10 0 1010 1000">
   <path fill="currentColor"
d="M147 -4q99 -4 105 6q1 1 -5 10q-23 35 -23 60v103q60 0 99 -4v69q-21 -3 -99 -3v174q29 -12 82 -48q-3 36 4 84q-41 14 -84 36v291q-9 80 -147 95q0 -50 -31 -99q67 15 91 -4q11 -6 13 -53q3 -46 3 -201q-69 33 -97 52q-5 -38 -22 -83q78 -21 117 -42v-201h-10
q-46 0 -62 1q-21 1 -31 3v-69q12 3 31 3q15 1 62 1h10v-113q0 -43 -6 -68zM685 62q17 4 73 4h113q55 0 81 -4q-89 350 -81 337q1 4 14 29q79 151 67 221q-9 97 -139 129q-6 -48 -45 -97q87 14 101 -52q15 -74 -63 -202q-8 -13 -8 -14q0 -2 4 -17q38 -143 53 -271h-97v665
q0 61 4 111h-79q5 -13 5 -113v-641q0 -65 -3 -85zM327 64q25 4 84 4h152q53 0 78 -4q-8 25 -8 63l-20 647q-20 60 -135 74q-5 -58 -34 -92q81 13 100 -35l4 -169h-92q-23 158 -150 317q-30 -29 -78 -53q130 -107 163 -264q-60 -1 -72 4v-71q21 3 80 3q10 -75 10 -138
q-56 0 -80 6v-70q17 5 80 4q1 -18 2 -53v-42v-68q-41 0 -56 1q-18 1 -28 3v-67zM474 127l-6 163h88l6 -163h-88zM554 350h-84q-1 11 -2 42q-5 83 -6 98h88z" />
</svg>
