<?xml version="1.0" standalone="no"?>
<!DOCTYPE svg PUBLIC "-//W3C//DTD SVG 1.1//EN" "http://www.w3.org/Graphics/SVG/1.1/DTD/svg11.dtd" >
<svg xmlns="http://www.w3.org/2000/svg" xmlns:xlink="http://www.w3.org/1999/xlink" version="1.1" viewBox="-10 0 1034 1024">
  <g transform="matrix(1 0 0 -1 0 820)">
   <path fill="currentColor"
d="M212 -85q0 -19 -7 -26q-6 -3 -22 -6q-16 0 -22 -1q-10 0 -42 5q15 -30 19 -54l77 15q34 9 35 55v327q39 24 107 48l9 60q-55 -33 -116 -64v225l106 -3q6 0 9 -2v46q-9 -1 -56 -6h-59v152q0 6 2 24q1 15 11 39h-56l5 -103v-112h-75q-21 0 -46 3q-3 0 -14 3v-46q27 4 60 5
h75v-243q-22 -13 -66 -31q-39 -15 -78 -28q19 -40 24 -50q51 34 120 66v-298zM881 153l58 -4l2 -1v46q-28 -1 -58 -5h-220l8 169l207 -3q6 0 9 -2v46q-30 -1 -59 -5h-319q15 30 24 42q6 7 26 19q-31 12 -55 24q-13 -39 -23 -57q-10 -24 -30 -57q-34 -61 -86 -94
q39 -7 59 -16q13 18 27 40q15 24 39 63h143q0 -51 -3 -88l-6 -81l-244 2q-6 0 -17 3v-46q19 4 59 5h195q-21 -99 -105 -173q-82 -75 -177 -90q36 -24 52 -43q43 24 82 50q39 27 70 56q72 69 111 171q30 -51 53 -80q40 -51 64 -74q51 -51 159 -121q21 22 44 42q-40 12 -68 28
q-69 37 -114 82q-67 66 -113 152h206zM849 539q33 -27 58 -71q24 30 34 38q-51 52 -97 94l-87 77q-15 -15 -41 -29q64 -42 100 -80l-338 -29l99 115q30 36 46 52q10 10 37 22q-33 15 -59 32q-30 -58 -111 -155q-36 -37 -49 -49q-15 -12 -37 -18q13 -22 22 -48q82 16 97 16
l139 14z" />
  </g>

</svg>
