<?xml version="1.0" standalone="no"?>
<!DOCTYPE svg PUBLIC "-//W3C//DTD SVG 1.1//EN" "http://www.w3.org/Graphics/SVG/1.1/DTD/svg11.dtd" >
<svg xmlns="http://www.w3.org/2000/svg" xmlns:xlink="http://www.w3.org/1999/xlink" version="1.1" viewBox="-10 0 1010 1000">
   <path fill="currentColor"
d="M597 -6q78 20 95 36q1 2 -9 9q-21 15 -36 31q-22 23 -54 58q-47 51 -81 83l282 -2q-27 -57 -62 -101l74 -34q40 65 115 220l-90 28q-6 -27 -18 -56q-289 3 -382 26q-5 -37 -28 -81q34 -3 75 -46q64 -72 119 -171zM192 0q105 -1 106 6q1 2 -6 11q-21 24 -22 47v155
q75 0 101 -4v71q-13 -2 -36 -3q-11 -1 -25 -1h-40v159q57 -20 93 -36q-8 37 0 78q-27 6 -78 25l-15 6v304q-14 71 -157 83q1 -49 -22 -97q87 14 107 -22v-250q-46 18 -133 54q-4 -51 -21 -92q71 -7 154 -35v-177h-41q-49 0 -66 1q-21 0 -35 3v-69q14 2 36 3q11 1 25 1h40h41
v-151q0 -54 -6 -70zM506 290q69 20 85 32q0 4 -14 16q-7 5 -10 8q-5 6 -18 21l-15 18h228q82 0 105 -4v74q-27 -4 -105 -4h-77q-3 74 -6 113h140q74 0 114 -6v77q-7 0 -38 -1q-53 -3 -76 -3h-105q61 143 250 185q-47 32 -71 81q-197 -86 -232 -264q-65 181 -258 268
q-18 -43 -82 -83q209 -57 262 -187h-111q-51 0 -73 1q-26 1 -44 3v-75q26 4 117 4h129q0 -3 1 -9q7 -70 7 -104h-103q-9 15 -36 54q-10 15 -16 23q-34 -21 -71 -28q61 -62 123 -210z" />
</svg>
