<?xml version="1.0" standalone="no"?>
<!DOCTYPE svg PUBLIC "-//W3C//DTD SVG 1.1//EN" "http://www.w3.org/Graphics/SVG/1.1/DTD/svg11.dtd" >
<svg xmlns="http://www.w3.org/2000/svg" xmlns:xlink="http://www.w3.org/1999/xlink" version="1.1" viewBox="-10 0 1010 1000">
   <path fill="currentColor"
d="M681 -6q12 56 35 121h119q22 0 67 -2q28 -1 42 -1v77h-4q-61 -8 -111 -8q-52 100 -125 181q153 60 262 57q-44 41 -61 99q-161 -47 -258 -105q-99 66 -274 129q-18 -51 -60 -83q147 -15 272 -92q-43 -34 -129 -130l80 -32q30 59 107 119q64 -63 103 -145h-258
q-47 0 -105 4v-71q12 0 36 1q45 2 69 2h149q0 -1 -2 -4q-20 -52 -56 -99zM169 -4q95 1 105 10q1 1 -3 6q-12 16 -15 36q-2 10 -3 39q-1 14 -1 36v62q49 0 68 -1q23 -1 39 -3v73q-31 -4 -107 -4v137q39 -20 103 -65q1 51 14 87q-47 13 -115 60v325q-12 84 -147 99
q-3 -59 -42 -107q78 17 104 -2q8 -3 9 -44q1 -22 1 -71v-163q-7 -1 -102 74q-18 -60 -41 -97q79 -19 143 -58v-173h-30q-57 0 -74 1q-21 0 -27 3v-73q30 4 103 4h30q-3 -149 -12 -191zM716 494q100 5 107 20q0 2 -5 10q-14 19 -14 32q-2 70 2 242q2 52 6 91q1 4 1 6h-99
q8 -28 8 -97q1 -50 1 -101q0 -50 -1 -91q-1 -81 -6 -112zM601 510q0 2 -3 5q-12 10 -17 33q-2 7 -4 37q-11 117 -35 169q-37 76 -149 151q-34 -43 -81 -71q105 -37 150 -101q28 -51 38 -102t8 -139q90 5 93 18z" />
</svg>
