<?xml version="1.0" standalone="no"?>
<!DOCTYPE svg PUBLIC "-//W3C//DTD SVG 1.1//EN" "http://www.w3.org/Graphics/SVG/1.1/DTD/svg11.dtd" >
<svg xmlns="http://www.w3.org/2000/svg" xmlns:xlink="http://www.w3.org/1999/xlink" version="1.1" viewBox="-10 0 1034 1024">
  <g transform="matrix(1 0 0 -1 0 820)">
   <path fill="currentColor"
d="M201 528q-120 0 -137 3q-4 1 -10 3v-47q54 6 111 6h36v-193q-69 -46 -150 -75q18 -21 33 -48l63 45q21 15 54 33v-317q0 -25 -5 -35q-3 -6 -21 -11q-15 -3 -45 -4q-21 0 -47 4q13 -21 20 -49q55 1 88 9q48 12 48 81v345q51 33 104 58q-1 25 -2 51q-49 -36 -102 -67v173
q90 0 103 -2q15 0 28 -4v47q-18 -4 -38 -5l-93 -1v167q0 6 2 24q1 13 12 39h-57q3 -7 3 -26q0 -18 2 -37v-167zM605 -72h-252q-36 0 -46 3q-4 0 -13 2v-46q27 4 59 5l585 -1q19 0 28 -4v46q-28 -1 -58 -5h-265v201l230 -1l30 -4v46q-30 -1 -60 -5h-200v535q0 4 2 23
q1 18 13 39h-58q1 -6 4 -26l1 -571l-220 1q-15 3 -23 4v-46q30 4 59 5h184v-201zM485 558q3 16 9 28q6 22 31 41q-36 3 -67 15l-13 -80q-3 -24 -11 -50q-19 -70 -55 -152q-31 -61 -66 -88q24 -3 38 -8q7 -1 21 -8q19 37 36 71q15 36 36 90q67 -61 112 -126q16 24 34 41
l-48 47q-36 36 -84 79q1 6 4 15q4 12 9 32q6 27 14 53zM912 355l-108 98q34 123 40 133q10 30 35 44q-45 7 -71 17q-24 -172 -93 -298q-30 -49 -62 -76l36 -9q6 -1 22 -11q19 30 35 61q18 36 45 97q69 -54 121 -132q12 21 35 41z" />
  </g>

</svg>
