<?xml version="1.0" standalone="no"?>
<!DOCTYPE svg PUBLIC "-//W3C//DTD SVG 1.1//EN" "http://www.w3.org/Graphics/SVG/1.1/DTD/svg11.dtd" >
<svg xmlns="http://www.w3.org/2000/svg" xmlns:xlink="http://www.w3.org/1999/xlink" version="1.1" viewBox="-10 0 1010 1000">
   <path fill="currentColor"
d="M183 -13q98 5 107 19q0 4 -7 15q-19 33 -19 65v111q47 0 84 -6q9 -2 13 -2v87q-3 0 -8 -2q-27 -6 -89 -6v153l91 -48l12 80l-103 47v276q2 60 -25 76q-22 19 -126 35q-1 -42 -32 -93q73 6 90 -4q19 -8 17 -53v-203l-126 64l-30 -98l156 -49v-181h-31q-57 0 -101 7
q-8 1 -10 1v-89q1 0 7 1q43 7 104 7h31v-127q0 -29 -4 -68q-1 -12 -1 -15zM917 123q0 36 6 73q2 9 2 11h-98q9 -21 8 -94h-369q0 73 8 94h-89q0 -2 1 -9q7 -31 7 -73q0 -54 -8 -87q29 7 99 8h333q88 0 106 -6q-6 18 -6 83zM581 143q78 21 92 36q-1 3 -7 9q-27 25 -49 72h177
q72 0 113 -8q8 -2 10 -2v90q-2 0 -9 -1q-46 -7 -116 -7h-213q-25 43 -59 96q-20 30 -30 47h135q0 -67 -6 -98q90 0 93 6q0 1 -1 5q-11 28 -11 87h88q69 0 112 -9q6 -1 7 -1v83q-2 0 -10 -1q-46 -5 -109 -5h-88v111h125q82 0 129 -10v88q-3 0 -11 -1q-42 -5 -118 -5h-125v65
q0 64 9 111q1 7 1 8h-95q0 -2 2 -9q8 -38 8 -110v-65h-159q-48 0 -99 7q-10 1 -12 1v-90q1 0 8 1q48 9 103 9h159v-111q-121 0 -163 3q-41 3 -59 13l-30 -75q1 -2 6 -4q45 -19 115 -147h-26q-25 0 -65 6q-10 2 -12 2v-88q1 0 8 1q34 7 77 7h60q10 -16 45 -117z" />
</svg>
