<?xml version="1.0" standalone="no"?>
<!DOCTYPE svg PUBLIC "-//W3C//DTD SVG 1.1//EN" "http://www.w3.org/Graphics/SVG/1.1/DTD/svg11.dtd" >
<svg xmlns="http://www.w3.org/2000/svg" xmlns:xlink="http://www.w3.org/1999/xlink" version="1.1" viewBox="-10 0 1034 1024">
  <g transform="matrix(1 0 0 -1 0 820)">
   <path fill="currentColor"
d="M208 -44q0 -30 -6 -45q-3 -9 -15 -15q-18 -6 -57 -7q-12 0 -46 4q12 -27 17 -46q66 6 87 11q13 4 26 10q31 18 32 73v321q45 30 75 45q15 9 27 16l-3 23q-3 16 -4 32q-24 -22 -46 -39l-49 -34v204q42 0 86 -3q6 0 9 -2v47q-7 -1 -43 -6h-52v159q0 4 2 23q1 16 11 39h-57
q3 -6 4 -25q1 -18 2 -37v-159q-88 0 -112 2q-3 1 -20 4v-47q25 6 83 5h49v-230q-57 -36 -90 -55q-27 -13 -62 -27q18 -27 27 -46l69 49l56 35v-279zM577 213q-4 -219 -8 -241q-1 -7 -4 -14q-6 -12 -34 -17q-12 -3 -36 -3q-15 0 -53 4q12 -18 22 -49q90 7 118 26q24 16 27 68
l3 148l4 116q3 357 6 380q0 37 5 58q-28 -1 -58 -5l-210 1l-24 3q-3 0 -7 1v-46q21 4 59 5h51l-1 -179q-57 0 -78 2q-12 3 -16 3v-46q19 4 58 5h35q0 -25 -11 -184q-49 0 -69 3q-3 1 -13 2v-46q18 4 58 5h19q-27 -151 -103 -250q-30 -36 -68 -57q36 -12 48 -19q4 -1 9 -7
q115 138 153 333h118zM463 249l6 79q3 40 5 105h107l-3 -184h-115zM475 469l2 179h107l-2 -179h-107zM689 689q1 -27 5 -56l-1 -758q-1 -6 -2 -13q0 3 -2 -15h49q-6 39 -6 60v741h170q-42 -132 -138 -271q66 -49 97 -84q58 -66 59 -146q0 -63 -42 -88q-22 -12 -51 -13l-50 4
q12 -15 21 -40q1 -3 3 -7q66 9 90 19q69 34 69 123q0 66 -37 128q-16 27 -33 44q-25 25 -73 69q39 67 74 138q21 45 36 79q15 33 34 86q-28 -1 -57 -5l-177 1q-15 3 -38 4v0z" />
  </g>

</svg>
