<?xml version="1.0" standalone="no"?>
<!DOCTYPE svg PUBLIC "-//W3C//DTD SVG 1.1//EN" "http://www.w3.org/Graphics/SVG/1.1/DTD/svg11.dtd" >
<svg xmlns="http://www.w3.org/2000/svg" xmlns:xlink="http://www.w3.org/1999/xlink" version="1.1" viewBox="-10 0 1010 1000">
   <path fill="currentColor"
d="M548 -8q33 -1 46 -2h28q22 1 23 6q1 2 -2 7q-14 26 -14 67v119q0 56 4 87q-47 -6 -87 0q8 -55 8 -95v-119q0 -37 -6 -70zM175 14q104 45 144 68l-43 65q-71 -45 -145 -73zM762 48q80 59 184 151l-69 61q-75 -99 -175 -168zM405 70l33 9q55 12 54 23q1 4 -6 12
q-12 13 -20 27q-9 16 -36 72q-17 35 -27 55q-45 -20 -82 -28q58 -79 84 -170zM109 147q102 42 149 66l-44 61q-51 -31 -141 -65zM754 211q80 53 73 63q-1 3 -13 5q-23 6 -38 15q-157 101 -417 139q-10 -43 -47 -77q275 7 442 -145zM292 266q2 36 23 68q-101 56 -206 131
q-18 -39 -42 -80q115 -43 225 -119zM788 403q4 5 12 14q57 65 51 68q-3 4 -14 2q-27 -5 -57 0q-83 9 -224 19v60h176q53 0 103 -8v67q-27 -5 -97 -4h-182v56h261q62 0 118 -8v77q-36 -10 -110 -9h-269v77q2 55 -27 71q-29 20 -126 26q-5 -62 -36 -93q111 26 113 -20v-61
h-288q-97 0 -132 7v-73q38 6 119 6h301v-56h-186q-47 0 -67 1q-24 1 -39 3v-65q36 6 110 6h182v-54q-23 1 -83 2q-165 3 -230 6q-2 -28 -24 -71q147 16 352 3q199 -15 293 -49z" />
</svg>
