<?xml version="1.0" standalone="no"?>
<!DOCTYPE svg PUBLIC "-//W3C//DTD SVG 1.1//EN" "http://www.w3.org/Graphics/SVG/1.1/DTD/svg11.dtd" >
<svg xmlns="http://www.w3.org/2000/svg" xmlns:xlink="http://www.w3.org/1999/xlink" version="1.1" viewBox="-10 0 1010 1000">
   <path fill="currentColor"
d="M177 -2q6 0 19 1q91 5 90 15q1 2 -5 8q-14 16 -15 32q-8 83 -8 161q62 0 95 -4v75q-22 -4 -95 -4v145q53 -19 97 -48v84q-64 24 -99 41v284q-12 102 -165 105q2 -42 -31 -103q92 26 121 -6q6 -12 6 -256q-6 3 -19 8q-90 36 -110 52q-7 -59 -22 -96q85 -12 149 -39v-171
h-32q-47 0 -66 1q-23 1 -35 3v-75q20 4 103 4h30q0 -146 -8 -217zM373 52q71 8 125 8h327q60 -3 102 -8q-8 55 -8 117v659q0 42 6 63h-82q0 -6 1 -21q3 -26 3 -42h-395q1 40 8 67h-87q9 -27 8 -67v-645q0 -68 -8 -131zM452 131v467q71 -43 149 -252h-16q-55 0 -72 1
q-22 1 -29 3v-70q33 4 101 4h28q0 -92 -8 -127q81 -3 93 6q2 2 -3 9q-10 15 -12 33q-2 16 -2 79h31q42 0 60 -1q21 -1 38 -3v72q-22 -4 -98 -4h-31v103l51 -20q52 69 95 149l-69 37q-31 -85 -77 -146v182q0 72 4 87h-70q4 -31 4 -87v-208q-5 13 -10 23q-17 52 -75 151
q-9 16 -20 36q-27 -31 -62 -42v143h395v-625h-395z" />
</svg>
