<?xml version="1.0" standalone="no"?>
<!DOCTYPE svg PUBLIC "-//W3C//DTD SVG 1.1//EN" "http://www.w3.org/Graphics/SVG/1.1/DTD/svg11.dtd" >
<svg xmlns="http://www.w3.org/2000/svg" xmlns:xlink="http://www.w3.org/1999/xlink" version="1.1" viewBox="-10 0 1010 1000">
   <path fill="currentColor"
d="M859 48q-6 30 -6 73v100h26q36 0 81 -8v81q-27 -7 -77 -8h-30v97q0 45 4 70q-38 -9 -113 -8h-167q-14 48 -31 93h224q67 0 105 -4q-2 14 -3 41q-1 13 -1 30v50v107q0 64 1 87q1 29 3 46h-87q5 -22 4 -75h-229q0 43 8 73h-97q10 -52 10 -93v-173q-67 102 -131 167
q-39 -43 -81 -57q161 -106 230 -292h-32q-44 0 -71 4v-76q30 6 81 6h36q7 -30 11 -86q1 -5 1 -7h-72q-43 0 -79 6v-79q44 8 75 8h82v-98h-38q-47 0 -91 8v-79q30 6 81 6h171h105q51 0 97 -10zM778 123h-165q-1 13 -3 51q-2 35 -3 47h127h44v-98zM778 286h-175q0 6 -1 18
q-2 43 -9 75h185v-93zM792 606h-229v146h229v-146zM179 10q82 -3 95 6q1 2 -2 7q-14 26 -14 75v97h30q22 0 54 -3q8 -1 13 -1v85q-32 -6 -77 -6h-20v139q3 -1 9 -4q44 -19 88 -43q-8 28 0 85q-28 11 -72 30q-17 8 -25 11v280q1 62 -29 81q-27 22 -126 30q-3 -51 -36 -103
q126 36 118 -32v-224q-119 48 -139 66l-22 -90q4 -1 11 -3q54 -11 150 -50v-175h-54q-54 0 -85 6v-85q26 5 83 6h56v-82q0 -58 -6 -103z" />
</svg>
