<?xml version="1.0" standalone="no"?>
<!DOCTYPE svg PUBLIC "-//W3C//DTD SVG 1.1//EN" "http://www.w3.org/Graphics/SVG/1.1/DTD/svg11.dtd" >
<svg xmlns="http://www.w3.org/2000/svg" xmlns:xlink="http://www.w3.org/1999/xlink" version="1.1" viewBox="-10 0 1034 1024">
  <g transform="matrix(1 0 0 -1 0 820)">
   <path fill="currentColor"
d="M209 486v-212q-51 -27 -82 -41q-33 -12 -71 -24q12 -22 22 -50q30 19 65 36l66 36v-284q0 -42 -16 -51q-13 -6 -41 -6q-15 0 -47 4q9 -24 10 -26q3 -12 5 -23q84 6 108 22q18 16 19 64v321l103 57q0 31 3 41q1 9 3 21q-28 -24 -52 -42q-24 -15 -57 -34v191l106 -4
q3 0 6 -1v46q-43 -4 -77 -5h-35v180q0 4 2 23q1 16 11 39h-58q4 -9 5 -25q0 -18 2 -37v-180h-83q-34 0 -47 3q-4 0 -13 2v-46q49 4 76 5h67zM642 90q-3 -30 -5 -61h48q-3 30 -5 61v212q27 -27 46 -48q18 -18 32 -38q21 -25 54 -78q10 15 35 34l-68 78l-99 101v63
q117 0 126 -3q9 0 18 -3v47l-15 -2q-7 -3 -23 -3l-106 -1v97q0 4 2 23q1 16 11 39h-56l5 -100v-59l-137 3q-6 0 -17 3v-47q3 0 7 2q67 3 103 4h43q-4 -15 -19 -44q-12 -25 -37 -62q-42 -63 -74 -96q-36 -36 -71 -52q30 -13 52 -31l25 30q34 39 57 70q30 39 68 98v-237z
M398 -98q0 -27 -3 -45q0 -3 -3 -15h48q-4 30 -5 49v32h451q0 -45 -5 -73h48q-4 24 -5 73l1 735q0 19 4 43q-15 -1 -27 -2q-19 -3 -29 -4h-421q-12 0 -30 4q-12 0 -30 2q1 -15 3 -30q3 -21 3 -29v-740zM886 660v-702h-451v702h451z" />
  </g>

</svg>
