<?xml version="1.0" standalone="no"?>
<!DOCTYPE svg PUBLIC "-//W3C//DTD SVG 1.1//EN" "http://www.w3.org/Graphics/SVG/1.1/DTD/svg11.dtd" >
<svg xmlns="http://www.w3.org/2000/svg" xmlns:xlink="http://www.w3.org/1999/xlink" version="1.1" viewBox="-10 0 1010 1000">
   <path fill="currentColor"
d="M161 2q94 5 105 14q1 2 -3 9q-12 19 -13 39q-4 65 -4 129q83 0 109 -4v79q-31 -4 -111 -4v155q52 -18 105 -54q-3 43 8 90q-58 15 -113 41v304q-11 68 -153 81q-5 -57 -33 -107q101 20 111 -24v-222q-69 31 -106 58q-2 -43 -29 -101q66 -9 135 -40v-181h-28q-46 0 -63 1
q-22 1 -36 3v-77q30 3 99 4h30q0 -163 -10 -193zM387 40q18 4 109 4h300q70 0 107 -4v95q-70 -6 -218 115q9 11 13 16h110q50 -1 107 -6q-4 28 -4 100v436q-5 91 -149 97q-2 -56 -38 -103q77 18 97 4q7 -3 9 -26q0 -11 1 -34v-71h-152v103q0 66 6 94h-88q9 -17 8 -92v-105
h-137v129q0 83 4 97l-89 2q8 -10 8 -101v-427q0 -49 -8 -105q79 8 121 8h91q-26 -34 -107 -85l74 -44q28 29 73 68q33 -24 147 -97h-286q-62 0 -109 4v-72zM679 330v105h150v-105h-150zM605 330h-137v105h137v-105zM679 498v102h150v-102h-150zM605 498h-137v102h137v-102z
" />
</svg>
