<?xml version="1.0" standalone="no"?>
<!DOCTYPE svg PUBLIC "-//W3C//DTD SVG 1.1//EN" "http://www.w3.org/Graphics/SVG/1.1/DTD/svg11.dtd" >
<svg xmlns="http://www.w3.org/2000/svg" xmlns:xlink="http://www.w3.org/1999/xlink" version="1.1" viewBox="-10 0 1034 1024">
  <g transform="matrix(1 0 0 -1 0 820)">
   <path fill="currentColor"
d="M218 530v-209q-114 -51 -169 -57q12 -21 24 -41q1 -3 6 -11q67 36 139 70v-346q0 -27 -6 -35q-7 -7 -33 -10h-49q-13 3 -27 5q10 -24 17 -52l77 7q10 3 22 5q37 9 38 64v379q9 3 17 9q16 6 34 15q21 10 67 29q0 24 2 49q-24 -16 -48 -29l-72 -34v192q82 0 100 -2
q12 0 25 -4v47q-63 -6 -92 -6h-33v153q0 7 2 23q1 15 11 39h-57q1 -9 3 -14l2 -48v-153l-153 3q-3 1 -8 3v-47q9 3 57 6h104zM554 514l-37 -183l-147 3q-6 1 -10 3v-47q39 4 61 5l504 -1q4 0 42 -4v47q-4 0 -7 -2l-73 -4h-69l13 168q1 22 10 55q-27 -1 -56 -5h-186l29 143
l243 -1q4 0 37 -4v47q-22 -1 -45 -5h-448q-15 3 -19 5v-47q42 6 69 5h123l-29 -143q-112 0 -124 3q-6 1 -10 2v-46q15 4 34 5zM779 331h-222l37 183h199zM446 208l6 -62l-1 -274q-3 -15 -5 -23h48q-6 39 -6 52v21h343v-10q0 -45 -5 -59h48q-4 24 -5 59l1 251l4 45
q-16 -1 -31 -2q-19 -3 -31 -4l-322 1q-39 4 -44 5zM488 -43v210h343v-210h-343z" />
  </g>

</svg>
