<?xml version="1.0" standalone="no"?>
<!DOCTYPE svg PUBLIC "-//W3C//DTD SVG 1.1//EN" "http://www.w3.org/Graphics/SVG/1.1/DTD/svg11.dtd" >
<svg xmlns="http://www.w3.org/2000/svg" xmlns:xlink="http://www.w3.org/1999/xlink" version="1.1" viewBox="-10 0 1034 1024">
  <g transform="matrix(1 0 0 -1 0 820)">
   <path fill="currentColor"
d="M212 -50q0 -9 -3 -20q-1 -6 -13 -13q-25 -3 -56 -4l-25 3q3 -9 6 -19q7 -24 8 -29q51 6 77 13q42 10 43 63v328q87 57 115 73q-4 24 -6 53q-22 -21 -42 -35q-21 -16 -67 -48v199l101 -3q3 0 8 -2v45q-28 -1 -58 -5h-51v160q0 30 13 61h-55q3 -6 3 -13q0 -19 2 -48v-160
q-97 0 -114 2q-3 0 -16 3v-45q3 0 55 5h75v-222q-81 -54 -148 -77q12 -22 19 -37q0 -3 5 -17q25 18 124 82v-293zM607 259l-6 -143l-8 -114q-3 -42 -28 -52q-27 -9 -59 -9q-21 0 -40 4q16 -27 26 -51q100 18 119 40q12 15 19 62l10 174l6 100l4 30q-54 -6 -78 -6h-69
q1 40 3 60q3 36 19 52l-53 12q-1 0 -10 2q3 -37 4 -70l-1 -56h-55q-21 0 -45 3l-13 3v-46q19 4 58 5h52q-6 -151 -89 -274q-34 -46 -83 -74q39 -12 57 -26q72 88 108 171q19 54 29 92q7 34 16 111h107zM588 445q21 0 52 -5q-6 54 -6 68l1 183q0 6 2 13q0 9 3 27
q-25 -1 -52 -5l-158 1q-15 3 -37 4q4 -54 5 -77l-1 -173q-3 -12 -4 -41q42 4 61 5h134zM433 480v211h164v-211h-164zM727 627q3 -6 3 -14q0 -18 2 -48l-1 -379l-4 -37h47q-4 21 -5 60v356q0 9 2 24q1 18 12 38h-56zM759 -122q67 3 106 12q39 12 40 76v742q0 30 13 61h-55
q4 -24 5 -61l-1 -748q-3 -12 -6 -20q-6 -9 -22 -14q-24 -3 -43 -3q-27 3 -55 5q9 -19 14 -36q0 -1 4 -14v0z" />
  </g>

</svg>
