<?xml version="1.0" standalone="no"?>
<!DOCTYPE svg PUBLIC "-//W3C//DTD SVG 1.1//EN" "http://www.w3.org/Graphics/SVG/1.1/DTD/svg11.dtd" >
<svg xmlns="http://www.w3.org/2000/svg" xmlns:xlink="http://www.w3.org/1999/xlink" version="1.1" viewBox="-10 0 1034 1024">
  <g transform="matrix(1 0 0 -1 0 820)">
   <path fill="currentColor"
d="M74 184q6 -13 10 -19l28 15l95 43l-1 -311q-4 -12 -19 -16q-19 -1 -40 -3q-18 0 -42 4l8 -24q3 -13 6 -27q42 3 77 10q48 9 48 61v320l41 18q51 18 84 33l6 56q-64 -36 -131 -64v217l109 -3q4 0 12 -4v48q-63 -6 -94 -6h-27l3 186q1 16 12 37h-58q6 -60 6 -83v-140
l-131 3q-6 3 -13 3v-48q16 6 46 7h98v-231q-97 -39 -149 -47q9 -19 16 -35zM625 -67h-230q-36 0 -46 2q-4 0 -13 4v-48q15 4 35 5l536 1q39 0 55 -4q3 0 7 -2v48l-62 -6h-244v183l203 -1l37 -4v47q-22 -1 -45 -5l-195 -1v67q0 3 2 21q1 19 12 40h-57l5 -101v-27h-169
q-36 0 -48 2q-4 0 -13 4v-47q39 4 61 5h169v-183zM414 715q1 -27 5 -55l-1 -320q-3 -12 -4 -41q27 3 54 5l365 -1q15 0 40 -4q-4 48 -5 77l1 298q0 6 2 11q0 15 2 30q-28 -1 -57 -5l-364 1q-15 3 -38 4zM456 538v136h374v-136h-374zM456 340v162h374v-162h-374z" />
  </g>

</svg>
