<?xml version="1.0" standalone="no"?>
<!DOCTYPE svg PUBLIC "-//W3C//DTD SVG 1.1//EN" "http://www.w3.org/Graphics/SVG/1.1/DTD/svg11.dtd" >
<svg xmlns="http://www.w3.org/2000/svg" xmlns:xlink="http://www.w3.org/1999/xlink" version="1.1" viewBox="-10 0 1034 1024">
  <g transform="matrix(1 0 0 -1 0 820)">
   <path fill="currentColor"
d="M221 -70q0 -22 -4 -27q-6 -6 -23 -10q-18 -3 -39 -4q-27 0 -50 6q13 -24 21 -52q66 7 92 14q40 12 41 70v332q25 12 50 27q37 21 55 29q10 3 23 11q0 25 -3 56q-40 -34 -125 -80v215l138 -3q6 0 9 -2v46q-30 -1 -59 -5h-88v154q0 4 2 23q1 16 11 39h-56q3 -9 3 -13
q0 -15 2 -49v-154q-135 0 -155 2q-12 3 -17 3v-46q18 4 58 5h114v-235q-93 -55 -179 -83q21 -27 30 -47q30 21 149 85v-307zM665 126h-219q-27 0 -45 2q-4 0 -13 3v-46q27 4 58 5h219l-1 -221q0 -3 -4 -28h48q-3 30 -5 60v189l243 -1q21 0 29 -4v46q-30 -1 -59 -5h-213v148
l203 -1q21 0 29 -4v46q-30 -1 -59 -5l-425 1q-15 3 -22 4v-46q46 4 94 5h142v-148zM880 680q1 31 5 64q-30 -1 -59 -5l-329 1q-6 1 -13 2q-12 0 -28 2q1 -31 5 -64l-1 -232q-3 -15 -4 -45q57 6 79 6l305 -1q21 -1 45 -5q-3 31 -5 64v213zM498 592v111h344v-111h-344z
M498 445v111h344v-111h-344z" />
  </g>

</svg>
