<?xml version="1.0" standalone="no"?>
<!DOCTYPE svg PUBLIC "-//W3C//DTD SVG 1.1//EN" "http://www.w3.org/Graphics/SVG/1.1/DTD/svg11.dtd" >
<svg xmlns="http://www.w3.org/2000/svg" xmlns:xlink="http://www.w3.org/1999/xlink" version="1.1" viewBox="-10 0 1010 1000">
   <path fill="currentColor"
d="M157 -13q110 2 117 13q2 4 -7 10q-18 15 -19 34q-6 72 -6 153q86 0 101 -4v79q-17 -4 -101 -4v141q45 -15 99 -47q-4 14 -7 42q-1 25 1 45q-10 4 -38 16q-37 16 -53 23v292q-6 99 -155 111q-7 -52 -45 -105q81 21 107 0q11 -8 13 -50q2 -23 5 -222q-72 34 -113 58
q0 -55 -20 -105q72 -10 133 -34v-163h-38q-44 0 -58 1q-18 0 -31 3v-79q18 4 89 4h38q3 -158 -12 -212zM502 -8q99 1 107 10q0 2 -7 9q-13 14 -15 25q-6 33 -6 87h123q0 -44 -1 -100q-1 -21 -1 -27q97 0 102 10q1 2 -4 8q-12 14 -14 28q-9 57 -8 81h49q47 0 69 -1
q25 -1 42 -3v76q-22 -4 -111 -4h-51q0 45 1 63q1 23 3 40h-80q4 -24 4 -103h-123q0 91 4 101h-81q2 -13 3 -35q1 -18 1 -66h-26q-53 0 -72 1q-24 1 -41 3v-74q14 2 39 3q13 1 29 1h45h28q0 -69 -8 -133zM359 318q23 4 85 4h407q55 0 87 -4q-3 10 -3 63v24q0 60 3 80h-89
q4 -34 4 -80v-16h-411v18q0 60 4 78h-87q4 -15 4 -78v-26q0 -41 -4 -63zM556 425q95 1 107 14q1 3 -5 10q-12 12 -15 26q-4 12 -10 49h161q46 -1 79 -4q-6 32 -17 118q-23 197 -43 214q-44 43 -160 47q-2 -52 -40 -97q36 3 51 3q18 1 31 0q27 -2 39 -13q34 -54 40 -200h-149
q-56 227 -254 317q-28 -38 -95 -71q220 -51 272 -246h-64q-53 0 -74 1q-26 1 -43 3v-76q32 4 117 4h72q6 -54 0 -99z" />
</svg>
