<?xml version="1.0" standalone="no"?>
<!DOCTYPE svg PUBLIC "-//W3C//DTD SVG 1.1//EN" "http://www.w3.org/Graphics/SVG/1.1/DTD/svg11.dtd" >
<svg xmlns="http://www.w3.org/2000/svg" xmlns:xlink="http://www.w3.org/1999/xlink" version="1.1" viewBox="-10 0 1010 1000">
   <path fill="currentColor"
d="M573 -12q93 2 110 12q1 2 -4 7q-13 15 -18 37q-7 29 -8 60h139q74 0 105 -4v69q-33 -5 -105 -6h-145q-2 27 -10 68h125q63 -1 105 -4v71q-13 -7 -111 -8h-133q-1 2 -2 5q-20 54 -30 68h222q60 0 114 -3v69q-21 -2 -47 -3q-13 -1 -28 -1h-39h-61q89 113 218 137
q-38 35 -61 79q-61 -30 -125 -83v65q-37 -3 -92 -4h-37v74h135q65 -1 111 -8v75q-37 -5 -107 -6h-139v70q0 64 6 87h-84q8 -26 8 -85v-72h-145q-75 1 -109 6v-71q14 2 38 3q11 1 27 1h42h147v-76h-29q-59 0 -98 6v-69q27 4 94 4h33q0 -63 -10 -89q90 -2 104 10q1 2 -4 6
q-12 10 -14 21q-6 21 -6 54h39q71 1 88 -4q-51 -50 -94 -131h-125q-69 104 -230 222q-28 -41 -75 -59q137 -65 224 -163h-28q-73 0 -99 4v-69q25 3 99 3h64q23 -37 36 -73h-62q-74 0 -107 4v-69q22 6 107 6h73q7 -33 8 -68h-113q-50 0 -70 1q-24 1 -37 3v-67q44 4 107 4h115
v-80q-1 -25 -2 -36zM161 -6q95 -2 109 10q1 5 -5 13q-13 18 -17 45q-2 15 -3 45q-1 15 -1 37v61q57 -1 89 -4v73q-10 -2 -29 -3q-15 -1 -60 -1v169q37 -12 91 -40q-5 40 2 82q-63 19 -93 33v306q-17 65 -155 73q-4 -49 -29 -107q85 22 111 -24v-218q-51 17 -121 54
q-3 -50 -16 -100q61 -8 137 -37v-187h-38q-43 0 -59 1q-20 1 -32 3v-73q15 4 91 4h36q2 -169 -8 -215z" />
</svg>
