<?xml version="1.0" standalone="no"?>
<!DOCTYPE svg PUBLIC "-//W3C//DTD SVG 1.1//EN" "http://www.w3.org/Graphics/SVG/1.1/DTD/svg11.dtd" >
<svg xmlns="http://www.w3.org/2000/svg" xmlns:xlink="http://www.w3.org/1999/xlink" version="1.1" viewBox="-10 0 1034 1024">
  <g transform="matrix(1 0 0 -1 0 820)">
   <path fill="currentColor"
d="M218 -38q0 -45 -26 -50q-24 -3 -37 -3q-25 0 -47 6q13 -31 19 -55q25 1 51 6q45 7 57 18q21 15 21 65v310q27 15 52 28q28 12 72 33v55q-57 -39 -124 -75v213q85 0 100 -2q9 0 21 -3v46q-43 -4 -73 -5h-48v152q0 27 13 62h-56q3 -6 3 -26l2 -188q-115 0 -131 2
q-9 0 -17 3v-46q30 4 59 5h89v-230q-93 -49 -156 -66q24 -27 32 -49q58 36 124 72v-278zM377 -43q54 6 74 6h266q0 -10 -3 -23h46q-4 27 -5 54v110q0 27 13 63h-57q3 -7 4 -26l2 -143h-126v149q0 9 2 25q1 15 11 39h-57q3 -7 4 -26l2 -137v-50h-136v97q0 7 2 22q1 18 12 41
h-54q1 -30 5 -62l-1 -99q-3 -12 -4 -40zM452 305l-6 -65q30 3 61 5h387l-16 -224q-1 -3 -1 -7q-3 -34 -9 -58q-7 -30 -47 -40q-39 -7 -64 -8q-24 0 -50 4q15 -27 24 -54l75 10q60 12 82 40q15 21 24 63q3 28 8 74q13 159 14 193q3 19 6 48q-55 -4 -81 -5h-370v344h336
q0 -48 -2 -78l-6 -92l-3 -9q-6 -22 -38 -29q-25 -3 -51 -4q-19 3 -25 4q-7 0 -15 2q12 -18 22 -51q81 6 114 21q22 12 31 43q6 30 11 115l1 77l4 42q-28 -1 -58 -5h-229q21 39 31 61q10 18 42 39q-40 12 -67 23q-12 -40 -21 -65q-9 -22 -26 -58q-43 0 -94 5q6 -60 6 -82
v-279zM547 532q70 -42 113 -97q12 24 30 36q-66 60 -114 95q-12 -15 -29 -34v0z" />
  </g>

</svg>
