<?xml version="1.0" standalone="no"?>
<!DOCTYPE svg PUBLIC "-//W3C//DTD SVG 1.1//EN" "http://www.w3.org/Graphics/SVG/1.1/DTD/svg11.dtd" >
<svg xmlns="http://www.w3.org/2000/svg" xmlns:xlink="http://www.w3.org/1999/xlink" version="1.1" viewBox="-10 0 1010 1000">
   <path fill="currentColor"
d="M163 -2q96 6 109 16q-30 18 -30 84v137q59 0 111 -8v79q-39 -9 -111 -6v129q30 -17 105 -42l-2 80l-103 33v318q-1 59 -147 69q-4 -64 -33 -103q112 31 105 -20v-240q-50 19 -92 39q-18 10 -23 9l-20 -91q2 -1 9 -2q43 -4 126 -30v-149q-93 -3 -127 6v-79q48 8 127 8
v-165q0 -37 -3 -65q-1 -5 -1 -7zM683 6q14 30 21 109h48q103 0 139 -9q-11 17 -10 99v30q0 77 8 109q-24 -6 -171 -6h-240q-1 26 -2 69q-1 40 -2 81h153q10 -98 6 -130q88 5 97 15q0 2 -5 9q-14 20 -15 37q-4 43 -6 69h88q79 0 135 -7v79q-34 -8 -129 -8h-78q58 204 244 270
q-52 31 -75 71q-181 -121 -212 -280q-51 182 -193 284q-48 -39 -91 -57q174 -66 228 -288h-153q-13 188 -135 341q-36 -28 -87 -37q112 -113 136 -248q15 -71 19 -184q4 -106 0 -314q39 5 129 5h93q-8 -51 -30 -99zM806 179h-328v95h328v-95zM821 362q27 35 48 93l-75 22
q-14 -57 -40 -100z" />
</svg>
