<?xml version="1.0" standalone="no"?>
<!DOCTYPE svg PUBLIC "-//W3C//DTD SVG 1.1//EN" "http://www.w3.org/Graphics/SVG/1.1/DTD/svg11.dtd" >
<svg xmlns="http://www.w3.org/2000/svg" xmlns:xlink="http://www.w3.org/1999/xlink" version="1.1" viewBox="-10 0 1034 1024">
  <g transform="matrix(1 0 0 -1 0 820)">
   <path fill="currentColor"
d="M236 -59q0 -27 -11 -34q-15 -6 -41 -7q-16 0 -59 6q12 -19 17 -32l7 -21q37 3 64 8q36 6 48 21t13 51v334q30 13 46 24q15 7 64 25v54q-27 -18 -50 -30q-22 -13 -60 -32v206h65q33 0 58 -5v47q-57 -6 -84 -6h-39v160q0 4 2 23q1 18 12 39h-57q1 -6 4 -25l1 -197
q-108 0 -133 2q-1 0 -19 4v-47q21 4 58 5h94v-222q-102 -57 -180 -77q15 -16 33 -48q3 3 104 63q16 12 43 21v-310zM691 309v-131h-114q-9 0 -31 3q-12 0 -27 2q1 -28 5 -58l-1 -257q-1 -15 -4 -35h47q-4 60 -5 62h318q-1 -42 -5 -58h48q-4 16 -5 59l1 247l4 40
q-51 -4 -65 -5h-128v131h181q33 0 58 -5v46q-4 0 -7 -2q-19 -3 -51 -4h-181v141l145 -1l40 -4q-4 49 -5 93q0 106 2 118q0 16 3 34q-27 -1 -55 -5l-372 1q-15 3 -39 4q1 -18 3 -30q3 -21 3 -30v-244q-1 -72 -9 -154q-9 -88 -33 -165q-25 -69 -62 -122q-21 -31 -69 -60
q31 -9 62 -28q67 108 94 173q19 52 30 99q10 57 21 145h203zM489 344l3 141h199v-141h-202zM492 521v163h379v-163h-379zM561 -69v211h318v-211h-318z" />
  </g>

</svg>
