<?xml version="1.0" standalone="no"?>
<!DOCTYPE svg PUBLIC "-//W3C//DTD SVG 1.1//EN" "http://www.w3.org/Graphics/SVG/1.1/DTD/svg11.dtd" >
<svg xmlns="http://www.w3.org/2000/svg" xmlns:xlink="http://www.w3.org/1999/xlink" version="1.1" viewBox="-10 0 1034 1024">
  <g transform="matrix(1 0 0 -1 0 820)">
   <path fill="currentColor"
d="M64 159q21 -24 23 -28q15 18 42 38q10 9 81 58v-311q0 -30 -21 -34q-24 -3 -41 -3q-6 0 -12 1q-9 0 -31 4q12 -27 18 -45q24 0 55 3q45 6 57 17q12 12 13 62v336l94 61q-3 27 -4 52q-21 -15 -33 -26q-43 -36 -57 -43v174h25q33 0 60 -5v46q-30 -1 -60 -5h-25v187
q0 4 2 23q1 18 11 39h-56q3 -6 3 -26q0 -18 2 -36v-187q-115 0 -131 2q-6 3 -17 3v-46q21 4 58 5h90v-201q-54 -39 -94 -63q-39 -21 -70 -32q9 -9 18 -20zM469 305l-98 1q-4 0 -26 4v-46q21 4 58 5h66v-182q-78 0 -94 2q-3 0 -17 3v-47q21 6 59 6h203v-141q-204 0 -223 3
q-4 1 -10 2v-46q21 4 58 5h421q27 0 58 -5v46q-24 -4 -58 -5h-208v141h240q27 0 59 -6v47q-30 -1 -59 -5h-84v182h102q24 0 59 -5v46q-30 -1 -59 -5h-102v172h64q33 0 58 -5v46q-24 -4 -58 -5h-220v134q103 18 140 21q9 3 50 6q12 3 31 3q10 0 29 -4q-22 21 -47 54
q-31 -12 -59 -20q-31 -6 -90 -15q-58 -7 -92 -12q-25 -3 -52 -4q-12 -1 -58 -2q-37 -1 -56 -2q-24 0 -62 5q12 -18 21 -46q30 0 60 4l147 9v-131q-214 0 -229 3l-13 2v-46q19 4 58 5h33v-172zM506 305v172h114v-172h-114zM506 87v182h114v-182h-114zM658 305v172h118v-172
h-118zM776 87h-118v182h118v-182z" />
  </g>

</svg>
