<?xml version="1.0" standalone="no"?>
<!DOCTYPE svg PUBLIC "-//W3C//DTD SVG 1.1//EN" "http://www.w3.org/Graphics/SVG/1.1/DTD/svg11.dtd" >
<svg xmlns="http://www.w3.org/2000/svg" xmlns:xlink="http://www.w3.org/1999/xlink" version="1.1" viewBox="-10 0 1010 1000">
   <path fill="currentColor"
d="M157 0q88 2 107 12q1 2 -3 7q-14 13 -15 35q-6 59 -6 161q60 0 77 -4v71q-19 -4 -75 -4v143q38 -12 81 -34l-4 84q-53 18 -75 29v318q-5 69 -161 79q-2 -48 -39 -99q39 10 84 3q40 -7 43 -25v-252q-2 1 -7 3q-71 32 -108 59q0 -51 -18 -98q34 -4 131 -39v-169h-40
q-63 -1 -81 4v-71q24 4 81 4h38q0 -178 -10 -217zM853 28q61 69 58 89q-4 2 -18 -1q-24 -5 -42 -4q-9 0 -58 6q-93 11 -132 13v88h198q48 0 83 -6v75q-21 -4 -83 -4h-22v127q65 0 90 -4v78q-28 -5 -90 -6v144q91 0 109 -4v74q-27 -4 -109 -4h-176v103h109q81 -1 123 -6v79
q-34 -3 -123 -3h-300q-94 0 -119 3v-77q26 4 119 4h121v-103h-164q-77 0 -106 4v-72q22 4 106 4v-148q-28 0 -79 4q2 -1 -5 0v-72q19 4 84 4v-129q-49 0 -78 4v-73q20 4 78 4h164v-82q2 0 -45 3q-130 8 -157 11q-5 -45 -34 -81q255 10 498 -42zM591 282h-97v131h97v-131z
M661 282v131h109v-131h-109zM591 477h-97v148h97v-148zM770 477h-109v148h109v-148z" />
</svg>
