<?xml version="1.0" standalone="no"?>
<!DOCTYPE svg PUBLIC "-//W3C//DTD SVG 1.1//EN" "http://www.w3.org/Graphics/SVG/1.1/DTD/svg11.dtd" >
<svg xmlns="http://www.w3.org/2000/svg" xmlns:xlink="http://www.w3.org/1999/xlink" version="1.1" viewBox="-10 0 1010 1000">
   <path fill="currentColor"
d="M480 -13q93 27 107 45q1 2 -7 8q-21 14 -32 30q-16 21 -33 52q-3 6 -5 9h303q3 0 11 -1q66 -3 95 -11q-9 120 -15 500q-2 143 -3 169q-3 124 -185 121q-5 -52 -39 -95q130 13 138 -36q10 -56 14 -583h-345q-24 25 -117 157q-30 -32 -74 -38h-3q125 -126 190 -327z
M502 225q68 14 83 25q0 1 -3 3q-14 9 -24 23q-2 2 -5 7q-9 11 -17 23h121q27 0 83 -3q5 -1 8 -1v73q-45 -8 -97 -6h-42v96h97q39 1 80 -4v71q-33 -4 -80 -4h-97v169h81q0 -54 -3 -115v-8q79 4 83 12q1 2 -3 7q-9 14 -9 26v147q-92 -5 -188 -3q-98 3 -173 13v-143
q-1 -43 -2 -57q79 4 83 10q0 2 -6 10q-10 13 -10 21v82h82v-171h-100h-53q-18 1 -30 2v-69q40 4 85 4h98v-96h-40q-15 15 -41 50q-8 10 -11 14q-24 -26 -63 -32q77 -79 113 -176zM317 282q2 1 -10 0q-33 -2 -63 -2v163q64 -20 87 -30q-2 17 -2 74q-25 3 -76 21q-5 1 -7 2
v268q1 68 -24 83q-20 19 -121 30q-5 -45 -39 -95q70 20 95 -2q14 -14 14 -89v-169q-29 10 -104 54q-2 -6 -5 -18q-8 -27 -26 -84q71 -4 133 -25v-181h-34q-60 -1 -83 4v-75q32 3 83 4h34v-133q0 -44 -8 -66q86 1 111 10q0 1 -3 6q-23 30 -25 78v105q17 0 45 -1q20 -1 28 -1
v69z" />
</svg>
