<?xml version="1.0" standalone="no"?>
<!DOCTYPE svg PUBLIC "-//W3C//DTD SVG 1.1//EN" "http://www.w3.org/Graphics/SVG/1.1/DTD/svg11.dtd" >
<svg xmlns="http://www.w3.org/2000/svg" xmlns:xlink="http://www.w3.org/1999/xlink" version="1.1" viewBox="-10 0 1034 1024">
  <g transform="matrix(1 0 0 -1 0 820)">
   <path fill="currentColor"
d="M227 -71q0 -21 -3 -28q-4 -9 -23 -13q-21 -3 -35 -3q-24 0 -49 6q12 -30 13 -33q1 -6 4 -16l79 6q22 4 35 11q16 13 17 58v369q78 48 127 76q-3 18 -6 46q-27 -21 -51 -37q-25 -18 -70 -46v197q87 0 105 -2q13 0 28 -4v48q-42 -6 -96 -6h-37q0 163 3 169q1 16 11 32h-57
q1 -30 5 -61v-140l-155 3q-3 1 -8 3v-48q15 4 37 5l126 1v-217q-111 -67 -168 -83q15 -18 34 -51l61 44q34 25 73 48v-334zM451 352q-34 0 -47 2q-4 0 -13 4v-47q39 4 60 5l475 -1q3 0 36 -4v47q-21 -1 -44 -5l-195 -1l82 138q16 28 46 38q-27 15 -61 38q-15 -45 -45 -103
q-31 -57 -68 -111h-226zM902 630q-21 -1 -44 -5h-421q-9 3 -18 5v-47q39 4 59 5l387 -1l37 -4v47zM456 218q1 -30 5 -61l-1 -285q-1 -15 -4 -26h47q-4 19 -5 59v28h328v-25q0 -45 -5 -59h48q0 6 -2 12q-1 24 -3 47l1 265l4 45q-28 -1 -57 -5l-314 1q-15 3 -42 4zM498 -31
v208h328v-208h-328zM518 541q-12 -12 -33 -24q51 -55 87 -132q15 10 35 26l-32 49q-39 57 -57 81zM572 733q52 -40 107 -103q12 15 26 30q-21 24 -49 52q-42 36 -56 50q-3 -3 -12 -14q-3 -3 -5 -6q-6 -4 -11 -9v0z" />
  </g>

</svg>
