<?xml version="1.0" standalone="no"?>
<!DOCTYPE svg PUBLIC "-//W3C//DTD SVG 1.1//EN" "http://www.w3.org/Graphics/SVG/1.1/DTD/svg11.dtd" >
<svg xmlns="http://www.w3.org/2000/svg" xmlns:xlink="http://www.w3.org/1999/xlink" version="1.1" viewBox="-10 0 1010 1000">
   <path fill="currentColor"
d="M175 -2q101 5 115 12q0 1 -4 4q-28 24 -28 70v117q72 -1 107 -4v75q-31 -4 -109 -4v165q27 -8 79 -36q-5 41 4 88q-42 5 -83 21v242q1 59 -4 78q-5 26 -21 41q-33 33 -136 36q-3 -54 -37 -101q81 20 105 -2q17 -15 16 -75v-193q-55 23 -123 62q-4 -20 -14 -66
q-6 -24 -8 -34q65 -7 145 -35v-189h-44q-42 0 -59 1q-21 1 -36 3v-77q27 3 95 4h46v-127q0 -61 -6 -76zM865 14q61 68 66 101q-5 3 -26 -1q-41 -7 -76 -4q-182 18 -440 31q-7 -54 -38 -85q121 14 282 1q155 -13 232 -43zM786 137q84 26 99 40q1 3 -8 10q-14 12 -22 24
q-14 21 -41 64q-26 41 -34 53h89q33 0 79 -4q-5 16 -4 61v26q0 50 4 72h-81q4 -30 4 -72v-22h-423v18q0 41 4 66h-81q4 -30 4 -66v-20q0 -36 -4 -63q48 4 85 4h248q67 -112 82 -191zM655 157q26 81 32 117l-80 20q-2 -61 -28 -119zM498 173q24 39 44 107l-76 24
q-12 -63 -39 -107zM437 485q38 3 113 3h214q57 -1 87 -7q-83 183 -168 263q137 58 279 56q-41 48 -57 103q-182 -44 -280 -113q-121 72 -260 111q-27 -63 -71 -95q139 8 273 -62q-58 -57 -111 -166l48 -30q-8 1 -33 2t-34 2v-67zM526 548q37 100 101 155q66 -60 111 -155
h-212z" />
</svg>
