<?xml version="1.0" standalone="no"?>
<!DOCTYPE svg PUBLIC "-//W3C//DTD SVG 1.1//EN" "http://www.w3.org/Graphics/SVG/1.1/DTD/svg11.dtd" >
<svg xmlns="http://www.w3.org/2000/svg" xmlns:xlink="http://www.w3.org/1999/xlink" version="1.1" viewBox="-10 0 1010 1000">
   <path fill="currentColor"
d="M556 -12q98 20 111 32q0 1 -4 5q-17 13 -28 33q-2 3 -5 9q-12 23 -25 45h159q54 0 125 -8q-88 177 -133 248l-91 -26q38 -32 97 -151h-185q-62 105 -113 171q-38 -25 -85 -34q136 -126 177 -324zM183 10q95 2 109 12q0 2 -5 8q-21 25 -21 54v119q69 0 123 -6v81
q-45 -9 -123 -6v163q44 -22 99 -52l2 82l-101 41v278q10 100 -161 111q-17 -66 -40 -99q132 24 123 -48v-210q-72 37 -106 59q-3 2 -5 3l-33 -96q1 0 5 -1q34 -3 139 -40v-191q-98 0 -136 6v-81q55 8 136 8v-95q0 -71 -5 -98v-2zM575 358q41 53 52 83q0 1 -5 0
q-45 -10 -140 4v127q66 0 133 -8v73q-51 -6 -133 -6v125h339v-127q-60 0 -88 1q-33 1 -58 5v-73q53 8 148 8v-125h-47q-68 0 -109 6v-76q30 6 109 6h24q48 0 111 -8q-10 26 -10 189v188q0 114 12 155h-101q7 -25 7 -85h-337q-3 57 8 87h-95q12 -29 12 -167v-186
q0 -117 -6 -165q113 -2 174 -31z" />
</svg>
