<?xml version="1.0" standalone="no"?>
<!DOCTYPE svg PUBLIC "-//W3C//DTD SVG 1.1//EN" "http://www.w3.org/Graphics/SVG/1.1/DTD/svg11.dtd" >
<svg xmlns="http://www.w3.org/2000/svg" xmlns:xlink="http://www.w3.org/1999/xlink" version="1.1" viewBox="-10 0 1010 1000">
   <path fill="currentColor"
d="M665 8q86 1 99 8q0 4 -4 12q-10 18 -10 44v101q140 0 163 -8v85q-20 -8 -165 -8v147q126 0 153 -8v80q-23 -8 -153 -8v159q157 0 185 -8v81q-28 -8 -185 -8q0 145 10 209v3h-97q5 -17 7 -66q0 -23 1 -58v-94v-552q0 -74 -4 -111zM478 10q95 1 101 10q-1 3 -4 9
q-12 27 -12 59v583q0 119 1 151q2 42 7 55h-95q10 -33 10 -200q-84 0 -113 1q-36 1 -52 5v-81q11 5 44 7q17 0 43 1h78v-155q-48 0 -69 1q-25 1 -40 5v-80q20 7 109 6v-149q-57 0 -80 1q-28 1 -43 5v-83q15 5 41 7q12 0 30 1h52v-87q-2 -57 -8 -72zM169 14q92 2 101 10
q0 2 -3 8q-15 25 -15 54v133q65 1 89 -6v77q-24 -7 -89 -6v145l93 -44l-2 80l-91 33v264q3 62 -24 77q-25 20 -133 36q1 -58 -32 -101q72 7 94 -3q22 -7 20 -44v-203q-69 30 -104 56l-4 2l-19 -92l3 -1q29 -3 124 -34v-169q-62 0 -87 2q-25 1 -36 6v-81q17 8 123 8v-139
q0 -50 -8 -68z" />
</svg>
