<?xml version="1.0" standalone="no"?>
<!DOCTYPE svg PUBLIC "-//W3C//DTD SVG 1.1//EN" "http://www.w3.org/Graphics/SVG/1.1/DTD/svg11.dtd" >
<svg xmlns="http://www.w3.org/2000/svg" xmlns:xlink="http://www.w3.org/1999/xlink" version="1.1" viewBox="-10 0 1010 1000">
   <path fill="currentColor"
d="M381 48q9 0 26 1q34 2 69 3h336q45 0 87 -6q-3 19 -3 34q-1 13 -1 41v94q0 10 2 31q1 21 2 36q-48 -6 -89 -6h-352v173q-9 254 -117 440q-44 -22 -93 -27q131 -132 139 -411v-316q0 -48 -6 -87zM661 298q9 0 25 1q74 1 68 7q0 2 -3 8q-15 36 -15 93v89h89q0 -120 -4 -164
q8 1 24 2q72 5 68 10q0 3 -3 9q-15 31 -15 90q-3 58 4 117q-10 -5 -74 -4h-89v226h103q0 -122 -6 -186q13 1 37 3q47 2 49 7q0 1 -1 5q-11 38 -9 127q0 75 6 157h-78q4 -24 4 -49h-281q-55 0 -80 6q4 -71 4 -127q0 -75 -4 -137q9 1 26 2q66 5 63 10q-19 19 -19 73v109h115
v-226h-76h-57q-18 1 -26 2q6 -31 6 -99q0 -90 -4 -131q94 7 93 14q1 1 -2 6q-22 39 -22 148h88v-91q0 -54 -1 -70q0 -22 -3 -37zM169 2q13 1 36 2q64 3 67 10q2 1 -2 6q-24 29 -24 84v99q30 0 50 -1q22 -1 53 -3v75q-31 -3 -52 -3q-18 -1 -51 -1v157l101 -42q-9 33 0 84
q-14 2 -54 16q-32 11 -47 15v280q17 74 -145 87q0 -47 -35 -90q-10 -12 -8 -15q116 21 117 -16v-226q-96 36 -113 54q-6 -48 -24 -97q62 -6 137 -30v-177q-33 0 -55 1q-25 2 -58 7v-81q45 9 113 8v-99q0 -50 -6 -104zM458 115v98h365v-98h-365z" />
</svg>
