<?xml version="1.0" standalone="no"?>
<!DOCTYPE svg PUBLIC "-//W3C//DTD SVG 1.1//EN" "http://www.w3.org/Graphics/SVG/1.1/DTD/svg11.dtd" >
<svg xmlns="http://www.w3.org/2000/svg" xmlns:xlink="http://www.w3.org/1999/xlink" version="1.1" viewBox="-10 0 1034 1024">
  <g transform="matrix(1 0 0 -1 0 820)">
   <path fill="currentColor"
d="M139 192q22 12 45 23q16 7 44 19v-288q0 -15 -5 -23q-4 -7 -25 -10h-47q-9 0 -34 4q16 -33 20 -54q90 3 109 16q19 10 20 54v317q18 9 80 33q15 6 29 12q3 16 6 29q3 12 9 33q-33 -22 -63 -38q-27 -13 -61 -28v225h60q25 0 60 -5v46q-30 -1 -60 -5h-60q0 180 3 188
q1 13 10 30h-56q1 -6 4 -25l1 -193q-102 0 -127 2q-15 3 -21 3v-46q22 4 59 5h89v-239q-93 -46 -165 -64q18 -30 23 -50q24 15 40 23q6 3 13 6zM473 500l403 -1l40 -4q-4 49 -5 75q0 106 2 116q0 15 3 32q-27 -1 -55 -5l-390 1q-15 3 -41 4q1 -28 5 -58l-2 -351
q-1 -18 -2 -40q-6 -111 -23 -167q-21 -75 -71 -140q-25 -30 -65 -56q36 -13 58 -30q73 102 101 173q21 49 30 107q7 54 10 142zM473 536v142h400v-142h-400zM907 -89q0 -33 -4 -50q-3 -3 -3 -15h50q-4 28 -5 64v155q0 9 2 24q1 18 11 40h-58q3 -6 4 -15q1 -25 3 -38v-127
l-169 -7v254l133 -1l37 -4q-6 54 -6 73q0 94 2 102q3 18 12 41h-58q4 -9 5 -42l1 -133h-126v167q0 6 2 24q1 15 11 39h-57q3 -6 5 -28l1 -202h-122q0 124 3 133q1 13 10 30h-55q4 -49 5 -81q0 -66 -2 -92q-3 -3 -3 -31q6 3 35 3q6 1 129 2v-255l-154 -7v118q0 30 13 62h-55
q4 -22 5 -69q0 -94 -2 -120q-3 -3 -3 -34q21 1 43 5q3 0 20 2z" />
  </g>

</svg>
