<?xml version="1.0" standalone="no"?>
<!DOCTYPE svg PUBLIC "-//W3C//DTD SVG 1.1//EN" "http://www.w3.org/Graphics/SVG/1.1/DTD/svg11.dtd" >
<svg xmlns="http://www.w3.org/2000/svg" xmlns:xlink="http://www.w3.org/1999/xlink" version="1.1" viewBox="-10 0 1034 1024">
  <g transform="matrix(1 0 0 -1 0 820)">
   <path fill="currentColor"
d="M512 20q-406 0 -421 3l-13 2v-46q46 4 83 5h351q0 -75 -2 -91q-3 -7 -20 -10l-58 -2q-15 0 -43 5q6 -15 7 -21q3 -9 6 -27q27 0 73 4q43 3 56 11q18 12 19 50v81l369 -1q18 0 31 -4v46l-40 -4l-360 -1v70l257 -1q12 -1 27 -4v46l-40 -4l-244 -1v76l251 22q3 1 32 2
q12 0 33 -5q-15 15 -23 32q-4 6 -6 11q0 1 -7 11q-25 -7 -50 -13q-27 -6 -68 -10q-96 -12 -202 -14l-153 -4l-94 1l-114 8q16 -24 22 -47l341 4v-74l-294 2q-3 0 -16 3v-46q21 4 58 5h252v-70zM349 558h-205q-33 0 -57 5v-46q22 4 57 5h205v-64l-156 1q-9 3 -38 5v-9
q1 -18 2 -16q3 -18 3 -62l-1 -69q-1 -15 -4 -29h48q-4 30 -5 57v86h151v-87q0 -30 -5 -58h48q-4 27 -5 58v87h167v-60q0 -15 -4 -23q-6 -4 -25 -7q-15 -1 -18 -2q-21 0 -38 4q12 -27 16 -49q48 6 53 7q42 6 50 26q3 15 4 51q0 54 2 64q0 9 2 13q0 9 1 18q-4 0 -8 -1
q-21 -1 -43 -5h-159v64l243 -3q1 0 11 -2v46q-45 -4 -57 -5h-197v59l181 -1q19 0 35 -5v47q-36 -6 -57 -6h-159q0 72 3 81q1 15 10 27h-56q0 -3 1 -7q3 -13 4 -55v-46h-138q31 46 41 55q9 9 33 18q-12 6 -33 23q-7 6 -17 12q-15 -37 -53 -91q-40 -51 -86 -69q33 -10 52 -25
l36 42h165v-59zM731 425q-4 28 -5 57q0 181 3 188q1 15 11 30h-57q4 -99 5 -104q0 -124 -2 -151q-3 -12 -3 -20h48zM886 698q0 9 2 24q1 16 12 37h-57q0 -3 1 -7q3 -13 4 -56v-297q0 -37 -26 -43q-27 -3 -39 -3q-21 0 -50 7q10 -19 13 -48q64 3 95 10q45 9 45 73v303z" />
  </g>

</svg>
