<?xml version="1.0" standalone="no"?>
<!DOCTYPE svg PUBLIC "-//W3C//DTD SVG 1.1//EN" "http://www.w3.org/Graphics/SVG/1.1/DTD/svg11.dtd" >
<svg xmlns="http://www.w3.org/2000/svg" xmlns:xlink="http://www.w3.org/1999/xlink" version="1.1" viewBox="-10 0 1010 1000">
   <path fill="currentColor"
d="M482 4q98 19 109 38q2 8 -11 18q-27 21 -44 52q-17 26 -32 65h286q55 0 128 -7q3 -1 5 -1v89q-4 0 -14 -1q-71 -7 -123 -7h-56v110h42q71 -1 123 -8v89q-55 -7 -125 -8h-40v109h36q74 0 129 -8v91q-73 -10 -129 -10h-36v116h82q109 0 133 -7q2 -1 3 -1v89q-6 0 -17 -2
q-37 -6 -119 -6h-308q0 44 8 101h-91q0 -3 1 -9q7 -52 7 -92v-484q-2 3 -11 16q-25 33 -47 67q-42 -26 -75 -38q133 -111 186 -361zM175 -12q115 4 107 18q1 6 -7 16q-21 27 -21 64v107h32q34 0 78 -7q2 -1 3 -1v87q-2 0 -6 -1q-47 -7 -73 -7h-34v181q48 -21 93 -50l2 86
q-62 25 -95 43v232q1 77 -34 107q-32 30 -125 34q-11 -59 -30 -93q76 7 97 -6q24 -12 23 -60v-188q-7 3 -22 10q-63 27 -101 46l-12 -94q19 -4 135 -45v-203h-42q-38 0 -82 7q-6 1 -9 1v-87q2 0 7 1q48 7 84 7h42v-107q0 -29 -8 -83q-2 -13 -2 -15zM655 615h-151v116h151
v-116zM655 250h-151v110h151v-110zM504 433v109h151v-109h-151zM696 0q42 47 78 112l-78 39q-28 -64 -73 -105z" />
</svg>
