<?xml version="1.0" standalone="no"?>
<!DOCTYPE svg PUBLIC "-//W3C//DTD SVG 1.1//EN" "http://www.w3.org/Graphics/SVG/1.1/DTD/svg11.dtd" >
<svg xmlns="http://www.w3.org/2000/svg" xmlns:xlink="http://www.w3.org/1999/xlink" version="1.1" viewBox="-10 0 1034 1024">
  <g transform="matrix(1 0 0 -1 0 820)">
   <path fill="currentColor"
d="M227 549l-165 3q-3 1 -8 3v-47q19 4 48 5l125 1v-216q-27 -15 -48 -25q-12 -4 -31 -13q-51 -22 -90 -33q12 -18 29 -51q42 28 140 80v-307q0 -22 -7 -36q-6 -6 -30 -10q-16 0 -31 -1q-18 0 -46 4q7 -13 16 -34q0 -3 1 -5q1 -3 4 -9q88 3 115 24q18 15 18 64v330l103 54
q0 24 3 57q-48 -37 -106 -69v196q79 0 94 -2q9 0 23 -4v47q-51 -6 -81 -6h-36v163q0 7 2 22q1 16 11 39h-58q4 -42 5 -72v-152zM681 517q54 -108 111 -165q18 -19 64 -55l81 -55q9 9 12 14q12 16 32 26q-34 10 -57 22q-43 24 -83 56q-72 63 -114 157h159q33 0 63 -5v47
l-63 -6h-242q6 27 11 50l14 86l216 -3q4 0 9 -2v47q-21 -1 -44 -5q-370 0 -379 3l-6 2v-47q49 4 80 5h83q-7 -75 -24 -136l-180 3q-3 1 -8 3v-47q49 4 75 5h101q-79 -183 -245 -265q27 -18 45 -33q36 28 63 52q24 21 54 52q78 82 127 194h45zM362 -19q15 -6 37 -13
q4 0 16 -7q34 60 69 133q21 51 29 60q6 9 26 24q-24 7 -55 24q-21 -63 -43 -106q-21 -45 -39 -71q-16 -22 -40 -44zM642 299q0 3 2 22q1 18 12 39h-59q1 -30 5 -61l-1 -369q-1 -9 -4 -16q-4 -6 -22 -11q-21 0 -42 -3q-7 0 -45 4q15 -31 19 -52l69 9q18 3 27 6q39 12 39 70
v362zM685 171q-4 -3 -12 -5q18 -30 38 -65q73 -141 76 -148q21 15 36 22q-21 42 -58 105l-56 104l-3 -1q-15 -6 -21 -12zM929 2q6 6 26 18l-71 115q-42 66 -75 112q-15 -10 -37 -22q97 -130 145 -235z" />
  </g>

</svg>
