<?xml version="1.0" standalone="no"?>
<!DOCTYPE svg PUBLIC "-//W3C//DTD SVG 1.1//EN" "http://www.w3.org/Graphics/SVG/1.1/DTD/svg11.dtd" >
<svg xmlns="http://www.w3.org/2000/svg" xmlns:xlink="http://www.w3.org/1999/xlink" version="1.1" viewBox="-10 0 1010 1000">
   <path fill="currentColor"
d="M685 -8q17 53 23 110h62q76 0 121 -5q5 -1 6 -1q-8 29 -8 95v36q0 79 6 103q-36 -9 -137 -8h-282q-1 217 -26 324q-22 110 -97 233q-38 -21 -89 -29q98 -111 121 -253q14 -75 17 -190q4 -111 -1 -311q31 6 133 6h85q-8 -64 -24 -100zM179 -6q92 5 99 14q0 2 -4 9
q-16 27 -16 63v143q72 0 111 -6v81q-36 -6 -111 -6v131q18 -6 103 -40l-4 80q-7 2 -24 8q-44 14 -75 25v318q3 73 -139 83q-6 -56 -30 -95q62 9 77 2q18 -5 17 -34v-250q-61 24 -110 47q-17 9 -17 7l-18 -95h2q21 3 143 -32v-155q-86 0 -133 6v-83q62 8 133 8v-139
q0 -73 -4 -90zM478 161v101h335v-101h-335zM514 383q43 8 141 8h105q93 0 141 -10q-12 30 -12 149v290q3 45 -23 58q-26 18 -110 25q1 -49 -32 -97q91 27 89 -14v-73h-216q-1 66 8 143q2 20 2 25h-97q12 -36 12 -160v-209q0 -81 -8 -135zM597 455v67h216v-67h-216zM597 586
v69h216v-69h-216z" />
</svg>
