<?xml version="1.0" standalone="no"?>
<!DOCTYPE svg PUBLIC "-//W3C//DTD SVG 1.1//EN" "http://www.w3.org/Graphics/SVG/1.1/DTD/svg11.dtd" >
<svg xmlns="http://www.w3.org/2000/svg" xmlns:xlink="http://www.w3.org/1999/xlink" version="1.1" viewBox="-10 0 1034 1024">
  <g transform="matrix(1 0 0 -1 0 820)">
   <path fill="currentColor"
d="M211 -56q0 -48 -33 -56q-21 -3 -40 -3q-24 0 -45 5q9 -25 14 -50q46 4 60 6q39 3 56 15q25 18 26 64v347l105 58q-3 27 -4 53q-24 -19 -46 -34q-21 -15 -55 -34v184h54q34 0 59 -5v47q-60 -6 -88 -6h-25q0 198 3 208q1 13 10 30h-56q3 -6 3 -25t2 -37v-176q-108 0 -132 2
q-1 0 -19 4v-47q21 4 59 5h92v-204q-84 -54 -175 -80q18 -27 29 -53q82 51 146 87v-305zM628 -73h-222q-27 0 -52 4q-4 1 -7 1v-46q21 4 59 5h512q24 0 58 -5v46q-28 -1 -58 -5h-251v233l196 -1q12 0 28 -5v46q-28 -1 -58 -5l-370 1q-15 3 -23 4v-46q15 4 34 5l154 1v-233z
M355 280q21 -9 50 -30q1 0 3 -2q30 27 71 71l76 81q34 39 57 48q4 1 10 5q-36 24 -52 41q-27 -51 -88 -115q-42 -45 -64 -62q-24 -18 -63 -37zM394 633q1 -27 5 -54l-3 -110q-1 -3 -1 -7q-1 -3 -1 -8h47q-4 49 -5 76v62h450q0 -87 -2 -114l-3 -21h49q-4 18 -5 37l-1 85
q0 18 6 54q-27 -1 -56 -5h-191q9 18 24 34q-30 33 -127 116q-18 -21 -31 -33q42 -31 71 -57q25 -24 57 -60l-244 1q-15 3 -39 4zM706 459q126 -87 199 -194q15 24 35 38q-33 34 -89 88l-112 103q-12 -16 -33 -35v0z" />
  </g>

</svg>
