<?xml version="1.0" standalone="no"?>
<!DOCTYPE svg PUBLIC "-//W3C//DTD SVG 1.1//EN" "http://www.w3.org/Graphics/SVG/1.1/DTD/svg11.dtd" >
<svg xmlns="http://www.w3.org/2000/svg" xmlns:xlink="http://www.w3.org/1999/xlink" version="1.1" viewBox="-10 0 1034 1024">
  <g transform="matrix(1 0 0 -1 0 820)">
   <path fill="currentColor"
d="M208 -64q0 -22 -3 -32q-6 -12 -25 -16q-13 -3 -45 -4q-24 0 -50 4q10 -21 19 -51q72 6 92 11q31 6 41 25q9 21 9 56v302q36 18 94 38q1 25 5 51q-57 -27 -99 -46v208h56q33 0 58 -5v46q-24 -4 -58 -5h-56v170q0 6 2 24q1 15 11 39h-57q3 -6 4 -26q0 -18 2 -37v-170h-87
q-33 0 -58 5v-46q18 4 58 5h87v-222q-99 -45 -164 -54q18 -27 28 -53q21 15 37 20q27 12 48 23l51 22v-282zM668 576q57 -90 122 -140q75 -57 153 -91q21 30 48 48q-39 3 -69 14q-45 18 -87 46q-72 46 -122 123h117q24 0 58 -6v47q-25 -6 -58 -6h-207q15 36 22 58
q15 40 37 56q-39 12 -51 17q-6 1 -15 6q-7 -75 -37 -137h-159q-34 0 -59 6v-47q24 6 59 6h138q-36 -64 -99 -111q-91 -66 -161 -75q30 -21 49 -41q42 22 67 38q16 9 50 35q45 36 75 66q33 36 69 88h60zM405 104q-3 -30 -5 -60q45 4 75 5h133v-121q0 -49 25 -66
q18 -10 56 -14q34 -1 61 -3q18 0 51 2q72 6 96 22q18 12 36 53q7 19 19 64q-19 9 -53 33v-21q0 -33 -5 -59q-10 -43 -60 -52q-39 -6 -87 -6q-18 0 -42 2q-34 4 -45 11q-13 6 -14 46v109l171 -1l44 -4q-1 15 -3 31q-3 22 -3 29l1 209q1 21 5 41q-21 -1 -30 -2q-22 -3 -30 -3
h-155q0 81 3 87q1 15 11 32h-58q3 -6 4 -13q0 -21 2 -50v-56l-169 1q-15 3 -39 4q1 -27 5 -56v-194zM442 215v98h166v-98h-166zM608 85h-166v94h166v-94zM646 215v98h171v-98h-171zM646 85v94h171v-94h-171z" />
  </g>

</svg>
