<?xml version="1.0" standalone="no"?>
<!DOCTYPE svg PUBLIC "-//W3C//DTD SVG 1.1//EN" "http://www.w3.org/Graphics/SVG/1.1/DTD/svg11.dtd" >
<svg xmlns="http://www.w3.org/2000/svg" xmlns:xlink="http://www.w3.org/1999/xlink" version="1.1" viewBox="-10 0 1034 1024">
  <g transform="matrix(1 0 0 -1 0 820)">
   <path fill="currentColor"
d="M65 204q6 -10 17 -25q55 37 64 42q27 16 71 40v-328q0 -36 -23 -43q-21 -3 -35 -3q-13 0 -47 4q15 -28 21 -49q36 3 66 9q55 12 56 68v363l21 15l69 38q9 4 19 11q0 25 -2 51q-21 -16 -41 -30q-24 -15 -66 -41v194q81 0 99 -5q0 1 3 0v47q-60 -6 -84 -6h-18v145q0 7 2 22
q1 18 12 39h-57q1 -30 5 -61v-145l-136 3l-9 3v-47q42 6 67 5h78v-214q-100 -54 -168 -78q7 -12 16 -24zM631 91l-277 1q-1 0 -19 4v-46q39 4 59 5h237v-154q0 -43 -5 -59h48q-6 33 -5 100v113h242q12 0 46 -3q1 0 16 -2v46q-30 -1 -62 -5h-242v126l180 -1l38 -4
q-3 27 -5 56l1 275q0 15 4 39q-27 -1 -54 -5h-105q15 22 31 44l55 75q21 30 53 43q-33 13 -59 32q-25 -46 -55 -91q-31 -45 -77 -103l-227 1q-15 3 -39 4q1 -27 5 -54l-1 -277q-3 -12 -4 -39q45 4 90 5h131v-126zM452 416v125h179v-125h-179zM631 253h-179v127h179v-127z
M669 416v125h175v-125h-175zM669 253v127h175v-127h-175zM537 690l-51 50q-9 9 -19 17q-4 -4 -8 -9q-7 -9 -21 -20q63 -57 138 -136q6 10 20 26q3 3 6 7l-6 6q-7 9 -13 14z" />
  </g>

</svg>
