<?xml version="1.0" standalone="no"?>
<!DOCTYPE svg PUBLIC "-//W3C//DTD SVG 1.1//EN" "http://www.w3.org/Graphics/SVG/1.1/DTD/svg11.dtd" >
<svg xmlns="http://www.w3.org/2000/svg" xmlns:xlink="http://www.w3.org/1999/xlink" version="1.1" viewBox="-10 0 1010 1000">
   <path fill="currentColor"
d="M554 -19q87 -2 101 7q0 2 -3 8q-9 19 -9 40v22h131q81 0 123 -8v79q-24 -9 -119 -8h-139v72h196q90 0 127 -10q-21 43 -61 180l-82 -17q12 -17 32 -68q7 -18 10 -26h-411q4 146 0 236q-4 92 -17 158q-23 124 -112 251q-31 -36 -81 -49q-21 36 -149 49q-1 -63 -39 -103
q127 19 123 -40v-220q-73 35 -106 60q-5 4 -6 4l-23 -108q2 -1 7 -1q37 -4 126 -36v-177q-90 0 -123 8v-83q51 8 123 8v-127q0 -62 -10 -86q92 1 105 12q0 2 -4 7q-16 23 -16 53v141q53 0 97 -8v81q-30 -9 -97 -6v151l93 -48l2 86q-15 7 -45 19q-33 14 -48 20v258
q3 57 -4 76q89 -71 116 -218q28 -143 7 -439q57 12 129 12h65v-131q-1 -55 -9 -81zM569 266q75 1 92 10q0 1 -3 6q-13 17 -13 34v18l57 -4q64 -6 93 -14q6 -2 9 -2l4 71q-17 -5 -102 2l-63 4v32q-5 31 53 28h94q38 1 45 -74q46 37 78 48q-36 90 -94 85h-164q-83 0 -82 -65
v-48q-71 3 -95 12l-4 -73q22 7 99 4q0 -63 -4 -74zM603 518q88 7 99 16q0 3 -4 10q-13 25 -17 56h129q54 0 95 -8q-12 54 -23 143q-11 102 -29 125q-17 33 -153 47q1 -52 -35 -99q70 22 103 4q27 -6 42 -153h-139q-35 176 -211 258q-12 -29 -73 -63q163 -37 208 -195
q-73 -4 -127 8v-75q36 8 135 8q6 -55 0 -82z" />
</svg>
