<?xml version="1.0" standalone="no"?>
<!DOCTYPE svg PUBLIC "-//W3C//DTD SVG 1.1//EN" "http://www.w3.org/Graphics/SVG/1.1/DTD/svg11.dtd" >
<svg xmlns="http://www.w3.org/2000/svg" xmlns:xlink="http://www.w3.org/1999/xlink" version="1.1" viewBox="-10 0 1010 1000">
   <path fill="currentColor"
d="M151 -6q77 2 103 12q0 1 -3 5q-19 23 -19 59v127q69 0 95 -6v79q-41 -6 -95 -6v145q55 -27 93 -51l4 85q-46 15 -97 40v333q4 79 -139 83q-7 -58 -35 -95q104 21 99 -26v-264q-65 30 -99 55q-5 4 -6 3l-22 -97q3 -2 14 -3q44 -6 113 -31v-177q-81 -1 -119 8v-83
q42 8 119 8v-119q1 -60 -6 -84zM913 50q-8 33 -8 192v481q0 119 14 178h-100q8 -47 8 -69h-396q0 30 7 59h-93q10 -46 10 -170v-429q0 -202 -10 -244q63 9 179 10h202q142 0 187 -8zM829 125h-398v639h398v-639zM470 193q56 8 117 8h64q100 -1 139 -4v75q-36 -8 -135 -8v115
q63 0 115 -8v72q-25 -9 -115 -6v171h30q59 0 115 -8v83q-43 -8 -121 -8h-102q-88 0 -121 6v-81q56 8 109 8h22v-169q-65 -4 -107 8v-76q41 8 107 8v-115q-94 0 -117 10v-81zM740 465q30 43 48 85l-68 30q-15 -46 -41 -92z" />
</svg>
