<?xml version="1.0" standalone="no"?>
<!DOCTYPE svg PUBLIC "-//W3C//DTD SVG 1.1//EN" "http://www.w3.org/Graphics/SVG/1.1/DTD/svg11.dtd" >
<svg xmlns="http://www.w3.org/2000/svg" xmlns:xlink="http://www.w3.org/1999/xlink" version="1.1" viewBox="-10 0 1034 1024">
  <g transform="matrix(1 0 0 -1 0 820)">
   <path fill="currentColor"
d="M213 548l-146 3q-3 1 -8 3v-48q15 4 35 5l119 1v-237q-54 -34 -89 -54q-28 -13 -57 -23l16 -28q0 -4 5 -10q0 -4 5 -10l120 81v-302q0 -24 -4 -31q-3 -6 -22 -11q-24 -3 -41 -3q-21 0 -42 4q4 -15 11 -27l6 -24q94 7 115 24q15 12 15 60v337q39 27 93 57q3 3 9 5
q-1 25 2 53q-15 -10 -30 -22q-33 -25 -57 -39q-6 -4 -17 -10v210q70 0 90 -2q12 0 25 -4v48q-63 -6 -91 -6h-24v154q0 3 2 22q1 18 12 39h-57q4 -42 5 -71v-144zM836 566q-12 -3 -44 -6l-291 3q-3 1 -7 3v-47q42 6 65 5h78v-167l-115 3q-3 1 -8 3v-47q7 3 58 6h65v-196
l-136 3q-3 1 -7 3v-47q39 4 60 5l251 -1q4 0 41 -4v47q-45 -6 -77 -6h-94v196q106 0 122 -2q16 0 29 -4v47q-3 0 -8 -1q-21 -4 -55 -5h-88v167q117 0 137 -2q12 0 24 -3v47zM807 217l-33 41q-18 27 -29 38q-15 -12 -32 -23q36 -42 55 -66q15 -21 27 -45q13 16 31 30z
M400 727q1 -27 5 -54l-1 -803q-1 -16 -4 -24h47q0 6 -2 12q-3 48 -3 74h446v-22q0 -40 -5 -60h48q-4 49 -5 60l1 777l4 40q-4 0 -8 -1l-46 -4l-436 1q-15 3 -41 4zM442 -32v718h446v-718h-446z" />
  </g>

</svg>
