<?xml version="1.0" standalone="no"?>
<!DOCTYPE svg PUBLIC "-//W3C//DTD SVG 1.1//EN" "http://www.w3.org/Graphics/SVG/1.1/DTD/svg11.dtd" >
<svg xmlns="http://www.w3.org/2000/svg" xmlns:xlink="http://www.w3.org/1999/xlink" version="1.1" viewBox="-10 0 1010 1000">
   <path fill="currentColor"
d="M147 4q100 0 105 8q1 2 -5 10q-19 27 -19 56v127q19 0 53 -1q27 -1 40 -1v71q-27 -4 -93 -4v147q50 -21 91 -48q-6 50 2 86q-76 31 -93 41v284q2 54 -26 70q-24 19 -123 31q-3 -56 -35 -101q62 13 95 -4q17 -17 18 -61v-193q-43 18 -101 52q-2 -51 -18 -95
q69 -16 119 -38v-169h-18q-43 0 -60 1q-21 1 -33 3v-73q50 4 93 4h18v-143q0 -4 -1 -10q-1 -43 -9 -50zM550 20q96 22 101 32q1 2 -7 11q-17 19 -23 33q-10 19 -29 56q-31 60 -48 94q30 0 85 -4v68q-24 -5 -85 -4h-24q0 87 -4 137h28q59 0 99 -4v73q-28 -4 -99 -4h-34
q-1 3 -2 13t-2 13q106 120 157 197q-29 9 -76 55q-27 -66 -99 -178q-34 140 -141 254q-35 -33 -97 -46q148 -76 190 -308q-48 0 -67 1q-24 1 -38 3v-73q49 4 111 4q6 -42 6 -135h-21q-53 0 -80 4v-70q48 4 80 4h53q48 -89 66 -226zM429 36q34 98 47 151l-75 16
q-18 -87 -46 -151zM675 60q32 3 77 4h115q49 0 79 -4q-14 62 -60 228q-31 113 -31 121q0 1 9 13q104 147 84 243q-17 90 -140 115q-6 -50 -38 -95q83 13 97 -40q24 -82 -79 -215q-6 -8 -6 -9q-2 -5 23 -89q46 -157 50 -201h-105v649q0 55 1 76q1 26 3 43h-83q8 -61 8 -115
v-655q0 -50 -4 -69z" />
</svg>
