<?xml version="1.0" standalone="no"?>
<!DOCTYPE svg PUBLIC "-//W3C//DTD SVG 1.1//EN" "http://www.w3.org/Graphics/SVG/1.1/DTD/svg11.dtd" >
<svg xmlns="http://www.w3.org/2000/svg" xmlns:xlink="http://www.w3.org/1999/xlink" version="1.1" viewBox="-10 0 1034 1024">
  <g transform="matrix(1 0 0 -1 0 820)">
   <path fill="currentColor"
d="M67 185q9 -13 15 -18l54 35l79 48v-297q0 -45 -22 -52q-25 -4 -53 -5q-9 1 -29 2l-15 2q4 -12 11 -24q4 -10 8 -24q57 3 78 8q60 12 60 83v327l65 36l47 24q-4 27 -8 53q-15 -12 -28 -23q-12 -9 -25 -17q-21 -15 -51 -30v193h51q27 0 58 -5v46q-30 -4 -58 -5h-51v158
q0 4 2 23q1 18 11 39h-56q3 -6 3 -26l2 -36v-158h-99q-33 0 -58 5v-46q18 4 58 5h99v-211q-82 -52 -172 -80q15 -18 24 -30zM446 512h458q-9 -13 -17 -29q-15 -27 -32 -49q21 -3 43 -11q21 45 43 83q12 24 26 47q-27 -1 -56 -5h-248v93h188q27 0 60 -5v46q-31 -4 -60 -5
h-188q0 52 3 62q1 13 10 30h-56q3 -9 4 -25l1 -196l-183 1q-15 3 -39 4q1 -28 5 -58l-1 -268q-1 -3 -1 -7q-3 -51 -12 -100q-21 -114 -78 -196q-21 -33 -60 -56q27 -6 33 -9l27 -10q36 52 61 97q42 85 57 189q12 81 12 178v199zM866 105q0 -21 -2 -44l-9 -115
q-3 -27 -10 -38q-9 -13 -46 -20q-15 -3 -49 -3q-15 3 -37 3q24 -36 27 -42q1 -3 3 -8q33 3 74 14q57 12 70 55q6 22 13 120q4 84 8 100l3 19q-15 -1 -25 -2q-18 -3 -25 -3h-184q6 48 27 69q-33 3 -64 12q3 -18 3 -30q0 -7 -3 -26q0 -12 -2 -25q-114 0 -132 3q-4 1 -10 2v-46
q21 4 58 5h78q-9 -52 -23 -85q-22 -48 -71 -88q-58 -48 -125 -62q36 -19 52 -37q85 51 138 109q49 60 70 163h193zM489 345q36 9 49 10l87 11v-41q0 -42 16 -60q13 -13 49 -17q45 -3 66 -5q31 0 70 6q43 6 61 30q12 21 29 68l-18 7q-7 3 -29 19q-6 -51 -12 -64
q-9 -22 -44 -26q-37 -3 -67 -3q-40 0 -60 4q-7 3 -11 6q-12 7 -12 45v35l124 9l57 1q-3 22 -5 43q-30 -7 -49 -10l-127 -13q0 51 3 59q1 13 10 30h-56q3 -9 3 -13l2 -77q-45 -3 -88 -8q-27 0 -54 -2z" />
  </g>

</svg>
