<?xml version="1.0" standalone="no"?>
<!DOCTYPE svg PUBLIC "-//W3C//DTD SVG 1.1//EN" "http://www.w3.org/Graphics/SVG/1.1/DTD/svg11.dtd" >
<svg xmlns="http://www.w3.org/2000/svg" xmlns:xlink="http://www.w3.org/1999/xlink" version="1.1" viewBox="-10 0 1010 1000">
   <path fill="currentColor"
d="M389 34q44 14 173 14h140q97 0 159 -8q-8 29 -8 105v48q64 0 99 -6v75q-29 -6 -101 -6v46q0 71 8 101q-24 -8 -174 -8h-153q-119 0 -149 6l3 -12q7 -23 7 -101v-30q-42 -1 -76 8v-77q43 8 76 8v-54q0 -82 -4 -109zM165 -6q46 0 99 8q0 2 -3 6q-17 23 -17 58v135
q44 1 60 -4v73q-27 -7 -60 -4v143q1 -1 17 -8q43 -19 70 -36l6 84q-30 6 -93 36v325q14 68 -133 81q-9 -57 -34 -91q91 22 92 -18v-270q-39 16 -86 40q-24 13 -27 12l-26 -89q2 -1 9 -2q43 -6 130 -36v-169q-97 0 -127 8v-79q47 6 127 6v-121q0 -51 -3 -80q-1 -6 -1 -8z
M391 449q57 8 147 8h141q128 -1 176 -10q-12 36 -12 115v51q0 83 10 112h-89q8 -56 8 -117v-84h-304v95q0 78 6 108h-85q8 -49 8 -115v-48q0 -79 -6 -115zM577 560q33 0 90 10q-16 7 -22 63q-17 213 -294 266q-15 -39 -41 -65l-8 -8q161 -17 217 -74q59 -55 58 -192z
M687 703q115 54 236 135l-58 69q-111 -94 -226 -147zM655 108v89h127v-89h-127zM583 108h-119v89h119v-89zM655 256v80h127v-80h-127zM464 256v80h119v-80h-119z" />
</svg>
