<?xml version="1.0" standalone="no"?>
<!DOCTYPE svg PUBLIC "-//W3C//DTD SVG 1.1//EN" "http://www.w3.org/Graphics/SVG/1.1/DTD/svg11.dtd" >
<svg xmlns="http://www.w3.org/2000/svg" xmlns:xlink="http://www.w3.org/1999/xlink" version="1.1" viewBox="-10 0 1034 1024">
  <g transform="matrix(1 0 0 -1 0 820)">
   <path fill="currentColor"
d="M202 546l-140 3q-3 1 -8 3v-47q42 6 65 5h83v-239q-48 -33 -82 -51q-30 -15 -66 -28q18 -21 39 -50q33 36 109 88v-284q0 -49 -20 -57q-13 -4 -42 -5q-30 0 -52 4q9 -24 15 -49q37 1 63 5q42 6 59 25q15 18 15 65v319q0 3 93 56q1 1 5 3v53q-21 -19 -41 -34
q-21 -15 -57 -38v217q82 0 111 -4q1 0 6 -1v47q-4 0 -7 -2q-72 -3 -74 -4h-36v152q0 7 2 22q1 15 13 39h-58l5 -101v-112zM365 -85q31 16 64 32q36 19 90 58q72 51 142 124l10 -65l-3 -90q-6 -25 -15 -41q-24 -42 -84 -42h-13q-15 0 -44 5q12 -25 21 -50q6 1 13 1q31 1 48 5
q13 3 29 8q58 21 77 84q9 45 9 89q0 24 -5 65q-6 39 -18 78q28 25 59 49q21 -90 48 -143q28 -55 85 -116q51 -55 60 -65q21 21 56 37q-43 16 -82 51q-61 55 -98 131q-19 40 -38 132q9 6 26 21q45 43 80 44q-18 18 -27 33q-3 3 -12 14q-51 -58 -172 -153q-40 69 -101 123
q36 27 74 58l275 -1q4 0 37 -4v46q-31 -1 -63 -5h-161q48 132 103 257q-30 -1 -59 -5h-232q4 16 14 32q1 3 3 7q9 15 36 30l-46 13q-9 3 -22 7q-4 -24 -10 -39q-6 -22 -22 -60q-15 -36 -31 -69q-15 -36 -44 -88q31 3 65 5h236q-15 -43 -35 -90q-330 0 -342 3q-6 1 -10 2v-46
q39 4 59 5h195q-127 -108 -250 -126q27 -30 35 -38q45 18 85 38q39 18 81 43q24 -19 45 -45q-70 -67 -124 -103q-82 -46 -136 -56q18 -18 34 -38q129 51 250 169q21 -30 37 -66q-24 -30 -55 -60q-57 -51 -97 -80q-69 -43 -107 -60q-43 -19 -92 -30q25 -24 39 -42q15 9 30 17
zM488 554l41 90h244l-35 -90h-250z" />
  </g>

</svg>
