<?xml version="1.0" standalone="no"?>
<!DOCTYPE svg PUBLIC "-//W3C//DTD SVG 1.1//EN" "http://www.w3.org/Graphics/SVG/1.1/DTD/svg11.dtd" >
<svg xmlns="http://www.w3.org/2000/svg" xmlns:xlink="http://www.w3.org/1999/xlink" version="1.1" viewBox="-10 0 1034 1024">
  <g transform="matrix(1 0 0 -1 0 820)">
   <path fill="currentColor"
d="M135 226l81 44v-326q0 -16 -2 -25q-1 -12 -13 -17q-24 -4 -45 -5q-13 0 -47 5q15 -31 18 -53q30 3 63 8q42 6 52 19q12 15 12 58v357q9 7 29 17q0 3 75 36q1 30 4 58q-57 -42 -108 -68v170h62q31 0 59 -5v46q-4 0 -8 -1l-51 -4h-62v160q0 4 2 23q1 18 11 39h-57
q0 -1 2 -3q0 -4 2 -10q0 -24 2 -49v-160l-155 3q-3 1 -9 2v-46q18 4 59 5h105v-190q-46 -28 -88 -48q-36 -15 -84 -30q13 -24 22 -48q48 27 69 38zM620 -92q0 -15 -5 -60h48q-3 30 -5 60v239q48 -55 70 -77q18 -16 46 -38q39 -28 63 -43q36 -21 100 -56q12 18 31 36
q4 4 12 10q-63 12 -147 59q-70 42 -142 127h173q10 0 29 -2q15 -1 29 -4v47q-4 0 -7 -2q-18 -3 -51 -4h-206q0 27 4 38q0 6 9 29h-56q1 -6 4 -32l1 -35l-202 1q-12 3 -24 5v-47q25 6 59 6h138q-63 -78 -144 -140q-63 -46 -131 -67q21 -15 31 -25q6 -6 16 -20q76 52 138 103
q57 52 119 121v-229zM661 374q0 -34 -18 -37l-31 -5q-13 0 -56 5q12 -28 15 -48q27 0 81 9q12 3 21 7q25 12 26 68v121h154q-15 -27 -30 -48q-16 -22 -46 -56q22 -3 52 -13q9 15 20 32l58 97q9 13 17 28q-66 -6 -101 -6h-130q4 6 7 11q3 3 7 9q-9 9 -18 16l91 80l92 85
l-106 -5l-297 1q-3 0 -21 4v-45q22 4 60 5h265q-30 -30 -55 -52q-22 -21 -61 -52q-42 25 -83 53q-18 -24 -28 -34l67 -37q30 -18 53 -37l2 -2l-239 1q-13 3 -23 5v-46q24 6 59 6h152q-46 -46 -122 -101q-51 -33 -113 -47l19 -13q15 -9 29 -27q106 66 231 174v-106z" />
  </g>

</svg>
