<?xml version="1.0" standalone="no"?>
<!DOCTYPE svg PUBLIC "-//W3C//DTD SVG 1.1//EN" "http://www.w3.org/Graphics/SVG/1.1/DTD/svg11.dtd" >
<svg xmlns="http://www.w3.org/2000/svg" xmlns:xlink="http://www.w3.org/1999/xlink" version="1.1" viewBox="-10 0 1010 1000">
   <path fill="currentColor"
d="M571 -8q101 17 102 22q0 3 -6 7q-10 7 -12 15q88 178 327 220q-53 48 -67 84q-7 -3 -19 -9q-67 -31 -144 -83v64q-14 -2 -40 -3q-12 -1 -29 -1h-48h-38q-77 0 -113 6v-70q-53 60 -151 129q-27 -38 -71 -51q216 -109 309 -330zM155 8q100 5 101 12q0 3 -5 11
q-17 27 -17 53v117q59 0 99 -6v77q-35 -9 -99 -6v173q42 -18 79 -42v78q-37 14 -79 35v324q1 33 -28 46q-23 13 -109 21q-2 -56 -32 -95q95 18 94 -16v-252q-58 26 -90 47q-8 5 -11 5l-18 -84q1 0 4 -1q34 -5 115 -36v-203q-72 0 -119 6v-79q38 9 119 10v-97q0 -67 -4 -98z
M615 82q-65 99 -129 160q18 3 103 4h42q93 0 111 -6q-78 -65 -127 -158zM800 356q88 5 95 11q0 1 -2 5q-12 20 -12 61v403q1 37 -28 50q-24 13 -115 19q-1 -47 -32 -93q106 22 100 -14v-302q0 -82 -5 -132q-1 -7 -1 -8zM339 377q5 0 21 1q48 3 88 3h44q88 0 117 -6
q-8 18 -8 131v308q1 44 -21 58q-19 15 -88 17q2 -51 -36 -85q86 17 78 -22v-77h-119v45q0 110 10 143h-92q14 -50 14 -151v-234q0 -95 -8 -131zM661 383q77 1 89 8q0 2 -2 7q-12 23 -12 57v153q0 92 8 142h-83q8 -73 8 -144v-106q0 -67 -7 -107q-1 -7 -1 -10zM415 441v71
h119v-71h-119zM415 572v73h119v-73h-119z" />
</svg>
