<?xml version="1.0" standalone="no"?>
<!DOCTYPE svg PUBLIC "-//W3C//DTD SVG 1.1//EN" "http://www.w3.org/Graphics/SVG/1.1/DTD/svg11.dtd" >
<svg xmlns="http://www.w3.org/2000/svg" xmlns:xlink="http://www.w3.org/1999/xlink" version="1.1" viewBox="-10 0 1010 1000">
   <path fill="currentColor"
d="M565 -15q91 -2 108 9q0 3 -5 10q-17 26 -25 68h117q91 0 127 -8v73q-42 -6 -127 -6h-127l-10 60h115q79 0 121 -6v69q-18 -2 -45 -3q-13 -1 -31 -1h-47h-123l-22 62h183q97 0 145 -10v79q-28 -10 -143 -10h-66q81 114 258 133q-42 47 -47 86q-94 -35 -173 -88v46
q-10 -2 -32 -3q-10 -1 -26 -1h-45q-5 41 -14 71h107q88 0 127 -9v83q-54 -9 -123 -8h-121q-39 154 -248 218q-21 -46 -63 -73q182 -23 232 -147h-56q-89 -1 -125 8v-81q48 9 131 9h66q7 -37 13 -73q-51 -3 -99 4v-50q-83 76 -147 110q-18 -43 -67 -64q154 -56 230 -173h-26
q-94 0 -141 8v-73q57 8 137 8h58q1 -4 5 -12q11 -25 17 -50h-36q-89 0 -119 6v-71q42 6 119 6h46l10 -60h-62q-105 0 -135 6v-73q57 8 137 8h65q1 -6 2 -16q6 -58 0 -71zM147 -19q49 0 103 11q0 1 -4 6q-20 26 -20 68v111q75 -1 113 -8v83q-44 -9 -113 -6v185l93 -38v76
l-93 31v336q1 29 -26 40q-23 11 -107 17q-9 -53 -35 -87q110 18 97 -36v-242q-78 23 -103 44l-26 -87q24 -4 129 -34v-203q-88 0 -125 10v-85q56 8 125 8v-121q0 -58 -8 -79zM679 717q105 56 204 131l-70 67q-83 -88 -188 -153zM643 371h-78q-32 61 -81 110q6 0 24 1
q35 1 59 1h62q25 0 62 -1q21 -1 29 -1q-61 -52 -77 -110z" />
</svg>
