<?xml version="1.0" standalone="no"?>
<!DOCTYPE svg PUBLIC "-//W3C//DTD SVG 1.1//EN" "http://www.w3.org/Graphics/SVG/1.1/DTD/svg11.dtd" >
<svg xmlns="http://www.w3.org/2000/svg" xmlns:xlink="http://www.w3.org/1999/xlink" version="1.1" viewBox="-10 0 1010 1000">
   <path fill="currentColor"
d="M171 -2q78 -2 99 6q1 1 -5 9q-17 24 -17 43v131q49 0 67 -1q22 0 42 -3v71q-20 -3 -42 -3q-18 -1 -67 -1v157q48 -21 99 -53v89q-48 13 -99 40v279q-5 122 -157 121q0 -53 -33 -99q33 9 69 7q34 -3 44 -15q6 2 6 -81v-187q-95 44 -114 58q-4 -44 -27 -91q64 -13 141 -42
v-183h-28q-51 0 -68 1q-22 0 -35 3v-69q13 2 35 3q11 1 26 1h42h28v-133q0 -38 -6 -58zM589 504q55 0 72 1q22 1 24 3q1 1 -4 5q-9 9 -10 15q-2 8 -2 26h143q82 0 121 -6v77q-47 -7 -121 -8h-90q129 146 252 165q-42 36 -61 83q-182 -93 -244 -250v173q1 90 6 111h-90
q10 -35 10 -111v-171q-71 132 -252 243q-33 -49 -81 -60q171 -67 268 -183h-68q-98 1 -129 8v-79q27 7 129 8h135q0 -29 -8 -50zM355 441q136 -42 218 -141h-79h-89q-25 1 -34 2v-69q17 4 123 4h103q-65 -54 -99 -68l65 -48q14 14 68 53q12 8 16 11q82 -52 145 -81h-268
q-101 2 -129 8v-82q34 9 131 10h359v85q-70 19 -214 112h170q70 -1 96 -6q-6 15 -19 49q-14 34 -21 52q-14 34 -22 77q-45 -21 -89 -20q24 -30 43 -89h-101v101q4 95 -137 99q0 -40 -28 -89q21 9 52 9t36 -9q8 -26 6 -111h-18q-95 131 -228 202q-23 -38 -56 -61z" />
</svg>
