<?xml version="1.0" standalone="no"?>
<!DOCTYPE svg PUBLIC "-//W3C//DTD SVG 1.1//EN" "http://www.w3.org/Graphics/SVG/1.1/DTD/svg11.dtd" >
<svg xmlns="http://www.w3.org/2000/svg" xmlns:xlink="http://www.w3.org/1999/xlink" version="1.1" viewBox="-10 0 1010 1000">
   <path fill="currentColor"
d="M171 -4q91 2 105 12q0 2 -5 9q-17 24 -17 53v135q75 0 117 -6v83q-51 -9 -117 -6v161l101 -50l2 84l-103 41v280q10 68 -159 79q3 -47 -35 -107q131 18 119 -39v-187q-70 29 -107 53q-7 4 -9 5l-27 -94q2 -3 14 -4q51 -7 129 -37v-183q-100 0 -135 8v-87q59 8 135 8v-90
q0 -76 -7 -115q-1 -5 -1 -6zM855 16q-6 30 -6 101v46q0 71 6 95q-18 -8 -180 -8h-68q-122 -1 -184 8q4 -18 4 -107v-32q0 -80 -6 -101q47 6 156 6h117q96 0 161 -8zM502 88v99h272v-99h-272zM937 296v81q-29 -10 -108 -10v340q1 -1 26 -3q75 -6 97 -13l-2 81l-119 2
q-3 98 8 127h-97q12 -42 12 -123q-293 17 -413 35q-11 1 -12 1l-12 -91h3q36 3 111 0v-354q-43 -3 -74 6v-77q36 9 173 10h250q118 0 157 -12zM506 367v76h246v-76h-246zM754 498h-248v74h248v-74zM754 635h-248v86l248 -10v-76z" />
</svg>
