<?xml version="1.0" standalone="no"?>
<!DOCTYPE svg PUBLIC "-//W3C//DTD SVG 1.1//EN" "http://www.w3.org/Graphics/SVG/1.1/DTD/svg11.dtd" >
<svg xmlns="http://www.w3.org/2000/svg" xmlns:xlink="http://www.w3.org/1999/xlink" version="1.1" viewBox="-10 0 1010 1000">
   <path fill="currentColor"
d="M165 -2q94 0 95 14q2 5 -5 16q-15 26 -15 58v115h34q65 0 99 -8v83q-24 -9 -103 -8h-30v169q0 -1 12 -6q45 -21 95 -48l2 88l-109 47v254q6 109 -143 123q-9 -56 -35 -103q67 10 87 -3q24 -13 24 -58v-191q-15 8 -36 19q-47 24 -79 49l-22 -104q64 -10 137 -47v-189h-40
q-74 0 -97 8v-83q44 8 97 8h40v-117q0 -44 -7 -78q-1 -7 -1 -8zM873 24q-6 32 -6 91v177q0 60 6 91q-29 -6 -103 -6h-252q-78 0 -103 6q6 -41 6 -89v-181q0 -53 -6 -89q29 6 101 6h252q66 0 105 -6zM496 94v75h296v-75h-296zM496 237v73h296v-73h-296zM373 429q35 6 135 6
h298q88 0 136 -8v83q-41 -9 -136 -8h-119v88h79q67 0 115 -8v79q-36 -9 -115 -8h-79v125q61 15 273 -2l-39 99q-195 2 -290 -31q-86 -25 -179 -125q-44 93 -93 168l-83 -43q114 -108 157 -304q10 3 29 8q68 18 64 24q0 6 -8 15q-24 26 -38 72q39 53 131 99v-256h-101
q-101 -1 -137 8v-81z" />
</svg>
