<?xml version="1.0" standalone="no"?>
<!DOCTYPE svg PUBLIC "-//W3C//DTD SVG 1.1//EN" "http://www.w3.org/Graphics/SVG/1.1/DTD/svg11.dtd" >
<svg xmlns="http://www.w3.org/2000/svg" xmlns:xlink="http://www.w3.org/1999/xlink" version="1.1" viewBox="-10 0 1034 1024">
  <g transform="matrix(1 0 0 -1 0 820)">
   <path fill="currentColor"
d="M441 376q-48 0 -67 6v-48q15 3 32 4l503 1q27 0 57 -3q3 0 8 -2v48q-6 -3 -13 -4q-27 0 -52 -2h-163q25 58 51 107q19 39 53 65q-18 6 -30 13q-12 6 -31 20q-3 -25 -39 -110q-31 -69 -47 -95h-262zM910 640q-33 -1 -66 -5l-413 1q-19 1 -32 4v-47q12 3 44 4l401 1
q36 0 64 -4l2 -1v47zM453 -95q0 -25 -4 -53q0 -4 -3 -11h52q0 1 -1 5q-3 6 -3 30l-1 47h332q-3 -57 -5 -63q-1 0 -2 -4h53q-3 7 -4 29q-1 24 -2 54l1 284q0 1 5 47q-33 -1 -66 -5l-310 1q-19 3 -49 4q1 -15 3 -30q3 -24 4 -37v-298zM493 110v119h332v-119h-332zM493 -39v113
h332v-113h-332zM549 754l79 -65q24 -22 44 -46q12 16 34 31q-19 18 -103 88q-18 15 -26 23q-12 -16 -28 -31zM182 -62q0 -24 -8 -33q-6 -4 -28 -5q-36 0 -80 11q4 -12 7 -20q0 -1 2 -18q0 -7 2 -17l37 1q58 1 78 10q30 12 30 54v362l75 48q45 28 50 30q-6 22 -10 44
q-24 -18 -48 -35q-25 -18 -67 -44v191l103 -1l38 -4v48q-10 -3 -23 -4l-118 -2v139q0 10 2 28q1 18 12 41h-59q4 -109 5 -115v-93h-70q-43 0 -66 6v-48q15 3 32 4l104 1v-213q-43 -27 -82 -46q-33 -15 -62 -21q16 -21 28 -49q6 3 41 29l75 45v-324zM477 549l18 -24
q34 -45 45 -63q15 -25 31 -60q21 13 42 21l-43 67q-39 55 -58 85q-13 -12 -35 -26v0z" />
  </g>

</svg>
