<?xml version="1.0" standalone="no"?>
<!DOCTYPE svg PUBLIC "-//W3C//DTD SVG 1.1//EN" "http://www.w3.org/Graphics/SVG/1.1/DTD/svg11.dtd" >
<svg xmlns="http://www.w3.org/2000/svg" xmlns:xlink="http://www.w3.org/1999/xlink" version="1.1" viewBox="-10 0 1010 1000">
   <path fill="currentColor"
d="M143 2q105 3 101 10q0 2 -5 9q-17 27 -17 51v145q57 0 95 -6v79q-38 -9 -95 -6v145q44 -19 99 -48l-2 88l-97 33v324q14 59 -129 67q0 -3 -1 -8q-6 -55 -30 -83q96 23 89 -32v-242q-65 22 -106 45q-6 3 -7 3l-12 -89q1 -2 11 -3q44 -6 114 -29v-169q-87 0 -115 8v-83
q41 8 115 8v-121q-1 -69 -8 -96zM935 42v81q-36 -6 -161 -6h-353v677h375q87 0 150 -8v83q-29 -7 -144 -7h-268q-151 0 -197 7q12 -62 12 -184v-427q0 -154 -8 -216q75 8 201 8h230q76 0 163 -8zM500 161q71 8 139 8h97q93 0 135 -6q-6 27 -6 105v52q0 81 8 123q-1 0 -7 -1
q-45 -5 -110 -5h-91q36 12 37 16q-1 4 -7 9q-15 14 -26 38h152q78 0 125 -12v74q-41 -6 -107 -6q-20 45 -57 97q77 24 131 48l-48 71q-56 -43 -127 -67q-69 44 -230 75q-10 -29 -44 -65q131 -12 203 -44l-143 -36q22 -30 51 -79q-71 -1 -125 8v-74q54 10 145 10
q8 -13 26 -61q-88 -6 -121 10q6 -21 6 -133v-50q0 -69 -6 -105zM575 229v43h217v-43h-217zM792 332h-217v45h217v-45zM764 556h-121q-20 29 -32 50q28 5 77 19q17 4 24 6q27 -21 52 -75z" />
</svg>
