<?xml version="1.0" standalone="no"?>
<!DOCTYPE svg PUBLIC "-//W3C//DTD SVG 1.1//EN" "http://www.w3.org/Graphics/SVG/1.1/DTD/svg11.dtd" >
<svg xmlns="http://www.w3.org/2000/svg" xmlns:xlink="http://www.w3.org/1999/xlink" version="1.1" viewBox="-10 0 1034 1024">
  <g transform="matrix(1 0 0 -1 0 820)">
   <path fill="currentColor"
d="M220 -57q0 -27 -5 -37q-4 -6 -17 -11q-18 -4 -47 -5q-13 0 -54 8q0 -6 13 -29q9 -21 9 -26q46 3 70 7q39 6 55 23q13 18 14 65v335q84 46 86 47q12 6 27 15q-1 24 -1 48q-54 -36 -112 -69v190h46q39 0 73 -5v48q-6 0 -10 -2q-30 -4 -63 -5h-46v149q0 12 2 31q1 21 11 47
h-56q4 -66 5 -108v-119q-99 0 -125 2q-15 4 -23 5v-48q3 3 50 5h98v-210q-96 -54 -159 -74q24 -36 34 -53q45 36 65 49l60 35v-308zM400 -62q-3 -28 -5 -58q28 3 59 5l473 -1q18 0 41 -4v46q-33 -4 -72 -5h-458v760h434q28 0 73 -5v46q-33 -4 -73 -5l-434 1q-15 3 -43 4
q1 -30 5 -60v-724zM548 242q-39 0 -61 5q-4 1 -8 1v-47q9 4 60 7h76q-27 -39 -57 -73q-6 -7 -15 -17l99 -32l57 -24q-42 -27 -100 -45q-45 -10 -114 -18q27 -24 40 -47q57 15 105 33q51 21 113 61l109 -48q33 -16 66 -36l7 13q12 24 16 28q-30 13 -169 70q21 24 42 54
q22 33 51 81q54 0 67 -2q3 0 33 -5v47q-42 -6 -72 -6h-205q27 39 64 64q-24 12 -42 26q81 0 168 -3q9 0 18 -3q-4 49 -5 73l1 165l4 46q-30 -1 -60 -5l-249 1q-15 3 -44 4l5 -106l-3 -163q-1 -6 -2 -15l34 4l116 2q-9 -19 -18 -36q-12 -19 -35 -54h-92zM851 367h-264v79h264
v-79zM587 482v87h264v-87h-264zM607 136l51 72h160q-37 -73 -88 -120q-12 6 -27 11q-81 33 -96 37v0z" />
  </g>

</svg>
