<?xml version="1.0" standalone="no"?>
<!DOCTYPE svg PUBLIC "-//W3C//DTD SVG 1.1//EN" "http://www.w3.org/Graphics/SVG/1.1/DTD/svg11.dtd" >
<svg xmlns="http://www.w3.org/2000/svg" xmlns:xlink="http://www.w3.org/1999/xlink" version="1.1" viewBox="-10 0 1010 1000">
   <path fill="currentColor"
d="M175 -8q83 0 97 10q1 1 -2 7q-14 24 -14 53v147q58 0 80 -1q26 -1 33 -3v75q-5 -3 -28 -3q-11 -1 -29 -1h-56v161q51 -20 99 -50q-2 26 10 86q-49 14 -109 43v258v13q36 95 -149 120q-1 -49 -30 -101q78 8 92 -10q10 -12 10 -75v-173q-65 24 -114 60q-6 -39 -35 -96
q59 -11 149 -45v-189h-26q-63 0 -80 1q-22 0 -31 3v-75q9 3 31 3q11 1 28 1h52h26v-129q0 -47 -1 -61q0 -18 -3 -29zM649 -12q94 4 99 12q1 1 -4 7q-15 22 -16 45q-2 29 -2 39v32v54q86 -38 163 -97q54 72 49 87q-1 2 -11 1q-17 0 -28 3q-4 1 -12 4q-113 39 -161 62v53
q-2 39 22 46q17 5 63 3q38 -2 48 -9q25 -18 34 -90q41 44 75 52q-17 70 -51 97q-22 16 -88 21q-76 4 -131 -7q-45 -11 -47 -67v-247q-1 -74 -2 -101zM399 -2q90 0 97 6q1 4 -4 13q-8 17 -10 31q-2 12 -3 33q-1 17 -1 62h42q68 0 107 -6v74q-54 -6 -111 -6h-38v135
q45 -16 125 -62q-5 38 8 82q-144 55 -194 91q-13 -32 -38 -70q-2 -1 -2 -2q31 -20 30 -83v-216q-1 -61 -8 -82zM562 391q66 15 85 26q1 1 -6 9q-9 11 -14 19q-4 7 -10 19q-4 8 -16 28h195q59 0 83 -4q-4 24 -4 68v292q-1 39 4 51h-87q4 -14 4 -51h-318q0 40 4 59h-87
q5 -14 4 -57v-298q0 -48 -4 -64q20 4 87 4h60q14 -35 20 -101zM480 554v83h316v-83h-316zM480 699v87h316v-87h-316z" />
</svg>
