<?xml version="1.0" standalone="no"?>
<!DOCTYPE svg PUBLIC "-//W3C//DTD SVG 1.1//EN" "http://www.w3.org/Graphics/SVG/1.1/DTD/svg11.dtd" >
<svg xmlns="http://www.w3.org/2000/svg" xmlns:xlink="http://www.w3.org/1999/xlink" version="1.1" viewBox="-10 0 1010 1000">
   <path fill="currentColor"
d="M159 -4q55 0 103 10q0 2 -3 6q-17 20 -17 54v137q38 0 99 -8v87q-42 -9 -99 -8v151q11 -6 31 -17q43 -23 62 -35l10 76l-103 49v308q5 73 -143 87q-2 -56 -34 -97q102 24 102 -28v-240q-43 26 -78 52q-10 7 -12 8l-27 -88q26 -2 117 -47v-179q-74 -3 -117 8v-85
q35 6 117 6v-105q0 -57 -7 -94q-1 -6 -1 -8zM593 -4q38 -3 97 6q0 1 -2 6q-13 25 -13 72v117h135v-68q0 -43 -5 -74q-1 -8 -1 -11q46 0 97 6q0 1 -2 6q-14 22 -14 63v64q0 63 8 93q-45 -9 -151 -8h-179q-125 -1 -182 8q8 -41 8 -99v-40q0 -63 -3 -92q-1 -5 -1 -7q43 0 91 8
q0 2 -2 6q-10 20 -10 50v95h135v-121q0 -51 -5 -75q-1 -4 -1 -5zM353 332q55 9 163 10h274q111 0 158 -10v85q-26 -8 -152 -8h-147l-26 87h141q120 0 145 -8q-4 39 -4 116v198q7 85 -107 99q-3 -36 -30 -77q68 14 65 -62v-198h-99v143q0 95 8 119h-81q6 -24 6 -119v-143h-78
v149q0 83 6 131h-79q6 -42 6 -131v-149h-89v178q0 110 9 143h-89q8 -59 8 -135v-115q0 -112 -10 -147q48 9 139 10h64l15 -89h-49q-125 -1 -167 8v-85z" />
</svg>
