<?xml version="1.0" standalone="no"?>
<!DOCTYPE svg PUBLIC "-//W3C//DTD SVG 1.1//EN" "http://www.w3.org/Graphics/SVG/1.1/DTD/svg11.dtd" >
<svg xmlns="http://www.w3.org/2000/svg" xmlns:xlink="http://www.w3.org/1999/xlink" version="1.1" viewBox="-10 0 1034 1024">
  <g transform="matrix(1 0 0 -1 0 820)">
   <path fill="currentColor"
d="M629 -87q-3 -36 -3 -51l-2 -11h48q-1 3 -1 5q0 1 -4 53v232q39 -57 63 -84q21 -24 64 -63q55 -49 139 -103q22 22 55 41q-75 16 -143 71q-90 69 -142 153l213 -1l35 -4v46q-10 -1 -23 -4l-261 -1v90l216 -1q21 0 30 -4h5v46q-9 -3 -23 -3q-18 0 -41 -2h-376v251h104
q0 -108 -2 -137q-3 -6 -3 -34q51 4 101 5q90 0 104 -2q18 0 35 -3q-4 54 -5 79v92l138 -3q3 0 7 -2v46q-7 -3 -22 -3q-21 0 -41 -2h-82v89q0 31 14 67h-57q1 -6 2 -14q1 -27 3 -53v-89h-154v85q0 33 13 67h-56l5 -106v-46h-104v57q0 33 14 66h-57l5 -108v-15h-44
q-45 0 -64 5v-46q12 3 54 5h54l-1 -248q-3 -12 -4 -44q49 4 98 5h96v-90h-214q-48 0 -66 5v-46q15 3 31 4l211 1q-168 -214 -290 -222q22 -22 42 -48q172 108 286 258v-231zM620 439v130h154v-130h-154zM125 189q16 9 35 21q16 9 43 23v-296q0 -30 -15 -36q-13 -3 -33 -4
q-33 0 -71 8q6 -21 10 -50q58 1 75 3q46 4 61 22q10 15 11 39v334l70 32q22 12 45 22l24 9q-9 36 -9 45v3q-42 -31 -130 -71v198q54 0 112 -3q1 0 9 -2v46q-9 -3 -13 -3q-12 0 -50 -2h-58v166q0 36 14 67h-57q1 -6 2 -13q1 -27 3 -54v-166h-77q-40 0 -64 5v-46q15 3 30 4
l111 1v-218q-27 -15 -76 -38q-33 -13 -68 -22q13 -16 28 -48q24 18 38 24v0z" />
  </g>

</svg>
