<?xml version="1.0" standalone="no"?>
<!DOCTYPE svg PUBLIC "-//W3C//DTD SVG 1.1//EN" "http://www.w3.org/Graphics/SVG/1.1/DTD/svg11.dtd" >
<svg xmlns="http://www.w3.org/2000/svg" xmlns:xlink="http://www.w3.org/1999/xlink" version="1.1" viewBox="-10 0 1010 1000">
   <path fill="currentColor"
d="M181 8q90 5 103 12q0 3 -6 12q-16 25 -16 50v131q84 0 133 -8v81q-14 -4 -44 -5q-14 -1 -34 -1h-55v145q66 -27 109 -54l2 92q-8 3 -37 13q-44 16 -74 26v300q3 74 -155 85q-3 -53 -36 -105q124 22 116 -34v-220q-52 22 -100 49q-22 12 -22 9l-17 -101h1q17 1 138 -32
v-169q-104 1 -141 6v-85q38 8 141 8v-133q0 -53 -6 -72zM427 26q43 9 158 10h131q128 0 173 -12q-8 24 -8 153v52q0 82 1 108q1 33 5 44q-27 -4 -61 -5q-16 -1 -41 -1h-71h-107q-24 34 -63 74h190q101 0 139 -1q46 -2 65 -7q-4 45 -9 153q-11 223 -24 246q-27 44 -159 63
q-5 -55 -28 -77q-17 -5 -46 -6q-28 -2 -99 -2q-82 0 -112 1q-37 1 -58 5q11 -29 12 -125q0 -60 -1 -79q-2 -24 -7 -34l-46 35q-23 -31 -73 -59q130 -43 232 -191q-72 0 -93 6q8 -23 8 -131v-91q0 -102 -8 -129zM506 104v69h304v-69h-304zM506 240v68h304v-68h-304zM633 512
h-139l-54 48q62 5 64 10q0 1 -4 6q-16 20 -16 41v133h121q98 0 129 -10v66q77 8 87 -14q29 -38 34 -282h-147q-8 15 -20 40l-7 14q80 43 140 95l-61 58q-61 -78 -109 -105q-35 58 -88 109q-28 -23 -73 -34q79 -33 143 -175z" />
</svg>
