<?xml version="1.0" standalone="no"?>
<!DOCTYPE svg PUBLIC "-//W3C//DTD SVG 1.1//EN" "http://www.w3.org/Graphics/SVG/1.1/DTD/svg11.dtd" >
<svg xmlns="http://www.w3.org/2000/svg" xmlns:xlink="http://www.w3.org/1999/xlink" version="1.1" viewBox="-10 0 1010 1000">
   <path fill="currentColor"
d="M177 -2q90 1 99 14q1 4 -6 16q-9 17 -10 28q0 4 -2 22q-4 28 -4 39v76h12q68 0 103 -4v73q-73 -6 -107 -6h-10v163l91 -40v76l-91 39q0 41 -1 116q0 224 -9 232q-12 29 -53 42q-21 8 -49 10q-32 2 -51 -1q-12 -53 -35 -101q76 30 113 2q11 -14 12 -272q-22 11 -67 32
q-38 18 -58 28l-16 -94q18 -3 81 -24q41 -14 60 -19v-189h-12q-55 0 -113 4v-73q12 1 38 2q58 4 75 4h14v-131q0 -48 -4 -64zM871 10q53 61 48 86q-4 3 -16 0q-16 -4 -28 -4q-157 1 -464 33q-19 -51 -42 -77q228 2 502 -38zM802 123q72 26 87 46q0 2 -13 12q-14 11 -19 16
q-22 20 -67 83h18q68 -2 105 -6v72q-72 -5 -107 -6h-171q-12 43 -24 69h189q94 -1 135 -6v72q-62 -4 -133 -6h-209q-5 14 -20 43q-8 18 -13 28h170q70 0 123 -6q9 -1 6 8q-60 132 -141 210q87 40 234 42q-43 45 -55 103q-120 -26 -236 -97q-109 67 -228 99q-24 -50 -60 -81
q124 -3 230 -62q-41 -30 -95 -117q-58 91 -161 181q-44 -44 -83 -58q148 -77 250 -293h-22q-80 1 -131 6v-70q78 4 137 4h32q16 -36 22 -69h-24q-85 1 -141 6v-72q102 6 141 6h188q48 -60 86 -157zM667 135q17 50 25 111l-75 8q0 -41 -24 -113zM498 141q16 30 32 105l-76 14
q-12 -61 -31 -109zM556 600q45 78 99 119q58 -56 95 -119h-194z" />
</svg>
