<?xml version="1.0" standalone="no"?>
<!DOCTYPE svg PUBLIC "-//W3C//DTD SVG 1.1//EN" "http://www.w3.org/Graphics/SVG/1.1/DTD/svg11.dtd" >
<svg xmlns="http://www.w3.org/2000/svg" xmlns:xlink="http://www.w3.org/1999/xlink" version="1.1" viewBox="-10 0 1010 1000">
   <path fill="currentColor"
d="M567 -8q84 -4 90 4q1 2 -2 11q-12 54 -12 146h97q0 -131 -6 -161q78 -3 89 8q2 2 -1 17q-14 59 -14 136q84 0 123 -6v78q-54 -9 -123 -6q-2 106 4 152q-27 -6 -112 -6t-131 6q2 -16 3 -49q1 -16 1 -39v-64h-81v206h286q77 0 119 -6v77q-57 -9 -121 -6h-109v78h123
q88 0 133 -6v79q-59 -6 -133 -6h-54q50 109 222 153q-40 25 -61 75q-176 -86 -230 -226v137q-1 92 8 131h-92q6 -35 6 -129v-119q-94 124 -244 212q-26 -45 -63 -67q147 -53 238 -167h-50q-75 0 -129 6v-79q54 6 139 6h109v-78q-115 -3 -174 6q6 -46 6 -103v-174
q-42 0 -58 4v-74q11 5 58 4q0 -60 -1 -82q-1 -27 -3 -43q87 4 91 12q1 2 -2 8q-14 33 -14 105h81q0 -128 -6 -161zM183 -2l36 3q59 3 59 9q1 2 -2 11q-16 43 -16 118v64q57 -1 87 -4v73q-29 -4 -87 -4v139q15 -7 39 -19q50 -26 60 -30q4 12 10 51l4 28q-37 9 -113 46v337
q11 51 -145 73q0 -51 -28 -97q105 22 101 -28v-256q-93 43 -123 68q-6 -17 -8 -26q-6 -19 -11 -27q-4 -8 -16 -35q88 -26 158 -59v-165q-76 -3 -138 6v-77q50 6 138 6v-62q0 -60 -1 -85q-1 -31 -4 -58zM740 219h-97v81h97v-81z" />
</svg>
