<?xml version="1.0" standalone="no"?>
<!DOCTYPE svg PUBLIC "-//W3C//DTD SVG 1.1//EN" "http://www.w3.org/Graphics/SVG/1.1/DTD/svg11.dtd" >
<svg xmlns="http://www.w3.org/2000/svg" xmlns:xlink="http://www.w3.org/1999/xlink" version="1.1" viewBox="-10 0 1034 1024">
  <g transform="matrix(1 0 0 -1 0 820)">
   <path fill="currentColor"
d="M86 159q18 19 47 40q36 25 68 44v-298q0 -42 -21 -46q-13 -3 -40 -4q-21 0 -46 4q12 -28 17 -49q51 3 75 8q52 12 53 73v337q69 39 98 54q1 25 6 58q-51 -39 -104 -72v202q69 0 87 -5h6v47q-63 -6 -93 -6v157q0 7 2 22q1 15 13 39h-58q1 -30 5 -61v-157l-124 3q-3 0 -9 3
v-47q42 6 70 5h63v-226q-33 -21 -73 -44q-39 -18 -70 -29q3 -4 10 -17q4 -10 7 -13q4 -10 11 -22zM569 -89q0 -39 -5 -59h48q-3 4 -5 47v175q34 6 64 14q1 9 4 17l7 28l-75 -23v566q27 0 55 -5v46q-24 -4 -63 -5h-210q-37 0 -64 5v-46q12 0 25 3q15 0 40 2v-614
q-33 -6 -77 -8q3 -15 7 -21q6 -18 6 -28l82 22l161 36v-152zM569 101l-142 -31v199h142v-168zM427 305v169h142v-169h-142zM427 510v166h142v-166h-142zM717 -89q0 -45 -5 -59h48q0 6 -2 12q-1 24 -3 47v752h153q-45 -150 -105 -275q42 -45 76 -93q52 -81 53 -152
q0 -67 -49 -86q-24 -9 -57 -10q-7 0 -30 3q9 -24 16 -48q61 7 94 23q63 33 63 122q0 60 -32 120q-22 45 -91 128l82 210l37 100q-48 -6 -65 -6l-148 1q-12 3 -22 3q-6 0 -18 2q1 -27 5 -56v-738z" />
  </g>

</svg>
