<?xml version="1.0" standalone="no"?>
<!DOCTYPE svg PUBLIC "-//W3C//DTD SVG 1.1//EN" "http://www.w3.org/Graphics/SVG/1.1/DTD/svg11.dtd" >
<svg xmlns="http://www.w3.org/2000/svg" xmlns:xlink="http://www.w3.org/1999/xlink" version="1.1" viewBox="-10 0 1034 1024">
  <g transform="matrix(1 0 0 -1 0 820)">
   <path fill="currentColor"
d="M208 -50q0 -33 -7 -40q-6 -9 -40 -12q-16 0 -19 -1q-22 0 -44 6q10 -22 16 -53q58 6 89 13q21 6 30 18q12 16 13 53v308q31 18 98 47q16 4 36 12l6 53q-39 -22 -71 -39q-30 -15 -69 -32v214h61q28 0 59 -7v48q-60 -6 -88 -6h-32q0 195 3 203q1 13 10 30h-57q4 -9 5 -42
l1 -191h-90q-30 0 -45 4q-4 0 -13 2v-48q18 6 58 7h90v-231q-45 -22 -82 -38q-37 -13 -73 -22q18 -24 35 -51q36 30 120 70v-275zM681 339v-105q0 -34 9 -52q15 -21 42 -26q39 -6 73 -7h11q7 1 51 4q64 4 89 44q9 18 21 70q-9 3 -14 6q-16 10 -34 21q0 -13 1 -21
q0 -72 -49 -81q-55 -4 -86 -5q-48 6 -60 9q-1 1 -3 1q-12 6 -12 37v105q121 0 136 -2q15 0 32 -3q-4 45 -5 69q0 96 2 108q0 9 2 13q0 9 1 18q-28 -1 -57 -5h-159q42 48 64 69q4 6 9 9q12 12 48 54l-69 -6h-201q37 45 55 61q12 12 43 28q-37 18 -58 35q-27 -48 -84 -115
q-64 -66 -134 -93q37 -21 48 -33q51 39 97 81h216q-40 -43 -87 -90q-150 0 -172 2q-6 3 -30 3q1 -27 5 -54l-1 -113q-3 -12 -4 -41q39 4 66 5h107q-45 -67 -102 -117q-79 -63 -177 -83q21 -15 48 -43q108 60 172 115q60 54 100 128h50zM459 375v126h178q-9 -69 -31 -126
h-147zM645 375q9 28 17 53l16 73h167v-126h-200zM552 -21q-19 6 -39 14q-7 -19 -18 -40q-1 0 -1 -1l92 -25q39 -12 83 -31q76 -31 137 -73q4 18 20 42q-108 57 -211 92q-31 12 -63 22zM548 114q66 -18 123 -42q48 -19 64 -29q25 -12 48 -28q6 22 18 40l-46 23l-103 43
q-31 15 -84 33q-9 -24 -20 -40v0z" />
  </g>

</svg>
