<?xml version="1.0" standalone="no"?>
<!DOCTYPE svg PUBLIC "-//W3C//DTD SVG 1.1//EN" "http://www.w3.org/Graphics/SVG/1.1/DTD/svg11.dtd" >
<svg xmlns="http://www.w3.org/2000/svg" xmlns:xlink="http://www.w3.org/1999/xlink" version="1.1" viewBox="-10 0 1010 1000">
   <path fill="currentColor"
d="M161 -2q94 1 105 10q1 3 -6 11q-17 22 -18 45v141q44 0 58 -1q18 0 37 -3v75q-22 -4 -95 -4v151q53 -28 79 -48q-3 47 8 90q-24 6 -87 35v270q3 75 -21 87q-18 19 -128 28q-3 -48 -37 -101q31 8 64 9q36 2 43 -3q7 -2 6 -65v-191q-30 16 -109 60q-4 -50 -22 -106
q53 -5 131 -35v-179h-22q-48 0 -63 1q-19 0 -34 3v-77q30 4 97 4h22v-145q0 -46 -8 -62zM595 8q81 -6 97 4q1 2 -4 10q-16 22 -17 48v127h137q76 0 123 -8v83q-36 -4 -127 -6h-70q71 97 218 123q-9 9 -23 22q-31 26 -42 58q-148 -54 -216 -189v60q1 57 10 95h-70q4 3 17 8
q20 8 35 16q3 1 -7 6q-17 9 -21 16q-17 21 -26 45h206q80 -1 127 -8v86q-26 -7 -127 -8h-17q-44 102 -66 135q106 41 201 83q-39 34 -66 81q-93 -61 -186 -105q-93 79 -310 107q-13 -48 -63 -85q187 5 299 -56q-67 -25 -180 -51q-13 -3 -18 -4q40 -46 79 -105h-51
q-81 1 -116 10v-88q27 7 119 8h82q29 -59 38 -109q1 1 6 3q15 6 23 9q0 -1 1 -4q13 -42 13 -85v-72q-67 127 -196 199q-25 -33 -68 -62q138 -50 199 -137h-44q-57 0 -78 1q-27 1 -45 5v-83q48 7 121 8h111v-135q0 -34 -7 -54q-1 -1 -1 -2zM786 18q89 40 89 46q1 2 -7 9
q-16 13 -25 25q-15 20 -53 83q-44 -24 -76 -24q50 -72 72 -139zM478 32q22 33 61 103q6 11 9 16l-80 28q-19 -57 -65 -117zM710 596h-143q-11 20 -30 49q-10 16 -13 22q40 10 131 36q11 -13 43 -81q8 -17 12 -26z" />
</svg>
