<?xml version="1.0" standalone="no"?>
<!DOCTYPE svg PUBLIC "-//W3C//DTD SVG 1.1//EN" "http://www.w3.org/Graphics/SVG/1.1/DTD/svg11.dtd" >
<svg xmlns="http://www.w3.org/2000/svg" xmlns:xlink="http://www.w3.org/1999/xlink" version="1.1" viewBox="-10 0 1010 1000">
   <path fill="currentColor"
d="M530 -17q92 19 105 31q1 1 -14 14q-9 8 -14 12q-15 12 -40 50h157q42 0 99 -8q-35 56 -109 162h88q67 0 107 -7q-7 34 -8 91v43q1 51 10 92q-38 -7 -113 -8h-72v77q0 30 34 38q24 5 60 3q32 -2 41 -9q17 -15 26 -81q29 34 77 45q-22 79 -57 99q-29 14 -90 15
q-68 1 -115 -11q-48 -12 -45 -63v-113h-26q-108 158 -286 232q-23 -46 -69 -72q162 -33 284 -162h-66q-84 1 -117 8q7 -32 8 -84v-49q-1 -63 -8 -91q40 6 103 7h153q45 -60 59 -93h-164q-20 29 -58 75q-7 8 -10 12q-36 -25 -89 -33q109 -84 159 -222zM177 6q84 1 103 8
q1 1 -3 6q-19 31 -19 62v117q53 0 70 -1q22 -1 27 -3v75q-17 -4 -97 -4v145q58 -31 101 -63q-6 43 4 87q-32 8 -105 52v253v18q16 122 -155 121q0 -56 -32 -99q84 22 100 4q13 -11 12 -77v-183q-33 19 -112 68q-3 -50 -25 -102q50 -4 137 -43v-179h-32q-65 0 -93 4v-73
q22 4 93 4h32v-139q0 -34 -6 -58zM460 304v89h125q16 -35 20 -89h-145zM673 304q-6 55 -18 91h170v-91h-152zM548 602q120 41 254 103l-36 71q-118 -65 -256 -105zM488 715q161 53 318 135l-48 77q-159 -97 -312 -141z" />
</svg>
