<?xml version="1.0" standalone="no"?>
<!DOCTYPE svg PUBLIC "-//W3C//DTD SVG 1.1//EN" "http://www.w3.org/Graphics/SVG/1.1/DTD/svg11.dtd" >
<svg xmlns="http://www.w3.org/2000/svg" xmlns:xlink="http://www.w3.org/1999/xlink" version="1.1" viewBox="-10 0 1034 1024">
  <g transform="matrix(1 0 0 -1 0 820)">
   <path fill="currentColor"
d="M213 496v-202q-99 -57 -159 -71l24 -55q30 21 58 36q21 13 43 25q16 9 34 21v-296q0 -37 -23 -43q-19 -4 -35 -5q-21 0 -44 5l8 -24q0 -3 5 -27q42 3 73 10q54 15 54 77v325l52 30q21 9 49 24q1 28 4 56q-27 -21 -50 -37q-21 -13 -55 -31v182h42q24 0 59 -6v47l-31 -4
q-24 -1 -70 -2v192q0 9 2 24q1 15 11 39h-56l5 -63v-192l-139 3q-6 0 -16 3v-47q24 6 59 6h96zM418 -129q126 72 177 137q49 72 67 182q9 57 10 65q6 19 22 39q-30 6 -63 20q1 -18 2 -30q0 -24 -7 -83q-7 -57 -32 -113q-46 -102 -150 -154q-40 -21 -98 -30q19 -15 28 -25
q4 -3 19 -22q12 7 25 14zM382 563q1 -24 5 -50l-1 -87q-1 -15 -4 -29h48q-4 18 -5 41l-1 84h471q0 -75 -2 -102l-3 -22h48q-4 49 -5 75l5 90q-25 -1 -52 -5h-114q18 27 32 52q4 7 9 17q10 15 21 33l35 54q13 18 38 29q-30 15 -58 35q-36 -82 -123 -220l-307 1q-15 3 -37 4z
M414 716q27 -25 46 -50q19 -27 44 -73q1 0 4 3t9 7q9 9 22 15q-16 27 -33 51l-58 73q-15 -15 -34 -26zM463 408l4 -36l-1 -253q-1 -6 -4 -29h47q-3 30 -5 60v235h298l-1 -262q-1 -6 -4 -29h48q-3 30 -5 60l1 235l4 37q-90 -4 -93 -5l-255 1q-12 3 -35 4q0 -9 1 -18zM685 636
q12 12 23 21q-64 87 -98 129l-23 -18q-1 0 -5 -2q-3 -1 -7 -3q63 -72 98 -139zM720 76q0 6 2 24q1 15 11 39h-56l5 -61q0 -138 2 -147q1 -21 13 -32q10 -12 34 -19q27 -7 71 -8q21 0 57 4q57 7 78 44q3 6 9 16l24 75q-4 0 -32 9q-10 4 -21 9q0 -28 -2 -48q-1 -15 -6 -29
q-10 -34 -48 -38q-57 -3 -60 -4q-24 0 -55 5q-25 6 -26 43v118z" />
  </g>

</svg>
