<?xml version="1.0" standalone="no"?>
<!DOCTYPE svg PUBLIC "-//W3C//DTD SVG 1.1//EN" "http://www.w3.org/Graphics/SVG/1.1/DTD/svg11.dtd" >
<svg xmlns="http://www.w3.org/2000/svg" xmlns:xlink="http://www.w3.org/1999/xlink" version="1.1" viewBox="-10 0 1010 1000">
   <path fill="currentColor"
d="M159 -10q91 -2 109 8q1 2 -4 6q-20 22 -24 60v147q70 0 105 -4v73q-26 -6 -105 -6v169q57 -24 93 -50q-2 42 8 76q-20 3 -101 49v238q2 54 -2 70q-3 22 -16 34q-19 23 -127 39q-3 -38 -33 -89q78 7 91 -6q12 -11 12 -56v-202q-8 4 -27 13q-54 25 -71 37q-8 -43 -23 -90
q50 -9 121 -37v-193h-14q-75 0 -99 4v-71q18 4 99 4h14v-151q-1 -58 -6 -72zM581 -12q53 0 70 1q22 1 24 3q1 1 -2 6q-11 13 -12 34v70h123q0 -15 -52 -66l70 -34q15 13 57 70l-46 30q91 0 122 -8v81q-28 -7 -122 -8h-152v58h109q54 -1 111 -8q-7 38 -8 97v159q0 74 4 87
h-81q4 -10 4 -52h-139q0 45 4 68h-82q4 -26 4 -68h-127q0 54 4 76h-81q3 -6 3 -27q1 -15 1 -70v-173q-1 -65 -8 -95q29 5 117 6h91v-58h-105q-89 0 -123 8v-81q28 8 123 8h105v-60q0 -44 -6 -54zM800 286h-139v54h139v-54zM458 286v54h129v-54h-129zM587 399h-127v50h127
v-50zM661 399v50h139v-50h-139zM734 572q77 4 89 8q0 2 -3 7q-7 11 -7 17v29h20q96 0 127 -8v78q-26 -7 -125 -8h-22v101v16q23 88 -119 95q-6 -42 -37 -79q55 10 79 -4q4 -6 4 -38v-87h-230q9 12 28 37q31 41 43 58l-65 44q-34 -57 -79 -105l45 -34q-92 1 -139 8v-80
q20 8 127 8h268q0 -52 -4 -63z" />
</svg>
