<?xml version="1.0" standalone="no"?>
<!DOCTYPE svg PUBLIC "-//W3C//DTD SVG 1.1//EN" "http://www.w3.org/Graphics/SVG/1.1/DTD/svg11.dtd" >
<svg xmlns="http://www.w3.org/2000/svg" xmlns:xlink="http://www.w3.org/1999/xlink" version="1.1" viewBox="-10 0 1034 1024">
  <g transform="matrix(1 0 0 -1 0 820)">
   <path fill="currentColor"
d="M98 146l63 44q16 9 36 23q22 12 51 31v-319q0 -21 -9 -31q-6 -6 -28 -8l-67 1q-10 1 -23 4q13 -28 18 -52l85 8q1 1 4 1q36 7 47 25q9 19 10 54v338q51 33 129 70l-6 48q-30 -21 -56 -39q-27 -16 -67 -38v194h80q24 0 59 -5v46q-30 -1 -59 -5h-80l3 190q1 18 11 37h-57
q3 -6 4 -26l2 -201l-152 1q-15 3 -23 4v-46q22 4 59 5h116v-214q-66 -40 -110 -63q-34 -16 -80 -31q9 -7 17 -17zM685 105v-195l-208 1q-6 0 -22 4v-46q18 4 58 5h404q30 0 58 -5v46q-28 -1 -58 -5h-194v195h144q31 0 59 -5v46q-30 -1 -59 -5h-300l61 134h286q27 0 58 -5v46
q-30 -3 -54 -5h-281l28 107h202q33 0 59 -5v46q-30 -1 -59 -5h-197q3 27 8 53l10 63h200q31 0 59 -5v47q-60 -6 -85 -6h-102l45 55q9 12 24 28q27 33 60 44q-22 16 -50 42q-30 -45 -36 -53q-61 -81 -86 -111q-3 -1 -5 -5h-92q12 21 25 34l-56 58q-30 30 -78 73
q-15 -19 -33 -37q73 -45 134 -128l-158 1q-12 3 -24 5v-47q21 4 58 5h159l-15 -116l-153 1q-15 3 -22 4v-46q21 4 59 5h108q-12 -52 -28 -107l-162 1q-19 3 -28 4v-46q22 4 59 5h118q-42 -108 -107 -199q-78 -105 -169 -140q33 -13 51 -33q40 33 83 74q31 31 46 50
q24 30 57 78h141z" />
  </g>

</svg>
