<?xml version="1.0" standalone="no"?>
<!DOCTYPE svg PUBLIC "-//W3C//DTD SVG 1.1//EN" "http://www.w3.org/Graphics/SVG/1.1/DTD/svg11.dtd" >
<svg xmlns="http://www.w3.org/2000/svg" xmlns:xlink="http://www.w3.org/1999/xlink" version="1.1" viewBox="-10 0 1010 1000">
   <path fill="currentColor"
d="M504 -8q28 32 83 118l-73 31q-28 -65 -74 -115zM637 213h-85v67h85v-67zM637 342h-85v69h85v-69zM786 342h-90v69h90v-69zM637 473h-85v85h85v-85zM786 473h-90v85h90v-85zM641 151q48 -75 83 -157q85 26 89 42q0 2 -6 5q-38 25 -103 110h113q61 0 106 -6v74
q-50 -6 -104 -6h-123v67h56q69 0 107 -6q-9 42 -6 137q43 0 82 -4v70q-33 -7 -82 -4q-2 106 4 150q-31 -7 -105 -6q62 126 204 171q-50 29 -73 75q-134 -99 -187 -214v115q0 94 6 139h-71q6 -42 6 -141v-143h-87v149q0 90 6 135h-76q7 -38 6 -115v-18v-101q-54 76 -165 198
q-26 -40 -55 -51q107 -85 180 -197q-66 0 -97 4v-73q65 8 139 8v-85q-60 -3 -117 6v-74q45 6 117 6v-69q-64 0 -115 6v-74q43 6 115 6v-67q-67 0 -133 6v-74q58 7 134 6h7h145zM256 818q13 56 -151 71q6 -46 -16 -91q65 11 79 5q20 -5 19 -37v-232q-7 4 -25 14
q-69 39 -91 60q-14 -54 -33 -90q68 -20 149 -59v-161q-90 0 -137 6v-83q38 6 137 6v-112q1 -82 -6 -117h19q78 -2 76 10q1 2 -2 7q-18 32 -18 104v108q48 -1 81 -4v79q-24 -4 -81 -4v127l21 -12q34 -19 48 -28q-3 46 8 80q-16 2 -77 35v318z" />
</svg>
