<?xml version="1.0" standalone="no"?>
<!DOCTYPE svg PUBLIC "-//W3C//DTD SVG 1.1//EN" "http://www.w3.org/Graphics/SVG/1.1/DTD/svg11.dtd" >
<svg xmlns="http://www.w3.org/2000/svg" xmlns:xlink="http://www.w3.org/1999/xlink" version="1.1" viewBox="-10 0 1034 1024">
  <g transform="matrix(1 0 0 -1 0 820)">
   <path fill="currentColor"
d="M205 -63q0 -24 -13 -34q-15 -7 -35 -8h-9q-42 3 -57 10q-1 1 -2 1q4 -12 9 -25q3 -9 6 -27l32 1q49 1 67 7q39 12 39 60v366q21 18 28 23l81 65l-7 25q0 9 -5 23q-1 1 -1 2q-18 -24 -30 -35q-27 -24 -42 -37q-10 -9 -24 -18v169q99 0 109 -3q6 0 10 -2v46q-10 -3 -26 -3
q-19 -1 -40 -2h-53v163q0 12 2 28q3 13 6 23q1 1 6 10h-57l6 -59v-165h-73q-51 0 -69 5v-46q1 1 5 1q3 1 44 4h93v-198q-37 -33 -81 -62q-46 -28 -70 -37q9 -9 16 -19q12 -15 23 -31q12 18 40 41q39 34 72 61v-323zM517 359q-126 0 -154 2q-3 1 -6 1t-13 2v-46q42 6 116 5
h57v-106q-79 0 -108 2l-20 4v-46q3 0 5 1q7 3 36 4h78q-46 -78 -117 -150q-81 -78 -138 -93q15 -7 26 -15q3 -3 28 -23q75 66 128 123q48 51 82 100l-3 -267q-1 -6 -3 -13h47q-1 4 -5 66v272h114l-2 -321q-3 -3 -3 -17h46q-3 34 -5 69v223q48 -73 88 -116q36 -39 111 -97
q10 -9 21 -18q15 18 50 42q-27 7 -46 19q-57 28 -99 72q-69 69 -108 144q84 0 98 -2q19 0 41 -3q-4 54 -5 83v63q64 0 90 -4q1 0 6 -1v46q-33 -1 -67 -5h-29q0 93 2 105q0 16 3 41q-66 -6 -98 -6h-58v94q198 0 207 -3q6 0 10 -2v46q-18 -3 -27 -3l-71 -2h-123q19 22 37 45
q36 40 46 48q9 9 36 15q-22 15 -53 47q-4 -9 -44 -73l-71 -82h-225q-51 0 -69 5v-46q1 1 5 1q7 3 34 4h122v-94l-117 3q-4 1 -7 3v-46q3 0 5 1q6 3 57 3h62v-104zM553 217v106h114v-106h-114zM553 359v104h114v-104h-114zM553 499v94h114v-94h-114zM703 217v106h115v-106
h-115zM703 359v104h115v-104h-115zM433 733q13 -7 56 -41q33 -27 61 -53q4 7 8 9q1 4 5 7q7 12 15 17q-39 34 -55 45q-51 40 -60 49q-15 -15 -30 -33v0z" />
  </g>

</svg>
