<?xml version="1.0" standalone="no"?>
<!DOCTYPE svg PUBLIC "-//W3C//DTD SVG 1.1//EN" "http://www.w3.org/Graphics/SVG/1.1/DTD/svg11.dtd" >
<svg xmlns="http://www.w3.org/2000/svg" xmlns:xlink="http://www.w3.org/1999/xlink" version="1.1" viewBox="-10 0 1034 1024">
  <g transform="matrix(1 0 0 -1 0 820)">
   <path fill="currentColor"
d="M187 554l-122 1q-9 3 -19 5v-47q49 4 76 5h65v-220q-46 -27 -77 -42q-27 -12 -60 -23q12 -15 24 -33q3 -6 7 -10q3 -3 6 -8q45 43 100 76v-329q0 -22 -5 -30q-6 -4 -20 -7q-13 -1 -21 -2q-22 0 -52 4q12 -25 18 -50q6 3 26 3l52 7q25 6 32 17q7 18 8 42v367q33 21 79 47
q6 3 10 6q0 25 4 57q-42 -37 -93 -69v197q42 0 85 -3q4 0 9 -2v47q-4 0 -7 -1q-21 -4 -55 -5h-32v149q0 6 2 24q1 19 11 36h-56q4 -19 5 -60v-149zM607 153q-1 -46 -5 -62h49q0 1 -2 5q-3 18 -4 57v213q0 6 2 24q1 15 13 36h-58q4 -18 5 -60v-174q-40 -4 -79 -11l8 224
l2 101h66q36 0 64 -5v47q-4 0 -7 -2q-75 -3 -105 -4q10 21 23 41l22 38q1 4 5 10q6 9 12 20q27 49 58 56q-33 16 -60 38q-27 -87 -103 -203l-155 3q-3 1 -7 3v-47q49 4 77 5h70v-178l-6 -151l-77 -9v196q0 6 2 25q1 18 11 36h-55q1 -30 5 -61l-1 -208q-3 -7 -4 -36
q36 10 108 19q-12 -78 -63 -148q-63 -76 -123 -102q18 -7 42 -23q1 -1 8 -6q27 21 54 50q33 36 48 57q55 76 75 176q42 6 85 10zM380 728q-15 -16 -29 -27q60 -55 101 -118q12 15 29 30q-40 48 -101 115zM606 -152q58 69 91 134q18 40 29 88q10 51 19 127h152v-258
q0 -22 -7 -30q-4 -3 -22 -6q-15 -1 -28 -2q-24 0 -47 5q13 -36 16 -52q81 4 104 16q21 12 22 53l1 743q0 15 3 21q0 10 1 19q-30 -1 -61 -5q-117 0 -140 2q-6 3 -34 3q1 -28 5 -58l-1 -402q-1 -18 -2 -42q-1 -54 -12 -104q-19 -106 -84 -181q-21 -25 -54 -46q9 -4 21 -10
q21 -9 28 -15zM747 233l1 200h149v-200h-150zM748 469v196h149v-196h-149z" />
  </g>

</svg>
