<?xml version="1.0" standalone="no"?>
<!DOCTYPE svg PUBLIC "-//W3C//DTD SVG 1.1//EN" "http://www.w3.org/Graphics/SVG/1.1/DTD/svg11.dtd" >
<svg xmlns="http://www.w3.org/2000/svg" xmlns:xlink="http://www.w3.org/1999/xlink" version="1.1" viewBox="-10 0 1010 1000">
   <path fill="currentColor"
d="M173 12q75 2 93 10q0 2 -4 7q-14 21 -14 47v139q63 -3 93 -8v75q-30 -6 -93 -6v147q49 -21 95 -48v86l-95 35v310q1 34 -27 46q-25 13 -114 21q3 -58 -28 -99q102 17 98 -14v-234q-62 25 -92 43q-6 3 -8 3l-25 -89q3 -2 14 -4q45 -8 111 -32v-169q-81 0 -125 6v-77
q41 8 125 8v-115q0 -52 -3 -79q-1 -6 -1 -9zM361 54q59 8 101 8h32q61 0 109 -8q-8 26 -8 99v46q0 61 6 103q-36 -6 -117 -6h-36v103h50q78 0 101 -8q-8 30 -8 137v272q11 63 -147 75q-12 -66 -37 -95q105 25 113 -32v-89q-136 66 -165 91q-4 3 -6 4l-43 -73q0 -1 13 -6
q73 -27 201 -81v-135h-46q-73 0 -105 8q8 -41 8 -111v-30q0 -72 -6 -97q41 8 107 8h46v-116h-66q-67 -1 -97 8v-75zM639 54q27 6 95 6h26q81 0 135 -8q-6 35 -6 113v30q0 77 6 107q-30 -6 -107 -6h-64v103h68q81 0 117 -6q-6 57 -6 161v270q0 56 -157 73q-7 -57 -34 -97
q101 19 115 -18v-137q-150 85 -166 99l-46 -79q3 -1 9 -2q39 1 203 -77v-127h-65q-55 0 -76 1q-25 1 -39 3q8 -49 8 -117v-24q0 -72 -4 -91q18 6 107 6h63v-114h-75q-74 -1 -107 8v-77zM712 483q21 28 44 99l-66 20q-19 -75 -41 -106zM415 492q29 47 43 92l-69 22
q-12 -52 -44 -96z" />
</svg>
