<?xml version="1.0" standalone="no"?>
<!DOCTYPE svg PUBLIC "-//W3C//DTD SVG 1.1//EN" "http://www.w3.org/Graphics/SVG/1.1/DTD/svg11.dtd" >
<svg xmlns="http://www.w3.org/2000/svg" xmlns:xlink="http://www.w3.org/1999/xlink" version="1.1" viewBox="-10 0 1010 1000">
   <path fill="currentColor"
d="M669 -4q26 45 33 106h110q90 0 125 -8v81q-47 -8 -124 -8h-329q-75 -1 -127 8v-81q34 5 58 6q25 2 67 2h137q-10 -49 -44 -88zM169 8q95 1 109 12q0 3 -4 9q-22 37 -22 104v74q59 0 96 -7q2 -1 3 -1v85q-39 -8 -101 -8v157q23 -12 67 -40q18 -12 28 -18l8 82
q-15 7 -43 20q-22 9 -58 27v314q11 63 -151 75q6 -40 -26 -103q106 35 100 -55v-197q-62 35 -92 60l-31 -98q46 -10 107 -31l18 -6v-187h-16q-74 0 -107 8v-85q55 8 107 8h16v-76q0 -63 -7 -111q-1 -9 -1 -12zM425 217q31 8 131 8h156q66 0 137 -7q4 -1 6 -1q-9 24 -8 85v24
q0 54 8 91q-46 -8 -131 -8h-168q-62 0 -131 8q9 -27 8 -91v-30q1 -59 -8 -79zM770 280h-262v70h262v-70zM365 455q53 8 145 8h272q99 0 143 -8q-8 41 -8 121v240q1 43 -26 58q-27 17 -113 27q1 -56 -36 -93q102 13 93 -30v-252h-385v250q0 91 8 125h-93q9 -29 8 -125v-202
q0 -72 -8 -119zM510 586q43 6 103 4h50q55 0 69 -1q19 0 36 -3q-4 22 -4 85v28q0 37 3 72q1 8 1 13q-45 -4 -101 -4h-58q-48 0 -61 1q-18 0 -38 3q2 -15 3 -33q1 -14 1 -52v-28q1 -68 -4 -85zM579 643v84h119v-84h-119z" />
</svg>
