<?xml version="1.0" standalone="no"?>
<!DOCTYPE svg PUBLIC "-//W3C//DTD SVG 1.1//EN" "http://www.w3.org/Graphics/SVG/1.1/DTD/svg11.dtd" >
<svg xmlns="http://www.w3.org/2000/svg" xmlns:xlink="http://www.w3.org/1999/xlink" version="1.1" viewBox="-10 0 1010 1000">
   <path fill="currentColor"
d="M159 -6q62 0 97 12q0 2 -4 8q-18 25 -18 54v135q55 0 101 -8v77q-29 -6 -101 -6v165l95 -36l-6 82q-1 0 -4 1q-16 4 -85 28v332q16 52 -133 65q-7 -58 -39 -101q90 24 101 -16v-256q-69 23 -105 44l-26 -84l131 -39v-185q-86 0 -121 6v-75q48 8 121 8v-113q0 -47 -1 -65
q-1 -21 -3 -33zM837 38q-63 97 -147 159q80 27 159 55l-49 66q100 -3 117 -8q-31 63 -96 151q51 21 114 51l-52 66q-44 -36 -107 -74q-36 34 -101 68q-14 -26 -58 -62q49 -4 99 -37q-74 -28 -101 -36l50 -46q53 21 95 42q27 -30 44 -60h-58q-72 0 -109 8v-71q48 8 99 8h56
q-36 -31 -157 -78q-84 42 -224 78h103q73 -1 103 -4q-29 86 -77 149l15 9q16 8 52 32l-53 56q-30 -30 -60 -50q-65 45 -119 76q-3 -2 -12 -11q-34 -32 -55 -43q74 -18 136 -59l-89 -46l44 -42l89 50q27 -31 38 -62h-89q-68 -1 -104 8v-69q25 6 76 6q-28 -47 -58 -70
q93 -2 214 -41q-20 -10 -121 -38q-16 -4 -23 -6l47 -46q102 32 153 54q51 -32 81 -67h-178q-96 0 -135 6v-68q42 6 133 6h184q84 -1 131 -10zM571 556q72 1 82 8q0 1 -3 6q-7 13 -7 22v16h147q86 -1 137 -10v73q-33 -9 -127 -8h-90q44 111 244 143q-47 35 -69 77
q-167 -57 -242 -222v119q0 90 6 119h-84q10 -47 10 -117v-117q-103 155 -252 212q-24 -38 -65 -61q153 -44 244 -153h-73q-90 0 -139 6v-71q56 9 143 10h142q0 -40 -4 -52z" />
</svg>
