<?xml version="1.0" standalone="no"?>
<!DOCTYPE svg PUBLIC "-//W3C//DTD SVG 1.1//EN" "http://www.w3.org/Graphics/SVG/1.1/DTD/svg11.dtd" >
<svg xmlns="http://www.w3.org/2000/svg" xmlns:xlink="http://www.w3.org/1999/xlink" version="1.1" viewBox="-10 0 1010 1000">
   <path fill="currentColor"
d="M139 10q79 2 99 10q0 2 -4 6q-20 25 -20 60v117q63 0 78 -6v73q-26 -6 -78 -6v183q8 -4 23 -10q37 -16 63 -32l-4 83q-27 6 -82 30v306q2 31 -20 41q-19 11 -103 22q-6 -47 -33 -95q93 18 85 -28v-222q-48 21 -79 39q-8 5 -10 5l-22 -90q3 -2 10 -3q33 -4 101 -26v-203
q-67 0 -93 8v-75q25 8 93 8v-107q0 -49 -3 -80q-1 -6 -1 -8zM546 20q80 13 95 26q0 4 -7 11q-18 20 -31 51q-4 12 -19 48q-16 39 -26 65q67 0 97 -6v73q-36 -6 -107 -6h-48q0 91 -1 118t-3 162h62v-151q0 -55 -6 -83q78 0 81 4q2 2 -2 10q-14 23 -14 51v129q0 95 10 129h-73
q4 -10 4 -30h-66q-21 148 -179 264q-26 -34 -75 -57q161 -62 191 -207h-36q-52 0 -81 10q7 -54 7 -125v-65q0 -82 -6 -115q80 1 82 8q0 3 -4 10q-12 20 -12 41v177h56q2 -109 5 -282h-33q-75 0 -103 6v-75q40 9 121 10h69q43 -113 52 -201zM425 28q21 52 41 137l-73 16
q-11 -75 -46 -139zM917 52q-8 26 -8 192v558q2 39 -19 49q-18 14 -96 24q-8 -52 -46 -93q57 8 73 2q17 -4 16 -30v-166h-101q-24 177 -155 297q-35 -39 -85 -49q131 -84 157 -192q18 -59 23 -155q6 -90 3 -278q-2 -129 -8 -155q31 3 109 4h32q50 0 87 -6q12 -2 18 -2z
M837 123h-91v167h91v-167zM837 354h-91l-4 170h95v-170z" />
</svg>
