<?xml version="1.0" standalone="no"?>
<!DOCTYPE svg PUBLIC "-//W3C//DTD SVG 1.1//EN" "http://www.w3.org/Graphics/SVG/1.1/DTD/svg11.dtd" >
<svg xmlns="http://www.w3.org/2000/svg" xmlns:xlink="http://www.w3.org/1999/xlink" version="1.1" viewBox="-10 0 1010 1000">
   <path fill="currentColor"
d="M173 -17q100 1 107 13q0 2 -4 8q-24 30 -24 84v129q63 -1 111 -4v73q-19 -2 -44 -3q-12 -1 -27 -1h-40v131q42 -20 97 -51q2 28 8 75q-32 12 -105 51v306q-10 98 -153 111q0 -50 -37 -101q85 19 103 -4q14 -12 12 -85v-197q-72 36 -119 64q-5 -36 -20 -82q75 -28 139 -55
v-161h-34q-72 0 -101 4v-73q41 3 101 4h34v-179q0 -38 -4 -57zM468 -12q87 2 103 12q1 2 -6 10q-15 15 -17 28v75h182v-73q0 -27 -4 -48q37 -3 99 4q1 2 -5 8q-14 15 -14 30v79h17q106 0 129 -7v83q-53 -7 -129 -8h-17q0 44 1 61q1 20 3 32h-84q4 -30 4 -93h-182q0 46 1 64
q1 22 3 35h-82q4 -30 4 -99q-98 1 -133 8v-83q25 6 133 7v-59q0 -30 -6 -64v-2zM587 231q94 15 96 25q0 3 -7 6q-10 5 -13 12q106 160 291 185q-42 40 -57 87q-3 -1 -10 -4q-56 -20 -117 -59v53q-19 -5 -82 -4h-115q-55 -1 -75 4v-63q-80 69 -119 87q-37 -39 -83 -50
q216 -96 291 -279zM623 326q-43 66 -115 135q21 3 65 4h114q37 -1 61 -4q-70 -52 -125 -135zM419 604q14 4 85 4h264q68 0 87 -4q-4 20 -4 67v181q0 40 4 63h-89q4 -31 4 -63h-266q-1 41 4 57h-89q4 -36 4 -57v-181q0 -53 -4 -67zM504 675v109h266v-109h-266z" />
</svg>
