<?xml version="1.0" standalone="no"?>
<!DOCTYPE svg PUBLIC "-//W3C//DTD SVG 1.1//EN" "http://www.w3.org/Graphics/SVG/1.1/DTD/svg11.dtd" >
<svg xmlns="http://www.w3.org/2000/svg" xmlns:xlink="http://www.w3.org/1999/xlink" version="1.1" viewBox="-10 0 1034 1024">
  <g transform="matrix(1 0 0 -1 0 820)">
   <path fill="currentColor"
d="M193 542h-76q-24 0 -43 3q1 0 -12 2v-45q22 4 55 5h76v-227q-75 -40 -138 -61q3 -3 4 -5q3 -3 7 -11q10 -22 18 -31q18 15 40 28l69 39v-272q0 -16 -5 -26q-6 -4 -20 -7q-18 -1 -31 -2q-6 1 -33 4q12 -24 17 -49q81 9 96 22q12 12 13 44v305q33 18 58 27q0 27 2 53
q-28 -21 -60 -39v208q66 0 79 -2q9 0 20 -3v45q-90 -4 -93 -5h-6v158q0 3 2 22q1 19 11 37h-55q0 -3 1 -7q3 -15 4 -52v-158zM411 526q51 -58 71 -119q12 15 36 29q-18 31 -75 113q-12 -9 -32 -23zM243 -115q30 -12 50 -24q63 99 83 183q21 90 23 273h140v-345q0 -21 -5 -26
q-6 -4 -25 -7q-18 0 -28 -1q-15 0 -46 5q9 -19 14 -37q0 -1 5 -14l1 -1q42 3 81 11q39 10 40 70l1 653l4 39q-55 -4 -82 -5h-34q9 36 21 66q3 6 4 9q4 9 24 23q-36 9 -65 21q-3 -60 -23 -119q-18 0 -69 5q1 -27 5 -55v-257l-46 4q-4 1 -8 1v-45q12 3 29 4q18 0 25 1
q0 -15 -2 -32q-3 -123 -13 -192q-9 -66 -35 -114q-33 -60 -76 -91q3 -1 7 -3zM399 352v272h140v-272h-140zM509 137q-16 27 -64 95q-15 -12 -35 -22q45 -43 78 -119q12 9 27 19q3 1 8 5q-7 12 -14 22zM677 330q-22 0 -41 2q-4 0 -12 3v-45h2q1 1 4 1q9 1 42 4
q24 -126 77 -237q-49 -64 -100 -111q-37 -31 -88 -49q25 -15 48 -40q82 67 163 166q69 -87 155 -161q21 24 48 39q-87 33 -180 156q30 54 58 124q25 67 46 153q-24 -1 -26 -3q-16 -1 -27 -2h-169zM846 295q-12 -54 -27 -99q-18 -43 -46 -98q-45 88 -62 197h135zM820 664
v-180q0 -30 6 -45q6 -18 29 -25q42 -6 88 -11q0 1 2 0q0 18 8 53q-27 -9 -59 -9q-37 0 -38 43l1 180q0 1 5 34q-55 -4 -83 -5l-99 4q-4 0 -8 1q4 -39 5 -60v-78q-1 -7 -2 -39q-6 -51 -21 -80q-18 -33 -61 -63q33 -7 53 -24q37 49 55 104q15 52 14 200h105z" />
  </g>

</svg>
