<?xml version="1.0" standalone="no"?>
<!DOCTYPE svg PUBLIC "-//W3C//DTD SVG 1.1//EN" "http://www.w3.org/Graphics/SVG/1.1/DTD/svg11.dtd" >
<svg xmlns="http://www.w3.org/2000/svg" xmlns:xlink="http://www.w3.org/1999/xlink" version="1.1" viewBox="-10 0 1010 1000">
   <path fill="currentColor"
d="M419 -10q90 8 103 16q0 2 -6 8q-11 12 -14 20q-2 5 -7 17q-18 41 -17 43h72q19 0 61 -4h6q-2 8 -2 30q-1 37 -4 69v561q5 92 -116 108q-13 3 -19 4q0 -42 -28 -88q69 14 84 -4q14 -16 12 -61v-254h-139q0 8 -1 26q-11 275 -91 410q-38 -30 -79 -31q92 -93 109 -407
q-26 0 -43 4v-66q17 4 43 4q1 -40 1 -107q-1 -73 -3 -121q0 -7 -1 -22q-2 -47 -7 -55q23 4 76 4q12 -60 10 -104zM149 6q84 1 99 8q1 1 -4 5q-24 21 -24 55v125q37 0 51 -1q17 0 29 -3v69q-21 -4 -80 -4v149q5 -4 22 -13l40 -25q-8 44 6 86q-14 7 -43 19q-19 9 -25 12v254
v25q22 109 -139 118q-7 -52 -35 -93q79 16 99 -4q10 -12 10 -57v-215q-48 23 -90 50q-7 -49 -25 -85q50 -13 115 -44v-175h-24q-44 0 -57 1q-17 1 -22 3v-71q19 3 79 4h24v-127q0 -44 -6 -66zM544 153h-139v242h139v-242zM496 199q0 7 1 21q7 91 7 130h-58q5 -40 -3 -134
q-1 -10 -1 -13zM931 395q-52 225 -110 326q58 57 143 93q-24 14 -61 77q-73 -47 -125 -115q-50 64 -127 129q-24 -33 -68 -57q71 -43 151 -123q-47 -76 -83 -215l77 -12q10 85 46 167q49 -115 65 -204h-99q-56 0 -71 1q-21 1 -26 3v-68q22 4 97 4h103q75 0 88 -6zM498 508
q3 45 7 157q1 15 1 22l-68 2q11 -89 -1 -179zM617 326q45 -38 54 -123q6 -66 2 -103q-3 -39 -8 -60q15 5 69 4h76q38 0 51 -1q16 0 26 -3q-5 19 -8 64q-14 135 0 168q10 11 79 -2q-14 29 -16 74q-149 24 -132 -54v-186h-70q3 191 -63 267q-29 -31 -60 -45z" />
</svg>
