<?xml version="1.0" standalone="no"?>
<!DOCTYPE svg PUBLIC "-//W3C//DTD SVG 1.1//EN" "http://www.w3.org/Graphics/SVG/1.1/DTD/svg11.dtd" >
<svg xmlns="http://www.w3.org/2000/svg" xmlns:xlink="http://www.w3.org/1999/xlink" version="1.1" viewBox="-10 0 1034 1024">
  <g transform="matrix(1 0 0 -1 0 820)">
   <path fill="currentColor"
d="M227 510v-226q-94 -60 -171 -87q15 -18 34 -49q45 39 137 91v-306q0 -37 -39 -43q-21 -3 -42 -3q-25 0 -49 5q9 -21 16 -50q33 3 66 5q52 6 72 23q13 18 14 46v345q24 13 46 25l54 24q1 31 5 62q-45 -33 -105 -68v206q87 0 101 -2q9 0 19 -3v46q-9 0 -20 -3l-100 -2v147
q0 9 2 25q1 18 11 37h-56q0 -3 1 -7q3 -15 4 -55v-147q-123 0 -148 2q-4 1 -6 1q-3 0 -12 2v-46q18 4 57 5h109zM661 350v-89h-96q-36 0 -58 5v-46q24 3 50 5h104v-27q0 -27 -5 -57h48q-6 27 -5 84l135 -1l40 -4q-4 45 -5 90v40q78 0 88 -2q6 0 11 -2q3 0 7 -1v46
q-28 -1 -57 -5h-49q0 90 2 100q0 15 3 30q-27 -1 -56 -5h-119q0 33 3 41q1 13 10 28h-56q0 -3 1 -8q3 -13 4 -54v-7q-111 0 -134 2l-17 3v-46q24 4 57 5h94v-89h-205v212l475 -1q12 -1 27 -4v46q-30 -4 -58 -5l-448 1q-15 3 -39 4q1 -27 5 -56l-1 -286q-1 -13 -2 -32
q-3 -75 -17 -136q-18 -93 -61 -159q-22 -31 -58 -56q27 -9 39 -14q9 -3 21 -10q66 109 89 199q24 88 28 261h205zM699 386v89h132v-89h-132zM831 261h-132v89h132v-89zM529 -174q-4 12 -6 60h324q-1 -34 -5 -57h48q-4 24 -5 72l1 185l4 40q-54 -6 -76 -6l-292 1q-24 4 -36 5
h-5q1 -28 5 -58l-1 -210q-1 -7 -2 -16q0 -3 -2 -16h48zM523 -78v163h324v-163h-324zM681 723l-66 48q-9 -12 -19 -24q-6 -6 -10 -12q42 -24 65 -41q21 -13 59 -52q4 6 10 16q7 13 11 17q1 4 7 7q-13 6 -24 17q-18 13 -33 24v0z" />
  </g>

</svg>
