<?xml version="1.0" standalone="no"?>
<!DOCTYPE svg PUBLIC "-//W3C//DTD SVG 1.1//EN" "http://www.w3.org/Graphics/SVG/1.1/DTD/svg11.dtd" >
<svg xmlns="http://www.w3.org/2000/svg" xmlns:xlink="http://www.w3.org/1999/xlink" version="1.1" viewBox="-10 0 1034 1024">
  <g transform="matrix(1 0 0 -1 0 820)">
   <path fill="currentColor"
d="M71 175q3 -9 8 -20q60 42 140 74v-276q0 -21 -4 -34q-6 -12 -29 -16q-19 -3 -51 -3q-19 0 -41 5q12 -30 20 -54q108 12 127 32q15 13 16 58v308q37 18 101 41l6 57l-63 -37q-18 -9 -44 -19v213q72 0 89 -3q4 0 11 -2v46q-9 0 -19 -3l-81 -2v162q0 6 2 24q1 16 12 37h-57
q0 -3 1 -7q3 -12 4 -54v-162q-123 0 -141 2q-3 1 -4 1q-3 0 -12 2v-46q21 3 45 5h112v-230q-72 -39 -161 -63zM422 193q-28 0 -58 5v-46q24 4 58 5h123q-16 -109 -72 -176q-81 -90 -179 -101q19 -21 39 -51q109 58 163 118q34 42 55 86q18 45 39 124h190q-19 -48 -32 -71
q-7 -15 -33 -55q49 4 76 5h107q-3 -22 -5 -38q-9 -63 -21 -85q-9 -15 -35 -23q-27 -9 -85 -9q-12 0 -48 5q10 -21 17 -49q81 1 129 14q37 12 54 38q13 25 26 101q0 12 15 87q-30 -1 -60 -5h-102q6 16 34 81l21 45q-31 -1 -64 -5h-352zM464 560v-274q0 -43 -5 -66h47
q-3 9 -4 47l451 -3q1 0 11 -2v46q-45 -4 -57 -5h-184v77l168 -1q19 0 32 -4v46q-28 -1 -57 -5h-143v72l169 -1q18 0 31 -4v47q-13 -3 -54 -6h-146v82l196 -1l26 -4v47l-58 -6h-152q21 28 27 34q-21 21 -43 41l-63 53q-6 -7 -32 -34q73 -45 102 -94h-217q12 25 25 48
q3 6 9 16q12 19 44 38q-39 13 -65 27q-45 -129 -119 -233q-48 -70 -95 -95q36 -15 54 -31q27 33 49 65q25 42 53 83zM685 488v-72h-183v72h183zM685 606v-82h-183v82h183zM502 303v77h183v-77h-183z" />
  </g>

</svg>
