<?xml version="1.0" standalone="no"?>
<!DOCTYPE svg PUBLIC "-//W3C//DTD SVG 1.1//EN" "http://www.w3.org/Graphics/SVG/1.1/DTD/svg11.dtd" >
<svg xmlns="http://www.w3.org/2000/svg" xmlns:xlink="http://www.w3.org/1999/xlink" version="1.1" viewBox="-10 0 1010 1000">
   <path fill="currentColor"
d="M169 -10q86 2 105 14q0 2 -4 6q-18 25 -18 60v135q58 0 105 -8v79q-24 -6 -105 -6v141q42 -21 105 -55l4 85q-32 8 -107 46v361q-4 43 -139 61q-12 -69 -34 -95q92 17 98 -20v-280q-62 31 -101 60q-10 7 -13 8l-29 -94q1 -1 6 -1q41 -7 135 -46v-169q-95 -3 -127 8v-81
q49 6 127 6v-107q-1 -78 -8 -108zM710 -8q98 0 100 8q0 2 -4 10q-14 27 -14 58v45q106 0 152 -7v87q-46 -8 -150 -8q0 63 12 93h-102q12 -24 12 -93h-170q0 62 8 93h-90q8 -40 8 -93q-87 0 -129 8v-80q36 6 127 6q0 -92 -4 -121q86 2 99 12q0 2 -5 10q-16 25 -16 54v43h172
q0 -107 -6 -125zM589 233q64 10 98 29q0 1 -4 5q-10 10 -14 21q112 138 291 161q-33 30 -51 85q-179 -64 -290 -210q-126 172 -270 244q-24 -37 -71 -56q223 -88 311 -279zM464 649q66 21 80 36q0 2 -10 8q-26 17 -38 32q-4 4 -12 14q-72 86 -101 113q-25 -28 -81 -34
q90 -65 162 -169zM764 657q81 52 171 129l-68 62q-71 -88 -155 -145zM397 544h5q51 6 130 6h67v-44q0 -41 -3 -66q-1 -7 -1 -11q78 2 95 14q0 2 -4 9q-13 24 -13 54v42h73q79 0 133 -6v81q-41 -9 -137 -8h-67v231q6 57 -129 69q-10 -59 -36 -97q85 21 89 -6v-195h-71
q-107 0 -131 6v-79z" />
</svg>
