<?xml version="1.0" standalone="no"?>
<!DOCTYPE svg PUBLIC "-//W3C//DTD SVG 1.1//EN" "http://www.w3.org/Graphics/SVG/1.1/DTD/svg11.dtd" >
<svg xmlns="http://www.w3.org/2000/svg" xmlns:xlink="http://www.w3.org/1999/xlink" version="1.1" viewBox="-10 0 1034 1024">
  <g transform="matrix(1 0 0 -1 0 820)">
   <path fill="currentColor"
d="M216 531l-125 1q-9 0 -35 5v-47q1 1 5 1q1 3 14 4l141 1v-210q-99 -57 -153 -73q15 -18 32 -46q43 39 121 77v-310q0 -48 -65 -48q-16 0 -41 4q21 -45 21 -51q28 3 40 5q45 9 62 26q21 21 21 64v331q9 9 31 19l82 43q-4 24 -5 35l-3 18q-15 -18 -44 -38q-28 -19 -61 -37
v191q93 0 111 -3q3 0 13 -3v47q-66 -6 -90 -6h-34v172q0 12 2 28q3 18 12 33h-58q6 -75 6 -84v-149zM415 122q-18 6 -32 13q-9 -43 -36 -104q-33 -64 -70 -91q28 -7 31 -9q12 -4 25 -11l36 73l36 81q12 24 37 41q-13 4 -27 7zM783 336q1 0 3 3q3 4 19 20l-149 143q1 12 4 24
q114 0 128 -2q9 0 20 -3v46q-30 -4 -66 -5h-78q1 45 6 70q3 15 14 28l-57 4q6 -30 1 -68l-1 -34q-87 0 -114 2q-4 1 -6 1q-3 0 -13 2v-46q3 3 27 3q9 1 97 2h4q-12 -73 -62 -122q-39 -36 -86 -45q18 -9 39 -27q3 -3 9 -10q87 61 121 142l70 -66l62 -66l1 -2q3 3 7 6z
M410 740q1 -34 5 -70l-1 -389q-3 -15 -4 -49q45 4 69 5l348 -1l56 -6q-4 60 -5 98l1 362l4 50l-71 -6l-353 1q-33 4 -49 5zM840 273h-388v426h388v-426zM531 83q0 21 6 44l8 17h-57q0 -3 6 -48l1 -182q0 -9 6 -18q7 -10 37 -25q39 -12 99 -13q85 0 134 16q34 15 52 63
q6 18 16 62q-22 9 -44 27q-3 -51 -8 -71q-10 -39 -53 -49q-33 -7 -88 -8q-22 0 -57 3q-22 1 -34 6q-24 9 -24 57v119zM704 68q16 16 21 19q-30 33 -54 62q-4 6 -11 13q-10 12 -22 27l-18 20q-12 -13 -28 -29q69 -73 100 -121zM938 40q-87 120 -101 135l-12 -9q-6 -7 -15 -13
q-1 -1 -6 -4q43 -52 76 -95q28 -42 56 -87q18 18 34 29q-3 6 -8 12l-24 32v0z" />
  </g>

</svg>
