<?xml version="1.0" standalone="no"?>
<!DOCTYPE svg PUBLIC "-//W3C//DTD SVG 1.1//EN" "http://www.w3.org/Graphics/SVG/1.1/DTD/svg11.dtd" >
<svg xmlns="http://www.w3.org/2000/svg" xmlns:xlink="http://www.w3.org/1999/xlink" version="1.1" viewBox="-10 0 1010 1000">
   <path fill="currentColor"
d="M474 -2q76 14 93 28q0 3 -5 9q-20 24 -32 63q72 47 158 154l-69 46q-49 -93 -111 -149q-33 72 -105 171q6 6 79 6h46q60 0 99 -6v71q-36 -6 -93 -6h-50q-63 0 -93 6v-59q-4 5 -10 11q-8 9 -10 13l-36 -50v59q-23 -7 -77 -7q0 22 -2 98q-1 38 -2 60q61 0 103 -6v72
q-32 -9 -107 -8q-22 175 -135 301q-18 -17 -87 -43q130 -102 153 -258q-100 0 -129 8v-74q52 8 135 8q0 -16 1 -49q2 -70 2 -109q-82 0 -128 5v-77q41 8 128 8v-155q-30 7 -71 15q-25 5 -32 7q-18 -48 -45 -73q134 4 315 -66q54 67 48 84q-3 2 -13 2q-50 -3 -134 17v169
q45 0 75 -6q101 -91 141 -290zM895 20q55 61 55 84q-3 4 -14 1q-16 -5 -27 -3q-34 6 -65 13q-6 1 -9 2v181q72 0 109 -6v75q-25 -7 -109 -7v148q72 0 123 -8v76q-38 -8 -123 -8v242q1 45 -26 61q-23 18 -105 28q-11 -62 -45 -101q108 21 105 -32v-198q-52 0 -119 8v-74
q48 6 119 6v-146q-66 -1 -97 5v-73q31 6 97 6v-169q-7 2 -22 5q-48 11 -95 19q-7 -36 -36 -69q178 -11 284 -66zM383 473q37 4 93 4h56q67 -1 103 -4q-6 29 -6 137v47q0 82 6 115h-83q8 -27 8 -49h-106q0 47 8 63h-81q8 -52 8 -117v-71q0 -84 -6 -125zM456 532v135h106v-135
h-106z" />
</svg>
