<?xml version="1.0" standalone="no"?>
<!DOCTYPE svg PUBLIC "-//W3C//DTD SVG 1.1//EN" "http://www.w3.org/Graphics/SVG/1.1/DTD/svg11.dtd" >
<svg xmlns="http://www.w3.org/2000/svg" xmlns:xlink="http://www.w3.org/1999/xlink" version="1.1" viewBox="-10 0 1010 1000">
   <path fill="currentColor"
d="M536 -13q102 -1 97 7q0 3 -5 9q-13 18 -13 39v20h200q56 0 108 -8v81q-42 -6 -106 -6h-202v58h234q60 0 109 -6q-48 94 -77 159q-55 -27 -75 -32q9 -6 39 -56h-414q12 465 -102 600q-27 -25 -79 -44q59 -72 82 -165q24 -88 23 -248q0 -116 -4 -216q34 8 99 8h90v-121
q0 -33 -4 -79zM661 560q69 53 109 93l-56 48q-59 -69 -101 -101zM849 627q90 118 119 165l-83 44q-37 -102 -101 -175zM452 635q74 14 80 18q0 7 -7 18q-10 14 -13 26q-2 6 -5 18q-19 66 -43 139q-51 -16 -81 -14q60 -93 69 -205zM554 643q18 2 48 5q44 3 41 7q0 5 -4 13
q-10 16 -10 41v79q-7 49 54 42q65 4 67 -82q34 33 81 46q-22 73 -44 84q-22 18 -99 17q-92 1 -110 -12q-22 -9 -20 -59v-113q0 -45 -4 -68zM159 4q15 2 43 4q62 5 58 10q0 2 -3 8q-11 20 -11 52v129h30q42 -1 71 -4v75q-1 2 -26 1t-43 -1h-32v141q9 -5 24 -15q39 -23 63 -42
q-5 47 10 85q-46 16 -97 51v326q2 38 -24 52q-25 15 -115 29q-8 -55 -42 -97q66 12 83 4q20 -5 19 -40v-236q-46 32 -81 52q-13 7 -21 12l-47 -78q92 -34 149 -65v-179h-54q-66 -1 -87 4v-81q36 6 97 6h44v-135q0 -25 -8 -68zM813 320l16 69q-26 -2 -160 26q-21 4 -32 6v26
q-1 30 12 35q8 6 71 5q67 1 85 -14q19 -11 26 -64q34 40 72 52q-31 66 -60 77q-26 15 -127 14q-103 1 -125 -10q-28 -10 -26 -52v-55q-61 11 -103 26l-10 -76q42 -3 113 -14q0 -42 -2 -83v-16q17 1 46 1q52 0 48 5q0 2 -3 5q-17 18 -17 75q30 -6 88 -19q59 -13 88 -19z" />
</svg>
