<?xml version="1.0" standalone="no"?>
<!DOCTYPE svg PUBLIC "-//W3C//DTD SVG 1.1//EN" "http://www.w3.org/Graphics/SVG/1.1/DTD/svg11.dtd" >
<svg xmlns="http://www.w3.org/2000/svg" xmlns:xlink="http://www.w3.org/1999/xlink" version="1.1" viewBox="-10 0 1034 1024">
  <g transform="matrix(1 0 0 -1 0 820)">
   <path fill="currentColor"
d="M213 -61q0 -42 -26 -49q-18 -3 -39 -4q-27 0 -54 4q12 -24 21 -52q27 1 54 6q49 6 67 23q15 19 15 65v336q13 6 23 13q31 18 77 38q3 24 3 52q-48 -34 -103 -65v198q84 0 98 -2q9 0 20 -3v45q-84 -3 -118 -4v163q0 6 2 24q1 19 12 36h-57q1 -34 5 -71v-152q-114 0 -134 2
q-9 0 -17 2v-45q49 4 73 5h78v-220q-33 -19 -89 -43q-51 -21 -82 -29q16 -21 31 -46q39 27 140 82v-309zM445 503h451q-21 -48 -41 -78l44 -7q42 105 47 110q3 9 8 16q-30 -1 -60 -5h-236v95l230 -1l28 -4v46q-3 0 -4 -1q-4 0 -8 -1q-25 0 -51 -3h-195q0 64 3 70q1 15 11 28
h-57q0 -7 3 -13q0 -22 2 -47v-169l-175 1q-15 3 -43 4q1 -31 5 -65l-2 -234l-8 -95q-12 -121 -63 -211q-24 -42 -57 -69l15 -5q18 -7 36 -17q33 52 55 100q37 85 52 190l10 143v222zM420 -106q25 -4 47 -15q6 15 12 29l41 111q6 25 10 29q6 18 24 31q-30 9 -50 19
q-10 -46 -33 -109q-12 -33 -23 -52q-9 -16 -28 -43zM619 387q-34 -1 -67 -5q-19 -1 -32 -2q-12 0 -40 3l3 -44q18 6 32 7q39 4 104 8v-42q0 -55 38 -73q12 -4 42 -8q42 -3 52 -3q30 0 71 5q49 6 72 44q6 10 21 44q-30 15 -49 33q-3 -45 -8 -55q-9 -24 -50 -28q-37 -3 -57 -4
q-15 0 -37 2q-30 3 -40 8q-16 7 -17 44v37l113 9q19 4 43 5q9 0 27 1q-3 22 -4 43q-25 -9 -68 -16l-111 -10q0 60 3 67q1 15 11 28h-58q3 -12 5 -31q-1 -1 0 -5zM694 -120q-9 0 -18 2q-34 1 -41 14q-3 12 -4 40v114q0 6 2 24q1 19 11 36h-56q1 -6 3 -13q1 -18 2 -47v-133
q0 -39 13 -55q18 -15 59 -18q39 -1 61 -3q27 0 51 4q39 7 56 35q9 16 21 55q0 3 8 23q-19 3 -56 19q1 -16 2 -28q0 -27 -5 -43q-9 -18 -43 -23q-31 -3 -55 -3h-11zM661 169q46 -60 81 -135q12 13 34 26q-18 31 -36 60q-18 28 -48 70q-27 -21 -31 -21zM965 -30l-15 27
l-60 108q-6 9 -13 23q-12 -12 -34 -22q54 -75 92 -175q16 13 37 24q-4 7 -7 15v0z" />
  </g>

</svg>
