<?xml version="1.0" standalone="no"?>
<!DOCTYPE svg PUBLIC "-//W3C//DTD SVG 1.1//EN" "http://www.w3.org/Graphics/SVG/1.1/DTD/svg11.dtd" >
<svg xmlns="http://www.w3.org/2000/svg" xmlns:xlink="http://www.w3.org/1999/xlink" version="1.1" viewBox="-10 0 1010 1000">
   <path fill="currentColor"
d="M546 46h222q92 -1 149 -8q-7 45 -8 135v40q0 61 6 121q-53 -5 -183 -6h-51v81h67q45 0 117 -4q19 -2 28 -2v76h-6q-94 -6 -139 -6h-67v83h113q129 0 164 -6v77q-64 -8 -158 -8h-175q51 29 52 36q0 2 -10 5q-26 9 -44 25q-59 54 -129 101l278 -22q-14 -21 -60 -64
q-8 -7 -12 -11l72 -38q89 81 166 197l-85 49q-9 -26 -43 -71q-333 29 -413 49l-40 -95q68 -6 103 -38q61 -50 121 -123h-91q-93 0 -157 4v-73q86 6 153 6h123v-83h-67q-101 0 -131 6v-74q49 4 127 4h71v-81h-77q-102 1 -155 8q6 -37 6 -125v-68q0 -85 -4 -105q77 7 167 8z
M841 110h-91v154h91v-154zM601 110v154h89v-154h-89zM450 110v154h92v-154h-92zM171 -6q94 3 95 18q1 7 -6 21q-8 18 -8 31v131q53 0 117 -6v77q0 1 -19 0q-48 -3 -100 -4v171l117 -46v82l-117 43v286q1 81 -165 89q-12 -58 -41 -109q106 25 131 -24v-212q-48 20 -125 54
l-18 -88l143 -49v-197q-36 0 -100 4q-18 2 -27 2v-79q14 1 65 2q39 1 64 2v-131q0 -32 -6 -68z" />
</svg>
