<?xml version="1.0" standalone="no"?>
<!DOCTYPE svg PUBLIC "-//W3C//DTD SVG 1.1//EN" "http://www.w3.org/Graphics/SVG/1.1/DTD/svg11.dtd" >
<svg xmlns="http://www.w3.org/2000/svg" xmlns:xlink="http://www.w3.org/1999/xlink" version="1.1" viewBox="-10 0 1010 1000">
   <path fill="currentColor"
d="M679 -8q19 61 23 118h72q104 0 151 -8q-2 9 -3 27q-1 15 -1 56q0 43 6 79h-90q8 -36 8 -87h-387q0 71 6 95h-83q6 -21 6 -85q0 -60 -6 -83q49 9 157 9h79q-6 -61 -32 -107zM183 -2q84 1 103 10q0 1 -3 5q-19 23 -19 67v129q43 0 87 -8v79q-24 -6 -87 -6v171l117 -48
l-6 84q-40 9 -111 41v288q14 60 -143 79q-10 -59 -34 -97q109 21 101 -26v-214q-68 32 -114 55q-10 5 -11 5l-29 -86l154 -57v-193q-102 0 -140 8v-83q40 9 140 10v-105q0 -62 -5 -103v-5zM548 479v113h150v-113h-150zM754 685q93 58 198 151l-75 55q-79 -96 -179 -158z
M542 689q65 31 79 49q-1 4 -8 5q-23 5 -46 27q-74 72 -148 131q-22 -25 -80 -47q116 -63 203 -165zM470 272q105 14 316 -41q39 63 41 89q-3 3 -19 0q-37 -6 -68 -4q-47 4 -132 14q-44 5 -60 6v79h226q77 0 115 -8v80q-18 -9 -119 -8v113h59q70 0 125 -8v83q-56 -9 -125 -8
h-333q-98 0 -145 10v-83q46 8 125 8v-193q0 -91 -6 -129z" />
</svg>
