<?xml version="1.0" standalone="no"?>
<!DOCTYPE svg PUBLIC "-//W3C//DTD SVG 1.1//EN" "http://www.w3.org/Graphics/SVG/1.1/DTD/svg11.dtd" >
<svg xmlns="http://www.w3.org/2000/svg" xmlns:xlink="http://www.w3.org/1999/xlink" version="1.1" viewBox="-10 0 1010 1000">
   <path fill="currentColor"
d="M145 -2q85 -2 103 6q1 1 -3 7q-17 33 -17 77v125q58 0 95 -4v69q-8 -2 -29 -3q-10 -1 -25 -1h-41v139q47 -19 85 -42q-4 41 4 84q-32 9 -89 32v244q0 58 -3 75q-4 23 -17 35q-15 22 -129 38q1 -52 -33 -95q58 14 91 4q18 -10 18 -55v-217q-54 22 -101 52q-10 -48 -32 -91
q50 -4 133 -40v-161h-22q-49 0 -66 1q-21 1 -31 3v-69q31 4 97 4h22v-125q0 -60 -10 -92zM637 6q89 25 95 36q0 1 -4 5q-14 12 -22 33q-5 11 -21 56q-12 31 -18 47h176q48 -1 101 -4v69q-22 -4 -101 -4h-10v119q75 0 98 -3v69q-12 -3 -33 -3q-16 -1 -65 -1v123q74 -1 98 -4
v68q-27 -4 -98 -4v134h24q59 0 97 -4v68q-7 0 -27 -1q-41 -1 -68 -1h-190q3 65 10 95h-90q8 -24 8 -95v-427q-1 1 -2 4q-32 57 -41 86q-18 -21 -64 -40q115 -191 147 -421zM817 28q37 54 66 115l-77 28q-17 -59 -56 -109zM302 108q15 3 48 4q31 1 108 1q65 0 90 -1
q-6 26 -19 88q-47 223 -67 285q48 111 98 212l-82 36q-26 -109 -47 -157q-3 -7 -4 -10q-61 147 -108 228q-23 -32 -71 -56q88 -108 145 -250q-43 -104 -95 -176l65 -42q34 72 58 131q14 -49 26 -153q5 -44 9 -73q-101 0 -154 6v-73zM764 244h-91v119h91v-119zM673 423v125
h91v-125h-91zM764 608h-91v136h91v-136z" />
</svg>
