<?xml version="1.0" standalone="no"?>
<!DOCTYPE svg PUBLIC "-//W3C//DTD SVG 1.1//EN" "http://www.w3.org/Graphics/SVG/1.1/DTD/svg11.dtd" >
<svg xmlns="http://www.w3.org/2000/svg" xmlns:xlink="http://www.w3.org/1999/xlink" version="1.1" viewBox="-10 0 1034 1024">
  <g transform="matrix(1 0 0 -1 0 820)">
   <path fill="currentColor"
d="M215 -61q0 -31 -26 -37q-19 -3 -40 -4q-15 0 -42 4q12 -24 15 -32q3 -6 5 -20q93 10 113 30q12 12 13 56v341q27 21 60 37q22 13 45 25l3 63q-30 -27 -54 -45q-22 -16 -54 -36v190q85 0 101 -3q4 0 11 -2v46q-9 0 -19 -3l-93 -2v147q0 9 2 25q1 18 12 37h-57l5 -101v-108
h-95q-33 0 -57 5v-46q22 4 57 5h95v-211q-49 -33 -86 -53q-27 -15 -75 -34q15 -21 28 -42q21 15 61 40l72 43v-315zM631 195h-246q-31 0 -57 5v-46q24 4 57 5h246v-216l-173 -12q0 130 3 140q1 12 10 28h-55l5 -101l-5 -111q63 9 84 9l348 25q0 -45 -5 -71h48q-4 30 -5 76
q0 139 3 149q1 13 10 28h-56q1 -30 5 -61v-84l-179 -12v213l267 -1q18 -1 16 -2q9 0 14 -2v46q-4 0 -7 -1l-49 -4h-241v139l177 -1q1 0 26 -4v46q-9 0 -14 -2l-124 -3h-221q19 37 50 49q-16 6 -25 13q-9 4 -30 22q-16 -42 -30 -69q-12 -27 -24 -44q-43 -66 -89 -92
q34 -15 55 -28q3 6 20 32q15 24 31 47q12 15 23 34h137v-139zM866 752q-94 -27 -218 -46q-108 -16 -197 -17h-33q-21 0 -48 5q7 -12 16 -28q6 -12 9 -25q28 0 211 21q4 1 11 2l144 20q63 9 90 10q16 0 45 -5q-15 24 -22 42q-4 10 -8 21zM424 604q-12 -12 -20 -17
q-3 -3 -14 -8q63 -66 90 -125q16 16 37 27q-21 31 -42 59zM569 600q40 -43 60 -71q18 -25 32 -64q16 18 39 33q-12 19 -36 51l-57 75q-16 -13 -38 -24zM835 514q30 48 36 53q16 21 44 33q-42 24 -58 36q-51 -114 -124 -195q22 -9 40 -22q3 1 4 4t4 6q4 6 13 20q19 33 41 65
v0z" />
  </g>

</svg>
