<?xml version="1.0" standalone="no"?>
<!DOCTYPE svg PUBLIC "-//W3C//DTD SVG 1.1//EN" "http://www.w3.org/Graphics/SVG/1.1/DTD/svg11.dtd" >
<svg xmlns="http://www.w3.org/2000/svg" xmlns:xlink="http://www.w3.org/1999/xlink" version="1.1" viewBox="-10 0 1034 1024">
  <g transform="matrix(1 0 0 -1 0 820)">
   <path fill="currentColor"
d="M216 -63q0 -27 -7 -34q-4 -6 -26 -8q-19 0 -38 -1q-10 0 -42 6q9 -22 11 -27q1 -9 6 -26q48 4 85 11q48 12 49 75v343q45 30 104 54q0 30 2 58q-40 -30 -106 -67v177l78 -1q21 0 28 -3q3 0 7 -3v48q-4 0 -7 -1q-3 0 -4 -1q-4 0 -8 -1l-94 -2q0 190 3 200q1 15 10 27h-56
q0 -3 1 -7q3 -13 4 -54v-166l-153 4q-1 1 -3 1v-48q18 6 28 6l128 1v-195q-115 -67 -169 -82q16 -24 32 -49q28 22 67 45q34 22 70 39v-319zM632 185h-257q-30 0 -58 5v-46q19 3 41 5h263q-34 -54 -152 -172q-33 -33 -49 -44q-13 -9 -45 -19q6 -9 12 -20q10 -18 18 -37
l176 24l278 27q21 -21 48 -64q15 16 25 27l12 9l-25 26q-51 58 -76 83l-19 20q-40 39 -75 74q-10 -12 -26 -22q-7 -6 -12 -8q31 -21 50 -39q25 -24 70 -70l-179 -19l-203 -17q9 7 16 16q12 15 30 30l95 94q54 54 62 59q10 7 27 17q-15 9 -35 25l307 -1q18 0 30 -4v46
q-28 -1 -57 -5h-254v119l223 -3l2 -1q4 0 8 -1v47q-57 -6 -82 -6h-151q0 58 3 68q1 13 10 29h-57l1 -2q1 -28 5 -59v-36h-170q-36 0 -58 6v-47q24 4 41 5h187v-119zM398 515l-4 -38q-1 -9 -1 -19q27 3 55 5l426 -1l41 -4l-3 28q-3 21 -3 68l1 124q1 21 5 42l-57 -6l-423 1
q-12 3 -23 3q-6 0 -19 2q4 -34 5 -61v-144zM435 499v179h115v-179h-115zM587 499v179h124v-179h-124zM749 499v179h122v-179h-122z" />
  </g>

</svg>
