<?xml version="1.0" standalone="no"?>
<!DOCTYPE svg PUBLIC "-//W3C//DTD SVG 1.1//EN" "http://www.w3.org/Graphics/SVG/1.1/DTD/svg11.dtd" >
<svg xmlns="http://www.w3.org/2000/svg" xmlns:xlink="http://www.w3.org/1999/xlink" version="1.1" viewBox="-10 0 1034 1024">
  <g transform="matrix(1 0 0 -1 0 820)">
   <path fill="currentColor"
d="M213 -63q0 -34 -26 -42q-18 -3 -40 -4q-9 0 -35 4q9 -27 16 -51q10 0 22 3q31 3 30 4q18 3 42 13q28 16 29 71v303q27 10 55 24q27 9 53 21q0 24 4 55q-39 -24 -63 -37q-21 -10 -49 -24v230l106 -3q4 0 12 -3v48q-22 -1 -45 -5l-73 -1v157q0 7 2 22q1 18 11 39h-56
q4 -21 5 -61v-157l-116 1q-9 3 -19 5v-48q15 4 39 5l96 1v-245q-96 -40 -157 -53q16 -30 24 -53q69 36 133 65v-284zM458 516l419 -1l43 -4q-3 15 -4 51l-1 102q1 30 5 61q-9 -1 -15 -2q3 0 -13 -1q-21 -3 -55 -3l-380 1q-3 0 -42 5q1 -28 5 -59l-3 -342q-1 -7 -1 -16
q0 -25 -13 -139q-4 -27 -27 -123q-15 -46 -34 -86q-22 -39 -49 -65q48 -15 54 -19q87 174 104 382q3 42 5 95zM458 552v131h419v-131h-419zM605 313l-2 -164q-106 0 -125 2q-6 3 -11 3v-46q42 6 69 5h63q-7 -120 -59 -188q-27 -31 -59 -54q27 -15 44 -29q58 63 83 121
q22 57 31 150h134v-206q0 -45 -5 -59h48q-1 3 -1 6q-3 7 -4 33v226q106 0 126 -2l25 -3v46q-31 -1 -63 -5h-88v164l104 -3q4 0 9 -2v47q-63 -6 -92 -6h-56l37 70q19 31 25 36q4 6 23 13q-45 22 -56 30q-15 -45 -30 -73q-13 -30 -40 -76l-235 3q-3 1 -8 3v-47q49 4 81 5h32z
M642 149l2 164h129v-164h-131zM651 384q-9 15 -25 39l-48 67q-12 -10 -33 -24q48 -57 74 -107q15 13 32 25v0z" />
  </g>

</svg>
