<?xml version="1.0" standalone="no"?>
<!DOCTYPE svg PUBLIC "-//W3C//DTD SVG 1.1//EN" "http://www.w3.org/Graphics/SVG/1.1/DTD/svg11.dtd" >
<svg xmlns="http://www.w3.org/2000/svg" xmlns:xlink="http://www.w3.org/1999/xlink" version="1.1" viewBox="-10 0 1010 1000">
   <path fill="currentColor"
d="M661 -6q20 58 35 108h114q88 -1 123 -8v79q-32 -7 -123 -8h-320q-92 1 -135 8v-79q43 7 135 8h127q-33 -68 -52 -90zM159 8q36 -3 107 4q-26 26 -26 56v143q61 0 99 -4v73q-19 -4 -99 -4v157q39 -20 89 -56q-2 48 8 86l-18 9q-67 32 -79 42v230v31q25 108 -143 124
q-8 -61 -41 -101q58 15 93 -2q19 -12 18 -95v-149q-74 43 -105 65q-4 -38 -30 -101q49 -7 135 -49v-189h-18q-69 0 -99 4v-73q31 4 99 4h18v-149q0 -37 -8 -56zM728 173q80 26 85 40q-2 2 -8 5q-17 13 -25 20q-22 20 -38 48h62q68 0 115 -8q-8 25 -8 91v377v31
q29 127 -159 126q-2 -53 -42 -95q59 14 98 0q24 -13 21 -85v-375h-160v79h21q70 -1 100 -4v69q-33 -4 -100 -4h-21v76h19q36 0 74 -6q-5 15 -4 65v88q-1 45 4 65q-5 -3 -20 -3q-11 -1 -50 -1h-113q-61 -1 -71 4q4 -15 4 -65v-86q0 -39 -4 -63q3 0 15 1q31 1 54 1h26v-74
q-53 0 -75 1q-26 1 -40 3v-69q26 4 115 4v-81h-155v468q0 73 6 85h-89q6 -17 6 -83v-435q0 -69 -8 -105q40 8 117 8h195q38 -56 53 -113zM556 175q25 55 33 85l-75 22q-3 -36 -32 -87zM579 623v90h109v-90h-109z" />
</svg>
