<?xml version="1.0" standalone="no"?>
<!DOCTYPE svg PUBLIC "-//W3C//DTD SVG 1.1//EN" "http://www.w3.org/Graphics/SVG/1.1/DTD/svg11.dtd" >
<svg xmlns="http://www.w3.org/2000/svg" xmlns:xlink="http://www.w3.org/1999/xlink" version="1.1" viewBox="-10 0 1034 1024">
  <g transform="matrix(1 0 0 -1 0 820)">
   <path fill="currentColor"
d="M220 -62q0 -31 -9 -41q-13 -9 -37 -9q-31 0 -72 8q0 -6 5 -14q9 -33 10 -37q100 3 123 22q18 15 18 54v352l117 62l4 56q0 1 1 3q-15 -15 -43 -33l-79 -45v192q93 0 111 -3q4 0 11 -2v46q-43 -4 -82 -5h-40l1 175q0 9 6 29q1 6 6 14h-56q3 -12 4 -34l1 -184l-120 1
q-9 1 -16 2q-3 0 -14 2v-46q3 3 26 3q27 1 124 2v-210q-18 -12 -75 -40q-43 -19 -82 -29q3 -6 10 -21q6 -12 13 -36q15 15 38 27l96 54v-315zM329 -79q25 -18 45 -36q6 6 14 11l55 46q15 12 33 32q28 31 43 43q12 9 39 14q-15 9 -20 15q-15 9 -25 16q-6 6 -11 10
q-10 -30 -70 -87q-57 -51 -103 -64zM593 285l47 3q-57 -45 -91 -70q-27 -18 -61 -39q-42 -24 -90 -26q9 -24 14 -50q30 7 57 10q22 3 95 8q15 1 28 3q27 1 54 5v-196q0 -45 -49 -45q-33 0 -58 7q7 -15 15 -49q39 1 49 3q42 4 63 21q19 19 20 62v199l195 14l38 -40
q6 -6 12 -13q19 24 29 34q-19 18 -39 37q-7 10 -27 28l-85 82q-12 -15 -33 -30l48 -39q15 -12 30 -30l-340 -20q60 40 110 79q45 33 75 57q64 52 73 57q18 12 55 15q-12 9 -35 32q-9 9 -17 19q-18 -30 -102 -98l-151 6l74 65q28 21 44 29q9 4 20 9q-16 10 -31 21l221 -1
q12 0 27 -3q6 0 23 -2q-6 55 -5 92l1 171l4 48q-34 -1 -70 -5l-362 1q-19 3 -49 4q1 -33 5 -67q0 -174 -2 -204q-3 -3 -3 -40q60 6 89 6h90q-9 -15 -20 -28q-16 -16 -56 -51q-51 -42 -92 -49q12 -27 18 -49q27 12 69 15q25 1 76 2zM640 577v-96h-179v96h179zM461 612v96h179
v-96h-179zM678 481v96h179v-96h-179zM678 612v96h179v-96h-179zM947 -94q12 18 19 25l-67 55l-60 49l-42 36q-13 -24 -25 -36q51 -36 87 -66q27 -21 78 -75q4 6 10 12v0z" />
  </g>

</svg>
