<?xml version="1.0" standalone="no"?>
<!DOCTYPE svg PUBLIC "-//W3C//DTD SVG 1.1//EN" "http://www.w3.org/Graphics/SVG/1.1/DTD/svg11.dtd" >
<svg xmlns="http://www.w3.org/2000/svg" xmlns:xlink="http://www.w3.org/1999/xlink" version="1.1" viewBox="-10 0 1010 1000">
   <path fill="currentColor"
d="M163 -10q90 4 103 12q0 2 -4 8q-20 33 -20 68v129q59 0 77 -1q24 -1 34 -3v75q-28 -4 -111 -4v155q40 -15 103 -44q5 -3 8 -4q-6 34 0 84q-35 8 -111 43v238q1 45 -4 60q-5 20 -20 33q-29 27 -127 40q-6 -55 -43 -99q72 9 107 -6q14 -13 14 -75v-165q-73 30 -121 56
q-5 -37 -24 -90q30 -3 145 -43v-181h-20q-75 0 -103 4v-75q9 3 29 3q14 1 74 1h20v-135q0 -41 -1 -55q-1 -18 -5 -29zM508 -10q12 1 38 1q58 2 57 5q1 2 -5 9q-18 20 -19 39v48h115q0 -53 -1 -71q-1 -23 -3 -31q102 4 100 10q1 1 -5 6q-22 18 -23 42v44h61q66 0 125 -10v81
q-50 -8 -123 -8h-63v87q81 0 113 -4q-3 18 -4 64v185q0 49 4 65q-27 -4 -105 -4h-101q-5 38 -16 69h170q81 0 117 -7v79q-34 -8 -117 -8h-131q89 119 262 133q-43 39 -57 93q-200 -61 -264 -218q-57 155 -284 210q-16 -40 -69 -83q208 1 282 -135h-125q-86 1 -122 8v-79
q35 7 122 7h142q9 -29 12 -69h-79q-77 0 -113 4q4 -21 4 -64v-190q0 -45 -4 -60q33 4 111 4v-87h-34q-74 1 -127 10v-81q31 7 119 8h44q0 -78 -4 -102zM579 155v87h115v-87h-115zM476 306v59h322v-59h-322zM476 425v60h322v-60h-322z" />
</svg>
