<?xml version="1.0" standalone="no"?>
<!DOCTYPE svg PUBLIC "-//W3C//DTD SVG 1.1//EN" "http://www.w3.org/Graphics/SVG/1.1/DTD/svg11.dtd" >
<svg xmlns="http://www.w3.org/2000/svg" xmlns:xlink="http://www.w3.org/1999/xlink" version="1.1" viewBox="-10 0 1010 1000">
   <path fill="currentColor"
d="M573 -8q87 -4 92 6q1 3 -4 9q-14 20 -14 49h135q71 -1 153 -10v71q-35 -5 -151 -5h-137v49h79q43 -1 80 -10q-7 21 -8 62v123q0 41 8 65q-60 -9 -90 -8h-260q-21 24 -39 48h359q83 -1 162 -10v69q-52 -7 -154 -8h-66q125 97 232 110q-45 35 -63 79q-178 -97 -236 -189
h-278q-8 8 -25 23l-21 21q67 9 149 4q87 -4 157 -20q36 36 40 58q-1 3 -19 0q-20 -4 -31 -4q-49 0 -79 4v51h79q67 -1 127 -10v62q-46 -7 -123 -8h-83v52h176q77 -1 147 -10v69q-49 -7 -143 -8h-180v84q-4 41 -143 51q0 -45 -34 -93q36 11 68 12q34 0 37 -10v-44h-170
q-109 -1 -171 8v-69q75 8 171 10h170v-52h-71q-88 2 -151 8v-62q73 9 147 10h75v-47q-3 0 -8 1q-27 2 -129 9q-6 -28 -22 -46q-91 68 -212 129q-37 -44 -67 -65q115 -18 258 -118h-90q-59 -1 -142 8v-69q21 3 113 8q24 1 37 2h129q0 -1 10 -12q19 -21 30 -36h-103
q-26 -3 -82 8q9 -49 8 -67v-109q0 -43 -8 -72q44 8 74 8h75v-49h-153q-97 1 -132 7v-71q47 8 125 8h158q0 -33 -6 -62q88 -1 90 6q2 2 -3 11q-12 24 -11 45h166q0 -41 -4 -64zM579 112h-168v49h168v-49zM722 209h-444v47h444v-47zM278 300v46h444v-46h-444z" />
</svg>
