<?xml version="1.0" standalone="no"?>
<!DOCTYPE svg PUBLIC "-//W3C//DTD SVG 1.1//EN" "http://www.w3.org/Graphics/SVG/1.1/DTD/svg11.dtd" >
<svg xmlns="http://www.w3.org/2000/svg" xmlns:xlink="http://www.w3.org/1999/xlink" version="1.1" viewBox="-10 0 1034 1024">
  <g transform="matrix(1 0 0 -1 0 820)">
   <path fill="currentColor"
d="M646 248q81 -66 144 -98q64 -33 159 -61q18 27 45 47q-145 0 -282 112q183 0 205 -3q4 0 9 -1q3 0 15 -2v48q-10 -1 -22 -5l-75 -2h-424q1 1 3 4q7 12 45 49q1 4 5 6l267 -1l50 -4q-4 49 -5 77l1 125l4 48q-69 -6 -103 -6h-30v70l252 -1q22 0 35 -4v47l-68 -6h-219
q0 39 3 58q1 18 12 29h-60q6 -60 6 -83v-4h-220v21q0 12 3 31q1 16 13 31h-60q4 -49 5 -83l-274 5q-1 1 -3 1v-47q18 3 62 5h215v-70h-74q-9 0 -33 3q-18 0 -34 3q1 -33 5 -66l-1 -142q-3 -12 -4 -42q54 4 76 5h126q-28 -33 -54 -59l-234 1q-30 3 -39 6v-48q60 6 85 6h144
q-43 -40 -148 -89q-73 -30 -146 -37q27 -18 45 -42q42 12 70 24q24 9 50 22q102 48 193 122h260zM746 443v-65h-485v65h485zM261 478v67h485v-67h-485zM398 581v70h220v-70h-220zM511 59v-60l-311 1q-7 1 -36 2q-3 0 -17 4v-48q12 3 20 3q19 0 44 3h300v-52q0 -18 -12 -28
q-18 -10 -42 -11q-15 0 -73 8q13 -22 20 -50q97 4 122 20q24 16 24 64v49h275q25 0 52 -2q10 -1 15 -4v48q-54 -6 -67 -7h-275v60q196 0 207 -3q3 0 8 -2v47q-9 0 -16 -3l-101 -3h-98v67q12 3 20 4l111 7q-33 33 -41 45q-21 -6 -43 -11l-49 -7q-75 -7 -137 -8q-45 0 -80 8
q12 -16 24 -50q3 0 40 3t75 4l41 3v-65l-244 5q-1 1 -3 1v-47q9 1 33 3q16 0 31 2h183z" />
  </g>

</svg>
