<?xml version="1.0" standalone="no"?>
<!DOCTYPE svg PUBLIC "-//W3C//DTD SVG 1.1//EN" "http://www.w3.org/Graphics/SVG/1.1/DTD/svg11.dtd" >
<svg xmlns="http://www.w3.org/2000/svg" xmlns:xlink="http://www.w3.org/1999/xlink" version="1.1" viewBox="-10 0 1034 1024">
  <g transform="matrix(1 0 0 -1 0 820)">
   <path fill="currentColor"
d="M210 554l-142 3q-3 1 -8 3v-47q42 6 65 5h85v-205q-57 -31 -100 -51q-39 -15 -68 -23q22 -27 35 -50q21 16 61 39l72 42v-327q0 -40 -20 -49q-13 -6 -62 -6q-9 0 -51 4q12 -30 18 -48q10 1 21 2l72 6q36 6 49 29q10 18 11 58v353q87 48 98 53q1 27 5 55q-54 -39 -103 -64
v182l97 -3q3 0 12 -2v47q-60 -6 -84 -6h-25v148q0 6 2 24q1 19 11 36h-56q4 -21 5 -60v-148zM955 181q-19 0 -56 2q-27 1 -63 8q-36 6 -79 16q-36 9 -79 23q54 33 88 59q39 30 77 66q6 6 24 27q-39 -1 -78 -5h-248q28 28 38 36q4 3 33 17q-24 7 -50 20l278 -1q9 0 40 -5
q-4 49 -5 93l1 151l4 42q-28 -1 -57 -5l-388 1q-15 3 -43 4q1 -28 5 -58l-1 -183q-3 -12 -4 -45q15 1 30 3q21 3 69 3h59q-24 -39 -85 -91q-63 -51 -128 -73q24 -15 45 -35q66 46 122 90h272q-37 -28 -71 -50q-31 -21 -74 -43q-81 33 -114 72q0 -3 -3 -5q-3 -6 -6 -10
q-7 -12 -20 -25q49 -27 99 -51q-63 -27 -135 -46q-76 -16 -130 -17q-12 0 -35 3q15 -27 27 -50q186 31 324 89q64 -25 151 -47q99 -21 172 -30q9 27 25 51q-16 0 -31 -1zM616 689v-83h-182v83h182zM434 486v84h182v-84h-182zM837 570v-84h-184v84h184zM653 606v83h184v-83
h-184zM418 -108q0 -46 -5 -60h47q-4 19 -5 50v30h360v-13q0 -46 -5 -60h48q-3 7 -4 32l-1 197q1 30 5 59q-15 -1 -28 -2q-18 -3 -28 -4h-335q-10 0 -29 4q-13 1 -25 2q1 -28 5 -59v-176zM455 -52v138h360v-138h-360z" />
  </g>

</svg>
