<?xml version="1.0" standalone="no"?>
<!DOCTYPE svg PUBLIC "-//W3C//DTD SVG 1.1//EN" "http://www.w3.org/Graphics/SVG/1.1/DTD/svg11.dtd" >
<svg xmlns="http://www.w3.org/2000/svg" xmlns:xlink="http://www.w3.org/1999/xlink" version="1.1" viewBox="-10 0 1010 1000">
   <path fill="currentColor"
d="M181 2q82 -2 95 8q0 3 -6 12q-16 27 -16 48v127q66 0 101 -6v81q-16 -6 -101 -6v139l103 -34l-4 76l-99 32v339q11 64 -137 73q-3 -53 -36 -99q107 31 106 -12v-284q-71 24 -112 46l-23 -73l135 -42v-161q-81 -1 -124 8v-83q42 8 124 8v-93q0 -73 -6 -104zM899 32
q0 2 -1 11q-5 51 -5 108v50q0 98 12 131q-30 -6 -173 -6h-139q-8 15 -36 54l-3 3h136q147 -1 191 -4q-65 100 -171 171q127 37 266 36q-39 36 -45 75q-161 -23 -290 -67q-103 41 -203 63q36 4 139 4h137q87 0 113 -1q34 0 50 -3q-6 51 -6 97v48q0 73 8 93h-81q6 -18 6 -41
h-308q0 13 4 28q2 8 2 11h-83q10 -40 10 -111v-38q0 -63 -2 -83q-11 2 -44 10q-26 5 -38 8q-9 -32 -55 -66q125 -2 281 -59q-48 -35 -93 -87q-50 41 -107 77q-19 -25 -61 -46q142 -58 204 -172q-69 -3 -123 6q6 -33 6 -137v-30q0 -81 -8 -131q62 8 171 8h127q158 -1 212 -10
zM825 94h-146v63h146v-63zM464 94v63h147v-63h-147zM611 209h-147v65h147v-65zM679 209v65h146v-65h-146zM750 435h-220q45 53 109 85q37 -13 111 -85zM804 713h-308v89h308v-89z" />
</svg>
