<?xml version="1.0" standalone="no"?>
<!DOCTYPE svg PUBLIC "-//W3C//DTD SVG 1.1//EN" "http://www.w3.org/Graphics/SVG/1.1/DTD/svg11.dtd" >
<svg xmlns="http://www.w3.org/2000/svg" xmlns:xlink="http://www.w3.org/1999/xlink" version="1.1" viewBox="-10 0 1034 1024">
  <g transform="matrix(1 0 0 -1 0 820)">
   <path fill="currentColor"
d="M76 165q19 13 49 33l73 45v-306q0 -36 -8 -44q-4 -6 -26 -8q-28 -1 -54 0q-12 0 -23 2q12 -25 19 -49q40 3 61 6q45 6 57 23q12 19 12 64v336q37 18 104 55l3 58q-30 -24 -49 -36l-58 -38v205q64 0 80 -3q6 0 10 -2v46q-4 0 -7 -1q-63 -3 -68 -4h-15v154q0 7 2 24
q1 18 12 37h-58q0 -3 2 -6q3 -16 4 -55v-154h-79q-36 0 -57 5v-46q21 4 57 5h79v-223q-75 -51 -153 -77q13 -18 21 -31q4 -7 10 -15zM631 53l-289 1l-14 2l-13 2v-46q19 3 41 5h275v-84q0 -36 -9 -46q-10 -6 -35 -9q-15 0 -32 -3l-36 6q3 -9 6 -20q4 -13 5 -30q49 3 88 11
q15 4 25 8q25 12 26 69v98l272 -1q18 0 30 -4v46l-40 -4l-262 -1v69l207 -1q15 -1 32 -5v46q-9 0 -20 -3l-135 -2h-84v84q24 0 48 6q49 3 113 14q25 0 35 2q9 0 33 -3q-18 21 -33 51q-48 -12 -94 -20q-91 -13 -180 -19q-54 -3 -92 -3q-36 0 -95 6q10 -13 16 -22q4 -9 9 -21
l34 -1l168 8v-82l-229 1q-7 1 -13 2q-3 0 -12 2v-46q15 4 31 5l223 1v-69zM364 506q-3 -28 -5 -58h47q-4 33 -5 58v43h508v-37q0 -27 -5 -56h48q-6 27 -5 84q0 24 4 33q0 9 1 17q-28 -1 -57 -5h-113l36 44q25 31 56 58q6 6 32 16q-30 24 -44 41q-54 -81 -132 -159h-61v122
q0 9 2 24q1 16 12 37h-57l5 -101v-82h-98q12 24 25 36l-59 56q-33 30 -63 54q-12 -16 -30 -31q42 -30 70 -56q24 -22 53 -59l-132 1q-15 3 -38 4q1 -24 5 -49v-35zM775 335q7 0 26 -3q4 0 23 -2q-6 48 -6 65q0 48 2 58l4 34q-25 -1 -51 -5l-249 1l-37 4q1 -13 2 -24
q3 -24 4 -43q0 -42 -2 -57l-4 -33q24 3 51 5h237zM529 371v75h252v-75h-252z" />
  </g>

</svg>
