<?xml version="1.0" standalone="no"?>
<!DOCTYPE svg PUBLIC "-//W3C//DTD SVG 1.1//EN" "http://www.w3.org/Graphics/SVG/1.1/DTD/svg11.dtd" >
<svg xmlns="http://www.w3.org/2000/svg" xmlns:xlink="http://www.w3.org/1999/xlink" version="1.1" viewBox="-10 0 1010 1000">
   <path fill="currentColor"
d="M730 -13q92 16 117 29q0 2 -4 7q-17 19 -31 51q-6 13 -27 78q-7 22 -11 33h127q43 -1 61 -4v71q-23 -4 -63 -4v32q0 285 -66 415q44 54 141 111q-29 24 -52 62q-10 16 -17 27q-53 -54 -108 -125q-3 -4 -5 -6q-46 68 -125 147q-27 -30 -58 -46q-24 22 -103 24
q-5 -39 -34 -87q55 10 76 -2q3 -10 2 -34v-43h-151q0 103 6 162h-82q8 -29 8 -160v-246q0 -48 -6 -66q34 8 90 8h125q49 -1 89 -6q-5 9 -8 64v357q75 -52 123 -133q-57 -134 -67 -260q-30 -30 -66 -40q27 -36 24 -38l-56 -3h-204q-59 0 -73 3v-67q20 4 71 4v-109
q-33 0 -59 6h-2v75q-26 -4 -96 -4v151q19 -9 60 -31q16 -9 24 -13q-7 40 8 86l-92 39v238v13q21 138 -137 144q-6 -56 -41 -99q68 14 93 0q9 -5 8 -40v-8v-214q-8 4 -30 14q-40 19 -57 30q-6 -51 -26 -99q43 -3 113 -32v-177q-50 0 -66 1q-21 0 -33 3v-75q31 4 99 4v-159
q-1 -36 -6 -56q79 -2 103 8q1 1 -3 6q-16 24 -17 58v141q43 -3 74 -9q4 -1 6 -1v-64q3 0 10 1q27 5 65 5v-75q0 -42 -4 -54q70 -3 83 4q1 1 -2 5q-13 18 -13 45v75h83v-89q-3 -42 -6 -48q89 0 91 8q0 1 -3 3q-19 15 -21 49v75q43 0 70 -4v68q-18 -4 -70 -4v109l66 -4v50
q64 -124 85 -361zM437 195v107h81v-107h-81zM819 248h-61q-29 89 -58 145l42 -8q-6 105 42 234q22 -48 28 -124q7 -66 7 -247zM550 481h-151v67h151v-67zM399 604v63h151v-63h-151z" />
</svg>
