<?xml version="1.0" standalone="no"?>
<!DOCTYPE svg PUBLIC "-//W3C//DTD SVG 1.1//EN" "http://www.w3.org/Graphics/SVG/1.1/DTD/svg11.dtd" >
<svg xmlns="http://www.w3.org/2000/svg" xmlns:xlink="http://www.w3.org/1999/xlink" version="1.1" viewBox="-10 0 1010 1000">
   <path fill="currentColor"
d="M583 -19q101 5 102 13q0 3 -7 13q-13 16 -19 31q-13 32 -22 70h169q89 -1 132 -10v79q-26 -6 -128 -6h-110q37 68 80 103q32 -33 47 -67q60 29 70 47q0 2 -9 6q-33 16 -69 48q83 50 149 54q-26 27 -51 77q-30 -15 -84 -48v117q0 110 10 135q-39 -6 -121 -6h-51v211
q-6 53 -119 59q-15 -57 -34 -87q81 16 81 -28v-155h-69q-61 0 -81 1q-26 1 -38 3q8 -49 8 -115v-103q-39 38 -66 54q-33 -46 -57 -56l2 28q-21 6 -64 28v355q5 55 -149 67q-4 -57 -27 -101q99 26 101 -24v-270q-56 29 -100 55q-17 10 -15 7l-22 -79l137 -56v-167
q-73 0 -129 8v-81q39 10 129 10v-141q0 -52 -5 -76q-1 -4 -1 -5q90 5 99 13q0 1 -3 6q-15 24 -15 48v153q49 0 79 -6q9 -1 14 -2v81q-34 -8 -93 -8v137l60 -32l2 42q59 -12 148 -87q-30 -36 -75 -68l60 -41q35 26 59 55q31 -42 56 -99h-58q-112 -1 -151 8v-81q60 9 155 10
h73q17 -59 20 -127zM619 171q-45 106 -107 173q6 0 23 1q31 1 52 1h88q28 0 65 -1q14 -1 18 -1q-77 -70 -121 -173h-18zM766 405h-280v58l280 -2v-56zM486 520v58h280v-58h-280zM462 655q65 37 70 56q-1 3 -10 6q-24 9 -50 31q-8 7 -32 29q-72 65 -99 83q-32 -37 -67 -54
q115 -54 188 -151zM790 657q118 89 164 131l-63 64q-77 -93 -157 -145z" />
</svg>
