<?xml version="1.0" standalone="no"?>
<!DOCTYPE svg PUBLIC "-//W3C//DTD SVG 1.1//EN" "http://www.w3.org/Graphics/SVG/1.1/DTD/svg11.dtd" >
<svg xmlns="http://www.w3.org/2000/svg" xmlns:xlink="http://www.w3.org/1999/xlink" version="1.1" viewBox="-10 0 1034 1024">
  <g transform="matrix(1 0 0 -1 0 820)">
   <path fill="currentColor"
d="M217 -73q0 -30 -14 -36q-13 -4 -47 -5h-18q-16 0 -43 5q9 -18 12 -28q0 -3 3 -21q49 3 65 4q37 4 53 9q27 9 27 56v327q36 15 81 27q10 3 28 7l6 49q-55 -25 -114 -49v217l106 -3q3 0 10 -2v46q-9 0 -14 -2l-103 -3v170q0 6 3 25q1 18 11 37h-57q0 -3 1 -7q3 -13 4 -55
v-170l-121 1q-9 1 -16 2q-3 0 -12 2v-46q18 4 58 5h91v-229q-48 -19 -86 -33q-34 -10 -82 -20q15 -24 27 -50q18 12 38 20q82 39 103 46v-296zM336 -94q33 -21 48 -35q49 40 78 66q24 21 54 51q34 34 64 43q-24 15 -46 38q-93 -126 -198 -163zM460 166l-4 -39q-1 -9 -1 -20
q45 4 92 5h96v-196q0 -10 -3 -20q-3 -7 -11 -11q-19 -3 -28 -4q-6 0 -24 2q-18 1 -29 5q7 -27 13 -49q63 3 90 11q30 9 30 58v204l133 -1q12 0 41 -4l-6 56v213q27 -15 48 -25q16 -6 56 -25q9 19 34 47q-51 7 -92 24q-54 27 -84 49q33 46 48 59q13 12 37 19q-21 12 -50 39
q-12 -24 -29 -49q-13 -19 -34 -43q-49 40 -95 127l211 -1q18 -1 16 -2q4 0 8 -1q3 0 7 -1v46q-39 -4 -57 -5h-220q10 63 16 78q6 19 19 32q-39 7 -65 18q1 -18 2 -29q0 -12 -3 -41l-6 -58h-180q-36 0 -56 5v-46q45 4 67 5h159q-22 -64 -73 -124l-81 72q-18 -24 -31 -35
q42 -21 87 -64q-76 -72 -160 -87q24 -18 40 -42l72 45v-197zM488 380q60 54 92 93q30 39 55 95q6 13 13 29q40 -75 74 -115q21 -25 43 -45q27 -22 73 -57h-350zM811 148h-314v80h314v-80zM497 264v80h314v-80h-314zM756 38q54 -36 92 -73l49 -51q15 -18 31 -39q3 12 8 18
q4 9 16 23q-7 9 -74 72l-89 82q-13 -16 -33 -32v0z" />
  </g>

</svg>
