<?xml version="1.0" standalone="no"?>
<!DOCTYPE svg PUBLIC "-//W3C//DTD SVG 1.1//EN" "http://www.w3.org/Graphics/SVG/1.1/DTD/svg11.dtd" >
<svg xmlns="http://www.w3.org/2000/svg" xmlns:xlink="http://www.w3.org/1999/xlink" version="1.1" viewBox="-10 0 1010 1000">
   <path fill="currentColor"
d="M500 -2q22 44 42 112l-82 23q-16 -73 -41 -113zM734 0q101 12 105 26q0 2 -7 9q-21 18 -28 37q-5 13 -13 36q-17 46 -29 69h85q52 0 100 -7q10 -1 13 -1v83q-2 0 -14 -2q-35 -6 -53 -6q-8 304 -70 459q66 59 139 89q-37 35 -63 87q-72 -66 -115 -109q-53 68 -127 135
q-21 -50 -48 -71q-38 39 -129 37q10 -41 -18 -83q28 9 63 5q29 -5 29 -19v-69h-163v65q0 68 8 119h-84q8 -46 8 -127v-264q-1 -70 -8 -89q32 8 108 8h101q54 -1 103 -8q-5 13 -6 85v318q61 -32 117 -109q-60 -106 -77 -353l75 4q-13 100 40 287q41 -160 47 -397h-87l-53 96
q-41 -50 -56 -54q79 -98 107 -286zM147 4q7 0 21 1q80 2 82 11q2 4 -5 14q-20 31 -23 70v107q6 -1 19 -3q36 -4 53 -9v81q-29 -7 -72 -8v153q3 -2 10 -7q30 -24 54 -39l6 78q-17 5 -68 34v299q2 51 -24 68q-23 19 -113 33q2 -24 -5 -40q-5 -16 -36 -65q36 8 52 9q19 2 31 -2
q24 -6 24 -37v-230q-84 54 -101 72l-12 -98q26 -7 111 -43v-185q-91 1 -107 8v-81q20 7 107 10v-121q0 -18 -3 -63q-1 -11 -1 -17zM391 469v65h163v-65h-163zM391 586v67h163v-67h-163zM657 363l-52 34q-9 -27 -18 -43q-227 15 -262 29l-27 -63q1 -1 4 -2q20 -5 47 -28
q19 -15 66 -93q-89 1 -113 8v-74q32 11 131 10h77q103 1 149 -8v74q-51 -7 -149 -8h-22q-48 61 -93 115q23 0 103 -2q43 -1 67 -2q-11 -21 -45 -56l51 -27q46 52 86 136z" />
</svg>
