<?xml version="1.0" standalone="no"?>
<!DOCTYPE svg PUBLIC "-//W3C//DTD SVG 1.1//EN" "http://www.w3.org/Graphics/SVG/1.1/DTD/svg11.dtd" >
<svg xmlns="http://www.w3.org/2000/svg" xmlns:xlink="http://www.w3.org/1999/xlink" version="1.1" viewBox="-10 0 1034 1024">
  <g transform="matrix(1 0 0 -1 0 820)">
   <path fill="currentColor"
d="M211 546q-114 0 -139 2q-4 1 -6 1q-3 0 -12 2v-46q19 4 57 5h100v-215q-105 -60 -161 -74q9 -18 25 -52q42 31 136 83v-307q0 -45 -28 -51q-15 -3 -47 -3q-15 0 -36 4q12 -30 17 -52q10 3 29 4q34 4 51 8q33 9 43 27q9 15 9 46v347q31 21 46 29q48 27 61 34q0 33 2 52
q-36 -27 -60 -43q-21 -13 -49 -29v192q84 0 95 -3q1 0 9 -2v46q-9 0 -11 -2q-4 0 -8 -1l-85 -2v148q0 9 2 25q1 19 11 37h-57q6 -30 6 -62v-148zM522 133l-170 1q-12 3 -27 4v-47q18 6 58 6l574 -4q3 0 10 -2v47q-4 0 -7 -1q-3 0 -4 -1q-4 0 -8 -1q-10 0 -38 -2h-143v117
q129 0 139 -3q1 0 8 -3v47q-9 0 -11 -2l-89 -4h-47q0 40 3 46q1 16 11 30h-58q3 -15 6 -47q-1 -6 0 -15v-14h-170q0 36 3 45q1 15 10 28h-55q0 -3 1 -7q0 -19 3 -40q0 -12 1 -26q-84 0 -109 2l-14 2q-3 0 -12 2v-47q15 6 57 6h78v-117zM559 133v117h170v-117h-170zM324 -105
q24 -16 46 -43q84 57 149 108q37 28 47 33q9 6 34 9q-18 21 -37 50q-39 -43 -111 -97q-72 -48 -128 -60zM387 467q0 -46 23 -65q12 -7 53 -13q30 -3 44 -3q21 0 50 4q33 6 49 21q10 12 22 38q3 10 8 21q-10 4 -18 9l-25 19q-3 -34 -8 -50q-6 -19 -42 -25q-19 -1 -36 -3
q-4 0 -39 3q-27 3 -34 9q-9 9 -9 38v60l139 -1l36 -4q-6 51 -5 79q0 78 2 88q0 4 3 29q-24 -1 -48 -5q-120 0 -143 2q-6 3 -28 3q6 -36 6 -49v-205zM425 566v114h132v-114h-132zM676 724q1 -25 5 -53l1 -225q4 -27 20 -41q15 -10 48 -14q27 -3 72 -3l29 3q31 3 48 13
q15 12 31 40q6 12 14 23l-37 22q-3 3 -10 7q-3 -39 -14 -55q-9 -12 -41 -16l-70 -2q-15 0 -27 3q-25 6 -26 48v62l145 -1q18 -1 39 -5q-1 18 -3 29q-3 18 -3 25v88q0 6 3 28l3 24q-25 -1 -51 -5l-141 1q-12 3 -35 4zM719 571v112h140v-112h-140zM734 53q-15 -18 -33 -34
q117 -75 189 -174l15 21q6 7 17 19l-92 85z" />
  </g>

</svg>
