<?xml version="1.0" standalone="no"?>
<!DOCTYPE svg PUBLIC "-//W3C//DTD SVG 1.1//EN" "http://www.w3.org/Graphics/SVG/1.1/DTD/svg11.dtd" >
<svg xmlns="http://www.w3.org/2000/svg" xmlns:xlink="http://www.w3.org/1999/xlink" version="1.1" viewBox="-10 0 1034 1024">
  <g transform="matrix(1 0 0 -1 0 820)">
   <path fill="currentColor"
d="M212 -43q0 -24 -4 -33q-3 -9 -22 -14q-18 -3 -44 -4q-16 0 -43 5q9 -18 16 -49q7 0 78 10q18 4 32 13q24 18 25 67v321q64 25 68 27q12 3 29 11q0 21 8 50q-51 -27 -105 -50v210l100 -3l2 -1q3 0 7 -1v46q-4 0 -7 -1q-3 0 -4 -1l-91 -3h-7v155q0 9 2 24q1 19 11 37h-56
q0 -3 1 -7q3 -13 4 -54v-155h-80q-27 0 -45 3q-3 0 -13 2v-46q30 4 41 5h97v-226q-79 -34 -145 -50q15 -33 20 -52q22 16 44 25q12 7 81 37v-298zM633 383l324 -3q3 0 10 -2v46q-9 0 -11 -2l-117 -3l-492 1l-14 2l-13 2v-46q21 4 58 5h25v-379q-39 -9 -79 -14q9 -19 17 -49
q88 33 254 71v-115q0 -31 -5 -57h48q-4 31 -5 57v122q27 4 53 9q0 25 2 51q-27 -10 -55 -21v325zM595 49l-155 -38v111h155v-73zM440 158v86h155v-86h-155zM440 279v104h155v-104h-155zM815 479q25 -1 53 -5q-4 45 -5 84l1 135q0 16 4 41q-27 -1 -53 -5l-360 1q-15 3 -36 4
q1 -27 5 -55q0 -147 -2 -173q-3 -3 -3 -32q24 3 51 5h345zM461 515v71h364v-71h-364zM461 693h364v-71h-364v71zM936 -130q27 24 53 41q-96 33 -172 122q31 66 53 122q21 57 47 143q-27 -1 -55 -5l-176 1l-19 3q-4 1 -7 1v-44q9 3 27 3q24 -114 83 -224q-63 -96 -131 -128
q33 -18 49 -34q39 42 63 72q21 25 44 59l64 -64l37 -34zM866 257q-30 -105 -72 -189q-49 93 -69 189h141z" />
  </g>

</svg>
