<?xml version="1.0" standalone="no"?>
<!DOCTYPE svg PUBLIC "-//W3C//DTD SVG 1.1//EN" "http://www.w3.org/Graphics/SVG/1.1/DTD/svg11.dtd" >
<svg xmlns="http://www.w3.org/2000/svg" xmlns:xlink="http://www.w3.org/1999/xlink" version="1.1" viewBox="-10 0 1034 1024">
  <g transform="matrix(1 0 0 -1 0 820)">
   <path fill="currentColor"
d="M63 180l6 -12q72 54 107 75q1 1 4 2v-323q0 -42 -24 -49q-13 -3 -50 -3q-9 0 -34 4q9 -19 17 -49q6 0 19 1q42 3 61 7q27 9 38 24q10 18 11 53v360q9 9 27 18l68 43q0 1 2 1l1 53q-43 -39 -98 -74v197q66 0 95 -4q1 0 6 -1v47q-21 -1 -44 -5l-57 -1v155q0 6 2 24
q1 19 11 36h-56q4 -21 5 -60v-155l-118 3q-3 1 -7 3v-47q42 6 68 5h57v-218q-78 -54 -136 -70l16 -32q0 -3 3 -8zM422 130v-71l-132 1q-9 3 -19 5v-41q15 4 37 5l114 1v-110q0 -34 -23 -45q3 -6 6 -11q0 -3 5 -10q6 -12 12 -27q55 42 174 93q0 28 6 53q-54 -39 -146 -81v138
q69 0 102 -3l22 -3v41q-4 0 -8 -2l-55 -4h-61v70q25 1 51 1q48 0 62 -5v42q-13 -3 -48 -7q-7 1 -14 0h-51v92q31 6 58 14q45 12 50 12q18 0 28 -2q-9 18 -26 50q-25 -12 -53 -22q-39 -12 -80 -22q-100 -19 -130 -20q-9 0 -26 4l26 -48q93 18 119 23v-81q-54 0 -112 3
q-4 1 -10 4v-42q49 4 80 5h42zM587 556v-74q-240 0 -264 3v-43q27 3 37 4q19 0 45 4l182 4v-28q0 -24 5 -44q7 -30 43 -40q10 -3 54 -6q37 -1 54 -3q33 0 119 7q18 4 31 8q28 12 56 72l-43 27l-2 2q-4 -39 -10 -51q-13 -21 -60 -25q-45 -3 -79 -5h-20q-13 0 -45 4
q-39 3 -49 8q-16 12 -17 49v26l217 4q33 0 71 -4q0 22 1 43q-6 -1 -26 -6l-47 -4l-216 -4v74l171 4q52 -1 70 -6v46q-27 -6 -70 -11l-171 -4v82q96 12 140 21q25 3 76 14l18 2q9 0 25 -2q-16 21 -28 37q-3 6 -9 14q-49 -18 -105 -31q-108 -21 -232 -31q-64 -3 -111 -4
q-30 0 -59 4q10 -18 19 -46l90 4q30 1 69 7l70 6v-79l-132 -4q-18 0 -52 2q-10 1 -20 4v-44q13 0 74 7zM621 216q34 6 69 10q27 3 56 8v-87l-124 3l-9 3v-42q36 6 54 6h79v-77h-89q-28 0 -47 4q-3 0 -13 3v-41q49 4 78 5h71v-79q0 -36 7 -51q6 -15 30 -23q21 -6 57 -7
q34 0 60 7q30 7 47 47q4 16 11 31q3 9 7 18q-31 12 -52 24l1 -45q-4 -27 -16 -34q-18 -12 -59 -12q-24 0 -43 4q-16 4 -17 37v83l153 -3q4 0 9 -2v41l-28 -4q-36 -3 -88 -3h-46v77q88 0 104 -2q6 0 23 -4v42q-22 -1 -45 -5l-82 -1v94q114 22 126 24q13 0 28 -1
q-21 33 -30 52q-52 -21 -144 -41q-99 -19 -153 -20q-10 0 -30 3q10 -24 18 -46q13 3 27 4v0z" />
  </g>

</svg>
