<?xml version="1.0" standalone="no"?>
<!DOCTYPE svg PUBLIC "-//W3C//DTD SVG 1.1//EN" "http://www.w3.org/Graphics/SVG/1.1/DTD/svg11.dtd" >
<svg xmlns="http://www.w3.org/2000/svg" xmlns:xlink="http://www.w3.org/1999/xlink" version="1.1" viewBox="-10 0 1010 1000">
   <path fill="currentColor"
d="M163 -4q84 3 97 12q0 2 -3 8q-15 26 -15 56v113q61 0 103 -6v81q-39 -9 -105 -8v163l70 -32l-6 80q-14 4 -64 27v306q7 71 -153 87q-2 -51 -31 -99q113 16 109 -34v-234q-58 24 -98 55l-4 3l-29 -84l131 -49v-189q-78 -1 -115 8v-85q42 10 117 10v-101q0 -41 -3 -76
q-1 -9 -1 -12zM391 6q48 12 184 12h112q133 0 190 -6q-10 17 -10 121v52q0 96 8 127q-27 -10 -155 -10h-147q-133 -1 -178 8q6 -48 6 -129v-56q0 -77 -10 -119zM476 78v53h316v-53h-316zM792 191h-316v51h316v-51zM313 340q60 12 161 12h334q79 0 131 -9q9 -1 11 -1v83
q-47 -15 -142 -14h-187v290q33 -9 60 -18l-6 71l-54 6v60q60 -16 115 -85q-30 -44 -81 -165l71 -14q13 53 52 121q31 -57 51 -149h-65q-98 -1 -107 10v-77q48 8 109 8h55q86 0 104 -6q-48 184 -100 266q73 57 149 75q-38 29 -53 79q-81 -41 -135 -93q-63 63 -109 97
q-25 -39 -56 -51q0 43 6 67h-83q10 -53 10 -133q-153 29 -233 52q-15 4 -19 4l-22 -80q1 -1 6 0q28 3 75 -4v-331q-20 0 -48 8v-79zM429 411v70h125v-70h-125zM429 532v70h125v-70h-125zM429 653v82q9 -1 25 -4q55 -8 100 -16v-62h-125z" />
</svg>
