<?xml version="1.0" standalone="no"?>
<!DOCTYPE svg PUBLIC "-//W3C//DTD SVG 1.1//EN" "http://www.w3.org/Graphics/SVG/1.1/DTD/svg11.dtd" >
<svg xmlns="http://www.w3.org/2000/svg" xmlns:xlink="http://www.w3.org/1999/xlink" version="1.1" viewBox="-10 0 1034 1024">
  <g transform="matrix(1 0 0 -1 0 820)">
   <path fill="currentColor"
d="M476 627l26 19h213q-33 -39 -66 -74l-189 1q-30 4 -50 5q6 -60 6 -87l-1 -120l-5 -39q33 3 67 5l394 -1l43 -4q-4 19 -5 51l1 152q0 18 4 43q-57 -6 -77 -6h-132q39 49 105 115q-54 -4 -66 -5h-206q46 42 74 46q-30 19 -55 44q-18 -39 -108 -117q-76 -61 -131 -67
q24 -18 43 -43q45 28 63 43zM640 540v-66h-191v66h191zM449 373v65h191v-65h-191zM871 540v-66h-194v66h194zM677 373v65h194v-65h-194zM963 285q-9 -3 -23 -3q-18 0 -41 -2h-495q-43 0 -64 5v-46q15 3 31 4l528 1q27 0 57 -3l2 -1q3 0 5 -1v46zM443 188q1 -34 5 -70
q-3 -255 -5 -267h49q-3 9 -4 21t-2 48h350q-3 -54 -5 -64q-1 0 -1 -1h49q-1 3 -1 5q-3 6 -3 30l-1 232q1 33 5 66q-28 -1 -58 -5l-329 1q-15 3 -49 4zM486 67v80h350v-80h-350zM486 -45v76h350v-76h-350zM130 192q1 0 35 22q15 10 41 24v-301q0 -22 -8 -31q-7 -7 -41 -8
q-30 0 -63 8q4 -10 7 -18l5 -33q15 1 30 1q72 3 91 19q15 15 16 45v342l93 57q13 6 28 16q-7 27 -12 50q-42 -39 -109 -79v178l114 -3l2 -1q3 0 5 -1v46q-6 -1 -12 -3q-12 0 -51 -2h-58v162q0 33 14 67h-57q0 -10 3 -32q3 -33 3 -46v-151h-78q-42 0 -65 5v-46q15 3 31 4
l112 1v-201q-84 -52 -143 -65q21 -28 31 -51q24 18 36 25v0z" />
  </g>

</svg>
