<?xml version="1.0" standalone="no"?>
<!DOCTYPE svg PUBLIC "-//W3C//DTD SVG 1.1//EN" "http://www.w3.org/Graphics/SVG/1.1/DTD/svg11.dtd" >
<svg xmlns="http://www.w3.org/2000/svg" xmlns:xlink="http://www.w3.org/1999/xlink" version="1.1" viewBox="-10 0 1010 1000">
   <path fill="currentColor"
d="M399 6q9 1 27 2q74 5 70 10q0 3 -5 10q-19 25 -19 66v91h34q45 -1 81 -4v73q-24 -4 -81 -4h-34v110h24q35 0 69 -4v71q-32 -6 -75 -6h-81q-54 0 -84 6v-73q28 6 58 6h22v-110h-28q-48 0 -67 4v-75q17 6 61 6h34v-95q0 -48 -6 -84zM962 56v75q-32 -4 -101 -4h-69
q-14 57 -30 115h77q42 0 78 -5q-8 35 -8 89v252q0 42 1 60q1 22 3 39h-80q1 -7 2 -20q6 -66 6 -93v-264h-166v238v83q1 31 2 56h-76q0 -3 1 -11q5 -51 5 -118v-228q0 -54 -4 -83q21 5 62 5h33q3 -16 10 -52q10 -56 12 -63h-35q-71 -1 -110 8v-77q39 6 108 6h174q48 0 105 -8
zM722 342q86 3 82 12q0 2 -2 6q-12 24 -12 61q1 240 -39 308q-38 87 -193 176q-22 -33 -70 -59q158 -56 195 -131q44 -68 43 -290q0 -13 -2 -55q-1 -18 -2 -28zM319 490q30 6 82 6h79q15 0 42 -1q21 -1 30 -1q-6 24 -6 98v133q0 59 2 79h-76q0 -2 1 -5q3 -16 3 -33h-87
q0 35 4 60h-76q6 -36 6 -74v-172q0 -57 -4 -90zM478 558h-87v147h87v-147zM821 685q53 57 141 161l-75 53q-54 -100 -125 -174zM149 -13q81 7 79 13q0 2 -2 8q-8 20 -8 52v131h24q36 -1 60 -4v79q-16 -4 -58 -4h-26v143q44 -34 74 -65q-1 46 10 89q-33 16 -84 59v326
q2 39 -19 52q-19 15 -92 29q-9 -64 -34 -97q54 12 67 4q16 -5 15 -40v-232q-62 43 -97 78q-13 -52 -34 -94q63 -26 131 -71v-181h-44q-41 0 -71 6v-83q30 6 81 6h34v-137q0 -36 -6 -67z" />
</svg>
