<?xml version="1.0" standalone="no"?>
<!DOCTYPE svg PUBLIC "-//W3C//DTD SVG 1.1//EN" "http://www.w3.org/Graphics/SVG/1.1/DTD/svg11.dtd" >
<svg xmlns="http://www.w3.org/2000/svg" xmlns:xlink="http://www.w3.org/1999/xlink" version="1.1" viewBox="-10 0 1034 1024">
  <g transform="matrix(1 0 0 -1 0 820)">
   <path fill="currentColor"
d="M188 -58q0 -24 -3 -31q-1 -6 -12 -11q-13 -4 -36 -5q-37 0 -59 3q9 -19 19 -51q84 9 108 23q21 13 21 59v366l80 31l6 55q-28 -18 -47 -29q-15 -9 -38 -19v187q33 0 66 -3l2 -1q3 0 7 -1v46q-33 -4 -65 -5h-11v152q0 4 3 23q1 19 11 38h-57q0 -3 1 -7q3 -13 4 -54v-152
h-80q-39 0 -57 5v-46q45 4 94 5h43v-204q-84 -42 -144 -59l21 -49q22 18 58 35q31 15 65 34v-335zM619 11l-302 1q-9 1 -16 2q-3 0 -12 2v-46q22 4 57 5h273v-80q0 -33 -6 -57h49q-6 39 -5 95v42l257 -1q18 0 30 -4v46q-9 0 -14 -2q-15 0 -43 -3h-230v88l182 -1q19 0 32 -4
v46q-15 0 -51 -5q-4 1 -7 0h-156q0 45 3 48q1 13 11 31h-58q0 -4 2 -7q0 -4 2 -10q1 -27 2 -62h-178l78 115l351 -1q15 -1 30 -5v47q-57 -6 -77 -6h-282q27 43 56 54q-27 10 -55 28q-16 -33 -45 -82h-121q-31 0 -58 6v-47q15 3 11 3q24 3 99 3h46q-27 -43 -49 -75
q-24 -30 -42 -37q9 -27 15 -50q27 9 38 9q12 1 64 2h119v-88zM456 630q-1 -37 -8 -77l-111 3q-6 1 -9 2v-43q21 3 45 5h68q-13 -60 -41 -99q-27 -39 -71 -65q21 -9 39 -23q4 -3 9 -6q48 54 86 140q57 -28 112 -86q12 27 23 41q-12 9 -27 18l-54 34q-21 13 -42 27q1 10 4 19
l67 -1q19 0 32 -4v43q-4 0 -8 -1q-63 -3 -67 -4h-19q4 37 9 77l73 -4q1 0 3 -1v43q-4 0 -7 -1q-63 -3 -68 -4h-2q3 46 8 62q4 15 16 32q-51 6 -62 9q4 -24 5 -45l-1 -58h-58q-33 0 -57 5v-43q22 4 57 5h56zM752 668l-116 3q-6 3 -9 3v-45q21 6 57 6h66q-3 -39 -8 -78h-74
q-27 0 -45 3q-3 0 -13 2v-43q42 6 67 5h59q-21 -66 -49 -104q-30 -40 -85 -57q27 -12 48 -32q72 57 116 169q33 -54 66 -93q31 -33 104 -88q12 13 54 36q-69 25 -117 66q-37 33 -79 103l130 -3l2 -1q3 0 7 -1v43q-4 0 -7 -1q-3 0 -6 -1l-103 -3h-38q3 51 8 78q88 0 102 -2
l20 -4v45q-6 0 -14 -3l-102 -3h-4q0 45 3 54q0 10 5 18q3 9 13 18q-24 1 -37 5q-10 1 -25 6q4 -27 5 -57z" />
  </g>

</svg>
