<?xml version="1.0" standalone="no"?>
<!DOCTYPE svg PUBLIC "-//W3C//DTD SVG 1.1//EN" "http://www.w3.org/Graphics/SVG/1.1/DTD/svg11.dtd" >
<svg xmlns="http://www.w3.org/2000/svg" xmlns:xlink="http://www.w3.org/1999/xlink" version="1.1" viewBox="-10 0 1010 1000">
   <path fill="currentColor"
d="M556 -10q81 22 85 32q0 4 -10 10q-27 18 -52 48h137q60 0 90 -6q-7 9 -29 39q-44 59 -61 80h42q48 0 69 -1q26 -2 52 -7q-3 17 -3 45q-1 14 -1 33v55q0 64 1 84q0 27 3 43q-36 -6 -119 -6h-250q-60 0 -80 1q-25 1 -37 3q3 -17 3 -44q1 -13 1 -31v-52q0 -68 -1 -91
q-1 -29 -3 -38q18 3 42 4q-21 -15 -52 -20q105 -81 173 -181zM190 0q88 -3 94 6q0 2 -2 7q-16 42 -16 138v80q48 0 65 -1q22 -1 34 -3v71q-36 -7 -99 -4v127q2 -1 7 -3q47 -24 72 -41q3 52 16 78q-27 8 -80 37q-10 5 -15 8v314q14 67 -141 85q-6 -56 -36 -95q70 7 89 -1
q20 -5 18 -39v-230q-88 50 -117 79q-18 -65 -39 -93q83 -30 156 -65v-161q-104 0 -136 6v-75q44 6 136 6v-76q0 -116 -6 -155zM675 137h-147q-35 35 -56 54h30q75 2 135 2q30 -42 38 -56zM810 248h-139v42h139v-42zM601 248h-137v42h137v-42zM810 342h-139v41h139v-41z
M601 342h-137v41h137v-41zM944 479v75q-41 -9 -125 -6h-349q-91 0 -133 6v-75q39 6 129 6h349q90 0 129 -6zM845 590q-5 23 -4 101v47q0 85 1 115q1 37 3 52h-75q0 -5 1 -17q1 -17 1 -28h-284q0 37 2 49h-73q8 -41 4 -178q0 -70 -1 -91q0 -27 -3 -50q32 6 119 6h202
q72 0 107 -6zM772 653h-284v48h284v-48zM772 756h-284v46h284v-46z" />
</svg>
