<?xml version="1.0" standalone="no"?>
<!DOCTYPE svg PUBLIC "-//W3C//DTD SVG 1.1//EN" "http://www.w3.org/Graphics/SVG/1.1/DTD/svg11.dtd" >
<svg xmlns="http://www.w3.org/2000/svg" xmlns:xlink="http://www.w3.org/1999/xlink" version="1.1" viewBox="-10 0 1010 1000">
   <path fill="currentColor"
d="M649 -6q10 35 16 96h93q110 0 155 -12q-9 23 -6 79q0 41 6 68h-92q10 -34 10 -76h-418q0 48 6 78h-84q6 -24 6 -76q0 -42 -4 -71q61 10 157 10h91q-4 -49 -20 -90zM157 -4q81 2 101 10q0 1 -3 6q-19 23 -19 64v121q41 0 79 -8v77q-31 -6 -79 -6v161l81 -42l10 76
q-41 14 -91 39v314q1 43 -27 57q-20 15 -114 26q-2 -47 -32 -97q102 24 98 -28v-242q-48 21 -101 52l-18 -82l119 -45v-187q-78 -4 -119 8v-83q41 9 119 10v-97q0 -83 -4 -104zM508 171q50 37 59 58q0 3 -9 5q-23 5 -44 20q-4 2 -15 10q-67 44 -98 66q15 6 107 6h73
q1 -65 -6 -78q81 1 86 6q0 3 -6 13q-10 16 -10 25v34h95q52 0 85 -2h8q-3 -2 -8 -6q-108 -77 -176 -99l51 -50q120 55 238 131l-55 63q-18 -16 -40 -33v85q0 68 8 95q-23 -6 -107 -6h-99v66h91q115 -1 145 -10q-6 13 -6 85v56q0 81 12 105h-91q8 -24 8 -48h-157q0 99 8 131
h-84q10 -38 10 -131h-152q0 23 5 40q2 5 1 6h-90l1 -2q9 -33 9 -97v-68q-1 -53 -4 -77q26 10 139 10h91v-66h-79q-83 -1 -119 8q8 -37 8 -103v-81q-11 5 -32 18q-11 6 -16 9q-7 -11 -41 -43l-14 -14q112 -37 220 -137zM458 391v68h123v-68h-123zM645 391v68h131v-68h-131z
M427 635v78h154v-78h-154zM645 635v78h159v-78h-159z" />
</svg>
