<?xml version="1.0" standalone="no"?>
<!DOCTYPE svg PUBLIC "-//W3C//DTD SVG 1.1//EN" "http://www.w3.org/Graphics/SVG/1.1/DTD/svg11.dtd" >
<svg xmlns="http://www.w3.org/2000/svg" xmlns:xlink="http://www.w3.org/1999/xlink" version="1.1" viewBox="-10 0 1010 1000">
   <path fill="currentColor"
d="M625 -12q21 42 28 94h117q98 -1 170 -10v73q-45 -7 -160 -8h-345q-102 0 -145 8v-73q64 7 139 10h144q-15 -45 -39 -80zM145 -10q17 2 49 3q42 2 42 5q3 3 -4 21q-12 29 -12 47v145q63 -1 80 -8v81q-16 -8 -80 -8v139q43 -19 88 -46q-12 42 -6 88l-82 30v321
q3 67 -147 77q0 -57 -25 -93q108 28 105 -26v-254q-67 31 -99 52q-5 -44 -14 -93q41 -3 113 -32v-163q-77 0 -113 8v-81q30 7 113 8v-145q0 -29 -8 -76zM331 173q34 7 115 8h340q49 0 105 -6q-8 32 -8 71v177q0 37 8 75q-16 -4 -50 -7q-30 -2 -43 -1h-363q-73 1 -104 8
q5 -18 8 -69v-177q0 -42 -8 -79zM812 229h-405v214h405v-214zM470 262q19 3 64 4h133q40 -1 79 -4q-4 26 -4 58v30q0 20 3 51q1 5 1 8q-33 -4 -61 -4h-135q-49 1 -80 4q4 -36 4 -61v-20q0 -12 -3 -48q-1 -12 -1 -18zM542 310v52h133v-52h-133zM776 528q18 0 64 -5
q19 -2 29 -3q-7 26 -8 74v89q1 53 8 81q-32 -8 -77 -8h-354q-60 3 -85 8q8 -35 8 -61v-129q-1 -36 -8 -54q56 8 99 8h324zM429 576v41h365v-41h-365zM429 665v44h365v-44h-365zM278 792q35 8 170 8h330q70 2 166 -8v75q-37 -6 -164 -7h-338q-133 0 -164 7v-75z" />
</svg>
