<?xml version="1.0" standalone="no"?>
<!DOCTYPE svg PUBLIC "-//W3C//DTD SVG 1.1//EN" "http://www.w3.org/Graphics/SVG/1.1/DTD/svg11.dtd" >
<svg xmlns="http://www.w3.org/2000/svg" xmlns:xlink="http://www.w3.org/1999/xlink" version="1.1" viewBox="-10 0 1010 1000">
   <path fill="currentColor"
d="M163 -4q93 4 95 16q1 6 -6 16q-14 19 -14 46v123h20q48 0 83 -6v73q-41 -4 -83 -4h-20v165q9 -6 28 -17q34 -19 51 -31l-2 90q-2 1 -6 2q-55 19 -69 31v286q-9 110 -147 113q1 -44 -35 -93q80 15 99 -14q9 -12 8 -67v-195q-71 42 -98 60l-19 -92q64 -20 119 -45v-193h-28
q-42 0 -87 6v-73q43 4 87 4h28v-123q0 -36 -1 -47q0 -15 -3 -31zM500 173h264v-89h-264v89zM841 352h-121v87h121v-87zM421 354v87h105v-87h-105zM579 514q88 1 92 12q0 6 -5 11q-5 6 -5 13v24h129q91 -1 147 -4v71q-60 -3 -145 -4h-76q97 105 242 143q-20 16 -60 76
q-5 8 -7 11q-101 -46 -230 -214v117q0 60 1 82q1 27 3 47h-82q5 -40 6 -131v-119q-93 145 -234 232q-46 -42 -79 -57q137 -51 254 -185h-50q-64 1 -149 6v-73q31 4 147 4h111q0 -36 -10 -62zM835 16q-5 23 -4 66v89q0 33 4 69q-20 -3 -73 -3h-260q-47 0 -73 3q4 -28 4 -67
v-87q0 -33 -4 -70q35 4 75 4h258q47 0 73 -4zM913 284q-5 13 -4 66v87q-1 48 4 69q-15 -5 -74 -4h-117l-73 4l4 -65v-91q0 -45 -4 -66q18 3 71 4h115q57 0 78 -4zM597 286q-4 19 -4 66v89q0 43 4 67q-20 -4 -73 -4h-103q-51 0 -72 4q4 -31 4 -67v-91q0 -28 -4 -64q30 4 72 4
h101q39 0 75 -4z" />
</svg>
