<?xml version="1.0" standalone="no"?>
<!DOCTYPE svg PUBLIC "-//W3C//DTD SVG 1.1//EN" "http://www.w3.org/Graphics/SVG/1.1/DTD/svg11.dtd" >
<svg xmlns="http://www.w3.org/2000/svg" xmlns:xlink="http://www.w3.org/1999/xlink" version="1.1" viewBox="-10 0 1010 1000">
   <path fill="currentColor"
d="M192 -8q90 1 100 12q1 2 -3 9q-23 35 -23 102v92q57 -1 87 -4v75q-26 -4 -87 -4v139q34 -19 67 -40q7 44 24 78q-23 9 -80 36q-7 3 -11 5v316q2 41 -24 54q-21 15 -129 39q8 -50 -24 -101q71 7 90 1q21 -5 19 -33v-242q-10 6 -34 18q-69 36 -91 56q-13 -56 -33 -90
q7 -3 24 -9q65 -26 134 -58v-169q-101 0 -136 6v-79q32 6 136 6v-84q0 -95 -6 -131zM377 44q36 5 131 8h226q18 -1 50 -3q79 -4 91 -5q-6 38 -7 121q-1 80 5 109q-30 -9 -97 -6h-288q-77 0 -111 6q6 -38 6 -119t-6 -111zM526 110h-84v99h84v-99zM663 110h-86v101h86v-101z
M804 110h-88v101h88v-101zM355 316q31 6 117 6h353q78 0 108 -6v69q-27 -6 -108 -6h-353q-37 0 -59 1q-25 1 -58 5v-69zM843 419q-4 24 -4 92t4 93q-12 -3 -24 -2q16 11 42 26q28 15 26 21q0 2 -8 6q-46 25 -111 83q57 45 182 56q-38 24 -55 79q-212 -65 -292 -224l70 -26
q20 49 53 78q63 -61 86 -99q-12 -1 -55 -2h-53h-93q-48 44 -73 65v125q39 -19 92 -50l15 -9q0 48 18 71q-150 56 -197 105q-1 -3 -4 -10q-19 -43 -33 -61q45 -18 41 -50v-65q-47 36 -141 91q-22 -43 -49 -66q131 -38 244 -146q-65 0 -87 1q-27 1 -42 3q7 -34 8 -99
q-1 -65 -8 -86q33 6 101 6h246q57 0 101 -6zM774 481h-306v63h306v-63z" />
</svg>
