<?xml version="1.0" standalone="no"?>
<!DOCTYPE svg PUBLIC "-//W3C//DTD SVG 1.1//EN" "http://www.w3.org/Graphics/SVG/1.1/DTD/svg11.dtd" >
<svg xmlns="http://www.w3.org/2000/svg" xmlns:xlink="http://www.w3.org/1999/xlink" version="1.1" viewBox="-10 0 1034 1024">
  <g transform="matrix(1 0 0 -1 0 820)">
   <path fill="currentColor"
d="M206 -51q0 -27 -5 -36q-4 -9 -20 -12q-18 -3 -37 -4q-28 0 -56 6q16 -33 22 -55q33 3 55 7q16 1 25 5q52 10 53 65v333l99 52q1 30 5 58q-28 -22 -51 -37q-21 -13 -53 -29v205l104 -1q22 0 35 -4v46q-4 0 -7 -1q-3 0 -6 -1q-33 0 -67 -3h-59v157q0 9 3 24q1 19 11 37h-58
q4 -25 7 -53v-165q-114 0 -138 2q-4 1 -6 1q-3 0 -12 2v-46q45 4 90 5h66v-227q-60 -33 -98 -51q-31 -13 -71 -25q19 -21 34 -47q96 63 135 80v-288zM623 -95q0 -31 -5 -57h48q-4 31 -5 57v229q58 -67 126 -118q70 -54 159 -103q15 22 47 52q-151 21 -309 197l233 -1
q3 0 27 -4v46q-9 0 -12 -2q-4 0 -8 -1q-9 0 -38 -2h-225q0 37 3 47q1 15 10 27h-56q4 -66 5 -74l-275 1q-12 0 -29 4v-46q21 4 58 5h227q-75 -87 -174 -154q-91 -57 -148 -67q21 -15 27 -22q9 -7 19 -19q96 52 157 99q60 46 138 123v-217zM386 348q-3 -25 -5 -53q39 4 75 5
q115 0 127 -2q9 0 28 -3q-4 45 -5 88q0 48 2 58q0 15 3 31q-24 -1 -49 -5l-148 1q-3 0 -33 4q1 -24 5 -49v-75zM568 432v-96h-145v96h145zM464 536q39 4 67 5l256 -1l37 -4q-1 13 -3 28q-3 25 -4 46q0 81 2 88q0 4 5 35l-86 -5l-238 1q-6 1 -11 2q-10 0 -25 2q1 -25 5 -52
q0 -87 -2 -113q-3 -3 -3 -32zM506 577v115h274v-115h-274zM857 303q25 -1 52 -5q-4 39 -5 65q0 70 2 81q0 16 3 31q-55 -4 -78 -5q-108 0 -125 2q-6 3 -31 3q4 -84 5 -87l-5 -90q39 4 75 5h107zM717 339v95h149v-95h-149z" />
  </g>

</svg>
