<?xml version="1.0" standalone="no"?>
<!DOCTYPE svg PUBLIC "-//W3C//DTD SVG 1.1//EN" "http://www.w3.org/Graphics/SVG/1.1/DTD/svg11.dtd" >
<svg xmlns="http://www.w3.org/2000/svg" xmlns:xlink="http://www.w3.org/1999/xlink" version="1.1" viewBox="-10 0 1010 1000">
   <path fill="currentColor"
d="M175 -2q94 2 103 10q0 1 -2 5q-18 28 -18 69v125q60 0 93 -6v79q-30 -9 -93 -8v157l93 -44l-4 78q-17 6 -89 37v310q7 75 -133 83q-14 -70 -40 -93q97 21 98 -34v-236q-37 16 -88 46q-22 13 -32 18l-23 -84l143 -55v-181q-83 -3 -129 6v-81q39 10 129 10v-109
q0 -61 -7 -96q-1 -5 -1 -6zM901 46q0 3 -2 7q-6 19 -6 110v91q0 72 6 113h-86q0 -1 1 -5q7 -27 7 -86q-89 41 -142 74q20 33 31 71l-43 20h97q80 -1 137 -10v69q-48 -9 -131 -8h-78v54h82q57 0 107 -6v66q-26 -8 -105 -8h-86v57h66q89 0 125 -8v72q-7 -8 -133 -8h-58v67h106
q76 0 129 -8v72q0 1 -11 -1q-58 -7 -122 -7h-318q0 48 6 63h-87q0 -2 1 -8q9 -41 9 -137v-180q-2 3 -8 11q-36 51 -54 70q-30 -24 -73 -41q129 -96 196 -262q74 18 84 31q0 2 -6 6q-25 17 -50 54h141q-10 -43 -32 -72l66 -23l-40 -58q1 -1 8 -2q64 -8 186 -65v-113h-71
q-63 0 -109 8q-8 1 -10 1v-73q62 8 111 8h66q60 0 93 -6zM333 44q34 10 117 10h48q87 0 115 -8q-11 4 -10 109v70q0 48 1 71q1 27 3 48h-77q6 -28 6 -58q-101 49 -153 86q-7 5 -8 5l-42 -73q3 -1 14 -3q71 -13 189 -68v-120h-88q-82 -1 -115 8v-77zM732 129q16 22 36 84
l-70 20q-13 -63 -31 -88zM444 133q28 44 42 86l-67 21q-12 -42 -36 -87zM474 492v54h151v-54h-151zM474 598v57h149v-57h-149zM474 711v67h149v-67h-149z" />
</svg>
