<?xml version="1.0" standalone="no"?>
<!DOCTYPE svg PUBLIC "-//W3C//DTD SVG 1.1//EN" "http://www.w3.org/Graphics/SVG/1.1/DTD/svg11.dtd" >
<svg xmlns="http://www.w3.org/2000/svg" xmlns:xlink="http://www.w3.org/1999/xlink" version="1.1" viewBox="-10 0 1034 1024">
  <g transform="matrix(1 0 0 -1 0 820)">
   <path fill="currentColor"
d="M72 104q12 -12 21 -30q114 42 220 111q7 -16 13 -35q10 0 99 8q43 7 76 10h7v-67l-247 1q-9 1 -17 2q-3 0 -12 2v-43q19 4 58 5h218v-58l-369 1l-14 2l-13 2v-43q22 3 46 5h350v-55q0 -21 -5 -31q-6 -9 -26 -13q-9 -1 -35 -2q-10 0 -53 6q15 -28 19 -49l60 6q45 6 61 20
q16 12 17 57v61l346 -1q12 -1 27 -4v43q-4 0 -7 -1q-1 0 -50 -4h-316v58l250 -3q3 0 10 -2v43q-28 -1 -57 -5h-203v73q30 3 63 9q33 4 39 5q12 0 29 -2q-15 15 -25 30l-9 15q-33 -9 -58 -15q-57 -10 -117 -19q-61 -6 -120 -7h-29q43 30 69 49q22 16 51 41h154q48 -40 80 -62
q30 -21 77 -43q85 -40 197 -70q12 24 34 49q-73 0 -160 28q-88 30 -174 98l279 -1q1 0 26 -4v43q-9 0 -12 -2q-18 0 -46 -3h-421q25 24 34 27q6 4 30 9q-30 16 -52 33q-27 -36 -60 -69l-304 1q-9 1 -16 2q-3 0 -12 2v-43q21 4 57 5h233l-104 -74q-69 -42 -121 -63
q-52 -18 -103 -22zM242 406q-3 -39 -6 -57h47q-4 24 -5 57v142q37 -39 51 -56q15 -21 30 -46q13 25 25 40q-21 19 -36 34l-70 68v15q42 0 89 -3q3 0 11 -3v44q-9 0 -14 -2q-42 0 -86 -3q0 88 3 97q1 13 11 28h-56q6 -60 6 -82v-43l-120 1q-9 1 -16 2q-3 0 -12 2v-44
q15 4 29 5l111 1q-30 -58 -74 -115q-45 -57 -97 -80q30 -15 47 -30q36 39 64 74q27 37 68 99v-145zM425 361q39 30 58 46q18 13 40 36q27 -18 41 -32q15 -12 52 -57l8 12q0 -1 9 13l6 8l-95 77q24 25 40 36q7 6 37 21q-10 6 -27 22q-7 6 -11 9q-24 -33 -60 -71
q-24 24 -32 29q-12 9 -23 20q-4 6 -10 10q-9 -15 -24 -30q42 -24 70 -49q-30 -27 -63 -50q-33 -21 -74 -29q27 -18 43 -33zM623 604q-6 4 -10 7q-15 12 -30 23q-18 12 -31 23l48 44q18 15 44 23q-33 18 -51 33q-36 -51 -67 -83q-4 3 -7 6l-14 11q-19 13 -38 27q-12 9 -33 23
q-7 -13 -23 -34q9 -3 66 -37q10 -6 28 -21q-21 -19 -49 -42q-30 -19 -76 -36q16 -7 41 -30q27 19 51 40q24 19 59 51q60 -40 88 -70q12 19 14 21q1 3 8 9zM760 409q0 -33 -6 -57h46q-4 33 -5 57v138q81 -69 124 -124q10 21 26 37l-60 50q-54 40 -90 73v25l104 -1
q18 -1 16 -2q3 0 14 -3v44l-28 -4l-106 -1q0 87 3 97q1 15 10 27h-54q0 -3 2 -6q0 -4 2 -10q1 -24 2 -87v-21h-46q-36 0 -57 5v-44q15 4 35 5l63 1q-30 -58 -70 -106q-33 -39 -76 -56q27 -9 48 -27q51 57 103 136v-146z" />
  </g>

</svg>
