<?xml version="1.0" standalone="no"?>
<!DOCTYPE svg PUBLIC "-//W3C//DTD SVG 1.1//EN" "http://www.w3.org/Graphics/SVG/1.1/DTD/svg11.dtd" >
<svg xmlns="http://www.w3.org/2000/svg" xmlns:xlink="http://www.w3.org/1999/xlink" version="1.1" viewBox="-10 0 1034 1024">
  <g transform="matrix(1 0 0 -1 0 820)">
   <path fill="currentColor"
d="M216 -50q0 -21 -4 -33q-4 -6 -19 -9q-18 -3 -40 -4q-16 0 -46 4q16 -45 17 -49q21 0 43 4q48 6 63 15q24 12 25 61v331q13 10 28 20q19 10 38 23q12 6 23 13q0 28 3 61q-30 -27 -51 -44q-18 -15 -42 -30v189q49 0 69 -2q12 0 25 -4v48q-21 -1 -44 -5l-50 -1v155q0 6 3 25
q1 18 11 36h-57q4 -19 5 -61v-155l-138 3l-9 3v-48q15 4 39 5l108 1v-211q-55 -39 -86 -55q-27 -15 -65 -26q18 -24 22 -31q4 -9 10 -23q31 33 119 91v-297zM422 -92q0 -42 -5 -59h48q-3 30 -5 62v2h450q33 0 62 -5v47q-4 0 -7 -2l-55 -4h-221v71l171 -1q18 0 34 -4v47
q-21 -1 -44 -5l-161 -1v70q162 0 183 -3q1 0 6 -1q1 0 16 -2v48q-4 0 -7 -2l-37 -4l-161 -1v69l219 -1l30 -4v47q-21 -1 -44 -5l-196 -1q3 4 6 10q4 4 12 15q-3 3 -62 50q-15 10 -28 19q-9 -12 -30 -29q57 -33 85 -65h-214q13 22 31 40q18 19 39 27q-33 21 -55 34
q-30 -58 -78 -114q-66 -70 -124 -97q30 -15 49 -32q15 13 59 58q16 15 34 35v-309zM651 126v-70h-191v70h191zM460 161v69h191v-69h-191zM460 -51v71h191v-71h-191zM373 623q4 -90 5 -93q0 -34 -4 -63q-1 -1 -1 -5h48q-6 36 -6 46v74h216v-141q0 -42 -5 -59h48q-3 7 -4 34
l-1 166h236q0 -63 -2 -95q-1 -1 -1 -6l-3 -12h49q-6 55 -5 87q1 33 5 67q-27 -1 -53 -5h-226v72l198 -1l38 -5v47l-63 -6l-412 3l-9 3v-47q15 4 34 5l177 1v-72l-223 1q-15 3 -36 4zM593 529q-12 0 -23 -3l-77 -1l-37 4v-44q42 6 70 5q39 0 63 -4q1 0 4 -1v44zM593 443
q-4 0 -7 -2q-3 0 -6 -1l-88 -2q-24 0 -34 4q-1 1 -2 1v-46q3 1 48 6q72 0 84 -5q1 1 5 -1v46zM857 529q-30 -1 -59 -5q-60 0 -72 3q-6 1 -10 2v-44q42 6 70 5q42 0 67 -4q1 0 4 -1v44zM856 443q-30 -1 -59 -5q-36 1 -72 3q-4 0 -9 2v-45q42 6 68 6q49 0 66 -4q3 0 6 -2v45z
" />
  </g>

</svg>
