<?xml version="1.0" standalone="no"?>
<!DOCTYPE svg PUBLIC "-//W3C//DTD SVG 1.1//EN" "http://www.w3.org/Graphics/SVG/1.1/DTD/svg11.dtd" >
<svg xmlns="http://www.w3.org/2000/svg" xmlns:xlink="http://www.w3.org/1999/xlink" version="1.1" viewBox="-10 0 1034 1024">
  <g transform="matrix(1 0 0 -1 0 820)">
   <path fill="currentColor"
d="M183 -75q0 -40 -25 -46q-25 -3 -43 -4q-19 1 -38 5q0 -6 9 -18q7 -16 12 -32q81 6 100 18q22 12 23 54v364q57 36 107 65q-4 22 -6 52q-37 -36 -101 -78v195q60 0 74 -2q3 0 36 -3v46q-18 -1 -16 -2q-18 -3 -85 -3h-9v158q0 6 2 25q1 19 11 36h-57q3 -9 6 -57v-162
q-108 0 -119 3q-6 1 -10 2v-46q42 6 69 5h60v-218q-70 -51 -134 -69q12 -22 22 -50q18 15 36 27l76 50v-315zM479 -63q0 -30 -6 -42q-3 -7 -20 -21q18 -27 28 -46l87 58l101 61v47q-24 -18 -42 -29q-16 -12 -47 -29q-4 -3 -12 -7q-25 -15 -51 -31v158l53 46q21 18 50 47
l298 -1q4 0 42 -4v45q-22 -1 -45 -5l-164 -1v68q96 0 112 -2q7 0 23 -5v47q-4 0 -7 -2q-7 0 -15 -3q-24 -1 -79 -2h-34v57q111 0 128 -2q4 0 29 -3v45q-51 -6 -82 -6h-75v68l104 -1q16 -1 34 -5q-6 48 -6 73q0 37 5 67q0 4 1 9q-24 -1 -48 -5q-133 0 -151 2q-6 3 -29 3
q1 -15 2 -25q3 -18 3 -45q-3 -39 -5 -79q25 1 52 6v-68h-168v66q25 -1 52 -5q-4 39 -5 81q1 33 5 67q-51 -4 -76 -5l-115 1q-1 0 -32 4q6 -48 6 -74q0 -25 -6 -74q39 4 62 5h72v-66l-131 1q-9 3 -20 5v-45q49 4 73 5h78v-57l-113 2q3 0 -11 4l-3 1v-47q9 3 38 6l89 1v-68
l-185 3l-9 3v-45q39 4 60 5h187q-64 -66 -158 -128q-70 -45 -125 -51q21 -21 37 -43q79 40 164 99v-89zM417 472v76h137v-76h-137zM713 251v-68h-168v68h168zM545 284v57h168v-57h-168zM846 551v-78h-143v78h143zM399 675q-25 1 -52 3q-3 1 -7 3v-47q39 4 59 5l513 -1
q4 0 37 -4v47q-22 -1 -45 -5l-238 -1q1 1 4 6q7 7 16 18q-28 28 -99 74q-12 -15 -30 -32q60 -33 90 -66h-248zM636 92l52 -65l43 -43q96 -78 212 -124q16 30 32 48q-54 6 -109 31q-55 27 -90 57l61 65q25 24 49 27q-21 18 -44 45q-15 -24 -32 -44l-59 -70q-60 55 -77 101
q-12 -12 -26 -20q-6 -3 -12 -8v0z" />
  </g>

</svg>
