<?xml version="1.0" standalone="no"?>
<!DOCTYPE svg PUBLIC "-//W3C//DTD SVG 1.1//EN" "http://www.w3.org/Graphics/SVG/1.1/DTD/svg11.dtd" >
<svg xmlns="http://www.w3.org/2000/svg" xmlns:xlink="http://www.w3.org/1999/xlink" version="1.1" viewBox="-10 0 1034 1024">
  <g transform="matrix(1 0 0 -1 0 820)">
   <path fill="currentColor"
d="M202 581l-118 3q-4 0 -9 2v-45q46 4 95 5h32v-221q-72 -45 -131 -58l17 -26l12 -25q40 36 102 68v-323q0 -27 -14 -33q-12 -4 -30 -5q-10 0 -48 4q13 -30 16 -48q36 1 60 6q52 9 53 64v359q81 48 94 53q1 22 5 50q-58 -42 -99 -64v199l94 -3l2 -1q3 0 6 -1v45
q-39 -1 -77 -5h-25q0 169 3 179q1 12 11 27h-56q1 -12 4 -24zM307 116q9 -6 17 -14q1 -3 9 -8q72 48 117 83q39 31 85 81h74q-10 -21 -80 -75q-33 -24 -74 -36q4 -24 6 -27q1 -6 3 -14q36 9 131 10q-111 -63 -176 -65q9 -24 14 -45q15 7 59 13l54 6l79 5v-85q0 -24 -19 -29
q-21 1 -44 3q-7 0 -12 1q6 -13 9 -24q1 -7 4 -20q42 3 64 7q34 6 35 57v93q18 0 27 2q19 0 128 9q18 -19 32 -41q3 7 15 20q3 3 9 10q-4 6 -72 68q-9 9 -42 38q-9 -12 -21 -23q24 -21 51 -47l-65 -4l-114 -5q-31 -3 -64 -4q112 60 141 78q21 13 38 20q12 6 29 8
q-12 15 -26 30l-9 12q-27 -24 -43 -35q-10 -9 -33 -22l-120 -3l90 63q18 12 40 16q-15 15 -28 35h87q54 -57 84 -81q28 -24 101 -67q12 -6 22 -13q13 16 41 42q-102 18 -201 119q145 0 156 -2q6 0 10 -2q3 0 6 -1v43l-33 -4l-337 -1l38 54l219 -1l41 -4q-4 49 -5 70l1 150
q0 16 4 40q-49 -4 -55 -5l-376 1q-1 0 -32 4q1 -27 5 -55q0 -144 -2 -169q-3 -3 -3 -36q6 1 27 2q24 3 46 3h85q-13 -25 -37 -54l-187 1q-12 3 -19 4v-43q46 4 89 5h88q-91 -99 -198 -126zM436 378v43h381v-43h-381zM436 454v37h381v-37h-381zM436 523v39h381v-39h-381z
M474 682q28 -42 46 -74q9 9 19 15q4 1 10 6l-36 53q75 0 89 -2q9 0 19 -3v42q-7 0 -12 -2l-146 -2h-7q27 48 53 57q-28 12 -50 25q-31 -66 -58 -98q-45 -54 -79 -72q27 -9 47 -21q24 27 38 43l25 33h42zM332 -90q15 -12 34 -34l105 61q3 0 5 3q3 0 5 3q36 22 62 25
q-18 12 -28 24q-9 9 -13 14q-24 -25 -72 -55q-45 -22 -98 -41zM748 687q22 -28 35 -46q7 -12 16 -34q15 15 32 25l-40 55l99 -1q12 0 21 -4h6v42q-30 -1 -60 -5h-148q7 13 11 22q12 27 36 37q-31 12 -53 23q-16 -48 -41 -92q-36 -51 -69 -74q30 -12 42 -22q28 37 54 74h59z
M895 -105q9 -6 18 -10q7 21 18 34q-1 0 -51 28q-112 60 -125 65q-6 -18 -19 -34q18 -6 48 -21l71 -37z" />
  </g>

</svg>
