<?xml version="1.0" standalone="no"?>
<!DOCTYPE svg PUBLIC "-//W3C//DTD SVG 1.1//EN" "http://www.w3.org/Graphics/SVG/1.1/DTD/svg11.dtd" >
<svg xmlns="http://www.w3.org/2000/svg" xmlns:xlink="http://www.w3.org/1999/xlink" version="1.1" viewBox="-10 0 1010 1000">
   <path fill="currentColor"
d="M569 -19q15 1 40 1q52 0 50 6q1 4 -4 11q-14 20 -14 47h176q60 0 98 -6v60q-36 -6 -103 -6h-171v33h123q37 -1 73 -4q-4 14 -4 52v20q0 27 2 53q-24 -6 -55 -6h-139v36h222q39 -1 72 -4q-5 11 -4 56v22q0 32 4 53h-72q6 -36 6 -83h-510q0 47 6 77h-73q6 -27 6 -51v-28
q0 -24 -4 -48q25 6 79 6h202v-36h-127q-29 0 -59 6q0 -2 1 -5q4 -19 3 -44v-32q0 -32 -2 -44q24 3 65 4h119v-33h-131q-63 0 -101 4v-58q31 6 94 6h138q0 -30 -6 -65zM641 165v40h129v-40h-129zM456 165v40h119v-40h-119zM399 346q36 6 73 6h38q39 0 72 -4h3q-5 15 -4 51v34
q0 14 2 38q-23 -3 -47 -2v39h133v-41q-20 -3 -44 4q4 -25 4 -46v-32q0 -24 -4 -45q30 6 69 6h58q45 -1 73 -4q-6 24 -6 51v26q0 9 1 23t1 23q-22 -4 -55 -4h-42v41h76q43 0 87 -8v54q-19 -5 -85 -4h-78v38h58q34 0 81 -4v51q0 -4 -18 -5q-13 -1 -69 -1h-52v36h131
q48 0 74 -4v58q-21 -6 -68 -6h-55q46 45 39 49q-1 1 -9 4q-33 11 -78 34q75 24 180 26q-35 39 -43 73q-239 -33 -306 -182q-9 7 -63 39q-9 5 -14 8v68q29 -9 73 -24l18 -6q-5 36 -2 59q-52 11 -129 41q-17 6 -24 9q-16 -27 -31 -46q18 -11 33 -23v-50q-48 23 -152 64
q-14 -34 -50 -60q139 -16 246 -83h-133q-53 -1 -77 4v-58q30 6 79 6h117v-36h-47q-54 -1 -92 6v-53q33 6 84 6h55v-40h-87q-54 0 -76 4v-52q30 6 74 6h89v-41h-42q-19 0 -41 2q7 -26 6 -44v-32q0 -16 -3 -41q-1 -4 -1 -6zM681 393v36h87v-36h-87zM454 391v36h76v-36h-76z
M536 550v40h133v-40h-133zM536 631v36h133v-36h-133zM645 715q18 33 65 63q46 -26 74 -63h-139zM155 -19q15 2 40 4q46 5 43 9q0 2 -3 8q-9 20 -9 52v133h26q29 0 63 -4v79q-17 -5 -61 -4h-28v147q21 -12 43 -32q8 -7 13 -11q-4 34 18 85q-42 21 -74 40v329q2 39 -19 52
q-20 16 -96 31q-9 -64 -34 -99q55 12 67 4q16 -5 15 -40v-236l-96 68l-37 -84q67 -28 133 -71v-183h-44q-43 0 -73 6v-83q31 6 85 6h32v-137q0 -24 -4 -69z" />
</svg>
