<?xml version="1.0" standalone="no"?>
<!DOCTYPE svg PUBLIC "-//W3C//DTD SVG 1.1//EN" "http://www.w3.org/Graphics/SVG/1.1/DTD/svg11.dtd" >
<svg xmlns="http://www.w3.org/2000/svg" xmlns:xlink="http://www.w3.org/1999/xlink" version="1.1" viewBox="-10 0 1034 1024">
  <g transform="matrix(1 0 0 -1 0 820)">
   <path fill="currentColor"
d="M86 -157q28 3 82 19q52 13 98 31q64 24 122 58q58 33 130 86q45 -33 80 -55q31 -19 64 -36q90 -45 270 -95q15 30 37 54q-75 1 -172 32q-156 51 -249 131q27 24 47 48q21 22 48 60q40 54 68 98q27 45 59 113q-72 -6 -93 -6h-146v172h311q22 0 52 -3q6 0 16 -3v47
q-12 -3 -36 -4l-343 -1q0 114 3 125q0 10 5 26q3 10 8 19h-59q0 -9 2 -15l4 -65v-90l-399 5q-1 1 -2 1v-47q30 3 63 5h338v-172l-261 1q-9 1 -35 2q-6 0 -11 3v-47q49 4 77 5h21l60 -102q33 -49 45 -65q27 -36 91 -109l3 -3q-99 -84 -236 -134q-81 -30 -196 -37
q13 -15 24 -35q4 -7 10 -17zM701 345q-12 -28 -27 -53q-13 -24 -38 -58q-30 -45 -56 -74q-25 -28 -66 -66q-105 102 -183 251h370z" />
  </g>

</svg>
