<?xml version="1.0" standalone="no"?>
<!DOCTYPE svg PUBLIC "-//W3C//DTD SVG 1.1//EN" "http://www.w3.org/Graphics/SVG/1.1/DTD/svg11.dtd" >
<svg xmlns="http://www.w3.org/2000/svg" xmlns:xlink="http://www.w3.org/1999/xlink" version="1.1" viewBox="-10 0 1010 1000">
   <path fill="currentColor"
d="M228 6q108 37 105 42q-1 3 -7 7q-20 12 -32 39q-3 6 -12 25q-29 59 -38 80v500q-1 187 10 190h-103q10 -26 10 -192v-345q-3 5 -9 17q-42 78 -67 118q-18 -34 -59 -66q132 -151 202 -415zM593 6q108 30 103 38q0 5 -5 9q-14 13 -30 43q-35 66 -60 113h187q123 0 152 -8
v83q-10 -6 -105 -6q-40 291 -127 399q106 82 238 111q-7 12 -20 32q-23 34 -31 57q-141 -63 -236 -146q-105 90 -280 156q-23 -45 -64 -83q193 -42 294 -129q-49 -85 -99 -268l77 -22q19 125 76 228q62 -116 93 -337h-187q-49 96 -97 165q-20 -33 -57 -64q127 -166 178 -371
zM321 193h32q74 -2 72 6q1 4 -3 11q-15 24 -15 60v252q0 161 8 165h-96q8 -31 8 -161v-198q0 -100 -6 -135z" />
</svg>
