<?xml version="1.0" standalone="no"?>
<!DOCTYPE svg PUBLIC "-//W3C//DTD SVG 1.1//EN" "http://www.w3.org/Graphics/SVG/1.1/DTD/svg11.dtd" >
<svg xmlns="http://www.w3.org/2000/svg" xmlns:xlink="http://www.w3.org/1999/xlink" version="1.1" viewBox="-10 0 1010 1000">
   <path fill="currentColor"
d="M585 6q104 21 117 40q0 5 -12 19q-38 49 -77 118h149q56 0 167 -6v89q-36 -3 -119 -6q-35 283 -112 405q66 64 258 127q-39 37 -81 93q-119 -53 -230 -154q-104 94 -282 160l-15 -18q-28 -34 -56 -63q196 -39 307 -145q-60 -96 -115 -264l85 -20q2 88 76 223
q56 -130 79 -346h-143q-65 94 -123 165q-24 -33 -57 -48q0 27 2 46q1 7 -6 6q-56 -6 -201 -6v278l185 -121l36 83q-127 71 -288 185l-56 -72q44 -33 44 -49v-181q0 -127 -8 -198q-1 -5 6 -4q107 6 141 6h65v-181h-97q-64 0 -143 6v-81q38 2 143 4h68q95 0 119 -2
q-10 85 -10 146v122q132 -175 184 -356z" />
</svg>
