<?xml version="1.0" standalone="no"?>
<!DOCTYPE svg PUBLIC "-//W3C//DTD SVG 1.1//EN" "http://www.w3.org/Graphics/SVG/1.1/DTD/svg11.dtd" >
<svg xmlns="http://www.w3.org/2000/svg" xmlns:xlink="http://www.w3.org/1999/xlink" version="1.1" viewBox="-10 0 1010 1000">
   <path fill="currentColor"
d="M653 -10q96 22 105 36q0 4 -8 12q-14 13 -18 24q-10 22 -26 59q-24 55 -35 78h188q55 0 101 -6v81q-38 -6 -91 -6h-16q-17 267 -107 411q77 94 224 151q-48 20 -85 75q-142 -97 -193 -163q-71 78 -234 165q-2 -2 -6 -7q-34 -45 -79 -66q163 -41 276 -159
q-32 -40 -95 -248l79 -18q18 96 61 208q73 -150 76 -351h-131q-45 84 -60 113q-26 -19 -83 -35q109 -151 157 -354zM337 0q7 18 19 49q20 50 25 66l-87 18q-23 -76 -44 -117zM73 153q87 8 131 8h175q92 -2 151 -8v84q-42 -7 -149 -8h-175q-87 0 -133 6v-82zM202 258l76 48
q-109 134 -179 198q-24 -32 -69 -47q98 -84 172 -199zM385 258q87 72 159 149l-70 54q-76 -92 -155 -155zM361 421q89 34 87 48q-2 6 -10 14q-12 11 -17 23q-28 63 -54 106q75 71 119 119l-77 49q-24 -40 -84 -99q-74 100 -224 186q-8 -7 -20 -19q-28 -28 -59 -46
q154 -51 252 -175q-79 -79 -139 -117l61 -53q16 12 116 107q28 -58 49 -143z" />
</svg>
