<?xml version="1.0" standalone="no"?>
<!DOCTYPE svg PUBLIC "-//W3C//DTD SVG 1.1//EN" "http://www.w3.org/Graphics/SVG/1.1/DTD/svg11.dtd" >
<svg xmlns="http://www.w3.org/2000/svg" xmlns:xlink="http://www.w3.org/1999/xlink" version="1.1" viewBox="-10 0 1034 1024">
  <g transform="matrix(1 0 0 -1 0 820)">
   <path fill="currentColor"
d="M891 507q25 0 50 -3q4 0 13 -3v47q-3 0 -8 -2q-15 0 -31 -2l-352 -1l37 128q9 43 38 73q-12 1 -63 17q-6 -63 -32 -156q-18 -57 -39 -112q-21 -57 -40 -93q-18 -37 -31 -55q-12 -15 -34 -34q27 -6 56 -20q27 52 49 102q21 49 47 114h235q-9 -66 -19 -111q-9 -39 -23 -86
q-30 -96 -73 -172q-21 30 -37 69q-48 109 -49 157q0 10 3 32q-30 -9 -58 -13q27 -87 51 -150q27 -61 64 -135q-42 -48 -68 -76q-24 -24 -58 -54q-88 -72 -145 -85q1 0 6 -5q33 -33 39 -40q81 57 139 111q57 54 115 117q36 -49 121 -120q27 -24 61 -45q34 -22 78 -48
q21 28 45 45q-55 7 -136 64q-43 31 -76 63q-28 25 -71 78q43 75 75 165q15 46 27 94q10 45 30 145h64zM247 -101q0 -42 -3 -51q-3 -6 -3 -14h50q-3 9 -4 27q-3 19 -3 38v411q27 -25 62 -66q33 -37 41 -54q13 18 35 35q-45 45 -59 60q-3 6 -23 25l-56 57v50q120 0 141 -3
q3 0 9 -3v47l-103 -5h-47v250q0 13 3 27q0 15 12 36h-58q0 -1 1 -5q0 -1 1 -4q0 -18 4 -54v-250q-129 0 -160 2q-4 1 -7 1t-12 2v-47q1 0 38 5l135 1q-9 -30 -43 -103q-30 -64 -65 -123q-49 -75 -86 -101q7 -1 53 -20l2 -1l113 187q1 6 6 12q24 42 26 46v-415zM117 674
q-18 -13 -34 -23q24 -39 44 -78q21 -40 35 -74q16 12 37 22zM390 582l7 13q19 36 46 54q-25 13 -51 31q-18 -45 -34 -79q-27 -51 -51 -84q24 -9 40 -21q9 24 30 60q6 13 13 26v0z" />
  </g>

</svg>
