<?xml version="1.0" standalone="no"?>
<!DOCTYPE svg PUBLIC "-//W3C//DTD SVG 1.1//EN" "http://www.w3.org/Graphics/SVG/1.1/DTD/svg11.dtd" >
<svg xmlns="http://www.w3.org/2000/svg" xmlns:xlink="http://www.w3.org/1999/xlink" version="1.1" viewBox="-10 0 1034 1024">
  <g transform="matrix(1 0 0 -1 0 820)">
   <path fill="currentColor"
d="M277 529h-164q-24 0 -45 3q4 0 -10 3l-2 1v-48q24 6 57 6h164v-198q-97 0 -120 2q-6 3 -33 3q1 -30 5 -61l-1 -334l-4 -30h47q-4 31 -5 58v34h247q-1 -13 -1 -27q-1 -22 -5 -36h49q-3 33 -5 66l1 288q0 6 2 13q0 10 2 29q-27 -1 -56 -5h-85v198l165 -1l32 -5v48
q-1 0 -2 -1q-3 0 -5 -1q-3 0 -6 -2l-100 -3h-84q0 186 3 193q1 15 11 30h-58q3 -16 6 -48q-1 -6 0 -14v-161zM166 4v256h247v-256h-247zM913 477q27 0 57 -5v46q-6 0 -13 -3q-42 0 -84 -3h-261q28 93 46 156q9 42 16 54q3 9 25 24q-43 6 -72 16q-3 -66 -22 -142
q-27 -102 -70 -188q-36 -63 -75 -98q24 -3 43 -9l15 -7q30 54 41 75l40 84h215q-12 -112 -32 -183q-22 -78 -63 -160q-33 46 -66 124q-21 54 -27 108q-37 -15 -45 -16q27 -81 51 -138q9 -21 27 -53q15 -28 36 -62q-48 -75 -147 -152q-69 -49 -132 -62q34 -31 44 -45
q54 34 84 57q24 15 42 32q69 60 136 135q54 -60 77 -81q64 -54 143 -115q6 -3 13 -9q9 13 16 22q0 1 29 26q-75 25 -142 78q-28 24 -56 50l-58 62q7 18 17 39q36 72 58 149q19 70 37 194h57z" />
  </g>

</svg>
