<?xml version="1.0" standalone="no"?>
<!DOCTYPE svg PUBLIC "-//W3C//DTD SVG 1.1//EN" "http://www.w3.org/Graphics/SVG/1.1/DTD/svg11.dtd" >
<svg xmlns="http://www.w3.org/2000/svg" xmlns:xlink="http://www.w3.org/1999/xlink" version="1.1" viewBox="-10 0 1034 1024">
  <g transform="matrix(1 0 0 -1 0 820)">
   <path fill="currentColor"
d="M484 584l55 -4q1 0 3 -1v46q-4 0 -7 -1q-3 0 -5 -1q-4 0 -8 -1l-128 -2h-180q27 48 46 73q10 22 39 33q-21 7 -32 15q-3 3 -28 17q-15 -45 -42 -89q-36 -63 -72 -104q-48 -48 -92 -66q27 -12 55 -31q36 37 57 63l43 53h296zM244 162q60 -48 91 -98q4 6 12 14l18 18
q-48 52 -89 93q-18 -18 -32 -27zM311 379q-15 15 -31 29q-18 -18 -30 -26q49 -39 95 -97q15 21 28 32zM144 263h-36q-36 0 -57 5v-46q19 4 57 5h32l-20 -185q-1 -18 -8 -50q45 4 91 5h225q-1 -9 -1 -19q-1 -27 -9 -41q-6 -9 -28 -18q-15 -6 -51 -7q-12 0 -49 4
q12 -27 21 -51q37 3 69 10q55 12 74 46q4 10 8 26q3 18 5 50q39 0 84 -3q3 0 10 -2v46q-9 0 -11 -2q-4 0 -8 -1l-74 -2l11 194q67 0 92 -4l4 -1v46l-36 -4l-59 -1l10 167q1 18 3 33q1 6 3 16q-30 -1 -61 -5l-236 1q-6 1 -13 2q-12 0 -27 2q-1 -33 -3 -67zM157 33l19 194h266
l-11 -194h-274zM180 263l14 175h259l-10 -175h-263zM912 499q27 0 57 -5v47q-4 0 -7 -2q-3 0 -4 -1l-137 -3h-180q9 27 20 54q12 36 20 61q15 57 21 64q4 13 28 30q-45 13 -62 21q-10 -54 -29 -119q-28 -87 -44 -122l-25 -51q-28 -51 -72 -86q33 -7 57 -21q36 64 71 133h190
q-7 -102 -22 -197q-18 -105 -63 -199q-39 76 -53 126q-28 96 -29 133q0 13 1 26q-22 -9 -49 -13q34 -174 106 -312q-48 -61 -120 -122q-64 -46 -126 -62q37 -25 52 -40q120 79 221 191q21 -24 39 -43q15 -15 37 -35q37 -33 125 -93q21 30 42 48q-61 18 -99 44
q-73 51 -121 114q45 96 65 180q19 85 35 254h55z" />
  </g>

</svg>
