<?xml version="1.0" standalone="no"?>
<!DOCTYPE svg PUBLIC "-//W3C//DTD SVG 1.1//EN" "http://www.w3.org/Graphics/SVG/1.1/DTD/svg11.dtd" >
<svg xmlns="http://www.w3.org/2000/svg" xmlns:xlink="http://www.w3.org/1999/xlink" version="1.1" viewBox="-10 0 1010 1000">
   <path fill="currentColor"
d="M252 2q93 8 93 20q0 4 -4 12q-10 22 -10 56v109h80q81 -1 123 -6v81q-61 -4 -123 -4h-80l2 532q12 83 -150 85q-6 -59 -48 -113q74 21 99 13q25 -6 24 -50v-179q-63 70 -137 148q-22 23 -28 29l-61 -88q51 -17 224 -176v-201h-68q-52 0 -134 8v-89q9 1 29 3q82 7 76 7h97
v-121q0 -58 -4 -76zM627 0q108 11 105 26q0 3 -4 7q-29 33 -63 170h117q122 -1 160 -10v87q-24 -4 -89 -4q-24 275 -101 407q65 63 212 105q-55 44 -79 83q-127 -74 -185 -131q-105 92 -250 155q-28 -30 -81 -65q178 -41 282 -145q-60 -127 -72 -252q-13 34 -35 76
q-3 4 -4 7q-21 -24 -76 -29q131 -224 163 -487zM444 38q48 54 74 117l-70 38q-32 -73 -73 -125zM772 274h-125q-3 8 -7 22q-16 49 -29 79l34 -4q5 104 57 252q69 -153 70 -349zM143 324q54 65 81 121l-69 42q-34 -66 -80 -124zM395 512q35 23 122 103l27 24l-58 56
q-91 -101 -143 -133zM343 457q47 -61 70 -141l69 36q-5 9 -16 32q-36 75 -61 104q-18 -14 -62 -31z" />
</svg>
