<?xml version="1.0" standalone="no"?>
<!DOCTYPE svg PUBLIC "-//W3C//DTD SVG 1.1//EN" "http://www.w3.org/Graphics/SVG/1.1/DTD/svg11.dtd" >
<svg xmlns="http://www.w3.org/2000/svg" xmlns:xlink="http://www.w3.org/1999/xlink" version="1.1" viewBox="-10 0 1010 1000">
   <path fill="currentColor"
d="M478 375q117 -125 149 -369q103 20 109 30q-1 3 -5 8q-15 17 -27 46q-7 17 -19 51q-16 44 -18 44h158q64 -1 121 -10v87q-22 -5 -84 -4h-13q-15 283 -99 433q82 73 216 109q-38 31 -63 93q-123 -63 -199 -141q-72 86 -184 155q-35 -46 -82 -71q137 -50 217 -143
q-63 -102 -90 -284q-32 -24 -87 -34zM260 0q100 1 105 12q0 1 -4 7q-22 28 -22 69v31h52q98 -1 143 -9v75q-35 -6 -139 -6h-56v71h26q72 -1 117 -8v76q-29 -6 -125 -6h-18v87h44q98 0 139 -8v76q-42 -6 -133 -6h-111q-6 47 -6 77h61q75 0 151 -6q-10 46 -10 80
q-2 149 -45 204q-33 38 -135 46q9 -54 -32 -96q67 16 101 -6q26 -15 32 -158h-129q-26 184 -149 295q-32 -31 -79 -53q170 -96 166 -385q-101 2 -146 12v-80q32 7 132 8h76v-89h-14q-100 0 -145 10v-76q43 6 133 6h28v-71h-50q-106 1 -143 8v-77q68 8 143 9h50v-27
q-1 -58 -8 -92zM639 256l-70 135l86 -12q-17 82 47 248q64 -144 70 -371h-133z" />
</svg>
