<?xml version="1.0" standalone="no"?>
<!DOCTYPE svg PUBLIC "-//W3C//DTD SVG 1.1//EN" "http://www.w3.org/Graphics/SVG/1.1/DTD/svg11.dtd" >
<svg xmlns="http://www.w3.org/2000/svg" xmlns:xlink="http://www.w3.org/1999/xlink" version="1.1" viewBox="-10 0 1010 1000">
   <path fill="currentColor"
d="M639 -13q95 16 107 35q0 4 -7 10q-20 14 -31 44q-16 43 -47 111h170q30 0 131 -8v85q-74 -12 -101 -8q-28 307 -103 429q98 88 210 115q-45 38 -69 89q-105 -58 -193 -139q-76 76 -244 159q-36 -59 -85 -85q197 -45 284 -139q-67 -112 -92 -298l-25 46q-32 -32 -74 -42
q114 -117 169 -404zM278 -10q60 17 95 42q0 3 -13 12q-27 19 -35 36q98 45 233 131l-64 69q-64 -65 -206 -151q-29 47 -109 147q52 6 85 6h87q33 0 109 -6v82q-75 -11 -105 -8h-85q-27 -4 -113 8v-60q-31 35 -68 69q-28 -38 -73 -55q167 -110 262 -322zM639 254
q-18 33 -58 115l68 -13q0 138 61 267q45 -104 70 -369h-141zM313 393q28 92 40 232l-85 12q2 -127 -32 -236zM417 395q100 24 97 34q-1 3 -7 10q-14 18 -19 34q-12 38 -30 98q-25 78 -35 112q61 -15 121 -32l-6 89q-257 30 -465 86l-31 -97q134 -4 305 -34q47 -126 70 -300z
M175 407q30 110 49 248l-89 12q-4 -143 -40 -246z" />
</svg>
