<?xml version="1.0" standalone="no"?>
<!DOCTYPE svg PUBLIC "-//W3C//DTD SVG 1.1//EN" "http://www.w3.org/Graphics/SVG/1.1/DTD/svg11.dtd" >
<svg xmlns="http://www.w3.org/2000/svg" xmlns:xlink="http://www.w3.org/1999/xlink" version="1.1" viewBox="-10 0 1034 1024">
  <g transform="matrix(1 0 0 -1 0 820)">
   <path fill="currentColor"
d="M77 -51l16 -10l17 21q60 66 107 126q42 60 83 130v-320q0 -39 -5 -59h48q-3 7 -4 34l-1 311q94 -55 168 -122q6 13 29 37q-12 7 -22 13l-78 55l-97 63v33q126 0 138 -2q13 0 34 -4l-3 30q-3 22 -3 68l1 93q1 21 5 41q-55 -4 -88 -5h-84v104h152q24 0 48 -3q1 0 16 -2v47
q-4 0 -7 -2l-88 -4h-121q0 115 3 124q1 15 10 26h-56q0 -6 3 -13l2 -137l-235 3q-3 1 -8 3v-47q39 4 59 5h184v-104l-145 1q-15 3 -41 4q1 -27 5 -55l-1 -134q-3 -12 -4 -43q60 6 81 6h84q-64 -129 -149 -223q-25 -27 -45 -44q-18 -13 -38 -26l14 -7q3 -3 6 -5q4 -3 10 -7z
M156 297v148h144v-148h-144zM338 297v149h128v-149h-128zM562 329q28 64 44 105q15 39 35 100h163q-7 -103 -24 -218q-19 -102 -53 -188q-21 36 -27 49q-15 31 -31 82q-21 66 -22 92q0 9 6 28q-28 -6 -51 -9q27 -111 35 -132q6 -21 20 -51q27 -66 49 -103q-46 -72 -110 -129
q-72 -60 -147 -82q25 -24 38 -42q91 57 135 96q45 40 108 122q48 -60 91 -98q60 -51 119 -94q18 24 49 40q-48 15 -110 57q-66 49 -128 132q27 66 46 135q15 66 28 151l17 162h61q36 0 62 -6v47q-24 -6 -39 -6l-273 -1l27 136q7 33 32 49q-36 6 -66 15q-4 -64 -14 -114
q-12 -57 -33 -128q-45 -129 -92 -185q15 -1 27 -5z" />
  </g>

</svg>
