<?xml version="1.0" standalone="no"?>
<!DOCTYPE svg PUBLIC "-//W3C//DTD SVG 1.1//EN" "http://www.w3.org/Graphics/SVG/1.1/DTD/svg11.dtd" >
<svg xmlns="http://www.w3.org/2000/svg" xmlns:xlink="http://www.w3.org/1999/xlink" version="1.1" viewBox="-10 0 1010 1000">
   <path fill="currentColor"
d="M264 -4q91 1 105 14q2 4 -5 14q-21 32 -21 70v190h105q30 -1 96 -10q-11 60 -8 89q90 -144 113 -367q107 17 111 28q1 3 -8 14q-18 21 -26 42q-23 60 -31 89q-5 16 -8 26h160q45 0 101 -6v79q-62 -7 -83 -4q-15 241 -83 391q86 98 186 133q-54 32 -77 81
q-75 -57 -149 -144q-58 90 -165 176q-27 -38 -83 -59q136 -73 200 -177q-53 -112 -83 -282q-18 33 -36 78q-20 -30 -39 -40v355q-2 51 -129 72q2 -40 -32 -96q90 11 89 -23v-377h-121v345q1 114 8 157h-87q5 -14 7 -106q1 -31 1 -45v-351h-127v385q0 104 8 130h-88
q8 -29 8 -123v-379q0 -16 -5 -64q-2 -16 -3 -25q6 1 18 2q44 6 60 6h129v-182q0 -34 -7 -101q-1 -3 -1 -5zM456 60q91 25 92 38q-1 2 -7 7q-21 19 -35 44q-5 9 -14 26q-31 58 -40 81q-2 -1 -5 -2q-33 -12 -68 -17q53 -68 77 -177zM159 64q36 61 75 165l-79 23
q-27 -95 -76 -164zM790 262h-125q-10 21 -24 54q-6 13 -8 18l46 -4q9 149 55 268q48 -138 56 -336zM409 415q25 87 49 218l-65 14q-5 -105 -44 -222zM194 419l66 10q-20 78 -44 242l-65 -16q15 -106 43 -236z" />
</svg>
