<?xml version="1.0" standalone="no"?>
<!DOCTYPE svg PUBLIC "-//W3C//DTD SVG 1.1//EN" "http://www.w3.org/Graphics/SVG/1.1/DTD/svg11.dtd" >
<svg xmlns="http://www.w3.org/2000/svg" xmlns:xlink="http://www.w3.org/1999/xlink" version="1.1" viewBox="-10 0 1034 1024">
  <g transform="matrix(1 0 0 -1 0 820)">
   <path fill="currentColor"
d="M120 627q-46 0 -62 4q-1 1 -3 1v-47q12 3 20 3q21 1 45 3l409 -3q6 0 12 -3v47q-61 -4 -95 -5h-112q12 13 28 28q-21 21 -44 41q-51 48 -77 67q-9 -15 -30 -35q40 -30 65 -51l50 -50h-206zM281 -43q0 -30 -14 -43q-18 -10 -46 -11q-6 0 -56 5q9 -21 22 -53q54 3 85 15
q48 19 48 80v131l188 30q0 3 1 4l10 44q-30 -10 -57 -17q-9 0 -142 -24v56q43 27 71 49q27 21 81 72q-31 -1 -61 -4l-307 3l-8 2v-47q12 3 20 3q21 1 45 3h212q-51 -37 -97 -63q4 -49 5 -69v-12l-130 -21q-42 -3 -94 -5q12 -28 20 -53q27 10 63 17l141 26v-118zM129 412
q0 -22 -4 -54q36 3 51 4h225q18 0 56 -4q-3 24 -3 102q0 42 3 65q-36 -3 -56 -4h-225q-18 0 -51 4q3 -30 4 -53v-60zM167 398v87h248v-87h-248zM434 -135q6 -7 14 -17q12 7 25 13q49 24 95 55q12 7 10 7q73 54 132 119q28 -33 65 -67q36 -30 92 -72q3 -1 7 -5q21 -13 64 -38
q24 25 48 42q-57 13 -116 49q-78 51 -138 125q43 72 68 147q22 72 35 174l10 84l100 -3q7 0 13 -3v46l-67 -4h-263q25 73 42 131l20 67q7 15 26 30q-30 4 -72 14q-3 -168 -109 -346q-33 -54 -77 -92q36 -9 53 -16q27 36 48 71q22 39 54 105h188q0 -58 -16 -157
q-25 -129 -77 -214q-34 63 -60 135q-27 73 -29 113q-24 -9 -51 -17q13 -28 27 -66q45 -126 90 -201q-54 -70 -132 -121t-148 -61z" />
  </g>

</svg>
