<?xml version="1.0" standalone="no"?>
<!DOCTYPE svg PUBLIC "-//W3C//DTD SVG 1.1//EN" "http://www.w3.org/Graphics/SVG/1.1/DTD/svg11.dtd" >
<svg xmlns="http://www.w3.org/2000/svg" xmlns:xlink="http://www.w3.org/1999/xlink" version="1.1" viewBox="-10 0 1010 1000">
   <path fill="currentColor"
d="M633 -12q106 8 117 22q0 4 -8 11q-14 13 -20 25q-19 43 -43 108q-11 27 -16 41h135q70 0 156 -10v83q-8 -3 -41 -7q-30 -2 -46 -1q-13 310 -85 441q81 62 180 93q-50 42 -67 89q-81 -48 -153 -117q-59 75 -141 141q-26 -27 -95 -47q120 -73 188 -151q-79 -106 -113 -334
l-16 24q-17 -45 -39 -71q83 -133 107 -340zM448 62q75 19 98 30q-21 13 -88 180q-34 -20 -71 -22q43 -88 61 -188zM151 72q39 67 77 174l-73 30q-33 -115 -80 -176zM796 258h-155q-21 45 -48 96l78 -4q-21 107 63 293q53 -116 62 -385zM399 451q-4 21 -4 71v137q0 27 4 48
q-12 -4 -54 -4h-97q-40 0 -50 4q4 -36 4 -54v-145q0 -11 -3 -42q-1 -10 -1 -15q11 5 52 4h95q36 -1 54 -4zM335 518h-73v121h73v-121zM526 314q0 1 -1 6q-5 31 -5 77v393q13 59 -151 87q-5 -54 -44 -99q129 26 123 -32v-371h-297v350q1 124 8 154h-88q7 -44 8 -148v-350
q-4 -56 -8 -69q30 8 106 8h87v-197q0 -68 -8 -113q-2 -9 -2 -12q78 2 103 12q0 1 -3 6q-19 28 -19 74v230h103q51 0 82 -5q5 -1 6 -1z" />
</svg>
