<?xml version="1.0" standalone="no"?>
<!DOCTYPE svg PUBLIC "-//W3C//DTD SVG 1.1//EN" "http://www.w3.org/Graphics/SVG/1.1/DTD/svg11.dtd" >
<svg xmlns="http://www.w3.org/2000/svg" xmlns:xlink="http://www.w3.org/1999/xlink" version="1.1" viewBox="-10 0 1010 1000">
   <path fill="currentColor"
d="M262 -4q88 8 101 20q0 3 -4 10q-20 31 -20 82v105h82q62 0 106 -7q7 -1 9 -1v81q-2 0 -11 -1q-49 -7 -106 -7h-80v46q0 57 6 93q2 9 2 12h-87q0 -4 2 -16q6 -45 6 -89v-42q-64 111 -173 193q-32 -41 -63 -60q0 -1 10 -5q109 -46 164 -130h-27q-51 0 -109 7q-10 1 -12 1
v-83q2 0 14 1q62 7 107 7h89v-103q0 -57 -5 -102q-1 -9 -1 -12zM629 14q109 17 119 32q1 3 -5 10q-31 42 -60 133h152q51 0 99 -7q8 -1 10 -1v83q-3 0 -13 -2q-36 -6 -68 -6q-22 341 -93 445q76 78 184 107q-35 33 -63 85q-89 -53 -167 -135q-79 80 -224 145
q-20 -32 -71 -73q155 -36 250 -137q-51 -111 -74 -286q-15 23 -30 62q-10 -14 -55 -36q-10 -4 -14 -6q98 -156 123 -413zM175 48q27 41 47 123l-73 14q-24 -84 -52 -123zM437 48q72 22 77 36q0 2 -4 4q-25 18 -64 107l-61 -16q39 -76 52 -131zM782 254h-117q-15 34 -43 115
q-2 7 -3 10l69 -2q0 1 -1 5q-21 96 35 253q51 -128 60 -381zM413 300q47 36 95 91l-54 50q-51 -59 -97 -95zM244 437q90 17 93 28q0 7 -10 17q-17 16 -27 36h109q40 0 125 -6q-45 107 -111 195q9 3 27 11q38 15 60 24l-52 66q-34 -21 -85 -44q-82 82 -280 125
q-20 -42 -65 -89q179 -3 266 -63q-104 -28 -169 -36q2 -5 26 -47q29 -51 41 -74h-27q-47 0 -94 6q-12 2 -15 2v-78q2 0 13 1q55 7 100 7h49q15 -30 26 -81zM421 578h-151q-9 16 -28 49q-11 18 -16 28q11 2 37 8q67 14 88 20q41 -45 70 -105z" />
</svg>
