<?xml version="1.0" standalone="no"?>
<!DOCTYPE svg PUBLIC "-//W3C//DTD SVG 1.1//EN" "http://www.w3.org/Graphics/SVG/1.1/DTD/svg11.dtd" >
<svg xmlns="http://www.w3.org/2000/svg" xmlns:xlink="http://www.w3.org/1999/xlink" version="1.1" viewBox="-10 0 1010 1000">
   <path fill="currentColor"
d="M631 6q106 21 107 28q0 3 -7 10q-20 23 -33 54q-10 25 -24 58q-7 19 -9 23h119q80 0 113 -2q34 -2 49 -8v89q-22 -8 -85 -8q-12 261 -79 409q74 80 188 137q-55 32 -85 73q-90 -66 -147 -138q-67 89 -176 154q-28 -49 -70 -65q143 -73 198 -159q-38 -57 -95 -256
q-8 -30 -12 -43q-4 7 -12 22q-6 12 -9 17q-28 -33 -40 -32v18q-6 265 -16 353q-3 126 -169 149q-14 -54 -49 -99q105 19 133 -38q10 27 25 -341h-258q-17 28 -43 62q8 8 101 8h28q83 0 107 -8q-8 21 -8 133q-2 94 6 136q-13 -3 -43 -4q-14 -1 -34 -1h-56h-50q0 29 4 39h-79
q6 -24 6 -141v-25q0 -75 -6 -98q-5 6 -14 19q-15 22 -26 33q-18 -42 -49 -66q92 -70 143 -224q46 6 93 24q0 4 -10 13q-21 16 -30 35h153h29q83 2 96 -8q85 -118 125 -332zM357 18q91 0 93 8q0 3 -4 10q-11 17 -11 34v61q93 0 117 -8v80q-27 -8 -117 -8q0 75 7 95h-87
q8 -15 8 -93h-99q0 57 6 73h-87q9 -24 9 -73q-96 -1 -134 8v-80q47 10 132 8q0 -101 -5 -111q91 0 93 8q0 2 -3 7q-11 15 -11 33v63h97v-33q1 -72 -4 -82zM774 248h-135q-17 38 -50 100l82 -12q2 3 0 16q-3 25 0 39q18 88 58 188q2 5 3 7q41 -129 42 -338zM194 542v127h106
v-127h-106z" />
</svg>
