<?xml version="1.0" standalone="no"?>
<!DOCTYPE svg PUBLIC "-//W3C//DTD SVG 1.1//EN" "http://www.w3.org/Graphics/SVG/1.1/DTD/svg11.dtd" >
<svg xmlns="http://www.w3.org/2000/svg" xmlns:xlink="http://www.w3.org/1999/xlink" version="1.1" viewBox="-10 0 1034 1024">
  <g transform="matrix(1 0 0 -1 0 820)">
   <path fill="currentColor"
d="M124 195l-53 4q-3 0 -5 1v-46q19 4 58 5h96q-15 -21 -28 -43q-24 -40 -34 -51q-9 -10 -17 -22l100 -35l77 -29q-36 -28 -60 -42q-24 -12 -61 -26q-60 -19 -128 -23q24 -27 35 -49q60 15 124 45q57 27 127 81q54 -18 82 -30q18 -7 45 -23q3 7 6 15q4 9 6 13q3 3 8 12
q-13 4 -30 11l-52 19l-41 13q30 40 57 86q27 51 56 119q-16 -1 -28 -2q-19 -3 -27 -3h-157q28 54 60 64q-24 7 -36 14q-10 6 -24 16q-18 -54 -42 -94h-114zM226 105l36 54h170q-37 -87 -90 -149q-21 7 -40 14q-33 10 -68 24l-36 13q13 22 28 44zM306 348q0 -24 -7 -57h49
q-3 21 -4 57v110l60 -49q21 -16 37 -31q19 -18 51 -56q9 18 30 38q-24 21 -39 30q-66 54 -80 63l-60 47l178 -1q1 0 26 -4v46q-9 0 -11 -2l-135 -3h-58v157q0 9 2 25q1 18 11 37h-57q0 -3 2 -6q0 -4 2 -10q1 -27 2 -88v-115l-189 1l-14 2q-3 0 -12 2v-46q21 3 45 5h148
q-45 -67 -117 -134q-58 -48 -108 -61q16 -6 29 -12q10 -7 30 -23q64 57 107 102q39 42 82 99v-123zM126 690q30 -24 57 -59l22 -29q7 -12 18 -29q15 15 35 25q-45 60 -97 118q-13 -13 -35 -26zM431 577q54 75 71 94q13 16 39 29q-28 13 -52 33q-43 -78 -103 -139
q7 -1 43 -16zM534 -144q67 51 115 95q42 42 84 95q45 -52 92 -103q52 -51 120 -111q22 27 51 43q-30 10 -57 27q-28 18 -69 53q-60 54 -114 128q19 40 33 75q12 34 26 83q15 49 26 105q10 60 24 150l63 -1q19 0 35 -5v47q-9 0 -11 -2q-10 0 -46 -4h-245q36 106 47 150
q10 39 15 47q6 12 26 29q-9 0 -21 4q-4 0 -45 11q-25 -172 -96 -307q-30 -52 -71 -78q42 -12 62 -25q18 27 32 56q15 30 34 78h177q-19 -210 -92 -378q-42 72 -58 115q-30 73 -30 110q0 9 1 23q-21 -9 -51 -17l24 -76l24 -63q21 -52 66 -131q-64 -88 -141 -147
q-60 -42 -110 -56q10 -7 22 -17q15 -9 29 -25q13 12 29 22v0z" />
  </g>

</svg>
