<?xml version="1.0" standalone="no"?>
<!DOCTYPE svg PUBLIC "-//W3C//DTD SVG 1.1//EN" "http://www.w3.org/Graphics/SVG/1.1/DTD/svg11.dtd" >
<svg xmlns="http://www.w3.org/2000/svg" xmlns:xlink="http://www.w3.org/1999/xlink" version="1.1" viewBox="-10 0 1034 1024">
  <g transform="matrix(1 0 0 -1 0 820)">
   <path fill="currentColor"
d="M471 366l-11 -328q0 -16 -2 -31q-3 -19 -2 -18q-6 -42 -48 -58q-30 -12 -68 -12q-19 0 -50 4q21 -45 21 -50q54 6 75 12q6 1 39 12q37 16 53 40q13 25 17 80l4 115q9 235 13 259q0 7 2 16q-27 -1 -55 -5h-265q24 42 55 57q-15 7 -28 15q-12 6 -30 21q-21 -58 -60 -118
q-25 -39 -45 -59q-16 -15 -51 -37q28 -9 54 -29q42 57 81 114h301zM809 510q-9 -234 -85 -379l-37 81l-19 55q-28 88 -29 128q0 12 2 25q-34 -12 -55 -17q6 -15 11 -29q3 -12 50 -157l53 -126q-36 -54 -114 -126q-69 -58 -131 -74q30 -18 50 -43q51 36 90 72q40 36 70 66
q27 27 58 65q48 -67 84 -105l48 -45l69 -58q13 18 47 43q-63 22 -125 79q-57 54 -98 126q37 73 61 149q13 48 23 108q9 66 19 162q66 0 91 -4l4 -1v46q-9 0 -12 -2q-18 0 -46 -3h-255q60 168 62 168q6 12 24 20q-16 6 -31 10q-6 0 -35 12q-12 -99 -71 -233q-37 -76 -82 -104
q31 -9 57 -21q21 36 35 61q10 21 25 51h192zM232 620q-118 0 -147 2q-3 1 -6 1t-12 2v-46q46 4 93 5h72v-40q0 -33 -6 -58h49q-3 7 -5 46v52h129v-38q0 -37 -6 -58h49q-4 30 -5 58v38l87 -1q18 0 31 -4v46q-4 0 -7 -1q-3 0 -4 -1l-107 -3q0 90 3 95q1 15 11 30h-58
q3 -16 6 -48q-1 -6 0 -14v-63h-129q0 84 3 94q1 13 10 27h-57q3 -18 6 -51q-1 -4 0 -11v-59zM136 270q1 -25 5 -52l-1 -153q-3 -12 -4 -39q39 4 78 5l131 -1l37 -4q-4 42 -5 61q0 141 2 152q0 16 3 31q-25 -1 -51 -5l-159 1q-15 3 -36 4zM178 67v162h161v-162h-161z" />
  </g>

</svg>
