<?xml version="1.0" standalone="no"?>
<!DOCTYPE svg PUBLIC "-//W3C//DTD SVG 1.1//EN" "http://www.w3.org/Graphics/SVG/1.1/DTD/svg11.dtd" >
<svg xmlns="http://www.w3.org/2000/svg" xmlns:xlink="http://www.w3.org/1999/xlink" version="1.1" viewBox="-10 0 1010 1000">
   <path fill="currentColor"
d="M484 -12q31 39 52 78l-72 32q5 0 15 -1q84 -3 112 -7v63q-32 -4 -78 -7q-41 -2 -67 -1h-89v68h111q40 -1 78 -8q-6 24 -6 65v141q0 38 6 99h-80q8 -26 8 -65h-115q0 23 6 51h-85q8 -26 8 -51h-113q-3 22 8 69h-86q10 -46 10 -111v-133q0 -42 -10 -63q44 7 76 8h113v-70
h-103q-70 -2 -127 8v-65q20 5 59 8q38 3 64 2h107q0 -61 -4 -101v-7q84 2 93 14q0 2 -3 7q-15 27 -15 61v26h101q-5 -30 -43 -82zM671 -2q97 17 107 28q0 5 -6 10q-13 11 -22 30q-14 29 -46 111h127q63 2 121 -8v79q-30 -7 -79 -8q-11 285 -91 451q66 58 186 95
q-51 37 -69 87q-93 -55 -159 -123q-71 80 -182 151q-21 -39 -72 -69q125 -49 208 -141q-61 -122 -69 -339l-22 39l-59 -35q109 -156 127 -358zM802 240h-119q-24 51 -40 82l63 -2q-20 30 -10 132q13 111 42 177q56 -151 64 -389zM286 254h-115v56h115v-56zM357 252v58h115
v-58h-115zM173 350v55h115v-55h-115zM357 350v55h117v-55h-117zM355 500q21 22 38 54l-36 16h85q102 -1 163 -10v67q-51 -6 -157 -8h-158q-3 30 -6 54h119q57 0 113 -8q-24 159 -46 179q-26 31 -131 43q1 -49 -29 -81q66 8 93 0q18 -2 30 -73h-165q-45 107 -165 174
q-18 -32 -69 -67q174 -35 188 -221h-34q-62 -1 -140 8v-67q63 9 142 10h145q-11 -27 -35 -50z" />
</svg>
