<?xml version="1.0" standalone="no"?>
<!DOCTYPE svg PUBLIC "-//W3C//DTD SVG 1.1//EN" "http://www.w3.org/Graphics/SVG/1.1/DTD/svg11.dtd" >
<svg xmlns="http://www.w3.org/2000/svg" xmlns:xlink="http://www.w3.org/1999/xlink" version="1.1" viewBox="-10 0 1010 1000">
   <path fill="currentColor"
d="M665 -8q106 -5 109 6q1 3 -5 13q-17 32 -17 73v65q97 0 138 -2q43 -1 66 -6v88q-18 -6 -51 -7q-18 -1 -50 -1h-103v121h141q-31 230 -123 373q91 79 194 117q-31 22 -57 73q-116 -57 -183 -131l-8 8q-82 81 -133 115q-25 -50 -49 -67q72 -36 143 -115q-67 -123 -98 -286
l58 -20q-53 0 -101 8v-81q44 6 135 6v-240q2 -84 -6 -110zM341 8q19 38 34 98h103q53 0 87 -6v77q-1 0 -4 -1q-34 -5 -81 -5h-309q-54 0 -73 1q-24 1 -38 3v-77q50 8 103 8h125q-9 -34 -40 -82zM141 217q59 8 172 8q127 0 181 -6q-10 22 -10 79q0 65 6 107q-39 -4 -171 -4
q-154 0 -180 8q6 -36 6 -105q0 -55 -4 -87zM216 280v66h195v-66h-195zM202 562q42 6 110 6q40 0 99 -4q-6 21 -6 95q0 51 1 68q1 22 3 33q-12 -2 -34 -3q-18 -1 -65 -1q-52 0 -71 1q-25 1 -39 3q8 -53 8 -101q0 -67 -6 -97zM264 623v78h83v-78h-83zM399 891q-15 -61 -44 -89
q64 6 82 3q20 -3 19 -19v-268h-309v274q0 66 6 101h-84q6 -41 6 -89v-260q0 -73 -4 -103q30 12 92 12h272q51 0 99 -6q-6 41 -6 107v282q-5 54 -129 55zM651 409q24 159 73 248q61 -102 78 -248h-151z" />
</svg>
