<?xml version="1.0" standalone="no"?>
<!DOCTYPE svg PUBLIC "-//W3C//DTD SVG 1.1//EN" "http://www.w3.org/Graphics/SVG/1.1/DTD/svg11.dtd" >
<svg xmlns="http://www.w3.org/2000/svg" xmlns:xlink="http://www.w3.org/1999/xlink" version="1.1" viewBox="-10 0 1034 1024">
  <g transform="matrix(1 0 0 -1 0 820)">
   <path fill="currentColor"
d="M324 269q0 -24 -3 -42l-3 -15h51q-6 21 -7 57v91q99 -66 132 -106q12 27 20 35q0 3 4 6l-156 101v13q123 0 136 -2q13 0 29 -3q-4 39 -5 64q0 66 2 74q0 15 3 29q-24 -1 -50 -5h-115v64l157 -1l36 -4v42l-28 -4l-165 -1q0 54 3 61q1 15 11 30h-58q0 -3 2 -6q3 -72 4 -75
v-10h-158q-37 0 -58 5v-42q46 4 89 5h127v-64l-135 1q-15 3 -35 4q6 -48 6 -68q0 -48 -2 -68l-4 -31q42 4 64 5h77q-52 -60 -118 -106q-52 -34 -118 -49q31 -27 45 -44q48 27 95 63q33 25 64 55q27 27 61 66v-125zM324 535v-94h-127v94h127zM484 535v-94h-122v94h122z
M283 -109l-172 1q-9 1 -16 2q-3 0 -12 2v-46q19 4 57 5l794 -3q3 0 10 -2v46q-9 0 -12 -2q-22 0 -46 -3h-330v118l248 -3q3 0 10 -2v46q-4 0 -7 -1q-3 0 -4 -1q-4 0 -8 -1q-13 0 -38 -2h-201v98l304 -1q18 0 30 -4v46q-9 0 -11 -2q-22 0 -46 -3l-631 1q-9 1 -16 2
q-3 0 -12 2v-46q21 3 45 5h299v-252h-197v129q0 9 2 24q1 19 12 36h-58q0 -3 2 -6q3 -21 4 -54v-129zM809 465q12 22 21 48q12 30 28 81q63 0 79 -3q6 0 12 -2v46q-10 0 -12 -2q-18 0 -46 -3h-242q7 21 16 42q13 39 21 48q6 9 28 24q-24 4 -31 7l-33 11q-13 -66 -51 -158
q-25 -58 -71 -118q31 -6 50 -13q15 34 33 70l25 51h181q-18 -58 -35 -97q-18 -37 -50 -88q-6 9 -12 17q-25 33 -47 72q-4 9 -10 36q-15 -12 -22 -16q-9 -4 -21 -9q51 -79 88 -131q-48 -54 -98 -89q-37 -24 -97 -38q36 -24 55 -41q91 60 168 139l51 -44q21 -15 39 -29
q30 -21 101 -61q10 21 42 47q-61 12 -102 35q-61 33 -107 83q16 27 33 56q7 15 16 29v0z" />
  </g>

</svg>
