<?xml version="1.0" standalone="no"?>
<!DOCTYPE svg PUBLIC "-//W3C//DTD SVG 1.1//EN" "http://www.w3.org/Graphics/SVG/1.1/DTD/svg11.dtd" >
<svg xmlns="http://www.w3.org/2000/svg" xmlns:xlink="http://www.w3.org/1999/xlink" version="1.1" viewBox="-10 0 1010 1000">
   <path fill="currentColor"
d="M605 0q100 7 107 18q0 5 -5 16q-13 28 -13 68v394q14 -1 44 -3q140 -9 197 -20l3 91q-31 -6 -85 -5q-57 0 -159 7v188q3 108 8 149h-95q8 -49 8 -147v-186q-260 25 -532 53l-2 -93q67 7 534 -28v-422q1 -44 -10 -80zM347 58q72 45 209 157l-74 73q-90 -101 -200 -167z
M234 246q76 44 226 157l-73 72q-102 -111 -216 -165z" />
</svg>
