<?xml version="1.0" standalone="no"?>
<!DOCTYPE svg PUBLIC "-//W3C//DTD SVG 1.1//EN" "http://www.w3.org/Graphics/SVG/1.1/DTD/svg11.dtd" >
<svg xmlns="http://www.w3.org/2000/svg" xmlns:xlink="http://www.w3.org/1999/xlink" version="1.1" viewBox="-10 0 1010 1000">
   <path fill="currentColor"
d="M431 -4q36 45 79 133l-73 36q-33 -88 -80 -141zM198 24q33 53 66 137l-81 22q-12 -51 -64 -139zM544 50q54 9 144 10h82q102 -2 163 -10q-9 70 -10 157v587q7 56 -20 73q-16 16 -123 30q0 -53 -34 -95q69 6 86 -2q17 -5 15 -40v-629h-153q-61 0 -92 2q-35 1 -58 6v-89z
M589 151q79 3 76 8q0 2 -3 6q-13 23 -13 62h32q100 0 136 -6v61q-63 -7 -140 -8h-26v64h39l110 -4l-4 101v65l4 100l-113 -4h-36v47l51 -30q69 69 102 116l-62 43q-60 -88 -91 -117v87q0 90 8 118h-74q8 -35 10 -114v-109q-60 98 -131 163q-21 -32 -55 -50q88 -45 153 -152
l-116 4l4 -108v-65q0 -17 -3 -67q-1 -18 -1 -28q72 4 108 4h41v-64h-51q-77 0 -109 6v-61q44 8 109 8h51q0 -34 -6 -76zM506 389v155h89v-155h-89zM651 389v155h89v-155h-89zM688 415q20 6 46 16q-34 50 -44 87q-7 -4 -37 -14q25 -33 35 -89zM552 419q13 18 29 85l-37 10
q-7 -45 -28 -83zM403 762q0 104 12 137h-94q10 -33 10 -111l-77 34q-9 -40 -43 -126q-3 -9 -5 -13q-44 95 -115 196q-37 -29 -87 -47q106 -83 163 -232q-39 -97 -115 -244l71 -30q37 91 69 180q18 -88 22 -248h-39h-11q-94 4 -118 8v-77q41 5 127 6h55q50 -1 87 -6v75
q-9 -4 -33 -4q-8 211 -42 334q7 15 30 60q46 90 61 122v-492q1 -53 -6 -85q-2 -8 -2 -12q83 3 96 12q0 1 -2 3q-14 22 -14 78v482z" />
</svg>
