<?xml version="1.0" standalone="no"?>
<!DOCTYPE svg PUBLIC "-//W3C//DTD SVG 1.1//EN" "http://www.w3.org/Graphics/SVG/1.1/DTD/svg11.dtd" >
<svg xmlns="http://www.w3.org/2000/svg" xmlns:xlink="http://www.w3.org/1999/xlink" version="1.1" viewBox="-10 0 1034 1024">
  <g transform="matrix(1 0 0 -1 0 820)">
   <path fill="currentColor"
d="M149 592l-29 47l-14 23q-18 -13 -39 -22q24 -28 50 -74q28 -48 38 -73q24 13 40 18q-9 12 -46 81zM375 624q-6 -18 -20 -45l-37 -73q22 -7 36 -16l39 86q22 45 29 52q6 12 27 24q-24 10 -55 31q-1 -9 -4 -21zM777 771q0 -3 3 -9q0 -27 3 -52v-545q-324 -46 -329 -48
q-3 1 -6 0l-58 -1q3 -27 7 -54q7 3 59 13q25 6 327 52v-224q0 -22 -3 -53q0 -3 -3 -13h50q-3 15 -4 35l-1 260q123 15 139 15h9q-3 25 -4 51q-25 -9 -77 -17l-67 -9v538q0 33 17 61h-62zM659 263l9 9l-110 108q-30 27 -51 45q-9 -9 -22 -25q-3 -4 -8 -8q49 -39 158 -154
q7 9 16 18q3 4 8 7zM644 517q18 -16 40 -43q9 12 31 30q-121 118 -141 140q-28 -24 -31 -30q33 -27 40 -35zM232 397q-10 -43 -76 -172q-60 -105 -104 -137l13 -6q9 -6 15 -8q10 -3 21 -12q69 93 138 244q-3 -465 -5 -481h48q-3 33 -5 67v409q60 -58 98 -122l23 23l10 9
q-30 39 -44 54q-33 33 -87 96v36h82q33 0 53 -3l13 -2v46q-19 -3 -61 -5h-87v273q0 15 3 27q1 15 16 33h-62q4 -49 5 -78v-255l-151 1q-18 3 -22 3q-3 1 -6 1v-46q54 4 109 5h63z" />
  </g>

</svg>
