<?xml version="1.0" standalone="no"?>
<!DOCTYPE svg PUBLIC "-//W3C//DTD SVG 1.1//EN" "http://www.w3.org/Graphics/SVG/1.1/DTD/svg11.dtd" >
<svg xmlns="http://www.w3.org/2000/svg" xmlns:xlink="http://www.w3.org/1999/xlink" version="1.1" viewBox="-10 0 1034 1024">
  <g transform="matrix(1 0 0 -1 0 820)">
   <path fill="currentColor"
d="M114 -127q148 18 241 46q90 27 185 83q93 -48 272 -89q49 -9 94 -21q4 10 9 20q9 21 19 34q-189 6 -363 82q69 69 145 192l184 -1q9 0 24 -5v46q-4 0 -7 -1l-90 -4h-269q1 3 4 7q9 15 19 24l-47 46l-46 40l-15 15q-4 -6 -9 -13q-6 -9 -17 -20q49 -33 105 -99l-409 1
q-9 1 -27 2q-3 0 -12 2v-46q18 6 55 6h148q58 -76 98 -115q21 -21 45 -41l51 -38q-57 -34 -115 -55q-123 -42 -247 -43l-50 1q18 -36 25 -56zM668 220q-49 -94 -133 -170q-57 33 -108 85q-37 39 -71 85h312zM385 422l-269 1q-10 0 -26 5v-46q15 4 26 5l269 1l-4 -68
q-1 -1 -2 -7h48q-4 34 -5 49l1 373q0 16 5 28q1 10 7 21h-56q4 -19 5 -39l1 -69l-254 3q-6 0 -13 2v-45q18 4 57 5h210v-94l-209 1q-10 0 -26 5v-46q15 4 56 5h179v-90zM627 680q0 66 3 74q1 12 10 30h-55q4 -36 5 -62l-1 -378q-3 -15 -4 -26h47q-4 19 -5 49v25l288 -1
l21 -4v46q-6 -1 -13 -3q-10 0 -42 -3h-254v92l244 -3l2 -1q3 0 7 -2v46q-15 0 -55 -5h-198v91h219q33 0 54 -4v45q-3 0 -6 -2l-48 -4h-219z" />
  </g>

</svg>
