<?xml version="1.0" standalone="no"?>
<!DOCTYPE svg PUBLIC "-//W3C//DTD SVG 1.1//EN" "http://www.w3.org/Graphics/SVG/1.1/DTD/svg11.dtd" >
<svg xmlns="http://www.w3.org/2000/svg" xmlns:xlink="http://www.w3.org/1999/xlink" version="1.1" viewBox="-10 0 1034 1024">
  <g transform="matrix(1 0 0 -1 0 820)">
   <path fill="currentColor"
d="M219 612l118 -3q3 0 10 -3v47q-19 -4 -70 -5l-224 5v-47q6 3 12 3q33 3 36 3h78v-267l-96 3q-4 1 -8 1q-3 1 -5 1v-47q7 3 25 4q10 1 84 2v-275q-78 -36 -124 -47q10 -15 17 -31q1 -6 8 -21q13 9 24 18q12 7 60 32q10 6 25 12q135 63 141 65q13 4 28 15q1 27 5 54
q-24 -19 -55 -35q-57 -28 -89 -43v256q40 0 82 -3q3 0 10 -3v47q-21 -4 -68 -5h-24v267zM545 212q31 90 51 207q6 51 16 104h18q28 0 41 -5v47q-19 -4 -68 -5l-218 1q-15 3 -33 3q-3 1 -5 1v-47q9 4 26 5l199 1l-12 -92l-20 -103q-7 -30 -21 -72l-60 115q-30 51 -49 87
q-18 -15 -47 -28q18 -15 33 -34q12 -15 40 -66q55 -100 65 -123q-27 -64 -78 -144q-54 -81 -99 -129q-28 -30 -60 -48q10 -3 13 -5q10 -4 36 -23q117 135 198 283l13 25q57 -102 76 -178q27 21 44 33l-60 116q-34 61 -39 74zM404 714q25 -9 71 -51q45 -42 61 -68
q15 16 32 33q-72 76 -131 121q-16 -16 -33 -35zM757 -54l-192 4q-1 0 -5 1v-47q4 3 54 6l309 -1q24 0 40 -5v47q-18 -4 -68 -5h-99v348h71q22 0 52 -3q6 0 15 -3v46q-21 -4 -67 -5h-71v285q123 0 140 -2q13 0 26 -4v47q-21 -4 -69 -5l-227 1q-19 3 -31 4v-47q4 3 54 6h68
l-1 -285l-105 3q-3 0 -7 1q-3 1 -5 1v-46q4 3 54 6h64v-348z" />
  </g>

</svg>
