<?xml version="1.0" standalone="no"?>
<!DOCTYPE svg PUBLIC "-//W3C//DTD SVG 1.1//EN" "http://www.w3.org/Graphics/SVG/1.1/DTD/svg11.dtd" >
<svg xmlns="http://www.w3.org/2000/svg" xmlns:xlink="http://www.w3.org/1999/xlink" version="1.1" viewBox="-10 0 1010 1000">
   <path fill="currentColor"
d="M655 -10q77 18 103 34q0 1 -5 5q-13 9 -17 19q86 194 246 248q-53 52 -69 85q-128 -89 -219 -269q-67 156 -180 287q-21 -47 -58 -71q152 -123 199 -338zM238 -6q104 0 101 8q-23 39 -22 106h68q53 0 115 -8v83q-59 -8 -113 -8h-70v77h60q38 0 79 -8q-8 37 -8 80v188
q1 32 8 78q-48 -8 -85 -8h-58v81h26q18 1 101 -12v87q-52 -6 -103 -7h-22v37q2 83 10 137h-97q8 -52 10 -135v-39h-75q-70 0 -117 7v-87q60 11 117 12h75v-79h-61q-21 0 -59 4q-14 1 -21 2q0 -4 1 -15q5 -53 5 -73v-180q0 -37 -6 -76q32 5 82 6h67v-77h-93q-27 0 -97 8v-83
q37 7 95 8h95q0 -77 -8 -114zM726 296q82 2 95 14q-14 38 -15 75v213l29 -6q45 -11 84 -28l18 89q-45 0 -94 8l-37 6v111q2 63 9 125h-95q9 -48 10 -127v-101l-155 26q-56 11 -103 30l-18 -88q24 2 43 0q21 -1 63 -8l170 -25v-268q0 -5 -2 -26q-1 -13 -2 -20zM173 310v75
h204v-75h-204zM613 326q39 36 85 97l-57 42q-33 -52 -79 -96zM173 443v81h204v-81h-204zM542 447q11 9 54 51q41 40 63 60l-58 46q-49 -70 -107 -114z" />
</svg>
