<?xml version="1.0" standalone="no"?>
<!DOCTYPE svg PUBLIC "-//W3C//DTD SVG 1.1//EN" "http://www.w3.org/Graphics/SVG/1.1/DTD/svg11.dtd" >
<svg xmlns="http://www.w3.org/2000/svg" xmlns:xlink="http://www.w3.org/1999/xlink" version="1.1" viewBox="-10 0 1034 1024">
  <g transform="matrix(1 0 0 -1 0 820)">
   <path fill="currentColor"
d="M151 603q0 9 2 24q0 16 12 38h-58q0 -3 1 -6l4 -56l-1 -623l-4 -39q45 4 73 5l299 -1q1 0 26 -4v46q-4 0 -7 -1q-3 0 -6 -1q-33 0 -65 -3h-277v151q22 -9 42 -24q54 63 90 114q33 46 70 109l-1 -275q-3 -15 -5 -30h50q-6 24 -6 58v217l87 -75q16 -18 39 -45q12 24 30 42
q-30 25 -57 48l-99 76v45h99q27 0 46 -3l13 -2v46q-4 0 -7 -1q-3 0 -6 -1l-138 -3h-7v264q0 9 2 25q1 18 11 37h-57q0 -3 2 -6q0 -4 2 -10q1 -27 2 -81v-229q-114 0 -143 2q-4 1 -7 1t-12 2v-46q19 4 58 5h95q-54 -118 -129 -199l-34 -35q-12 -10 -29 -21v465zM233 652
q-13 -12 -36 -23q48 -61 77 -148q16 15 38 24q-21 45 -38 76q-15 30 -41 71zM500 546q7 15 17 31q21 34 41 51q-33 13 -49 25q-22 -63 -78 -152q15 -7 33 -21zM795 392v-472q0 -30 -5 -58h49q-4 18 -5 41l-1 489h64q28 0 44 -3q4 0 14 -2v46q-9 0 -11 -2l-135 -3h-174v208
q24 3 70 16q54 15 170 44q12 4 42 4q-27 16 -52 44q-49 -27 -119 -48q-97 -24 -154 -30q1 -28 5 -58l-2 -327q-1 -10 -1 -25l-5 -101q-3 -18 -5 -38q-18 -121 -69 -187q-18 -24 -62 -52q13 -6 26 -9q21 -6 36 -16q72 108 95 201q21 73 25 338h160z" />
  </g>

</svg>
