<?xml version="1.0" standalone="no"?>
<!DOCTYPE svg PUBLIC "-//W3C//DTD SVG 1.1//EN" "http://www.w3.org/Graphics/SVG/1.1/DTD/svg11.dtd" >
<svg xmlns="http://www.w3.org/2000/svg" xmlns:xlink="http://www.w3.org/1999/xlink" version="1.1" viewBox="-10 0 1034 1024">
  <g transform="matrix(1 0 0 -1 0 820)">
   <path fill="currentColor"
d="M179 37l-5 -69h49q-3 13 -4 28l-2 74h146l-4 -84q-1 -1 -1 -6h49q-4 22 -5 47l-1 330l6 65q-33 -1 -67 -5h-135q67 132 90 226h106q24 0 52 -3q1 0 14 -2v46q-4 0 -7 -1q-3 0 -5 -1q-24 0 -54 -3l-278 1q-6 1 -21 2q-3 0 -12 2v-46q6 0 13 3l151 2q-27 -97 -84 -206
q-69 -121 -134 -160q33 -10 57 -26q39 51 86 121v-335zM363 381v-275h-146v275h146zM765 395l-1 -505q-1 -7 -4 -32h48q-4 60 -5 70v467l159 -3q3 0 10 -3v47q-4 0 -7 -1q-4 0 -8 -1q-22 0 -50 -3h-350v220l143 16l151 26q45 9 88 12q-22 28 -36 52q-18 -12 -53 -22
q-81 -18 -168 -33q-36 -6 -77 -10q-36 -3 -58 -4l-33 1q1 -30 5 -61q0 -214 -3 -288q-1 -4 -1 -10q0 -28 -6 -95q-1 -9 -3 -21q-4 -49 -27 -119q-22 -69 -61 -125q-30 -39 -49 -59l-29 -22q30 -7 57 -22q73 97 111 193q22 64 33 134q10 82 16 201h208z" />
  </g>

</svg>
