<?xml version="1.0" standalone="no"?>
<!DOCTYPE svg PUBLIC "-//W3C//DTD SVG 1.1//EN" "http://www.w3.org/Graphics/SVG/1.1/DTD/svg11.dtd" >
<svg xmlns="http://www.w3.org/2000/svg" xmlns:xlink="http://www.w3.org/1999/xlink" version="1.1" viewBox="-10 0 1034 1024">
  <g transform="matrix(1 0 0 -1 0 820)">
   <path fill="currentColor"
d="M79 -64q7 -3 16 -6q13 -4 20 -8q6 -3 14 -10q39 60 65 109q24 48 38 106q24 96 26 308h330v-204q-136 72 -144 74q-4 -10 -9 -17q-3 -4 -6 -10t-6 -10q46 -19 93 -41q40 -18 72 -38l-1 -301q-3 -7 -4 -21h46q-4 45 -5 57v247l161 -89q54 -34 93 -64q4 12 20 33q1 3 5 6
q-48 30 -115 67l-164 91v220l260 -1l34 -4v45q-4 0 -6 -1q-3 0 -6 -1q-18 0 -42 -3h-606v197l220 14q96 9 203 26q105 15 112 15q18 0 48 -6q-28 39 -41 65q-48 -18 -105 -29q-87 -16 -181 -29q-127 -13 -237 -14q-22 0 -61 3q1 -15 3 -30q3 -21 3 -30v-227q0 -43 -3 -120
q-3 -57 -9 -106q-19 -120 -71 -197q-27 -37 -67 -63q3 -1 7 -3v0z" />
  </g>

</svg>
