<?xml version="1.0" standalone="no"?>
<!DOCTYPE svg PUBLIC "-//W3C//DTD SVG 1.1//EN" "http://www.w3.org/Graphics/SVG/1.1/DTD/svg11.dtd" >
<svg xmlns="http://www.w3.org/2000/svg" xmlns:xlink="http://www.w3.org/1999/xlink" version="1.1" viewBox="-10 0 1010 1000">
   <path fill="currentColor"
d="M760 -10q69 71 69 96q-1 3 -30 3q-48 1 -81 5q-53 6 -161 20q-226 31 -301 31v123h454q164 -1 211 -8v92q-59 -8 -203 -8h-83v192q102 47 286 143l-66 91q-65 -56 -220 -141v106q-2 83 8 172h-103q4 -47 7 -100q2 -48 1 -69v-146q-96 -52 -197 -78l40 -77q115 48 157 69
v-162h-292q0 359 -125 553q-40 -30 -103 -35q197 -201 127 -790q306 4 605 -82z" />
</svg>
