<?xml version="1.0" standalone="no"?>
<!DOCTYPE svg PUBLIC "-//W3C//DTD SVG 1.1//EN" "http://www.w3.org/Graphics/SVG/1.1/DTD/svg11.dtd" >
<svg xmlns="http://www.w3.org/2000/svg" xmlns:xlink="http://www.w3.org/1999/xlink" version="1.1" viewBox="-10 0 1010 1000">
   <path fill="currentColor"
d="M359 -2q16 52 24 104h36q67 0 117 -8v83q-39 -8 -117 -8h-207q-81 0 -117 8v-83q51 8 111 8h96q-11 -48 -36 -84zM895 28q58 72 59 91q-3 4 -25 2q-37 -2 -64 2q-27 5 -100 13q-62 8 -100 13v175h198q59 0 93 -8v87q-22 -9 -95 -8h-20v379q0 73 8 121h-89q11 -51 10 -127
v-373h-105q-14 337 -129 500q-47 -32 -96 -37q155 -137 149 -485v-160q0 -62 -6 -116q-2 -11 -2 -15q193 -8 314 -54zM228 185q28 44 52 103l-80 28q-16 -56 -45 -99zM399 185q82 32 87 46q0 3 -7 7q-12 8 -21 18q-15 17 -49 70h24q78 0 113 -8v79q-24 -8 -113 -8h-78v98h66
q80 0 111 -8v75q-25 -8 -109 -8h-68v244q2 44 -26 59q-26 17 -125 32q-8 -68 -31 -107q74 5 88 -3q17 -5 15 -44v-181h-91q-69 -1 -112 8v-75q54 8 112 8h91v-98h-93q-72 0 -123 8v-79q32 9 121 8h166q43 -99 52 -141zM169 578q12 7 42 22q24 12 33 17q-71 94 -131 195
q-35 -29 -75 -42q91 -120 131 -192zM433 594q55 63 85 121l-64 45q-30 -72 -85 -129z" />
</svg>
