<?xml version="1.0" standalone="no"?>
<!DOCTYPE svg PUBLIC "-//W3C//DTD SVG 1.1//EN" "http://www.w3.org/Graphics/SVG/1.1/DTD/svg11.dtd" >
<svg xmlns="http://www.w3.org/2000/svg" xmlns:xlink="http://www.w3.org/1999/xlink" version="1.1" viewBox="-10 0 1010 1000">
   <path fill="currentColor"
d="M139 8q50 0 77 4q25 4 13 27q-11 24 -11 41v57h171q1 -36 -8 -123q44 0 81 4q23 2 10 25q-12 21 -12 35v59q51 1 76 -6v78q-23 -6 -76 -6v377q35 1 60 -8v83q-41 -11 -159 -10q55 45 119 113l-57 46q-47 -61 -115 -111l47 -48h-208q-68 -1 -105 8v-77q24 9 105 8v-383
q-63 0 -93 6v-78q35 6 93 6q0 -52 -8 -127zM875 46q37 39 51 68q10 24 -13 21q-31 -4 -166 9q-74 8 -102 9v175h176q53 0 77 -2q29 -1 48 -6v79q-28 -9 -121 -8v383q-1 88 10 115h-97q9 -30 8 -113v-385h-103q1 201 -29 303q-30 110 -110 195q-30 -26 -91 -37
q162 -88 156 -421v-220q0 -66 -5 -113q-1 -8 -1 -10q175 -1 312 -42zM387 201h-169v89h169v-89zM387 348h-169v91h169v-91zM218 496v86h169v-86h-169zM206 661q68 19 78 34q-44 35 -153 172q-19 -19 -69 -37q81 -79 144 -169z" />
</svg>
