<?xml version="1.0" standalone="no"?>
<!DOCTYPE svg PUBLIC "-//W3C//DTD SVG 1.1//EN" "http://www.w3.org/Graphics/SVG/1.1/DTD/svg11.dtd" >
<svg xmlns="http://www.w3.org/2000/svg" xmlns:xlink="http://www.w3.org/1999/xlink" version="1.1" viewBox="-10 0 1034 1024">
  <g transform="matrix(1 0 0 -1 0 820)">
   <path fill="currentColor"
d="M55 -100q15 -7 45 -33q39 42 71 79q27 31 48 58q30 39 39 47q6 6 27 17q-22 12 -53 37q-27 -63 -80 -124q-60 -61 -97 -81zM181 171h-54q-21 0 -45 3q-3 0 -13 3v-47q21 4 58 5l431 -3q3 0 10 -2v47q-7 0 -11 -3l-92 -3h-7v413l90 -5v46q-4 0 -7 -1q-3 0 -4 -1
q-39 0 -79 -3q0 93 3 103q1 13 10 27h-57q0 -3 2 -6q3 -15 4 -56v-68h-202q0 94 3 104q1 13 10 27h-56q3 -12 6 -52v-79l-90 4q-3 0 -5 1v-46q46 4 95 5v-413zM420 171h-202v115h202v-115zM218 322v108h202v-108h-202zM218 466v118h202v-118h-202zM494 -28q4 6 9 11
q-19 22 -41 43q-27 27 -87 82q-18 -18 -35 -31q69 -45 134 -130zM798 375v-459q0 -31 -5 -57h49q-4 18 -5 37l-1 479l139 -3q3 0 10 -2v46q-9 0 -12 -2l-122 -3h-208v232q114 13 180 26q78 12 98 13q10 0 27 -2q-18 22 -22 35q-4 9 -12 20q-48 -16 -123 -33
q-105 -21 -169 -21h-22q1 -30 5 -60l-1 -315q-6 -144 -8 -164q-1 -15 -4 -33q-18 -117 -102 -189q-27 -24 -63 -36q30 -15 53 -37q51 49 86 94q60 82 68 200q6 106 9 234h155z" />
  </g>

</svg>
