<?xml version="1.0" standalone="no"?>
<!DOCTYPE svg PUBLIC "-//W3C//DTD SVG 1.1//EN" "http://www.w3.org/Graphics/SVG/1.1/DTD/svg11.dtd" >
<svg xmlns="http://www.w3.org/2000/svg" xmlns:xlink="http://www.w3.org/1999/xlink" version="1.1" viewBox="-10 0 1010 1000">
   <path fill="currentColor"
d="M542 -2q17 47 27 90h201q99 0 143 -8v83q-30 -9 -143 -8h-550q-97 -1 -121 8v-83q52 8 121 8h260q-6 -28 -40 -80zM381 171q35 39 52 79l-68 26q-14 -32 -52 -77zM544 383q14 55 19 84h245q94 0 136 -8v81q-16 -10 -136 -10h-371q-6 19 -18 81q-1 5 -2 8h289q59 0 94 -7
q-21 184 -42 224q-28 49 -193 59q-15 -51 -35 -81q-5 -8 -4 -12q114 13 141 -6q27 -23 41 -113h-307q-63 144 -230 222q-39 -38 -79 -62q-17 -9 -13 -13q264 -52 276 -300h-149q-119 0 -137 6v-77q50 8 143 8h272q-19 -47 -36 -74zM581 282q34 -48 52 -107q74 21 85 34
q0 4 -14 17q-28 27 -51 56h182q59 0 90 -6q1 2 -1 16q-3 22 -3 36v26q0 38 4 63h-90q4 -25 4 -71h-666q0 53 4 73h-88q4 -30 4 -65v-16q0 -33 -4 -60q3 0 13 1q42 3 90 3h389z" />
</svg>
