<?xml version="1.0" standalone="no"?>
<!DOCTYPE svg PUBLIC "-//W3C//DTD SVG 1.1//EN" "http://www.w3.org/Graphics/SVG/1.1/DTD/svg11.dtd" >
<svg xmlns="http://www.w3.org/2000/svg" xmlns:xlink="http://www.w3.org/1999/xlink" version="1.1" viewBox="-10 0 1034 1024">
  <g transform="matrix(1 0 0 -1 0 820)">
   <path fill="currentColor"
d="M895 216q27 0 58 -5v45q-4 0 -7 -1l-51 -4l-779 1q-24 3 -23 2q-4 0 -13 2v-45q30 4 58 5h257q-9 -61 -16 -94q-18 -73 -61 -131q-81 -99 -193 -120q9 -6 18 -16q9 -9 27 -28q84 45 148 105q30 28 55 65q18 30 42 92h354q-1 -57 -7 -103q-3 -54 -17 -70q-15 -16 -50 -22
q-25 -3 -57 -4q-18 0 -45 6q15 -28 25 -53q46 4 76 10q24 4 42 11q33 12 49 39q13 25 17 79q0 15 2 29l4 57q1 12 3 32l4 30l-54 -6h-338q7 45 15 92h457zM924 645q-4 0 -7 -1q-3 0 -4 -1l-93 -3l-685 1q-24 3 -27 4v-46q19 4 58 5h525q-22 -63 -91 -156l-423 1q-24 4 -38 5
q1 -27 5 -54q0 -60 -2 -79q-3 -3 -3 -18h47q-6 39 -5 64v46h669q0 -63 -2 -87q-3 -3 -3 -17h48q-3 27 -5 53q0 54 2 63q0 15 3 29q-13 -1 -25 -2q-18 -3 -26 -4h-197q25 37 53 75q19 28 55 40q-28 18 -53 41h167q22 0 44 -3l13 -2v46zM404 462l13 13q3 4 7 7q-10 12 -65 66
l-36 33q0 -3 -10 -12q-9 -9 -20 -17q27 -21 45 -38q12 -12 57 -64zM432 737q45 -21 79 -41l78 -50l7 14q3 6 6 11q3 3 7 11q-18 12 -35 25q-33 18 -72 43q-18 9 -44 24q-10 -18 -26 -37zM445 355q84 -46 132 -94l12 17q7 9 13 18l-128 92q-15 -21 -29 -33v0z" />
  </g>

</svg>
