<?xml version="1.0" standalone="no"?>
<!DOCTYPE svg PUBLIC "-//W3C//DTD SVG 1.1//EN" "http://www.w3.org/Graphics/SVG/1.1/DTD/svg11.dtd" >
<svg xmlns="http://www.w3.org/2000/svg" xmlns:xlink="http://www.w3.org/1999/xlink" version="1.1" viewBox="-10 0 1010 1000">
   <path fill="currentColor"
d="M619 2q104 15 111 26q2 4 -4 9q-11 8 -14 23q46 202 260 292q-43 26 -89 75q-204 -157 -212 -327q-41 168 -187 351l-20 -26q-17 171 -29 345q-2 57 -28 71q-21 18 -125 34q-4 -49 -42 -101q86 9 98 -1q19 -5 23 -58q3 -31 9 -111q5 -82 9 -127h-127q-20 260 -125 418
q-32 -24 -91 -32q83 -92 113 -219q33 -126 32 -368q-97 0 -135 8v-87q9 1 32 2q67 6 110 6h141q103 0 159 -8v87q-46 -8 -141 -8h-93v137h52q70 0 132 -10l-25 -20q166 -126 206 -381zM284 16q51 83 75 151l-87 28q-25 -80 -68 -151zM605 411q80 48 224 139l-67 69
q-78 -79 -220 -148zM579 629q188 121 290 197l-83 67q-99 -112 -262 -200z" />
</svg>
