<?xml version="1.0" standalone="no"?>
<!DOCTYPE svg PUBLIC "-//W3C//DTD SVG 1.1//EN" "http://www.w3.org/Graphics/SVG/1.1/DTD/svg11.dtd" >
<svg xmlns="http://www.w3.org/2000/svg" xmlns:xlink="http://www.w3.org/1999/xlink" version="1.1" viewBox="-10 0 1010 1000">
   <path fill="currentColor"
d="M560 10q110 26 103 34q-1 3 -8 9q-36 27 -66 88h211q67 1 127 -6v80q-54 -6 -125 -6h-248q-10 16 -26 39q-15 22 -24 36q29 4 77 4h229q55 0 103 -6l-64 165q-39 -15 -81 -18q15 -30 42 -77h-104v158q117 -1 159 -4v76q-20 -2 -55 -3q-17 -1 -40 -1h-64v192q73 6 125 5
q53 0 123 -9q-21 21 -43 96q-216 -5 -280 -38q-82 -41 -119 -145q-36 103 -97 206q-43 -28 -82 -41q151 -139 145 -403q85 10 97 20q1 2 -3 7q-23 36 -36 126q40 103 99 156v-398h-54q-48 -1 -93 6v-46q-15 20 -47 60q-3 3 -4 5q-32 -27 -70 -39q121 -102 193 -328zM244 260
l-4 117q122 -1 155 -4q-4 52 -9 154q-10 168 -15 196q0 75 -129 85q-7 -48 -34 -85q100 14 96 -48q6 -67 13 -182q3 -36 4 -56h-81q-18 237 -127 411q-30 -32 -85 -46q84 -85 114 -202q29 -100 31 -340q-48 0 -108 6v-77q50 6 106 8h117q62 0 143 -6v75q-69 -6 -187 -6z
M256 193q-14 -76 -54 -157l82 -24q5 16 16 48q22 68 35 105z" />
</svg>
