<?xml version="1.0" standalone="no"?>
<!DOCTYPE svg PUBLIC "-//W3C//DTD SVG 1.1//EN" "http://www.w3.org/Graphics/SVG/1.1/DTD/svg11.dtd" >
<svg xmlns="http://www.w3.org/2000/svg" xmlns:xlink="http://www.w3.org/1999/xlink" version="1.1" viewBox="-10 0 1010 1000">
   <path fill="currentColor"
d="M256 2q40 72 71 149l-89 30q-21 -76 -65 -157zM552 10q102 15 105 26q0 1 -4 4q-32 23 -70 97h199q98 0 151 -8v82q-67 -8 -151 -8h-228q-17 22 -45 66q-20 30 -29 43q-2 -1 -9 -3q-30 -14 -68 -21l16 -22q-49 -8 -109 -8h-64l-6 125h40q67 0 129 -8q-7 103 -18 320
q-3 61 -4 81q-2 51 -31 71q-24 19 -112 32q0 -50 -32 -93q58 11 75 3q19 -5 21 -39q9 -106 19 -299h-93q-21 271 -131 440q-44 -30 -89 -33q150 -123 157 -600h-16q-56 0 -111 8v-83q43 8 111 8h151q83 0 121 -8v73q76 -84 125 -246zM821 258q61 83 56 88q-4 4 -18 1
q-26 -4 -51 -1q-11 1 -42 6q-64 10 -97 13v90l97 -8q74 -6 107 -14v75h-14q-56 -1 -89 2l-101 8v82l101 -6q128 -12 155 -22v81q-58 -5 -151 2l-105 8v131q2 19 50 26q64 8 102 -4q40 -18 40 -89q3 0 17 10q37 28 66 37q-25 119 -79 115q-21 3 -74 4q-62 0 -112 -2
q-54 -3 -70 -20q-18 -17 -18 -65v-135l-41 4q-13 1 -37 3q-73 6 -98 13v-81q71 5 129 2l47 -4v-86l-47 4q-71 5 -117 14v-75q17 4 102 0h13l49 -4v-90q-79 10 -151 22q-7 -24 -39 -75q230 6 420 -60z" />
</svg>
