<?xml version="1.0" standalone="no"?>
<!DOCTYPE svg PUBLIC "-//W3C//DTD SVG 1.1//EN" "http://www.w3.org/Graphics/SVG/1.1/DTD/svg11.dtd" >
<svg xmlns="http://www.w3.org/2000/svg" xmlns:xlink="http://www.w3.org/1999/xlink" version="1.1" viewBox="-10 0 1034 1024">
  <g transform="matrix(1 0 0 -1 0 820)">
   <path fill="currentColor"
d="M367 319l-4 -94q-1 -25 -2 -52q0 -81 -3 -121q0 -31 -4 -68q-3 -39 -17 -54q-18 -16 -65 -17q-15 0 -40 6q9 -21 21 -52q115 7 132 70q3 13 7 48q12 346 15 355q1 10 5 21q-60 -6 -77 -6h-107l1 153l169 -1q18 0 31 -4v46q-9 0 -11 -2q-22 0 -46 -3l-271 1q-24 3 -23 2
q-6 0 -12 2v-46q21 3 42 5h83l-5 -250q-3 -51 -10 -105q-16 -108 -65 -197q-34 -63 -75 -92q27 -9 58 -23q66 114 96 205q16 51 26 111q6 63 12 162h139zM299 591q6 7 17 18q-78 81 -132 126q-9 -10 -22 -21q-1 -1 -4 -3q-1 -1 -6 -5q82 -64 135 -129zM893 572q27 0 58 -5
v46q-9 0 -12 -2q-4 0 -8 -1q-21 0 -38 -2h-326q9 18 19 36q15 36 29 54q10 16 34 28q-10 3 -62 31q-3 -12 -14 -40q-9 -24 -23 -51q-25 -55 -52 -100q-75 -114 -137 -149q40 -15 58 -25q51 60 130 180h344zM475 194q22 37 32 56l39 73h142v-158l-155 1q-19 3 -25 4v-46
q21 3 45 5h135v-207l-222 1q-24 3 -23 2q-4 0 -12 2v-46q19 4 58 5l453 -1l26 -4v46q-9 0 -13 -2q-18 0 -44 -3h-185v207l150 -1l35 -4v46q-4 0 -7 -1q-3 0 -5 -1q-4 0 -8 -1q-13 0 -38 -2h-127v158l196 -3q3 0 11 -3v46q-9 0 -11 -2l-137 -3h-59q0 120 3 126q1 16 11 33
h-58q6 -18 6 -64v-95h-126q3 9 28 56q12 19 36 29q-27 9 -62 24q-9 -28 -22 -61q-12 -31 -24 -55q-34 -66 -54 -92q-18 -27 -45 -45q9 0 56 -20v0z" />
  </g>

</svg>
