<?xml version="1.0" standalone="no"?>
<!DOCTYPE svg PUBLIC "-//W3C//DTD SVG 1.1//EN" "http://www.w3.org/Graphics/SVG/1.1/DTD/svg11.dtd" >
<svg xmlns="http://www.w3.org/2000/svg" xmlns:xlink="http://www.w3.org/1999/xlink" version="1.1" viewBox="-10 0 1034 1024">
  <g transform="matrix(1 0 0 -1 0 820)">
   <path fill="currentColor"
d="M345 326l-1 -72l-4 -115q-4 -124 -5 -135q-1 -48 -40 -55q-19 -3 -36 -3q-19 0 -41 5q12 -30 18 -52q9 0 18 3q13 3 28 5q15 1 27 5q36 10 48 26q15 21 17 121l6 242q0 6 1 11q3 24 5 55q-18 -1 -25 -2q-18 -3 -25 -3h-118l7 158l175 -3q3 0 10 -2v46q-4 0 -8 -1
q-3 0 -4 -1q-22 0 -46 -3l-253 1q-24 3 -23 2q-4 0 -12 2v-46q30 4 57 5h66q-6 -217 -17 -285q-18 -114 -63 -230q-27 -67 -72 -106q24 -7 54 -20q37 66 73 168q21 63 34 121q12 67 21 158h128zM308 610q4 7 18 18q-22 24 -38 38q-12 12 -75 68q-15 -15 -30 -28
q51 -40 68 -58q21 -19 44 -51zM909 624q27 0 57 -5v46q-3 0 -9 -1l-2 -1q-22 0 -46 -3h-343l25 48q12 22 39 36q-37 13 -64 27q-21 -78 -82 -176q-42 -64 -95 -99l31 -18q9 -6 17 -11q27 33 50 67q25 36 60 90h362zM578 -53q6 4 12 10q30 27 35 28q15 9 34 14q-39 24 -56 38
q-24 -40 -93 -96q-63 -46 -110 -65q19 -10 46 -34q21 15 81 64q10 10 51 41zM543 93h-62q-24 0 -45 3l-12 3v-46q19 4 57 5l482 -3q-1 0 14 -2v46q-7 0 -14 -3l-100 -3h-27v335q75 0 91 -3q4 0 11 -2v47q-7 0 -11 -3q-4 0 -8 -1l-83 -2q0 66 3 75q1 15 10 29h-57
q6 -21 6 -63v-41h-218q0 66 3 73q1 16 11 32h-56q4 -24 5 -62v-43q-57 0 -78 3l-12 3v-47q21 3 45 5h45v-335zM580 93v96h218v-96h-218zM580 225v88h218v-88h-218zM798 349h-218v79h218v-79zM743 -9q112 -63 186 -139q7 13 23 31l6 6l-97 72l-92 62q0 -1 -3 -4
q-7 -7 -23 -28v0z" />
  </g>

</svg>
