<?xml version="1.0" standalone="no"?>
<!DOCTYPE svg PUBLIC "-//W3C//DTD SVG 1.1//EN" "http://www.w3.org/Graphics/SVG/1.1/DTD/svg11.dtd" >
<svg xmlns="http://www.w3.org/2000/svg" xmlns:xlink="http://www.w3.org/1999/xlink" version="1.1" viewBox="-10 0 1010 1000">
   <path fill="currentColor"
d="M524 -21q107 22 99 41q1 6 -5 10q-24 13 -51 58h237q48 0 127 -10v85q-68 -10 -125 -10h-147q5 1 15 2q76 13 70 18q-9 9 -20 33q-9 19 -16 31h80q44 -1 109 -10v81q-52 -8 -107 -8h-96q68 34 167 85q9 6 14 8q-36 27 -40 42q50 0 113 -8v79q-40 -6 -77 -6v320
q3 58 -23 72q-23 19 -116 25q-8 -56 -34 -89q105 27 96 -34v-296h-272q-63 0 -109 8v-81q62 7 107 8q-22 -32 -72 -58q115 -3 167 -77h-20q-73 1 -113 6v-56q-2 2 -6 9q-25 40 -45 65q-30 -33 -72 -44l26 -28q-63 -6 -111 -6h-48v121h165q-5 51 -10 191q-3 201 -26 264
q-17 35 -135 45q-2 -56 -37 -101q36 10 70 7q30 -4 35 -19q19 -94 24 -327h-86q-17 273 -115 462q-8 -6 -21 -15q-47 -36 -70 -38q140 -138 131 -588q-53 0 -105 8v-91q68 7 109 8h117q58 0 125 -8v74q92 -116 127 -258zM264 -6q8 19 19 47q28 63 34 98l-83 22
q-13 -69 -55 -141zM639 153h-101q-4 6 -12 19q-25 38 -36 57q53 7 117 8h32q9 -42 0 -84zM665 344q-41 48 -131 91h276q-67 -52 -145 -91zM464 542q40 5 72 6h117q37 0 73 -6q-6 29 -6 70v75q1 56 10 99h-83q3 -13 6 -28h-115q1 25 8 62h-86q10 -25 10 -101v-106v-19
q2 -25 -6 -52zM651 613h-115v88h115v-88z" />
</svg>
