<?xml version="1.0" standalone="no"?>
<!DOCTYPE svg PUBLIC "-//W3C//DTD SVG 1.1//EN" "http://www.w3.org/Graphics/SVG/1.1/DTD/svg11.dtd" >
<svg xmlns="http://www.w3.org/2000/svg" xmlns:xlink="http://www.w3.org/1999/xlink" version="1.1" viewBox="-10 0 1034 1024">
  <g transform="matrix(1 0 0 -1 0 820)">
   <path fill="currentColor"
d="M146 422q6 7 84 88q9 9 59 66h574l-7 -356l-3 -176q1 -105 -35 -125q-39 -21 -103 -21q-27 0 -68 5q16 -27 26 -54l29 4l72 9q21 4 46 13q37 15 53 38q18 33 21 125l5 423q3 106 6 124q0 16 3 31q-90 -4 -92 -5h-503q7 12 16 24q39 64 42 67q15 18 39 33q-31 13 -61 31
q-19 -58 -71 -134q-34 -46 -75 -94q-39 -43 -70 -72q-42 -36 -88 -55q30 -13 54 -31q3 3 47 42zM235 58q-3 -27 -5 -54q24 6 47 6l330 -1q10 0 22 -3q6 0 18 -2q-3 25 -5 51l1 350l4 41q-27 -1 -56 -5l-322 1q-15 3 -39 4q1 -27 5 -57v-331zM272 257v148h331v-148h-331z
M272 46v176h331v-176h-331z" />
  </g>

</svg>
