<?xml version="1.0" standalone="no"?>
<!DOCTYPE svg PUBLIC "-//W3C//DTD SVG 1.1//EN" "http://www.w3.org/Graphics/SVG/1.1/DTD/svg11.dtd" >
<svg xmlns="http://www.w3.org/2000/svg" xmlns:xlink="http://www.w3.org/1999/xlink" version="1.1" viewBox="-10 0 1034 1024">
  <g transform="matrix(1 0 0 -1 0 820)">
   <path fill="currentColor"
d="M418 470l-8 -454q0 -25 4 -54q12 -67 108 -79q81 -9 162 -9l116 4q46 1 76 7q39 6 59 31q22 28 45 136q-28 7 -53 25q0 -36 -2 -53q-4 -61 -23 -83q-19 -19 -97 -26l-125 -2q-57 0 -114 6q-72 6 -92 22q-25 21 -23 88l4 409l6 76q-31 -3 -35 -4l-152 -10q0 187 3 212
q0 12 10 54l-59 4l5 -60q3 -72 3 -133l-1 -79l-146 -3q-15 1 -30 1q0 -24 2 -50q40 7 70 9l102 6q-3 -115 -20 -223q-33 -186 -113 -308q-27 -36 -77 -73q39 -6 62 -18q84 102 129 235q51 156 59 389zM818 89q30 -1 61 -5q-3 33 -5 67l1 456q0 18 4 50l-61 -6l-213 1
q-24 4 -51 5l6 -67l-1 -457q-3 -6 -5 -46v-3q33 3 69 5h195zM836 125h-238v241h238v-241zM598 402v214h238v-214h-238z" />
  </g>

</svg>
