<?xml version="1.0" standalone="no"?>
<!DOCTYPE svg PUBLIC "-//W3C//DTD SVG 1.1//EN" "http://www.w3.org/Graphics/SVG/1.1/DTD/svg11.dtd" >
<svg xmlns="http://www.w3.org/2000/svg" xmlns:xlink="http://www.w3.org/1999/xlink" version="1.1" viewBox="-10 0 1034 1024">
  <g transform="matrix(1 0 0 -1 0 820)">
   <path fill="currentColor"
d="M126 197l79 6l190 6q-16 -150 -125 -241q-93 -75 -201 -75q21 -27 33 -48q70 21 110 39q118 58 172 161q33 63 53 166l255 6q0 -18 -4 -70l-8 -141q-1 -42 -3 -59q0 -51 39 -65q31 -12 84 -12q15 0 41 2q49 3 78 19q13 9 28 33q3 6 7 16q6 18 18 63q-31 12 -52 25
q0 -9 1 -20q0 -84 -59 -95q-37 -6 -86 -3q-28 3 -42 7q-16 7 -17 36q0 24 3 79l6 101q4 79 12 110q1 6 3 16q-45 -6 -62 -6l-241 -8l6 75q1 36 24 57l-29 3q-15 0 -38 7q3 -27 4 -57q0 -9 -1 -23q0 -19 -4 -63l-203 -4h-13q-34 0 -61 5zM201 460l-4 -40q0 -9 -2 -20
q30 3 61 5l513 -1q16 0 45 -4l-6 61l1 218q1 21 5 42q-30 -1 -62 -5l-518 1q-15 3 -39 4l6 -58v-203zM239 581v101h529v-101h-529zM239 439v108h529v-108h-529z" />
  </g>

</svg>
