<?xml version="1.0" standalone="no"?>
<!DOCTYPE svg PUBLIC "-//W3C//DTD SVG 1.1//EN" "http://www.w3.org/Graphics/SVG/1.1/DTD/svg11.dtd" >
<svg xmlns="http://www.w3.org/2000/svg" xmlns:xlink="http://www.w3.org/1999/xlink" version="1.1" viewBox="-10 0 1034 1024">
  <g transform="matrix(1 0 0 -1 0 820)">
   <path fill="currentColor"
d="M166 -63q-1 -19 -2 -40q-1 -12 -3 -26q-1 -1 -1 -5h46q-3 7 -4 36l-1 47h632q0 -58 -3 -74q-1 0 -1 -3h47v3q-3 6 -3 29q-1 19 -2 176l1 173l4 42q-31 -1 -64 -5l-602 1q-1 0 -50 4q1 -19 2 -31q3 -19 4 -30v-297zM201 140v116h632v-116h-632zM201 -17v123h632v-123h-632
zM207 706q1 -33 5 -67l-1 -212q-1 -4 -2 -14q0 -15 -2 -33q24 4 62 5l493 -1q19 0 52 -4q-3 31 -5 63l1 217q0 18 4 46q-34 -1 -70 -5l-486 1q-19 3 -51 4zM771 557h-522v110h522v-110zM249 419v104h522v-104h-522z" />
  </g>

</svg>
