<?xml version="1.0" standalone="no"?>
<!DOCTYPE svg PUBLIC "-//W3C//DTD SVG 1.1//EN" "http://www.w3.org/Graphics/SVG/1.1/DTD/svg11.dtd" >
<svg xmlns="http://www.w3.org/2000/svg" xmlns:xlink="http://www.w3.org/1999/xlink" version="1.1" viewBox="-10 0 1010 1000">
   <path fill="currentColor"
d="M286 100v73h434v-73h-434zM720 240h-434v72h434v-72zM812 20q-5 26 -7 61q-1 17 -1 44v78q0 132 9 184q-16 -2 -43 -3q-13 -1 -31 -1h-49h-255q-20 23 -49 54q-15 15 -23 24h373q111 0 155 -12q-8 47 -18 159q-17 205 -42 224q-30 38 -186 61q-8 -68 -52 -105
q142 19 169 -30q28 -52 32 -232h-104q-102 281 -464 391q-7 -9 -17 -23q-26 -38 -54 -56q338 -60 458 -312h-109q-123 161 -359 254q-19 -40 -64 -75q204 -35 334 -179h-135q-89 67 -167 103q-29 -46 -69 -67q166 -37 301 -177q-80 -3 -149 6q12 -62 12 -174
q0 -150 -12 -195q60 6 141 6h340q78 3 124 -6q7 -1 11 -2z" />
</svg>
