<?xml version="1.0" standalone="no"?>
<!DOCTYPE svg PUBLIC "-//W3C//DTD SVG 1.1//EN" "http://www.w3.org/Graphics/SVG/1.1/DTD/svg11.dtd" >
<svg xmlns="http://www.w3.org/2000/svg" xmlns:xlink="http://www.w3.org/1999/xlink" version="1.1" viewBox="-10 0 1034 1024">
  <g transform="matrix(1 0 0 -1 0 820)">
   <path fill="currentColor"
d="M953 283q7 31 17 55q-36 -9 -64 -9l-166 -4q-19 0 -110 7q-52 4 -97 15q-75 18 -136 59q51 78 75 144q16 54 40 113q-18 -1 -31 -2q-22 -3 -29 -3h-169q19 40 36 61q12 16 34 27q-36 12 -61 25q-37 -102 -94 -186q-66 -100 -119 -132q16 -7 45 -26q30 34 62 76l80 119
h190q-27 -100 -87 -191q-31 27 -60 60q-25 36 -29 65q-21 -10 -46 -19q36 -60 105 -135q-39 -46 -106 -88q-88 -52 -175 -70q27 -19 44 -37q84 34 151 75q57 36 119 94q33 -21 61 -35q16 -7 53 -22q72 -21 178 -28l119 -6zM218 -99q0 -21 -5 -67h48q-4 49 -5 67h513
q-3 -51 -6 -54h50q-4 24 -5 67l1 279l4 40q-27 -1 -56 -5l-505 1q-15 3 -39 4q4 -90 5 -93v-239zM256 -63v109h513v-109h-513zM256 81v111h513v-111h-513zM663 692q0 9 2 25q1 18 11 40h-56q4 -25 5 -65v-281q0 -42 -5 -60h48q-4 30 -5 60v199q19 -12 68 -50l101 -86l53 -51
l29 33q-27 27 -88 78l-136 109q-12 -15 -27 -29v78z" />
  </g>

</svg>
