<?xml version="1.0" standalone="no"?>
<!DOCTYPE svg PUBLIC "-//W3C//DTD SVG 1.1//EN" "http://www.w3.org/Graphics/SVG/1.1/DTD/svg11.dtd" >
<svg xmlns="http://www.w3.org/2000/svg" xmlns:xlink="http://www.w3.org/1999/xlink" version="1.1" viewBox="-10 0 1034 1024">
  <g transform="matrix(1 0 0 -1 0 820)">
   <path fill="currentColor"
d="M146 683q-1 0 -55 6q4 -94 5 -97l-1 -571q-1 -15 -4 -27h47q-3 30 -5 63v24h171v-17q0 -45 -5 -59h48q0 1 -1 5q-1 3 -4 54l1 582l4 43q-54 -6 -65 -6h-136zM133 117v248h171v-248h-171zM133 401v246h171v-246h-171zM822 435q27 0 57 -5q-3 30 -5 61l1 200l4 42
q-28 -1 -57 -5l-330 1q-15 3 -41 4q1 -28 5 -58l-1 -292q-1 -7 -1 -18q0 -48 -3 -84q-9 -132 -37 -208q-28 -72 -74 -126q-36 -39 -73 -63q27 -15 48 -30q61 69 96 124q33 55 52 114q13 51 22 121q3 39 5 90q3 57 4 132h328zM494 471v221h342v-221h-342zM651 310q0 9 2 25
q3 21 12 40h-57q4 -24 5 -65v-336q0 -54 21 -75q18 -18 80 -24q42 -3 69 -4q12 0 42 2q40 3 61 9q54 12 72 73q9 34 17 75q-19 6 -53 22q3 -24 3 -42q0 -33 -9 -59q-15 -31 -70 -37q-57 -3 -77 -4q-24 3 -63 4q-27 1 -40 11q-15 13 -15 55v165l153 74q69 36 85 42q13 6 38 8
l-35 53q-51 -40 -98 -66q-49 -27 -82 -44q-27 -13 -61 -27v125z" />
  </g>

</svg>
