<?xml version="1.0" standalone="no"?>
<!DOCTYPE svg PUBLIC "-//W3C//DTD SVG 1.1//EN" "http://www.w3.org/Graphics/SVG/1.1/DTD/svg11.dtd" >
<svg xmlns="http://www.w3.org/2000/svg" xmlns:xlink="http://www.w3.org/1999/xlink" version="1.1" viewBox="-10 0 1034 1024">
  <g transform="matrix(1 0 0 -1 0 820)">
   <path fill="currentColor"
d="M205 290l156 28q54 9 72 8h2q-6 10 -12 19q-12 18 -20 34q-39 -19 -94 -32q-82 -18 -120 -18q-10 0 -28 1q6 -54 6 -77v-133q0 -37 -24 -49q15 -25 30 -48q94 46 120 56l121 47q-15 -99 -90 -157q-91 -69 -194 -86q19 -19 37 -42q159 69 225 136q33 36 49 82
q12 45 18 135q3 45 4 50q1 16 15 32q-16 0 -38 5q-1 0 -24 5q3 -24 4 -64q0 -21 -2 -53q-42 -18 -87 -35l-126 -47v203zM823 665q1 28 5 58q-28 -1 -57 -5l-525 1q-15 3 -41 4q6 -48 6 -70l-1 -182q-1 -4 -2 -13q0 -15 -3 -29q28 3 58 5l526 -1l39 -4q-4 45 -5 68v168z
M785 682v-86h-537v86h537zM785 470h-537v90h537v-90zM893 354q-18 -1 -25 -2q-21 -3 -27 -3l-237 1q-15 3 -37 4q1 -27 5 -54l-1 -445q-1 -15 -4 -26h49q-4 12 -5 29l-1 455h240v-242q0 -24 -5 -33q-6 -7 -31 -11q-22 -1 -44 -3q-22 0 -53 5q12 -21 23 -55q51 6 70 9
q39 6 57 18q21 12 21 59l1 255q0 15 4 39v0z" />
  </g>

</svg>
