<?xml version="1.0" standalone="no"?>
<!DOCTYPE svg PUBLIC "-//W3C//DTD SVG 1.1//EN" "http://www.w3.org/Graphics/SVG/1.1/DTD/svg11.dtd" >
<svg xmlns="http://www.w3.org/2000/svg" xmlns:xlink="http://www.w3.org/1999/xlink" version="1.1" viewBox="-10 0 1034 1024">
  <g transform="matrix(1 0 0 -1 0 820)">
   <path fill="currentColor"
d="M487 226l-407 3q-6 1 -9 2v-46q60 6 102 5h227q-16 -96 -55 -151q-54 -73 -167 -119q-70 -27 -122 -32q22 -12 43 -45q54 15 119 47q105 54 158 127q40 64 59 141q6 19 8 32h128l1 -254q6 -27 33 -43q15 -7 57 -11l100 -2q60 0 95 7q42 9 68 52q9 15 16 32q7 18 15 47
q-12 6 -46 36q-3 -63 -19 -90q-22 -43 -112 -44l-125 3q-15 3 -23 6q-21 9 -22 52v209l274 -1q4 0 38 -4v46q-12 0 -31 -4l-364 -1v213l233 -1l50 -4q-4 49 -5 74l1 180l4 48q-33 -1 -68 -5l-526 1q-19 3 -50 4q1 -33 5 -66l-1 -187q-3 -15 -4 -49q15 3 57 4l265 1v-213z
M208 476v91h558v-91h-558zM766 603h-558v92h558v-92zM205 363q33 -16 88 -53q37 -25 74 -57q0 3 5 7q4 4 5 9q0 3 14 21q-72 55 -162 109q-7 -15 -24 -36zM609 296q21 -15 34 -32l70 56q43 36 58 46q12 7 38 12q-31 24 -47 46q-12 -16 -26 -30q-12 -12 -27 -24
q-54 -45 -100 -74v0z" />
  </g>

</svg>
