<?xml version="1.0" standalone="no"?>
<!DOCTYPE svg PUBLIC "-//W3C//DTD SVG 1.1//EN" "http://www.w3.org/Graphics/SVG/1.1/DTD/svg11.dtd" >
<svg xmlns="http://www.w3.org/2000/svg" xmlns:xlink="http://www.w3.org/1999/xlink" version="1.1" viewBox="-10 0 1034 1024">
  <g transform="matrix(1 0 0 -1 0 820)">
   <path fill="currentColor"
d="M100 6l-4 -58q-1 -3 -1 -8h48q-6 60 -5 106v6h163q0 -42 -3 -66q-1 -1 -2 -14h48q-3 16 -5 64l1 577q0 19 4 51q-15 -1 -28 -3q-22 -3 -74 -3l-102 1q-4 0 -45 5q1 -33 5 -68v-590zM138 388v234h163v-234h-163zM301 352v-264h-163v264h163zM698 198v-267q0 -39 21 -60
q19 -18 83 -18q63 0 87 9q30 12 48 63q6 18 18 67q-27 3 -50 23q-1 -51 -7 -74q-6 -22 -18 -33q-12 -12 -59 -13q-42 0 -58 4q-27 7 -28 48v251l157 -1q4 0 37 -4v46l-43 -4l-488 1q-3 1 -6 1t-13 2v-46q60 6 106 5h61q-3 -36 -12 -81q-22 -96 -66 -145q-78 -84 -200 -97
q31 -16 47 -45q151 66 207 144q42 60 68 224h108zM474 312q25 9 43 18q15 4 24 9l62 32q45 24 79 46q25 -27 49 -49q51 -40 85 -57q39 -18 61 -18q24 0 36 22q9 15 12 36q6 30 10 69q-24 4 -47 23q1 -15 2 -25q0 -39 -5 -61q-3 -15 -18 -16q-10 0 -19 4q-33 13 -60 33
q-31 19 -73 63q49 40 64 53t59 49q12 10 37 15q-18 12 -50 41q-15 -18 -30 -35l-72 -64q-12 -12 -37 -28q-49 63 -77 132q21 3 41 8q21 6 147 28q6 1 108 19q-9 22 -11 51q-9 -6 -22 -11q-9 -4 -70 -18l-203 -41q-12 30 -15 53q-3 25 -4 51q0 10 6 38q-43 -15 -64 -15
l34 -135q-147 -30 -184 -31q0 -3 2 -5q0 -3 2 -9q1 -10 4 -20q1 -6 3 -15q25 6 35 11q3 0 7 2q118 27 122 27q9 0 21 4q36 -84 85 -149q-24 -16 -47 -30q-22 -13 -53 -28q-73 -36 -150 -43q24 -16 45 -45q12 6 26 11v0z" />
  </g>

</svg>
