<?xml version="1.0" standalone="no"?>
<!DOCTYPE svg PUBLIC "-//W3C//DTD SVG 1.1//EN" "http://www.w3.org/Graphics/SVG/1.1/DTD/svg11.dtd" >
<svg xmlns="http://www.w3.org/2000/svg" xmlns:xlink="http://www.w3.org/1999/xlink" version="1.1" viewBox="-10 0 1010 1000">
   <path fill="currentColor"
d="M597 -10q9 1 26 3q81 8 81 15q2 4 -6 10q-9 7 -8 12q64 188 290 256q-3 4 -11 12q-40 40 -48 67q-181 -91 -274 -269q-79 147 -185 244q12 4 47 5q16 1 42 1h74q119 0 160 -1q51 -1 70 -5q-51 114 -188 234q90 0 129 -2q41 -2 61 -8q-5 17 -4 87v52v61q0 110 10 149h-97
q8 -24 8 -59h-256q-2 32 6 61h-95q11 -47 11 -143v-69q0 -103 -7 -137q50 8 176 8h44q-23 -38 -66 -50q22 -14 49 -30q29 -13 106 -81h-137q-131 0 -153 10v-73l-39 39q-23 -25 -56 -35v228q0 139 12 186h-95q8 -20 8 -57h-117q0 44 2 62q1 17 6 35h-96q6 -30 8 -77
q1 -23 2 -56v-97v-290q0 -121 -1 -155q-2 -46 -7 -59q17 5 48 7q15 0 37 1h62q114 0 143 -8q-12 55 -12 176v66q177 -123 240 -326zM163 149v209h119v-209h-119zM667 211q23 62 29 105l-93 12q-2 -65 -22 -105zM282 425h-119v218h119v-218zM520 641v145h254v-145h-254z" />
</svg>
