<?xml version="1.0" standalone="no"?>
<!DOCTYPE svg PUBLIC "-//W3C//DTD SVG 1.1//EN" "http://www.w3.org/Graphics/SVG/1.1/DTD/svg11.dtd" >
<svg xmlns="http://www.w3.org/2000/svg" xmlns:xlink="http://www.w3.org/1999/xlink" version="1.1" viewBox="-10 0 1010 1000">
   <path fill="currentColor"
d="M361 34q30 9 131 8h310q89 0 140 -8v89q-39 -8 -134 -8h-58v141h28q60 0 115 -7q8 -1 12 -1q-5 24 -6 54q-2 31 -2 103v335q0 102 8 141h-88q0 -2 1 -5q7 -42 7 -80h-361q-1 52 8 81h-87q8 -57 8 -140v-348q0 -98 -8 -141q5 0 18 2q63 6 127 6h24v-141h-64q-77 0 -129 8
v-89zM81 68q9 1 29 3q53 5 92 5h16q76 0 120 -7q3 -1 5 -1q-8 52 -8 133v381q0 134 8 162h-83q4 -21 4 -57h-103q0 75 8 109h-88q0 -2 1 -5q7 -56 7 -142v-460q0 -77 -8 -121zM615 115v141h73v-141h-73zM161 141v203h103v-203h-103zM464 324v268q52 -40 67 -90
q17 -47 21 -178h-88zM615 324q-4 143 -20 194q-13 50 -71 117q-22 -16 -60 -25v119h361v-119q-101 7 -117 -8q-22 -9 -20 -80v-198h-73zM750 324v168q-1 31 12 37q10 8 63 7v-212h-75zM264 409h-103v212h103v-212z" />
</svg>
