<?xml version="1.0" standalone="no"?>
<!DOCTYPE svg PUBLIC "-//W3C//DTD SVG 1.1//EN" "http://www.w3.org/Graphics/SVG/1.1/DTD/svg11.dtd" >
<svg xmlns="http://www.w3.org/2000/svg" xmlns:xlink="http://www.w3.org/1999/xlink" version="1.1" viewBox="-10 0 1034 1024">
  <g transform="matrix(1 0 0 -1 0 820)">
   <path fill="currentColor"
d="M85 647q1 -36 5 -74l-1 -567q-3 -15 -3 -24q-1 -1 -1 -5h48q0 3 -1 8q-3 15 -4 68v27h177q0 -57 -3 -83q-1 -3 -2 -15h48q-6 60 -5 101l1 512q0 19 4 52q-30 -1 -60 -5l-152 1q-19 3 -51 4zM305 384h-177v222h177v-222zM128 116v232h177v-232h-177zM675 231v-303
q0 -40 17 -58q12 -12 54 -18q42 0 84 -2q24 0 48 3q45 7 63 40q13 22 27 101q-30 12 -50 28q1 -22 2 -37q0 -57 -17 -79q-18 -18 -86 -19q-52 0 -69 3q-34 6 -35 45v296l147 -1l47 -4q-1 15 -3 30q-3 39 -4 62l1 126l6 50q-66 -6 -75 -6h-145q42 42 77 82l66 79
q-33 -1 -66 -5h-214l48 60q24 27 46 31q-36 24 -54 37q-24 -42 -46 -75q-21 -30 -52 -65q-84 -93 -142 -122q28 -9 47 -28q12 10 33 32l91 94h224q-42 -55 -110 -120l-163 1q-24 4 -50 5q1 -30 5 -63q0 -135 -2 -163q-3 -3 -3 -42q57 4 86 5h101q-25 -126 -141 -241
q-99 -93 -206 -128q27 -12 50 -38q69 45 118 83q39 31 89 81q91 99 132 243h24zM464 267v186h164q0 -42 -3 -95q-3 -52 -8 -91h-153zM657 267l6 70l7 116h193v-186h-206z" />
  </g>

</svg>
