<?xml version="1.0" standalone="no"?>
<!DOCTYPE svg PUBLIC "-//W3C//DTD SVG 1.1//EN" "http://www.w3.org/Graphics/SVG/1.1/DTD/svg11.dtd" >
<svg xmlns="http://www.w3.org/2000/svg" xmlns:xlink="http://www.w3.org/1999/xlink" version="1.1" viewBox="-10 0 1034 1024">
  <g transform="matrix(1 0 0 -1 0 820)">
   <path fill="currentColor"
d="M97 74q-3 -36 -3 -58q-1 -3 -1 -8q-1 -3 -1 -7h46q-3 15 -4 57v26h172q-1 -34 -3 -71q-1 -1 -1 -4h48q-3 9 -4 28l-2 46l1 567q0 12 5 46q-33 -1 -68 -5l-143 1q-15 3 -47 4q1 -30 5 -63v-559zM134 119v262h172v-262h-172zM134 419v236h172v-236h-172zM535 345
q-115 0 -142 2l-19 3v-46q7 3 36 4l504 1q22 0 63 -5v46q-24 -1 -50 -5h-98l4 151q1 33 5 65q-36 -1 -72 -5h-159l19 139l255 -1q21 0 38 -5v46q-33 -1 -65 -5q-420 0 -441 3q-4 1 -13 2v-46q6 3 24 4q30 1 99 2h63l-19 -139l-124 3q-3 1 -8 2v-46q60 6 107 5h20zM789 345
h-214l27 175h193zM443 219l6 -69l-1 -252q-1 -9 -2 -33q-1 -3 -1 -8l-1 -2q0 -4 -1 -8h49q-4 24 -5 46v36h346q-1 -34 -3 -70q0 -3 -1 -5h47q0 9 -2 16q-1 15 -3 63l1 237l4 49q-33 -1 -65 -5l-319 1q-19 3 -49 4zM487 -35v213h346v-213h-346z" />
  </g>

</svg>
