<?xml version="1.0" standalone="no"?>
<!DOCTYPE svg PUBLIC "-//W3C//DTD SVG 1.1//EN" "http://www.w3.org/Graphics/SVG/1.1/DTD/svg11.dtd" >
<svg xmlns="http://www.w3.org/2000/svg" xmlns:xlink="http://www.w3.org/1999/xlink" version="1.1" viewBox="-10 0 1034 1024">
  <g transform="matrix(1 0 0 -1 0 820)">
   <path fill="currentColor"
d="M102 24q-3 -30 -3 -54q-1 -1 -1 -5q-1 -1 -1 -5h47q-6 55 -5 90v9h160q-1 -27 -3 -54q0 -3 -1 -7h47q-4 19 -5 50l1 575l4 50q-55 -4 -87 -5q-93 0 -119 2q-3 1 -6 1q-15 0 -33 2q1 -33 5 -69v-580zM139 95v265h160v-265h-160zM139 396v238h160v-238h-160zM865 602
q24 0 64 -5v46q-31 -1 -64 -5h-336q6 9 12 22q30 54 37 61q7 9 30 24l-30 13q-10 3 -27 14q-12 -34 -41 -87q-40 -75 -105 -155q-33 -37 -63 -59q27 -10 39 -29q46 51 62 72q3 6 64 88h358zM574 163q73 -55 117 -123q15 21 34 36l-118 117q-15 -15 -33 -30zM580 389
q36 -27 58 -46q21 -21 55 -58q12 10 18 18q6 6 14 12q-12 16 -51 50q-33 30 -67 57q-6 -9 -17 -22q-6 -4 -10 -11zM456 258l-59 1q-21 3 -20 2q-3 0 -14 3v-47q6 3 36 4l54 1l-19 -208q-3 -1 -6 -36q33 3 66 5h304q-1 -25 -5 -39q-9 -39 -38 -46q-25 -3 -44 -4q-21 0 -47 6
q19 -27 24 -53l25 3q64 6 91 27q22 19 30 76q0 21 4 30l87 -1q6 0 38 -4v46q-31 -1 -64 -5h-59l12 203q42 0 99 -3q1 0 11 -2v47q-9 -3 -15 -3q-27 -3 -50 -3h-42q9 186 12 204q1 21 2 33q-66 -6 -85 -6l-260 1q-7 1 -53 5l-1 -57zM474 19l16 203h323l-11 -203h-328z
M493 258l16 196h317l-12 -196h-321z" />
  </g>

</svg>
