<?xml version="1.0" standalone="no"?>
<!DOCTYPE svg PUBLIC "-//W3C//DTD SVG 1.1//EN" "http://www.w3.org/Graphics/SVG/1.1/DTD/svg11.dtd" >
<svg xmlns="http://www.w3.org/2000/svg" xmlns:xlink="http://www.w3.org/1999/xlink" version="1.1" viewBox="-10 0 1034 1024">
  <g transform="matrix(1 0 0 -1 0 820)">
   <path fill="currentColor"
d="M148 -32q-3 57 -4 72v44h143v-17q0 -16 -5 -44h48q-1 12 -4 23q0 27 -2 55l1 561q1 27 5 54q-30 -1 -60 -5l-123 1q-19 3 -46 4q1 -34 5 -70l-1 -624q-1 -12 -2 -41q-1 -1 -2 -13h47zM144 118v267h143v-267h-143zM144 421v254h143v-254h-143zM408 -76q-3 -33 -5 -66h50
q-6 33 -6 66v182q138 0 153 -2q9 0 21 -3v46q-43 -4 -80 -5h-94v172l134 -1q6 0 30 -4v46q-31 -1 -63 -5h-101v129q129 0 143 -2q19 0 41 -3q-4 57 -5 87l1 131q0 19 4 48q-66 -6 -78 -6q-96 0 -122 2q-13 3 -28 4q1 -21 2 -34q3 -24 3 -33v-749zM588 515h-141v184h141v-184
zM894 378q-63 -3 -97 -4l-127 1q-24 3 -22 2h-3q-3 1 -13 2v-45q12 0 26 3q4 -49 18 -104q18 -75 67 -155q-40 -48 -110 -96q-78 -49 -135 -62q21 -15 40 -46q141 75 229 168q84 -93 189 -161q15 25 46 45q-36 10 -53 20q-18 9 -52 33q-54 39 -102 95q51 85 78 166
q18 72 31 139q-6 0 -10 -1zM853 338q-22 -136 -85 -226q-34 58 -47 104q-15 46 -24 122h156zM877 741q-21 -1 -41 -5q-111 0 -132 2q-15 3 -35 4v-47h2q21 3 42 5l142 1v-192l-167 3q-3 1 -13 2v-46q7 3 33 4l128 1q30 -1 62 -5q-4 49 -5 72l1 153l4 49q-10 0 -21 -1v0z" />
  </g>

</svg>
