<?xml version="1.0" standalone="no"?>
<!DOCTYPE svg PUBLIC "-//W3C//DTD SVG 1.1//EN" "http://www.w3.org/Graphics/SVG/1.1/DTD/svg11.dtd" >
<svg xmlns="http://www.w3.org/2000/svg" xmlns:xlink="http://www.w3.org/1999/xlink" version="1.1" viewBox="-10 0 1034 1024">
  <g transform="matrix(1 0 0 -1 0 820)">
   <path fill="currentColor"
d="M135 680q-27 3 -53 5q1 -27 5 -56l-1 -612q-1 -15 -4 -29h47q-3 30 -5 63v19h145v-5q0 -39 -5 -59h48q-4 30 -5 59l1 580l4 40q-27 -1 -54 -5h-123zM124 106v253h145v-253h-145zM124 395v249h145v-249h-145zM360 717q3 -73 4 -114l-4 -34h47q-4 27 -5 70v37h483v-45
q0 -42 -6 -60h49q-6 55 -5 76q1 34 5 70q-18 -1 -25 -2q-21 -3 -58 -3l-448 1q-15 3 -37 4zM420 159q-36 0 -46 2q-3 0 -14 5v-48q42 6 60 6q501 0 523 -3q1 0 6 -1q1 0 16 -2v48l-35 -6q-4 1 -9 0l-218 -1q9 10 20 21q-13 13 -104 89l-30 -31l54 -40q18 -16 41 -39h-264z
M394 -145q4 -3 11 -8q76 72 156 164q24 25 46 38q-19 12 -23 15q-3 3 -11 8q-6 6 -16 14q-21 -45 -85 -119q-57 -61 -112 -87q4 -3 34 -25zM438 598q1 -18 2 -30q3 -18 3 -27l-1 -231q-3 -12 -4 -45q57 6 78 6l290 -1q4 0 14 -2l27 -3q-3 30 -5 59l1 232l4 42q-18 -1 -27 -2
q-24 -3 -71 -3l-268 1q-15 3 -43 4zM480 452v105h324v-105h-324zM480 307v109h324v-109h-324zM931 -117q-6 6 -48 55l-61 66l-71 77q-24 -18 -36 -24q64 -64 81 -83q0 -1 3 -4l45 -51q18 -18 45 -56q4 -6 9 -14q12 10 21 21q6 7 12 13v0z" />
  </g>

</svg>
