<?xml version="1.0" standalone="no"?>
<!DOCTYPE svg PUBLIC "-//W3C//DTD SVG 1.1//EN" "http://www.w3.org/Graphics/SVG/1.1/DTD/svg11.dtd" >
<svg xmlns="http://www.w3.org/2000/svg" xmlns:xlink="http://www.w3.org/1999/xlink" version="1.1" viewBox="-10 0 1010 1000">
   <path fill="currentColor"
d="M389 40q20 8 176 8h187q119 0 165 -10q-8 19 -8 97q-1 68 6 80h-58q-4 39 -4 137q0 137 8 166q-58 -8 -210 -8q-199 0 -218 8q3 -14 4 -47q1 -16 1 -43v-78v-99q0 -30 -1 -38h-50q8 -13 8 -74q0 -78 -6 -99zM69 70q11 5 41 7q15 0 38 1h64q108 0 137 -10q-6 25 -8 70
q-1 21 -2 50v72v326v83q0 28 1 46q1 36 5 61h-93q10 -28 10 -79h-105q0 64 8 109h-98q12 -52 12 -226v-298q0 -101 -2 -145q-2 -48 -8 -67zM476 115v84h351v-84h-351zM155 145v213h109v-213h-109zM514 256v72h264v-72h-264zM512 379v74h268v-74h-268zM157 425v204h107v-204
h-107zM671 522q10 47 10 74h95q88 0 112 -1q32 -2 52 -7v83q-15 -8 -162 -8h-266q-119 0 -145 8v-81q10 4 42 5q15 1 40 1h73h79q-4 -36 -22 -64zM716 685q138 74 228 133l-77 63q-108 -97 -214 -146zM540 687q62 40 75 61q-3 2 -10 3q-24 4 -55 25q-12 7 -37 23
q-93 61 -140 84q-18 -32 -69 -63q127 -43 236 -133z" />
</svg>
