<?xml version="1.0" standalone="no"?>
<!DOCTYPE svg PUBLIC "-//W3C//DTD SVG 1.1//EN" "http://www.w3.org/Graphics/SVG/1.1/DTD/svg11.dtd" >
<svg xmlns="http://www.w3.org/2000/svg" xmlns:xlink="http://www.w3.org/1999/xlink" version="1.1" viewBox="-10 0 1034 1024">
  <g transform="matrix(1 0 0 -1 0 820)">
   <path fill="currentColor"
d="M134 6q-3 21 -4 54v36h161q0 -31 -4 -58h47q-4 24 -5 70l1 542l4 50q-19 -1 -34 -4q-25 -3 -33 -3h-113q-6 0 -31 3q-12 3 -35 4q1 -33 5 -67q-3 -607 -5 -627h46zM130 132v254h161v-254h-161zM130 422v236h161v-236h-161zM780 173q-9 -21 -45 -71q-27 -34 -67 -70
q-31 25 -63 59q-24 27 -35 66q-21 -21 -43 -33q3 -4 8 -9l14 -17q25 -33 43 -51q15 -13 31 -30q3 -3 11 -12q-81 -51 -126 -70q-87 -33 -139 -34q27 -18 38 -45q55 12 130 47q72 34 131 78q100 -64 261 -111q12 30 36 49q-127 4 -262 90q96 94 146 205q-21 -1 -35 -2
q-25 -3 -33 -3h-241l35 86l329 -1q4 0 37 -4v46q-39 -4 -63 -5h-290l28 93l253 -1q6 0 39 -4v46q-43 -4 -81 -5h-62l64 100q27 39 35 46q6 9 26 17q-34 12 -59 30q-13 -33 -57 -107q-22 -31 -43 -65l-12 -21l-285 1q-21 3 -20 2q-3 0 -14 2v-46q60 6 107 5h61
q-9 -54 -22 -93l-141 1q-21 3 -20 2q-3 0 -13 2v-46q54 6 79 5h83q-22 -54 -38 -86q-36 -72 -91 -138q-51 -60 -90 -93q-39 -31 -88 -56q28 -12 49 -33q60 48 129 124q34 39 62 74q25 36 56 86h257zM420 664l218 9q3 1 7 1l93 11q135 16 141 16t15 -1q-19 21 -29 56
q-36 -12 -69 -20q-31 -7 -71 -14q-54 -6 -115 -12q-57 -3 -105 -5q-60 0 -107 9q10 -15 19 -39q1 -4 3 -11zM507 486q6 6 27 17q-67 108 -79 124q-18 -15 -34 -25q15 -16 33 -45q12 -18 41 -79zM618 646q-15 -12 -39 -23q33 -42 63 -119q3 3 32 17q3 3 9 3q-10 24 -35 68z
" />
  </g>

</svg>
