<?xml version="1.0" standalone="no"?>
<!DOCTYPE svg PUBLIC "-//W3C//DTD SVG 1.1//EN" "http://www.w3.org/Graphics/SVG/1.1/DTD/svg11.dtd" >
<svg xmlns="http://www.w3.org/2000/svg" xmlns:xlink="http://www.w3.org/1999/xlink" version="1.1" viewBox="-10 0 1010 1000">
   <path fill="currentColor"
d="M857 -2q9 11 25 32q47 56 39 56q-4 2 -15 0q-26 -5 -59 0q-105 15 -403 42q-37 4 -53 5q-3 -35 -34 -81q300 13 500 -54zM75 80q29 5 96 6h71q72 -3 95 -6q-8 65 -8 135v383q0 69 8 109h-87q3 -18 6 -68h-103v42q0 50 1 69q1 24 3 38h-84l8 -109v-468q-1 -87 -6 -131z
M796 115q16 6 44 18q60 23 55 26q-1 3 -7 7q-34 24 -76 90h33q63 -1 92 -4q-6 17 -6 74q2 45 4 73h-88q6 -30 6 -83h-407q-1 61 6 81h-83q5 -48 6 -77q-3 -57 -6 -70q21 3 109 6h262q45 -64 56 -141zM667 123q15 42 21 96l-75 14q-3 -49 -28 -100zM502 137q26 58 34 92
l-76 19q-18 -54 -37 -93zM153 149v179h105v-179h-105zM569 330q102 14 104 20q-1 3 -6 10q-19 23 -40 67h159q50 -2 103 -8v73q-24 -5 -103 -5h-185l-36 67h191h26q76 1 91 -4q-66 152 -149 222q110 46 232 60q-45 29 -65 85q-10 -4 -30 -11q-136 -51 -200 -90
q-105 62 -240 99q-24 -46 -66 -73q132 -11 248 -70q-65 -77 -91 -129q-87 120 -200 187q-26 -35 -72 -60q177 -59 286 -285h-48q-19 0 -74 4q-14 1 -21 1v-71q12 1 31 3q39 6 64 5h72q15 -53 19 -97zM153 391v185h105v-185h-105zM563 610q3 5 10 15q45 75 88 113
q46 -30 103 -128h-201z" />
</svg>
