<?xml version="1.0" standalone="no"?>
<!DOCTYPE svg PUBLIC "-//W3C//DTD SVG 1.1//EN" "http://www.w3.org/Graphics/SVG/1.1/DTD/svg11.dtd" >
<svg xmlns="http://www.w3.org/2000/svg" xmlns:xlink="http://www.w3.org/1999/xlink" version="1.1" viewBox="-10 0 1034 1024">
  <g transform="matrix(1 0 0 -1 0 820)">
   <path fill="currentColor"
d="M310 249q-39 -33 -67 -53q-22 -16 -53 -34q-87 -43 -149 -50q21 -12 41 -44q55 22 89 39q33 21 68 40q13 7 21 11l4 -56l-2 -248q-1 -3 -1 -7q-1 -3 -1 -6h45q-3 15 -4 68v7h409l-4 -70h46q-3 43 -4 88l1 183q0 15 3 29q100 -52 182 -80q12 24 41 46q-61 1 -159 46
q-45 22 -63 36q-27 19 -67 55l242 -1l27 -5v48l-35 -6l-520 -1q33 36 39 47q3 4 8 9l291 -1l48 -4q-4 54 -5 82l1 125l4 48q-33 -1 -67 -5h-67v77l261 -1q6 0 26 -4v44l-34 -6l-253 -1v26q0 16 4 31q1 18 12 32h-61q3 -12 3 -17q1 -25 3 -46v-26h-216v26q0 15 3 31
q1 18 13 32h-60q1 -30 5 -63v-26l-269 3q-3 1 -5 1q-9 1 -17 3v-44q-3 0 9 1q3 0 11 1q19 0 44 3h227v-77h-69q-10 0 -36 3q-15 0 -35 2q1 -36 5 -72q0 -114 -2 -144q-3 -6 -3 -39q57 4 85 5h94l-51 -56l-263 3q-10 1 -22 4v-48l64 6h185zM261 475v74h481v-74h-481zM261 376
v64h481v-64h-481zM285 178q48 39 62 52l19 19h263q6 -7 22 -21q33 -33 53 -50l-52 -4l-343 1q-9 3 -24 3zM710 59h-409v79h409v-79zM301 -48v72h409v-72h-409zM613 585h-216v77h216v-77z" />
  </g>

</svg>
