<?xml version="1.0" standalone="no"?>
<!DOCTYPE svg PUBLIC "-//W3C//DTD SVG 1.1//EN" "http://www.w3.org/Graphics/SVG/1.1/DTD/svg11.dtd" >
<svg xmlns="http://www.w3.org/2000/svg" xmlns:xlink="http://www.w3.org/1999/xlink" version="1.1" viewBox="-10 0 1010 1000">
   <path fill="currentColor"
d="M569 -8q94 -3 98 8q1 4 -6 15q-16 29 -16 61h137q103 -1 149 -8v69q-39 -6 -145 -6h-141v58h73q53 -1 97 -8q-4 12 -6 45q0 12 -1 18v110q1 56 7 75q-38 -8 -105 -8h-234l-41 54h287q142 -1 211 -8v67q-61 -7 -199 -8h-46q135 95 286 111q-48 41 -67 86q-70 -25 -145 -78
v135q0 78 8 117h-83q0 -4 1 -14q2 -25 2 -41h-377q0 45 4 61h-85q10 -50 10 -119v-139q-81 54 -145 86q-2 -2 -5 -6q-32 -45 -62 -62q124 -19 282 -135h-78q-112 1 -163 8v-69q51 8 161 8h123q6 -6 27 -36q8 -11 13 -18h-111q-54 -1 -88 8q8 -35 8 -62v-119q0 -19 -7 -61
q-1 -4 -1 -6q34 8 88 8h61v-58h-135q-94 1 -143 8v-71q60 7 145 8h131q0 -42 -10 -82q83 1 96 10q2 4 -4 12q-17 26 -16 60h170q0 -57 -10 -84zM732 326h-452v51h452v-51zM732 233h-452v49h452v-49zM690 740h-377v54h377v-54zM690 641h-377v52h377v-52zM619 528h-230
q-27 27 -66 58q25 8 66 8h226q48 0 68 -4q-33 -27 -64 -62zM581 131h-172v58h172v-58z" />
</svg>
