<?xml version="1.0" standalone="no"?>
<!DOCTYPE svg PUBLIC "-//W3C//DTD SVG 1.1//EN" "http://www.w3.org/Graphics/SVG/1.1/DTD/svg11.dtd" >
<svg xmlns="http://www.w3.org/2000/svg" xmlns:xlink="http://www.w3.org/1999/xlink" version="1.1" viewBox="-10 0 1010 1000">
   <path fill="currentColor"
d="M93 18q72 6 141 6h76q82 -1 142 -6q-5 55 -6 135v18q0 47 4 133q-37 -4 -75 -4q31 32 81 103l-67 36q-1 -1 -2 -4q-7 -16 -20 -34q-98 22 -204 68q-14 7 -35 19q-17 10 -21 10l-34 -63q28 -15 26 -60v-234q0 -61 -6 -123zM500 20q56 8 133 10h129q64 -1 131 -10v78
q-44 -9 -131 -8h-14q-7 66 -14 105h32q89 -1 137 -8v75q-36 -6 -135 -6h-48q-2 3 -6 11q-7 14 -12 23q79 0 76 4q0 3 -6 12q-14 21 -14 36v21q-3 37 26 34q58 -1 71 -8q23 -15 30 -83q41 32 77 44q0 1 -1 5q-26 100 -94 100h-101q-50 -1 -61 -9q-15 -8 -15 -35v-103
q-55 89 -178 173h79q141 0 201 -6q-6 79 -6 121v33q0 41 8 133q-31 -3 -92 -5q-58 -2 -95 -1h-224q-145 2 -193 6q5 -48 6 -141v-17q-1 -75 -6 -129q63 6 165 6h149q-23 -31 -66 -54q151 -50 213 -173h-46q-69 1 -113 8q4 -35 4 -67q0 -42 -8 -66q79 -2 93 8q0 2 -3 8
q-9 21 -9 50h98q5 -25 12 -105h-46q-96 1 -133 8v-78zM171 84v49h200v-49h-200zM171 193v47h200v-47h-200zM171 300v101q33 -14 168 -47q-3 -6 -14 -22q-5 -6 -8 -10l46 -22h-192zM272 536v54h436v-54h-436zM272 645v56h438v-56h-438zM67 804q59 7 169 8h502q124 -1 171 -8
v79q-48 -9 -165 -8h-504q-129 1 -173 8v-79z" />
</svg>
