<?xml version="1.0" standalone="no"?>
<!DOCTYPE svg PUBLIC "-//W3C//DTD SVG 1.1//EN" "http://www.w3.org/Graphics/SVG/1.1/DTD/svg11.dtd" >
<svg xmlns="http://www.w3.org/2000/svg" xmlns:xlink="http://www.w3.org/1999/xlink" version="1.1" viewBox="-10 0 1010 1000">
   <path fill="currentColor"
d="M179 -6q28 15 214 14h232q114 0 149 -2q45 -2 69 -8q-9 31 -8 129v30q-3 99 8 135q-35 -8 -174 -8v64h59h34q94 2 115 -6v73q-27 -9 -149 -10h-61v70h99q84 0 114 -1q38 -2 53 -7v77q-19 -5 -50 -7q-16 -1 -40 -1h-71h-84q112 98 278 103q-52 51 -67 92
q-197 -75 -290 -195h-210q-97 114 -302 195q-11 -36 -65 -76q174 -26 280 -119h-78q-128 0 -169 8v-77q17 5 53 7q17 0 43 1h71h101v-70h-67q-120 0 -145 6v-73q33 10 151 10h61v-66q-123 0 -152 8q4 -17 6 -47q1 -28 1 -104q0 -106 -9 -145zM260 68v55h502v-55h-502z
M260 171v54h502v-54h-502zM399 284v64h202v-64h-202zM399 405v70h202v-70h-202zM460 564q10 0 28 1q67 2 64 7q0 3 -4 8q-12 14 -12 32v69q25 6 68 19q3 1 5 1q30 -39 50 -80q75 39 81 50q0 4 -16 9q-15 3 -20 7q-11 8 -27 25q-6 7 -10 11q93 34 170 79l-57 67
q-98 -79 -244 -129v116q9 44 -141 55q-1 -57 -42 -93q120 29 113 -18v-67q-195 80 -274 119q-4 2 -5 2q-18 -36 -46 -78q2 -1 10 -3q56 -11 190 -48q-28 -34 -71 -58l65 -42q36 28 68 76q8 -3 28 -10q25 -10 33 -12q0 -107 -4 -115z" />
</svg>
