<?xml version="1.0" standalone="no"?>
<!DOCTYPE svg PUBLIC "-//W3C//DTD SVG 1.1//EN" "http://www.w3.org/Graphics/SVG/1.1/DTD/svg11.dtd" >
<svg xmlns="http://www.w3.org/2000/svg" xmlns:xlink="http://www.w3.org/1999/xlink" version="1.1" viewBox="-10 0 1034 1024">
  <g transform="matrix(1 0 0 -1 0 820)">
   <path fill="currentColor"
d="M96 622q3 -21 3 -28v-582q0 -40 -5 -60h47q-3 30 -5 63v21h123q-1 -16 -1 -33q0 -13 -3 -21h47q-3 30 -5 62l1 565l4 38q-25 -1 -52 -5q-106 0 -128 2l-28 3q0 -12 2 -25zM136 373v233h123v-233h-123zM136 72v265h123v-265h-123zM480 -64q0 -18 -4 -25q-9 -10 -44 -12
q-15 0 -37 5q0 -3 7 -18q0 -1 10 -32q19 1 29 4q6 0 13 2q30 6 46 14q18 12 18 46v139q30 10 53 20q24 6 59 19q3 21 5 46l-117 -46v53q27 21 78 64q43 36 44 41l-98 -5l-189 3q-3 1 -8 3v-47q15 4 34 5l164 1q-34 -30 -43 -35q-12 -7 -25 -14q1 -28 5 -59v-21
q-82 -28 -160 -41q13 -30 21 -53q18 9 56 24l83 29v-110zM658 609q-22 -1 -45 -5q-276 0 -284 3l-6 2v-47q30 3 60 5l238 -1l37 -4v47zM562 317q25 -1 53 -5q-6 48 -6 71v20q19 -4 42 -14q15 27 29 54q15 30 38 79h123q0 -39 -4 -93l-8 -113q-3 -42 -11 -79q-9 -40 -24 -99
q-18 33 -32 68q-31 82 -37 116q-4 33 -5 45q0 12 1 27q-24 -9 -49 -15l35 -131q24 -75 65 -162q-49 -76 -101 -122q-76 -63 -133 -81q22 -24 36 -41q54 36 97 69q39 34 69 67t58 73q39 -55 69 -95l83 -96q9 9 20 15q1 0 10 7l25 13q-43 19 -93 72q-54 58 -96 126
q31 96 44 178q13 91 20 251q39 0 84 -5v47q-51 -6 -84 -6h-146q3 4 5 11q6 19 8 22q9 24 16 50q18 57 26 71q4 12 23 24q-3 0 -41 15q-6 1 -21 8q-10 -84 -59 -203q-42 -100 -82 -139q0 43 5 73q0 6 1 10q-51 -6 -62 -6l-150 1q-6 0 -19 3q-3 0 -18 2q6 -54 6 -76
q0 -57 -2 -81q-3 -3 -3 -20q-1 -4 -1 -11q42 4 62 5h134zM408 353v105h163v-105h-163zM410 730q52 -55 96 -123q12 16 29 30q-9 12 -11 15q-15 19 -32 41l-49 62q-15 -12 -33 -25v0z" />
  </g>

</svg>
