<?xml version="1.0" standalone="no"?>
<!DOCTYPE svg PUBLIC "-//W3C//DTD SVG 1.1//EN" "http://www.w3.org/Graphics/SVG/1.1/DTD/svg11.dtd" >
<svg xmlns="http://www.w3.org/2000/svg" xmlns:xlink="http://www.w3.org/1999/xlink" version="1.1" viewBox="-10 0 1034 1024">
  <g transform="matrix(1 0 0 -1 0 820)">
   <path fill="currentColor"
d="M96 694q1 -33 5 -66l-1 -629q-3 -15 -3 -21q-1 -3 -1 -8h45q-1 4 -1 8q0 6 -2 11l-2 83h144v-22q0 -27 -4 -52h47q0 1 -5 67v28q18 -7 33 -31q6 1 16 8q18 12 72 42q1 1 6 3q12 6 29 20l-3 -281q0 -6 -3 -12h46q-3 48 -3 72h319q-1 -33 -3 -66q0 -1 -1 -4h47q0 6 -2 12
q-1 10 -3 66l1 246q0 19 4 44q-60 -4 -67 -5h-223q37 31 88 70q18 13 28 20l214 -1q27 0 40 -4l2 -1v45q-43 -4 -75 -5h-150l96 89q31 30 65 43q-12 7 -34 30q-7 9 -11 13q-10 -16 -23 -30q-12 -15 -38 -43q-55 -60 -107 -102h-45v91l82 -1q6 0 38 -4v45q-9 -3 -14 -3
q-27 -1 -50 -3h-56l4 64h-43l4 -52v-12l-153 3q-6 3 -13 3v-45q6 3 36 4l130 1v-91l-225 3q-6 1 -10 2v-45q3 1 8 2q6 3 44 3l228 1q-43 -36 -72 -56q-27 -18 -52 -32q-19 0 -35 3q1 0 -16 2q3 -22 4 -41q-57 -33 -92 -50q-33 -13 -62 -22l1 546q0 19 4 47q-30 -1 -60 -5
l-121 1q-15 3 -46 4zM280 108h-144v265h144v-265zM136 408v245h144v-245h-144zM511 -53v103h319v-103h-319zM830 81h-319v74q13 9 28 18h291v-92zM407 602q-3 -30 -5 -60q33 3 67 5l375 -1l49 -4q-4 49 -5 76q0 75 2 86q0 18 3 37q-63 -6 -67 -7l-376 1q-30 6 -48 6
q1 -30 5 -60v-79zM444 581v122h110v-122h-110zM589 581v122h111v-122h-111zM736 581v122h114v-122h-114z" />
  </g>

</svg>
