<?xml version="1.0" standalone="no"?>
<!DOCTYPE svg PUBLIC "-//W3C//DTD SVG 1.1//EN" "http://www.w3.org/Graphics/SVG/1.1/DTD/svg11.dtd" >
<svg xmlns="http://www.w3.org/2000/svg" xmlns:xlink="http://www.w3.org/1999/xlink" version="1.1" viewBox="-10 0 1010 1000">
   <path fill="currentColor"
d="M381 22q45 9 149 8h204q110 0 151 -8q-8 40 -8 105v66q0 66 8 109q-46 -8 -125 -8v66h30q55 0 78 -2q24 -1 41 -6v69q-18 -4 -42 -5q-12 -1 -29 -1h-48h-28v62h34q115 0 142 -6v69q-3 0 -10 -1q-50 -7 -130 -7h-44q82 82 204 91q-36 37 -51 82q-141 -52 -228 -173h-96
q-104 114 -214 171q-14 -39 -52 -70q100 -12 197 -101h-56q-74 0 -123 8v-69q58 6 127 6h44v-62h-42q-60 0 -105 4v-67q40 9 101 8h46v-66q-76 0 -125 8q8 -37 8 -99v-76q0 -53 -8 -105zM462 90v43h338v-43h-338zM141 129v223h101v-223h-101zM462 193v42h338v-42h-338z
M569 294v66h127v-66h-127zM242 417h-101v216h101v-216zM569 415v62h127v-62h-127zM589 564q68 -2 92 10q1 2 -2 6q-10 19 -10 53v46q19 12 43 24q23 -27 48 -64q39 26 69 52q-39 12 -65 38q5 2 30 13q53 25 99 44q-37 34 -54 70q-58 -45 -174 -114v116q-6 44 -127 49
q-6 -42 -34 -85q33 11 64 9q28 -3 29 -17v-159q0 -52 -8 -91zM510 641q18 18 38 58l-68 26q-17 -39 -34 -56zM573 703q-5 30 -2 59q-146 60 -180 82q-12 -38 -44 -72q126 -26 226 -69zM317 764h-81q0 -4 2 -14q4 -32 4 -51h-101q0 60 6 117h-82q8 -60 8 -125v-512
q0 -52 -8 -125q37 9 116 8h15q83 0 123 -8q-7 34 -7 129v454q0 96 5 127z" />
</svg>
