<?xml version="1.0" standalone="no"?>
<!DOCTYPE svg PUBLIC "-//W3C//DTD SVG 1.1//EN" "http://www.w3.org/Graphics/SVG/1.1/DTD/svg11.dtd" >
<svg xmlns="http://www.w3.org/2000/svg" xmlns:xlink="http://www.w3.org/1999/xlink" version="1.1" viewBox="-10 0 1034 1024">
  <g transform="matrix(1 0 0 -1 0 820)">
   <path fill="currentColor"
d="M87 47q0 -39 -5 -59h47q-4 49 -5 91h154v-29q0 -37 -5 -60h48q-1 3 -1 5q-1 3 -4 55l1 594l4 40q-55 -4 -73 -5l-130 1q-15 3 -36 4q1 -27 5 -56v-581zM124 404v239h154v-239h-154zM278 370v-256h-154v256h154zM349 155q6 -4 14 -8q22 24 35 40q21 27 44 53v-328
q0 -39 -5 -59h48q-3 7 -4 34l-1 37l437 -1q4 0 42 -4v47q-22 -1 -45 -5l-221 -1v86q174 0 184 -3q3 0 8 -3v48q-64 -6 -80 -7h-112v84l153 -1q21 0 37 -5v48q-15 -3 -22 -5q-24 -1 -74 -2h-94v82l190 -1q3 0 36 -4v46q-31 -1 -64 -5h-136q9 15 20 29l-104 76q-9 -15 -19 -26
q-3 -3 -6 -7q42 -21 101 -72h-216q15 30 27 42q18 21 36 28q-13 7 -26 15q-13 9 -24 19q-13 -27 -21 -38l-29 -53l-27 -43q-64 -91 -112 -116q9 -3 20 -11q4 -3 10 -6zM656 282v-82h-176v82h176zM480 -40v86h176v-86h-176zM480 81v84h176v-84h-176zM609 735q-24 -1 -50 -5
l-201 3q-3 1 -8 2v-46q42 6 70 5h145v-153q-27 -12 -48 -20q-24 -9 -70 -24q-36 -12 -97 -28q18 -43 19 -47q19 12 58 28l138 56q0 -69 -5 -86h49q-4 30 -5 59l1 218q0 13 4 38zM387 655q-12 -21 -21 -33q7 -3 12 -7q7 -3 11 -6q39 -19 57 -32l48 -30l21 35zM697 733l-54 4
q-4 1 -7 2v-47l13 2q63 3 90 4h114v-136q-112 -45 -210 -76q13 -18 25 -42q76 45 185 82v-70q0 -45 -5 -60h48q-4 30 -5 60l1 244l4 39q-51 -6 -62 -6h-137zM743 632q-39 19 -62 32q-6 -15 -13 -26l-5 -7q75 -33 119 -66q7 16 14 30q1 3 4 6q-15 9 -57 31v0z" />
  </g>

</svg>
