<?xml version="1.0" standalone="no"?>
<!DOCTYPE svg PUBLIC "-//W3C//DTD SVG 1.1//EN" "http://www.w3.org/Graphics/SVG/1.1/DTD/svg11.dtd" >
<svg xmlns="http://www.w3.org/2000/svg" xmlns:xlink="http://www.w3.org/1999/xlink" version="1.1" viewBox="-10 0 1034 1024">
  <g transform="matrix(1 0 0 -1 0 820)">
   <path fill="currentColor"
d="M96 66q-1 -28 -3 -58q-1 -1 -2 -13h47q-3 31 -4 72v21h140l-4 -73h46l-5 66l1 574q0 18 4 50q-55 -4 -89 -5q-78 0 -102 2q-3 1 -6 1q-12 0 -28 2q1 -33 5 -67v-572zM134 124v250h140v-250h-140zM134 409v255h140v-255h-140zM708 275q15 -22 59 -66q69 -66 171 -109
q19 27 43 41q-72 12 -147 61q-48 34 -75 73h109q24 0 51 -3l13 -2v46l-43 -4l-137 -1v78q108 0 124 -2q12 0 24 -4v47q-3 0 -60 -5h-88v80q72 0 86 -2q6 0 39 -4q-4 49 -5 70l1 131l4 44q-21 -1 -35 -2q-22 -3 -30 -3l-345 1q-19 3 -48 4q4 -99 5 -102q0 -78 -2 -107
q-3 -6 -3 -36q66 6 101 6h8v-80l-101 1q-27 3 -34 4v-47q30 4 33 5l102 1v-78l-175 5v-46q54 4 58 5h112q-28 -37 -88 -84q-63 -46 -109 -60q24 -12 47 -35q123 82 202 179h133zM461 540v62h373v-62h-373zM461 638v65h373v-65h-373zM566 311v78h147v-78h-147zM566 425v80
h147v-80h-147zM622 34v-100q0 -25 -14 -36q-13 -9 -40 -9q-13 0 -46 4q16 -22 22 -49q21 1 31 4q42 6 65 24q19 19 20 60v107q9 -6 30 -13q19 -9 38 -20l106 -58q24 -13 46 -35l10 30q3 9 10 19l-165 82q22 21 48 48q24 21 30 23q9 4 23 7q-30 24 -34 28q-6 4 -11 10
q-12 -18 -34 -42q-24 -27 -55 -58q-21 9 -42 20v91q0 16 3 35q1 13 11 30h-57q4 -45 5 -84v-75q-43 -24 -83 -44q-60 -28 -97 -45q-27 -12 -52 -20q15 -18 27 -46q27 15 49 30l50 27zM471 127q43 -21 76 -68q10 19 28 35q-1 0 -55 47q-9 9 -21 16q-12 -15 -28 -30v0z" />
  </g>

</svg>
