<?xml version="1.0" standalone="no"?>
<!DOCTYPE svg PUBLIC "-//W3C//DTD SVG 1.1//EN" "http://www.w3.org/Graphics/SVG/1.1/DTD/svg11.dtd" >
<svg xmlns="http://www.w3.org/2000/svg" xmlns:xlink="http://www.w3.org/1999/xlink" version="1.1" viewBox="-10 0 1034 1024">
  <g transform="matrix(1 0 0 -1 0 820)">
   <path fill="currentColor"
d="M373 117l-280 2q-6 3 -14 3v-36q30 4 55 5h294q-75 -45 -155 -73q-84 -30 -183 -36q24 -24 37 -42q81 18 194 64v-59q0 -21 -19 -31q13 -18 26 -44q36 27 105 57q115 48 123 50q1 21 5 42q-33 -18 -53 -27q-111 -48 -151 -63v90q37 18 66 34q27 15 59 38h87
q-7 -9 -16 -18q69 -69 137 -105q39 -21 81 -36q51 -16 131 -40q7 18 22 44q-127 9 -217 65q42 40 56 48q12 7 41 11q-15 15 -28 31h102q42 0 59 -5v36q-6 -1 -13 -2l-2 -1q-22 0 -44 -2h-235v45q162 0 173 -3q3 0 8 -2v37q-4 0 -8 -1q-21 0 -49 -4q-3 1 -4 0h-120v43l197 -1
l28 -4v37q-30 -1 -60 -5h-165v49l144 -1q9 0 33 -4q-6 24 -6 44q0 39 2 45q0 4 4 29h-9q-15 -1 -14 -2q-19 -3 -26 -3l-205 1q-12 3 -32 4q1 -22 5 -46q0 -30 -5 -72q33 6 65 5h10v-49h-204v48q39 -1 78 -5q-6 21 -5 65q0 27 4 36q0 9 1 16q-30 -6 -45 -6l-211 1q-6 1 -33 5
q3 -60 4 -86q-1 -3 -1 -8l-1 -2q0 -9 -2 -21q36 4 55 5h124v-48l-215 2q-6 3 -12 3v-37q19 4 49 5h178v-43l-176 3l-6 2v-37q15 3 31 4l151 1v-45zM232 334v52h213v-52h-213zM405 117v45h204v-45h-204zM609 232v-43h-204v43h204zM781 390v-56h-211v56h211zM757 91
q-16 -19 -31 -33q-16 -15 -49 -41q-39 24 -86 74h166zM169 487q-24 1 -43 2q-3 0 -8 2l-6 2v-37q18 4 57 5l713 -1q9 0 27 -4v37q-15 -3 -57 -6h-328q4 6 14 14q3 3 8 7l-22 13q-40 30 -55 40l265 -1l41 -4q-4 42 -5 64q0 108 3 116q0 7 2 17q-27 -1 -54 -5l-448 1
q-15 3 -32 4q1 -13 3 -26q3 -18 3 -44q0 -75 -2 -95l-4 -32q45 4 87 5h133q-9 -12 -22 -22q55 -36 70 -52h-340zM736 644v-56h-457v56h457zM279 671v49h457v-49h-457z" />
  </g>

</svg>
