<?xml version="1.0" standalone="no"?>
<!DOCTYPE svg PUBLIC "-//W3C//DTD SVG 1.1//EN" "http://www.w3.org/Graphics/SVG/1.1/DTD/svg11.dtd" >
<svg xmlns="http://www.w3.org/2000/svg" xmlns:xlink="http://www.w3.org/1999/xlink" version="1.1" viewBox="-10 0 1010 1000">
   <path fill="currentColor"
d="M837 4q-4 21 -4 84v57q0 41 1 55q1 17 3 27q-52 -8 -141 -8h-158l10 37h279q96 -3 119 -6v66q-23 -9 -125 -12h-648q0 1 -42 3q-56 3 -73 5v-62q36 6 119 6h299l-12 -37h-162q-87 1 -129 6q1 -10 2 -27v-51v-63q-1 -50 -4 -78q33 3 168 6h318q122 0 180 -8zM250 56v40
h508v-40h-508zM250 135v40h508v-40h-508zM159 338q21 3 77 4h149q67 -1 85 -4q-5 11 -4 51v26l4 58q-20 -4 -59 -4v43h176v-45q-9 0 -27 2q-22 2 -34 2q4 -22 4 -58v-30q0 -32 -4 -47q18 3 119 6h93q69 0 103 -4q-2 13 -3 30q0 11 -1 17v38q4 21 4 48q-7 -2 -24 -3
q-13 -1 -53 -1h-113v45h125q70 -3 97 -6v58q-37 -8 -95 -8h-127v48h101q4 2 43 0q33 -2 46 -4v55q-30 -8 -87 -8h-103v48h176q78 -3 104 -6v57q-50 -8 -98 -8h-268q45 45 94 64q10 -5 27 -14q48 -24 68 -42q1 1 3 2q61 32 56 36l-5 2q-33 8 -84 34q37 8 96 10q61 1 118 -4
q-39 42 -57 85q-302 -39 -397 -171l-99 50v48q59 -14 119 -40q-2 25 -2 67q-7 2 -22 7q-124 36 -163 59q-12 -39 -27 -66q28 2 25 -51q-69 28 -222 77q-13 -33 -53 -73q179 -11 347 -80h-197q-73 0 -107 8v-59q37 8 107 8h157v-48h-87q-77 2 -101 8v-55q6 0 37 1q39 2 66 3
h85v-48h-113q-73 0 -97 6v-58q44 6 99 8h111v-43h-89q-78 0 -99 6q3 -27 4 -56v-30q0 -35 -4 -51zM597 381v46h173v-46h-173zM230 381v48h169v-48h-169zM587 556h-176v48h176v-48zM411 647v48h176v-48h-176z" />
</svg>
