<?xml version="1.0" standalone="no"?>
<!DOCTYPE svg PUBLIC "-//W3C//DTD SVG 1.1//EN" "http://www.w3.org/Graphics/SVG/1.1/DTD/svg11.dtd" >
<svg xmlns="http://www.w3.org/2000/svg" xmlns:xlink="http://www.w3.org/1999/xlink" version="1.1" viewBox="-10 0 1034 1024">
  <g transform="matrix(1 0 0 -1 0 820)">
   <path fill="currentColor"
d="M115 131l80 60q42 36 62 56q10 13 34 31q0 1 2 1h566q-4 -84 -5 -179q0 -43 -5 -114q-3 -16 -5 -26q-7 -28 -43 -44q-30 -10 -76 -11q-27 0 -50 4q10 -18 18 -38q3 -6 7 -13q115 6 152 37q24 19 32 60q9 42 11 151l3 150q1 39 7 64q-28 -1 -58 -5h-526l71 90l389 -1
q15 0 43 -4l-6 63l1 216q1 25 5 51q-16 -1 -29 -3q-22 -3 -30 -3l-501 1q-12 3 -28 3q-4 0 -17 2q1 -28 5 -59l-1 -227q-3 -12 -4 -44q42 6 68 5h53q-126 -189 -265 -236q25 -21 40 -38zM779 441h-517v100h517v-100zM262 577v111h517v-111h-517zM266 -14v134q0 7 2 24
q1 18 12 40h-58q6 -24 6 -64v-118q0 -9 -3 -29q0 -15 -3 -28q27 3 56 5l410 -1q19 0 36 -4v47q-21 -1 -44 -5zM333 52q3 -3 14 -10q34 27 57 48q21 19 50 49q16 15 32 33q144 -72 197 -119l10 15q6 6 10 13t9 13l-199 105q27 37 57 44q-24 9 -47 22q-7 4 -13 8
q-36 -72 -127 -151q-46 -36 -79 -50q6 -3 29 -20v0z" />
  </g>

</svg>
