<?xml version="1.0" standalone="no"?>
<!DOCTYPE svg PUBLIC "-//W3C//DTD SVG 1.1//EN" "http://www.w3.org/Graphics/SVG/1.1/DTD/svg11.dtd" >
<svg xmlns="http://www.w3.org/2000/svg" xmlns:xlink="http://www.w3.org/1999/xlink" version="1.1" viewBox="-10 0 1010 1000">
   <path fill="currentColor"
d="M194 4q74 8 153 8h300q118 0 168 -8q-5 49 -5 121v58q0 78 7 113q-83 -8 -170 -8h-314q-77 0 -139 8q1 -8 2 -27q6 -52 6 -90v-48q1 -85 -8 -127zM274 76v49h460v-49h-460zM274 181v44h460v-44h-460zM105 320q72 8 137 8h504q116 1 151 -8q-8 45 -8 95v22q0 48 8 105
q-52 -8 -143 -8h-522q-66 0 -127 8q1 -8 3 -23q5 -41 5 -72v-36q1 -62 -8 -91zM347 391h-166v80h166v-80zM415 391v80h168v-80h-168zM651 391v80h168v-80h-168zM141 574q75 8 149 8h393q47 0 111 -6q22 -1 31 -2q-87 118 -263 200q93 23 197 29q106 6 199 -5q-51 43 -73 105
q-231 -24 -415 -87q-116 42 -361 87q-14 -38 -67 -91q127 7 355 -40q-72 -35 -139 -87l36 -40h-6q-105 0 -147 6v-77zM323 645q96 69 155 97q141 -60 189 -97h-344z" />
</svg>
