<?xml version="1.0" standalone="no"?>
<!DOCTYPE svg PUBLIC "-//W3C//DTD SVG 1.1//EN" "http://www.w3.org/Graphics/SVG/1.1/DTD/svg11.dtd" >
<svg xmlns="http://www.w3.org/2000/svg" xmlns:xlink="http://www.w3.org/1999/xlink" version="1.1" viewBox="-10 0 1034 1024">
  <g transform="matrix(1 0 0 -1 0 820)">
   <path fill="currentColor"
d="M314 460h82q22 0 50 -3q1 0 14 -2v46q-31 -1 -64 -5h-75l11 66q3 13 4 30q57 0 97 -5v46q-31 -1 -64 -5h-31q0 91 6 103q3 12 11 21q-51 3 -56 6h-2q3 -33 4 -76q0 -30 -3 -54l-152 5v-46q3 0 7 1q1 1 60 4h84q-4 -51 -15 -96q-174 3 -186 5v-46q7 3 36 4l141 1
q-31 -79 -79 -135q-58 -60 -114 -87q28 -9 49 -32q60 52 94 92q52 66 75 118q45 -36 81 -72q21 -21 39 -47q0 -1 3 -5q15 19 22 25q6 6 17 15q-9 6 -17 13q-63 54 -130 108q0 4 1 7zM222 -166h47q-3 24 -4 51v19h460l-2 -61q-1 -1 -2 -5h49q-3 15 -4 42l-1 281q0 34 5 69
q-36 -1 -73 -5l-426 1q-19 3 -49 4q1 -33 5 -69l-1 -294q-1 -4 -1 -7q-1 -12 -3 -26zM265 -60v109h460v-109h-460zM265 85v104h460v-104h-460zM841 461q24 0 51 -3q3 0 14 -3v47q-4 0 -62 -5h-152q3 15 6 27q1 13 3 40q1 16 3 30l107 -1q21 0 37 -5v47q-31 -1 -63 -5h-80
q1 33 3 58q1 21 3 38q1 21 12 45q-30 0 -59 4q3 -75 4 -120q-1 -10 -1 -25q-129 3 -140 5v-47q30 4 33 5l104 1q-3 -64 -12 -97q-123 0 -138 3q-4 1 -10 2v-47q6 3 32 5l106 1q-18 -52 -65 -109q-36 -40 -95 -73q25 -7 52 -30q55 51 95 104q33 48 55 108q22 -67 82 -136
q58 -69 127 -106q12 19 44 42q-58 10 -110 57q-72 63 -103 143h117z" />
  </g>

</svg>
