<?xml version="1.0" standalone="no"?>
<!DOCTYPE svg PUBLIC "-//W3C//DTD SVG 1.1//EN" "http://www.w3.org/Graphics/SVG/1.1/DTD/svg11.dtd" >
<svg xmlns="http://www.w3.org/2000/svg" xmlns:xlink="http://www.w3.org/1999/xlink" version="1.1" viewBox="-10 0 1010 1000">
   <path fill="currentColor"
d="M264 2q11 0 30 1q80 1 77 7q2 8 -6 17q-19 24 -24 71h42l83 -4v67l-83 -4h-48l-10 85h54l83 -4v68l-83 -4h-66l-3 12q70 56 134 91l-65 66q-40 -55 -97 -102q-34 80 -171 173q-30 -41 -67 -63q142 -44 202 -177h-93l-95 4v-68l93 4h105q2 -15 6 -48q2 -24 4 -37h-62
l-101 4v-67l101 4h64q0 -60 -4 -96zM635 10q61 0 77 2q21 2 22 8q1 4 -3 11q-16 24 -21 75h70l101 -4v67l-101 -4h-74q-2 24 -7 71q-1 8 -1 12h112l105 -4v68l-107 -4h-94q77 127 234 143l-73 85q-152 -75 -206 -198q-37 72 -145 145q-41 -31 -74 -40q108 -42 159 -135h-24
l-85 4v-68l87 4h44q6 -41 8 -83h-32l-85 4v-67l89 4h28q0 -49 -1 -66q-1 -20 -3 -30zM302 550v81h383v-81h-383zM302 687v81h383v-81h-383zM649 490q71 0 113 -7q-1 18 -2 38v51v200q0 90 6 117h-85l4 -61h-383l4 61h-84q4 -48 4 -121v-200q0 -51 -4 -85q36 7 123 7h304z
" />
</svg>
