<?xml version="1.0" standalone="no"?>
<!DOCTYPE svg PUBLIC "-//W3C//DTD SVG 1.1//EN" "http://www.w3.org/Graphics/SVG/1.1/DTD/svg11.dtd" >
<svg xmlns="http://www.w3.org/2000/svg" xmlns:xlink="http://www.w3.org/1999/xlink" version="1.1" viewBox="-10 0 1034 1024">
  <g transform="matrix(1 0 0 -1 0 820)">
   <path fill="currentColor"
d="M367 209v-273q0 -30 -8 -41q-6 -6 -29 -11q-19 -3 -35 -3q-18 0 -43 6q6 -19 8 -25q0 -7 4 -25q31 0 74 6q31 3 49 16q18 16 19 62v725q0 12 4 30q1 13 2 29q-15 -1 -28 -3q-19 -3 -68 -3q-108 0 -129 2q-3 1 -33 4q4 -94 5 -98l-3 -401l-8 -100q-16 -124 -65 -202
q-21 -27 -48 -47q36 -9 57 -20q36 66 58 120q19 57 28 103q7 42 16 149h173zM197 465v198h170v-198h-170zM196 244l1 185h170v-185h-171zM907 566l-5 -495q0 -39 -8 -108q-1 -15 -3 -23q-9 -34 -49 -43q-27 -6 -58 -6q-27 0 -53 4q15 -24 27 -51q43 0 92 11q63 18 77 59
q7 25 10 66l7 464q-1 4 0 9q0 63 3 129q0 12 4 25q-18 -1 -32 -3q-22 -3 -30 -3h-296l59 120q0 3 7 9q9 15 29 26q-30 9 -65 22q-7 -34 -27 -84q-13 -36 -28 -64l-34 -61q-61 -99 -116 -142q33 -12 47 -24q24 30 56 75q31 45 58 88h328zM739 81q21 0 55 -6q-3 30 -5 59
l1 225l4 38q-4 0 -8 -1l-46 -4l-174 1q-15 3 -40 4q1 -27 5 -56l-1 -221q0 -1 -4 -45q54 6 78 6h135zM568 117v239h183v-239h-183z" />
  </g>

</svg>
