<?xml version="1.0" standalone="no"?>
<!DOCTYPE svg PUBLIC "-//W3C//DTD SVG 1.1//EN" "http://www.w3.org/Graphics/SVG/1.1/DTD/svg11.dtd" >
<svg xmlns="http://www.w3.org/2000/svg" xmlns:xlink="http://www.w3.org/1999/xlink" version="1.1" viewBox="-10 0 1010 1000">
   <path fill="currentColor"
d="M115 10l103 8h86l113 -6q-6 25 -6 109v689q15 61 -139 67q-11 -65 -36 -105q114 28 103 -22v-218h-147q-4 192 -93 361q-44 -68 -61 -83q81 -118 83 -318v-373q0 -76 -6 -109zM873 12q-1 11 -3 35q-10 113 -17 166q-7 83 -166 85q-12 -64 -42 -105q53 16 103 10
q19 -3 25 -25q6 -16 9 -86h-209v254h215q34 0 105 -8q-49 251 -107 331q76 73 186 109l-69 87q-92 -59 -161 -132q-3 4 -8 11q-66 85 -105 121l-52 -75q72 -51 115 -117q-68 -122 -91 -252h-28v323q0 60 8 120q1 13 2 19h-87q1 -9 2 -29q4 -59 4 -110v-629q0 -48 -5 -94
q-1 -8 -1 -9l105 8h179q-39 -2 93 -8zM192 86v156h147v-156h-147zM339 302h-147v171h147v-171zM675 421q18 101 63 187q43 -84 62 -187h-125z" />
</svg>
