<?xml version="1.0" standalone="no"?>
<!DOCTYPE svg PUBLIC "-//W3C//DTD SVG 1.1//EN" "http://www.w3.org/Graphics/SVG/1.1/DTD/svg11.dtd" >
<svg xmlns="http://www.w3.org/2000/svg" xmlns:xlink="http://www.w3.org/1999/xlink" version="1.1" viewBox="-10 0 1010 1000">
   <path fill="currentColor"
d="M300 -2q28 66 37 106l-81 21q-10 -46 -38 -103zM548 48q75 8 176 8q68 0 165 -8q-1 23 -2 45v48v661q1 49 -28 64q-21 16 -131 31q-14 -60 -40 -101q71 7 94 1q27 -5 26 -27v-218h-181q-15 208 -145 335q-38 -25 -93 -39q104 -83 123 -139q40 -81 40 -288v-276
q0 -10 -2 -50q-1 -29 -2 -47zM808 117h-179v153h179v-153zM121 127q35 7 131 6h71q63 -1 135 -6q-4 31 -4 98v196q0 46 8 107q-14 -2 -38 -3q-11 -1 -27 -1h-42h-161v191l145 -78q-21 -32 -43 -55l65 -38q46 51 119 155l-73 45q-20 -40 -32 -55q-107 51 -238 147l-44 -74
q34 -27 30 -79v-450v-23q1 -54 -2 -83zM194 199v101h185v-101h-185zM631 332l-2 156h179v-156h-177zM194 360v105h183v-105h-183z" />
</svg>
