<?xml version="1.0" standalone="no"?>
<!DOCTYPE svg PUBLIC "-//W3C//DTD SVG 1.1//EN" "http://www.w3.org/Graphics/SVG/1.1/DTD/svg11.dtd" >
<svg xmlns="http://www.w3.org/2000/svg" xmlns:xlink="http://www.w3.org/1999/xlink" version="1.1" viewBox="-10 0 1034 1024">
  <g transform="matrix(1 0 0 -1 0 820)">
   <path fill="currentColor"
d="M197 200h-57q-24 0 -42 3q-3 0 -12 3v-47q24 6 54 6l414 -1q16 -1 34 -5v47q-3 0 -6 -2l-93 -4h-16v411q36 0 80 -3q3 0 9 -2v46q-3 0 -6 -1q-3 0 -6 -1q-39 0 -77 -3v82q0 9 2 25q1 18 10 37h-53q0 -9 2 -13q3 -12 3 -71v-60h-205v82q0 6 2 25q0 15 10 37h-53q0 -3 2 -6
q0 -4 2 -11l2 -88v-39q-61 0 -75 2q-3 1 -4 1q-3 0 -12 2v-46q19 4 54 5h37v-411zM437 315v-115h-205v115h205zM232 351v109h205v-109h-205zM437 611v-115h-205v115h205zM80 -70q24 -15 44 -37q57 60 133 167q19 31 47 40q-30 15 -51 35q-40 -84 -78 -129q-52 -60 -95 -76z
M514 12q-21 27 -52 61l-62 67q-15 -18 -30 -30q63 -54 112 -127q12 13 32 29zM877 230v-246q0 -28 -6 -38q-6 -9 -29 -14q-21 -3 -37 -4q-9 0 -42 4q6 -13 12 -28q3 -7 8 -25q37 6 59 11q43 10 56 23q15 15 15 51l1 754l4 41q-25 -1 -51 -5l-212 1q-15 3 -34 4q4 -90 5 -93
q0 -265 -3 -341q-1 -9 -1 -20q-1 -66 -9 -124q-15 -105 -73 -193q-46 -66 -103 -87q39 -18 58 -33q36 42 61 74q21 30 40 64q46 91 61 224h220zM662 515v203h215v-203h-215zM659 266l3 213h215v-213h-218z" />
  </g>

</svg>
