<?xml version="1.0" standalone="no"?>
<!DOCTYPE svg PUBLIC "-//W3C//DTD SVG 1.1//EN" "http://www.w3.org/Graphics/SVG/1.1/DTD/svg11.dtd" >
<svg xmlns="http://www.w3.org/2000/svg" xmlns:xlink="http://www.w3.org/1999/xlink" version="1.1" viewBox="-10 0 1010 1000">
   <path fill="currentColor"
d="M143 6q98 5 105 14q0 2 -4 9q-16 30 -16 71v25h161q0 -94 -8 -127q90 5 103 16q0 2 -3 8q-15 28 -15 72v31q38 1 72 -8v84q-29 -9 -72 -8v385q41 0 70 -8v81q-38 -8 -123 -8h-244q-84 0 -127 8v-81q31 8 109 8v-385q-49 0 -86 8v-84q33 8 86 8q0 -55 -6 -104
q-2 -12 -2 -15zM905 44q-8 52 -8 137v629q12 84 -157 95q-5 -54 -42 -105q126 17 117 -26v-188h-174q-38 183 -133 311q-34 -29 -89 -41q86 -70 123 -199q37 -120 35 -343v-141q1 -87 -8 -129q1 0 5 1q55 7 103 7h115q44 0 96 -6q12 -2 17 -2zM653 127v159h162v-159h-162z
M389 193h-161v87h161v-87zM228 338v93h161v-93h-161zM815 356h-162q-3 115 -8 164h170v-164zM228 488v90h161v-90h-161zM381 661q35 22 107 103l-63 48q-42 -61 -106 -109zM187 661q77 26 87 40q0 3 -14 16q-63 55 -143 152q-10 -13 -77 -45q97 -68 147 -163z" />
</svg>
