<?xml version="1.0" standalone="no"?>
<!DOCTYPE svg PUBLIC "-//W3C//DTD SVG 1.1//EN" "http://www.w3.org/Graphics/SVG/1.1/DTD/svg11.dtd" >
<svg xmlns="http://www.w3.org/2000/svg" xmlns:xlink="http://www.w3.org/1999/xlink" version="1.1" viewBox="-10 0 1034 1024">
  <g transform="matrix(1 0 0 -1 0 820)">
   <path fill="currentColor"
d="M221 559l292 -3q3 0 10 -2v46q-9 0 -11 -2q-18 0 -46 -3l-368 1l-14 2l-13 2v-46q21 4 58 5h54v-202q0 -37 -29 -49q9 -9 13 -17q6 -9 16 -28q55 27 65 29q24 9 154 45q34 7 69 17l6 53q-33 -16 -91 -36q-66 -21 -165 -46v234zM497 -83l-385 1q-27 3 -37 5v-48q18 6 58 7
l798 -1q10 0 26 -6v48q-4 0 -7 -1q-4 0 -6 -1q-9 0 -45 -4h-362v110l259 -1q18 0 31 -4v46q-39 -4 -58 -5h-232v105l334 -3q1 0 11 -3v47q-9 0 -11 -2q-4 0 -8 -1q-40 0 -81 -3l-608 1q-27 3 -36 5v-47q18 6 58 6h301v-105h-249q-37 0 -58 5v-46q21 3 42 5h265v-110z
M219 718q33 -24 41 -32q18 -15 46 -45q15 -16 31 -37q13 18 30 32q-54 60 -116 112q-15 -16 -32 -30zM836 409v-62q0 -34 -26 -40q-15 0 -31 -3q-13 0 -39 4q10 -24 19 -49q43 6 72 13q42 12 43 72l1 328l4 39q-25 -1 -52 -5l-232 1q-15 3 -37 4q1 -27 5 -54q0 -120 -2 -158
l-12 -91q-7 -30 -16 -52q-21 -39 -51 -65q-18 -15 -50 -28q24 -12 49 -34q85 75 112 180h243zM597 445q3 45 4 94h235v-94h-239zM601 575v95h235v-95h-235z" />
  </g>

</svg>
