<?xml version="1.0" standalone="no"?>
<!DOCTYPE svg PUBLIC "-//W3C//DTD SVG 1.1//EN" "http://www.w3.org/Graphics/SVG/1.1/DTD/svg11.dtd" >
<svg xmlns="http://www.w3.org/2000/svg" xmlns:xlink="http://www.w3.org/1999/xlink" version="1.1" viewBox="-10 0 1034 1024">
  <g transform="matrix(1 0 0 -1 0 820)">
   <path fill="currentColor"
d="M91 -146q36 87 52 147q9 45 17 93q6 46 8 92h133v-259q0 -16 -8 -24q-3 -3 -18 -5q-13 -1 -19 -2q-22 0 -44 4q9 -18 17 -46q51 6 71 9q19 7 31 19q9 15 9 47l1 749l4 42q-18 -1 -26 -2q-21 -3 -30 -3h-104q-6 0 -29 3q-9 0 -26 2q1 -28 5 -58l-2 -422q-1 -7 -6 -107
q0 -10 -12 -85q-15 -73 -42 -128q-16 -31 -38 -53q19 -1 30 -6q21 -4 26 -7zM173 461v218h128v-218h-128zM170 222l3 203h128v-203h-131zM572 673l-177 3q-4 0 -9 2v-46q42 6 67 5h119v-83l-134 1q-15 3 -39 4q1 -27 5 -54q0 -63 -2 -89l-3 -15h46l-4 60v57h473v-51
q0 -42 -5 -61h48q0 3 -5 58q0 52 2 62q0 15 3 33q-18 -1 -27 -2q-19 -3 -28 -3h-105v83q162 0 174 -3q3 0 6 -2v46q-99 -4 -102 -5h-78q0 63 3 68q1 15 11 28h-57l4 -36l1 -60h-150q0 57 3 64q1 12 9 21q1 3 3 7h-57q0 -6 3 -13zM609 554v83h150v-83h-150zM507 -44l116 80
q1 1 4 3q36 27 89 72q0 -42 2 -73q0 -40 -9 -76q-15 -52 -63 -64q-18 0 -35 -3q-15 0 -44 4q15 -24 26 -54q45 9 71 15q46 15 68 59q24 46 24 126q0 36 -12 102l38 21q19 -45 35 -77q9 -18 14 -25q6 -12 13 -22q39 -63 100 -118q21 19 57 28q-36 18 -57 37q-28 24 -51 52
q-27 36 -42 64q-13 22 -38 81q69 40 82 46q16 6 40 8q-43 39 -49 47q-39 -34 -59 -49q-33 -22 -97 -60q-25 46 -78 109q12 9 25 18l235 -1q12 0 33 -5v47q-22 -1 -45 -5q-477 0 -486 3q-3 1 -7 2v-47q15 4 35 5l178 1q-31 -22 -68 -44q-33 -19 -59 -33q-64 -27 -97 -33
q21 -21 34 -41q54 27 96 52l99 55q18 -19 33 -40q-72 -52 -132 -88q-76 -42 -129 -54q21 -15 38 -37q81 42 133 73q48 30 109 75q10 -15 19 -31q1 -6 4 -10q-87 -84 -177 -141q-67 -42 -136 -59q24 -24 36 -41l26 16zM867 454q-7 -1 -15 -4q-24 0 -48 -3l-296 3q-4 1 -10 4
v-48q48 6 60 6q264 0 286 -3q10 0 23 -3v48z" />
  </g>

</svg>
