<?xml version="1.0" standalone="no"?>
<!DOCTYPE svg PUBLIC "-//W3C//DTD SVG 1.1//EN" "http://www.w3.org/Graphics/SVG/1.1/DTD/svg11.dtd" >
<svg xmlns="http://www.w3.org/2000/svg" xmlns:xlink="http://www.w3.org/1999/xlink" version="1.1" viewBox="-10 0 1034 1024">
  <g transform="matrix(1 0 0 -1 0 820)">
   <path fill="currentColor"
d="M487 -91l-5 -69h53q0 6 -4 15q-1 27 -3 53v355q60 -84 118 -143q54 -54 145 -116q24 -18 52 -33l90 -48q24 30 42 47q-88 21 -185 85q-151 105 -245 257l362 -1q21 0 40 -5v47q-24 -4 -68 -5h-351v182h242q25 0 54 -3q6 0 15 -3v47q-21 -4 -69 -5h-242v140q0 18 3 33
q3 19 17 39h-66q1 -36 5 -72v-140h-207q22 52 35 72q9 15 29 30q-33 9 -62 25q-4 -22 -21 -69q-18 -54 -74 -142q-24 -39 -62 -64q24 -6 54 -26q19 28 37 58l30 53q9 12 16 27h225v-182l-370 1q-13 1 -27 3q-3 1 -5 1v-47q4 3 53 6h318q-39 -57 -65 -85q-27 -33 -84 -87
q-57 -51 -85 -71q-93 -63 -171 -81q30 -21 59 -45q54 33 107 68q49 34 79 61q61 55 104 101q37 40 87 107v-371z" />
  </g>

</svg>
