<?xml version="1.0" standalone="no"?>
<!DOCTYPE svg PUBLIC "-//W3C//DTD SVG 1.1//EN" "http://www.w3.org/Graphics/SVG/1.1/DTD/svg11.dtd" >
<svg xmlns="http://www.w3.org/2000/svg" xmlns:xlink="http://www.w3.org/1999/xlink" version="1.1" viewBox="-10 0 1010 1000">
   <path fill="currentColor"
d="M452 -8q81 4 117 22q0 3 -5 12q-22 45 -22 113v84h232q63 0 135 -8q13 -2 16 -2v95q-2 0 -13 -1q-68 -9 -130 -9h-173q91 320 353 391q-58 40 -89 97q-262 -147 -331 -488v460q0 65 6 125q2 15 2 20h-96q0 -8 2 -32q6 -64 6 -113v-456q-30 233 -329 500q-28 -40 -95 -69
q257 -146 361 -435h-151q-67 0 -141 8q-13 2 -16 2v-95q3 0 20 2q74 8 137 8h214v-108q0 -43 -8 -107q-2 -14 -2 -16zM714 38q61 55 117 125l-87 50q-64 -90 -111 -127z" />
</svg>
