<?xml version="1.0" standalone="no"?>
<!DOCTYPE svg PUBLIC "-//W3C//DTD SVG 1.1//EN" "http://www.w3.org/Graphics/SVG/1.1/DTD/svg11.dtd" >
<svg xmlns="http://www.w3.org/2000/svg" xmlns:xlink="http://www.w3.org/1999/xlink" version="1.1" viewBox="-10 0 1034 1024">
  <g transform="matrix(1 0 0 -1 0 820)">
   <path fill="currentColor"
d="M492 672q-21 1 -52 2l-6 2t-6 1v-47q4 3 54 6h42l23 -140q13 -61 29 -118q15 -52 39 -110l51 -114q-70 -99 -156 -162q-91 -64 -157 -81q30 -22 49 -49q93 61 161 120q67 60 129 133q24 -33 47 -62q81 -90 97 -106l93 -77q27 30 50 49q-51 15 -125 75q-90 82 -133 156
q99 165 158 407l30 120q-60 -4 -67 -5h-350zM853 636q-13 -94 -61 -236q-18 -57 -40 -105q-21 -49 -55 -108q-112 219 -129 449h285zM266 -97q-1 -30 -3 -54l-3 -16h51q-3 6 -4 34q-1 18 -2 34v486q30 -27 67 -65q34 -36 56 -74q18 25 38 41l-142 132q-10 9 -19 17v62
l111 -1q18 0 33 -5v47q-24 -4 -68 -5h-76v170q0 33 19 65h-64q1 -6 2 -16q3 -34 3 -49v-170l-168 3q-3 1 -6 1q-3 1 -6 1v-47l58 7h117q-39 -156 -146 -293q-33 -43 -61 -63q30 -9 37 -12q9 -3 20 -12q12 13 26 36q18 27 53 84l38 65l39 79v-482z" />
  </g>

</svg>
