<?xml version="1.0" standalone="no"?>
<!DOCTYPE svg PUBLIC "-//W3C//DTD SVG 1.1//EN" "http://www.w3.org/Graphics/SVG/1.1/DTD/svg11.dtd" >
<svg xmlns="http://www.w3.org/2000/svg" xmlns:xlink="http://www.w3.org/1999/xlink" version="1.1" viewBox="-10 0 1010 1000">
   <path fill="currentColor"
d="M698 -8q90 52 96 72q-1 1 -11 4q-32 7 -51 20q-49 37 -123 99q41 22 117 62q103 54 137 73l-65 81q-103 -89 -256 -165q-111 83 -334 171q-25 -50 -75 -79q217 -53 331 -131q-141 -71 -250 -107l56 -76q196 96 264 135q55 -35 164 -159zM464 326q102 5 107 16q0 4 -5 12
q-12 19 -12 39v60h192q95 0 134 -2q42 -2 58 -8v91q-13 -6 -49 -8q-34 -2 -139 -2h-196v272q2 66 -31 85q-33 23 -136 24q1 -42 -38 -99q132 20 123 -44v-238h-216q-160 0 -194 10v-89q11 5 54 7q21 0 52 1h84h218q1 -110 -6 -127zM294 580q70 32 89 49q0 4 -11 9
q-21 10 -31 23q-89 119 -182 193q-37 -33 -88 -56q141 -71 223 -218zM671 588q126 85 240 190l-72 72q-80 -97 -228 -203z" />
</svg>
