<?xml version="1.0" standalone="no"?>
<!DOCTYPE svg PUBLIC "-//W3C//DTD SVG 1.1//EN" "http://www.w3.org/Graphics/SVG/1.1/DTD/svg11.dtd" >
<svg xmlns="http://www.w3.org/2000/svg" xmlns:xlink="http://www.w3.org/1999/xlink" version="1.1" viewBox="-10 0 1010 1000">
   <path fill="currentColor"
d="M202 -2q17 1 45 2q66 3 61 8q1 5 -5 16q-17 36 -17 82v105h37q78 -1 90 -4v77h-1q-20 -4 -91 -4h-35v470q0 87 1 110q0 31 3 37h-84q4 -17 4 -143v-361q-53 183 -131 282q-7 -14 -16 -33q-15 -36 -33 -48q102 -106 160 -312h-31q-61 0 -77 1q-21 0 -24 3v-79q19 4 105 4
h47v-107q-1 -66 -8 -106zM437 94q2 0 7 1q54 5 135 5h187q45 0 104 -7q23 -3 23 -1q-62 368 -183 553q110 91 260 123q0 1 -4 5q-29 32 -55 90q-157 -66 -254 -162q-77 75 -230 172q-41 -39 -87 -64q-10 -5 -11 -7q168 -53 282 -159q-100 -168 -143 -452l66 -20q-8 0 -26 1
q-59 3 -71 5v-83zM302 421l57 -40q46 60 97 151l-71 44q-21 -57 -83 -155zM556 171q12 235 105 409q80 -135 131 -409h-236z" />
</svg>
