<?xml version="1.0" standalone="no"?>
<!DOCTYPE svg PUBLIC "-//W3C//DTD SVG 1.1//EN" "http://www.w3.org/Graphics/SVG/1.1/DTD/svg11.dtd" >
<svg xmlns="http://www.w3.org/2000/svg" xmlns:xlink="http://www.w3.org/1999/xlink" version="1.1" viewBox="-10 0 1010 1000">
   <path fill="currentColor"
d="M425 -12q97 10 105 22q0 2 -6 8q-16 15 -20 32q0 3 -2 10q-5 36 -10 57l135 -4q92 -2 121 -7q-11 27 -16 125l-4 69q-7 44 54 42q46 1 58 -15q14 -13 25 -79q29 31 87 54q-26 75 -51 96q-24 24 -78 23h-79q-108 4 -97 -81l10 -165l-179 6q-47 206 -339 282
q-14 -45 -68 -82q276 -36 324 -196l-117 6q-102 3 -135 12v-90q31 10 137 10l129 -4q13 -58 16 -131zM468 375q104 1 109 14q0 4 -5 12q-14 22 -14 44v49h174q114 0 143 -1q40 -2 60 -8v91q-48 -10 -199 -10h-178v242q2 48 -32 67q-34 21 -137 34q-5 -59 -38 -103
q128 22 125 -34v-204h-216q-167 0 -200 8v-89q36 9 202 9h214q-1 -79 -8 -121zM313 612q79 34 92 53q0 4 -10 7q-27 9 -50 31q-65 62 -200 159q-20 -27 -80 -64q160 -63 248 -186zM694 619q122 84 221 179l-78 67q-97 -122 -208 -190z" />
</svg>
