<?xml version="1.0" standalone="no"?>
<!DOCTYPE svg PUBLIC "-//W3C//DTD SVG 1.1//EN" "http://www.w3.org/Graphics/SVG/1.1/DTD/svg11.dtd" >
<svg xmlns="http://www.w3.org/2000/svg" xmlns:xlink="http://www.w3.org/1999/xlink" version="1.1" viewBox="-10 0 1010 1000">
   <path fill="currentColor"
d="M198 -2q96 1 112 12q1 2 -4 8q-20 24 -20 70v119q93 0 123 -6v87q-31 -8 -123 -8v115l45 -30q74 71 109 133l-73 50q-41 -82 -81 -119v379q2 53 10 89h-102q0 -2 1 -7q11 -52 11 -161v-304q-36 118 -131 248q-17 -65 -45 -97q110 -102 174 -296q-105 0 -148 10v-91
q50 8 150 8v-109q0 -55 -8 -100zM296 814q157 -67 190 -182q21 -60 26 -163q6 -92 0 -298q-72 -1 -117 8v-91q47 10 157 10h206q110 0 171 -10v91q-27 -10 -163 -10v558q-5 67 51 59q56 7 60 -105q39 31 72 43l15 5q-22 143 -107 133h-59q-121 3 -115 -58v-633h-92
q3 214 -3 307q-6 103 -26 166q-28 113 -191 239q-26 -45 -75 -69z" />
</svg>
