<?xml version="1.0" standalone="no"?>
<!DOCTYPE svg PUBLIC "-//W3C//DTD SVG 1.1//EN" "http://www.w3.org/Graphics/SVG/1.1/DTD/svg11.dtd" >
<svg xmlns="http://www.w3.org/2000/svg" xmlns:xlink="http://www.w3.org/1999/xlink" version="1.1" viewBox="-10 0 1010 1000">
   <path fill="currentColor"
d="M240 0q102 0 105 8q1 4 -4 12q-14 24 -14 54v119q105 -1 155 -10v89q-50 -9 -155 -8v451q0 138 12 180h-103q12 -48 12 -174v-308q-59 185 -147 294q-31 -65 -57 -86q105 -73 186 -355q-113 -1 -155 8v-87q33 8 173 8v-117q0 -38 -8 -78zM798 2q5 3 16 9q82 43 73 47
q-3 6 -10 9q-20 10 -48 43q-111 128 -275 232q-27 -36 -72 -58q197 -89 316 -282zM831 268q78 53 82 68q-1 3 -10 7q-25 10 -48 32q-154 154 -317 244q-33 -43 -70 -63q234 -95 363 -288zM867 518q99 64 91 70q-3 5 -10 7q-22 7 -53 38q-172 171 -425 258q-26 -48 -71 -73
q286 -55 468 -300zM399 360q29 29 87 134l-77 40q-27 -82 -72 -143z" />
</svg>
