<?xml version="1.0" standalone="no"?>
<!DOCTYPE svg PUBLIC "-//W3C//DTD SVG 1.1//EN" "http://www.w3.org/Graphics/SVG/1.1/DTD/svg11.dtd" >
<svg xmlns="http://www.w3.org/2000/svg" xmlns:xlink="http://www.w3.org/1999/xlink" version="1.1" viewBox="-10 0 1034 1024">
  <g transform="matrix(1 0 0 -1 0 820)">
   <path fill="currentColor"
d="M796 515l-290 1q-12 3 -28 3q-3 1 -5 1v-47q4 3 54 6h269v-527q0 -34 -13 -46q-21 -10 -53 -11q-39 0 -80 12q4 -10 12 -33l6 -24q6 1 14 1q27 0 53 3q49 1 73 19q27 21 27 68v538q99 0 114 -2q13 0 26 -4v47q-21 -4 -68 -5h-72v190q0 15 3 34q1 16 13 33h-60
q1 -33 5 -67v-190zM571 329l-18 21q-12 -15 -35 -34q22 -18 42 -40q16 -18 36 -43q39 -51 62 -96q15 18 37 33q-19 27 -83 110zM259 -90l-4 -60q0 -4 -2 -8h50q-6 24 -6 68v474q33 -28 69 -70q36 -45 56 -76q6 12 12 18q3 4 8 9l12 15q-91 100 -114 120q-18 18 -43 38v57
q96 0 111 -2q13 0 29 -5v48q-16 -6 -61 -6h-79v173q0 13 4 30q3 18 16 35h-64q6 -63 6 -76v-162l-170 4q-4 1 -7 2v-48q3 1 34 6l136 1q-25 -73 -56 -140q-22 -48 -46 -85q-15 -25 -55 -76q-25 -30 -52 -48q27 -7 49 -22q51 63 92 129q37 63 75 151v-494z" />
  </g>

</svg>
