<?xml version="1.0" standalone="no"?>
<!DOCTYPE svg PUBLIC "-//W3C//DTD SVG 1.1//EN" "http://www.w3.org/Graphics/SVG/1.1/DTD/svg11.dtd" >
<svg xmlns="http://www.w3.org/2000/svg" xmlns:xlink="http://www.w3.org/1999/xlink" version="1.1" viewBox="-10 0 1010 1000">
   <path fill="currentColor"
d="M585 -8q12 3 34 9q82 21 79 25q-1 3 -6 6q-19 7 -35 38q-5 9 -20 44q-15 36 -20 45h127q107 -1 171 -12q-9 114 -14 242q-1 31 -3 87q-9 342 -23 338q-32 58 -187 69q-5 -62 -35 -105q68 7 95 5q29 -2 38 -13q27 -43 39 -539h-238q-34 76 -109 194q-47 -27 -83 -36
q128 -123 190 -397zM216 -8q102 0 107 16q1 3 -7 12q-20 22 -20 42v123q95 0 142 -6v85q-16 -2 -47 -3q-15 -1 -36 -1h-59v478q-1 144 10 165h-94q8 -55 8 -165v-327q-46 128 -135 274q-32 -60 -59 -79q104 -97 190 -348q-124 0 -158 12v-91q38 9 162 10v-93q0 -55 -1 -72
q0 -22 -3 -32zM601 385q46 60 109 193l-89 34q-23 -88 -93 -191zM300 423l55 -40q66 82 105 145l-77 48q-19 -64 -83 -153z" />
</svg>
