<?xml version="1.0" standalone="no"?>
<!DOCTYPE svg PUBLIC "-//W3C//DTD SVG 1.1//EN" "http://www.w3.org/Graphics/SVG/1.1/DTD/svg11.dtd" >
<svg xmlns="http://www.w3.org/2000/svg" xmlns:xlink="http://www.w3.org/1999/xlink" version="1.1" viewBox="-10 0 1010 1000">
   <path fill="currentColor"
d="M202 8q96 3 102 14q1 2 -4 12q-16 26 -16 50v123q67 0 105 -8v89q-40 -8 -105 -8v135l53 -30q51 52 113 145l-83 46q-21 -76 -83 -135v264q0 146 8 178h-96q1 -5 2 -13q8 -46 8 -167v-302q-31 126 -115 264q-17 -42 -65 -85q109 -93 161 -298q-90 -4 -137 8v-93
q28 10 156 10v-127q0 -39 -4 -72zM667 14q110 8 117 16q1 4 -7 13q-19 23 -19 51v3q-2 46 -2 110q125 -1 173 -10v95q-38 -10 -175 -10q-13 266 -71 379q118 95 265 105q-65 64 -73 103q-154 -69 -238 -146q-108 102 -258 162q-15 -36 -48 -60q-16 -12 -27 -21
q182 -28 279 -137q-80 -104 -141 -304l92 -21q17 136 93 264q47 -143 46 -326h-102q-94 0 -150 6v-87q41 9 148 10h106q3 -119 -8 -195z" />
</svg>
