<?xml version="1.0" standalone="no"?>
<!DOCTYPE svg PUBLIC "-//W3C//DTD SVG 1.1//EN" "http://www.w3.org/Graphics/SVG/1.1/DTD/svg11.dtd" >
<svg xmlns="http://www.w3.org/2000/svg" xmlns:xlink="http://www.w3.org/1999/xlink" version="1.1" viewBox="-10 0 1010 1000">
   <path fill="currentColor"
d="M343 -15q103 15 115 25q0 4 -15 15q-38 30 -62 65h274q58 0 123 -6q21 -1 30 -2q-84 145 -213 242q141 55 363 67q-18 27 -33 65q-7 19 -12 32q-266 -44 -393 -117q-91 54 -425 137q-25 -50 -59 -89q211 -14 416 -95q-88 -82 -131 -155q-49 71 -117 155q-35 -21 -85 -38
q141 -129 224 -301zM665 155h-288q62 82 141 133q83 -55 147 -133zM460 429q94 1 103 10q0 3 -4 11q-15 24 -15 56v36h182q110 0 129 -8v85q-39 -7 -121 -7h-190v230q1 55 -159 71q-6 -48 -36 -93q72 9 92 -1q24 -9 23 -47v-159h-214q-43 0 -101 6q-15 1 -22 2v-89q8 1 25 2
q55 6 100 6h212v-28q0 -41 -1 -53q0 -16 -3 -30zM306 639q73 49 85 70q-1 2 -13 6q-35 10 -61 27q-28 19 -123 82q-40 26 -63 41q-18 -32 -75 -63q148 -56 250 -163zM665 647q135 75 242 159l-74 71q-115 -109 -228 -166z" />
</svg>
