<?xml version="1.0" standalone="no"?>
<!DOCTYPE svg PUBLIC "-//W3C//DTD SVG 1.1//EN" "http://www.w3.org/Graphics/SVG/1.1/DTD/svg11.dtd" >
<svg xmlns="http://www.w3.org/2000/svg" xmlns:xlink="http://www.w3.org/1999/xlink" version="1.1" viewBox="-10 0 1034 1024">
  <g transform="matrix(1 0 0 -1 0 820)">
   <path fill="currentColor"
d="M331 -135q7 -7 11 -12q96 60 140 113q42 51 60 124q7 39 11 92q3 60 3 178h206v-423q0 -48 22 -62q18 -12 66 -12q72 0 98 33q18 27 33 105q-21 6 -46 21q-3 -60 -8 -82q-12 -39 -62 -40q-45 0 -56 9q-7 7 -8 51l1 393q0 18 4 47q-33 -1 -65 -5l-183 1q-15 3 -47 4
q3 -24 4 -41l2 -97q0 -70 -8 -131q-6 -48 -21 -79q-33 -72 -110 -120q-43 -25 -83 -36q9 -6 18 -15t18 -16zM420 512q18 6 63 6l443 -1q18 0 33 -5v47q-21 -4 -69 -5l-432 1q-16 1 -33 3q-3 1 -5 1v-47zM622 670q46 -42 70 -77q21 24 34 34q-13 15 -24 24l-50 48
q-24 21 -44 38q-9 9 -22 20q-10 -15 -33 -34q3 -1 7 -4q3 -1 5 -3q18 -12 57 -46zM225 -97q0 -24 -5 -69h48q-4 45 -5 69v459q73 -52 118 -115q18 27 36 44q-1 1 -104 87l-50 37v69q87 0 104 -2q9 0 22 -4v47q-19 -4 -69 -5h-57v174q0 15 3 28q3 18 17 38h-63q1 -33 5 -66
v-174l-150 4q-3 1 -5 1v-47q7 3 26 4q12 1 129 2v-9q-16 -48 -32 -81q-16 -36 -49 -93q-36 -66 -58 -97q-19 -27 -54 -58q30 -7 41 -13q3 0 14 -6q19 27 68 110q40 72 70 131v-465z" />
  </g>

</svg>
