<?xml version="1.0" standalone="no"?>
<!DOCTYPE svg PUBLIC "-//W3C//DTD SVG 1.1//EN" "http://www.w3.org/Graphics/SVG/1.1/DTD/svg11.dtd" >
<svg xmlns="http://www.w3.org/2000/svg" xmlns:xlink="http://www.w3.org/1999/xlink" version="1.1" viewBox="-10 0 1034 1024">
  <g transform="matrix(1 0 0 -1 0 820)">
   <path fill="currentColor"
d="M135 -59q114 60 196 115q100 72 172 165l-3 -360q0 -3 -2 -7h49q0 1 -1 5q-3 7 -4 36v325l21 -27q75 -91 156 -151q75 -55 211 -116q15 27 39 51q-58 3 -116 32q-82 39 -144 91q-78 67 -117 121l325 -1l35 -4v46q-6 -1 -13 -3q-12 0 -51 -2h-346v39q0 37 13 67h-57l5 -83
v-23h-359q-39 0 -65 5v-46q15 3 36 4l339 1q-75 -90 -179 -157q-135 -82 -204 -89q24 -24 40 -46zM770 387q30 -1 61 -5q-3 33 -5 65l1 226q0 19 4 48q-30 -1 -59 -5l-500 1q-19 3 -47 4q1 -33 5 -67l-1 -231q-3 -15 -4 -41q33 3 66 5h479zM267 564v116h521v-116h-521z
M267 423v105h521v-105h-521z" />
  </g>

</svg>
