<?xml version="1.0" standalone="no"?>
<!DOCTYPE svg PUBLIC "-//W3C//DTD SVG 1.1//EN" "http://www.w3.org/Graphics/SVG/1.1/DTD/svg11.dtd" >
<svg xmlns="http://www.w3.org/2000/svg" xmlns:xlink="http://www.w3.org/1999/xlink" version="1.1" viewBox="-10 0 1010 1000">
   <path fill="currentColor"
d="M563 -6q109 18 110 32q-1 5 -11 14q-19 17 -29 38q-4 7 -18 35q-19 37 -26 50h139q137 -1 191 -10v89q-53 -12 -191 -9v232h76q94 0 150 -8v85q-35 -9 -142 -8h-84v187q0 148 10 180h-105q12 -39 12 -174v-191h-50q-87 0 -139 7q-9 1 -12 1v-87q44 8 149 8h52v-230h-85
q-8 14 -21 38q-26 50 -67 114q-19 -21 -79 -35q117 -124 170 -358zM440 528l-69 40q-38 -87 -73 -121v262q-1 176 10 190h-104q12 -42 12 -182v-270q-11 22 -19 40q-60 130 -84 158q-7 11 -18 28q-4 -5 -14 -17q-37 -46 -53 -58q118 -120 188 -324q-124 0 -162 12v-93
q45 12 162 12v-125q0 -21 -3 -46q-2 -15 -3 -26q66 0 78 1q19 2 24 9q3 3 -2 15q-12 26 -12 51v119q83 -1 125 -10v89q-42 -12 -125 -8v141l51 -24q47 55 91 137z" />
</svg>
