<?xml version="1.0" standalone="no"?>
<!DOCTYPE svg PUBLIC "-//W3C//DTD SVG 1.1//EN" "http://www.w3.org/Graphics/SVG/1.1/DTD/svg11.dtd" >
<svg xmlns="http://www.w3.org/2000/svg" xmlns:xlink="http://www.w3.org/1999/xlink" version="1.1" viewBox="-10 0 1010 1000">
   <path fill="currentColor"
d="M444 -12q106 -2 110 6q1 3 -2 9q-16 28 -16 77v43h232q82 0 159 -10v90q-55 -10 -161 -10h-141q120 171 325 202q-40 51 -59 93q-248 -102 -333 -295h-22v103q0 101 8 125h-94q8 -33 8 -121v-107h-2q-78 179 -355 301q-30 -49 -69 -75q202 -40 357 -226h-169
q-110 1 -147 8v-88q38 7 143 8h242v-47q0 -69 -14 -86zM794 445q-4 58 -4 115v169q-1 141 12 178h-110q10 -25 10 -73h-410q0 55 6 73h-100q10 -53 10 -165v-160q-1 -78 -6 -137q64 5 149 6h296q78 3 147 -6zM702 520h-410v92h410v-92zM702 671h-410v93h410v-93z" />
</svg>
