<?xml version="1.0" standalone="no"?>
<!DOCTYPE svg PUBLIC "-//W3C//DTD SVG 1.1//EN" "http://www.w3.org/Graphics/SVG/1.1/DTD/svg11.dtd" >
<svg xmlns="http://www.w3.org/2000/svg" xmlns:xlink="http://www.w3.org/1999/xlink" version="1.1" viewBox="-10 0 1010 1000">
   <path fill="currentColor"
d="M187 -6q100 -1 99 12q1 4 -4 10q-16 20 -16 62v123h42q19 0 73 -6q13 -1 20 -2v87q-8 -1 -25 -3q-39 -5 -64 -5h-46v461q0 35 5 105q2 30 3 43h-91q0 -7 2 -23q5 -79 5 -123v-330q-22 90 -105 254l-47 -87q100 -131 139 -300h-26q-43 0 -99 8v-87q38 8 103 8h35v-125
q0 -15 -2 -49q-1 -22 -1 -33zM863 16q57 89 50 103q-3 4 -32 -3q-41 -9 -62 -8q-41 2 -110 9q-92 10 -177 16v127h240q61 0 109 -6q-12 43 -22 104q-40 235 -93 317q67 60 216 95q-48 32 -69 101q-113 -53 -197 -134q-58 67 -204 162q-32 -49 -68 -69q-8 -5 -9 -8
q153 -56 232 -149q-69 -98 -117 -325l51 -20h-67q1 214 -35 325q-37 125 -132 228q-31 -35 -85 -53q99 -77 134 -198q37 -113 36 -356v-119q0 -18 -6 -91q213 7 417 -48zM321 391q46 50 94 129l-64 46q-30 -78 -77 -137zM627 328q28 179 83 282q42 -66 70 -282h-153z" />
</svg>
