<?xml version="1.0" standalone="no"?>
<!DOCTYPE svg PUBLIC "-//W3C//DTD SVG 1.1//EN" "http://www.w3.org/Graphics/SVG/1.1/DTD/svg11.dtd" >
<svg xmlns="http://www.w3.org/2000/svg" xmlns:xlink="http://www.w3.org/1999/xlink" version="1.1" viewBox="-10 0 1034 1024">
  <g transform="matrix(1 0 0 -1 0 820)">
   <path fill="currentColor"
d="M867 300q0 -85 -3 -128q0 -33 -5 -74q-6 -90 -14 -124q-9 -33 -28 -43q-27 -15 -68 -15q-25 0 -52 8q12 -28 18 -55q123 1 152 51q15 21 23 78l8 83l8 129l10 131q-36 -1 -71 -5h-200l4 180l281 -1q25 0 42 -4v46q-4 0 -9 -2l-164 -3l-328 1l-33 4v-46q6 1 66 5h103
q-3 -51 -3 -161q0 -22 -11 -112q-10 -64 -28 -108q-34 -90 -119 -168q-60 -54 -117 -71q24 -10 50 -36q45 27 110 91q87 87 128 205q9 27 13 55q6 34 13 89h224zM775 631q-3 4 -13 14l-95 99l-44 43q-15 -18 -32 -31q51 -48 82 -81l69 -78q16 18 33 34zM226 -86
q0 -27 -3 -53q0 -3 -3 -11h50q-1 4 -2 7t-4 57v483l84 -86q22 -24 43 -55q12 15 34 38q-34 37 -70 73l-91 81v67h58q27 0 51 -3q3 0 15 -2v46q-4 0 -9 -2l-115 -3v157q0 37 13 66h-57q6 -31 6 -66v-157q-150 3 -160 5v-46q-3 0 9 1q72 3 113 4h37q-9 -45 -24 -85
q-15 -39 -41 -94q-52 -112 -118 -190q22 -3 53 -16q15 21 29 46q15 27 37 72q36 72 65 132v-466z" />
  </g>

</svg>
