<?xml version="1.0" standalone="no"?>
<!DOCTYPE svg PUBLIC "-//W3C//DTD SVG 1.1//EN" "http://www.w3.org/Graphics/SVG/1.1/DTD/svg11.dtd" >
<svg xmlns="http://www.w3.org/2000/svg" xmlns:xlink="http://www.w3.org/1999/xlink" version="1.1" viewBox="-10 0 1010 1000">
   <path fill="currentColor"
d="M540 -4q97 19 99 34q-1 6 -10 14q-20 15 -28 38q-19 52 -32 79q265 2 356 -4q6 -1 6 8q-6 46 -10 141q-13 414 -26 518q-8 54 -171 75q-5 -51 -45 -101q135 13 134 -42q9 -50 21 -397q4 -90 5 -124h-301q-49 88 -92 144l-77 -29q103 -131 171 -354zM185 0q104 3 103 18
q0 7 -4 19q-10 28 -10 59v107q21 -1 54 -2q45 -2 57 -2v77q-2 0 -6 -1q-24 -3 -107 -3v151l57 -32q47 52 92 125l-68 42q-44 -83 -81 -121v290q0 73 4 158h-91q6 -82 7 -164v-286q-48 127 -115 226q-17 -42 -59 -69q99 -104 167 -320q-68 0 -90 1q-27 1 -39 3v-77
q49 4 138 4v-101q0 -52 -9 -102zM565 302q93 42 92 48q-1 2 -6 6q-23 18 -42 55q-37 74 -95 202l178 -11q-14 -31 -65 -123l75 -24q83 176 100 226l-78 30q-2 -6 -5 -19q-5 -21 -9 -33q-186 15 -279 52l-32 -86q49 -21 83 -93q56 -129 83 -230z" />
</svg>
