<?xml version="1.0" standalone="no"?>
<!DOCTYPE svg PUBLIC "-//W3C//DTD SVG 1.1//EN" "http://www.w3.org/Graphics/SVG/1.1/DTD/svg11.dtd" >
<svg xmlns="http://www.w3.org/2000/svg" xmlns:xlink="http://www.w3.org/1999/xlink" version="1.1" viewBox="-10 0 1010 1000">
   <path fill="currentColor"
d="M671 -10q40 68 69 137l-83 30q-17 -60 -70 -131zM192 4q96 -3 104 12q1 6 -5 18q-9 20 -9 40v133q74 0 107 -6v83q-39 -6 -107 -6v139l57 -32q24 27 101 139l-77 46q-38 -92 -81 -133v313q0 121 8 157h-98q8 -79 8 -153v-299q-35 115 -113 240q-27 -46 -61 -78
q119 -123 166 -337q-81 0 -123 6v-85q42 6 131 6v-111q1 -59 -8 -92zM944 163v93q-64 -9 -144 -8h-183q-3 54 -6 131h167q52 0 98 -8q14 -3 17 -2q-16 164 -23 268q-10 145 -17 167q-17 63 -176 85q-2 -61 -46 -105q97 16 131 -22q25 -90 32 -307h-185q-9 295 -200 452
q-43 -43 -96 -63q128 -56 173 -182q45 -111 50 -414q-85 0 -121 8v-91q56 8 158 8h217q98 -1 154 -10z" />
</svg>
