<?xml version="1.0" standalone="no"?>
<!DOCTYPE svg PUBLIC "-//W3C//DTD SVG 1.1//EN" "http://www.w3.org/Graphics/SVG/1.1/DTD/svg11.dtd" >
<svg xmlns="http://www.w3.org/2000/svg" xmlns:xlink="http://www.w3.org/1999/xlink" version="1.1" viewBox="-10 0 1034 1024">
  <g transform="matrix(1 0 0 -1 0 820)">
   <path fill="currentColor"
d="M468 761q3 -27 3 -49l2 -129q0 -60 -7 -172q-1 -39 -11 -140q-13 -72 -33 -150q-27 -93 -64 -160q-24 -45 -60 -81q13 -6 23 -9l26 -10q3 -1 6 -3q43 69 87 191q31 94 57 237q75 -73 121 -168q10 19 30 35q4 3 10 8q-13 13 -34 41q-9 12 -30 37l-56 65q-15 15 -35 38
l9 333q1 60 15 86h-59zM728 766q6 -39 6 -115l-2 -146l-6 -122q-12 -132 -46 -231q-34 -102 -97 -203q-30 -48 -68 -84q30 0 45 -4q15 -1 22 -3q18 30 46 81q27 51 48 93q22 51 41 104q18 55 38 131q27 -81 35 -110q31 -84 38 -97q4 -12 53 -108q21 -39 52 -89q27 24 53 34
q-22 13 -52 54q-30 43 -51 87q-24 49 -52 130q-46 124 -62 260l4 204q0 69 4 91q0 15 12 43h-61zM215 -99q-3 -30 -3 -52q0 -4 -3 -16h49q-3 33 -5 68v481q25 -18 66 -63q36 -43 48 -67q13 25 31 47l-35 35l-78 72q-12 13 -32 30v70q118 0 135 -2q9 0 23 -4v47
q-24 -4 -69 -5h-89v153q0 12 3 28q3 18 17 38h-64q3 -15 4 -30l2 -189l-149 4q-3 1 -5 1v-47q18 6 64 6h90v-16q0 -4 -13 -47q-7 -31 -14 -50q-6 -18 -16 -43q-45 -112 -97 -195q-16 -22 -32 -37q25 -3 55 -13q30 54 52 100l65 147v-451z" />
  </g>

</svg>
