<?xml version="1.0" standalone="no"?>
<!DOCTYPE svg PUBLIC "-//W3C//DTD SVG 1.1//EN" "http://www.w3.org/Graphics/SVG/1.1/DTD/svg11.dtd" >
<svg xmlns="http://www.w3.org/2000/svg" xmlns:xlink="http://www.w3.org/1999/xlink" version="1.1" viewBox="-10 0 1010 1000">
   <path fill="currentColor"
d="M214 -2q84 1 103 12q2 3 -5 12q-18 20 -18 42v145q66 -3 133 -12v91q-29 -8 -135 -8v141l61 -36q72 95 97 151l-77 36q-29 -79 -81 -131v309q0 130 8 149h-94q8 -25 8 -147v-339q-45 169 -131 274q-21 -50 -55 -81q106 -99 172 -326q-100 0 -144 8v-95q2 0 6 1
q61 11 154 13v-135q0 -37 -3 -64q-1 -10 1 -10zM560 2q100 19 115 32q2 4 -6 9q-20 12 -30 35q-33 84 -50 119h234q111 0 131 -8v85q-21 -8 -115 -8q-5 285 -109 419q92 78 230 101q-38 35 -61 105q-155 -74 -226 -149q-131 97 -280 145q-28 -58 -74 -87q172 -22 304 -115
q-89 -161 -111 -308q-9 17 -29 60l-3 6q-36 -19 -91 -28q122 -125 171 -413zM569 266q-6 12 -18 37q-25 53 -35 68l85 -4q10 151 80 254q62 -102 79 -355h-191z" />
</svg>
