<?xml version="1.0" standalone="no"?>
<!DOCTYPE svg PUBLIC "-//W3C//DTD SVG 1.1//EN" "http://www.w3.org/Graphics/SVG/1.1/DTD/svg11.dtd" >
<svg xmlns="http://www.w3.org/2000/svg" xmlns:xlink="http://www.w3.org/1999/xlink" version="1.1" viewBox="-10 0 1010 1000">
   <path fill="currentColor"
d="M210 10q86 4 98 16q0 2 -6 8q-16 16 -16 30v147h27q67 0 100 -8v81q-28 -6 -98 -6h-29v137l69 -32q70 98 89 145l-81 42q-30 -83 -77 -135v311q0 101 8 133h-92q10 -24 10 -133v-297q-46 119 -109 216q-25 -40 -67 -79q92 -73 174 -308h-23q-86 0 -116 8v-83q23 8 116 8
h25v-133q0 -31 -4 -58q-3 -12 2 -10zM601 14q90 4 103 14q2 2 -7 12q-18 20 -18 34v91h97q93 0 131 -10v85q-35 -6 -131 -7h-97v136h79q12 -1 33 -1q52 -2 64 -5q-49 210 -163 330q110 62 256 83q-45 39 -67 99q-164 -59 -248 -133q-107 76 -242 137q-29 -45 -85 -77
q144 -27 273 -115q-64 -87 -111 -224l58 -26q-72 1 -99 6v-80q34 8 121 8h57v-136h-49q-86 0 -127 7v-85q24 9 121 10h55v-87q0 -32 -5 -57q-2 -9 1 -9zM550 437q31 136 89 202q82 -80 109 -202h-198z" />
</svg>
