<?xml version="1.0" standalone="no"?>
<!DOCTYPE svg PUBLIC "-//W3C//DTD SVG 1.1//EN" "http://www.w3.org/Graphics/SVG/1.1/DTD/svg11.dtd" >
<svg xmlns="http://www.w3.org/2000/svg" xmlns:xlink="http://www.w3.org/1999/xlink" version="1.1" viewBox="-10 0 1034 1024">
  <g transform="matrix(1 0 0 -1 0 820)">
   <path fill="currentColor"
d="M502 764q0 -18 5 -79v-329q-54 0 -85 2q-6 1 -11 1q-3 0 -13 2v-47q1 0 3 1q-1 0 10 1q37 3 55 4h41v-389q0 -19 -7 -30q-4 -6 -17 -15q21 -24 38 -48q30 31 64 60q22 19 47 38q19 15 39 33q22 21 35 28q-1 13 -2 16q-3 6 -4 19q0 12 -3 23q-36 -51 -152 -143v408h106
q13 -63 38 -127q42 -114 141 -216q13 -15 42 -38q25 -21 63 -48q18 18 51 42q-42 10 -89 42q-102 69 -158 199q-33 76 -48 145l242 -3q3 0 11 -3v48l-66 -6h-333v330q0 21 2 41q3 22 14 38h-59zM716 490q63 99 84 127q24 37 36 48q15 19 47 34q-24 7 -63 32q-3 -10 -13 -28
q-4 -9 -47 -80l-110 -159q-13 -13 -27 -28q36 -21 38 -23q15 24 55 77zM221 357q4 13 11 25v-489q0 -42 -5 -70h48q-4 30 -5 70v463q48 -45 90 -96q10 -15 21 -29q4 4 10 9q10 15 19 20q3 1 5 5l-75 76q-16 18 -70 71v81q81 0 139 -4q4 0 11 -2v47q-7 -1 -14 -3
q-84 -3 -136 -3v157q0 15 3 32q1 21 14 39h-60q1 -36 5 -73v-155h-109q-45 0 -67 6v-47q66 6 88 6h85q-45 -145 -95 -238q-60 -108 -107 -145q22 -4 49 -14q3 -1 8 -3l68 115q27 51 46 95q10 27 23 54v0z" />
  </g>

</svg>
