<?xml version="1.0" standalone="no"?>
<!DOCTYPE svg PUBLIC "-//W3C//DTD SVG 1.1//EN" "http://www.w3.org/Graphics/SVG/1.1/DTD/svg11.dtd" >
<svg xmlns="http://www.w3.org/2000/svg" xmlns:xlink="http://www.w3.org/1999/xlink" version="1.1" viewBox="-10 0 1034 1024">
  <g transform="matrix(1 0 0 -1 0 820)">
   <path fill="currentColor"
d="M456 -37l-5 -62q30 3 62 5q426 0 458 -3q3 0 13 -2v46q-24 -4 -69 -5h-421v727h394q25 0 53 -3q6 0 16 -3v47q-21 -4 -69 -5l-393 1q-3 0 -44 4q1 -31 5 -65v-682zM775 335q12 25 26 51q16 34 33 70q30 64 59 93q-22 9 -30 11q-15 6 -30 17q-3 -19 -11 -40
q-9 -25 -25 -63q-22 -51 -38 -83q-12 -24 -21 -40q-15 21 -66 78l-48 57q-25 27 -36 39q-4 -3 -14 -13q-1 -1 -5 -4q-7 -6 -24 -13q36 -25 72 -62q64 -69 98 -121q-21 -39 -96 -133q-60 -66 -106 -88q24 -12 34 -19q9 -6 18 -15q75 73 177 217l39 -52l40 -60q40 -66 53 -102
q22 25 45 38q-13 21 -56 82l-76 108q-9 12 -20 27q3 10 8 20zM243 496q-6 -25 -33 -88q-27 -61 -50 -102q-66 -117 -126 -157q33 -9 58 -25q79 114 122 196q18 42 27 55q1 4 6 9v-473q0 -22 -4 -52q0 -3 -2 -15h49q-3 9 -6 67v444q57 -42 100 -114q12 16 33 34
q-45 67 -133 142v79q84 0 100 -2q12 -1 27 -5v48q-27 -6 -69 -6h-58v173q0 15 4 27q3 18 17 38h-64q6 -63 6 -76v-162l-134 1q-36 3 -41 4q-3 1 -5 1v-48q13 6 40 6z" />
  </g>

</svg>
