<?xml version="1.0" standalone="no"?>
<!DOCTYPE svg PUBLIC "-//W3C//DTD SVG 1.1//EN" "http://www.w3.org/Graphics/SVG/1.1/DTD/svg11.dtd" >
<svg xmlns="http://www.w3.org/2000/svg" xmlns:xlink="http://www.w3.org/1999/xlink" version="1.1" viewBox="-10 0 1010 1000">
   <path fill="currentColor"
d="M187 -13q98 6 113 17q1 1 -7 8q-23 18 -23 34v173q108 1 139 -10v85q-21 -5 -50 -7q-15 0 -34 -1h-55v133l49 -32q1 1 5 8q40 63 89 135l-76 38q-17 -54 -67 -129v303q0 87 2 119q1 33 6 48h-91q9 -35 9 -163v-309q-45 135 -125 254l-6 -12q-21 -45 -43 -71
q87 -83 165 -322q-107 0 -143 10v-83q14 9 152 8v-135q0 -76 -8 -96q-1 -2 -1 -3zM429 58q22 5 65 7q20 0 49 1h76h163q68 0 98 -2q28 -1 57 -6v93q-23 -10 -149 -10h-274v627h276q107 0 152 -12v98q-39 -10 -150 -10h-197q-76 0 -110 2q-38 1 -56 6q5 -17 7 -54
q2 -33 2 -115v-446q0 -101 -2 -128q-1 -31 -7 -51zM587 229q80 98 125 172q47 -92 72 -214q86 35 99 50q-1 5 -10 11q-21 14 -32 42q-55 127 -79 169q67 90 145 204l-76 52q-42 -88 -109 -183q-40 81 -137 191q-31 -31 -65 -52q91 -63 155 -200q-95 -151 -153 -193z" />
</svg>
