<?xml version="1.0" standalone="no"?>
<!DOCTYPE svg PUBLIC "-//W3C//DTD SVG 1.1//EN" "http://www.w3.org/Graphics/SVG/1.1/DTD/svg11.dtd" >
<svg xmlns="http://www.w3.org/2000/svg" xmlns:xlink="http://www.w3.org/1999/xlink" version="1.1" viewBox="-10 0 1010 1000">
   <path fill="currentColor"
d="M198 -2q94 0 102 8q1 4 -4 8q-16 17 -16 62v127q101 0 137 -6v83q-42 -9 -137 -8v115l35 -16l100 151l-68 46q-23 -58 -67 -127v305q0 102 8 147h-96q10 -52 10 -145v-325q-52 135 -135 240q-15 -44 -47 -81q117 -112 178 -310q-93 0 -135 8v-81q48 6 139 6v-99
q0 -26 -3 -72q-1 -27 -1 -36zM480 2q101 3 101 12q2 5 -3 12q-18 21 -18 66v279h248q63 0 140 -8v88q-43 -9 -133 -8h-109q63 261 246 349q-61 24 -95 68q-191 -155 -216 -413h-81v307q23 -18 77 -65q4 37 24 79q-70 46 -165 131q-4 -6 -13 -21q-21 -35 -37 -56
q37 -27 38 -48v-327q-58 0 -103 8v-92q50 10 103 10v-252q0 -65 -4 -119zM784 36q101 43 101 50q0 3 -7 8q-21 13 -39 37q-21 29 -68 95q-54 78 -73 102q-50 -30 -87 -36q134 -113 173 -256z" />
</svg>
