<?xml version="1.0" standalone="no"?>
<!DOCTYPE svg PUBLIC "-//W3C//DTD SVG 1.1//EN" "http://www.w3.org/Graphics/SVG/1.1/DTD/svg11.dtd" >
<svg xmlns="http://www.w3.org/2000/svg" xmlns:xlink="http://www.w3.org/1999/xlink" version="1.1" viewBox="-10 0 1034 1024">
  <g transform="matrix(1 0 0 -1 0 820)">
   <path fill="currentColor"
d="M105 -138q6 -4 19 -19q78 46 156 102q75 54 198 176v-226q0 -37 -5 -65h49q-3 7 -4 27q0 18 -2 38v226q87 -109 199 -180q39 -24 78 -41q45 -19 121 -48q15 21 36 48q-48 3 -115 27q-90 30 -184 107q-21 19 -44 41q-21 21 -49 53h173q18 0 51 -3q6 0 12 -4v48q-3 0 -8 -2
l-55 -4h-215v51q0 27 13 64h-56q1 -31 5 -64v-51l-336 1q-12 1 -19 3l-13 2v-48q9 6 40 6l279 1q-106 -109 -215 -182q-45 -27 -77 -44q-28 -12 -55 -17zM208 300q30 3 62 5h605l-9 -145q-6 -66 -26 -86q-12 -10 -45 -11q-18 0 -55 4q9 -19 16 -49q63 6 88 14q24 9 38 32
q7 15 13 45q6 36 11 99q6 84 12 138q-49 -4 -65 -5h-602v263h492l-11 -104q-6 -22 -15 -35q-19 -15 -57 -15q-6 0 -37 4q9 -24 16 -49q33 3 55 9q51 9 65 34q6 10 11 40q10 76 19 157q-30 -1 -60 -5h-330q7 12 16 27q31 57 64 80q-21 9 -60 31q-6 -30 -17 -54
q-12 -30 -41 -84q-93 0 -120 2q-6 3 -33 3l6 -64l-1 -243zM382 541q0 -3 -2 -7q0 -6 -14 -31q16 -4 43 -17l48 -22q51 -24 76 -42q0 7 17 42q-120 57 -168 77v0z" />
  </g>

</svg>
