<?xml version="1.0" standalone="no"?>
<!DOCTYPE svg PUBLIC "-//W3C//DTD SVG 1.1//EN" "http://www.w3.org/Graphics/SVG/1.1/DTD/svg11.dtd" >
<svg xmlns="http://www.w3.org/2000/svg" xmlns:xlink="http://www.w3.org/1999/xlink" version="1.1" viewBox="-10 0 1034 1024">
  <g transform="matrix(1 0 0 -1 0 820)">
   <path fill="currentColor"
d="M451 364q9 21 43 73l42 83l22 45h338l-8 -574q-1 -24 -3 -37q-6 -45 -38 -53q-24 -4 -74 -5q-22 0 -55 9q12 -18 24 -56q72 1 112 11q34 9 52 28q10 15 17 40q3 30 6 81l7 556q0 19 4 41q-36 -1 -73 -5h-298q3 6 6 15q6 12 10 28l19 62q6 19 30 47q-30 0 -63 7
q-15 -90 -63 -206q-54 -121 -111 -182q30 -9 47 -18q3 6 7 10zM710 104l46 -4q9 0 21 -1q-4 54 -5 77l1 163l4 45q-33 -1 -67 -5q-147 0 -173 2q-3 1 -6 1q-13 0 -33 2q6 -63 6 -95l-1 -142q-3 -9 -3 -26q0 -12 -2 -22q54 4 76 5h136zM541 138v207h193v-207h-193zM249 -101
q0 -27 -3 -53q0 -4 -4 -12h51q-1 1 -1 3q-1 3 -1 5q-1 3 -4 57v448q55 -42 116 -108q15 22 29 40q-33 30 -75 62l-70 56v103h72q27 0 51 -3q3 0 15 -2v46q-4 0 -9 -2l-129 -3v150q0 37 13 67h-58q6 -31 6 -43l1 -174l-169 5v-46q9 0 19 2l88 3h61q-15 -55 -34 -97
q-48 -102 -94 -169q-24 -34 -41 -55q-9 -12 -35 -33q3 0 7 -2q1 0 32 -12q7 -3 17 -7q18 25 41 62l76 135q15 27 32 63v-486z" />
  </g>

</svg>
