<?xml version="1.0" standalone="no"?>
<!DOCTYPE svg PUBLIC "-//W3C//DTD SVG 1.1//EN" "http://www.w3.org/Graphics/SVG/1.1/DTD/svg11.dtd" >
<svg xmlns="http://www.w3.org/2000/svg" xmlns:xlink="http://www.w3.org/1999/xlink" version="1.1" viewBox="-10 0 1034 1024">
  <g transform="matrix(1 0 0 -1 0 820)">
   <path fill="currentColor"
d="M485 604q-9 -64 -18 -104q-4 -30 -11 -52q-13 -48 -27 -63q-19 -19 -64 -20q-19 0 -43 7q12 -33 16 -54q51 6 79 16q34 9 52 36q15 25 30 98l21 103q9 45 20 74q-36 -1 -73 -5h-141l6 40q6 48 11 61q3 12 15 26h-67q4 -18 5 -31v-10q-1 -6 -4 -44q-3 -30 -7 -42l-158 3
q-4 1 -8 1q-3 1 -5 1v-47q6 3 13 3q24 3 51 3h102q-15 -99 -71 -181q-60 -82 -136 -107q34 -18 46 -28l7 -7q76 61 123 132q24 37 42 81q16 48 31 110h163zM610 359q51 4 106 5q126 0 143 -2q18 0 37 -3q-3 33 -5 66l1 206l4 48q-36 -6 -85 -6q-135 0 -162 2q-3 1 -36 4h-3
l6 -67l-1 -203q-4 -31 -5 -50zM853 637v-237h-201v237h201zM497 217l-419 4q-3 1 -5 1v-46q15 3 36 4l348 1q-73 -91 -217 -172q-102 -55 -187 -65q28 -24 43 -49q114 48 200 100q115 76 201 168v-252q0 -45 -5 -67h48q-6 43 -5 125v207q103 -130 319 -239q67 -33 81 -39
q15 27 37 51q-67 9 -169 62q-58 30 -122 78q-64 49 -102 92l340 -1q21 0 34 -4v46q-24 -4 -69 -5h-349v53q0 15 3 29q3 15 16 35h-62l5 -106v-11z" />
  </g>

</svg>
