<?xml version="1.0" standalone="no"?>
<!DOCTYPE svg PUBLIC "-//W3C//DTD SVG 1.1//EN" "http://www.w3.org/Graphics/SVG/1.1/DTD/svg11.dtd" >
<svg xmlns="http://www.w3.org/2000/svg" xmlns:xlink="http://www.w3.org/1999/xlink" version="1.1" viewBox="-10 0 1010 1000">
   <path fill="currentColor"
d="M157 -2q100 0 101 10q0 3 -6 9q-18 18 -18 39v153q44 0 61 -1q21 -1 34 -5v79q-12 -4 -31 -5q-16 -1 -64 -1v131l58 -34q23 31 58 79q21 29 29 40l-69 42q-30 -65 -76 -115v393q2 72 8 87h-93q10 -27 10 -147v-299q-14 31 -39 83q-39 83 -55 119q-2 -5 -6 -13
q-14 -39 -45 -74q115 -137 143 -290q-77 0 -105 8v-81q10 4 33 5q11 1 27 1h47v-141q0 -48 -2 -69v-3zM667 143q22 8 131 8q75 -1 127 -8q-4 20 -5 58q-1 18 -1 44v69v377q0 82 2 115q1 34 6 46h-94q9 -14 8 -94h-91q0 78 6 98h-91q10 -32 10 -159v-379q0 -133 -8 -175z
M841 221h-91v470h91v-470zM244 814q171 -60 177 -564q-56 1 -84 10v-83q18 4 84 4q0 -154 -10 -183q105 8 103 14q0 1 -4 6q-14 16 -14 28t-2 64q-1 43 -2 69q110 0 143 -8q-9 39 -12 143q-8 441 -40 492q-31 40 -121 54q2 -51 -35 -106q66 15 87 -6q33 -45 40 -500h-62
q-10 450 -173 625q-32 -40 -75 -59z" />
</svg>
