<?xml version="1.0" standalone="no"?>
<!DOCTYPE svg PUBLIC "-//W3C//DTD SVG 1.1//EN" "http://www.w3.org/Graphics/SVG/1.1/DTD/svg11.dtd" >
<svg xmlns="http://www.w3.org/2000/svg" xmlns:xlink="http://www.w3.org/1999/xlink" version="1.1" viewBox="-10 0 1010 1000">
   <path fill="currentColor"
d="M526 -12q101 30 109 44q1 4 -8 10q-17 11 -26 28q-28 53 -43 87h178q115 0 181 -8q-17 321 -18 482q-2 205 -18 209q-42 48 -185 67q-7 -65 -43 -111q71 7 98 3q30 -3 41 -19q16 5 23 -346q4 -128 6 -205h-299q-30 50 -66 113q5 0 21 1q39 1 67 1h49q91 0 133 -6
q-8 36 -8 141v99q0 106 8 145h-93q6 -19 6 -64h-123q0 52 6 76h-91q9 -45 9 -157v-91q0 -82 -3 -124q-19 31 -38 56q-31 -32 -74 -48q140 -116 201 -383zM185 8q95 0 95 10q0 6 -5 15q-13 21 -13 51v115q50 0 113 -8v87q-30 -9 -115 -8v155l57 -20q26 34 84 135l-76 40
q-24 -63 -65 -123v256q0 125 8 174h-93q0 -2 1 -5q9 -45 9 -163v-258q-50 119 -116 230q-9 -32 -35 -74q-9 -13 -14 -21q114 -121 165 -326q-93 -3 -131 6v-83q52 8 134 8v-119q0 -45 -3 -74zM641 407h-125v189h125v-189z" />
</svg>
