<?xml version="1.0" standalone="no"?>
<!DOCTYPE svg PUBLIC "-//W3C//DTD SVG 1.1//EN" "http://www.w3.org/Graphics/SVG/1.1/DTD/svg11.dtd" >
<svg xmlns="http://www.w3.org/2000/svg" xmlns:xlink="http://www.w3.org/1999/xlink" version="1.1" viewBox="-10 0 1034 1024">
  <g transform="matrix(1 0 0 -1 0 820)">
   <path fill="currentColor"
d="M457 483l-4 -57l-1 -7h48q-1 4 -2 7t-4 57v78h405v-78q0 -27 -3 -53q0 -3 -3 -11h50q-1 4 -2 7l-4 79q0 39 3 63q0 -1 2 14q0 6 1 20q-21 -1 -36 -2q-24 -3 -31 -3l-374 1q-19 3 -50 4q4 -70 5 -108v-11zM613 362q0 33 14 67h-58q0 -1 3 -17l4 -50l1 -429q3 -25 17 -41
q13 -15 40 -22q40 -9 112 -10q30 0 72 2q58 3 80 10q27 9 47 30q9 9 15 26q19 67 24 84q-21 7 -30 12q-7 3 -21 12q0 -36 -3 -54q-3 -34 -17 -54q-10 -15 -44 -22q-18 -3 -41 -6l-66 -1q-55 0 -80 3q-27 3 -48 10q-21 12 -21 53v222q87 28 172 63q66 28 101 40q16 4 36 5
q-33 33 -43 47q-19 -13 -39 -24q-15 -9 -55 -27q-72 -33 -172 -66v137zM694 709l-68 57q-12 -18 -27 -34l60 -49q30 -27 74 -69q18 25 28 37q-36 33 -67 58zM251 -104q0 -27 -3 -53q0 -3 -4 -12h51l-2 8q-1 3 -4 57v470q15 -12 29 -26q19 -19 60 -63q15 -18 35 -44
q13 18 34 39q-60 61 -81 78q-60 52 -77 70v69h62q28 0 50 -3q3 0 16 -2v46q-4 0 -10 -2l-118 -3v158q0 37 13 67h-58q4 -15 5 -28l2 -91v-106l-139 1q-12 1 -21 2q-1 0 -12 2v-46q9 0 19 2l88 3h62q-30 -105 -133 -252q-24 -33 -40 -53q-12 -12 -37 -32q30 -9 50 -24
q51 64 72 98q45 72 70 119q9 16 21 40v-489z" />
  </g>

</svg>
