<?xml version="1.0" standalone="no"?>
<!DOCTYPE svg PUBLIC "-//W3C//DTD SVG 1.1//EN" "http://www.w3.org/Graphics/SVG/1.1/DTD/svg11.dtd" >
<svg xmlns="http://www.w3.org/2000/svg" xmlns:xlink="http://www.w3.org/1999/xlink" version="1.1" viewBox="-10 0 1034 1024">
  <g transform="matrix(1 0 0 -1 0 820)">
   <path fill="currentColor"
d="M698 643l245 -1q15 0 32 -5v47q-21 -4 -68 -5l-485 2l-6 2t-6 1v-47q18 6 63 6h186l2 -186l-179 1l-39 4q1 -30 5 -63l-1 -519q-1 -10 -2 -26q0 -3 -2 -15h47q-4 39 -5 67v515h174q-12 -139 -54 -221q-46 -81 -110 -124q21 -3 30 -9q1 0 23 -14q90 106 129 215
q45 -48 85 -106q36 -51 49 -99q25 21 47 42q-24 36 -59 81l-63 78q-24 27 -48 53l12 104h176v-474q0 -39 -21 -45q-15 -3 -60 -4q-16 1 -48 8q7 -22 13 -55q60 4 98 12q55 10 56 73l1 481q0 16 4 45q-66 -4 -95 -5h-124zM230 -94q0 -22 -3 -52q0 -9 -2 -15h48q-3 33 -5 67
v462q40 -45 67 -79q24 -33 38 -56q7 15 18 26q1 0 3 3q3 3 4 7q1 1 8 10q-21 25 -58 64l-50 53q-7 9 -14 15q-6 6 -16 17v58l102 -1q15 0 32 -5v47q-21 -4 -68 -5h-66v174q0 15 3 28q3 18 18 38h-64q1 -33 5 -66v-174l-153 4q-3 1 -6 1v-47q15 4 39 5l119 1q-4 -24 -22 -68
q-36 -78 -71 -145q-60 -108 -102 -132q21 -3 57 -20q64 94 139 256v-471z" />
  </g>

</svg>
