<?xml version="1.0" standalone="no"?>
<!DOCTYPE svg PUBLIC "-//W3C//DTD SVG 1.1//EN" "http://www.w3.org/Graphics/SVG/1.1/DTD/svg11.dtd" >
<svg xmlns="http://www.w3.org/2000/svg" xmlns:xlink="http://www.w3.org/1999/xlink" version="1.1" viewBox="-10 0 1010 1000">
   <path fill="currentColor"
d="M198 6q95 5 104 18q0 3 -10 11q-22 20 -22 35v141q85 -1 113 -10v85q-12 -6 -113 -6v169l49 -34l88 111l-60 48q-9 -15 -23 -37q-26 -46 -56 -76v240q0 99 2 133q1 34 6 53h-86q6 -15 7 -50q1 -18 1 -48v-96v-256q-39 141 -115 254q-38 -58 -59 -79q103 -113 168 -334
q-110 0 -130 8v-83q21 8 138 8v-141q0 -26 -2 -53q-1 -12 0 -11zM373 68q72 12 163 12h260q113 0 152 -10v85q-9 -9 -144 -8h-112l-2 141q108 0 152 -2q51 -1 73 -6q-10 46 -10 183v293q2 71 -29 93q-26 24 -136 40q-3 -49 -30 -103q130 28 119 -51v-379h-142q-3 44 -10 85
q113 143 142 196q-11 6 -31 17q-30 15 -42 23q-22 -70 -87 -163q-23 98 -88 193q-32 -27 -75 -44q96 -67 117 -307h-125v307q4 199 10 214h-95q10 -51 10 -210v-196q0 -99 -1 -131q-2 -41 -7 -60q45 8 212 8l2 -141h-83q-72 0 -104 2q-34 2 -59 8v-89z" />
</svg>
