<?xml version="1.0" standalone="no"?>
<!DOCTYPE svg PUBLIC "-//W3C//DTD SVG 1.1//EN" "http://www.w3.org/Graphics/SVG/1.1/DTD/svg11.dtd" >
<svg xmlns="http://www.w3.org/2000/svg" xmlns:xlink="http://www.w3.org/1999/xlink" version="1.1" viewBox="-10 0 1010 1000">
   <path fill="currentColor"
d="M522 -4q4 0 11 1q114 7 110 17q0 2 -5 7q-25 30 -25 87v71l127 -20q113 -20 143 -34l12 92q-36 -7 -139 10l-143 19v58q-3 45 5 55q8 13 39 14q104 3 127 -8q19 -12 24 -29q6 -15 7 -66q41 37 98 52q-20 110 -88 119q-31 6 -95 8q-74 2 -117 -2q-54 -5 -70 -25
q-16 -17 -13 -74v-92l-34 6q-3 1 -11 2q-76 11 -112 20l-10 -81q22 3 101 -6q12 -1 18 -2l48 -6v-81q1 -81 -8 -112zM200 10q79 44 161 107l-57 66q-51 -54 -153 -115zM113 155q84 42 151 91l-50 62q-37 -33 -147 -91zM343 288q16 63 28 85q-151 80 -240 145
q-20 -42 -50 -87q163 -63 262 -143zM438 449q108 1 114 10q0 1 -3 5q-23 27 -23 80h220q69 0 104 -2q40 -2 73 -8v85q-23 -4 -64 -6q-19 0 -45 -1h-68h-147q110 141 345 176q-46 54 -57 93q-262 -76 -353 -269h-8v164q0 110 10 127h-98q10 -35 10 -127v-151
q-123 150 -343 266q-20 -46 -61 -89q172 -29 341 -190h-167h-22q-92 -1 -127 7v-81q31 4 64 5q16 1 35 1h48h232q0 -60 -10 -95z" />
</svg>
