<?xml version="1.0" standalone="no"?>
<!DOCTYPE svg PUBLIC "-//W3C//DTD SVG 1.1//EN" "http://www.w3.org/Graphics/SVG/1.1/DTD/svg11.dtd" >
<svg xmlns="http://www.w3.org/2000/svg" xmlns:xlink="http://www.w3.org/1999/xlink" version="1.1" viewBox="-10 0 1034 1024">
  <g transform="matrix(1 0 0 -1 0 820)">
   <path fill="currentColor"
d="M490 -88q0 -27 -5 -68h50l-6 35l-1 308h12q18 -27 32 -46q12 -16 25 -32q49 -55 173 -123q33 -18 68 -34q42 -18 107 -43q13 24 37 51q-51 9 -78 18q-85 24 -146 60q-118 70 -169 149l335 -1q18 0 33 -5v47q-21 -4 -69 -5h-360v100h150q16 -1 33 -4l31 -1l-6 57v227
l148 -1q18 0 27 -4v46q-21 -4 -69 -5h-106v57q0 30 18 67h-62q3 -12 6 -40l1 -84h-377v51q0 40 15 69h-57q0 -3 1 -8q3 -18 4 -61v-51l-183 4q-3 1 -5 1v-46q39 4 63 5h125l-1 -242q-3 -12 -4 -42q49 4 102 5h108v-100l-410 2l-6 2t-6 1v-47q18 6 64 6h305q-36 -43 -60 -68
q-21 -19 -51 -42q-96 -75 -200 -114q-46 -18 -79 -21q24 -18 45 -46q174 75 293 178q19 16 38 37q24 25 67 76v-275zM322 501v101h377v-101h-377zM322 359v106h377v-106h-377z" />
  </g>

</svg>
