<?xml version="1.0" standalone="no"?>
<!DOCTYPE svg PUBLIC "-//W3C//DTD SVG 1.1//EN" "http://www.w3.org/Graphics/SVG/1.1/DTD/svg11.dtd" >
<svg xmlns="http://www.w3.org/2000/svg" xmlns:xlink="http://www.w3.org/1999/xlink" version="1.1" viewBox="-10 0 1034 1024">
  <g transform="matrix(1 0 0 -1 0 820)">
   <path fill="currentColor"
d="M507 136q-3 18 -4 47v19h175v-292q0 -25 -3 -53q0 -3 -3 -11h50q0 3 -2 7q-3 6 -3 43l-1 306h182v-21q0 -19 -4 -44h47l-4 46l-1 463q0 31 5 66q-64 -4 -68 -5l-359 1q-19 3 -53 4q4 -60 5 -67q-3 -498 -5 -509h46zM503 238v200h175v-200h-175zM503 473v198h175v-198
h-175zM716 238v200h182v-200h-182zM716 473v198h182v-198h-182zM248 -93q0 -33 -4 -53q0 -3 -3 -11h51q-1 4 -2 7t-2 13q-1 37 -3 75v437q42 -42 69 -75q21 -27 44 -66q16 18 34 35q-12 15 -31 36l-75 81l-41 43v56h69q28 0 50 -3q3 0 16 -2v46q-4 0 -9 -2l-126 -3v165
q0 36 14 67h-58q3 -15 6 -43l1 -189l-135 3q-4 1 -9 2v-46q-3 0 9 1q4 0 10 1l126 3q-13 -43 -37 -95q-51 -105 -94 -169q-25 -37 -40 -54q-9 -12 -35 -33q36 -13 53 -27q54 84 88 145q30 57 64 128v-473z" />
  </g>

</svg>
