<?xml version="1.0" standalone="no"?>
<!DOCTYPE svg PUBLIC "-//W3C//DTD SVG 1.1//EN" "http://www.w3.org/Graphics/SVG/1.1/DTD/svg11.dtd" >
<svg xmlns="http://www.w3.org/2000/svg" xmlns:xlink="http://www.w3.org/1999/xlink" version="1.1" viewBox="-10 0 1034 1024">
  <g transform="matrix(1 0 0 -1 0 820)">
   <path fill="currentColor"
d="M160 529q-21 1 -51 2l-6 3q-3 0 -6 1v-48q3 1 38 5q15 0 25 2h339q-57 -63 -195 -131q-99 -46 -176 -58q18 -15 37 -46q102 39 182 82q55 30 100 60q43 31 102 83v-141q0 -34 -20 -42q-13 -6 -36 -6q-19 0 -41 7q7 -22 14 -49q48 4 65 9q57 13 57 60v172h276
q-43 -87 -75 -114q36 -3 47 -7q4 -1 10 -3l41 79q19 37 20 40q12 21 25 46q-72 -6 -91 -6h-256q6 7 19 21l-35 21q9 4 19 11q34 18 70 35q12 6 33 18l137 86q4 6 11 10q-27 -1 -41 -2q-25 -3 -74 -3l-541 4q-1 0 -5 1v-47q6 3 12 3q24 3 51 3h471q-42 -25 -70 -40l-107 -54
q-4 0 -9 -3q-45 27 -116 64q-12 -30 -26 -45q33 -6 86 -34q46 -22 76 -49h-386zM136 182q-55 3 -59 4q-3 1 -5 1v-47q4 3 54 6h330q-19 -24 -80 -72q-57 -45 -104 -68q-106 -60 -217 -74q21 -18 38 -47q33 9 104 40q61 28 105 53q114 66 200 155v-230q0 -22 -3 -53
q0 -1 -2 -16h48q-4 60 -5 69v240q48 -57 107 -99q99 -70 222 -114q51 -18 66 -24q18 33 39 51q-91 9 -184 53q-127 58 -197 136h296q24 0 54 -3q6 0 15 -3v47q-19 -4 -69 -5h-349q1 33 18 60h-61q1 -30 5 -60h-366z" />
  </g>

</svg>
