<?xml version="1.0" standalone="no"?>
<!DOCTYPE svg PUBLIC "-//W3C//DTD SVG 1.1//EN" "http://www.w3.org/Graphics/SVG/1.1/DTD/svg11.dtd" >
<svg xmlns="http://www.w3.org/2000/svg" xmlns:xlink="http://www.w3.org/1999/xlink" version="1.1" viewBox="-10 0 1034 1024">
  <g transform="matrix(1 0 0 -1 0 820)">
   <path fill="currentColor"
d="M639 125q-18 -24 -41 -50l-108 -112v399h189q27 -199 80 -303q45 -87 81 -128q39 -45 69 -45q22 0 44 37q13 30 28 93q-24 9 -48 31q0 -39 -2 -53q-6 -54 -31 -55q-6 0 -24 16q-15 15 -28 35q-72 106 -96 203q-19 78 -32 169l176 -1l36 -4v45q-12 -3 -28 -4
q-27 -1 -167 -2h-20q-3 67 -5 114l1 147q30 6 99 18q33 4 50 8l38 1q-36 40 -43 52q-46 -16 -93 -28q-76 -16 -155 -29q-87 -12 -117 -12l-45 3l6 -73l-1 -648q-3 -19 -13 -35l-7 -7q10 -9 24 -24q6 -9 13 -18q42 52 82 99q43 48 109 114zM490 396v230q63 6 180 23l2 -152
q1 -61 5 -101h-187zM654 20q-13 -18 -29 -33q82 -63 122 -107q10 18 28 33q-39 39 -60 56zM223 -87q0 -33 -6 -62h50q-3 6 -4 34q-1 19 -2 120v369q27 -21 58 -51q21 -19 34 -33q9 -10 23 -30q12 24 35 40q-6 6 -79 66l-71 62v63q100 0 116 -2l26 -3v45q-4 0 -9 -2l-133 -3
v158q0 36 13 65h-57q0 -6 6 -62v-161l-158 5v-45q-3 0 9 1q4 0 10 1q22 0 46 3h85q-24 -100 -116 -258q-21 -34 -36 -55q-12 -15 -34 -35q1 0 57 -18q30 46 67 118q39 75 70 145v-475z" />
  </g>

</svg>
