<?xml version="1.0" standalone="no"?>
<!DOCTYPE svg PUBLIC "-//W3C//DTD SVG 1.1//EN" "http://www.w3.org/Graphics/SVG/1.1/DTD/svg11.dtd" >
<svg xmlns="http://www.w3.org/2000/svg" xmlns:xlink="http://www.w3.org/1999/xlink" version="1.1" viewBox="-10 0 1010 1000">
   <path fill="currentColor"
d="M183 2h25q77 -2 74 8q1 5 -5 16q-13 24 -13 52v127h1q91 1 118 -6v79q-30 -6 -119 -6v457q0 135 10 170h-95q9 -42 9 -172v-292q-30 109 -98 225q-3 6 -5 9q-24 -37 -65 -69q104 -107 155 -328q-89 0 -129 6v-81q41 6 142 6v-125q1 -40 -5 -76zM397 58q81 8 194 8h177
q110 0 165 -10v89q-36 -8 -163 -8h-286v649h278q134 -1 184 -10v89q-51 -7 -188 -7h-149q-168 0 -212 9q8 -52 8 -194v-393q0 -140 -8 -222zM490 445q103 -114 137 -294q101 27 95 28q1 5 -6 12q-28 28 -55 93q141 0 188 -12q-42 148 -75 215q155 168 163 182q-36 12 -84 54
q-41 -80 -113 -171q-69 113 -165 196q-11 -10 -54 -32q-34 -18 -33 -21q161 -60 264 -349h-111q-21 26 -79 142q-8 -4 -34 -20q-23 -14 -38 -23zM268 415l53 -28q39 53 76 135l-70 32q-26 -86 -59 -139z" />
</svg>
