<?xml version="1.0" standalone="no"?>
<!DOCTYPE svg PUBLIC "-//W3C//DTD SVG 1.1//EN" "http://www.w3.org/Graphics/SVG/1.1/DTD/svg11.dtd" >
<svg xmlns="http://www.w3.org/2000/svg" xmlns:xlink="http://www.w3.org/1999/xlink" version="1.1" viewBox="-10 0 1010 1000">
   <path fill="currentColor"
d="M181 4q10 0 28 1q76 1 71 7q1 3 -4 10q-12 22 -12 48v141q62 0 111 -8v85q-33 -6 -111 -6v141l51 -30q55 75 84 127l-74 44q-22 -66 -61 -117v278q0 134 10 166h-97q10 -43 10 -162v-298q-45 146 -116 252q-24 -52 -53 -77q104 -132 157 -324q-113 -1 -137 8v-87
q47 9 149 10v-137q0 -48 -6 -72zM361 68q55 9 169 10h246q122 -1 180 -10v91q-18 -13 -93 -10v647q2 47 -31 64q-31 19 -136 33q-2 -53 -39 -109q76 12 103 2q26 -7 24 -44v-593h-256q-143 -1 -167 10v-91zM425 264q41 8 125 8h23q93 -1 127 -4q0 2 -1 11q-7 56 -7 140v62
q0 137 8 176q-29 -6 -146 -6q-102 -1 -131 8q8 -45 8 -176v-56q0 -130 -6 -163zM621 344h-119v236h119v-236z" />
</svg>
