<?xml version="1.0" standalone="no"?>
<!DOCTYPE svg PUBLIC "-//W3C//DTD SVG 1.1//EN" "http://www.w3.org/Graphics/SVG/1.1/DTD/svg11.dtd" >
<svg xmlns="http://www.w3.org/2000/svg" xmlns:xlink="http://www.w3.org/1999/xlink" version="1.1" viewBox="-10 0 1034 1024">
  <g transform="matrix(1 0 0 -1 0 820)">
   <path fill="currentColor"
d="M453 593q-34 -31 -92 -74q-54 -39 -100 -64q-69 -36 -117 -54q-49 -15 -101 -23q16 -12 24 -20l24 -25q123 48 212 101q81 49 185 136v-144q0 -27 -3 -53q0 -3 -3 -12h53q-1 4 -2 7q-3 7 -4 32l-1 185q30 -36 81 -78q54 -43 91 -66q46 -27 116 -60q42 -19 72 -32
q25 -9 53 -18q21 33 40 48q-42 3 -83 18q-45 15 -118 48q-115 51 -204 148h288q27 0 50 -3q3 0 15 -2v46q-4 0 -9 -2q-19 0 -56 -3h-336v74q0 37 14 66h-60q6 -30 6 -71v-69l-351 1q-24 3 -31 4v-46q24 4 66 5h281zM530 139h346q28 0 50 -3q3 0 15 -2v46l-35 -4h-777
q-36 3 -42 4v-46q21 4 65 5h338v-207q0 -33 -15 -41q-19 -9 -48 -9q-16 0 -61 8q19 -36 27 -60l63 7q34 3 52 15q21 15 22 69v218zM309 95q-24 -39 -84 -104q-33 -33 -59 -54q-24 -19 -54 -38q21 -12 45 -34q51 48 118 119q54 58 59 60q7 7 24 12q-36 24 -49 39zM806 331
q-13 -1 -27 -5h-507q-24 3 -44 5h-5v-47q21 6 66 6q471 0 494 -3q3 0 8 -1q3 0 15 -2v47zM661 63q24 -18 64 -52l105 -99q16 -18 31 -37q16 24 32 40q-24 24 -49 46q-87 75 -151 134q-12 -15 -25 -26q-3 -3 -7 -6v0z" />
  </g>

</svg>
