<?xml version="1.0" standalone="no"?>
<!DOCTYPE svg PUBLIC "-//W3C//DTD SVG 1.1//EN" "http://www.w3.org/Graphics/SVG/1.1/DTD/svg11.dtd" >
<svg xmlns="http://www.w3.org/2000/svg" xmlns:xlink="http://www.w3.org/1999/xlink" version="1.1" viewBox="-10 0 1034 1024">
  <g transform="matrix(1 0 0 -1 0 820)">
   <path fill="currentColor"
d="M158 378q-34 -7 -69 -11l8 -15q0 -1 5 -14q3 -12 7 -22q30 15 52 21l333 76q0 15 3 30q1 6 4 18q-24 -13 -78 -28q-63 -13 -68 -15v170q121 0 139 -2q15 0 27 -4v47q-19 -4 -68 -5h-98v77q0 12 3 27q3 18 14 37h-60q1 -31 5 -64v-293l-121 -25v233q0 12 3 28q1 13 11 31
q1 3 3 8h-60q1 -33 5 -67v-238zM574 770q4 -39 5 -64v-274q0 -63 39 -77q36 -10 128 -11q120 0 149 37q27 31 45 103q-27 10 -46 26q-3 -31 -7 -50q-6 -33 -23 -53q-16 -16 -62 -21q-34 0 -68 -2q-19 0 -50 2q-52 6 -61 15q-6 9 -6 42v106q3 1 187 67q9 4 51 13q15 3 36 7
q-18 24 -21 30q-6 9 -12 21q-36 -21 -94 -46q-84 -31 -147 -51v116q0 12 3 26q1 16 11 38h-57zM494 231l-409 4q-3 1 -6 1v-46q15 3 36 4l337 1l-72 -70q-42 -40 -138 -98q-93 -54 -183 -69q25 -18 44 -45q103 45 212 115q102 64 179 159v-276q0 -48 -6 -68h49l-6 87v264
q90 -117 207 -189q90 -54 194 -79q12 19 41 53q-54 3 -85 9q-94 21 -172 76q-90 64 -135 131l329 -1q21 0 34 -4v46q-24 -4 -69 -5h-344v46q0 9 4 30q4 22 16 33h-63q0 -9 2 -13q3 -63 4 -71v-25z" />
  </g>

</svg>
