<?xml version="1.0" standalone="no"?>
<!DOCTYPE svg PUBLIC "-//W3C//DTD SVG 1.1//EN" "http://www.w3.org/Graphics/SVG/1.1/DTD/svg11.dtd" >
<svg xmlns="http://www.w3.org/2000/svg" xmlns:xlink="http://www.w3.org/1999/xlink" version="1.1" viewBox="-10 0 1034 1024">
  <g transform="matrix(1 0 0 -1 0 820)">
   <path fill="currentColor"
d="M440 386q0 -154 -21 -250q-27 -108 -79 -182q-25 -33 -61 -53q30 -6 60 -26q55 75 89 159q30 79 40 153q12 87 12 206v104l454 -1q15 0 31 -5v46q-24 -4 -36 -5l-449 -1v116q60 0 107 5l182 19q1 1 4 1q118 19 121 19q18 0 37 -2q-27 34 -40 53q-24 -9 -41 -15
q-24 -6 -66 -14q-30 -6 -62 -11q-33 -4 -81 -10q-33 -3 -78 -5q-42 -3 -69 -3q-22 0 -59 3q1 -34 5 -71v-230zM618 402q-3 0 -69 5q1 -36 5 -73v-349q0 -81 64 -99q28 -7 107 -8l150 4q13 4 27 7q33 13 49 41q19 42 28 80q-30 9 -53 27v-30q-1 -37 -17 -60q-18 -24 -68 -27
l-98 -3q-37 0 -71 3q-39 3 -50 9q-28 13 -29 66v371h265v-138q0 -60 -56 -61q-30 0 -62 7q9 -21 16 -55q13 0 23 1q67 6 92 26q24 21 25 78l1 139q1 21 5 44q-54 -4 -63 -5h-221zM229 -107q0 -27 -3 -53q0 -3 -3 -12h50q-4 19 -5 46l-1 501q63 -54 100 -112q12 13 30 37
q-3 4 -108 109q-10 9 -22 19v82h61q27 0 50 -3q3 0 15 -2v46q-4 0 -9 -2l-117 -3v157q0 37 13 66h-57q6 -31 6 -66v-157l-87 1q-54 3 -66 6v-47q7 1 66 5q39 0 79 -1q-7 -33 -33 -98q-39 -96 -80 -167q-46 -73 -71 -98q18 -3 36 -10q6 -1 11 -3l5 -2q73 124 103 193
q24 54 37 88v-520z" />
  </g>

</svg>
