<?xml version="1.0" standalone="no"?>
<!DOCTYPE svg PUBLIC "-//W3C//DTD SVG 1.1//EN" "http://www.w3.org/Graphics/SVG/1.1/DTD/svg11.dtd" >
<svg xmlns="http://www.w3.org/2000/svg" xmlns:xlink="http://www.w3.org/1999/xlink" version="1.1" viewBox="-10 0 1010 1000">
   <path fill="currentColor"
d="M155 -4q8 1 25 3q66 8 64 13q0 1 -4 5q-16 16 -16 31v163q87 1 99 -6v75q-10 -4 -32 -5q-16 -1 -67 -1v117l48 -24q39 61 81 141l-63 32q-9 -40 -59 -125q-5 -8 -7 -12v353q0 149 6 153h-79q4 -12 5 -44q1 -16 1 -40v-69v-333q-30 117 -88 246q-10 -33 -49 -81
q69 -82 137 -316q-53 0 -76 1q-27 2 -43 5v-71q14 5 84 4h35v-159q0 -24 -2 -46q-1 -10 0 -10zM808 110h-84q-3 0 0 267h84v-267zM514 115h-79q-3 0 0 262h79v-262zM657 433h-74v403l-6 10q-25 33 -119 37q-4 -53 -35 -91q101 27 91 -38v-321h-79q-11 330 -94 452
q-34 -28 -85 -31q110 -128 113 -419l-52 2v-64q6 4 50 4v-198q0 -113 -10 -133q15 4 41 5q12 1 30 1h52q87 0 111 -8q-10 37 -10 135v198h76v-182q0 -74 -2 -103q-2 -35 -8 -50q17 5 43 7q13 0 30 1h46q100 1 121 -6q-11 35 -10 151v180q57 0 77 -6v70q-14 -4 -29 -5
q-11 -1 -48 -1v387q3 75 -123 73q-2 -42 -44 -87q67 5 82 -1q18 -4 16 -31v-341h-84q5 335 -89 486q-20 -43 -50 -63q74 -136 72 -423z" />
</svg>
