<?xml version="1.0" standalone="no"?>
<!DOCTYPE svg PUBLIC "-//W3C//DTD SVG 1.1//EN" "http://www.w3.org/Graphics/SVG/1.1/DTD/svg11.dtd" >
<svg xmlns="http://www.w3.org/2000/svg" xmlns:xlink="http://www.w3.org/1999/xlink" version="1.1" viewBox="-10 0 1034 1024">
  <g transform="matrix(1 0 0 -1 0 820)">
   <path fill="currentColor"
d="M726 550h186q21 0 52 -3q6 0 15 -3v47q-21 -4 -67 -5l-493 4q-3 1 -5 1v-47q18 6 47 6h227v-149l-163 1q-4 1 -47 5q1 -33 5 -66l-1 -320q-3 -19 -4 -52h48q-4 24 -5 42l-1 354h168l-1 -481l-4 -41h49q-6 24 -6 68v454h162v-301q0 -21 -5 -31q-4 -9 -22 -12q-6 0 -43 -4
l-37 6q9 -15 10 -21q1 -7 5 -28q84 6 112 23q18 15 18 54l1 308l4 48q-63 -6 -92 -6h-113v149zM602 763q-13 -19 -33 -39q31 -15 74 -51q57 -49 64 -72l19 25l14 14q-12 15 -24 28q-12 12 -40 36q-36 30 -74 59zM249 -98q0 -22 -3 -52q0 -9 -3 -16h49q-4 54 -5 98v422
q51 -46 66 -66q19 -24 36 -54q12 19 34 43q-76 81 -136 129v79q93 0 109 -2q10 0 23 -4v47q-24 -4 -69 -5h-63v175q0 15 3 28q3 18 17 38h-64q6 -15 6 -66v-175l-169 4q-3 1 -6 1v-47q15 4 39 5l136 1q-12 -45 -38 -105q-51 -112 -112 -193q-34 -43 -67 -63q31 -10 54 -26
q40 48 94 139q27 46 43 79l26 54v-468z" />
  </g>

</svg>
