<?xml version="1.0" standalone="no"?>
<!DOCTYPE svg PUBLIC "-//W3C//DTD SVG 1.1//EN" "http://www.w3.org/Graphics/SVG/1.1/DTD/svg11.dtd" >
<svg xmlns="http://www.w3.org/2000/svg" xmlns:xlink="http://www.w3.org/1999/xlink" version="1.1" viewBox="-10 0 1034 1024">
  <g transform="matrix(1 0 0 -1 0 820)">
   <path fill="currentColor"
d="M335 -141q12 -3 23 -10q28 48 59 125q45 118 45 351h112v-355q0 -36 -29 -45q-24 -3 -45 -4l-35 6q15 -25 22 -52q76 12 101 29q21 15 21 57v364h99q-3 -159 -6 -196l-17 -103q-13 -54 -34 -99q-21 -43 -35 -57q27 -9 46 -19q27 51 50 123q16 63 23 116q3 31 6 72l3 163
h114v-390q0 -24 -11 -32q-12 -9 -40 -9q-18 0 -51 5q9 -18 11 -25q3 -9 7 -25q6 1 14 1q31 3 47 6q12 3 23 8q36 13 37 55v406q63 0 84 -4q1 0 7 -2v47q-24 -4 -69 -5h-22l1 308l4 43q-99 -4 -102 -5l-95 5q1 -30 5 -61v-290h-99v289q0 7 3 30q1 12 4 32q-66 -4 -100 -5
l-74 4q-10 1 -20 1q1 -16 3 -32q3 -21 3 -30v-289q-55 3 -58 4t-6 1v-47q9 3 18 4q15 0 46 2q0 -141 -18 -236q-18 -93 -57 -159q-22 -39 -46 -61q13 -4 28 -10zM462 361v310h112v-310h-112zM744 361v310h114v-310h-114zM207 489q-34 -138 -118 -262q-34 -49 -55 -72
q51 -6 60 -9q69 126 120 240l-1 -517q-1 -7 -2 -22q0 -9 -2 -16h47q-4 57 -5 100v428q61 -60 86 -108q9 12 6 9l27 31l-119 125v73l108 -3q3 0 11 -3v47q-24 -4 -69 -5h-50v162q0 16 4 30q3 19 15 38h-61q1 -33 5 -66v-164l-137 4q-3 1 -6 1v-47q15 4 39 5z" />
  </g>

</svg>
