<?xml version="1.0" standalone="no"?>
<!DOCTYPE svg PUBLIC "-//W3C//DTD SVG 1.1//EN" "http://www.w3.org/Graphics/SVG/1.1/DTD/svg11.dtd" >
<svg xmlns="http://www.w3.org/2000/svg" xmlns:xlink="http://www.w3.org/1999/xlink" version="1.1" viewBox="-10 0 1010 1000">
   <path fill="currentColor"
d="M181 -17q92 -2 101 8q1 1 2 1q6 3 -1 13q-19 25 -19 57v151q55 0 107 -8v85q-41 -9 -107 -8v431q0 141 12 190h-103q12 -48 12 -180v-270q-44 117 -104 230q-25 -53 -53 -83q93 -104 151 -318q-120 -1 -141 8v-87q22 10 147 10v-141q0 -37 -3 -73q-1 -10 -1 -16zM657 -13
q33 44 67 119l-97 35q-26 -79 -69 -121zM952 149v88q-34 -9 -158 -8h-98v123q162 0 209 -8q-8 47 -8 166v213q11 69 -139 83q-10 -65 -42 -105q62 17 81 8q21 -6 20 -46v-240h-121v310q0 146 10 178h-101q12 -54 12 -174v-312h-107v192q0 140 8 179h-97q10 -48 10 -177v-111
q0 -124 -10 -164q41 9 196 10v-125h-67q-124 0 -159 8v-90q31 9 169 10h232q86 0 160 -8zM266 413l51 -40q31 39 84 123l-62 52q-26 -69 -73 -135z" />
</svg>
