<?xml version="1.0" standalone="no"?>
<!DOCTYPE svg PUBLIC "-//W3C//DTD SVG 1.1//EN" "http://www.w3.org/Graphics/SVG/1.1/DTD/svg11.dtd" >
<svg xmlns="http://www.w3.org/2000/svg" xmlns:xlink="http://www.w3.org/1999/xlink" version="1.1" viewBox="-10 0 1010 1000">
   <path fill="currentColor"
d="M183 0q96 0 105 12q1 4 -4 9q-16 18 -16 59v141q70 0 119 -8v83q-36 -9 -119 -8v107l42 -26q39 48 101 139l-76 42q-27 -65 -67 -111v286q-1 143 8 174h-95q11 -48 11 -172v-280q-25 70 -96 205q-10 19 -15 29q-15 -45 -43 -97q94 -109 152 -294q-101 0 -136 6v-83
q35 6 138 6v-133q0 -59 -9 -86zM881 58q-75 141 -191 262q54 28 125 41q69 13 131 8q-34 35 -53 98q-116 -15 -262 -94q-96 57 -218 102q-21 -42 -70 -78q138 -21 226 -71q-62 -54 -136 -159l47 -32q-44 0 -91 8v-83q65 8 153 8h145q140 0 194 -10zM591 439q96 0 97 8
q1 2 -3 9q-12 20 -12 46v52h65q102 0 143 -6v81q-33 -9 -139 -8h-69v145h77q131 0 183 -10v90q-2 0 -8 -1q-61 -7 -171 -7h-234q-112 0 -157 7q-8 1 -12 1v-88q18 5 52 6q33 2 117 2h77v-145h-47q-98 0 -149 6v-79q36 6 147 6h49v-38q1 -50 -6 -77zM504 135q41 80 125 147
q67 -57 121 -147h-246z" />
</svg>
