<?xml version="1.0" standalone="no"?>
<!DOCTYPE svg PUBLIC "-//W3C//DTD SVG 1.1//EN" "http://www.w3.org/Graphics/SVG/1.1/DTD/svg11.dtd" >
<svg xmlns="http://www.w3.org/2000/svg" xmlns:xlink="http://www.w3.org/1999/xlink" version="1.1" viewBox="-10 0 1010 1000">
   <path fill="currentColor"
d="M196 -12q96 0 104 12q1 2 -4 9q-16 24 -16 61v129q73 0 123 -10v85q-42 -9 -125 -8v123l63 -26q30 51 84 163l-86 34q-19 -76 -61 -133v304q0 134 10 174h-100q10 -61 10 -174v-302q0 -1 -3 7q-32 85 -122 259q-6 -13 -14 -33q-17 -45 -35 -62q108 -116 166 -334
q-97 -1 -132 8v-85q34 10 144 10v-125q0 -68 -6 -86zM863 10q64 91 56 102q-1 2 -9 0q-36 -7 -91 -2q-148 14 -293 29q-5 76 -15 186q-4 43 -5 60h135v-127q0 -38 -1 -50q0 -16 -3 -27q103 -1 101 14q1 2 -4 8q-16 20 -16 45v137h62q110 0 160 -8v86q-32 -10 -150 -10h-72
v311q3 93 -23 109q-18 22 -141 34q-5 -59 -32 -109q125 27 119 -26v-319q-103 2 -141 6q-46 5 -77 18q-12 -51 -28 -78q30 -13 38 -47q9 -28 13 -145v-7q5 -110 0 -134q169 12 417 -56zM488 520q90 33 87 42q-1 2 -5 5q-22 17 -38 54q-54 118 -95 187q-25 -20 -94 -38
q101 -106 145 -250zM835 538q65 90 129 222l-95 40q-33 -122 -111 -230z" />
</svg>
