<?xml version="1.0" standalone="no"?>
<!DOCTYPE svg PUBLIC "-//W3C//DTD SVG 1.1//EN" "http://www.w3.org/Graphics/SVG/1.1/DTD/svg11.dtd" >
<svg xmlns="http://www.w3.org/2000/svg" xmlns:xlink="http://www.w3.org/1999/xlink" version="1.1" viewBox="-10 0 1010 1000">
   <path fill="currentColor"
d="M520 -12q87 2 107 16q1 3 -4 9q-17 20 -18 57q-2 41 -4 89q-2 41 -2 52h147q105 0 165 -12v93q-55 -10 -159 -10h-157q-14 372 -222 589q-14 -17 -91 -47q224 -167 236 -542q-62 0 -86 1q-30 1 -49 3v-81q79 8 139 8q5 -121 -2 -225zM181 -8q98 1 113 14q1 3 -4 10
q-18 19 -18 52v141q54 0 89 -6v81q-33 -6 -91 -6v119l59 -30q64 96 90 157l-78 40q-23 -76 -71 -147v325q0 133 10 165h-97q11 -59 11 -161v-339q-34 142 -107 266q-19 -55 -57 -75q95 -113 153 -320q-77 0 -135 6v-85q47 9 142 10v-127q0 -59 -9 -90zM732 18q46 33 127 111
l-67 58q-56 -67 -115 -117zM609 306q101 11 105 20q0 2 -4 7q-18 20 -18 58v211q92 -153 116 -237q77 32 93 50q-1 3 -6 6q-19 8 -36 40q-89 163 -165 238v57q-8 42 52 36h48q52 3 59 -109q31 37 87 55q-27 135 -136 129h-86q-64 1 -81 -12q-21 -12 -20 -53v-36
q-36 40 -103 84q-24 -33 -68 -62q89 -34 167 -107v-250q0 -31 -3 -105q-1 -13 -1 -20z" />
</svg>
