<?xml version="1.0" standalone="no"?>
<!DOCTYPE svg PUBLIC "-//W3C//DTD SVG 1.1//EN" "http://www.w3.org/Graphics/SVG/1.1/DTD/svg11.dtd" >
<svg xmlns="http://www.w3.org/2000/svg" xmlns:xlink="http://www.w3.org/1999/xlink" version="1.1" viewBox="-10 0 1010 1000">
   <path fill="currentColor"
d="M617 -21q98 1 109 11q1 3 -4 8q-20 23 -20 64v40h104q88 0 134 -10v87q-32 -10 -136 -10h-100v105h60q98 0 143 -6q-6 33 -6 135v68q0 119 12 160h-98q6 -24 6 -51h-267q-32 216 -159 335q-22 -29 -89 -55q117 -71 148 -191q36 -116 20 -401q60 8 121 8h30v-186
q0 -80 -8 -111zM202 -15q101 -4 110 5q2 4 -3 12q-15 22 -15 62v129q52 0 148 -8v89q-52 -10 -148 -10v117l61 -29q60 72 93 152l-81 42q-23 -83 -73 -147v341q0 120 8 161h-100q10 -41 10 -155v-313q-46 131 -127 242q-18 -42 -57 -81q118 -105 176 -328q-77 0 -131 6v-85
q54 6 139 6v-105q0 -72 -10 -103zM821 342h-263l-2 172h265v-172z" />
</svg>
