<?xml version="1.0" standalone="no"?>
<!DOCTYPE svg PUBLIC "-//W3C//DTD SVG 1.1//EN" "http://www.w3.org/Graphics/SVG/1.1/DTD/svg11.dtd" >
<svg xmlns="http://www.w3.org/2000/svg" xmlns:xlink="http://www.w3.org/1999/xlink" version="1.1" viewBox="-10 0 1010 1000">
   <path fill="currentColor"
d="M192 -6q92 -3 104 10q2 1 -2 6q-18 26 -18 72v117q59 0 101 -6v83q-24 -6 -101 -2v137l59 -32q57 72 98 151l-82 42q-25 -72 -75 -135v274q0 143 12 188h-100q10 -58 10 -188v-246q-47 105 -115 220q-32 -55 -61 -85q113 -105 170 -324q-98 -1 -136 8v-91q42 8 142 8
v-117q0 -45 -1 -62q-1 -20 -5 -28zM403 342q71 8 174 8h149q109 0 175 -6q-1 23 -2 79q-5 249 -22 272q-31 42 -151 65q-4 -54 -39 -109q62 23 97 0q20 -2 22 -138q2 -54 4 -88h-161v292q0 140 10 180h-101q11 -59 11 -182v-288q-130 -1 -166 8v-93zM387 203v-84q48 3 113 6
v-33q1 -73 -4 -96h14q77 1 77 10q2 2 -2 10q-10 19 -10 42v69h133q1 -107 -6 -131q94 4 98 12q1 3 -2 7q-14 16 -14 49v61q110 0 168 -8v90q-34 -9 -168 -8q-3 57 10 99h-96q10 -30 10 -99h-133q-3 77 8 105h-89q6 -36 6 -105q-71 0 -113 4z" />
</svg>
