<?xml version="1.0" standalone="no"?>
<!DOCTYPE svg PUBLIC "-//W3C//DTD SVG 1.1//EN" "http://www.w3.org/Graphics/SVG/1.1/DTD/svg11.dtd" >
<svg xmlns="http://www.w3.org/2000/svg" xmlns:xlink="http://www.w3.org/1999/xlink" version="1.1" viewBox="-10 0 1010 1000">
   <path fill="currentColor"
d="M185 -4q103 3 103 16q1 5 -4 15q-14 25 -14 61v127q68 0 129 -8v79q-16 -1 -42 -2h-32h-55v159l63 -30q39 43 86 135l-74 36q-24 -68 -75 -125v274q1 102 8 168h-90q6 -62 6 -170v-312q-38 143 -117 266q-21 -53 -51 -83q110 -149 149 -318q-84 0 -119 4v-79q19 3 138 4
v-123q0 -61 -9 -94zM448 68q6 0 19 1q79 5 136 5h101q65 0 150 -5q12 -1 17 -1v83q-38 -6 -161 -6h-107q-98 0 -155 6v-83zM474 490q99 29 99 44q-3 7 -15 15q-21 14 -32 39q-61 134 -111 220q-35 -30 -86 -36q102 -137 145 -282zM806 490q82 103 162 243l-89 47
q-70 -150 -151 -252zM544 300h218q65 0 175 -6v89q-87 -8 -175 -8h-70v415q6 47 -24 67q-28 21 -124 38q-9 -59 -40 -95q78 7 93 -1q21 -7 20 -45v-379h-73q-52 0 -114 4q-21 1 -31 2v-85q73 4 145 4z" />
</svg>
