<?xml version="1.0" standalone="no"?>
<!DOCTYPE svg PUBLIC "-//W3C//DTD SVG 1.1//EN" "http://www.w3.org/Graphics/SVG/1.1/DTD/svg11.dtd" >
<svg xmlns="http://www.w3.org/2000/svg" xmlns:xlink="http://www.w3.org/1999/xlink" version="1.1" viewBox="-10 0 1034 1024">
  <g transform="matrix(1 0 0 -1 0 820)">
   <path fill="currentColor"
d="M749 660l182 -1q16 0 34 -3l9 -3v48q-25 -6 -67 -6l-519 3q-3 1 -8 2q-3 1 -4 1v-48q6 3 24 5q27 0 39 2h138v-191q-102 0 -127 2q-6 3 -35 3q1 -30 5 -63l-1 -525q-1 -12 -2 -27q0 -7 -2 -14h47q-3 30 -5 69v30h419q0 -60 -4 -93h48q-4 30 -5 69l1 509l4 45
q-21 -1 -34 -2q-22 -3 -30 -3h-107v191zM457 -17v450h120q-7 -174 -57 -263q-22 -42 -47 -53q25 -12 48 -30q46 76 68 154q10 48 15 82q6 45 9 110h99v-241q0 -39 26 -53q24 -12 72 -13q25 0 66 5v-148h-419zM613 469v191h99v-191h-99zM876 433v-265q-36 -3 -65 -5
q-42 0 -52 10q-9 9 -10 39v221h127zM234 -106q0 -27 -5 -68h48q-3 33 -5 68v481q39 -36 52 -51q9 -10 34 -52q22 28 35 41q-39 40 -66 67q-24 22 -55 48v78q99 0 116 -2q9 0 23 -4v47q-24 -4 -69 -5h-70v165q0 12 3 27q3 21 18 38h-64q4 -42 5 -76v-154l-162 4q-3 1 -5 1
v-47q7 3 26 4q12 1 138 2q-9 -57 -65 -171q-70 -136 -137 -195q37 -7 59 -20l57 90l24 42l65 135v-493z" />
  </g>

</svg>
