<?xml version="1.0" standalone="no"?>
<!DOCTYPE svg PUBLIC "-//W3C//DTD SVG 1.1//EN" "http://www.w3.org/Graphics/SVG/1.1/DTD/svg11.dtd" >
<svg xmlns="http://www.w3.org/2000/svg" xmlns:xlink="http://www.w3.org/1999/xlink" version="1.1" viewBox="-10 0 1010 1000">
   <path fill="currentColor"
d="M921 40v81q-66 -6 -137 -6h-145v104h117q34 0 93 -8q-6 30 -6 81v105q0 41 6 68q-42 -6 -85 -6h-490q-54 -1 -107 8q6 -43 6 -88v-69q0 -60 -6 -97q44 6 93 6h117v-104h-165q-54 0 -79 1q-30 1 -52 3v-79q45 5 131 8h580q1 -1 18 -1q66 0 111 -7zM444 115v104h127v-104
h-127zM377 284h-133v109h133v-109zM444 284v109h127v-109h-127zM639 284v109h129v-109h-129zM464 487q12 0 34 -1q65 -4 64 2q1 3 -2 11q-12 24 -12 65h271q69 -1 116 -10v81q-3 0 -9 -1q-41 -5 -111 -5h-202q88 120 324 157q-41 59 -48 87q-259 -77 -343 -240v163
q0 55 8 103h-94q12 -55 12 -101v-167q-131 156 -343 248q-23 -42 -66 -75q182 -34 318 -175h-198q-72 -1 -112 12v-87q60 9 108 10h293q0 -47 -8 -77z" />
</svg>
