<?xml version="1.0" standalone="no"?>
<!DOCTYPE svg PUBLIC "-//W3C//DTD SVG 1.1//EN" "http://www.w3.org/Graphics/SVG/1.1/DTD/svg11.dtd" >
<svg xmlns="http://www.w3.org/2000/svg" xmlns:xlink="http://www.w3.org/1999/xlink" version="1.1" viewBox="-10 0 1010 1000">
   <path fill="currentColor"
d="M542 -12q12 1 33 2q67 3 62 10q0 4 -4 13q-8 20 -8 41v83q105 0 131 -10v82q-36 -9 -131 -8v121h63q102 -139 145 -264q24 14 60 34q37 21 34 21q0 5 -8 9q-18 9 -32 29q-25 36 -69 105q-31 47 -44 66q129 0 176 -10v85q-38 -9 -160 -8h-64q-10 12 -18 21q-49 60 -98 103
q-16 15 -39 37v63q150 -45 239 -109q81 74 67 78q-7 7 -12 6q-15 -1 -42 6q-65 18 -254 87v56q-1 46 15 57q14 13 71 12h73q65 2 82 -23q23 -27 25 -110q45 47 94 56q-19 84 -48 116q-27 33 -81 32h-193q-67 0 -90 -22q-24 -20 -23 -83v-160q-35 29 -106 79q-32 23 -47 34
q-18 -35 -73 -74q206 -72 371 -262h-135q-112 0 -143 10v-87q33 9 189 10v-119q-117 -4 -147 8v-82q28 10 147 10q0 -74 -2 -105q-1 -36 -6 -46zM175 -6q91 0 101 12q2 2 -3 10q-15 23 -15 52v147q92 0 119 -8v87q-18 -10 -119 -10v115l52 -30q28 35 71 93q20 25 28 36
l-80 40q-24 -77 -71 -117v312q0 137 6 176h-93q12 -33 12 -174v-308q-2 6 -7 19q-62 162 -97 225q-17 -44 -51 -95q74 -83 143 -292q-109 0 -121 10v-85q19 8 133 8v-125q0 -61 -8 -98z" />
</svg>
