<?xml version="1.0" standalone="no"?>
<!DOCTYPE svg PUBLIC "-//W3C//DTD SVG 1.1//EN" "http://www.w3.org/Graphics/SVG/1.1/DTD/svg11.dtd" >
<svg xmlns="http://www.w3.org/2000/svg" xmlns:xlink="http://www.w3.org/1999/xlink" version="1.1" viewBox="-10 0 1010 1000">
   <path fill="currentColor"
d="M760 -2q87 24 99 40q0 3 -13 16q-47 49 -96 121h48q81 0 133 -8v87q-57 -8 -133 -8h-98v123h66q96 0 139 -7v89q-65 -8 -137 -8h-68v155h98q106 0 148 -8v89q-28 -8 -146 -8h-98v121q0 75 8 109h-99q8 -30 8 -113v-117h-101q-109 0 -149 8v-89q42 8 147 8h105v-153h-63
q-97 -1 -129 8v-90q60 8 129 8h63v-125h-75q-80 0 -131 8v-87q60 8 125 8h145q45 -73 75 -177zM194 2q97 5 104 10q1 2 -4 11q-18 41 -18 83v103h22q26 0 69 -6q19 -2 24 -2v91q-2 0 -8 -1q-30 -7 -85 -7h-20v480q0 90 8 135h-90q8 -39 8 -139v-355q-67 204 -127 292
q-18 -45 -49 -91q108 -121 160 -324h-17q-74 0 -115 8v-91q47 8 113 8h33v-97q-1 -85 -8 -108zM560 10q41 71 61 127l-79 20q-29 -74 -68 -119zM353 383q46 74 72 147l-72 38q-27 -87 -65 -153z" />
</svg>
