<?xml version="1.0" standalone="no"?>
<!DOCTYPE svg PUBLIC "-//W3C//DTD SVG 1.1//EN" "http://www.w3.org/Graphics/SVG/1.1/DTD/svg11.dtd" >
<svg xmlns="http://www.w3.org/2000/svg" xmlns:xlink="http://www.w3.org/1999/xlink" version="1.1" viewBox="-10 0 1034 1024">
  <g transform="matrix(1 0 0 -1 0 820)">
   <path fill="currentColor"
d="M469 717q1 -30 5 -62l-1 -723l-8 -20q-7 -10 -23 -24q12 -12 18 -21q3 -3 4 -6q3 -6 10 -17q48 42 60 48q97 67 107 72q16 12 35 23l6 59q-45 -36 -79 -60q-34 -22 -91 -56v377h114q4 -21 11 -43q4 -27 15 -56q22 -60 37 -88q3 -10 39 -70q78 -112 209 -196q19 25 44 44
q-46 16 -62 26q-60 33 -103 80q-45 54 -69 96q13 9 90 70q54 40 65 46q12 7 27 11q-15 15 -37 51q-18 -22 -39 -44l-101 -83q-12 -12 -25 -19q-27 55 -36 84q-13 48 -21 91l162 -1q21 -1 45 -5q-4 52 -5 102l1 268l4 46q-31 -1 -64 -5l-301 1q-15 3 -43 4zM512 521v155h322
v-155h-322zM512 343v142h322v-142h-322zM244 -85q0 -27 -5 -68h49q-3 15 -4 31l-2 163v346q51 -45 92 -127q15 18 27 28q6 3 14 11q-4 4 -7 9l-25 30q-7 7 -58 63l-43 42v55q84 0 103 -2q12 0 28 -5v48q-24 -4 -69 -5h-62v167q0 7 3 27q3 21 14 38h-60q4 -15 5 -65v-167
l-167 4q-3 1 -5 1v-48q13 6 54 7h109q-19 -79 -75 -178q-19 -39 -61 -92q-39 -48 -68 -69q36 -10 56 -24q37 45 85 125q49 84 72 138v-483z" />
  </g>

</svg>
