<?xml version="1.0" standalone="no"?>
<!DOCTYPE svg PUBLIC "-//W3C//DTD SVG 1.1//EN" "http://www.w3.org/Graphics/SVG/1.1/DTD/svg11.dtd" >
<svg xmlns="http://www.w3.org/2000/svg" xmlns:xlink="http://www.w3.org/1999/xlink" version="1.1" viewBox="-10 0 1010 1000">
   <path fill="currentColor"
d="M190 -2q100 0 98 12q-1 5 -5 15q-13 28 -13 67v125q83 0 115 -6v77h-4q-42 -4 -111 -4v456q1 93 4 155h-82q0 -9 2 -47q4 -77 4 -110v-301q-3 7 -11 27q-51 125 -110 217l-47 -85q98 -111 157 -310q-24 1 -63 2q-51 1 -64 2v-77h5q35 4 133 4v-123q0 -37 -2 -54
q-1 -16 -6 -42zM675 0q33 60 41 110l-85 9q-18 -76 -42 -111zM333 401q52 64 82 125l-74 34q-20 -61 -59 -125zM835 439q97 44 90 53q-2 7 -10 11q-19 10 -40 43q-44 72 -91 125q74 59 136 120q19 18 30 29l-77 55q-80 -106 -133 -158q-139 115 -307 184q-28 -40 -72 -71
q349 -86 474 -391zM393 133q35 4 121 4h280q99 0 152 -6v86q-61 -4 -152 -4h-197q82 29 74 39q-2 4 -11 8q-21 9 -33 26q-49 68 -89 111h145q2 -4 7 -11q26 -41 56 -112q93 31 93 48q-1 4 -9 8q-21 12 -36 37q-117 205 -359 358q-35 -34 -84 -60q187 -90 298 -214
q-168 19 -209 30l-19 -80q88 -19 158 -188q-91 0 -120 1q-38 0 -66 3v-84z" />
</svg>
