<?xml version="1.0" standalone="no"?>
<!DOCTYPE svg PUBLIC "-//W3C//DTD SVG 1.1//EN" "http://www.w3.org/Graphics/SVG/1.1/DTD/svg11.dtd" >
<svg xmlns="http://www.w3.org/2000/svg" xmlns:xlink="http://www.w3.org/1999/xlink" version="1.1" viewBox="-10 0 1034 1024">
  <g transform="matrix(1 0 0 -1 0 820)">
   <path fill="currentColor"
d="M806 480q-12 -46 -85 -146l-180 -5q30 36 50 64q18 24 37 52q28 42 46 71q15 22 27 46l240 -1q24 0 43 -5v47q-24 -4 -69 -5l-448 1q-4 0 -27 1l-6 2t-6 1v-47q6 3 12 3q27 3 52 3h160q-31 -64 -94 -148q-37 -48 -50 -60q-15 -12 -36 -18q9 -30 11 -56q37 12 71 12
q115 6 139 8q-63 -78 -157 -144q-93 -63 -163 -81q21 -15 45 -42q171 99 273 206q28 30 50 58q21 27 52 73q33 46 40 54q9 12 28 22zM411 -138q12 -9 22 -22l97 52q60 36 104 68l118 101l44 -43q66 -72 86 -92q39 -46 54 -80q1 3 5 5q4 6 10 12q9 10 12 16l9 9
q-66 76 -89 99l-74 75q-12 13 -26 29q15 19 29 41l63 81q30 36 39 44q7 9 24 18q-30 21 -49 39q-61 -117 -175 -231q-112 -109 -219 -161q-69 -33 -110 -39q12 -10 26 -21zM745 619l6 9q6 12 23 29l-94 81q-30 25 -52 42q-6 -9 -15 -18q-6 -7 -19 -17q39 -21 89 -67
q33 -30 39 -38q10 -12 20 -27zM240 -99q0 -22 -5 -68h48q-4 45 -5 68v489q82 -66 116 -128q6 10 14 21q9 13 20 23l-22 24q-15 12 -41 36q-21 19 -42 37l-45 36v62q87 0 105 -2q9 0 22 -4v47q-21 -4 -68 -5h-59v167q0 7 3 27q3 21 14 38h-60q4 -42 5 -76v-156l-156 4
q-3 1 -6 1v-47q15 4 39 5l119 1q-15 -46 -43 -108q-30 -70 -46 -97l-43 -71l-29 -43q-21 -27 -43 -44q19 0 24 -4l22 -13q6 0 11 -4q42 67 78 133q36 69 73 152v-501z" />
  </g>

</svg>
