<?xml version="1.0" standalone="no"?>
<!DOCTYPE svg PUBLIC "-//W3C//DTD SVG 1.1//EN" "http://www.w3.org/Graphics/SVG/1.1/DTD/svg11.dtd" >
<svg xmlns="http://www.w3.org/2000/svg" xmlns:xlink="http://www.w3.org/1999/xlink" version="1.1" viewBox="-10 0 1010 1000">
   <path fill="currentColor"
d="M540 -12q20 51 27 92h227q82 0 113 -8q-10 18 -10 71q0 42 8 66h-97q7 -36 7 -68h-396q83 32 87 44q0 3 -9 7q-31 17 -60 50h359q67 0 113 -7v77q-24 -5 -45 -6q-22 -2 -66 -2h-56q-36 51 -111 111q84 21 263 84l9 3q-33 36 -60 80q-109 -68 -276 -121q-159 72 -412 109
q-11 -49 -46 -89q177 4 365 -48q-8 -2 -25 -6q-159 -35 -225 -42q42 -37 82 -81h-88q-48 0 -111 7q-10 1 -14 1v-77q9 1 29 2q51 5 94 5h133q40 -55 58 -101h-220q-1 45 7 68h-97q9 -26 8 -64q0 -45 -8 -71q50 6 109 6h280q-17 -44 -46 -76zM651 304h-258q-27 28 -44 42
l15 3q135 29 188 42q56 -42 99 -87zM452 520q95 -3 100 8q0 3 -4 11q-14 24 -14 57h242q95 0 153 -7q4 -1 6 -1v81q-43 -10 -159 -10h-177q125 122 349 133q-57 38 -77 87q-237 -69 -337 -212v135q0 61 8 107h-90q4 -30 5 -51q1 -24 1 -60v-129q-120 140 -339 230
q-18 -42 -65 -77q198 -43 337 -163h-185q-82 0 -139 8v-77q7 0 22 2q50 4 117 4h252q0 -49 -6 -76z" />
</svg>
