<?xml version="1.0" standalone="no"?>
<!DOCTYPE svg PUBLIC "-//W3C//DTD SVG 1.1//EN" "http://www.w3.org/Graphics/SVG/1.1/DTD/svg11.dtd" >
<svg xmlns="http://www.w3.org/2000/svg" xmlns:xlink="http://www.w3.org/1999/xlink" version="1.1" viewBox="-10 0 1034 1024">
  <g transform="matrix(1 0 0 -1 0 820)">
   <path fill="currentColor"
d="M501 318q-55 3 -59 4q-3 1 -5 1v-47q4 3 54 6h105q-19 -48 -39 -87q-19 -39 -48 -85q13 -6 131 -68q24 -12 42 -26q-36 -33 -101 -66q-96 -42 -195 -49q19 -15 28 -28q6 -7 16 -23l139 49l52 26q36 21 70 45l27 24q67 -40 100 -64q49 -37 73 -61q9 -9 20 -22q9 18 37 45
q-88 60 -174 111q-12 7 -27 19q45 69 65 118q28 70 37 142q87 0 104 -2q15 0 27 -4v47q-21 -4 -68 -5h-258q1 3 34 88q27 61 31 65q9 18 23 27q-15 4 -28 10t-34 20q-9 -72 -69 -210h-110zM808 282q-12 -126 -98 -240l-34 20q-18 10 -54 29q-36 18 -58 35q30 57 75 156h169z
M464 511q-3 -30 -3 -53q0 -4 -3 -16h48q-6 55 -5 91v26h414q0 -66 -5 -111h49q-4 18 -5 41l1 75l4 36q-55 -4 -89 -5l-365 1q-15 3 -47 4q6 -60 6 -81v-8zM600 734q40 -18 73 -50q34 -33 60 -74q12 19 37 42q-43 42 -75 70q-27 24 -58 48q-18 -21 -37 -36zM241 -90
q0 -27 -5 -68h48q-4 54 -5 99v435q42 -40 68 -73q18 -22 35 -58q21 24 34 34q1 1 5 3q-7 10 -49 55q-6 4 -10 10q-57 57 -83 80v79q93 0 108 -2q9 0 23 -4v47q-24 -4 -69 -5h-62v162q0 9 3 27t14 38h-60q4 -42 5 -76v-151l-168 4q-3 1 -5 1v-47q18 6 64 6h102
q-3 -21 -13 -51q-24 -61 -52 -118q-69 -136 -145 -195q30 -9 59 -25q39 57 62 97q19 33 44 80q27 51 52 112v-496z" />
  </g>

</svg>
