<?xml version="1.0" standalone="no"?>
<!DOCTYPE svg PUBLIC "-//W3C//DTD SVG 1.1//EN" "http://www.w3.org/Graphics/SVG/1.1/DTD/svg11.dtd" >
<svg xmlns="http://www.w3.org/2000/svg" xmlns:xlink="http://www.w3.org/1999/xlink" version="1.1" viewBox="-10 0 1034 1024">
  <g transform="matrix(1 0 0 -1 0 820)">
   <path fill="currentColor"
d="M668 -64l-281 3q-4 0 -8 2v-47q7 3 25 4q12 1 132 2l408 -1q18 0 33 -5v47q-19 -4 -67 -5h-204v202l192 -1q18 0 33 -5v47q-21 -4 -68 -5h-157v62q0 18 3 31q3 19 16 34h-62q1 -18 2 -20q0 1 2 -24l1 -83l-210 4q-3 1 -5 1v-47q6 3 12 3q24 3 51 3h152v-202zM666 372
l-233 2l-6 2t-6 1v-47q18 6 63 6l435 -1q18 0 34 -5v47q-21 -4 -69 -5h-180l1 180h151q22 0 54 -3q6 0 15 -3v47q-21 -4 -69 -5h-152v112q0 12 3 29q1 18 12 38h-58q4 -42 5 -74v-105l-174 1q-16 1 -33 3q-3 1 -5 1v-47q4 3 53 6h159v-180zM232 -94q0 -27 -5 -68h48
q-4 49 -5 68v448q73 -58 104 -107q3 6 7 12q1 3 3 6q9 15 20 28l-23 21q-51 45 -58 49q-37 30 -53 45v78l126 -3q3 0 10 -3v47q-21 -4 -68 -5h-68v173q0 12 3 29q3 21 18 37h-64q4 -19 5 -66v-173l-161 4q-3 1 -5 1v-47q7 3 26 4q12 1 129 2q-13 -54 -46 -129
q-48 -103 -89 -160q-31 -39 -61 -55q40 -9 65 -23q45 73 80 137q30 57 62 136v-486z" />
  </g>

</svg>
