<?xml version="1.0" standalone="no"?>
<!DOCTYPE svg PUBLIC "-//W3C//DTD SVG 1.1//EN" "http://www.w3.org/Graphics/SVG/1.1/DTD/svg11.dtd" >
<svg xmlns="http://www.w3.org/2000/svg" xmlns:xlink="http://www.w3.org/1999/xlink" version="1.1" viewBox="-10 0 1034 1024">
  <g transform="matrix(1 0 0 -1 0 820)">
   <path fill="currentColor"
d="M510 437l430 -1q18 0 33 -5v47q-18 -3 -68 -4h-158q7 13 55 73l74 101q3 4 8 11l-70 -7h-199q6 16 31 49q21 27 48 46q-33 6 -58 19q-84 -163 -193 -230q18 -7 46 -26q18 15 45 46l54 61h216q-12 -19 -22 -32q-27 -33 -52 -68q-9 -12 -33 -41q-1 0 -2 -2l-207 3
q-10 1 -21 1q1 -31 5 -64q0 -157 -2 -201q-12 -199 -92 -293q-25 -27 -57 -45q33 -12 53 -28q63 75 93 140q42 102 43 291v159zM609 -37q0 -43 11 -60q18 -27 66 -34q43 -6 85 -6q111 0 140 11q42 18 58 77q3 13 19 59q-27 9 -45 22q-10 -87 -33 -112q-15 -15 -57 -18
l-87 -2q-46 0 -68 4q-33 4 -42 21q-7 9 -8 44v321h201q0 -52 -4 -91q0 -30 -4 -50q-4 -27 -24 -36q-15 -4 -38 -5q-16 0 -39 5q7 -31 11 -50q6 1 12 1q39 3 58 8q9 3 30 14q18 12 24 28q4 13 7 58q6 135 9 159q-18 -1 -33 -2q-27 -3 -43 -4q-151 0 -168 2q-15 3 -43 4
q1 -31 5 -65v-303zM243 -99q0 -22 -5 -68h49q-3 7 -6 65v459q21 -16 55 -57q36 -45 47 -70q15 31 20 35q3 7 13 14q-21 24 -97 99l-38 36v59q99 0 116 -2q10 0 23 -4v47q-24 -4 -69 -5h-70v181q0 9 3 27q3 22 14 39h-60q4 -42 5 -78v-169l-156 4q-1 0 -5 1v-47q7 3 25 4
q12 1 129 2q-6 -22 -16 -49q-30 -75 -58 -128q-54 -105 -124 -167q33 -12 55 -23q42 63 86 140q19 36 37 73q15 33 27 62v-480z" />
  </g>

</svg>
