<?xml version="1.0" standalone="no"?>
<!DOCTYPE svg PUBLIC "-//W3C//DTD SVG 1.1//EN" "http://www.w3.org/Graphics/SVG/1.1/DTD/svg11.dtd" >
<svg xmlns="http://www.w3.org/2000/svg" xmlns:xlink="http://www.w3.org/1999/xlink" version="1.1" viewBox="-10 0 1010 1000">
   <path fill="currentColor"
d="M181 -12q88 10 101 18q1 2 -7 8q-19 15 -19 30v163q100 0 123 -8v81q-16 -5 -42 -7q-13 0 -31 -1h-50v133l40 -16q45 71 91 135l-72 32q-12 -42 -59 -109v301q0 133 8 157h-83q5 -17 4 -106v-53v-339q-36 138 -104 284q-2 -2 -5 -7q-29 -41 -52 -67q98 -130 145 -341h-12
q-94 -1 -115 8v-81q20 8 113 8h30v-165q0 -52 -4 -58zM944 54v87q-36 -5 -74 -6q-39 -2 -126 -2h-262v659h306q90 0 117 -1q36 -2 51 -7v87q-28 -8 -164 -8h-229q-125 0 -164 8q8 -30 8 -176v-421q0 -109 -1 -149q-2 -48 -7 -71q29 8 226 8h115q109 0 151 -2q44 -1 53 -6z
M909 219v75q-34 -6 -159 -6v127q66 0 92 -1q31 -2 43 -5v78q-30 -10 -135 -10v154q140 0 167 -8v78q-31 -8 -159 -8h-71q-149 0 -165 8v-80q28 8 157 8v-150q-102 0 -127 8v-76q15 8 127 8v-131q-67 0 -92 1q-31 1 -43 5v-73q13 4 41 5q14 1 35 1h59h75q135 1 155 -8z" />
</svg>
