<?xml version="1.0" standalone="no"?>
<!DOCTYPE svg PUBLIC "-//W3C//DTD SVG 1.1//EN" "http://www.w3.org/Graphics/SVG/1.1/DTD/svg11.dtd" >
<svg xmlns="http://www.w3.org/2000/svg" xmlns:xlink="http://www.w3.org/1999/xlink" version="1.1" viewBox="-10 0 1010 1000">
   <path fill="currentColor"
d="M181 2q98 0 105 10q1 1 -4 7q-16 21 -16 43v147h26q70 0 103 -8v81q-20 -6 -101 -6h-28v139l44 -26q18 25 46 65q37 53 43 64l-74 42q-44 -95 -59 -105v303q0 98 6 133h-89q4 -28 4 -120v-19v-303q-61 161 -108 230q-30 -57 -57 -89q109 -115 165 -314h-40q-56 1 -103 6
v-79q26 5 101 6h42v-127q0 -42 -7 -70q-3 -9 1 -10zM911 56v87q-35 -8 -131 -8h-163q66 24 64 34q1 6 -21 24t-33 30q-17 18 -51 56q-57 63 -80 84l290 -13q0 -3 -68 -88l78 -37q48 64 139 210l-90 40q-11 -25 -26 -64q-21 0 -63 3q-46 3 -71 3v137h61q98 0 137 -6v83
q-36 -6 -137 -6h-61v139h119q115 1 140 -8v86q-38 -6 -142 -6h-304h-23q-93 -1 -116 6v-86q26 7 139 8h111v-137h-69q-79 1 -119 6v-83q39 5 117 6h71v-133q-161 18 -198 32q-15 -54 -36 -86q48 1 99 -61q70 -89 109 -173h-57q-87 1 -137 8v-87q21 8 137 8h252q91 0 133 -8z
" />
</svg>
