<?xml version="1.0" standalone="no"?>
<!DOCTYPE svg PUBLIC "-//W3C//DTD SVG 1.1//EN" "http://www.w3.org/Graphics/SVG/1.1/DTD/svg11.dtd" >
<svg xmlns="http://www.w3.org/2000/svg" xmlns:xlink="http://www.w3.org/1999/xlink" version="1.1" viewBox="-10 0 1010 1000">
   <path fill="currentColor"
d="M192 -10q8 0 22 1q79 1 76 7q1 2 -3 9q-15 25 -15 57v137q68 -1 101 -4v79q-13 0 -41 -2q-37 -2 -58 -2v113l38 -25q64 82 99 130l-70 48q-22 -55 -67 -109v317q0 104 10 151h-94q8 -37 8 -153v-315q-25 69 -123 216q-7 -12 -39 -51q-10 -13 -14 -18q145 -179 166 -302
q-88 0 -134 8v-83q20 2 51 3q15 1 35 1h56v-131q0 -50 -4 -82zM387 68q6 3 37 3q14 1 41 1h81h206q149 0 175 -4v83q-11 -2 -52 -3q-19 -1 -47 -1h-72v415q69 -169 79 -294q101 17 98 30q-2 4 -7 11q-14 17 -25 51q-26 81 -74 252l-71 -20v178h50q79 0 134 -8v92
q-41 -6 -142 -6h-290q-102 0 -149 6v-90q29 10 111 8h32h34l-2 -625q-138 0 -147 4v-83zM681 147h-72l2 625h70v-625zM454 276q29 115 62 322l-81 12q1 -144 -54 -320z" />
</svg>
