<?xml version="1.0" standalone="no"?>
<!DOCTYPE svg PUBLIC "-//W3C//DTD SVG 1.1//EN" "http://www.w3.org/Graphics/SVG/1.1/DTD/svg11.dtd" >
<svg xmlns="http://www.w3.org/2000/svg" xmlns:xlink="http://www.w3.org/1999/xlink" version="1.1" viewBox="-10 0 1034 1024">
  <g transform="matrix(1 0 0 -1 0 820)">
   <path fill="currentColor"
d="M237 -99l-4 -57l-1 -5h48q-1 3 -1 5q-3 6 -3 29l-1 505l23 -19q10 -10 26 -28q31 -34 48 -64q18 24 27 30l7 7q-22 25 -54 56l-77 74v63q84 0 100 -2q7 0 18 -4v47q-15 -3 -22 -4l-96 -2v168q0 9 2 28q1 21 12 38h-57q1 -33 5 -66v-168h-97q-30 0 -52 4q-3 0 -13 2v-47
q9 3 13 4q15 0 52 2h92q-18 -63 -41 -117q-25 -57 -67 -132q-34 -66 -73 -100q31 -6 53 -17q21 34 38 67q31 57 63 121l32 67v-485zM558 -63q-165 0 -185 2l-17 3v-46q7 3 54 5q546 0 566 -3q4 0 10 -2v46q-12 -3 -23 -3q-19 0 -41 -2h-168v711l139 -1q21 0 33 -3l2 -1v46
q-10 -1 -22 -4l-487 1q-6 0 -16 3v-46q1 1 5 1q6 3 43 3l107 1v-711zM595 -63v711h121v-711h-121zM501 257l-41 132l-21 66q-21 -9 -41 -14q57 -139 78 -275q24 9 46 14zM865 270q30 81 49 120q7 18 31 40q-24 9 -52 27q-6 -25 -17 -56q-13 -39 -42 -108q-36 -84 -55 -102
q12 -3 46 -17q10 24 21 51q9 22 19 45v0z" />
  </g>

</svg>
