<?xml version="1.0" standalone="no"?>
<!DOCTYPE svg PUBLIC "-//W3C//DTD SVG 1.1//EN" "http://www.w3.org/Graphics/SVG/1.1/DTD/svg11.dtd" >
<svg xmlns="http://www.w3.org/2000/svg" xmlns:xlink="http://www.w3.org/1999/xlink" version="1.1" viewBox="-10 0 1034 1024">
  <g transform="matrix(1 0 0 -1 0 820)">
   <path fill="currentColor"
d="M365 -138l35 60q9 18 20 41q51 118 63 274q4 82 6 153v189l432 -1q21 0 37 -5l2 -1v48q-21 -6 -69 -6l-394 1q-10 3 -51 5q6 -57 6 -82l-2 -244q-6 -88 -19 -163q-24 -129 -85 -209q-15 -21 -35 -36zM712 -53l-183 1q-31 3 -47 4v-46q15 4 39 5l382 1q45 0 62 -4
q1 0 6 -2v46q-18 -4 -68 -5h-153v330q141 0 158 -2q9 0 22 -4v47q-21 -4 -68 -5h-112v136q0 12 3 28q1 18 11 42h-57q4 -55 5 -88v-118l-159 4q-3 1 -5 1v-47q7 3 26 4q12 1 138 2v-330zM602 730q82 -31 136 -98q10 16 32 37q-19 16 -50 39l-87 62q-4 -9 -11 -17
q-6 -9 -20 -23zM229 -90q0 -24 -3 -53q0 -9 -2 -15h48q-3 33 -5 68v487q18 -18 25 -27q10 -12 22 -28q24 -31 33 -46q6 -10 19 -38q13 19 39 40q-22 30 -89 106l-49 52v53q96 0 113 -2q15 0 27 -4v47q-21 -4 -68 -5h-72v154q0 13 3 27q3 19 13 38h-59q4 -18 5 -65v-154
l-153 4q-3 1 -5 1v-47q7 3 27 4q12 1 126 2q-3 -18 -21 -64q-16 -43 -36 -85q-75 -153 -118 -188q28 -4 57 -20q75 138 123 256v-498z" />
  </g>

</svg>
