<?xml version="1.0" standalone="no"?>
<!DOCTYPE svg PUBLIC "-//W3C//DTD SVG 1.1//EN" "http://www.w3.org/Graphics/SVG/1.1/DTD/svg11.dtd" >
<svg xmlns="http://www.w3.org/2000/svg" xmlns:xlink="http://www.w3.org/1999/xlink" version="1.1" viewBox="-10 0 1034 1024">
  <g transform="matrix(1 0 0 -1 0 820)">
   <path fill="currentColor"
d="M678 487q69 -166 267 -284q10 16 18 23q6 6 26 24q-78 15 -157 86q-78 69 -109 151l172 -1q18 0 33 -5v47q-19 -4 -69 -5h-223l31 139q3 9 4 19q6 3 36 8q9 1 20 5q13 1 29 6q66 12 102 16l29 1q-15 15 -41 52q-18 -9 -45 -16q-36 -9 -87 -20q-58 -12 -80 -14
q-54 -6 -92 -11q-27 -3 -37 -5q-24 0 -54 4h-19q21 -24 34 -49l73 8q48 3 89 10q-12 -93 -36 -153l-170 4q-3 1 -5 1v-47q7 3 25 4q12 1 138 2q-39 -96 -114 -165q-78 -70 -158 -94q31 -15 57 -38q108 75 166 141q57 66 94 156h53zM525 277q1 -36 5 -73q0 -78 -13 -135
q-19 -81 -91 -137q-36 -27 -97 -44q9 -6 46 -42q76 46 123 100q34 42 50 90q13 48 20 136q1 48 7 68q1 12 16 37h-66zM756 273q4 -34 5 -64l-1 -322l-4 -41h48q-4 39 -5 67l1 313q3 24 15 47h-59zM207 357q6 9 9 17v-464q0 -22 -3 -52q0 -9 -2 -15h48q-4 39 -5 67v479
q69 -60 90 -108q18 24 40 45q-6 6 -15 14q-112 99 -115 102v46l111 -3q4 0 11 -3v47q-24 -4 -69 -5h-53v175q0 7 3 27q3 21 13 38h-59q4 -18 5 -65v-175l-143 4q-3 1 -5 1v-47q4 3 54 6h94q-1 -13 -6 -27q-6 -18 -23 -54q-33 -81 -94 -169q-37 -49 -63 -67q25 -4 54 -21
q24 33 49 72q21 33 39 69q16 28 24 44q4 12 11 22v0z" />
  </g>

</svg>
