<?xml version="1.0" standalone="no"?>
<!DOCTYPE svg PUBLIC "-//W3C//DTD SVG 1.1//EN" "http://www.w3.org/Graphics/SVG/1.1/DTD/svg11.dtd" >
<svg xmlns="http://www.w3.org/2000/svg" xmlns:xlink="http://www.w3.org/1999/xlink" version="1.1" viewBox="-10 0 1010 1000">
   <path fill="currentColor"
d="M573 -10q72 14 94 28q0 2 -7 8q-33 28 -61 78h173q76 1 141 -8q-112 338 -413 391q-30 -48 -63 -72q94 -11 202 -61q-64 -52 -99 -66l49 -63q63 45 103 87q63 -55 100 -141h-227q-62 92 -99 149q-32 -30 -73 -50q129 -143 180 -280zM153 76q53 67 99 131l-71 41
q-70 -109 -100 -136zM389 362q-1 74 8 123h-91q3 -11 6 -57q2 -48 1 -61v-49q-62 42 -206 133q-11 -30 -59 -78q132 -49 265 -125v-123q0 -69 -7 -115q92 1 111 10q0 1 -4 8q-24 42 -24 97v237zM562 498q0 2 -3 9q-7 18 -7 33h214q162 -5 178 -10v85q-5 -2 -79 -4
q-86 -2 -99 -1h-137q123 148 327 190q-43 39 -59 93q-250 -94 -345 -272v123q-1 100 8 163h-92q8 -63 8 -163v-117q-132 180 -349 258q-30 -50 -77 -77q231 -39 337 -198h-155q-110 0 -165 7v-87q65 8 165 10h244q1 -27 -8 -52q86 4 94 10z" />
</svg>
