<?xml version="1.0" standalone="no"?>
<!DOCTYPE svg PUBLIC "-//W3C//DTD SVG 1.1//EN" "http://www.w3.org/Graphics/SVG/1.1/DTD/svg11.dtd" >
<svg xmlns="http://www.w3.org/2000/svg" xmlns:xlink="http://www.w3.org/1999/xlink" version="1.1" viewBox="-10 0 1034 1024">
  <g transform="matrix(1 0 0 -1 0 820)">
   <path fill="currentColor"
d="M488 315q0 -27 -5 -67h48q-4 39 -5 67v302q60 109 62 111q7 10 17 18l-58 23q-6 -31 -19 -60q-15 -33 -38 -79q-24 -45 -46 -81q-33 -54 -57 -83q-24 -24 -51 -42q33 -9 54 -24q31 34 98 144v-229zM642 130l-266 4q-3 1 -4 1v-47q6 3 12 3q24 3 51 3h207l-1 -212l-4 -42
h48q-4 39 -5 68v186l256 -1q18 0 33 -5v47q-21 -4 -69 -5h-220v65q0 9 3 29q3 18 14 37h-60q0 -9 2 -16l3 -106v-9zM683 470q9 6 19 10v-131q0 -57 53 -68q30 -1 71 -3q88 0 118 41q22 37 36 92q-21 4 -48 20q-1 -43 -8 -66q-18 -48 -87 -49q-22 1 -45 2q-19 0 -32 2
q-19 4 -20 37v147q16 13 85 59q69 48 83 54l25 11q-33 21 -50 41q-45 -51 -143 -116v141q0 37 17 73h-60q0 -9 2 -13q0 -40 3 -82v-146q-45 -25 -78 -41q-24 -9 -69 -20q33 -24 47 -42q25 13 50 29q15 9 31 18zM217 372l9 18l-1 -507l-4 -41h48q0 7 -2 15q-3 54 -3 84v431
q25 -21 51 -47q36 -36 57 -68q12 21 35 41q-15 15 -32 29l-91 78q-9 9 -20 18v83q76 0 92 -2q10 0 23 -4v47q-21 -4 -69 -5h-46v162q0 7 3 27q3 21 13 38h-59q4 -42 5 -76v-151l-148 4q-3 1 -5 1v-47q15 4 39 5l113 1q-3 -15 -9 -33q-7 -22 -24 -60q-37 -91 -92 -173
q-36 -51 -66 -69q34 -12 54 -25q24 33 57 89q33 58 61 113q4 12 11 24v0z" />
  </g>

</svg>
