<?xml version="1.0" standalone="no"?>
<!DOCTYPE svg PUBLIC "-//W3C//DTD SVG 1.1//EN" "http://www.w3.org/Graphics/SVG/1.1/DTD/svg11.dtd" >
<svg xmlns="http://www.w3.org/2000/svg" xmlns:xlink="http://www.w3.org/1999/xlink" version="1.1" viewBox="-10 0 1034 1024">
  <g transform="matrix(1 0 0 -1 0 820)">
   <path fill="currentColor"
d="M721 183v-239q0 -45 28 -66q22 -18 83 -18q90 0 120 34q18 22 30 85q-21 9 -46 30q0 -67 -14 -86q-16 -21 -80 -22q-82 0 -83 47v235h140q28 0 52 -3q1 0 14 -2v46q-33 -1 -66 -5l-434 1q-31 3 -49 4v-46q24 4 65 5h101q-7 -75 -20 -120q-15 -45 -41 -78
q-36 -43 -106 -84q-46 -24 -85 -31q15 -9 45 -38q129 64 184 138q46 66 65 213h97zM436 338q18 -18 26 -32q67 25 136 55q64 27 110 50q30 -36 71 -69q64 -51 116 -52q43 0 68 47q10 22 22 59q-9 3 -19 10q-6 6 -27 20q-1 -30 -5 -46q-9 -45 -46 -46q-21 0 -49 16
q-18 9 -57 39q-22 18 -39 40l110 67q39 24 77 31q-36 33 -46 45q-12 -12 -32 -26q-27 -19 -86 -58q-21 -13 -48 -30q-39 54 -69 124q216 45 230 45l32 4q7 0 16 2q-4 24 -7 47q-37 -12 -62 -18l-220 -45q-6 18 -16 58q-9 45 -10 52q0 18 6 43q-4 0 -7 -1l-53 -4l18 -79
l23 -78l-101 -18q-46 -6 -68 -6l9 -48q46 15 70 19l102 17q36 -82 70 -129q-75 -39 -133 -61q-46 -16 -70 -22q-21 -4 -55 -9zM58 130q15 -7 26 -14q75 105 135 222q7 15 16 30v-477q0 -27 -3 -53q0 -3 -3 -12h50q-4 19 -5 46l-1 488q39 -36 56 -56q18 -19 50 -64q6 9 35 37
q-6 6 -17 18q-52 57 -75 77l-49 46v79l106 -1q13 0 32 -5v47q-66 -6 -86 -6h-52v158q0 36 14 67h-58q3 -12 3 -17q1 -27 3 -50v-158l-126 2l-39 4v-47q12 3 66 6h99q-7 -46 -29 -96q-39 -85 -96 -171q-24 -36 -41 -57q-15 -15 -36 -32q12 -4 25 -11v0z" />
  </g>

</svg>
