<?xml version="1.0" standalone="no"?>
<!DOCTYPE svg PUBLIC "-//W3C//DTD SVG 1.1//EN" "http://www.w3.org/Graphics/SVG/1.1/DTD/svg11.dtd" >
<svg xmlns="http://www.w3.org/2000/svg" xmlns:xlink="http://www.w3.org/1999/xlink" version="1.1" viewBox="-10 0 1010 1000">
   <path fill="currentColor"
d="M175 -13q104 9 105 17q1 6 -6 13q-20 21 -20 73v133h28q31 -4 67 -4v73q-6 0 -18 -1q-39 -3 -55 -3h-24v123l54 -26q8 10 26 33q48 60 61 86l-74 46q-19 -60 -67 -123v294q0 154 6 184h-91q9 -72 10 -182v-248q-68 134 -119 216q-13 -66 -36 -113q85 -83 155 -290h-24
q-55 1 -101 8v-79q30 5 101 6h26v-125q0 -58 -1 -75q0 -23 -3 -36zM667 -10q97 -2 107 12q0 2 -3 8q-23 34 -23 123v318q-1 131 8 161h-91q7 -47 8 -159v-397q0 -47 -6 -66zM413 56q25 15 127 113l-68 64q-65 -88 -117 -125zM845 197q84 121 117 180l-85 42
q-31 -94 -101 -186zM556 217q97 17 91 27q-1 4 -8 9q-11 11 -14 25q-12 84 -46 224q-3 -1 -10 -2q-48 -10 -77 -4q63 -113 64 -279zM373 282q92 59 133 93l-56 68q-61 -64 -129 -103zM823 437q109 34 106 40q-1 3 -13 12q-16 13 -17 17q-62 288 -369 399q-27 -57 -78 -79
q347 -64 371 -389zM423 500q22 30 71 50q-68 273 -73 319q-51 -26 -102 -53q70 -106 104 -316z" />
</svg>
