<?xml version="1.0" standalone="no"?>
<!DOCTYPE svg PUBLIC "-//W3C//DTD SVG 1.1//EN" "http://www.w3.org/Graphics/SVG/1.1/DTD/svg11.dtd" >
<svg xmlns="http://www.w3.org/2000/svg" xmlns:xlink="http://www.w3.org/1999/xlink" version="1.1" viewBox="-10 0 1010 1000">
   <path fill="currentColor"
d="M554 -17q104 24 103 35q0 2 -9 7q-15 8 -21 15q-24 31 -42 62h151q9 0 25 -1q64 -3 90 -3q-44 76 -105 162q-4 5 -6 8h77q61 0 94 -4q-7 42 -10 115v433q2 62 -20 76q-21 19 -107 27q-2 -54 -40 -97q59 11 74 5q17 -3 15 -35v-131h-131v101q0 87 4 117h-87
q10 -33 12 -119v-99h-125q-12 147 -89 250q-66 -27 -99 -32q79 -63 100 -154q22 -72 25 -336q3 -98 -6 -125q39 8 103 8h111q42 -39 79 -105h-170q-54 72 -76 93q-26 -24 -65 -41q87 -75 145 -232zM621 328h-115v109h115v-109zM692 328v109h131v-109h-131zM621 496h-117
l-4 102h121v-102zM692 496v102h131v-102h-131zM403 270q-15 -4 -58 -5q-23 0 -35 -1h-34v127l57 -28q46 66 88 137l-78 42q-26 -66 -67 -139v300q-2 135 6 206h-90q1 -8 3 -23q9 -69 9 -185v-260q-10 20 -31 60q-72 144 -90 164q-19 -56 -45 -97q108 -111 162 -304h-57
q-62 1 -89 8v-85q31 7 93 8h59v-135q0 -57 -6 -73q100 6 102 11q-1 2 -5 8q-19 24 -19 52v137h28q64 -3 97 -8v83z" />
</svg>
