<?xml version="1.0" standalone="no"?>
<!DOCTYPE svg PUBLIC "-//W3C//DTD SVG 1.1//EN" "http://www.w3.org/Graphics/SVG/1.1/DTD/svg11.dtd" >
<svg xmlns="http://www.w3.org/2000/svg" xmlns:xlink="http://www.w3.org/1999/xlink" version="1.1" viewBox="-10 0 1034 1024">
  <g transform="matrix(1 0 0 -1 0 820)">
   <path fill="currentColor"
d="M775 616q-21 -31 -43 -61l-54 -71h-131q-12 0 -37 3q-16 0 -35 2q4 -70 5 -109l-2 -190q-1 -9 -1 -21q-4 -78 -14 -117q-22 -87 -75 -156q-16 -22 -46 -45q24 -3 53 -24q100 132 119 286h161l-1 -155q-1 -10 -2 -24l-3 -11h50q-6 30 -6 60v130h179v-184q0 -24 -12 -33
q-16 -9 -53 -10q-24 0 -57 6q16 -30 21 -52q93 6 113 18q25 18 26 65l1 523l4 43q-33 -1 -66 -5h-143l64 82q63 81 69 91l-72 -6h-184q31 51 47 70q12 16 29 25q1 3 4 3l-20 6q-31 15 -34 16q-3 0 -6 3q-42 -94 -127 -197q-12 -13 -74 -69l-31 -25q21 -6 45 -24
q66 63 142 157h197zM675 322h-157v126h157v-126zM516 149l2 137h157v-137h-159zM713 149v137h179v-137h-179zM713 322v126h179v-126h-179zM237 -111q0 -28 -3 -54q0 -3 -3 -11h50q-4 19 -5 46l-1 506q69 -61 125 -143l31 40q-76 87 -156 152v70q106 -3 117 -6q1 1 3 0v47
q-36 -6 -91 -6h-29v155q0 37 14 67h-58q4 -24 5 -43l1 -179q-150 3 -165 6v-47q9 0 19 2q55 3 93 4h53q-19 -96 -66 -193q-36 -73 -67 -123q-27 -40 -59 -72q33 -6 56 -18q81 127 136 273v-473z" />
  </g>

</svg>
