<?xml version="1.0" standalone="no"?>
<!DOCTYPE svg PUBLIC "-//W3C//DTD SVG 1.1//EN" "http://www.w3.org/Graphics/SVG/1.1/DTD/svg11.dtd" >
<svg xmlns="http://www.w3.org/2000/svg" xmlns:xlink="http://www.w3.org/1999/xlink" version="1.1" viewBox="-10 0 1010 1000">
   <path fill="currentColor"
d="M185 -21q92 3 115 15q1 4 -6 13q-24 35 -24 89v109h32q68 -3 85 -6v87q-30 -7 -87 -10h-30v107l53 -25q64 83 88 142l-76 36q-19 -69 -65 -135v359q0 105 6 149h-99q13 -63 13 -153v-339q-65 171 -134 272q-12 -44 -42 -97q106 -117 165 -316h-36q-73 2 -99 6v-87
q48 9 107 10h39v-125q-1 -62 -5 -101zM869 14q64 69 71 88q-1 2 -32 3q-20 0 -25 1q-276 46 -482 51q-8 -45 -32 -89q42 9 105 10q62 0 137 -8q164 -19 258 -56zM810 143q102 29 101 42q-1 2 -10 8q-22 14 -30 28q-6 11 -22 46q-23 49 -43 89q-42 -20 -80 -22
q46 -63 84 -191zM665 165q21 65 35 143l-83 12q1 -62 -38 -141zM498 187q38 75 56 139l-82 16q-17 -78 -57 -139zM429 365q22 6 140 10h189q104 -1 137 -4q-3 35 0 88q-52 14 -197 105v24h139q105 -3 127 -8v89q-35 -8 -133 -10h-131v155q2 62 -23 75q-16 15 -135 28
q-8 -65 -44 -109q79 22 99 13q22 -5 20 -55v-107h-115q-91 2 -149 8v-89q42 8 151 10h111v-60l157 -81h-203q-101 3 -140 14v-96z" />
</svg>
