<?xml version="1.0" standalone="no"?>
<!DOCTYPE svg PUBLIC "-//W3C//DTD SVG 1.1//EN" "http://www.w3.org/Graphics/SVG/1.1/DTD/svg11.dtd" >
<svg xmlns="http://www.w3.org/2000/svg" xmlns:xlink="http://www.w3.org/1999/xlink" version="1.1" viewBox="-10 0 1034 1024">
  <g transform="matrix(1 0 0 -1 0 820)">
   <path fill="currentColor"
d="M890 -135l72 -2q3 24 18 58q-21 -6 -29 -7q-39 -4 -108 -5q-97 0 -168 11q-72 9 -127 45q-22 13 -49 42q31 78 44 131q7 33 14 76l14 109q-30 -1 -60 -5h-58q9 27 49 115q7 16 34 90l45 116q-33 -1 -67 -5l-128 3q-6 1 -16 2v-46q4 3 50 5h98q-24 -81 -66 -184
q-12 -30 -24 -54l-45 -83q54 4 81 5h60q-6 -67 -13 -107q-10 -49 -20 -81q-7 -24 -21 -50q-60 82 -59 155l-44 -13q-3 0 -9 -2q24 -60 43 -101q12 -25 21 -38l25 -41q-21 -31 -62 -72q-49 -43 -102 -62q18 -9 46 -37q54 39 71 57q48 46 75 81q63 -60 138 -81q34 -10 87 -17
q57 -4 141 -7q24 0 49 -1zM735 407l-147 4q-7 1 -17 2v-47q15 1 17 4q15 1 147 2v-262l-111 1q-24 3 -31 4v-46q22 4 66 5h200q27 0 51 -3q3 0 15 -2v46q-4 0 -9 -2l-143 -3v262q141 0 156 -3q1 0 4 -1l15 -2v47q-13 -1 -28 -5l-147 -1v239l20 3q96 21 119 21h17
q-27 24 -44 48q-3 0 -100 -29q-7 0 -15 -3l-121 -14l-73 -1q18 -19 34 -51q16 1 26 4q4 0 9 1q18 3 90 13v-231zM77 128q4 -3 11 -6q13 21 21 38q9 16 23 46l59 127l28 65v-511q0 -28 -3 -54q0 -3 -3 -11h50q-4 19 -5 46l-1 520l80 -82l19 -28l28 44q-12 10 -23 21l-46 40
q-33 33 -58 55v58q84 0 97 -2q9 0 21 -4v47l-98 -6h-20v171q0 37 13 66h-57q6 -51 6 -77v-160h-91q-24 1 -50 3q-6 1 -16 3v-47q3 0 8 2q4 0 10 1l126 3q-4 -21 -11 -39q-6 -21 -19 -57q-15 -42 -35 -85q-18 -42 -41 -84q-33 -60 -65 -89q6 0 41 -13z" />
  </g>

</svg>
