<?xml version="1.0" standalone="no"?>
<!DOCTYPE svg PUBLIC "-//W3C//DTD SVG 1.1//EN" "http://www.w3.org/Graphics/SVG/1.1/DTD/svg11.dtd" >
<svg xmlns="http://www.w3.org/2000/svg" xmlns:xlink="http://www.w3.org/1999/xlink" version="1.1" viewBox="-10 0 1034 1024">
  <g transform="matrix(1 0 0 -1 0 820)">
   <path fill="currentColor"
d="M207 524q1 4 5 8q1 7 5 13q-57 28 -134 62q-7 -16 -22 -39q21 -3 66 -22q45 -21 70 -46q0 1 1 4q0 6 6 16q0 3 3 4zM118 337q19 -15 31 -27q1 -3 8 -7q18 22 51 53q7 12 58 65q18 19 38 39q9 9 13 16q-9 27 -14 60q-12 -22 -27 -44q-18 -24 -55 -62q-60 -61 -110 -89
q3 -1 7 -4zM142 718q42 -9 72 -27q43 -24 67 -52q1 3 3 6q3 3 8 12q6 12 18 23l-139 81q-18 -31 -29 -43zM569 686q-6 -66 -23 -129q-27 -96 -111 -155q-60 -37 -100 -45q30 -21 47 -43q37 25 66 48q24 18 43 34q27 24 54 61q24 36 36 79q6 25 14 60q7 39 15 90h159
q-3 -70 -9 -123q-3 -46 -10 -85q-6 -49 -18 -66q-12 -18 -57 -18q-25 0 -52 4q10 -21 16 -43q1 -6 3 -12q7 0 15 3q75 10 99 30q19 16 31 83l13 145q6 66 15 123q-60 -4 -70 -5l-347 3q-4 1 -7 1q-3 1 -5 1v-47q9 4 39 5zM344 459q33 -6 39 -8q1 -1 4 -3h2q19 39 22 45
q18 49 33 77q10 18 27 32q-22 4 -36 11q-9 3 -18 9q-9 -42 -32 -95q-24 -48 -49 -67q3 0 8 -1zM835 598q-9 -6 -26 -15q34 -33 62 -73q33 -52 48 -87l29 23q3 0 6 3q3 0 6 3l-110 157q-7 -4 -15 -11zM483 203l-401 3l-8 2q-3 1 -5 1v-47q12 3 24 5l344 1q-48 -55 -92 -91
q-43 -34 -107 -72q-97 -55 -174 -67q28 -25 41 -47q54 22 103 49q46 24 103 64q100 67 172 155v-242q0 -45 -5 -68h48q-1 3 -5 68v230q36 -48 110 -102q84 -63 208 -111l80 -29q1 3 6 11q1 1 3 6q9 18 26 36q-36 4 -85 15q-36 7 -94 34q-58 25 -93 49q-87 60 -129 112h312
q24 0 53 -2q9 0 15 -4v47q-24 -6 -68 -6h-344v47q0 15 3 30q3 21 17 33h-63q4 -99 5 -104v-6z" />
  </g>

</svg>
