<?xml version="1.0" standalone="no"?>
<!DOCTYPE svg PUBLIC "-//W3C//DTD SVG 1.1//EN" "http://www.w3.org/Graphics/SVG/1.1/DTD/svg11.dtd" >
<svg xmlns="http://www.w3.org/2000/svg" xmlns:xlink="http://www.w3.org/1999/xlink" version="1.1" viewBox="-10 0 1010 1000">
   <path fill="currentColor"
d="M619 -17q98 1 111 9q1 2 -5 9q-15 19 -15 39v131h105q68 0 92 -4v75q-39 -4 -95 -4h-102v127h125q89 0 129 -7v83q-6 0 -23 -2q-63 -6 -106 -6h-327q-87 1 -133 8v-83q32 7 133 7h119v-125h-127q-6 16 -21 73q-5 18 -7 27q-36 -21 -87 -18q60 -108 65 -290q5 0 15 1
q91 5 91 19q1 2 -4 8q-16 16 -20 38q-3 13 -7 33q-6 25 -9 42h111v-121q0 -44 -7 -64q-2 -4 -1 -5zM181 -17q92 5 115 17q1 2 -8 10q-18 18 -18 30v177q85 0 115 -8v83q-53 -8 -115 -8v117l59 -24q17 27 59 109q18 35 27 52l-86 30q-23 -75 -59 -141v357q0 73 2 99
q1 27 6 34h-97q7 -47 7 -131v-323q-44 135 -123 254q-14 -66 -37 -111q100 -144 157 -318h-32q-74 0 -105 8v-85q38 7 105 8h35v-139q0 -39 -6 -91q-1 -4 -1 -6zM431 530q56 10 125 10h180q86 -1 135 -10q-8 35 -8 123v131q-1 109 8 127h-95q6 -17 6 -87h-264q0 45 1 55
q0 15 3 24h-93q8 -40 8 -115v-133q0 -96 -6 -125zM518 608v148h264v-148h-264z" />
</svg>
