<?xml version="1.0" standalone="no"?>
<!DOCTYPE svg PUBLIC "-//W3C//DTD SVG 1.1//EN" "http://www.w3.org/Graphics/SVG/1.1/DTD/svg11.dtd" >
<svg xmlns="http://www.w3.org/2000/svg" xmlns:xlink="http://www.w3.org/1999/xlink" version="1.1" viewBox="-10 0 1034 1024">
  <g transform="matrix(1 0 0 -1 0 820)">
   <path fill="currentColor"
d="M672 357q-220 0 -239 3q-6 0 -14 2v-46l36 4l456 1q51 0 61 -3q3 0 6 -2v46q-21 -4 -67 -5h-201v172l199 -1q21 0 34 -4v46q-24 -4 -69 -5h-164v143q0 39 17 67h-60q3 -31 4 -42l1 -168h-137l5 15q0 6 15 52q3 18 8 23q6 16 21 33q-10 3 -22 5l-6 2q-12 3 -32 10
q-9 -75 -35 -147q-37 -99 -73 -132q24 -3 53 -18q3 6 10 18l18 41l27 62h148v-172zM482 191l4 -52l-1 -274q-1 -7 -2 -17q0 -3 -2 -15h47q0 3 -5 71v18h338v-14q0 -39 -5 -68h49q-6 60 -6 68l1 245q1 24 5 49q-18 -1 -33 -3q-24 -3 -70 -3l-275 1q-33 4 -46 5q0 -4 1 -11z
M861 161v-204h-338v204h338zM243 -99q0 -22 -3 -52q0 -9 -2 -16h49q-3 7 -6 65v462q21 -16 51 -49q36 -42 51 -71q9 18 36 45q-27 28 -54 52l-34 31q-28 28 -50 45v83q118 0 132 -3q3 0 6 -3v47q-12 -3 -36 -3q-21 -3 -74 -3h-28v174q0 9 3 27q3 21 14 38h-60q4 -42 5 -77
v-162l-157 3q-9 3 -13 3v-47q15 4 35 5l134 1q-4 -33 -54 -137q-76 -148 -151 -206q19 -6 28 -8q12 -3 28 -15q33 46 52 76q16 25 37 62l41 75q12 22 20 44v-486z" />
  </g>

</svg>
