<?xml version="1.0" standalone="no"?>
<!DOCTYPE svg PUBLIC "-//W3C//DTD SVG 1.1//EN" "http://www.w3.org/Graphics/SVG/1.1/DTD/svg11.dtd" >
<svg xmlns="http://www.w3.org/2000/svg" xmlns:xlink="http://www.w3.org/1999/xlink" version="1.1" viewBox="-10 0 1034 1024">
  <g transform="matrix(1 0 0 -1 0 820)">
   <path fill="currentColor"
d="M570 545q12 12 25 22q-60 81 -123 140q-12 -15 -36 -36q24 -13 41 -32q37 -39 62 -70l19 -37q6 7 12 13zM484 -99q0 -39 -5 -69h48q0 4 -2 10l-4 115v111h371v-138q0 -24 -13 -33q-12 -6 -41 -7q-15 0 -66 5q10 -22 17 -51q36 3 57 6q49 9 68 24q16 16 17 67l1 469l4 40
q-19 -1 -32 -2q-24 -3 -32 -3h-149v254q0 12 3 28q1 18 14 41h-60q4 -45 5 -69v-254l-160 1q-3 0 -46 4q4 -49 5 -59v-490zM521 276v133h371v-133h-371zM521 103v137h371v-137h-371zM770 541q27 -15 43 -29l44 55q21 24 34 43q13 18 37 52q22 30 49 45q-15 6 -27 13
q-10 6 -33 21q-15 -46 -62 -111q-43 -58 -85 -89zM99 144q12 18 29 45q21 34 56 97l42 81q7 21 16 33v-497q0 -24 -3 -53q0 -1 -2 -16h48q-4 57 -5 100v438q33 -24 64 -51q30 -30 42 -44q7 -12 19 -27q24 33 34 43q-1 1 -65 56q-18 15 -90 69q-3 1 -4 2v76h81q25 0 54 -2
q9 0 15 -4v47q-6 -1 -15 -2q-72 -3 -108 -4h-27v168q0 9 3 27q3 21 14 38h-60q4 -42 5 -76v-157l-164 3q-4 1 -7 2t-5 1v-47q18 3 36 5l132 1q-18 -63 -60 -144q-39 -78 -79 -128q-33 -39 -58 -56q25 -6 43 -15q9 -4 19 -9v0z" />
  </g>

</svg>
