<?xml version="1.0" standalone="no"?>
<!DOCTYPE svg PUBLIC "-//W3C//DTD SVG 1.1//EN" "http://www.w3.org/Graphics/SVG/1.1/DTD/svg11.dtd" >
<svg xmlns="http://www.w3.org/2000/svg" xmlns:xlink="http://www.w3.org/1999/xlink" version="1.1" viewBox="-10 0 1010 1000">
   <path fill="currentColor"
d="M190 -23q82 7 104 19q0 3 -4 10q-17 28 -22 64v149h24q61 -1 93 -8v87q-43 -8 -93 -8h-24v105l42 -16q50 62 93 139l-80 36q-16 -55 -55 -115v353q1 79 8 121h-86q9 -57 10 -127v-391q-36 133 -121 294q-22 -51 -51 -83q82 -109 141 -316h-20q-72 1 -109 8v-85
q43 7 111 8h49v-143q-3 -76 -10 -101zM599 -8q12 5 35 13q81 30 70 35q-1 2 -7 5q-34 17 -78 61q-7 7 -39 40q-39 41 -62 65q13 -2 97 -4q155 -5 165 -10l-80 -72l70 -43q125 112 180 188l-81 48l-42 -62q-303 14 -406 30l-14 -79q77 -17 192 -215zM542 290q75 36 75 48
q-1 3 -8 5q-25 9 -55 34q-20 17 -65 50q-38 28 -60 46q-26 -30 -74 -56q90 -32 187 -127zM744 292q139 89 189 125l-64 64q-66 -70 -186 -139zM548 405q104 19 101 28q-1 3 -9 8q-31 21 -47 53h157q48 0 97 -7q-36 155 -127 259q123 55 230 60q-7 10 -19 25q-33 37 -40 72
q-108 -31 -234 -101q-3 2 -10 6q-131 74 -248 103q-8 -35 -53 -74l-9 -9q169 -24 260 -82q-48 -65 -77 -136q-52 74 -71 92q-24 26 -48 54q-39 -36 -88 -43q151 -107 235 -308zM577 558q15 52 82 139q63 -67 89 -139h-171z" />
</svg>
