<?xml version="1.0" standalone="no"?>
<!DOCTYPE svg PUBLIC "-//W3C//DTD SVG 1.1//EN" "http://www.w3.org/Graphics/SVG/1.1/DTD/svg11.dtd" >
<svg xmlns="http://www.w3.org/2000/svg" xmlns:xlink="http://www.w3.org/1999/xlink" version="1.1" viewBox="-10 0 1034 1024">
  <g transform="matrix(1 0 0 -1 0 820)">
   <path fill="currentColor"
d="M543 318l-132 4q-3 1 -6 1v-46q15 3 36 4l472 1q51 0 61 -3q3 0 6 -2v46q-21 -4 -67 -5h-72l4 86q1 91 5 103q0 4 1 8l3 27q-55 -4 -85 -5h-148l25 142l249 -1l33 -4v46q-18 -4 -69 -5q-423 3 -434 5v-46q7 0 17 2q30 1 61 3h104l-24 -142l-130 4q-3 0 -6 1v-46
q15 3 36 4l93 1zM581 318l32 183h197l-8 -183h-221zM469 199q1 -30 5 -62l-1 -266q-1 -18 -4 -30h47q-1 18 -3 38q0 12 -2 33h336q-3 -27 -3 -42q0 -9 -2 -15h48q-4 39 -5 57l1 243l4 44q-31 -1 -63 -5l-313 1q-15 3 -45 4zM511 -52v211h336v-211h-336zM94 133q15 22 38 64
l58 108l43 91l-1 -517l-4 -41h49q-3 9 -3 15q-1 28 -3 53v458q27 -27 49 -55q4 -6 31 -49q1 -7 5 -12q6 9 13 17q13 13 22 26q-1 3 -50 57q-13 16 -64 67q-3 3 -6 5v76q111 0 122 -3q3 0 6 -3v47q-7 0 -15 -3q-1 -1 -21 -2l-92 -1v175q0 9 3 27q3 21 14 38h-60q4 -42 5 -77
v-163l-157 3q-4 1 -7 2t-5 1v-47l42 6h122q-4 -22 -16 -50q-40 -91 -85 -173q-30 -52 -53 -85q-18 -25 -35 -39q19 -6 38 -11q7 -1 17 -5v0z" />
  </g>

</svg>
