<?xml version="1.0" standalone="no"?>
<!DOCTYPE svg PUBLIC "-//W3C//DTD SVG 1.1//EN" "http://www.w3.org/Graphics/SVG/1.1/DTD/svg11.dtd" >
<svg xmlns="http://www.w3.org/2000/svg" xmlns:xlink="http://www.w3.org/1999/xlink" version="1.1" viewBox="-10 0 1010 1000">
   <path fill="currentColor"
d="M254 -27q72 4 99 15q0 2 -4 10q-15 34 -16 62v53h20q74 0 115 -7v85q-44 -8 -115 -8h-20v127q0 82 8 137h-87q8 -56 8 -137v-87q-49 121 -153 224q-36 -43 -83 -56q126 -56 190 -208h-24q-75 0 -119 8v-85q51 7 121 7h68v-51q0 -54 -8 -89zM643 -23q76 1 97 13q1 1 -2 7
q-12 26 -16 65v50h88q53 0 101 -8q15 -2 20 -2v89q-45 -7 -119 -8h-26q19 100 176 186q-48 28 -71 70q-119 -97 -169 -246v123q0 68 5 117q1 8 1 10h-85q3 -8 6 -58t2 -69v-89q-39 111 -133 190q-32 -34 -78 -52q125 -70 171 -182q-12 -1 -55 2q-39 3 -44 6v-85q32 6 139 6
v-42q0 -62 -8 -93zM389 399q106 30 107 38q0 3 -8 7q-30 15 -63 48h240q69 1 158 -7q-81 383 -682 426q-12 -50 -68 -101q179 20 417 -52q-34 -38 -115 -89l69 -57l127 103q88 -61 127 -151h-319l-7 7q-83 85 -162 146q-24 -46 -77 -62q184 -90 256 -256zM393 223
q39 29 85 77l-55 50q-41 -52 -80 -82z" />
</svg>
