<?xml version="1.0" standalone="no"?>
<!DOCTYPE svg PUBLIC "-//W3C//DTD SVG 1.1//EN" "http://www.w3.org/Graphics/SVG/1.1/DTD/svg11.dtd" >
<svg xmlns="http://www.w3.org/2000/svg" xmlns:xlink="http://www.w3.org/1999/xlink" version="1.1" viewBox="-10 0 1034 1024">
  <g transform="matrix(1 0 0 -1 0 820)">
   <path fill="currentColor"
d="M534 182q0 4 1 13q3 24 13 52q-25 0 -55 8l-4 -100q-6 -123 -71 -197q-46 -45 -112 -64q25 -24 41 -46q42 30 60 46q12 9 18 16q88 81 102 211q3 31 7 61zM619 585q-33 -57 -94 -136q-42 -51 -63 -71q-21 -18 -47 -27q12 -21 18 -56q121 13 128 14h6l297 18
q24 -27 36 -54q30 37 36 41l-74 74q-73 67 -95 85l-21 18q-13 -21 -33 -38q63 -36 115 -93l-108 -5l-227 -10l80 100l101 140l234 -1q21 0 33 -4v46q-21 -4 -68 -5l-418 1q-4 0 -26 1l-6 2t-6 1v-46q19 4 39 5h163zM557 746q46 -27 77 -53q36 -27 59 -50q1 -3 7 -8
q6 12 30 35l-79 62q-22 19 -63 48q-10 -16 -31 -34zM662 -117q0 10 -2 22q0 15 -3 46l1 237q0 12 8 31q3 9 10 18h-63q3 -6 3 -17q3 -45 3 -50v-219q0 -28 -3 -53q0 -3 -3 -15h49zM758 250q1 -34 5 -70v-251q0 -46 29 -59q18 -7 78 -8q45 0 69 20q18 13 34 74q3 10 5 22
q-15 6 -26 11q-6 3 -17 12q0 -28 -5 -49q-7 -34 -20 -45q-10 -7 -40 -8q-51 0 -61 9q-7 9 -8 33v238q0 12 3 31q1 21 10 40h-56zM220 -94q0 -21 -3 -52q0 -6 -3 -15h50q-3 9 -3 15q-1 28 -3 52v465q73 -66 94 -111q7 12 14 20l22 24q-4 4 -8 9l-92 87q-13 12 -30 25v57
q96 0 115 -2q18 0 30 -3v46q-7 0 -15 -3l-130 -2v186q0 28 16 65h-60q6 -18 6 -65v-186l-143 4q-3 1 -5 1v-46q3 0 5 1q6 3 44 3l95 1q-10 -48 -47 -126q-16 -34 -36 -68q-18 -33 -39 -60q-39 -49 -68 -72q33 -7 53 -22q24 31 40 56q15 21 28 44q42 75 73 138v-466z" />
  </g>

</svg>
