<?xml version="1.0" standalone="no"?>
<!DOCTYPE svg PUBLIC "-//W3C//DTD SVG 1.1//EN" "http://www.w3.org/Graphics/SVG/1.1/DTD/svg11.dtd" >
<svg xmlns="http://www.w3.org/2000/svg" xmlns:xlink="http://www.w3.org/1999/xlink" version="1.1" viewBox="-10 0 1034 1024">
  <g transform="matrix(1 0 0 -1 0 820)">
   <path fill="currentColor"
d="M590 270v-202q0 -45 -5 -69h48q0 7 -2 16q0 24 -3 53v202q27 0 59 -5v46q-15 -3 -48 -4q-6 0 -11 -1v95q0 3 3 28q3 24 13 43h-59q1 -4 2 -12q1 -30 3 -60v-94h-92v89l3 29q3 27 12 47h-58l4 -50l1 -115l-76 4q-3 1 -5 1v-46q66 6 81 5q-21 -208 -90 -309
q-24 -31 -47 -47q13 -4 29 -9q9 -1 14 -5q6 -3 15 -9q55 90 81 170q24 84 36 209h92zM703 566l-257 1q-31 3 -47 4v-46q4 3 60 5h247l11 -255q9 -91 26 -189q-18 -30 -44 -61q-25 -27 -68 -67q-37 -34 -94 -54q24 -12 47 -42q13 15 57 49q6 4 15 13q12 13 26 26q40 42 76 85
q48 -114 82 -149q30 -33 60 -34q21 0 34 13q16 18 28 48q6 18 22 71q-27 12 -46 29q-7 -117 -40 -118q-9 0 -21 11q-27 28 -48 69q-24 46 -41 98q28 54 46 96q16 39 33 93l25 78q6 21 25 45q-3 0 -27 8q-12 3 -21 7q-6 3 -14 6q0 -45 -31 -151q-25 -75 -50 -121
q-10 84 -19 177q-6 97 -9 219q183 0 193 -3q4 0 8 -2v46q-19 -4 -69 -5h-135v139q0 15 3 35q3 18 13 37h-61q3 -40 5 -73v-138zM790 709l99 -104q13 15 28 29l-96 102q-16 -13 -31 -27zM36 145l18 -6q9 -3 29 -13q27 45 43 74q12 22 64 133q24 48 33 72l-2 -497
q0 -34 -2 -51q0 -9 -3 -17h48q-4 54 -5 99v431q4 -7 11 -16q27 -40 33 -51q6 -13 17 -42l42 34q-22 33 -52 72q-27 36 -51 62v67q57 0 78 -2q21 0 30 -4v47q-7 0 -15 -3l-93 -3v173q0 9 3 27q3 21 13 38h-59q4 -42 5 -76v-162l-143 3q-4 1 -7 2t-5 1v-47q15 4 40 5l103 1
q-6 -30 -25 -76q-21 -52 -53 -120q-51 -105 -103 -151q3 -1 8 -4v0z" />
  </g>

</svg>
