<?xml version="1.0" standalone="no"?>
<!DOCTYPE svg PUBLIC "-//W3C//DTD SVG 1.1//EN" "http://www.w3.org/Graphics/SVG/1.1/DTD/svg11.dtd" >
<svg xmlns="http://www.w3.org/2000/svg" xmlns:xlink="http://www.w3.org/1999/xlink" version="1.1" viewBox="-10 0 1010 1000">
   <path fill="currentColor"
d="M641 -12q93 10 103 18q0 2 -4 6q-20 23 -20 62v53h72q88 -1 135 -8v88q-50 -8 -135 -8h-26q74 146 182 180q-44 35 -65 80q-122 -90 -163 -224v99q4 95 10 123h-89q3 -6 6 -55q3 -54 2 -70v-72q-39 72 -149 197q-33 -30 -89 -52q129 -66 198 -206q-63 0 -101 8v-88
q45 8 109 8h32v-53q1 -10 -2 -47q-3 -34 -6 -39zM260 -10q79 5 103 20q1 1 -3 6q-20 26 -21 62v49h30q60 0 107 -8v88q-44 -8 -107 -8h-30v131q4 98 10 123h-89q3 -9 6 -57q3 -46 2 -64v-54q-62 92 -155 187q-26 -34 -79 -54q156 -98 204 -212h-32q-77 0 -123 8v-88
q55 8 119 8h66v-51q0 -50 -8 -86zM389 237q18 11 87 81l-57 47q-36 -50 -76 -85zM268 485q57 7 115 7h188q52 0 119 -7q-7 61 -7 123v127q-5 81 33 71h64q50 -9 51 -115q33 47 94 59q-25 143 -129 137h-117q-75 -1 -76 -93v-230h-248q1 158 -43 215q-41 65 -193 128
q-32 -60 -73 -87q134 -20 178 -62q46 -37 52 -141q0 -80 -8 -132zM472 598q6 11 32 53q29 47 48 78l-82 33q-23 -67 -69 -135z" />
</svg>
