<?xml version="1.0" standalone="no"?>
<!DOCTYPE svg PUBLIC "-//W3C//DTD SVG 1.1//EN" "http://www.w3.org/Graphics/SVG/1.1/DTD/svg11.dtd" >
<svg xmlns="http://www.w3.org/2000/svg" xmlns:xlink="http://www.w3.org/1999/xlink" version="1.1" viewBox="-10 0 1034 1024">
  <g transform="matrix(1 0 0 -1 0 820)">
   <path fill="currentColor"
d="M645 355q3 -43 4 -69q0 -42 -8 -96q-10 -66 -34 -114q-54 -105 -175 -157q-45 -18 -87 -24q21 -15 41 -47q114 49 176 101q75 63 111 190q28 -81 102 -160q57 -57 165 -124q24 33 42 46q-88 27 -174 106q-91 84 -121 222q1 21 3 45q3 48 17 75q-36 0 -56 5q-3 1 -6 1z
M516 274q-15 6 -36 16q-18 -63 -33 -87l-33 -61q-9 -15 -27 -40q24 -6 45 -19q7 13 15 28l37 77q21 43 29 54q9 12 28 23q-13 4 -25 9zM477 715q-43 3 -57 4q-3 0 -7 1v-46q55 6 90 5h371v-115l-411 1q-24 3 -28 4v-46q24 4 49 5h390v-109l-423 1q-24 3 -23 2q-6 1 -14 2
v-46q6 3 33 4l394 1q37 -1 76 -5q-4 49 -5 68l1 226l4 48q-34 -1 -69 -5h-371zM771 141q12 -4 44 -23q34 43 71 96q25 36 55 52q-28 15 -52 30l-2 2q-18 -34 -48 -79q-21 -31 -35 -48q-12 -13 -33 -30zM63 142q9 -3 15 -6q9 -1 18 -5q12 16 25 39l41 72q22 40 38 72
q12 28 27 67v-480q0 -27 -3 -53q0 -3 -3 -11h50q-1 4 -2 7l-4 57v487l47 -52l28 -31q15 -19 36 -52q9 12 36 38q-33 36 -78 83l-69 69v69h74q28 0 50 -3q3 0 15 -2v46q-4 0 -9 -2l-130 -3v146q0 37 13 67h-57q1 -10 6 -64v-149q-150 3 -160 5v-46q54 4 78 5h81
q-7 -43 -32 -108q-39 -96 -88 -176q-21 -33 -36 -52q-12 -15 -28 -30q10 -1 21 -4v0z" />
  </g>

</svg>
