<?xml version="1.0" standalone="no"?>
<!DOCTYPE svg PUBLIC "-//W3C//DTD SVG 1.1//EN" "http://www.w3.org/Graphics/SVG/1.1/DTD/svg11.dtd" >
<svg xmlns="http://www.w3.org/2000/svg" xmlns:xlink="http://www.w3.org/1999/xlink" version="1.1" viewBox="-10 0 1010 1000">
   <path fill="currentColor"
d="M585 -13q101 12 105 29q1 5 -9 13q-6 6 -8 9q79 204 293 280q-43 42 -67 89q-210 -135 -266 -323q-96 219 -240 343q-37 -33 -85 -50q187 -99 277 -390zM187 0q89 2 101 18q1 7 -6 23q-11 26 -12 49q0 10 -1 28q-3 55 -3 87h16q11 0 70 -4q25 -1 35 -2v79q-43 -7 -107 -8
h-14v167l57 -28q38 44 92 133l-74 40q-28 -66 -75 -123v279q0 50 6 171h-87q6 -78 7 -169v-319q-41 161 -107 254l-57 -75q79 -96 159 -330h-12q-74 1 -119 6v-75q71 5 117 6h19q0 -145 -5 -207zM790 419q113 36 107 48q-1 6 -10 16q-24 24 -40 63q-6 14 -19 46
q-46 115 -78 184h28q96 -3 151 -8v88q-55 -6 -145 -8h-282q-63 1 -161 8v-88q107 8 157 8h177q61 -109 115 -357zM641 433q24 81 53 230l-85 12q-21 -146 -49 -230zM496 455q34 114 58 242l-84 10q-14 -143 -53 -242zM762 381q-33 -5 -99 -6q-70 -1 -143 2v-71q86 7 242 2
v73z" />
</svg>
