<?xml version="1.0" standalone="no"?>
<!DOCTYPE svg PUBLIC "-//W3C//DTD SVG 1.1//EN" "http://www.w3.org/Graphics/SVG/1.1/DTD/svg11.dtd" >
<svg xmlns="http://www.w3.org/2000/svg" xmlns:xlink="http://www.w3.org/1999/xlink" version="1.1" viewBox="-10 0 1034 1024">
  <g transform="matrix(1 0 0 -1 0 820)">
   <path fill="currentColor"
d="M507 148l-156 4q-3 1 -5 1v-47q9 4 39 5l530 1q27 0 61 -4q3 0 8 -2v47q-21 -4 -69 -5h-87v431q84 0 94 -3q3 0 9 -3v47q-25 -6 -68 -6h-35v96q0 9 3 26q1 19 13 42h-60q3 -12 3 -19q1 -27 3 -49v-96h-246v99q0 12 3 28q3 15 14 37h-59q1 -31 5 -64v-100l-101 3
q-4 1 -7 2t-5 1v-47l26 5l87 1v-431zM790 420v-115h-246v115h246zM544 459v120h246v-120h-246zM544 148v119h246v-119h-246zM562 1q24 18 56 35l-32 25q-7 7 -18 19q-30 -48 -111 -119q-61 -51 -118 -72q18 -13 42 -40q60 45 112 89zM706 36q43 -16 103 -68q70 -60 106 -118
q22 30 38 42q-90 85 -212 187q-18 -27 -35 -43zM221 -85q0 -27 -5 -68h48q-4 54 -5 99v435q75 -51 122 -118q18 28 35 44q-16 16 -82 70l-75 56v57q111 0 121 -3q4 0 7 -2v46q-3 0 -5 -1q-9 0 -30 -3l-93 -1v184q0 9 3 27q3 21 13 38h-59q4 -39 5 -65v-184l-146 4q-3 1 -5 1
v-46q1 1 5 1q3 3 29 3l112 1q-27 -108 -85 -227q-28 -54 -47 -79q-18 -24 -43 -48q27 -4 57 -19q21 28 59 103q33 72 64 145v-450z" />
  </g>

</svg>
