<?xml version="1.0" standalone="no"?>
<!DOCTYPE svg PUBLIC "-//W3C//DTD SVG 1.1//EN" "http://www.w3.org/Graphics/SVG/1.1/DTD/svg11.dtd" >
<svg xmlns="http://www.w3.org/2000/svg" xmlns:xlink="http://www.w3.org/1999/xlink" version="1.1" viewBox="-10 0 1034 1024">
  <g transform="matrix(1 0 0 -1 0 820)">
   <path fill="currentColor"
d="M575 366h123q57 -85 107 -134q66 -61 146 -103q19 33 40 50q-69 15 -145 71q-58 42 -99 116q195 0 205 -3q4 0 7 -2v46q-21 -4 -69 -5h-299q12 25 18 45q7 19 18 52l242 -1l33 -4v46q-18 -4 -69 -5h-197q7 34 12 57q3 16 5 35l247 -1q22 0 32 -4v46q-21 -4 -67 -5h-205
q6 73 9 77q3 19 12 33h-61q0 -4 2 -10l2 -58q0 -12 -4 -42l-208 4q-3 0 -7 1v-46q39 4 64 5h143q0 -15 -12 -71q-1 0 -5 -21l-125 1q-18 3 -41 3q-3 1 -5 1v-46q15 4 58 5h103l-16 -48q-7 -19 -22 -49l-171 4q-3 1 -5 1v-46q27 3 54 5h101q-51 -87 -128 -143
q-61 -42 -124 -58q24 -18 45 -44q139 87 207 173q9 10 30 43q9 19 18 28q0 1 1 1zM632 189l-164 4q-1 1 -3 1v-47q24 6 37 6h130v-111l-257 4q-3 1 -5 1v-46q27 3 54 5h208v-98q0 -48 -5 -67h48q0 10 -2 22q-1 33 -3 65v78l228 -1q21 0 34 -4v46q-19 -4 -68 -5h-194v111
q154 0 164 -3q3 0 8 -3v47q-21 -4 -69 -5h-103v47q0 28 15 66h-58q1 -33 5 -66v-47zM67 142q3 0 5 -2q3 -1 11 -4q15 22 38 64q25 45 54 100q12 30 26 58q6 10 12 24l-1 -509q-1 -9 -2 -23q0 -4 -3 -16h50q-3 7 -6 66v493q30 -30 58 -69q3 -6 9 -15q12 -19 24 -45q0 1 30 31
q4 3 10 10q-4 7 -19 25q-12 13 -34 40l-44 49l-34 35v50q115 0 125 -3q3 0 6 -2v46q-34 -1 -69 -5h-62v159q0 9 3 27q3 21 13 38h-60q3 -9 3 -15q1 -30 3 -50v-159l-138 4q-3 1 -5 1v-46q51 4 104 5h36q-6 -31 -20 -69q-16 -42 -46 -103q-67 -135 -115 -178q16 -3 27 -8
q4 -1 11 -4v0z" />
  </g>

</svg>
