<?xml version="1.0" standalone="no"?>
<!DOCTYPE svg PUBLIC "-//W3C//DTD SVG 1.1//EN" "http://www.w3.org/Graphics/SVG/1.1/DTD/svg11.dtd" >
<svg xmlns="http://www.w3.org/2000/svg" xmlns:xlink="http://www.w3.org/1999/xlink" version="1.1" viewBox="-10 0 1034 1024">
  <g transform="matrix(1 0 0 -1 0 820)">
   <path fill="currentColor"
d="M431 -92q54 63 86 119q34 58 46 71q12 15 38 29q-37 16 -59 38q-6 -27 -21 -55q-12 -24 -50 -82q-25 -39 -42 -55q-16 -16 -47 -37q15 -4 35 -16q6 -6 14 -12zM452 538q0 -36 -7 -68h48q0 6 -1 12q-3 7 -4 36l-1 62h425v-34q0 -48 -5 -68h49l-4 38q-3 48 0 70q0 3 1 5
l3 30q-60 -4 -62 -5h-189q9 15 26 37q-28 31 -61 58l-47 41q-9 7 -14 12q-7 -7 -14 -16q-6 -9 -21 -20q24 -12 68 -48q42 -39 55 -64l-209 1q-15 3 -43 4q6 -69 7 -81v-2zM733 225h165q24 0 54 -2q6 0 15 -4v47q-21 -4 -69 -5l-434 2q-6 3 -12 3v-47q19 4 30 5l213 1v-299
q0 -28 -12 -36q-9 -6 -49 -7q-21 0 -57 7q7 -18 11 -34q0 -6 2 -14q57 3 88 6q25 4 35 12q19 15 20 55v310zM885 429q-21 -4 -69 -5l-286 2l-6 2t-6 1v-46q6 0 12 3q24 0 52 2l269 -1l34 -4v46zM832 147q-21 -15 -42 -28q24 -18 80 -88l38 -59q21 -34 30 -55q9 6 16 13
q7 6 23 16q-48 72 -94 134q-15 18 -29 37q-15 24 -22 30zM229 -90q0 -27 -5 -68h49q-3 9 -3 15q-1 28 -3 53v440q75 -58 104 -117q9 16 20 30q0 1 4 6q6 7 8 12q-25 25 -79 73l-47 43q-6 3 -10 8v76q87 0 104 -2q13 0 26 -4v47q-9 -3 -15 -3l-115 -2v178q0 9 3 28
q3 21 13 38h-59q4 -42 5 -78v-166l-139 2q-6 3 -13 3v-47q3 0 6 2q6 3 43 3l98 1l-25 -90l-46 -112q-36 -73 -64 -115q-27 -36 -48 -50q27 -7 52 -23q58 84 103 194q16 36 33 73v-448z" />
  </g>

</svg>
