<?xml version="1.0" standalone="no"?>
<!DOCTYPE svg PUBLIC "-//W3C//DTD SVG 1.1//EN" "http://www.w3.org/Graphics/SVG/1.1/DTD/svg11.dtd" >
<svg xmlns="http://www.w3.org/2000/svg" xmlns:xlink="http://www.w3.org/1999/xlink" version="1.1" viewBox="-10 0 1034 1024">
  <g transform="matrix(1 0 0 -1 0 820)">
   <path fill="currentColor"
d="M502 -94q-1 -27 -3 -55l-2 -6t-1 -7h50q-4 9 -5 41l-1 235q90 -84 186 -141q48 -25 87 -44q43 -19 108 -44q15 27 36 51q-94 10 -205 68t-181 135h310q24 0 52 -2q12 0 16 -3v47q-4 -3 -16 -3q-25 0 -52 -3h-341v92l200 -1l47 -4q-4 24 -5 63q0 90 2 101q0 18 3 39
q-31 -1 -64 -5l-417 1q-15 3 -43 4q1 -33 5 -67q0 -69 -2 -97q-3 -3 -3 -39q49 4 74 5h165v-92l-389 5q-1 1 -2 1v-47q49 4 52 5h299q-88 -91 -216 -163q-51 -27 -90 -40q-36 -10 -85 -17q13 -12 25 -25q7 -9 16 -24q222 84 390 252v-216zM305 303v121h439v-121h-439z
M132 563q3 -21 3 -85q-4 -51 -6 -56h49q-6 33 -6 66v66h711l-4 -117q-1 -1 -1 -6h49q-3 3 -3 15q-3 54 -3 96l6 52q-60 -4 -64 -5h-327v111q0 12 3 31q1 21 13 43h-59q4 -42 5 -81v-104l-323 1q-19 3 -46 4zM396 651q-18 15 -54 40q-6 3 -55 37q-30 19 -45 29
q-13 -27 -22 -39l61 -32l77 -55q12 -9 23 -22q7 13 27 33zM775 755q-25 -27 -44 -43q-16 -15 -47 -36l-57 -40q15 -10 34 -31q111 90 115 91q24 18 59 26q-18 13 -49 44q-6 -4 -11 -11v0z" />
  </g>

</svg>
