<?xml version="1.0" standalone="no"?>
<!DOCTYPE svg PUBLIC "-//W3C//DTD SVG 1.1//EN" "http://www.w3.org/Graphics/SVG/1.1/DTD/svg11.dtd" >
<svg xmlns="http://www.w3.org/2000/svg" xmlns:xlink="http://www.w3.org/1999/xlink" version="1.1" viewBox="-10 0 1034 1024">
  <g transform="matrix(1 0 0 -1 0 820)">
   <path fill="currentColor"
d="M625 -68q0 -21 -13 -33q-10 -10 -38 -11q-19 0 -65 8q10 -16 18 -41l3 -12q40 3 92 11q12 6 25 14q16 15 17 68v294q64 -103 117 -163q54 -60 159 -142q21 21 44 38q-49 21 -107 67q-39 33 -67 60q-21 24 -42 52q6 6 51 33q6 6 42 26q27 18 36 21q21 12 49 16
q-24 27 -39 52q-37 -33 -72 -59q-36 -24 -91 -58q-18 21 -27 40l-32 59q-4 9 -19 43l157 -1l49 -4q-4 57 -5 83v83h46q28 0 50 -3q3 0 15 -2v46q-4 0 -9 -2l-102 -3q0 108 2 119q0 18 3 37q-34 -1 -69 -5h-139v42q0 36 12 66h-57q6 -30 6 -74v-34l-142 1q-9 1 -34 2
q-3 1 -14 2v-46q7 3 34 4l156 1v-115l-201 3q-6 1 -14 2v-46q3 1 7 1q7 3 33 4h175v-125l-171 3q-6 1 -15 2v-46q7 3 34 4l152 1v-123q-33 -25 -56 -40l-111 -75q-40 -27 -65 -41q-15 -7 -43 -18q18 -15 36 -45q16 15 44 35l97 70l98 66v-212zM664 512v115h165v-115h-165z
M664 351v125h165v-125h-165zM428 231l40 -42q10 -12 35 -45q13 16 33 31q-42 42 -75 79q-9 9 -20 19q-12 -13 -27 -26q6 -7 14 -16zM238 -97q0 -25 -3 -53q0 -3 -3 -11h50q-1 4 -2 7q-3 75 -4 89v442q31 -27 94 -108q13 22 31 41q-30 33 -65 67q-30 24 -60 56v68h53
q27 0 50 -3q3 0 15 -2v46q-4 0 -9 -2l-109 -3v162q0 37 14 66h-58q3 -15 6 -66v-162l-153 4q-4 1 -7 1v-46q54 4 78 5h76q-15 -63 -81 -199q-61 -121 -124 -172q37 -4 60 -21q34 54 71 119q21 37 38 75q18 39 42 100v-500z" />
  </g>

</svg>
