<?xml version="1.0" standalone="no"?>
<!DOCTYPE svg PUBLIC "-//W3C//DTD SVG 1.1//EN" "http://www.w3.org/Graphics/SVG/1.1/DTD/svg11.dtd" >
<svg xmlns="http://www.w3.org/2000/svg" xmlns:xlink="http://www.w3.org/1999/xlink" version="1.1" viewBox="-10 0 1010 1000">
   <path fill="currentColor"
d="M173 -10q78 -1 99 12q0 2 -3 9q-16 34 -17 81v117q92 -6 101 -10v85q-42 -8 -101 -8v109l56 -35q41 50 67 107l-62 35q-33 -67 -61 -93v371q0 69 5 108q1 9 1 13h-85q0 -3 1 -12q7 -48 7 -109v-317q-40 123 -102 232q-14 -57 -41 -97q94 -112 139 -312h-18q-10 -1 -53 2
q-38 3 -44 6v-85q49 8 97 8h22v-143q1 -9 -2 -41q-3 -29 -6 -33zM887 26q-8 41 -8 93v201q0 53 8 103q-51 -8 -115 -8h-97v83h154q71 0 115 -8v84q-51 -8 -113 -8h-93q78 131 226 188q-43 34 -67 78q-130 -90 -206 -233q-12 -22 -16 -27v228q-1 53 8 95h-88q3 -5 6 -44
q3 -43 2 -55v-224q-91 152 -240 270q-23 -35 -73 -60q147 -69 224 -216h-70q-68 0 -111 8v-84q44 8 109 8h161v-83h-103q-56 0 -101 8q8 -44 8 -103v-193q0 -60 -8 -101q46 8 111 8h280q53 0 97 -8zM804 102h-129v85h129v-85zM603 102h-123v85h123v-85zM804 256h-129v92h129
v-92zM603 256h-123v92h123v-92z" />
</svg>
