<?xml version="1.0" standalone="no"?>
<!DOCTYPE svg PUBLIC "-//W3C//DTD SVG 1.1//EN" "http://www.w3.org/Graphics/SVG/1.1/DTD/svg11.dtd" >
<svg xmlns="http://www.w3.org/2000/svg" xmlns:xlink="http://www.w3.org/1999/xlink" version="1.1" viewBox="-10 0 1010 1000">
   <path fill="currentColor"
d="M645 -10q96 1 101 8q-17 29 -20 48q-7 27 -6 89h86q67 1 107 -6v76q-54 -8 -105 -8h-86v79l62 -39q74 61 143 126l-68 58q-54 -70 -137 -133v18q0 64 8 109h-81q9 -31 10 -111v-58q-56 90 -159 181q-27 -31 -71 -54q129 -67 188 -176q-69 -1 -111 8v-78q54 8 109 8h42
q3 -80 -12 -145zM264 2q15 1 46 3q59 3 53 7q-15 13 -20 36q-4 22 -4 87h34q54 0 105 -8v76q-23 -4 -46 -5q-19 -1 -61 -1h-30v65l48 -33q32 18 93 73l-61 50q-36 -52 -80 -76q0 99 10 143h-85q11 -56 12 -139v-42q-57 103 -161 205q-31 -29 -89 -52q127 -57 204 -194h-42
q-63 0 -113 8v-78q64 8 113 8h86v-39q1 -34 -12 -94zM609 407q144 161 363 181q-48 45 -65 89q-120 -45 -144 -61q-13 -6 -21 -10q-10 44 -13 129q-4 88 -19 109q-29 39 -156 49q-5 -58 -38 -103q34 11 69 12q36 1 44 -10q15 -19 25 -122q1 -9 1 -13h-191q-23 100 -85 155
q-66 56 -240 93q-12 -54 -54 -91q269 7 300 -157h-44q-46 0 -67 1q-24 1 -42 5v-55q-62 35 -127 63q-28 -47 -67 -65q208 -53 343 -197q9 6 35 22q57 34 52 34q-1 3 -15 6q-19 5 -26 10q-89 62 -161 103q25 7 75 6h298q44 -1 65 -6l-14 -10q-69 -46 -106 -89l-40 -40z" />
</svg>
