<?xml version="1.0" standalone="no"?>
<!DOCTYPE svg PUBLIC "-//W3C//DTD SVG 1.1//EN" "http://www.w3.org/Graphics/SVG/1.1/DTD/svg11.dtd" >
<svg xmlns="http://www.w3.org/2000/svg" xmlns:xlink="http://www.w3.org/1999/xlink" version="1.1" viewBox="-10 0 1010 1000">
   <path fill="currentColor"
d="M700 -15q9 60 22 113h121q61 -1 99 -6q-5 24 -5 77v8q2 55 9 79h-99q10 -18 10 -91h-371q-1 70 8 91h-93q6 -27 6 -79v-16q-1 -40 -6 -67q24 4 109 4h127q-13 -61 -32 -102zM190 -10q90 1 100 10q1 3 -3 11q-13 28 -13 61v129h22q64 0 87 -6v81q-24 -6 -91 -6h-18v131
l55 -30q58 76 100 147l-78 42q-40 -99 -77 -141v343q-1 125 8 147h-90q6 -16 5 -85q-1 -36 -1 -58v-323q-35 101 -103 232q-29 -57 -59 -87q92 -99 154 -316q-17 -1 -40 -2q-21 0 -40 1q-38 1 -58 5v-81q30 6 103 6h43v-121q-1 -54 -6 -90zM450 262q65 6 145 6h103
q122 0 153 -6q-6 63 -6 117v26q0 71 6 107q-51 -6 -121 -6h-196v74h208q56 0 85 -1q34 -2 62 -5q-9 62 -6 131v37q0 106 12 139h-105q8 -24 8 -63h-264q0 66 6 87h-90q8 -36 8 -157v-353q-1 -83 -8 -133zM534 332v111h230v-111h-230zM800 643h-266v111h266v-111z" />
</svg>
