<?xml version="1.0" standalone="no"?>
<!DOCTYPE svg PUBLIC "-//W3C//DTD SVG 1.1//EN" "http://www.w3.org/Graphics/SVG/1.1/DTD/svg11.dtd" >
<svg xmlns="http://www.w3.org/2000/svg" xmlns:xlink="http://www.w3.org/1999/xlink" version="1.1" viewBox="-10 0 1034 1024">
  <g transform="matrix(1 0 0 -1 0 820)">
   <path fill="currentColor"
d="M335 -51q15 -7 28 -16q15 -7 28 -18q51 57 103 120q36 48 47 56q12 12 37 20q-31 13 -59 31q-7 -24 -36 -62q-42 -54 -84 -95q-33 -27 -64 -36zM659 706q-21 19 -41 39q-6 6 -14 13q-12 -15 -29 -30q48 -42 79 -73q22 -24 36 -42q18 21 31 30zM975 616q-7 -3 -13 -3
q-27 -1 -40 -3l-479 1l-40 5v-47q1 0 3 1q-1 0 10 1q27 3 55 4l463 -1q19 -1 41 -5v47zM473 480q1 -33 5 -66l-1 -151q-3 -12 -4 -47q57 4 87 5h105v-288q0 -21 -4 -28q-3 -6 -17 -10q-19 -6 -46 -7q-24 0 -52 8q6 -18 14 -52l50 5q54 6 76 22q18 15 18 54v296l122 -1l50 -4
q-4 54 -5 75l1 141q0 21 4 48q-34 -1 -70 -5l-282 1q-19 3 -51 4zM516 439h316v-182h-316v182zM773 120q90 -75 171 -193q9 15 29 30q0 1 -2 4q-4 4 -9 12q-37 48 -98 115l-58 59q-18 -18 -33 -27zM220 357q0 3 4 8q4 12 8 17v-475q0 -40 -5 -69h49q0 7 -3 15q0 24 -2 54
v459q73 -78 106 -128q10 12 33 29l-48 55l-91 96v90q115 0 122 -3q4 0 7 -2v46q-33 -1 -65 -5h-64v152q0 36 6 55q0 6 11 16h-61q1 -36 5 -72v-151q-96 0 -127 2q-7 1 -12 1l-13 2v-46q54 4 83 5h66q-12 -75 -80 -215q-36 -75 -61 -111t-54 -53q27 -6 54 -18q4 -1 8 -3
q22 37 44 80z" />
  </g>

</svg>
