<?xml version="1.0" standalone="no"?>
<!DOCTYPE svg PUBLIC "-//W3C//DTD SVG 1.1//EN" "http://www.w3.org/Graphics/SVG/1.1/DTD/svg11.dtd" >
<svg xmlns="http://www.w3.org/2000/svg" xmlns:xlink="http://www.w3.org/1999/xlink" version="1.1" viewBox="-10 0 1034 1024">
  <g transform="matrix(1 0 0 -1 0 820)">
   <path fill="currentColor"
d="M477 -85q-112 0 -124 3q-4 1 -7 2t-5 1v-47q6 0 12 4q24 0 50 2l546 -1q16 -1 35 -5v47q-18 -6 -69 -6h-49l1 534l4 46l-32 -4q-24 -3 -74 -3h-113l14 99l245 -1q21 0 34 -4v46q-21 -4 -68 -5h-207l6 32q6 51 12 66q1 12 17 34q-6 1 -21 4q-15 1 -41 12q0 -28 -3 -47
l-11 -101l-244 4q-3 1 -5 1v-46q66 6 99 5h145l-13 -99h-74q-9 0 -34 3q-6 3 -31 4q1 -30 5 -63v-517zM514 -85v108h314v-108h-314zM514 59v108h314v-108h-314zM514 202v111h314v-111h-314zM514 349v105h314v-105h-314zM88 103l82 141q28 55 60 126v-472q0 -22 -3 -53
l-2 -15h48q-4 54 -5 99v428q75 -66 101 -117q15 24 37 44q-66 66 -95 90q-22 19 -43 35v79q117 0 126 -3q4 0 7 -2v46q-109 -4 -112 -5h-21v174q0 9 3 27q3 21 13 38h-59q4 -42 5 -77v-162l-151 4q-3 1 -5 1v-46q51 4 105 5h46q-13 -60 -48 -136q-30 -70 -73 -140
q-39 -60 -71 -85z" />
  </g>

</svg>
