<?xml version="1.0" standalone="no"?>
<!DOCTYPE svg PUBLIC "-//W3C//DTD SVG 1.1//EN" "http://www.w3.org/Graphics/SVG/1.1/DTD/svg11.dtd" >
<svg xmlns="http://www.w3.org/2000/svg" xmlns:xlink="http://www.w3.org/1999/xlink" version="1.1" viewBox="-10 0 1034 1024">
  <g transform="matrix(1 0 0 -1 0 820)">
   <path fill="currentColor"
d="M415 209q9 21 25 33q-9 1 -20 6q-19 4 -40 14q-4 -40 -11 -67q-7 -30 -20 -67q-30 -87 -60 -111q18 -6 49 -19q33 78 50 129q7 21 15 47zM471 415l-87 1q-6 3 -26 3q-3 1 -5 1v-47q9 4 38 5l89 1v-382q0 -27 -15 -35q-15 -6 -48 -6q-21 0 -43 5q7 -21 14 -49l41 4
q42 9 64 19q24 12 24 47v397l123 -3l9 -3v47q-19 -4 -65 -5h-77v166q81 0 90 -3q1 0 5 -2v45q-21 -3 -65 -4h-30v109q0 7 2 25q1 15 9 34h-52q4 -39 5 -61v-309zM929 662q-60 -4 -63 -5l-208 1l-19 3v-44q21 3 41 4l9 -151l6 -62q3 -28 8 -55q9 -52 21 -102l32 -107
q-39 -72 -127 -161q-60 -57 -113 -80q27 -15 43 -34q48 36 100 87q24 25 45 50l59 75q3 6 14 18q37 -66 70 -117q28 -40 74 -89q24 18 54 31q-16 6 -30 18q-22 16 -40 36q-24 25 -47 60q-22 37 -57 99q31 66 56 140q24 78 39 148q12 63 20 136q6 72 8 75q1 13 5 26zM883 621
q0 -15 -4 -42q-3 -54 -10 -97q-6 -42 -21 -102q-13 -58 -29 -105q-15 -45 -36 -92q-31 96 -44 175q-7 52 -13 104l-9 159h166zM561 255q25 -31 46 -77q24 -57 32 -101q6 7 15 12q3 1 9 4l15 10q-40 100 -77 174q-21 -10 -40 -22zM225 -73q-4 -64 -5 -68h47q-4 39 -5 68v460
q54 -54 77 -104q18 27 25 32q3 4 8 8q-15 19 -46 53q-30 36 -64 66v76q108 0 117 -3q4 0 6 -2v46q-12 -3 -36 -3q-24 -1 -60 -2h-27v161q0 9 3 28q3 21 13 38h-58q1 -33 5 -66v-161l-133 4q-1 1 -3 1v-46q49 4 79 5h52q-9 -69 -66 -187q-58 -127 -106 -171q27 -3 48 -10
q3 0 9 -3q33 60 58 111q25 54 62 140v-471z" />
  </g>

</svg>
