<?xml version="1.0" standalone="no"?>
<!DOCTYPE svg PUBLIC "-//W3C//DTD SVG 1.1//EN" "http://www.w3.org/Graphics/SVG/1.1/DTD/svg11.dtd" >
<svg xmlns="http://www.w3.org/2000/svg" xmlns:xlink="http://www.w3.org/1999/xlink" version="1.1" viewBox="-10 0 1010 1000">
   <path fill="currentColor"
d="M173 -13q102 1 111 15q1 3 -6 9q-26 24 -26 69v129q72 -1 109 -6v79q-30 -6 -109 -6v149l48 -32q63 84 83 123l-71 36q-26 -67 -60 -97v309q0 112 8 149h-85q4 -12 5 -45q1 -16 1 -39v-65v-317q-7 17 -21 49q-60 144 -89 195q-25 -54 -49 -89q65 -55 155 -324
q-38 -2 -78 0q-36 1 -57 6v-81q29 7 139 6v-129q0 -59 -8 -93zM613 -19q88 -2 103 9q1 2 -3 8q-15 32 -15 78v28h114q87 -2 142 -10v83q-45 -8 -141 -8h-115v79h80q104 0 153 -6q-12 54 -52 181q-71 -15 -95 -14q32 -56 45 -95h-303q-98 0 -141 8v-80q46 6 143 6h93v-79
h-117q-85 1 -137 8v-79q45 5 135 6h117v-30q0 -61 -6 -93zM637 334q86 4 105 16q1 3 -4 11q-16 23 -16 48q-5 115 -16 197h111q115 -3 135 -8v79q-27 -7 -133 -6h-125q-77 160 -321 232q-19 -39 -71 -89q214 -11 305 -143h-107h-20q-102 -3 -139 4v-77q43 7 155 8h135
q9 -48 12 -153q2 -84 -6 -119zM732 705q143 85 216 135l-77 65q-64 -68 -196 -143zM446 433l135 89l-57 54q-33 -35 -127 -91zM496 328q33 15 113 67l-42 60q-43 -38 -113 -76z" />
</svg>
