<?xml version="1.0" standalone="no"?>
<!DOCTYPE svg PUBLIC "-//W3C//DTD SVG 1.1//EN" "http://www.w3.org/Graphics/SVG/1.1/DTD/svg11.dtd" >
<svg xmlns="http://www.w3.org/2000/svg" xmlns:xlink="http://www.w3.org/1999/xlink" version="1.1" viewBox="-10 0 1034 1024">
  <g transform="matrix(1 0 0 -1 0 820)">
   <path fill="currentColor"
d="M356 705q1 -31 5 -64l-1 -752q-3 -18 -3 -42q-1 -1 -1 -5h44q-1 6 -2 15q0 -3 -1 9q0 21 -2 44v754h123q-54 -195 -92 -265q52 -60 80 -115q33 -69 33 -118q0 -57 -31 -81q-19 -15 -52 -16q-18 1 -36 3q9 -19 17 -49q39 6 65 16q69 30 70 120q0 60 -33 134q-10 21 -21 39
l-35 51l-15 21q15 42 30 77l26 79q19 54 38 115q6 13 13 30l-126 -5q-33 0 -54 2q-6 3 -39 3zM911 588q33 -1 68 -5v46q-12 -3 -35 -3q-25 -1 -126 -2h-93q3 10 6 19q18 54 27 68q7 18 26 36q-13 3 -24 6l-37 15q-1 -21 -8 -42q-4 -21 -12 -41l-20 -60q-1 0 -1 -1l-90 1
q-15 3 -20 3q-3 1 -5 1v-46q51 4 102 5q-75 -168 -160 -226q33 -9 54 -22q22 27 66 93q43 72 81 155h201zM699 435q-15 0 -64 5q4 -49 5 -62l-1 -491q-3 -15 -3 -37q-1 -1 -1 -5h47q-6 66 -6 100v128h207v-158q0 -18 -11 -25q-19 -6 -45 -7q-13 0 -35 4q4 -21 7 -34
q0 3 2 -12q27 3 39 4q42 6 62 18q18 12 19 47l1 487l4 43q-60 -4 -96 -5h-131zM676 108v125h207v-125h-207zM676 271v128h207v-128h-207zM198 -89q-3 -51 -4 -62q-1 -3 -1 -6h48q-4 54 -5 99v431q58 -72 66 -106q22 22 40 31q-12 18 -63 77q-42 45 -43 48v67q66 0 77 -3
q4 0 7 -2v47q-7 -3 -36 -4l-48 -2v170q0 12 2 28q3 21 14 38h-59q1 -6 2 -17l3 -105v-114q-117 3 -122 5q-1 1 -3 1v-47q30 4 59 5h61q0 -12 -8 -36q-6 -24 -36 -97q-1 -3 -3 -7q-7 -24 -22 -58q-48 -102 -95 -142q30 -4 55 -17q12 18 41 75q24 49 41 93l32 90v-480z" />
  </g>

</svg>
