<?xml version="1.0" standalone="no"?>
<!DOCTYPE svg PUBLIC "-//W3C//DTD SVG 1.1//EN" "http://www.w3.org/Graphics/SVG/1.1/DTD/svg11.dtd" >
<svg xmlns="http://www.w3.org/2000/svg" xmlns:xlink="http://www.w3.org/1999/xlink" version="1.1" viewBox="-10 0 1010 1000">
   <path fill="currentColor"
d="M730 -15q85 6 101 15q0 1 -4 8q-29 49 -59 147h55q85 -1 133 -10v82q-51 -8 -135 -8h-75q-18 45 -52 93q-3 4 -4 6q41 8 76 8h63q51 0 90 -8q-8 38 -8 87v407q15 88 -96 94q-16 3 -25 5q-3 -48 -32 -89q56 8 68 1q17 -8 17 -41v-95h-143v91q2 4 4 59t4 60h-83
q7 -40 8 -117v-292q0 -52 -8 -83q-8 11 -30 37q-12 13 -18 21q-32 -43 -59 -52q165 281 -64 324q-3 -50 -31 -74v129q0 59 8 109h-84q8 -41 8 -109v-643q0 -57 -8 -99q34 8 91 10h48q72 -5 91 -10q-3 12 -8 37q-55 258 -67 296q2 2 6 9q2 5 4 7q92 -50 165 -178h-24
q-47 0 -76 8v-80q35 8 76 8h47q22 -54 30 -170zM165 -8q62 -1 93 10q1 2 -4 15q-11 34 -14 63v121q9 1 50 -2q37 -3 43 -6v83q-35 -8 -93 -8v117l44 -16q32 46 67 127l-67 28q-25 -65 -44 -99v365q1 74 8 119h-83q7 -49 8 -119v-343q-4 9 -17 36q-58 130 -89 186
q-13 -55 -43 -93q89 -108 137 -308h-20q-61 1 -93 8v-83q35 7 91 8h34v-119q0 -57 -8 -90zM492 125h-69v514q82 18 91 -59q2 -71 -79 -183q23 -66 41 -179q9 -61 16 -93zM700 393v80h143v-80h-143zM843 540h-143v79h143v-79z" />
</svg>
