<?xml version="1.0" standalone="no"?>
<!DOCTYPE svg PUBLIC "-//W3C//DTD SVG 1.1//EN" "http://www.w3.org/Graphics/SVG/1.1/DTD/svg11.dtd" >
<svg xmlns="http://www.w3.org/2000/svg" xmlns:xlink="http://www.w3.org/1999/xlink" version="1.1" viewBox="-10 0 1034 1024">
  <g transform="matrix(1 0 0 -1 0 820)">
   <path fill="currentColor"
d="M575 -85q0 -42 -6 -68h49l-5 56l-1 180l65 15q3 33 12 56q-24 -12 -77 -30v557q46 0 57 -3v44l-52 -4l-274 3q-1 1 -3 1v-44q4 0 10 2q12 0 48 2v-612q-31 -6 -53 -9q-16 -3 -39 -4q12 -22 25 -58q37 18 89 34l89 25l66 15v-158zM435 281h140v-167q-31 -9 -59 -16
q-30 -7 -81 -18v201zM435 316v166h140v-166h-140zM575 517h-140v165h140v-165zM722 716l4 -54l-1 -785q-1 -16 -4 -30h48q0 7 -2 15l-3 104v719h144q-13 -55 -49 -149q-30 -81 -55 -135q40 -28 76 -75q57 -73 57 -144q0 -51 -37 -72q-19 -9 -52 -9q-15 0 -40 4q0 -3 2 -7
q4 -15 11 -30q0 -1 1 -5t3 -10q87 6 121 38q31 30 32 90q0 63 -46 138q-18 31 -79 95l28 77q18 40 32 87l36 103l17 45q-76 -4 -115 -5q-66 0 -93 2q-6 3 -37 3q0 -4 1 -10zM210 -89q0 -27 -5 -67h48q-3 33 -5 67v466q54 -57 78 -113q27 28 41 39q-9 12 -73 83l-46 47v75
q82 0 92 -3q4 0 7 -2v46q-12 -3 -36 -3q-25 -1 -63 -2v152q0 9 3 28q3 21 13 38h-59q4 -42 5 -76v-142l-137 4q-3 1 -5 1v-46q51 4 103 5h35q-21 -78 -68 -175q-60 -120 -101 -160q24 -3 55 -18q45 76 118 241v-485z" />
  </g>

</svg>
