<?xml version="1.0" standalone="no"?>
<!DOCTYPE svg PUBLIC "-//W3C//DTD SVG 1.1//EN" "http://www.w3.org/Graphics/SVG/1.1/DTD/svg11.dtd" >
<svg xmlns="http://www.w3.org/2000/svg" xmlns:xlink="http://www.w3.org/1999/xlink" version="1.1" viewBox="-10 0 1034 1024">
  <g transform="matrix(1 0 0 -1 0 820)">
   <path fill="currentColor"
d="M403 -90q0 -36 -5 -64h49q-1 4 -2 7t-4 57v160q48 18 81 29q30 9 61 20q7 4 16 7v48q-31 -15 -37 -18q-39 -12 -66 -24q-21 -9 -55 -20v198h74q28 0 50 -3q3 0 16 -2v46q-3 0 -8 -1l-2 -1l-130 -3v157q102 0 130 -3q3 0 13 -2v46q-15 -1 -29 -4l-114 -1v136l92 24
q45 12 52 13q6 1 41 3q-16 15 -20 20q-12 15 -23 30q-19 -9 -36 -16q-18 -7 -55 -19q-43 -12 -94 -18q1 -33 5 -68v-541q-48 -13 -99 -23q9 -18 21 -51q18 9 59 25l19 6v-150zM534 -117q12 -7 28 -24q61 40 104 75q40 34 92 90q45 -54 72 -82l100 -87q18 21 49 39
q-45 16 -86 49q-64 54 -109 113q87 135 129 288q-36 -1 -74 -5l-183 1q-9 1 -36 2q-6 0 -14 4v-48q4 1 10 1q3 1 24 2q16 -115 90 -241q-31 -40 -91 -91q-66 -51 -127 -73q10 -6 22 -13zM859 303q-21 -67 -38 -104q-24 -45 -63 -106q-67 118 -81 210h182zM821 694v-184
q0 -46 24 -62q21 -12 64 -12q19 0 52 3q3 31 14 54q-45 -13 -72 -14q-25 0 -35 8q-9 9 -10 34l1 160q0 19 5 49q-1 3 0 5q-55 -4 -85 -5q-60 0 -85 2q-6 3 -37 3q4 -48 5 -94q0 -72 -9 -107q-12 -48 -47 -81q-16 -13 -52 -34q30 -15 46 -36q82 70 95 166q3 19 4 44v101h122z
M72 138l18 -6q12 19 28 52l58 118q9 21 17 42q6 15 13 28v-463q0 -10 -2 -27q0 -18 -2 -26q0 -3 -3 -11h51q-1 4 -2 7q-3 6 -5 57v450q51 -54 79 -106q18 18 37 40q-105 109 -116 121v86h51q28 0 50 -3q3 0 15 -2v46q-13 -1 -61 -5h-55v178q0 36 14 67h-58l7 -67v-178
q-130 3 -140 5v-46q-3 0 9 1q4 0 10 1q21 0 47 3h69q-3 -30 -12 -61q-19 -58 -43 -107l-37 -76q-13 -27 -26 -46q-18 -30 -49 -61q13 0 22 -4z" />
  </g>

</svg>
