<?xml version="1.0" standalone="no"?>
<!DOCTYPE svg PUBLIC "-//W3C//DTD SVG 1.1//EN" "http://www.w3.org/Graphics/SVG/1.1/DTD/svg11.dtd" >
<svg xmlns="http://www.w3.org/2000/svg" xmlns:xlink="http://www.w3.org/1999/xlink" version="1.1" viewBox="-10 0 1010 1000">
   <path fill="currentColor"
d="M589 -10q99 1 107 10q0 6 -7 13q-11 12 -14 29q-3 11 -6 40q-1 14 -2 18h125q75 0 123 -6v73q-30 -6 -125 -6h-127q-1 4 -3 17q-4 34 -7 47h85q99 0 141 -6v71q-36 -6 -139 -6h-97l-3 9q-12 38 -21 57h189q83 -1 123 -6v75q-42 -8 -123 -8h-52q52 105 220 141
q-36 42 -55 73q-3 4 -4 6q-52 -26 -88 -55q-6 25 -6 103v83q0 126 6 141h-85q6 -16 6 -55h-224q0 34 4 59h-82q6 -45 6 -137v-109v-10q1 -47 -4 -71q-16 19 -84 72q-6 5 -9 7q-21 -28 -73 -55q160 -81 234 -195h-46q-65 -3 -111 6v-75q21 0 83 5q24 2 38 3h64q0 -1 1 -3
q13 -35 20 -63h-35h-25q-80 -1 -110 6v-71q27 6 135 6h47q8 -33 10 -62h-63q-83 -2 -145 6v-73q35 6 147 6h65q0 -19 -2 -76q-1 -22 -2 -34zM185 -4q96 1 105 12q1 2 -4 8q-22 28 -22 70v125q64 0 93 -6v79q-22 -7 -93 -6v115l49 -18q51 76 70 98l-66 39q-19 -58 -53 -95
v367q1 90 10 123h-89q8 -22 7 -127v-361q-46 149 -119 262q-20 -50 -49 -85q90 -95 155 -318q-93 -3 -127 6v-77q32 6 140 6v-129q0 -52 -7 -88zM681 411h-86q-32 51 -71 97q24 7 79 6h52q41 0 55 -1q18 -1 36 -5q-28 -28 -65 -97zM752 574h-226v75h226v-75zM526 709v79h226
v-79h-226z" />
</svg>
