<?xml version="1.0" standalone="no"?>
<!DOCTYPE svg PUBLIC "-//W3C//DTD SVG 1.1//EN" "http://www.w3.org/Graphics/SVG/1.1/DTD/svg11.dtd" >
<svg xmlns="http://www.w3.org/2000/svg" xmlns:xlink="http://www.w3.org/1999/xlink" version="1.1" viewBox="-10 0 1034 1024">
  <g transform="matrix(1 0 0 -1 0 820)">
   <path fill="currentColor"
d="M716 385q46 -90 117 -141q-33 -1 -66 -5l-239 1q-19 3 -50 4q1 -33 5 -67l-3 -328q0 -7 -2 -16h47q-3 15 -4 66v16h278v-24q0 -34 -4 -53h47q-6 66 -5 90l1 268l4 42q24 -22 102 -70q12 24 42 43q-58 10 -121 59t-104 115h124q30 0 51 -3q3 0 16 -2v46q-4 0 -9 -2
l-147 -3h-176q10 18 24 61q1 3 3 8q0 6 5 18h172q27 0 50 -3q1 0 14 -2v46q-3 0 -9 -2q-39 0 -77 -3h-145q6 36 12 89h173q27 0 50 -3q3 0 16 -2v47q-9 0 -12 -3l-112 -3h-115q3 52 8 69q0 12 11 34q-25 0 -61 5q3 -37 4 -64l-1 -45l-159 1q-48 6 -51 6v-47q31 3 35 4l172 1
q-1 -18 -3 -39q-6 -24 -6 -48v-2l-131 1q-24 3 -48 4v-46q7 3 34 4l137 1q-18 -60 -36 -87l-132 1q-19 3 -40 4v-46q7 3 34 4l117 1q-48 -63 -88 -95q-79 -61 -145 -82l16 -12q16 -12 27 -25q54 33 83 54q24 15 47 37q76 69 109 123h114zM799 55v-104h-278v104h278zM521 91
v112h278v-112h-278zM238 -102q0 -27 -3 -53q0 -3 -3 -12h50l-2 8l-4 57v506q27 -25 45 -48q18 -22 42 -58q18 15 37 34l-60 66l-64 63v54h46q27 0 51 -3q3 0 15 -2v46q-13 -1 -61 -5h-51v155q0 37 14 66h-58q6 -31 6 -66v-155q-148 3 -161 5v-46q9 0 19 2l91 3h51
q-3 -19 -10 -42q-9 -24 -26 -62q-12 -33 -35 -74q-22 -40 -58 -94q-36 -51 -72 -83q27 -6 53 -24q19 27 37 54q18 28 45 75l45 82q10 21 21 49v-498z" />
  </g>

</svg>
