<?xml version="1.0" standalone="no"?>
<!DOCTYPE svg PUBLIC "-//W3C//DTD SVG 1.1//EN" "http://www.w3.org/Graphics/SVG/1.1/DTD/svg11.dtd" >
<svg xmlns="http://www.w3.org/2000/svg" xmlns:xlink="http://www.w3.org/1999/xlink" version="1.1" viewBox="-10 0 1034 1024">
  <g transform="matrix(1 0 0 -1 0 820)">
   <path fill="currentColor"
d="M366 -119q9 0 19 2q37 1 77 3l459 -1q7 0 15 -2q3 0 16 -2v46l-28 -4h-525q-24 3 -33 4v-46zM801 11q33 -1 68 -5q-3 28 -5 58l1 215q0 18 4 46q-33 -1 -68 -5l-290 1q-19 3 -49 4q1 -30 5 -61l-1 -214q-3 -12 -4 -44q33 3 67 5h272zM505 47v104h321v-104h-321zM505 187
v97h321v-97h-321zM221 -101q0 -27 -3 -53q0 -3 -3 -12h50q0 4 -1 8q-1 3 -4 57v447q46 -45 94 -119q12 18 25 27q6 3 12 10l-109 119l-22 24v84h47q28 0 50 -3q1 0 16 -2v46l-36 -4l-77 -1v167q0 36 12 67h-57q1 -10 6 -64v-170q-135 3 -147 5v-46q9 0 19 2l89 3h30
q-9 -36 -31 -94q-13 -39 -33 -78q-21 -42 -50 -92q-33 -55 -67 -85q27 -1 48 -8q6 -1 13 -3q15 21 25 41q9 15 73 141l31 68v-482zM641 406l-4 -57q0 -3 -2 -7h50q-1 4 -2 7t-4 57v141q66 -87 111 -128q36 -33 56 -47q33 -24 95 -64q15 21 44 39q-43 16 -61 26
q-61 33 -113 81q-69 64 -104 126l223 -3q3 0 11 -2v46q-4 0 -9 -2q-18 0 -55 -3h-198v82q0 37 13 66h-57q6 -33 6 -98v-50l-211 1q-12 1 -22 2q-3 0 -11 2v-46q-3 0 9 1q4 0 10 1l47 3h145q-3 -3 -15 -23q-16 -19 -33 -41q-24 -30 -47 -53l-73 -63q-51 -36 -88 -54l31 -17
q9 -6 18 -14q120 85 240 240v-149z" />
  </g>

</svg>
