<?xml version="1.0" standalone="no"?>
<!DOCTYPE svg PUBLIC "-//W3C//DTD SVG 1.1//EN" "http://www.w3.org/Graphics/SVG/1.1/DTD/svg11.dtd" >
<svg xmlns="http://www.w3.org/2000/svg" xmlns:xlink="http://www.w3.org/1999/xlink" version="1.1" viewBox="-10 0 1010 1000">
   <path fill="currentColor"
d="M464 -4q87 -3 96 8q1 2 -4 9q-19 26 -18 67v16q59 0 93 -6v71q-21 -6 -93 -6v74q65 1 89 -6v73q-27 -7 -89 -6v68q58 0 85 -6v71q-27 -6 -85 -8q0 66 6 93h-80q6 -34 6 -91q-59 -3 -107 8v-73q39 6 107 6v-70q-60 0 -87 6v-73q44 8 87 6v-72q-60 -3 -103 6v-73
q26 5 103 6v-18q-1 -44 -6 -80zM185 0q102 1 109 12q1 2 -5 6q-26 24 -27 68v125q54 0 95 -6v75q-25 -7 -93 -6v143l40 -24q18 24 70 98l15 21l-68 40q-19 -43 -57 -107v297q-3 120 6 149h-85q3 -22 4 -54q1 -15 1 -35v-54v-337q-54 149 -113 260q-3 -5 -11 -20
q-22 -45 -38 -69q72 -81 149 -308q-87 1 -127 6v-75q45 5 142 6v-129q0 -51 -7 -82zM583 514q85 3 98 16q0 4 -5 10q-13 19 -19 48h139q113 -3 144 -8v75q-46 -8 -148 -8h-96q58 142 268 167q-49 44 -69 85q-223 -69 -252 -250q-42 169 -280 248q-30 -48 -75 -71
q225 -31 283 -179h-51q-97 -2 -167 8v-75q79 8 169 8h57q0 -34 4 -74zM712 137q-36 -1 -55 6v-81q17 5 81 6h85q67 -1 106 -4q-5 50 -12 185q-9 165 -16 186q-16 58 -123 65q-5 -40 -36 -87q72 12 83 -8q18 1 24 -268h-71q2 261 -117 363q-45 -31 -84 -37q28 -17 50 -36
q50 -56 68 -120q20 -66 17 -170z" />
</svg>
