<?xml version="1.0" standalone="no"?>
<!DOCTYPE svg PUBLIC "-//W3C//DTD SVG 1.1//EN" "http://www.w3.org/Graphics/SVG/1.1/DTD/svg11.dtd" >
<svg xmlns="http://www.w3.org/2000/svg" xmlns:xlink="http://www.w3.org/1999/xlink" version="1.1" viewBox="-10 0 1010 1000">
   <path fill="currentColor"
d="M591 -19q84 -5 97 6q1 3 -4 9q-19 26 -19 74v42h123q96 0 158 -6v75q-35 -6 -164 -6h-117v85h101q99 -1 137 -6q-6 44 -6 109v90q0 61 1 88q2 32 5 49q-30 -6 -125 -6h-50q70 131 242 178q-49 45 -67 84q-185 -96 -238 -270v216q-1 99 8 125h-86q8 -40 8 -123v-214
q-97 175 -232 282q-29 -29 -85 -58q157 -73 244 -222h-42q-89 1 -117 6q6 -32 6 -105v-116q0 -41 -1 -60q-1 -24 -5 -51q71 6 141 6h91v-87h-127h-22q-82 -1 -109 4v-73q46 6 123 6h135v-42q0 -63 -4 -89zM165 -8q85 -2 99 12q1 2 -3 8q-19 28 -19 70v129q61 1 87 -6v81
q-26 -6 -87 -6v151l44 -18q11 14 38 55q19 29 31 48l-59 34q-41 -79 -56 -97v331q0 109 6 127h-81q9 -24 8 -129v-345q-45 130 -111 232q-23 -63 -40 -89q83 -90 135 -300h-27q-68 -1 -86 4v-79q32 7 127 6v-115q-1 -65 -6 -104zM440 326v192h155v-192h-155zM665 324v196
h156v-196h-156zM736 354l68 33q-29 33 -70 100q-27 -13 -57 -22q35 -40 59 -111zM528 358q31 72 43 105l-69 12q-3 -33 -34 -104z" />
</svg>
