<?xml version="1.0" standalone="no"?>
<!DOCTYPE svg PUBLIC "-//W3C//DTD SVG 1.1//EN" "http://www.w3.org/Graphics/SVG/1.1/DTD/svg11.dtd" >
<svg xmlns="http://www.w3.org/2000/svg" xmlns:xlink="http://www.w3.org/1999/xlink" version="1.1" viewBox="-10 0 1010 1000">
   <path fill="currentColor"
d="M183 -4q83 1 95 8q0 2 -4 10q-13 30 -16 66v123q57 1 105 -8v81q-44 -8 -105 -8v129l59 -28q42 51 80 123l-64 38q-34 -76 -75 -113v347q5 123 10 139h-85q3 -7 5 -61q3 -63 2 -80v-345q-16 73 -101 250q-27 -54 -59 -79q102 -134 145 -320h-28q-38 0 -77 7q-8 1 -10 1
v-81q1 0 5 1q30 7 80 7h45v-125q0 -50 -7 -82zM391 34q56 10 99 10h323q81 -5 102 -10q-8 44 -8 93v123q0 57 8 94q-11 -3 -50 -6q-38 -3 -52 -2h-327q-49 0 -95 8q8 -41 8 -96v-121q0 -43 -8 -93zM692 106h-79v166h79v-166zM546 106h-80v166h80v-166zM760 106v166h79v-166
h-79zM679 342q18 30 45 93h93q109 -5 129 -10v81q-46 -8 -127 -8h-206q-6 57 -10 82h167q67 0 107 -8q-13 132 -15 157q-2 24 -4 39q0 3 -1 8q-4 103 -169 104q-11 1 -17 1q0 -55 -36 -95q132 27 143 -34q1 -5 2 -8q1 3 5 -67q2 -14 3 -34h-201q-53 158 -190 248
q-45 -51 -87 -67q219 -65 226 -326q-76 0 -123 8v-81q52 8 121 10h109q-23 -53 -46 -68z" />
</svg>
