<?xml version="1.0" standalone="no"?>
<!DOCTYPE svg PUBLIC "-//W3C//DTD SVG 1.1//EN" "http://www.w3.org/Graphics/SVG/1.1/DTD/svg11.dtd" >
<svg xmlns="http://www.w3.org/2000/svg" xmlns:xlink="http://www.w3.org/1999/xlink" version="1.1" viewBox="-10 0 1010 1000">
   <path fill="currentColor"
d="M252 -13q89 -2 99 11q0 2 -3 6q-19 25 -19 104h46q65 0 89 -5q4 -1 6 -1v81q-1 0 -6 -1q-34 -7 -89 -7h-46v71l52 -45q36 23 91 77l-57 50q-47 -55 -86 -78v48q0 67 5 104q1 6 1 9h-83q0 -2 2 -10q8 -44 8 -101v-56q-81 87 -161 145q-18 -32 -65 -53q113 -45 198 -159
h-30q-58 -1 -107 5q-11 1 -14 1v-83q1 0 7 1q50 7 126 7h44q0 -88 -8 -121zM635 -13q91 -3 101 7q1 4 -5 13q-21 37 -21 97h80q90 0 135 -9q7 -1 10 -1v91q-2 0 -9 -1q-47 -9 -136 -9h-78v71l58 -47q98 61 165 129l-66 59q-87 -91 -157 -135v66q0 65 8 95h-85q0 -4 2 -13
q6 -35 6 -84v-70q-82 107 -163 169q-19 -27 -73 -50q133 -67 206 -188h-20q-40 0 -72 3q-7 1 -9 1v-83q2 0 10 1q34 5 75 5h46q0 -84 -8 -117zM105 441q3 0 11 1q53 7 166 7h395q145 0 210 -6q-3 9 -22 54q-29 71 -36 91l-89 -16q5 -9 18 -28q12 -18 18 -28h-232v92h139
q83 0 120 -5q4 -1 5 -1v81q-1 0 -8 -1q-50 -7 -115 -7h-141v121q85 6 190 3q108 -3 214 -15q-43 50 -59 101q-293 6 -420 -31q-122 -29 -201 -139q-83 111 -159 168q-18 -32 -75 -59q169 -82 228 -272q82 19 89 32q0 4 -9 13q-25 24 -40 60q52 88 162 125v-266h-186
q-102 0 -161 7q-9 1 -12 1v-83z" />
</svg>
