<?xml version="1.0" standalone="no"?>
<!DOCTYPE svg PUBLIC "-//W3C//DTD SVG 1.1//EN" "http://www.w3.org/Graphics/SVG/1.1/DTD/svg11.dtd" >
<svg xmlns="http://www.w3.org/2000/svg" xmlns:xlink="http://www.w3.org/1999/xlink" version="1.1" viewBox="-10 0 1034 1024">
  <g transform="matrix(1 0 0 -1 0 820)">
   <path fill="currentColor"
d="M444 315q-31 0 -50 3q-4 0 -12 3v-47q49 4 71 5h127q-6 -102 -22 -166q-30 -114 -118 -174q-55 -34 -99 -41q27 -21 43 -46q76 37 129 94q70 84 93 190h249q-1 -19 -16 -138q-7 -63 -26 -76q-12 -10 -47 -11q-16 0 -60 6q15 -31 20 -53q70 9 85 14q31 9 46 29
q12 18 19 71q21 175 24 189q0 7 3 10q-36 -1 -72 -5h-220q3 18 5 38q3 34 7 69l322 -1l33 -4v47q-4 -3 -15 -3q-3 0 -6 -1q-22 0 -46 -2h-209q1 1 4 5q3 6 27 27q-31 36 -113 103q-18 -21 -32 -33q72 -52 98 -91q6 -7 7 -10l1 -1h-250zM845 459q30 -1 63 -5q-4 49 -5 72
l1 166q0 16 4 49l-30 -4q-24 -3 -33 -3l-361 1q-12 3 -44 6q1 -33 5 -66l-1 -176q-3 -12 -4 -45q30 3 63 5h342zM482 495v205h98v-205h-98zM619 495v205h101v-205h-101zM759 495v205h106v-205h-106zM158 233q6 7 31 59q24 48 49 102l-3 -531q-1 -3 -2 -11h48q-3 34 -5 69
v487q19 -12 48 -43q27 -28 39 -53q15 24 38 42q-4 7 -71 64q-6 4 -11 9q-31 24 -43 36v42q111 0 117 -3q3 0 10 -2v47q-4 -3 -15 -3l-112 -3v172q0 10 3 27q1 18 13 38h-59q4 -54 5 -76v-161l-163 5q-1 1 -2 1v-47q6 0 13 2q3 0 50 4h93q-6 -43 -43 -128q-39 -85 -89 -167
q-36 -55 -65 -79q12 -4 24 -10q16 -6 31 -16q12 18 16 26q27 51 55 101v0z" />
  </g>

</svg>
