<?xml version="1.0" standalone="no"?>
<!DOCTYPE svg PUBLIC "-//W3C//DTD SVG 1.1//EN" "http://www.w3.org/Graphics/SVG/1.1/DTD/svg11.dtd" >
<svg xmlns="http://www.w3.org/2000/svg" xmlns:xlink="http://www.w3.org/1999/xlink" version="1.1" viewBox="-10 0 1010 1000">
   <path fill="currentColor"
d="M563 -15q96 5 116 17q1 2 -6 10q-26 32 -26 74v41h166q111 0 153 -8v82q-20 -3 -56 -5q-17 0 -40 -1h-57h-164v95h107q86 0 149 -6q-4 91 -4 135v401q2 49 -22 62q-20 15 -113 25q-1 -46 -38 -95q58 12 77 2q18 -7 16 -48v-412h-381v394q0 83 1 106q0 30 3 37h-83
q3 -15 5 -49q1 -16 1 -38v-58v-339q0 -83 -6 -123q21 4 54 5q16 1 37 1h54h67v-95h-79q-91 -3 -155 6v-80q47 6 153 6h81v-35q-2 -66 -10 -107zM159 -13q95 2 107 15q0 2 -3 6q-22 30 -27 102v105q72 0 107 -8v83q-18 -5 -39 -7q-15 -1 -68 -1v143l50 -30q78 113 75 113
l-63 42q-21 -57 -62 -107v331q0 117 8 141h-87q9 -49 10 -131v-329q-41 119 -102 224q-7 -26 -36 -79q-7 -13 -11 -20q86 -88 147 -298q-91 -1 -127 8v-81q17 3 47 5q14 1 33 1h49v-129q0 -37 -8 -99zM669 369q86 25 85 34q0 4 -9 11q-18 14 -27 31q-5 9 -12 24
q-12 24 -21 39h17q57 0 78 -6v70q-7 -1 -27 -2h-65h-33v71h26q68 -1 109 -6v70q-27 -6 -117 -6h-16v43q0 90 8 114h-88q9 -36 10 -119v-38h-10q-65 -3 -107 6v-72q38 5 103 6h14v-71h-16q-33 0 -93 4v-70q33 6 93 6h54q31 -46 44 -139zM565 373q27 60 42 90l-67 18
q-10 -46 -34 -88z" />
</svg>
