<?xml version="1.0" standalone="no"?>
<!DOCTYPE svg PUBLIC "-//W3C//DTD SVG 1.1//EN" "http://www.w3.org/Graphics/SVG/1.1/DTD/svg11.dtd" >
<svg xmlns="http://www.w3.org/2000/svg" xmlns:xlink="http://www.w3.org/1999/xlink" version="1.1" viewBox="-10 0 1010 1000">
   <path fill="currentColor"
d="M185 -23q106 5 113 15q0 3 -5 8q-28 30 -29 96v99q72 0 111 -6v77q-38 -6 -113 -6v141l44 -24q59 90 89 131l-78 42q-31 -74 -57 -107v317q0 89 8 143h-87q7 -42 7 -141v-367q-57 139 -123 258q-11 -26 -42 -73q-7 -12 -11 -18q116 -129 163 -302q-100 -1 -129 6v-79
q49 7 144 8v-107q0 -56 -5 -111zM437 24q64 5 132 6h171q70 -1 117 -6q-6 33 -6 101v16q0 82 6 115q-86 -6 -149 -6h-146q-78 0 -125 6q5 -28 5 -111v-20q0 -44 -5 -101zM518 96v91h258v-91h-258zM355 306q63 9 141 10h325q50 0 76 -2q29 -1 53 -6v81q-27 -8 -105 -8v330
q52 -3 123 -18l6 81q-58 0 -129 6q1 117 8 141h-93q8 -48 8 -137l-341 22q-54 6 -96 16l-8 -82q59 3 114 -2v-357q-60 -1 -82 8v-83zM510 735l258 -18v-72h-258v90zM512 381v72h256v-72h-256zM512 514v72h256v-72h-256z" />
</svg>
