<?xml version="1.0" standalone="no"?>
<!DOCTYPE svg PUBLIC "-//W3C//DTD SVG 1.1//EN" "http://www.w3.org/Graphics/SVG/1.1/DTD/svg11.dtd" >
<svg xmlns="http://www.w3.org/2000/svg" xmlns:xlink="http://www.w3.org/1999/xlink" version="1.1" viewBox="-10 0 1034 1024">
  <g transform="matrix(1 0 0 -1 0 820)">
   <path fill="currentColor"
d="M981 -63q-4 0 -9 -2q-19 0 -56 -3l-527 1q-24 3 -33 4v-46q-3 0 9 1q4 0 10 1q21 0 47 3h494q27 0 51 -3q1 0 14 -2v46zM398 530l-4 -57l-1 -7h48q-4 19 -5 46l-1 76h480v-53q0 -28 -3 -54q0 -3 -3 -11h49q0 3 -1 7q-3 6 -3 43l-1 43q1 33 5 66q-33 -1 -68 -5l-454 1
q-3 0 -43 4q1 -30 5 -63v-36zM669 720l-67 51q-13 -18 -32 -36q76 -48 136 -109q10 18 30 40q-19 18 -37 32q-15 12 -30 22zM467 27q61 4 94 5l277 -1l49 -4q-4 24 -5 62l1 211l4 52q-36 -1 -71 -5l-297 1q-19 3 -52 4q1 -36 5 -75l-1 -199q-3 -12 -4 -49v-2zM509 211v99
h335v-99h-335zM509 68v107h335v-107h-335zM843 491q-4 0 -9 -2l-163 -3l-139 1q-12 1 -21 2q-3 0 -11 2v-46q7 0 17 2q22 0 48 3l247 -1q7 0 17 -2q1 0 14 -2v46zM70 115q6 -3 10 -6q3 0 6 -2q90 132 137 259v-472q0 -27 -3 -53q0 -3 -3 -12h50q-4 19 -5 46l-1 491
q63 -51 114 -119q15 16 32 33q-16 18 -44 44l-102 92v77q75 0 100 -4q1 0 5 -1v48q-19 -3 -35 -6l-70 -1v158q0 37 13 67h-57q4 -24 5 -43l1 -182l-137 3q-6 1 -12 4v-48q66 6 98 6h50q-7 -54 -41 -133q-34 -81 -77 -145q-22 -36 -38 -57q-12 -15 -29 -30q3 0 7 -1
q1 0 18 -8q3 -1 8 -5v0z" />
  </g>

</svg>
