<?xml version="1.0" standalone="no"?>
<!DOCTYPE svg PUBLIC "-//W3C//DTD SVG 1.1//EN" "http://www.w3.org/Graphics/SVG/1.1/DTD/svg11.dtd" >
<svg xmlns="http://www.w3.org/2000/svg" xmlns:xlink="http://www.w3.org/1999/xlink" version="1.1" viewBox="-10 0 1034 1024">
  <g transform="matrix(1 0 0 -1 0 820)">
   <path fill="currentColor"
d="M432 -68q-100 3 -112 5v-45q9 0 19 2q40 1 82 3l529 -1q7 0 18 -2q1 0 14 -2v45q-19 -3 -36 -4l-58 -1l1 234l4 47l-67 -6l-349 1q-15 3 -26 3q-9 0 -25 2l6 -63v-218zM469 -68v241h102v-241h-102zM609 -68v241h98v-241h-98zM745 -68v241h105v-241h-105zM810 667
q-15 -42 -29 -86l-25 -60q60 4 117 5h30l-9 -108q0 -10 -2 -21l-4 -42q-1 -39 -15 -53q-16 -16 -53 -17q-24 0 -57 5q12 -27 21 -54q45 1 80 11q33 9 48 32q12 21 18 79l6 78l7 79q1 16 2 22l1 1q6 24 6 29q-33 -1 -66 -5h-70q33 96 39 105l19 39q-36 -1 -74 -5l-365 1
q-24 3 -33 4v-44q9 0 19 2l91 3h11q-6 -121 -24 -188q-18 -64 -63 -126q-36 -46 -88 -69q18 -10 46 -34q25 18 67 73q39 52 53 85q39 84 52 259h244zM710 359l-19 16q51 78 82 142q-60 -4 -94 -5q-81 0 -110 4q-1 1 -3 1v-45q9 0 19 2l89 3h36q-12 -27 -25 -46
q-9 -15 -24 -33q-12 9 -23 18q-51 40 -55 42q-13 -15 -31 -30q37 -24 82 -56q-33 -33 -71 -60q-42 -24 -79 -36q30 -24 41 -37q36 22 71 47q42 33 67 62l18 -14q18 -15 63 -57q12 21 27 34q-6 3 -18 14zM220 -102q0 -27 -3 -53q0 -3 -3 -12h50q-6 39 -6 65v500
q19 -15 57 -57q13 -13 29 -38q12 18 35 38q-36 36 -66 61l-55 52v51l130 -3q3 0 11 -2v46l-36 -4l-105 -1v158q0 36 13 66h-57q6 -31 6 -66v-158q-144 3 -154 5v-46q-3 0 9 1q4 0 10 1l46 3h83q-10 -69 -57 -189q-33 -81 -51 -114q-22 -42 -62 -93q36 -3 58 -12
q55 96 118 281v-480z" />
  </g>

</svg>
