<?xml version="1.0" standalone="no"?>
<!DOCTYPE svg PUBLIC "-//W3C//DTD SVG 1.1//EN" "http://www.w3.org/Graphics/SVG/1.1/DTD/svg11.dtd" >
<svg xmlns="http://www.w3.org/2000/svg" xmlns:xlink="http://www.w3.org/1999/xlink" version="1.1" viewBox="-10 0 1010 1000">
   <path fill="currentColor"
d="M143 4q91 6 97 18q2 6 -5 18q-13 22 -13 44v117q35 -1 64 -3q9 -1 12 -1v77q-2 0 -7 -1q-28 -5 -71 -5v125l42 -20q44 71 59 115l-55 34q-14 -58 -46 -105v298q0 113 4 172h-81q4 -37 5 -72q1 -37 1 -98v-252q-39 113 -86 200l-39 -89q82 -117 121 -308q-32 0 -74 3
q-20 1 -27 1v-77q54 4 107 4v-131q1 -44 -8 -64zM935 52v77q-16 -3 -39 -3q-11 -1 -31 -1h-61q-1 51 -9 173q-4 50 -5 71q66 0 150 -7v79q-16 -2 -50 -3q-16 -1 -40 -1h-66q-3 15 -8 46q-3 15 -4 23q53 4 61 12q1 8 -6 24q-10 23 -10 42v188q-5 34 22 30q24 1 32 -15
q7 -12 18 -80q35 29 75 41q-18 84 -40 105q-23 27 -81 26q-61 0 -79 -13q-19 -11 -18 -52v-228q-78 184 -218 303q-35 -23 -91 -45q222 -118 273 -409q-61 0 -75 1q-21 0 -38 3q-4 0 -4 -8q6 -44 8 -107v-60q0 -34 -4 -54q-1 -7 -2 -11q84 0 86 12q0 1 -3 6q-11 17 -11 35
v117h53q1 -18 5 -65q10 -120 11 -179q-84 0 -124 4q-14 1 -23 2v-79q73 6 119 6h98q81 -1 129 -6zM484 121h-93v114h93v-114zM484 294h-93v113h93v-113zM323 133q-3 -57 -6 -79q32 4 76 4h91q60 0 72 -6q-8 30 -8 107v234q0 60 6 84q-36 -6 -84 -6h-79v220l89 -70
q-14 -32 -38 -71l60 -26q4 5 31 57q42 78 56 102l-69 38q-2 -16 -16 -44q-126 97 -165 145q-23 -47 -51 -72q1 -2 9 -15q26 -40 26 -50v-552z" />
</svg>
