<?xml version="1.0" standalone="no"?>
<!DOCTYPE svg PUBLIC "-//W3C//DTD SVG 1.1//EN" "http://www.w3.org/Graphics/SVG/1.1/DTD/svg11.dtd" >
<svg xmlns="http://www.w3.org/2000/svg" xmlns:xlink="http://www.w3.org/1999/xlink" version="1.1" viewBox="-10 0 1010 1000">
   <path fill="currentColor"
d="M185 -6q84 1 99 8q1 4 -14 19q-16 16 -16 21v159q60 0 85 -6v85q-19 -7 -87 -6v141l54 -28q2 4 7 12q46 78 56 89v-188q0 -64 -4 -114q-2 -21 2 -19q93 4 97 12q1 4 -8 19q-10 17 -10 23v541q0 89 8 117h-93q7 -38 8 -117v-254l-59 34q-14 -57 -56 -111v339q0 104 8 129
h-85q10 -30 10 -125v-405q0 -1 -4 14q-29 126 -92 294q-23 -51 -63 -79q68 -80 139 -324q-77 0 -105 6v-85q25 8 125 8v-127q0 -30 -3 -62q-3 -21 1 -20zM510 0q17 24 62 104q9 15 13 23l-81 36q-29 -69 -69 -127zM621 60q25 6 113 6h64q57 0 78 -1q25 -1 37 -3
q-8 40 -8 117v631q14 79 -153 87q-4 -52 -40 -103q126 23 117 -32v-627h-89q-80 1 -119 6v-81zM526 233q26 5 85 4h70q35 0 79 -4q-6 20 -6 67v75q0 37 1 49q0 15 3 25q-40 -4 -89 -4h-62q-62 -1 -81 4q0 -2 1 -5q3 -27 3 -65v-79q0 -42 -4 -67zM587 290v101h107v-101h-107z
M504 504q36 4 81 4h98q48 0 87 -4q-2 11 -3 30q-1 16 -1 58v65q0 43 6 78v3q-3 0 -10 -1q-37 -2 -72 -2h-99q-53 1 -87 5q4 -22 4 -79v-75q0 -51 -4 -82zM569 562v119h133v-119h-133z" />
</svg>
