<?xml version="1.0" standalone="no"?>
<!DOCTYPE svg PUBLIC "-//W3C//DTD SVG 1.1//EN" "http://www.w3.org/Graphics/SVG/1.1/DTD/svg11.dtd" >
<svg xmlns="http://www.w3.org/2000/svg" xmlns:xlink="http://www.w3.org/1999/xlink" version="1.1" viewBox="-10 0 1010 1000">
   <path fill="currentColor"
d="M569 -13q84 14 114 29q0 4 -11 10q-11 5 -15 10q93 185 319 224q-48 28 -69 86q-220 -111 -294 -280q-100 167 -222 278q24 8 61 8h94q42 0 80 -6q10 -2 13 -2q-10 49 -10 95v359q3 43 -22 58q-24 18 -105 29q-8 -50 -32 -87q95 18 95 -22v-89h-125v89q5 94 10 109h-81
q8 -48 8 -117v-222l-58 38q-48 -82 -73 -97v293q4 94 10 127h-81q8 -53 8 -123v-341q-3 2 -11 30q-34 114 -87 228q-19 -51 -53 -86q93 -128 139 -347q-67 0 -108 8v-81q46 8 120 8v-121q1 -11 -2 -46q-3 -32 -6 -36q82 -2 95 8q0 4 -7 20q-15 33 -17 54v121q66 0 105 -8v81
q-42 -8 -105 -8v193l52 -26q55 53 79 95v-95q1 -39 -8 -70l-34 28q-23 -29 -73 -53q208 -118 307 -353zM808 350q83 9 101 23q0 1 -3 6q-21 27 -27 82v331q3 55 -24 74q-18 18 -113 29q-1 -52 -32 -89q43 4 58 4q19 0 28 -5q21 -8 19 -47v-307q0 -61 -7 -101zM687 387
q65 -3 81 0q-10 52 -10 92v162q4 70 10 94h-81q2 -10 6 -53q2 -39 1 -47v-158q0 -46 -7 -90zM565 411h-125v76h125v-76zM565 546h-125v81h125v-81zM710 215v75q-3 0 -12 -2q-33 -6 -71 -6h-22q-43 0 -76 7q-7 1 -9 1v-75q2 0 9 1q31 7 76 7h26q42 0 69 -6q7 -2 10 -2z" />
</svg>
