<?xml version="1.0" standalone="no"?>
<!DOCTYPE svg PUBLIC "-//W3C//DTD SVG 1.1//EN" "http://www.w3.org/Graphics/SVG/1.1/DTD/svg11.dtd" >
<svg xmlns="http://www.w3.org/2000/svg" xmlns:xlink="http://www.w3.org/1999/xlink" version="1.1" viewBox="-10 0 1034 1024">
  <g transform="matrix(1 0 0 -1 0 820)">
   <path fill="currentColor"
d="M707 456q73 -135 241 -264q12 21 45 41q-99 40 -189 149q-36 43 -50 74q168 0 184 -2q9 0 21 -4v47q-4 0 -9 -2l-96 -4h-107q19 39 60 102q21 36 44 69q27 39 55 49q-42 24 -59 38q-13 -33 -26 -55l-18 -31q-12 -24 -33 -59q-13 -21 -25 -43q-9 -15 -46 -70l-261 1
q-18 3 -41 3q-3 0 -11 2v-47q12 3 66 6h73q-21 -54 -100 -138q-63 -63 -147 -104q6 -1 32 -23q6 -3 10 -8q1 -1 4 -3q171 129 251 276h132zM623 77l-264 5l-1 1v-47q54 6 66 6h199l-2 -189q-3 -6 -4 -13h49q0 3 -1 9q-3 6 -3 40l-1 153h218q21 0 50 -4q1 0 16 -2v47
q-19 -4 -36 -5l-248 -1v132q130 0 144 -2q9 0 21 -4v47l-46 -5l-119 -1v90q0 37 13 66h-57q6 -66 6 -84v-72l-161 3q-12 3 -17 3v-47q6 0 12 3q54 3 106 3h60v-132zM434 722q-15 -15 -36 -30q73 -76 133 -165q15 15 32 29q-21 30 -58 77zM622 763q-25 -6 -44 -13
q40 -82 64 -171q19 9 41 14q-12 37 -30 88q-16 48 -31 82zM86 146l40 74l58 116l33 72v-503q0 -25 -3 -53q0 -3 -3 -11h50q0 3 -2 7q-1 3 -4 57v488q43 -40 85 -102q6 9 34 36q-24 28 -64 68q-30 28 -55 55v65h46q27 0 51 -3q1 0 14 -2v46q-4 0 -9 -2l-102 -3v145
q0 39 13 67h-57q3 -12 3 -17q1 -27 3 -50v-145q-150 3 -160 5v-46q-3 0 9 1q72 3 111 4h36q-3 -18 -12 -42q-6 -19 -18 -46q-45 -99 -89 -178q-34 -60 -62 -90q15 0 27 -5q18 -3 27 -8v0z" />
  </g>

</svg>
