<?xml version="1.0" standalone="no"?>
<!DOCTYPE svg PUBLIC "-//W3C//DTD SVG 1.1//EN" "http://www.w3.org/Graphics/SVG/1.1/DTD/svg11.dtd" >
<svg xmlns="http://www.w3.org/2000/svg" xmlns:xlink="http://www.w3.org/1999/xlink" version="1.1" viewBox="-10 0 1034 1024">
  <g transform="matrix(1 0 0 -1 0 820)">
   <path fill="currentColor"
d="M88 149q6 -1 15 -5q63 120 122 243v-492q0 -42 -5 -60h48l-4 36l-1 500q27 -21 55 -49q18 -18 58 -60q3 3 11 13q3 4 7 8l10 15q-15 15 -28 25q-111 96 -113 98v58q48 0 70 -3q7 0 17 -3v47q-9 -1 -59 -6h-28v185q0 6 2 24q1 18 11 38h-56q1 -30 5 -62v-185l-148 4
q-3 0 -7 2v-47q3 0 7 1q7 3 30 4l109 1q-33 -94 -84 -191q-51 -93 -86 -128q9 -1 20 -5zM982 211q-81 13 -152 52q-94 49 -154 119q6 4 12 9q-1 -1 10 7q-22 9 -50 29q-51 -84 -139 -156q-94 -73 -185 -100q18 -15 43 -40q34 19 72 43q34 21 55 36q78 57 154 143
q64 -67 139 -113q31 -18 66 -34q40 -18 103 -43q6 15 14 28zM563 537q-13 -21 -29 -41q-18 -19 -50 -49q-48 -42 -99 -68l46 -34l80 75q60 58 67 61q12 7 32 14q-19 12 -31 25q-13 13 -16 17zM389 634q1 -27 5 -54q0 -66 -2 -92q-1 -7 -3 -13h48q-4 15 -5 31l-1 87h455v-54
q0 -42 -5 -60h48q-4 49 -5 77q1 39 5 78q-25 -1 -52 -5h-172q10 19 21 33l-128 102q-12 -21 -27 -40q84 -48 121 -95l-262 1q-15 3 -41 4zM469 -104q0 -42 -5 -59h47q-4 24 -5 58v20h315v-16q0 -43 -6 -59h49l-6 59l1 233q0 7 3 15l2 30q-15 -1 -27 -3q-22 -3 -30 -3l-305 1
q-9 0 -21 3q-4 0 -17 2q1 -18 2 -30q3 -21 3 -29v-222zM506 -49v184h315v-184h-315zM812 482q-4 3 -65 49q-9 -10 -17 -22q0 -1 -3 -4q-1 -1 -5 -7q135 -91 174 -140q7 9 13 18q0 3 10 11q3 3 6 7l-59 49z" />
  </g>

</svg>
