<?xml version="1.0" standalone="no"?>
<!DOCTYPE svg PUBLIC "-//W3C//DTD SVG 1.1//EN" "http://www.w3.org/Graphics/SVG/1.1/DTD/svg11.dtd" >
<svg xmlns="http://www.w3.org/2000/svg" xmlns:xlink="http://www.w3.org/1999/xlink" version="1.1" viewBox="-10 0 1034 1024">
  <g transform="matrix(1 0 0 -1 0 820)">
   <path fill="currentColor"
d="M499 159h-354q-30 0 -55 3q-3 0 -13 3v-47q66 6 88 6h279q-39 -39 -69 -64q-15 -13 -36 -27q-57 -36 -118 -67q-78 -39 -148 -44q24 -21 41 -48l95 41q30 15 58 30q75 45 120 79t112 100v-208q0 -40 -5 -69h48q-3 15 -5 69l-1 208h4q64 -78 153 -134q93 -57 240 -110
q21 36 36 51q-33 1 -86 14q-33 7 -89 33q-54 24 -87 48q-75 51 -117 98l301 -1q19 -1 41 -5v47l-60 -6l-335 1q0 54 3 58q3 16 14 32h-60q1 -33 5 -66v-25zM308 501l-183 1q-13 1 -27 2l-12 2v-46q1 0 3 1q-3 0 9 1q24 3 55 3h149q-12 -58 -76 -129q-64 -63 -134 -74
q16 -10 50 -39q46 27 91 69q51 48 95 127q21 -18 83 -85l50 -60q12 12 12 13q9 9 16 18q-36 39 -50 51q-60 60 -100 103q0 3 2 6q141 0 148 -3q3 0 10 -2v46q-48 -4 -78 -5h-75l10 131q117 0 127 -3q1 0 6 -2v46q-25 -1 -51 -5h-207l6 13q18 42 45 63q-24 4 -37 9
q-6 1 -19 8q-9 -39 -39 -102q-36 -75 -77 -108q27 -3 54 -13q25 48 52 94h104zM529 331q0 -6 -5 -66q54 4 107 5q297 0 303 -3q3 0 9 -2v46q-25 -1 -52 -5h-323v105l258 -1q15 0 55 -5l-3 34q-3 27 -3 90l6 74q-34 -1 -70 -5h-243v91l341 -3q6 0 8 -2v46q-27 -1 -53 -5
l-289 1q-19 3 -51 4q1 -31 5 -65v-334zM568 446v116h269v-116h-269z" />
  </g>

</svg>
