<?xml version="1.0" standalone="no"?>
<!DOCTYPE svg PUBLIC "-//W3C//DTD SVG 1.1//EN" "http://www.w3.org/Graphics/SVG/1.1/DTD/svg11.dtd" >
<svg xmlns="http://www.w3.org/2000/svg" xmlns:xlink="http://www.w3.org/1999/xlink" version="1.1" viewBox="-10 0 1010 1000">
   <path fill="currentColor"
d="M675 -8l25 104h119q77 0 123 -8v83q-7 -3 -55 -6q-49 -3 -68 -2h-85q77 21 79 32q0 3 -8 8q-32 25 -55 81h107q48 0 83 -8q-3 9 -6 37q-2 23 -1 31v19q-1 25 7 62h-97q3 -8 6 -30q3 -21 2 -26v-19h-397v21q0 27 8 52h-93q3 -7 6 -28t2 -26v-23q0 -39 -8 -70q39 8 89 8
h223q33 -74 41 -121h-222q-61 0 -127 8v-83q50 8 123 8h127q-15 -53 -42 -90zM179 -4q90 5 103 12q0 2 -3 9q-15 39 -21 87v109q11 1 52 -2q38 -3 43 -6v81q-4 -3 -41 -6q-42 -3 -54 -2v147l54 -28q21 21 69 97l-2 -33q45 8 101 8h133q-6 -35 -28 -72l90 -10q12 45 17 82
h159q12 1 62 -2q44 -3 51 -6v81q-49 -8 -111 -8h-256q-4 52 -10 81h189q61 0 93 -7q-5 24 -14 99q-11 87 -16 109q-5 78 -162 85q-4 -58 -38 -97q126 27 127 -22q12 -64 16 -103h-207q-46 157 -200 224q-43 -39 -87 -53q228 -68 234 -316h-40q-57 0 -103 8l2 -32l-62 38
q-22 -58 -61 -95v319q0 50 5 110q1 17 1 21h-85q6 -36 8 -131v-313q-52 134 -116 248q-10 -47 -51 -86q114 -134 157 -343h-28q-56 0 -99 8v-81q47 8 103 8h34v-111q-2 -77 -8 -106zM593 258l-63 22q-14 -48 -38 -89l62 -22q23 43 39 89z" />
</svg>
