<?xml version="1.0" standalone="no"?>
<!DOCTYPE svg PUBLIC "-//W3C//DTD SVG 1.1//EN" "http://www.w3.org/Graphics/SVG/1.1/DTD/svg11.dtd" >
<svg xmlns="http://www.w3.org/2000/svg" xmlns:xlink="http://www.w3.org/1999/xlink" version="1.1" viewBox="-10 0 1034 1024">
  <g transform="matrix(1 0 0 -1 0 820)">
   <path fill="currentColor"
d="M484 199q27 31 87 91h61v-393q0 -24 -3 -53q0 -6 -3 -16h49q-6 43 -5 122v45h217q27 0 53 -2q12 0 16 -3v47q-4 -3 -23 -3q-22 0 -46 -3h-217v109l234 -1q21 0 33 -4v47q-4 -3 -15 -3q-25 0 -52 -3h-200v114l269 -1q6 0 32 -5v48q-6 -3 -20 -4l-128 -3h-223q4 9 11 16
q37 51 75 73q-36 15 -60 31q-40 -85 -118 -165q-76 -79 -138 -101q31 -24 50 -42q9 9 13 14zM404 624q3 -21 3 -52q0 -46 -5 -87h49q-4 12 -5 27q-1 31 -2 99h468l-4 -110q-1 -1 -1 -5h48q-6 43 -5 72q1 42 5 84q-31 -1 -64 -5h-189q6 12 21 27q3 4 5 6q-27 30 -111 98
q-13 -16 -37 -36q36 -18 69 -47q24 -22 41 -48l-244 1q-15 3 -44 4q0 -13 2 -28zM542 462q45 37 95 59q-27 16 -50 39q-30 -36 -105 -94q-48 -33 -84 -44q27 -18 46 -40l58 48q19 16 40 32zM718 528q54 -25 96 -59q54 -42 83 -87q10 18 36 43q-24 22 -46 41
q-100 81 -135 105q-9 -18 -22 -30q-6 -6 -12 -13zM231 407v-511q0 -22 -3 -52q0 -3 -2 -16h48q-3 33 -5 68v486q3 -6 51 -53l19 -24q3 -3 23 -33q16 19 35 40q-27 30 -75 76l-53 49v74q87 0 97 -3q4 0 8 -2v47q-4 -3 -16 -3l-89 -3v155q0 10 3 26q1 18 12 39h-58
q1 -42 5 -85v-135l-159 5q-1 1 -2 1v-47q30 4 59 5h97q-13 -54 -77 -175q-61 -114 -111 -155q39 -9 61 -20q48 84 59 104q15 27 37 72z" />
  </g>

</svg>
