<?xml version="1.0" standalone="no"?>
<!DOCTYPE svg PUBLIC "-//W3C//DTD SVG 1.1//EN" "http://www.w3.org/Graphics/SVG/1.1/DTD/svg11.dtd" >
<svg xmlns="http://www.w3.org/2000/svg" xmlns:xlink="http://www.w3.org/1999/xlink" version="1.1" viewBox="-10 0 1034 1024">
  <g transform="matrix(1 0 0 -1 0 820)">
   <path fill="currentColor"
d="M358 -44q10 10 88 52l154 77v-148q0 -24 -12 -34q-15 -10 -48 -11q-24 0 -61 8q13 -33 16 -54q84 3 108 17q34 18 35 69l1 369q0 18 4 50q-21 -1 -36 -2q-25 -3 -84 -3q-100 3 -110 5v-46q6 1 65 5h122v-181q-16 -7 -37 -21q-187 -87 -208 -95q-12 -3 -23 -7
q15 -30 17 -32zM405 231q33 -30 71 -81q9 -9 16 -18q15 16 30 29q-15 19 -25 29q-48 55 -62 69q-13 -15 -30 -28zM478 428q36 3 74 4l311 -1l48 -4q-4 49 -5 72l1 186l4 48q-66 -4 -88 -5l-308 1q-15 3 -47 4q1 -33 5 -66l-1 -197l-4 -43q4 1 10 1zM511 468v93h357v-93h-357
zM511 597v95h357v-95h-357zM746 248q-9 10 -18 19q-12 -15 -28 -29q60 -60 87 -97q13 15 28 29q-22 27 -46 53zM198 300q9 16 18 31q10 18 28 56v-496q0 -27 -3 -53q0 -3 -3 -12h51q-1 4 -2 7q0 3 -2 7q-1 25 -3 51v460q16 -13 63 -67q9 -9 22 -28q15 15 33 35
q-24 27 -62 63q-34 33 -56 51v98h67q28 0 50 -3q1 0 16 -2v46q-4 0 -10 -2l-123 -3v161q0 37 14 66h-58q6 -51 6 -77v-150l-166 5v-46q9 0 19 2l93 3h53q-13 -57 -33 -99q-45 -88 -97 -172q-25 -42 -43 -64q-12 -15 -35 -32q30 -6 53 -21q54 81 62 97zM902 -69
q0 -21 -13 -34q-13 -12 -45 -12q-27 0 -73 9q15 -24 19 -55q46 1 78 6q70 12 71 81l1 372q0 12 5 53q-34 -1 -69 -5l-164 1q-12 1 -22 2q-3 0 -11 2v-46q6 1 66 5h157v-144l-49 -34l-67 -39q-48 -27 -75 -41q-25 -12 -43 -19q13 -13 29 -39q3 -3 5 -8q10 12 32 26
q124 81 138 87q12 7 30 17v-185z" />
  </g>

</svg>
