<?xml version="1.0" standalone="no"?>
<!DOCTYPE svg PUBLIC "-//W3C//DTD SVG 1.1//EN" "http://www.w3.org/Graphics/SVG/1.1/DTD/svg11.dtd" >
<svg xmlns="http://www.w3.org/2000/svg" xmlns:xlink="http://www.w3.org/1999/xlink" version="1.1" viewBox="-10 0 1010 1000">
   <path fill="currentColor"
d="M683 -8q101 16 105 30q0 1 -4 4q-22 12 -32 40q-8 22 -16 55h26q76 1 113 -6q-5 46 -6 98v31q0 46 6 118q-65 -9 -133 -6h-95v77h125q83 -1 117 -6q-6 37 -6 107v56q0 71 6 99q-36 -6 -127 -6h-74q-84 1 -121 6q6 -54 6 -121v-351q-1 -60 -6 -102q38 5 96 6q1 -8 5 -23
q14 -65 15 -106zM181 -4q98 0 101 12q1 2 -3 9q-17 30 -17 85v129q57 0 81 -6v73q-30 -6 -85 -6v125l48 -26q49 93 79 135l-68 32q-21 -64 -59 -119v323q0 117 8 141h-85q4 -21 6 -52q0 -15 1 -35v-56v-309q-44 138 -111 250q-19 -45 -45 -91q99 -116 147 -318
q-70 -3 -127 6v-79q44 10 138 10v-129q-1 -57 -9 -104zM458 46q36 113 54 173l-87 16q-5 -71 -46 -173zM647 181v115h149v-115h-149zM337 308q32 5 82 6q20 0 64 -3q7 -1 11 -1q-6 29 -6 99v326q99 51 175 57q167 7 301 -14q-29 39 -45 99q-201 -3 -257 -10q-73 -8 -122 -33
q-9 -4 -29 -17q-41 -27 -57 -25q-38 7 -101 81q-16 -39 -51 -83q72 -41 117 -59v-346q-66 0 -82 6v-83zM808 492h-161v129h161v-129z" />
</svg>
