<?xml version="1.0" standalone="no"?>
<!DOCTYPE svg PUBLIC "-//W3C//DTD SVG 1.1//EN" "http://www.w3.org/Graphics/SVG/1.1/DTD/svg11.dtd" >
<svg xmlns="http://www.w3.org/2000/svg" xmlns:xlink="http://www.w3.org/1999/xlink" version="1.1" viewBox="-10 0 1010 1000">
   <path fill="currentColor"
d="M389 -8q7 2 20 6q75 21 69 28q-1 5 -9 10q-16 9 -27 26q-7 12 -20 34q-21 34 -27 45h61q52 -1 102 -10v72q-39 -6 -104 -6h-105q0 8 -1 25q-3 86 -7 140h88q0 -122 -8 -137q78 1 91 13q1 3 -3 9q-17 21 -17 59v63q1 63 6 90h-77q3 -15 6 -44h-94q-20 82 -135 165
q-22 -22 -75 -48q113 -39 141 -115h-44q-6 1 -35 2q-51 2 -60 4q3 -22 6 -85v-38q-1 -44 -6 -75q87 2 85 15q0 2 -2 6q-16 27 -14 116h84q6 -54 6 -165h-119q-76 0 -100 6v-68q39 6 102 6h160q51 -89 62 -149zM230 2q14 17 44 69q10 17 16 27l-78 33q-28 -67 -55 -99z
M804 108h-155v87h155v-87zM804 246h-155q0 19 -3 66q-1 14 -1 22h159v-88zM480 498q72 -42 93 -149q11 -52 10 -124q0 -67 -12 -179q24 3 108 6h79q24 -2 63 -4q49 -3 60 -4q-6 30 -6 99v314q2 51 -29 69q-29 20 -120 28q2 -52 -34 -95q76 15 93 7q21 -5 19 -47v-34h-165
q-24 86 -81 145q-57 -27 -78 -32zM194 586h262q0 -44 -6 -68q51 5 98 22q-1 2 -4 4q-12 7 -12 44h280q92 -3 119 -8v79q-43 -8 -121 -8h-201q88 117 310 135q-38 38 -74 89q-221 -75 -297 -224h-14v133q0 69 8 119h-96q8 -52 8 -121v-133h-16q-97 150 -333 230
q-18 -46 -67 -85q207 -12 321 -145h-184q-83 1 -108 6v-77q30 5 127 8z" />
</svg>
