<?xml version="1.0" standalone="no"?>
<!DOCTYPE svg PUBLIC "-//W3C//DTD SVG 1.1//EN" "http://www.w3.org/Graphics/SVG/1.1/DTD/svg11.dtd" >
<svg xmlns="http://www.w3.org/2000/svg" xmlns:xlink="http://www.w3.org/1999/xlink" version="1.1" viewBox="-10 0 1010 1000">
   <path fill="currentColor"
d="M171 -2q95 1 107 14q1 2 -4 6q-21 24 -22 68v143q70 0 105 -8v79q-25 -8 -105 -8v123l46 -28q37 46 77 111q25 6 137 6h256q70 0 127 -6q-6 29 -6 117v189q41 0 69 -8v79q-34 -6 -107 -6h-432q-87 0 -115 6v-79q20 5 75 6v-171q2 -88 -14 -111l-48 36q-24 -54 -65 -113
v321q0 74 1 101q2 33 7 46h-87q4 -18 5 -51q1 -16 1 -38v-60v-313q-1 -1 -10 21q-46 118 -111 219q-7 -29 -33 -86q-5 -10 -7 -15q99 -103 153 -296q-85 -1 -123 8v-79q18 5 48 6q15 1 34 2h49v-143q0 -59 -8 -88zM530 -2q72 -1 93 12q1 2 -3 8q-13 27 -13 66v236
q100 -120 123 -316q103 15 107 28q-1 4 -7 9q-12 9 -18 21q-34 63 -52 113h69q87 0 123 -8v75q-28 -5 -123 -5h-91l-65 134q-29 -22 -66 -33q0 105 6 129h-87q7 -33 8 -139v-238q0 -65 -4 -92zM381 52q80 -2 93 12q1 3 -4 9q-13 22 -12 52v185q-3 92 6 113h-85q8 -35 8 -115
v-175q0 -57 -6 -81zM810 276q7 14 20 37q36 64 57 106l-83 32q-26 -90 -64 -151zM595 570v234h78v-234h-78zM454 570v234h78v-234h-78zM734 570v234h79v-234h-79z" />
</svg>
