<?xml version="1.0" standalone="no"?>
<!DOCTYPE svg PUBLIC "-//W3C//DTD SVG 1.1//EN" "http://www.w3.org/Graphics/SVG/1.1/DTD/svg11.dtd" >
<svg xmlns="http://www.w3.org/2000/svg" xmlns:xlink="http://www.w3.org/1999/xlink" version="1.1" viewBox="-10 0 1034 1024">
  <g transform="matrix(1 0 0 -1 0 820)">
   <path fill="currentColor"
d="M403 -81q-81 3 -88 5q-1 1 -3 1v-47q30 4 64 5l568 -1l33 -4v47q-4 -3 -15 -3l-90 -3v289h-469v-289zM441 -81v248h99v-248h-99zM577 -81v248h108v-248h-108zM724 -81v248h109v-248h-109zM403 689q4 -51 5 -69q-3 -297 -5 -318h50q-3 3 -4 15q-1 27 -3 54l1 267q0 4 1 10
q3 16 14 41h-59zM539 764q3 -42 6 -65l-1 -401q-1 -9 -2 -34l-3 -15h50q-4 9 -5 26l-1 424q0 22 4 35q3 16 11 30h-59zM718 548l185 -1q12 0 33 -4v47q-4 -3 -15 -3q-3 0 -6 -1l-92 -2h-92l11 32q4 16 10 32q16 63 20 66q9 21 29 46q-25 6 -42 12l-21 9q-13 -102 -54 -206
q-51 -117 -90 -150q36 -9 40 -12q1 0 13 -6q21 39 36 70q16 36 35 71zM861 326q-72 96 -90 116q-4 4 -9 10q-18 -21 -34 -35q22 -19 43 -45q33 -42 56 -75q7 -15 17 -30q24 21 40 29q-12 15 -23 30zM196 -104q0 -27 -5 -68h48q-4 39 -5 68v485q82 -73 100 -128q10 16 25 29
q4 3 14 13q-10 15 -73 80q-36 33 -66 63v53q123 0 132 -3q3 0 7 -3v49q-6 -3 -16 -4l-123 -3v163q0 12 3 27q3 22 13 39h-59q1 -6 2 -17l3 -103v-109q-100 0 -124 2q-9 3 -17 5v-49q18 6 62 6h76q-3 -60 -52 -182q-63 -144 -110 -188q24 -3 55 -17q33 60 59 119
q25 57 51 123v-450z" />
  </g>

</svg>
