<?xml version="1.0" standalone="no"?>
<!DOCTYPE svg PUBLIC "-//W3C//DTD SVG 1.1//EN" "http://www.w3.org/Graphics/SVG/1.1/DTD/svg11.dtd" >
<svg xmlns="http://www.w3.org/2000/svg" xmlns:xlink="http://www.w3.org/1999/xlink" version="1.1" viewBox="-10 0 1034 1024">
  <g transform="matrix(1 0 0 -1 0 820)">
   <path fill="currentColor"
d="M223 -112q0 -42 -5 -60h48l-4 36l-1 493q58 -73 83 -126l37 30l-33 46l-87 111v76q76 0 106 -4q6 0 13 -2v47q-9 -1 -17 -4l-102 -2v165q0 6 2 25q1 18 11 38h-56q1 -30 5 -63v-165l-126 2q-7 3 -13 4v-47q4 3 53 6h82q-24 -94 -71 -184q-63 -123 -107 -161q15 -4 19 -7
q19 -6 32 -12q54 88 131 252v-494zM386 411q-21 1 -46 2q-6 3 -14 3v-46q49 4 80 5h11l-4 -358q-3 -51 -32 -77q21 -24 39 -49q9 15 22 31q12 16 38 44l87 90q-7 19 -13 43l-103 -109l4 373q1 27 5 53q-24 -1 -50 -5h-24zM345 682q51 -54 117 -164q30 27 34 29
q-54 79 -115 159q-16 -15 -36 -24zM624 270v-364q0 -42 -5 -59h47l-4 35l-1 41h210v-17q0 -42 -6 -59h49l-4 35l-1 371q1 24 5 50q-25 -1 -52 -5h-204l54 49q27 24 73 70h128q24 0 62 -5v46q-7 0 -16 -3l-141 -2q40 52 65 79q16 25 35 49q21 30 48 40q-25 18 -44 37
q-34 -57 -61 -94l-58 -72q-18 -21 -38 -39h-26v136h60q33 0 63 -6v47l-39 -4l-84 -1v75q0 27 14 62h-58q0 -3 2 -8q3 -21 4 -54v-75l-120 2q-6 3 -14 3v-47q36 6 65 6h69v-136l-174 4q-4 1 -7 1v-46q4 3 48 5h162q-55 -57 -127 -115q-67 -54 -128 -77q33 -21 42 -31
q6 3 70 48q18 15 37 28zM661 -42v140h210v-140h-210zM661 134v128h210v-128h-210z" />
  </g>

</svg>
