<?xml version="1.0" standalone="no"?>
<!DOCTYPE svg PUBLIC "-//W3C//DTD SVG 1.1//EN" "http://www.w3.org/Graphics/SVG/1.1/DTD/svg11.dtd" >
<svg xmlns="http://www.w3.org/2000/svg" xmlns:xlink="http://www.w3.org/1999/xlink" version="1.1" viewBox="-10 0 1034 1024">
  <g transform="matrix(1 0 0 -1 0 820)">
   <path fill="currentColor"
d="M476 132q-99 0 -122 2l-15 3v-46q49 4 97 5l515 -1l34 -4v46q-15 -3 -36 -4l-184 -1v159q63 0 128 -4q3 0 9 -2v47q-12 -3 -36 -3q-21 -3 -32 -3h-320v104q72 6 120 12l114 17l86 8q-22 30 -32 49q-105 -28 -186 -41q-70 -9 -96 -9q-24 3 -49 3q4 -90 5 -94v-243z
M514 132v159h214v-159h-214zM378 -159q48 36 102 84q9 10 19 18q55 57 63 60q12 9 33 15l-52 40q-4 -4 -7 -10q-33 -46 -108 -115q-42 -33 -97 -58q16 -7 32 -22zM398 528q0 -27 -5 -67h48q-3 9 -3 15q-3 60 -3 112h447l-4 -117q-1 -1 -1 -5h48q-6 63 -5 104q1 30 5 59
q-31 -1 -64 -5l-422 1q-15 3 -46 4q1 -31 5 -65v-36zM719 662l-128 103q-27 -30 -35 -37q24 -7 42 -21l60 -49q9 -9 28 -32q18 24 33 36zM920 -143q6 7 20 22q-22 25 -56 54q-72 63 -117 97q-10 7 -19 16q-7 6 -14 10q-18 -28 -34 -43q27 -7 45 -19q21 -13 63 -50
q43 -36 60 -56q19 -22 37 -51q7 10 15 20zM227 -109q0 -28 -5 -69h48q-3 34 -5 69v480q69 -61 99 -112q1 3 5 5q25 34 29 37l-42 43q-87 81 -91 84v42q75 0 85 -3q4 0 7 -2v47q-4 -3 -15 -3q-39 0 -77 -3v188q0 12 3 28q1 18 12 38h-58l4 -38l1 -216l-155 5q-1 1 -2 1v-47
q51 4 105 5h46q-24 -87 -81 -194q-66 -111 -106 -135q30 -12 52 -25q78 108 141 254v-479z" />
  </g>

</svg>
