<?xml version="1.0" standalone="no"?>
<!DOCTYPE svg PUBLIC "-//W3C//DTD SVG 1.1//EN" "http://www.w3.org/Graphics/SVG/1.1/DTD/svg11.dtd" >
<svg xmlns="http://www.w3.org/2000/svg" xmlns:xlink="http://www.w3.org/1999/xlink" version="1.1" viewBox="-10 0 1010 1000">
   <path fill="currentColor"
d="M427 -6q86 16 89 26q1 3 -11 12q-20 14 -25 24q-15 23 -28 50h52q13 -1 36 -2q50 -2 67 -2q-12 21 -36 64q-31 57 -49 88h16q78 0 109 -4q-8 47 -8 115v435q1 40 -16 53q-16 15 -79 28q-1 -44 -24 -75q61 21 57 -38v-131h-69v46q0 107 6 137h-72q9 -46 10 -139v-44h-67
q-8 129 -72 246q-31 -26 -73 -39q47 -47 69 -134q12 -44 16 -95q4 -52 0 -103l-53 14q-17 -68 -46 -129v367q0 115 8 139h-83q10 -45 10 -143v-313q-42 127 -92 210q-22 -40 -51 -73q90 -104 141 -318q-77 -1 -113 6v-73q32 6 115 6v-109q-1 -60 -12 -90q96 -3 103 6
q0 1 -3 6q-21 28 -23 78v109q41 0 56 -1q18 -1 28 -3v73q-30 -6 -84 -6v109l46 -19q34 70 53 134v-138q0 -71 -4 -104q25 4 112 4h31q12 -20 48 -93h-87q-9 6 -60 85q-12 -24 -50 -49q75 -51 112 -203zM794 8q115 3 109 14q-1 3 -5 8q-20 21 -21 82v468q46 -1 77 -6v73
q-20 -5 -66 -4h-11v113q0 108 8 137h-89q9 -28 8 -133v-115q-105 0 -145 6v-73q38 6 145 6v-467q-1 -72 -10 -109zM724 86q39 116 60 172l-72 16q-9 -72 -53 -166zM385 310v113h69v-113h-69zM508 310v113h69v-113h-69zM728 324q8 22 26 75q24 69 36 101l-72 12
q-8 -64 -53 -170zM385 477v105h69v-105h-69zM508 477v105h69v-105h-69z" />
</svg>
