<?xml version="1.0" standalone="no"?>
<!DOCTYPE svg PUBLIC "-//W3C//DTD SVG 1.1//EN" "http://www.w3.org/Graphics/SVG/1.1/DTD/svg11.dtd" >
<svg xmlns="http://www.w3.org/2000/svg" xmlns:xlink="http://www.w3.org/1999/xlink" version="1.1" viewBox="-10 0 1010 1000">
   <path fill="currentColor"
d="M175 6q102 0 105 8q0 2 -4 8q-21 33 -20 84v103q46 0 67 -1q25 -1 44 -5v75q-31 -7 -111 -6v121l50 -26q32 67 71 121l-64 36q-15 -53 -57 -121v335q0 116 8 153h-91q12 -31 12 -147v-307q-54 146 -114 224q-12 -33 -51 -81q115 -108 165 -308q-101 0 -139 8v-79
q42 8 139 8v-109q-1 -65 -10 -94zM464 22q81 -4 101 8q1 3 -5 10q-18 21 -18 56v21h172v-9q-1 -49 -6 -84q86 -2 102 8q1 2 -4 7q-24 25 -24 69v9q111 0 160 -5v73q-15 -4 -63 -6q-53 -2 -95 0v22q0 67 6 103q-54 -6 -115 -6h-10v50h81q59 -1 133 -6q-5 34 -6 83v6
q0 59 6 101q-56 -8 -133 -8h-81v54h95q78 -1 125 -6v69q-29 -6 -121 -6h-99v56h79q104 -3 143 -6v69q-51 -8 -139 -8h-83v58h125q66 0 96 -1q35 -2 54 -5v71q-45 -9 -142 -9h-332q-116 0 -147 3v-67q41 7 145 8h131v-58h-107q-47 0 -68 1q-26 1 -43 3v-65q45 6 117 6h101
v-56h-95q-86 0 -109 6v-69q27 6 109 6h95v-54h-111q-47 -3 -99 6q5 -28 6 -91v-10q0 -45 -6 -87q43 5 111 6h99v-52h-16q-46 0 -69 1q-27 2 -48 5q5 -35 6 -119v-8q-88 -1 -123 8v-75q40 7 123 7v-19q1 -54 -4 -74zM542 177v63h172v-63h-172zM458 403v66h137v-66h-137z
M665 403v66h139v-66h-139z" />
</svg>
