<?xml version="1.0" standalone="no"?>
<!DOCTYPE svg PUBLIC "-//W3C//DTD SVG 1.1//EN" "http://www.w3.org/Graphics/SVG/1.1/DTD/svg11.dtd" >
<svg xmlns="http://www.w3.org/2000/svg" xmlns:xlink="http://www.w3.org/1999/xlink" version="1.1" viewBox="-10 0 1034 1024">
  <g transform="matrix(1 0 0 -1 0 820)">
   <path fill="currentColor"
d="M82 105q4 -1 10 -4q12 18 24 39l72 136l58 129v-509q0 -39 -6 -59h49q-6 36 -6 52v457q48 -49 83 -108q13 21 31 36q-6 9 -16 20q-18 21 -98 101v102h60q31 0 62 -6v47q-36 -6 -86 -6h-36v169q0 6 2 25q3 18 12 38h-57q6 -60 6 -85v-147l-125 1q-9 1 -29 2q-6 3 -14 3
v-47q6 0 8 2q24 3 53 4h95q-22 -102 -98 -242q-54 -99 -90 -134q10 -3 13 -5q10 -4 23 -11zM643 -77l-279 2q-6 3 -13 3v-46q30 3 60 5l522 -1q15 0 33 -4v46q-30 -1 -61 -5h-224v100h153q27 0 62 -5v46q-30 -4 -62 -5h-153v93h169q21 0 64 -5v46q-30 -4 -64 -5h-169v76
l184 -1q12 0 40 -4q-6 63 -7 75q0 66 2 75q1 16 5 33q-18 -1 -29 -2q-19 -3 -27 -3h-168v71q94 0 107 -2q15 0 32 -3q-1 13 -3 27q-3 21 -3 68v36h89q30 0 62 -5v46q-30 -4 -62 -5h-89q0 64 3 67q1 15 12 32h-58q1 -30 5 -62v-37h-227q0 58 3 65q1 16 11 31h-56q1 -30 5 -62
v-34l-141 4q-4 0 -8 1v-46q49 4 78 5h71q0 -75 -2 -99q-3 -3 -3 -32q42 4 86 5h50v-71l-177 1q-3 0 -41 4q6 -42 6 -67q0 -57 -2 -84q-3 -27 -4 -32q42 6 66 5h152v-76l-217 4q-4 1 -7 1v-46q30 4 60 5h164v-93l-207 4q-3 1 -5 1v-46q49 4 71 5h141v-100zM468 300v101h175
v-101h-175zM776 634v-90h-227v90h227zM681 300v101h180v-101h-180z" />
  </g>

</svg>
