<?xml version="1.0" standalone="no"?>
<!DOCTYPE svg PUBLIC "-//W3C//DTD SVG 1.1//EN" "http://www.w3.org/Graphics/SVG/1.1/DTD/svg11.dtd" >
<svg xmlns="http://www.w3.org/2000/svg" xmlns:xlink="http://www.w3.org/1999/xlink" version="1.1" viewBox="-10 0 1034 1024">
  <g transform="matrix(1 0 0 -1 0 820)">
   <path fill="currentColor"
d="M115 330q30 39 61 76l13 19q24 33 49 77q-3 -270 -5 -290h49q-4 34 -5 51v212q27 -24 35 -35q15 -18 30 -38q7 -7 15 -17q9 16 28 31q-55 52 -109 98v42q87 0 110 -3l2 -1q3 0 7 -1v47q-3 0 -65 -6h-54v95q0 37 15 66h-58q4 -60 5 -85v-76l-159 5q-1 1 -3 1v-47
q30 4 65 5h90q-21 -39 -40 -71q-16 -27 -44 -61q-51 -61 -99 -98q21 -6 47 -24q9 15 20 28zM144 158q-15 1 -30 1q-7 0 -22 2q-6 0 -13 4v-49q54 6 65 6h328q-51 -114 -178 -182q-64 -31 -106 -45q-43 -12 -96 -16q19 -15 43 -48q108 30 209 89q66 42 106 86q39 45 71 116h9
q63 -99 170 -173q123 -81 234 -103q18 31 41 46q-166 4 -313 139q-54 48 -82 91q333 0 357 -3l2 -1q4 0 8 -2v49q-9 -4 -25 -5q-19 -1 -43 -2h-350q10 52 14 59q3 12 16 28q-33 6 -59 14q-3 -52 -17 -101h-339zM528 343q46 -54 65 -81l17 -25q10 16 29 33q-12 18 -22 28
q-36 39 -66 69q22 21 41 38q18 16 44 21q-27 21 -46 43q-12 -22 -65 -79q-40 45 -65 70q-12 -13 -28 -30q45 -36 74 -64q-96 -82 -156 -106q19 -6 43 -30q10 7 22 17q4 4 25 20q24 18 45 37q7 6 16 14q13 13 27 25zM443 484q19 21 41 40l46 48q24 -22 39 -40t33 -48
q9 15 31 33l-15 18q-22 19 -49 48q-9 9 -16 18l44 52q28 28 52 38q-24 15 -50 38q-18 -39 -70 -106q-9 9 -16 14q-69 64 -77 72q-9 -18 -29 -32q63 -42 73 -52t31 -29q-70 -70 -135 -109q16 -4 46 -24zM762 295q0 -21 -6 -75h50q-3 12 -4 40l-1 231q31 -24 48 -43
q30 -30 58 -69l9 -12q15 24 29 34q-25 27 -64 61l-80 66v34q115 0 126 -2q1 0 6 -1l6 -3h6v48q-30 0 -60 -6q-6 1 -9 0h-75v95q0 37 13 66h-58q4 -42 5 -78v-83q-111 3 -116 5q-1 1 -3 1v-47q51 4 87 5h19q-24 -66 -66 -135q-42 -66 -75 -89q33 -6 50 -22q33 55 54 94
q21 37 51 103v-218z" />
  </g>

</svg>
