<?xml version="1.0" standalone="no"?>
<!DOCTYPE svg PUBLIC "-//W3C//DTD SVG 1.1//EN" "http://www.w3.org/Graphics/SVG/1.1/DTD/svg11.dtd" >
<svg xmlns="http://www.w3.org/2000/svg" xmlns:xlink="http://www.w3.org/1999/xlink" version="1.1" viewBox="-10 0 1010 1000">
   <path fill="currentColor"
d="M720 -6q96 0 95 14q0 3 -5 8q-14 17 -14 48v89h45q55 0 101 -8v86q-36 -8 -93 -8h-53v91l55 -28q71 81 113 151l-77 44q-32 -68 -89 -149v97q0 80 8 131q-32 -6 -88 0q10 -45 10 -127v-109q-36 84 -65 131q-34 -38 -66 -46q80 -71 117 -186q-41 0 -69 3q-6 1 -8 1v-76
q-1 -2 14 -1q37 3 75 3v-99q0 -30 -6 -60zM175 -2h29q68 -2 70 6q3 3 -4 13q-16 21 -16 45v87q57 0 95 -6v78q-39 -6 -97 -6v87l54 -28q9 12 37 50q25 34 40 55l-64 36q-20 -61 -67 -99v103q0 113 8 143h-89q12 -27 12 -133v-111q-57 110 -98 169q-19 -36 -53 -58
q90 -80 139 -210q-52 0 -74 1q-27 1 -45 3v-80q48 8 133 8v-81q0 -60 -10 -72zM452 520q99 6 113 14q-1 5 -8 13q-20 21 -27 65h238q113 -1 161 -10v85q-47 -10 -161 -10h-195q85 128 391 121q-52 44 -63 105q-341 -50 -391 -216q-41 169 -401 212q-10 -43 -69 -89
q335 1 395 -133h-181q-137 0 -185 12v-89q54 12 179 12h202q5 -14 6 -46q0 -32 -4 -46zM556 8q73 34 81 44q-3 5 -11 9q-16 5 -27 19q-4 5 -17 19q-36 40 -38 44q43 32 83 64l-56 57q-9 -16 -51 -54q-13 -11 -20 -17q-8 7 -21 20q-51 51 -80 67q-7 -15 -62 -47
q41 -9 103 -70l8 -8q-21 -21 -103 -73l52 -50q19 15 65 49q23 18 30 23q37 -41 64 -96zM552 274q78 32 75 36q-3 6 -13 13q-14 10 -25 23q-4 5 -13 15q-24 26 -26 30q43 36 101 94l-62 51q-23 -40 -81 -101q-68 64 -129 101q-17 -26 -60 -53q63 -16 139 -88q-18 -18 -79 -59
l48 -48q34 28 75 60q32 -33 50 -74z" />
</svg>
