<?xml version="1.0" standalone="no"?>
<!DOCTYPE svg PUBLIC "-//W3C//DTD SVG 1.1//EN" "http://www.w3.org/Graphics/SVG/1.1/DTD/svg11.dtd" >
<svg xmlns="http://www.w3.org/2000/svg" xmlns:xlink="http://www.w3.org/1999/xlink" version="1.1" viewBox="-10 0 1010 1000">
   <path fill="currentColor"
d="M173 2q86 -3 95 6q1 3 -3 10q-14 29 -15 80v97q58 0 73 -6v73q-22 -9 -73 -6v117l44 -19q35 50 77 127l-61 31q-37 -77 -60 -111v355q0 118 6 141h-85q8 -27 8 -137v-349q-41 136 -104 230q-20 -42 -53 -81q95 -89 151 -304q-91 -1 -125 10v-79q27 4 71 7q39 2 60 1v-97
q0 -67 -6 -96zM877 34v74q-39 -6 -147 -6h-81v55h135q64 0 94 -1q34 -1 51 -3q-4 23 -4 68q0 59 6 77h-90q6 -27 6 -81h-198v75q0 89 6 119h-82q7 -33 6 -117v-75h-166q0 34 4 89h-86q6 -20 6 -81q0 -24 -4 -72q25 4 119 4h127v-57h-67q-102 0 -137 6v-74q29 6 137 6h216
q112 0 149 -6zM696 250q19 4 58 4q14 0 42 -1q17 -1 23 -1v60q-33 -4 -65 -4q-44 0 -58 4v-62zM437 252q20 3 53 4q42 -1 60 -4v62q-14 -5 -58 -4q-42 -3 -55 4v-62zM819 352v59q-19 -4 -65 -4q-24 -3 -58 4v-59q16 3 58 4q45 0 65 -4zM437 354q22 4 51 4q42 -1 62 -4v61
q-21 -4 -62 -4q-41 -1 -51 4v-61zM871 445v71q-46 -6 -145 -6h-200q-92 -1 -125 6v-67q29 6 125 6h204q71 0 141 -10zM317 562q76 8 131 8h342q26 0 89 -2q43 -2 54 -2v63q-14 -2 -45 -3q-14 -1 -35 -1h-59h-258v56h121q150 0 200 -6q-6 27 -6 40q-2 16 -6 44q-7 85 -28 101
q-28 34 -142 41q-2 -38 -34 -83q78 15 101 -6q30 -24 24 -75h-203q-82 0 -111 5q5 -20 7 -66q1 -14 1 -21v-30h-22q-90 0 -121 4v-67z" />
</svg>
