<?xml version="1.0" standalone="no"?>
<!DOCTYPE svg PUBLIC "-//W3C//DTD SVG 1.1//EN" "http://www.w3.org/Graphics/SVG/1.1/DTD/svg11.dtd" >
<svg xmlns="http://www.w3.org/2000/svg" xmlns:xlink="http://www.w3.org/1999/xlink" version="1.1" viewBox="-10 0 1034 1024">
  <g transform="matrix(1 0 0 -1 0 820)">
   <path fill="currentColor"
d="M340 -122q30 -24 45 -45q64 52 119 103q48 48 66 59q18 15 41 24q-28 15 -53 36q-25 -37 -103 -108q-54 -46 -115 -69zM526 498q-136 3 -142 5q-1 1 -3 1v-47q30 4 62 5h200v-77l-174 1q-15 3 -46 4q1 -30 5 -63l-1 -213q-3 -15 -4 -45q30 3 63 5l366 -1l46 -4
q-3 31 -5 63l1 212l4 46q-33 -1 -65 -5h-152v77l259 -1l33 -4v47q-4 -3 -15 -3l-102 -3h-76v135l115 -1q21 0 33 -4v47q-18 -1 -35 -5l-113 -1q0 57 9 93l7 14h-58l5 -101v-6h-180v45q0 7 3 27q3 18 17 34h-63q3 -9 3 -17q1 -22 3 -34v-55q-118 3 -126 5q-1 1 -2 1v-47
q49 4 102 5h26v-135zM465 110v108h178v-108h-178zM465 254v95h178v-95h-178zM563 498v135h180v-135h-180zM681 110v108h174v-108h-174zM855 254h-174v95h174v-95zM955 -121q-55 55 -205 176q-21 -27 -43 -41q43 -18 113 -72q60 -52 95 -101q19 19 40 38zM42 156q4 0 49 -12
l59 103l75 149l-1 -517l-4 -41h48q-4 39 -5 68v484q60 -63 84 -125q9 18 38 40q-9 12 -87 107q-4 6 -8 9q-24 27 -27 34v52q85 0 96 -3q3 0 10 -2v47q-7 -3 -22 -4l-84 -2v165q0 10 3 27q1 18 12 38h-58q0 -10 3 -22l2 -142v-66l-115 1q-21 3 -20 2q-6 0 -12 3v-47
q51 4 106 5h38q-3 -21 -13 -48t-33 -74q-48 -100 -93 -168q-27 -36 -58 -57q7 -1 17 -4v0z" />
  </g>

</svg>
