<?xml version="1.0" standalone="no"?>
<!DOCTYPE svg PUBLIC "-//W3C//DTD SVG 1.1//EN" "http://www.w3.org/Graphics/SVG/1.1/DTD/svg11.dtd" >
<svg xmlns="http://www.w3.org/2000/svg" xmlns:xlink="http://www.w3.org/1999/xlink" version="1.1" viewBox="-10 0 1034 1024">
  <g transform="matrix(1 0 0 -1 0 820)">
   <path fill="currentColor"
d="M389 186q-54 3 -61 5q-1 1 -3 1v-47q51 4 99 5h96q-45 -70 -83 -119q49 -12 100 -29q57 -18 74 -28q-43 -33 -127 -59q-49 -12 -131 -18q16 -18 29 -50q72 10 138 36q36 12 66 28q33 16 76 45q43 -18 131 -60q76 -39 93 -62q0 6 16 36q4 7 10 15q-18 9 -43 20
q-55 22 -176 80q45 52 68 88q22 33 44 77q151 0 161 -3q3 0 8 -2v47q-4 -3 -15 -3q-25 0 -52 -3h-319l9 15q13 22 44 46q-9 3 -18 7q1 -1 -19 11q-6 3 -15 10q-3 -10 -9 -22q-10 -24 -18 -36q-6 -12 -19 -31h-154zM501 52q6 12 51 80q6 9 13 18h195q-10 -27 -36 -65
q-39 -55 -75 -86q-12 6 -22 9q-45 18 -120 43q-3 1 -6 1zM520 530l3 36q1 13 12 35l-56 9q3 -27 4 -53q0 -24 -3 -58q-1 -36 -5 -54q-15 -76 -67 -134q-22 -22 -62 -43q33 -16 46 -31q33 33 63 72q54 75 60 168q1 27 5 53zM386 482q0 -22 -5 -68h47q-4 45 -5 68v206h159
v-205q0 -22 -3 -52q0 -3 -2 -15h48q-4 54 -5 79l1 186l4 48q-33 -1 -65 -5q-117 0 -142 2q-6 3 -37 3q1 -31 5 -65v-182zM584 367q-21 19 -39 34q-9 -15 -32 -33q25 -9 49 -29q24 -21 38 -50q10 16 30 36zM780 606q4 -49 5 -70l-10 -100q-1 -1 -1 -4q-12 -58 -51 -106
q-19 -22 -78 -48q6 -6 24 -17q7 -7 15 -18q22 15 33 26q7 6 17 16q45 48 63 96q9 27 15 51q3 25 8 69q3 72 15 99zM740 724q-31 3 -64 5q4 -66 5 -77q-3 -216 -5 -235h48q-3 9 -3 15q-1 30 -3 53v203h164v-201q0 -22 -3 -52q0 -3 -2 -15h48q-4 54 -5 79q0 180 2 192
q0 18 3 38q-31 -1 -64 -5h-121zM949 269q-42 48 -107 95q-6 -9 -11 -15q-3 -4 -19 -17q66 -27 107 -96q1 1 3 4q13 15 27 29zM221 -85q0 -27 -5 -68h48q-4 54 -5 100v442q54 -43 73 -75q9 18 29 37q-27 27 -46 41q-24 18 -33 27q-15 10 -23 16v71q78 0 87 -3q4 0 7 -2v47
q-4 -3 -15 -3q-39 0 -79 -3v160q0 10 3 26q3 22 12 39h-58q0 -3 1 -6q3 -75 4 -112v-107l-104 1q-21 3 -20 2q-6 0 -11 3v-47q49 4 75 5h53q-9 -66 -68 -187q-58 -118 -100 -148q27 -9 54 -20q12 18 27 43q15 27 31 59q33 66 63 139v-477z" />
  </g>

</svg>
