<?xml version="1.0" standalone="no"?>
<!DOCTYPE svg PUBLIC "-//W3C//DTD SVG 1.1//EN" "http://www.w3.org/Graphics/SVG/1.1/DTD/svg11.dtd" >
<svg xmlns="http://www.w3.org/2000/svg" xmlns:xlink="http://www.w3.org/1999/xlink" version="1.1" viewBox="-10 0 1010 1000">
   <path fill="currentColor"
d="M583 -2q104 0 107 10q1 2 -4 10q-21 31 -21 78h105q67 0 96 -1q35 -2 53 -5v75q-38 -7 -137 -8h-117v161h117q113 -2 164 -10v81q-34 -6 -158 -6h-328q-96 0 -127 6v-77q27 6 121 6h137v-161h-87q-104 1 -137 8v-75q30 5 133 6h89q0 -65 -6 -98zM159 6q92 -2 107 8
q1 2 -4 10q-21 32 -20 76v107q72 0 103 -6v75q-20 -6 -103 -6v151l44 -26q21 27 56 70q19 23 27 33l-67 40q-19 -48 -60 -95v315q1 115 10 139h-91q5 -17 6 -48q1 -15 2 -35v-50v-297q-65 151 -80 178q-26 -58 -49 -93q100 -123 131 -280q-36 -2 -72 0q-33 1 -45 6v-77
q26 6 115 6v-99q1 -69 -10 -102zM494 183q24 56 48 95l-76 22q-9 -29 -47 -99zM760 183q37 6 85 24q-47 59 -65 95q-30 -15 -70 -20q25 -37 50 -99zM369 429q62 8 161 10h210q93 0 149 -8q-6 42 -6 127v177q-3 124 8 156h-89q6 -24 6 -71h-360q0 38 1 50q1 16 3 23h-83
q8 -41 8 -151v-162q-1 -99 -8 -151zM808 496h-360v268h360v-268zM508 544q27 4 87 4h62q60 0 85 -4q-5 26 -4 69v10v10q0 59 4 82q-14 -5 -79 -4h-60q-62 0 -95 4q5 -19 4 -82v-14q0 -36 -4 -75zM573 596v67h102v-67h-102z" />
</svg>
