<?xml version="1.0" standalone="no"?>
<!DOCTYPE svg PUBLIC "-//W3C//DTD SVG 1.1//EN" "http://www.w3.org/Graphics/SVG/1.1/DTD/svg11.dtd" >
<svg xmlns="http://www.w3.org/2000/svg" xmlns:xlink="http://www.w3.org/1999/xlink" version="1.1" viewBox="-10 0 1034 1024">
  <g transform="matrix(1 0 0 -1 0 820)">
   <path fill="currentColor"
d="M155 243q18 31 35 62q18 30 40 76v-485q0 -42 -5 -59h48l-4 35l-1 499q10 -10 22 -21q42 -37 71 -80q13 18 29 36q-3 3 -6 5l-63 61q-7 6 -53 48v67h51q24 0 63 -5v45q-33 -4 -63 -5h-51v170q0 6 2 25q1 16 11 38h-56q1 -30 5 -63v-170q-138 0 -151 3q-3 1 -11 2v-45
q49 4 80 5h79q-9 -31 -19 -57l-20 -44q-46 -96 -81 -144q-36 -51 -66 -74q6 -4 21 -11q15 -6 31 -15q30 51 62 101zM783 80l-411 1q-6 1 -9 2q-6 3 -13 3v-47l60 6h373v-124q0 -24 -6 -31q-6 -6 -23 -10q-27 -4 -45 -5q-21 0 -49 5q13 -30 18 -50q3 0 16 2q58 6 76 10
q51 12 51 63v140h94q28 0 62 -6v47q-7 0 -16 -3q-48 -3 -90 -3h-50v74q37 0 76 -3q12 0 22 -2q-4 48 -5 92l1 239q0 15 4 40l-101 -5h-77v79h162q30 0 62 -5v46q-24 -4 -62 -5h-150q24 34 53 70q21 24 53 33q-43 24 -60 37q-34 -66 -93 -140l-301 1q-12 3 -18 4v-46
q46 4 88 5h119q-1 -39 -2 -79h-105q-9 0 -28 3q-13 0 -29 2q1 -16 2 -27q3 -21 3 -62l-1 -239q-3 -12 -4 -43q45 4 77 5h276v-74zM876 292h-404v187h115q-27 -91 -94 -133q18 -9 28 -13q3 0 17 -9q63 67 89 155h77v-43q0 -60 31 -76q22 -9 57 -9l30 1q21 1 54 7v-67z
M472 190v66h404v-66h-404zM704 515h-74q0 40 1 79h73v-79zM876 396q-19 -1 -28 -4q-30 -3 -28 -4q-19 1 -37 2q-13 0 -24 2q-18 6 -18 44v43h135v-83zM582 -92q10 13 21 23q-58 58 -99 95q-19 -19 -32 -29q66 -51 99 -99q4 6 11 10zM477 726l47 -37l67 -56q9 12 25 29
q-97 81 -113 91q-13 -13 -26 -27v0z" />
  </g>

</svg>
