<?xml version="1.0" standalone="no"?>
<!DOCTYPE svg PUBLIC "-//W3C//DTD SVG 1.1//EN" "http://www.w3.org/Graphics/SVG/1.1/DTD/svg11.dtd" >
<svg xmlns="http://www.w3.org/2000/svg" xmlns:xlink="http://www.w3.org/1999/xlink" version="1.1" viewBox="-10 0 1034 1024">
  <g transform="matrix(1 0 0 -1 0 820)">
   <path fill="currentColor"
d="M209 -102q0 -42 -6 -59h50q-6 25 -6 45v483q45 -46 72 -93q7 10 15 19q6 7 17 20q-12 13 -21 23l-48 46q-18 18 -35 36v78h37q33 0 64 -6v47q-13 -3 -30 -4q-15 -1 -34 -2h-37v167q0 27 14 62h-58q0 -3 2 -8q3 -21 4 -54v-167q-111 0 -122 2q-6 1 -9 3q-3 0 -7 1v-47
q3 3 36 5l96 1q-15 -48 -36 -101q-19 -51 -42 -95q-51 -91 -93 -132q31 -6 56 -16q33 54 59 105q27 54 62 136v-495zM927 -110h36q3 9 4 17q7 21 17 41q-36 -9 -94 -15q-84 -3 -139 -4q-18 1 -50 3q-48 0 -84 7q-30 6 -54 15q-27 10 -51 27v187h32q33 0 62 -6v47
q-36 -6 -62 -6h-32v149h41q30 0 63 -5v46q-31 -4 -63 -5h-47v159h32q28 0 63 -5v46q-31 -4 -63 -5h-32v102q0 9 3 25q1 16 11 38h-57q4 -99 5 -104v-61q-81 0 -94 3q-3 1 -12 2v-46q3 1 49 5h57v-159q-114 0 -127 3q-3 1 -11 2v-46q3 3 45 5h99v-334q-54 72 -73 140
q12 66 36 92q-30 7 -57 19q-9 -76 -18 -124q-7 -40 -21 -85q-39 -123 -77 -166q1 0 49 -16q19 40 35 80q21 61 40 127l37 -67q42 -63 95 -88q46 -24 128 -32q39 -3 95 -6zM646 132q0 -21 -7 -34q-6 -13 -22 -28q18 -15 40 -43l56 79l74 91q-12 19 -20 44q-27 -42 -83 -114
v385h111l5 -151l14 -206q-18 -30 -34 -54q-15 -21 -35 -45q-24 -27 -61 -52q24 -13 44 -27q24 25 41 48q21 25 59 80q4 -16 11 -33q16 -54 29 -73q15 -27 37 -28q19 0 38 30q9 18 27 64q3 12 8 25q-10 6 -27 19q-7 6 -17 13q-1 -31 -7 -60q-6 -39 -21 -39q-13 0 -29 51
q-10 37 -21 77q13 30 48 115q28 93 33 101q3 6 21 26q-31 9 -58 24q-7 -55 -18 -97q-12 -42 -35 -102l-10 139l-5 155h64q19 0 47 -3q-1 0 16 -2v46q-31 -1 -63 -5h-64q0 36 -2 57q0 52 3 95q0 21 15 44q-27 1 -64 9q3 -27 7 -73q-1 -10 0 -26q0 -60 3 -106q-102 0 -122 2
q-15 1 -31 3q1 -27 5 -57v-364zM916 650q-9 12 -17 22q-12 12 -21 23q-15 -12 -31 -21q27 -30 43 -50l28 -40q15 15 30 28q-9 15 -16 21z" />
  </g>

</svg>
