<?xml version="1.0" standalone="no"?>
<!DOCTYPE svg PUBLIC "-//W3C//DTD SVG 1.1//EN" "http://www.w3.org/Graphics/SVG/1.1/DTD/svg11.dtd" >
<svg xmlns="http://www.w3.org/2000/svg" xmlns:xlink="http://www.w3.org/1999/xlink" version="1.1" viewBox="-10 0 1034 1024">
  <g transform="matrix(1 0 0 -1 0 820)">
   <path fill="currentColor"
d="M214 -73q0 -39 -5 -59h46q-3 6 -4 30l-1 527q42 -30 85 -76q9 18 22 35l-107 80v50q42 0 86 -3q3 0 10 -2v45q-6 -1 -13 -2q-36 -3 -83 -3v168q0 30 13 61h-54q1 -30 5 -61v-168l-128 4q-3 1 -4 1v-45q3 1 7 1q7 3 36 4h84q-4 -25 -15 -57q-10 -33 -25 -70t-32 -73
q-15 -36 -34 -66q-30 -51 -55 -77l49 -21q33 64 60 122q25 60 57 144v-489zM299 77q30 9 61 12q36 4 74 7v-107q0 -18 -6 -31q-6 -10 -27 -21q12 -15 29 -55q54 42 95 67q3 3 64 35q13 9 29 17q-4 18 -6 43q-31 -21 -60 -36q-30 -18 -85 -48v138q67 6 91 7q4 0 16 -3v43
q-27 -9 -64 -13q-22 -1 -43 -4v78q58 4 85 1q3 0 8 -1v43q-13 -4 -20 -6l-35 -5q-19 -1 -38 -5v82q16 3 34 8q6 0 8 3q3 0 8 3q39 12 59 12h13q-19 24 -29 41q-106 -48 -254 -60q12 -18 22 -38l60 13q21 6 46 9v-76q-36 -3 -72 -7q-24 -1 -58 -2q1 -18 4 -38q12 3 23 5
q12 1 34 7q34 4 69 7v-78q-39 -3 -78 -8q-22 -1 -46 0q-9 0 -14 1zM379 711q7 -18 17 -38q16 0 34 2l62 6l98 9v-67q-141 -9 -145 -10q-15 3 -31 3q1 -21 4 -43q19 7 58 12l114 9v-63q-90 -6 -175 -16q-15 1 -31 3q1 -21 4 -42q21 6 65 13l137 14v-26q0 -60 39 -74
q13 -3 44 -8q27 -3 57 -3q57 0 111 11q22 6 47 26q16 15 43 62q-4 6 -11 9l-34 28q-3 -30 -7 -45q-1 -7 -7 -17q-15 -27 -69 -35q-7 -1 -38 -4q-24 -1 -41 -2q-13 0 -37 2q-21 0 -36 3q-30 3 -30 45v30l191 17l29 3q9 0 25 -3v44q-21 -6 -59 -14l-186 -20v69q168 12 181 13
q7 0 25 -3q-1 24 -1 46q-21 -9 -61 -14l-144 -15v70l132 22q60 9 81 10q12 0 27 -1q-15 18 -28 47q-39 -12 -73 -21q-60 -13 -131 -24q-54 -6 -118 -12q-60 -4 -101 -6q-15 0 -35 4q1 -3 4 -6zM590 179q24 7 60 11q37 4 77 8v-77q-40 -3 -79 -7q-13 0 -25 -1q-15 0 -29 3
q0 -19 2 -39q30 9 54 11l77 6v-119q0 -34 12 -52t45 -23q27 -3 47 -4q31 0 58 11q21 9 34 33q10 25 27 83q-27 9 -46 21q-1 -37 -6 -64q-6 -33 -33 -43q-22 -6 -39 -6q-34 0 -51 6q-16 6 -17 52v109q118 10 147 11q13 0 35 -3q-1 21 -2 40q-24 -6 -53 -10l-127 -10v76
q73 10 102 11q21 0 36 -2q-1 21 -2 40q-19 -7 -54 -12q-42 -4 -82 -10v78l107 23q31 3 44 4q4 0 10 -1q-15 19 -28 42q-42 -19 -119 -36q-105 -21 -181 -20q10 -15 22 -39l114 21v-75q-42 -3 -83 -8q-16 -1 -35 -2q-12 0 -23 2q1 -19 4 -39v0z" />
  </g>

</svg>
