<?xml version="1.0" standalone="no"?>
<!DOCTYPE svg PUBLIC "-//W3C//DTD SVG 1.1//EN" "http://www.w3.org/Graphics/SVG/1.1/DTD/svg11.dtd" >
<svg xmlns="http://www.w3.org/2000/svg" xmlns:xlink="http://www.w3.org/1999/xlink" version="1.1" viewBox="-10 0 1010 1000">
   <path fill="currentColor"
d="M163 -4q46 0 97 16q-16 20 -22 76v127q65 0 113 -8v83q-8 -6 -113 -8v141l54 -28q25 27 71 119l-69 38q-20 -69 -56 -113v313q-1 87 8 139h-83q8 -52 8 -137v-311q-57 131 -100 220q-18 -46 -51 -75q108 -165 139 -306q-70 1 -111 8v-83q-2 2 123 8v-117q1 -12 -8 -102z
M897 24v88q-78 -1 -191 91h157q53 0 103 -8q-38 77 -73 159l-78 -18q2 -3 6 -10q30 -47 36 -60h-119v92q19 59 -102 74q-15 3 -23 5q1 -38 -32 -77q97 8 90 -24v-70h-14q-147 126 -284 169q-25 -47 -52 -64q136 -22 248 -105h-73q-113 2 -125 8v-79q50 8 121 8h89
q-37 -25 -85 -40l44 -55l109 79q58 -55 105 -91h-250q-62 0 -121 8v-80q51 8 121 8h286q12 0 107 -8zM917 439l-10 103v256q15 81 -111 109q-12 -56 -42 -91q82 3 81 -40v-266h-379v246q-3 24 8 129h-89q9 -57 10 -121v-206q0 -63 -5 -105q-1 -9 -1 -12q2 0 9 1q38 5 98 5
h310q72 0 121 -8zM687 675h-88v69h88v-69zM571 532q30 12 60 36q0 3 -8 7q-29 14 -58 44l52 8h56q22 0 51 -5q8 -1 10 -1q-27 -24 -65 -49l53 -40q60 36 109 78l-53 49q-4 -6 -28 -24q0 3 -1 9q-3 20 -3 41v57l8 58q-11 -6 -62 -8h-91q-7 -1 -37 2q-27 3 -32 6q0 -3 1 -10
q4 -29 7 -46v-53q0 -1 -1 -5q-3 -22 -7 -33q-3 2 -10 8t-10 8q-35 -35 -50 -40q61 -39 109 -97z" />
</svg>
