<?xml version="1.0" standalone="no"?>
<!DOCTYPE svg PUBLIC "-//W3C//DTD SVG 1.1//EN" "http://www.w3.org/Graphics/SVG/1.1/DTD/svg11.dtd" >
<svg xmlns="http://www.w3.org/2000/svg" xmlns:xlink="http://www.w3.org/1999/xlink" version="1.1" viewBox="-10 0 1034 1024">
  <g transform="matrix(1 0 0 -1 0 820)">
   <path fill="currentColor"
d="M200 500q-18 -70 -70 -177q-57 -114 -101 -153q9 0 54 -18q24 42 48 89l72 152v-499q0 -42 -5 -60h49q-6 36 -6 53v495q30 -30 42 -45q18 -22 41 -54q6 10 12 19q3 6 15 20q-21 27 -52 54l-58 55v69h42q28 0 64 -5v46q-31 -4 -64 -5h-42v165q0 6 2 24q3 19 13 38h-58
q1 -30 5 -62v-165l-117 1q-3 1 -4 1q-6 1 -14 3v-46q3 1 49 5h83zM419 666h476q27 0 63 -5v46q-33 -4 -63 -5l-481 1q-15 3 -38 4q4 -84 5 -87l-2 -300q-1 -22 -2 -55q-4 -103 -21 -174q-18 -73 -39 -115q-18 -39 -55 -81q15 -3 23 -6q21 -6 29 -9q33 58 59 131
q27 81 37 190q9 175 9 208v257zM660 128q0 -30 -4 -45h47q-3 6 -5 37l-1 161q0 25 3 32q1 13 11 31h-57q0 -3 2 -8q3 -21 4 -55v-118q-33 -1 -64 -4l2 269l96 -3q6 0 10 -2v46q-40 -4 -75 -5q9 27 29 67q10 27 17 36q13 31 41 41l-59 29q-24 -84 -66 -173l-128 2q-6 3 -14 3
v-46q3 3 50 5h65l-3 -271q-28 -1 -55 -4q0 156 3 165q1 13 10 29h-54q4 -30 5 -64q0 -111 -2 -135q-3 -3 -3 -34q39 3 49 5l42 3q-16 -84 -53 -138q-42 -57 -88 -84q16 -6 47 -26q33 37 71 91q21 33 35 68q13 39 25 91q33 3 67 4zM495 624q-15 -12 -28 -21q42 -73 57 -119
q18 12 33 19q-10 27 -29 62q-18 33 -33 59zM814 250q0 48 4 64q1 12 15 25q-25 3 -59 9q3 -18 4 -40q1 -21 2 -47q0 -33 -4 -62q-4 -57 -21 -106q-30 -79 -98 -151q-36 -36 -89 -67q21 -10 48 -28q79 76 121 134q37 54 61 124l37 -86q12 -24 29 -49q30 -43 85 -104
q18 16 52 28q-22 10 -37 22q-33 27 -55 56q-45 57 -72 129q-22 63 -23 127v22zM694 365q9 -3 24 -11q21 36 47 88h153q-24 -57 -49 -101l43 -6q3 13 41 95l25 53q-31 -1 -63 -5h-133q4 13 9 25q9 25 17 52q15 39 19 46q6 9 24 21q-45 12 -61 19q-18 -87 -41 -145
q-39 -85 -77 -121q10 -4 22 -10v0z" />
  </g>

</svg>
