<?xml version="1.0" standalone="no"?>
<!DOCTYPE svg PUBLIC "-//W3C//DTD SVG 1.1//EN" "http://www.w3.org/Graphics/SVG/1.1/DTD/svg11.dtd" >
<svg xmlns="http://www.w3.org/2000/svg" xmlns:xlink="http://www.w3.org/1999/xlink" version="1.1" viewBox="-10 0 1034 1024">
  <g transform="matrix(1 0 0 -1 0 820)">
   <path fill="currentColor"
d="M498 537l-40 4q-12 1 -22 1l5 -101l-5 -106q49 4 76 5h94q-60 -84 -175 -126q-39 -13 -76 -17q22 -15 42 -42q87 34 158 87q22 -13 51 -36q-66 -57 -134 -97q-84 -39 -137 -48q24 -15 45 -38q123 55 250 159q12 -13 33 -49q-84 -84 -140 -118q-58 -37 -97 -58
q-33 -15 -70 -25q18 -9 31 -23q6 -7 13 -15q84 49 159 103q72 52 119 102q10 -48 11 -87q0 -66 -28 -100q-30 -31 -90 -32q-12 0 -37 3q10 -22 17 -52q67 7 99 25q75 40 76 158q0 61 -22 122q28 21 57 40q21 -75 60 -137q51 -84 114 -130q24 25 50 40q-34 9 -64 31
q-31 24 -64 66q-43 66 -68 149q21 16 53 37q27 18 54 23q-7 7 -15 14q-16 13 -28 29q-3 -6 -10 -10q-30 -30 -40 -39l-40 -32q-42 -33 -74 -54q-39 66 -104 103q36 36 63 74l212 -1l45 -4q-6 60 -6 89q0 69 2 77q0 7 4 39q-1 1 0 2q-31 -1 -63 -5h-122q0 3 23 29l35 47
q3 6 51 64l-70 -6h-194q45 52 80 73q-30 15 -54 32q-18 -45 -81 -109q-43 -45 -75 -71q-24 -18 -56 -30q3 -1 7 -3q24 -13 31 -20q3 0 9 -5q30 19 55 45q24 22 54 53h213q-24 -36 -37 -52q-18 -24 -37 -47h-176zM478 374v129h175q-4 -45 -12 -73q-6 -24 -18 -56h-145z
M862 374h-199q9 30 16 57q6 27 12 72h171v-129zM199 349q9 19 22 50l-1 -541q-1 -6 -2 -16q0 -3 -2 -11h49q-4 21 -5 69v481q57 -34 94 -98q10 18 27 31q-24 30 -72 70q-34 27 -49 41v66q97 0 107 -3q3 0 9 -3v49q-4 -3 -16 -4l-100 -3q0 195 3 200q1 15 12 32h-59
q0 -7 2 -12q3 -72 4 -98v-122q-150 3 -156 5q-1 1 -4 2v-49q10 1 23 4l76 2h56q-12 -57 -70 -176q-57 -111 -117 -163q31 -9 55 -23q15 24 35 61q21 37 38 71q19 45 41 88v0z" />
  </g>

</svg>
