<?xml version="1.0" standalone="no"?>
<!DOCTYPE svg PUBLIC "-//W3C//DTD SVG 1.1//EN" "http://www.w3.org/Graphics/SVG/1.1/DTD/svg11.dtd" >
<svg xmlns="http://www.w3.org/2000/svg" xmlns:xlink="http://www.w3.org/1999/xlink" version="1.1" viewBox="-10 0 1010 1000">
   <path fill="currentColor"
d="M157 4q103 0 103 10q0 2 -5 8q-20 22 -19 58v131q73 -1 97 -10v75q-31 -9 -97 -8v125l34 -18q25 26 79 112l-61 43q-6 -39 -52 -107v337q0 105 8 127h-83q8 -19 6 -101v-28v-317q-33 110 -92 220q-23 -45 -51 -71q84 -96 137 -322q-59 -1 -113 10v-75q20 7 103 6h16v-115
q0 -60 -10 -90zM923 30v83q-20 -4 -59 -6q-19 0 -43 -1h-61h-329q0 94 1 211q0 116 -1 166q-8 231 -102 408q-20 -23 -70 -51q-5 -3 -7 -4q78 -76 101 -226q12 -75 15 -183q2 -102 -5 -282q-1 -12 -2 -38q-1 -50 -4 -73q43 5 176 4h23h210q110 -1 157 -8zM806 141
q80 -2 95 8q1 3 -3 11q-15 26 -15 67v89q48 -1 73 -6v75q-16 -6 -73 -6v411q9 82 -99 91q-13 3 -20 4q-7 -55 -40 -93q56 15 71 3q19 -9 20 -57v-359q-88 0 -117 6v-75q29 5 117 6v-78q-1 -73 -9 -97zM702 173v73q-29 -9 -107 -8h-32q-74 0 -97 6v-71q24 7 99 6h28
q79 0 109 -6zM675 312q-4 23 -4 83v82q1 61 4 79q-14 -1 -46 -2t-46 -2h-39q-39 1 -72 6q6 -24 6 -71v-92q0 -42 -4 -83q45 3 6 0q39 3 78 4h19q49 0 98 -4zM534 369v129h81v-129h-81zM756 447q33 95 50 155l-68 21q-3 -62 -44 -160zM605 572q90 20 87 24q-1 4 -9 13
q-14 14 -20 28q-5 13 -16 42q-20 55 -26 67q8 -2 23 -4q53 -10 68 -17q-9 34 -6 67q-157 11 -277 40q-12 -57 -24 -84q29 9 162 0q38 -93 38 -176zM520 588q22 40 42 113l-68 16q-3 -53 -34 -117z" />
</svg>
