<?xml version="1.0" standalone="no"?>
<!DOCTYPE svg PUBLIC "-//W3C//DTD SVG 1.1//EN" "http://www.w3.org/Graphics/SVG/1.1/DTD/svg11.dtd" >
<svg xmlns="http://www.w3.org/2000/svg" xmlns:xlink="http://www.w3.org/1999/xlink" version="1.1" viewBox="-10 0 1010 1000">
   <path fill="currentColor"
d="M649 -4q6 25 16 74h91q141 -1 192 -8v79q-46 -7 -188 -8h-286q-118 0 -159 8v-79q43 7 159 8h117q-1 -1 -2 -6q-19 -48 -27 -62zM143 8q107 -4 111 6q0 1 -2 4q-19 23 -22 94v93q65 -1 93 -6v73q-23 -7 -93 -8v125l50 -22q45 90 75 135l-69 34q-17 -57 -56 -115v337
q-3 121 8 141h-89q6 -27 6 -145v-313q-27 107 -84 230q-18 -39 -53 -81q75 -73 133 -326q-60 0 -101 10v-77q26 7 105 8v-95q-2 -57 -12 -102zM734 177q63 0 99 -1q41 -1 72 -3q-4 104 -4 141v40v29q-1 74 4 111q-85 -4 -185 -4h-204q-111 0 -159 4q0 -17 2 -76q1 -35 2 -55
v-51q0 -28 -3 -119q-1 -13 -1 -20q90 4 163 4h214zM831 231h-400v206h400v-206zM496 262q12 0 54 3q16 1 25 1h70q73 -1 115 -4q-4 32 -4 62v14q0 35 4 65q-24 -4 -83 -4h-106q-39 0 -75 4q0 -15 4 -57q-1 2 0 -4v-18q0 -19 -4 -62zM700 310h-144v46h144v-46zM375 524
q66 4 139 4h220q26 0 102 -3q25 -1 39 -1q-4 39 -4 117v8q1 84 4 111q-87 -6 -145 -6h-212q-65 0 -143 4q4 -59 4 -113v-12q0 -29 -4 -109zM798 576h-350v43h350v-43zM798 663h-350v44h350v-44zM313 790q38 8 149 10h338q109 -1 152 -10v83q-34 -9 -152 -10h-340
q-97 0 -147 10v-83z" />
</svg>
