<?xml version="1.0" standalone="no"?>
<!DOCTYPE svg PUBLIC "-//W3C//DTD SVG 1.1//EN" "http://www.w3.org/Graphics/SVG/1.1/DTD/svg11.dtd" >
<svg xmlns="http://www.w3.org/2000/svg" xmlns:xlink="http://www.w3.org/1999/xlink" version="1.1" viewBox="-10 0 1034 1024">
  <g transform="matrix(1 0 0 -1 0 820)">
   <path fill="currentColor"
d="M979 -81q-9 -3 -28 -6l-74 -2l-530 1l-29 5v-45q6 0 13 2l51 4l557 -1q22 0 36 -4q1 0 4 -1v47zM399 666q-54 4 -63 5v-45q30 3 63 5l538 -1l33 -4v45q-4 -1 -15 -2q-25 0 -52 -3h-208q3 3 6 8q15 15 17 16q-27 25 -57 47q-34 27 -59 40q-10 -18 -30 -40q64 -24 100 -71
h-273zM527 487q6 -57 6 -84q-6 -24 -6 -48v-11q15 3 50 4l162 1q30 -1 62 -5q-4 49 -5 75q1 33 5 68q-66 -4 -92 -5l-136 1q-15 3 -46 4zM570 383v65h187v-65h-187zM411 575q1 -33 5 -67l-1 -211q-3 -12 -4 -42q15 3 52 4l390 1q33 -1 67 -5q-3 30 -5 60l1 211q0 21 4 49
l-67 -6l-397 1q-19 4 -45 5zM453 293v243h423v-243h-423zM815 -18q27 0 63 -5q-4 49 -5 96q0 84 2 95q0 16 3 34q-63 -6 -83 -6l-302 1q-6 1 -44 5q6 -54 6 -70q0 -94 -2 -120l-4 -33v-2q30 3 62 5h304zM492 15v55h343v-55h-343zM492 103v59h343v-59h-343zM217 -97
q0 -24 -5 -69h49q-6 24 -6 48v485q15 -12 40 -38q30 -36 39 -60q3 6 8 10q1 0 3 3q15 15 30 25q-9 12 -89 91q-18 15 -31 28v73q102 0 113 -3q4 0 7 -2v45q-12 -1 -23 -4l-90 -3h-7v169q0 7 3 27q3 21 13 38h-59q0 -7 2 -12l3 -154v-68l-107 1l-43 6v-45q30 4 63 5h80
q-7 -40 -23 -80q-19 -48 -57 -126q-52 -99 -95 -130q24 -3 31 -7q6 -3 29 -10q34 57 62 109q27 55 60 138v-490z" />
  </g>

</svg>
