<?xml version="1.0" standalone="no"?>
<!DOCTYPE svg PUBLIC "-//W3C//DTD SVG 1.1//EN" "http://www.w3.org/Graphics/SVG/1.1/DTD/svg11.dtd" >
<svg xmlns="http://www.w3.org/2000/svg" xmlns:xlink="http://www.w3.org/1999/xlink" version="1.1" viewBox="-10 0 1010 1000">
   <path fill="currentColor"
d="M538 -17q77 14 99 25q2 3 -11 10q-34 18 -51 44h149q68 0 113 -8l-85 123h99q63 -1 97 -8v75q-35 -7 -95 -7h-45q44 38 75 75l-64 40q-23 -37 -69 -80l50 -35h-240q51 29 51 41q0 1 -8 6q-38 24 -81 66q-42 -27 -72 -36q55 -25 94 -77h-106q4 248 -15 392
q-15 127 -68 250q-31 -26 -89 -29q62 -71 85 -210q24 -140 14 -372q0 -56 -8 -99q57 8 109 8h203q14 -13 43 -60h-174q-35 35 -46 54q-30 -25 -77 -32q82 -58 123 -156zM161 -15q95 7 99 15q0 2 -3 9q-17 35 -21 93v101q54 0 93 -8v85q-42 -8 -93 -8v133l56 -24
q28 53 67 119l-65 38q-1 -2 -3 -7q-12 -40 -55 -112v359q0 80 8 133h-83q8 -54 8 -131v-369q-26 108 -90 252q-21 -43 -61 -75q78 -77 137 -316q-61 0 -107 8v-85q62 8 121 8v-133q0 -55 -8 -85zM885 453v71q-2 0 -11 -1q-51 -7 -124 -7h-137q-53 0 -107 8q-11 2 -14 2v-75
q2 0 9 1q45 9 112 9h135q70 0 125 -7q10 -1 12 -1zM492 558q1 0 8 1q51 7 113 7h141q69 0 123 -7q7 -1 8 -1v69q-2 0 -8 -1q-46 -7 -123 -7h-141q-57 0 -106 6q-12 2 -15 2v-69zM476 657q2 0 9 1q37 7 88 7h229q46 0 83 -7q7 -1 8 -1q0 2 -2 10q-6 31 -6 70v115q-1 39 8 65
h-91q4 -14 7 -37q2 -21 1 -28h-250q-1 36 7 67h-91q8 -33 8 -77v-102q0 -40 -7 -73q-1 -8 -1 -10zM560 725v67h250v-67h-250zM817 358q71 0 108 -7q6 -1 8 -1v73q-43 -7 -118 -8h-244q-62 0 -105 8v-73q45 8 103 8h84l-22 -66l83 -12l16 78h87z" />
</svg>
