<?xml version="1.0" standalone="no"?>
<!DOCTYPE svg PUBLIC "-//W3C//DTD SVG 1.1//EN" "http://www.w3.org/Graphics/SVG/1.1/DTD/svg11.dtd" >
<svg xmlns="http://www.w3.org/2000/svg" xmlns:xlink="http://www.w3.org/1999/xlink" version="1.1" viewBox="-10 0 1034 1024">
  <g transform="matrix(1 0 0 -1 0 820)">
   <path fill="currentColor"
d="M80 -107q57 91 85 195q12 52 20 122q6 75 8 189h150l-1 -475l-4 -29h48q-3 24 -5 49v455q103 0 113 -3q3 0 7 -2v47q-9 0 -12 -3q-22 0 -46 -3h-250v182q87 13 168 31q1 1 4 1q96 24 106 24l34 -1q-12 10 -25 23q-10 9 -24 28q-27 -13 -52 -23q-21 -7 -60 -18
q-46 -10 -94 -19q-46 -7 -71 -8q-16 0 -29 2q1 -30 5 -62l-2 -252l-7 -128q-12 -123 -56 -221q-28 -57 -70 -82l30 -8q15 -4 30 -11zM359 -121q24 -18 46 -46q52 36 107 82q69 63 108 129q24 45 39 80q13 36 27 97l42 -102q21 -40 48 -83q31 -43 65 -83q37 -42 95 -99
q15 15 49 38q4 3 8 5q-37 10 -77 41q-60 48 -114 131q-37 55 -61 119q-24 63 -32 99q-7 33 -8 68q0 21 3 37q1 16 20 33q-9 0 -22 3q-24 1 -46 7q3 -33 4 -65q0 -54 -3 -89q-15 -120 -70 -216q-54 -90 -139 -150q-42 -28 -89 -36zM885 525l-32 -78q-12 -27 -28 -57
q21 -3 44 -12l76 188q-49 -4 -63 -5h-249q39 147 41 150q0 6 6 13q7 13 30 25q-33 6 -72 20q-31 -219 -116 -370q-30 -48 -70 -75q33 -9 58 -23q45 63 112 224h263z" />
  </g>

</svg>
