<?xml version="1.0" standalone="no"?>
<!DOCTYPE svg PUBLIC "-//W3C//DTD SVG 1.1//EN" "http://www.w3.org/Graphics/SVG/1.1/DTD/svg11.dtd" >
<svg xmlns="http://www.w3.org/2000/svg" xmlns:xlink="http://www.w3.org/1999/xlink" version="1.1" viewBox="-10 0 1034 1024">
  <g transform="matrix(1 0 0 -1 0 820)">
   <path fill="currentColor"
d="M48 133q9 -27 14 -52q28 6 82 14l225 32l11 49q-27 -9 -54 -16q-30 -6 -78 -13q-114 -15 -166 -16q-12 0 -34 2zM452 312l-4 -34q0 -16 -3 -35l-10 -166q-3 -45 -8 -74q-3 -18 -11 -35q-15 -27 -61 -36q-36 -6 -74 -7q-24 0 -44 6q15 -30 22 -52q55 4 81 9q64 9 93 36
q19 18 28 47q6 27 12 107l9 141l6 75l4 31l3 28q-49 -4 -59 -5h-246l17 207l287 -1q13 0 32 -5v47q-21 -1 -44 -5l-272 -1q1 51 5 91q3 34 6 43q0 7 13 22q-34 3 -58 9q1 -57 0 -108q-1 -6 -11 -180l-18 -161q60 6 62 6h243zM929 -154q9 7 19 14q9 7 32 20q-33 18 -56 40
q-49 42 -89 103q-78 120 -111 281q-3 19 -5 34l-1 44q0 19 3 41q3 13 20 26q-40 6 -66 14q3 -27 3 -36q0 -121 -37 -242q-22 -76 -58 -140q-42 -72 -91 -122q-36 -33 -84 -58q3 0 8 -4q30 -15 44 -26q36 30 84 84q60 69 106 176q18 40 49 155q63 -231 210 -383q9 -10 20 -21
zM512 389l9 -3q22 37 55 101l28 55h270q-39 -87 -76 -136q24 -3 48 -12q7 15 15 31q16 42 54 115q6 13 15 29l7 14q-33 -1 -65 -5h-251l44 112q18 46 22 51q6 9 27 20q-34 6 -66 17q-12 -52 -27 -98q-18 -49 -49 -115q-52 -120 -103 -166q27 -3 41 -9l2 -1v0z" />
  </g>

</svg>
