<?xml version="1.0" standalone="no"?>
<!DOCTYPE svg PUBLIC "-//W3C//DTD SVG 1.1//EN" "http://www.w3.org/Graphics/SVG/1.1/DTD/svg11.dtd" >
<svg xmlns="http://www.w3.org/2000/svg" xmlns:xlink="http://www.w3.org/1999/xlink" version="1.1" viewBox="-10 0 1010 1000">
   <path fill="currentColor"
d="M653 -12q32 9 72 16q34 6 31 12q0 7 -7 15q-11 15 -17 33q-4 11 -13 35q-23 67 -25 64h153q60 1 97 -8q-48 137 -69 222q-42 -20 -91 -23q34 -36 59 -125h-168l-80 170q-17 -19 -43 -30v66q-14 -9 -54 -8v385q7 43 -151 75q-2 -58 -34 -97q111 14 110 -28v-337h-276
q-64 0 -105 8v-79q40 6 105 6q-14 -33 -56 -60q115 -30 169 -117h-44q-89 -1 -131 10v-81q39 7 135 7h58q10 -38 2 -127q21 4 59 5t36 7q0 8 -8 16q-12 12 -12 32q0 46 -6 69h82q65 1 109 -8v80q-31 -8 -111 -8h-86q121 63 175 99q-44 34 -56 62q-68 -69 -154 -106
q-46 67 -147 120h359q108 -151 133 -372zM661 326q33 5 71 9q31 2 28 7q0 2 -2 7q-9 21 -8 60q9 145 58 254q59 101 166 151q-63 33 -91 75q-83 -79 -123 -158q-36 -75 -46 -183q-6 127 -57 226q-45 85 -101 141q-38 -32 -88 -52q110 -67 157 -196q22 -59 33 -158
q11 -102 3 -183zM99 488q53 7 129 6q94 1 133 -7q-4 17 -5 41q-1 11 -1 25v39v81q-1 66 8 93h-83q5 -15 4 -35h-105q0 28 4 47h-84q9 -26 8 -101v-93q0 -62 -8 -96zM179 556v113h105v-113h-105z" />
</svg>
