<?xml version="1.0" standalone="no"?>
<!DOCTYPE svg PUBLIC "-//W3C//DTD SVG 1.1//EN" "http://www.w3.org/Graphics/SVG/1.1/DTD/svg11.dtd" >
<svg xmlns="http://www.w3.org/2000/svg" xmlns:xlink="http://www.w3.org/1999/xlink" version="1.1" viewBox="-10 0 1010 1000">
   <path fill="currentColor"
d="M613 -2q88 20 103 36q0 3 -8 13q-15 16 -21 31q-16 34 -40 103h145q80 0 113 -2q39 -2 51 -8q1 9 -83 238l-95 -16q38 -55 65 -145h-220q-39 98 -77 163q-29 -14 -88 -24q118 -133 155 -389zM371 16q95 3 91 12q0 3 -4 11q-12 24 -12 45v51q69 0 92 -6v76q-17 -8 -92 -8
v377q72 1 90 -8v79q-19 -5 -60 -6q-20 -1 -47 -2h-68h-149q-86 0 -118 1q-40 2 -58 7v-79q19 8 105 8v-373q-66 0 -89 8v-80q14 8 89 8q0 -83 -6 -119q83 2 95 12q0 3 -5 11q-15 23 -15 43v53h167q0 -105 -6 -121zM379 199h-169v85h169v-85zM641 324q91 2 105 12q0 3 -5 10
q-14 19 -15 41q-15 287 228 429q-56 51 -69 79q-153 -123 -198 -311q-40 176 -213 315q-12 -9 -30 -22q-43 -33 -61 -37q152 -68 206 -180q55 -105 52 -336zM379 340h-169v85h169v-85zM210 483v93h169v-93h-169zM179 659q23 11 59 32q7 4 10 6q17 13 0 22q-16 0 -32 23
q-37 53 -99 120q-29 -30 -69 -48q84 -66 131 -155zM371 653q47 31 113 101l-57 46q-48 -63 -104 -105z" />
</svg>
