<?xml version="1.0" standalone="no"?>
<!DOCTYPE svg PUBLIC "-//W3C//DTD SVG 1.1//EN" "http://www.w3.org/Graphics/SVG/1.1/DTD/svg11.dtd" >
<svg xmlns="http://www.w3.org/2000/svg" xmlns:xlink="http://www.w3.org/1999/xlink" version="1.1" viewBox="-10 0 1034 1024">
  <g transform="matrix(1 0 0 -1 0 820)">
   <path fill="currentColor"
d="M294 538q-225 0 -237 3q-6 1 -10 2v-47q15 4 35 5l212 1v-497h-139v172l89 -3q4 0 12 -3v47q-4 0 -7 -1l-94 -4v146q82 24 107 24h15l-18 34q-1 6 -7 16q-49 -27 -139 -41q4 -45 5 -56l-1 -421q-1 -13 -4 -27h48q-4 12 -5 26l-1 54h320q0 -37 -5 -63v-2h48q-4 27 -5 57
l1 409l4 39q-27 -1 -54 -5l-82 4q-4 1 -7 1v-46q46 4 97 5h3v-152l-88 3l-9 3v-47q19 4 43 5h54v-174h-143v497l192 -1q12 0 33 -5v47q-31 -1 -63 -5h-162v132q67 12 89 16q49 12 60 12q13 0 24 -2q-25 27 -38 48q-39 -15 -64 -21q-37 -9 -108 -19q-84 -9 -101 -10
q-45 0 -80 5q15 -24 24 -50l116 11q21 1 40 5v-127zM695 313q0 -24 -4 -65q-9 -85 -27 -146q-43 -129 -130 -200q-18 -15 -49 -27q39 -30 43 -33q27 22 57 55q36 40 45 54q30 45 53 100q21 57 41 139l47 -111q18 -36 39 -70q45 -67 120 -146q39 33 47 37q-31 19 -39 26
q-36 27 -69 69q-81 100 -114 222q-19 67 -20 134q0 24 3 34q1 13 16 27l-63 13q3 -31 4 -46v-66zM876 518q-12 -34 -53 -135q22 -3 45 -5q33 99 65 179q0 1 1 2q-33 -1 -65 -5h-196q39 141 41 150q3 18 4 16q4 18 24 32q-24 6 -62 18q-6 -78 -43 -198q-42 -123 -112 -216
q27 -4 50 -14q21 37 39 76q19 40 46 100h216z" />
  </g>

</svg>
