<?xml version="1.0" standalone="no"?>
<!DOCTYPE svg PUBLIC "-//W3C//DTD SVG 1.1//EN" "http://www.w3.org/Graphics/SVG/1.1/DTD/svg11.dtd" >
<svg xmlns="http://www.w3.org/2000/svg" xmlns:xlink="http://www.w3.org/1999/xlink" version="1.1" viewBox="-10 0 1010 1000">
   <path fill="currentColor"
d="M625 -6q102 9 103 22q0 4 -7 10q-14 12 -19 30q-6 23 -27 88q-7 21 -10 31h147q34 0 119 -5q15 -1 21 -1t6 8q-23 92 -57 204l-89 -4l53 -133h-220q-2 6 -7 20q-24 67 -67 145q-29 -27 -71 -32q95 -184 125 -383zM272 0q5 0 15 1q84 1 78 13q0 5 -5 16q-7 17 -7 28v54h80
q90 0 127 -6v69q-16 -2 -43 -3q-13 -1 -32 -1h-52h-84v93h44q24 0 84 -3q28 -1 33 -1v66q-6 0 -28 -1q-53 -1 -89 -1h-175q-61 0 -83 1q-26 1 -38 3v-70q47 6 125 6h56v-95h-88q-67 0 -89 1q-28 1 -41 3v-69q3 0 14 1q53 5 116 5h88v-58q0 -28 -6 -52zM671 334q102 0 103 12
q1 3 -4 10q-40 -13 8 254q38 132 190 234q-36 24 -73 73q-157 -137 -183 -319q-44 196 -210 311q-4 -3 -13 -11q-29 -29 -74 -46q143 -63 201 -181q58 -114 55 -337zM50 522q99 6 137 6h214q37 0 97 -4q34 -2 46 -2v70q-55 -4 -137 -4h-56v226q2 46 -20 59q-21 15 -107 26
q0 -45 -28 -81q55 8 65 -3q14 -8 15 -55v-172h-88q-71 0 -94 1q-30 1 -44 3v-70zM462 627q33 35 70 106l-64 35q-23 -54 -65 -113zM161 629l75 32q-54 92 -111 157q-27 -21 -73 -26q75 -89 109 -163zM502 385v68q-43 -3 -109 -4h-161q-51 0 -125 4v-68q51 3 125 4h161
q48 0 69 -1q25 -1 40 -3z" />
</svg>
