<?xml version="1.0" standalone="no"?>
<!DOCTYPE svg PUBLIC "-//W3C//DTD SVG 1.1//EN" "http://www.w3.org/Graphics/SVG/1.1/DTD/svg11.dtd" >
<svg xmlns="http://www.w3.org/2000/svg" xmlns:xlink="http://www.w3.org/1999/xlink" version="1.1" viewBox="-10 0 1010 1000">
   <path fill="currentColor"
d="M635 -4q12 4 33 10q82 24 76 28q0 2 -4 7q-28 32 -71 150h188q58 0 109 -4q-20 62 -46 154q-14 51 -23 82q-27 -15 -89 -16q35 -85 53 -145h-222q-34 77 -62 145q-31 -25 -81 -28q103 -151 139 -383zM107 46q42 4 80 5q18 1 44 1h73q92 0 121 -1q39 -1 65 -5q-4 21 -5 56
q-1 18 -1 42v69q0 80 1 108q1 35 5 66q-27 -3 -42 -3q-12 -1 -39 -1h-143l-58 72h209q47 0 113 -6q-4 32 -10 139q-11 197 -22 232q-11 46 -127 71q-10 -52 -29 -82q-4 -6 -3 -7q101 25 98 -60q8 -142 11 -232h-103q-9 37 -24 84q21 16 66 54q33 26 44 35l-60 42
q-31 -47 -71 -88q-1 2 -4 7q-28 48 -64 96q-12 -9 -41 -22q-27 -13 -26 -17q90 -52 115 -191h-115q-21 18 -52 54q11 1 30 3q33 1 32 7q1 3 -2 12q-15 47 -14 123v53h174v70q-37 -6 -123 -6t-129 6q11 -56 13 -98q2 -47 1 -152l-35 35q-17 -37 -48 -67q97 -57 175 -171
q-37 -1 -80 4q4 -29 5 -69q1 -19 1 -43v-64v-67q0 -21 -1 -36q-1 -28 -5 -58zM181 112v83h236v-83h-236zM181 254v70h236v-70h-236zM510 820q176 -134 147 -502q20 2 56 4q61 3 57 10q0 1 -4 5q-30 28 -20 94q36 286 224 385q-50 26 -85 79q-158 -152 -171 -363
q-13 211 -162 371q-15 -53 -38 -75q-5 -5 -4 -8z" />
</svg>
