<?xml version="1.0" standalone="no"?>
<!DOCTYPE svg PUBLIC "-//W3C//DTD SVG 1.1//EN" "http://www.w3.org/Graphics/SVG/1.1/DTD/svg11.dtd" >
<svg xmlns="http://www.w3.org/2000/svg" xmlns:xlink="http://www.w3.org/1999/xlink" version="1.1" viewBox="-10 0 1034 1024">
  <g transform="matrix(1 0 0 -1 0 820)">
   <path fill="currentColor"
d="M584 348q-49 -4 -68 -5l-429 1q-9 1 -21 2q-3 0 -20 2v-46q49 4 89 5h278v-341q0 -42 -21 -55q-19 -9 -62 -9q-22 0 -60 6q9 -19 20 -54q61 3 92 10q27 6 45 23q24 21 24 70v350h65q21 0 48 -3q1 0 20 -2v46zM456 382q-4 60 -5 79v210q33 0 78 -5v46q-19 -3 -17 -3
q-24 0 -50 -2l-349 1q-9 1 -21 2q-4 0 -21 2v-46q51 4 88 5h254l-1 -238q-1 -10 -2 -28q-1 -10 -3 -23h49zM277 424l49 -4l-4 51l3 123q0 3 1 5q-63 -3 -95 -4l-97 3q-4 1 -8 1q3 -72 4 -74l-4 -102v-3l52 4h99zM166 460v99h119v-99h-119zM433 -135q22 -13 45 -35
q72 48 140 139q60 85 87 214l20 -59q9 -24 20 -46q15 -33 52 -89q24 -33 51 -62q33 -34 85 -82q13 9 16 10l16 10q10 9 25 15q-25 9 -50 24q-18 13 -39 31q-19 15 -39 38q-84 91 -120 214q-21 69 -22 120q0 24 4 51q3 22 16 44q-31 1 -62 5q3 -37 4 -63q0 -49 -8 -116
q-10 -87 -46 -167q-36 -78 -94 -135q-39 -36 -101 -61zM622 518h282q-42 -88 -86 -142q21 -3 37 -8q9 -1 18 -3q18 42 55 116l40 78q-33 -1 -68 -5h-263q24 57 40 105q15 49 25 68q6 12 28 28q-63 15 -67 17q-3 -30 -10 -53q-9 -36 -21 -75q-13 -42 -22 -57
q-67 -148 -124 -185q30 -6 56 -19q19 27 50 82zM269 14l49 -4q-3 63 -4 66l1 115q0 19 3 39q-63 -3 -92 -4l-108 3q-4 1 -9 1l4 -55l-3 -157q-1 -3 -1 -8l52 4h108zM149 47v148h128v-148h-128z" />
  </g>

</svg>
