<?xml version="1.0" standalone="no"?>
<!DOCTYPE svg PUBLIC "-//W3C//DTD SVG 1.1//EN" "http://www.w3.org/Graphics/SVG/1.1/DTD/svg11.dtd" >
<svg xmlns="http://www.w3.org/2000/svg" xmlns:xlink="http://www.w3.org/1999/xlink" version="1.1" viewBox="-10 0 1034 1024">
  <g transform="matrix(1 0 0 -1 0 820)">
   <path fill="currentColor"
d="M497 297q-6 -153 -13 -233q-4 -61 -15 -89q-12 -27 -37 -37q-21 -9 -53 -10q-9 0 -36 4q12 -34 17 -54q84 12 114 36q27 21 39 67q10 49 17 177q4 121 9 155l3 26q-54 -6 -72 -6h-251l52 88l192 -1q15 0 39 -4q-4 45 -5 59l1 206l4 44q-54 -6 -73 -6l-264 1l-12 2
q-9 0 -28 3q1 -28 5 -58l-1 -209q-3 -12 -4 -42q45 4 75 5h24q-36 -73 -80 -121q-58 -60 -103 -79q15 -9 46 -37l43 43l60 70h307zM167 458v95h292v-95h-292zM167 590v92h292v-92h-292zM150 9v118q0 6 2 24q1 19 13 40h-58q4 -27 5 -92l-1 -93q-3 -12 -4 -38q45 4 66 5
l182 -1q21 0 28 -3q3 0 7 -1v47q-4 0 -7 -1q-3 0 -6 -2q-21 0 -44 -3h-183zM174 64q28 -15 49 -31q33 45 81 129q60 -54 90 -115q12 13 39 31q-27 31 -51 58l-64 63q6 19 15 32q7 13 10 15q6 3 16 10q-27 7 -56 21q-13 -46 -24 -75q-9 -24 -20 -47q-37 -66 -85 -91z
M466 -130q33 -21 53 -42q57 43 114 109q37 48 61 94q24 54 44 122q31 -82 74 -153q39 -63 110 -150q28 21 62 39q-57 28 -92 69q-51 60 -94 155q-45 97 -45 165l4 93q1 33 20 53q-42 4 -70 13q6 -39 6 -69q0 -70 -6 -136q-9 -99 -49 -181q-49 -96 -115 -146q-33 -22 -77 -35
zM885 542q-25 -102 -63 -159q24 -3 49 -11l75 212q-49 -4 -57 -5h-255l32 102q15 55 42 74q-34 10 -68 30l-7 -56q-4 -27 -15 -66q-30 -114 -62 -175q-27 -54 -66 -87q33 -12 49 -20q4 -3 8 -4q45 87 75 165h263z" />
  </g>

</svg>
