<?xml version="1.0" standalone="no"?>
<!DOCTYPE svg PUBLIC "-//W3C//DTD SVG 1.1//EN" "http://www.w3.org/Graphics/SVG/1.1/DTD/svg11.dtd" >
<svg xmlns="http://www.w3.org/2000/svg" xmlns:xlink="http://www.w3.org/1999/xlink" version="1.1" viewBox="-10 0 1034 1024">
  <g transform="matrix(1 0 0 -1 0 820)">
   <path fill="currentColor"
d="M349 651l134 -67q39 -21 86 -58q9 21 13 29q3 6 7 15l-215 111q-18 9 -34 18l12 12q9 9 26 18l-39 24q-3 3 -7 5q-39 -58 -139 -149q-91 -76 -152 -98q15 -9 29 -22q9 -7 16 -11q51 33 118 90q63 54 108 102zM194 510q49 4 71 5l185 -1q21 0 34 -4v44q-30 -1 -62 -5
q-204 0 -217 3q-3 1 -11 2v-44zM263 -45q0 -42 -24 -49q-15 -3 -40 -4q-27 0 -48 6q12 -27 17 -48q66 4 84 9q21 6 33 18q15 15 16 59l1 267q0 12 3 19q0 9 1 18q-48 -6 -64 -6q-123 0 -139 3q-6 1 -13 3v-44q34 4 60 5h113v-148q-100 -45 -184 -62q12 -18 21 -44
q66 37 163 71v-73zM159 151q-9 10 -24 27q-12 -12 -28 -24q39 -36 77 -90q12 15 28 27l-20 23q-16 19 -33 37zM150 305q24 3 51 5l265 -1q4 0 10 -1l28 -3q-6 33 -6 71q0 31 3 64q0 9 3 19q-27 -1 -56 -5l-261 1q-15 3 -37 4q1 -25 5 -52q0 -51 -2 -72q-3 -3 -3 -30z
M192 344v76h268v-76h-268zM499 -29q0 -48 -29 -56q-18 -3 -42 -4q-18 0 -37 4l21 -45q54 7 82 14q18 4 27 15q15 19 16 64l1 250q0 15 4 39q-18 -1 -26 -2q-19 -3 -68 -3l-97 3q-3 1 -8 2v-44q46 4 97 5h59v-137q-36 -12 -60 -24q-24 -9 -43 -19l-64 -21q15 -19 18 -26
q0 -1 5 -13q39 19 62 33q12 4 25 11q18 6 57 23v-69zM352 156l44 -45q12 -15 29 -35q3 6 23 25q-15 22 -22 29q-15 13 -29 28q-7 9 -20 21q-18 -18 -25 -23zM564 324q3 -1 13 -4q27 51 48 92q18 40 38 94h246q-28 -81 -58 -148q21 0 44 -7l74 196l-28 -3q-21 -3 -28 -3h-237
q15 51 29 104q15 60 21 71q6 15 26 28q-9 1 -22 5q-21 4 -42 14q-21 -147 -72 -275q-45 -106 -89 -151zM762 363q3 27 21 43q-31 1 -66 9q3 -31 4 -58q0 -87 -3 -119q-12 -121 -66 -226q-30 -57 -77 -102q-27 -22 -67 -44q22 -10 48 -29q57 45 105 113q52 78 89 218
q27 -70 45 -107t38 -69l40 -58l66 -84q18 13 46 31q-21 15 -44 38q-54 54 -80 99q-42 69 -58 111q-43 99 -44 151q1 42 3 66v17z" />
  </g>

</svg>
