<?xml version="1.0" standalone="no"?>
<!DOCTYPE svg PUBLIC "-//W3C//DTD SVG 1.1//EN" "http://www.w3.org/Graphics/SVG/1.1/DTD/svg11.dtd" >
<svg xmlns="http://www.w3.org/2000/svg" xmlns:xlink="http://www.w3.org/1999/xlink" version="1.1" viewBox="-10 0 1010 1000">
   <path fill="currentColor"
d="M296 -8q43 6 103 28q-31 16 -44 32q113 48 228 113l-61 64q-6 -4 -33 -29q-20 -18 -35 -31v64q-35 -6 -83 -6h-67q-46 0 -88 6v-36q-14 11 -41 32q-30 22 -78 59q-16 -34 -69 -57q181 -79 268 -239zM653 -8q53 3 107 18q0 2 -6 10q-14 17 -18 30t-18 54q-16 46 -26 75
h159q45 -1 87 -6q-27 111 -49 224q-50 -15 -93 -6q26 -56 53 -143h-174q-44 125 -72 181q-49 -31 -83 -42q103 -122 133 -395zM319 92q-37 35 -73 71q6 1 29 3q20 2 27 3h67q46 -1 69 -8q-64 -47 -119 -69zM681 310q101 12 109 24q1 2 -4 6q-23 26 -26 77q22 262 210 413
q-42 18 -79 57q-103 -105 -161 -305q-39 225 -149 329q-39 -27 -93 -34q208 -110 193 -567zM212 330v47h230v-47h-230zM71 473q63 7 100 8h55q33 0 84 -8q-5 36 -6 79v274q0 27 -39 44q-50 20 -92 13q1 -43 -28 -79q92 17 89 -28v-49q-35 11 -95 37q-40 16 -64 26
q-5 -32 -23 -77q81 -7 182 -38v-131h-63q-62 1 -100 8v-79zM333 473q57 8 107 8q83 0 123 -10l-3 27q-4 42 -4 50v236q6 81 -137 79q-1 -46 -28 -83q94 27 97 -20v-57q-40 18 -104 45q-36 16 -51 22q-6 -35 -20 -69q70 -6 173 -48v-113h-48q-55 -2 -105 8v-75zM157 558
l39 89l-69 20q-9 -51 -32 -89zM405 560q4 9 15 28q20 35 28 55l-67 20q-12 -36 -40 -85zM516 395q0 21 6 46q-31 -6 -78 -6h-234q-24 0 -75 6q5 -29 6 -66v-45q-1 -6 -2 -22q-2 -29 -4 -42q41 6 73 6h232q45 0 82 -8q-5 30 -6 68v63z" />
</svg>
