<?xml version="1.0" standalone="no"?>
<!DOCTYPE svg PUBLIC "-//W3C//DTD SVG 1.1//EN" "http://www.w3.org/Graphics/SVG/1.1/DTD/svg11.dtd" >
<svg xmlns="http://www.w3.org/2000/svg" xmlns:xlink="http://www.w3.org/1999/xlink" version="1.1" viewBox="-10 0 1034 1024">
  <g transform="matrix(1 0 0 -1 0 820)">
   <path fill="currentColor"
d="M263 -35l-159 1q-21 3 -20 2q-4 0 -14 2v-46q30 4 51 5l798 -1q4 0 38 -4v46q-39 -4 -64 -5h-330v347l252 -1q22 0 38 -5v47q-6 0 -61 -5h-229v293l293 -1q6 0 38 -4v46q-31 -1 -64 -5l-681 5v-46q3 0 7 1q1 1 61 4h306v-676h-220l1 428q1 15 4 29q3 6 8 19h-58
q4 -42 5 -65v-411z" />
  </g>

</svg>
