<?xml version="1.0" standalone="no"?>
<!DOCTYPE svg PUBLIC "-//W3C//DTD SVG 1.1//EN" "http://www.w3.org/Graphics/SVG/1.1/DTD/svg11.dtd" >
<svg xmlns="http://www.w3.org/2000/svg" xmlns:xlink="http://www.w3.org/1999/xlink" version="1.1" viewBox="-10 0 1034 1024">
  <g transform="matrix(1 0 0 -1 0 820)">
   <path fill="currentColor"
d="M398 433q-6 -49 -19 -110q-9 -36 -17 -61q-9 -22 -21 -51q-10 6 -19 12q-12 9 -24 17q-46 30 -70 42l-16 -24q-6 -6 -10 -14q22 -7 50 -23l42 -26q9 -6 27 -22q-25 -54 -106 -147q-82 -85 -152 -118q33 -15 50 -32q225 178 291 398q30 105 37 184q21 -7 37 -22
q36 39 62 77q16 27 35 52q3 3 6 9q0 -1 7 10h316l-16 -578q-1 -85 -18 -102q-21 -15 -73 -15q-9 0 -18 1q-4 0 -43 5q12 -18 20 -40l4 -13q15 0 30 2q67 6 100 23q19 12 28 34q4 18 9 85l17 567q0 21 6 73q-63 -6 -83 -6h-262l28 57q21 48 31 62q6 9 22 23q-10 3 -21 5
q-21 6 -38 14q-46 -144 -116 -239q-33 -43 -68 -74q0 3 1 6q-30 -1 -61 -5h-139q10 33 21 80l20 100l193 -3q1 0 11 -2v46q-31 -1 -64 -5l-316 1q-27 3 -34 4v-46h2q3 1 6 1q3 3 28 3l133 1q-4 -51 -22 -121q-36 -127 -79 -201q-51 -78 -93 -111q28 -6 51 -18q19 22 35 47
q16 22 34 52q12 22 24 46q15 30 40 90h164zM516 105q-3 -33 -5 -67q60 6 80 6l143 -1q39 -4 48 -5q-1 18 -2 29q-3 27 -4 51l1 275q1 25 5 51q-31 -1 -63 -5l-173 1l-35 4q1 -33 5 -67v-272zM739 79h-185v143h185v-143zM554 258v145h185v-145h-185z" />
  </g>

</svg>
