<?xml version="1.0" standalone="no"?>
<!DOCTYPE svg PUBLIC "-//W3C//DTD SVG 1.1//EN" "http://www.w3.org/Graphics/SVG/1.1/DTD/svg11.dtd" >
<svg xmlns="http://www.w3.org/2000/svg" xmlns:xlink="http://www.w3.org/1999/xlink" version="1.1" viewBox="-10 0 1034 1024">
  <g transform="matrix(1 0 0 -1 0 820)">
   <path fill="currentColor"
d="M365 418q-6 -127 -40 -219q-18 15 -45 31l-53 37q-10 7 -20 15q-10 -15 -11 -18q-6 -7 -15 -19q28 -10 50 -25q40 -27 80 -60q-37 -78 -114 -153q-46 -45 -78 -69q-25 -18 -64 -34q39 -22 51 -32q60 49 96 83q30 30 63 66q76 91 110 204q12 46 36 234q-51 -4 -74 -5h-110
q25 81 47 178h115q27 0 63 -5v46q-9 0 -17 -3l-221 -2l-135 2q-6 3 -13 3v-46q49 4 75 5h93q-24 -144 -90 -279q-46 -87 -94 -121q33 -13 48 -24q67 91 116 210h151zM495 -69l-135 2q-6 3 -13 3v-46h2l29 4l532 1q27 0 62 -5v46q-43 -4 -80 -5h-35v723q0 10 4 28q1 15 2 32
q-28 -1 -58 -5l-276 1q-15 3 -40 4l6 -59v-724zM817 -69h-284v249h284v-249zM533 216v206h284v-206h-284zM533 457v216h284v-216h-284z" />
  </g>

</svg>
