<?xml version="1.0" standalone="no"?>
<!DOCTYPE svg PUBLIC "-//W3C//DTD SVG 1.1//EN" "http://www.w3.org/Graphics/SVG/1.1/DTD/svg11.dtd" >
<svg xmlns="http://www.w3.org/2000/svg" xmlns:xlink="http://www.w3.org/1999/xlink" version="1.1" viewBox="-10 0 1010 1000">
   <path fill="currentColor"
d="M629 2q106 5 97 16q0 4 -6 14q-14 23 -14 46v117h76q63 0 119 -6v77q-56 -7 -119 -8h-76v141h92q73 0 133 -6v76q-76 -6 -131 -6h-36q31 184 202 270q-52 36 -71 79q-154 -122 -189 -345v297q0 68 4 131h-81q0 -5 1 -18q5 -70 5 -115v-277q-92 196 -244 345
q-18 -20 -91 -56q180 -108 271 -311q-86 0 -142 6v-74q17 2 46 3q13 1 32 1h47h81v-141h-95q-13 27 -38 105l-75 -21q52 -126 69 -276q18 3 46 6q62 8 57 14q0 3 -5 9q-8 12 -13 24q-7 21 -16 57q-3 14 -5 19h75v-129q1 -37 -6 -64zM73 90q6 0 31 1q62 3 96 3h92
q46 0 152 -6v81q-47 -4 -127 -4h-39q-2 11 -8 38q-11 63 -20 87h163q-30 371 -286 560q-30 -33 -87 -58q138 -74 212 -192q-27 -35 -87 -90l57 -49q16 16 36 40q18 22 28 31q19 -45 39 -170h-97q-53 110 -121 192q-18 -36 -63 -56q127 -149 158 -333q-74 0 -89 1
q-21 1 -40 5v-81z" />
</svg>
