<?xml version="1.0" standalone="no"?>
<!DOCTYPE svg PUBLIC "-//W3C//DTD SVG 1.1//EN" "http://www.w3.org/Graphics/SVG/1.1/DTD/svg11.dtd" >
<svg xmlns="http://www.w3.org/2000/svg" xmlns:xlink="http://www.w3.org/1999/xlink" version="1.1" viewBox="-10 0 1010 1000">
   <path fill="currentColor"
d="M885 26q-4 27 -6 97v82q0 23 6 83q-48 -6 -131 -6h-139q-92 0 -135 6q1 -11 4 -46q2 -35 4 -57v-60q-2 -69 -6 -97q44 6 141 6h131q78 0 131 -8zM56 52q39 8 107 8h137q32 0 98 -6q14 -2 19 -2v87q-42 -7 -123 -8h-24l-38 139h76q43 0 61 -1q22 -1 46 -5q-3 420 -292 611
q-40 -50 -79 -69q143 -68 218 -198q-5 -17 -50 -65q-28 -30 -49 -53l55 -53l78 97q34 -118 33 -196h-113q-47 116 -109 216q-29 -39 -63 -64q113 -123 144 -359h-29q-70 0 -103 6v-85zM800 102h-238v113h238v-113zM450 342q30 6 151 6h161q94 -1 143 -10q-6 35 -4 113v115
q0 86 8 111h-90q0 -3 1 -9q5 -51 5 -104v-149h-293v155q2 80 8 109h-94q8 -30 10 -111v-107q0 -89 -6 -119zM631 467q97 6 103 16q1 3 -9 12q-11 10 -11 15q-7 180 -67 244q-45 63 -256 139q-15 -39 -62 -81q203 -35 253 -100q30 -34 41 -90q11 -53 8 -155zM746 661
q164 116 216 165l-63 65q-97 -107 -209 -170z" />
</svg>
