<?xml version="1.0" standalone="no"?>
<!DOCTYPE svg PUBLIC "-//W3C//DTD SVG 1.1//EN" "http://www.w3.org/Graphics/SVG/1.1/DTD/svg11.dtd" >
<svg xmlns="http://www.w3.org/2000/svg" xmlns:xlink="http://www.w3.org/1999/xlink" version="1.1" viewBox="-10 0 1010 1000">
   <path fill="currentColor"
d="M865 2q59 80 54 92q-4 3 -16 2q-30 -5 -68 0q-8 1 -36 4q-287 34 -349 37q-12 -53 -35 -79q294 2 450 -56zM52 50q32 6 105 6h139q65 0 107 -6v83q-34 -6 -105 -6h-42q-2 12 -7 35q-18 89 -23 108h87q87 -1 106 -6q-37 391 -276 601q-37 -38 -87 -57q139 -85 202 -224
q-41 -55 -95 -105l57 -52l68 89q30 -82 39 -182h-119q-32 106 -109 234q-29 -50 -63 -66q107 -112 145 -375h-30q-61 0 -99 6v-83zM804 147q89 25 85 36q-1 4 -8 9q-11 8 -16 21q-4 9 -16 35q-25 51 -41 90q-54 -21 -76 -22q56 -76 72 -169zM669 159q21 63 33 143l-77 14
q4 -52 -30 -149zM516 173q33 79 42 149l-80 16q1 -80 -32 -149zM448 360q13 1 37 3q54 4 77 4h190q98 0 137 -5v99q-32 2 -132 44q-31 13 -45 19v50h107q51 0 121 -10v81q-43 -8 -123 -8h-105v171q2 46 -31 62q-33 18 -131 23q3 -52 -38 -101q133 30 121 -24v-131h-99
q-101 1 -139 10v-83q33 8 133 10h105v-70q17 -9 48 -24q62 -31 95 -49h-211q-66 0 -117 10v-81z" />
</svg>
