<?xml version="1.0" standalone="no"?>
<!DOCTYPE svg PUBLIC "-//W3C//DTD SVG 1.1//EN" "http://www.w3.org/Graphics/SVG/1.1/DTD/svg11.dtd" >
<svg xmlns="http://www.w3.org/2000/svg" xmlns:xlink="http://www.w3.org/1999/xlink" version="1.1" viewBox="-10 0 1034 1024">
  <g transform="matrix(1 0 0 -1 0 820)">
   <path fill="currentColor"
d="M346 445q-6 -81 -15 -113q-10 -48 -19 -75q-7 -25 -16 -44q-13 13 -24 22q-15 12 -45 33q-15 9 -28 18q-10 -19 -27 -42q55 -19 109 -70q-22 -63 -98 -156q-69 -81 -142 -109q33 -18 52 -35q66 54 134 134q73 91 116 221l28 109q9 51 18 112l6 36q-30 -1 -59 -5h-112
q10 33 24 83l18 73q78 0 160 -3q1 0 11 -2v46q-31 -1 -64 -5l-310 3q-3 1 -11 2v-46q6 3 36 4l137 1q-12 -78 -46 -170q-33 -93 -64 -142q-22 -37 -37 -56q-16 -18 -37 -36q15 -1 24 -5q9 -3 29 -11q36 51 64 103q27 54 55 125h133zM647 -93q-1 -21 -2 -54l-2 -6
q-1 -1 -1 -5h49q-4 24 -5 65v397q69 -153 254 -316q22 21 50 34q-55 22 -118 85q-91 93 -148 204l218 -3q4 0 11 -2v46q-39 -4 -65 -5h-202v169l179 -1l39 -4v46q-33 -1 -65 -5h-153v157q0 34 14 65h-58q0 -6 3 -15l2 -92v-115h-123l21 65q13 42 17 45q9 22 30 30
q-21 6 -43 14q-6 3 -21 7q0 -9 -3 -18q0 -1 -28 -109q-3 -6 -4 -13q-36 -96 -85 -149q21 -3 51 -16q36 75 43 85q4 12 10 23h135v-169l-229 3q-3 1 -14 2v-46h2q3 1 6 1q6 3 28 3l176 1q-75 -159 -202 -257q-61 -48 -111 -71q18 -7 37 -21q6 -6 14 -12q57 43 99 82
q39 36 78 81q69 81 116 167v-373z" />
  </g>

</svg>
