<?xml version="1.0" standalone="no"?>
<!DOCTYPE svg PUBLIC "-//W3C//DTD SVG 1.1//EN" "http://www.w3.org/Graphics/SVG/1.1/DTD/svg11.dtd" >
<svg xmlns="http://www.w3.org/2000/svg" xmlns:xlink="http://www.w3.org/1999/xlink" version="1.1" viewBox="-10 0 1010 1000">
   <path fill="currentColor"
d="M615 26q63 2 91 8q15 2 6 19q-8 15 -10 25q-1 8 -3 30q-2 18 -3 25h98q80 -1 141 -4v72q-64 -3 -137 -4h-106l-7 85h43q75 0 137 -4q-7 75 -8 159v353q39 0 56 -1q22 0 49 -3v74q-50 -6 -152 -6h-292q-101 1 -169 4v-72q40 2 109 2v-361q-2 -116 -8 -149q11 0 57 2
q37 1 60 2h46l4 -85h-63q-57 1 -117 4v-72q16 0 62 2q41 2 53 2h67v-16q1 -46 -4 -91zM419 121v76q-38 -4 -94 -4h-59q-17 67 -36 121h56q68 -1 125 -4q8 2 6 8q-32 237 -100 337q-83 118 -202 214q-43 -40 -79 -63q115 -51 212 -181q-47 -67 -87 -109l65 -51q4 6 12 17
q35 50 48 74q19 -45 40 -157l3 -18h-115q-46 105 -113 187q-15 -44 -51 -66q58 -66 105 -176q19 -44 30 -135h-20q-50 0 -68 1q-22 1 -35 3v-74q34 4 103 4h158q59 0 96 -4zM538 342v71h240v-71h-240zM538 465v71h240v-71h-240zM538 588v71h240v-71h-240zM538 711v79h240
v-79h-240z" />
</svg>
