<?xml version="1.0" standalone="no"?>
<!DOCTYPE svg PUBLIC "-//W3C//DTD SVG 1.1//EN" "http://www.w3.org/Graphics/SVG/1.1/DTD/svg11.dtd" >
<svg xmlns="http://www.w3.org/2000/svg" xmlns:xlink="http://www.w3.org/1999/xlink" version="1.1" viewBox="-10 0 1034 1024">
  <g transform="matrix(1 0 0 -1 0 820)">
   <path fill="currentColor"
d="M369 403q-1 -31 -10 -77q-16 -87 -33 -133q-36 30 -57 45l-42 27q-9 6 -17 12q-12 -21 -29 -43q54 -18 133 -80q-42 -100 -129 -185q-73 -67 -140 -90q21 -9 50 -35q61 46 105 85q36 34 71 77q54 72 82 142q27 75 45 191q6 54 8 54q4 25 11 51q-19 -1 -33 -3
q-25 -3 -33 -3h-120q13 39 23 85q12 57 14 79h97q24 0 51 -3l13 -2v46q-43 -4 -64 -5l-280 3q-6 1 -14 2v-46l64 5h89q-10 -153 -98 -296q-45 -69 -85 -98l19 -7q18 -6 35 -16q76 105 123 218h151zM487 -97l-106 1q-27 3 -35 4v-46q45 4 67 5l550 -3q1 0 11 -2v46
q-43 -4 -77 -5h-51l1 530l4 52q-66 -4 -94 -5h-84q6 72 6 76q1 15 3 27l201 -1q22 0 38 -5v46q-31 -1 -64 -5h-172q3 63 10 91q3 24 20 43l-63 7v-24q0 -46 -6 -117q-147 0 -157 2q-13 1 -28 3v-46q15 4 39 5l142 1q-3 -60 -9 -103q-75 0 -106 2q-9 3 -45 3q4 -69 5 -73
v-509zM526 -97v114h282v-114h-282zM526 53v109h282v-109h-282zM526 198v103h282v-103h-282zM526 337v107h282v-107h-282z" />
  </g>

</svg>
