<?xml version="1.0" standalone="no"?>
<!DOCTYPE svg PUBLIC "-//W3C//DTD SVG 1.1//EN" "http://www.w3.org/Graphics/SVG/1.1/DTD/svg11.dtd" >
<svg xmlns="http://www.w3.org/2000/svg" xmlns:xlink="http://www.w3.org/1999/xlink" version="1.1" viewBox="-10 0 1010 1000">
   <path fill="currentColor"
d="M748 -2q96 42 91 50q0 1 -2 2q-31 18 -87 117h50q57 0 95 -6q-4 34 -6 123v147q1 93 8 137q-7 0 -22 -2q-59 -4 -87 -4h-98v77h123q103 0 131 -8v84q-30 -6 -129 -8h-125v83q1 77 8 109h-93q8 -31 10 -109v-83h-143q-84 0 -131 10v-84q32 7 131 6h143v-77h-69
q-66 0 -119 8q7 -36 8 -153v-137q-1 -86 -6 -117q27 4 123 4h125q59 -103 71 -169zM569 8q27 48 54 117l-77 20q-10 -46 -54 -115zM62 56q52 8 109 8h123q85 -1 127 -10v87q-23 -4 -51 -5q-14 -1 -31 -1h-45h-40q-4 41 -28 147h78q64 -1 95 -6q-31 373 -288 605
q-32 -43 -75 -67q127 -81 204 -222q-58 -78 -89 -98l61 -47q27 30 60 69q27 -81 38 -170h-104q-42 115 -107 216q-33 -30 -69 -54q116 -120 149 -373h-26q-62 0 -91 6v-85zM510 231v103h105v-103h-105zM690 231v103h123v-103h-123zM510 393v105h105v-105h-105zM690 393v105
h123v-105h-123z" />
</svg>
