<?xml version="1.0" standalone="no"?>
<!DOCTYPE svg PUBLIC "-//W3C//DTD SVG 1.1//EN" "http://www.w3.org/Graphics/SVG/1.1/DTD/svg11.dtd" >
<svg xmlns="http://www.w3.org/2000/svg" xmlns:xlink="http://www.w3.org/1999/xlink" version="1.1" viewBox="-10 0 1034 1024">
  <g transform="matrix(1 0 0 -1 0 820)">
   <path fill="currentColor"
d="M347 452q-6 -132 -45 -237q-102 70 -117 84q-13 -24 -29 -40q18 -6 25 -10q12 -6 33 -20q21 -13 38 -26l36 -28q-84 -189 -232 -266q27 -12 51 -28q63 57 90 88q79 90 117 171q30 64 48 139q16 87 32 214q-4 0 -8 -2q-55 -3 -82 -4h-76q12 42 20 69l25 97h105q27 0 62 -5
v46q-43 -4 -79 -5l-286 2q-6 3 -13 3v-46q46 4 94 5h72q-18 -96 -41 -159q-37 -97 -87 -178q-27 -42 -57 -65l52 -21q72 117 119 222h133zM661 124l-264 1q-7 3 -17 4v-46q3 3 45 5h236v-187q0 -39 -5 -59h48q-3 30 -5 59v187h218q27 0 62 -5v46q-33 -4 -62 -5h-218v113
l175 -1l40 -4q-3 28 -5 58l1 267l4 42q-55 -4 -85 -5h-56q37 52 89 120q21 27 50 35q-21 12 -35 21q-9 6 -23 18q-19 -37 -46 -76q-31 -46 -85 -118l-229 1q-19 3 -41 4q1 -27 5 -56l-1 -270q-3 -12 -4 -41q6 3 36 3q7 1 70 2h102v-113zM495 273v126h166v-126h-166zM495 435
v123h166v-123h-166zM699 273v126h172v-126h-172zM699 435v123h172v-123h-172zM499 762l-3 -4q-6 -3 -8 -7q-4 -3 -11 -8q27 -22 68 -59q40 -39 72 -74q13 16 30 30q-126 120 -137 133q-6 -4 -11 -11v0z" />
  </g>

</svg>
