<?xml version="1.0" standalone="no"?>
<!DOCTYPE svg PUBLIC "-//W3C//DTD SVG 1.1//EN" "http://www.w3.org/Graphics/SVG/1.1/DTD/svg11.dtd" >
<svg xmlns="http://www.w3.org/2000/svg" xmlns:xlink="http://www.w3.org/1999/xlink" version="1.1" viewBox="-10 0 1010 1000">
   <path fill="currentColor"
d="M688 4q10 37 19 87l3 15h107q81 0 112 -6q-6 17 -6 71q0 41 6 81h-88q8 -36 6 -79h-361q0 58 6 85h-85q7 -27 8 -81q0 -43 -1 -54q0 -15 -3 -23q46 5 115 6h105q-9 -52 -34 -96zM62 70q17 0 101 6h95q46 0 123 -6v83q-19 -4 -40 -5q-16 -1 -67 -1h-22q-1 8 -3 25
q-10 85 -19 132h72q65 -1 101 -6q-23 396 -278 593q-29 -37 -77 -61q123 -65 194 -193q-16 -30 -79 -105l59 -40q42 59 54 80q33 -96 41 -201h-105q-49 151 -105 244l-8 -8q-35 -33 -57 -49q116 -151 133 -411h-22q-59 0 -91 6v-83zM792 233q27 47 45 89q-4 3 -12 1
q-26 -7 -73 -3q-25 2 -75 5q-108 7 -127 11v73h226q67 0 109 -6v76q-18 -6 -99 -6h-24v121h50q66 -1 121 -6v79q-49 -10 -121 -10h-284q-80 0 -151 8v-79q55 8 87 8h18v-191q0 -106 -4 -129q188 -1 314 -41zM550 473v121h144v-121h-144zM748 685q93 62 198 143l-69 65
q-84 -98 -192 -162zM530 687q82 52 73 61q-3 4 -12 7q-17 5 -35 19q-111 86 -167 119q-22 -27 -72 -55q132 -55 213 -151z" />
</svg>
