<?xml version="1.0" standalone="no"?>
<!DOCTYPE svg PUBLIC "-//W3C//DTD SVG 1.1//EN" "http://www.w3.org/Graphics/SVG/1.1/DTD/svg11.dtd" >
<svg xmlns="http://www.w3.org/2000/svg" xmlns:xlink="http://www.w3.org/1999/xlink" version="1.1" viewBox="-10 0 1034 1024">
  <g transform="matrix(1 0 0 -1 0 820)">
   <path fill="currentColor"
d="M347 418q-9 -66 -22 -113q-9 -40 -26 -80q-21 9 -40 20q-21 12 -36 19q-12 4 -31 14q-1 -6 -3 -15l-1 -1l-10 -22q-3 -4 -5 -10q19 -1 49 -14q30 -12 37 -17q10 -6 24 -14q-12 -42 -43 -95q-48 -81 -101 -132q-15 -13 -62 -43q-6 -3 -10 -6q24 -9 49 -29q126 117 189 255
q30 72 48 130l20 80l23 114q-28 -1 -57 -5h-123q15 49 26 101q4 24 11 46q3 12 5 26h79q27 0 51 -3l13 -2v47q-9 -3 -15 -3l-49 -3l-223 1q-24 4 -41 5v-47q49 6 108 5h36q-9 -67 -23 -118q-10 -39 -35 -98q-28 -66 -57 -107q-25 -34 -68 -64q30 -9 54 -22q25 31 56 82
q21 33 34 60q12 24 25 58h144zM325 -130q16 -10 39 -31q42 30 71 53l67 58l57 53q18 16 45 31l-31 17q-9 4 -20 14q-79 -124 -228 -195zM507 137l-118 3q-6 0 -13 2v-46q3 1 7 1q0 1 59 4q501 0 512 -2q6 0 10 -1l13 -2v46q-43 -4 -74 -5h-134v170q57 0 120 -3q1 0 11 -2v46
l-42 -4l-313 -1v86q93 7 204 30l70 13l48 7l-20 18q-6 9 -21 27q-117 -48 -324 -58q1 -33 5 -69v-260zM545 137v170h186v-170h-186zM424 632q1 -31 5 -65l-4 -89q-1 -1 -1 -4h49l-3 9q0 21 -3 57v51h438l-3 -104q-3 -7 -4 -11h51q-6 48 -6 53q0 37 3 76q0 12 3 27
q-33 -1 -67 -5l-411 1q-15 3 -47 4zM704 649q7 10 20 20q-31 30 -53 45l-76 56q-12 -19 -28 -36q36 -21 59 -39q30 -24 42 -36q9 -7 23 -24q6 7 13 14zM740 55q-12 -15 -20 -26q27 -12 50 -30q54 -42 111 -92q21 -21 52 -55q13 18 29 35q-28 30 -95 87l-119 94q-4 -6 -8 -13
v0z" />
  </g>

</svg>
