<?xml version="1.0" standalone="no"?>
<!DOCTYPE svg PUBLIC "-//W3C//DTD SVG 1.1//EN" "http://www.w3.org/Graphics/SVG/1.1/DTD/svg11.dtd" >
<svg xmlns="http://www.w3.org/2000/svg" xmlns:xlink="http://www.w3.org/1999/xlink" version="1.1" viewBox="-10 0 1010 1000">
   <path fill="currentColor"
d="M450 8q53 84 42 86q-3 2 -16 1q-35 -4 -79 1q-73 7 -189 16v55h171q22 0 76 -3q10 -1 15 -1q-7 46 -6 121v36v10q0 61 1 91q1 35 3 62q-29 -4 -83 -4h-177l-4 69h167q33 1 95 -6q-5 26 -13 90q-14 103 -22 128q-8 66 -157 84q-2 -47 -32 -98q98 26 117 -25
q12 -36 22 -113h-181q-28 154 -113 279q-15 -27 -49 -64q-3 -3 -4 -5q92 -120 103 -322v-335q0 -71 -6 -111q176 0 319 -42zM208 227v67h185v-67h-185zM208 350v69h185v-69h-185zM865 405q-59 249 -129 320q103 58 224 77q-39 33 -57 93q-123 -51 -218 -119q-67 64 -211 127
q-34 -53 -75 -73q152 -41 234 -103q-70 -84 -115 -227l55 -25q-13 0 -75 6v-76q60 6 101 6h167q60 0 99 -6zM472 318q57 -19 75 -83q9 -32 10 -78q2 -45 -5 -117q128 9 271 0q-12 111 -13 187q-2 32 19 34q17 4 109 -13q-14 59 -13 88q-30 1 -58 2h-55q-48 0 -61 -16
q-17 -17 -17 -64q0 -24 2 -86q2 -47 2 -60h-109q1 105 -16 150q-16 52 -69 103q-24 -17 -72 -47zM591 475q31 135 92 204q56 -68 89 -204h-181z" />
</svg>
