<?xml version="1.0" standalone="no"?>
<!DOCTYPE svg PUBLIC "-//W3C//DTD SVG 1.1//EN" "http://www.w3.org/Graphics/SVG/1.1/DTD/svg11.dtd" >
<svg xmlns="http://www.w3.org/2000/svg" xmlns:xlink="http://www.w3.org/1999/xlink" version="1.1" viewBox="-10 0 1010 1000">
   <path fill="currentColor"
d="M375 -6q67 85 63 104q-1 4 -16 2q-21 -4 -35 -2q-15 3 -50 7q-64 7 -121 16v121h76q70 0 111 -4v76q-19 -2 -45 -3q-13 -1 -29 -1h-43h-70v117h68q83 0 119 -6v77q-6 0 -18 -1q-44 -3 -105 -3h-64v139q79 -14 207 -47l-6 85q-33 6 -119 21q-84 14 -82 15v61q0 42 6 143
h-89q1 -18 3 -50q5 -69 5 -89v-51q-10 3 -32 10q-36 10 -57 17l-12 -99q36 0 55 -1q22 -1 46 -5v-512q0 -35 -4 -71q165 -21 238 -66zM788 28q0 3 -2 16q-4 35 -4 60v81q-1 44 8 53q8 12 39 10q69 -2 111 -11q-12 55 -15 97h-104q-72 1 -92 -17q-24 -17 -23 -73v-138h-117
q-2 173 -113 261q-33 -40 -65 -55q62 -38 88 -113q27 -77 13 -171q30 6 75 6h115q60 0 86 -6zM756 397q58 0 97 -6q-52 212 -157 326q118 67 252 81q-48 48 -69 95q-159 -57 -242 -127q-94 71 -236 135q-23 -45 -80 -85q151 -36 260 -101q-67 -87 -117 -219l62 -27
q-21 1 -52 4q-26 2 -36 2v-84q3 0 10 1q46 5 112 5h196zM544 469q31 118 93 194q74 -74 107 -194h-200z" />
</svg>
