<?xml version="1.0" standalone="no"?>
<!DOCTYPE svg PUBLIC "-//W3C//DTD SVG 1.1//EN" "http://www.w3.org/Graphics/SVG/1.1/DTD/svg11.dtd" >
<svg xmlns="http://www.w3.org/2000/svg" xmlns:xlink="http://www.w3.org/1999/xlink" version="1.1" viewBox="-10 0 1010 1000">
   <path fill="currentColor"
d="M308 38q35 6 101 6h182q93 0 119 -4q-3 11 -3 26q-1 11 -1 44v103q-3 55 44 59q72 4 183 -20q-19 44 -14 88q-44 6 -127 7q-66 0 -96 -5q-63 -7 -59 -82v-147h-252q6 123 -38 171q-57 57 -212 101q-14 -52 -58 -83q128 -11 183 -44q60 -31 53 -154q1 -24 -5 -66zM155 399
q19 8 168 8h284q74 0 106 -1q38 -1 63 -3q-80 217 -193 302q134 65 367 69q-47 31 -67 93q-218 -16 -373 -107q-149 81 -377 113q-10 -41 -56 -91q202 4 365 -71q-93 -72 -170 -201l61 -31q-106 0 -133 1q-37 1 -45 5v-86zM359 479q61 117 157 186q104 -85 147 -186h-304z
" />
</svg>
