<?xml version="1.0" standalone="no"?>
<!DOCTYPE svg PUBLIC "-//W3C//DTD SVG 1.1//EN" "http://www.w3.org/Graphics/SVG/1.1/DTD/svg11.dtd" >
<svg xmlns="http://www.w3.org/2000/svg" xmlns:xlink="http://www.w3.org/1999/xlink" version="1.1" viewBox="-10 0 1010 1000">
   <path fill="currentColor"
d="M319 -6q10 19 38 96l-81 18q-11 -48 -34 -92zM591 48q54 6 92 6h73q49 0 91 -6q-11 117 -8 190q0 35 19 37q11 5 108 -9q-14 42 -14 84h-95q-63 2 -75 -13q-17 -15 -16 -75v-137h-101q5 166 -80 264q-29 -35 -69 -51q55 -39 72 -106q9 -33 9 -78q1 -44 -6 -106zM95 115
q63 6 109 6h193q51 0 119 -6v76q-69 -6 -121 -6h-193q-35 0 -52 1q-22 1 -55 5v-76zM377 197q7 2 21 7q70 21 62 27q-1 2 -6 6q-28 25 -69 85q74 0 123 -6v75q-59 -6 -125 -6h-54q-4 3 -24 23l-15 15l22 33q35 51 51 80q39 -44 79 -103q80 39 74 44q-1 3 -9 8
q-43 26 -106 85q48 27 153 87q-44 37 -54 58q-38 -46 -111 -94q23 114 -8 195q-34 67 -143 79q-7 -40 -38 -89h8q61 5 78 -4q31 -10 39 -43q9 -33 6 -132q-100 115 -232 201l-63 -52q162 -64 279 -206q-5 -25 -19 -44q-81 87 -199 161q-22 -30 -55 -52q115 -43 228 -154
q-6 -11 -15 -22q-3 -4 -5 -6q-29 21 -117 76q-26 16 -40 25q-18 -38 -47 -60q140 -57 202 -109h-69q-44 0 -116 6v-75q66 6 118 6h144q11 -16 35 -81q12 -31 17 -44zM224 203q21 39 34 87l-70 24q-9 -43 -31 -93zM548 407q63 7 125 6h127q39 0 57 -1q22 -2 42 -7
q-9 24 -28 79q-56 168 -107 231q84 53 200 71q-20 23 -39 61q-9 16 -14 26q-123 -52 -191 -105q-84 75 -230 133q-17 -42 -69 -79q145 -20 248 -103q-58 -78 -104 -215l48 -21q-14 0 -41 2q-15 1 -24 2v-80zM637 481q29 115 79 188q55 -84 76 -188h-155z" />
</svg>
