<?xml version="1.0" standalone="no"?>
<!DOCTYPE svg PUBLIC "-//W3C//DTD SVG 1.1//EN" "http://www.w3.org/Graphics/SVG/1.1/DTD/svg11.dtd" >
<svg xmlns="http://www.w3.org/2000/svg" xmlns:xlink="http://www.w3.org/1999/xlink" version="1.1" viewBox="-10 0 1034 1024">
  <g transform="matrix(1 0 0 -1 0 820)">
   <path fill="currentColor"
d="M271 216h126q33 0 58 -5v45q-4 0 -8 -1q-3 0 -4 -1q-42 0 -83 -3l-261 1q-24 3 -23 2q-4 0 -12 2v-45q19 4 51 5h118v-214q-93 -36 -169 -47l20 -57q42 27 170 71q111 34 201 59q3 25 8 49q-39 -16 -84 -32l-108 -33v204zM396 354q27 -1 55 -5q-6 33 -6 72l1 269
q1 18 5 36q-25 -1 -51 -5l-104 3q-3 1 -11 2v-45q3 1 47 5h75v-130q-66 0 -95 2q-4 1 -7 1t-12 2v-46l48 6h66v-132h-290v127q81 0 96 -3q4 0 11 -2v46q-4 0 -7 -1q-3 0 -6 -2l-94 -3v138q87 21 100 22q18 1 44 2q-24 28 -35 49q-64 -33 -152 -42q4 -54 5 -71l-1 -261
q-3 -12 -4 -39q45 4 92 5h230zM553 340q-15 0 -61 5v-44q24 3 44 4q18 -69 43 -130q18 -42 44 -84l27 -44q-24 -21 -37 -31q-16 -12 -44 -31q-75 -51 -142 -76q-36 -12 -76 -16q25 -22 50 -49q7 3 43 22q66 36 121 69q52 34 106 76q3 4 7 6q99 -84 242 -156q16 24 42 50
q-66 13 -133 46q-72 39 -124 89q37 49 78 122q18 33 33 71l37 106q-45 -4 -50 -5h-250zM799 305q-28 -84 -58 -136q-34 -58 -62 -94q-27 33 -59 97q-28 60 -46 133h225zM567 737q1 -27 5 -57l-5 -107q-9 -78 -50 -117q-19 -18 -55 -30q3 -1 4 -3q1 0 3 -1q19 -15 41 -30
q67 63 86 129q6 25 10 66q3 43 6 112h150q-4 -111 -5 -183q0 -75 57 -82q18 -3 47 -3l57 -1l6 40q1 9 3 17q-21 -9 -33 -12q-18 -3 -60 -3q-13 3 -23 6q-15 7 -16 37l3 142q0 37 9 80q-43 -4 -68 -5l-143 1q-3 1 -6 1z" />
  </g>

</svg>
