<?xml version="1.0" standalone="no"?>
<!DOCTYPE svg PUBLIC "-//W3C//DTD SVG 1.1//EN" "http://www.w3.org/Graphics/SVG/1.1/DTD/svg11.dtd" >
<svg xmlns="http://www.w3.org/2000/svg" xmlns:xlink="http://www.w3.org/1999/xlink" version="1.1" viewBox="-10 0 1034 1024">
  <g transform="matrix(1 0 0 -1 0 820)">
   <path fill="currentColor"
d="M217 381q-132 0 -152 2q-7 1 -15 4v-47q22 3 47 5h116l-18 -220q-6 -55 -9 -66q30 3 62 5h190q-52 -88 -137 -142q-60 -34 -109 -38q21 -21 41 -44q10 6 23 12q40 21 45 22q54 36 83 62q45 42 100 128h283q0 -46 -2 -86q-3 -39 -18 -50q-24 -21 -90 -21q-15 0 -58 6
q13 -34 20 -53q9 1 29 4q72 9 86 15q33 10 48 25q13 15 18 37q3 18 6 77l1 46h61q42 0 62 -5v46q-3 0 -12 -3l-98 -2h-12l5 245h97q42 0 62 -5v47q-1 0 -3 -1q-3 0 -5 -1q-3 0 -4 -2l-95 -2h-50q6 285 8 300l4 36q-28 -1 -58 -5l-488 1q-15 3 -47 4q3 -36 3 -66zM230 100
l21 245h241q-4 -72 -17 -164q-7 -37 -19 -81h-226zM254 381l24 295h234l-16 -295h-242zM496 100q7 30 13 59l14 106q4 46 6 80h246l-6 -245h-273zM533 381q12 228 19 295h231l-6 -295h-244z" />
  </g>

</svg>
