<?xml version="1.0" standalone="no"?>
<!DOCTYPE svg PUBLIC "-//W3C//DTD SVG 1.1//EN" "http://www.w3.org/Graphics/SVG/1.1/DTD/svg11.dtd" >
<svg xmlns="http://www.w3.org/2000/svg" xmlns:xlink="http://www.w3.org/1999/xlink" version="1.1" viewBox="-10 0 1010 1000">
   <path fill="currentColor"
d="M286 -12q6 1 19 4q92 15 88 28q0 7 -13 15q-30 18 -53 49h403q123 0 165 -8v87q-78 -9 -165 -8h-446q6 -9 -48 66q33 7 97 8h393q48 0 89 -6q-5 29 -5 87l-4 145h29q74 0 107 -8v87q-41 -9 -107 -8h-31l-6 163q54 0 95 -8v87q-37 -8 -99 -8q3 144 -179 147
q-8 -50 -38 -97q129 27 131 -50h-438q-30 0 -68 5q-18 2 -21 1q-2 0 4 -33q7 -39 9 -58l16 -149h-57q-57 -1 -101 8v-87q69 8 101 8h61l10 -129q0 -41 -4 -86q-26 32 -67 79q-15 17 -22 25q-24 -30 -83 -42q146 -104 238 -314zM308 300l-12 155h422l4 -155h-414zM292 526
l-16 163h434l8 -163h-426zM464 546q48 36 101 89l-65 44q-44 -49 -97 -87zM423 358l63 -46q48 34 97 95l-69 40q-32 -46 -91 -89z" />
</svg>
