<?xml version="1.0" standalone="no"?>
<!DOCTYPE svg PUBLIC "-//W3C//DTD SVG 1.1//EN" "http://www.w3.org/Graphics/SVG/1.1/DTD/svg11.dtd" >
<svg xmlns="http://www.w3.org/2000/svg" xmlns:xlink="http://www.w3.org/1999/xlink" version="1.1" viewBox="-10 0 1010 1000">
   <path fill="currentColor"
d="M528 -6q96 0 105 8q1 1 -3 10q-19 35 -19 72v133q125 -58 208 -127q66 70 68 89q-1 2 -11 4q-30 5 -63 20q-65 31 -202 81v89q-5 53 58 48h81q40 1 55 -19q16 -17 26 -80q43 39 92 53q-28 74 -52 95q-25 25 -75 24h-165q-67 1 -82 -14q-18 -13 -17 -71v-323q0 -11 -2 -52
q-1 -25 -2 -40zM155 8q105 3 103 10q1 2 -2 7q-14 25 -14 69v71h131q70 0 111 -8v81q-2 0 -5 -1q-46 -6 -108 -6h-129v180q131 -46 248 -95q0 55 10 95q-184 48 -325 115q-9 -47 -36 -85q24 -27 24 -72v-259q0 -66 -8 -102zM450 485q104 3 106 13q1 3 -3 11q-15 25 -15 69
v37h228q70 0 101 -1q30 -2 58 -6v89q-6 0 -19 -2q-68 -6 -140 -6h-228v117q0 64 8 101h-98q9 -38 8 -101v-117h-266q-85 0 -144 8v-89q62 7 146 7h264v-31q0 -60 -6 -99z" />
</svg>
