<?xml version="1.0" standalone="no"?>
<!DOCTYPE svg PUBLIC "-//W3C//DTD SVG 1.1//EN" "http://www.w3.org/Graphics/SVG/1.1/DTD/svg11.dtd" >
<svg xmlns="http://www.w3.org/2000/svg" xmlns:xlink="http://www.w3.org/1999/xlink" version="1.1" viewBox="-10 0 1010 1000">
   <path fill="currentColor"
d="M518 -10q88 1 101 10q1 2 -3 8q-21 30 -21 88v37q39 -17 65 -28q82 -32 121 -62q11 -7 27 -17q73 77 69 87q-1 1 -13 3q-42 4 -82 17q-15 5 -47 15q-92 31 -138 43v36q-1 30 11 35q9 7 61 6h73q94 4 97 -105q42 49 86 54q-25 71 -55 90q-31 23 -104 23h-111
q-95 1 -111 -13q-22 -11 -20 -75v-146q0 -61 -6 -106zM153 -8q109 9 105 16q1 4 -5 12q-17 23 -17 52v30h137q75 1 109 -6v81q-2 0 -5 -1q-36 -7 -104 -7h-137v109q134 -29 234 -57q-14 37 -12 81q-165 19 -311 67q-3 -29 -26 -75q41 -25 40 -52v-166q1 -36 -8 -84zM58 383
q71 8 166 8h572q87 0 142 -8v82q-27 -8 -142 -8h-171v158q129 -42 226 -99q56 65 56 86q-1 1 -9 1q-35 -2 -75 10q-128 39 -198 62v75q-1 40 10 48q9 11 50 10h87q44 1 59 -21q15 -20 16 -86q31 40 90 59q-18 123 -143 119h-129q-72 1 -95 -19q-25 -19 -24 -76v-327h-195
q-36 51 -63 83h125q67 0 97 -8q-79 284 -383 373q-15 -43 -81 -81q139 -14 234 -68q-54 -53 -84 -71l68 -44q11 14 31 39q22 26 32 39q54 -59 80 -113h-171q-60 58 -121 101q-24 -32 -71 -56q153 -88 220 -194h-50q-105 0 -156 8v-82z" />
</svg>
