<?xml version="1.0" standalone="no"?>
<!DOCTYPE svg PUBLIC "-//W3C//DTD SVG 1.1//EN" "http://www.w3.org/Graphics/SVG/1.1/DTD/svg11.dtd" >
<svg xmlns="http://www.w3.org/2000/svg" xmlns:xlink="http://www.w3.org/1999/xlink" version="1.1" viewBox="-10 0 1034 1024">
  <g transform="matrix(1 0 0 -1 0 820)">
   <path fill="currentColor"
d="M388 567q33 0 57 -4q1 0 6 -1v46q-10 0 -13 -3q-27 0 -50 -2h-191q15 24 27 48q24 45 30 51q7 10 30 26q-28 12 -60 28q-12 -37 -27 -69q-16 -36 -30 -60q-12 -21 -34 -52q-30 -43 -55 -71q-21 -21 -48 -34q28 -9 52 -26q48 60 93 123h213zM317 99q-36 39 -66 75
q-15 -15 -32 -26q12 -12 40 -44q22 -27 39 -49q13 16 32 30q-7 7 -13 14zM253 395q-13 -15 -29 -28q42 -34 84 -94q12 18 30 29q-42 48 -85 93zM145 240q-75 0 -93 3q-3 1 -9 2v-46q15 4 65 5h33q-12 -198 -14 -212q-1 -1 -1 -4q30 3 60 5h189l-1 -31q-1 -42 -23 -54
q-24 -9 -58 -10q-15 0 -37 2q10 -18 18 -47q69 9 92 20q27 13 38 36q9 25 10 84h19q40 0 63 -5v46q-3 0 -6 -1q-6 0 -7 -2l-67 -2l5 175q66 0 75 -3q3 0 8 -2v46q-4 0 -8 -1q-6 0 -10 -2q-15 0 -45 -2h-19l6 158q1 33 5 66q-16 -1 -31 -4q-24 -1 -161 -2l-74 4q-9 0 -19 2
l4 -64v-6zM376 29h-209l11 175h205zM181 240l9 182h201l-7 -182h-203zM423 -133q10 -4 20 -9q15 -6 32 -18q58 63 91 142q13 39 20 78q6 46 11 118q3 49 16 77q-19 0 -59 5q4 -52 5 -86q0 -159 -65 -248q-22 -30 -71 -59zM499 294q33 12 89 18l148 15l127 15q16 -19 33 -44
q16 21 34 36l-80 82l-75 72l-30 -30q18 -15 33 -30l56 -54q-30 -4 -51 -7l-66 -5l-75 -7q-33 -3 -52 -5l-36 -1q54 72 67 84q0 3 43 53q27 36 63 57q-33 13 -58 29q-24 -40 -41 -67q-16 -24 -42 -57q-40 -52 -67 -80q-21 -21 -41 -27zM483 572q12 3 25 5l374 1q45 0 54 -3
q3 0 9 -3v47l-63 -6l-366 1q-18 3 -33 5v-47zM625 764q-13 -15 -29 -32q43 -33 69 -55l57 -55q3 6 31 33q-33 30 -60 53zM658 248q0 -13 5 -65l-1 -266q-1 -1 -2 -24q0 -6 -2 -11h48q-4 19 -5 60v241q0 16 13 65h-56zM831 204q0 16 13 65h-57l6 -84l1 -276q4 -18 20 -31
q22 -15 59 -16q51 0 77 33q13 18 32 68q-15 7 -25 14q-6 3 -24 14q0 -15 1 -24q0 -28 -13 -47q-13 -18 -43 -18q-28 0 -38 9q-9 7 -9 33v260z" />
  </g>

</svg>
