<?xml version="1.0" standalone="no"?>
<!DOCTYPE svg PUBLIC "-//W3C//DTD SVG 1.1//EN" "http://www.w3.org/Graphics/SVG/1.1/DTD/svg11.dtd" >
<svg xmlns="http://www.w3.org/2000/svg" xmlns:xlink="http://www.w3.org/1999/xlink" version="1.1" viewBox="-10 0 1010 1000">
   <path fill="currentColor"
d="M466 -19q80 1 97 7q0 2 -3 9q-12 26 -12 63h182q131 0 159 -8v77q-39 -8 -157 -8h-186v56h131q139 0 168 -8v73q-14 -3 -46 -4q-15 -1 -41 -1h-81h-131v55h192q168 1 187 -8v79q-26 -9 -183 -9h-460q-174 0 -197 8v-78q29 8 195 8h190v-55h-125q-86 0 -121 1q-39 2 -61 6
v-73q22 4 62 5q19 1 46 1h70h129v-56h-160q-86 0 -126 1q-44 2 -57 5v-75q39 8 183 8h160q0 -42 -3 -72q-1 -6 -1 -7zM210 389q34 6 84 8q24 1 57 2h93h119h48q172 1 201 -6q-10 39 -13 138q-1 17 -1 25q109 0 150 -10v79q-19 -8 -154 -8l-4 108q64 0 89 -6v77
q-39 -7 -93 -8q-3 65 -22 87q-29 29 -139 34q6 -42 -30 -93q65 18 93 10q19 -4 18 -36h-327q-151 0 -194 8q15 -53 23 -181q-77 0 -105 1q-34 1 -53 5v-73q25 8 162 8l4 -73q3 -69 -6 -96zM480 465q59 22 91 45l-45 42q-50 -32 -97 -46zM286 615l-10 112h434q0 -13 6 -112
h-430zM718 558l4 -99h-426l-6 99h428zM407 669l45 -44q52 17 110 48l-42 50q-42 -27 -113 -54z" />
</svg>
