<?xml version="1.0" standalone="no"?>
<!DOCTYPE svg PUBLIC "-//W3C//DTD SVG 1.1//EN" "http://www.w3.org/Graphics/SVG/1.1/DTD/svg11.dtd" >
<svg xmlns="http://www.w3.org/2000/svg" xmlns:xlink="http://www.w3.org/1999/xlink" version="1.1" viewBox="-10 0 1034 1024">
  <g transform="matrix(1 0 0 -1 0 820)">
   <path fill="currentColor"
d="M495 444l-389 1q-15 1 -28 2q-4 0 -9 2v-46q10 4 66 5h751q39 0 63 -5v46q-9 0 -13 -3q-27 0 -50 -2h-353v82h232q24 0 48 -2q3 0 15 -3v46q-4 0 -8 -1q-6 0 -10 -2q-15 0 -45 -2h-232v76h298q42 0 62 -5v46q-4 0 -8 -1q-3 0 -4 -2l-90 -2h-258q0 75 3 85q1 15 10 27h-57
q1 -13 6 -49q-1 -7 0 -18v-45h-299q-43 0 -65 5v-46q10 4 65 5h299v-76h-226q-45 0 -66 5v-46q15 4 66 5h226v-82zM437 101q-6 -15 -22 -35q81 -31 155 -88l24 36q-144 81 -157 87zM429 252q54 -27 152 -90q7 15 22 39q-3 1 -7 5q-1 0 -58 33l-89 50q-6 -13 -20 -37z
M231 152l-146 3q-6 0 -13 2v-46q12 4 66 5h89q-18 -148 -20 -160q-3 -13 -5 -21q31 3 64 5h484q0 -12 -3 -25q-3 -22 -15 -30q-27 -18 -87 -18q-19 0 -51 3q15 -33 24 -52q10 3 22 5q36 4 59 11q24 4 32 8q57 19 58 98h44q45 0 62 -5v46q-4 0 -8 -1q-3 0 -4 -2l-92 -2l9 140
q126 0 137 -3q3 0 8 -2v46q-10 0 -13 -3l-99 -2h-32l8 121l8 66q-60 -4 -87 -5l-439 1q-19 3 -48 4q1 -24 2 -44q-1 -6 -2 -25zM249 -24l15 140h498l-10 -140h-503zM268 152l14 146h492l-11 -146h-495z" />
  </g>

</svg>
