<?xml version="1.0" standalone="no"?>
<!DOCTYPE svg PUBLIC "-//W3C//DTD SVG 1.1//EN" "http://www.w3.org/Graphics/SVG/1.1/DTD/svg11.dtd" >
<svg xmlns="http://www.w3.org/2000/svg" xmlns:xlink="http://www.w3.org/1999/xlink" version="1.1" viewBox="-10 0 1034 1024">
  <g transform="matrix(1 0 0 -1 0 820)">
   <path fill="currentColor"
d="M76 22q21 -9 40 -27q15 18 31 41q9 15 20 30q3 3 7 10q28 42 44 59q12 15 35 26q-30 15 -53 37q-18 -37 -50 -87q-21 -30 -38 -52q-16 -18 -36 -37zM442 3q22 12 42 25q79 51 141 102q81 66 100 86q34 31 66 35q-19 15 -36 34l-10 13q-28 -36 -56 -62q-75 -70 -114 -98
q-66 -48 -107 -75q-36 -24 -87 -51v151q0 18 3 35q1 18 11 31h-57q4 -45 5 -77v-160q-27 -12 -57 -22l-75 -26q-48 -13 -77 -21q-25 -4 -52 -7q18 -15 36 -44q139 45 155 53l73 26q6 -36 32 -55q15 -12 45 -16q27 -3 99 -4q157 0 196 20q36 18 64 116q-36 15 -50 28
q0 -25 -3 -42q-4 -36 -16 -52q-18 -21 -86 -27q-6 0 -54 -3l-56 -1q-63 0 -89 7q-24 4 -36 20q-6 7 -7 28q6 3 13 8q21 13 44 25zM248 354l-36 -13v218l249 -1q6 0 39 -4v46q-39 -4 -65 -5h-223v66q0 18 3 34q1 18 11 31h-57q4 -45 5 -85l-1 -294q-3 -12 -12 -27
q18 -21 28 -41l26 14q6 4 35 17l246 102l4 52q-42 -27 -169 -78q-42 -15 -83 -32zM500 294l-44 31q-3 -4 -8 -11l-8 -12q-4 -3 -7 -8q0 -3 -4 -4q30 -15 50 -30q28 -21 44 -34q9 -6 24 -24q9 15 19 30l5 7q-1 1 -71 55zM600 679q0 21 3 35q1 16 12 31h-58q4 -42 5 -66
l1 -284q3 -25 18 -39q18 -18 70 -23q42 0 84 -2q72 0 108 7q39 6 61 42q12 21 25 74q-30 12 -47 25q0 -15 -2 -29q-1 -30 -13 -51q-21 -33 -118 -33q-42 0 -90 4q-36 3 -47 13q-12 12 -12 50v103q13 3 26 9q21 9 42 17l48 21q90 34 124 51q21 3 42 5q-12 7 -24 19
q-10 9 -28 28q-27 -19 -76 -46l-63 -28q-36 -15 -91 -36v103zM785 137q25 -18 63 -54q15 -16 28 -32q15 -19 40 -56q9 18 32 38q-75 90 -134 138q-12 -15 -29 -34v0z" />
  </g>

</svg>
