<?xml version="1.0" standalone="no"?>
<!DOCTYPE svg PUBLIC "-//W3C//DTD SVG 1.1//EN" "http://www.w3.org/Graphics/SVG/1.1/DTD/svg11.dtd" >
<svg xmlns="http://www.w3.org/2000/svg" xmlns:xlink="http://www.w3.org/1999/xlink" version="1.1" viewBox="-10 0 1010 1000">
   <path fill="currentColor"
d="M768 20q33 28 67 72q13 17 -32 17q-31 0 -45 3q-12 2 -48 9q-183 35 -212 36v139q306 -37 314 -48l5 90q-6 -9 -232 17q-56 6 -89 10v135q289 -33 437 -63l7 87q-14 -10 -444 42v172q-1 38 13 47q9 10 58 9h131q74 3 99 -28q29 -31 38 -125q40 39 102 54q-24 105 -56 140
q-33 39 -101 38h-266q-62 3 -80 -25q-20 -25 -19 -113v-157q-263 41 -350 61l-7 -89q173 -15 357 -44v-129q-218 25 -280 42l-8 -83q85 1 290 -30v-139q-196 27 -278 46q-16 -21 -43 -54q-25 -30 -23 -32q375 -16 695 -107z" />
</svg>
