<?xml version="1.0" standalone="no"?>
<!DOCTYPE svg PUBLIC "-//W3C//DTD SVG 1.1//EN" "http://www.w3.org/Graphics/SVG/1.1/DTD/svg11.dtd" >
<svg xmlns="http://www.w3.org/2000/svg" xmlns:xlink="http://www.w3.org/1999/xlink" version="1.1" viewBox="-10 0 1010 1000">
   <path fill="currentColor"
d="M530 0q7 27 19 66q5 20 7 26h206q69 0 135 -12v79q-87 -9 -135 -8h-548q-64 0 -117 8v-75q78 8 117 8h260q-6 -19 -36 -80zM752 195q-4 20 -4 57v42q0 18 3 45q1 10 1 13q-20 -5 -71 -4h-375q-34 0 -62 3q-6 1 -8 1q4 -27 4 -54v-44q0 -35 -4 -59q2 0 11 1q29 3 57 3h375
q46 -1 73 -4zM308 246v54h373v-54h-373zM192 395h612q58 0 103 -6q0 3 -2 13q-4 30 -4 51v32q0 27 2 48q1 9 2 15h-84q4 -44 4 -63v-34h-658v32q0 48 4 71h-86q6 -36 6 -67v-38q0 -18 -4 -46q-2 -11 -2 -14q36 6 107 6zM690 465q44 51 50 71q-2 4 -25 4q-88 -1 -223 14v48
l175 -12q30 -6 75 -12l4 63q-33 -6 -73 0l-181 10v50l216 -12q4 -1 12 -2q30 -4 78 -12l4 73q-48 -7 -88 -4l-220 10v34q-1 25 17 31q15 7 80 7h103q91 0 116 -28q20 -24 29 -89q33 30 82 53q-24 77 -70 105q-32 17 -105 18h-181q-98 1 -114 -11q-24 -10 -22 -62v-52
l-203 12q-30 2 -73 7q-13 2 -20 3l-6 -73q54 4 95 4l207 -6v-54l-173 12q-27 0 -73 12l-6 -67q53 3 75 3l177 -7v-50q-29 2 -87 7t-100 9q-5 -35 -26 -66q346 9 474 -41z" />
</svg>
