<?xml version="1.0" standalone="no"?>
<!DOCTYPE svg PUBLIC "-//W3C//DTD SVG 1.1//EN" "http://www.w3.org/Graphics/SVG/1.1/DTD/svg11.dtd" >
<svg xmlns="http://www.w3.org/2000/svg" xmlns:xlink="http://www.w3.org/1999/xlink" version="1.1" viewBox="-10 0 1010 1000">
   <path fill="currentColor"
d="M786 8q27 35 39 58q24 34 -14 26q-26 -1 -45 0q-41 2 -129 10q-84 7 -129 10v45l238 -16q58 -4 93 -12l4 72q-41 -5 -95 -2l-240 14v41l311 -17q5 0 17 -1q62 -4 85 -9l4 73q-37 -2 -102 -4l-315 18v22q-7 31 44 26h174q109 -2 115 -54q28 28 52 40q-15 67 -109 65h-278
q-74 4 -64 -40v-55l-244 14q-56 5 -115 14l-4 -74q72 3 115 0l248 -14v-41l-204 12q-20 1 -59 6q-30 4 -44 5l-4 -69q33 4 105 2h2l204 -12v-44q-41 2 -97 2q-46 0 -208 4q-4 -27 -32 -73q92 8 185 10q93 1 183 -4q193 -13 313 -48zM399 405q22 30 38 58q9 15 -15 12
q-21 -2 -31 0q-57 9 -109 13v62q66 -8 139 -22l6 72q-69 3 -145 12v47l45 -6q76 -10 102 -16l8 72q-78 4 -155 12v71q83 -27 133 -52q-8 39 0 70q-81 19 -213 85q-4 -37 -29 -71q49 -12 45 -44v-53q-104 11 -155 19l-5 -73q78 0 160 -8v-48q-93 11 -133 18l-8 -71
q35 0 141 -8v-64l-129 12q-8 -36 -33 -65q211 11 343 -34zM849 427q25 39 34 60q8 21 -13 17q-24 -4 -41 -2q-19 3 -73 8q-46 3 -68 6v54q87 -9 185 -28l4 68q-36 -2 -189 15v48q216 -23 245 -32l7 64q-24 0 -163 13q-59 6 -89 9v33q-7 46 54 40h40q64 0 73 -69q42 29 80 47
q-23 53 -47 69q-21 17 -71 16h-125q-73 7 -67 -71v-57q-118 12 -157 21l-6 -65q66 -1 163 -12v-48q-15 2 -43 5q-82 10 -100 15l-8 -67q74 -1 151 -8v-58q-1 0 -12 1q-61 5 -125 9q-1 -34 -22 -71q100 10 211 1q113 -9 172 -31z" />
</svg>
