<?xml version="1.0" standalone="no"?>
<!DOCTYPE svg PUBLIC "-//W3C//DTD SVG 1.1//EN" "http://www.w3.org/Graphics/SVG/1.1/DTD/svg11.dtd" >
<svg xmlns="http://www.w3.org/2000/svg" xmlns:xlink="http://www.w3.org/1999/xlink" version="1.1" viewBox="-10 0 1034 1024">
  <g transform="matrix(1 0 0 -1 0 820)">
   <path fill="currentColor"
d="M86 436q49 39 104 94q30 30 53 60q43 55 70 93l58 -40q78 -58 126 -100q30 -25 51 -49l1 -1l2 3q21 27 24 29q1 1 4 2q-21 18 -60 48l-116 89q-54 39 -70 50q6 13 27 23q-3 3 -6 4q-6 1 -11 5q-9 6 -17 11q-1 0 -6 4l-13 7q-13 -36 -57 -105q-51 -72 -107 -125
q-57 -51 -104 -72q9 -4 34 -21q6 -4 13 -9zM129 -95q0 -39 -5 -59h47q-4 30 -5 59v169h112v-149q0 -24 -7 -29q-9 -4 -21 -5q-19 0 -48 4q6 -15 11 -27q3 -9 6 -20q39 3 67 9l9 3q22 12 23 65l1 440l4 42q-15 -1 -28 -3q-22 -3 -75 -3q-64 3 -96 6q1 -28 5 -58v-444z
M166 109v116h112v-116h-112zM166 261v104h112v-104h-112zM191 474q39 4 61 5l179 -1q7 0 20 -2q1 0 16 -2v47q-22 -1 -45 -5q-207 0 -226 3q-1 0 -5 2v-47zM424 10q0 6 -2 12q-1 24 -3 47l1 248q0 21 7 34q1 6 6 12h-57q4 -54 5 -60l-1 -268q-1 -15 -4 -25h48zM398 -109
q12 -25 17 -39q0 -4 2 -8q37 3 57 8q13 3 23 8q19 13 20 65v422q0 9 2 25q1 15 12 35h-57q0 -7 3 -13q0 -22 2 -47l-1 -444q-3 -10 -16 -13q-15 -3 -28 -4q-6 0 -17 2zM534 665q12 -24 20 -43q30 4 56 11q30 6 89 21v-209q-37 -1 -76 -2q-28 0 -54 5v-50q37 6 56 8
q36 1 74 3v-192l-78 -3q-30 0 -47 3q-10 0 -24 3v-52q21 6 73 8q37 3 76 4v-240q0 -42 14 -61q12 -15 44 -23q27 -4 65 -5q19 0 50 4q36 4 53 25q24 28 47 102l-15 6q-12 6 -17 7l-18 12q-1 -42 -6 -61q-9 -39 -35 -49q-21 -7 -59 -8q-18 0 -38 2q-28 4 -38 15q-9 9 -10 55
v221l103 1q36 -1 52 -2q12 -1 24 -3v55q-18 -4 -25 -6q-12 -1 -49 -4l-105 -4v192l116 2q18 0 34 -4v49q-10 -3 -25 -4l-51 -5l-74 -3v221q123 37 137 40q22 4 43 5q-12 10 -23 21q-13 15 -21 25q-28 -15 -60 -29l-98 -31q-111 -33 -155 -34q-13 1 -25 1v0z" />
  </g>

</svg>
