<?xml version="1.0" standalone="no"?>
<!DOCTYPE svg PUBLIC "-//W3C//DTD SVG 1.1//EN" "http://www.w3.org/Graphics/SVG/1.1/DTD/svg11.dtd" >
<svg xmlns="http://www.w3.org/2000/svg" xmlns:xlink="http://www.w3.org/1999/xlink" version="1.1" viewBox="-10 0 1010 1000">
   <path fill="currentColor"
d="M302 -2q83 27 83 34q-2 4 -10 9q-16 8 -22 21q9 5 30 17q163 92 196 120q-5 -22 -37 -62q173 -6 327 -79q30 39 44 67q13 25 -22 19q-11 -2 -14 -1q-38 7 -131 30v173q99 -9 143 -22l2 75q-36 -3 -119 5q-17 2 -26 3v139q133 -15 171 -28l8 78q-33 -2 -152 11l-27 3v150
q-9 65 50 58q72 -1 77 -107q31 40 83 57q-25 74 -52 97q-26 25 -81 24h-63q-86 2 -83 -59v-213q-5 1 -17 3q-62 8 -85 15l-6 -73q21 2 89 -4q14 -2 19 -2v-141q-5 1 -16 2q-55 8 -86 18l-4 -75q29 2 96 -7q7 -1 10 -1v-167q-26 4 -94 28l-53 49q-84 -92 -217 -154
q-64 80 -226 214q-25 -28 -67 -52q189 -100 282 -272zM472 215v77q-30 -8 -135 -8q-44 0 -68 2q-27 1 -53 6v-75q35 7 121 6q58 0 84 -2q31 -1 51 -6zM476 322q44 5 72 12q10 2 2 20q-3 6 -4 9q-4 10 -4 38v419q3 29 -19 40q-16 11 -98 27q-8 -52 -32 -89q57 9 70 4
q18 -5 17 -30v-359q0 -69 -4 -91zM109 336q46 9 115 8q51 0 74 -2q27 -2 49 -8q-10 32 -10 95v385q6 51 -107 69q-2 -48 -28 -85q76 13 74 -28v-95h-97v101q-1 75 8 103h-78q7 -29 6 -90v-17v-327v-12q1 -66 -6 -97zM383 365q29 0 57 6q13 2 6 13q-9 14 -9 25v230q0 36 1 49
q2 17 6 31h-67q9 -27 8 -76v-204q0 -47 -2 -74zM274 391h-95v97h95v-97zM179 536v91h97v-91h-97z" />
</svg>
