<?xml version="1.0" standalone="no"?>
<!DOCTYPE svg PUBLIC "-//W3C//DTD SVG 1.1//EN" "http://www.w3.org/Graphics/SVG/1.1/DTD/svg11.dtd" >
<svg xmlns="http://www.w3.org/2000/svg" xmlns:xlink="http://www.w3.org/1999/xlink" version="1.1" viewBox="-10 0 1034 1024">
  <g transform="matrix(1 0 0 -1 0 820)">
   <path fill="currentColor"
d="M165 499l199 -1q18 -1 16 -2q7 0 14 -2v47q-4 0 -7 -2l-50 -4l-273 1l-14 2t-13 3v-47q22 3 46 5h44l-1 -422q-3 -9 -3 -29q0 -6 -2 -14q19 4 51 5l171 -1l30 -4v47q-4 0 -8 -2l-60 -4h-140v424zM267 600q6 7 13 13q1 0 9 7l-82 91q-13 15 -39 41q-15 -16 -31 -31
q24 -16 62 -60l32 -39q12 -15 24 -34zM438 -48q0 -45 -23 -62q34 -34 41 -46l93 84q45 33 71 55q30 21 45 28l-8 56q-36 -33 -74 -64q-42 -33 -107 -81v340h216l20 -83q9 -37 20 -67q33 -96 97 -171q49 -58 91 -59q37 0 50 49q18 72 18 78q-24 6 -55 23q3 -27 3 -42
q0 -27 -4 -43q-6 -18 -18 -19q-34 0 -87 82q-40 63 -62 129q-18 57 -31 123q204 0 211 -2q6 0 16 -3v47q-1 0 -2 -1q-3 0 -5 -1q-3 0 -4 -1q-40 0 -82 -3h-142q-12 87 -20 175h114q7 0 28 -3q7 0 26 -2q-4 48 -5 89q0 142 2 154q0 18 3 35q-48 -6 -54 -6l-349 1q-4 1 -11 2
q-10 0 -27 3q1 -18 2 -30q3 -21 3 -30v-734zM476 509v195h355v-195h-355zM476 298v175h189q6 -73 14 -118l6 -57h-209z" />
  </g>

</svg>
