<?xml version="1.0" standalone="no"?>
<!DOCTYPE svg PUBLIC "-//W3C//DTD SVG 1.1//EN" "http://www.w3.org/Graphics/SVG/1.1/DTD/svg11.dtd" >
<svg xmlns="http://www.w3.org/2000/svg" xmlns:xlink="http://www.w3.org/1999/xlink" version="1.1" viewBox="-10 0 1010 1000">
   <path fill="currentColor"
d="M748 16q74 84 73 101q-1 1 -16 -2q-36 -6 -51 -5q-20 1 -81 7q-93 10 -135 12q0 108 10 213h214q62 -1 127 -12v95q-54 -9 -123 -10h-212q54 286 238 353q11 -8 19 -46q7 -39 4 -79q48 53 98 68q-44 166 -96 168q-141 -11 -259 -204q-64 -126 -88 -260h-256v304
q51 -38 125 -121l6 -6q23 55 42 79q-171 136 -236 210l-52 -81q33 -16 32 -103v-623q350 14 617 -58zM454 137q-13 1 -50 3q-122 7 -190 7v195h248q-11 -133 -8 -205zM448 679q7 10 20 31q31 47 84 126l-92 33q-23 -85 -87 -158z" />
</svg>
