<?xml version="1.0" standalone="no"?>
<!DOCTYPE svg PUBLIC "-//W3C//DTD SVG 1.1//EN" "http://www.w3.org/Graphics/SVG/1.1/DTD/svg11.dtd" >
<svg xmlns="http://www.w3.org/2000/svg" xmlns:xlink="http://www.w3.org/1999/xlink" version="1.1" viewBox="-10 0 1034 1024">
  <g transform="matrix(1 0 0 -1 0 820)">
   <path fill="currentColor"
d="M197 359h324q16 -75 32 -118q27 -84 71 -161q42 -76 116 -147q66 -61 107 -62q28 0 48 33q12 21 23 58q3 16 8 31q3 15 7 25q-30 9 -58 27q1 -25 2 -43q0 -76 -37 -77q-21 0 -51 22q-30 24 -59 55q-69 75 -118 196q-33 81 -46 161l290 -1q18 0 30 -4v47q-4 0 -7 -2
q-63 -3 -68 -4h-252q-12 120 -13 138q-3 55 -3 134q49 6 99 16q135 24 152 24q16 0 43 -3q-39 33 -56 57q-33 -13 -60 -20q-82 -18 -154 -30q-148 -21 -320 -22q-51 0 -95 5q1 -30 5 -63l-1 -694q-3 -10 -5 -18q-6 -12 -24 -24q27 -30 40 -51q72 67 82 75q1 1 4 3
q67 51 131 105q18 18 56 43q-4 25 -5 60q-28 -30 -51 -49q-48 -40 -127 -102q-24 -18 -60 -44v424zM197 395v254q96 0 162 3l142 10l5 -128l11 -139h-320z" />
  </g>

</svg>
