<?xml version="1.0" standalone="no"?>
<!DOCTYPE svg PUBLIC "-//W3C//DTD SVG 1.1//EN" "http://www.w3.org/Graphics/SVG/1.1/DTD/svg11.dtd" >
<svg xmlns="http://www.w3.org/2000/svg" xmlns:xlink="http://www.w3.org/1999/xlink" version="1.1" viewBox="-10 0 1010 1000">
   <path fill="currentColor"
d="M776 -4q14 17 39 46q58 68 52 68q0 1 -10 0q-94 -12 -299 9q-2 37 -3 62q-1 27 0 52q1 50 7 107h228q64 0 121 -6v87q-63 -6 -121 -6h-215q55 234 179 335q32 29 52 25q20 -5 29 -44q3 -17 8 -46q3 -23 6 -38q53 47 95 64q-26 85 -47 127q-30 79 -113 29
q-212 -116 -290 -452h-272v335q122 -70 209 -135q3 56 27 92q-224 115 -295 178q-5 -8 -14 -23q-27 -42 -42 -68q36 -26 36 -101v-532q1 -50 -6 -99q134 15 364 -7q208 -22 275 -59zM472 127q-5 0 -15 1q-144 11 -235 17v195h258q-11 -93 -8 -213z" />
</svg>
