<?xml version="1.0" standalone="no"?>
<!DOCTYPE svg PUBLIC "-//W3C//DTD SVG 1.1//EN" "http://www.w3.org/Graphics/SVG/1.1/DTD/svg11.dtd" >
<svg xmlns="http://www.w3.org/2000/svg" xmlns:xlink="http://www.w3.org/1999/xlink" version="1.1" viewBox="-10 0 1010 1000">
   <path fill="currentColor"
d="M845 12q35 35 54 60q11 16 -6 17q-12 1 -20 3q-67 17 -107 25v145q10 -2 30 -5q68 -9 99 -20l8 73q-19 -3 -86 7q-32 4 -51 7v153q122 -15 151 -32l8 79q-35 -6 -146 10q-9 1 -13 2v214q-8 33 47 30q62 6 70 -101q36 28 75 46q-16 71 -40 96q-24 27 -71 27h-73
q-85 4 -80 -60v-242q-74 9 -107 26l-14 -80q25 3 93 -3q19 -1 28 -2v-155q-8 2 -21 4q-47 9 -70 18l-8 -76q27 2 85 -6q9 -1 14 -2v-135q-33 7 -77 21q-3 1 -4 1q-11 -40 -38 -57v194q0 61 8 93q-36 -8 -111 -8h-57q10 33 20 60l-36 14q122 1 159 -12v67q-35 -9 -133 -8h-16
v56q72 0 95 -1q30 -2 46 -7v65q-14 0 -41 -3q-52 -4 -98 -4v57q98 1 145 -8v64q-24 -6 -145 -6v57q81 0 109 -1q35 -2 59 -7v60q-22 -5 -86 -4h-23h-252q1 47 8 81h-75q7 -31 6 -101v-248l-6 9q-49 78 -86 120q-17 -47 -39 -66q132 -143 164 -236q-51 1 -87 8q7 -38 8 -109
v-149q0 -54 -8 -93q38 6 111 6q42 0 63 -2q25 -1 48 -6q-9 36 -10 103v131q1 17 3 46q2 53 7 73q-39 -9 -111 -8q12 4 38 16q13 7 20 10q16 8 -6 20q-24 15 -32 28h125q-7 -31 -20 -54l64 -18q-26 0 -38 4q10 -42 10 -81v-167q0 -53 -10 -103q46 9 109 8q62 1 107 -8
q-7 21 -6 54q153 -16 270 -74zM520 92h-93v51h93v-51zM167 92v53h93v-53h-93zM167 181v54h93v-54h-93zM427 179v54h93v-54h-93zM427 268v60h93v-60h-93zM167 270v56h93v-56h-93zM216 498v58h125v-58h-125zM216 604v59h127v-59h-127zM216 711v59h127v-59h-127z" />
</svg>
