<?xml version="1.0" standalone="no"?>
<!DOCTYPE svg PUBLIC "-//W3C//DTD SVG 1.1//EN" "http://www.w3.org/Graphics/SVG/1.1/DTD/svg11.dtd" >
<svg xmlns="http://www.w3.org/2000/svg" xmlns:xlink="http://www.w3.org/1999/xlink" version="1.1" viewBox="-10 0 1034 1024">
  <g transform="matrix(1 0 0 -1 0 820)">
   <path fill="currentColor"
d="M835 603q16 0 62 -5v47q-21 -1 -44 -5l-599 -1q30 54 38 65q9 12 30 22l-40 19q-10 4 -23 10q-24 -66 -71 -142q-66 -102 -139 -146q21 -6 49 -26q66 61 134 162h603zM293 240q-4 -54 -11 -89q-3 -24 -12 -52q-27 -84 -90 -141q-55 -43 -110 -57q10 -7 21 -17
q12 -10 21 -21q138 90 185 203q12 30 18 60q7 39 18 114h179q-25 -67 -52 -128q49 4 81 5h85q-4 -64 -12 -108q-6 -34 -19 -53q-16 -22 -53 -31q-25 -3 -50 -4q-22 0 -45 5q12 -30 15 -51q37 1 80 10q39 9 53 18q30 22 43 53q9 27 20 111q3 37 12 91q-25 -1 -51 -5h-99
q10 27 18 49q15 43 32 80q-15 -1 -28 -3q-22 -3 -29 -3l-380 1q-9 3 -19 5v-48q15 4 39 5zM199 405l-53 4l-6 2v-47q48 6 59 6h542l-2 -98q0 -96 11 -173q13 -105 61 -180q48 -69 97 -69q13 0 25 9q10 12 19 31q9 33 18 76q-31 10 -51 24q1 -22 2 -37q0 -55 -22 -56
q-10 0 -29 14q-25 22 -45 64q-37 76 -44 175q-6 123 -6 140q1 30 5 62q0 30 8 59q-13 -3 -27 -3q-19 -3 -29 -3h-533zM834 529q-21 -1 -44 -5q-522 0 -530 3l-6 2v-47q15 4 34 5l483 1q36 0 56 -4q1 0 7 -2v47z" />
  </g>

</svg>
