<?xml version="1.0" standalone="no"?>
<!DOCTYPE svg PUBLIC "-//W3C//DTD SVG 1.1//EN" "http://www.w3.org/Graphics/SVG/1.1/DTD/svg11.dtd" >
<svg xmlns="http://www.w3.org/2000/svg" xmlns:xlink="http://www.w3.org/1999/xlink" version="1.1" viewBox="-10 0 1010 1000">
   <path fill="currentColor"
d="M290 0q111 20 105 28q0 7 -20 20q-30 19 -48 38h435q114 0 137 -8v79q-9 -9 -139 -8h-488q-3 3 -10 11q-89 89 -141 134q-26 -33 -73 -50q140 -65 242 -244zM111 314q24 8 141 8h452q20 0 78 -5q19 -2 30 -3q-6 39 -12 97q-21 201 23 331q14 41 25 46q11 3 15 -32
q1 -6 2 -22q5 -36 6 -53q33 50 75 63q-15 63 -37 116q-21 39 -66 29q-40 -12 -75 -69q-27 -52 -41 -182q-6 -59 -7 -123t4 -130h-472q-139 0 -141 8v-79zM228 203h13q53 2 116 2h302q122 0 145 -8v75q-7 -8 -141 -8h-304q-59 0 -83 1q-29 1 -48 3v-65zM121 645
q-28 -40 -71 -53q127 -51 236 -187q7 3 27 11q62 25 62 31q1 6 -32 24q-24 12 -33 19q-127 99 -189 155zM679 647q-83 -56 -76 -45q-2 20 -4 54q-5 68 -10 100q-6 117 -160 129q-14 -62 -44 -93q36 9 77 5q36 -4 44 -19q15 -28 19 -127q1 -15 1 -20h-145q-35 133 -67 163
q-31 41 -159 101q-21 -52 -80 -71q218 -21 229 -193q-56 0 -92 6v-61q21 0 58 1q25 1 36 1h154q52 0 111 -6q-43 -35 -88 -89l-35 -40l64 -38q71 126 202 163q-26 44 -35 79z" />
</svg>
