<?xml version="1.0" standalone="no"?>
<!DOCTYPE svg PUBLIC "-//W3C//DTD SVG 1.1//EN" "http://www.w3.org/Graphics/SVG/1.1/DTD/svg11.dtd" >
<svg xmlns="http://www.w3.org/2000/svg" xmlns:xlink="http://www.w3.org/1999/xlink" version="1.1" viewBox="-10 0 1034 1024">
  <g transform="matrix(1 0 0 -1 0 820)">
   <path fill="currentColor"
d="M57 -108q24 -15 45 -37q87 72 115 125q34 64 44 190l5 103q3 30 16 46l-44 7q-9 1 -15 5q3 -43 5 -74l-1 -45q-3 -66 -11 -109q-21 -111 -77 -162q-36 -30 -82 -49zM103 454l13 -7q42 42 70 73q27 31 69 87h603q24 0 47 -3q1 0 16 -2v47q-21 -1 -44 -5l-597 -1
q31 57 44 70q7 12 28 23q-13 6 -26 10l-36 15q-18 -51 -47 -99q-43 -72 -99 -127q-48 -43 -85 -62q13 -1 44 -19zM209 411q-25 1 -51 3q-4 0 -9 2v-46q39 4 60 5h549q-3 -55 -4 -101l3 -96q6 -111 29 -182q42 -139 114 -140q31 0 53 41q4 9 8 19l14 50q-27 12 -51 28
q0 -15 1 -27q0 -19 -4 -38q-6 -27 -22 -27q-30 0 -64 78q-27 60 -36 156l-5 132q0 49 4 88q1 30 8 60q-28 -1 -58 -5h-539zM263 488q48 6 59 6q486 0 507 -3q9 0 22 -3v48q-15 -3 -42 -6q-532 0 -538 3q-3 1 -8 3v-48zM402 300q4 -15 5 -60v-283q0 -42 -5 -59h51q0 1 -1 5
q-3 7 -4 30l-1 307q0 21 4 34q3 15 10 26h-59zM598 326q1 -30 5 -60l-1 -392q-1 -15 -4 -25h49q-4 30 -5 59l1 373q0 19 7 32q1 7 7 13h-59z" />
  </g>

</svg>
