<?xml version="1.0" standalone="no"?>
<!DOCTYPE svg PUBLIC "-//W3C//DTD SVG 1.1//EN" "http://www.w3.org/Graphics/SVG/1.1/DTD/svg11.dtd" >
<svg xmlns="http://www.w3.org/2000/svg" xmlns:xlink="http://www.w3.org/1999/xlink" version="1.1" viewBox="-10 0 1010 1000">
   <path fill="currentColor"
d="M310 -6q69 21 103 38q0 1 -6 4q-28 15 -56 46h351q86 -1 161 -10v75q-66 -9 -159 -6h-404q-90 89 -179 157q-20 -19 -75 -50q159 -67 264 -254zM817 187v77q-40 -9 -158 -8h-264q-81 -1 -139 8v-77q38 6 139 6h260q122 0 162 -6zM147 296q48 8 135 8h343q115 1 190 -6
q-10 33 -21 173q-13 214 57 295q21 -3 28 -99q44 45 71 56q0 1 -3 9q-41 151 -74 149q-130 -57 -149 -260q-8 -117 0 -258h-357q67 26 70 36q-1 1 -10 6q-28 13 -50 30h151q97 0 141 -4q-97 107 -177 155q92 30 226 26q-27 33 -39 79q-141 -14 -260 -68q-118 57 -312 98
q-12 -23 -38 -49l-23 -23q171 0 313 -65q-48 -37 -87 -76q-62 34 -115 66q-26 -32 -72 -54q150 -32 260 -157h-63q-59 0 -86 2q-32 1 -49 6v-75zM323 487q63 55 94 71q46 -20 107 -71h-201zM361 659q89 14 236 60l-41 57q-109 -41 -244 -65zM260 748q167 30 355 84l-57 69
q-126 -54 -352 -91z" />
</svg>
