<?xml version="1.0" standalone="no"?>
<!DOCTYPE svg PUBLIC "-//W3C//DTD SVG 1.1//EN" "http://www.w3.org/Graphics/SVG/1.1/DTD/svg11.dtd" >
<svg xmlns="http://www.w3.org/2000/svg" xmlns:xlink="http://www.w3.org/1999/xlink" version="1.1" viewBox="-10 0 1010 1000">
   <path fill="currentColor"
d="M270 -4q74 36 77 48q0 6 -14 12q-12 6 -16 10q-8 12 -17 24h500q60 1 93 -8v77q-40 -9 -93 -8h-538l-42 48q39 9 61 12q19 2 54 2h352q80 1 117 -8v75q-42 -9 -119 -8h-362q-63 -1 -105 8v-79q-55 65 -107 111q-29 -27 -71 -42q150 -94 230 -274zM125 322q48 8 105 8h232
h242q24 0 96 -6q-7 33 -6 91v145q9 173 67 224q15 5 14 -103q36 44 81 63q-23 111 -55 145q-42 43 -119 -65q-46 -79 -62 -205l-55 62q-116 -75 -221 -103q-73 35 -210 79q16 4 60 4h242q56 0 81 -6v68q-18 -4 -73 -4h-94v87h155q67 1 95 -12v79q-24 -8 -91 -8h-419
q-70 0 -101 8v-75q41 8 101 8h185v-87h-83q-51 0 -86 6v-60l-67 18q-25 -42 -62 -66q189 -13 389 -113h-210q-62 -1 -107 8v-73q29 8 109 8h266l103 -8v4q-69 69 -115 97q103 30 206 70v-163v-56h-490q-66 0 -103 8v-77z" />
</svg>
