<?xml version="1.0" standalone="no"?>
<!DOCTYPE svg PUBLIC "-//W3C//DTD SVG 1.1//EN" "http://www.w3.org/Graphics/SVG/1.1/DTD/svg11.dtd" >
<svg xmlns="http://www.w3.org/2000/svg" xmlns:xlink="http://www.w3.org/1999/xlink" version="1.1" viewBox="-10 0 1034 1024">
  <g transform="matrix(1 0 0 -1 0 820)">
   <path fill="currentColor"
d="M87 454q75 76 150 176l665 -3q6 0 15 -3v46q-21 -3 -67 -4h-591q30 51 40 59q7 9 34 24q-10 3 -20 8l-24 14q-12 6 -19 11q-25 -66 -72 -135q-81 -115 -164 -164q6 -1 19 -10q4 0 10 -5q1 0 24 -14zM416 13q-297 3 -307 5v-47q12 3 22 3q21 1 44 3h241l-3 -121
q-1 -6 -2 -14h49q0 1 -1 4q-4 60 -5 123v8l279 -4l6 -2v47q-33 -4 -66 -5h-219v95q156 0 172 -3q1 1 5 0q9 0 19 -3v47q-72 -4 -110 -5h-86v97q234 -3 241 -5q1 0 4 -1v47q-7 -1 -20 -2l-134 -3h-31l58 70q22 25 49 35q-9 4 -51 36h190v-96q0 -72 5 -154q6 -94 23 -145
q18 -67 58 -117q36 -46 72 -47q12 0 22 8q15 13 24 37q7 28 16 77q-18 7 -47 28q-1 -54 -5 -71q-3 -27 -19 -27q-10 0 -31 24q-21 22 -36 54q-25 55 -35 138q-6 87 -9 186q0 97 4 137q0 4 1 9q-36 -1 -71 -5l-584 3q-3 0 -8 2v-46l20 3q21 0 45 2h358q-28 -60 -96 -141h-96
q24 21 32 26q-43 52 -103 100l-30 -28q0 -1 -2 -3q63 -52 98 -95l-209 5v-47q39 6 61 6h198v-97q-204 3 -214 5v-47q9 1 21 3q42 3 65 3h128v-95zM849 567q-15 -3 -40 -4h-533q-6 1 -12 1q-12 0 -21 3v-47q9 1 21 3q21 1 45 3l533 -4q3 0 7 -2v47z" />
  </g>

</svg>
