<?xml version="1.0" standalone="no"?>
<!DOCTYPE svg PUBLIC "-//W3C//DTD SVG 1.1//EN" "http://www.w3.org/Graphics/SVG/1.1/DTD/svg11.dtd" >
<svg xmlns="http://www.w3.org/2000/svg" xmlns:xlink="http://www.w3.org/1999/xlink" version="1.1" viewBox="-10 0 1010 1000">
   <path fill="currentColor"
d="M262 2q89 20 105 34q0 4 -13 12q-36 22 -62 54h383q152 -2 216 -10v81q-52 -7 -216 -8h-427l-40 50q54 8 153 10h266q127 -1 190 -10v77q-70 -7 -184 -8h-268q-116 1 -167 8v-67q-41 49 -71 79q-27 -30 -73 -42q137 -98 208 -260zM806 336q-10 59 -11 127q0 69 8 137
q24 164 58 172q12 -5 22 -95q43 46 73 54q-40 143 -73 154q-103 -7 -147 -246q-10 -76 -14 -238h-468q-119 1 -157 8v-75q33 8 153 8h381q36 0 175 -6zM675 463v79q-25 -7 -169 -8v252h61q108 0 157 -8v82q-70 -9 -155 -10h-331q-106 1 -165 10v-84q72 7 161 8h56v-250h-44
q-94 2 -141 8v-79q54 7 141 8h248q119 -1 181 -8zM438 534h-81v252h81v-252zM185 568q32 63 67 159l-73 17q-26 -103 -60 -154zM601 570q36 8 86 24q-30 27 -82 152q-35 -18 -65 -23q43 -67 61 -153z" />
</svg>
