<?xml version="1.0" standalone="no"?>
<!DOCTYPE svg PUBLIC "-//W3C//DTD SVG 1.1//EN" "http://www.w3.org/Graphics/SVG/1.1/DTD/svg11.dtd" >
<svg xmlns="http://www.w3.org/2000/svg" xmlns:xlink="http://www.w3.org/1999/xlink" version="1.1" viewBox="-10 0 1010 1000">
   <path fill="currentColor"
d="M280 -2q90 12 103 24q0 4 -23 21q-31 22 -43 35h395q135 -1 199 -10v77q-37 -7 -193 -8h-442l-40 46q37 7 149 8h250q124 0 190 -8v77q-59 -9 -188 -10h-246q-108 1 -161 10v-71q-5 5 -9 10q-32 39 -86 85q-7 6 -16 14q-21 -28 -65 -42q142 -94 226 -258zM145 290
q53 10 159 10h365q32 0 123 -6q23 -1 35 -2q-10 85 -13 165t2 151q14 168 45 182q19 -4 24 -107q31 45 77 65q-42 130 -71 147q-128 -5 -149 -272q-7 -191 4 -263h-436q-132 1 -165 7v-77zM454 369q18 32 28 66h85q42 0 137 -8v75q-89 -11 -133 -8h-176l-107 74
q140 -7 206 -16q8 -9 21 -23q15 -16 21 -23q78 28 81 38q-1 1 -7 4q-24 8 -43 24q-181 148 -438 202q-9 -25 -60 -71q183 6 381 -105q-162 20 -258 41l-33 -63q1 -1 10 -2q37 -3 61 -22q12 -9 34 -26q30 -22 44 -34h-86q-90 0 -125 8v-71q39 7 129 8h181q-6 -22 -34 -54z
M613 594q79 36 81 55q-2 4 -9 5q-20 4 -46 19q-33 19 -91 64q22 10 60 29q113 55 138 66l-71 61q-74 -62 -187 -121q-135 72 -329 123q-19 -37 -78 -69q340 -27 532 -232z" />
</svg>
