<?xml version="1.0" standalone="no"?>
<!DOCTYPE svg PUBLIC "-//W3C//DTD SVG 1.1//EN" "http://www.w3.org/Graphics/SVG/1.1/DTD/svg11.dtd" >
<svg xmlns="http://www.w3.org/2000/svg" xmlns:xlink="http://www.w3.org/1999/xlink" version="1.1" viewBox="-10 0 1034 1024">
  <g transform="matrix(1 0 0 -1 0 820)">
   <path fill="currentColor"
d="M847 611q12 0 46 -3q10 0 17 -2v46l-63 -6h-594q21 46 34 59q9 12 34 24l-64 28q-39 -102 -98 -181q-72 -91 -129 -124q18 -6 27 -11q6 -4 25 -15q88 91 151 185h614zM205 445q-25 1 -46 2q-7 1 -15 3v-47q15 4 37 5l571 1l1 -185q0 -36 9 -112q0 -12 3 -25
q15 -129 80 -201q33 -37 65 -38q33 0 49 46q10 33 19 77q-24 7 -51 23q0 -18 1 -25q0 -33 -2 -44q-4 -30 -21 -30q-18 0 -43 32q-21 22 -33 56q-24 58 -32 137q-6 81 -8 169l2 78q0 54 6 83q-30 -1 -62 -5h-530zM300 192q-24 1 -50 3q-4 0 -10 2v-47q7 3 57 6h74
q-21 -51 -53 -89q-28 -30 -81 -58q18 -10 43 -28q42 36 64 62q21 27 52 78q12 -7 64 -52q3 -3 48 -44q15 -15 31 -34q10 15 29 34q-12 9 -23 18l-55 47l-44 35q-18 15 -40 31q126 0 142 -2q7 0 22 -4v47q-30 -1 -62 -5h-90q3 22 8 44q3 15 7 21q0 3 12 16q-30 1 -56 7
q0 -49 -6 -88h-83zM160 341q6 -57 6 -84l-1 -382q-3 -15 -5 -27h48q-4 16 -6 58h415q-1 -45 -6 -55h49q-6 18 -6 59l1 381q1 24 5 50q-31 -1 -63 -5l-393 1q-15 3 -44 4zM617 -58h-415v358h415v-358zM839 555q-63 -6 -94 -6l-484 3q-3 1 -8 3v-47q39 4 59 5l491 -1
q7 0 20 -2q1 0 16 -2v47z" />
  </g>

</svg>
