<?xml version="1.0" standalone="no"?>
<!DOCTYPE svg PUBLIC "-//W3C//DTD SVG 1.1//EN" "http://www.w3.org/Graphics/SVG/1.1/DTD/svg11.dtd" >
<svg xmlns="http://www.w3.org/2000/svg" xmlns:xlink="http://www.w3.org/1999/xlink" version="1.1" viewBox="-10 0 1034 1024">
  <g transform="matrix(1 0 0 -1 0 820)">
   <path fill="currentColor"
d="M840 618q12 0 63 -6v48q-4 0 -8 -2l-37 -4l-582 -1q27 45 40 60q10 12 37 21q-42 13 -69 28q-42 -114 -156 -226q-43 -42 -80 -59q27 -13 49 -31q75 72 154 172h589zM153 308q-27 1 -53 3q-3 1 -7 3v-47q39 4 60 5h183q-45 -46 -78 -73q-51 -36 -91 -43q6 -9 9 -16t6 -16
q0 -6 5 -17q66 12 197 18q-154 -108 -275 -123q21 -21 38 -42q103 40 191 91q39 24 76 49q37 27 57 44q24 24 38 33q13 12 40 17q-4 3 -21 14q-16 10 -31 24q-25 -37 -62 -71l-178 -5l145 116l272 -1l26 -4v47q-22 -1 -45 -5l-200 -1q7 10 17 21q-36 27 -111 76
q-4 -4 -9 -11q-9 -9 -19 -18q69 -39 94 -68h-274zM124 -143q3 -3 14 -19q90 21 167 53q72 30 157 83q132 -69 213 -140q3 6 6 10q1 1 3 5q12 15 21 25q-54 36 -191 119q-9 4 -16 9q34 30 81 76q39 40 51 43q7 4 22 8q-28 15 -55 40q-33 -48 -77 -93q-75 -70 -143 -108
q-139 -75 -276 -86zM222 455q-31 0 -46 2q-6 1 -14 3v-46q30 3 60 5h535q-3 -78 -4 -142q0 -79 5 -149q6 -87 29 -157q21 -66 56 -101q21 -22 45 -23q30 0 52 44q6 12 23 58q3 9 7 20q-43 24 -52 29q-3 -45 -8 -70q-6 -28 -25 -29q-27 0 -53 70q-25 63 -34 156q-4 67 -7 131
l3 114l9 90q-30 -1 -61 -5h-520zM843 561q-9 0 -22 -4l-72 -2l-492 3q-3 1 -8 3v-47q9 3 57 6l504 -1q15 0 33 -5v47z" />
  </g>

</svg>
