<?xml version="1.0" standalone="no"?>
<!DOCTYPE svg PUBLIC "-//W3C//DTD SVG 1.1//EN" "http://www.w3.org/Graphics/SVG/1.1/DTD/svg11.dtd" >
<svg xmlns="http://www.w3.org/2000/svg" xmlns:xlink="http://www.w3.org/1999/xlink" version="1.1" viewBox="-10 0 1010 1000">
   <path fill="currentColor"
d="M248 -13q89 20 87 31q0 5 -13 13q-9 6 -12 9q-5 5 -12 15q-3 3 -4 5h512q63 1 89 -8v67q-29 -7 -85 -7h-552q-66 89 -145 160q-30 -27 -67 -41q132 -96 202 -244zM246 147q35 8 101 8h385q72 1 95 -8v62q-32 -9 -91 -8h-391q-57 -1 -99 8v-62zM169 238q24 8 91 8h149h305
q10 0 44 -1q47 -2 46 -1q-6 25 -6 82v162q0 52 1 78q2 30 5 51q15 126 49 157q18 -7 16 -85q36 42 71 53q-33 148 -49 141q-32 17 -81 -31q-77 -85 -82 -334v-228h-291v50h178q47 1 73 -8v59q-26 -8 -71 -8h-180v46h140q49 1 78 -8v58q-27 -8 -76 -8h-142v41h176q57 0 81 -8
v60q-18 -9 -79 -8h-454q-58 -1 -94 8v-60q35 8 94 8h204v-41h-141q-46 0 -75 8v-58q25 8 73 8h143v-46h-139q-68 0 -97 8v-59q25 9 97 8h139v-50h-101q-61 0 -95 8v-60zM165 588q39 9 87 8h302q45 1 85 -6q1 -1 -1 41q-1 30 -1 38v179q-4 57 -125 53q-4 -31 -30 -67
q85 21 83 -8v-24h-43h-292q0 79 6 99h-77q8 -23 8 -95v-133q0 -8 -1 -38q-2 -47 -1 -47zM565 639h-246h-89v44h335v-44zM230 721v39h93h242v-39h-335z" />
</svg>
