<?xml version="1.0" standalone="no"?>
<!DOCTYPE svg PUBLIC "-//W3C//DTD SVG 1.1//EN" "http://www.w3.org/Graphics/SVG/1.1/DTD/svg11.dtd" >
<svg xmlns="http://www.w3.org/2000/svg" xmlns:xlink="http://www.w3.org/1999/xlink" version="1.1" viewBox="-10 0 1034 1024">
  <g transform="matrix(1 0 0 -1 0 820)">
   <path fill="currentColor"
d="M850 644q21 0 46 -3q6 0 17 -3v47q-22 -1 -45 -5l-579 -1q18 33 24 40q9 15 36 29q-27 9 -30 12q-4 1 -31 16q-51 -127 -157 -236q-39 -36 -71 -56q21 -9 39 -20q4 -3 9 -6q49 51 82 89q30 37 75 97h585zM395 216l-278 1q-15 3 -19 4v-39q6 0 13 2q22 1 47 3l542 -1
q16 0 32 -4v39q-31 -1 -63 -5h-239v55l210 -1q13 0 30 -4v38l-34 -4l-206 -1v48l239 -1q15 0 32 -4v40q-31 -1 -64 -5h-207q1 28 13 55h-53q3 -6 5 -55q-235 0 -248 3q-6 1 -10 2v-40q6 3 55 5h203v-48l-206 3q-6 0 -11 2v-38q34 4 59 5h158v-55zM227 489q-30 0 -48 3
q-6 0 -11 3v-42q39 4 59 5h548l-4 -147l2 -98q9 -135 22 -189q15 -60 47 -107q33 -45 64 -45q24 0 48 40q10 19 30 70q-33 18 -52 35q0 -34 -2 -47q-6 -48 -26 -49q-9 0 -14 4q-24 16 -41 60q-22 57 -33 149q-4 75 -7 156l2 126q0 42 10 79l-54 -6h-540zM199 142l4 -43
l-1 -224q-1 -15 -4 -24h48q-4 12 -5 25l-1 80h365v-34q0 -18 -6 -25q-6 -6 -23 -8q-9 0 -24 -1q-21 0 -45 4q15 -30 20 -46q-1 0 0 -2q15 0 70 9q13 0 22 5q24 10 24 56l1 200q0 15 4 36q-25 -1 -51 -5l-360 1q-15 3 -39 4q0 -3 1 -8zM605 39v-56h-365v56h365zM240 65v52
h365v-52h-365zM853 587q-30 -1 -62 -5q-495 0 -508 3q-3 1 -11 2v-41q34 4 60 5l492 -1q16 0 29 -4v41z" />
  </g>

</svg>
