<?xml version="1.0" standalone="no"?>
<!DOCTYPE svg PUBLIC "-//W3C//DTD SVG 1.1//EN" "http://www.w3.org/Graphics/SVG/1.1/DTD/svg11.dtd" >
<svg xmlns="http://www.w3.org/2000/svg" xmlns:xlink="http://www.w3.org/1999/xlink" version="1.1" viewBox="-10 0 1034 1024">
  <g transform="matrix(1 0 0 -1 0 820)">
   <path fill="currentColor"
d="M154 -80q-70 0 -83 3q-6 0 -10 3v-47q39 4 59 5l631 -1q21 0 37 -4v47q-48 -6 -79 -6h-18l1 138q1 24 6 37q-30 -1 -60 -5l-449 1q-4 1 -11 2q-12 0 -29 2q4 -54 5 -85v-90zM191 -80v136h126v-136h-126zM354 -80v136h123v-136h-123zM514 -80v136h139v-136h-139zM859 626
q21 0 47 -3q4 0 16 -3v47q-21 -1 -44 -5l-616 -1l12 21q24 45 51 57q-10 6 -35 15q-12 3 -25 11q-19 -48 -35 -80q-12 -24 -42 -69q-63 -96 -133 -147q15 -6 20 -9q6 -1 18 -11q7 -6 12 -8q45 54 76 95q28 39 59 90h619zM226 470q-33 0 -46 2q-4 0 -13 3v-46q39 4 59 5h531
l-4 -150q0 -69 8 -141q9 -82 38 -160q22 -61 65 -109q24 -25 45 -26q13 0 27 11q9 10 18 30q12 33 22 76q-7 3 -13 5q-1 0 -37 18q0 -21 -2 -53q-1 -37 -17 -38q-21 0 -54 61q-49 93 -59 211q-4 105 -5 132q0 7 1 14q6 129 9 145q0 7 3 15q-49 -4 -56 -5h-520zM195 372
l5 -96l-1 -94q-3 -12 -4 -43q27 3 55 5l359 -1l40 -4q-4 49 -5 98l1 95l4 40q-13 -1 -25 -2q-18 -3 -27 -4l-359 1q-33 4 -43 5zM606 239v-59h-369v59h369zM606 331v-57h-369v57h369zM256 524q39 4 60 5l497 -1q19 0 36 -4v47q-21 -1 -44 -5q-534 0 -543 3l-6 2v-47z" />
  </g>

</svg>
