<?xml version="1.0" standalone="no"?>
<!DOCTYPE svg PUBLIC "-//W3C//DTD SVG 1.1//EN" "http://www.w3.org/Graphics/SVG/1.1/DTD/svg11.dtd" >
<svg xmlns="http://www.w3.org/2000/svg" xmlns:xlink="http://www.w3.org/1999/xlink" version="1.1" viewBox="-10 0 1034 1024">
  <g transform="matrix(1 0 0 -1 0 820)">
   <path fill="currentColor"
d="M977 404q-67 13 -111 31q-46 19 -106 59q-78 48 -131 100q-48 48 -100 125q9 9 30 25q-4 1 -7 2q-49 19 -53 22q-39 -76 -81 -126q-55 -66 -111 -115q-55 -48 -130 -94q-46 -27 -73 -39q-24 -10 -61 -19q16 -12 28 -33q1 -3 3 -5q3 -6 6 -11q13 9 27 16q33 18 59 35
q24 15 62 42q84 60 142 114q58 58 134 154q30 -43 61 -80q28 -33 75 -72q45 -39 89 -69q100 -63 210 -108q6 13 15 22q1 3 6 6q7 9 17 18zM221 320q-33 3 -67 5v-46q7 3 27 4q7 1 74 2h136q-60 -180 -188 -295q-60 -49 -117 -70l48 -37q138 99 210 213q24 36 49 92
q24 57 56 137q-66 -4 -101 -5h-127zM425 -158q27 0 44 3q22 1 44 10q30 15 30 69v374q54 -120 155 -229q97 -106 219 -177q15 19 45 47q-61 12 -137 68q-93 70 -164 171q99 97 132 122q30 24 66 33q-25 19 -45 47q-6 -6 -10 -9q-33 -30 -52 -53l-110 -105q-3 0 -4 -3
q-21 28 -61 108q-31 66 -34 94v21q0 15 3 31q3 18 17 38h-65q3 -9 3 -16q1 -27 3 -53v-500q0 -46 -56 -47q-30 0 -63 8q7 -21 15 -53q12 1 25 1v0z" />
  </g>

</svg>
