<?xml version="1.0" standalone="no"?>
<!DOCTYPE svg PUBLIC "-//W3C//DTD SVG 1.1//EN" "http://www.w3.org/Graphics/SVG/1.1/DTD/svg11.dtd" >
<svg xmlns="http://www.w3.org/2000/svg" xmlns:xlink="http://www.w3.org/1999/xlink" version="1.1" viewBox="-10 0 1010 1000">
   <path fill="currentColor"
d="M470 -10q104 23 107 32q2 4 -9 13q-11 8 -14 13q103 212 414 262q-51 38 -79 99q-318 -130 -381 -317q-132 190 -399 305q-26 -45 -77 -85q309 -62 438 -322zM456 248q112 4 107 16q0 2 -4 6q-14 16 -15 36q13 107 65 228q12 -11 38 -33q66 -53 119 -110q10 8 27 23
q59 49 48 49q-3 2 -12 4q-24 8 -47 23q-13 9 -36 25q-60 42 -103 69q80 120 295 180q-52 44 -79 94q-259 -128 -319 -346v316q11 67 -161 79q-8 -52 -44 -103q83 14 104 6q24 -6 23 -44v-359q0 -84 -1 -108q-1 -32 -5 -51zM429 441q-60 263 -304 419q-37 -56 -85 -80
q222 -78 287 -264h-133q-47 0 -85 6v-83q30 6 85 6h127q74 0 108 -4z" />
</svg>
