<?xml version="1.0" standalone="no"?>
<!DOCTYPE svg PUBLIC "-//W3C//DTD SVG 1.1//EN" "http://www.w3.org/Graphics/SVG/1.1/DTD/svg11.dtd" >
<svg xmlns="http://www.w3.org/2000/svg" xmlns:xlink="http://www.w3.org/1999/xlink" version="1.1" viewBox="-10 0 1010 1000">
   <path fill="currentColor"
d="M405 -8q149 54 246 104l-58 83q-91 -69 -246 -115zM210 193q42 8 121 8h119q60 0 117 -8q-11 37 -5 75q14 84 69 199q98 -82 181 -187q66 55 89 91q0 3 -17 8q-29 8 -47 18l-68 48q-66 46 -110 77q112 153 299 215q-51 34 -91 91q-279 -178 -313 -395v371q2 58 -35 76
q-36 21 -150 23q-5 -66 -46 -119q92 23 121 7q33 -14 32 -80v-439h-143q-38 0 -91 5q-22 2 -32 3v-87zM71 381q36 13 106 12h158q48 0 98 -6q-43 285 -290 459q-40 -48 -89 -70q207 -87 291 -313h-174q-61 0 -100 6v-88z" />
</svg>
