<?xml version="1.0" standalone="no"?>
<!DOCTYPE svg PUBLIC "-//W3C//DTD SVG 1.1//EN" "http://www.w3.org/Graphics/SVG/1.1/DTD/svg11.dtd" >
<svg xmlns="http://www.w3.org/2000/svg" xmlns:xlink="http://www.w3.org/1999/xlink" version="1.1" viewBox="-10 0 1010 1000">
   <path fill="currentColor"
d="M161 12q85 49 170 123l-63 78q-94 -86 -171 -131zM950 70v99q-34 -7 -131 -8h-75v552q4 111 -27 130q-22 27 -165 42q2 -51 -40 -117q91 14 115 2q27 -10 26 -63v-546h-157q-99 1 -135 8v-99q45 7 131 8h325q81 0 133 -8zM87 238q87 37 185 106l-56 83q-77 -64 -182 -113
zM200 467q36 35 80 55q-57 148 -119 351q-41 -34 -92 -61q88 -147 131 -345z" />
</svg>
