<?xml version="1.0" standalone="no"?>
<!DOCTYPE svg PUBLIC "-//W3C//DTD SVG 1.1//EN" "http://www.w3.org/Graphics/SVG/1.1/DTD/svg11.dtd" >
<svg xmlns="http://www.w3.org/2000/svg" xmlns:xlink="http://www.w3.org/1999/xlink" version="1.1" viewBox="-10 0 1010 1000">
   <path fill="currentColor"
d="M421 -19q36 26 108 83q239 205 437 232q-41 36 -71 91q-213 -83 -391 -252q-140 143 -407 266q-15 -37 -69 -81q249 -61 416 -228l-9 -6q-28 -18 -86 -44zM462 258q112 4 107 16q-1 2 -4 6q-14 16 -15 36q13 107 65 228q12 -11 38 -33q65 -54 119 -110q76 58 75 72
q-3 2 -12 4q-24 8 -47 23q-13 9 -36 25q-60 42 -103 69q80 120 295 180q-51 43 -79 93q-259 -127 -319 -345v316q11 67 -161 79q-8 -52 -44 -103q134 22 127 -38v-359q0 -84 -1 -108q-1 -32 -5 -51zM437 443q-60 262 -304 419q-37 -56 -85 -80q222 -78 287 -264h-133
q-47 0 -85 6v-83q30 6 85 6h127q74 0 108 -4z" />
</svg>
