<?xml version="1.0" standalone="no"?>
<!DOCTYPE svg PUBLIC "-//W3C//DTD SVG 1.1//EN" "http://www.w3.org/Graphics/SVG/1.1/DTD/svg11.dtd" >
<svg xmlns="http://www.w3.org/2000/svg" xmlns:xlink="http://www.w3.org/1999/xlink" version="1.1" viewBox="-10 0 1034 1024">
  <g transform="matrix(1 0 0 -1 0 820)">
   <path fill="currentColor"
d="M83 348q111 45 188 100q141 102 226 221q31 -27 67 -63q66 -66 79 -77q46 -39 118 -80q39 -21 75 -37q40 -16 108 -39q10 19 26 35q6 10 14 15q-129 12 -251 89q-70 51 -86 66q-31 30 -79 79q-43 43 -74 66q-33 24 -79 48q-12 -19 -35 -43q55 -9 86 -36q-48 -63 -91 -104
q-141 -130 -227 -163q-60 -25 -107 -32q19 -15 30 -31q4 -6 12 -14zM421 295l-61 -4l-202 1q-4 1 -7 1q-12 1 -25 3v-47q7 3 26 4q7 1 76 2h144q-19 -48 -55 -110q-69 -111 -147 -168q-52 -36 -105 -53q22 -12 47 -39q105 69 188 168q78 93 132 243q-6 0 -11 -1zM538 411
q0 15 3 30q3 21 17 38h-65q3 -9 3 -14q1 -28 3 -54v-475q0 -30 -11 -37q-19 -12 -52 -13q-9 0 -56 6q9 -27 14 -50q97 6 123 25q21 15 21 50v323q45 -66 79 -104q33 -36 92 -83q51 -42 93 -68q48 -28 114 -63q15 18 45 45q-114 28 -232 121q-39 30 -61 52q-21 21 -41 50
q73 42 122 74q45 30 48 31q21 12 55 18q-33 28 -49 48q-21 -21 -53 -46q-28 -21 -52 -37q-24 -15 -67 -41q-15 -9 -30 -17q-13 18 -27 39l-36 66v86z" />
  </g>

</svg>
