<?xml version="1.0" standalone="no"?>
<!DOCTYPE svg PUBLIC "-//W3C//DTD SVG 1.1//EN" "http://www.w3.org/Graphics/SVG/1.1/DTD/svg11.dtd" >
<svg xmlns="http://www.w3.org/2000/svg" xmlns:xlink="http://www.w3.org/1999/xlink" version="1.1" viewBox="-10 0 1010 1000">
   <path fill="currentColor"
d="M173 22q95 50 168 113l-63 68q-80 -71 -161 -115zM909 66v93q-58 -8 -151 -8h-290v619h302q115 0 159 -10v94q-40 -8 -159 -8h-238q-98 0 -155 8q8 -66 8 -163v-470q0 -114 -8 -155q2 0 7 1q66 9 152 9h214q103 0 159 -10zM99 248q101 41 175 96l-54 75q-48 -42 -170 -97
zM192 467l80 57q-94 284 -99 351q-45 -34 -94 -63q98 -218 113 -345z" />
</svg>
