<?xml version="1.0" standalone="no"?>
<!DOCTYPE svg PUBLIC "-//W3C//DTD SVG 1.1//EN" "http://www.w3.org/Graphics/SVG/1.1/DTD/svg11.dtd" >
<svg xmlns="http://www.w3.org/2000/svg" xmlns:xlink="http://www.w3.org/1999/xlink" version="1.1" viewBox="-10 0 1010 1000">
   <path fill="currentColor"
d="M169 4q85 52 176 125l-59 70q-79 -74 -177 -131zM857 68q-89 400 -188 545q78 91 297 173q-39 32 -75 97q-165 -99 -276 -204q-112 116 -286 204q-8 -10 -21 -25q-24 -36 -62 -52q193 -64 316 -189q-92 -136 -165 -436l67 -28h-9q-68 4 -86 8v-93q27 5 143 8h176
q71 0 103 -2q29 -1 66 -6zM95 221q117 59 189 115l-54 73q-83 -65 -186 -111zM202 469q33 34 80 51q-10 34 -32 106q-71 234 -75 263q-22 -11 -60 -29q-29 -14 -42 -20q75 -111 129 -371zM480 153q47 252 133 399q88 -151 135 -399h-268z" />
</svg>
