<?xml version="1.0" standalone="no"?>
<!DOCTYPE svg PUBLIC "-//W3C//DTD SVG 1.1//EN" "http://www.w3.org/Graphics/SVG/1.1/DTD/svg11.dtd" >
<svg xmlns="http://www.w3.org/2000/svg" xmlns:xlink="http://www.w3.org/1999/xlink" version="1.1" viewBox="-10 0 1034 1024">
  <g transform="matrix(1 0 0 -1 0 820)">
   <path fill="currentColor"
d="M431 680q-36 0 -53 2q-9 3 -13 3v-46q1 0 4 1q7 3 32 4h424q-9 -90 -60 -230q-46 -123 -137 -240q-18 21 -25 32q-7 12 -17 25q-46 70 -76 151q-37 103 -38 161q0 12 1 28q-33 -6 -53 -8q24 -112 53 -188q28 -75 49 -111q13 -24 31 -53l47 -70q-39 -45 -77 -80
q-67 -58 -135 -103q-78 -46 -128 -50q33 -25 49 -49q99 58 172 115q72 57 147 134q91 -91 169 -146q76 -51 139 -88q19 24 41 50q-52 6 -126 52q-111 70 -197 165q58 81 88 132q48 93 74 173q33 103 59 239q-27 -1 -54 -5h-390zM695 429q-25 45 -45 74l-54 83
q-21 -16 -37 -23q55 -73 99 -160q9 7 37 26zM59 470q109 -60 166 -115q7 21 14 28l10 13q-43 31 -166 113q-7 -9 -24 -39zM165 -120q18 58 40 119q9 25 20 50q54 156 65 180q4 12 10 24q-18 13 -36 35q-18 -69 -46 -146q-25 -72 -41 -110q-10 -28 -23 -53q-16 -39 -36 -64
q1 0 47 -35zM273 686l-64 50q-7 6 -23 17q-3 -4 -10 -17q-4 -9 -16 -21q64 -46 103 -77q28 -24 53 -51l32 40z" />
  </g>

</svg>
