<?xml version="1.0" standalone="no"?>
<!DOCTYPE svg PUBLIC "-//W3C//DTD SVG 1.1//EN" "http://www.w3.org/Graphics/SVG/1.1/DTD/svg11.dtd" >
<svg xmlns="http://www.w3.org/2000/svg" xmlns:xlink="http://www.w3.org/1999/xlink" version="1.1" viewBox="-10 0 1010 1000">
   <path fill="currentColor"
d="M151 18q90 71 137 127l-62 66q-84 -94 -137 -125zM806 56q-10 66 -22 186q-5 57 -8 80q-18 171 -1 287q20 125 64 141q29 -14 34 -121q42 44 89 48q-37 156 -101 177q-149 3 -176 -316q-7 -99 19 -393h-186v242h34q66 -2 95 -8v92q-60 -10 -97 -10h-32v274q0 105 8 144
h-95q7 -34 7 -148v-270h-53q-68 -1 -95 8v-90q55 8 99 8h49v-242h-31q-58 1 -95 6v-95q73 10 119 10h212q96 -2 163 -10zM97 246q84 45 153 98l-52 71q-84 -66 -148 -97zM190 457q39 36 86 55q-48 151 -91 361q-59 -42 -102 -59q71 -108 107 -357z" />
</svg>
