<?xml version="1.0" standalone="no"?>
<!DOCTYPE svg PUBLIC "-//W3C//DTD SVG 1.1//EN" "http://www.w3.org/Graphics/SVG/1.1/DTD/svg11.dtd" >
<svg xmlns="http://www.w3.org/2000/svg" xmlns:xlink="http://www.w3.org/1999/xlink" version="1.1" viewBox="-10 0 1034 1024">
  <g transform="matrix(1 0 0 -1 0 820)">
   <path fill="currentColor"
d="M652 111l50 75q18 30 36 68q7 16 14 36q16 48 37 123h89q42 0 62 -6v47q-7 0 -12 -4q-27 0 -50 -2h-342l46 136q21 69 33 90q7 19 29 46q-31 9 -60 24q-12 -57 -30 -116q-36 -114 -61 -180l-174 2q-6 3 -12 4v-47q24 6 48 6h125q-31 -75 -56 -125q-21 -43 -47 -89
q57 -27 142 -73q54 -33 63 -38q-78 -78 -163 -135q-81 -49 -136 -55q33 -27 49 -47q48 28 111 72q42 27 82 58q39 33 93 85q82 -57 155 -112q70 -54 101 -87q15 21 34 39q-60 46 -119 90l-146 101q4 7 9 14zM435 219l34 73l55 121h223q-9 -54 -40 -133q-36 -81 -100 -162
q-90 54 -131 76zM87 432q9 -3 56 -34q51 -30 92 -68q13 25 25 40l-150 100q-12 -19 -14 -25q-3 -6 -9 -13zM305 184q4 12 12 22q3 6 8 14q-12 10 -19 18q-6 6 -15 17q-4 -7 -7 -16q-12 -33 -33 -72l-64 -118q-36 -67 -57 -101q-13 -19 -31 -37q27 -15 46 -33q51 108 85 169
q19 42 55 102q9 18 20 35zM344 609l-49 44l-80 67q-7 -12 -30 -34q111 -85 145 -131q12 16 34 36l-20 18v0z" />
  </g>

</svg>
