<?xml version="1.0" standalone="no"?>
<!DOCTYPE svg PUBLIC "-//W3C//DTD SVG 1.1//EN" "http://www.w3.org/Graphics/SVG/1.1/DTD/svg11.dtd" >
<svg xmlns="http://www.w3.org/2000/svg" xmlns:xlink="http://www.w3.org/1999/xlink" version="1.1" viewBox="-10 0 1010 1000">
   <path fill="currentColor"
d="M161 18q106 66 176 125l-65 70q-84 -79 -171 -123zM905 70v95q-30 -9 -137 -8h-113v574h151q107 -1 136 -10v101q-29 -8 -136 -8h-381q-106 0 -139 8v-99q69 8 139 8h142v-570h-63q-91 0 -133 8v-99q46 8 127 8h272q71 0 135 -8zM87 262q75 26 187 96l-54 77
q-87 -64 -184 -95zM202 487l82 53q-39 132 -123 337l-94 -59q87 -136 135 -331z" />
</svg>
