<?xml version="1.0" standalone="no"?>
<!DOCTYPE svg PUBLIC "-//W3C//DTD SVG 1.1//EN" "http://www.w3.org/Graphics/SVG/1.1/DTD/svg11.dtd" >
<svg xmlns="http://www.w3.org/2000/svg" xmlns:xlink="http://www.w3.org/1999/xlink" version="1.1" viewBox="-10 0 1010 1000">
   <path fill="currentColor"
d="M169 4q88 48 158 108l-65 71q-70 -65 -159 -109zM881 38v93q-17 -8 -167 -8h-178q-81 0 -117 2q-41 1 -62 6v-95q17 6 54 8q35 2 121 2h174q148 1 175 -8zM97 237q69 30 157 97l-62 75q-51 -53 -150 -101zM290 260q36 8 184 8h300q85 0 120 -2q37 -2 56 -8v100
q-18 -6 -54 -8q-33 -2 -122 -2h-214l-30 144h149q144 0 182 -13q-2 12 -8 67q-27 253 -49 284q-52 48 -195 63l-1 -6q-11 -66 -48 -105q120 17 148 -4q32 -9 48 -212h-189q-105 1 -142 6q12 -36 31 -131l18 -93q-157 0 -184 8v-96zM206 453q63 42 84 47q-37 86 -98 272
q-21 88 -25 90q-5 0 -92 -54q82 -152 131 -355z" />
</svg>
