<?xml version="1.0" standalone="no"?>
<!DOCTYPE svg PUBLIC "-//W3C//DTD SVG 1.1//EN" "http://www.w3.org/Graphics/SVG/1.1/DTD/svg11.dtd" >
<svg xmlns="http://www.w3.org/2000/svg" xmlns:xlink="http://www.w3.org/1999/xlink" version="1.1" viewBox="-10 0 1034 1024">
  <g transform="matrix(1 0 0 -1 0 820)">
   <path fill="currentColor"
d="M562 402l374 -1q10 -1 22 -4v46q-9 0 -12 -3l-223 -2l-373 1q-13 1 -25 1q-1 0 -12 3v-46l60 5h146q0 -4 -15 -96q-1 -1 -1 -5q-6 -34 -21 -89q-3 -6 -4 -13q51 4 84 5h260q-4 -45 -14 -110q-4 -45 -10 -72q-3 -19 -8 -32q-27 -72 -125 -73q-40 0 -101 9q16 -48 17 -57
q54 1 81 5q21 0 40 5q88 13 118 82q6 18 11 35q4 24 12 70q16 135 23 162q1 7 4 17q-33 -1 -65 -5h-272zM885 679q-28 -4 -62 -5l-458 3l-6 2v-46q15 3 30 4l434 1q30 -1 62 -5v46zM75 430l49 -26q3 0 61 -42q21 -15 41 -32q10 24 25 44q-76 49 -167 103q-9 -21 -21 -40
q6 -3 12 -7zM184 -63q7 16 16 33l122 250q-18 24 -29 44q-13 -40 -29 -76q-18 -42 -56 -117q-24 -51 -50 -93q-24 -40 -41 -58q27 -19 41 -37zM149 724q-7 -12 -19 -24q28 -19 65 -49q30 -22 55 -46q16 -15 34 -37q15 22 31 38l-64 55q-12 6 -93 75z" />
  </g>

</svg>
