<?xml version="1.0" standalone="no"?>
<!DOCTYPE svg PUBLIC "-//W3C//DTD SVG 1.1//EN" "http://www.w3.org/Graphics/SVG/1.1/DTD/svg11.dtd" >
<svg xmlns="http://www.w3.org/2000/svg" xmlns:xlink="http://www.w3.org/1999/xlink" version="1.1" viewBox="-10 0 1034 1024">
  <g transform="matrix(1 0 0 -1 0 820)">
   <path fill="currentColor"
d="M402 -44q0 -72 64 -87q42 -7 149 -8l175 4q1 1 5 1q51 3 79 16q37 16 60 61q12 27 32 102q-33 10 -54 21q3 -27 3 -39q0 -49 -25 -85q-18 -27 -69 -36q-54 -7 -119 -8l-200 4q-21 1 -35 7q-27 10 -28 53v358l390 -1q15 0 41 -4q-6 48 -6 75l1 261q1 21 5 43
q-16 -1 -29 -2q-18 -3 -25 -3l-373 1q-6 1 -46 4q1 -30 5 -60v-678zM439 356v297h387v-297h-387zM63 420q108 -57 173 -116q4 10 10 17l10 16q3 4 5 8q-19 15 -105 70q-6 3 -69 44q-6 -12 -24 -39zM130 -133q1 6 145 314l18 38q-21 12 -37 29q-3 -15 -12 -32q-6 -12 -10 -26
q-12 -31 -60 -139q-63 -136 -102 -176q25 -12 47 -29q4 10 11 21zM139 694q70 -45 112 -74q27 -18 56 -50q9 16 31 38q-87 64 -127 91q-3 1 -43 31q-12 -16 -29 -36v0z" />
  </g>

</svg>
