<?xml version="1.0" standalone="no"?>
<!DOCTYPE svg PUBLIC "-//W3C//DTD SVG 1.1//EN" "http://www.w3.org/Graphics/SVG/1.1/DTD/svg11.dtd" >
<svg xmlns="http://www.w3.org/2000/svg" xmlns:xlink="http://www.w3.org/1999/xlink" version="1.1" viewBox="-10 0 1010 1000">
   <path fill="currentColor"
d="M181 20q81 58 158 135l-73 66q-69 -79 -155 -145zM857 54v95q-33 6 -89 42q-26 16 -83 55q-101 68 -163 106q3 5 106 -1q76 -3 281 -11q-6 49 -16 219q-13 219 -22 255q-15 64 -175 79q-12 -54 -45 -107q116 23 139 -34q12 -49 25 -299q1 -31 2 -44l-75 4
q-42 250 -149 339q-81 77 -202 141q-22 -28 -83 -67q343 -118 355 -411l-80 4q-74 198 -256 308q-26 -32 -83 -54q198 -80 258 -254q-75 6 -111 18l-30 -79q132 -37 361 -227l-214 8q-92 0 -125 8v-87q28 7 123 6q23 0 69 -1q240 -2 282 -11zM93 242q97 48 177 112l-56 75
q-76 -60 -170 -113zM181 473l77 57q-97 299 -92 335q-3 22 -7 24q-27 0 -99 -59q58 -128 121 -357z" />
</svg>
