<?xml version="1.0" standalone="no"?>
<!DOCTYPE svg PUBLIC "-//W3C//DTD SVG 1.1//EN" "http://www.w3.org/Graphics/SVG/1.1/DTD/svg11.dtd" >
<svg xmlns="http://www.w3.org/2000/svg" xmlns:xlink="http://www.w3.org/1999/xlink" version="1.1" viewBox="-10 0 1034 1024">
  <g transform="matrix(1 0 0 -1 0 820)">
   <path fill="currentColor"
d="M405 683q-42 0 -62 5h-3v-46q6 4 38 5h64l-6 -184q-3 -76 -11 -139q-21 -207 -109 -338q-57 -81 -120 -110q28 -12 55 -28q136 135 185 321q15 60 24 122q7 61 12 147l8 163q1 21 3 46h262l-31 -85l-86 -202q-3 -4 -5 -9q49 4 77 5h110q-42 -141 -137 -264
q-63 79 -106 187q-24 72 -26 137q-31 -12 -53 -18q16 -60 29 -98l25 -64q39 -85 102 -177q-85 -85 -172 -131q-37 -18 -63 -28q-21 -6 -48 -8q12 -10 43 -46q84 42 139 79q60 42 133 106q51 -48 136 -104q93 -55 119 -69q13 24 40 48q-57 7 -133 52q-73 42 -136 103
q64 90 94 149q30 60 73 187q-18 -1 -32 -3q-21 -1 -153 -2q117 279 127 296q-60 -4 -62 -5h-344zM69 447q9 -4 20 -11q12 -7 25 -15q60 -36 106 -72q6 18 19 38q0 3 4 6l-62 40l-107 64q-6 -9 -12 -19q-3 -7 -12 -19q9 -6 19 -12zM106 -90q12 -9 30 -24q0 3 2 8q3 4 4 12
q4 21 28 82q24 73 70 196q10 34 25 65q-21 21 -35 43q-18 -70 -29 -101q-18 -46 -34 -95q-15 -46 -26 -70q-16 -45 -44 -90q-6 -6 -9 -11zM320 614l-72 51q-34 22 -56 41q-15 9 -28 18l-28 -36q61 -39 101 -67q33 -24 55 -48q9 18 19 28q3 7 9 13v0z" />
  </g>

</svg>
