<?xml version="1.0" standalone="no"?>
<!DOCTYPE svg PUBLIC "-//W3C//DTD SVG 1.1//EN" "http://www.w3.org/Graphics/SVG/1.1/DTD/svg11.dtd" >
<svg xmlns="http://www.w3.org/2000/svg" xmlns:xlink="http://www.w3.org/1999/xlink" version="1.1" viewBox="-10 0 1010 1000">
   <path fill="currentColor"
d="M183 0q84 68 154 137l-71 72q-51 -73 -153 -147zM825 40q-11 31 -26 72q-18 56 -75 184h86q46 -1 73 -6q-77 261 -157 369q83 80 238 145q-45 29 -81 83q-101 -65 -208 -170q-96 94 -260 180q-19 -42 -84 -77q147 -31 296 -165q-71 -110 -125 -303q-14 326 -248 517
q-26 -37 -89 -63q280 -126 268 -685q-45 0 -60 1q-19 1 -26 3v-85q35 8 129 8h169q85 0 180 -8zM714 119h-200q-1 9 -3 57q-5 111 -9 160q75 -11 83 -6q2 2 1 9q-5 21 1 46q27 104 90 213q55 -93 99 -231h-82q-49 2 -79 4q35 -70 88 -222q9 -24 11 -30zM115 233
q110 57 173 115l-60 73q-68 -70 -166 -121zM175 459q36 32 77 55q-100 251 -123 328q-48 -32 -89 -56q83 -123 135 -327z" />
</svg>
