<?xml version="1.0" standalone="no"?>
<!DOCTYPE svg PUBLIC "-//W3C//DTD SVG 1.1//EN" "http://www.w3.org/Graphics/SVG/1.1/DTD/svg11.dtd" >
<svg xmlns="http://www.w3.org/2000/svg" xmlns:xlink="http://www.w3.org/1999/xlink" version="1.1" viewBox="-10 0 1034 1024">
  <g transform="matrix(1 0 0 -1 0 820)">
   <path fill="currentColor"
d="M868 538l62 -7v48q-4 0 -8 -1q-1 0 -9 -3l-76 -2l-467 1q-21 3 -27 5v-48q4 3 12 4q37 3 53 3h357q-3 -42 -16 -122q-21 -90 -46 -150q-16 -39 -32 -66q-13 -24 -38 -56q-45 61 -81 141q-49 114 -50 172q0 9 2 28q-27 -7 -57 -11l35 -118q6 -16 11 -33l14 -35
q39 -93 98 -179q-57 -63 -99 -98q-87 -66 -142 -91q-39 -18 -88 -25q25 -25 46 -51q78 42 134 78q48 33 101 80q24 19 76 72q75 -78 153 -134q4 -4 135 -86q21 24 41 49q-81 18 -185 98q-82 67 -114 108q37 61 62 111q21 45 37 96q13 42 23 85q6 24 10 55q6 34 13 82h60z
M58 455q4 -4 15 -11q93 -54 146 -107q7 18 13 24q1 6 12 20l-40 29l-81 55q-21 13 -43 26q-12 -21 -22 -36zM150 -92q4 12 9 22l113 251q21 42 39 87q-15 18 -30 43q-16 -46 -34 -88l-70 -152q-48 -105 -81 -147q24 -18 44 -38q4 12 10 22zM158 736q-3 -3 -5 -7l-19 -26
q34 -21 82 -58q36 -27 74 -64q9 13 30 37l-67 53l-93 69q-1 -1 -2 -4zM537 742q81 -73 132 -148q16 18 38 32l-7 7q-7 6 -13 13l-59 67l-59 60l-6 -6q0 -1 -3 -3q-3 -1 -23 -22v0z" />
  </g>

</svg>
