<?xml version="1.0" standalone="no"?>
<!DOCTYPE svg PUBLIC "-//W3C//DTD SVG 1.1//EN" "http://www.w3.org/Graphics/SVG/1.1/DTD/svg11.dtd" >
<svg xmlns="http://www.w3.org/2000/svg" xmlns:xlink="http://www.w3.org/1999/xlink" version="1.1" viewBox="-10 0 1010 1000">
   <path fill="currentColor"
d="M579 -10q57 59 104 149l-88 42q-42 -93 -97 -151zM175 14q86 50 158 123l-67 70q-77 -87 -155 -129zM919 187v89q-35 -8 -127 -8h-181v490q0 111 8 147h-95q7 -38 8 -147v-490h-99q-82 0 -123 8v-89q46 7 117 8h363q81 0 129 -8zM89 252q96 38 179 98l-52 81
q-65 -55 -174 -105zM706 407q88 65 203 191l-78 65q-72 -109 -192 -200zM218 469q35 31 78 55q-99 284 -117 367q-44 -43 -92 -63q83 -129 131 -359z" />
</svg>
