<?xml version="1.0" standalone="no"?>
<!DOCTYPE svg PUBLIC "-//W3C//DTD SVG 1.1//EN" "http://www.w3.org/Graphics/SVG/1.1/DTD/svg11.dtd" >
<svg xmlns="http://www.w3.org/2000/svg" xmlns:xlink="http://www.w3.org/1999/xlink" version="1.1" viewBox="-10 0 1010 1000">
   <path fill="currentColor"
d="M589 -2q3 5 9 16q44 73 65 127l-98 38q-12 -63 -75 -149zM312 139l-72 68q-67 -69 -135 -107l62 -70q69 38 145 109zM300 185q51 8 140 8h354q74 0 125 -8v91q-53 -8 -125 -8h-14q-31 221 -137 389q109 89 295 117q-48 50 -73 107q-167 -58 -274 -156q-112 100 -301 172
q-25 -58 -78 -89q204 -36 328 -147q-54 -72 -109 -214q-25 -66 -40 -99l91 -22q33 145 107 280q83 -130 105 -338h-246q-88 1 -148 8v-91zM91 256q99 44 173 94l-58 79q-58 -48 -168 -99zM192 481q27 36 82 55q-49 145 -107 345q-9 -13 -63 -48q-18 -11 -29 -19
q86 -155 117 -333z" />
</svg>
