<?xml version="1.0" standalone="no"?>
<!DOCTYPE svg PUBLIC "-//W3C//DTD SVG 1.1//EN" "http://www.w3.org/Graphics/SVG/1.1/DTD/svg11.dtd" >
<svg xmlns="http://www.w3.org/2000/svg" xmlns:xlink="http://www.w3.org/1999/xlink" version="1.1" viewBox="-10 0 1034 1024">
  <g transform="matrix(1 0 0 -1 0 820)">
   <path fill="currentColor"
d="M760 335q-3 -45 -8 -182l-6 -131q-3 -36 -6 -54q-9 -31 -24 -40q-21 -10 -54 -11q-18 0 -65 7q7 -21 16 -53q49 3 71 7q19 3 33 7q57 21 65 113l14 267q0 33 6 72q1 21 6 39q-19 -1 -33 -3q-21 -1 -194 -2q-136 0 -160 2q-3 1 -18 3v-46q1 0 4 1q7 3 32 4h75
q-6 -93 -11 -122q-7 -81 -60 -170q-30 -49 -86 -95q-54 -42 -101 -50q27 -22 44 -43q96 63 147 126q49 63 79 160q9 33 16 70l12 124h206zM528 660q1 6 6 10q9 18 27 38q-24 7 -54 21q-55 -213 -173 -338q-34 -34 -69 -51q31 -18 48 -31l66 72q4 7 12 15q61 78 104 177
q3 13 10 26zM694 752q-24 -9 -49 -16q54 -159 117 -249q52 -75 157 -176l51 33q-42 18 -96 71q-87 84 -145 214q-30 69 -35 123zM57 435q9 -4 17 -10q88 -46 142 -92q1 6 23 43l-47 28q-30 21 -84 51q-13 7 -25 15q-9 -9 -12 -14q-4 -6 -7 -12q-4 -4 -7 -9zM92 -68
q21 -15 43 -40q6 19 11 33q9 27 29 73l61 147q13 31 24 56l27 52q-15 18 -25 32q-1 4 -8 13q-9 -33 -22 -62q-1 -3 -43 -104l-65 -149q-12 -25 -32 -51zM158 709q-6 -6 -10 -14q49 -36 83 -63q24 -19 63 -60q9 18 30 38l-63 52l-87 68q-7 -9 -16 -21v0z" />
  </g>

</svg>
