<?xml version="1.0" standalone="no"?>
<!DOCTYPE svg PUBLIC "-//W3C//DTD SVG 1.1//EN" "http://www.w3.org/Graphics/SVG/1.1/DTD/svg11.dtd" >
<svg xmlns="http://www.w3.org/2000/svg" xmlns:xlink="http://www.w3.org/1999/xlink" version="1.1" viewBox="-10 0 1034 1024">
  <g transform="matrix(1 0 0 -1 0 820)">
   <path fill="currentColor"
d="M292 62q21 0 51 -5q12 40 17 67q12 45 26 107l13 83q6 42 26 68q-30 4 -57 11q-3 0 -6 2q-1 -189 -70 -333zM544 458q0 12 2 28q1 19 11 38h-56q3 -9 3 -16q1 -27 2 -50v-488q0 -36 17 -58q22 -21 95 -22q66 0 113 13q34 12 60 49q13 24 31 84q-25 10 -54 25q1 -18 2 -32
q0 -18 -7 -38q-10 -28 -31 -43q-27 -18 -92 -18q-72 0 -85 11q-10 7 -11 33v484zM803 417l63 -160q24 -72 49 -155q21 13 42 20l-114 311q-15 -7 -20 -10q-9 -3 -20 -6zM82 490q-4 -7 -13 -18q24 -13 64 -40q33 -22 57 -41q24 -18 44 -39q9 18 26 40l-80 58l-86 59
q-6 -9 -12 -19zM256 281q-4 6 -12 12q-7 -33 -24 -78q-18 -54 -49 -132q-42 -100 -69 -137q31 -15 48 -27q21 51 21 54l80 212q18 46 28 76q-15 12 -23 20zM165 707q99 -72 157 -136q15 21 32 39l-160 131q-10 -15 -29 -34zM548 689q39 -31 72 -65q1 -3 57 -59
q21 -21 35 -44q10 19 33 42q-94 94 -165 158l-19 -18q-7 -6 -13 -14v0z" />
  </g>

</svg>
