<?xml version="1.0" standalone="no"?>
<!DOCTYPE svg PUBLIC "-//W3C//DTD SVG 1.1//EN" "http://www.w3.org/Graphics/SVG/1.1/DTD/svg11.dtd" >
<svg xmlns="http://www.w3.org/2000/svg" xmlns:xlink="http://www.w3.org/1999/xlink" version="1.1" viewBox="-10 0 1010 1000">
   <path fill="currentColor"
d="M155 24q59 34 141 107l-66 74q-60 -60 -139 -109zM95 252q116 51 177 94l-60 77q-59 -43 -166 -97zM175 447l87 57q-59 166 -103 358l-97 -54q85 -189 113 -361zM296 70q32 3 89 4h405q67 -1 103 -4q-6 36 -6 87q0 73 6 103h-93q2 -18 3 -41q1 -12 1 -27v-43h-421
q0 48 1 69q1 24 3 40h-97q6 -20 8 -44q2 -19 2 -65q0 -28 -4 -79zM427 290q40 3 103 4h125q39 0 56 -1q21 -1 43 -3q-12 24 -12 121v308q-3 40 52 37q46 1 57 -23q13 -22 14 -110q49 46 93 56q-19 105 -49 134q-15 15 -38 20q-19 6 -69 5h-42q-96 2 -97 -70v-406h-153
q2 132 -4 197q-6 68 -24 120q-28 99 -172 192q-33 -49 -86 -63q99 -38 145 -97q62 -79 62 -224v-96q0 -74 -4 -101z" />
</svg>
