<?xml version="1.0" standalone="no"?>
<!DOCTYPE svg PUBLIC "-//W3C//DTD SVG 1.1//EN" "http://www.w3.org/Graphics/SVG/1.1/DTD/svg11.dtd" >
<svg xmlns="http://www.w3.org/2000/svg" xmlns:xlink="http://www.w3.org/1999/xlink" version="1.1" viewBox="-10 0 1010 1000">
   <path fill="currentColor"
d="M165 14q90 46 164 107l-63 72q-65 -65 -165 -113zM831 50v87q-41 -8 -103 -8h-252q-66 1 -105 8v-87q63 7 111 8h244q82 0 105 -8zM77 237q104 42 179 99l-54 81q-85 -73 -176 -103zM911 280v85q-47 -4 -121 -5h-82v343q-1 50 12 60q7 11 62 9q44 2 58 -23q18 -26 19 -96
q45 37 95 54q-24 91 -53 117q-27 29 -95 28h-74q-66 0 -87 -29q-10 -14 -13 -39q-4 -18 -3 -75v-349h-95q-5 217 -52 305q-48 105 -198 220q-44 -53 -80 -63q264 -106 250 -462h-41q-70 1 -121 7v-85q58 6 127 6h363q94 -3 129 -8zM185 455q34 25 85 41q-71 187 -115 371
q-40 -41 -93 -57q85 -156 123 -355z" />
</svg>
