<?xml version="1.0" standalone="no"?>
<!DOCTYPE svg PUBLIC "-//W3C//DTD SVG 1.1//EN" "http://www.w3.org/Graphics/SVG/1.1/DTD/svg11.dtd" >
<svg xmlns="http://www.w3.org/2000/svg" xmlns:xlink="http://www.w3.org/1999/xlink" version="1.1" viewBox="-10 0 1010 1000">
   <path fill="currentColor"
d="M560 -10q95 -2 111 12q0 2 -3 8q-23 45 -23 137h178q87 0 123 -6v84q-22 -6 -123 -6h-178v121h113q81 -3 119 -6q-6 38 -6 137v222q3 58 -25 73q-24 19 -134 34q2 -58 -41 -111q78 17 96 9q21 -5 19 -49v-238h-141v351q2 114 6 145h-95q10 -73 11 -147v-349h-129v236
q1 103 6 145h-103q7 -28 12 -133v-10v-192q-1 -84 -6 -125q40 5 127 8h93v-121h-130q-76 0 -114 8v-86q18 3 114 6h130q-3 -150 -7 -157zM173 22q89 79 131 129l-66 62q-65 -82 -131 -129zM101 238q11 8 47 35q83 62 100 75l-61 71q-47 -54 -141 -111zM200 461q32 35 80 57
q-85 237 -115 347q-51 -54 -92 -81q91 -141 127 -323z" />
</svg>
