<?xml version="1.0" standalone="no"?>
<!DOCTYPE svg PUBLIC "-//W3C//DTD SVG 1.1//EN" "http://www.w3.org/Graphics/SVG/1.1/DTD/svg11.dtd" >
<svg xmlns="http://www.w3.org/2000/svg" xmlns:xlink="http://www.w3.org/1999/xlink" version="1.1" viewBox="-10 0 1034 1024">
  <g transform="matrix(1 0 0 -1 0 820)">
   <path fill="currentColor"
d="M296 -104q27 -33 39 -51q171 63 298 159q46 -37 75 -55q34 -19 84 -43q69 -30 143 -57q6 12 35 54q-52 3 -104 20q-70 22 -113 48q-54 30 -90 63q63 70 97 130q31 54 74 166q-63 -6 -84 -6l-330 1q-9 1 -15 2q4 0 -10 3h-2v-47q9 6 36 6h37q28 -84 53 -129
q24 -46 83 -127q-33 -27 -64 -48q-58 -36 -116 -60q-66 -28 -112 -29h-14zM774 289q-39 -124 -142 -227l-34 42q-12 18 -35 54q-18 30 -29 56q-13 33 -25 75h265zM726 684v-189q0 -15 3 -29q1 -19 17 -30q18 -16 91 -17q37 0 86 6q0 25 9 56q-12 -6 -28 -11q-37 -12 -78 -12
q-42 0 -54 12q-7 7 -8 33q0 171 2 181q0 21 3 41l-91 -5q-142 0 -169 2q-6 3 -32 3q4 -75 6 -127q0 -63 -26 -112q-28 -48 -74 -73q-21 -12 -51 -20q18 -15 41 -42q79 60 108 103q24 39 32 80q6 37 7 150h206zM114 413l54 -30q37 -21 64 -44q12 24 25 44q-97 57 -153 85
q-13 7 -25 14q-3 -9 -9 -16l-6 -12q0 -1 -3 -4q0 -3 -4 -7zM180 -40l46 99q16 36 34 71l34 69l24 55q-18 19 -35 40q-42 -108 -95 -221q-60 -121 -86 -154q19 -12 45 -32q13 34 33 73zM147 701q114 -61 166 -109q9 18 25 41q-85 57 -165 106q-19 -27 -26 -38v0z" />
  </g>

</svg>
