<?xml version="1.0" standalone="no"?>
<!DOCTYPE svg PUBLIC "-//W3C//DTD SVG 1.1//EN" "http://www.w3.org/Graphics/SVG/1.1/DTD/svg11.dtd" >
<svg xmlns="http://www.w3.org/2000/svg" xmlns:xlink="http://www.w3.org/1999/xlink" version="1.1" viewBox="-10 0 1010 1000">
   <path fill="currentColor"
d="M488 -12q113 27 113 38q1 5 -10 12q-15 9 -20 18q-23 45 -53 99h284q67 0 115 -8q-9 89 -24 389l-8 208q1 83 -39 109q-41 32 -175 54q-23 -97 -50 -115q87 12 119 3q35 -8 50 -45q16 -75 29 -523h-337q-59 104 -101 166q-45 -36 -91 -41q137 -122 198 -364zM183 18
q97 75 152 133l-75 68q-75 -86 -147 -137zM111 266q57 29 163 96l-56 79q-73 -59 -162 -99zM518 294q8 3 23 8q91 32 86 38q0 7 -12 13q-23 10 -34 30q-68 125 -135 221l189 -10q-13 -54 -46 -117l80 -16q37 72 81 220l-91 26q0 -14 -6 -49q-2 -7 -2 -9q-38 6 -138 22
q-129 22 -150 24l-36 -85q48 -23 86 -80q66 -111 105 -236zM208 492l76 58q-79 243 -141 337l-80 -51q87 -136 145 -344z" />
</svg>
