<?xml version="1.0" standalone="no"?>
<!DOCTYPE svg PUBLIC "-//W3C//DTD SVG 1.1//EN" "http://www.w3.org/Graphics/SVG/1.1/DTD/svg11.dtd" >
<svg xmlns="http://www.w3.org/2000/svg" xmlns:xlink="http://www.w3.org/1999/xlink" version="1.1" viewBox="-10 0 1010 1000">
   <path fill="currentColor"
d="M554 -6q102 8 111 18q0 1 -3 5q-19 28 -19 89v341q3 123 10 165h-105q11 -54 14 -163v-308q-2 -108 -8 -147zM169 18q95 66 160 107l-65 76q-73 -65 -159 -115zM772 165q78 67 192 204l-85 64q-58 -109 -175 -214zM405 181q88 16 99 28q-1 4 -6 11q-16 19 -26 52
q-45 141 -97 256q-27 -22 -101 -24q103 -130 131 -323zM101 250q68 36 175 92l-52 81q-74 -58 -172 -99zM770 443q98 38 101 51q-1 2 -8 10q-28 32 -40 52q-128 272 -525 345q-13 -50 -62 -95q436 -10 534 -363zM177 485q32 37 79 63q-78 183 -109 308q-37 -36 -89 -56
q77 -124 119 -315z" />
</svg>
