<?xml version="1.0" standalone="no"?>
<!DOCTYPE svg PUBLIC "-//W3C//DTD SVG 1.1//EN" "http://www.w3.org/Graphics/SVG/1.1/DTD/svg11.dtd" >
<svg xmlns="http://www.w3.org/2000/svg" xmlns:xlink="http://www.w3.org/1999/xlink" version="1.1" viewBox="-10 0 1034 1024">
  <g transform="matrix(1 0 0 -1 0 820)">
   <path fill="currentColor"
d="M630 754l-50 9q-9 3 -17 5q-4 -33 -36 -109q-51 -114 -134 -213q-39 -46 -66 -69q-25 -19 -55 -29q33 -16 57 -34q93 96 145 171q49 73 112 201q114 -204 339 -343q13 15 16 18q9 12 28 27q-45 13 -82 34q-61 33 -125 94q-93 87 -156 215q12 12 24 23zM497 385l-50 4
q-12 1 -24 1l6 -60l1 -377q0 -9 4 -21q9 -30 30 -41q15 -9 54 -15q36 -3 126 -4q117 0 164 12q42 9 72 55q12 22 38 77q-28 12 -60 31q-1 -36 -5 -57q-13 -46 -44 -63q-12 -6 -31 -9q-21 -3 -61 -6l-122 -2l-59 1q-33 3 -51 20q-12 12 -13 56v362h277v-66q0 -25 -3 -69
q-1 -33 -10 -46q-15 -25 -97 -26q-30 0 -61 5q12 -24 19 -44q0 -3 2 -9q72 4 111 12q28 6 50 21q18 15 24 42q6 25 8 94q3 63 9 127q-60 -4 -69 -5h-235zM74 429q76 -42 151 -100q18 30 28 42l-169 107q-6 -6 -19 -25q-4 -9 -10 -13q9 -4 19 -11zM164 -125l24 71q3 10 4 9
q0 1 1 5q18 43 33 88l56 152l28 66q-21 21 -34 40q-1 1 -2 3q-9 -36 -26 -84q-21 -64 -57 -152q-30 -78 -50 -122q-15 -33 -31 -52q30 -13 50 -31q1 4 4 7zM170 708q-12 -12 -18 -23q94 -61 157 -122q12 24 30 43l-161 114l-8 -12v0z" />
  </g>

</svg>
