<?xml version="1.0" standalone="no"?>
<!DOCTYPE svg PUBLIC "-//W3C//DTD SVG 1.1//EN" "http://www.w3.org/Graphics/SVG/1.1/DTD/svg11.dtd" >
<svg xmlns="http://www.w3.org/2000/svg" xmlns:xlink="http://www.w3.org/1999/xlink" version="1.1" viewBox="-10 0 1034 1024">
  <g transform="matrix(1 0 0 -1 0 820)">
   <path fill="currentColor"
d="M378 -50q-3 -31 -5 -64q39 4 66 5l494 -1q16 0 29 -4v46q-3 0 -5 -1q-6 0 -7 -2q-28 0 -52 -2h-482v702h453q42 0 62 -5v46q-6 0 -8 -1q-1 0 -3 -1q-3 0 -6 -1q-15 0 -45 -2l-456 1q-3 0 -40 4q1 -33 5 -67v-653zM755 232q-15 21 -32 41q25 51 44 82q15 28 35 70
q36 72 62 94q-33 10 -58 23q-12 -45 -37 -99q-18 -42 -35 -72q-15 -30 -39 -67l-58 68l-116 125q-9 -7 -19 -17q-6 -6 -14 -11q15 -13 27 -25l39 -40q27 -27 53 -56l68 -80q-72 -120 -154 -197q-42 -33 -65 -42q27 -15 46 -33l58 59q24 25 57 66l47 61l38 56l101 -133
q34 -51 58 -99q16 16 38 29q-51 78 -98 138zM79 421q12 -6 55 -40q19 -15 43 -35q12 -7 30 -26q9 18 16 25q0 1 10 13l-146 108q-12 -15 -24 -33q7 -6 16 -12zM168 -67q18 48 35 101q40 117 67 185q-28 37 -31 43q-10 -42 -26 -90q-18 -54 -45 -122q-24 -63 -43 -102
q-12 -27 -25 -48q7 -3 13 -4q3 0 34 -24q12 42 21 61zM169 704q-9 -9 -19 -23q90 -64 149 -127q12 21 27 38q-72 63 -148 123q-4 -4 -9 -11v0z" />
  </g>

</svg>
