<?xml version="1.0" standalone="no"?>
<!DOCTYPE svg PUBLIC "-//W3C//DTD SVG 1.1//EN" "http://www.w3.org/Graphics/SVG/1.1/DTD/svg11.dtd" >
<svg xmlns="http://www.w3.org/2000/svg" xmlns:xlink="http://www.w3.org/1999/xlink" version="1.1" viewBox="-10 0 1034 1024">
  <g transform="matrix(1 0 0 -1 0 820)">
   <path fill="currentColor"
d="M602 -108l-1 -31l-4 -30h48q-3 30 -5 61v508q39 -93 66 -139q33 -55 59 -96q54 -78 156 -182q27 24 49 41q-34 12 -86 64q-42 45 -71 79q-24 33 -50 75q-36 60 -52 95q-21 48 -50 124h230q24 0 49 -3q9 0 14 -3v47q-4 0 -8 -1q-13 -3 -55 -4h-251v213q0 13 2 30
q1 18 11 37h-57q3 -9 4 -16q1 -28 2 -51v-213q-261 3 -270 5v-47q9 4 46 5l196 1l-51 -118q-15 -34 -36 -70q-52 -96 -120 -175q-48 -55 -94 -77q30 -15 53 -36l82 98q40 51 46 60q93 141 148 293v-544zM889 598q-12 15 -44 48l-81 82q-15 -18 -33 -32q24 -19 68 -66
q39 -43 58 -70l36 33q-3 3 -4 5zM76 463q-4 -10 -13 -23q42 -18 67 -37q63 -39 87 -58q3 -1 7 -6q9 19 12 23l13 19q-22 15 -85 52q-31 19 -49 30q-12 6 -29 16q-6 -7 -10 -16zM162 -66q25 60 28 62q15 43 68 161l34 81q-18 16 -32 40l-31 -87l-58 -138q-48 -108 -78 -143
l29 -15q1 0 20 -13zM137 690q64 -43 101 -71q30 -24 56 -50q9 15 28 37q-24 21 -68 54l-90 66q-9 -13 -27 -36v0z" />
  </g>

</svg>
