<?xml version="1.0" standalone="no"?>
<!DOCTYPE svg PUBLIC "-//W3C//DTD SVG 1.1//EN" "http://www.w3.org/Graphics/SVG/1.1/DTD/svg11.dtd" >
<svg xmlns="http://www.w3.org/2000/svg" xmlns:xlink="http://www.w3.org/1999/xlink" version="1.1" viewBox="-10 0 1010 1000">
   <path fill="currentColor"
d="M167 20q94 58 166 121l-69 76q-66 -79 -155 -131zM395 42q62 10 145 10h176q74 -1 131 -12q-8 50 -8 125v593q72 0 125 -8v92q-53 -10 -121 -10h-472q-79 1 -133 10v-90q42 9 135 8h32v-597q-1 -85 -10 -121zM760 123h-276v155h276v-155zM99 254q95 32 189 90l-48 81
q-72 -50 -182 -95zM484 350v160h276v-160h-276zM183 490q31 36 79 50q-39 86 -109 335q-25 -24 -81 -58q-6 -3 -9 -5q73 -125 120 -322zM760 582h-276v178h276v-178z" />
</svg>
