<?xml version="1.0" standalone="no"?>
<!DOCTYPE svg PUBLIC "-//W3C//DTD SVG 1.1//EN" "http://www.w3.org/Graphics/SVG/1.1/DTD/svg11.dtd" >
<svg xmlns="http://www.w3.org/2000/svg" xmlns:xlink="http://www.w3.org/1999/xlink" version="1.1" viewBox="-10 0 1034 1024">
  <g transform="matrix(1 0 0 -1 0 820)">
   <path fill="currentColor"
d="M65 454q48 -36 66 -54q27 -22 51 -46q6 -6 13 -16q15 21 30 34q-25 21 -54 47l-81 66q-12 -18 -25 -31zM304 251l-32 34q-9 -30 -20 -57q-12 -30 -32 -71l-89 -179q-13 -24 -24 -39q-9 -12 -22 -25q24 -13 47 -36q6 18 12 32q6 18 25 59l74 159l35 73zM195 711
q-10 7 -22 17q0 -3 -26 -34q57 -39 93 -67q31 -24 56 -52q21 27 28 37q-33 27 -70 55zM865 568q27 0 56 -3l2 -1q1 0 5 -1v46q-15 -3 -22 -4l-397 -1q15 25 30 53q24 49 58 73q-33 10 -58 25q-6 -24 -17 -46q-9 -22 -26 -55q-63 -114 -121 -183q-39 -42 -64 -49
q22 -9 51 -30l63 83l65 93h375zM448 285q-25 -6 -49 -13q-19 -4 -66 -11l12 -46q18 9 56 19q22 7 47 14v-287q0 -45 26 -70q31 -27 148 -28q73 0 151 4q72 3 102 16q51 18 69 94q1 12 5 22l6 20q-28 9 -49 20q-3 -63 -13 -85q-19 -45 -105 -49q-75 -3 -139 -4q-79 0 -115 7
q-36 6 -44 29q-3 19 -4 38v284l144 43v-241q0 -18 -3 -47q0 -1 -2 -16h48q-1 7 -3 16l-2 173v126l163 45q-1 -30 -3 -62l-6 -118q-1 -6 -2 -30q-6 -27 -19 -32q-22 -6 -44 -7q-12 0 -36 4q9 -22 17 -52q48 6 63 11q49 16 55 80q1 33 5 68l7 153q0 19 2 45l-36 -18
q-6 -1 -166 -51v95q0 37 14 68h-57q1 -6 2 -13q1 -31 3 -45v-115l-144 -42v75q0 39 15 67h-58q1 -33 5 -67v-87z" />
  </g>

</svg>
