<?xml version="1.0" standalone="no"?>
<!DOCTYPE svg PUBLIC "-//W3C//DTD SVG 1.1//EN" "http://www.w3.org/Graphics/SVG/1.1/DTD/svg11.dtd" >
<svg xmlns="http://www.w3.org/2000/svg" xmlns:xlink="http://www.w3.org/1999/xlink" version="1.1" viewBox="-10 0 1010 1000">
   <path fill="currentColor"
d="M532 -10q100 6 107 14q0 1 -3 5q-19 32 -19 97v113h177q75 -1 109 -8v87q-52 -7 -113 -8h-139q46 304 313 413q-60 32 -93 83q-188 -128 -254 -393v365q1 123 8 149h-91q7 -24 8 -143v-339q-78 230 -242 377q-43 -44 -90 -64q233 -134 306 -448h-85q-90 1 -137 8v-87
q46 8 137 8h111v-135q-1 -57 -10 -94zM173 16q77 42 160 113l-65 74q-71 -72 -157 -119zM726 28q53 45 105 117l-77 48q-34 -68 -97 -121zM83 250q111 53 171 100l-54 75q-83 -69 -170 -103zM175 475q44 42 83 53q-62 185 -103 359q-51 -34 -97 -53q78 -149 117 -359z" />
</svg>
