<?xml version="1.0" standalone="no"?>
<!DOCTYPE svg PUBLIC "-//W3C//DTD SVG 1.1//EN" "http://www.w3.org/Graphics/SVG/1.1/DTD/svg11.dtd" >
<svg xmlns="http://www.w3.org/2000/svg" xmlns:xlink="http://www.w3.org/1999/xlink" version="1.1" viewBox="-10 0 1010 1000">
   <path fill="currentColor"
d="M603 2q40 67 64 135l-80 30h209q40 0 109 -6q-6 33 -6 91q0 77 10 106h-101q7 -42 7 -120h-412q0 90 8 122h-98q8 -37 10 -169v-8v-24q44 8 92 8h162q-23 -77 -61 -139zM97 278q69 33 177 107l-60 74q-58 -62 -166 -107zM429 304q104 2 113 12q0 3 -7 18q-17 35 -17 51
v177q148 -85 236 -175q54 36 85 74q-2 7 -15 10q-20 5 -38 16q-148 90 -268 152v105q-3 48 19 56q18 13 106 12q101 -1 123 -14q31 -22 34 -125q44 43 101 56q-25 99 -52 131q-23 35 -141 33h-103q-118 1 -143 -28q-15 -14 -20 -42q-5 -22 -4 -92v-316q0 -60 -7 -100
q-2 -8 -2 -11zM200 492q40 38 88 56q-57 149 -119 347q-35 -24 -98 -57q89 -125 129 -346zM313 179l-61 63q-66 -80 -143 -132l68 -58q91 76 136 127z" />
</svg>
