<?xml version="1.0" standalone="no"?>
<!DOCTYPE svg PUBLIC "-//W3C//DTD SVG 1.1//EN" "http://www.w3.org/Graphics/SVG/1.1/DTD/svg11.dtd" >
<svg xmlns="http://www.w3.org/2000/svg" xmlns:xlink="http://www.w3.org/1999/xlink" version="1.1" viewBox="-10 0 1010 1000">
   <path fill="currentColor"
d="M169 4q82 48 158 117l-59 66q-68 -67 -163 -123zM365 34q37 8 121 8h304q66 1 115 -10q-9 40 -23 154q-23 180 -39 199q-31 37 -164 56q2 -48 -38 -101q34 8 78 2q40 -5 53 -20q18 -47 38 -212h-187q-21 132 -65 206q-48 74 -193 149q-27 -47 -77 -74q127 -29 186 -97
q56 -65 72 -184h-58q-57 0 -115 10q-6 1 -8 1v-87zM91 223q76 32 183 107l-54 77q-96 -77 -174 -109zM198 469q28 32 74 51q-3 8 -12 33q-68 189 -101 330q-42 -34 -101 -49q74 -131 140 -365zM383 477q47 8 129 8h248q60 1 115 -8q-10 36 -10 109v192q0 60 8 109h-99
q8 -26 8 -75h-312q-1 57 6 75h-101q15 -39 14 -113v-198q1 -58 -6 -99zM468 556v184h314v-184h-314z" />
</svg>
