<?xml version="1.0" standalone="no"?>
<!DOCTYPE svg PUBLIC "-//W3C//DTD SVG 1.1//EN" "http://www.w3.org/Graphics/SVG/1.1/DTD/svg11.dtd" >
<svg xmlns="http://www.w3.org/2000/svg" xmlns:xlink="http://www.w3.org/1999/xlink" version="1.1" viewBox="-10 0 1034 1024">
  <g transform="matrix(1 0 0 -1 0 820)">
   <path fill="currentColor"
d="M408 -97l-1 -31q-1 -13 -4 -29h49q0 4 -3 9q-3 13 -3 64h440q-1 -27 -3 -54q0 -4 -2 -11h48q-3 30 -5 60l1 571q0 16 4 45q-27 -1 -56 -5h-204v160q0 10 2 29q1 21 11 38h-56q1 -33 5 -67v-160l-188 1q-3 0 -40 4q1 -28 5 -58v-566zM446 257v229h185v-229h-185zM446 -48
v269h185v-269h-185zM669 257v229h217v-229h-217zM669 -48v269h217v-269h-217zM80 431q-4 -9 -13 -22q43 -21 91 -52q46 -30 70 -51q12 18 25 39l-45 30l-118 71q-6 -7 -10 -15zM114 -105q10 -6 21 -13q6 -4 25 -22l25 55l93 212q21 48 35 79q-16 18 -31 42q-15 -45 -31 -83
l-61 -135q-21 -45 -41 -83q-21 -39 -35 -52zM169 646q25 -16 52 -35q36 -22 77 -60q9 12 14 20l13 18q-27 21 -68 49q-42 28 -88 57q-3 -4 -11 -15q-7 -6 -14 -21q12 -6 25 -13v0z" />
  </g>

</svg>
