<?xml version="1.0" standalone="no"?>
<!DOCTYPE svg PUBLIC "-//W3C//DTD SVG 1.1//EN" "http://www.w3.org/Graphics/SVG/1.1/DTD/svg11.dtd" >
<svg xmlns="http://www.w3.org/2000/svg" xmlns:xlink="http://www.w3.org/1999/xlink" version="1.1" viewBox="-10 0 1034 1024">
  <g transform="matrix(1 0 0 -1 0 820)">
   <path fill="currentColor"
d="M421 530q-27 0 -54 2q-6 3 -12 4v-48q15 3 55 7h219l-6 -215l-147 1q-15 3 -47 4q1 -31 5 -64l-1 -355q-1 -15 -3 -32q0 -3 -1 -5h48q-6 39 -5 76v18h372q-1 -33 -3 -68q0 -12 -3 -23h49q-3 30 -5 61l1 349l4 43q-18 -1 -32 -3q-18 -1 -28 -2h-166l7 215l264 -1l36 -6v48
q-3 0 -8 -1q-6 -3 -20 -4l-271 -1l5 162q1 48 15 89q-28 0 -60 4q3 -51 4 -101q-1 -27 -2 -154h-210zM844 -42h-372v286h372v-286zM226 324q6 12 11 17q3 3 7 12q-78 51 -160 101q-9 -15 -17 -30q3 3 -6 -9q7 -4 15 -9q76 -39 141 -96q4 7 9 14zM178 -90q3 13 10 23
q21 45 55 125l66 140q3 9 24 50q-25 25 -34 37q-15 -42 -39 -97q-25 -61 -64 -140q-54 -114 -88 -149q7 -3 13 -7q6 -3 10 -6q12 -6 27 -20q7 15 20 44zM166 684q64 -46 100 -74q27 -21 55 -51q9 15 24 32q4 4 7 8q-31 25 -68 53l-92 68q-12 -18 -26 -36v0z" />
  </g>

</svg>
