<?xml version="1.0" standalone="no"?>
<!DOCTYPE svg PUBLIC "-//W3C//DTD SVG 1.1//EN" "http://www.w3.org/Graphics/SVG/1.1/DTD/svg11.dtd" >
<svg xmlns="http://www.w3.org/2000/svg" xmlns:xlink="http://www.w3.org/1999/xlink" version="1.1" viewBox="-10 0 1034 1024">
  <g transform="matrix(1 0 0 -1 0 820)">
   <path fill="currentColor"
d="M694 203l-3 -362q0 -6 -2 -12h50q-6 42 -7 61v313h187q-3 -93 -8 -125q-3 -30 -14 -41q-16 -18 -68 -18q-18 0 -42 3q1 -4 4 -9q7 -18 13 -43q57 4 95 19q27 10 39 33q12 24 15 78l6 95q3 19 5 49q-55 -4 -80 -5h-152v156q126 0 140 -2q15 0 32 -3q-6 54 -6 79
q0 111 2 118l4 38q-27 -1 -55 -5h-116v96q0 13 2 30q3 22 12 38h-58q0 -3 5 -65v-99h-104v86q0 12 2 28q1 22 11 38h-56q1 -33 5 -66v-86l-165 4q-1 1 -3 1v-47q6 3 12 3q24 3 55 3h101v-153l-139 1q-15 3 -46 4q1 -12 2 -31q0 -24 -11 -117q-6 -51 -16 -90q45 4 94 5h103
q-15 -75 -37 -127q-40 -82 -109 -145q-54 -45 -91 -58q34 -21 44 -29q4 -4 8 -7q49 45 79 75q24 27 48 57q40 55 63 106q21 48 35 128h115zM395 239l16 156h140l-10 -156h-146zM581 239l9 156h104v-156h-113zM590 431v153h104v-153h-104zM732 431v153h129v-153h-129zM58 435
q24 -12 36 -20q10 -4 21 -13q48 -27 93 -64q9 21 23 44q-30 21 -69 43q-75 48 -79 50q-3 -4 -25 -40zM176 -108l31 99l32 102l53 155q-19 12 -38 30l-46 -155l-62 -171q-15 -31 -26 -50q30 -16 49 -33q3 12 7 23zM154 674q57 -39 90 -64q19 -13 50 -43q9 18 28 41
q-21 18 -59 46l-81 56z" />
  </g>

</svg>
