<?xml version="1.0" standalone="no"?>
<!DOCTYPE svg PUBLIC "-//W3C//DTD SVG 1.1//EN" "http://www.w3.org/Graphics/SVG/1.1/DTD/svg11.dtd" >
<svg xmlns="http://www.w3.org/2000/svg" xmlns:xlink="http://www.w3.org/1999/xlink" version="1.1" viewBox="-10 0 1010 1000">
   <path fill="currentColor"
d="M643 -8q3 0 10 1q63 5 69 9q15 4 6 21q-10 19 -10 35v85h72q65 1 103 -8q-6 39 -6 102v65q-1 61 8 99q-40 -7 -88 -6h-11h-78v131h119l78 2q-4 181 -32 236q-25 43 -125 42q1 -46 -32 -95q74 21 91 -2q18 -29 16 -113h-115v198q0 62 10 109h-89q9 -28 8 -105v-202h-105
q-19 90 -68 162q-56 79 -141 139q-34 -40 -81 -57q93 -45 143 -102q54 -64 71 -144h-59q-76 0 -117 8q18 -90 18 -276h168v-115q-84 -1 -145 8v-84q53 8 143 8q0 -74 -1 -95q-1 -29 -5 -52q41 0 86 4q11 1 1 21q-9 19 -9 29v93h103q0 -105 -6 -151zM173 24q63 51 137 123
l-66 60q-68 -80 -135 -125zM815 211h-97v115h97v-115zM647 211h-99v115h99v-115zM117 256q84 44 153 106l-68 67q-80 -82 -148 -111zM476 395h-95l-8 131h103v-131zM647 395h-99v131h99v-131zM183 479q31 31 69 47q4 1 6 2q-91 286 -89 300q-2 6 -2 21q2 29 -18 13
q-41 -32 -80 -52q66 -103 114 -331z" />
</svg>
