<?xml version="1.0" standalone="no"?>
<!DOCTYPE svg PUBLIC "-//W3C//DTD SVG 1.1//EN" "http://www.w3.org/Graphics/SVG/1.1/DTD/svg11.dtd" >
<svg xmlns="http://www.w3.org/2000/svg" xmlns:xlink="http://www.w3.org/1999/xlink" version="1.1" viewBox="-10 0 1010 1000">
   <path fill="currentColor"
d="M159 24q75 34 164 113l-59 68q-78 -72 -165 -111zM506 28q74 43 161 119l-60 62q-70 -70 -159 -119zM744 46q56 8 105 36q-1 7 -10 16q-15 14 -20 31q-31 151 -69 260q-75 204 -208 312q-1 62 12 75q9 15 59 14h72q74 10 83 -131q46 43 91 52q-13 78 -47 117
q-25 35 -104 34h-113q-89 0 -110 -20q-24 -17 -23 -88q-85 61 -150 92q-11 -23 -43 -50q-15 -13 -25 -22q133 -44 218 -105v-367v-15q-2 -37 -2 -66q57 1 100 14q18 6 1 27q-19 25 -19 42v302q104 -141 135 -244q5 -18 13 -48q34 -114 54 -268zM83 250q81 27 177 88l-56 73
q-66 -50 -162 -87zM321 310q16 2 41 5q32 4 43 7l-52 286q-5 -1 -14 -3q-41 -9 -75 -9q51 -166 57 -286zM859 328q56 118 95 254l-83 33q-48 -175 -93 -255zM163 459q30 25 79 47q-40 129 -81 365q-56 -46 -92 -61q67 -173 94 -351z" />
</svg>
