<?xml version="1.0" standalone="no"?>
<!DOCTYPE svg PUBLIC "-//W3C//DTD SVG 1.1//EN" "http://www.w3.org/Graphics/SVG/1.1/DTD/svg11.dtd" >
<svg xmlns="http://www.w3.org/2000/svg" xmlns:xlink="http://www.w3.org/1999/xlink" version="1.1" viewBox="-10 0 1034 1024">
  <g transform="matrix(1 0 0 -1 0 820)">
   <path fill="currentColor"
d="M55 455q87 -57 145 -116q12 19 27 34q-33 28 -129 103q-9 7 -15 13q-25 -27 -28 -34zM226 60q18 36 37 71l39 81q-21 28 -31 53q-24 -82 -74 -179q-39 -75 -66 -121q-24 -39 -45 -61q6 0 31 -18q7 -6 17 -14q10 25 23 51q12 21 23 44zM291 581q7 15 22 30
q-13 12 -127 102q-9 6 -17 12q-4 -6 -9 -12q0 -1 -3 -4q-7 -12 -13 -17q30 -19 57 -41l87 -73zM358 699q1 -21 2 -33q3 -24 3 -33v-718q0 -28 -3 -53q0 -6 -2 -13h48q-4 24 -5 66v743h155q-18 -57 -46 -126q-27 -69 -55 -123q30 -24 46 -41q24 -30 47 -76q21 -45 21 -84
q0 -54 -33 -82q-30 -24 -75 -24q-15 3 -27 3q7 -18 17 -50q30 3 51 9q51 15 80 51q27 43 27 89q0 66 -43 132l-20 29l-42 53q4 10 9 24l63 157l21 51q9 19 19 49q-69 -6 -86 -6q-106 0 -134 2q-7 3 -32 4h-6zM903 500l-5 -77l-11 -239l-11 -196q-3 -48 -17 -60
q-15 -16 -69 -17q-19 0 -54 4q18 -30 25 -53q30 1 64 8q58 15 74 36q12 21 16 93l9 181l7 168l6 95l4 46l7 52q-36 -1 -73 -5h-115v149q0 15 3 31q3 19 19 38h-65q3 -15 4 -36l1 -182l-117 3q-3 1 -9 2v-47q4 3 52 6h74l-2 -111q-1 -45 -5 -84q-6 -69 -18 -130
q-27 -120 -115 -225q-39 -40 -80 -61q10 -4 20 -10q19 -10 32 -21q60 58 116 149q24 39 41 81q18 45 26 95q16 94 23 317h143z" />
  </g>

</svg>
