<?xml version="1.0" standalone="no"?>
<!DOCTYPE svg PUBLIC "-//W3C//DTD SVG 1.1//EN" "http://www.w3.org/Graphics/SVG/1.1/DTD/svg11.dtd" >
<svg xmlns="http://www.w3.org/2000/svg" xmlns:xlink="http://www.w3.org/1999/xlink" version="1.1" viewBox="-10 0 1010 1000">
   <path fill="currentColor"
d="M659 0q71 4 105 8q9 1 3 13q-14 27 -15 57q-1 15 -4 45q-4 47 -4 74q117 1 169 -10l-4 36l-6 101q-2 60 -5 165q-6 306 -29 331q-11 37 -169 57q-2 -64 -33 -107q81 13 102 2q27 -10 33 -55q14 -105 23 -449h-83q-3 232 -55 365q-53 125 -187 262q-31 -48 -87 -69
q99 -46 174 -165q79 -134 78 -391q-66 0 -115 8v-87q39 8 117 8v-119q0 -7 -3 -34q-3 -28 -5 -46zM155 18q101 75 143 113l-62 66q-78 -77 -145 -113zM302 54q58 9 131 8q110 -1 148 -8q-70 218 -99 296q94 120 95 188q-4 108 -156 141q2 -42 -27 -89q-3 -5 -5 -8
q101 26 107 -54q-6 -74 -85 -163q9 -29 28 -86q32 -102 47 -150h-105v659q-1 69 8 99h-87q8 -34 8 -101v-629q1 -63 -8 -103zM79 235q74 34 183 103l-50 81q-98 -82 -182 -115zM177 469q36 25 75 49q-69 197 -109 345q-37 -30 -89 -61q95 -158 123 -333z" />
</svg>
