<?xml version="1.0" standalone="no"?>
<!DOCTYPE svg PUBLIC "-//W3C//DTD SVG 1.1//EN" "http://www.w3.org/Graphics/SVG/1.1/DTD/svg11.dtd" >
<svg xmlns="http://www.w3.org/2000/svg" xmlns:xlink="http://www.w3.org/1999/xlink" version="1.1" viewBox="-10 0 1010 1000">
   <path fill="currentColor"
d="M827 44q0 2 -5 6q-18 14 -28 50q-15 62 -64 313q-52 264 -67 335l174 -39q-34 -151 -73 -230l81 -16q62 180 107 361l-93 24q-1 -7 -3 -27q-5 -32 -7 -53q-150 42 -244 84q-12 -30 -42 -86q42 -26 62 -139q84 -465 83 -615q80 9 96 14q23 6 23 18zM141 16q67 48 139 107
l-58 70q-51 -53 -137 -113zM312 52q28 6 99 6h83q42 0 57 -1q18 -1 28 -3q-8 33 -10 99v89q1 55 8 92q-12 -1 -34 -2h-65h-95v139h85q47 -1 88 -8q-4 35 -11 104q-17 196 -35 229q-19 56 -185 71q2 -49 -31 -105q48 13 88 12q37 -2 47 -18q29 -52 35 -222h-73q-7 1 -31 2
q-43 1 -54 4q5 -26 6 -95v-95q-1 -21 -3 -51q0 -18 -1 -35q18 4 87 4h103v-147h-87q-77 0 -99 6v-75zM95 264q90 48 157 98l-56 75q-31 -38 -146 -101zM161 492l81 42q-15 51 -54 197q-36 134 -43 156l-82 -67q63 -96 98 -328z" />
</svg>
