<?xml version="1.0" standalone="no"?>
<!DOCTYPE svg PUBLIC "-//W3C//DTD SVG 1.1//EN" "http://www.w3.org/Graphics/SVG/1.1/DTD/svg11.dtd" >
<svg xmlns="http://www.w3.org/2000/svg" xmlns:xlink="http://www.w3.org/1999/xlink" version="1.1" viewBox="-10 0 1010 1000">
   <path fill="currentColor"
d="M821 14q35 58 42 73q10 21 6 28q-3 6 -18 4q-43 -8 -99 6q-181 37 -363 60q-18 -52 -44 -78q-7 -7 -6 -11q271 7 482 -82zM171 36q72 41 154 115l-61 66q-4 -4 -12 -11q-57 -56 -139 -106zM623 191q28 46 48 121l-86 22q-17 -74 -45 -115zM95 250q40 16 165 98l-50 77
l-12 -9q-50 -44 -150 -96zM889 350v101q-59 6 -127 61q-30 24 -97 83q-153 134 -187 147q91 52 163 54q169 2 317 -22q-24 43 -37 103q-145 0 -195 -2q-64 -2 -105 -8q-55 -7 -123 -45q-43 -24 -61 -22q-37 9 -102 81q-24 -41 -63 -73q28 -34 172 -130q6 -3 8 -5
q47 -30 183 -151q86 -76 109 -93h-258q-108 0 -155 8v-87q58 8 155 8h256q104 0 147 -8zM202 471l78 59q-56 219 -121 347l-72 -65q77 -138 115 -341z" />
</svg>
