<?xml version="1.0" standalone="no"?>
<!DOCTYPE svg PUBLIC "-//W3C//DTD SVG 1.1//EN" "http://www.w3.org/Graphics/SVG/1.1/DTD/svg11.dtd" >
<svg xmlns="http://www.w3.org/2000/svg" xmlns:xlink="http://www.w3.org/1999/xlink" version="1.1" viewBox="-10 0 1034 1024">
  <g transform="matrix(1 0 0 -1 0 820)">
   <path fill="currentColor"
d="M600 310l-269 3q-3 1 -8 2v-47q9 4 47 5l217 1q-15 -39 -36 -79q-21 -43 -56 -102q-45 -78 -77 -122q-28 -36 -51 -50l22 -40q30 7 75 13l305 22q9 1 19 1q25 3 52 5q22 -31 34 -59q19 16 43 29l-34 46q-81 111 -127 168l-37 50q-15 -15 -35 -26l72 -90q36 -48 61 -86
l-48 -4l-149 -8l-116 -7q-27 -3 -65 -4q12 21 25 40q49 81 66 112q45 78 80 132q12 19 39 35q-21 12 -38 24h278q22 0 49 -3q9 0 14 -3v47l-28 -4l-286 -1v198l227 -1q3 0 29 -5v47q-13 -1 -27 -4l-229 -1v150q0 13 2 29q1 19 11 38h-56q3 -9 3 -16q1 -28 2 -51v-150l-221 4
q-1 1 -3 1v-47q9 4 41 5l183 1v-198zM85 440q-3 -3 -6 -8q-1 -3 -8 -12q100 -58 151 -109q7 16 21 31q3 3 6 7q-21 16 -62 45l-93 62q-4 -7 -9 -16zM166 -115q9 21 20 42q4 9 18 35q3 3 12 24l114 229q-18 16 -32 34q-33 -82 -88 -188q-30 -60 -54 -99q-18 -31 -40 -55
q24 -12 34 -20q1 0 12 -9q1 4 4 7zM164 661q15 -10 88 -69q16 -13 51 -51q12 18 30 36l-142 118q-18 -18 -25 -31q-1 0 -2 -3v0z" />
  </g>

</svg>
