<?xml version="1.0" standalone="no"?>
<!DOCTYPE svg PUBLIC "-//W3C//DTD SVG 1.1//EN" "http://www.w3.org/Graphics/SVG/1.1/DTD/svg11.dtd" >
<svg xmlns="http://www.w3.org/2000/svg" xmlns:xlink="http://www.w3.org/1999/xlink" version="1.1" viewBox="-10 0 1010 1000">
   <path fill="currentColor"
d="M571 -12q9 2 25 6q79 17 75 24q0 2 -6 7q-11 8 -10 17q67 258 321 327q-54 41 -71 82q-228 -120 -298 -341q-103 216 -258 363q-28 -37 -77 -56q195 -141 299 -429zM222 38q57 39 167 137l-68 63q-57 -77 -160 -138zM111 238q111 76 169 127l-64 68q-76 -82 -162 -127z
M613 280q34 63 64 135l-80 24q-14 -64 -59 -133zM228 471q38 42 72 53q-68 146 -121 351q-30 -31 -78 -79q66 -101 127 -325zM853 481q-33 66 -170 260q-14 20 -20 29q3 2 10 7q46 31 89 67l-70 65q-118 -120 -285 -222l63 -56q50 34 104 73q26 18 33 23q78 -102 111 -175
h-194q-86 0 -137 8v-81q44 4 131 4h230q78 0 105 -2z" />
</svg>
