<?xml version="1.0" standalone="no"?>
<!DOCTYPE svg PUBLIC "-//W3C//DTD SVG 1.1//EN" "http://www.w3.org/Graphics/SVG/1.1/DTD/svg11.dtd" >
<svg xmlns="http://www.w3.org/2000/svg" xmlns:xlink="http://www.w3.org/1999/xlink" version="1.1" viewBox="-10 0 1034 1024">
  <g transform="matrix(1 0 0 -1 0 820)">
   <path fill="currentColor"
d="M824 436q28 -1 59 -5q-4 48 -5 91l1 150q0 16 4 41q-30 -1 -59 -5l-361 1q-19 3 -45 4q1 -31 5 -65v-322q0 -126 -25 -211q-30 -102 -92 -170q-21 -24 -58 -43q27 -15 52 -32q33 36 75 102q42 69 68 166q12 55 16 112q3 33 3 77l1 109h361zM463 672h377v-200h-377v200z
M631 315q0 12 2 29q1 21 11 38h-56l5 -64l1 -371q3 -28 25 -42q30 -19 117 -20q85 0 136 6q57 9 79 58q6 15 20 66q-30 18 -48 34q-1 -37 -3 -76q-4 -15 -13 -26q-21 -22 -78 -25l-88 -1q-61 0 -81 7q-21 9 -25 23q-3 12 -4 34v147l113 53q33 15 60 30q78 42 91 46
q15 6 49 14q-21 19 -42 45q-57 -40 -108 -68q-58 -30 -92 -47q-28 -13 -71 -29v139zM73 430q57 -36 75 -52q27 -21 70 -60l2 -2q9 21 16 27l10 13q-120 91 -158 118q-4 3 -9 5l-25 -36zM108 -75q12 -9 27 -18q24 55 31 63q12 28 31 62q4 12 13 24l32 64q61 120 75 148
q-15 15 -30 41q-15 -39 -41 -93q-28 -60 -68 -136q-31 -58 -55 -96q-21 -33 -35 -47q9 -6 20 -12zM147 695q45 -30 88 -64q40 -34 70 -67q12 19 32 38q-45 42 -160 128q-10 -13 -30 -35v0z" />
  </g>

</svg>
