<?xml version="1.0" standalone="no"?>
<!DOCTYPE svg PUBLIC "-//W3C//DTD SVG 1.1//EN" "http://www.w3.org/Graphics/SVG/1.1/DTD/svg11.dtd" >
<svg xmlns="http://www.w3.org/2000/svg" xmlns:xlink="http://www.w3.org/1999/xlink" version="1.1" viewBox="-10 0 1034 1024">
  <g transform="matrix(1 0 0 -1 0 820)">
   <path fill="currentColor"
d="M681 290l241 -1l37 -6v48q-4 0 -8 -1q-6 -3 -20 -4l-562 3l-6 2v-48q3 1 40 6l240 1v-356q0 -30 -17 -39q-19 -6 -50 -7q-18 0 -55 2q12 -25 20 -51q46 4 78 12q36 9 51 29q10 12 11 40v370zM385 501q-3 -57 -5 -60h48q-3 21 -5 43v97h471q-3 -130 -5 -135h48
q-3 24 -5 47q0 79 2 92q0 18 3 37q-49 -4 -58 -5l-454 1q-15 3 -45 4q4 -99 5 -105v-16zM54 459q19 -12 58 -34q58 -34 96 -68q12 24 25 42q-25 19 -71 47l-86 52q-1 -3 -22 -39zM168 -76q151 322 154 325q-19 24 -24 28q-1 1 -6 8q-18 -48 -37 -92q-21 -46 -54 -112
q-66 -133 -99 -167q10 -6 21 -13q12 -7 25 -20q15 36 20 43zM155 716q90 -66 113 -85l38 -37q10 18 28 38q-57 48 -153 120q-6 -12 -26 -36zM570 745l84 -71q24 -21 48 -50q12 18 30 40q-24 22 -59 53l-74 61q-12 -18 -29 -33v0z" />
  </g>

</svg>
