<?xml version="1.0" standalone="no"?>
<!DOCTYPE svg PUBLIC "-//W3C//DTD SVG 1.1//EN" "http://www.w3.org/Graphics/SVG/1.1/DTD/svg11.dtd" >
<svg xmlns="http://www.w3.org/2000/svg" xmlns:xlink="http://www.w3.org/1999/xlink" version="1.1" viewBox="-10 0 1010 1000">
   <path fill="currentColor"
d="M577 -4q59 0 72 2q38 3 24 30q-8 14 -8 22v85h141q57 0 111 -6q-10 49 -46 179l-91 -14l35 -91h-150v176q145 1 182 -10q-79 250 -147 338q87 59 240 83q-34 39 -49 95q-129 -41 -242 -121q-71 67 -203 137q-27 -36 -73 -63q144 -53 222 -123q-74 -93 -123 -213l91 -29
q13 88 82 190q64 -84 95 -218h-298q-3 246 -138 438q-38 -31 -84 -45q71 -70 111 -177q35 -105 36 -254v-161q0 -80 -4 -117q69 6 125 6h95q0 -95 -6 -139zM157 22q82 49 162 113l-61 62q-81 -76 -149 -109zM585 203h-141v176h141v-176zM97 258q105 36 177 80l-48 73
q-89 -54 -168 -79zM190 477l78 45q-63 213 -78 284q-14 58 -17 54q-16 3 -88 -52q61 -137 105 -331z" />
</svg>
