<?xml version="1.0" standalone="no"?>
<!DOCTYPE svg PUBLIC "-//W3C//DTD SVG 1.1//EN" "http://www.w3.org/Graphics/SVG/1.1/DTD/svg11.dtd" >
<svg xmlns="http://www.w3.org/2000/svg" xmlns:xlink="http://www.w3.org/1999/xlink" version="1.1" viewBox="-10 0 1010 1000">
   <path fill="currentColor"
d="M472 -13q46 3 105 15q-27 63 -33 90h228q25 0 96 -9q15 -2 23 -3v85q-68 -8 -115 -8h-252q-3 12 -14 46q-5 14 -8 22h224q45 0 115 -8v81q-14 -1 -39 -3q-55 -5 -78 -5h-246q-13 33 -34 70h362q53 0 117 -8v79q-32 -4 -58 -5q-23 -1 -59 -1h-133q119 112 285 147
q-36 37 -57 85q-173 -69 -296 -232h-196q-106 124 -292 256q-33 -37 -85 -62q150 -52 285 -196h-142q-48 0 -106 10v-83q64 8 106 8h184q26 -36 40 -70h-127q-38 0 -115 8v-83q60 8 115 8h151q15 -42 21 -66h-206q-67 0 -123 8v-83q63 10 119 10h226q5 -33 12 -103zM462 451
q80 2 96 10q-13 28 -14 73v101q0 3 21 10q14 5 24 8q48 -36 90 -105q84 48 79 52q-40 10 -111 79q153 59 230 93q-37 45 -58 80q-113 -81 -275 -145v121q10 74 -145 79q-1 -47 -38 -87q110 20 109 -46v-236q-1 -49 -8 -87zM339 534q42 33 76 74l-58 45q-29 -43 -73 -77z
M440 631q-7 45 2 84q-93 39 -205 94q-61 29 -72 31q-11 -45 -44 -84q179 -44 319 -125z" />
</svg>
