<?xml version="1.0" standalone="no"?>
<!DOCTYPE svg PUBLIC "-//W3C//DTD SVG 1.1//EN" "http://www.w3.org/Graphics/SVG/1.1/DTD/svg11.dtd" >
<svg xmlns="http://www.w3.org/2000/svg" xmlns:xlink="http://www.w3.org/1999/xlink" version="1.1" viewBox="-10 0 1034 1024">
  <g transform="matrix(1 0 0 -1 0 820)">
   <path fill="currentColor"
d="M82 486q-21 -33 -25 -37q93 -51 146 -98q12 24 25 40l-45 32l-70 44zM274 304q-18 -60 -33 -100q-12 -39 -33 -88q-28 -70 -52 -118t-41 -70q24 -16 44 -40q10 31 62 162l81 195q-22 36 -28 59zM136 695q55 -28 147 -107l27 36l-49 37q-15 12 -102 70q-9 -16 -23 -36z
M427 254h242l23 -93q12 -42 24 -67q51 -121 140 -192q36 -27 53 -27q15 0 29 20q9 15 18 49q13 60 16 71q-28 12 -44 24q0 -24 -4 -46l-9 -46q-4 -21 -18 -22q-15 0 -40 27l-44 49q-18 18 -46 71q-18 39 -33 79q-12 34 -27 103l190 -1q18 0 33 -5v47q-21 -4 -66 -5h-163
q-9 28 -17 170l140 -1l48 -4q-4 60 -5 89q0 126 2 156q0 12 2 23q-34 -3 -68 -7l-369 1q-15 3 -49 4q1 -33 5 -68v-690q0 -45 -25 -60q21 -16 45 -48q3 4 64 57q129 111 142 118q-6 27 -7 45q-1 9 -1 14q-30 -34 -53 -56q-66 -55 -128 -100v321zM427 496v184h402v-184h-402z
M661 290h-234v170h218l12 -134q0 -15 4 -36v0z" />
  </g>

</svg>
