<?xml version="1.0" standalone="no"?>
<!DOCTYPE svg PUBLIC "-//W3C//DTD SVG 1.1//EN" "http://www.w3.org/Graphics/SVG/1.1/DTD/svg11.dtd" >
<svg xmlns="http://www.w3.org/2000/svg" xmlns:xlink="http://www.w3.org/1999/xlink" version="1.1" viewBox="-10 0 1010 1000">
   <path fill="currentColor"
d="M625 0q28 72 42 133l-86 16q-17 -76 -47 -125zM149 48q84 43 166 99l-57 82q-63 -62 -167 -112zM915 149v91q-53 -8 -185 -9h-194q13 6 38 14q48 15 41 25q-1 3 -5 6q-14 10 -33 36q-71 95 -129 161l215 -14q60 -83 71 -129q116 49 109 53q0 6 -12 11q-26 10 -41 31
q-198 243 -344 343l314 -31q-32 -58 -62 -100l78 -33q63 95 137 248l-94 39q-13 -54 -33 -87q-335 31 -449 56q-9 -53 -33 -98q97 -4 315 -246q-200 25 -264 44q-6 -42 -32 -83q121 -30 191 -246h-30q-82 1 -157 6v-86q95 7 155 8h244q134 0 189 -10zM103 274q102 49 179 95
l-52 80q-56 -48 -180 -101zM185 494l85 46q-54 172 -93 355l-98 -55q76 -135 106 -346z" />
</svg>
