<?xml version="1.0" standalone="no"?>
<!DOCTYPE svg PUBLIC "-//W3C//DTD SVG 1.1//EN" "http://www.w3.org/Graphics/SVG/1.1/DTD/svg11.dtd" >
<svg xmlns="http://www.w3.org/2000/svg" xmlns:xlink="http://www.w3.org/1999/xlink" version="1.1" viewBox="-10 0 1010 1000">
   <path fill="currentColor"
d="M177 10q109 82 152 123l-69 72q-57 -73 -147 -129zM857 36q-4 48 -4 91v94q1 58 6 93q-30 -4 -93 -4h-91q0 39 6 119q2 20 2 28h111q96 0 129 -8v83q-42 -8 -127 -8h-106q46 209 151 238q24 -1 42 -111q30 47 79 76q-39 138 -95 144q-191 -39 -254 -347h-175v211
q80 -47 141 -90q-2 57 16 92q-56 24 -242 150q-12 -37 -41 -85q30 -19 38 -63q9 -45 9 -173v-389q-3 -115 -8 -141q33 3 133 6h252q64 0 121 -6zM438 110v132h336v-132h-336zM93 235q89 43 167 101l-60 79q-59 -54 -166 -107zM438 310v147h167q-3 -32 -7 -124q-1 -16 -1 -23
h-159zM198 469l82 63q-52 118 -135 347l-83 -83q104 -144 136 -327z" />
</svg>
