<?xml version="1.0" standalone="no"?>
<!DOCTYPE svg PUBLIC "-//W3C//DTD SVG 1.1//EN" "http://www.w3.org/Graphics/SVG/1.1/DTD/svg11.dtd" >
<svg xmlns="http://www.w3.org/2000/svg" xmlns:xlink="http://www.w3.org/1999/xlink" version="1.1" viewBox="-10 0 1034 1024">
  <g transform="matrix(1 0 0 -1 0 820)">
   <path fill="currentColor"
d="M366 373q-36 0 -53 2q-6 1 -12 3v-47q24 6 48 6h212q-48 -202 -182 -312q-51 -39 -95 -53q28 -21 48 -43q21 16 52 45q33 28 63 59q81 82 121 195q10 27 18 54q9 31 26 96q-30 -1 -60 -5h-186zM671 526q1 28 5 58q-31 -1 -63 -5q-204 0 -221 3q-4 1 -9 2v-47q9 4 46 5
l204 1v-610q0 -25 -22 -32q-16 -3 -44 -3q-25 0 -57 6q10 -33 16 -58q66 6 84 10q37 7 53 26q7 12 8 43v466q63 -172 118 -263q63 -108 152 -197q15 16 22 22q6 6 24 19q-25 12 -50 33q-42 39 -74 86q-30 39 -66 109q-37 70 -56 121l40 32q13 13 29 27l77 63q21 18 49 26
q-15 16 -32 40q-3 3 -7 10q-39 -42 -87 -87l-46 -41q-21 -18 -40 -31l-21 54q-12 30 -23 60q-3 13 -9 27v25zM736 676l-197 109q-3 -3 -4 -7q-3 -3 -6 -8q-6 -10 -16 -25q175 -90 231 -133q6 18 9 19q3 9 16 27zM228 363q3 6 6 10q-27 19 -71 48l-93 60q-4 -7 -10 -17
q-3 -6 -6 -11q0 -3 -7 -12q99 -54 163 -110q6 13 15 28q1 3 3 4zM111 -101q3 -1 5 -3q12 -6 23 -15q3 15 36 101q93 249 95 252q-16 15 -33 37q-39 -123 -77 -217q-45 -111 -70 -143zM143 694q9 -4 28 -17q85 -60 98 -72l38 -34q12 19 31 38q-30 24 -76 58l-91 64
q-9 -9 -28 -37z" />
  </g>

</svg>
