<?xml version="1.0" standalone="no"?>
<!DOCTYPE svg PUBLIC "-//W3C//DTD SVG 1.1//EN" "http://www.w3.org/Graphics/SVG/1.1/DTD/svg11.dtd" >
<svg xmlns="http://www.w3.org/2000/svg" xmlns:xlink="http://www.w3.org/1999/xlink" version="1.1" viewBox="-10 0 1010 1000">
   <path fill="currentColor"
d="M490 -6q63 116 93 187l-93 32q-30 -104 -87 -189zM716 -6q108 30 109 50q-2 3 -9 5q-17 5 -24 19q-3 6 -12 22q-37 64 -82 154h72q93 0 125 -4q-9 99 0 169h-87q8 -15 7 -73v-18h-619q0 77 4 105h-83q9 -77 0 -181q55 4 135 4h363q44 -80 101 -252zM246 32q52 60 121 157
l-79 48q-60 -110 -121 -157zM470 342q100 0 101 8q0 2 -3 7q-7 11 -6 22q8 64 75 165q69 -65 119 -133q86 45 89 58q-1 4 -18 12q-23 10 -37 19q-72 51 -113 96q114 103 289 125q-48 46 -57 97q-268 -85 -361 -294v252q5 74 -19 88q-19 19 -136 39q0 -53 -28 -101
q59 11 95 2q13 -4 12 -36v-351q0 -37 -2 -69v-6zM431 473q-43 240 -306 396q-22 -45 -71 -77q223 -80 277 -248h-117q-81 0 -117 4v-75q24 3 167 4q119 0 167 -4z" />
</svg>
