<?xml version="1.0" standalone="no"?>
<!DOCTYPE svg PUBLIC "-//W3C//DTD SVG 1.1//EN" "http://www.w3.org/Graphics/SVG/1.1/DTD/svg11.dtd" >
<svg xmlns="http://www.w3.org/2000/svg" xmlns:xlink="http://www.w3.org/1999/xlink" version="1.1" viewBox="-10 0 1010 1000">
   <path fill="currentColor"
d="M506 -15q124 33 260 107l-62 81q-98 -67 -258 -121zM155 24q85 44 157 105l-64 76q-54 -60 -153 -111zM645 167q-8 113 42 252q95 -70 170 -173q53 38 81 82q-35 18 -108 72q-71 53 -114 79q31 80 113 158q57 52 103 72q21 11 34 18q-55 31 -87 77q-141 -108 -189 -210
q-38 -79 -63 -173v401q2 48 -32 64q-32 18 -137 25q-5 -57 -43 -107q50 6 70 7q24 1 37 -4q27 -7 26 -45v-484v-38h-74q-55 -1 -91 8v-81q44 8 131 8q56 0 82 -2q31 -1 49 -6zM95 270q71 32 167 95l-58 84q-73 -66 -162 -99zM290 350q54 8 119 8h14q63 2 107 -10
q-29 169 -101 309q-45 79 -157 165q-34 -38 -78 -58q104 -61 157 -137q74 -110 89 -198h-23q-82 -2 -127 10v-89zM147 496q36 38 81 50q-50 168 -89 335q-39 -33 -91 -45q74 -187 99 -340z" />
</svg>
