<?xml version="1.0" standalone="no"?>
<!DOCTYPE svg PUBLIC "-//W3C//DTD SVG 1.1//EN" "http://www.w3.org/Graphics/SVG/1.1/DTD/svg11.dtd" >
<svg xmlns="http://www.w3.org/2000/svg" xmlns:xlink="http://www.w3.org/1999/xlink" version="1.1" viewBox="-10 0 1010 1000">
   <path fill="currentColor"
d="M560 -8q75 16 101 24q17 5 5 21q-20 25 -25 49q-21 103 -40 172h211q75 0 122 -11q5 -1 6 -1v88q-3 0 -12 -2q-45 -8 -115 -8h-228q-7 17 -20 47q-17 42 -23 54h321q-71 218 -167 313q70 53 262 68q-53 45 -71 95q-185 -46 -254 -113q-65 55 -260 131q-24 -48 -81 -83
q160 -20 285 -103q-53 -75 -101 -175l78 -36q21 83 83 167q61 -75 111 -197h-234q-110 182 -226 284q-31 -40 -82 -63q79 -47 155 -137q98 -133 139 -252h-125q-24 -3 -69 20l-32 -76q73 -24 97 -202q41 9 85 22q19 6 3 25q-13 16 -19 28q-22 50 -53 117h131
q35 -119 42 -266zM179 16q51 37 142 123l-65 66q-59 -68 -137 -123zM770 54q58 57 101 117l-77 50q-51 -82 -100 -125zM91 246q76 40 171 125l-62 68q-77 -80 -158 -127zM183 483q34 40 79 51q-59 164 -101 343q-52 -47 -94 -65q69 -147 116 -329z" />
</svg>
