<?xml version="1.0" standalone="no"?>
<!DOCTYPE svg PUBLIC "-//W3C//DTD SVG 1.1//EN" "http://www.w3.org/Graphics/SVG/1.1/DTD/svg11.dtd" >
<svg xmlns="http://www.w3.org/2000/svg" xmlns:xlink="http://www.w3.org/1999/xlink" version="1.1" viewBox="-10 0 1034 1024">
  <g transform="matrix(1 0 0 -1 0 820)">
   <path fill="currentColor"
d="M600 -65l-277 1q-31 3 -36 4v-47q18 6 37 6l611 -1q9 0 22 -2q7 0 12 -3v47q-30 -1 -62 -5h-269v277h195q12 0 50 -3q7 0 12 -3v47l-30 -4h-475l-20 4v-47q18 6 37 6h193v-277zM453 695q-51 0 -60 5q-3 0 -6 1v-48q9 6 34 6l323 1q-30 -45 -58 -78q-70 -84 -161 -144
q-132 -81 -213 -86q24 -24 40 -49l99 47q39 19 71 39q57 33 123 87q63 -25 168 -86q76 -42 111 -80q12 24 29 44l-127 74l-153 77q85 96 155 196q-22 -1 -38 -3q-21 -3 -27 -3h-310zM66 443l-8 -13q24 -12 67 -36l63 -37q19 -13 38 -28q10 24 24 43l-65 36l-45 25
q-42 24 -62 33q-3 -7 -8 -14q-3 -4 -4 -9zM155 -92l106 243l38 88q-15 15 -32 40q-12 -36 -30 -82q-21 -52 -55 -126l-50 -106q-15 -33 -36 -65q19 -24 36 -48q4 9 10 22q6 18 13 34zM142 705q45 -27 83 -53q51 -36 71 -51q7 -7 12 -13q12 19 31 38l-172 111q-9 -12 -25 -32
v0z" />
  </g>

</svg>
