<?xml version="1.0" standalone="no"?>
<!DOCTYPE svg PUBLIC "-//W3C//DTD SVG 1.1//EN" "http://www.w3.org/Graphics/SVG/1.1/DTD/svg11.dtd" >
<svg xmlns="http://www.w3.org/2000/svg" xmlns:xlink="http://www.w3.org/1999/xlink" version="1.1" viewBox="-10 0 1034 1024">
  <g transform="matrix(1 0 0 -1 0 820)">
   <path fill="currentColor"
d="M968 366q-57 1 -156 33q-93 31 -147 72q103 99 189 233l-61 -5l-418 4q-1 1 -3 1v-47q15 4 37 5l42 1q51 -102 149 -196q-96 -69 -181 -104q-60 -21 -119 -26q21 -28 35 -51l140 59q33 15 60 32q34 21 99 66q57 -36 120 -64q61 -27 182 -64zM780 663q-66 -93 -147 -169
q-54 46 -76 74q-21 24 -61 95h284zM610 78l-272 3q-3 0 -8 3v-47q13 3 56 7h224l-5 -204h48q-3 21 -5 42v162q255 0 278 -3q3 0 20 -4v47q-3 0 -12 -3q-24 0 -50 -3h-236v135h155q18 0 50 -3q6 0 13 -3v46l-31 -4l-187 -1v52q0 15 14 63h-57q0 -1 1 -5l4 -110l-196 1l-20 4
v-46q6 3 12 3q27 3 53 3h151v-135zM71 419q24 -12 61 -35q57 -34 97 -70q10 21 28 41l-163 102q-12 -24 -23 -38zM177 -63q7 15 15 29q13 30 29 59q6 13 14 30q6 15 15 30q51 99 66 134q-15 18 -28 44q-13 -36 -37 -86l-61 -123q-24 -45 -49 -85q-24 -39 -34 -49
q24 -12 47 -31q3 12 23 48zM158 684l103 -62q21 -13 58 -43q6 9 22 29q1 1 6 8l-163 102q-6 -9 -26 -34v0z" />
  </g>

</svg>
