<?xml version="1.0" standalone="no"?>
<!DOCTYPE svg PUBLIC "-//W3C//DTD SVG 1.1//EN" "http://www.w3.org/Graphics/SVG/1.1/DTD/svg11.dtd" >
<svg xmlns="http://www.w3.org/2000/svg" xmlns:xlink="http://www.w3.org/1999/xlink" version="1.1" viewBox="-10 0 1034 1024">
  <g transform="matrix(1 0 0 -1 0 820)">
   <path fill="currentColor"
d="M624 577l-239 1q-6 1 -11 2l-9 2v-47q15 4 37 5l222 1v-169h-155q-36 0 -53 2q-7 1 -13 3v-47q25 6 61 6l405 -1q16 -1 35 -5v47q-31 -1 -63 -5h-179v169l270 -1q9 0 20 -2q3 -1 5 -3v47l-31 -4l-264 -1v127q0 13 2 29q1 19 11 38h-56q1 -33 5 -67v-127zM424 -109
q-1 -24 -3 -49q0 -6 -2 -12h48q-4 24 -5 61v9h378q-3 -30 -3 -48q0 -6 -2 -11h49q-6 60 -5 94l1 245q0 19 4 44l-56 -5l-367 1q-12 3 -42 4q1 -30 5 -63v-270zM462 -64v247h378v-247h-378zM74 442q-3 -6 -7 -12q0 -3 -5 -9q102 -54 157 -110q10 24 22 42q-19 15 -42 30
l-87 56q-7 4 -11 8q-1 0 -17 11q-6 -7 -10 -16zM148 -127l25 -20q0 3 25 78l41 119q30 87 74 189q-19 18 -35 39q-12 -49 -28 -92l-98 -254q-12 -28 -24 -46q9 -6 20 -13zM130 683q46 -30 88 -63q48 -39 66 -60q12 19 29 40q-12 9 -28 23q-18 13 -39 30l-92 65l-14 -20
q-6 -7 -10 -15v0z" />
  </g>

</svg>
