<?xml version="1.0" standalone="no"?>
<!DOCTYPE svg PUBLIC "-//W3C//DTD SVG 1.1//EN" "http://www.w3.org/Graphics/SVG/1.1/DTD/svg11.dtd" >
<svg xmlns="http://www.w3.org/2000/svg" xmlns:xlink="http://www.w3.org/1999/xlink" version="1.1" viewBox="-10 0 1010 1000">
   <path fill="currentColor"
d="M569 -4q98 2 108 14q0 3 -3 9q-17 41 -17 140h141q83 0 131 -9q5 -1 6 -1v89q-2 0 -10 -1q-44 -6 -123 -6h-147v125h93q84 0 135 -8q9 -2 12 -2v87q-1 0 -5 -1q-45 -5 -146 -5h-272q-70 0 -123 7q-11 1 -14 1v-87q2 0 10 1q46 7 123 7h107v-125h-117q-73 0 -125 6
q-10 1 -12 1v-87q2 0 11 1q51 7 126 7h119q0 -94 -7 -151q-1 -9 -1 -12zM151 38q120 89 151 117l-68 66q-47 -58 -141 -119zM91 280q71 44 165 115l-58 72q-55 -59 -162 -123zM198 512l82 52q-101 259 -107 304q-8 28 -12 31q-9 4 -94 -59q76 -124 131 -328zM851 637v121
q0 82 7 124q1 8 1 11h-99q6 -20 6 -69h-310q0 48 4 75h-93q0 -4 1 -13q7 -48 7 -130v-135q0 -82 -6 -107q34 10 119 10h242q102 0 127 -8q-6 25 -6 121zM456 598v158h310v-158h-310z" />
</svg>
