<?xml version="1.0" standalone="no"?>
<!DOCTYPE svg PUBLIC "-//W3C//DTD SVG 1.1//EN" "http://www.w3.org/Graphics/SVG/1.1/DTD/svg11.dtd" >
<svg xmlns="http://www.w3.org/2000/svg" xmlns:xlink="http://www.w3.org/1999/xlink" version="1.1" viewBox="-10 0 1010 1000">
   <path fill="currentColor"
d="M153 14q96 65 160 123l-57 68q-98 -98 -163 -127zM893 44q-2 18 -3 43q-1 13 -1 29v43v603q3 105 8 117h-91q4 -11 4 -79h-391q0 52 6 83h-92q6 -37 6 -115v-603q0 -37 -1 -57q0 -24 -3 -62q37 3 60 3q19 1 61 1h314q69 0 123 -6zM810 121h-391v522q131 -119 148 -287
q-48 0 -68 1q-25 1 -47 5v-76q31 9 117 8q-2 -112 -7 -147q87 3 93 10q1 2 -4 9q-14 19 -14 37v91q63 0 129 -10v74q-18 -1 -47 -2h-32h-50q-1 4 -2 14q0 9 -6 45q6 7 27 33q104 125 124 158q-34 20 -66 65q-21 -65 -107 -186q-22 75 -111 208q-37 -35 -77 -48v84h391v-608z
M97 211q92 55 169 125l-60 75q-78 -83 -168 -133zM187 453q32 27 79 41q-58 184 -85 371q-18 -15 -73 -48q-13 -7 -19 -11q75 -195 98 -353z" />
</svg>
