<?xml version="1.0" standalone="no"?>
<!DOCTYPE svg PUBLIC "-//W3C//DTD SVG 1.1//EN" "http://www.w3.org/Graphics/SVG/1.1/DTD/svg11.dtd" >
<svg xmlns="http://www.w3.org/2000/svg" xmlns:xlink="http://www.w3.org/1999/xlink" version="1.1" viewBox="-10 0 1034 1024">
  <g transform="matrix(1 0 0 -1 0 820)">
   <path fill="currentColor"
d="M624 411q-10 -129 -63 -224q-21 -39 -59 -78q-36 -34 -62 -38q27 -15 48 -37q66 63 99 116q31 54 57 133q58 -63 111 -131q37 -51 58 -97q15 18 38 37q-6 9 -22 29l-106 134l-25 28l-44 54q6 33 8 74q124 0 154 -2q9 0 20 -3l2 -1v47q-9 -3 -23 -4q-21 0 -40 -2h-110
l2 111q0 45 13 67h-56q1 -9 5 -67l-3 -111q-141 0 -159 3l-9 3v-47q36 6 84 6h82zM373 -79q0 -39 -6 -64h49q-6 48 -6 81v4h468q-3 -66 -5 -78h48q0 1 -1 5q-1 3 -2 28q0 15 -2 30l1 741l4 46q-30 -1 -60 -5l-447 1q-3 0 -47 4l6 -67v-726zM410 -22v695h468v-695h-468z
M135 -134q7 22 18 43l66 129l81 149q9 15 20 36q-18 18 -32 43q-15 -40 -32 -75q-127 -234 -130 -238q-3 -1 -4 -6q-21 -31 -40 -51l28 -15q12 -7 25 -15zM244 684q-51 31 -76 46q-12 -19 -25 -38q3 -3 24 -14l79 -48q19 -12 50 -40q10 22 28 44zM62 442q30 -15 79 -47
q49 -34 76 -58q4 9 14 21q6 13 15 22q-153 96 -158 102q-12 -21 -21 -32q-3 -4 -5 -8v0z" />
  </g>

</svg>
