<?xml version="1.0" standalone="no"?>
<!DOCTYPE svg PUBLIC "-//W3C//DTD SVG 1.1//EN" "http://www.w3.org/Graphics/SVG/1.1/DTD/svg11.dtd" >
<svg xmlns="http://www.w3.org/2000/svg" xmlns:xlink="http://www.w3.org/1999/xlink" version="1.1" viewBox="-10 0 1034 1024">
  <g transform="matrix(1 0 0 -1 0 820)">
   <path fill="currentColor"
d="M672 299v-375q0 -30 20 -46q22 -18 82 -19q40 0 69 4q25 3 45 16q30 21 47 98q3 16 8 31l6 23q-18 1 -39 12q-3 1 -5 2q-6 3 -12 4q3 -27 3 -37q0 -18 -4 -44q-7 -51 -38 -62q-28 -9 -84 -10q-36 0 -49 12q-10 9 -11 36v355h151q18 0 50 -3q7 0 12 -3v47l-31 -4l-248 -1
v201h170q12 0 51 -4q6 0 12 -3v48q-4 0 -8 -1t-24 -4l-201 -1v134q0 9 2 28q1 21 12 38h-57q3 -9 3 -16q1 -27 2 -50v-134h-141q6 15 11 29q3 6 6 14q12 33 31 53q-24 4 -54 16q-48 -180 -109 -269q22 -4 47 -15q3 9 31 72q6 21 28 65h150v-201l-240 1q-31 3 -36 4v-47
q15 6 63 6h122q-4 -183 -66 -280q-75 -120 -198 -131l41 -45q139 72 196 165q58 100 66 291h118zM259 371q-15 10 -70 43q-22 16 -87 53q-10 -19 -25 -40q43 -22 92 -52q52 -33 71 -52q12 24 25 43q-3 3 -6 5zM160 -99l35 94l99 257q-21 13 -38 28q-12 -45 -28 -87l-52 -141
q-48 -111 -74 -145q3 -1 6 -3q34 -16 44 -24q3 10 8 21zM147 679q63 -40 100 -68q30 -22 58 -50q12 21 31 40q-64 48 -161 114q-3 -6 -28 -36v0z" />
  </g>

</svg>
