<?xml version="1.0" standalone="no"?>
<!DOCTYPE svg PUBLIC "-//W3C//DTD SVG 1.1//EN" "http://www.w3.org/Graphics/SVG/1.1/DTD/svg11.dtd" >
<svg xmlns="http://www.w3.org/2000/svg" xmlns:xlink="http://www.w3.org/1999/xlink" version="1.1" viewBox="-10 0 1010 1000">
   <path fill="currentColor"
d="M548 -13q99 5 101 13q0 2 -2 6q-18 35 -18 155h115q65 2 119 -6v82q-48 -6 -121 -8h-113v152h113q115 0 169 -8v88q-61 -12 -171 -12h-83q74 199 297 278q-46 43 -69 85q-183 -105 -258 -294v222q1 119 8 169h-95q8 -31 11 -136q1 -23 1 -33v-192q-77 157 -237 280
q-27 -37 -85 -66q193 -80 304 -313h-107q-114 2 -153 10v-86q46 8 151 8h129v-152h-145l-12 24q-15 31 -46 97q-32 -18 -77 -32q72 -79 113 -276q4 1 11 3q96 28 86 37q0 1 -3 4q-22 15 -46 75h119v-87q0 -69 -6 -87zM161 28q80 55 145 113l-60 72q-72 -76 -149 -119z
M75 250q61 26 173 100l-52 79q-66 -55 -172 -105zM183 481l79 51q-51 129 -115 349l-101 -49q82 -118 137 -351z" />
</svg>
