<?xml version="1.0" standalone="no"?>
<!DOCTYPE svg PUBLIC "-//W3C//DTD SVG 1.1//EN" "http://www.w3.org/Graphics/SVG/1.1/DTD/svg11.dtd" >
<svg xmlns="http://www.w3.org/2000/svg" xmlns:xlink="http://www.w3.org/1999/xlink" version="1.1" viewBox="-10 0 1034 1024">
  <g transform="matrix(1 0 0 -1 0 820)">
   <path fill="currentColor"
d="M965 702l-62 -6l-558 1q-24 3 -28 5v-48q13 6 59 7h160v-181l-153 3q-3 1 -28 2q1 -31 5 -64l-1 -527l-4 -38h49q-3 6 -5 45v62h474l-1 -65q0 -27 -4 -36h48q-3 21 -5 43l1 533l4 47q-30 -1 -60 -5h-134v181l211 -1q12 0 27 -3q3 -1 5 -3v48zM399 -5v449h137
q-1 -61 -6 -100q-3 -31 -9 -58q-21 -84 -65 -123q-31 -24 -52 -32q36 -21 52 -33q9 12 29 36q10 9 19 21q27 42 43 83q12 37 18 78q4 48 9 128h111v-226q0 -31 30 -50q21 -13 83 -14q36 0 75 7v-163zM574 480v181h111v-181h-111zM722 444h151v-242q-22 -6 -39 -8
q-24 -1 -49 -2q-25 0 -38 4q-24 7 -25 43v205zM223 368l-65 46l-75 52q-1 -3 -15 -29q0 -1 -7 -9q7 -3 27 -17q15 -9 38 -25q49 -34 91 -74q15 31 24 44zM106 -90q24 -13 46 -31q4 9 9 20l100 255q19 48 32 82q-19 18 -35 40q-12 -45 -30 -90q-18 -52 -48 -127
q-45 -114 -74 -149zM123 711l96 -79q27 -25 55 -56q15 18 32 35l-70 64q-42 36 -85 71q-3 -6 -11 -14q-9 -12 -17 -21v0z" />
  </g>

</svg>
