<?xml version="1.0" standalone="no"?>
<!DOCTYPE svg PUBLIC "-//W3C//DTD SVG 1.1//EN" "http://www.w3.org/Graphics/SVG/1.1/DTD/svg11.dtd" >
<svg xmlns="http://www.w3.org/2000/svg" xmlns:xlink="http://www.w3.org/1999/xlink" version="1.1" viewBox="-10 0 1034 1024">
  <g transform="matrix(1 0 0 -1 0 820)">
   <path fill="currentColor"
d="M369 715q1 -28 5 -58l-3 -792q0 -4 -2 -11h48q-4 30 -5 60v760h470v-708q0 -21 -5 -34q-6 -9 -25 -18q-21 -6 -51 -7q-25 0 -59 5q7 -22 14 -52l71 9q55 7 77 30q15 18 16 64l1 709q0 15 4 43q-27 -1 -55 -5l-457 1q-15 3 -44 4zM478 481q12 3 30 4q21 1 137 2
q120 0 141 -2q12 0 21 -4v47l-31 -4h-276q-9 0 -22 4v-47zM572 357q-31 3 -63 5q1 -31 5 -65l-1 -179q-3 -12 -4 -41q60 6 92 6q123 0 132 -2l36 -4q-4 48 -5 90q0 153 2 170q0 12 3 25q-55 -4 -65 -5h-132zM551 118v203h175v-203h-175zM55 447q66 -40 108 -72
q25 -19 52 -42q12 24 24 39q-24 18 -84 59q-73 51 -77 52q-12 -21 -23 -36zM139 -110q9 -9 18 -16q3 12 8 21q1 3 11 31l62 161q12 33 25 64l32 82q-21 18 -33 37q-12 -46 -30 -94q-18 -52 -48 -127q-45 -109 -72 -141q12 -9 27 -18zM146 715q103 -78 111 -85q19 -18 44 -43
q13 19 31 37l-69 57l-89 69l-10 -15q-9 -7 -18 -20v0z" />
  </g>

</svg>
