<?xml version="1.0" standalone="no"?>
<!DOCTYPE svg PUBLIC "-//W3C//DTD SVG 1.1//EN" "http://www.w3.org/Graphics/SVG/1.1/DTD/svg11.dtd" >
<svg xmlns="http://www.w3.org/2000/svg" xmlns:xlink="http://www.w3.org/1999/xlink" version="1.1" viewBox="-10 0 1034 1024">
  <g transform="matrix(1 0 0 -1 0 820)">
   <path fill="currentColor"
d="M529 654q27 54 34 66t26 30q-24 7 -58 23q-18 -67 -47 -119q-42 -78 -89 -137q-39 -48 -75 -68l51 -28q72 85 142 198h273q-66 -109 -160 -197q-45 43 -62 67q-15 18 -34 61q-24 -21 -45 -33q54 -66 73 -84q18 -18 38 -39q-69 -55 -156 -98q-87 -40 -139 -41
q22 -24 38 -47q177 75 292 162q75 -54 138 -86q67 -33 166 -64q15 30 37 51q-72 3 -152 35q-78 31 -159 91q63 66 96 108q19 27 43 62q27 39 61 93q-16 0 -25 -2q-43 -3 -52 -4h-255zM485 223q-7 0 -26 2q-16 0 -37 3q4 -54 5 -66l-1 -282q-1 -1 -2 -25q0 -6 -2 -10h48
q-3 21 -5 42v44h334q-3 -76 -5 -80h48q-4 54 -5 60l1 270l4 47q-27 -1 -55 -5h-302zM465 -33v220h334v-220h-334zM61 446q19 -9 60 -40q36 -24 56 -41q15 -12 43 -39q6 12 17 24q4 9 12 15q-102 78 -150 110q-6 4 -13 8q-6 -7 -11 -16zM160 -80q3 10 8 21q12 28 33 87
l52 133l32 83q-18 18 -33 39q-10 -37 -29 -89l-51 -138q-45 -111 -73 -148q21 -9 45 -30q6 13 8 21q3 10 8 21zM169 705l95 -72q22 -18 53 -50l30 35l-63 52l-89 69q-12 -18 -21 -27q0 -3 -5 -7v0z" />
  </g>

</svg>
