<?xml version="1.0" standalone="no"?>
<!DOCTYPE svg PUBLIC "-//W3C//DTD SVG 1.1//EN" "http://www.w3.org/Graphics/SVG/1.1/DTD/svg11.dtd" >
<svg xmlns="http://www.w3.org/2000/svg" xmlns:xlink="http://www.w3.org/1999/xlink" version="1.1" viewBox="-10 0 1010 1000">
   <path fill="currentColor"
d="M155 16q63 36 151 103l-54 82q-70 -61 -153 -111zM907 40q-9 44 -8 105v631q2 60 -27 75q-24 19 -136 30q1 -61 -30 -109q121 23 113 -34v-619h-402v618q0 98 10 144h-98q9 -36 8 -139v-593q1 -63 -8 -109q52 8 123 8h348q36 0 107 -8zM766 209v79q-36 -6 -83 -6h-127
q-62 0 -94 8v-83q33 8 96 8h121q58 0 87 -6zM97 244q68 36 165 110l-52 73q-66 -61 -160 -105zM742 371q-7 36 -6 84v123q0 40 1 58q2 22 7 43q-23 -5 -44 -7q-18 -1 -53 -1h-44q-71 -1 -119 8q9 -33 8 -103v-115q0 -52 -6 -88q57 8 129 8q81 1 127 -10zM560 449v155h109
v-155h-109zM183 488q22 16 61 43q14 10 18 13q-30 84 -93 319q-38 -40 -98 -59q87 -160 112 -316z" />
</svg>
