<?xml version="1.0" standalone="no"?>
<!DOCTYPE svg PUBLIC "-//W3C//DTD SVG 1.1//EN" "http://www.w3.org/Graphics/SVG/1.1/DTD/svg11.dtd" >
<svg xmlns="http://www.w3.org/2000/svg" xmlns:xlink="http://www.w3.org/1999/xlink" version="1.1" viewBox="-10 0 1034 1024">
  <g transform="matrix(1 0 0 -1 0 820)">
   <path fill="currentColor"
d="M94 475q-6 -6 -15 -23q-3 -7 -10 -14q60 -37 152 -119q1 1 3 5l22 29q1 3 5 4q-42 31 -84 65zM208 -9q30 124 43 163q10 36 16 54q3 7 7 19q-12 9 -25 25q-6 4 -16 17q-9 -57 -21 -110q-13 -55 -35 -128q-15 -54 -28 -85q-12 -27 -26 -47q12 -7 22 -15q12 -9 27 -24
q21 85 36 131zM299 601q6 6 11 15q-15 15 -33 28l-74 59l-36 26q-13 -21 -27 -36q75 -51 143 -115q9 15 11 17q1 3 5 6zM460 -98l-4 -61q-1 -3 -1 -6h47q-4 54 -5 78v156h330v-140q0 -33 -18 -41q-22 -7 -51 -8q-15 0 -45 4q4 -13 8 -22q3 -9 5 -17q3 -6 4 -14q87 9 116 32
q18 15 19 47l1 479l4 47q-33 -1 -67 -5h-307l80 137q0 3 2 4l340 -1q24 0 40 -5v46q-28 -4 -66 -5h-299q45 120 49 125q6 12 25 27q-30 4 -68 17q-12 -87 -51 -169l-202 3q-4 1 -7 1q-3 1 -5 1v-46q9 4 26 5l171 1q-49 -97 -118 -182q-39 -48 -71 -76q-25 -21 -62 -42
q30 -13 53 -36l13 16q3 3 114 130v-480zM497 267v128h330v-128h-330zM497 105v126h330v-126h-330z" />
  </g>

</svg>
