<?xml version="1.0" standalone="no"?>
<!DOCTYPE svg PUBLIC "-//W3C//DTD SVG 1.1//EN" "http://www.w3.org/Graphics/SVG/1.1/DTD/svg11.dtd" >
<svg xmlns="http://www.w3.org/2000/svg" xmlns:xlink="http://www.w3.org/1999/xlink" version="1.1" viewBox="-10 0 1034 1024">
  <g transform="matrix(1 0 0 -1 0 820)">
   <path fill="currentColor"
d="M68 429q93 -57 152 -113q9 16 28 35q-31 27 -67 54l-85 63q-7 -12 -12 -20q-6 -9 -16 -19zM258 267q-7 -33 -21 -74q-15 -48 -40 -117q-51 -139 -80 -182q24 -15 47 -39q1 6 3 12q3 12 7 23q30 93 36 106l80 231q-15 13 -32 40zM214 690q-30 27 -34 29l-7 -10
q0 -3 -15 -16q0 -1 -3 -3l-5 -5q76 -63 97 -84q3 -3 35 -39q15 19 33 35q-13 13 -21 23q-16 13 -34 29zM594 49l-273 3q-6 1 -12 1q-3 1 -5 1v-46q3 1 60 5h230l-4 -173q-1 -4 -1 -9h49q-6 60 -5 106v76l295 -3q4 0 15 -2v46q-33 -1 -67 -5h-243v113l234 -3q3 0 13 -2v46
q-33 -1 -67 -5h-180v103l180 -1q24 0 56 -4q-4 63 -5 91v63q48 0 81 -4q3 0 8 -1v46l-39 -4l-50 -1q0 96 2 106q0 25 3 49q-36 -1 -73 -5h-163q0 96 3 106q1 13 9 30h-56l5 -113v-23l-181 1q-4 1 -9 1q-15 1 -29 3v-46q33 4 66 5h153v-114h-222q-33 0 -60 4q-4 1 -8 1v-46
q24 4 68 5h222v-113l-184 1q-12 3 -35 4v-46q34 4 66 5h153v-103l-195 1q-4 1 -9 1q-15 1 -29 3v-46q39 4 67 5h166v-113zM633 337v113h193v-113h-193zM633 486v114h193v-114h-193z" />
  </g>

</svg>
