<?xml version="1.0" standalone="no"?>
<!DOCTYPE svg PUBLIC "-//W3C//DTD SVG 1.1//EN" "http://www.w3.org/Graphics/SVG/1.1/DTD/svg11.dtd" >
<svg xmlns="http://www.w3.org/2000/svg" xmlns:xlink="http://www.w3.org/1999/xlink" version="1.1" viewBox="-10 0 1010 1000">
   <path fill="currentColor"
d="M528 0q55 1 97 10q12 3 0 22q-14 21 -14 34v46h133q54 0 99 -8q-12 47 -10 79v71q69 1 102 -10v86q-45 -12 -102 -12v44q-1 63 8 107q-60 -12 -95 -12h-135v81h155q43 1 91 -10v85q-45 -8 -57 -9q-16 -2 -32 -2h-157v73h195q70 1 105 -10v89q-37 -12 -107 -12h-193
q0 71 1 100q2 34 7 53h-95q8 -27 11 -62q2 -17 2 -38q1 -18 1 -53h-171q-56 -1 -107 10v-89q48 12 109 12h167v-73h-129q-50 -1 -95 10v-82q30 9 83 8h12h129v-83h-111q-48 -1 -90 8v-80q40 9 94 8h107v-73h-153q-57 0 -101 10v-82q43 9 99 8h155v-75h-101q-45 -1 -98 10
v-87q45 9 98 10h101q0 -64 -7 -104q-1 -6 -1 -8zM167 18q54 39 135 123l-70 62q-47 -62 -127 -121zM611 179v75h143v-75h-143zM105 237q77 41 153 109l-64 69q-34 -41 -142 -109zM611 318v75h143v-75h-143zM169 451q41 39 83 45q-49 130 -81 375q-56 -59 -108 -67
q78 -148 106 -353z" />
</svg>
