<?xml version="1.0" standalone="no"?>
<!DOCTYPE svg PUBLIC "-//W3C//DTD SVG 1.1//EN" "http://www.w3.org/Graphics/SVG/1.1/DTD/svg11.dtd" >
<svg xmlns="http://www.w3.org/2000/svg" xmlns:xlink="http://www.w3.org/1999/xlink" version="1.1" viewBox="-10 0 1034 1024">
  <g transform="matrix(1 0 0 -1 0 820)">
   <path fill="currentColor"
d="M225 356q1 4 4 7q3 9 11 18q3 6 9 10q-31 27 -157 110q-4 -6 -7 -12q-12 -18 -21 -27q82 -39 159 -109q0 1 2 3zM297 234q6 18 18 41q-19 18 -38 39q-7 -36 -23 -78q-19 -51 -58 -135q-30 -66 -49 -104q-16 -30 -35 -50q19 -15 30 -22q3 -3 17 -18q9 28 18 49l64 153z
M147 710q52 -36 86 -63q25 -21 62 -60q12 19 30 37q-72 64 -149 121q-9 -15 -29 -35zM783 45l-3 -178q-1 -3 -1 -8q-1 -1 -2 -5h49q-4 54 -5 76v118l103 3q9 0 38 -3q-3 27 -4 54q-19 -6 -78 -12q-30 -1 -59 -4v564h51q24 0 50 -2q6 0 15 -4v47q-21 -4 -65 -5l-490 1
q-15 1 -29 4v-47q7 3 27 4q12 1 61 2v-587q-108 -3 -127 -7q-10 0 -24 4q3 -24 5 -54q18 7 79 13zM479 65v188h304v-169zM479 289v160h304v-160h-304zM479 485v165h304v-165h-304z" />
  </g>

</svg>
