<?xml version="1.0" standalone="no"?>
<!DOCTYPE svg PUBLIC "-//W3C//DTD SVG 1.1//EN" "http://www.w3.org/Graphics/SVG/1.1/DTD/svg11.dtd" >
<svg xmlns="http://www.w3.org/2000/svg" xmlns:xlink="http://www.w3.org/1999/xlink" version="1.1" viewBox="-10 0 1010 1000">
   <path fill="currentColor"
d="M167 12q105 67 162 115l-67 66q-70 -70 -155 -115zM806 14q89 1 97 14q2 5 -3 15q-15 29 -15 76v594q0 105 8 162h-89q8 -70 8 -164v-607q0 -61 -6 -90zM385 24q84 -3 93 10q2 4 -3 13q-15 30 -15 78v242q11 327 -127 518q-27 -25 -95 -43q159 -127 155 -457v-214
q0 -11 -3 -60q-3 -52 -5 -87zM589 58q92 0 98 10q3 6 -5 18q-19 31 -19 75v508q0 101 8 149h-84q8 -64 8 -149v-530q0 -58 -6 -81zM87 229q46 24 165 109l-54 71q-74 -73 -164 -115zM736 254q36 115 60 258l-62 12q-9 -107 -51 -264zM532 258q19 73 43 254l-61 6
q-6 -150 -36 -250zM284 262l83 10q-20 176 -46 258q-32 -15 -79 -10q46 -122 42 -258zM155 463l79 49q-19 166 -71 340l-98 -42q79 -164 90 -347z" />
</svg>
