<?xml version="1.0" standalone="no"?>
<!DOCTYPE svg PUBLIC "-//W3C//DTD SVG 1.1//EN" "http://www.w3.org/Graphics/SVG/1.1/DTD/svg11.dtd" >
<svg xmlns="http://www.w3.org/2000/svg" xmlns:xlink="http://www.w3.org/1999/xlink" version="1.1" viewBox="-10 0 1034 1024">
  <g transform="matrix(1 0 0 -1 0 820)">
   <path fill="currentColor"
d="M60 437q91 -55 145 -107q7 13 16 27q3 3 8 10l-145 106q-15 -24 -24 -36zM89 -112q18 -6 30 -12l22 -12q12 31 26 61l49 105q7 15 14 32l75 156q-27 21 -40 42q-16 -78 -86 -221l-52 -100q-16 -25 -38 -51zM248 654l-80 56q-3 -3 -13 -23l-10 -14l75 -49q31 -24 74 -60
q3 3 4 6t3 7q9 18 17 26q-9 6 -16 13zM589 -3l60 -54q3 7 7 13q9 21 16 29l-64 49q-36 27 -71 55q15 28 38 96q16 54 28 111q9 60 20 148l11 96l-159 -9q3 13 4 29q0 12 17 106q6 37 26 64q-15 1 -24 4q-18 1 -36 8q-3 -90 -25 -212q-79 -3 -83 -4h-36q1 -22 4 -45
q21 12 58 14l52 3l-51 -273q-12 -48 -19 -68q19 -9 119 -76q0 -1 3 -3q-39 -66 -104 -121q-64 -49 -123 -63q24 -22 43 -43q63 43 117 88q52 46 99 116q10 -9 23 -18zM433 302q6 37 14 75q6 27 10 50l11 72l122 3q-3 -61 -9 -107q-4 -42 -12 -80q-24 -123 -65 -204
q-42 30 -96 64l6 26zM706 568q1 -27 2 -109l-3 -554q-1 -3 -1 -8q-1 -1 -1 -4h47q-3 31 -5 63v28h155q0 -45 -3 -73v-2q-1 -3 -1 -8q-1 -1 -1 -5h49q-3 15 -3 12q0 27 -3 56l1 588q0 10 5 50q-18 -1 -34 -3q-25 -3 -34 -3h-108q-6 0 -32 3q-10 1 -33 3zM745 20v540h155v-540
h-155z" />
  </g>

</svg>
