<?xml version="1.0" standalone="no"?>
<!DOCTYPE svg PUBLIC "-//W3C//DTD SVG 1.1//EN" "http://www.w3.org/Graphics/SVG/1.1/DTD/svg11.dtd" >
<svg xmlns="http://www.w3.org/2000/svg" xmlns:xlink="http://www.w3.org/1999/xlink" version="1.1" viewBox="-10 0 1034 1024">
  <g transform="matrix(1 0 0 -1 0 820)">
   <path fill="currentColor"
d="M466 670q0 13 2 30q1 21 11 37h-56q1 -33 5 -67v-354q0 -102 -24 -182q-27 -103 -87 -180q-30 -37 -74 -68q33 -13 55 -28q27 33 45 59q16 22 31 46q51 84 74 180q18 75 18 173v354zM297 275q22 0 49 -6q1 12 4 26q3 27 18 119q4 27 17 52q-21 0 -33 3q-10 0 -26 5
q1 -18 2 -40q0 -45 -14 -108q-6 -24 -17 -51zM671 -97q-3 21 -5 43l1 709q0 18 4 29q1 10 8 19h-56q1 -33 5 -67l-1 -696l-4 -37h48zM906 -136q0 6 -2 11l-4 50l3 787q0 16 11 33h-57q1 -13 6 -49q-1 -9 0 -19q0 -780 -3 -796q-1 -7 -3 -17h49zM72 498q-1 -3 -15 -21
q103 -67 153 -122q10 21 14 23l14 18l-154 118q-6 -7 -12 -16zM166 -53q4 19 27 73q34 99 42 111q3 9 7 16l42 111q-27 33 -31 39q-10 -36 -27 -83l-52 -137q-45 -106 -70 -137q10 -6 21 -13q4 -1 25 -21zM148 720l99 -79q27 -25 53 -54q15 18 32 36l-68 60l-86 71
q-6 -9 -30 -34zM561 415q-4 10 -11 22l-16 30q-30 -12 -40 -19q52 -84 84 -171q24 16 41 23l-35 75zM836 305q-3 7 -33 55q3 -6 -10 19q-46 81 -54 88l-38 -19q18 -24 42 -62q37 -63 57 -115q24 18 41 26q-3 4 -5 8v0z" />
  </g>

</svg>
