<?xml version="1.0" standalone="no"?>
<!DOCTYPE svg PUBLIC "-//W3C//DTD SVG 1.1//EN" "http://www.w3.org/Graphics/SVG/1.1/DTD/svg11.dtd" >
<svg xmlns="http://www.w3.org/2000/svg" xmlns:xlink="http://www.w3.org/1999/xlink" version="1.1" viewBox="-10 0 1034 1024">
  <g transform="matrix(1 0 0 -1 0 820)">
   <path fill="currentColor"
d="M648 757q-37 10 -59 21q-9 -25 -20 -47q-28 -51 -71 -109q-93 -120 -178 -181q-31 -21 -65 -32q25 -13 51 -34q39 33 84 74q51 48 57 56q33 33 76 89q40 52 78 108l73 -98q24 -27 55 -57q48 -45 82 -73q57 -45 136 -91q18 24 45 47q-34 3 -74 22q-60 30 -123 86
q-64 57 -99 98q-33 39 -73 104q12 9 25 17zM407 -99q0 -12 -1 -27l-4 -32h49q-6 18 -6 69v18h364q-1 -34 -3 -71q-1 -4 -3 -11h49q-4 49 -5 95l1 250l4 45q-30 -1 -59 -5l-346 1q-15 3 -45 4q1 -30 5 -62v-274zM445 -36v232h364v-232h-364zM423 358q7 3 25 4q12 1 75 2
l265 -1q9 0 20 -2q3 -1 5 -3v47l-97 -5l-274 1q-4 1 -7 1q-4 0 -12 3v-47zM224 371q-7 4 -13 9q-66 43 -143 91l-21 -37q21 -12 60 -37q63 -39 96 -71q9 15 20 29q6 6 7 10l1 1q-4 3 -7 5zM192 -59q4 13 10 29q6 12 12 28l100 266q-15 15 -32 38q-9 -39 -25 -81l-60 -154
q-37 -100 -72 -148q3 -3 8 -6l27 -17q6 -4 12 -10q4 10 8 21zM139 683q12 -9 23 -18q82 -58 122 -102q13 24 27 37q-21 21 -61 52l-86 66q-7 -7 -10 -14q-9 -9 -15 -21v0z" />
  </g>

</svg>
