<?xml version="1.0" standalone="no"?>
<!DOCTYPE svg PUBLIC "-//W3C//DTD SVG 1.1//EN" "http://www.w3.org/Graphics/SVG/1.1/DTD/svg11.dtd" >
<svg xmlns="http://www.w3.org/2000/svg" xmlns:xlink="http://www.w3.org/1999/xlink" version="1.1" viewBox="-10 0 1034 1024">
  <g transform="matrix(1 0 0 -1 0 820)">
   <path fill="currentColor"
d="M627 475h-225q-36 0 -53 2q-4 0 -12 3v-47q15 4 37 5l253 1v-181q-147 0 -170 2q-7 3 -32 4q1 -33 5 -67l-1 -312q-1 -15 -3 -32q0 -3 -1 -5h48q-3 21 -5 42v34h364q-1 -30 -3 -61q0 -4 -2 -11h48q-3 21 -5 43l1 319l4 50q-25 -1 -35 -4q-21 -1 -175 -2v181h232
q13 0 51 -3q7 0 12 -3v47q-13 0 -63 -5h-232v206q57 9 100 19q54 9 81 9h23q-22 22 -41 52q-28 -12 -83 -27l-171 -28q-126 -9 -155 -11q-19 1 -42 5q7 -13 12 -23q3 -10 9 -27l63 7q42 4 85 8l81 11v-201zM468 -40v262h364v-262h-364zM142 446q-10 9 -23 16q-18 12 -34 22
q-7 -9 -9 -13q-3 -3 -5 -8q-3 -6 -8 -14q102 -60 156 -115q7 16 25 41q-10 9 -73 53q-15 9 -29 18zM311 251q-19 18 -33 40q-10 -37 -28 -81q-9 -27 -23 -59l-35 -85q-45 -109 -75 -146q9 -9 23 -16q7 -4 22 -19q12 27 15 35q0 3 11 28q3 9 89 220q16 42 34 83zM150 703
q102 -69 154 -122q16 21 32 35l-71 55l-89 65q-7 -12 -26 -33v0z" />
  </g>

</svg>
