<?xml version="1.0" standalone="no"?>
<!DOCTYPE svg PUBLIC "-//W3C//DTD SVG 1.1//EN" "http://www.w3.org/Graphics/SVG/1.1/DTD/svg11.dtd" >
<svg xmlns="http://www.w3.org/2000/svg" xmlns:xlink="http://www.w3.org/1999/xlink" version="1.1" viewBox="-10 0 1010 1000">
   <path fill="currentColor"
d="M629 4q11 34 26 115h127q75 0 126 -6q7 -1 9 -1v85q-2 0 -8 -1q-45 -7 -127 -7h-250q61 29 75 51q0 3 -11 7q-28 10 -52 29q-81 64 -121 84l311 -16q-17 -22 -69 -68l65 -51q72 55 181 180l-74 66q-30 -48 -51 -68q-402 24 -455 36l-29 -91q2 -1 11 -3q94 -14 199 -156
h-52q-76 0 -142 7q-9 1 -10 1v-84q2 0 10 1q55 7 140 7h113q-17 -56 -41 -99zM139 30q78 44 151 109l-56 74q-74 -69 -149 -115zM73 244q94 35 179 88l-44 81q-69 -47 -174 -89zM520 463q100 2 107 16q0 4 -5 14q-17 35 -17 81v153q0 86 7 141q1 7 1 9h-97q0 -4 1 -15
q7 -57 7 -137v-149q1 -49 -3 -97q-1 -12 -1 -16zM161 463l81 41q-75 237 -85 324q-6 35 -8 35q-3 1 -31 -18q-39 -27 -66 -43q77 -134 109 -339zM690 463q87 3 106 14q0 3 -5 12q-17 32 -17 77v192q-2 46 41 42q29 1 36 -19q8 -19 8 -88q48 47 91 57q-8 77 -38 105
q-27 27 -99 26q-82 1 -100 -15q-21 -12 -19 -72v-234q-1 -21 -2 -52q-2 -36 -2 -45zM363 465q99 3 111 18q0 4 -9 14q-14 17 -15 27q-8 294 -190 369q-27 -33 -77 -63q123 -56 157 -129q37 -69 23 -236z" />
</svg>
