<?xml version="1.0" standalone="no"?>
<!DOCTYPE svg PUBLIC "-//W3C//DTD SVG 1.1//EN" "http://www.w3.org/Graphics/SVG/1.1/DTD/svg11.dtd" >
<svg xmlns="http://www.w3.org/2000/svg" xmlns:xlink="http://www.w3.org/1999/xlink" version="1.1" viewBox="-10 0 1034 1024">
  <g transform="matrix(1 0 0 -1 0 820)">
   <path fill="currentColor"
d="M65 445l-6 -12q-3 -4 -7 -13q43 -24 75 -43q30 -22 80 -63q10 22 22 37l-60 47l-97 62q-4 -7 -7 -15zM90 -86q25 -16 47 -35l14 35l145 323q-18 24 -29 43q-24 -73 -89 -215q-27 -58 -46 -91q-18 -31 -42 -60zM133 671q69 -36 147 -124q9 15 27 34q-33 31 -76 69
q-46 39 -74 55q-9 -19 -24 -34zM282 -125q27 -15 50 -34q51 36 93 85q51 61 60 162l7 113q0 31 13 55q-30 0 -58 4l6 -60q0 -13 1 -21q0 -28 -3 -60l-6 -59q-15 -90 -86 -145q-25 -18 -77 -40zM864 577q37 0 55 -4q3 0 6 -2h5v47q-6 0 -17 -2q-63 -3 -80 -4l-468 1
q-16 1 -25 4q-4 1 -8 1v-47q9 0 16 3q48 3 73 3h149q-15 -27 -35 -51q-22 -30 -62 -74q-30 -36 -53 -57q-19 -16 -53 -39q18 -22 27 -49q33 12 77 16l138 17l176 19q9 1 27 4q22 -22 51 -58q16 24 30 34q-40 48 -78 82q-39 39 -101 89q-4 -3 -7 -7q-1 -3 -4 -4
q-15 -15 -18 -20q22 -15 54 -41q19 -15 53 -49l-359 -34q45 48 95 106q51 60 93 116h243zM525 716q30 -9 67 -32q34 -18 77 -60q12 24 28 37q-36 34 -140 92q-3 -3 -10 -12q-9 -13 -22 -25zM595 256q0 -12 3 -24l2 -171l-1 -149q-3 -6 -3 -37q-1 -1 -1 -6h48q-6 36 -6 65
l1 275q1 22 11 47h-54zM746 272l5 -87l1 -259q4 -22 20 -36q21 -15 73 -16q66 0 92 30q22 25 37 87q-21 13 -42 33q0 -34 -3 -51q-6 -39 -27 -52q-18 -9 -57 -10q-24 0 -38 5q-18 9 -18 38v248q0 33 12 70h-55z" />
  </g>

</svg>
