<?xml version="1.0" standalone="no"?>
<!DOCTYPE svg PUBLIC "-//W3C//DTD SVG 1.1//EN" "http://www.w3.org/Graphics/SVG/1.1/DTD/svg11.dtd" >
<svg xmlns="http://www.w3.org/2000/svg" xmlns:xlink="http://www.w3.org/1999/xlink" version="1.1" viewBox="-10 0 1010 1000">
   <path fill="currentColor"
d="M546 -10q40 9 95 28q20 8 4 17q-4 2 -4 3q40 105 117 185q64 73 212 121q-50 39 -69 89q-69 -39 -121 -85v75q-33 -8 -86 -8h-150q-62 0 -98 6v-77q-24 31 -63 67q-30 29 -54 52q-38 -45 -87 -60l-20 36q-61 -46 -176 -91l41 -74q112 50 179 89l-22 38q107 -61 194 -180
q74 -111 108 -231zM163 32q77 39 178 105l-53 70q-55 -46 -177 -107zM593 88q-55 144 -143 250q33 9 96 10h144q51 -1 82 -8l-10 -10q-125 -121 -169 -242zM183 506q20 15 73 50q-71 185 -99 315q-38 -26 -94 -51q66 -106 120 -314zM379 506q59 8 127 8h208q42 0 115 -8
q-11 62 -10 100v156q0 93 10 143h-99q10 -35 10 -81h-270q-1 54 8 81h-101q11 -38 12 -147v-152q0 -49 -10 -100zM740 582h-272v174h272v-174z" />
</svg>
