<?xml version="1.0" standalone="no"?>
<!DOCTYPE svg PUBLIC "-//W3C//DTD SVG 1.1//EN" "http://www.w3.org/Graphics/SVG/1.1/DTD/svg11.dtd" >
<svg xmlns="http://www.w3.org/2000/svg" xmlns:xlink="http://www.w3.org/1999/xlink" version="1.1" viewBox="-10 0 1034 1024">
  <g transform="matrix(1 0 0 -1 0 820)">
   <path fill="currentColor"
d="M613 122v-191l-311 4q-1 1 -3 1v-47q6 3 12 3q21 3 53 3h536q16 0 51 -3q6 0 12 -3v47l-31 -4l-281 -1v191h180q18 0 50 -3q6 0 12 -3v47l-30 -4l-212 -1q0 120 3 126q3 15 11 30h-58q3 -15 6 -48q-1 -9 0 -18v-90h-155q-36 0 -54 2l-12 3v-47q12 3 30 4q19 1 191 2z
M616 384l-277 4q-1 1 -3 1v-47q21 4 44 5l497 1q27 0 55 -3q3 0 7 -3v47l-30 -4l-256 -1v185l219 -1q21 0 27 -3q1 0 4 -2v47l-31 -4l-219 -1v105q0 12 3 29q1 18 11 37h-57q0 -3 5 -42l1 -129l-214 3l-6 2v-47q12 3 24 4l175 2h21v-185zM63 434q-3 -3 -7 -9
q109 -60 166 -113q10 24 26 44q-42 30 -123 80l-42 26l-14 -20q-3 -3 -6 -8zM179 -76l96 253q12 27 18 42q-16 9 -26 21q-4 4 -12 13q-6 -21 -14 -42q-7 -28 -96 -260q-25 -57 -44 -86l20 -13q7 -4 25 -21q0 4 8 23q12 36 25 70zM161 677l94 -71q24 -18 53 -50q12 21 28 39
q-66 54 -149 116l-15 -21q-6 -6 -11 -13v0z" />
  </g>

</svg>
