<?xml version="1.0" standalone="no"?>
<!DOCTYPE svg PUBLIC "-//W3C//DTD SVG 1.1//EN" "http://www.w3.org/Graphics/SVG/1.1/DTD/svg11.dtd" >
<svg xmlns="http://www.w3.org/2000/svg" xmlns:xlink="http://www.w3.org/1999/xlink" version="1.1" viewBox="-10 0 1010 1000">
   <path fill="currentColor"
d="M462 4q47 0 92 6q16 2 9 16q-13 22 -13 44q0 20 8 56q1 7 2 11q257 -48 303 -67l12 89q-126 8 -296 46q20 62 42 91q105 -59 157 -109q57 35 81 57q13 13 -28 24l-12 4q-25 11 -98 51q-36 20 -56 31q60 47 133 51q29 -5 41 -93q27 43 78 57q-36 119 -94 116
q-124 0 -228 -98q-97 43 -222 80q-11 -53 -58 -80q121 -14 239 -59q-26 -42 -48 -111q-146 28 -177 39l-14 -85q38 3 143 -16q20 -3 26 -4q-15 -73 -22 -147zM165 28q74 42 158 109l-67 76q-72 -72 -147 -113zM99 248q89 40 175 98l-54 77q-84 -60 -170 -99zM155 465
q34 36 87 51q-53 176 -91 357q-43 -44 -99 -77q67 -156 103 -331zM286 504q47 9 113 10h395q67 -1 113 -10v84q-53 -9 -101 -10h-114v147q2 46 12 54q7 10 46 11q55 3 70 -17q17 -18 19 -88q42 43 94 48q-23 83 -44 105q-23 27 -70 27h-73q-86 -1 -107 -15q-23 -13 -22 -64
v-208h-89q-9 155 -62 214q-63 67 -190 99q-14 -41 -80 -81q143 0 194 -51q57 -51 56 -181h-51q-69 -1 -109 8v-82z" />
</svg>
