<?xml version="1.0" standalone="no"?>
<!DOCTYPE svg PUBLIC "-//W3C//DTD SVG 1.1//EN" "http://www.w3.org/Graphics/SVG/1.1/DTD/svg11.dtd" >
<svg xmlns="http://www.w3.org/2000/svg" xmlns:xlink="http://www.w3.org/1999/xlink" version="1.1" viewBox="-10 0 1010 1000">
   <path fill="currentColor"
d="M560 -4q56 0 73 1q21 1 22 3t-5 9q-13 16 -13 31v70h83q93 0 131 -2q39 -1 60 -6v81q-17 -4 -52 -5q-17 -1 -47 -1h-90h-85v89h99q72 -1 119 -6q-2 24 -3 58q-1 17 -1 38v57v101q2 123 6 151h-87q2 -14 3 -45q1 -15 1 -36v-54v-196h-336v200q0 112 8 143h-91
q6 -47 6 -147v-109q0 -104 -10 -159q45 3 133 4h79v-210q0 -39 -3 -60zM204 20q148 99 183 131l-64 72q-80 -84 -174 -137zM85 205q18 11 72 42q93 54 119 71l-56 71q-75 -62 -186 -117zM560 377q99 10 101 16q0 2 -8 8q-14 10 -14 18q0 173 -18 240q-52 134 -294 246
q-13 -43 -65 -77q224 -65 276 -177q38 -87 22 -274zM196 441q35 34 78 49q-88 223 -105 391q-8 -6 -24 -20q-40 -35 -74 -51q83 -137 125 -369zM675 655q113 65 242 155l-68 77q-126 -112 -230 -166z" />
</svg>
