<?xml version="1.0" standalone="no"?>
<!DOCTYPE svg PUBLIC "-//W3C//DTD SVG 1.1//EN" "http://www.w3.org/Graphics/SVG/1.1/DTD/svg11.dtd" >
<svg xmlns="http://www.w3.org/2000/svg" xmlns:xlink="http://www.w3.org/1999/xlink" version="1.1" viewBox="-10 0 1010 1000">
   <path fill="currentColor"
d="M558 20q54 1 95 8q13 2 4 23q-12 30 -12 55v87h105q47 1 109 -8q-9 49 -8 107v151q-1 63 8 103q-44 -9 -103 -8h-111v202q8 -1 28 -3q67 -7 117 -10q-14 -31 -50 -88l81 -26q65 101 112 233l-102 29q-7 -41 -21 -79q-6 1 -23 2q-353 28 -468 58l-35 -104q109 9 281 -6
v-208h-115q-1 53 8 83h-99q12 -37 12 -121v-206q0 -57 -12 -109q63 8 119 8h87v-81q1 -61 -7 -92zM167 52q103 60 172 121l-65 75q-81 -76 -169 -127zM565 260h-115v211h115v-211zM645 260v211h127v-211h-127zM105 282q76 30 195 103l-58 86q-101 -76 -184 -111zM188 506
q35 39 86 56q-54 151 -93 321q-61 -33 -114 -51q95 -162 121 -326z" />
</svg>
