<?xml version="1.0" standalone="no"?>
<!DOCTYPE svg PUBLIC "-//W3C//DTD SVG 1.1//EN" "http://www.w3.org/Graphics/SVG/1.1/DTD/svg11.dtd" >
<svg xmlns="http://www.w3.org/2000/svg" xmlns:xlink="http://www.w3.org/1999/xlink" version="1.1" viewBox="-10 0 1034 1024">
  <g transform="matrix(1 0 0 -1 0 820)">
   <path fill="currentColor"
d="M919 -10q-1 -36 -10 -64q-15 -48 -45 -48q-18 0 -52 19q-24 15 -71 64q-27 27 -52 65q9 6 19 17l77 66q19 18 39 38q21 22 36 33q6 4 31 19q-25 16 -52 39q-16 -25 -29 -40q-15 -19 -44 -48q-28 -30 -49 -48q-18 -18 -48 -40q-21 36 -42 96q-22 60 -29 97l265 47
q15 3 58 5l-9 54q-30 -15 -56 -20l-264 -48l-13 61q-1 21 -11 84q0 9 -2 18l254 40q13 3 65 7q-6 25 -10 50q-42 -13 -60 -17l-253 -43l-4 90l-2 66q0 67 19 108q-36 1 -67 8l5 -78l5 -120q0 -33 3 -81l-129 -19q-37 -3 -74 -8q4 -25 10 -51q31 10 65 20l131 21
q15 -91 18 -117q1 -21 9 -50l-178 -28q-42 -6 -65 -7q4 -25 10 -52q16 4 30 10q10 3 36 8l173 32q42 -135 77 -210q-31 -21 -77 -48q-48 -27 -94 -50q-99 -43 -163 -48q24 -24 46 -49q96 40 169 77q67 36 142 82q43 -61 96 -107q66 -57 112 -58q12 0 28 7q31 13 48 58
q10 27 28 94q-21 12 -49 34q-1 -18 -1 -37zM692 713l-22 16q-12 -18 -28 -37q87 -52 150 -105q9 18 25 37l-75 55zM47 435q111 -66 163 -122q10 21 26 39q-36 30 -122 90l-42 30q-12 -21 -25 -37zM82 -112q24 -15 48 -33q0 3 57 155l50 130q18 45 32 83q-16 13 -35 38
q-12 -58 -70 -204q-51 -130 -82 -169zM178 723q-9 -13 -31 -35q108 -84 118 -94q21 -19 42 -43q12 16 34 37q-42 37 -75 64q-76 60 -88 71v0z" />
  </g>

</svg>
