<?xml version="1.0" standalone="no"?>
<!DOCTYPE svg PUBLIC "-//W3C//DTD SVG 1.1//EN" "http://www.w3.org/Graphics/SVG/1.1/DTD/svg11.dtd" >
<svg xmlns="http://www.w3.org/2000/svg" xmlns:xlink="http://www.w3.org/1999/xlink" version="1.1" viewBox="-10 0 1034 1024">
  <g transform="matrix(1 0 0 -1 0 820)">
   <path fill="currentColor"
d="M229 344q3 3 8 11l-78 64l-60 47q-9 7 -15 13q-12 -18 -28 -36l92 -69q31 -27 62 -56zM254 154q24 64 33 78q-25 30 -39 50q-7 -39 -24 -84q-9 -27 -24 -63q-15 -40 -39 -93q-21 -52 -37 -83q-12 -24 -29 -47q6 -6 15 -13q18 -15 29 -31l28 73l44 109q21 52 43 104z
M146 695q111 -84 153 -133q12 22 20 30q4 6 10 10q-40 33 -75 65l-78 63q-10 -16 -30 -35zM592 254q-7 -48 -27 -99q-31 -82 -96 -160q-82 -96 -174 -130q27 -15 51 -39l61 50q61 49 117 125q36 48 58 94q21 54 48 134q36 -114 114 -214q78 -99 187 -173q4 7 21 19q3 3 7 6
l21 18q-88 30 -175 124q-100 117 -141 245l242 -1q22 0 41 -5v47q-24 -4 -67 -5h-242q4 58 7 122q3 70 4 176l218 -1q15 0 32 -5v47q-21 -4 -65 -5h-185v79q0 15 3 30q3 21 19 38h-65q1 -6 2 -15l3 -132h-179q-36 0 -61 4q-3 1 -6 1v-47q24 6 44 6h202q0 -96 -3 -163
q-1 -63 -9 -135h-209q-33 0 -54 3q-1 0 -13 2v-47l67 6h202zM510 363q10 9 27 17q-18 25 -50 65q-33 39 -65 75q-6 -6 -16 -14q-9 -9 -21 -15q79 -79 113 -137zM747 353q9 -4 16 -7l51 78q33 49 73 77q-12 6 -25 14l-6 2q-7 3 -10 6q-4 3 -9 5q-4 -6 -8 -13q-16 -28 -42 -64
q-27 -39 -64 -87q6 -1 15 -5z" />
  </g>

</svg>
