<?xml version="1.0" standalone="no"?>
<!DOCTYPE svg PUBLIC "-//W3C//DTD SVG 1.1//EN" "http://www.w3.org/Graphics/SVG/1.1/DTD/svg11.dtd" >
<svg xmlns="http://www.w3.org/2000/svg" xmlns:xlink="http://www.w3.org/1999/xlink" version="1.1" viewBox="-10 0 1034 1024">
  <g transform="matrix(1 0 0 -1 0 820)">
   <path fill="currentColor"
d="M643 195l211 -1l40 -4l-3 28q-3 22 -3 30l1 245q1 22 5 45l-56 -6h-195v156q0 15 2 30q1 24 12 38h-57q1 -33 5 -68v-156l-220 5q-4 1 -7 1q1 -28 5 -59l-1 -252q-1 0 -4 -34v-3q49 4 72 5h155v-254q-21 0 -40 -1q-205 -9 -223 -10q-15 1 -36 2q9 -27 15 -54l122 15
l441 33q34 -63 42 -80q21 13 41 24l-88 138l-69 102q-21 -12 -39 -22q45 -57 67 -92l24 -35l-177 -15q-19 0 -42 -2v251zM420 231v266h185v-266h-185zM643 231v266h207v-266h-207zM52 414l65 -40q66 -42 106 -79q12 24 26 41q-28 21 -76 53q-15 9 -41 29l-56 36
q-4 -9 -10 -18q-3 -1 -4 -7q-3 -7 -10 -15zM221 28q19 54 38 97q19 48 32 81q-18 13 -34 37q-9 -34 -27 -81l-52 -135q-43 -105 -70 -137q24 -19 44 -39q39 106 69 177zM133 667q33 -19 88 -65q54 -45 76 -70q10 18 32 39q-24 21 -68 56l-99 76q-6 -10 -16 -22
q-7 -6 -13 -14v0z" />
  </g>

</svg>
