<?xml version="1.0" standalone="no"?>
<!DOCTYPE svg PUBLIC "-//W3C//DTD SVG 1.1//EN" "http://www.w3.org/Graphics/SVG/1.1/DTD/svg11.dtd" >
<svg xmlns="http://www.w3.org/2000/svg" xmlns:xlink="http://www.w3.org/1999/xlink" version="1.1" viewBox="-10 0 1010 1000">
   <path fill="currentColor"
d="M546 -8q104 24 109 30q0 2 -7 7q-11 9 -17 17q97 211 327 288q-59 49 -79 89q-41 -21 -109 -73v67q-39 -8 -131 -8h-76q-38 0 -114 6q-17 2 -24 2v-65q-4 4 -12 13q-61 63 -80 78q-30 -31 -77 -50q198 -125 290 -401zM175 46q118 67 184 115l-63 76q-90 -75 -179 -120z
M587 98q-62 130 -145 230q66 10 118 10h75q77 0 111 -10q-115 -112 -159 -230zM85 264q23 13 68 37q78 42 107 61l-58 75q-64 -58 -168 -99zM169 473q32 24 68 38q12 4 13 7q-86 284 -95 365q-4 0 -25 -12q-44 -25 -76 -37q76 -154 115 -361zM893 504v86q-13 -1 -42 -3
q-71 -5 -113 -5h-143q-26 34 -77 102q-60 80 -78 102q81 -3 290 -20q-61 -89 -89 -111l77 -36q89 115 179 241l-93 41q-8 -20 -40 -69q-27 2 -75 6q-322 23 -346 43q-12 -51 -33 -91q51 -5 77 -44q50 -64 113 -164h-42q-99 0 -162 8v-86q97 8 166 8h278q86 0 153 -8z" />
</svg>
