<?xml version="1.0" standalone="no"?>
<!DOCTYPE svg PUBLIC "-//W3C//DTD SVG 1.1//EN" "http://www.w3.org/Graphics/SVG/1.1/DTD/svg11.dtd" >
<svg xmlns="http://www.w3.org/2000/svg" xmlns:xlink="http://www.w3.org/1999/xlink" version="1.1" viewBox="-10 0 1010 1000">
   <path fill="currentColor"
d="M153 8q81 52 153 111l-60 66q-85 -75 -149 -109zM312 32q44 11 119 14h361q65 0 105 -12q-12 45 -10 83q-1 57 8 90h-97q11 -31 10 -94h-411q-1 67 10 96h-99q11 -43 11 -92q1 -45 -7 -85zM514 133q61 18 91 30q14 5 -1 18q-14 12 -21 22q-1 2 -5 7q-23 32 -28 42h216
q60 -1 113 -12v84q-40 -8 -101 -8h-258q-8 20 -59 113q-11 21 -17 32h133v-42q0 -37 -4 -65q-1 -10 0 -12q46 1 88 8q16 3 11 18q-15 39 -15 89h121q50 0 81 -9q5 -1 6 -1v87q-2 0 -14 -2q-41 -8 -73 -8h-125v107h168q54 0 93 -6q10 -2 13 -2v86q-1 0 -9 -1q-48 -9 -97 -9
h-168v103q-1 63 8 87h-94q10 -33 10 -101v-89h-200q-80 -1 -117 8v-84q40 7 117 8h200v-109q-82 -1 -130 2q-42 3 -100 14l-28 -77q42 -2 74 -54q30 -55 45 -89h-19q-62 -1 -107 10v-86q47 9 113 10h43q31 -61 46 -119zM103 219q61 27 167 97l-58 81q-93 -72 -158 -107z
M161 427q33 39 85 50q-72 280 -81 385q-53 -44 -105 -62q84 -214 101 -373z" />
</svg>
