<?xml version="1.0" standalone="no"?>
<!DOCTYPE svg PUBLIC "-//W3C//DTD SVG 1.1//EN" "http://www.w3.org/Graphics/SVG/1.1/DTD/svg11.dtd" >
<svg xmlns="http://www.w3.org/2000/svg" xmlns:xlink="http://www.w3.org/1999/xlink" version="1.1" viewBox="-10 0 1034 1024">
  <g transform="matrix(1 0 0 -1 0 820)">
   <path fill="currentColor"
d="M627 100h-244q-36 0 -53 2q-7 1 -13 3v-47q6 3 13 3q24 3 53 3h244l-1 -184q-1 -1 -2 -24q0 -6 -2 -11h48q-3 21 -5 42v177h227q13 0 51 -3q6 0 12 -3v47q-31 -1 -63 -5h-227v137l211 -3q3 0 7 -3v47l-31 -4l-187 -1q0 99 3 108q1 15 10 26h-56q1 -33 5 -66v-68h-196
l69 106l41 75l341 -1q9 0 20 -3q3 -1 5 -3v48q-4 0 -9 -1q-4 -1 -22 -4l-316 -1q31 63 51 91q12 18 34 33l-59 28q-12 -34 -28 -67q-15 -36 -42 -85l-146 1q-4 0 -20 5v-48q6 3 30 6l117 1q-34 -64 -71 -118q-27 -39 -53 -66l15 -46q58 12 87 13h152v-137zM363 610
q-3 -55 -5 -59h48q-3 21 -5 42v83h470q-3 -120 -5 -124h48q-3 21 -5 42q0 78 2 89q0 15 3 34q-49 -4 -57 -5l-458 1q-6 1 -13 2q-12 0 -28 2q4 -90 5 -93v-14zM63 445q105 -54 164 -106q12 24 24 42l-69 45l-94 58zM98 -78l31 -22q10 30 21 47q1 3 3 5q6 19 25 55
q109 220 126 256q-18 18 -25 31l-4 8q-21 -48 -51 -109l-45 -94q-30 -60 -66 -120q-21 -31 -35 -46q9 -4 20 -11zM147 711q118 -90 151 -126q7 13 21 30q3 3 7 9q-24 21 -66 54q-42 34 -86 67q-9 -12 -21 -27q-3 -3 -6 -7v0z" />
  </g>

</svg>
