<?xml version="1.0" standalone="no"?>
<!DOCTYPE svg PUBLIC "-//W3C//DTD SVG 1.1//EN" "http://www.w3.org/Graphics/SVG/1.1/DTD/svg11.dtd" >
<svg xmlns="http://www.w3.org/2000/svg" xmlns:xlink="http://www.w3.org/1999/xlink" version="1.1" viewBox="-10 0 1034 1024">
  <g transform="matrix(1 0 0 -1 0 820)">
   <path fill="currentColor"
d="M58 441q16 -6 52 -28q36 -21 69 -45q4 -3 11 -9l25 -19l29 39q-94 66 -162 103q-13 -25 -24 -41zM252 297q-9 -36 -20 -72q-12 -39 -33 -95q-30 -84 -53 -137q-19 -43 -38 -73q27 -15 47 -33l26 83q72 201 80 215q16 40 29 69q-21 21 -38 43zM149 687q12 -6 48 -34
q4 -4 59 -53q13 -12 32 -35q13 21 30 36l-115 106q-13 12 -28 21l-32 -36q3 -1 6 -5zM439 437q-72 -3 -74 -4l-88 5v-46q42 6 116 5h12l-11 -398q-3 -33 -23 -56q18 -25 33 -54q28 48 58 80l61 73l58 64q-9 21 -16 49q-60 -78 -133 -161l12 378q0 18 5 66q-6 0 -10 -1z
M518 613q-16 18 -30 29q-15 13 -44 37l-70 57q-18 -24 -32 -36q30 -19 61 -43q57 -45 85 -76q6 4 11 11q1 3 19 21zM734 557v-283l-163 1q-12 3 -35 4v-46q54 4 76 5h122l-5 -381h48q0 9 -2 17q-1 24 -3 50v314l183 -3q3 0 15 -2v46q-33 -1 -66 -5h-132v283q126 0 143 -3
q3 1 8 0q4 0 17 -2v46q-33 -1 -66 -5h-230q15 45 47 117q9 18 30 34q-28 9 -59 26q-18 -84 -66 -192q-43 -99 -98 -152q36 -3 60 -10l34 64l32 67q3 4 5 10h105z" />
  </g>

</svg>
