<?xml version="1.0" standalone="no"?>
<!DOCTYPE svg PUBLIC "-//W3C//DTD SVG 1.1//EN" "http://www.w3.org/Graphics/SVG/1.1/DTD/svg11.dtd" >
<svg xmlns="http://www.w3.org/2000/svg" xmlns:xlink="http://www.w3.org/1999/xlink" version="1.1" viewBox="-10 0 1010 1000">
   <path fill="currentColor"
d="M210 20q30 23 113 95q30 26 44 38l-67 68q-74 -94 -151 -137zM403 54q24 2 55 3q15 1 33 1h47h168q66 0 94 -1q33 -1 57 -3q-2 26 -3 63q-1 18 -1 42v62q0 116 6 178q-8 -1 -35 -2h-33h-59h-71v137h91h75q24 0 39 -1q30 0 41 -3v72q-10 -3 -43 -3q-16 -1 -42 -1h-78h-83
v186q79 2 167 -1q83 -2 126 -7q-29 31 -33 84h-122q-41 -1 -68 -2q-55 -1 -106 -8q-129 -17 -188 -167q-55 108 -125 190q-43 -30 -92 -43q88 -61 137 -147q54 -110 58 -222q95 18 93 24q1 1 -6 10q-12 17 -18 29q-13 28 -10 56q21 126 109 186v-369h-57q-22 1 -64 1
q-40 0 -61 1q9 -64 8 -176q0 -115 -6 -169zM490 127v201h282v-201h-282zM89 209q84 48 169 115l-56 71q-80 -78 -162 -117zM218 439q34 43 74 63q-72 165 -135 375q-45 -51 -86 -73q109 -170 147 -365z" />
</svg>
