<?xml version="1.0" standalone="no"?>
<!DOCTYPE svg PUBLIC "-//W3C//DTD SVG 1.1//EN" "http://www.w3.org/Graphics/SVG/1.1/DTD/svg11.dtd" >
<svg xmlns="http://www.w3.org/2000/svg" xmlns:xlink="http://www.w3.org/1999/xlink" version="1.1" viewBox="-10 0 1034 1024">
  <g transform="matrix(1 0 0 -1 0 820)">
   <path fill="currentColor"
d="M71 407q22 -9 69 -37l44 -27q9 -4 38 -26q9 21 22 37q-36 24 -79 51q-33 21 -70 40q-6 -9 -11 -20q-6 -9 -13 -18zM88 -115q39 -27 48 -35q10 28 21 56l41 99l51 116q18 46 35 77q0 1 -32 44q-12 -40 -28 -82q-18 -45 -45 -105q-30 -69 -51 -109q-15 -28 -40 -61z
M130 673q33 -18 96 -62l50 -41l13 16q3 6 13 18q-72 60 -146 106q-4 -6 -9 -14q-9 -10 -17 -23zM652 552l255 -1q28 0 41 -4v46q-12 -1 -19 -2q-24 0 -49 -3h-228v115q0 31 13 69h-56q0 -10 3 -23q3 -45 3 -84v-77h-209q-33 0 -59 4q-3 0 -8 1v-46q33 3 67 5h209v-119
l-186 1q-15 3 -48 4q1 -31 5 -65l-5 -541h47l-4 43l-1 184h192q0 -111 -2 -137q-3 -3 -3 -33q-1 -1 -1 -6h49q-6 42 -6 88v88h199v-127q0 -31 -12 -40t-39 -9q-13 0 -68 5q10 -19 21 -53l48 4q48 6 69 24q18 18 19 63l1 466q0 18 4 46q-33 -1 -68 -5h-174v119zM423 95v134
h192v-134h-192zM423 265v132h192v-132h-192zM652 95v134h199v-134h-199zM652 265v132h199v-132h-199zM777 662q3 -1 5 -3q3 -1 8 -7l47 -36l9 12q6 7 18 18q-42 39 -112 84q-1 -4 -8 -13q-15 -19 -16 -22z" />
  </g>

</svg>
