<?xml version="1.0" standalone="no"?>
<!DOCTYPE svg PUBLIC "-//W3C//DTD SVG 1.1//EN" "http://www.w3.org/Graphics/SVG/1.1/DTD/svg11.dtd" >
<svg xmlns="http://www.w3.org/2000/svg" xmlns:xlink="http://www.w3.org/1999/xlink" version="1.1" viewBox="-10 0 1010 1000">
   <path fill="currentColor"
d="M546 -2q80 3 97 14q0 2 -4 9q-18 29 -18 65v63h123q-20 -59 -52 -103l80 -38q39 48 63 98l-77 43h54q66 -1 99 -12v86q-24 -7 -85 -6h-11h-194v87h129q31 0 49 -1q21 -2 58 -7q-8 48 -8 103v435q12 59 -147 63q7 -44 -27 -93q40 2 53 2q18 0 27 -3q19 -5 19 -29v-75h-153
v71q-1 77 8 111h-87q5 -23 7 -46q1 -19 1 -65v-71h-135v69q0 52 1 78q2 29 5 49h-96q6 -21 8 -49q1 -14 2 -31v-47v-369q1 -63 -8 -105q47 10 115 10h108v-87h-131q-64 0 -109 10v-90q44 12 105 12h135q0 -61 -1 -90q-1 -34 -3 -61zM169 32q65 42 139 115l-70 66
q-61 -69 -135 -117zM111 252q108 59 155 106l-62 77q-66 -70 -152 -113zM550 367h-135v106h135v-106zM621 367v106h153v-106h-153zM171 471q28 32 87 49q-78 224 -95 349l-105 -59q92 -171 113 -339zM550 532h-135v103h135v-103zM621 532v103h153v-103h-153z" />
</svg>
