<?xml version="1.0" standalone="no"?>
<!DOCTYPE svg PUBLIC "-//W3C//DTD SVG 1.1//EN" "http://www.w3.org/Graphics/SVG/1.1/DTD/svg11.dtd" >
<svg xmlns="http://www.w3.org/2000/svg" xmlns:xlink="http://www.w3.org/1999/xlink" version="1.1" viewBox="-10 0 1010 1000">
   <path fill="currentColor"
d="M579 -12q87 4 111 16q0 2 -4 10q-15 30 -15 62v83h127q65 -1 99 -10v86q-25 -8 -97 -8h-129v140h164q61 0 109 -9v89q-39 -9 -101 -8h-436q-66 -1 -113 8v-89q49 9 123 9h170v-140h-141q-17 46 -41 97q-38 -27 -86 -24q67 -103 90 -266q85 18 103 32q0 3 -9 15
q-15 20 -19 31q-8 18 -18 47h121v-85q0 -51 -8 -86zM157 34q86 47 158 105l-57 76q-79 -76 -155 -111zM85 252q85 40 173 108l-50 79q-85 -73 -172 -109zM185 500q7 4 22 12q48 25 61 36q-66 188 -85 345q-69 -52 -100 -67q70 -157 102 -326zM369 512q46 9 131 8h254
q76 1 111 -8q-9 47 -8 107v123q0 134 10 157h-103q8 -36 8 -81h-308q0 68 6 89h-103q11 -50 12 -151v-127q0 -55 -10 -117zM774 592h-312v154h312v-154z" />
</svg>
