<?xml version="1.0" standalone="no"?>
<!DOCTYPE svg PUBLIC "-//W3C//DTD SVG 1.1//EN" "http://www.w3.org/Graphics/SVG/1.1/DTD/svg11.dtd" >
<svg xmlns="http://www.w3.org/2000/svg" xmlns:xlink="http://www.w3.org/1999/xlink" version="1.1" viewBox="-10 0 1034 1024">
  <g transform="matrix(1 0 0 -1 0 820)">
   <path fill="currentColor"
d="M145 462l-42 31q-6 6 -12 10q-15 -24 -29 -37q27 -16 78 -55q49 -39 73 -62l1 -1q12 18 32 37q-6 3 -12 8q-24 18 -50 39zM256 167q10 24 20 52q6 13 11 21q-12 12 -17 21l-16 33l-40 -121q-16 -45 -47 -116l-37 -85q-9 -16 -30 -47q15 -9 49 -41q12 49 73 197
q16 43 34 86zM338 610q-21 19 -39 35l-44 36q-30 24 -77 67q-6 -7 -10 -15q-10 -12 -21 -20q87 -64 160 -138q9 13 31 35zM444 -5q-1 -16 -1 -33q-1 -13 -3 -28q-1 -1 -1 -5h47l-5 66v227h154q0 -352 -3 -377q-1 -3 -1 -8q-1 -3 -1 -6h48q-3 33 -5 67v324h176v-201
q0 -18 -11 -25q-15 -7 -47 -8q-16 0 -42 4q9 -18 19 -52q72 7 96 23q22 15 23 56l1 199l4 45q-60 -4 -95 -5h-124q0 39 5 49q3 15 16 30h-64q3 -15 4 -36l1 -43h-146q24 36 50 71l45 66l333 -1q24 0 40 -5v46l-105 -5h-250q4 9 9 16q15 27 49 49q-30 10 -62 26
q-10 -30 -21 -50q-9 -19 -22 -41l-226 3q-3 1 -9 2v-46q4 3 52 6h163q-69 -108 -149 -191q-39 -39 -64 -56q-24 -15 -60 -28q30 -16 50 -39q22 18 50 43q33 30 82 82v-211zM408 480q78 36 144 73q24 15 48 28q21 9 42 22l127 -77q34 -21 77 -56l8 20l16 25q-24 12 -195 115
q4 3 77 59q42 34 93 52q-16 9 -27 16q-9 6 -30 25q-13 -16 -34 -35l-73 -62q-15 -13 -44 -34q-111 58 -128 66q-39 18 -72 37l-8 4q-15 -22 -35 -40q132 -51 205 -94q-48 -27 -101 -55q-84 -37 -134 -44q3 0 13 -10t31 -35v0z" />
  </g>

</svg>
