<?xml version="1.0" standalone="no"?>
<!DOCTYPE svg PUBLIC "-//W3C//DTD SVG 1.1//EN" "http://www.w3.org/Graphics/SVG/1.1/DTD/svg11.dtd" >
<svg xmlns="http://www.w3.org/2000/svg" xmlns:xlink="http://www.w3.org/1999/xlink" version="1.1" viewBox="-10 0 1034 1024">
  <g transform="matrix(1 0 0 -1 0 820)">
   <path fill="currentColor"
d="M229 347q6 7 14 18q-21 19 -43 33l-71 48q-15 12 -41 26q-12 -21 -24 -39q93 -49 153 -103q6 9 12 17zM108 -105q27 -16 45 -41l32 83l58 146l47 105q-21 27 -35 48q-16 -61 -41 -128q-24 -63 -43 -106q-16 -34 -48 -91q-3 -4 -15 -16zM161 669q-1 -1 -4 -6q15 -7 60 -41
q6 -3 50 -40q18 -15 34 -30q9 15 24 33q-37 42 -141 114q0 -1 -23 -30zM624 358h-248q-30 0 -59 4q-4 1 -8 1v-47q3 1 35 5l548 1q37 0 58 -4q3 0 10 -2v47q-18 -1 -16 -2q-25 0 -52 -3h-230v168l207 -3q3 0 14 -2v46q-33 -1 -67 -5h-154v115q0 30 12 69h-55l4 -48l1 -136
h-171l9 28q7 21 17 40q6 19 35 44q-21 4 -44 14q-7 3 -19 7q-4 -39 -38 -128q-24 -58 -44 -90q-21 -30 -45 -50q34 -6 59 -15q48 106 54 114h187v-168zM423 -79l-4 -59q0 -3 -1 -8h47q-3 16 -4 41q0 18 -1 26h353q-1 -12 -1 -24q-1 -16 -3 -34q0 -4 -2 -8h50q-7 67 -8 135
q-3 48 0 106q1 60 8 122q-63 -6 -84 -6l-311 1q-9 1 -44 5q1 -31 5 -64v-233zM460 -44v220h353v-220h-353z" />
  </g>

</svg>
