<?xml version="1.0" standalone="no"?>
<!DOCTYPE svg PUBLIC "-//W3C//DTD SVG 1.1//EN" "http://www.w3.org/Graphics/SVG/1.1/DTD/svg11.dtd" >
<svg xmlns="http://www.w3.org/2000/svg" xmlns:xlink="http://www.w3.org/1999/xlink" version="1.1" viewBox="-10 0 1010 1000">
   <path fill="currentColor"
d="M165 -2q81 50 150 117l-69 68q-46 -57 -147 -127zM859 -2q68 77 60 96q-2 2 -18 0q-40 -4 -68 0q-180 22 -474 39q0 -41 -36 -77q307 -3 536 -58zM792 125l83 36q-36 69 -93 155q-23 -23 -74 -26q52 -81 84 -165zM633 147q8 21 32 145l-86 8l-3 -21q-10 -71 -22 -120z
M442 159q39 62 58 137l-81 24q-14 -67 -52 -135zM95 237q104 46 173 97l-54 77q-87 -61 -174 -103zM365 352q68 4 115 4h248q121 -1 159 -4v89q-48 3 -222 95v32h135q65 0 140 -8v79q-45 -3 -140 -4h-135v191q13 71 -159 71q0 -52 -28 -97q71 13 87 6q21 -5 20 -38v-135
h-156q-111 0 -151 4v-75q45 3 153 4h154v-60l193 -83h-296q-69 1 -117 4v-75zM169 457l79 45q-70 271 -109 371l-85 -63q80 -188 115 -353z" />
</svg>
