<?xml version="1.0" standalone="no"?>
<!DOCTYPE svg PUBLIC "-//W3C//DTD SVG 1.1//EN" "http://www.w3.org/Graphics/SVG/1.1/DTD/svg11.dtd" >
<svg xmlns="http://www.w3.org/2000/svg" xmlns:xlink="http://www.w3.org/1999/xlink" version="1.1" viewBox="-10 0 1034 1024">
  <g transform="matrix(1 0 0 -1 0 820)">
   <path fill="currentColor"
d="M98 -92q25 -18 48 -35q6 25 28 71q1 6 41 99q63 153 71 166q6 13 13 26q-18 15 -37 39q-13 -49 -36 -104q-21 -57 -42 -100q-16 -40 -36 -78q-33 -63 -50 -84zM205 662q42 -33 67 -65q12 19 30 37q-63 52 -73 60l-69 55q-13 -21 -26 -34zM392 334l-59 4q-3 0 -5 1v-46
q66 6 99 5q519 0 532 -2q1 0 4 -1q1 0 12 -2v46l-100 -5h-57q3 63 14 147q0 6 8 59q-54 -4 -58 -5h-185l23 133l265 -1q15 0 29 -4v46l-63 -5l-452 1q-9 1 -17 2q-3 0 -12 2v-46q19 3 41 5h170l-23 -133q-114 0 -138 2q-1 0 -18 3v-46q54 4 77 5h73q-15 -87 -33 -165h-127z
M558 334l32 165h205l-15 -165h-222zM417 206q1 -33 5 -69l-1 -258l-4 -30h48q0 3 -2 5q-3 51 -4 71h377q-3 -63 -5 -76h48q0 3 -1 5q-3 7 -4 36l1 266l4 50q-39 -6 -62 -6l-354 1q-24 4 -46 5zM836 -39h-377v204h377v-204zM100 473q-9 6 -21 13q-10 -21 -23 -37
q36 -18 73 -44q48 -31 69 -53q13 21 30 37q-6 6 -19 13q-42 30 -53 35z" />
  </g>

</svg>
