<?xml version="1.0" standalone="no"?>
<!DOCTYPE svg PUBLIC "-//W3C//DTD SVG 1.1//EN" "http://www.w3.org/Graphics/SVG/1.1/DTD/svg11.dtd" >
<svg xmlns="http://www.w3.org/2000/svg" xmlns:xlink="http://www.w3.org/1999/xlink" version="1.1" viewBox="-10 0 1010 1000">
   <path fill="currentColor"
d="M567 0q105 5 106 14q0 2 -4 9q-14 24 -14 55v216h47q125 0 169 -10q-8 59 -8 195v313q10 86 -153 103q-2 -48 -41 -95q72 6 88 -4q20 -8 19 -48v-67h-336q0 105 2 149q1 46 6 65h-99q6 -19 8 -60q2 -38 2 -156v-206q0 -159 -10 -191q31 13 155 12h69v-216q0 -56 -6 -78z
M183 40q86 68 138 125l-63 62q-54 -67 -137 -125zM415 68q57 72 89 141l-71 35q-42 -87 -86 -134zM815 70q61 28 80 47q0 3 -12 12q-16 12 -22 20q-12 15 -37 50q-26 36 -42 57q-25 -21 -68 -35q49 -53 101 -151zM105 252q63 28 163 106l-50 71q-51 -47 -160 -109zM442 360
v97h334v-97h-334zM202 477q14 10 40 28q22 16 32 23q-64 172 -84 238q-9 31 -17 72q-6 27 -8 27q-34 -33 -88 -69q0 -2 6 -12q62 -107 119 -307zM440 518v97h336v-97h-336z" />
</svg>
