<?xml version="1.0" standalone="no"?>
<!DOCTYPE svg PUBLIC "-//W3C//DTD SVG 1.1//EN" "http://www.w3.org/Graphics/SVG/1.1/DTD/svg11.dtd" >
<svg xmlns="http://www.w3.org/2000/svg" xmlns:xlink="http://www.w3.org/1999/xlink" version="1.1" viewBox="-10 0 1010 1000">
   <path fill="currentColor"
d="M133 4q42 21 141 96l-56 71q-48 -44 -143 -99zM845 14q40 38 68 78q14 20 -21 18q-18 -1 -27 0q-29 3 -70 13l-27 6v189h44q62 1 95 -8v87q-31 -8 -95 -8h-44v211q60 0 86 -1q32 -2 61 -7v83q-45 -9 -157 -10h-77q-80 0 -153 12q11 -39 10 -119v-216q1 -48 -6 -80
q54 1 95 8q15 3 4 18q-22 30 -22 60v250h87v-451q-13 3 -42 9q-65 15 -104 23q-1 -3 -2 -9q-6 -36 -42 -68q217 -24 339 -88zM290 70q30 6 101 6q54 -1 109 -6q-65 194 -129 301l119 -8q-16 227 -73 344q84 72 273 73h145q6 0 37 -2q47 -4 82 -6q-39 42 -45 99q-1 0 -30 -1
q-240 -8 -353 -32q-93 -19 -147 -70q-56 77 -107 119q-37 -37 -89 -47q73 -47 142 -123q-49 -82 -83 -183l83 -24q12 75 44 141q34 -116 36 -218q-16 1 -40 3q-56 2 -95 13l-12 -76q66 -2 135 -228q-63 0 -103 8v-83zM81 242q69 31 157 86l-50 79q-63 -52 -152 -89zM151 463
q33 29 81 43q-63 235 -97 389q-53 -45 -93 -65q66 -106 109 -367z" />
</svg>
