<?xml version="1.0" standalone="no"?>
<!DOCTYPE svg PUBLIC "-//W3C//DTD SVG 1.1//EN" "http://www.w3.org/Graphics/SVG/1.1/DTD/svg11.dtd" >
<svg xmlns="http://www.w3.org/2000/svg" xmlns:xlink="http://www.w3.org/1999/xlink" version="1.1" viewBox="-10 0 1034 1024">
  <g transform="matrix(1 0 0 -1 0 820)">
   <path fill="currentColor"
d="M288 -109q45 36 74 65q28 30 76 87q25 -37 59 -64q54 -40 128 -59q58 -13 126 -19q78 -4 192 -4q6 24 22 59q-36 -9 -61 -13q-30 -3 -90 -4q-204 0 -297 74q-24 19 -55 62q34 76 49 135q7 34 15 79q7 48 15 113q-28 -1 -58 -5h-69q126 291 133 304q-57 -6 -86 -6
q-90 0 -112 3l-9 3v-48q9 4 34 5t109 2q-22 -64 -63 -153q-39 -88 -73 -151q45 4 68 5h81q-4 -132 -62 -251l-31 75q-16 52 -17 82q0 10 2 28q-37 -9 -56 -11l41 -126q13 -39 37 -86q-48 -63 -100 -110q-51 -42 -93 -51q27 -21 45 -42q12 12 26 22zM711 645l28 3v-534h-110
v327q0 12 13 64h-56l4 -35v-356q-3 -15 -4 -42l60 6l238 -1l30 -4l2 -1v47q-6 0 -9 -1q-1 0 -2 -1l-104 -3h-26v263l132 -3q3 0 7 -3v47l-31 -4l-108 -1v244q93 19 148 23q-28 33 -40 50q-40 -16 -95 -29q-82 -19 -154 -20q-25 0 -65 4q13 -18 25 -52l71 7q22 3 46 5z
M50 460q21 -10 57 -36q57 -39 99 -78q12 24 27 41q-69 51 -159 110zM118 -87q6 -3 18 -12q4 -4 9 -8q4 10 8 21q24 72 58 154q21 60 45 116l33 86q-15 13 -35 39q-10 -39 -29 -91q-21 -61 -53 -142q-46 -111 -75 -148zM145 698q18 -10 59 -44l85 -75l2 -2l31 39
q-25 22 -65 54l-83 62q-15 -19 -29 -34v0z" />
  </g>

</svg>
