<?xml version="1.0" standalone="no"?>
<!DOCTYPE svg PUBLIC "-//W3C//DTD SVG 1.1//EN" "http://www.w3.org/Graphics/SVG/1.1/DTD/svg11.dtd" >
<svg xmlns="http://www.w3.org/2000/svg" xmlns:xlink="http://www.w3.org/1999/xlink" version="1.1" viewBox="-10 0 1034 1024">
  <g transform="matrix(1 0 0 -1 0 820)">
   <path fill="currentColor"
d="M67 429q70 -43 99 -65q18 -13 41 -34q12 24 18 30q1 4 6 7l-156 105q-12 -21 -23 -33q7 -4 15 -10zM231 294q-3 -33 -12 -73q-4 -21 -14 -50q-9 -33 -23 -74q-51 -150 -73 -187q21 -9 48 -32q33 117 41 139q7 25 17 52q40 142 47 154q1 6 3 7q0 3 7 21q-28 24 -41 43z
M130 689l78 -60l72 -64l2 3l16 20q3 4 7 9q-24 22 -62 52l-90 71q-12 -15 -23 -31zM626 511l216 -1l47 -4q-6 51 -5 83q0 66 2 75q1 15 10 27q3 9 10 15h-65q3 -15 4 -36l1 -123h-219v153q0 15 3 29q3 21 18 38h-64q0 -6 2 -15l3 -154v-51h-209v79q0 39 22 68h-64l4 -55v-89
q-3 -12 -4 -44q15 3 52 4l190 1q-57 -108 -155 -198q-82 -70 -157 -92q19 -12 41 -38q166 94 288 276q60 -94 131 -153q91 -75 207 -132q18 27 43 47q-87 21 -182 85q-106 70 -175 192q1 7 5 13zM431 130q-33 3 -67 5v-47q15 4 37 5l354 1q-45 -81 -96 -145q-61 -69 -98 -89
q28 -12 51 -27q72 82 123 151q40 57 90 151q-31 -1 -64 -5h-330zM539 292q18 -16 50 -56q33 -42 45 -59q12 15 31 31l-48 57q-30 36 -49 53q-7 -10 -29 -26v0z" />
  </g>

</svg>
