<?xml version="1.0" standalone="no"?>
<!DOCTYPE svg PUBLIC "-//W3C//DTD SVG 1.1//EN" "http://www.w3.org/Graphics/SVG/1.1/DTD/svg11.dtd" >
<svg xmlns="http://www.w3.org/2000/svg" xmlns:xlink="http://www.w3.org/1999/xlink" version="1.1" viewBox="-10 0 1034 1024">
  <g transform="matrix(1 0 0 -1 0 820)">
   <path fill="currentColor"
d="M239 366q6 12 18 26q-93 72 -168 113q-10 -21 -24 -39q79 -43 88 -52q31 -21 79 -57q3 4 7 9zM113 -74q27 -21 47 -47q6 19 12 32l18 45l99 227q22 57 34 80q-18 15 -31 42q-7 -27 -16 -48q-9 -24 -26 -64l-52 -120q-18 -40 -39 -79q-15 -30 -26 -45q-6 -10 -20 -23z
M178 699q19 -15 34 -29q-3 3 15 -11l49 -40q18 -16 44 -43q24 25 29 31q-19 19 -48 44l-101 84q-12 -15 -28 -32q3 -1 6 -4zM610 -97l-6 -66h49q-4 49 -5 66v293h243q-3 -127 -5 -140q-4 -15 -13 -23q-15 -10 -62 -11q-24 0 -56 4q9 -18 20 -52q78 6 108 19q30 12 40 40
q6 24 6 98l5 107q-18 -1 -34 -3q-22 -3 -30 -3h-222v144l188 -1q24 -1 48 -5q-6 27 -5 90q0 87 2 100q0 18 3 37q-72 -4 -105 -5h-75q33 40 55 70q18 24 32 39q15 18 43 33q-27 12 -54 30q-18 -33 -52 -80q-33 -48 -71 -92h-217q-39 0 -58 4q-4 1 -8 1v-47q30 6 55 6h181
v-145l-173 1q-19 3 -44 4q-6 -151 -22 -225q54 6 88 5h123q-88 -100 -188 -173q-60 -42 -126 -61q30 -18 52 -39q72 43 156 116q84 72 134 133v-269zM417 232l14 144h179v-144h-193zM648 411v145h193v-145h-193zM423 727q19 -15 39 -35l80 -89q10 15 34 29l-76 79
q-24 24 -46 45q-13 -13 -31 -29v0z" />
  </g>

</svg>
