<?xml version="1.0" standalone="no"?>
<!DOCTYPE svg PUBLIC "-//W3C//DTD SVG 1.1//EN" "http://www.w3.org/Graphics/SVG/1.1/DTD/svg11.dtd" >
<svg xmlns="http://www.w3.org/2000/svg" xmlns:xlink="http://www.w3.org/1999/xlink" version="1.1" viewBox="-10 0 1034 1024">
  <g transform="matrix(1 0 0 -1 0 820)">
   <path fill="currentColor"
d="M74 481q24 -12 85 -58q54 -39 87 -69q12 21 25 34q-25 21 -56 43l-115 83q-10 -18 -26 -33zM156 -101q10 -10 26 -21q27 81 32 92q9 27 77 197q3 7 8 21q7 15 22 51q-18 18 -38 49q-7 -34 -20 -75q-15 -46 -41 -116q-46 -120 -82 -186q7 -6 16 -12zM205 748
q-9 -15 -27 -33q28 -15 73 -50q45 -36 89 -74q12 18 16 22q0 3 8 12zM412 -86q-3 -43 -4 -53q-1 -3 -2 -13h49q0 6 -2 13q-3 72 -4 102v97h430v-113q0 -30 -17 -40q-15 -6 -50 -7q-37 0 -69 6q6 -24 14 -50q10 1 23 1q24 0 47 3q43 1 65 15q24 16 25 61l1 424q0 19 4 48
q-33 -1 -68 -5l-402 1q-19 3 -46 4l6 -66v-428zM449 96v120h430v-120h-430zM449 251v116h430v-116h-430zM433 490q66 6 90 6l310 -1q24 -1 50 -5q-3 79 -4 84l4 151q-33 -1 -68 -5l-333 1q-19 3 -49 4q1 -30 5 -63q0 -106 -2 -135q-3 -3 -3 -37zM475 530v154h364v-154h-364z
" />
  </g>

</svg>
