<?xml version="1.0" standalone="no"?>
<!DOCTYPE svg PUBLIC "-//W3C//DTD SVG 1.1//EN" "http://www.w3.org/Graphics/SVG/1.1/DTD/svg11.dtd" >
<svg xmlns="http://www.w3.org/2000/svg" xmlns:xlink="http://www.w3.org/1999/xlink" version="1.1" viewBox="-10 0 1010 1000">
   <path fill="currentColor"
d="M671 2q84 2 97 12q0 3 -6 11q-14 23 -14 41v61h95q56 1 92 -8v82q-31 -9 -92 -8h-95q-1 71 8 95h-89q11 -24 10 -95h-133q-1 64 8 95h-90q9 -28 8 -95h-47q-56 0 -102 6v-80q31 8 108 8h39q0 -83 -4 -123q90 2 98 10q0 2 -4 7q-14 21 -14 57v49h133q1 -88 -6 -125z
M155 34q87 51 155 103l-64 72q-68 -65 -149 -107zM95 262q82 36 173 90l-52 83q-78 -64 -168 -99zM298 304q41 9 107 10h397q71 1 113 -10q-7 36 -6 85q-1 66 6 92h-96q6 -19 8 -41q2 -19 2 -59h-442q0 54 8 94h-99q10 -36 10 -86q0 -45 -8 -85zM526 425q97 7 105 18
q0 2 -5 10q-13 19 -17 35q-1 3 -2 11q-3 22 -6 29h153q46 1 83 -8q-2 21 -6 61q-20 209 -35 237q-23 58 -171 63q-4 -60 -48 -107q105 24 131 -6q24 -32 32 -172h-149q-28 114 -83 166q-77 71 -195 131q-27 -43 -83 -71q116 -27 189 -84q65 -53 91 -140h-70q-65 0 -105 8
v-86q47 9 105 8h86q6 -70 0 -103zM157 465q3 2 7 7q37 36 74 44q-60 207 -85 355q-51 -47 -109 -67q80 -96 113 -339z" />
</svg>
