<?xml version="1.0" standalone="no"?>
<!DOCTYPE svg PUBLIC "-//W3C//DTD SVG 1.1//EN" "http://www.w3.org/Graphics/SVG/1.1/DTD/svg11.dtd" >
<svg xmlns="http://www.w3.org/2000/svg" xmlns:xlink="http://www.w3.org/1999/xlink" version="1.1" viewBox="-10 0 1034 1024">
  <g transform="matrix(1 0 0 -1 0 820)">
   <path fill="currentColor"
d="M77 458q73 -51 141 -124q9 12 30 31q-21 24 -72 68q-39 36 -69 60q-3 -6 -9 -14q0 -1 -3 -3l-13 -13q-3 -1 -5 -5zM152 -112q19 54 33 83q7 21 22 49q84 192 91 204l6 13l1 2q-3 3 -34 41q-15 -55 -38 -111l-38 -89q-21 -48 -48 -99q-30 -52 -46 -71q24 -12 47 -32
q1 6 4 10zM170 711q-3 -6 -6 -8q28 -22 51 -43q13 -12 31 -30q19 -21 49 -51q9 12 29 30q-25 27 -61 61q-36 33 -72 65q0 -3 -5 -8q0 -1 -3 -3zM805 195l-6 -127l-7 -76q-6 -45 -23 -60q-27 -24 -87 -25q-18 0 -57 4q12 -21 25 -54q127 15 155 51q18 24 23 61q3 27 7 70
l9 152q3 36 4 45q-36 -1 -71 -5h-162q3 16 4 33q6 52 24 77q-60 7 -66 7q3 -30 3 -47q0 -24 -4 -70l-165 3q-3 1 -4 1q-6 0 -8 1v-46q42 6 116 5h56q-24 -151 -116 -238q-72 -61 -160 -78q24 -16 51 -42q135 72 195 161q24 37 40 80q15 48 29 117h195zM358 352l-4 -58
q0 -3 -1 -9h46l-4 89v31h513q0 -66 -2 -94q-3 -12 -3 -22h48q-6 55 -5 81q1 37 5 76q-36 -1 -71 -5l-479 1q-19 3 -48 4q1 -31 5 -65v-29zM529 630q-117 0 -142 2q-12 3 -20 3v-46q42 6 117 5h45q-1 -42 -3 -86q-3 -9 -3 -18h49q-6 51 -5 85v19h167l-5 -100h50q-3 13 -4 32
l-2 68l148 -3q6 0 11 -2v46q-9 -1 -17 -2q-37 0 -75 -3h-67v62q0 36 13 70h-57q1 -34 5 -70v-62h-167v53q0 33 13 70h-57q3 -18 6 -66v-57z" />
  </g>

</svg>
