<?xml version="1.0" standalone="no"?>
<!DOCTYPE svg PUBLIC "-//W3C//DTD SVG 1.1//EN" "http://www.w3.org/Graphics/SVG/1.1/DTD/svg11.dtd" >
<svg xmlns="http://www.w3.org/2000/svg" xmlns:xlink="http://www.w3.org/1999/xlink" version="1.1" viewBox="-10 0 1010 1000">
   <path fill="currentColor"
d="M192 0q82 46 177 123l-67 72q-78 -75 -177 -123zM395 34q33 6 161 6h156q129 0 167 -6v6q-6 71 -6 91v76q0 77 8 111q-45 -4 -129 -6h-85q-1 23 -4 52q-3 22 -4 39h135q94 -1 121 -4q-5 39 -8 119v268q3 62 -25 77q-25 19 -144 34q1 -60 -44 -111q82 18 107 8
q26 -7 24 -57v-268h-174q-3 18 -12 51q94 84 169 179q-44 15 -86 47q-56 -100 -105 -164q-55 128 -119 192q-44 -45 -87 -51q113 -86 160 -254h-168v258q0 77 1 108q1 37 5 56h-99q5 -29 8 -117q1 -25 1 -37v-211q-1 -66 -7 -129q21 4 97 5q35 0 45 1h129q3 -24 5 -63
q0 -18 1 -28h-71q-104 0 -125 6q6 -37 8 -101v-86q0 -70 -6 -97zM482 108v136h304v-136h-304zM101 229q106 44 183 97l-60 83q-54 -49 -176 -107zM183 443q25 41 77 59q-75 197 -121 363q-57 -50 -99 -69q94 -154 143 -353z" />
</svg>
