<?xml version="1.0" standalone="no"?>
<!DOCTYPE svg PUBLIC "-//W3C//DTD SVG 1.1//EN" "http://www.w3.org/Graphics/SVG/1.1/DTD/svg11.dtd" >
<svg xmlns="http://www.w3.org/2000/svg" xmlns:xlink="http://www.w3.org/1999/xlink" version="1.1" viewBox="-10 0 1010 1000">
   <path fill="currentColor"
d="M488 -10q92 25 99 36q0 4 -14 16t-21 20q-13 14 -26 33l-6 9l292 -12q-32 46 -78 113q-40 56 -57 81h73q53 1 105 -10q-9 29 -8 93v12v171q6 0 17 -1q51 -1 76 -9v83q-5 -1 -15 -2q-58 -6 -80 -6h-170q19 72 87 125q47 42 186 64q-46 31 -71 93q-132 -46 -190 -119
q-47 -55 -82 -159q-21 80 -77 147q-82 83 -211 139q-18 -50 -73 -85q106 -19 194 -78q67 -52 96 -127h-153q-68 -1 -101 8v-79q27 9 75 8v-165q1 -74 -8 -111q55 8 117 8h123l90 -121l-199 6q-3 3 -10 11q-54 58 -77 86q-47 -27 -93 -33q126 -91 190 -245zM171 28
q88 53 146 109l-67 70q-65 -77 -141 -115zM95 260q106 44 167 88l-60 79q-69 -60 -160 -93zM562 346h-131v208h119q12 -36 12 -208zM772 346h-137v5q-2 66 -4 84q-2 67 -10 119h151v-208zM171 467q2 2 6 5q24 27 75 44q-75 251 -95 371q-35 -27 -95 -57q82 -178 109 -363z
" />
</svg>
