<?xml version="1.0" standalone="no"?>
<!DOCTYPE svg PUBLIC "-//W3C//DTD SVG 1.1//EN" "http://www.w3.org/Graphics/SVG/1.1/DTD/svg11.dtd" >
<svg xmlns="http://www.w3.org/2000/svg" xmlns:xlink="http://www.w3.org/1999/xlink" version="1.1" viewBox="-10 0 1034 1024">
  <g transform="matrix(1 0 0 -1 0 820)">
   <path fill="currentColor"
d="M210 337q3 6 15 18q0 1 2 2q-51 51 -152 117l-24 -34q55 -36 148 -115q4 6 11 12zM97 -101q27 -15 45 -38q10 42 27 90q18 43 71 202q10 27 20 55q-15 18 -34 45q-6 -37 -16 -69q-9 -36 -29 -93q-45 -138 -84 -192zM150 703q0 -3 -17 -17l84 -70q28 -27 62 -62q6 9 14 17
l13 16q-27 30 -69 65q-40 34 -76 63q-6 -6 -11 -12zM816 628q9 13 19 27q-9 0 -74 -5h-255q28 43 42 55q10 12 41 27q-37 12 -64 28q-49 -99 -109 -166q-34 -36 -62 -58q-24 -18 -66 -36q31 -12 55 -29q40 34 69 64q28 30 68 79h278q-73 -91 -154 -160q-42 39 -63 63
q-18 24 -28 53q-18 -12 -47 -25l50 -57q22 -24 59 -59q-78 -60 -175 -98q-99 -37 -161 -41q24 -21 44 -46q112 39 184 76q70 34 138 85q141 -97 343 -136q9 21 34 50q-184 4 -346 111q102 99 125 130q27 34 55 68zM279 -89q28 -9 51 -24q28 24 56 54q33 33 86 93
q18 24 57 38q-27 12 -57 32q-33 -48 -71 -91q-39 -42 -68 -67q-25 -21 -54 -35zM634 215v46q0 13 2 32q3 22 10 38h-55q0 -12 3 -24l2 -92h-196q-39 0 -58 4q-4 1 -8 1v-47q6 3 26 4l40 2h196v-250q0 -27 -10 -36q-9 -9 -34 -10q-36 3 -71 5q15 -24 22 -40q21 -9 32 -10
l68 16q30 15 31 60v265q252 0 260 -2q9 -1 21 -4v47q-39 -4 -68 -5h-213zM731 47l46 -37l51 -45q42 -39 64 -67l31 34q-27 30 -80 77q-51 45 -102 87q-15 -19 -30 -33z" />
  </g>

</svg>
