<?xml version="1.0" standalone="no"?>
<!DOCTYPE svg PUBLIC "-//W3C//DTD SVG 1.1//EN" "http://www.w3.org/Graphics/SVG/1.1/DTD/svg11.dtd" >
<svg xmlns="http://www.w3.org/2000/svg" xmlns:xlink="http://www.w3.org/1999/xlink" version="1.1" viewBox="-10 0 1034 1024">
  <g transform="matrix(1 0 0 -1 0 820)">
   <path fill="currentColor"
d="M211 368q3 4 11 13l-50 42q-13 12 -26 20q-33 27 -61 46q-12 -19 -26 -35q57 -36 134 -107q3 6 18 21zM103 -56q24 -15 47 -40l28 89l60 174q30 78 37 98q-15 12 -40 40q-6 -40 -17 -77q-12 -40 -35 -101q-28 -78 -47 -122q-15 -33 -33 -61zM140 702l10 -10
q24 -19 47 -44q36 -33 62 -63q15 19 30 34q-105 102 -124 118q-4 -3 -11 -11q-15 -16 -20 -20q3 -1 6 -4zM602 290h-116q-40 0 -66 5v-46q18 6 66 6h116v-182q0 -33 -2 -41q0 -9 -2 -20q-1 -1 -1 -5h48q-3 33 -5 66v182h149q-3 -33 -5 -47q-6 -43 -16 -61q-12 -15 -43 -16
q-18 0 -44 6q6 -13 8 -23q1 -6 2 -10q3 -6 4 -16q13 0 28 2q60 6 79 37q7 16 12 35q18 105 22 133q-31 -1 -63 -5h-133v97q105 0 126 -2q15 0 28 -4v47q-21 -4 -66 -5h-88v77q127 0 144 -2q13 0 26 -4v47q-19 -4 -65 -5h-105v41q0 13 3 29q3 21 19 38h-65q3 -15 4 -36l1 -72
q-136 0 -149 3q-4 1 -8 1q-3 1 -5 1v-47q4 3 52 6h110v-77h-68q-34 0 -56 3q-1 0 -12 2v-47q3 1 37 5l99 1v-97zM343 708l4 -57l-3 -772q-1 -6 -2 -15h47l-4 41l-1 32h500q-3 -51 -5 -63h48q-3 31 -5 63l1 733q0 19 4 48q-31 -1 -64 -5l-475 1q-15 3 -46 4q0 -4 1 -10z
M884 677v-704h-500v704h500z" />
  </g>

</svg>
