<?xml version="1.0" standalone="no"?>
<!DOCTYPE svg PUBLIC "-//W3C//DTD SVG 1.1//EN" "http://www.w3.org/Graphics/SVG/1.1/DTD/svg11.dtd" >
<svg xmlns="http://www.w3.org/2000/svg" xmlns:xlink="http://www.w3.org/1999/xlink" version="1.1" viewBox="-10 0 1034 1024">
  <g transform="matrix(1 0 0 -1 0 820)">
   <path fill="currentColor"
d="M64 469q27 -16 42 -26l18 -12q60 -45 92 -76q1 4 5 7l6 9q6 7 17 17q-15 15 -68 55q-45 33 -86 60l-19 -25q-4 -4 -7 -9zM113 -74q25 -22 44 -46q7 24 29 80q102 253 108 263q3 9 7 15q-22 27 -35 47q-6 -39 -53 -155l-36 -92l-25 -55q-18 -36 -39 -57zM166 725
q-4 -3 -8 -8q0 -3 -3 -5q48 -34 82 -63q33 -30 74 -74q10 15 31 30l-52 50l-106 92q-3 -6 -9 -12q-4 -4 -9 -10zM376 336q1 -30 5 -62l-1 -384q-3 -6 -3 -36q-1 -1 -1 -6h47q-4 54 -5 66v381h209q-21 -103 -75 -174q-49 -57 -114 -91q31 -12 55 -28q102 90 150 201
q88 -76 155 -177q18 22 36 34l-87 95q-48 48 -91 89q9 48 11 51h228v-339q0 -28 -19 -35q-31 -10 -81 -11q-16 0 -57 4q16 -27 26 -54q15 0 30 4l50 6q9 1 12 2q39 9 59 24q18 15 18 64l1 330l4 46q-49 -4 -61 -5h-206l7 111l151 -1l45 -4q-4 52 -5 104l1 129q0 18 4 47
q-60 -4 -62 -5l-342 1q-6 1 -14 2q-13 0 -31 2q1 -31 5 -64l-1 -172q-3 -12 -4 -44q49 4 103 5h110q0 -33 -2 -54q0 -21 -5 -57l-211 1q-15 3 -44 4zM467 478v198h364v-198h-364z" />
  </g>

</svg>
