<?xml version="1.0" standalone="no"?>
<!DOCTYPE svg PUBLIC "-//W3C//DTD SVG 1.1//EN" "http://www.w3.org/Graphics/SVG/1.1/DTD/svg11.dtd" >
<svg xmlns="http://www.w3.org/2000/svg" xmlns:xlink="http://www.w3.org/1999/xlink" version="1.1" viewBox="-10 0 1034 1024">
  <g transform="matrix(1 0 0 -1 0 820)">
   <path fill="currentColor"
d="M133 398q31 -24 72 -60q1 3 5 5q10 18 21 31q-75 66 -146 112q-12 -18 -28 -34q4 -4 19 -15zM244 182q21 52 23 55q3 6 6 15q-13 15 -35 41q-24 -90 -81 -223q-49 -109 -77 -143q30 -22 45 -39l43 110l68 164q3 10 8 20zM160 674q19 -12 76 -60q18 -16 43 -42
q18 25 30 37l-75 65q-39 30 -66 50q-16 -24 -26 -35zM872 311q31 0 58 -4q3 0 8 -2v47l-41 -4l-223 -1v126q168 0 189 -3q6 0 13 -3v47q-58 -4 -94 -5h-108v58q0 36 12 70h-55q0 -12 3 -24l2 -104q-127 0 -156 2q-18 3 -23 3v-47q4 3 55 6h124v-126h-240v316l495 -1
q16 -1 34 -5v47q-33 -1 -67 -5l-455 1q-6 1 -51 5l6 -72l-1 -287q-1 -18 -2 -40q-4 -64 -11 -114q-22 -139 -83 -241q-27 -40 -62 -69l52 -12q4 -1 11 -3q24 33 57 104q27 64 44 126q24 81 32 214h477zM634 109v-160h-204q-39 0 -58 4q-4 1 -9 1v-47q4 1 37 5l496 1
q30 0 62 -4q1 0 6 -2v47q-18 -1 -16 -2q-25 0 -52 -3h-224v160h145q24 0 50 -3l17 -2v46q-33 -1 -67 -5h-145v58q0 15 3 32q1 21 9 38h-55q1 -34 5 -70v-58q-127 0 -156 2q-18 3 -23 3v-46q34 4 66 5h113z" />
  </g>

</svg>
