<?xml version="1.0" standalone="no"?>
<!DOCTYPE svg PUBLIC "-//W3C//DTD SVG 1.1//EN" "http://www.w3.org/Graphics/SVG/1.1/DTD/svg11.dtd" >
<svg xmlns="http://www.w3.org/2000/svg" xmlns:xlink="http://www.w3.org/1999/xlink" version="1.1" viewBox="-10 0 1034 1024">
  <g transform="matrix(1 0 0 -1 0 820)">
   <path fill="currentColor"
d="M65 435q27 -13 70 -45q48 -36 78 -64q10 21 27 38q-13 12 -65 51l-83 57q-6 -12 -17 -23q-3 -7 -10 -14zM119 -94q30 -18 50 -39q9 39 43 130l96 246l-31 42q-9 -33 -24 -77q-18 -54 -54 -140q-27 -69 -46 -108q-15 -33 -34 -54zM162 685q72 -52 136 -123q9 12 28 33
l-62 60l-75 64q-10 -16 -27 -34zM444 -77l-123 4q-6 0 -8 1v-47q6 3 27 4q27 1 74 2l542 -4q1 0 6 -2v47q-4 0 -8 -1q-22 0 -59 -4h-220v208l212 -3q6 0 11 -2v46l-39 -4l-184 -1v62q0 30 12 69h-55q0 -12 3 -24l2 -86v-265h-155v212q0 33 13 71h-56q0 -12 3 -25l2 -152
v-106zM849 662l-3 -62l-7 -142q-3 -58 -15 -71q-15 -15 -66 -15l-73 6q15 -25 22 -52q69 3 104 9q24 4 40 19q15 16 21 41q3 18 5 48q3 34 5 86l5 98l8 76q-36 -1 -71 -5l-380 1q-31 3 -41 4v-46q42 6 115 5h98q-10 -150 -61 -229q-54 -78 -143 -117q-40 -15 -90 -24
q27 -18 48 -41q174 75 235 193q37 72 52 218h192zM361 433q22 -4 42 -17q18 24 34 50q27 45 41 72q12 19 33 30q-27 9 -54 24q-27 -90 -96 -159v0z" />
  </g>

</svg>
