<?xml version="1.0" standalone="no"?>
<!DOCTYPE svg PUBLIC "-//W3C//DTD SVG 1.1//EN" "http://www.w3.org/Graphics/SVG/1.1/DTD/svg11.dtd" >
<svg xmlns="http://www.w3.org/2000/svg" xmlns:xlink="http://www.w3.org/1999/xlink" version="1.1" viewBox="-10 0 1034 1024">
  <g transform="matrix(1 0 0 -1 0 820)">
   <path fill="currentColor"
d="M72 464q81 -45 155 -108q0 3 11 20q7 12 13 17q-24 22 -67 52l-88 58q0 -3 -3 -6q-10 -15 -21 -33zM263 243q-6 -24 -13 -42q-16 -48 -39 -101q-19 -51 -35 -85q-15 -36 -27 -58q-13 -21 -25 -32q30 -25 46 -46q1 12 69 188l62 155l5 15q-15 18 -32 41q-6 -16 -11 -35z
M162 710l21 -15l28 -19q-4 3 14 -11q36 -30 57 -46q13 -12 32 -32q7 12 19 23q4 6 9 10q-45 48 -154 126q-6 -9 -13 -21q-1 -3 -13 -15zM361 590q0 -12 3 -24l2 -205l-1 -458q-3 -12 -4 -48h47q-6 60 -5 107l1 579q0 10 12 49h-55zM385 722q66 -52 127 -132q1 1 3 2l6 6
q3 4 25 22q-54 67 -130 131q-12 -9 -25 -23q-3 -1 -6 -6zM513 480q1 -31 5 -65l-1 -308q-3 -12 -4 -48q51 4 98 5q106 0 121 -2q18 0 39 -3q-3 33 -5 67l1 307l4 47q-33 -1 -65 -5l-148 1q-15 3 -45 4zM555 302v137h173v-137h-173zM555 100v166h173v-166h-173zM930 694
q-33 -1 -67 -5l-259 1q-12 3 -24 4v-46q34 4 66 5h241v-675q0 -42 -13 -51q-18 -12 -56 -13q-25 0 -66 5q15 -27 24 -53q57 3 89 10q60 15 60 86l1 688q0 19 4 44v0z" />
  </g>

</svg>
