<?xml version="1.0" standalone="no"?>
<!DOCTYPE svg PUBLIC "-//W3C//DTD SVG 1.1//EN" "http://www.w3.org/Graphics/SVG/1.1/DTD/svg11.dtd" >
<svg xmlns="http://www.w3.org/2000/svg" xmlns:xlink="http://www.w3.org/1999/xlink" version="1.1" viewBox="-10 0 1034 1024">
  <g transform="matrix(1 0 0 -1 0 820)">
   <path fill="currentColor"
d="M106 520q-9 -18 -26 -39l82 -54q30 -22 64 -50q9 18 24 39l-63 47l-51 36zM247 282q-18 19 -36 41q-6 -43 -17 -89q-12 -52 -35 -131q-18 -66 -30 -94q-12 -30 -28 -55q24 -15 44 -34q9 40 14 51q3 7 7 21q76 282 81 290zM147 729q36 -25 58 -47q25 -21 72 -71l27 36
q-15 18 -59 58q-36 33 -69 59q-12 -18 -29 -35zM496 490v-123h-61q-7 0 -32 3q-9 1 -31 3q1 -33 5 -68l-1 -250q-3 -3 -3 -37q0 -1 -2 -10h46q-6 55 -5 82v242h84l-3 -429l-3 -17h47l-6 65v381h103v-236q0 -22 -4 -29q-6 -6 -26 -7q-10 0 -48 4q7 -15 18 -51q36 3 56 9
q39 12 40 58l1 244q0 21 4 49q-66 -6 -87 -6h-57v123q78 0 92 -2q18 0 39 -3q-4 57 -5 114q0 63 2 77q0 19 3 39q-33 -1 -66 -5l-225 1q-24 3 -49 4q1 -16 3 -31q1 -22 3 -35v-171q-1 -93 -9 -171q-12 -121 -56 -217q-27 -57 -61 -92l55 -15q27 51 39 83q13 36 27 78
q22 76 31 146q6 82 9 200h133zM363 525v150h258v-150h-258zM736 642q1 -3 3 -8q0 -18 4 -59q0 -391 -3 -417q0 -9 -4 -20h48q-4 19 -5 50l1 407q1 22 10 47h-54zM864 764q1 -33 5 -69v-723q0 -27 -11 -33q-18 -9 -48 -10q-15 0 -51 4q9 -24 16 -50q31 1 51 5q42 6 62 23
q16 15 17 57v727q0 33 11 69h-52z" />
  </g>

</svg>
