<?xml version="1.0" standalone="no"?>
<!DOCTYPE svg PUBLIC "-//W3C//DTD SVG 1.1//EN" "http://www.w3.org/Graphics/SVG/1.1/DTD/svg11.dtd" >
<svg xmlns="http://www.w3.org/2000/svg" xmlns:xlink="http://www.w3.org/1999/xlink" version="1.1" viewBox="-10 0 1034 1024">
  <g transform="matrix(1 0 0 -1 0 820)">
   <path fill="currentColor"
d="M218 346q3 6 8 11q3 4 8 13q-57 39 -121 78q-1 0 -11 7q-6 6 -12 9q-6 -16 -25 -39q40 -22 83 -49t62 -46q3 9 8 16zM117 -85q25 -18 50 -41l25 71l85 193l38 85q-6 6 -14 15l-24 33q-7 -36 -30 -96q-19 -52 -44 -105q-22 -51 -46 -94q-22 -40 -40 -61zM179 703
q-12 -18 -29 -37q45 -30 80 -54q30 -22 61 -50q12 25 27 40q-4 4 -139 101zM353 528q-3 -33 -3 -53q-1 -3 -1 -8q-1 -1 -1 -5h47q-6 43 -5 70v53h515l-3 -102q-1 -3 -2 -8q-1 -1 -1 -5h49q-4 54 -5 83q1 36 5 73q-33 -1 -67 -5h-197q3 7 14 18l10 10q-9 9 -35 26l-104 69
q-15 -24 -27 -36q66 -36 131 -87l-278 1q-4 1 -47 4q4 -66 5 -98zM840 473q-24 -1 -33 -2q-25 -3 -89 -3l-232 1q-15 3 -49 4q4 -49 5 -62l-1 -523q-1 -3 -2 -21q-1 -3 -2 -13h48q-4 54 -5 83v7h367q-1 -31 -3 -65q-1 -6 -2 -14h48q-4 54 -5 78q0 168 2 182q0 6 3 42l-35 -4
q-25 -3 -34 -3h-341v107l310 -1l50 -4q-6 69 -6 85q0 72 2 86q0 3 1 6zM480 -20v145h367v-145h-367zM480 302v130h316v-130h-316z" />
  </g>

</svg>
