<?xml version="1.0" standalone="no"?>
<!DOCTYPE svg PUBLIC "-//W3C//DTD SVG 1.1//EN" "http://www.w3.org/Graphics/SVG/1.1/DTD/svg11.dtd" >
<svg xmlns="http://www.w3.org/2000/svg" xmlns:xlink="http://www.w3.org/1999/xlink" version="1.1" viewBox="-10 0 1010 1000">
   <path fill="currentColor"
d="M135 8q93 45 175 111l-62 74q-71 -65 -167 -117zM937 40v89q-44 -8 -112 -8h-400v213q4 343 -137 555q-38 -37 -96 -43q158 -135 153 -532v-169q0 -40 -1 -59q-2 -23 -7 -46q28 6 60 8q16 1 34 2h47h337q45 0 70 -2q28 -2 52 -8zM621 139q80 4 95 12q1 2 -4 11
q-10 23 -10 37v43h76q59 0 97 -9v79q-33 -8 -93 -8h-80v105h125q68 -1 100 -12v84q-33 -8 -90 -8h-287q-51 -1 -98 8v-82q43 9 98 10h77v-107h-50q-62 0 -95 8v-77q35 9 95 9h50q0 -83 -6 -103zM87 240q82 37 173 102l-60 77q-67 -62 -168 -109zM167 465q12 8 40 27t41 28
q-85 252 -95 351q-49 -37 -103 -51q86 -147 117 -355zM623 492q78 5 89 16q0 1 -2 5q-12 18 -12 43v34h88h13q55 1 78 -6v79q-32 -10 -91 -10h-88v119h135q78 -1 109 -10v86q-28 -9 -95 -8h-347q-59 0 -101 8v-86q37 9 103 10h125v-119h-73q-59 -1 -88 8v-79q25 8 86 8h75
q0 -50 -4 -98z" />
</svg>
