<?xml version="1.0" standalone="no"?>
<!DOCTYPE svg PUBLIC "-//W3C//DTD SVG 1.1//EN" "http://www.w3.org/Graphics/SVG/1.1/DTD/svg11.dtd" >
<svg xmlns="http://www.w3.org/2000/svg" xmlns:xlink="http://www.w3.org/1999/xlink" version="1.1" viewBox="-10 0 1034 1024">
  <g transform="matrix(1 0 0 -1 0 820)">
   <path fill="currentColor"
d="M57 458l97 -58q27 -18 54 -42q9 21 24 37q-39 33 -149 99q-12 -18 -26 -36zM230 73q12 30 25 60q9 27 19 52q18 39 28 70q-21 21 -34 41q-9 -42 -20 -75q-12 -37 -31 -87q-33 -84 -60 -137q-22 -45 -45 -73q21 -15 45 -42l22 62l40 100q4 15 11 29zM165 703l20 -16
l74 -53q24 -21 52 -50q6 9 14 17q6 4 11 11q0 1 4 5q-90 81 -149 118l-8 -11q0 -1 -3 -3q-4 -6 -10 -12q-3 -3 -5 -6zM351 578q0 -12 3 -24l2 -203l-1 -451q-3 -12 -4 -48h47q-6 60 -5 106l1 571q1 22 11 49h-54zM482 608l21 -23q13 18 30 28q-49 64 -128 129
q-15 -16 -31 -28q57 -51 80 -73q7 -7 28 -33zM603 297q-70 0 -95 4q-6 0 -10 1v-47q6 3 26 4q27 1 79 2v-191q-91 0 -120 2q-18 3 -23 3v-46q33 3 66 5l223 -1l39 -4v46l-43 -4l-104 -1v191l104 -3q6 0 11 -3v47q-9 0 -17 -3l-98 -2v160l95 -1l44 -4v46q-72 -4 -103 -5
l-169 1l-27 3q-4 1 -8 1v-46q54 4 80 5h50v-160zM911 627q1 31 5 64q-49 -4 -63 -5l-243 1q-9 1 -15 2q-3 0 -17 3v-48q6 3 26 4l40 2h229v-685q0 -30 -12 -42q-18 -15 -62 -16q-25 0 -64 4q18 -27 27 -56q34 3 56 6q45 7 66 24q27 18 27 63v679z" />
  </g>

</svg>
