<?xml version="1.0" standalone="no"?>
<!DOCTYPE svg PUBLIC "-//W3C//DTD SVG 1.1//EN" "http://www.w3.org/Graphics/SVG/1.1/DTD/svg11.dtd" >
<svg xmlns="http://www.w3.org/2000/svg" xmlns:xlink="http://www.w3.org/1999/xlink" version="1.1" viewBox="-10 0 1010 1000">
   <path fill="currentColor"
d="M153 20q85 61 147 115l-64 72q-68 -71 -143 -121zM308 28q53 8 129 8h359q45 0 68 -1q27 -2 53 -7q-9 41 -8 103v14v617q-1 100 8 131h-90q9 -29 8 -79h-444q0 31 6 61q2 9 2 12h-91q7 -40 7 -125v-613q1 -77 -7 -121zM391 104v642h442v-642h-442zM562 133q71 5 93 16
q0 2 -5 8q-17 24 -17 46v47h83q61 -1 88 -8v78q-37 -10 -84 -10h-87v105q88 1 123 -8q-11 31 -10 99v56q0 38 1 59q2 24 7 50q-24 -5 -47 -7q-18 -1 -64 -1h-54q-68 -1 -125 8q8 -45 8 -107v-70q1 -53 -8 -87q38 9 101 8v-105h-61q-57 0 -91 8v-78q33 10 91 10h61
q0 -66 -3 -117zM91 240q72 33 175 98l-56 75q-69 -57 -166 -99zM165 445q7 5 23 16q35 26 56 39q-87 252 -103 365q-38 -34 -97 -53q71 -130 121 -367zM540 479v121h135v-121h-135z" />
</svg>
