<?xml version="1.0" standalone="no"?>
<!DOCTYPE svg PUBLIC "-//W3C//DTD SVG 1.1//EN" "http://www.w3.org/Graphics/SVG/1.1/DTD/svg11.dtd" >
<svg xmlns="http://www.w3.org/2000/svg" xmlns:xlink="http://www.w3.org/1999/xlink" version="1.1" viewBox="-10 0 1010 1000">
   <path fill="currentColor"
d="M629 -8q22 50 40 110h119q89 0 143 -6v81q-67 -4 -139 -4h-181q102 27 95 40q-26 17 -59 89h89q102 -1 161 -12q-69 284 -159 425q100 57 224 71q-50 68 -65 99q-124 -42 -210 -109q-89 74 -187 117q-16 -39 -63 -75q119 -42 192 -99q-58 -86 -89 -203l-38 64
q-30 -35 -69 -46q127 -188 164 -361h-178q108 45 99 58q-39 22 -95 107v452q0 61 1 79q0 22 3 42h-88q8 -34 8 -119v-347q-4 7 -11 19q-27 47 -50 74q-18 -39 -54 -61q136 -167 187 -304h-10q-75 0 -123 4v-79q89 4 131 4h170q-18 -42 -55 -96zM143 42q99 62 139 103l-58 70
q-78 -70 -133 -103zM89 268q73 36 159 90l-52 75q-61 -48 -150 -91zM798 367h-175l-40 78q28 132 96 226q60 -90 97 -218l3 -15q12 -54 19 -71zM712 417q7 36 12 115l-77 4q-2 -62 -12 -115zM169 488l75 60q-39 211 -75 359l-94 -53q58 -111 94 -366z" />
</svg>
