<?xml version="1.0" standalone="no"?>
<!DOCTYPE svg PUBLIC "-//W3C//DTD SVG 1.1//EN" "http://www.w3.org/Graphics/SVG/1.1/DTD/svg11.dtd" >
<svg xmlns="http://www.w3.org/2000/svg" xmlns:xlink="http://www.w3.org/1999/xlink" version="1.1" viewBox="-10 0 1010 1000">
   <path fill="currentColor"
d="M159 8q51 36 139 121l-62 60q-53 -67 -137 -127zM889 42v87q-30 0 -116 41q-85 41 -152 68v137l34 30q39 -53 77 -145q39 15 78 40q0 -33 -6 -62q107 10 111 20q-25 29 -26 92v416q1 72 12 123h-97l3 -18q5 -32 5 -49h-427q-42 0 -91 8q8 -27 8 -90v-420q-1 -53 -10 -82
q51 0 105 16q-22 34 -22 94v408h437v-174q-23 4 -60 33q-27 -53 -131 -172v208q2 51 -20 64q-16 14 -105 22q-7 -47 -40 -92q67 9 79 4q18 -4 17 -30v-119q-48 38 -127 110q-9 -37 -40 -72q60 -20 167 -107v-137q0 -65 -6 -107q50 0 184 -60q19 -8 28 -12h-312
q-82 0 -115 10v-81q39 7 113 8h346q34 -1 99 -10zM103 252q79 39 159 96l-56 71q-61 -56 -156 -103zM470 266q43 67 70 133l-74 32q-16 -65 -55 -137zM812 314q-18 -2 -110 109q-7 8 -10 12q66 60 120 117v-238zM179 502q37 30 75 50q-63 175 -95 272q-7 22 -8 51v8
q-20 -15 -77 -50q-12 -7 -18 -11q89 -144 123 -320z" />
</svg>
