<?xml version="1.0" standalone="no"?>
<!DOCTYPE svg PUBLIC "-//W3C//DTD SVG 1.1//EN" "http://www.w3.org/Graphics/SVG/1.1/DTD/svg11.dtd" >
<svg xmlns="http://www.w3.org/2000/svg" xmlns:xlink="http://www.w3.org/1999/xlink" version="1.1" viewBox="-10 0 1034 1024">
  <g transform="matrix(1 0 0 -1 0 820)">
   <path fill="currentColor"
d="M280 235q-4 7 -8 15q-16 -48 -38 -101q-21 -54 -51 -118q-24 -55 -43 -89q-15 -25 -35 -50l29 -23q7 -7 19 -18q39 102 123 297l25 54q-3 6 -21 33zM173 688q78 -57 145 -124q12 13 33 34q-55 54 -82 74q-12 7 -67 52q-12 -18 -29 -36zM884 -94q-1 -24 -3 -49
q-1 -7 -3 -17h49q-4 52 -5 66l1 491q0 15 6 33q1 9 5 16h-56q3 -54 6 -69v-417l-512 -19v426q0 33 12 70h-56q0 -6 6 -66q-1 -1 0 -4l-1 -422q-3 -15 -4 -49l77 8l101 7l377 15v-20zM650 510q100 63 239 197q-40 -1 -82 -5l-383 1q-12 1 -26 2l-17 2v-47q19 4 52 5l353 1
q-96 -96 -179 -136q1 -30 5 -61v-161l-77 -56q-30 -21 -56 -38q-48 -30 -78 -44q18 -18 33 -41q6 6 178 134v-156q0 -33 -8 -42q-9 -10 -41 -11q-15 0 -51 4q12 -27 21 -52q28 0 47 3q31 4 49 18q21 21 21 64v419zM687 306q-13 -18 -27 -32q117 -78 183 -148q12 18 28 33
q-42 36 -99 82q-60 49 -85 65zM687 382q18 -10 36 -29l61 60q18 18 39 35q25 19 48 20q-28 21 -48 44q-54 -69 -136 -130zM78 436q93 -57 146 -111l31 36q-40 36 -62 52l-86 61q-6 -7 -10 -14q-7 -12 -19 -24zM425 472q73 -60 90 -76l41 -47q10 13 33 32q-27 30 -136 124
q-12 -15 -28 -33v0z" />
  </g>

</svg>
