<?xml version="1.0" standalone="no"?>
<!DOCTYPE svg PUBLIC "-//W3C//DTD SVG 1.1//EN" "http://www.w3.org/Graphics/SVG/1.1/DTD/svg11.dtd" >
<svg xmlns="http://www.w3.org/2000/svg" xmlns:xlink="http://www.w3.org/1999/xlink" version="1.1" viewBox="-10 0 1034 1024">
  <g transform="matrix(1 0 0 -1 0 820)">
   <path fill="currentColor"
d="M72 486q-3 -7 -19 -28q-3 -3 -6 -9q33 -16 64 -40q25 -18 88 -72q9 15 29 37l-81 62zM99 -77q24 -18 47 -40q6 30 45 133l86 220q-16 19 -33 47q-6 -33 -19 -73q-16 -48 -46 -121q-27 -69 -46 -110q-13 -27 -34 -56zM138 719q0 -1 -3 -4t-7 -9q75 -43 144 -117
q9 15 30 35q-27 24 -68 56q-42 31 -81 60l-1 -2q0 -3 -3 -7q-6 -6 -11 -12zM594 655q-70 -96 -165 -162q-72 -48 -158 -63q22 -13 45 -42q93 37 181 107q27 -24 41 -39q10 -10 26 -32q-21 -33 -98 -108l-49 69q-9 -6 -17 -12q-6 -4 -18 -9q45 -61 52 -70q-70 -66 -146 -75
q28 -18 49 -40l67 41q24 16 54 40q30 -61 34 -65l7 -10q27 19 34 24q-24 42 -46 75q18 15 34 30l69 73q9 -18 23 -52q12 -30 14 -51q-76 -102 -168 -177q-93 -72 -186 -92q33 -18 51 -40q93 48 159 103q36 30 74 68q37 39 79 87q6 -60 7 -153q0 -51 -4 -89q-6 -52 -37 -68
q-24 -12 -73 -13q-25 0 -59 4q13 -24 23 -55q43 3 65 7q58 9 86 32q24 19 35 72q6 45 6 97q0 54 -4 120l-6 78q30 25 61 50q27 -117 68 -182q51 -81 131 -150q27 22 58 35q-102 42 -161 144q-48 87 -61 186q58 57 63 59q36 36 46 43q9 9 38 19q-30 12 -62 35
q-42 -75 -191 -199q-21 70 -49 113q-25 42 -88 102q27 27 53 55q27 31 63 80l235 -1q6 0 34 -4q1 0 5 -1v47l-18 -2q-24 0 -49 -3l-478 1q-13 1 -22 3q-4 1 -8 1v-47q6 3 26 4q27 1 133 2h92z" />
  </g>

</svg>
