<?xml version="1.0" standalone="no"?>
<!DOCTYPE svg PUBLIC "-//W3C//DTD SVG 1.1//EN" "http://www.w3.org/Graphics/SVG/1.1/DTD/svg11.dtd" >
<svg xmlns="http://www.w3.org/2000/svg" xmlns:xlink="http://www.w3.org/1999/xlink" version="1.1" viewBox="-10 0 1034 1024">
  <g transform="matrix(1 0 0 -1 0 820)">
   <path fill="currentColor"
d="M57 438q10 -7 23 -15q51 -30 65 -41l55 -47q7 16 26 37q-13 12 -32 25l-73 52l-39 26q-18 -21 -23 -33q-1 -1 -2 -4zM192 9l78 220q-19 19 -34 40q-6 -33 -18 -71q-12 -42 -33 -100q-27 -76 -51 -128q-21 -43 -39 -67q28 -15 49 -35q9 40 24 74zM127 706l88 -63
q30 -24 67 -58q15 21 29 37l-156 120zM459 -102q-3 -51 -6 -67h49q-4 24 -5 62v123h302v-100q0 -27 -34 -33q-15 -3 -32 -3q-15 0 -48 3q15 -28 21 -52q34 1 65 9q66 15 66 74l1 359l4 48q-72 -4 -103 -5h-230q6 7 11 17q13 24 29 46q6 12 14 23l393 -3q6 0 11 -2v46l-42 -4
l-341 -1q25 43 34 54q9 12 30 25q-36 9 -62 22q-24 -61 -47 -101h-173q-39 0 -58 4q-4 1 -8 1v-46q34 4 66 5h152q-33 -57 -61 -95q-22 -30 -70 -79q-66 -69 -131 -102q33 -12 56 -28q45 42 79 78l68 78v-356zM497 50v99h302v-99h-302zM497 183v97h302v-97h-302zM611 671
q-27 13 -55 30l-110 54q-15 -24 -31 -39l34 -11q12 -3 36 -14q66 -30 122 -60q-24 -18 -49 -33q-27 -16 -70 -39q-61 -31 -126 -47q22 -13 45 -38q67 33 117 62q49 28 120 74q28 -13 105 -60q48 -30 62 -44q7 -6 19 -16q9 21 27 40q-87 54 -179 106q36 27 56 44q15 12 29 25
q30 24 36 27q4 3 33 14q-28 15 -49 36q-33 -39 -56 -60q-30 -27 -86 -68q-15 9 -30 17v0z" />
  </g>

</svg>
