<?xml version="1.0" standalone="no"?>
<!DOCTYPE svg PUBLIC "-//W3C//DTD SVG 1.1//EN" "http://www.w3.org/Graphics/SVG/1.1/DTD/svg11.dtd" >
<svg xmlns="http://www.w3.org/2000/svg" xmlns:xlink="http://www.w3.org/1999/xlink" version="1.1" viewBox="-10 0 1034 1024">
  <g transform="matrix(1 0 0 -1 0 820)">
   <path fill="currentColor"
d="M114 421q6 -3 30 -22q52 -42 71 -59q7 16 24 35q-75 66 -160 120q-3 -9 -9 -15l-13 -23l-1 -1q10 -6 21 -14zM186 35l73 218q-18 16 -34 41q-10 -63 -44 -162l-52 -147q-15 -36 -35 -68q27 -12 47 -31q6 27 17 63q13 43 28 86zM135 716q84 -57 154 -126q7 15 25 32
q-60 60 -156 128q-12 -21 -23 -34zM793 374v-460q-1 -24 -2 -49q0 -6 -4 -17h50v3q-1 3 -2 14q-3 48 -3 80v429l98 -1q21 0 31 -3q3 -1 8 -3v48q-48 -6 -66 -6h-239v238q87 15 186 40q40 12 83 13q-25 24 -43 55q-37 -24 -116 -47q-63 -18 -153 -29q1 -33 5 -66l-1 -318
q-1 -16 -2 -38q0 -39 -5 -90q-1 -7 -3 -19q-21 -138 -79 -211q-21 -24 -52 -45q33 -7 60 -21q63 91 87 175q15 60 23 117q3 34 5 81q3 54 5 130h129zM414 -90q-4 -48 -8 -66h51q-1 4 -1 8q0 1 -4 54v489q57 -66 96 -136q12 21 31 35q-24 34 -53 67q-30 33 -75 79v50l112 -3
q6 0 14 -2v46l-42 -4l-84 -1v181q0 9 3 32q3 21 9 37h-57q1 -10 5 -23l2 -82v-145q-72 0 -100 2q-18 3 -23 3v-46q34 4 66 5h57q-16 -99 -67 -213q-57 -123 -117 -174q27 -3 55 -17q36 54 72 131q36 81 58 144v-451z" />
  </g>

</svg>
