<?xml version="1.0" standalone="no"?>
<!DOCTYPE svg PUBLIC "-//W3C//DTD SVG 1.1//EN" "http://www.w3.org/Graphics/SVG/1.1/DTD/svg11.dtd" >
<svg xmlns="http://www.w3.org/2000/svg" xmlns:xlink="http://www.w3.org/1999/xlink" version="1.1" viewBox="-10 0 1034 1024">
  <g transform="matrix(1 0 0 -1 0 820)">
   <path fill="currentColor"
d="M213 362q3 6 8 10q-27 27 -69 60l-67 53q-10 -18 -24 -36q51 -33 63 -45q42 -36 71 -65q0 3 5 7q6 9 13 16zM82 -95q22 -15 45 -34q25 96 34 115q3 15 96 261q-19 19 -32 38q-12 -46 -29 -92l-50 -143q-21 -57 -35 -91q-10 -24 -29 -54zM160 686l63 -59q21 -21 47 -52
q7 12 32 30l-81 84q-25 27 -49 47q-15 -16 -32 -30zM717 -94l-4 -58q0 -3 -1 -8h48q-3 24 -5 66v478q28 -87 49 -139q18 -46 45 -100l44 -83q6 -15 20 -33q22 12 57 21q-30 24 -47 47q-18 27 -51 84q-30 58 -47 99q-58 139 -67 203l134 -1q9 0 36 -3l2 -1v46q-33 -1 -66 -5
h-109v184q0 33 12 69h-55q0 -10 3 -23l2 -138v-92q-57 0 -82 3q-6 1 -15 2v-46q54 4 82 5h11q-9 -60 -29 -122q-39 -117 -104 -224q-39 -60 -79 -86l58 -22q16 22 30 47q15 24 35 64q42 85 93 223v-457zM436 355q4 18 11 34l-1 -496q-4 -24 -5 -53h51q-6 27 -7 50v465
q37 -51 71 -112l11 14l20 20q-12 18 -74 95q-15 16 -28 33v78l96 -5v46l-43 -4l-53 -1v184q0 36 13 69h-57q3 -54 6 -69v-184h-61q-30 0 -58 4q-4 1 -9 1v-46q12 3 24 3l97 2q-18 -84 -43 -152q-21 -60 -53 -125q-51 -108 -107 -159q33 -9 54 -18q22 36 44 74q21 42 47 100
q24 57 40 102q6 25 14 50v0z" />
  </g>

</svg>
