<?xml version="1.0" standalone="no"?>
<!DOCTYPE svg PUBLIC "-//W3C//DTD SVG 1.1//EN" "http://www.w3.org/Graphics/SVG/1.1/DTD/svg11.dtd" >
<svg xmlns="http://www.w3.org/2000/svg" xmlns:xlink="http://www.w3.org/1999/xlink" version="1.1" viewBox="-10 0 1010 1000">
   <path fill="currentColor"
d="M381 -8q67 -1 91 8q0 2 -3 8q-13 26 -13 56v87q87 1 119 -10v78q-38 -9 -119 -8v127q92 1 143 -8v77q-41 -9 -113 -8v359q6 80 -133 102q-1 -45 -32 -84q107 13 98 -41v-338q-100 -1 -151 14v-79q34 7 107 6h14v-223q0 -67 -7 -112q-1 -8 -1 -11zM147 28q108 73 149 107
l-56 70q-49 -52 -149 -115zM919 86q-40 390 -127 537q54 99 184 189q-45 22 -81 65q-99 -103 -149 -182q-72 109 -169 206q-38 -42 -101 -55q118 -65 230 -225q-76 -198 -85 -442l48 -12q-46 1 -70 4v-85q35 8 119 8h99q60 1 102 -8zM103 274q61 28 143 86l-52 69
q-39 -44 -140 -95zM298 479q6 1 20 4q50 11 67 17q-9 29 -32 95q-35 103 -45 138q-38 -21 -84 -14q56 -81 74 -240zM575 485q16 22 66 121q6 10 8 15l-78 38q-25 -84 -67 -151zM149 512q38 20 79 50q-54 182 -77 329q-43 -34 -93 -55q66 -167 91 -324zM696 165
q11 267 56 383q57 -171 71 -383h-127z" />
</svg>
