<?xml version="1.0" standalone="no"?>
<!DOCTYPE svg PUBLIC "-//W3C//DTD SVG 1.1//EN" "http://www.w3.org/Graphics/SVG/1.1/DTD/svg11.dtd" >
<svg xmlns="http://www.w3.org/2000/svg" xmlns:xlink="http://www.w3.org/1999/xlink" version="1.1" viewBox="-10 0 1034 1024">
  <g transform="matrix(1 0 0 -1 0 820)">
   <path fill="currentColor"
d="M211 349q6 12 20 33l-145 100q-4 -9 -14 -22q-4 -6 -12 -16q27 -9 73 -42q25 -18 43 -33q16 -13 31 -28q1 4 4 8zM151 -87q9 -6 20 -15q1 9 36 91l73 177l33 83q-16 15 -36 46q-9 -72 -94 -259q-18 -42 -32 -67q-10 -18 -25 -36q19 -15 25 -20zM149 688q91 -73 104 -86
q13 -12 31 -30q15 21 27 32q-42 39 -106 92q-18 15 -25 22l-2 1q-9 -13 -29 -31zM539 138q-12 4 -24 11q-7 6 -12 8q-21 -39 -37 -65q-15 -24 -41 -56q-30 -36 -52 -56q-21 -18 -52 -38q27 -10 45 -27q78 79 129 149q25 39 62 65zM953 278q-33 -1 -66 -5l-521 3q-3 1 -9 2
v-46q4 3 53 6h229v-312q0 -22 -8 -30q-9 -7 -32 -8q-48 3 -52 4q6 -16 13 -46q10 1 21 1q43 3 58 8q39 10 39 59v324l235 -1q24 0 40 -5v46zM383 512q-1 -25 -3 -53q-1 -4 -1 -9q-1 -1 -1 -5h47q-4 54 -5 79v49h465q0 -87 -3 -106q-1 -3 -1 -8q-1 -1 -1 -5h48q-4 39 -5 61
l5 99q-33 -1 -66 -5l-438 1q-24 3 -46 4q1 -33 5 -66v-36zM463 389q7 3 26 4q6 1 40 2l278 -1q22 0 39 -5v46q-30 -4 -65 -5l-284 1q-4 1 -9 1q-12 1 -25 3v-46zM545 729q69 -52 120 -108q15 21 32 33q-9 7 -17 16l-48 45q-18 13 -54 46q-10 -12 -19 -20q-3 -1 -5 -5
q-4 -3 -9 -7zM766 131q40 -40 89 -97q49 -60 76 -105q24 18 26 20l10 7q-46 63 -105 133l-62 72q-15 -19 -34 -30v0z" />
  </g>

</svg>
