<?xml version="1.0" standalone="no"?>
<!DOCTYPE svg PUBLIC "-//W3C//DTD SVG 1.1//EN" "http://www.w3.org/Graphics/SVG/1.1/DTD/svg11.dtd" >
<svg xmlns="http://www.w3.org/2000/svg" xmlns:xlink="http://www.w3.org/1999/xlink" version="1.1" viewBox="-10 0 1010 1000">
   <path fill="currentColor"
d="M133 22q104 60 143 88l-54 67q-48 -43 -139 -93zM278 46q32 6 113 6h33q69 1 90 -4q-7 29 -8 113v603q2 67 -18 81q-17 18 -99 24q-6 -55 -32 -89q90 24 81 -34v-210h-91q-11 227 -93 345q-36 -29 -91 -33q91 -74 110 -228q12 -81 13 -214q1 -130 -8 -360zM560 48
q1 -1 6 0q36 6 113 6h107q79 -3 115 -8q-5 44 -6 113v224q1 87 8 145h-80q0 -8 3 -27q1 -7 1 -11h-192v245q-1 38 16 44q10 8 89 9q78 3 95 -20q21 -17 22 -109q33 50 91 50q-20 92 -46 118q-24 29 -87 27h-127q-84 1 -101 -18q-21 -15 -20 -90v-583q-1 -71 -7 -115z
M438 119h-87v145h87v-145zM694 121h-59v302h59v-302zM827 121h-65v302h65v-302zM81 240q82 45 151 94l-53 71q-84 -69 -145 -97zM351 328l-2 145h89v-145h-87zM141 473l77 51q-76 272 -91 341l-89 -53q81 -154 103 -339z" />
</svg>
