<?xml version="1.0" standalone="no"?>
<!DOCTYPE svg PUBLIC "-//W3C//DTD SVG 1.1//EN" "http://www.w3.org/Graphics/SVG/1.1/DTD/svg11.dtd" >
<svg xmlns="http://www.w3.org/2000/svg" xmlns:xlink="http://www.w3.org/1999/xlink" version="1.1" viewBox="-10 0 1010 1000">
   <path fill="currentColor"
d="M359 4q100 7 103 16q0 4 -4 10q-16 -6 -23 189h27q57 -3 74 -6v79q-28 -6 -78 -6h-23v101l53 -22q67 116 77 145l-71 30q-18 -57 -59 -129v312q0 110 7 170q-47 -6 -89 0q10 -62 10 -176v-286q-42 137 -101 258q-30 -54 -62 -76q96 -121 155 -327h-30q-48 0 -81 6v-79
q33 6 87 6h34v-141q0 -55 -6 -74zM145 20q83 60 149 113l-72 66q-54 -71 -141 -121zM823 22q-7 226 139 383q-59 22 -91 54q-103 -170 -131 -429q6 0 17 -1q32 -2 66 -7zM79 242q81 45 171 102l-54 71q-75 -58 -166 -103zM667 346q16 7 44 19q58 23 53 26q-1 2 -4 6
q-18 20 -38 70q-94 252 -123 291l183 -20q-29 -105 -58 -162l82 -18q54 147 101 302l-97 27q-2 -29 -13 -82q-1 -5 -1 -7q-116 11 -266 52q-18 -48 -36 -84q76 -7 173 -420zM131 457l81 51q-60 235 -85 355q-2 -1 -6 -4q-42 -27 -89 -49q82 -175 99 -353zM508 389
q88 -108 113 -335q13 3 40 9q62 12 57 21q-1 4 -6 7q-14 8 -20 34q-44 174 -113 304q-17 -16 -71 -40z" />
</svg>
