<?xml version="1.0" standalone="no"?>
<!DOCTYPE svg PUBLIC "-//W3C//DTD SVG 1.1//EN" "http://www.w3.org/Graphics/SVG/1.1/DTD/svg11.dtd" >
<svg xmlns="http://www.w3.org/2000/svg" xmlns:xlink="http://www.w3.org/1999/xlink" version="1.1" viewBox="-10 0 1034 1024">
  <g transform="matrix(1 0 0 -1 0 820)">
   <path fill="currentColor"
d="M206 380l-60 39l-53 33q-15 9 -17 11q-12 -24 -23 -38l84 -49q39 -24 66 -49q9 19 26 37q-12 9 -23 16zM114 -89q9 -9 16 -14q6 -6 12 -14q4 12 10 23l152 337q-22 24 -35 42q-6 -28 -24 -75q-18 -46 -53 -121q-36 -81 -54 -111q-16 -30 -39 -53q7 -6 15 -14zM316 597
q-22 21 -80 63q-39 25 -74 54q-12 -19 -26 -34l93 -67l58 -49q7 12 19 22q4 6 10 11zM650 599q12 -15 51 -55l75 -67q72 -57 151 -109q30 30 50 46q-66 12 -153 76q-136 103 -218 232q12 12 25 20q-30 3 -62 17q-18 -45 -41 -89q-75 -133 -154 -212q-64 -58 -112 -80
q27 -12 52 -31q75 60 152 158q28 36 51 72q25 39 65 106q6 -9 19 -23zM582 -73l-247 1q-4 1 -9 1q-12 1 -25 3v-46q4 3 51 6l535 -1q22 0 39 -5v46q-4 0 -65 -5h-241v260l206 -1q21 0 40 -5v47q-33 -1 -66 -5h-180v155q135 0 153 -2q15 0 27 -4v47q-30 -4 -66 -5l-298 1
q-4 1 -7 1q-12 1 -26 3v-47q6 3 13 3q22 3 55 3h111v-155l-211 3q-4 1 -8 1q-3 1 -5 1v-47q4 3 52 6h172v-260zM376 79q42 -37 110 -117q13 15 29 29l-60 66l-50 51q-15 -13 -29 -29zM706 -23q28 -12 38 -20q51 96 64 114q12 19 36 34q-28 12 -51 26q-16 -37 -42 -83
q-31 -54 -45 -71v0z" />
  </g>

</svg>
