<?xml version="1.0" standalone="no"?>
<!DOCTYPE svg PUBLIC "-//W3C//DTD SVG 1.1//EN" "http://www.w3.org/Graphics/SVG/1.1/DTD/svg11.dtd" >
<svg xmlns="http://www.w3.org/2000/svg" xmlns:xlink="http://www.w3.org/1999/xlink" version="1.1" viewBox="-10 0 1010 1000">
   <path fill="currentColor"
d="M821 4q15 19 53 73q-2 -2 3 5q22 28 -23 17q-26 -4 -37 -3q-7 1 -23 4q-279 44 -455 61q-14 -50 -53 -81h101q217 -9 434 -76zM147 30q85 54 145 105l-56 68q-59 -60 -141 -111zM774 157q74 30 91 48q0 2 -8 6q-19 8 -26 22q-23 40 -61 119q-23 -20 -68 -30
q54 -86 72 -165zM613 167q24 78 34 151l-78 12q-8 -84 -33 -147zM411 189q33 63 63 141l-79 24q-30 -96 -62 -143zM85 264q108 54 161 90l-50 75q-51 -44 -154 -95zM855 363q32 51 44 80q9 20 -35 12q-35 -6 -52 -4q-15 1 -41 5q-62 9 -134 13v115h206q62 0 97 -12v87
q-30 -8 -97 -8h-206v127h143q65 1 101 -10v90q-33 -9 -97 -8h-371q-74 0 -115 8v-88q43 8 117 8h139v-127h-179q-69 0 -117 8v-83q29 9 117 8h179v-109l-217 10q-7 -48 -35 -86q18 1 50 4q53 4 65 4q285 4 438 -44zM153 512q38 28 77 54q-52 179 -79 294q-6 22 -8 31
q-38 -35 -87 -53q93 -239 97 -326z" />
</svg>
