<?xml version="1.0" standalone="no"?>
<!DOCTYPE svg PUBLIC "-//W3C//DTD SVG 1.1//EN" "http://www.w3.org/Graphics/SVG/1.1/DTD/svg11.dtd" >
<svg xmlns="http://www.w3.org/2000/svg" xmlns:xlink="http://www.w3.org/1999/xlink" version="1.1" viewBox="-10 0 1010 1000">
   <path fill="currentColor"
d="M540 0q108 25 103 40q-1 4 -13 9q-5 2 -5 3q91 201 333 278q-39 42 -63 87q-44 -25 -102 -65q-14 -10 -21 -14v67q-21 -6 -95 -6h-66v111h83h40q78 3 103 -6v84q-28 -7 -127 -6h-14h-85v216h137q94 0 157 -14v97q-30 -8 -157 -8h-323q-101 1 -167 8v-95q42 9 184 12h90
v-216h-88q-101 -1 -119 8v-88q25 7 123 8h84v-109h-40q-10 1 -44 3q-40 2 -49 3v-51q-4 4 -12 13q-49 55 -75 74q-40 -33 -71 -54q-12 -7 -9 -8q206 -110 308 -381zM183 44q35 17 158 111l-57 70q-96 -83 -159 -115zM579 110q-55 98 -150 216q8 4 63 4h179h14q61 1 71 -4
q-137 -126 -177 -216zM171 490l77 48q-84 280 -89 357q-11 -5 -38 -17q-34 -15 -65 -28q85 -160 115 -360zM722 625q21 13 60 24q21 6 20 10q-1 3 -6 9q-26 29 -66 104l-73 -24q25 -23 65 -123zM417 627q20 36 57 115l-75 20q-27 -60 -60 -117zM188 435q-77 -54 -164 -91
l49 -70q72 29 165 88z" />
</svg>
