<?xml version="1.0" standalone="no"?>
<!DOCTYPE svg PUBLIC "-//W3C//DTD SVG 1.1//EN" "http://www.w3.org/Graphics/SVG/1.1/DTD/svg11.dtd" >
<svg xmlns="http://www.w3.org/2000/svg" xmlns:xlink="http://www.w3.org/1999/xlink" version="1.1" viewBox="-10 0 1034 1024">
  <g transform="matrix(1 0 0 -1 0 820)">
   <path fill="currentColor"
d="M56 439q91 -61 146 -110q12 12 29 35q-78 66 -152 112q-12 -18 -23 -37zM104 -85q30 -24 49 -41l63 170l80 190q-21 24 -35 45q-7 -34 -31 -97q-24 -64 -64 -155q-34 -78 -62 -112zM313 592q6 6 12 13q-15 15 -63 56q-52 42 -80 61q-12 -18 -29 -34l60 -42q37 -30 70 -63
l12 -12q1 0 3 3q3 6 15 18zM612 146h-237q-39 0 -59 4q-4 1 -8 1v-46q39 4 67 5h237l-1 -230q-4 -34 -5 -41h50q-6 51 -6 66v205l271 -1l39 -4v46q-33 -1 -67 -5h-243v22q0 34 13 69h-57q3 -54 6 -69v-22zM342 266q31 -4 56 -19q57 81 96 172q27 -18 64 -56q33 -36 50 -64
l30 42l-50 50l-81 68q15 45 39 61q-22 4 -60 18q-15 -82 -49 -151q-40 -84 -95 -121zM369 567q6 3 26 4l40 2l458 -1q9 0 31 -3q1 0 3 -1q1 0 5 -1v47q-9 -1 -17 -2q-24 0 -49 -3l-467 1q-13 1 -22 3q-4 1 -8 1v-47zM702 638l18 16q-78 82 -125 112q-10 -12 -30 -32
q36 -24 61 -46l62 -64q1 0 3 3q4 6 11 11zM800 476q3 9 7 18q6 13 26 23q-33 9 -60 24q-13 -75 -54 -154q-34 -67 -91 -113q30 -7 54 -19q43 64 82 137q63 -45 116 -124q3 3 6 9q12 19 24 31l-54 53l-75 69z" />
  </g>

</svg>
