<?xml version="1.0" standalone="no"?>
<!DOCTYPE svg PUBLIC "-//W3C//DTD SVG 1.1//EN" "http://www.w3.org/Graphics/SVG/1.1/DTD/svg11.dtd" >
<svg xmlns="http://www.w3.org/2000/svg" xmlns:xlink="http://www.w3.org/1999/xlink" version="1.1" viewBox="-10 0 1010 1000">
   <path fill="currentColor"
d="M623 -17q36 60 56 119l-50 15h177q76 0 107 -5v83q-40 -6 -94 -6h-381q-60 1 -113 8v-89q38 9 112 9h150q-18 -55 -53 -109zM151 16q83 40 155 94l-58 71q-74 -60 -151 -99zM462 203q55 14 86 28q13 7 0 17q-12 10 -16 18q-18 36 -34 64q39 23 109 83l-63 54
q-31 -45 -78 -78q-48 82 -103 153q-36 -31 -83 -38q128 -106 182 -301zM722 203q6 2 20 7q46 14 66 23q15 7 -1 22q-16 13 -21 23q-14 27 -38 74q93 57 171 113l-64 65q-72 -74 -141 -123q-56 84 -89 123q-37 -32 -79 -38q129 -108 176 -289zM89 250q73 30 181 88l-50 79
q-55 -47 -176 -95zM169 461q31 16 81 47q-64 231 -75 294q-4 19 -9 48q-5 47 -19 31q-36 -28 -84 -43q84 -164 106 -377zM558 532q48 0 97 8q7 1 2 11q-14 26 -14 55h194q63 1 94 -8v83q-27 -6 -72 -5q-16 1 -24 1h-192v153q-1 65 6 85h-97q8 -27 8 -89v-149h-183
q-64 0 -103 6v-87q37 9 103 10h183q0 -52 -2 -74z" />
</svg>
