<?xml version="1.0" standalone="no"?>
<!DOCTYPE svg PUBLIC "-//W3C//DTD SVG 1.1//EN" "http://www.w3.org/Graphics/SVG/1.1/DTD/svg11.dtd" >
<svg xmlns="http://www.w3.org/2000/svg" xmlns:xlink="http://www.w3.org/1999/xlink" version="1.1" viewBox="-10 0 1010 1000">
   <path fill="currentColor"
d="M452 -8q61 28 94 54q10 9 -13 26q-16 12 -21 20q-22 37 -48 83h359h11q60 1 91 -8v83q-45 -8 -106 -8h-129v120h106q57 -1 95 -10v85q-33 -9 -93 -8h-108v115h98q78 1 105 -8v85q-38 -10 -105 -9h-98v128h139q69 1 102 -7v83q-38 -9 -100 -8h-387q-1 59 8 95h-91
q11 -41 12 -141v-404q-4 2 -19 32q-29 57 -56 102l-46 -85q122 -164 200 -415zM667 4q38 44 77 119l-79 38q-29 -79 -68 -125zM157 30q83 53 147 107l-60 64q-73 -70 -143 -111zM619 242h-175v120h175v-120zM93 268q82 39 155 88l-52 75q-61 -53 -152 -97zM444 429v115h175
v-115h-175zM200 512q17 10 72 50q-41 100 -111 325q-43 -35 -92 -47q82 -129 131 -328zM444 612v128h175v-128h-175z" />
</svg>
