<?xml version="1.0" standalone="no"?>
<!DOCTYPE svg PUBLIC "-//W3C//DTD SVG 1.1//EN" "http://www.w3.org/Graphics/SVG/1.1/DTD/svg11.dtd" >
<svg xmlns="http://www.w3.org/2000/svg" xmlns:xlink="http://www.w3.org/1999/xlink" version="1.1" viewBox="-10 0 1034 1024">
  <g transform="matrix(1 0 0 -1 0 820)">
   <path fill="currentColor"
d="M69 434q33 -24 79 -60l76 -64q10 18 26 36q-25 24 -54 46l-102 77q-12 -21 -25 -35zM123 -95q24 -15 46 -37l37 94l95 212q10 22 24 54q-15 22 -30 47q-18 -63 -65 -171q-36 -81 -62 -130q-21 -37 -45 -69zM176 689l53 -41q18 -13 31 -25q21 -18 46 -44q10 9 28 30
q-94 90 -147 125q-7 -10 -27 -32zM438 -97q0 -4 -3 -50q0 -3 -3 -18h50q-6 48 -6 82v8q453 0 464 -3q10 0 20 -3v47q-12 -3 -17 -3q-25 -1 -51 -3h-181v173l159 -1q21 0 38 -5v47q-18 -1 -16 -2q-28 -3 -69 -3h-112v155l186 -3q6 0 13 -3v47q-109 -4 -112 -5h-87v162l208 -3
q6 0 11 -3v47q-39 -4 -67 -5h-392q58 106 71 136q3 6 15 25q9 15 30 27q-34 7 -65 22q-18 -87 -111 -238q-81 -121 -142 -154q36 -9 59 -21q27 30 48 57l43 64q9 13 19 29v-602zM475 -40v173h198v-173h-198zM475 169v155h198v-155h-198zM475 360v162h198v-162h-198zM733 611
q15 -18 23 -28q15 15 32 27q-3 4 -11 13q-64 78 -87 100l-16 16q-13 -15 -31 -27q39 -36 59 -61z" />
  </g>

</svg>
