<?xml version="1.0" standalone="no"?>
<!DOCTYPE svg PUBLIC "-//W3C//DTD SVG 1.1//EN" "http://www.w3.org/Graphics/SVG/1.1/DTD/svg11.dtd" >
<svg xmlns="http://www.w3.org/2000/svg" xmlns:xlink="http://www.w3.org/1999/xlink" version="1.1" viewBox="-10 0 1010 1000">
   <path fill="currentColor"
d="M627 -15q21 47 38 101h89q138 -3 167 -12v83q-55 -8 -169 -8h-262q-111 0 -163 8v-83q45 9 145 12h115q-30 -58 -55 -88zM175 30q107 76 140 105l-63 62q-68 -65 -143 -105zM367 205q34 6 147 10h194q28 -2 72 -4q33 -2 69 -4q-6 23 -6 73v54q0 54 4 81q-23 -6 -137 -6
h-198q-117 0 -147 6q5 -27 6 -77v-56q0 -54 -4 -77zM87 238q45 18 181 88l-50 79q-63 -49 -180 -93zM768 274h-322v76h322v-76zM347 461q51 9 137 10h212h28q106 2 143 -8v85q-53 -1 -216 81v14h137q102 0 164 -10v84q-28 -6 -62 -8t-98 -2h-141v129q2 45 -28 58
q-28 15 -125 17q2 -50 -38 -101q119 39 115 -12v-91h-142q-86 1 -145 10v-86q79 12 149 12h138v-43q78 -30 157 -66h-220q-93 1 -165 10v-83zM188 475l76 45q-76 246 -97 363q-21 -12 -60 -31q-27 -13 -40 -20q85 -139 121 -357z" />
</svg>
