<?xml version="1.0" standalone="no"?>
<!DOCTYPE svg PUBLIC "-//W3C//DTD SVG 1.1//EN" "http://www.w3.org/Graphics/SVG/1.1/DTD/svg11.dtd" >
<svg xmlns="http://www.w3.org/2000/svg" xmlns:xlink="http://www.w3.org/1999/xlink" version="1.1" viewBox="-10 0 1010 1000">
   <path fill="currentColor"
d="M474 -25q79 5 103 13q0 3 -6 8q-18 16 -17 36q4 39 29 78q125 -43 209 -96l7 7q65 70 58 75q-2 5 -24 6q-19 1 -29 4q-29 6 -144 44q-26 9 -39 13q110 111 312 119q-48 35 -74 85q-230 -52 -305 -208v169q3 42 -20 53q-18 14 -115 34q-2 -48 -28 -89q62 11 81 -6
q7 -5 6 -38v-169q-92 206 -311 270q-29 -46 -78 -71q212 -37 286 -153h-60h-76q-25 0 -39 1q-28 0 -37 3v-77q9 6 166 6h149v-56q0 -35 -4 -61zM635 346q104 11 103 17q0 3 -6 10q-16 17 -16 34q3 58 34 119q71 -54 123 -115q76 64 69 72q-2 2 -12 4q-17 2 -27 7
q-11 6 -44 29q-46 32 -85 57q74 133 206 194q-46 25 -73 70q-150 -105 -193 -262v240q3 60 -19 73q-19 17 -112 28q-6 -55 -39 -97q65 13 93 2q9 -7 8 -57v-3v-218q-56 184 -177 288q-40 -33 -85 -44q159 -93 192 -240q-68 0 -81 4v-64q-22 16 -69 53q-22 18 -34 27
q6 5 19 16q54 44 96 81q-34 21 -68 52q-29 -50 -97 -123v192q1 67 -24 85q-15 18 -111 28q-5 -50 -39 -93q25 7 57 9q29 2 38 -3q11 -6 10 -38v-236q-67 171 -173 268q-29 -30 -79 -46q108 -64 186 -210h-67q-22 0 -34 1q-25 0 -32 3v-73q3 2 28 3h33h64h74v-59
q0 -39 -4 -60q90 0 95 10q2 4 -7 13q-15 15 -15 29v121q40 -29 125 -121q20 11 56 41q4 3 6 5q-5 3 -15 10q-9 6 -13 9q6 4 143 4v-69q-1 -54 -8 -77z" />
</svg>
