<?xml version="1.0" standalone="no"?>
<!DOCTYPE svg PUBLIC "-//W3C//DTD SVG 1.1//EN" "http://www.w3.org/Graphics/SVG/1.1/DTD/svg11.dtd" >
<svg xmlns="http://www.w3.org/2000/svg" xmlns:xlink="http://www.w3.org/1999/xlink" version="1.1" viewBox="-10 0 1010 1000">
   <path fill="currentColor"
d="M167 20q78 52 156 131l-61 62q-72 -74 -163 -131zM355 26q66 10 191 10h113q91 0 130 -2q46 -1 68 -6q-8 44 -8 203q0 172 6 202q-39 -6 -77 -8q-37 -2 -119 -2h-131q-129 0 -175 6q6 -25 8 -72q2 -45 2 -134q0 -159 -8 -197zM770 104h-328v93h328v-93zM442 264v88h328
v-88h-328zM113 264q73 37 167 103l-62 72q-77 -65 -164 -109zM607 445q82 2 95 12q0 2 -4 9q-15 24 -15 46v88q65 -24 152 -110q68 52 76 70q0 5 -17 9q-24 5 -39 13q-53 28 -172 83v87q-1 29 10 35q8 8 47 7h62q59 8 55 -109q39 41 87 52q-25 130 -115 132h-111
q-77 2 -91 -15q-19 -14 -18 -84v-244q0 -5 -1 -21q-1 -35 -1 -60zM347 449q79 1 90 8q0 1 -2 6q-12 23 -12 47v42q130 1 150 -8v73q-14 -3 -44 -4q-15 -1 -38 -1h-68v138q61 -20 139 -65v83q-143 62 -214 103q-9 6 -11 6l-37 -81q1 -1 7 -4q42 -25 42 -48v-220q0 -65 -2 -75
zM177 475q31 43 75 57q-7 24 -22 70q-44 139 -53 178q-9 30 -16 73q-3 16 -4 16q-2 0 -17 -10q-46 -30 -77 -39q69 -107 114 -345z" />
</svg>
