<?xml version="1.0" standalone="no"?>
<!DOCTYPE svg PUBLIC "-//W3C//DTD SVG 1.1//EN" "http://www.w3.org/Graphics/SVG/1.1/DTD/svg11.dtd" >
<svg xmlns="http://www.w3.org/2000/svg" xmlns:xlink="http://www.w3.org/1999/xlink" version="1.1" viewBox="-10 0 1010 1000">
   <path fill="currentColor"
d="M560 -15q69 2 85 4q22 2 22 7q0 2 -3 7q-17 32 -17 101h127q101 -2 131 -10v87q-41 -7 -135 -10h-123v79h131q70 -2 141 -8l-42 105q-21 50 -40 98q-30 -13 -89 -20q11 -15 40 -71q15 -26 20 -36h-346q-108 3 -143 10v-84q18 4 49 5q15 1 36 1h56h107v-79h-93
q-116 3 -129 8v-81q27 6 127 6h93q0 -68 -1 -86q-1 -24 -4 -33zM167 26q19 17 57 50q53 46 78 69l-70 64q-46 -61 -131 -121zM87 237q100 55 169 101l-60 75q-42 -48 -162 -107zM442 336q48 29 133 95l-63 54q-56 -60 -123 -104zM591 338q110 7 111 12q1 3 -4 6
q-16 11 -17 37q-7 131 -18 211h121q115 -1 149 -8v87q-41 -9 -147 -12h-137q-77 170 -359 232q-15 -39 -66 -89q255 -11 336 -143h-157q-105 1 -143 8v-85q38 9 143 10h178q9 -46 13 -143q4 -92 -3 -123zM371 435q66 45 131 99l-64 56q-31 -46 -126 -105zM159 451l83 53
q-67 203 -101 363q-7 -4 -20 -10q-53 -29 -81 -39q84 -138 119 -367zM673 709q149 74 242 125l-64 77q-114 -89 -232 -139z" />
</svg>
