<?xml version="1.0" standalone="no"?>
<!DOCTYPE svg PUBLIC "-//W3C//DTD SVG 1.1//EN" "http://www.w3.org/Graphics/SVG/1.1/DTD/svg11.dtd" >
<svg xmlns="http://www.w3.org/2000/svg" xmlns:xlink="http://www.w3.org/1999/xlink" version="1.1" viewBox="-10 0 1034 1024">
  <g transform="matrix(1 0 0 -1 0 820)">
   <path fill="currentColor"
d="M168 441l-54 37q-16 12 -26 19q-9 -18 -26 -39q30 -15 59 -36l66 -48q21 -16 39 -33q1 4 7 11q6 12 9 15t10 13q-7 6 -18 13zM159 -95q4 -3 10 -6q33 109 45 137l56 150l26 68q-24 21 -36 39q-15 -63 -30 -111q-16 -51 -47 -126q-21 -54 -36 -85q-10 -25 -24 -42
q9 -4 15 -9q3 0 17 -12q1 -1 4 -3zM169 702q42 -33 74 -61l61 -62q7 15 29 32q-4 6 -13 12q-67 66 -142 124q-10 -12 -21 -26q-3 -3 -6 -5q9 -6 18 -14zM329 -43q27 25 76 57l123 80q13 10 56 36q0 3 -8 53q-18 -19 -45 -40q-28 -21 -79 -54q-54 -36 -93 -57
q-28 -15 -67 -30q18 -22 37 -45zM800 433l-470 3q-3 1 -9 2v-47q9 3 60 6h235v-447q0 -30 -14 -38q-18 -9 -57 -9q-15 0 -40 3q4 -10 9 -23q4 -12 7 -25q52 6 84 14q48 15 48 61v308q36 -81 95 -151q75 -94 185 -169q6 7 13 13q15 16 28 28q-52 21 -99 56q-87 67 -139 152
q27 16 65 43q43 28 71 45q18 10 53 19q-7 4 -14 10q-12 12 -37 33q-67 -60 -156 -118l-34 61q-12 27 -31 72v62l283 -1q18 0 33 -5v47q-42 -1 -83 -5h-48l11 219q1 33 5 66q-33 -1 -66 -5l-367 1l-30 4v-47q9 4 26 5l396 1l-5 -106l-354 1q-3 0 -22 1q-3 3 -7 4h-4v-47
q6 1 11 4q24 3 56 3h317zM393 330l-7 -14q-9 -12 -19 -23q91 -60 138 -106q12 21 25 37q-78 61 -93 72l-26 19z" />
  </g>

</svg>
