<?xml version="1.0" standalone="no"?>
<!DOCTYPE svg PUBLIC "-//W3C//DTD SVG 1.1//EN" "http://www.w3.org/Graphics/SVG/1.1/DTD/svg11.dtd" >
<svg xmlns="http://www.w3.org/2000/svg" xmlns:xlink="http://www.w3.org/1999/xlink" version="1.1" viewBox="-10 0 1034 1024">
  <g transform="matrix(1 0 0 -1 0 820)">
   <path fill="currentColor"
d="M221 357q6 12 19 25q-25 22 -69 57q-45 33 -86 62l-25 -37q90 -54 153 -117q3 6 8 10zM257 291q-9 -33 -26 -74q-30 -78 -76 -182q-16 -34 -37 -70q-9 -10 -18 -24q25 -22 47 -45l43 121l55 134l40 89q-19 33 -28 51zM297 575q3 7 21 25q6 4 12 9q-76 76 -137 132
q-3 3 -6 5q-19 -25 -33 -33l34 -28q18 -15 77 -75q15 -16 32 -35zM408 654q0 30 13 70h-57q0 -3 5 -23q0 -15 2 -47l-1 -320q-1 -10 -1 -25q-3 -75 -8 -114q-15 -144 -72 -233q-30 -48 -79 -83q36 -12 60 -23q33 43 67 105q48 96 62 230l9 183v280zM599 -57q0 -3 -3 -49
q0 -6 -3 -18h49l-4 41l-1 367q27 -33 72 -108q45 -73 74 -153q24 19 45 29q-39 69 -75 128l-46 69l-69 96l170 -3q3 0 15 -3v47q-18 -1 -16 -2l-99 -3h-71v277q0 33 12 69h-56q3 -54 6 -69v-277h-86q-30 0 -59 4q-4 1 -9 1v-47q36 6 57 6h85q-12 -42 -38 -107
q-27 -63 -52 -107q-52 -93 -113 -134q33 -6 61 -21q31 48 70 115q18 30 32 61l52 117v-326zM473 632l-26 -13q16 -19 64 -108q15 -36 34 -72q6 4 36 23q-12 31 -45 91l-51 86q-6 -3 -12 -7zM752 539q6 13 13 26q18 39 48 53q-30 15 -57 36q-6 -21 -17 -47q-10 -25 -24 -52
q-30 -60 -53 -92q22 -6 41 -21q42 88 49 97zM855 749q0 -7 3 -17q0 -9 4 -53l-1 -780q-3 -6 -3 -30q-1 -10 -3 -22h50q-6 42 -6 61l1 788q1 24 12 53h-57z" />
  </g>

</svg>
