<?xml version="1.0" standalone="no"?>
<!DOCTYPE svg PUBLIC "-//W3C//DTD SVG 1.1//EN" "http://www.w3.org/Graphics/SVG/1.1/DTD/svg11.dtd" >
<svg xmlns="http://www.w3.org/2000/svg" xmlns:xlink="http://www.w3.org/1999/xlink" version="1.1" viewBox="-10 0 1034 1024">
  <g transform="matrix(1 0 0 -1 0 820)">
   <path fill="currentColor"
d="M39 457q45 -27 78 -48l81 -62q13 25 27 43l-158 108q-13 -24 -28 -41zM239 206q6 15 13 34q-30 34 -34 43q-25 -99 -63 -209q-18 -54 -36 -93q-15 -33 -33 -65q15 -9 21 -14q6 -4 28 -26q15 54 33 110zM123 710q93 -69 158 -130q18 21 30 37q-70 60 -158 128
q-13 -18 -30 -35zM654 413q34 -43 58 -70q15 -18 52 -48q66 -52 183 -98q15 25 42 48q-48 9 -84 20q-81 27 -128 70q-48 45 -72 78l200 -1q15 0 32 -5h6v47q-6 0 -18 -2q-63 -3 -85 -4h-231q24 36 55 45q-33 16 -63 34q-18 -39 -44 -79q-216 0 -234 3q-1 0 -22 3v-47
q49 4 56 5l173 1q-66 -78 -150 -131q-39 -21 -109 -48q24 -13 46 -40q28 15 57 35q30 18 65 45q39 30 64 53q33 31 82 86h69zM821 97q7 10 22 23q13 15 41 22q-12 6 -60 39q-31 -58 -103 -130q-108 -103 -262 -157q-75 -22 -137 -27q21 -19 41 -46q141 37 241 95
q99 57 187 150q15 16 30 31zM418 116l56 36q13 9 100 80q42 39 46 40q25 19 50 22q-33 21 -53 39q-34 -49 -109 -109q-82 -60 -149 -78q22 -13 46 -37q6 4 13 7zM375 3q27 -18 49 -39q144 85 235 176q43 42 57 50q15 9 36 13q-24 16 -55 40q-36 -55 -130 -135
q-111 -87 -192 -105zM474 571q55 63 109 130q25 30 66 46q-37 18 -63 38q-40 -73 -97 -142q-43 -51 -96 -72q15 -25 25 -52q24 6 54 9q21 0 43 3q108 10 162 13q22 1 48 2q42 1 80 5l34 -48q16 16 34 33q-31 39 -77 88l-43 45q-18 18 -34 32q-10 -12 -34 -30l24 -22l30 -27
q19 -19 40 -41z" />
  </g>

</svg>
