<?xml version="1.0" standalone="no"?>
<!DOCTYPE svg PUBLIC "-//W3C//DTD SVG 1.1//EN" "http://www.w3.org/Graphics/SVG/1.1/DTD/svg11.dtd" >
<svg xmlns="http://www.w3.org/2000/svg" xmlns:xlink="http://www.w3.org/1999/xlink" version="1.1" viewBox="-10 0 1034 1024">
  <g transform="matrix(1 0 0 -1 0 820)">
   <path fill="currentColor"
d="M53 443q69 -52 148 -118q12 18 28 34q-66 55 -147 117q-13 -18 -29 -33zM266 279q-10 -40 -28 -88q-19 -54 -50 -128q-45 -105 -77 -152q27 -27 41 -45l145 366q-19 25 -31 47zM145 679l80 -57l70 -59q15 21 26 37l-96 79l-48 35q-13 -18 -32 -35zM633 716q-6 9 -11 17
q1 1 4 5q3 6 22 17q-33 6 -67 19q-13 -51 -60 -121q-48 -70 -101 -117q-93 -81 -173 -103q10 -6 19 -14q18 -12 33 -24q93 60 164 127q61 61 136 178q54 -93 143 -166q79 -73 198 -121q13 19 45 48q-111 12 -215 102q-84 69 -122 130q-7 12 -15 23zM423 437q33 3 66 5
l268 -1q6 0 37 -3l2 -1v46q-33 -1 -67 -5l-265 1l-24 2l-17 2v-46zM341 354q1 -31 5 -64q0 -414 -3 -436q-1 -9 -3 -21h49q-1 3 -1 4q-1 3 -1 5q-3 6 -3 39l-1 147h170v-100q0 -28 -12 -35q-16 -4 -30 -5q-9 0 -34 3q-6 0 -17 2q12 -25 21 -51q45 4 64 10q45 12 46 64l1 392
l4 46q-33 -1 -67 -5q-126 0 -151 2q-6 3 -37 3zM383 64v106h170v-106h-170zM383 206v107h170v-107h-170zM682 320q0 -1 1 -3q0 -6 2 -10q0 -27 3 -56l-1 -222q-3 -3 -3 -40q0 -3 -2 -8h49l-4 42l-1 228q0 34 13 69h-57zM827 380q0 -7 3 -14l3 -155l-1 -297q-3 -12 -10 -17
q-21 -9 -55 -9q-21 0 -60 4q13 -24 25 -54q96 6 124 32q15 15 15 58v382q0 33 12 70h-56z" />
  </g>

</svg>
