<?xml version="1.0" standalone="no"?>
<!DOCTYPE svg PUBLIC "-//W3C//DTD SVG 1.1//EN" "http://www.w3.org/Graphics/SVG/1.1/DTD/svg11.dtd" >
<svg xmlns="http://www.w3.org/2000/svg" xmlns:xlink="http://www.w3.org/1999/xlink" version="1.1" viewBox="-10 0 1010 1000">
   <path fill="currentColor"
d="M492 -8q15 2 41 4q61 4 60 12q1 2 -2 10q-14 36 -14 99h30q78 0 115 -7v79q-33 -3 -39 -2h-30h-48h-26v123h44q130 -118 175 -254q9 5 26 15q87 51 77 54q-2 2 -14 7q-22 9 -30 17q-72 79 -141 161h84q99 -3 146 -10v83q-30 -6 -140 -8h-147l-96 92h131q96 -2 141 -8
q-6 42 -6 129v172q0 76 10 145l-95 -2v-3q6 -38 6 -62h-268q1 11 2 33t2 32h-93q7 -50 10 -163v-148q-14 10 -47 36q-44 33 -70 53q-28 -47 -66 -60q-45 135 -69 258l-101 -53q84 -144 121 -351l79 55l-24 76q56 -12 177 -100q-1 -6 -2 -18q-2 -22 -2 -27l59 6
q33 -24 104 -90h-133q-112 2 -145 8v-85q37 8 143 8h73v-121h-34q-78 0 -113 8v-85q27 6 109 7h38q0 -89 -8 -125zM169 36q45 32 140 100q11 8 16 11l-63 72q-86 -76 -155 -113zM97 268q90 47 171 97l-58 76q-77 -61 -164 -97zM750 530h-268v87h268v-87zM482 681v89h268v-89
h-268z" />
</svg>
