<?xml version="1.0" standalone="no"?>
<!DOCTYPE svg PUBLIC "-//W3C//DTD SVG 1.1//EN" "http://www.w3.org/Graphics/SVG/1.1/DTD/svg11.dtd" >
<svg xmlns="http://www.w3.org/2000/svg" xmlns:xlink="http://www.w3.org/1999/xlink" version="1.1" viewBox="-10 0 1034 1024">
  <g transform="matrix(1 0 0 -1 0 820)">
   <path fill="currentColor"
d="M70 411q90 -42 152 -94l8 16l17 22l-33 22l-82 48q-15 9 -38 21q-21 -31 -24 -35zM173 -152l18 59q4 16 14 36l86 202q22 57 38 84q-18 10 -42 44q-6 -45 -27 -103q-12 -36 -34 -85l-58 -132q-15 -30 -45 -72q10 -4 17 -8q-1 0 17 -13q7 -6 16 -12zM148 669
q58 -37 94 -62q30 -22 59 -47q4 6 8 13q7 15 19 24q-39 24 -85 57l-70 51q-21 -33 -25 -36zM386 135q43 27 51 33q7 6 16 10l-2 -337q-3 -6 -3 -14h49q-3 39 -5 71v5h335q-1 -27 -3 -56q-1 -3 -1 -8q-1 -3 -1 -6h48q-3 33 -5 67l1 336l4 46q-21 -1 -34 -2q-22 -3 -33 -3
h-215l44 42q37 39 77 76l207 -1q24 0 40 -5v47l-15 -2l-151 -3h-49q6 9 79 107q27 43 40 58q13 22 25 30q9 12 33 23q-12 9 -37 20l-20 13q-24 -48 -64 -107q-37 -57 -66 -92q-24 -30 -47 -52h-53v140q93 0 109 -2q13 0 26 -4v47q-43 -4 -79 -5h-56v106q0 15 3 31
q3 19 18 38h-64l5 -111v-64q-132 0 -154 2q-3 1 -11 2q-3 1 -5 1v-47q4 3 52 6h118v-140l-221 1q-18 3 -20 3q-3 1 -6 1v-47q4 3 53 6h255q-40 -39 -73 -68q-28 -25 -62 -50q-60 4 -71 5q6 -48 7 -54q-54 -43 -125 -60q19 -16 28 -28q6 -6 13 -14zM492 -61v139h335v-139
h-335zM827 241v-127h-335v92q22 18 45 35h290z" />
  </g>

</svg>
