<?xml version="1.0" standalone="no"?>
<!DOCTYPE svg PUBLIC "-//W3C//DTD SVG 1.1//EN" "http://www.w3.org/Graphics/SVG/1.1/DTD/svg11.dtd" >
<svg xmlns="http://www.w3.org/2000/svg" xmlns:xlink="http://www.w3.org/1999/xlink" version="1.1" viewBox="-10 0 1034 1024">
  <g transform="matrix(1 0 0 -1 0 820)">
   <path fill="currentColor"
d="M84 421q78 -57 136 -105q12 21 24 32q-24 25 -136 106q-12 -18 -24 -33zM145 -148l45 127l57 149l29 74l-26 45q-12 -39 -27 -78q-16 -46 -48 -123l-43 -105q-13 -27 -31 -55zM147 678q46 -37 78 -67l55 -55q12 13 29 31l-132 121q-10 -15 -30 -30zM586 393
q-1 -24 -3 -49q-1 -9 -3 -18h49q0 6 -1 9q-3 6 -3 39l-1 146q58 -72 119 -122q79 -66 176 -117q24 22 50 40q-84 22 -159 72q-97 66 -163 158l210 -1l42 -4v47q-13 -3 -31 -4q-16 0 -35 -2h-209v101q0 33 12 70h-56q0 -9 2 -13l4 -111v-47l-212 1q-9 1 -22 2q-4 0 -17 3v-47
q42 6 116 5h100q-34 -48 -136 -144q-76 -66 -142 -90q33 -18 52 -34q40 28 117 97q46 45 85 85q33 34 59 64v-136zM285 -127l67 6l524 -1l40 -4l3 -1v47q-9 0 -17 -3q-24 0 -50 -3l-525 1l-24 2q-9 1 -18 3v-47zM754 -5q33 -1 69 -5q-6 69 -6 93q0 165 2 174q0 15 4 43
q-66 -4 -89 -5l-303 1q-15 3 -47 4q6 -66 6 -78l-1 -183q-3 -12 -3 -27q0 -9 -2 -22q51 4 105 5h265zM427 31v101h353v-101h-353zM427 168v91h353v-91h-353z" />
  </g>

</svg>
