<?xml version="1.0" standalone="no"?>
<!DOCTYPE svg PUBLIC "-//W3C//DTD SVG 1.1//EN" "http://www.w3.org/Graphics/SVG/1.1/DTD/svg11.dtd" >
<svg xmlns="http://www.w3.org/2000/svg" xmlns:xlink="http://www.w3.org/1999/xlink" version="1.1" viewBox="-10 0 1034 1024">
  <g transform="matrix(1 0 0 -1 0 820)">
   <path fill="currentColor"
d="M157 409l-51 43q-9 7 -15 13q-7 -15 -29 -35q45 -24 144 -118q12 21 27 34q-3 3 -14 11zM140 -112q7 27 21 54q10 28 28 65l65 137q13 28 39 77q-18 18 -34 50q-24 -75 -66 -168q-28 -63 -51 -104q-19 -36 -41 -68q10 -10 25 -26zM160 715l84 -76q24 -24 51 -58
q15 21 29 31q-33 36 -73 75q-34 34 -59 57q-12 -12 -32 -29zM275 -139q27 45 47 83q60 111 80 206q7 39 13 94q6 54 6 100v179l427 -1q10 0 47 -5q-4 60 -5 88l5 112q-16 -1 -31 -3q-25 -3 -33 -3h-390q-7 0 -29 3q-15 0 -34 3q1 -33 5 -68l-1 -338l-7 -94q-4 -36 -12 -63
q-21 -99 -83 -199q-24 -39 -64 -72q28 -9 59 -22zM852 674v-113l-431 -1v114h431zM657 -79h-197q-30 0 -55 3q-3 0 -12 2v-47q18 6 67 6l466 -1q18 0 33 -5v47q-33 -1 -66 -5h-199v138q183 0 189 -3q3 0 10 -2v48q-10 -3 -15 -3q-21 -1 -50 -3h-134v112l157 12
q27 -28 38 -43q15 16 31 31l-80 80q-40 37 -72 64q-13 -15 -27 -31q37 -30 79 -68l-137 -10l-133 -7q33 34 67 75l43 51q9 16 25 32l188 -1q24 0 40 -5v47q-33 -1 -66 -5l-361 1q-24 3 -29 4v-47q18 6 67 6h112q-51 -66 -99 -119q-30 -28 -56 -38q10 -22 16 -51q33 9 44 9
q18 3 59 5q4 0 57 4v-108l-149 1q-31 3 -43 4q-1 0 -5 1v-48q12 3 23 3l139 2h35v-138z" />
  </g>

</svg>
