<?xml version="1.0" standalone="no"?>
<!DOCTYPE svg PUBLIC "-//W3C//DTD SVG 1.1//EN" "http://www.w3.org/Graphics/SVG/1.1/DTD/svg11.dtd" >
<svg xmlns="http://www.w3.org/2000/svg" xmlns:xlink="http://www.w3.org/1999/xlink" version="1.1" viewBox="-10 0 1034 1024">
  <g transform="matrix(1 0 0 -1 0 820)">
   <path fill="currentColor"
d="M222 362q3 6 7 11q-28 21 -66 46l-81 50q-6 -9 -12 -19q-4 -7 -13 -19l80 -46q30 -19 69 -49q3 6 16 26zM102 -80q25 -24 44 -46l8 31q6 18 14 46l99 287q0 3 -8 12q-6 6 -15 19q-3 4 -10 13q-6 -34 -29 -114l-53 -150q-25 -64 -50 -98zM134 668q4 0 92 -65
q22 -18 53 -45q12 15 19 25q6 6 9 10q-22 21 -62 49q-18 12 -46 33l-39 26q-13 -21 -26 -33zM397 433h152q0 -90 -2 -118q-3 -3 -3 -40q51 4 100 5q112 0 127 -2q15 0 39 -3q-6 66 -6 98v60q124 0 146 -3q6 0 12 -2v46q-33 -1 -68 -5h-90v33q0 31 12 68h-56q0 -15 5 -36
l1 -65h-179v27q0 33 12 69h-55q0 -9 2 -13q0 -40 3 -83h-152v133q504 0 514 -2q10 0 22 -3v46l-42 -4l-197 -1q12 18 20 32q-16 12 -46 31l-98 60q-12 -24 -22 -36q9 -6 19 -12q39 -22 63 -38l52 -37l-277 1q-3 0 -50 4q1 -34 5 -71v-257q0 -135 -11 -208q-16 -103 -66 -174
q-25 -36 -66 -60q25 -7 57 -22q22 27 39 53q39 63 58 122q25 96 26 269v138zM766 316h-179v117h179v-117zM525 202l-49 4l-17 2v-47l17 2l49 4h12q43 -106 114 -184q-39 -34 -124 -72q-73 -27 -139 -30l40 -47q48 13 107 38q39 16 73 36q37 21 76 49q78 -49 120 -67
q72 -31 134 -48q21 24 44 46q-142 6 -269 97q42 48 78 102q45 75 65 121q-72 -6 -81 -6h-250zM792 167q-45 -88 -111 -159q-63 64 -104 159h215z" />
  </g>

</svg>
