<?xml version="1.0" standalone="no"?>
<!DOCTYPE svg PUBLIC "-//W3C//DTD SVG 1.1//EN" "http://www.w3.org/Graphics/SVG/1.1/DTD/svg11.dtd" >
<svg xmlns="http://www.w3.org/2000/svg" xmlns:xlink="http://www.w3.org/1999/xlink" version="1.1" viewBox="-10 0 1010 1000">
   <path fill="currentColor"
d="M137 22q40 24 159 115l-68 72q-56 -60 -153 -121zM319 40q63 8 183 8h240q112 -3 147 -6q-6 25 -6 93v34q0 73 6 103q-67 -4 -153 -4h-331q9 419 -135 615q-44 -32 -89 -43q91 -94 122 -245q16 -75 21 -177q6 -99 1 -251q-1 -80 -6 -127zM405 115v86h399v-86h-399z
M87 235q23 12 95 54q57 33 88 51l-58 77q-65 -59 -174 -107zM438 322q29 6 129 6h191q82 0 106 -1q32 -1 43 -3v83q-30 -10 -119 -10h-96q-19 17 -81 63q-35 26 -48 36l215 -2l-48 -45l66 -32q52 52 125 139l-76 46q-14 -28 -32 -52l-115 2v81h64q76 -3 109 -6v80
q-35 -10 -111 -10h-62v79h94q89 0 125 -6v84q-32 -6 -54 -8q-26 -2 -69 -2h-274q-101 1 -131 10v-88q40 8 131 10h103v-79h-69q-98 2 -116 8v-82q32 8 118 10h67v-77q-6 0 -18 1q-113 7 -141 13q-7 -45 -24 -78q68 -10 157 -97h-57q-78 0 -102 6v-79zM131 451l85 45
q-50 243 -65 369l-107 -45q65 -132 87 -369z" />
</svg>
