<?xml version="1.0" standalone="no"?>
<!DOCTYPE svg PUBLIC "-//W3C//DTD SVG 1.1//EN" "http://www.w3.org/Graphics/SVG/1.1/DTD/svg11.dtd" >
<svg xmlns="http://www.w3.org/2000/svg" xmlns:xlink="http://www.w3.org/1999/xlink" version="1.1" viewBox="-10 0 1010 1000">
   <path fill="currentColor"
d="M204 0q83 45 145 88l-53 65q-54 -46 -137 -95zM891 24v84q-2 1 -13 -1q-52 -7 -128 -7h-258v61h262q53 1 113 -8q-8 37 -8 84v29q-1 57 8 96q-51 -8 -109 -8h-266v63h266q65 1 133 -8q16 -3 18 -2v85q-55 -7 -149 -7h-236q-71 0 -119 7q3 -13 6 -59q3 -45 2 -58v-252
q0 -57 -8 -99q47 8 115 8h228q75 0 143 -8zM113 153q74 23 153 66l-46 73q-44 -30 -151 -73zM492 229v57h288v-57h-288zM323 280q11 46 34 89q-116 85 -198 169q-27 -53 -56 -77q122 -73 220 -181zM452 496q103 7 102 12q0 3 -4 11q-12 25 -12 49h204q153 -4 193 -10v85
q-72 -8 -193 -8h-111q91 114 321 149q-46 42 -63 95q-257 -93 -349 -242v103q3 128 8 157h-96q8 -65 8 -151v-101q-105 130 -329 242q-20 -43 -79 -77q173 -39 319 -175h-123q-110 0 -173 8v-85q73 9 173 10h212q0 -44 -8 -72z" />
</svg>
