<?xml version="1.0" standalone="no"?>
<!DOCTYPE svg PUBLIC "-//W3C//DTD SVG 1.1//EN" "http://www.w3.org/Graphics/SVG/1.1/DTD/svg11.dtd" >
<svg xmlns="http://www.w3.org/2000/svg" xmlns:xlink="http://www.w3.org/1999/xlink" version="1.1" viewBox="-10 0 1010 1000">
   <path fill="currentColor"
d="M538 0q86 4 85 10q1 2 -3 12q-7 20 -7 34v111h101v-111q0 -19 -2 -43v-9q74 1 88 12q1 3 -5 9q-9 11 -9 19v123q93 0 119 -4v72q-19 -2 -45 -3q-13 -1 -30 -1h-44q0 99 6 146q-20 -2 -50 -3q-15 -1 -34 -1h-49q-33 0 -84 2q-22 1 -37 2q5 -44 6 -144h-90v198h238
q109 0 167 -6v77q-13 -2 -49 -3q-17 -1 -42 -1h-70h-55v66h83q85 0 124 -1q44 -1 63 -3v77q-30 -7 -149 -6h-44q55 115 224 153q-39 28 -65 76q-155 -75 -236 -223v121q0 95 8 139h-91q8 -20 7 -110v-29v-95q-105 131 -261 224q-21 -39 -70 -67q155 -54 256 -187h-32
q-97 0 -123 1q-35 0 -47 3v-75q11 3 46 3q17 1 44 1h78h109v-68q-72 0 -111 1q-44 2 -79 5q2 -20 3 -49q1 -14 1 -32v-50v-140q-40 0 -81 5v-75q18 5 81 4v-59q0 -46 -4 -64q83 1 93 10q1 2 -4 7q-14 14 -14 31v75h90v-113q0 -35 -4 -54zM155 34q98 67 147 109l-60 66
q-80 -85 -147 -113zM714 233h-101v85h101v-85zM85 250q44 24 159 108l-56 69q-66 -68 -154 -111zM173 473q38 36 77 45q-81 220 -97 340q-48 -37 -93 -52q55 -113 113 -333z" />
</svg>
