<?xml version="1.0" standalone="no"?>
<!DOCTYPE svg PUBLIC "-//W3C//DTD SVG 1.1//EN" "http://www.w3.org/Graphics/SVG/1.1/DTD/svg11.dtd" >
<svg xmlns="http://www.w3.org/2000/svg" xmlns:xlink="http://www.w3.org/1999/xlink" version="1.1" viewBox="-10 0 1010 1000">
   <path fill="currentColor"
d="M125 -4q53 32 133 82l18 12l-52 69q-81 -61 -151 -91zM530 18q38 49 47 84q-5 1 -16 1q-38 -2 -103 14v179h36q10 -1 27 -1q31 0 42 -5v81q-17 -6 -65 -6h-40q-1 37 -2 95l-2 74h24q15 -1 39 -3q40 -4 46 -5v56q7 3 31 3q11 1 28 1h51h37v-109h-31q-68 1 -96 6v-80
q38 6 94 6h33v-111h-37q-42 0 -86 6v-79q17 3 58 5q18 0 28 1h37v-118h-23q-12 1 -36 1q-47 1 -66 5v-83q12 5 103 8h131q1 -1 31 -2q67 -4 77 -8v85q-21 -8 -102 -6h-37v118h33q70 -1 98 -6v79q-22 -6 -96 -6h-35v111h49q51 -1 78 -6v80q-26 -6 -80 -6h-47v111h49
q90 0 115 -6v85q-27 -6 -109 -8h-55v133q1 43 10 105h-100q12 -47 12 -111v-129h-39q-74 1 -119 6v-53q-23 -6 -58 -6h-44q-15 176 -162 291q-41 -38 -103 -57q161 -54 188 -234h-44q-62 0 -83 6v-82q18 6 87 6h46q2 -31 3 -69q1 -19 1 -42v-58h-36q-69 0 -93 6v-83
q15 5 93 8h36v-163q-7 2 -25 5q-34 7 -50 11q-10 -43 -34 -75q142 -8 256 -56zM63 233l12 6q105 46 151 77l-43 77q-61 -43 -159 -83zM139 441q39 39 77 44q-34 143 -67 386q-75 -56 -95 -59q58 -127 85 -371z" />
</svg>
