<?xml version="1.0" standalone="no"?>
<!DOCTYPE svg PUBLIC "-//W3C//DTD SVG 1.1//EN" "http://www.w3.org/Graphics/SVG/1.1/DTD/svg11.dtd" >
<svg xmlns="http://www.w3.org/2000/svg" xmlns:xlink="http://www.w3.org/1999/xlink" version="1.1" viewBox="-10 0 1010 1000">
   <path fill="currentColor"
d="M373 16q10 1 30 2q75 5 73 10q0 1 -2 5q-28 48 -28 192h34q41 -3 78 -8v81q-33 -6 -82 -6h-30v119l50 -26q10 18 33 60q26 49 40 75l-69 32q-19 -51 -54 -123v248q0 168 6 206h-91q15 -44 14 -210v-214q-31 112 -95 230q-29 -45 -68 -62q114 -117 161 -335h-24
q-65 2 -89 8v-83q30 6 89 6h26v-72q1 -113 -2 -135zM163 42q48 25 141 97l-64 74q-57 -66 -137 -105zM891 70q-4 34 -6 121v486q0 156 8 198h-85q0 -6 2 -20q5 -44 3 -69h-164q0 61 6 93h-88q10 -72 10 -210v-464q-2 -107 -8 -135q21 3 114 6h89q78 -2 119 -6zM649 147v147
h164v-147h-164zM111 266q88 45 155 90l-56 77q-75 -63 -152 -95zM649 358v150h164v-150h-164zM143 459l85 43q-9 47 -23 122q-43 209 -36 232q-54 -30 -109 -42q73 -156 83 -355zM649 572v147h164v-147h-164z" />
</svg>
