<?xml version="1.0" standalone="no"?>
<!DOCTYPE svg PUBLIC "-//W3C//DTD SVG 1.1//EN" "http://www.w3.org/Graphics/SVG/1.1/DTD/svg11.dtd" >
<svg xmlns="http://www.w3.org/2000/svg" xmlns:xlink="http://www.w3.org/1999/xlink" version="1.1" viewBox="-10 0 1010 1000">
   <path fill="currentColor"
d="M617 4q97 0 97 8q-1 3 -6 8q-11 12 -8 22q65 159 260 212q-49 36 -61 74q-59 -26 -99 -62q-11 10 -15 119q-3 93 -11 105q-27 48 -123 58q-7 -45 -38 -79q62 6 83 -2q22 -9 22 -38v-119h-125q-29 195 -200 256h353q51 0 103 -8q-6 21 -6 73v161q24 -2 63 -3q25 0 36 -1
v68q-16 -2 -50 -3q-16 -1 -39 -1h-61h-401q-58 0 -87 1q-33 1 -60 3v-68q41 4 91 4v-155q0 -52 -4 -75q12 3 54 4q-17 -44 -52 -70q184 -39 187 -186q-80 1 -109 6v-54q-21 31 -66 76q-36 -29 -75 -42q134 -97 218 -270q86 34 85 40q1 3 -6 5q-21 9 -39 33q-2 3 -9 12
q-59 83 -94 124q17 7 93 8h147q65 -1 105 -8q-118 -110 -153 -236zM163 18q10 5 29 14q73 37 125 68l-41 77q-84 -60 -159 -91zM71 235q110 49 161 81l-40 71q-62 -40 -160 -85zM181 435q20 20 69 40q-60 175 -87 392q-53 -36 -103 -49q32 -43 104 -320q12 -46 17 -63z
M778 623h-86v169h86v-169zM629 623h-81v169h81v-169zM484 623h-83v169h83v-169z" />
</svg>
