<?xml version="1.0" standalone="no"?>
<!DOCTYPE svg PUBLIC "-//W3C//DTD SVG 1.1//EN" "http://www.w3.org/Graphics/SVG/1.1/DTD/svg11.dtd" >
<svg xmlns="http://www.w3.org/2000/svg" xmlns:xlink="http://www.w3.org/1999/xlink" version="1.1" viewBox="-10 0 1010 1000">
   <path fill="currentColor"
d="M389 8q93 1 103 10q0 1 -2 6q-20 39 -20 101h256q0 -74 -1 -88q-1 -21 -5 -31q9 0 26 1q81 2 77 9q0 1 -2 4q-19 35 -19 103h23q92 -6 106 -6v74q-20 -2 -110 -2h-19v335h27q83 -1 111 -10v84q-34 -8 -130 -10h-403l2 216h301q118 -1 197 -12v83q-28 -5 -71 -7
q-21 0 -49 -1h-81h-228q-112 0 -153 8q5 -35 6 -117v-170q-53 0 -79 8v-80q26 5 75 8h68v-337h-20q-27 0 -85 8v-76q4 0 13 1q48 5 74 5h18q0 -100 -6 -117zM147 44q71 54 137 109l-62 66q-45 -54 -135 -113zM470 189v73h256v-73h-256zM89 272q88 37 177 91l-52 76
q-65 -56 -166 -89zM470 318v73h256v-73h-256zM470 447v77h256v-77h-256zM157 502l71 52q-77 243 -93 335q-43 -33 -87 -55q80 -147 109 -332zM571 608q76 47 72 49q0 3 -7 5q-20 5 -37 21q-48 44 -111 87q-17 -21 -67 -39q92 -44 150 -123zM738 613q66 54 125 108l-63 53
q-46 -64 -117 -121z" />
</svg>
