<?xml version="1.0" standalone="no"?>
<!DOCTYPE svg PUBLIC "-//W3C//DTD SVG 1.1//EN" "http://www.w3.org/Graphics/SVG/1.1/DTD/svg11.dtd" >
<svg xmlns="http://www.w3.org/2000/svg" xmlns:xlink="http://www.w3.org/1999/xlink" version="1.1" viewBox="-10 0 1034 1024">
  <g transform="matrix(1 0 0 -1 0 820)">
   <path fill="currentColor"
d="M74 414q36 -18 77 -47q51 -33 80 -60q9 18 24 40q-123 81 -157 106q-10 -21 -24 -39zM114 -126q28 -13 48 -30l92 249q33 82 59 138q-12 9 -41 39q-6 -31 -19 -75l-53 -140q-30 -78 -51 -123q-18 -34 -35 -58zM136 668l81 -53l70 -54q13 27 25 39l-152 104
q-10 -21 -24 -36zM600 -100l-266 1l-28 4v-46q9 4 26 5l554 1q42 0 59 -4q3 0 7 -2v46q-10 -1 -29 -3q-19 0 -37 -2h-245v139l177 -1q22 0 39 -5v46q-37 -1 -75 -5h-141v118l219 -1q22 0 39 -5v46q-9 -1 -28 -3q-19 0 -37 -2h-401q-33 0 -55 3q-1 0 -13 2v-46q15 4 34 5
l201 1v-118l-165 1q-4 1 -7 1q-12 1 -26 3v-46q7 3 27 4q7 1 75 2h96v-139zM398 382l-4 -54q0 -9 -1 -13q33 3 67 5l367 -1l48 -4q-3 33 -5 68l1 222q0 21 4 49q-60 -4 -67 -5h-217q1 3 4 10q19 60 55 83q-39 12 -63 24l-33 -106q-1 -4 -3 -11q-91 0 -117 2q-6 3 -41 3
q1 -33 5 -66v-206zM832 474v-118h-397v118h397zM832 510h-397v103h397v-103z" />
  </g>

</svg>
