<?xml version="1.0" standalone="no"?>
<!DOCTYPE svg PUBLIC "-//W3C//DTD SVG 1.1//EN" "http://www.w3.org/Graphics/SVG/1.1/DTD/svg11.dtd" >
<svg xmlns="http://www.w3.org/2000/svg" xmlns:xlink="http://www.w3.org/1999/xlink" version="1.1" viewBox="-10 0 1034 1024">
  <g transform="matrix(1 0 0 -1 0 820)">
   <path fill="currentColor"
d="M202 379q-94 67 -129 90q-10 -21 -23 -37q84 -48 142 -102q6 18 25 40zM214 280q-13 -67 -31 -124q-9 -33 -25 -73l-42 -109q-15 -40 -33 -68q30 -13 49 -27q3 12 56 176q42 126 51 147q6 18 13 31q-13 9 -27 31q-6 9 -11 16zM103 684q33 -24 52 -43q43 -39 85 -81
q1 -3 6 -8q9 15 30 33l-138 131q-30 -28 -35 -32zM279 63q4 -1 17 -4q33 57 51 93q15 31 36 79q13 33 29 66q0 -414 -3 -435q-1 -6 -2 -11q-1 -1 -1 -5h49q0 6 -2 13q-3 67 -4 105v334q49 -55 85 -109q12 9 16 14q9 9 19 12q-12 19 -51 65q-34 40 -69 77v55h46l51 -4
q6 0 15 -3v48q-3 0 -6 -1l-9 -3l-97 -2v208l76 14l44 5q-15 15 -36 44q-24 -10 -50 -17q-36 -9 -89 -19l-55 -7l-72 -6q12 -18 30 -41q18 3 29 6q6 0 86 14v-201l-117 2q-3 1 -5 1l-6 2t-5 1v-48q3 3 41 6l88 1q-15 -72 -71 -190q-30 -63 -52 -95q-22 -33 -46 -55
q19 -3 40 -9zM716 757q1 -6 2 -15q0 -27 3 -54l-1 -379q-6 -61 -31 -152q-31 -114 -97 -200q-42 -49 -88 -74q30 -18 50 -32q51 48 100 126q57 94 90 235q45 -127 86 -206q42 -81 98 -151q3 3 15 8q4 3 19 7l23 9q-18 12 -25 19q-22 18 -61 70q-51 76 -98 202
q-42 114 -42 168v350q0 15 3 31q3 21 19 38h-65zM615 281q7 28 16 66l21 100q7 37 12 47q4 12 18 29q-30 3 -60 11q-3 -54 -17 -121q-10 -57 -36 -123q16 0 34 -6zM856 311q21 81 24 91q3 6 5 16q15 55 23 70q6 16 28 37q-42 10 -62 19q-24 -135 -64 -240q21 -3 41 -13
q1 10 5 20v0z" />
  </g>

</svg>
