<?xml version="1.0" standalone="no"?>
<!DOCTYPE svg PUBLIC "-//W3C//DTD SVG 1.1//EN" "http://www.w3.org/Graphics/SVG/1.1/DTD/svg11.dtd" >
<svg xmlns="http://www.w3.org/2000/svg" xmlns:xlink="http://www.w3.org/1999/xlink" version="1.1" viewBox="-10 0 1010 1000">
   <path fill="currentColor"
d="M145 32q79 47 149 109l-62 66q-67 -71 -145 -111zM304 50q28 6 53 8q29 2 80 2h309q122 0 155 -8v87q-20 -5 -52 -7q-15 0 -37 -1h-62h-50v98h62q72 -1 111 -4q-6 28 -6 107v83q0 69 6 103q-54 -6 -153 -6h-252q-153 3 -164 8q7 -54 8 -115v-83q0 -77 -4 -99q19 3 99 6
h63v-98h-26q-88 0 -140 8v-89zM538 131v98h95v-98h-95zM77 258q48 23 171 94l-56 71q-48 -47 -162 -99zM470 292h-91v155h91v-155zM633 292h-95v157h95v-157zM800 292h-100v157h100v-157zM151 475l77 49q-62 227 -83 338q-60 -34 -93 -48q79 -161 99 -339zM544 526
q56 3 101 12q-24 18 -24 75h87q85 3 147 -7v85q-28 -8 -147 -8h-87v99h93q173 0 203 -8v89q-54 -9 -201 -9h-252q-136 1 -210 11v-89q28 4 71 5q20 1 51 1h88h86v-97h-72q-79 -2 -161 8v-87q40 7 163 7h68q-1 -22 -3 -55q-1 -27 -1 -32z" />
</svg>
