<?xml version="1.0" standalone="no"?>
<!DOCTYPE svg PUBLIC "-//W3C//DTD SVG 1.1//EN" "http://www.w3.org/Graphics/SVG/1.1/DTD/svg11.dtd" >
<svg xmlns="http://www.w3.org/2000/svg" xmlns:xlink="http://www.w3.org/1999/xlink" version="1.1" viewBox="-10 0 1034 1024">
  <g transform="matrix(1 0 0 -1 0 820)">
   <path fill="currentColor"
d="M55 449q97 -60 160 -115q13 19 27 37q-78 60 -159 117q-15 -19 -28 -39zM111 -77q24 -21 47 -44l39 102l104 245q-15 18 -33 46q-9 -34 -22 -69q-18 -48 -53 -128q-27 -64 -48 -104q-16 -31 -34 -48zM187 739q-13 -18 -31 -35q84 -61 152 -133q15 21 31 36zM615 -61
l-251 1l-42 4v-46q33 3 67 5l540 -1l39 -4v46q-18 -1 -16 -2q-25 0 -52 -3h-246v146q213 0 226 -3q6 0 15 -3h5v47q-51 -6 -78 -6h-168v141l190 -1q25 -1 53 -5q-4 54 -5 74l1 147l4 47q-34 -1 -70 -5h-92v140l163 -1l35 -4q3 0 8 -1v47q-9 0 -17 -3q-39 0 -79 -3l-447 1
q-15 1 -29 4q-3 0 -7 1v-47q66 6 90 6h91v-140h-86q-9 0 -33 3q-15 0 -35 2q6 -60 6 -93q0 -108 -2 -138q-1 -3 -1 -7q0 -18 -3 -30q42 6 89 6h137v-141l-186 1q-10 1 -26 3q-6 0 -18 2v-47q51 6 111 6h119v-146zM432 297v185h111v-185h-111zM580 297v185h119v-185h-119z
M580 518v140h119v-140h-119zM735 297v185h119v-185h-119z" />
  </g>

</svg>
