<?xml version="1.0" standalone="no"?>
<!DOCTYPE svg PUBLIC "-//W3C//DTD SVG 1.1//EN" "http://www.w3.org/Graphics/SVG/1.1/DTD/svg11.dtd" >
<svg xmlns="http://www.w3.org/2000/svg" xmlns:xlink="http://www.w3.org/1999/xlink" version="1.1" viewBox="-10 0 1034 1024">
  <g transform="matrix(1 0 0 -1 0 820)">
   <path fill="currentColor"
d="M91 411q87 -66 103 -81q7 -7 21 -20q13 22 28 34q-21 19 -42 37l-105 81q-13 -19 -29 -34q12 -7 24 -17zM125 677q88 -57 152 -132q16 21 33 37l-99 87q-30 27 -54 43q-9 -13 -21 -25q-4 -4 -11 -10zM151 -78q21 -18 34 -33q24 78 41 117q4 18 22 55q15 48 52 138
q6 21 13 34q-21 34 -29 51q-7 -31 -19 -65q-12 -36 -34 -88q-34 -84 -58 -133q-15 -31 -37 -62q7 -6 15 -14zM289 416l46 -31l76 73q37 39 51 49q9 6 34 10q-31 24 -55 46q-27 -42 -76 -93q-27 -24 -76 -54zM733 616l166 -1q21 -1 45 -5v47q-27 -4 -43 -5h-529q-12 1 -25 2
q-4 0 -17 3v-47q66 6 85 6h122l-3 -212q0 -9 -4 -17h50l-4 41l-1 188h120l-3 -211q-1 -7 -3 -17h50q0 4 -1 8q-3 7 -4 32zM519 749q42 -25 131 -95q1 1 10 14q6 9 15 22l-66 50q-36 25 -62 43q-12 -19 -28 -34zM367 39l35 4q24 3 31 3h426q-12 -75 -29 -111q-10 -24 -51 -32
q-42 -6 -69 -6q-22 0 -77 7l24 -56q163 6 198 48q12 13 20 37q9 31 22 88q13 63 16 66l-70 -6h-429l11 104l407 -1l50 -4q-4 54 -5 82l5 96q-60 -4 -96 -5q-357 0 -391 3q-4 1 -14 2v-47q12 3 17 3q48 3 75 3h366v-96l-403 1q-1 0 -46 4l-12 -128q-6 -28 -11 -59zM798 570
q-12 -16 -31 -33q79 -63 146 -139q25 25 34 33q-18 22 -65 65q-42 39 -84 74v0z" />
  </g>

</svg>
