<?xml version="1.0" standalone="no"?>
<!DOCTYPE svg PUBLIC "-//W3C//DTD SVG 1.1//EN" "http://www.w3.org/Graphics/SVG/1.1/DTD/svg11.dtd" >
<svg xmlns="http://www.w3.org/2000/svg" xmlns:xlink="http://www.w3.org/1999/xlink" version="1.1" viewBox="-10 0 1010 1000">
   <path fill="currentColor"
d="M607 -12q18 54 42 112h149q48 0 110 -8q7 -2 11 -2v85q-65 -8 -121 -8h-106v77q1 67 10 112h-89q9 -20 8 -112v-77h-73v79q0 56 8 114h-88q8 -40 8 -112v-81h-75q-60 0 -117 8v-83q10 1 28 2q63 6 85 6h172q-22 -36 -63 -84zM129 28q54 42 131 109l-60 68
q-66 -71 -127 -109zM365 201l68 49q-92 102 -143 137q-22 -30 -68 -45q89 -66 143 -141zM784 211q113 69 164 113l-61 67q-62 -61 -159 -117zM79 256q78 49 149 106l-57 65q-79 -68 -147 -97zM321 375q5 0 16 2q54 6 100 6h299q59 0 89 -6q-4 20 -4 68v61q0 26 4 65v5
q-36 -6 -79 -6h-337l-10 67h365q54 -1 99 -10q-1 9 -4 27q-25 188 -65 213q-58 35 -185 42q-11 -64 -39 -97q-6 -7 -5 -10q120 18 149 0q39 -21 52 -101h-365q-63 1 -91 4q6 -46 15 -82l8 -49q6 -32 6 -70q36 6 86 6h321v-67h-306q-44 0 -100 6q-13 2 -19 2v-76zM159 469
l85 47q-43 264 -87 375l-101 -65q71 -120 103 -357z" />
</svg>
