<?xml version="1.0" standalone="no"?>
<!DOCTYPE svg PUBLIC "-//W3C//DTD SVG 1.1//EN" "http://www.w3.org/Graphics/SVG/1.1/DTD/svg11.dtd" >
<svg xmlns="http://www.w3.org/2000/svg" xmlns:xlink="http://www.w3.org/1999/xlink" version="1.1" viewBox="-10 0 1010 1000">
   <path fill="currentColor"
d="M567 4q84 6 90 14q0 4 -5 11q-11 18 -11 39v32h81q73 0 98 -1q30 -2 45 -7q-11 26 -8 109q0 78 6 97q-12 -5 -46 -6q-34 -2 -113 -2h-63v64h141q79 0 108 -2q30 -2 43 -8v81q-14 -9 -149 -8h-312q-158 0 -184 8v-79q22 8 180 8h101v-64h-73q-115 0 -137 6q8 -25 8 -99
q0 -57 -1 -74q-1 -22 -5 -33q31 10 145 10h63q0 -84 -2 -96zM165 42q73 44 145 105l-68 64q-74 -72 -143 -107zM435 153v82h134v-82h-134zM641 153v82h141v-82h-141zM113 266q77 39 159 92l-62 69q-84 -65 -154 -95zM333 465q33 10 189 10h143q147 0 186 -8q-11 33 -8 139
q0 62 1 81q2 24 7 36h-91q5 -14 7 -41q0 -13 1 -31v-49v-62h-349v52q0 102 8 119h-94q8 -24 8 -117q1 -117 -8 -129zM169 487q53 32 81 37q-11 30 -57 236q-5 25 -8 36q-6 24 -8 49q0 10 -2 13q-2 0 -16 -10q-50 -35 -86 -46q59 -92 96 -315zM544 576q89 9 101 20q0 3 -7 11
q-14 15 -17 28q-36 222 -321 250q-19 -44 -66 -79q315 10 310 -230zM657 701q137 48 266 113l-68 77q-106 -74 -248 -125z" />
</svg>
