<?xml version="1.0" standalone="no"?>
<!DOCTYPE svg PUBLIC "-//W3C//DTD SVG 1.1//EN" "http://www.w3.org/Graphics/SVG/1.1/DTD/svg11.dtd" >
<svg xmlns="http://www.w3.org/2000/svg" xmlns:xlink="http://www.w3.org/1999/xlink" version="1.1" viewBox="-10 0 1010 1000">
   <path fill="currentColor"
d="M123 12q60 32 133 90l-50 69q-62 -55 -139 -93zM919 40v79q-57 -6 -94 -6h-27q-6 105 -18 250q67 0 151 -7v83q-80 -13 -165 -12l-18 65q31 0 52 4q41 3 20 20q-15 16 -14 28l-2 206q-8 47 37 44q26 1 34 -19q8 -14 12 -84q30 32 83 51q-3 10 -7 27q-15 92 -70 94
q-24 5 -71 4q-42 -2 -60 -9q-35 -12 -34 -64l4 -268q-37 124 -83 187q-67 94 -151 170q-31 -40 -91 -57q210 -104 287 -399q-29 0 -48 1q-20 1 -79 7q10 -39 10 -91v-163q52 3 70 10q18 6 9 23q-8 16 -7 28l-6 121h65q12 -132 14 -250h-59q-59 0 -92 6v-79q33 7 92 6h160
q56 1 96 -6zM444 113h-109v120h109v-120zM69 242q87 35 157 86l-51 75q-79 -60 -155 -85q37 -44 49 -76zM444 288h-109v113h109v-113zM131 451q27 35 77 49q-42 199 -67 360q-13 -10 -31 -23q-28 -22 -62 -39q64 -170 83 -347zM264 106q0 -26 -4 -62q39 6 107 6h44
q46 0 67 -1q24 -1 46 -5q-4 33 -4 71v272q0 51 4 76q-25 -4 -78 -4h-111v226l111 -87q-13 -32 -49 -64l69 -36q61 65 105 163l-73 42q-5 -20 -20 -50q-2 2 -7 6q-138 117 -181 169q-25 -43 -58 -64q23 -20 27 -33q7 -14 5 -44v-581z" />
</svg>
