<?xml version="1.0" standalone="no"?>
<!DOCTYPE svg PUBLIC "-//W3C//DTD SVG 1.1//EN" "http://www.w3.org/Graphics/SVG/1.1/DTD/svg11.dtd" >
<svg xmlns="http://www.w3.org/2000/svg" xmlns:xlink="http://www.w3.org/1999/xlink" version="1.1" viewBox="-10 0 1034 1024">
  <g transform="matrix(1 0 0 -1 0 820)">
   <path fill="currentColor"
d="M50 455q21 -15 52 -40q4 -4 8 -7q24 -19 37 -31q10 -9 25 -25q12 19 25 33q-34 37 -122 101q-13 -18 -25 -31zM83 -83q24 -12 48 -35l29 116l70 236l-33 41q-6 -39 -17 -78q-4 -24 -15 -54q-9 -36 -26 -84q-15 -54 -29 -88q-12 -30 -27 -54zM94 709q30 -24 53 -45l67 -69
q3 3 28 32q-16 19 -54 54q-33 33 -64 60q-12 -15 -24 -27q-3 -3 -6 -5zM429 499q0 33 12 69h-56q6 -42 6 -89l-1 -197q-1 -15 -2 -33q-4 -96 -17 -142q-31 -93 -97 -157q-27 -25 -73 -46q31 -15 56 -30q103 96 146 210q21 -13 66 -58q39 -39 71 -79q12 18 32 32
q-15 19 -44 48q-99 87 -112 98l8 83q4 121 5 218v73zM278 192q-1 -24 -3 -49q-1 -7 -2 -17h47l-4 42l-1 497h198l-1 -464q-3 -3 -3 -39l-2 -9h49q-4 24 -5 62l1 439l4 52q-36 -1 -71 -5q-150 0 -174 2q-6 3 -38 3q1 -34 5 -71v-443zM898 214l-18 14q-1 0 -7 5q-4 4 -14 11
q-15 -33 -32 -60q-18 -28 -55 -78q-25 85 -25 94l-13 66q150 24 184 28q7 1 20 2q-3 24 -4 47q-36 -10 -60 -16l-144 -24l-8 69l-8 95l124 20q27 3 68 8q-4 24 -7 46q-39 -12 -63 -17l-124 -19q-4 99 -5 143q0 42 3 83q1 19 20 39q-37 0 -70 5q12 -258 13 -278l-45 -6
q-25 -3 -52 -3q4 -22 10 -47q16 3 28 8q15 4 18 5q21 4 42 7q3 -57 8 -91q3 -42 8 -75l-62 -9q-30 -3 -53 -2l6 -47q22 6 53 13q28 6 59 10l18 -84l29 -101q-51 -60 -115 -109q-43 -33 -111 -55q24 -16 51 -39q24 15 44 29q22 16 57 45q21 18 39 33q19 18 52 52
q39 -84 74 -124q40 -45 68 -46q30 0 51 49q12 33 23 93q-22 12 -45 29q-3 -51 -5 -67q-4 -49 -31 -50q-10 0 -34 23q-15 18 -44 70q-13 24 -25 57l70 98q24 30 54 40q-7 6 -15 11zM775 695q6 -4 13 -11q34 -30 46 -41l44 -46q12 16 23 26q3 3 7 5q-21 21 -55 52
q-31 28 -56 49q-6 -6 -10 -12q-7 -7 -18 -16z" />
  </g>

</svg>
