<?xml version="1.0" standalone="no"?>
<!DOCTYPE svg PUBLIC "-//W3C//DTD SVG 1.1//EN" "http://www.w3.org/Graphics/SVG/1.1/DTD/svg11.dtd" >
<svg xmlns="http://www.w3.org/2000/svg" xmlns:xlink="http://www.w3.org/1999/xlink" version="1.1" viewBox="-10 0 1034 1024">
  <g transform="matrix(1 0 0 -1 0 820)">
   <path fill="currentColor"
d="M88 484q-9 -18 -23 -39q48 -27 84 -52q34 -24 74 -56q13 25 25 39q-75 54 -79 56l-39 25zM214 78l56 161q0 4 2 8l-37 41q-1 -10 -20 -82q-15 -49 -34 -101q-42 -118 -73 -171q3 -3 12 -7q18 -10 33 -25l36 108q12 34 25 68zM147 692q58 -39 144 -119q10 22 28 38
l-141 116q-9 -15 -31 -35zM257 -116q9 -1 14 -4q24 40 44 88q39 90 58 168q16 84 17 169v62h236v-98l-173 3q-4 1 -9 2v-47q6 3 13 3q24 3 54 3h115v-84q-105 0 -133 2q-12 3 -44 3q1 -6 2 -10q0 1 2 -22q3 -24 3 -77l-5 -183q-1 -1 -2 -4h50q-3 18 -4 42q0 13 -1 25h362
q-1 -46 -4 -63h46q-3 36 -4 70q0 171 2 184q0 18 3 38q-34 -1 -69 -5h-166v84l169 -1q24 -1 50 -5q-4 49 -5 72v68q42 0 84 -3q3 0 10 -3v47q-10 -3 -15 -3l-79 -2q0 75 2 88q0 19 3 39q-34 -1 -70 -5h-149v96h207q24 0 51 -3q6 0 14 -4v48q-33 -1 -65 -5h-157q6 12 16 22
l-68 44l-74 46q-10 -18 -25 -36q64 -33 122 -76l-295 1q-1 0 -43 4q1 -36 5 -72l-1 -311l-11 -107l-12 -55q-28 -94 -64 -155q-24 -40 -50 -66q15 -1 43 -12zM390 403v218h236v-96l-183 5v-46q24 6 44 6h139v-87h-236zM494 -39v153h362v-153h-362zM664 269v98h175v-98h-175z
M839 403h-175v87h175v-87z" />
  </g>

</svg>
