<?xml version="1.0" standalone="no"?>
<!DOCTYPE svg PUBLIC "-//W3C//DTD SVG 1.1//EN" "http://www.w3.org/Graphics/SVG/1.1/DTD/svg11.dtd" >
<svg xmlns="http://www.w3.org/2000/svg" xmlns:xlink="http://www.w3.org/1999/xlink" version="1.1" viewBox="-10 0 1034 1024">
  <g transform="matrix(1 0 0 -1 0 820)">
   <path fill="currentColor"
d="M69 448l82 -57l61 -48q7 16 24 34q-18 15 -44 34l-98 71q-12 -18 -25 -34zM257 167l26 62q3 9 9 23q-15 18 -30 48q-9 -31 -21 -65q-13 -39 -40 -106q-48 -127 -96 -197q22 -22 42 -47l35 93l41 102zM134 714q70 -48 150 -128l27 34l-45 42l-100 84q-12 -15 -32 -32z
M398 409v258q16 4 34 8l74 18q51 16 83 18q7 1 18 2l-36 48q-45 -21 -62 -27q-87 -28 -129 -29q-9 0 -25 1q1 -33 5 -68l-1 -226l-6 -21q-3 -7 -16 -23q21 -24 39 -46l35 41q18 19 58 60q45 46 73 66q19 -27 38 -55q12 12 32 26q-16 27 -30 45q-66 84 -74 94
q-15 -12 -33 -24l45 -58zM373 -89v-10q-3 -46 -7 -57h49q-4 52 -5 71h442q-3 -57 -6 -65h50q-6 25 -6 51l1 331q1 25 5 52q-72 -4 -97 -5l-384 1q-19 3 -49 4l4 -36q3 -24 3 -73v-264zM410 -49v134h192v-134h-192zM410 120v123h192l1 -123h-193zM640 -49v134h212v-134h-212z
M640 120v123h212v-123h-212zM593 331q78 73 115 151q24 57 35 192h133q-6 -213 -8 -229q-4 -28 -16 -38q-15 -10 -50 -11q-10 0 -59 6q10 -24 18 -49q73 3 102 14q24 10 36 40q3 12 6 27q1 19 3 67q3 121 6 156q0 15 3 31q0 9 2 28q-72 -6 -91 -6l-143 1q-12 3 -40 3
q-1 0 -12 2v-47q9 3 70 5q-4 -130 -42 -200q-42 -73 -123 -113q19 -9 55 -30v0z" />
  </g>

</svg>
