<?xml version="1.0" standalone="no"?>
<!DOCTYPE svg PUBLIC "-//W3C//DTD SVG 1.1//EN" "http://www.w3.org/Graphics/SVG/1.1/DTD/svg11.dtd" >
<svg xmlns="http://www.w3.org/2000/svg" xmlns:xlink="http://www.w3.org/1999/xlink" version="1.1" viewBox="-10 0 1010 1000">
   <path fill="currentColor"
d="M520 0q54 67 59 92q0 2 -10 0q-21 -3 -37 -2q-13 1 -55 8q-53 10 -84 14v214q48 -42 101 -80l-44 -69l62 -28q50 75 91 173l-69 30q-4 -18 -13 -41q-3 -7 -5 -11q-20 17 -56 49q-93 80 -117 106q-23 -47 -61 -78q31 -25 39 -59v-179q0 -51 -6 -81q140 -14 205 -58z
M135 26q107 65 161 117l-56 76q-59 -66 -155 -123zM825 54q39 0 96 -6q-9 53 -17 170q-8 122 -19 145q-25 55 -141 66q-4 -46 -40 -93q8 1 22 2q74 13 82 -18q13 -31 23 -201h-91q-17 242 -149 344q-43 -31 -87 -38q156 -80 169 -304q-35 0 -84 10v-83q48 5 103 6h133z
M89 262q95 54 157 103l-54 74q-53 -49 -148 -103zM893 461q-6 36 -6 75v246q1 61 10 107h-93q6 -27 8 -59h-395q0 16 4 46q1 14 2 21h-94q8 -50 8 -105v-252q0 -36 -8 -77q30 6 84 6h393q31 0 87 -8zM175 465q31 33 79 59q-46 149 -83 361q-70 -39 -109 -51q64 -95 113 -369
zM812 532h-169v85h169v-85zM573 532h-158v87h158v-87zM812 673h-169v93h169v-93zM573 675h-158v91h158v-91z" />
</svg>
