<?xml version="1.0" standalone="no"?>
<!DOCTYPE svg PUBLIC "-//W3C//DTD SVG 1.1//EN" "http://www.w3.org/Graphics/SVG/1.1/DTD/svg11.dtd" >
<svg xmlns="http://www.w3.org/2000/svg" xmlns:xlink="http://www.w3.org/1999/xlink" version="1.1" viewBox="-10 0 1034 1024">
  <g transform="matrix(1 0 0 -1 0 820)">
   <path fill="currentColor"
d="M61 437l96 -56q16 -9 52 -39q3 6 18 31q1 1 5 6l-30 21q-16 9 -52 32q-30 18 -66 42q-6 -6 -10 -17q-1 -1 -7 -12q-3 -3 -6 -8zM267 268q-4 4 -8 7q-13 -51 -43 -122q-24 -57 -55 -116q-27 -57 -53 -100q-21 -33 -39 -49q33 -7 58 -23q39 96 48 111q3 9 125 266
q-19 12 -33 26zM151 703q-13 -27 -21 -37q81 -40 146 -94q10 19 23 39q-48 31 -148 92zM381 -90q-70 0 -94 2q-3 1 -12 2q-3 1 -5 1v-47q4 3 52 6l606 -1q22 0 39 -5v47q-43 -4 -80 -5h-18l1 228l4 49q-66 -6 -93 -6l-360 1q-24 4 -45 5q1 -33 5 -68v-209zM418 -90v235h111
v-235h-111zM566 -90v235h112v-235h-112zM715 -90v235h116v-235h-116zM598 494h-213q-33 0 -55 3q-1 0 -13 2v-47q6 3 13 3q24 3 55 3h191q-27 -40 -105 -104q-70 -54 -111 -59q12 -27 19 -57q19 16 108 22l346 21q18 -18 45 -54q7 10 29 33q-6 7 -93 95l-67 66q-1 -3 -4 -6
q-6 -9 -28 -24q49 -34 91 -80q-9 0 -162 -8l-198 -9q48 36 108 86q37 30 45 33q22 15 48 23q-19 10 -32 22l279 -1q27 0 37 -4l2 -1v47q-4 0 -65 -5h-232v102l201 -1q24 0 40 -5v47q-9 -1 -29 -3q-19 0 -37 -2h-175v58q0 15 3 31q3 21 19 38h-65q1 -6 2 -15l3 -112h-156
q-36 0 -61 4q-3 1 -5 1v-47q7 3 26 4q7 1 71 2h125v-102z" />
  </g>

</svg>
