<?xml version="1.0" standalone="no"?>
<!DOCTYPE svg PUBLIC "-//W3C//DTD SVG 1.1//EN" "http://www.w3.org/Graphics/SVG/1.1/DTD/svg11.dtd" >
<svg xmlns="http://www.w3.org/2000/svg" xmlns:xlink="http://www.w3.org/1999/xlink" version="1.1" viewBox="-10 0 1034 1024">
  <g transform="matrix(1 0 0 -1 0 820)">
   <path fill="currentColor"
d="M83 503q-9 -19 -24 -36q25 -15 74 -52q40 -30 72 -59q10 21 24 34q-18 16 -38 33zM106 -73q33 -18 48 -31l35 118l68 189q6 21 28 72q-24 21 -38 41q-3 -27 -13 -58q-12 -40 -38 -112q-57 -156 -90 -219zM139 720q33 -21 76 -53q45 -36 72 -62q9 19 25 34q-51 42 -84 67
q-27 19 -63 45q-4 -3 -9 -9q-9 -10 -17 -22zM345 -71q51 30 77 47q22 15 52 40t54 50q25 27 63 72l24 27l-1 -264q-3 -3 -3 -34q0 -7 -2 -13h49q0 6 -2 13l-4 54v233q111 -141 284 -210q12 19 15 21q3 3 10 13l12 15q-69 7 -140 49q-87 51 -163 146h227q19 0 51 -3
q6 0 15 -3v47q-33 -1 -66 -5h-245v28q0 16 4 30q3 21 17 38h-64q0 -6 3 -13q0 -39 3 -81v-2l-282 3q-4 1 -8 1q-3 1 -5 1v-47q7 3 27 4q6 1 40 2h193q-60 -87 -153 -159q-75 -54 -148 -71q15 -9 22 -15q6 -6 25 -27q9 7 19 13zM725 682h126q19 0 51 -3q6 0 15 -3v47
q-33 -1 -66 -5l-500 3q-3 1 -6 1q-3 1 -6 1v-47q9 3 60 6h136v-109l-118 1q-9 1 -52 5q6 -63 7 -83q0 -84 -2 -113q-3 -3 -3 -26q0 -9 -2 -16q33 3 66 5l421 -1q18 0 47 -4q-4 57 -5 84q0 100 2 109q-1 6 0 11q1 15 3 34q-60 -6 -88 -6h-86v109zM408 382v156h127v-156h-127z
M571 573v109h117v-109h-117zM571 382v156h117v-156h-117zM725 382v156h131v-156h-131z" />
  </g>

</svg>
