<?xml version="1.0" standalone="no"?>
<!DOCTYPE svg PUBLIC "-//W3C//DTD SVG 1.1//EN" "http://www.w3.org/Graphics/SVG/1.1/DTD/svg11.dtd" >
<svg xmlns="http://www.w3.org/2000/svg" xmlns:xlink="http://www.w3.org/1999/xlink" version="1.1" viewBox="-10 0 1010 1000">
   <path fill="currentColor"
d="M554 -4h59q18 1 28 2q21 1 20 8q0 3 -4 9q-20 34 -20 118v250h161v-85h-54q-42 -2 -71 6v-75q13 3 67 6h58v-82h-52q-50 0 -75 8v-83q25 5 79 6h44q61 -1 85 -4q-5 30 -6 103v133q1 98 8 137q-27 -6 -101 -6h-143v83h95q83 -1 127 -8q-61 129 -198 236q52 24 133 33
q85 9 162 1q-31 43 -55 101q-199 -25 -308 -91q-95 51 -305 99q-25 -48 -70 -89q159 0 302 -54q-67 -53 -123 -127l41 -33h-5q-91 1 -123 8v-82q32 5 127 6h125v-83h-122q-58 1 -109 8q4 -30 4 -113v-131q0 -85 -8 -117q93 -6 167 -42q42 72 44 83q-2 0 -6 -1
q-25 -6 -121 19v85h29q54 -2 82 -9v77q-30 -7 -72 -4h-39v81h151v-246q-1 -99 -8 -141zM139 28q80 45 173 119l-68 72q-75 -72 -161 -119zM87 256q55 22 169 86q9 5 14 8l-58 81q-65 -48 -178 -101zM171 475l81 55q-81 282 -95 355l-107 -61q99 -163 121 -349zM466 598
q57 72 125 123q70 -50 125 -123h-250z" />
</svg>
