<?xml version="1.0" standalone="no"?>
<!DOCTYPE svg PUBLIC "-//W3C//DTD SVG 1.1//EN" "http://www.w3.org/Graphics/SVG/1.1/DTD/svg11.dtd" >
<svg xmlns="http://www.w3.org/2000/svg" xmlns:xlink="http://www.w3.org/1999/xlink" version="1.1" viewBox="-10 0 1010 1000">
   <path fill="currentColor"
d="M534 -4q88 4 101 16q0 3 -7 12q-26 32 -41 74h177q7 0 30 -1q66 -2 63 1q-6 37 -6 81v250q1 74 6 97q-23 -6 -99 -6h-282q-43 0 -113 6q5 -23 6 -89v-250q0 -46 -6 -85q-1 -4 66 -1q23 1 29 1h50q22 -55 26 -106zM171 40q84 50 162 115l-67 70q-8 -6 -23 -19
q-84 -71 -138 -100zM442 159v68h332v-68h-332zM109 254q78 30 191 96l-56 81q-94 -66 -188 -95zM774 282h-332v62h332v-62zM442 395v64h237h95v-64h-332zM173 467l83 49q-89 301 -84 345q-3 21 -5 24q-15 6 -104 -45q66 -159 110 -373zM766 534q27 40 51 89h18q69 0 98 -8
v82q-12 -4 -33 -5q-18 -1 -63 -1h-190q48 58 123 87q70 28 194 28q-44 41 -65 99q-165 -46 -201 -77q-66 -42 -111 -129q-42 133 -285 218q-26 -47 -78 -89q217 -11 294 -137h-137q-70 0 -105 8v-84q45 8 105 8h151q5 -53 2 -87q91 6 99 18q0 6 -10 16q-11 12 -12 20
q-4 17 -4 33h133q-13 -28 -42 -69z" />
</svg>
