<?xml version="1.0" standalone="no"?>
<!DOCTYPE svg PUBLIC "-//W3C//DTD SVG 1.1//EN" "http://www.w3.org/Graphics/SVG/1.1/DTD/svg11.dtd" >
<svg xmlns="http://www.w3.org/2000/svg" xmlns:xlink="http://www.w3.org/1999/xlink" version="1.1" viewBox="-10 0 1034 1024">
  <g transform="matrix(1 0 0 -1 0 820)">
   <path fill="currentColor"
d="M67 452q39 -21 92 -59q57 -39 76 -58q15 27 26 40q-24 18 -156 106l-14 8q-6 -15 -24 -37zM120 -81l28 -29l84 259l31 93q-24 21 -37 38q-9 -70 -44 -171q-34 -105 -74 -180q6 -4 12 -10zM146 704l81 -67q40 -34 69 -65q10 18 29 33q-57 54 -148 131q-16 -15 -31 -32z
M372 355q0 -117 -18 -206q-21 -94 -66 -167q-27 -40 -61 -70q36 -12 40 -14q3 0 15 -10q30 48 48 82q45 94 65 191q6 40 11 90q3 51 4 104v94h91v-181q-3 -24 -24 -40q18 -18 29 -42q84 69 169 114q-3 22 -5 46q-24 -21 -41 -32l-91 -57v192h106q3 -9 10 -16q36 -60 50 -79
q27 -31 38 -39q40 -34 98 -61l78 -32q4 0 11 -3q6 16 20 34q4 7 9 14q-42 1 -77 12q-64 22 -99 51q55 57 95 63q-18 13 -42 41l-31 -34q-16 -16 -49 -46q-33 25 -68 95h197q21 0 51 -3q6 0 15 -3v47q-6 0 -15 -3l-83 -2h-442v186h440q19 0 50 -3q6 0 16 -3v47q-33 -1 -66 -5
l-436 1q-7 1 -16 2q-13 0 -32 2q6 -66 6 -85v-272zM782 157l-344 3q-4 1 -7 1q-3 1 -5 1v-47q7 3 26 4q7 1 79 2h251v-181q0 -21 -18 -28q-30 -7 -61 -8q-15 0 -41 3q9 -27 13 -46q33 1 68 8q36 6 50 14q27 13 28 53v185h71q19 0 52 -3q4 0 14 -3v47q-33 -1 -66 -5h-71
q0 45 12 65q3 7 8 12h-65q3 -6 3 -15q0 -30 3 -62zM880 602q-7 0 -15 -3l-87 -2l-289 3q-3 0 -7 1q-3 1 -5 1v-47q4 3 52 6l310 -1q27 0 39 -4l2 -1v47zM593 -15q9 -9 29 -32q7 15 29 31l-56 53q-7 7 -20 19q-15 12 -42 37q-10 -15 -27 -30q16 -12 87 -78v0z" />
  </g>

</svg>
