<?xml version="1.0" standalone="no"?>
<!DOCTYPE svg PUBLIC "-//W3C//DTD SVG 1.1//EN" "http://www.w3.org/Graphics/SVG/1.1/DTD/svg11.dtd" >
<svg xmlns="http://www.w3.org/2000/svg" xmlns:xlink="http://www.w3.org/1999/xlink" version="1.1" viewBox="-10 0 1034 1024">
  <g transform="matrix(1 0 0 -1 0 820)">
   <path fill="currentColor"
d="M63 448q72 -37 151 -98q6 18 22 38q-94 63 -152 98q-9 -19 -21 -38zM124 -73q12 -10 22 -18q3 -1 10 -9q36 102 82 216q36 90 64 148q0 3 3 5q-12 15 -36 55q-9 -34 -34 -110q-9 -19 -85 -205q-4 -6 -6 -12q-12 -27 -36 -60q7 -4 16 -10zM149 691q70 -39 145 -114
q3 6 8 12q4 7 11 14q4 4 9 13q-18 15 -39 31l-66 53q-15 12 -36 27q-6 -6 -8 -9q-12 -15 -18 -20q-3 -3 -6 -7zM579 105q-33 -76 -120 -133q-96 -58 -163 -64q19 -21 37 -49q171 76 245 165q15 21 39 66q40 -78 127 -141q63 -42 175 -88q15 25 39 47q-90 12 -182 67
q-85 55 -124 130l254 -1q24 0 42 -5v47q-33 -1 -66 -5h-253q3 12 4 25q9 61 30 87q-30 1 -62 7q0 -45 -5 -75q-4 -22 -7 -44l-247 3q-4 1 -7 1q-3 1 -5 1v-47q4 3 51 6h198zM775 280q33 -1 69 -5q-3 33 -5 67l1 289q0 19 4 47q-34 -1 -69 -5h-179q3 12 17 44q1 6 6 10
q9 18 31 36q-48 7 -65 13q-6 -28 -13 -53q-7 -24 -18 -50l-107 1q-19 3 -49 4q1 -31 5 -65l-1 -291q-3 -15 -4 -47q54 4 109 5h268zM440 316v95h361v-95h-361zM440 445v74h361v-74h-361zM440 555v82h361v-82h-361zM738 251q-7 4 -13 9q-12 -22 -25 -37q81 -52 102 -73
q15 24 28 36z" />
  </g>

</svg>
