<?xml version="1.0" standalone="no"?>
<!DOCTYPE svg PUBLIC "-//W3C//DTD SVG 1.1//EN" "http://www.w3.org/Graphics/SVG/1.1/DTD/svg11.dtd" >
<svg xmlns="http://www.w3.org/2000/svg" xmlns:xlink="http://www.w3.org/1999/xlink" version="1.1" viewBox="-10 0 1010 1000">
   <path fill="currentColor"
d="M161 8q78 53 147 113l-64 72q-76 -73 -147 -117zM903 30q-9 30 -8 70v111q1 41 6 73q-51 -6 -82 -6h-111v99h125q39 0 82 -8q-7 42 -8 114l-4 275q0 79 -33 100q-31 26 -142 31q-12 -54 -57 -109q57 12 80 14q26 2 41 -5q29 -10 29 -74l4 -266l-109 2q-48 1 -85 6
q7 -45 10 -127q0 -107 -4 -133q55 8 85 8h99v-95h-93q-47 0 -103 7v-89q60 8 97 8h99q31 0 82 -6zM87 237q129 50 185 89l-54 81q-72 -49 -176 -95zM173 445q41 39 81 49q-49 169 -91 377q-40 -30 -96 -49q77 -175 106 -377zM720 463l36 119l-77 20q-3 -43 -20 -88
q-7 -21 -12 -35zM399 465q10 43 38 129l-80 19q-6 -60 -34 -132zM802 578q-4 41 4 81q-102 41 -185 85q-14 -45 -38 -83q103 -16 219 -83zM464 598l2 75q-124 55 -176 83q-12 -44 -40 -83q110 -18 214 -75zM317 113v-85q64 8 104 8h89q35 0 75 -6q-6 35 -6 70v115q1 43 6 77
q-30 -5 -81 -6h-99l-6 87h105q45 0 79 -6q-9 44 -10 127l-6 237q1 89 -33 112q-33 30 -147 36q1 -62 -40 -105q94 19 116 2q26 -11 27 -89l12 -240h-101q-40 0 -82 6q12 -43 14 -123q3 -64 0 -123q36 6 78 6h95v-103h-85q-26 0 -99 3h-5z" />
</svg>
