<?xml version="1.0" standalone="no"?>
<!DOCTYPE svg PUBLIC "-//W3C//DTD SVG 1.1//EN" "http://www.w3.org/Graphics/SVG/1.1/DTD/svg11.dtd" >
<svg xmlns="http://www.w3.org/2000/svg" xmlns:xlink="http://www.w3.org/1999/xlink" version="1.1" viewBox="-10 0 1034 1024">
  <g transform="matrix(1 0 0 -1 0 820)">
   <path fill="currentColor"
d="M59 445q7 -6 24 -16l72 -51l56 -46l10 15q6 9 15 21q-19 19 -65 52q-42 30 -85 59zM249 131l36 93q-12 24 -28 46q-39 -118 -86 -235q-24 -57 -38 -86q-12 -21 -25 -38q27 -19 49 -43q21 75 46 144zM152 710l-16 -21q60 -39 149 -120q12 18 28 34q-70 66 -151 121
q-6 -6 -10 -14zM403 69l-109 4q-3 1 -7 1v-46l42 4l575 1q27 0 55 -3q6 0 11 -2v46q-55 -4 -81 -5h-41l1 435q0 18 4 50q-36 -1 -71 -5h-159q3 42 7 83l258 -1q27 0 39 -4v46q-18 -1 -16 -2q-25 0 -52 -3h-226q6 51 10 63q3 12 20 28q-28 3 -67 11l-1 -102q-240 3 -260 5
v-46l42 4l213 1l-6 -83q-114 0 -144 2q-9 3 -42 3q1 -33 5 -69v-416zM440 305v83h370v-83h-370zM440 422v91h370v-91h-370zM440 69v87h370v-87h-370zM440 190v81h370v-81h-370zM296 -125q25 -19 45 -40q69 37 143 98q36 30 47 36q12 7 37 14q-22 15 -49 41q-21 -27 -88 -82
q-39 -30 -67 -43q-27 -13 -68 -24zM943 -121q-42 31 -91 64l-132 80q-12 -21 -28 -38q138 -69 222 -147q1 1 3 5q12 18 26 36v0z" />
  </g>

</svg>
