<?xml version="1.0" standalone="no"?>
<!DOCTYPE svg PUBLIC "-//W3C//DTD SVG 1.1//EN" "http://www.w3.org/Graphics/SVG/1.1/DTD/svg11.dtd" >
<svg xmlns="http://www.w3.org/2000/svg" xmlns:xlink="http://www.w3.org/1999/xlink" version="1.1" viewBox="-10 0 1010 1000">
   <path fill="currentColor"
d="M657 -2q4 1 13 4q93 25 88 28q-1 4 -9 12q-8 7 -13 14q67 164 234 228q-44 41 -63 81q-50 -35 -86 -65v67q-38 -4 -69 -4h-26v100h44q52 -1 105 -8v81q-30 -9 -103 -6h-46v268q3 54 -25 69q-26 19 -122 30q1 -52 -29 -95q69 11 87 1q19 -8 18 -53v-220h-44q-70 0 -97 6
v-81q40 6 103 8h38v-101h-34q-38 0 -58 3v-55q-41 47 -59 65q-7 -8 -40 -33q-22 -16 -22 -18q149 -107 215 -326zM698 104l-12 21q-74 128 -107 165q12 4 76 4h85q51 0 72 -4q-81 -83 -114 -186zM423 129h-88v598q0 117 8 162h-93q9 -56 12 -164v-584q0 -47 -4 -85
q19 4 58 5q21 0 33 1h76q67 -3 93 -6q-34 130 -85 276q83 150 63 240q-5 64 -125 97q-8 -38 -34 -89q84 11 88 -36q7 -86 -64 -202q46 -121 62 -213zM91 258q54 33 151 113l-59 68q-69 -71 -149 -115zM139 477l79 49q-46 165 -79 339q-8 -3 -23 -10q-47 -21 -68 -29
q75 -190 91 -349zM528 594q5 1 14 4q76 18 71 25q-1 2 -5 5q-15 12 -27 35q-1 3 -5 10q-53 107 -76 145q-37 -24 -81 -26q85 -103 109 -198zM829 596q65 87 113 182l-85 40q-29 -96 -101 -199zM206 197q-72 -69 -135 -107l54 -60q71 52 125 107z" />
</svg>
