<?xml version="1.0" standalone="no"?>
<!DOCTYPE svg PUBLIC "-//W3C//DTD SVG 1.1//EN" "http://www.w3.org/Graphics/SVG/1.1/DTD/svg11.dtd" >
<svg xmlns="http://www.w3.org/2000/svg" xmlns:xlink="http://www.w3.org/1999/xlink" version="1.1" viewBox="-10 0 1034 1024">
  <g transform="matrix(1 0 0 -1 0 820)">
   <path fill="currentColor"
d="M58 438q72 -54 149 -131q12 15 9 12q7 6 22 21q-39 37 -68 63q-27 24 -81 67q-18 -21 -31 -32zM258 265q-18 -63 -37 -115l-47 -123l-55 -130q-4 -12 -13 -22q19 -12 44 -36q12 45 23 73l85 225l34 84q-12 12 -24 29q-6 7 -10 15zM303 589q-24 19 -74 70q-45 39 -67 62
q-15 -18 -31 -32l64 -58q42 -39 77 -74q4 6 31 32zM911 335l32 -12q1 3 8 12t16 21q4 7 11 14q1 1 7 6q-87 3 -160 31q-111 45 -176 94l64 61q30 30 36 33q7 6 30 14q-30 15 -57 34q-13 -27 -30 -45q-36 -39 -73 -74q-72 52 -97 108q-7 -7 -13 -11q-7 -6 -26 -18
q19 -22 47 -52q30 -31 54 -51q-66 -49 -153 -91q-75 -31 -161 -41q18 -16 39 -49q90 30 151 60q69 36 160 95q105 -72 224 -117zM605 -73l-281 3q-3 0 -7 1q-3 1 -5 1v-47q9 4 26 5l538 1q42 0 59 -4q1 0 6 -2v47q-7 0 -15 -3q-21 0 -50 -2h-233v205h163q21 0 51 -3
q6 0 16 -3v47l-111 -5h-119v120h133q19 0 51 -4q6 0 15 -3v48q-7 -1 -15 -4l-92 -2q-304 0 -322 3q-6 3 -10 3v-48q6 3 13 3l55 4h134v-120l-223 3q-3 0 -7 1q-3 1 -5 1v-47q7 3 26 4q7 1 74 2h135v-205zM330 573l39 -27q87 76 107 96q54 55 59 57q12 10 35 19
q-30 13 -52 31q-39 -51 -80 -92q-39 -36 -66 -57q-21 -15 -42 -27zM411 61q9 -7 73 -75q12 -12 30 -36q6 4 10 11q9 9 21 17l-53 57l-54 56q-15 -18 -27 -30zM693 704q108 -58 197 -133q0 3 7 12q6 13 19 26l-87 58q-54 36 -108 70q-12 -18 -28 -33zM845 84q-9 6 -21 18
q-7 -15 -41 -58q-28 -36 -60 -69q18 -12 31 -26q7 9 15 21q6 10 14 19q0 1 27 34t59 45q-12 9 -24 16v0z" />
  </g>

</svg>
