<?xml version="1.0" standalone="no"?>
<!DOCTYPE svg PUBLIC "-//W3C//DTD SVG 1.1//EN" "http://www.w3.org/Graphics/SVG/1.1/DTD/svg11.dtd" >
<svg xmlns="http://www.w3.org/2000/svg" xmlns:xlink="http://www.w3.org/1999/xlink" version="1.1" viewBox="-10 0 1034 1024">
  <g transform="matrix(1 0 0 -1 0 820)">
   <path fill="currentColor"
d="M326 477l7 7l37 50q21 27 41 58h34q27 -37 39 -61q15 -27 32 -64q15 12 29 17q3 3 11 4l-64 104q115 0 135 -3q6 0 12 -2v46q-10 -1 -22 -4l-188 -1q9 16 20 36q27 54 62 69q-33 12 -65 28q-1 -4 -2 -10l-6 -21l-27 -54q-24 -45 -43 -77q-18 -28 -46 -61q-30 -36 -61 -53
q27 -9 54 -24q4 9 11 16zM299 102l3 -47l62 6l218 12v-147q0 -18 11 -33q6 -9 26 -18q27 -10 123 -11q105 0 140 10q33 10 53 48q12 24 28 69q-15 4 -27 10q-9 6 -25 14q0 -42 -9 -70q-10 -25 -39 -36q-25 -9 -99 -9q-42 0 -91 3q-31 1 -45 13q-9 10 -9 34v123l258 17
q28 0 58 -2q-1 24 -1 46q-28 -3 -57 -8l-258 -17v115l187 9q28 0 58 -2q-1 24 -2 47q-30 -3 -58 -8l-185 -11v119l171 23q39 6 65 7l34 -1q-24 25 -41 55q-28 -13 -67 -23q-76 -13 -154 -22q-66 -6 -124 -10q-51 -3 -87 -3q-40 0 -81 9q24 -48 24 -52q16 0 35 3l120 7
q33 3 68 5v-118l-147 -8l-65 3l3 -47l60 6l149 11v-115l-219 -10q-33 3 -64 4zM754 594q18 -21 34 -42l48 -72q15 12 38 24q-19 27 -71 90q40 0 81 -1q51 -1 63 -5v47q-19 -3 -23 -4l-195 -1q6 10 12 23q7 16 16 31q15 30 22 35q3 4 26 21q-37 9 -64 21q-10 -40 -27 -76
q-33 -69 -75 -129q-42 -58 -75 -74q30 -9 57 -23l90 135h43zM82 -95q24 -15 47 -32q0 6 27 61q15 36 98 200q27 60 35 73q6 12 15 27q-22 24 -32 40q-18 -51 -44 -105l-51 -103q-24 -46 -69 -123q-12 -19 -26 -38zM212 703q-6 3 -55 39q-4 -6 -9 -13l-17 -25q31 -18 81 -53
q48 -36 68 -56q6 12 26 40q-72 51 -94 68zM184 438q-60 46 -93 70q-15 -21 -27 -36q94 -57 148 -120q10 18 31 40q-18 12 -59 46v0z" />
  </g>

</svg>
