<?xml version="1.0" standalone="no"?>
<!DOCTYPE svg PUBLIC "-//W3C//DTD SVG 1.1//EN" "http://www.w3.org/Graphics/SVG/1.1/DTD/svg11.dtd" >
<svg xmlns="http://www.w3.org/2000/svg" xmlns:xlink="http://www.w3.org/1999/xlink" version="1.1" viewBox="-10 0 1034 1024">
  <g transform="matrix(1 0 0 -1 0 820)">
   <path fill="currentColor"
d="M88 455q6 -3 77 -51q9 -6 34 -26q18 -13 37 -27q12 21 25 39l-67 48q-39 27 -106 70q-9 -16 -25 -37zM277 212l13 35q-18 22 -33 46q-6 -36 -26 -103q-21 -69 -48 -147q-15 -45 -29 -75q-12 -25 -29 -52q24 -21 45 -42q49 166 57 183zM146 698q45 -31 78 -58t72 -62
q9 16 26 34q-61 60 -147 120q-15 -21 -29 -34zM361 651q4 -7 10 -17q16 0 37 2q121 6 225 17q97 10 191 28q54 9 79 10q10 0 26 -2q-21 24 -38 41q-9 9 -12 15q-36 -16 -85 -28q-90 -19 -226 -31q-132 -6 -175 -6l-48 4q4 -10 10 -20q3 -6 6 -13zM369 344q1 -28 5 -58
l-3 -410q-1 -7 -2 -17h48l-4 41l-1 42h458q-1 -28 -3 -58q0 -3 -3 -18h49q-4 24 -5 62l1 389l4 50q-72 -6 -92 -6l-127 3q-3 0 -21 3v-46q-3 0 9 1q3 0 12 1q22 0 47 3h129v-146l-139 1q-6 1 -30 2q-12 0 -23 3v-47q3 0 5 1q-1 0 17 2q22 0 46 3h124v-167h-458v165l162 -1
q21 0 37 -5v47q-9 0 -17 -3l-94 -2h-88v139l60 11l42 7q57 13 81 16q12 0 26 2q-24 19 -46 46q-43 -19 -93 -32q-55 -12 -93 -13q-10 0 -20 1v-12zM403 582q-9 -6 -38 -26q36 -45 100 -151q10 12 38 28q-13 22 -86 129zM626 612q-18 -9 -41 -18q42 -78 76 -159q12 7 41 20
q-34 76 -76 157zM734 409q28 -12 55 -22q51 72 84 128q28 46 40 58t34 21q-27 9 -67 29q-10 -31 -46 -95q-51 -79 -100 -119v0z" />
  </g>

</svg>
