<?xml version="1.0" standalone="no"?>
<!DOCTYPE svg PUBLIC "-//W3C//DTD SVG 1.1//EN" "http://www.w3.org/Graphics/SVG/1.1/DTD/svg11.dtd" >
<svg xmlns="http://www.w3.org/2000/svg" xmlns:xlink="http://www.w3.org/1999/xlink" version="1.1" viewBox="-10 0 1010 1000">
   <path fill="currentColor"
d="M282 274q52 5 143 6h357q66 0 97 -1q34 -1 50 -3v74q-49 -5 -147 -6h-60l-4 93q94 0 159 -4l8 8q-6 43 -8 147v226q3 42 -27 56q-31 18 -122 25q-3 -52 -41 -97q47 4 64 3q21 -1 37 -7q10 -9 10 -105v-189h-84q-2 9 -4 32q-5 34 -8 50q63 67 92 109l-60 46
q-18 -43 -51 -92q-21 59 -74 143q-24 -29 -61 -30q97 -113 101 -260h-105l-12 52q60 48 83 81l-50 46q-9 -29 -47 -71q-23 81 -60 160q-34 -27 -73 -31q59 -78 91 -239h-95v260q0 19 1 71q1 47 1 62h-85q4 -79 4 -141v-148q0 -90 -6 -165l8 -6q88 6 125 6h55q2 -38 2 -91v0
h-61q-78 0 -143 4v-74zM442 0q92 -2 104 14q1 4 -4 13q-12 22 -12 51v34h121v-34q0 -52 -4 -76q88 2 101 16q0 5 -5 16q-9 22 -13 44v34q136 1 189 -6v83q-5 0 -14 -1q-61 -7 -175 -7q0 40 4 79h-87q0 -3 1 -10q5 -38 5 -71h-121q0 51 6 75h-94q3 -16 6 -75q-60 0 -84 1
q-30 1 -49 3v-81q3 0 10 1q37 5 123 7v-34q1 -55 -8 -76zM157 473q43 37 85 49q-42 178 -101 353l-91 -63q61 -135 107 -339zM95 238q90 44 169 102l-58 79q-70 -59 -160 -107zM147 22q81 46 155 105l-64 74q-80 -69 -155 -111zM651 344h-93l-6 93h97z" />
</svg>
