<?xml version="1.0" standalone="no"?>
<!DOCTYPE svg PUBLIC "-//W3C//DTD SVG 1.1//EN" "http://www.w3.org/Graphics/SVG/1.1/DTD/svg11.dtd" >
<svg xmlns="http://www.w3.org/2000/svg" xmlns:xlink="http://www.w3.org/1999/xlink" version="1.1" viewBox="-10 0 1034 1024">
  <g transform="matrix(1 0 0 -1 0 820)">
   <path fill="currentColor"
d="M52 476q70 -43 143 -115q15 21 29 35q-19 18 -50 42l-98 75q-12 -21 -24 -37zM212 161l32 100q-25 19 -41 40q-12 -90 -50 -202q-25 -78 -44 -126q-16 -42 -29 -61q18 -9 49 -38q9 45 23 91l33 103zM140 708q93 -69 141 -132q12 18 31 35q-25 25 -59 56q-36 33 -87 75
q-10 -18 -26 -34zM273 -149q108 69 178 155q16 -18 50 -71q18 15 38 28q-30 33 -65 74q3 7 8 17q24 46 41 96q15 51 31 122q-120 -4 -122 -5l-150 3l-12 2v-47q9 4 26 5l207 1q-21 -93 -58 -159l-61 74q-33 42 -48 57q-9 -9 -25 -20l-9 -6q45 -40 123 -140q-30 -42 -74 -79
q-64 -49 -130 -66q6 -3 45 -34zM293 339q4 0 9 3q3 0 57 7l373 15q0 -42 -4 -60h46q-3 25 -3 61q91 3 104 5q6 0 41 -5q-3 25 -4 50q-12 -6 -19 -6q-13 -1 -122 -10v293q91 0 101 -3q4 0 7 -2v46q-33 -1 -66 -5l-502 3l-6 2v-46q54 4 82 5h17v-307q-54 0 -81 -3q-4 0 -33 3z
M441 619v73h291v-73h-291zM732 584v-79h-291v79h291zM441 386v84h291v-72zM935 -127q10 12 23 23q9 6 18 15q-30 3 -52 10q-19 6 -44 18q-73 37 -131 98q36 60 59 103q22 51 56 137q-37 -1 -75 -5l-208 1q-4 1 -10 2v-41q-3 0 9 1q3 0 15 1q21 -67 38 -100q18 -36 60 -99
q-111 -120 -235 -138q25 -15 52 -45q147 87 211 153q90 -91 204 -143q4 4 10 9zM805 236q-4 -18 -43 -103q-18 -34 -42 -67q-54 75 -84 170h169z" />
  </g>

</svg>
