<?xml version="1.0" standalone="no"?>
<!DOCTYPE svg PUBLIC "-//W3C//DTD SVG 1.1//EN" "http://www.w3.org/Graphics/SVG/1.1/DTD/svg11.dtd" >
<svg xmlns="http://www.w3.org/2000/svg" xmlns:xlink="http://www.w3.org/1999/xlink" version="1.1" viewBox="-10 0 1010 1000">
   <path fill="currentColor"
d="M504 -17q106 9 97 11q0 1 -2 6q-12 30 -12 62h185q55 0 103 -8v81q-50 -8 -99 -8h-191v62h256q63 0 96 -4q-34 67 -48 159q-37 -15 -85 -18q4 -15 12 -40q7 -24 9 -32h-242v70q119 -9 181 -22l6 71q-65 -3 -187 10q-1 44 12 54q11 13 58 12h63q40 1 56 -15q18 -15 30 -61
q23 25 75 54q-16 52 -49 70q-28 18 -100 17h-113q-62 2 -81 -14q-24 -16 -24 -61v-46q-72 5 -117 14l-16 -73h48q63 1 87 -2v-76h-151q4 282 -23 408q-26 136 -110 249q-30 -39 -69 -67q82 -93 105 -203q13 -59 18 -143q6 -83 4 -216q0 -6 -3 -34q-3 -38 -5 -65q34 5 87 6
h147v-127q-1 -55 -8 -81zM143 26q99 51 157 93l-58 74q-66 -65 -149 -103zM73 250q106 45 167 86l-52 75q-61 -44 -156 -89zM139 475q45 33 81 45q-50 202 -87 367q-19 -17 -87 -59q73 -128 93 -353zM700 554q6 13 23 69q13 45 21 70l-79 22q-3 -60 -38 -145zM506 564
q87 11 95 18q0 1 -2 5q-12 24 -12 50v135q-1 32 14 40q11 9 62 8q41 1 56 -17q14 -13 23 -70q28 34 77 59q-24 66 -57 85q-17 10 -41 13q-20 3 -72 3q-89 1 -110 -15q-26 -14 -25 -70v-169q1 -55 -8 -75zM851 586q69 107 109 196l-83 36q-44 -132 -97 -199zM395 590l85 14
q-30 121 -42 248q-32 -13 -93 -12q48 -106 50 -250z" />
</svg>
