<?xml version="1.0" standalone="no"?>
<!DOCTYPE svg PUBLIC "-//W3C//DTD SVG 1.1//EN" "http://www.w3.org/Graphics/SVG/1.1/DTD/svg11.dtd" >
<svg xmlns="http://www.w3.org/2000/svg" xmlns:xlink="http://www.w3.org/1999/xlink" version="1.1" viewBox="-10 0 1010 1000">
   <path fill="currentColor"
d="M679 2q84 15 113 28q0 1 -7 5q-23 15 -31 33q-9 20 -22 51q-13 32 -22 52h113q36 0 104 -8v79q-62 -7 -102 -7h-137q-36 90 -63 132q-29 -17 -75 -29q82 -110 129 -336zM464 4q109 1 107 16q-29 42 -29 90v261q0 75 10 108h-92q9 -47 10 -108v-269q0 -27 -6 -98zM145 24
q69 43 143 107l-60 74q-66 -71 -141 -113zM313 58q104 1 102 12q-21 28 -20 75v187q0 69 8 101h-88q7 -46 8 -99v-193q0 -58 -10 -83zM774 264q41 71 73 165l-93 24q-20 -95 -58 -165zM91 270q123 65 159 92l-56 75q-58 -48 -156 -99zM149 490q37 43 75 60q-67 213 -99 345
q-35 -30 -89 -59q76 -143 113 -346zM294 500q38 8 85 8h395q54 0 81 -4q-7 31 -6 78v206q44 0 88 -10v87q-58 -6 -104 -7h-506q-21 0 -71 3q-36 2 -52 2v-85q43 10 96 10v-214q1 -51 -6 -74zM367 576v214h101v-214h-101zM530 576v214h91v-214h-91zM683 576v214h99v-214h-99z
" />
</svg>
