<?xml version="1.0" standalone="no"?>
<!DOCTYPE svg PUBLIC "-//W3C//DTD SVG 1.1//EN" "http://www.w3.org/Graphics/SVG/1.1/DTD/svg11.dtd" >
<svg xmlns="http://www.w3.org/2000/svg" xmlns:xlink="http://www.w3.org/1999/xlink" version="1.1" viewBox="-10 0 1010 1000">
   <path fill="currentColor"
d="M653 2q85 -5 97 6q1 3 -3 11q-15 24 -15 55v45q116 -1 181 -11v81q-56 -6 -183 -6q0 42 1 58q1 20 3 33h-79q1 -13 2 -33v-56h-145q0 44 1 59q0 19 3 34h-79q3 -27 3 -93q-90 1 -140 12v-87q36 11 140 11v-49q0 -42 -5 -66q73 -1 99 12q1 2 -4 6q-16 19 -16 50v47h143
v-53q0 -37 -4 -66zM93 272q9 6 31 22q84 58 130 97l-71 70q-63 -76 -151 -125zM917 288q-9 93 0 181h-82q4 -33 4 -107h-490q-2 56 4 107h-77q9 -82 0 -175q15 4 131 4h377q86 -4 133 -10zM817 437v79q-25 -9 -184 -8h-14v96h60q108 0 150 -8v79q-19 -5 -75 -6h-135v127h123
q76 0 115 -1q44 -1 70 -3v77q-26 -4 -75 -5q-24 -1 -57 -1h-87h-232h-107q-35 0 -56 1q-42 1 -57 5v-79q19 4 61 5q20 1 54 1h105h70v-127h-34q-99 0 -163 6v-77q60 5 165 6h32v-96q-153 0 -175 8v-77q14 6 161 6h95q161 1 190 -8zM198 500q21 35 70 66q-61 118 -139 327
q-45 -35 -85 -59q105 -166 154 -334zM294 161l-74 64q-71 -79 -141 -121l62 -58zM752 679q44 47 69 83l-65 24q-11 -22 -71 -87z" />
</svg>
