<?xml version="1.0" standalone="no"?>
<!DOCTYPE svg PUBLIC "-//W3C//DTD SVG 1.1//EN" "http://www.w3.org/Graphics/SVG/1.1/DTD/svg11.dtd" >
<svg xmlns="http://www.w3.org/2000/svg" xmlns:xlink="http://www.w3.org/1999/xlink" version="1.1" viewBox="-10 0 1034 1024">
  <g transform="matrix(1 0 0 -1 0 820)">
   <path fill="currentColor"
d="M54 463q72 -45 146 -111l28 37q-18 13 -17 13q-3 3 -19 14l-98 71q-9 7 -17 12q-9 -18 -23 -36zM242 250l-2 3q-7 9 -15 16l-14 21q-7 -42 -63 -204q-24 -70 -39 -108q-10 -27 -25 -53q25 -27 42 -46l27 92l63 194q7 21 31 78q-3 4 -5 7zM186 705q-18 13 -17 13
q-7 6 -22 16q-9 -15 -17 -22q-6 -4 -10 -11q79 -54 138 -112q4 7 10 13q4 6 9 14q3 6 11 10zM387 344v-155h-64q-33 0 -54 3q-1 0 -12 2v-46q4 3 51 6h77l-3 -293q-1 -3 -1 -8q-1 -1 -1 -5h49q-3 6 -5 43l-1 263q88 0 105 -2q12 0 25 -4v46q-33 -1 -66 -5h-62v155l93 -3
q3 0 10 -3v47q-6 -1 -15 -2q-42 -3 -50 -3h-38v150l67 -1q22 0 39 -5v47q-40 -1 -82 -5h-24v140q0 15 3 30q3 21 18 38h-64q1 -33 5 -68v-140q-75 0 -95 2q-6 3 -18 3v-47q7 3 64 6h49v-150l-90 3q-3 0 -7 1q-3 1 -6 1v-47q15 4 37 5zM812 630q-6 -21 -26 -71
q-18 -42 -38 -77l-115 1q-15 3 -48 4q1 -31 5 -65l1 -479q3 -28 26 -46q15 -12 58 -18q9 -1 53 -4l60 -1q66 0 100 16q33 15 58 77l18 53q-18 9 -44 27q-7 -57 -17 -82q-7 -22 -27 -35q-27 -15 -81 -16q-51 3 -98 3q-69 6 -69 58v198l239 -1q18 0 50 -4q-3 36 -5 72l1 200
l4 47q-34 -1 -69 -5h-54l83 189q-60 -4 -95 -5h-105q6 12 8 18q18 37 23 46q6 9 24 27q-37 13 -55 25q-7 -42 -46 -126q-40 -87 -74 -134q-24 -36 -54 -56q45 -15 53 -19q57 87 104 183h152zM628 209v237h102v-237h-102zM767 209v237h105v-237h-105z" />
  </g>

</svg>
