<?xml version="1.0" standalone="no"?>
<!DOCTYPE svg PUBLIC "-//W3C//DTD SVG 1.1//EN" "http://www.w3.org/Graphics/SVG/1.1/DTD/svg11.dtd" >
<svg xmlns="http://www.w3.org/2000/svg" xmlns:xlink="http://www.w3.org/1999/xlink" version="1.1" viewBox="-10 0 1034 1024">
  <g transform="matrix(1 0 0 -1 0 820)">
   <path fill="currentColor"
d="M54 434l76 -50q37 -27 73 -57q13 24 25 37q-31 25 -65 50l-84 56q-9 -15 -25 -36zM87 -79q24 -18 48 -40q6 27 12 44l34 107q48 150 58 176q-12 12 -33 45q0 -9 -40 -142q-24 -75 -47 -131q-15 -36 -32 -59zM133 688q46 -36 75 -60q27 -24 69 -64l29 33l-68 62
q-31 27 -77 62zM360 549h495q-18 -45 -41 -82q21 -3 45 -13q37 99 59 136q-34 -1 -69 -5h-241v68l211 -1l44 -4v46q-18 -1 -16 -2q-28 -3 -52 -3h-187q0 46 13 72h-57q0 -6 3 -16q0 -37 3 -76v-84l-207 1l-46 4q1 -33 5 -66l-2 -222l-7 -106q-15 -159 -83 -264
q-18 -27 -52 -60l58 -14q33 48 60 104q39 93 54 207q4 36 7 82q3 45 3 86v212zM345 -66q33 -10 49 -18q9 15 16 31q9 18 23 56q24 55 40 95q7 19 30 34q-31 9 -62 22q-6 -42 -29 -104q-33 -76 -67 -116zM418 409q1 -22 5 -45q24 9 48 11l103 11v-60q0 -45 25 -62
q24 -15 98 -16q93 0 128 28q22 22 37 83q-24 15 -48 29q1 -18 2 -26q0 -42 -22 -60q-27 -16 -87 -17q-30 0 -49 3q-22 3 -34 9q-12 9 -13 42v49l128 11l58 3l-3 42q-34 -6 -59 -10l-124 -10v25q0 30 13 70h-57q0 -6 3 -13q0 -4 1 -10q0 -37 3 -76l-108 -8zM579 102
q0 33 12 70h-56l6 -70l1 -174q3 -28 24 -45q30 -21 97 -21q43 0 83 8q49 12 71 66q7 16 16 52q-18 9 -45 30q-1 -37 -7 -65q-7 -33 -41 -44q-30 -7 -82 -8q-78 0 -79 55v146zM620 196q46 -61 91 -141q27 21 36 25l-91 140zM880 116q-15 24 -36 52q-3 3 -5 7q-18 -15 -37 -26
q33 -40 59 -80q30 -45 70 -111q18 16 37 27q-6 12 -88 131v0z" />
  </g>

</svg>
