<?xml version="1.0" standalone="no"?>
<!DOCTYPE svg PUBLIC "-//W3C//DTD SVG 1.1//EN" "http://www.w3.org/Graphics/SVG/1.1/DTD/svg11.dtd" >
<svg xmlns="http://www.w3.org/2000/svg" xmlns:xlink="http://www.w3.org/1999/xlink" version="1.1" viewBox="-10 0 1010 1000">
   <path fill="currentColor"
d="M335 -10q99 7 102 16q0 3 -6 10q-20 21 -20 54v97h35q45 -1 66 -6v74q-15 -2 -62 -2h-39v129h29q48 -3 68 -6v75q-17 -4 -66 -4h-31v133h31q63 -3 80 -6v79q-23 -6 -84 -6h-27v159q0 10 1 29q2 60 7 92h-88q8 -53 8 -119v-161h-20q-59 0 -93 8v-83q27 6 93 6h22v-131h-20
q-45 0 -81 6v-77q24 6 79 6h22v-129h-28q-56 0 -75 4v-74q14 0 52 2q23 2 29 2h22v-99q0 -63 -6 -78zM770 165h-117q-55 83 -82 115q16 8 62 8h73q39 -62 64 -123zM77 262q47 26 151 98l-51 69q-70 -65 -153 -99zM623 352v188h71v-188h-71zM760 352v188h75v-188h-75z
M145 492l71 46q-68 207 -83 343q-54 -27 -95 -45q52 -85 107 -344zM210 185q-57 -53 -143 -101l62 -62q81 54 141 101zM649 -6q80 16 101 30q1 2 -5 7q-33 21 -58 73h91q66 -2 109 -8q-48 103 -105 190h39q27 -3 86 -6q-1 30 -2 58v57v125q0 100 8 125h-82q0 -9 3 -35
q0 2 1 -4h-212v150q-1 41 18 48q12 9 95 10q85 4 103 -16q24 -19 22 -91q32 28 91 47q-18 94 -44 113q-27 27 -112 26h-100q-100 1 -120 -18q-24 -14 -22 -91v-359q-1 -99 -6 -135q-5 -7 -48 -25q-8 -3 -12 -5q102 -86 161 -266z" />
</svg>
