<?xml version="1.0" standalone="no"?>
<!DOCTYPE svg PUBLIC "-//W3C//DTD SVG 1.1//EN" "http://www.w3.org/Graphics/SVG/1.1/DTD/svg11.dtd" >
<svg xmlns="http://www.w3.org/2000/svg" xmlns:xlink="http://www.w3.org/1999/xlink" version="1.1" viewBox="-10 0 1010 1000">
   <path fill="currentColor"
d="M631 -10l28 108h149q57 0 117 -8v81q-72 -8 -112 -8h-117q17 8 47 25q27 14 41 21q-2 4 -11 11q-27 21 -55 60h101q43 -1 86 -6q-5 23 -6 78v450q1 61 -32 80q-25 18 -143 27q-8 -65 -37 -107q79 16 105 6q28 -8 27 -50v-412h-180v81h40q50 0 95 -8v75q-38 -7 -93 -7h-42
v77h38q30 0 63 -6q-6 33 -6 63v88q0 13 3 42q2 16 3 23q-39 -6 -67 -6h-137q-43 1 -70 6q5 -28 6 -65v-88q0 -41 -6 -63q7 1 22 2q30 4 44 4h43v-77h-41q-50 0 -90 5v-69q47 6 92 6h39v-83h-176v430q0 68 10 125h-97q8 -48 9 -125v-428q-1 -43 -8 -74q41 6 82 6h89
q-14 -41 -49 -83l85 -28q32 52 42 87l-56 24h147q32 -54 37 -117h-259q-72 0 -119 8v-83q4 0 14 1q76 9 107 9h142q-17 -43 -43 -88zM167 22q81 53 143 105l-64 70q-50 -57 -133 -109zM87 242q93 41 157 92l-50 77q-71 -60 -158 -97zM157 449q56 38 87 51q-61 213 -81 389
q-49 -40 -109 -67q79 -152 103 -373zM665 619h-123v94h123v-94z" />
</svg>
