<?xml version="1.0" standalone="no"?>
<!DOCTYPE svg PUBLIC "-//W3C//DTD SVG 1.1//EN" "http://www.w3.org/Graphics/SVG/1.1/DTD/svg11.dtd" >
<svg xmlns="http://www.w3.org/2000/svg" xmlns:xlink="http://www.w3.org/1999/xlink" version="1.1" viewBox="-10 0 1010 1000">
   <path fill="currentColor"
d="M506 -13h16q89 1 85 7q1 3 -3 10q-13 23 -13 54h193q0 -1 32 -3q61 -3 79 -7v77q-37 -8 -109 -8h-195v56h213q67 -1 125 -10l-9 27q-25 77 -39 114q-41 -15 -87 -10q16 -24 31 -61h-220v53q112 -14 161 -28q0 23 10 68q-37 -1 -173 20v16q-7 30 60 27h63q72 6 74 -67
q33 27 77 32q-28 100 -133 95h-97q-71 0 -94 -12q-23 -11 -21 -48v-35q-98 12 -125 19q2 -31 -8 -69q46 3 135 -10v-61h-153q10 245 -14 378q-19 121 -99 270q-12 -7 -30 -18q-35 -23 -63 -25q78 -78 107 -199q30 -120 26 -341q0 -11 -7 -94q-2 -26 -3 -41q37 8 127 10h87
v-107q0 -42 -5 -70q-1 -6 -1 -9zM153 34q109 61 157 95l-58 74q-72 -67 -157 -101zM103 250q78 43 161 100l-56 75q-65 -61 -158 -105zM827 461q64 79 60 83q-2 1 -11 -1q-22 -5 -45 -5q-98 2 -139 6v123h48q2 -4 5 -12q24 -48 33 -97q10 4 31 11q52 19 48 21q-2 4 -8 9
q-22 19 -45 66h25q53 0 71 -1q22 -1 33 -5v76q-47 -7 -106 -8h-135v109q19 58 -138 73q0 -48 -38 -101q113 27 105 -16v-65h-127q-84 3 -121 10v-76q37 4 121 6h127v-121q-146 6 -186 6q-4 -41 -26 -69q40 6 95 7q56 1 120 -2q136 -8 203 -27zM147 465l87 45
q-63 208 -91 361q-37 -24 -97 -43q83 -178 101 -363zM544 568q12 37 19 81l-69 10q-6 -39 -26 -79z" />
</svg>
