<?xml version="1.0" standalone="no"?>
<!DOCTYPE svg PUBLIC "-//W3C//DTD SVG 1.1//EN" "http://www.w3.org/Graphics/SVG/1.1/DTD/svg11.dtd" >
<svg xmlns="http://www.w3.org/2000/svg" xmlns:xlink="http://www.w3.org/1999/xlink" version="1.1" viewBox="-10 0 1034 1024">
  <g transform="matrix(1 0 0 -1 0 820)">
   <path fill="currentColor"
d="M233 380l-62 53q-40 33 -89 70q-9 -15 -28 -34q30 -21 74 -54q45 -36 80 -68q21 30 25 33zM241 292l-52 -166l-36 -104q-25 -69 -54 -106q25 -16 49 -42q4 25 17 62l38 114q13 43 29 85l39 118q-3 3 -30 39zM146 704q39 -28 75 -58q30 -22 71 -63q12 18 27 33
q-33 30 -74 65q-43 36 -73 54q-7 -12 -26 -31zM393 566h490q-12 -31 -23 -50q-7 -15 -20 -33q22 -3 47 -8q7 24 25 63q18 43 34 69q-54 -4 -67 -5h-244v58l212 -1q18 -1 39 -5v47l-66 -6h-185q1 45 12 74h-56q3 -54 6 -69v-98l-199 1q-15 3 -49 4l3 -36q3 -24 3 -34v-213
q0 -108 -14 -189q-18 -91 -63 -165q-30 -49 -78 -85q28 -9 54 -25q27 33 52 74q64 112 79 238q0 15 8 158v236zM654 97l-209 1l-37 4v-47q27 6 63 6h183v-134q0 -22 -12 -32q-12 -9 -49 -10q-18 0 -57 4q12 -27 20 -50q10 0 24 2q36 3 59 8q52 15 53 68v144l235 -1
q24 0 36 -4l3 -1v47q-9 -1 -17 -2q-36 0 -73 -3h-92q45 63 59 74q15 13 37 17q-21 13 -50 38q-39 -60 -82 -102q16 -12 34 -27h-90v136q36 3 94 12l109 14q-24 21 -42 43q-45 -15 -132 -28q-105 -12 -190 -13q-31 0 -87 4q12 -15 23 -44l187 10v-134zM423 448q1 -21 5 -42
q37 7 49 8l104 12v-30q0 -21 5 -36q7 -15 29 -24q30 -10 97 -11q39 0 73 5q42 7 59 21q22 16 38 57q-21 16 -38 35q-6 -34 -13 -48q-12 -21 -50 -30q-31 -3 -66 -4q-25 0 -54 3q-27 3 -35 12q-6 6 -7 28v26l132 13q22 3 47 5q-3 21 -5 42q-33 -6 -61 -11l-113 -13v13
q0 39 12 70h-56q0 -6 3 -13q0 -36 3 -74q-135 -9 -158 -14zM493 168q52 -52 67 -65l1 -1l21 22q3 3 7 6q-36 39 -82 79q-13 -15 -29 -27q7 -6 15 -14v0z" />
  </g>

</svg>
