<?xml version="1.0" standalone="no"?>
<!DOCTYPE svg PUBLIC "-//W3C//DTD SVG 1.1//EN" "http://www.w3.org/Graphics/SVG/1.1/DTD/svg11.dtd" >
<svg xmlns="http://www.w3.org/2000/svg" xmlns:xlink="http://www.w3.org/1999/xlink" version="1.1" viewBox="-10 0 1010 1000">
   <path fill="currentColor"
d="M153 14q60 35 159 99l-58 68q-63 -55 -155 -105zM302 16q45 9 109 10h408q54 -1 110 -10v82q-48 -6 -98 -6h-125v77h98q40 0 79 -8q-6 24 -6 70v97q0 33 6 69q-44 -6 -83 -6h-403q-17 0 -57 4q-11 2 -15 2q0 -2 1 -5q5 -41 5 -64v-103q0 -23 -6 -66q36 7 72 8h93v-75h-77
q-77 1 -111 8v-84zM552 92v77h91v-77h-91zM706 229v103h96v-103h-96zM401 227v105h89v-105h-89zM643 229h-91v103h91v-103zM81 240q47 23 135 67l42 21l-44 79q-46 -38 -174 -95zM331 441q49 7 98 8h319q41 0 107 -8v77q-6 -1 -17 -2q-56 -6 -86 -6h-321q-68 1 -100 8v-77z
M161 459q33 35 75 53q-85 271 -103 361q-51 -30 -91 -51q77 -124 119 -363zM260 566q44 9 111 8h444q88 -1 118 -8v75q-42 -7 -116 -6h-180v169q2 50 -23 65q-23 19 -106 28q-7 -56 -38 -95q95 30 90 -28v-139h-191q-64 0 -109 10v-79zM403 655q83 33 87 44q-28 14 -88 75
q-59 60 -102 97q-36 -32 -78 -41q131 -84 181 -175zM738 665q127 98 187 143l-72 59q-61 -81 -174 -154z" />
</svg>
