<?xml version="1.0" standalone="no"?>
<!DOCTYPE svg PUBLIC "-//W3C//DTD SVG 1.1//EN" "http://www.w3.org/Graphics/SVG/1.1/DTD/svg11.dtd" >
<svg xmlns="http://www.w3.org/2000/svg" xmlns:xlink="http://www.w3.org/1999/xlink" version="1.1" viewBox="-10 0 1034 1024">
  <g transform="matrix(1 0 0 -1 0 820)">
   <path fill="currentColor"
d="M85 436q33 -19 116 -75q4 -3 11 -8q7 15 20 29q1 3 4 5q-51 42 -153 99q-12 -16 -25 -32zM97 -64q27 -22 44 -41q12 37 31 86l63 163l45 107q-18 27 -25 42l-71 -182q-31 -76 -52 -119q-15 -28 -35 -56zM142 728l-16 -18l82 -58q31 -24 64 -52q12 19 26 34q-16 15 -35 29
q-24 16 -74 55q-13 9 -36 26q-6 -7 -11 -16zM283 -71l43 -34q18 12 45 36q33 27 77 67q31 30 42 35q7 6 32 13q-25 15 -52 40q-30 -42 -69 -78q-49 -45 -118 -79zM649 125l270 -1l39 -4l3 -1v48q-12 -3 -51 -7l-564 1l-37 6v-48l34 4q15 0 29 2h239v-203q0 -21 -14 -28
q-12 -6 -41 -7q-39 4 -66 5q7 -12 12 -22l11 -26q87 3 114 19q21 15 22 59v203zM717 678l203 -3q6 0 11 -2v46q-60 -4 -67 -5l-509 1q-36 3 -38 4v-46q39 4 63 5h136v-87h-95q-9 0 -33 3q-15 0 -31 2q1 -30 5 -61q0 -102 -2 -133q-3 -6 -3 -40q15 3 52 4l418 1q31 -1 64 -5
q-6 66 -6 88q0 99 2 109l4 37q-31 -1 -64 -5h-110v87zM399 403v152h117v-152h-117zM553 591v87h127v-87h-127zM553 403v152h127v-152h-127zM717 403v152h130v-152h-130zM392 252q39 4 63 5l388 -3q3 0 14 -2v46q-33 -1 -66 -5l-362 1l-37 4v-46zM734 43l92 -63
q39 -28 90 -70q3 9 15 23q4 4 9 12q-75 60 -183 131q-7 -13 -23 -33v0z" />
  </g>

</svg>
