<?xml version="1.0" standalone="no"?>
<!DOCTYPE svg PUBLIC "-//W3C//DTD SVG 1.1//EN" "http://www.w3.org/Graphics/SVG/1.1/DTD/svg11.dtd" >
<svg xmlns="http://www.w3.org/2000/svg" xmlns:xlink="http://www.w3.org/1999/xlink" version="1.1" viewBox="-10 0 1010 1000">
   <path fill="currentColor"
d="M631 -2q13 23 32 108q190 3 264 -4q-4 42 -5 108q-1 56 3 84h-92q6 -48 6 -123h-472q0 69 6 117h-87q9 -137 -2 -186q77 6 289 6q-5 -36 -35 -96zM151 20q94 67 131 105l-50 70q-62 -68 -139 -113zM405 233q31 4 129 5h149q84 -2 127 -7v77q-31 -5 -129 -6h-42v81h107
q34 0 119 -5q7 -1 10 -1q-6 81 -6 129v80q1 88 6 139q-68 -5 -129 -6h-44q153 69 229 125l-66 55q-110 -78 -220 -127l49 -53h-218q-108 1 -141 8q2 -36 5 -88q3 -42 3 -51v-80q0 -48 -8 -133q17 1 59 4q61 4 78 4h91v-81h-31q-61 1 -127 6v-75zM85 254q4 3 13 8
q123 69 158 105l-50 70q-77 -67 -170 -107zM639 447v69h145v-69h-145zM419 447v69h144v-69h-144zM167 494q32 45 71 60q-36 198 -69 329l-92 -49q58 -143 90 -340zM563 576h-144v79h144v-79zM639 576v79h147v-79h-147zM482 727l70 55q-142 80 -235 109q-25 -30 -71 -49
q124 -39 236 -115z" />
</svg>
