<?xml version="1.0" standalone="no"?>
<!DOCTYPE svg PUBLIC "-//W3C//DTD SVG 1.1//EN" "http://www.w3.org/Graphics/SVG/1.1/DTD/svg11.dtd" >
<svg xmlns="http://www.w3.org/2000/svg" xmlns:xlink="http://www.w3.org/1999/xlink" version="1.1" viewBox="-10 0 1034 1024">
  <g transform="matrix(1 0 0 -1 0 820)">
   <path fill="currentColor"
d="M202 355q15 -10 31 -21q9 15 24 33l-84 60l-85 51q-13 -16 -24 -35l81 -48q28 -19 57 -40zM274 178q9 22 17 46q-16 18 -31 41q-25 -90 -69 -208q-45 -108 -75 -141q24 -19 48 -46q21 66 51 142l35 94zM135 695l41 -29l89 -74q6 -3 27 -22q10 18 25 33l-77 65
q-3 1 -78 62q-10 -16 -27 -35zM544 659h-148q-22 0 -53 4q-4 1 -9 1v-46q33 4 62 5h148v-72h-101q-7 0 -30 3q-13 0 -34 2l5 -111q0 -120 -2 -150q-3 -6 -3 -40q33 3 66 5l414 -1q15 0 49 -4q-4 57 -5 113q0 135 2 148q0 18 3 40q-33 -1 -68 -5h-104v72l206 -3q6 0 11 -2v46
q-72 -4 -108 -5h-109v52q0 7 4 32q1 19 9 37h-57q0 -6 3 -16q3 -67 4 -105h-117v49q0 13 3 32q0 15 9 37h-56q6 -72 6 -101v-17zM421 296v86h123v-86h-123zM421 418v97h123v-97h-123zM582 551v72h117v-72h-117zM582 296v86h117v-86h-117zM582 418v97h117v-97h-117zM736 418
v97h129v-97h-129zM736 296v86h129v-86h-129zM421 195q1 -30 5 -61l-1 -255l-4 -44h46q-1 12 -4 49h363q0 -24 -3 -42h46q0 4 -1 8q-3 6 -3 35l-1 246q1 31 5 64q-34 -1 -69 -5l-331 1q-15 3 -48 4zM463 -80v107h363v-107h-363zM463 61v93h363v-93h-363z" />
  </g>

</svg>
