<?xml version="1.0" standalone="no"?>
<!DOCTYPE svg PUBLIC "-//W3C//DTD SVG 1.1//EN" "http://www.w3.org/Graphics/SVG/1.1/DTD/svg11.dtd" >
<svg xmlns="http://www.w3.org/2000/svg" xmlns:xlink="http://www.w3.org/1999/xlink" version="1.1" viewBox="-10 0 1034 1024">
  <g transform="matrix(1 0 0 -1 0 820)">
   <path fill="currentColor"
d="M394 479q36 45 46 60l-1 -187q-3 -33 -5 -44h48q-3 57 -4 94v122l58 -48q18 -18 36 -41q16 25 27 38q-6 6 -58 42q-33 22 -64 42v26l118 -3l2 -1q1 0 5 -1v46q-6 0 -12 -3q-12 0 -51 -2h-62q0 108 3 118q1 15 10 27h-56q3 -9 3 -16q1 -28 2 -52v-77q-76 0 -109 2
q-4 1 -7 1l-12 2v-46q24 3 39 4l78 1q-34 -60 -97 -127q-48 -48 -82 -59q22 -10 50 -32zM429 -136q27 6 75 24q67 25 126 64q76 -25 153 -57q69 -30 102 -53q6 22 20 49q-93 37 -180 69q-3 1 -4 1q-19 6 -40 14q-9 4 -18 7q54 66 100 181h118q27 0 51 -3q-1 0 12 -2v46
q-10 -3 -28 -4l-362 -1q31 60 44 75q9 15 37 32q-30 10 -61 30q-15 -48 -66 -137q-171 0 -192 3q-3 0 -9 2v-46q6 0 12 3q15 0 53 2h111q-49 -76 -81 -120q-7 -6 -14 -16q37 -6 94 -24l100 -35q-24 -15 -49 -27q-78 -27 -85 -31q-60 -15 -117 -17l-42 4q18 -31 28 -57
q21 3 42 10q34 7 70 14zM500 118q15 22 28 45h190q-27 -97 -96 -168l-165 55q10 21 29 49q6 10 14 19zM118 -26q-21 -37 -44 -68q24 -15 41 -28q4 -4 8 -7q6 21 36 93q25 63 88 195q1 6 40 81l-18 16q-6 6 -15 21l-56 -135q-1 0 -61 -129q-10 -19 -19 -39zM171 714
q-10 6 -19 12q-4 -7 -9 -16q0 -1 -13 -22q91 -54 135 -94q10 22 25 40q-63 45 -119 80zM49 459q54 -39 89 -66q28 -22 49 -45q7 15 28 40q-63 43 -144 108q-12 -24 -22 -37zM751 371q-3 -39 -4 -56q0 -3 -2 -7h50q0 1 -2 5q-3 75 -4 106v130q3 -7 34 -58q46 -60 67 -81
q30 -30 45 -48q19 24 43 41q-45 15 -97 69q-43 48 -76 111l118 -3l2 -1q1 0 5 -1v46q-6 0 -12 -3q-12 0 -51 -2h-78q0 109 3 116q3 18 10 29h-57q1 -6 6 -68v-77q-78 0 -104 2q-4 1 -6 1q-3 0 -12 2v-46q3 3 27 4l88 1q-12 -15 -23 -32q-60 -84 -90 -114q-28 -30 -66 -44
q33 -15 56 -32l104 137q10 18 26 40v-167z" />
  </g>

</svg>
