<?xml version="1.0" standalone="no"?>
<!DOCTYPE svg PUBLIC "-//W3C//DTD SVG 1.1//EN" "http://www.w3.org/Graphics/SVG/1.1/DTD/svg11.dtd" >
<svg xmlns="http://www.w3.org/2000/svg" xmlns:xlink="http://www.w3.org/1999/xlink" version="1.1" viewBox="-10 0 1010 1000">
   <path fill="currentColor"
d="M647 -6q99 15 99 30q-1 4 -7 6q-15 6 -23 28q-4 11 -25 56q-8 18 -10 23h142q98 -2 121 -8v82q-28 -6 -123 -6h-170q-59 96 -115 164q-36 -27 -68 -41q136 -136 179 -334zM395 14q29 50 55 127l-79 22q-13 -60 -56 -129zM129 30q77 74 115 125l-69 50q-57 -93 -119 -129z
M69 262q55 33 141 100l-55 65q-57 -55 -141 -103zM937 294q-2 8 -7 29q-21 91 -35 132q-23 -11 -80 -8q24 -36 40 -87h-81v158h45q44 0 82 -8v76q-16 -3 -59 -5q-13 -1 -21 -1h-47v216q93 16 178 -4q-29 45 -45 87q-254 7 -296 -158q-31 96 -97 174q-35 -23 -87 -32
q88 -64 122 -166q18 -52 24 -117q6 -66 2 -153q84 5 94 14q1 1 -4 7q-17 18 -18 37q-8 102 -8 140q17 88 71 141v-404h-27q-62 -1 -80 5v-75q18 3 105 6h121q75 -1 108 -4zM151 483q20 35 69 61q-62 191 -93 327q-53 -34 -95 -49q72 -111 119 -339zM522 264q-27 -4 -99 -4
h-60v117h64q62 -3 79 -6q-3 65 -7 173q-4 131 -9 173q-5 58 -28 75q-22 21 -105 40q3 -35 -26 -82l-2 -4q56 6 71 -4q17 -9 21 -49q7 -83 12 -254h-74q-6 209 -36 303q-20 67 -77 159q-50 -31 -89 -34q89 -82 110 -189q28 -111 31 -416q-45 0 -59 1q-19 1 -29 3v-79
q34 8 96 8h111q46 -1 105 -10v79z" />
</svg>
