<?xml version="1.0" standalone="no"?>
<!DOCTYPE svg PUBLIC "-//W3C//DTD SVG 1.1//EN" "http://www.w3.org/Graphics/SVG/1.1/DTD/svg11.dtd" >
<svg xmlns="http://www.w3.org/2000/svg" xmlns:xlink="http://www.w3.org/1999/xlink" version="1.1" viewBox="-10 0 1010 1000">
   <path fill="currentColor"
d="M157 16q128 98 149 121l-64 66q-65 -67 -149 -123zM347 24q40 5 78 6h359q33 0 77 -6q-5 26 -6 64v149q1 36 6 65q-42 -8 -77 -8h-359q-41 0 -76 6q6 -27 6 -73v-145q-1 -33 -8 -58zM431 86v53h347v-53h-347zM431 187v51h347v-51h-347zM95 237q106 51 159 87l-52 73
q-60 -44 -160 -89zM294 336q37 6 69 6h472q39 -1 74 -6q-5 29 -6 63v76q0 37 6 67q-45 -5 -78 -6h-456q-23 0 -72 5q-5 1 -7 1q5 -34 6 -71v-76q0 -27 -8 -59zM371 397v84h105v-84h-105zM540 397v84h109v-84h-109zM716 397v84h105v-84h-105zM181 459q20 19 71 49q4 3 6 4
q-21 61 -70 227q-39 134 -47 144q-35 -25 -89 -57q92 -142 129 -367zM312 578q43 8 95 8h305q59 0 119 -8q-65 113 -170 188q83 35 289 42q-38 44 -61 91q-178 -33 -306 -91q-121 65 -295 95q-16 -44 -58 -85q142 7 284 -52q-61 -39 -117 -93l36 -30h-22q-53 0 -99 8v-73z
M698 641h-226q54 57 115 90q82 -51 111 -90z" />
</svg>
