<?xml version="1.0" standalone="no"?>
<!DOCTYPE svg PUBLIC "-//W3C//DTD SVG 1.1//EN" "http://www.w3.org/Graphics/SVG/1.1/DTD/svg11.dtd" >
<svg xmlns="http://www.w3.org/2000/svg" xmlns:xlink="http://www.w3.org/1999/xlink" version="1.1" viewBox="-10 0 1034 1024">
  <g transform="matrix(1 0 0 -1 0 820)">
   <path fill="currentColor"
d="M344 438q-45 0 -65 6v-47q15 3 36 4l185 1q-52 -75 -135 -130q-51 -33 -88 -33q22 -16 46 -45q7 3 60 40q19 13 48 40q75 66 119 128h129q57 -78 115 -120q58 -45 153 -84q13 28 38 54q-58 1 -119 31q-66 34 -141 119l182 -1l34 -4v47q-10 -3 -22 -4q-19 0 -41 -2h-92
q6 19 21 36q-15 6 -29 14l-74 39q-9 -18 -21 -37q72 -27 96 -52h-205q19 42 32 59q9 13 30 27q-27 10 -59 28q-12 -45 -51 -114h-182zM711 119l-3 -250q0 -6 -3 -14h49q0 6 -2 11q-1 9 -3 51v202q132 0 147 -3q6 0 9 -2v46q-9 -3 -23 -3q-19 0 -41 -2h-92v61q0 34 13 66h-57
q0 -6 3 -13q3 -51 3 -114h-181q6 90 9 96q1 9 9 24q-13 0 -23 -1q-10 0 -39 4q7 -39 8 -66l-1 -57h-97q-40 0 -64 5v-46q34 4 53 5h104q-7 -141 -112 -208q-39 -21 -75 -27q28 -18 53 -40q43 30 69 51q21 16 38 36q54 66 67 188h182zM463 661h-82q-45 0 -65 6v-47q19 4 44 5
h103v-41q0 -22 -3 -52q0 -4 -3 -11h50q-3 12 -4 26l-2 78h213q-3 -69 -5 -79q-1 0 -1 -1h49q-3 6 -5 57v23l156 -3l2 -1q3 0 5 -1v47q-9 -3 -18 -5l-145 -1v35q0 34 13 68h-57q1 -6 3 -13q1 -27 3 -55v-35h-213v35q0 34 13 68h-57q3 -9 3 -13q1 -27 3 -55v-35zM67 469
q-10 -24 -23 -39q109 -60 158 -113q15 27 27 42l-78 55zM264 214q-19 15 -36 36q-6 -33 -18 -67q-6 -21 -17 -52l-32 -84q-39 -111 -63 -141q28 -15 52 -40q3 19 14 53l60 180l23 68q9 21 17 47zM174 698q-12 9 -23 18q-6 -12 -26 -35q111 -73 152 -125q15 22 30 40z" />
  </g>

</svg>
