<?xml version="1.0" standalone="no"?>
<!DOCTYPE svg PUBLIC "-//W3C//DTD SVG 1.1//EN" "http://www.w3.org/Graphics/SVG/1.1/DTD/svg11.dtd" >
<svg xmlns="http://www.w3.org/2000/svg" xmlns:xlink="http://www.w3.org/1999/xlink" version="1.1" viewBox="-10 0 1010 1000">
   <path fill="currentColor"
d="M556 -6q16 1 43 3q55 2 58 7q0 3 -4 9q-16 21 -16 59v22h75q73 0 161 -8q-8 33 -8 107q0 31 7 102q1 5 1 7q-36 -5 -69 -6q-33 -2 -90 -2h-77v64h101q77 0 153 -8q-8 32 -8 103q0 54 8 99q-63 -8 -157 -8h-97q0 12 5 40q2 9 3 14h-93q10 -24 10 -54h-108q-61 0 -142 8
q7 -47 7 -103q0 -71 -6 -99q57 8 143 8h106v-64h-66q-86 -1 -155 8q9 -53 8 -111q0 -42 -6 -90q-2 -11 -2 -15q63 8 161 8h60v-26q0 -30 -6 -74zM159 36q95 51 172 107l-65 76q-46 -48 -163 -117zM425 157v76h137v-76h-137zM637 157v76h153v-76h-153zM87 250q9 5 37 21
q117 66 136 81l-56 77q-89 -72 -170 -105zM395 421v60h167v-60h-167zM637 421v60h171v-60h-171zM167 467q44 48 83 57q-95 280 -99 357q-57 -42 -101 -61q79 -149 117 -353zM815 608q93 111 145 186q-39 18 -89 50q-73 -145 -133 -199zM313 615l96 22q-25 68 -84 213
l-99 -16q69 -101 87 -219zM429 629q15 1 44 3q55 2 55 7q1 3 -3 10q-13 24 -13 58v49q-2 40 14 48q15 11 79 10q73 1 90 -15q19 -13 19 -74q49 37 86 49q-32 119 -96 115q-77 5 -174 -2q-63 -6 -77 -20q-19 -14 -18 -61v-48q0 -97 -6 -129zM627 602q42 54 69 121l-81 27
q-15 -54 -59 -125z" />
</svg>
