<?xml version="1.0" standalone="no"?>
<!DOCTYPE svg PUBLIC "-//W3C//DTD SVG 1.1//EN" "http://www.w3.org/Graphics/SVG/1.1/DTD/svg11.dtd" >
<svg xmlns="http://www.w3.org/2000/svg" xmlns:xlink="http://www.w3.org/1999/xlink" version="1.1" viewBox="-10 0 1010 1000">
   <path fill="currentColor"
d="M712 -15q97 33 94 39q-1 3 -8 8q-33 22 -76 76h56q70 -1 107 -6v71q-29 -6 -109 -6h-141v66h109q69 -1 103 -8v73q-31 -6 -105 -6h-107v70h159q78 0 115 -6v73q-44 -8 -117 -8h-229q69 24 122 52l-44 41q19 85 46 119q75 -38 126 -111q80 68 70 72q-3 3 -12 5
q-20 4 -42 18q-6 4 -25 17q-57 39 -74 49q63 73 212 113q-42 45 -63 85q-156 -70 -236 -210v163q2 42 -24 55q-26 16 -115 24q-2 -50 -36 -89q64 12 82 6q19 -3 17 -34v-216h-103q-73 1 -101 6v-74q33 7 105 8h145q-61 -37 -123 -57l48 -42h-137q-85 1 -113 6v-71
q28 6 113 6h162v-70h-109q-73 0 -97 6v-71q26 5 97 6h109v-66h-138q-66 0 -110 6v-73q46 6 108 8h218q2 -4 7 -11q46 -63 64 -112zM137 26q73 45 157 107l-62 76q-70 -71 -155 -115zM93 276q88 38 163 86l-52 83q-83 -64 -162 -95zM163 514l77 54q-79 266 -87 329
q-9 -5 -27 -16q-49 -28 -72 -43q70 -103 109 -324zM546 627q-42 186 -242 276q-16 -31 -78 -57q148 -38 222 -149h-73q-28 0 -93 6v-76q28 9 83 10h97q46 -2 84 -10zM500 100q-31 -40 -75 -78l79 -28q46 43 69 82z" />
</svg>
