<?xml version="1.0" standalone="no"?>
<!DOCTYPE svg PUBLIC "-//W3C//DTD SVG 1.1//EN" "http://www.w3.org/Graphics/SVG/1.1/DTD/svg11.dtd" >
<svg xmlns="http://www.w3.org/2000/svg" xmlns:xlink="http://www.w3.org/1999/xlink" version="1.1" viewBox="-10 0 1034 1024">
  <g transform="matrix(1 0 0 -1 0 820)">
   <path fill="currentColor"
d="M283 -68q22 -12 47 -35q57 52 88 86q66 69 72 72q9 4 26 10q-30 13 -56 36q-16 -33 -63 -81q-66 -64 -114 -88zM310 520l5 -101q0 -36 -4 -67q-1 -1 -1 -3h48q0 3 -2 6q-3 75 -4 115v9h227q-18 -24 -46 -53q-37 -34 -73 -60q-25 -16 -46 -24q7 -27 17 -54q42 7 74 10
l112 6l-96 -73q-25 -18 -57 -37q-39 -22 -86 -27q4 -25 11 -53q52 18 227 20v-207q0 -21 -13 -27q-12 -6 -37 -7q-19 0 -54 4q3 -12 12 -50q60 3 77 7q54 12 55 75v207q31 3 65 5q42 0 126 5q15 -19 28 -44q18 16 41 32q-51 60 -87 98q-27 30 -53 54q-16 -16 -30 -27
q48 -48 74 -78l-201 -9l-129 -5l81 59l99 69l63 49q36 27 71 33q-30 19 -53 45q-33 -37 -87 -82l-189 -6q9 9 30 23q13 9 27 21q4 0 24 19q16 10 28 22q13 12 30 17q9 4 25 8q-39 30 -45 35h309l-3 -113q0 -3 -4 -14h51q0 1 -2 5q-3 6 -5 59q0 57 2 66q0 18 5 38
q-30 -1 -59 -5l-534 1q-12 3 -44 4zM751 68q108 -91 163 -167q18 22 38 36q-24 21 -86 83l-85 80q-18 -21 -30 -32zM517 657h-116q-40 0 -64 5v-46q30 4 64 5h116v-18q0 -39 -5 -62h48q-4 27 -5 62v18h169q-1 -31 -3 -65q0 -3 -2 -11h48q0 1 -1 5q-3 7 -4 36v35
q118 0 134 -2q9 0 18 -3v46q-6 0 -12 -3l-140 -2v36q0 15 2 30q1 22 11 38h-56q1 -33 5 -68v-36h-169q0 63 3 72q1 15 10 28h-56q3 -12 4 -44zM179 -61l33 89q18 45 31 81q9 27 21 53q15 37 30 71q-15 16 -25 27q-6 6 -10 11q-6 -27 -16 -54l-26 -70l-60 -146
q-28 -60 -44 -80q27 -18 48 -35zM217 694q-18 13 -37 30q-15 -21 -29 -35q78 -54 146 -119q12 18 29 36zM73 441q102 -63 152 -115q12 21 32 39l-74 54q-33 24 -85 57q-12 -19 -25 -35v0z" />
  </g>

</svg>
