<?xml version="1.0" standalone="no"?>
<!DOCTYPE svg PUBLIC "-//W3C//DTD SVG 1.1//EN" "http://www.w3.org/Graphics/SVG/1.1/DTD/svg11.dtd" >
<svg xmlns="http://www.w3.org/2000/svg" xmlns:xlink="http://www.w3.org/1999/xlink" version="1.1" viewBox="-10 0 1010 1000">
   <path fill="currentColor"
d="M458 -8l36 3q59 3 58 9q1 3 -4 8q-16 17 -16 42v54h129v-50q0 -18 -1 -44q-1 -13 -1 -18q76 -3 85 8q1 2 -4 10q-11 18 -12 34v58q23 -1 68 -1q94 -2 127 -5v73q-45 -7 -164 -6h-29q0 35 4 56h-79q4 -21 4 -54h-125q0 30 6 54h-80q5 -23 4 -54q-73 0 -100 1q-34 1 -54 3
v-69q21 2 55 3q16 1 39 1h60v-58q0 -25 -6 -58zM133 28q4 2 12 7q112 64 149 92l-50 64q-101 -82 -153 -99zM85 237q91 45 161 95l-48 69q-87 -71 -158 -95zM294 237q46 7 148 7h330q81 0 137 -7q-9 71 0 146h-86q10 -39 10 -79h-275q5 3 14 9q45 27 43 31q0 2 -9 4
q-20 6 -35 15q-30 19 -85 68h131q55 -47 89 -91q87 30 88 39q0 2 -9 5q-32 12 -61 35q-54 44 -126 98q-45 34 -66 51q114 -2 242 -16q-33 -33 -58 -52l60 -37q5 4 14 14q110 104 127 127l-60 47q-1 -1 -2 -3q-16 -23 -38 -44q-55 3 -148 11q-12 1 -18 2v193q1 50 -24 62
q-17 15 -121 31q-2 -46 -42 -93q24 4 53 6q30 2 43 0q16 -5 17 -30v-161q-141 11 -232 28q-10 -39 -33 -73q69 -1 117 -16q64 -24 123 -81q-60 -1 -177 21q-6 -31 -30 -69q42 -1 84 -28q55 -38 107 -103h-167q0 50 1 64q0 20 3 27h-79q9 -79 0 -158zM185 447q33 32 69 47
q-74 245 -81 393q-45 -38 -96 -59q55 -94 108 -381zM744 651q87 61 169 135l-76 48q-59 -77 -145 -129zM438 659q8 4 25 11q66 25 59 33q-2 4 -11 6q-20 4 -33 18q-57 61 -153 136q-33 -32 -73 -51q105 -55 186 -153z" />
</svg>
