<?xml version="1.0" standalone="no"?>
<!DOCTYPE svg PUBLIC "-//W3C//DTD SVG 1.1//EN" "http://www.w3.org/Graphics/SVG/1.1/DTD/svg11.dtd" >
<svg xmlns="http://www.w3.org/2000/svg" xmlns:xlink="http://www.w3.org/1999/xlink" version="1.1" viewBox="-10 0 1010 1000">
   <path fill="currentColor"
d="M613 6q99 23 95 32q0 3 -4 6q-28 20 -61 121h192q56 -1 92 -8v74q-10 -3 -64 -2h-28h-25v119h31q57 0 82 -6v71q-27 -6 -80 -6h-33v119h27q58 -1 88 -4v72q-35 -8 -82 -8h-33v133h29q52 0 103 -8v77q-41 -6 -99 -6h-212v32q-1 56 4 73h-83q10 -34 11 -139v-394
q-6 14 -18 40q-18 38 -27 61q-22 -23 -66 -46q123 -170 161 -403zM796 8q22 49 39 107l-75 20q-11 -58 -34 -103zM361 12l21 9q77 29 70 37q-1 3 -8 7q-21 10 -31 31l-32 64q-45 95 -73 136l87 -12q22 -57 30 -103q79 35 87 48q-1 1 -4 2q-19 8 -38 37q-10 15 -39 79
q-49 111 -86 175q82 -4 155 -22q-6 32 -8 76q-115 2 -230 28q-12 -42 -24 -80q65 0 135 -180q-46 3 -115 27q-2 -4 -5 -13q-18 -49 -29 -66q71 -22 137 -280zM133 20q78 55 131 105l-58 62q-60 -62 -127 -105zM746 229h-115v119h115v-119zM93 256q64 37 137 94l-55 65
q-40 -42 -135 -97zM746 407h-115v119h115v-119zM137 487l73 41q-57 213 -65 328q-59 -32 -99 -44q62 -118 91 -325zM746 586h-115v133h115v-133zM494 645q0 11 -2 44q-1 20 -2 32q-120 21 -236 63q-6 -53 -22 -87q120 -9 262 -52z" />
</svg>
