<?xml version="1.0" standalone="no"?>
<!DOCTYPE svg PUBLIC "-//W3C//DTD SVG 1.1//EN" "http://www.w3.org/Graphics/SVG/1.1/DTD/svg11.dtd" >
<svg xmlns="http://www.w3.org/2000/svg" xmlns:xlink="http://www.w3.org/1999/xlink" version="1.1" viewBox="-10 0 1034 1024">
  <g transform="matrix(1 0 0 -1 0 820)">
   <path fill="currentColor"
d="M114 447q-13 12 -38 28q-12 -15 -27 -33q36 -22 76 -55q42 -34 72 -61q16 21 26 33q-94 78 -109 88zM275 223q-4 6 -9 11l-20 28q-33 -123 -95 -267q-13 -33 -25 -52q-9 -15 -21 -30q24 -16 47 -39q18 61 23 73q10 31 30 80q61 171 70 196zM295 587q-22 30 -61 70l-61 63
q-12 -12 -29 -28q73 -73 120 -132q3 3 10 9q3 6 8 9q1 3 13 9zM463 480l111 -3q6 0 11 -2v46q-72 -4 -107 -5h-10l5 92q60 0 90 -4q1 0 6 -1v46q-18 -1 -16 -2q-39 0 -77 -3q0 75 3 84q1 13 9 29h-56q0 -6 3 -13l3 -100q-67 0 -95 3q-6 1 -18 2v-46q37 4 64 5h48l-6 -92
l-99 1q-31 3 -34 4v-46q33 4 62 5h66q-36 -145 -145 -210q30 -9 53 -22q69 69 113 174q27 -18 50 -38l67 -61q6 9 8 11q9 9 18 20q-24 24 -44 40l-87 69q1 9 4 17zM401 -91v-11q0 -9 -5 -55h47l-4 41q0 6 -1 13h362q-1 -18 -3 -37q-1 -7 -3 -17h49l-4 41l-1 317q1 31 5 64
l-67 -6l-332 1q-9 3 -48 5q1 -31 5 -64v-292zM438 -67v129h362v-129h-362zM800 98h-362v124h362v-124zM861 482q33 -1 66 -5v46q-33 -1 -66 -5h-95l5 92l116 -3q6 0 11 -2v46q-58 -4 -82 -5h-42v46q0 15 3 32q3 22 10 38h-57q0 -6 3 -13l3 -103q-48 0 -75 3q-6 1 -17 2v-46
q30 4 64 5h27l-6 -92q-58 0 -83 3q-6 1 -16 2v-46q34 4 62 5h32q-42 -123 -144 -177q30 -12 54 -24q24 24 66 79q13 19 24 38q10 19 27 57q57 -109 172 -197q12 12 42 35q-51 18 -108 70q-57 60 -82 119h86z" />
  </g>

</svg>
