<?xml version="1.0" standalone="no"?>
<!DOCTYPE svg PUBLIC "-//W3C//DTD SVG 1.1//EN" "http://www.w3.org/Graphics/SVG/1.1/DTD/svg11.dtd" >
<svg xmlns="http://www.w3.org/2000/svg" xmlns:xlink="http://www.w3.org/1999/xlink" version="1.1" viewBox="-10 0 1010 1000">
   <path fill="currentColor"
d="M700 -6q97 1 106 10q0 3 -5 10q-12 16 -13 34q0 9 -1 22q-1 31 -3 40q90 0 125 -8v75q-17 -5 -129 -6q-2 19 -5 63q-1 11 -1 16q118 0 155 -12v82q-13 -6 -43 -8q-28 -2 -96 -2q38 99 160 143q-38 33 -53 79q-131 -94 -155 -192q-34 96 -127 172q101 0 146 -3
q52 -3 80 -11q-10 39 -10 147v72q0 147 10 186h-97q8 -14 8 -69h-319q0 47 7 61h-97q10 -44 10 -180v-72q0 -62 -2 -88q-3 -28 -10 -43q-15 14 -24 26q-33 -34 -75 -51q111 -67 141 -177q-89 1 -117 8v-76q12 5 41 7q14 0 34 1h54q6 -53 6 -77q-55 0 -75 1q-24 1 -36 5v-71
q14 5 113 5q0 -97 -6 -115q94 1 97 8q0 4 -5 12q-11 16 -11 32q0 14 -1 39q-1 17 -1 23q62 -1 82 -6v71q-30 -4 -86 -4q-3 48 -8 75q66 0 98 -6v72q-23 -6 -106 -6l-6 22q57 32 123 89l-65 60q-33 -49 -83 -88q-27 62 -68 105q39 16 147 16h103q-25 -32 -67 -47
q101 -43 148 -153q-79 0 -109 4v-74q26 8 123 8q6 -20 6 -77q-77 0 -117 8v-75q9 4 36 5q12 1 31 1h50q0 -58 -2 -81q-1 -27 -6 -37zM129 16q78 36 147 92l-56 77q-56 -53 -153 -99zM89 258q80 33 165 94l-52 83q-70 -58 -168 -99zM175 512q51 28 83 38q-50 128 -89 250
q-12 34 -15 75q-2 12 -3 12q0 3 -99 -51q60 -87 123 -324zM435 578v71h317v-71h-317zM433 705v77h319v-77h-319z" />
</svg>
