<?xml version="1.0" standalone="no"?>
<!DOCTYPE svg PUBLIC "-//W3C//DTD SVG 1.1//EN" "http://www.w3.org/Graphics/SVG/1.1/DTD/svg11.dtd" >
<svg xmlns="http://www.w3.org/2000/svg" xmlns:xlink="http://www.w3.org/1999/xlink" version="1.1" viewBox="-10 0 1034 1024">
  <g transform="matrix(1 0 0 -1 0 820)">
   <path fill="currentColor"
d="M71 462l85 -57q25 -19 58 -47q9 24 22 38q-4 3 -11 7q-58 45 -101 73q-6 4 -12 7l-38 28q-3 -6 -10 -18q-3 -7 -13 -17zM113 -95q13 -6 22 -15q1 -1 4 -3q1 -1 6 -5l70 198q45 123 61 154q-12 12 -26 24q-4 4 -12 13q-9 -45 -22 -83l-43 -116q-27 -72 -44 -108
q-12 -27 -29 -50q6 -4 13 -9zM167 740q-10 -13 -21 -22l78 -62l72 -68q10 18 28 32l-56 50l-58 49l-36 30q-4 -4 -7 -9zM503 480l-208 3q-3 0 -8 2v-47q9 4 26 5l283 1v-86l-177 1q-3 0 -48 4q4 -60 5 -91l-1 -180q-3 -7 -4 -36v-5q33 3 66 5l391 -1q15 0 48 -4q-4 54 -5 78
l1 187l4 47q-33 -1 -68 -5h-174v86h273q18 0 50 -3q6 0 15 -3v47q-7 0 -15 -3l-95 -2h-121v121q130 0 152 -2q15 0 23 -4v46q-33 -1 -66 -5h-109v70q0 13 3 30q3 21 18 37h-63q1 -33 5 -67v-70h-164v64q0 12 3 30q3 21 18 38h-62l4 -132l-138 3q-4 1 -7 1q-3 1 -5 1v-46
q16 3 35 5l115 1v-121zM596 92h-183v100h183v-100zM413 228v94h183v-94h-183zM542 480v121h162v-121h-162zM634 92v100h199v-100h-199zM634 228v94h199v-94h-199zM505 -24q18 16 53 35q-24 10 -53 28q-15 -19 -36 -42q-24 -24 -58 -54q-63 -51 -121 -73q21 -16 43 -38
l111 89zM690 6q36 -21 107 -79q66 -54 98 -88q9 16 30 37q-27 25 -90 74q-60 48 -117 89q-7 -9 -11 -16q-6 -7 -17 -17v0z" />
  </g>

</svg>
