<?xml version="1.0" standalone="no"?>
<!DOCTYPE svg PUBLIC "-//W3C//DTD SVG 1.1//EN" "http://www.w3.org/Graphics/SVG/1.1/DTD/svg11.dtd" >
<svg xmlns="http://www.w3.org/2000/svg" xmlns:xlink="http://www.w3.org/1999/xlink" version="1.1" viewBox="-10 0 1034 1024">
  <g transform="matrix(1 0 0 -1 0 820)">
   <path fill="currentColor"
d="M199 355l12 20q-66 48 -140 97q-1 -6 -7 -15q-3 -6 -14 -20q84 -54 139 -101q3 7 7 12q1 4 3 7zM113 6q-19 -48 -34 -65q30 -24 46 -42q9 34 24 79l40 111l32 90q9 28 20 59q3 10 11 29q-19 15 -39 48q-18 -99 -58 -205zM114 692q51 -33 123 -112l19 19q6 3 11 11
q-18 18 -41 39q-27 25 -83 73q-9 -12 -29 -30zM291 -40q-30 -10 -61 -16q9 -12 18 -34q3 -7 6 -16q45 25 61 31q9 4 28 10q6 1 52 20l29 11q27 9 54 21q58 24 88 30l-4 52q-13 -10 -30 -20q-27 -12 -88 -37v202q36 0 80 -3q3 0 11 -3v47q-12 -3 -28 -3l-63 -2v156l94 -5
q-4 60 -5 115q0 132 2 144q-1 3 0 5q1 16 3 36q-18 -1 -33 -2q-31 -3 -44 -4l-127 1q-24 4 -52 5q6 -66 6 -100l-1 -144q-4 -30 -5 -56q54 4 113 5h11v-409l-78 -26v263q0 42 21 69h-64q0 -4 3 -11l3 -149v-183zM322 442v218h172v-218h-172zM961 277q6 10 13 19q6 6 15 13
q-60 6 -117 41q-72 45 -103 82q54 75 78 123q33 70 45 102q-75 -6 -85 -6h-134q27 48 37 59q10 15 34 26q-33 9 -62 25q-24 -66 -76 -158q-31 -51 -69 -83q18 -6 43 -23q63 99 74 119h182q-42 -94 -94 -159q-37 42 -49 62q-12 21 -19 52q-9 -7 -28 -20q-9 -4 -18 -10
q4 -6 11 -13q21 -30 63 -82q6 -6 14 -18q-57 -61 -123 -107q-36 -21 -80 -33q25 -15 44 -38q18 10 75 54q30 24 56 46q27 22 56 53q9 -6 16 -14q39 -36 86 -68l62 -39q22 -12 41 -20zM610 267q6 -69 6 -88l-1 -302q-1 -6 -2 -11q0 -6 -4 -14h51q-6 22 -7 70v22h188
q0 -66 -5 -80q-1 0 -1 -2h51q-6 18 -6 69l1 287q1 24 5 49q-21 -1 -35 -2q-25 -3 -81 -3l-111 1q-19 3 -49 4zM653 -21v247h188v-247h-188z" />
  </g>

</svg>
