<?xml version="1.0" standalone="no"?>
<!DOCTYPE svg PUBLIC "-//W3C//DTD SVG 1.1//EN" "http://www.w3.org/Graphics/SVG/1.1/DTD/svg11.dtd" >
<svg xmlns="http://www.w3.org/2000/svg" xmlns:xlink="http://www.w3.org/1999/xlink" version="1.1" viewBox="-10 0 1034 1024">
  <g transform="matrix(1 0 0 -1 0 820)">
   <path fill="currentColor"
d="M57 454q30 -16 64 -39l91 -60q10 19 23 35q-75 51 -152 99zM96 -85q30 -22 48 -43q12 57 52 167l72 198q-16 24 -29 45q-33 -109 -80 -233q-19 -54 -34 -87q-12 -25 -29 -47zM113 705q75 -54 141 -116q21 27 27 33l-63 56q-40 33 -76 59q-9 -12 -29 -32zM442 89
q-123 0 -150 2q-15 3 -24 3v-46q30 4 64 5h110l-1 -167q-3 -3 -3 -40q0 -3 -2 -8h50q-1 4 -1 8q-3 6 -3 29l-2 79v99l145 -3q6 0 12 -2v46l-39 -4l-118 -1v101q72 0 86 -2q18 0 36 -3q-3 33 -5 66l1 203l4 44q-55 -4 -88 -5h-29v99l135 -3q6 0 11 -3v47q-33 -1 -67 -5h-79
v61q0 15 3 32q1 16 10 38h-56q0 -9 2 -13l3 -118q-103 0 -129 2q-18 3 -25 3v-47q33 6 62 6h92v-99h-71q-9 0 -32 3q-15 0 -32 2q1 -30 5 -62l-1 -203q-3 -12 -4 -48q51 4 104 5h26v-101zM559 226h-205v100h205v-100zM354 360v97h205v-97h-205zM891 224v-275q0 -21 -8 -30
q-9 -12 -42 -12q-15 0 -53 4q13 -30 21 -55q25 1 38 4q36 4 57 16q25 18 26 57l1 732l4 45q-33 -1 -66 -5q-123 0 -147 2q-6 3 -39 3q1 -31 5 -64l-1 -409q-1 -19 -2 -44q-1 -43 -6 -77q-15 -126 -70 -202q-18 -25 -49 -49q27 -4 62 -17q49 73 76 170q21 88 24 206h169z
M725 258v190h166v-190h-166zM725 482v188h166v-188h-166z" />
  </g>

</svg>
