<?xml version="1.0" standalone="no"?>
<!DOCTYPE svg PUBLIC "-//W3C//DTD SVG 1.1//EN" "http://www.w3.org/Graphics/SVG/1.1/DTD/svg11.dtd" >
<svg xmlns="http://www.w3.org/2000/svg" xmlns:xlink="http://www.w3.org/1999/xlink" version="1.1" viewBox="-10 0 1034 1024">
  <g transform="matrix(1 0 0 -1 0 820)">
   <path fill="currentColor"
d="M69 415q78 -40 148 -99q6 10 19 30q4 4 7 8q-33 24 -76 51q-49 30 -70 45q-10 -13 -11 -16q-6 -3 -17 -19zM243 183q15 37 23 61q-18 21 -36 50q-9 -48 -24 -100q-15 -54 -38 -121q-27 -76 -44 -116q-12 -27 -25 -44q25 -24 44 -48l17 65q79 246 83 253zM267 602l-98 74
q-7 4 -13 9q-10 -16 -28 -35l47 -32l31 -23q43 -33 60 -49l12 -12q4 12 19 26q3 3 10 11q-9 6 -19 15t-21 16zM291 416q6 -4 13 -11q22 19 54 53q39 42 54 62q21 -57 24 -150q-102 -187 -178 -238q27 -10 50 -25q40 51 66 89q27 39 66 103l2 -106q0 -138 -18 -216
q-12 -48 -41 -64q-25 -10 -55 -11q-21 1 -41 3q10 -27 16 -48q61 6 87 15q25 7 43 29q22 30 34 92q10 63 13 183q16 -9 33 -23q1 -1 8 -6q33 27 75 66v-294q0 -21 -3 -54q0 -7 -3 -13h48q-4 19 -5 45v40h219l-4 -75l-2 -6h49q-4 30 -5 64l1 324q0 21 4 49q-33 -1 -67 -5
h-161q9 9 17 20l46 57l27 32h132q19 0 50 -3q6 0 16 -3v47q-10 -3 -16 -3q-21 0 -50 -2h-108q10 19 46 67q0 3 43 64q39 57 74 75q-21 9 -32 17q-10 6 -31 20q-13 -40 -35 -74q-63 -100 -113 -169h-20v154q42 0 85 -3q3 0 10 -3v47q-33 -1 -65 -5h-30v69q0 15 3 31
q3 21 17 38h-63l4 -36l1 -102l-93 3q-3 0 -7 1q-3 1 -6 1v-47q3 1 37 5l69 1v-154l-156 3l-6 2v-47q4 3 52 6h142q-51 -67 -129 -145q-51 -46 -97 -64q-1 156 -11 231q-9 76 -32 138q33 52 42 69q31 57 41 68q10 15 31 23q-16 10 -34 18q-10 6 -21 14q-10 -30 -28 -66
t-53 -90l-45 58q-40 46 -52 64q-12 -12 -41 -32q24 -12 50 -42q42 -48 62 -84q-18 -27 -53 -63q-42 -42 -79 -56q10 -6 18 -13zM633 139v113h219v-113h-219zM852 -28h-219v131h219v-131z" />
  </g>

</svg>
