<?xml version="1.0" standalone="no"?>
<!DOCTYPE svg PUBLIC "-//W3C//DTD SVG 1.1//EN" "http://www.w3.org/Graphics/SVG/1.1/DTD/svg11.dtd" >
<svg xmlns="http://www.w3.org/2000/svg" xmlns:xlink="http://www.w3.org/1999/xlink" version="1.1" viewBox="-10 0 1034 1024">
  <g transform="matrix(1 0 0 -1 0 820)">
   <path fill="currentColor"
d="M74 466q28 -16 67 -48q49 -39 69 -59q9 19 23 35q-27 24 -77 61q-24 19 -34 25q-19 15 -23 18q-1 -3 -15 -22q-6 -4 -10 -10zM237 269q-4 4 -12 15q-6 9 -13 17q-13 -67 -53 -186q-13 -42 -25 -71q-9 -24 -17 -42q-9 -22 -29 -52q3 -1 46 -30q7 36 13 50l46 139l54 152
q-6 4 -10 8zM139 712q18 -18 51 -45q30 -27 54 -51l29 -29q4 7 11 14q6 3 19 18l-137 125q-13 -15 -27 -32zM361 573h445q12 0 32 -2l31 -3q-4 49 -5 75q1 42 5 84q-54 -4 -64 -5l-439 1q-7 1 -15 2q-15 0 -32 2l5 -61l-2 -288q-1 -13 -2 -32q0 -49 -5 -110q-1 -4 -2 -12
q-12 -118 -56 -207q-27 -54 -67 -93q33 -10 51 -21q66 105 95 227q9 49 15 94q6 105 10 246v103zM827 608h-466v79h466v-79zM484 61q-96 -36 -145 -41q13 -27 22 -48q21 12 54 25q40 15 69 28q0 -85 -2 -98q-1 -6 -9 -8q-15 -4 -35 -5q-10 0 -41 6q3 -13 9 -29q0 1 2 -17
q49 4 68 8q45 7 45 55v101q27 13 71 25q0 12 3 16q0 6 4 16q1 7 4 16q-33 -18 -82 -37v46q3 3 69 75q13 15 35 44q-34 -1 -70 -5l-166 3q-4 1 -7 1q-3 1 -5 1v-45q4 3 53 6h119q-15 -18 -29 -33q-15 -15 -41 -37q1 -24 5 -50v-19zM710 489q-33 -24 -80 -50l3 -31l-193 1
q-27 3 -38 4q-3 1 -5 1v-46q13 6 47 7h189v-48q0 -15 -8 -19q-12 -4 -26 -5q-10 0 -36 6q6 -18 12 -45q15 0 27 1q24 1 41 8q27 12 27 52v50h187q19 0 50 -3q6 0 14 -4v46q-6 0 -14 -3q-21 0 -50 -3h-187v14q90 63 94 67q12 9 31 26l17 14q-31 -1 -64 -5q-234 0 -246 3
q-6 0 -10 1q-3 1 -6 1v-46q15 4 37 5zM818 203q-27 -28 -59 -55q3 -48 4 -52l-118 2q-6 3 -11 3v-46q19 4 22 5l108 1v-108q0 -21 -9 -28q-16 -9 -37 -10q-21 0 -41 2q0 -1 5 -16q3 -12 8 -26q30 3 39 4q30 3 52 16q19 15 20 57v109q126 0 137 -3q3 0 7 -3v46q-12 -3 -28 -3
q-37 0 -116 -3v44l103 104q-31 -1 -63 -5l-165 3q-4 1 -7 1q-3 1 -5 1v-46q9 4 26 5z" />
  </g>

</svg>
