<?xml version="1.0" standalone="no"?>
<!DOCTYPE svg PUBLIC "-//W3C//DTD SVG 1.1//EN" "http://www.w3.org/Graphics/SVG/1.1/DTD/svg11.dtd" >
<svg xmlns="http://www.w3.org/2000/svg" xmlns:xlink="http://www.w3.org/1999/xlink" version="1.1" viewBox="-10 0 1034 1024">
  <g transform="matrix(1 0 0 -1 0 820)">
   <path fill="currentColor"
d="M53 427q66 -43 99 -67q27 -18 56 -42q6 10 24 36l-64 47l-91 59q-3 -6 -24 -33zM158 -101q9 25 15 47q7 27 28 78q12 34 32 82l38 100q7 19 16 39q-16 21 -30 45l-30 -92l-46 -120q-25 -64 -45 -104q-15 -30 -34 -49q18 -15 50 -44zM304 585q0 3 14 20l-156 108
q-12 -18 -24 -34q85 -55 157 -108q4 7 9 14zM587 696l-60 -4l-122 1l-27 3q-4 1 -9 2v-48q36 6 62 7h112q-21 -75 -57 -133q-12 12 -24 18l-41 27q-13 9 -29 20q-9 -18 -21 -35q55 -36 92 -64q-36 -63 -92 -114q-39 -33 -93 -52q30 -16 50 -33q22 15 37 27t28 26
q55 55 84 94q66 93 121 260q-6 0 -11 -2zM385 -84l-63 6v-48q27 6 63 7l540 -1l39 -6v48q-66 -6 -90 -6h-148q6 19 22 43q4 6 10 17q24 42 57 55q-28 12 -61 30q-30 -75 -73 -145h-75q-33 48 -54 76l-41 53q-22 -16 -32 -22q52 -70 78 -107h-172zM429 143q0 -7 -3 -34
q0 -12 -2 -34q34 3 71 5l288 -1q18 0 51 -4q-4 54 -5 110q0 60 2 73q0 21 3 41q-36 -1 -71 -5l-289 1q-19 3 -50 4q1 -33 5 -67v-89zM466 116v142h325v-141zM481 385q24 6 63 6q199 0 211 -2q6 0 24 -4v47q-109 -4 -113 -5l-147 1q-36 3 -38 4v-47zM697 735l-47 -6
q69 -267 293 -432q24 19 53 35q-48 15 -87 44q-58 43 -105 104q84 63 93 63q10 0 32 5q-9 9 -22 23q-7 10 -20 26q-27 -30 -104 -86q-30 42 -52 91q19 9 65 40q33 19 70 23q-34 39 -42 51q-21 -22 -47 -42q-24 -18 -59 -39q-3 9 -16 62q0 7 -5 38v0z" />
  </g>

</svg>
