<?xml version="1.0" standalone="no"?>
<!DOCTYPE svg PUBLIC "-//W3C//DTD SVG 1.1//EN" "http://www.w3.org/Graphics/SVG/1.1/DTD/svg11.dtd" >
<svg xmlns="http://www.w3.org/2000/svg" xmlns:xlink="http://www.w3.org/1999/xlink" version="1.1" viewBox="-10 0 1010 1000">
   <path fill="currentColor"
d="M486 8q59 0 77 1q22 2 22 7q0 3 -4 9q-21 29 -21 85v17q41 6 69 -4v66q-14 -4 -69 -4v371q42 3 67 -6v73q-5 0 -28 -3q-51 -5 -75 -5h-191q-75 1 -103 8v-75q14 8 76 8v-371q-41 0 -70 8v-56l-48 50q-31 -39 -128 -107l61 -56q20 15 51 41q49 42 76 58q10 5 58 6v-23
q-1 -43 -8 -98q53 0 69 1q20 2 22 7q1 3 -3 10q-19 32 -19 78v25h127v-23q0 -74 -8 -98zM877 26q79 74 69 76q-1 1 -12 1q-30 -1 -59 5t-83 16q-47 8 -56 11v169h123q64 -1 89 -8v85q-15 -8 -77 -8v350q0 146 8 170h-95q16 -29 16 -170v-352h-62q2 389 -131 536
q-24 -29 -79 -51q103 -81 125 -252q8 -58 10 -149q1 -44 2 -110v-194q0 -8 -2 -39q-1 -19 -2 -30q123 -11 216 -56zM496 185h-127v85h127v-85zM95 250q96 64 147 104l-55 61q-48 -50 -147 -105zM496 322h-127v91h125zM496 465h-127v91h127v-91zM137 479q25 17 71 39
q-59 230 -73 363q-10 -15 -77 -49q-9 -4 -12 -6q60 -130 91 -347zM504 639q28 31 77 92q13 17 20 25l-69 46q-28 -69 -86 -123zM327 643q76 20 86 32q-23 8 -147 190q-46 -31 -74 -43q90 -76 135 -179z" />
</svg>
