<?xml version="1.0" standalone="no"?>
<!DOCTYPE svg PUBLIC "-//W3C//DTD SVG 1.1//EN" "http://www.w3.org/Graphics/SVG/1.1/DTD/svg11.dtd" >
<svg xmlns="http://www.w3.org/2000/svg" xmlns:xlink="http://www.w3.org/1999/xlink" version="1.1" viewBox="-10 0 1010 1000">
   <path fill="currentColor"
d="M425 -10q88 2 101 12q0 1 -1 4q-17 32 -19 107h63q78 -1 98 -7v77q-32 -8 -98 -8h-63v81h36q76 -3 93 -6v74q-7 -2 -31 -3q-11 -1 -28 -1h-50h-137q-57 0 -95 6v-78q26 7 95 8h44v-81h-60q-8 1 -27 1q-54 2 -70 7v-77q51 6 93 7h66q0 -57 -2 -78q-2 -27 -8 -45zM143 16
q29 22 94 74q21 17 31 25l-60 66q-60 -67 -121 -105zM117 256q75 55 143 96l-48 75q-75 -65 -145 -101zM855 286q68 30 97 58q-1 2 -11 9q-24 15 -30 24q-140 180 -211 242q-23 -29 -65 -53q169 -126 220 -280zM373 445v63h185v-63h-185zM155 504q32 30 81 52
q-42 108 -77 317q-65 -42 -96 -57q67 -141 92 -312zM861 530q96 39 105 54q0 4 -7 6q-20 6 -36 29q-135 209 -294 302q-42 -33 -83 -59q232 -99 315 -332zM536 588l21 6q75 20 68 27q-1 1 -3 4q-24 20 -64 98l101 -22q-12 32 -12 73q-208 26 -377 66q-8 -54 -26 -90
q133 -8 252 -21q1 -3 4 -11q31 -89 36 -130zM391 592q21 40 44 107l-80 18q-1 -3 -2 -9q-11 -57 -36 -96zM631 576q-23 -4 -109 -4h-103q-91 0 -119 8q3 -36 4 -82v-53q-3 -55 -6 -70q24 5 115 6h117q62 0 101 -6q-4 23 -4 76v41q0 38 4 84zM641 322q134 -101 186 -308
q93 34 108 48q-2 3 -11 10q-19 13 -27 26q-129 218 -191 279q-26 -37 -65 -55z" />
</svg>
