<?xml version="1.0" standalone="no"?>
<!DOCTYPE svg PUBLIC "-//W3C//DTD SVG 1.1//EN" "http://www.w3.org/Graphics/SVG/1.1/DTD/svg11.dtd" >
<svg xmlns="http://www.w3.org/2000/svg" xmlns:xlink="http://www.w3.org/1999/xlink" version="1.1" viewBox="-10 0 1010 1000">
   <path fill="currentColor"
d="M454 2q17 28 42 110l-77 17q-14 -56 -44 -107zM694 6q108 14 112 24q-1 2 -6 7q-18 17 -28 41q-7 16 -18 53q-13 39 -20 56h105q64 -2 111 -10v83q-24 -6 -79 -6q-15 308 -87 445q65 68 170 113q-36 36 -63 83q-105 -78 -143 -129q-56 75 -109 129q-44 -33 -74 -41
q-17 28 -113 39q-3 -45 -29 -79q85 14 75 -24v-67h-143v31q0 84 6 131h-87q10 -71 10 -139v-214q-1 -66 -4 -115q13 1 37 2q51 2 68 2h91q24 0 86 -3q10 -1 15 -1q-6 84 -6 117v290q64 -28 131 -123q-41 -88 -75 -308l89 -2q-13 21 -5 90q8 70 33 144q52 -146 52 -371h-86
q-24 77 -49 131q-32 -16 -56 -16l-57 32q-10 -37 -18 -39q-188 8 -254 29q-10 -36 -32 -71q66 -1 133 -115h-46q-43 0 -75 4v-74q72 6 105 6h133q60 0 81 -1q26 -1 42 -3v74q-30 -6 -95 -6h-72q-40 63 -93 115l143 -10q-1 -12 -34 -56l66 -23q18 24 56 89q6 9 9 14
q74 -114 97 -328zM91 260q72 39 149 84l-53 71q-57 -48 -145 -89zM157 469l77 45q-72 225 -85 373q-1 -1 -4 -3q-50 -32 -89 -52q72 -165 101 -363zM355 481v59h145v-59h-145zM355 596v71h145v-71h-145zM202 185q-50 -53 -117 -95l56 -60q29 18 113 87z" />
</svg>
