<?xml version="1.0" standalone="no"?>
<!DOCTYPE svg PUBLIC "-//W3C//DTD SVG 1.1//EN" "http://www.w3.org/Graphics/SVG/1.1/DTD/svg11.dtd" >
<svg xmlns="http://www.w3.org/2000/svg" xmlns:xlink="http://www.w3.org/1999/xlink" version="1.1" viewBox="-10 0 1034 1024">
  <g transform="matrix(1 0 0 -1 0 820)">
   <path fill="currentColor"
d="M66 481l83 -55l73 -54q15 24 25 35l-115 82l-41 27q-9 -15 -25 -35zM247 282q-19 -60 -23 -67l-87 -214q-15 -36 -33 -53q16 -15 44 -47q3 16 30 88q9 30 60 161q42 105 42 108q-13 19 -26 44q-4 -9 -7 -20zM292 598q12 18 28 33q-28 28 -68 66q-37 34 -67 59
q-18 -21 -30 -33l62 -54l16 -16zM323 602q0 -6 3 -13q0 -9 4 -45q-1 -4 0 -12l-1 -613q-3 -3 -3 -33q-3 -3 -3 -15h49q0 9 -2 18q-3 63 -4 89l1 572q0 15 6 33q1 10 6 19h-56zM396 755l-22 -20q36 -36 61 -64q24 -27 54 -65l32 31q-30 36 -62 71l-53 56q-6 -4 -10 -9z
M565 302l-15 21q-13 21 -28 35q-10 -10 -22 -19q19 -27 51 -72q9 6 17 12q-3 -3 9 6q-6 9 -12 17zM705 286q21 30 28 37q3 4 26 13q-24 13 -45 30q-9 -30 -53 -85q13 -6 28 -14q7 10 16 19zM600 -7q-1 -24 -3 -49q-1 -7 -3 -17h47q0 4 -1 8q-3 6 -3 39l-1 187q39 -42 70 -73
l26 -28l58 -64q22 22 32 31q-34 36 -69 68l-114 108q112 0 127 -2q19 0 41 -3q-4 52 -5 105q0 76 2 88q0 15 3 37q-69 -6 -103 -6h-68v78q153 0 165 -3q9 0 20 -3v43l-43 -4q-19 -1 -48 -2h-94v18q0 33 12 70h-54q0 -1 1 -3q0 -3 1 -6q0 -18 4 -59v-20l-142 1q-4 1 -6 1
l-36 4v-43q30 6 63 6h121v-78l-120 1q-24 4 -45 5q1 -31 5 -64l-1 -121q-3 -15 -4 -45q15 3 52 4l102 1q-37 -55 -76 -99q-66 -72 -122 -101l48 -30q78 69 161 185v-165zM472 233v159h128v-159h-128zM636 233v159h133v-159h-133zM920 711q-34 -1 -69 -5l-255 1l-25 3
q-3 0 -9 1v-47q31 6 63 6h252v-698q0 -27 -12 -38q-13 -9 -36 -10q-13 0 -68 6q15 -30 27 -56q12 3 24 4q54 6 73 19q30 18 30 67l1 699q0 4 4 48v0z" />
  </g>

</svg>
