<?xml version="1.0" standalone="no"?>
<!DOCTYPE svg PUBLIC "-//W3C//DTD SVG 1.1//EN" "http://www.w3.org/Graphics/SVG/1.1/DTD/svg11.dtd" >
<svg xmlns="http://www.w3.org/2000/svg" xmlns:xlink="http://www.w3.org/1999/xlink" version="1.1" viewBox="-10 0 1034 1024">
  <g transform="matrix(1 0 0 -1 0 820)">
   <path fill="currentColor"
d="M58 439q69 -39 156 -108q6 13 25 37q-48 34 -80 57q-54 34 -74 50q-12 -18 -27 -36zM95 -103q15 -13 21 -20l21 -22q6 25 21 66l43 105l92 206q-22 24 -34 52q-12 -57 -89 -237q-33 -75 -51 -113q-12 -21 -24 -37zM275 600q3 3 9 11l-52 45l-92 72q-15 -24 -28 -37
q40 -25 81 -60q40 -33 65 -59q0 3 7 13q4 7 10 15zM976 -96q-27 -1 -54 -5l-639 3q-4 1 -7 1q-3 1 -5 1v-47q9 4 26 5l614 1q42 0 59 -4q1 0 6 -2v47zM370 652q-27 1 -55 3q-4 1 -7 2t-5 1v-48q3 3 40 6l542 1l56 -4q3 0 10 -3v48q-54 -6 -66 -6h-214q6 15 22 29
q-27 19 -54 39q-9 6 -16 11l-65 46q-6 -12 -18 -25q-9 -6 -12 -11l26 -16q85 -60 94 -67l6 -6h-284zM471 471q4 -66 5 -89q-4 -31 -5 -51q51 4 102 5l127 -1q15 0 44 -4q-6 60 -6 87l4 32q0 10 2 21q-31 -1 -64 -5l-164 1q-15 3 -45 4zM701 432v-64h-189v64h189zM870 562
q-33 -1 -67 -5l-402 1q-6 1 -13 2q-15 0 -32 2q1 -31 5 -64l-1 -210q-3 -12 -4 -50q51 4 90 5l376 -1l48 -4q-3 34 -5 69l1 209q0 18 4 46zM397 278v244h430v-244h-430zM770 -50q30 0 65 -5q-6 55 -5 86q0 106 2 119q0 19 3 39q-49 -4 -65 -5l-338 1q-19 3 -45 4
q4 -99 5 -102q0 -78 -2 -105q-3 -3 -3 -37q31 3 64 5h319zM792 -16h-363v69h363v-69zM430 87v61h362v-61h-362z" />
  </g>

</svg>
