<?xml version="1.0" standalone="no"?>
<!DOCTYPE svg PUBLIC "-//W3C//DTD SVG 1.1//EN" "http://www.w3.org/Graphics/SVG/1.1/DTD/svg11.dtd" >
<svg xmlns="http://www.w3.org/2000/svg" xmlns:xlink="http://www.w3.org/1999/xlink" version="1.1" viewBox="-10 0 1010 1000">
   <path fill="currentColor"
d="M391 -2q87 4 87 16q0 7 -7 16q-17 25 -27 68q80 0 127 -3q6 -1 10 -1q9 -1 8 6q-6 49 -6 121v156q74 -162 115 -375q103 17 96 30q0 2 -4 6q-31 33 -62 145h85q48 0 139 -6v71q-31 -4 -73 -4q-19 274 -85 413q57 81 170 155q-43 22 -79 69q-87 -84 -133 -158
q-56 93 -145 172q-55 -36 -95 -43q129 -66 200 -195q-60 -124 -61 -276q-11 27 -31 60q-2 3 -3 4l-71 -22q1 -1 4 -3q9 -5 21 -25q-47 -6 -105 -6h-55q-70 1 -129 8q-7 1 -6 -8q6 -79 6 -137v-43q0 -69 -4 -107q0 -9 6 -8h4q36 4 87 4q2 -13 7 -43q7 -38 9 -57zM147 44
q69 52 123 111l-60 60q-51 -64 -123 -115zM516 153h-167v70h167v-70zM808 242h-98q-1 1 -7 19q-16 48 -24 65l41 4q-26 98 28 250q48 -139 60 -338zM79 262q73 30 155 86l-49 69q-129 -90 -157 -95zM516 270h-169v64h169v-64zM462 403q6 32 12 62q12 0 34 -1q95 -1 97 -5v69
q-23 -4 -113 -4h-81q-3 -12 -6 58h41q57 0 127 -4q8 1 6 8q-2 16 -4 57q-5 114 -21 145q-19 35 -125 52q0 -45 -26 -84q24 8 54 6q29 -2 35 -12q17 -21 16 -113h-109q-30 157 -131 238q-33 -22 -81 -41q14 -9 34 -22q37 -21 61 -56q60 -72 65 -232q-74 0 -107 4v-67
q3 0 10 1q93 7 151 5q-9 -36 -20 -56zM149 469l75 41q-29 190 -71 377l-99 -53q61 -160 95 -365z" />
</svg>
