<?xml version="1.0" standalone="no"?>
<!DOCTYPE svg PUBLIC "-//W3C//DTD SVG 1.1//EN" "http://www.w3.org/Graphics/SVG/1.1/DTD/svg11.dtd" >
<svg xmlns="http://www.w3.org/2000/svg" xmlns:xlink="http://www.w3.org/1999/xlink" version="1.1" viewBox="-10 0 1010 1000">
   <path fill="currentColor"
d="M605 -2q105 25 99 30q0 2 -3 6q-27 31 -56 133h170q79 0 114 -8v81q-55 -9 -110 -9h-23v129h43q57 -3 80 -6v73q-24 -9 -82 -8h-41v127h37q63 -3 86 -6v72q-14 -4 -56 -5q-20 0 -26 -1h-41v131h43q79 0 105 -6v79q-37 -8 -99 -10h-214q0 37 1 55q1 22 5 46h-87
q8 -41 11 -147q1 -21 1 -31v-367q-20 62 -42 103q-19 -33 -36 -38v272q1 81 6 131h-83q8 -55 8 -84h-98q1 18 1 46q0 36 3 56h-83q1 -8 3 -28q9 -65 9 -141v-478q-2 -90 -8 -125q33 4 93 4h66q4 0 24 -1q39 -2 69 -3q-9 35 -10 121v176q93 -134 121 -369zM790 30q8 17 28 55
q15 28 23 44l-79 26q-6 -39 -42 -101zM123 38q57 48 119 107l-59 68q-72 -88 -120 -119zM417 137h-100v141h100v-141zM728 231h-95v129h95v-129zM83 250q3 2 9 7q87 64 124 99l-53 63q-55 -58 -135 -111zM317 338v141h100v-141h-100zM728 419h-95v127h95v-127zM121 481
l75 43q-62 215 -85 353q-25 -24 -82 -58q-3 -2 -5 -3q68 -122 97 -335zM417 538h-100v143h100v-143zM633 606v131h95v-131h-95z" />
</svg>
