<?xml version="1.0" standalone="no"?>
<!DOCTYPE svg PUBLIC "-//W3C//DTD SVG 1.1//EN" "http://www.w3.org/Graphics/SVG/1.1/DTD/svg11.dtd" >
<svg xmlns="http://www.w3.org/2000/svg" xmlns:xlink="http://www.w3.org/1999/xlink" version="1.1" viewBox="-10 0 1010 1000">
   <path fill="currentColor"
d="M609 -4q5 13 14 36q13 33 18 48h97q85 0 163 -6v71q-59 -6 -155 -6h-377v92h147l-46 -60l64 -20l39 80h78q6 -10 17 -29q20 -34 30 -53q7 2 20 5q65 16 62 21q0 7 -11 12q-28 13 -51 44h56h53q56 1 74 -2v59q-43 -4 -115 -4h-88v60h106q37 -1 61 -4q-6 30 -6 55v68
q31 0 70 -4v63q-23 -4 -70 -4v54q-1 51 4 71q-14 -5 -55 -4h-48q34 107 177 165q-40 30 -62 61q-93 -52 -177 -214v143q-1 84 8 105h-71q2 -12 3 -35q1 -11 1 -27v-45v-153h-76v143q0 64 6 115h-75q8 -35 10 -117v-111q-40 107 -139 216q-23 -25 -61 -41q112 -95 156 -203
h-20q-28 0 -45 4v-63q27 3 71 4h38v-70h-139q-14 204 -93 373q-38 -27 -84 -27q72 -100 93 -239q12 -72 15 -172q4 -98 0 -258q1 -81 -10 -121q43 8 103 8h173q0 -18 -32 -66zM141 48q39 20 129 93l-56 68q-68 -64 -127 -97zM504 284h-137v179h137v-62h-34q-25 0 -55 3
q-9 1 -14 1v-65q47 8 77 8h26v-64zM563 284v62h76v-62h-76zM75 280q69 33 167 89l-48 78q-105 -73 -160 -95zM798 397h-100v66h100v-66zM563 399v64h76v-64h-76zM147 487q9 6 25 16q26 16 52 31q-13 44 -66 257q-20 82 -25 100q-24 -18 -68 -46l-15 -9q86 -188 97 -349z
M563 516v70h76v-70h-76zM698 516v70h102v-70h-102z" />
</svg>
