<?xml version="1.0" standalone="no"?>
<!DOCTYPE svg PUBLIC "-//W3C//DTD SVG 1.1//EN" "http://www.w3.org/Graphics/SVG/1.1/DTD/svg11.dtd" >
<svg xmlns="http://www.w3.org/2000/svg" xmlns:xlink="http://www.w3.org/1999/xlink" version="1.1" viewBox="-10 0 1010 1000">
   <path fill="currentColor"
d="M391 -8q81 -4 99 10q-25 31 -24 80v75q53 0 96 -8v76q-46 -7 -96 -8v117q35 0 86 -6v73q-50 -8 -112 -8v234q42 -80 54 -166q70 17 79 26v-189q-1 -40 -6 -69q40 6 74 6h49l12 -112h-33q-60 0 -111 10v-83q68 10 111 10h152q47 0 112 -8v81q-62 -8 -108 -8h-51l-22 110
h83q26 0 78 -8q-6 31 -6 71v256q1 82 8 127h-88q7 -51 8 -125v-262h-190v260q1 73 10 121h-92q9 -51 10 -117v-62q-5 7 -19 41q-58 132 -116 200q-84 92 -188 156q-24 -37 -67 -63q114 -42 194 -123v-312h-79q-38 0 -88 6v-73q25 5 64 8v-159q0 -56 -6 -81q85 2 87 14
q-19 27 -22 69v157h66v-242q0 -70 -8 -102zM141 30q80 48 125 83l-54 64q-63 -54 -125 -85zM694 348q70 3 102 15q0 1 -6 9q-16 18 -16 27q-3 28 -6 90q-7 186 -38 240q-63 110 -198 174q-18 -24 -50 -48q-16 -11 -26 -19q108 -19 193 -107q58 -61 45 -381zM280 451
q24 4 75 18q4 1 6 2q-29 59 -65 202q-33 -12 -72 -18q48 -100 56 -204zM135 485q23 20 63 41q5 3 8 4q-59 218 -69 343q-30 -19 -82 -40q-5 -2 -7 -3q67 -178 87 -345zM798 693q7 3 73 64q62 56 91 81l-67 59q-48 -71 -153 -155zM159 423q-2 -2 -9 -7q-72 -54 -114 -74
l47 -64q54 31 123 78z" />
</svg>
