<?xml version="1.0" standalone="no"?>
<!DOCTYPE svg PUBLIC "-//W3C//DTD SVG 1.1//EN" "http://www.w3.org/Graphics/SVG/1.1/DTD/svg11.dtd" >
<svg xmlns="http://www.w3.org/2000/svg" xmlns:xlink="http://www.w3.org/1999/xlink" version="1.1" viewBox="-10 0 1010 1000">
   <path fill="currentColor"
d="M349 0q13 1 34 3q60 4 59 13q1 2 -2 7q-20 35 -21 122h33q1 -1 34 -3q47 -3 60 -5v76q-24 -9 -96 -8h-31v95h37q14 -1 38 -2q26 -2 50 -2q-8 33 -8 99v56q0 62 4 93q-24 -6 -86 -6h-35v234q1 74 6 129l-76 -2q5 -26 9 -104q1 -16 1 -23v-153q-43 86 -131 181
q-5 -2 -15 -8q-37 -21 -58 -24q119 -98 180 -230h-29q-43 2 -74 6q4 -21 4 -97v-58q0 -66 -4 -93q27 4 93 4h34v-95h-38q-49 0 -75 8v-74l77 6h36q3 -96 -10 -145zM683 0q104 27 103 32q0 1 -6 6q-32 29 -60 77h64q54 0 111 -7q-43 90 -103 174h35q42 0 86 -6q-6 29 -6 109
v193q0 92 4 121h-78q0 -30 6 -119v-240h-184v232q0 82 6 121h-78q7 -35 8 -121v-163q0 -64 -6 -95l-10 8q-25 -38 -45 -52q113 -118 153 -270zM119 26q27 19 127 103l-61 68q-33 -47 -123 -111zM780 179h-95q-11 15 -38 53q-21 28 -32 44q14 6 64 6h39q15 -17 49 -79
q10 -19 13 -24zM85 256q58 27 133 76l-49 67q-60 -47 -135 -81zM359 354h-63v129h63v-129zM419 354v129h57v-129h-57zM710 389q15 2 39 5q45 6 41 9q0 2 -6 9q-10 13 -10 21q5 232 -31 309q-26 78 -166 171q-29 -36 -69 -51q151 -76 179 -156q20 -45 25 -117q5 -68 -2 -200z
M131 471l71 47q-28 110 -85 373q-34 -25 -89 -57q70 -139 103 -363zM815 721q60 50 135 137l-75 53q-46 -86 -121 -151zM433 613l47 -37q32 36 68 91l-56 44q-17 -38 -59 -98z" />
</svg>
