<?xml version="1.0" standalone="no"?>
<!DOCTYPE svg PUBLIC "-//W3C//DTD SVG 1.1//EN" "http://www.w3.org/Graphics/SVG/1.1/DTD/svg11.dtd" >
<svg xmlns="http://www.w3.org/2000/svg" xmlns:xlink="http://www.w3.org/1999/xlink" version="1.1" viewBox="-10 0 1034 1024">
  <g transform="matrix(1 0 0 -1 0 820)">
   <path fill="currentColor"
d="M64 457l64 -55l47 -43q9 -7 18 -17q3 4 6 7q4 6 11 12q1 0 3 3q3 3 7 8l-6 8l-122 116q-15 -19 -28 -39zM191 86l24 85l25 89q-12 12 -34 45q-18 -114 -67 -262q-27 -87 -47 -110q36 -13 51 -23l18 79zM104 715q54 -48 99 -91q13 -13 28 -29q12 16 18 23q3 3 7 8
q-9 12 -24 26l-94 94q-18 -15 -34 -31zM378 131l18 28l-1 -272q-1 -9 -2 -22q0 -3 -2 -13h47q-3 33 -5 67v244q39 -34 77 -72q15 -16 33 -34q1 0 3 3q3 3 4 7q6 7 10 12q1 1 3 4l6 6q-124 114 -136 125v17q66 0 81 -2q19 0 40 -3q-4 54 -5 83l1 119q0 22 4 50q-55 -4 -93 -5
h-28v115q78 0 117 -3q3 0 11 -3v47q-31 -1 -63 -5h-65v86q0 15 3 31q3 19 18 37h-63q1 -33 5 -68v-86l-122 3q-3 1 -6 1q-3 1 -5 1v-47q6 3 11 3q24 3 54 3h68v-115q-78 0 -111 4q-4 1 -8 1q1 -33 5 -66l-1 -139q-3 -15 -4 -47q51 4 104 5h10q-30 -64 -81 -141
q-60 -84 -104 -110q12 -4 22 -12q10 -6 28 -19l31 40l51 76zM318 267v170h78v-170h-78zM433 267v170h79v-170h-79zM725 383q3 -24 4 -75q-1 -67 -8 -150q-7 -90 -39 -134q-25 -39 -88 -79q-31 -18 -95 -38q13 -12 21 -21q6 -7 16 -22l62 39q90 58 127 126q16 33 24 66
q6 33 11 109l6 102q0 7 2 24q1 24 13 45q-30 1 -56 8zM802 631q-27 -78 -56 -144q-75 0 -101 2q-1 0 -39 4q4 -49 5 -88l-1 -317q-1 -18 -4 -28h47q-1 12 -3 26q0 21 -2 41v323h199l-1 -359q-3 -19 -4 -28h47q-4 27 -5 67l1 315q0 19 4 48q-60 -6 -94 -6h-10l30 79l43 106
q-21 -1 -34 -2q-24 -3 -36 -3h-105q4 13 10 25q19 48 25 55q6 10 26 25q-13 3 -27 9q-18 4 -36 12q-4 -45 -34 -120q-27 -75 -60 -123q-24 -34 -46 -53q21 -3 52 -14q45 79 77 148h132zM924 -120q0 3 27 28q-18 16 -34 32l-130 115q0 -1 -3 -4q-7 -9 -15 -20q-3 -3 -9 -8
q40 -33 80 -69q39 -36 80 -79q1 3 4 5v0z" />
  </g>

</svg>
