<?xml version="1.0" standalone="no"?>
<!DOCTYPE svg PUBLIC "-//W3C//DTD SVG 1.1//EN" "http://www.w3.org/Graphics/SVG/1.1/DTD/svg11.dtd" >
<svg xmlns="http://www.w3.org/2000/svg" xmlns:xlink="http://www.w3.org/1999/xlink" version="1.1" viewBox="-10 0 1034 1024">
  <g transform="matrix(1 0 0 -1 0 820)">
   <path fill="currentColor"
d="M57 448q79 -42 144 -93q9 16 24 37l-146 93q-6 -12 -10 -18q0 -3 -3 -7zM90 -73q27 -16 46 -31q6 42 19 81l63 199l33 90q-15 12 -42 47q-7 -46 -17 -84l-35 -113q-13 -48 -26 -82q-9 -28 -18 -49q-12 -31 -28 -55q1 -1 5 -3zM124 704q75 -54 127 -101q3 -1 7 -6
q24 33 27 35q-15 15 -32 28l-103 79q-15 -19 -16 -25q-6 -4 -10 -10zM457 392h76q18 0 50 -3q6 0 15 -3v47q-6 0 -15 -3l-100 -2h-8v150q67 0 84 -2q6 0 14 -2l9 -3v48q-6 0 -16 -3q-37 0 -75 -3h-16v90q0 21 4 34q3 18 18 34h-65q1 -6 3 -12q0 -30 2 -56v-275h-70v189
q0 9 4 29q3 21 17 38h-63q3 -6 3 -15q0 -25 3 -52v-189q-48 3 -63 3l-8 2v-47q4 3 53 6h106v-349q-40 -48 -80 -79q-55 -36 -110 -56q21 -13 45 -41q45 30 80 57q30 25 64 58q87 88 140 221q21 48 27 58q6 12 23 23q-19 6 -54 23q-3 1 -4 2q-28 -138 -93 -219v302zM326 322
q-6 -39 -19 -82q-30 -85 -52 -128q28 -3 45 -10q25 66 47 132q9 31 13 35q7 16 28 33q-4 0 -62 20zM543 -140q60 42 110 82q102 87 121 184q4 25 9 66q3 39 4 67v82q0 15 3 31q3 19 18 37h-64q3 -15 4 -35l-1 -169l-14 -87q-13 -45 -51 -92q-48 -57 -117 -96
q-28 -15 -65 -27q13 -10 33 -32q4 -4 10 -11zM879 678q19 0 51 -3q4 0 16 -3v47q-33 -1 -67 -5l-248 1q-9 1 -27 2q-3 1 -6 1q-3 1 -6 1v-47q15 4 37 5l114 1q-9 -72 -23 -146q-72 6 -94 6q1 -33 5 -66l-1 -348q-3 -24 -4 -35h47q-4 19 -5 45v363h195l-1 -384q-3 -6 -6 -20
h52q-6 19 -6 69l1 327q1 24 5 49q-19 -1 -37 -2q-25 -3 -38 -4h-73q6 45 11 77q6 28 13 69h95zM954 -91q3 6 7 10q-70 73 -132 131l-16 16q-9 -15 -26 -34q21 -16 71 -67q48 -48 73 -79q9 12 23 23v0z" />
  </g>

</svg>
