<?xml version="1.0" standalone="no"?>
<!DOCTYPE svg PUBLIC "-//W3C//DTD SVG 1.1//EN" "http://www.w3.org/Graphics/SVG/1.1/DTD/svg11.dtd" >
<svg xmlns="http://www.w3.org/2000/svg" xmlns:xlink="http://www.w3.org/1999/xlink" version="1.1" viewBox="-10 0 1010 1000">
   <path fill="currentColor"
d="M520 -19l93 9q-13 15 -38 66h167q84 0 109 -8q-5 35 -4 101v117q0 78 6 103q-32 -5 -135 -7h-246q-101 0 -125 7q5 -16 8 -103v-101q-1 -73 -8 -117q30 7 123 8h36q2 -15 8 -45q4 -21 6 -30zM153 30q21 12 69 40q56 33 88 51l-52 74q-100 -72 -157 -97zM431 104v45h341
v-45h-341zM772 185h-341v48h341v-48zM83 242q87 32 177 86l-48 81q-47 -39 -170 -89zM772 268h-341v46h341v-46zM294 393q60 7 121 8h325q121 -1 155 -8q-7 49 -8 101v62q0 62 8 97q-51 -9 -111 -10h-371q-75 1 -119 10q8 -49 8 -95v-79q-1 -52 -8 -86zM558 453h-181v43h181
v-43zM812 453h-183v43h183v-43zM149 477q30 19 81 45q-39 120 -85 367q-47 -35 -91 -53q58 -133 95 -359zM558 544h-181v48h181v-48zM812 544h-183v48h183v-48zM242 677q29 7 149 8h387q129 0 164 -8v75q-42 -7 -158 -8h-18v46q0 93 8 111h-91q7 -45 7 -109v-48h-160
q2 132 -195 173q-20 -38 -65 -75q182 -4 180 -98h-51q-113 2 -157 8v-75z" />
</svg>
