<?xml version="1.0" standalone="no"?>
<!DOCTYPE svg PUBLIC "-//W3C//DTD SVG 1.1//EN" "http://www.w3.org/Graphics/SVG/1.1/DTD/svg11.dtd" >
<svg xmlns="http://www.w3.org/2000/svg" xmlns:xlink="http://www.w3.org/1999/xlink" version="1.1" viewBox="-10 0 1010 1000">
   <path fill="currentColor"
d="M681 4h30q57 -1 53 4q0 5 -4 12q-10 20 -10 54v135h77q54 0 92 -6v71q-44 -6 -98 -6h-79q5 2 14 6q59 23 56 28q0 3 -8 9q-33 20 -52 64h58q52 0 77 -8v66q-20 -4 -74 -4h-113q-1 7 -1 30t-1 33h78q56 0 93 -5v67q-42 -6 -91 -6h-82q-2 18 -4 48q-1 19 -2 25h133
q54 0 92 -6v68q-42 -6 -90 -6h-87q58 104 204 123q-35 32 -47 79q-153 -39 -220 -198q-38 132 -195 228q-23 -40 -71 -61q152 -52 196 -171h-87q-42 0 -91 6v-66q27 4 87 4h105q1 -7 2 -22q4 -40 4 -51h-75q-49 0 -78 4v-64q27 3 72 4h83q0 -10 1 -32t1 -31h-109
q-55 0 -83 4v-64q25 3 85 4h38q-33 -48 -58 -67l61 -38h-67q-40 0 -56 1q-20 1 -33 3v-67q8 4 77 4h74v-129q0 -49 -10 -74h25q64 -2 60 6q0 4 -3 10q-9 15 -9 44v143h66v-149q-3 -40 -6 -56zM339 8q11 2 32 7q71 13 67 21q1 3 -6 11q-16 21 -23 47q-2 8 -11 34
q-14 43 -21 65v524q0 113 6 190h-75q5 -35 5 -194v-351q-16 46 -48 110q-15 29 -23 46l-6 -6q-29 -31 -59 -49q120 -161 162 -455zM143 38q95 57 135 93l-54 68q-65 -62 -131 -99zM831 48q86 26 76 36q0 1 -3 2q-17 2 -27 22q-13 24 -48 75q-26 -18 -53 -26q34 -47 55 -109z
M492 74q36 49 54 85l-66 30q-22 -48 -53 -89zM63 266q91 42 141 84l-43 67q-55 -43 -133 -83zM569 268q39 51 52 82l-38 23h107q33 -70 34 -105h-155zM149 498q43 32 79 38q-33 134 -65 355q-37 -25 -79 -39q-7 -3 -11 -4q65 -164 76 -350z" />
</svg>
