<?xml version="1.0" standalone="no"?>
<!DOCTYPE svg PUBLIC "-//W3C//DTD SVG 1.1//EN" "http://www.w3.org/Graphics/SVG/1.1/DTD/svg11.dtd" >
<svg xmlns="http://www.w3.org/2000/svg" xmlns:xlink="http://www.w3.org/1999/xlink" version="1.1" viewBox="-10 0 1034 1024">
  <g transform="matrix(1 0 0 -1 0 820)">
   <path fill="currentColor"
d="M227 366q-25 21 -56 44l-94 70q-12 -25 -25 -41q9 -4 67 -43l71 -60l10 -10q1 1 3 5q1 1 3 4q15 25 21 31zM260 234q-21 18 -40 41q-3 -21 -8 -40q-4 -21 -16 -53q-30 -91 -67 -178l-25 -55q-12 -18 -20 -28q1 -3 14 -16q9 -6 25 -27q1 -1 4 -7q1 7 11 35l41 113
q52 151 56 156zM281 571q15 25 26 32q0 1 2 2l-59 51l-99 78q-4 -7 -11 -17q-6 -9 -19 -21q13 -7 39 -26q19 -15 41 -31q48 -40 77 -71zM359 -95q0 -30 -2 -53q0 -6 -3 -14h49q-4 18 -5 69l1 646q3 10 7 19q36 115 44 132q10 25 30 45q-13 3 -25 6l-39 16q-3 -31 -10 -59
q-6 -27 -14 -54q-42 -139 -96 -241q-30 -57 -69 -95q36 -3 61 -12q36 67 64 127q3 6 7 17v-549zM702 45q27 -40 51 -70q24 -27 56 -54q55 -45 117 -77q6 12 15 20l29 29q-76 12 -143 67q-51 42 -97 114l184 -1q12 0 30 -5v47q-33 -1 -66 -5h-177q6 66 12 93q144 0 158 -2
q7 0 20 -4v47q-33 -1 -65 -5h-112l2 88h137q24 0 53 -3q4 0 13 -3v47q-15 -3 -29 -3q-24 -1 -117 -2q24 36 43 57q15 15 36 28q-22 9 -53 30l-41 -69q-18 -28 -32 -46h-61l-78 111q-12 -12 -38 -29q24 -24 37 -43l27 -39l-130 4q-1 0 -5 1v-46q19 4 49 5h150l-1 -88l-171 4
q-1 0 -5 1v-47q6 3 13 3q21 0 53 3h107q0 -21 -10 -82q-1 -4 -3 -11q-198 3 -206 5v-46q6 0 13 3l148 2h35q-28 -72 -93 -127q-48 -39 -118 -57q27 -21 46 -42q82 51 130 100q45 49 73 116q6 -9 14 -19zM585 578l12 9q-6 6 -53 71l-32 38q-18 -18 -33 -28q39 -37 85 -108
q3 4 12 11q4 4 9 7zM599 768q0 -3 1 -6q0 -1 1 -3l3 -116v-116l-153 4q-3 0 -6 1v-46q19 4 50 5q426 0 438 -2q3 0 24 -4v46l-90 -4h-94v181q0 39 22 68h-66q6 -30 6 -68v-182h-94v174q0 10 2 27q3 21 19 41h-63zM817 561q46 66 62 80q15 16 44 26q-7 3 -35 25q-9 9 -19 16
q-16 -30 -35 -57q-21 -27 -54 -66q15 -7 25 -16q6 -3 12 -8v0z" />
  </g>

</svg>
