<?xml version="1.0" standalone="no"?>
<!DOCTYPE svg PUBLIC "-//W3C//DTD SVG 1.1//EN" "http://www.w3.org/Graphics/SVG/1.1/DTD/svg11.dtd" >
<svg xmlns="http://www.w3.org/2000/svg" xmlns:xlink="http://www.w3.org/1999/xlink" version="1.1" viewBox="-10 0 1010 1000">
   <path fill="currentColor"
d="M143 12q86 49 151 103l-62 76q-65 -67 -145 -111zM335 16q37 5 82 6h363q35 0 83 -6q-6 36 -6 70v129q0 30 6 69q-52 -6 -75 -6h-62v56h56q43 0 93 -8v69q-42 -5 -95 -6h-54v60h89q34 -1 100 -8v71q-63 -10 -96 -10h-101q90 99 244 106q-36 35 -51 79q-189 -60 -266 -185
h-109q-85 116 -262 191q-18 -31 -62 -58q149 -34 242 -133h-93q-59 0 -99 10v-73q41 9 97 10h97v-62h-49q-58 0 -99 6v-67q66 8 99 8h49v-58h-49q-27 0 -72 6q5 -30 6 -67v-129q-1 -35 -6 -70zM413 76v47h373v-47h-373zM413 177v48h373v-48h-373zM85 250q80 35 157 86
l-52 79q-56 -49 -156 -97zM524 278v56h137v-56h-137zM524 387v62h137v-62h-137zM151 483q34 34 71 41q-65 223 -87 343q-39 -20 -95 -47q71 -113 111 -337zM558 546q86 5 87 10q-16 27 -16 117q4 2 12 5q20 9 36 17q35 -36 53 -78q44 28 58 38q5 4 4 9q-2 5 -8 5
q-9 0 -18 10q-18 21 -40 42q80 38 159 85l-48 56q-99 -76 -206 -129v113q1 34 -26 45q-24 11 -105 12q-2 -53 -26 -83q94 21 89 -14v-64q-143 60 -234 108q-8 -36 -35 -72q133 -26 269 -97v-71q0 -47 -5 -64zM456 719q-23 -36 -65 -66l46 -38q39 31 67 64z" />
</svg>
