<?xml version="1.0" standalone="no"?>
<!DOCTYPE svg PUBLIC "-//W3C//DTD SVG 1.1//EN" "http://www.w3.org/Graphics/SVG/1.1/DTD/svg11.dtd" >
<svg xmlns="http://www.w3.org/2000/svg" xmlns:xlink="http://www.w3.org/1999/xlink" version="1.1" viewBox="-10 0 1010 1000">
   <path fill="currentColor"
d="M621 -8q5 40 12 82h171q54 0 121 -10v71q-37 -8 -117 -8h-417v44h349q73 0 133 -8v70q-53 -9 -131 -8h-280q-111 0 -147 6q8 -36 8 -74v-32q-34 -3 -61 4v-65q70 10 163 10h129q-2 -25 -26 -78zM83 246q84 44 149 96l-53 73q-69 -65 -145 -107zM317 254q58 8 149 8h234
q78 0 129 -8q-6 27 -6 70v34q0 48 4 71q-29 -9 -142 -8h-207q-113 -1 -161 8q4 -30 4 -67v-40q0 -42 -4 -68zM391 314v55h363v-55h-363zM530 437q10 2 28 5q44 8 43 11q0 3 -3 6q-12 14 -21 47q73 0 106 -6q-26 125 -68 223q33 22 46 35l-48 50q-12 -21 -28 -36
q-24 33 -77 81l-10 10q-33 -33 -50 -41q4 59 -101 71q-4 -39 -32 -71q77 14 74 -36v-61h-79q-28 95 -72 162q-2 -1 -6 -4q-39 -28 -63 -33q83 -76 91 -248q2 -106 -3 -133q-1 -3 -1 -4q27 3 83 4h34q63 0 81 -6v3q-6 29 -6 86v256q54 -26 92 -75q-20 -21 -80 -56
q22 -41 46 -117q-36 0 -52 6v-64q31 4 64 4q8 -24 12 -69zM139 459l75 45q-24 96 -54 225q-12 51 -15 63q-8 29 -13 65q-3 17 -5 18q-3 1 -21 -13q-37 -28 -64 -42q69 -126 97 -361zM685 467q23 6 87 6h28q52 0 85 -4q-6 27 -6 105l-6 214q-3 30 18 30q16 -1 21 -13
q6 -9 9 -47q14 14 49 33q11 6 16 9q-20 52 -39 70q-21 19 -56 19q-94 4 -85 -59l6 -143l-24 30q-17 -35 -44 -54q-16 167 -83 244q-39 -20 -80 -32q108 -69 109 -271q6 -98 -5 -137zM323 516v64h68v-64h-68zM752 526q0 21 -1 61q-1 19 -1 23q20 11 54 33q5 4 8 6l5 -123h-65
zM611 558h-48q-18 64 -35 103l39 28q29 -63 44 -131zM389 623h-68q0 9 -2 36q-1 12 -2 18h72v-54zM260 143l-58 58q-64 -75 -125 -103l54 -58q69 46 129 103z" />
</svg>
