<?xml version="1.0" standalone="no"?>
<!DOCTYPE svg PUBLIC "-//W3C//DTD SVG 1.1//EN" "http://www.w3.org/Graphics/SVG/1.1/DTD/svg11.dtd" >
<svg xmlns="http://www.w3.org/2000/svg" xmlns:xlink="http://www.w3.org/1999/xlink" version="1.1" viewBox="-10 0 1034 1024">
  <g transform="matrix(1 0 0 -1 0 820)">
   <path fill="currentColor"
d="M212 360q7 12 12 16q-117 87 -120 91q-6 3 -20 13l-23 -35q55 -39 89 -65q25 -18 45 -40q7 9 17 20zM72 -92q9 -3 19 -8q7 -4 14 -9l69 140q90 187 95 195q6 10 14 24q-22 21 -40 44q-12 -46 -26 -86q-16 -40 -46 -99l-41 -82q-15 -30 -30 -54q-25 -40 -45 -57
q7 -3 17 -8zM297 603l2 3q3 6 9 10l-114 93l-20 16q-13 -21 -26 -34q24 -18 60 -48q37 -31 72 -62l2 3q1 1 3 5zM542 -20v-76l-223 1l-39 4v-46q15 3 40 4l575 1q33 -1 66 -5v46q-43 -4 -78 -5h-163v78l122 -1q27 0 40 -4l2 -1v47q-43 -4 -79 -5h-85v80l142 -1l25 -4v46
q-51 -4 -80 -5h-87v70l161 -1q27 0 34 -3q3 0 9 -2v47l-36 -4l-168 -1q0 30 5 56h-48q1 -27 5 -56v-336h-103v333q0 30 5 57h-48q3 -6 6 -57l-144 1q-13 1 -28 2q-9 1 -17 3v-47q15 3 36 4l153 1v-70q-135 0 -147 3q-7 1 -16 3v-47q3 3 54 6h109v-80l-162 5v-46q6 0 13 3
l111 2h38zM415 518h173q-42 -78 -93 -125l-75 72q0 -1 -3 -3l-5 -5q-10 -12 -16 -16q-3 -1 -6 -4q51 -39 75 -69q-79 -51 -161 -66l37 -38q127 54 190 115q81 81 113 179q-76 -4 -117 -5h-3v82q81 0 94 -2q6 0 19 -4v47q-54 -4 -85 -5h-28v25q0 45 22 69h-66q0 -6 5 -59
q-1 -4 0 -10v-143h-79q12 31 34 57q-22 3 -54 13q-10 -55 -39 -111q-36 -66 -62 -91q27 -3 50 -16q42 79 48 96q6 13 8 17h24zM729 701q-57 3 -66 5v-46q12 1 25 3l80 2h109q-6 -24 -34 -82q-24 -54 -57 -100q-46 69 -57 128q-18 -9 -44 -13q6 -12 10 -21q4 -10 10 -21
q21 -52 54 -102q-22 -30 -75 -73q-39 -31 -93 -52q34 -21 47 -34q3 1 5 4q3 1 5 3l104 90q1 3 5 5l26 26q15 -21 61 -65q42 -39 82 -72q13 18 38 37q-42 21 -79 51q-54 48 -78 78q75 106 124 254q-36 -1 -73 -5h-129z" />
  </g>

</svg>
