<?xml version="1.0" standalone="no"?>
<!DOCTYPE svg PUBLIC "-//W3C//DTD SVG 1.1//EN" "http://www.w3.org/Graphics/SVG/1.1/DTD/svg11.dtd" >
<svg xmlns="http://www.w3.org/2000/svg" xmlns:xlink="http://www.w3.org/1999/xlink" version="1.1" viewBox="-10 0 1010 1000">
   <path fill="currentColor"
d="M542 -6q88 4 89 8q1 1 -3 9q-14 21 -15 41v101h107q64 0 100 -1q40 -2 73 -5v64q-25 -2 -64 -3q-19 -1 -44 -1h-71q77 69 244 81q-31 26 -45 72q-20 -3 -80 -18q-8 33 -8 123q0 56 6 103q-15 -2 -41 -3q-12 -1 -29 -1h-47v48q124 0 153 -4v59q-30 -4 -153 -4v56
q157 0 185 -6v65q-21 -6 -165 -6q78 32 159 70l-56 61q-101 -66 -202 -97l34 -34h-195q59 44 56 54q-2 3 -18 3q-27 1 -38 7q-28 15 -93 45q-44 20 -69 32q-19 -34 -64 -59q92 -13 194 -82q-174 0 -198 6v-63q29 5 204 6v-54q-79 0 -108 1q-35 1 -54 3v-61q21 3 57 4
q18 1 41 1h64v-49q-77 0 -119 4q6 -36 6 -119q0 -72 -4 -97l-8 4q-25 12 -37 13q-14 -31 -60 -61q110 -22 224 -101q-86 0 -146 8v-68q25 2 54 3q14 1 31 1h44h113v-93q0 -50 -4 -66zM736 8q3 1 8 3q79 31 71 35q-1 3 -8 5q-13 5 -21 13q-15 15 -38 45q-13 19 -22 30
q-34 -25 -61 -27q46 -44 71 -104zM147 36q60 34 141 99l-54 58q-94 -82 -139 -101zM651 211h-38q0 63 4 95h-77q5 -25 6 -89q-100 74 -155 101h6q22 2 41 2h306q22 -1 28 -4q-78 -37 -121 -105zM85 242q111 73 143 104l-53 65q-75 -72 -141 -107zM764 375h-151v38h151v-38z
M548 375h-149v40h149v-40zM165 465q36 29 73 43q-51 142 -93 355q-26 -24 -85 -53q84 -200 105 -345zM548 467h-149v43h149v-43zM762 465h-149v45h151zM647 566h-131v47h131v-47zM647 665h-131v56h131v-56zM351 52l60 -40q11 12 33 35q49 51 56 63l-54 35q-32 -39 -95 -93z
" />
</svg>
