<?xml version="1.0" standalone="no"?>
<!DOCTYPE svg PUBLIC "-//W3C//DTD SVG 1.1//EN" "http://www.w3.org/Graphics/SVG/1.1/DTD/svg11.dtd" >
<svg xmlns="http://www.w3.org/2000/svg" xmlns:xlink="http://www.w3.org/1999/xlink" version="1.1" viewBox="-10 0 1034 1024">
  <g transform="matrix(1 0 0 -1 0 820)">
   <path fill="currentColor"
d="M75 442q85 -48 144 -95q13 25 23 35q-36 27 -107 75l-35 21q-9 -16 -25 -36zM176 -149q3 36 10 58q1 9 9 30q9 27 14 52l64 229q-15 21 -29 42q-9 -43 -22 -84l-39 -138q-10 -39 -22 -72q-19 -57 -36 -75q6 -4 51 -42zM198 641q15 -10 29 -22l50 -46q12 13 27 33
q-9 9 -107 93q-3 1 -9 6q-6 4 -10 8q-10 -15 -28 -32q13 -9 20 -16q13 -12 28 -24zM379 -107q-3 -55 -6 -67h49q-6 58 -5 79q504 0 513 -3q6 0 11 -2v44l-67 -6h-223v89q202 0 212 -3q6 0 11 -2v44q-66 -6 -99 -6h-124v82q198 0 211 -3q6 0 11 -2v44q-15 -3 -32 -4l-190 -2
v86q226 0 236 -3q6 0 11 -2v44q-13 -3 -18 -3l-101 -3h-341q21 42 29 50q9 10 28 16q-28 16 -57 36q-10 -48 -62 -151q-33 -63 -58 -95q-24 -31 -55 -57l54 -18q39 63 62 101v-283zM417 60v82h196v-82h-196zM613 261v-86h-196v77q1 4 5 9h191zM417 -62v89h196v-89h-196z
M581 388q54 -45 92 -92q10 15 27 27q-48 52 -92 93q-16 -21 -27 -28zM486 673q-129 0 -152 2q-3 1 -25 4v-46q27 4 63 5h114q-3 -31 -4 -48q0 -3 -2 -8h49l-4 46q-1 6 -1 10h167q-3 -31 -4 -48q0 -3 -2 -8h49l-4 42q0 6 -1 14q184 0 194 -3q6 0 11 -2v46q-13 -3 -17 -3
q-42 -3 -49 -3h-139v38q0 34 13 71h-57q0 -9 3 -15l3 -94h-167v28q0 33 13 69h-57q3 -54 6 -69v-28zM344 400q54 4 109 5q61 0 77 -2q18 0 39 -3q-6 60 -5 100q0 28 5 64q-34 -1 -69 -5l-107 1q-19 3 -49 4q1 -33 5 -66l-4 -76q-1 -10 -1 -22zM385 526h143v-88h-143v88z
M808 406q34 -1 70 -5q-4 24 -5 65q0 36 3 74q0 15 2 25q-34 -1 -70 -5q-96 0 -124 2q-6 3 -40 3q4 -78 5 -105q-4 -30 -5 -59q54 4 113 5h51zM685 527h151v-88h-151v88z" />
  </g>

</svg>
