<?xml version="1.0" standalone="no"?>
<!DOCTYPE svg PUBLIC "-//W3C//DTD SVG 1.1//EN" "http://www.w3.org/Graphics/SVG/1.1/DTD/svg11.dtd" >
<svg xmlns="http://www.w3.org/2000/svg" xmlns:xlink="http://www.w3.org/1999/xlink" version="1.1" viewBox="-10 0 1010 1000">
   <path fill="currentColor"
d="M119 10q69 51 135 109l-54 68q-30 -47 -129 -117zM923 28v80q-30 -7 -125 -8h-20l-28 115h52q55 -1 101 -8q-7 31 -8 85v240q1 13 1 42q2 87 7 99h-82q8 -47 10 -143v-252h-164v258q1 106 6 139h-78q7 -46 8 -135v-240q-4 -74 -8 -93q42 7 93 8q9 -27 24 -115h-22
q-78 0 -113 8v-80q17 8 108 8h109q96 0 129 -8zM482 94h-157v57h157v-57zM482 203h-157v51h157v-51zM65 250q75 48 143 106l-51 65q-59 -61 -139 -107q15 -19 47 -64zM710 326q11 0 33 -1q52 -2 51 5q1 2 -2 7q-10 22 -10 64q0 151 -6 211q-7 68 -26 111q-44 88 -153 178
q-28 -38 -77 -59q162 -77 186 -191q11 -59 13 -106q2 -45 -1 -142q0 -25 -8 -77zM143 461q27 23 69 47q-38 116 -83 278q-17 61 -24 85q-6 -6 -42 -36q-23 -17 -37 -29q85 -171 117 -345zM256 463q33 7 97 8h99q54 -1 104 -8q-8 29 -8 89v8q0 63 8 87q-18 -6 -76 -8h-40v175
q1 28 -20 38q-21 12 -91 21q-5 -39 -23 -87q76 18 71 -16v-131h-42q-45 1 -79 8q7 -31 8 -81v-22q-3 -58 -8 -81zM327 522v62h157v-62h-157zM510 647q26 23 93 109l-57 38q-31 -53 -86 -117zM284 657q42 11 71 26q-14 9 -40 42q-19 27 -63 85q-10 15 -16 22q-26 -23 -59 -40
q67 -59 107 -135zM819 687q80 80 135 149l-61 51q-77 -108 -131 -158zM262 119q-1 -49 -8 -87q25 6 87 6h117q47 -1 96 -8q-8 32 -8 78v136q3 61 8 74q-32 -7 -84 -8h-41q12 39 25 57h20q76 0 101 -7v75q-21 -8 -105 -8h-121q-92 1 -119 8v-73q22 5 131 5h20
q-18 -31 -30 -45l62 -12h-68q-49 1 -91 8q8 -29 8 -83v-116z" />
</svg>
