<?xml version="1.0" standalone="no"?>
<!DOCTYPE svg PUBLIC "-//W3C//DTD SVG 1.1//EN" "http://www.w3.org/Graphics/SVG/1.1/DTD/svg11.dtd" >
<svg xmlns="http://www.w3.org/2000/svg" xmlns:xlink="http://www.w3.org/1999/xlink" version="1.1" viewBox="-10 0 1034 1024">
  <g transform="matrix(1 0 0 -1 0 820)">
   <path fill="currentColor"
d="M38 462q84 -42 153 -105q15 27 28 39q-81 57 -155 104q-13 -24 -26 -38zM142 -109l55 203l51 158q-16 12 -38 39q-9 -49 -26 -109q-16 -63 -39 -131q-16 -52 -28 -80q-9 -19 -20 -38q6 -3 45 -42zM108 713q99 -63 148 -116q18 27 29 35q-24 21 -70 56q-58 45 -78 61
q-9 -15 -29 -36zM426 9h-120q-34 0 -53 3q1 0 -14 2v-41q15 3 31 5l156 1l-3 -110l-1 -2q0 -6 -2 -13h45q-4 24 -5 70v55q120 0 136 -2q6 0 22 -4v41q-9 0 -15 -3q-21 0 -51 -2h-92v59q85 0 101 -2q9 0 18 -2q6 0 22 -2q-6 55 -5 81q1 27 5 53q-33 -1 -65 -5h-76v45l104 -5
q-4 39 -5 67v15q30 0 61 -6v41q-9 -3 -61 -5q0 27 11 45h-51q3 -24 3 -46h-155q0 27 12 43h-48q1 -4 4 -43q-60 6 -67 6v-41q4 3 26 4q21 0 41 2q-3 -40 -5 -82q49 4 79 5h17v-45q-79 0 -105 2q-18 1 -36 3q6 -48 7 -67q0 -18 -5 -60q-1 -3 -2 -7q60 6 82 6h59v-59zM426 162
v-66h-104v66h104zM367 265v48h155v-48h-155zM460 97v66h102v-66h-102zM307 602q1 -27 2 -90q-3 -58 -6 -70h48q-3 27 -4 70v80h237l-1 -136q-3 -24 -4 -52h49q-3 18 -5 36l-1 152h253l-2 -132q-1 -3 -2 -7q-1 -3 -1 -8h49l-6 88l5 100q-33 -1 -67 -5h-229v53l215 -1
q1 0 33 -5v47q-15 -3 -29 -4l-505 3q-1 1 -3 1v-46q24 4 67 5h184v-53l-235 1q-15 3 -45 4zM399 494q48 3 80 4q30 0 58 -4v40q-30 -3 -55 -4h-37q-24 0 -46 4v-40zM858 59v-118q0 -18 -10 -28q-15 -7 -38 -8q-12 0 -37 4q1 -3 17 -41l2 -6q54 4 83 21q21 12 21 47v358
q0 9 3 31l3 34q-66 -4 -105 -5q-55 0 -80 2q-6 3 -42 3q1 -31 5 -65l-1 -154q-3 -52 -11 -94q-10 -55 -50 -114q-18 -24 -43 -43q21 -4 51 -18q67 96 83 194h149zM713 90l3 104h142v-104h-145zM858 226h-142v91h142v-91zM399 413q18 3 46 4h36q22 0 55 -4v41q-30 -4 -55 -5
h-36q-18 0 -46 5v-41zM683 415l39 4q76 0 91 -2q6 0 14 -2v40q-31 -3 -80 -3q-21 0 -64 3v-40zM681 496q18 3 46 4h44q22 0 55 -4v40q-30 -3 -55 -4h-44q-24 0 -46 4v-40z" />
  </g>

</svg>
