<?xml version="1.0" standalone="no"?>
<!DOCTYPE svg PUBLIC "-//W3C//DTD SVG 1.1//EN" "http://www.w3.org/Graphics/SVG/1.1/DTD/svg11.dtd" >
<svg xmlns="http://www.w3.org/2000/svg" xmlns:xlink="http://www.w3.org/1999/xlink" version="1.1" viewBox="-10 0 1010 1000">
   <path fill="currentColor"
d="M946 794l-85 56q-80 -147 -165 -231l80 -39q82 93 170 214zM181 600q94 31 91 41q-1 2 -5 4q-22 10 -39 40q-16 27 -49 91q-39 74 -54 97q-38 -27 -81 -35q92 -113 137 -238zM685 804l-88 28q-19 -116 -75 -203l77 -23q54 104 86 198zM470 834l-87 22q-6 -101 -54 -219
l82 -16q23 100 59 213z" />
</svg>
