<?xml version="1.0" standalone="no"?>
<!DOCTYPE svg PUBLIC "-//W3C//DTD SVG 1.1//EN" "http://www.w3.org/Graphics/SVG/1.1/DTD/svg11.dtd" >
<svg xmlns="http://www.w3.org/2000/svg" xmlns:xlink="http://www.w3.org/1999/xlink" version="1.1" viewBox="-10 0 1010 1000">
   <path fill="currentColor"
d="M369 -13q60 14 95 29q8 3 7 9t-9 9q-19 5 -29 20q-22 29 -46 56h246q87 0 129 -6q-68 95 -151 166q178 72 327 157q-41 33 -73 83q-100 -90 -313 -192q-152 111 -433 180q-15 -44 -61 -87q336 -23 541 -232h-272q-47 47 -125 107q-29 -29 -83 -46q185 -101 250 -253z
M440 411q115 1 122 16q0 1 -4 6q-17 20 -20 38q1 154 109 246q99 74 297 93q-38 30 -69 97q-168 -45 -266 -117q-102 -88 -111 -214q-21 122 -121 208q-91 74 -250 125q-23 -39 -79 -77q192 -34 301 -125q102 -88 91 -296zM746 492q82 31 85 48q0 2 -7 7q-17 11 -28 29
q-36 59 -74 107q-28 -26 -77 -44q69 -57 101 -147zM240 496q86 20 85 34q-1 3 -5 8q-9 13 -16 30q-28 64 -76 119q-32 -21 -81 -30q76 -70 93 -161z" />
</svg>
