<?xml version="1.0" standalone="no"?>
<!DOCTYPE svg PUBLIC "-//W3C//DTD SVG 1.1//EN" "http://www.w3.org/Graphics/SVG/1.1/DTD/svg11.dtd" >
<svg xmlns="http://www.w3.org/2000/svg" xmlns:xlink="http://www.w3.org/1999/xlink" version="1.1" viewBox="-10 0 1034 1024">
  <g transform="matrix(1 0 0 -1 0 820)">
   <path fill="currentColor"
d="M299 166q-6 6 -15 16q6 45 10 87l6 118q42 54 58 78q33 45 55 69q16 16 34 23q-24 21 -49 41q-6 -15 -40 -67q-19 -34 -29 -47q-12 -18 -29 -38v224q0 12 3 31q4 21 18 40h-64l5 -71l-2 -307l-10 -149l-15 -83q-7 -28 -18 -56q-27 -63 -64 -105q-28 -34 -91 -72
q30 -15 48 -35q40 39 62 65q12 12 40 54q45 72 65 149q57 -63 117 -153q1 0 3 3l5 5q12 12 25 20q-18 28 -93 119zM127 543q1 -24 2 -39q0 -45 -16 -117q-12 -63 -39 -104l54 -4q21 79 36 187q4 45 17 72q-24 0 -54 5zM616 351q-27 -60 -47 -93q-18 -28 -49 -66
q-63 -69 -131 -92q19 -12 27 -18q9 -9 19 -17q144 103 226 286h97q-12 -60 -30 -119q-33 -102 -85 -173q-91 -121 -208 -160q18 -9 35 -25l16 -13q64 45 120 96q55 55 89 107q33 54 64 136q12 34 20 63q9 31 21 88h92l-17 -222l-6 -86q0 -24 -3 -45q-3 -66 -41 -79
q-28 -12 -80 -12q-22 0 -62 4q7 -13 19 -47q63 3 97 7q22 3 46 15q51 24 58 116q3 67 16 209l9 112q1 27 10 69q-33 -1 -66 -5h-352q78 61 155 133l102 102q34 36 62 72q-60 -4 -86 -5l-268 1q-18 3 -33 3q-3 1 -6 1v-47q9 3 63 6h244q-33 -42 -103 -108q-61 -57 -119 -104
q-39 -30 -57 -40q-15 -9 -33 -13q3 -24 8 -34q6 -12 6 -17q21 13 52 14h109z" />
  </g>

</svg>
