<?xml version="1.0" standalone="no"?>
<!DOCTYPE svg PUBLIC "-//W3C//DTD SVG 1.1//EN" "http://www.w3.org/Graphics/SVG/1.1/DTD/svg11.dtd" >
<svg xmlns="http://www.w3.org/2000/svg" xmlns:xlink="http://www.w3.org/1999/xlink" version="1.1" viewBox="-10 0 1010 1000">
   <path fill="currentColor"
d="M188 0q128 12 116 20q-16 16 -21 70q-6 43 -7 188q40 -41 81 -97q19 16 56 52q9 9 14 13q-23 9 -79 53q-45 35 -70 51q0 12 -1 32q-1 83 -7 118q23 23 63 64q45 46 64 65q-38 23 -74 56q-29 -62 -63 -105q-48 184 -143 313q-43 -30 -97 -45q105 -80 146 -230
q43 -153 34 -413q-1 -21 -2 -56q-3 -106 -10 -149zM865 56v97q-59 -6 -213 126q-55 44 -89 71h256q59 -1 112 -10q-17 109 -35 302q-10 143 -25 182q-18 57 -179 69q-8 -66 -43 -109q115 18 145 -4q15 37 43 -359h-69q-2 11 -7 33q-29 291 -279 443q-33 -37 -89 -65
q253 -80 301 -411h-69q-68 210 -232 341q-33 -39 -83 -53q149 -64 248 -288q-81 8 -143 26q-6 -56 -28 -89q63 -3 111 -34q121 -88 222 -189h-155q-105 1 -150 10v-91q67 8 145 10h204q59 0 101 -8zM73 211q69 1 98 8q-15 23 -30 219q-3 34 -4 50q-31 -4 -83 -1
q14 -68 19 -148q5 -77 0 -128z" />
</svg>
