<?xml version="1.0" standalone="no"?>
<!DOCTYPE svg PUBLIC "-//W3C//DTD SVG 1.1//EN" "http://www.w3.org/Graphics/SVG/1.1/DTD/svg11.dtd" >
<svg xmlns="http://www.w3.org/2000/svg" xmlns:xlink="http://www.w3.org/1999/xlink" version="1.1" viewBox="-10 0 1034 1024">
  <g transform="matrix(1 0 0 -1 0 820)">
   <path fill="currentColor"
d="M433 13q9 12 21 21l-180 193l8 128q24 24 41 44q19 21 49 59q33 42 44 49q12 10 35 18q-37 21 -54 35q-19 -37 -41 -64q-45 -60 -74 -90v274q0 16 2 36q3 24 16 40h-61l4 -33v-383q-3 -69 -10 -127q-6 -34 -13 -69q-30 -118 -100 -198q-28 -30 -60 -47q31 -9 57 -25
q21 24 45 60q24 34 40 62q24 42 36 78q15 42 30 103l81 -86l74 -89q4 6 10 11zM151 412q1 18 5 34q1 12 3 28q7 39 28 56q-36 0 -53 4l-8 2l-1 -58l-18 -124q-9 -45 -25 -71q18 -1 37 -5q6 0 11 -1q6 30 13 78q3 28 8 57zM634 259l-203 1q-13 1 -27 2l-12 2v-46q54 4 79 5
h163v-309q0 -40 -5 -69h48q-3 19 -4 32l-1 346h221q0 -48 -3 -95q0 -42 -3 -61q0 -12 -3 -23q-4 -27 -29 -38q-18 -7 -42 -8q-16 0 -40 5q9 -15 18 -50l46 9q45 9 66 31q15 18 19 77l6 79l3 81q1 15 3 34q-36 -1 -72 -5h-190v133l203 -3q3 0 10 -3v47q-27 -1 -53 -5h-160
v143q259 0 266 -3q3 0 9 -2v46q-33 -1 -66 -5h-209q0 120 3 126q3 18 12 32h-58l5 -119v-39l-165 1q-13 1 -27 2l-12 2v-46q54 4 76 5h128v-143l-139 1q-13 1 -27 2l-12 2v-47q3 1 39 5l139 1v-133z" />
  </g>

</svg>
