<?xml version="1.0" standalone="no"?>
<!DOCTYPE svg PUBLIC "-//W3C//DTD SVG 1.1//EN" "http://www.w3.org/Graphics/SVG/1.1/DTD/svg11.dtd" >
<svg xmlns="http://www.w3.org/2000/svg" xmlns:xlink="http://www.w3.org/1999/xlink" version="1.1" viewBox="-10 0 1010 1000">
   <path fill="currentColor"
d="M577 -4q103 1 106 10q-19 35 -18 70v75h145q65 0 125 -10v97q-56 -8 -125 -9h-145v293l121 -8v-115q-1 -54 -8 -93q10 1 28 2q75 5 69 10q-17 35 -16 97v95q4 93 10 123h-89q6 -31 6 -55l-121 10v150q-1 45 16 56q11 11 71 10q60 1 79 -23q21 -19 26 -92q31 36 87 55
q-24 94 -62 115q-19 13 -50 17q-24 4 -98 3q-104 1 -124 -16q-25 -14 -23 -87v-180q-128 8 -194 19q8 -38 8 -87v-145q0 -50 -6 -79q93 6 99 16q-12 18 -15 34q-3 12 -3 45v135l111 -6v-299h-49q-58 0 -107 6l11 15q-24 -2 -119 78q-27 24 -41 35q0 104 -10 177
q131 96 172 139q-15 10 -44 37q-21 20 -33 30q-37 -70 -107 -127q-41 164 -135 282q-36 -34 -93 -49q101 -83 138 -208q40 -124 36 -356q-2 -182 -14 -274q109 5 112 14q-25 48 -24 78v180q56 -51 87 -107l28 28v-62q62 7 139 8h53q0 -100 -10 -157zM79 207q45 0 90 6
q-9 49 -22 251q-1 20 -2 30q-13 1 -34 0q-30 -2 -53 0q15 -54 21 -131q5 -80 0 -156z" />
</svg>
