<?xml version="1.0" standalone="no"?>
<!DOCTYPE svg PUBLIC "-//W3C//DTD SVG 1.1//EN" "http://www.w3.org/Graphics/SVG/1.1/DTD/svg11.dtd" >
<svg xmlns="http://www.w3.org/2000/svg" xmlns:xlink="http://www.w3.org/1999/xlink" version="1.1" viewBox="-10 0 1010 1000">
   <path fill="currentColor"
d="M641 -6q45 63 75 131l-81 30q-19 -58 -72 -125zM196 12q87 1 110 10q1 1 -4 8q-13 17 -14 32q-2 40 -3 143q0 70 -1 105q50 -67 69 -117q69 55 78 73q-2 4 -12 7q-25 7 -44 25q-48 42 -91 91l-4 103l13 13q138 134 149 152l-77 58q-28 -69 -97 -143q-39 176 -147 313
q-23 -30 -95 -49q171 -130 180 -371q4 -79 6 -145q1 -67 0 -121q-2 -104 -16 -187zM73 221l82 2q-12 135 -14 260q-35 -11 -85 -4q19 -102 17 -258zM786 340q-11 90 -8 408q0 35 22 40q62 7 79 -24q11 -28 12 -87q39 36 83 52q-16 93 -59 123q-22 13 -68 16q-53 2 -105 -6
q-41 -8 -44 -64l2 -381h-127q-3 158 -11 210q-8 67 -30 110q-59 96 -159 164q-37 -37 -87 -51q129 -58 184 -175q15 -43 21 -134q4 -89 -3 -199q44 4 81 4h139q56 0 78 -6zM413 157q31 8 131 8h244q67 -1 125 -8v87q-47 -7 -125 -7h-244q-103 0 -131 3v-83z" />
</svg>
