<?xml version="1.0" standalone="no"?>
<!DOCTYPE svg PUBLIC "-//W3C//DTD SVG 1.1//EN" "http://www.w3.org/Graphics/SVG/1.1/DTD/svg11.dtd" >
<svg xmlns="http://www.w3.org/2000/svg" xmlns:xlink="http://www.w3.org/1999/xlink" version="1.1" viewBox="-10 0 1034 1024">
  <g transform="matrix(1 0 0 -1 0 820)">
   <path fill="currentColor"
d="M273 698q0 9 3 26q4 22 19 40h-65q4 -45 5 -66l-1 -288q0 -21 -8 -152l-7 -69q-21 -127 -92 -226q-33 -46 -83 -78q6 0 48 -26q1 -1 5 -4q37 43 81 112q57 94 79 204l81 -80q25 -28 51 -60q6 6 8 11q12 16 23 24l-78 80l-78 74l3 47q1 33 4 65q1 36 2 81q6 12 36 44
q48 60 74 86q9 12 19 17q7 6 20 12q-18 15 -37 29q-4 4 -8 7q-27 -40 -45 -65q-54 -64 -59 -74v229zM151 494q3 10 7 25q6 22 22 42q-45 9 -60 10q-15 -147 -55 -241q28 -6 45 -11q12 45 23 89zM589 773q-12 -36 -26 -69q-18 -40 -47 -91q-30 -51 -54 -87q-57 -82 -111 -127
q-45 -31 -70 -41l61 -31q69 63 151 176q24 36 45 69l59 106q61 -111 175 -214q30 -25 76 -59l85 -58q21 27 46 49q-42 10 -54 17q-24 9 -58 32q-30 18 -64 46q-108 87 -184 226q7 15 22 29zM446 -66q0 -36 16 -58q21 -22 89 -31q12 -1 59 -4l78 -1q46 0 83 2q58 3 93 18
q33 15 52 59q10 30 23 73q-18 3 -45 20q-6 -46 -13 -68q-15 -43 -58 -53q-48 -10 -149 -11q-63 0 -111 4t-64 19q-15 10 -15 45v379h276l-2 -78q-1 -69 -5 -104q-3 -24 -9 -36q-13 -22 -52 -23q-9 0 -47 3q18 -31 22 -50q63 9 87 21q24 13 34 40q3 12 5 33l4 107l4 73
q0 12 2 24q1 12 4 31q-36 -1 -72 -5l-245 1q-19 3 -49 4q1 -33 5 -68v-366z" />
  </g>

</svg>
