<?xml version="1.0" standalone="no"?>
<!DOCTYPE svg PUBLIC "-//W3C//DTD SVG 1.1//EN" "http://www.w3.org/Graphics/SVG/1.1/DTD/svg11.dtd" >
<svg xmlns="http://www.w3.org/2000/svg" xmlns:xlink="http://www.w3.org/1999/xlink" version="1.1" viewBox="-10 0 1010 1000">
   <path fill="currentColor"
d="M411 -23q92 26 109 39q0 2 -20 15q-17 11 -22 15q-19 16 -49 52h305q75 0 131 -14q-125 250 -377 333q72 11 83 20q0 1 -3 4q-9 10 -10 24q-12 165 109 256q123 77 313 81q-51 48 -71 109q-167 -31 -274 -115q-91 -72 -119 -186q-18 220 -401 309q-15 -60 -67 -97
q246 1 361 -133q32 -40 46 -111q7 -37 8 -77q2 -40 -3 -72q-107 46 -332 96q-11 2 -15 3q-14 -45 -63 -93q139 2 269 -36q-28 -46 -77 -81l75 -50q44 48 78 107q74 -24 107 -45q-19 -19 -41 -42q-26 -29 -56 -48l79 -49q43 38 87 99q89 -53 147 -125h-357q-75 73 -196 155
q-31 -46 -80 -66q182 -66 326 -277zM250 508q85 21 87 36q-1 3 -6 7q-14 11 -21 29q-26 65 -74 119q-21 -18 -79 -30q68 -71 93 -161zM782 477q87 32 93 51q0 2 -7 7q-20 11 -31 29q-41 81 -89 135q-30 -28 -73 -42q79 -82 107 -180z" />
</svg>
