<?xml version="1.0" standalone="no"?>
<!DOCTYPE svg PUBLIC "-//W3C//DTD SVG 1.1//EN" "http://www.w3.org/Graphics/SVG/1.1/DTD/svg11.dtd" >
<svg xmlns="http://www.w3.org/2000/svg" xmlns:xlink="http://www.w3.org/1999/xlink" version="1.1" viewBox="-10 0 1010 1000">
   <path fill="currentColor"
d="M577 -13q102 2 111 9q1 2 -3 7q-18 33 -18 89v41h125q86 0 139 -8v86q-51 -6 -137 -6h-127v105h53q75 0 155 -8v87q-67 -8 -151 -8h-57v107h115q69 0 145 -7l-3 27q-7 50 -7 92v97q10 69 -163 91q-8 -62 -40 -101q73 9 96 -1q24 -8 23 -45v-81h-166v216q0 64 10 139h-100
q8 -67 8 -135v-220h-61q-76 0 -143 8v-85q52 5 135 5h69v-107h-31q-90 0 -147 8v-87q70 8 147 8h31v-105h-31q-93 -1 -129 6l13 14q0 2 -9 6q-23 9 -36 23q-5 6 -16 19q-36 40 -79 96q-4 106 -8 159q140 151 178 205q-49 13 -91 45q-37 -73 -77 -131q-17 -23 -28 -39
q-26 127 -149 285q-36 -28 -97 -41q130 -105 167 -236q20 -66 27 -161q6 -85 4 -262q-3 -140 -8 -189q112 7 111 14q0 3 -5 9q-13 18 -16 49q-3 33 -12 200q3 -5 10 -15q41 -64 59 -100q6 5 19 17q12 11 19 17v-70q81 8 155 8h29v-27q0 -64 -8 -119zM87 195q63 3 96 8
q0 3 -4 8q-11 16 -12 41q-2 38 -7 140q-3 53 -5 89q-27 -5 -65 -4h-21q10 -50 15 -126q5 -79 3 -156z" />
</svg>
