<?xml version="1.0" standalone="no"?>
<!DOCTYPE svg PUBLIC "-//W3C//DTD SVG 1.1//EN" "http://www.w3.org/Graphics/SVG/1.1/DTD/svg11.dtd" >
<svg xmlns="http://www.w3.org/2000/svg" xmlns:xlink="http://www.w3.org/1999/xlink" version="1.1" viewBox="-10 0 1010 1000">
   <path fill="currentColor"
d="M540 -19q113 28 107 33q1 3 -10 12q-12 11 -16 18q-3 7 -14 31q-18 41 -28 62h223q55 0 109 -6q-4 42 -11 234q-6 211 -15 264q-20 48 -125 56q-2 -51 -20 -91q-1 -3 -2 -4q54 10 70 -12q8 4 10 -145q3 -128 7 -228h-271q-30 74 -62 119h141q55 0 97 -6q-6 36 -6 91v149
q0 48 6 75q-36 -6 -79 -6h-117v129q-9 65 91 60h87q90 -1 123 -22q30 -19 38 -103q38 47 89 59q-25 79 -63 113q-18 15 -46 21q-27 5 -85 5h-157q-108 2 -127 -23q-13 -12 -18 -39q-4 -23 -4 -83v-373q-3 4 -7 10q-25 38 -56 76l-82 -36q155 -134 223 -440zM202 8
q119 9 115 16q1 4 -7 18q-12 19 -12 28q-1 17 -4 63q-5 83 -6 119q55 -48 83 -101q73 55 73 68q-1 4 -10 7q-20 6 -37 20q-28 24 -82 67q-17 13 -27 21q0 132 -12 210q110 98 174 171l-75 59q-49 -88 -113 -151q-44 161 -139 276q-32 -30 -91 -47q192 -139 184 -540
q0 -130 -3 -189q-3 -64 -11 -115zM83 197l88 12q-4 35 -11 107q-14 148 -23 202q-36 -12 -83 -6q34 -152 29 -315zM534 387v177h119v-177h-119z" />
</svg>
