<?xml version="1.0" standalone="no"?>
<!DOCTYPE svg PUBLIC "-//W3C//DTD SVG 1.1//EN" "http://www.w3.org/Graphics/SVG/1.1/DTD/svg11.dtd" >
<svg xmlns="http://www.w3.org/2000/svg" xmlns:xlink="http://www.w3.org/1999/xlink" version="1.1" viewBox="-10 0 1034 1024">
  <g transform="matrix(1 0 0 -1 0 820)">
   <path fill="currentColor"
d="M90 261q7 0 16 -2q6 24 15 66l24 136q3 24 22 45q-36 6 -61 13q-3 -61 -14 -129q-7 -43 -16 -73q-9 -28 -19 -51q15 -1 33 -5zM109 -147q19 19 41 45q21 24 40 52q49 79 76 194q103 -84 154 -154q6 12 13 18q3 4 22 24l-78 69q-42 36 -108 89q3 75 4 146q45 60 87 109
q48 63 61 75q10 10 36 17q-34 19 -62 43q-21 -48 -49 -91q-31 -45 -73 -96v278q0 9 2 29q1 21 12 45h-57q1 -36 5 -74l-2 -402q-1 -9 -1 -20l-6 -96q0 -1 -16 -75q-25 -78 -77 -138q-30 -33 -74 -57l36 -21q6 -4 14 -9zM486 -53l-5 -61q45 4 82 5q388 0 399 -3q3 0 8 -2v46
q-9 0 -11 -2q-4 0 -8 -1q-19 0 -38 -2h-389v224l329 -1l39 -4q-6 51 -5 97q0 151 2 164q0 16 3 33q-27 -1 -55 -5h-313v220l386 -1q18 0 30 -4v46q-4 0 -7 -1q-3 0 -6 -1q1 0 -16 -2h-387q-3 0 -43 4q1 -30 5 -61v-688zM524 187v212h325v-212h-325z" />
  </g>

</svg>
