<?xml version="1.0" standalone="no"?>
<!DOCTYPE svg PUBLIC "-//W3C//DTD SVG 1.1//EN" "http://www.w3.org/Graphics/SVG/1.1/DTD/svg11.dtd" >
<svg xmlns="http://www.w3.org/2000/svg" xmlns:xlink="http://www.w3.org/1999/xlink" version="1.1" viewBox="-10 0 1034 1024">
  <g transform="matrix(1 0 0 -1 0 820)">
   <path fill="currentColor"
d="M289 464l3 221q1 37 13 66q-15 -1 -28 -2q-12 0 -33 4q4 -40 5 -67q3 -84 3 -237q-1 -30 -1 -63q0 -57 -3 -97q-7 -123 -34 -192q-36 -90 -91 -153q-31 -36 -72 -58l49 -32q61 64 103 134q30 48 64 133q27 -19 46 -36q18 -15 38 -33q34 -30 65 -72q12 22 24 33q1 3 8 9
l-78 69q-51 42 -97 76q6 54 11 90l7 85l35 42q30 33 60 69q31 37 62 54q-27 21 -48 41q-19 -36 -39 -63q-24 -34 -72 -91v70zM130 534q1 -21 2 -33q0 -45 -19 -135q-13 -57 -30 -81q39 -3 49 -7q21 87 33 158l8 54q3 13 12 33q-21 0 -55 11zM455 -126q51 12 116 21l105 12
l174 17l33 3q27 -43 38 -81q18 18 43 29q-36 66 -159 237q-18 -16 -41 -32q43 -36 98 -119q-51 -6 -110 -12l-117 -9l-122 -11l96 111q36 43 69 86q24 30 47 64q13 18 33 46l50 77q25 39 50 55q-31 18 -55 36q-16 -39 -32 -68q-16 -30 -45 -74l-212 -14q96 147 117 180
q28 48 58 95h214q42 0 62 -5v46q-3 0 -12 -3l-76 -2l-405 1q-21 3 -25 4v-46q24 3 49 5h141q-58 -108 -129 -218q-21 -30 -34 -45q-12 -10 -27 -17q6 -22 14 -46l30 7q15 3 38 6l173 16q-33 -49 -67 -95q-33 -42 -67 -82q-30 -34 -53 -60q-18 -21 -35 -35q-24 -21 -46 -26z
M743 596q6 7 21 21q-36 39 -144 143q-19 -24 -29 -31q-3 -3 -7 -6q37 -24 85 -70q27 -27 35 -38q12 -15 24 -35q7 9 15 16v0z" />
  </g>

</svg>
