<?xml version="1.0" standalone="no"?>
<!DOCTYPE svg PUBLIC "-//W3C//DTD SVG 1.1//EN" "http://www.w3.org/Graphics/SVG/1.1/DTD/svg11.dtd" >
<svg xmlns="http://www.w3.org/2000/svg" xmlns:xlink="http://www.w3.org/1999/xlink" version="1.1" viewBox="-10 0 1034 1024">
  <g transform="matrix(1 0 0 -1 0 820)">
   <path fill="currentColor"
d="M415 32q-6 7 -14 16l-40 46l-57 64l-53 58q4 33 7 61t5 75q39 45 69 83q39 51 52 65q16 18 38 32q-27 15 -48 34q-25 -43 -49 -77t-64 -81l-2 77l2 184q0 40 13 78q-24 0 -58 4q3 -48 5 -82l3 -330l-3 -58q-9 -79 -27 -139q-36 -121 -99 -192q-21 -22 -54 -45
q27 -12 48 -31q54 70 86 124q16 31 31 65q15 39 36 105l49 -52l35 -42q30 -39 55 -84q7 13 17 24q7 9 17 18zM113 315l23 136q1 18 4 25q6 45 13 57q1 9 6 15q-19 0 -27 2q-7 0 -29 6q-4 -96 -15 -163q-7 -54 -30 -103q18 0 27 1q6 0 22 -5zM899 688q-40 0 -82 -3l-341 1
q-15 3 -44 4q1 -30 5 -60l-1 -739q-3 -27 -4 -35h48q-4 19 -5 49v744h405v-687q0 -39 -18 -48q-18 -6 -51 -7q-42 0 -70 5q9 -27 15 -51q30 0 66 6q60 7 83 33q12 18 13 55l1 690l4 45q-12 0 -24 -2zM553 480q1 -28 5 -58l-1 -245q-3 -12 -4 -40q46 4 93 5q106 0 120 -2
q13 0 28 -3q-3 28 -5 58l1 244l4 41q-24 -1 -50 -5q-135 0 -158 2q-6 3 -33 3zM595 178v261h156v-261h-156z" />
  </g>

</svg>
