<?xml version="1.0" standalone="no"?>
<!DOCTYPE svg PUBLIC "-//W3C//DTD SVG 1.1//EN" "http://www.w3.org/Graphics/SVG/1.1/DTD/svg11.dtd" >
<svg xmlns="http://www.w3.org/2000/svg" xmlns:xlink="http://www.w3.org/1999/xlink" version="1.1" viewBox="-10 0 1034 1024">
  <g transform="matrix(1 0 0 -1 0 820)">
   <path fill="currentColor"
d="M530 200l228 -1l46 -4q-4 57 -5 111l5 115q-66 -4 -100 -5l-445 1q-19 3 -50 4q1 -33 5 -67q0 -88 -2 -119q-3 -6 -3 -40q33 3 67 5h210q-19 -129 -138 -222q-52 -42 -135 -72q-81 -27 -150 -26q9 -15 19 -24q6 -9 14 -26q42 9 86 24q129 43 204 104q87 79 124 173
q64 -130 180 -195q49 -27 95 -46q54 -19 134 -42q18 31 37 52q-45 3 -75 9q-24 4 -52 13q-117 30 -191 100q-72 69 -111 162zM251 236v144h510v-144h-510zM134 460q22 9 43 12q31 3 95 7l560 36q28 -18 53 -45q21 28 28 32q-4 3 -9 8q-7 6 -14 10q-4 3 -11 10l-53 39
l-118 86q-34 21 -43 30q-12 -15 -28 -31q42 -25 80 -51q36 -25 79 -59q-54 -6 -70 -6l-142 -8l-171 -8l-98 -4l-114 -5l177 137l50 41q9 6 32 19q18 10 45 15q-39 25 -60 45q-9 -15 -37 -42q-33 -31 -64 -58q-30 -25 -65 -52q-66 -51 -107 -79q-33 -19 -57 -27q6 -9 8 -14
l1 -1l6 -23q1 -6 4 -14zM167 3q54 69 75 97q24 31 30 34q7 7 25 13q-24 9 -39 14q-9 4 -22 12q-7 -30 -41 -73q-18 -25 -36 -45q-15 -15 -30 -29q18 -10 38 -23zM690 56q4 -3 9 -7q15 -12 23 -20q9 12 69 64q46 40 81 50q-27 16 -47 38q-12 -18 -25 -30q-9 -9 -28 -24
q-19 -18 -49 -42q-10 -9 -37 -26q1 -1 4 -3v0z" />
  </g>

</svg>
