<?xml version="1.0" standalone="no"?>
<!DOCTYPE svg PUBLIC "-//W3C//DTD SVG 1.1//EN" "http://www.w3.org/Graphics/SVG/1.1/DTD/svg11.dtd" >
<svg xmlns="http://www.w3.org/2000/svg" xmlns:xlink="http://www.w3.org/1999/xlink" version="1.1" viewBox="-10 0 1034 1024">
  <g transform="matrix(1 0 0 -1 0 820)">
   <path fill="currentColor"
d="M442 55q-18 15 -57 51q-3 4 -6 6q-51 42 -101 87q3 54 8 71l4 43q1 21 3 36q12 19 26 37q1 3 59 81l33 47q16 24 34 35q6 3 13 9q-24 12 -48 35q-21 -40 -35 -61q-19 -31 -41 -63q-13 -22 -41 -58l1 91l-1 152q0 30 3 66q1 24 9 42q-13 0 -25 -1q-10 0 -31 3q3 -40 5 -66
q1 -34 2 -81l1 -90q0 -201 -15 -297q-15 -108 -59 -195q-24 -45 -68 -98q-25 -28 -71 -54q27 -13 52 -33q75 81 128 181q25 55 46 125q58 -52 93 -86q22 -22 53 -63q6 9 11 16q6 9 24 25q-4 4 -9 7zM140 382l12 61q4 30 10 59q0 9 7 23q3 10 9 19q-24 0 -52 8l-8 -80
q-3 -24 -11 -59q-16 -82 -38 -112q33 -1 54 -8q1 15 4 20q1 9 4 20zM459 421l13 16q24 30 54 75q1 4 4 7l44 67h326l-1 -86q-9 -219 -9 -287q0 -15 -2 -27q-4 -49 -25 -61q-39 -19 -102 -11q13 -28 20 -54q12 1 19 4q27 7 53 12q60 18 71 86q3 33 6 124l10 276l6 65l-101 -5
h-252q30 72 38 85q9 18 35 50q-30 6 -57 18q-43 -162 -141 -278q-43 -51 -80 -73q27 -9 33 -13q9 -6 20 -14zM495 -59q0 -31 11 -50q13 -22 50 -30q51 -10 167 -11q58 0 108 4q69 7 94 28t50 104q-27 9 -50 24q0 -12 1 -24q0 -18 -4 -35q-10 -36 -37 -49q-36 -15 -171 -15
q-129 0 -165 17q-18 9 -18 43v239l200 -1l40 -4q0 3 -1 10l-4 45q0 150 2 162q0 18 3 35l-86 -5l-156 1q-3 0 -40 4l6 -61v-431zM728 222h-197v170h197v-170z" />
  </g>

</svg>
