<?xml version="1.0" standalone="no"?>
<!DOCTYPE svg PUBLIC "-//W3C//DTD SVG 1.1//EN" "http://www.w3.org/Graphics/SVG/1.1/DTD/svg11.dtd" >
<svg xmlns="http://www.w3.org/2000/svg" xmlns:xlink="http://www.w3.org/1999/xlink" version="1.1" viewBox="-10 0 1010 1000">
   <path fill="currentColor"
d="M212 -4q101 5 98 18q1 4 -6 7q-16 8 -16 27v63q-2 144 0 187q61 -52 93 -105q78 40 83 57q-1 4 -11 5q-20 1 -34 13q-60 48 -133 115q2 71 -12 195l43 -22q68 86 118 163l-78 53q-36 -86 -93 -151q-45 155 -137 272q-28 -31 -81 -59q129 -108 164 -320q8 -67 8 -245
q1 -202 -6 -273zM419 96q34 6 196 6h135q163 0 196 -6v81q-17 -6 -192 -6h-79q-55 151 -108 226h187q87 0 117 -4q-6 18 -6 101v270q0 115 6 133h-83q6 -30 6 -97h-225q0 49 1 66q1 21 3 31h-81q6 -24 6 -123v-272q-6 6 -18 19q-45 50 -69 71q-25 -35 -72 -54
q194 -142 254 -367q-117 1 -174 6v-81zM105 193q94 3 91 16q0 3 -6 7q-15 11 -19 36q-1 7 -3 22q-10 83 -37 224q-35 -13 -89 -11q53 -106 63 -294zM569 461v276h225v-276h-225z" />
</svg>
