<?xml version="1.0" standalone="no"?>
<!DOCTYPE svg PUBLIC "-//W3C//DTD SVG 1.1//EN" "http://www.w3.org/Graphics/SVG/1.1/DTD/svg11.dtd" >
<svg xmlns="http://www.w3.org/2000/svg" xmlns:xlink="http://www.w3.org/1999/xlink" version="1.1" viewBox="-10 0 1034 1024">
  <g transform="matrix(1 0 0 -1 0 820)">
   <path fill="currentColor"
d="M127 -128q10 19 41 68q15 27 29 54q31 60 54 77q1 3 4 4q-25 12 -53 30q-22 -66 -61 -134q-42 -66 -75 -88q19 -9 30 -15q7 -4 19 -13q6 9 12 17zM218 242l-4 -44q-1 -9 -1 -18q33 3 67 5l455 -1q18 0 46 -4q-6 60 -6 72l1 169q0 18 5 54q-54 -4 -63 -5h-233v141h315
q40 0 63 -5v46q-6 0 -13 -3q-27 0 -50 -2h-315v59q0 31 15 64h-58q0 -1 1 -5q0 -18 4 -59v-236l-185 1q-19 3 -49 4l5 -111v-122zM255 221v213h483v-213h-483zM399 80q-18 -9 -43 -16q15 -39 29 -97q9 -51 10 -82q24 6 48 10q-18 87 -44 185zM631 -92q9 3 35 9
q-13 39 -36 95q-21 52 -37 87q-25 -12 -42 -18q52 -100 69 -177q4 3 11 4zM761 72q25 -21 77 -86q46 -58 81 -111q15 15 38 31q-28 39 -77 99q-46 58 -83 100q-15 -16 -36 -33v0z" />
  </g>

</svg>
