<?xml version="1.0" standalone="no"?>
<!DOCTYPE svg PUBLIC "-//W3C//DTD SVG 1.1//EN" "http://www.w3.org/Graphics/SVG/1.1/DTD/svg11.dtd" >
<svg xmlns="http://www.w3.org/2000/svg" xmlns:xlink="http://www.w3.org/1999/xlink" version="1.1" viewBox="-10 0 1010 1000">
   <path fill="currentColor"
d="M581 -6q84 24 104 38q0 2 -8 8q-18 14 -26 28q-3 6 -10 16q-28 48 -44 83h228q51 0 113 -6v77q-59 -5 -113 -5h-192v156h137q65 0 127 -6v76q-33 -6 -129 -6h-135v153h196q66 -1 109 -4v71q-19 -2 -44 -3q-12 -1 -27 -1h-38h-196v123q0 48 6 107h-87q6 -31 6 -107v-536
q-3 6 -10 18q-48 92 -108 193q-37 -36 -83 -50q152 -139 224 -423zM212 2q96 -2 109 10q1 3 -6 9q-14 13 -15 29q-9 93 -12 244q65 -72 105 -135q45 31 73 60q0 3 -10 8q-19 10 -37 23t-68 58q-38 35 -63 57q-1 30 -6 91q-3 48 -4 68q70 57 200 159l-79 65
q-62 -90 -131 -152q-38 149 -123 279q-23 -16 -91 -43q136 -118 158 -342q12 -226 0 -488zM85 207q85 -4 90 6q1 1 -2 6q-11 19 -14 45q-11 109 -14 211q-19 -3 -47 -4q-25 -1 -38 2q25 -91 25 -266z" />
</svg>
