<?xml version="1.0" standalone="no"?>
<!DOCTYPE svg PUBLIC "-//W3C//DTD SVG 1.1//EN" "http://www.w3.org/Graphics/SVG/1.1/DTD/svg11.dtd" >
<svg xmlns="http://www.w3.org/2000/svg" xmlns:xlink="http://www.w3.org/1999/xlink" version="1.1" viewBox="-10 0 1010 1000">
   <path fill="currentColor"
d="M204 10q113 3 111 10q2 5 -5 14q-15 23 -16 52q-5 79 -2 186q47 -52 75 -111q34 27 70 58q-97 87 -145 141q-3 76 -16 176q127 110 164 151l-73 59q-61 -88 -109 -131q-28 140 -117 272q-60 -29 -97 -31q167 -171 172 -463q2 -196 -12 -383zM754 20q114 26 113 38
q0 2 -7 8q-19 15 -29 34q-42 77 -75 140h14q58 0 137 -8q4 -1 6 -1v89q-50 -5 -151 -6h-167q-40 0 -135 7q-13 1 -18 1v-89q59 6 151 7h84q47 -78 77 -220zM550 32q18 36 81 149l-87 30q-24 -77 -82 -147zM77 229l88 2q-18 103 -20 271q-44 -10 -82 -4q9 -30 14 -118
q4 -88 0 -151zM438 475q44 7 141 8h173q89 -1 139 -8v89q-41 -7 -139 -8h-173q-89 1 -141 8v-89zM933 758v94q-75 -8 -137 -8h-260q-80 1 -147 8v-94q62 10 147 12h256q87 0 141 -12z" />
</svg>
