<?xml version="1.0" standalone="no"?>
<!DOCTYPE svg PUBLIC "-//W3C//DTD SVG 1.1//EN" "http://www.w3.org/Graphics/SVG/1.1/DTD/svg11.dtd" >
<svg xmlns="http://www.w3.org/2000/svg" xmlns:xlink="http://www.w3.org/1999/xlink" version="1.1" viewBox="-10 0 1010 1000">
   <path fill="currentColor"
d="M198 6q109 4 112 14q1 2 -4 8q-12 13 -12 28q-6 100 -6 218q44 -42 75 -93q73 40 77 57q0 2 -17 11q-28 15 -40 25q-17 14 -45 36l-50 40q-4 100 -12 200q64 56 149 141l-78 65q-41 -75 -89 -131q-56 171 -121 258q-37 -35 -95 -37q169 -150 170 -469q3 -107 3 -163
q0 -58 -1 -94q-2 -66 -16 -114zM827 26q55 60 68 95q-3 3 -25 -1q-38 -5 -62 -3q-252 23 -274 30q-4 43 -15 152q-7 80 -9 98q37 -4 127 -4q0 -100 -1 -132q-1 -40 -3 -54q88 1 99 10q2 3 -3 7q-8 9 -9 18q-9 81 -6 151h92q44 0 111 -4v78q-35 -4 -111 -4h-92q-1 34 -1 197
q0 131 -1 152q-21 70 -143 79q-7 -62 -35 -101q94 21 103 -28v-299q-139 4 -210 22q-8 -41 -28 -80q34 -16 41 -61q11 -77 16 -270q227 -4 371 -48zM79 215q94 -1 92 8q0 3 -3 6q-12 12 -13 39q-1 23 -4 115q-3 67 -4 109q-41 -8 -82 4q8 -41 12 -118q2 -40 2 -84
q1 -46 0 -79zM500 528q81 21 93 34q0 1 -5 5q-15 11 -23 25q-21 43 -72 154q-24 51 -31 66q-39 -21 -89 -28q85 -106 127 -256zM819 532q100 136 143 208l-85 46q-46 -117 -127 -220z" />
</svg>
