<?xml version="1.0" standalone="no"?>
<!DOCTYPE svg PUBLIC "-//W3C//DTD SVG 1.1//EN" "http://www.w3.org/Graphics/SVG/1.1/DTD/svg11.dtd" >
<svg xmlns="http://www.w3.org/2000/svg" xmlns:xlink="http://www.w3.org/1999/xlink" version="1.1" viewBox="-10 0 1010 1000">
   <path fill="currentColor"
d="M210 6q99 2 109 14q0 5 -6 13q-13 19 -13 39l-6 222q68 -67 93 -129q73 45 79 62q-2 4 -12 7q-25 7 -41 26q-70 79 -119 121q0 3 -1 11q-5 96 -11 136q140 101 184 155l-75 52q-2 -3 -7 -9q-70 -99 -116 -132q-35 158 -127 289q-38 -21 -105 -25q93 -82 143 -215
q34 -97 39 -250l2 -61v-199q-1 -78 -10 -127zM437 70q1 0 8 1q48 5 126 5h153q86 0 133 -8q-62 110 -151 210q34 12 236 141l-73 69q-116 -112 -210 -166q-102 89 -246 170q-27 -45 -70 -67q104 -31 213 -109q102 -76 162 -181q-181 0 -269 14q-9 2 -12 2v-81zM85 203
q89 4 92 18q0 4 -6 13q-9 12 -10 20q-1 15 -5 60q-9 105 -15 169q-29 -8 -83 -4q19 -51 27 -133q8 -79 0 -143zM440 510q1 0 8 1q48 7 104 7h230q43 0 87 -7q10 -1 12 -1v84q-2 0 -5 -1q-34 -7 -92 -7h-90v192h133q51 0 95 -10q9 -2 11 -2v92q-2 0 -11 -1q-43 -7 -89 -7
h-339q-57 0 -108 7q-9 1 -11 1v-88q3 0 13 1q40 7 100 7h129v-192h-61q-52 0 -104 7q-10 1 -12 1v-84z" />
</svg>
