<?xml version="1.0" standalone="no"?>
<!DOCTYPE svg PUBLIC "-//W3C//DTD SVG 1.1//EN" "http://www.w3.org/Graphics/SVG/1.1/DTD/svg11.dtd" >
<svg xmlns="http://www.w3.org/2000/svg" xmlns:xlink="http://www.w3.org/1999/xlink" version="1.1" viewBox="-10 0 1034 1024">
  <g transform="matrix(1 0 0 -1 0 820)">
   <path fill="currentColor"
d="M211 766q6 -30 6 -64v-268q0 -19 -2 -60q0 -39 -3 -63q-7 -118 -46 -218q-31 -84 -80 -147q-25 -30 -63 -51q18 -9 53 -30q43 57 72 103q39 66 69 158q1 7 4 14q4 15 10 28q33 -30 63 -59l66 -74q0 1 34 41q-25 25 -151 133q-3 3 -5 4q6 43 10 77l6 70q18 22 37 44l42 51
q37 45 45 51q10 10 32 22q-21 15 -46 35q-30 -46 -55 -80l-54 -69v288q0 6 2 23q3 19 12 41h-58zM52 322q27 0 50 -6q7 30 15 73l17 114q3 28 19 48q-27 4 -56 9q0 -27 -2 -51q-1 -24 -7 -61q-10 -61 -36 -126zM338 -84q6 -6 29 -20q31 27 73 72q36 42 64 80q34 48 39 51
q7 9 28 18q-9 4 -22 10q-15 6 -33 17q-45 -88 -103 -150q-40 -39 -95 -67q9 -4 20 -11zM445 614l-57 6v-47q15 4 28 5l149 1q-10 -37 -20 -62q-9 -25 -25 -62l-80 1q-24 3 -23 2q-4 0 -13 2v-46q19 4 58 5h43q-34 -82 -57 -122q-19 -31 -44 -48q1 -3 4 -6q3 -6 5 -9
q9 -13 13 -25q21 7 50 8l177 1v-284q0 -39 -37 -45q-22 -1 -38 -3q-21 0 -49 6q10 -22 17 -53l78 7q4 1 9 2q30 6 44 19q15 16 15 58v293h176q21 0 44 -2q3 0 13 -3v46q-28 -1 -57 -5h-176l1 166q1 19 5 40l-96 -5h-42l44 124l314 -1q9 0 22 -5v47q-4 0 -7 -1q-3 0 -4 -1
l-46 -4h-263q10 36 17 61l11 33q12 27 36 43q-36 9 -64 20q-13 -76 -42 -157h-133zM469 254q24 46 39 80q15 33 38 85h107v-165h-184zM958 -78q9 10 14 18q3 1 8 7q-39 51 -185 199q-12 -12 -34 -30q94 -81 188 -206z" />
  </g>

</svg>
