<?xml version="1.0" standalone="no"?>
<!DOCTYPE svg PUBLIC "-//W3C//DTD SVG 1.1//EN" "http://www.w3.org/Graphics/SVG/1.1/DTD/svg11.dtd" >
<svg xmlns="http://www.w3.org/2000/svg" xmlns:xlink="http://www.w3.org/1999/xlink" version="1.1" viewBox="-10 0 1010 1000">
   <path fill="currentColor"
d="M782 18q88 1 101 12q0 1 -3 7q-17 28 -17 69v436q9 66 -135 75q-12 -59 -34 -93q99 23 94 -37v-350q0 -93 -6 -119zM105 48q29 8 137 8h169q148 0 172 -8v81q-30 -8 -174 -8h-46q-32 80 -44 104q126 0 163 -1q48 -2 74 -7q-64 348 -417 420q-13 -26 -64 -75
q142 -16 254 -79q-38 -49 -99 -94l60 -45q45 45 77 78q14 14 16 15q40 -51 79 -153h-180q-55 82 -141 147q-26 -30 -74 -60q163 -72 215 -248h-38q-104 -1 -139 8v-83zM589 149q86 5 98 12q0 1 -3 8q-13 29 -13 48v184q0 124 6 133h-90q8 -23 8 -133v-192q1 -54 -6 -60z
M825 639q3 6 9 20q51 110 85 177l-96 31q-22 -91 -81 -204zM619 647q39 96 58 179l-94 14q-10 -94 -47 -183zM185 651q30 11 67 21q25 6 24 9q0 2 -5 7q-17 15 -27 37q-56 117 -83 152q-35 -20 -82 -27q74 -102 106 -199zM429 651q7 40 16 110q9 63 13 77l-89 6
q-1 -86 -28 -181z" />
</svg>
