<?xml version="1.0" standalone="no"?>
<!DOCTYPE svg PUBLIC "-//W3C//DTD SVG 1.1//EN" "http://www.w3.org/Graphics/SVG/1.1/DTD/svg11.dtd" >
<svg xmlns="http://www.w3.org/2000/svg" xmlns:xlink="http://www.w3.org/1999/xlink" version="1.1" viewBox="-10 0 1034 1024">
  <g transform="matrix(1 0 0 -1 0 820)">
   <path fill="currentColor"
d="M155 -85q15 18 30 34q40 49 43 51q9 9 36 24q-27 18 -49 37q-21 -33 -35 -52q-21 -28 -40 -50q-15 -18 -26 -28q-36 -33 -67 -46q30 -15 51 -33q6 7 10 11q15 19 47 52zM531 541q-27 -1 -53 -5h-195q40 72 68 137h183q42 0 62 -5v46q-6 0 -8 -1q-3 0 -4 -2l-76 -2
q-393 0 -414 3q-3 0 -10 2v-46q24 4 47 5h175q-19 -54 -55 -112q-48 -72 -106 -124q-28 -24 -43 -34q-15 -7 -38 -15q24 -13 32 -19q9 -6 20 -16q46 42 79 76q30 30 64 71h226q-15 -42 -47 -99q-18 -31 -58 -79q-9 6 -18 11l-42 32q-33 21 -69 49q-18 -21 -35 -37
q81 -37 134 -85q-12 -12 -26 -23q-45 -34 -94 -60q-87 -45 -167 -42q24 -24 38 -50q73 24 125 46q111 54 177 127q87 93 139 251h-11zM417 66q-27 -7 -46 -11q6 -27 11 -44q10 -61 11 -106l-1 -40q6 0 10 3q1 0 5 1q15 1 33 3q-6 85 -9 99l-9 64q-3 16 -5 31zM617 78
q-22 -9 -50 -16q45 -87 53 -197q21 6 47 10q-9 58 -50 203zM710 284q-3 19 -5 39l1 301q0 18 4 30q1 10 8 18h-56q1 -33 5 -67l-1 -283q-1 -3 -2 -28q0 -4 -2 -10h48zM894 695q0 13 2 29q1 22 12 38h-57q1 -33 5 -67l-1 -493q-3 -9 -6 -17q-4 -6 -20 -11q-21 -6 -47 -6
q-24 0 -60 5q15 -30 21 -54q91 9 122 24q28 15 29 63v489zM771 59q90 -87 154 -199q16 18 38 33l-87 116q-30 39 -69 84q-6 -9 -14 -17q-9 -9 -22 -17v0z" />
  </g>

</svg>
