<?xml version="1.0" standalone="no"?>
<!DOCTYPE svg PUBLIC "-//W3C//DTD SVG 1.1//EN" "http://www.w3.org/Graphics/SVG/1.1/DTD/svg11.dtd" >
<svg xmlns="http://www.w3.org/2000/svg" xmlns:xlink="http://www.w3.org/1999/xlink" version="1.1" viewBox="-10 0 1010 1000">
   <path fill="currentColor"
d="M206 0q95 0 104 12q1 2 -7 13q-11 16 -11 21q0 12 -1 34q-5 180 -9 190q20 -28 48 -68q21 -31 27 -39q33 24 60 52q-76 75 -119 119l-16 16q-1 81 -10 192q12 13 34 36q82 89 109 121l-80 47q-10 -14 -35 -54q-32 -52 -48 -75q-39 140 -147 258q-14 -9 -59 -30
q-15 -7 -20 -9q185 -150 182 -473q5 -299 -1 -337q-1 -16 -1 -26zM488 10q7 1 21 2q80 4 76 12q0 3 -4 7q-11 12 -10 29v159h137q0 -102 -1 -131q-1 -39 -5 -66q59 0 79 2q24 1 25 6t-5 14q-12 18 -13 38q-1 19 -2 48v34v53h69q18 0 60 -3q4 -1 6 -1v77q-25 -4 -64 -4h-71
v238h24q47 0 128 -8v86q-63 -8 -128 -8h-316q-77 0 -131 6v-80q54 6 131 6v-238q-47 0 -69 4v-77q35 4 69 4q0 -181 -6 -209zM73 227h80l-20 261l-87 -3q16 -80 22 -136q5 -50 5 -122zM569 286v238h139v-238h-139zM510 633q84 32 97 46q-4 6 -23 17q-11 6 -15 9
q-11 9 -67 66q-114 115 -129 120q-29 -30 -73 -51q141 -77 210 -207zM762 639q30 32 116 139q38 46 49 60l-88 57q-81 -148 -158 -214z" />
</svg>
