<?xml version="1.0" standalone="no"?>
<!DOCTYPE svg PUBLIC "-//W3C//DTD SVG 1.1//EN" "http://www.w3.org/Graphics/SVG/1.1/DTD/svg11.dtd" >
<svg xmlns="http://www.w3.org/2000/svg" xmlns:xlink="http://www.w3.org/1999/xlink" version="1.1" viewBox="-10 0 1010 1000">
   <path fill="currentColor"
d="M603 4q107 8 103 16q0 2 -3 7q-14 21 -15 53q-3 56 -3 115h97q46 0 103 -6q-5 26 -4 89v179q0 55 8 111q-56 -8 -121 -8h-83v206q53 -3 134 -16q-11 -42 -29 -75l71 -18q18 63 83 210l-79 26q-4 -15 -10 -35q-10 -43 -18 -50q-415 55 -456 71q-14 -61 -26 -91
q65 -2 260 -16v-212h-115q-1 57 4 63h-83q6 -12 6 -61v-264q0 -48 -8 -111q57 8 119 8h73q-1 -140 -8 -191zM198 24q51 -4 110 8q1 3 -6 16q-17 29 -18 50q-6 44 -6 184l5 -5q36 -36 80 -78q30 29 56 65q-70 36 -139 94q-5 138 -12 186q30 31 113 108q27 26 32 31l-66 61
q-55 -86 -93 -125q-59 160 -137 268q-56 -37 -89 -43q173 -157 180 -409q1 -312 -10 -411zM67 248q81 -3 88 6q-12 12 -12 40q0 137 -6 170q-3 20 -4 36q-39 -7 -79 -2q14 -45 19 -122q3 -81 -6 -128zM685 260v234h121v-234h-121zM500 260v234h113v-234h-113z" />
</svg>
