<?xml version="1.0" standalone="no"?>
<!DOCTYPE svg PUBLIC "-//W3C//DTD SVG 1.1//EN" "http://www.w3.org/Graphics/SVG/1.1/DTD/svg11.dtd" >
<svg xmlns="http://www.w3.org/2000/svg" xmlns:xlink="http://www.w3.org/1999/xlink" version="1.1" viewBox="-10 0 1034 1024">
  <g transform="matrix(1 0 0 -1 0 820)">
   <path fill="currentColor"
d="M92 -116q3 -3 12 -25q69 15 119 29q120 36 192 100q60 54 95 156q78 -132 170 -187q30 -19 100 -44q57 -21 142 -44q9 21 35 50l-77 6q-91 18 -158 52q-82 42 -145 131q-28 40 -56 94q6 34 25 55q-30 3 -60 5l-1 -32q-1 -37 -14 -84q-43 -142 -212 -205q-31 -12 -81 -23
q-46 -9 -71 -10q-16 0 -31 2q7 -12 16 -26zM125 601q-6 1 -21 11q-9 -16 -27 -43q78 -16 145 -75q7 21 24 41q-31 18 -121 66zM132 298q22 -21 39 -45l90 122q49 66 88 110q-7 22 -14 50q-58 -81 -120 -158q-49 -57 -83 -79zM320 681q-93 66 -117 80q-13 -24 -29 -43
q36 -12 78 -38q42 -30 63 -57q10 19 23 34q3 3 6 7q-12 9 -24 17zM209 91q24 -15 41 -30q63 108 70 114q15 24 36 38q-18 6 -48 21q-19 -42 -45 -82q-30 -45 -54 -61zM392 297q51 30 80 53q25 22 53 53q19 24 60 88h122q-31 -75 -77 -123q-48 -48 -106 -62q24 -16 40 -36
q58 39 99 81q39 42 84 140h118l-15 -78l-10 -46q-10 -36 -29 -44q-21 -9 -59 -10q-16 0 -45 2q9 -16 12 -25t5 -22q78 9 107 23q24 12 33 30t19 69q12 66 28 128q1 7 4 13q-55 -4 -77 -5h-285l248 191q-30 -1 -59 -5l-318 1q-19 3 -23 4v-45q22 3 47 5h244
q-100 -84 -208 -155q-46 -27 -47 -32q3 -3 6 -4l30 2q30 3 64 3q-30 -69 -97 -119q-58 -42 -108 -50q15 -12 23 -19q6 -9 16 -19q10 7 21 13zM692 84q6 -3 11 -4q4 -3 11 -7l26 47q24 48 36 62q9 10 34 27q-25 13 -51 33q-10 -31 -26 -61q-18 -33 -57 -90q7 -3 16 -7v0z" />
  </g>

</svg>
