<?xml version="1.0" standalone="no"?>
<!DOCTYPE svg PUBLIC "-//W3C//DTD SVG 1.1//EN" "http://www.w3.org/Graphics/SVG/1.1/DTD/svg11.dtd" >
<svg xmlns="http://www.w3.org/2000/svg" xmlns:xlink="http://www.w3.org/1999/xlink" version="1.1" viewBox="-10 0 1034 1024">
  <g transform="matrix(1 0 0 -1 0 820)">
   <path fill="currentColor"
d="M296 396q9 12 20 23q45 46 58 61q24 28 35 37q9 9 37 26q-21 12 -47 38q-40 -69 -112 -144l1 207q0 51 6 73q3 24 7 39q-24 0 -58 3q6 -39 6 -52l2 -141q0 -198 -14 -296q-16 -123 -67 -232q-39 -75 -87 -122q-19 -15 -37 -24q27 -12 52 -31q115 150 157 292l61 -67
q21 -24 38 -45q24 -30 43 -72q19 19 39 34q-18 24 -53 64l-117 133l9 62l5 64q0 10 2 20q1 27 5 40q4 6 9 10zM88 292q18 0 36 -4q7 27 13 56l15 100q3 42 8 66q0 3 12 38q-13 0 -53 4q-1 -87 -15 -162q-13 -66 -29 -98h13zM545 220l33 24h49q-22 -108 -24 -112q0 -4 -2 -8
q0 -6 -4 -9q-1 -7 -4 -14q-1 -3 -4 -13q30 3 63 5h207q-3 -45 -9 -77q-3 -25 -7 -42q-13 -58 -60 -71q-33 -7 -74 -8q-10 0 -39 3q9 -28 12 -52q127 16 161 45q30 27 47 140q9 61 18 103q-30 -1 -62 -5h-202l22 115h191q42 0 63 -5v46q-6 0 -8 -1q-3 0 -4 -2l-169 -2h-119
l71 72l50 55h167q42 0 62 -5v46q-3 0 -12 -3l-96 -2h-92q12 18 25 34q109 156 113 160q7 9 37 34q-21 10 -50 32q-36 -72 -88 -146l-57 -78q-16 -21 -31 -36h-79v134h100q43 0 62 -6v47q-3 0 -8 -2q-3 0 -4 -2l-97 -2h-53l1 100q0 7 13 52h-57q0 -4 2 -9q0 -39 3 -78v-65
q-126 0 -142 3q-1 1 -2 1q-3 0 -12 2v-47q6 0 12 2q72 3 108 4h36v-134q-171 0 -193 2l-15 3v-46q24 4 44 5h250q-87 -100 -217 -194q-76 -51 -127 -63q24 -18 42 -41l67 44q16 10 27 20q31 24 65 47v0z" />
  </g>

</svg>
