<?xml version="1.0" standalone="no"?>
<!DOCTYPE svg PUBLIC "-//W3C//DTD SVG 1.1//EN" "http://www.w3.org/Graphics/SVG/1.1/DTD/svg11.dtd" >
<svg xmlns="http://www.w3.org/2000/svg" xmlns:xlink="http://www.w3.org/1999/xlink" version="1.1" viewBox="-10 0 1010 1000">
   <path fill="currentColor"
d="M157 -4q95 37 160 80l-47 63q-82 -53 -151 -81zM359 30q40 7 129 8h254q66 0 107 -6v93q-11 -2 -35 0q-21 3 -36 8q-13 5 -39 14q-169 59 -243 91q329 -6 403 -21q-3 26 -11 96q-18 158 -23 174q-16 56 -157 71q-2 -60 -39 -103q94 18 123 -14q14 -21 23 -149
q-12 2 -99 2q-47 166 -160 252q-30 -35 -78 -44q118 -63 173 -206q-74 0 -101 2q-54 127 -197 234q-28 -36 -75 -55q121 -50 200 -177q-93 0 -123 8v-91q37 5 64 -4q119 -46 254 -109h-185q-90 1 -129 8v-82zM101 165q88 30 161 72l-44 71q-78 -56 -155 -75zM292 306
q8 31 35 69q-134 112 -206 189q-24 -39 -58 -77q104 -59 229 -181zM440 536q118 11 123 20q0 3 -10 15q-19 25 -19 37q47 107 160 158q54 24 118 30t138 -6q-26 17 -53 107q-292 -15 -403 -228q-70 195 -397 230q-10 -56 -49 -95q394 12 392 -268zM232 566q99 23 93 32
q-1 3 -8 8q-18 12 -27 29q-25 47 -60 94q-29 -20 -77 -30q54 -62 79 -133zM746 574q82 31 85 47q0 2 -7 7q-17 11 -28 29q-27 43 -58 80q-25 -21 -69 -38q49 -55 77 -125z" />
</svg>
