<?xml version="1.0" standalone="no"?>
<!DOCTYPE svg PUBLIC "-//W3C//DTD SVG 1.1//EN" "http://www.w3.org/Graphics/SVG/1.1/DTD/svg11.dtd" >
<svg xmlns="http://www.w3.org/2000/svg" xmlns:xlink="http://www.w3.org/1999/xlink" version="1.1" viewBox="-10 0 1034 1024">
  <g transform="matrix(1 0 0 -1 0 820)">
   <path fill="currentColor"
d="M262 690q0 12 3 27q4 24 18 40h-64q4 -49 5 -86l-2 -340l-12 -153q-18 -129 -82 -225q-33 -48 -85 -82q24 -10 50 -29q105 103 151 291q55 -42 135 -143q9 18 31 36q-15 13 -59 63l-100 94l6 74q3 30 5 80l85 121l19 25q7 9 14 20l21 26q10 12 36 28q-21 12 -49 39
q-30 -54 -68 -110q-33 -51 -58 -84v288zM58 301q18 -1 16 -2q9 -1 19 -5q7 0 14 -4q9 42 19 102q19 121 24 130q3 13 16 28q-19 0 -34 3q-12 1 -28 6l1 -34q0 -12 -5 -57q-7 -63 -17 -100q-10 -40 -14 -48q-3 -9 -11 -19zM642 761q-21 -93 -121 -231q-51 -69 -94 -108
q-42 -36 -89 -52q28 -12 51 -35q75 61 136 138q78 100 120 190q39 -63 68 -102q21 -30 62 -72q72 -72 171 -127q25 33 47 49q-81 10 -166 82q-93 78 -160 214q16 19 33 29zM939 200q-19 -4 -65 -5l-448 3q-3 0 -7 1q-3 1 -5 1v-47q7 3 26 4q7 1 82 2h112q-52 -90 -135 -202
q-40 -49 -75 -58q4 -12 18 -50q21 6 37 10l64 10l320 37q12 -13 25 -36q1 -4 6 -11q3 -4 7 -11q3 -3 6 -7q12 12 37 29q-67 84 -100 121l-58 66q-4 -4 -7 -8q-7 -9 -13 -13q-3 -3 -12 -9q45 -42 83 -90l-177 -17q-87 -9 -157 -13l93 126q52 72 87 126l217 -1q22 0 39 -5v47z
M497 337q4 3 51 6l264 -1q22 0 39 -5v47q-19 -4 -65 -5l-279 3q-3 1 -5 1q-3 1 -5 1v-47z" />
  </g>

</svg>
