<?xml version="1.0" standalone="no"?>
<!DOCTYPE svg PUBLIC "-//W3C//DTD SVG 1.1//EN" "http://www.w3.org/Graphics/SVG/1.1/DTD/svg11.dtd" >
<svg xmlns="http://www.w3.org/2000/svg" xmlns:xlink="http://www.w3.org/1999/xlink" version="1.1" viewBox="-10 0 1034 1024">
  <g transform="matrix(1 0 0 -1 0 820)">
   <path fill="currentColor"
d="M118 -124l36 49q7 9 14 19q39 70 56 118q6 21 13 40q1 3 7 19l89 -101q24 -30 45 -60q18 22 37 37l-80 84l-80 88l10 108q3 37 6 86q24 36 37 52q19 33 53 78q9 15 28 33q12 13 30 22q-27 12 -52 34q-1 -3 -33 -57q-7 -9 -13 -19l-50 -79v252q0 9 3 27q4 21 19 40h-66
q4 -45 5 -67l-3 -336l-3 -43q-3 -63 -9 -103l-26 -100q-19 -63 -48 -111q-30 -51 -90 -91q33 -15 48 -27q3 -3 7 -6q4 7 10 14zM68 296q34 -1 53 -5q3 25 10 62q6 36 11 73q7 58 14 79q3 15 19 36q-30 3 -64 12q-3 -70 -9 -124q-4 -34 -18 -100q-6 -18 -16 -33zM492 312
l-6 -67h49q0 3 -2 6l-4 61v286l42 83q19 33 41 51q-28 10 -53 27q-3 -9 -8 -20q-18 -49 -34 -82t-49 -86q-36 -58 -67 -98q-25 -30 -59 -58q30 -12 49 -26l101 145v-222zM647 121l-254 3q-12 0 -26 2q-3 1 -5 1v-48q7 1 12 4q25 0 56 3h217l-1 -211q-3 -27 -4 -38h48
q-3 15 -4 35l-1 214l256 -1l33 -6v48q-24 -6 -65 -6h-224v69q0 10 3 27q4 21 19 40h-65q1 -13 2 -17q0 -36 3 -73v-46zM743 684q0 12 3 27q3 19 19 40h-65q4 -54 5 -88v-137q-36 -21 -83 -40q-42 -15 -70 -20q16 -18 37 -43q25 13 52 26l64 34v-139q0 -36 22 -54
q21 -18 86 -18q72 0 93 6q36 10 55 47q9 22 24 80q-9 3 -17 7q-12 3 -30 13q-1 -9 -4 -32q-3 -24 -7 -38q-12 -27 -34 -37q-19 -6 -79 -7q-37 0 -54 8q-16 10 -17 47v139q40 24 83 54q52 36 68 42q15 7 49 16q-18 13 -41 46q-7 -3 -15 -12q-15 -13 -51 -41l-77 -51
q-7 -6 -16 -11v136z" />
  </g>

</svg>
