<?xml version="1.0" standalone="no"?>
<!DOCTYPE svg PUBLIC "-//W3C//DTD SVG 1.1//EN" "http://www.w3.org/Graphics/SVG/1.1/DTD/svg11.dtd" >
<svg xmlns="http://www.w3.org/2000/svg" xmlns:xlink="http://www.w3.org/1999/xlink" version="1.1" viewBox="-10 0 1010 1000">
   <path fill="currentColor"
d="M200 4q96 5 112 14q0 3 -5 8q-20 20 -23 70q-6 68 -6 160q54 -75 67 -113q78 66 70 66q-27 0 -137 139l-10 172l125 163v-68q27 5 60 6q15 1 34 2h47h83q0 -71 -8 -103q15 1 44 3q53 3 55 7q3 3 -2 10q-14 21 -14 50v33h102q96 0 141 -8v84q-65 -8 -139 -8h-104v107
q0 72 8 109h-91q9 -41 8 -109v-107h-81q-55 0 -133 8l20 32q-51 17 -82 41q-33 -83 -97 -174q-25 133 -113 273q-60 -38 -105 -41q107 -94 142 -218q39 -127 38 -387q0 -65 -3 -131q-2 -50 -3 -90zM514 8q81 19 101 34q1 4 -6 11q-36 37 -75 124v234q3 98 8 121h-82
q8 -55 8 -117v-153q-45 86 -77 133q-35 -29 -76 -43q144 -136 199 -344zM83 181q18 3 55 6q22 3 35 4q-9 15 -12 59q-9 124 -18 221q-45 -8 -85 -8q37 -117 25 -282zM542 338q39 -13 107 -50q9 -5 14 -8v-117q0 -113 -8 -151q13 1 35 2q67 3 64 8q2 2 -1 8q-17 30 -17 107
v94q80 -74 103 -125q35 25 75 59q6 5 9 8q-55 29 -187 143v91q-1 28 12 33q11 7 60 5q50 2 57 -91q33 27 83 37q-25 82 -49 101q-24 23 -91 22q-98 -1 -121 -13q-26 -9 -24 -52v-93q-47 28 -76 43q-15 -34 -45 -61z" />
</svg>
