<?xml version="1.0" standalone="no"?>
<!DOCTYPE svg PUBLIC "-//W3C//DTD SVG 1.1//EN" "http://www.w3.org/Graphics/SVG/1.1/DTD/svg11.dtd" >
<svg xmlns="http://www.w3.org/2000/svg" xmlns:xlink="http://www.w3.org/1999/xlink" version="1.1" viewBox="-10 0 1034 1024">
  <g transform="matrix(1 0 0 -1 0 820)">
   <path fill="currentColor"
d="M136 314l132 39v-156q0 -21 -6 -27q-12 -15 -49 -15q-27 0 -63 6q9 -30 12 -53l84 8q4 1 13 4q28 10 39 29q7 15 8 46v168q73 21 127 35q0 9 1 21q1 9 4 28q-51 -21 -105 -36q-13 -6 -27 -9v141h65q43 0 62 -6v47q-9 0 -12 -3l-98 -2h-17v102q0 10 2 29q1 21 11 38h-56
q1 -33 5 -67v-102q-150 0 -169 3q-3 0 -10 2v-47q9 4 25 5l154 1v-151q-84 -22 -137 -34q-42 -9 -80 -9q12 -28 20 -59q12 6 36 15zM74 -139l27 -16q3 3 5 7q24 33 88 133q18 27 42 49q-27 15 -45 30q-24 -48 -51 -90q-57 -84 -87 -101zM782 563q-3 -94 -16 -265l-2 -62
q0 -39 22 -54q24 -15 72 -16q42 0 62 10q21 10 31 34q16 33 29 78q-19 6 -48 25q0 -66 -18 -93q-13 -18 -52 -18q-27 0 -46 8q-15 9 -15 30q0 30 6 126q13 193 18 212q1 16 5 34q-33 -9 -58 -13l-135 -18q1 84 7 117q3 28 14 54q-27 0 -35 2q-10 1 -29 6q6 -54 7 -81
l-2 -102q-121 -12 -128 -12q-6 0 -12 1q3 -25 7 -51q33 12 65 16l65 9q-6 -105 -33 -174l-66 65q-16 -19 -33 -32q9 -7 16 -12q15 -12 48 -44q6 -6 16 -19q-36 -58 -79 -101q-60 -55 -124 -70q30 -24 43 -42q118 84 191 186q51 -51 75 -96q13 15 36 35q-24 30 -50 57
q-24 27 -44 44q34 87 43 209zM393 60q-24 -10 -42 -14q1 -10 8 -24q18 -37 28 -71q9 -36 23 -98q19 9 44 13l-30 99zM615 84q-19 -12 -41 -18q12 -21 32 -71q15 -37 23 -64q6 -24 10 -51q13 6 44 19l-34 102q-15 39 -34 83zM921 -127q3 0 5 2q3 3 18 11q3 0 9 5
q-54 99 -136 209q-15 -13 -37 -25q21 -24 36 -45l38 -57q25 -40 39 -64q10 -21 19 -43q4 4 9 7v0z" />
  </g>

</svg>
