<?xml version="1.0" standalone="no"?>
<!DOCTYPE svg PUBLIC "-//W3C//DTD SVG 1.1//EN" "http://www.w3.org/Graphics/SVG/1.1/DTD/svg11.dtd" >
<svg xmlns="http://www.w3.org/2000/svg" xmlns:xlink="http://www.w3.org/1999/xlink" version="1.1" viewBox="-10 0 1010 1000">
   <path fill="currentColor"
d="M548 -12q82 1 97 8q1 2 -4 10q-10 17 -12 30q-7 38 -8 79h59q22 -1 52 -3v73q-34 -6 -111 -6v123h42q123 -140 164 -244q74 37 94 59q0 2 -6 5q-22 9 -42 31q-13 14 -55 64q-56 66 -76 87h101q63 0 103 -6v73q-17 -2 -40 -3q-11 -1 -26 -1h-37h-153q-53 56 -103 96h223
q64 -1 109 -4v71q-18 -2 -42 -3q-12 -1 -27 -1h-40h-139q-1 3 -4 8q-26 62 -54 93l204 -6q39 0 70 -8q-39 222 -72 256q-42 41 -170 40q-12 -62 -36 -101q30 12 72 14q41 3 57 -6q48 -34 56 -133q-193 1 -252 20q-12 -37 -34 -72q31 -6 54 -27q26 -36 37 -80h-87
q-55 43 -107 76q-31 -36 -72 -56q134 -49 272 -179h-123q-49 0 -70 1q-25 1 -43 3v-71q11 4 117 4h64v-123h-12q-81 0 -115 4v-70q44 3 113 4h14q0 -42 -1 -99q-1 -23 -1 -30zM196 0q96 -3 108 6q1 1 -5 10q-16 26 -17 46q-10 141 -8 216v20q38 -46 87 -139q76 61 72 68
q-1 4 -10 7q-17 4 -30 16q-45 41 -123 129q0 12 -5 88q-1 13 -1 18q17 21 46 57q68 81 127 161l-78 49q-48 -100 -109 -176q-44 161 -119 276q-47 -27 -95 -40q139 -103 160 -359q21 -232 0 -453zM79 203q69 1 82 10q2 2 -3 14q-8 18 -9 29q-6 37 -12 130q-4 51 -6 73
q-44 -10 -77 -8q23 -111 25 -248z" />
</svg>
