<?xml version="1.0" standalone="no"?>
<!DOCTYPE svg PUBLIC "-//W3C//DTD SVG 1.1//EN" "http://www.w3.org/Graphics/SVG/1.1/DTD/svg11.dtd" >
<svg xmlns="http://www.w3.org/2000/svg" xmlns:xlink="http://www.w3.org/1999/xlink" version="1.1" viewBox="-10 0 1010 1000">
   <path fill="currentColor"
d="M677 -2q19 71 23 131h129q66 0 98 -8q-8 28 -8 90q0 25 6 62q2 9 2 11h-90q6 -17 6 -89h-367q0 77 6 91h-83q7 -19 6 -34q-79 62 -129 121q0 78 -10 151l155 153l-72 58q-20 -36 -66 -98q-20 -26 -33 -43q-45 185 -119 287q-38 -34 -97 -47q87 -77 127 -187
q39 -105 39 -289l-2 -252q0 -18 -6 -90q92 3 106 16q0 4 -7 15q-13 22 -13 37l-4 204q40 -47 65 -95q26 15 66 49q-1 -81 -8 -123q35 10 105 10h107q-8 -66 -36 -117zM75 205l84 10q-9 24 -24 281q-46 -10 -91 -6q34 -133 31 -285zM450 300q3 0 10 1q39 7 100 7h212
q37 0 80 -6q11 -2 13 -2v85q-2 0 -14 -2q-43 -6 -75 -6h-213q-50 0 -99 7q-11 1 -14 1v-85zM923 457v81q-2 0 -8 -1q-34 -5 -88 -5h-81v238q-6 42 50 38q53 1 67 -19q16 -17 20 -86q31 26 91 47q-18 75 -49 103q-29 29 -90 28h-63q-105 3 -99 -77v-272h-76q1 177 -73 266
q-42 55 -161 117q-33 -51 -83 -77q125 -24 184 -92q58 -65 60 -214h-38q-53 0 -102 7q-9 1 -11 1v-83q2 0 10 1q45 7 103 7h341q37 0 83 -6q11 -2 13 -2z" />
</svg>
