<?xml version="1.0" standalone="no"?>
<!DOCTYPE svg PUBLIC "-//W3C//DTD SVG 1.1//EN" "http://www.w3.org/Graphics/SVG/1.1/DTD/svg11.dtd" >
<svg xmlns="http://www.w3.org/2000/svg" xmlns:xlink="http://www.w3.org/1999/xlink" version="1.1" viewBox="-10 0 1034 1024">
  <g transform="matrix(1 0 0 -1 0 820)">
   <path fill="currentColor"
d="M272 681q0 36 16 74l-48 1q-6 3 -11 2q0 -1 1 -4q0 -1 1 -4q0 -27 3 -57l-1 -289q-1 -6 -1 -14q0 -42 -2 -59q-6 -109 -46 -214q-24 -58 -68 -125q-33 -46 -74 -76q31 -15 50 -30l53 77q18 27 33 55q48 90 71 173q93 -87 114 -132q15 19 37 38l-141 136l12 162l61 71
l41 45q24 27 58 46q-21 13 -47 38q-48 -72 -112 -143v229zM137 433q0 6 11 50q9 40 21 65q-27 1 -56 9q-4 -111 -42 -230l25 -4q6 0 19 -7l12 51q4 33 10 66zM332 353q15 -22 28 -48l79 22q30 9 66 23q76 30 180 91q129 -78 267 -112q10 22 23 38q3 3 7 9h-12q-39 0 -112 23
q-36 12 -70 28q-34 15 -77 39q91 90 160 208q-28 -1 -58 -5h-226q27 54 61 78q-28 10 -53 25q-22 -49 -42 -83q-16 -28 -45 -67q-30 -39 -46 -55q-18 -15 -43 -28q30 -12 49 -26q33 36 55 65q19 25 40 55h238q-49 -82 -121 -147q-60 42 -93 78q-19 -18 -41 -33
q27 -10 50 -28q25 -21 52 -39q-85 -55 -165 -83q-78 -27 -131 -28h-20zM646 51q-219 0 -236 3q-4 1 -9 2v-47q12 6 52 6h193l-5 -175h48q-3 16 -5 34v141h187q43 0 62 -6v47q-9 0 -12 -3q-27 0 -50 -2h-187v88h111q42 0 62 -5v46q-4 0 -8 -1q-3 0 -4 -2l-94 -2h-67v88h133
q42 0 63 -5v47q-7 0 -12 -4l-184 -2v33q0 12 15 63h-58q0 -1 1 -5l4 -91h-144q-33 0 -55 3q-4 0 -11 3v-47q15 4 66 5h144v-88h-120q-36 0 -54 3q-3 0 -11 2v-46q22 3 47 5h138v-88z" />
  </g>

</svg>
