<?xml version="1.0" standalone="no"?>
<!DOCTYPE svg PUBLIC "-//W3C//DTD SVG 1.1//EN" "http://www.w3.org/Graphics/SVG/1.1/DTD/svg11.dtd" >
<svg xmlns="http://www.w3.org/2000/svg" xmlns:xlink="http://www.w3.org/1999/xlink" version="1.1" viewBox="-10 0 1034 1024">
  <g transform="matrix(1 0 0 -1 0 820)">
   <path fill="currentColor"
d="M306 454l57 76q24 34 58 59q-24 15 -48 34q-33 -66 -107 -161v233q0 31 15 71q-12 -1 -22 -2l-36 4q0 -3 2 -7l3 -114l-1 -275q-3 -57 -12 -122q-13 -85 -48 -164q-36 -75 -69 -118q-25 -30 -62 -56q30 -9 53 -26q94 124 152 290l88 -87q45 -51 62 -86q15 21 38 37
l-177 180q6 57 8 95q3 34 4 86zM651 126h-194q-36 0 -55 2q-4 0 -11 3v-46q18 3 66 4h194l-1 -212q-3 -27 -4 -35h48q-3 16 -5 34v213h221q45 0 62 -4v46q-3 0 -8 -2q-3 0 -4 -1q-27 0 -50 -2h-221v145h176q40 0 62 -6v47q-6 0 -9 -2q-1 0 -3 -1l-75 -2q-390 0 -409 3
q-3 0 -10 2v-47q63 6 76 6h154v-145zM107 577q0 -15 1 -23q0 -19 -7 -76q-6 -48 -15 -91q-3 -13 -19 -62q24 0 47 -6q3 37 10 73q12 67 12 82q6 57 23 92q-21 1 -40 6q-6 3 -12 5zM478 393l43 4l331 -1l39 -4q-3 30 -5 62l1 234q0 21 4 46q-49 -4 -56 -5l-331 1q-3 0 -45 4
q1 -33 5 -67l-1 -235l-4 -38v-2q9 1 19 1zM501 433v109h347v-109h-347zM501 578v115h347v-115h-347z" />
  </g>

</svg>
