<?xml version="1.0" standalone="no"?>
<!DOCTYPE svg PUBLIC "-//W3C//DTD SVG 1.1//EN" "http://www.w3.org/Graphics/SVG/1.1/DTD/svg11.dtd" >
<svg xmlns="http://www.w3.org/2000/svg" xmlns:xlink="http://www.w3.org/1999/xlink" version="1.1" viewBox="-10 0 1034 1024">
  <g transform="matrix(1 0 0 -1 0 820)">
   <path fill="currentColor"
d="M74 -94q24 -12 33 -19l6 -6q21 21 36 42q27 36 60 73q15 19 44 36q-27 15 -47 32q-12 -15 -21 -30q-15 -24 -47 -63q-33 -39 -69 -62q1 -1 5 -3zM250 429q-138 0 -161 3q-3 0 -9 2v-46q25 3 52 5l790 -1q16 0 29 -4v46q-9 0 -13 -3q-27 0 -50 -2h-355v110h230q40 0 63 -5
v46q-9 0 -13 -3q-27 0 -50 -2h-230v110h268q40 0 63 -5v46q-10 0 -13 -3l-89 -2l-593 1q-12 0 -24 4v-46q24 4 44 5h307v-256h-208v113q0 13 2 29q1 19 11 38h-57q3 -9 4 -16q1 -28 2 -51v-113zM271 118h583q-4 -67 -13 -132q-9 -52 -31 -70q-21 -15 -67 -15q-27 0 -66 5
q6 -24 10 -52q16 0 33 2q112 7 139 58q9 21 15 42l20 156l6 48l-31 -3q-13 0 -27 -2l-587 -1l14 101h523q36 0 62 -5v46q-10 0 -13 -3l-84 -2h-483q3 28 5 42q3 19 19 37q-27 3 -58 10q-1 -15 -1 -32l-3 -40q-3 -57 -28 -195q31 3 63 5zM389 -49q-1 12 -17 72l-8 26
q-16 -6 -42 -13q15 -48 23 -78q4 -28 10 -75q36 12 46 12q-1 12 -4 18zM503 65q-3 -3 -7 -4q-6 -1 -20 -9q27 -37 40 -63q15 -27 32 -69q13 12 19 13q0 1 19 9q-27 55 -71 132zM735 -1l-24 39l-47 67q-18 -15 -38 -28q19 -19 50 -63q27 -39 36 -64q18 18 38 27q-7 12 -15 22
v0z" />
  </g>

</svg>
