<?xml version="1.0" standalone="no"?>
<!DOCTYPE svg PUBLIC "-//W3C//DTD SVG 1.1//EN" "http://www.w3.org/Graphics/SVG/1.1/DTD/svg11.dtd" >
<svg xmlns="http://www.w3.org/2000/svg" xmlns:xlink="http://www.w3.org/1999/xlink" version="1.1" viewBox="-10 0 1010 1000">
   <path fill="currentColor"
d="M181 0q99 2 109 14q0 5 -7 14q-11 16 -11 30q-1 15 -1 41q-5 133 -5 163q29 -28 79 -97q66 44 68 64q-2 4 -13 8q-19 7 -33 17q-85 64 -103 84q0 19 -2 82q-1 31 -2 49q99 96 133 135l-68 53q-37 -67 -79 -113q-28 178 -123 316q-37 -33 -85 -46q149 -127 154 -427
q3 -63 3 -121q1 -58 -1 -109q-3 -104 -13 -157zM877 24q-5 20 -4 76v226q0 54 4 79q-29 -4 -79 -4h-290q-60 -1 -83 4q6 -14 6 -73v-232q0 -46 -4 -76q28 4 81 4h292q44 -1 77 -4zM798 98h-292v85h292v-85zM65 217q71 -2 88 6q0 1 -1 3q-10 11 -15 52q-4 24 -10 187
q-38 -7 -77 -2q10 -58 14 -127q4 -73 1 -119zM506 252v80h292v-80h-292zM417 469q92 8 148 8h211q52 0 147 -8v81q-36 -6 -153 -6h-74v107h117q72 -1 153 -8v84q-89 -8 -153 -8h-117v75q0 49 1 67q1 22 3 34h-85q5 -18 6 -101v-75h-111q-77 1 -147 8v-84q59 7 147 8h111
v-107h-52q-76 0 -152 6v-81z" />
</svg>
