<?xml version="1.0" standalone="no"?>
<!DOCTYPE svg PUBLIC "-//W3C//DTD SVG 1.1//EN" "http://www.w3.org/Graphics/SVG/1.1/DTD/svg11.dtd" >
<svg xmlns="http://www.w3.org/2000/svg" xmlns:xlink="http://www.w3.org/1999/xlink" version="1.1" viewBox="-10 0 1010 1000">
   <path fill="currentColor"
d="M214 -4q9 1 26 2q72 5 70 10q1 3 -6 7q-14 10 -14 25v204q38 -27 85 -109q86 48 83 56q-1 3 -8 4q-20 3 -41 22q-55 48 -119 111q2 122 -12 246l47 -40q77 112 106 159v-42q0 -39 -1 -55q-1 -20 -3 -34q37 7 95 8h226q68 0 99 -6q-2 11 -3 31q-1 16 -1 60v157q0 77 6 89
h-87q4 -20 4 -61h-262q0 38 4 57h-81q4 -23 4 -89v-105l-76 43q-9 -52 -77 -154q-35 143 -127 279q-46 -35 -95 -41q165 -136 164 -413q1 -85 0 -184q-1 -98 -6 -237zM595 -4q102 13 111 26q0 2 -6 7q-12 9 -12 19q67 216 290 278q-51 38 -67 81q-208 -108 -270 -305
q-108 203 -254 329q-24 -28 -72 -52q201 -131 280 -383zM99 187q88 7 93 16q1 1 -4 8q-16 21 -17 39q-8 112 -28 238q-38 -10 -87 -3q42 -109 43 -298zM635 223q43 49 73 115l-77 31q-18 -61 -64 -119zM458 379q21 5 109 6h147h79q26 -1 40 -2q-57 84 -101 171
q-34 -16 -79 -22q36 -41 57 -87h-129q-71 0 -91 1q-26 0 -32 3v-70zM768 635h-262v137h262v-137z" />
</svg>
