<?xml version="1.0" standalone="no"?>
<!DOCTYPE svg PUBLIC "-//W3C//DTD SVG 1.1//EN" "http://www.w3.org/Graphics/SVG/1.1/DTD/svg11.dtd" >
<svg xmlns="http://www.w3.org/2000/svg" xmlns:xlink="http://www.w3.org/1999/xlink" version="1.1" viewBox="-10 0 1010 1000">
   <path fill="currentColor"
d="M200 -6q89 4 96 14q0 2 -6 7q-14 12 -14 23q0 26 -1 89q-1 97 -1 157q47 -46 73 -95q6 4 17 11q62 40 57 44q-1 4 -14 7q-19 6 -28 13q-46 37 -105 103q-2 123 -18 209l54 -38q55 78 107 159l-80 49q-29 -95 -83 -152q-29 143 -123 281q-41 -33 -81 -47
q141 -114 152 -425q3 -89 3 -220q-1 -124 -5 -189zM397 66q39 6 170 6h195q82 0 141 -8v75q-73 -6 -157 -6h-125l-18 102h135q55 0 93 -4q-10 66 -16 186q98 -1 127 -6v74q-10 -2 -38 -3q-14 -1 -34 -1h-53h-319q-68 0 -97 1q-34 1 -54 3v-74q46 7 157 8l22 -123
q-73 0 -93 4v-71q24 6 103 6l14 -102h-80q-26 0 -39 1q-28 0 -34 3v-71zM105 193q86 12 82 18q0 3 -5 11q-14 21 -19 52q-3 21 -9 55q-11 68 -25 156q-41 -16 -83 -10q45 -115 59 -282zM754 296h-161l-22 123h171zM427 546q48 7 135 8h168q81 -1 123 -8q-5 21 -4 91v171
q0 70 6 93h-83q4 -18 4 -77h-272q0 46 6 73h-83q4 -17 4 -87v-161q0 -50 -1 -68q-1 -23 -3 -35zM776 617h-272v143h272v-143z" />
</svg>
