<?xml version="1.0" standalone="no"?>
<!DOCTYPE svg PUBLIC "-//W3C//DTD SVG 1.1//EN" "http://www.w3.org/Graphics/SVG/1.1/DTD/svg11.dtd" >
<svg xmlns="http://www.w3.org/2000/svg" xmlns:xlink="http://www.w3.org/1999/xlink" version="1.1" viewBox="-10 0 1034 1024">
  <g transform="matrix(1 0 0 -1 0 820)">
   <path fill="currentColor"
d="M292 190l-32 28l10 130q7 9 13 14q19 25 41 51q24 27 49 58q31 42 66 58q-19 12 -49 36q-40 -72 -119 -162v277q0 10 3 27q4 21 19 40h-66q1 -36 6 -67q0 -297 -3 -341q-3 -54 -11 -124q-10 -63 -37 -125q-37 -87 -91 -143q-22 -19 -49 -36q19 -6 54 -28q51 57 92 128
q42 75 64 163q24 -18 68 -60q42 -40 81 -82q1 3 30 34l-82 75zM109 548l-11 -99q-3 -30 -10 -53q-16 -57 -29 -72q27 0 52 -4q12 42 25 113q9 55 12 68q3 21 21 41zM453 341q-48 3 -61 4q-3 1 -6 1v-46q4 3 52 6l500 -1q22 0 39 -5v46q-19 -4 -65 -5h-176l74 118
q27 40 61 65q-33 12 -58 27q-21 -43 -32 -64q-12 -19 -13 -23l-76 -123h-239zM924 621q-19 -4 -66 -5l-397 3q-3 0 -7 1q-3 1 -6 1v-48q15 6 30 6l380 1q24 0 55 -3q4 0 11 -4v48zM743 650q-10 13 -56 57q-25 25 -59 62q-15 -15 -34 -29q48 -46 78 -77q24 -24 39 -45
q7 9 19 20q6 6 13 12zM472 208q1 -31 5 -64l-1 -256q-3 -27 -4 -39h48q-3 15 -4 38l-1 40h330q-1 -3 -1 -8q-1 -51 -5 -67h50q-4 9 -5 42l-1 250l6 64q-66 -6 -85 -6l-277 1q-33 4 -50 5h-5zM515 -37v204h331v-204h-331zM640 392q-43 70 -95 147q-18 -12 -37 -22
q34 -48 55 -78q13 -21 37 -69q19 12 40 22v0z" />
  </g>

</svg>
