<?xml version="1.0" standalone="no"?>
<!DOCTYPE svg PUBLIC "-//W3C//DTD SVG 1.1//EN" "http://www.w3.org/Graphics/SVG/1.1/DTD/svg11.dtd" >
<svg xmlns="http://www.w3.org/2000/svg" xmlns:xlink="http://www.w3.org/1999/xlink" version="1.1" viewBox="-10 0 1010 1000">
   <path fill="currentColor"
d="M409 -13q119 11 121 19q-1 2 -8 10q-13 14 -14 18q-3 6 -9 31q-5 16 -7 23h264q53 0 137 -12v91q-77 -11 -135 -12h-282q-6 32 -18 68h260q63 0 123 -10v83q-28 -5 -57 -6q-14 -1 -30 -2h-38h-268q-1 -1 -9 20q-12 30 -18 42h385q66 -1 121 -10v87q-48 -8 -117 -10h-52
v66h38q48 0 109 -8v79q-62 -9 -113 -8h-32v75q2 62 -26 78q-25 20 -125 26q-2 -50 -38 -98q113 35 114 -21v-56h-381q-67 78 -155 143q-40 -44 -95 -66q142 -58 252 -212h-98q-78 0 -137 12v-87q56 9 133 10h131l3 -6q18 -38 21 -56h-63q-70 0 -127 8v-83q57 9 123 10h85
q0 -2 1 -5q12 -40 15 -63h-165q-62 1 -121 10v-87q54 9 119 10h177q0 -3 1 -8q7 -66 5 -93zM683 415h-286q-15 31 -44 70h330v-70zM448 566q29 41 56 87l-81 30q-25 -56 -54 -87zM845 693q56 74 95 151l-91 41q-27 -90 -81 -154zM165 699l91 22q-26 26 -89 182
q-43 -23 -92 -28q59 -64 90 -176zM423 721l35 146l-99 12q-2 -74 -22 -152zM651 733q18 77 36 130l-96 14q-9 -82 -33 -139z" />
</svg>
