<?xml version="1.0" standalone="no"?>
<!DOCTYPE svg PUBLIC "-//W3C//DTD SVG 1.1//EN" "http://www.w3.org/Graphics/SVG/1.1/DTD/svg11.dtd" >
<svg xmlns="http://www.w3.org/2000/svg" xmlns:xlink="http://www.w3.org/1999/xlink" version="1.1" viewBox="-10 0 1010 1000">
   <path fill="currentColor"
d="M583 -4q93 -1 90 10q1 3 -3 10q-11 18 -11 40v54h133q105 0 121 -6v83q-25 -8 -125 -8h-129v79h97q72 0 115 -6q-6 29 -6 104v131q0 44 1 62q0 23 3 45q-43 -6 -127 -6h-67v75q213 0 240 -6v76q-10 -5 -165 -4h-77v92q0 29 1 44q1 31 5 38h-88q10 -34 10 -174
q-103 0 -141 2q-38 1 -49 6l4 -16l-66 41q-27 -82 -85 -154q-10 102 -141 289q-41 -34 -89 -49q167 -146 170 -356q7 -159 -2 -402q-1 -51 -8 -80q87 8 98 18q1 3 -5 10q-15 17 -15 36q0 11 1 43q1 86 1 163q59 -57 103 -133q13 10 41 29q39 26 36 29q-1 3 -14 9
q-21 10 -31 19q-47 44 -119 116q-9 8 -14 13q0 162 -8 222l45 -30q26 29 100 141v-40q10 5 51 6q39 2 139 2v-75h-79q-46 0 -68 1q-27 1 -47 3q2 -11 3 -32q1 -17 1 -62v-138q0 -82 -4 -106q18 3 39 3q16 1 66 1h73v-194q0 -25 -3 -53q-1 -10 -1 -15zM91 211q88 11 88 18
q1 3 -3 8q-11 16 -17 47q-3 14 -9 58q-12 78 -23 146q-14 -4 -42 -6t-43 -1q40 -99 49 -270zM792 322h-306v69h306v-69zM792 455h-306v69h306v-69z" />
</svg>
