<?xml version="1.0" standalone="no"?>
<!DOCTYPE svg PUBLIC "-//W3C//DTD SVG 1.1//EN" "http://www.w3.org/Graphics/SVG/1.1/DTD/svg11.dtd" >
<svg xmlns="http://www.w3.org/2000/svg" xmlns:xlink="http://www.w3.org/1999/xlink" version="1.1" viewBox="-10 0 1034 1024">
  <g transform="matrix(1 0 0 -1 0 820)">
   <path fill="currentColor"
d="M136 632q-42 0 -62 5h-4v-46q24 4 52 5l811 -1q16 0 28 -4v46q-3 0 -12 -3l-174 -2h-122q7 6 20 21q51 58 88 77q-30 19 -52 41q-34 -63 -104 -139h-194q18 18 24 22l-30 28l-86 73q-13 -18 -29 -32q48 -36 72 -56q18 -15 33 -35h-259zM72 -142q27 -12 47 -30
q49 67 86 125q25 45 45 61q4 3 9 8q-28 12 -50 28q-58 -138 -137 -192zM173 155l-4 -56q0 -1 -1 -4h48q-3 16 -5 34v119h254v-70q0 -18 -13 -27q-21 -10 -51 -11q-12 0 -31 3q10 -25 17 -47q70 12 91 25q24 18 25 61l1 297l4 46l-61 -6l-239 1q-19 4 -40 5q4 -99 5 -103
v-267zM211 283v83h254v-83h-254zM211 402v81h254v-81h-254zM373 23q48 -99 53 -170q15 6 27 9q18 4 21 5q-12 42 -25 74l-36 98q-15 -7 -40 -16zM578 48q-7 -4 -21 -11q60 -90 84 -167q10 9 26 14q6 3 16 7q-21 45 -41 82q-18 30 -46 86q-9 -4 -18 -11zM624 489
q4 -99 5 -102q0 -85 -2 -119q-1 -4 -1 -11q0 -4 -2 -9h48q-3 16 -5 34l1 155q1 18 13 52h-57zM845 463q0 13 14 63h-57l5 -99v-239q0 -31 -17 -40q-24 -9 -59 -10q-16 0 -43 5q9 -24 16 -49q12 1 20 2q60 9 82 17q18 6 30 24q9 18 9 48v278zM916 -138q12 12 22 17q0 1 1 1
q4 3 11 6q-9 12 -18 22l-50 66q-16 24 -33 41q-37 46 -41 51q-19 -18 -36 -29l50 -56q22 -27 54 -69q25 -39 35 -54q1 3 5 4v0z" />
  </g>

</svg>
