<?xml version="1.0" standalone="no"?>
<!DOCTYPE svg PUBLIC "-//W3C//DTD SVG 1.1//EN" "http://www.w3.org/Graphics/SVG/1.1/DTD/svg11.dtd" >
<svg xmlns="http://www.w3.org/2000/svg" xmlns:xlink="http://www.w3.org/1999/xlink" version="1.1" viewBox="-10 0 1010 1000">
   <path fill="currentColor"
d="M597 4q80 8 95 20q1 2 -5 7q-11 8 -16 17q-18 28 -28 56h153q34 0 81 -4q-5 19 -4 67v200q-1 48 4 68q-22 -4 -77 -4h-292q-65 -1 -81 4q4 -30 4 -72v-91q-25 -3 -60 24q-7 5 -27 21q-49 37 -66 52q-2 33 -6 93q-4 65 -4 80q71 71 141 137l-62 77q-41 -77 -95 -143
q-54 178 -133 280q-35 -32 -85 -37q163 -155 168 -443q2 -66 0 -180q-3 -125 -8 -211q97 3 98 12q1 1 -1 7q-10 28 -13 71q-1 20 -1 69q1 54 1 101q39 -24 85 -87q47 36 66 57v-87q0 -36 -4 -65q29 3 77 4h69q13 -30 26 -100zM798 167h-296v70h296v-70zM83 246q80 0 88 8
q1 1 -2 5q-13 25 -14 57q-1 9 -2 34q-6 81 -10 154l-78 6q12 -38 18 -116q5 -88 0 -148zM502 300v67h296v-67h-296zM405 492q46 4 135 6h244q46 0 115 -5q8 -1 12 -1v80q-50 -10 -125 -10h-105v85h81q66 -3 113 -8v80q-44 -7 -113 -8h-81v89h156q49 0 117 -8v79
q-41 -6 -115 -8h-357q-80 1 -135 8v-79q51 8 135 8h125v-87h-55q-56 0 -119 8v-80q66 8 119 8h55v-87h-67q-94 1 -135 8v-78z" />
</svg>
