<?xml version="1.0" standalone="no"?>
<!DOCTYPE svg PUBLIC "-//W3C//DTD SVG 1.1//EN" "http://www.w3.org/Graphics/SVG/1.1/DTD/svg11.dtd" >
<svg xmlns="http://www.w3.org/2000/svg" xmlns:xlink="http://www.w3.org/1999/xlink" version="1.1" viewBox="-10 0 1034 1024">
  <g transform="matrix(1 0 0 -1 0 820)">
   <path fill="currentColor"
d="M370 471q4 6 11 14q16 24 47 43q-30 16 -50 34q-39 -72 -118 -167v280q0 39 15 80l-58 1q0 -3 2 -7l3 -171v-173q0 -163 -12 -227q-24 -117 -85 -195q-34 -40 -84 -70q28 -16 47 -33q52 54 90 112q45 78 70 175q99 -91 138 -147q10 18 33 37l-163 155l7 125q6 7 14 17
q15 18 28 35q31 42 65 82zM65 277q12 0 32 -4q22 108 29 151q1 13 4 20q3 24 7 32q4 19 17 44q-30 1 -56 7q-9 -157 -46 -250h13zM656 149l-1 -277q-3 -27 -5 -34h49q-3 6 -5 32l-1 272q40 -48 64 -73q19 -21 38 -37q63 -54 108 -83q22 -15 46 -28q12 25 36 49
q-45 6 -102 45q-90 58 -166 163h173q42 0 63 -6v47q-4 0 -8 -1q-3 0 -5 -2q-27 0 -50 -2h-197v98l101 -1l42 -5l-6 64v246h39q37 0 62 -6v47q-3 0 -6 -2q-4 0 -6 -2l-88 -2q0 84 3 94q1 15 10 26h-57q1 -33 5 -66v-54h-266q0 70 3 79q1 13 11 28h-57q1 -33 5 -67v-40
q-60 0 -81 3l-9 3v-47q30 6 58 6h32l-1 -265q-3 -12 -4 -45q60 6 92 6h81v-98l-237 1q-18 3 -23 4v-47q12 6 65 6h164q-67 -96 -158 -170q-66 -51 -124 -64q42 -39 45 -43q87 60 124 95q39 36 111 116q16 19 33 37zM526 348v121h266v-121h-266zM526 505v111h266v-111h-266z
" />
  </g>

</svg>
