<?xml version="1.0" standalone="no"?>
<!DOCTYPE svg PUBLIC "-//W3C//DTD SVG 1.1//EN" "http://www.w3.org/Graphics/SVG/1.1/DTD/svg11.dtd" >
<svg xmlns="http://www.w3.org/2000/svg" xmlns:xlink="http://www.w3.org/1999/xlink" version="1.1" viewBox="-10 0 1010 1000">
   <path fill="currentColor"
d="M216 -6q89 26 101 36q0 2 -10 9q-16 12 -25 21q-11 11 -36 40q-9 10 -12 13h143q77 0 103 -3q-56 82 -119 168h20q63 -1 103 -8q-3 11 -6 38q-1 12 -2 16q113 -144 139 -326q107 16 121 28q0 1 -7 6q-22 15 -33 34q-19 36 -45 101h192q65 -1 90 -8v81q-24 -6 -90 -7
q-23 175 -77 257q77 48 178 70q-45 44 -55 87q-81 -28 -171 -97q-99 85 -162 109q-16 -35 -62 -67q96 -29 169 -90q-57 -72 -92 -168q-10 20 -33 43q-23 -19 -62 -27v236q2 31 8 55q-30 -7 -107 -8h-163q-82 1 -129 8v-83q38 9 133 10h181v-81h-163q-102 0 -129 7v-83
q40 9 129 10h163v-79h-183q-86 0 -125 8v-80q38 8 125 8h58q30 -31 71 -99h-155q-41 51 -71 91q-31 -24 -71 -37q102 -87 168 -239zM770 233h-145q-18 38 -34 65l36 -12q20 80 85 163q42 -85 58 -216zM819 683q43 63 102 186l-94 28q-26 -93 -93 -190zM147 685l91 30
q-47 117 -95 188q-16 -12 -83 -30q75 -119 87 -188zM611 699q38 95 58 172l-94 14q-2 -56 -53 -176zM401 705q22 65 43 174l-89 10q-8 -87 -42 -176z" />
</svg>
