<?xml version="1.0" standalone="no"?>
<!DOCTYPE svg PUBLIC "-//W3C//DTD SVG 1.1//EN" "http://www.w3.org/Graphics/SVG/1.1/DTD/svg11.dtd" >
<svg xmlns="http://www.w3.org/2000/svg" xmlns:xlink="http://www.w3.org/1999/xlink" version="1.1" viewBox="-10 0 1034 1024">
  <g transform="matrix(1 0 0 -1 0 820)">
   <path fill="currentColor"
d="M404 595q-22 -33 -45 -61l-57 -69q-150 0 -169 3q-3 1 -8 2v-45q51 4 100 5h232v-100q-267 0 -290 3q-3 0 -9 2v-45q24 4 62 5h237v-102l-306 1q-9 0 -23 4v-46q12 6 47 6l283 -1q21 -1 42 -5q-3 27 -5 54l1 227l4 37q-27 -1 -53 -5h-95q13 15 26 31l70 93q18 21 37 46
q-18 -1 -30 -2q-22 -3 -30 -3h-179q42 60 58 74q15 18 42 33q-24 15 -49 36q-25 -42 -51 -78l-68 -87q-67 -82 -135 -117q28 -12 49 -27q81 82 125 131h187zM85 -124q18 -6 26 -13q6 -3 17 -13q39 57 91 139q22 39 53 64q-13 6 -22 11q-12 6 -27 20q-10 -24 -24 -48
q-15 -27 -43 -69q-36 -55 -71 -91zM393 60q-6 0 -12 -2q9 -39 12 -56q9 -51 9 -99q0 -15 -2 -45q18 3 47 4q0 30 -5 75l-17 129q-9 -4 -22 -5q-6 0 -10 -1zM809 556q-10 -45 -38 -115t-45 -92q-9 10 -15 19q-3 6 -9 13q-15 21 -34 55l-18 42q-25 -15 -51 -24q22 -21 50 -64
l29 -43q10 -15 26 -35q-28 -43 -85 -95q-52 -43 -98 -52q30 -15 54 -36q94 75 159 153q27 -24 65 -51q36 -24 76 -48q25 -13 51 -28q9 -6 23 -13q12 27 33 49q-54 10 -106 37q-63 36 -121 87q30 60 47 101q0 3 51 140h37q40 0 63 -5v45q-6 0 -8 -2q-3 0 -5 -1q-27 0 -50 -2
h-233q7 21 17 42q22 54 36 73q9 15 33 40q-30 10 -58 26q-24 -87 -78 -191q-33 -61 -54 -93q-19 -24 -46 -44q31 -7 53 -21q30 55 77 133h172zM663 -116l-24 109q-9 39 -29 96q-22 -7 -44 -11q9 -24 17 -47q6 -22 14 -48q13 -58 16 -107q18 6 25 7q12 1 25 1zM935 -94
q1 0 11 7l-117 155q-36 48 -47 59q-19 -16 -41 -30q49 -42 98 -106l35 -49l31 -58q1 1 7 5q10 10 23 17v0z" />
  </g>

</svg>
