<?xml version="1.0" standalone="no"?>
<!DOCTYPE svg PUBLIC "-//W3C//DTD SVG 1.1//EN" "http://www.w3.org/Graphics/SVG/1.1/DTD/svg11.dtd" >
<svg xmlns="http://www.w3.org/2000/svg" xmlns:xlink="http://www.w3.org/1999/xlink" version="1.1" viewBox="-10 0 1010 1000">
   <path fill="currentColor"
d="M750 2q90 -1 89 6q1 4 -3 12q-13 28 -13 78h20q28 0 67 -5l21 -3v83q-8 -1 -25 -2q-45 -4 -67 -4h-16v183q0 57 6 104v3q-38 -6 -107 -6h-39v77h144q34 0 85 -7q18 -2 28 -3v82q-11 -1 -36 -3q-52 -5 -81 -5h-81q65 133 222 186q2 4 -8 14q-26 28 -51 68
q-143 -73 -222 -266v192q0 37 5 80q1 17 2 25h-87q7 -58 8 -105v-194q-102 201 -212 268q-33 -26 -66 -42q-14 -6 -12 -10q148 -63 227 -216h-68q-23 0 -68 4q-29 3 -43 4v-80q8 1 26 3q46 5 77 5h139v-75h-40q-70 0 -109 6q6 -48 6 -109v-183h-24q-31 0 -87 8v-77q4 0 12 1
q51 7 73 7h26v-38q0 -24 -8 -64q87 1 98 10q1 4 -4 11q-16 28 -16 79h218q0 -51 -5 -88q-2 -11 -1 -14zM194 10q61 0 81 2q25 1 27 6q2 3 -2 14q-22 81 -22 274q8 -8 23 -24q40 -40 66 -75q8 9 23 25q44 44 37 48q-3 5 -15 10q-53 18 -134 85q0 5 -1 16q-3 91 -11 145
q58 51 157 129l-60 60q-55 -76 -109 -117q-50 174 -147 277q-29 -38 -79 -51q150 -115 170 -342q5 -53 4 -250v-89q0 -15 -4 -70q-2 -45 -4 -73zM536 167v77h220v-77h-220zM69 237h72q3 58 2 137q-1 78 -6 128h-74q8 -50 10 -126q1 -81 -4 -139zM536 304v85h220v-85h-220z
" />
</svg>
