<?xml version="1.0" standalone="no"?>
<!DOCTYPE svg PUBLIC "-//W3C//DTD SVG 1.1//EN" "http://www.w3.org/Graphics/SVG/1.1/DTD/svg11.dtd" >
<svg xmlns="http://www.w3.org/2000/svg" xmlns:xlink="http://www.w3.org/1999/xlink" version="1.1" viewBox="-10 0 1034 1024">
  <g transform="matrix(1 0 0 -1 0 820)">
   <path fill="currentColor"
d="M131 268l149 42l-1 -202q-3 -15 -4 -43q21 1 34 3q24 3 33 3h406q9 0 28 -2q15 -1 35 -4q-3 30 -5 61l1 216l4 43q-30 -1 -62 -5h-283q15 9 37 19q24 10 47 24q15 9 32 16q54 28 57 30l304 -1q15 0 27 -4v46q-6 0 -8 -1q-10 0 -54 -4h-217q27 19 41 32q117 87 131 94
q12 9 33 16l16 6q-15 12 -20 18q-12 12 -25 29q-12 -15 -33 -36q-19 -18 -55 -45q-75 -60 -160 -114h-95v101h154q40 0 63 -5v46q-12 0 -18 -3l-86 -2h-113q0 87 3 93q1 16 11 30h-57q1 -33 5 -66v-57q-273 0 -293 3q-3 0 -10 2v-46q24 4 44 5h259v-101l-389 1l-18 2l-11 2
v-46q24 4 44 5h445q-25 -15 -47 -25q-31 -15 -112 -48q-24 -6 -53 -16q-54 4 -69 5l3 -34l-81 -24q-45 -12 -77 -17q-25 -3 -58 -4q19 -25 30 -49q18 6 38 11zM317 107v97h451v-97h-451zM768 240h-451v84l46 18h405v-102zM100 -145q25 -10 44 -27q36 45 78 101q33 45 66 72
q-27 16 -49 34q-24 -48 -57 -92q-49 -66 -82 -88zM453 -165q4 3 9 5q12 6 30 11q-13 49 -63 167q-18 -7 -43 -17q51 -78 62 -168q1 1 5 2zM621 26q-19 -12 -41 -21q60 -81 79 -164q21 16 44 25q-12 27 -29 61zM940 -150q9 6 23 17q-15 27 -59 82l-65 82q-9 -9 -38 -30
q40 -36 82 -91q22 -30 42 -76q7 9 15 16v0z" />
  </g>

</svg>
