<?xml version="1.0" standalone="no"?>
<!DOCTYPE svg PUBLIC "-//W3C//DTD SVG 1.1//EN" "http://www.w3.org/Graphics/SVG/1.1/DTD/svg11.dtd" >
<svg xmlns="http://www.w3.org/2000/svg" xmlns:xlink="http://www.w3.org/1999/xlink" version="1.1" viewBox="-10 0 1034 1024">
  <g transform="matrix(1 0 0 -1 0 820)">
   <path fill="currentColor"
d="M223 274q0 -22 -5 -63h47q-3 15 -4 36v361q6 22 34 66q24 45 48 61q-30 12 -53 29q-55 -144 -146 -260q-42 -51 -78 -73q24 -7 50 -27q30 36 50 62q21 27 57 80v-272zM509 233q-3 -39 -10 -77q-15 -72 -81 -131q-51 -43 -147 -80q-39 -13 -76 -20q-42 -6 -108 -12
q15 -18 29 -47q51 10 93 22q37 9 66 19q45 15 103 46q114 66 155 184q34 -57 47 -73q36 -48 110 -94q27 -19 95 -47q66 -25 142 -51q9 19 36 53q-165 12 -288 97q-93 64 -125 174q3 18 14 31zM220 37q22 -7 43 -18l54 91q24 40 48 57q-13 3 -52 20q-7 -19 -17 -35
q-3 -7 -17 -29q-9 -18 -43 -69q-7 -6 -16 -17zM303 259l11 -11q4 -9 20 -25q46 19 74 34q24 12 49 28q73 48 143 115v-121q0 -21 -3 -50l-2 -13h47q-3 15 -4 33l-1 151q24 -15 81 -54q66 -45 140 -101l44 -37l6 9q10 18 22 27q-16 13 -33 24q-39 30 -205 140q-1 1 -2 1
l213 -3q3 0 10 -3v45q-16 -4 -63 -5h-213q0 21 3 40t18 35h-63q0 -9 3 -15l2 -60l-278 3q-3 1 -10 2v-45q18 6 65 6h182q-132 -126 -262 -145q3 -1 6 -5zM393 729l5 -101l-5 -96q60 6 66 6l334 -1q10 0 46 -5q-4 49 -5 76q0 72 2 85q0 18 3 36q-31 -1 -63 -5l-336 1
q-19 3 -47 4zM434 572v118h363v-118h-363zM806 199l-40 -75q-4 -6 -9 -14q-21 -33 -41 -58q24 -7 40 -20q21 33 37 62q30 51 41 63q7 9 27 19q-36 16 -52 28q-1 -1 -3 -5v0z" />
  </g>

</svg>
