<?xml version="1.0" standalone="no"?>
<!DOCTYPE svg PUBLIC "-//W3C//DTD SVG 1.1//EN" "http://www.w3.org/Graphics/SVG/1.1/DTD/svg11.dtd" >
<svg xmlns="http://www.w3.org/2000/svg" xmlns:xlink="http://www.w3.org/1999/xlink" version="1.1" viewBox="-10 0 1010 1000">
   <path fill="currentColor"
d="M653 -13q51 68 63 95l-57 31h77h68q68 1 87 -1q-6 29 -6 85v91q0 28 4 62q-38 -6 -139 -6h-288q0 26 -1 65q-1 22 -1 30h286q133 0 165 -6q-2 18 -3 44q-1 13 -1 30v45v270q2 46 -18 60q-14 15 -91 29q5 -36 -18 -75q29 9 49 0q9 -3 8 -42v-117h-73q0 131 6 167h-76
q7 -46 8 -167h-71q0 133 4 159h-66q6 -21 6 -159h-75v73q0 117 6 145h-79q7 -45 8 -149v-164q-25 160 -118 258q-21 -28 -71 -50q170 -96 153 -546q0 -44 -1 -104q-1 -26 -1 -34q25 8 125 7h111q-9 -42 -54 -91zM464 181v95h359v-95h-359zM87 213q8 1 24 4q66 11 64 14
q1 2 -4 9q-16 19 -20 42q-21 124 -28 205q-36 -13 -83 -14q34 -91 47 -260zM500 498v119h75v-119h-75zM631 498v119h71v-119h-71zM764 498v119h73v-119h-73zM357 619l-57 48q-26 -60 -56 -93q-29 150 -117 291q-29 -27 -85 -45q132 -129 146 -373q7 -132 9 -216t-1 -149
q0 -53 -2 -74q10 1 29 4q67 7 65 12q1 3 -6 8q-15 10 -16 26q-2 28 -3 119q0 67 -1 107q45 -57 55 -105q5 3 14 8q62 36 58 42q0 6 -9 11q-8 4 -11 8q-84 105 -111 137q0 57 -4 115q30 30 103 119z" />
</svg>
