<?xml version="1.0" standalone="no"?>
<!DOCTYPE svg PUBLIC "-//W3C//DTD SVG 1.1//EN" "http://www.w3.org/Graphics/SVG/1.1/DTD/svg11.dtd" >
<svg xmlns="http://www.w3.org/2000/svg" xmlns:xlink="http://www.w3.org/1999/xlink" version="1.1" viewBox="-10 0 1034 1024">
  <g transform="matrix(1 0 0 -1 0 820)">
   <path fill="currentColor"
d="M471 422l405 -1l41 -4q-4 48 -5 95q0 69 2 83q0 16 3 33q-57 -6 -83 -6l-364 1q-3 0 -41 5q1 -33 5 -66l-1 -291l-13 -127q-3 -13 -5 -26q-31 -118 -104 -186q-21 -18 -50 -28q25 -15 49 -37q34 37 54 62q15 18 30 44q48 82 66 182q10 76 11 184v83zM471 458v128h403
v-128h-403zM481 -80q-3 -30 -3 -53l-2 -11h48q-1 3 -1 5q-3 6 -3 30l-1 215h104v-119q0 -22 -3 -51q0 -4 -3 -11h49q-1 3 -1 5q-1 3 -4 57v119h94l-1 -123q-1 -7 -2 -36q0 -4 -3 -11h49q-3 7 -4 33l-1 137h109v-182q0 -18 -8 -27q-9 -9 -33 -9q-15 0 -36 2q-18 0 -40 6
q1 -4 3 -10q4 -21 6 -39l100 5q27 4 37 20q7 15 8 39l1 374q1 22 5 46l-60 -6l-370 1q-15 4 -36 5h-3l5 -61v-350zM623 142h-104v148h104v-148zM661 142v148h94v-148h-94zM793 142v148h109v-148h-109zM565 736q9 -6 18 -11q18 -9 36 -25q54 -39 71 -55l23 -21q12 18 21 25
q1 1 8 6l-81 62l-72 50q-9 -15 -24 -31zM274 180q-9 7 -16 16l6 157q36 43 67 85q9 15 20 29q9 13 19 24q13 18 37 26q-22 18 -50 45q-15 -34 -24 -51q-40 -66 -70 -105v286q0 33 13 67h-56q1 -6 2 -13q1 -27 3 -54v-377q0 -48 -6 -117q-4 -52 -19 -103q-36 -120 -108 -187
q-21 -18 -39 -25q28 -15 40 -25q3 -1 8 -7q54 63 94 135q19 39 34 75q12 37 22 90q75 -72 95 -107q13 19 32 33q-28 30 -41 41zM117 310q1 9 4 17q7 25 14 54q18 112 22 122q7 21 21 35q-30 1 -62 13v-20q0 -39 -11 -107q-4 -39 -12 -64q-6 -18 -22 -52q18 0 44 -7q0 4 2 9
v0z" />
  </g>

</svg>
