<?xml version="1.0" standalone="no"?>
<!DOCTYPE svg PUBLIC "-//W3C//DTD SVG 1.1//EN" "http://www.w3.org/Graphics/SVG/1.1/DTD/svg11.dtd" >
<svg xmlns="http://www.w3.org/2000/svg" xmlns:xlink="http://www.w3.org/1999/xlink" version="1.1" viewBox="-10 0 1034 1024">
  <g transform="matrix(1 0 0 -1 0 820)">
   <path fill="currentColor"
d="M261 687q0 30 15 68l-45 1q-7 3 -13 2q0 -3 2 -8l3 -154l-2 -272q-6 -100 -23 -181q-22 -96 -84 -186q-21 -30 -64 -61q30 -12 53 -28q54 76 92 154q16 33 28 68q9 28 21 85q60 -51 96 -130q15 19 39 38l-127 144l9 157l82 98q31 33 62 49q-24 21 -43 44q-27 -42 -47 -67
q-19 -27 -54 -66v245zM118 531l-6 -74l-7 -43q-10 -57 -35 -118q15 3 25 3q3 0 21 -3q6 18 11 35l10 56q15 75 20 91q4 21 19 47q-24 0 -41 3zM856 456l58 -6q-4 45 -5 66l1 80l4 45q-55 -4 -78 -5h-142q12 15 32 32q-34 34 -53 52l-51 42l-19 16q-16 -21 -33 -34
q42 -28 71 -56q27 -24 45 -52l-215 1q-15 3 -45 4q6 -63 6 -121l-4 -207q-4 -87 -12 -148q-18 -109 -60 -191q-31 -60 -79 -98q27 -9 47 -25q28 33 72 121q42 90 62 236q3 18 5 86q3 72 4 162h389zM468 491v109h403v-109h-403zM514 -5q55 42 76 56q21 13 46 34v-156
q0 -43 -48 -44q-36 0 -70 5q10 -24 19 -50q60 3 96 14q39 12 40 60l1 399q0 21 4 49q-90 -4 -93 -5q-63 0 -82 2q-3 1 -4 1q-3 0 -12 2v-46q25 3 52 5h97v-193q-25 -16 -53 -37q-57 -40 -89 -60q-24 -12 -51 -22q19 -21 32 -46q19 16 39 32zM511 270q-21 -18 -23 -18
q-4 -4 -13 -11q51 -40 88 -112q21 19 35 30zM891 90v-158q0 -34 -18 -43q-24 -7 -52 -8q-15 0 -41 3q13 -28 18 -51q13 1 24 5l36 6q24 4 42 16q28 16 29 62l1 395l4 47q-55 -4 -68 -5l-123 1q-18 1 -29 4v-46q24 4 44 5h133v-188q-54 -36 -108 -68q-49 -27 -89 -38
q19 -19 35 -46l66 48q12 6 26 16l36 22q16 10 34 21zM706 257q66 -51 94 -116q15 18 36 32l-45 56l-51 57q-18 -18 -34 -29v0z" />
  </g>

</svg>
