<?xml version="1.0" standalone="no"?>
<!DOCTYPE svg PUBLIC "-//W3C//DTD SVG 1.1//EN" "http://www.w3.org/Graphics/SVG/1.1/DTD/svg11.dtd" >
<svg xmlns="http://www.w3.org/2000/svg" xmlns:xlink="http://www.w3.org/1999/xlink" version="1.1" viewBox="-10 0 1034 1024">
  <g transform="matrix(1 0 0 -1 0 820)">
   <path fill="currentColor"
d="M345 317q-39 0 -52 3l-13 2v-47q24 6 48 6h84v-296q-34 -16 -74 -56q-21 -19 -40 -40q-9 -9 -19 -18q21 -9 42 -29q33 54 61 79q24 22 40 23q12 0 44 -21q61 -46 123 -59q25 -4 69 -7l254 -2q22 1 45 1q9 31 25 52q-33 -6 -65 -10q-117 -7 -187 -8l-114 7q-39 6 -63 15
q-22 10 -60 37q-15 12 -45 30l1 295q1 24 5 48q-30 -1 -60 -5h-49zM330 665q87 -102 118 -166q15 15 35 27l-121 163q-12 -12 -32 -24zM542 719l6 -67l-1 -626q-3 -12 -9 -22q-4 -3 -12 -10l26 -49q60 42 103 63q54 27 129 62q-6 15 -7 23q0 6 -3 19q-57 -33 -138 -74
q-21 -10 -51 -24v308l248 -1l35 -4q3 0 11 -1q-4 52 -5 100l1 256l4 47q-30 -1 -59 -5l-229 1q-19 3 -49 4zM585 526v152h251v-152h-251zM585 358v132h251v-132h-251zM880 89q-55 55 -76 80q13 13 23 21q30 27 62 52q28 24 57 29q-24 18 -43 43q-18 -24 -39 -46
q-13 -13 -84 -77l-94 90q-9 -12 -26 -26q6 -3 116 -109q40 -40 73 -76q33 -37 63 -78q12 16 29 29q-6 7 -16 17zM239 675q0 36 14 68h-58q0 -6 5 -68l-1 -388q-3 -67 -10 -134l-7 -37q-28 -138 -98 -204q-21 -16 -42 -26q27 -15 51 -40q66 93 91 151q24 57 45 159
q30 -27 53 -54q30 -33 46 -51q9 -12 23 -33q10 16 32 36q-19 18 -40 41l-72 73q-15 16 -36 35q3 73 4 163q33 36 66 77q33 42 47 53q9 9 31 18q-18 15 -32 32q-6 7 -12 15q-27 -54 -100 -142v256zM115 349q6 27 9 48t6 59q3 42 8 56q3 13 14 28q-3 0 -12 -1q-16 0 -49 9
q1 -25 2 -42q0 -78 -16 -144q-6 -30 -18 -49q27 0 49 -7q3 22 7 43v0z" />
  </g>

</svg>
