<?xml version="1.0" standalone="no"?>
<!DOCTYPE svg PUBLIC "-//W3C//DTD SVG 1.1//EN" "http://www.w3.org/Graphics/SVG/1.1/DTD/svg11.dtd" >
<svg xmlns="http://www.w3.org/2000/svg" xmlns:xlink="http://www.w3.org/1999/xlink" version="1.1" viewBox="-10 0 1010 1000">
   <path fill="currentColor"
d="M667 -2q4 22 26 91l3 9h131q42 -1 78 -4q-5 15 -4 65v93q-1 50 4 70q-25 -4 -78 -4h-369q6 406 -125 569q-38 -28 -89 -39q138 -103 147 -435q4 -101 3 -167q0 -63 -7 -152q29 4 79 4h145q-17 -53 -42 -94zM183 2q92 5 109 16q1 3 -5 10q-18 25 -19 56q-2 39 -3 117
q0 51 -1 75q36 -35 61 -81q59 43 56 57q-54 30 -117 92q-1 7 -2 26q-4 75 -10 128q48 46 111 115l-61 60q-14 -39 -51 -82q-6 -7 -9 -11q-38 168 -141 293q-31 -42 -81 -55q160 -108 172 -455q0 -14 1 -38q4 -153 -10 -323zM462 161v93h365v-93h-365zM69 237q65 1 84 5
q1 1 -2 7q-7 21 -10 41q-12 94 -16 197q-42 -8 -77 0q11 -36 18 -111q6 -86 3 -139zM696 381q86 11 223 0q-8 42 -6 285q1 162 -2 184q-16 40 -125 49q-9 -49 -40 -81q72 4 87 -12q6 -9 6 -82q0 -42 2 -51q-69 38 -121 79l-39 -69q53 -15 160 -73v-161q-56 -2 -145 6v-74z
M474 383q58 12 203 4q-3 52 -3 201q1 193 -5 246q-15 53 -133 63q-2 -46 -30 -89q55 18 93 -4q4 -4 3 -54q0 -36 1 -55q-71 39 -129 77l-43 -65q84 -19 172 -72v-182q-78 1 -129 6v-76zM766 490q28 58 40 110l-66 17q-10 -60 -34 -113zM538 494q26 57 41 112l-63 19
q-7 -37 -34 -103q-3 -7 -4 -10z" />
</svg>
