<?xml version="1.0" standalone="no"?>
<!DOCTYPE svg PUBLIC "-//W3C//DTD SVG 1.1//EN" "http://www.w3.org/Graphics/SVG/1.1/DTD/svg11.dtd" >
<svg xmlns="http://www.w3.org/2000/svg" xmlns:xlink="http://www.w3.org/1999/xlink" version="1.1" viewBox="-10 0 1034 1024">
  <g transform="matrix(1 0 0 -1 0 820)">
   <path fill="currentColor"
d="M377 498q24 30 54 52q-6 3 -53 38q-31 -69 -108 -165v252q0 40 15 77q-27 0 -58 4q0 -1 1 -4q0 -1 1 -4q0 -27 3 -57l-3 -421q-4 -49 -12 -89q-30 -133 -113 -223q-24 -24 -70 -52q30 -18 49 -36q66 73 103 132q36 60 69 148q42 -42 66 -68q18 -22 30 -49q18 27 26 34
l7 7l-57 60l-66 64l9 167q33 39 79 99q13 18 28 34zM130 392l14 61q10 54 30 78q-24 3 -59 12q-6 -61 -19 -120q-6 -33 -15 -56q-6 -21 -18 -46q27 0 49 -5zM359 -104q3 3 4 6l2 3q57 105 77 134q10 21 22 31q6 6 13 14q-28 9 -53 24q-51 -133 -122 -208q24 -6 45 -22z
M455 643q1 -27 5 -57l-1 -345q-3 -15 -4 -40q60 6 79 6l287 -1q12 0 47 -5q-3 30 -5 61l1 338q0 18 4 43q-30 -1 -60 -5h-183l14 35q6 12 14 30q15 30 40 52q-16 3 -29 7q-12 3 -35 13q-6 -51 -44 -137q-66 0 -92 2q-6 3 -38 3zM497 242v100h328v-100h-328zM497 378v91h328
v-91h-328zM497 505v97h328v-97h-328zM513 108q1 -30 5 -63l1 -128q0 -6 3 -12q4 -16 24 -27q24 -15 100 -16q42 0 79 3q46 4 70 32q13 18 32 68q-25 10 -48 26q0 -9 1 -23q0 -31 -14 -48q-19 -21 -82 -22q-63 0 -91 3q-24 3 -32 12q-4 6 -5 31v101q0 16 14 63h-57zM626 182
q-25 -25 -31 -30q64 -63 100 -122q15 18 36 29q-33 42 -54 68zM810 83l65 -70q45 -54 66 -84q3 -4 6 -10q16 16 38 29q-34 45 -94 111l-48 53q-12 -12 -33 -29v0z" />
  </g>

</svg>
