<?xml version="1.0" standalone="no"?>
<!DOCTYPE svg PUBLIC "-//W3C//DTD SVG 1.1//EN" "http://www.w3.org/Graphics/SVG/1.1/DTD/svg11.dtd" >
<svg xmlns="http://www.w3.org/2000/svg" xmlns:xlink="http://www.w3.org/1999/xlink" version="1.1" viewBox="-10 0 1034 1024">
  <g transform="matrix(1 0 0 -1 0 820)">
   <path fill="currentColor"
d="M42 265q21 0 45 -6q12 43 19 75l17 90l12 55q6 31 18 57q-21 1 -57 11q-1 -57 -10 -119q-18 -96 -44 -163zM388 548q-19 15 -41 36q-10 -18 -33 -48q-37 -49 -65 -83v256q0 9 3 24q1 18 12 38q-24 0 -50 2h-8q0 -3 2 -7l3 -155v-270q0 -153 -20 -232q-30 -115 -91 -181
q-21 -21 -51 -38q24 -9 52 -31q58 69 98 158q12 27 20 52l21 85q93 -105 116 -167q19 21 43 34l-72 94l-79 91l1 192l33 40q18 18 47 52q33 40 64 54q-3 3 -5 4zM927 153q12 -6 25 -12q21 27 41 48q-81 3 -191 87q-66 51 -129 140q6 6 14 12q-12 3 -55 25q-18 -45 -43 -79
q-27 -36 -83 -94q-96 -91 -170 -102q24 -24 42 -47q69 42 148 116q27 25 54 54q27 31 66 81q48 -60 71 -82q12 -13 54 -49q33 -25 85 -60q28 -12 71 -38zM386 405l23 -19q4 -4 13 -16l57 40q22 18 52 44q46 39 89 62q-27 13 -51 35q-18 -22 -36 -40q-16 -16 -45 -41
q-36 -28 -102 -65zM406 548v-12q0 -12 -3 -39q0 -6 -2 -10h48q-4 24 -5 61v71h453q0 -78 -2 -109q-1 -4 -1 -11l-2 -11h48q-3 21 -5 43q0 78 2 92q0 15 3 37l-55 -6l-432 1q-13 3 -49 5h-3q4 -60 5 -96v-16zM682 744l-50 47q-22 -24 -39 -36q60 -31 106 -97q13 21 34 36z
M479 -102v-12l-4 -44q0 -1 -1 -4h48q-3 21 -5 42v22h315q-3 -27 -3 -50q0 -4 -2 -9h48q-3 30 -5 60l1 227l4 44q-27 -1 -54 -5l-306 1q-1 0 -41 4q1 -30 5 -63v-213zM517 -62v195h315v-195h-315zM717 506q108 -67 173 -139q15 22 22 31q4 4 7 8q-45 37 -64 55q-3 3 -111 82
q-4 -10 -27 -37v0z" />
  </g>

</svg>
