<?xml version="1.0" standalone="no"?>
<!DOCTYPE svg PUBLIC "-//W3C//DTD SVG 1.1//EN" "http://www.w3.org/Graphics/SVG/1.1/DTD/svg11.dtd" >
<svg xmlns="http://www.w3.org/2000/svg" xmlns:xlink="http://www.w3.org/1999/xlink" version="1.1" viewBox="-10 0 1034 1024">
  <g transform="matrix(1 0 0 -1 0 820)">
   <path fill="currentColor"
d="M428 308q19 24 62 56q30 24 126 94q16 -30 32 -66q9 4 37 24q-6 12 -106 172q-3 4 -5 7q-21 -15 -33 -22q31 -42 56 -84l-133 -100v271q48 7 105 20q34 6 48 7q12 0 23 -2q-9 19 -15 41q0 3 -3 10q-27 -13 -80 -26q-66 -15 -121 -16l6 -61l-1 -247q-3 -7 -7 -16
q-4 -6 -22 -18zM521 274q-4 0 -65 5q1 -33 5 -66l-1 -334q-3 -15 -4 -37h49q-4 15 -5 62v16h364q-1 -27 -3 -57q0 -4 -3 -8q0 -1 -1 -3h50q-1 3 -1 5q-3 7 -4 36l1 341l4 45q-28 -1 -57 -5h-329zM500 -46v126h165v-126h-165zM500 116v124h165v-124h-165zM702 116v124h162
v-124h-162zM702 -46v126h162v-126h-162zM913 651l-4 -199q-3 -69 -15 -80q-9 -12 -45 -12q-30 0 -63 7q6 -24 11 -49q15 0 33 2q37 1 58 6q13 3 31 14q19 16 24 75l6 216q0 21 5 61q-27 -1 -55 -5l-212 1q-24 3 -27 4v-47l44 6h44q-10 -132 -24 -191q-15 -54 -49 -92
q-39 -34 -69 -37q25 -21 41 -40q76 61 102 126q6 18 19 83l19 151h126zM342 448q33 45 40 49q18 22 42 29q-28 22 -34 28q-3 4 -13 14q-16 -33 -41 -74q-4 -3 -7 -9q-28 -39 -53 -67v264q0 36 14 67h-58q1 -6 2 -14q1 -27 3 -53v-356q0 -139 -36 -248q-30 -90 -81 -148
q-27 -30 -66 -46q27 -15 48 -38q34 36 58 68q19 28 40 65q42 81 59 160q34 -33 61 -63q33 -36 50 -56q9 -12 25 -37q10 18 31 36q-3 3 -115 123l-42 44q3 51 5 92q1 37 2 86q9 12 20 24q6 7 9 12q18 24 37 48zM73 312q22 -1 45 -10q0 3 33 115q9 48 13 57q10 36 29 50
q-18 3 -30 6q-13 4 -29 14q-1 -37 -18 -108q-12 -57 -21 -81t-22 -43v0z" />
  </g>

</svg>
