<?xml version="1.0" standalone="no"?>
<!DOCTYPE svg PUBLIC "-//W3C//DTD SVG 1.1//EN" "http://www.w3.org/Graphics/SVG/1.1/DTD/svg11.dtd" >
<svg xmlns="http://www.w3.org/2000/svg" xmlns:xlink="http://www.w3.org/1999/xlink" version="1.1" viewBox="-10 0 1010 1000">
   <path fill="currentColor"
d="M194 -4q83 8 94 18q1 3 -6 13q-10 18 -10 27v222q30 -33 57 -91q73 52 66 55q-1 3 -11 9q-15 10 -23 19q-13 15 -40 43q-32 34 -47 52q2 105 -8 201l42 -26l24 33q58 75 77 118v-131q0 -67 -6 -95q40 6 127 6h208q92 0 143 -6q-6 37 -6 91v258q0 61 6 87h-81q4 -19 4 -63
h-324q1 44 4 61h-79q4 -15 4 -85v-113l-74 39q-26 -72 -75 -130q-39 140 -127 273q-36 -33 -87 -45q167 -139 160 -457q-1 -261 -12 -383zM569 24q62 58 60 70q-1 4 -19 4q-25 -1 -43 2q-16 3 -45 7q-50 7 -56 10v187q40 -16 92 -54q-12 -28 -34 -53l55 -28q52 85 74 127
l-60 40q-2 -14 -7 -25l-1 -1q-93 45 -168 117q-20 -36 -46 -64q19 -11 30 -39v-179q-1 -53 -6 -83q99 -6 174 -38zM107 209q87 10 89 18q1 4 -5 10q-16 18 -22 51q-4 19 -15 77q-13 72 -23 123q-38 -17 -83 -15q48 -121 59 -264zM480 532v91h125v-91h-125zM804 532h-133v89
h133v-89zM804 681h-133v91h133v-91zM605 683h-125v89h125v-89zM657 310q38 -69 39 -183q-40 -1 -49 4v-73q10 2 28 3q14 1 57 1h91q50 0 92 -4q-3 18 -4 51q-1 18 -2 26q-1 29 -2 79q0 159 -20 173q-32 41 -127 54q2 -49 -30 -85q53 10 78 0q37 3 31 -204v-25h-75
q0 190 -137 330q-33 -36 -75 -52q41 -17 105 -95z" />
</svg>
