<?xml version="1.0" standalone="no"?>
<!DOCTYPE svg PUBLIC "-//W3C//DTD SVG 1.1//EN" "http://www.w3.org/Graphics/SVG/1.1/DTD/svg11.dtd" >
<svg xmlns="http://www.w3.org/2000/svg" xmlns:xlink="http://www.w3.org/1999/xlink" version="1.1" viewBox="-10 0 1010 1000">
   <path fill="currentColor"
d="M264 -10q100 4 105 10q0 2 -4 7q-10 12 -14 23q-1 2 -2 7q-4 10 -4 19v38h64q88 0 115 -8v79q-28 -7 -115 -8h-64v58h30q81 -1 115 -8v61q103 -87 143 -270q90 22 103 36q0 1 -6 5q-22 16 -30 35q-2 5 -11 21q-24 45 -28 56h190q56 -1 80 -10v82q-20 -7 -74 -8
q-31 202 -97 301q70 55 204 97q-49 45 -67 84q-83 -41 -181 -125q-54 56 -160 121q-33 -46 -80 -72q107 -31 187 -105q-56 -67 -94 -198q-2 2 -9 12q-3 5 -4 6q-23 -29 -74 -52q-27 -7 -107 -8h-30v58h52q105 0 129 -6v75q-30 -7 -127 -8h-123q-2 29 -10 58h155q59 0 87 -4
q-3 13 -8 36q-3 18 -6 29q-17 93 -30 111q-33 56 -141 54q-3 -46 -35 -91q62 17 97 0q15 -6 26 -72h-159q-57 122 -137 181q-16 -29 -81 -54q143 -52 168 -248h-31q-77 0 -113 8v-75q21 6 113 6h97v-58h-36q-77 0 -107 8v-77q27 7 107 8h36v-58h-64q-70 0 -119 8v-79
q30 8 119 8h64v-64q0 -21 -4 -40zM778 215h-141q-5 8 -17 27q-34 54 -47 70q56 -15 76 -14q2 2 0 8q-3 16 2 32q26 73 55 119q50 -84 72 -242zM157 709q9 3 28 10q69 25 65 27q0 2 -10 13q-12 13 -18 21q-56 80 -77 127q-25 -22 -89 -40q76 -89 101 -158zM829 711
q31 44 94 168l-100 26q-24 -88 -81 -172zM629 727q21 85 26 150l-88 12q-7 -102 -23 -156zM419 737q7 86 4 158h-92q5 -32 4 -78q0 -45 -6 -79z" />
</svg>
