<?xml version="1.0" standalone="no"?>
<!DOCTYPE svg PUBLIC "-//W3C//DTD SVG 1.1//EN" "http://www.w3.org/Graphics/SVG/1.1/DTD/svg11.dtd" >
<svg xmlns="http://www.w3.org/2000/svg" xmlns:xlink="http://www.w3.org/1999/xlink" version="1.1" viewBox="-10 0 1034 1024">
  <g transform="matrix(1 0 0 -1 0 820)">
   <path fill="currentColor"
d="M416 -15l31 37q-13 12 -93 94q-61 64 -76 77q-3 3 -6 5l10 134q0 30 6 56q37 51 64 90q36 54 48 65q12 13 40 28q-3 0 -17 13q-6 3 -17 14q-7 7 -15 14l-14 -24l-51 -82q-15 -24 -38 -57v250q0 10 3 26q4 22 18 40h-65q1 -6 6 -66l-1 -303q-12 -139 -12 -143
q-12 -114 -54 -209q-36 -81 -85 -128q-21 -19 -48 -33q15 -12 51 -36q36 42 55 69q15 22 36 59q52 99 73 176q78 -75 133 -144q9 -10 18 -22zM107 336q9 0 18 -2l18 64q9 45 21 85q4 16 9 32q6 24 21 42q-7 1 -17 4l-41 11q-4 -42 -16 -99q-12 -58 -41 -133q7 0 28 -4z
M441 126q7 3 27 4q7 1 45 2q40 -70 134 -154q-40 -30 -148 -68q-60 -16 -156 -24q18 -16 40 -51q168 40 303 114q39 -24 96 -49q54 -21 95 -36l70 -20q15 34 32 53q-120 4 -259 79q57 54 83 86l49 63l32 48q-33 -1 -67 -5l-328 1q-31 3 -48 4v-47zM807 132q-27 -42 -50 -66
q-21 -22 -73 -68q-48 36 -68 60q-42 43 -57 74h248zM419 284q-3 -33 -5 -66q31 3 65 5l398 -1l48 -4q-4 24 -5 65q0 96 2 108q0 19 3 39q-33 -1 -67 -5l-397 1q-19 3 -47 4q1 -33 5 -66v-80zM457 260v129h110v-129h-110zM603 260v129h116v-129h-116zM756 260v129h126v-129
h-126zM808 490q27 0 67 -5q-4 54 -5 76q0 135 2 148q0 18 3 39q-33 -1 -68 -5l-296 1l-47 4q1 -33 5 -67l-1 -148q-3 -15 -4 -48q51 4 84 5h260zM506 526v70h326v-70h-326zM506 632v75h326v-75h-326z" />
  </g>

</svg>
