<?xml version="1.0" standalone="no"?>
<!DOCTYPE svg PUBLIC "-//W3C//DTD SVG 1.1//EN" "http://www.w3.org/Graphics/SVG/1.1/DTD/svg11.dtd" >
<svg xmlns="http://www.w3.org/2000/svg" xmlns:xlink="http://www.w3.org/1999/xlink" version="1.1" viewBox="-10 0 1034 1024">
  <g transform="matrix(1 0 0 -1 0 820)">
   <path fill="currentColor"
d="M379 1q10 12 15 15q4 3 9 5q-42 54 -82 101l-78 90l7 139q39 46 53 65q48 61 65 76q15 15 40 24q-30 25 -46 46q0 -1 -4 -6q0 -1 -3 -4q-1 -1 -5 -7l-53 -78q-21 -28 -48 -62v300q0 9 3 26q3 21 18 40h-64l5 -106l-2 -347q-4 -112 -20 -184q-24 -99 -80 -171
q-27 -36 -63 -62q21 -6 54 -29q36 46 78 119q18 33 31 69q12 39 27 95q36 -39 73 -84q39 -46 60 -80q4 6 10 10zM65 306q12 0 21 -2q3 0 21 -2l20 112l13 88q3 22 20 46q-12 0 -56 9q-3 -70 -12 -123q-9 -51 -27 -128zM964 653q-19 -4 -66 -5l-527 3q-4 0 -8 1q-3 1 -5 1
v-47q4 3 53 6h391q-42 -81 -103 -160l-242 1q-15 3 -44 4q1 -16 3 -31q3 -24 3 -65l-1 -470q-3 -31 -4 -39h47q-3 15 -4 35l-1 529h417v-486q0 -21 -14 -27q-21 -6 -51 -7q-15 0 -51 4q13 -28 22 -50q84 4 111 21q21 12 21 49l1 491l4 46q-31 -1 -64 -5h-107q10 21 45 66
q30 40 63 62l-3 2q-4 4 -12 9q-1 0 -26 19l-2 2q112 0 129 -2q12 0 25 -4v47zM514 602q-9 -12 -21 -21q-3 -3 -10 -9q21 -15 50 -45q33 -36 55 -63q1 -3 6 -8q1 3 6 7q3 3 8 6q1 0 4 3q3 1 6 4q3 4 8 8q-60 66 -73 79q-27 24 -39 39zM514 214q33 43 41 49q4 6 11 11
q30 39 48 52q9 9 30 17q-27 18 -44 35q-61 -91 -135 -150q7 -6 12 -8q15 -7 25 -18zM539 217q1 -19 2 -32q3 -24 3 -79l-5 -109q60 6 87 6q108 0 119 -2l46 -4q-6 54 -6 86q0 84 2 96l4 38q-34 -1 -69 -5q-120 0 -147 2q-6 3 -36 3zM581 39v138h166v-138h-166zM571 759
l62 -50q39 -34 51 -50q13 16 28 31l-59 55q-22 19 -53 45q-15 -15 -29 -31zM789 311q-30 28 -69 62q-9 -12 -29 -29q57 -45 77 -66q1 -3 5 -6q7 -6 55 -54q0 1 2 3q0 3 7 10q3 4 9 7q3 6 9 11q-7 7 -13 12z" />
  </g>

</svg>
