<?xml version="1.0" standalone="no"?>
<!DOCTYPE svg PUBLIC "-//W3C//DTD SVG 1.1//EN" "http://www.w3.org/Graphics/SVG/1.1/DTD/svg11.dtd" >
<svg xmlns="http://www.w3.org/2000/svg" xmlns:xlink="http://www.w3.org/1999/xlink" version="1.1" viewBox="-10 0 1034 1024">
  <g transform="matrix(1 0 0 -1 0 820)">
   <path fill="currentColor"
d="M133 289l-64 4q-1 1 -3 1v-46q9 4 26 5l811 1q48 0 57 -3q3 0 8 -3v46q-16 -4 -65 -5h-255q31 34 58 66l103 -5q-6 58 -5 92q1 27 5 56q-30 -1 -60 -5l-478 1q-19 3 -46 4q3 -57 4 -96q-3 -15 -4 -52q54 4 82 5h18q9 -7 46 -53q7 -7 11 -13h-249zM766 458v-69h-499v69
h499zM656 355l-55 -66h-173l-54 66h282zM85 -125q22 -9 46 -21q9 10 17 20q4 7 16 20q61 79 100 105q-25 12 -47 25q-18 -27 -52 -70q-28 -33 -47 -52q-15 -15 -33 -27zM504 675l-405 4q-1 0 -5 1v-46q9 4 26 5l384 1v-68q-309 0 -326 3q-6 1 -9 2t-5 1v-47q6 3 12 4
q25 1 54 3h567q22 0 50 -3q6 0 16 -4v47q-31 -6 -66 -6h-253v68h336q24 0 51 -2q3 0 16 -4v46q-21 -4 -67 -5h-338v30q0 6 4 26q6 25 18 39h-65q1 -42 5 -85v-10zM752 51q33 -1 69 -5q-6 60 -6 77l6 83q-60 -6 -68 -6l-505 1q-19 4 -47 5q6 -63 6 -95q-6 -54 -6 -65
q31 3 64 5h487zM243 86v80h534v-80h-534zM451 -131q-7 66 -23 147q-21 -6 -39 -9q9 -36 23 -143q19 3 39 5zM652 -128q6 0 13 1l-21 88l-19 65l-39 -10q31 -108 38 -136q1 -6 3 -16q6 0 13 4q6 3 12 4zM898 -56q-55 63 -89 96q-18 -19 -30 -29q19 -18 36 -35q52 -57 84 -97
q3 -1 7 -7l8 -8q7 10 21 22q1 0 3 3q4 3 7 5q-21 21 -47 50v0z" />
  </g>

</svg>
