<?xml version="1.0" standalone="no"?>
<!DOCTYPE svg PUBLIC "-//W3C//DTD SVG 1.1//EN" "http://www.w3.org/Graphics/SVG/1.1/DTD/svg11.dtd" >
<svg xmlns="http://www.w3.org/2000/svg" xmlns:xlink="http://www.w3.org/1999/xlink" version="1.1" viewBox="-10 0 1010 1000">
   <path fill="currentColor"
d="M577 -10q101 8 104 18q1 3 -7 9q-16 11 -19 21q-7 27 -18 72h175q53 0 113 -6v69q-37 -4 -110 -4h-121q16 56 72 111q52 -52 69 -83q74 41 68 49q-1 2 -10 4q-12 3 -16 6q-29 21 -67 56q70 44 158 59q-44 29 -61 76q-37 -14 -64 -34v177q-1 51 4 67q-19 -5 -75 -4h-87
q3 180 0 193q-30 59 -131 59q-8 -54 -38 -89q90 21 95 -22v-141h-105q-34 0 -49 1q-17 1 -34 3q4 -8 5 -20q1 -10 1 -43v-177q-29 25 -76 56q-30 -40 -71 -58q90 -30 164 -89q-38 -46 -77 -74l50 -29q11 10 27 24q26 25 44 37q43 -57 62 -115h-70q-48 0 -71 1q-26 1 -46 3
v-69q48 6 117 6h80q13 -45 15 -120zM627 171q-50 119 -115 181h246q-93 -74 -131 -181zM63 229q69 -2 88 6q1 2 -3 12q-8 18 -9 31q-3 35 -6 109q-3 80 -6 107q-35 -8 -79 -2q25 -125 15 -263zM768 411h-268v62h268v-62zM768 532h-268v62h268v-62zM468 687q4 3 12 8
q73 44 68 47q-1 2 -13 6q-25 6 -33 16q-15 14 -49 47q-76 75 -90 78q-27 -31 -69 -45q109 -62 174 -157zM798 693q90 76 154 143l-79 51q-58 -84 -143 -156zM373 270q-2 6 -19 14q-47 24 -100 66q-1 34 -4 89q-1 50 -4 95q69 56 161 143l-72 56q-34 -57 -99 -120
q-36 156 -125 278q-24 -22 -87 -39q154 -137 159 -427q2 -95 2 -148q0 -55 -1 -95q-2 -69 -13 -172q96 1 109 12q0 3 -7 14q-15 22 -15 34q-2 42 -3 91q-1 23 -1 51v68q30 -28 63 -77q65 64 56 67z" />
</svg>
