<?xml version="1.0" standalone="no"?>
<!DOCTYPE svg PUBLIC "-//W3C//DTD SVG 1.1//EN" "http://www.w3.org/Graphics/SVG/1.1/DTD/svg11.dtd" >
<svg xmlns="http://www.w3.org/2000/svg" xmlns:xlink="http://www.w3.org/1999/xlink" version="1.1" viewBox="-10 0 1034 1024">
  <g transform="matrix(1 0 0 -1 0 820)">
   <path fill="currentColor"
d="M329 474q33 46 65 68q-12 6 -55 35q-16 -36 -29 -59q-12 -19 -30 -46l-32 -50v282q0 10 3 26q1 18 12 40q-34 1 -57 5q0 -1 1 -5q0 -1 1 -4l2 -95l-1 -301q-3 -27 -6 -68q-3 -57 -10 -100q-6 -36 -14 -69q-30 -108 -87 -184q-25 -30 -58 -49q36 -15 57 -29
q108 147 140 304q45 -33 82 -70q22 -22 34 -37q6 -9 15 -28q16 28 37 50l-162 129q3 39 4 67q3 28 7 74q15 24 20 30zM636 599q46 -96 132 -163q63 -46 183 -95q18 30 36 50q-27 1 -67 12q-51 15 -118 56q45 39 61 48q15 9 43 19q-25 21 -48 41q-69 -69 -75 -76q-3 -4 -6 -6
l-4 -4q-45 36 -94 118h194q43 0 62 -6v47q-3 0 -12 -3q-27 0 -50 -2h-232q9 51 17 73q9 39 25 62q-24 3 -43 7q-10 3 -19 5q-3 -51 -6 -79q-3 -18 -15 -68q-192 0 -212 3q-3 0 -10 2v-47q9 4 25 5l182 1q-31 -61 -70 -106l-86 61q-13 -24 -29 -41q42 -12 90 -48
q-40 -39 -86 -68q-66 -36 -105 -41q22 -21 43 -44q102 63 151 105q84 75 136 182h7zM832 333q1 28 5 57q-49 -4 -55 -5l-278 1q-15 3 -40 4q4 -90 5 -92l-1 -160q-3 -12 -4 -38q49 4 76 5h91v-178q0 -31 -15 -40q-15 -4 -32 -5q-15 0 -53 4q13 -27 18 -53q6 0 65 10
q21 6 35 15q21 18 22 64v183q121 0 135 -2q15 0 31 -3q-4 45 -5 67v166zM506 141v81h288v-81h-288zM506 258v91h288v-91h-288zM318 -104q24 -15 47 -36q57 52 115 110q43 43 78 62q-24 16 -47 37q-15 -22 -29 -38q-18 -21 -49 -52q-37 -36 -64 -57q-22 -15 -51 -26zM749 29
q39 -18 97 -64q30 -25 49 -44q12 -12 30 -38l34 42q-39 34 -84 72l-92 72q-13 -19 -34 -40zM125 564q-13 0 -39 4q-1 -79 -16 -156q-13 -60 -28 -96q4 0 12 1q16 0 36 -4q9 33 13 54q6 33 15 97q3 21 4 38q3 12 4 23q1 12 11 39h-12z" />
  </g>

</svg>
