<?xml version="1.0" standalone="no"?>
<!DOCTYPE svg PUBLIC "-//W3C//DTD SVG 1.1//EN" "http://www.w3.org/Graphics/SVG/1.1/DTD/svg11.dtd" >
<svg xmlns="http://www.w3.org/2000/svg" xmlns:xlink="http://www.w3.org/1999/xlink" version="1.1" viewBox="-10 0 1034 1024">
  <g transform="matrix(1 0 0 -1 0 820)">
   <path fill="currentColor"
d="M260 397q10 12 23 24q19 21 39 44q63 69 107 91q-22 18 -49 45q-45 -69 -132 -164v267q0 12 3 27q1 18 12 40q-36 1 -57 5q0 -1 1 -5q0 -1 1 -4q0 -34 2 -55l-1 -386l-5 -62q-4 -48 -18 -99q-24 -87 -76 -168q-33 -48 -80 -76q31 -9 59 -33q28 42 44 67q12 19 24 40
q21 39 37 75q15 36 31 80q36 -22 68 -46q48 -39 78 -79q15 22 33 45q-45 36 -80 62l-87 61l8 90q3 43 3 103q6 6 12 11zM636 -102q0 -21 -3 -51q0 -4 -2 -9h48q-1 3 -1 6l-4 54v246q33 -45 64 -78q31 -31 68 -63q43 -36 139 -92q15 25 41 49q-49 6 -108 42q-87 55 -166 155
h187q40 0 63 -5v46q-6 0 -9 -1q-4 0 -8 -2l-158 -2h-113q0 21 4 42q3 19 10 39h-57l4 -35l1 -46l-253 1q-18 3 -25 4v-46q24 4 52 5h184q-49 -64 -138 -139q-72 -54 -140 -66q24 -18 45 -46q51 31 117 80q75 60 158 159v-247zM411 349q-6 -39 -6 -56q49 4 75 5q94 0 108 -2
q12 0 31 -3q-6 54 -6 72q0 73 2 81l4 40q-27 -1 -55 -5q-102 0 -127 2q-3 1 -5 1q-12 0 -27 2q1 -18 2 -30q3 -18 4 -28v-79zM447 334v111h129v-111h-129zM495 601q0 -4 -3 -28q0 -6 -3 -26q28 3 59 5l235 -1l42 -4q-4 45 -5 86q0 75 2 85q0 16 3 34q-27 -1 -56 -5l-238 1
q-15 3 -42 4q6 -57 6 -83v-68zM531 588v123h251v-123h-251zM695 356q-3 -30 -5 -60q60 6 90 6l91 -1q9 0 21 -3q6 0 18 -2q-4 49 -5 75l5 118q-27 -1 -53 -5q-108 0 -134 2q-6 3 -33 3q1 -28 5 -58v-75zM732 338v110h135v-110h-135zM63 346q10 0 34 -4q10 37 18 79
q4 30 11 58l6 34q3 25 20 53q-3 0 -10 1q-15 1 -30 3q-9 0 -19 2q-1 -78 -16 -141q-15 -55 -29 -85h15z" />
  </g>

</svg>
