<?xml version="1.0" standalone="no"?>
<!DOCTYPE svg PUBLIC "-//W3C//DTD SVG 1.1//EN" "http://www.w3.org/Graphics/SVG/1.1/DTD/svg11.dtd" >
<svg xmlns="http://www.w3.org/2000/svg" xmlns:xlink="http://www.w3.org/1999/xlink" version="1.1" viewBox="-10 0 1010 1000">
   <path fill="currentColor"
d="M538 -17q4 21 8 61q3 21 4 32h21q39 1 82 -6v63q-7 0 -19 -1q-32 -3 -63 -3h-123q-48 0 -91 8v-67q29 6 87 6h40q-3 -9 -8 -26q-12 -41 -18 -54zM748 0q105 4 105 10l-2 3q-21 27 -24 57q-3 28 -6 99q-4 101 -9 145q27 30 86 108q43 57 68 88q-42 14 -85 40
q-18 -48 -81 -150q-5 -9 -8 -13q-43 110 -94 173q-21 -22 -79 -40q92 -84 115 -169q28 -87 20 -277q0 -21 -6 -74zM187 2q95 4 105 12q-27 48 -26 62q0 175 -14 252q82 81 133 160q-59 31 -75 42q-24 -64 -70 -121q-25 92 -107 201q-39 -38 -87 -42q93 -63 120 -152
q31 -91 26 -295q0 -71 -5 -119zM871 121q47 10 85 22q-20 21 -46 124q-8 32 -13 49q-38 -12 -68 -14q29 -74 42 -181zM315 137l76 24q-41 90 -60 167q-27 -16 -63 -20q40 -86 47 -171zM85 139l80 14q-17 48 -22 191q-38 -11 -76 -8q28 -77 18 -197zM393 171q34 8 77 8h60
q36 0 81 -8v67q-51 -7 -83 -7h-60q-44 0 -75 7v-67zM389 272q6 1 18 2q43 6 63 6h60q33 0 81 -8v70q-52 -8 -81 -8h-62q-36 -1 -79 8v-70zM385 373q26 5 61 6h100q32 0 69 -8q-6 19 -6 58v54q0 25 8 69q-46 -6 -69 -6h-96q-33 0 -69 6q2 -12 4 -32q4 -27 4 -32v-53
q-1 -33 -6 -62zM450 429v65h100v-65h-100zM194 584q66 9 123 10h354q64 -1 131 -8q-82 118 -217 200q68 21 165 26t190 -8q-37 46 -53 103q-229 -21 -379 -79q-184 60 -387 83q-15 -50 -58 -89q183 12 364 -36q-61 -37 -133 -97l33 -30h-8q-78 2 -125 10v-85zM645 657h-276
q72 66 141 95q70 -36 135 -95zM722 141q-11 73 -26 191q-34 -7 -67 -4q14 -43 23 -105q9 -58 5 -84z" />
</svg>
