<?xml version="1.0" standalone="no"?>
<!DOCTYPE svg PUBLIC "-//W3C//DTD SVG 1.1//EN" "http://www.w3.org/Graphics/SVG/1.1/DTD/svg11.dtd" >
<svg xmlns="http://www.w3.org/2000/svg" xmlns:xlink="http://www.w3.org/1999/xlink" version="1.1" viewBox="-10 0 1010 1000">
   <path fill="currentColor"
d="M923 34v79q-44 -7 -111 -7h-82q-25 19 -51 43q54 48 85 93q38 -28 77 -85q64 54 62 62q-2 3 -10 4q-21 2 -40 15q-57 41 -65 54q12 10 81 52q60 35 83 51q-31 27 -55 66q-44 -52 -101 -99q5 93 -22 125q-44 56 -129 61q-2 -48 -38 -87q78 17 109 -22q12 -14 16 -50
q3 -36 -4 -65q-95 93 -212 157q-16 -31 -56 -52q145 -41 250 -155q-5 -17 -20 -36q-68 61 -158 114q-22 -36 -50 -49q-1 -1 -2 -1q92 -17 177 -97q-12 -12 -28 -24q-53 34 -72 40q-21 9 -39 17q-2 -11 -48 -49q79 -13 187 -83h-38q-62 0 -101 7v-77q21 6 111 6h181
q65 -1 113 -8zM81 38q32 7 119 8h185q66 -3 101 -8v77q-40 -5 -99 -5h-32q-11 6 -45 31q-15 11 -22 16q20 18 57 63q4 5 6 7q49 -37 70 -70q6 5 18 17q40 35 33 39q-2 2 -8 3q-29 8 -83 44q11 8 35 23q66 42 106 73q-36 22 -54 49q-35 -54 -69 -77q23 125 -18 168
q-42 52 -121 56q-1 -31 -36 -83q66 13 86 -4q31 -25 23 -115q-90 95 -224 178q-9 -18 -36 -44l-13 -13q163 -62 259 -175l-3 -6q-7 -20 -20 -36q-72 69 -193 141q-11 -21 -47 -55q98 -21 210 -121q-17 -19 -32 -28q-25 17 -85 50q-25 14 -38 21q-24 -27 -49 -47
q107 -29 212 -105h-80h-13q-89 3 -100 7v-79zM458 483q108 15 104 19q1 4 -5 10q-12 12 -13 30q69 249 412 226q-60 66 -61 103q-331 -61 -385 -258q-11 207 -401 266q-8 -45 -53 -91q202 0 315 -69q109 -77 87 -236zM762 558q73 39 85 52q-23 11 -79 80q-21 26 -32 39
q-25 -27 -71 -48q59 -49 97 -123zM248 558q90 27 87 40q-1 3 -11 10q-16 12 -22 23q-30 57 -62 94q-29 -21 -77 -32q60 -63 85 -135z" />
</svg>
