<?xml version="1.0" standalone="no"?>
<!DOCTYPE svg PUBLIC "-//W3C//DTD SVG 1.1//EN" "http://www.w3.org/Graphics/SVG/1.1/DTD/svg11.dtd" >
<svg xmlns="http://www.w3.org/2000/svg" xmlns:xlink="http://www.w3.org/1999/xlink" version="1.1" viewBox="-10 0 1034 1024">
  <g transform="matrix(1 0 0 -1 0 820)">
   <path fill="currentColor"
d="M238 238q3 -6 5 -15l17 3q42 6 65 21q46 31 47 115q0 25 -3 64q43 -43 89 -117q6 7 11 14q7 10 19 16l-125 143q19 18 43 43q48 51 88 63q-27 15 -48 35q-18 -27 -39 -49q-21 -24 -58 -61q-3 10 -9 21l-23 33q-24 36 -40 52q30 30 61 58q132 0 142 -3q3 0 8 -3v45
q-19 -4 -62 -5l-307 3q-3 0 -6 1t-5 1v-45q9 4 25 5l158 1q-37 -36 -78 -68q-69 -46 -124 -60q18 -12 41 -38q30 18 57 37q27 18 64 46q9 -7 15 -15l23 -33q-33 -31 -57 -53q-24 -19 -43 -32q-63 -42 -99 -48q18 -16 27 -28q4 -6 10 -12q51 33 93 64q39 31 86 77
q16 -27 24 -59q-39 -43 -123 -109q-64 -45 -118 -60q15 -10 38 -39q27 18 68 49q51 36 84 64q28 24 56 54l1 -46q0 -61 -25 -86q-21 -18 -53 -18q-16 0 -34 4q0 -1 14 -30zM542 111q10 -18 23 -36q54 -75 138 -123q34 -19 70 -36q43 -18 120 -45q12 22 35 51
q-138 15 -239 84q-108 69 -159 207q7 10 17 22q-24 1 -56 10q-3 1 -4 2q-10 -96 -38 -153q-57 -111 -198 -153q-64 -16 -152 -25q16 -27 28 -52q51 12 114 33q138 43 203 117q31 39 71 139q9 -15 27 -42zM255 48q7 12 16 22q25 31 49 65q9 12 20 23q13 12 39 26q-13 3 -25 8
l-34 19q-51 -100 -117 -150q19 -4 45 -23q3 6 7 10zM686 65q3 -1 18 -13q4 -3 10 -8q57 72 68 82q4 6 12 11q24 27 56 36q-24 15 -51 39q-36 -51 -67 -86q-25 -30 -55 -56q4 -1 9 -5zM589 289q30 21 62 49q36 31 77 71l1 -46q0 -55 -24 -82q-22 -21 -60 -21q-12 0 -30 2
q15 -27 18 -44q60 9 84 25q48 31 48 115q0 25 -3 64q64 -43 136 -127q7 13 28 36l-33 30q-27 21 -84 70l-51 42q1 3 57 58q37 36 49 39q9 4 26 8q-15 12 -29 28l-13 16l-39 -47l-66 -66q-3 9 -32 55q-24 33 -40 50q33 36 68 71q141 0 152 -3q3 0 7 -3v45q-18 -4 -61 -5
l-285 3q-4 1 -7 1q-3 1 -5 1v-45q7 3 25 4q12 1 124 2q-36 -45 -79 -81q-54 -42 -107 -58q18 -10 42 -34q48 34 100 78q16 -15 40 -50q-63 -63 -96 -85q-64 -43 -97 -50q15 -7 22 -14l19 -18q48 30 84 60t84 76q12 -16 22 -59q-36 -40 -111 -100q-63 -46 -105 -56
q16 -12 40 -36q6 6 42 31v0z" />
  </g>

</svg>
