<?xml version="1.0" standalone="no"?>
<!DOCTYPE svg PUBLIC "-//W3C//DTD SVG 1.1//EN" "http://www.w3.org/Graphics/SVG/1.1/DTD/svg11.dtd" >
<svg xmlns="http://www.w3.org/2000/svg" xmlns:xlink="http://www.w3.org/1999/xlink" version="1.1" viewBox="-10 0 1034 1024">
  <g transform="matrix(1 0 0 -1 0 820)">
   <path fill="currentColor"
d="M97 -121q39 51 88 165q19 48 29 79q10 39 21 93q58 -52 90 -96q12 21 21 31q1 4 8 9l-28 24l-87 75l10 154l93 104q18 21 50 34q-12 9 -22 18q-9 7 -19 22q-27 -48 -102 -127v221q0 18 3 34q1 21 10 37h-56q4 -25 5 -71v-209q0 -133 -10 -220q-10 -90 -39 -168
q-28 -84 -75 -147q-24 -27 -49 -46q19 -3 31 -7q21 -6 28 -9zM112 322q4 27 10 67q6 43 12 104q3 36 20 63q-48 6 -57 7q-4 -177 -33 -234q10 -1 22 -4zM718 254q43 -58 128 -122q48 -31 99 -62q15 25 40 43q-114 24 -220 141h118q7 0 45 -3q1 0 20 -2v46q-18 -1 -20 -2
q-22 -1 -34 -3h-138v82h75q39 0 66 -6v47q-63 -6 -96 -6h-45v81q69 0 83 -2q12 0 38 -3q-4 54 -5 107q0 87 2 100q0 19 3 39q-33 -1 -65 -5l-362 1q-19 3 -47 4l5 -101q0 -76 -2 -107q-3 -6 -3 -38q15 3 53 4l74 1v-81l-127 3q-1 0 -23 3v-47q27 6 68 6h82v-82h-131
q-45 0 -66 5v-46q21 4 66 5h113q-52 -69 -121 -122q-46 -33 -92 -42q15 -7 23 -18l23 -20q66 45 107 82q60 60 106 120h160zM445 522v69h389v-69h-389zM445 625v63h389v-63h-389zM568 290v82h150v-82h-150zM568 407v81h150v-81h-150zM621 16v-85q0 -19 -9 -28
q-12 -10 -42 -11q-21 0 -65 4q12 -22 18 -51q94 9 117 30q18 18 19 56v102q138 -66 174 -89l58 -33l24 -16q3 9 15 27l7 13l-198 98q45 52 47 54q6 4 10 10q13 13 35 20q-7 4 -17 10q-10 10 -31 23q-22 -45 -76 -100q-24 12 -48 22v75q0 42 13 69h-56q4 -30 5 -69v-95
q-28 -12 -62 -24l-107 -35q-66 -18 -114 -25q7 -12 12 -21q4 -10 12 -32q42 21 48 23l41 15q90 34 170 63zM571 77q3 6 11 14q-18 16 -83 65q-13 -18 -26 -31q45 -24 85 -66q3 3 13 18v0z" />
  </g>

</svg>
