<?xml version="1.0" standalone="no"?>
<!DOCTYPE svg PUBLIC "-//W3C//DTD SVG 1.1//EN" "http://www.w3.org/Graphics/SVG/1.1/DTD/svg11.dtd" >
<svg xmlns="http://www.w3.org/2000/svg" xmlns:xlink="http://www.w3.org/1999/xlink" version="1.1" viewBox="-10 0 1010 1000">
   <path fill="currentColor"
d="M165 -2q7 1 21 1q83 5 88 13q-1 3 -4 7q-15 19 -18 63q-6 53 -6 184q27 -35 46 -81l45 53l-2 -21q6 0 18 2q43 4 72 4q-22 -50 -42 -72l71 -22q37 48 52 78l-30 16h123q3 -23 -36 -88l74 -16q27 44 42 86l-76 18h115q52 -74 68 -111q76 27 83 37q0 3 -10 10
q-34 24 -71 64q74 0 127 -8q-8 41 -8 99q0 42 8 99q-48 -8 -143 -8h-296q-71 0 -139 8q6 -42 6 -101q1 -39 -4 -58q-16 10 -59 63q-23 31 -38 48q1 75 -12 163l121 131v-117q0 -59 -8 -109q46 9 123 8h42q88 1 113 -8q-4 11 -5 32q-1 17 -1 65v44q0 52 1 72q1 26 5 45
q-37 -8 -75 -8h-133v109l113 -38l-36 -37l56 -26q12 13 33 36q64 70 76 87l-68 40q-3 -5 -15 -28q-8 -14 -12 -22q-164 51 -207 89q-15 -32 -47 -69q43 -23 45 -54v-87q-22 8 -63 42q-13 -38 -72 -119q-36 139 -111 273q-46 -40 -93 -49q138 -136 157 -365q5 -86 7 -165
q1 -72 -1 -196q0 -28 -10 -106zM879 10q56 85 54 94q-3 1 -15 -3q-41 -13 -85 -9q-25 2 -73 6q-195 16 -413 29q-10 -37 -41 -73q62 5 139 4q77 -2 161 -8q182 -15 273 -40zM65 209q54 3 86 10q-9 23 -14 61q-2 23 -6 70q-7 78 -12 117q-36 -11 -77 -8q14 -53 21 -125
q7 -74 2 -125zM502 276h-91v76h91v-76zM665 276h-100v76h100v-76zM728 276v76h111v-76h-111zM788 421q92 3 89 8q0 2 -3 5q-13 13 -13 45v17q74 0 95 -8v78q-38 -8 -95 -8v244q3 54 -20 66q-18 16 -117 31q2 -55 -34 -101q65 12 83 8q20 -3 19 -28v-220h-52q-52 0 -109 8
v-78q40 8 109 8h52v-11q0 -30 -4 -64zM552 488h-139v50h139v-50zM413 586v49h139v-49h-139zM724 592q1 1 3 6q23 54 39 113l-76 14q-5 -53 -35 -117z" />
</svg>
