<?xml version="1.0" standalone="no"?>
<!DOCTYPE svg PUBLIC "-//W3C//DTD SVG 1.1//EN" "http://www.w3.org/Graphics/SVG/1.1/DTD/svg11.dtd" >
<svg xmlns="http://www.w3.org/2000/svg" xmlns:xlink="http://www.w3.org/1999/xlink" version="1.1" viewBox="-10 0 1034 1024">
  <g transform="matrix(1 0 0 -1 0 820)">
   <path fill="currentColor"
d="M439 641h40l-1 -733q-3 -18 -5 -36h51q-6 24 -6 47v724q55 3 177 17q3 -27 4 -57l7 -143q3 -42 10 -86q15 -102 35 -161q16 -60 57 -140q21 -42 38 -65q21 -30 65 -85q3 -3 6 -9q6 -9 13 -17q27 22 61 36q-45 24 -89 78q-66 78 -103 188q-33 100 -46 204q-13 102 -17 262
q84 12 97 12q9 0 39 -5q-6 7 -21 39q-3 10 -7 21q-70 -18 -130 -26q-69 -9 -158 -18q-105 -6 -213 -8l-58 1q-28 1 -68 6q6 -75 6 -148q0 -90 -9 -213q-6 -81 -26 -161q-24 -96 -81 -180q-33 -45 -78 -69q40 -12 44 -15q9 -3 22 -12q63 88 94 162q48 109 64 268q6 103 8 215
l-2 107l164 -1q6 1 16 1v0z" />
  </g>

</svg>
