<?xml version="1.0" standalone="no"?>
<!DOCTYPE svg PUBLIC "-//W3C//DTD SVG 1.1//EN" "http://www.w3.org/Graphics/SVG/1.1/DTD/svg11.dtd" >
<svg xmlns="http://www.w3.org/2000/svg" xmlns:xlink="http://www.w3.org/1999/xlink" version="1.1" viewBox="-10 0 1010 1000">
   <path fill="currentColor"
d="M333 -8q14 10 41 26q53 32 47 38q-2 5 -15 8q-26 5 -47 20q-9 6 -37 25q-159 108 -191 120l-62 -66q157 -62 264 -171zM611 -8q233 106 282 135l-68 78q-141 -102 -273 -151zM599 119q96 54 93 64q-2 5 -13 8q-20 5 -38 20q-8 7 -31 24q-44 33 -62 49q159 78 404 76
q-28 28 -44 70q-6 19 -11 31q-248 -37 -419 -129q-77 49 -399 145q-15 -53 -53 -86q204 -13 377 -105q-67 -53 -89 -77q-17 -16 -30 -28l73 -46q53 64 115 106q3 2 4 3q68 -53 123 -125zM782 477q-6 85 -18 244q-10 92 -169 111q-9 -62 -43 -105q113 15 125 -26q0 -1 1 -3
q9 -43 7 -142h-217v198q0 136 6 151h-105q6 -12 6 -153v-196h-56q-139 -1 -148 8v-87q24 8 158 8h314q64 0 139 -8z" />
</svg>
