<?xml version="1.0" standalone="no"?>
<!DOCTYPE svg PUBLIC "-//W3C//DTD SVG 1.1//EN" "http://www.w3.org/Graphics/SVG/1.1/DTD/svg11.dtd" >
<svg xmlns="http://www.w3.org/2000/svg" xmlns:xlink="http://www.w3.org/1999/xlink" version="1.1" viewBox="-10 0 1010 1000">
   <path fill="currentColor"
d="M837 -2q45 55 46 86q0 2 -13 1q-35 -3 -66 -1q-70 4 -219 19q-56 5 -77 7q35 44 50 73l-68 32h155q18 -21 65 -121q78 20 84 35q1 6 -9 10q-9 5 -15 10q-16 14 -40 40q-15 17 -24 26h80q58 -1 91 -8q-8 21 -8 61v64q0 35 8 71q-33 -7 -67 -8h-588q-53 0 -87 8
q8 -26 8 -71v-62q0 -33 -8 -65q29 7 77 8h48q-24 -39 -40 -54l56 -32q-77 3 -161 12q-6 -44 -34 -79q358 18 756 -62zM500 110q-77 7 -212 15q24 32 45 68l-49 22h196q-15 -30 -42 -66zM798 262h-147v86h147v-86zM579 262h-146v86h146v-86zM214 262v86h147v-86h-147z
M750 409q89 -3 95 8q0 4 -5 13q-14 27 -15 62q50 0 108 -9v79q-23 -6 -108 -6v250q0 62 -144 79q1 -38 -36 -91q106 8 109 -24v-216h-40q-87 1 -156 8v-81q32 5 77 8q40 2 71 1h46q0 -13 -1 -40t-1 -41zM438 447q52 -1 96 -8q-7 37 -8 73v135q0 26 8 58q-43 -7 -74 -8h-224
v113q74 -11 183 -38q-12 -12 -36 -30l63 -37q58 50 110 125l-66 37q-6 -12 -26 -39q-5 -8 -8 -12q-214 52 -291 85l-36 -59q37 -26 38 -74v-260q0 -40 -8 -69q32 6 79 8h200zM454 494h-216v54h216v-54zM236 596v53h218v-53h-218zM649 598q15 18 49 83q8 17 12 24l-75 33
q-12 -50 -52 -109z" />
</svg>
