<?xml version="1.0" standalone="no"?>
<!DOCTYPE svg PUBLIC "-//W3C//DTD SVG 1.1//EN" "http://www.w3.org/Graphics/SVG/1.1/DTD/svg11.dtd" >
<svg xmlns="http://www.w3.org/2000/svg" xmlns:xlink="http://www.w3.org/1999/xlink" version="1.1" viewBox="-10 0 1034 1024">
  <g transform="matrix(1 0 0 -1 0 820)">
   <path fill="currentColor"
d="M125 -132q90 30 184 83q51 28 96 62q48 37 113 95q69 -69 160 -127q39 -24 80 -44l53 -25l81 -36q13 18 51 51q-84 6 -182 54q-126 64 -217 159q87 118 143 239l23 46q7 15 36 28q-13 4 -27 11l-37 18q-63 -183 -165 -310q-96 118 -138 214q-18 39 -20 60q0 4 -2 13
q-24 -13 -53 -23q6 -10 13 -21q3 -4 6 -11l31 -57q24 -42 48 -80l87 -128q-21 -24 -41 -42l-50 -41q-54 -40 -107 -73q-55 -30 -100 -45q-45 -12 -104 -17q18 -19 38 -53zM96 467q21 -9 52 -32q64 49 117 101q58 60 109 126q19 28 50 39q-27 15 -55 41q-37 -78 -116 -162
q-84 -87 -157 -113zM917 498l-85 73q-33 25 -65 49l-126 91q-15 -21 -31 -37q79 -43 156 -105q87 -69 120 -112q7 15 19 26z" />
  </g>

</svg>
