<?xml version="1.0" standalone="no"?>
<!DOCTYPE svg PUBLIC "-//W3C//DTD SVG 1.1//EN" "http://www.w3.org/Graphics/SVG/1.1/DTD/svg11.dtd" >
<svg xmlns="http://www.w3.org/2000/svg" xmlns:xlink="http://www.w3.org/1999/xlink" version="1.1" viewBox="-10 0 1010 1000">
   <path fill="currentColor"
d="M347 2q10 6 29 18q56 33 53 42q0 7 -17 13q-27 9 -47 23q-37 25 -144 89q-53 32 -84 51q-10 -10 -23 -24q-23 -28 -49 -37q169 -63 282 -175zM631 10q28 14 90 44q121 60 192 95q-40 36 -66 78q-119 -91 -280 -157zM395 121q24 41 103 108q63 -40 127 -104q6 4 18 13
q67 48 61 57q-2 6 -17 10q-23 6 -40 16q-37 18 -82 47q181 81 389 80q-34 38 -49 91q-273 -53 -403 -129q-158 87 -403 141q-16 -42 -57 -84q196 -12 395 -103q-49 -33 -122 -99zM794 435q-6 29 -6 103v62q0 60 6 99q-31 -6 -113 -6h-399v83q-2 25 36 33q38 9 140 9h240
q108 6 114 -111q30 44 85 57q-36 134 -165 127h-313q-221 4 -213 -93v-264q0 -65 -6 -99q54 6 112 6h365q69 0 117 -6zM282 512v109h174v-109h-174zM532 512v109h180v-109h-180z" />
</svg>
