<?xml version="1.0" standalone="no"?>
<!DOCTYPE svg PUBLIC "-//W3C//DTD SVG 1.1//EN" "http://www.w3.org/Graphics/SVG/1.1/DTD/svg11.dtd" >
<svg xmlns="http://www.w3.org/2000/svg" xmlns:xlink="http://www.w3.org/1999/xlink" version="1.1" viewBox="-10 0 1034 1024">
  <g transform="matrix(1 0 0 -1 0 820)">
   <path fill="currentColor"
d="M823 599q39 0 58 -3q3 0 9 -3v48q-9 -3 -24 -4q-19 -1 -43 -2h-295v51q0 52 18 80l-67 4q3 -24 5 -41q1 -18 2 -51q0 -21 1 -43l-381 5q-1 1 -3 1v-48q7 3 28 4q18 1 37 2h319q3 -58 3 -97l-2 -103q-3 -79 -13 -128q-28 -138 -130 -238q-72 -69 -174 -116
q-49 -21 -104 -29q30 -16 52 -40q67 22 150 78q136 93 207 229q21 43 39 106q51 -138 161 -248q39 -42 113 -90q69 -43 131 -68q21 31 47 46q-81 7 -177 72q-126 81 -202 217q-46 87 -57 156l-3 253h295zM351 207q-9 7 -14 12q21 30 49 57q15 18 37 26q-15 9 -36 19l-3 2
q-6 6 -11 10q-15 -27 -30 -49l-34 -45l-52 39q-36 27 -64 45q-3 -6 -21 -23q-3 -3 -6 -7q70 -37 122 -81q-66 -63 -148 -88q33 -18 48 -34q16 9 57 42q34 30 66 60q28 -18 68 -65q4 9 29 34q-7 6 -15 14zM405 566l-17 17q-13 -21 -37 -48q-19 -24 -34 -38q-3 -1 -8 -7
q-13 12 -27 20q-24 15 -48 32l-36 22q0 -1 -3 -4t-15 -22q-6 -4 -7 -10q34 -13 71 -32q4 -3 40 -29q-66 -64 -140 -90q22 -9 47 -31q54 42 122 100q49 -30 87 -80q7 15 29 33q-33 33 -91 72q63 67 94 74q-12 12 -27 21zM730 456q45 -31 68 -54q19 -19 36 -34q10 21 27 34
l-77 57q-3 0 -6 3l-24 16l58 51q10 9 42 24q-30 15 -47 32q-7 -15 -17 -24q-15 -18 -32 -36q-9 -9 -28 -26l-78 50q-18 15 -37 24q-1 -1 -6 -8q-1 -3 -4 -4q-4 -3 -7 -8q-3 -4 -8 -11q9 -3 22 -12q30 -18 44 -25q15 -12 44 -31q-51 -43 -136 -74q21 -9 43 -30q24 15 108 76
q7 6 15 10zM609 293q40 -21 69 -39q18 -10 55 -39q-42 -42 -107 -71q33 -7 48 -26q3 4 41 38q18 18 39 37q52 -28 98 -77q6 10 15 18q6 7 12 13q-21 15 -35 26l-40 28q-18 15 -27 19q1 3 22 23q13 15 28 33q18 25 24 28q9 7 30 15q-34 13 -51 23l-12 -18q-12 -13 -22 -29
q-27 -36 -41 -53q-1 0 -2 -2l-65 48l-53 37q0 -3 -2 -5q-1 -1 -6 -8q-6 -4 -10 -11q-4 -3 -8 -8v0z" />
  </g>

</svg>
