<?xml version="1.0" standalone="no"?>
<!DOCTYPE svg PUBLIC "-//W3C//DTD SVG 1.1//EN" "http://www.w3.org/Graphics/SVG/1.1/DTD/svg11.dtd" >
<svg xmlns="http://www.w3.org/2000/svg" xmlns:xlink="http://www.w3.org/1999/xlink" version="1.1" viewBox="-10 0 1034 1024">
  <g transform="matrix(1 0 0 -1 0 820)">
   <path fill="currentColor"
d="M636 553l24 19q10 10 45 20q-12 6 -25 14q-19 13 -31 25q-64 -75 -144 -136q-34 21 -87 63q-43 34 -63 70q-7 -12 -24 -28q-3 0 -19 -15q1 0 158 -115q-66 -45 -183 -92q-121 -45 -234 -51q28 -30 40 -52q99 25 192 59q51 18 101 43l124 67q165 -87 437 -133q10 30 32 61
q-31 -3 -51 -4q-67 0 -189 30q-99 27 -194 75q19 15 30 26zM91 587q21 -15 52 -44q106 51 193 116q27 19 46 30q6 3 19 7q10 1 24 6q-27 21 -32 25q-9 7 -22 22q-48 -52 -103 -90q-87 -57 -177 -72zM237 316q1 -27 5 -56l1 -326q1 -13 5 -24q9 -30 41 -40q15 -4 28 -6
l110 -7l98 -2l189 5q84 6 111 22q39 18 74 146q-33 10 -57 24q-3 -102 -33 -128q-28 -24 -162 -26l-165 -2l-121 4q-49 3 -61 10q-19 10 -20 57v109l457 -1q10 0 22 -3q3 0 18 -2q-6 60 -6 79l1 128q0 9 5 39q-27 -1 -53 -5l-449 1q-15 3 -38 4zM488 275v-161h-208v161h208z
M526 114v161h207v-161h-207zM595 742q-9 -19 -19 -32q-3 -1 -4 -4q88 -34 152 -71q75 -43 112 -75q9 18 27 43q-60 36 -108 62l-157 82q-1 -1 -3 -5v0z" />
  </g>

</svg>
