<?xml version="1.0" standalone="no"?>
<!DOCTYPE svg PUBLIC "-//W3C//DTD SVG 1.1//EN" "http://www.w3.org/Graphics/SVG/1.1/DTD/svg11.dtd" >
<svg xmlns="http://www.w3.org/2000/svg" xmlns:xlink="http://www.w3.org/1999/xlink" version="1.1" viewBox="-10 0 1010 1000">
   <path fill="currentColor"
d="M702 2q108 0 113 6q1 5 -5 15q-16 30 -16 73v603q0 112 14 188h-114q12 -58 12 -188v-165h-264q10 238 -255 359q-17 -50 -100 -91q267 -28 268 -264h-55q-111 0 -171 10v-95q69 9 173 10h404v-131h-228q-119 0 -178 6q4 -73 4 -177q0 -78 -1 -100q-2 -30 -7 -45
q111 0 113 8q0 4 -5 11q-17 26 -17 71v154h319v-188q0 -16 -3 -54q-1 -11 -1 -16z" />
</svg>
