<?xml version="1.0" standalone="no"?>
<!DOCTYPE svg PUBLIC "-//W3C//DTD SVG 1.1//EN" "http://www.w3.org/Graphics/SVG/1.1/DTD/svg11.dtd" >
<svg xmlns="http://www.w3.org/2000/svg" xmlns:xlink="http://www.w3.org/1999/xlink" version="1.1" viewBox="-10 0 1010 1000">
   <path fill="currentColor"
d="M565 -10q99 0 102 12q2 6 -4 15q-12 19 -12 47v192h103q84 0 141 -8v88q-47 -8 -115 -8h-26h-450v155h307q60 0 117 -6h4q-6 37 -6 115v190v24q-2 63 6 101h-91q1 -11 2 -29q4 -43 4 -96v-228h-345q-36 212 -155 353q-37 -41 -97 -49q178 -139 174 -413v-236
q0 -151 -8 -203h15q102 -2 100 16q1 9 -7 20q-20 27 -20 81v133h271v-139q0 -46 -9 -114q-1 -12 -1 -13z" />
</svg>
