<?xml version="1.0" standalone="no"?>
<!DOCTYPE svg PUBLIC "-//W3C//DTD SVG 1.1//EN" "http://www.w3.org/Graphics/SVG/1.1/DTD/svg11.dtd" >
<svg xmlns="http://www.w3.org/2000/svg" xmlns:xlink="http://www.w3.org/1999/xlink" version="1.1" viewBox="-10 0 1010 1000">
   <path fill="currentColor"
d="M292 -15q92 7 99 15q0 5 -6 16q-18 33 -18 72v180q55 0 83 -8v82q-45 -8 -137 -8h-126v113h198v218q0 111 6 153q66 -84 82 -200q20 -111 19 -427q0 -69 -4 -131q229 5 387 -48q63 77 63 96q-1 4 -19 1q-36 -7 -66 -5q-23 2 -104 8q-148 12 -182 13v121h199
q112 -1 151 -9q-45 284 -141 444q78 80 206 129q-36 28 -63 79q-103 -54 -189 -147q-77 85 -165 145q-27 -37 -71 -63q87 -37 191 -147q-75 -143 -86 -367h-30q1 277 -27 384q-24 113 -117 217q-30 -30 -78 -48l38 -33h-81q6 -50 6 -159v-161h-125q-1 230 -82 381
q-25 -24 -83 -37q97 -95 95 -429v-232q0 -42 -6 -175q96 4 99 14q1 3 -4 11q-17 32 -17 88v139h109v-153v-39q1 -72 -4 -93zM728 612q67 -122 91 -302h-154q8 180 63 302z" />
</svg>
