<?xml version="1.0" standalone="no"?>
<!DOCTYPE svg PUBLIC "-//W3C//DTD SVG 1.1//EN" "http://www.w3.org/Graphics/SVG/1.1/DTD/svg11.dtd" >
<svg xmlns="http://www.w3.org/2000/svg" xmlns:xlink="http://www.w3.org/1999/xlink" version="1.1" viewBox="-10 0 1010 1000">
   <path fill="currentColor"
d="M625 -21q81 13 93 27q1 3 -10 11q-14 10 -18 17l-24 42q-8 14 -13 24h168q69 0 100 -6q-7 22 -8 73v282q1 50 8 81q-14 -4 -44 -7q-25 -2 -38 -1h-67v127h32q98 -2 176 -12v92q-33 -4 -87 -7q-54 -2 -81 -1h-40v61q-2 50 8 135h-88q10 -92 8 -139v-57h-152q-94 0 -163 8
v-90q51 8 97 8q55 -56 97 -125h-61q-58 0 -89 8q8 -40 8 -71v-302q0 -32 -8 -65q45 10 75 8h83q24 -57 38 -121zM258 4q78 -2 97 8q1 1 -5 14q-15 31 -15 52v216q49 -1 78 -8v79q-42 -6 -137 -7h-99v117h101q36 3 75 -4q-3 10 -3 28q-1 14 -1 59v188q1 96 8 147h-87
q8 -44 8 -147v-208h-101q-3 217 -92 365q-30 -27 -75 -41q80 -96 91 -266v-457q0 -27 -1 -63q-1 -22 -1 -32q79 1 97 12q2 3 -5 15q-14 28 -14 50v173h87v-218q0 -45 -6 -72zM641 163h-133v115h129q2 -19 3 -45q1 -12 1 -28v-42zM837 163h-129v26q1 57 -2 89h131v-115z
M700 342q-15 75 -29 115h166v-115h-137zM508 342v117h91q23 -46 34 -117h-125zM700 522h-55q-40 72 -80 127h135v-127z" />
</svg>
