<?xml version="1.0" standalone="no"?>
<!DOCTYPE svg PUBLIC "-//W3C//DTD SVG 1.1//EN" "http://www.w3.org/Graphics/SVG/1.1/DTD/svg11.dtd" >
<svg xmlns="http://www.w3.org/2000/svg" xmlns:xlink="http://www.w3.org/1999/xlink" version="1.1" viewBox="-10 0 1010 1000">
   <path fill="currentColor"
d="M585 -6q92 4 96 10q0 2 -4 8q-16 28 -16 72v59h101v-59q-1 -55 -6 -88q87 1 97 10q1 2 -4 9q-20 26 -20 67v61h24q28 0 93 -6v74q-42 -4 -93 -4h-24v47q0 58 4 98q-43 -4 -105 -4h-47q-54 0 -92 4q4 -42 4 -90v-53h-83v192h270q113 0 157 -10v86q-44 -8 -157 -8h-88v81
h102q90 -1 141 -6v79q-50 -8 -141 -8h-62q102 140 244 189q-28 18 -65 70q-3 4 -4 5q-105 -59 -215 -220v107q1 113 14 151h-97q5 -22 7 -55q0 -16 1 -37v-59v-105q-86 131 -202 234q-25 -40 -74 -69q117 -30 234 -213h-29q-98 0 -137 8v-79q59 8 135 8h73v-81h-34
q-112 2 -150 6q5 -55 5 -157v-107q-45 0 -65 4v-76q33 4 65 4v-22q1 -66 -7 -97q74 0 97 12q0 2 -3 8q-15 27 -15 75v26h81v-61q1 -65 -6 -90zM762 207h-101v77h101v-77zM341 885h-93q9 -33 10 -125v-206h-89q-10 182 -80 357q-31 -38 -71 -67q74 -103 77 -278q1 -81 0 -247
v-140q0 -70 -7 -118q-1 -9 -1 -11q91 3 103 12q0 2 -4 7q-19 25 -19 78v177h81v-211q0 -80 -4 -103q93 6 99 14q0 1 -3 6q-21 28 -21 85v209q40 0 82 -8v81q-48 -6 -84 -6h-150v96h49q29 0 100 -3q14 -1 21 -1q-2 25 -3 55q-1 14 -1 32v43v151q0 77 8 121z" />
</svg>
