<?xml version="1.0" standalone="no"?>
<!DOCTYPE svg PUBLIC "-//W3C//DTD SVG 1.1//EN" "http://www.w3.org/Graphics/SVG/1.1/DTD/svg11.dtd" >
<svg xmlns="http://www.w3.org/2000/svg" xmlns:xlink="http://www.w3.org/1999/xlink" version="1.1" viewBox="-10 0 1034 1024">
  <g transform="matrix(1 0 0 -1 0 820)">
   <path fill="currentColor"
d="M265 176l-1 -307q-1 -10 -3 -23q-1 -3 -1 -8h48q-3 24 -4 49l-1 304l149 57q0 1 3 2l7 60l-53 -34l-78 -33q-12 -3 -28 -11v250q63 0 129 -3q3 0 10 -2v46q-15 -3 -36 -4l-103 -1v188q0 16 3 33q1 15 11 32h-57q4 -39 5 -65v-188h-117q7 43 28 116q7 34 27 50q-3 1 -6 1
q-43 10 -54 16q-6 -85 -35 -183q-27 -97 -59 -146q19 -3 45 -13q18 45 31 84q6 19 13 39h127v-265l-129 -49q-51 -15 -92 -23q13 -27 15 -31q1 -6 8 -21q12 4 19 9q18 9 102 45q30 10 60 23q7 3 17 6zM675 -46l-281 5q-1 1 -2 1v-47q3 0 7 1q7 3 36 4l470 1q30 0 63 -6v47
q-4 0 -45 -6h-208v451h140q27 0 51 -3l13 -2v46q-31 -1 -64 -5h-140v262q0 16 3 32q1 15 10 33h-58q1 -6 2 -14q0 1 2 -26l1 -287l-187 2q-3 1 -5 1q-3 0 -13 2v-46q3 1 7 1q0 1 61 4h137v-451z" />
  </g>

</svg>
