<?xml version="1.0" standalone="no"?>
<!DOCTYPE svg PUBLIC "-//W3C//DTD SVG 1.1//EN" "http://www.w3.org/Graphics/SVG/1.1/DTD/svg11.dtd" >
<svg xmlns="http://www.w3.org/2000/svg" xmlns:xlink="http://www.w3.org/1999/xlink" version="1.1" viewBox="-10 0 1010 1000">
   <path fill="currentColor"
d="M268 -8q13 7 47 21q23 11 32 15q18 9 -5 25q-16 12 -23 21q-5 7 -16 21q-29 39 -39 52v213q0 47 1 64q1 21 5 37l18 -46q15 6 45 15q31 9 46 15q-43 43 -54 61h141q0 -81 -2 -121q112 10 105 16q0 4 -6 10q-13 15 -13 36v59h148q81 0 110 -8v84q-38 -9 -106 -8h-152v99
h267q38 0 58 -1q23 -2 46 -7v87q-27 -9 -100 -8h-271v86q-1 58 8 91h-100q8 -27 8 -93v-84h-268q-87 0 -135 8v-87q39 8 135 8h268v-99h-180q-5 -3 -62 71q-38 -30 -79 -35l33 -33q42 -40 64 -75q8 -11 20 -27h-83q5 -16 7 -37q1 -17 1 -61v-139q-20 26 -63 74
q-23 26 -35 40q-19 -30 -67 -70q150 -100 246 -290zM720 -8q72 86 86 104l-78 41q-41 -65 -85 -109zM472 -4q48 0 93 4q12 1 6 15q-9 20 -9 39q1 60 23 133q233 -38 300 -60l10 82q-39 -3 -286 41q70 114 206 155q29 -2 35 -85q1 -9 1 -14q34 50 87 54q-14 82 -51 123
q-23 22 -89 5q-85 -23 -159 -83q-63 -57 -107 -141q-18 4 -74 14q-127 22 -148 32l-14 -91q75 4 214 -20q-26 -110 -33 -167q-3 -22 -5 -36z" />
</svg>
