<?xml version="1.0" standalone="no"?>
<!DOCTYPE svg PUBLIC "-//W3C//DTD SVG 1.1//EN" "http://www.w3.org/Graphics/SVG/1.1/DTD/svg11.dtd" >
<svg xmlns="http://www.w3.org/2000/svg" xmlns:xlink="http://www.w3.org/1999/xlink" version="1.1" viewBox="-10 0 1010 1000">
   <path fill="currentColor"
d="M212 2q99 5 100 12q0 2 -3 8q-15 25 -15 64v147q57 0 78 -1q27 -2 45 -7v83q-38 -10 -123 -8v173q72 -28 115 -52l16 79q-30 6 -131 46v210q0 74 1 97q1 30 5 38h-92q6 -7 8 -36q2 -27 2 -97v-188q-89 39 -134 68q-7 4 -9 5l-35 -109q4 -2 16 -2q65 -3 162 -38v-194h-75
q-4 24 -9 61q-9 59 -13 70q-13 -6 -63 -8q-16 -1 -20 -2q25 -58 36 -143q11 -82 3 -153q96 6 104 18q0 2 -5 9q-15 19 -19 39q-3 18 -6 42h67v-145q0 -71 -6 -86zM643 2q92 2 101 14q0 2 -3 7q-15 23 -15 55v143h54q121 1 149 -10v87q-16 -5 -46 -7q-15 0 -36 -1h-61h-62
v179h56q96 0 119 -10v93q-30 -9 -117 -10h-58v222h62q78 0 104 -1q34 -2 50 -7v92q-8 -5 -38 -7q-14 0 -38 -1h-72h-242q-130 0 -165 12v-96q15 6 51 8q34 2 112 2h99v-222h-48q-109 0 -135 10v-89q28 8 135 8h48v-181h-117q-8 24 -23 74q-7 26 -11 39q-32 -18 -87 -12
q74 -152 79 -299q91 2 101 14q0 3 -6 9q-13 14 -18 28q-3 9 -9 34q-7 27 -12 44h105v-151q0 -52 -6 -70z" />
</svg>
