<?xml version="1.0" standalone="no"?>
<!DOCTYPE svg PUBLIC "-//W3C//DTD SVG 1.1//EN" "http://www.w3.org/Graphics/SVG/1.1/DTD/svg11.dtd" >
<svg xmlns="http://www.w3.org/2000/svg" xmlns:xlink="http://www.w3.org/1999/xlink" version="1.1" viewBox="-10 0 1010 1000">
   <path fill="currentColor"
d="M470 -15q85 7 95 17q0 4 -7 16q-6 13 -10 22q-3 9 -6 25t-6 25h202q86 2 179 -8v79q-26 -4 -88 -7q-55 -2 -81 -1h-218q158 45 297 101l-35 54q16 0 72 -4q32 -3 51 -4q-11 36 -8 58v39q0 49 8 68h-98q6 -30 6 -62v-30h-654v32q0 69 4 80h-88q7 -34 8 -78v-30
q0 -5 -1 -14q-1 -18 -7 -63q44 9 107 10q-9 -35 -49 -68q201 -24 288 -89h-195q-108 0 -143 6v-77q50 7 153 8h208q15 -43 16 -105zM476 403q105 -1 103 6q1 3 -3 8q-18 25 -18 85h91q80 -1 143 -8v80q-60 -7 -141 -8h-93v101h202q109 -1 169 -8v78q-91 -6 -173 -6h-198v67
q1 75 7 117h-97q9 -30 10 -113v-71h-204q-109 1 -203 7v-81q73 9 203 10h204v-99h-190q-27 30 -52 73q-21 -24 -69 -37q86 -82 125 -191q79 20 83 32q0 3 -9 13q-20 20 -37 46h149q0 -18 -1 -53q-1 -32 -1 -48zM492 197q-97 65 -272 113h518q-117 -65 -246 -113z" />
</svg>
