<?xml version="1.0" standalone="no"?>
<!DOCTYPE svg PUBLIC "-//W3C//DTD SVG 1.1//EN" "http://www.w3.org/Graphics/SVG/1.1/DTD/svg11.dtd" >
<svg xmlns="http://www.w3.org/2000/svg" xmlns:xlink="http://www.w3.org/1999/xlink" version="1.1" viewBox="-10 0 1034 1024">
  <g transform="matrix(1 0 0 -1 0 820)">
   <path fill="currentColor"
d="M41 351q6 0 13 -2q16 -3 30 -10l55 126h121v-213l-99 -49q-67 -27 -89 -34q-3 0 -5 -1q15 -31 21 -50q39 30 172 95l-4 -378q-1 -1 -1 -4h48q-3 24 -4 50l-1 349q36 18 63 30l50 21q3 1 12 8q-3 0 8 4q1 28 4 57q-16 -15 -50 -35q-48 -27 -87 -44v194q85 0 104 -3l22 -2
v46q-43 -4 -77 -5h-49v188q0 16 3 32q1 15 11 33h-57q0 -6 5 -61v-192h-112q18 67 25 78q6 15 24 29q-24 3 -57 16q-13 -75 -34 -134q-18 -54 -35 -87q-15 -25 -38 -50q3 0 8 -2zM652 420l-218 3q-6 3 -13 3v-47h2q3 3 24 3q13 1 40 2l467 -1l30 -4v47q-10 -3 -16 -3
q-25 -1 -49 -3h-229v152l183 -1l30 -4v46q-31 -1 -64 -5h-149v92q0 16 3 32q1 15 11 33h-57q1 -9 2 -14q0 1 2 -26l1 -117q-186 3 -198 5v-46q3 1 7 1q0 1 60 4h131v-152zM781 230l-336 5v-47q0 1 2 1q6 3 32 3q15 1 122 2h180v-265q0 -27 -18 -36q-18 -6 -53 -7
q-31 0 -67 10q15 -28 19 -57q48 3 80 7q75 12 76 78v270q60 0 128 -3q1 0 10 -3v47q-3 0 -61 -5h-77v70q0 9 4 32q1 18 10 32h-57q3 -21 5 -40zM471 103q90 -49 135 -123q18 25 35 38l-106 92q-12 9 -35 29q-13 -21 -29 -36v0z" />
  </g>

</svg>
