<?xml version="1.0" standalone="no"?>
<!DOCTYPE svg PUBLIC "-//W3C//DTD SVG 1.1//EN" "http://www.w3.org/Graphics/SVG/1.1/DTD/svg11.dtd" >
<svg xmlns="http://www.w3.org/2000/svg" xmlns:xlink="http://www.w3.org/1999/xlink" version="1.1" viewBox="-10 0 1034 1024">
  <g transform="matrix(1 0 0 -1 0 820)">
   <path fill="currentColor"
d="M126 498h111v-225q-112 -72 -177 -95q21 -24 34 -44q15 12 91 63q12 12 52 34v-339q0 -40 -5 -60h48q0 6 -2 13q-3 48 -3 96v315l118 76q-4 37 -5 51l-37 -31q-15 -12 -42 -31q-18 -12 -34 -24v201l115 -3q3 0 12 -2v48q-4 0 -7 -2l-15 -3q-21 0 -40 -2h-65v169q0 7 2 22
q1 18 12 39h-57q1 -30 5 -61v-169h-104q6 45 15 79q6 22 23 40l-64 14q1 -27 0 -54q-4 -42 -25 -140l-21 -75q-10 -33 -31 -66q18 0 29 2q10 0 27 -2zM543 325l-129 3q-4 1 -11 4v-48l15 2l46 4l477 -1l44 -5v48q-4 0 -8 -2l-37 -4l-90 -1l8 173q0 12 8 48q-36 -6 -58 -6
h-189l24 147l241 -1q3 0 36 -4v47q-21 -1 -44 -5l-443 1q-3 1 -5 1l-9 3v-47q42 6 68 5h117l-24 -147q-93 0 -114 2q-4 0 -15 4v-47q42 6 67 5h57zM812 325h-230l30 179h210zM523 -158q-3 9 -4 22q0 15 -2 48h340v-6q0 -43 -5 -59h48q0 6 -2 12q-1 24 -3 47l1 249l4 39
q-18 -1 -29 -2q-21 -3 -70 -3l-286 1q-15 3 -40 4q1 -27 5 -56l-1 -260l-4 -36h48zM517 -52v205h340v-205h-340z" />
  </g>

</svg>
