<?xml version="1.0" standalone="no"?>
<!DOCTYPE svg PUBLIC "-//W3C//DTD SVG 1.1//EN" "http://www.w3.org/Graphics/SVG/1.1/DTD/svg11.dtd" >
<svg xmlns="http://www.w3.org/2000/svg" xmlns:xlink="http://www.w3.org/1999/xlink" version="1.1" viewBox="-10 0 1034 1024">
  <g transform="matrix(1 0 0 -1 0 820)">
   <path fill="currentColor"
d="M847 552q9 0 17 -1q10 -1 38 -4q0 3 -2 11q-3 48 -4 74q3 79 6 97q-24 0 -55 -5l-653 3q-13 1 -28 2q4 -58 6 -98l3 -152l-2 -157q0 -60 -3 -98q0 -33 -5 -62q-18 -117 -61 -194q-24 -45 -52 -71q36 -7 56 -16q37 72 59 128q36 105 41 223l4 209l-1 111h636zM211 587v102
h647v-102h-647zM545 45l-318 1q-15 3 -30 4v-46q9 4 24 5l324 1l-3 -166q0 -3 -2 -7h49q-4 19 -5 40v133l343 -1q21 0 29 -3q3 0 7 -2v46q-3 0 -6 -1q-3 0 -4 -2q-30 0 -54 -2h-315v103l280 -3l2 -1q3 0 7 -1v46q-3 0 -5 -1q-1 0 -3 -1q-4 0 -8 -1q-9 0 -48 -2h-226
q0 42 3 63q3 19 11 34h-57q1 -30 5 -63v-34h-165q19 39 57 61q-24 13 -53 32q-18 -43 -60 -114q-31 -51 -69 -76q4 -1 46 -28l57 89h187v-103zM229 323q16 -27 24 -50q30 15 100 36l130 35q3 15 15 49q-31 -13 -104 -36q-51 -15 -91 -23q-36 -6 -74 -11zM388 484l-82 41
q-12 -24 -25 -43q105 -30 163 -79q12 24 23 41q-10 4 -23 12zM539 525q1 -30 5 -63l-3 -147q-1 -1 -2 -6h49q-6 43 -5 72q0 94 2 100v11q3 19 12 33h-58zM622 368q168 -36 280 -110q12 24 26 43l-223 87q-30 10 -59 23q-7 -18 -24 -43zM654 455q18 -22 23 -32q1 0 114 53
q19 9 67 23q-15 15 -26 31q-3 6 -8 12q-24 -18 -86 -51q-45 -21 -57 -26q-10 -3 -27 -10v0z" />
  </g>

</svg>
