<?xml version="1.0" standalone="no"?>
<!DOCTYPE svg PUBLIC "-//W3C//DTD SVG 1.1//EN" "http://www.w3.org/Graphics/SVG/1.1/DTD/svg11.dtd" >
<svg xmlns="http://www.w3.org/2000/svg" xmlns:xlink="http://www.w3.org/1999/xlink" version="1.1" viewBox="-10 0 1010 1000">
   <path fill="currentColor"
d="M698 -13q1 2 -4 7q-14 19 -15 40v54h77q98 -1 151 -8v83q-38 -8 -145 -8h-79v80h140q77 0 121 -8l-43 123q-15 31 -20 71l-95 -26q21 -42 29 -65l10 -26h-285q-92 0 -135 8v-83q43 7 129 8h73v-82h-75q-84 0 -125 8v-83q37 5 62 6q26 2 65 2h71q0 -71 -5 -105
q-1 -6 -1 -8q87 -2 99 12zM192 -2q99 1 106 12q1 4 -5 14q-15 22 -15 48v155q71 0 103 -8v85q-38 -9 -103 -10v165q69 -42 93 -60l10 91q-53 18 -101 42v230q1 107 10 145h-98q12 -45 8 -139v-198q-85 42 -127 75l-37 -97q55 -10 162 -56v-198h-71q-12 39 -30 119
q-33 -19 -75 -16q55 -126 55 -299q86 4 96 19q1 6 -6 16q-8 13 -12 24q-9 21 -18 70h61v-155q0 -39 -6 -74zM643 330q87 -1 105 14q0 3 -6 9q-17 18 -18 40q-2 31 -4 76q-4 70 -10 135h98q96 -1 142 -8v87q-21 -4 -67 -7q-41 -2 -68 -1h-115q-63 170 -327 240
q-17 -55 -67 -93q222 0 315 -147h-111q-111 1 -155 8v-87q52 7 149 8h133q6 -42 8 -127q2 -82 -2 -147zM518 334q51 34 109 91l-52 50q-46 -61 -109 -94zM450 451q75 44 123 93l-55 54q-55 -62 -119 -100zM730 707q114 44 222 121l-67 73q-95 -89 -202 -135z" />
</svg>
