<?xml version="1.0" standalone="no"?>
<!DOCTYPE svg PUBLIC "-//W3C//DTD SVG 1.1//EN" "http://www.w3.org/Graphics/SVG/1.1/DTD/svg11.dtd" >
<svg xmlns="http://www.w3.org/2000/svg" xmlns:xlink="http://www.w3.org/1999/xlink" version="1.1" viewBox="-10 0 1034 1024">
  <g transform="matrix(1 0 0 -1 0 820)">
   <path fill="currentColor"
d="M131 447q1 12 8 24h99v-206q-94 -30 -119 -36q-33 -7 -72 -13q13 -21 26 -53q39 21 165 60v-316q0 -34 -4 -57q-1 -3 -1 -8h48q0 4 -1 8q-1 6 -4 57v327l115 36q4 3 10 3q0 27 5 58q-18 -12 -44 -24q-30 -12 -86 -30v194l85 -1q18 0 40 -5v47l-43 -4l-82 -1v195
q0 16 3 32q1 15 12 33h-58q3 -21 5 -65v-195h-90q12 70 21 95q6 24 22 41q-24 0 -44 5q-9 1 -16 5q-6 -72 -25 -146q-16 -63 -30 -97q-12 -33 -30 -61q16 -3 28 -7q3 0 18 -6q15 42 27 78zM914 116q22 0 63 -5v46q-31 -1 -63 -5h-223l10 66q3 21 4 56q3 84 6 102q3 21 18 40
q-46 7 -60 7q0 -94 -5 -158q-1 -4 -1 -11l-6 -69q-3 -18 -7 -33l-280 5v-46q49 4 66 5h205q-36 -90 -120 -150q-99 -69 -196 -82q25 -16 46 -45q105 42 172 91q102 79 141 186h230zM652 661l-219 1q-21 3 -20 2q-6 0 -14 3v-47q3 3 50 5h203v-126l-192 1q-15 0 -31 4v-46
q3 1 7 1q7 3 36 4h415q-16 -48 -53 -114q15 1 36 -1q7 0 16 -1q1 6 4 12q10 22 33 85l25 60q-33 -1 -65 -5h-193v126l218 -1l40 -4v47q-1 0 -60 -6h-198q0 78 3 82q3 13 12 28h-58q4 -42 5 -80v-30zM567 228q-19 15 -105 71q-7 4 -15 8q-6 -15 -24 -37l70 -41q27 -19 66 -51
q4 10 15 25q4 6 9 14q-9 6 -16 11zM470 381q7 -3 17 -11q54 -30 113 -80q10 15 23 31q1 0 3 3q-33 28 -73 54q-51 33 -61 42q-15 -24 -22 -39zM751 71q-9 -18 -34 -37q25 -12 46 -29q30 -24 80 -68q58 -51 89 -98q15 24 34 46q-34 33 -67 61l-131 110q-9 7 -17 15v0z" />
  </g>

</svg>
