<?xml version="1.0" standalone="no"?>
<!DOCTYPE svg PUBLIC "-//W3C//DTD SVG 1.1//EN" "http://www.w3.org/Graphics/SVG/1.1/DTD/svg11.dtd" >
<svg xmlns="http://www.w3.org/2000/svg" xmlns:xlink="http://www.w3.org/1999/xlink" version="1.1" viewBox="-10 0 1010 1000">
   <path fill="currentColor"
d="M663 -8q81 0 83 8q0 2 -3 6q-11 20 -11 50v32h36q67 -1 119 -4q-8 56 -8 119v28q58 1 77 -6v67q-26 -4 -75 -4v24q0 51 1 72q1 25 3 43q-72 -4 -113 -4h-40v75q75 2 139 -8v70q-37 -6 -139 -6v77h30q78 -1 129 -6v70q-40 -7 -133 -8h-26q1 0 2 24q2 54 6 67h-79
q7 -29 8 -93q-111 0 -137 8v-72q44 8 137 8v-75q-88 -3 -127 6v-70q51 9 127 10v-77q-94 -1 -115 8v-77q28 9 115 8v-72h-24q-72 1 -121 6v-69q48 6 121 6h24v-86q-72 0 -107 6v-71q36 5 107 6v-20q0 -41 -6 -76zM187 2q4 0 13 1q87 3 84 7q0 2 -3 7q-17 25 -17 79v141
q56 0 88 -5q9 -1 13 -1v77q-33 -6 -101 -6v181l77 -34l4 77l-81 28v200q1 108 8 151h-91q10 -47 11 -149v-174l-134 61l-30 -87l164 -48v-204h-65q-14 77 -26 123q-7 -4 -31 -7q-26 -2 -40 -1q40 -105 41 -307q72 3 92 13q0 3 -4 9q-11 16 -14 35q-1 4 -2 11q-7 43 -8 57h57
v-135q-1 -60 -5 -100zM536 86q-62 200 -107 299h19q48 0 84 -6q-3 205 -56 338q112 128 480 71q-15 32 -27 87q-1 5 -2 8q-377 13 -479 -107q-45 72 -93 127q-32 -34 -75 -49q71 -48 125 -131q-16 -26 -63 -122q-11 -24 -17 -35l70 -20q5 30 33 95q5 12 7 18q24 -91 33 -218
h-35q-43 1 -80 10l-22 -78q0 -1 5 -2q34 -6 59 -75q4 -11 20 -54q26 -71 31 -85q-60 -2 -111 4v-75q29 5 111 6q59 0 90 -6zM732 147v86h80v-86h-80zM732 288v75h80v-75h-80z" />
</svg>
