<?xml version="1.0" standalone="no"?>
<!DOCTYPE svg PUBLIC "-//W3C//DTD SVG 1.1//EN" "http://www.w3.org/Graphics/SVG/1.1/DTD/svg11.dtd" >
<svg xmlns="http://www.w3.org/2000/svg" xmlns:xlink="http://www.w3.org/1999/xlink" version="1.1" viewBox="-10 0 1010 1000">
   <path fill="currentColor"
d="M187 4q89 -2 105 8q0 1 -3 6q-19 30 -19 82v119q58 0 111 -8v83q-30 -5 -111 -6v183l89 -48l4 85q-25 11 -57 22q-24 8 -36 14v196q0 128 8 163h-93q8 -45 9 -155v-168q1 0 -18 10q-65 32 -113 59l-19 -97q17 -1 150 -52v-210h-67l-22 131q-41 -12 -83 -12
q47 -137 45 -311q82 7 92 15q0 2 -2 6q-10 17 -14 48l-10 52h61v-123q-1 -59 -7 -92zM385 459q59 5 155 6h208q114 -1 187 -8q-6 53 -6 151v194q5 54 -22 70q-27 19 -125 31q1 -44 -30 -97q69 12 82 6q17 -4 15 -42v-242h-379v236q-1 116 6 139h-93q8 -28 8 -139v-174
q-1 -72 -6 -131zM855 211l-4 93v12q0 57 4 95q-18 -2 -43 -3q-13 -1 -29 -1h-43h-167q-74 0 -131 4q1 -54 4 -89v-16q0 -61 -4 -95q13 1 36 2l78 2h180q17 0 73 -2q29 -1 46 -2zM528 582q11 0 32 1q38 2 77 3h14q28 0 102 -3q18 -1 27 -1q-4 49 -4 89v20q0 45 4 89
q-33 -4 -109 -4h-36q-64 0 -107 4q0 -5 1 -15q3 -36 3 -72v-28q1 -54 -4 -83zM688 -6q15 53 20 102h58q116 -1 169 -8v83q-24 -5 -74 -7q-53 -3 -99 -1h-236h-23q-84 -1 -122 6v-81q46 7 145 8h101q-13 -65 -32 -98zM518 274v74h262v-74h-262zM599 641v80h109v-80h-109z" />
</svg>
