<?xml version="1.0" standalone="no"?>
<!DOCTYPE svg PUBLIC "-//W3C//DTD SVG 1.1//EN" "http://www.w3.org/Graphics/SVG/1.1/DTD/svg11.dtd" >
<svg xmlns="http://www.w3.org/2000/svg" xmlns:xlink="http://www.w3.org/1999/xlink" version="1.1" viewBox="-10 0 1034 1024">
  <g transform="matrix(1 0 0 -1 0 820)">
   <path fill="currentColor"
d="M57 150q4 -3 10 -7q7 -4 23 -21q48 45 101 100q49 52 82 92l39 50q12 -72 12 -175q0 -52 -4 -104q-3 -57 -12 -89q-12 -39 -46 -60q-42 -27 -88 -27q-12 0 -39 4q10 -15 14 -22l10 -28q48 6 88 22q84 33 103 114q4 21 9 81q3 55 4 111q0 67 -7 128q-6 75 -16 107
q-16 66 -67 152q3 6 48 56q21 24 45 49q15 12 35 27q-36 19 -50 35q-34 -61 -104 -139q-45 43 -97 87l-32 26q-19 -27 -41 -44q27 -3 67 -32q39 -27 76 -68q-28 -30 -64 -63q-43 -37 -91 -60q21 -13 29 -21q3 -6 13 -15q15 10 26 21q13 16 51 50q0 1 42 43q9 7 16 16
q42 -43 58 -128q-27 -43 -49 -73q-22 -28 -55 -65q-96 -99 -151 -121zM522 -19q0 -31 20 -51q18 -18 74 -24q54 -6 115 -7q96 0 147 13q57 19 80 105l14 60q-3 3 -12 4q-13 6 -31 15q-6 -57 -18 -94q-13 -45 -52 -55q-40 -10 -127 -11q-40 0 -87 4q-49 4 -65 14
q-19 12 -20 48v633h268v-279q0 -27 -7 -39q-9 -15 -33 -20q-42 -7 -83 -8q-22 0 -46 2q12 -28 17 -51q48 3 78 9q24 3 48 9q63 18 64 84v267q0 9 3 33l3 34q-34 -1 -69 -5l-240 1q-15 3 -46 4q1 -33 5 -67v-628z" />
  </g>

</svg>
