<?xml version="1.0" standalone="no"?>
<!DOCTYPE svg PUBLIC "-//W3C//DTD SVG 1.1//EN" "http://www.w3.org/Graphics/SVG/1.1/DTD/svg11.dtd" >
<svg xmlns="http://www.w3.org/2000/svg" xmlns:xlink="http://www.w3.org/1999/xlink" version="1.1" viewBox="-10 0 1010 1000">
   <path fill="currentColor"
d="M554 36q81 29 85 44q-1 4 -15 16q-51 47 -110 117q95 164 99 391q5 152 -33 193q-35 51 -177 80q1 -53 -38 -105q63 6 91 2q31 -4 48 -19q33 -28 32 -142q-1 -117 -14 -190q-81 135 -177 254q-33 -34 -81 -46q126 -97 230 -301q-1 -2 -2 -6q-12 -35 -26 -58
q-58 62 -119 119q-39 -39 -71 -55q87 -56 149 -123q-50 -73 -117 -121l69 -46q20 23 54 63q29 34 41 48q48 -54 82 -115z" />
</svg>
