<?xml version="1.0" standalone="no"?>
<!DOCTYPE svg PUBLIC "-//W3C//DTD SVG 1.1//EN" "http://www.w3.org/Graphics/SVG/1.1/DTD/svg11.dtd" >
<svg xmlns="http://www.w3.org/2000/svg" xmlns:xlink="http://www.w3.org/1999/xlink" version="1.1" viewBox="-10 0 1034 1024">
  <g transform="matrix(1 0 0 -1 0 820)">
   <path fill="currentColor"
d="M91 145q109 90 212 229q12 -93 13 -160q0 -132 -38 -205q-22 -43 -67 -63q-33 -15 -73 -15q-18 1 -37 3q0 -1 8 -22q9 -27 9 -32q12 1 24 5q54 9 84 22q66 30 95 103q34 78 35 196q0 93 -16 177q-19 90 -78 197q6 9 24 27q0 1 3 3q69 84 75 90q12 12 36 23q-12 6 -23 11
q-10 3 -16 8q-4 1 -17 11q-27 -45 -49 -76q-18 -24 -55 -66q-43 58 -117 119q-4 -6 -10 -11q-9 -9 -10 -11q-6 -6 -13 -10q63 -36 122 -113q-78 -84 -155 -123q1 0 6 -4q9 -6 10 -8l28 -19q57 42 132 119q33 -57 54 -127q-43 -75 -118 -154q-69 -67 -120 -88zM325 -121
q12 -6 18 -11q6 -3 13 -10q48 58 68 85q9 16 19 34q49 99 60 226q4 90 5 140v242h392q28 0 63 -5v46q-31 -1 -63 -5h-160l26 37q-75 69 -109 95l-4 4q-1 0 -4 3q-7 6 -16 14q-4 -6 -9 -13l-21 -22q84 -60 131 -118l-229 1q-15 3 -42 4q1 -30 5 -61l-1 -267q-1 -13 -2 -31
q0 -46 -5 -102q-1 -4 -2 -10q-15 -114 -73 -198q-30 -40 -77 -67q7 -4 17 -11v0z" />
  </g>

</svg>
