<?xml version="1.0" standalone="no"?>
<!DOCTYPE svg PUBLIC "-//W3C//DTD SVG 1.1//EN" "http://www.w3.org/Graphics/SVG/1.1/DTD/svg11.dtd" >
<svg xmlns="http://www.w3.org/2000/svg" xmlns:xlink="http://www.w3.org/1999/xlink" version="1.1" viewBox="-10 0 1010 1000">
   <path fill="currentColor"
d="M256 0q112 3 107 16q0 3 -3 11q-13 37 -13 108v592q0 107 6 184h-97q8 -88 8 -186v-223q-23 31 -80 104q-58 75 -79 103l-61 -101q112 -86 220 -207v-307q0 -39 -1 -55q-1 -15 -7 -39zM821 68q53 79 80 139l-95 39q-31 -92 -66 -144zM119 147q81 101 119 175l-79 53
q-41 -91 -113 -186zM357 828q198 -108 232 -468h-57q-46 0 -145 5v-87q71 6 145 6h63l2 -188q0 -17 -1 -48q-1 -28 -1 -42q114 3 111 20q0 6 -5 16q-14 25 -16 68q-1 12 -2 34q-6 101 -6 138h113q38 0 128 -5q18 -1 26 -1v86q-15 -2 -52 -3q-18 -1 -42 -1h-62h-103
q17 319 265 448q-57 36 -83 89q-210 -178 -222 -403q-35 249 -203 407q-25 -35 -85 -71z" />
</svg>
