<?xml version="1.0" standalone="no"?>
<!DOCTYPE svg PUBLIC "-//W3C//DTD SVG 1.1//EN" "http://www.w3.org/Graphics/SVG/1.1/DTD/svg11.dtd" >
<svg xmlns="http://www.w3.org/2000/svg" xmlns:xlink="http://www.w3.org/1999/xlink" version="1.1" viewBox="-10 0 1034 1024">
  <g transform="matrix(1 0 0 -1 0 820)">
   <path fill="currentColor"
d="M232 603q-9 12 -83 93l-16 19q-7 -6 -15 -13q-10 -10 -24 -19q48 -37 74 -63q19 -22 48 -58q-84 -82 -151 -116q25 -15 45 -30q18 12 35 27l53 50q15 12 38 34q30 -49 55 -127q-43 -66 -108 -138q-39 -42 -67 -64q-27 -21 -56 -35q6 -1 40 -26q1 -1 6 -5q54 49 97 95
q42 48 100 121q6 -36 7 -59q3 -51 4 -81q0 -24 -3 -61q-3 -60 -17 -108q-27 -90 -87 -110q-33 -9 -61 -10q-12 0 -37 5q15 -30 22 -54q33 3 47 6q66 15 101 52q45 46 61 136q12 70 12 145q0 27 -2 60q-1 31 -5 57q-6 60 -29 120q-15 45 -51 110q60 78 78 96q16 24 25 27
q12 10 33 16q-28 18 -52 36q-46 -75 -106 -141q-6 7 -11 13zM526 -78l-164 2q-6 3 -13 3v-46q3 1 49 5l546 -1q15 0 35 -4v46q-7 0 -16 -3l-111 -2l20 688q0 15 6 62q-28 -1 -57 -5l-372 2q-6 3 -13 3v-46q49 4 81 5h59l-22 -306l-132 2l-8 3q-3 1 -6 1v-47q3 0 8 1
q19 4 53 5h82zM564 -78l25 368h235l-11 -368h-249zM592 325l24 306h218l-10 -306h-232z" />
  </g>

</svg>
