<?xml version="1.0" standalone="no"?>
<!DOCTYPE svg PUBLIC "-//W3C//DTD SVG 1.1//EN" "http://www.w3.org/Graphics/SVG/1.1/DTD/svg11.dtd" >
<svg xmlns="http://www.w3.org/2000/svg" xmlns:xlink="http://www.w3.org/1999/xlink" version="1.1" viewBox="-10 0 1034 1024">
  <g transform="matrix(1 0 0 -1 0 820)">
   <path fill="currentColor"
d="M148 169l63 67q4 6 88 103q7 -87 9 -167q0 -64 -4 -133q-6 -123 -58 -146q-24 -9 -60 -10q-21 0 -44 5q7 -18 13 -26l13 -28q33 6 52 11q54 12 83 42q27 30 35 82q4 31 7 78q3 48 3 128q-7 147 -9 159q-1 7 -2 15q-10 84 -37 148q-15 36 -44 80l72 94q7 13 16 16
q7 7 22 13l-24 18q-1 1 -5 4q-6 3 -22 18q-19 -40 -38 -70q-18 -27 -47 -64q-24 22 -48 42l-66 48q-3 -7 -25 -39q72 -33 114 -81q-78 -93 -147 -124q15 -10 41 -33q30 25 66 61q36 34 65 68q45 -70 62 -149q-123 -184 -225 -237q9 -6 16 -9l29 -20zM867 588l-2 -200
l-3 -177q0 -54 -33 -65q-36 -3 -57 -4q-9 1 -25 4q4 -13 11 -28q3 -12 6 -23q27 3 56 8q31 6 41 11q39 18 38 84l7 378q0 16 6 53q-16 -1 -29 -3q-21 -3 -29 -3h-319l39 90q7 15 27 35q-24 4 -56 18q-19 -63 -42 -115q-10 -24 -38 -71q-21 -36 -40 -62q-43 -57 -79 -79
q9 -4 19 -8q21 -9 29 -15q57 70 120 172h353zM463 455q1 -27 5 -55l1 -445q0 -18 6 -36q4 -15 20 -25q18 -12 98 -18l134 -2q7 1 57 2q10 0 24 3q100 7 130 50q9 15 17 31q7 24 19 67q-18 7 -52 30q0 -36 -3 -59q-9 -60 -54 -73q-60 -9 -68 -10l-144 -2q-63 0 -98 4
q-22 3 -33 9q-15 10 -16 60v213h192q6 0 27 -3q6 0 25 -2q-4 48 -5 88l1 133l4 40q-15 -1 -27 -2q-24 -3 -40 -4q-168 0 -185 2q-12 3 -35 4zM506 235v179h201v-179h-201z" />
  </g>

</svg>
