<?xml version="1.0" standalone="no"?>
<!DOCTYPE svg PUBLIC "-//W3C//DTD SVG 1.1//EN" "http://www.w3.org/Graphics/SVG/1.1/DTD/svg11.dtd" >
<svg xmlns="http://www.w3.org/2000/svg" xmlns:xlink="http://www.w3.org/1999/xlink" version="1.1" viewBox="-10 0 1034 1024">
  <g transform="matrix(1 0 0 -1 0 820)">
   <path fill="currentColor"
d="M118 -109q34 3 42 4q7 0 20 4q60 12 94 50q61 72 62 272q0 133 -26 220q-13 48 -52 126q9 12 18 22q18 21 34 44q28 36 36 43q9 9 31 22q-31 18 -45 34q-6 -15 -34 -54q-30 -45 -62 -81q-22 30 -42 50l-71 73q-15 -19 -38 -43q36 -13 59 -33q21 -18 68 -77
q-18 -16 -34 -33q-34 -36 -61 -58q-19 -15 -62 -40q28 -16 42 -32q21 18 50 46l85 86q36 -60 55 -160q-58 -73 -121 -134q-85 -76 -135 -89q34 -19 49 -34q7 7 17 14q55 45 100 88t98 105q6 -102 6 -133q-3 -69 -16 -128q-15 -75 -57 -105q-30 -24 -89 -24q-21 0 -48 4
q12 -27 15 -50q6 1 12 1zM603 5q0 -40 -29 -44q10 -15 16 -30q3 -10 7 -21q18 16 68 40q27 13 82 34q3 -6 11 -17q6 -18 12 -32q6 -19 10 -25l21 11q4 1 11 4q3 0 6 2l2 1l-59 115l-46 82q-18 -13 -38 -24q10 -10 18 -22q4 -6 25 -42q4 -10 12 -26q-34 -9 -65 -22
q-12 -3 -24 -8v663q69 4 113 13l-2 -118q0 -265 70 -439q33 -84 66 -140l39 -68q16 12 35 19q7 3 20 9q-27 16 -56 58q-61 91 -97 218q-39 138 -40 350l1 115q48 9 113 13l-38 49q-64 -19 -133 -31q-105 -15 -197 -16q-45 0 -96 6q3 -36 5 -75l5 -173q-3 -96 -11 -192
l-6 -53q-21 -120 -80 -207q-36 -51 -86 -79q28 -12 50 -33q25 27 45 53q42 57 71 128q33 79 45 191q3 40 6 97l2 130l-2 169l120 3z" />
  </g>

</svg>
