<?xml version="1.0" standalone="no"?>
<!DOCTYPE svg PUBLIC "-//W3C//DTD SVG 1.1//EN" "http://www.w3.org/Graphics/SVG/1.1/DTD/svg11.dtd" >
<svg xmlns="http://www.w3.org/2000/svg" xmlns:xlink="http://www.w3.org/1999/xlink" version="1.1" viewBox="-10 0 1010 1000">
   <path fill="currentColor"
d="M415 42q41 3 107 4h272q77 -1 119 -4q-8 48 -8 107v393q1 88 8 127h-90q4 -56 4 -79h-133v190q0 82 4 115h-87q8 -48 8 -117v-188h-125q-1 42 4 78q2 10 2 13h-87q6 -21 6 -85v-445q0 -53 -4 -109zM619 117h-125v163h125v-163zM694 117v163h135v-163h-135zM494 352v166
h125v-166h-125zM694 352v166h135v-166h-135zM317 6q81 51 94 72q-2 5 -16 11q-25 10 -42 26q-23 23 -75 78q57 116 64 286q4 199 -42 297q-37 50 -163 76q-7 -51 -52 -110q96 15 129 -13q29 -23 43 -114q14 -98 5 -212q-87 137 -165 210q-29 -40 -71 -63q125 -73 214 -250
q-2 -19 -18 -51q-3 -5 -4 -7q-35 29 -131 110q-28 -45 -63 -62q68 -30 153 -107q-53 -59 -114 -95l68 -52q56 46 99 95q82 -99 87 -125z" />
</svg>
