<?xml version="1.0" standalone="no"?>
<!DOCTYPE svg PUBLIC "-//W3C//DTD SVG 1.1//EN" "http://www.w3.org/Graphics/SVG/1.1/DTD/svg11.dtd" >
<svg xmlns="http://www.w3.org/2000/svg" xmlns:xlink="http://www.w3.org/1999/xlink" version="1.1" viewBox="-10 0 1010 1000">
   <path fill="currentColor"
d="M528 -4q95 4 95 14q0 2 -4 9q-16 24 -16 53v77h82q0 -116 -6 -151q92 1 95 8q0 2 -4 9q-18 28 -18 67v67h83q53 0 80 -6q-6 32 -6 80v77q0 51 6 87q-27 -4 -76 -4h-87v131h129q30 0 67 -6q-9 78 -12 161q-1 16 -1 24q-2 56 -27 72q-19 17 -112 29q7 -37 -26 -95
q83 23 85 -22q6 -46 6 -99h-109v206q0 69 10 113h-83q6 -36 6 -111v-208h-88q-21 196 -166 323q-36 -35 -96 -55q171 -74 195 -268h-64q-51 0 -83 8q10 -36 10 -78v-109q0 -48 -6 -81q27 6 75 6h74v-111h-68q-48 0 -81 6v-76q33 6 77 6h72v-24q-2 -117 -8 -129zM685 213h-82
v111h82v-111zM841 213h-89v111h89v-111zM460 383v131h76v-131h-76zM603 383v131h82v-131h-82zM137 18q20 22 70 87q17 24 25 34q47 -54 80 -117q76 52 83 70q0 2 -10 9q-50 35 -115 98q38 108 56 243q19 138 11 251q-3 158 -208 188q-4 -51 -50 -105q85 14 141 -20
q66 -49 32 -301q-14 17 -45 55q-74 93 -110 129q-25 -44 -55 -73q117 -77 196 -214q-8 -50 -28 -102q-51 61 -109 108q-19 -37 -59 -68q76 -40 137 -97q-4 -5 -13 -15q-51 -63 -97 -98z" />
</svg>
