<?xml version="1.0" standalone="no"?>
<!DOCTYPE svg PUBLIC "-//W3C//DTD SVG 1.1//EN" "http://www.w3.org/Graphics/SVG/1.1/DTD/svg11.dtd" >
<svg xmlns="http://www.w3.org/2000/svg" xmlns:xlink="http://www.w3.org/1999/xlink" version="1.1" viewBox="-10 0 1034 1024">
  <g transform="matrix(1 0 0 -1 0 820)">
   <path fill="currentColor"
d="M275 606q9 13 20 27q9 13 19 26q21 30 35 43q6 9 34 26q-33 18 -53 37q-9 -24 -31 -60q-24 -37 -65 -89q-30 30 -92 71q-21 15 -35 27q-10 -19 -29 -43q22 -4 59 -28q45 -28 73 -60q-27 -33 -66 -68q-37 -30 -81 -48q28 -13 52 -36q0 3 4 4q1 3 9 8q57 55 107 110
q36 -55 53 -148q-9 -18 -38 -61q-28 -40 -63 -81q-72 -82 -132 -105q27 -12 52 -31q51 45 92 91q42 51 98 126q3 -63 4 -136q0 -106 -12 -190q-13 -81 -46 -98q-22 -13 -69 -14q-12 0 -43 7q12 -24 18 -53q82 6 112 23q49 25 65 116q6 39 10 96q3 58 3 118q0 114 -11 192
q-9 54 -27 106q-13 34 -40 75q6 10 14 20zM720 292l214 -1q19 0 33 -5v48q-4 -3 -15 -3l-53 -4l-465 1q-3 1 -6 1q-16 0 -25 2q-3 0 -11 3v-48q24 6 53 6h237v-345q0 -30 -14 -37q-18 -9 -59 -10q-33 0 -65 6q10 -21 18 -50q81 6 99 10q22 6 37 14q21 15 22 55v357zM420 622
l4 -122q-1 -13 -3 -35q0 -9 -2 -16h48q-3 7 -6 66v75h430v-66q0 -18 -3 -52q0 -3 -2 -15h48q-4 54 -5 81l5 93q-31 -1 -64 -5l-406 1q-19 3 -45 4q0 -4 1 -9zM721 693q-15 15 -79 66l-34 27q-9 -18 -26 -39q33 -21 68 -51q39 -34 46 -41q6 -7 14 -16q4 9 23 28l5 4q1 0 3 3
l2 1q-12 9 -22 18v0z" />
  </g>

</svg>
