<?xml version="1.0" standalone="no"?>
<!DOCTYPE svg PUBLIC "-//W3C//DTD SVG 1.1//EN" "http://www.w3.org/Graphics/SVG/1.1/DTD/svg11.dtd" >
<svg xmlns="http://www.w3.org/2000/svg" xmlns:xlink="http://www.w3.org/1999/xlink" version="1.1" viewBox="-10 0 1034 1024">
  <g transform="matrix(1 0 0 -1 0 820)">
   <path fill="currentColor"
d="M127 -64q6 -18 10 -36q46 3 76 7q24 4 44 15q45 22 63 74q21 61 21 184q0 54 -4 116q-3 60 -11 118q-4 49 -22 104q-15 42 -30 68q6 6 13 12q16 19 34 39q27 30 46 43q9 7 39 21q-12 12 -24 21q-9 9 -25 27q-13 -27 -35 -51q-30 -36 -50 -55q-13 -15 -24 -24
q-36 42 -95 90l-43 36q-15 -24 -36 -45q33 -9 62 -28q51 -39 82 -83q-33 -30 -69 -54q-45 -30 -95 -45q13 -9 23 -17q9 -9 23 -25q43 30 74 54l67 55q39 -64 47 -157q-12 -22 -27 -42l-85 -88q-52 -45 -113 -70q30 -16 47 -37q46 36 96 81q30 28 50 50q18 18 40 45
q3 -36 4 -61l2 -112q0 -73 -11 -128q-13 -54 -42 -73q-24 -15 -69 -16q-15 0 -62 8zM616 -10q18 18 47 41q-3 31 -5 59q-40 -48 -96 -96l-52 -42q-7 -6 -16 -14v394h128q16 -69 39 -120q18 -43 57 -106q72 -117 197 -207q18 18 23 20q9 7 31 21q-51 15 -96 49
q-66 54 -126 146q3 3 102 72l35 24q30 19 38 21q6 3 16 6l-19 16q-13 12 -26 28q-7 -12 -16 -20q-9 -9 -32 -26q-75 -60 -119 -85q-30 63 -39 86q-9 24 -21 75q154 0 168 -2l37 -4q-3 33 -5 67l1 304l4 48q-60 -4 -84 -5l-290 1q-19 3 -46 4q1 -31 5 -65l-1 -747
q-6 -22 -29 -46q10 -6 20 -14q9 -9 24 -27q24 33 38 48q6 7 108 96zM494 553v151h335v-151h-335zM494 367v150h335v-150h-335z" />
  </g>

</svg>
