<?xml version="1.0" standalone="no"?>
<!DOCTYPE svg PUBLIC "-//W3C//DTD SVG 1.1//EN" "http://www.w3.org/Graphics/SVG/1.1/DTD/svg11.dtd" >
<svg xmlns="http://www.w3.org/2000/svg" xmlns:xlink="http://www.w3.org/1999/xlink" version="1.1" viewBox="-10 0 1010 1000">
   <path fill="currentColor"
d="M669 -12q24 60 53 118l-85 25q-10 -38 -60 -115zM129 28q60 63 115 127q57 -69 75 -119q67 54 86 79q-36 6 -119 102q51 95 69 240q9 73 8 153q0 81 -10 154q-3 114 -194 133q-10 -72 -54 -111q138 29 163 -48q10 -33 13 -130q2 -100 -5 -163q-60 107 -169 220
q-29 -45 -75 -67q110 -59 224 -246q-11 -44 -28 -80q-32 40 -131 129q-16 -45 -53 -73q108 -70 148 -115q-60 -69 -125 -121zM421 135q76 8 123 8h256q79 0 133 -12q-11 34 -8 104v37q0 42 8 78h-104q10 -60 10 -133h-333q0 93 12 141h-99q8 -55 8 -84v-36q0 -67 -6 -103z
M389 409q33 5 58 6q25 2 65 2h288q77 0 148 -6v89q-41 -9 -127 -10h-101v300q2 73 -27 91q-24 22 -131 28q0 -55 -36 -97q123 27 117 -38v-284h-141q-59 0 -113 6v-87z" />
</svg>
