<?xml version="1.0" standalone="no"?>
<!DOCTYPE svg PUBLIC "-//W3C//DTD SVG 1.1//EN" "http://www.w3.org/Graphics/SVG/1.1/DTD/svg11.dtd" >
<svg xmlns="http://www.w3.org/2000/svg" xmlns:xlink="http://www.w3.org/1999/xlink" version="1.1" viewBox="-10 0 1034 1024">
  <g transform="matrix(1 0 0 -1 0 820)">
   <path fill="currentColor"
d="M592 204q48 0 58 -5q3 0 6 -1v47q-13 -3 -38 -4l-83 -1q3 132 6 136q1 16 14 31q-7 0 -20 2q-15 3 -40 9q6 -63 6 -111l-1 -67l-118 3l-6 2v-47q63 6 94 6h27q-6 -81 -14 -133q-16 -87 -69 -139q-36 -33 -84 -41q24 -22 41 -44q55 36 95 86q55 75 64 234l4 37h58z
M435 508q-31 3 -64 5v-47q24 6 44 6h279q6 -159 9 -177q0 -18 17 -142q12 -69 18 -90q0 -1 2 -6q-57 -72 -117 -116q-54 -36 -101 -38q19 -18 24 -24q4 -6 13 -22q63 36 93 59q27 21 103 95q9 -22 20 -42l20 -33q24 -36 41 -50q24 -21 54 -22q15 0 30 10q19 16 31 49
q6 19 14 65q1 10 4 21q-22 4 -49 15q1 -15 2 -27q0 -27 -6 -54q-9 -37 -29 -38q-18 0 -44 31q-9 10 -33 51q-15 27 -26 60q25 54 41 95q13 37 25 84q10 45 23 88q1 6 3 13q6 24 29 49q-36 9 -61 21q-6 -73 -27 -153q-18 -75 -49 -143q-9 42 -16 86q-6 33 -13 106l-5 88
l-3 91l187 -1q24 0 32 -4q3 0 5 -1v47q-3 0 -61 -5h-164l-2 110q0 52 6 84q4 24 16 42q-31 0 -62 6q3 -64 5 -242h-258zM905 563q7 6 20 18q-7 10 -17 20l-42 51q-54 54 -58 62q-15 -18 -28 -28q81 -81 114 -135q4 6 11 12zM54 473q19 -15 24 -20q6 -6 18 -21q16 10 63 50
q39 30 59 49q7 6 21 19q31 -55 48 -148q-51 -85 -142 -176q-52 -51 -88 -57q30 -21 46 -37l74 74q25 27 45 49q33 39 74 91q3 -31 5 -52q3 -54 3 -116q0 -124 -15 -184q-15 -48 -38 -67q-27 -21 -87 -21q-18 0 -45 4q9 -21 14 -49q33 3 54 6q48 7 74 19q49 25 69 126
q10 61 11 188q0 174 -38 300q-10 33 -33 77l83 90q28 28 54 40q-30 18 -53 39q-24 -54 -106 -137q-61 69 -142 127q-15 -21 -32 -38q46 -19 84 -51q27 -22 60 -64q-111 -105 -164 -110v0z" />
  </g>

</svg>
