<?xml version="1.0" standalone="no"?>
<!DOCTYPE svg PUBLIC "-//W3C//DTD SVG 1.1//EN" "http://www.w3.org/Graphics/SVG/1.1/DTD/svg11.dtd" >
<svg xmlns="http://www.w3.org/2000/svg" xmlns:xlink="http://www.w3.org/1999/xlink" version="1.1" viewBox="-10 0 1010 1000">
   <path fill="currentColor"
d="M639 -2q82 4 97 12q1 2 -2 11q-22 65 -20 200h117q54 0 107 -6v77q-53 -6 -109 -6h-115q0 223 20 310q55 -129 81 -254q12 5 36 14q59 21 56 25q0 3 -5 7q-27 26 -53 102q-33 98 -87 191q11 34 55 86q4 5 6 7q27 31 38 14q11 -14 20 -99q36 28 81 38q-21 72 -29 111
q-30 99 -123 29q-52 -39 -96 -119q-5 5 -14 15q-61 71 -113 122q-36 -39 -83 -51q106 -65 179 -157q-21 -80 -30 -172q-8 -87 -8 -219h-147q-74 0 -125 6v-77q45 6 123 6h149v-25q1 -143 -6 -198zM159 34q19 23 55 77q26 38 40 58q51 -50 81 -99q85 42 76 51q-1 1 -4 2
q-32 12 -121 108q61 141 69 359q1 156 -45 214q-37 56 -175 77q-3 -56 -38 -99q175 38 183 -137q3 -79 0 -116q-2 -44 -10 -86q-71 106 -167 208q-20 -29 -73 -57q173 -122 222 -244q-9 -41 -22 -70q-8 7 -24 20q-63 54 -99 81q-28 -47 -63 -67q80 -33 156 -97
q-45 -80 -105 -139zM808 52q66 60 93 107l-66 48q-34 -70 -95 -111zM464 312q89 0 92 10q0 1 -2 7q-16 45 -16 136q29 0 88 -4q-3 1 5 0v73q-24 -5 -93 -4q10 211 -151 367q-33 -33 -83 -51q92 -64 129 -135q36 -68 35 -181q-59 0 -101 6v-77q36 6 101 6q-1 -34 -2 -87z" />
</svg>
