<?xml version="1.0" standalone="no"?>
<!DOCTYPE svg PUBLIC "-//W3C//DTD SVG 1.1//EN" "http://www.w3.org/Graphics/SVG/1.1/DTD/svg11.dtd" >
<svg xmlns="http://www.w3.org/2000/svg" xmlns:xlink="http://www.w3.org/1999/xlink" version="1.1" viewBox="-10 0 1034 1024">
  <g transform="matrix(1 0 0 -1 0 820)">
   <path fill="currentColor"
d="M44 131q22 -12 45 -35q4 4 118 105q27 24 47 48q24 27 71 85q10 -76 11 -154q0 -69 -6 -131q-9 -72 -23 -97q-25 -45 -102 -45q-7 0 -46 4q15 -27 20 -51q61 4 100 21q63 27 80 99q6 24 11 81q3 52 4 108q0 46 -5 102q-4 52 -11 95q-13 78 -44 136q-21 39 -36 56l70 86
q27 34 34 38q6 6 31 18q-27 12 -53 36q-24 -54 -110 -150q-42 39 -96 72q-18 10 -30 21q-15 -30 -31 -52q75 -6 130 -69q-30 -31 -65 -62q-48 -39 -87 -54q25 -18 33 -27q3 -4 9 -11q19 15 63 55q27 22 42 38q15 12 35 34q45 -69 61 -142q-58 -93 -152 -177q-45 -39 -66 -54
q-21 -13 -52 -27zM774 327l-321 1q-31 3 -36 6v-48q24 6 40 6h317v-327q0 -24 -3 -36q-3 -15 -21 -24q-15 -7 -51 -8q-18 0 -68 7q9 -24 16 -52l95 9q36 7 54 26q15 18 16 60v345q135 0 146 -3q3 0 6 -3v48q-4 -3 -15 -3q-3 0 -6 -1l-131 -3v73q0 15 4 30q4 21 16 36h-63
q1 -33 5 -66v-73zM496 612q-42 6 -64 6q1 -30 5 -62l-4 -99q-1 -1 -1 -5h47q-4 54 -5 83v42h415v-57q0 -18 -3 -52q0 -9 -2 -15h48q-6 43 -5 72l5 93l-60 -6h-376zM496 200q22 -10 63 -54q33 -39 53 -82l19 16q9 9 20 17q-37 48 -63 77q-22 25 -57 60q-21 -24 -35 -34z
M690 715q3 -1 -16 12q-36 22 -48 32q-16 -25 -29 -38q85 -45 130 -94q15 18 30 35q-7 6 -18 14z" />
  </g>

</svg>
