<?xml version="1.0" standalone="no"?>
<!DOCTYPE svg PUBLIC "-//W3C//DTD SVG 1.1//EN" "http://www.w3.org/Graphics/SVG/1.1/DTD/svg11.dtd" >
<svg xmlns="http://www.w3.org/2000/svg" xmlns:xlink="http://www.w3.org/1999/xlink" version="1.1" viewBox="-10 0 1010 1000">
   <path fill="currentColor"
d="M266 4q80 39 89 52q-2 4 -9 7q-19 7 -36 27q-29 30 -82 95q45 99 55 281q8 216 -25 308q-29 70 -169 86q2 -31 -31 -100q105 28 127 -20q40 -88 31 -307q-4 5 -12 16q-76 103 -129 166q-17 -37 -51 -67q108 -74 176 -216q-6 -51 -23 -88q-18 19 -48 50t-48 50
q-38 -41 -61 -52q83 -62 127 -111q-37 -54 -103 -109l69 -44q10 12 30 37q33 39 49 60q43 -61 74 -121zM450 6q86 2 98 12q0 2 -3 6q-16 20 -17 70q-2 84 -3 170q-1 42 -1 88v111q12 272 -179 428q-31 -38 -79 -49q140 -83 168 -200q18 -60 23 -160q5 -77 3 -317
q0 -99 -10 -159zM944 48v85q-35 -6 -91 -6h-75v113h45q53 0 102 -5q-6 35 -6 89v357q1 38 -21 52q-21 16 -83 23q1 -48 -29 -85q68 23 63 -32v-331h-71v458q0 85 8 125h-88q14 -43 14 -123v-460h-69v337q0 77 6 123h-86q11 -52 12 -131v-89v-224q0 -42 -8 -91q30 6 80 7h65
v-113h-59q-57 -1 -95 8v-81q45 4 93 4h196q54 -1 97 -10zM331 129q90 4 92 12q0 1 -2 4q-16 23 -16 72v317q0 48 6 89h-84q10 -36 10 -91v-317q0 -54 -6 -86z" />
</svg>
