<?xml version="1.0" standalone="no"?>
<!DOCTYPE svg PUBLIC "-//W3C//DTD SVG 1.1//EN" "http://www.w3.org/Graphics/SVG/1.1/DTD/svg11.dtd" >
<svg xmlns="http://www.w3.org/2000/svg" xmlns:xlink="http://www.w3.org/1999/xlink" version="1.1" viewBox="-10 0 1010 1000">
   <path fill="currentColor"
d="M597 -8q97 5 111 12q0 4 -4 8q-12 15 -17 52q-3 21 -5 61q-1 14 -1 22h123q65 0 107 -6v84l-3 -1q-40 -7 -85 -7h-144q0 61 -4 161q-3 65 -4 101h158q77 0 117 -8v89q-19 -9 -109 -10h-127q42 183 256 260q-35 26 -63 91q-210 -113 -254 -325q-51 202 -272 329
q-23 -47 -75 -77q220 -79 273 -278h-97q-67 -1 -121 8v-87q48 9 99 8h133q8 -98 10 -262h-83h-80q-25 1 -41 2v-80q60 8 119 8h87q0 -119 -4 -155zM113 32q47 33 111 113q60 -62 88 -111q83 61 75 72q-2 2 -8 5q-40 21 -113 98q45 84 65 217q18 137 4 267q-4 175 -210 194
q-10 -41 -40 -103q64 12 100 1q37 -11 56 -49q38 -71 17 -289q-66 104 -185 210q-12 -49 -43 -85q125 -70 210 -222q-12 -44 -30 -86q-26 18 -117 96q-24 -39 -61 -68q91 -43 143 -89q-101 -103 -125 -117zM794 256q7 3 21 8q46 19 72 32q-31 30 -89 149q-27 -19 -72 -28
q50 -82 68 -161zM476 260q30 75 66 151l-84 18q-34 -89 -69 -143z" />
</svg>
