<?xml version="1.0" standalone="no"?>
<!DOCTYPE svg PUBLIC "-//W3C//DTD SVG 1.1//EN" "http://www.w3.org/Graphics/SVG/1.1/DTD/svg11.dtd" >
<svg xmlns="http://www.w3.org/2000/svg" xmlns:xlink="http://www.w3.org/1999/xlink" version="1.1" viewBox="-10 0 1010 1000">
   <path fill="currentColor"
d="M619 -2q94 1 99 18q0 6 -7 16q-13 19 -13 42v121h56q104 -1 151 -6q-6 54 -8 143v97q2 91 6 137q-29 -4 -137 -4h-70v200l141 -10q-30 -72 -43 -93l81 -26q58 132 87 240l-85 24q-6 -41 -15 -69q-2 -5 -3 -8q-190 19 -296 28q-128 12 -170 17l-22 -99l81 4l169 -2v-206
h-107q-3 36 4 75h-83q3 -52 3 -145v-146q-1 -109 -5 -157q73 4 146 6h44v-105q0 -69 -4 -92zM153 36q60 66 105 129q43 -51 81 -123q96 55 88 68q-3 4 -14 7q-21 7 -36 24q-41 47 -81 86q59 140 61 353q-2 185 -42 252q-48 62 -168 57q-9 -52 -36 -103q80 23 123 0
q47 -51 50 -196v-24q1 -56 -4 -115q-50 110 -167 228q-33 -37 -71 -64q154 -120 222 -238q-12 -58 -30 -95q-80 75 -127 101q-22 -38 -63 -57q91 -46 158 -105q-49 -74 -115 -135zM621 262h-107v232h107v-232zM696 262v232h125v-232h-125z" />
</svg>
