<?xml version="1.0" standalone="no"?>
<!DOCTYPE svg PUBLIC "-//W3C//DTD SVG 1.1//EN" "http://www.w3.org/Graphics/SVG/1.1/DTD/svg11.dtd" >
<svg xmlns="http://www.w3.org/2000/svg" xmlns:xlink="http://www.w3.org/1999/xlink" version="1.1" viewBox="-10 0 1034 1024">
  <g transform="matrix(1 0 0 -1 0 820)">
   <path fill="currentColor"
d="M281 595q46 63 84 106q12 12 33 19l-20 14q-15 9 -31 22q-9 -18 -18 -31q-9 -15 -27 -39q-27 -40 -56 -74q-60 51 -129 89q-7 -16 -23 -38q66 -25 123 -79q-45 -51 -79 -78q-33 -24 -76 -41q18 -13 28 -22l16 -16q48 37 140 128q39 -58 53 -156q-93 -141 -156 -189
q-39 -30 -78 -52q24 -13 47 -32q94 78 192 211l6 -112q1 -40 2 -79q0 -178 -38 -219q-24 -27 -86 -28q-6 0 -41 4q7 -15 13 -23q6 -12 12 -27q36 3 58 8q42 9 69 34q24 27 37 83q12 72 13 167q0 234 -30 335q-15 52 -48 103q4 6 10 12zM452 402q1 -27 5 -57l-1 -471
q-1 -15 -4 -26h48q-6 25 -6 49v159h386v-115q0 -27 -8 -36q-6 -6 -34 -11q-21 -3 -48 -3q-22 0 -44 4q9 -18 17 -47q42 0 68 5q52 7 65 17q21 15 22 65l1 425l4 42q-48 -6 -56 -6l-379 1q-3 0 -36 5zM494 247v113h386v-113h-386zM880 92h-386v119h386v-119zM483 703
q3 -63 4 -96l-3 -108q-1 -12 -2 -19q54 6 75 6l292 -1q18 -1 39 -5q-4 48 -5 89q0 99 2 109q0 16 3 34q-49 -4 -55 -5l-312 1q-4 1 -39 4q0 -4 1 -9zM845 522h-321v149h321v-149z" />
  </g>

</svg>
