<?xml version="1.0" standalone="no"?>
<!DOCTYPE svg PUBLIC "-//W3C//DTD SVG 1.1//EN" "http://www.w3.org/Graphics/SVG/1.1/DTD/svg11.dtd" >
<svg xmlns="http://www.w3.org/2000/svg" xmlns:xlink="http://www.w3.org/1999/xlink" version="1.1" viewBox="-10 0 1010 1000">
   <path fill="currentColor"
d="M319 26q83 51 94 72q-2 5 -16 11q-25 10 -42 26q-40 39 -75 78q57 116 64 286q4 199 -42 297q-38 51 -163 75q0 -57 -52 -109q96 15 129 -14q28 -22 41 -111q7 -46 9 -103q2 -58 -2 -111q-90 140 -165 210q-29 -40 -71 -63q125 -73 214 -250q-2 -19 -18 -51q-3 -5 -4 -7
q-5 4 -18 15q-17 15 -113 94q-28 -44 -63 -61q65 -28 153 -107q-55 -62 -114 -95l68 -52q61 50 99 95q82 -99 87 -125zM415 56q71 12 131 12h226q2 -1 40 -2q57 -2 83 -4q-8 51 -8 103v240q0 68 6 109q-45 -10 -103 -10h-105v102h123q32 0 87 -4v81q-33 -9 -93 -12h-117v101
h162q54 0 95 -6v82q-76 -10 -109 -10h-325q-85 0 -144 7q-6 1 -9 1v-82q71 8 149 8h107v-101h-93q-65 1 -111 8v-83q23 6 46 8q22 2 67 2h91v-104h-103q-57 0 -99 6q8 -27 10 -51q2 -23 2 -86v-200q0 -86 -6 -115zM494 131v129h117v-129h-117zM810 131h-125v129h125v-129z
M494 320v119h117v-119h-117zM685 320v121h125v-121h-125z" />
</svg>
