<?xml version="1.0" standalone="no"?>
<!DOCTYPE svg PUBLIC "-//W3C//DTD SVG 1.1//EN" "http://www.w3.org/Graphics/SVG/1.1/DTD/svg11.dtd" >
<svg xmlns="http://www.w3.org/2000/svg" xmlns:xlink="http://www.w3.org/1999/xlink" version="1.1" viewBox="-10 0 1010 1000">
   <path fill="currentColor"
d="M675 -2q29 76 37 114l-93 11q-6 -49 -40 -107zM302 38q95 49 87 56q-1 4 -8 6q-16 6 -32 23q-3 4 -10 11q-40 49 -71 83q81 156 87 305q3 234 -35 279q-33 63 -191 82q-8 -60 -44 -111q102 23 147 -16q30 -24 40 -124q10 -108 -6 -219q-105 176 -181 240q-26 -32 -67 -63
q127 -78 222 -262q-9 -24 -28 -54q-82 83 -123 113q-29 -35 -71 -63q72 -30 155 -107q-48 -60 -110 -113l70 -48q48 51 91 103q57 -66 78 -121zM944 121v94q-36 -10 -188 -10h-202q-138 -1 -181 8v-88q30 4 75 6q21 1 48 2h64h180q161 -3 204 -12zM417 274q63 7 152 8h149
q110 -3 167 -12v88q-38 -6 -161 -6h-149q-128 0 -158 6v-84zM423 417q29 5 142 8h167q108 0 155 -6v83q-41 -8 -153 -8h-176q-114 2 -135 8v-85zM435 562q23 8 150 8h121q13 -1 38 -2q111 -4 131 -8q-4 19 -4 105v95q-1 111 6 135h-89q3 -12 5 -48q1 -13 1 -21h-276
q0 30 6 71h-99q10 -49 13 -123v-121q0 -58 -3 -91zM518 639v117h274v-117h-274z" />
</svg>
