<?xml version="1.0" standalone="no"?>
<!DOCTYPE svg PUBLIC "-//W3C//DTD SVG 1.1//EN" "http://www.w3.org/Graphics/SVG/1.1/DTD/svg11.dtd" >
<svg xmlns="http://www.w3.org/2000/svg" xmlns:xlink="http://www.w3.org/1999/xlink" version="1.1" viewBox="-10 0 1034 1024">
  <g transform="matrix(1 0 0 -1 0 820)">
   <path fill="currentColor"
d="M232 522l21 21q21 -48 28 -72q9 -31 17 -81q-87 -148 -175 -223q-21 -18 -42 -32q-15 -9 -37 -19q24 -10 50 -32q39 34 85 83q61 64 130 167l9 -180q0 -45 -3 -90l-6 -75q-9 -60 -69 -81q-30 -9 -68 -9q-21 0 -43 5q13 -21 26 -55q66 3 107 20q73 36 87 118q6 55 7 149
q0 108 -10 190q-6 63 -17 115q-13 66 -47 130q63 87 69 90q34 42 63 58q-24 9 -56 32q-18 -48 -98 -148q-40 48 -86 87l-33 27q-4 6 -20 19q-12 -18 -36 -43q36 -10 73 -41q36 -28 72 -77q-48 -57 -99 -99q-54 -42 -86 -51q13 -10 18 -13q19 -15 29 -24q51 45 102 94
q18 21 38 40zM476 -158q3 -6 12 -18q18 27 37 46q55 48 105 97q12 12 42 36q-3 27 -5 53q-22 -25 -57 -55l-63 -56q-19 -16 -39 -30v349h139l40 -122q42 -103 127 -195q28 -30 74 -66l55 -42q15 22 44 44q-55 18 -106 60q-81 70 -111 128q36 36 77 73q36 33 50 42q9 6 34 15
q-27 22 -47 48l-62 -72q-3 -1 -4 -4q-12 -15 -48 -48q-9 -6 -21 -21q-18 31 -28 57q-12 30 -32 103q154 0 168 -2q15 0 37 -3q-4 49 -5 61l1 270l4 43q-31 -1 -64 -5l-320 1q-15 3 -46 4q1 -30 5 -61l-1 -664q0 -1 -7 -22q-4 -6 -12 -15q18 -18 27 -29zM850 468h-342v124
h342v-124zM508 299v133h342v-133h-342zM584 734q81 -27 133 -98q18 28 32 39q-67 55 -136 100q-22 -33 -29 -41v0z" />
  </g>

</svg>
