<?xml version="1.0" standalone="no"?>
<!DOCTYPE svg PUBLIC "-//W3C//DTD SVG 1.1//EN" "http://www.w3.org/Graphics/SVG/1.1/DTD/svg11.dtd" >
<svg xmlns="http://www.w3.org/2000/svg" xmlns:xlink="http://www.w3.org/1999/xlink" version="1.1" viewBox="-10 0 1010 1000">
   <path fill="currentColor"
d="M595 8q102 14 107 30q0 4 -5 7q-8 4 -14 11q55 162 289 256q-46 31 -75 77q-63 -39 -103 -75v77q-39 -9 -117 -6h-92q-65 0 -101 6v-57q-7 7 -19 20q-41 43 -62 59q-20 -20 -80 -48q29 158 18 322q-6 111 -49 149q-37 40 -161 53q2 -53 -44 -103q98 19 135 -8
q55 -61 40 -317q-67 93 -185 198q-17 -28 -65 -61q143 -80 230 -231q-9 -42 -26 -81q-67 62 -137 109q-30 -39 -61 -63q74 -32 165 -105q-63 -69 -129 -112l69 -53q44 42 115 113q80 -87 91 -123q95 64 84 69q-7 7 -22 17q-14 8 -24 15q-14 10 -48 44q-28 27 -43 40
q30 53 43 119q186 -103 276 -348zM637 110q-3 5 -9 16q-61 112 -122 184q13 4 28 5q12 1 49 1h100q69 0 105 -8q-103 -89 -151 -198zM770 435q112 27 109 40q-1 4 -7 8q-16 9 -25 35q-62 187 -85 256h42q104 -3 125 -6v95q-43 -8 -183 -11h-222q-129 0 -159 6v-92
q36 5 155 8h165q63 -141 85 -339zM637 445q32 100 55 218l-83 18q-7 -81 -49 -222zM486 471q22 70 62 230l-88 20q-12 -127 -53 -233z" />
</svg>
