<?xml version="1.0" standalone="no"?>
<!DOCTYPE svg PUBLIC "-//W3C//DTD SVG 1.1//EN" "http://www.w3.org/Graphics/SVG/1.1/DTD/svg11.dtd" >
<svg xmlns="http://www.w3.org/2000/svg" xmlns:xlink="http://www.w3.org/1999/xlink" version="1.1" viewBox="-10 0 1010 1000">
   <path fill="currentColor"
d="M312 14q9 5 25 15q68 40 54 47q-1 1 -5 2q-18 6 -39 28q-5 6 -18 19q-31 36 -55 60q72 153 81 339q1 206 -39 261q-32 62 -175 84q-8 -67 -42 -105q88 19 131 -12q29 -19 42 -115q12 -93 0 -214q-100 143 -175 208q-32 -39 -61 -63q124 -81 216 -234q-6 -40 -32 -90
q-6 5 -23 20q-97 86 -108 92q-21 -40 -59 -68q76 -32 149 -105q-52 -63 -112 -101l66 -56l97 103q51 -60 82 -115zM599 26q51 74 48 84q-2 1 -7 0q-42 -9 -146 7v127h40q32 -3 70 -6q7 -1 9 -1v85q-47 -8 -71 -8h-48v127h298v-129h-34q-13 1 -38 2q-27 1 -37 2v-79
q30 4 75 5h34v-121q-86 0 -113 6v-81q5 2 22 3q13 1 55 1h36q56 -1 83 -4q-7 42 -8 151v157q0 38 6 160q-7 -1 -24 -2h-55h-44v226q0 38 11 47q9 10 51 7q47 0 56 -18q11 -13 9 -81l24 12q38 21 63 24q-13 87 -42 112q-26 28 -107 28q-95 2 -116 -18q-24 -15 -22 -93v-246
h-72q3 157 -45 233q-42 77 -185 156q-28 -50 -73 -77q136 -37 182 -103q48 -61 46 -209h-24q-28 0 -84 7q-8 1 -11 1q7 -63 8 -162v-116q-1 -92 -6 -178q81 10 186 -38z" />
</svg>
