<?xml version="1.0" standalone="no"?>
<!DOCTYPE svg PUBLIC "-//W3C//DTD SVG 1.1//EN" "http://www.w3.org/Graphics/SVG/1.1/DTD/svg11.dtd" >
<svg xmlns="http://www.w3.org/2000/svg" xmlns:xlink="http://www.w3.org/1999/xlink" version="1.1" viewBox="-10 0 1034 1024">
  <g transform="matrix(1 0 0 -1 0 820)">
   <path fill="currentColor"
d="M79 145q4 -1 13 -8q48 48 80 86q16 19 38 48q24 31 56 78q1 -24 3 -40q0 -57 3 -103q0 -39 -8 -151q-7 -52 -20 -84q-13 -30 -59 -38q-19 -3 -47 -4q-12 0 -37 6q1 -3 3 -7q1 -6 5 -14q6 -19 9 -34q13 0 27 3q33 3 48 6q27 4 48 16q45 27 59 124q10 87 11 182
q0 63 -5 141q-4 78 -16 128q-13 54 -49 109l49 75q9 12 15 21q27 42 49 55q-13 7 -48 34q-39 -82 -90 -152q-37 33 -64 53q-13 12 -22 17q-10 6 -24 16q-9 -12 -10 -14q-12 -12 -23 -25q66 -18 115 -80q-24 -33 -59 -69q-37 -36 -79 -60q21 -15 40 -35q37 36 122 125
q0 3 3 4q33 -57 46 -139q-33 -54 -61 -94q-27 -36 -59 -72q-30 -33 -52 -54q-19 -18 -41 -33q6 -1 31 -17zM843 360h57q24 0 63 -5v46q-7 0 -16 -3q-24 0 -47 -2l-545 2q-6 3 -13 3v-46q46 4 86 5h377v-399q0 -28 -7 -40q-7 -10 -36 -14q-27 -3 -50 -3q-30 0 -58 6
q9 -24 17 -53q21 0 101 8q39 6 53 16q18 15 18 63v416zM412 412q51 19 104 50q60 36 106 105q33 -16 59 -31l66 -40q51 -33 100 -79q16 27 32 44l-242 146l3 18h207q27 0 63 -5v46l-39 -4l-224 -1q3 16 7 33q9 43 13 51q3 9 20 22q-42 3 -66 9q-3 -69 -13 -115l-204 2
q-6 3 -13 3v-46q49 4 80 5h127q-24 -75 -83 -118q-60 -37 -131 -50q7 -13 11 -18q0 -4 9 -14q3 -6 8 -13zM420 75q-3 -27 -5 -57q45 4 66 5l168 -1l37 -4q-4 45 -5 64l1 131q0 15 3 21q0 9 1 18q-25 -1 -51 -5q-168 0 -189 2q-3 1 -5 1q-12 0 -26 2q1 -27 5 -57v-120z
M457 59v152h186v-152h-186z" />
  </g>

</svg>
