<?xml version="1.0" standalone="no"?>
<!DOCTYPE svg PUBLIC "-//W3C//DTD SVG 1.1//EN" "http://www.w3.org/Graphics/SVG/1.1/DTD/svg11.dtd" >
<svg xmlns="http://www.w3.org/2000/svg" xmlns:xlink="http://www.w3.org/1999/xlink" version="1.1" viewBox="-10 0 1010 1000">
   <path fill="currentColor"
d="M752 217q100 25 95 35q0 3 -6 9q-29 27 -55 87q41 21 147 89l-64 61q-90 -84 -111 -93q-41 72 -56 101q-55 -20 -85 -23q91 -106 135 -266zM510 223q94 15 95 27q-1 3 -7 8q-24 22 -42 70q46 20 99 53l-50 56q-26 -31 -73 -58q-36 78 -66 133q-50 -22 -87 -25
q89 -95 131 -264zM605 520q90 5 97 14q0 4 -4 13q-6 16 -6 29v24h143q61 0 111 -8v85q-40 -6 -99 -6h-155v133q0 72 4 105h-89q6 -22 6 -101v-137h-141q-55 -1 -91 8v-85q42 6 91 6h141v-22q0 -29 -8 -58zM663 -27q20 31 47 119l-85 25q-19 -75 -50 -117zM379 113q45 8 63 9
q16 1 84 1h266q64 0 91 -2q28 -2 54 -8v92q-5 -1 -17 -2q-64 -8 -128 -8h-264q-94 0 -149 8v-90zM127 12q45 47 111 127q56 -71 72 -119q73 54 83 80q0 2 -10 8q-49 29 -105 93q48 95 66 240q17 152 -1 307q-4 115 -186 133q-10 -71 -52 -111q133 28 155 -47q13 -51 15 -130
q2 -81 -7 -164q-55 104 -161 220q-29 -44 -71 -67q104 -59 214 -246q-11 -44 -28 -80q-33 43 -125 129q-12 -33 -61 -71q85 -47 151 -117q-59 -73 -118 -121z" />
</svg>
