<?xml version="1.0" standalone="no"?>
<!DOCTYPE svg PUBLIC "-//W3C//DTD SVG 1.1//EN" "http://www.w3.org/Graphics/SVG/1.1/DTD/svg11.dtd" >
<svg xmlns="http://www.w3.org/2000/svg" xmlns:xlink="http://www.w3.org/1999/xlink" version="1.1" viewBox="-10 0 1010 1000">
   <path fill="currentColor"
d="M333 14q86 54 98 72q-1 4 -13 8q-34 11 -61 37q-21 21 -45 47q-9 10 -14 15q43 72 59 202q9 69 9 145q1 83 -7 135q-13 99 -54 134q-35 36 -158 62q0 -51 -58 -113q43 12 88 9q43 -4 59 -21q72 -81 46 -321q-81 113 -189 202q-26 -44 -71 -69q141 -69 244 -234
q-3 -21 -19 -57q-6 -12 -9 -19q-28 23 -96 75q-29 23 -45 35q-18 -37 -67 -68q63 -21 164 -105q-42 -53 -115 -101l70 -56q22 20 61 59q25 26 38 38q53 -57 85 -111zM462 34q69 12 193 12h121q81 0 141 -10q-12 65 -12 131v113q-3 58 10 115q-62 -13 -141 -10h-187
q-84 -3 -133 6q14 -68 14 -121v-125q0 -63 -6 -111zM544 110v75h285v-75h-285zM544 244v76h285v-76h-285zM431 445q71 12 174 12h179q86 0 153 -10q-12 45 -10 123v192q0 75 6 119h-94q6 -30 6 -71h-323q-1 44 4 63h-99q11 -41 11 -135v-172q0 -48 -7 -121zM518 520v86h329
v-86h-329zM520 665v81h327v-81h-327z" />
</svg>
