<?xml version="1.0" standalone="no"?>
<!DOCTYPE svg PUBLIC "-//W3C//DTD SVG 1.1//EN" "http://www.w3.org/Graphics/SVG/1.1/DTD/svg11.dtd" >
<svg xmlns="http://www.w3.org/2000/svg" xmlns:xlink="http://www.w3.org/1999/xlink" version="1.1" viewBox="-10 0 1010 1000">
   <path fill="currentColor"
d="M649 0q100 14 105 28q0 2 -4 7q-28 31 -54 118h183q35 0 77 -8q-47 138 -57 187l-89 -2q31 -72 43 -109h-178q-3 6 -11 26q-30 71 -57 132q-40 -34 -67 -43q72 -95 109 -336zM694 310q96 0 98 8q1 4 -4 11q-18 30 -18 98v391q1 40 -27 54q-26 16 -110 23q-4 -39 -30 -97
q101 27 99 -36v-295q0 -77 -2 -108q-1 -30 -6 -49zM595 443q81 11 88 20q0 2 -5 7q-9 11 -13 22q-1 3 -3 10q-35 139 -73 258q-18 -7 -69 -18q-6 -1 -10 -2q59 -102 85 -297zM853 443q49 75 115 270l-87 31q-29 -139 -99 -275zM395 66h81q34 -1 58 -4q-8 51 -8 95v117
q0 42 4 74q-45 -6 -72 -6h-57v141h75q24 0 48 -6q-8 71 -17 208q-5 63 -7 95q13 78 -155 95q-8 -54 -35 -101q123 28 121 -30q1 -23 4 -88q3 -75 5 -110h-49q-24 0 -66 6q8 -24 8 -73v-157q0 -24 -4 -49q1 1 0 -3q25 3 58 4h71v-141h-41q-39 0 -72 6v-77q32 4 50 4zM264 20
q74 45 73 58q-2 3 -8 8q-12 9 -21 20q-36 41 -82 95q45 98 55 281q8 216 -25 308q-29 70 -169 85q2 -30 -31 -99q93 25 127 -20q15 -22 25 -112q9 -98 6 -195q-4 5 -12 16q-76 103 -129 166q-17 -37 -51 -67q108 -74 176 -216q-6 -51 -23 -88q-18 19 -48 50t-48 50
q-38 -41 -61 -52q83 -62 127 -111q-39 -57 -103 -109l69 -44q10 12 30 37q33 39 49 60q47 -66 74 -121z" />
</svg>
