<?xml version="1.0" standalone="no"?>
<!DOCTYPE svg PUBLIC "-//W3C//DTD SVG 1.1//EN" "http://www.w3.org/Graphics/SVG/1.1/DTD/svg11.dtd" >
<svg xmlns="http://www.w3.org/2000/svg" xmlns:xlink="http://www.w3.org/1999/xlink" version="1.1" viewBox="-10 0 1034 1024">
  <g transform="matrix(1 0 0 -1 0 820)">
   <path fill="currentColor"
d="M358 736q-42 -84 -109 -155q-27 31 -60 64q-54 48 -57 53q-18 -19 -34 -33q66 -30 126 -113q-85 -93 -160 -123q10 -7 23 -16l21 -21q15 15 31 30q54 48 105 99q43 -85 57 -141q-58 -84 -130 -156q-64 -60 -115 -84q22 -15 42 -35q57 52 103 99q46 51 110 127l9 -84
q1 -30 2 -58q0 -57 -6 -102q-10 -78 -33 -115q-21 -34 -70 -52q-24 -9 -57 -9q-18 0 -39 4l13 -26q3 -6 8 -24q67 6 103 23q66 28 94 104q24 73 24 176q0 22 -2 59q0 34 -3 59q-7 82 -29 144q-15 49 -53 121q36 42 63 78q45 58 53 61q9 6 24 13q-15 6 -54 33zM887 269
q-63 -132 -137 -204q-3 3 -133 120q-4 -1 -26 -28q0 -1 -3 -3l-5 -5q55 -30 136 -111q-144 -123 -356 -130q24 -27 34 -50q195 40 314 125q147 108 238 327q-27 -1 -55 -5h-288q9 15 19 28q4 6 9 13q18 28 29 38q10 10 30 18q-33 21 -45 31l260 -1l39 -4q-6 54 -6 68l1 174
q0 16 5 47q-27 -1 -55 -5l-418 1q-15 3 -38 4q1 -27 5 -54l-1 -194q-3 -12 -4 -41q42 4 62 5h138q-30 -72 -107 -164q-72 -79 -154 -122q27 -21 40 -35q28 19 76 64q45 43 91 93h305zM479 469v207h124v-207h-124zM640 469v207h109v-207h-109zM786 469v207h118v-207h-118z
" />
  </g>

</svg>
