<?xml version="1.0" standalone="no"?>
<!DOCTYPE svg PUBLIC "-//W3C//DTD SVG 1.1//EN" "http://www.w3.org/Graphics/SVG/1.1/DTD/svg11.dtd" >
<svg xmlns="http://www.w3.org/2000/svg" xmlns:xlink="http://www.w3.org/1999/xlink" version="1.1" viewBox="-10 0 1034 1024">
  <g transform="matrix(1 0 0 -1 0 820)">
   <path fill="currentColor"
d="M50 175q6 -1 35 -31l1 -1q109 105 185 209q3 -48 5 -81l2 -120q-7 -105 -9 -121q-12 -81 -51 -100q-24 -10 -67 -11q-12 0 -44 5q9 -21 13 -31q4 -7 8 -26q33 3 57 8q63 12 89 46q27 34 38 117q3 27 5 70l1 120q-1 10 -6 107q-4 76 -22 151q-13 48 -49 116q1 1 8 11
q12 21 30 42q4 9 40 52q15 24 31 30q4 4 14 7q-36 21 -54 37q-36 -75 -93 -148q-54 57 -130 107l-28 -37q48 -24 74 -45q24 -18 56 -57q-31 -37 -70 -71q-33 -27 -72 -49q24 -16 40 -33q21 18 81 74l47 49q22 -46 33 -78q9 -30 14 -79q-60 -97 -125 -164q-52 -49 -91 -71z
M894 261q30 0 63 -6v47q-30 -4 -63 -5l-528 4q-4 1 -7 1v-47q7 3 31 4q10 1 57 2v-307q0 -21 -6 -30q-1 -4 -16 -19q13 -16 35 -49q63 63 206 158q-3 22 -4 51l-67 -53q-27 -21 -70 -49q-18 -13 -40 -27v325h140q33 -103 80 -173q42 -64 121 -132q18 -15 37 -29l75 -52
q10 12 23 25q9 9 19 20q-40 10 -102 50q-72 48 -112 104q63 63 86 80q21 18 46 25q-28 21 -45 40q-52 -61 -110 -115q-51 69 -73 157h224zM440 376l38 4l351 -1l40 -4q-3 27 -5 54l1 271l4 39l-55 -6l-353 1q-7 1 -39 5q1 -28 5 -58l-1 -267q-3 -12 -4 -39q9 1 18 1z
M464 416v124h160v-124h-160zM464 576v122h160v-122h-160zM662 416v124h164v-124h-164zM662 576v122h164v-122h-164z" />
  </g>

</svg>
