<?xml version="1.0" standalone="no"?>
<!DOCTYPE svg PUBLIC "-//W3C//DTD SVG 1.1//EN" "http://www.w3.org/Graphics/SVG/1.1/DTD/svg11.dtd" >
<svg xmlns="http://www.w3.org/2000/svg" xmlns:xlink="http://www.w3.org/1999/xlink" version="1.1" viewBox="-10 0 1010 1000">
   <path fill="currentColor"
d="M429 34q35 6 83 6h303q22 0 68 -4q-32 3 6 0q-8 29 -8 85v219q0 44 4 67q-25 -4 -73 -4h-316q-41 0 -69 6q6 -42 6 -75v-226q0 -22 -4 -68q4 32 0 -6zM619 100h-115v93h115v-93zM810 100h-120v93h120v-93zM619 252h-115v92h115v-92zM690 252v92h120v-92h-120zM379 455
q30 3 95 4h363q66 -1 101 -4v75q-46 -8 -103 -8h-174q15 79 61 139q35 -29 93 -107q76 43 74 50q-1 3 -11 8q-46 24 -116 91q61 54 200 95q-53 41 -73 85q-234 -105 -296 -361h-71v250q35 -20 117 -77l18 81q-154 78 -209 127l-47 -77q40 -12 49 -38v-266q-51 -1 -71 4v-71z
M129 6q45 47 115 127q55 -65 75 -119q69 52 86 80q0 3 -13 11q-51 31 -106 90q51 96 69 241q9 73 8 153q0 80 -10 153q-4 115 -194 133q-8 -54 -54 -111q139 28 163 -47q13 -51 15 -130q2 -81 -7 -164q-60 107 -169 220q-29 -43 -75 -67q110 -59 224 -246q-11 -44 -28 -80
q-32 40 -131 129q-12 -32 -65 -71q128 -83 160 -121q-46 -53 -125 -117z" />
</svg>
