<?xml version="1.0" standalone="no"?>
<!DOCTYPE svg PUBLIC "-//W3C//DTD SVG 1.1//EN" "http://www.w3.org/Graphics/SVG/1.1/DTD/svg11.dtd" >
<svg xmlns="http://www.w3.org/2000/svg" xmlns:xlink="http://www.w3.org/1999/xlink" version="1.1" viewBox="-10 0 1010 1000">
   <path fill="currentColor"
d="M415 28q46 0 91 2h331q12 0 36 -1q27 -1 42 -1q-6 28 -6 78v196q0 44 4 63q-29 -3 -82 -3h-343q-48 0 -73 5q0 -5 1 -13q3 -39 3 -56v-206q0 -31 -4 -64zM623 86h-125v83h125v-83zM829 86h-127v83h127v-83zM623 223h-125v83h125v-83zM702 223v83h127v-83h-127zM421 413
q65 8 125 8h218q66 0 131 -6q-8 31 -8 117v270q16 88 -163 105q-1 -49 -41 -103q122 23 125 -22v-57h-300v47q0 78 8 125h-99q10 -28 12 -131v-236q0 -69 -8 -117zM508 481v61h300v-61h-300zM508 602v63h300v-63h-300zM306 22q67 50 75 68q0 2 -9 9q-48 40 -108 112
q54 93 72 240q17 153 -9 299q-2 119 -200 139q-2 -34 -23 -72q-10 -18 -17 -31q33 4 51 6q20 1 34 0q29 -3 44 -18q63 -65 42 -303q-76 98 -165 178q-18 -44 -51 -83q123 -71 204 -193q-6 -42 -38 -113q-28 36 -93 92q-33 -40 -69 -58q47 -26 123 -93q-35 -50 -107 -115
l73 -58q43 48 87 117q53 -61 84 -123z" />
</svg>
