<?xml version="1.0" standalone="no"?>
<!DOCTYPE svg PUBLIC "-//W3C//DTD SVG 1.1//EN" "http://www.w3.org/Graphics/SVG/1.1/DTD/svg11.dtd" >
<svg xmlns="http://www.w3.org/2000/svg" xmlns:xlink="http://www.w3.org/1999/xlink" version="1.1" viewBox="-10 0 1034 1024">
  <g transform="matrix(1 0 0 -1 0 820)">
   <path fill="currentColor"
d="M268 583l52 82q25 43 55 67q-39 19 -57 31q-25 -79 -91 -163q-15 16 -33 32q-78 64 -81 68q-15 -24 -38 -48q63 -16 126 -88q-13 -19 -29 -37q-15 -18 -40 -42q-45 -40 -81 -60q22 -10 53 -34q22 22 53 58q52 60 67 79q10 -15 14 -23q3 -7 13 -38q9 -36 14 -76
q0 -3 -24 -38q-3 -1 -5 -6q-54 -69 -99 -119q-40 -42 -90 -66q34 -19 56 -35q33 36 66 74l103 126q6 -73 7 -144q0 -61 -7 -131q-9 -99 -41 -126q-21 -21 -74 -22q-13 0 -40 4q15 -21 25 -53q48 4 74 13q69 25 89 120q6 33 10 82q3 49 4 97l-2 81l-4 84q-6 99 -31 175
q-9 30 -26 57q6 10 12 19zM642 402q-93 -90 -169 -140q-91 -55 -151 -70q25 -18 49 -45q18 9 47 29l67 41v-307q0 -18 -3 -53q0 -9 -2 -15h47l-4 44l-1 40h295l-4 -80q-1 -1 -1 -3h50q-6 21 -7 51l1 346q0 18 3 35q-33 0 -64 -2h-232q39 31 64 55q27 25 75 74l226 -1
q12 0 33 -4v47q-4 -3 -15 -3l-108 -3h-106l165 210q6 7 21 16q4 4 15 9q-42 22 -59 36q-9 -18 -48 -83l-104 -135q-24 -30 -45 -53h-38v160q115 0 125 -3q4 0 7 -2v47q-4 -3 -15 -3l-104 -3h-13v71q0 10 3 24q4 22 18 41h-64q1 -31 5 -65v-71l-121 1q-31 3 -36 5v-47
q49 4 100 5h57v-160l-207 1q-24 3 -27 5v-47l54 5h221zM522 -39v127h295v-127h-295zM522 124v113h295v-113h-295z" />
  </g>

</svg>
