<?xml version="1.0" standalone="no"?>
<!DOCTYPE svg PUBLIC "-//W3C//DTD SVG 1.1//EN" "http://www.w3.org/Graphics/SVG/1.1/DTD/svg11.dtd" >
<svg xmlns="http://www.w3.org/2000/svg" xmlns:xlink="http://www.w3.org/1999/xlink" version="1.1" viewBox="-10 0 1010 1000">
   <path fill="currentColor"
d="M494 -2q91 -3 95 10q1 2 -3 11q-17 39 -17 93v27h143v-31l-2 -110q89 -3 94 8q1 4 -3 12q-15 30 -15 92v29h51q58 1 98 -6v84q-21 -6 -90 -6h-61v35l6 64h-82q4 -17 5 -30q1 -11 1 -40v-29h-147v27q0 51 4 80h-81q5 -14 4 -55v-23v-29h-48q-41 0 -58 1q-21 1 -35 3v-82
q42 6 95 6h48v-35q0 -25 -1 -67q-1 -28 -1 -39zM312 20q71 42 83 64q-2 4 -8 8q-18 9 -40 31q-7 7 -20 22q-29 31 -55 56q44 103 59 235q8 66 8 133q-1 66 -10 122q-6 166 -210 184q-7 -62 -48 -109q100 21 139 -10q62 -51 48 -307q-72 106 -163 194q-8 -12 -18 -29
q-17 -30 -37 -48q107 -54 198 -222q-6 -44 -26 -88q-51 51 -105 94q-20 -41 -63 -68q78 -42 135 -87q-38 -55 -106 -117l68 -54q63 84 89 119q60 -77 82 -123zM399 336q34 5 61 6q28 2 78 2h190q123 0 165 -12q0 2 -1 7q-12 62 -9 124v295q0 91 8 135h-89q0 -22 3 -62
q1 -5 1 -7h-326q-3 38 4 69h-87q0 -5 2 -22q6 -69 6 -148v-246q0 -85 -6 -141zM609 415h-127v137h127v-137zM679 415v137h127v-137h-127zM480 615v137h129v-137h-129zM679 615v137h127v-137h-127z" />
</svg>
