<?xml version="1.0" standalone="no"?>
<!DOCTYPE svg PUBLIC "-//W3C//DTD SVG 1.1//EN" "http://www.w3.org/Graphics/SVG/1.1/DTD/svg11.dtd" >
<svg xmlns="http://www.w3.org/2000/svg" xmlns:xlink="http://www.w3.org/1999/xlink" version="1.1" viewBox="-10 0 1010 1000">
   <path fill="currentColor"
d="M550 -8h9q95 4 92 8q0 1 -3 5q-15 24 -15 73v47h40q50 0 87 -8v66q46 -76 69 -135q77 42 90 60q0 7 -9 12q-16 9 -27 23q-20 25 -58 76q-43 57 -63 83h83q37 1 101 -8v79q-43 -6 -97 -6h-143l-87 90h155q63 0 99 -6q-8 23 -8 89v256q0 58 8 103h-95q7 -31 6 -63h-256
q-1 47 4 67h-90q6 -33 7 -46q1 -12 1 -47v-208q-23 18 -66 54q-7 6 -11 9q-11 -26 -26 -34q5 135 -40 185q-41 54 -178 79q-1 -55 -48 -107q97 19 147 -18q29 -29 39 -109q10 -83 -3 -188q-81 107 -181 194q-12 -42 -45 -83q123 -74 204 -205q-16 -63 -32 -97q-30 35 -92 78
q-19 14 -29 21q-17 -44 -59 -69q67 -24 145 -93q-68 -82 -121 -115l69 -60q45 48 101 119q63 -62 95 -133q72 44 94 64q-2 4 -13 10q-56 32 -132 121q61 123 81 351q45 -25 101 -72q0 -30 -4 -55q7 1 27 3q25 3 41 5q19 -14 88 -83l9 -9h-151q-75 -1 -103 6v-77q45 6 103 6
h100v-111h-64q-25 0 -61 3q-8 1 -12 1v-72q33 5 75 4h62v-49q0 -37 -10 -84zM633 189v111h36q60 -70 81 -105q-20 -7 -79 -6h-38zM784 520h-236l-18 18v79h254v-97zM784 681h-256v91h256v-91z" />
</svg>
