<?xml version="1.0" standalone="no"?>
<!DOCTYPE svg PUBLIC "-//W3C//DTD SVG 1.1//EN" "http://www.w3.org/Graphics/SVG/1.1/DTD/svg11.dtd" >
<svg xmlns="http://www.w3.org/2000/svg" xmlns:xlink="http://www.w3.org/1999/xlink" version="1.1" viewBox="-10 0 1010 1000">
   <path fill="currentColor"
d="M175 10q49 85 71 119q48 -42 87 -105q72 42 76 60q-1 4 -12 11q-48 30 -121 100q59 170 63 373q1 160 -39 216q-37 60 -157 76q-6 -58 -36 -96q97 23 125 -18q34 -38 36 -180q2 -44 -6 -108q-1 -15 -2 -23q-3 4 -10 14q-81 109 -141 170q-40 -42 -77 -59
q138 -82 212 -240q-13 -57 -22 -78q-14 12 -52 44q-42 34 -67 56q-36 -50 -67 -62q104 -54 160 -103q-40 -75 -89 -125zM417 42q38 5 123 8h258q79 -3 109 -8q-12 119 0 266q-30 -9 -101 -6h-314v198q-4 205 -105 379q-37 -34 -81 -43q119 -109 115 -415q0 -278 -4 -379z
M633 115h-141v122h141v-122zM833 115h-133v122h133v-122zM887 356q-4 18 -5 45q-1 12 -1 29v43v279q0 80 6 129h-81q4 -42 4 -63h-207q-1 45 4 65h-77q6 -53 6 -133v-273q0 -90 -6 -121q42 6 113 6h143q75 1 101 -6zM810 425h-207v73h207v-73zM810 556h-207v71h207v-71z
M810 685h-207v69h207v-69z" />
</svg>
