<?xml version="1.0" standalone="no"?>
<!DOCTYPE svg PUBLIC "-//W3C//DTD SVG 1.1//EN" "http://www.w3.org/Graphics/SVG/1.1/DTD/svg11.dtd" >
<svg xmlns="http://www.w3.org/2000/svg" xmlns:xlink="http://www.w3.org/1999/xlink" version="1.1" viewBox="-10 0 1010 1000">
   <path fill="currentColor"
d="M431 0q103 26 107 38q0 3 -4 8q-32 34 -76 143v621q1 25 6 87h-97q17 -65 16 -174v-383q-22 53 -48 99q-1 -2 -2 -5q-13 -31 -39 -49q28 307 -24 417q-29 52 -159 71q-9 -55 -49 -107q27 9 63 8q35 -1 52 -12q54 -39 47 -311q-67 101 -145 188q-2 -3 -5 -8
q-19 -39 -44 -69q136 -107 180 -210q-8 -50 -23 -94q-57 69 -108 107q-22 -46 -49 -71q62 -38 123 -93q-40 -67 -111 -117l73 -58q61 75 91 115q55 -67 74 -111q85 53 85 66q-5 8 -17 13q-16 5 -27 16q-14 15 -50 49q-16 14 -25 23q34 81 46 159q114 -184 139 -356zM558 52
q14 5 111 8h99q73 0 105 -8q-9 33 -25 94q-12 49 -19 75h48q32 0 45 -1q16 -1 36 -5v75q-44 -6 -137 -6h-156q-112 0 -157 6v-77q32 7 113 8h133l32 -96h-119q-82 0 -109 6v-79zM464 812q135 -30 195 -197h-80q-36 0 -93 4v-77q51 10 99 10h88q8 -59 8 -105h-88q-3 5 -10 19
q-16 31 -25 50q-39 -22 -80 -22q79 -80 89 -200l24 6q73 15 70 22q0 3 -6 11q-15 20 -30 50h204q45 0 74 -6v80q-38 -11 -151 -10q0 34 -6 103h73q81 0 127 -6v77q-23 -2 -52 -3q-14 -1 -32 -1h-45h-39q56 141 186 185q-30 24 -61 87q-140 -90 -177 -264q-26 160 -192 260
q-21 -43 -70 -73z" />
</svg>
