<?xml version="1.0" standalone="no"?>
<!DOCTYPE svg PUBLIC "-//W3C//DTD SVG 1.1//EN" "http://www.w3.org/Graphics/SVG/1.1/DTD/svg11.dtd" >
<svg xmlns="http://www.w3.org/2000/svg" xmlns:xlink="http://www.w3.org/1999/xlink" version="1.1" viewBox="-10 0 1034 1024">
  <g transform="matrix(1 0 0 -1 0 820)">
   <path fill="currentColor"
d="M476 488l435 -1q15 0 44 -4q-4 52 -5 105q0 76 2 91q0 18 3 38q-30 -1 -59 -5l-420 1q-12 3 -42 4q1 -30 5 -63l-2 -446q-4 -72 -10 -111q-10 -60 -28 -102q-21 -49 -55 -86q-15 -15 -37 -22q31 -18 51 -33q21 27 36 52q13 21 27 46q30 66 44 147q10 87 11 184v205z
M476 524v152h198v-152h-198zM711 524v152h201v-152h-201zM544 -88q-1 -25 -3 -52q0 -3 -2 -10h49q0 4 -2 10q-1 9 -3 52v32h310q-3 -69 -5 -77q-1 0 -1 -1h49q-1 3 -1 5q0 1 -4 55l1 439l4 43q-28 -1 -58 -5l-295 1q-15 3 -44 4q1 -33 5 -68v-428zM893 258h-310v109h310
v-109zM583 -24v109h310v-109h-310zM583 120v102h310v-102h-310zM303 244v-126q-1 -10 -2 -23q0 -21 -7 -71q-9 -34 -22 -60q-9 -15 -20 -25q-30 -21 -80 -22q-13 0 -52 8q12 -28 16 -51q60 1 103 15q54 18 74 69q15 45 23 114q6 75 7 156l-1 57l-6 74q-3 46 -10 81
q-6 30 -16 64q-12 39 -31 78q25 27 36 43q31 43 46 57q0 3 11 10q15 13 38 21q-4 1 -11 6q-21 18 -43 35q-21 -54 -97 -140q-49 58 -132 121q-12 -21 -29 -41q42 -18 78 -48q31 -28 57 -61q-28 -30 -98 -82q-48 -33 -73 -33q21 -13 25 -18q6 -6 17 -19q52 39 91 70
q33 27 56 49q31 -69 44 -156q-22 -36 -39 -58q-15 -22 -30 -39q-57 -66 -110 -106q-31 -21 -62 -31q24 -18 39 -36q12 9 22 18q42 31 71 58q24 22 56 60l57 69q3 -21 3 -33q0 -27 1 -54v0z" />
  </g>

</svg>
