<?xml version="1.0" standalone="no"?>
<!DOCTYPE svg PUBLIC "-//W3C//DTD SVG 1.1//EN" "http://www.w3.org/Graphics/SVG/1.1/DTD/svg11.dtd" >
<svg xmlns="http://www.w3.org/2000/svg" xmlns:xlink="http://www.w3.org/1999/xlink" version="1.1" viewBox="-10 0 1034 1024">
  <g transform="matrix(1 0 0 -1 0 820)">
   <path fill="currentColor"
d="M71 153q1 -1 4 -3l17 -14q54 45 96 88q37 40 96 119q6 -33 9 -55q3 -37 3 -73q0 -90 -13 -146q-18 -94 -66 -127q-37 -22 -84 -23q-15 0 -39 4q12 -31 17 -56q43 7 67 14q19 6 36 13q87 39 109 173q12 72 13 146q0 88 -18 165q-9 42 -24 79q-18 42 -47 101q13 15 26 32
q36 48 54 66q6 9 13 12q18 18 43 23q-22 15 -58 44q-21 -51 -100 -143q-19 24 -42 47q-25 27 -73 71q-18 -21 -32 -32q30 -18 57 -43q22 -19 64 -71q-84 -81 -145 -115l21 -14q12 -9 21 -16q69 60 121 110q42 -75 53 -131q-48 -79 -114 -150q-57 -55 -106 -78q10 -7 21 -17z
M325 -131q30 3 60 5l530 -1q15 0 35 -4v46l-39 -4l-572 1q-6 3 -14 3v-46zM406 330q27 25 56 49q45 46 61 60q51 54 100 116v-155q0 -40 -5 -59h49q-6 25 -6 49v174q36 -54 61 -83q21 -24 65 -61l61 -48l81 -52q9 16 38 43q-67 21 -127 63q-87 66 -142 151h173q31 0 62 -6
v47q-9 -1 -15 -3l-1 -1q-22 0 -46 -2h-210v78q0 6 2 25q1 16 11 38h-56q4 -99 5 -105v-36l-257 2q-7 3 -13 4v-47q3 0 7 1q21 4 54 5h177q-25 -33 -59 -72q-31 -37 -59 -63q-43 -39 -76 -65q-31 -22 -59 -36q12 -7 45 -33q10 12 23 22zM437 323q1 -18 3 -28q3 -21 3 -28
l-1 -212q-1 -3 -5 -42q46 4 79 5l296 -1q13 0 42 -4q-3 28 -5 58l1 211l4 41q-28 -1 -58 -5l-317 1q-15 3 -42 4zM482 53v101h327v-101h-327zM809 188h-327v94h327v-94z" />
  </g>

</svg>
