<?xml version="1.0" standalone="no"?>
<!DOCTYPE svg PUBLIC "-//W3C//DTD SVG 1.1//EN" "http://www.w3.org/Graphics/SVG/1.1/DTD/svg11.dtd" >
<svg xmlns="http://www.w3.org/2000/svg" xmlns:xlink="http://www.w3.org/1999/xlink" version="1.1" viewBox="-10 0 1034 1024">
  <g transform="matrix(1 0 0 -1 0 820)">
   <path fill="currentColor"
d="M133 -131q46 3 87 16q73 27 103 106q28 79 29 204q0 51 -4 103q-3 39 -15 96q-12 52 -29 94q-24 57 -37 79l55 67q15 18 25 34q1 1 3 5q21 33 55 48q-21 12 -52 36q-19 -39 -50 -82l-57 -75q-48 61 -117 123q-9 -15 -17 -23q-3 -4 -16 -14q33 -12 60 -41q39 -37 62 -75
q-10 -12 -22 -23q-13 -13 -39 -35q-45 -37 -95 -65q24 -7 48 -28q31 24 66 56q33 30 62 60q16 -30 26 -54q9 -24 14 -36q3 -12 6 -29q-39 -75 -104 -141q-66 -66 -126 -97q18 -6 37 -21q7 -6 12 -10q40 36 90 87q24 24 45 50l62 77l8 -49q3 -58 5 -123q0 -61 -11 -120
q-16 -82 -46 -114q-31 -31 -103 -32q-16 0 -45 4q12 -18 20 -39q1 -9 5 -19zM398 375q-1 -27 -3 -56q0 -3 -1 -5q-1 -1 -1 -5h48q0 3 -2 9q-1 12 -3 57v49h478q-3 -93 -5 -104q-1 0 -1 -2h49q0 3 -2 9q-3 91 -2 100l4 38q-30 -1 -59 -5h-45l1 226l4 42q-30 -1 -61 -5l-267 1
q-3 0 -46 4q1 -30 5 -61v-207l-96 5q1 -21 2 -33q3 -24 3 -57zM527 460v103h132v-103h-132zM527 599v88h288v-227h-118q0 99 2 110q0 15 3 34q-30 -1 -60 -5h-115zM719 -117q6 -13 11 -31q48 3 74 10q49 15 50 77l1 368q0 6 6 48q-30 -1 -61 -5l-264 1q-1 0 -50 4l6 -66
l-1 -395q-3 -27 -4 -42q-1 -1 -1 -5h49q0 3 -2 9q-3 9 -4 56v143h287v-113q0 -18 -8 -29q-12 -13 -45 -14q-10 0 -57 5q6 -10 13 -21zM529 91v92h287v-92h-287zM529 219v95h287v-95h-287z" />
  </g>

</svg>
