<?xml version="1.0" standalone="no"?>
<!DOCTYPE svg PUBLIC "-//W3C//DTD SVG 1.1//EN" "http://www.w3.org/Graphics/SVG/1.1/DTD/svg11.dtd" >
<svg xmlns="http://www.w3.org/2000/svg" xmlns:xlink="http://www.w3.org/1999/xlink" version="1.1" viewBox="-10 0 1034 1024">
  <g transform="matrix(1 0 0 -1 0 820)">
   <path fill="currentColor"
d="M281 759q-21 -43 -42 -75q-21 -31 -58 -79q-36 43 -95 86q-15 -18 -29 -36q63 -27 98 -78q-12 -16 -49 -49q-36 -30 -62 -42q22 -12 42 -30q36 36 48 45q1 3 5 4l25 25q6 7 14 14q9 -15 29 -73q3 -15 9 -43q-48 -91 -81 -138q-54 -75 -99 -105q24 -10 42 -28
q72 81 146 202q3 -54 4 -104q0 -66 -5 -132q-4 -64 -13 -104q-12 -48 -42 -71q-19 -12 -60 -13q-6 0 -21 1q12 -24 19 -51q24 3 39 8q45 15 69 43q30 36 41 114q9 84 10 190q0 165 -32 267q-10 34 -28 66q36 49 59 82q30 45 40 55q9 10 28 20q-10 6 -18 10q-7 3 -33 19z
M398 670l516 -3q1 0 11 -2v46q-39 -4 -64 -5l-453 1q-24 3 -53 4q1 -36 5 -74v-390q-3 -105 -20 -182q-16 -75 -60 -141q-21 -30 -52 -57q36 -6 53 -19q51 72 77 142q33 99 37 212q3 69 3 245v223zM639 127q-1 -10 -1 -22q0 -13 -3 -24h46q-3 15 -4 48l-1 150q0 34 3 44
q0 4 2 7q1 6 10 15h-57q1 -6 2 -14q3 -46 3 -52v-117l-60 -3l3 261q90 0 96 -3q3 0 9 -2v46q-27 -4 -64 -5h-19l56 98q19 39 51 50q-33 15 -58 32q-15 -42 -34 -82q-21 -42 -55 -98l-104 1q-6 1 -21 2q-3 1 -13 2v-46q6 3 36 4l84 1l-2 -264q-33 0 -64 -2l1 153q0 25 15 44
h-58q4 -49 5 -80l-1 -106q-3 -12 -4 -52v-2q63 7 102 10q-15 -72 -47 -134q-45 -78 -105 -120q16 -3 52 -20q49 54 84 120q39 75 54 155q30 3 61 5zM451 599q16 -24 25 -41q12 -25 35 -78q18 13 35 19q-22 55 -68 129l-3 -2q-3 -1 -7 -4q-3 -3 -6 -4t-6 -3l-2 -1q-1 0 -5 -1
q-1 -1 -5 -3q3 -4 7 -11zM766 334q3 -39 3 -71q0 -222 -142 -343q-31 -25 -75 -46q33 -12 53 -30q52 42 97 94q60 78 90 182q24 -75 56 -135q24 -42 39 -60q24 -30 64 -75q13 15 50 33q-21 9 -36 21q-33 28 -76 89q-30 46 -46 88q-15 39 -35 122q0 40 2 79q0 27 14 47
q-28 0 -58 5zM893 424q-27 -72 -53 -120q21 0 46 -8q6 12 11 28q16 42 27 70l24 70q-30 -1 -59 -5h-124q6 19 14 37l7 20l13 40q12 40 18 48q4 9 24 23q-22 3 -59 17q-4 -30 -16 -69q-12 -46 -33 -104q-28 -75 -56 -108q16 -3 32 -10q4 -1 9 -4q7 13 14 28t20 47h141z" />
  </g>

</svg>
