<?xml version="1.0" standalone="no"?>
<!DOCTYPE svg PUBLIC "-//W3C//DTD SVG 1.1//EN" "http://www.w3.org/Graphics/SVG/1.1/DTD/svg11.dtd" >
<svg xmlns="http://www.w3.org/2000/svg" xmlns:xlink="http://www.w3.org/1999/xlink" version="1.1" viewBox="-10 0 1010 1000">
   <path fill="currentColor"
d="M266 -8q7 0 20 1q77 2 75 11q-24 9 -24 72h64q64 -1 113 -6v71q-3 0 -9 -1q-73 -5 -102 -5h-66v48h32q49 0 105 -8v69q-41 -6 -107 -6h-30v46h84q43 -1 103 -8l2 78q-74 -10 -103 -10h-147q-6 27 -12 51h141q38 0 81 -6q-2 10 -4 28q-15 102 -30 121q-14 37 -117 54
q-6 -40 -39 -78q61 11 83 -3q24 -13 26 -60h-153q-36 93 -129 162q-28 -35 -71 -59q147 -45 158 -210h-45q-58 1 -103 8v-76q34 7 101 8h109v-46h-52q-61 1 -107 6v-69q76 8 111 8h48v-48h-97q-22 0 -74 7q-17 2 -26 3v-77q41 7 98 8h101q1 -57 -8 -84zM617 -6q95 22 99 32
q-21 8 -35 38q-4 7 -14 24q-18 31 -28 47h216q33 0 91 -6v78q-49 -8 -93 -8q-23 96 -67 168l149 104l-64 67q-51 -59 -127 -117q-83 78 -196 121q-21 -42 -66 -69q136 -23 206 -92q-49 -34 -117 -71l52 -54q20 13 53 36q40 29 56 38q27 -45 52 -131h-173l-55 91
q-26 -29 -72 -40q103 -107 133 -256zM690 524q34 30 76 72l-56 35h125q36 0 109 -8v82q-43 -6 -109 -6h-260q105 120 360 111q-39 38 -54 99q-308 -59 -369 -210q-45 165 -395 210q-5 -43 -54 -85q311 -4 375 -123h-234q-81 1 -133 8v-84q66 7 131 8h256q10 -44 6 -95
q42 4 92 14q-19 28 -26 79h162q-17 -32 -61 -67z" />
</svg>
