<?xml version="1.0" standalone="no"?>
<!DOCTYPE svg PUBLIC "-//W3C//DTD SVG 1.1//EN" "http://www.w3.org/Graphics/SVG/1.1/DTD/svg11.dtd" >
<svg xmlns="http://www.w3.org/2000/svg" xmlns:xlink="http://www.w3.org/1999/xlink" version="1.1" viewBox="-10 0 1010 1000">
   <path fill="currentColor"
d="M107 22q40 48 81 103q42 -67 52 -93q62 35 72 56q-1 5 -13 13q-40 28 -75 80q39 113 44 278q3 173 -28 299q-25 90 -161 100q-1 -43 -31 -92q98 23 119 -18q22 -40 33 -138q11 -96 4 -193q-88 150 -131 200q-15 -39 -47 -69q82 -74 168 -232q-3 -31 -17 -74
q-11 13 -38 43q-42 48 -66 75q-15 -43 -47 -66q50 -33 121 -115q-45 -64 -101 -107zM929 32v80q-37 -6 -116 -6h-420q1 342 -16 506q-15 157 -62 246q-48 -22 -89 -24q65 -84 81 -198q18 -94 18 -429q0 -110 -10 -175q19 2 46 3q13 1 30 1h44h373q59 0 78 -1q24 0 43 -3z
M762 129q78 16 87 24q0 2 -5 7q-27 30 -56 106h65q57 0 95 -6q-10 40 -32 94q-16 41 -29 73l-70 -14q19 -29 38 -79q3 -7 4 -10h-91l-9 18q-20 37 -29 61q-40 -20 -73 -20q74 -90 105 -254zM502 131q14 33 46 104l-60 21q-18 -67 -48 -105zM607 135q3 1 10 2q69 14 66 22
q0 2 -5 7q-35 31 -77 112h34q25 0 48 -4v66q-23 -5 -64 -6h-30q-1 39 -2 116q-1 86 -2 112h52v-105q0 -36 -4 -56q66 4 69 10q0 2 -3 7q-11 15 -11 33v113q-1 42 4 57q-16 -5 -71 -4h-42q-38 165 -142 272q-32 -27 -72 -37q126 -96 153 -235h-52q-31 0 -45 4q6 -29 6 -59
v-81q0 -45 -4 -90h6q65 4 63 10q0 2 -3 6q-13 16 -13 40v115h50q1 -14 2 -40q6 -123 6 -188h-34q-36 0 -79 6v-70q2 0 6 1q35 8 75 7h48q38 -63 57 -143zM734 413q85 0 89 8q2 5 -4 17q-11 24 -11 47q7 204 152 347q-51 11 -81 33q-64 -95 -101 -236q-35 162 -187 262
q-19 -30 -71 -53q252 -104 214 -425z" />
</svg>
