<?xml version="1.0" standalone="no"?>
<!DOCTYPE svg PUBLIC "-//W3C//DTD SVG 1.1//EN" "http://www.w3.org/Graphics/SVG/1.1/DTD/svg11.dtd" >
<svg xmlns="http://www.w3.org/2000/svg" xmlns:xlink="http://www.w3.org/1999/xlink" version="1.1" viewBox="-10 0 1010 1000">
   <path fill="currentColor"
d="M585 -8q94 5 98 16q0 4 -7 13q-8 11 -11 19q-3 10 -9 36q-4 20 -7 30h159q76 -3 111 -6v71q-2 -6 -109 -6h-118q36 68 74 105q40 -41 57 -73q56 30 72 47q0 4 -10 8q-35 15 -73 56q55 35 144 48q-23 29 -41 85q-46 -19 -90 -52v167q0 61 6 103q-34 -6 -73 -6h-87v171
q1 42 -22 54q-17 13 -109 25q5 -46 -24 -93q81 18 83 -20v-137h-73q-47 0 -93 6q5 -35 5 -73v-161l-3 2q-17 16 -52 44q-21 -30 -68 -58q109 -51 145 -91q-32 -34 -89 -74l58 -51q31 22 77 75q34 -53 52 -107h-90q-61 0 -91 6v-71q38 6 83 6h115q15 -73 10 -114zM631 169
q-44 107 -101 175q30 6 63 6h78q55 0 79 -6q-76 -70 -119 -175zM510 409v62h244v-62h-244zM510 530v64h244v-64h-244zM474 677q83 43 72 50q-1 1 -8 3q-19 4 -32 14q-29 21 -127 116q-10 -8 -31 -24t-31 -24q79 -43 157 -135zM770 683q47 32 147 121l-72 50
q-48 -67 -129 -129zM117 8q25 27 87 110q5 7 8 11q47 -54 80 -117q74 52 83 70q0 1 -8 6q-48 34 -117 101q38 106 56 241q19 138 11 253q-2 158 -208 188q-4 -50 -49 -105q85 14 140 -20q29 -25 37 -104q9 -82 -5 -197q-10 13 -33 41q-82 103 -122 143q-28 -48 -55 -73
q119 -79 196 -214q-8 -50 -28 -102q-51 61 -109 108q-17 -37 -59 -68q76 -40 137 -97q-43 -61 -109 -113z" />
</svg>
