<?xml version="1.0" standalone="no"?>
<!DOCTYPE svg PUBLIC "-//W3C//DTD SVG 1.1//EN" "http://www.w3.org/Graphics/SVG/1.1/DTD/svg11.dtd" >
<svg xmlns="http://www.w3.org/2000/svg" xmlns:xlink="http://www.w3.org/1999/xlink" version="1.1" viewBox="-10 0 1010 1000">
   <path fill="currentColor"
d="M91 885q-3 -43 -35 -91q65 2 82 -10q19 -9 29 -57q8 -34 11 -94q3 -56 3 -172q-40 83 -104 154q-19 -42 -49 -73q87 -77 145 -177q-4 -57 -16 -107q-21 19 -59 54q-20 20 -29 28q-18 -41 -43 -70q56 -37 95 -81q-27 -53 -85 -113l57 -58q37 46 78 111q27 -32 53 -85
q30 12 78 54q-27 20 -94 99q26 68 35 218q5 77 5 163q-1 87 -6 159q-4 129 -151 148zM700 -10q87 19 88 28q0 4 -7 11q-24 24 -43 69h91q45 -1 80 -4q-59 115 -99 174h55q33 0 64 -4q-6 32 -6 94v228q0 68 7 104q1 7 1 9h-74q0 -2 1 -9q5 -41 5 -106v-254h-171v266
q0 47 1 65q1 23 3 36h-71q8 -56 8 -103v-256q0 -45 -4 -74q-22 -20 -64 -22q94 -97 135 -252zM802 161h-96q-9 14 -35 61q-14 26 -22 40q24 4 43 4h50q44 -65 60 -105zM361 352v121h48v-121h-48zM514 352h-46v121h46v-121zM734 356q81 5 83 15q0 2 -3 6q-12 16 -12 42v109
q2 131 -24 209l45 -32q61 54 139 151l-69 51q-54 -91 -121 -157q-65 96 -147 155q-33 -34 -79 -51q121 -52 160 -123q40 -63 38 -217q1 -88 -10 -158zM248 731q74 -68 133 -199h-36q-19 0 -40 3q-6 1 -9 1q6 -36 6 -71v-103q0 -48 -4 -78q30 8 71 8h40v-89h-34q-55 -1 -71 4
v-66q29 6 77 6h28v-35q0 -66 -6 -86q10 1 31 1q51 0 50 7q1 2 -3 9q-13 26 -13 69v35h34q39 0 79 -8v68q-23 -4 -77 -4h-36v89h46q18 0 55 -3q5 -1 8 -1q-4 20 -4 66v111q0 48 4 71q-21 -4 -71 -4h-38v66l30 -26q30 27 97 97l-57 44q-29 -49 -70 -86v165q0 44 1 63
q1 24 3 40h-67q4 -65 4 -105v-190q-58 126 -115 200q-10 -40 -46 -69z" />
</svg>
