<?xml version="1.0" standalone="no"?>
<!DOCTYPE svg PUBLIC "-//W3C//DTD SVG 1.1//EN" "http://www.w3.org/Graphics/SVG/1.1/DTD/svg11.dtd" >
<svg xmlns="http://www.w3.org/2000/svg" xmlns:xlink="http://www.w3.org/1999/xlink" version="1.1" viewBox="-10 0 1034 1024">
  <g transform="matrix(1 0 0 -1 0 820)">
   <path fill="currentColor"
d="M247 112q0 -25 -3 -62q-4 -60 -8 -76q-9 -30 -30 -42q-18 -7 -48 -8q-12 0 -34 4q10 -27 18 -49q46 3 68 10q45 15 60 64q12 54 13 163l-7 266q-4 49 -11 90q-7 40 -31 109l30 46l46 75q19 28 43 35q-9 3 -20 12q-24 12 -36 20q-36 -87 -88 -157q-28 34 -49 57
q-18 19 -48 46q-7 -12 -17 -23q-6 -6 -10 -12q54 -30 102 -100q-58 -87 -121 -121q19 -12 29 -21q1 0 13 -10q60 64 82 91q7 10 17 22q24 -60 31 -149q-27 -58 -92 -151q-42 -51 -87 -83q24 -7 48 -25q58 66 135 188q0 -93 5 -209zM451 -84q0 -34 -6 -59h44q-3 30 -5 59v256
q55 -55 86 -91q7 -9 17 -23q15 27 28 41q-30 22 -99 86q-15 12 -32 26v36l80 -1q18 -1 36 -5q-4 42 -5 61l1 157l4 38q-48 -6 -72 -6h-44v112h64q22 0 60 -5v43q-58 -4 -77 -5h-47v75q0 31 14 62h-53q0 -4 6 -60v-77l-122 2q-3 1 -5 1q-3 1 -4 1q-3 1 -5 1v-43q3 1 47 5h89
v-112l-78 2q-12 3 -34 4q1 -27 5 -55l-1 -170q-1 -1 -2 -14q0 -9 -2 -17q21 3 44 5l58 1q-25 -66 -74 -140q-39 -57 -84 -97q13 -6 15 -8q3 0 15 -10q7 -6 12 -8q36 49 63 92t63 111v-271zM377 279v180h74v-180h-74zM561 279h-77v180h77v-180zM592 -109q4 -4 11 -9
q3 -4 10 -12q73 45 114 96q36 45 50 96q12 45 17 144q3 141 6 150q4 28 20 43l-30 3q-16 3 -36 9q4 -33 5 -60l-3 -176q-6 -76 -21 -121q-24 -57 -67 -98q-37 -30 -93 -50q7 -7 17 -15zM838 639q-30 -67 -38 -92q-9 -25 -24 -51q-78 0 -96 2q-6 3 -29 3q1 -16 3 -29
q3 -18 3 -27v-318q0 -37 -6 -60h43q-3 30 -5 60v336h191v-309q0 -43 -5 -59h44q-4 30 -5 59l1 307l4 40q-4 0 -8 -1q-55 -3 -88 -4h-3l75 181q-25 -1 -52 -5h-111q12 37 26 59q9 15 32 27q-27 10 -61 29q-12 -66 -63 -159q-42 -72 -78 -103q9 -3 45 -22q15 24 32 50
q24 39 50 86h123zM948 -88q3 6 10 15q-33 34 -136 131q-4 -4 -9 -11l-16 -21q93 -78 136 -136q6 10 15 22v0z" />
  </g>

</svg>
