<?xml version="1.0" standalone="no"?>
<!DOCTYPE svg PUBLIC "-//W3C//DTD SVG 1.1//EN" "http://www.w3.org/Graphics/SVG/1.1/DTD/svg11.dtd" >
<svg xmlns="http://www.w3.org/2000/svg" xmlns:xlink="http://www.w3.org/1999/xlink" version="1.1" viewBox="-10 0 1034 1024">
  <g transform="matrix(1 0 0 -1 0 820)">
   <path fill="currentColor"
d="M266 616q10 16 26 32q21 27 28 34q6 6 25 10q-9 6 -17 14l-31 24q-13 -28 -31 -53q-19 -30 -59 -79q-48 60 -96 115q-18 -18 -36 -32q21 -13 42 -37q43 -46 61 -78q-69 -79 -139 -106q12 -6 22 -14l29 -18q25 21 48 44q24 24 58 62q31 -66 42 -179q-81 -126 -184 -182
q9 -9 18 -15q10 -9 21 -21q79 70 150 161q4 -70 5 -119l-5 -75q-9 -85 -28 -127q-18 -33 -56 -44q-24 -6 -45 -6q-7 0 -35 3q15 -33 19 -50l55 9q49 10 73 37q25 30 39 85l10 65q3 25 5 67q1 42 2 81q0 69 -12 169q-12 90 -45 172q19 25 41 51zM460 118v-90q0 -39 -5 -59h49
q-6 27 -6 53v96h89v-173q0 -33 -16 -39q-48 -3 -60 -3q-10 1 -21 5q12 -31 16 -49q37 1 54 4q9 0 14 1q51 7 51 76l1 514l4 39q-15 -1 -27 -3q-19 -3 -27 -3h-72q10 21 23 42l76 135q-30 -1 -60 -5h-107q6 13 13 25q27 45 53 61q-13 4 -24 11q-6 3 -31 18q-27 -78 -70 -150
q-27 -42 -49 -68q-18 -19 -43 -37q27 -9 51 -19l36 50l47 73h117q-33 -67 -75 -136h-70q-6 0 -27 3q-12 0 -25 3q1 -27 5 -54l-2 -267q-1 -6 -1 -13l-6 -90q-9 -81 -38 -140q-16 -28 -40 -54q30 -9 43 -14q3 -1 7 -3q34 69 49 121q13 54 21 139h83zM379 154l3 126h78v-126
h-81zM382 316v133h78v-133h-78zM587 280v-126h-89v126h89zM498 316v136h89v-136h-89zM800 286v-144l-137 4q-3 1 -5 1v-46q30 4 60 5h82v-208q0 -39 -5 -59h48l-4 35l-1 232q93 0 108 -2q10 0 23 -3v46q-7 0 -16 -3l-115 -2v144h56q27 0 63 -5v46q-33 -4 -67 -5h-52
q0 66 3 74q1 13 10 27h-56q4 -33 5 -58v-43h-74q12 48 19 61q3 9 18 25q-30 3 -45 7q-6 0 -15 4q-3 -55 -18 -118q-15 -60 -38 -90q30 -4 47 -11q15 42 25 86h81zM896 688l-228 2q-6 3 -14 3v-46q3 1 49 5h25q-1 -45 -20 -106q-19 -48 -54 -80l36 -10q4 -3 11 -6
q28 48 43 89q13 39 25 113h129l-6 -79q-3 -52 -23 -62q-13 -4 -40 -5q-12 0 -33 5q9 -28 14 -49q51 6 73 13q18 6 28 22q10 18 16 70q4 67 10 98l7 28q-24 -1 -48 -5v0z" />
  </g>

</svg>
