<?xml version="1.0" standalone="no"?>
<!DOCTYPE svg PUBLIC "-//W3C//DTD SVG 1.1//EN" "http://www.w3.org/Graphics/SVG/1.1/DTD/svg11.dtd" >
<svg xmlns="http://www.w3.org/2000/svg" xmlns:xlink="http://www.w3.org/1999/xlink" version="1.1" viewBox="-10 0 1010 1000">
   <path fill="currentColor"
d="M849 8q53 82 44 84q-26 -6 -56 -6q-31 0 -109 6q-58 4 -89 6v61h182q47 0 114 -8v74q-48 -6 -112 -6h-184v37h151q56 0 93 -4q-6 40 -6 66v121q0 34 6 71q-52 -6 -75 -6h-169v50h129q41 0 105 -8v71q-55 -6 -103 -7h-131v53h161q62 -2 138 -10v78q-74 -8 -117 -8h-386
q-70 1 -127 8v-76q45 7 130 8h141v-53h-107q-52 1 -111 7v-71q80 8 107 8h111v-50h-141q-15 0 -57 4q-15 1 -22 2q5 -31 6 -77v-109q-1 -40 -6 -74q34 5 76 6h144v-37h-162h-15q-82 -1 -98 6v-74q62 7 109 8h166v-57q-98 9 -188 11q-6 -36 -36 -71q65 5 134 6q69 0 136 -5
q142 -10 224 -35zM99 32q66 60 99 107q2 -3 6 -8q44 -67 58 -99q16 9 41 22q43 21 38 26q-21 3 -37 28q-11 13 -32 36q-26 30 -38 45q47 98 58 280q5 148 -4 226q-9 81 -34 119q-33 45 -141 61q-4 -56 -36 -103q59 17 96 2q27 -12 39 -97q7 -45 9 -105q2 -64 -1 -123
q-60 88 -155 200q-14 -38 -43 -67q111 -86 188 -234q-7 -59 -25 -98q-64 72 -123 127q-1 -2 -4 -6q-21 -38 -36 -57q65 -44 133 -123q-45 -63 -119 -113zM579 312h-146v137h146v-137zM639 312v137h171v-137h-171zM708 320l68 22q-6 10 -16 28q-20 37 -38 65l-57 -22
q28 -42 43 -93zM524 334q7 50 22 85l-62 8q-2 -43 -18 -87zM377 731q71 10 73 19q0 4 -14 21q-13 17 -15 23q-9 22 -40 80q-8 13 -12 21l-73 -28q54 -52 81 -136zM853 731q14 23 45 76q19 33 29 51l-76 23q-16 -61 -61 -127zM704 742q6 17 18 54q13 40 20 62l-75 4
q-1 -53 -32 -114zM554 748q16 66 29 112l-71 7q-1 -59 -22 -115z" />
</svg>
