<?xml version="1.0" standalone="no"?>
<!DOCTYPE svg PUBLIC "-//W3C//DTD SVG 1.1//EN" "http://www.w3.org/Graphics/SVG/1.1/DTD/svg11.dtd" >
<svg xmlns="http://www.w3.org/2000/svg" xmlns:xlink="http://www.w3.org/1999/xlink" version="1.1" viewBox="-10 0 1034 1024">
  <g transform="matrix(1 0 0 -1 0 820)">
   <path fill="currentColor"
d="M278 592q18 24 37 46q30 40 42 50q7 7 34 22q-3 0 -6 2q-6 3 -10 6q-3 0 -23 10q-9 6 -17 12q-30 -60 -106 -147q-16 25 -49 62l-66 68q-9 -10 -21 -23q-7 -6 -13 -13q75 -51 120 -128q-84 -81 -144 -115q25 -18 41 -33q79 69 124 116q42 -75 56 -149q-39 -55 -109 -125
q-34 -36 -63 -58q-24 -18 -57 -35q10 -7 19 -13t26 -19l66 61l44 43q36 37 87 99q4 -31 6 -53q3 -42 3 -88q0 -111 -19 -168q-27 -82 -101 -101q-22 -6 -51 -6q-13 0 -32 5q10 -24 17 -58q66 9 103 26q69 30 98 110q24 67 24 182q0 40 -5 99q-4 76 -27 151q-15 48 -53 129
q12 16 25 33zM421 -70q10 16 23 32q15 21 34 32l-49 29q-16 -34 -50 -84q-27 -39 -64 -69q27 -12 45 -25l50 69q4 9 11 16zM530 421q-6 7 -11 16q-15 -10 -34 -19q31 -31 75 -107q9 9 13 10q9 9 17 13q-21 33 -34 50zM742 333q21 27 60 70q4 4 20 10q-13 7 -21 14
q-6 6 -22 20q-15 -28 -41 -63q-21 -25 -41 -46q9 -4 29 -24q7 10 16 19zM626 591l-272 3q-4 0 -9 2v-46h2q1 1 5 1q7 3 33 4h241v-69l-189 1q-15 3 -37 4q1 -27 5 -54l-1 -133q-3 -12 -4 -39q45 4 66 5h160v-83l-226 2q-6 3 -13 3v-46q46 4 95 5h144v-67l-259 2q-6 3 -13 3
v-46h2q1 1 47 5l520 -1q15 0 35 -4v46q-24 -4 -63 -5h-229v67h184q25 0 63 -5v46q-31 -1 -63 -5h-184v83h172q6 0 26 -3q9 0 25 -2q-4 45 -5 71q0 111 2 122q0 16 3 33q-43 -4 -62 -5h-161v69l239 -1l34 -4v46q-7 0 -16 -3q-24 0 -46 -2h-211v87l147 18q21 3 31 3q9 0 31 -3
q0 3 -14 21q-6 6 -22 33q-27 -9 -49 -17q-45 -9 -101 -16q-36 -3 -86 -6q-48 -3 -90 -3q-52 0 -96 8q25 -45 26 -48q33 3 95 3l88 5v-85zM442 306v144h184v-144h-184zM666 306v144h180v-144h-180zM575 17q-30 -12 -40 -12q25 -54 53 -148q16 7 39 13q-1 3 -43 122
q-4 13 -9 25zM727 24q-18 -9 -39 -14q15 -30 28 -60q12 -33 29 -84q16 12 39 16q-36 94 -51 126zM952 -121q3 3 10 8q-34 54 -105 151q-18 -12 -35 -23q61 -76 104 -157z" />
  </g>

</svg>
