<?xml version="1.0" standalone="no"?>
<!DOCTYPE svg PUBLIC "-//W3C//DTD SVG 1.1//EN" "http://www.w3.org/Graphics/SVG/1.1/DTD/svg11.dtd" >
<svg xmlns="http://www.w3.org/2000/svg" xmlns:xlink="http://www.w3.org/1999/xlink" version="1.1" viewBox="-10 0 1034 1024">
  <g transform="matrix(1 0 0 -1 0 820)">
   <path fill="currentColor"
d="M492 89h-357q-42 0 -69 6v-47q4 3 54 5h372v-145q0 -30 -6 -70h52q-4 33 -5 70v145h358q34 0 73 -5v47q-34 -6 -73 -6h-358v123q33 3 68 5l68 6q13 -22 25 -47l37 32l-65 94q-21 30 -50 64q-12 -10 -25 -19q-6 -3 -12 -8l35 -38q15 -18 33 -44l-269 -18l122 121l50 51
q19 18 34 35q39 36 42 37q13 10 36 21q-30 24 -44 45q-33 -46 -85 -100l-152 -5q24 33 31 37q18 19 81 83q18 12 40 18q-31 21 -45 33l-4 4h359q34 0 73 -6v47q-33 -6 -73 -6h-295q6 24 18 40q-55 48 -129 93q-15 -24 -27 -36q84 -45 134 -97h-372q-39 0 -61 5q-4 1 -8 1
v-47q30 6 69 6h304q-25 -42 -90 -118q-49 -51 -72 -57q18 -30 23 -45q130 16 154 16h12l-84 -86q-18 -19 -58 -54q-31 -25 -56 -36l7 -21q0 -1 5 -28q66 10 80 10q22 0 95 8v-119zM110 204q16 -18 38 -53q30 42 81 92q48 48 90 80q-13 21 -23 49q-22 -28 -42 -49
q-19 -21 -51 -49q-51 -45 -93 -70zM118 511q57 -33 128 -98q12 15 24 32q-22 19 -47 39l-80 61q-12 -18 -25 -34zM843 549q-15 15 -31 29q-24 -36 -55 -69q-42 -40 -76 -64q13 -9 35 -33q75 78 99 97q18 16 48 25q-10 7 -20 15zM710 335q94 -66 168 -156l9 12q1 1 6 8
q7 12 7 10q6 3 8 7q-22 22 -56 53l-111 99q-15 -15 -31 -33v0z" />
  </g>

</svg>
