<?xml version="1.0" standalone="no"?>
<!DOCTYPE svg PUBLIC "-//W3C//DTD SVG 1.1//EN" "http://www.w3.org/Graphics/SVG/1.1/DTD/svg11.dtd" >
<svg xmlns="http://www.w3.org/2000/svg" xmlns:xlink="http://www.w3.org/1999/xlink" version="1.1" viewBox="-10 0 1010 1000">
   <path fill="currentColor"
d="M877 64v97q-56 -10 -194 -10h-151v218h172q57 0 127 -7v91q-53 -9 -119 -8h-180v295h224q110 0 169 -13v101q-38 -9 -66 -10q-15 -1 -38 -2h-73h-522q-113 -1 -166 14v-105q5 1 14 3q51 13 150 12h220v-295h-152q-78 -1 -115 8v-91q2 0 6 1q52 6 117 6h144v-218h-176
q-71 0 -137 12v-93h3q60 6 132 6h407q135 0 192 -10q8 -1 12 -2zM690 494q72 66 145 149l-83 56q-59 -90 -137 -153z" />
</svg>
