<?xml version="1.0" standalone="no"?>
<!DOCTYPE svg PUBLIC "-//W3C//DTD SVG 1.1//EN" "http://www.w3.org/Graphics/SVG/1.1/DTD/svg11.dtd" >
<svg xmlns="http://www.w3.org/2000/svg" xmlns:xlink="http://www.w3.org/1999/xlink" version="1.1" viewBox="-10 0 1010 1000">
   <path fill="currentColor"
d="M520 -13q24 49 43 152h191q133 0 181 -8v96q-47 -7 -183 -8h-314q53 16 56 27q-1 3 -10 8q-27 15 -51 42q-16 18 -66 72q-41 43 -67 71l258 -6q5 -6 9 -11q41 -48 71 -94q9 -14 23 -34q98 46 107 62q-1 3 -12 6q-32 11 -52 31q-176 186 -346 339q-23 21 -35 32l358 -16
q-48 -66 -80 -103q-8 -9 -12 -14l74 -39q70 102 204 270l-91 47q-31 -61 -54 -95q-473 26 -565 49q-16 -63 -28 -91q63 -5 125 -49q114 -93 250 -225q-59 -12 -323 26q-5 -41 -24 -83q70 20 228 -222h-161q-105 0 -166 10v-102q48 12 154 12h262q-1 -4 -4 -13
q-28 -86 -53 -122z" />
</svg>
