<?xml version="1.0" standalone="no"?>
<!DOCTYPE svg PUBLIC "-//W3C//DTD SVG 1.1//EN" "http://www.w3.org/Graphics/SVG/1.1/DTD/svg11.dtd" >
<svg xmlns="http://www.w3.org/2000/svg" xmlns:xlink="http://www.w3.org/1999/xlink" version="1.1" viewBox="-10 0 1034 1024">
  <g transform="matrix(1 0 0 -1 0 820)">
   <path fill="currentColor"
d="M220 79q-18 -6 -39 -12l-62 -18q-42 -12 -73 -15q12 -18 24 -51q109 42 250 89l104 34l3 52q-45 -27 -168 -67v269h80q28 0 50 -3q3 0 15 -2v47q-9 -1 -13 -3q-15 -1 -52 -3h-80v243h99q27 0 50 -3q3 0 16 -2v47l-66 -6l-262 1l-42 5v-47q51 4 85 5h81v-243l-141 3l-9 3
v-47q54 6 77 5h73v-281zM546 681h208v-708q0 -21 4 -40t18 -26q33 -12 77 -13q34 0 60 10q31 13 47 57q4 12 15 55q-27 9 -49 31q-1 -49 -4 -60q-4 -28 -24 -41q-15 -7 -50 -8q-25 0 -39 5q-15 7 -15 40l1 685l4 54q-31 -1 -64 -5q-168 0 -194 2q-6 3 -40 3q1 -36 5 -75
l-2 -361q-4 -112 -20 -165q-27 -93 -109 -156q-45 -33 -114 -55q18 -13 44 -42q39 21 67 41q96 70 134 150q25 63 33 133q3 33 5 82l2 100v307z" />
  </g>

</svg>
