<?xml version="1.0" standalone="no"?>
<!DOCTYPE svg PUBLIC "-//W3C//DTD SVG 1.1//EN" "http://www.w3.org/Graphics/SVG/1.1/DTD/svg11.dtd" >
<svg xmlns="http://www.w3.org/2000/svg" xmlns:xlink="http://www.w3.org/1999/xlink" version="1.1" viewBox="-10 0 1034 1024">
  <g transform="matrix(1 0 0 -1 0 820)">
   <path fill="currentColor"
d="M936 -146q1 3 5 5q28 30 41 38q1 1 5 3q-61 9 -125 44q-102 63 -163 145q63 94 96 208q12 45 19 86l19 134q51 0 109 -3q4 0 10 -3v47q-12 -3 -23 -4h-491q-18 1 -27 4v-47q19 4 38 5l341 1q-1 -67 -12 -129q-9 -54 -27 -116q-25 -75 -74 -148q-24 36 -34 56
q-12 24 -26 56q-28 63 -45 126q-9 45 -10 81q0 15 5 37q-21 -3 -34 -4h-21q4 -18 8 -37l20 -89q1 -15 12 -43q6 -24 22 -60q30 -81 78 -157q-55 -69 -138 -123q-85 -63 -155 -64q30 -24 42 -47l86 48q21 12 39 26q79 54 149 128q43 -48 69 -74q9 -9 51 -40q34 -24 68 -45
q27 -15 53 -33q9 -6 20 -12zM556 732q99 -99 133 -153q12 15 32 31q-55 66 -70 79l-64 70q-6 -9 -12 -13q-6 -6 -19 -14zM443 635q-10 -1 -22 -4h-340q-18 1 -27 4v-46q15 3 31 4l155 1v-240q-123 0 -141 3q-3 0 -9 2v-46q6 0 12 3l138 2v-262q-126 -15 -154 -16h-19
q6 -22 13 -53q22 6 42 12q21 6 44 9l172 26q39 6 101 13q0 21 8 44l-49 -12q-1 0 -12 -2l-108 -16v257q114 0 129 -3q3 0 9 -2v46q-1 0 -61 -5h-77v240q75 0 156 -3q3 0 9 -2v46z" />
  </g>

</svg>
