<?xml version="1.0" standalone="no"?>
<!DOCTYPE svg PUBLIC "-//W3C//DTD SVG 1.1//EN" "http://www.w3.org/Graphics/SVG/1.1/DTD/svg11.dtd" >
<svg xmlns="http://www.w3.org/2000/svg" xmlns:xlink="http://www.w3.org/1999/xlink" version="1.1" viewBox="-10 0 1010 1000">
   <path fill="currentColor"
d="M460 36q29 8 105 8h215q42 0 77 -6q-21 142 -36 401q75 0 114 -6q-11 99 -23 274q-4 49 -5 61q-3 66 -41 90q-38 27 -150 41q2 -37 -49 -107q88 10 122 -1q32 -10 34 -51q1 -8 2 -25q14 -140 16 -209h-254q-62 -3 -107 10q15 -68 20 -180q1 -40 2 -79v-82q56 0 72 2
q21 3 23 10q2 4 -2 15q-20 70 -30 237h171l32 -326h-199q-46 0 -109 8v-85zM786 606v81q-47 -6 -92 -6h-160l-105 10v-87q17 6 34 7q12 1 65 1h170q54 0 88 -6zM69 58h5q38 4 91 4h162q58 -1 94 -4v79h-5q-42 -4 -69 -4h-63v201h43q36 -1 72 -4v79h-4q-42 -6 -82 -6h-29v230
q90 -20 131 -35q-12 49 -10 89q-212 33 -330 97q-3 -31 -14 -82q-3 -18 -5 -27q50 0 152 -26v-246h-45q-62 0 -88 8v-83q27 6 86 6h47v-201h-51q-52 0 -88 6v-81z" />
</svg>
