<?xml version="1.0" standalone="no"?>
<!DOCTYPE svg PUBLIC "-//W3C//DTD SVG 1.1//EN" "http://www.w3.org/Graphics/SVG/1.1/DTD/svg11.dtd" >
<svg xmlns="http://www.w3.org/2000/svg" xmlns:xlink="http://www.w3.org/1999/xlink" version="1.1" viewBox="-10 0 1010 1000">
   <path fill="currentColor"
d="M532 16q8 3 23 7q81 25 74 35q-1 2 -4 5q-18 11 -32 54q-54 149 -113 246q26 8 76 8h172q57 0 84 -6q-109 -129 -143 -337q45 1 79 -12q17 255 224 344q-40 32 -67 87q-9 -7 -30 -24q-27 -23 -44 -36q-7 57 -11 185q-4 105 -7 186q0 69 -32 90q-29 25 -136 37
q1 -64 -40 -105q129 34 127 -40q1 -19 3 -63q8 -163 13 -234h-141q7 335 -216 454q-38 -45 -83 -65q230 -68 224 -389q-52 -1 -72 4v-48q-8 10 -19 25q-8 12 -12 17q-5 -5 -17 -20q-22 -30 -41 -44q124 -118 161 -361zM63 106q10 0 29 1q31 3 59 3h155q62 -4 85 -4v73
q-27 -4 -70 -4h-57v185h42q29 -1 59 -4v71q-20 -2 -73 -2h-28v212q79 -18 123 -33q-12 45 -10 83q-195 30 -310 87q-2 -17 -8 -48q-6 -35 -7 -51q43 0 140 -24v-226h-43q-54 0 -82 6v-77q24 6 80 6h45v-185h-49q-50 0 -80 6v-75z" />
</svg>
