<?xml version="1.0" standalone="no"?>
<!DOCTYPE svg PUBLIC "-//W3C//DTD SVG 1.1//EN" "http://www.w3.org/Graphics/SVG/1.1/DTD/svg11.dtd" >
<svg xmlns="http://www.w3.org/2000/svg" xmlns:xlink="http://www.w3.org/1999/xlink" version="1.1" viewBox="-10 0 1034 1024">
  <g transform="matrix(1 0 0 -1 0 820)">
   <path fill="currentColor"
d="M260 375q72 0 97 -3q4 0 13 -4v48l-76 -5h-34v248q102 0 113 -2q13 0 29 -5v49q-15 -6 -79 -6h-187l-51 3l-12 3v-49q7 3 25 4l72 4h52v-249q-87 0 -116 2q-3 1 -6 1t-12 2v-48q6 3 12 4q24 3 50 3h72v-274q-78 -25 -106 -32q-27 -6 -66 -10q15 -28 23 -60q25 16 72 33
l197 63l74 21q3 24 11 56q-42 -21 -167 -59v262zM711 390v-456q0 -39 26 -54q25 -13 98 -14q78 0 99 32q18 24 36 97q-24 12 -46 29q-3 -43 -9 -67q-9 -37 -29 -44q-15 -6 -50 -6q-63 0 -77 14q-10 10 -11 32v437l182 -3q3 0 10 -3v48q-18 -4 -68 -5l-434 1q-9 1 -16 2
q-3 0 -12 2v-48q7 3 24 4q10 1 121 2q0 -64 -2 -107q0 -37 -4 -71q-12 -123 -60 -189q-73 -103 -228 -120q25 -27 38 -52q72 31 122 59q132 78 160 232q6 36 10 92q3 63 5 156h115zM458 658q21 4 45 5l306 1q33 0 71 -3q3 0 11 -3v47q-18 -4 -82 -5l-319 1q-4 1 -7 1
q-12 1 -25 3v-47z" />
  </g>

</svg>
