<?xml version="1.0" standalone="no"?>
<!DOCTYPE svg PUBLIC "-//W3C//DTD SVG 1.1//EN" "http://www.w3.org/Graphics/SVG/1.1/DTD/svg11.dtd" >
<svg xmlns="http://www.w3.org/2000/svg" xmlns:xlink="http://www.w3.org/1999/xlink" version="1.1" viewBox="-10 0 1010 1000">
   <path fill="currentColor"
d="M500 -6q97 37 101 44q0 2 -7 9q-19 17 -29 37q-16 35 -49 121v577q0 51 6 109h-84q6 -25 6 -105v-442q-13 27 -46 78q-12 18 -19 29q-17 -42 -44 -76q117 -130 165 -381zM647 4q96 8 117 20q0 1 -5 7q-27 27 -29 69q-3 100 0 226q110 -15 205 -40l9 81q-38 -3 -210 26
q30 339 145 399q16 -9 18 -107q39 43 83 57q-39 162 -85 161q-186 -30 -238 -498q-50 5 -95 13l-18 3l-10 -77q36 0 119 -8q-1 -72 -4 -176q-4 -132 -2 -156zM841 78q43 62 80 155l-88 29q-28 -86 -73 -160zM44 92q29 6 91 6h157q43 0 91 -4v81q-36 -6 -71 -6h-62v202h14
q32 0 63 -5q3 -1 4 -1v78q-19 -4 -67 -4h-14v230q76 -17 127 -36l-10 90q-202 31 -317 97l-20 -109q49 0 149 -26v-246h-46q-54 -1 -83 8v-84q42 8 87 8h42v-202h-50q-51 0 -85 6v-83z" />
</svg>
