<?xml version="1.0" standalone="no"?>
<!DOCTYPE svg PUBLIC "-//W3C//DTD SVG 1.1//EN" "http://www.w3.org/Graphics/SVG/1.1/DTD/svg11.dtd" >
<svg xmlns="http://www.w3.org/2000/svg" xmlns:xlink="http://www.w3.org/1999/xlink" version="1.1" viewBox="-10 0 1034 1024">
  <g transform="matrix(1 0 0 -1 0 820)">
   <path fill="currentColor"
d="M214 399q-117 3 -136 5v-47q21 6 42 6h94v-300q-105 -34 -164 -40q16 -27 27 -57q19 12 83 37q4 3 10 4q19 6 40 15l161 57q19 6 53 19q0 28 7 53q-57 -33 -178 -74v286q94 0 111 -2q13 0 26 -4v47q-24 -4 -68 -5h-69v238q114 0 130 -2q12 0 25 -4v47q-19 -4 -67 -5
l-268 3q-4 1 -7 1q-3 1 -5 1v-47q12 3 24 4l99 2h30v-238zM642 536q6 -24 6 -80q0 -54 -8 -130q-18 -147 -74 -233q-82 -129 -218 -180q-27 -9 -61 -14q27 -27 43 -49q72 39 117 68q36 22 66 51q79 72 123 175q21 54 31 101q9 57 15 139l10 107q3 25 14 45h-64zM529 708
l-43 4q-10 1 -20 1q1 -30 5 -60l-1 -411q-1 -10 -2 -26l-2 -15h47q-4 30 -5 68v405h322l-3 -455q-1 -3 -2 -11h48q-4 30 -5 67l1 394l4 44q-31 -1 -64 -5h-280zM726 159q0 12 3 30q3 24 16 39h-62l4 -36q0 -15 2 -30l1 -235q3 -30 25 -43q24 -15 96 -16q60 0 87 12
q40 16 60 80q6 18 11 48q-30 9 -46 19q0 -18 -3 -33q-3 -34 -15 -55q-18 -30 -89 -31q-45 0 -66 5q-24 9 -24 45v201z" />
  </g>

</svg>
