<?xml version="1.0" standalone="no"?>
<!DOCTYPE svg PUBLIC "-//W3C//DTD SVG 1.1//EN" "http://www.w3.org/Graphics/SVG/1.1/DTD/svg11.dtd" >
<svg xmlns="http://www.w3.org/2000/svg" xmlns:xlink="http://www.w3.org/1999/xlink" version="1.1" viewBox="-10 0 1034 1024">
  <g transform="matrix(1 0 0 -1 0 820)">
   <path fill="currentColor"
d="M486 -39h-333q-24 0 -48 2q-6 0 -16 4v-46q6 1 17 2q22 1 47 3l749 -1q15 0 27 -4v46q-4 0 -7 -2q-3 0 -6 -1q-21 0 -49 -3h-342v143l257 -1q3 0 24 -4v46l-26 -4l-146 -2h-109v119h278q39 0 64 -5v44q-7 0 -12 -2l-90 -3l-568 1q-9 1 -20 2q-3 0 -11 2v-44q30 3 62 5
h258v-119l-255 3l-8 3v-46q49 4 64 5h199v-143zM181 546l65 67q13 16 28 31h218v-214q0 -18 -7 -28q-7 -7 -26 -12q-15 -3 -26 -3q-13 0 -45 5q13 -33 19 -53q30 1 40 3q45 4 66 22q15 15 16 60v220h284q-15 -42 -51 -106q18 0 49 -4q7 25 58 140q1 6 5 10q-33 -1 -65 -5
h-507q31 42 50 60q15 15 38 20q-42 21 -57 32q-25 -39 -58 -81t-70 -83q-66 -69 -118 -98q27 -15 44 -32q12 15 50 49zM353 493q6 6 12 9q24 15 52 19q-21 18 -48 48q-12 -16 -42 -45q-28 -25 -74 -61q-78 -57 -149 -87q19 -18 34 -38q69 45 152 102q3 3 63 53zM672 539
l-29 17q-9 -18 -22 -38q45 -19 130 -72q85 -52 120 -81q9 24 27 38l-150 92zM629 57q75 -45 117 -87q13 21 28 35q-3 1 -88 65q-15 12 -33 25q-10 -21 -24 -38v0z" />
  </g>

</svg>
