<?xml version="1.0" standalone="no"?>
<!DOCTYPE svg PUBLIC "-//W3C//DTD SVG 1.1//EN" "http://www.w3.org/Graphics/SVG/1.1/DTD/svg11.dtd" >
<svg xmlns="http://www.w3.org/2000/svg" xmlns:xlink="http://www.w3.org/1999/xlink" version="1.1" viewBox="-10 0 1034 1024">
  <g transform="matrix(1 0 0 -1 0 820)">
   <path fill="currentColor"
d="M861 664h41q27 0 50 -3q3 0 15 -2v47q-12 -3 -28 -4q-18 0 -37 -2l-469 1q-30 3 -33 5v-47q9 0 18 2q22 0 48 3h357v-670q0 -25 -12 -45q-6 -6 -18 -12q-30 -10 -79 -11q-24 0 -56 5q4 -10 10 -23q4 -13 8 -32q42 1 76 6q66 9 90 33q18 21 19 71v678zM454 480l4 -57
l-1 -233q-3 -12 -4 -48q15 3 55 4l127 1q24 0 60 -5q-3 33 -5 67l1 232l4 49q-18 -1 -32 -2q-22 -3 -75 -3q-69 0 -98 2q-9 3 -37 3q0 -4 1 -10zM495 183v266h157v-266h-157zM195 83q-93 -30 -147 -39q4 -7 10 -18q4 -12 9 -25q0 -6 5 -14q21 12 30 16q27 9 53 21
q43 18 89 33q10 4 26 8l117 38q0 27 2 54q-43 -24 -155 -62v276q102 -3 114 -6q1 1 3 0v47q-4 0 -7 -1q-3 0 -4 -2q-40 0 -82 -3h-24v254q96 0 110 -2q4 0 11 -2l9 -2v48q-4 0 -9 -2q-6 -1 -25 -4h-236q-40 4 -43 5q-1 1 -2 1v-48q27 6 97 6h49v-254l-113 4q-3 0 -10 2v-47
q7 1 19 2q60 3 93 4h11v-288z" />
  </g>

</svg>
