<?xml version="1.0" standalone="no"?>
<!DOCTYPE svg PUBLIC "-//W3C//DTD SVG 1.1//EN" "http://www.w3.org/Graphics/SVG/1.1/DTD/svg11.dtd" >
<svg xmlns="http://www.w3.org/2000/svg" xmlns:xlink="http://www.w3.org/1999/xlink" version="1.1" viewBox="-10 0 1034 1024">
  <g transform="matrix(1 0 0 -1 0 820)">
   <path fill="currentColor"
d="M888 -85q7 -15 32 -55q15 15 38 29l-110 156l-81 112q-18 -15 -35 -27q34 -39 58 -70q25 -36 65 -97l-208 -22l-190 -16l57 87l109 183q22 39 49 48q-33 15 -62 32q-24 -70 -92 -186l-53 -87q-18 -30 -34 -50q-21 -25 -51 -40q9 -22 20 -49q31 13 96 24l101 12l168 18
l114 12q4 -6 9 -14zM390 273q31 3 65 5l457 -1q7 0 16 -2l15 -2v47q-3 0 -6 -1l-2 -1q-3 0 -4 -1q-27 0 -53 -3h-219v212l207 -1q4 0 25 -4v46l-36 -4l-196 -1v117q0 37 13 67h-57l4 -28l2 -94v-62l-184 4q-4 1 -7 1v-46q6 1 66 5h125v-212h-166q-24 0 -49 2q-6 0 -16 4v-47
zM214 48q-118 -36 -154 -36l16 -37q3 -7 7 -17q42 21 164 58q22 7 45 12q19 4 113 36q1 25 5 50q-25 -12 -60 -24l-97 -32v265h46q28 0 50 -3q3 0 15 -2v47q-54 -6 -81 -6h-30v244h80q30 0 51 -3q1 0 14 -2v47q-54 -6 -65 -6l-230 1q-9 1 -17 1q-7 0 -17 4v-47q-3 0 9 1
q4 0 10 1l126 3v-244q-117 3 -124 5l-1 1v-47q7 0 17 2l108 3v-275z" />
  </g>

</svg>
