<?xml version="1.0" standalone="no"?>
<!DOCTYPE svg PUBLIC "-//W3C//DTD SVG 1.1//EN" "http://www.w3.org/Graphics/SVG/1.1/DTD/svg11.dtd" >
<svg xmlns="http://www.w3.org/2000/svg" xmlns:xlink="http://www.w3.org/1999/xlink" version="1.1" viewBox="-10 0 1010 1000">
   <path fill="currentColor"
d="M881 48q-10 50 -10 111v72q1 68 8 101q-22 -2 -61 -3q-19 -1 -43 -1h-63q-2 36 -1 77q0 36 3 44h68q77 0 109 -1q37 -1 49 -3v73q-7 -2 -41 -3q-17 -1 -41 -1h-64h-72q43 185 145 254q24 -27 24 -117q42 50 83 64q-36 170 -73 172q-185 -61 -252 -371h-145v217
q61 -32 125 -86q-2 25 8 63q4 16 6 27q-120 65 -224 154q-15 -49 -38 -87q41 -21 46 -52v-589q0 -48 -1 -68q-1 -25 -5 -43q52 6 137 6h186q74 0 137 -10zM385 88v77q-9 -2 -41 -3q-15 -1 -37 -1h-59v185q77 0 117 -6v77q-47 -4 -117 -4v210q80 -34 141 -71q-9 48 -4 97
q-135 48 -312 133q-11 -51 -39 -97q40 -1 141 -36v-236q-71 0 -110 6v-77q27 3 110 4v-185q-74 0 -121 6v-79q20 2 47 3q13 1 30 1h46h85q79 0 123 -4zM504 125v135h290v-135h-290zM635 328h-131v123h137q-6 -82 -6 -123z" />
</svg>
