<?xml version="1.0" standalone="no"?>
<!DOCTYPE svg PUBLIC "-//W3C//DTD SVG 1.1//EN" "http://www.w3.org/Graphics/SVG/1.1/DTD/svg11.dtd" >
<svg xmlns="http://www.w3.org/2000/svg" xmlns:xlink="http://www.w3.org/1999/xlink" version="1.1" viewBox="-10 0 1034 1024">
  <g transform="matrix(1 0 0 -1 0 820)">
   <path fill="currentColor"
d="M236 400q51 0 66 -2q21 0 34 -4v47q-9 -3 -21 -3q-15 -1 -47 -2q-16 0 -32 -1v223q75 0 94 -3q12 0 25 -4v48q-18 -6 -68 -6l-210 2q-3 1 -5 1q-6 1 -12 3v-48l60 7h78v-222l-76 1q-9 1 -25 2q-3 0 -12 2v-47q6 3 28 4q21 1 85 2v-297q-22 -6 -43 -14q-63 -21 -102 -25
q21 -30 32 -57q24 18 73 40l193 71q1 27 9 64q-40 -33 -124 -65v283zM547 344v-345q0 -19 -6 -26q-4 -4 -27 -11q-30 -4 -38 -5q-16 0 -41 8q9 -15 14 -26q4 -9 10 -27q76 10 101 25q24 13 24 51v356h95q0 -99 -13 -197q-12 -96 -32 -141q-34 -90 -74 -120q33 -7 56 -19
q55 109 76 207q18 82 24 270h109v-378q0 -30 -12 -37q-18 -9 -44 -10q-30 4 -49 5q10 -25 15 -50q33 3 47 5q33 4 53 14q27 16 28 61v390l90 -3q3 0 10 -3v47q-21 -4 -68 -5h-32l1 306l4 46q-33 -1 -67 -5l-87 1q-1 0 -40 4q1 -30 5 -62v-290h-95l1 306q0 18 4 46
q-31 -1 -63 -5q-60 0 -85 2l-41 3q1 -30 5 -62v-290q-37 1 -75 3q-3 0 -8 1q-3 1 -5 1v-47q15 4 37 5l51 1l-8 -158l-13 -81q-16 -66 -50 -128q-27 -45 -67 -77q33 -9 57 -26q36 60 56 100q15 34 30 80q16 63 22 113q3 31 6 73q3 45 4 104h105zM442 380v311h105v-311h-105z
M716 380v311h109v-311h-109z" />
  </g>

</svg>
