<?xml version="1.0" standalone="no"?>
<!DOCTYPE svg PUBLIC "-//W3C//DTD SVG 1.1//EN" "http://www.w3.org/Graphics/SVG/1.1/DTD/svg11.dtd" >
<svg xmlns="http://www.w3.org/2000/svg" xmlns:xlink="http://www.w3.org/1999/xlink" version="1.1" viewBox="-10 0 1034 1024">
  <g transform="matrix(1 0 0 -1 0 820)">
   <path fill="currentColor"
d="M397 685q-9 -3 -22 -3q-19 0 -41 -2h-219q-40 0 -64 5v-46q15 3 30 4l135 1v-251l-116 1l-30 4v-46q15 3 35 4l111 1v-287q-109 -27 -149 -28h-16q10 -25 19 -57q43 22 120 41l115 31q46 12 92 18q0 16 -1 22q0 9 3 28q-51 -21 -145 -44v276q108 0 123 -3q3 0 8 -2v46
q-1 0 -60 -5h-71v251q120 0 135 -3q3 0 8 -2v46zM458 -143q39 39 74 67l149 104q-7 39 -9 49q-57 -51 -198 -145v328h207l10 -45q13 -66 21 -88q9 -24 17 -49q9 -27 18 -43q21 -51 69 -108q42 -48 74 -49q24 0 44 41q16 31 38 94q-27 15 -46 33q-3 -36 -7 -51
q-12 -66 -38 -67q-12 0 -44 36q-42 48 -70 120q-30 79 -45 176l225 -3l2 -1q3 0 5 -1v46q-9 -3 -23 -3q-18 0 -41 -2h-175l-14 154q130 0 144 -2q15 0 36 -3l-3 28q-3 22 -3 75q0 132 2 142q0 1 4 38q-30 -1 -59 -5l-349 1q-3 0 -41 4q1 -33 5 -66l-1 -715q-1 -9 -10 -35
q-4 -4 -10 -13zM474 687h363v-201h-363v201zM474 296v154h187l16 -154h-203z" />
  </g>

</svg>
