<?xml version="1.0" standalone="no"?>
<!DOCTYPE svg PUBLIC "-//W3C//DTD SVG 1.1//EN" "http://www.w3.org/Graphics/SVG/1.1/DTD/svg11.dtd" >
<svg xmlns="http://www.w3.org/2000/svg" xmlns:xlink="http://www.w3.org/1999/xlink" version="1.1" viewBox="-10 0 1034 1024">
  <g transform="matrix(1 0 0 -1 0 820)">
   <path fill="currentColor"
d="M607 516q-1 -33 -1 -66l-13 -448q-1 -33 -10 -50q-6 -15 -36 -27q-24 -7 -44 -8q-12 0 -54 7q13 -22 14 -25q6 -13 13 -32q43 4 80 16q43 12 60 38q12 24 17 92l3 88l3 218l5 132l8 106q-28 -1 -58 -5h-86q0 66 2 110q3 51 6 62q3 12 18 27q-18 1 -34 1q-15 0 -36 5
q4 -36 5 -77l-1 -128q-105 3 -115 5v-46q9 0 18 2l97 3l-6 -152q-3 -55 -9 -99q-9 -66 -38 -140q-63 -162 -205 -242q22 -9 52 -32q139 136 193 266q25 67 37 145q6 45 10 104l6 150h99zM879 -15q0 -63 -3 -88l-2 -10h48q-3 24 -4 39l-1 602q1 36 5 73q-30 -1 -60 -5l-111 1
q-15 3 -43 4q1 -36 5 -73l-1 -615q-3 -19 -4 -26h48q-1 9 -3 20q-1 39 -3 78h129zM750 21v539h129v-539h-129zM209 66q-54 -18 -87 -27q-27 -6 -55 -10q10 -25 19 -52q84 33 201 72q28 9 57 17q18 3 27 8l3 52q-33 -16 -67 -29q-24 -6 -59 -19v256h51q27 0 50 -3q3 0 15 -2
v46q-33 -1 -65 -5h-51v231h64q30 0 51 -3q3 0 15 -2v47q-18 -1 -35 -5h-243q-9 1 -16 1t-17 4v-47q6 1 66 5h76v-231q-114 3 -123 5v-46q51 4 84 5h39v-268z" />
  </g>

</svg>
