<?xml version="1.0" standalone="no"?>
<!DOCTYPE svg PUBLIC "-//W3C//DTD SVG 1.1//EN" "http://www.w3.org/Graphics/SVG/1.1/DTD/svg11.dtd" >
<svg xmlns="http://www.w3.org/2000/svg" xmlns:xlink="http://www.w3.org/1999/xlink" version="1.1" viewBox="-10 0 1010 1000">
   <path fill="currentColor"
d="M407 -2q103 4 105 12q0 2 -4 8q-17 22 -20 60q-4 46 -4 95h78q35 0 75 -10q-2 28 -7 86q-8 83 -9 124q-1 14 -2 44q-9 225 -14 333q10 95 -135 112q-8 -57 -39 -92q69 10 82 0q19 -7 21 -51q10 -151 24 -479h-78q-3 521 -168 657q-18 -26 -80 -43q102 -73 140 -208
q39 -131 37 -404q-29 -1 -62 8v-83q30 6 64 6q0 -112 -4 -175zM677 143q23 6 125 6q49 0 117 -6q-8 42 -8 169v373q-1 150 8 165h-86q6 -17 6 -94h-83q0 85 8 98h-87q5 -14 6 -44q2 -30 2 -113v-385q0 -150 -8 -169zM839 217h-83v472h83v-472zM54 112q3 0 10 1q41 2 75 2
h131q16 0 45 -2q16 -1 24 -1v73q5 5 -67 0h-28v194h20q38 0 55 -4v76q-19 -4 -61 -4h-14v224q57 -13 103 -32q-8 32 -4 76q-196 48 -283 103q-2 -25 -11 -67q-5 -27 -7 -40q25 0 106 -20q16 -4 25 -6v-238h-36q-51 -1 -77 8v-82q23 6 75 6h38v-194h-40q-48 0 -79 6v-79z" />
</svg>
