<?xml version="1.0" standalone="no"?>
<!DOCTYPE svg PUBLIC "-//W3C//DTD SVG 1.1//EN" "http://www.w3.org/Graphics/SVG/1.1/DTD/svg11.dtd" >
<svg xmlns="http://www.w3.org/2000/svg" xmlns:xlink="http://www.w3.org/1999/xlink" version="1.1" viewBox="-10 0 1010 1000">
   <path fill="currentColor"
d="M492 14q97 0 97 10q0 2 -3 6q-11 14 -11 40v149h135v-115q0 -60 -6 -90q79 -2 94 8q1 3 -2 11q-12 32 -12 80v106h41q64 -1 94 -4v75q-28 -4 -100 -4h-35v123v101h53q48 0 117 -8v84q-46 -8 -103 -8h-246h-131q-64 0 -99 8v-86q11 2 26 4q36 7 63 6h38v-224h-40
q-41 0 -71 6v-79q27 6 81 6h30v-98q0 -43 -2 -63q-2 -21 -8 -44zM710 286h-135v224h135v-224zM530 621q90 43 87 54q-1 3 -8 4q-22 4 -40 28q-55 73 -174 190q-27 -26 -85 -53q119 -54 220 -223zM746 635q127 115 194 187l-83 63q-68 -93 -180 -202zM46 104q29 6 95 6h163
q61 0 93 -6v79q-1 1 -27 0q-31 -2 -47 -2h-63v200h44q35 -1 71 -4v80h-4q-42 -6 -81 -6h-30v230q81 -18 131 -36q-12 50 -10 90q-210 32 -329 97q-3 -30 -14 -81q-4 -19 -6 -28q50 0 153 -26v-246h-46q-62 0 -87 8v-84q25 6 85 6h48v-200h-52q-53 0 -87 6v-83z" />
</svg>
