<?xml version="1.0" standalone="no"?>
<!DOCTYPE svg PUBLIC "-//W3C//DTD SVG 1.1//EN" "http://www.w3.org/Graphics/SVG/1.1/DTD/svg11.dtd" >
<svg xmlns="http://www.w3.org/2000/svg" xmlns:xlink="http://www.w3.org/1999/xlink" version="1.1" viewBox="-10 0 1010 1000">
   <path fill="currentColor"
d="M611 -8q80 -1 111 10q-1 3 -6 10q-24 29 -24 70v97q131 -1 209 -8v83q-26 -8 -211 -10v145q132 1 179 0q46 -1 73 -6v90q-82 -16 -204 -16q39 195 224 272q-5 6 -14 15q-40 42 -51 76q-178 -141 -207 -351v307q0 72 6 131h-87q8 -39 8 -139v-285q-73 218 -252 371
q-16 -17 -53 -38q-21 -12 -36 -20q206 -124 293 -339q-128 0 -186 8v-86q72 9 119 10h115v-145h-129l-48 100q-43 -22 -79 -26q76 -101 95 -256q101 12 102 22q0 1 -4 5q-25 24 -46 90h107v-105q0 -43 -4 -82zM48 90q28 6 89 6h151q37 0 70 -3q12 -1 17 -1v75q-25 -4 -67 -4
h-60v191h40q36 -1 65 -4v73q-22 -5 -77 -4h-28v216q68 -16 123 -33q-12 45 -10 83q-206 32 -307 93q-2 -23 -11 -63q-5 -27 -7 -40q44 0 141 -26v-230h-42q-58 0 -81 6v-77q23 6 79 6h44v-191h-48q-52 0 -81 6v-79z" />
</svg>
