<?xml version="1.0" standalone="no"?>
<!DOCTYPE svg PUBLIC "-//W3C//DTD SVG 1.1//EN" "http://www.w3.org/Graphics/SVG/1.1/DTD/svg11.dtd" >
<svg xmlns="http://www.w3.org/2000/svg" xmlns:xlink="http://www.w3.org/1999/xlink" version="1.1" viewBox="-10 0 1034 1024">
  <g transform="matrix(1 0 0 -1 0 820)">
   <path fill="currentColor"
d="M885 671l-55 -4h-221q13 24 31 45q12 19 36 32q4 3 11 5q-40 13 -60 26q-27 -58 -90 -136q-61 -70 -140 -115q24 -12 44 -28q12 9 17 13q40 33 67 60q24 24 57 62h243q-48 -90 -141 -175q-31 27 -48 48q-27 34 -37 65q-15 -12 -49 -28q33 -39 60 -67q22 -24 44 -44
q-33 -24 -65 -45q-30 -18 -65 -38q-75 -39 -147 -52q18 -12 46 -42q39 16 104 49q60 34 97 58q30 21 61 45l53 -39q25 -16 58 -36q52 -30 152 -68q9 10 15 20l29 28q-60 3 -139 35q-61 27 -138 85q109 111 180 242q-6 0 -10 -1zM495 249q1 -34 5 -70l-1 -317q-3 -19 -4 -28
h48q0 3 -1 6q-3 9 -5 54v30h294l-4 -75q-1 -1 -2 -5h50q-1 4 -2 7t-2 13l-2 99l1 237q0 7 2 15l3 34l-68 -6l-259 1q-30 4 -49 5h-4zM537 -40v248h294v-248h-294zM213 69q-25 -9 -44 -14q-21 -4 -40 -10q-52 -12 -81 -16q15 -30 23 -53q13 6 28 12q27 9 56 20q120 39 162 50
q49 13 93 30q0 25 2 49q-33 -16 -58 -26l-102 -32v283h64q30 0 50 -3q3 0 16 -2v46l-36 -4l-94 -1v241h73q27 0 52 -3q1 0 14 -2v47q-18 -1 -35 -5h-266q-9 1 -17 1q-7 0 -17 4v-47q54 4 79 5h78v-241l-132 4q-3 1 -7 1v-46q54 4 80 5h59v-293z" />
  </g>

</svg>
