<?xml version="1.0" standalone="no"?>
<!DOCTYPE svg PUBLIC "-//W3C//DTD SVG 1.1//EN" "http://www.w3.org/Graphics/SVG/1.1/DTD/svg11.dtd" >
<svg xmlns="http://www.w3.org/2000/svg" xmlns:xlink="http://www.w3.org/1999/xlink" version="1.1" viewBox="-10 0 1034 1024">
  <g transform="matrix(1 0 0 -1 0 820)">
   <path fill="currentColor"
d="M455 -84q0 -28 -3 -53q0 -3 -4 -11h50q-1 4 -2 7t-4 57v454q13 25 47 74q21 36 58 49q-30 15 -56 34q-15 -33 -47 -84q-31 -52 -60 -92q-75 -102 -131 -142q27 -13 41 -27q24 24 44 51q25 28 67 81v-398zM527 683q6 7 14 18q12 15 40 21q-36 21 -56 36q-16 -31 -46 -74
q-45 -66 -85 -111q-42 -42 -72 -61q27 -15 41 -30q60 66 109 128q27 37 55 73zM831 373q96 0 112 -2l21 -4v48q-73 -6 -84 -7l-267 1q-18 3 -35 3q-7 0 -18 3v-48q3 0 8 2q3 0 10 1l104 3h111v-420q0 -46 -64 -47q-28 0 -63 6q16 -28 21 -52q96 6 118 25q25 18 26 65v423z
M608 631q9 0 18 2l140 3l127 -1q7 0 16 -2q1 0 14 -2v47q-4 0 -9 -2q-18 0 -57 -4l-216 1q-30 3 -33 5v-47zM203 60q-90 -37 -147 -44q9 -18 19 -49q30 12 84 36l236 87l3 49q-66 -36 -156 -67v276h72q25 0 50 -3q3 0 15 -2v46q-33 -1 -65 -5h-72v240h65q28 0 50 -3
q1 0 16 -2v47q-60 -6 -66 -6l-217 1q-9 1 -17 1q-7 0 -17 4v-47q54 6 88 5h59v-240q-120 3 -130 5v-46q49 6 108 5h22v-288z" />
  </g>

</svg>
