<?xml version="1.0" standalone="no"?>
<!DOCTYPE svg PUBLIC "-//W3C//DTD SVG 1.1//EN" "http://www.w3.org/Graphics/SVG/1.1/DTD/svg11.dtd" >
<svg xmlns="http://www.w3.org/2000/svg" xmlns:xlink="http://www.w3.org/1999/xlink" version="1.1" viewBox="-10 0 1034 1024">
  <g transform="matrix(1 0 0 -1 0 820)">
   <path fill="currentColor"
d="M373 69l13 7l6 58q-37 -24 -76 -44l-70 -36v265l108 -3q3 0 10 -3v47q-21 -4 -68 -5h-50v256q105 0 122 -2q12 0 25 -4v48q-18 -6 -69 -6l-211 1q-12 1 -35 2q-4 0 -11 3v-48q4 3 53 6h88v-256l-116 3q-7 0 -16 2v-47q24 6 53 6h79v-282q-40 -18 -84 -35q-42 -15 -68 -19
q10 -21 22 -57q33 24 70 42q199 91 225 101zM577 622q0 46 2 74q3 30 18 51q-31 0 -69 4q1 -12 3 -19l5 -129l2 -106q0 -111 -8 -207q-6 -93 -29 -160q-45 -120 -129 -197q-25 -24 -79 -53l33 -14q12 -6 26 -14q22 21 36 36q28 30 68 80q36 49 60 98q46 99 55 259
q3 46 5 116zM361 257q30 -1 60 -5q7 27 12 50q6 22 12 64q9 51 14 77q3 15 7 26q1 9 15 32q-33 3 -61 10q0 -21 -8 -110l-6 -34q-6 -30 -14 -60q-12 -36 -31 -50zM623 274q4 3 53 6h76v-349q-180 0 -194 3q-3 1 -5 1q-3 1 -5 1v-47q4 3 52 6l332 -1q24 0 40 -5v47
q-21 -4 -67 -5h-115v349q109 0 125 -2q13 0 26 -4v47q-21 -4 -68 -5h-83v298q120 0 136 -2q13 0 26 -4v47q-19 -4 -68 -5l-244 1q-15 3 -33 4v-47q12 4 64 6q40 0 81 -1v-297l-117 3q-3 0 -7 1q-3 1 -5 1v-47z" />
  </g>

</svg>
