<?xml version="1.0" standalone="no"?>
<!DOCTYPE svg PUBLIC "-//W3C//DTD SVG 1.1//EN" "http://www.w3.org/Graphics/SVG/1.1/DTD/svg11.dtd" >
<svg xmlns="http://www.w3.org/2000/svg" xmlns:xlink="http://www.w3.org/1999/xlink" version="1.1" viewBox="-10 0 1034 1024">
  <g transform="matrix(1 0 0 -1 0 820)">
   <path fill="currentColor"
d="M652 135l-280 5l-1 1v-47q49 4 65 5h216v-184q0 -36 -3 -53q0 -3 -3 -11h49q0 3 -1 7q-3 6 -3 43l-1 198h204q27 0 51 -3q1 0 14 -2v47q-9 -1 -61 -6h-208v125h135q28 0 50 -3q3 0 15 -2v47q-54 -6 -83 -6h-117v64q0 37 14 67h-58q4 -24 5 -43l1 -88h-182q21 31 35 56
q22 39 46 76l29 52q282 0 311 -3q3 0 13 -2v47q-39 -6 -66 -6h-240q0 3 32 59q12 27 47 47q-30 9 -40 15q-9 3 -24 13q-7 -25 -14 -40l-24 -56q-6 -15 -20 -38l-145 3l-9 3v-47q9 0 18 2l116 3q-36 -72 -65 -116q-39 -54 -67 -67q9 -18 15 -34q1 -4 3 -10q43 6 68 7h163
v-125zM438 556q-4 30 -5 64v62h460l-3 -106q-1 -4 -1 -11q-1 -1 -1 -5h48q-6 30 -5 100q0 33 5 63q-60 -4 -66 -5l-428 1q-19 3 -51 4q1 -33 5 -68l-4 -95q-1 -1 -1 -4h47zM199 45q-99 -31 -147 -38q13 -34 18 -51q36 16 74 29l130 43q33 10 66 19l7 3q4 1 11 4l2 1
q1 25 4 51q-33 -18 -126 -49v287l109 -3q3 0 11 -2v46l-36 -4l-84 -1v248q94 0 109 -3l19 -2v47q-54 -6 -76 -6l-191 1q-31 3 -34 5v-47q9 0 19 2l92 3h23v-248q-108 3 -120 5v-46q54 4 80 5h40v-299z" />
  </g>

</svg>
