<?xml version="1.0" standalone="no"?>
<!DOCTYPE svg PUBLIC "-//W3C//DTD SVG 1.1//EN" "http://www.w3.org/Graphics/SVG/1.1/DTD/svg11.dtd" >
<svg xmlns="http://www.w3.org/2000/svg" xmlns:xlink="http://www.w3.org/1999/xlink" version="1.1" viewBox="-10 0 1034 1024">
  <g transform="matrix(1 0 0 -1 0 820)">
   <path fill="currentColor"
d="M319 90q39 10 94 31q0 15 5 59q-31 -24 -102 -50l-62 -24v254q88 0 105 -2q13 0 26 -4v47q-21 -4 -69 -5h-62v242q112 0 129 -2q12 0 27 -4v47q-21 -4 -69 -5l-241 1q-18 3 -25 3q-3 1 -6 1v-47q6 3 13 3q18 3 55 3h79v-242l-96 1q-19 3 -26 3q-3 1 -5 1v-47q4 3 53 6h74
v-269q-57 -21 -97 -33q-30 -7 -71 -13q16 -25 24 -55q36 21 81 38zM626 212v-272q0 -36 -24 -44q-24 -4 -51 -5q-18 0 -55 10q12 -25 16 -55q12 1 24 1q46 3 63 7q36 9 48 20q16 15 17 58v395q28 -66 58 -123q27 -49 76 -113q64 -85 134 -145q27 22 57 35q-15 6 -35 18
q-9 4 -11 7q-34 21 -84 73q-81 90 -113 162q18 19 36 32q21 15 41 33q21 15 42 33q24 18 75 37q-24 24 -38 51q-31 -33 -67 -62l-59 -49q-25 -18 -49 -38q-48 105 -63 188v45h217q25 0 53 -3q6 0 16 -3v47q-18 -4 -69 -5h-217v157q0 6 3 25q3 22 17 40h-63q4 -18 5 -65v-157
h-155q-60 0 -77 4q-1 0 -5 1v-47q9 4 64 6l173 -1v-246l-57 -56q-33 -33 -60 -58q-25 -24 -64 -57q-73 -60 -108 -79q21 -15 50 -47q18 30 58 68l108 104q24 27 49 49zM402 402q69 -58 124 -139q6 4 32 26q-48 64 -126 143q-10 -12 -30 -30zM836 686q-27 27 -63 59
q-6 -12 -12 -18q-4 -4 -20 -17q27 -16 57 -44q34 -36 58 -73q10 12 37 33q-12 15 -27 31q-15 15 -30 29v0z" />
  </g>

</svg>
