<?xml version="1.0" standalone="no"?>
<!DOCTYPE svg PUBLIC "-//W3C//DTD SVG 1.1//EN" "http://www.w3.org/Graphics/SVG/1.1/DTD/svg11.dtd" >
<svg xmlns="http://www.w3.org/2000/svg" xmlns:xlink="http://www.w3.org/1999/xlink" version="1.1" viewBox="-10 0 1010 1000">
   <path fill="currentColor"
d="M647 -12q34 67 49 110l-69 27h171q46 0 79 -6q-6 30 -6 80v238q-1 53 4 73q-25 -4 -73 -4h-129q18 69 51 127q46 -36 117 -119q58 37 78 60q0 2 -10 4q-24 5 -38 16q-54 41 -109 89q85 76 208 99q-40 29 -79 87q-232 -115 -288 -363h-83v266l121 -93l32 79
q-121 66 -215 151l-47 -67q34 -40 33 -64v-561q0 -42 -4 -98q31 6 76 6h103q-10 -42 -52 -113zM792 189h-272v97h272v-97zM792 350h-272v93h272v-93zM50 112q5 0 16 1q36 2 81 2h165q48 0 86 -6q6 -1 9 -1v81q-26 -5 -90 -6h-51v190h34q37 0 85 -6v78q-21 -5 -87 -6h-32v216
q84 -18 135 -34l-10 84q-224 32 -335 93l-20 -103q49 0 154 -26v-230h-45q-60 0 -89 6v-78q26 6 87 6h47v-190h-51q-54 0 -89 6v-77z" />
</svg>
