<?xml version="1.0" standalone="no"?>
<!DOCTYPE svg PUBLIC "-//W3C//DTD SVG 1.1//EN" "http://www.w3.org/Graphics/SVG/1.1/DTD/svg11.dtd" >
<svg xmlns="http://www.w3.org/2000/svg" xmlns:xlink="http://www.w3.org/1999/xlink" version="1.1" viewBox="-10 0 1010 1000">
   <path fill="currentColor"
d="M361 90v77q-42 -6 -103 -6v201q81 0 93 -6v83q-9 -6 -93 -6v218q2 -1 7 -3q63 -25 100 -46q-8 39 -4 85q-185 56 -263 102q-9 5 -11 5q-2 -11 -13 -41q-10 -30 -14 -46q7 5 127 -34v-240q-116 0 -127 6v-85q62 8 127 8v-201q-128 0 -127 8v-79q41 6 121 6h63
q100 0 117 -6zM585 185l22 11q61 29 56 33q-2 3 -9 6q-21 7 -47 31q-60 53 -117 97q205 -7 294 -7q-5 -5 -18 -17q-47 -44 -81 -71l65 -39q80 71 173 180l-80 44q-12 -24 -30 -48q-377 12 -402 40q-12 -63 -28 -87q72 -18 202 -173zM655 -2q30 88 35 114h88q125 -1 149 -10
v89q-70 -10 -145 -10h-238q-85 0 -159 10v-85q24 6 155 7h71q-17 -46 -49 -97zM724 459q104 8 95 14q1 3 -3 9q-14 18 -14 54v228q-4 44 45 38q39 8 50 -99q34 45 75 59q-33 112 -91 109h-68q-51 0 -67 -16q-17 -15 -16 -65v-250q0 -54 -6 -81zM423 467h23q69 -2 68 8
q2 5 -4 12q-12 15 -12 37q1 164 -31 224q-32 72 -146 151q-16 -26 -83 -55q123 -45 159 -123q19 -38 25 -96q5 -51 1 -158zM567 457q13 0 35 1q61 0 57 9q1 5 -2 9q-12 15 -12 68v187q-1 149 10 156h-92q10 -24 10 -158v-201q0 -42 -6 -71z" />
</svg>
