<?xml version="1.0" standalone="no"?>
<!DOCTYPE svg PUBLIC "-//W3C//DTD SVG 1.1//EN" "http://www.w3.org/Graphics/SVG/1.1/DTD/svg11.dtd" >
<svg xmlns="http://www.w3.org/2000/svg" xmlns:xlink="http://www.w3.org/1999/xlink" version="1.1" viewBox="-10 0 1034 1024">
  <g transform="matrix(1 0 0 -1 0 820)">
   <path fill="currentColor"
d="M959 -116q3 16 12 36q-28 -9 -67 -12q-72 -3 -138 -4q-54 0 -89 5q-48 7 -87 31l-62 37q-16 9 -38 20l3 332q0 15 3 30q-55 -4 -73 -5q-30 1 -62 3q-3 1 -7 2v-46q-3 0 9 1q4 0 9 1q39 1 81 3v-315q-66 -9 -154 -90q30 -21 42 -34q21 31 42 52q34 33 70 34q24 0 61 -24
q99 -64 194 -71q15 -3 88 -3l160 -1zM481 552l-38 62l-31 53l-16 25q-15 -12 -35 -21q1 -4 15 -25q39 -63 58 -95q13 -24 27 -52q18 15 38 24q-9 15 -18 29zM570 635q-57 3 -65 5l-1 1v-47q51 3 87 4h42q-7 -37 -18 -70q-9 -33 -25 -75q-16 -48 -28 -71q-6 -13 -24 -29
q15 -16 23 -34q19 1 40 5q19 0 31 2h89v-159l-188 5q-1 1 -2 1v-47q9 0 18 2l139 3h33q-3 -168 -5 -181h50q-4 19 -5 46l-1 135q148 0 163 -2q10 0 22 -3v47q-39 -6 -90 -6h-95v159h74q25 0 50 -3l15 -2v46q-12 -3 -27 -4l-112 -2v58q0 37 13 67h-57q4 -31 5 -67v-58h-122
q25 66 40 113q15 46 34 124l262 -4v47q-15 -3 -27 -4l-133 -2h-96q3 33 11 58q4 27 10 29q4 7 19 21q-1 0 -4 1q-18 3 -37 9q-7 1 -22 6q0 -9 -5 -51q0 -9 -12 -73h-69zM197 60q-33 -16 -69 -32q-42 -18 -77 -30q12 -18 18 -33l9 -15q31 24 139 75q139 63 158 69l-3 49
q-16 -6 -39 -22q-13 -7 -28 -14t-46 -21q-12 -4 -22 -10v255q63 -1 96 -6v47q-13 -1 -28 -5l-68 -1v237q85 0 99 -4q3 0 11 -1v47q-60 -6 -87 -6l-193 3l-9 3v-47q9 0 18 2l107 3h14v-237q-108 3 -124 6v-47l40 4l84 2v-271z" />
  </g>

</svg>
