<?xml version="1.0" standalone="no"?>
<!DOCTYPE svg PUBLIC "-//W3C//DTD SVG 1.1//EN" "http://www.w3.org/Graphics/SVG/1.1/DTD/svg11.dtd" >
<svg xmlns="http://www.w3.org/2000/svg" xmlns:xlink="http://www.w3.org/1999/xlink" version="1.1" viewBox="-10 0 1034 1024">
  <g transform="matrix(1 0 0 -1 0 820)">
   <path fill="currentColor"
d="M200 105q-106 -30 -159 -31q10 -25 20 -61q37 19 91 38q93 30 163 49q27 7 55 13q1 24 9 53q-39 -18 -68 -27l-73 -23v241l88 -3q4 0 11 -3v47q-24 -4 -69 -5h-30v230l98 -3q3 0 10 -3v47q-19 -4 -68 -5l-197 1q-12 3 -26 3q-3 1 -5 1v-47q4 3 53 6h97v-230l-116 3
q-4 1 -8 1q-3 1 -5 1v-47q4 3 54 6h75v-252zM613 -66q-1 -18 -1 -37l-4 -31h49q-6 30 -6 68v313q39 -63 69 -99q33 -39 77 -80q64 -57 134 -99q10 12 19 19q7 9 31 28q-57 7 -123 55q-105 75 -169 187l220 -1q24 0 40 -5v47q-21 -4 -68 -5h-230v83q0 15 3 29q3 18 18 36h-64
q4 -18 5 -65v-83l-260 3q-3 1 -5 1q-3 1 -5 1v-47q4 3 53 6h185q-36 -54 -71 -96q-33 -39 -89 -90q-45 -39 -70 -54q-24 -13 -70 -28q33 -18 50 -39q12 6 112 89l83 85q48 55 87 109v-300zM397 372q40 36 73 71q33 33 70 78q24 33 61 52l-50 33q-48 -69 -91 -120
q-57 -61 -111 -81zM376 692l4 -41l-3 -102q0 -4 -2 -9h47l-4 43l-1 90h457q-3 -105 -5 -127h47q-3 33 -5 71q0 36 3 74q0 12 2 23q-54 -4 -63 -5l-435 1q-15 3 -43 4q0 -10 1 -22zM676 558q34 -12 107 -68q48 -36 90 -93q12 21 33 38q-30 30 -50 47l-83 69q-18 12 -64 47
q-9 -19 -33 -40v0z" />
  </g>

</svg>
