<?xml version="1.0" standalone="no"?>
<!DOCTYPE svg PUBLIC "-//W3C//DTD SVG 1.1//EN" "http://www.w3.org/Graphics/SVG/1.1/DTD/svg11.dtd" >
<svg xmlns="http://www.w3.org/2000/svg" xmlns:xlink="http://www.w3.org/1999/xlink" version="1.1" viewBox="-10 0 1010 1000">
   <path fill="currentColor"
d="M395 28q24 6 161 6h170q149 0 185 -8v86q-12 -9 -203 -8q-45 53 -123 117q71 74 96 137q93 -64 160 -161q18 18 45 43q31 28 29 30q-1 2 -6 3q-18 4 -40 21q-45 36 -73 60q29 246 168 363q-65 12 -97 43q-108 -153 -125 -371q-11 10 -29 22q-7 4 -9 6q25 90 32 201
q7 107 -10 166q-15 59 -83 89q-47 19 -109 26q-1 -57 -44 -107q96 13 129 -14q53 -39 34 -274q-118 191 -312 314q-22 -44 -79 -72q230 -86 369 -315q-11 -42 -26 -71q-43 50 -87 87q26 42 34 65l-70 42q-6 -28 -22 -62q-32 28 -91 68q-19 -36 -63 -62q63 -15 127 -65
q-12 -20 -35 -52l-9 -12l59 -27q10 14 23 32q10 14 13 19q43 -34 87 -89q-14 -30 -33 -48q-94 56 -167 92q-15 -33 -61 -72q174 -39 311 -174h-75q-133 0 -151 8v-82zM56 60q13 6 115 6h65q105 0 117 -6v77q-9 -6 -111 -6v205q88 0 103 -6v71h-4q-37 -8 -99 -6v232
q74 -26 113 -47q-3 54 4 83q-232 63 -281 96l-1 1q-16 -71 -29 -95q4 -1 18 -3q43 -6 101 -19v-246q-68 0 -104 6v-71q12 3 104 4v-205q-105 0 -111 6v-77z" />
</svg>
