<?xml version="1.0" standalone="no"?>
<!DOCTYPE svg PUBLIC "-//W3C//DTD SVG 1.1//EN" "http://www.w3.org/Graphics/SVG/1.1/DTD/svg11.dtd" >
<svg xmlns="http://www.w3.org/2000/svg" xmlns:xlink="http://www.w3.org/1999/xlink" version="1.1" viewBox="-10 0 1034 1024">
  <g transform="matrix(1 0 0 -1 0 820)">
   <path fill="currentColor"
d="M82 -44q24 18 59 31q147 60 154 62q19 7 39 12q13 4 26 11q1 19 3 32q1 9 4 22q-18 -12 -46 -27q-39 -18 -73 -30v279q90 0 100 -3q4 0 7 -2v46q-18 -4 -68 -5h-39v256q84 0 102 -2q4 0 29 -3v45q-3 0 -5 -1l-112 -4l-158 1q-24 3 -38 4v-46q19 4 40 5l101 1v-256
q-117 3 -129 5v-46q25 4 63 5h66v-293q-30 -13 -66 -25l-48 -14q-15 -3 -35 -6zM565 19q15 15 44 31q-21 12 -38 29l-12 12q-31 -60 -103 -126q-70 -63 -139 -90q27 -12 45 -31q78 48 148 120q27 28 55 55zM496 155l-94 3q-3 0 -10 1q-3 1 -5 1v-46q51 4 64 5l472 -1l42 -4
v46q-24 -4 -69 -5h-68v433q84 0 94 -3q4 0 7 -2v46q-21 -4 -67 -5h-32v75q0 15 3 29q3 19 17 36h-64q4 -15 5 -65v-75h-258v69q0 16 3 30q3 18 17 36h-63q3 -9 3 -13q1 -27 3 -53v-69l-77 2q-3 1 -5 1q-3 1 -6 1q-3 1 -5 1v-46q30 3 66 5h27v-433zM533 466v122h258v-122
h-258zM533 273h258v-118h-258v118zM791 309h-258v121h258v-121zM939 -112q4 6 11 11q-30 30 -86 79q-54 48 -117 98q-15 -18 -31 -39q88 -45 202 -175z" />
  </g>

</svg>
