<?xml version="1.0" standalone="no"?>
<!DOCTYPE svg PUBLIC "-//W3C//DTD SVG 1.1//EN" "http://www.w3.org/Graphics/SVG/1.1/DTD/svg11.dtd" >
<svg xmlns="http://www.w3.org/2000/svg" xmlns:xlink="http://www.w3.org/1999/xlink" version="1.1" viewBox="-10 0 1034 1024">
  <g transform="matrix(1 0 0 -1 0 820)">
   <path fill="currentColor"
d="M454 543h437q-15 -34 -46 -78q19 -3 44 -12q16 30 27 54l36 77q-36 -1 -73 -5h-209v85h151q27 0 50 -3q3 0 15 -2v47q-12 -3 -29 -4l-66 -2h-121v9q0 37 13 67h-57q3 -9 3 -17q1 -28 3 -50v-130l-175 1l-46 4q1 -34 5 -71q0 -261 -3 -311q-1 -7 -2 -17q-12 -81 -39 -142
q-30 -66 -82 -120q-28 -30 -58 -50q31 -10 51 -24q30 31 56 66q57 78 82 143q19 55 27 128q6 84 6 122v235zM739 152v-189q0 -48 19 -65q19 -18 76 -19q33 0 53 4q19 3 37 15q24 16 37 67l16 63q-22 10 -45 33q-3 -90 -21 -116q-18 -24 -77 -25q-24 0 -34 3q-24 7 -25 43
l1 182q0 13 5 43q-31 -1 -64 -5q-84 0 -112 2q-12 3 -42 3q3 -33 3 -53q0 -63 -14 -108q-18 -63 -72 -113q-34 -30 -78 -51q27 -12 44 -32q84 69 117 124q37 66 43 194h133zM495 362q34 9 42 11q12 3 93 15v-62q0 -18 5 -31q9 -24 51 -32q33 -1 69 -3q27 0 52 5q34 9 56 36
q9 12 34 58q-6 3 -12 8q-6 6 -11 9q-6 6 -18 17q-4 -30 -14 -49q-18 -34 -41 -40q-25 -6 -63 -6q-24 1 -48 3q-22 3 -23 38v54q141 18 147 19h25q-3 22 -5 44q-36 -12 -57 -15l-110 -15v30q0 37 13 66h-55q1 -18 2 -16q3 -21 3 -75v-10l-84 -13q-28 -3 -56 -2q1 -21 5 -44z
M192 85q-12 -6 -32 -12l-77 -19q-16 -3 -47 -7q3 -7 11 -20q4 -9 9 -22l3 -12q27 15 76 31l116 39q31 10 63 20q7 1 48 14l3 48q-28 -13 -58 -24q-30 -12 -75 -25v255h57q27 0 50 -3q3 0 15 -2v46q-13 -1 -61 -5h-61v234q96 0 127 -3q3 0 13 -2v47q-54 -6 -77 -6l-198 1
q-9 1 -17 1q-6 0 -16 4v-47q9 0 18 2l110 3v-234q-100 3 -113 5v-46q70 6 110 5h3v-266z" />
  </g>

</svg>
