<?xml version="1.0" standalone="no"?>
<!DOCTYPE svg PUBLIC "-//W3C//DTD SVG 1.1//EN" "http://www.w3.org/Graphics/SVG/1.1/DTD/svg11.dtd" >
<svg xmlns="http://www.w3.org/2000/svg" xmlns:xlink="http://www.w3.org/1999/xlink" version="1.1" viewBox="-10 0 1010 1000">
   <path fill="currentColor"
d="M595 -10q94 5 101 14q1 5 -3 12q-16 24 -28 82h83q144 0 157 -6v75q-30 -9 -151 -8h-97q146 72 226 119q-29 22 -62 64q-53 -56 -198 -123q-61 84 -179 127q-16 -29 -59 -64q148 -26 196 -121h-47q-124 0 -129 6v-73q38 4 127 4h63q11 -82 0 -108zM48 86q6 9 158 10
q127 0 157 -6v77h-4q-39 -8 -119 -8v195q65 0 83 -1q23 0 28 -3v77q-15 -9 -111 -6v234q33 -9 83 -24q30 -9 42 -12q-11 44 -8 80q-239 50 -291 82l-1 1q-12 -64 -27 -89q1 -1 8 -2q42 -2 119 -20v-250q-87 0 -102 6v-77q12 6 102 6v-195q-111 0 -117 6v-81zM950 346v79
q-5 -6 -107 -6v413q14 53 -149 75q-5 -55 -41 -103q121 25 115 -38v-345h-240q-138 0 -159 6v-81q24 8 157 8h248q147 0 176 -8zM690 481q-5 27 -5 132q0 131 5 143h-81l4 -33h-127l2 59h-83q10 -18 10 -155q0 -108 -8 -144q37 5 139 5q99 0 138 -6q5 -1 6 -1zM613 548h-127
v115h127v-115z" />
</svg>
