<?xml version="1.0" standalone="no"?>
<!DOCTYPE svg PUBLIC "-//W3C//DTD SVG 1.1//EN" "http://www.w3.org/Graphics/SVG/1.1/DTD/svg11.dtd" >
<svg xmlns="http://www.w3.org/2000/svg" xmlns:xlink="http://www.w3.org/1999/xlink" version="1.1" viewBox="-10 0 1010 1000">
   <path fill="currentColor"
d="M877 36q-6 30 -6 133v99q0 102 8 147q-35 -8 -169 -8h-127q-120 0 -158 6q6 -55 6 -151v-77q0 -98 -8 -149q2 0 11 1q61 5 131 5h163q91 0 134 -5q10 -1 15 -1zM44 80q40 10 127 10h83q87 0 129 -6v83q-44 -9 -131 -8v203q60 0 107 -6v79q-41 -6 -107 -6v222
q58 -19 117 -41q-5 49 0 79q-243 64 -304 101q-4 -34 -21 -91q1 -1 11 -3q49 -7 124 -29v-238q-74 0 -121 6v-81q51 8 121 8v-203q-101 0 -135 6v-85zM792 106h-288v89h288v-89zM504 256v88h288v-88h-288zM651 437q75 1 93 12q0 2 -4 10q-14 25 -14 53v105q66 -42 141 -119
q59 38 77 66q-1 3 -9 4q-24 3 -48 18q-136 80 -159 97v79q-1 35 9 43q8 10 43 9h33q64 6 72 -97q30 21 83 43q-31 129 -113 125h-101q-104 5 -99 -85v-250q0 -87 -4 -113zM510 453q1 2 -4 8q-14 20 -14 43v44q79 -1 121 -10v79q-30 -6 -123 -5v156q69 -30 117 -65
q-8 41 4 81q-143 55 -200 100q-9 7 -12 5q-8 -35 -32 -75q47 -28 50 -58v-214q0 -31 -1 -73q-1 -19 -1 -26q74 1 95 10z" />
</svg>
