<?xml version="1.0" standalone="no"?>
<!DOCTYPE svg PUBLIC "-//W3C//DTD SVG 1.1//EN" "http://www.w3.org/Graphics/SVG/1.1/DTD/svg11.dtd" >
<svg xmlns="http://www.w3.org/2000/svg" xmlns:xlink="http://www.w3.org/1999/xlink" version="1.1" viewBox="-10 0 1034 1024">
  <g transform="matrix(1 0 0 -1 0 820)">
   <path fill="currentColor"
d="M517 407q1 3 3 8q27 69 32 74q7 13 31 22l-69 28q-3 -31 -16 -71q-15 -40 -44 -102q-57 -123 -128 -184q21 -12 44 -29q72 93 132 219h93q-13 -162 -41 -230q-15 9 -24 16q-57 37 -78 50q-13 -21 -29 -38q60 -22 115 -72q-57 -112 -152 -183q-34 -24 -69 -34
q36 -24 53 -37q48 33 106 96q75 85 113 180q13 39 26 92q9 52 18 134l8 67q-60 -6 -90 -6h-34zM668 408q3 -72 4 -108l1 -353q1 -27 12 -47q9 -15 37 -28q30 -9 83 -10q36 0 73 6q42 7 70 47q15 25 30 78q-24 12 -46 29q-3 -37 -9 -55q-9 -39 -36 -52q-24 -12 -82 -13
q-30 0 -50 4q-22 3 -31 13q-13 13 -14 54v407h127v-223q0 -25 -11 -35q-12 -6 -26 -6q-18 0 -48 9q7 -15 8 -25q1 -18 6 -31q13 0 29 3q43 3 62 21q18 16 18 56l1 223q0 21 4 49q-72 -4 -106 -5q-52 0 -107 5q0 -6 1 -13zM209 34q-9 0 -25 -5l-64 -12q-27 -4 -56 -5h-18
q12 -37 16 -58q33 12 73 23l164 41q51 12 83 22q1 25 4 51q-48 -21 -137 -45v278h51q28 0 50 -3q3 0 15 -2v47q-9 -3 -35 -5l-81 -1v244h59q28 0 50 -3q1 0 16 -2v47q-12 -3 -28 -4q-24 -1 -131 -2l-146 5l-1 1v-47q54 6 86 5h55v-244l-109 3l-9 3v-47q6 0 68 5h50v-290z
M401 518q0 -27 -3 -53q0 -3 -2 -8v-2h47q-6 55 -5 89v39h454l-3 -112q-1 -3 -1 -6q-1 -1 -1 -5h48q0 6 -3 12l-2 89l4 41q0 10 1 22q-66 -4 -93 -5l-397 1q-7 1 -15 2q-16 0 -34 2q1 -31 5 -65v-41zM700 673q-72 66 -108 96q-13 -16 -30 -33q12 -7 87 -74q21 -21 37 -39
q16 18 34 32l-20 18v0z" />
  </g>

</svg>
