<?xml version="1.0" standalone="no"?>
<!DOCTYPE svg PUBLIC "-//W3C//DTD SVG 1.1//EN" "http://www.w3.org/Graphics/SVG/1.1/DTD/svg11.dtd" >
<svg xmlns="http://www.w3.org/2000/svg" xmlns:xlink="http://www.w3.org/1999/xlink" version="1.1" viewBox="-10 0 1034 1024">
  <g transform="matrix(1 0 0 -1 0 820)">
   <path fill="currentColor"
d="M265 374h-133q-24 0 -52 3q-6 0 -12 2v-47q4 3 54 6l297 -1q27 0 39 -4l2 -1v47q-28 -4 -69 -5h-89v124q84 0 116 -3q4 0 12 -4v47q-19 -6 -68 -6h-60v133q108 0 124 -2q12 0 27 -4v46q-24 -4 -69 -5l-263 1q-18 3 -25 3q-3 1 -5 1v-46q4 3 53 6h121v-133l-140 3
q-6 1 -13 3v-47q6 3 13 4q24 1 50 3h90v-124zM432 -56q16 6 33 11l18 8q3 33 9 57q-31 -24 -152 -68l-108 -37v215q225 0 239 -2q6 0 19 -4v47q-24 -4 -67 -5h-191q0 75 3 81q3 18 13 35h-60q4 -19 5 -65v-276q0 -15 -6 -28q-6 -9 -26 -18l8 -12q9 -13 16 -38q36 21 47 25
l155 60q22 7 45 14zM685 375l-163 3q-6 1 -8 2v-46q4 3 53 6l340 -3q3 0 10 -3v46q-21 -4 -68 -5h-126v123q109 0 125 -2q13 0 27 -5v47q-19 -6 -69 -6h-83v133l139 -1q21 0 40 -5v46q-24 -4 -68 -5l-298 3q-3 0 -8 1q-3 1 -5 1v-46q4 3 54 6h108v-133l-98 1q-9 1 -15 1
q-12 1 -25 3q-3 0 -6 1v-47q6 3 12 4q25 1 51 3h81v-123zM603 220q0 16 3 30q3 18 18 35h-64q4 -18 5 -65v-274q0 -34 18 -52q15 -18 65 -24q49 -3 92 -4q55 0 97 9q55 13 83 50q10 15 28 64l6 22q-18 6 -24 12q-3 1 -23 19q-1 -49 -9 -68q-12 -42 -61 -60q-33 -9 -86 -9
q-27 0 -63 2q-57 3 -72 14q-12 10 -13 48v140l112 31l123 36q31 7 60 9q-6 6 -16 23q-7 12 -16 31q-21 -15 -101 -43q-75 -24 -162 -45v69z" />
  </g>

</svg>
