<?xml version="1.0" standalone="no"?>
<!DOCTYPE svg PUBLIC "-//W3C//DTD SVG 1.1//EN" "http://www.w3.org/Graphics/SVG/1.1/DTD/svg11.dtd" >
<svg xmlns="http://www.w3.org/2000/svg" xmlns:xlink="http://www.w3.org/1999/xlink" version="1.1" viewBox="-10 0 1010 1000">
   <path fill="currentColor"
d="M679 -2q10 47 16 89q0 7 1 11h82q100 -1 139 -10q-6 30 -6 91q0 42 8 79h-90q6 -24 6 -95h-369q0 62 8 87h-89q6 -32 6 -81q0 -57 -6 -81q54 9 137 10h93q1 -43 -28 -94zM48 84q22 8 121 8h67q111 0 129 -6v79q-12 -9 -123 -6v197q96 0 107 -6v75q0 2 -22 0
q-46 -4 -85 -4v212q83 -26 129 -45q-9 43 -6 83q-226 54 -304 105q-6 4 -7 4q-1 -8 -11 -46q-10 -39 -13 -53q3 -2 14 -3q48 -6 123 -27v-230q-82 0 -111 6v-77q14 6 111 6v-197q-110 -3 -119 6v-81zM452 284q23 8 145 8h115q108 0 129 -6v79q-38 -7 -125 -7h-115
q-131 0 -149 7v-81zM383 451q45 8 169 8h196q117 0 155 -8v81q-9 -9 -149 -8h-77v294q7 64 -153 81q1 -52 -30 -95q113 20 107 -46v-234h-49q-138 -1 -169 8v-81zM462 570q90 45 84 51q-1 2 -6 3q-22 6 -44 35q-55 74 -147 177q-26 -35 -73 -48q126 -97 186 -218zM772 578
q80 85 161 208l-80 50q-48 -112 -143 -219z" />
</svg>
