<?xml version="1.0" standalone="no"?>
<!DOCTYPE svg PUBLIC "-//W3C//DTD SVG 1.1//EN" "http://www.w3.org/Graphics/SVG/1.1/DTD/svg11.dtd" >
<svg xmlns="http://www.w3.org/2000/svg" xmlns:xlink="http://www.w3.org/1999/xlink" version="1.1" viewBox="-10 0 1034 1024">
  <g transform="matrix(1 0 0 -1 0 820)">
   <path fill="currentColor"
d="M498 462q-24 -39 -45 -60q-15 -16 -54 -47q-103 -78 -219 -125q-55 -19 -122 -30q24 -22 36 -49q18 6 29 11q28 12 58 23l47 21q157 81 268 181q58 -49 121 -89q70 -42 143 -71q72 -27 185 -52q13 27 29 56q-123 0 -245 53q-123 51 -207 132q6 4 21 10zM101 396q7 3 61 6
l247 -1q22 0 34 -4l2 -1v47q-19 -4 -67 -5h-61v109h69q24 0 53 -3q10 -1 16 -4v47q-24 -4 -69 -5h-69v102l115 -1q19 -1 41 -5v45q-19 -4 -69 -5h-222q-48 0 -63 5v-46q6 1 34 6l127 1v-102q-109 0 -122 3q-6 0 -11 1q-3 1 -5 1v-47q6 3 12 4q25 1 52 3h74v-109l-166 3
q-3 0 -7 1q-3 1 -6 1v-47zM296 117q-31 3 -64 5v-47q4 3 54 6h399q-105 -154 -204 -202q39 -19 55 -35q72 72 116 124q69 90 109 154q-72 -4 -104 -5h-361zM471 279q-21 -24 -26 -29q48 -28 63 -40q18 -15 52 -51q9 15 27 33q-39 39 -114 90q-1 -1 -2 -3zM742 689
q138 0 155 -2q13 0 26 -4v47q-19 -4 -69 -5l-284 3q-4 1 -7 1q-3 1 -6 1v-47q9 3 54 6h93v-100l-124 3q-4 0 -8 1q-3 1 -5 1v-47q4 3 54 6h83v-112l-107 1q-16 1 -33 3q-1 0 -5 1v-47q4 3 54 6l293 -1q21 0 40 -5v47q-21 -4 -68 -5h-136v112q112 0 128 -2q13 0 26 -4v47
q-21 -4 -67 -5h-87v100z" />
  </g>

</svg>
