<?xml version="1.0" standalone="no"?>
<!DOCTYPE svg PUBLIC "-//W3C//DTD SVG 1.1//EN" "http://www.w3.org/Graphics/SVG/1.1/DTD/svg11.dtd" >
<svg xmlns="http://www.w3.org/2000/svg" xmlns:xlink="http://www.w3.org/1999/xlink" version="1.1" viewBox="-10 0 1010 1000">
   <path fill="currentColor"
d="M679 -4q17 36 28 103q1 6 1 9h86q79 0 143 -8q-8 22 -8 87q0 37 5 67q1 9 1 12h-94q8 -37 8 -97h-393q-3 51 6 66q78 16 82 25q1 2 -4 7q-22 22 -36 63q89 -1 131 -4q-11 403 -284 573q-15 -24 -65 -62q-4 -3 -6 -5q162 -81 224 -209q-25 -25 -83 -57l43 -60q27 19 54 44
q7 8 10 10q19 -68 30 -171h-74q-50 112 -97 187q-24 -12 -83 -24q107 -130 140 -292h-73q8 -32 8 -75q0 -66 -6 -85q1 -1 7 1q40 7 120 7h127q-5 -61 -36 -102zM50 80q63 8 117 8h65q76 -1 121 -6v77q-31 -8 -109 -8v211q58 0 91 -6v79q-37 -9 -91 -8v232q4 -1 13 -4
q65 -20 106 -34q-7 24 -4 80q-220 52 -289 90q-7 3 -10 3q-4 -39 -24 -93q1 -2 13 -3q51 -2 122 -21v-250q-63 0 -106 6v-75q40 5 106 5v-210q-85 0 -121 8v-81zM653 312q27 3 113 4h44q63 0 91 -10q-9 95 -4 256q4 68 -121 81q-1 -47 -32 -85q75 11 81 -22v-159h-95v342
q-5 82 38 71h65q48 -1 48 -89q35 30 85 43q-25 124 -133 119h-69q-79 2 -89 -17q-18 -13 -16 -102v-267q0 -130 -6 -165z" />
</svg>
