<?xml version="1.0" standalone="no"?>
<!DOCTYPE svg PUBLIC "-//W3C//DTD SVG 1.1//EN" "http://www.w3.org/Graphics/SVG/1.1/DTD/svg11.dtd" >
<svg xmlns="http://www.w3.org/2000/svg" xmlns:xlink="http://www.w3.org/1999/xlink" version="1.1" viewBox="-10 0 1034 1024">
  <g transform="matrix(1 0 0 -1 0 820)">
   <path fill="currentColor"
d="M54 -15q6 -12 10 -28q55 25 95 36q25 9 192 56q1 15 2 27q1 10 4 28q-21 -15 -51 -27q-3 0 -14 -5l-61 -19v269q61 0 78 -2q15 0 27 -4v47q-24 -4 -69 -5h-36v245l112 -3q3 0 10 -3v47q-19 -4 -69 -5l-196 1q-18 3 -37 4v-47q4 3 53 6h89v-245l-86 1q-19 3 -27 3
q-3 1 -5 1v-47q4 3 54 6h64v-279q-45 -12 -79 -21q-31 -6 -72 -11q6 -12 12 -26zM329 120q34 60 63 114q28 58 63 139l-3 -524l-3 -9h49q-4 34 -5 68v439q18 -13 51 -49q15 -15 42 -45q15 18 31 30l-124 117v82q42 0 86 -3q3 0 10 -3v47q-21 -4 -68 -5h-28v173q0 16 3 30
q3 18 17 36h-64q6 -18 6 -66v-173l-129 3q-3 1 -5 1q-3 1 -5 1v-47q15 4 41 5l92 1q-12 -49 -26 -89q-18 -46 -52 -115q-43 -91 -100 -136q24 -3 44 -14q6 -3 14 -8zM724 -92q0 -39 -5 -67h48q-4 30 -5 48v484q51 -150 125 -266q40 -66 43 -71q39 18 65 27q-30 15 -55 44
q-24 27 -63 96q-27 48 -60 132q-28 76 -43 147q129 0 145 -2q12 0 27 -4v47q-24 -4 -68 -5h-116v177q0 16 3 30q3 18 18 36h-64q1 -33 5 -66v-177l-93 3q-3 0 -7 1q-3 1 -5 1v-47q18 6 66 6h36q-3 -30 -12 -61q-9 -34 -28 -82q-49 -136 -115 -234q-18 -27 -31 -42
q-9 -9 -27 -20q15 -3 26 -8q10 -4 27 -14q39 51 93 161q52 112 70 164v-438z" />
  </g>

</svg>
