<?xml version="1.0" standalone="no"?>
<!DOCTYPE svg PUBLIC "-//W3C//DTD SVG 1.1//EN" "http://www.w3.org/Graphics/SVG/1.1/DTD/svg11.dtd" >
<svg xmlns="http://www.w3.org/2000/svg" xmlns:xlink="http://www.w3.org/1999/xlink" version="1.1" viewBox="-10 0 1034 1024">
  <g transform="matrix(1 0 0 -1 0 820)">
   <path fill="currentColor"
d="M823 152q-60 -96 -126 -144q-22 19 -32 30q-12 12 -26 30q-27 36 -33 67q-22 -15 -44 -24q51 -81 103 -125q-48 -36 -102 -61q-81 -36 -143 -44q19 -19 40 -46q30 15 48 21q51 21 77 33l32 16q39 22 82 52q43 -31 109 -65q28 -15 53 -25q27 -10 72 -25q7 15 20 27
q7 10 16 19q-70 9 -120 29q-75 34 -118 64q97 96 169 212q-36 -1 -73 -5h-248q18 45 32 81h285q28 0 52 -3q1 0 14 -2v46q-4 0 -7 -1q-79 -3 -114 -4h-219q1 15 5 21q0 7 5 22q4 18 15 63h228q21 0 50 -4q3 0 15 -2v48q-73 -6 -81 -7h-62q67 114 87 141q21 34 49 43
q-25 10 -61 31q-40 -88 -124 -215h-261l-49 3q-6 0 -16 4v-48q-3 0 9 1q42 3 87 5h86q-9 -57 -24 -106l-184 5v-46q70 6 108 5h63q-24 -72 -55 -123q-63 -100 -117 -155q-31 -31 -54 -51q-24 -18 -46 -31q37 -12 52 -23q42 39 97 101q27 30 52 64q27 37 66 101h261zM563 662
q43 3 106 11q81 10 169 28q49 9 75 10q10 0 31 -2q-31 34 -47 55q-42 -15 -75 -23q-42 -9 -98 -20q-54 -9 -98 -13q-30 -3 -76 -5q-42 -3 -68 -3q-25 0 -60 4q16 -28 26 -51q16 0 33 2q40 4 82 7zM523 462q15 12 35 25q-70 96 -96 127q-21 -15 -34 -24q30 -36 65 -84
q6 -7 30 -44zM636 647q-18 -15 -40 -25q10 -12 22 -28q10 -15 21 -30l41 -70q21 15 40 25q-18 30 -42 66zM218 53q-63 -21 -163 -40q6 -12 5 -9l11 -27q1 -6 5 -14q18 6 39 15l95 30q24 9 88 25q6 0 13 3l94 26l6 51q-24 -10 -55 -20q-37 -12 -98 -29v276h53q27 0 51 -3
q3 0 15 -2v47q-15 -3 -28 -4l-91 -2v262h63q27 0 51 -3q1 0 14 -2v47q-12 -3 -28 -4q-21 -1 -128 -2l-124 1q-30 3 -33 5v-47q54 4 82 5h63v-262h-71q-24 0 -49 2q-6 0 -16 4v-47q51 4 84 5h52v-287z" />
  </g>

</svg>
