<?xml version="1.0" standalone="no"?>
<!DOCTYPE svg PUBLIC "-//W3C//DTD SVG 1.1//EN" "http://www.w3.org/Graphics/SVG/1.1/DTD/svg11.dtd" >
<svg xmlns="http://www.w3.org/2000/svg" xmlns:xlink="http://www.w3.org/1999/xlink" version="1.1" viewBox="-10 0 1010 1000">
   <path fill="currentColor"
d="M558 -15q11 1 32 4q72 6 67 15q0 4 -4 7q-8 6 -6 19q81 137 327 220q-40 34 -55 80q-105 -51 -177 -101v57q-12 -6 -127 -6q-132 -3 -141 6v-44q-53 59 -131 121q-10 -8 -25 -19q-34 -27 -50 -30q217 -131 290 -329zM599 68q-49 77 -105 151h15q51 2 96 2h62q20 0 31 -1
q22 0 28 -3q-71 -65 -127 -149zM48 92q18 6 146 6q114 0 141 -6v81q-11 -9 -101 -6v222q72 0 85 -6v78q-13 -6 -85 -6v236q15 -6 52 -19q32 -12 51 -19q-3 43 2 80q-161 46 -272 97q-5 -29 -29 -92h2q37 1 127 -27v-254q-101 0 -111 6v-78q5 6 111 6v-224q-113 0 -119 6v-81
zM800 352q94 -1 93 6q1 2 -2 8q-10 24 -10 59v407q2 38 -23 51q-23 16 -106 28q-5 -49 -34 -93q100 16 92 -28v-290q0 -122 -10 -148zM494 358q92 0 127 -8q-6 15 -6 144v322q2 43 -20 57q-22 18 -93 30q-1 -40 -26 -79q73 10 72 -30v-83h-111v61q0 74 1 97q0 28 2 38h-79
q8 -33 8 -137v-278q0 -116 -6 -138q27 3 131 4zM669 399q7 0 21 1q63 1 62 7q1 1 -1 7q-9 24 -9 59v125q0 71 1 94q1 30 3 43h-79q8 -26 8 -125v-127q0 -69 -6 -84zM437 413v91h109v-91h-109zM548 560h-111v95h111v-95z" />
</svg>
