<?xml version="1.0" standalone="no"?>
<!DOCTYPE svg PUBLIC "-//W3C//DTD SVG 1.1//EN" "http://www.w3.org/Graphics/SVG/1.1/DTD/svg11.dtd" >
<svg xmlns="http://www.w3.org/2000/svg" xmlns:xlink="http://www.w3.org/1999/xlink" version="1.1" viewBox="-10 0 1034 1024">
  <g transform="matrix(1 0 0 -1 0 820)">
   <path fill="currentColor"
d="M342 -151q39 18 84 42q66 37 108 79q58 61 89 137q34 -69 124 -150q72 -60 182 -120q27 30 57 43q-36 7 -57 15q-75 30 -148 87q-94 75 -129 157h251q27 0 50 -3q3 0 15 -2v46l-36 -4l-91 -1l1 205q1 21 5 43q-66 -4 -101 -5h-99q0 54 4 64q3 13 17 30q-19 4 -50 5
q-9 0 -15 3q3 -36 4 -59l-1 -43l-146 1q-19 3 -50 4q1 -30 5 -62v-186q-82 3 -94 5v-46q27 3 66 5h201q-15 -48 -51 -103q-54 -69 -151 -119q-60 -27 -119 -38q28 -19 47 -45q13 7 28 15zM453 175v207h153q0 -48 -6 -152q-3 -25 -5 -55h-142zM637 175q0 9 4 61q6 108 6 146
h156v-207h-166zM760 625v64q0 36 13 67h-57q1 -10 6 -64v-67h-197v70q0 40 14 67h-58q3 -9 3 -16q1 -30 3 -51v-70q-108 3 -115 5l-1 1v-47q54 4 82 5h34l-4 -88q-1 -1 -2 -5h50q0 3 -6 60v33h197l-4 -85q-1 -1 -2 -5h50q-1 4 -2 7q0 3 -4 59v24q135 0 152 -2l26 -3v47
q-15 -3 -28 -4q-24 -1 -150 -2zM189 42q-106 -33 -148 -40q13 -33 19 -54q24 15 78 33l64 24l116 37q9 3 46 13q0 25 2 50q-37 -15 -76 -30q-34 -12 -61 -20v279l97 -3q3 0 12 -2v46l-28 -4l-81 -1v242h55q27 0 52 -3q1 0 14 -2v47q-54 -6 -77 -6l-190 1q-30 3 -32 5v-47
q-3 0 9 1q4 0 9 1q22 0 47 3h73v-242q-103 3 -115 5v-46q54 4 82 5h33v-292z" />
  </g>

</svg>
