<?xml version="1.0" standalone="no"?>
<!DOCTYPE svg PUBLIC "-//W3C//DTD SVG 1.1//EN" "http://www.w3.org/Graphics/SVG/1.1/DTD/svg11.dtd" >
<svg xmlns="http://www.w3.org/2000/svg" xmlns:xlink="http://www.w3.org/1999/xlink" version="1.1" viewBox="-10 0 1034 1024">
  <g transform="matrix(1 0 0 -1 0 820)">
   <path fill="currentColor"
d="M661 350v-90l-161 3q-4 1 -10 2v-46q54 4 80 5h91q0 -30 -5 -72h48q-1 4 -1 7t-4 50v15l138 -1q15 0 48 -4q-4 48 -5 92v39q58 0 84 -4q1 0 5 -1v47q-12 -3 -29 -4l-60 -2q0 84 2 96q0 16 3 34q-31 -1 -64 -5h-122q0 39 3 45q0 3 2 6q3 3 7 10h-55q1 -24 5 -50v-11
l-161 3q-4 1 -10 2v-46q54 4 80 5h91v-89h-205v210h432q24 0 51 -3l15 -2v47q-12 -3 -28 -4l-134 -2h-95q9 18 26 35q-10 10 -35 28q-54 42 -88 71q-13 -15 -30 -31q45 -33 73 -56q22 -18 48 -47l-230 1q-3 0 -48 5q4 -70 5 -109v-116q0 -118 -17 -220q-21 -130 -81 -222
q-21 -36 -61 -69q13 -3 28 -8q12 -3 25 -12q60 79 99 187q33 106 44 281h206zM699 386v89h143v-89h-143zM699 260v90h143v-90h-143zM531 -158q-3 27 -4 61h330q0 -27 -4 -56h47q-6 51 -5 78l1 168q0 21 4 49q-60 -4 -81 -5l-288 1q-19 3 -46 4q1 -33 5 -67l-1 -196
q-1 -9 -2 -24q0 -3 -2 -13h46zM527 -61v162h330v-162h-330zM198 56q-88 -24 -147 -30q9 -19 21 -51q51 15 68 24q15 6 76 23q9 3 61 16q51 12 80 21q1 24 4 46q-16 -9 -32 -14q-12 -3 -49 -15q-15 -6 -42 -11v274h55q27 0 50 -3q1 0 14 -2v46q-31 -1 -64 -5h-55v247h68
q27 0 50 -3q1 0 16 -2v47q-60 -6 -90 -6l-186 1q-9 1 -17 1q-6 0 -16 4v-47q54 6 89 5h46v-247q-106 3 -118 5v-46q9 0 19 2l99 3v-283z" />
  </g>

</svg>
