<?xml version="1.0" standalone="no"?>
<!DOCTYPE svg PUBLIC "-//W3C//DTD SVG 1.1//EN" "http://www.w3.org/Graphics/SVG/1.1/DTD/svg11.dtd" >
<svg xmlns="http://www.w3.org/2000/svg" xmlns:xlink="http://www.w3.org/1999/xlink" version="1.1" viewBox="-10 0 1010 1000">
   <path fill="currentColor"
d="M571 0q95 12 94 20q-27 5 -62 86h161q97 0 133 -10q-8 59 -8 184q0 147 10 195q-37 -9 -109 -6h-127q-8 35 -16 61q3 0 8 1q78 11 75 17q-24 18 -24 71v137q-1 39 13 46q10 9 69 8q59 0 82 -17q22 -14 31 -64q32 26 79 43q-39 77 -64 88q-26 19 -114 19q-110 3 -134 -10
q-30 -12 -29 -61v-254q-76 216 -272 327q-20 -36 -63 -61q243 -118 287 -351h-105q-1 54 4 69h-87q10 -32 10 -188v-159q0 -26 -7 -82q-1 -6 -1 -9q49 4 129 4q21 -34 37 -104zM484 169v91h125v-91h-125zM683 169v91h134v-91h-134zM607 316h-123v91h115q1 -9 3 -33
q3 -35 5 -58zM679 316q0 30 -6 91h144v-91h-138zM54 102h3q38 4 94 4h164q49 0 74 -6v79q-48 -6 -79 -6h-38v190h43q38 0 74 -3v73q-27 -4 -87 -4h-30v216q82 -18 133 -33q-12 45 -10 83q-224 32 -335 93q-3 -28 -14 -75q-4 -19 -6 -28q49 0 154 -26v-230h-45q-60 0 -89 6
v-77q20 5 87 5h47v-190h-51q-54 0 -89 6v-77zM881 725q-6 -24 -6 -32q-14 4 -39 10q-76 20 -98 28q-10 -44 -30 -68q51 -19 86 -169q84 30 79 42q-2 4 -12 9q-20 8 -26 21q-13 26 -31 65q-10 22 -14 30l75 -10q-9 -34 -22 -53l58 -20q5 13 14 37q21 57 29 88z" />
</svg>
