<?xml version="1.0" standalone="no"?>
<!DOCTYPE svg PUBLIC "-//W3C//DTD SVG 1.1//EN" "http://www.w3.org/Graphics/SVG/1.1/DTD/svg11.dtd" >
<svg xmlns="http://www.w3.org/2000/svg" xmlns:xlink="http://www.w3.org/1999/xlink" version="1.1" viewBox="-10 0 1010 1000">
   <path fill="currentColor"
d="M677 -13q12 62 23 99h76q96 0 157 -10v89q-51 -9 -151 -8h-86v70h68q67 0 123 -4q-6 26 -6 95v42q38 0 61 -6v77q-24 -6 -63 -6v52q0 66 8 87q-27 -9 -121 -8h-74v61h54q76 0 141 -7q-6 44 -6 107v75q0 75 8 113h-91q6 -18 6 -67h-252q1 15 1 36q0 26 3 33h-90
q10 -30 10 -121v-65q0 -50 -8 -111q59 7 119 7h36v-61q-101 -1 -149 8v-79q58 7 149 7v-69h-167q-9 337 -135 484q-49 -33 -103 -45q112 -74 145 -250q18 -89 20 -219q3 -128 -10 -315q42 9 167 10h79q-14 -48 -42 -88zM44 74q47 8 115 8h63q68 0 123 -8v89q-45 -6 -117 -6
v201q73 0 109 -6v85q-28 -8 -109 -8v204q21 -3 115 -37q-15 36 -12 93q-179 41 -277 93q-3 -12 -12 -47q-11 -48 -16 -62q3 -1 10 -1q37 2 115 -17v-222q-66 0 -109 6v-87q46 8 109 8v-203q-78 0 -107 6v-89zM625 155h-169v205h169v-72q-89 -3 -139 6v-75q53 8 139 8v-72z
M694 290v70h114v-70h-114zM694 423v69h114v-69h-114zM550 681v91h254v-91h-254z" />
</svg>
