<?xml version="1.0" standalone="no"?>
<!DOCTYPE svg PUBLIC "-//W3C//DTD SVG 1.1//EN" "http://www.w3.org/Graphics/SVG/1.1/DTD/svg11.dtd" >
<svg xmlns="http://www.w3.org/2000/svg" xmlns:xlink="http://www.w3.org/1999/xlink" version="1.1" viewBox="-10 0 1034 1024">
  <g transform="matrix(1 0 0 -1 0 820)">
   <path fill="currentColor"
d="M775 170q-39 -81 -108 -144q-33 27 -55 52q-21 27 -30 58q-15 -12 -18 -15q-9 -6 -29 -17q39 -43 97 -101q3 -1 7 -6q-81 -51 -142 -74q-69 -22 -121 -28q6 -6 13 -15q19 -24 25 -29l1 -1q4 0 15 5q27 10 54 19q15 3 27 11q13 3 52 23q54 28 109 66q117 -82 273 -112
q9 25 32 51q-15 0 -27 -1q-36 0 -85 14q-24 6 -53 17q-27 9 -54 24q-27 12 -56 35q37 39 67 82q31 48 70 125q-18 -1 -34 -2q-22 -3 -37 -4h-234l29 89l291 -1q9 0 25 -5v48q-15 -1 -29 -4q-18 -1 -37 -3h-242q16 87 19 109h305q0 -48 -2 -71q-3 -3 -3 -16h49q-6 24 -6 48
l6 80q-60 -4 -95 -5h-87q25 48 52 87l29 45q15 18 40 24q-37 16 -61 33q-48 -109 -102 -189l-314 1q-19 3 -44 4q6 -54 6 -90q-1 -27 -6 -41h48q-3 9 -6 53v37h150q-4 -54 -16 -109h-72l-48 4q-6 0 -17 3v-48q4 3 65 6h61q-10 -36 -19 -57q-6 -18 -13 -33q-30 -66 -86 -133
q-76 -85 -138 -104q27 -13 49 -32q120 93 203 237h257zM883 744l-10 15q-46 -15 -101 -26q-90 -15 -174 -24q-117 -9 -160 -9l-58 4q16 -22 30 -47l194 17q126 15 220 30q51 9 65 6q6 0 19 -4q0 1 -14 20q-6 9 -11 18zM488 499q15 12 35 21l-72 108q-18 -10 -36 -19
q31 -37 64 -94q4 -7 9 -16zM621 629q-6 7 -11 15q-18 -12 -35 -21q22 -30 36 -51q12 -22 32 -61l34 21q-12 27 -29 52zM192 91q-63 -18 -78 -22q-33 -7 -51 -10q-7 0 -18 -2q9 -18 21 -51q33 15 75 28l144 46q9 4 89 27l3 50q-45 -21 -145 -55v268h34q21 0 50 -4q1 0 16 -2
v47q-24 -4 -46 -5l-54 -1v239q72 0 102 -3q1 0 11 -2v47q-15 -3 -28 -4l-128 -2l-117 3l-9 3v-47q54 6 79 5h50v-239q-108 3 -116 5q-1 1 -2 1v-47l97 6h21v-279z" />
  </g>

</svg>
