<?xml version="1.0" standalone="no"?>
<!DOCTYPE svg PUBLIC "-//W3C//DTD SVG 1.1//EN" "http://www.w3.org/Graphics/SVG/1.1/DTD/svg11.dtd" >
<svg xmlns="http://www.w3.org/2000/svg" xmlns:xlink="http://www.w3.org/1999/xlink" version="1.1" viewBox="-10 0 1010 1000">
   <path fill="currentColor"
d="M605 0q84 -2 97 8q1 2 -3 7q-16 18 -16 49v121h138v-70q0 -67 -4 -83q80 -2 94 8q1 3 -3 8q-11 19 -11 50v53q0 57 1 74q1 23 3 31q-36 -6 -201 -6q24 30 44 66l-57 30h101q90 0 133 -8v79q-3 0 -9 -1q-29 -7 -120 -7h-70v74h52q80 0 121 -10v75q-3 0 -9 -1
q-23 -5 -116 -5h-48v77h52q54 0 121 -7v73q-27 -6 -119 -6h-54v83h66q82 0 139 -8v80q-71 -7 -135 -8h-304q0 68 9 86l1 1h-93q10 -45 10 -159v-254q-15 20 -35 48q-13 19 -17 24q-43 -34 -75 -46q121 -95 176 -276q-51 -1 -69 4q12 -21 12 -103v-38q-1 -16 -2 -41
q-2 -28 -2 -34q66 1 97 10q-1 2 -5 6q-17 16 -17 48v81h131v-105q0 -42 -4 -78zM44 90q55 8 125 8h67q65 0 121 -8v87q-33 -6 -115 -6v192q66 0 101 -5v83q-29 -6 -101 -6v212q62 -17 121 -41q-11 51 -8 89q-141 40 -282 93q-14 -66 -29 -99q2 0 7 -1q37 -2 118 -19v-234
q-66 0 -107 6v-85q35 6 107 7v-192q-87 0 -125 6v-87zM683 250h-191q53 19 71 34q1 3 -6 7q-26 16 -49 55h153q-17 -51 -40 -74zM488 409v72h167v-72h-167zM488 540v77h167v-77h-167zM488 677v85h167v-85h-167z" />
</svg>
