<?xml version="1.0" standalone="no"?>
<!DOCTYPE svg PUBLIC "-//W3C//DTD SVG 1.1//EN" "http://www.w3.org/Graphics/SVG/1.1/DTD/svg11.dtd" >
<svg xmlns="http://www.w3.org/2000/svg" xmlns:xlink="http://www.w3.org/1999/xlink" version="1.1" viewBox="-10 0 1034 1024">
  <g transform="matrix(1 0 0 -1 0 820)">
   <path fill="currentColor"
d="M343 -95q6 -3 26 -16q39 70 77 146q12 24 33 38q-25 12 -52 29q-13 -42 -23 -66q-9 -21 -23 -46q-24 -42 -53 -78q7 -3 15 -7zM579 422q12 12 23 25h123q-25 -57 -48 -81q-31 27 -62 50q-3 -6 -24 -31q31 -19 60 -47q-39 -33 -80 -54q-36 -13 -66 -14q15 -22 24 -44
q37 13 67 30q34 19 88 59l30 -24q15 -13 40 -39q9 12 11 14q4 6 18 17q-9 7 -18 16l-57 47q24 37 42 68q16 31 36 75l-38 -4q-21 -1 -128 -2q30 48 60 57q-31 19 -53 37q-15 -40 -46 -90q-43 -63 -85 -90q16 -10 34 -31q27 34 49 56zM422 639q1 -34 5 -70l-1 -365
q-3 -15 -4 -43l66 6l347 -1q13 0 49 -5q-3 33 -5 65l1 367l4 46q-30 -1 -62 -5h-209q6 36 18 67q9 28 33 45q-27 7 -67 25q0 -28 -4 -56q-6 -33 -22 -81l-119 3q-3 1 -30 2zM464 202v396h377v-396h-377zM824 -11q-28 6 -48 15q0 -48 -3 -67q-6 -33 -28 -41q-27 -6 -60 -7
h-15q-15 0 -53 3q-31 1 -40 10q-10 9 -11 39v86q0 13 3 32q1 18 11 35h-57l4 -41q0 -147 3 -155q1 -9 9 -18q4 -9 17 -15q27 -12 115 -13q84 0 109 14q24 15 33 69q3 18 8 38zM684 -9q3 0 8 5q15 9 33 16q-19 48 -73 142q-19 -15 -36 -22q18 -27 41 -72q21 -45 27 -69z
M821 96q33 -45 65 -98q15 -24 23 -39l13 -33q16 15 38 26q-28 49 -50 82l-55 83q-15 -10 -34 -21zM397 655q-10 -1 -22 -4h-291q-18 1 -27 4v-46q15 3 31 4l123 1v-248q-109 0 -124 3l-15 3v-47q6 0 13 4l126 2v-251l-122 -23h-33q3 -15 6 -24l6 -30q21 6 37 13q33 10 51 14
q201 42 204 43q15 1 31 4q0 15 5 52q-51 -18 -147 -40v242q100 0 109 -3l2 -1q1 0 12 -2v47q-18 -6 -64 -6h-59v248q124 0 140 -3q6 0 8 -2v46z" />
  </g>

</svg>
