<?xml version="1.0" standalone="no"?>
<!DOCTYPE svg PUBLIC "-//W3C//DTD SVG 1.1//EN" "http://www.w3.org/Graphics/SVG/1.1/DTD/svg11.dtd" >
<svg xmlns="http://www.w3.org/2000/svg" xmlns:xlink="http://www.w3.org/1999/xlink" version="1.1" viewBox="-10 0 1034 1024">
  <g transform="matrix(1 0 0 -1 0 820)">
   <path fill="currentColor"
d="M257 604q102 0 112 -3q3 0 8 -2v46q-24 -4 -68 -5l-226 3q-4 1 -8 1q-3 1 -5 1v-46q19 4 47 5h99v-243l-112 3q-3 0 -6 1t-6 1v-47q4 3 53 6h71v-298l-75 -26q-34 -9 -67 -17q1 -3 3 -7q0 -4 6 -13l11 -33q21 13 63 33q186 70 207 80q0 12 3 27q1 12 4 24
q-36 -21 -75 -36q-10 -3 -19 -8l-20 -7v281l105 -3q3 0 11 -3v47q-24 -4 -71 -5h-45v243zM460 219q-12 0 -63 5l4 -65l-2 -309q0 1 -2 -16h46q-4 57 -5 107v242h161q-12 -30 -34 -69q-21 -39 -34 -57q-9 -13 -28 -29q6 -10 21 -47q19 4 36 10q18 3 39 8l171 19q9 -15 26 -60
q15 15 38 25q-15 31 -31 59q-27 45 -58 105q-12 -10 -38 -22q24 -33 44 -73q-103 -7 -185 -17q19 34 40 75q33 67 37 73h252v-251q0 -28 -13 -40q-12 -9 -52 -9q-37 0 -64 6q7 -24 17 -50q34 1 47 3q48 4 73 19q30 19 30 65v235q0 9 3 31q0 13 2 32q-31 -1 -64 -5h-214
q12 30 30 89l160 -1q16 0 45 -4q-4 54 -5 80l1 117q0 9 6 24q4 10 14 21h-64q4 -15 5 -66v-135h-384v130q0 15 3 29q4 18 18 37h-63q1 -33 5 -66q0 -105 -2 -133q-3 -3 -3 -38q49 4 73 5h149q-9 -36 -29 -89h-159zM593 766l-10 -19q-6 -10 -17 -21q25 -9 61 -34
q33 -21 46 -36q3 -3 15 -16q10 15 13 17q3 6 8 8q1 3 13 10q-51 39 -119 84q-6 4 -10 7zM955 640q-19 -4 -68 -5l-480 3q-3 1 -5 1q-3 1 -5 1v-47q4 3 54 6l463 -1q27 0 39 -4l2 -1v47zM593 397q49 40 72 57l74 -48q30 -21 49 -42q6 18 18 32q3 3 6 9q-10 9 -23 16
q-12 6 -38 22q-22 15 -59 36q34 30 51 46q22 24 53 37q-22 15 -41 35q-40 -57 -96 -98q-87 54 -130 74q-9 -22 -26 -39q40 -9 78 -31q27 -18 49 -29q-12 -12 -50 -40q-28 -18 -48 -29q-15 -7 -35 -15q27 -19 36 -36q21 18 60 43v0z" />
  </g>

</svg>
