<?xml version="1.0" standalone="no"?>
<!DOCTYPE svg PUBLIC "-//W3C//DTD SVG 1.1//EN" "http://www.w3.org/Graphics/SVG/1.1/DTD/svg11.dtd" >
<svg xmlns="http://www.w3.org/2000/svg" xmlns:xlink="http://www.w3.org/1999/xlink" version="1.1" viewBox="-10 0 1034 1024">
  <g transform="matrix(1 0 0 -1 0 820)">
   <path fill="currentColor"
d="M641 28l-260 3q-18 0 -27 3v-47q-3 0 9 1q4 0 10 1q21 0 47 3h221v-98q0 -28 -3 -53q0 -1 -2 -12h49l-2 8q-3 75 -4 110v45h221q27 0 51 -3q3 0 15 -2v47q-54 -6 -66 -6h-221v84q139 0 155 -2q18 0 42 -3q-4 52 -5 105l1 129l4 41q-72 -6 -91 -6l-299 1q-9 1 -50 5
q4 -99 5 -102l-1 -126q-3 -12 -4 -47q57 4 80 5h125v-84zM833 148h-355v80h355v-80zM478 264v76h355v-76h-355zM422 486q-57 3 -62 5q-1 1 -4 2v-48q-3 0 9 1q4 0 10 1q22 0 47 3h475q27 0 51 -3q3 0 15 -2v48q-3 -1 -25 -5l-76 -2h-97q9 15 20 25q22 30 35 41q9 9 32 17
q-24 19 -50 39q-21 -37 -38 -59q-33 -39 -48 -63h-120q10 13 22 25l-108 91l-32 -33q42 -30 53 -40q21 -16 49 -43h-158zM480 670q-24 0 -49 2q-6 0 -16 3v-46q-3 0 9 1q4 0 9 1q21 0 47 3h364q28 0 50 -3q3 0 16 -2v46q-3 0 -8 -1l-2 -1l-164 -3h-27q6 9 12 16l-42 37
l-68 53q-15 -19 -29 -34q39 -27 58 -41q9 -6 35 -31h-195zM195 58q-10 -4 -21 -10q-30 -9 -60 -19q-36 -12 -63 -18q3 -6 7 -17q3 -9 7 -19q3 -4 7 -18q16 10 28 16q12 4 35 15q-1 0 22 8q27 9 79 31l107 37l27 8l3 59q-24 -15 -45 -24q-30 -12 -93 -35v262h41q28 0 50 -3
q3 0 16 -2v46q-4 0 -9 -2l-98 -3v243h58q27 0 50 -3q3 0 15 -2v47q-54 -6 -76 -6l-186 1q-9 1 -17 1q-6 0 -16 4v-47q54 6 88 5h44v-243q-103 3 -113 5v-46q-3 0 9 1q4 0 9 1q21 0 47 3h48v-276z" />
  </g>

</svg>
