<?xml version="1.0" standalone="no"?>
<!DOCTYPE svg PUBLIC "-//W3C//DTD SVG 1.1//EN" "http://www.w3.org/Graphics/SVG/1.1/DTD/svg11.dtd" >
<svg xmlns="http://www.w3.org/2000/svg" xmlns:xlink="http://www.w3.org/1999/xlink" version="1.1" viewBox="-10 0 1010 1000">
   <path fill="currentColor"
d="M510 -4h21q66 -2 64 8q1 5 -4 11q-12 14 -12 39v155h82v-135q0 -41 -4 -74q48 0 59 2q16 1 22 8q2 2 -2 9q-12 17 -12 39v151h44q112 0 153 -8v79q-24 -8 -159 -8h-218q23 45 35 93l-49 16h131q39 -53 47 -107q29 8 84 32q1 2 -7 8q-35 23 -57 69q127 0 169 -8v76
q-4 -11 -165 -10h-81v69h57q135 -1 153 -10v78q-17 -9 -143 -8h-69l-8 71h115q139 0 169 -6v76q-18 -9 -169 -8h-83q107 118 275 119q-43 38 -55 95q-203 -66 -274 -194q-62 131 -286 194q-14 -44 -53 -81q203 -9 270 -135h-38q-135 0 -147 6v-74q30 8 153 8h51l8 -71h-39
q-134 -1 -149 8v-76q26 8 145 8h45v-69h-65q-146 -1 -149 8v-76q1 -1 6 0q42 8 135 8q-17 -57 -42 -85l56 -24q-164 -1 -179 8v-77q18 6 175 6v-119q0 -58 -6 -94zM823 30q75 25 80 38q-2 3 -10 10q-18 13 -28 28q-21 31 -57 87q-27 -22 -56 -28q55 -64 71 -135zM431 34
q1 3 4 10q36 85 41 121l-69 20q-9 -84 -46 -137zM34 94q9 10 147 10q119 0 150 -8v81q-14 -8 -109 -8v204q82 0 99 -6v76q-14 -6 -99 -6v228q62 -23 115 -53q-6 43 4 83q-191 62 -287 117q-11 -35 -29 -83q-2 -5 -3 -8q0 -2 10 -4q47 -7 119 -30v-250q-89 0 -107 6v-76
q12 6 107 6v-204q-108 0 -117 6v-81z" />
</svg>
