<?xml version="1.0" standalone="no"?>
<!DOCTYPE svg PUBLIC "-//W3C//DTD SVG 1.1//EN" "http://www.w3.org/Graphics/SVG/1.1/DTD/svg11.dtd" >
<svg xmlns="http://www.w3.org/2000/svg" xmlns:xlink="http://www.w3.org/1999/xlink" version="1.1" viewBox="-10 0 1010 1000">
   <path fill="currentColor"
d="M554 -17q94 3 89 13q0 4 -4 11q-6 10 -6 19v22h137q81 0 131 -8v72q-36 -9 -133 -8h-137v47h159q95 0 154 -6q-17 48 -59 131q-40 -13 -81 -14q29 -33 47 -57h-220v57l48 -2q62 -3 92 -10q6 -2 9 -2l4 50q-33 -3 -101 4l-50 4q-6 50 36 42h85q44 4 56 -72q36 26 69 33
q3 1 4 1q-23 83 -97 83h-159q-61 0 -62 -37v-46q-95 3 -119 12l-2 -56q37 3 121 0v-61h-142q4 313 -22 449q-20 125 -107 243q-16 -13 -57 -28q-18 -6 -31 -11q103 -71 132 -224q16 -77 18 -192q3 -112 -7 -299q64 8 137 8h74v-73q0 -54 -6 -95zM46 96q55 8 125 8h47
q68 0 115 -8v77q-35 -6 -103 -6v202q65 0 93 -6v80q-25 -8 -93 -8v210q11 -3 56 -22q17 -8 24 -11q0 12 -1 20q-1 26 1 38q1 7 2 25q-172 57 -254 101q-3 -35 -26 -93q1 -1 10 -3q44 -7 111 -29v-234q-66 -1 -101 8v-85q35 9 101 9v-200q-75 0 -107 6v-79zM427 562
q70 -7 170 -75h-39q-74 -1 -110 5v-61q49 8 121 8h207q71 0 119 -6v63q-25 -8 -117 -8h-119l-30 22q50 44 79 98q73 -51 109 -102q6 4 19 13q57 39 49 41q-1 2 -8 5q-30 10 -62 35q27 124 145 178q-40 21 -71 68q-90 -89 -129 -217l-34 26q39 131 -6 199q-40 58 -139 59
q-9 -58 -33 -85q73 10 107 -14q31 -27 18 -109q-88 84 -231 160q-21 -43 -49 -57q165 -59 264 -161q-3 -18 -18 -37q-90 73 -191 127q-11 -20 -49 -52q108 -28 214 -109q-6 -9 -30 -30q1 1 -2 -2q-53 40 -127 73q-9 -35 -27 -55z" />
</svg>
