<?xml version="1.0" standalone="no"?>
<!DOCTYPE svg PUBLIC "-//W3C//DTD SVG 1.1//EN" "http://www.w3.org/Graphics/SVG/1.1/DTD/svg11.dtd" >
<svg xmlns="http://www.w3.org/2000/svg" xmlns:xlink="http://www.w3.org/1999/xlink" version="1.1" viewBox="-10 0 1010 1000">
   <path fill="currentColor"
d="M425 -10q71 3 89 8q1 3 -2 9q-14 22 -14 61h46q42 0 89 -8v79q-33 -8 -83 -8h-52v78q53 0 123 -4q-53 234 -284 319q-19 -35 -67 -65q99 -15 172 -66q-24 -27 -69 -61l52 -40q11 11 36 32q17 15 25 22q35 -49 46 -82h-129q-18 25 -64 70q-29 -24 -65 -32q71 -46 103 -117
q50 18 54 16v-125q0 -53 -6 -86zM657 58q56 8 119 8h37q67 -1 112 -4q-22 119 -90 228q37 27 102 87l-72 58q-31 -43 -83 -91q-91 71 -159 99q56 4 56 10q1 2 -2 5q-12 12 -12 54v80h75q-17 -16 -44 -30q57 -60 80 -103q64 40 67 45q1 2 -5 6q-35 23 -80 82h38q54 0 117 -8
v79q-29 -8 -111 -8h-82q59 87 230 131q-43 37 -67 85q-165 -91 -218 -202v111q0 105 8 127h-94q10 -47 10 -123v-123q-104 147 -254 224q-36 -47 -69 -69q160 -54 242 -159h-36q-77 -1 -119 8v-83q36 9 127 10q-33 -59 -61 -82l65 -35q35 38 64 87l-48 30h89v-80
q0 -36 -6 -71l28 2q-15 -30 -53 -62q82 -18 172 -85q-50 -47 -99 -75l63 -46q51 39 84 67q31 -41 49 -107h-49q-84 1 -121 6v-83zM44 72q41 8 127 8h43q60 0 133 -8v87q-34 -8 -115 -8v201q51 0 93 -8v79q-11 -2 -32 -3q-17 -1 -61 -1v210q20 -8 99 -35q-6 43 0 81
q-188 53 -268 107q-16 -52 -37 -95q2 -1 10 -3q41 -8 121 -33v-232q-71 0 -105 6v-79q39 8 105 8v-205q-66 0 -113 8v-85z" />
</svg>
