<?xml version="1.0" standalone="no"?>
<!DOCTYPE svg PUBLIC "-//W3C//DTD SVG 1.1//EN" "http://www.w3.org/Graphics/SVG/1.1/DTD/svg11.dtd" >
<svg xmlns="http://www.w3.org/2000/svg" xmlns:xlink="http://www.w3.org/1999/xlink" version="1.1" viewBox="-10 0 1034 1024">
  <g transform="matrix(1 0 0 -1 0 820)">
   <path fill="currentColor"
d="M512 484v-117q0 -12 -18 -22q12 -18 22 -37q30 24 37 32q24 18 47 37q9 9 31 23q-3 22 -5 43q-13 -12 -78 -64v105h8q27 0 53 -5v43q-43 -4 -75 -5h-19v86q42 -1 84 -5v43q-4 0 -7 -1q-67 -3 -70 -4h-7v57q0 37 13 67h-55q4 -24 5 -42l1 -82h-59q4 22 12 37q6 18 23 30
q-12 4 -17 5q-9 3 -31 14q-16 -82 -60 -156q15 -1 38 -10q3 12 14 33q3 6 8 14h72v-86q-138 3 -148 5v-43q-3 0 9 1q3 0 8 1q39 1 81 3q-6 -61 -23 -97q-28 -58 -85 -87q27 -15 39 -29q45 39 70 82q12 25 22 52q9 30 16 79h44zM347 -118q21 -21 33 -43q49 19 100 47
q91 52 124 98q43 57 60 150q6 39 24 59q-37 1 -63 8q1 -22 2 -38q0 -63 -33 -125q-27 -48 -74 -84q-51 -36 -105 -56q-34 -12 -68 -16zM441 74q-1 -16 -1 -35q0 -9 -5 -29h49q-1 4 -2 7t-4 57v171h333q0 -207 -3 -222q-1 -3 -2 -9h49q-4 19 -5 46l-1 161l6 65q-34 -1 -69 -5
l-304 1q-3 0 -47 4q6 -63 6 -85v-127zM636 312q9 -4 21 -12q30 27 57 72q18 34 33 113h46v-111q0 -37 31 -53q16 -7 51 -8q48 0 68 18q13 15 30 73q-6 1 -9 4t-7 5q0 -3 -7 5q-4 1 -7 4l-12 6q0 -42 -6 -56q-7 -21 -47 -22q-18 0 -28 4q-21 6 -21 34v97h41q30 0 50 -3
q3 0 15 -2v44q-15 -3 -28 -4l-111 -2v89h49q43 0 66 -5v44q-12 -3 -28 -4q-24 -1 -87 -2v55q0 37 13 67h-55q1 -10 6 -64v-58h-61q15 52 41 65q-18 3 -52 16q-9 -36 -25 -83q-12 -31 -37 -74q16 -1 29 -3q6 0 13 -2q12 37 19 47q0 1 1 1h72v-89q-120 3 -128 5l-1 1v-44
q54 4 77 5q-3 -55 -20 -89q-24 -45 -77 -74q12 -4 25 -10zM673 -11l93 -53q33 -21 57 -35q21 -13 39 -26l36 -28q12 19 21 39l-226 138q-9 -18 -20 -35zM188 46q-39 -15 -47 -15q-63 -18 -73 -20q-1 0 -15 -2q10 -24 20 -49q117 45 129 49q90 33 142 49q1 3 26 8q0 27 2 53
q-67 -34 -144 -61v282l97 -3q3 0 12 -2v47q-54 -6 -78 -6h-31v262h53q27 0 51 -3l15 -2v46q-4 0 -7 -1q-3 0 -5 -1l-107 -3l-171 5v-46q7 0 17 2l110 3h4v-262l-109 3l-9 3v-47q9 0 18 2l100 3v-294z" />
  </g>

</svg>
