<?xml version="1.0" standalone="no"?>
<!DOCTYPE svg PUBLIC "-//W3C//DTD SVG 1.1//EN" "http://www.w3.org/Graphics/SVG/1.1/DTD/svg11.dtd" >
<svg xmlns="http://www.w3.org/2000/svg" xmlns:xlink="http://www.w3.org/1999/xlink" version="1.1" viewBox="-10 0 1010 1000">
   <path fill="currentColor"
d="M766 6q63 58 71 92q-2 4 -23 2q-19 -3 -30 -2q-50 5 -88 8q4 518 266 684q-34 24 -85 79q-256 -243 -262 -754q-22 3 -65 9l-66 9q-6 184 -12 450q-3 110 -4 157l105 -25q-25 -66 -49 -103l67 -32q62 95 117 240l-83 32l-22 -80q-163 47 -226 76l-40 -78q33 -19 39 -27
q9 -8 11 -30q8 -35 18 -574l-153 10q1 18 2 54q32 444 -117 688q-47 -30 -101 -29q81 -86 116 -244q17 -79 22 -176q6 -96 1 -221q-1 -21 -5 -74q-3 -39 -5 -61q390 -6 601 -80z" />
</svg>
