<?xml version="1.0" standalone="no"?>
<!DOCTYPE svg PUBLIC "-//W3C//DTD SVG 1.1//EN" "http://www.w3.org/Graphics/SVG/1.1/DTD/svg11.dtd" >
<svg xmlns="http://www.w3.org/2000/svg" xmlns:xlink="http://www.w3.org/1999/xlink" version="1.1" viewBox="-10 0 1034 1024">
  <g transform="matrix(1 0 0 -1 0 820)">
   <path fill="currentColor"
d="M79 -43l103 68v-97q0 -25 -16 -49l27 -45q24 30 63 62q36 34 74 61q-3 7 -9 46q-15 -19 -28 -31q-9 -9 -74 -69v156q18 12 36 28l58 51q198 0 207 -2q12 0 18 -4l1 -1v41q-19 -3 -23 -4l-120 -1v62l96 -3q4 0 7 -3v39q-9 -3 -23 -3l-80 -2v61q78 0 98 -2q10 -1 22 -4v39
q-19 -3 -23 -4l-97 -1v70q60 0 97 -4q4 0 12 -1q-6 48 -6 74l6 68q-55 -4 -88 -5q-46 0 -71 2q-3 1 -5 1q-9 0 -26 2q1 -13 3 -27q3 -18 3 -70q-6 -42 -6 -44q19 3 47 4v-70h-132v66q28 0 52 -5q-4 42 -5 65q1 39 5 80q-43 -4 -76 -5q-73 0 -101 4q-4 1 -6 1q3 -78 4 -113
q-3 -3 -3 -24q-1 -4 -1 -9q57 6 88 6h10v-66q-96 0 -111 3l-13 2v-39q4 3 53 6h71v-61l-82 2l-16 3v-39l39 5l59 1v-63h-86q-46 0 -65 5v-39q24 6 44 6h176q-45 -39 -80 -65q-30 -22 -71 -46q-34 -19 -82 -33l18 -12q15 -12 14 -10q3 -1 14 -15zM137 439v81h107v-81h-107z
M230 166v63h132v-63h-132zM230 257v61h132v-61h-132zM354 440v81h111v-81h-111zM541 635q-19 -3 -23 -4l-440 1q-3 1 -4 1q-3 0 -12 2v-40q1 0 38 5l378 1q21 0 50 -3q9 0 13 -3v40zM254 751q-9 7 -16 14q-7 -10 -29 -30q69 -63 99 -102q15 13 34 32q-12 9 -88 86zM426 47
q30 28 62 47q-16 15 -34 34q-36 -48 -76 -90q-33 25 -62 50q-13 -18 -29 -32q105 -61 172 -133q15 21 28 33l-89 65q13 13 28 26zM615 614q33 4 66 7v-647q0 -27 -19 -48l19 -47q6 10 37 23q15 6 29 13q15 9 22 12q24 9 45 20q15 -25 27 -57q18 10 38 21q0 3 -3 8
q-36 63 -61 114q-3 10 -10 21q-18 -9 -36 -17q18 -28 32 -60l-87 -34v682l90 9q0 -231 3 -282q0 -15 2 -31q9 -111 35 -206q19 -67 33 -100q21 -51 38 -81q15 -30 38 -69q15 12 21 17q12 7 25 17q-21 15 -36 40q-33 46 -59 111q-55 141 -63 301l-3 218l2 70q63 6 80 7
q4 0 12 -1l-25 58q-45 -18 -85 -27q-54 -9 -107 -16q-45 -6 -80 -8q-24 -1 -49 -3q-3 0 -11 -1q6 -66 6 -87v-278q0 -106 -19 -186q-28 -117 -81 -189q-25 -34 -51 -47q25 -9 56 -24q30 45 56 94q51 103 62 196q10 84 11 152v335z" />
  </g>

</svg>
