<?xml version="1.0" standalone="no"?>
<!DOCTYPE svg PUBLIC "-//W3C//DTD SVG 1.1//EN" "http://www.w3.org/Graphics/SVG/1.1/DTD/svg11.dtd" >
<svg xmlns="http://www.w3.org/2000/svg" xmlns:xlink="http://www.w3.org/1999/xlink" version="1.1" viewBox="-10 0 1034 1024">
  <g transform="matrix(1 0 0 -1 0 820)">
   <path fill="currentColor"
d="M125 682h234q24 0 64 -5v46q-39 -4 -64 -5h-219q-7 0 -32 3q-12 0 -29 2l6 -59l-1 -651q-4 -19 -5 -41v-4q36 6 59 6l288 -1q16 -1 31 -5v47q-39 -4 -63 -5h-269v672zM453 139l-112 197l57 128q24 58 29 67q3 9 22 30q-24 9 -51 22l-12 -37q-9 -37 -22 -67l-46 -109
l-112 175q-9 -10 -14 -14q-6 -6 -21 -15q55 -64 127 -185q-46 -90 -88 -151q-28 -36 -74 -78q18 -6 46 -23q45 58 74 104q28 45 65 110q36 -58 57 -99q18 -37 38 -83q10 9 24 20q6 4 13 8zM937 726q-28 -4 -62 -5h-350q-42 0 -63 5v-46q3 3 47 5h49l-66 -742q-3 -25 -28 -43
q21 -24 36 -45q43 42 110 87l50 33l30 21l-4 48q-13 -13 -41 -34l-114 -80l44 506h214q-13 -247 -15 -277l-7 -134q-1 -40 -3 -69q0 -54 36 -65q21 -4 50 -5q15 0 42 5q30 6 51 42q9 21 24 65q-28 15 -44 27q-1 -30 -6 -51q-9 -34 -28 -44q-15 -7 -39 -8q-24 0 -36 7
q-10 6 -11 31l3 86l16 297q6 114 9 127q0 4 1 7q-49 -4 -59 -5h-194l19 213l307 -1q19 0 32 -4v46zM637 308q-15 -9 -21 -15q-6 -3 -13 -8q60 -78 96 -147q18 15 33 23z" />
  </g>

</svg>
