<?xml version="1.0" standalone="no"?>
<!DOCTYPE svg PUBLIC "-//W3C//DTD SVG 1.1//EN" "http://www.w3.org/Graphics/SVG/1.1/DTD/svg11.dtd" >
<svg xmlns="http://www.w3.org/2000/svg" xmlns:xlink="http://www.w3.org/1999/xlink" version="1.1" viewBox="-10 0 1010 1000">
   <path fill="currentColor"
d="M478 -10q92 16 97 28q0 3 -8 8q-32 23 -61 68h236q63 0 137 -7q11 -1 16 -1q-13 30 -35 82q-22 51 -35 82q-30 -16 -85 -21q18 -27 44 -74h-153q24 160 270 185q-36 41 -52 83q-216 -54 -252 -192q-18 125 -250 200h466q66 0 118 -7q3 -1 4 -1v79q-37 -9 -122 -8h-482
l-14 72h256q105 0 141 -8q-11 73 -18 208q-2 34 7 41q9 9 47 9q53 2 66 -20q14 -15 29 -109q32 48 86 63q-35 107 -62 120q-15 11 -41 15q-22 3 -84 2q-86 -1 -107 -15q-24 -13 -20 -60q1 -12 2 -43q5 -83 8 -142h-319q-24 108 -42 181q53 -9 134 -24q41 -7 66 -12
q-14 36 -12 76q-164 22 -279 59q-5 -20 -24 -65q-6 -12 -8 -18q48 -5 59 -54q16 -66 49 -249q3 -18 5 -27h-101q-47 0 -103 8v-79q36 8 105 8h172q-12 -40 -49 -68q250 -33 276 -208h-94q-13 18 -39 49q-15 18 -24 29q-32 -31 -64 -42q86 -75 143 -201zM137 32q30 10 138 52
q27 10 42 16l-47 69q-83 -50 -177 -73zM308 209q7 32 19 71q-140 63 -222 109q-8 -33 -45 -81q82 -9 248 -99zM377 637q127 59 200 88l-37 73q-83 -59 -199 -95z" />
</svg>
