<?xml version="1.0" standalone="no"?>
<!DOCTYPE svg PUBLIC "-//W3C//DTD SVG 1.1//EN" "http://www.w3.org/Graphics/SVG/1.1/DTD/svg11.dtd" >
<svg xmlns="http://www.w3.org/2000/svg" xmlns:xlink="http://www.w3.org/1999/xlink" version="1.1" viewBox="-10 0 1010 1000">
   <path fill="currentColor"
d="M254 4l54 18q53 16 47 18q-1 2 -4 4q-19 13 -43 52q98 84 182 166q-43 26 -75 60q-26 -59 -139 -167q-101 174 -187 254q-30 -45 -61 -65q162 -122 226 -340zM425 82q16 3 107 8q20 1 30 2h232q0 -1 37 -3q75 -3 92 -7v89q-43 -7 -129 -8h-201l-10 121h131q55 0 143 -6
q-23 202 -44 466q-8 81 30 72q26 2 32 -14q8 -12 20 -81q36 40 79 47q-26 92 -47 107q-17 20 -88 18q-80 2 -94 -26q-10 -14 -12 -42q-2 -25 3 -85l28 -388h-189l-27 390q71 -41 137 -89q4 67 13 93q-102 49 -230 135l-43 -83q31 -11 40 -33q9 -14 13 -84l38 -518
q-72 0 -91 6v-87zM294 264q15 35 43 131l-79 16q-16 -83 -40 -125zM675 417q3 10 9 34q23 87 36 141l-75 18q-6 -86 -42 -179zM85 439q30 5 109 8h129q96 0 141 -6q-34 74 -117 224q-27 50 -39 72q47 58 69 89l-89 49q-44 -118 -177 -254l76 -39l75 97l81 -165h-151
q-69 1 -107 6v-81z" />
</svg>
