<?xml version="1.0" standalone="no"?>
<!DOCTYPE svg PUBLIC "-//W3C//DTD SVG 1.1//EN" "http://www.w3.org/Graphics/SVG/1.1/DTD/svg11.dtd" >
<svg xmlns="http://www.w3.org/2000/svg" xmlns:xlink="http://www.w3.org/1999/xlink" version="1.1" viewBox="-10 0 1010 1000">
   <path fill="currentColor"
d="M371 12q98 23 103 34q1 2 -5 4q-23 8 -36 34q-14 25 -43 74q-17 29 -25 43h32q51 0 91 -8v79q-16 -3 -32 -3q-12 -1 -51 -1v173q74 1 99 -8v83q-30 -8 -99 -8v262q-1 70 8 97h-86q9 -24 8 -97v-262h-83q-12 230 -121 367q-41 -27 -85 -41q124 -86 137 -326h-40
q-49 0 -89 8v-83q2 0 6 1q36 7 83 7h42v-171q-60 0 -100 6v-83q30 9 100 8h121q45 -109 65 -189zM200 24q23 53 72 129l-76 28q-26 -76 -63 -129zM474 64q5 1 14 2q41 6 99 6h213q71 0 117 -8v85q-27 -8 -113 -8h-183q-3 58 -8 115h119q73 0 119 -6q-7 82 -26 387
q-3 42 -4 64q-5 69 -2 79q2 15 22 14q22 1 30 -22q8 -18 12 -89q34 48 75 54q-17 82 -34 105q-17 28 -53 27q-51 0 -77 -4q-37 -5 -45 -24q-10 -17 -5 -77q7 -96 16 -278q5 -101 8 -162h-157q-2 20 -9 122q-13 218 -23 304q75 -49 123 -97q-2 41 14 91q-84 50 -181 131
q-5 4 -7 6q-6 -1 -15 -19q-16 -32 -37 -54q38 -20 40 -85q11 -144 34 -582q-43 -1 -76 6v-83zM252 268v173h83v-173h-83zM706 393q8 102 22 193l-75 8q3 -109 -16 -195z" />
</svg>
