<?xml version="1.0" standalone="no"?>
<!DOCTYPE svg PUBLIC "-//W3C//DTD SVG 1.1//EN" "http://www.w3.org/Graphics/SVG/1.1/DTD/svg11.dtd" >
<svg xmlns="http://www.w3.org/2000/svg" xmlns:xlink="http://www.w3.org/1999/xlink" version="1.1" viewBox="-10 0 1034 1024">
  <g transform="matrix(1 0 0 -1 0 820)">
   <path fill="currentColor"
d="M103 361q-25 1 -51 3q-3 1 -8 3v-47q39 4 59 5l361 -1q4 0 37 -4v47q-21 -1 -44 -5l-120 -1l44 83q21 45 29 53q7 10 29 23q-10 6 -21 10q-22 12 -39 23q-21 -85 -83 -192h-193zM462 612q-9 0 -23 -4l-76 -2l-285 3l-9 3v-47q39 4 61 5l296 -1q19 0 36 -4v47zM113 -91
q0 -39 -5 -59h47q-1 3 -1 5q0 3 -4 56v31h234l-4 -71q0 -3 -1 -5h48q-1 3 -1 5q-1 3 -4 55l1 262l4 42q-16 -1 -29 -2q-18 -3 -25 -3l-228 1q-3 1 -37 4q1 -28 5 -58v-263zM150 -22v211h234v-211h-234zM159 539q-15 -12 -34 -24q51 -66 75 -122q19 9 37 21q-12 22 -23 39
q-34 51 -55 86zM299 686q-15 13 -28 27l-49 46q-12 -15 -28 -31l59 -52q18 -18 57 -60q12 15 29 30zM616 661l284 -1q18 0 38 -3q3 -1 8 -3v48q-52 -6 -64 -7l-394 2q-6 0 -16 5v-48q16 6 46 7h61l-54 -712q-3 -30 -25 -44l28 -55q10 6 21 14q63 48 102 76q39 27 79 52
q-3 19 -8 43q-51 -37 -87 -62q-33 -22 -73 -47l36 492h222q-21 -453 -22 -490q0 -16 6 -27q3 -13 22 -21q18 -9 50 -9q36 0 56 10q25 10 37 47q3 7 12 62q-21 3 -48 21l-2 -70q-6 -19 -21 -27q-18 -4 -24 -5q-9 0 -33 3q-13 3 -16 18q-1 9 -1 16l20 463q0 24 8 50
q-18 -1 -24 -2q-18 -3 -26 -3h-214zM648 305q-9 -6 -16 -10q48 -75 81 -144q3 1 7 5l26 16q-9 19 -21 41l-49 83q-6 9 -12 20q-9 -4 -16 -11v0z" />
  </g>

</svg>
