<?xml version="1.0" standalone="no"?>
<!DOCTYPE svg PUBLIC "-//W3C//DTD SVG 1.1//EN" "http://www.w3.org/Graphics/SVG/1.1/DTD/svg11.dtd" >
<svg xmlns="http://www.w3.org/2000/svg" xmlns:xlink="http://www.w3.org/1999/xlink" version="1.1" viewBox="-10 0 1034 1024">
  <g transform="matrix(1 0 0 -1 0 820)">
   <path fill="currentColor"
d="M369 655q88 0 105 -2q7 0 22 -4v47q-33 -1 -65 -5l-362 3q-4 0 -13 2v-47q12 4 30 5l123 1v-124q-58 0 -75 2q-3 0 -46 4q6 -66 6 -95q0 -108 -2 -136q-1 -1 -1 -6q0 -18 -3 -30q15 3 56 4l291 1q30 -1 60 -5l-7 71l1 142l4 30q0 12 2 24q-60 -6 -78 -6h-48v124zM209 311
h-78v185h78v-185zM247 531v124h84v-124h-84zM247 311v185h84v-185h-84zM369 311v185h82v-185h-82zM501 -35q0 6 1 12q0 12 3 28q-34 -21 -104 -35q-60 -9 -86 -17v153q138 0 152 -2q12 0 25 -3v46q-33 -1 -65 -5h-112v38q0 18 3 35q1 15 13 30h-59q4 -45 5 -85v-18l-181 5
v-46q60 6 104 5h77v-160l-137 -24q-39 -4 -77 -7q12 -31 17 -55q36 12 86 24l224 45q66 10 110 21q0 7 1 15zM645 662q261 0 289 -3q4 0 11 -2v46q-33 -1 -65 -5l-357 5v-46q24 3 41 4l40 1l-48 -706q-3 -51 -27 -69q13 -15 27 -43q12 13 46 42q109 93 119 99q1 1 3 2
q-3 30 -4 58q-18 -24 -54 -56q-34 -30 -74 -60l37 511h168l-17 -475q0 -27 5 -42q15 -39 80 -39q37 0 62 12q21 12 35 54l14 51q-24 9 -45 26q-1 -30 -5 -47q-1 -13 -5 -24q-9 -31 -50 -32q-42 0 -50 27q-3 6 -4 19l17 434q0 18 5 77q-60 -6 -82 -6h-127zM753 197
q-18 31 -34 63l-44 71q-13 -16 -36 -26q15 -18 34 -50l37 -67q4 -12 12 -29l28 20q4 3 11 4l-8 14v0z" />
  </g>

</svg>
