<?xml version="1.0" standalone="no"?>
<!DOCTYPE svg PUBLIC "-//W3C//DTD SVG 1.1//EN" "http://www.w3.org/Graphics/SVG/1.1/DTD/svg11.dtd" >
<svg xmlns="http://www.w3.org/2000/svg" xmlns:xlink="http://www.w3.org/1999/xlink" version="1.1" viewBox="-10 0 1010 1000">
   <path fill="currentColor"
d="M306 8q9 24 33 105l-79 20q-12 -56 -36 -105zM909 64v87q-43 -6 -135 -6h-139l-8 123h135l99 -6q-23 193 -40 496q-6 58 26 52q19 1 25 -16q6 -14 9 -71q47 36 87 37q-17 89 -38 110q-18 23 -81 21q-77 1 -93 -24q-20 -21 -12 -113l26 -418h-149l-24 414q57 -47 103 -95
q2 6 5 17q13 47 21 66q-164 119 -196 151q-23 -43 -50 -79q29 -16 36 -37q8 -19 12 -88l34 -540q-25 0 -75 4q-18 2 -21 2v-85q71 8 127 8h177q81 -1 139 -10zM359 227q79 19 87 29q-1 4 -7 12q-27 33 -64 111h26q67 -1 97 -6v80q-67 -8 -127 -8h-200q-79 2 -119 10v-82
q21 5 117 8h141q25 -51 49 -154zM212 235q16 28 46 111l-70 17q-26 -68 -49 -109zM690 407q42 110 52 163l-67 20q-16 -90 -50 -163zM452 516q-5 38 -6 103v100q1 88 6 129h-81q0 -10 2 -28q2 -21 2 -36h-175q0 60 4 99h-83q6 -41 8 -131v-125q0 -60 -1 -79q-1 -24 -3 -34
q24 3 117 6h99q57 0 111 -4zM375 584h-175v137h175v-137zM454 213q-39 -5 -115 -6h-145q-7 1 -33 2q-63 2 -82 6v-80q11 1 54 4q35 2 57 4h133q81 0 131 -8v78z" />
</svg>
