<?xml version="1.0" standalone="no"?>
<!DOCTYPE svg PUBLIC "-//W3C//DTD SVG 1.1//EN" "http://www.w3.org/Graphics/SVG/1.1/DTD/svg11.dtd" >
<svg xmlns="http://www.w3.org/2000/svg" xmlns:xlink="http://www.w3.org/1999/xlink" version="1.1" viewBox="-10 0 1010 1000">
   <path fill="currentColor"
d="M179 44h210q78 0 105 -6v74q-19 -5 -97 -4h-16v99h52q46 0 79 -4q0 5 -1 16q-5 47 -5 77v83q0 51 1 69q1 23 3 35q-34 -7 -115 -8h-224q-81 3 -100 6q5 -62 6 -110v-81q-1 -22 -3 -54q0 -18 -1 -35q12 3 86 6h47v-99h-29q-105 3 -117 7v-79q12 1 67 5q32 2 52 3zM516 38
q36 6 125 6h153q112 -3 133 -8v85q-44 -5 -129 -6h-145l-10 133h119q72 -3 99 -6q-15 162 -26 431q-1 28 -2 42q-4 68 0 76q2 14 20 11q21 0 27 -15q7 -12 17 -76q30 31 81 43q-29 88 -50 106q-20 22 -79 21q-68 1 -84 -22q-18 -20 -13 -101l22 -446h-137l-40 442
q51 -35 91 -77q6 33 24 79q-123 82 -174 131q-12 -24 -54 -67q2 -1 6 -4q33 -22 38 -83l53 -618q-47 0 -65 6v-83zM266 108v99h55v-99h-55zM381 266v149h61v-149h-61zM141 266v149h65v-149h-65zM266 266v149h55v-149h-55zM712 397q8 55 23 141q6 35 9 50l-71 6
q5 -94 -28 -191zM242 488q100 7 99 12q0 3 -4 9q-18 22 -18 65h62q45 -1 97 -12v81q-26 -6 -99 -6h-60v98q110 -13 165 -30q0 4 -1 12q-3 32 -5 65q-314 48 -411 74q-8 -49 -23 -98q23 4 79 0q59 -4 125 -14v-107h-48q-8 1 -41 2q-58 2 -74 4v-79q27 6 107 10h56
q0 -62 -6 -86z" />
</svg>
