<?xml version="1.0" standalone="no"?>
<!DOCTYPE svg PUBLIC "-//W3C//DTD SVG 1.1//EN" "http://www.w3.org/Graphics/SVG/1.1/DTD/svg11.dtd" >
<svg xmlns="http://www.w3.org/2000/svg" xmlns:xlink="http://www.w3.org/1999/xlink" version="1.1" viewBox="-10 0 1034 1024">
  <g transform="matrix(1 0 0 -1 0 820)">
   <path fill="currentColor"
d="M103 386q13 42 29 82l12 37h112v-197h-81q-45 0 -63 5v-46q34 4 63 5h81v-239q-54 -21 -95 -35q-37 -12 -83 -23q12 -21 22 -48l130 56l197 74q3 24 9 51q-63 -31 -142 -59v223q94 0 113 -3q3 0 9 -2v46q-43 -4 -79 -5h-43v197q105 0 118 -2q9 0 20 -3v46q-58 -4 -93 -5
h-45q0 180 3 186q1 13 11 28h-58q3 -18 6 -59v-155h-105l20 63q9 33 27 47q-30 7 -59 18q-3 -54 -31 -152q-27 -84 -54 -120q39 -6 49 -11zM390 -133l11 -11q46 28 70 45q16 10 34 25q75 57 114 127q13 25 22 50q9 30 23 84l235 3q-10 -174 -15 -204q-1 -1 -1 -5
q-7 -48 -48 -57q-24 -6 -60 -7q-10 0 -53 5q9 -19 18 -50q97 9 117 15q36 13 49 36q12 21 17 88l10 140q1 27 12 78q-10 0 -61 -5l-217 -3q3 45 7 60q3 22 24 32q-34 6 -65 21q0 -43 -2 -71q0 -21 -3 -42l-119 -1q-40 0 -74 7l3 -49q10 3 50 8l135 1q-25 -147 -156 -243
q-51 -34 -110 -49q18 -12 32 -26zM484 398l-4 -43q-1 -9 -1 -19q49 4 81 5l309 -1q15 0 43 -4q-3 30 -5 62l1 272q0 16 4 45q-30 -1 -61 -5l-328 1q-19 3 -44 4q1 -30 5 -63v-254zM521 377v128h155v-128h-155zM521 541v133h155v-133h-155zM714 377v128h155v-128h-155z
M714 541v133h155v-133h-155z" />
  </g>

</svg>
