<?xml version="1.0" standalone="no"?>
<!DOCTYPE svg PUBLIC "-//W3C//DTD SVG 1.1//EN" "http://www.w3.org/Graphics/SVG/1.1/DTD/svg11.dtd" >
<svg xmlns="http://www.w3.org/2000/svg" xmlns:xlink="http://www.w3.org/1999/xlink" version="1.1" viewBox="-10 0 1010 1000">
   <path fill="currentColor"
d="M542 -10l16 98h261q68 -1 104 -4q-3 20 -4 73v6q0 61 8 87h-98q9 -39 10 -99h-674q-2 64 8 107h-96q7 -28 8 -105v-2q0 -31 -6 -67q29 3 92 4h305q-11 -42 -30 -92zM514 157q43 51 79 107l-67 32q-22 -48 -76 -109zM337 187q94 9 94 18q0 1 -4 4q-20 17 -20 43v48
q-4 31 43 34q18 1 49 2q28 1 51 0q42 -1 53 -6q20 -8 32 -68q33 26 73 42q-33 89 -77 91q-27 3 -118 4q-85 1 -118 -2q-55 -9 -54 -61v-82q0 -49 -4 -67zM726 193q57 43 149 131l-67 51q-62 -88 -137 -138zM222 209l78 31q-61 111 -108 155l-71 -35q69 -59 101 -151z
M173 419q48 9 121 10h412q67 -1 133 -8q-5 18 -8 91v288q4 55 -27 75q-32 22 -125 30q0 -51 -36 -93q72 8 90 1q21 -5 19 -35v-34h-214v34q1 88 8 113h-92q8 -32 8 -115v-32h-202v14q-1 119 8 141h-101q7 -28 10 -57q2 -27 2 -84v-234q0 -41 -1 -60q-1 -23 -5 -45zM538 488
v72h214v-72h-214zM258 488v72h204v-72h-204zM538 615v70h214v-70h-214zM462 615h-204v70h204v-70z" />
</svg>
