<?xml version="1.0" standalone="no"?>
<!DOCTYPE svg PUBLIC "-//W3C//DTD SVG 1.1//EN" "http://www.w3.org/Graphics/SVG/1.1/DTD/svg11.dtd" >
<svg xmlns="http://www.w3.org/2000/svg" xmlns:xlink="http://www.w3.org/1999/xlink" version="1.1" viewBox="-10 0 1010 1000">
   <path fill="currentColor"
d="M448 -6q109 0 112 10q1 2 -4 8q-20 31 -20 88v39h162q119 -1 161 -10q-8 53 -10 135v226q2 161 10 203h-91q4 -16 4 -66h-236v88q2 115 12 176h-98q6 -33 6 -174v-90h-220q0 42 8 74h-95q8 -69 8 -185v-236q-1 -106 -8 -149q23 8 151 8h156v-45q0 -56 -7 -92q-1 -6 -1 -8
zM456 211h-220v137h220v-137zM536 211v137h234v-137h-234zM236 419v137h220v-137h-220zM536 419v137h234v-137h-234z" />
</svg>
