<?xml version="1.0" standalone="no"?>
<!DOCTYPE svg PUBLIC "-//W3C//DTD SVG 1.1//EN" "http://www.w3.org/Graphics/SVG/1.1/DTD/svg11.dtd" >
<svg xmlns="http://www.w3.org/2000/svg" xmlns:xlink="http://www.w3.org/1999/xlink" version="1.1" viewBox="-10 0 1034 1024">
  <g transform="matrix(1 0 0 -1 0 820)">
   <path fill="currentColor"
d="M158 626l6 -66l-1 -492q-3 -6 -3 -20q0 -3 -2 -9h50q-6 31 -6 65v23h291v-232q0 -36 -6 -65h51q-4 24 -5 65v232h295l-2 -60l-1 -2q0 -6 -2 -11h50q-3 15 -4 29l-1 478q1 33 5 65q-31 -1 -63 -5h-277v93q0 9 2 25q0 16 12 37h-60q0 -6 3 -15q3 -33 3 -109v-31l-288 1
q-15 3 -47 4zM202 162v189h291v-189h-291zM202 387v198h291v-198h-291zM533 162v189h295v-189h-295zM533 387v198h295v-198h-295z" />
  </g>

</svg>
