<?xml version="1.0" standalone="no"?>
<!DOCTYPE svg PUBLIC "-//W3C//DTD SVG 1.1//EN" "http://www.w3.org/Graphics/SVG/1.1/DTD/svg11.dtd" >
<svg xmlns="http://www.w3.org/2000/svg" xmlns:xlink="http://www.w3.org/1999/xlink" version="1.1" viewBox="-10 0 1010 1000">
   <path fill="currentColor"
d="M272 -4q100 33 99 50q-1 4 -14 11q-24 11 -40 27q-46 45 -121 131q89 66 155 125q-45 17 -81 53q-89 -110 -191 -176q100 -71 193 -221zM516 -4q95 18 103 32q-3 5 -13 11q-22 14 -43 39q-59 75 -95 115q23 20 60 55q49 47 85 76q-35 16 -73 51q-82 -104 -171 -178
q121 -128 147 -201zM788 2q106 34 103 48q-2 4 -14 9q-27 12 -46 31q-26 26 -57 60q-31 33 -52 51q68 38 187 123q-57 35 -80 61q-99 -106 -204 -176q101 -98 163 -207zM141 393q74 6 188 6h346q114 0 176 -8q-12 75 -10 133v220q0 102 8 153h-95q5 -14 4 -67h-522v9
q-1 32 2 58h-97q12 -92 12 -248q0 -247 -12 -256zM458 471h-224v109h224v-109zM534 471v109h224v-109h-224zM458 647h-224v111h224v-111zM534 647v111h224v-111h-224z" />
</svg>
