<?xml version="1.0" standalone="no"?>
<!DOCTYPE svg PUBLIC "-//W3C//DTD SVG 1.1//EN" "http://www.w3.org/Graphics/SVG/1.1/DTD/svg11.dtd" >
<svg xmlns="http://www.w3.org/2000/svg" xmlns:xlink="http://www.w3.org/1999/xlink" version="1.1" viewBox="-10 0 1034 1024">
  <g transform="matrix(1 0 0 -1 0 820)">
   <path fill="currentColor"
d="M83 119q61 22 101 41q37 18 82 47q78 49 186 159h138q51 -75 146 -140q58 -37 210 -92q10 28 29 51q-43 3 -106 22q-82 24 -147 76q-46 36 -80 83q156 0 172 -2q16 0 38 -3q-3 33 -5 68l1 264l4 47q-16 -1 -31 -3q-24 -3 -68 -3l-514 1q-22 3 -46 5q1 -21 2 -34
q3 -24 3 -32l-1 -263l-4 -50q51 4 100 5h100q-81 -88 -174 -143q-93 -49 -175 -52q21 -24 39 -52zM236 402v133h256v-133h-256zM236 570v129h256v-129h-256zM531 570v129h276v-129h-276zM531 402v133h276v-133h-276zM149 -115q30 -22 46 -41q91 48 137 95q66 69 82 217
q3 51 10 65q1 6 10 14q-30 0 -63 8q4 -30 5 -53q0 -34 -5 -75q-12 -69 -36 -112q-33 -51 -97 -88q-39 -21 -89 -30zM702 -150q-3 9 -6 42l-1 271q3 24 8 48q1 9 6 15h-58q0 -3 2 -7q1 -4 3 -10q0 -12 2 -46q0 -273 -3 -294q-1 -1 -1 -5q0 -3 -3 -14h51z" />
  </g>

</svg>
