<?xml version="1.0" standalone="no"?>
<!DOCTYPE svg PUBLIC "-//W3C//DTD SVG 1.1//EN" "http://www.w3.org/Graphics/SVG/1.1/DTD/svg11.dtd" >
<svg xmlns="http://www.w3.org/2000/svg" xmlns:xlink="http://www.w3.org/1999/xlink" version="1.1" viewBox="-10 0 1010 1000">
   <path fill="currentColor"
d="M589 0q124 21 115 26q0 3 -9 15q-17 22 -24 41q-6 15 -21 61q-12 37 -17 52h210q81 0 111 -6v83q-37 -6 -97 -6q-25 277 -107 413q79 79 216 131q-51 35 -83 79q-116 -78 -185 -156q-76 94 -212 164q-25 -39 -81 -75q163 -43 248 -151q-68 -102 -97 -260q-5 13 -23 48
q-10 20 -15 31q-37 -52 -60 -55v236q0 79 8 117h-91q8 -16 8 -59h-224q0 47 3 83q1 9 1 12h-82q4 -37 4 -107v-484q0 -55 -1 -81q-1 -30 -3 -56q81 9 183 10h36q61 0 94 -1q38 -1 74 -3q-6 40 -10 138v179q98 -134 131 -419zM306 169v210h77v-210h-77zM161 169v210h79v-210
h-79zM776 266h-163q-10 30 -29 81q-9 24 -11 30q33 -1 58 -8q7 139 65 248q64 -128 80 -351zM240 439h-79v226h79v-226zM306 439v226h77v-226h-77z" />
</svg>
