<?xml version="1.0" standalone="no"?>
<!DOCTYPE svg PUBLIC "-//W3C//DTD SVG 1.1//EN" "http://www.w3.org/Graphics/SVG/1.1/DTD/svg11.dtd" >
<svg xmlns="http://www.w3.org/2000/svg" xmlns:xlink="http://www.w3.org/1999/xlink" version="1.1" viewBox="-10 0 1034 1024">
  <g transform="matrix(1 0 0 -1 0 820)">
   <path fill="currentColor"
d="M84 21q0 -21 -6 -69h49q-3 9 -7 69v28h241l-4 -78l-1 -6h48q-1 6 -2 15q-3 54 -3 92l1 569q0 19 4 44q-33 -1 -68 -5l-210 1q-19 3 -48 4l6 -63v-601zM120 391v254h106v-254h-106zM120 85v270h106v-270h-106zM263 85v270h98v-270h-98zM263 391v254h98v-254h-98zM637 431
q0 -81 -31 -215q-33 -157 -138 -264q-54 -54 -98 -71q30 -18 53 -35q39 31 89 95q48 60 75 111q61 114 79 277q16 -70 50 -154q45 -114 112 -203l34 -45l65 -71q33 27 58 37q-81 30 -160 147q-49 75 -88 181q-39 111 -55 210l227 -1l39 -4v46q-30 -4 -66 -5h-205v233
q0 10 2 29q3 18 16 39h-62q1 -10 4 -22q0 -21 2 -46v-233l-187 1q-9 1 -17 2q-3 0 -12 2v-46q19 4 67 5h147zM896 577q3 1 11 6q-57 57 -99 97l-37 38q-6 -12 -16 -22q-4 -4 -13 -12q57 -42 133 -132q9 12 21 25v0z" />
  </g>

</svg>
