<?xml version="1.0" standalone="no"?>
<!DOCTYPE svg PUBLIC "-//W3C//DTD SVG 1.1//EN" "http://www.w3.org/Graphics/SVG/1.1/DTD/svg11.dtd" >
<svg xmlns="http://www.w3.org/2000/svg" xmlns:xlink="http://www.w3.org/1999/xlink" version="1.1" viewBox="-10 0 1010 1000">
   <path fill="currentColor"
d="M419 -21q79 35 93 51q-1 2 -13 9q-32 18 -55 39q-71 59 -119 95h352q-54 -46 -106 -79l64 -48q86 62 196 173l-69 47q-10 -15 -26 -29h-250q-30 49 -42 73h326q93 -1 168 -14v93q-61 -11 -164 -12h-87q104 113 279 139q-49 56 -65 90q-53 -19 -107 -56q-7 18 -6 89v143
q3 97 14 127h-104q8 -11 8 -61h-416q0 45 10 69h-98q5 -18 6 -54q1 -17 2 -40v-59v-75q0 -88 -6 -119q-41 34 -103 75q-33 -46 -67 -75q157 -52 283 -193h-111q-106 -1 -148 8v-87q82 11 146 12h155q4 -7 10 -19q19 -33 28 -54h-58q-89 1 -135 17l-23 -85q1 -2 9 -3
q46 -7 102 -47q80 -63 127 -140zM603 377h-200q-9 10 -29 33q-31 37 -45 51q17 4 43 5q13 1 31 1h47h100q86 -1 127 -6q-23 -21 -74 -84zM458 526h-168v101h168v-101zM538 526v101h170v-101h-170zM538 687v101h170v-101h-170zM458 687h-168v101h168v-101z" />
</svg>
