<?xml version="1.0" standalone="no"?>
<!DOCTYPE svg PUBLIC "-//W3C//DTD SVG 1.1//EN" "http://www.w3.org/Graphics/SVG/1.1/DTD/svg11.dtd" >
<svg xmlns="http://www.w3.org/2000/svg" xmlns:xlink="http://www.w3.org/1999/xlink" version="1.1" viewBox="-10 0 1034 1024">
  <g transform="matrix(1 0 0 -1 0 820)">
   <path fill="currentColor"
d="M861 204q-3 -10 -11 -21q-9 -15 -27 -39q-67 -88 -148 -145q-138 -90 -272 -93q19 -21 37 -52q42 6 155 54q129 58 234 180q36 43 48 52q9 9 36 16q-36 31 -52 48zM93 69q0 -30 -3 -53q0 -9 -2 -14h46q-3 15 -4 40l-1 54h238q0 -37 -4 -54h45q-3 12 -4 52v325
q15 -4 30 -13q3 0 19 -11q43 48 102 133q25 42 48 84q21 45 48 107l51 -96q21 -34 49 -69q54 -66 152 -145q3 3 35 29q6 4 20 12q-63 18 -134 85q-93 87 -150 228q6 9 21 20q-22 1 -65 11q-3 -33 -29 -97q-27 -64 -59 -118q-75 -124 -138 -150v206q0 9 2 32q1 15 4 33
q-18 -1 -33 -2q-24 -3 -36 -4l-205 1q-3 0 -48 5q4 -49 5 -65v-566zM129 132v253h97v-253h-97zM129 419v241h97v-241h-97zM264 132v253h103v-253h-103zM264 419v241h103v-241h-103zM660 398q9 12 20 23q7 7 15 13q12 9 35 15q-28 24 -50 47q-18 -45 -92 -122
q-45 -45 -76 -65q-28 -18 -72 -32q25 -15 44 -38q90 63 149 128q13 16 27 31zM483 103l42 -37q81 52 129 93q45 37 92 96q28 39 67 51q-27 18 -53 41q-7 -15 -34 -55q-39 -51 -89 -97q-82 -75 -161 -87q3 -1 7 -5v0z" />
  </g>

</svg>
