<?xml version="1.0" standalone="no"?>
<!DOCTYPE svg PUBLIC "-//W3C//DTD SVG 1.1//EN" "http://www.w3.org/Graphics/SVG/1.1/DTD/svg11.dtd" >
<svg xmlns="http://www.w3.org/2000/svg" xmlns:xlink="http://www.w3.org/1999/xlink" version="1.1" viewBox="-10 0 1034 1024">
  <g transform="matrix(1 0 0 -1 0 820)">
   <path fill="currentColor"
d="M80 34q0 -36 -5 -78h49q-3 7 -4 22q-3 54 -3 74h235q-1 -40 -5 -64h49q-1 6 -6 76l1 584q1 27 5 53l-70 -6l-199 1q-30 4 -52 5q1 -36 5 -73v-594zM117 88v273h100v-273h-100zM117 397v263h100v-263h-100zM255 88v273h97v-273h-97zM255 397v263h97v-263h-97zM917 690
q-4 0 -69 -5h-211q6 10 12 19q22 36 54 55q-39 15 -61 28q-31 -79 -86 -147q-70 -84 -137 -118q31 -15 50 -31q12 9 57 56q1 3 66 76q9 12 20 25h238q-51 -111 -138 -196q-22 21 -47 52q-27 28 -44 63q-18 -16 -38 -30q21 -18 38 -39l62 -72q-54 -42 -118 -78
q-75 -40 -157 -53q25 -21 44 -44q141 54 262 148q40 -31 62 -45q18 -12 62 -35q58 -28 114 -44q15 30 39 52q-133 6 -250 99q90 96 147 211q13 28 29 53zM519 207q3 -27 3 -35v-260q0 -34 -5 -78h48q-1 6 -3 22q-3 54 -3 68h280v-10q0 -51 -5 -79h49q-3 12 -2 11l-4 120
l1 225q1 25 5 52l-37 -3q-25 -3 -35 -3l-246 1q-9 1 -48 5q0 -18 2 -36zM559 -40v241h280v-241h-280z" />
  </g>

</svg>
