<?xml version="1.0" standalone="no"?>
<!DOCTYPE svg PUBLIC "-//W3C//DTD SVG 1.1//EN" "http://www.w3.org/Graphics/SVG/1.1/DTD/svg11.dtd" >
<svg xmlns="http://www.w3.org/2000/svg" xmlns:xlink="http://www.w3.org/1999/xlink" version="1.1" viewBox="-10 0 1010 1000">
   <path fill="currentColor"
d="M813 0q48 75 52 96q-1 2 -17 -1q-28 -6 -42 -5q-84 10 -251 22q-18 1 -17 1v139h77q11 -21 32 -66q22 -44 28 -55q82 23 91 34q0 1 -7 8q-35 31 -72 79h105q114 -1 154 -8v82q-35 -7 -154 -8h-165q102 98 337 125q-39 38 -53 93q-52 -14 -94 -30q-8 17 -7 106v107
q1 145 7 182h-95q7 -16 8 -61h-450q0 52 6 69h-96q7 -45 8 -137v-155q-1 -81 -8 -109q-3 1 -9 4q-55 21 -96 40q-22 -45 -55 -75q209 -39 325 -159h-163q-105 1 -134 8v-82q39 8 134 8h114q-36 -56 -62 -77l85 -28q35 58 50 105h83v-135q-105 1 -311 16q-1 -30 -34 -87
q106 9 205 10q100 1 190 -5q190 -13 301 -51zM462 318h-12q-112 120 -228 174q19 5 63 7q21 0 53 1h87h158q143 0 201 -10q-155 -58 -222 -172h-24v55q2 76 10 106h-92q7 -20 6 -104v-57zM462 560h-184v79h184v-79zM730 560h-188v79h188v-79zM278 699v81h184v-81h-184z
M542 699v81h188v-81h-188z" />
</svg>
