<?xml version="1.0" standalone="no"?>
<!DOCTYPE svg PUBLIC "-//W3C//DTD SVG 1.1//EN" "http://www.w3.org/Graphics/SVG/1.1/DTD/svg11.dtd" >
<svg xmlns="http://www.w3.org/2000/svg" xmlns:xlink="http://www.w3.org/1999/xlink" version="1.1" viewBox="-10 0 1010 1000">
   <path fill="currentColor"
d="M601 0q101 25 107 38q0 2 -8 8q-34 22 -59 67h157q75 0 103 -3q-41 133 -151 269q87 56 220 84q-31 24 -59 83q-21 -9 -31 -14q-21 -10 -20 -7q0 1 -1 1q-11 24 -10 113v111q0 116 10 143h-87q6 -16 6 -75h-191q0 57 6 75h-91q6 -16 8 -45q2 -27 2 -90v-105v-28
q2 -75 -8 -89q-3 1 -7 4q-6 3 -13 6q-17 -39 -44 -63q116 -37 201 -110q-36 -42 -76 -135q-50 78 -65 94q-21 -23 -58 -36q117 -134 159 -296zM232 157h-77v214h77v-214zM290 155v214h83v-214h-83zM603 179q35 99 91 153q58 -63 92 -153h-183zM692 429q-49 41 -148 87
q18 5 45 7q14 1 36 1h67h67q22 0 36 -1q29 -2 44 -7q-84 -34 -147 -87zM155 427v200h77v-200h-77zM290 427v200h83v-200h-83zM583 590v162h193v-162h-193zM437 612q0 95 1 121q1 29 6 43h-81q4 -7 5 -28q1 -10 1 -25v-40h-216v34q-2 90 6 111h-76q5 -13 6 -60q1 -23 2 -56
v-89v-337q0 -162 -10 -198q44 8 143 8h64q73 0 103 -2q36 -1 53 -6q-7 26 -7 145v379z" />
</svg>
