<?xml version="1.0" standalone="no"?>
<!DOCTYPE svg PUBLIC "-//W3C//DTD SVG 1.1//EN" "http://www.w3.org/Graphics/SVG/1.1/DTD/svg11.dtd" >
<svg xmlns="http://www.w3.org/2000/svg" xmlns:xlink="http://www.w3.org/1999/xlink" version="1.1" viewBox="-10 0 1010 1000">
   <path fill="currentColor"
d="M609 2q97 11 105 20q0 2 -5 6q-16 11 -19 30q-1 4 -2 14q-2 23 -5 38h65q122 0 147 -6v73q-28 -8 -151 -8h-67q-7 48 -10 81h53q121 -1 149 -8v74q-20 -6 -151 -6h-57q-2 11 -7 37q-5 27 -7 38h168q93 0 120 -8v76q-25 -7 -120 -8v91q84 0 122 -8v84q-26 -9 -122 -8v192
q4 56 -27 74q-27 19 -125 23q-2 -51 -34 -95q122 26 113 -36v-158h-161q-72 128 -160 230q-34 -28 -84 -46q5 -4 17 -15q34 -28 53 -46h-50q4 -25 4 -46h-208q1 102 8 127h-82q7 -47 8 -171v-476q-1 -59 -8 -91q26 6 115 8h133q78 -1 106 -8q-8 35 -8 101v415q0 77 8 107
q92 -116 125 -248q-82 1 -108 8v-76q31 6 123 8q6 -28 14 -77h-16q-77 1 -101 8v-76q17 7 103 8h20q6 -30 10 -79h-16q-101 1 -127 8v-77q29 7 127 8h20q4 -53 2 -106zM361 137h-77v211h77v-211zM224 137h-73v213h73v-213zM151 411v210h73v-210h-73zM361 407h-77v214h77
v-214zM742 445h-107q-6 22 -19 56q-8 23 -13 37h139v-93zM635 635q23 35 52 111l-80 24q-11 -56 -42 -111z" />
</svg>
