<?xml version="1.0" standalone="no"?>
<!DOCTYPE svg PUBLIC "-//W3C//DTD SVG 1.1//EN" "http://www.w3.org/Graphics/SVG/1.1/DTD/svg11.dtd" >
<svg xmlns="http://www.w3.org/2000/svg" xmlns:xlink="http://www.w3.org/1999/xlink" version="1.1" viewBox="-10 0 1034 1024">
  <g transform="matrix(1 0 0 -1 0 820)">
   <path fill="currentColor"
d="M300 74q1 10 3 20q1 4 3 13q-48 -13 -94 -21v91q36 0 75 -3q6 0 10 -2v41q-9 0 -13 -4l-72 -2q0 54 3 59q3 18 11 32h-52q3 -21 4 -64v-27h-30q-36 0 -54 3q-4 0 -11 3v-41q24 4 47 5h48v-100q-37 -6 -119 -12q9 -24 14 -48l105 25q48 9 76 13l43 4zM171 710q-33 0 -55 3
q-4 0 -11 2v-42q24 4 44 5h197v-153l-187 1q-19 3 -39 4q1 -24 3 -27q1 -21 3 -36q-3 -72 -7 -106q-1 -3 -2 -23q46 4 93 5h136l-7 -186q0 10 -1 -31l-9 -134q-9 -45 -44 -58q-27 -10 -70 -11q-18 0 -50 3q12 -30 17 -52q60 6 91 14q30 9 52 25q39 33 45 115q0 33 8 184
q4 94 11 167q-31 -1 -63 -5h-166l5 122q177 0 192 -2l32 -4q-4 19 -5 50l-1 114l6 61q-28 -1 -58 -5h-160zM390 -107q24 4 44 5l505 -1q18 0 29 -4h5v40q-6 0 -8 -2q-3 0 -4 -1l-80 -2l-477 2q-6 0 -14 3v-40zM427 304q24 4 44 5l440 -1l35 -4h5v39q-6 0 -8 -2q-3 0 -5 -1
l-76 -2q-411 0 -426 3q-4 1 -9 2v-39zM443 678q24 4 52 5l411 -1q19 0 32 -4v39q-6 0 -8 -2q-3 0 -4 -1l-99 -2q-360 0 -375 3q-4 1 -9 2v-39zM471 393q6 3 39 3q9 1 40 2l296 -1q15 0 40 -4q-1 21 -4 35l-2 140l6 63q-28 -1 -57 -5l-316 1q-7 3 -36 4h-6q1 -31 5 -64
l-1 -131q-3 -15 -4 -43zM659 427h-146v75h146v-75zM513 529v68h146v-68h-146zM695 529v68h149v-68h-149zM844 502v-75h-149v75h149zM477 1q24 4 52 5l320 -1q18 0 35 -4q1 0 5 -2q-4 54 -5 82l1 117l4 53l-56 -7l-317 1q-39 6 -47 6q1 -33 5 -68l-1 -137q-3 -12 -4 -47
q3 1 8 2zM661 34h-150v79h150v-79zM846 116v-82h-148v82h148zM698 144v72h148v-72h-148zM511 144v72h150v-72h-150z" />
  </g>

</svg>
