<?xml version="1.0" standalone="no"?>
<!DOCTYPE svg PUBLIC "-//W3C//DTD SVG 1.1//EN" "http://www.w3.org/Graphics/SVG/1.1/DTD/svg11.dtd" >
<svg xmlns="http://www.w3.org/2000/svg" xmlns:xlink="http://www.w3.org/1999/xlink" version="1.1" viewBox="-10 0 1010 1000">
   <path fill="currentColor"
d="M710 0q6 51 14 76h78q73 -1 121 -8v77q-26 -7 -117 -6h-26q55 20 55 26q-24 15 -53 68h39q111 1 151 -8v79q-31 -8 -157 -8h-259h-12q-99 -1 -123 6v-81q49 10 142 12q-1 -28 -31 -74l57 -20h-20q-90 0 -115 8v-79q32 7 115 8h76q-8 -41 -22 -72zM67 78q35 2 121 4h90
q71 -1 131 -4q-4 29 -4 123v430q1 71 8 143h-90q5 -20 6 -59h-186q0 72 4 85h-85q7 -54 9 -165v-432q-1 -82 -4 -125zM206 149h-63v222h63v-222zM603 139q22 51 28 78l-46 16h129q24 -43 40 -94h-151zM268 149v222h61v-222h-61zM456 334q59 5 167 6h97q98 -1 169 -6
q-4 18 -5 48q-1 14 -1 32v51v16q1 122 6 156q-39 -5 -145 -6h-38v64h54q106 0 143 -6v67q-27 -7 -126 -6h-17h-54v64h86q121 -1 166 -8v81q-21 -6 -69 -9q-54 -3 -99 -1h-242h-28q-103 -1 -133 6v-81q63 10 161 12h87v-64h-46q-62 0 -87 1q-31 1 -50 5v-69q66 8 135 8h48
v-64h-34q-103 0 -145 6q4 -22 5 -55q1 -16 1 -37v-55v-23q1 -95 -6 -133zM534 395v70h101v-70h-101zM812 395h-106v70h106v-70zM143 431v216h63v-216h-63zM268 431v216h61v-216h-61zM706 512v64h106v-64h-106zM534 512v64h101v-64h-101z" />
</svg>
