<?xml version="1.0" standalone="no"?>
<!DOCTYPE svg PUBLIC "-//W3C//DTD SVG 1.1//EN" "http://www.w3.org/Graphics/SVG/1.1/DTD/svg11.dtd" >
<svg xmlns="http://www.w3.org/2000/svg" xmlns:xlink="http://www.w3.org/1999/xlink" version="1.1" viewBox="-10 0 1010 1000">
   <path fill="currentColor"
d="M113 66q76 8 175 8h460q107 0 165 -8q-23 42 -80 168q-13 29 -20 44q-43 -23 -93 -22q32 -39 66 -111h-223v240h124q92 0 152 -10v90q-60 -7 -154 -8h-122v295q174 5 361 -5q20 -1 30 -1q-31 34 -35 88q-69 -1 -186 -2q-205 1 -265 -10q-133 -20 -214 -181
q-65 151 -119 222q-36 -24 -93 -37q103 -93 148 -213q47 -143 46 -303q93 13 95 22q0 2 -3 7q-11 17 -16 42q-11 59 -26 183q80 176 198 184v-603h-200q-86 0 -171 8v-87z" />
</svg>
