<?xml version="1.0" standalone="no"?>
<!DOCTYPE svg PUBLIC "-//W3C//DTD SVG 1.1//EN" "http://www.w3.org/Graphics/SVG/1.1/DTD/svg11.dtd" >
<svg xmlns="http://www.w3.org/2000/svg" xmlns:xlink="http://www.w3.org/1999/xlink" version="1.1" viewBox="-10 0 1010 1000">
   <path fill="currentColor"
d="M685 10q17 42 25 107q192 0 215 -7v85q-19 -8 -179 -8h-151q14 11 35 24q17 10 17 14q-7 2 -30 23q-2 3 -4 4q-61 61 -111 106l270 -14q-20 -36 -56 -72l60 -39q57 64 133 172l-70 52q-13 -25 -31 -56q-1 -3 -2 -4q-324 20 -375 34l-34 -79q70 -7 165 -165q-120 0 -145 8
v-82q20 5 66 7q22 0 54 1h90q-8 -47 -34 -99zM69 78q20 6 133 6h82q57 0 80 -1q28 -1 47 -5q2 1 -73 113q-46 67 -46 69v145h23q70 1 84 -6v78q-5 -4 -28 -5q-11 -1 -28 -1h-51v202q59 -27 95 -42l-2 86q-185 52 -311 109q-12 5 -14 6l-20 -95q12 0 47 -8v-302q0 -46 -1 -62
q-1 -19 -5 -29q82 4 92 14q1 2 -3 8q-11 20 -11 47v308l21 -7q26 -8 42 -13v-437q55 -83 62 -105h-78q-113 -1 -137 8v-81zM722 461q86 5 93 14q0 3 -3 8q-10 19 -10 43v203q-2 58 31 55q30 1 37 -17q9 -15 13 -88q55 47 87 54q-30 134 -109 125h-65q-71 3 -68 -82v-216
q0 -69 -6 -99zM437 465q95 4 97 12q0 3 -5 12q-11 19 -11 33q1 272 -143 365q-28 -25 -85 -51q99 -47 131 -131q34 -84 16 -240zM575 469q100 3 96 12q0 2 -4 7q-14 22 -14 48v189q0 72 2 101q1 28 6 41h-88q8 -22 8 -140v-205q0 -39 -6 -53z" />
</svg>
