<?xml version="1.0" standalone="no"?>
<!DOCTYPE svg PUBLIC "-//W3C//DTD SVG 1.1//EN" "http://www.w3.org/Graphics/SVG/1.1/DTD/svg11.dtd" >
<svg xmlns="http://www.w3.org/2000/svg" xmlns:xlink="http://www.w3.org/1999/xlink" version="1.1" viewBox="-10 0 1034 1024">
  <g transform="matrix(1 0 0 -1 0 820)">
   <path fill="currentColor"
d="M57 -45q1 -7 3 -14l111 32l124 33l75 19l57 12q0 6 -1 15q0 16 6 39q-24 -13 -53 -24q-33 -10 -88 -24v237q81 0 97 -2q12 0 25 -3v46q-33 -1 -65 -5h-57v151q49 66 80 110q25 37 51 82l-63 -6l-253 3q-4 1 -5 1q-4 0 -14 2v-47q21 3 42 5l218 1q-33 -72 -99 -144
q1 -33 5 -66v-375q-75 -16 -94 -20v329q0 18 3 35q3 15 12 30h-58q4 -42 5 -65v-339q-34 -7 -58 -8q-9 0 -15 1q3 -21 9 -41zM331 -134q30 -15 48 -34q81 69 115 118q39 72 42 192q0 84 3 90q1 12 10 25q-30 0 -56 4q4 -49 5 -93q0 -100 -16 -154q-15 -54 -88 -112
q-30 -24 -63 -36zM873 563q24 0 51 -3q6 0 13 -3v46q-39 -4 -64 -5l-449 5v-46q30 4 39 5l136 1q-27 -48 -59 -98q-54 -79 -99 -113q16 -21 22 -47q60 15 123 20l167 18l102 11q6 -6 35 -44q12 12 18 21q3 6 7 8q3 4 7 7l-68 72l-90 88q-3 -6 -11 -14q-7 -7 -23 -21
q18 -10 53 -42l43 -44l-57 -5l-112 -12q-117 -9 -155 -11q21 22 39 45q3 6 26 37q30 42 82 124h224zM720 653q-18 18 -88 74l-56 45q-13 -21 -32 -37q31 -15 74 -50q43 -36 72 -76q10 24 30 44zM620 251q4 -49 5 -66l-1 -277q-1 -4 -1 -8q-1 -12 -3 -27h48q0 6 -1 9t-4 57
l1 269q0 15 5 25q1 9 8 18h-57zM925 26q-1 -45 -9 -70q-12 -33 -51 -33q-18 0 -34 3q-15 1 -22 10q-7 12 -8 38v217q0 18 3 35q1 12 11 31h-57q1 -27 5 -56l1 -259q4 -28 20 -42q18 -15 69 -16q61 0 83 26q12 18 36 87q-15 6 -21 11l-26 18v0z" />
  </g>

</svg>
