<?xml version="1.0" standalone="no"?>
<!DOCTYPE svg PUBLIC "-//W3C//DTD SVG 1.1//EN" "http://www.w3.org/Graphics/SVG/1.1/DTD/svg11.dtd" >
<svg xmlns="http://www.w3.org/2000/svg" xmlns:xlink="http://www.w3.org/1999/xlink" version="1.1" viewBox="-10 0 1034 1024">
  <g transform="matrix(1 0 0 -1 0 820)">
   <path fill="currentColor"
d="M173 298h102q0 -52 -3 -81q-1 -21 -6 -44l-184 1q-6 1 -7 1q-12 1 -25 3v-46q66 6 84 5h126q-24 -87 -78 -161q-54 -69 -112 -96q28 -12 49 -29q108 87 161 219q90 -54 134 -103q9 13 29 45q-31 22 -62 42l-88 54q4 13 8 29h115q24 0 52 -3l13 -2v46q-43 -4 -80 -5h-94
q6 60 9 125h65q27 0 51 -3q1 0 14 -2v46q-39 -4 -65 -5h-191q24 48 46 61q-22 6 -41 16l-6 2q-6 3 -11 6q-33 -117 -105 -190q27 -9 46 -20q9 12 15 24q9 18 39 65zM185 689q0 18 2 34q1 18 11 32h-56q0 -3 1 -8q3 -75 4 -114l1 -132q1 -16 9 -33q6 -12 25 -22
q28 -13 94 -14q72 0 106 9q39 12 59 60q6 16 15 51q-9 4 -16 7q-19 10 -33 21q0 -40 -6 -61q-10 -33 -43 -39q-24 -4 -70 -5q-81 0 -97 18q-6 7 -6 35v39l103 47l103 50q25 10 56 17q-16 18 -40 47q-18 -15 -39 -28q-18 -12 -106 -59l-77 -33v81zM716 165l149 -1
q19 -1 41 -5v47q-21 -6 -66 -6h-124v194h159q-27 -48 -62 -91q24 -1 53 -9q1 3 3 8q9 24 17 33q33 63 50 88q1 6 7 12q-30 -1 -62 -5l-385 1q-24 3 -28 4v-46q22 4 66 5h144v-437q-36 21 -71 54q-42 40 -62 73q3 24 17 103q6 40 12 53q6 12 21 27q-49 7 -66 13l-3 1l-4 -79
q-4 -42 -9 -71q-3 -27 -14 -56q-24 -72 -63 -123q-27 -36 -74 -68q24 -10 38 -19q6 -3 13 -8q67 72 115 181q93 -126 215 -140q21 -3 90 -6q63 -3 129 -3q1 30 14 54q-22 -3 -39 -5l-101 -3q-57 0 -120 10v220zM893 727q-36 -1 -73 -5l-283 1q-9 1 -27 2q-3 1 -13 2v-46
q15 3 35 4l278 1q-67 -82 -125 -143l-19 18q-39 36 -64 55l-22 -26q-3 -3 -6 -7q61 -48 94 -77q36 -33 67 -68q15 16 32 31l-53 49l63 69q93 114 116 140v0z" />
  </g>

</svg>
