<?xml version="1.0" standalone="no"?>
<!DOCTYPE svg PUBLIC "-//W3C//DTD SVG 1.1//EN" "http://www.w3.org/Graphics/SVG/1.1/DTD/svg11.dtd" >
<svg xmlns="http://www.w3.org/2000/svg" xmlns:xlink="http://www.w3.org/1999/xlink" version="1.1" viewBox="-10 0 1034 1024">
  <g transform="matrix(1 0 0 -1 0 820)">
   <path fill="currentColor"
d="M224 297l-86 -50q-45 -28 -85 -47q16 -24 29 -49q21 21 44 36l47 33q19 12 51 34q-4 -135 -44 -238q-37 -93 -107 -154q24 -3 56 -19l29 42q49 76 73 148q30 96 31 243v320q684 -3 691 -5v47q-9 -3 -16 -3q-48 -3 -105 -3h-222q9 12 29 35q-96 87 -115 102
q-15 -18 -32 -35q73 -52 108 -102l-326 1q-33 4 -55 5q1 -40 5 -82v-259zM90 513l-31 -34q79 -75 114 -120q16 24 34 38zM727 397q-48 -142 -105 -230q-85 -123 -203 -204q-79 -54 -165 -78q28 -18 48 -39q48 25 110 65q124 84 189 161q57 72 88 127q33 -117 113 -217
q27 -31 49 -51q30 -27 84 -72q24 24 50 38q-33 10 -62 33q-72 55 -101 93q-82 105 -104 232l39 101q15 42 34 82q-36 -1 -73 -5h-197l31 70q12 31 39 45q-15 4 -28 10t-38 19q-9 -52 -58 -163q-36 -78 -66 -124q-28 -42 -69 -81q28 -7 52 -21q33 48 57 88q28 48 66 121h220z
" />
  </g>

</svg>
