<?xml version="1.0" standalone="no"?>
<!DOCTYPE svg PUBLIC "-//W3C//DTD SVG 1.1//EN" "http://www.w3.org/Graphics/SVG/1.1/DTD/svg11.dtd" >
<svg xmlns="http://www.w3.org/2000/svg" xmlns:xlink="http://www.w3.org/1999/xlink" version="1.1" viewBox="-10 0 1034 1024">
  <g transform="matrix(1 0 0 -1 0 820)">
   <path fill="currentColor"
d="M284 583l653 -1q24 0 30 -3q3 0 7 -1v46q-43 -4 -64 -5l-616 1q-19 3 -52 4l6 -75v-247q-55 -33 -111 -61q-49 -25 -87 -42q13 -24 27 -52q19 19 78 57q51 33 92 53q-6 -99 -39 -188q-54 -135 -136 -195q30 -4 56 -22q46 64 78 120q49 93 67 183q10 61 11 148v280z
M510 720l62 -39q25 -16 77 -59q15 21 28 35q-30 24 -73 55q-57 39 -64 45q-15 -19 -30 -37zM198 431q-18 25 -34 51l-53 73q-24 -18 -37 -25q21 -22 53 -68q28 -42 47 -78q15 12 39 29zM415 -58l1 409q0 3 7 37q1 6 6 13h-58l4 -34l2 -156l-1 -269q-3 -12 -3 -27
q0 -10 -2 -21q48 9 68 11l443 34q0 -54 -2 -78q-3 -9 -3 -17h48l-4 36l-1 457q0 31 4 43q0 6 9 24h-56l5 -67v-359l-225 -18l1 528q0 6 6 35q0 4 6 14h-57q1 -9 6 -67v-513z" />
  </g>

</svg>
