<?xml version="1.0" standalone="no"?>
<!DOCTYPE svg PUBLIC "-//W3C//DTD SVG 1.1//EN" "http://www.w3.org/Graphics/SVG/1.1/DTD/svg11.dtd" >
<svg xmlns="http://www.w3.org/2000/svg" xmlns:xlink="http://www.w3.org/1999/xlink" version="1.1" viewBox="-10 0 1010 1000">
   <path fill="currentColor"
d="M585 -8q18 74 24 121h167q99 -2 149 -9v91q-69 -8 -151 -10h-476q0 141 -1 207q-2 76 -5 116q-14 226 -153 387q-36 -33 -99 -53q171 -96 176 -367q-92 51 -149 103q-14 -42 -45 -91q151 -55 196 -96q1 -43 2 -92v-50v-64q-1 -47 -4 -75q27 3 121 3h187q-12 -68 -34 -107
zM127 173q23 58 52 198l-84 16q-5 -84 -41 -194zM333 308q43 6 145 8h266q73 -1 121 -4q-6 49 -8 201q-2 142 -8 158q-22 60 -164 81q-7 -56 -50 -109q23 8 57 9q42 0 58 -7q23 -8 26 -83v-179h-201v363q1 119 8 157h-95q7 -52 8 -155v-365h-18q-110 1 -145 6v-81z" />
</svg>
