<?xml version="1.0" standalone="no"?>
<!DOCTYPE svg PUBLIC "-//W3C//DTD SVG 1.1//EN" "http://www.w3.org/Graphics/SVG/1.1/DTD/svg11.dtd" >
<svg xmlns="http://www.w3.org/2000/svg" xmlns:xlink="http://www.w3.org/1999/xlink" version="1.1" viewBox="-10 0 1034 1024">
  <g transform="matrix(1 0 0 -1 0 820)">
   <path fill="currentColor"
d="M296 594l628 -1q21 0 35 -5v47q-3 0 -8 -2q-15 0 -31 -2l-274 -1q15 18 30 30q-33 27 -99 85q-24 18 -49 39q-9 -12 -15 -19q-9 -7 -16 -16q78 -51 140 -119l-337 1q-19 3 -50 4q1 -34 5 -70l-1 -246q-150 -58 -216 -72q16 -24 25 -47q24 13 45 21q21 7 43 17l45 19
q18 6 28 11q10 3 28 11q-4 -85 -20 -144q-16 -60 -50 -119q-54 -93 -115 -112q27 -10 60 -32q31 36 55 69q55 79 78 148q22 72 32 181q3 52 4 103v221zM93 554q22 -30 49 -77q22 -43 40 -85q21 13 40 24l-71 126l-16 27q-3 4 -5 8q-18 -13 -37 -23zM712 340q225 0 247 -3
q3 0 9 -3v47q-9 -3 -22 -3l-73 -2l-482 1q-12 0 -30 4v-47q6 3 13 3q27 3 53 3h247v-388q0 -37 -41 -46q-27 -6 -67 -6q-15 0 -44 4q10 -30 16 -50q55 1 110 13q25 6 44 22q19 18 20 58v393z" />
  </g>

</svg>
