<?xml version="1.0" standalone="no"?>
<!DOCTYPE svg PUBLIC "-//W3C//DTD SVG 1.1//EN" "http://www.w3.org/Graphics/SVG/1.1/DTD/svg11.dtd" >
<svg xmlns="http://www.w3.org/2000/svg" xmlns:xlink="http://www.w3.org/1999/xlink" version="1.1" viewBox="-10 0 1010 1000">
   <path fill="currentColor"
d="M593 4q7 24 21 102q1 5 1 7h173q103 -2 145 -7v87q-61 -7 -143 -8h-492q-3 221 -10 302q-9 245 -147 400q-43 -41 -97 -53q160 -112 164 -357q-93 65 -150 115l-32 -102q81 -28 188 -97v-95q1 -154 -2 -192q35 6 131 7h183q-9 -44 -36 -103zM147 159q24 108 32 199l-84 9
q-2 -104 -28 -196zM506 209q102 18 107 29q-1 2 -7 6q-19 11 -29 28q-12 16 -27 54h158q68 -1 98 -6q-54 154 -104 250q91 180 256 222q-39 29 -75 93q-162 -103 -222 -258q-104 149 -344 268q-20 -41 -85 -79q368 -101 460 -419h-170q-74 133 -131 205q-52 -39 -101 -36
q137 -104 216 -357z" />
</svg>
