<?xml version="1.0" standalone="no"?>
<!DOCTYPE svg PUBLIC "-//W3C//DTD SVG 1.1//EN" "http://www.w3.org/Graphics/SVG/1.1/DTD/svg11.dtd" >
<svg xmlns="http://www.w3.org/2000/svg" xmlns:xlink="http://www.w3.org/1999/xlink" version="1.1" viewBox="-10 0 1010 1000">
   <path fill="currentColor"
d="M613 -12q20 43 32 110h153q88 -1 148 -10v89q-65 -8 -146 -8h-510q3 105 3 178q-1 76 -5 143q-23 255 -139 417q-38 -43 -91 -55q128 -95 156 -371q-92 50 -145 95l-35 -89q66 -16 180 -78v-33q-1 -259 -14 -284q47 5 113 6h243q-19 -49 -50 -88zM137 169q17 115 20 210
l-78 6q0 -96 -21 -214zM437 229q28 8 77 8h169q46 -1 81 -6q-8 63 -10 78q-2 20 -2 37q-2 45 8 57q9 14 42 14q37 1 101 -22q-11 49 -6 88q-96 6 -163 -4q-56 -5 -51 -84v-91h-173q0 153 -129 194q-21 -35 -58 -55q-3 -1 -4 -2q78 -13 104 -61q13 -22 16 -57q3 -29 -2 -94z
M337 506q56 7 139 8h242q92 -1 135 -8q-92 186 -194 252q50 21 136 31q86 11 155 5q-41 41 -49 107q-200 -33 -304 -97q-103 60 -303 103q-12 -49 -60 -89q154 1 304 -62q-46 -36 -133 -137l49 -37q-8 0 -26 1q-74 4 -91 7v-84zM476 582q73 101 125 139q68 -42 129 -139
h-254z" />
</svg>
