<?xml version="1.0" standalone="no"?>
<!DOCTYPE svg PUBLIC "-//W3C//DTD SVG 1.1//EN" "http://www.w3.org/Graphics/SVG/1.1/DTD/svg11.dtd" >
<svg xmlns="http://www.w3.org/2000/svg" xmlns:xlink="http://www.w3.org/1999/xlink" version="1.1" viewBox="-10 0 1034 1024">
  <g transform="matrix(1 0 0 -1 0 820)">
   <path fill="currentColor"
d="M407 462l489 -1q12 0 28 -5v47l-62 -5l-450 1q-1 0 -50 4q1 -31 5 -65l-1 -242l-12 -114q-10 -46 -22 -80q-18 -48 -42 -83q-19 -28 -44 -46q27 -7 53 -23q36 61 58 111q27 67 40 151q3 27 6 73q3 45 4 72v205zM845 264l-5 -132q0 -46 -4 -90q-1 -39 -5 -66
q-3 -49 -27 -61q-28 -10 -57 -11q-7 0 -56 6q9 -21 16 -52l72 8q46 7 66 31q13 18 18 36q3 16 6 70q1 43 5 85l6 130q0 12 3 30l5 57q-30 -1 -62 -5h-186q0 40 3 81q1 25 16 54l-60 4q4 -49 5 -82q-3 -24 -3 -57q-135 0 -156 3q-3 0 -9 2v-47q1 0 38 5l123 1
q-9 -148 -62 -246q-63 -108 -145 -145q24 -12 43 -26l2 -2q99 90 146 178q19 39 31 88q12 54 25 153h208zM226 218q0 -9 -1 -19q-4 -126 -49 -223q-48 -93 -99 -115q33 -12 58 -28q42 61 70 112q51 106 58 256l3 167v222l650 -1q10 0 27 -5v47l-98 -5h-228q15 19 29 33
q-12 9 -19 14q-48 40 -71 55q-15 13 -42 33q-12 -16 -30 -34l18 -12q75 -54 85 -65q6 -6 20 -24l-336 1q-19 3 -46 4q1 -34 5 -70l-1 -225q-1 -16 -2 -35q-6 -4 -12 -9q-6 -6 -25 -19q-25 -18 -64 -42q-25 -15 -67 -35q3 -6 11 -14q12 -18 20 -32q9 7 18 16q13 13 35 28
q36 24 86 60zM112 498l-12 12q-12 -15 -30 -33q33 -25 58 -51q24 -27 51 -62q12 15 35 32l-57 58z" />
  </g>

</svg>
