<?xml version="1.0" standalone="no"?>
<!DOCTYPE svg PUBLIC "-//W3C//DTD SVG 1.1//EN" "http://www.w3.org/Graphics/SVG/1.1/DTD/svg11.dtd" >
<svg xmlns="http://www.w3.org/2000/svg" xmlns:xlink="http://www.w3.org/1999/xlink" version="1.1" viewBox="-10 0 1034 1024">
  <g transform="matrix(1 0 0 -1 0 820)">
   <path fill="currentColor"
d="M304 -137q18 -24 31 -48q336 63 505 204q48 39 61 47q12 9 39 18q-25 19 -49 43q-54 -60 -107 -100q-52 -39 -132 -77q-174 -84 -348 -87zM276 604q633 0 643 -2q7 0 12 -2q3 0 7 -1v46q-43 -4 -64 -5l-591 1q-19 3 -50 4q4 -64 5 -68v-256q-10 -6 -20 -13
q-33 -24 -59 -40q-21 -15 -38 -25q-27 -15 -62 -31q-4 -3 -12 -6q18 -22 32 -49q21 24 38 35q51 34 95 69l26 17q-1 -60 -14 -131q-15 -90 -80 -189q-27 -39 -87 -90q19 -3 36 -12q7 -3 19 -10q60 72 94 132q51 102 64 212q3 27 5 60zM534 770q-4 3 -13 11q-1 1 -5 4
q-12 -21 -29 -38q42 -27 74 -51q22 -18 55 -52q10 18 29 39q-36 30 -65 53zM195 434q-22 39 -78 123q-4 9 -10 18q-16 -12 -39 -24q54 -61 92 -144q16 13 35 27zM285 291q24 -13 44 -34q145 84 256 248q52 -60 151 -123q72 -42 215 -96q12 25 36 49q-45 6 -85 16
q-39 12 -95 37q-108 48 -202 147q16 16 33 23q-24 9 -55 29q-33 -76 -108 -162q-90 -93 -190 -134zM355 140q18 -12 22 -16q1 -3 18 -21q136 76 213 147q37 36 54 46q9 6 44 15q-30 28 -43 45q-75 -78 -148 -130q-102 -66 -160 -86zM421 -29q79 33 125 56q33 18 87 54
q58 37 86 61q31 25 45 32q12 6 42 14q-33 27 -47 45q-18 -21 -34 -36q-15 -13 -38 -32q-99 -81 -206 -127q-49 -19 -95 -26q12 -9 18 -19l17 -22v0z" />
  </g>

</svg>
