<?xml version="1.0" standalone="no"?>
<!DOCTYPE svg PUBLIC "-//W3C//DTD SVG 1.1//EN" "http://www.w3.org/Graphics/SVG/1.1/DTD/svg11.dtd" >
<svg xmlns="http://www.w3.org/2000/svg" xmlns:xlink="http://www.w3.org/1999/xlink" version="1.1" viewBox="-10 0 1010 1000">
   <path fill="currentColor"
d="M591 -4q12 42 24 114h181q113 -2 141 -6v85q-36 -7 -133 -8h-520q-2 375 -23 451q-19 114 -116 247q-48 -32 -97 -49q141 -98 148 -332q-43 26 -108 64q-27 15 -42 24l-26 -99q11 -4 41 -13q99 -30 139 -47q5 -114 3 -207q-2 -91 -9 -120q36 7 145 10h189
q-15 -63 -36 -104zM143 175q1 12 11 71q15 81 21 125l-84 12q-2 -92 -29 -198zM313 264q43 5 143 6h350q95 -1 125 -6v84q-30 -6 -108 -6v440q2 68 -28 85q-23 20 -148 34q4 -64 -40 -111q135 30 135 -26v-422h-292q-84 0 -137 4v-82zM359 423q27 6 129 6h60q85 -1 115 -4
q-6 77 -6 103v101q0 71 6 98h-88q6 -21 6 -60h-141q0 45 6 71h-89q6 -48 8 -115v-109q-1 -71 -6 -91zM440 490v118h141v-118h-141z" />
</svg>
