<?xml version="1.0" standalone="no"?>
<!DOCTYPE svg PUBLIC "-//W3C//DTD SVG 1.1//EN" "http://www.w3.org/Graphics/SVG/1.1/DTD/svg11.dtd" >
<svg xmlns="http://www.w3.org/2000/svg" xmlns:xlink="http://www.w3.org/1999/xlink" version="1.1" viewBox="-10 0 1034 1024">
  <g transform="matrix(1 0 0 -1 0 820)">
   <path fill="currentColor"
d="M582 370v-415q0 -30 -21 -42q-24 -12 -64 -12q-18 0 -45 4q9 -22 18 -51q54 4 80 11q39 9 57 34q12 16 13 54l1 410l4 48q-57 -6 -82 -6h-68v103q0 27 13 64h-56q0 -6 2 -11q3 -21 3 -53v-103q-72 0 -100 2l-20 4v-48l42 6l78 1q-9 -222 -49 -314q-66 -156 -153 -187
q25 -12 54 -36q45 52 70 86q61 87 86 191q7 30 15 77q7 55 8 75l4 70q1 21 3 38h107zM712 -48q0 -42 -4 -58q-1 -3 -1 -6h48q-4 12 -5 40l-1 42h142l-4 -74q-1 -1 -1 -5h49q-3 9 -4 20l-2 134l1 377q1 24 5 47q-30 -1 -61 -5l-124 1q-3 1 -43 4q4 -66 5 -92v-425zM891 6
h-142l-2 422h144v-422zM241 249q0 -12 -2 -44q-3 -30 -9 -67q-12 -85 -42 -149q-51 -103 -93 -122q12 -6 25 -11q16 -6 33 -17q33 54 67 125q43 93 56 244q6 66 6 128v267l664 -1q3 0 28 -4v46l-98 -5h-236q12 15 32 33q-6 3 -66 49l-22 16q-7 7 -38 28h-1q1 -1 -10 7
q-7 -12 -13 -18q-6 -7 -13 -17q69 -42 128 -98l-348 1q-1 0 -50 4q1 -33 5 -69v-250q-16 -13 -35 -28q-63 -43 -91 -66q-39 -24 -62 -34q24 -25 37 -48q27 30 42 41q7 7 16 12q55 43 68 56l24 17q0 -12 -2 -26zM144 486q-18 24 -39 49q-9 -7 -16 -15q-9 -7 -18 -15
q69 -72 108 -145q12 12 40 30l-47 62z" />
  </g>

</svg>
