<?xml version="1.0" standalone="no"?>
<!DOCTYPE svg PUBLIC "-//W3C//DTD SVG 1.1//EN" "http://www.w3.org/Graphics/SVG/1.1/DTD/svg11.dtd" >
<svg xmlns="http://www.w3.org/2000/svg" xmlns:xlink="http://www.w3.org/1999/xlink" version="1.1" viewBox="-10 0 1010 1000">
   <path fill="currentColor"
d="M597 -8q3 15 8 44q9 46 14 68h193q99 0 128 -6v85q-48 -8 -125 -8h-521q3 189 -3 290q-6 106 -22 177q-27 131 -146 263q-30 -40 -93 -59q165 -105 178 -342q-98 65 -146 106l-36 -102q107 -41 186 -83q8 -250 -8 -327q30 6 141 6h183q-18 -55 -38 -100zM149 175
q20 88 30 206l-86 12q2 -107 -30 -204zM635 195q5 19 13 60q6 28 9 43h127q84 0 117 -6v83q-37 -6 -117 -6h-236q70 38 61 50q-2 2 -8 4q-33 10 -139 121l161 -8q55 -51 97 -119q83 50 90 70q-2 4 -10 6q-23 7 -52 31q-145 126 -298 244l292 -16q-4 -5 -11 -15
q-40 -52 -62 -76l77 -36q68 83 171 231l-96 37q-12 -37 -39 -81q-24 2 -76 6q-285 23 -369 42q-8 -53 -31 -104q99 -3 259 -164q-142 13 -216 29q-4 -54 -22 -77q117 -16 187 -175h-91q-67 1 -106 6v-85q28 7 104 8h150q-14 -55 -33 -91z" />
</svg>
