<?xml version="1.0" standalone="no"?>
<!DOCTYPE svg PUBLIC "-//W3C//DTD SVG 1.1//EN" "http://www.w3.org/Graphics/SVG/1.1/DTD/svg11.dtd" >
<svg xmlns="http://www.w3.org/2000/svg" xmlns:xlink="http://www.w3.org/1999/xlink" version="1.1" viewBox="-10 0 1034 1024">
  <g transform="matrix(1 0 0 -1 0 820)">
   <path fill="currentColor"
d="M279 611l643 -1q24 0 30 -3q3 0 7 -1v47q-9 -3 -14 -3q-25 -1 -39 -3l-617 1q-15 3 -27 3t-26 2q4 -75 5 -112v-226q-34 -21 -93 -52q-66 -33 -107 -47q16 -27 28 -54q25 19 53 39l118 70q-3 -54 -8 -86q-10 -67 -40 -129q-57 -117 -129 -168q28 -7 54 -28q57 69 83 119
q66 120 76 254q3 57 3 120v258zM80 530q36 -48 58 -82q18 -33 34 -68q21 15 41 25q-82 132 -97 152zM838 495q-21 0 -46 -4l-264 -1q21 27 48 55q7 7 28 14l-54 31q-45 -63 -94 -116q-63 -66 -130 -97q30 -16 48 -33q18 15 95 86q13 13 28 25h278q-45 -64 -147 -142
q-25 13 -51 38q-37 34 -56 65q-16 -19 -38 -33q25 -24 48 -44l58 -48q-60 -40 -150 -78q-103 -42 -156 -46q21 -16 39 -47q82 33 170 72l89 47q22 12 43 26q54 -36 146 -76q42 -16 83 -30q45 -15 107 -30q7 18 10 19l24 28q-162 10 -331 112q63 52 103 96q19 21 36 42
q18 24 47 70q-6 0 -11 -1zM615 -26l-95 42q-13 6 -28 14q-10 -21 -25 -42q84 -30 175 -75q87 -40 155 -86q9 21 24 43q-24 15 -47 27q-27 12 -80 39zM647 705q-48 33 -102 66q-12 7 -22 15q-7 -18 -20 -34q-3 -3 -6 -7q24 -10 72 -42q40 -27 72 -52l28 40q-12 7 -22 14z
M770 86l-81 40l-85 41l-30 15q-7 -24 -20 -44q25 -9 56 -23l67 -31q75 -37 103 -57l21 45q-16 7 -31 14v0z" />
  </g>

</svg>
