<?xml version="1.0" standalone="no"?>
<!DOCTYPE svg PUBLIC "-//W3C//DTD SVG 1.1//EN" "http://www.w3.org/Graphics/SVG/1.1/DTD/svg11.dtd" >
<svg xmlns="http://www.w3.org/2000/svg" xmlns:xlink="http://www.w3.org/1999/xlink" version="1.1" viewBox="-10 0 1010 1000">
   <path fill="currentColor"
d="M603 -4q16 46 32 110h151q130 0 154 -4v77q-101 -6 -154 -6h-494q-1 49 -2 127q-2 102 -2 127q-5 217 -70 349q-36 69 -71 115q-34 -38 -84 -61q74 -57 112 -153q26 -84 39 -210q-88 59 -147 93l-29 -89q103 -25 174 -66v-133q-1 -109 -4 -164l8 -6q57 3 161 4h127h46
q-20 -52 -40 -88zM139 177q22 98 26 188l-78 4q1 -110 -20 -184zM464 195q100 30 94 40q-3 4 -12 10q-13 7 -18 15q-20 24 -38 48h274q81 0 141 -4v77q-49 -6 -143 -6h-97q3 73 -8 133h153q72 -1 132 -4v76q-44 -3 -134 -4h-137q40 102 103 151q47 40 182 69q-37 51 -55 95
q-142 -56 -197 -127l-5 -5q-36 -27 -72 -149q-2 1 -5 11q-16 58 -72 121q-67 80 -233 157q-19 -29 -73 -69q146 -50 210 -103q87 -73 111 -151h-91q-82 1 -151 4v-78q11 1 34 2q69 4 117 4h105q14 -57 14 -133h-143q-7 10 -47 59q-13 15 -18 21q-33 -36 -79 -44
q100 -97 158 -216z" />
</svg>
