<?xml version="1.0" standalone="no"?>
<!DOCTYPE svg PUBLIC "-//W3C//DTD SVG 1.1//EN" "http://www.w3.org/Graphics/SVG/1.1/DTD/svg11.dtd" >
<svg xmlns="http://www.w3.org/2000/svg" xmlns:xlink="http://www.w3.org/1999/xlink" version="1.1" viewBox="-10 0 1034 1024">
  <g transform="matrix(1 0 0 -1 0 820)">
   <path fill="currentColor"
d="M275 597h613q24 0 52 -3q1 0 14 -2v46q-33 -1 -66 -5h-272l22 33q-45 46 -127 107q-9 -12 -26 -27q-3 -3 -7 -6q85 -55 123 -107l-313 1q-4 0 -56 4q1 -34 5 -71v-244q-43 -30 -95 -61q-49 -30 -92 -51q21 -27 35 -50q39 39 151 115q-12 -219 -91 -342q-25 -37 -69 -72
q25 -4 58 -21q64 85 95 176q45 132 46 330v250zM139 514q-9 9 -19 21q-21 -21 -33 -30q54 -48 109 -129q16 15 31 30q-33 45 -55 71q-16 19 -33 37zM904 432q24 0 65 -5v46q-39 -4 -65 -5l-533 1q-9 1 -26 2q-3 1 -13 2v-46q60 4 64 5h221q-3 -75 -13 -142l-195 1
q-3 0 -53 4q4 -66 5 -97l-1 -320q-1 -18 -4 -31h48q-4 52 -5 66v341h200q-16 -63 -49 -119q-36 -60 -106 -107l26 -10q12 -4 28 -16q75 87 123 182q46 -36 82 -68q36 -34 86 -86q13 18 33 38l-189 158q3 15 7 28h234v-304q0 -30 -20 -41q-24 -13 -65 -14q-13 0 -55 4
q12 -19 17 -31q3 -6 8 -21q102 9 127 29q25 21 26 76l1 300q1 21 5 43q-21 -1 -35 -2q-24 -3 -34 -3h-204q10 130 14 136q0 4 2 6h243z" />
  </g>

</svg>
