<?xml version="1.0" standalone="no"?>
<!DOCTYPE svg PUBLIC "-//W3C//DTD SVG 1.1//EN" "http://www.w3.org/Graphics/SVG/1.1/DTD/svg11.dtd" >
<svg xmlns="http://www.w3.org/2000/svg" xmlns:xlink="http://www.w3.org/1999/xlink" version="1.1" viewBox="-10 0 1034 1024">
  <g transform="matrix(1 0 0 -1 0 820)">
   <path fill="currentColor"
d="M382 438l-60 4l-6 1v-47q6 3 13 3q27 3 53 3h214q-46 -70 -114 -151q-36 -42 -52 -57q-18 -13 -38 -22q4 -22 11 -46q33 6 47 6q22 0 59 4l127 8q-117 -126 -218 -209q-45 -33 -82 -39q6 -24 14 -48q30 3 80 12q12 1 21 3q37 3 103 11l308 30q21 -31 37 -61q18 16 40 29
q-16 27 -48 66l-75 108l-35 50q-15 -12 -35 -26q48 -63 92 -129l-59 -6l-131 -13l-134 -13l-74 -5q15 12 63 54q0 3 86 82q33 30 50 50q25 27 111 124q39 45 75 61l-55 37q-18 -30 -32 -49q-21 -28 -46 -54l-20 -25l-208 -12q67 78 110 132l51 70q10 15 22 28l282 -1
q10 0 27 -5v47q-3 0 -8 -2q-15 0 -31 -2l-252 -1q12 16 29 29q-31 27 -45 41q-13 12 -31 27q-13 10 -30 25q-12 -16 -28 -32q51 -40 64 -53q24 -24 34 -37h-276zM113 -139q16 -6 35 -17q61 93 89 168q24 63 36 146q9 81 10 215v214q636 0 663 -3q3 0 9 -3v47q-3 0 -8 -2
q-15 0 -31 -2h-626q-19 3 -52 4q1 -34 5 -70l-1 -248q-15 -12 -30 -22q-33 -22 -64 -46q-19 -13 -44 -28q-12 -6 -33 -17q-1 0 -5 -2q21 -24 34 -48q18 21 59 53l83 62q-3 -52 -6 -81q-3 -24 -8 -51q-18 -90 -62 -174q-33 -55 -75 -86q10 -4 22 -9zM651 676q-93 87 -105 95
q-21 -24 -31 -32q69 -46 123 -113q12 16 32 34zM201 416l-58 56l-41 36q-15 -18 -29 -31q48 -42 91 -84q12 -12 22 -28q12 10 19 19q3 3 16 13z" />
  </g>

</svg>
