<?xml version="1.0" standalone="no"?>
<!DOCTYPE svg PUBLIC "-//W3C//DTD SVG 1.1//EN" "http://www.w3.org/Graphics/SVG/1.1/DTD/svg11.dtd" >
<svg xmlns="http://www.w3.org/2000/svg" xmlns:xlink="http://www.w3.org/1999/xlink" version="1.1" viewBox="-10 0 1034 1024">
  <g transform="matrix(1 0 0 -1 0 820)">
   <path fill="currentColor"
d="M575 402v-491q0 -39 -4 -51q0 -3 -2 -12h50q-3 7 -4 26q-3 36 -3 68v123q264 0 286 -3q1 0 11 -2v46l-63 -5h-234v131q267 0 274 -3q3 0 7 -2v47q-9 -3 -22 -4q-21 0 -40 -2h-219v134l323 -1q13 0 27 -5v46l-63 -5h-416q31 60 46 79q9 16 33 32q-31 13 -46 22q-6 3 -10 6
q-15 -43 -55 -115q-48 -82 -99 -141q-34 -39 -76 -61l43 -25q4 -3 11 -7q6 6 8 9q24 33 72 93q34 43 55 73h110zM267 592q636 0 658 -3q3 0 9 -3v47q-10 -1 -22 -4l-308 -1q18 21 27 36q-3 3 -6 4l-61 46q-7 6 -17 13q-21 12 -52 38q0 -1 -3 -3l-2 -2q-9 -15 -22 -29
q69 -42 129 -103l-325 1q-3 0 -51 4q1 -34 5 -70l-1 -268q-61 -39 -105 -63q-40 -21 -63 -29q18 -21 31 -45q12 12 37 28l101 65q-6 -153 -52 -250q-54 -108 -99 -123q33 -15 58 -29q39 57 68 114q54 105 62 257l4 151v221zM54 487q67 -54 118 -120q15 18 34 33l-62 64
q-60 52 -62 55z" />
  </g>

</svg>
