<?xml version="1.0" standalone="no"?>
<!DOCTYPE svg PUBLIC "-//W3C//DTD SVG 1.1//EN" "http://www.w3.org/Graphics/SVG/1.1/DTD/svg11.dtd" >
<svg xmlns="http://www.w3.org/2000/svg" xmlns:xlink="http://www.w3.org/1999/xlink" version="1.1" viewBox="-10 0 1034 1024">
  <g transform="matrix(1 0 0 -1 0 820)">
   <path fill="currentColor"
d="M269 592l671 -3q6 0 10 -2v46q-48 -4 -82 -5h-242q9 18 24 34l-44 35l-99 72q-12 -21 -30 -40q33 -16 72 -44l42 -33l24 -24h-314q-13 0 -41 3q-16 0 -34 2q4 -69 5 -73v-249q-114 -66 -180 -89q15 -22 31 -53q40 33 49 36q69 46 98 62q0 -192 -89 -329q-30 -42 -69 -74
q27 -4 58 -22q27 34 36 50q48 76 73 153q30 96 31 259v288zM623 581q-6 3 -15 8q-9 -19 -31 -48q-30 -39 -53 -65q-21 -24 -48 -50q-115 -109 -200 -142q22 -12 45 -39q33 24 65 50q39 30 85 72q43 39 70 68q48 57 72 81q60 -81 169 -153q90 -55 164 -84q22 34 30 41
q3 3 6 7q-43 6 -106 33q-79 34 -149 90q-39 31 -52 49q-15 16 -34 46q9 9 26 13q-9 3 -17 8zM64 507q64 -61 109 -134q12 15 35 32l-55 67l-53 65q-15 -15 -36 -30zM595 85v-157l-275 1q-7 1 -32 4v-46q30 4 64 5l597 -3l2 -1q3 0 7 -1v46q-48 -4 -82 -5h-243v157
q211 0 219 -3l1 -1q3 0 6 -1q3 0 8 -1v47q-48 -6 -75 -6h-159v148l163 -1q15 0 41 -4v45q-43 -4 -65 -5l-332 1q-10 1 -33 4v-45q30 4 65 5h123v-148l-194 3q-1 0 -20 3v-47q42 6 73 6h141z" />
  </g>

</svg>
