<?xml version="1.0" standalone="no"?>
<!DOCTYPE svg PUBLIC "-//W3C//DTD SVG 1.1//EN" "http://www.w3.org/Graphics/SVG/1.1/DTD/svg11.dtd" >
<svg xmlns="http://www.w3.org/2000/svg" xmlns:xlink="http://www.w3.org/1999/xlink" version="1.1" viewBox="-10 0 1034 1024">
  <g transform="matrix(1 0 0 -1 0 820)">
   <path fill="currentColor"
d="M555 114q-13 -48 -49 -96q-54 -69 -159 -117q-42 -15 -97 -20q13 -12 24 -31q4 -9 10 -18q57 19 95 39q31 16 77 48q90 66 133 168q60 -96 138 -150q75 -54 206 -96q15 27 33 50q-34 0 -85 15t-99 43q-93 55 -163 165h262l-1 -30q-1 -36 -14 -51q-12 -12 -40 -13
q-24 0 -53 7q10 -24 20 -54q85 0 111 38q13 21 18 84l5 61l-32 -4q-19 -1 -113 -2h-179l7 82l224 -1q12 0 40 -4q-4 45 -5 86q1 33 5 67q-49 -4 -54 -5h-208v62l292 -1q12 0 26 -5v47l-62 -5h-256v32q0 25 14 63h-57q6 -60 6 -93v-2l-256 1q-9 1 -17 2q-3 0 -12 2v-47
q12 6 52 6h233v-62l-219 1q-12 1 -30 4v-47q6 3 13 3q27 3 53 3h183q-1 -34 -1 -71l-175 1q-15 3 -41 4q0 -48 -6 -87q-6 -48 -16 -77q49 4 71 5h148zM387 150l12 82h172q-1 -42 -6 -82h-178zM831 339v-71h-221q0 36 2 71h219zM223 251q0 -18 -4 -52q-6 -52 -16 -92
q-12 -40 -25 -72q-36 -76 -70 -111q-25 -25 -60 -44q10 -4 23 -11q15 -6 35 -19q43 57 65 87q39 63 57 116q27 85 33 170q3 48 3 70v296h622q24 0 50 -3q4 0 13 -3v47q-19 -3 -23 -4h-656q-19 3 -51 4q1 -34 5 -70v-247l-73 -47q-24 -15 -44 -26q-24 -12 -60 -27
q19 -24 30 -45q16 15 31 23l74 49q9 6 17 12q9 3 24 13v-14zM623 677l-45 39q-18 12 -68 55q-16 -21 -32 -35q72 -46 131 -108q13 18 33 34q-10 7 -19 15zM159 404q10 10 33 22q-7 10 -53 82l-45 65q-18 -12 -35 -26q30 -36 55 -76q19 -30 30 -50q3 -7 8 -21q3 3 7 4v0z" />
  </g>

</svg>
