<?xml version="1.0" standalone="no"?>
<!DOCTYPE svg PUBLIC "-//W3C//DTD SVG 1.1//EN" "http://www.w3.org/Graphics/SVG/1.1/DTD/svg11.dtd" >
<svg xmlns="http://www.w3.org/2000/svg" xmlns:xlink="http://www.w3.org/1999/xlink" version="1.1" viewBox="-10 0 1034 1024">
  <g transform="matrix(1 0 0 -1 0 820)">
   <path fill="currentColor"
d="M281 590l631 -1l32 -4v46q-33 -1 -66 -5l-586 1q-24 3 -54 4q1 -36 5 -74v-242q-57 -48 -105 -84q-49 -36 -76 -49q19 -18 37 -40q33 37 56 57q27 25 88 71q-6 -156 -40 -244q-42 -108 -129 -175q27 -9 50 -24l33 43q51 69 81 139q42 111 43 275v306zM75 493
q43 -39 85 -95q7 -7 14 -17q15 15 29 32q-9 12 -28 34l-68 76q-21 -21 -32 -30zM418 -76l-139 3q-6 1 -9 2v-46q33 3 66 5l622 -3q1 0 11 -2v46q-33 -1 -65 -5h-242v256l200 -1l37 -4v46q-33 -1 -65 -5h-172v204l217 -1q6 0 40 -4v46q-12 -1 -14 -2q-25 0 -52 -3l-491 3
q-3 1 -13 2v-46q22 4 66 5h209v-496h-168v292q0 15 2 34q1 18 11 31h-56l4 -36zM524 778q-13 -15 -30 -29q76 -54 126 -110q12 21 31 36l-113 94q-6 3 -14 9v0z" />
  </g>

</svg>
