<?xml version="1.0" standalone="no"?>
<!DOCTYPE svg PUBLIC "-//W3C//DTD SVG 1.1//EN" "http://www.w3.org/Graphics/SVG/1.1/DTD/svg11.dtd" >
<svg xmlns="http://www.w3.org/2000/svg" xmlns:xlink="http://www.w3.org/1999/xlink" version="1.1" viewBox="-10 0 1010 1000">
   <path fill="currentColor"
d="M601 -15q18 51 26 101h153q86 -1 158 -10v89q-57 -7 -158 -8h-484v250q8 343 -169 506q-51 -40 -95 -51q185 -123 188 -374q-118 56 -158 84l-42 -93q132 -25 200 -64q-1 -239 -9 -297q-2 -26 -3 -42q44 8 111 10h217q-4 -35 -36 -92zM133 123q32 105 46 233l-84 9
q-11 -132 -41 -232zM383 554q48 7 155 8h139q108 -1 168 -8v83q-57 -6 -170 -8h-32v155h121q109 -2 165 -8v91q-51 -7 -165 -7h-304q-108 1 -166 7v-91q53 6 166 8h103v-155h-27q-95 1 -153 8v-83zM700 296h-184q-148 4 -159 8v-83q37 8 159 8h180q88 0 157 -8
q-67 99 -151 162q24 9 96 34q141 49 172 62l-61 75q-146 -83 -270 -125q-125 66 -286 113q-15 -45 -51 -81q217 -27 398 -165z" />
</svg>
