<?xml version="1.0" standalone="no"?>
<!DOCTYPE svg PUBLIC "-//W3C//DTD SVG 1.1//EN" "http://www.w3.org/Graphics/SVG/1.1/DTD/svg11.dtd" >
<svg xmlns="http://www.w3.org/2000/svg" xmlns:xlink="http://www.w3.org/1999/xlink" version="1.1" viewBox="-10 0 1010 1000">
   <path fill="currentColor"
d="M605 8q14 56 20 111h143q94 0 159 -4v76q-49 -4 -157 -4h-478v234q0 188 -58 323q-39 94 -81 141q-36 -39 -74 -63q3 -2 8 -7q46 -34 80 -108q39 -93 49 -203q-12 8 -38 27q-59 44 -101 71l-33 -90q98 -32 174 -65v-171q-2 -58 -10 -155q0 -6 6 -6q18 0 77 2q76 2 104 2
h151q-17 -52 -40 -99zM141 183q9 42 24 166q1 12 2 18l-74 8q-5 -94 -22 -176zM355 298q59 3 145 4h250q97 0 155 -4v77q-91 -6 -157 -6h-77v141h89q95 0 129 -4v78q-36 -4 -125 -6h-93v194h113q25 0 83 -2q47 -2 64 -2v78q-54 -5 -149 -6h-367h-82q-31 1 -55 2v-74
q33 3 97 4h12v-224q0 -49 -6 -75q92 0 91 10q0 4 -3 13q-7 23 -7 56v220h133v-147v-256h-97q-90 1 -143 4v-75z" />
</svg>
