<?xml version="1.0" standalone="no"?>
<!DOCTYPE svg PUBLIC "-//W3C//DTD SVG 1.1//EN" "http://www.w3.org/Graphics/SVG/1.1/DTD/svg11.dtd" >
<svg xmlns="http://www.w3.org/2000/svg" xmlns:xlink="http://www.w3.org/1999/xlink" version="1.1" viewBox="-10 0 1034 1024">
  <g transform="matrix(1 0 0 -1 0 820)">
   <path fill="currentColor"
d="M196 241q13 10 28 21q0 -45 -6 -106q-12 -108 -67 -203q-31 -54 -74 -82q22 -9 51 -28q49 69 72 115q45 91 56 208q6 81 8 164v266q651 0 660 -3q9 0 16 -2v47q-9 -3 -15 -3q-48 -3 -87 -3l-562 1q-6 1 -55 5q1 -39 5 -80v-246l-84 -59q-10 -6 -22 -14q-48 -30 -66 -39
q21 -21 38 -43q13 19 49 44q27 21 55 40zM619 681l-81 67q-15 12 -35 27q-12 -15 -24 -27q-3 -3 -7 -6q49 -27 124 -106q4 7 9 14q6 10 22 25zM196 418l-49 51l-47 46q-6 6 -11 12q-15 -15 -31 -28q82 -69 119 -129q18 22 32 35zM320 191q30 9 53 18q24 9 61 24l93 43
q37 19 88 51l183 -81q84 -40 145 -74q4 21 19 44q-45 18 -100 43q-201 90 -209 93q118 94 173 173l-80 -6l-345 1q-9 1 -16 2q-6 0 -16 3v-47q30 4 63 5h307q-103 -124 -331 -217q-67 -27 -132 -35q15 -12 44 -40zM593 -77l-266 1q-7 1 -32 4v-46q30 4 63 5q555 0 565 -3
q6 0 9 -1q3 0 7 -1v46q-43 -4 -64 -5h-244v182l187 -1q27 0 33 -3q3 0 7 -1v46q-43 -4 -63 -5l-410 1q-6 0 -33 4v-46q30 4 64 5h177v-182z" />
  </g>

</svg>
