<?xml version="1.0" standalone="no"?>
<!DOCTYPE svg PUBLIC "-//W3C//DTD SVG 1.1//EN" "http://www.w3.org/Graphics/SVG/1.1/DTD/svg11.dtd" >
<svg xmlns="http://www.w3.org/2000/svg" xmlns:xlink="http://www.w3.org/1999/xlink" version="1.1" viewBox="-10 0 1010 1000">
   <path fill="currentColor"
d="M601 -12q23 47 36 110h153q63 0 156 -10v89q-98 -8 -158 -8h-504q4 124 -1 274q-1 22 -1 32q-10 267 -123 428q-30 -23 -70 -40q-17 -7 -27 -11q127 -91 142 -373q-97 71 -133 101l-39 -90q107 -42 176 -89q-3 -65 -4 -196q0 -7 -5 -63q-3 -31 -5 -50q35 5 123 6h229
q-12 -40 -46 -88zM139 165q13 56 22 197l-76 3q-6 -119 -27 -194zM708 185q79 33 92 46q0 1 -7 5q-20 8 -31 20q-28 31 -62 62h56q92 -1 143 -8v81q-31 -8 -147 -8h-111v105h91q92 -1 155 -9v83q-43 -8 -151 -8h-95v107h141q93 -1 162 -10v86q-44 -8 -162 -8h-141v21
q1 101 10 155h-97q8 -47 8 -155v-21h-102q-108 1 -162 8v-84q64 7 162 8h102v-105h-68q-69 1 -139 8v-85q58 8 141 9h66v-105h-84q-79 0 -124 8q-12 2 -17 2v-81q53 8 141 8h20q-29 -43 -77 -89l81 -36q40 50 71 123h60q55 -71 75 -133z" />
</svg>
