<?xml version="1.0" standalone="no"?>
<!DOCTYPE svg PUBLIC "-//W3C//DTD SVG 1.1//EN" "http://www.w3.org/Graphics/SVG/1.1/DTD/svg11.dtd" >
<svg xmlns="http://www.w3.org/2000/svg" xmlns:xlink="http://www.w3.org/1999/xlink" version="1.1" viewBox="-10 0 1010 1000">
   <path fill="currentColor"
d="M597 -15q3 12 9 37q12 48 17 76h192q87 -1 131 -8v87q-34 -8 -129 -8h-186v93h123q82 0 103 -6v80q-20 -3 -79 -7q-17 -1 -24 -1h-123v87h190q17 -1 47 -3q49 -3 72 -5v81q-41 -7 -99 -7h-43v91h33q60 0 90 -6v79q-5 0 -16 -1q-48 -5 -76 -5h-29v179q2 53 -27 67
q-23 17 -136 28q-1 -55 -34 -103q74 9 93 2q21 -5 20 -38v-135h-260q-94 2 -127 8v-83q19 5 123 8h262v-91h-276q-93 0 -138 7v-81q16 5 133 8h115v-87h-92q-66 0 -107 8v-82q37 7 107 8h92v-93h-270q0 359 -24 468q-19 117 -117 264q-44 -30 -109 -41q144 -97 164 -362
q-55 32 -129 90q-10 -50 -37 -94q83 -29 168 -77q1 -52 1 -109v-103q-1 -91 -5 -115q51 6 147 8h203q-21 -60 -44 -100zM137 175q12 90 18 206l-84 8q6 -29 2 -90q-6 -70 -17 -118zM474 651q56 77 86 139l-90 40q-23 -80 -79 -145z" />
</svg>
