<?xml version="1.0" standalone="no"?>
<!DOCTYPE svg PUBLIC "-//W3C//DTD SVG 1.1//EN" "http://www.w3.org/Graphics/SVG/1.1/DTD/svg11.dtd" >
<svg xmlns="http://www.w3.org/2000/svg" xmlns:xlink="http://www.w3.org/1999/xlink" version="1.1" viewBox="-10 0 1034 1024">
  <g transform="matrix(1 0 0 -1 0 820)">
   <path fill="currentColor"
d="M264 610q660 0 670 -3q9 0 16 -2v46q-43 -4 -65 -5h-277q9 18 25 35q-54 39 -125 95q-3 3 -5 4q-13 -19 -30 -38q55 -30 128 -96l-325 1q-19 3 -55 4q1 -39 5 -79v-228q-21 -15 -43 -27q-27 -16 -83 -48q-27 -15 -58 -27q19 -27 32 -52q63 54 151 108q-1 -105 -23 -188
q-22 -78 -67 -145q-40 -54 -89 -86q25 -9 53 -25q42 45 79 103q58 96 75 205q10 76 11 194v254zM83 548l-18 -12q58 -70 90 -140q13 9 24 18q6 3 14 8q-6 12 -72 111l-20 28q-9 -6 -18 -13zM594 62l-280 1q-12 1 -32 4v-46q30 4 64 5h248l-1 -165q-1 -6 -2 -17q-1 -1 -1 -5
q-1 -3 -2 -8h49q-4 21 -5 66v129q327 -3 334 -5v46q-31 -1 -63 -5h-271v142l241 -3l2 -1q3 0 7 -1v46l-65 -5h-184v137l274 -3l2 -1q3 0 7 -1v46q-48 -4 -75 -5h-158q9 12 16 17q39 51 62 77q28 28 52 38q-24 18 -50 44q-13 -27 -53 -82q-36 -49 -74 -94l-279 1q-10 1 -33 4
v-46q30 4 64 5h206v-137l-208 1q-10 1 -33 4v-46q30 4 65 5h176v-142zM580 450q-24 28 -59 63q-39 42 -60 58q-16 -19 -30 -31q22 -18 55 -51q51 -52 54 -61q3 -6 7 -11q15 18 22 23q6 6 11 10v0z" />
  </g>

</svg>
