<?xml version="1.0" standalone="no"?>
<!DOCTYPE svg PUBLIC "-//W3C//DTD SVG 1.1//EN" "http://www.w3.org/Graphics/SVG/1.1/DTD/svg11.dtd" >
<svg xmlns="http://www.w3.org/2000/svg" xmlns:xlink="http://www.w3.org/1999/xlink" version="1.1" viewBox="-10 0 1010 1000">
   <path fill="currentColor"
d="M593 -6q20 52 24 108h185q58 -2 119 -10v87q-48 -8 -117 -10h-526v286q-10 251 -131 448q-30 -40 -76 -67q101 -103 127 -322q-59 24 -131 66l-29 -90q131 -26 162 -41q0 -311 -13 -359q54 10 132 12h217q-12 -58 -40 -98zM145 177q11 65 12 190l-72 6q1 -63 -16 -190z
M915 231v85q-64 -7 -149 -8h-288q-82 1 -153 8v-85q59 8 155 9h278q73 -1 157 -9zM359 365q49 6 135 8h234q75 -3 125 -8q-6 43 -8 88v65q1 49 8 88q-43 -6 -123 -8h-238q-80 2 -133 8q6 -35 8 -88v-59q-2 -54 -8 -94zM442 441v89h328v-89h-328zM702 613q66 15 94 32
q0 3 -9 13q-15 18 -25 33q-4 7 -16 25q-23 38 -36 56h84q98 -3 141 -8v84q-43 -7 -139 -8h-395q-81 1 -137 8v-84q46 6 135 8h250q39 -85 53 -159zM492 627q20 40 42 115l-78 14q-11 -67 -35 -119z" />
</svg>
