<?xml version="1.0" standalone="no"?>
<!DOCTYPE svg PUBLIC "-//W3C//DTD SVG 1.1//EN" "http://www.w3.org/Graphics/SVG/1.1/DTD/svg11.dtd" >
<svg xmlns="http://www.w3.org/2000/svg" xmlns:xlink="http://www.w3.org/1999/xlink" version="1.1" viewBox="-10 0 1010 1000">
   <path fill="currentColor"
d="M595 -12q18 42 32 106h129q123 -1 184 -10v85q-42 -7 -188 -8h-470v3q6 172 2 307q-14 230 -143 420q-34 -31 -95 -49q129 -103 162 -375q-97 73 -150 103l-26 -89q59 -13 174 -80q1 -153 -12 -315q42 2 95 6q24 2 28 2h225q-14 -46 -40 -86zM133 191q15 50 28 182
l-80 14q2 -112 -19 -188zM865 229q-7 39 -8 89v141q2 68 8 111q-41 -5 -123 -8h-115q22 70 71 131q86 -62 129 -113q77 51 76 55t-10 7q-12 3 -22 9q-65 41 -125 86q107 57 214 65q-44 46 -57 93q-134 -47 -216 -115q-91 -88 -129 -218h-104v214q51 -23 121 -67l12 89
q-108 37 -210 109l-46 -85q32 -25 40 -84v-408q-3 -66 -8 -101q57 6 145 8h238q56 -1 119 -8zM454 296v73h324v-73h-324zM778 429h-324v73h324v-73z" />
</svg>
