<?xml version="1.0" standalone="no"?>
<!DOCTYPE svg PUBLIC "-//W3C//DTD SVG 1.1//EN" "http://www.w3.org/Graphics/SVG/1.1/DTD/svg11.dtd" >
<svg xmlns="http://www.w3.org/2000/svg" xmlns:xlink="http://www.w3.org/1999/xlink" version="1.1" viewBox="-10 0 1034 1024">
  <g transform="matrix(1 0 0 -1 0 820)">
   <path fill="currentColor"
d="M596 227q-4 -55 -5 -61q-1 -1 -1 -3h49q-3 9 -4 27q0 18 -2 37v169l60 69l212 -1q10 0 26 -5v47l-62 -5l-523 1q-12 0 -30 4v-47q6 3 13 3q27 3 53 3h260q-61 -79 -173 -155q-120 -78 -189 -88q18 -18 37 -42q60 30 126 70q33 18 62 40q36 24 91 68v-131zM391 -102
q-3 -31 -5 -65h49q0 4 -3 11q-3 54 -3 63h402l-4 -62q-1 -1 -1 -4h48q-4 52 -5 97l1 157l4 44q-30 -1 -61 -5l-385 1q-3 0 -42 4q4 -66 5 -101v-140zM429 -57v155h402v-155h-402zM730 351q-6 3 -24 13q-7 -15 -21 -34q63 -27 148 -75q72 -40 123 -80q4 10 9 20q4 7 13 23
l-97 55l-97 52zM261 597q663 0 690 -3q3 0 9 -3v47q-3 0 -8 -2q-15 0 -31 -2l-292 -1l28 32q-30 19 -47 32q-18 13 -22 15l-76 52q-9 -15 -11 -17q-1 -3 -4 -6q-1 -1 -10 -13q78 -42 133 -95l-353 1q-19 3 -51 4q1 -34 5 -70v-266q-12 -3 -30 -12q-55 -25 -91 -40
q-27 -10 -58 -19q13 -24 24 -52q108 60 121 64q12 7 34 16q-3 -156 -57 -270q-48 -91 -98 -115q33 -15 55 -29q45 60 72 113q54 108 63 238q3 84 5 172v229zM63 525q61 -72 91 -143q21 15 41 24q-7 15 -16 25l-44 69l-35 49q-15 -12 -37 -24v0z" />
  </g>

</svg>
