<?xml version="1.0" standalone="no"?>
<!DOCTYPE svg PUBLIC "-//W3C//DTD SVG 1.1//EN" "http://www.w3.org/Graphics/SVG/1.1/DTD/svg11.dtd" >
<svg xmlns="http://www.w3.org/2000/svg" xmlns:xlink="http://www.w3.org/1999/xlink" version="1.1" viewBox="-10 0 1010 1000">
   <path fill="currentColor"
d="M597 -2q26 41 40 100h157q98 -1 144 -6v79q-74 -4 -148 -6h-502v322q3 119 -34 220q-41 115 -91 192q-46 -41 -88 -59q59 -53 94 -133q46 -110 47 -197l-156 90l-26 -88q22 -5 36 -9q46 -8 119 -40q11 -4 25 -10v-215q0 -79 -8 -140q0 -6 6 -6q27 3 161 6h179
q-10 -39 -36 -84zM141 201q22 114 28 184l-76 4q-7 -110 -30 -182zM897 219v71q-61 10 -121 48q-83 51 -103 67h71q116 0 155 -6q-4 42 -6 165v236q1 63 -28 81q-25 19 -113 14q0 -51 -24 -87q58 8 73 -1q17 -7 16 -45v-49h-164v27q0 95 2 131h-78q0 -16 2 -72q2 -46 2 -57
v-29h-150v182h-82q5 -112 6 -170v-157q-1 -113 -8 -169q52 4 153 6h69q-45 -32 -117 -61l70 -46q57 34 103 77l129 -85h-256q-83 1 -153 4v-73q7 0 21 1q84 5 134 5h252q76 -1 145 -8zM431 461v77h150v-77h-150zM653 461v77h164v-77h-164zM581 590h-150v71h150v-71zM653 590
v71h164v-71h-164z" />
</svg>
