<?xml version="1.0" standalone="no"?>
<!DOCTYPE svg PUBLIC "-//W3C//DTD SVG 1.1//EN" "http://www.w3.org/Graphics/SVG/1.1/DTD/svg11.dtd" >
<svg xmlns="http://www.w3.org/2000/svg" xmlns:xlink="http://www.w3.org/1999/xlink" version="1.1" viewBox="-10 0 1010 1000">
   <path fill="currentColor"
d="M573 -13q19 44 36 107h193q59 -1 144 -10v89q-50 -6 -144 -8h-536v189q2 361 -131 541q-56 -36 -99 -37q139 -139 152 -364q-83 41 -132 78l-34 -89q20 -6 34 -10q42 -9 115 -44q8 -4 17 -8q2 -56 2 -108q1 -53 0 -97q-2 -88 -9 -132q66 9 121 10h218q-15 -46 -50 -98z
M121 169q20 62 34 202l-80 12q-7 -128 -31 -208zM730 362q104 55 228 148l-69 68q-80 -85 -222 -167zM456 647v127h310v-127h-310zM587 304h-103q-90 1 -165 8v-83q52 6 165 8h294q81 0 147 -8v83q-57 -7 -147 -8h-88q-34 37 -49 50v226h95q81 -2 125 -8q-6 42 -8 91v145
q1 69 8 103h-101q6 -19 6 -69h-310q2 40 8 63h-103q6 -34 8 -93v-145q-1 -50 -8 -95q50 6 137 8h67v-165q-105 80 -242 137q-22 -49 -55 -71q194 -55 319 -177z" />
</svg>
