<?xml version="1.0" standalone="no"?>
<!DOCTYPE svg PUBLIC "-//W3C//DTD SVG 1.1//EN" "http://www.w3.org/Graphics/SVG/1.1/DTD/svg11.dtd" >
<svg xmlns="http://www.w3.org/2000/svg" xmlns:xlink="http://www.w3.org/1999/xlink" version="1.1" viewBox="-10 0 1010 1000">
   <path fill="currentColor"
d="M607 -10q12 37 28 112h153q89 -3 143 -10v85q-84 -6 -139 -8h-508q-2 222 -6 294q-13 272 -139 436q-30 -35 -93 -53q134 -87 154 -338q-70 27 -133 72q-3 -24 -29 -75q-5 -10 -8 -15q89 -14 174 -55v-248q-2 -65 -6 -91q55 5 119 6h229q-6 -36 -34 -88zM508 175l33 12
q67 24 64 28q0 2 -17 10q-41 21 -56 35h180q75 -1 121 -8q-21 17 -139 141h72q60 -1 109 -8q-7 43 -8 86v119q53 -2 87 -8v79q-29 -6 -85 -8h-198q80 142 281 149q-28 35 -51 97q-226 -65 -270 -218q-81 143 -308 222q-22 -55 -61 -81q228 -33 307 -169h-174q-65 1 -99 8
v-77q37 6 97 8v-127q-1 -44 -8 -64q-9 9 -18 16q-28 -28 -73 -48q114 -61 214 -194zM137 177q9 46 24 202l-76 6q-1 -106 -22 -200zM679 316h-197q-28 30 -81 69q46 7 95 8h119zM464 449v141h115q13 -60 10 -127q71 3 101 14q1 3 -4 7q-24 25 -31 106h141v-141h-332z" />
</svg>
