<?xml version="1.0" standalone="no"?>
<!DOCTYPE svg PUBLIC "-//W3C//DTD SVG 1.1//EN" "http://www.w3.org/Graphics/SVG/1.1/DTD/svg11.dtd" >
<svg xmlns="http://www.w3.org/2000/svg" xmlns:xlink="http://www.w3.org/1999/xlink" version="1.1" viewBox="-10 0 1034 1024">
  <g transform="matrix(1 0 0 -1 0 820)">
   <path fill="currentColor"
d="M241 307q-9 -4 -16 -11q-24 -15 -50 -29q-27 -13 -52 -29q-54 -25 -69 -28q22 -24 38 -50q31 36 149 105q-12 -210 -98 -304q-30 -31 -71 -55q27 -9 52 -31q30 31 57 66q49 72 75 164q22 91 23 202v287q642 0 650 -3q3 0 8 -3v47q-27 -1 -53 -5l-596 1q-19 3 -52 4
q1 -33 5 -69v-259zM632 644q9 16 20 26q-18 9 -57 39q-42 30 -54 38q-18 12 -36 25q-15 -24 -26 -37q3 -1 4 -3q6 -3 8 -5q4 -3 10 -6l71 -44q21 -16 53 -44q3 6 7 11zM80 547q42 -52 81 -148q24 15 40 21l-84 151q-13 -12 -22 -17q-6 -3 -15 -7zM591 -73l-276 1l-36 1l-6 2
t-6 1v-46q33 3 67 5l597 -1q12 0 30 -4v46q-27 -1 -54 -5h-278v147l223 -1l30 -4v46q-27 -1 -53 -5h-200v369q0 33 6 51q0 4 10 21h-60q6 -60 6 -72v-369l-184 1q-13 1 -32 2q-3 1 -13 2v-46q1 0 3 1q-1 0 10 1q27 1 55 3h161v-147zM539 163q3 7 16 14q6 4 11 8l-128 166
q6 30 14 47q12 48 41 66q-39 6 -67 20q-3 -39 -10 -71q-6 -33 -30 -95q-9 -25 -20 -49q-9 -22 -20 -39q-22 -37 -34 -51q-10 -12 -29 -23q33 -6 59 -15q27 51 44 85q15 31 37 83q78 -93 110 -152zM927 182q3 1 9 8q-18 27 -83 100q-22 24 -60 68q3 9 6 17q15 57 23 70
q6 13 24 25q-21 6 -36 10q-6 3 -28 13q0 -12 -10 -70q-6 -30 -28 -95q-3 -9 -36 -75q-31 -51 -67 -72q36 -12 57 -23q18 27 34 57l48 99q40 -39 75 -84q36 -45 47 -72q0 3 5 7q0 3 20 17v0z" />
  </g>

</svg>
