<?xml version="1.0" standalone="no"?>
<!DOCTYPE svg PUBLIC "-//W3C//DTD SVG 1.1//EN" "http://www.w3.org/Graphics/SVG/1.1/DTD/svg11.dtd" >
<svg xmlns="http://www.w3.org/2000/svg" xmlns:xlink="http://www.w3.org/1999/xlink" version="1.1" viewBox="-10 0 1010 1000">
   <path fill="currentColor"
d="M593 -15q4 14 20 64q9 27 14 43h141q127 -1 169 -10v89q-39 -8 -169 -8h-496q5 182 0 288q-4 109 -19 184q-25 137 -132 276q-41 -37 -91 -53q144 -115 157 -346q-87 52 -125 94q-4 6 -6 7q-13 -46 -34 -107q1 -2 11 -5q57 -18 157 -72q0 -147 -1 -213q0 -78 -2 -134
q62 9 178 10h171q-21 -69 -40 -92zM121 185q2 6 6 20q28 99 42 178l-82 16q-15 -137 -39 -200zM435 207l53 113l-73 24q-2 -5 -5 -13q-12 -44 -49 -102zM510 227q61 8 153 8h83q110 0 155 -6q-8 51 -8 206v373q2 57 -28 74q-29 22 -127 31q2 -61 -36 -103q117 22 115 -48
v-458h-154q-99 0 -153 6v-83zM563 324q11 1 32 1q49 0 54 7q0 3 -3 9q-9 18 -9 42v46h36q53 0 97 -8v71q-27 -5 -97 -5h-36v79l51 -34q62 58 104 121l-68 46q-39 -68 -87 -117v67q0 108 8 153h-89q9 -48 9 -155v-81q-44 106 -99 172q-27 -34 -67 -49q93 -84 145 -201
q-76 0 -117 6v-69q29 6 140 6v-48q0 -30 -4 -59zM308 348q95 0 99 12q1 2 -4 9q-18 24 -18 54v296q0 147 8 168h-93q10 -42 10 -160v-274q0 -23 -1 -64q-1 -29 -1 -41z" />
</svg>
