<?xml version="1.0" standalone="no"?>
<!DOCTYPE svg PUBLIC "-//W3C//DTD SVG 1.1//EN" "http://www.w3.org/Graphics/SVG/1.1/DTD/svg11.dtd" >
<svg xmlns="http://www.w3.org/2000/svg" xmlns:xlink="http://www.w3.org/1999/xlink" version="1.1" viewBox="-10 0 1010 1000">
   <path fill="currentColor"
d="M599 -13q5 14 12 32q10 21 24 73h147q98 0 162 -12v99q-74 -12 -170 -12h-490q2 341 -22 438q-24 130 -121 292q-32 -39 -89 -55q118 -118 148 -344q-14 6 -137 90q-7 -55 -29 -100q63 -9 168 -63q1 -33 2 -77v-47v-70q-3 -109 -12 -147q51 8 137 8h219q-3 -3 -16 -29
q-16 -32 -26 -49zM563 488q103 5 110 18q2 3 -6 12q-21 26 -20 54q15 204 307 244q-37 40 -55 91q-261 -83 -286 -250q-30 181 -307 252q-20 -50 -68 -89q190 -17 265 -95q76 -77 60 -237zM565 191q106 9 104 18q1 3 -6 10q-15 17 -20 39q-3 14 -12 40t-12 40q12 7 57 26
q73 29 231 111q-29 27 -52 71q-143 -98 -264 -147q-49 90 -254 147q-11 -49 -49 -79q158 -15 216 -75q62 -61 61 -201zM131 179q18 97 30 192l-76 12q-4 -102 -25 -192zM383 556q45 5 89 22q-33 65 -57 137q-39 -15 -80 -18q39 -69 48 -141zM784 221q55 22 89 43
q-26 17 -79 97q-7 10 -10 14q-19 -17 -72 -33q51 -60 72 -121zM391 213q26 2 91 24q-24 19 -55 132q-49 -21 -80 -21q37 -63 44 -135zM800 560l81 50q-29 17 -75 87q-10 14 -14 20q-24 -24 -64 -40q55 -59 72 -117z" />
</svg>
