<?xml version="1.0" standalone="no"?>
<!DOCTYPE svg PUBLIC "-//W3C//DTD SVG 1.1//EN" "http://www.w3.org/Graphics/SVG/1.1/DTD/svg11.dtd" >
<svg xmlns="http://www.w3.org/2000/svg" xmlns:xlink="http://www.w3.org/1999/xlink" version="1.1" viewBox="-10 0 1034 1024">
  <g transform="matrix(1 0 0 -1 0 820)">
   <path fill="currentColor"
d="M611 351q-138 0 -154 3l-13 2v-47q6 3 13 3q27 3 52 3h102v-91q-57 0 -81 2q-6 3 -38 3q1 -30 5 -60q0 -78 -2 -107q-3 -3 -3 -34q51 4 104 5q120 0 137 -2q15 0 32 -3q-4 52 -5 105q0 36 3 74q0 12 2 22q-28 -1 -58 -5h-58v91q132 0 155 -3q3 0 9 -3v47q-10 -1 -22 -4
l-142 -1v28q0 30 15 63h-58q1 -30 5 -63v-28zM722 69h-188v119h188v-119zM348 -78q0 -24 -3 -52q0 -4 -2 -12h49q-3 6 -4 27q0 24 -2 47h482q0 -48 -3 -60q-1 -3 -1 -8q-1 -1 -1 -5h49q0 3 -4 12l-2 123l1 476q1 22 5 46q-30 -1 -62 -5l-458 1q-19 3 -49 4q1 -30 5 -62v-532
zM868 -32h-482v507h482v-507zM265 603q673 0 687 -2q6 0 16 -4v47l-99 -5h-237q18 22 31 34q-9 6 -21 17q-54 42 -117 87q-1 0 -6 5q-15 -21 -29 -35q42 -27 66 -45l42 -34q12 -12 25 -29l-351 1q-3 0 -50 4q1 -33 5 -69v-271q-112 -55 -179 -73q13 -19 26 -49q28 18 78 43
q34 16 72 37q-4 -84 -15 -133q-12 -48 -39 -110q-51 -105 -102 -122q33 -13 57 -32q33 48 58 91q51 96 69 196q12 75 13 180v271zM184 433l-70 131q-13 -9 -37 -20q9 -15 18 -27l23 -45q16 -30 25 -49q6 -16 14 -40q21 13 41 22q-7 15 -14 28v0z" />
  </g>

</svg>
