<?xml version="1.0" standalone="no"?>
<!DOCTYPE svg PUBLIC "-//W3C//DTD SVG 1.1//EN" "http://www.w3.org/Graphics/SVG/1.1/DTD/svg11.dtd" >
<svg xmlns="http://www.w3.org/2000/svg" xmlns:xlink="http://www.w3.org/1999/xlink" version="1.1" viewBox="-10 0 1034 1024">
  <g transform="matrix(1 0 0 -1 0 820)">
   <path fill="currentColor"
d="M195 238q12 10 26 21q-4 -129 -41 -222q-49 -126 -123 -152q30 -13 53 -33q31 39 56 72q45 72 68 154q24 87 24 224v297l653 -1q24 0 33 -4l2 -1v47q-19 -3 -23 -4h-665q-12 3 -42 4q1 -36 5 -74v-258q-66 -54 -113 -86q-39 -27 -62 -33q27 -31 36 -46q27 28 53 49z
M611 688q-18 12 -73 56q-12 9 -23 16q-6 4 -11 9q-12 -18 -29 -36q39 -21 71 -46q34 -24 58 -51q12 18 31 35q-12 9 -24 17zM61 530q9 -6 70 -87q6 -6 15 -23l11 -22q16 16 36 27l-54 75q-18 24 -45 56q-16 -15 -33 -26zM530 226l-11 -264q-1 -54 -27 -63q-22 -6 -43 -6
q-24 0 -50 7q12 -21 20 -50q108 7 124 37q7 19 11 43q1 16 3 44l2 78l5 115l7 100q-28 -1 -57 -5h-87l5 127q181 -3 188 -6v47q-19 -3 -23 -4h-284q-18 1 -28 4v-47q3 0 8 3q54 3 101 3q0 -39 -3 -79l-6 -110q-15 -169 -81 -261q-49 -66 -97 -77q28 -15 53 -33q63 60 99 126
q42 87 60 221l7 50h104zM549 282q34 -16 50 -27q54 67 83 112q30 48 67 122q16 -39 28 -62q9 -18 25 -43q49 -70 126 -143q19 22 51 38q-54 21 -99 68q-67 73 -110 187q9 15 23 24q-21 6 -59 24q-6 -51 -42 -126q-39 -76 -82 -125q-34 -39 -61 -49zM456 525q-46 46 -51 52
q-6 -6 -10 -12q-6 -6 -18 -16q36 -33 61 -59q22 -24 36 -44q12 15 31 30zM637 49q25 -15 55 -37l92 -66q40 -31 63 -51q13 -12 28 -32q13 22 29 40q-88 69 -119 91q-39 30 -123 89q-10 -16 -25 -34zM679 250q16 -9 64 -43q30 -21 75 -60q7 -6 17 -16q9 18 28 39
q-6 3 -158 116q-6 -12 -13 -20z" />
  </g>

</svg>
