<?xml version="1.0" standalone="no"?>
<!DOCTYPE svg PUBLIC "-//W3C//DTD SVG 1.1//EN" "http://www.w3.org/Graphics/SVG/1.1/DTD/svg11.dtd" >
<svg xmlns="http://www.w3.org/2000/svg" xmlns:xlink="http://www.w3.org/1999/xlink" version="1.1" viewBox="-10 0 1034 1024">
  <g transform="matrix(1 0 0 -1 0 820)">
   <path fill="currentColor"
d="M268 612l642 -1q9 0 41 -4v46q-39 -4 -66 -5h-264q12 18 30 34l-65 47q-36 25 -69 46q-12 -19 -29 -36q39 -21 70 -44q39 -27 58 -47h-318q-10 0 -38 3q-15 0 -35 2q1 -36 5 -72v-266q-108 -78 -181 -106q18 -25 33 -49q13 15 62 51l84 56q-4 -58 -15 -120
q-18 -96 -74 -187q-34 -54 -77 -81q36 -13 53 -25q58 73 92 145q30 70 46 146q15 87 15 178v289zM123 545l-16 20q-12 -12 -24 -18l-13 -7l23 -27l33 -43q30 -45 43 -73q19 15 37 31zM593 69l-293 3q-3 1 -13 2v-46q33 4 65 5h241v-128q0 -42 -5 -66h48q-4 24 -5 55v139
l303 -1q4 0 38 -4v46q-16 -3 -26 -3q-19 0 -39 -2h-276q0 63 3 70q1 10 10 24h-56l4 -35zM507 280l-31 25q25 48 33 56q9 12 27 17q-10 4 -21 10q-1 0 -20 9q-7 3 -16 8q-15 -45 -66 -126q-51 -72 -106 -114q27 -7 45 -23l58 70q21 25 45 60q72 -51 103 -93q12 21 29 42z
M397 463q-25 1 -51 3q-9 3 -14 3v-47q22 4 65 5h451q31 0 52 -3q1 0 14 -2v47q-15 -3 -28 -4q-16 0 -38 -2h-187l22 25l-119 91q-13 -21 -31 -37q67 -33 107 -79h-243zM874 232q-102 82 -110 89q4 7 10 18q19 36 43 48q-6 1 -36 17q-6 3 -17 10q-18 -54 -62 -121
q-36 -54 -90 -100q27 -10 42 -24q40 48 55 67l36 50q60 -42 136 -125q12 22 30 41q-19 15 -37 30v0z" />
  </g>

</svg>
