<?xml version="1.0" standalone="no"?>
<!DOCTYPE svg PUBLIC "-//W3C//DTD SVG 1.1//EN" "http://www.w3.org/Graphics/SVG/1.1/DTD/svg11.dtd" >
<svg xmlns="http://www.w3.org/2000/svg" xmlns:xlink="http://www.w3.org/1999/xlink" version="1.1" viewBox="-10 0 1010 1000">
   <path fill="currentColor"
d="M579 -12q11 30 31 97l3 9h175q69 0 93 -1q31 -1 48 -3v85q-69 -10 -143 -10h-522q-3 119 -6 286q90 -103 139 -274q96 38 87 48l-4 4q-25 18 -83 133v416q0 88 8 119h-92q6 -21 6 -117v-299q-2 3 -5 8q-23 33 -34 51l-26 -38q-15 221 -131 367q-29 -29 -87 -45
q129 -100 147 -328q-102 69 -125 90l-38 -84q52 -16 165 -73q2 -131 0 -224q-2 -91 -8 -121q46 11 146 10h201q-17 -55 -44 -94zM125 161q10 70 20 193l-78 4q8 -80 -17 -189zM825 223q-6 16 -20 59q-15 45 -25 72h35q72 -1 110 -4v71q-30 -6 -106 -6h-202q4 1 11 4
q26 7 23 14q-1 3 -7 7q-21 15 -43 43h179q55 0 97 -6v73q-30 -6 -95 -6h-72q0 6 -1 24q-1 32 -1 53h115q81 -1 104 -4v74q-41 -8 -100 -8h-109q64 104 219 145q-42 33 -70 81q-132 -72 -188 -176q-62 104 -203 174q-23 -40 -65 -67q160 -39 214 -157h-77q-78 0 -106 6v-76
q21 5 104 8h93q3 -17 6 -77h-85q-25 22 -52 56q-28 -23 -68 -34q73 -49 127 -151h-13q-72 0 -102 6q6 -42 0 -73q30 6 104 6h156l20 -66h-101q-75 0 -105 6v-71q24 3 107 6h67q87 0 125 -6z" />
</svg>
