<?xml version="1.0" standalone="no"?>
<!DOCTYPE svg PUBLIC "-//W3C//DTD SVG 1.1//EN" "http://www.w3.org/Graphics/SVG/1.1/DTD/svg11.dtd" >
<svg xmlns="http://www.w3.org/2000/svg" xmlns:xlink="http://www.w3.org/1999/xlink" version="1.1" viewBox="-10 0 1034 1024">
  <g transform="matrix(1 0 0 -1 0 820)">
   <path fill="currentColor"
d="M457 -99q0 -36 -2 -51q0 -1 -3 -12h48q-3 31 -5 63v215l98 -82q30 -30 51 -55q16 25 31 40q-12 9 -22 17q-126 105 -158 129v4q99 0 114 -2q10 0 23 -3q-1 1 10 -2q-4 52 -5 103l5 109q-54 -6 -67 -6h-80v92l154 -1q12 0 26 -5v47q-9 -3 -23 -3q-18 0 -41 -2h-116v24
q0 27 14 65h-57q1 -31 5 -65v-24q-126 0 -151 2l-17 3v-47q12 6 52 6h116v-92q-66 0 -87 2q-3 0 -42 4q1 -31 5 -64q0 -84 -2 -115q-3 -3 -3 -33q6 0 9 1l2 1q42 4 62 5h43q-69 -100 -156 -174q-34 -25 -78 -42q19 -15 42 -39q69 55 119 104q45 45 86 102v-219zM370 204v131
h87v-131h-87zM495 204v131h104v-131h-104zM777 70q-4 12 -5 35l-1 331q0 28 14 65h-57q0 -9 3 -18l2 -187l-3 -213q-1 -3 -2 -13h49zM913 516q0 30 14 65h-57q1 -31 5 -65l-1 -577q-3 -13 -9 -25q-21 -21 -69 -21q-21 0 -47 6q9 -19 12 -30q3 -9 4 -22q105 9 133 41
q15 16 15 58v570zM89 182q4 6 11 10q51 39 96 68q7 6 13 8q4 3 12 8q-3 -124 -23 -201q-18 -75 -62 -139q-33 -45 -63 -61q25 -9 55 -31q84 126 109 224q22 94 23 347v205h647q24 0 50 -3q4 0 12 -4v48l-62 -6h-274q7 15 26 33l-73 51q-30 18 -60 39q-21 -27 -25 -32
q90 -55 123 -91l-353 1q-33 4 -51 5h-3q1 -34 5 -70v-268q-37 -27 -93 -61q-42 -27 -79 -40q18 -21 33 -45q3 3 6 5zM153 460q0 3 -43 58q-12 -9 -32 -23q21 -25 35 -45q33 -51 42 -69q3 -7 7 -19q21 15 41 25q-6 9 -15 22q-18 25 -35 51v0z" />
  </g>

</svg>
