<?xml version="1.0" standalone="no"?>
<!DOCTYPE svg PUBLIC "-//W3C//DTD SVG 1.1//EN" "http://www.w3.org/Graphics/SVG/1.1/DTD/svg11.dtd" >
<svg xmlns="http://www.w3.org/2000/svg" xmlns:xlink="http://www.w3.org/1999/xlink" version="1.1" viewBox="-10 0 1034 1024">
  <g transform="matrix(1 0 0 -1 0 820)">
   <path fill="currentColor"
d="M232 635q1 -34 5 -70v-258q-57 -34 -107 -62q-52 -25 -72 -29q28 -36 35 -49q24 27 143 91q-3 -153 -44 -243q-45 -99 -110 -129q30 -12 56 -31q78 105 106 195q27 90 30 248l1 296l637 -1q10 0 24 -5v47q-27 -1 -53 -5h-263q3 6 6 9q7 13 18 22l-61 52q-24 21 -48 40
q-9 7 -16 15q0 -1 -3 -4q-1 -1 -5 -7q-3 -3 -10 -12l-8 -8l-1 -2q60 -36 121 -105l-331 1q-19 3 -50 4zM115 555q-18 -13 -33 -21q43 -57 78 -147q10 6 15 8q7 3 22 12q0 3 -3 7q0 3 -7 13q-25 54 -44 85q-9 13 -17 27q0 1 -3 5q-3 6 -8 11zM337 527q1 -33 5 -66l-5 -616h48
q-4 57 -5 112v64l198 -1q13 0 28 -3l2 -1v46q-31 -1 -64 -5h-164v111l211 -3q3 -3 9 -4v48q-51 -6 -74 -6h-146v107q174 0 190 -2q19 0 41 -3q-4 54 -5 109l5 113q-66 -4 -79 -5l-148 1q-19 3 -47 4zM380 346v139h188v-139h-188zM915 -134q6 -3 9 -7q1 0 3 3q30 30 33 30
q4 4 12 8q-36 7 -68 27l-47 30q-54 48 -60 54q27 40 42 66q12 21 27 53q21 48 41 111q-36 -1 -73 -5l-192 1q-6 1 -13 2v-42q12 1 25 3q21 -90 94 -190q-46 -52 -106 -86q-42 -22 -99 -32q27 -21 44 -43q57 27 95 53q34 25 91 79q75 -70 111 -94q15 -10 31 -21zM853 200
q-18 -75 -80 -161q-57 67 -80 161h160zM881 529q-75 -3 -116 -4l-105 3q-3 1 -13 2v-46q19 4 68 5h134v-142l-147 1l-36 1q-6 3 -13 3v-46q54 4 109 5q76 0 91 -2q18 0 39 -3q-4 54 -5 78q0 90 2 104q0 21 3 42q-6 0 -11 -1v0z" />
  </g>

</svg>
