<?xml version="1.0" standalone="no"?>
<!DOCTYPE svg PUBLIC "-//W3C//DTD SVG 1.1//EN" "http://www.w3.org/Graphics/SVG/1.1/DTD/svg11.dtd" >
<svg xmlns="http://www.w3.org/2000/svg" xmlns:xlink="http://www.w3.org/1999/xlink" version="1.1" viewBox="-10 0 1010 1000">
   <path fill="currentColor"
d="M599 -12q5 23 23 89q3 11 5 17h167q98 -2 139 -10v83q-40 -4 -129 -6h-528q4 175 0 282q-4 109 -17 183q-21 136 -108 255l-93 -37q122 -108 136 -324q-75 47 -123 84l-39 -86q72 -19 168 -69q4 -191 -13 -363q26 5 166 8h191q-17 -58 -38 -94zM552 191q86 1 101 12
q1 4 -5 13q-13 20 -13 42q-3 241 -8 308h173v-101l-50 2q-42 0 -57 1q-18 1 -28 3v-70q20 0 87 6h46v-87h-64q-57 -1 -67 4v-72q32 4 73 4h52q66 0 87 -6q-5 36 -6 123v139q0 99 4 127q-30 -6 -103 -6h-119q60 154 301 175q-34 35 -61 93q-222 -62 -298 -222
q-61 131 -299 228q-24 -46 -70 -79q244 -44 308 -195h-98q-71 1 -109 6q7 -33 10 -119v-143q-1 -69 -8 -115q61 7 167 -29q45 69 36 71q-5 3 -17 3q-41 -2 -102 9v93h39q48 -3 72 -8v74q-27 -5 -78 -6h-33v97h137q21 -236 0 -375zM129 205l9 45q10 49 25 137l-74 10
q0 -70 -27 -184z" />
</svg>
