<?xml version="1.0" standalone="no"?>
<!DOCTYPE svg PUBLIC "-//W3C//DTD SVG 1.1//EN" "http://www.w3.org/Graphics/SVG/1.1/DTD/svg11.dtd" >
<svg xmlns="http://www.w3.org/2000/svg" xmlns:xlink="http://www.w3.org/1999/xlink" version="1.1" viewBox="-10 0 1034 1024">
  <g transform="matrix(1 0 0 -1 0 820)">
   <path fill="currentColor"
d="M270 604l644 -1q24 0 37 -4q1 0 3 -1v47q-33 -1 -66 -5h-286q10 18 31 33q-12 9 -44 38q-15 15 -66 61q-15 -18 -31 -35q55 -34 103 -97l-313 1q-19 3 -55 4q1 -22 2 -38q3 -24 3 -35v-265q-145 -75 -185 -88q18 -24 32 -51q45 40 152 92q-18 -210 -100 -324
q-36 -46 -79 -69q25 -6 56 -27q45 48 82 115q54 100 69 222l11 148v279zM116 555q-16 -15 -36 -27q24 -27 48 -65q27 -46 41 -81q15 15 39 29zM342 -97q-57 0 -82 2q-9 3 -20 3v-46q33 3 66 5l633 -1q6 0 39 -4v46q-33 -1 -65 -5h-31l1 201l4 50q-33 -1 -66 -5l-438 1
q-7 1 -16 2q-12 0 -30 2q1 -31 5 -65v-186zM379 -97v210h127v-210h-127zM544 -97v210h126v-210h-126zM708 -97v210h136v-210h-136zM380 305q-3 -34 -5 -71q36 3 72 5l345 -1l49 -4q-4 60 -5 82l1 166l4 46q-34 -1 -69 -5l-346 1q-7 1 -16 2q-15 0 -35 2q1 -19 2 -32
q3 -24 3 -32v-159zM418 275v86h380v-86h-380zM798 487v-90h-380v90h380z" />
  </g>

</svg>
