<?xml version="1.0" standalone="no"?>
<!DOCTYPE svg PUBLIC "-//W3C//DTD SVG 1.1//EN" "http://www.w3.org/Graphics/SVG/1.1/DTD/svg11.dtd" >
<svg xmlns="http://www.w3.org/2000/svg" xmlns:xlink="http://www.w3.org/1999/xlink" version="1.1" viewBox="-10 0 1010 1000">
   <path fill="currentColor"
d="M315 584q42 3 98 4h377q41 0 97 -4q-6 30 -6 79v143q30 0 83 -8v81q-32 -8 -143 -8h-474q-72 1 -115 8v-75q44 4 87 4v-135q0 -54 -4 -89zM847 229q-6 41 -6 109v97q0 43 1 62q1 22 3 39q-41 -6 -89 -6h-325q-46 0 -78 8q6 -39 6 -85v-135q0 -54 -6 -91q56 8 111 8h242
q79 0 141 -6zM599 -13q7 17 15 37q10 22 23 70h145q87 0 162 -14v99q-74 -12 -170 -12h-490q2 341 -22 438q-24 130 -121 292q-32 -39 -89 -55q118 -118 148 -344q-14 6 -137 90q-7 -55 -29 -100q63 -9 168 -63q1 -33 2 -77v-47v-70q-3 -109 -12 -147q70 10 135 10h221
q-1 0 -7 -14q-21 -45 -35 -66zM437 294v62h329v-62h-329zM437 415v56h329v-56h-329zM712 653v155h96v-155h-96zM486 653h-93v155h93v-155zM127 195q18 97 30 192l-76 12q-4 -102 -25 -192zM556 653v155h87v-155h-87z" />
</svg>
