<?xml version="1.0" standalone="no"?>
<!DOCTYPE svg PUBLIC "-//W3C//DTD SVG 1.1//EN" "http://www.w3.org/Graphics/SVG/1.1/DTD/svg11.dtd" >
<svg xmlns="http://www.w3.org/2000/svg" xmlns:xlink="http://www.w3.org/1999/xlink" version="1.1" viewBox="-10 0 1010 1000">
   <path fill="currentColor"
d="M581 -6q13 53 24 100h183q106 -3 127 -8v79q-33 -6 -125 -6h-526v176q-1 66 -2 114q90 6 242 -26q-92 -61 -147 -145l-51 6v-67q25 3 127 4h283q96 -1 131 -4q-71 131 -190 202q60 16 143 21q81 5 148 -3q-23 35 -39 89q-224 -28 -330 -69q-125 40 -273 61
q-10 -37 -44 -63q-8 236 -137 434q-9 -6 -23 -15q-37 -26 -68 -36q134 -100 158 -361q-68 46 -127 99l-35 -91q86 -37 162 -82q2 -211 -11 -313q13 2 52 3q19 1 49 1h85h157q-18 -54 -42 -90zM121 153q16 73 38 209l-78 15q5 -82 -33 -210zM734 278h-307q43 67 150 119
q96 -44 157 -119zM587 286q13 24 28 66l-52 15q-4 -31 -31 -67zM542 481q8 1 24 2q68 5 65 11q0 2 -3 5q-15 16 -15 51h117q87 -3 117 -6q-4 46 -4 73v36q0 15 4 59q2 12 2 17q-2 0 -9 -2q-32 -6 -52 -6q83 82 143 146l-84 38q10 2 -41 -63q-374 12 -548 35q-4 -33 -20 -79
q62 4 163 3q119 -1 143 -5v-75h-151l4 25h-82q7 -38 8 -79v-55q0 -51 -4 -68q32 5 121 6h106q0 -45 -4 -69zM393 602v67h151v-67h-151zM613 602v67h161v-67h-161zM613 721v75l153 -8q-19 -23 -46 -44l60 -23h-167z" />
</svg>
