<?xml version="1.0" standalone="no"?>
<!DOCTYPE svg PUBLIC "-//W3C//DTD SVG 1.1//EN" "http://www.w3.org/Graphics/SVG/1.1/DTD/svg11.dtd" >
<svg xmlns="http://www.w3.org/2000/svg" xmlns:xlink="http://www.w3.org/1999/xlink" version="1.1" viewBox="-10 0 1034 1024">
  <g transform="matrix(1 0 0 -1 0 820)">
   <path fill="currentColor"
d="M640 50v-149l-257 1l-18 2q-3 0 -12 2v-47q1 0 38 5l486 1q46 0 62 -6v47q-9 -3 -22 -3q-18 0 -40 -2h-199v149q168 0 184 -2q7 0 18 -4v46q-19 -3 -23 -4l-356 -1q12 16 23 33q12 19 33 57h341q24 0 51 -3q4 0 13 -3v47q-6 0 -13 -3l-211 -2h-161q13 39 27 84l241 -1
q3 0 28 -5v46q-6 0 -12 -3l-150 -2h-98q4 27 18 86h225q33 0 51 -3q4 0 12 -4v48q-3 0 -8 -2l-15 -2l-40 -1h-146q24 36 46 62q21 30 50 44q-18 9 -28 19l-20 15q-25 -43 -47 -74q-18 -30 -47 -66l-297 1q-9 1 -15 2q-3 0 -12 2v-48q9 6 37 6l212 1q-6 -43 -17 -86h-133
q-45 0 -65 5v-46q7 3 28 4q12 1 160 2q-13 -46 -29 -84h-163q-48 0 -66 5v-47q1 1 40 5l168 1q-42 -75 -100 -133q-75 -73 -132 -92q27 -16 52 -34q36 30 65 56q30 28 77 78h166zM447 547q12 -12 26 -23q22 -19 33 -31l32 -36q12 16 32 32l-94 88q-12 -15 -29 -30zM265 600
q649 0 662 -2q4 0 17 -4v47l-98 -5h-229q9 12 15 22q6 6 10 11q-63 48 -129 95q-3 3 -10 7q-4 -7 -27 -38q12 -9 20 -13q7 -6 76 -54q12 -9 33 -30l-333 1q-3 0 -50 4q1 -34 5 -70v-278q-21 -16 -41 -30q-21 -15 -55 -37q-40 -27 -78 -43q18 -18 34 -42q21 18 36 29l68 51
q27 18 35 26q-7 -148 -56 -244q-51 -96 -108 -119q33 -12 56 -29q49 63 62 84q46 73 68 169q6 36 12 87q3 51 5 97v308zM146 491q0 3 -49 56q-15 -15 -31 -29q69 -69 100 -127q15 15 37 30q-4 6 -57 70v0z" />
  </g>

</svg>
