<?xml version="1.0" standalone="no"?>
<!DOCTYPE svg PUBLIC "-//W3C//DTD SVG 1.1//EN" "http://www.w3.org/Graphics/SVG/1.1/DTD/svg11.dtd" >
<svg xmlns="http://www.w3.org/2000/svg" xmlns:xlink="http://www.w3.org/1999/xlink" version="1.1" viewBox="-10 0 1034 1024">
  <g transform="matrix(1 0 0 -1 0 820)">
   <path fill="currentColor"
d="M428 372q7 -9 14 -19l16 -20l23 -40q24 18 34 25q-9 15 -32 41l-38 53q-13 -13 -29 -22zM535 212v-286q0 -36 -46 -36q-18 0 -47 5q10 -25 17 -50q61 3 84 14q28 15 29 65v516q1 13 4 27q0 18 2 35q-60 -4 -91 -5h-31q4 9 9 17q16 33 46 56q-30 12 -52 26
q-15 -51 -38 -99q-19 0 -70 5q1 -28 5 -58v-196l-49 1q-10 0 -20 4v-47q3 4 69 6q-6 -136 -38 -218q-39 -91 -92 -123q30 -12 48 -26q63 82 88 156q25 75 31 211h142zM393 248v213h142v-213h-142zM505 70q-39 54 -61 83q-9 -7 -15 -11q-7 -6 -17 -10l38 -52q18 -27 34 -55
q30 24 34 26zM771 -24q66 -63 161 -118q13 21 34 47q-84 10 -173 104q40 61 62 124q9 30 40 110q-30 -1 -62 -5l-213 3q-3 0 -17 2v-46q9 3 41 5q19 -57 43 -106q21 -39 57 -91q-48 -51 -64 -64q-54 -40 -92 -49q30 -25 44 -41l46 40q40 33 57 49zM835 202q-18 -84 -68 -163
l-6 9q-28 45 -44 75q-12 24 -27 73q-1 4 -2 6h147zM821 490v-139q0 -34 18 -47q15 -10 61 -11q21 0 53 -3q1 15 12 50l-26 -6q-16 -3 -44 -3q-21 0 -28 6q-9 9 -9 26l1 124q1 21 5 43q-51 -4 -76 -5q-75 0 -100 2q-6 3 -31 3q6 -55 6 -77q0 -85 -40 -130q-12 -10 -34 -24
q1 0 44 -29l1 -1q37 45 52 91q15 51 16 130h119zM95 174q123 84 127 87q-3 -93 -14 -147q-9 -57 -33 -106q-42 -96 -108 -125q28 -12 53 -30q33 45 62 90q49 82 64 168q6 39 11 89q3 48 4 84v320l646 -1q21 0 36 -5v47q-19 -3 -23 -4l-312 -1q13 19 29 37l-62 43
q-34 21 -40 26l-25 17q-15 -21 -26 -33q93 -55 123 -90l-339 1q-15 3 -50 4q1 -33 5 -69v-268q-18 -15 -37 -27q-21 -15 -59 -39q-39 -24 -81 -41q21 -24 30 -43q9 9 19 16zM177 443l-51 64l-38 42l-32 -27q30 -30 39 -42q24 -36 43 -59q7 -12 15 -28l32 24q3 0 9 5
q-9 10 -17 21v0z" />
  </g>

</svg>
