<?xml version="1.0" standalone="no"?>
<!DOCTYPE svg PUBLIC "-//W3C//DTD SVG 1.1//EN" "http://www.w3.org/Graphics/SVG/1.1/DTD/svg11.dtd" >
<svg xmlns="http://www.w3.org/2000/svg" xmlns:xlink="http://www.w3.org/1999/xlink" version="1.1" viewBox="-10 0 1010 1000">
   <path fill="currentColor"
d="M591 6q12 49 20 96h153q36 0 165 -6v79q-30 -6 -163 -6h-492q2 172 -2 273q-5 103 -19 175q-21 125 -120 278q-35 -26 -93 -45q144 -129 156 -358q-36 22 -111 65q-16 9 -23 13l-32 -85q89 -14 168 -54q2 -106 -1 -186q-3 -76 -12 -145q10 1 39 2h35h60h209
q-10 -51 -38 -88zM681 181q64 22 85 34q0 6 -14 15q-26 19 -46 42h80q83 -3 127 -10v74q-28 -9 -120 -8h-9h-175q-1 8 -5 29q-4 22 -5 30h141q84 -3 115 -6v70q-38 -7 -115 -8h-153q-12 45 -20 63h187q66 0 159 -8v74q-36 -9 -139 -10h-230q-13 25 -40 61q22 7 93 6h139
q96 -1 129 -6v76q-43 -6 -135 -6h-59v93h95q101 -1 176 -8v76q-91 -4 -182 -4h-214q-161 0 -189 10v-84q19 1 54 3q57 3 141 7h49v-93h-34q-66 0 -95 4v-34q-38 45 -125 113q-51 38 -61 44q-21 -29 -74 -66q141 -43 250 -192h-65q-1 1 -30 3q-60 3 -75 7v-72q49 6 103 6h101
q3 -11 13 -36q6 -19 9 -27h-85q-81 1 -112 6v-70q10 2 85 6q17 1 27 2h97q1 -4 3 -14q6 -30 7 -45h-127q-85 0 -111 6v-68q20 3 107 6h55q-21 -33 -51 -65l69 -24q45 51 56 75l-26 14h111q47 -54 58 -91zM135 189q16 78 26 192l-74 6q5 -92 -24 -192z" />
</svg>
