<?xml version="1.0" standalone="no"?>
<!DOCTYPE svg PUBLIC "-//W3C//DTD SVG 1.1//EN" "http://www.w3.org/Graphics/SVG/1.1/DTD/svg11.dtd" >
<svg xmlns="http://www.w3.org/2000/svg" xmlns:xlink="http://www.w3.org/1999/xlink" version="1.1" viewBox="-10 0 1010 1000">
   <path fill="currentColor"
d="M597 -6q18 45 28 104h187q97 -3 130 -8v79q-46 -6 -130 -8h-542q2 186 -2 282q-4 103 -15 176q-21 141 -100 280q-4 -3 -15 -12q-34 -30 -71 -43q119 -116 125 -334q-82 32 -160 82l-16 -100q48 -1 178 -53q3 -280 -4 -316q-2 -20 -3 -33q32 6 95 8h266q-17 -57 -42 -88z
M669 183q92 3 89 12q0 3 -4 11q-12 23 -12 50h56q70 0 118 -8q9 -2 11 -2v74q-2 0 -10 -1q-46 -7 -119 -7h-54q2 48 8 73h-83q0 -4 2 -13q4 -26 4 -60h-181q0 48 6 67h-83q6 -24 8 -65q-84 2 -125 8v-76q45 6 127 10q1 -57 -8 -75q87 1 93 10q0 2 -4 11q-14 27 -14 54h181
q0 -33 -5 -65q-1 -6 -1 -8zM117 181q15 61 30 212l-84 10q0 -115 -25 -214zM575 413q-56 56 -131 105q31 6 98 8h79q78 -1 105 -6q-69 -40 -144 -102q-6 -4 -7 -5zM355 639q46 6 125 8h242q58 -1 99 -8q-8 41 -8 86v131q1 32 4 47h-83q4 -21 4 -47h-303q0 12 2 32q1 9 1 13
h-81q5 -13 6 -43v-137q-1 -54 -8 -82zM435 707v89h303v-89h-303zM558 326q68 20 79 30q0 2 -6 5q-11 6 -14 12q148 131 327 155q-38 36 -55 78q-69 -26 -159 -84l2 72q-29 -7 -111 -8h-79q-72 2 -105 8v-64q-47 35 -116 80q-14 -29 -55 -56q170 -72 292 -228z" />
</svg>
