<?xml version="1.0" standalone="no"?>
<!DOCTYPE svg PUBLIC "-//W3C//DTD SVG 1.1//EN" "http://www.w3.org/Graphics/SVG/1.1/DTD/svg11.dtd" >
<svg xmlns="http://www.w3.org/2000/svg" xmlns:xlink="http://www.w3.org/1999/xlink" version="1.1" viewBox="-10 0 1034 1024">
  <g transform="matrix(1 0 0 -1 0 820)">
   <path fill="currentColor"
d="M617 665q9 15 26 30q-24 21 -64 48q-36 24 -67 43q-3 -4 -8 -10q-10 -12 -22 -27q76 -33 128 -84l-346 1q-19 3 -49 4q1 -24 2 -38q3 -21 3 -31v-280q-34 -18 -93 -46q-39 -18 -88 -32q18 -25 29 -53q30 27 51 34q15 10 57 31l43 20q-9 -147 -48 -242q-48 -114 -113 -151
q9 -3 18 -7q25 -9 30 -10q3 -1 11 -4q30 39 55 82q45 88 64 178q21 100 22 274v234h624q34 0 67 -5v46q-15 -1 -20 -2l-136 -3h-176zM106 592q-21 -13 -42 -22q58 -81 70 -158q18 10 45 20q-16 45 -36 89q-21 45 -37 71zM988 -116l-96 6q-25 4 -54 12q-21 6 -85 27
q-40 16 -87 44q87 69 166 170q7 12 17 22l9 12q-109 -4 -113 -5h-121v84l233 -1l49 -4q-6 60 -6 73l1 168q0 18 5 52q-72 -4 -108 -5q-48 0 -75 2q-1 0 -30 3v-46q54 4 109 5h61v-90l-119 1q-9 1 -21 2q-3 0 -20 2v-46q25 4 69 5h91v-87h-239v235q0 15 3 32q1 18 10 33h-56
q4 -49 5 -65v-235h-205v86h85q22 0 67 -5v46q-30 -4 -67 -5h-85v90q135 12 146 12q7 0 19 -3q-18 28 -30 55q-16 -7 -49 -16q-54 -12 -93 -13q-15 0 -37 2q1 -33 5 -68l-1 -175q-3 -15 -4 -45q30 3 62 5h187v-84l-211 1q-7 1 -41 4v-46q54 4 106 5q30 -46 58 -76
q25 -27 93 -85q-36 -21 -66 -35q-61 -25 -123 -46q-84 -24 -135 -24l-30 1q18 -24 33 -51q193 37 358 130q48 -28 83 -47q36 -15 91 -34l84 -26q31 -7 67 -15q12 24 22 37q6 10 13 19zM776 136q-57 -78 -147 -141q-87 61 -145 141h292z" />
  </g>

</svg>
