<?xml version="1.0" standalone="no"?>
<!DOCTYPE svg PUBLIC "-//W3C//DTD SVG 1.1//EN" "http://www.w3.org/Graphics/SVG/1.1/DTD/svg11.dtd" >
<svg xmlns="http://www.w3.org/2000/svg" xmlns:xlink="http://www.w3.org/1999/xlink" version="1.1" viewBox="-10 0 1034 1024">
  <g transform="matrix(1 0 0 -1 0 820)">
   <path fill="currentColor"
d="M268 613h596q27 0 52 -3l13 -2v45q-15 -3 -27 -3q-19 0 -38 -2h-224q1 3 4 7q6 12 20 26l-80 53q-33 21 -59 37q-12 -18 -28 -37q75 -33 133 -86l-357 1q-1 0 -48 4q1 -40 5 -82v-254q-84 -63 -171 -113q30 -39 32 -43q16 15 43 36l96 75q0 -87 -7 -129q-18 -96 -66 -171
q-34 -48 -91 -88q33 -12 52 -27q60 69 89 118q51 93 58 201l3 114v323zM119 552q-13 -9 -25 -15q-6 -3 -14 -6q51 -66 69 -130q22 13 41 26q-15 30 -34 62q-18 33 -37 63zM330 163q73 39 147 86q78 54 140 119q129 -123 334 -175q18 30 26 37q3 3 7 6q-90 4 -191 54
q-81 39 -153 105q9 10 32 24q-24 6 -54 21q-28 -54 -106 -120q-114 -91 -222 -118q15 -12 28 -26q6 -6 12 -13zM457 508q-96 0 -124 2q-9 3 -20 3v-44q31 4 66 5h78v-20q0 -43 -5 -66h47q0 3 -1 8q-3 6 -3 28l-1 50h250v-19q0 -42 -5 -66h48v3q-3 7 -4 36l-1 46l134 -1
q4 0 38 -4v44q-33 -1 -66 -5h-106q0 51 3 58q1 12 10 23h-56q0 -12 5 -58q-1 -1 0 -6v-17h-250q0 46 3 55q1 12 10 22h-55q1 -31 5 -64v-13zM432 -158l-4 40v31h397q-1 -31 -3 -64q-1 -1 -1 -4h47q-3 9 -3 20l-2 99l1 115q0 3 4 43q-64 -4 -68 -5l-366 1q-19 3 -49 4
q1 -30 5 -60l-1 -187q-1 -7 -2 -18q0 -3 -2 -15h47zM428 -53v136h397v-136h-397zM464 184q22 4 65 5l266 -1l25 -4v45l-43 -4h-285q-15 3 -28 4v-45z" />
  </g>

</svg>
