<?xml version="1.0" standalone="no"?>
<!DOCTYPE svg PUBLIC "-//W3C//DTD SVG 1.1//EN" "http://www.w3.org/Graphics/SVG/1.1/DTD/svg11.dtd" >
<svg xmlns="http://www.w3.org/2000/svg" xmlns:xlink="http://www.w3.org/1999/xlink" version="1.1" viewBox="-10 0 1034 1024">
  <g transform="matrix(1 0 0 -1 0 820)">
   <path fill="currentColor"
d="M246 319q-97 -57 -177 -87q15 -24 25 -53q27 24 148 94q-13 -190 -84 -303q-30 -45 -72 -84q27 -3 57 -18q36 46 60 94q48 90 67 192q12 73 13 172v288l630 -1q22 0 39 -5v47q-30 -4 -66 -5h-241q6 12 20 24q3 3 7 6q-69 57 -134 97q-12 -15 -32 -35q69 -34 127 -92
l-345 1q-1 0 -48 4q6 -66 6 -85v-251zM146 535q-4 7 -28 37q-24 -18 -36 -24q6 -4 21 -25q12 -18 27 -37q33 -54 47 -81q18 16 36 28zM629 354l-72 108q-15 -12 -36 -25q16 -18 37 -48q-91 -55 -139 -82v179l106 22l47 10l51 5q-19 15 -43 49q-36 -18 -91 -31
q-22 -6 -45 -10q-25 -3 -68 -6q4 -99 5 -105q0 -93 -2 -111q-1 -3 -2 -9q-3 -9 -16 -19q19 -21 32 -41l54 38l28 17q25 15 67 43q10 7 36 21q9 -12 16 -27l9 -24q16 15 37 29q-6 9 -11 17zM881 204l-56 -4l-406 1q-3 0 -47 5q1 -31 5 -64l-5 -311h47q-3 63 -4 68h434l-4 -65
h47q-3 36 -5 73l1 253l4 46q-6 0 -11 -2zM415 -65v93h197v-93h-197zM612 64h-197v102h197v-102zM650 -65v93h199v-93h-199zM650 64v102h199v-102h-199zM874 481l-8 -137q-1 -7 -4 -15q-13 -31 -58 -32q-15 0 -44 5q10 -13 20 -49q21 0 60 7q31 9 48 31q19 31 23 124
q1 36 3 59q0 24 5 48q-30 -1 -62 -5l-180 1q-12 3 -32 3q-3 1 -5 1v-47q18 6 62 6h20q-6 -121 -77 -187q-24 -21 -59 -34q27 -7 49 -32q67 58 94 108q12 25 18 44q6 18 12 65q3 18 5 36h110z" />
  </g>

</svg>
