<?xml version="1.0" standalone="no"?>
<!DOCTYPE svg PUBLIC "-//W3C//DTD SVG 1.1//EN" "http://www.w3.org/Graphics/SVG/1.1/DTD/svg11.dtd" >
<svg xmlns="http://www.w3.org/2000/svg" xmlns:xlink="http://www.w3.org/1999/xlink" version="1.1" viewBox="-10 0 1034 1024">
  <g transform="matrix(1 0 0 -1 0 820)">
   <path fill="currentColor"
d="M220 652q1 -36 5 -73v-273q-19 -15 -83 -47q-63 -31 -92 -42q15 -24 27 -50q24 22 59 45q43 24 88 51q-9 -186 -77 -298q-28 -45 -64 -72q33 -9 51 -22q15 21 29 42q13 21 28 51q42 85 62 205q9 64 9 171v271h646q24 0 52 -3l13 -2v46q-33 -1 -65 -5h-288l14 22
q-3 -1 9 10q-19 16 -73 54l-61 45q-12 -15 -33 -36q42 -22 74 -46q21 -15 58 -49l-338 1q-19 3 -50 4zM65 512q30 -33 61 -71q7 -9 46 -70q12 16 30 30q-10 16 -104 139q-15 -15 -33 -28zM533 13q-12 21 -25 39l-75 116q30 84 45 180q9 72 18 115q-21 -1 -33 -2
q-25 -3 -82 -3q-42 1 -86 3q-3 1 -12 2v-46q-3 0 9 1q72 3 111 4h48q-7 -75 -17 -130q-9 -48 -22 -91q-6 7 -57 79q-4 9 -25 36q-15 -12 -34 -21q54 -61 101 -135q-24 -54 -72 -123q-18 -24 -31 -38q-18 -18 -51 -44q24 -7 50 -22q66 78 126 197l50 -84q15 -27 28 -56
q18 12 36 23zM586 -93q0 -42 -5 -67h48q-1 4 -1 8q0 3 -4 62v21l313 -1q6 0 39 -4v46q-27 -4 -65 -5h-114v140q129 0 135 -3q3 0 8 -2v46q-43 -4 -81 -5h-62v114h78q27 0 52 -3l13 -2v46q-43 -4 -81 -5h-62v121q120 0 136 -2q12 -1 24 -4v47q-48 -6 -77 -6h-71l10 13
q9 9 19 17q-15 18 -33 37q-22 22 -66 63q-12 -15 -30 -30q70 -58 93 -100h-174l9 24l21 43q16 39 43 53q-4 1 -9 4q-15 6 -51 24q-12 -49 -62 -157q-27 -54 -51 -94q-24 -33 -54 -67q25 -9 47 -22q39 61 65 107v-457zM624 107h135v-140h-135v140zM624 143v114h135v-114h-135
zM759 293h-135v121h135v-121z" />
  </g>

</svg>
