<?xml version="1.0" standalone="no"?>
<!DOCTYPE svg PUBLIC "-//W3C//DTD SVG 1.1//EN" "http://www.w3.org/Graphics/SVG/1.1/DTD/svg11.dtd" >
<svg xmlns="http://www.w3.org/2000/svg" xmlns:xlink="http://www.w3.org/1999/xlink" version="1.1" viewBox="-10 0 1010 1000">
   <path fill="currentColor"
d="M599 -10q5 18 14 48q10 35 14 48h186q76 2 122 -6v81q-46 -6 -120 -6h-539q3 197 -2 297q-5 106 -20 176q-23 127 -133 263q-37 -40 -87 -59q144 -113 162 -330q-62 24 -148 80l-28 -95q60 -11 178 -56q10 -196 -6 -357q49 9 153 12h195q-14 -54 -38 -86zM137 177
q15 78 32 190l-80 10q2 -91 -26 -192zM339 201q20 4 169 4h218q86 0 114 -1q35 -1 51 -3q-6 40 -8 91v71q0 59 6 114q-30 -6 -123 -6h-44q76 46 76 59q-1 4 -14 5q-37 5 -72 23q-62 31 -144 70q-31 15 -44 21l254 -6q-16 -13 -45 -35l-15 -12l64 -28q45 30 143 127l-72 38
q-6 -10 -22 -31q-7 -9 -10 -13l-172 6v109q3 64 -19 75q-17 17 -116 26q2 -41 -38 -95q102 27 95 -18v-93q-130 5 -232 14q-8 -32 -27 -62q106 2 257 -77q-167 11 -214 20q-8 -36 -20 -66q67 6 155 -57h-53q-75 2 -96 8q4 -60 0 -6q4 -54 4 -108v-65q0 -44 -5 -89
q-1 -7 -1 -10zM417 258v56h160v-56h-160zM653 258v56h155v-56h-155zM417 365v52h160v-52h-160zM651 365v52h159v-52h-159zM710 471h-129l-103 59l169 -6q46 -30 63 -53zM442 717q23 17 54 37q27 17 22 18q-2 2 -11 1q-34 -1 -61 23q-13 12 -84 57q-45 28 -60 38
q-23 -38 -82 -71q140 -34 222 -103zM732 729q94 40 193 101l-66 57q-57 -54 -178 -111z" />
</svg>
