<?xml version="1.0" standalone="no"?>
<!DOCTYPE svg PUBLIC "-//W3C//DTD SVG 1.1//EN" "http://www.w3.org/Graphics/SVG/1.1/DTD/svg11.dtd" >
<svg xmlns="http://www.w3.org/2000/svg" xmlns:xlink="http://www.w3.org/1999/xlink" version="1.1" viewBox="-10 0 1010 1000">
   <path fill="currentColor"
d="M565 -15q16 46 28 103h189q102 -1 170 -8v77q-51 -8 -174 -8h-516q6 104 8 217q1 102 -4 154q141 0 272 -105h-42v-18q-84 32 -183 80q-1 -4 -4 -13q-10 -36 -29 -61q86 -5 216 -57v-96h-103q-61 2 -101 8v-69q10 2 76 6q15 1 23 2h87q71 0 93 -6q-7 34 -8 87v107
q63 45 84 58q114 72 307 91q-22 26 -46 76q-5 11 -7 15q-215 -67 -332 -166q-76 79 -261 137q-15 -35 -44 -52q-21 212 -103 349q-38 -27 -107 -33q121 -106 142 -348l-30 15q-74 34 -114 59l-26 -98q44 0 172 -49q-4 -315 -17 -359q59 6 164 8h161q2 -22 -38 -94zM131 199
q22 95 40 196l-74 14q-3 -91 -39 -190zM704 266q3 5 8 14q19 36 32 56l-65 22q-23 -51 -40 -76zM413 274q15 27 35 70l-67 21q-18 -54 -38 -75zM591 512q9 7 26 19q49 34 44 37q-1 3 -12 6q-26 7 -50 20q-109 54 -228 87q-8 -28 -52 -60q151 -3 272 -109zM688 584
q63 42 70 55q1 5 -27 11q-17 5 -21 7q-163 103 -335 125q-21 -40 -62 -65q240 -3 375 -133zM798 651q12 9 33 24q64 47 54 46q-3 1 -14 4q-23 6 -36 13q-222 141 -523 171q-18 -42 -62 -79q355 28 548 -179zM603 375q100 -4 195 -33v-94h-98q-85 0 -109 6v-65q24 6 105 6h86
q74 -3 95 -6q-9 36 -10 95v87q2 57 8 100h-81q1 -10 3 -43q0 -21 1 -35q-15 5 -59 14q-68 14 -88 24q-24 -32 -48 -56z" />
</svg>
