<?xml version="1.0" standalone="no"?>
<!DOCTYPE svg PUBLIC "-//W3C//DTD SVG 1.1//EN" "http://www.w3.org/Graphics/SVG/1.1/DTD/svg11.dtd" >
<svg xmlns="http://www.w3.org/2000/svg" xmlns:xlink="http://www.w3.org/1999/xlink" version="1.1" viewBox="-10 0 1010 1000">
   <path fill="currentColor"
d="M591 0q3 11 8 31q12 44 18 61h212q39 0 102 -8v81q-38 -9 -98 -8h-264q34 16 32 22q0 2 -5 5q-17 8 -33 29h161q100 0 133 -8q-8 23 -8 79v175q0 65 6 101q-29 -6 -83 -6h-99q109 79 281 91q-43 29 -59 84q-195 -60 -296 -175q-42 49 -139 107q5 2 16 2q12 1 12 4
q0 2 -2 6q-8 12 -8 40q131 -25 212 -60q50 58 50 70q-2 2 -13 2q-28 0 -60 6q-61 9 -144 25q-30 5 -45 8q-2 46 12 52q9 9 77 8h141q55 -1 73 -18q18 -13 27 -68q28 36 83 46q-24 69 -51 84q-25 20 -98 19h-218q-79 1 -96 -13q-22 -11 -21 -60v-115q-52 31 -99 55
q-16 -35 -48 -67q137 -35 256 -133h-91q-39 0 -78 10q6 -23 6 -68v-198q0 -42 -7 -86q-1 -5 -1 -7q14 4 48 5q16 1 39 1h64q25 -35 30 -54h-248q2 356 -23 469q-24 136 -118 271q-35 -34 -87 -43q136 -106 146 -352q-65 32 -114 69q-17 12 -22 13q-5 -46 -30 -92
q59 -7 170 -59l4 -135l-2 -115q0 -46 -5 -90q-1 -5 -1 -7q27 4 41 5q18 1 49 1h250q-13 -41 -36 -78zM137 177q10 58 25 173q2 17 3 25l-72 14q1 -89 -26 -202zM778 264h-353v50h353v-50zM778 362h-353v45h353v-45zM425 455v47h353v-47h-353z" />
</svg>
