<?xml version="1.0" standalone="no"?>
<!DOCTYPE svg PUBLIC "-//W3C//DTD SVG 1.1//EN" "http://www.w3.org/Graphics/SVG/1.1/DTD/svg11.dtd" >
<svg xmlns="http://www.w3.org/2000/svg" xmlns:xlink="http://www.w3.org/1999/xlink" version="1.1" viewBox="-10 0 1010 1000">
   <path fill="currentColor"
d="M575 -12q15 31 30 104h183q94 -2 150 -10v89q-56 -7 -146 -8h-542q6 220 4 324q-12 254 -109 418q-45 -28 -87 -38q110 -130 121 -361q-94 49 -141 86l-22 -88q85 -26 163 -65q3 -31 2 -87q-1 -51 -6 -165q0 -13 -9 -88q-1 -9 -1 -13q35 6 131 6h228q-9 -33 -42 -84z
M587 173q102 32 100 38q0 2 -12 12q-13 10 -16 15q-6 8 -17 34q-7 15 -11 24h169q100 -1 138 -6v70q-32 -5 -134 -6v87q67 0 89 -2q21 -1 32 -6v75q-3 -6 -97 -7q-16 -1 -24 -1v90h58q19 0 30 -1q21 -1 33 -7v75q-8 -9 -121 -8v97q74 0 103 -2q30 -1 43 -6v80q-9 -5 -37 -6
q-28 -2 -103 -2h-175q2 65 8 93h-81q6 -45 7 -93v-359q-21 62 -55 119q-21 -34 -48 -52q75 -110 121 -345zM800 181q15 35 25 79l-73 22q-10 -53 -26 -83zM117 193q20 131 26 196l-76 8q6 -84 -19 -196zM631 356v85h109v-85h-109zM740 500h-107v90h107v-90zM633 649v97h107
v-97h-107zM442 586q3 6 10 17q45 78 90 161l-78 42q-34 -92 -57 -145q-37 88 -113 189q-23 -28 -70 -42q79 -66 145 -210q-25 -66 -93 -177l57 -34q34 63 64 131q20 -71 22 -194h-90q-29 1 -45 2l2 -70q38 4 104 5q70 0 114 -3q-27 224 -62 328z" />
</svg>
