<?xml version="1.0" standalone="no"?>
<!DOCTYPE svg PUBLIC "-//W3C//DTD SVG 1.1//EN" "http://www.w3.org/Graphics/SVG/1.1/DTD/svg11.dtd" >
<svg xmlns="http://www.w3.org/2000/svg" xmlns:xlink="http://www.w3.org/1999/xlink" version="1.1" viewBox="-10 0 1034 1024">
  <g transform="matrix(1 0 0 -1 0 820)">
   <path fill="currentColor"
d="M342 -136q24 21 50 41q21 16 62 52q30 28 62 41l-43 41q-24 -33 -69 -72q-76 -67 -124 -82q22 -16 43 -36q9 7 19 15zM454 495q22 45 54 61q-30 10 -54 26q-31 -67 -63 -117q-58 -85 -102 -114q25 -10 49 -25q1 6 7 10q3 6 14 19q36 45 51 68l24 36h135q-9 -30 -19 -48
q-9 -19 -31 -48l-62 50q-13 -19 -27 -33l44 -31q1 0 4 -2l17 -13q-12 -15 -41 -44q-33 25 -61 51q-12 -18 -26 -33q40 -27 50 -37q4 -3 9 -8q-82 -66 -137 -82q24 -16 46 -38l73 56q27 21 46 38q33 31 67 71q63 76 103 192q-31 -1 -64 -5h-106zM485 218q7 3 28 4q12 1 132 2
q93 0 116 -3q3 0 9 -3v47l-94 -5q-142 0 -171 2q-3 1 -20 3v-47zM811 316q54 109 64 124q0 3 25 53q3 6 6 10q-30 -1 -60 -5h-140v49q-33 -4 -49 -5q19 -90 35 -132q12 -39 37 -81q27 -46 72 -90q42 -39 120 -92q13 21 42 45q-42 10 -87 39q-39 25 -76 64q4 10 11 21z
M840 462q-21 -57 -64 -136q-39 51 -61 136h125zM648 97l206 -1q21 0 35 -5v47q-10 -1 -22 -4h-480q-4 1 -8 1q-7 1 -13 3v-47q6 3 13 3q27 3 53 3h176v-184q0 -16 -14 -24q-15 -6 -42 -7q-13 0 -47 6q15 -31 21 -56q21 0 35 4q12 0 23 4q33 6 45 18q18 15 19 52v187zM763 42
q-6 -7 -19 -21q45 -34 80 -67q33 -33 76 -87q18 21 34 36q-36 36 -114 108q-3 3 -6 5q-21 18 -41 38q-6 -6 -10 -12zM107 168l123 89q-3 -93 -13 -152q-12 -55 -35 -112q-48 -108 -95 -130q33 -9 61 -21q21 31 44 77q45 88 63 184q6 36 10 84q3 48 4 89v324l669 -1
q12 0 26 -5v47l-97 -5h-229q12 18 27 33q-54 45 -82 65q-25 22 -50 39q-22 -24 -28 -34q82 -51 123 -103l-352 1q-3 0 -50 4q1 -34 5 -70v-267q-39 -28 -97 -66q-27 -16 -46 -27q-21 -10 -36 -16q21 -18 37 -43q9 9 18 16zM67 489q30 -33 59 -68q28 -40 41 -68q1 3 38 31
q-4 4 -54 73q-3 3 -12 14l-38 45q-6 -6 -34 -27v0z" />
  </g>

</svg>
