<?xml version="1.0" standalone="no"?>
<!DOCTYPE svg PUBLIC "-//W3C//DTD SVG 1.1//EN" "http://www.w3.org/Graphics/SVG/1.1/DTD/svg11.dtd" >
<svg xmlns="http://www.w3.org/2000/svg" xmlns:xlink="http://www.w3.org/1999/xlink" version="1.1" viewBox="-10 0 1010 1000">
   <path fill="currentColor"
d="M599 -12q5 23 16 72l6 24h181q122 -3 144 -6v77q-43 -8 -144 -8h-542q8 317 -18 466q-21 146 -101 270q-54 -36 -101 -45q127 -97 147 -336q-9 6 -26 16q-87 52 -98 64l-31 -94q92 -14 160 -63q4 -192 -9 -349q32 5 156 8h199q-12 -52 -36 -88zM399 161l18 3q68 8 65 15
q0 5 -3 13q-8 19 -13 45h78l69 -4q-6 33 -11 87q-6 77 -23 91q75 13 78 20q-1 2 -4 5q-10 9 -16 45h147q83 -1 113 -4q-5 43 -6 125v220q10 77 -143 85q1 -48 -32 -79q-42 -50 -115 -90q-47 73 -129 116q-28 -44 -59 -54q162 -49 168 -175q75 10 74 14q-1 3 -5 7
q-15 15 -23 51q87 38 141 65l-42 56q90 25 91 -42v-240h-186q88 42 157 85l-46 56q-87 -71 -141 -99q-56 72 -133 121q-21 -40 -45 -56q108 -40 140 -107h-154v256q0 80 8 105h-88q6 -21 6 -105v-179q0 -118 -8 -138q-21 -25 -61 -46q97 -30 123 -139h-24q-50 -1 -65 6v-63
q14 4 63 4h34q5 -48 2 -76zM125 173q4 17 12 52q20 81 30 146l-82 12q6 -69 -35 -208zM651 215q8 0 41 1q36 2 60 3h56q70 -1 97 -4q-3 36 -4 79v42q0 49 6 85q-10 -2 -29 -3q-16 -1 -61 -1h-65q-71 0 -101 6q5 -41 6 -83v-42q0 -63 -6 -83zM833 274h-109v88h109v-88z
M456 292q-27 119 -121 181q17 6 129 8h111v-5q5 -40 -2 -61q-39 24 -111 32q5 -43 -18 -74q73 20 84 -13q9 -25 13 -62q1 -4 1 -6h-86z" />
</svg>
