<?xml version="1.0" standalone="no"?>
<!DOCTYPE svg PUBLIC "-//W3C//DTD SVG 1.1//EN" "http://www.w3.org/Graphics/SVG/1.1/DTD/svg11.dtd" >
<svg xmlns="http://www.w3.org/2000/svg" xmlns:xlink="http://www.w3.org/1999/xlink" version="1.1" viewBox="-10 0 1034 1024">
  <g transform="matrix(1 0 0 -1 0 820)">
   <path fill="currentColor"
d="M429 483q-15 -58 -59 -109q-40 -46 -92 -61q3 -1 5 -3q6 -3 9 -7q13 -9 31 -26q33 28 52 49q10 10 27 31q33 45 63 126h122l-10 -68q-9 -34 -19 -43q-12 -12 -60 -13q-18 0 -43 3q6 -15 9 -25q3 -9 5 -22q61 3 77 7q49 12 62 81q4 28 10 57l7 33l5 25q-30 -1 -60 -5h-99
q1 9 3 17q7 36 23 57q-21 1 -50 8q-3 0 -6 2q0 -45 -5 -83l-116 2l-8 2v-41l40 5zM364 -89q0 -25 -5 -62h46q-4 12 -5 40l-1 333h208q-24 -40 -61 -75q-54 -42 -104 -59q25 -18 39 -32q39 27 73 57l59 61q105 -51 172 -107q7 19 22 40q-54 30 -143 73q-15 9 -33 18l9 24h221
v-273q0 -30 -15 -39q-22 -12 -54 -12q-16 0 -48 5q9 -21 16 -49q39 1 64 6q42 9 60 32q10 15 11 45l1 271l4 51l-61 -6h-186q9 30 29 56q-9 1 -22 4q-9 0 -36 10q-1 -31 -13 -70l-207 1q-3 0 -45 5q1 -24 3 -39q1 -19 2 -31v-278zM447 -49q15 -6 27 -15q4 -3 15 -11
q19 12 44 32q30 24 76 64q102 -46 143 -85q9 15 24 37q-72 39 -146 74q15 22 43 39q-24 6 -46 23q-19 -40 -63 -83q-48 -45 -117 -75zM878 348l53 -6q-4 49 -5 98l5 106q-54 -6 -79 -6q-102 0 -125 2q-1 0 -35 4q6 -60 6 -84q0 -60 -2 -82q-3 -7 -4 -36v-2q54 6 84 6h102z
M731 380v129h162v-129h-162zM93 188q24 16 103 60q10 7 26 14q-4 -78 -15 -141q-13 -63 -30 -104q-42 -99 -99 -129q24 -9 58 -28q27 42 54 92q39 75 54 161q15 90 16 177v326h658q27 0 50 -4q3 0 12 -3v46q-10 -1 -22 -4l-321 -1q9 19 31 42q-10 6 -21 13l-93 61
q-13 9 -27 17q-4 -9 -26 -36q10 -6 22 -14q67 -36 111 -83l-367 1q-15 3 -50 4q1 -33 5 -68v-281q-43 -25 -97 -52q-54 -25 -79 -31q18 -27 28 -47q9 6 19 12zM187 427q-33 54 -41 68q-15 22 -29 45q-13 -12 -38 -26q49 -63 81 -134q19 15 40 23q-7 12 -13 24v0z" />
  </g>

</svg>
