<?xml version="1.0" standalone="no"?>
<!DOCTYPE svg PUBLIC "-//W3C//DTD SVG 1.1//EN" "http://www.w3.org/Graphics/SVG/1.1/DTD/svg11.dtd" >
<svg xmlns="http://www.w3.org/2000/svg" xmlns:xlink="http://www.w3.org/1999/xlink" version="1.1" viewBox="-10 0 1034 1024">
  <g transform="matrix(1 0 0 -1 0 820)">
   <path fill="currentColor"
d="M610 -13q-288 0 -308 3q-3 0 -9 2v-47q12 6 52 6h265v-60q0 -39 -3 -51q0 -3 -2 -13h49q-3 7 -4 27l-2 97q273 0 301 -3q3 0 9 -3v47q-3 0 -8 -2q-15 0 -31 -2l-271 -1v78l167 -1q21 0 46 -4q-6 33 -6 75l1 126q1 22 5 46q-49 -4 -61 -5l-363 1q-19 3 -45 4q1 -31 5 -64
l-1 -143q-3 -12 -4 -40q54 4 76 5h142v-78zM817 266v-64h-383v64h383zM434 101v66h383v-66h-383zM515 398l-187 1q-9 1 -17 2q-3 0 -12 2v-47q1 1 37 5l576 1q39 0 57 -4q1 0 5 -2v47l-62 -5h-188q27 43 58 88q93 0 104 -3q1 0 6 -3v47q-10 -1 -22 -4l-224 -1q7 12 25 28
q-1 0 -4 3q-6 6 -46 33l-49 34q-9 -15 -24 -32q54 -33 86 -66q-255 0 -275 3q-3 0 -9 2v-47q3 3 23 4q27 1 88 2zM733 486q-21 -39 -54 -88h-120l-51 88h225zM158 225q46 31 67 47q-3 -64 -9 -122q-6 -42 -13 -71q-7 -28 -21 -61q-39 -93 -100 -126q21 -9 54 -29
q30 42 47 67q12 21 25 47q36 82 46 176q9 91 10 264v205q645 0 667 -3q3 0 9 -3v47l-98 -5h-233q13 18 27 32q-9 7 -18 13q-21 15 -40 30l-28 19l-12 9q-4 3 -21 15q-4 -4 -7 -8q-4 -4 -8 -11q0 -1 -3 -3q-7 -6 -13 -12q72 -39 114 -84l-329 1q-15 3 -50 4q1 -34 5 -70v-275
l-93 -61q-42 -25 -79 -39q21 -24 33 -45zM200 433q-6 9 -11 16q-9 18 -37 63q-3 3 -4 5l-31 47q-9 -7 -33 -22q60 -81 82 -142l20 15q9 3 20 9z" />
  </g>

</svg>
