<?xml version="1.0" standalone="no"?>
<!DOCTYPE svg PUBLIC "-//W3C//DTD SVG 1.1//EN" "http://www.w3.org/Graphics/SVG/1.1/DTD/svg11.dtd" >
<svg xmlns="http://www.w3.org/2000/svg" xmlns:xlink="http://www.w3.org/1999/xlink" version="1.1" viewBox="-10 0 1034 1024">
  <g transform="matrix(1 0 0 -1 0 820)">
   <path fill="currentColor"
d="M367 530l-55 6q1 -30 5 -61l-1 -605q-1 -6 -4 -23h49q0 7 -6 53v595h124q-9 -36 -20 -62q-9 -27 -25 -59q-16 -37 -28 -59q-6 -12 -21 -38q15 -15 28 -30q9 -12 20 -27q40 -61 41 -115q0 -51 -34 -62q-6 -3 -32 -4q-9 0 -31 3q9 -27 15 -50q55 7 82 26q36 24 37 89
q0 57 -34 110q-1 3 -45 68q33 66 53 117q52 127 56 134q-54 -6 -71 -6h-103zM768 397q34 28 55 48q16 18 34 40q15 21 25 32q-30 -1 -59 -5h-162q16 27 49 48q-28 9 -57 23q-21 -49 -83 -130q-36 -45 -70 -63q45 -18 51 -20q22 25 50 61l72 -57q-33 -18 -79 -36
q-45 -18 -100 -23q18 -19 31 -44l47 20q30 9 62 24q33 15 79 39q30 -12 54 -21t47 -15q51 -12 134 -27q9 24 24 49q-36 -1 -39 -2q-42 0 -99 12q-39 9 -86 29q9 9 20 18zM635 476h165q-39 -45 -92 -78q-39 24 -83 65q4 7 10 13zM703 -92l-179 1q-9 1 -15 2q-3 0 -12 2v-46
q31 3 64 5q358 0 372 -2q1 0 4 -1q3 0 13 -2v46q-10 -3 -28 -4l-180 -1v86q96 0 111 -2q12 0 22 -4v47q-3 0 -8 -2q-15 0 -31 -2h-94v80q129 0 152 -3q3 0 10 -3v47l-103 -5h-59q0 31 4 43q1 12 10 26h-58q1 -13 4 -29l1 -40h-86q12 21 35 45q-27 12 -50 27q-9 -36 -34 -92
q-18 -43 -41 -74q22 -7 39 -18q1 7 9 18q9 19 19 38q4 9 9 20h100v-81l-117 2q-3 0 -16 3v-47q6 3 13 3q24 3 53 3h67v-86zM904 279q-12 -3 -28 -4l-299 1q-3 0 -16 3v-47q7 3 28 4q18 3 38 2q246 0 267 -3q3 0 10 -3v47zM264 598q642 0 666 -3q3 0 9 -3v47l-97 -5h-225
q13 18 28 33q-10 10 -124 97q-12 -18 -28 -37q88 -58 114 -93l-336 1q-15 3 -50 4q1 -34 5 -70v-247q-51 -31 -96 -54q-33 -15 -50 -23q-15 -6 -26 -9q16 -24 23 -35q3 -4 5 -10q21 18 65 42l78 45q-6 -105 -18 -162t-40 -125q-42 -93 -94 -122q30 -12 54 -28q48 69 79 140
q39 103 51 218q3 34 5 86l2 108v205zM180 423q-30 49 -44 78l-31 50q-13 -10 -36 -24q12 -15 21 -29q33 -54 50 -89q6 -16 14 -36q21 13 41 24q-7 13 -15 26v0z" />
  </g>

</svg>
