<?xml version="1.0" standalone="no"?>
<!DOCTYPE svg PUBLIC "-//W3C//DTD SVG 1.1//EN" "http://www.w3.org/Graphics/SVG/1.1/DTD/svg11.dtd" >
<svg xmlns="http://www.w3.org/2000/svg" xmlns:xlink="http://www.w3.org/1999/xlink" version="1.1" viewBox="-10 0 1010 1000">
   <path fill="currentColor"
d="M550 -21q23 28 63 115l-36 12h189q114 0 174 -10v81q-54 -8 -168 -8h-524v252q3 156 -23 242q-27 101 -100 210q-2 1 -15 -9q-46 -34 -74 -34q136 -112 145 -330q-29 19 -99 72l-15 12q-8 -30 -37 -76q75 -29 153 -79v-169q0 -91 -8 -162q103 8 182 8h169
q-15 -48 -54 -108zM117 183q21 80 38 198l-74 18q-5 -100 -37 -196zM585 183q23 31 48 107l-68 28q-11 -55 -43 -107zM917 240v72q-22 -5 -86 -4v188q53 0 98 -4v76q-39 -4 -98 -4v216q71 0 117 -4v72q-52 -4 -144 -4q-84 1 -143 4v-74q10 3 30 3q13 1 77 1v-214
q-49 0 -89 4v-76q25 4 89 4v-188q-39 0 -89 4v-72q19 2 47 3q13 1 30 1h44q63 0 117 -4zM496 250v72q-39 -4 -85 -4v155q20 0 47 -3q5 -1 8 -1v73q-25 -4 -55 -4v135l18 -6q35 -13 57 -22v5q4 48 10 65q-174 62 -236 97q-6 -46 -32 -83q79 -18 123 -36v-155q-41 0 -85 4v-73
q4 0 11 1q36 3 74 3v-155q-40 0 -77 4v-72q58 4 113 4q63 0 109 -4zM595 405q-42 0 -133 4v-69q59 4 133 4q81 -1 119 -4v69h-4q-36 -4 -85 -4h-30zM605 671q-69 124 -141 214q-28 -28 -75 -43q99 -67 178 -232q-58 -91 -89 -116l44 -45q10 17 55 76l12 15q16 -40 31 -105
q3 -16 5 -22q48 12 63 22q0 4 -5 8q-12 12 -18 34q-2 6 -5 20q-13 53 -27 99q21 30 59 80q24 32 36 49l-57 39q2 4 -11 -15q-36 -53 -55 -78z" />
</svg>
