<?xml version="1.0" standalone="no"?>
<!DOCTYPE svg PUBLIC "-//W3C//DTD SVG 1.1//EN" "http://www.w3.org/Graphics/SVG/1.1/DTD/svg11.dtd" >
<svg xmlns="http://www.w3.org/2000/svg" xmlns:xlink="http://www.w3.org/1999/xlink" version="1.1" viewBox="-10 0 1010 1000">
   <path fill="currentColor"
d="M837 183q98 26 98 36q-1 2 -7 6q-17 10 -23 23q-23 48 -50 96h22q47 0 75 -6v71q-23 -6 -75 -6h-54v103h38q27 0 74 -8v74q-13 -3 -26 -3q-11 -1 -42 -1h-44v107h40q43 0 97 -4v75q-26 -9 -97 -8h-40v46q-1 84 10 123h-89q12 -52 12 -129v-41h-34q-58 0 -77 3v-73
q46 8 75 8h34v-109h-22q-55 -1 -75 4v-72q37 6 73 6h24v-101h-22q-36 0 -79 4v-69q39 6 87 6h54q25 -54 41 -147q1 -10 2 -14zM718 199q7 16 28 62q15 34 22 49l-72 20q-21 -78 -49 -117zM492 300h-99q-21 21 -54 67q1 0 4 1q15 5 56 5h38zM367 433v59h71v-59h-71zM494 433
v61h71v-61h-71zM494 554v69h71v-69h-71zM367 552v71h71v-71h-71zM623 733q-10 17 -14 49q0 4 -1 13t-1 13q-237 13 -337 40q2 -32 -11 -85l-3 -15q89 10 367 -15zM468 199q0 3 -9 8q-22 12 -34 33h99q48 -1 93 -7l-105 140h57q45 -1 68 -4q-13 33 -12 90v160q0 45 6 72
q-39 -8 -121 -8h-107q-72 0 -101 6q7 -27 10 -74v-148q0 -25 -1 -51q-1 -10 -1 -13l-12 10q-8 -39 -32 -59q82 -83 107 -173q88 9 95 18zM127 217q8 112 16 176l-74 10q0 -78 -3 -109q-2 -34 -12 -71zM589 -6q13 42 34 100h189q64 0 111 -10v87q-48 -9 -108 -8h-460h-97
q2 183 -2 278q-4 101 -15 170q-17 125 -100 290q-44 -49 -85 -65q107 -129 125 -320q-71 41 -119 64q0 -39 -26 -84q74 -12 147 -45v-232q0 -90 -10 -133q61 8 111 8h210h40q-12 -35 -38 -74z" />
</svg>
