<?xml version="1.0" standalone="no"?>
<!DOCTYPE svg PUBLIC "-//W3C//DTD SVG 1.1//EN" "http://www.w3.org/Graphics/SVG/1.1/DTD/svg11.dtd" >
<svg xmlns="http://www.w3.org/2000/svg" xmlns:xlink="http://www.w3.org/1999/xlink" version="1.1" viewBox="-10 0 1034 1024">
  <g transform="matrix(1 0 0 -1 0 820)">
   <path fill="currentColor"
d="M370 343l214 -1q19 -1 40 -5q-4 45 -5 90q0 57 2 70q0 15 3 31q-27 -1 -54 -5l-201 1q-15 3 -39 4l6 -61l-1 -224q-3 -24 -6 -59q-4 -51 -13 -88q-15 -70 -45 -126q-18 -31 -49 -61q24 -7 46 -20q39 66 60 121q21 66 28 114q7 57 13 150q0 34 1 69zM370 379v108h212v-108
h-212zM329 -92q18 -10 35 -25q48 55 76 85q15 15 52 38q-24 18 -37 33q-21 -28 -52 -62q-27 -30 -45 -47q-13 -12 -29 -22zM436 239q-12 1 -24 1q-13 0 -29 4v-46q6 3 53 5v-103q-39 0 -70 5v-47q7 3 27 4q12 1 86 2q114 0 134 -2q9 0 20 -4v47q-28 -1 -58 -5v103
q25 0 42 -4v44q-19 -3 -42 -4q0 24 3 43t12 32h-57q4 -19 5 -63v-12h-66q0 52 9 71q1 6 5 11h-55q4 -21 5 -64v-18zM538 100h-66v103h66v-103zM546 46q-9 -10 -29 -25q63 -57 87 -101q15 12 30 26q-12 15 -42 49q-40 45 -46 51zM701 226q-33 0 -61 5v-44q12 3 33 3
q19 -69 32 -97q15 -33 50 -86q-25 -30 -49 -53q-21 -19 -48 -38q-42 -24 -68 -31q27 -21 36 -32q3 -3 6 -7q10 10 20 17q34 27 67 56q25 21 61 58q64 -58 79 -69q15 -12 80 -59q18 21 48 39q-40 9 -78 34q-57 37 -105 85q34 58 54 105q21 51 41 119q-55 -4 -85 -5h-113z
M849 190q-19 -72 -69 -157q-55 84 -69 157h138zM830 494v-149q0 -24 9 -36q7 -9 39 -17q12 -3 26 -4h56q0 19 8 47q-46 -9 -62 -10q-15 0 -24 4q-15 6 -15 37l1 123l4 46q-51 -6 -69 -6q-69 0 -90 2l-35 4q6 -55 6 -87q0 -84 -32 -140q-12 -18 -31 -33q19 -9 41 -23
q36 57 44 88q13 51 14 113l-1 41h111zM260 589l645 -1q21 0 35 -5v47q-10 -1 -22 -4l-307 -1q12 15 29 33q-115 84 -127 96l-15 10q-12 -15 -30 -34q97 -61 133 -105l-334 1q-15 3 -50 4q1 -34 5 -70v-267q-18 -15 -93 -71q-42 -30 -79 -44q18 -24 32 -45q19 21 71 59
q37 28 66 52q-1 -135 -48 -240q-46 -99 -101 -119l30 -18l21 -14q21 27 39 55q18 27 33 54q10 18 20 42q9 22 17 49q15 57 22 103l6 99l2 129v205zM107 530l-11 15q-12 -10 -33 -25q43 -48 57 -68l29 -43q6 -9 12 -24q15 9 39 26l-55 74q-19 22 -38 45v0z" />
  </g>

</svg>
