<?xml version="1.0" standalone="no"?>
<!DOCTYPE svg PUBLIC "-//W3C//DTD SVG 1.1//EN" "http://www.w3.org/Graphics/SVG/1.1/DTD/svg11.dtd" >
<svg xmlns="http://www.w3.org/2000/svg" xmlns:xlink="http://www.w3.org/1999/xlink" version="1.1" viewBox="-10 0 1010 1000">
   <path fill="currentColor"
d="M365 -10q78 5 113 22q0 2 -6 7q-11 11 -18 21q-14 23 -27 68h263q86 0 125 -8q-8 47 -9 107v174q1 75 9 113q-33 -6 -134 -7h-401q-72 0 -115 7q7 -37 8 -95v-210q-1 -51 -8 -91q46 8 121 8h53q15 -30 26 -116zM252 179v83h474v-83h-474zM726 334h-474v81h474v-81z
M335 502q99 5 109 16q1 3 -4 11q-17 25 -17 55v31l357 -35q127 -15 155 -26l11 95q-39 -6 -156 4l-367 36v77q-1 28 6 35q7 10 33 15q27 5 85 7q53 2 97 0q81 -3 98 -19q38 -42 34 -109q37 47 95 65q-17 84 -59 117q-35 26 -156 31q-129 4 -251 -15q-77 -8 -68 -73v-121
l-135 16q-87 14 -139 31l-19 -97q24 2 123 -6q14 -1 20 -2l152 -16v-71q0 -42 -4 -52z" />
</svg>
