<?xml version="1.0" standalone="no"?>
<!DOCTYPE svg PUBLIC "-//W3C//DTD SVG 1.1//EN" "http://www.w3.org/Graphics/SVG/1.1/DTD/svg11.dtd" >
<svg xmlns="http://www.w3.org/2000/svg" xmlns:xlink="http://www.w3.org/1999/xlink" version="1.1" viewBox="-10 0 1034 1024">
  <g transform="matrix(1 0 0 -1 0 820)">
   <path fill="currentColor"
d="M164 -83q-1 -21 -3 -42q-1 -4 -1 -11q-1 -1 -1 -5q-1 -3 -1 -7h49q0 6 -2 12q-3 6 -3 35l-1 69h622l-3 -95q0 -3 -2 -5q-1 -3 -1 -7h51q-3 16 -5 61l1 563l4 52l-79 -6h-423q19 25 62 91q46 63 51 67q22 27 45 35q-4 0 -25 10q-25 15 -38 20q-1 1 -2 1q-24 -48 -65 -114
q-42 -66 -75 -110l-100 1q-34 4 -61 5l6 -73v-547zM823 242v-238h-622v238h622zM201 278v218h622v-218h-622z" />
  </g>

</svg>
