<?xml version="1.0" standalone="no"?>
<!DOCTYPE svg PUBLIC "-//W3C//DTD SVG 1.1//EN" "http://www.w3.org/Graphics/SVG/1.1/DTD/svg11.dtd" >
<svg xmlns="http://www.w3.org/2000/svg" xmlns:xlink="http://www.w3.org/1999/xlink" version="1.1" viewBox="-10 0 1010 1000">
   <path fill="currentColor"
d="M149 -4q91 1 101 10q1 2 -3 7q-15 19 -15 61v49h119q58 0 102 -7q3 -1 5 -1v76q-43 -8 -105 -8h-121v149q5 -1 18 -5q177 -48 226 -67q-8 44 2 84q-223 40 -327 85l-38 -79q45 -24 42 -66v-210q0 -33 -4 -63q-1 -10 -2 -15zM532 2q87 4 95 10q1 2 -2 6q-12 23 -12 72v71
q33 -13 56 -23q96 -36 148 -71q9 -5 20 -11q57 66 62 87q-2 1 -11 1q-36 1 -75 15q-34 12 -116 39q-83 28 -84 29v53q-1 37 11 44q9 9 59 8h91q57 5 79 -99q33 40 78 57q-26 73 -56 95q-28 23 -97 22h-113q-89 1 -108 -12q-23 -10 -21 -59v-244q0 -46 -1 -60q0 -19 -3 -30z
M407 369q7 2 20 6q68 19 73 24q-1 2 -7 7q-27 20 -55 65h211q66 0 124 -5l33 -3q-8 42 -8 129v170q0 68 7 122q1 5 1 7h-100q1 -3 2 -8q6 -24 6 -51h-436q0 29 6 56q1 5 2 7h-98q8 -48 8 -129v-186q0 -86 -8 -117q24 5 48 6q24 2 77 2h58q26 -46 36 -102zM280 532v87h434
v-87h-434zM278 681v89h436v-89h-436z" />
</svg>
