<?xml version="1.0" standalone="no"?>
<!DOCTYPE svg PUBLIC "-//W3C//DTD SVG 1.1//EN" "http://www.w3.org/Graphics/SVG/1.1/DTD/svg11.dtd" >
<svg xmlns="http://www.w3.org/2000/svg" xmlns:xlink="http://www.w3.org/1999/xlink" version="1.1" viewBox="-10 0 1034 1024">
  <g transform="matrix(1 0 0 -1 0 820)">
   <path fill="currentColor"
d="M88 554q3 -27 3 -36l-1 -521q-3 -12 -3 -19q-1 -1 -1 -5h49q-3 6 -4 28q-1 24 -2 69h195q-4 -39 -5 -58h50q-3 7 -4 14q-3 15 -3 73l1 437q0 24 5 40q0 3 1 3q-57 -6 -87 -6h-80l54 111q16 31 45 50l-60 31q-9 -36 -29 -86q-30 -69 -48 -106l-57 4q-10 0 -21 2
q0 -12 2 -25zM129 106v209h195v-209h-195zM129 351v185h195v-185h-195zM473 404q0 -30 -4 -77q-3 -48 -8 -82q-15 -112 -70 -206q-45 -72 -95 -112q-28 -22 -56 -32q25 -15 45 -30q4 -3 9 -7q111 111 154 205q31 73 44 137q12 70 21 213h329q-12 -84 -47 -178
q-43 -105 -81 -155q-45 60 -75 143q-21 60 -22 100v17q-24 -9 -55 -15l30 -91q21 -57 36 -86q21 -39 57 -99q-58 -57 -99 -86q-94 -63 -162 -74q21 -21 42 -46q6 3 110 64q24 18 49 35q39 31 89 78q60 -55 106 -92q34 -27 113 -74l43 45q-34 6 -90 35q-84 49 -144 117
q24 39 40 68q12 24 24 47q13 28 28 64q12 34 22 66l39 158q-16 -1 -29 -2q-19 -3 -29 -4h-324v211q153 12 285 30q37 6 95 12l31 -1q-22 34 -33 57q-22 -9 -43 -16q-37 -10 -113 -21l-121 -14q-55 -4 -92 -6q-19 0 -54 3q1 -33 5 -68v-231z" />
  </g>

</svg>
