<?xml version="1.0" standalone="no"?>
<!DOCTYPE svg PUBLIC "-//W3C//DTD SVG 1.1//EN" "http://www.w3.org/Graphics/SVG/1.1/DTD/svg11.dtd" >
<svg xmlns="http://www.w3.org/2000/svg" xmlns:xlink="http://www.w3.org/1999/xlink" version="1.1" viewBox="-10 0 1010 1000">
   <path fill="currentColor"
d="M617 -12q102 30 105 44q0 3 -8 8q-14 9 -20 20q-33 67 -55 123h145q78 0 135 -4q-31 484 -40 601q-14 121 -214 125q-12 -60 -46 -107q104 25 157 -4q29 7 45 -385q5 -103 8 -163h-216q-14 26 -44 81q-32 58 -49 90q-36 -27 -72 -32v352q0 89 6 134h-89q4 -54 4 -103
h-192q0 78 4 109h-90q0 -14 2 -66q1 -43 2 -69v-420q-1 -50 -6 -137q12 1 33 2q41 2 55 2h27q15 -78 18 -189q108 13 103 28q-1 8 -9 15q-9 9 -12 19q-12 37 -30 109q-2 12 -4 18h67q13 0 65 -2q32 -1 50 -2q-3 57 -4 127v55q120 -135 169 -379zM175 252v203h194v-203h-194z
M617 415q34 45 101 179l-75 39q-16 -56 -93 -180zM175 514v191h194v-191h-194z" />
</svg>
