<?xml version="1.0" standalone="no"?>
<!DOCTYPE svg PUBLIC "-//W3C//DTD SVG 1.1//EN" "http://www.w3.org/Graphics/SVG/1.1/DTD/svg11.dtd" >
<svg xmlns="http://www.w3.org/2000/svg" xmlns:xlink="http://www.w3.org/1999/xlink" version="1.1" viewBox="-10 0 1034 1024">
  <g transform="matrix(1 0 0 -1 0 820)">
   <path fill="currentColor"
d="M462 532v108q0 27 13 65h-56q1 -31 5 -65q0 -85 -2 -112q-3 -3 -3 -37q15 1 25 3q24 3 34 3l375 -1q10 0 41 -5l-3 29q-3 22 -3 30v100q0 28 15 64h-59q0 -1 1 -5q0 -1 1 -4l4 -55v-118h-177v174q0 28 14 64h-58q0 -1 1 -5q0 -1 1 -4l4 -55v-174h-173zM505 394
q-30 1 -52 2q-3 0 -9 2q-3 1 -5 1v-47q6 3 13 3q30 3 53 3h325v-150l-319 1q-15 3 -47 4q1 -33 5 -67v-204q0 -60 93 -71q39 -3 112 -3l102 1q82 0 113 15q22 10 39 29q12 18 28 69q0 6 8 26q-22 6 -52 20l1 -33q0 -24 -11 -48q-16 -30 -56 -37q-12 -3 -24 -3q-15 -1 -45 -2
l-91 -2q-49 0 -92 3q-46 3 -67 9q-21 9 -21 48v209l325 -1l43 -4q-6 57 -6 80q0 105 2 119l4 33q-30 -1 -60 -5h-309zM93 -24l-4 -59q-1 -1 -1 -5h49q-3 9 -4 27l-2 80h187l-4 -93q-1 0 -1 -4h48q-3 15 -4 30l-1 556q0 31 5 61q-27 -1 -56 -5h-83q6 13 11 29l35 86
q9 18 29 33q-33 6 -64 19q-1 -21 -10 -51q-12 -42 -37 -116l-91 4q-4 1 -7 1q1 -30 5 -61v-532zM131 55v229h187v-229h-187zM131 320v208h187v-208h-187z" />
  </g>

</svg>
