<?xml version="1.0" standalone="no"?>
<!DOCTYPE svg PUBLIC "-//W3C//DTD SVG 1.1//EN" "http://www.w3.org/Graphics/SVG/1.1/DTD/svg11.dtd" >
<svg xmlns="http://www.w3.org/2000/svg" xmlns:xlink="http://www.w3.org/1999/xlink" version="1.1" viewBox="-10 0 1010 1000">
   <path fill="currentColor"
d="M663 -17q36 65 53 123l-83 21q-10 -49 -54 -117zM192 6q88 13 104 26q0 4 -5 10q-27 30 -51 121h36q86 -3 113 -6q-4 22 -5 99q0 35 -1 44v359q0 11 1 32q2 66 7 91h-93q6 -24 8 -77h-151q0 75 6 111h-96q10 -37 12 -121v-387q-3 -115 -6 -151q19 3 100 6q24 -96 21 -157
zM415 129q30 5 125 8h260q16 -1 45 -2q83 -5 88 -6v88q-28 -8 -129 -8h-264q-92 0 -125 6v-86zM155 235v170h147v-170h-147zM750 231q18 18 52 51q92 90 131 125l-82 60q-85 -128 -166 -187zM302 469h-147v164h147v-164zM389 425q93 -61 163 -188q85 32 79 41q-1 3 -6 7
q-17 10 -42 43q-54 71 -93 113l70 -6q10 97 83 204q65 -105 79 -222q89 32 91 44q-1 6 -7 14q-12 16 -20 37q-37 107 -92 183q126 98 268 115q-52 54 -71 97q-137 -59 -248 -153q-74 77 -244 163q-15 -43 -74 -81q156 -29 272 -139q-68 -91 -121 -242l-24 24
q-17 -27 -63 -54z" />
</svg>
