<?xml version="1.0" standalone="no"?>
<!DOCTYPE svg PUBLIC "-//W3C//DTD SVG 1.1//EN" "http://www.w3.org/Graphics/SVG/1.1/DTD/svg11.dtd" >
<svg xmlns="http://www.w3.org/2000/svg" xmlns:xlink="http://www.w3.org/1999/xlink" version="1.1" viewBox="-10 0 1010 1000">
   <path fill="currentColor"
d="M236 -12q81 1 95 14q1 2 -3 15q-13 45 -13 81v29h18q66 0 125 -8v80q-50 -8 -123 -8h-20v141q0 79 8 127h-87q8 -58 8 -127v-66q-50 73 -149 169q-22 -33 -67 -58q100 -56 196 -186h-34q-44 0 -113 8v-80q42 8 113 8h54v-27q0 -55 -8 -112zM833 18q65 63 70 88
q-3 1 -17 -1q-36 -4 -63 -1q-26 2 -91 9q-108 10 -151 14v80h217q73 0 152 -8v75q-73 -8 -152 -8v58q0 101 10 141h-94q8 -69 8 -145v-54h-145q-18 96 -75 163q-29 -29 -85 -38q121 -71 93 -323q230 -8 323 -50zM282 570v77h450v-77h-450zM282 707v75h450v-75h-450zM323 256
l42 -31q29 18 89 75l-57 48q-33 -60 -74 -92zM538 451l-1 1q-17 9 -35 58h105q121 0 212 -8q-7 72 -7 159v72q0 122 7 172h-93q6 -27 6 -63h-450q-1 45 6 61h-94q8 -66 8 -149v-103q0 -50 -6 -118q-1 -22 -2 -31q105 8 177 8h66q15 -47 15 -83z" />
</svg>
