<?xml version="1.0" standalone="no"?>
<!DOCTYPE svg PUBLIC "-//W3C//DTD SVG 1.1//EN" "http://www.w3.org/Graphics/SVG/1.1/DTD/svg11.dtd" >
<svg xmlns="http://www.w3.org/2000/svg" xmlns:xlink="http://www.w3.org/1999/xlink" version="1.1" viewBox="-10 0 1034 1024">
  <g transform="matrix(1 0 0 -1 0 820)">
   <path fill="currentColor"
d="M633 351q0 -37 -3 -52q0 -3 -2 -13h49q-3 7 -4 27q0 18 -2 38v106q76 -100 208 -169q16 -7 34 -17q3 0 8 -4q12 -4 24 -12q12 24 32 49q-30 3 -52 11q-30 10 -71 32q-45 27 -77 53q-27 24 -66 69h192q21 0 50 -3q6 0 12 -3v47q-10 -1 -22 -4l-167 -1q33 55 62 96
q15 24 49 42q-27 15 -55 34q-18 -39 -41 -74q-24 -40 -63 -98h-57v188q19 0 52 8q12 0 25 3q96 16 113 16q24 0 48 -2l-36 56q-30 -12 -65 -20q-75 -15 -159 -24l-170 -9q-25 0 -82 7q12 -24 23 -52l88 4q24 0 39 2q31 3 86 7v-184q-234 0 -252 3q-3 0 -9 2v-47q12 6 52 6
h168q-54 -76 -130 -131q-42 -28 -68 -41q-21 -9 -52 -16q22 -18 39 -40l80 50q25 16 53 40q75 64 119 129v-109zM437 267q1 -33 5 -69l-1 -328q-3 -19 -4 -27h48q-3 7 -5 58v16h358q0 -40 -3 -59q-1 -3 -2 -7h49q-3 6 -4 29q-1 24 -2 91l1 248q0 19 4 48q-18 -1 -31 -2
q-21 -3 -28 -3l-341 1q-15 3 -44 4zM480 -47v121h153v-121h-153zM480 110v116h153v-116h-153zM838 226v-116h-168v116h168zM670 -47v121h168v-121h-168zM495 628q-10 9 -19 18q-10 -15 -28 -32q21 -16 49 -42q28 -28 42 -51q15 22 32 36q-24 25 -42 41q-18 15 -34 30zM89 45
l-4 -59q-1 -1 -1 -5h49q-3 7 -4 27q0 27 -2 53h171q0 -33 -4 -68q0 -6 -1 -8h49q-4 9 -5 43l-1 514l6 60q-30 -1 -59 -5h-76l27 77q15 40 41 62q-42 18 -64 29q-3 -30 -8 -45l-17 -68q-4 -19 -17 -55l-71 4q-4 0 -14 1q1 -30 5 -60v-497zM127 97v222h171v-222h-171zM127 355
v204h171v-204h-171z" />
  </g>

</svg>
