<?xml version="1.0" standalone="no"?>
<!DOCTYPE svg PUBLIC "-//W3C//DTD SVG 1.1//EN" "http://www.w3.org/Graphics/SVG/1.1/DTD/svg11.dtd" >
<svg xmlns="http://www.w3.org/2000/svg" xmlns:xlink="http://www.w3.org/1999/xlink" version="1.1" viewBox="-10 0 1010 1000">
   <path fill="currentColor"
d="M837 -4q63 80 48 88q-2 1 -5 0q-21 -6 -68 0q-23 3 -66 8q-49 6 -69 8v152h41q48 -70 62 -133q4 2 13 5q79 30 68 43q-1 2 -4 3q-23 10 -67 80h39q87 -3 109 -6v76q-28 -6 -107 -8h-79q70 99 214 137q-27 27 -49 77l-38 -20q-6 27 -6 106v154q1 89 8 131h-91q0 -3 1 -9
q5 -43 5 -60h-308q0 43 6 73h-87q8 -57 8 -115v-184q0 -69 -4 -90q-3 2 -9 5q-19 11 -27 17q-17 -30 -44 -47v196q1 85 8 127h-85q3 -24 6 -72h-113q0 72 6 104h-90q9 -34 10 -131v-415q-1 -100 -6 -139q18 3 90 6q24 -91 20 -155q89 10 103 24q-1 1 -4 3q-21 11 -58 128
q87 0 119 -6q-6 35 -6 129v183q91 -35 197 -157h-70q-39 1 -95 8v-76q39 8 125 8q-22 -55 -55 -91l73 -22q13 22 36 72q7 15 10 22l-48 19h103v-144q-93 13 -202 21q-8 -31 -46 -79q30 8 89 7q61 -1 139 -9q179 -22 250 -52zM260 225h-113v190h113v-190zM607 314
q-72 89 -155 165q27 6 104 6h158q96 -3 119 -8q-99 -77 -154 -161v55q1 67 8 98h-90q7 -24 10 -92v-63zM147 675h113v-200h-113v200zM796 542h-121v85h121v-85zM488 544v83h121v-83h-121zM488 683v85h121v-85h-121zM675 683v85h121v-85h-121z" />
</svg>
