<?xml version="1.0" standalone="no"?>
<!DOCTYPE svg PUBLIC "-//W3C//DTD SVG 1.1//EN" "http://www.w3.org/Graphics/SVG/1.1/DTD/svg11.dtd" >
<svg xmlns="http://www.w3.org/2000/svg" xmlns:xlink="http://www.w3.org/1999/xlink" version="1.1" viewBox="-10 0 1010 1000">
   <path fill="currentColor"
d="M482 6q107 3 109 16q1 5 -6 14q-14 19 -14 38v83h171q104 -2 159 -6q-14 48 -74 195l-103 -18l58 -95h-209v164h102q101 -1 131 -4q-58 162 -121 258q-16 22 -37 46q-11 13 -15 18q153 59 313 65q-38 43 -69 99q-202 -51 -310 -115q-152 81 -311 123q-17 -51 -58 -85
q152 3 302 -87q-73 -66 -149 -209l56 -33q-59 0 -111 4v-84q62 4 142 4h52v-166h-226v178q-7 225 -70 387q-28 59 -55 95q-46 -30 -97 -43q66 -55 103 -161q32 -102 34 -230v-139q-1 -116 -8 -169q84 4 186 6h133q-1 2 -1 -21q0 -91 -7 -128zM431 473q49 116 134 198
q84 -87 123 -198h-257z" />
</svg>
