<?xml version="1.0" standalone="no"?>
<!DOCTYPE svg PUBLIC "-//W3C//DTD SVG 1.1//EN" "http://www.w3.org/Graphics/SVG/1.1/DTD/svg11.dtd" >
<svg xmlns="http://www.w3.org/2000/svg" xmlns:xlink="http://www.w3.org/1999/xlink" version="1.1" viewBox="-10 0 1034 1024">
  <g transform="matrix(1 0 0 -1 0 820)">
   <path fill="currentColor"
d="M732 329q-7 -21 -18 -40q-10 -21 -32 -51q-63 -94 -120 -150q-57 52 -98 101q-42 52 -54 110q-45 -25 -48 -26l-2 -1l30 -47q3 -9 18 -31q0 -3 32 -43l88 -92q-76 -63 -164 -105q-114 -51 -197 -60q21 -18 41 -48q210 66 356 184q78 -54 156 -91q72 -33 199 -70
q12 25 41 53q-81 3 -197 47q-99 39 -168 92q48 48 103 124q63 94 101 185q-51 -6 -83 -6h-167v216h283q-19 -51 -33 -80q-9 -19 -26 -45q27 -6 50 -12l70 178q-36 -1 -73 -5h-271q0 126 3 131q1 10 10 24h-58q0 -3 1 -8q3 -72 4 -111v-36h-257q-12 0 -36 3q-15 0 -33 2
q1 -22 2 -37q3 -24 3 -33v-183q0 -132 -9 -202q-15 -111 -68 -197q-19 -33 -51 -62q9 -1 13 -4q19 -6 39 -17q78 114 91 187q12 58 19 111q3 57 6 145h504zM228 364v216h281v-216h-281z" />
  </g>

</svg>
