<?xml version="1.0" standalone="no"?>
<!DOCTYPE svg PUBLIC "-//W3C//DTD SVG 1.1//EN" "http://www.w3.org/Graphics/SVG/1.1/DTD/svg11.dtd" >
<svg xmlns="http://www.w3.org/2000/svg" xmlns:xlink="http://www.w3.org/1999/xlink" version="1.1" viewBox="-10 0 1034 1024">
  <g transform="matrix(1 0 0 -1 0 820)">
   <path fill="currentColor"
d="M206 -71h-86q-43 0 -62 5v-46l36 4l811 1q31 -1 64 -5v46q-43 -4 -74 -5h-81l1 256q1 22 5 45q-31 -1 -63 -5l-513 1q-19 3 -44 4l6 -63v-238zM243 189h156v-260h-156v260zM436 -71v260h148v-260h-148zM621 -71v260h155v-260h-155zM506 505h-338q-45 0 -64 5v-47
q15 4 33 5l369 1v-118q0 -18 -4 -29q-6 -12 -30 -18q-36 -3 -51 -4q-6 1 -31 6q13 -31 16 -51q45 3 65 7q15 3 35 9q39 13 39 70v128l339 -1q15 0 32 -5v47l-39 -4l-332 -1v176l253 -1q10 0 29 -5v47q-52 -4 -63 -5l-548 1q-18 1 -27 4v-47q15 4 41 5l276 1v-176z" />
  </g>

</svg>
