<?xml version="1.0" standalone="no"?>
<!DOCTYPE svg PUBLIC "-//W3C//DTD SVG 1.1//EN" "http://www.w3.org/Graphics/SVG/1.1/DTD/svg11.dtd" >
<svg xmlns="http://www.w3.org/2000/svg" xmlns:xlink="http://www.w3.org/1999/xlink" version="1.1" viewBox="-10 0 1010 1000">
   <path fill="currentColor"
d="M621 -8q108 206 361 246q-46 38 -73 92q-61 -22 -141 -70q-5 35 -13 90q-13 112 -27 123q-32 37 -159 49q-2 -50 -35 -93q99 16 119 -6q20 -34 22 -121h-207q-68 196 -333 250q-20 -60 -58 -85q238 -1 306 -163q-107 -4 -143 8v-66q-98 77 -131 94q-23 -30 -79 -62
q205 -78 323 -278q104 42 99 48q-1 4 -12 9q-20 7 -31 19q-109 122 -151 151q45 8 147 8h172q133 0 155 -8q-103 -73 -190 -195zM827 542q-6 33 -6 125v133q13 -1 37 -2q76 -5 92 -8v85q-41 -8 -131 -8h-631q-110 0 -140 8v-83q0 -1 8 1q48 7 113 7h21v-133q0 -56 -3 -117
v-4q26 3 160 4h336q85 0 144 -8zM266 613v187h117v-187h-117zM450 613v187h110v-187h-110zM627 613v187h119v-187h-119z" />
</svg>
