<?xml version="1.0" standalone="no"?>
<!DOCTYPE svg PUBLIC "-//W3C//DTD SVG 1.1//EN" "http://www.w3.org/Graphics/SVG/1.1/DTD/svg11.dtd" >
<svg xmlns="http://www.w3.org/2000/svg" xmlns:xlink="http://www.w3.org/1999/xlink" version="1.1" viewBox="-10 0 1010 1000">
   <path fill="currentColor"
d="M629 -2q22 20 58 74l-92 34q-23 -49 -55 -76zM337 6q105 0 107 10q0 2 -3 7q-24 25 -4 104l265 -21q102 -9 137 -20l6 87q-42 -7 -133 2l-260 20q9 45 26 73l290 -24q81 -7 129 -20q10 -2 14 -3l6 91q-152 -4 -185 2l-222 22q28 39 65 69q84 -32 171 -85q8 7 22 18
q53 42 45 49q0 4 -9 4q-28 2 -62 16q-25 11 -74 30q-28 10 -37 14q118 61 167 51q31 -7 47 -109q53 55 76 68q-39 117 -108 119q-107 5 -257 -97q-213 61 -405 73q-28 -50 -60 -87q92 9 192 -1q92 -8 217 -37q-27 -24 -68 -79q-3 -6 -5 -8l-171 16l-169 23l-8 -89
q21 5 173 -2l149 -10q-16 -38 -26 -81l-105 10q-110 9 -147 18l-6 -90q49 7 133 2l111 -8q-18 -75 -24 -127zM379 651h-115v145h115v-145zM556 651h-114v145h114v-145zM619 651v145h119v-145h-119zM812 584q-1 16 -2 37v56v117q89 -1 125 -10v87q-45 -8 -147 -8h-570
q-118 0 -151 10v-85q56 8 125 8v-107q0 -84 -5 -111q43 10 152 10h292q111 0 181 -4z" />
</svg>
