<?xml version="1.0" standalone="no"?>
<!DOCTYPE svg PUBLIC "-//W3C//DTD SVG 1.1//EN" "http://www.w3.org/Graphics/SVG/1.1/DTD/svg11.dtd" >
<svg xmlns="http://www.w3.org/2000/svg" xmlns:xlink="http://www.w3.org/1999/xlink" version="1.1" viewBox="-10 0 1034 1024">
  <g transform="matrix(1 0 0 -1 0 820)">
   <path fill="currentColor"
d="M173 537q-46 0 -63 5v-46l36 4l700 1q31 -1 65 -5v46q-31 -1 -63 -5h-236q18 24 37 53q21 30 43 58l33 45q24 30 55 37q-36 22 -62 41q-24 -45 -54 -92q-27 -42 -46 -69l-54 -73h-391zM348 370q15 12 31 26q24 22 60 32q-30 16 -53 39q-61 -72 -135 -133q-42 -33 -75 -54
q-24 -15 -58 -27q24 -16 47 -35q36 25 59 44q22 18 25 20q21 16 40 34zM423 593q4 3 10 10q-18 25 -54 65q-37 40 -83 87q-16 -12 -33 -26q96 -88 139 -157q1 6 9 10q6 6 12 11zM592 435q58 -33 122 -74l96 -66l57 -45q18 24 20 27q3 3 7 8l-112 78l-162 107
q-15 -24 -28 -35zM223 -88h-98q-45 0 -63 5v-47q15 4 41 5l792 1q43 0 65 -6v47l-39 -4l-116 -1l1 277l4 44q-30 -1 -62 -5l-487 1q-6 1 -13 2q-13 0 -30 2q1 -30 5 -61v-260zM261 192h141v-280h-141v280zM439 -88v280h137v-280h-137zM612 -88v280h155v-280h-155z" />
  </g>

</svg>
