<?xml version="1.0" standalone="no"?>
<!DOCTYPE svg PUBLIC "-//W3C//DTD SVG 1.1//EN" "http://www.w3.org/Graphics/SVG/1.1/DTD/svg11.dtd" >
<svg xmlns="http://www.w3.org/2000/svg" xmlns:xlink="http://www.w3.org/1999/xlink" version="1.1" viewBox="-10 0 1010 1000">
   <path fill="currentColor"
d="M498 20q99 3 97 14q1 7 -4 16q-7 12 -6 26q1 8 2 24q1 33 4 49h127q-21 -39 -57 -79l71 -44q41 42 64 78l-70 45h42q56 -1 129 -6v80q-43 -5 -127 -6h-167q17 95 60 162q53 -59 87 -133q77 35 79 54q-2 6 -11 12q-12 8 -20 18q-16 19 -49 55q-26 28 -45 50q83 87 121 95
q23 9 34 -93q36 42 78 59q-11 92 -50 114q-34 28 -95 -6q-4 43 -4 111v83q53 0 121 -4v79q-46 -6 -127 -6h-588q-47 0 -127 4v-75q80 4 120 4v-79q0 -82 -2 -113q-1 -14 5 -12q80 4 157 4h242q60 0 185 -6q-65 -49 -119 -115q-83 68 -155 105q-1 -2 -4 -6q-15 -32 -65 -54
q106 -34 178 -97q-53 -86 -79 -210h-290v75h238q-1 12 -2 37q-5 136 -18 144q-33 46 -146 51q-2 -49 -44 -91q78 12 111 -2q16 -7 16 -71h-159q-14 150 -103 277q-5 -4 -16 -14q-34 -33 -55 -47q102 -88 99 -266v-64q0 -62 -2 -95q0 -9 3 -8h1q74 5 115 6h240zM262 659v141
h103v-141h-103zM429 659v141h109v-141h-109zM601 659v141h111v-141h-111z" />
</svg>
