<?xml version="1.0" standalone="no"?>
<!DOCTYPE svg PUBLIC "-//W3C//DTD SVG 1.1//EN" "http://www.w3.org/Graphics/SVG/1.1/DTD/svg11.dtd" >
<svg xmlns="http://www.w3.org/2000/svg" xmlns:xlink="http://www.w3.org/1999/xlink" version="1.1" viewBox="-10 0 1010 1000">
   <path fill="currentColor"
d="M470 -15q5 2 15 4q86 24 82 31q-1 4 -8 8q-16 10 -27 28q-25 39 -28 48h248q96 0 161 -8q-7 23 -31 96q-19 60 -31 96q-50 -19 -85 -22q14 -27 38 -91h-167q27 233 307 266q-41 41 -61 89q-241 -82 -280 -252q-44 139 -262 232q-8 -20 -65 -61q256 -25 278 -274h-90
q-47 75 -65 99q-24 -17 -78 -36q93 -81 149 -253zM151 38q101 68 153 119l-58 66q-87 -85 -153 -123zM282 264l35 70q-152 108 -203 158q-4 3 -5 4q-5 -1 -16 -18q-22 -32 -45 -59q1 -2 10 -6q72 -32 224 -149zM363 588h-115v200h115v-200zM427 590v198h121v-198h-121z
M738 590h-127v198h127v-198zM373 518h256q109 0 188 -8q-7 50 -7 121v157q75 -3 127 -10v89q-42 -7 -139 -7h-592q-109 0 -152 7v-91q28 12 123 12v-143q0 -107 -6 -137q142 9 202 10z" />
</svg>
