<?xml version="1.0" standalone="no"?>
<!DOCTYPE svg PUBLIC "-//W3C//DTD SVG 1.1//EN" "http://www.w3.org/Graphics/SVG/1.1/DTD/svg11.dtd" >
<svg xmlns="http://www.w3.org/2000/svg" xmlns:xlink="http://www.w3.org/1999/xlink" version="1.1" viewBox="-10 0 1034 1024">
  <g transform="matrix(1 0 0 -1 0 820)">
   <path fill="currentColor"
d="M208 240q-3 34 -5 48l-4 92h56q21 0 50 -3q6 0 12 -3v47l-59 -5h-60l-3 107q84 0 99 -2q15 0 23 -4v47l-59 -5h-64l-3 104q6 3 128 28l52 8q-13 15 -35 48q-87 -46 -190 -47l7 -64q-1 -3 0 -7q1 -24 2 -60l8 -272q0 -6 -5 -57h50zM379 617l-61 4q-3 0 -5 1v-47q1 0 38 5
l73 1q-9 -60 -22 -98q-13 -36 -43 -88q-33 -52 -69 -74q13 -6 28 -15q6 -3 20 -11q60 79 87 147q27 66 45 180q-28 -1 -58 -5h-33zM536 563v122q0 34 14 64h-58l6 -64v-352q0 -27 -13 -35q-15 -9 -42 -9q-18 0 -43 5q9 -22 17 -47q18 0 31 2q42 3 64 17q24 18 24 52v188
l35 -43l47 -71q25 -40 44 -82q16 15 38 29q-33 45 -66 96l-26 38q-18 21 -23 33q45 57 53 69q27 34 54 50q-6 3 -50 37q-7 -21 -23 -48q-18 -30 -59 -83zM864 242q-3 72 -2 87l6 169l9 147q0 3 1 10q1 12 4 35q1 9 3 21q-60 -4 -95 -5q-69 0 -93 3l-13 2v-47q19 4 42 5
l113 1l-6 -107q-102 0 -119 3q-3 0 -9 2v-47q12 6 52 6h74l-3 -106q-96 0 -115 3q-3 0 -10 2v-46q9 3 19 3q31 1 88 2h16l-3 -76q-4 -33 -8 -67h49zM251 191l-63 6v-9q1 -18 2 -16q3 -28 3 -38v-217q-90 0 -112 2q-9 0 -22 4v-48q4 3 12 4q28 1 54 3h779q21 0 50 -3
q6 0 12 -4v48l-73 -6h-71l1 236l4 44q-54 -6 -60 -6h-516zM230 -83v238h164v-238h-164zM431 -83v238h150v-238h-150zM618 -83v238h166v-238h-166z" />
  </g>

</svg>
