<?xml version="1.0" standalone="no"?>
<!DOCTYPE svg PUBLIC "-//W3C//DTD SVG 1.1//EN" "http://www.w3.org/Graphics/SVG/1.1/DTD/svg11.dtd" >
<svg xmlns="http://www.w3.org/2000/svg" xmlns:xlink="http://www.w3.org/1999/xlink" version="1.1" viewBox="-10 0 1010 1000">
   <path fill="currentColor"
d="M601 0q97 -1 93 8q0 4 -3 12q-8 17 -8 40v89h87q100 0 147 -8v88q-33 -10 -141 -10h-93v315l103 -4v-143q0 -59 -4 -83q59 0 76 2q22 2 23 8q1 2 -3 5q-15 12 -15 48v143q0 96 10 153h-95q8 -43 8 -71l-103 6v188q-1 27 6 32q5 7 35 6h66q38 1 50 -22q13 -21 13 -85
q38 29 85 43q-17 84 -43 110q-25 28 -87 27h-108q-67 1 -81 -14q-16 -11 -14 -71v-208l-75 4q-83 3 -99 11q7 -41 7 -119v-115q0 -51 -5 -81q4 0 13 1q94 5 90 13q1 4 -5 12q-13 20 -13 49v163l87 -2v-317h-69q-90 -1 -135 8v-90q56 8 135 8h69v-81q0 -12 -2 -46
q-1 -14 -2 -22zM79 68q44 10 129 10h38q93 0 129 -8q0 5 -2 15q-10 55 -10 201v409q0 116 7 141q1 4 1 6h-97q11 -24 10 -92h-117q0 80 10 108h-98q12 -39 12 -167v-417q0 -164 -12 -206zM169 145v133h117v-133h-117zM167 344v127h119v-127h-119zM167 534v149h119v-149h-119
z" />
</svg>
