<?xml version="1.0" standalone="no"?>
<!DOCTYPE svg PUBLIC "-//W3C//DTD SVG 1.1//EN" "http://www.w3.org/Graphics/SVG/1.1/DTD/svg11.dtd" >
<svg xmlns="http://www.w3.org/2000/svg" xmlns:xlink="http://www.w3.org/1999/xlink" version="1.1" viewBox="-10 0 1034 1024">
  <g transform="matrix(1 0 0 -1 0 820)">
   <path fill="currentColor"
d="M240 659l121 -1q10 1 24 1q31 0 75 3l134 10q-1 -39 -5 -65l-8 -66h-241q-39 0 -63 5v-46q22 4 63 5h237l-18 -118q-156 0 -181 2q-6 3 -36 3q1 -31 5 -65l-1 -455q-1 -6 -4 -25h49q-3 7 -4 36l-1 50h438v-18q0 -46 -6 -64h51q-3 31 -5 64l1 432l4 45q-30 -1 -59 -5h-210
l18 118l316 -1q3 0 36 -4v46q-30 -1 -62 -5h-286l15 138q73 9 147 23q81 15 95 15l33 -1q-30 31 -43 53q-63 -22 -162 -43q-141 -22 -292 -28q-93 -4 -132 -5l-89 11q1 -21 3 -40q3 -27 3 -41v-198q0 -51 -6 -114q-4 -61 -13 -111q-21 -117 -74 -205q-24 -36 -59 -66
q39 -15 57 -25q81 135 108 247q6 30 12 72t9 79q4 60 6 116v241zM386 111v97h438v-97h-438zM386 243v108h438v-108h-438zM386 -31v106h438v-106h-438z" />
  </g>

</svg>
