<?xml version="1.0" standalone="no"?>
<!DOCTYPE svg PUBLIC "-//W3C//DTD SVG 1.1//EN" "http://www.w3.org/Graphics/SVG/1.1/DTD/svg11.dtd" >
<svg xmlns="http://www.w3.org/2000/svg" xmlns:xlink="http://www.w3.org/1999/xlink" version="1.1" viewBox="-10 0 1010 1000">
   <path fill="currentColor"
d="M776 16q1 2 -1 5q-8 18 -1 57q45 217 210 291q-61 46 -83 86l-78 -78q-7 39 -10 123q-1 31 -3 83q-7 205 -18 221q-15 53 -156 71q-10 1 -15 2q-5 -57 -44 -107q92 27 129 -10q26 -35 28 -329h-123q-1 302 -212 456q-30 -40 -93 -57q223 -88 232 -397q-22 0 -50 4v-72
q-7 13 -19 36q-27 54 -38 72q-26 -30 -64 -52q115 -133 137 -391q84 17 103 34q0 2 -4 6q-15 14 -22 38q-33 134 -87 248q62 9 163 7q107 0 153 -7q-103 -155 -129 -336q92 -9 95 -4zM155 131v135h139v-135h-139zM294 326h-139v135h139v-135zM155 520v135h139v-135h-139z
M363 617q1 103 8 159h-83q4 -17 4 -57h-135q0 56 4 83h-84q7 -47 8 -163v-456q-1 -94 -8 -123q39 7 98 8h107q62 0 91 -6q-7 31 -10 119v436z" />
</svg>
