<?xml version="1.0" standalone="no"?>
<!DOCTYPE svg PUBLIC "-//W3C//DTD SVG 1.1//EN" "http://www.w3.org/Graphics/SVG/1.1/DTD/svg11.dtd" >
<svg xmlns="http://www.w3.org/2000/svg" xmlns:xlink="http://www.w3.org/1999/xlink" version="1.1" viewBox="-10 0 1010 1000">
   <path fill="currentColor"
d="M716 -2q27 67 42 119l-87 22q-10 -65 -42 -121zM79 82q27 6 147 6h48q67 0 127 -8q-8 42 -8 168v425l12 175q-37 -5 -101 2q12 -30 11 -72h-144q-3 90 6 111h-104q16 -46 16 -200v-399q0 -137 -10 -208zM313 155h-144v147h144v-147zM435 151q47 12 176 12h161
q125 0 168 -12v95q-41 -9 -166 -8h-115q4 1 12 4q46 13 43 22q0 5 -12 13q-19 15 -27 29q-95 136 -123 163l164 -4q42 -56 72 -133q6 2 18 7q85 32 81 42q0 4 -9 9q-26 14 -45 43q-139 203 -268 331l239 -20q-31 -61 -48 -87l79 -30q49 98 111 242l-87 30q-1 -4 -6 -17
q-22 -64 -30 -76q-333 38 -325 48q-11 4 -16 4q-1 -1 -6 -20q-15 -56 -28 -78q84 -20 233 -238q-127 9 -184 29q-8 3 -11 3q-1 -2 -4 -13q-11 -42 -28 -68q102 -61 159 -235h-48q-95 0 -130 10v-97zM169 365v137h144v-137h-144zM169 568v143h144v-143h-144z" />
</svg>
