<?xml version="1.0" standalone="no"?>
<!DOCTYPE svg PUBLIC "-//W3C//DTD SVG 1.1//EN" "http://www.w3.org/Graphics/SVG/1.1/DTD/svg11.dtd" >
<svg xmlns="http://www.w3.org/2000/svg" xmlns:xlink="http://www.w3.org/1999/xlink" version="1.1" viewBox="-10 0 1034 1024">
  <g transform="matrix(1 0 0 -1 0 820)">
   <path fill="currentColor"
d="M99 684q1 -31 5 -64l-1 -683l-3 -29q-1 -1 -1 -5h48q-4 54 -5 83v11h179q-1 -43 -5 -57h51q-6 13 -6 65l1 632q0 12 5 47q-30 -1 -59 -5q-153 0 -174 2q-6 3 -35 3zM142 33v180h179v-180h-179zM321 643v-189h-179v189h179zM142 249v169h179v-169h-179zM968 587
q-30 -1 -62 -5l-485 1q-18 1 -28 4v-46q21 4 63 5h168q-37 -84 -102 -179q-30 -43 -44 -55q-15 -10 -43 -13q10 -30 16 -58q87 9 124 9l128 1q-36 -54 -66 -96q-28 -39 -67 -86q-52 -64 -83 -90q-27 -21 -58 -27q0 -3 7 -22q4 -19 10 -35q42 6 102 10l329 22q25 -43 40 -80
q9 7 41 27q-28 51 -72 120q-42 66 -79 119q-18 -12 -39 -20q24 -30 44 -57l49 -78l-177 -9l-173 -8l80 94q30 36 56 69q48 63 107 149l66 92q13 21 41 32q-27 13 -57 36q-12 -24 -21 -41l-53 -82l-219 -5q75 109 97 145l72 116l252 -1q3 0 36 -4v46zM755 634l-100 103
q-13 15 -27 28q-30 -25 -34 -28q30 -24 70 -69q34 -37 62 -71q21 19 36 30z" />
  </g>

</svg>
