<?xml version="1.0" standalone="no"?>
<!DOCTYPE svg PUBLIC "-//W3C//DTD SVG 1.1//EN" "http://www.w3.org/Graphics/SVG/1.1/DTD/svg11.dtd" >
<svg xmlns="http://www.w3.org/2000/svg" xmlns:xlink="http://www.w3.org/1999/xlink" version="1.1" viewBox="-10 0 1034 1024">
  <g transform="matrix(1 0 0 -1 0 820)">
   <path fill="currentColor"
d="M83 -15q0 -39 -3 -55l-1 -2q0 -6 -2 -13h49q0 7 -2 15l-4 55v12h185q-3 -64 -5 -75h48q-3 15 -5 48l1 671q0 21 4 48q-34 -1 -69 -5l-154 1q-19 3 -48 4q6 -60 6 -66v-638zM120 33v184h185v-184h-185zM120 253v169h185v-169h-185zM120 458v190h185v-190h-185zM410 -156
q54 9 84 18q27 7 63 21q123 42 220 126q121 100 202 294q-40 -1 -81 -5h-173q63 72 70 77q10 12 38 20q-36 21 -53 36q-9 -24 -65 -86q-24 -27 -51 -52q-27 -24 -54 -46q-130 -102 -223 -115q31 -22 49 -41q123 72 141 85q48 33 113 86h228q-15 -33 -49 -88
q-60 -88 -117 -135l-66 62l-53 47q-9 -15 -30 -34q52 -31 116 -100q-42 -33 -74 -49q-76 -42 -158 -62q-43 -10 -89 -11q-19 0 -42 3q16 -24 33 -55q10 3 21 4zM411 500q28 19 59 43q36 28 83 71q7 7 16 15h246q-63 -105 -159 -179q-12 7 -52 48l-53 51q-15 -18 -31 -32
q61 -36 101 -90q-42 -33 -133 -73q-55 -19 -111 -24q22 -18 46 -46q156 63 257 138q123 93 203 248q-37 -1 -76 -5h-208l9 12q9 9 14 15l12 16q13 18 46 35q-33 13 -60 31q-3 -13 -26 -51q-48 -66 -105 -113q-75 -61 -128 -72q3 -1 5 -3q21 -13 33 -26z" />
  </g>

</svg>
