<?xml version="1.0" standalone="no"?>
<!DOCTYPE svg PUBLIC "-//W3C//DTD SVG 1.1//EN" "http://www.w3.org/Graphics/SVG/1.1/DTD/svg11.dtd" >
<svg xmlns="http://www.w3.org/2000/svg" xmlns:xlink="http://www.w3.org/1999/xlink" version="1.1" viewBox="-10 0 1034 1024">
  <g transform="matrix(1 0 0 -1 0 820)">
   <path fill="currentColor"
d="M264 -100q0 -39 -5 -65h48q-4 19 -5 51h411q-4 -39 -5 -46h50q-4 52 -5 88v344q42 -25 76 -45q39 -19 106 -51q16 27 36 46q-84 12 -181 73q-88 55 -147 125l274 -1l31 -4v46q-24 -4 -64 -5h-463l48 106l355 -1q1 0 39 -4v46q-31 -1 -63 -5h-322l19 73q1 6 3 14
q9 45 17 60q3 9 20 18q-9 1 -27 4q-12 0 -21 3q-6 1 -20 7q0 -36 -7 -74q-7 -42 -25 -105h-214q-42 0 -63 5v-46q22 4 63 5h201q-27 -66 -49 -106h-235q-42 0 -63 5v-46q19 4 63 5h206q-63 -76 -145 -138q-88 -61 -155 -78q28 -21 45 -39q12 7 18 11q48 27 78 49
q31 21 77 55v-380zM294 307q57 57 102 113h196q25 -31 47 -55l65 -58h-410zM302 -78v93h411v-93h-411zM302 51v88h411v-88h-411zM302 175v96h411v-96h-411zM192 726q102 -54 154 -98q12 16 31 35q-4 1 -37 22l-80 49l-38 24q-6 -6 -8 -9q-10 -12 -22 -23zM665 639l57 60
q33 33 67 38q-6 6 -19 13q-16 9 -28 20q-1 0 -6 5q-15 -21 -47 -55l-42 -43q-9 -9 -34 -29q19 -12 36 -25q7 9 16 16v0z" />
  </g>

</svg>
