<?xml version="1.0" standalone="no"?>
<!DOCTYPE svg PUBLIC "-//W3C//DTD SVG 1.1//EN" "http://www.w3.org/Graphics/SVG/1.1/DTD/svg11.dtd" >
<svg xmlns="http://www.w3.org/2000/svg" xmlns:xlink="http://www.w3.org/1999/xlink" version="1.1" viewBox="-10 0 1034 1024">
  <g transform="matrix(1 0 0 -1 0 820)">
   <path fill="currentColor"
d="M77 156l12 -9q12 -7 26 -22q54 33 94 61q39 30 98 79v-331q0 -36 -4 -55q0 -3 -1 -6h46q-3 12 -4 40q0 7 -1 28h434q-1 -48 -5 -62h49l-1 3q-3 7 -4 34l-1 354l6 56q-49 -4 -60 -5h-401q30 36 61 77l504 -1q9 -1 21 -4v44q-16 -4 -60 -5h-442q22 39 46 83h312q39 0 62 -5
v44q-18 -4 -60 -5h-297q3 15 29 77l345 -1q6 0 30 -4v44q-30 -1 -61 -5h-191q18 22 48 56q31 34 65 38q-39 25 -53 40q-13 -24 -34 -48q-27 -33 -74 -86h-168q3 6 6 11q3 3 8 11q3 7 8 13l-61 44q-51 33 -73 49q-21 -27 -27 -34q93 -51 134 -94h-228q-36 0 -61 5v-44
q15 4 61 5h285l-30 -77h-205q-19 0 -47 3q-6 0 -13 2v-44q21 4 60 5h187q-21 -43 -47 -83h-233q-45 0 -61 5v-44q21 4 61 5h209q-39 -48 -70 -82q-27 -27 -78 -68q-87 -72 -157 -88q3 -1 6 -4zM343 -25v84h434v-84h-434zM777 93h-434v79h434v-79zM777 206h-434v82h434v-82z
" />
  </g>

</svg>
