<?xml version="1.0" standalone="no"?>
<!DOCTYPE svg PUBLIC "-//W3C//DTD SVG 1.1//EN" "http://www.w3.org/Graphics/SVG/1.1/DTD/svg11.dtd" >
<svg xmlns="http://www.w3.org/2000/svg" xmlns:xlink="http://www.w3.org/1999/xlink" version="1.1" viewBox="-10 0 1034 1024">
  <g transform="matrix(1 0 0 -1 0 820)">
   <path fill="currentColor"
d="M386 496q12 -6 25 -14q27 27 64 69q36 42 62 77h216q-21 -39 -39 -64q-15 -25 -43 -64h-157q-45 0 -63 5v-46q21 3 45 5h128v-127l-207 1q-18 3 -33 4v-46q21 4 62 5h178v-140h-150q-46 0 -62 6v-47q18 6 62 6h150v-160q0 -33 -8 -46q-9 -12 -35 -16q-30 -3 -53 -4
q-22 0 -53 5q18 -27 26 -55q45 3 90 11q42 9 57 28q13 19 14 65v172h180q-1 -54 -5 -69h48q-3 15 -4 30l-1 214q46 0 87 -5v46q-30 -1 -62 -5h-25l1 125q0 19 4 43q-55 -4 -88 -5h-78q13 24 29 46l56 91q9 16 19 32q-60 -4 -71 -5h-190q9 15 18 29q19 37 51 44q-13 6 -27 10
q-19 7 -35 18q-27 -64 -77 -135q-64 -84 -136 -122zM662 161v140h180v-140h-180zM842 337h-180v127h180v-127zM111 -10q0 -48 -5 -63h48q-4 12 -5 33l-1 61h158q0 -43 -5 -53h49q-1 4 -2 9l-3 93l1 564l4 47q-99 -4 -103 -5q-82 0 -106 2q-6 3 -35 3q4 -39 5 -62v-629z
M148 57v179h158v-179h-158zM148 272v166h158v-166h-158zM306 640v-166h-158v166h158z" />
  </g>

</svg>
