<?xml version="1.0" standalone="no"?>
<!DOCTYPE svg PUBLIC "-//W3C//DTD SVG 1.1//EN" "http://www.w3.org/Graphics/SVG/1.1/DTD/svg11.dtd" >
<svg xmlns="http://www.w3.org/2000/svg" xmlns:xlink="http://www.w3.org/1999/xlink" version="1.1" viewBox="-10 0 1034 1024">
  <g transform="matrix(1 0 0 -1 0 820)">
   <path fill="currentColor"
d="M920 -136l21 -9q15 28 37 51q-58 1 -139 35q-73 33 -129 72q54 57 80 93q18 24 39 59q25 39 59 95q-28 -1 -58 -5h-226q36 54 73 75q-27 15 -54 38q-7 -18 -16 -33q-9 -16 -25 -40q-45 -61 -117 -129q-52 -48 -107 -66q24 -13 49 -37q57 46 97 83q34 33 71 73h238
q-51 -111 -136 -180q-27 19 -47 47q-28 36 -35 70q-25 -15 -51 -25l54 -69q21 -24 47 -50q-36 -27 -87 -57q-54 -28 -113 -49q-45 -15 -80 -16q-10 0 -27 2q22 -27 36 -52q60 18 124 44q75 31 181 101q85 -55 176 -95zM374 307q19 -19 37 -40q18 13 27 23q46 34 72 55
q19 15 38 33q31 27 70 44q-21 15 -43 44q-27 -36 -94 -96q-60 -48 -107 -63zM440 476q33 7 56 11q18 0 45 3q30 0 74 4l272 10l19 -26l10 -15q6 7 12 13q3 6 23 21q-48 54 -93 101l-72 74q-12 12 -23 24q-15 -16 -32 -31q10 -9 124 -123q0 -1 3 -4l-370 -13q60 66 101 115
q42 54 59 68q10 12 43 25q-24 15 -53 42q-21 -36 -49 -75q-33 -42 -83 -99q-36 -40 -52 -53t-34 -18q9 -27 20 -54zM753 423q30 -15 76 -45q42 -27 87 -62q15 -12 35 -34q13 25 29 41q-13 10 -148 103q-27 16 -53 36q-12 -21 -26 -39zM76 -21q0 -33 -5 -63h48q0 3 -2 6
q-3 25 -4 65v11h187l-4 -67l-1 -5h48q-3 6 -5 58l1 686l4 44q-55 -4 -70 -5l-161 1q-1 0 -41 4q1 -31 5 -65v-670zM113 472v201h187v-201h-187zM113 34v188h187v-188h-187zM113 258v178h187v-178h-187z" />
  </g>

</svg>
