<?xml version="1.0" standalone="no"?>
<!DOCTYPE svg PUBLIC "-//W3C//DTD SVG 1.1//EN" "http://www.w3.org/Graphics/SVG/1.1/DTD/svg11.dtd" >
<svg xmlns="http://www.w3.org/2000/svg" xmlns:xlink="http://www.w3.org/1999/xlink" version="1.1" viewBox="-10 0 1010 1000">
   <path fill="currentColor"
d="M778 -15q90 41 85 49q-1 3 -9 7q-12 7 -19 15q-21 27 -53 73l-12 18q71 0 139 -6q-5 48 -4 124q0 75 6 126q-39 -6 -135 -6h-72v107h133q88 0 109 -4q-7 36 -13 128q-6 108 -18 128q-28 35 -131 48q-11 -52 -36 -93q66 14 93 -2q8 -6 12 -46q6 -49 4 -91h-153v212
q3 97 12 139h-93q10 -42 12 -143v-202q-79 183 -248 303q-26 -38 -83 -63q48 -15 63 -26h-79q4 -25 4 -51h-131q0 36 1 52q0 19 3 43h-84q3 -22 3 -47q1 -20 1 -72v-484q0 -97 -6 -161q48 7 119 8h78q45 -1 101 -8q-9 84 -10 155v430q0 75 8 131q108 -57 194 -218
q-86 -3 -136 6q4 -26 5 -101v-62q0 -72 -1 -89q18 4 46 5q13 1 30 1h45h77v-103h-34q-17 1 -59 2q-84 1 -96 4v-80q25 6 165 6h87q41 -58 80 -162zM573 -10q57 82 74 116l-76 37q-25 -56 -75 -121zM292 139h-131v127h131v-127zM831 215h-127v103h127v-103zM292 334h-131v125
h131v-125zM508 385v107h127v-107h-127zM292 526h-131v131h131v-131z" />
</svg>
