<?xml version="1.0" standalone="no"?>
<!DOCTYPE svg PUBLIC "-//W3C//DTD SVG 1.1//EN" "http://www.w3.org/Graphics/SVG/1.1/DTD/svg11.dtd" >
<svg xmlns="http://www.w3.org/2000/svg" xmlns:xlink="http://www.w3.org/1999/xlink" version="1.1" viewBox="-10 0 1034 1024">
  <g transform="matrix(1 0 0 -1 0 820)">
   <path fill="currentColor"
d="M96 677q1 -33 5 -68l-1 -653q-1 -4 -1 -7q-1 -13 -3 -28h47q-6 51 -5 84v14h149q0 -24 -5 -46h48q-4 22 -5 46l1 606q1 25 5 52q-34 -1 -70 -5q-102 0 -127 2q-6 3 -38 3zM138 636h149v-168h-149v168zM138 269v163h149v-163h-149zM138 55v178h149v-178h-149zM612 306
q-48 -105 -151 -214q-70 -75 -129 -91q31 -18 52 -37q36 33 74 70q36 34 56 60q69 81 114 155v-348q0 -27 -3 -54q0 -3 -3 -16h49q0 7 -2 16q-1 27 -3 54v340l62 -91q25 -31 61 -69q39 -42 71 -72q31 -28 69 -60q6 7 12 13q15 13 21 20q1 0 3 2q1 0 6 4q3 1 6 4
q-39 12 -68 32q-30 21 -77 70q-94 94 -157 212h201q25 0 52 -2q6 0 13 -3v46q-33 -1 -65 -5h-210v266h162q25 0 52 -2q6 -1 13 -3v46q-24 -4 -65 -5h-162v55q0 43 18 68h-62q0 -3 3 -9l3 -114l-193 3q-7 1 -15 2v-46q12 1 61 5h147v-266l-225 1q-18 3 -30 4v-46l62 5h177z
M469 471q54 -73 54 -78q18 15 21 14q1 0 13 12q-12 19 -55 72l-37 50q-6 7 -10 12q-9 -4 -21 -16q-10 -7 -13 -9q15 -15 25 -29zM758 397q6 -3 11 -5q16 28 34 63q33 63 64 74q-10 6 -20 10q-31 13 -37 19q-1 -15 -17 -49q-36 -66 -58 -100q18 -9 23 -12v0z" />
  </g>

</svg>
