<?xml version="1.0" standalone="no"?>
<!DOCTYPE svg PUBLIC "-//W3C//DTD SVG 1.1//EN" "http://www.w3.org/Graphics/SVG/1.1/DTD/svg11.dtd" >
<svg xmlns="http://www.w3.org/2000/svg" xmlns:xlink="http://www.w3.org/1999/xlink" version="1.1" viewBox="-10 0 1010 1000">
   <path fill="currentColor"
d="M611 -2q96 18 101 28q0 3 -6 8q-8 8 -8 16q87 205 276 264q-32 41 -51 91q-71 -43 -115 -79v69q-30 -6 -100 -6h-71q-86 0 -115 8v-63q-42 55 -82 97q-30 -33 -60 -47q-5 -2 -7 -3v298q0 109 8 145h-95q-1 -1 0 -6q6 -26 6 -66h-121q0 76 6 111h-96q8 -43 8 -168v-421
q0 -109 -8 -200q39 8 131 8h44q81 0 125 -6q-1 7 -2 19q-6 32 -6 126v139q155 -94 238 -362zM653 100q-48 121 -119 218q29 4 85 4h91q60 -1 90 -4q-112 -124 -147 -218zM169 149v129h125v-129h-125zM294 344h-125v137h125v-137zM663 449l41 216l-81 12q-1 -94 -40 -222z
M782 447l33 11q67 21 70 29q1 3 -6 11q-21 21 -32 52l-3 9q-55 166 -86 235q105 0 153 -10v87q-42 -8 -137 -8h-205q-121 0 -158 10v-89q3 0 23 2q80 8 135 8h116q47 -82 97 -347zM510 479q33 119 59 236l-83 18q-14 -129 -53 -237zM294 546h-125v139h125v-139z" />
</svg>
