<?xml version="1.0" standalone="no"?>
<!DOCTYPE svg PUBLIC "-//W3C//DTD SVG 1.1//EN" "http://www.w3.org/Graphics/SVG/1.1/DTD/svg11.dtd" >
<svg xmlns="http://www.w3.org/2000/svg" xmlns:xlink="http://www.w3.org/1999/xlink" version="1.1" viewBox="-10 0 1034 1024">
  <g transform="matrix(1 0 0 -1 0 820)">
   <path fill="currentColor"
d="M643 108v-195h-219q-43 0 -65 6v-47q27 6 65 6h490q27 0 50 -4q1 0 14 -2v47q-9 -3 -14 -3q-24 -1 -49 -3h-233v195l181 -1q13 -1 29 -4v46q-18 -4 -64 -5h-146q0 97 3 107q1 15 10 27h-57q0 -9 3 -21l2 -113h-147q-48 0 -65 5v-46q21 4 65 5h147zM543 326q10 12 21 22
q16 15 44 22l-25 12q-18 7 -33 19q-40 -57 -86 -105q-55 -51 -93 -72q24 -12 46 -27zM640 469h-191q-45 0 -64 5v-45q21 4 64 5q490 0 507 -2q1 0 5 -1q1 0 14 -2v45q-21 -4 -65 -5h-231v131q174 0 192 -2q1 0 5 -1q1 0 14 -2v46l-39 -4l-172 -1q0 84 3 88q1 13 11 30h-59
q3 -9 3 -15q3 -27 3 -50v-53l-170 1q-18 3 -33 4v-46q22 4 65 5h138v-131zM958 244q-1 1 -124 101l-78 59q-12 -19 -28 -34q37 -22 69 -47q64 -51 100 -82q16 -15 30 -31q3 3 5 7q13 16 16 17zM102 644q3 -24 3 -32v-644q0 -49 -6 -65h49q-4 54 -5 83v9h162q0 -48 -6 -55h51
q-3 9 -3 20q0 24 -2 44l1 624l4 47q-30 -1 -61 -5l-145 1q-15 3 -45 4zM143 30v178h162v-178h-162zM143 243v174h162v-174h-162zM305 634v-182h-162v182h162z" />
  </g>

</svg>
