<?xml version="1.0" standalone="no"?>
<!DOCTYPE svg PUBLIC "-//W3C//DTD SVG 1.1//EN" "http://www.w3.org/Graphics/SVG/1.1/DTD/svg11.dtd" >
<svg xmlns="http://www.w3.org/2000/svg" xmlns:xlink="http://www.w3.org/1999/xlink" version="1.1" viewBox="-10 0 1034 1024">
  <g transform="matrix(1 0 0 -1 0 820)">
   <path fill="currentColor"
d="M468 332h-56q-46 0 -63 5v-46q21 4 63 5h56v-183q-88 3 -96 5v-46l29 4l221 1v-149l-209 1q-19 3 -23 4v-46q30 4 63 5l426 -1q4 0 37 -4v46l-39 -4l-217 -1v149h210q25 0 50 -3q1 0 14 -2v46q-31 -1 -63 -5h-59v183h91q30 0 51 -3l13 -2v46q-31 -1 -63 -5h-92v165h55
q45 0 64 -7v48l-62 -6h-209v120l151 24q34 4 44 5q10 0 23 -1q-24 28 -37 48q-46 -15 -112 -27q-61 -12 -116 -17q-166 -9 -192 -11q-21 1 -36 4q10 -18 20 -45q49 0 91 5q1 3 73 6l53 4v-115h-188q-39 0 -62 6v-48q18 6 62 7h34v-165zM622 332h-117v165h117v-165zM505 113
v183h117v-183h-117zM660 332v165h114v-165h-114zM660 113v183h114v-183h-114zM96 -51q0 -48 -5 -64h47q0 6 -5 58v46h156q0 -45 -6 -54h50q0 6 -3 15l-2 89l1 576l4 49q-55 -6 -86 -6q-94 0 -121 2q-3 1 -32 4h-3q4 -60 5 -64v-651zM133 25v177h156v-177h-156zM133 238v170
h156v-170h-156zM289 622v-178h-156v178h156z" />
  </g>

</svg>
