<?xml version="1.0" standalone="no"?>
<!DOCTYPE svg PUBLIC "-//W3C//DTD SVG 1.1//EN" "http://www.w3.org/Graphics/SVG/1.1/DTD/svg11.dtd" >
<svg xmlns="http://www.w3.org/2000/svg" xmlns:xlink="http://www.w3.org/1999/xlink" version="1.1" viewBox="-10 0 1034 1024">
  <g transform="matrix(1 0 0 -1 0 820)">
   <path fill="currentColor"
d="M296 541h-180q-45 0 -62 5v-44q27 4 62 5h189l-1 -160q-1 -9 -2 -23q0 -10 -2 -19h48l-2 19q-3 51 -3 69v114h155q27 0 51 -3l13 -2v44q-15 -4 -62 -5h-165v98h93q31 0 50 -3l15 -2v44q-21 -4 -64 -5h-94q0 37 3 47q1 12 9 24h-56q0 -6 3 -15l2 -179v-9zM225 421
q12 13 31 18q-30 24 -43 38q-55 -94 -135 -136q25 -21 37 -32l85 87q12 13 25 25zM240 -88q0 -28 -3 -50q0 -3 -3 -12h48q-3 7 -5 63h495q-1 -39 -5 -56h48q-4 52 -5 103l1 269q0 15 4 39q-49 -4 -60 -5l-483 1q-15 3 -38 4q6 -54 6 -75v-281zM277 -53v76h495v-76h-495z
M277 158v71h495v-71h-495zM277 57v67h495v-67h-495zM513 378l9 12q-100 76 -107 81q-9 -12 -25 -30q54 -36 77 -55q21 -15 34 -28zM882 706l-51 -4l-268 1q-18 1 -29 4v-43q12 3 36 4q27 -78 53 -121q27 -46 78 -106q-45 -42 -123 -81q-60 -27 -118 -29q21 -27 33 -46
q123 36 234 129q54 -36 95 -59q43 -21 119 -55q18 21 40 42q-34 6 -51 12q-21 6 -54 20q-54 21 -119 68q46 54 76 113q15 30 30 67l29 85q-6 0 -10 -1zM836 668q-27 -112 -107 -198q-84 85 -116 198h223z" />
  </g>

</svg>
