<?xml version="1.0" standalone="no"?>
<!DOCTYPE svg PUBLIC "-//W3C//DTD SVG 1.1//EN" "http://www.w3.org/Graphics/SVG/1.1/DTD/svg11.dtd" >
<svg xmlns="http://www.w3.org/2000/svg" xmlns:xlink="http://www.w3.org/1999/xlink" version="1.1" viewBox="-10 0 1010 1000">
   <path fill="currentColor"
d="M240 -13q87 0 93 9q1 3 -2 9q-8 15 -8 33v22h72q83 0 111 -4v63q-36 -3 -111 -4h-74v70h110q45 0 125 -6v65q-31 -4 -127 -4h-74v104q0 48 8 109h-91q8 -38 8 -111v-100h-121q-75 0 -107 4v-65q86 6 107 6h87v-133q0 2 0 -5q-3 -46 -6 -62zM917 44q-73 188 -133 270
q59 36 178 69q-38 39 -55 82q-70 -24 -173 -100q-86 71 -184 104q-30 -43 -80 -64q-36 -63 -93 -105l54 -46q52 39 103 104l-56 43q91 -9 207 -87q-48 -49 -106 -141l76 -28q26 66 73 123q39 -49 82 -156h-141q-76 0 -117 3v-77q5 0 17 1q62 5 100 5h127q82 -2 117 -6
q5 -1 4 6zM159 256l69 22q-40 109 -99 173q-29 -25 -71 -30q65 -64 101 -165zM268 528v60h466v-60h-466zM268 691h466v-56h-466v56zM268 798h466v-60h-466v60zM730 473l85 -4l-3 79v266q0 51 5 93h-87q4 -24 4 -53h-466q0 34 4 51h-87q4 -47 5 -91v-264q0 -51 -3 -81
q32 4 81 4h462z" />
</svg>
