<?xml version="1.0" standalone="no"?>
<!DOCTYPE svg PUBLIC "-//W3C//DTD SVG 1.1//EN" "http://www.w3.org/Graphics/SVG/1.1/DTD/svg11.dtd" >
<svg xmlns="http://www.w3.org/2000/svg" xmlns:xlink="http://www.w3.org/1999/xlink" version="1.1" viewBox="-10 0 1010 1000">
   <path fill="currentColor"
d="M845 14q56 70 54 88q-2 4 -19 2q-35 -2 -67 2q-24 3 -81 9q-42 4 -55 6v92h135q79 -1 121 -8v71q-45 -4 -96 -4v145q52 0 88 -6v72q-23 -4 -86 -4v148q85 -1 109 -8v80q-31 -7 -109 -8h-160v109h67q82 -2 157 -12v79q-38 -6 -153 -7h-212q-108 2 -155 7v-77q63 9 153 10
h71v-109h-127q-73 1 -99 8v-76q26 7 67 8v-152q-49 1 -73 8v-76q24 7 73 8v-147q-53 0 -67 4v-71q43 7 111 8h113v-84q-39 7 -182 20q-1 -16 -34 -79q279 7 456 -56zM75 62q42 4 90 4h97q22 0 75 -3q7 -1 10 -1q-6 53 -6 77v520q1 75 10 147h-85q4 -36 4 -79h-117
q0 74 4 105h-86q8 -95 10 -175v-502q0 -21 -6 -93zM153 129v135h117v-135h-117zM516 272v147h89v-147h-89zM677 272v147h93v-147h-93zM153 328v135h117v-135h-117zM607 479h-91v152h91v-152zM772 479h-93v152h93v-152zM153 526v137h117v-137h-117z" />
</svg>
