<?xml version="1.0" standalone="no"?>
<!DOCTYPE svg PUBLIC "-//W3C//DTD SVG 1.1//EN" "http://www.w3.org/Graphics/SVG/1.1/DTD/svg11.dtd" >
<svg xmlns="http://www.w3.org/2000/svg" xmlns:xlink="http://www.w3.org/1999/xlink" version="1.1" viewBox="-10 0 1010 1000">
   <path fill="currentColor"
d="M841 2q60 63 62 92q-3 3 -15 1q-29 -6 -57 -1q-193 32 -387 49q-6 -36 -55 -83q298 10 452 -58zM75 54q70 4 96 4h95q35 0 99 -4q-6 66 -6 91v484q0 40 10 111q111 -93 177 -222h-22q-103 1 -133 8v-83q33 8 135 8h83v-18q0 -37 -6 -70q105 -1 101 8q0 2 -4 9
q-15 30 -15 71h91q83 -2 127 -10v87q-33 -7 -125 -8h-34q70 142 208 222q-43 35 -63 80q-131 -99 -197 -302h-5v244q0 67 1 96q2 31 6 41h-91q8 -38 8 -139v-244h-6q-37 152 -228 334q-43 -49 -83 -64l63 -40h-75q4 -20 4 -41h-131q0 17 1 71q1 33 1 40h-86q8 -61 10 -155
v-524q0 -18 -6 -85zM153 121v131h135v-131h-135zM792 151q87 28 89 36q1 5 -7 11q-15 14 -25 31q-16 30 -67 140q-40 -19 -76 -21q56 -83 86 -197zM649 169q27 63 45 149l-71 18q-21 -96 -52 -155zM486 187q41 70 68 151l-80 24q-14 -68 -61 -153zM153 316v139h135v-139
h-135zM288 518h-135v125h135v-125z" />
</svg>
