<?xml version="1.0" standalone="no"?>
<!DOCTYPE svg PUBLIC "-//W3C//DTD SVG 1.1//EN" "http://www.w3.org/Graphics/SVG/1.1/DTD/svg11.dtd" >
<svg xmlns="http://www.w3.org/2000/svg" xmlns:xlink="http://www.w3.org/1999/xlink" version="1.1" viewBox="-10 0 1034 1024">
  <g transform="matrix(1 0 0 -1 0 820)">
   <path fill="currentColor"
d="M870 -106l79 2q3 21 19 54q-51 -9 -89 -13q-57 -3 -108 -4q-43 0 -112 8v145l214 -1l31 -5v47l-38 -4q-19 -1 -50 -2h-157v114l167 -1q15 0 44 -4q-6 27 -5 90v53h19q42 0 65 -6v47q-12 -1 -15 -2q-12 -3 -49 -4h-20q0 88 2 100q0 18 3 35q-30 -1 -60 -5h-151v91
q210 0 232 -3q4 0 11 -2v46q-31 -1 -63 -5h-180q0 64 3 70q1 15 11 29h-57q4 -22 5 -64v-35h-177q-46 0 -63 5v-46q21 4 63 5h177v-91h-142q-43 0 -62 5v-47q15 4 39 5l165 1v-94h-195q-40 0 -63 6v-47q18 6 63 6h195v-102l-196 3q-3 0 -8 2v-46q21 4 62 5h142v-285
q-76 33 -139 90q6 21 13 38l9 31q4 13 9 30q6 15 27 28q-25 6 -30 8q-13 4 -16 5t-20 7q-6 -60 -28 -132q-24 -76 -72 -128q-48 -46 -97 -61q27 -15 46 -34q25 16 67 56q18 16 34 37q16 24 46 73q33 -27 56 -43q36 -24 81 -42q63 -21 162 -21zM659 408v94h168v-94h-168z
M659 271v102h168v-102h-168zM88 666q3 -55 4 -85l-1 -624q-1 -16 -4 -26h47q-3 7 -4 33l-1 59h168q-1 -43 -5 -52h49q-4 24 -5 49l1 620l4 46q-66 -4 -99 -5q-96 0 -121 2q-3 1 -6 1q-10 0 -28 2q0 -9 1 -20zM129 59v181h168v-181h-168zM129 276v162h168v-162h-168zM297 645
v-171h-168v171h168z" />
  </g>

</svg>
