<?xml version="1.0" standalone="no"?>
<!DOCTYPE svg PUBLIC "-//W3C//DTD SVG 1.1//EN" "http://www.w3.org/Graphics/SVG/1.1/DTD/svg11.dtd" >
<svg xmlns="http://www.w3.org/2000/svg" xmlns:xlink="http://www.w3.org/1999/xlink" version="1.1" viewBox="-10 0 1010 1000">
   <path fill="currentColor"
d="M603 -13q85 -2 97 7q1 2 -2 8q-13 30 -13 74h99q111 -2 154 -8v79q-27 -4 -80 -7q-46 -2 -76 -1h-97v76h83q62 -1 105 -8q-5 26 -7 45q-1 16 -1 44v50q64 -1 89 -8v77q-28 -7 -87 -8v60q1 62 8 79q-46 -4 -101 -4h-89v85h51q110 0 141 -8v74q-28 -7 -141 -8h-51v119
q134 8 267 -12q-25 40 -33 95q-218 -2 -307 -28q-103 -28 -156 -97q-49 79 -121 147q-23 -28 -81 -51q150 -64 196 -276q83 23 98 35q0 3 -10 9q-17 12 -22 21q-21 42 -28 60q56 64 121 85v-248h-53q-105 -1 -143 8v-79q37 8 143 10h53v-78h-85q-105 1 -141 8v-77
q26 11 149 10h77v-76h-73q-88 3 -123 10v-77q19 6 123 12h73v-76h-79q-116 1 -147 8v-79q43 8 145 8h81q0 -59 -6 -89zM60 44q36 4 97 4h95q42 -1 95 -4q-4 56 -4 87v486q0 11 1 34q4 109 7 127h-85q4 -24 4 -73h-127q-2 67 4 97h-91q8 -58 9 -153v-518q0 -27 -5 -87z
M268 112h-127v136h127v-136zM685 270v76h109v-76h-109zM268 308h-127v137h127v-137zM685 405v78h109v-78h-109zM141 504v137h127v-137h-127z" />
</svg>
