<?xml version="1.0" standalone="no"?>
<!DOCTYPE svg PUBLIC "-//W3C//DTD SVG 1.1//EN" "http://www.w3.org/Graphics/SVG/1.1/DTD/svg11.dtd" >
<svg xmlns="http://www.w3.org/2000/svg" xmlns:xlink="http://www.w3.org/1999/xlink" version="1.1" viewBox="-10 0 1034 1024">
  <g transform="matrix(1 0 0 -1 0 820)">
   <path fill="currentColor"
d="M608 315q-54 -108 -140 -207q-75 -81 -125 -106q27 -10 49 -25q78 70 129 133q45 55 109 161v-365q0 -42 -5 -64h48q-4 52 -5 89v353q63 -112 131 -194q31 -36 52 -55q28 -27 75 -67q12 13 38 29l10 7q-39 16 -64 35q-25 18 -69 63q-78 78 -146 213h170q46 0 64 -6v47
q-60 -4 -62 -5h-199q0 75 5 85q1 12 8 22h-56q1 -15 2 -14l3 -93h-187q-43 0 -62 5v-47q15 6 62 6h165zM393 703q12 -27 20 -46q243 6 418 34q15 3 24 3t28 -3q-27 27 -42 52q-42 -15 -99 -25q-34 -6 -86 -11q-51 -4 -95 -7q-69 -3 -93 -4q-33 0 -75 7zM408 567
q48 -52 94 -130q16 15 22 18q4 3 11 7q-42 61 -82 111q-6 9 -15 19q-13 -12 -30 -25zM584 618q19 -24 32 -46l49 -85q15 15 34 19l-39 64l-25 39q-6 12 -17 30q-15 -12 -34 -21zM827 521l22 41q18 34 40 46q-30 15 -49 28q-18 -45 -44 -97q-30 -54 -48 -78q21 -4 39 -16
q27 55 40 76zM85 682l4 -52l-1 -665q-1 -16 -4 -26h47q-3 30 -5 60v32h170q0 -18 -4 -34h47q-4 15 -5 65l1 584l4 47l-31 -3q-22 -3 -78 -3q-87 0 -111 2q-3 1 -15 2q-9 0 -20 2q0 -4 1 -11zM126 67v168h170v-168h-170zM126 271v174h170v-174h-170zM296 651v-170h-170v170
h170z" />
  </g>

</svg>
