<?xml version="1.0" standalone="no"?>
<!DOCTYPE svg PUBLIC "-//W3C//DTD SVG 1.1//EN" "http://www.w3.org/Graphics/SVG/1.1/DTD/svg11.dtd" >
<svg xmlns="http://www.w3.org/2000/svg" xmlns:xlink="http://www.w3.org/1999/xlink" version="1.1" viewBox="-10 0 1034 1024">
  <g transform="matrix(1 0 0 -1 0 820)">
   <path fill="currentColor"
d="M109 683q1 -33 5 -66l-1 -653q0 -4 -4 -32h45q-3 33 -5 74v9h126v-10q0 -45 -5 -70h47q-4 19 -5 70v116q28 -6 44 -14q49 85 59 106q13 28 39 87l-2 -442q-3 -7 -4 -13h48q-1 6 -5 42l-2 186v239l45 -48q9 -9 11 -13q30 -43 45 -62q3 4 9 9q10 10 23 21l-51 57
q-12 15 -69 76l-12 12v59q88 0 99 -3q1 0 6 -2v46q-99 -4 -102 -5h-3v206q39 3 64 9q43 6 64 4q0 1 2 0q-21 27 -33 49q-36 -15 -69 -22q-76 -15 -139 -15q-18 0 -48 3q12 -19 23 -45q10 1 22 2q27 1 55 5q10 3 23 4v-200l-97 2q-3 1 -5 1l-12 2v-46q42 6 70 5h43
q-12 -72 -59 -170q-25 -51 -45 -82q-19 -25 -37 -38l1 501q0 4 4 49q-34 -1 -69 -5q-78 0 -102 2q-6 3 -37 3zM149 50v174h126v-174h-126zM149 260v172h126v-172h-126zM149 467v175h126v-175h-126zM779 695q0 46 17 70h-61q1 -4 4 -11l3 -116l-1 -257l-10 -88
q-18 -103 -58 -194q-51 -111 -109 -176q-22 -24 -53 -41q6 0 45 -16q6 -1 13 -6q54 69 99 149q30 58 53 114q19 57 40 132q24 -123 79 -239q36 -78 81 -144q30 18 58 25q-12 6 -22 15q-6 6 -23 24q-12 12 -24 31q-60 90 -98 226q-13 49 -23 114q-9 63 -10 99v289zM635 332
l15 69q10 45 17 77q1 15 8 31q3 15 27 30q-16 4 -31 7q-10 1 -33 9q0 -40 -11 -95q-12 -66 -32 -139q19 -1 36 -8q1 10 4 19zM841 327q4 -1 12 -4q4 12 10 23l49 139q12 39 44 56q-30 6 -64 22q-1 -21 -18 -78q-12 -37 -24 -68q-12 -33 -35 -80q12 -3 26 -10v0z" />
  </g>

</svg>
