<?xml version="1.0" standalone="no"?>
<!DOCTYPE svg PUBLIC "-//W3C//DTD SVG 1.1//EN" "http://www.w3.org/Graphics/SVG/1.1/DTD/svg11.dtd" >
<svg xmlns="http://www.w3.org/2000/svg" xmlns:xlink="http://www.w3.org/1999/xlink" version="1.1" viewBox="-10 0 1010 1000">
   <path fill="currentColor"
d="M605 0q76 -3 87 6q2 3 -3 9q-10 11 -10 23v345h127v-95q-83 0 -100 4v-71q38 4 54 5q21 1 46 1v-86q-45 0 -61 1q-19 0 -33 3v-69q18 3 74 4q56 0 95 -4q-4 26 -4 95v165q0 83 6 115q-27 -6 -127 -6h-75v65h63q49 0 115 -6q-44 124 -151 233q117 46 246 45q-36 38 -47 91
q-172 -32 -254 -85q-101 72 -238 110q-7 2 -10 3q-12 -36 -60 -77q116 -13 250 -86q-73 -66 -121 -158q-62 0 -73 4v-78q13 2 40 3q13 1 31 1h48h89v-65h-93q-61 0 -99 4q2 -12 3 -31q1 -15 1 -55v-190q0 -58 -6 -83q57 -10 127 -40q42 41 51 65q-4 3 -15 2q-17 -2 -32 2
q-31 9 -56 20v92q49 0 64 -1q20 -1 27 -3v71q-6 -4 -91 -4v89h119v-325q0 -36 -4 -58zM355 82q-6 29 -6 79v548q0 77 6 89h-77q4 -18 4 -77h-119q0 113 6 125h-78q6 -25 6 -125v-568q0 -42 -4 -71q15 2 33 3q15 1 55 1h79q69 -1 95 -4zM284 145h-121v135h121v-135zM284 340
h-121v131h121v-131zM284 530h-121v131h121v-131zM740 576h-194q25 58 101 119q43 -34 93 -119z" />
</svg>
