<?xml version="1.0" standalone="no"?>
<!DOCTYPE svg PUBLIC "-//W3C//DTD SVG 1.1//EN" "http://www.w3.org/Graphics/SVG/1.1/DTD/svg11.dtd" >
<svg xmlns="http://www.w3.org/2000/svg" xmlns:xlink="http://www.w3.org/1999/xlink" version="1.1" viewBox="-10 0 1010 1000">
   <path fill="currentColor"
d="M413 50q46 6 164 6h151q146 0 193 -8q-8 21 -8 75q0 41 8 62h-92q10 -27 10 -73h-349q0 53 8 77h-87q8 -25 8 -66q0 -55 -6 -73zM89 54q45 8 119 8h32q86 0 135 -8q-10 28 -10 218v357q-1 155 10 181h-87q6 -24 6 -62h-125q-3 78 6 102h-88q12 -45 12 -171v-429
q0 -163 -10 -196zM167 123v153h129v-153h-129zM460 197q29 10 165 10h71q93 0 169 -8q-6 30 -6 139v59q0 108 10 141q-35 -9 -161 -8h-107q-96 0 -141 6q6 -42 6 -137v-81q0 -76 -6 -121zM532 264v76h258v-76h-258zM167 334v149h129v-149h-129zM532 395v78h258v-78h-258z
M167 540v147h129v-147h-129zM685 542l31 75h68q84 0 156 -7v75q-38 -9 -148 -8h-234q-117 -1 -153 8v-75q66 7 145 7h85q-12 -22 -36 -55zM558 703q80 49 75 57q-1 3 -10 4q-24 4 -48 22q-79 60 -148 101q-24 -33 -70 -55q112 -34 201 -129zM746 703q120 72 187 121l-74 57
q-69 -69 -172 -131z" />
</svg>
