<?xml version="1.0" standalone="no"?>
<!DOCTYPE svg PUBLIC "-//W3C//DTD SVG 1.1//EN" "http://www.w3.org/Graphics/SVG/1.1/DTD/svg11.dtd" >
<svg xmlns="http://www.w3.org/2000/svg" xmlns:xlink="http://www.w3.org/1999/xlink" version="1.1" viewBox="-10 0 1034 1024">
  <g transform="matrix(1 0 0 -1 0 820)">
   <path fill="currentColor"
d="M89 -30q0 -33 -5 -63h48q0 3 -2 5q-3 25 -4 66v11h186q-3 -60 -5 -73h48q-1 3 -1 6q0 1 -4 54l1 677l4 46q-15 -1 -30 -3q-21 -3 -71 -3l-130 1q-19 4 -40 5q1 -31 5 -65v-664zM126 464v194h186v-194h-186zM126 25v179h186v-179h-186zM126 240v188h186v-188h-186z
M685 230v101l178 -1q24 -1 48 -5l-6 60l1 262q1 24 5 47q-21 -1 -36 -3q-19 -1 -82 -2l-65 4q-3 0 -5 1v-48q3 3 14 4q3 3 44 3h86v-118q-81 0 -113 2q-4 1 -7 1l-13 2v-47q15 4 38 5l95 1v-133h-182v335q0 9 2 28q1 21 12 38h-57q1 -33 5 -66v-335h-176v130q105 0 117 -2
q3 0 8 -2q3 -1 8 -3v49q-6 -1 -12 -4q-12 0 -50 -3h-71v117q13 3 29 5q6 0 14 4q57 12 70 12q12 0 29 -2q-15 21 -30 52q-45 -31 -153 -38q0 -4 5 -65l-1 -247q-3 -12 -4 -44l50 4q9 1 167 2v-101q-222 0 -243 3q-3 0 -9 2v-48q3 3 14 4q3 3 44 3h52q36 -66 63 -99
q27 -34 89 -92q-30 -22 -52 -36q-52 -33 -108 -55q-60 -22 -108 -23q-10 0 -19 1q16 -27 26 -41q3 -6 6 -10q19 4 53 18q36 12 80 30q84 37 154 93q61 -36 114 -63q57 -24 142 -53q15 25 37 51q-13 0 -25 -1q-37 0 -113 29q-57 22 -122 63q82 88 137 185q18 30 25 44
q-60 -4 -90 -5h-109zM816 194q-51 -96 -126 -167q-96 79 -140 167h266z" />
  </g>

</svg>
