<?xml version="1.0" standalone="no"?>
<!DOCTYPE svg PUBLIC "-//W3C//DTD SVG 1.1//EN" "http://www.w3.org/Graphics/SVG/1.1/DTD/svg11.dtd" >
<svg xmlns="http://www.w3.org/2000/svg" xmlns:xlink="http://www.w3.org/1999/xlink" version="1.1" viewBox="-10 0 1010 1000">
   <path fill="currentColor"
d="M605 -10h10q100 4 97 10q0 2 -5 10q-20 32 -19 66v34h76q92 0 125 -10v81q-28 -8 -117 -8h-82v81h82q121 -2 161 -8v80q-43 -6 -159 -8h-105l-141 135l260 -8q-14 -11 -49 -42q-17 -15 -27 -24l68 -35q75 61 157 144l-70 54q-27 -36 -40 -48q-332 12 -389 24l-27 -83h4
q69 -1 166 -119h-65q-91 0 -121 8v-76q48 8 139 8h85v-83h-73q-74 0 -121 8v-81q34 6 121 10h71v-34q-1 -45 -12 -86zM75 78q33 3 80 4h111q48 -1 81 -4q-6 51 -6 79v490q0 66 10 149h-77q0 -12 3 -45q1 -5 1 -7h-121q0 45 4 96h-90q9 -59 10 -153v-522q0 -29 -6 -87z
M149 145v139h125v-139h-125zM149 344v139h125v-139h-125zM149 542v139h125v-139h-125zM403 552q37 8 101 8h298q61 0 93 -8q-8 49 -8 75v179q33 0 71 -4v81q-29 -8 -109 -8h-418q-73 0 -100 4v-75q31 4 80 4v-175q-1 -44 -8 -81zM474 619v189h76v-189h-76zM744 619v189h79
v-189h-79zM685 619h-76v189h76v-189z" />
</svg>
