<?xml version="1.0" standalone="no"?>
<!DOCTYPE svg PUBLIC "-//W3C//DTD SVG 1.1//EN" "http://www.w3.org/Graphics/SVG/1.1/DTD/svg11.dtd" >
<svg xmlns="http://www.w3.org/2000/svg" xmlns:xlink="http://www.w3.org/1999/xlink" version="1.1" viewBox="-10 0 1034 1024">
  <g transform="matrix(1 0 0 -1 0 820)">
   <path fill="currentColor"
d="M958 464q-9 -3 -14 -3q-25 -1 -50 -3h-481q-46 0 -63 6v-47q15 6 63 6h157l-1 -59q0 -21 -4 -55q-99 0 -123 2q-6 3 -36 3l6 -67q0 -367 -3 -383q0 -1 -3 -15h48l-6 54v108q21 -6 41 -17q55 84 83 165q24 -36 43 -88q6 4 13 12q12 12 23 18q-30 49 -65 99q6 36 12 73h121
q-6 -55 -16 -93q-9 -36 -25 -73q-37 -87 -89 -125q28 -9 48 -20q63 90 93 187q28 -46 46 -79q15 -30 27 -66q19 15 38 23q-16 37 -41 76l-33 52q-1 3 -8 15q-9 15 -17 28l13 75h113v-319q0 -27 -6 -40q-7 -7 -29 -13q-24 -3 -42 -4q-18 0 -47 4q9 -18 15 -40q1 -4 3 -9
q105 9 127 31q18 15 18 62l1 320q1 24 5 49q-31 -1 -64 -5h-91l5 114h130q46 0 65 -6v47zM448 273h112q-13 -87 -42 -153q-30 -64 -70 -104v257zM601 309q3 31 4 55l2 59h120q-1 -30 -2 -61l-3 -53h-121zM533 642h-96q-45 0 -62 6v-47q21 4 62 5h96l-3 -103l-3 -16h48
q-3 7 -6 62v57h157v-53q0 -40 -5 -65h48q-4 54 -5 83v35h113q27 0 51 -3l13 -2v47q-19 -6 -62 -6h-115q0 88 3 97q1 15 10 27h-56q4 -49 5 -83v-41h-157q0 90 3 95q3 16 11 29h-56q6 -48 6 -79v-45zM91 700q1 -30 5 -63l-3 -698q-1 -3 -2 -13h48q-4 12 -5 32l-1 57h143
q-3 -49 -5 -61h49l-6 61l1 638q1 24 5 47q-69 -6 -81 -7l-104 1q-10 3 -44 6zM133 50v189h143v-189h-143zM133 275v180h143v-180h-143zM276 659v-169h-143v169h143z" />
  </g>

</svg>
