<?xml version="1.0" standalone="no"?>
<!DOCTYPE svg PUBLIC "-//W3C//DTD SVG 1.1//EN" "http://www.w3.org/Graphics/SVG/1.1/DTD/svg11.dtd" >
<svg xmlns="http://www.w3.org/2000/svg" xmlns:xlink="http://www.w3.org/1999/xlink" version="1.1" viewBox="-10 0 1034 1024">
  <g transform="matrix(1 0 0 -1 0 820)">
   <path fill="currentColor"
d="M88 670q3 -72 4 -99l-1 -616q-1 -10 -2 -26l-2 -15h48q-3 9 -3 15q-3 60 -3 68h144q-1 -54 -5 -65h49q-3 19 -4 33l-1 648q1 33 5 68q-34 -1 -69 -5q-96 0 -122 2l-39 3q0 -4 1 -11zM129 245v170h144v-170h-144zM129 449v191h144v-191h-144zM273 33h-144v177h144v-177z
M627 34v-123l-224 1q-18 0 -40 4v-47q18 6 68 6q495 0 504 -2q6 0 17 -4v47l-41 -4l-246 -1v123l180 -1q15 0 31 -5v47q-45 -4 -76 -5h-135v117l104 -1q21 0 54 -4q-6 66 -6 86q0 87 2 97l4 42q-36 -1 -72 -5l-228 1q-15 3 -47 4q1 -31 5 -64q0 -94 -2 -122q-3 -3 -3 -39
q54 4 78 5h73v-117l-200 3q-3 0 -12 2v-47q15 6 66 6h146zM518 223v144h262v-144h-262zM365 539q6 -63 6 -86q0 -21 -6 -71h49q-1 7 -3 15q-3 79 -4 102h471q0 -45 -3 -91q0 -6 -3 -18h49q-1 7 -3 15l-2 69q0 9 5 65q-60 -4 -69 -5h-191l1 181q0 27 17 49h-62q0 -4 3 -11
l3 -112v-107l-210 1q-15 3 -48 4zM544 595q-12 12 -28 32q-57 63 -92 98q-10 -10 -30 -25q60 -55 119 -134q3 3 8 9q6 9 23 20zM717 593q18 -10 33 -27q7 12 20 24q48 55 61 65q18 21 33 28q7 6 27 8q-22 16 -49 42q-6 -13 -20 -31q-39 -45 -79 -83z" />
  </g>

</svg>
