<?xml version="1.0" standalone="no"?>
<!DOCTYPE svg PUBLIC "-//W3C//DTD SVG 1.1//EN" "http://www.w3.org/Graphics/SVG/1.1/DTD/svg11.dtd" >
<svg xmlns="http://www.w3.org/2000/svg" xmlns:xlink="http://www.w3.org/1999/xlink" version="1.1" viewBox="-10 0 1034 1024">
  <g transform="matrix(1 0 0 -1 0 820)">
   <path fill="currentColor"
d="M411 677v25q0 36 13 66h-58q1 -18 5 -38q0 -25 2 -53h-217q-40 0 -64 5v-46q24 4 47 5h234v-66h-104q-9 0 -36 3q-13 0 -31 2l4 -30q3 -21 3 -77q0 -9 -3 -34q-3 -13 -4 -28q33 3 67 5l519 -1l41 -4q-4 49 -5 74q0 36 3 71q0 13 2 24q-60 -4 -76 -5h-106v66l242 -1
q24 0 32 -3q3 0 5 -1v46q-6 0 -12 -3q-12 0 -50 -2h-217v34q0 36 14 66h-58q6 -54 6 -79v-21h-198zM246 452v87h152v-87h-152zM411 575v66h198v-66h-198zM435 452v87h153v-87h-153zM625 452v87h161v-87h-161zM106 270q-3 -51 -5 -61q-1 0 -1 -1h50q0 1 -2 5q-3 6 -3 29
l-1 73h743q-3 -87 -5 -100h49q0 1 -2 5l-3 92q1 21 5 44q-18 -1 -31 -2q-21 -3 -27 -3l-727 1q-15 3 -46 4q6 -36 6 -86zM246 -103q-3 -39 -4 -56q0 -3 -2 -8h50q-1 3 -1 6q-3 4 -5 54v7h465q0 -3 -2 -8l-1 -46q-1 -3 -2 -9h48q-1 3 -1 5q0 1 -4 54l1 323l4 43
q-31 -1 -63 -5l-442 1q-19 3 -47 4q6 -63 6 -84v-281zM749 156h-465v65h465v-65zM284 -65v79h465v-79h-465zM749 120v-70h-465v70h465z" />
  </g>

</svg>
