<?xml version="1.0" standalone="no"?>
<!DOCTYPE svg PUBLIC "-//W3C//DTD SVG 1.1//EN" "http://www.w3.org/Graphics/SVG/1.1/DTD/svg11.dtd" >
<svg xmlns="http://www.w3.org/2000/svg" xmlns:xlink="http://www.w3.org/1999/xlink" version="1.1" viewBox="-10 0 1034 1024">
  <g transform="matrix(1 0 0 -1 0 820)">
   <path fill="currentColor"
d="M437 575l415 -1q15 0 46 -5q-4 48 -5 94q1 37 5 76l-52 -6l-414 1q-19 4 -38 5q1 -27 5 -55l-2 -306q-1 -24 -2 -58q-3 -79 -13 -143q-24 -129 -89 -215q-21 -27 -55 -52q18 -6 50 -22q58 75 92 147q42 103 51 249q6 132 6 210v81zM855 606h-418v95h418v-95zM447 182
q0 -15 5 -51l-1 -246q-3 -15 -4 -24h49q-3 7 -7 54v230h165v-115q-43 -1 -87 -5q-13 0 -38 2q10 -27 11 -32q0 -6 1 -15q27 6 99 15q139 16 146 17q10 -25 17 -48q24 12 37 16q-15 39 -66 128q-15 -9 -31 -16l29 -54l-82 -6v113h194v-173q0 -33 -6 -42q-6 -13 -37 -19
q-24 -3 -43 -4q-25 0 -50 6q13 -30 18 -50q25 1 76 10q42 6 61 22q18 18 19 67l1 177q0 19 4 43q-30 -1 -61 -5h-176v68l144 -1l43 -4q-6 54 -6 76l6 89q-28 -1 -57 -5h-130v71l154 10q15 0 25 1q13 0 37 -4q-19 22 -23 33q-10 15 -12 19q-51 -13 -94 -18q-81 -9 -164 -9
q-51 0 -101 4q-21 1 -43 6q21 -45 21 -48l164 5v-70h-109q-9 0 -29 3q-13 0 -30 2q6 -63 7 -79q0 -36 -3 -55q0 -6 -4 -31q42 6 66 5h102v-68l-167 1q-15 3 -40 4zM529 368h123v-91h-123v91zM690 277v91h143v-91h-143zM95 681l4 -41l-1 -658q-3 -15 -4 -26h48q-4 15 -5 38
l-1 55h133q0 -24 -4 -41h48q-3 15 -6 50l1 599q1 22 5 46q-31 -1 -63 -5q-96 0 -120 2q-6 3 -36 3q0 -10 1 -22zM136 80v194h133v-194h-133zM136 306v162h133v-162h-133zM269 665v-165h-133v165h133z" />
  </g>

</svg>
