<?xml version="1.0" standalone="no"?>
<!DOCTYPE svg PUBLIC "-//W3C//DTD SVG 1.1//EN" "http://www.w3.org/Graphics/SVG/1.1/DTD/svg11.dtd" >
<svg xmlns="http://www.w3.org/2000/svg" xmlns:xlink="http://www.w3.org/1999/xlink" version="1.1" viewBox="-10 0 1010 1000">
   <path fill="currentColor"
d="M702 4q24 41 44 100l-83 21q-7 -46 -34 -97zM484 6q82 13 97 26q0 1 -5 6q-14 14 -24 32q-20 35 -31 57q-2 5 -3 6h228q120 -1 161 -8v76q-42 -7 -163 -8h-28v85h12q122 -1 161 -8v74q-31 -8 -153 -8h-20v87h16q127 0 163 -8v73q-69 -6 -159 -7h-20v87h22q138 -1 187 -8
v75q-49 -7 -185 -8h-228q0 23 6 38h-85q7 -38 7 -125v-254q-5 10 -15 29q-33 64 -42 80q-17 -24 -54 -45v299q0 94 6 125h-77q4 -25 4 -53h-111q0 64 4 89h-82q7 -30 8 -147v-506l-4 -79l82 4h101l73 -4l-4 73v181q110 -126 155 -326zM149 141v133h115v-133h-115zM510 193
v87h135v-87h-135zM149 334v133h115v-133h-115zM512 336v87h133v-87h-133zM512 479v89h133v-89h-133zM149 526v135h115v-135h-115zM861 671q37 53 83 161l-83 33q-28 -96 -73 -170zM403 677q38 7 83 24q-8 9 -40 93q-21 56 -35 91q-29 -16 -80 -27q50 -76 72 -181zM724 689
q27 62 42 167l-85 7q-3 -100 -28 -162zM518 701h71q12 63 14 159l-79 5q6 -93 -6 -164z" />
</svg>
