<?xml version="1.0" standalone="no"?>
<!DOCTYPE svg PUBLIC "-//W3C//DTD SVG 1.1//EN" "http://www.w3.org/Graphics/SVG/1.1/DTD/svg11.dtd" >
<svg xmlns="http://www.w3.org/2000/svg" xmlns:xlink="http://www.w3.org/1999/xlink" version="1.1" viewBox="-10 0 1034 1024">
  <g transform="matrix(1 0 0 -1 0 820)">
   <path fill="currentColor"
d="M331 -141l12 -12q75 55 112 91q36 34 70 81q61 82 90 284q-19 -1 -30 -2q-22 -3 -28 -3h-75q15 31 29 61q13 27 38 37q-28 6 -61 20q-13 -54 -51 -125q-36 -66 -70 -104q-28 -33 -60 -50l13 -7q6 0 12 -5q12 -6 9 -5q3 -1 11 -10q61 70 110 152h107q-12 -106 -49 -181
l-42 57q-4 4 -7 8q-9 15 -20 25q0 -1 -3 -3l-6 -6q-7 -4 -13 -9l-13 -10q19 -15 62 -64l22 -31q-46 -64 -102 -109q-45 -37 -97 -53q9 -7 17 -15q6 -6 13 -12zM790 485q13 21 24 39q13 18 38 55q25 36 52 47q-21 10 -53 33q-7 -21 -17 -38q-10 -19 -33 -54q-30 -45 -57 -82
l-351 1q-15 3 -40 4q4 -90 5 -92l-5 -69h47q-1 3 -5 60v60h509q0 -84 -3 -100q-1 0 -1 -2q0 -1 -2 -13h49q-6 63 -6 95v8q3 37 6 53q-28 -1 -57 -5h-100zM373 711q12 -24 16 -46l41 -1q6 1 17 1q78 3 183 14q15 0 128 14q1 1 5 1q126 21 135 20q7 0 21 -3q-19 25 -31 54
q-54 -18 -108 -30q-115 -18 -208 -26q-66 -3 -134 -4q-33 0 -65 6zM526 547l-47 48q-15 18 -39 43q-9 -9 -33 -27q67 -51 106 -114q9 12 32 29q-10 10 -19 21zM586 634q51 -60 77 -123l35 23l-36 60l-42 60q-15 -10 -34 -20zM787 302h-88q-46 0 -63 5v-46q21 4 63 5h88v-173
h-106q6 54 10 70q6 36 26 52l-39 6q-1 0 -5 2q-6 3 -12 4q-3 -49 -9 -90q-6 -39 -16 -85q45 4 74 5h77v-154q0 -24 -3 -51l-2 -13h48q-4 52 -5 105v113q85 0 98 -4q3 0 10 -1v46q-58 -4 -93 -5h-15v173q57 0 97 -5v46q-21 -4 -63 -5h-34q0 51 3 61q1 15 10 27h-56
q4 -21 5 -65v-23zM84 686q1 -30 5 -62l-3 -686q-1 -3 -2 -12h48q-3 6 -6 59v34h139q0 -60 -5 -83h49q0 3 -2 7q-3 18 -4 53v626q0 9 3 32q0 15 3 32q-60 -6 -87 -6l-94 1q-3 0 -44 5zM126 55v169h139v-169h-139zM126 260v170h139v-170h-139zM265 645v-179h-139v179h139z" />
  </g>

</svg>
