<?xml version="1.0" standalone="no"?>
<!DOCTYPE svg PUBLIC "-//W3C//DTD SVG 1.1//EN" "http://www.w3.org/Graphics/SVG/1.1/DTD/svg11.dtd" >
<svg xmlns="http://www.w3.org/2000/svg" xmlns:xlink="http://www.w3.org/1999/xlink" version="1.1" viewBox="-10 0 1034 1024">
  <g transform="matrix(1 0 0 -1 0 820)">
   <path fill="currentColor"
d="M85 701q1 -24 2 -34q3 -24 3 -74l-1 -631q-3 -27 -4 -38h48q-4 19 -5 33l-1 44h174q-3 -54 -6 -72h50q-6 18 -6 68l1 660q0 3 5 44q-21 -1 -36 -2q-30 -3 -51 -4q-111 0 -129 2q-15 3 -44 4zM127 462v199h174v-199h-174zM127 251v175h174v-175h-174zM127 36v179h174v-179
h-174zM559 240h-61q4 9 8 14q21 36 30 47q9 9 27 21q-19 6 -33 12q-13 6 -24 12q-6 -25 -19 -48q-28 -57 -63 -103q-39 -51 -82 -71q30 -13 46 -27q15 15 38 43l51 64h103q-4 -31 -23 -80q-21 -51 -34 -68q-31 21 -72 53q-12 -18 -25 -32q18 -9 54 -36q10 -7 22 -18
q-45 -66 -112 -111q-36 -21 -80 -31q27 -15 52 -37q120 72 183 174q30 51 49 99q18 57 34 128q-34 -1 -69 -5zM641 388q0 -39 -5 -65q0 -1 -1 -4h50q-3 19 -4 31q-1 30 -2 130v23q36 -40 116 -95q60 -39 143 -72q18 28 37 46q-58 6 -114 32q-78 36 -157 114l230 -1
q12 -1 24 -4v46q-30 -4 -66 -5h-213v125q0 45 20 70h-64q0 -4 3 -11l3 -117v-67l-235 1q-9 1 -17 2q-3 0 -12 2v-46q54 4 78 5h157q-49 -66 -124 -112q-64 -39 -128 -44q21 -15 40 -46q39 18 86 46q79 45 155 129v-113zM432 695q12 -6 38 -32q10 -9 73 -72q15 18 28 29
q-15 13 -28 27l-82 79q-7 -9 -20 -21q-4 -4 -9 -10zM802 21q0 -112 -2 -149q-1 -10 -4 -23h49q-6 66 -5 84v88q114 0 121 -3q4 0 7 -2v46l-41 -4l-87 -1v152q84 0 91 -3q3 0 8 -3v47q-66 -6 -81 -6h-18q0 51 3 54q3 16 16 32h-63q0 -6 3 -12q0 -36 3 -74l-118 1l-41 5v-47
q18 6 68 6h91v-152h-115q9 51 15 69t23 33l-58 11q-1 -30 -4 -41q-3 -24 -14 -72q-3 -21 -11 -41q60 4 121 5h43zM730 621q13 -12 29 -29l58 56l35 31q25 21 44 22q-18 12 -45 39q-9 -15 -39 -48q-36 -36 -82 -71v0z" />
  </g>

</svg>
