<?xml version="1.0" standalone="no"?>
<!DOCTYPE svg PUBLIC "-//W3C//DTD SVG 1.1//EN" "http://www.w3.org/Graphics/SVG/1.1/DTD/svg11.dtd" >
<svg xmlns="http://www.w3.org/2000/svg" xmlns:xlink="http://www.w3.org/1999/xlink" version="1.1" viewBox="-10 0 1010 1000">
   <path fill="currentColor"
d="M659 -15q17 52 24 95h77q89 -1 143 -12v75q-40 -7 -141 -8h-218q-103 2 -149 8v-73q29 8 135 10h79q-14 -56 -30 -88zM63 52q26 9 118 8h33q84 -1 119 -8q-10 30 -10 113v498q1 99 10 137h-81q4 -30 4 -81h-113q0 61 8 113h-88q10 -73 10 -169v-502q-1 -65 -10 -109z
M256 123h-115v133h115v-133zM728 141q45 13 78 32q-39 32 -62 60h66q112 1 130 -8v75q-35 -7 -127 -8h-335q-102 1 -127 8v-75q28 7 119 8h54q-15 -36 -44 -64l72 -24q29 44 47 88h84q32 -51 45 -92zM256 320h-115v135h115v-135zM752 336q98 1 131 -8q-11 17 -10 115v71
q1 1 3 34q3 73 7 85q-35 -8 -115 -8h-93v62h67q126 -3 153 -6v67q-24 -10 -155 -10h-65v64h105q107 -1 160 -10v83q-42 -8 -150 -10h-272q-132 0 -161 8v-81q37 9 159 10h91v-64h-91q-81 0 -119 8v-67q35 8 127 8h83v-62h-81q-70 1 -119 8q7 -31 8 -101v-95q1 -74 -8 -109
q45 7 137 8h208zM482 387v70h125v-70h-125zM675 387v70h131v-70h-131zM482 504v70h125v-70h-125zM675 504v70h131v-70h-131zM256 518h-115v137h115v-137z" />
</svg>
