<?xml version="1.0" standalone="no"?>
<!DOCTYPE svg PUBLIC "-//W3C//DTD SVG 1.1//EN" "http://www.w3.org/Graphics/SVG/1.1/DTD/svg11.dtd" >
<svg xmlns="http://www.w3.org/2000/svg" xmlns:xlink="http://www.w3.org/1999/xlink" version="1.1" viewBox="-10 0 1034 1024">
  <g transform="matrix(1 0 0 -1 0 820)">
   <path fill="currentColor"
d="M336 698q0 4 1 15q3 31 18 49h-63q0 -1 2 -5l4 -59l-209 1q-9 1 -16 2l-12 2v-40q28 3 58 5h179v-61q-120 0 -150 2q-6 1 -12 1l-12 2v-39q15 6 67 7l286 -1q15 0 30 -6v39q-27 -1 -54 -5h-117v61q165 0 172 -3q4 0 7 -2v40q-25 -1 -52 -5h-127zM505 401q-6 42 -6 73
q3 43 6 64q-18 -1 -33 -2q-33 -3 -36 -4l-254 1q-39 4 -53 5q1 -30 5 -62q0 -13 -5 -75q15 3 51 4l228 1q-25 -46 -50 -75q-48 -9 -89 -12q-3 3 -4 6q-4 9 -9 14q-15 18 -32 39q-6 9 -16 20q-3 -3 -6 -4l-3 -2q-19 -12 -24 -16q42 -36 49 -44q1 -3 15 -17l-74 -10l-30 -1
q-19 0 -46 4q12 -33 16 -51q19 6 48 11l145 21l125 16q37 6 88 13q4 24 16 47q-33 -12 -57 -19q-30 -7 -73 -12q22 37 64 55q-15 9 -26 17q34 -1 70 -5zM171 434v71h290v-71h-290zM248 -90q-1 -19 -2 -40q0 -10 -3 -18h46q0 1 -1 4l-4 54h477q0 -33 -4 -52h46q-3 19 -4 52
l1 303q0 18 4 46q-33 -1 -68 -5l-447 1q-6 1 -14 2q-16 0 -33 2q6 -60 6 -81v-268zM284 154v69h477v-69h-477zM761 49h-477v76h477v-76zM284 -60v79h477v-79h-477zM879 535q9 12 18 22q-39 -1 -77 -5h-85v88q196 0 203 -3q3 0 9 -3v41l-106 -5h-108q0 63 3 67q3 15 16 30
h-63q6 -84 6 -97q-138 3 -157 5v-41q15 6 67 6h90v-88h-115q-12 0 -37 3v-35q12 1 37 3q33 -72 115 -135q-81 -57 -166 -71q21 -13 33 -21q9 -6 18 -15q93 51 144 90q69 -40 207 -87q16 27 36 50q-52 1 -95 12q-78 21 -121 47q39 33 99 103q13 19 29 39zM822 523
q-42 -63 -101 -115q-28 21 -58 51q-22 22 -45 64h204z" />
  </g>

</svg>
