<?xml version="1.0" standalone="no"?>
<!DOCTYPE svg PUBLIC "-//W3C//DTD SVG 1.1//EN" "http://www.w3.org/Graphics/SVG/1.1/DTD/svg11.dtd" >
<svg xmlns="http://www.w3.org/2000/svg" xmlns:xlink="http://www.w3.org/1999/xlink" version="1.1" viewBox="-10 0 1010 1000">
   <path fill="currentColor"
d="M119 12q30 5 138 4h43h19q62 0 89 -1q32 -1 58 -3q-8 41 -8 96v35q0 56 1 79q0 27 3 60l66 -10q6 -30 6 -101v-50q0 -70 -6 -115q28 3 62 5q16 1 36 1h49h51q77 0 143 -6q-8 76 -8 115v46q0 52 6 118v5q-57 -6 -131 -6h-65q-66 0 -125 4q9 29 19 50h127q113 -1 167 -8v57
q-29 -6 -163 -6h-133v42h141q76 0 117 -6v52q-26 -6 -115 -6h-143v41h129q100 0 129 -6v52q-41 -6 -121 -6h-137v44h189q81 0 121 -6v55q-41 -4 -62 -5q-19 -1 -57 -1h-474q0 15 4 28h-76q8 -30 8 -69v-175q-46 59 -125 123q-23 -38 -59 -57q140 -88 210 -195q-76 0 -127 6
q8 -58 8 -133v-30q0 -45 -1 -68q-1 -27 -3 -49zM601 56v40h193v-40h-193zM190 60v40h201v-40h-201zM190 131v40h201v-40h-201zM601 127v40h193v-40h-193zM190 203v39h201v-39h-201zM601 199v41h193v-41h-193zM456 290q-21 -4 -182 -4q50 19 51 28q0 3 -9 8q-13 9 -18 16h200
q-18 -34 -42 -48zM502 381h-222v42h222v-42zM280 463v41h222v-41h-222zM280 544v44h222v-44h-222zM133 669q36 5 137 6h361q114 0 159 -4q-88 71 -207 129q81 13 178 14q99 1 168 -10q-24 24 -36 81q-201 3 -391 -47q-175 46 -403 51q-14 -53 -41 -87q86 11 191 11
q109 1 172 -9q-57 -22 -143 -85q-88 1 -145 8v-58zM363 719q73 40 131 57q32 -8 123 -57h-254z" />
</svg>
