<?xml version="1.0" standalone="no"?>
<!DOCTYPE svg PUBLIC "-//W3C//DTD SVG 1.1//EN" "http://www.w3.org/Graphics/SVG/1.1/DTD/svg11.dtd" >
<svg xmlns="http://www.w3.org/2000/svg" xmlns:xlink="http://www.w3.org/1999/xlink" version="1.1" viewBox="-10 0 1010 1000">
   <path fill="currentColor"
d="M456 -21q82 1 104 9q-8 12 -18 40q-3 6 -4 10h222q76 0 147 -10v66q-4 0 -14 -1q-53 -7 -135 -7h-230l-10 41h172q53 0 96 -8q-8 47 -8 74v206h35q55 0 118 -6v62q-65 -8 -114 -8h-69l-10 38h77q49 0 109 -7q5 -1 7 -1v57q-45 -8 -114 -8h-87l-10 38h84q50 0 79 -4
q-6 29 -6 57v221q35 0 60 -3q8 -1 11 -1v59q-4 0 -17 -2q-41 -6 -82 -6h-230q-52 0 -98 5q-10 1 -13 1v-55q12 2 38 2v-217q0 -44 -6 -63q41 6 71 6h44l10 -38h-30q-70 0 -115 8v-57q43 8 115 8h38l8 -38h-346l-14 41h54q70 0 103 -7v53q-31 -7 -101 -6h-62l-11 36h81
q10 0 43 -4q18 -3 28 -4q-6 33 -6 57v209q24 -3 42 -6v53q-202 12 -419 42l-13 -63h69v-229q0 -19 -6 -61q39 6 69 6h44l12 -36h-71q-79 0 -114 6v-53q60 7 120 7h73l12 -41h-70q-55 0 -127 8v-62q25 4 53 5q14 1 31 1h43h32v-206q-1 -41 -10 -78q58 12 88 12h136l6 -41
h-218q-64 0 -118 6q-13 2 -17 2v-64q43 5 70 7q23 1 63 1h226q3 -20 0 -59zM196 844q9 -1 29 -2q106 -7 158 -12v-30h-187v44zM298 163v36h412v-36h-412zM298 231v35h412v-35h-412zM298 298v34h412v-34h-412zM298 363v36h412v-36h-412zM613 598v35h197v-35h-197zM383 600
h-187v33h187v-33zM196 665v34h187v-34h-187zM613 665v34h197v-34h-197zM196 731v37h187v-37h-187zM613 731v35h197v-35h-197zM613 798v40h197v-40h-197z" />
</svg>
