<?xml version="1.0" standalone="no"?>
<!DOCTYPE svg PUBLIC "-//W3C//DTD SVG 1.1//EN" "http://www.w3.org/Graphics/SVG/1.1/DTD/svg11.dtd" >
<svg xmlns="http://www.w3.org/2000/svg" xmlns:xlink="http://www.w3.org/1999/xlink" version="1.1" viewBox="-10 0 1010 1000">
   <path fill="currentColor"
d="M671 -4q99 19 107 32q0 6 -10 13t-10 13q36 214 218 309q-47 29 -77 66q-149 -130 -193 -298q-47 128 -162 278q-25 -29 -44 -40q-3 12 -11 46q-16 73 -29 123l-83 -16q11 -15 46 -111h-78v385q2 47 -29 63q-30 19 -129 30q-3 -55 -40 -103q129 36 123 -40v-242
q-73 150 -173 256q-29 -49 -59 -81q127 -92 220 -268h-93q-66 -1 -92 4v-81q34 6 82 6h137q-39 -51 -131 -121l73 -40l58 54l107 -100h-181q-48 0 -68 1q-24 1 -41 3v-81q24 6 101 6h209l99 -4v93q-29 -9 -185 121q12 12 38 36l-40 32h84q36 0 75 -4q137 -132 181 -340z
M724 338q18 41 32 131l-87 10q-6 -86 -24 -135zM512 520q51 4 91 4h163q67 -1 115 -4q-134 293 -173 387l-91 -32q75 -120 145 -279h-159q-42 0 -58 1q-20 1 -33 3v-80z" />
</svg>
