<?xml version="1.0" standalone="no"?>
<!DOCTYPE svg PUBLIC "-//W3C//DTD SVG 1.1//EN" "http://www.w3.org/Graphics/SVG/1.1/DTD/svg11.dtd" >
<svg xmlns="http://www.w3.org/2000/svg" xmlns:xlink="http://www.w3.org/1999/xlink" version="1.1" viewBox="-10 0 1034 1024">
  <g transform="matrix(1 0 0 -1 0 820)">
   <path fill="currentColor"
d="M134 167q-42 0 -63 5v-46l36 4l350 1q-39 -90 -127 -154q-117 -81 -256 -105q27 -21 43 -42q129 42 213 99q69 48 102 84q33 37 68 111q49 -63 95 -109q39 -37 91 -72q42 -27 78 -44l136 -64q15 30 38 49q-33 3 -107 32q-108 43 -171 97q-72 60 -113 118l375 -1
q13 -1 29 -4v46q-58 -4 -88 -5h-353l14 78q6 34 12 82l255 -1q13 0 32 -5v46q-31 -1 -63 -5h-463q13 24 29 43q15 18 39 26q-40 15 -63 32q-28 -67 -83 -139q-46 -54 -89 -80q21 -7 34 -17q9 -4 19 -11q19 21 36 43q19 24 52 68h223q-10 -97 -27 -160h-333zM796 507
q21 -21 34 -37l29 -37q22 21 39 33l-58 59l-94 86q-27 27 -83 77q-9 -13 -34 -36q46 -31 129 -108l-483 -13q49 46 141 122q24 24 59 52q18 18 45 24q3 3 10 3q-39 33 -54 48q-64 -84 -161 -168q-87 -75 -144 -78q12 -21 20 -52l110 8l177 8z" />
  </g>

</svg>
