<?xml version="1.0" standalone="no"?>
<!DOCTYPE svg PUBLIC "-//W3C//DTD SVG 1.1//EN" "http://www.w3.org/Graphics/SVG/1.1/DTD/svg11.dtd" >
<svg xmlns="http://www.w3.org/2000/svg" xmlns:xlink="http://www.w3.org/1999/xlink" version="1.1" viewBox="-10 0 1010 1000">
   <path fill="currentColor"
d="M200 20q101 17 112 28q0 3 -5 5q-19 8 -35 41q-36 71 -42 87h109q63 0 117 -4v79q-35 -8 -129 -8q0 91 -6 183h46q53 0 101 -8v83q-36 -9 -105 -8h-46q-1 9 -4 31q-2 20 -3 31q85 89 158 173l18 21q-30 11 -79 50q-17 -36 -87 -140q-20 -29 -28 -41q-42 139 -167 256
q-46 -32 -91 -53q187 -81 210 -326h-52q-83 0 -119 6v-81q49 8 119 8h58q6 -71 6 -185h-52q-38 80 -61 123q-45 -18 -87 -23q115 -135 144 -328zM494 86q37 6 139 6h157q72 0 125 -8v85q-42 -6 -117 -6h-223v147h145q121 0 145 -6q-6 42 -6 103v95q0 79 8 115
q-34 -5 -127 -5h-165v168h242q63 0 121 -8v88q-31 -8 -121 -8h-188q-90 0 -139 8q10 -48 10 -153v-451q0 -124 -6 -170zM575 377v167h209v-167h-209z" />
</svg>
