<?xml version="1.0" standalone="no"?>
<!DOCTYPE svg PUBLIC "-//W3C//DTD SVG 1.1//EN" "http://www.w3.org/Graphics/SVG/1.1/DTD/svg11.dtd" >
<svg xmlns="http://www.w3.org/2000/svg" xmlns:xlink="http://www.w3.org/1999/xlink" version="1.1" viewBox="-10 0 1034 1024">
  <g transform="matrix(1 0 0 -1 0 820)">
   <path fill="currentColor"
d="M67 -93q21 -9 27 -12l10 -7q19 19 44 52q24 30 41 55q33 54 69 153q124 -106 162 -158q1 0 3 3q1 3 6 6q12 12 27 24q-3 3 -42 37q6 -6 -22 19l-124 109q12 100 13 122q118 0 126 -3q3 0 9 -3v47q-33 -4 -63 -5h-70l2 215h61q25 0 52 -2q6 -1 14 -4v47q-27 -1 -54 -5
h-175q13 37 35 89q12 33 41 54q-34 6 -65 21q-6 -66 -57 -172q-28 -58 -43 -80q-15 -21 -43 -40q15 -3 26 -7q9 -1 15 -4q1 0 19 -9q7 15 17 32l24 49q7 15 17 31h78l-4 -215l-175 3q-3 1 -6 1q-3 1 -6 1v-47q24 6 47 6h139q-9 -202 -112 -326q-39 -45 -87 -68zM633 -64
l-250 3q-3 1 -5 1q-3 1 -6 1v-46q33 3 66 5q505 0 512 -3q3 0 9 -2v46q-27 -1 -54 -5h-234v194q198 0 208 -3q1 0 6 -2v46q-30 -4 -65 -5h-149v533q0 13 3 33q1 21 14 39h-60q1 -36 5 -72v-398l-114 159q0 15 16 85q3 28 10 41q3 12 11 20q3 3 8 10q-24 4 -37 8q-9 3 -20 8
q0 -85 -42 -224q-39 -115 -82 -168l43 -6q6 -1 10 -3q0 6 8 21q15 31 27 63l36 101q42 -51 98 -153q15 9 28 20v-117l-191 3q-3 1 -6 1q-3 1 -6 1v-46q54 4 113 5h90v-194zM941 260q6 4 13 8q-18 30 -47 72l-83 120q12 48 18 80q10 51 15 59q4 10 21 23q-18 3 -31 5
q-13 3 -33 10q-1 -63 -25 -150q-25 -91 -56 -154q-16 -36 -30 -57q-12 -16 -29 -28q21 -3 21 -4q9 -1 24 -6q6 -3 13 -4q48 102 74 179q72 -91 110 -171q4 4 8 7q7 6 17 11v0z" />
  </g>

</svg>
