<?xml version="1.0" standalone="no"?>
<!DOCTYPE svg PUBLIC "-//W3C//DTD SVG 1.1//EN" "http://www.w3.org/Graphics/SVG/1.1/DTD/svg11.dtd" >
<svg xmlns="http://www.w3.org/2000/svg" xmlns:xlink="http://www.w3.org/1999/xlink" version="1.1" viewBox="-10 0 1010 1000">
   <path fill="currentColor"
d="M595 447q43 7 90 28q-17 13 -26 25q-2 3 -7 8q-9 11 -15 20h188q50 0 102 -8v78q-31 -7 -106 -8q-29 75 -67 129q37 15 119 52q41 18 56 25l-60 73q-50 -41 -165 -97q-105 73 -295 111q-24 -49 -60 -79q159 -6 294 -66q-83 -33 -179 -55q20 -19 70 -93h-30q-56 1 -117 8
v-80q43 7 117 8h59q3 -7 10 -20q19 -38 22 -59zM169 12q54 11 111 32q-27 8 -42 50l-38 91h98q65 -1 105 -8v75q-25 -7 -107 -8q0 77 -4 177q68 -1 99 -6v79q-37 -6 -103 -7q-5 43 -14 77q82 73 161 159l-80 49q-42 -85 -99 -143q-38 117 -137 248q-31 -38 -75 -53
q132 -107 176 -337h-45q-78 0 -110 7v-79q30 7 110 8h49q5 -94 0 -175h-43l-54 110q-34 -29 -73 -36q102 -146 115 -310zM827 22q25 32 52 86q-2 2 -13 0q-28 -5 -58 -4q-29 1 -83 7q-23 3 -33 4v88h118q88 0 111 -6v71q-34 -7 -108 -8h-55q61 116 192 143q-41 23 -71 70
q-130 -63 -171 -213h-16v74q1 72 8 113h-79q7 -38 8 -113v-72q-65 120 -179 207q-18 -39 -51 -64q119 -57 166 -143h-19q-81 1 -121 8v-73q26 6 121 6h83v-82q2 0 -22 2q-94 9 -147 16q-3 -41 -31 -73q230 1 398 -44zM607 590l-40 61q49 16 127 44q38 -54 52 -105h-139z" />
</svg>
