<?xml version="1.0" standalone="no"?>
<!DOCTYPE svg PUBLIC "-//W3C//DTD SVG 1.1//EN" "http://www.w3.org/Graphics/SVG/1.1/DTD/svg11.dtd" >
<svg xmlns="http://www.w3.org/2000/svg" xmlns:xlink="http://www.w3.org/1999/xlink" version="1.1" viewBox="-10 0 1034 1024">
  <g transform="matrix(1 0 0 -1 0 820)">
   <path fill="currentColor"
d="M268 310q-7 -72 -20 -118q-33 -112 -117 -204q-45 -45 -97 -67q24 -12 54 -34q55 45 120 132q45 66 75 146q31 -30 68 -70q39 -43 65 -82q16 18 33 38l-56 61l-99 100q13 84 15 98q121 0 133 -2q9 0 19 -3v46q-48 -4 -82 -5h-67q0 3 4 100l4 114q114 -3 120 -5v47
q-9 -3 -14 -3q-25 -1 -39 -3h-177q1 3 3 8q3 3 3 8q1 3 3 8q12 27 22 55q15 43 49 66q-24 6 -39 12q-12 3 -27 11q-9 -54 -42 -134q-33 -78 -62 -122q-33 -49 -68 -77q34 -6 63 -17q10 16 16 27q0 3 39 72q9 19 24 47h83l-1 -111q0 -60 -4 -103l-160 1q-10 1 -33 4v-46
q51 4 81 5h108zM461 -72q-34 0 -65 5v-46q30 4 65 5q480 0 490 -2q9 0 19 -3v46q-43 -4 -74 -5h-143l105 206q9 13 15 17q7 7 24 16q-36 13 -64 31q-3 -7 -20 -56q-9 -24 -33 -77q-24 -54 -42 -86q-13 -27 -29 -51h-248zM465 653q6 0 12 2l52 4l396 -1q21 0 30 -4q3 0 7 -1
v47q-48 -6 -65 -6l-412 3q-1 0 -20 3v-47zM840 238l44 -4q9 0 21 -1q-1 7 -2 32q-3 30 -4 48q0 162 2 170q0 10 3 29q-1 3 0 5q0 7 1 13q-18 -1 -34 -3q-24 -3 -67 -3l-258 1q-15 3 -27 3q-9 0 -23 2q1 -34 5 -70q0 -162 -2 -188q-3 -3 -3 -39q60 4 90 5h254zM539 274v214
h323v-214h-323zM515 167q18 -21 54 -83q36 -76 40 -91q16 9 42 25q-27 52 -51 95l-45 77q-22 -15 -40 -23v0z" />
  </g>

</svg>
