<?xml version="1.0" standalone="no"?>
<!DOCTYPE svg PUBLIC "-//W3C//DTD SVG 1.1//EN" "http://www.w3.org/Graphics/SVG/1.1/DTD/svg11.dtd" >
<svg xmlns="http://www.w3.org/2000/svg" xmlns:xlink="http://www.w3.org/1999/xlink" version="1.1" viewBox="-10 0 1010 1000">
   <path fill="currentColor"
d="M486 42q22 4 62 7q36 2 59 1h95q45 0 145 -6q-1 18 -4 54q-3 31 -4 45q-16 300 -20 599q1 20 22 23q25 1 34 -17q15 -41 18 -101q26 29 83 60q-31 126 -67 139q-34 10 -103 4q-66 3 -60 -113q3 -126 13 -399q5 -147 7 -215h-199q-4 407 -27 522q-27 116 -145 244
q-46 -42 -91 -55q101 -63 144 -167q46 -114 44 -536q0 -24 -6 -89zM81 54q23 4 65 7q37 2 56 1h113q75 0 118 -8v83q-34 -7 -121 -8h-34q-31 125 -62 189h107q49 -1 88 -8q-8 26 -8 73v201q1 91 8 131h-82q6 -27 6 -68h-119q0 77 4 129h-83q6 -43 8 -121v-232q-11 19 -18 30
q-12 26 -44 59q-6 7 -16 18q-4 -35 -26 -72q-8 -14 -13 -23q137 -105 172 -306h-10q-50 -1 -109 8v-83zM677 246q1 7 3 22q21 171 24 282l-75 8q3 -140 -24 -304zM216 377v211h117v-211h-117z" />
</svg>
