<?xml version="1.0" standalone="no"?>
<!DOCTYPE svg PUBLIC "-//W3C//DTD SVG 1.1//EN" "http://www.w3.org/Graphics/SVG/1.1/DTD/svg11.dtd" >
<svg xmlns="http://www.w3.org/2000/svg" xmlns:xlink="http://www.w3.org/1999/xlink" version="1.1" viewBox="-10 0 1010 1000">
   <path fill="currentColor"
d="M625 -6q98 22 117 40q0 3 -8 11q-18 16 -24 33q-19 48 -41 111h156q80 -3 121 -14q-51 322 -103 419q-111 195 -353 307q-29 -55 -89 -77q206 -45 325 -207q-57 -76 -174 -150l67 -70q90 75 153 155q56 -143 75 -296h-204q-61 138 -135 234q-22 -35 -70 -57v234
q0 43 10 109h-89q4 -21 4 -67h-113v12q-1 86 4 111h-89q9 -36 10 -139v-222q-18 23 -60 83q-29 40 -40 56q-14 -51 -47 -86q141 -133 196 -355h-20q-98 0 -137 8v-91q37 7 133 8h145q104 -1 153 -8v91q-44 -7 -153 -8h-45q-13 73 -62 187h131q51 -2 81 -8q-10 24 -12 75
q144 -132 187 -429zM363 423h-113v218h113v-218z" />
</svg>
