<?xml version="1.0" standalone="no"?>
<!DOCTYPE svg PUBLIC "-//W3C//DTD SVG 1.1//EN" "http://www.w3.org/Graphics/SVG/1.1/DTD/svg11.dtd" >
<svg xmlns="http://www.w3.org/2000/svg" xmlns:xlink="http://www.w3.org/1999/xlink" version="1.1" viewBox="-10 0 1010 1000">
   <path fill="currentColor"
d="M486 36q83 8 153 8h99q110 0 177 -10v91q-48 -9 -137 -8h-46v264h74q87 0 146 -10v92q-14 -7 -140 -8h-80v274q0 116 8 166h-103q10 -56 10 -160v-278h-42q-81 0 -141 6v-88q64 8 137 8h46v-266q-113 -4 -161 8v-89zM65 42q52 8 157 8h76q101 -1 156 -10v89
q-33 -8 -117 -8h-33q-26 91 -72 191h76q80 0 125 -6q0 5 -2 14q-6 46 -6 157v99q0 122 8 190h-92q8 -33 8 -81h-133q0 78 8 111h-95q14 -64 14 -165v-192q-29 50 -68 89q-15 -44 -45 -81q141 -100 190 -326h-18q-98 -1 -137 8v-87zM349 375h-133v246h133v-246z" />
</svg>
