<?xml version="1.0" standalone="no"?>
<!DOCTYPE svg PUBLIC "-//W3C//DTD SVG 1.1//EN" "http://www.w3.org/Graphics/SVG/1.1/DTD/svg11.dtd" >
<svg xmlns="http://www.w3.org/2000/svg" xmlns:xlink="http://www.w3.org/1999/xlink" version="1.1" viewBox="-10 0 1034 1024">
  <g transform="matrix(1 0 0 -1 0 820)">
   <path fill="currentColor"
d="M470 69q27 4 63 5q276 0 286 -3q6 0 11 -2v47q-15 -3 -32 -4q-18 0 -35 -2h-230q-18 0 -45 3q-1 0 -18 3v-47zM871 710q-69 -4 -80 -5q-291 3 -311 5v-46q36 4 63 5h280l-38 -375h-203q4 33 8 65q3 42 20 158q6 39 28 66q-39 6 -67 10v-50q-18 -174 -24 -216l-14 -74
q60 4 113 5h263q-19 -273 -23 -284v-2q-7 -45 -36 -57q-22 -7 -50 -8q-13 0 -73 5q9 -24 13 -43q0 -4 2 -8q75 1 105 9q30 6 52 27q10 12 16 22q6 12 10 35q3 27 7 72q4 54 9 132l7 80l7 62q-16 -3 -32 -3q-24 -3 -35 -3h-64l39 359q0 12 6 49q0 4 2 8zM66 208q10 -4 23 -10
q45 54 94 125v-340q0 -21 -5 -67h48q-3 15 -4 39l-1 64h150q-3 -40 -5 -82q-1 0 -1 -2h50q-7 46 -7 66l1 332l6 59q-21 -1 -35 -2q-24 -3 -33 -3h-126q45 93 84 239q117 0 126 -3q6 0 11 -2v47q-13 -3 -31 -4q-16 0 -35 -2h-223q-19 0 -44 3q-1 0 -18 3v-47q42 6 69 5h103
q-30 -127 -86 -234q-67 -124 -145 -171q4 0 34 -13zM221 55v296h150v-296h-150z" />
  </g>

</svg>
