<?xml version="1.0" standalone="no"?>
<!DOCTYPE svg PUBLIC "-//W3C//DTD SVG 1.1//EN" "http://www.w3.org/Graphics/SVG/1.1/DTD/svg11.dtd" >
<svg xmlns="http://www.w3.org/2000/svg" xmlns:xlink="http://www.w3.org/1999/xlink" version="1.1" viewBox="-10 0 1034 1024">
  <g transform="matrix(1 0 0 -1 0 820)">
   <path fill="currentColor"
d="M489 -94q4 -7 10 -15q3 -3 13 -23q51 54 154 113q-1 19 -3 38q0 9 -1 14q-24 -21 -51 -40q-30 -21 -82 -56v486q129 0 140 -3q6 0 11 -2v47q-13 -3 -32 -4q-15 0 -35 -2h-84v216q0 27 13 70h-57q0 -7 3 -14q0 -10 4 -56l-1 -732q-3 -12 -11 -21q4 -7 9 -16zM747 693
q0 33 12 70h-56q0 -6 3 -13l3 -156v-643q0 -46 33 -62q27 -12 82 -13q108 0 136 63q7 21 17 66q-27 13 -46 27q-1 -36 -4 -54q-4 -30 -21 -44q-24 -16 -89 -17q-54 0 -65 18q-4 9 -5 37v424q60 30 119 64q48 25 63 31q12 4 42 5q-24 27 -43 56q-31 -33 -181 -114v255z
M66 258q12 -4 27 -10q15 19 31 41q18 25 45 72l-1 -399q-1 -13 -2 -29q0 -3 -2 -11h47q-4 39 -5 63v51h150q0 -30 -5 -91h49q-4 30 -5 67l1 327l4 49q-60 -4 -97 -5h-121q60 115 93 212q144 0 153 -3q4 0 11 -2v47q-12 -3 -31 -4q-18 0 -35 -2h-234q-19 0 -44 3q-3 0 -20 3
v-47q42 6 70 5h88q-33 -108 -89 -202q-54 -88 -107 -124l21 -7q3 -1 8 -4zM206 72v275h150v-275h-150z" />
  </g>

</svg>
