<?xml version="1.0" standalone="no"?>
<!DOCTYPE svg PUBLIC "-//W3C//DTD SVG 1.1//EN" "http://www.w3.org/Graphics/SVG/1.1/DTD/svg11.dtd" >
<svg xmlns="http://www.w3.org/2000/svg" xmlns:xlink="http://www.w3.org/1999/xlink" version="1.1" viewBox="-10 0 1034 1024">
  <g transform="matrix(1 0 0 -1 0 820)">
   <path fill="currentColor"
d="M488 499h-49q-22 0 -44 3q-3 0 -19 3v-47q27 4 63 5h49v-354q0 -19 -13 -39q7 -9 17 -19q9 -12 20 -30q6 9 57 60l104 99l-12 49q-45 -57 -135 -136v370q114 0 123 -3q6 0 12 -2v47q-15 -3 -32 -4q-16 0 -36 -2h-67v204q0 15 3 31q1 15 10 38h-57q3 -54 6 -69v-204z
M906 636l-16 -521l-5 -105q-1 -27 -5 -40q-9 -33 -66 -34q-22 0 -60 4l23 -54q115 9 134 52q6 22 10 47l7 135l13 395q3 79 12 163l-71 -6l-214 1q-9 1 -17 2q-1 0 -18 3v-47q27 4 62 5h43l-2 -241q-1 -78 -7 -141q-10 -153 -96 -270q-54 -69 -120 -96q36 -21 50 -34
q90 73 145 177q37 75 51 154q12 79 15 236l2 215h130zM55 268q15 -3 35 -14q39 45 78 101v-338l-2 -48q0 -6 -4 -18h48q-4 19 -5 50v60h140q0 -22 -5 -83h49q-4 33 -5 67l1 324l4 48q-66 -4 -101 -5h-88q45 93 73 206l109 -1q22 0 39 -5v48l-67 -7l-253 3q-6 1 -7 1l-19 3
v-48q60 6 94 6h63q-12 -54 -26 -93q-13 -39 -35 -83q-57 -118 -137 -166q10 -3 21 -8zM205 97v279h140v-279h-140z" />
  </g>

</svg>
