<?xml version="1.0" standalone="no"?>
<!DOCTYPE svg PUBLIC "-//W3C//DTD SVG 1.1//EN" "http://www.w3.org/Graphics/SVG/1.1/DTD/svg11.dtd" >
<svg xmlns="http://www.w3.org/2000/svg" xmlns:xlink="http://www.w3.org/1999/xlink" version="1.1" viewBox="-10 0 1034 1024">
  <g transform="matrix(1 0 0 -1 0 820)">
   <path fill="currentColor"
d="M315 -119q25 -21 43 -42q123 57 200 140q72 79 110 220q45 -106 116 -190q55 -66 159 -149l24 18q7 7 27 18q-87 31 -173 128q-103 114 -136 249q6 67 13 98q4 24 21 43q-36 1 -67 7q3 -36 4 -42l-14 -115q-22 -136 -82 -222q-64 -88 -166 -138q-34 -15 -79 -23zM898 526
q-10 -28 -42 -102q-7 -18 -25 -47l50 -7q10 36 43 115q3 13 35 82q-18 -1 -25 -2q-63 -3 -86 -4h-255q12 40 27 73q24 75 28 81q6 16 32 30q-34 9 -69 21q-1 -7 -4 -24q-6 -30 -16 -67q-52 -168 -98 -250q-33 -54 -66 -80q37 -6 61 -14q25 43 42 75q39 87 53 120h315z
M66 259q10 -4 23 -9q15 18 31 38l55 72l-1 -372q-3 -27 -4 -42h47q-6 51 -5 85v8h158q0 -27 -4 -55q0 -15 -2 -27h49q-6 66 -6 87l1 305q1 24 5 49q-33 -1 -67 -5h-150q30 54 54 101q22 48 47 108q150 0 160 -3q6 0 11 -2v47l-68 -6l-278 1q-15 3 -32 5v-47q39 4 48 5h116
q-33 -100 -102 -208q-63 -90 -119 -121q12 -3 33 -14zM212 75v282h158v-282h-158z" />
  </g>

</svg>
