<?xml version="1.0" standalone="no"?>
<!DOCTYPE svg PUBLIC "-//W3C//DTD SVG 1.1//EN" "http://www.w3.org/Graphics/SVG/1.1/DTD/svg11.dtd" >
<svg xmlns="http://www.w3.org/2000/svg" xmlns:xlink="http://www.w3.org/1999/xlink" version="1.1" viewBox="-10 0 1010 1000">
   <path fill="currentColor"
d="M554 -4q105 12 111 26q1 4 -8 12q-20 18 -28 42q-24 64 -38 107h226q56 0 118 -6q-30 81 -72 224l-97 -16q35 -55 57 -139h-250q-48 113 -77 155q-37 -26 -77 -38q100 -88 135 -367zM605 306q60 3 107 12q-19 35 -6 125q35 260 258 339q-50 57 -67 97
q-209 -133 -234 -385q-33 270 -248 407q-29 -49 -86 -69q287 -107 276 -526zM337 401h-113v230h113v-230zM409 623q1 104 8 143h-84q4 -25 4 -75h-111q0 98 4 121h-89q10 -58 12 -159v-202q-39 64 -70 103q-5 -29 -27 -64q-10 -15 -16 -25q116 -93 164 -302h-21
q-90 1 -121 8v-83q55 7 136 8h112q59 0 142 -8v83q-59 -7 -131 -8h-45q-25 95 -60 179h129q31 0 58 -3q9 -1 12 -1q0 2 -1 10q-5 31 -5 63v212z" />
</svg>
