<?xml version="1.0" standalone="no"?>
<!DOCTYPE svg PUBLIC "-//W3C//DTD SVG 1.1//EN" "http://www.w3.org/Graphics/SVG/1.1/DTD/svg11.dtd" >
<svg xmlns="http://www.w3.org/2000/svg" xmlns:xlink="http://www.w3.org/1999/xlink" version="1.1" viewBox="-10 0 1010 1000">
   <path fill="currentColor"
d="M458 38q98 8 173 8h145q69 1 141 -6q18 -2 23 -2q-6 31 0 87q-43 -12 -115 -8v256q69 0 131 -8v82q-41 -9 -131 -6v377q6 51 -172 75q-9 -64 -42 -105q128 20 133 -34v-313h-34q-84 244 -277 411q-60 -40 -102 -50q203 -93 306 -363q-128 4 -163 24q-14 -45 -30 -80
q61 -17 78 -204q6 1 19 2q74 9 76 14q0 4 -8 13q-15 16 -18 30q-23 81 -49 135h202v-256h-113q-104 0 -173 6v-85zM60 70q59 8 144 8h78q88 0 151 -6v85q-57 -9 -151 -8q-19 73 -54 155h78q69 0 107 -8q-8 35 -8 149v147q0 101 8 160h-96q6 -18 6 -57h-107q0 70 8 91h-91
q10 -54 10 -173v-158q-42 63 -87 109q-8 -54 -32 -93q132 -110 174 -324q-82 -3 -138 6v-83zM216 371v256h109v-256h-109z" />
</svg>
