<?xml version="1.0" standalone="no"?>
<!DOCTYPE svg PUBLIC "-//W3C//DTD SVG 1.1//EN" "http://www.w3.org/Graphics/SVG/1.1/DTD/svg11.dtd" >
<svg xmlns="http://www.w3.org/2000/svg" xmlns:xlink="http://www.w3.org/1999/xlink" version="1.1" viewBox="-10 0 1034 1024">
  <g transform="matrix(1 0 0 -1 0 820)">
   <path fill="currentColor"
d="M150 7q-1 -27 -2 -56q0 -6 -3 -14h48q-3 15 -6 59v40h122q-1 -34 -3 -70q0 -6 -1 -12h48q0 7 -2 16q-3 18 -3 76l1 305l4 45q-55 -4 -79 -5h-85q21 60 36 109q12 45 22 91q54 0 114 -3q3 0 13 -2v46q-39 -1 -77 -5l-234 5v-46q6 0 13 3l111 2h21q-19 -105 -70 -214
q-57 -117 -108 -158q27 -3 58 -11q9 19 29 53q19 30 33 54v-308zM187 72v283h122v-283h-122zM469 664h337l-4 -293q0 -261 30 -372q15 -61 45 -103q27 -40 53 -41q34 0 44 57q6 36 12 96q-18 3 -45 15q1 -15 5 -31q-4 -54 -5 -58q-4 -25 -16 -26q-24 0 -52 91
q-19 58 -23 125l-6 108l-3 102l3 288l6 83q-33 -1 -66 -5l-308 1q-3 0 -50 4q1 -33 5 -67v-341q0 -120 -15 -199q-18 -93 -80 -172q-24 -30 -61 -59q9 -3 50 -24q27 30 46 56q52 82 75 161q22 81 23 238v366zM765 -8q9 4 14 8q6 1 14 6q-93 187 -114 233q25 78 29 86
q40 147 45 155q4 15 10 20q6 9 21 16q-36 10 -65 24q-12 -117 -63 -255l-118 209q-16 -9 -33 -20q-4 -1 -8 -3q22 -25 58 -83q63 -108 80 -149q0 -4 -3 -10q-31 -72 -80 -143q-57 -79 -103 -104q21 -4 54 -25q105 135 156 239l65 -138q16 -39 28 -75q6 4 13 9v0z" />
  </g>

</svg>
