<?xml version="1.0" standalone="no"?>
<!DOCTYPE svg PUBLIC "-//W3C//DTD SVG 1.1//EN" "http://www.w3.org/Graphics/SVG/1.1/DTD/svg11.dtd" >
<svg xmlns="http://www.w3.org/2000/svg" xmlns:xlink="http://www.w3.org/1999/xlink" version="1.1" viewBox="-10 0 1034 1024">
  <g transform="matrix(1 0 0 -1 0 820)">
   <path fill="currentColor"
d="M162 -3q0 -22 -5 -69h48q-6 25 -6 51v53h133v-30q0 -46 -6 -70h49l-4 42l-1 359l4 46q0 7 1 18q-21 -1 -35 -2q-27 -3 -34 -3h-101q22 57 42 129q4 21 11 41q3 13 8 30q132 0 139 -3q3 0 10 -2v46q-4 0 -8 -1l-58 -4l-277 5v-46l64 5h90q-42 -184 -124 -300
q-37 -49 -66 -69q30 -7 57 -20q36 54 69 108v-314zM199 68v288h133v-288h-133zM682 579v107q0 31 7 48q0 4 15 22h-65q4 -109 5 -112v-65l-198 3q-6 0 -12 2v-47q1 0 3 2q4 0 10 2q30 0 54 2h143v-362l-148 -10v208q0 19 4 34q3 13 18 34h-65q3 -9 6 -68l-1 -204l-5 -49
q36 6 69 9l122 9v-189q0 -52 38 -69q30 -12 99 -12q51 0 89 7q33 6 58 31q19 21 46 89q-21 6 -46 21q-6 -39 -15 -59q-22 -51 -101 -51q-28 1 -57 2q-30 0 -43 5q-30 6 -30 46v183l175 14q-1 -48 -5 -66h48q-3 12 -4 48l-1 238q0 15 3 31q6 21 21 36h-67q0 -1 1 -5
q0 -3 2 -6l2 -148v-93l-175 -14v360l277 -3q3 0 11 -3v47q-30 -4 -66 -5h-222z" />
  </g>

</svg>
