<?xml version="1.0" standalone="no"?>
<!DOCTYPE svg PUBLIC "-//W3C//DTD SVG 1.1//EN" "http://www.w3.org/Graphics/SVG/1.1/DTD/svg11.dtd" >
<svg xmlns="http://www.w3.org/2000/svg" xmlns:xlink="http://www.w3.org/1999/xlink" version="1.1" viewBox="-10 0 1010 1000">
   <path fill="currentColor"
d="M621 18q9 0 24 1q87 1 77 7q-1 4 -5 9q-11 13 -11 55v85h70q91 0 133 -6v79q-42 -6 -129 -6h-74v163h72q73 0 166 -8v88q-56 -9 -166 -8h-199q-122 0 -164 10v-90q64 8 162 8h50v-161h-36q-99 0 -141 6v-81q2 0 13 1q58 7 130 7h34v-60q0 -77 -6 -99zM50 125q56 8 148 8
h64q68 0 155 -8v90q-39 -8 -141 -8q-25 84 -62 162h70q69 0 111 -6q-2 19 -3 49q-1 14 -1 34v52v157q0 130 8 175h-91q7 -37 7 -82h-103q-3 70 8 100h-91q1 -9 3 -23q7 -40 7 -140v-177q-25 37 -79 98q-12 -65 -32 -98q124 -111 164 -301q-104 0 -142 10v-92zM214 433v252
h101v-252h-101zM609 485q3 1 9 4q92 42 86 49q0 2 -4 4q-21 10 -49 52q-83 121 -133 174q175 -19 280 -22q-49 -94 -82 -136l74 -30q130 214 148 260q-22 5 -78 33q-5 3 -7 4q-15 -41 -30 -71q-333 24 -385 42q-4 -45 -27 -84q44 -10 97 -83q66 -99 101 -196z" />
</svg>
