<?xml version="1.0" standalone="no"?>
<!DOCTYPE svg PUBLIC "-//W3C//DTD SVG 1.1//EN" "http://www.w3.org/Graphics/SVG/1.1/DTD/svg11.dtd" >
<svg xmlns="http://www.w3.org/2000/svg" xmlns:xlink="http://www.w3.org/1999/xlink" version="1.1" viewBox="-10 0 1010 1000">
   <path fill="currentColor"
d="M456 38q48 6 161 6h73q100 0 195 -8q-8 44 -8 181v178q0 107 8 161h-95q10 -64 10 -163v-281h-258v293q0 99 8 147h-96q10 -57 10 -143v-204q0 -128 -8 -167zM423 64v83q-42 -8 -153 -8q-25 93 -60 183h72q70 -1 109 -4q-6 36 -6 157v119q0 94 8 139h-91q8 -28 8 -60h-98
q0 57 8 105h-89q10 -62 10 -131v-202q-46 72 -66 99q-25 -45 -49 -79q105 -87 168 -326q-98 0 -129 8v-81q66 6 137 6h78q71 0 143 -8zM629 151q105 7 101 18q0 6 -7 15q-14 17 -15 37q-7 168 -35 291q24 9 59 8q20 0 24 4q1 3 -4 11q-14 23 -14 51v186q-4 35 62 34
q48 1 65 -21q18 -20 22 -84q34 34 89 51q-21 75 -44 101q-23 27 -69 26h-113q-93 2 -89 -85v-113v-42q1 -63 -4 -75q-70 182 -266 321q-33 -47 -91 -67q197 -89 265 -234q74 -144 64 -433zM312 381h-98v232h98v-232z" />
</svg>
