<?xml version="1.0" standalone="no"?>
<!DOCTYPE svg PUBLIC "-//W3C//DTD SVG 1.1//EN" "http://www.w3.org/Graphics/SVG/1.1/DTD/svg11.dtd" >
<svg xmlns="http://www.w3.org/2000/svg" xmlns:xlink="http://www.w3.org/1999/xlink" version="1.1" viewBox="-10 0 1034 1024">
  <g transform="matrix(1 0 0 -1 0 820)">
   <path fill="currentColor"
d="M184 -27q-1 -27 -2 -56q-1 -4 -3 -14h47q0 9 -2 14q-3 54 -3 83v13h139q0 -58 -5 -105h49q-3 15 -4 29q0 21 -2 41l1 354q1 24 5 47q-72 -4 -108 -5h-82q30 52 57 132q9 30 20 59q4 15 9 29l133 -5v46q-30 -4 -67 -5l-280 5v-46q19 4 44 5h128q-34 -123 -83 -209
q-58 -102 -131 -141q25 -9 53 -28q9 9 19 22q21 25 41 53l27 34v-352zM221 49v289h139v-289h-139zM463 501q0 -37 -5 -69h49q-3 6 -5 44l-1 97h407v-70q0 -39 -2 -55l-3 -15h48q-6 51 -5 84q0 37 3 76q0 12 2 21q-33 -1 -65 -5h-152q15 16 31 26q-7 9 -15 16l-43 49l-60 62
q-15 -15 -34 -30q57 -48 112 -123l-222 1q-19 3 -45 4q1 -30 5 -61v-52zM887 336q-19 -13 -38 -23q-19 -9 -60 -25q-42 -16 -83 -35l-65 -24q-3 0 -14 -5v158q0 12 3 29q3 18 18 35h-64l4 -33q0 -498 3 -508q3 -15 14 -29q15 -15 64 -21q9 -1 41 -4l47 -1q43 0 85 6
q45 7 70 26q15 13 25 41q9 25 20 88q-21 10 -34 19q-3 3 -6 4q1 -1 -10 7l-1 1l1 -35q0 -27 -8 -56q-6 -33 -26 -46q-31 -16 -118 -17q-111 0 -124 23q-3 6 -4 40v234q42 18 174 64q84 27 90 27q15 3 35 3q-15 15 -30 41q-4 7 -9 16v0z" />
  </g>

</svg>
