<?xml version="1.0" standalone="no"?>
<!DOCTYPE svg PUBLIC "-//W3C//DTD SVG 1.1//EN" "http://www.w3.org/Graphics/SVG/1.1/DTD/svg11.dtd" >
<svg xmlns="http://www.w3.org/2000/svg" xmlns:xlink="http://www.w3.org/1999/xlink" version="1.1" viewBox="-10 0 1034 1024">
  <g transform="matrix(1 0 0 -1 0 820)">
   <path fill="currentColor"
d="M192 -14l-4 -67q-1 0 -1 -3h48q-6 30 -6 60v52h152l-4 -91q-1 -3 -1 -7h49q-6 18 -6 66l1 364q0 12 5 47q-66 -6 -87 -6h-125q33 75 58 157q13 46 20 66h116q28 0 53 -3q1 0 14 -2v46q-4 0 -7 -1q-4 0 -8 -1q-21 0 -52 -3l-319 5v-46q15 3 36 4l125 1q-25 -111 -83 -223
q-54 -103 -112 -140q13 -6 28 -10q3 0 25 -14q36 52 56 83q15 22 29 46v-380zM229 64v301h153v-301h-153zM513 -79q0 -27 -2 -56l-1 -2q0 -6 -2 -12h47l-2 15q-3 54 -3 76h336q0 -58 -4 -87q-1 0 -1 -3h48q0 4 -1 9q0 -3 -1 9q-1 25 -3 52l1 365q0 16 4 49q-33 -1 -66 -5
h-170v215l234 -1q27 0 40 -4l2 -1v47q-30 -4 -65 -5h-211v119q0 15 4 28q3 19 18 36h-66l4 -34l1 -400h-84q-6 0 -31 3q-13 0 -31 2q1 -31 5 -65v-350zM550 -22v317h336v-317h-336z" />
  </g>

</svg>
