<?xml version="1.0" standalone="no"?>
<!DOCTYPE svg PUBLIC "-//W3C//DTD SVG 1.1//EN" "http://www.w3.org/Graphics/SVG/1.1/DTD/svg11.dtd" >
<svg xmlns="http://www.w3.org/2000/svg" xmlns:xlink="http://www.w3.org/1999/xlink" version="1.1" viewBox="-10 0 1034 1024">
  <g transform="matrix(1 0 0 -1 0 820)">
   <path fill="currentColor"
d="M74 272q10 -4 26 -17q27 30 40 46q24 33 34 44l-1 -371q0 -3 -1 -27l-1 -2q0 -6 -2 -13h47q-6 55 -5 88v20h150q-3 -81 -5 -92h49q-4 30 -6 61l1 340q1 24 5 49l-111 -5h-87q16 27 41 79q21 46 53 147l116 -1q4 0 30 -5v47q-10 0 -15 -2q-9 0 -50 -4l-280 3q-3 1 -6 1
t-12 2v-47q15 3 31 5l142 1q-30 -129 -99 -226q-52 -81 -111 -109zM211 77v280h150v-280h-150zM527 532q6 9 12 17h74l-5 -706h49q-6 18 -6 69v210l246 -1q12 0 30 -5v47q-10 0 -15 -2q-24 0 -50 -3h-211v193h207q27 0 52 -3q1 0 14 -2v46q-4 0 -7 -1q-4 0 -7 -1l-155 -3
h-104v162l277 -1q22 0 41 -5v47q-10 0 -15 -2q-24 0 -50 -3h-348q3 9 8 20q6 15 14 29l13 31q21 51 50 68q-12 4 -25 9q-9 0 -21 6q-6 3 -20 9q-3 -25 -19 -69q-18 -51 -41 -96q-24 -48 -50 -81q-46 -60 -85 -88q36 -7 60 -19q42 57 54 75z" />
  </g>

</svg>
