<?xml version="1.0" standalone="no"?>
<!DOCTYPE svg PUBLIC "-//W3C//DTD SVG 1.1//EN" "http://www.w3.org/Graphics/SVG/1.1/DTD/svg11.dtd" >
<svg xmlns="http://www.w3.org/2000/svg" xmlns:xlink="http://www.w3.org/1999/xlink" version="1.1" viewBox="-10 0 1010 1000">
   <path fill="currentColor"
d="M831 14q77 78 80 98q-4 2 -15 0q-31 -3 -61 5q-209 57 -347 90q-18 -46 -44 -80q214 -20 387 -113zM48 92q35 9 150 10h76q105 0 153 -10v93q-48 -12 -149 -8q-29 92 -68 179h80q97 0 121 -6q-8 35 -8 131v97q0 122 8 160h-90q-2 0 0 -8q4 -17 4 -31h-111q-3 83 4 129
h-93q12 -69 12 -171v-167q-25 44 -77 106q-9 -36 -38 -86q133 -138 168 -333q-121 0 -142 10v-95zM687 189q37 73 55 115l-91 30q-14 -73 -50 -117zM899 348q-161 241 -343 389q10 3 33 14q116 71 371 25q-28 38 -29 107q-262 4 -334 -45q-76 -48 -101 -46q-22 1 -65 68
q-9 15 -10 15q-3 0 -12 -23q-19 -48 -36 -76q117 -54 254 -206q55 -61 107 -125q6 -7 8 -10h-119q-128 0 -161 12v-99q33 9 163 10h97q105 -1 177 -10zM327 419h-115v216h115v-216z" />
</svg>
