<?xml version="1.0" standalone="no"?>
<!DOCTYPE svg PUBLIC "-//W3C//DTD SVG 1.1//EN" "http://www.w3.org/Graphics/SVG/1.1/DTD/svg11.dtd" >
<svg xmlns="http://www.w3.org/2000/svg" xmlns:xlink="http://www.w3.org/1999/xlink" version="1.1" viewBox="-10 0 1010 1000">
   <path fill="currentColor"
d="M692 4q56 110 66 153l-83 26q-13 -87 -60 -151zM446 112v79q-19 -6 -158 -6q-28 99 -66 175h99q61 0 92 -4q-6 26 -6 95v226q0 64 10 93h-84q6 -25 6 -49h-127v61q0 20 1 31q0 23 3 33h-75q4 -11 5 -33q1 -16 1 -75v-259q-2 2 -5 6q-60 74 -73 85q-8 -40 -47 -82
q144 -103 190 -303q-122 0 -150 4v-76q27 4 136 4h121q97 0 127 -5zM935 195v77q-19 -2 -54 -3q-16 -1 -40 -1h-63h-157q-91 0 -165 8v-79q31 4 171 4h139q137 0 169 -6zM571 334q16 46 74 327l-89 24q-15 -188 -60 -329zM214 419v242h125v-242h-125zM425 774q29 11 142 12
h98q71 -232 103 -464q107 26 103 34q0 3 -6 9q-17 15 -26 40q-26 68 -84 332q-7 32 -11 49q155 0 196 -6v82q-53 -6 -202 -6h-163q-97 0 -150 7v-89z" />
</svg>
