<?xml version="1.0" standalone="no"?>
<!DOCTYPE svg PUBLIC "-//W3C//DTD SVG 1.1//EN" "http://www.w3.org/Graphics/SVG/1.1/DTD/svg11.dtd" >
<svg xmlns="http://www.w3.org/2000/svg" xmlns:xlink="http://www.w3.org/1999/xlink" version="1.1" viewBox="-10 0 1010 1000">
   <path fill="currentColor"
d="M448 42q19 5 123 6h189q109 -1 171 -8v89q-47 -6 -165 -8h-236v102h282q94 0 138 -8v83q-32 -7 -138 -8h-98l-4 119h102q38 -3 113 -6q0 4 -1 10q-8 61 -9 93q-1 10 -2 39q-14 267 -30 287q-24 37 -127 51q-5 -66 -34 -95q76 12 90 -20q13 -54 23 -291h-125
q-7 248 -160 410q-49 -35 -84 -47q111 -91 146 -204q17 -56 24 -132q6 -62 5 -214h-109q0 322 -42 413q-34 102 -91 180q-45 -23 -97 -31q60 -59 89 -121q37 -78 52 -196q7 -58 10 -131q2 -69 1 -179q0 -96 -6 -183zM71 76q43 5 100 6h111q78 0 123 -8v87q-40 -7 -131 -8
h-12q-19 91 -52 177h64q64 0 103 -6q-5 28 -6 97v183q0 57 1 81q2 29 5 40h-83q5 -20 6 -42h-98q0 60 6 79h-83q4 -19 4 -117v-157q1 -2 -17 23q-35 48 -52 69q-7 -41 -38 -84q133 -128 168 -343h-29q-69 0 -90 6v-83zM300 389h-100v234h100v-234z" />
</svg>
