<?xml version="1.0" standalone="no"?>
<!DOCTYPE svg PUBLIC "-//W3C//DTD SVG 1.1//EN" "http://www.w3.org/Graphics/SVG/1.1/DTD/svg11.dtd" >
<svg xmlns="http://www.w3.org/2000/svg" xmlns:xlink="http://www.w3.org/1999/xlink" version="1.1" viewBox="-10 0 1034 1024">
  <g transform="matrix(1 0 0 -1 0 820)">
   <path fill="currentColor"
d="M59 253q13 -3 26 -12q3 -3 7 -4q30 45 60 81q7 12 17 21l-1 -350q-1 -7 -4 -32h47q-1 7 -2 10q-3 79 -4 83h138q-1 -36 -3 -75q-1 -3 -2 -15h48q-4 45 -5 69l1 339l4 46q-19 -1 -34 -2q-22 -3 -35 -4h-106q46 99 78 199q99 0 115 -2q9 0 21 -3v46q-15 -4 -66 -5l-284 5
v-46q15 3 39 4l134 1q-15 -55 -36 -106q-45 -97 -94 -161q-45 -58 -80 -81zM205 86v287h138v-287h-138zM453 607q4 -60 5 -66q-3 -465 -5 -487h47q-6 66 -5 82h174l-1 -265q-1 -4 -1 -7q-1 -13 -3 -29h48l-4 36l-1 265h176q-1 -34 -3 -71q0 -6 -1 -11h48q0 4 -1 9q0 -3 -1 9
q-1 25 -3 52l1 435l4 48q-69 -6 -80 -6h-140v112q0 10 3 29t18 35h-64q0 -1 1 -5q3 -75 4 -118v-53l-169 1q-24 4 -47 5zM495 172v177h174v-177h-174zM495 385v180h174v-180h-174zM707 172v177h176v-177h-176zM707 385v180h176v-180h-176z" />
  </g>

</svg>
