<?xml version="1.0" standalone="no"?>
<!DOCTYPE svg PUBLIC "-//W3C//DTD SVG 1.1//EN" "http://www.w3.org/Graphics/SVG/1.1/DTD/svg11.dtd" >
<svg xmlns="http://www.w3.org/2000/svg" xmlns:xlink="http://www.w3.org/1999/xlink" version="1.1" viewBox="-10 0 1034 1024">
  <g transform="matrix(1 0 0 -1 0 820)">
   <path fill="currentColor"
d="M170 -2l-4 -65q-1 -1 -1 -4h47q-4 57 -5 103h130l-4 -75q-1 -1 -1 -4h48q-3 34 -5 70l1 322l4 48q-33 -1 -68 -5h-116q39 82 41 90l15 38q15 42 28 84q48 0 100 -3q3 0 11 -3v46q-4 0 -7 -1q-4 0 -7 -1l-145 -3l-160 5v-46q3 3 59 6h108l-38 -110q-31 -84 -91 -167
q-39 -51 -80 -80q25 -7 54 -23q27 33 45 59q18 24 41 64v-345zM207 68v284h130v-284h-130zM392 -140q45 24 75 43q28 18 72 48q36 25 68 52q33 27 68 62q51 -52 131 -109q30 -21 54 -36l83 -48q15 19 24 26q9 6 23 17q-141 37 -290 182q15 21 46 76q16 31 31 67l39 107
q16 48 42 60l-67 22q-7 -52 -23 -105q-34 -108 -95 -197q-42 51 -81 125q-43 87 -46 150q-6 0 -16 -5q-10 -3 -20 -8q-7 -3 -17 -5q10 -21 20 -44q48 -129 132 -245q-75 -81 -171 -141q-84 -49 -143 -62q28 -22 45 -41q7 4 16 9zM580 602v96q0 12 3 28q3 18 18 36h-64l4 -34
l1 -126l-94 1q-6 1 -21 2q-3 0 -12 2v-46q15 3 35 4l92 1l-3 -99q0 -3 -1 -10q-1 -1 -1 -5h49q0 3 -2 10q-3 6 -3 43l-1 61h169q0 -66 -3 -90q0 -3 -2 -18h48l-4 41l-1 67l145 -1l32 -4v46q-49 -4 -81 -5h-96q0 108 2 116q0 22 19 44h-64q0 -1 1 -5l4 -117v-38h-169z" />
  </g>

</svg>
