<?xml version="1.0" standalone="no"?>
<!DOCTYPE svg PUBLIC "-//W3C//DTD SVG 1.1//EN" "http://www.w3.org/Graphics/SVG/1.1/DTD/svg11.dtd" >
<svg xmlns="http://www.w3.org/2000/svg" xmlns:xlink="http://www.w3.org/1999/xlink" version="1.1" viewBox="-10 0 1010 1000">
   <path fill="currentColor"
d="M645 -13q88 4 103 15q0 2 -4 8q-14 22 -14 46v69h44q86 0 118 -2q40 -2 66 -8q9 -11 -57 185l-89 -8q6 -16 10 -27q14 -36 16 -39q3 -6 15 -31h-125v167h44q110 2 135 -8q-56 234 -139 355q79 67 198 75q-6 8 -17 22q-35 42 -48 77q-112 -40 -185 -113q-75 75 -182 117
q-29 -44 -68 -69q120 -32 201 -105q-55 -87 -96 -228l84 -12q12 103 63 180q50 -71 82 -222h-254q-1 323 -143 456q-49 -36 -90 -49q101 -65 127 -164q32 -101 30 -360q1 -154 -12 -199q42 12 149 10h40v-97q-1 -30 -2 -41zM417 90v91q-20 -5 -49 -7q-14 0 -35 -1h-57
q-25 89 -52 159h42q70 0 89 -1q25 -2 42 -7q-8 51 -8 157v123q0 134 6 154h-91q8 -28 6 -61h-100q-3 112 8 137h-91q6 -11 8 -47q2 -33 2 -114v-202q-26 47 -68 99q-20 -55 -45 -82q110 -73 180 -317q-103 0 -141 8v-89q20 5 53 7q15 0 36 1h56h64q74 0 98 -1q31 -2 47 -7z
M651 199h-103v164h103v-164zM312 401h-102v230h102v-230z" />
</svg>
