<?xml version="1.0" standalone="no"?>
<!DOCTYPE svg PUBLIC "-//W3C//DTD SVG 1.1//EN" "http://www.w3.org/Graphics/SVG/1.1/DTD/svg11.dtd" >
<svg xmlns="http://www.w3.org/2000/svg" xmlns:xlink="http://www.w3.org/1999/xlink" version="1.1" viewBox="-10 0 1034 1024">
  <g transform="matrix(1 0 0 -1 0 820)">
   <path fill="currentColor"
d="M162 64q0 -45 -4 -66q-1 -1 -1 -4h48q-3 10 -3 15q-3 60 -3 81h144l-4 -74q-1 -3 -3 -8h49q-6 51 -5 108l1 269l4 46q-60 -4 -82 -5h-109q67 105 108 214q84 0 102 -2q6 0 21 -4v47q-4 0 -7 -1q-18 0 -59 -4l-287 5v-47q3 3 14 4q25 1 53 2h121l-6 -13q-13 -30 -25 -61
q-4 -12 -11 -25l-31 -54q-16 -27 -42 -61q-46 -61 -101 -100l51 -27q54 63 67 83v-318zM343 126h-144v264h144v-264zM471 438q0 -118 -9 -198q-12 -96 -43 -180q-27 -70 -63 -116q-18 -24 -46 -44q28 -7 54 -20q69 94 103 195q42 130 42 363v222l394 -1q15 -1 30 -5v47
q-10 0 -15 -2q-13 0 -50 -4l-349 1q-7 1 -53 5q1 -31 5 -65v-198zM857 283q0 -18 -2 -41l-15 -225q-6 -63 -17 -79q-15 -15 -64 -16q-24 0 -50 5q12 -25 16 -51q85 4 119 26q18 13 27 39q6 24 11 96l9 162q3 37 5 79q0 15 6 47q-66 -6 -85 -6h-114l6 174l212 -1q9 0 50 -5
v47q-9 -3 -15 -3q-48 -3 -70 -3l-307 1q-9 1 -26 2q-3 0 -12 3v-47q10 3 53 6h78l-10 -203l-9 -73q-24 -132 -79 -224q-45 -69 -93 -102q30 -9 53 -26q76 100 115 194q36 88 52 224h156z" />
  </g>

</svg>
