<?xml version="1.0" standalone="no"?>
<!DOCTYPE svg PUBLIC "-//W3C//DTD SVG 1.1//EN" "http://www.w3.org/Graphics/SVG/1.1/DTD/svg11.dtd" >
<svg xmlns="http://www.w3.org/2000/svg" xmlns:xlink="http://www.w3.org/1999/xlink" version="1.1" viewBox="-10 0 1010 1000">
   <path fill="currentColor"
d="M633 6q93 15 103 26q0 3 -6 12q-18 27 -18 50v246h109v-157q0 -52 -7 -92q-2 -10 -2 -13q95 11 109 22q0 2 -6 11q-18 26 -18 44v141q0 82 7 143q1 10 1 12h-88q4 -17 4 -46h-109v367h123v-176q0 -47 -5 -91q-1 -9 -1 -11q99 9 106 20q1 5 -8 18q-16 26 -16 46v149
q0 92 7 151q1 9 1 11h-88q4 -21 4 -49h-248q-80 0 -143 6q5 -25 7 -56q0 -15 1 -35v-56v-121q0 -47 -5 -90q-1 -9 -1 -11q106 8 114 23q1 4 -8 14q-24 29 -24 56v204h111v-367h-62q-54 0 -73 1q-24 0 -50 3q6 -25 6 -129v-101q0 -53 -5 -94q-1 -8 -1 -11q91 5 104 20
q0 3 -6 13q-16 28 -16 48v185h103v-232q0 -51 -5 -92q-1 -9 -1 -12zM63 92q1 0 11 1q62 7 113 7h111q53 0 107 -5q10 -1 12 -1v89q-2 0 -12 -1q-52 -7 -107 -7h-14q-33 115 -68 187h66q52 0 101 -6q-6 25 -6 115v176q0 113 8 145h-83q4 -20 4 -57h-94q0 86 4 105h-83
q0 -3 1 -13q7 -55 7 -122v-211q-57 86 -76 106q-6 -16 -14 -38q-11 -34 -23 -50q134 -135 180 -337h-21q-59 0 -111 7q-10 1 -13 1v-91zM306 429h-94v238h94v-238z" />
</svg>
