<?xml version="1.0" standalone="no"?>
<!DOCTYPE svg PUBLIC "-//W3C//DTD SVG 1.1//EN" "http://www.w3.org/Graphics/SVG/1.1/DTD/svg11.dtd" >
<svg xmlns="http://www.w3.org/2000/svg" xmlns:xlink="http://www.w3.org/1999/xlink" version="1.1" viewBox="-10 0 1010 1000">
   <path fill="currentColor"
d="M631 6q109 20 103 24q0 8 -11 19q-6 5 -9 9q57 234 252 300q-34 28 -69 89q-179 -123 -228 -316q-85 211 -205 318q-1 -2 -4 -5q-15 -28 -47 -51v272q0 114 6 135h-88q8 -24 8 -54h-115q0 77 6 102h-91q8 -43 8 -133v-183q-6 6 -31 39q-27 37 -45 60q-19 -38 -55 -79
q159 -125 192 -381h-18q-104 -1 -136 8v-91q29 7 129 8h136q92 -1 123 -8v91q-25 -7 -129 -8h-21q-11 51 -48 177h56l117 -4l-4 29q164 -130 218 -367zM222 415v264h115v-264h-115zM496 439q31 6 115 6h113q104 0 133 -6v89q-29 -8 -115 -8h-32v278h66q13 -1 42 -1
q85 -2 105 -7v91q-36 -8 -141 -8h-209q-97 -3 -140 8v-91q52 7 138 8h60v-278h-20q-90 -1 -115 8v-89z" />
</svg>
