<?xml version="1.0" standalone="no"?>
<!DOCTYPE svg PUBLIC "-//W3C//DTD SVG 1.1//EN" "http://www.w3.org/Graphics/SVG/1.1/DTD/svg11.dtd" >
<svg xmlns="http://www.w3.org/2000/svg" xmlns:xlink="http://www.w3.org/1999/xlink" version="1.1" viewBox="-10 0 1034 1024">
  <g transform="matrix(1 0 0 -1 0 820)">
   <path fill="currentColor"
d="M666 381h-157q-27 0 -60 4q-4 1 -8 1v-46q3 1 60 5l435 -3q4 0 14 -2v46q-33 -1 -67 -5h-179v190l193 -3q4 0 15 -2v46l-43 -4l-165 -1q0 126 3 134q1 13 9 30h-55l4 -39l1 -125l-141 1q-24 3 -23 2q-6 1 -18 2v-46q60 6 105 5h77v-190zM170 12q-1 -24 -2 -49
q0 -7 -3 -18h47q-4 19 -5 51v40h147q0 -9 -5 -69h49q-4 30 -5 66l1 315l4 48q-60 -4 -74 -5h-117q52 114 77 232q133 0 144 -3q6 0 11 -2v47q-13 -3 -17 -3q-24 0 -50 -3l-262 1q-18 3 -35 5v-47q39 4 64 5h103q-6 -54 -31 -121q-39 -100 -88 -178q-43 -60 -89 -93
q21 -9 52 -25q49 66 84 124v-318zM207 72v283h147v-283h-147zM669 -64h-194q-27 0 -58 4q-4 1 -9 1v-46q19 4 50 5l496 -3q6 0 15 -2v46q-33 -1 -67 -5h-195v190q171 0 184 -3q10 0 23 -3v47q-51 -6 -76 -6h-131v73q0 33 12 70h-55q0 -9 2 -13l3 -130l-161 3q-6 3 -22 3v-47
q34 4 68 6h115v-190z" />
  </g>

</svg>
