<?xml version="1.0" standalone="no"?>
<!DOCTYPE svg PUBLIC "-//W3C//DTD SVG 1.1//EN" "http://www.w3.org/Graphics/SVG/1.1/DTD/svg11.dtd" >
<svg xmlns="http://www.w3.org/2000/svg" xmlns:xlink="http://www.w3.org/1999/xlink" version="1.1" viewBox="-10 0 1034 1024">
  <g transform="matrix(1 0 0 -1 0 820)">
   <path fill="currentColor"
d="M531 -66v258q0 9 4 31q1 19 10 39h-57l4 -31q0 -19 2 -39l-1 -245q-1 -7 -5 -54l420 33q-3 -64 -5 -86h49q-4 33 -5 66l1 310q0 27 10 48q0 3 1 3h-56q0 -16 5 -62q-1 -3 0 -8v-237l-179 -13v407q135 0 150 -2q21 0 43 -3q-3 34 -5 69l1 219q1 22 11 48h-55l4 -39l1 -256
h-150v304q0 13 2 31q1 16 11 39h-56q0 -7 2 -16q0 1 2 -23l1 -335h-153v226q0 12 2 30q1 15 10 39h-56q1 -10 2 -16l3 -152q0 -99 -2 -127q-3 -6 -3 -41q54 4 111 5h86v-410zM44 230q6 -1 13 -5q6 0 34 -13q42 57 87 131v-357q-1 -24 -2 -49q0 -6 -4 -17h48q-4 19 -5 50v52
h159q0 -28 -5 -89h49q-4 39 -5 66l1 329l4 48q-66 -4 -99 -5h-125q57 106 87 226q150 0 160 -3q6 0 12 -2v47q-13 -3 -18 -3q-24 0 -49 -3l-281 1q-18 3 -35 5v-47q42 6 70 5h102q-7 -34 -28 -90q-21 -52 -46 -104q-67 -127 -131 -171q3 0 7 -2zM215 58v277h159v-277h-159z
" />
  </g>

</svg>
