<?xml version="1.0" standalone="no"?>
<!DOCTYPE svg PUBLIC "-//W3C//DTD SVG 1.1//EN" "http://www.w3.org/Graphics/SVG/1.1/DTD/svg11.dtd" >
<svg xmlns="http://www.w3.org/2000/svg" xmlns:xlink="http://www.w3.org/1999/xlink" version="1.1" viewBox="-10 0 1034 1024">
  <g transform="matrix(1 0 0 -1 0 820)">
   <path fill="currentColor"
d="M86 244q3 6 8 10q18 21 37 46q4 7 16 20v-282q0 -48 -5 -68h48q0 3 -1 8q-1 3 -2 27q0 19 -2 32h140q0 -30 -2 -48q0 -12 -4 -22h50q0 3 -1 8q-1 15 -3 30l-2 191q0 154 2 168l4 39q-34 -1 -70 -5h-105q15 28 33 74q9 25 17 52q9 31 26 94q135 0 141 -3q3 0 10 -3v47
q-54 -6 -66 -6l-261 1q-9 1 -16 1l-1 2q-3 1 -4 1q-3 1 -6 1v-47q66 6 86 6h79q-27 -108 -57 -174q-30 -64 -76 -120q-39 -42 -72 -62q33 -9 55 -23q1 3 4 5zM185 73v289h140v-289h-140zM429 323q7 9 15 16q64 63 125 148q27 40 50 80q22 40 52 104q60 -123 130 -207
q72 -81 142 -135q18 24 45 41q-67 21 -149 105q-111 120 -148 247q9 13 25 27q-34 6 -60 16q-6 -36 -18 -73q-37 -99 -99 -186q-51 -70 -89 -105q-37 -31 -81 -47q30 -15 60 -31zM660 -85q-225 0 -241 3q-3 1 -11 2q-3 1 -6 1v-47l68 6q468 0 474 -3q3 0 10 -3v47
q-36 -6 -64 -6h-190v403h109q42 0 66 -5v46l-12 -2q-30 -3 -71 -3l-259 1q-12 1 -37 2q-3 1 -6 1q-3 1 -6 1v-46q54 4 111 5h65v-403z" />
  </g>

</svg>
