<?xml version="1.0" standalone="no"?>
<!DOCTYPE svg PUBLIC "-//W3C//DTD SVG 1.1//EN" "http://www.w3.org/Graphics/SVG/1.1/DTD/svg11.dtd" >
<svg xmlns="http://www.w3.org/2000/svg" xmlns:xlink="http://www.w3.org/1999/xlink" version="1.1" viewBox="-10 0 1010 1000">
   <path fill="currentColor"
d="M603 -12q11 4 33 11q67 21 64 25q0 6 -14 13q-14 6 -19 13q-2 3 -5 8q-26 38 -31 52h161l103 -4q-59 192 -147 283q97 56 226 78q-35 38 -47 89q-155 -54 -233 -113q-73 58 -162 95q26 4 89 4h127q87 0 115 -6q-2 14 -3 35q-1 17 -1 58v171q0 87 6 103h-85q4 -27 4 -73
h-205q0 52 4 79h-81q4 -27 4 -105v-161q0 -69 -6 -89q-9 4 -31 14q-20 9 -31 14q-13 -29 -49 -66v173q0 48 1 62q1 19 3 25h-80q4 -19 4 -57h-101q3 104 6 113h-79q6 -42 6 -121v-226q-37 50 -64 77q-17 -38 -53 -70q136 -110 186 -319q-83 0 -106 1q-31 0 -39 3v-77
q12 2 44 3q15 1 37 1h62h111q98 0 133 -6v79q-31 -2 -68 -3q-18 -1 -39 -1h-55q-10 53 -66 177h58q58 -1 103 -4q-2 11 -3 33q-1 17 -1 64v57q171 -53 254 -113q-46 -52 -87 -129q-39 67 -82 119q-29 -30 -77 -53q114 -104 206 -336zM786 177h-181l-38 63l64 -17
q18 71 61 121q71 -83 94 -167zM315 417h-97v234h97v-234zM784 610h-203v152h203v-152z" />
</svg>
