<?xml version="1.0" standalone="no"?>
<!DOCTYPE svg PUBLIC "-//W3C//DTD SVG 1.1//EN" "http://www.w3.org/Graphics/SVG/1.1/DTD/svg11.dtd" >
<svg xmlns="http://www.w3.org/2000/svg" xmlns:xlink="http://www.w3.org/1999/xlink" version="1.1" viewBox="-10 0 1010 1000">
   <path fill="currentColor"
d="M605 -8q8 0 24 1q75 2 73 9q1 3 -3 12q-12 29 -12 72v53h95q110 -1 131 -8v90q-16 -6 -46 -8q-15 -1 -34 -2h-53h-93q-1 33 -2 89v64v101h119q32 3 138 -10v87q-26 -6 -144 -6h-86q71 208 242 260q-35 28 -69 83q-171 -119 -222 -291q-55 201 -244 317q-26 -28 -69 -52
q-14 -8 -21 -13q222 -85 268 -304h-89q-101 0 -119 6v-85q19 9 112 8h15h89q3 -48 6 -254h-83q-98 -1 -117 8v-86q28 5 111 6h87q0 -84 -4 -147zM38 86q21 3 107 6h125q46 0 66 -1q24 -1 41 -5v83q-21 -6 -115 -6h-14q-21 85 -58 177h78q74 -1 103 -6q-6 40 -6 111v182
q-1 98 6 123h-83q4 -14 4 -45h-94v35q0 72 10 94h-91q6 -24 6 -121v-246q-39 49 -73 103q-11 -42 -34 -93q108 -95 155 -314h-30q-66 0 -103 6v-83zM796 258q88 18 85 28q-2 4 -8 10q-14 13 -20 34q-5 19 -21 65q-9 25 -13 38q-23 -12 -77 -12q40 -75 54 -163zM504 264
q5 14 16 41q23 58 38 106l-78 20q-10 -51 -53 -145zM198 407v230h92v-230h-92z" />
</svg>
