<?xml version="1.0" standalone="no"?>
<!DOCTYPE svg PUBLIC "-//W3C//DTD SVG 1.1//EN" "http://www.w3.org/Graphics/SVG/1.1/DTD/svg11.dtd" >
<svg xmlns="http://www.w3.org/2000/svg" xmlns:xlink="http://www.w3.org/1999/xlink" version="1.1" viewBox="-10 0 1010 1000">
   <path fill="currentColor"
d="M433 34q33 6 138 6h211q86 0 129 -6q-2 20 -3 51q-1 15 -1 37v61v581q1 69 -25 86q-13 17 -126 29q-2 -53 -32 -95q62 8 101 0q10 -4 10 -47v-629h-325v625q0 127 6 142h-83q3 -11 4 -39q1 -27 1 -99v-570q0 -112 -5 -133zM71 56q11 5 39 7q13 0 34 1h60h78q107 0 127 -6
v79q-13 -6 -131 -6q-21 85 -60 163h82q50 0 87 -4q-2 13 -3 42q-1 13 -1 33v56v222q0 92 6 107h-85q4 -21 4 -93h-94q0 109 8 139h-87q4 -10 5 -34q1 -12 1 -31v-56v-248q-29 52 -76 95q-10 -53 -31 -91q112 -97 170 -300q-91 0 -133 6v-81zM544 201q23 4 127 4q94 0 125 -4
v73q-17 -2 -44 -3q-13 -1 -30 -1h-47q-90 0 -131 4v-73zM558 354q16 4 117 4q50 0 70 -1q23 -1 35 -3l-4 99v103q0 64 4 105q-12 -2 -36 -3q-12 -1 -28 -1h-45q-55 0 -74 1q-24 0 -39 3q0 -8 1 -45q2 -45 3 -76v-89q0 -43 -1 -58q0 -19 -3 -39zM308 358h-92v236h92v-236z
M708 417h-79v181h79v-181z" />
</svg>
