<?xml version="1.0" standalone="no"?>
<!DOCTYPE svg PUBLIC "-//W3C//DTD SVG 1.1//EN" "http://www.w3.org/Graphics/SVG/1.1/DTD/svg11.dtd" >
<svg xmlns="http://www.w3.org/2000/svg" xmlns:xlink="http://www.w3.org/1999/xlink" version="1.1" viewBox="-10 0 1034 1024">
  <g transform="matrix(1 0 0 -1 0 820)">
   <path fill="currentColor"
d="M342 -109l40 -43q39 13 82 35q114 57 172 123q45 51 64 112q15 58 20 182q1 70 21 95q-40 0 -64 3q3 -36 4 -66q0 -132 -15 -192q-22 -82 -98 -148q-69 -57 -165 -90q-15 -4 -36 -8q-9 -1 -25 -3zM899 687q6 0 67 -5v46q-33 -1 -67 -5l-387 1q-24 3 -23 2q-7 1 -18 2v-46
q3 1 8 1l2 1q57 3 112 3h82q-9 -34 -48 -163q-55 0 -84 2q-3 1 -43 4l6 -70l-1 -338q-1 -7 -2 -22q0 -6 -3 -24h48q-4 33 -5 67v345h312v-341l-3 -43q0 -12 -2 -24h49q-6 54 -5 88l1 311l4 51l-35 -3q-27 -3 -36 -3h-161l37 119l14 44h181zM718 31q117 -81 231 -173
q15 21 27 34q-39 33 -87 68l-145 105q-1 -1 -4 -6q-7 -10 -22 -28zM83 239q49 69 90 138v-335q0 -4 -3 -50q0 -4 -3 -17h48q-6 51 -5 78h152q-4 -30 -5 -65h49q-4 39 -5 63l1 350l4 47q-66 -4 -101 -5h-95q9 18 18 40l32 94q9 24 20 71q144 0 153 -3q6 0 11 -2v47
q-13 -3 -17 -3q-24 0 -49 -3l-273 1q-16 3 -34 5v-47q49 6 105 5h61q-27 -135 -109 -275q-45 -70 -102 -113q15 -3 21 -6q18 -6 20 -9q7 -3 16 -6zM210 89v318h152v-318h-152z" />
  </g>

</svg>
