<?xml version="1.0" standalone="no"?>
<!DOCTYPE svg PUBLIC "-//W3C//DTD SVG 1.1//EN" "http://www.w3.org/Graphics/SVG/1.1/DTD/svg11.dtd" >
<svg xmlns="http://www.w3.org/2000/svg" xmlns:xlink="http://www.w3.org/1999/xlink" version="1.1" viewBox="-10 0 1010 1000">
   <path fill="currentColor"
d="M629 -8q89 3 103 16q0 6 -7 17q-15 21 -15 47v222h98q58 -3 99 -12q-5 22 -6 99v427q1 51 -29 68q-27 18 -122 25q-5 -50 -34 -91q69 11 83 5q19 -4 18 -33v-93h-279v83q0 85 8 121h-92q0 -3 2 -17q6 -55 6 -106v-381q-1 -82 -6 -101q21 6 100 6h81v-198q0 -77 -8 -104z
M847 30q67 36 86 62q-2 6 -16 13q-18 10 -24 20q-15 24 -54 82q-21 31 -31 47q-20 -16 -70 -31q68 -83 109 -193zM496 46q59 78 101 165l-79 35q-37 -97 -93 -170zM50 88q53 8 129 8h103q50 0 105 -6q15 -2 18 -2v85q-3 0 -15 -1q-53 -7 -118 -7q-17 91 -56 189h80
q72 -1 93 -6q-5 22 -6 83v198q0 76 7 124q1 9 1 11h-83q5 -16 5 -67h-103q0 109 6 137h-79q0 -8 2 -27q6 -49 6 -96v-240q-35 60 -78 105q-12 -40 -41 -74q134 -137 164 -335q-89 -1 -140 8v-87zM538 358v111h279v-111h-279zM313 417h-101v224h101v-224zM538 522v111h279
v-111h-279z" />
</svg>
