<?xml version="1.0" standalone="no"?>
<!DOCTYPE svg PUBLIC "-//W3C//DTD SVG 1.1//EN" "http://www.w3.org/Graphics/SVG/1.1/DTD/svg11.dtd" >
<svg xmlns="http://www.w3.org/2000/svg" xmlns:xlink="http://www.w3.org/1999/xlink" version="1.1" viewBox="-10 0 1010 1000">
   <path fill="currentColor"
d="M577 -8q99 38 96 48q-2 8 -16 16q-12 6 -18 12q-18 18 -28 38h145q70 0 101 -4l2 4q-43 73 -113 152h64q58 0 105 -4v4q0 7 -1 22q-1 22 -1 38v111q1 346 -2 365q-15 96 -143 97q-3 -49 -28 -99q62 20 91 2q5 -5 4 -91v-46h-121v80q1 72 4 142h-77q1 -20 2 -53v-37v-52
v-80h-113q-13 131 -145 246q-32 -35 -81 -55q29 -18 89 -64q66 -64 67 -232v-270q-17 16 -31 26q-30 -34 -74 -58q143 -60 222 -258zM391 776h-89q2 -5 5 -58q1 -9 1 -13h-92q-2 64 4 127h-79q4 -63 4 -137v-207q-40 72 -72 120q-13 -39 -47 -92q115 -100 170 -349h-13
q-71 0 -112 4v-83q27 4 116 4h121q96 0 125 -4v83q-27 -4 -127 -4h-32q-14 70 -50 159h54q9 0 48 -2q38 -1 63 -2q-3 51 -4 123v208q0 28 4 88q1 24 2 35zM218 393v244h90v-244h-90zM730 169h-163q-39 50 -83 89h177q34 -33 69 -89zM714 488v102h121v-102h-121zM714 326v99
h121v-99h-121zM536 488v102h107v-102h-107zM643 326h-107v99h107v-99z" />
</svg>
