<?xml version="1.0" standalone="no"?>
<!DOCTYPE svg PUBLIC "-//W3C//DTD SVG 1.1//EN" "http://www.w3.org/Graphics/SVG/1.1/DTD/svg11.dtd" >
<svg xmlns="http://www.w3.org/2000/svg" xmlns:xlink="http://www.w3.org/1999/xlink" version="1.1" viewBox="-10 0 1010 1000">
   <path fill="currentColor"
d="M708 4q11 37 24 111h62q104 -1 143 -7q-8 19 -8 91q0 56 4 85h-94q9 -42 8 -95h-335q0 61 6 81h-95q6 -24 6 -75q0 -72 -6 -85q66 7 129 7h97q-8 -37 -34 -97zM62 80q32 6 136 6h64q100 0 139 -6v85q-72 -9 -127 -6q-14 59 -50 167h56q53 0 93 -8q-5 43 -5 63
q-1 17 -1 100v131q0 126 10 156h-93q8 -29 8 -55h-90q0 45 6 99h-89q12 -45 12 -169v-174q-32 65 -73 119q-3 -51 -26 -103q128 -127 166 -326q-95 -1 -136 8v-87zM450 312q66 8 165 8h139q91 0 157 -8v83q-45 -9 -149 -8h-50v129q109 0 171 -8v90q-45 -12 -171 -8v194
q87 19 248 2q-33 56 -33 97q-330 11 -423 -168q-41 93 -105 176q-47 -27 -93 -35q175 -130 172 -387q12 3 32 7q75 15 67 18q-1 2 -4 6q-15 15 -23 50q0 1 -1 4q-13 57 -15 75q40 83 103 121v-363h-34q-99 0 -153 6v-81zM294 395h-90v248h90v-248z" />
</svg>
