<?xml version="1.0" standalone="no"?>
<!DOCTYPE svg PUBLIC "-//W3C//DTD SVG 1.1//EN" "http://www.w3.org/Graphics/SVG/1.1/DTD/svg11.dtd" >
<svg xmlns="http://www.w3.org/2000/svg" xmlns:xlink="http://www.w3.org/1999/xlink" version="1.1" viewBox="-10 0 1034 1024">
  <g transform="matrix(1 0 0 -1 0 820)">
   <path fill="currentColor"
d="M315 -129q24 -9 45 -16q33 39 61 83q57 102 74 220q4 48 8 119q3 72 4 136v299h399v-746q0 -40 -8 -53q-6 -9 -26 -16q-21 -3 -39 -4q-3 0 -64 6q9 -22 17 -50q55 1 90 8q25 4 43 17q24 21 25 82l1 745q0 19 4 52q-36 -1 -71 -5l-362 1q-3 0 -53 4q1 -36 5 -75l-2 -371
q-1 -19 -2 -40q-3 -69 -9 -114q-21 -123 -81 -208q-30 -39 -74 -67q7 -3 15 -7zM679 531l-103 5q-3 1 -7 1v-44q42 6 69 5h41v-115h-67q-19 0 -44 3q-3 0 -19 3v-45q30 4 52 5l242 -3q3 0 14 -2v45q-12 -3 -17 -3q-24 -1 -50 -3h-74v115q76 0 106 -4q1 0 7 -1v44
q-12 0 -25 -3l-88 -3v63q0 30 12 70h-54q1 -18 2 -16l3 -113v-4zM754 37q27 0 68 -5q-6 66 -6 78l1 98q1 24 5 50l-111 -5q-63 0 -91 2q-12 3 -40 3q1 -19 2 -32q3 -24 3 -78q0 -51 -2 -79q-3 -3 -3 -37q54 4 110 5h64zM621 71v148h159v-148h-159zM61 268q9 -4 21 -10
q33 39 71 97l-1 -332q-1 -13 -2 -30q0 -3 -2 -11h47q-1 9 -3 20v7l-2 60h151q-3 -60 -5 -80h49q-4 33 -5 66l1 310l4 49q-18 -1 -35 -3q-22 -3 -32 -3h-130q57 108 85 228q121 0 131 -3q6 0 12 -2v47q-13 -3 -18 -3q-24 0 -49 -3l-240 1q-18 3 -36 5v-47q42 6 69 5h88
q-16 -105 -76 -208q-61 -105 -125 -144q4 -3 20 -9q6 -3 12 -7zM190 105v268h151v-268h-151z" />
  </g>

</svg>
