<?xml version="1.0" standalone="no"?>
<!DOCTYPE svg PUBLIC "-//W3C//DTD SVG 1.1//EN" "http://www.w3.org/Graphics/SVG/1.1/DTD/svg11.dtd" >
<svg xmlns="http://www.w3.org/2000/svg" xmlns:xlink="http://www.w3.org/1999/xlink" version="1.1" viewBox="-10 0 1010 1000">
   <path fill="currentColor"
d="M927 36q-6 24 -8 95v663q11 84 -169 93q9 -57 -32 -105q123 28 125 -38v-632h-145v99q67 0 94 -8v73q-63 -10 -94 -10v92q68 0 117 -8v81q-41 -8 -101 -8h-85q-42 -2 -93 8v-81q26 7 99 8v-92q-50 -2 -87 8v-73q31 8 87 10v-99h-131q1 323 -6 424q-7 124 -28 181
q-34 99 -95 178q-34 -40 -95 -51q54 -36 97 -109q41 -71 51 -222q11 -145 -1 -477q19 7 105 8h264q76 -2 131 -8zM58 72q31 7 119 8h93q77 -1 129 -8v87q-32 -7 -115 -8h-16q-38 120 -74 183h58q78 0 111 -6q-5 45 -6 105v180q3 72 10 112h-77q4 -12 4 -68h-98q0 96 6 121
h-79q8 -74 8 -145v-196q-34 53 -68 97q-7 -43 -43 -87q110 -76 174 -296h-27q-73 0 -109 8v-87zM294 393h-100v205h100v-205zM550 485q15 3 53 3h119q36 0 60 -3q-4 24 -4 59v137q0 38 4 52q-25 -4 -50 -4h-123q-37 0 -59 9q4 -13 4 -61v-141q0 -14 -3 -43q-1 -5 -1 -8z
M617 552v113h99v-113h-99z" />
</svg>
