<?xml version="1.0" standalone="no"?>
<!DOCTYPE svg PUBLIC "-//W3C//DTD SVG 1.1//EN" "http://www.w3.org/Graphics/SVG/1.1/DTD/svg11.dtd" >
<svg xmlns="http://www.w3.org/2000/svg" xmlns:xlink="http://www.w3.org/1999/xlink" version="1.1" viewBox="-10 0 1034 1024">
  <g transform="matrix(1 0 0 -1 0 820)">
   <path fill="currentColor"
d="M103 265q19 25 56 70q6 6 12 13l-1 -372q0 -3 -4 -33h47q-6 51 -5 81h144q0 -27 -5 -73h49q-3 15 -4 29q0 21 -2 41v304q0 7 3 30l3 34q-55 -4 -85 -5h-119q21 34 43 83q21 51 48 133q99 0 116 -2q12 0 25 -4v47q-9 0 -12 -2q-24 0 -55 -3l-240 1l-40 4v-47q18 6 61 6
h104q-18 -63 -36 -107q-19 -40 -48 -88q-63 -96 -123 -135q24 -7 52 -22q7 9 16 17zM208 62v286h144v-286h-144zM354 -145q4 -1 10 -5q7 -3 13 -9q99 96 154 205q30 -49 72 -98q54 -58 145 -77q55 -9 141 -10l82 2l3 16q3 10 4 19q3 6 7 17q-21 -6 -35 -7q-72 -6 -114 -6
l-86 9q-19 4 -36 10v235l158 -1q24 0 40 -5v47q-30 -4 -66 -5h-132v176q162 0 178 -3q3 1 17 -1q1 0 7 -2v47q-4 0 -7 -1l-80 -4l-312 1q-6 1 -21 2q-3 0 -13 2v-47q1 0 3 2q-1 0 11 2q25 1 53 2h126v-428q-40 24 -80 78q-42 63 -46 87q0 3 1 4q0 6 3 23q9 49 13 59
q7 30 22 41q-21 1 -37 7q-1 0 -24 5q-9 -154 -61 -237q-60 -97 -139 -136q18 -12 26 -16zM459 617q1 -31 5 -65l-5 -83h48l-4 42l-1 65h389l-3 -89q-1 -3 -2 -9h49q-6 60 -6 83l4 34q0 12 2 22q-19 -1 -36 -3q-24 -3 -31 -3l-361 1q-24 4 -48 5zM658 751l-13 13
q-16 -16 -33 -29q58 -58 75 -79q12 -15 32 -38l32 30q-34 37 -54 60z" />
  </g>

</svg>
