<?xml version="1.0" standalone="no"?>
<!DOCTYPE svg PUBLIC "-//W3C//DTD SVG 1.1//EN" "http://www.w3.org/Graphics/SVG/1.1/DTD/svg11.dtd" >
<svg xmlns="http://www.w3.org/2000/svg" xmlns:xlink="http://www.w3.org/1999/xlink" version="1.1" viewBox="-10 0 1010 1000">
   <path fill="currentColor"
d="M611 -8q65 10 93 20q-26 32 -45 92h137q88 1 121 -8q0 3 -1 9q-7 40 -7 66v242q1 61 10 91q-36 -7 -121 -10h-40v133h61q101 0 131 -8v86q-27 -7 -135 -8h-57v61q0 57 8 145h-91q9 -41 8 -133v-73h-173q-76 1 -123 8v-88q19 7 67 8q46 -37 108 -131h-22q-80 1 -113 8
q9 -45 10 -95v-226q-1 -46 -10 -85q32 9 117 8h49q12 -54 18 -112zM62 76q67 8 121 8h89q54 -1 107 -8v85q-41 -5 -105 -6h-16q-19 91 -52 177h60q60 -1 103 -8q-7 32 -8 99v181q-1 101 8 148h-79q8 -28 8 -75h-98q1 71 8 133h-91q12 -55 18 -153v-210l-60 77
q-18 -49 -43 -79q106 -73 153 -292h-12q-80 2 -111 8v-85zM298 391h-100v226h100v-226zM837 328h-145q-2 7 -5 21q-16 61 -26 86h176v-107zM641 163h-133v105h123q0 -4 2 -13q5 -31 8 -92zM837 163h-119q-11 72 -16 105h135v-105zM683 494h-46q-56 89 -103 135h149v-135z
M621 328h-113v107h79q2 -5 5 -14q14 -31 29 -93z" />
</svg>
