<?xml version="1.0" standalone="no"?>
<!DOCTYPE svg PUBLIC "-//W3C//DTD SVG 1.1//EN" "http://www.w3.org/Graphics/SVG/1.1/DTD/svg11.dtd" >
<svg xmlns="http://www.w3.org/2000/svg" xmlns:xlink="http://www.w3.org/1999/xlink" version="1.1" viewBox="-10 0 1010 1000">
   <path fill="currentColor"
d="M464 14q42 3 96 4h234q65 -1 95 -4q-6 48 -6 82v166q0 48 4 82q-12 -2 -33 -3q-17 -1 -64 -1h-228q-46 0 -63 1q-22 1 -35 3q4 -39 4 -92v-152q0 -57 -4 -86zM540 78v79h270v-79h-270zM812 209h-272v71h272v-71zM323 365h-109v229h109v-229zM456 391q85 6 141 6h165
q123 0 167 -4v76q-24 -6 -76 -6h-20v73h20q68 0 93 -4v72q-11 -2 -33 -3q-11 -1 -25 -1h-41h-14v194q3 48 -29 65q-32 19 -129 26q-9 -55 -34 -97q83 11 102 2q21 -5 19 -46v-144h-191q-81 1 -138 4v-74q44 3 142 6h187v-75h-171q-78 1 -135 4v-74zM569 613q50 81 70 133
l-79 28q-27 -77 -62 -137zM69 54q30 3 78 4h198q42 -1 78 -4v73q-19 -5 -80 -4h-69l-16 56q-13 45 -16 56q-1 2 -14 31q-20 43 -16 36h98q58 0 91 -6q-7 31 -6 79v282q0 42 4 72h-80q7 -27 6 -72h-113q0 54 1 80q1 29 3 53h-77q4 -48 4 -125v-182v-62q-24 51 -66 99
q-8 -42 -41 -75q129 -138 168 -322h-57q-58 -1 -78 4v-73z" />
</svg>
