<?xml version="1.0" standalone="no"?>
<!DOCTYPE svg PUBLIC "-//W3C//DTD SVG 1.1//EN" "http://www.w3.org/Graphics/SVG/1.1/DTD/svg11.dtd" >
<svg xmlns="http://www.w3.org/2000/svg" xmlns:xlink="http://www.w3.org/1999/xlink" version="1.1" viewBox="-10 0 1010 1000">
   <path fill="currentColor"
d="M750 -6q83 0 93 10q1 3 -4 11q-17 27 -16 63v55q70 -1 112 -8v80q-39 -7 -112 -8v85q2 63 6 80q-17 -4 -91 -4h-71q-50 0 -84 4q0 -5 1 -16q3 -46 3 -66v-83h-85v214h228q110 -1 161 -10v82q-49 -7 -151 -8h-59v75h87q110 -1 153 -8v75q-35 -4 -143 -5h-40
q96 128 216 170q-10 8 -24 20q-29 21 -43 48q-142 -103 -204 -233v133q1 70 7 149h-87q8 -57 8 -147v-131q-74 145 -222 258q-30 -38 -83 -55q123 -37 254 -214h-42q-102 2 -129 7v-77q28 11 115 10h14h91v-75h-85q-66 1 -101 8q8 -29 8 -82v-202q-46 1 -70 8v-80q23 6 68 8
q0 -68 -10 -105h16q81 -1 83 8q1 3 -2 12q-14 32 -14 83h85q0 -82 -4 -135q87 0 94 10q1 1 -4 12q-18 36 -18 66v47h99v-20q1 -65 -4 -119zM343 76v83q-32 -8 -107 -8q-3 10 -8 28q-24 97 -51 161h71q77 -1 103 -8q-8 19 -8 87v208q0 97 6 143h-73q4 -10 4 -53h-105
q0 52 4 97h-78q7 -46 8 -133v-224l-3 3q-25 34 -58 82q-4 -44 -30 -97q112 -99 145 -294q-92 1 -119 8v-83q24 4 63 7q35 2 52 1h71q70 -1 113 -8zM655 197v97h101v-97h-101zM280 399h-107v258h107v-258z" />
</svg>
