<?xml version="1.0" standalone="no"?>
<!DOCTYPE svg PUBLIC "-//W3C//DTD SVG 1.1//EN" "http://www.w3.org/Graphics/SVG/1.1/DTD/svg11.dtd" >
<svg xmlns="http://www.w3.org/2000/svg" xmlns:xlink="http://www.w3.org/1999/xlink" version="1.1" viewBox="-10 0 1010 1000">
   <path fill="currentColor"
d="M542 -8q89 3 89 10q0 5 -7 18q-13 23 -13 38v85h74q3 -83 -6 -143q84 1 91 10q0 5 -7 16q-15 22 -15 40v77h58q58 0 91 -8q-6 39 -6 90v341q35 1 59 -8v85q-24 -5 -43 -7q-15 -1 -46 -1h-401q-34 0 -83 6q-16 2 -20 2v-83q24 6 44 6v-335q-1 -71 -6 -98q22 5 107 8h44
q0 -103 -4 -149zM56 92q34 9 133 8h15q132 0 173 -8v85q-35 -7 -121 -6q-24 85 -64 163h54q68 -2 97 -8q-6 19 -6 83v246q0 54 6 97q2 11 2 14h-83q6 -16 6 -75h-87q0 115 6 137h-84q0 -5 2 -18q6 -45 6 -101v-238q-19 32 -46 65q-12 -42 -43 -77q118 -112 161 -288
q-82 0 -127 8v-87zM470 203v145h76v-145h-76zM609 203v145h76v-145h-76zM748 203v145h75v-145h-75zM181 401v228h87v-228h-87zM685 403h-76v163h76v-163zM546 403h-76v163h76v-163zM748 403v163h75v-163h-75zM524 659q77 42 85 64q-1 3 -16 12q-33 11 -210 170
q-30 -38 -70 -61q133 -69 211 -185zM742 669q108 76 198 159l-73 65q-77 -87 -188 -170z" />
</svg>
