<?xml version="1.0" standalone="no"?>
<!DOCTYPE svg PUBLIC "-//W3C//DTD SVG 1.1//EN" "http://www.w3.org/Graphics/SVG/1.1/DTD/svg11.dtd" >
<svg xmlns="http://www.w3.org/2000/svg" xmlns:xlink="http://www.w3.org/1999/xlink" version="1.1" viewBox="-10 0 1034 1024">
  <g transform="matrix(1 0 0 -1 0 820)">
   <path fill="currentColor"
d="M87 228q7 0 14 -4q9 12 39 60q10 21 32 50l-4 -460q0 -3 -1 -7h47q-4 24 -5 65v44h131l-4 -99q-1 0 -1 -3h48q-4 49 -5 70l1 365l4 46q-109 -4 -113 -5h-89q58 106 92 247h72q27 0 51 -3l15 -2v46q-4 0 -8 -1q-4 0 -8 -1q-19 0 -50 -3l-242 1q-6 1 -21 2q-4 0 -13 2v-46
q1 0 3 1q-1 0 11 2l149 2q-7 -45 -36 -123q-27 -69 -57 -120q-51 -82 -97 -114q9 0 41 -10q1 0 4 -2zM209 8v306h131v-306h-131zM487 344l-62 4q-3 0 -5 1v-46q6 0 13 3q28 0 54 2l458 -1q7 0 16 -2q1 0 14 -2v46q-4 0 -7 -1l-111 -4h-105l65 111q36 61 65 70q-36 18 -57 36
q-3 -4 -4 -11q-16 -42 -38 -82q-27 -49 -46 -80q-15 -25 -29 -44h-221zM447 575q15 3 40 4l376 1q24 0 65 -5v46q-27 -4 -65 -5l-376 1l-40 4v-46zM503 209q1 -33 5 -66l-3 -294q0 -6 -2 -16h48q-6 39 -6 67v16h306l-4 -68q0 -3 -1 -7h48l-4 41l-1 261q1 33 5 66
q-66 -6 -102 -6l-240 1q-39 4 -49 5zM545 -48v216h306v-216h-306zM639 408l-43 66q-28 43 -44 66q-18 -15 -34 -23q43 -48 86 -133q9 6 14 12q4 1 10 6q4 3 11 6zM675 715q-15 18 -51 53q-6 -10 -31 -27q57 -55 106 -116q18 21 31 29z" />
  </g>

</svg>
