<?xml version="1.0" standalone="no"?>
<!DOCTYPE svg PUBLIC "-//W3C//DTD SVG 1.1//EN" "http://www.w3.org/Graphics/SVG/1.1/DTD/svg11.dtd" >
<svg xmlns="http://www.w3.org/2000/svg" xmlns:xlink="http://www.w3.org/1999/xlink" version="1.1" viewBox="-10 0 1034 1024">
  <g transform="matrix(1 0 0 -1 0 820)">
   <path fill="currentColor"
d="M66 275q12 -3 34 -14q12 21 58 81l-1 -351q-3 -25 -2 -26q0 -6 -2 -16h47q0 7 -2 16q-3 54 -3 107h126q0 -43 -4 -65h48q-3 15 -4 28l-2 92l1 250q1 24 5 47q-66 -4 -102 -5h-64q45 94 60 205l114 -3q3 0 10 -3v47l-100 -5l-161 1q-9 1 -27 2q-3 0 -12 2v-47q3 3 54 6h83
q-6 -52 -21 -99q-27 -91 -86 -175q-27 -39 -67 -68q9 -3 20 -7zM195 108v275h126v-275h-126zM657 234q1 -19 2 -32q0 -25 -9 -95q-7 -69 -42 -113q-36 -45 -106 -78q-60 -25 -131 -36q21 -21 24 -27q6 -9 12 -20q96 36 141 61t82 63q46 51 60 150q4 31 9 64q0 6 2 13
q3 25 16 44zM659 427h-190l-54 2q-3 0 -13 3v-46q15 3 39 4l461 1q31 -1 65 -5v46q-4 0 -7 -1q-3 0 -58 -4h-205v83h147q27 0 51 -3q3 0 15 -2v46q-30 -4 -66 -5h-147v81h175q25 0 50 -3q1 0 14 -2v47q-4 0 -9 -2l-67 -4h-163v42q0 12 3 28q3 18 18 36h-66l6 -34l1 -72h-159
q-30 0 -55 3q-3 0 -13 3v-47q6 0 13 3l108 2h106v-81l-176 2q-4 1 -5 1q-3 0 -12 2v-46q15 3 36 4l157 1v-83zM485 62q-1 -27 -3 -54q0 -6 -2 -15h47q0 9 -2 15q-1 27 -3 54v213h316v-203l-2 -54l-3 -15h48q-6 51 -5 81q0 180 2 192q0 19 3 40q-34 -1 -69 -5l-281 1
q-15 3 -51 4l5 -66v-188zM689 -23q76 -42 136 -79q54 -33 100 -69l27 40q-33 18 -79 47l-124 77l-35 21q-13 -18 -25 -37v0z" />
  </g>

</svg>
