<?xml version="1.0" standalone="no"?>
<!DOCTYPE svg PUBLIC "-//W3C//DTD SVG 1.1//EN" "http://www.w3.org/Graphics/SVG/1.1/DTD/svg11.dtd" >
<svg xmlns="http://www.w3.org/2000/svg" xmlns:xlink="http://www.w3.org/1999/xlink" version="1.1" viewBox="-10 0 1010 1000">
   <path fill="currentColor"
d="M621 -15q99 3 97 11q0 1 -2 4q-12 22 -12 54v20h88q95 -1 135 -6v77q-13 -4 -42 -5q-13 -1 -33 -1h-54h-94v64h50q99 -1 151 -6v77q-19 -7 -137 -6h-66v64h82q117 0 168 -6v77q-28 -6 -164 -6h-238q-64 0 -94 1q-34 2 -51 5v-77q43 5 141 6h81v-64h-46q-92 -1 -123 6v-77
q27 6 117 6h52v-64h-62q-101 0 -125 6v-77q45 6 120 6h65v-20q0 -33 -1 -44q0 -14 -3 -25zM48 68q22 5 127 8h97q78 1 107 -6v87q-24 -7 -109 -6h-18q-18 93 -48 167h40q93 -3 123 -6q-4 19 -5 48q-1 13 -1 32v47v169q0 56 1 80q1 29 5 49h-85q3 -18 6 -48h-94v20
q-1 75 4 91h-87q8 -48 8 -133v-214q-9 11 -35 49q-16 25 -24 36q-10 -32 -44 -85q122 -103 161 -302h-14q-89 0 -115 8v-91zM194 385v236h92v-236h-92zM431 443q55 3 119 4h220q86 0 123 -6q-5 38 -6 101v60v20q-1 79 6 97h-93q7 -36 8 -100v-105h-292v86v27q-1 77 4 92h-89
q5 -36 6 -113v-66q0 -61 -6 -97zM625 550q87 15 93 22q-1 3 -6 12q-15 26 -20 55q-20 202 -315 270q-11 -33 -62 -77q167 -15 241 -82q68 -61 69 -200zM704 711q179 83 246 125l-65 75q-88 -78 -230 -141z" />
</svg>
