<?xml version="1.0" standalone="no"?>
<!DOCTYPE svg PUBLIC "-//W3C//DTD SVG 1.1//EN" "http://www.w3.org/Graphics/SVG/1.1/DTD/svg11.dtd" >
<svg xmlns="http://www.w3.org/2000/svg" xmlns:xlink="http://www.w3.org/1999/xlink" version="1.1" viewBox="-10 0 1034 1024">
  <g transform="matrix(1 0 0 -1 0 820)">
   <path fill="currentColor"
d="M328 -122l50 -36q33 19 77 56q63 55 111 103q34 36 71 46q-34 21 -58 42q-37 -64 -126 -141q-66 -51 -125 -70zM460 172q-28 1 -57 3q-6 1 -17 2v-46q3 1 59 5q504 0 518 -3q7 0 21 -2v46l-43 -4l-38 -1l1 394l4 50q-55 -6 -74 -7h-71v81q0 15 3 34q1 19 8 36h-53
q4 -42 5 -70v-81h-90q0 111 3 120q1 13 9 30h-54q1 -34 5 -70v-80q-78 0 -105 2q-19 3 -39 5q1 -33 5 -68v-376zM599 399h-102v176h102v-176zM497 172v191h102v-191h-102zM636 172v191h90v-191h-90zM636 399v176h90v-176h-90zM763 172v191h102v-191h-102zM763 399v176h102
v-176h-102zM945 -135q3 4 20 21q-39 42 -100 101q-60 57 -105 96q-15 -19 -31 -32l120 -109q36 -36 83 -89q6 6 13 12zM157 12q-1 -24 -2 -49q0 -7 -3 -18h47q-6 51 -5 85v15h135v-16q-1 -7 -6 -66h50q-6 66 -6 87l1 306q1 27 5 53q-66 -4 -101 -5h-91q30 57 43 88
q18 42 47 122q120 0 129 -3q6 0 12 -2v48q-4 0 -41 -6h-259q-30 4 -35 6v-48q42 6 69 5h83q-42 -124 -92 -206q-51 -81 -100 -113q30 -12 51 -25q37 46 69 97v-355zM194 80v288h135v-288h-135z" />
  </g>

</svg>
