<?xml version="1.0" standalone="no"?>
<!DOCTYPE svg PUBLIC "-//W3C//DTD SVG 1.1//EN" "http://www.w3.org/Graphics/SVG/1.1/DTD/svg11.dtd" >
<svg xmlns="http://www.w3.org/2000/svg" xmlns:xlink="http://www.w3.org/1999/xlink" version="1.1" viewBox="-10 0 1034 1024">
  <g transform="matrix(1 0 0 -1 0 820)">
   <path fill="currentColor"
d="M659 -92q-3 -48 -5 -57q0 -4 -1 -9h46q-6 42 -6 66v257q36 -63 83 -114q73 -72 172 -123q15 21 42 43q-57 7 -128 58q-76 54 -133 145l215 -3q4 0 15 -2v46q-33 -1 -68 -5h-198v101l192 -1l39 -4v46q-33 -1 -67 -5h-345v226h112q0 -70 -2 -101q-3 -6 -3 -40q49 4 73 5
q91 0 106 -2q15 0 39 -3q-4 57 -5 112v29h46q24 0 49 -3l19 -2v46l-39 -4l-75 -1v94q0 12 3 30q1 19 9 39h-52l4 -39l1 -124h-137v94q0 34 12 69h-53q0 -10 3 -23l2 -140h-112v67q0 30 12 70h-52q0 -9 2 -14l3 -114v-9q-42 0 -69 5v-46q15 3 69 5l-1 -218q-3 -15 -4 -49
q57 4 86 5h101v-101h-190q-33 0 -64 5v-46q51 4 96 5h129q-39 -67 -116 -137q-85 -75 -155 -95q30 -19 46 -36q159 105 254 243v-241zM660 473v100h137v-100h-137zM51 240l33 -13q40 52 82 123v-352q-1 -24 -2 -49q-3 -6 -4 -17h48q-1 6 -6 66v54h130q0 -37 -5 -78
q-1 -1 -1 -4h50q-4 27 -5 66l1 308l4 48q-66 -4 -99 -5h-88q25 55 44 104q15 48 35 119q87 0 100 -3q6 0 10 -2v47q-13 -3 -31 -4q-9 0 -36 -2l-211 1q-16 3 -34 5v-47q34 4 63 5h98q-15 -87 -67 -194q-64 -126 -128 -168q9 -3 19 -8zM202 88v263h130v-263h-130z" />
  </g>

</svg>
