<?xml version="1.0" standalone="no"?>
<!DOCTYPE svg PUBLIC "-//W3C//DTD SVG 1.1//EN" "http://www.w3.org/Graphics/SVG/1.1/DTD/svg11.dtd" >
<svg xmlns="http://www.w3.org/2000/svg" xmlns:xlink="http://www.w3.org/1999/xlink" version="1.1" viewBox="-10 0 1034 1024">
  <g transform="matrix(1 0 0 -1 0 820)">
   <path fill="currentColor"
d="M43 274q7 -1 15 -5q30 -18 34 -18q15 24 26 36q6 10 15 18q9 15 34 48l-3 -414q-1 -6 -3 -14h48q-6 69 -6 94v4h121v-15q0 -49 -4 -70h50q-1 9 -7 62l1 366q0 15 5 50q-33 -1 -67 -5h-100q4 12 10 23q24 54 34 89q12 40 27 101q96 0 112 -4q3 0 8 -1v46q-18 0 -67 -5
l-221 1q-19 3 -19 2q-3 0 -13 2v-46q15 3 39 4l117 1q-18 -148 -118 -278q-36 -45 -77 -69zM203 59v316h122v-316h-122zM731 43q-19 15 -55 36q-28 18 -49 32q-6 -13 -22 -30q27 -12 58 -33q27 -16 48 -34l8 11q3 6 8 11q1 4 4 7zM616 262q21 -9 68 -38q36 -24 44 -31l2 3
q1 1 3 5q7 10 16 19q-16 12 -41 27q-27 18 -72 44q-3 -6 -6 -9q-6 -7 -14 -20zM501 285l-5 -117q-79 3 -91 5v-42q4 1 59 6l30 -1l-10 -121q-3 -30 -11 -64q33 3 67 5h293q-1 -37 -11 -51q-16 -19 -75 -20q-22 0 -54 5q7 -12 11 -20l10 -30q55 6 74 10q52 10 69 37
q6 12 10 37q1 12 3 32q54 0 78 -4q1 0 6 -1v42q-3 0 -7 -1q-31 -3 -77 -4l9 149q42 0 89 -4q4 0 11 -2v42q-33 -1 -65 -5h-33l6 110q0 22 8 61q-33 -1 -68 -5l-283 1q-19 3 -47 4q1 -27 4 -54zM517 -12l11 148h316l-10 -148h-317zM529 168l6 134h318l-8 -134h-316zM647 442
l-205 1q-12 0 -30 4v-42q10 3 53 6l443 -1q10 0 25 -3l15 -2v42l-41 -4l-222 -1v80l156 -1q6 0 40 -4v42q-10 0 -22 -3l-96 -2h-78v77l240 -3q1 0 11 -2v42q-10 0 -15 -2q-19 0 -49 -3h-187l1 62q3 27 17 41h-61q4 -99 5 -103l-209 5v-42q1 0 3 1q-1 0 11 2q27 0 53 2h142
v-77q-124 0 -156 2q-9 3 -19 3v-42q6 0 13 3l105 2h57v-80z" />
  </g>

</svg>
