<?xml version="1.0" standalone="no"?>
<!DOCTYPE svg PUBLIC "-//W3C//DTD SVG 1.1//EN" "http://www.w3.org/Graphics/SVG/1.1/DTD/svg11.dtd" >
<svg xmlns="http://www.w3.org/2000/svg" xmlns:xlink="http://www.w3.org/1999/xlink" version="1.1" viewBox="-10 0 1010 1000">
   <path fill="currentColor"
d="M623 -19q91 4 97 11q1 2 -4 7q-16 17 -16 45v30h72q89 0 157 -8v83q-28 -8 -147 -8h-82v50h70q87 0 123 -6v73q-30 -6 -123 -6h-70v52h106q91 0 150 -8v79q-20 -2 -52 -3q-16 -1 -37 -1h-57h-260q-118 0 -169 6v-83q51 9 167 10h81v-50h-48q-95 0 -137 6v-73q42 6 139 6
h46v-52h-64q-109 0 -144 8v-83q56 8 142 8h66q0 -61 -6 -93zM387 78v83q-53 -9 -133 -6q-15 70 -56 169h68q58 0 97 -6q-11 27 -10 151v154q-1 139 10 149h-91q8 -35 8 -63h-80q-3 66 6 117h-87q10 -54 10 -147v-224q-12 17 -33 50q-22 32 -31 45q-8 -23 -42 -72
q-3 -5 -5 -7q118 -117 163 -318q-89 -3 -129 6v-83q44 8 117 8h89q93 0 129 -6zM280 387h-80v258h80v-258zM460 415q45 6 155 6h125q117 0 147 -6q-8 24 -8 79l-2 70q54 0 83 -6v81q-26 -8 -85 -8l-4 86q45 0 71 -6v73q-11 -5 -71 -4q0 74 -12 89q-27 35 -151 48
q-7 -55 -45 -89q14 1 36 3q59 6 71 -3q22 -10 26 -48h-233q-98 0 -130 6q0 -2 3 -18q5 -31 8 -55l8 -78q-44 0 -77 6v-81q30 6 81 6l6 -74q3 -39 -1 -69q-1 -6 -1 -8zM806 485h-278l-6 81h129q-18 -37 -48 -62l72 -12q12 19 27 50l12 24h90zM518 633l-6 84h119
q-12 -39 -34 -64l74 -10q9 21 24 54q6 14 9 20h94l4 -84h-284z" />
</svg>
