<?xml version="1.0" standalone="no"?>
<!DOCTYPE svg PUBLIC "-//W3C//DTD SVG 1.1//EN" "http://www.w3.org/Graphics/SVG/1.1/DTD/svg11.dtd" >
<svg xmlns="http://www.w3.org/2000/svg" xmlns:xlink="http://www.w3.org/1999/xlink" version="1.1" viewBox="-10 0 1010 1000">
   <path fill="currentColor"
d="M748 12q9 2 28 5q74 11 71 19q0 1 -8 9q-23 21 -29 35q-8 17 -20 46q-11 29 -18 43h51q88 -1 129 -10l2 85q-41 -7 -142 -7h-34v561h26q109 0 164 -8v87q-38 -4 -85 -7q-43 -2 -70 -1h-277q-100 1 -143 8v-87q62 8 135 8h32v-561q-115 2 -149 7v-85q33 9 147 10h142
q27 -72 48 -157zM573 18q36 56 64 115l-77 26q-27 -62 -64 -115zM42 112q68 8 117 9h121q62 -1 113 -9v89q-32 -7 -103 -8h-24q-27 90 -58 167h96q43 -3 73 -8q-8 28 -10 81v240q1 67 10 111h-85q5 -18 6 -63h-100q1 79 8 131h-87q9 -48 10 -131v-207q-11 11 -32 44
q-17 27 -30 46q-13 -39 -34 -72q-6 -10 -9 -16q117 -110 163 -323h-32q-88 1 -113 8v-89zM631 237v561h75v-561h-75zM472 330q37 180 56 359l-78 6q-19 -242 -51 -355zM855 330q63 5 93 24q-6 -43 -83 349q-32 -16 -75 -16q61 -208 65 -357zM300 423h-104v234h104v-234z" />
</svg>
