<?xml version="1.0" standalone="no"?>
<!DOCTYPE svg PUBLIC "-//W3C//DTD SVG 1.1//EN" "http://www.w3.org/Graphics/SVG/1.1/DTD/svg11.dtd" >
<svg xmlns="http://www.w3.org/2000/svg" xmlns:xlink="http://www.w3.org/1999/xlink" version="1.1" viewBox="-10 0 1034 1024">
  <g transform="matrix(1 0 0 -1 0 820)">
   <path fill="currentColor"
d="M180 375l-5 -456h47q-6 55 -5 87v14h122q-4 -69 -5 -78h48q-4 49 -5 73l1 340l4 49q-66 -6 -101 -6h-90q7 13 14 29q9 18 23 54q15 34 24 60q9 27 26 83q108 0 119 -3q4 0 17 -3v48q-4 0 -8 -1q-4 0 -8 -1q-36 0 -72 -3l-212 5v-48q1 0 3 2q-1 0 11 2l106 2
q-7 -72 -80 -211q-34 -63 -57 -91q-24 -27 -62 -54q39 -7 64 -24l43 65q15 30 38 66zM217 56v305h122v-305h-122zM490 350q4 3 13 12l58 70q58 73 102 147l-3 -207q-1 -4 -1 -10q-1 -3 -2 -7h49q0 6 -1 10q0 -1 -1 10q-3 54 -3 100v94q33 -43 64 -80q66 -72 128 -116
q34 -21 43 -30q10 13 43 42q-36 10 -60 23q-54 33 -111 92q-57 61 -81 101l177 -1q18 0 36 -5v48q-10 0 -21 -3l-102 -2h-116q0 117 3 119q1 13 14 28h-60q1 -33 5 -67v-80l-179 1q-27 4 -29 5v-49q1 0 3 2q4 0 10 2q30 0 54 2h109q-15 -36 -87 -132q-66 -87 -146 -128
q24 -9 49 -33q6 4 10 10q16 16 33 32zM418 -124q12 6 36 6l444 1q27 0 55 -3q4 0 11 -4v49q-15 0 -66 -5l-433 1q-12 1 -35 2q-3 0 -12 3v-50zM501 71l-4 -49q0 -4 -2 -23q19 1 34 4q24 3 33 3l264 -1q1 0 50 -6q-3 36 -5 71l1 207l4 46q-33 -1 -67 -5l-266 1q-15 3 -48 4
l6 -63v-189zM538 45v100h294v-100h-294zM833 182h-295v99h295v-99z" />
  </g>

</svg>
