<?xml version="1.0" standalone="no"?>
<!DOCTYPE svg PUBLIC "-//W3C//DTD SVG 1.1//EN" "http://www.w3.org/Graphics/SVG/1.1/DTD/svg11.dtd" >
<svg xmlns="http://www.w3.org/2000/svg" xmlns:xlink="http://www.w3.org/1999/xlink" version="1.1" viewBox="-10 0 1010 1000">
   <path fill="currentColor"
d="M909 24v80q-3 0 -13 -1q-54 -7 -158 -7h-290q-50 56 -77 83h333q63 0 100 -8q-7 35 -8 87v52q0 50 8 79q-49 -7 -96 -8h-327q-57 0 -95 8q5 -14 7 -64q1 -12 1 -19v-52q-44 45 -65 59q-30 24 -64 52q-26 -26 -80 -55q135 -49 278 -214h-69q-114 1 -175 8v-80q56 7 167 8
h452q120 -1 171 -8zM361 238v84h367v-84h-367zM62 443q63 9 126 10h167q73 0 123 -10v69q-45 -8 -125 -8h-49q-42 59 -66 98h133q27 0 81 -4q-6 47 -6 73v111q1 58 10 105h-81q8 -24 8 -69h-155q0 54 4 77h-79q9 -55 10 -123v-77q-4 1 -27 28q-32 38 -55 61q-19 -32 -53 -65
q113 -67 200 -215h-43q-77 1 -123 8v-69zM520 441q43 8 127 10h149q78 -2 154 -12v71q-41 -7 -154 -8h-74q-45 77 -57 104h147q64 0 87 -4q-5 27 -6 73v119q1 74 10 103h-78q4 -18 4 -77h-176q0 52 4 79h-78q7 -37 8 -101v-97q-12 11 -35 36q-22 24 -40 43q-6 -10 -40 -43
q-13 -12 -20 -18q109 -42 195 -217q-48 -2 -127 8v-69zM383 653h-157v113h157v-113zM829 657h-178v111h178v-111z" />
</svg>
