<?xml version="1.0" standalone="no"?>
<!DOCTYPE svg PUBLIC "-//W3C//DTD SVG 1.1//EN" "http://www.w3.org/Graphics/SVG/1.1/DTD/svg11.dtd" >
<svg xmlns="http://www.w3.org/2000/svg" xmlns:xlink="http://www.w3.org/1999/xlink" version="1.1" viewBox="-10 0 1034 1024">
  <g transform="matrix(1 0 0 -1 0 820)">
   <path fill="currentColor"
d="M290 571q15 -10 49 -41q6 -6 13 -12q12 18 16 21q4 4 9 8q-6 6 -47 42l-32 24q-9 -15 -19 -23q-3 -3 -6 -5zM187 484l-91 1q-16 3 -33 5v-47q37 6 78 5h43q-3 -52 -17 -93q-27 -64 -81 -99q24 -13 49 -27q78 97 88 219h217v-113q0 -24 -20 -30q-19 -3 -38 -4q-18 0 -41 4
q7 -25 13 -49q13 0 29 3q43 3 64 13q30 15 31 57l1 310q0 3 5 43q-55 -4 -76 -5h-99q3 9 6 17q15 40 41 58q-33 10 -58 20q-13 -51 -30 -95q-42 3 -86 5q1 -30 5 -61v-137zM224 484v157h216v-157h-216zM269 398q24 -15 42 -31q9 -7 20 -15l24 -21q6 12 19 25q3 3 5 6
q-15 15 -85 67q-13 -18 -25 -31zM606 495l-62 5v-46q21 3 45 4q30 -42 51 -65q18 -21 40 -41q-87 -66 -193 -82q21 -16 37 -39q90 30 191 99q93 -60 213 -83q10 18 35 48q-90 7 -142 25q-39 15 -75 35q72 72 113 145q-72 -4 -112 -5h-141zM792 462q-36 -48 -80 -86
q-46 39 -78 86h158zM780 678v-76q0 -40 27 -54q16 -7 57 -8q37 0 77 6q1 18 3 32q0 7 2 15q-46 -12 -84 -13q-28 0 -37 8q-7 7 -8 32q0 48 2 58l4 41q-34 -1 -69 -5q-108 0 -132 2q-6 3 -38 3q3 -27 4 -50q0 -54 -19 -81t-60 -49q30 -12 47 -25q31 30 50 62q16 30 22 102
h152zM360 168q-61 -69 -169 -135q-78 -42 -139 -57q18 -13 20 -16q9 -9 25 -22q88 42 176 102v-150q-1 -24 -2 -49q0 -7 -4 -19h48q-3 24 -4 40q0 15 -1 25h483q-3 -15 -3 -41q0 -3 -3 -16h49q-1 6 -1 10q0 1 -4 54l1 137l4 50q-36 -1 -72 -5h-445q49 42 98 92l514 -4
q4 0 12 -2v47q-12 0 -25 -3l-42 -3l-721 1q-4 1 -7 1q-1 0 -42 4v-47q6 3 22 4q19 1 41 2h191zM310 -77v117h483v-117h-483z" />
  </g>

</svg>
