<?xml version="1.0" standalone="no"?>
<!DOCTYPE svg PUBLIC "-//W3C//DTD SVG 1.1//EN" "http://www.w3.org/Graphics/SVG/1.1/DTD/svg11.dtd" >
<svg xmlns="http://www.w3.org/2000/svg" xmlns:xlink="http://www.w3.org/1999/xlink" version="1.1" viewBox="-10 0 1010 1000">
   <path fill="currentColor"
d="M694 -15q9 47 22 103l4 16h50q121 0 159 -12v83q-41 -8 -147 -8h-215q-67 0 -97 2q-34 1 -49 6v-79q21 5 135 8h77q-1 -24 -40 -102zM48 60q22 6 111 6h125q96 0 117 -6v87q-43 -12 -117 -6h-14q-3 4 -22 63q-23 70 -36 104h42q77 -1 111 -6q-4 14 -6 45q-1 30 0 58v288
q86 -28 218 -175q-65 3 -131 12q-12 -48 -25 -81q2 -1 8 -2q28 -4 63 -30q60 -42 133 -149q8 5 23 14q57 32 52 36q-1 4 -14 11q-16 9 -25 17q-30 28 -64 62q-29 28 -51 49l202 -12q-8 -8 -24 -23q-19 -18 -30 -29l60 -37q60 49 141 138l-70 48q-4 -5 -14 -19
q-9 -14 -15 -21l-98 6q30 101 54 135q50 -41 99 -91q53 53 56 61q0 4 -11 8q-16 6 -27 14q-6 4 -18 13q-48 34 -67 47q52 62 164 103q-39 32 -71 83q-199 -132 -238 -353q-35 56 -44 68v182q15 -7 76 -65q5 32 17 81q-107 70 -162 117l-42 -71q38 -24 38 -60v-111
q-20 18 -49 42q-44 38 -62 57q-6 -16 -52 -55q-1 45 6 61h-89q8 -22 8 -79h-88q-1 86 6 105h-85q7 -27 6 -103v-18v-210q-36 64 -60 109q-9 -31 -45 -90q122 -120 169 -347h-24q-87 0 -115 6v-87zM540 191q73 39 73 49q-1 3 -16 8q-21 7 -28 14q-24 25 -86 76q-27 23 -39 33
q-11 -12 -71 -45q109 -64 167 -135zM762 191q98 63 165 113l-64 63q-83 -88 -157 -134zM286 371h-90v260h90v-260z" />
</svg>
