<?xml version="1.0" standalone="no"?>
<!DOCTYPE svg PUBLIC "-//W3C//DTD SVG 1.1//EN" "http://www.w3.org/Graphics/SVG/1.1/DTD/svg11.dtd" >
<svg xmlns="http://www.w3.org/2000/svg" xmlns:xlink="http://www.w3.org/1999/xlink" version="1.1" viewBox="-10 0 1010 1000">
   <path fill="currentColor"
d="M470 -6q103 30 93 38q0 3 -7 8q-11 9 -16 18q-7 12 -18 30q-20 31 -18 33h58q22 0 60 -3q10 -1 15 -1q-27 272 -189 407q-17 -22 -75 -51q71 -44 117 -100q-23 -30 -73 -79q5 -4 18 -15q21 -19 35 -31q5 7 14 21q23 35 36 53q27 -53 42 -145h-88q-27 45 -75 119l-16 24
q-15 -12 -70 -42q110 -91 157 -284zM752 4q10 0 28 1q69 2 65 7q0 2 -3 8q-15 26 -15 72v27q11 -1 33 -1q53 -1 69 -6v79q-34 -8 -102 -8v139q77 0 117 -10v79q-17 -6 -115 -6q-1 93 6 107h-87q8 -41 8 -107h-52q-49 0 -85 6q6 -39 6 -71v-22q0 -39 -4 -60q14 0 43 -1
q45 -3 44 1q1 2 -3 7q-13 19 -13 49v28h64v-139q0 1 -20 1q-67 2 -93 9v-81q18 4 113 7v-29q0 -26 -4 -86zM58 66q40 8 117 8h109q75 0 115 -6v81q-26 -7 -113 -6h-22q-36 137 -64 205h38q87 -1 127 -6q-4 18 -5 46q-1 14 -1 31v46v174q0 91 6 123h-87q6 -15 6 -41h-82
q0 57 6 79h-89q4 -34 7 -81q2 -46 1 -72v-186q-37 46 -65 91q-9 -27 -42 -85q127 -98 165 -324h-16q-86 -1 -111 8v-85zM284 407h-82v254h82v-254zM601 441q94 0 99 8q1 2 -3 10q-15 30 -16 69v14h140q90 0 129 -8v78q-16 -7 -123 -6h-85q78 128 226 166q-55 56 -67 80
q-159 -98 -220 -242v160q1 101 7 131h-89q7 -37 8 -129v-160q-57 124 -202 255q-38 -37 -93 -53q116 -39 234 -210h-26q-108 0 -139 6v-76q79 6 145 6h81v-18q-3 -58 -6 -81z" />
</svg>
