<?xml version="1.0" standalone="no"?>
<!DOCTYPE svg PUBLIC "-//W3C//DTD SVG 1.1//EN" "http://www.w3.org/Graphics/SVG/1.1/DTD/svg11.dtd" >
<svg xmlns="http://www.w3.org/2000/svg" xmlns:xlink="http://www.w3.org/1999/xlink" version="1.1" viewBox="-10 0 1034 1024">
  <g transform="matrix(1 0 0 -1 0 820)">
   <path fill="currentColor"
d="M165 7q-3 -52 -6 -70h48q-1 9 -2 15q-3 6 -3 39l-1 40h128l-4 -74q-1 -1 -1 -4h49q-6 30 -6 59l1 322q1 25 5 51q-34 -1 -70 -5h-111q24 49 40 96q16 49 36 126q85 0 102 -4q3 0 8 -1v46q-3 0 -4 -1q-79 -3 -83 -4l-171 1q-6 1 -21 2q-3 0 -12 2v-46q15 3 35 4l107 1
q-33 -154 -111 -265q-31 -45 -72 -76q34 -9 56 -22l63 95v-327zM201 66v279h128v-279h-128zM643 712q-75 -3 -114 -4q-94 3 -104 5v-46q15 3 36 4l144 1q-13 -75 -61 -153q-57 40 -72 55q-6 6 -16 13l-15 -19q-3 -6 -11 -11q60 -42 92 -70q-27 -40 -66 -76q-36 -28 -78 -50
q28 -9 52 -26q78 69 123 132q40 61 62 111q21 52 39 135q-6 0 -11 -1zM816 435q-4 0 -7 -1q-4 0 -8 -1q-34 0 -70 -3l-197 5v-47q12 3 27 5l190 1q27 0 51 -3q3 0 14 -3v47zM465 -81q-58 3 -67 5v-46q1 0 3 1q-1 0 11 2q28 0 53 2l475 -1l30 -4v46q-4 0 -7 -1q-4 0 -8 -1
q-36 0 -71 -3h-134q4 9 9 17q33 64 49 86q13 18 39 29q-27 10 -61 32q-6 -27 -23 -60q-19 -42 -32 -66q-9 -19 -21 -38h-245zM547 309l-67 6l5 -111l-4 -94q-1 -10 -1 -22q24 4 63 5l278 -1l50 -4q-4 54 -5 78q0 93 2 107q0 21 3 42q-18 -1 -34 -3q-25 -3 -36 -3h-254z
M523 129v144h304v-144h-304zM597 7q-7 15 -32 48q-4 6 -11 16q-12 -12 -34 -26l40 -54l31 -54q12 6 36 25l-10 15zM970 355q4 4 11 8q-28 10 -64 37q-39 34 -65 69l3 4q4 3 9 8q19 18 39 34q30 30 63 34q-18 21 -35 47q-10 -15 -29 -36q-34 -33 -69 -62q-24 28 -49 88
q90 75 92 75q15 10 39 14q-3 1 -4 3q-4 6 -12 13q-10 15 -21 30q-16 -31 -110 -102q-21 52 -27 115q-27 -10 -50 -15q4 -6 9 -12q1 -6 5 -15l27 -83l30 -66q18 -37 35 -62q39 -61 139 -155q12 12 29 25q1 3 5 4v0z" />
  </g>

</svg>
