<?xml version="1.0" standalone="no"?>
<!DOCTYPE svg PUBLIC "-//W3C//DTD SVG 1.1//EN" "http://www.w3.org/Graphics/SVG/1.1/DTD/svg11.dtd" >
<svg xmlns="http://www.w3.org/2000/svg" xmlns:xlink="http://www.w3.org/1999/xlink" version="1.1" viewBox="-10 0 1010 1000">
   <path fill="currentColor"
d="M815 26q8 7 23 21q50 42 45 45q-1 2 -8 4q-18 8 -36 19q-2 1 -6 4q-38 24 -85 62q19 52 36 75q56 -47 99 -103q61 57 57 66q-1 3 -11 6q-18 5 -32 13q-12 7 -52 39q-19 14 -30 23q63 53 139 79q-36 41 -55 84q-29 -14 -64 -46q-5 14 -4 81v64q0 53 4 87q-58 -4 -135 -4
h-111q-55 0 -83 1q-33 1 -58 3q4 -43 4 -89v-62q0 -44 -4 -65q-11 12 -43 44q-19 -23 -52 -40v278q-1 61 4 73h-85q0 -2 1 -6q5 -40 5 -65h-86q0 91 6 119h-87q6 -32 6 -117v-264q-14 30 -59 85q-8 -61 -32 -97q113 -102 159 -288h-36l-97 6v-81q28 8 99 8h117q57 0 105 -6
v79q-28 -6 -111 -6q-38 119 -75 189h51l119 -4l-4 71q58 -41 105 -99q-35 -44 -81 -77q39 -26 56 -48q43 49 59 75q36 -51 60 -131h-34q-65 0 -123 8v-75q20 2 51 3q15 1 35 1h51h68q24 -1 39 -2q-26 106 -83 218q34 4 85 4q63 0 79 -4q-49 -95 -79 -244q45 -9 81 -12
q-5 50 8 91q42 -32 85 -93zM540 320q-45 67 -76 93q49 4 125 4h121q93 -1 119 -4q-4 -3 -10 -9q-49 -44 -75 -80v36q-36 -4 -103 -4q-47 0 -65 1q-22 1 -36 3v-40zM278 411h-86v238h86v-238zM528 485v91l228 2v-93h-228zM552 649q34 58 55 103l-71 30q-20 -51 -60 -109z
M716 653q80 25 88 34q0 3 -7 9q-13 10 -21 21q-19 28 -44 77h22q68 0 145 -8v79q-51 -4 -161 -5h-220q-79 1 -151 5v-79q46 8 145 8h147q31 -59 57 -141z" />
</svg>
