<?xml version="1.0" standalone="no"?>
<!DOCTYPE svg PUBLIC "-//W3C//DTD SVG 1.1//EN" "http://www.w3.org/Graphics/SVG/1.1/DTD/svg11.dtd" >
<svg xmlns="http://www.w3.org/2000/svg" xmlns:xlink="http://www.w3.org/1999/xlink" version="1.1" viewBox="-10 0 1034 1024">
  <g transform="matrix(1 0 0 -1 0 820)">
   <path fill="currentColor"
d="M326 -111q24 -15 46 -34q51 30 175 138q30 27 61 34q-25 15 -54 37q-45 -57 -103 -103q-70 -54 -125 -72zM538 498h-122q-27 0 -54 4q-6 1 -10 1v-46q39 4 64 5h209v-78l-159 1q-19 3 -49 4q1 -21 3 -37q1 -30 2 -136q0 -93 -4 -131q-1 -3 -1 -6l69 6l339 -1q25 -1 53 -5
q-4 57 -5 115q0 141 2 152q0 21 3 43q-34 -1 -69 -5h-146v78q277 0 290 -3q4 0 11 -2v46q-33 -1 -68 -5h-137v134q129 0 142 -3q4 0 11 -2v45l-102 -4h-51q0 78 3 91q1 12 9 28h-56l4 -39l1 -80h-144v49q0 30 12 70h-55q0 -6 1 -9l4 -61v-49h-66q-27 0 -61 4v-45q30 4 50 5
h77v-134zM459 120v95h166v-95h-166zM459 249v99h166v-99h-166zM576 498v134h144v-134h-144zM663 120v95h172v-95h-172zM663 249v99h172v-99h-172zM926 -120q6 7 15 19q-34 30 -60 49q-48 34 -95 72l-50 36l-25 -33q-1 0 -2 -1l40 -27l51 -39q58 -45 114 -92q6 9 12 16z
M155 47q-3 -58 -5 -67h47q-3 30 -5 70v20h113q0 -21 -5 -82h49q-4 33 -5 67l1 319l4 48q-66 -4 -104 -5h-56q51 93 81 214q78 0 89 -3q6 0 12 -2v47q-15 -3 -18 -3q-36 0 -72 -3l-174 1q-18 3 -35 5v-47q42 6 69 5h88q-30 -145 -119 -271q-45 -60 -76 -79l54 -22
q12 15 22 30q40 63 45 71v-313zM192 106v275h113v-275h-113z" />
  </g>

</svg>
