<?xml version="1.0" standalone="no"?>
<!DOCTYPE svg PUBLIC "-//W3C//DTD SVG 1.1//EN" "http://www.w3.org/Graphics/SVG/1.1/DTD/svg11.dtd" >
<svg xmlns="http://www.w3.org/2000/svg" xmlns:xlink="http://www.w3.org/1999/xlink" version="1.1" viewBox="-10 0 1010 1000">
   <path fill="currentColor"
d="M510 -8q50 10 107 34q-24 16 -53 92q-8 17 -12 27h236q62 0 131 -8v72q-45 -8 -129 -8h-38v89h30q85 -1 115 -10v72q-33 -6 -115 -6h-30v89h30q80 0 117 -8v71q-46 -7 -119 -8h-28v92h38q95 -1 139 -8v71q-38 -8 -143 -8h-234q-1 40 4 54h-84q5 -40 6 -127v-280
q-3 5 -7 13q-16 32 -56 96q-15 -24 -52 -69q112 -119 147 -332zM738 -2q23 28 56 96l-78 33q-26 -63 -55 -97zM381 98v85q-36 -7 -101 -8h-22q-34 110 -60 183h98q57 -3 75 -8q-8 25 -8 73v210q0 73 8 125h-81q7 -32 8 -67h-104v26q0 10 1 29q2 59 7 82h-89q11 -48 12 -115
v-232q-14 17 -41 53q-14 19 -21 28q-13 -47 -31 -93q103 -82 151 -296h-16q-81 1 -109 8v-83q21 4 60 7q34 2 57 1h101q68 0 105 -8zM548 201v89h133v-89h-133zM681 346h-133v89h133v-89zM296 413h-104v222h104v-222zM548 490v92h133v-92h-133zM883 687q51 87 83 161l-79 31
q-31 -90 -75 -168zM435 711q52 12 73 20q-24 52 -52 122q-15 36 -21 50q-21 -10 -65 -22q-13 -4 -21 -6q61 -67 86 -164zM756 713q28 66 44 154l-86 10q-10 -99 -35 -158zM619 719q11 35 24 156l-85 8q10 -74 -8 -160z" />
</svg>
