<?xml version="1.0" standalone="no"?>
<!DOCTYPE svg PUBLIC "-//W3C//DTD SVG 1.1//EN" "http://www.w3.org/Graphics/SVG/1.1/DTD/svg11.dtd" >
<svg xmlns="http://www.w3.org/2000/svg" xmlns:xlink="http://www.w3.org/1999/xlink" version="1.1" viewBox="-10 0 1010 1000">
   <path fill="currentColor"
d="M520 -8q25 38 67 127l-79 26q-20 -66 -60 -129zM742 2q100 22 97 30q1 4 -7 9q-19 12 -26 33q-14 42 -32 103q-5 17 -8 26h121q44 0 61 -6v71q-22 -4 -67 -4q-11 264 -93 435q75 91 166 131q-50 23 -77 57q-87 -69 -131 -129q-58 81 -131 149q-28 -37 -73 -65
q111 -73 164 -159q-36 -104 -47 -262h71q-5 102 18 189q64 -156 60 -344h-62q-9 21 -48 125q-44 -26 -75 -26v55q1 19 2 31q-33 -4 -121 -4q-52 0 -73 1q-25 1 -42 3q4 -40 4 -99q1 -71 -4 -90q27 4 117 4q79 0 121 -8q-4 40 -4 100q72 -120 119 -356zM67 102q32 6 129 6
q127 0 155 -6v73q-32 -4 -91 -4q-20 81 -62 161h46q63 0 97 -6q-2 10 -3 28q-1 14 -1 55v278q0 75 6 91h-77q4 -18 4 -71h-76q0 50 1 69q1 24 3 38h-75q4 -20 4 -81v-286q-24 41 -58 69q-16 -39 -47 -73q126 -96 165 -272q-80 0 -120 4v-73zM661 147v68q-12 -3 -41 -3
q-14 -1 -36 -1h-64q-106 0 -145 4v-68q24 6 137 6q83 -3 149 -6zM454 322v69h108v-69h-108zM270 391h-76v256h76v-256zM369 488q12 3 83 4h108q48 0 79 -5v79q-44 -3 -105 57v26q47 -12 101 -24q-5 25 -2 66q-41 4 -97 16v93q17 75 -122 90q-11 2 -17 3q-4 -45 -26 -87
q58 13 91 2q11 -4 10 -42v-45q-67 14 -91 25q-8 -40 -26 -75q51 -2 111 -12v-44q39 -33 62 -65h-70q-69 0 -89 6v-68z" />
</svg>
