<?xml version="1.0" standalone="no"?>
<!DOCTYPE svg PUBLIC "-//W3C//DTD SVG 1.1//EN" "http://www.w3.org/Graphics/SVG/1.1/DTD/svg11.dtd" >
<svg xmlns="http://www.w3.org/2000/svg" xmlns:xlink="http://www.w3.org/1999/xlink" version="1.1" viewBox="-10 0 1034 1024">
  <g transform="matrix(1 0 0 -1 0 820)">
   <path fill="currentColor"
d="M665 619q-6 0 -13 -3q-51 -3 -96 -3l-174 3q-9 1 -15 3v-47q6 1 15 4l96 2l177 -3q3 0 10 -3v47zM544 167l64 56q28 25 65 63q-109 -4 -112 -5q-141 0 -166 2q-12 1 -18 3v-46q0 1 25 4l180 1q-18 -15 -36 -32q-21 -18 -46 -37q6 -57 6 -76q-64 -21 -131 -27
q9 -21 13 -46q21 7 41 16l77 22v-144q0 -13 -3 -19q-9 -12 -37 -13q-15 0 -24 1q-15 0 -49 6q9 -27 10 -48q12 0 25 2q55 3 67 5q27 6 39 20q7 15 8 41v160q21 9 31 9l88 20q0 27 2 38q-45 -15 -119 -34v58zM638 350q-3 24 -3 73l4 88q0 4 1 15q-99 -4 -102 -5q-79 0 -106 2
q-6 3 -38 3q1 -28 5 -58l-3 -106q-1 -12 -2 -22q54 4 82 5q117 0 129 -2q16 0 34 -3q-1 6 -1 10zM436 381v104h162v-104h-162zM418 728q43 -31 64 -51q24 -21 55 -58q10 18 28 33l-50 48l-70 58q-10 -15 -27 -30zM687 -91q15 12 34 35q42 48 73 93q33 -52 61 -90
q25 -33 88 -96q18 15 53 33q-48 22 -85 60q-55 54 -94 131q33 84 52 179q3 12 10 83l13 147q27 0 55 -3l2 -1q1 0 5 -1v47q-7 -1 -13 -4q-22 0 -43 -2h-150q12 60 13 64q4 18 9 42q9 45 16 57q7 18 29 41q-33 6 -67 21q0 -27 -5 -65l-40 -181q-15 -57 -36 -112
q-21 -51 -52 -72q30 -6 53 -19q36 75 68 188h117q0 -51 -4 -101q-3 -51 -12 -106q-6 -48 -16 -84q-9 -31 -26 -72q-28 81 -37 120q-10 51 -11 93q0 21 8 41q-19 -1 -53 -2q12 -96 27 -159t45 -137q-64 -114 -143 -164q-30 -18 -59 -22l47 -40q9 7 29 27q19 16 39 31z
M158 -24q-3 -54 -5 -63h48q0 3 -1 6q-3 6 -3 29l-1 75h109q-1 -25 -3 -52q-1 -6 -3 -11h49q-3 6 -5 58l1 333l4 43q-30 -1 -59 -5h-94q34 93 49 234l112 -3q3 0 7 -2v46q-10 -1 -22 -4h-244q-18 1 -28 4v-46q6 0 13 3l123 2q-12 -201 -109 -335q-25 -33 -57 -46
q24 -10 40 -25q6 -3 9 -7q27 37 70 103v-337zM196 59v294h109v-294h-109z" />
  </g>

</svg>
