<?xml version="1.0" standalone="no"?>
<!DOCTYPE svg PUBLIC "-//W3C//DTD SVG 1.1//EN" "http://www.w3.org/Graphics/SVG/1.1/DTD/svg11.dtd" >
<svg xmlns="http://www.w3.org/2000/svg" xmlns:xlink="http://www.w3.org/1999/xlink" version="1.1" viewBox="-10 0 1034 1024">
  <g transform="matrix(1 0 0 -1 0 820)">
   <path fill="currentColor"
d="M166 360v-323q0 -42 -6 -62h48q-6 39 -6 86v4h134l-4 -68l-2 -6h49q-4 54 -5 63l1 331l4 49q-30 -1 -60 -5h-112q6 18 17 40q25 54 40 91q12 34 25 87q93 0 112 -3q3 0 9 -2v47q-7 -3 -14 -4q-12 0 -50 -2l-257 1q-27 4 -29 5v-47q24 3 38 4l149 1q-12 -91 -85 -216
q-70 -118 -125 -146l54 -29zM202 101v292h134v-292h-134zM977 -83q-10 -1 -22 -4l-548 1q-3 1 -4 1q-3 0 -12 2v-41q3 3 28 4l159 2l371 -1q7 0 28 -5v41zM411 285q16 4 37 5l459 1q48 0 61 -5l1 -1v41l-62 -5l-467 1q-15 1 -29 4v-41zM420 689q3 3 22 3q16 1 42 2l442 -1
q9 0 20 -2q3 0 6 -2q1 0 5 -1v42q-3 0 -8 -2q-15 0 -32 -2l-481 1q-3 1 -4 1q-3 0 -12 2v-41zM464 442q-3 -30 -5 -60q30 3 63 5l334 -1l46 -4q-6 60 -6 86q0 120 3 130q0 12 3 27q-54 -4 -64 -5l-335 1q-19 3 -44 4q4 -99 5 -103v-80zM665 488v-71h-167v71h167zM498 519v72
h167v-72h-167zM702 417v71h156v-71h-156zM702 519v72h156v-72h-156zM456 236q1 -30 5 -63l-1 -152l-4 -45q49 4 105 5l289 -1l50 -4q-4 52 -5 99l1 113l4 48q-31 -1 -64 -5l-336 1q-19 3 -44 4zM495 124v76h167v-76h-167zM662 94v-83h-167v83h167zM699 124v76h160v-76h-160z
M699 11v83h160v-83h-160z" />
  </g>

</svg>
