<?xml version="1.0" standalone="no"?>
<!DOCTYPE svg PUBLIC "-//W3C//DTD SVG 1.1//EN" "http://www.w3.org/Graphics/SVG/1.1/DTD/svg11.dtd" >
<svg xmlns="http://www.w3.org/2000/svg" xmlns:xlink="http://www.w3.org/1999/xlink" version="1.1" viewBox="-10 0 1010 1000">
   <path fill="currentColor"
d="M534 -10q12 1 32 2q54 3 51 8q1 2 -3 8q-11 14 -11 30v44h107v-44q0 -27 -4 -42q14 1 38 1q44 0 44 5q2 3 -2 11q-8 15 -8 27v40q138 0 153 -6v73q-6 -6 -151 -6q-1 56 4 66h-78q5 -9 4 -64h-107q1 45 4 60h-77q0 -2 1 -5q5 -27 5 -53q-62 0 -85 1q-28 1 -36 3v-71
q39 6 121 6v-46q0 -36 -2 -48zM71 84q17 6 123 6h82q75 0 103 -6v77q-17 -7 -105 -4q-5 13 -9 24q-26 74 -49 113q-6 11 -14 28h54q69 -1 99 -4q-6 47 -6 119v206q0 60 1 80q1 25 3 33h-77q3 -8 3 -22q1 -11 1 -49h-78q-2 85 6 123h-87q7 -34 8 -117v-260q-19 32 -67 77
q-12 -45 -38 -81q138 -117 172 -270q-113 0 -125 4v-77zM391 215q23 6 119 6h262q106 0 147 -6q-6 65 0 131h-80q4 -19 4 -64h-381q0 48 6 60h-77q6 -75 0 -127zM512 324q14 2 35 3q16 1 58 1h113q47 0 86 -4v63q-5 -3 -23 -3q-13 -1 -61 -1h-117q-60 0 -91 4v-63zM280 383
h-82v240h82v-240zM409 415q49 7 160 8h155q115 0 159 -4v69q-46 -7 -151 -7h-77q-20 18 -30 25q37 42 65 82q72 -31 133 -90q69 50 68 62q-2 3 -10 4q-17 1 -34 8q-24 11 -51 28q33 121 148 184q-44 20 -79 60q-73 -60 -127 -213q-2 1 -8 5q-11 7 -16 9q14 49 10 105
q-5 60 -26 96q-35 48 -146 67q-1 -46 -30 -91q86 11 117 -22q30 -50 18 -121q-2 1 -6 5q-117 99 -248 172q-14 -36 -58 -62q134 -32 286 -173q0 -1 -1 -2q-7 -16 -13 -19q-119 79 -196 115q-10 -28 -36 -50q145 -54 206 -107q-6 -13 -16 -22q-94 49 -170 76q-14 -30 -40 -54
q108 -19 200 -77q-74 0 -103 1q-35 1 -53 3v-70z" />
</svg>
