<?xml version="1.0" standalone="no"?>
<!DOCTYPE svg PUBLIC "-//W3C//DTD SVG 1.1//EN" "http://www.w3.org/Graphics/SVG/1.1/DTD/svg11.dtd" >
<svg xmlns="http://www.w3.org/2000/svg" xmlns:xlink="http://www.w3.org/1999/xlink" version="1.1" viewBox="-10 0 1034 1024">
  <g transform="matrix(1 0 0 -1 0 820)">
   <path fill="currentColor"
d="M142 316q12 24 30 50l-1 -379q-1 -7 -2 -30q-1 -3 -1 -8q-1 -1 -1 -5h47q-4 57 -5 88v6h105l-4 -82q-1 -1 -1 -5h48q-4 39 -5 70l1 342l4 51q-66 -6 -100 -6h-62q40 91 70 224q117 0 127 -3q1 0 6 -2v45q-3 0 -9 -1l-2 -1l-144 -3l-114 1q-36 3 -39 4h-6v-45q3 3 27 3
q9 1 98 2h15q-33 -163 -114 -294q-39 -60 -79 -88q1 0 4 -1q24 -7 40 -16q6 -3 15 -7l24 42q13 24 28 48zM314 70h-105v303h105v-303zM868 281q-10 -15 -32 -34q-33 -31 -76 -66q-18 -15 -48 -35q-12 30 -30 58q-18 27 -53 69q21 21 50 46q261 0 273 -3q1 0 6 -2v47
q-4 0 -7 -2q-3 0 -4 -1q-24 0 -55 -3l-455 1q-7 1 -11 2q-9 3 -14 3v-47q3 3 23 3q9 1 139 2h48q-49 -45 -127 -86q-63 -28 -113 -29l22 -33q4 -9 11 -16q6 0 13 7q4 1 8 4q52 21 84 37q30 16 77 47q24 -24 37 -40q-72 -63 -132 -98q-69 -33 -130 -40q21 -18 47 -46
q7 3 17 9q70 39 102 55q22 15 86 64q13 12 29 25q15 -22 22 -42q-52 -61 -141 -125q-88 -60 -164 -78q19 -15 43 -43q90 54 149 95q48 36 128 111q6 -25 9 -43q3 -37 4 -58q0 -54 -21 -85q-22 -28 -65 -29q-9 0 -39 2q12 -18 28 -51q66 13 95 40q39 37 39 130q0 48 -15 106
q33 27 45 34q16 -43 33 -72q18 -33 44 -65l39 -48q21 -21 53 -50q19 18 54 43q-33 7 -48 16t-43 35q-73 61 -98 169q52 42 69 53q15 9 41 12zM424 580q1 -33 5 -67q-1 -33 -3 -69q-1 -3 -2 -13h47q-4 57 -5 88v20h431l-3 -90q0 -4 -2 -10h48q-6 63 -5 83l4 38q0 9 1 20
q-109 -4 -113 -5h-51v70q175 0 185 -3q1 0 6 -2v45q-7 0 -13 -2q-15 0 -52 -3h-126q0 60 5 67q0 1 9 22h-57q0 -6 7 -59v-30h-131q0 58 3 61q1 10 5 18q1 1 6 10h-57q6 -75 6 -89q-103 0 -125 2q-6 3 -18 3v-45q3 3 23 3q9 1 105 2h15v-70q-87 0 -110 2q-6 3 -38 3zM609 575
v70h131v-70h-131zM521 416q3 3 24 3q9 1 141 2q145 0 156 -3q1 0 6 -2v46q-33 -1 -65 -5q-223 0 -247 3q-6 1 -15 2v-46z" />
  </g>

</svg>
