<?xml version="1.0" standalone="no"?>
<!DOCTYPE svg PUBLIC "-//W3C//DTD SVG 1.1//EN" "http://www.w3.org/Graphics/SVG/1.1/DTD/svg11.dtd" >
<svg xmlns="http://www.w3.org/2000/svg" xmlns:xlink="http://www.w3.org/1999/xlink" version="1.1" viewBox="-10 0 1034 1024">
  <g transform="matrix(1 0 0 -1 0 820)">
   <path fill="currentColor"
d="M208 601q-4 -27 -35 -134l-43 -102q-27 -54 -50 -83q-21 -24 -45 -38q39 -9 58 -20q22 33 37 59q12 22 24 48v-329q0 -45 -5 -70h48q-6 24 -6 70v40h111l-4 -91q-1 -1 -1 -4h48l-4 43l-1 341q1 33 5 66l-111 -5h-48q21 55 32 87l19 80q3 24 7 28q1 7 4 14h51q27 0 51 -3
q1 0 14 -2v46q-10 0 -15 -2q-36 0 -72 -3l-209 5v-46q1 0 3 1q-1 0 11 2q28 0 54 2h72zM191 75v281h111v-281h-111zM344 -118q25 -13 45 -28q1 0 4 -3q3 21 8 35q0 3 40 108q21 51 34 88q12 28 25 55q-12 7 -18 11q-9 7 -21 21q-3 -25 -13 -58q-21 -64 -56 -144
q-30 -69 -48 -85zM389 502q-9 -12 -26 -30q67 -39 106 -80q6 9 25 29q-48 39 -90 69zM487 257q-9 9 -17 13q-72 52 -78 56q-7 -15 -23 -33q40 -27 66 -46q28 -24 38 -31q10 18 23 35zM552 667l-121 1q-19 3 -19 2q-4 0 -13 2v-43q1 0 3 2q-1 0 11 2q30 0 54 2h85l-2 -66
l-1 -2q0 -6 -2 -13h44l-4 36q-1 24 -2 45h151q-3 -24 -3 -46q0 -1 -2 -16h45q-4 60 -5 62q148 0 164 -2q12 0 25 -4v43q-10 0 -15 -2l-149 -3h-25q0 58 3 67q3 10 15 25h-58q1 -31 5 -65v-27h-151q0 60 3 66q1 13 14 26h-55q1 -31 5 -65v-27zM743 406v49l195 -4q6 -1 10 -3
v42l-103 -5h-102q0 43 3 50q1 13 14 26h-57q1 -31 5 -64v-12l-170 1q-9 1 -26 2q-3 0 -12 2v-42q6 1 11 5l102 2h95v-49l-125 1q-4 1 -39 5q1 -19 2 -32q3 -24 3 -32v-145q0 -39 -5 -69h42q-4 33 -5 60v18h127v-6q0 -45 -5 -70h45l-4 42l-1 34h133q0 -31 -2 -49
q0 -10 -3 -22h45l-4 42l-1 165q1 31 5 64l-31 -4q-21 -1 -33 -2h-109zM581 239v56h127v-56h-127zM708 377v-55h-127v55h127zM743 239v56h133v-56h-133zM743 322v55h133v-55h-133zM857 83q0 3 1 4l4 30q1 3 4 9q1 1 3 5h-54q3 -12 4 -21q0 -6 1 -27l-265 1q-13 1 -33 2
q-3 0 -12 2v-43q9 4 38 5l275 1v-127q0 -19 -11 -26q-12 -7 -42 -8q-15 0 -41 4l18 -49q48 6 62 10q48 15 48 57v139q93 0 113 -3q3 0 11 -3v43q-4 0 -7 -1q-79 -3 -117 -4zM611 28l-12 -9q-1 0 -4 -2q-1 -1 -6 -5l58 -67q12 -15 21 -31q10 13 31 27q-7 6 -12 12
q-60 72 -70 81zM881 535q-12 9 -29 20q-15 10 -35 27q-1 -3 -4 -5q-15 -18 -17 -21q15 -7 26 -16q18 -12 49 -37q3 9 20 23q-6 4 -10 9v0z" />
  </g>

</svg>
