<?xml version="1.0" standalone="no"?>
<!DOCTYPE svg PUBLIC "-//W3C//DTD SVG 1.1//EN" "http://www.w3.org/Graphics/SVG/1.1/DTD/svg11.dtd" >
<svg xmlns="http://www.w3.org/2000/svg" xmlns:xlink="http://www.w3.org/1999/xlink" version="1.1" viewBox="-10 0 1034 1024">
  <g transform="matrix(1 0 0 -1 0 820)">
   <path fill="currentColor"
d="M187 729q37 -25 78 -57q39 -30 69 -56q21 27 25 32q-27 24 -44 36l-62 47q-18 15 -40 30q-12 -15 -26 -32zM673 -51l-257 1q-4 1 -8 1q-15 1 -29 3v-46q27 4 62 5q522 0 532 -3q6 0 12 -2v46q-49 -4 -68 -5h-205v447q208 0 218 -3q6 0 11 -2v47q-13 -3 -31 -4
q-16 0 -36 -2h-162v267q0 15 3 31q1 21 9 38h-57q0 -6 3 -13l3 -109v-214h-156q-18 0 -43 3q-3 0 -19 3v-47q27 4 62 5h156v-447zM250 -102q-3 -57 -6 -65q-1 0 -1 -2h51q-4 24 -5 62v398q34 -25 64 -51q31 -27 72 -65l28 36l-28 22q-6 6 -108 85l-23 19q63 87 121 207
q-36 -1 -74 -5l-267 5v-47q36 6 63 6h213q-63 -136 -186 -256q-72 -70 -139 -94q3 -1 6 -3q27 -12 48 -26q64 43 171 160v-386z" />
  </g>

</svg>
