<?xml version="1.0" standalone="no"?>
<!DOCTYPE svg PUBLIC "-//W3C//DTD SVG 1.1//EN" "http://www.w3.org/Graphics/SVG/1.1/DTD/svg11.dtd" >
<svg xmlns="http://www.w3.org/2000/svg" xmlns:xlink="http://www.w3.org/1999/xlink" version="1.1" viewBox="-10 0 1010 1000">
   <path fill="currentColor"
d="M609 0q103 -3 107 6q-18 39 -22 86v91h114q55 0 113 -8v89q-73 -8 -111 -8h-116v167h121q58 0 129 -8v87q-69 -8 -123 -8h-206q16 7 51 30q10 6 15 10l-5 5q-25 21 -49 55l-123 186l286 -12q-50 -82 -92 -139l74 -33q116 174 166 271l-91 42q-10 -42 -30 -73
q-245 9 -422 43q-13 -52 -36 -97q61 -3 87 -44q78 -98 141 -244h-89q-56 0 -111 8v-89q54 9 107 10h123v-167h-65q-62 1 -127 8v-87q61 8 123 8h69v-95q0 -57 -8 -90zM250 -8q19 26 61 104q19 35 28 51l-89 36q-37 -95 -83 -157zM58 191q83 10 121 10h131q39 0 83 -6
q-47 121 -115 226v50l41 -32l46 46q23 22 73 73l-71 52q-30 -59 -89 -110v276q2 80 10 137h-105q10 -53 11 -137v-254q-2 3 -6 7q-43 54 -109 120q-13 -31 -51 -73l-6 -6q160 -112 252 -298h-93q-83 1 -123 10v-91z" />
</svg>
