<?xml version="1.0" standalone="no"?>
<!DOCTYPE svg PUBLIC "-//W3C//DTD SVG 1.1//EN" "http://www.w3.org/Graphics/SVG/1.1/DTD/svg11.dtd" >
<svg xmlns="http://www.w3.org/2000/svg" xmlns:xlink="http://www.w3.org/1999/xlink" version="1.1" viewBox="-10 0 1034 1024">
  <g transform="matrix(1 0 0 -1 0 820)">
   <path fill="currentColor"
d="M232 -93q0 -27 -3 -54q0 -3 -3 -15h49q0 7 -2 15q-3 54 -3 108v347q69 -48 113 -102q3 3 10 9q1 1 3 4q3 1 4 3q1 4 7 7q3 0 8 7q-63 57 -85 74q-12 9 -23 19q-6 6 -27 20q31 43 58 87q24 42 39 70q10 21 20 45q-72 -6 -100 -6l-208 3q-4 1 -7 1l-6 2v-47q15 3 40 4
l217 1q-24 -48 -48 -87q-27 -39 -73 -93q-81 -102 -169 -144q30 -12 50 -30q40 36 77 72q34 34 62 66v-386zM326 618q-3 4 -32 41q-81 102 -88 108q-15 -12 -25 -21q0 -1 -3 -3q-3 -3 -7 -4q66 -69 121 -149q7 12 25 21q4 4 9 7zM620 692q0 18 3 33q4 19 19 36h-66
q1 -33 5 -69v-379q-27 -27 -75 -69q-78 -63 -90 -73l-36 -16q24 -24 40 -50q51 55 60 62l45 41l54 48l-7 -81q-3 -27 -10 -54q-18 -72 -57 -124q-66 -85 -166 -113q25 -15 52 -40q54 37 86 65q91 82 118 181q24 87 25 192v410zM517 392q12 6 27 16q-12 24 -24 44l-67 115
q-7 13 -20 32q-21 -15 -37 -22q24 -28 51 -78q36 -63 60 -114q4 4 10 7zM758 696q0 18 4 33q3 18 19 36h-66q0 -6 5 -59q-1 -4 0 -10v-754q0 -43 26 -56q24 -12 83 -12q87 0 118 38q9 13 17 35q7 19 20 71q-19 6 -18 5q-21 6 -37 16q0 -15 1 -24q0 -21 -4 -40
q-6 -31 -20 -45q-18 -15 -56 -16l-29 1q-46 1 -55 10q-7 7 -8 42v295q18 -13 45 -35l92 -84q13 -12 32 -34q9 18 14 21q4 3 9 9q3 6 6 8q-45 39 -69 58q-27 24 -129 108v383zM806 389q4 6 9 10l5 5q13 19 27 37q24 28 47 59q27 33 37 41q9 7 32 15q-33 22 -50 42
q-27 -48 -45 -73q-45 -57 -67 -82q-9 -12 -26 -25q7 -6 31 -29v0z" />
  </g>

</svg>
