<?xml version="1.0" standalone="no"?>
<!DOCTYPE svg PUBLIC "-//W3C//DTD SVG 1.1//EN" "http://www.w3.org/Graphics/SVG/1.1/DTD/svg11.dtd" >
<svg xmlns="http://www.w3.org/2000/svg" xmlns:xlink="http://www.w3.org/1999/xlink" version="1.1" viewBox="-10 0 1010 1000">
   <path fill="currentColor"
d="M452 -23q67 -2 106 6l-2 4q-16 22 -16 55v81h236v-59q0 -34 -4 -56q88 -4 95 4q1 1 -3 7q-9 16 -9 31v81q0 42 8 68q-22 -8 -93 -8h-230v111h248v-46q0 -35 -4 -47q75 1 95 10q1 2 -2 6q-9 9 -10 25v62q0 44 8 65q-27 -7 -99 -8h-562q-51 0 -93 8q8 -26 8 -87
q0 -55 -2 -65q63 1 97 10q0 1 -2 3q-11 9 -12 30v34h250v-111h-214q-54 0 -95 8q8 -24 8 -78v-33q0 -34 -1 -44q0 -14 -3 -30q94 0 101 6q1 2 -3 7q-14 18 -13 47v49h220v-63q0 -65 -8 -83zM841 427v85q-47 -8 -154 -8h-377q-90 0 -151 8v-85q28 8 151 8h377q101 0 154 -8z
M933 570v87q-35 -7 -139 -8h-232v123v20q29 122 -163 125q-2 -60 -42 -103q84 14 111 0q8 -12 8 -60v-105h-264q-88 0 -147 8v-87q69 11 151 12h578q86 -1 139 -12zM671 677q203 95 248 125l-70 77q-93 -75 -242 -142zM308 681q74 42 83 54q0 1 -10 4q-19 6 -30 11
q-150 83 -210 129q-35 -49 -76 -63q127 -40 243 -135z" />
</svg>
