<?xml version="1.0" standalone="no"?>
<!DOCTYPE svg PUBLIC "-//W3C//DTD SVG 1.1//EN" "http://www.w3.org/Graphics/SVG/1.1/DTD/svg11.dtd" >
<svg xmlns="http://www.w3.org/2000/svg" xmlns:xlink="http://www.w3.org/1999/xlink" version="1.1" viewBox="-10 0 1034 1024">
  <g transform="matrix(1 0 0 -1 0 820)">
   <path fill="currentColor"
d="M183 728q-1 -1 -4 -3l-4 -3q30 -30 55 -58l67 -82q15 18 34 28q-28 37 -84 100l-39 41q-7 -6 -15 -13zM671 144h-193q-19 0 -44 3q-1 0 -18 3v-47q27 4 62 5h193l-1 -221q-3 -6 -3 -43q-1 -1 -1 -5h50q-4 24 -5 61v208q250 0 257 -3q6 0 13 -2v47l-67 -6h-203v176
q177 0 184 -3q6 0 14 -2v47q-15 -3 -32 -4q-18 0 -35 -2h-131v182q228 -3 237 -6v48q-24 -4 -44 -5l-81 -2h-65l80 129q27 39 61 48q-33 15 -64 38q-22 -54 -41 -86q-39 -64 -83 -129l-231 1q-3 1 -6 1q-15 0 -41 5v-48q27 6 63 6h175v-182l-158 1q-16 3 -34 5v-47
q30 4 63 5h129v-176zM485 747q70 -69 132 -138q12 13 31 30q-12 12 -23 26l-48 52q-21 21 -60 57q-18 -18 -32 -27zM52 150q12 -6 34 -19q34 30 64 59q33 33 80 84l-1 -403q-1 -3 -2 -24q0 -9 -2 -18h51q-4 15 -5 40l-1 422q33 -24 57 -46q30 -25 71 -63l22 28q3 3 6 7
l-90 72q-25 19 -57 42q51 66 84 122q42 72 44 74l-85 -6l-216 1q-9 1 -16 2q-4 0 -20 3v-47q33 6 63 6h207q-57 -102 -140 -191q-100 -105 -170 -134q10 -4 22 -11v0z" />
  </g>

</svg>
