<?xml version="1.0" standalone="no"?>
<!DOCTYPE svg PUBLIC "-//W3C//DTD SVG 1.1//EN" "http://www.w3.org/Graphics/SVG/1.1/DTD/svg11.dtd" >
<svg xmlns="http://www.w3.org/2000/svg" xmlns:xlink="http://www.w3.org/1999/xlink" version="1.1" viewBox="-10 0 1010 1000">
   <path fill="currentColor"
d="M615 -12q100 3 101 16q0 9 -7 21q-11 19 -11 45v91h108q64 0 109 -6q-6 31 -6 89v368q0 74 7 95q1 4 1 6h-90q6 -33 6 -72h-135v143q0 96 8 121h-91q8 -16 8 -121v-143h-127q0 39 6 72h-89q8 -19 8 -119v-352q0 -59 -6 -87q40 6 105 6h103v-101q-2 -54 -8 -72zM248 -4
q18 28 71 141l-87 34q-17 -66 -67 -141zM54 185q15 8 115 8h117q36 0 95 -6q-43 100 -123 226v363q0 109 8 117h-87q8 -18 8 -117v-278q-10 9 -34 36q-44 51 -80 85l-45 -91q120 -66 242 -268h-105q-105 -1 -111 8v-83zM496 229v138h127v-138h-127zM698 229v138h135v-138
h-135zM496 435v139h127v-139h-127zM698 435v139h135v-139h-135zM262 459l51 -50q69 69 92 99l-60 54q-26 -45 -83 -103z" />
</svg>
