<?xml version="1.0" standalone="no"?>
<!DOCTYPE svg PUBLIC "-//W3C//DTD SVG 1.1//EN" "http://www.w3.org/Graphics/SVG/1.1/DTD/svg11.dtd" >
<svg xmlns="http://www.w3.org/2000/svg" xmlns:xlink="http://www.w3.org/1999/xlink" version="1.1" viewBox="-10 0 1034 1024">
  <g transform="matrix(1 0 0 -1 0 820)">
   <path fill="currentColor"
d="M220 -97q-3 -60 -5 -70h48q-4 49 -5 70v359l65 -51q15 -12 41 -41q7 10 17 21q4 3 11 12q-21 22 -59 53l-78 59q6 12 14 24q9 19 21 35l21 40q18 34 35 67q7 15 18 39q-76 -4 -119 -5l-180 5v-46q6 0 13 3l110 2h114q-15 -37 -41 -82q-22 -37 -42 -65q-19 -25 -50 -58
q-72 -75 -118 -94q22 -9 46 -34q22 19 49 46q30 30 74 80v-369zM329 630q3 4 8 8q-7 6 -13 11q-6 9 -24 24q-96 85 -99 87q-25 -28 -30 -32q18 -12 54 -44q63 -60 80 -79q1 0 3 3q3 3 6 8q7 7 15 14zM354 24q9 -3 20 -8q18 -7 33 -19q27 37 46 67q16 24 33 53q21 33 40 67
l21 29q15 21 35 28q-21 9 -41 21q-3 3 -18 11q-12 -39 -42 -92q-13 -25 -30 -51q-15 -24 -33 -46q-31 -39 -64 -60zM405 398q3 0 30 -14q22 30 40 59q18 30 45 81q9 16 19 33h357q-3 -6 -4 -13q-28 -102 -60 -146q21 -3 39 -8q3 0 13 -2q3 12 54 167q6 21 16 44
q-18 -1 -33 -3q-24 -3 -34 -3h-336q9 25 24 75q16 64 47 83q-39 10 -66 23q-15 -120 -70 -230q-28 -57 -50 -85q-21 -25 -58 -50q13 -4 27 -11zM547 -124q0 -4 8 -37q63 1 97 12q42 15 43 64v447q0 12 4 33q3 19 19 36h-66q6 -54 6 -69l-1 -444q-4 -18 -15 -26
q-15 -7 -54 -8q-27 0 -46 7q1 -7 5 -15zM796 257q-6 -6 -13 -11q-4 -3 -14 -8q27 -30 42 -49q49 -69 89 -133q16 -27 29 -54q21 15 38 25q-25 43 -57 89l-105 149q-4 -3 -9 -8v0z" />
  </g>

</svg>
