<?xml version="1.0" standalone="no"?>
<!DOCTYPE svg PUBLIC "-//W3C//DTD SVG 1.1//EN" "http://www.w3.org/Graphics/SVG/1.1/DTD/svg11.dtd" >
<svg xmlns="http://www.w3.org/2000/svg" xmlns:xlink="http://www.w3.org/1999/xlink" version="1.1" viewBox="-10 0 1010 1000">
   <path fill="currentColor"
d="M746 -8q89 23 105 42q0 3 -19 20q-22 20 -28 28q-24 33 -62 107h52q79 -1 127 -10v87q-60 -8 -125 -8h-106v127h80q93 -1 125 -8v82q-33 -7 -123 -8h-82v151h129q80 0 127 -10v87q-32 -7 -127 -8h-129v111q0 88 6 115h-93q9 -36 10 -109v-117h-105q-91 0 -131 8v-85
q39 7 131 8h105v-149h-71q-82 1 -115 8v-82q35 8 115 8h71v-131h-79q-79 0 -127 8v-85q37 8 127 8h139q46 -91 73 -195zM562 0q31 59 57 137l-83 26q-22 -84 -60 -139zM246 8q41 76 60 137l-86 32q-23 -81 -55 -135zM391 197q-70 135 -111 196v403q0 53 8 109h-94
q7 -41 8 -109v-308q-70 96 -133 157q-15 -67 -37 -95q120 -73 234 -274h-117q-80 0 -109 8v-87q33 8 107 8h115q73 0 129 -8zM345 425q17 21 67 89q10 13 15 20l-68 44q-39 -79 -69 -113z" />
</svg>
