<?xml version="1.0" standalone="no"?>
<!DOCTYPE svg PUBLIC "-//W3C//DTD SVG 1.1//EN" "http://www.w3.org/Graphics/SVG/1.1/DTD/svg11.dtd" >
<svg xmlns="http://www.w3.org/2000/svg" xmlns:xlink="http://www.w3.org/1999/xlink" version="1.1" viewBox="-10 0 1010 1000">
   <path fill="currentColor"
d="M177 453q73 11 111 10h400q69 0 131 -8v83q-35 -10 -131 -10h-394q-59 0 -117 6v-81zM67 588q60 10 133 10h584q80 0 147 -10v89q-53 -14 -153 -14h-228v157q4 89 -161 87q1 -58 -30 -93q117 12 107 -28v-123h-262q-84 0 -137 10v-85zM298 681q73 52 71 63q-1 2 -11 5
q-28 9 -54 25q-17 11 -49 32q-69 46 -116 73q-32 -46 -72 -63q133 -46 231 -135zM681 683q116 57 220 115l-62 77q-90 -67 -212 -131zM85 26q60 9 125 10h592q47 0 133 -8v80q-48 -8 -127 -8h-167v85h109q57 0 113 -6q-5 17 -4 75v66q-1 51 4 73q-15 -2 -37 -3
q-17 -1 -58 -1h-476q-96 -1 -141 8q10 -51 10 -105v-54q0 -16 -4 -47q-1 -12 -2 -18q49 8 97 10h121v-83h-169q-50 0 -70 1q-24 1 -49 5v-80zM573 100h-133v83h133v-83zM230 246v80h143v-80h-143zM573 246h-133v80h133v-80zM641 248v78h143v-78h-143z" />
</svg>
