<?xml version="1.0" standalone="no"?>
<!DOCTYPE svg PUBLIC "-//W3C//DTD SVG 1.1//EN" "http://www.w3.org/Graphics/SVG/1.1/DTD/svg11.dtd" >
<svg xmlns="http://www.w3.org/2000/svg" xmlns:xlink="http://www.w3.org/1999/xlink" version="1.1" viewBox="-10 0 1010 1000">
   <path fill="currentColor"
d="M567 -23q110 8 108 15q1 2 -3 8q-12 18 -17 42q-3 14 -6 35q-3 22 -6 36h184q50 0 113 -7v81q-49 -7 -97 -6h-16h-188q0 -1 -1 7q-4 48 -7 68h159q30 1 113 -8v86q-66 -8 -111 -8h-167q-1 6 -4 20q-8 38 -16 57h254q50 0 109 -8v84q-70 -9 -107 -8h-34v87q52 0 123 -8v87
q-61 -9 -119 -8v187q3 61 -24 76q-25 19 -124 27q1 -46 -36 -99q108 30 105 -42v-149h-232q-75 129 -165 217q-39 -36 -87 -52q170 -124 244 -323h-36q-70 1 -119 8q23 33 44 75l-76 34q-29 -80 -71 -123v323q1 68 10 119h-97q8 -41 10 -117v-276q-50 61 -112 119
q-11 -35 -49 -81q162 -111 240 -290h-97q-67 0 -121 8v-89q63 8 115 8h131q44 0 91 -6q-52 134 -121 230v38l61 -34l30 44v-68q71 10 137 10h48q10 -28 18 -66q1 -8 2 -11h-44q-50 1 -111 8v-86q47 7 115 8h48q3 -17 6 -57q0 -13 1 -20h-37q-95 -1 -139 6v-83q75 9 135 10
h45q6 -87 -2 -135zM222 -12q19 36 48 96q20 39 28 55l-92 26q-27 -84 -71 -147zM754 471h-165q-17 49 -37 89h202v-89zM603 645q5 11 15 32q27 63 43 93l-84 24q-17 -75 -49 -127z" />
</svg>
