<?xml version="1.0" standalone="no"?>
<!DOCTYPE svg PUBLIC "-//W3C//DTD SVG 1.1//EN" "http://www.w3.org/Graphics/SVG/1.1/DTD/svg11.dtd" >
<svg xmlns="http://www.w3.org/2000/svg" xmlns:xlink="http://www.w3.org/1999/xlink" version="1.1" viewBox="-10 0 1010 1000">
   <path fill="currentColor"
d="M262 -8q82 0 85 12q1 6 -5 21q-7 19 -7 33v59h20q73 -1 119 -5v73q-48 -3 -115 -4h-24v117q0 30 3 75q1 27 1 38h-75q0 -9 1 -45q2 -42 3 -70v-69q-46 73 -157 180q-41 -36 -85 -51q104 -56 204 -175h-36q-81 1 -132 4v-72q70 3 132 4h72v-61q0 -39 -4 -64zM649 0
q83 -4 83 8q1 4 -3 13q-9 18 -9 39v57h97q30 0 85 -3q28 -1 36 -1v68q-10 0 -43 -2q-54 -2 -80 -2h-39q55 106 176 177q-35 13 -79 53q-94 -72 -153 -230v111q0 94 4 117h-73q4 -23 4 -119v-71v-28q-51 149 -147 222q-29 -21 -81 -42q85 -52 142 -129q23 -29 38 -63h-12
q-41 0 -56 1q-18 1 -29 3v-71q14 0 53 3q30 2 38 2h52v-53q0 -35 -4 -60zM401 219q43 38 73 77l-55 44q-23 -38 -70 -84zM200 449q33 3 157 6h282q86 0 161 -4v73q-42 -4 -163 -6h-280q-87 0 -113 1q-33 1 -44 3v-73zM65 578q36 3 163 6h544q116 -1 155 -4v71
q-39 -4 -155 -4h-226v159q2 54 -21 67q-13 13 -116 30q-9 -50 -48 -95q68 15 87 9q22 -6 22 -37v-133h-248q-115 0 -157 4v-73zM683 677q109 57 224 137l-62 67q-95 -80 -220 -152zM312 679q86 42 81 56q-3 5 -18 9q-24 5 -42 16q-58 33 -171 91q-21 11 -31 16
q-23 -36 -73 -65q155 -53 254 -123z" />
</svg>
