<?xml version="1.0" standalone="no"?>
<!DOCTYPE svg PUBLIC "-//W3C//DTD SVG 1.1//EN" "http://www.w3.org/Graphics/SVG/1.1/DTD/svg11.dtd" >
<svg xmlns="http://www.w3.org/2000/svg" xmlns:xlink="http://www.w3.org/1999/xlink" version="1.1" viewBox="-10 0 1034 1024">
  <g transform="matrix(1 0 0 -1 0 820)">
   <path fill="currentColor"
d="M296 389q-1 -25 -2 -52q0 -7 -3 -19h49q-6 66 -6 96v101q36 -28 61 -50q18 -13 48 -43l26 33q-70 54 -134 98v33q138 -3 143 -5v46q-33 -1 -66 -5h-77v76q0 31 11 69h-56q0 -3 4 -23q0 -39 3 -81v-41h-145q-21 0 -53 4q-4 1 -9 1v-46q27 4 62 5h142q-43 -66 -128 -156
q-60 -57 -110 -79q28 -15 49 -30q49 45 98 98q48 52 93 110v-140zM168 -134l94 72q19 13 39 30q31 25 41 31q12 6 39 10q-24 18 -47 45q-25 -28 -97 -86q-78 -58 -137 -85q21 -15 43 -34q12 9 25 17zM675 47q-3 -4 -6 -10q-6 -10 -16 -23l125 -68q69 -39 111 -71q7 15 25 38
q-54 37 -113 70q-9 3 -123 69q-1 -1 -3 -5zM545 99q361 0 371 -3q6 0 11 -2v49q-13 -3 -32 -4q-18 0 -34 -2h-699q-18 0 -43 3q-3 0 -19 3v-49q27 4 62 5h342v-167q0 -30 -10 -41q-15 -12 -45 -12q-21 0 -66 6q12 -25 20 -51q48 3 73 6q31 6 47 18q21 15 22 65v176zM214 231
q27 4 62 5q505 0 515 -3q6 0 11 -2v48q-13 -3 -32 -4q-15 0 -35 -2h-459q-19 0 -44 3q-1 0 -18 3v-48zM683 394q-3 -61 -5 -71h48q-1 6 -1 10q-1 3 -2 17l-2 98v106q33 -54 93 -113q24 -24 50 -44q27 -21 63 -46q16 12 26 20q1 1 21 15q-147 48 -242 205q169 0 179 -3
q6 0 11 -2v47q-13 -3 -32 -4q-15 0 -35 -2h-134q0 108 3 118q1 12 8 28h-55q3 -54 6 -69v-77l-124 1q-18 3 -35 5v-47q30 4 63 5h93q-48 -73 -125 -153q-54 -54 -106 -78q22 -7 54 -23q42 39 79 79q19 21 43 50q27 30 58 71v-143z" />
  </g>

</svg>
