<?xml version="1.0" standalone="no"?>
<!DOCTYPE svg PUBLIC "-//W3C//DTD SVG 1.1//EN" "http://www.w3.org/Graphics/SVG/1.1/DTD/svg11.dtd" >
<svg xmlns="http://www.w3.org/2000/svg" xmlns:xlink="http://www.w3.org/1999/xlink" version="1.1" viewBox="-10 0 1010 1000">
   <path fill="currentColor"
d="M458 -6q90 -5 92 4q1 3 -2 9q-13 27 -14 69v41q68 -1 105 -5v69q-18 -7 -105 -6v63q67 0 99 -7v69q-25 -6 -99 -6v69q69 0 97 -5v63q72 -80 79 -278q-51 0 -59 6v-79q20 6 89 6h64q87 -1 123 -6q-5 45 -8 97q-9 276 -30 290q-23 42 -131 59q5 -39 -34 -93q83 17 99 -20
q15 -8 22 -260h-67q-5 273 -135 365q-24 -30 -72 -45l52 -36q-12 -6 -89 -6q0 90 6 103h-82q6 -18 6 -101h-23q-69 -1 -86 4v-73q34 8 109 9v-69q-64 0 -91 8v-71q25 6 91 7v-61q-79 0 -103 6v-71q41 5 103 5v-43q0 -50 -6 -80zM220 14q2 5 7 14q53 101 57 117l-82 28
q-16 -58 -61 -133zM38 197q49 3 119 4h49q32 -1 80 -2q45 -2 55 -2q-59 131 -77 172v70l51 -30q20 24 57 71q21 27 31 40l-70 46q-25 -54 -69 -105v297q0 92 10 139h-95q12 -47 13 -137v-287q-66 85 -123 148q-12 -29 -35 -68q-8 -14 -8 -15q110 -67 210 -270h-75
q-67 0 -87 1q-26 1 -36 3v-75zM577 514h9q84 4 83 10q1 4 -6 19q-4 8 -6 13q-5 14 -8 32h95q103 2 185 -10v83q-29 -9 -181 -10h-60q72 136 278 157q-49 34 -71 87q-212 -72 -266 -238q-49 177 -286 244q-14 -45 -57 -83q212 -18 277 -167h-45q-134 0 -173 8v-81
q43 9 171 10h59q3 -18 2 -46v-28z" />
</svg>
