<?xml version="1.0" standalone="no"?>
<!DOCTYPE svg PUBLIC "-//W3C//DTD SVG 1.1//EN" "http://www.w3.org/Graphics/SVG/1.1/DTD/svg11.dtd" >
<svg xmlns="http://www.w3.org/2000/svg" xmlns:xlink="http://www.w3.org/1999/xlink" version="1.1" viewBox="-10 0 1010 1000">
   <path fill="currentColor"
d="M740 -6q102 36 95 46q0 3 -9 7q-18 8 -24 17q-25 40 -62 121h93q30 0 46 -1q31 0 44 -3v73q-7 -3 -46 -3q-18 -1 -49 -1h-94h-49v119h34q167 -2 158 -7v77q-36 -6 -192 -6v119q182 0 246 -6v75q-90 -6 -213 -6h-149q-168 0 -192 6v-75q27 6 192 6h46v-117q-164 0 -198 4
v-74q70 5 198 6v-121h-61h-84q-27 0 -43 1q-31 0 -38 3v-73q23 6 167 6h115q39 -85 69 -193zM234 -2q56 82 85 155l-79 34q-36 -93 -83 -155zM534 -2q10 7 63 99q15 26 20 34l-75 32q-33 -82 -76 -131zM355 217q-39 111 -95 196v290l6 198q-46 -6 -81 0q5 -42 5 -192v-205
q-71 85 -132 137q-8 -29 -42 -85q166 -108 236 -268h-56q-89 0 -111 1q-30 0 -41 3v-73q10 3 41 3q14 1 39 1h74q121 0 157 -6zM333 395q4 5 22 26q49 59 54 71l-66 42q-20 -54 -63 -99zM845 653q26 52 59 125q21 48 34 74q-43 9 -85 33q-32 -118 -85 -206zM409 663
q16 3 42 6q44 6 41 10q0 4 -6 9q-11 8 -16 19q-43 85 -79 178q-45 -25 -83 -29q53 -64 101 -193zM710 673q25 57 52 177l-83 15q-7 -93 -40 -182zM591 683q8 55 16 145q3 24 4 37l-79 8q8 -97 -14 -188z" />
</svg>
