<?xml version="1.0" standalone="no"?>
<!DOCTYPE svg PUBLIC "-//W3C//DTD SVG 1.1//EN" "http://www.w3.org/Graphics/SVG/1.1/DTD/svg11.dtd" >
<svg xmlns="http://www.w3.org/2000/svg" xmlns:xlink="http://www.w3.org/1999/xlink" version="1.1" viewBox="-10 0 1034 1024">
  <g transform="matrix(1 0 0 -1 0 820)">
   <path fill="currentColor"
d="M43 184q30 -13 45 -25q1 0 4 -3q7 9 15 17q18 16 36 36q19 24 56 60q9 10 18 19l-1 -406q-1 -7 -2 -38q0 -3 -2 -14h48q-4 49 -5 70v409q21 -15 48 -43q39 -39 75 -82q9 9 13 15q6 4 11 11q3 1 5 5q-76 76 -122 117q-9 9 -19 17q39 57 64 96q21 39 49 97q-36 -1 -72 -5
l-216 1q-24 3 -27 4v-46q1 1 5 1q3 1 46 4h200q-15 -36 -61 -103q-43 -63 -88 -109q-42 -45 -70 -67q-30 -19 -64 -34q4 -1 11 -4zM294 603q3 3 12 10l-51 67q-30 40 -63 81q-10 -10 -32 -28q51 -54 110 -147q3 3 11 9q6 4 13 8zM512 45q-10 3 -16 8q-7 3 -17 9
q-4 -30 -49 -101q-48 -70 -85 -85q27 -9 49 -26q27 33 42 56q15 21 38 59q27 45 35 51q6 9 25 19q-12 6 -22 10zM663 173l-219 1q-24 3 -26 4v-46q0 1 29 4l462 1q48 0 58 -3q1 0 6 -2v46q-34 -4 -64 -5h-208v173q181 0 191 -3q1 0 6 -2v46q-39 -4 -74 -5h-123v163
q216 0 229 -3q1 0 6 -2v47q-10 -3 -33 -4l-154 -2q45 72 53 79q13 21 45 56q13 19 24 24q7 6 24 11q-24 9 -59 32q-4 -15 -13 -31q-9 -18 -31 -47q-42 -63 -90 -124l-244 1q-18 3 -21 3l-6 2v-47q3 3 24 3q9 1 142 2h66v-163q-156 0 -175 2q-15 3 -24 3v-46q3 3 23 3
q9 1 97 2h79v-173zM609 622q21 16 25 18l-62 79q-30 39 -48 56q-18 -18 -32 -28q46 -36 109 -134q3 4 8 9zM603 61q-21 -9 -37 -14q30 -84 57 -184l38 16q-7 18 -13 37l-16 54l-15 53zM699 52q24 -42 59 -164q15 9 40 15l-51 139q0 6 -4 15q0 3 -3 10zM935 -124q4 4 17 9
q3 1 8 4q-6 18 -30 58l-32 60q-21 42 -44 78q-12 -10 -33 -23q18 -27 44 -72q6 -9 31 -59q9 -22 27 -61z" />
  </g>

</svg>
