<?xml version="1.0" standalone="no"?>
<!DOCTYPE svg PUBLIC "-//W3C//DTD SVG 1.1//EN" "http://www.w3.org/Graphics/SVG/1.1/DTD/svg11.dtd" >
<svg xmlns="http://www.w3.org/2000/svg" xmlns:xlink="http://www.w3.org/1999/xlink" version="1.1" viewBox="-10 0 1034 1024">
  <g transform="matrix(1 0 0 -1 0 820)">
   <path fill="currentColor"
d="M58 215q9 -3 15 -7l20 -13q69 58 121 121v-403q0 -39 -5 -78h49q-4 19 -5 47l-1 452q46 -46 89 -95q9 12 31 35l-111 102q21 30 42 64l34 60q15 33 29 55q3 9 8 14q-40 -1 -81 -5l-178 1l-40 4v-46q39 4 65 5h168q-46 -96 -119 -182q-72 -84 -150 -122q9 -4 19 -9z
M287 617q12 12 17 13q3 4 9 9q-24 31 -45 56l-68 68q-3 -4 -33 -34q75 -54 109 -122q4 6 11 10zM592 157q-66 -66 -144 -113q-81 -46 -151 -67q30 -18 50 -36q87 46 170 103v-143q0 -10 -23 -29l10 -14q6 -7 10 -15q0 -1 4 -6q1 -6 8 -14q21 21 56 49l62 52q18 15 38 34
l-3 48q-6 -4 -17 -18q-27 -27 -62 -54l-43 -33v173q43 36 89 83l312 -3q6 0 10 -2v43q-25 -1 -51 -5h-164v69q115 0 128 -3q4 0 8 -2v44q-18 -4 -66 -5h-70v56l155 -3q6 0 11 -2v43q-13 -1 -19 -2l-140 -3h-7q1 28 13 48h-55q3 -24 4 -48h-147q3 24 10 41q1 3 3 7h-55
q3 -24 4 -48h-103q-18 0 -65 5v-43q24 3 41 4l127 1v-56l-124 4q-4 1 -9 1v-44q24 3 41 4l92 1v-69l-167 1q-12 3 -29 4v-43q24 3 40 4zM568 190v70h147v-70h-147zM568 293v56h147v-56h-147zM422 679q-21 0 -65 5v-47q12 3 21 3q42 3 75 3l490 -3q4 0 10 -3v47
q-15 -3 -40 -4l-235 -1l22 25q-39 39 -103 79q-10 -16 -28 -35q27 -13 61 -37q12 -12 35 -32h-243zM455 586l-52 4q1 -25 5 -52q0 -46 -2 -63q-1 -3 -1 -6q0 -9 -2 -24q36 3 54 4h108q15 0 53 -4q-4 60 -5 69q0 27 5 76q-36 -3 -53 -4h-110zM577 557v-79h-133v79h133z
M713 132q-15 -6 -46 -11q33 -66 53 -99q15 -24 41 -51q63 -63 176 -103q6 12 38 48q-103 4 -186 79q27 30 67 64q39 30 65 39q-30 24 -43 44q-25 -39 -115 -119q-34 48 -50 109zM719 586q-15 0 -52 4q3 -48 4 -82q0 -15 -4 -63q36 3 52 4h119q18 0 54 -4q-3 48 -4 82
q0 15 4 63q-36 -3 -52 -4h-121zM851 557v-79h-143v79h143z" />
  </g>

</svg>
