<?xml version="1.0" standalone="no"?>
<!DOCTYPE svg PUBLIC "-//W3C//DTD SVG 1.1//EN" "http://www.w3.org/Graphics/SVG/1.1/DTD/svg11.dtd" >
<svg xmlns="http://www.w3.org/2000/svg" xmlns:xlink="http://www.w3.org/1999/xlink" version="1.1" viewBox="-10 0 1010 1000">
   <path fill="currentColor"
d="M774 18q84 98 81 105q-2 2 -30 1q-38 -2 -61 -1q-58 2 -216 24v167h220q95 0 141 -8v89q-23 -6 -141 -6h-157q115 249 345 288q-61 37 -85 99q-242 -123 -323 -387v344q0 87 10 142h-106q11 -46 12 -146v-338q-103 234 -327 393q-36 -48 -95 -67q223 -95 359 -328h-169
q-102 2 -143 8v-91q42 7 143 8h232v-157q-113 17 -258 28q-12 -52 -45 -95q327 9 613 -72z" />
</svg>
