<?xml version="1.0" standalone="no"?>
<!DOCTYPE svg PUBLIC "-//W3C//DTD SVG 1.1//EN" "http://www.w3.org/Graphics/SVG/1.1/DTD/svg11.dtd" >
<svg xmlns="http://www.w3.org/2000/svg" xmlns:xlink="http://www.w3.org/1999/xlink" version="1.1" viewBox="-10 0 1034 1024">
  <g transform="matrix(1 0 0 -1 0 820)">
   <path fill="currentColor"
d="M177 -150q-4 30 -5 66v300h313v-165q-147 -21 -222 -18q10 -24 18 -52l73 15l87 13l275 33q21 -34 38 -70q18 15 26 17q7 3 13 8l-42 69q-27 42 -66 96q-18 -13 -37 -21q9 -12 18 -23q21 -24 32 -42l1 -2l-173 -19v161h326v-265q0 -19 -3 -29q-3 -12 -21 -17
q-24 -1 -48 -5q-27 0 -59 6q12 -24 21 -56q7 0 73 10q52 7 66 27q12 18 12 61l1 268q0 16 4 41q-28 -1 -57 -5h-315v92l233 -1q18 0 46 -4q-4 52 -5 105q0 73 2 87q0 18 3 37q-31 -1 -63 -5h-216v100q141 15 184 22q69 12 93 13q27 3 63 3q-21 30 -33 58q-22 -10 -51 -20
q-36 -10 -76 -18l-64 -9q-34 -4 -57 -7q-81 -9 -184 -17q-33 -1 -96 -3q-60 -3 -92 -3q-36 0 -69 5q9 -21 15 -46l326 18v-96h-202q-7 0 -32 3q-15 0 -30 2q4 -99 5 -103q0 -60 -2 -88q-3 -3 -3 -38q15 3 52 4l212 1v-92l-314 1q-15 3 -43 4q4 -94 5 -97l-1 -279
q-3 -19 -4 -31h49zM485 527v-147h-219v147h219zM526 380v147h233v-147h-233z" />
  </g>

</svg>
