<?xml version="1.0" standalone="no"?>
<!DOCTYPE svg PUBLIC "-//W3C//DTD SVG 1.1//EN" "http://www.w3.org/Graphics/SVG/1.1/DTD/svg11.dtd" >
<svg xmlns="http://www.w3.org/2000/svg" xmlns:xlink="http://www.w3.org/1999/xlink" version="1.1" viewBox="-10 0 1010 1000">
   <path fill="currentColor"
d="M782 12q62 83 53 101q-7 5 -33 3q-36 -2 -70 -1q-68 3 -171 15q-16 2 -23 3v94h190q65 0 183 -6v79q-90 -6 -183 -6h-101q103 129 329 151q-52 53 -75 93q-210 -58 -343 -244v194q127 0 158 -3q4 -1 6 0t0 3q-5 15 -17 56q-15 51 -22 75q119 -3 164 -6q9 0 8 6v2
q-34 184 -57 215q-26 49 -177 55q-3 -51 -45 -107q114 20 131 4q21 -16 36 -73q5 -16 7 -24h-172q21 -70 37 -135h-145q1 252 -303 335q-9 -32 -50 -63q-15 -12 -24 -20q286 -21 300 -252q-48 0 -67 1q-24 1 -42 3v-73q21 1 49 1h31h43h71v-194q-119 172 -343 272
q-38 -43 -75 -68q191 -40 343 -204h-141q-67 0 -149 7q-11 1 -16 1v-81q76 5 163 6h218v-88q-61 3 -186 11q-65 5 -97 7l-30 -85q360 -4 637 -60z" />
</svg>
