<?xml version="1.0" standalone="no"?>
<!DOCTYPE svg PUBLIC "-//W3C//DTD SVG 1.1//EN" "http://www.w3.org/Graphics/SVG/1.1/DTD/svg11.dtd" >
<svg xmlns="http://www.w3.org/2000/svg" xmlns:xlink="http://www.w3.org/1999/xlink" version="1.1" viewBox="-10 0 1034 1024">
  <g transform="matrix(1 0 0 -1 0 820)">
   <path fill="currentColor"
d="M63 77q15 -6 32 -15q54 75 74 108q33 55 55 97q18 36 31 70l-4 -496q-1 -6 -2 -10h49q-4 24 -5 60v410q27 -18 60 -49q40 -42 70 -75q1 1 3 4q6 12 19 25q1 4 6 7l-86 78l-72 59v84q138 0 142 -2q18 0 22 -2q3 0 7 -1v46q-48 -4 -79 -5h-92v190l27 6q48 9 75 16l43 4
q-31 31 -34 33l-2 3q-3 3 -8 11q-45 -19 -98 -33q-78 -18 -146 -18q-24 0 -57 4q15 -21 23 -49q21 0 64 6q6 3 75 10v-183q-138 0 -166 2q-1 0 -23 3v-46q30 4 65 5h118q-15 -51 -29 -82q-15 -37 -42 -88q-39 -72 -67 -110q-28 -36 -73 -69q12 -3 25 -8zM946 -134
q10 7 44 24q-42 25 -63 42q-22 18 -52 54q-48 57 -74 104q-27 45 -55 122q-22 60 -43 159l4 295q0 42 3 62q1 13 15 34q-3 0 -64 7q4 -33 5 -82l-2 -289q-4 -114 -41 -217q-37 -97 -84 -164q-40 -55 -99 -101q-27 -19 -68 -37q13 -6 23 -12l31 -22q69 54 135 135
q81 105 126 288q27 -85 50 -137q24 -52 62 -114q55 -84 131 -160q7 4 16 9zM566 572q-27 7 -41 8q0 -39 -7 -96q-6 -51 -16 -93q-12 -48 -30 -94q30 0 49 -5q15 58 31 156q6 34 11 71q0 12 6 25q6 15 17 27q-10 1 -20 1zM771 349q21 -6 42 -19q39 73 66 130l30 63
q4 10 14 22q6 7 25 19q-3 0 -27 13q-7 4 -16 8q-12 4 -19 10q-19 -63 -44 -116q-24 -54 -41 -83q-12 -21 -30 -47v0z" />
  </g>

</svg>
