<?xml version="1.0" standalone="no"?>
<!DOCTYPE svg PUBLIC "-//W3C//DTD SVG 1.1//EN" "http://www.w3.org/Graphics/SVG/1.1/DTD/svg11.dtd" >
<svg xmlns="http://www.w3.org/2000/svg" xmlns:xlink="http://www.w3.org/1999/xlink" version="1.1" viewBox="-10 0 1034 1024">
  <g transform="matrix(1 0 0 -1 0 820)">
   <path fill="currentColor"
d="M271 -67q-4 -60 -5 -65h47q-4 19 -5 45v436q76 -63 113 -133q21 21 37 33q-84 93 -150 152v52q108 0 116 -2q7 0 24 -4v44q-12 -1 -14 -2l-126 -3v189q10 1 21 5q13 4 29 8l28 6q19 4 48 6q-3 7 -29 37q-4 7 -8 11q-25 -15 -30 -16q-31 -12 -74 -24q-96 -27 -157 -28
q-13 1 -34 3q15 -27 25 -47q72 12 144 29v-179h-112q-21 0 -46 3q3 0 -15 2v-44q48 6 68 6h97q-6 -25 -18 -58q-9 -27 -27 -63q-52 -106 -105 -173q-31 -36 -59 -55q25 -6 56 -23q45 61 90 137q45 82 71 143v-428zM704 340h-170q-34 0 -62 5v-44q49 6 96 5h136v-369
q0 -27 -3 -50q0 -6 -3 -15h49q0 3 -1 8q-3 6 -3 44l-1 382l216 -3l2 -1q3 0 6 -1v44q-24 -1 -50 -5h-174v331q186 0 193 -3l2 -1q3 0 8 -1v44l-41 -4h-369q-18 1 -30 4v-44q9 3 28 4l171 1v-331z" />
  </g>

</svg>
