<?xml version="1.0" standalone="no"?>
<!DOCTYPE svg PUBLIC "-//W3C//DTD SVG 1.1//EN" "http://www.w3.org/Graphics/SVG/1.1/DTD/svg11.dtd" >
<svg xmlns="http://www.w3.org/2000/svg" xmlns:xlink="http://www.w3.org/1999/xlink" version="1.1" viewBox="-10 0 1010 1000">
   <path fill="currentColor"
d="M740 0q93 2 111 14q0 2 -4 8q-20 29 -20 76v432q5 -1 15 -2q71 -11 108 -18l6 82h-10q-73 4 -119 8v164q0 71 7 118q1 10 1 13h-101q0 -2 2 -9q10 -51 10 -122v-154q-212 25 -290 39l-2 -83q102 -4 292 -28v-428q0 -49 -5 -98q-1 -10 -1 -12zM446 12q44 54 46 80
q-1 2 -16 2q-65 1 -153 18v164h44q41 0 88 -6q12 -2 15 -2v84q-4 0 -16 -2q-40 -6 -87 -6h-44v351q1 118 6 184h-85q7 -63 8 -184v-246q-65 148 -155 250q-20 -47 -53 -72q121 -101 194 -281h-59q-39 0 -94 6q-15 2 -18 2v-84q3 0 16 2q50 7 94 6h75v-155q-59 13 -117 26
q-12 -40 -40 -79q194 -7 351 -58zM595 102q82 102 99 140l-73 44q-54 -99 -97 -145zM573 330q44 42 104 129l-76 41q-43 -76 -93 -131zM327 443l60 -42q41 39 91 115l-71 48q-38 -73 -80 -121z" />
</svg>
