<?xml version="1.0" standalone="no"?>
<!DOCTYPE svg PUBLIC "-//W3C//DTD SVG 1.1//EN" "http://www.w3.org/Graphics/SVG/1.1/DTD/svg11.dtd" >
<svg xmlns="http://www.w3.org/2000/svg" xmlns:xlink="http://www.w3.org/1999/xlink" version="1.1" viewBox="-10 0 1010 1000">
   <path fill="currentColor"
d="M665 -2q97 2 107 14q0 1 -3 6q-21 31 -21 82v248q75 -52 137 -129q71 60 69 81q-2 3 -11 7q-23 9 -48 25q-22 15 -69 49q-51 37 -78 54v290q-1 37 10 44q8 10 50 9q41 1 51 -19q12 -16 14 -92q51 36 95 46q-23 105 -47 121q-21 24 -111 22q-104 1 -117 -16
q-22 -12 -20 -94v-561q0 -144 -8 -187zM433 14q96 1 107 10q1 2 -3 9q-17 31 -17 77v190h40q53 0 79 -4v83q-14 -3 -54 -5q-17 0 -27 -1h-38v369q66 -41 107 -83q0 63 10 93q-127 80 -181 131q-32 -53 -55 -75q40 -21 39 -85v-574q-3 -105 -7 -135zM361 24q9 16 28 45
q27 38 20 39q-4 2 -17 1q-46 0 -110 14v153h33q58 0 92 -4v82q-24 -6 -86 -6h-39v107l51 -28q52 71 94 135l-74 40q-12 -37 -71 -127v303q0 77 8 119h-88q5 -22 7 -92q1 -22 1 -33v-276q-42 101 -121 229q-35 -45 -65 -72q126 -136 178 -307h-47q-50 0 -92 6v-84q30 7 92 8
h55v-141q-34 6 -83 15q-32 5 -40 7q-11 -36 -33 -77q140 0 307 -56z" />
</svg>
