<?xml version="1.0" standalone="no"?>
<!DOCTYPE svg PUBLIC "-//W3C//DTD SVG 1.1//EN" "http://www.w3.org/Graphics/SVG/1.1/DTD/svg11.dtd" >
<svg xmlns="http://www.w3.org/2000/svg" xmlns:xlink="http://www.w3.org/1999/xlink" version="1.1" viewBox="-10 0 1034 1024">
  <g transform="matrix(1 0 0 -1 0 820)">
   <path fill="currentColor"
d="M247 -100q0 -22 -4 -51q0 -3 -3 -16h50q0 3 -1 10q-3 6 -4 30l-1 464q90 -63 128 -125q12 18 31 43q-84 79 -159 133v38q136 0 145 -2q9 0 16 -3v46q-48 -4 -84 -5h-77v198l90 16q43 9 88 11l-36 40q-4 6 -9 13q-61 -25 -126 -36q-34 -6 -79 -12q-42 -3 -68 -5
q-18 0 -52 3q10 -15 21 -37q3 -6 6 -14q9 1 33 4l84 10q3 0 11 1v-192q-123 0 -151 2q-1 0 -23 3v-46q30 4 65 5h106q-18 -60 -36 -96q-25 -51 -50 -91q-21 -36 -41 -63q-21 -27 -35 -40q-12 -12 -36 -27q30 -7 56 -23q72 94 145 229v-415zM480 168q-3 -55 -6 -67h48
q-1 4 -1 7q-3 6 -3 40l-1 48h159l-1 -307q-1 -7 -2 -36q0 -3 -3 -15h49q-4 24 -5 57v301h171q-1 -33 -3 -67q-3 -9 -3 -16h49q-4 60 -5 67l1 350l4 48q-63 -6 -93 -6h-121v133q0 12 3 31q1 18 10 33h-57q0 -6 3 -15q3 -48 3 -102v-80q-141 0 -159 2l-43 4l6 -69v-341z
M517 232v305h159v-305h-159zM714 232v305h171v-305h-171z" />
  </g>

</svg>
