<?xml version="1.0" standalone="no"?>
<!DOCTYPE svg PUBLIC "-//W3C//DTD SVG 1.1//EN" "http://www.w3.org/Graphics/SVG/1.1/DTD/svg11.dtd" >
<svg xmlns="http://www.w3.org/2000/svg" xmlns:xlink="http://www.w3.org/1999/xlink" version="1.1" viewBox="-10 0 1034 1024">
  <g transform="matrix(1 0 0 -1 0 820)">
   <path fill="currentColor"
d="M247 -110q-1 -24 -2 -41q-1 -9 -3 -18q-1 -3 -1 -7h49l-6 66v391q18 -13 35 -29l27 -27q24 -22 35 -35q4 -4 20 -25q12 22 21 31q3 3 8 10l-70 65q-37 33 -76 63v75q126 0 133 -3l2 -1q3 0 7 -1v46q-48 -4 -81 -5h-61v216q40 7 80 18q39 9 69 12q-12 12 -21 24
q-9 9 -18 25q-27 -16 -65 -28q-67 -18 -120 -27q-60 -9 -94 -9q-12 0 -38 3q21 -37 25 -48l84 11q31 3 61 10v-207q-123 0 -151 2q-1 0 -23 3v-46q51 4 106 5h64q-28 -90 -91 -191q-66 -103 -131 -146q18 -4 34 -11q9 -4 22 -10q19 19 82 107q39 58 88 149v-417zM346 -121
q24 -18 42 -30q33 18 81 59q46 40 70 69q85 102 131 243q30 -69 54 -118q25 -46 60 -92q66 -88 170 -165q18 19 47 41q-55 22 -90 48q-33 25 -79 80q-85 102 -131 234l241 -1q15 0 37 -4l2 -1v47q-10 -3 -28 -4l-67 -2l1 250q0 16 4 45q-66 -6 -95 -6h-106l2 124q3 45 21 66
q-22 1 -46 3q-18 3 -22 3q3 -57 5 -86l1 -110q-129 0 -147 2q-12 3 -40 4q1 -30 5 -62v-233q-36 0 -65 5q-3 1 -5 1v-47q48 6 76 6h159q-9 -39 -19 -65q-6 -16 -22 -49q-57 -112 -141 -185q-58 -45 -123 -61q7 -4 17 -9zM506 283v254h145l-2 -156q-3 -54 -9 -98h-134z
M681 283q9 90 9 254h158v-254h-167z" />
  </g>

</svg>
