<?xml version="1.0" standalone="no"?>
<!DOCTYPE svg PUBLIC "-//W3C//DTD SVG 1.1//EN" "http://www.w3.org/Graphics/SVG/1.1/DTD/svg11.dtd" >
<svg xmlns="http://www.w3.org/2000/svg" xmlns:xlink="http://www.w3.org/1999/xlink" version="1.1" viewBox="-10 0 1034 1024">
  <g transform="matrix(1 0 0 -1 0 820)">
   <path fill="currentColor"
d="M603 373q78 -88 153 -141q78 -54 188 -95q16 33 45 54q-135 10 -255 108q-48 39 -75 74l271 -1q6 0 14 -1l6 -3q3 0 7 -1v47q-48 -6 -65 -6h-460q24 45 46 93q369 -3 376 -5v46q-48 -4 -84 -5h-281l9 24q15 57 21 70q360 0 370 -3q4 0 8 -1q3 0 8 -1v46q-51 -4 -65 -5
h-313q3 10 7 21q10 51 36 65q-48 13 -69 19q-3 -45 -19 -105l-322 1q-7 1 -32 4v-46q30 4 64 5h282q-15 -55 -30 -94h-203q-33 0 -64 5v-46q45 4 64 5h190q-18 -42 -48 -93l-260 1q-3 1 -6 1t-42 4v-47q12 6 48 6h236q-54 -78 -150 -139q-84 -48 -156 -59q19 -15 45 -44
q54 24 94 45q34 21 72 48q84 63 147 149h192zM492 -101l-4 -55q-1 -1 -1 -4q-1 -3 -1 -7h49q0 6 -2 13l-4 50v198q291 0 302 -2q6 0 9 -2q3 0 7 -1v47q-9 -3 -15 -3l-49 -3h-254v101q16 0 29 2l74 9l61 1q-33 36 -43 51q-30 -12 -84 -19q-81 -9 -150 -9q-52 0 -92 6
q7 -13 13 -33q1 -6 3 -13l152 3v-99h-236q-24 0 -48 3q-6 0 -17 3v-47q30 4 65 5h182q-160 -159 -317 -186q24 -24 37 -45q91 39 170 89q36 25 83 63q45 39 81 74v-190zM877 -102q3 6 6 10q-48 39 -175 116q-48 30 -81 48q-9 4 -18 12q-12 -19 -23 -40q21 -9 49 -25l94 -56
l83 -57q28 -21 47 -39q9 21 17 29q0 1 1 2v0z" />
  </g>

</svg>
