<?xml version="1.0" standalone="no"?>
<!DOCTYPE svg PUBLIC "-//W3C//DTD SVG 1.1//EN" "http://www.w3.org/Graphics/SVG/1.1/DTD/svg11.dtd" >
<svg xmlns="http://www.w3.org/2000/svg" xmlns:xlink="http://www.w3.org/1999/xlink" version="1.1" viewBox="-10 0 1034 1024">
  <g transform="matrix(1 0 0 -1 0 820)">
   <path fill="currentColor"
d="M257 -83q-1 -21 -2 -52q-1 -1 -2 -5q-1 -3 -1 -6h47q-1 3 -1 5q-3 7 -4 36v441q66 -60 100 -116q6 9 13 16q3 3 17 20q-67 75 -130 129v57q117 0 127 -3q1 0 6 -2v45q-25 -1 -51 -5h-82v186q12 1 19 4q105 12 120 13q-31 37 -37 46q-49 -16 -122 -26q-66 -9 -109 -9
q-28 0 -71 8q6 -12 22 -53l141 12v-181q-124 0 -153 2q-1 0 -21 3v-45q15 3 36 4l131 1q-33 -81 -69 -156q-48 -84 -94 -138q-15 -15 -32 -27q24 -6 54 -22q48 66 67 99q48 84 81 155v-436zM668 235l-181 1q-12 1 -27 2q-6 0 -16 2v-45q39 4 62 5h162q0 -315 -3 -332
q-1 -1 -1 -5q-1 -3 -1 -7h47q-4 19 -5 48v296q229 0 240 -3q9 0 15 -2v45q-9 0 -14 -2l-49 -3h-192v441l176 -1l34 -4v45q-99 -4 -103 -5l-297 1q-7 1 -32 4v-45q42 6 70 5h115v-441zM567 320q1 0 4 2l24 13q1 0 4 3q-18 54 -68 159l-30 62q-13 -7 -27 -13q-7 -3 -11 -6
q10 -18 19 -35l25 -55q27 -61 53 -135q3 3 7 5zM822 356q25 51 44 93q21 51 30 66q0 3 6 7q6 9 26 21q-36 10 -64 23q-6 -25 -15 -45q-7 -22 -24 -63q-13 -34 -29 -62q-15 -28 -39 -65q36 -15 45 -18q9 22 20 43v0z" />
  </g>

</svg>
