<?xml version="1.0" standalone="no"?>
<!DOCTYPE svg PUBLIC "-//W3C//DTD SVG 1.1//EN" "http://www.w3.org/Graphics/SVG/1.1/DTD/svg11.dtd" >
<svg xmlns="http://www.w3.org/2000/svg" xmlns:xlink="http://www.w3.org/1999/xlink" version="1.1" viewBox="-10 0 1010 1000">
   <path fill="currentColor"
d="M556 8q103 22 113 36q0 6 -8 14q-31 30 -58 107h177q103 0 157 -6q-22 90 -72 234l-85 -14q41 -88 57 -142h-258q-5 7 -37 78q-28 64 -38 84q-37 -26 -73 -32q92 -164 125 -359zM633 304q79 2 99 16q0 3 -5 9q-13 17 -13 36v415q3 69 -25 82q-19 18 -139 27
q-11 -59 -44 -105q87 14 109 6q25 -6 24 -46v-357q0 -40 -5 -73q-1 -8 -1 -10zM498 455q74 20 95 39q0 5 -10 13q-14 12 -18 23q-4 10 -13 30q-59 144 -104 218q-31 -23 -83 -34q85 -100 133 -289zM815 463q15 19 80 126q51 83 73 118l-91 47q-33 -110 -133 -256zM300 467
l57 -38q53 59 85 121l-65 46q-34 -68 -77 -119v269q0 76 7 130q1 7 1 9h-90q0 -3 1 -14q7 -56 7 -129v-248q-49 123 -127 239q-21 -61 -55 -86q103 -96 166 -285h-35q-52 0 -101 6q-8 1 -9 1v-85q1 0 10 1q51 7 98 7h53v-137q-33 6 -89 14q-21 2 -32 4l-42 -79
q161 6 344 -58q71 65 67 85q-4 3 -18 2q-60 -4 -156 18v151h13q74 -1 104 -8v85q-30 -8 -104 -9h-13v107z" />
</svg>
