<?xml version="1.0" standalone="no"?>
<!DOCTYPE svg PUBLIC "-//W3C//DTD SVG 1.1//EN" "http://www.w3.org/Graphics/SVG/1.1/DTD/svg11.dtd" >
<svg xmlns="http://www.w3.org/2000/svg" xmlns:xlink="http://www.w3.org/1999/xlink" version="1.1" viewBox="-10 0 1034 1024">
  <g transform="matrix(1 0 0 -1 0 820)">
   <path fill="currentColor"
d="M647 -97q-3 -51 -4 -59q0 -3 -2 -7h50q0 3 -2 8q-3 9 -4 42v515q18 -54 40 -93l69 -112q76 -109 152 -181q45 30 49 33q-60 31 -130 121q-97 123 -132 213q-18 42 -28 67q-6 16 -12 31h202q21 0 51 -3q6 0 12 -3v47q-3 0 -8 -2q-15 0 -31 -2l-235 -1v196q0 9 4 30
q3 18 11 34h-58q0 -1 2 -5q0 -9 4 -59v-196l-187 2q-3 0 -16 3v-47q6 3 13 3q27 3 53 3h133q-36 -85 -73 -156q-39 -69 -91 -143q-48 -67 -79 -102q-31 -30 -59 -44q33 -12 55 -29q115 141 180 250q30 48 45 79q13 27 26 59v-492zM896 610l-76 104q-22 27 -31 39
q-18 -18 -35 -29q66 -69 107 -145q15 15 35 31zM231 -102q0 -39 -5 -65h49q-4 19 -5 51l-1 461q42 -36 71 -67q15 -15 28 -31q13 -15 28 -34q16 19 34 39q-6 6 -161 147v48q100 0 118 -2q18 0 24 -4v47q-9 -3 -23 -3q-19 0 -41 -2h-78v184q24 6 101 18q18 3 53 6
q-21 27 -34 51q-15 -7 -24 -12q-25 -9 -78 -20q-94 -18 -171 -19l-46 1q12 -21 22 -48l59 7q30 3 80 12v-180q-115 0 -146 2q-4 1 -7 1t-12 2v-47q1 0 38 5l122 1q-9 -37 -36 -99q-27 -60 -58 -116q-34 -60 -58 -93q-18 -24 -40 -39q34 -9 54 -21q66 96 143 269v-450z" />
  </g>

</svg>
