<?xml version="1.0" standalone="no"?>
<!DOCTYPE svg PUBLIC "-//W3C//DTD SVG 1.1//EN" "http://www.w3.org/Graphics/SVG/1.1/DTD/svg11.dtd" >
<svg xmlns="http://www.w3.org/2000/svg" xmlns:xlink="http://www.w3.org/1999/xlink" version="1.1" viewBox="-10 0 1010 1000">
   <path fill="currentColor"
d="M615 -2q110 0 109 10q0 2 -4 7q-26 29 -26 95v138h108q64 0 140 -6v82q-1 1 -20 -1q-54 -5 -95 -5h-91q45 232 230 361q-52 26 -77 65q-145 -130 -195 -381v213q-2 190 3 307q1 10 1 14h-81q6 -29 6 -123v-405q-51 219 -200 403q-39 -34 -94 -43q171 -136 248 -411h-51
q-68 -1 -91 4v-78q32 6 93 6h95v-138q0 -51 -6 -100q-2 -10 -2 -14zM808 46q59 81 83 117l-79 40q-25 -55 -76 -115zM397 28q66 78 59 85q-3 3 -14 2q-24 -2 -49 2q-11 2 -30 5q-69 10 -65 11v141h29q66 -1 98 -4v78q-25 -3 -40 -3q-12 -1 -52 -1h-35v99l59 -20
q49 65 87 125l-73 32q-38 -80 -73 -121v281q0 100 4 143h-88q8 -42 8 -143v-248q-32 64 -145 223q-22 -45 -49 -86q126 -116 184 -287h-45q-69 0 -109 4v-82q29 8 111 8h53v-125l-121 18q-9 -41 -38 -77q213 -10 334 -60z" />
</svg>
