<?xml version="1.0" standalone="no"?>
<!DOCTYPE svg PUBLIC "-//W3C//DTD SVG 1.1//EN" "http://www.w3.org/Graphics/SVG/1.1/DTD/svg11.dtd" >
<svg xmlns="http://www.w3.org/2000/svg" xmlns:xlink="http://www.w3.org/1999/xlink" version="1.1" viewBox="-10 0 1010 1000">
   <path fill="currentColor"
d="M591 -2q79 25 97 42q0 6 -13 16q-28 21 -46 50q158 0 215 -1q56 -1 63 -5q-84 205 -228 293q61 16 77 30q-1 6 -13 14q-26 16 -49 42q151 0 241 -11q4 -1 5 -1q-103 392 -517 430q-19 -41 -58 -83q194 -6 290 -68q-21 -31 -76 -91l60 -47q35 33 79 99q70 -65 109 -167
l-192 6q-94 99 -161 145q-26 -32 -75 -58q141 -59 256 -224q-85 47 -199 79q-20 -41 -53 -71q87 -6 214 -65q-42 -49 -77 -80l61 -45q43 48 74 85q61 -53 113 -139h-201q-52 62 -115 131q-29 -34 -65 -48q126 -90 184 -258zM397 36q62 77 59 91q-1 4 -14 2q-59 -7 -144 16
v141h14q46 0 95 -7q10 -1 12 -1v84q-1 0 -8 -1q-42 -7 -99 -7h-14v123l57 -34q44 42 89 111l-69 42q-24 -50 -77 -106v229q0 106 7 164q1 8 1 10h-92q0 -3 1 -15q5 -68 5 -155v-231q-64 145 -125 227l-63 -76q102 -77 184 -289h-37q-50 0 -105 7q-12 1 -14 1v-84q3 0 15 2
q50 6 102 6h43v-125q-42 7 -94 17q-9 2 -13 3q-11 -27 -37 -64q-10 -15 -9 -17q132 12 330 -64z" />
</svg>
