<?xml version="1.0" standalone="no"?>
<!DOCTYPE svg PUBLIC "-//W3C//DTD SVG 1.1//EN" "http://www.w3.org/Graphics/SVG/1.1/DTD/svg11.dtd" >
<svg xmlns="http://www.w3.org/2000/svg" xmlns:xlink="http://www.w3.org/1999/xlink" version="1.1" viewBox="-10 0 1034 1024">
  <g transform="matrix(1 0 0 -1 0 820)">
   <path fill="currentColor"
d="M821 357q-45 -39 -78 -64q-42 -30 -77 -52q-3 0 -3 -1l5 -57l-259 1q-9 1 -17 2q-3 0 -12 2v-46q34 4 53 5h235v-217q0 -30 -14 -36q-16 -6 -41 -6q-37 0 -71 8q9 -27 15 -54q66 0 109 12q39 10 40 62v231l264 -3l2 -1q1 0 5 -1v46q-9 -3 -22 -3q-19 0 -41 -2h-208v34
q96 72 185 148l38 33q-60 -4 -62 -5l-401 2l-18 3v-46q7 3 55 5h318zM563 650q18 0 37 4q51 6 107 17q52 9 91 18q61 13 91 14q10 0 31 -2q-24 27 -41 57q-30 -13 -71 -27q-75 -19 -157 -32q-103 -13 -164 -14q-34 0 -71 7q12 -21 25 -54q3 0 32 4zM488 605q-9 -7 -17 -12
q-6 -4 -19 -10l41 -63q27 -48 41 -81q0 -1 2 -5q19 13 41 23zM704 511l-51 119q-21 -12 -40 -19q9 -13 32 -65q18 -43 28 -74q27 13 41 17q-6 12 -10 22zM721 445q24 -10 48 -23q18 24 70 102q0 4 19 31q15 25 29 33q7 6 22 14q-4 3 -53 38q-22 -54 -55 -102
q-25 -37 -43 -58q-12 -15 -37 -35zM240 -92q0 -36 -5 -62h48q0 1 -1 5q-3 6 -3 44l-1 451q19 -15 76 -75q12 -13 26 -36q13 18 33 34q-24 27 -56 57l-79 76v60q109 0 125 -2q9 0 18 -3v46q-1 0 -61 -5h-82v189q16 1 85 13l58 -1q-18 27 -29 56q-39 -13 -79 -22
q-108 -18 -175 -18q-21 0 -55 4q16 -27 29 -52q15 1 27 4q60 4 101 11v-184q-126 0 -147 2l-17 3v-46q12 3 46 4l105 1q-27 -93 -87 -201q-60 -105 -106 -131q27 -9 41 -16q3 0 17 -9q25 39 62 103q21 36 38 70q18 36 48 101v-471z" />
  </g>

</svg>
