<?xml version="1.0" standalone="no"?>
<!DOCTYPE svg PUBLIC "-//W3C//DTD SVG 1.1//EN" "http://www.w3.org/Graphics/SVG/1.1/DTD/svg11.dtd" >
<svg xmlns="http://www.w3.org/2000/svg" xmlns:xlink="http://www.w3.org/1999/xlink" version="1.1" viewBox="-10 0 1034 1024">
  <g transform="matrix(1 0 0 -1 0 820)">
   <path fill="currentColor"
d="M469 -75q-3 -36 -3 -51q-1 -1 -1 -5q-1 -3 -1 -8h47q-3 7 -4 33l-1 68h397q-1 -42 -3 -84l-3 -16h49q-1 3 -1 5q-3 4 -5 54l1 329q1 24 5 50l-60 -6l-375 1q-15 4 -40 5h-7q1 -33 5 -67v-308zM506 -3v261h397v-261h-397zM837 420q28 -1 59 -5q-4 49 -5 73l1 182l4 46
q-30 -1 -59 -5l-283 1q-15 3 -46 4q1 -33 5 -66l-1 -195q-1 -3 -4 -37v-3q49 4 98 5h231zM550 456v219h303v-219h-303zM165 215q39 64 93 164l-1 -486q-1 -10 -2 -24l-2 -11h48q0 3 -1 6q-3 6 -3 43l-1 455q27 -22 82 -81q10 -12 27 -40q13 18 33 35q-19 21 -48 50
q-33 34 -94 92v52q72 0 151 -3q3 0 9 -2v46q-7 -1 -13 -3q-12 0 -50 -2h-97v195q96 15 115 15q22 0 46 -2q-15 31 -25 58q-36 -15 -72 -21q-63 -9 -124 -17q-27 -3 -62 -5q-30 -1 -48 -2q-18 0 -48 3q15 -24 28 -50q15 3 32 5l87 8q21 1 33 5v-192l-149 1q-24 3 -26 4v-46
q10 3 59 5h109q-6 -25 -30 -77q-25 -51 -68 -121q-61 -100 -111 -127q30 -12 53 -30q13 18 21 29q24 36 49 71v0z" />
  </g>

</svg>
