<?xml version="1.0" standalone="no"?>
<!DOCTYPE svg PUBLIC "-//W3C//DTD SVG 1.1//EN" "http://www.w3.org/Graphics/SVG/1.1/DTD/svg11.dtd" >
<svg xmlns="http://www.w3.org/2000/svg" xmlns:xlink="http://www.w3.org/1999/xlink" version="1.1" viewBox="-10 0 1034 1024">
  <g transform="matrix(1 0 0 -1 0 820)">
   <path fill="currentColor"
d="M232 317q7 15 18 29l-3 -493q-1 -1 -1 -5q-1 -3 -3 -7h50q-3 33 -5 65v426q30 -24 67 -65q39 -42 48 -59q12 12 17 19q6 9 18 17q-75 75 -150 140v57q75 0 157 -4l2 -1v46q-48 -4 -83 -5h-76v190l85 18q36 9 60 5q1 1 5 0q-24 27 -41 54q-42 -21 -68 -28l-22 -5l-35 -7
q-49 -9 -52 -10l-85 -10q-15 0 -24 -1q-12 0 -39 3q22 -24 32 -45l146 20v-184l-148 1q-6 0 -33 4v-46q30 4 65 5h112q-30 -78 -98 -184q-58 -90 -123 -133q28 -12 49 -27q33 39 68 84q37 51 54 78zM725 237v-309q0 -36 31 -54q18 -9 76 -10q70 0 101 15q28 15 41 58l12 56
q-30 15 -48 29q0 -21 -2 -36q-1 -36 -9 -52q-12 -30 -78 -30q-60 0 -74 11q-12 10 -12 37v285q75 0 88 -2q19 0 40 -3q-4 54 -5 77l1 187l4 47q-55 -4 -82 -5h-65l91 147q18 30 50 46q-3 1 -9 4q-3 3 -9 6t-10 4l-37 19q-36 -96 -120 -226l-174 1q-4 0 -48 4q4 -66 5 -102
l-1 -163q-3 -12 -4 -46q57 4 89 5h18q0 -12 -12 -97q-15 -69 -54 -131q-64 -97 -176 -121q19 -12 49 -41q97 54 152 126q63 87 83 264h98zM522 273v229h326v-229h-326zM535 734q-7 -4 -12 -8q-15 -9 -17 -12q36 -43 52 -67q36 -52 51 -81q6 3 14 11l25 19q-7 12 -15 22
q-7 9 -13 18l-53 70q-9 13 -26 34z" />
  </g>

</svg>
