<?xml version="1.0" standalone="no"?>
<!DOCTYPE svg PUBLIC "-//W3C//DTD SVG 1.1//EN" "http://www.w3.org/Graphics/SVG/1.1/DTD/svg11.dtd" >
<svg xmlns="http://www.w3.org/2000/svg" xmlns:xlink="http://www.w3.org/1999/xlink" version="1.1" viewBox="-10 0 1010 1000">
   <path fill="currentColor"
d="M623 0q102 1 113 10q0 1 -4 7q-28 33 -28 93v186h98q56 -1 101 -10q-14 58 -14 95v379v24q32 101 -159 115q-5 -46 -40 -105q21 8 51 9q32 1 51 -5t18 -48v-63h-280v83q0 82 8 119h-96q8 -39 8 -117v-389q0 -60 -8 -95q38 7 112 8h75v-224q-1 -53 -6 -72zM335 30
q3 4 10 11q64 71 58 72q-1 1 -13 0q-19 -1 -33 0q-36 2 -81 14v157q86 0 127 -8v80q-33 -7 -127 -8v125l53 -32q49 57 94 133l-70 41q-35 -80 -77 -127v280q0 92 8 121h-88q8 -25 8 -121v-295q-70 162 -125 230q-13 -45 -49 -84q81 -75 172 -269h-35q-76 1 -109 8v-82
q36 7 111 8h35v-141q3 0 -5 0q-28 5 -112 28q-7 -37 -45 -75q160 -3 293 -66zM849 44q64 36 91 62q0 1 -6 4q-25 17 -41 35q-38 44 -81 103q-22 -27 -64 -39q68 -81 101 -165zM498 58q33 47 81 149l-79 33q-30 -80 -79 -152zM530 358v103h280v-103h-280zM530 524v99h280v-99
h-280z" />
</svg>
