<?xml version="1.0" standalone="no"?>
<!DOCTYPE svg PUBLIC "-//W3C//DTD SVG 1.1//EN" "http://www.w3.org/Graphics/SVG/1.1/DTD/svg11.dtd" >
<svg xmlns="http://www.w3.org/2000/svg" xmlns:xlink="http://www.w3.org/1999/xlink" version="1.1" viewBox="-10 0 1010 1000">
   <path fill="currentColor"
d="M605 -13q97 17 97 31q-1 4 -6 8q-25 15 -49 78h149q93 0 123 -6q-7 70 -8 139v160q1 77 6 121q-27 -6 -94 -6h-49v129h55q95 -3 117 -6v86q-19 -5 -113 -8h-59v91q1 74 10 105h-96q9 -38 10 -105v-91h-244q-62 0 -95 6v-86q29 7 91 8h28q59 -71 87 -129h-55q-57 -3 -81 4
q5 -37 6 -131v-156q0 -100 -6 -129q25 3 105 6h39q27 -62 32 -119zM359 20q54 63 52 82q-3 4 -12 2q-42 -7 -119 17v151h28q58 0 85 -4v78q-21 -6 -87 -6h-28v440q0 85 8 127h-98q10 -27 10 -127v-290q-42 127 -123 225q-15 -47 -51 -82q107 -94 166 -293h-31q-5 1 -28 2
q-54 2 -73 6v-82q17 6 99 6h45v-139q-39 8 -105 18q-9 -28 -40 -69q-2 -2 -3 -4q145 1 305 -58zM645 169h-135v107h125q6 -35 10 -107zM835 169h-117q-2 29 -8 91q-1 11 -2 16h127v-107zM835 338h-135q-16 79 -29 109h164v-109zM627 338h-117v107h85q24 -54 32 -107z
M698 512h-57q-38 69 -81 129h138v-129zM343 403q27 37 78 135l-74 38q-30 -87 -63 -135z" />
</svg>
