<?xml version="1.0" standalone="no"?>
<!DOCTYPE svg PUBLIC "-//W3C//DTD SVG 1.1//EN" "http://www.w3.org/Graphics/SVG/1.1/DTD/svg11.dtd" >
<svg xmlns="http://www.w3.org/2000/svg" xmlns:xlink="http://www.w3.org/1999/xlink" version="1.1" viewBox="-10 0 1010 1000">
   <path fill="currentColor"
d="M607 -4q97 16 95 26q-1 6 -7 10q-5 3 -8 6q89 185 277 260q-39 37 -61 81q-190 -119 -252 -281q-62 133 -199 281q13 2 40 3q12 1 30 1h51h145q83 -1 141 -10q-1 3 -4 9q-55 133 -89 188q-2 -1 -9 -3q-59 -21 -72 -21q34 -40 61 -95h-159q-106 0 -139 6v-74l-23 24
q-23 -35 -56 -53q-27 -6 -81 -6v97l55 -30q4 6 14 22q57 87 72 115l-72 38q-8 -18 -21 -44q-24 -57 -48 -83v325q0 90 6 117h-92q7 -33 8 -119v-282q-54 125 -113 227q-29 -41 -65 -68q111 -104 172 -313h-49q-78 2 -97 8v-82q19 3 97 6h55v-147q-101 15 -131 22
q-8 -35 -33 -75q156 5 319 -60q69 61 64 80q-2 2 -11 1q-49 -2 -130 18v159q49 0 93 -6v50q164 -118 226 -328zM677 227q4 21 14 64q7 34 11 51l-81 10q-8 -75 -28 -114zM609 518q75 63 129 131l-71 48q-36 -70 -113 -137zM847 594q69 73 123 158l-81 48q-29 -80 -105 -167z
M401 621q76 8 81 16q1 3 -2 9q-10 19 -16 53q-3 16 -11 61q-10 62 -15 80q-31 -15 -81 -18q39 -85 44 -201zM512 635q103 12 97 18q0 2 -3 5q-17 17 -17 69v61q-9 38 74 34q54 1 66 -15q13 -11 25 -86q28 33 81 55q-24 81 -53 97q-30 23 -121 22q-93 0 -120 -14
q-27 -12 -25 -59v-89q0 -60 -4 -98z" />
</svg>
