<?xml version="1.0" standalone="no"?>
<!DOCTYPE svg PUBLIC "-//W3C//DTD SVG 1.1//EN" "http://www.w3.org/Graphics/SVG/1.1/DTD/svg11.dtd" >
<svg xmlns="http://www.w3.org/2000/svg" xmlns:xlink="http://www.w3.org/1999/xlink" version="1.1" viewBox="-10 0 1010 1000">
   <path fill="currentColor"
d="M558 -4q105 21 101 32q0 6 -12 14q-15 9 -24 20q-7 8 -17 21q-14 16 -19 23h123q84 1 145 -10q8 2 6 8q-49 79 -115 146h38q79 -1 113 -6q-5 44 -6 129v92q0 92 6 129q-86 -5 -139 -6h-204q-84 0 -112 4v-72q17 4 110 4h260v-77h-237q-89 0 -115 4v-68q28 4 115 4h237
v-71h-241q-52 0 -109 4v-54q-18 23 -29 30l-78 -42q137 -100 203 -258zM365 38l52 68q-18 4 -71 13q-45 8 -64 12v161q39 0 107 -4v74q-27 -4 -107 -4v97l43 -28q45 59 86 113l-64 52q-29 -67 -65 -105v263q0 64 1 94q1 34 3 55h-78q0 -5 1 -18q5 -87 5 -133v-293
q-44 138 -111 252q-8 -14 -18 -34q-18 -40 -35 -52q72 -55 154 -265h-41q-38 0 -96 4v-70q33 4 96 4h51v-149q-88 17 -117 24l-45 -71q156 -13 313 -60zM736 157h-180q-46 54 -82 89q28 6 95 6h94q19 -18 73 -95zM704 619q23 50 44 123l-75 16q-16 -72 -38 -123zM873 633
q85 122 107 167l-83 40q-31 -84 -95 -171zM510 649q94 4 99 16q0 5 -7 16q-10 16 -11 26q-1 15 -2 32v51q-1 28 24 38q18 7 62 6q38 0 51 -8q34 -21 38 -82q42 41 77 56q-19 83 -85 99q-107 21 -189 -6q-56 -22 -53 -71q0 -119 -4 -173zM391 651l87 24q-45 140 -73 202
q-37 -25 -84 -25q51 -109 70 -201z" />
</svg>
