<?xml version="1.0" standalone="no"?>
<!DOCTYPE svg PUBLIC "-//W3C//DTD SVG 1.1//EN" "http://www.w3.org/Graphics/SVG/1.1/DTD/svg11.dtd" >
<svg xmlns="http://www.w3.org/2000/svg" xmlns:xlink="http://www.w3.org/1999/xlink" version="1.1" viewBox="-10 0 1034 1024">
  <g transform="matrix(1 0 0 -1 0 820)">
   <path fill="currentColor"
d="M515 -71q13 9 28 18q19 15 50 24q-27 24 -45 44q-18 -25 -100 -87q-75 -51 -118 -63q21 -19 40 -39l21 15l63 43zM458 70q-81 0 -110 3q-3 0 -9 2v-47l39 5l535 1q16 0 50 -3q7 0 13 -3v47q-9 -3 -23 -3q-19 0 -40 -2h-60l1 437l4 47q-27 -1 -56 -5h-150q3 42 8 82
l263 -1l31 -4v46q-9 -3 -23 -3q-18 0 -40 -2h-229q6 82 29 113q-30 0 -65 6l-1 -99q-1 -9 -2 -20l-227 1q-12 1 -30 4v-46q6 0 13 3l148 2h94l-6 -82q-102 0 -126 2q-6 3 -36 3q1 -30 5 -61v-423zM495 196v79h320v-79h-320zM495 311v83h320v-83h-320zM815 513v-83h-320v83
h320zM495 70v90h320v-90h-320zM854 -52q-88 72 -98 81q-6 -9 -30 -36q103 -66 189 -160q13 21 32 38q-18 13 -24 20zM108 127q24 46 44 75q4 9 12 18q33 67 70 131l-1 -492q0 -3 -4 -25h49q-4 15 -5 37l-1 474q37 -36 66 -65q24 -30 51 -65q12 21 31 41l-148 143v62
q100 0 117 -2q6 0 24 -4v47q-19 -3 -23 -4l-118 -1v192q90 18 102 18q19 0 40 -2q-18 22 -28 40q0 3 -5 9q-40 -12 -89 -21q-39 -6 -87 -11q-45 -3 -85 -4q-18 0 -51 4q16 -27 26 -50q63 3 139 13v-188q-147 0 -166 3q-3 0 -9 2v-47q1 0 38 5l133 1q-30 -97 -98 -213
q-60 -102 -96 -124q19 -6 48 -22q3 -1 7 -3q7 15 17 28v0z" />
  </g>

</svg>
