<?xml version="1.0" standalone="no"?>
<!DOCTYPE svg PUBLIC "-//W3C//DTD SVG 1.1//EN" "http://www.w3.org/Graphics/SVG/1.1/DTD/svg11.dtd" >
<svg xmlns="http://www.w3.org/2000/svg" xmlns:xlink="http://www.w3.org/1999/xlink" version="1.1" viewBox="-10 0 1034 1024">
  <g transform="matrix(1 0 0 -1 0 820)">
   <path fill="currentColor"
d="M604 231q9 9 17 18q30 33 62 51q-21 10 -30 17q-10 6 -24 18q-33 -52 -66 -88q-37 -42 -62 -65q-27 -22 -61 -47q-30 -21 -77 -38q22 -21 41 -42q106 75 172 140h221q-39 -76 -122 -144q-24 18 -56 50q-12 12 -24 28q-1 3 -13 17l-3 -3q-4 0 -13 -10q-12 -12 -19 -17
l57 -58q18 -18 38 -35q-16 -12 -29 -20q-36 -24 -97 -55q-81 -34 -135 -35q-10 0 -27 2q16 -21 31 -52q30 6 57 15q27 7 55 18q45 18 82 38q39 22 99 63q57 -37 113 -62q31 -13 70 -28q42 -15 96 -32q12 24 22 38q6 6 12 16q-64 1 -148 29q-78 30 -135 68q30 25 81 84
q49 64 79 126q-30 -1 -61 -5h-203zM609 414q-9 6 -22 20l296 -1l42 -4q-3 28 -5 58l1 213l4 44q-30 -1 -60 -5l-377 1q-25 3 -44 4q1 -33 5 -67l-1 -206q-3 -12 -4 -42q51 4 105 5h15q-39 -54 -111 -104q-27 -18 -57 -27q24 -18 41 -40l103 83q42 39 49 42q3 4 26 13
q3 1 8 3q-7 6 -14 10zM486 470v93h177v-93h-177zM486 599v104h177v-104h-177zM700 470v93h182v-93h-182zM700 599v104h182v-104h-182zM932 267l21 25q-93 72 -184 136q-12 -19 -24 -34q30 -18 105 -75q27 -21 59 -52q4 -6 12 -14q4 7 11 14zM239 -86q0 -39 -5 -64h49
q-3 6 -6 58v431l46 -39q21 -18 38 -39q9 18 17 26q1 4 9 13q-9 7 -16 14q-3 3 -94 75v52q93 0 108 -2q15 0 23 -4v47l-103 -5h-28v208q6 0 16 2q72 15 80 15l29 -1q-7 10 -14 21q-10 18 -17 33q-39 -15 -87 -28q-39 -7 -83 -13q-42 -6 -71 -6q-15 0 -40 4q1 -3 4 -9
q3 -9 8 -19q4 -12 8 -23l95 12q0 1 34 5v-201q-130 0 -146 3l-13 2v-47q7 3 28 4q12 1 126 2q-12 -39 -54 -129q-49 -102 -94 -144q-37 -36 -60 -48q24 -9 33 -17q7 -3 21 -13q57 70 94 127q30 49 65 131v-434z" />
  </g>

</svg>
