<?xml version="1.0" standalone="no"?>
<!DOCTYPE svg PUBLIC "-//W3C//DTD SVG 1.1//EN" "http://www.w3.org/Graphics/SVG/1.1/DTD/svg11.dtd" >
<svg xmlns="http://www.w3.org/2000/svg" xmlns:xlink="http://www.w3.org/1999/xlink" version="1.1" viewBox="-10 0 1010 1000">
   <path fill="currentColor"
d="M548 -6q84 6 97 16q1 2 -4 8q-12 16 -16 38q-5 37 -12 65h143q-17 -36 -56 -73l60 -38q14 14 65 76l-57 35h47q81 -1 116 -8v76q-28 -7 -114 -8h-107v46q-4 41 26 45q29 5 69 3q32 -1 42 -9q24 -20 22 -69q32 34 73 43q-15 71 -63 84q-43 9 -111 9q-56 -1 -85 -11
q-32 -13 -36 -64v-77h-46q-34 100 -141 155q55 2 60 10q0 4 -4 11q-8 17 -8 36q192 -13 335 -49q43 56 42 65q-31 0 -54 4q-170 17 -323 24v10q-3 32 26 40q57 15 167 12q112 -5 138 -22q30 -22 30 -62q36 32 77 40q-19 67 -83 85q-53 16 -177 17q-126 0 -192 -15
q-55 -12 -54 -65v-131q-16 9 -31 12q-15 -31 -46 -62q119 -32 165 -115h-30q-67 1 -115 8v-76q41 7 115 8h44q14 -65 6 -127zM429 576q44 8 103 8h240q63 -1 99 -8q-7 33 -8 71v207q1 25 4 43h-85q0 -3 2 -11q4 -17 4 -30h-276q-1 23 4 37h-83q4 -13 4 -35v-209
q-1 -43 -8 -73zM512 639v52h276v-52h-276zM512 746v54h276v-54h-276zM359 336q-2 0 -8 -1q-30 -7 -75 -7v113l49 -22q53 76 82 133l-74 32q-23 -69 -59 -119v321q1 83 8 111h-84q7 -31 8 -111v-319q-34 111 -113 224q-26 -57 -41 -79q92 -94 146 -286h-41q-60 0 -97 8v-76
q20 8 97 8h51v-133q-46 8 -121 26q-1 -2 -3 -7q-16 -39 -40 -60q174 -7 303 -76q47 55 56 82q-31 0 -52 4q-24 3 -75 19v145q57 0 83 -8v78z" />
</svg>
