<?xml version="1.0" standalone="no"?>
<!DOCTYPE svg PUBLIC "-//W3C//DTD SVG 1.1//EN" "http://www.w3.org/Graphics/SVG/1.1/DTD/svg11.dtd" >
<svg xmlns="http://www.w3.org/2000/svg" xmlns:xlink="http://www.w3.org/1999/xlink" version="1.1" viewBox="-10 0 1010 1000">
   <path fill="currentColor"
d="M845 12q43 49 70 94q7 11 -21 7q-55 -8 -98 -3q-29 3 -109 12q-153 16 -247 25q-1 -29 -5 -40q-4 -13 -18 -37q239 -3 428 -58zM343 24q41 37 74 84q-59 2 -122 19q-13 4 -21 6v141q38 0 59 -1q25 -2 58 -7v82q-26 -3 -51 -3q-20 -1 -68 -1v121l55 -30q60 68 80 115
l-70 36q-27 -68 -65 -107v236q0 103 6 170h-86q6 -65 6 -176v-240q-52 165 -105 246q-19 -44 -57 -84q96 -111 156 -287q-87 -1 -138 8v-80q26 2 59 3q16 1 36 1h51v-127l-109 26q-13 -46 -37 -77q125 -3 289 -74zM829 147l15 6q73 27 89 40q-55 68 -112 167
q-34 -18 -77 -26q69 -93 85 -187zM671 161q21 53 45 155l-81 18q-8 -78 -36 -151zM488 191l66 133l-78 30q-25 -84 -57 -137zM605 375q39 45 44 64q5 14 -19 13q-22 -1 -35 1q-22 4 -61 9q-24 3 -34 5v99q93 0 137 -4v65q-39 -4 -135 -4v110h323v-110q-75 0 -135 4v-67
q44 4 135 4v-99q-87 0 -135 8v-76q37 6 106 6q70 0 109 -4q-6 39 -6 95v250q-1 83 6 123h-84q4 -26 4 -73h-321q-1 46 6 81h-87q6 -45 6 -119v-250q1 -46 -6 -95q83 -3 182 -36z" />
</svg>
