<?xml version="1.0" standalone="no"?>
<!DOCTYPE svg PUBLIC "-//W3C//DTD SVG 1.1//EN" "http://www.w3.org/Graphics/SVG/1.1/DTD/svg11.dtd" >
<svg xmlns="http://www.w3.org/2000/svg" xmlns:xlink="http://www.w3.org/1999/xlink" version="1.1" viewBox="-10 0 1034 1024">
  <g transform="matrix(1 0 0 -1 0 820)">
   <path fill="currentColor"
d="M55 104q13 -1 33 -10q37 54 67 102l96 159q0 -471 -3 -495q-1 -1 -1 -5q0 -3 -3 -7h50q-3 33 -5 65v437q58 -39 100 -85q7 18 14 25q0 1 10 13q-18 18 -76 61l-48 35v45l109 -1q19 0 26 -3q3 0 7 -1v46q-48 -4 -81 -5h-61v208q6 0 56 13q24 3 51 5q10 0 27 -1
q-24 25 -36 52q-34 -13 -64 -23q-39 -10 -102 -20q-46 -7 -70 -10q-12 -1 -25 -2q-13 0 -38 3q19 -30 27 -47q12 0 22 3q18 4 38 7q15 3 32 4l44 8v-200q-133 0 -164 2q-1 0 -23 3v-46q30 4 65 5h118q-51 -114 -129 -229q-52 -76 -92 -105zM377 220q21 -12 40 -28
q24 19 47 41l107 104q10 9 30 15q-37 24 -44 31q-3 3 -6 5q-84 -114 -174 -168zM471 -158q73 13 115 23q37 9 90 25q94 27 207 96q36 24 48 30q16 9 40 11q-34 28 -47 43q-21 -19 -42 -36q-18 -15 -42 -29q-81 -51 -212 -91q-111 -30 -182 -30l-32 1q19 -21 35 -47
q10 3 22 4zM793 217q3 1 9 5q16 7 39 10l-45 46q-60 -55 -166 -99q-132 -48 -206 -48q21 -21 36 -45l119 33q42 13 86 32q42 18 80 39zM453 -13q9 -15 21 -31q52 12 93 25q40 10 106 39q57 24 95 48q21 12 86 53q15 9 43 14q-9 6 -43 41q-42 -36 -100 -71q-66 -39 -111 -56
q-114 -42 -204 -46q6 -7 14 -16zM463 422q49 4 98 5h98l-3 -198q-1 -1 -2 -5q-1 -3 -1 -7h50q-3 30 -5 60v150l159 -1l52 -4q-4 54 -5 106q0 121 2 135q0 21 3 42q-36 -1 -71 -5h-190q24 48 65 68l-38 11q-12 6 -27 15q-1 -3 -28 -64q-6 -12 -17 -30q-81 0 -104 2
q-6 3 -36 3q1 -34 5 -71l-1 -164q-3 -15 -4 -48zM505 463v83h361v-83h-361zM505 582v83h361v-83h-361zM773 347q16 -7 31 -16q18 -10 42 -27q58 -37 101 -81q12 18 26 42l-176 120q-9 -21 -24 -38v0z" />
  </g>

</svg>
