<?xml version="1.0" standalone="no"?>
<!DOCTYPE svg PUBLIC "-//W3C//DTD SVG 1.1//EN" "http://www.w3.org/Graphics/SVG/1.1/DTD/svg11.dtd" >
<svg xmlns="http://www.w3.org/2000/svg" xmlns:xlink="http://www.w3.org/1999/xlink" version="1.1" viewBox="-10 0 1034 1024">
  <g transform="matrix(1 0 0 -1 0 820)">
   <path fill="currentColor"
d="M623 400q-234 0 -248 3l-13 2v-47q6 3 13 3q27 3 52 3h487q21 0 49 -3q6 0 12 -3v47q-10 -1 -22 -4l-290 -1v210h194q21 0 51 -3q6 0 12 -3v47q-1 0 -60 -5h-197v62q0 30 13 64h-59q6 -63 6 -93v-33l-185 1q-12 1 -30 4v-47q6 3 13 3q27 3 53 3h149v-210zM781 121l4 41
q0 6 1 18q-27 -1 -55 -5q-120 0 -146 2q-6 3 -34 3q1 -28 5 -58q0 -52 -2 -77q-3 -3 -3 -29q46 4 91 5q100 0 114 -2q15 0 30 -3q-4 45 -5 88v17zM593 57v82h151v-82h-151zM439 -102l-4 -59q0 -3 -1 -6h49q-4 15 -6 60v12h393q0 -36 -5 -67h48q-3 6 -4 29l-1 357q1 33 5 66
l-61 -6l-372 1q-30 4 -46 5q1 -31 5 -64v-328zM477 -59v306h393v-306h-393zM471 571q-19 -19 -23 -20q-3 -3 -9 -7q73 -79 94 -116q12 15 33 29q-19 25 -41 51zM743 460q18 -10 27 -18q3 -3 7 -6q76 106 79 108q9 10 23 20q-24 12 -49 32q-9 -24 -23 -45q-15 -24 -41 -63
q-9 -13 -23 -28zM224 -106q0 -30 -5 -65h49q-3 9 -4 27q0 18 -2 38v426q60 -60 102 -119q12 21 31 38l-133 139v66q85 0 103 -2q15 0 23 -4v47q-9 -3 -23 -3q-18 0 -41 -2h-62v188q4 0 15 2l55 10q24 4 57 5q-10 13 -35 50q-28 -12 -67 -21q-78 -16 -123 -20q-30 0 -58 -1
q-9 0 -35 3q16 -27 25 -49q57 4 128 17v-184q-108 0 -139 2q-4 1 -7 1t-12 2v-47q1 0 38 5l115 1q-1 -4 -47 -125q-10 -19 -18 -36q-39 -70 -63 -103q-24 -30 -48 -44q16 -7 29 -13q10 -6 25 -13q37 60 64 106q25 48 63 123v-445z" />
  </g>

</svg>
