<?xml version="1.0" standalone="no"?>
<!DOCTYPE svg PUBLIC "-//W3C//DTD SVG 1.1//EN" "http://www.w3.org/Graphics/SVG/1.1/DTD/svg11.dtd" >
<svg xmlns="http://www.w3.org/2000/svg" xmlns:xlink="http://www.w3.org/1999/xlink" version="1.1" viewBox="-10 0 1034 1024">
  <g transform="matrix(1 0 0 -1 0 820)">
   <path fill="currentColor"
d="M112 509l-4 -49q-1 -3 -1 -6h48q-4 27 -5 55v102h731l-3 -141q-1 -1 -2 -7h48q-4 45 -5 66q0 79 2 92q0 15 3 31q-28 -1 -58 -5h-290q4 13 22 36l-65 46l-79 49q-10 -18 -27 -39q82 -33 143 -92l-420 1q-3 0 -43 4q1 -27 5 -55v-88zM828 413q-13 -1 -27 -2q-18 -3 -27 -4
h-527q-43 0 -65 6v-47q24 6 65 6h538v-123l-519 1q-15 3 -41 4v-58l-7 -96q0 -10 -5 -29q-1 -12 -3 -26q30 3 61 5h577q-6 -57 -13 -90q-13 -57 -59 -74q-33 -13 -87 -14q-46 0 -101 12q13 -27 19 -50q123 0 175 14q45 12 66 43q21 33 32 105l9 61q3 18 7 34q-49 -4 -56 -5
h-586l9 127l526 -1q9 0 39 -4q-4 48 -5 95q0 69 2 78q0 9 2 13q0 10 1 19zM196 474q21 -16 38 -41q78 33 155 74q40 24 66 32q3 3 16 4q7 0 16 5q-24 19 -45 45q-72 -57 -137 -86q-54 -25 -109 -33zM592 551q43 -12 114 -49l65 -38q18 -12 38 -31q3 9 15 27q3 4 8 12
q-99 63 -221 120q-7 -21 -19 -41v0z" />
  </g>

</svg>
