<?xml version="1.0" standalone="no"?>
<!DOCTYPE svg PUBLIC "-//W3C//DTD SVG 1.1//EN" "http://www.w3.org/Graphics/SVG/1.1/DTD/svg11.dtd" >
<svg xmlns="http://www.w3.org/2000/svg" xmlns:xlink="http://www.w3.org/1999/xlink" version="1.1" viewBox="-10 0 1034 1024">
  <g transform="matrix(1 0 0 -1 0 820)">
   <path fill="currentColor"
d="M505 -72l-394 1q-6 1 -7 1q-12 1 -26 3v-46q-3 0 9 1q72 3 106 4l725 -1q7 0 18 -2q1 0 14 -2v46q-39 -4 -66 -5h-337v259h217q27 0 52 -3q1 0 14 -2v46q-39 -4 -66 -5l-526 1q-6 1 -7 1q-12 1 -25 3v-46q31 3 65 5h234v-259zM127 510q0 -42 -6 -67h49q-4 34 -5 78v72
h702v-78q0 -39 -6 -67h50q-6 31 -6 56q0 75 2 88l4 42q-36 -1 -71 -5l-669 1q-19 3 -50 4q6 -66 6 -102v-22zM465 478q-27 21 -43 38q-57 -73 -148 -144q-75 -54 -153 -87q21 -15 37 -40q42 24 96 61q82 60 145 122q30 28 39 34t34 11q-4 3 -7 5zM534 720l-29 19
q-16 9 -39 24q-13 -21 -30 -39q111 -61 148 -92q15 21 32 37q-3 3 -82 51zM578 468q102 -57 183 -109q72 -48 141 -105q16 24 32 40q-51 39 -113 81l-212 132q-12 -21 -31 -39v0z" />
  </g>

</svg>
