<?xml version="1.0" standalone="no"?>
<!DOCTYPE svg PUBLIC "-//W3C//DTD SVG 1.1//EN" "http://www.w3.org/Graphics/SVG/1.1/DTD/svg11.dtd" >
<svg xmlns="http://www.w3.org/2000/svg" xmlns:xlink="http://www.w3.org/1999/xlink" version="1.1" viewBox="-10 0 1034 1024">
  <g transform="matrix(1 0 0 -1 0 820)">
   <path fill="currentColor"
d="M416 543q-15 15 -23 28q-57 -49 -118 -95q-18 -13 -42 -29l-50 -28q-57 -30 -76 -34q15 -12 36 -37q66 36 118 70q34 21 71 49q57 42 73 47q10 6 27 9zM116 628l4 -69q0 -61 -3 -81q-1 -1 -1 -4q-1 -1 -1 -5h50q-6 12 -6 41l-1 85h723v-53q0 -40 -5 -64h48q-3 15 -4 30
l1 96q0 15 3 32q-30 -1 -60 -5l-709 1q-3 0 -40 4q0 -3 1 -8zM823 307q9 19 20 39q-25 -1 -36 -4q-18 -1 -31 -2h-370q37 54 50 67q13 15 42 34q-27 15 -56 35q-82 -157 -218 -286q-22 -19 -60 -42q27 -13 36 -20q3 -1 13 -9q91 93 168 185h389q-66 -165 -216 -262l-78 84
l-78 78q-13 -15 -32 -31q49 -43 90 -86l42 -47l20 -21q-67 -51 -194 -93q-127 -40 -210 -41q19 -21 39 -51l125 33q45 12 87 29q171 63 296 174q75 64 136 185q12 27 26 52zM487 696q36 -21 71 -46q10 21 25 35q-42 27 -112 68q-9 6 -25 14q-3 -3 -7 -10q-6 -10 -16 -24z
M608 523q30 -12 58 -26q31 -15 78 -40l106 -61q28 -18 49 -37q7 12 10 18q6 9 15 24q-81 46 -91 52q-7 3 -19 10l-185 97q-7 -18 -21 -37v0z" />
  </g>

</svg>
