<?xml version="1.0" standalone="no"?>
<!DOCTYPE svg PUBLIC "-//W3C//DTD SVG 1.1//EN" "http://www.w3.org/Graphics/SVG/1.1/DTD/svg11.dtd" >
<svg xmlns="http://www.w3.org/2000/svg" xmlns:xlink="http://www.w3.org/1999/xlink" version="1.1" viewBox="-10 0 1034 1024">
  <g transform="matrix(1 0 0 -1 0 820)">
   <path fill="currentColor"
d="M470 195q-18 -63 -45 -105q-27 -40 -86 -93q-109 -94 -269 -125q19 -9 39 -28q6 -7 11 -12l65 24q21 7 37 16q87 40 161 109q96 87 129 214h18q43 -120 157 -218q94 -84 237 -139q9 25 43 50q-72 12 -127 39q-121 61 -189 143q-54 64 -75 125h281q24 0 52 -3q1 0 14 -2
v46q-39 -4 -66 -5h-340q3 33 6 56q1 16 2 30l3 41q0 16 2 31q6 22 20 42q-9 0 -21 -1q-21 0 -44 4q1 -31 2 -52q0 -60 -12 -151l-336 1q-6 1 -7 1q-12 1 -26 3v-46q45 4 66 5h298zM138 651q1 -36 5 -73q0 -63 -3 -88q-1 -7 -2 -15h48q-4 34 -5 126v9h688v-61q-1 -24 -2 -49
q0 -7 -3 -18h48q0 3 -1 8q0 3 -4 62q0 37 3 76q0 12 2 23q-33 -1 -67 -5h-271q9 16 15 24q3 3 9 10l-133 82q-12 -19 -27 -38l80 -45q19 -12 46 -33l-377 1q-19 3 -49 4zM434 553q-7 6 -15 11q-39 -48 -111 -105q-87 -66 -168 -96q16 -10 45 -37l134 91q13 12 31 24
q37 30 65 55t58 29q-19 13 -39 28zM813 442q-7 6 -10 7l-82 51l-118 72q-9 -18 -15 -27q0 1 -9 -11l52 -27l89 -53q93 -58 146 -103q9 22 22 41zM603 359q100 -57 141 -102q10 22 26 41l-67 46l-72 51q-12 -18 -28 -36v0z" />
  </g>

</svg>
