<?xml version="1.0" standalone="no"?>
<!DOCTYPE svg PUBLIC "-//W3C//DTD SVG 1.1//EN" "http://www.w3.org/Graphics/SVG/1.1/DTD/svg11.dtd" >
<svg xmlns="http://www.w3.org/2000/svg" xmlns:xlink="http://www.w3.org/1999/xlink" version="1.1" viewBox="-10 0 1010 1000">
   <path fill="currentColor"
d="M589 322q108 0 105 10q0 2 -3 6q-23 30 -26 115h107q65 0 101 -6q-8 54 -23 216q-10 99 -13 123q8 80 -174 99q-5 -56 -48 -103q87 11 111 2q26 -6 34 -47q13 -54 22 -219h-119q-20 273 -232 395q-33 -36 -90 -57q243 -93 248 -338h-55q-41 -1 -68 8v-77q39 4 70 4h55
v-69q-1 -32 -2 -62zM308 383q0 3 -6 6q-46 24 -115 121l121 -4q61 -77 87 -129q100 31 95 46q-1 2 -6 3q-15 2 -26 13q-24 26 -79 87q-115 130 -175 189l157 -24l-34 -58l70 -25q45 77 81 152l-71 36l-18 -50q-150 26 -280 70q-18 -56 -38 -91q75 -25 189 -152q4 -5 6 -7
q-61 -1 -159 20q-13 -48 -30 -88q59 7 159 -156q74 28 72 41zM601 185q189 70 258 107l-75 64q-90 -57 -240 -112zM389 195q87 54 85 67q-1 7 -18 7q-33 -2 -63 9q-23 8 -71 25q-83 30 -120 43q-33 -42 -69 -70q130 -4 256 -81zM536 -15q7 28 27 86q6 18 8 25h219
q87 0 131 -6q-8 24 -8 59v28q-1 57 4 71h-98q8 -29 8 -87h-492h-158q0 46 1 64q1 23 3 37h-96q6 -25 6 -65v-42q0 -32 -4 -67q38 9 111 8h278q-18 -47 -47 -92z" />
</svg>
