<?xml version="1.0" standalone="no"?>
<!DOCTYPE svg PUBLIC "-//W3C//DTD SVG 1.1//EN" "http://www.w3.org/Graphics/SVG/1.1/DTD/svg11.dtd" >
<svg xmlns="http://www.w3.org/2000/svg" xmlns:xlink="http://www.w3.org/1999/xlink" version="1.1" viewBox="-10 0 1034 1024">
  <g transform="matrix(1 0 0 -1 0 820)">
   <path fill="currentColor"
d="M499 -80l-414 3q-3 1 -12 2v-46q60 4 66 5l778 -1l33 -4v46q-39 -4 -66 -5h-347v119l260 -1q4 0 38 -4v46q-39 -4 -66 -5h-232v107l119 5q103 7 126 8q33 -24 53 -44q1 -1 5 -6q13 27 29 40q-15 7 -37 25q-105 73 -156 106l-22 16q-12 -19 -27 -35q75 -45 105 -71
q-42 -1 -84 -5l-108 -3q-114 -6 -197 -6q-22 0 -44 -1q88 69 117 94l39 36q12 9 26 22l385 -1l40 -4v43q-9 -1 -14 -2l-95 -3l-629 1q-6 1 -7 1q-12 1 -25 3v-43q15 3 35 4l250 1q-48 -45 -113 -97q-43 -33 -59 -41q-21 -10 -42 -14q7 -22 13 -46q18 3 35 5q21 0 59 3
q63 4 185 8v-106l-279 1q-6 1 -7 1q-12 1 -26 3v-46q60 4 66 5h246v-119zM117 633q6 -60 6 -83q0 -39 -5 -74q-1 -1 -1 -4h49q-1 10 -4 21l-2 92v7h720v-50q0 -36 -5 -67h49q-1 4 -1 8q0 3 -4 61l4 71q0 7 1 18q-66 -4 -105 -5h-244q7 15 26 39q-25 19 -149 102
q-13 -21 -30 -41q78 -37 147 -100l-404 1q-19 3 -48 4zM417 516q18 7 44 9q-25 27 -39 48q-43 -30 -106 -62q-39 -19 -58 -26q-25 -7 -66 -16q24 -21 36 -44q60 27 142 68q22 12 47 23zM591 532q31 -9 106 -45q72 -34 108 -61q10 21 23 40q-54 30 -134 70l-81 39
q-10 -24 -22 -43v0z" />
  </g>

</svg>
