<?xml version="1.0" standalone="no"?>
<!DOCTYPE svg PUBLIC "-//W3C//DTD SVG 1.1//EN" "http://www.w3.org/Graphics/SVG/1.1/DTD/svg11.dtd" >
<svg xmlns="http://www.w3.org/2000/svg" xmlns:xlink="http://www.w3.org/1999/xlink" version="1.1" viewBox="-10 0 1010 1000">
   <path fill="currentColor"
d="M913 381v88q-48 -8 -103 -8h-197l-18 103h171q15 0 46 -2q19 -2 25 -2l6 10q-8 41 -17 137q-9 98 -18 123q-28 54 -175 63q-8 -41 -58 -95q102 7 141 -8q28 -12 40 -159h-157q-18 0 -85 6q20 -130 22 -178q-41 0 -94 8v-86q10 1 29 3q47 5 63 5h274q42 0 105 -8zM528 4
q20 48 34 115h232q72 0 111 -7q-10 77 4 158h-103q8 -20 7 -81h-623q0 69 4 93h-101q17 -97 2 -170q25 7 93 7h288q-17 -42 -49 -99zM103 407q4 0 12 1q67 7 97 7h105q26 0 87 -6q11 -1 17 -2v85q-54 -7 -102 -7h-27v220l162 -34l-8 79l-339 78l-36 -86l147 -25v-232
q-42 0 -115 7v-85zM389 223q73 47 75 63q-19 0 -45 14q-80 36 -213 85q-19 -33 -61 -61q152 -37 244 -101zM597 219q71 22 242 91l-59 69q-110 -68 -232 -99z" />
</svg>
