<?xml version="1.0" standalone="no"?>
<!DOCTYPE svg PUBLIC "-//W3C//DTD SVG 1.1//EN" "http://www.w3.org/Graphics/SVG/1.1/DTD/svg11.dtd" >
<svg xmlns="http://www.w3.org/2000/svg" xmlns:xlink="http://www.w3.org/1999/xlink" version="1.1" viewBox="-10 0 1034 1024">
  <g transform="matrix(1 0 0 -1 0 820)">
   <path fill="currentColor"
d="M304 -79q-3 -48 -4 -63q-1 -1 -1 -5h49q-3 13 -4 36v19h463q-1 -21 -3 -45q0 -3 -1 -5h48q-1 3 -1 5q-3 7 -4 36l1 158l4 47q-31 -1 -63 -5l-458 3q24 33 52 84l388 -1l48 -4q-4 54 -5 79v50q114 0 121 -3q3 0 10 -2v44q-27 -4 -66 -5h-65q0 76 2 89q0 16 3 34
q-54 -4 -65 -5l-539 3q-3 1 -13 2v-45q24 4 63 5h128q-1 -42 -9 -83l-291 2q-6 3 -14 3v-44q25 4 66 5h234q-3 -21 -8 -37q-4 -18 -18 -53l-138 3q-6 1 -14 2v-44q6 3 21 3l87 2h29q-39 -69 -128 -148q-78 -64 -156 -89q24 -12 50 -35q117 75 198 157l3 -88v-62zM344 -58
v123h463v-123h-463zM396 220q0 6 5 19q10 36 14 51q1 10 4 20h355v-90h-378zM424 344q9 66 9 83h341v-83h-350zM134 556q0 -40 -6 -65h50l-2 8q-1 3 -4 57v63h691l-2 -105q-3 -6 -4 -17h49q0 3 -1 8q-3 7 -4 33l1 79l4 41l-68 -6h-245q6 16 17 30l-156 67q-13 -19 -26 -36
q64 -18 148 -61l-397 1q-24 4 -51 5q6 -60 6 -91v-11zM345 515q22 13 47 25l35 16q16 9 47 16q-24 16 -43 34q-21 -15 -91 -52q-69 -31 -121 -43q18 -15 34 -39q45 22 92 43zM620 593q-10 6 -22 11q-10 -18 -23 -33q105 -34 206 -99q1 3 4 8q9 15 19 26q-1 0 -20 9
q-58 30 -93 46q-31 15 -71 32v0z" />
  </g>

</svg>
