<?xml version="1.0" standalone="no"?>
<!DOCTYPE svg PUBLIC "-//W3C//DTD SVG 1.1//EN" "http://www.w3.org/Graphics/SVG/1.1/DTD/svg11.dtd" >
<svg xmlns="http://www.w3.org/2000/svg" xmlns:xlink="http://www.w3.org/1999/xlink" version="1.1" viewBox="-10 0 1034 1024">
  <g transform="matrix(1 0 0 -1 0 820)">
   <path fill="currentColor"
d="M273 337l-4 -37q-1 -9 -1 -19q18 1 27 2q21 3 31 3h166q-1 -9 -2 -25q-1 -33 -5 -55l-271 1q-19 3 -48 4q4 -60 5 -68l-1 -242l-4 -35h47q-4 24 -5 54v251h271q-21 -73 -84 -131q-60 -49 -122 -66q18 -10 42 -36q39 22 59 38q15 10 29 22q51 45 90 103q168 -105 206 -153
q3 3 7 12q6 10 13 21q1 1 3 4q3 3 6 8l-115 79q-49 33 -104 64q4 21 6 23l3 12h313v-194q0 -42 -20 -53q-19 -13 -60 -14q-21 0 -54 4q9 -13 15 -34l5 -15q57 4 82 10q69 19 69 97v171q0 10 2 33q1 16 3 35q-21 -1 -34 -2q-24 -3 -33 -3h-283l8 80l187 -1q16 0 45 -4
q-6 54 -6 80q0 40 3 81q0 15 3 27q-28 -1 -58 -5l-396 1l-22 3l51 30l31 19q46 30 58 34q15 7 34 11q-30 21 -42 32q-4 4 -9 7q-51 -49 -149 -101q-72 -36 -136 -50q19 -18 35 -42l111 51zM309 321v108h411v-108h-411zM141 576q0 -40 -5 -66h47q-3 24 -4 50l-1 79h677v-56
q-1 -24 -2 -49q0 -7 -3 -18h47q-3 6 -5 69q0 43 5 94q-30 -1 -59 -5h-266q7 12 22 27q-10 7 -20 15l-111 75q-12 -18 -33 -37q81 -45 117 -80h-348q-9 0 -34 3q-12 0 -29 2q1 -30 5 -61v-42zM578 598q-7 -12 -9 -15q0 3 -5 -9q-3 -4 -8 -12q31 -9 78 -30q46 -19 87 -38
q90 -45 120 -70l24 40q-21 12 -49 26q-4 3 -164 78z" />
  </g>

</svg>
