<?xml version="1.0" standalone="no"?>
<!DOCTYPE svg PUBLIC "-//W3C//DTD SVG 1.1//EN" "http://www.w3.org/Graphics/SVG/1.1/DTD/svg11.dtd" >
<svg xmlns="http://www.w3.org/2000/svg" xmlns:xlink="http://www.w3.org/1999/xlink" version="1.1" viewBox="-10 0 1034 1024">
  <g transform="matrix(1 0 0 -1 0 820)">
   <path fill="currentColor"
d="M98 643q3 -72 4 -74l-4 -87q-1 -3 -1 -7h48q0 6 -1 9q-3 6 -3 28l-1 100h747v-63q0 -34 -5 -67h48q-6 51 -5 85q1 42 5 86q-33 -1 -67 -5l-720 1q-15 3 -46 4q0 -4 1 -10zM576 651q1 3 5 9q7 12 20 27q-30 21 -73 47l-69 44q-9 -15 -19 -28q-1 -1 -6 -8q69 -34 142 -91z
M102 416q16 -18 31 -38q69 31 112 54q39 21 85 50q31 21 65 41q19 12 45 17q-30 27 -41 41q-70 -58 -141 -98q-106 -55 -156 -67zM348 133q31 30 38 38q16 18 35 37h268q-9 -12 -22 -26q-84 -81 -91 -87l-122 80q-12 -21 -26 -37q24 -10 34 -17l65 -40l16 -10
q-111 -69 -218 -88q15 -13 20 -18q7 -9 14 -23q13 6 29 12q66 27 108 48q36 18 82 46q40 -30 67 -61q10 21 25 42l-39 27q-9 7 -21 16q15 12 28 26q36 34 65 66q28 33 65 85l-67 -6h-252q30 33 35 40q13 15 38 21q-19 10 -46 29q-1 0 -6 5q-40 -66 -116 -144
q-39 -36 -59 -47q22 -13 39 -30q6 9 14 16zM237 -174q-3 18 -4 52v21h568q0 -51 -4 -68v-2h47q0 3 -5 74l1 436l4 48q-18 -1 -35 -3q-25 -3 -36 -3h-302q9 13 11 16q12 24 31 48q10 18 39 24q-33 16 -58 34q-6 -7 -24 -48q-12 -24 -42 -74l-189 1q-6 1 -48 5q1 -33 5 -67
l-1 -439q-3 -24 -4 -55h46zM801 345v-410h-568v410h568zM613 548l55 -28q27 -15 68 -40q82 -48 135 -92q9 18 23 37q-37 25 -142 91q-3 3 -89 53q-12 7 -24 16q-9 -19 -26 -37v0z" />
  </g>

</svg>
