<?xml version="1.0" standalone="no"?>
<!DOCTYPE svg PUBLIC "-//W3C//DTD SVG 1.1//EN" "http://www.w3.org/Graphics/SVG/1.1/DTD/svg11.dtd" >
<svg xmlns="http://www.w3.org/2000/svg" xmlns:xlink="http://www.w3.org/1999/xlink" version="1.1" viewBox="-10 0 1034 1024">
  <g transform="matrix(1 0 0 -1 0 820)">
   <path fill="currentColor"
d="M436 379q0 12 3 29q1 18 12 35h-58q0 -1 1 -5q0 -1 1 -4q0 -39 3 -80l-2 -164q-1 -7 -1 -17q-223 -93 -293 -95q12 -24 23 -51q16 9 89 37l175 66q-36 -144 -178 -218q-78 -37 -133 -41q27 -27 38 -48q33 12 67 30q46 21 78 41q25 15 50 35q58 51 88 110q36 78 37 222
v118zM172 320q97 -51 157 -95l7 14q3 10 16 28q-9 6 -19 11l-83 49q-24 13 -56 30q-9 -18 -22 -37zM600 137l58 -20l80 -32q75 -31 125 -67q9 21 23 49q-1 0 -145 59l-141 53v202q0 10 3 30q3 19 12 34h-58q0 -3 5 -64l1 -438q3 -33 23 -52q25 -24 109 -24l114 2q55 4 84 23
q22 16 46 70q6 15 14 31q-27 12 -51 27q-3 -45 -13 -68q-15 -28 -50 -40q-27 -6 -113 -7q-54 0 -77 4q-22 4 -34 16q-15 15 -15 48v164zM718 258q16 13 33 26q48 39 53 41q12 7 31 14q-22 24 -35 45q-21 -22 -77 -71q-48 -40 -87 -68q15 -15 27 -33q12 9 18 14q18 16 37 32z
M178 381q4 1 41 20q72 39 113 69q21 12 43 29q12 6 39 13q-18 15 -41 45q-52 -49 -136 -100q-93 -54 -153 -62q19 -21 32 -41q9 3 25 11q18 9 37 16zM92 528l-4 -58q-1 -1 -1 -5h49q-3 6 -4 26q0 18 -2 37v63h734v-53q0 -37 -3 -52q0 -3 -3 -12h49q-3 6 -4 36l1 90
q0 16 3 33l-62 -6l-719 1q-4 1 -7 1q-15 0 -32 4q4 -99 5 -102v-3zM420 722q103 -58 130 -83q12 25 20 33q3 3 8 7q-48 27 -129 78l-19 12l-8 -12q-3 -7 -8 -12l-10 -14q7 -4 16 -9zM876 430l-85 42l-134 58l-54 26q-6 -15 -10 -22l-12 -17q27 -9 56 -21l88 -38
q60 -27 96 -47q33 -18 51 -32q3 12 8 17q3 4 14 25z" />
  </g>

</svg>
