<?xml version="1.0" standalone="no"?>
<!DOCTYPE svg PUBLIC "-//W3C//DTD SVG 1.1//EN" "http://www.w3.org/Graphics/SVG/1.1/DTD/svg11.dtd" >
<svg xmlns="http://www.w3.org/2000/svg" xmlns:xlink="http://www.w3.org/1999/xlink" version="1.1" viewBox="-10 0 1010 1000">
   <path fill="currentColor"
d="M534 -13q16 51 28 95h265q39 0 92 -10q-12 86 2 163h-90q6 -19 6 -86h-672q0 76 6 91h-94q20 -74 4 -168q45 6 98 10h285q-11 -40 -33 -84zM595 165q120 37 272 99l-55 72q-6 -12 -28 -24q-7 21 -8 57v70q0 23 6 69q-54 -6 -84 -6h-154l-10 60h226q70 -1 97 -4
q-8 37 -8 85v185q2 41 -27 56q-30 17 -118 25q-3 -38 -37 -93q108 18 99 -26v-167h-242l-12 32q117 44 200 83l-67 68q-76 -61 -169 -103q-67 81 -172 133q-20 -34 -66 -68q144 -29 208 -145h-228v139q0 119 6 131h-95q1 -7 2 -21q6 -75 6 -104v-131q0 -40 -8 -81q66 6 95 6
h238q6 -33 6 -60h-162q-22 0 -83 8h-3q6 -30 6 -77v-60q0 -15 -7 -49q-1 -4 -1 -6l-57 24q-20 -32 -62 -64q126 -18 272 -109q44 27 71 58q-32 7 -51 15q-32 14 -80 37q-31 15 -49 23h426q51 -3 62 -6q-122 -54 -212 -77zM694 363h-390v78h390v-78z" />
</svg>
