<?xml version="1.0" standalone="no"?>
<!DOCTYPE svg PUBLIC "-//W3C//DTD SVG 1.1//EN" "http://www.w3.org/Graphics/SVG/1.1/DTD/svg11.dtd" >
<svg xmlns="http://www.w3.org/2000/svg" xmlns:xlink="http://www.w3.org/1999/xlink" version="1.1" viewBox="-10 0 1034 1024">
  <g transform="matrix(1 0 0 -1 0 820)">
   <path fill="currentColor"
d="M120 564q-3 -33 -5 -66h49q-4 24 -5 43l-1 75h703v-50q0 -31 -6 -66h50q0 4 -2 8q-3 7 -4 32l-1 48q0 10 4 35l3 34q-21 -1 -33 -3q-25 -3 -33 -3h-262q7 15 23 34q-27 19 -60 41l-86 51q-10 -15 -29 -36q48 -24 83 -46q15 -9 30 -21t28 -23l-403 1q-7 1 -16 2
q-15 1 -32 3q4 -70 5 -93zM439 551q-21 18 -46 46q-46 -40 -160 -97q-55 -24 -115 -39q24 -24 33 -43q93 42 172 85q58 33 78 40q15 6 38 8zM219 -58q0 3 -4 48v13h270v-104q0 -37 -5 -68h48q-6 60 -5 103v69h288v-16q0 -25 -4 -46h47q-4 30 -5 70q0 130 2 142q0 21 3 42
q-33 -1 -68 -5h-263v76l224 -1q15 0 49 -4q-6 60 -6 87q0 48 3 72q0 12 3 29q-36 -1 -72 -5h-201q0 58 3 61q1 13 12 25h-58q0 -3 1 -8q3 -72 4 -78l-211 1q-25 3 -45 4l5 -101q-3 -42 -5 -87q33 3 67 5h189v-76h-244q-9 0 -35 3q-15 0 -33 2q1 -34 5 -70l-5 -183h46z
M215 38v116h270v-116h-270zM271 302v106h214v-106h-214zM523 38v116h288v-116h-288zM523 302v106h229v-106h-229zM633 584q-12 6 -28 13q-7 -18 -22 -38q13 -3 43 -15l87 -41q63 -30 102 -52l59 -39q10 25 22 41q-99 54 -133 70q-69 34 -130 61v0z" />
  </g>

</svg>
