<?xml version="1.0" standalone="no"?>
<!DOCTYPE svg PUBLIC "-//W3C//DTD SVG 1.1//EN" "http://www.w3.org/Graphics/SVG/1.1/DTD/svg11.dtd" >
<svg xmlns="http://www.w3.org/2000/svg" xmlns:xlink="http://www.w3.org/1999/xlink" version="1.1" viewBox="-10 0 1010 1000">
   <path fill="currentColor"
d="M381 199l9 6q80 51 72 57q-1 3 -25 9q-38 10 -54 19q-138 74 -224 111q-14 -43 -62 -75q173 -30 284 -127zM583 203q187 66 296 115q-36 30 -58 63q-107 -71 -293 -121q31 -27 55 -57zM363 336q100 0 105 10q0 3 -4 11q-18 32 -18 86v149q13 221 -295 313
q-22 -42 -72 -85q284 -35 294 -214q-123 45 -240 113q-23 -59 -48 -98q66 2 290 -73v-86q-1 -26 -2 -41q-3 -52 -10 -85zM520 338q79 -1 105 8q1 3 -4 10q-20 28 -20 77v111q12 4 34 10q254 75 224 73l-46 80q-149 -78 -212 -107v117q-1 55 19 65q10 6 31 8q16 2 69 2
q94 2 109 -14q22 -10 32 -85q31 37 83 47q-25 97 -58 109q-29 22 -168 20q-141 2 -163 -20q-32 -17 -29 -118v-306q0 -51 -6 -87zM758 399q80 34 81 58q-2 4 -12 3q-19 -1 -35 11q-6 4 -22 14q-47 30 -87 57q-31 -36 -62 -52q74 -25 137 -91zM244 401q16 18 50 60
q27 32 41 49l-79 36q-27 -55 -81 -107zM536 6q23 56 37 104h252q53 0 86 -8q-4 19 -4 73v40q0 53 2 63h-101q5 -8 6 -27q1 -13 1 -78h-162h-431h-51q0 68 4 103h-98q6 -36 6 -83v-26q0 -48 -4 -65q53 8 139 8h256q-12 -36 -41 -92z" />
</svg>
