<?xml version="1.0" standalone="no"?>
<!DOCTYPE svg PUBLIC "-//W3C//DTD SVG 1.1//EN" "http://www.w3.org/Graphics/SVG/1.1/DTD/svg11.dtd" >
<svg xmlns="http://www.w3.org/2000/svg" xmlns:xlink="http://www.w3.org/1999/xlink" version="1.1" viewBox="-10 0 1010 1000">
   <path fill="currentColor"
d="M554 10q5 18 14 60q4 21 7 32h248q16 0 66 -5q19 -2 30 -3q-12 61 0 152h-84q6 -19 6 -81h-434q56 55 53 73q-2 4 -18 5q-17 0 -27 3q-19 4 -77 23q-87 28 -138 41q-11 -38 -43 -64q139 -16 242 -81h-218q1 53 4 68h-84q13 -77 4 -137q42 6 83 6h302q-8 -33 -32 -84z
M583 179q65 14 254 81l-55 62q-107 -53 -242 -85zM236 308q79 -1 93 12q0 5 -7 13q-9 10 -10 17t-2 24q-1 14 -2 23q58 0 111 -6v74q-40 -8 -115 -8q0 41 -6 83h25q34 0 101 -7q3 -1 5 -1v74q-59 -9 -104 -8h-31l-4 17q110 70 164 112l-67 57q-66 -74 -119 -111
q-44 91 -137 187q-33 -29 -87 -48q128 -65 178 -216h-28q-50 -1 -113 8v-70q71 8 109 8h42q4 -52 4 -85q-65 -3 -137 6v-72q63 10 137 10v-93zM462 322q7 1 25 3q36 5 55 5h234q59 0 81 -6q-6 29 -6 77v147q0 51 8 111h-91q8 -28 8 -113v-155h-236v155q0 116 6 129h-86
q8 -82 8 -127v-147q0 -12 -6 -79zM621 425q79 -1 97 10q0 4 -8 12q-15 16 -16 30q-1 10 -4 41q-6 74 -13 111q79 5 79 14q0 4 -7 12q-13 18 -13 34v57q-3 40 9 49q11 11 57 11q42 2 56 -16q16 -19 21 -75q38 32 77 45q-10 64 -36 88q-22 24 -77 23h-77q-67 1 -83 -18
q-17 -14 -16 -83v-97q-60 144 -250 216q-25 -37 -78 -67q170 -38 232 -117q29 -38 40 -102q6 -31 8 -72q2 -35 2 -106z" />
</svg>
