<?xml version="1.0" standalone="no"?>
<!DOCTYPE svg PUBLIC "-//W3C//DTD SVG 1.1//EN" "http://www.w3.org/Graphics/SVG/1.1/DTD/svg11.dtd" >
<svg xmlns="http://www.w3.org/2000/svg" xmlns:xlink="http://www.w3.org/1999/xlink" version="1.1" viewBox="-10 0 1034 1024">
  <g transform="matrix(1 0 0 -1 0 820)">
   <path fill="currentColor"
d="M181 -109q72 27 172 79q66 37 146 105l-1 -212q0 -1 -4 -23h49q-3 6 -4 26q0 18 -2 37v167q60 -42 120 -79q40 -21 92 -44q72 -28 175 -62q13 27 31 50q-6 0 -32 2q-58 3 -173 51q-99 42 -198 117q348 0 370 -3q3 0 9 -3v47q-10 -1 -22 -4l-372 -1v74l226 -1q19 -1 41 -5
q-4 49 -5 95q0 114 2 124q0 18 3 37q-27 -1 -56 -5h-480l-35 4q1 -31 5 -65l-1 -150q-3 -7 -4 -33v-7q54 6 60 6h206v-74q-372 0 -391 3q-3 0 -9 2v-47q1 0 38 5l336 1q-69 -61 -140 -101q-99 -54 -164 -72q-48 -12 -85 -15q21 -24 36 -49q9 3 21 8zM275 353v70h224v-70
h-224zM275 251v66h224v-66h-224zM761 423v-70h-224v70h224zM537 251v66h224v-66h-224zM296 531l-96 -20q-1 1 -2 0q12 -18 20 -32l4 -9q90 27 171 54l52 16q18 3 43 8q-18 18 -36 43q-18 -10 -35 -18q-16 -7 -43 -16zM123 621q3 -24 3 -81q0 -36 -4 -61q-1 -1 -1 -5
q-1 -1 -1 -5h50q-3 6 -4 27q0 18 -2 36v74h698v-61q0 -39 -4 -51q0 -3 -2 -13h50q-3 7 -4 15q0 -3 -2 12l-1 82q1 19 5 40q0 7 2 18q-18 -1 -32 -3q-22 -3 -30 -3h-268q7 18 20 33q-54 30 -93 49q-6 1 -36 17l-30 16q-7 -18 -20 -37q81 -30 144 -78l-401 1q-15 4 -40 5z
M802 480q1 4 4 9q1 1 3 5q0 1 13 21q-207 67 -239 80q0 -1 -13 -27q0 -3 -7 -11q15 -3 192 -60q15 -6 44 -21q1 3 3 4v0z" />
  </g>

</svg>
