<?xml version="1.0" standalone="no"?>
<!DOCTYPE svg PUBLIC "-//W3C//DTD SVG 1.1//EN" "http://www.w3.org/Graphics/SVG/1.1/DTD/svg11.dtd" >
<svg xmlns="http://www.w3.org/2000/svg" xmlns:xlink="http://www.w3.org/1999/xlink" version="1.1" viewBox="-10 0 1034 1024">
  <g transform="matrix(1 0 0 -1 0 820)">
   <path fill="currentColor"
d="M545 521q-28 15 -58 33q-12 -24 -34 -48q-37 -36 -84 -73q-51 -39 -92 -60q-141 -78 -227 -78q12 -15 18 -25q6 -6 16 -27q12 6 27 12q138 52 232 112q73 48 153 122q76 -76 134 -111q73 -45 180 -77l133 -34q10 27 29 51q-72 1 -138 18q-132 34 -209 91q-66 46 -100 84
q9 6 20 10zM307 295q1 0 38 5l285 1q39 0 57 -4q1 0 5 -2v47l-96 -5l-259 1l-18 2q-3 0 -12 2v-47zM192 -104q0 -22 -5 -64h49q-3 9 -4 27l-2 134h248v-79q0 -22 -6 -29q-10 -10 -43 -11q-28 0 -57 6q9 -24 14 -49q48 0 72 6q30 4 44 18q13 18 14 47l1 292q0 21 4 45
q-27 -1 -56 -5l-241 1q-3 1 -34 4h-3q1 -30 5 -62v-281zM478 92v-63h-248v63h248zM230 128v70h248v-70h-248zM675 -31l-4 26l-2 137q0 52 8 68q1 6 6 12h-57q1 -39 5 -80q0 -124 -2 -147l-3 -16h49zM784 259q4 -19 5 -65v-273q0 -27 -12 -35q-13 -9 -43 -10q-18 0 -57 6
q12 -36 15 -52q64 3 94 13q27 9 36 29q4 13 5 44v278q0 15 3 30q1 15 11 35h-57zM184 470q10 -12 24 -34q1 -1 6 -8q30 15 62 35l95 60q31 22 66 36q-18 19 -38 44q-36 -39 -96 -79q-61 -36 -119 -54zM110 544l-4 -59q0 -3 -1 -5h49q-3 6 -4 27q-1 19 -2 37v73h728
q0 -88 -2 -111l-3 -17h48q0 6 -3 15q0 -3 -1 12l-1 84l4 40q0 4 1 19q-21 -1 -31 -4q-21 -3 -30 -3l-713 1q-28 4 -40 6l5 -101v-14zM512 692q24 -15 51 -35q6 9 9 12q6 6 16 18l-22 14l-109 72q-12 -15 -27 -31q7 -4 14 -10zM700 496q79 -49 106 -78l1 3q6 12 9 15
q6 9 17 26l-147 89l-45 26q-3 0 -14 8q-7 -16 -24 -35q25 -12 60 -32z" />
  </g>

</svg>
