<?xml version="1.0" standalone="no"?>
<!DOCTYPE svg PUBLIC "-//W3C//DTD SVG 1.1//EN" "http://www.w3.org/Graphics/SVG/1.1/DTD/svg11.dtd" >
<svg xmlns="http://www.w3.org/2000/svg" xmlns:xlink="http://www.w3.org/1999/xlink" version="1.1" viewBox="-10 0 1010 1000">
   <path fill="currentColor"
d="M528 -10q21 77 32 104h265q1 -1 48 -4q29 -1 38 -2q-3 29 -4 59v4q0 56 8 87h-96q6 -34 8 -85h-662q0 57 8 85h-96q8 -31 8 -75v-6q0 -14 -3 -56q-1 -7 -1 -11q11 0 52 2q22 1 34 2h311q-3 -8 -14 -29q-18 -37 -29 -61zM323 161l62 46q-38 29 -176 114q-20 13 -30 19
q-38 -35 -68 -50q110 -36 212 -129zM637 165q159 90 194 117l-63 54q-121 -100 -189 -127zM464 173q17 4 46 9q50 8 46 15q0 4 -6 6q-12 4 -20 14q116 158 403 182q-32 29 -58 91q-152 -49 -254 -111v58q-32 -9 -141 -8h-16q-116 -1 -147 8v-46q-46 29 -123 68q-15 8 -23 12
q22 6 89 8h125q77 0 109 -8q-7 30 -8 93v250q14 65 -123 83q0 -44 -26 -83q77 24 78 -22v-46h-181v10q0 92 8 139h-85q7 -36 6 -122v-19v-190q-1 -64 -6 -85q-12 6 -34 16q-17 7 -24 11q-15 -32 -63 -67q312 -83 428 -266zM486 262q-5 4 -26 21q-65 55 -101 80q11 7 97 8h22
q101 0 121 -8q-27 -18 -90 -79q-15 -14 -23 -22zM738 475q15 1 43 1q51 0 48 5q0 2 -2 6q-13 25 -14 67v268q2 42 -27 57q-28 16 -119 26q-2 -45 -36 -93q108 26 109 -32v-232q0 -10 -1 -33q-1 -26 -1 -40zM569 485q80 1 86 7q1 2 -2 8q-8 22 -8 56v107q1 79 8 101h-88
q7 -38 8 -103v-95q0 -14 -3 -58q-1 -15 -1 -23zM415 528h-181v60h181v-60zM234 637v60h181v-60h-181z" />
</svg>
