<?xml version="1.0" standalone="no"?>
<!DOCTYPE svg PUBLIC "-//W3C//DTD SVG 1.1//EN" "http://www.w3.org/Graphics/SVG/1.1/DTD/svg11.dtd" >
<svg xmlns="http://www.w3.org/2000/svg" xmlns:xlink="http://www.w3.org/1999/xlink" version="1.1" viewBox="-10 0 1010 1000">
   <path fill="currentColor"
d="M536 -15q22 59 26 93h263q33 0 98 -6q-15 74 0 137h-84q6 -24 6 -72h-688q0 69 4 90h-88q12 -95 0 -157q24 8 96 8h307q-19 -60 -32 -84zM597 157q106 25 222 64l-39 53q-91 -35 -224 -67zM409 159q45 37 47 54q-29 0 -59 10q-54 13 -162 33q-8 1 -13 2q-10 -24 -37 -55
q145 -15 224 -44zM510 227q73 11 79 23q0 5 -12 13q-18 12 -27 25h190q58 0 113 -4q-76 83 -176 143q52 14 133 21q79 7 144 3q-35 38 -43 77q-180 -30 -290 -69q-2 1 -5 3q-55 26 -124 50q36 4 68 4h134q43 0 96 -8v66q-46 -8 -96 -8h-17v47h91q68 0 103 -7v61
q-64 -8 -105 -8h-89v48h67q71 0 111 -8v61q-64 -8 -111 -8h-67v58h125q49 0 109 -10v75q-54 -8 -107 -8h-312q-59 0 -125 8v-73q4 0 13 1q73 7 110 7h117v-58h-44q-51 1 -113 8v-59q47 8 110 8h47v-50h-133q-17 19 -45 51q-15 17 -22 25q-16 -14 -62 -30q71 -45 105 -133
q65 12 70 24q-1 4 -10 11l-6 6h103v-47h-44q-43 1 -91 8v-56l-99 26q-10 -31 -42 -57q120 -6 234 -56q-9 -5 -28 -14q-31 -17 -49 -28l46 -37q46 34 85 55q45 -24 99 -69h-204q-54 64 -95 109q-23 -19 -62 -32q96 -71 153 -188zM290 494q78 103 67 163q-10 71 -125 93
q-8 -55 -30 -83q71 13 82 -26q18 -49 -70 -149q38 -49 70 -154h-101v385q0 92 7 172h-83q8 -101 8 -170v-369q0 -18 -6 -66q-1 -12 -2 -18q62 6 95 6h94q11 0 46 -2q30 -2 39 -2q-5 15 -42 102q-30 72 -49 118z" />
</svg>
