<?xml version="1.0" standalone="no"?>
<!DOCTYPE svg PUBLIC "-//W3C//DTD SVG 1.1//EN" "http://www.w3.org/Graphics/SVG/1.1/DTD/svg11.dtd" >
<svg xmlns="http://www.w3.org/2000/svg" xmlns:xlink="http://www.w3.org/1999/xlink" version="1.1" viewBox="-10 0 1034 1024">
  <g transform="matrix(1 0 0 -1 0 820)">
   <path fill="currentColor"
d="M103 664q1 -33 5 -66q0 -43 -2 -74q-1 -1 -2 -16q-1 -3 -1 -7h48q-1 1 -1 3q-1 3 -1 5q-1 3 -4 58v56h737l-1 -77q-3 -27 -4 -41h48q-4 49 -5 100q1 30 5 59q-36 -1 -73 -5h-288q3 9 13 20q3 3 8 11q-7 6 -14 10q-102 72 -111 81l-1 1q-12 -18 -28 -36q30 -18 82 -54
q18 -13 41 -33l-407 1q-15 3 -44 4zM131 -100q0 -36 -5 -67h48q-1 4 -1 9q-1 3 -4 58v519h164q-24 -39 -48 -72l-66 -91q40 -36 61 -63q43 -54 44 -103q0 -33 -21 -47q-19 -15 -48 -15q-9 0 -49 7q9 -18 16 -40l4 -14q52 3 82 15q57 28 58 95q0 31 -12 63q-16 45 -82 109
q43 60 78 110q30 45 55 87q-33 -1 -67 -5l-168 1q-19 3 -44 4q1 -34 5 -71v-489zM373 536q21 9 43 16q21 6 49 9q-21 22 -38 47q-39 -25 -111 -54q-69 -24 -120 -31q18 -21 31 -43l85 31q30 13 61 25zM623 -107l-266 3q-6 1 -9 2v-46q33 3 66 5l507 -3q1 0 11 -2v46l-13 -2
q-25 0 -52 -3h-206v72h113q25 0 53 -3l13 -2v46l-13 -2l-151 -3h-15v59l197 -3q3 0 11 -2v44q-12 -1 -15 -2l-99 -3h-94v75q117 0 132 -2q9 0 23 -5v46q33 -6 66 -15q18 -3 50 -6q6 16 30 40q-135 -3 -274 68q40 27 62 45q15 12 31 26q39 36 61 60q16 19 25 35l-74 -4h-227
l25 24q1 0 3 3l5 5q6 7 25 13q-28 15 -47 29q-64 -78 -84 -96q-88 -82 -147 -112q27 -13 44 -27q30 22 56 45q15 12 34 30l54 52h251q-24 -24 -63 -55q-48 -36 -76 -52q-69 30 -110 74q-4 -4 -7 -9q-12 -18 -24 -28l98 -61q-42 -22 -104 -47q-85 -28 -150 -35q22 -24 33 -41
l53 15q31 9 55 19v-41q13 6 54 7h79v-75h-128q10 27 36 35q-19 7 -47 27q-16 -33 -42 -68q-36 -48 -72 -75q21 -6 46 -21q3 3 4 5q7 12 22 26q7 7 14 17q6 10 13 20h154v-59l-148 3q-7 0 -15 2v-46q66 6 84 5h79v-72zM547 202q-16 0 -41 6q39 13 66 27q28 12 72 36
q57 -24 94 -39q33 -12 73 -24q-9 -3 -20 -4q-12 0 -33 -2h-211zM632 593q-19 7 -39 13q-4 -19 -13 -41q159 -43 235 -85q3 25 13 44l-71 26q-66 24 -125 43v0z" />
  </g>

</svg>
