<?xml version="1.0" standalone="no"?>
<!DOCTYPE svg PUBLIC "-//W3C//DTD SVG 1.1//EN" "http://www.w3.org/Graphics/SVG/1.1/DTD/svg11.dtd" >
<svg xmlns="http://www.w3.org/2000/svg" xmlns:xlink="http://www.w3.org/1999/xlink" version="1.1" viewBox="-10 0 1034 1024">
  <g transform="matrix(1 0 0 -1 0 820)">
   <path fill="currentColor"
d="M142 -52q-18 1 -34 1q-19 3 -18 2q-3 1 -14 2v-47q24 6 46 6l792 -1q22 0 39 -5v47q-12 -1 -14 -2l-92 -3h-258q16 39 35 77q15 36 32 70q27 55 44 96q18 39 45 105q24 54 35 70q12 18 32 32q-27 7 -46 17q-3 0 -21 10q-7 -31 -33 -98l-51 -127q-58 -136 -118 -252h-401z
M146 483q45 4 66 5l657 -3q1 0 11 -2v47q-9 -3 -14 -3q-27 -1 -52 -3h-602q-28 0 -53 3q-6 0 -13 3v-47zM430 75l-70 172l-64 150q-16 -10 -40 -21q31 -66 68 -152q31 -78 49 -127q15 -40 22 -73q27 18 46 24q-6 13 -11 27zM424 722q-3 -4 -11 -10q-3 -3 -5 -4
q24 -18 65 -57q36 -36 57 -56q16 -19 35 -44q16 19 35 35q-36 39 -82 82l-78 73q0 -1 -11 -13q-3 -3 -5 -6v0z" />
  </g>

</svg>
