<?xml version="1.0" standalone="no"?>
<!DOCTYPE svg PUBLIC "-//W3C//DTD SVG 1.1//EN" "http://www.w3.org/Graphics/SVG/1.1/DTD/svg11.dtd" >
<svg xmlns="http://www.w3.org/2000/svg" xmlns:xlink="http://www.w3.org/1999/xlink" version="1.1" viewBox="-10 0 1034 1024">
  <g transform="matrix(1 0 0 -1 0 820)">
   <path fill="currentColor"
d="M434 116q-45 -21 -74 -33q-42 -18 -79 -31l79 248q24 70 28 76q10 21 28 32q-42 12 -63 21q-12 -72 -39 -152l-78 -239q-87 -34 -172 -52q13 -22 26 -54q21 18 91 41q13 6 242 90q3 1 8 3zM71 497q45 4 66 5l275 -1q7 0 17 -2l13 -2v46q-39 -4 -65 -5l-273 1q-6 1 -7 1
q-12 1 -26 3v-46zM215 169q0 3 -3 8q-3 9 -7 17q-12 33 -22 66q-7 24 -17 50q-12 30 -23 62q-3 9 -6 20l-43 -14q19 -39 38 -96q30 -96 38 -128q0 -1 1 -4q18 10 44 19zM253 662l-19 28q-9 18 -29 45q-18 -12 -37 -24l22 -28q12 -18 29 -45q30 -51 41 -79q19 13 39 29
q0 1 -46 74zM473 313q1 -39 5 -78l-1 -363q-1 -18 -4 -33h48q-4 34 -5 83v13h353v-28q0 -36 -5 -66h49q0 3 -2 8q-3 7 -4 36l1 373q1 27 5 55q-36 -1 -74 -5h-162v227h211q24 0 52 -4q1 0 14 -2v47q-6 0 -14 -3q-25 0 -52 -3h-211v134q0 16 2 33q1 15 12 32h-57l4 -36
l1 -425l-114 1q-19 3 -52 4zM516 -30v302h353v-302h-353z" />
  </g>

</svg>
