<?xml version="1.0" standalone="no"?>
<!DOCTYPE svg PUBLIC "-//W3C//DTD SVG 1.1//EN" "http://www.w3.org/Graphics/SVG/1.1/DTD/svg11.dtd" >
<svg xmlns="http://www.w3.org/2000/svg" xmlns:xlink="http://www.w3.org/1999/xlink" version="1.1" viewBox="-10 0 1034 1024">
  <g transform="matrix(1 0 0 -1 0 820)">
   <path fill="currentColor"
d="M133 -68q-48 3 -53 3q-3 1 -13 2v-46q33 3 66 5l788 -1q7 0 18 -2q1 0 14 -2v46q-33 -1 -66 -5h-292q7 12 16 24q10 15 21 31l61 89q28 43 64 54q-25 15 -39 24q-7 4 -20 17q-72 -135 -152 -239h-413zM132 716q0 -6 3 -12q0 -24 3 -54l-1 -286q-3 -18 -5 -28h49
q-3 12 -4 40l-1 274q0 33 3 43q1 12 10 23h-57zM216 226q-33 3 -66 5v-46q30 4 52 5q636 0 647 -2q1 0 5 -1q1 0 14 -2v46q-39 -4 -66 -5h-237l23 35q-55 40 -64 43q-43 25 -53 33q-9 -19 -26 -38q51 -25 74 -41q24 -15 41 -32h-344zM275 127q72 -63 131 -153l38 31
q-123 138 -134 149q-16 -13 -35 -27zM321 761q0 -9 2 -13q0 -22 3 -53l-1 -362q-1 -18 -4 -31h49q-1 4 -1 8q-3 15 -5 58l1 350q0 16 9 35q1 4 4 8h-57zM432 333q63 22 113 48q48 25 116 73q102 -73 246 -125q16 24 48 49q-54 6 -123 30q-75 27 -140 74l64 70q24 25 42 50
q27 34 73 112q-31 -1 -64 -5l-368 1q-6 1 -7 1q-12 1 -26 3v-46q-3 0 9 1q51 3 69 4q39 -96 144 -194q-33 -24 -57 -40q-19 -12 -41 -21q-79 -33 -137 -45q18 -15 30 -29q4 -4 9 -11zM796 673q-46 -84 -138 -169q-105 96 -130 169h268z" />
  </g>

</svg>
