<?xml version="1.0" standalone="no"?>
<!DOCTYPE svg PUBLIC "-//W3C//DTD SVG 1.1//EN" "http://www.w3.org/Graphics/SVG/1.1/DTD/svg11.dtd" >
<svg xmlns="http://www.w3.org/2000/svg" xmlns:xlink="http://www.w3.org/1999/xlink" version="1.1" viewBox="-10 0 1010 1000">
   <path fill="currentColor"
d="M597 -17q105 50 97 57q-2 4 -9 7q-21 10 -48 37q-23 22 -80 89q-17 19 -25 28l272 -14q-55 -56 -80 -79l66 -42q98 97 158 186l-71 46q-4 -6 -11 -18q-15 -23 -23 -36q-328 15 -405 40q-3 -37 -35 -77q93 -13 194 -224zM242 16q5 -8 54 143l-92 22q-8 -61 -45 -141z
M65 203q41 8 96 8h160q39 0 68 -6v81q-39 -6 -89 -6h-143q-53 0 -92 6v-83zM550 280l75 44q-111 88 -181 161q-32 -33 -77 -50q80 -46 183 -155zM766 284q106 58 188 123l-57 68q-71 -80 -185 -133zM280 320q95 1 99 18q0 3 -5 11q-16 25 -23 60q-12 63 -61 272
q15 -5 52 -13q20 -4 31 -7q-3 11 -3 21q-1 7 -1 55q-20 4 -54 11q-127 24 -246 64l-29 -93q114 -7 177 -24q6 -1 9 -2q45 -189 54 -373zM177 328q3 71 25 293l-81 4q9 -153 -22 -287zM581 387q13 4 36 12l48 16q-37 44 -50 66h133q56 0 109 -10q-66 167 -135 260
q97 58 228 75q-37 41 -57 93q-131 -44 -226 -119q-109 75 -284 133q-13 -35 -48 -70q-9 -10 -14 -15q196 -28 286 -97q-58 -72 -81 -131q-6 7 -17 21q-30 39 -61 72q-29 -28 -60 -40q-6 -3 -9 -4q117 -86 202 -262zM573 540q18 72 90 147q68 -91 87 -147h-177z" />
</svg>
