<?xml version="1.0" standalone="no"?>
<!DOCTYPE svg PUBLIC "-//W3C//DTD SVG 1.1//EN" "http://www.w3.org/Graphics/SVG/1.1/DTD/svg11.dtd" >
<svg xmlns="http://www.w3.org/2000/svg" xmlns:xlink="http://www.w3.org/1999/xlink" version="1.1" viewBox="-10 0 1034 1024">
  <g transform="matrix(1 0 0 -1 0 820)">
   <path fill="currentColor"
d="M435 96q-25 -15 -55 -25q-39 -10 -107 -24q3 18 21 71q54 229 61 246q6 33 26 53q1 3 6 6q-33 9 -66 16l-13 -98q-7 -45 -23 -103q-30 -127 -58 -202q-144 -28 -177 -32q9 -24 16 -54q60 19 73 24q81 21 141 33q84 16 147 33q3 28 8 56zM55 490q21 6 47 5l259 1
q24 0 57 -4q3 0 9 -2v47q-48 -6 -66 -6l-269 1q-9 1 -12 2q-12 1 -25 3v-47zM208 173q-3 9 -9 21q-4 16 -15 48q-4 16 -10 32q-21 66 -46 131q-22 -12 -39 -17q27 -69 41 -109q21 -64 40 -142q12 7 44 18zM158 706q25 -30 59 -74q30 -45 52 -81l39 28q-39 55 -65 90
q-22 30 -52 65q-13 -15 -33 -28zM571 486q-6 3 -11 8q-1 0 -5 3q-16 -27 -62 -75q-57 -60 -119 -98q19 -15 37 -32q43 36 104 97l55 55q10 9 34 19q-7 7 -33 23zM618 274q7 7 16 24q25 37 56 54q-27 18 -53 31q-21 -45 -73 -109q-78 -96 -141 -138q27 -13 42 -30l63 60
q18 25 61 72h211q-45 -102 -121 -191q-42 39 -55 59q-15 21 -32 66q-19 -19 -46 -40q21 -21 45 -49q0 -3 27 -32q6 -6 11 -14q9 -9 18 -20q-57 -57 -133 -93q-69 -31 -152 -40q25 -18 42 -45q180 52 275 149q117 -87 265 -127q4 6 9 14q10 21 29 37q-138 4 -272 107
q102 123 154 260q-60 -4 -64 -5h-182zM564 630q28 36 57 75q28 42 64 53q-27 10 -47 22q-4 3 -17 10q-15 -28 -33 -59q-19 -31 -49 -72q-36 -49 -60 -79q-19 -21 -40 -36q9 -18 16 -33q1 -4 3 -10q58 12 70 12q15 3 92 6l253 18l35 -46q15 21 32 33q-54 64 -183 186
q-10 -15 -29 -30q34 -30 57 -52q22 -22 57 -60q-58 -6 -166 -9q-105 -6 -171 -7q13 21 59 78zM726 466q138 -90 201 -158q10 22 28 41q-75 60 -105 81q-90 66 -96 70q-12 -18 -28 -34v0z" />
  </g>

</svg>
