<?xml version="1.0" standalone="no"?>
<!DOCTYPE svg PUBLIC "-//W3C//DTD SVG 1.1//EN" "http://www.w3.org/Graphics/SVG/1.1/DTD/svg11.dtd" >
<svg xmlns="http://www.w3.org/2000/svg" xmlns:xlink="http://www.w3.org/1999/xlink" version="1.1" viewBox="-10 0 1010 1000">
   <path fill="currentColor"
d="M448 32q60 10 115 10h203q61 0 121 -10q-10 29 -10 97v145q0 53 6 93q-35 -5 -93 -5h-177q-23 35 -50 69h243l117 -6q-10 118 -18 347q0 76 -26 93q-20 21 -125 30q-2 -51 -24 -89q70 10 79 2q16 -5 18 -48q1 -10 3 -54q8 -171 11 -210h-133q-12 33 -23 58q53 39 125 99
l-56 54q-71 -80 -99 -97q-25 42 -72 99q-29 -26 -58 -39q-3 -2 -5 -3q80 -60 123 -171h-131l-50 54q65 2 64 12q1 5 -4 15q-12 22 -12 50v113h109q79 0 101 -7v77q-12 -4 -61 -4h-123q-63 0 -101 12q9 -54 9 -93v-155q-29 30 -47 43l-3 -3q-20 -28 -59 -48q105 -67 203 -202
q-60 0 -96 7q10 -50 10 -113v-119q0 -64 -4 -103zM804 106h-282v65h282v-65zM522 231v67h282v-67h-282zM232 -4q5 -8 54 143l-92 22q-6 -59 -45 -141zM67 187q41 8 96 8h160q39 0 68 -6v83q-39 -9 -89 -8h-143q-53 0 -92 6v-83zM169 328q3 71 25 293l-81 4q9 -153 -22 -287z
M278 310q99 11 99 18q2 4 -5 14q-17 25 -23 57q-12 63 -61 272q12 -3 33 -8q32 -7 50 -12q-3 11 -3 21q-1 7 -1 55q-20 4 -54 11q-127 24 -246 64l-29 -93q74 -3 186 -26q45 -189 54 -373z" />
</svg>
