<?xml version="1.0" standalone="no"?>
<!DOCTYPE svg PUBLIC "-//W3C//DTD SVG 1.1//EN" "http://www.w3.org/Graphics/SVG/1.1/DTD/svg11.dtd" >
<svg xmlns="http://www.w3.org/2000/svg" xmlns:xlink="http://www.w3.org/1999/xlink" version="1.1" viewBox="-10 0 1034 1024">
  <g transform="matrix(1 0 0 -1 0 820)">
   <path fill="currentColor"
d="M501 -99l-419 3q-6 1 -14 2v-42q45 4 66 5l788 -1q4 0 38 -4v42q-39 -4 -66 -5h-355v90l263 -1q4 0 38 -4v43q-39 -4 -66 -5h-235v80l241 -1l50 -4q-4 49 -5 71l1 153l4 51l-70 -6l-481 1q-3 0 -61 5q1 -21 2 -36q3 -24 3 -82q0 -94 -2 -122q-3 -3 -3 -35q15 3 58 4
l225 1v-80l-273 1q-6 1 -7 1q-12 1 -26 3v-43q30 4 66 5h240v-90zM260 137v88h241v-88h-241zM501 257h-241v79h241v-79zM539 137v88h248v-88h-248zM539 257v79h248v-79h-248zM135 471l-40 3q-15 3 -26 3v-43q60 4 66 5l788 -1q7 0 18 -2q1 0 14 -2v43q-13 0 -28 -3
q-39 -3 -110 -3h-198q16 24 55 60q24 25 39 36q9 6 30 13q-18 12 -32 26l150 -3q3 0 11 -3v43q-39 -4 -66 -5h-227q9 18 21 30l-145 94q-12 -18 -26 -36q28 -15 68 -41l39 -26q13 -9 28 -21l-369 1q-6 1 -7 1q-12 1 -26 3v-43q12 4 36 5l488 1q-1 -3 -82 -103
q-12 -13 -30 -31h-148q4 6 25 24q-33 25 -92 77q-9 9 -35 29q-13 -18 -27 -31q30 -19 58 -44q27 -24 59 -56h-279z" />
  </g>

</svg>
