<?xml version="1.0" standalone="no"?>
<!DOCTYPE svg PUBLIC "-//W3C//DTD SVG 1.1//EN" "http://www.w3.org/Graphics/SVG/1.1/DTD/svg11.dtd" >
<svg xmlns="http://www.w3.org/2000/svg" xmlns:xlink="http://www.w3.org/1999/xlink" version="1.1" viewBox="-10 0 1010 1000">
   <path fill="currentColor"
d="M615 10q94 3 89 12q1 4 -3 14q-7 14 -7 26v149h116v-101q0 -39 -6 -52q93 3 89 14q0 4 -3 11q-9 20 -9 54v44q0 69 8 99q-112 -6 -171 -6h-139q-66 0 -142 6q9 -57 9 -111q0 -94 -8 -117q86 1 90 12q0 4 -3 11q-7 15 -7 31v105h105v-135q0 -45 -8 -66zM250 30
q31 65 54 143l-90 22q-14 -72 -47 -145zM48 209q9 0 38 1q49 3 77 3h109q97 -1 131 -6v73q-52 -4 -129 -4h-113q-57 0 -113 4v-71zM288 320q3 0 9 1q84 13 82 21q1 5 -5 14q-14 19 -21 45q-7 27 -29 122q-23 100 -34 144l93 -20l-6 68q-77 22 -172 49q-112 33 -138 38
q-21 -65 -23 -91l180 -30q2 -10 6 -29q40 -181 58 -332zM179 338q27 141 35 264l-79 8q-6 -126 -30 -264zM948 338v75q-98 -6 -160 -6h-100q-4 15 -15 51q-9 28 -12 38h115h86q32 -1 53 -2q-8 68 -8 123v201q13 59 -121 67q0 -47 -30 -89q88 15 83 -32v-208h-89v157
q0 55 4 75h-69q5 -26 5 -75v-157h-73v151q0 62 4 87h-69q4 -11 5 -30q1 -14 1 -61v-147h-70v216q0 83 6 99h-81q8 -26 8 -99v-160q0 -84 -8 -122q37 6 178 6q10 -28 18 -89h-73q-65 0 -131 4v-71q67 4 135 4h248q112 -1 160 -6z" />
</svg>
