<?xml version="1.0" standalone="no"?>
<!DOCTYPE svg PUBLIC "-//W3C//DTD SVG 1.1//EN" "http://www.w3.org/Graphics/SVG/1.1/DTD/svg11.dtd" >
<svg xmlns="http://www.w3.org/2000/svg" xmlns:xlink="http://www.w3.org/1999/xlink" version="1.1" viewBox="-10 0 1010 1000">
   <path fill="currentColor"
d="M264 -12q124 28 123 36q-1 1 -6 3q-42 18 -97 94h141q69 0 99 -6v86q-38 -8 -105 -8h-58q-5 -20 62 119l-96 20q-8 -99 -47 -139h-48l-12 15q-68 86 -99 120q-43 -42 -91 -50q160 -105 234 -290zM629 -12q109 26 117 40q0 1 -4 3q-38 14 -75 88h158q27 0 94 -5
q20 -2 25 -2v91q-34 -8 -117 -8h-69q24 48 54 117l-92 16q-13 -68 -49 -137h-38q-4 6 -20 33q-52 84 -65 102q-47 -28 -94 -32q108 -86 175 -306zM157 348q51 10 143 12h418q94 -1 129 -8v89q-29 -6 -131 -8h-178v139h240q96 0 147 -10v93q-47 -7 -147 -8h-240v121
q0 41 8 139h-106q10 -36 12 -137v-123h-254q-118 3 -138 8v-95q28 6 140 12h252v-139h-152q-10 -2 -71 0q-52 1 -72 4v-89z" />
</svg>
