<?xml version="1.0" standalone="no"?>
<!DOCTYPE svg PUBLIC "-//W3C//DTD SVG 1.1//EN" "http://www.w3.org/Graphics/SVG/1.1/DTD/svg11.dtd" >
<svg xmlns="http://www.w3.org/2000/svg" xmlns:xlink="http://www.w3.org/1999/xlink" version="1.1" viewBox="-10 0 1010 1000">
   <path fill="currentColor"
d="M845 342l-2 83q-61 -8 -111 -8h-172v131h234q75 0 125 -10v89q-55 -8 -121 -8h-238v181q2 61 -27 76q-26 19 -136 27q-6 -49 -40 -101q54 6 68 6q20 2 30 -1q22 -3 21 -29v-157h-260q-82 0 -141 10v-89q70 7 139 8h262v-133h-168q-59 0 -132 7q-13 1 -15 1v-83q2 0 11 1
q59 7 132 7h432q43 0 109 -8zM621 4q91 14 95 22q0 2 -11 15q-36 42 -58 82h176q41 1 110 -8v80q-74 -8 -110 -8h-87q40 51 66 101l-86 28q-14 -70 -53 -129h-42q-47 76 -87 131q-38 -28 -80 -34q73 -65 121 -171q31 -64 41 -98q2 -8 5 -11zM244 -8q94 24 99 32
q-39 34 -89 101h131q53 0 97 -7q9 -1 12 -1v80q-2 0 -12 -1q-47 -7 -93 -7h-50q1 -1 26 63q11 28 16 40l-83 16q-6 -62 -28 -119h-50q-42 63 -101 129q-30 -29 -79 -46q129 -90 204 -280z" />
</svg>
