<?xml version="1.0" standalone="no"?>
<!DOCTYPE svg PUBLIC "-//W3C//DTD SVG 1.1//EN" "http://www.w3.org/Graphics/SVG/1.1/DTD/svg11.dtd" >
<svg xmlns="http://www.w3.org/2000/svg" xmlns:xlink="http://www.w3.org/1999/xlink" version="1.1" viewBox="-10 0 1034 1024">
  <g transform="matrix(1 0 0 -1 0 820)">
   <path fill="currentColor"
d="M128 288q-48 0 -59 3q-3 1 -9 2v-48q13 6 52 7h312q-13 -76 -29 -133l-197 3q-3 0 -8 2v-47q3 3 40 6l147 1q-39 -70 -111 -130q-79 -63 -171 -90q30 -21 45 -41q79 42 147 97q82 69 138 164h340v-18q0 -39 -5 -67h49q-3 15 -5 32l-1 221h101q22 0 50 -3q6 0 15 -4v48
q-21 -4 -65 -5h-101l1 125q0 12 5 46q-60 -4 -99 -5l-480 1q-15 1 -21 3q-3 1 -6 1v-46q54 4 78 5h152q-1 -64 -7 -130h-298zM436 119q12 45 17 75q6 27 10 58h302v-133h-329zM765 288h-299l7 130h292v-130zM72 490q15 -6 28 -15q49 54 81 91q25 30 50 63h62q51 -87 61 -106
q6 -12 12 -27q13 6 24 17l13 6l-61 110q145 0 162 -2q12 0 25 -4v47q-21 -4 -65 -5h-208l9 15q15 21 22 32q0 1 11 14q7 7 28 22q-39 16 -58 28q-9 -28 -35 -70q-61 -97 -110 -147q-24 -24 -39 -36q-15 -10 -37 -20q12 -6 25 -13zM594 606q9 12 16 24h97q51 -66 76 -122
q25 18 41 24q-6 7 -10 15l-57 83q141 0 158 -2q13 0 26 -4v47q-19 -4 -65 -5h-246q12 24 29 49q15 24 33 40q-25 4 -61 17q-3 -19 -8 -32l-36 -67q-13 -27 -41 -68q-51 -72 -92 -95q25 -6 56 -23l39 54z" />
  </g>

</svg>
