<?xml version="1.0" standalone="no"?>
<!DOCTYPE svg PUBLIC "-//W3C//DTD SVG 1.1//EN" "http://www.w3.org/Graphics/SVG/1.1/DTD/svg11.dtd" >
<svg xmlns="http://www.w3.org/2000/svg" xmlns:xlink="http://www.w3.org/1999/xlink" version="1.1" viewBox="-10 0 1034 1024">
  <g transform="matrix(1 0 0 -1 0 820)">
   <path fill="currentColor"
d="M691 411q-27 -54 -54 -96q-27 -45 -70 -107q64 4 130 5h77q-24 -37 -74 -90q-54 -54 -89 -78q-64 48 -123 121q-42 54 -48 92q-24 -16 -49 -30q43 -60 78 -103q39 -42 105 -105q-69 -42 -169 -81q-66 -24 -112 -36q-42 -9 -85 -10q19 -22 35 -49q3 1 7 2q6 3 14 5
q81 24 120 39q30 9 63 23q96 42 161 83q72 -45 143 -76q81 -30 194 -65q9 22 34 54q-84 0 -186 37q-102 42 -147 74q15 13 30 29q19 18 40 36q10 10 31 33l44 50q28 33 65 86q-34 -1 -69 -5h-145q81 141 127 203l-70 -6l-526 1q-24 3 -27 5v-48q6 3 56 7h134
q0 -102 -30 -211q-34 -114 -135 -213q-69 -63 -123 -79q43 -24 54 -34q37 30 88 76q112 105 154 242q24 88 33 219h314zM201 580q15 15 28 31h45q46 -52 83 -101l20 -35q3 1 8 7q6 9 20 20q3 3 12 7l-41 44q-18 21 -48 58q180 0 192 -2q4 0 17 -4v47l-63 -5h-216l43 61
q18 22 40 34q-27 12 -57 30q-9 -24 -19 -42q-12 -21 -32 -49q-33 -48 -63 -83q-25 -28 -62 -61q-34 -28 -60 -36q27 -16 49 -33q34 34 55 57q24 28 49 55zM676 616q76 -79 105 -139q7 6 13 11q9 9 28 20q-9 9 -23 24q-36 46 -53 64l-15 20h160q27 0 50 -4q4 0 13 -3v48
q-9 -3 -23 -4q-21 0 -40 -2h-262q4 9 9 16q28 45 37 54q12 12 33 25q-27 10 -59 29q-28 -88 -123 -199q-42 -48 -78 -62q33 -15 43 -24q1 -1 8 -6q13 18 22 26l54 64q1 3 4 6q7 12 26 36h71z" />
  </g>

</svg>
