<?xml version="1.0" standalone="no"?>
<!DOCTYPE svg PUBLIC "-//W3C//DTD SVG 1.1//EN" "http://www.w3.org/Graphics/SVG/1.1/DTD/svg11.dtd" >
<svg xmlns="http://www.w3.org/2000/svg" xmlns:xlink="http://www.w3.org/1999/xlink" version="1.1" viewBox="-10 0 1010 1000">
   <path fill="currentColor"
d="M228 -21q88 18 95 33q-1 3 -5 8q-25 26 -62 92h125q66 0 107 -6v77q-45 -8 -113 -8h-52q9 21 30 69q13 30 20 46l-85 14q-8 -61 -40 -127h-34q-53 81 -99 139q-32 -28 -79 -46q133 -104 192 -291zM601 -19q102 17 107 29q-1 2 -6 6q-29 23 -69 99h184q47 -1 120 -9v81
q-29 -8 -116 -8h-87q12 22 37 72q8 18 13 27l-90 18q-13 -66 -37 -117h-54q-5 9 -14 26q-48 91 -65 113q-54 -25 -89 -28q116 -112 166 -309zM817 334q-7 71 -5 119v69q0 82 5 123h-93q0 -8 3 -31q1 -7 1 -10h-500v121q-2 56 30 70q27 16 135 15h272q103 2 125 -21
q28 -17 35 -106q33 47 96 55q-23 99 -69 123q-24 14 -64 19q-37 5 -119 5h-274q-175 1 -212 -24q-23 -12 -31 -37q-8 -21 -7 -78v-283q-1 -91 -6 -129q30 3 184 6h346q75 0 148 -6zM228 405v133h212v-133h-212zM514 405v133h216v-133h-216z" />
</svg>
