<?xml version="1.0" standalone="no"?>
<!DOCTYPE svg PUBLIC "-//W3C//DTD SVG 1.1//EN" "http://www.w3.org/Graphics/SVG/1.1/DTD/svg11.dtd" >
<svg xmlns="http://www.w3.org/2000/svg" xmlns:xlink="http://www.w3.org/1999/xlink" version="1.1" viewBox="-10 0 1034 1024">
  <g transform="matrix(1 0 0 -1 0 820)">
   <path fill="currentColor"
d="M357 193l-258 1q-12 0 -30 4v-47q6 3 13 3q27 3 53 3h218q-12 -139 -104 -211q-72 -54 -131 -57q27 -22 41 -46q85 48 131 86q88 81 103 228h290l-1 -283q0 -1 -4 -23h49q-3 6 -4 27q0 18 -2 36v243l209 -1q12 0 26 -5v47q-9 -3 -23 -3q-19 0 -40 -2h-172v212
q135 0 158 -3q3 0 9 -3v47l-102 -5q-591 0 -610 3q-3 0 -9 2v-47q12 6 52 6h138v-212zM396 193v212h287v-212h-287zM289 616q27 -30 56 -70q30 -43 42 -69q15 18 39 32q-13 13 -85 107q141 0 156 -2q10 0 24 -5v48q-9 -3 -22 -4q-21 0 -40 -2h-197q7 12 16 22l32 44
q9 12 40 32q-39 13 -61 25q-12 -24 -38 -70q-55 -91 -131 -153q-33 -27 -59 -35q28 -16 49 -35l54 54l74 81h51zM541 529q45 55 72 91h93q69 -93 88 -139q9 12 41 29l-40 53l-39 57h126q24 0 50 -2q6 0 13 -5v48q-15 -1 -63 -6h-245q49 81 60 87q9 7 26 17q-30 10 -64 28
q-21 -57 -57 -113q-48 -69 -77 -99q-36 -36 -60 -49q30 -10 37 -15q3 0 17 -9q10 13 22 27v0z" />
  </g>

</svg>
