<?xml version="1.0" standalone="no"?>
<!DOCTYPE svg PUBLIC "-//W3C//DTD SVG 1.1//EN" "http://www.w3.org/Graphics/SVG/1.1/DTD/svg11.dtd" >
<svg xmlns="http://www.w3.org/2000/svg" xmlns:xlink="http://www.w3.org/1999/xlink" version="1.1" viewBox="-10 0 1010 1000">
   <path fill="currentColor"
d="M232 -8q97 15 109 26q1 1 -4 4q-19 12 -29 28q-13 19 -32 51q-12 19 -18 28h139q63 0 91 -7q4 -1 6 -1v74q-8 -1 -25 -2q-47 -4 -68 -4h-56q17 35 42 97q3 6 4 10l-89 20q-10 -73 -30 -125h-48q-61 89 -105 133q-34 -29 -75 -46q142 -114 188 -286zM617 2q68 7 105 22
q0 1 -4 4q-20 17 -30 36q-9 18 -24 46q-6 11 -9 17h155q44 0 111 -10v78q-45 -8 -113 -8h-52q26 38 52 99l-82 20q-16 -68 -38 -119h-61q-18 33 -58 97q-14 23 -21 34q-41 -21 -86 -22q121 -127 155 -294zM768 322q35 37 61 89q-1 2 -18 -2q-24 -6 -35 -6q-34 0 -78 4
q5 296 240 403q-61 37 -87 71q-207 -130 -228 -470l-111 2v310q0 85 10 144h-95q10 -49 10 -146v-302l-145 2q-1 198 -33 283q-30 93 -130 199q-37 -39 -91 -53q180 -101 174 -352v-73q-1 -37 -4 -79q275 29 560 -24z" />
</svg>
