<?xml version="1.0" standalone="no"?>
<!DOCTYPE svg PUBLIC "-//W3C//DTD SVG 1.1//EN" "http://www.w3.org/Graphics/SVG/1.1/DTD/svg11.dtd" >
<svg xmlns="http://www.w3.org/2000/svg" xmlns:xlink="http://www.w3.org/1999/xlink" version="1.1" viewBox="-10 0 1010 1000">
   <path fill="currentColor"
d="M238 -10q94 26 99 36q-1 3 -9 7q-20 12 -38 39q-5 7 -15 22q-13 21 -21 33h83q124 0 149 -8v74q-17 -6 -153 -6q6 13 23 46q22 43 29 59l-83 22q-12 -68 -42 -125h-38q-35 47 -95 125q-46 -32 -79 -44q129 -103 190 -280zM615 -6q95 26 99 36q0 5 -8 10q-18 11 -31 32
q-21 33 -36 57h135q103 -1 151 -10v76q-23 -8 -131 -8h-42q5 9 14 28q32 60 32 71l-82 22q-17 -68 -39 -119h-70q-4 6 -13 19q-63 96 -78 112q-14 -13 -78 -38q125 -113 177 -288zM159 346q33 10 192 10h316q164 0 194 -8v85q-12 -5 -49 -7q-18 -1 -48 -1h-89v133h73
q149 -1 192 -10v85q-6 0 -31 -1q-83 -5 -149 -5h-85v108q0 139 8 158h-94q8 -24 8 -158v-106h-188q-2 197 -256 286q-13 -29 -48 -57q-14 -12 -24 -20q231 -31 244 -209h-83q-168 -1 -180 8v-85q14 5 52 7q19 0 47 1h77h93q0 -6 1 -38q2 -85 1 -97q-128 -2 -174 8v-87z
M597 425h-184q0 50 -1 95q-1 25 -1 40h186v-135z" />
</svg>
