<?xml version="1.0" standalone="no"?>
<!DOCTYPE svg PUBLIC "-//W3C//DTD SVG 1.1//EN" "http://www.w3.org/Graphics/SVG/1.1/DTD/svg11.dtd" >
<svg xmlns="http://www.w3.org/2000/svg" xmlns:xlink="http://www.w3.org/1999/xlink" version="1.1" viewBox="-10 0 1034 1024">
  <g transform="matrix(1 0 0 -1 0 820)">
   <path fill="currentColor"
d="M301 653q6 -6 51 -78q19 -30 32 -58l1 -2q15 13 33 27q-18 27 -28 44q-40 63 -43 67l127 -1q10 0 22 -2l9 -3v46q-30 -1 -62 -5h-182q28 48 40 60q12 15 28 24q-7 3 -13 5q-4 3 -41 25q-12 -45 -72 -132q-67 -93 -108 -114l16 -12q12 -7 23 -22q42 48 64 77q31 40 40 54
h63zM850 243q19 0 47 -3q6 0 15 -3v46q-21 -4 -62 -5h-325l9 146l65 10q133 19 148 20q21 1 58 2q-22 21 -44 50q-33 -10 -64 -18q-31 -6 -77 -13q-201 -28 -314 -29l-45 1q-27 1 -64 6q16 -21 30 -49q12 1 172 10q63 1 96 6q0 -39 -3 -68q-1 -28 -7 -74l-350 3q-3 1 -6 1
q-3 1 -5 1v-46q4 3 52 6h300q-16 -69 -66 -136q-64 -82 -197 -150q-54 -24 -112 -32q24 -24 41 -49q139 66 217 126q105 81 153 219q82 -142 181 -226q69 -57 206 -119q9 28 38 56q-111 18 -196 81q-111 78 -196 230h305zM698 659q30 -39 51 -71l41 -68q16 13 34 27
q-9 12 -78 112q162 0 169 -3q3 0 9 -3v46q-18 -6 -61 -6h-240q1 7 8 15q28 48 63 67q-13 7 -27 13q-12 4 -31 17q-6 -21 -18 -44q-16 -30 -52 -88q-57 -97 -105 -122q27 -21 37 -31q13 13 20 22l27 36q19 24 32 42q12 15 26 39h95z" />
  </g>

</svg>
