<?xml version="1.0" standalone="no"?>
<!DOCTYPE svg PUBLIC "-//W3C//DTD SVG 1.1//EN" "http://www.w3.org/Graphics/SVG/1.1/DTD/svg11.dtd" >
<svg xmlns="http://www.w3.org/2000/svg" xmlns:xlink="http://www.w3.org/1999/xlink" version="1.1" viewBox="-10 0 1010 1000">
   <path fill="currentColor"
d="M246 -17q100 32 99 37q-1 3 -7 6q-33 18 -70 80h73q82 0 104 -1q30 -1 45 -5v77q-18 -8 -147 -8q30 66 46 119l-91 8q-1 -57 -22 -127h-42q-53 72 -123 149q-37 -39 -77 -54q125 -70 212 -281zM621 -12q110 17 109 24q-1 3 -7 5q-31 13 -70 93h109q154 0 178 -8v75
q-12 -5 -52 -6q-38 -2 -136 -2q42 80 56 113l-90 18q-8 -73 -31 -127h-64q-17 22 -46 62q-36 50 -51 67q-25 -22 -86 -32q122 -96 181 -282zM798 338q-8 33 -8 145v51q0 121 8 147h-92q5 -12 6 -40q2 -29 2 -109v-119h-438v127q0 115 8 141h-94q10 -17 10 -143v-57
q0 -107 -8 -141q61 6 215 6h196q140 0 195 -8zM433 463q8 1 22 2q84 9 83 12q1 1 -3 5q-21 19 -25 52q8 280 -401 381q-17 -41 -63 -85q237 -37 312 -113q82 -74 75 -254zM510 604q22 3 61 7q33 3 34 4q2 2 -5 16q-15 29 -15 50v85q-6 56 80 52h97q55 1 74 -23
q20 -19 27 -92q32 36 85 55q-18 83 -53 107q-33 27 -123 26h-115q-157 3 -147 -73v-127v-87z" />
</svg>
