<?xml version="1.0" standalone="no"?>
<!DOCTYPE svg PUBLIC "-//W3C//DTD SVG 1.1//EN" "http://www.w3.org/Graphics/SVG/1.1/DTD/svg11.dtd" >
<svg xmlns="http://www.w3.org/2000/svg" xmlns:xlink="http://www.w3.org/1999/xlink" version="1.1" viewBox="-10 0 1010 1000">
   <path fill="currentColor"
d="M246 -17q115 21 119 35q0 2 -7 6q-40 23 -90 99h135q46 -1 95 -8v86q-34 -6 -95 -6h-62q31 59 58 133l-93 12q-11 -86 -44 -147h-34q-3 5 -10 15q-66 100 -99 140q-25 -23 -87 -42q126 -98 214 -323zM617 -15q88 18 109 39q0 3 -6 6q-37 18 -79 95h172q73 -2 129 -10v92
q-44 -9 -123 -10h-81q0 1 3 7q21 39 63 124l-92 24q-4 -17 -11 -43q-17 -73 -40 -112h-58l-73 109q-44 -25 -92 -28q116 -97 179 -293zM454 306q108 4 108 16q0 1 -3 6q-19 31 -19 79h164q96 -3 143 -6q-6 39 -6 147v181q0 78 8 153q1 12 2 17h-101q3 -11 7 -47q2 -19 3 -30
h-510q1 10 1 28q2 40 5 61h-97q12 -62 12 -173v-176q-1 -103 -6 -161q37 4 156 6h139q2 -61 -6 -101zM758 477h-218v103h218v-103zM252 477v103h208v-103h-208zM250 643v109h210v-109h-210zM540 643v109h220v-109h-220z" />
</svg>
