<?xml version="1.0" standalone="no"?>
<!DOCTYPE svg PUBLIC "-//W3C//DTD SVG 1.1//EN" "http://www.w3.org/Graphics/SVG/1.1/DTD/svg11.dtd" >
<svg xmlns="http://www.w3.org/2000/svg" xmlns:xlink="http://www.w3.org/1999/xlink" version="1.1" viewBox="-10 0 1010 1000">
   <path fill="currentColor"
d="M244 -4q40 3 105 30q0 5 -23 27q-10 9 -11 11q-7 10 -26 40q-13 21 -21 33h127q65 0 105 -8v80q-37 -7 -107 -8h-36q6 15 48 99l-84 22q-11 -62 -43 -123h-50q-36 53 -99 137q-33 -33 -81 -44q138 -113 196 -296zM619 4q38 4 107 26q1 2 -11 12q-23 20 -32 36
q-6 10 -15 26q-13 24 -21 37h196q59 0 105 -10v80q-46 -9 -105 -10h-79q-8 4 49 105l-85 28q-18 -67 -49 -133h-54q-54 87 -83 129q-40 -23 -90 -32q108 -93 167 -294zM252 328q45 7 95 34q0 2 -7 6q-15 8 -23 19q-15 20 -32 49q-5 7 -7 11h188q0 -80 -6 -115q57 0 102 10
q-10 14 -13 36q-3 20 -3 69h218q66 0 119 -8v83q-45 -8 -115 -8h-222v103h156q39 0 113 -9l2 85q-44 -8 -109 -8h-162v115h248q78 0 139 -8v87q-73 -8 -135 -8h-596q-77 1 -131 10v-93q84 12 131 12h264v-115h-145q-28 0 -79 5q-15 2 -24 3v-85q51 8 107 9h141v-103h-226
q-39 47 -83 111q-24 -25 -78 -41q119 -101 173 -256z" />
</svg>
