<?xml version="1.0" standalone="no"?>
<!DOCTYPE svg PUBLIC "-//W3C//DTD SVG 1.1//EN" "http://www.w3.org/Graphics/SVG/1.1/DTD/svg11.dtd" >
<svg xmlns="http://www.w3.org/2000/svg" xmlns:xlink="http://www.w3.org/1999/xlink" version="1.1" viewBox="-10 0 1034 1024">
  <g transform="matrix(1 0 0 -1 0 820)">
   <path fill="currentColor"
d="M149 243q28 7 64 11l113 6l472 18l53 -48q15 -15 28 -31q13 21 36 38q-64 52 -127 100l-146 102q-24 -28 -29 -34l70 -43l69 -49l-505 -15q61 42 100 72q30 22 55 43q40 31 52 38q9 6 40 16q-27 15 -55 40q-28 -31 -58 -57l-127 -102q-70 -46 -122 -53q7 -25 17 -52z
M220 172q0 -10 5 -66l-3 -261q-1 -3 -2 -14h49q-3 9 -4 28q0 15 -2 36h486q-1 -12 -1 -24q0 -18 -4 -33h48q-3 6 -4 28l-1 240l3 36q0 15 2 30q-15 0 -64 -5l-455 1q-27 3 -53 4zM263 -69v200h486v-200h-486zM221 586l17 21h54q57 -79 74 -122q18 16 45 28q-12 13 -28 35
q-4 9 -42 59q141 0 155 -2q3 0 22 -3v46q-10 -1 -22 -4l-235 -1q37 60 47 71q13 15 38 28q-30 13 -59 30q-24 -54 -65 -114q-66 -93 -110 -135q-27 -24 -50 -32q25 -12 53 -30q33 34 52 58q18 21 29 38q12 15 25 29zM600 578q9 16 21 33h71q69 -70 97 -131q21 21 43 33
q-19 19 -85 98q171 0 200 -3q3 0 9 -3v47l-63 -5h-252q6 7 10 18q31 61 37 67q10 15 30 25q-19 6 -61 25q-15 -51 -74 -155q-51 -79 -86 -99q25 -6 54 -16q15 24 49 66v0z" />
  </g>

</svg>
