<?xml version="1.0" standalone="no"?>
<!DOCTYPE svg PUBLIC "-//W3C//DTD SVG 1.1//EN" "http://www.w3.org/Graphics/SVG/1.1/DTD/svg11.dtd" >
<svg xmlns="http://www.w3.org/2000/svg" xmlns:xlink="http://www.w3.org/1999/xlink" version="1.1" viewBox="-10 0 1034 1024">
  <g transform="matrix(1 0 0 -1 0 820)">
   <path fill="currentColor"
d="M480 64l-174 1q-33 3 -37 4v-46q7 3 26 4q7 1 80 2h105l-1 -166q-3 -9 -4 -33h50q-3 12 -4 32q0 18 -2 36v131l189 -1q24 0 40 -5v46q-19 -4 -66 -5h-163v313h16q117 -198 340 -335l66 -43q15 24 46 47q-100 28 -218 124q-123 102 -184 207h274q24 0 51 -2q6 0 15 -4v47
q-16 -4 -66 -5h-340v37q0 36 16 61h-60q4 -18 5 -61v-37l-378 4q-1 0 -5 1v-47q9 4 26 5l304 1q-12 -24 -57 -85q-39 -51 -82 -97q-133 -132 -250 -170q18 -10 50 -41q66 43 110 76q37 28 82 71q54 54 102 110q24 28 48 62q24 33 50 74v-313zM266 622q6 -9 24 -27
q34 -37 54 -62q15 -22 33 -52q12 15 34 33q-18 24 -39 50q-18 21 -36 40q-9 9 -16 18l137 -1q21 0 40 -5v47q-21 -4 -66 -5h-180l33 48q10 9 37 35q-36 12 -61 24q-13 -39 -76 -130q-33 -45 -62 -74q-27 -24 -63 -43q21 -10 31 -17q7 -3 20 -15q24 24 55 61l61 75h40z
M546 529l71 99h60q67 -61 113 -133q16 18 35 33q-55 63 -64 71q-12 15 -26 29h147q24 0 50 -3q6 0 16 -4v48q-18 -4 -66 -5h-246q6 12 13 24q21 39 50 65l-20 6q-21 9 -41 17q-1 -9 -5 -17q-15 -49 -66 -130q-36 -51 -74 -75q18 -6 34 -15q9 -4 19 -10v0z" />
  </g>

</svg>
