<?xml version="1.0" standalone="no"?>
<!DOCTYPE svg PUBLIC "-//W3C//DTD SVG 1.1//EN" "http://www.w3.org/Graphics/SVG/1.1/DTD/svg11.dtd" >
<svg xmlns="http://www.w3.org/2000/svg" xmlns:xlink="http://www.w3.org/1999/xlink" version="1.1" viewBox="-10 0 1010 1000">
   <path fill="currentColor"
d="M627 -15q6 1 17 4q94 22 86 31q-1 4 -7 7q-30 18 -64 81h131q69 -1 117 -8v79q-40 -8 -113 -8h-52q24 45 60 117l-90 18q-9 -47 -47 -135h-40q-18 21 -60 75q-23 31 -31 40q-27 -23 -88 -32q128 -100 181 -269zM248 -8q101 25 107 40q-1 2 -6 4q-31 14 -71 76h111
q77 -3 107 -6v79q-36 -8 -109 -8h-46q27 52 50 123l-85 20q-10 -84 -38 -143h-28q-9 9 -55 67q-42 54 -60 76q-39 -35 -85 -46q135 -103 208 -282zM458 288q96 2 104 14q0 2 -4 7q-16 23 -16 74h210q115 0 153 -10v92q-38 -10 -151 -10h-127q100 196 337 236q-62 43 -79 91
q-249 -110 -325 -327h-20v244h61l107 -6v85q-24 -9 -105 -8h-65v24q1 83 8 117h-94q9 -28 10 -117v-26h-63q-78 0 -103 6v-85q39 8 103 8h65v-242q-122 205 -341 341q-35 -38 -95 -67q228 -85 353 -274h-135q-81 0 -135 10v-92q30 6 137 10h216v-22q0 -65 -6 -73z" />
</svg>
