<?xml version="1.0" standalone="no"?>
<!DOCTYPE svg PUBLIC "-//W3C//DTD SVG 1.1//EN" "http://www.w3.org/Graphics/SVG/1.1/DTD/svg11.dtd" >
<svg xmlns="http://www.w3.org/2000/svg" xmlns:xlink="http://www.w3.org/1999/xlink" version="1.1" viewBox="-10 0 1034 1024">
  <g transform="matrix(1 0 0 -1 0 820)">
   <path fill="currentColor"
d="M99 302q1 0 38 5l584 1q27 0 54 -3q3 0 9 -3v47l-63 -5l-593 1q-9 1 -17 2q-3 0 -12 2v-47zM891 480l-53 -4q-657 0 -673 3l-13 2v-47q6 3 13 3q27 3 53 3h637l-5 -490q0 -33 -11 -46q-15 -19 -74 -20q-31 0 -78 6q12 -24 19 -50q42 0 93 6q18 3 42 11q21 9 31 23
q10 19 14 38l8 462q3 49 9 101q-6 0 -12 -1zM616 -26q24 0 59 -6q-4 49 -5 70q0 142 2 156q0 6 3 34q-54 -4 -59 -5l-346 1q-3 0 -42 4q6 -48 6 -78q0 -117 -2 -146l-4 -36l64 6h324zM271 10v177h361v-177h-361zM117 512q18 18 64 59q15 18 50 49h65q54 -66 78 -124
q18 18 39 30q-39 51 -68 94q192 0 199 -3q3 0 7 -4v48q-3 0 -8 -2l-55 -4h-224q9 10 17 22q36 45 69 59q-30 16 -57 35q-27 -63 -135 -169q-70 -67 -107 -76q30 -13 51 -29zM679 624q43 -57 77 -119q12 9 19 15q7 3 20 10l-68 94q198 0 226 -3q3 0 9 -3v47l-63 -5h-245
q6 6 9 12q21 30 31 41q12 15 31 21q-18 9 -55 36q-12 -33 -25 -53q-13 -24 -38 -57q-24 -36 -43 -59q-15 -18 -33 -34q-27 -22 -45 -29q25 -10 55 -25q18 18 34 39l56 72h48z" />
  </g>

</svg>
