<?xml version="1.0" standalone="no"?>
<!DOCTYPE svg PUBLIC "-//W3C//DTD SVG 1.1//EN" "http://www.w3.org/Graphics/SVG/1.1/DTD/svg11.dtd" >
<svg xmlns="http://www.w3.org/2000/svg" xmlns:xlink="http://www.w3.org/1999/xlink" version="1.1" viewBox="-10 0 1010 1000">
   <path fill="currentColor"
d="M236 10q103 22 111 38q0 3 -11 10q-23 13 -34 28q-9 11 -22 30q-15 22 -28 37h129q44 0 111 -10v76q-7 0 -24 -2q-55 -4 -83 -4h-46q24 57 52 131l-89 19q-10 -79 -32 -150h-46q-5 7 -16 20q-77 102 -107 132q-37 -33 -77 -45q157 -144 212 -310zM597 14q96 18 105 32
q-1 2 -10 9q-21 17 -27 29q-20 36 -34 59h196q76 -1 123 -10v86q-41 -8 -119 -8h-83q15 28 50 118q6 15 8 21l-92 23q-1 -4 -2 -10q-5 -50 -37 -152h-72l-89 131q-9 -5 -22 -13q-38 -23 -61 -25q129 -117 166 -290zM528 354q16 37 24 109h202q67 0 115 -8v89
q-50 -9 -109 -10h-506q-74 1 -123 16v-99q43 12 125 12h216q-6 -37 -37 -86zM625 570q91 20 115 43q-1 4 -16 17q-20 17 -30 29q-35 49 -79 129h173q45 0 131 -10v93q-37 -9 -127 -8h-572q-106 0 -153 10v-97q69 11 149 12h316q67 -111 93 -218zM349 574q44 78 74 163
l-92 27q-22 -98 -69 -170z" />
</svg>
