<?xml version="1.0" standalone="no"?>
<!DOCTYPE svg PUBLIC "-//W3C//DTD SVG 1.1//EN" "http://www.w3.org/Graphics/SVG/1.1/DTD/svg11.dtd" >
<svg xmlns="http://www.w3.org/2000/svg" xmlns:xlink="http://www.w3.org/1999/xlink" version="1.1" viewBox="-10 0 1034 1024">
  <g transform="matrix(1 0 0 -1 0 820)">
   <path fill="currentColor"
d="M213 596q15 15 21 24h56l83 -119q27 18 28 24l-7 13l-61 82q189 0 198 -3q3 -1 8 -4v48q-25 -3 -66 -6h-213q4 7 11 15q9 15 11 17q6 9 13 16q6 7 13 13q12 12 33 18l-59 35q-12 -40 -94 -143q-63 -76 -121 -97q27 -10 52 -31zM805 441q-3 -81 -14 -124q-9 -34 -31 -48
q-25 -12 -75 -12q-24 0 -54 7q9 -19 20 -53q39 1 80 8q45 7 64 22q18 13 31 50q7 30 15 102q1 31 5 60q0 18 4 29q-33 -1 -68 -5l-591 1q-12 1 -37 2q-3 1 -6 1q-3 1 -6 1v-46q33 3 68 5h222q-7 -22 -26 -53q-33 -55 -96 -106q-64 -48 -115 -68q-51 -19 -117 -23
q21 -21 28 -31q0 -4 13 -18q277 99 358 299h328zM252 142l4 -45l-1 -219q-3 -19 -4 -52h47q-1 9 -5 55v27h493q-1 -27 -3 -56q-1 -3 -1 -8q-1 -3 -1 -6h48q-4 16 -5 68l1 211l4 46q-34 -1 -69 -5l-463 1q-24 3 -46 4q0 -10 1 -21zM293 -57v179h493v-179h-493zM511 509
q10 15 22 23q63 78 74 89h78q15 -18 35 -48q21 -30 46 -73q15 13 35 25l-68 96h151q25 0 52 -2q6 -1 14 -3v46q-34 -4 -66 -5h-254q37 57 50 69q9 10 35 17q-25 12 -56 39q-6 -16 -14 -32q-15 -27 -41 -65q-27 -39 -56 -76q-40 -48 -91 -75q27 -12 54 -25v0z" />
  </g>

</svg>
