<?xml version="1.0" standalone="no"?>
<!DOCTYPE svg PUBLIC "-//W3C//DTD SVG 1.1//EN" "http://www.w3.org/Graphics/SVG/1.1/DTD/svg11.dtd" >
<svg xmlns="http://www.w3.org/2000/svg" xmlns:xlink="http://www.w3.org/1999/xlink" version="1.1" viewBox="-10 0 1010 1000">
   <path fill="currentColor"
d="M264 -8q70 23 91 42q-1 4 -9 10q-33 26 -62 83h95q82 0 135 -6v82q-43 -8 -133 -8h-24q27 48 50 77q-27 6 -66 22q44 11 76 26q-44 36 -38 36h361q103 0 167 -8v77q-50 -6 -165 -6h-238v87h196q100 0 137 -8v80q-60 -8 -135 -8h-198v95h190q117 0 153 -8v80q-3 0 -12 -1
q-94 -7 -143 -7h-188v39q0 62 11 138q1 8 1 11h-103q1 -11 3 -37q5 -72 5 -110v-351h-80q-61 90 -194 246q-35 -35 -84 -55q164 -126 256 -330q-17 -45 -39 -85h-40q-89 119 -131 172q-24 -33 -73 -55q141 -125 228 -320zM623 -2q54 15 95 36q-1 4 -8 11q-27 28 -57 76h135
q91 0 139 -8v86q-68 -8 -139 -8h-58q25 39 52 89l-80 30q-5 -41 -51 -117h-40q-6 9 -26 41q-35 57 -53 84q-26 -18 -84 -38q123 -115 175 -282z" />
</svg>
