<?xml version="1.0" standalone="no"?>
<!DOCTYPE svg PUBLIC "-//W3C//DTD SVG 1.1//EN" "http://www.w3.org/Graphics/SVG/1.1/DTD/svg11.dtd" >
<svg xmlns="http://www.w3.org/2000/svg" xmlns:xlink="http://www.w3.org/1999/xlink" version="1.1" viewBox="-10 0 1034 1024">
  <g transform="matrix(1 0 0 -1 0 820)">
   <path fill="currentColor"
d="M230 627q6 6 14 16h24q13 -12 22 -23q39 -45 62 -77q9 -12 19 -31q3 3 10 9q16 16 14 15q3 0 8 8q-63 76 -66 79l-17 20q141 0 157 -2q15 0 27 -4v47q-19 -4 -66 -5h-172q25 42 57 62q-3 1 -7 2l-13 6q-12 6 -23 12q-9 3 -16 6q-3 -13 -9 -28q-9 -18 -33 -54
q-21 -33 -43 -63q-51 -66 -111 -99q21 -12 44 -35q18 16 41 44q22 24 44 51zM508 -104q0 -42 -5 -67h49q-3 15 -4 39l-1 267h318q0 -1 -11 -69q-9 -64 -38 -80q-25 -12 -70 -13q-24 0 -54 6q15 -33 20 -51q70 4 103 14q30 9 52 34q12 18 17 38q3 12 30 163q-18 -1 -35 -3
q-24 -3 -35 -3h-297v122l248 -1q18 0 47 -4q-4 52 -5 104l4 76q0 4 1 20q-33 -1 -66 -5l-547 1q-4 1 -7 1q-12 1 -26 3v-47q13 6 59 7h253v-121l-242 1q-15 3 -52 6q-3 -28 -4 -58l-15 -91l-15 -55q30 3 62 5h234q-96 -90 -199 -150q-57 -31 -100 -47q-45 -15 -87 -18
q24 -27 37 -50q78 27 165 78q60 34 108 69q48 36 108 91v-212zM230 171l23 122h255v-122h-278zM547 327v121h251v-121h-251zM687 650q21 -18 48 -54q18 -21 50 -68l31 26q-21 28 -78 96h145q22 0 50 -3q12 -1 16 -4v48q-21 -4 -66 -5h-227q27 42 63 70q-42 12 -62 22
q-9 -36 -81 -141q-48 -67 -96 -95l46 -32q48 54 108 140h53z" />
  </g>

</svg>
