<?xml version="1.0" standalone="no"?>
<!DOCTYPE svg PUBLIC "-//W3C//DTD SVG 1.1//EN" "http://www.w3.org/Graphics/SVG/1.1/DTD/svg11.dtd" >
<svg xmlns="http://www.w3.org/2000/svg" xmlns:xlink="http://www.w3.org/1999/xlink" version="1.1" viewBox="-10 0 1010 1000">
   <path fill="currentColor"
d="M256 -17q87 26 93 39q-1 3 -10 9q-17 10 -26 23q-8 12 -20 31q-11 17 -17 25h117q48 0 101 -8v75q-54 -9 -103 -8h-26q31 62 46 101l-84 16q-12 -70 -33 -115h-60q-58 76 -103 121q-32 -26 -85 -42q134 -86 210 -267zM627 -10q42 8 89 32q0 3 -12 14q-16 16 -21 24
q-11 18 -24 39q-6 10 -8 13h182q64 0 102 -10v77q-30 -8 -106 -8h-71q15 33 42 89l-88 16q-4 -15 -9 -37q-9 -47 -22 -68h-66q-36 45 -71 91q-23 -22 -76 -35q97 -77 159 -237zM452 274q39 -4 98 8q-14 36 -14 83q143 -15 254 -45q30 29 65 89q-43 -7 -81 -2
q-129 13 -238 18v113h238q55 0 95 -8q-4 43 -9 113q-5 109 -17 123q-17 35 -156 58q-1 -45 -42 -99q93 12 111 -2q26 -18 28 -117h-248v196q0 74 10 111h-94q8 -40 8 -113v-202q-123 198 -335 293q-27 -47 -81 -73q215 -52 331 -212h-135q-18 0 -55 5q-13 1 -20 2
q7 -37 8 -75v-95q4 -47 -4 -80q53 8 133 10t158 -2q3 -51 -8 -97zM460 429q-58 6 -216 6v103h216v-109z" />
</svg>
