<?xml version="1.0" standalone="no"?>
<!DOCTYPE svg PUBLIC "-//W3C//DTD SVG 1.1//EN" "http://www.w3.org/Graphics/SVG/1.1/DTD/svg11.dtd" >
<svg xmlns="http://www.w3.org/2000/svg" xmlns:xlink="http://www.w3.org/1999/xlink" version="1.1" viewBox="-10 0 1034 1024">
  <g transform="matrix(1 0 0 -1 0 820)">
   <path fill="currentColor"
d="M126 459q70 78 117 148h66q28 -34 48 -61q18 -27 47 -73q19 18 38 31q-6 6 -58 72q-9 13 -23 31q121 0 137 -2q13 0 26 -4v45q-21 -3 -65 -4h-195q0 3 5 7q3 6 7 15q28 45 29 47q15 22 39 32q-27 13 -49 20q-9 3 -14 7q-7 -30 -31 -75q-57 -99 -105 -153q-42 -43 -79 -67
q9 -6 17 -10q18 -9 29 -21q6 7 14 15zM456 315l-4 -91l-10 -257q0 -13 -1 -18q-3 -18 -21 -23q-24 -4 -51 -5q-9 0 -17 1q-10 0 -37 4q3 -10 8 -22q3 -9 6 -15q1 -4 4 -15q40 1 84 10q63 12 64 61l10 306q1 18 3 35l4 48q1 9 3 22q-66 -4 -86 -5h-99v88q0 36 17 61h-60
q1 -30 5 -61v-88l-141 3q-4 1 -7 1q-3 1 -5 1v-47q4 3 52 6h101q-4 -111 -27 -204q-27 -99 -100 -180q-39 -39 -81 -62l56 -30q84 82 122 152q58 103 68 324h140zM707 610q52 -49 102 -134q21 21 36 30q-10 16 -61 79q-9 9 -23 25q186 0 195 -3q3 0 8 -3v47q-21 -4 -66 -5
h-230q27 60 37 76q7 13 28 34q-15 1 -21 4l-43 15q0 -24 -27 -89q-27 -66 -82 -139q-30 -40 -67 -64q16 -6 37 -18q3 -1 6 -3q6 -3 9 -5q39 48 71 100q18 33 33 53h58zM598 -79q-3 -33 -5 -67h47q-3 15 -4 35l-1 63h221q0 -57 -5 -97h48q-3 15 -4 35l-1 447q1 31 5 63
q-33 -1 -66 -5l-194 1q-19 3 -46 4q1 -30 5 -63v-416zM635 -13v373h221v-373h-221z" />
  </g>

</svg>
