<?xml version="1.0" standalone="no"?>
<!DOCTYPE svg PUBLIC "-//W3C//DTD SVG 1.1//EN" "http://www.w3.org/Graphics/SVG/1.1/DTD/svg11.dtd" >
<svg xmlns="http://www.w3.org/2000/svg" xmlns:xlink="http://www.w3.org/1999/xlink" version="1.1" viewBox="-10 0 1034 1024">
  <g transform="matrix(1 0 0 -1 0 820)">
   <path fill="currentColor"
d="M504 -112l-4 -60q0 -3 -1 -5h49q-3 6 -4 27q0 19 -2 38v297h294l-7 -90q-9 -69 -17 -94q-9 -28 -63 -29q-27 0 -69 10q9 -27 17 -56q39 0 65 2q18 3 41 9q28 10 41 35q10 28 19 95q9 82 22 159q-31 -1 -63 -5h-280v171q55 3 103 9l123 17q42 4 59 5l30 -1q-19 42 -24 57
q-37 -15 -100 -27q-91 -15 -191 -23q0 30 3 52q1 18 11 31h-57q4 -12 5 -65v-21q-96 -4 -175 -6q-48 0 -117 10l-7 -101l-12 -89q-3 -31 -10 -60q15 3 52 4l220 1q-93 -123 -213 -198q-96 -60 -156 -66q24 -21 44 -45q135 72 213 135q79 66 161 171v-294zM229 221l21 162
l254 6v-168h-275zM211 593l27 24h69q15 -21 43 -69q15 -27 29 -57q0 -1 2 -6q15 18 42 32q-15 19 -37 51l-33 49q162 0 181 -3q9 0 20 -4v48q-9 -3 -23 -4q-19 0 -39 -2h-225q7 12 20 24q25 33 37 42q9 9 34 21q-12 6 -23 12l-34 23q-7 -18 -30 -52q-48 -63 -93 -106
q-75 -73 -120 -81q25 -16 48 -34q36 28 49 41zM691 621q48 -51 79 -118q15 15 41 28l-71 90l194 -1l28 -4v46l-63 -5h-250q42 54 49 59q9 9 35 21q-28 18 -55 37q-21 -45 -59 -95q-48 -60 -72 -82q-39 -34 -66 -45q27 -12 50 -29l95 98h65z" />
  </g>

</svg>
