<?xml version="1.0" standalone="no"?>
<!DOCTYPE svg PUBLIC "-//W3C//DTD SVG 1.1//EN" "http://www.w3.org/Graphics/SVG/1.1/DTD/svg11.dtd" >
<svg xmlns="http://www.w3.org/2000/svg" xmlns:xlink="http://www.w3.org/1999/xlink" version="1.1" viewBox="-10 0 1010 1000">
   <path fill="currentColor"
d="M617 -17q76 13 93 33q0 2 -7 8q-29 26 -50 66h166q66 0 112 -8v75q-35 -8 -112 -8h-61q30 41 52 88l-82 7q-4 -26 -32 -95h-79q-5 7 -16 21q-46 63 -73 96q-26 -24 -80 -41q114 -74 169 -242zM242 -13q82 15 103 31q0 3 -7 7q-31 22 -66 71h127q65 0 105 -6v71
q-37 -8 -109 -8h-40q22 28 44 87l-78 14q-5 -47 -37 -101h-50q-56 73 -105 127q-16 -26 -66 -47q112 -89 179 -246zM821 268q-8 23 -8 90v35q-1 52 8 103q-36 -8 -119 -8h-160v88h220q89 0 121 -8q-6 116 -28 204q-11 50 -176 64q-1 -54 -32 -98q56 10 71 10q20 1 38 -6
q33 -16 42 -103h-256v171q0 29 6 85q2 16 2 18h-96q13 -31 14 -105v-151q-125 154 -349 244q-15 -45 -69 -79q186 -27 365 -183h-141q-96 0 -125 6q9 -42 8 -99v-40q1 -62 -8 -89q59 8 127 8h192v-85h-210q-64 -1 -113 8v-80q44 8 113 8h423q108 0 140 -8zM542 340v85h200
v-85h-200zM468 488h-240v88h240v-88z" />
</svg>
