<?xml version="1.0" standalone="no"?>
<!DOCTYPE svg PUBLIC "-//W3C//DTD SVG 1.1//EN" "http://www.w3.org/Graphics/SVG/1.1/DTD/svg11.dtd" >
<svg xmlns="http://www.w3.org/2000/svg" xmlns:xlink="http://www.w3.org/1999/xlink" version="1.1" viewBox="-10 0 1010 1000">
   <path fill="currentColor"
d="M611 -12q110 30 107 40q-1 4 -9 10q-31 24 -66 85h141q96 -1 149 -10v86q-35 -9 -137 -10h-46l56 115l-90 20q-5 -40 -20 -87q-9 -28 -15 -48h-70q-62 97 -95 135q-52 -33 -81 -40q120 -85 176 -296zM264 -10q96 31 101 44q-4 5 -11 11q-26 23 -66 80h101q69 0 103 -6v78
q-21 -6 -107 -6h-28q-1 -3 4 12q25 75 32 105l-81 12q-5 -60 -26 -129h-36q-54 76 -111 139q-32 -23 -80 -41q-2 -1 -3 -1q139 -99 208 -298zM633 310q45 30 101 77l-57 42h121q69 -1 135 -8v85q-37 -7 -133 -8h-201v177q108 -76 141 -137q91 55 85 68q-3 2 -9 3
q-19 3 -42 20q-82 61 -175 123v14q0 30 19 41q16 10 70 9h72q97 7 97 -121q39 42 95 49q-24 86 -56 117q-30 33 -88 32h-143q-89 0 -116 -17q-28 -15 -27 -68v-18q-43 25 -135 64q-13 -39 -48 -72q105 -23 183 -69v-215h-74q-40 278 -323 411q-25 -44 -71 -77
q254 -58 313 -334h-143q-105 1 -137 8v-87q58 9 137 10h157q0 -2 1 -7q7 -76 5 -102q120 7 113 16q0 2 -4 5q-21 21 -38 88h201q-25 -37 -86 -77z" />
</svg>
