<?xml version="1.0" standalone="no"?>
<!DOCTYPE svg PUBLIC "-//W3C//DTD SVG 1.1//EN" "http://www.w3.org/Graphics/SVG/1.1/DTD/svg11.dtd" >
<svg xmlns="http://www.w3.org/2000/svg" xmlns:xlink="http://www.w3.org/1999/xlink" version="1.1" viewBox="-10 0 1034 1024">
  <g transform="matrix(1 0 0 -1 0 820)">
   <path fill="currentColor"
d="M288 617q39 -42 93 -138q9 9 22 18q7 4 16 9q-45 69 -77 111h118l50 -4q6 0 15 -3v49q-15 -6 -65 -7h-198q15 43 27 60q6 12 30 28q-33 4 -67 21q-3 -24 -12 -48q-19 -55 -47 -103q-61 -109 -127 -154q31 -13 50 -28q51 66 86 123q30 48 40 66h46zM77 70q7 1 12 4
q6 0 11 2q22 6 47 10l322 52l57 -88q24 -33 48 -62q-64 -27 -138 -54q-52 -16 -101 -28q-87 -18 -137 -18q-24 3 -50 3l33 -49q60 4 100 12q39 6 93 19t103 32q54 19 127 53q94 -73 168 -98q51 -15 85 -16q54 0 75 65q9 30 21 73q-21 6 -46 22q-10 -69 -21 -93
q-12 -24 -34 -24q-57 0 -147 52q-27 15 -61 43l83 55q43 31 59 39q12 7 40 15q-24 15 -56 42q-46 -54 -158 -122q-52 58 -95 132q379 60 398 60q9 1 21 1l15 3q-4 24 -7 48q-10 -4 -28 -9l-40 -10l-378 -57q-10 24 -18 49q-9 34 -16 53l336 51q19 4 39 7q13 0 34 2
q-4 25 -7 49q-37 -12 -73 -20l-88 -15q9 21 24 40q-48 27 -77 40l-49 24l-19 10q-9 -18 -30 -41q91 -30 140 -74l-239 -38q-6 18 -12 56q-6 39 -6 52q0 12 5 35q-31 -3 -63 -7l7 -19l21 -102q3 -7 5 -20l-268 -39q-3 0 -25 1l9 -50q18 6 68 15l224 37q4 -16 11 -34
q7 -22 15 -47q4 -10 9 -22l-304 -46l-48 -4h-32zM693 623q57 -58 115 -145q15 10 23 18l17 9l-96 118q174 0 182 -3q3 0 10 -2v46q-21 -4 -66 -5h-236q3 7 6 13q21 40 27 49q9 10 30 21q-39 9 -70 21q0 -15 -5 -30q-7 -21 -22 -50q-36 -79 -79 -136q-27 -33 -58 -54
q33 -10 58 -28q18 25 47 73q28 46 49 85h68z" />
  </g>

</svg>
