<?xml version="1.0" standalone="no"?>
<!DOCTYPE svg PUBLIC "-//W3C//DTD SVG 1.1//EN" "http://www.w3.org/Graphics/SVG/1.1/DTD/svg11.dtd" >
<svg xmlns="http://www.w3.org/2000/svg" xmlns:xlink="http://www.w3.org/1999/xlink" version="1.1" viewBox="-10 0 1010 1000">
   <path fill="currentColor"
d="M615 -17q82 23 97 39q1 3 -6 7q-31 24 -69 84h121q136 0 167 -9v81q-24 -8 -155 -8q58 75 63 87l-83 32q-19 -61 -52 -121h-97q-17 18 -57 75q-36 -24 -88 -35q106 -75 159 -232zM242 -13q97 33 99 41q-1 3 -7 6q-33 17 -70 74h89q111 0 131 -6v77q-30 -8 -123 -8
q43 57 50 79l-80 16q-11 -60 -35 -93h-66q-41 47 -89 113q-23 -21 -87 -46q136 -91 188 -253zM456 248q83 2 102 12q2 3 -4 13q-14 23 -14 45v38h101q144 0 184 -10v83q-18 -10 -164 -10h-119v105h208q128 0 153 -10v86q-39 -8 -159 -8h-123v164q-1 31 13 39q10 8 62 7h62
q37 1 47 -19q12 -16 16 -84q42 48 94 55q-35 135 -117 127h-141q-72 1 -92 -20q-22 -19 -21 -87v-182h-106q-5 226 -267 321q-24 -53 -72 -77q250 -42 262 -244h-107q-112 0 -167 10v-86q19 8 165 8h214v-105h-204q-27 45 -56 75q-51 -27 -93 -31q109 -78 145 -207
q14 5 39 15q66 24 64 29q-1 2 -7 4q-33 7 -58 52h168q1 -91 -8 -108z" />
</svg>
