<?xml version="1.0" standalone="no"?>
<!DOCTYPE svg PUBLIC "-//W3C//DTD SVG 1.1//EN" "http://www.w3.org/Graphics/SVG/1.1/DTD/svg11.dtd" >
<svg xmlns="http://www.w3.org/2000/svg" xmlns:xlink="http://www.w3.org/1999/xlink" version="1.1" viewBox="-10 0 1034 1024">
  <g transform="matrix(1 0 0 -1 0 820)">
   <path fill="currentColor"
d="M308 385q135 0 158 -3q3 0 9 -3v47l-62 -5l-281 1l-18 2q-3 0 -12 2v-47q1 0 38 5l131 1v-346q-30 -9 -52 -13l-59 -11q-42 -7 -74 -8q13 -27 21 -56q39 18 177 51q45 9 86 21l65 15q18 4 58 11q0 30 6 52q-30 -12 -68 -24q-67 -16 -123 -28v336zM555 445l4 -52
q0 -522 -3 -543q-1 -3 -2 -12h49q-3 7 -4 26q0 18 -2 37v514h229q-40 -93 -88 -175q87 -48 112 -80q28 -33 29 -74q0 -55 -40 -80q-31 -21 -83 -21q-27 0 -70 8l6 -18q4 -10 9 -35q60 3 99 9q51 12 83 43q33 37 34 95q0 66 -58 117q-22 21 -69 51l81 161q9 15 21 40
q-21 0 -51 -5h-229q-9 1 -58 5q0 -4 1 -11zM281 624q21 -24 40 -50q33 -54 42 -72l4 -8q16 15 41 24q-27 42 -77 106q159 0 172 -2q6 0 16 -4v47l-62 -5h-224q30 54 43 69q10 15 31 26q-31 15 -56 32q-6 -19 -15 -40q-18 -39 -36 -71q-18 -30 -39 -60q-60 -88 -104 -100
l51 -31l1 -1l43 55l63 85h66zM475 515q9 -4 28 -17l56 86q15 21 29 44h97q21 -24 30 -37q46 -73 54 -89q0 -1 2 -5q10 10 18 14q3 3 23 13l-54 73l-22 31l189 -1q12 0 35 -4v46q-3 0 -8 -2q-15 0 -31 -2l-314 -1q27 54 38 68q13 18 35 30q-7 1 -60 28q-31 -112 -115 -214
q-33 -39 -56 -47q21 -10 26 -14v0z" />
  </g>

</svg>
