<?xml version="1.0" standalone="no"?>
<!DOCTYPE svg PUBLIC "-//W3C//DTD SVG 1.1//EN" "http://www.w3.org/Graphics/SVG/1.1/DTD/svg11.dtd" >
<svg xmlns="http://www.w3.org/2000/svg" xmlns:xlink="http://www.w3.org/1999/xlink" version="1.1" viewBox="-10 0 1034 1024">
  <g transform="matrix(1 0 0 -1 0 820)">
   <path fill="currentColor"
d="M201 -150q87 42 134 77q102 79 121 254h173v-251q0 -37 25 -55q25 -15 103 -16q75 0 119 10q39 9 60 47q6 13 20 52q7 15 8 23q-21 9 -51 26l1 -31q0 -27 -14 -52q-15 -25 -55 -33q-27 -4 -90 -5q-45 0 -67 8q-21 9 -21 43v234q255 0 267 -2q6 0 17 -4v47q-9 -3 -23 -3
q-18 0 -41 -2h-340v136l261 -1q12 0 26 -5v47q-3 0 -8 -2q-15 0 -31 -2l-248 -1q0 60 2 68l4 25q3 6 8 18h-57q4 -12 5 -65v-46h-213q6 15 12 28q15 37 45 59q-33 9 -60 23q-13 -52 -52 -133q-34 -64 -75 -97q33 -9 53 -19q27 49 50 87q4 7 8 16h232v-136l-368 1
q-12 0 -30 4v-47q6 3 13 3q27 3 53 3h236q-9 -93 -43 -156q-45 -73 -163 -127q-64 -24 -109 -27l26 -26q7 -9 17 -23q13 4 27 11q16 9 33 17zM192 580l24 32h91q57 -78 75 -130q15 15 41 28q-45 64 -68 102q144 0 157 -2q6 0 16 -4v47q-10 -1 -22 -4l-272 -1l6 9q4 9 11 17
q18 36 27 44q7 9 32 25q-33 15 -56 31q-3 -10 -20 -49q-16 -31 -39 -68q-21 -36 -45 -70q-21 -33 -40 -51q-27 -28 -53 -42q24 -12 49 -29q27 33 46 58q19 28 40 57zM488 537q4 -1 10 -3q4 -4 37 -19q33 54 67 102h108q63 -76 86 -133q18 15 42 26q-48 60 -69 93q0 1 -9 14
q159 0 177 -3q9 0 20 -4v48q-9 -3 -23 -4q-21 0 -40 -2h-273q4 7 8 16q18 36 31 54q9 12 31 28q-12 3 -23 9q-12 6 -34 18q-13 -42 -25 -65q-15 -30 -45 -82q-36 -66 -80 -91q1 0 4 -2v0z" />
  </g>

</svg>
