<?xml version="1.0" standalone="no"?>
<!DOCTYPE svg PUBLIC "-//W3C//DTD SVG 1.1//EN" "http://www.w3.org/Graphics/SVG/1.1/DTD/svg11.dtd" >
<svg xmlns="http://www.w3.org/2000/svg" xmlns:xlink="http://www.w3.org/1999/xlink" version="1.1" viewBox="-10 0 1034 1024">
  <g transform="matrix(1 0 0 -1 0 820)">
   <path fill="currentColor"
d="M265 232q6 3 35 3q9 1 87 2h106v-130q-219 0 -236 3q-3 0 -9 2v-47q1 0 38 5l207 1v-169q-339 0 -356 3q-3 0 -9 2v-47q12 6 52 6l697 -1q22 0 34 -4l2 -1v47q-3 0 -8 -2q-15 0 -32 -2l-343 -1v169l230 -1q21 0 35 -5v47q-3 0 -8 -2q-15 0 -31 -2l-226 -1v130h181
q4 0 46 -3l17 -2v43q33 -16 64 -30l109 -42q10 19 15 24q6 9 20 27q-45 3 -79 13q-61 15 -139 54q-133 67 -234 156q10 3 21 5q-33 18 -55 34q-30 -40 -103 -108q-90 -76 -227 -142q-66 -31 -119 -34q19 -19 27 -34q1 -1 10 -13q72 30 114 51q33 16 67 36v-40zM335 273
q-30 3 -54 3q-3 1 -5 1q4 3 11 6q115 75 215 172q24 -24 56 -49q31 -25 61 -46l138 -83q-33 -3 -46 -4h-376zM166 513q15 19 31 37q22 25 43 50h43q73 -78 110 -144q12 13 36 30q-19 22 -48 58q-27 34 -46 56l159 -3q3 0 9 -3v47q-1 0 -60 -5h-182q16 30 42 59q16 21 40 32
q-12 4 -22 9q-25 12 -38 21q-13 -39 -52 -95q-58 -88 -113 -140q-27 -21 -50 -29q24 -15 47 -36q0 1 51 56zM618 581l19 24h62q18 -18 29 -30q73 -90 84 -104q3 -6 9 -13l12 12q9 10 24 21l-102 114q177 0 183 -3q4 0 7 -2v46l-63 -5h-228q4 7 10 14q24 40 37 55q6 9 30 24
q-22 6 -58 23q-16 -42 -80 -143q-40 -61 -80 -86q10 -3 23 -8q1 0 30 -13l17 23q16 25 35 51v0z" />
  </g>

</svg>
