<?xml version="1.0" standalone="no"?>
<!DOCTYPE svg PUBLIC "-//W3C//DTD SVG 1.1//EN" "http://www.w3.org/Graphics/SVG/1.1/DTD/svg11.dtd" >
<svg xmlns="http://www.w3.org/2000/svg" xmlns:xlink="http://www.w3.org/1999/xlink" version="1.1" viewBox="-10 0 1010 1000">
   <path fill="currentColor"
d="M240 -15q75 18 97 33q0 4 -8 10q-30 23 -55 72h133q67 0 97 -6v71q-26 -6 -97 -6h-46q6 10 29 60q10 21 15 33l-86 20q0 -43 -27 -113h-54q-89 116 -113 137q-28 -23 -75 -38q146 -114 190 -273zM621 -15q75 19 91 33l-6 6q-21 13 -51 72h170q61 0 113 -8v77
q-36 -8 -109 -8h-45q21 49 41 93l-85 20q-1 -52 -28 -113h-89q-39 65 -89 131q-39 -29 -82 -40q117 -84 169 -263zM607 264q103 5 105 16q-1 4 -8 11q-13 14 -14 27q-5 42 -5 79h109q23 0 79 -6h4q-9 102 -12 332q1 97 -31 120q-25 28 -149 42q2 -50 -42 -99q107 20 135 -24
q13 -24 18 -305h-113q-4 289 -191 454q-35 -37 -83 -51q187 -95 202 -403h-42q-50 1 -89 8v-76q19 4 69 7q18 0 26 1h38q0 -103 -6 -133zM341 298q87 -2 115 -6q-6 35 -8 133v347q16 73 -152 90q4 -48 -38 -90q73 6 95 -3q22 -7 20 -40v-82h-165q-14 137 -91 240
q-34 -29 -79 -37q76 -61 94 -170q21 -108 9 -388q25 3 115 6h85zM373 358h-161v87h161v-87zM212 504l-2 84h163v-84h-161z" />
</svg>
