<?xml version="1.0" standalone="no"?>
<!DOCTYPE svg PUBLIC "-//W3C//DTD SVG 1.1//EN" "http://www.w3.org/Graphics/SVG/1.1/DTD/svg11.dtd" >
<svg xmlns="http://www.w3.org/2000/svg" xmlns:xlink="http://www.w3.org/1999/xlink" version="1.1" viewBox="-10 0 1034 1024">
  <g transform="matrix(1 0 0 -1 0 820)">
   <path fill="currentColor"
d="M413 99v-145q0 -24 -13 -31q-15 -7 -41 -8q-7 0 -34 4q-9 0 -19 3q18 -45 19 -51q48 1 75 11q51 13 51 60l1 461q0 18 4 47q-33 -1 -68 -5l-178 1q-3 0 -44 4q1 -31 5 -65l-1 -273q-3 -12 -5 -30q-6 -33 -15 -64q-18 -58 -48 -109q-15 -21 -41 -42q30 -12 53 -19
q37 63 61 123q19 58 32 128h206zM208 135v125h205v-125h-205zM413 296h-205v113h205v-113zM274 623q66 -75 97 -132q6 9 27 23q1 3 7 5q3 0 5 2q-39 51 -82 102l152 -1q22 0 39 -5v47q-19 -4 -65 -5h-208q33 67 60 91q-39 12 -55 22q-18 -48 -32 -76q-18 -33 -45 -76
q-49 -78 -113 -115q24 -10 46 -29q37 34 85 99l33 48h49zM631 308q-10 -276 -127 -395q-24 -21 -69 -43q27 -15 42 -28q4 -3 9 -8q126 115 163 293q9 45 20 181l189 8l-11 -314q-1 -6 -1 -15q-4 -45 -28 -55q-30 -9 -80 -10q-18 0 -46 3q7 -13 14 -39q1 -4 3 -11q55 4 85 10
q73 13 84 61q3 15 7 66q3 60 5 168l3 100l6 76q-33 -1 -67 -5l-161 -7q1 22 2 46l5 66q3 15 14 40q-12 0 -61 8q3 -24 4 -84q0 -28 -3 -76q-99 -3 -112 -5q-9 0 -17 -2q-1 0 -20 2q1 -24 4 -48q34 10 75 14zM711 625q45 -54 92 -143q12 13 17 16q6 3 20 15q-48 69 -58 82
q-9 12 -22 30l154 -1q24 0 40 -5v47q-21 -4 -66 -5h-249q6 16 23 41q6 10 16 25q10 13 23 27q-36 10 -62 22q-10 -42 -26 -72q-36 -72 -75 -123q-33 -39 -64 -56q15 -9 21 -11q18 -9 31 -19q12 15 30 39l62 91h93z" />
  </g>

</svg>
