<?xml version="1.0" standalone="no"?>
<!DOCTYPE svg PUBLIC "-//W3C//DTD SVG 1.1//EN" "http://www.w3.org/Graphics/SVG/1.1/DTD/svg11.dtd" >
<svg xmlns="http://www.w3.org/2000/svg" xmlns:xlink="http://www.w3.org/1999/xlink" version="1.1" viewBox="-10 0 1010 1000">
   <path fill="currentColor"
d="M244 -8q84 30 91 46q0 3 -8 10q-33 27 -67 79h135q37 0 80 -6q13 -2 17 -2v80q-2 0 -15 -2q-47 -6 -80 -6h-62q21 38 40 117l-85 10q-4 -83 -30 -129h-30q-68 94 -103 141q-39 -33 -79 -48q136 -120 196 -290zM611 -4q83 23 105 42q0 5 -12 15q-36 29 -63 74h198
q60 0 99 -8v80q-27 -8 -99 -8h-87q25 41 50 123l-90 12q-7 -45 -31 -135h-68q-5 7 -14 21q-55 87 -91 126q-24 -20 -83 -34q96 -76 186 -308zM673 373q106 0 137 -8q-18 131 -26 356q-2 56 3 66q5 13 28 11q50 9 58 -105q59 32 87 42q-26 101 -49 119q-24 25 -98 21
q-87 -1 -99 -20q-21 -16 -12 -91q2 -16 9 -135q7 -138 11 -190h-194q3 117 -3 181q-5 66 -20 111q-21 77 -136 182q-39 -40 -87 -61q103 -46 137 -123q38 -79 37 -250q0 -75 -4 -114q23 8 137 8h84zM71 377q2 0 16 2q50 6 82 6h148q44 0 75 -5q7 -1 9 -1v86q-2 0 -9 -1
q-36 -7 -73 -7h-33v236l107 -22l-12 81q-177 38 -323 80l-22 -92l174 -35v-250h-43q-36 0 -80 5q-13 1 -16 1v-84zM571 514l74 2q14 100 16 187l-80 -2q7 -105 -10 -187z" />
</svg>
