<?xml version="1.0" standalone="no"?>
<!DOCTYPE svg PUBLIC "-//W3C//DTD SVG 1.1//EN" "http://www.w3.org/Graphics/SVG/1.1/DTD/svg11.dtd" >
<svg xmlns="http://www.w3.org/2000/svg" xmlns:xlink="http://www.w3.org/1999/xlink" version="1.1" viewBox="-10 0 1034 1024">
  <g transform="matrix(1 0 0 -1 0 820)">
   <path fill="currentColor"
d="M487 289l-420 4q-1 0 -5 1v-47q6 3 12 3q27 3 56 3h550v-117l-546 3q-3 0 -8 2v-47q9 4 26 5l528 1v-165q0 -42 -21 -52q-24 -13 -74 -14q-19 0 -75 6q10 -24 18 -50l75 5q69 6 96 31q18 18 19 63v176q138 0 155 -2q12 0 25 -4v47q-19 -4 -65 -5h-115v117q207 0 225 -2
q9 0 21 -4v47q-18 -4 -66 -5h-373v108l253 -1q24 0 40 -5v47q-16 -4 -66 -5h-227q0 51 6 59q1 9 12 21h-61q1 -4 2 -14q1 -24 3 -34v-32q-267 0 -282 3q-3 1 -9 2v-47q4 3 52 6h239v-108zM129 491l91 122h86q13 -18 58 -89q1 -4 5 -10q3 -6 14 -32q13 12 34 24q-4 6 -7 12
q-10 18 -22 35q-18 30 -30 48q-3 4 -7 12l112 -1q24 0 40 -5v46q-18 -3 -66 -4h-200q24 39 32 50q9 12 30 25q-39 12 -58 31q-7 -34 -65 -127q-60 -94 -127 -145q30 -7 56 -25zM298 39q34 -22 63 -47q24 -24 51 -48q12 -12 29 -32q1 3 8 12q9 12 19 23q-36 34 -76 68l-66 55
q0 -1 -3 -3q-3 -3 -5 -7q-9 -9 -20 -21zM543 538q0 1 62 80h93q42 -52 75 -128q3 3 34 27q-13 24 -33 53q-3 6 -29 48q162 0 169 -3q4 -1 11 -4v48q-15 -6 -66 -6h-232q6 12 14 24q22 39 50 59q-39 10 -59 26q-10 -46 -57 -116q-42 -57 -92 -86q39 -15 56 -29q1 4 4 7v0z
" />
  </g>

</svg>
