<?xml version="1.0" standalone="no"?>
<!DOCTYPE svg PUBLIC "-//W3C//DTD SVG 1.1//EN" "http://www.w3.org/Graphics/SVG/1.1/DTD/svg11.dtd" >
<svg xmlns="http://www.w3.org/2000/svg" xmlns:xlink="http://www.w3.org/1999/xlink" version="1.1" viewBox="-10 0 1010 1000">
   <path fill="currentColor"
d="M605 -23q100 21 101 31q-1 7 -14 17q-33 25 -59 69h184q105 -1 114 -10v85q-9 -9 -108 -8h-53q19 35 42 103l-90 18q-16 -79 -35 -121h-90l-59 79q-25 -11 -98 -23q87 -49 165 -240zM238 -17q116 29 109 39q-2 8 -17 16q-37 17 -64 54h125q78 0 99 -8v81h-1
q-20 -8 -96 -8h-28l30 109l-89 10q-4 -72 -26 -119h-58l-107 125q-18 -22 -89 -40q125 -86 212 -259zM444 246q84 1 106 16q1 4 -5 10q-17 17 -17 50h162q40 0 122 -7q10 -1 13 -1v83h-1q-23 -8 -134 -8h-162v76h256q72 0 135 -7q14 -1 18 -1v83q-62 -8 -145 -8h-72v80h48
q75 0 117 -6q8 -1 12 -2v85q-3 0 -10 -2q-48 -8 -115 -8h-52v131q0 62 -34 84q-23 20 -128 25q-15 -58 -48 -105q133 31 133 -24v-111h-401q-89 1 -143 8v-83q29 7 145 8h399v-80h-456q-44 0 -105 6q-22 2 -28 2v-83q6 1 19 2q45 6 106 6h273v-76h-146q-126 -1 -135 8v-83
q23 8 133 8h148q-1 -52 -8 -76zM442 790l-85 48q-52 -90 -83 -117l75 -36q18 10 93 105z" />
</svg>
