<?xml version="1.0" standalone="no"?>
<!DOCTYPE svg PUBLIC "-//W3C//DTD SVG 1.1//EN" "http://www.w3.org/Graphics/SVG/1.1/DTD/svg11.dtd" >
<svg xmlns="http://www.w3.org/2000/svg" xmlns:xlink="http://www.w3.org/1999/xlink" version="1.1" viewBox="-10 0 1034 1024">
  <g transform="matrix(1 0 0 -1 0 820)">
   <path fill="currentColor"
d="M501 -95q-3 -33 -5 -66h49q-4 12 -5 35l-1 320q46 -69 107 -123q42 -40 125 -94q81 -52 152 -82q19 25 41 52q-117 19 -236 110q-118 90 -189 211v33h240v-129q0 -15 -5 -23q-4 -4 -29 -5q-22 0 -48 8q15 -30 20 -50l55 5q45 7 45 49l1 137q1 24 5 49q-33 -1 -65 -5h-219
v93l359 -1q24 0 40 -5v47q-19 -4 -66 -5h-333q1 34 16 59h-59q3 -13 4 -38q0 -10 1 -21q-378 0 -407 3q-3 1 -4 1q-3 1 -6 1v-47q4 3 52 6h365v-93l-227 1q-15 3 -46 4q1 -31 5 -65q0 -135 -2 -163l-3 -17h48q-4 12 -5 40l-1 164h231v-34q-25 -51 -96 -131
q-76 -82 -184 -142q-102 -54 -159 -64q21 -15 45 -42q114 48 218 124q76 51 176 180v-287zM198 586q15 18 32 41h77q16 -21 21 -28q9 -13 23 -37q21 -34 32 -59q4 3 39 24q-34 51 -37 56q-3 3 -21 31q-4 7 -8 13q118 0 134 -2q13 0 26 -4v47q-21 -4 -65 -5h-194q36 60 74 79
q-33 10 -60 24q-45 -91 -121 -177q-22 -25 -67 -57q27 -12 48 -28l43 50q0 1 24 32zM726 632q60 -78 86 -133q19 12 40 22q-60 90 -77 111q162 0 174 -3q1 0 6 -2v46q-19 -4 -66 -5h-235q30 54 70 85q-37 12 -59 23q-18 -45 -64 -116q-42 -60 -92 -85q24 -12 48 -32
q25 25 56 67q9 10 17 22h96z" />
  </g>

</svg>
