<?xml version="1.0" standalone="no"?>
<!DOCTYPE svg PUBLIC "-//W3C//DTD SVG 1.1//EN" "http://www.w3.org/Graphics/SVG/1.1/DTD/svg11.dtd" >
<svg xmlns="http://www.w3.org/2000/svg" xmlns:xlink="http://www.w3.org/1999/xlink" version="1.1" viewBox="-10 0 1010 1000">
   <path fill="currentColor"
d="M627 -17q97 24 101 35q-2 3 -7 6q-26 17 -62 76h170q82 0 111 -8v77q-38 -6 -103 -6h-75q18 39 42 95l-88 10q-3 -50 -26 -105h-65q-35 55 -81 109q-29 -22 -80 -34q127 -112 163 -255zM240 -4q89 27 95 44q-1 2 -6 5q-27 13 -57 57h127q81 -1 115 -6v73q-27 -6 -101 -6
h-56q8 17 25 54q12 28 19 43l-89 12q0 -45 -22 -107h-58q-58 74 -107 119q-35 -30 -77 -46q130 -82 192 -242zM857 288q-6 43 -6 139v381q2 56 -27 73q-21 17 -134 32q-3 -46 -37 -95q124 20 119 -54v-406h-548v412q2 100 6 133h-95q10 -40 12 -133v-345q-1 -87 -8 -137
q62 6 182 6h369q90 0 167 -6zM282 419q27 5 111 8h192q86 -3 117 -6v77q-44 -6 -119 -6h-192q-84 0 -109 6v-79zM329 548q24 3 90 6h148q73 -1 94 -4q-4 25 -4 73v64q0 54 4 81q-18 -6 -88 -6h-150q-57 0 -96 6q6 -21 6 -83v-66q0 -53 -4 -71zM407 617v82h176v-82h-176z" />
</svg>
