<?xml version="1.0" standalone="no"?>
<!DOCTYPE svg PUBLIC "-//W3C//DTD SVG 1.1//EN" "http://www.w3.org/Graphics/SVG/1.1/DTD/svg11.dtd" >
<svg xmlns="http://www.w3.org/2000/svg" xmlns:xlink="http://www.w3.org/1999/xlink" version="1.1" viewBox="-10 0 1034 1024">
  <g transform="matrix(1 0 0 -1 0 820)">
   <path fill="currentColor"
d="M261 600q81 -93 105 -143l34 31l-66 87l-21 25q160 0 176 -2q12 0 25 -4v47q-21 -4 -66 -5h-204q4 4 9 13q24 42 35 54q7 10 36 30q-49 19 -59 26q-21 -52 -74 -134q-36 -52 -60 -81q-28 -30 -64 -56q18 -4 36 -15q7 -4 16 -9l105 136h37zM280 307v78q0 16 3 32
q3 12 15 28h-62q1 -13 5 -28l1 -110l-144 3q-3 0 -7 1q-3 1 -5 1v-47q4 3 52 6h104v-278q-87 -34 -156 -47l18 -24q6 -10 16 -29q28 16 61 31l141 61q66 30 84 36q3 27 7 52q-36 -25 -133 -64v262q93 0 108 -2q12 0 27 -4v47q-21 -4 -66 -5h-69zM455 171q27 39 55 94
q22 43 46 85h319q-12 -309 -12 -318q-6 -75 -10 -92q-9 -31 -40 -40q-40 -9 -93 -9q-21 0 -58 5q13 -27 20 -52q96 6 137 17q40 9 59 35q12 21 16 48q4 37 9 112l8 224q1 60 10 112q-36 -1 -71 -5h-279q3 4 7 15q12 30 38 51q-27 6 -59 16q-3 1 -5 2q-25 -106 -98 -219
q-30 -40 -55 -61q9 0 43 -13zM484 -29q21 12 53 25q3 0 8 3q94 39 130 50l55 18q42 12 59 21q3 36 11 55q-60 -31 -170 -71q-115 -39 -169 -46q7 -15 16 -36q3 -9 7 -19zM598 590q6 7 12 17h75q31 -39 53 -68q19 -31 43 -76q18 18 25 24l11 10q-9 13 -41 56q-9 13 -40 54
h147q18 0 50 -3q10 0 16 -4v48q-18 -4 -66 -5h-252q28 55 39 70q12 18 33 36q-25 3 -64 18q-9 -42 -59 -133q-69 -109 -108 -138q33 -10 46 -16q3 -1 7 -3l26 38l12 19q16 28 35 56zM570 226q27 -10 76 -39q42 -24 57 -40q10 24 21 40l-67 41l-65 36q-3 -3 -7 -14
q-6 -13 -10 -19q-3 -1 -5 -5v0z" />
  </g>

</svg>
