<?xml version="1.0" standalone="no"?>
<!DOCTYPE svg PUBLIC "-//W3C//DTD SVG 1.1//EN" "http://www.w3.org/Graphics/SVG/1.1/DTD/svg11.dtd" >
<svg xmlns="http://www.w3.org/2000/svg" xmlns:xlink="http://www.w3.org/1999/xlink" version="1.1" viewBox="-10 0 1010 1000">
   <path fill="currentColor"
d="M248 -10q91 22 109 32q-1 4 -10 8q-38 21 -75 82h105q73 0 95 -1q29 -1 44 -5v77q-34 -4 -139 -4q13 30 34 89q1 3 2 4l-88 10q-10 -63 -29 -103h-68q-39 55 -95 121q-28 -30 -85 -42q126 -89 200 -268zM623 -10q98 24 109 36q-2 4 -9 7q-28 12 -62 77h101q85 0 118 -2
q34 -1 51 -6v81q-27 -6 -153 -6q27 52 45 97l-89 14q-10 -67 -28 -111h-83q-16 27 -52 76q-9 12 -13 17q96 21 99 28q-2 4 -9 8q-28 15 -55 63h151q88 2 155 -6q-6 43 -14 200q-12 225 -24 267q-6 62 -178 75q-2 -40 -40 -101q107 14 127 -8q26 14 36 -355h-252
q-20 29 -70 94q-20 25 -30 39q-35 -25 -79 -36q125 -115 175 -260q-41 -22 -88 -32q106 -70 161 -256zM206 272h25q71 -2 69 6q1 5 -3 12q-9 16 -9 46v79q91 0 119 -8v81q-27 -5 -119 -5v196q4 -2 15 -6q21 -10 98 -40q-3 11 -4 39q-1 26 2 41q-208 69 -288 118q-8 5 -10 5
q-4 -14 -30 -63q-11 -20 -15 -29q1 -2 14 -5q56 -10 140 -36v-220q-92 0 -115 5v-79q24 8 115 8q0 -124 -4 -145zM619 477q48 80 62 113l-78 25q-19 -59 -53 -105zM740 619q-5 18 -4 60v16q-178 39 -262 75q-13 5 -16 4q-16 -71 -25 -87l4 -1q97 -5 303 -67z" />
</svg>
