<?xml version="1.0" standalone="no"?>
<!DOCTYPE svg PUBLIC "-//W3C//DTD SVG 1.1//EN" "http://www.w3.org/Graphics/SVG/1.1/DTD/svg11.dtd" >
<svg xmlns="http://www.w3.org/2000/svg" xmlns:xlink="http://www.w3.org/1999/xlink" version="1.1" viewBox="-10 0 1010 1000">
   <path fill="currentColor"
d="M246 -6q92 17 113 28q-1 2 -8 8q-40 32 -79 97h85q113 0 147 -12v82q-25 -6 -145 -6q3 7 10 21q21 42 30 70l-86 12q-1 -36 -17 -103h-64q-8 9 -24 28q-46 56 -73 87q-36 -32 -81 -46q128 -100 192 -266zM617 -4q92 24 107 32q-1 3 -8 9q-37 27 -67 86h121q126 0 153 -11
v85q-28 -10 -145 -10q33 70 37 101l-85 12q-4 -52 -34 -113h-77q-14 20 -50 69q-24 32 -37 50q-27 -23 -82 -46q104 -77 167 -264zM133 316q36 10 194 10h383q124 0 165 -8v85q-9 -4 -43 -5t-116 -1h-178v395h192q90 0 129 -2q42 -2 68 -8v89q-44 -8 -193 -8h-456
q-144 1 -195 12v-91q19 5 56 7q19 0 47 1h84h184v-395h-129q-184 -1 -192 8v-89zM238 423q57 6 109 24q-2 3 -9 8q-30 22 -46 67q118 89 139 113l-66 66q-43 -57 -101 -111q-31 73 -87 148l-84 -37q124 -111 145 -278zM683 427q105 14 111 22q1 3 -8 11q-30 28 -48 68
q90 79 153 127l-74 62q-31 -56 -105 -121q-34 60 -85 129l-83 -34q112 -93 139 -264z" />
</svg>
