<?xml version="1.0" standalone="no"?>
<!DOCTYPE svg PUBLIC "-//W3C//DTD SVG 1.1//EN" "http://www.w3.org/Graphics/SVG/1.1/DTD/svg11.dtd" >
<svg xmlns="http://www.w3.org/2000/svg" xmlns:xlink="http://www.w3.org/1999/xlink" version="1.1" viewBox="-10 0 1034 1024">
  <g transform="matrix(1 0 0 -1 0 820)">
   <path fill="currentColor"
d="M220 -93q-3 -33 -5 -66h49q-4 12 -5 35l-1 463q6 9 12 20q24 42 33 53q6 10 35 36q-12 4 -38 21q-3 1 -4 3l-9 6q-31 -70 -105 -177q-69 -99 -134 -134q27 -18 45 -35l59 64q0 3 3 4q19 24 65 84v-377zM192 591q7 10 17 21h70q37 -52 58 -83q13 -21 28 -53q15 9 13 9
q3 0 13 9q7 3 12 7q-6 7 -41 64l-30 47q138 0 154 -2q13 0 26 -4v47q-19 -4 -66 -5h-213q27 45 38 55q10 13 36 29q-37 18 -57 31q-24 -48 -42 -79q-15 -27 -38 -57q-36 -49 -61 -76q-22 -21 -55 -41q19 -6 37 -17q4 -4 15 -11q31 34 52 62q16 24 34 47zM885 326q24 0 51 -3
q6 0 15 -3v47q-24 -4 -66 -5h-291q22 57 31 72q9 18 32 43q-27 4 -62 18q-10 -60 -61 -162q-55 -112 -111 -145q6 0 44 -22q1 -1 7 -5q16 22 38 55q13 22 29 44q15 24 28 51q4 7 10 15h196q-6 -43 -32 -128q-9 -28 -21 -53q-15 -27 -42 -70q-69 93 -85 168q-27 -15 -53 -23
l30 -46q21 -42 39 -71l40 -59q-54 -57 -140 -105q-85 -46 -156 -57q18 -16 39 -48q78 33 167 87q66 42 119 92q66 -66 143 -115q75 -46 103 -57q9 9 19 20q9 12 26 26q-54 12 -97 33q-46 24 -106 68q-39 30 -59 56q37 54 62 113q24 60 50 169h64zM413 1q0 1 -6 43l-1 250
q0 36 18 60h-61q0 -3 6 -58l-1 -257q-4 -34 -5 -38h50zM710 614q12 -18 20 -29q6 -9 23 -41l19 -36q6 -10 12 -26q18 15 39 25l-63 107l165 -1q24 0 40 -5v47q-16 -4 -66 -5h-275q39 75 69 94q-39 12 -60 24q-16 -54 -65 -133q-54 -88 -114 -124q10 -4 20 -10q18 -7 29 -17
q21 24 87 111q6 9 13 19h107z" />
  </g>

</svg>
