<?xml version="1.0" standalone="no"?>
<!DOCTYPE svg PUBLIC "-//W3C//DTD SVG 1.1//EN" "http://www.w3.org/Graphics/SVG/1.1/DTD/svg11.dtd" >
<svg xmlns="http://www.w3.org/2000/svg" xmlns:xlink="http://www.w3.org/1999/xlink" version="1.1" viewBox="-10 0 1010 1000">
   <path fill="currentColor"
d="M615 -15q93 13 101 27q0 2 -6 6q-32 22 -57 70h168q84 -1 114 -8v83q-38 -7 -112 -8h-71q9 16 39 83q3 8 5 12l-86 16q-15 -79 -27 -111h-70l-15 21q-24 33 -50 70q-3 -1 -9 -4q-46 -20 -75 -23q95 -70 151 -234zM254 -10q91 23 101 34q-2 6 -12 13q-26 20 -55 55h113
q76 0 105 -6v81q-37 -8 -105 -8h-46q12 36 34 91l-79 14q-11 -67 -26 -105h-42q-10 12 -30 35q-53 62 -67 74q-28 -19 -85 -33q125 -79 194 -245zM417 227q100 12 95 23q-1 6 -6 13q-10 14 -16 35h204q97 -2 165 -8v75q-48 -10 -169 -7h-210q-1 0 -7 25q-6 21 -9 32h240
q72 0 121 -8v74q-41 -6 -119 -6h-260q-5 15 -21 51h373q82 0 133 -8v80q-38 -10 -127 -10h-56v65h56q62 0 113 -8v80q-13 -8 -115 -8h-52v105q2 53 -25 65q-22 16 -128 24q4 -50 -32 -99q71 15 90 9q20 -2 18 -33v-71h-361q-58 71 -173 160q-48 -42 -91 -59
q161 -71 267 -230h-132q-7 1 -32 2q-62 2 -82 6v-78q7 1 25 2q58 6 87 6h168q16 -36 24 -51h-99q-54 0 -73 1q-23 0 -40 3v-72q35 8 109 8h121q7 -23 14 -57h-161q-67 0 -119 7v-77q4 0 12 1q64 9 105 9h171q5 -39 4 -71zM673 588h-274q-4 7 -12 20q-21 34 -32 47h318v-67z
M444 729q24 52 54 109l-87 24q-13 -53 -46 -114z" />
</svg>
