<?xml version="1.0" standalone="no"?>
<!DOCTYPE svg PUBLIC "-//W3C//DTD SVG 1.1//EN" "http://www.w3.org/Graphics/SVG/1.1/DTD/svg11.dtd" >
<svg xmlns="http://www.w3.org/2000/svg" xmlns:xlink="http://www.w3.org/1999/xlink" version="1.1" viewBox="-10 0 1034 1024">
  <g transform="matrix(1 0 0 -1 0 820)">
   <path fill="currentColor"
d="M709 196v-97l-360 3q-3 1 -5 1q-3 1 -5 1v-47q7 3 26 4q7 1 80 2h264v-136q0 -33 -25 -42q-31 -9 -72 -10q-10 0 -57 6q7 -16 12 -36q0 -9 2 -19l62 6q49 3 82 21q33 19 34 57v153q112 0 128 -2q12 0 25 -4v47q-19 -4 -65 -5h-88v97l175 -1q24 0 40 -5v47q-19 -4 -66 -5
h-477q18 36 34 78h306q24 0 51 -3q6 0 16 -3v47q-21 -4 -67 -5h-295q12 46 22 90l368 -1q22 0 39 -5v47q-19 -4 -65 -5h-336q3 9 6 16q4 21 16 34q-34 4 -39 5l-21 5q0 -30 -5 -60l-277 1q-6 1 -22 2q-3 1 -6 1q-3 1 -6 1v-47q7 3 26 4q6 1 42 2h236q-6 -39 -20 -90l-207 2
q-3 1 -5 1q-3 1 -11 2v-47q9 3 60 6h148q-13 -37 -34 -78l-284 3q-3 1 -5 1q-3 1 -6 1v-47q15 4 37 5l235 1q-45 -70 -124 -133q-81 -64 -166 -87l48 -44q69 39 160 114q70 60 132 150h309zM224 643h50q43 -54 81 -132q9 10 41 33q-12 19 -56 81q-6 10 -12 18l127 -1
q21 0 40 -5v47q-21 -4 -66 -5h-182q39 61 64 76q-33 6 -61 18q-21 -49 -71 -123q-46 -63 -117 -110q21 -10 48 -31q27 27 39 42q18 21 48 59zM429 18q-10 9 -24 20q-12 -15 -30 -32q61 -48 120 -111q15 24 29 37q-33 33 -62 58q-16 15 -33 28zM557 573l48 73h63
q69 -78 97 -132q18 18 33 26q3 3 7 4q-9 10 -17 21q-9 15 -22 29q-36 43 -40 52l164 -1q22 0 39 -5v47q-21 -4 -65 -5h-240l6 12q19 42 46 66q-33 7 -59 17q-9 -40 -52 -115q-34 -58 -78 -89q18 -6 52 -25q9 13 18 25v0z" />
  </g>

</svg>
