<?xml version="1.0" standalone="no"?>
<!DOCTYPE svg PUBLIC "-//W3C//DTD SVG 1.1//EN" "http://www.w3.org/Graphics/SVG/1.1/DTD/svg11.dtd" >
<svg xmlns="http://www.w3.org/2000/svg" xmlns:xlink="http://www.w3.org/1999/xlink" version="1.1" viewBox="-10 0 1034 1024">
  <g transform="matrix(1 0 0 -1 0 820)">
   <path fill="currentColor"
d="M234 257q33 37 71 87q39 52 52 65q10 13 23 24q9 10 19 23q-37 0 -57 -4l-145 -2q-54 0 -78 5q-6 0 -10 1v-48q1 0 3 2q51 4 83 5h115q-43 -60 -81 -104q-37 -43 -87 -95q54 4 113 5h92q-10 -58 -22 -92q-10 -31 -36 -83q-81 76 -94 133q-21 -16 -50 -32q15 -13 33 -36
q24 -30 45 -55q21 -24 41 -45q-39 -48 -97 -89q-57 -36 -120 -48q25 -21 44 -45q105 51 206 154q67 -46 146 -70q97 -27 313 -28q84 0 170 4q10 1 23 2q0 7 4 14q0 10 5 21q6 21 8 21q-33 -6 -71 -12q-75 -7 -161 -8q-63 0 -122 3q-102 7 -160 24q-72 21 -132 63
q22 45 40 90q15 45 30 106q3 21 11 41q1 4 3 8q-33 -1 -65 -5h-105zM310 631q22 -33 38 -59l39 -65q9 9 23 17q7 6 15 10q-18 28 -36 53q-9 13 -17 27q-6 9 -12 17q108 0 124 -2q13 0 26 -4v45q-21 0 -42 -3h-214q6 7 11 16q28 45 66 76q-34 10 -58 24q-12 -33 -53 -91
q-55 -73 -102 -111q-30 -21 -64 -34q37 -16 56 -35q24 21 52 52l63 67h85zM646 83h-131v160q0 18 3 32q3 18 13 30h-58q1 -4 2 -14q3 -39 3 -122q0 -63 -2 -92q-3 -3 -3 -37q34 6 58 7q352 0 359 -3q3 0 10 -4v48q-19 -4 -65 -5h-150v169h116q22 0 50 -3q7 0 16 -4v48
q-24 -4 -66 -5h-116v129q10 1 21 4q10 0 20 3l84 13l74 10q-3 4 -9 10q-1 1 -8 10q-12 12 -20 28q-33 -12 -72 -21q-73 -15 -146 -26q-73 -7 -109 -8q-24 0 -58 4q28 -46 30 -49q19 0 35 3q87 9 119 14v-329zM526 522q7 12 17 22q16 19 33 38l43 53h89q30 -45 60 -96
q4 -10 13 -26q6 4 11 7q24 12 29 14q-37 61 -65 101q156 0 173 -2q10 0 23 -4v47q-21 -4 -66 -5h-243q7 12 13 17q9 10 14 21q6 6 11 14q12 12 33 30q-24 9 -57 27q-15 -51 -95 -151q-58 -75 -111 -90q27 -10 42 -16q12 -6 23 -13q4 6 10 12v0z" />
  </g>

</svg>
