<?xml version="1.0" standalone="no"?>
<!DOCTYPE svg PUBLIC "-//W3C//DTD SVG 1.1//EN" "http://www.w3.org/Graphics/SVG/1.1/DTD/svg11.dtd" >
<svg xmlns="http://www.w3.org/2000/svg" xmlns:xlink="http://www.w3.org/1999/xlink" version="1.1" viewBox="-10 0 1034 1024">
  <g transform="matrix(1 0 0 -1 0 820)">
   <path fill="currentColor"
d="M296 640l50 -68q13 -21 29 -50q9 6 18 15q10 7 21 13q-48 64 -69 90q150 0 166 -2l18 -4v47q-10 -1 -22 -4l-241 -1q27 40 37 49q9 12 30 18q-25 10 -58 31q-21 -58 -98 -151q-72 -81 -122 -95q30 -13 53 -31q39 39 69 71q27 30 62 72h57zM777 105q28 -1 59 -5
q-4 49 -5 72l1 178q0 21 4 45q-30 -1 -59 -5h-234v70l360 -1q6 0 29 -4v46l-62 -5l-736 2q-3 1 -17 3v-46q39 4 65 5h321v-70l-239 1q-19 3 -45 4q1 -33 5 -66l-1 -189q-3 -15 -4 -40q30 3 60 5h211q-6 -27 -23 -60q-15 -25 -37 -48q-93 52 -120 105q-15 -24 -35 -43
q72 -57 107 -81l15 -10q-45 -25 -78 -39q-22 -10 -50 -20q-27 -9 -56 -16q-51 -12 -89 -13q-19 0 -49 3q21 -28 33 -56q6 1 10 2q58 12 143 36q96 31 179 83q42 -22 72 -34q25 -10 72 -25q100 -30 221 -39q75 -3 136 -10q12 30 25 56q-42 -7 -88 -8q-93 0 -187 15
q-99 18 -222 75q48 60 62 127h246zM261 141v89h241q0 -49 -7 -89h-234zM261 266v88h242v-88h-242zM536 141l7 89h250v-89h-257zM793 266h-250v88h250v-88zM699 643q34 -45 52 -70q12 -18 25 -44q19 15 28 18q3 3 12 6q-10 15 -31 42q-19 24 -37 48l196 -3q3 0 9 -3v47
q-12 -3 -23 -4l-293 -1q36 60 63 69l-59 29q-24 -60 -79 -142q-52 -79 -101 -91l43 -26q4 -3 9 -6q54 63 100 131h86z" />
  </g>

</svg>
