<?xml version="1.0" standalone="no"?>
<!DOCTYPE svg PUBLIC "-//W3C//DTD SVG 1.1//EN" "http://www.w3.org/Graphics/SVG/1.1/DTD/svg11.dtd" >
<svg xmlns="http://www.w3.org/2000/svg" xmlns:xlink="http://www.w3.org/1999/xlink" version="1.1" viewBox="-10 0 1010 1000">
   <path fill="currentColor"
d="M248 4q106 28 105 40q0 3 -12 10q-47 30 -81 75h137q77 1 113 -8v76q-49 -8 -111 -8h-44q22 49 34 95l-89 18q0 -55 -18 -113h-60q-29 30 -89 111q-27 -26 -85 -44q104 -77 200 -252zM633 10q92 14 103 30q0 3 -9 11q-34 30 -66 76h184q74 0 105 -8v76q-23 -9 -105 -8
h-67q15 28 45 121l-99 18q0 -53 -18 -139h-79q-4 5 -10 15q-19 27 -38 52q-36 -19 -83 -27q85 -87 137 -217zM466 235q85 17 109 33q1 2 -12 7t-11 7q143 165 400 208q-45 46 -57 96q-115 -44 -214 -107v49q-36 -8 -100 -8h-148q-76 0 -120 8v-53q-60 43 -210 125
q-27 -54 -73 -78q269 -71 436 -287zM502 308q-80 86 -167 149h312q-106 -77 -145 -149zM502 558q33 79 52 171l-86 17q-15 -96 -43 -168zM687 570q89 23 109 40q0 1 -4 3q-24 13 -40 40q-40 62 -91 159h69q125 1 165 -8v87q-21 -5 -56 -6q-34 -2 -109 -2h-446q-96 0 -171 8
v-87q32 5 68 6q36 2 101 2h301q44 -70 104 -242zM302 584q36 61 67 166l-83 24q-33 -122 -68 -166z" />
</svg>
