<?xml version="1.0" standalone="no"?>
<!DOCTYPE svg PUBLIC "-//W3C//DTD SVG 1.1//EN" "http://www.w3.org/Graphics/SVG/1.1/DTD/svg11.dtd" >
<svg xmlns="http://www.w3.org/2000/svg" xmlns:xlink="http://www.w3.org/1999/xlink" version="1.1" viewBox="-10 0 1010 1000">
   <path fill="currentColor"
d="M246 -17q69 15 95 31q0 3 -10 9q-38 23 -67 69h103q76 0 137 -8v67q63 -80 91 -164q94 15 101 27q-1 3 -8 6q-33 16 -53 64h153q106 0 143 -6v77q-14 -1 -47 -3q-61 -5 -90 -5h-38l57 58l-83 37q-16 -46 -57 -95h-78q-27 39 -57 90q-38 -17 -88 -20q36 -40 48 -54
q-44 -8 -139 -8q21 24 56 60l-82 33q-23 -49 -57 -93h-56q-58 82 -79 107q-20 -14 -85 -29q108 -101 190 -250zM825 254q-10 42 -10 135v56q0 91 8 133q-61 -7 -198 -8h-250q-108 0 -196 8q8 -69 8 -129v-48q0 -101 -8 -147q63 8 190 8h252q123 0 204 -8zM736 330h-200v55
h200v-55zM456 330h-190v55h190v-55zM736 441h-200v61h200v-61zM456 441h-190v61h190v-61zM937 617v82q-75 -8 -179 -8h-77v71q0 63 7 135h-89q3 -21 5 -53q1 -16 1 -36v-50v-67h-184q-13 166 -260 224q-33 -65 -64 -81q242 -11 240 -143h-99q-103 0 -175 8v-82q6 0 18 2
q90 8 159 8h506q70 0 157 -7q23 -2 34 -3z" />
</svg>
