<?xml version="1.0" standalone="no"?>
<!DOCTYPE svg PUBLIC "-//W3C//DTD SVG 1.1//EN" "http://www.w3.org/Graphics/SVG/1.1/DTD/svg11.dtd" >
<svg xmlns="http://www.w3.org/2000/svg" xmlns:xlink="http://www.w3.org/1999/xlink" version="1.1" viewBox="-10 0 1010 1000">
   <path fill="currentColor"
d="M603 -25q109 16 103 27q0 3 -11 10q-41 23 -68 66h135q90 -1 169 -6v77q-3 0 -8 -1q-88 -5 -167 -5q17 35 36 68l-94 16q0 -1 -1 -4q-7 -54 -16 -82h-96q-16 23 -55 74q-10 12 -14 18q-33 -24 -79 -36q25 -16 59 -54q-17 -6 -149 -6q8 17 25 60q5 12 7 18l-83 16
q-4 -31 -22 -92h-54q-19 20 -49 54q-44 50 -56 61q-27 -26 -83 -45q133 -97 210 -230q112 14 105 29q-1 4 -11 10q-32 19 -60 58h101q72 0 129 -4v61q45 -58 97 -158zM272 298v52h454v-52h-454zM272 397v54h454v-54h-454zM272 498v56h454v-56h-454zM407 613q0 10 -1 30
q-1 23 -1 36h204v-66h-202zM804 231q2 0 0 20q-3 46 -2 85v137q0 97 10 148q-45 -9 -127 -8v66h160q52 0 93 -12v83q-2 0 -6 -1q-40 -9 -85 -9h-160q0 128 3 171h-89q8 -47 8 -171h-216q-26 114 -252 183q-24 -54 -79 -77q190 -11 251 -106h-152q-77 0 -113 10v-83q4 1 11 2
q40 8 98 10h170q0 -24 -2 -54v-12q-105 0 -140 6q11 -36 11 -111v-172q0 -47 -1 -66q-1 -23 -3 -37q33 5 90 5h405q55 0 75 -1q21 -1 42 -6z" />
</svg>
