<?xml version="1.0" standalone="no"?>
<!DOCTYPE svg PUBLIC "-//W3C//DTD SVG 1.1//EN" "http://www.w3.org/Graphics/SVG/1.1/DTD/svg11.dtd" >
<svg xmlns="http://www.w3.org/2000/svg" xmlns:xlink="http://www.w3.org/1999/xlink" version="1.1" viewBox="-10 0 1034 1024">
  <g transform="matrix(1 0 0 -1 0 820)">
   <path fill="currentColor"
d="M302 79l-221 3q-3 0 -9 3v-48q3 1 7 2q1 0 54 5l777 -1q24 0 37 -4q3 0 6 -2v48q-19 -6 -66 -6h-138v355q108 0 123 -3q9 0 16 -3v46q-24 -4 -65 -5h-74v12q0 18 4 31q3 15 13 29h-60q0 -3 1 -6l4 -66h-373q0 21 4 40q3 15 14 27h-59q0 -9 1 -12l4 -49v-6l-125 1
q-24 0 -33 4v-46q39 4 45 5l113 1v-355zM338 79v102h373v-102h-373zM338 217v89h373v-89h-373zM338 341v93h373v-93h-373zM305 650q36 -45 58 -77q18 -28 36 -58q7 9 25 22q3 3 8 7q-12 18 -45 62q-6 7 -11 15l-22 29q121 0 140 -3q9 0 19 -3v46q-18 -3 -66 -4h-180
q24 42 69 59q-27 12 -61 36q-1 -15 -11 -31q-43 -64 -49 -73q-81 -97 -140 -140q31 -12 50 -24q51 57 113 133q0 3 3 4h64zM384 -52q33 25 38 27q12 7 31 13l-54 32q-24 -28 -88 -75q-99 -66 -175 -87q7 -7 17 -15q13 -12 22 -22q99 48 175 103q16 12 34 24zM627 653h85
q24 -27 44 -53q21 -30 53 -78q12 15 34 29q-6 6 -11 16q-3 3 -4 6l-2 3q-22 24 -57 71q-3 3 -5 6q132 0 154 -2q10 0 23 -4v46q-19 -4 -65 -5h-228q4 13 33 45q4 9 29 22q-21 6 -36 18q-6 6 -21 15q-9 -36 -56 -106q-33 -51 -61 -78q-21 -21 -55 -40q36 -18 44 -26q3 0 8 -7
zM645 22q-12 -13 -27 -25q-3 -3 -10 -7l112 -66q40 -24 105 -68q15 -9 36 -29q16 27 31 37l-54 37q-6 3 -146 90q-21 15 -47 31v0z" />
  </g>

</svg>
