<?xml version="1.0" standalone="no"?>
<!DOCTYPE svg PUBLIC "-//W3C//DTD SVG 1.1//EN" "http://www.w3.org/Graphics/SVG/1.1/DTD/svg11.dtd" >
<svg xmlns="http://www.w3.org/2000/svg" xmlns:xlink="http://www.w3.org/1999/xlink" version="1.1" viewBox="-10 0 1034 1024">
  <g transform="matrix(1 0 0 -1 0 820)">
   <path fill="currentColor"
d="M363 67l-253 1q-33 0 -46 3q-1 1 -2 1v-47q3 0 5 1q3 3 20 3q18 1 155 2h113q-18 -63 -99 -114q-67 -37 -142 -48q24 -21 42 -45q97 42 141 73q76 57 101 134h234l-1 -142q-1 -7 -2 -35q-1 -3 -2 -14h48q-4 33 -5 74v117l247 -1q24 -1 48 -5v47q-19 -4 -66 -5h-229v100
q81 0 92 -2l44 -4q-3 31 -5 64l1 256l4 49l-66 -6l-470 1q-6 1 -13 2q-13 0 -33 3q1 -18 3 -34q3 -27 3 -34v-237q-3 -16 -4 -33q-1 -12 -2 -31q63 6 81 6h67zM763 201h-496v72h496v-72zM267 308v74h496v-74h-496zM763 488v-70h-496v70h496zM403 67l9 100h220v-100h-229z
M297 640q39 -33 73 -103q12 9 17 13q7 7 23 15q-9 12 -16 23q-15 21 -40 52l158 -4q3 0 6 -2v48q-18 -6 -65 -6h-209q30 45 43 59q4 7 25 19q-39 9 -60 18q-16 -36 -36 -68q-51 -76 -90 -121q-31 -33 -62 -49q24 -15 45 -33q36 42 114 139h74zM529 538q66 87 78 108h91
q57 -57 87 -101q10 13 32 32q-6 9 -45 49l-18 20q168 0 181 -3q9 0 16 -2v46q-21 -4 -66 -5h-255q27 57 59 80q-45 15 -59 23q-10 -42 -61 -122q-43 -67 -94 -103q21 -7 50 -29q1 4 4 7v0z" />
  </g>

</svg>
