<?xml version="1.0" standalone="no"?>
<!DOCTYPE svg PUBLIC "-//W3C//DTD SVG 1.1//EN" "http://www.w3.org/Graphics/SVG/1.1/DTD/svg11.dtd" >
<svg xmlns="http://www.w3.org/2000/svg" xmlns:xlink="http://www.w3.org/1999/xlink" version="1.1" viewBox="-10 0 1010 1000">
   <path fill="currentColor"
d="M599 -17q97 27 95 33q2 4 -9 14q-28 27 -48 62h190q67 -1 113 -10v81q-19 -7 -111 -8h-99q10 15 30 50q14 24 22 37q85 4 89 10q0 4 -4 11q-17 31 -18 106h22q37 0 87 -7v81q-30 -6 -79 -6h-28v327q-1 119 6 149h-85q4 -27 4 -73h-230q0 37 4 69h-88q8 -27 8 -139v-333
q-46 0 -73 6v-78q18 3 73 4q2 -74 -10 -117q24 0 48 4q-9 -10 -45 -25q-6 -3 -9 -4q93 -76 145 -244zM218 -8q10 3 32 9q76 21 69 25q0 1 -4 4q-26 23 -55 66h153l89 -6v75q-25 -5 -93 -6h-38q8 18 50 79l-78 28q-13 -52 -45 -105h-80q-74 93 -105 127q-35 -32 -79 -40
q125 -85 184 -256zM603 155q-7 10 -24 36q-34 50 -49 69q7 3 26 5q13 1 13 3q1 3 -4 8q-21 27 -21 93h232q3 -82 -10 -121l-70 18q-13 -75 -39 -111h-54zM216 250q82 1 99 10q0 1 -2 5q-17 26 -17 98q46 2 91 -5v75q-40 -9 -91 -6v129q67 -19 105 -42v15q-1 55 4 73l-109 27
v205q2 44 -25 58q-26 16 -114 23q-11 -53 -42 -95q113 25 105 -22v-147q-38 13 -94 32q-44 16 -57 20q-11 -63 -25 -93q52 2 176 -32v-151h-65q-25 0 -84 5q-9 1 -13 1v-77q36 7 97 7h67q0 -60 -1 -78q-1 -22 -5 -35zM776 437h-232v131h232v-131zM776 631h-232v145h232v-145
z" />
</svg>
