<?xml version="1.0" standalone="no"?>
<!DOCTYPE svg PUBLIC "-//W3C//DTD SVG 1.1//EN" "http://www.w3.org/Graphics/SVG/1.1/DTD/svg11.dtd" >
<svg xmlns="http://www.w3.org/2000/svg" xmlns:xlink="http://www.w3.org/1999/xlink" version="1.1" viewBox="-10 0 1034 1024">
  <g transform="matrix(1 0 0 -1 0 820)">
   <path fill="currentColor"
d="M503 -79l-402 2q-6 0 -15 3v-47q9 4 41 5l776 1q46 0 62 -6v47q-10 -1 -22 -4l-402 -1v210q201 0 223 -3q3 0 9 -3v47q-10 -1 -22 -4l-472 1q-6 0 -15 3v-47q1 0 38 5l201 1v-210zM193 150q22 15 46 29q25 15 41 28q58 42 95 72q30 25 42 31q10 6 39 16q-27 18 -54 42
q-45 -54 -145 -128q-85 -58 -137 -65q15 -12 46 -43zM138 459q4 -60 5 -94q0 -39 -4 -72q-1 0 -1 -3h49q-4 12 -5 32l-1 96h680l-3 -102q0 -3 -3 -15h50q-6 24 -6 39l1 79q0 6 2 12l3 28q-19 -1 -33 -2q-22 -3 -29 -3h-288q10 12 21 24q-7 7 -96 72q-9 7 -20 15
q-3 -4 -30 -37q40 -24 99 -74l-346 1q-15 3 -45 4zM672 330l-47 26q-15 9 -28 17q-6 -10 -12 -18q-6 -9 -16 -19l85 -45l109 -63q79 -49 108 -78q9 19 28 45q-25 16 -63 39zM266 632q6 -6 50 -61q31 -48 35 -53q1 -4 6 -12q19 18 40 29q-3 3 -40 49l-38 48q169 0 182 -2
q6 0 16 -4v47l-62 -5h-207q18 30 32 45q15 15 32 21q-36 15 -62 29q-6 -21 -21 -46q-18 -28 -50 -73q-39 -54 -69 -82q-27 -24 -56 -32q27 -15 50 -34l60 63l58 73h44zM598 611l18 26h36q30 -33 75 -91q4 -4 24 -43q18 18 40 31q-42 48 -84 103l210 -1q6 0 22 -4v46l-62 -5
h-240q1 7 12 20q21 36 52 54q-27 6 -65 23q-15 -49 -68 -130q-39 -55 -74 -72q25 -9 55 -25q27 40 49 68v0z" />
  </g>

</svg>
