<?xml version="1.0" standalone="no"?>
<!DOCTYPE svg PUBLIC "-//W3C//DTD SVG 1.1//EN" "http://www.w3.org/Graphics/SVG/1.1/DTD/svg11.dtd" >
<svg xmlns="http://www.w3.org/2000/svg" xmlns:xlink="http://www.w3.org/1999/xlink" version="1.1" viewBox="-10 0 1010 1000">
   <path fill="currentColor"
d="M613 -21q13 4 36 10q59 15 55 21q0 6 -20 24q-23 21 -41 40h208q62 0 93 -4v71q-8 -2 -28 -3q-16 -1 -65 -1h-97q21 59 36 98l-90 13q-4 -62 -17 -111h-82q-15 15 -48 64q-2 3 -3 4q-26 -21 -74 -22q-12 0 -12 -2q84 -72 149 -202zM238 -13q18 5 50 13q49 11 47 16
q1 6 -17 22q-23 19 -38 36h125q59 -1 89 -4v71q-10 -2 -28 -3q-15 -1 -59 -1h-54l38 94l-85 15q-3 -42 -28 -109h-48q-39 48 -97 113q-35 -29 -81 -41q111 -89 186 -222zM204 391q36 6 111 6h346q63 0 95 -6q-5 18 -4 70v71q0 52 4 70q-33 -6 -97 -6h-373v51h371
q84 0 135 -6l-6 78v103q-1 70 4 93h-94l4 -61h-414l4 63h-84q4 -47 4 -113v-325q0 -49 -6 -88zM286 457v79h391v-79h-391zM286 709v87h414v-87h-414zM526 197q12 33 30 81h261q78 0 108 -6q-5 13 -4 60v37q0 41 4 82v6h-88l4 -54v-59h-690v49l4 54h-88q4 -40 4 -74v-45
q0 -12 -1 -32q-1 -17 -1 -24q61 6 112 6h289q-14 -25 -32 -49q-9 -12 -7 -14z" />
</svg>
