<?xml version="1.0" standalone="no"?>
<!DOCTYPE svg PUBLIC "-//W3C//DTD SVG 1.1//EN" "http://www.w3.org/Graphics/SVG/1.1/DTD/svg11.dtd" >
<svg xmlns="http://www.w3.org/2000/svg" xmlns:xlink="http://www.w3.org/1999/xlink" version="1.1" viewBox="-10 0 1010 1000">
   <path fill="currentColor"
d="M238 6q16 5 45 12q62 15 58 22q0 5 -14 11q-19 9 -25 19q-3 4 -9 11q-21 29 -31 44h115q45 0 65 -1q23 -2 40 -7v80q-26 -5 -54 -7q-14 0 -30 -1h-43q6 20 23 80q-1 -5 3 9l-77 16q-10 -63 -24 -105h-54l-79 105q-39 -30 -82 -38q101 -78 173 -250zM591 12q9 1 28 4
q77 9 75 20q1 7 -11 15q-16 12 -22 25q-8 19 -30 51h186q58 1 92 -10v82q-24 -5 -56 -7q-16 0 -38 -1h-65q2 4 6 13q23 47 28 74l-80 22q-5 -52 -27 -109h-78q-8 10 -28 36q-13 17 -21 27q-27 -21 -80 -29q86 -78 121 -213zM520 258q1 2 3 7q24 53 29 71h254q68 1 101 -8
l-8 83q-1 65 8 91h-95q11 -51 11 -103h-642q0 90 7 119h-99q10 -33 10 -91q1 -68 -8 -99q46 8 153 8h212q-3 -25 -23 -64zM371 431q26 18 56 35q25 12 21 19q-1 5 -12 8q-19 4 -33 13q-123 79 -216 131q-22 -39 -64 -59q183 -73 248 -147zM601 435q87 33 268 117l-52 73
q-74 -57 -263 -137zM750 604v83q-29 -9 -99 -8h-113v119h244q52 0 79 -2q31 -1 54 -6v87q-66 -8 -125 -8h-558q-81 0 -133 10v-89q31 9 135 8h224v-119h-67q-92 0 -127 8v-83q50 9 139 8h230q80 1 117 -8z" />
</svg>
