<?xml version="1.0" standalone="no"?>
<!DOCTYPE svg PUBLIC "-//W3C//DTD SVG 1.1//EN" "http://www.w3.org/Graphics/SVG/1.1/DTD/svg11.dtd" >
<svg xmlns="http://www.w3.org/2000/svg" xmlns:xlink="http://www.w3.org/1999/xlink" version="1.1" viewBox="-10 0 1010 1000">
   <path fill="currentColor"
d="M591 -10q110 14 101 18q-29 12 -67 82h200q81 0 104 -6v73q-47 -9 -98 -8h-79q22 35 38 76l-86 15q-10 -56 -25 -91h-80q-41 65 -65 93q-45 -20 -92 -25q28 -23 56 -58q-37 -8 -99 -8h-54q26 30 42 64l-83 18q-2 -45 -20 -82h-64q-57 74 -101 121q-36 -33 -83 -41
q132 -95 192 -239q44 5 101 26q-1 3 -12 12q-10 9 -15 14q-26 26 -42 52h143q49 0 97 -6v65q51 -69 91 -165zM194 235q45 -6 98 5q-19 32 -16 118q30 0 80 -4q21 -1 31 -2v75q-45 -8 -111 -8v105q2 -1 6 -2q46 -16 71 -28q91 1 214 -43q-65 -43 -119 -91l44 -42
q-54 4 -73 10v-72q43 10 111 10h220q70 0 115 -6q-63 105 -171 179q115 31 260 26q-38 40 -45 89q-175 -24 -280 -71q-113 61 -228 95q-2 -4 -4 -10q-15 -43 -44 -62l-6 64q-47 9 -71 22v192q2 55 -27 73q-26 20 -128 36q-4 -58 -34 -103q114 16 113 -36v-141q1 -10 -131 44
l-23 -91q80 -6 154 -24v-121h-29q-62 1 -106 8v-77q55 8 106 8h29q1 -89 -6 -125zM591 516q83 0 101 12q-21 25 -21 74h101q57 0 91 -8v71q-40 -8 -83 -8h-109v74h152q60 0 100 -8v71q-51 -8 -94 -8h-156v28q1 50 10 91h-92q7 -30 8 -87v-32h-113q-66 1 -115 10v-73
q54 7 115 8h113v-74h-81q-66 1 -99 8v-71q27 5 48 7q17 1 53 1h79q0 -59 -8 -86zM514 318q56 58 117 93q36 -22 85 -77q9 -11 14 -16h-216z" />
</svg>
