<?xml version="1.0" standalone="no"?>
<!DOCTYPE svg PUBLIC "-//W3C//DTD SVG 1.1//EN" "http://www.w3.org/Graphics/SVG/1.1/DTD/svg11.dtd" >
<svg xmlns="http://www.w3.org/2000/svg" xmlns:xlink="http://www.w3.org/1999/xlink" version="1.1" viewBox="-10 0 1010 1000">
   <path fill="currentColor"
d="M224 -21q74 16 99 31q-2 3 -14 11q-17 11 -23 17q-14 14 -28 33q-9 11 -14 17h135q51 0 105 -8v75q-68 -8 -107 -8h-46q1 1 3 4q25 34 43 66l-77 20q-19 -69 -32 -90h-68q-56 66 -103 101q-25 -24 -65 -47q121 -79 192 -222zM599 -15q74 20 88 35q-2 4 -8 7q-12 5 -22 19
q-19 27 -34 44h161q70 -1 131 -14v83q-40 -10 -125 -10h-50q5 5 30 42q9 14 14 22l-82 25q-16 -64 -33 -89h-82l-71 91q-15 -13 -45 -26q-19 -8 -34 -15q104 -60 162 -214zM123 242q24 5 77 8h532q85 0 135 -8v82q-34 -7 -112 -6h-19h-530v494h560q69 1 123 -8v83
q-43 -8 -125 -8h-554q-42 1 -85 6q5 -31 6 -89v-476q0 -43 -6 -67q-1 -7 -2 -11zM496 332q93 1 97 4q-1 2 -2 6q-13 24 -16 51h149q64 -1 113 -10v76q-52 -9 -111 -10h-153q-3 76 -11 117h77q22 -40 40 -97q70 16 87 29q-1 2 -7 6q-31 21 -53 62h52q53 0 95 -8v65
q-51 -6 -93 -6h-208q111 37 299 114l-73 65q-136 -82 -256 -123q-63 75 -234 123q-24 -47 -60 -71q189 -14 256 -108h-149q-58 0 -91 10v-69q33 7 85 8h167q8 -42 8 -117h-133q-45 0 -89 6q-11 2 -14 2v-74q40 10 103 10h133q0 -40 -8 -61zM389 463q30 35 48 77l-64 20
q-22 -55 -46 -79z" />
</svg>
