<?xml version="1.0" standalone="no"?>
<!DOCTYPE svg PUBLIC "-//W3C//DTD SVG 1.1//EN" "http://www.w3.org/Graphics/SVG/1.1/DTD/svg11.dtd" >
<svg xmlns="http://www.w3.org/2000/svg" xmlns:xlink="http://www.w3.org/1999/xlink" version="1.1" viewBox="-10 0 1034 1024">
  <g transform="matrix(1 0 0 -1 0 820)">
   <path fill="currentColor"
d="M250 -83q0 -28 -18 -34q-24 -6 -48 -7l-43 7q12 -22 24 -54q9 0 20 2q18 3 37 4q28 6 40 13q25 19 26 57v281l82 37q18 7 42 15v54q-25 -16 -49 -29q-27 -13 -75 -36v130q129 0 150 -3q3 0 9 -3v47l-59 -5h-100v74q0 10 3 32q1 18 11 32h-58q6 -12 6 -64v-74
q-120 0 -148 2q-4 1 -7 1t-12 2v-47q12 6 52 6h115v-146q-61 -28 -113 -51q-33 -10 -66 -17q16 -25 27 -52l47 28q18 12 55 28q24 10 50 24v-254zM709 318q6 6 12 11q40 36 72 68q33 36 85 99l-66 -6l-336 1q-4 1 -7 1q-15 0 -35 4v-48q3 4 58 7q43 -67 139 -145
q-96 -57 -192 -89q-39 -10 -74 -13q18 -18 39 -45l167 71q49 24 98 52q63 -34 124 -56q66 -22 151 -45q10 24 32 52q-15 0 -28 -1q-33 0 -80 13q-51 12 -102 32q-37 16 -62 32q1 3 5 5zM791 455q-48 -60 -123 -121q-72 48 -126 121h249zM648 119v-92h-192q-45 0 -66 5v-47
q1 0 38 5l220 1q0 -108 -2 -139l-3 -19h49q-3 7 -4 27l-2 131l256 -3q3 0 9 -3v47q-9 0 -64 -5h-201v92q168 0 191 -3q3 0 9 -3v47l-99 -5h-101q0 21 3 43q1 18 12 31h-58q4 -12 5 -64v-10q-145 0 -174 2q-4 1 -7 1t-12 2v-47q12 6 52 6h141zM166 544l72 75h63
q12 -12 22 -27l36 -53q3 -6 8 -13q6 -9 11 -21q1 3 7 8q12 12 31 24q-15 15 -32 41q-18 22 -31 41q169 0 182 -2q7 -1 16 -4v47q-4 0 -63 -6h-219q3 7 41 49q24 22 45 31q-21 12 -39 27q-3 3 -11 9q-40 -73 -116 -148q-45 -45 -73 -66q-27 -18 -54 -25q30 -16 51 -35z
M606 586q15 18 29 37h62q12 -12 43 -55q19 -27 34 -53l2 -3q15 13 38 29q-4 6 -9 10q-3 4 -39 47q-9 12 -9 11q-3 4 -11 14q174 0 203 -3q3 0 9 -3v47q-3 0 -8 -2q-15 0 -31 -2l-259 -1q15 21 25 37t17 23q10 12 29 23q-24 9 -57 27q-21 -58 -85 -146q-58 -73 -95 -87
q27 -12 53 -24q6 7 19 26q19 24 40 48v0z" />
  </g>

</svg>
