<?xml version="1.0" standalone="no"?>
<!DOCTYPE svg PUBLIC "-//W3C//DTD SVG 1.1//EN" "http://www.w3.org/Graphics/SVG/1.1/DTD/svg11.dtd" >
<svg xmlns="http://www.w3.org/2000/svg" xmlns:xlink="http://www.w3.org/1999/xlink" version="1.1" viewBox="-10 0 1010 1000">
   <path fill="currentColor"
d="M637 -12q101 34 95 42q-1 3 -8 8q-24 17 -51 50h164q70 -1 119 -8v75q-28 -6 -111 -6h-61q9 23 25 68q-1 -5 4 10l-81 10q-5 -55 -20 -88h-75q-57 72 -85 103q-30 -20 -82 -37q108 -66 167 -227zM248 -8q89 21 99 36q0 2 -4 4q-25 14 -59 60h137q64 -1 97 -6v71
q-25 -6 -95 -6h-36q7 20 24 66q4 11 6 16l-86 15q2 -40 -19 -97h-70q-79 90 -127 131q-32 -30 -75 -45q144 -85 208 -245zM151 256q42 6 188 6h344q158 -3 198 -8q-6 34 -8 96v49q0 57 1 74q1 23 3 33q-55 -7 -149 -8h-286q-42 51 -57 66h296q106 0 168 -8
q-172 323 -692 367q-14 -45 -64 -93q196 13 371 -46q-53 -45 -119 -77l72 -50q40 28 129 93q85 -47 154 -119h-388q-54 53 -159 117q-27 -43 -76 -67q156 -47 272 -183h-77q-99 0 -123 6q5 -33 6 -107v-45q0 -69 -4 -96zM583 328h-146v105h146v-105zM653 328v105h141v-105
h-141zM228 328v105h139v-105h-139z" />
</svg>
