<?xml version="1.0" standalone="no"?>
<!DOCTYPE svg PUBLIC "-//W3C//DTD SVG 1.1//EN" "http://www.w3.org/Graphics/SVG/1.1/DTD/svg11.dtd" >
<svg xmlns="http://www.w3.org/2000/svg" xmlns:xlink="http://www.w3.org/1999/xlink" version="1.1" viewBox="-10 0 1034 1024">
  <g transform="matrix(1 0 0 -1 0 820)">
   <path fill="currentColor"
d="M493 290q-60 -6 -76 -6h-98q1 9 9 16q19 42 51 55q-31 15 -58 33q-9 -37 -38 -89q-51 -93 -98 -145q-54 -58 -90 -66l19 -14q7 -3 25 -20q52 51 86 94q36 46 71 101h151q-3 -114 -42 -187q-34 22 -73 46l-59 34q-6 -15 -19 -33q60 -27 132 -80q-39 -57 -97 -90
q-85 -48 -166 -48q-16 0 -44 3q12 -24 20 -50q49 7 75 13q21 3 41 10q100 33 159 86q82 84 104 239q9 72 15 98zM134 433q1 -30 5 -60l-4 -107l-1 -5h48q-1 3 -1 6q-3 75 -4 112v14h675q0 -96 -3 -115q0 -6 -2 -14h48q-3 7 -4 33l-1 77q1 30 5 59q-28 -1 -58 -5l-659 1
q-15 3 -44 4zM537 502l-75 49q-12 -18 -20 -27l-6 -6q63 -33 127 -87l29 33q-6 3 -55 38zM559 291l4 -46v-312q0 -45 28 -61q30 -15 140 -16q19 1 98 2l55 4q9 4 23 8q21 10 32 50q7 30 17 83q-25 6 -49 17q3 -27 4 -49q0 -49 -19 -64q-15 -15 -124 -15l-107 2q-33 1 -49 12
q-12 9 -12 33v331h175v-189q0 -30 -14 -35q-15 -7 -44 -8q-21 0 -45 7q9 -22 14 -48q66 6 84 10q42 12 43 72l1 187q0 21 4 45q-27 -1 -55 -5l-160 1q-15 3 -45 4q0 -9 1 -20zM295 604l51 -72q15 -24 27 -51q15 15 37 24l-68 99l166 -1q18 -1 37 -5v47q-3 0 -8 -2
q-15 0 -32 -2l-246 -1l15 21q3 4 8 10q31 43 63 56q-24 12 -53 34q-39 -73 -113 -155q-84 -84 -129 -97q24 -13 48 -32q60 57 128 127h69zM702 606q63 -72 84 -123q21 21 35 27q-6 6 -16 20q-15 24 -56 76q181 0 198 -3q4 0 9 -2v46q-9 -3 -23 -3q-18 0 -41 -2h-222
q36 54 44 63q9 10 34 19q-30 15 -57 33q-31 -84 -122 -173q-30 -28 -58 -36q30 -12 51 -31l78 89h62z" />
  </g>

</svg>
