<?xml version="1.0" standalone="no"?>
<!DOCTYPE svg PUBLIC "-//W3C//DTD SVG 1.1//EN" "http://www.w3.org/Graphics/SVG/1.1/DTD/svg11.dtd" >
<svg xmlns="http://www.w3.org/2000/svg" xmlns:xlink="http://www.w3.org/1999/xlink" version="1.1" viewBox="-10 0 1010 1000">
   <path fill="currentColor"
d="M234 -15q45 7 109 37q-1 3 -12 8q-18 7 -23 14q-21 21 -40 48h121q66 1 97 -8v71q-39 -8 -97 -8h-38q22 41 30 64l-83 10q0 -34 -10 -74h-56q-3 3 -8 10q-51 66 -81 99q-30 -28 -80 -41q103 -71 171 -230zM587 -10q46 6 105 28q-1 2 -7 6q-28 20 -50 64h173q52 0 111 -8
v75q-52 -7 -109 -8h-46q24 39 48 91l-86 14q-15 -64 -36 -105h-95q-30 53 -65 99q-33 -21 -80 -31q88 -87 137 -225zM611 240q92 -4 91 4q-12 15 -12 58h102q54 -1 103 -10v75q-45 -7 -97 -7h-110q0 52 4 73h-83q8 -22 8 -73h-240q0 42 10 69h-81q6 -33 6 -69h-94
q-72 0 -117 7v-73q37 7 117 8h94q1 -33 -8 -56q37 0 85 6q-14 16 -14 45v5h242q2 -24 -6 -62zM448 395q42 6 104 34q-30 18 -60 61h314q65 -1 121 -11v81q-50 -10 -115 -10h-360q-35 36 -83 77h349q58 0 92 -8q-8 52 -8 80v111q2 69 11 103h-95q8 -27 8 -73h-379q0 43 10 71
h-99q9 -35 10 -105v-105q-102 69 -169 95q-20 -35 -65 -67q184 -49 319 -179h-165q-80 0 -123 8v-79q52 11 122 11h222q26 -39 39 -95zM343 691v85h383v-85h-383z" />
</svg>
