<?xml version="1.0" standalone="no"?>
<!DOCTYPE svg PUBLIC "-//W3C//DTD SVG 1.1//EN" "http://www.w3.org/Graphics/SVG/1.1/DTD/svg11.dtd" >
<svg xmlns="http://www.w3.org/2000/svg" xmlns:xlink="http://www.w3.org/1999/xlink" version="1.1" viewBox="-10 0 1010 1000">
   <path fill="currentColor"
d="M238 -19q97 28 101 43q-1 3 -7 6q-27 13 -64 60h133q70 -1 103 -6v71q-28 -7 -103 -6h-44q24 42 38 72l-83 12q-9 -53 -28 -84h-58q-49 61 -111 113q-18 -23 -67 -45q133 -94 190 -236zM599 -17q80 17 99 31q-1 5 -9 12q-21 19 -42 56h182q84 0 108 -6v75q-50 -7 -106 -8
h-71q30 53 42 86l-84 13q-7 -42 -31 -99h-72q-55 77 -95 127q-37 -28 -74 -39q112 -89 153 -248zM621 227l89 35q-1 3 -10 9q-31 18 -59 55h139q120 0 160 -8v87q-44 -10 -160 -10h-580q-107 2 -144 8v-85q29 5 154 8h139q-6 -6 -17 -19q-25 -28 -40 -43l79 -31q16 28 39 65
q11 18 17 28h129q2 -3 6 -8q49 -60 59 -91zM760 423q109 8 109 18q0 2 -6 9q-20 23 -20 50v328q15 77 -156 87q-1 -49 -34 -93q117 27 113 -40v-262q0 -60 -6 -97zM137 443q27 3 131 6h131q82 0 115 -6q-6 33 -6 121v254q2 53 -23 67q-21 17 -118 28q-2 -45 -28 -85
q104 15 94 -28v-60h-215v34q0 75 8 131h-93q12 -45 12 -155v-192q-3 -98 -8 -115zM593 455q77 1 94 8q1 1 -3 9q-15 31 -15 66v133q1 57 6 103h-86q7 -50 8 -109v-127q0 -66 -4 -83zM216 508v62h217v-62h-217zM218 625v60h215v-60h-215z" />
</svg>
