<?xml version="1.0" standalone="no"?>
<!DOCTYPE svg PUBLIC "-//W3C//DTD SVG 1.1//EN" "http://www.w3.org/Graphics/SVG/1.1/DTD/svg11.dtd" >
<svg xmlns="http://www.w3.org/2000/svg" xmlns:xlink="http://www.w3.org/1999/xlink" version="1.1" viewBox="-10 0 1034 1024">
  <g transform="matrix(1 0 0 -1 0 820)">
   <path fill="currentColor"
d="M136 485q16 25 35 51l54 83l15 21h67q52 -52 100 -120q3 3 10 7q3 1 5 5q4 3 10 8q1 1 4 1l1 1q3 0 5 2q-6 6 -10 12l-34 40q-15 15 -38 44l129 -1q18 0 33 -5v45q-21 -3 -61 -4h-203q30 61 62 90q-22 6 -53 23q-16 -49 -75 -150q-64 -102 -105 -133q9 -1 26 -9
q18 -9 23 -11zM277 -71q-3 -39 -4 -60q-1 -1 -1 -5h46q-3 9 -5 49v329q45 -37 103 -115q13 18 31 34q-27 33 -71 74q-37 36 -63 58v37q105 0 120 -3q3 0 19 -4v47q-22 -6 -63 -6h-76v76q0 12 3 28t15 39h-59q4 -99 5 -105v-38l-160 3l-6 3v-47l61 7h105v-10
q-37 -87 -87 -172q-28 -48 -51 -78q-18 -22 -44 -45q18 -6 36 -16q6 -4 14 -8q69 103 132 228v-300zM697 644l51 -67l20 -31q6 -12 16 -27q13 15 34 28l-12 18q-15 18 -29 36q-18 27 -32 43h132q15 0 48 -3q9 0 13 -3v46q-21 -4 -61 -5h-241q18 42 32 66q10 18 25 31
q-34 12 -55 22q-18 -67 -60 -150q-57 -100 -93 -124q24 -9 37 -17q6 -3 13 -8l43 70l44 75h75zM572 466q-12 0 -62 5q1 -31 5 -64l-1 -486q-1 -9 -2 -31q-1 -3 -2 -15h46q-6 51 -5 82v8h282q-3 -72 -3 -79q0 -3 -2 -8h47q-3 9 -3 26l-2 131l1 391l4 45q-31 -1 -63 -5h-240z
M551 -1v128h282v-128h-282zM551 161v118h282v-118h-282zM551 314v117h282v-117h-282z" />
  </g>

</svg>
