<?xml version="1.0" standalone="no"?>
<!DOCTYPE svg PUBLIC "-//W3C//DTD SVG 1.1//EN" "http://www.w3.org/Graphics/SVG/1.1/DTD/svg11.dtd" >
<svg xmlns="http://www.w3.org/2000/svg" xmlns:xlink="http://www.w3.org/1999/xlink" version="1.1" viewBox="-10 0 1010 1000">
   <path fill="currentColor"
d="M254 -6q102 22 111 32q-1 1 -7 4q-23 9 -37 26q-2 3 -6 8q-17 24 -31 40h107q65 0 105 -8v75q-51 -8 -101 -8h-38q17 23 46 99l-86 12q-7 -55 -27 -111h-40q0 -1 -15 20q-60 83 -96 127q-45 -33 -83 -44q127 -101 198 -272zM607 -4q61 5 101 22q0 3 -10 10q-14 12 -23 22
q-10 12 -25 32q-10 14 -15 20h178q75 0 110 -10v81q-37 -8 -102 -8h-73q30 27 48 60l-70 35q-6 -14 -15 -33q-13 -34 -34 -62h-76q-45 74 -99 129q-21 -25 -67 -46q110 -68 172 -252zM569 231q72 -4 102 7q-22 34 -20 96h99q-5 -21 -36 -52l66 -30q28 30 43 60l-37 22
q67 0 115 -8v77q-46 -11 -113 -10h-129q14 102 59 230q49 -91 66 -180q29 13 85 28q9 2 8 2q-1 3 -7 11q-18 21 -31 46q-2 3 -5 10q-47 101 -82 155q54 94 89 109q22 8 28 -95q34 42 79 55q-35 105 -75 133q-55 33 -164 -135l-3 -4q-58 75 -152 139q-12 -9 -29 -23
q-34 -29 -51 -36q102 -36 195 -145q-50 -110 -80 -300h-351q2 207 -22 305q-26 112 -91 189q-46 -31 -89 -41q72 -57 101 -151q27 -86 28 -270q0 -19 -6 -80q-2 -14 -2 -19q28 5 97 8h327zM280 459q5 0 15 1q42 5 72 5h113q46 0 82 -8v73q-22 -7 -82 -6h-115q-49 0 -85 6
v-71zM276 586l63 4h143q38 -1 72 -6q-6 30 -6 59v80q0 42 6 63q-36 -6 -66 -6h-135q-50 0 -77 4q6 -45 6 -67v-72q0 -18 -6 -59zM484 649h-139v72h139v-72z" />
</svg>
