<?xml version="1.0" standalone="no"?>
<!DOCTYPE svg PUBLIC "-//W3C//DTD SVG 1.1//EN" "http://www.w3.org/Graphics/SVG/1.1/DTD/svg11.dtd" >
<svg xmlns="http://www.w3.org/2000/svg" xmlns:xlink="http://www.w3.org/1999/xlink" version="1.1" viewBox="-10 0 1034 1024">
  <g transform="matrix(1 0 0 -1 0 820)">
   <path fill="currentColor"
d="M229 103l64 22l-1 -280q-3 -19 -4 -25h49q-4 15 -5 24l-1 41h437q0 -27 -2 -40q-1 -15 -3 -19h49q-4 12 -5 35l-1 285l6 62q-63 -6 -81 -6h-250q73 42 146 87q306 0 324 -3q9 0 19 -4v48q-6 -1 -12 -4q-25 0 -50 -2h-236l113 93q30 24 73 40q-45 31 -55 40
q-45 -60 -193 -173h-83v102q174 0 198 -3q3 0 9 -3v47l-101 -5h-106q0 21 3 40q3 18 12 32h-58q4 -12 5 -65v-7l-222 1q-12 0 -30 4v-47q4 3 54 6h198v-102l-389 1q-15 1 -31 3q-3 0 -8 2v-48q13 6 62 7h429l-90 -52q-34 -18 -74 -35q-48 0 -65 2q-15 3 -35 4q3 -22 5 -41
q-25 -9 -51 -20q-43 -15 -67 -23q-61 -18 -119 -22q24 -25 38 -47zM331 -79v105h437v-105h-437zM331 62v79q24 12 61 26h376v-105h-437zM319 633q10 -13 22 -30q15 -21 37 -61q7 -15 18 -37q18 15 42 24q-15 21 -35 52l-33 52q129 0 142 -2q6 0 16 -4v47q-10 -1 -22 -4
l-245 -1q33 52 41 56q6 7 21 16q-25 10 -49 23q-3 0 -11 5q-7 -28 -37 -79q-31 -52 -60 -88q-66 -81 -102 -92q27 -15 46 -32q27 25 64 70q36 43 66 85h79zM559 567q15 19 30 39q10 16 23 31h77q60 -67 77 -120q15 12 43 26q-24 33 -64 94l177 -1q15 0 29 -4v46l-63 -5h-254
q4 7 9 16q28 48 58 66q-10 3 -21 5q-4 0 -9 3q-9 3 -34 12q-18 -54 -58 -112q-55 -79 -92 -93q28 -9 57 -24z" />
  </g>

</svg>
