<?xml version="1.0" standalone="no"?>
<!DOCTYPE svg PUBLIC "-//W3C//DTD SVG 1.1//EN" "http://www.w3.org/Graphics/SVG/1.1/DTD/svg11.dtd" >
<svg xmlns="http://www.w3.org/2000/svg" xmlns:xlink="http://www.w3.org/1999/xlink" version="1.1" viewBox="-10 0 1034 1024">
  <g transform="matrix(1 0 0 -1 0 820)">
   <path fill="currentColor"
d="M225 -105q-6 -54 -5 -67h49q-3 10 -4 28q0 18 -2 39v131h172l-3 -143q0 -6 -2 -14h47q-6 43 -5 115v42h178l-3 -141q-1 -6 -2 -15h47q-3 9 -3 15q-1 28 -3 52v89h172v-95q0 -46 -61 -47q-31 0 -62 5q9 -21 14 -48q39 0 60 4q46 6 68 23q18 18 19 53l1 258q1 22 5 46
q-49 -4 -66 -5h-597l9 81l541 -1l47 -4q-4 54 -5 82q0 57 2 67q0 18 3 37q-33 -1 -67 -5h-235l5 5q7 9 17 17q-27 22 -46 37l-49 34q-9 -15 -25 -31q3 -1 5 -4l10 -5q30 -18 44 -30q12 -9 25 -23l-268 1q-19 3 -49 4q6 -60 6 -84v-87q-7 -178 -99 -331q-19 -33 -56 -68
q28 -6 55 -17q36 57 66 121q25 60 50 139v-260zM248 337v104h544v-104h-544zM263 62v122l172 -2v-120h-172zM472 62v122h178v-122h-178zM686 62v122h172v-122h-172zM275 633q66 -75 90 -128q18 21 34 33q-9 9 -15 20q-9 12 -18 22q-24 33 -42 53q135 0 156 -2q12 0 24 -4v47
q-19 -4 -66 -5h-198q31 52 72 84q-30 9 -55 20q-33 -58 -72 -112q-66 -85 -122 -115q24 -9 52 -29q21 21 101 116h59zM691 635q27 -28 50 -55q22 -28 52 -69q12 12 21 17q6 3 14 9l-45 55q-12 12 -38 43l179 -1q19 0 35 -5v47q-19 -4 -66 -5h-255q12 18 29 37l26 31
q3 3 24 19l-19 6q-21 6 -39 16q-10 -24 -24 -46q-12 -21 -36 -52q-28 -39 -47 -57q-12 -13 -52 -40l20 -10q1 0 4 -2q3 0 23 -14l2 -2q9 15 38 45q15 16 28 33h76z" />
  </g>

</svg>
