<?xml version="1.0" standalone="no"?>
<!DOCTYPE svg PUBLIC "-//W3C//DTD SVG 1.1//EN" "http://www.w3.org/Graphics/SVG/1.1/DTD/svg11.dtd" >
<svg xmlns="http://www.w3.org/2000/svg" xmlns:xlink="http://www.w3.org/1999/xlink" version="1.1" viewBox="-10 0 1010 1000">
   <path fill="currentColor"
d="M246 -13q89 8 95 25q-20 6 -35 26q-7 7 -17 22q-12 15 -17 20h117q63 0 101 -10v77q-54 -9 -97 -8h-48q26 18 50 50l-24 6l62 12l-22 24h270l93 -6q-17 31 -66 160q-18 48 -18 46h145q57 0 109 -10v77q-31 -7 -107 -8h-287l-64 34q64 46 93 93q92 -41 179 -107
q42 16 85 52q-1 4 -17 7q-25 4 -44 11q-14 5 -38 17q-27 14 -46 22q57 123 250 155q-39 32 -67 86q-176 -62 -234 -213l-42 16q17 43 15 107q-3 62 -23 88q-45 55 -153 53q3 -40 -27 -85q86 13 107 -14q24 -33 22 -115q-159 105 -421 186q-22 -39 -56 -69q226 -14 461 -165
q-8 -25 -30 -41q-178 111 -373 152q-19 -36 -46 -61q202 -15 389 -127q-18 -18 -35 -26q-146 68 -294 105q-17 -42 -46 -61q172 -15 324 -100h-209q-81 1 -139 10v-77q43 8 135 8h405l24 -46h-339q-21 0 -68 12l-26 -69q81 -3 133 -127l-25 4q-18 -48 -28 -66h-42
q-24 25 -91 107q-3 -2 -9 -5q-30 -19 -73 -32q110 -76 179 -222zM607 -12q78 8 97 18q-1 3 -16 18q-27 27 -45 48h178q69 0 106 -8v75q-37 -8 -104 -8h-71q23 22 42 58l-82 18q-12 -46 -33 -76h-68l-69 86q-35 -22 -80 -34q93 -68 145 -195zM673 282h-302l-44 52h326z" />
</svg>
