<?xml version="1.0" standalone="no"?>
<!DOCTYPE svg PUBLIC "-//W3C//DTD SVG 1.1//EN" "http://www.w3.org/Graphics/SVG/1.1/DTD/svg11.dtd" >
<svg xmlns="http://www.w3.org/2000/svg" xmlns:xlink="http://www.w3.org/1999/xlink" version="1.1" viewBox="-10 0 1034 1024">
  <g transform="matrix(1 0 0 -1 0 820)">
   <path fill="currentColor"
d="M495 -96l-406 4q-3 1 -5 1v-47q3 3 12 3q33 3 53 3l786 -1q4 0 25 -4l2 -1v47q-9 -3 -23 -3q-19 0 -40 -2h-368q0 43 2 86l282 -1q12 0 26 -5v47q-12 -3 -23 -4l-285 -1v79l312 -1q12 0 26 -5v47q-12 -3 -23 -4l-662 1q-3 1 -4 1q-3 0 -12 2v-47q1 0 38 5l287 1v-79h-232
q-34 0 -53 2q-7 1 -13 3v-47q6 3 13 3q27 3 53 3h232v-86zM227 269l-4 -41q-1 -10 -1 -21q33 3 66 5l485 -1l43 -4q-4 49 -5 71l5 203q-27 -1 -56 -5h-290q16 36 45 58q-28 10 -58 25q-16 -51 -32 -83q-141 0 -169 2q-9 3 -34 3q1 -33 5 -66v-146zM773 248h-509v78h509v-78z
M264 362v78h509v-78h-509zM177 576q13 15 35 43h52q73 -78 91 -112q16 16 39 30l-38 41q-12 15 -26 29q-6 6 -10 12q144 0 167 -3q6 -1 11 -4v48q-7 -1 -13 -3q-12 0 -50 -3h-197q34 48 45 58q12 12 33 21q-27 9 -63 27q-4 -16 -25 -49q-36 -57 -79 -109q-63 -75 -99 -85
q30 -12 53 -27q9 13 26 30zM654 625q22 -18 35 -30q19 -18 54 -53q10 -12 28 -36q13 18 36 37q-6 6 -61 56q-12 10 -27 26l187 -1q13 0 28 -3l2 -1v46q-10 -1 -22 -4l-302 -1q37 61 74 79q-30 12 -57 31q-12 -30 -28 -55q-16 -27 -46 -66q-48 -66 -85 -79q27 -9 54 -24
q45 60 64 78h66z" />
  </g>

</svg>
