<?xml version="1.0" standalone="no"?>
<!DOCTYPE svg PUBLIC "-//W3C//DTD SVG 1.1//EN" "http://www.w3.org/Graphics/SVG/1.1/DTD/svg11.dtd" >
<svg xmlns="http://www.w3.org/2000/svg" xmlns:xlink="http://www.w3.org/1999/xlink" version="1.1" viewBox="-10 0 1034 1024">
  <g transform="matrix(1 0 0 -1 0 820)">
   <path fill="currentColor"
d="M295 648q48 -57 81 -113q12 9 17 15q6 4 17 12q-30 48 -64 86q117 0 138 -2q10 0 23 -4v45q-24 -3 -66 -4h-197q28 45 59 66q-33 13 -53 27q-9 -24 -28 -57q-43 -69 -89 -121q-42 -43 -77 -63q24 -15 45 -30q28 30 51 56l71 87h72zM138 139q-24 1 -54 2l-8 2q-3 1 -5 1
v-46q3 3 16 4l153 2h102q-54 -45 -116 -89q81 -9 121 -20l152 -34q-51 -21 -92 -34q-36 -10 -74 -19q-81 -15 -143 -16q-21 0 -58 4q21 -34 28 -51q70 3 179 24q111 27 220 77q39 -7 100 -27q42 -13 87 -27q42 -12 69 -22q24 -9 51 -22q4 19 17 48q-124 37 -134 40l-105 29
q-18 6 -39 10q31 22 70 56q16 15 31 30q15 16 37 43q174 0 194 -3q9 0 18 -3v46q-19 -4 -66 -5h-449q15 16 34 31q7 6 16 15l36 23q-24 9 -53 27q-25 -37 -92 -96h-243zM403 104h288q-21 -27 -63 -64q-42 -33 -75 -53q-75 18 -122 29l-110 23q40 33 82 65zM177 413
q-24 1 -54 2q-6 0 -13 3v-46q19 4 35 5l306 1q-84 -66 -164 -102q-82 -33 -174 -46q16 -15 29 -32q4 -6 9 -13q34 9 93 31q54 21 92 40q34 18 74 45q39 27 74 56q-4 -79 -5 -103h48q-4 54 -5 82v34q48 -48 138 -96q58 -30 97 -45q48 -18 120 -38q1 3 3 6q1 3 3 6q3 3 4 8
q7 15 20 30q-58 0 -153 33q-117 45 -184 104l314 -1q21 0 36 -5v46q-16 -4 -66 -5h-210q48 51 69 68q15 12 42 28q-9 3 -32 24l-13 13q-39 -54 -124 -133h-64v74q0 25 7 50q0 3 10 17h-60q4 -49 5 -86v-55h-111q9 19 20 32q-33 27 -64 51l-67 48q-9 -16 -27 -35
q24 -10 41 -25l43 -32q27 -19 31 -26q9 -9 11 -13h-184zM700 651q51 -66 89 -117q15 16 33 27q-10 10 -43 56l-27 34q162 0 183 -2q10 0 23 -3v46q-21 -4 -66 -5h-257q25 45 56 70q-34 13 -57 27q-9 -36 -40 -89q-48 -81 -95 -110q30 -9 54 -19l63 85h84z" />
  </g>

</svg>
