<?xml version="1.0" standalone="no"?>
<!DOCTYPE svg PUBLIC "-//W3C//DTD SVG 1.1//EN" "http://www.w3.org/Graphics/SVG/1.1/DTD/svg11.dtd" >
<svg xmlns="http://www.w3.org/2000/svg" xmlns:xlink="http://www.w3.org/1999/xlink" version="1.1" viewBox="-10 0 1034 1024">
  <g transform="matrix(1 0 0 -1 0 820)">
   <path fill="currentColor"
d="M220 -92q0 -37 -3 -52q0 -1 -2 -12h49q-3 6 -4 26q0 18 -2 38v487q7 15 16 29q30 54 38 63q9 12 29 26q-27 12 -56 31q-57 -151 -172 -280q-24 -27 -38 -37q-13 -9 -34 -19q33 -13 58 -30l121 155v-425zM619 198q-1 -48 -14 -110l-267 1q-15 0 -32 4v-47q1 0 38 5l245 1
q-39 -63 -124 -118q-70 -39 -126 -42q22 -19 42 -47q51 24 83 43q28 15 58 37q63 48 115 127h5q36 -51 59 -73q15 -15 57 -46q52 -34 84 -48l83 -36l38 48q-52 1 -139 43q-85 45 -132 112q246 0 267 -3q3 0 9 -3v47q-6 0 -12 -3l-85 -2h-225l12 82q0 9 2 28l214 -4l2 -1v46
l-63 -5h-332q19 40 52 55q-16 7 -56 31q-27 -61 -59 -118q-31 -51 -68 -80q21 -6 51 -20q7 10 15 20q30 51 49 76h154zM332 317q12 6 52 6q534 0 547 -2q6 0 17 -4v47l-103 -5h-59q15 69 19 73q0 6 24 68q-30 -1 -59 -5q-288 0 -306 3q-3 0 -9 2v-47q12 6 52 6h264
q-10 -45 -28 -100l-382 1q-9 1 -17 2q-3 0 -12 2v-47zM289 633q49 -51 93 -124q16 18 38 31q-4 6 -80 93l168 -1q12 0 36 -4v46q-3 0 -8 -2q-15 0 -31 -2l-232 -1q30 42 46 56q10 10 35 23q-31 13 -59 32q-7 -19 -26 -51q-27 -42 -73 -99q-40 -48 -69 -73q-28 -21 -55 -30
q30 -18 48 -37q69 72 130 143h39zM574 581q34 42 41 48q3 3 7 8h54q63 -66 85 -115q12 15 36 29l-67 86q186 0 216 -3q3 0 9 -3v47l-63 -5h-245q39 64 77 81q-31 12 -60 32q-9 -22 -22 -45q-16 -27 -50 -76q-12 -18 -42 -52q-51 -55 -88 -69l15 -5q6 -1 42 -20q21 27 55 62
v0z" />
  </g>

</svg>
