<?xml version="1.0" standalone="no"?>
<!DOCTYPE svg PUBLIC "-//W3C//DTD SVG 1.1//EN" "http://www.w3.org/Graphics/SVG/1.1/DTD/svg11.dtd" >
<svg xmlns="http://www.w3.org/2000/svg" xmlns:xlink="http://www.w3.org/1999/xlink" version="1.1" viewBox="-10 0 1010 1000">
   <path fill="currentColor"
d="M456 175q40 -3 88 6q0 1 -2 4q-10 19 -10 46h192q43 0 72 -8q-6 21 -6 63v40q1 38 4 73q-60 -8 -80 -8h-180v50h289q91 1 123 -8v79q-60 -9 -115 -8h-648q-72 1 -120 8v-77q26 6 124 6h275v-50h-182q-48 0 -78 6l6 -67v-46q-1 -39 -6 -61q40 8 74 8h186q3 -29 -6 -56z
M198 544q42 6 74 6h454q37 0 84 -8q-7 41 -8 93q0 42 2 59q2 21 8 39h-94q8 -27 8 -98v-25h-446v37q0 66 8 99h-94q10 -32 10 -91v-47q-1 -34 -6 -64zM248 -6q42 6 89 24q-1 3 -13 13q-23 21 -44 43h115q53 0 93 -8v73q-36 -7 -93 -6h-32q4 6 28 68l-78 8q-8 -45 -29 -76
h-60q-60 70 -99 100q-25 -30 -60 -44q123 -81 183 -195zM637 -12q79 14 87 24q-26 15 -59 58h162q65 0 102 -6v71q-50 -6 -102 -6h-63q18 27 34 70l-76 10q-11 -53 -26 -78h-79l-42 50q-31 -20 -69 -30q78 -57 131 -163zM442 645q46 0 100 16q-12 13 -16 26q-2 4 -5 15
q-23 74 -71 110q-81 56 -313 97q-20 -51 -64 -87q223 8 324 -56q56 -48 45 -121zM562 719q151 47 341 111l-54 75q-3 0 -24 -11q-60 -36 -301 -118zM718 282h-184v58h184v-58zM462 282h-182v58h182v-58z" />
</svg>
