<?xml version="1.0" standalone="no"?>
<!DOCTYPE svg PUBLIC "-//W3C//DTD SVG 1.1//EN" "http://www.w3.org/Graphics/SVG/1.1/DTD/svg11.dtd" >
<svg xmlns="http://www.w3.org/2000/svg" xmlns:xlink="http://www.w3.org/1999/xlink" version="1.1" viewBox="-10 0 1010 1000">
   <path fill="currentColor"
d="M615 -23q99 29 99 37q-1 2 -7 7q-28 19 -56 53h164q71 0 114 -8v79q-40 -8 -114 -8h-53q3 6 10 18q23 41 36 60l-82 20q-15 -47 -43 -98h-74q-15 18 -48 55q-26 28 -33 37q-35 -27 -88 -32q113 -68 175 -220zM240 -15q97 18 105 31q-3 5 -15 13q-29 18 -54 47h119
q52 0 103 -8v75q-30 -8 -101 -8h-40q5 15 20 51q10 22 14 33l-83 12q-11 -64 -28 -96h-48q-70 90 -103 127q-31 -35 -91 -45q128 -80 202 -232zM274 223q9 7 27 20q81 60 78 61l-64 40h145q0 -62 -1 -81q-1 -25 -5 -34q95 4 100 9q0 1 -2 3q-18 26 -18 105h123
q-9 -5 -30 -18q-13 -8 -20 -12q67 -41 95 -85q85 41 84 49q-1 2 -9 5q-46 17 -90 61h89q77 -1 129 -8v77q-35 -7 -123 -8h-169q37 40 140 67q48 11 99 16q51 4 102 0q-49 42 -67 94q-250 -43 -353 -177q0 69 4 127h-74q3 1 11 4q50 21 47 24q-1 3 -7 5q-24 7 -55 37h355
q93 -1 127 -4v79q-30 -9 -127 -12h-85q-7 8 -22 26q-52 60 -77 85q65 16 188 49q38 11 54 15q-36 37 -54 79q-75 -40 -257 -97q-90 69 -439 85q-23 -45 -77 -93q93 21 209 16q119 -6 223 -36q-158 -31 -270 -38q72 -52 109 -91h-144q-51 1 -125 6v-77q50 7 127 8h200
q44 -57 50 -88l25 12q8 -50 8 -119q-100 111 -343 175q-21 -48 -61 -78q184 -12 333 -101h-185q-69 1 -105 6v-79q49 10 105 12h100q-31 -36 -96 -80zM641 667h-234q-33 33 -54 52q39 5 125 23q49 11 68 14q3 7 95 -89z" />
</svg>
