<?xml version="1.0" standalone="no"?>
<!DOCTYPE svg PUBLIC "-//W3C//DTD SVG 1.1//EN" "http://www.w3.org/Graphics/SVG/1.1/DTD/svg11.dtd" >
<svg xmlns="http://www.w3.org/2000/svg" xmlns:xlink="http://www.w3.org/1999/xlink" version="1.1" viewBox="-10 0 1010 1000">
   <path fill="currentColor"
d="M619 -12q106 25 97 32q0 4 -11 14q-13 10 -18 18q-6 9 -16 22q-9 13 -12 18h174q69 0 94 -4v67q-27 -4 -92 -4h-75q14 22 34 76l-76 15q-2 -8 -7 -24q-15 -49 -24 -67h-58q-30 41 -77 93q-28 -19 -74 -33q105 -92 141 -223zM240 -8q9 2 28 7q74 17 71 27q0 3 -11 9
q-20 11 -28 21q-7 8 -21 22t-21 22h171q38 0 77 -8v73q-23 -6 -83 -6h-74q25 27 46 64l-78 21q-8 -35 -31 -85h-58q-53 67 -91 105q-35 -22 -81 -37q102 -69 184 -235zM244 229q85 28 93 41q0 4 -3 5q-14 7 -32 33q-15 21 -42 66q-11 17 -16 25v395q0 50 2 72q1 26 6 41h-87
q9 -28 8 -113v-300q-28 48 -84 121q-19 -38 -61 -67q142 -132 216 -319zM411 250q41 9 103 8h268l-42 129h77q67 0 96 -8v74q-31 -7 -94 -6h-359q13 6 38 13q23 6 24 11t-13 15q-19 15 -25 26h258q72 1 99 -8v70q-30 -9 -99 -8h-95q0 34 -12 85h167q67 -1 101 -8v74
q-24 -9 -101 -8h-143q65 100 270 95q-35 51 -44 93q-227 -44 -278 -176q-68 120 -266 182q-16 -42 -57 -73q179 -19 258 -123h-135q-68 0 -109 8v-74q34 9 107 8h160q12 -34 12 -83h-125q-34 43 -61 71q-33 -21 -66 -27q83 -80 108 -163q-84 0 -129 8v-76q45 8 119 8h242
l23 -69h-162q-72 1 -115 10v-78z" />
</svg>
