<?xml version="1.0" standalone="no"?>
<!DOCTYPE svg PUBLIC "-//W3C//DTD SVG 1.1//EN" "http://www.w3.org/Graphics/SVG/1.1/DTD/svg11.dtd" >
<svg xmlns="http://www.w3.org/2000/svg" xmlns:xlink="http://www.w3.org/1999/xlink" version="1.1" viewBox="-10 0 1034 1024">
  <g transform="matrix(1 0 0 -1 0 820)">
   <path fill="currentColor"
d="M168 487q4 -66 5 -98l-1 -503q-3 -12 -4 -42l65 6q696 0 708 -3q6 0 15 -3v47q-9 -3 -23 -3q-13 0 -40 -2h-683v560q672 0 700 -3q3 0 9 -3v47q-6 -1 -12 -3l-93 -2l-604 1q-15 3 -42 4zM465 335l-179 1q-28 3 -36 5v-47q6 3 12 3q27 3 52 3h151v-107h-131q-42 0 -66 5
v-47q1 0 38 5l159 1v-106q-186 0 -206 3q-3 0 -9 2v-47q3 3 23 4q27 1 192 2v-26q0 -39 -5 -63h49q-3 6 -4 26q0 18 -2 37v358q0 12 3 31q3 18 11 34h-57q4 -12 5 -65v-12zM653 338v8q0 36 15 65h-58q6 -15 6 -65v-354q0 -42 -5 -59q-1 -1 -1 -5h50q-4 12 -5 33q-1 10 -2 56
l209 -1l26 -4l2 -1v47q-30 -1 -59 -5h-178v109l167 -1q6 0 29 -4v46l-98 -5h-98v104h164q27 0 52 -3q3 0 12 -3v47q-10 -1 -23 -4zM296 618q42 -46 79 -115q19 19 41 33q-21 21 -71 82l172 -1q6 0 34 -5v47q-15 -4 -34 -5l-251 -1q33 43 43 54q12 10 37 18l-53 39
q-39 -75 -119 -154q-69 -67 -120 -82q19 -13 41 -35q67 51 139 125h62zM569 543q19 24 32 43q12 18 26 36h58q24 -25 50 -61q28 -37 38 -55q18 19 27 27q1 1 8 6q-9 10 -20 21q-45 49 -55 62q189 0 217 -3q3 0 9 -3v47l-63 -5h-246l25 42q18 28 43 39l-12 6q-3 0 -29 15
q-6 3 -16 9q-28 -67 -72 -134q-52 -73 -96 -96q18 -6 46 -22q3 -1 7 -3q10 15 23 29v0z" />
  </g>

</svg>
