<?xml version="1.0" standalone="no"?>
<!DOCTYPE svg PUBLIC "-//W3C//DTD SVG 1.1//EN" "http://www.w3.org/Graphics/SVG/1.1/DTD/svg11.dtd" >
<svg xmlns="http://www.w3.org/2000/svg" xmlns:xlink="http://www.w3.org/1999/xlink" version="1.1" viewBox="-10 0 1010 1000">
   <path fill="currentColor"
d="M256 -15q94 25 95 31q-2 7 -11 13q-24 16 -50 53h145q64 1 77 -6v73q-21 -6 -79 -6h-46l3 6q16 31 23 52l-78 10q-8 -51 -20 -68h-75q-11 11 -34 38q-51 57 -75 77q-28 -25 -79 -43q142 -86 204 -230zM617 -13q88 14 87 29q-1 2 -5 6q-24 19 -46 60h176q77 -1 102 -8v75
q-28 -7 -102 -8h-47q23 34 35 62l-83 16q-9 -41 -28 -78h-91q-8 11 -37 48q-18 23 -28 36h135q65 -1 115 -8q-4 24 -4 109v127q0 61 6 103q-73 -8 -137 -8h-205q-3 4 -11 14q-18 21 -30 36h385q88 -1 131 -8v79q-49 -10 -133 -10h-112q114 98 268 107q-34 23 -65 84
q-196 -78 -280 -191h-238q-108 115 -262 201q-28 -39 -79 -64q121 -26 246 -137h-107q-76 1 -110 6v-75q42 7 116 8h158q21 -24 42 -50h-73q-46 1 -106 6q1 -6 2 -20q6 -50 6 -95v-111q0 -79 -6 -111q48 5 139 8h199q-12 -17 -68 -34q93 -65 145 -204zM720 272h-436v50h436
v-50zM284 365v46h436v-46h-436zM284 455v45h436v-45h-436zM429 675q100 19 95 30q-1 4 -10 8q-17 6 -28 18q-82 88 -111 95l240 -8q-25 -29 -81 -70l67 -31q76 63 169 148l-76 46q-19 -29 -37 -44q-289 15 -365 38q-9 -29 -40 -73q100 -13 177 -157z" />
</svg>
