<?xml version="1.0" standalone="no"?>
<!DOCTYPE svg PUBLIC "-//W3C//DTD SVG 1.1//EN" "http://www.w3.org/Graphics/SVG/1.1/DTD/svg11.dtd" >
<svg xmlns="http://www.w3.org/2000/svg" xmlns:xlink="http://www.w3.org/1999/xlink" version="1.1" viewBox="-10 0 1034 1024">
  <g transform="matrix(1 0 0 -1 0 820)">
   <path fill="currentColor"
d="M278 649q49 -57 80 -115q22 18 40 29q0 1 -28 38l-37 48l165 -3q4 0 10 -3v46q-15 -3 -66 -4h-195q30 51 53 69q-3 0 -8 4q-7 1 -13 4q-1 0 -38 16q-9 -33 -27 -68q-18 -34 -58 -93q-58 -84 -103 -107q21 -12 46 -36q27 33 63 83q36 49 64 92h52zM229 105v17q0 18 4 32
q1 12 14 29h-61q1 -30 5 -61l-1 -207q-6 -13 -14 -21l-12 -9q9 -9 18 -26q4 -12 10 -24q27 19 101 45l199 61q1 10 3 24q3 12 7 33q-27 -18 -165 -64q-78 -21 -108 -33v168q229 0 249 -3q9 0 18 -3v47q-21 -4 -66 -5h-201zM207 500q1 -31 5 -65l-1 -177q-3 -12 -4 -44
q60 6 64 6l518 -1q24 -1 48 -5q-4 52 -5 105q0 132 2 143q0 18 3 38q-55 -4 -88 -5h-291q24 33 53 52q-33 13 -52 29q-24 -48 -53 -81q-136 0 -163 2q-6 3 -36 3zM249 255v204h426q-13 -13 -49 -35q-57 -33 -99 -51l-126 48l-50 19q-6 3 -11 4l-7 -14q-6 -6 -10 -13
q0 -3 -4 -9l105 -35q40 -16 56 -22q-51 -21 -94 -34q-42 -12 -97 -22q16 -15 32 -37q67 15 205 74q114 -42 171 -77h-448zM636 388q78 36 98 42l-41 29h100v-204h-89q3 6 16 26q1 4 8 10l-154 64q12 4 21 10q19 12 41 23zM700 653q52 -64 80 -113q12 10 31 20q3 1 10 4
q-6 9 -14 19q-9 12 -17 22l-36 48q135 0 156 -2q10 0 23 -4v47q-19 -4 -65 -5h-237q24 45 31 55q4 7 22 22l-21 6q-19 7 -17 6q-9 3 -19 10q-12 -42 -52 -114q-27 -45 -46 -67q-15 -18 -37 -31q3 -1 8 -5q9 -3 17 -7q12 -3 18 -6q3 -3 5 -4q3 -1 5 -3q9 12 68 102h87z
M599 133q0 18 4 32q3 15 14 28h-61q0 -9 5 -60v-187q0 -49 41 -70q36 -15 114 -16q39 0 76 2q75 3 111 29q27 19 42 71q3 22 14 50q-19 3 -50 19q0 -25 -2 -36q-3 -31 -14 -53q-21 -33 -84 -39q-27 -3 -89 -3q-58 0 -87 7q-33 9 -34 47v68q120 43 140 53q27 10 54 23l30 11
q12 3 22 8q18 6 40 11q-36 33 -39 39l-4 5q-12 -12 -80 -45q-70 -31 -163 -66v72z" />
  </g>

</svg>
