<?xml version="1.0" standalone="no"?>
<!DOCTYPE svg PUBLIC "-//W3C//DTD SVG 1.1//EN" "http://www.w3.org/Graphics/SVG/1.1/DTD/svg11.dtd" >
<svg xmlns="http://www.w3.org/2000/svg" xmlns:xlink="http://www.w3.org/1999/xlink" version="1.1" viewBox="-10 0 1010 1000">
   <path fill="currentColor"
d="M615 -13q9 3 26 7q70 18 65 26q0 4 -9 12q-11 11 -18 20l-24 30h170q75 0 100 -6v77q-67 -10 -171 -10l3 3q7 3 39 65l-82 16q-1 -4 -2 -11q-1 -29 -27 -75h-72l-75 82q-34 -26 -80 -30q124 -96 157 -206zM230 -12q3 1 8 2q95 18 91 28q0 4 -14 15q-11 9 -17 15
q-24 24 -32 34h89q64 0 131 -8v75q-37 -9 -131 -8q29 43 38 68l-76 22q-12 -54 -37 -90h-70q-89 87 -101 96q-21 -29 -61 -50q136 -88 182 -199zM429 302v65h131v-65h-131zM365 419h-121v89h121v-89zM429 419v89h131v-89h-131zM623 419v89h135v-89h-135zM214 240h560
q20 1 59 -1q30 -2 50 -2v71q-54 -6 -111 -6h-149v65l97 -2h19q63 3 96 -3q-6 37 -6 99q-1 63 8 109q-49 -10 -119 -10h-182v67h279q69 -1 108 -8v78q-29 -9 -111 -8h-187q86 96 298 107q-36 34 -58 83q-77 -12 -167 -51q-89 -37 -162 -137v107q-1 87 6 111h-88q9 -31 8 -107
v-113q-112 115 -333 206q-21 -43 -66 -79q183 -19 298 -127h-174q-65 0 -100 8v-78q31 8 94 8h283v-67h-170q-79 1 -129 10q9 -33 8 -109q1 -60 -8 -101q44 4 89 6q22 0 47 1h64v-65h-151q-32 0 -87 8v-77q11 7 87 7z" />
</svg>
