<?xml version="1.0" standalone="no"?>
<!DOCTYPE svg PUBLIC "-//W3C//DTD SVG 1.1//EN" "http://www.w3.org/Graphics/SVG/1.1/DTD/svg11.dtd" >
<svg xmlns="http://www.w3.org/2000/svg" xmlns:xlink="http://www.w3.org/1999/xlink" version="1.1" viewBox="-10 0 1010 1000">
   <path fill="currentColor"
d="M597 -10q80 15 90 28q-1 4 -9 10q-25 17 -57 56h155q81 -2 101 -8v77q-20 -8 -105 -8h-44q6 12 29 50q10 17 15 26q-44 9 -80 19q-17 -61 -39 -97h-66q-9 13 -25 37q-12 19 -18 27q-33 -16 -82 -24q90 -77 135 -193zM236 -6q88 21 91 38q-1 2 -6 4q-26 8 -53 50h107
q74 0 105 -6v69q-24 -6 -105 -6h-36q22 37 40 80q-38 2 -79 15q-6 -54 -26 -95h-50q-20 32 -77 95q-18 -12 -62 -30q-14 -5 -18 -7q113 -74 169 -207zM522 207q3 15 12 43q3 9 4 14h244q11 -1 31 -2q80 -5 94 -8v78q-29 -8 -129 -10h-151q52 43 48 47q-3 2 -9 3
q-32 8 -99 43q6 2 17 6q62 20 112 40l-41 47q-18 -9 -76 -32q-46 -17 -69 -27q-17 8 -78 30q-69 25 -87 33h391q0 -70 -1 -93q-1 -28 -5 -38q75 1 87 8q1 3 -2 11q-11 24 -11 57v45q-1 59 4 74q-36 -6 -131 -8h-145l-34 51h206q148 0 169 -6q-2 10 -3 31q-1 11 -1 26v43v105
q2 50 -23 64q-22 17 -112 25q-1 -41 -28 -81q55 9 69 3q16 -4 15 -31v-121h-328l-63 79l180 -12l-29 -33l63 -22q46 53 85 117l-71 32q-6 -21 -18 -48q-139 4 -297 40q-1 -3 -3 -10q-11 -41 -25 -60q44 -1 101 -83h-179v105q0 86 6 117h-91q7 -30 10 -129v-57
q-1 -62 -6 -100q24 3 129 6h169l29 -51h-158q-93 0 -107 6q4 -26 5 -74v-47q0 -49 -5 -68q8 0 23 1q69 1 66 7q1 2 -1 7q-11 32 -11 112h71q0 -15 -47 -47q53 -4 152 -42q-65 -24 -142 -36l41 -53q41 14 141 48q17 6 26 9q64 -30 101 -69h-395q-114 0 -133 6v-74
q35 8 135 10h246q-15 -33 -29 -51z" />
</svg>
