<?xml version="1.0" standalone="no"?>
<!DOCTYPE svg PUBLIC "-//W3C//DTD SVG 1.1//EN" "http://www.w3.org/Graphics/SVG/1.1/DTD/svg11.dtd" >
<svg xmlns="http://www.w3.org/2000/svg" xmlns:xlink="http://www.w3.org/1999/xlink" version="1.1" viewBox="-10 0 1010 1000">
   <path fill="currentColor"
d="M550 399q47 12 89 28q0 2 -5 6q-18 12 -31 34h171q47 -1 85 -8v73q-39 -6 -81 -6h-66q-3 32 -10 87q-2 11 -2 12h121q51 -1 96 -6v74q-35 -5 -94 -6h-97q73 119 228 139q-52 59 -55 89q-169 -77 -222 -204q-51 124 -217 200q-29 -45 -79 -71q169 -21 234 -153h-87
q-9 1 -35 2q-48 1 -62 4v-76q26 8 95 8h105q9 -39 10 -99h-70q-27 50 -43 74q-59 -18 -82 -20q82 -78 104 -181zM272 262q9 25 25 82l3 12h23q53 -1 80 -6v71q-33 -6 -86 -6h-73q-1 11 -1 32q-2 43 -5 67h64q68 0 97 -4q-7 38 -16 175q-4 57 -6 87q6 85 -139 99
q-6 -48 -40 -87q108 22 106 -36q11 -69 15 -174h-85q-15 164 -123 315q-39 -34 -85 -41q151 -119 147 -431h-40l-79 8v-75q30 5 81 6h95q-19 -51 -42 -84zM613 -19q50 17 93 41q0 3 -5 6q-26 15 -64 70h186q65 -1 106 -10v75q-26 -5 -106 -6h-71l38 81l-80 24
q-10 -61 -35 -105h-78q-3 5 -14 20q-33 49 -43 56q77 25 81 35q0 3 -4 5q-19 9 -38 45h234q67 0 104 -6v73q-47 -7 -96 -8h-279q-55 78 -90 110q-29 -25 -69 -38q94 -69 145 -197l-12 10q-47 -34 -85 -37q105 -55 182 -244zM236 -17q54 16 97 43q-1 1 -6 4q-31 15 -71 72
h147q60 0 89 -8v73q-25 -6 -91 -6h-56q15 22 47 76q4 6 5 9l-78 22q-26 -70 -49 -107h-56q-47 72 -85 109q-31 -28 -79 -37q120 -89 186 -250z" />
</svg>
