<?xml version="1.0" standalone="no"?>
<!DOCTYPE svg PUBLIC "-//W3C//DTD SVG 1.1//EN" "http://www.w3.org/Graphics/SVG/1.1/DTD/svg11.dtd" >
<svg xmlns="http://www.w3.org/2000/svg" xmlns:xlink="http://www.w3.org/1999/xlink" version="1.1" viewBox="-10 0 1034 1024">
  <g transform="matrix(1 0 0 -1 0 820)">
   <path fill="currentColor"
d="M206 -77l-127 3q-1 0 -5 1q-3 1 -6 1v-45q33 3 66 5l790 -1q10 0 31 -4v45q-31 -1 -64 -5h-58l1 147l4 46q-34 -1 -69 -5l-521 1q-19 3 -48 4q6 -60 6 -79v-114zM243 -77v153h161v-153h-161zM440 -77v153h153v-153h-153zM629 -77v153h166v-153h-166zM299 653
q42 -34 86 -95q7 12 31 26l-61 69q72 0 149 -3q1 0 11 -2v45l-27 -3q-18 0 -36 -2h-191q4 7 9 15q22 37 47 51q-19 3 -32 7q-9 3 -26 11q-9 -24 -35 -70q-36 -61 -91 -116q-30 -27 -62 -39q12 -4 27 -10t31 -17q49 55 111 133h59zM243 307h232q27 -27 54 -47q79 -54 135 -77
q85 -39 240 -64q6 19 20 38q6 7 12 18q-27 -3 -46 -3q-40 0 -107 13q-43 9 -80 26q7 3 14 9l46 33q6 3 21 11q16 9 41 11q-24 15 -48 37q-4 49 -5 76q0 111 2 124q0 18 3 36q-33 -1 -68 -5l-463 1q-24 3 -46 4q6 -63 6 -82l-1 -270q-3 -9 -9 -17q-6 -6 -24 -12l20 -30l8 -18
q42 21 90 38l130 47q31 12 54 17q3 27 9 54q-28 -16 -69 -33q-69 -25 -171 -60v125zM243 342v66h491v-66h-491zM243 443v65h491v-65h-491zM762 307q-21 -24 -29 -29q-15 -13 -68 -50q-1 0 -2 -1q-22 6 -65 32q-42 27 -65 48h229zM616 660h86q57 -60 83 -100q15 21 31 30
q-3 4 -44 49l-18 21q165 0 173 -3q4 0 7 -3v46l-63 -6h-233q28 48 57 62q-24 7 -45 19q-7 4 -15 8q-10 -40 -54 -104q-49 -72 -102 -97q30 -15 49 -28l71 85q7 10 17 21v0z" />
  </g>

</svg>
