<?xml version="1.0" standalone="no"?>
<!DOCTYPE svg PUBLIC "-//W3C//DTD SVG 1.1//EN" "http://www.w3.org/Graphics/SVG/1.1/DTD/svg11.dtd" >
<svg xmlns="http://www.w3.org/2000/svg" xmlns:xlink="http://www.w3.org/1999/xlink" version="1.1" viewBox="-10 0 1034 1024">
  <g transform="matrix(1 0 0 -1 0 820)">
   <path fill="currentColor"
d="M799 163q22 0 58 -5q-4 49 -5 75q0 72 2 86q0 18 3 29q-55 -4 -79 -5h-133v95l242 -1q12 0 26 -5v47q-12 -1 -23 -4l-323 -1q3 4 6 10l14 15l-105 74q-12 -16 -27 -32q58 -36 92 -67l-318 1q-15 3 -44 4q1 -34 5 -71l-1 -199q-3 -66 -12 -133q-13 -87 -47 -150
q-24 -42 -57 -63q27 -9 53 -24q48 75 68 138q18 63 32 186h573zM413 199h-186v108h186v-108zM227 343v95h186v-95h-186zM449 199v108h159v-108h-159zM449 343v95h159v-95h-159zM814 199h-169v108h169v-108zM328 -174q30 16 105 45l122 46q0 22 3 46q-33 -16 -87 -38
l-109 -40v147q147 0 175 -3q3 0 9 -3v47l-104 -5h-80q0 45 10 63q1 6 5 11h-58q4 -12 5 -65v-156q0 -24 -8 -39q-3 -7 -13 -17q12 -19 25 -39zM632 81q0 12 3 31q3 18 10 34h-57q3 -6 3 -12q1 -15 2 -53v-164q0 -24 9 -42q12 -24 66 -29l108 -2q81 0 115 15q30 15 53 67
q3 10 16 46q-21 10 -52 30q-1 -43 -6 -62q-9 -33 -35 -46q-28 -10 -113 -11q-72 0 -88 3q-33 6 -34 39v93q180 42 212 48l40 1q-10 54 -11 59q-18 -9 -41 -17l-188 -52q-6 0 -12 -2v26zM290 627q31 -40 53 -71q19 -28 32 -53q4 6 11 11q7 9 28 22q-33 37 -63 78q-4 7 -9 13
q195 0 216 -3l10 -2v46l-62 -5h-240q6 6 12 16q33 43 67 58q-28 19 -48 41q-40 -78 -130 -169q-51 -48 -73 -64q-24 -16 -43 -22q28 -16 38 -25q4 -3 10 -8l65 63q30 30 71 74h55zM623 608q6 9 18 23h51q63 -66 84 -118q15 15 38 29q-60 79 -66 89l197 -3q3 0 9 -3v47
l-63 -5h-225q0 3 29 45q0 3 6 8q9 12 28 22q-22 9 -53 27q-6 -18 -31 -61q-21 -34 -45 -66q-45 -52 -77 -69q12 -4 39 -20q4 -3 9 -6q3 4 6 7t11 13q16 21 35 41v0z" />
  </g>

</svg>
