<?xml version="1.0" standalone="no"?>
<!DOCTYPE svg PUBLIC "-//W3C//DTD SVG 1.1//EN" "http://www.w3.org/Graphics/SVG/1.1/DTD/svg11.dtd" >
<svg xmlns="http://www.w3.org/2000/svg" xmlns:xlink="http://www.w3.org/1999/xlink" version="1.1" viewBox="-10 0 1010 1000">
   <path fill="currentColor"
d="M232 -10q69 18 93 38q0 3 -9 9q-35 26 -68 71h129q36 0 113 -8v73q-42 -7 -113 -8h-48q7 17 30 61q5 11 8 16l-75 14q-5 -45 -26 -91h-58q-47 59 -95 107q-11 -17 -51 -41q-11 -7 -16 -10q136 -90 186 -231zM623 -10q88 19 91 30q0 3 -8 10q-33 28 -65 78h172
q65 -1 102 -8v73q-40 -8 -100 -8h-67q6 21 22 61q4 11 6 16l-80 16q-8 -57 -27 -93h-58q-13 17 -42 54q-20 27 -31 41q-32 -24 -72 -33q99 -83 157 -237zM887 260q9 18 27 49q24 39 19 39q-1 2 -10 -1q-22 -5 -42 -5q-15 0 -73 7q-99 11 -155 13v105h178q45 -1 96 -8v75
q-26 -7 -88 -8h-37v214q0 131 8 167h-86q7 -37 8 -169v-212h-77q-6 206 -113 373q-31 -18 -92 -32q76 -62 107 -162q31 -95 30 -276v-54q0 -19 -6 -67q167 -3 306 -48zM333 260q66 1 82 10q0 2 -3 7q-13 26 -13 63v111h41q61 0 98 -8v67q-39 -6 -96 -6h-43v113q1 69 10 110
h-78q8 -28 8 -108v-111q-34 118 -103 205q-18 -23 -57 -42q79 -60 113 -167q-44 -3 -100 8v-67q46 5 108 6h39v-105q0 -44 -6 -86zM478 294q50 25 60 36q0 1 -4 4q-27 26 -62 89q-16 -18 -45 -24q36 -57 51 -105zM264 300q25 43 44 101l-58 16q-18 -66 -48 -103zM452 530
q34 26 86 91l-52 42q-22 -41 -79 -95zM175 750h198q57 -1 103 -8v84q-31 -9 -101 -8h-192q-46 0 -82 6q6 -30 6 -87v-342q-2 -63 -8 -97q74 -2 93 6q0 1 -2 7q-15 34 -15 80v359z" />
</svg>
