<?xml version="1.0" standalone="no"?>
<!DOCTYPE svg PUBLIC "-//W3C//DTD SVG 1.1//EN" "http://www.w3.org/Graphics/SVG/1.1/DTD/svg11.dtd" >
<svg xmlns="http://www.w3.org/2000/svg" xmlns:xlink="http://www.w3.org/1999/xlink" version="1.1" viewBox="-10 0 1034 1024">
  <g transform="matrix(1 0 0 -1 0 820)">
   <path fill="currentColor"
d="M159 -117l42 4l252 -1q21 0 35 -5v47q-10 -1 -22 -4l-285 -1v428q0 10 3 30q3 18 11 34h-57q4 -12 5 -64l-1 -427q-3 -15 -4 -43q10 1 21 2zM583 212q0 -105 -17 -176q-18 -75 -53 -129q-22 -33 -53 -54q30 -9 55 -27q25 42 51 91q24 52 32 86q10 39 18 95l6 140h139
l-1 -382q0 -3 -4 -25h51q-3 7 -4 27q0 18 -2 38v342q135 0 157 -3q3 0 9 -3v47q-10 -3 -28 -4l-317 -1v147q1 0 126 17q84 18 117 21q21 0 49 -3q-18 27 -28 56q-30 -10 -56 -18q-25 -6 -62 -14q-105 -19 -158 -20q-12 0 -38 2q7 -42 10 -71zM358 12q0 -39 -5 -65h49
q-3 6 -6 58v166q60 -48 102 -112q12 18 33 35l-95 95q-18 16 -40 35v27q108 0 124 -2q12 0 23 -5v48q-12 -3 -23 -4l-79 -2h-45v148q0 12 3 31q3 18 12 34h-58q4 -12 5 -65v-148l-120 1q-18 3 -31 5v-48q9 6 37 6l98 1q-49 -93 -87 -151q-42 -57 -72 -72q27 -9 48 -24
q30 39 57 79l70 115v-186zM196 443q52 -54 95 -125q13 16 33 30q-25 36 -46 60l-39 50q-3 4 -8 11q-15 -13 -35 -26zM424 341q18 -15 35 -27l48 73q24 36 56 51q-22 16 -46 38q-13 -30 -44 -77q-28 -40 -49 -58zM194 581q34 31 40 39h68q39 -39 77 -99q16 18 36 30
q-30 33 -53 59q-4 6 -9 10h142q25 0 50 -3q4 0 12 -4v48l-62 -6h-228q36 46 51 59q12 12 33 19q-39 24 -55 38q-34 -69 -118 -152q-69 -69 -120 -80q30 -16 49 -35q19 12 33 25zM607 594q3 3 23 30h51q13 -13 22 -23l25 -32q24 -30 36 -52q12 16 34 34l-63 73q183 0 213 -3
q3 0 9 -3v47l-63 -5h-237q1 3 8 12q27 39 33 45q7 9 28 19q-19 9 -56 31q-24 -51 -52 -94q-24 -36 -43 -58q-9 -13 -26 -30q-39 -36 -64 -44q18 -6 55 -27l48 58q9 12 19 22v0z" />
  </g>

</svg>
