<?xml version="1.0" standalone="no"?>
<!DOCTYPE svg PUBLIC "-//W3C//DTD SVG 1.1//EN" "http://www.w3.org/Graphics/SVG/1.1/DTD/svg11.dtd" >
<svg xmlns="http://www.w3.org/2000/svg" xmlns:xlink="http://www.w3.org/1999/xlink" version="1.1" viewBox="-10 0 1010 1000">
   <path fill="currentColor"
d="M222 -15q95 21 91 35q-1 9 -17 14q-28 10 -44 34h141q75 1 99 -6v67q-23 -7 -79 -6h-14h-42l26 50l-71 18l-18 -68h-78q-62 65 -83 80q-29 -28 -54 -40q99 -76 143 -178zM611 -13q90 17 89 31q0 4 -10 9q-11 5 -17 11q-4 4 -9 8q-9 7 -19 18h180q55 -1 98 -10v71
q-50 -9 -161 -8q12 17 26 50l-76 22q-10 -44 -29 -70h-68q-14 19 -39 49q-17 20 -24 29q-44 -28 -76 -34q92 -69 135 -176zM429 252v50h131v-50h-131zM780 350h-153v57h153v-57zM361 350h-143v57h143v-57zM429 350v57h131v-57h-131zM192 488q57 4 149 4h308q106 0 149 -5
q-10 46 -10 97q0 95 8 143q-35 -9 -125 -8h-137v47h283q63 1 94 -8v76q-15 -5 -39 -7q-12 0 -28 -1h-40h-268q-1 58 6 85h-88q7 -24 6 -85h-281q-85 -1 -114 8v-76q35 9 112 8h281v-47h-150q-72 0 -114 12q4 -39 4 -121q0 -50 -1 -74q-2 -28 -5 -48zM274 540v46h438v-46
h-438zM712 625h-438v46h438v-46zM226 205h308h244q75 1 103 -8v59q-19 -6 -68 -4h-17h-169v50h139h11q46 1 76 -6q-7 38 -6 81q-1 55 6 86q-48 -9 -109 -8h-73h-387q-95 0 -139 8q7 -33 6 -90q0 -50 -6 -77q35 6 103 6h113v-50h-125q-58 0 -87 8v-61q59 6 77 6z" />
</svg>
