<?xml version="1.0" standalone="no"?>
<!DOCTYPE svg PUBLIC "-//W3C//DTD SVG 1.1//EN" "http://www.w3.org/Graphics/SVG/1.1/DTD/svg11.dtd" >
<svg xmlns="http://www.w3.org/2000/svg" xmlns:xlink="http://www.w3.org/1999/xlink" version="1.1" viewBox="-10 0 1010 1000">
   <path fill="currentColor"
d="M607 2q9 3 29 9q60 17 58 25q0 5 -11 13q-14 11 -20 21t-22 31q-8 11 -10 14h194q43 0 94 -9v73q-23 -5 -59 -6q-18 -1 -40 -2h-58q13 21 34 66l-84 21q-1 -4 -4 -12q-15 -46 -31 -75h-78q-33 53 -79 109q-27 -25 -70 -40q106 -94 157 -238zM236 4q12 4 35 10
q59 17 56 24q0 6 -13 16q-15 10 -22 20q-12 15 -30 41h111q83 1 107 -7v73q-43 -10 -123 -10q30 35 52 81l-82 16q-9 -43 -33 -97h-70q-25 35 -95 121q-36 -29 -73 -40q133 -122 180 -248zM736 260q74 49 64 58q-4 5 -23 10q-64 16 -138 59q15 24 34 42q64 -24 158 -85
q64 49 56 61q-2 2 -11 3q-59 7 -164 55q128 67 225 83q-38 38 -56 81q-79 -31 -135 -69q-4 27 -4 73q-1 53 4 84q-23 -3 -44 -3q-17 -1 -59 -1q9 5 25 12q21 8 20 12q0 2 -13 12q-39 32 -60 61h153q45 -1 91 -10v79q-20 -5 -50 -7q-14 0 -32 -1h-49h-466q-72 0 -119 6v-75
q35 9 121 8h97q-22 -43 -61 -77l53 -24q-67 0 -115 6q7 -31 6 -80v-69q-83 59 -143 85q-23 -41 -59 -67q120 -33 218 -101q-45 -33 -95 -52l49 -50l86 64q41 -36 73 -97h-115q-55 0 -87 8v-74q30 9 89 8h89q79 0 113 -2q-1 3 -3 10q-20 70 -48 111q23 6 85 6q61 0 85 -4
l-79 -117l71 -28q10 34 38 78q64 -33 125 -82zM603 437v40q-35 -9 -101 -6q-82 0 -119 4v-28q-24 32 -77 71q34 8 107 8h196q34 0 74 -8q-44 -36 -80 -81zM323 582v71h300h40v-71h-340zM595 709h-212q36 50 54 99h111q33 -57 47 -99z" />
</svg>
