<?xml version="1.0" standalone="no"?>
<!DOCTYPE svg PUBLIC "-//W3C//DTD SVG 1.1//EN" "http://www.w3.org/Graphics/SVG/1.1/DTD/svg11.dtd" >
<svg xmlns="http://www.w3.org/2000/svg" xmlns:xlink="http://www.w3.org/1999/xlink" version="1.1" viewBox="-10 0 1034 1024">
  <g transform="matrix(1 0 0 -1 0 820)">
   <path fill="currentColor"
d="M80 517q9 -6 14 -10q12 10 45 51q27 33 47 61q13 19 28 39h60q64 -57 82 -100q18 12 40 22q-12 18 -59 73l-5 5q120 0 136 -2q15 0 32 -5v48q-19 -6 -66 -6h-198q27 42 51 63q-27 9 -55 22q-18 -42 -35 -71q-57 -93 -90 -122q-34 -33 -61 -47q12 -6 34 -21zM337 362v-89
q0 -34 -20 -48q15 -22 25 -50q15 15 35 27l68 41l61 36q0 10 5 55q-3 -1 -8 -8q-18 -15 -42 -31q-30 -18 -86 -47v114l116 -3q6 0 11 -3v47q-21 -4 -65 -5h-116q3 12 7 22q3 22 8 45l6 37l89 -1q21 0 36 -5v47q-21 -4 -67 -5l-214 3q-3 1 -5 2v-47q19 4 33 5l89 1l-10 -65
q-3 -18 -11 -39h-104q6 30 32 62q-37 7 -53 16q-6 -46 -29 -120q48 6 73 6h65q-28 -67 -101 -124q-52 -36 -114 -49q24 -24 39 -43q150 72 221 216h26zM242 173l6 -66l-1 -248q-3 -9 -3 -19q-1 -3 -1 -6h46q-3 24 -5 47h475q0 -21 -4 -42h46q-3 7 -4 36l1 251q0 12 5 47
q-33 -1 -65 -5l-449 1q-15 3 -47 4zM284 39v93h475v-93h-475zM284 -84v88h475v-88h-475zM673 662q16 -15 45 -51q27 -36 35 -55q21 21 40 32q-24 30 -63 74h149q18 0 51 -3q9 0 15 -4v48q-19 -4 -66 -5h-256q30 48 59 67q-22 6 -35 12q-9 3 -22 10q-28 -60 -66 -116
q-49 -70 -101 -101l25 -8l28 -16q55 64 88 116h74zM759 372v-119q0 -49 98 -50q63 0 91 36q10 15 30 60q-12 4 -43 23q-3 -22 -6 -34q-10 -31 -27 -39q-18 -9 -46 -9q-21 0 -40 5q-18 7 -19 32v95q96 0 114 -2q12 0 32 -5v47q-27 -6 -66 -6h-141l12 77q3 15 4 27
q105 0 126 -2q7 0 24 -4v47q-21 -4 -66 -5l-234 1q-28 0 -37 3q-1 1 -2 1v-47q7 3 26 4l79 2h43q-1 -25 -5 -48q-3 -24 -12 -56h-105l6 15q12 36 28 48q-33 4 -54 12q-6 -48 -20 -88q-4 -10 -10 -28q63 6 79 7h61q-13 -43 -70 -93q-13 -12 -56 -34q-42 -18 -65 -21
q30 -27 41 -41q144 69 194 189h36z" />
  </g>

</svg>
