<?xml version="1.0" standalone="no"?>
<!DOCTYPE svg PUBLIC "-//W3C//DTD SVG 1.1//EN" "http://www.w3.org/Graphics/SVG/1.1/DTD/svg11.dtd" >
<svg xmlns="http://www.w3.org/2000/svg" xmlns:xlink="http://www.w3.org/1999/xlink" version="1.1" viewBox="-10 0 1010 1000">
   <path fill="currentColor"
d="M617 -23q75 12 105 23q0 2 -7 7q-31 19 -58 63h129q90 0 125 -10v79q-40 -8 -125 -8h-22q1 2 5 9q19 38 31 65l-84 16q-9 -56 -29 -90h-74q-44 65 -67 92q-32 -24 -80 -34q87 -63 151 -212zM236 -12q89 17 101 28q-3 3 -11 10q-23 20 -50 50h123q76 1 107 -6v73
q-29 -8 -109 -8h-36q2 3 7 11q20 28 27 45l-87 10q-5 -36 -26 -66h-46q-57 76 -97 113q-29 -26 -81 -37q113 -68 178 -223zM579 197q86 2 98 14q1 2 -4 7q-16 18 -16 46h89q56 0 97 -10v74q-34 -6 -97 -6h-89v63h101q112 -1 161 -8v72q-30 -4 -163 -4h-228v47h153
q75 0 127 -7q-4 32 -4 99v63q0 27 7 106q2 12 2 17q-15 -4 -75 -5q-29 0 -38 -1h-410q-49 1 -102 6q6 -33 6 -123v-71q-1 -58 -6 -89q21 5 114 5h154v-47h-269q-95 1 -124 6v-74q19 5 124 8h144v-63h-81q-28 0 -96 5q-6 1 -9 1v-74q14 3 85 8q14 1 22 2h79q0 -36 -6 -59
q3 0 10 1q85 7 82 11q0 3 -4 8q-11 13 -10 39h182q-3 -49 -6 -67zM587 322h-186v63h186v-63zM726 552h-198v50h198v-50zM270 552v50h186v-50h-186zM528 651v54h200v-54h-200zM270 651v54h186v-54h-186zM460 828q-6 6 -26 10q-27 5 -51 12t-114 36q-91 31 -120 39
q-29 -43 -68 -71q156 -31 300 -84q64 38 79 58zM611 768q156 39 284 82l-58 77q-96 -49 -275 -97z" />
</svg>
