<?xml version="1.0" standalone="no"?>
<!DOCTYPE svg PUBLIC "-//W3C//DTD SVG 1.1//EN" "http://www.w3.org/Graphics/SVG/1.1/DTD/svg11.dtd" >
<svg xmlns="http://www.w3.org/2000/svg" xmlns:xlink="http://www.w3.org/1999/xlink" version="1.1" viewBox="-10 0 1034 1024">
  <g transform="matrix(1 0 0 -1 0 820)">
   <path fill="currentColor"
d="M208 486l-61 4q-3 0 -5 1v-47q1 0 38 5l216 1q-28 -43 -47 -64q-21 -24 -68 -66q-45 51 -47 55l-17 21q-6 6 -11 12q-15 -13 -31 -25q39 -42 75 -85q-31 -22 -55 -37l-36 -20q-60 -27 -99 -29q30 -25 42 -44q121 63 183 109q99 78 162 183l20 31q-31 -1 -63 -5h-196z
M691 312q-10 -1 -22 -4l-323 1q-6 0 -15 3v-47q12 6 52 6l273 -1q21 0 35 -5v47zM164 -110l-61 4q-3 0 -5 1v-47q1 0 38 5l736 1q39 0 57 -4q1 0 5 -2v47q-9 0 -53 -5q-4 1 -9 0h-234q24 51 41 69q16 18 43 26q-24 13 -53 36q-9 -24 -29 -58q-21 -36 -46 -73h-430zM314 -5
q39 -36 78 -102q18 12 28 21l7 5q-6 10 -16 22q-42 54 -63 79q-12 -12 -34 -25zM727 23q28 0 59 -5q-4 48 -5 96q0 43 2 56q0 19 3 40l-61 -6l-443 1q-39 4 -54 5q1 -33 5 -66q0 -64 -2 -93q-3 -3 -3 -33q31 3 64 5h435zM271 59v110h470v-110h-470zM664 446q30 30 41 38
q10 9 35 17q-25 18 -46 40q-18 -30 -32 -47q-16 -21 -44 -46q-30 36 -38 79q-30 -19 -44 -27q60 -93 139 -158q102 -85 252 -140q18 25 38 48q-43 1 -97 20q-57 21 -117 59q34 39 59 60q22 18 43 24q-22 18 -44 41q-15 -24 -32 -44q-19 -24 -54 -59q-39 28 -81 74
q10 10 22 21zM290 621q27 -28 47 -53q18 -25 37 -57q4 6 9 11q12 10 23 18l-33 41q-18 19 -33 40q138 0 160 -3l10 -2v46l-63 -5h-189l15 24q24 36 34 45q6 7 30 20q-33 13 -60 29q-12 -43 -56 -106q-27 -36 -57 -70q-31 -36 -44 -44q-39 -33 -64 -38q27 -10 38 -19
q3 -1 13 -9q30 27 53 51q27 27 74 81h56zM583 599q6 7 19 26h100q60 -66 77 -115q12 12 19 15l18 12q-15 21 -45 60q-7 9 -9 12q-3 6 -11 16l152 -1q21 0 35 -5v47q-10 -1 -22 -4l-288 -1l9 15q25 45 38 57q10 12 34 23q-27 9 -61 27q-30 -76 -83 -144q-39 -48 -50 -58
q-16 -13 -45 -30q27 -6 57 -21q51 64 56 69v0z" />
  </g>

</svg>
