<?xml version="1.0" standalone="no"?>
<!DOCTYPE svg PUBLIC "-//W3C//DTD SVG 1.1//EN" "http://www.w3.org/Graphics/SVG/1.1/DTD/svg11.dtd" >
<svg xmlns="http://www.w3.org/2000/svg" xmlns:xlink="http://www.w3.org/1999/xlink" version="1.1" viewBox="-10 0 1034 1024">
  <g transform="matrix(1 0 0 -1 0 820)">
   <path fill="currentColor"
d="M84 -97q9 -9 14 -12q58 43 101 85q43 46 95 112v-191q0 -28 -2 -53q0 -6 -3 -14h50q-3 9 -6 64v189q52 -49 85 -83q25 -27 45 -53q13 15 34 36l-60 59l-101 93q73 0 88 -2q15 0 44 -3q-4 54 -5 81q0 78 2 91q0 18 3 38q-34 -1 -70 -5h-65v79q126 0 143 -2q9 0 19 -2l9 -3
v48q-21 -6 -66 -6h-105v42q0 18 4 32q3 16 13 29h-61q1 -6 3 -12q1 -15 2 -49v-42l-170 3l-13 3v-48q3 0 7 2q7 3 34 4l142 1v-79h-67q-7 0 -32 3q-13 0 -33 2q6 -66 6 -87q0 -55 -2 -84q-1 -3 -1 -7q0 -10 -3 -32q15 3 55 4l59 1q-40 -70 -112 -137q-55 -48 -114 -71
q13 -6 25 -16q4 -3 9 -8zM205 173v126h89v-126h-89zM333 171v128h91v-128h-91zM102 478q6 7 12 13q54 60 67 76l54 72h76q22 -21 34 -36q39 -49 48 -58q3 -6 9 -15q15 15 37 27q-12 15 -73 82q111 0 132 -2q10 0 23 -4v46q-15 -3 -65 -4h-200q21 37 35 52q7 12 25 24
q-24 7 -58 23q-3 -15 -27 -58q-21 -37 -45 -74q-63 -90 -135 -134q19 -6 36 -19q7 -4 15 -11zM764 235q-34 3 -60 8q0 -30 3 -61l-7 -98q-9 -55 -34 -98q-28 -45 -91 -79q-48 -22 -108 -31q16 -21 35 -49q124 45 190 123q27 39 40 82q12 42 15 129q1 51 17 74zM718 643
q22 -22 39 -47l38 -60q9 9 21 16q7 4 16 9q-10 16 -59 82l180 -4q3 0 6 -2v47q-19 -4 -66 -5h-262q9 22 25 44q16 25 36 42q-9 3 -20 6q-21 6 -28 11q-3 0 -12 5q-6 -39 -82 -157q-39 -54 -80 -79q28 -10 51 -31q21 24 40 52q21 28 49 71h108zM497 339q10 -4 28 -17l49 58
l27 36q16 21 33 43h161q-7 -15 -16 -28l-36 -63q-9 -15 -20 -29h-100q-10 0 -36 3q-15 0 -31 2q1 -33 5 -66l-1 -224q-1 -7 -2 -35q-1 -3 -2 -13h47q-4 39 -5 66v231h268l-1 -226q-3 -19 -4 -50h48q-3 33 -5 67l1 203q0 18 4 47q-33 -1 -68 -5h-69l43 77q36 57 52 84
q-40 -1 -82 -5h-126q4 9 10 17q15 27 37 40q-24 9 -56 28q-6 -28 -22 -55q-46 -75 -86 -120q-39 -39 -68 -55q10 -4 23 -11zM748 -22q130 -75 197 -144q9 21 27 41l-67 49l-128 88q-6 -12 -23 -29q-3 -1 -6 -5v0z" />
  </g>

</svg>
