<?xml version="1.0" standalone="no"?>
<!DOCTYPE svg PUBLIC "-//W3C//DTD SVG 1.1//EN" "http://www.w3.org/Graphics/SVG/1.1/DTD/svg11.dtd" >
<svg xmlns="http://www.w3.org/2000/svg" xmlns:xlink="http://www.w3.org/1999/xlink" version="1.1" viewBox="-10 0 1034 1024">
  <g transform="matrix(1 0 0 -1 0 820)">
   <path fill="currentColor"
d="M282 630q39 -45 74 -111q24 19 34 29l-58 82q129 0 149 -2q12 0 24 -4v47q-19 -4 -66 -5h-214q33 61 64 82q-36 15 -58 28q-18 -57 -76 -146q-61 -90 -112 -120q24 -9 51 -27q21 24 50 64l58 83h80zM173 426q-87 3 -97 5v-46q3 0 6 1q6 3 28 4l63 1v-310h-56q-18 1 -35 2
q-21 3 -20 2l-11 2v-47q1 1 5 2q1 1 5 2l56 3l375 -3q9 0 14 -4q0 7 1 20q0 24 -10 26q-33 -1 -68 -5v310q30 0 62 -3q6 0 11 -3v46q-43 -4 -73 -5q0 34 3 47q3 18 14 32h-60q0 -3 1 -6l4 -73h-181v27q0 10 3 26t16 34h-61q0 -10 1 -14q3 -55 4 -60v-13zM210 81v87h181v-87
h-181zM210 202v77h181v-77h-181zM391 314h-181v77h181v-77zM256 7q-7 4 -13 8q-9 6 -23 19q-4 -15 -60 -93q-51 -61 -96 -86q25 -12 44 -30q31 33 53 59q19 22 42 53q24 33 36 41q6 7 29 19q-6 6 -12 10zM445 -68q-18 18 -47 50q-27 30 -47 49q-15 -19 -31 -33
q58 -46 96 -102q16 24 29 36zM547 215q0 -64 -13 -132q-21 -93 -61 -155q-19 -31 -61 -66q27 -9 53 -24q27 40 47 75q16 33 32 70q15 45 28 95q7 48 13 114h245q-6 -33 -30 -83q-18 -39 -47 -79q-24 25 -53 68q-28 40 -38 69q-24 -13 -44 -21q16 -25 38 -56l70 -92
q-33 -34 -84 -67q-60 -37 -123 -51q21 -13 34 -30q4 -6 11 -12q75 33 189 131q57 -52 87 -71q51 -30 101 -55l8 15q1 1 3 5q7 9 22 29q-54 12 -97 36q-55 33 -94 74q54 78 100 230l-68 -6h-87v155h136q-25 -54 -51 -87l23 -3q9 0 27 -7q31 69 38 78q15 30 33 59
q-76 -4 -93 -5h-113v70q0 18 4 32q1 12 14 29h-61q1 -30 5 -61v-70l-100 1q-15 3 -48 4q1 -31 5 -65v-141zM585 226v155h105v-155h-105zM522 506q15 24 33 48q37 55 51 79h108q15 -18 44 -56l37 -59l2 3l2 1q3 6 17 16q6 3 13 10q-3 6 -16 20q-21 27 -30 42q-10 13 -20 23
l183 -4q3 0 6 -2v47q-21 -4 -66 -5h-263q28 60 32 63q6 12 23 22q-19 6 -39 19q-7 4 -16 12q-31 -115 -96 -200q-27 -36 -59 -58z" />
  </g>

</svg>
