<?xml version="1.0" standalone="no"?>
<!DOCTYPE svg PUBLIC "-//W3C//DTD SVG 1.1//EN" "http://www.w3.org/Graphics/SVG/1.1/DTD/svg11.dtd" >
<svg xmlns="http://www.w3.org/2000/svg" xmlns:xlink="http://www.w3.org/1999/xlink" version="1.1" viewBox="-10 0 1010 1000">
   <path fill="currentColor"
d="M220 6q102 5 101 10q-20 28 -21 90v218h25q68 -1 110 -8v83q-45 -10 -108 -10h-27v377q2 82 10 125h-90q8 -36 8 -127v-258q-57 131 -139 232q-26 -55 -53 -81q108 -75 182 -268h-49q-75 1 -111 8v-81q40 7 109 8h61v-236q0 -30 -7 -78q-1 -3 -1 -4zM643 20q32 4 80 7
q28 1 27 3q-22 55 -22 97v611h89v-462q0 -47 -7 -83q9 1 25 2q84 4 76 8q-17 34 -16 83v460q1 83 10 127h-93q7 -42 5 -73h-248q-60 1 -95 10q8 -32 8 -95v-421q-1 -56 -8 -95q30 -2 63 -1q35 1 36 5q-1 2 -2 6q-13 37 -13 99v430h93v-632q0 -51 -8 -86zM385 96q88 31 87 33
q-2 5 -8 11q-14 11 -22 29l-15 36q-20 48 -36 81q-29 -19 -60 -22q33 -59 54 -168zM147 98q21 82 45 164l-67 14q-21 -106 -48 -164zM363 465q51 75 83 147l-65 29q-28 -83 -73 -156z" />
</svg>
