<?xml version="1.0" standalone="no"?>
<!DOCTYPE svg PUBLIC "-//W3C//DTD SVG 1.1//EN" "http://www.w3.org/Graphics/SVG/1.1/DTD/svg11.dtd" >
<svg xmlns="http://www.w3.org/2000/svg" xmlns:xlink="http://www.w3.org/1999/xlink" version="1.1" viewBox="-10 0 1034 1024">
  <g transform="matrix(1 0 0 -1 0 820)">
   <path fill="currentColor"
d="M145 175q-33 3 -53 3q-6 0 -13 3v-45q45 4 66 5h322q-67 -159 -275 -220q-37 -12 -66 -18q-24 -3 -55 -5q27 -16 46 -48q153 42 236 102q93 67 155 177q85 -112 218 -179q48 -22 90 -37q49 -16 108 -33q19 37 45 53q-91 3 -194 42q-145 60 -223 166q357 0 382 -3l2 -1
q3 0 8 -1v45q-10 -3 -25 -4q-19 -1 -43 -2h-353q1 7 5 15q12 36 34 51q-42 7 -67 16q0 -15 -4 -38q-3 -18 -12 -44h-334zM489 359q0 -42 -5 -73h51q-1 4 -1 9q0 6 -3 12l-2 128q87 -36 159 -73q72 -39 161 -95q12 24 28 39q-13 6 -130 70q-114 55 -218 101v4l371 -3
q1 0 4 -1h5v44q-33 -1 -68 -5h-312v179q0 39 14 64h-59q0 -9 2 -13q3 -51 3 -98v-132l-342 1q-24 3 -22 2l-13 2v-44l53 4h291q-66 -60 -146 -107q-66 -39 -111 -58q-46 -18 -105 -30q30 -18 47 -39q70 24 173 85q79 45 175 127v-100zM260 657l85 -65q27 -21 53 -49
q9 21 31 37q-15 15 -133 106q-18 13 -29 20q-15 -22 -28 -33q10 -7 21 -16zM729 705q-66 -84 -137 -128q13 -6 34 -26l2 -1q63 55 103 96l27 23q12 10 41 22q-33 19 -51 37q-10 -10 -19 -23v0z" />
  </g>

</svg>
