<?xml version="1.0" standalone="no"?>
<!DOCTYPE svg PUBLIC "-//W3C//DTD SVG 1.1//EN" "http://www.w3.org/Graphics/SVG/1.1/DTD/svg11.dtd" >
<svg xmlns="http://www.w3.org/2000/svg" xmlns:xlink="http://www.w3.org/1999/xlink" version="1.1" viewBox="-10 0 1034 1024">
  <g transform="matrix(1 0 0 -1 0 820)">
   <path fill="currentColor"
d="M587 573q16 -21 34 -35q6 -7 18 -18q48 -39 96 -72q48 -28 91 -50q48 -21 120 -47q12 24 34 52q-70 3 -144 35q-133 63 -211 150q-33 36 -60 64q-21 22 -43 42q-15 15 -43 35l-61 43q-9 -18 -28 -45q45 -13 81 -44q-30 -51 -91 -107q-91 -84 -231 -152q-36 -18 -58 -25
q-16 -4 -50 -7q22 -22 41 -49l148 78q3 3 7 4q51 30 99 66q54 43 88 76q27 27 79 92q7 -9 17 -17q13 -12 67 -69zM486 -104q0 -36 -5 -64h49q-3 9 -4 27q0 18 -2 37v283q57 -75 91 -106q39 -37 100 -79q63 -43 212 -112q9 12 14 21q4 7 11 15q4 6 11 15q-36 3 -69 14
q-64 24 -132 64q-123 78 -188 168l330 -1q21 0 35 -5v47q-10 -1 -22 -4l-393 -1v190q0 39 15 67h-58q0 -1 1 -5q0 -1 1 -3q0 -27 3 -56v-193l-382 2q-6 0 -15 3v-47q12 6 52 6h303q-114 -129 -225 -199q-96 -57 -155 -61q10 -12 23 -22q6 -4 20 -24q139 72 207 125
q84 67 172 169v-271zM385 294l-69 73q-21 21 -26 27q-6 6 -12 11q-15 -16 -31 -29q27 -24 63 -61q36 -39 54 -68q18 18 36 30q-7 9 -15 17zM718 329q6 6 12 15q9 12 32 25q3 3 9 6q-18 12 -46 39q-24 -45 -53 -83q-36 -43 -68 -69q22 -9 41 -26q12 13 23 29q24 33 50 64v0z
" />
  </g>

</svg>
