<?xml version="1.0" standalone="no"?>
<!DOCTYPE svg PUBLIC "-//W3C//DTD SVG 1.1//EN" "http://www.w3.org/Graphics/SVG/1.1/DTD/svg11.dtd" >
<svg xmlns="http://www.w3.org/2000/svg" xmlns:xlink="http://www.w3.org/1999/xlink" version="1.1" viewBox="-10 0 1010 1000">
   <path fill="currentColor"
d="M220 14q48 0 97 12q1 2 -4 9q-13 23 -13 47v234q102 -2 121 -8v81q-21 -4 -121 -6v342q0 144 6 158h-88q5 -15 6 -46q2 -31 2 -114v-250q-37 163 -129 309q-6 -8 -19 -27q-24 -37 -38 -50q102 -99 164 -322h-19q-78 0 -118 6v-81q34 8 123 8h36v-210q0 -64 -6 -92z
M383 78q76 22 91 35q0 3 -8 10q-17 14 -22 28q-28 81 -49 135q-20 -13 -68 -22q44 -96 56 -186zM151 92q22 91 32 176l-76 14q-7 -94 -30 -172zM550 38q94 10 111 22q0 2 -4 7q-11 10 -16 25q-56 155 -97 256q11 4 38 5q13 1 36 1h67q64 0 87 -1q27 -2 38 -7
q-75 -116 -120 -312q95 -13 94 -6q1 3 -3 12q-6 14 -5 26q37 216 208 309q-49 46 -69 86q-8 -6 -35 -38l-15 -18q-9 68 -10 193q0 128 -5 171q-6 51 -23 67q-44 41 -140 47q-13 -71 -50 -107q36 11 73 8q35 -3 48 -18q17 31 20 -343h-127q4 350 -220 466q-36 -36 -92 -63
q133 -46 183 -134q50 -79 51 -267q-36 0 -47 8v-54q-24 45 -66 108q-33 -31 -79 -50q154 -147 169 -399zM371 447q25 37 64 137l-72 33q-17 -72 -53 -140z" />
</svg>
