<?xml version="1.0" standalone="no"?>
<!DOCTYPE svg PUBLIC "-//W3C//DTD SVG 1.1//EN" "http://www.w3.org/Graphics/SVG/1.1/DTD/svg11.dtd" >
<svg xmlns="http://www.w3.org/2000/svg" xmlns:xlink="http://www.w3.org/1999/xlink" version="1.1" viewBox="-10 0 1010 1000">
   <path fill="currentColor"
d="M206 6q12 2 34 5q78 12 70 15q-16 17 -21 34q-5 16 -5 53v223h39q71 -1 110 -8v79q-57 -9 -106 -8h-43v349q1 96 10 139h-90q8 -43 8 -139v-224q-51 128 -127 228q-21 -58 -49 -83q104 -100 170 -270h-27q-55 1 -121 8v-79q52 7 119 8h35v-238q-1 -53 -6 -92zM889 60
q-6 55 -6 83v282q1 73 8 129h-95q6 -18 8 -60h-260v209q-1 68 15 81q10 16 76 14h93q110 1 131 -32q15 -23 22 -101q53 40 93 56q-14 66 -47 115q-28 43 -165 41h-175q-88 2 -102 -23q-11 -13 -14 -40q-3 -22 -3 -89v-584q0 -49 -8 -83q52 8 92 8h248q50 0 89 -6zM129 88
q27 71 54 178l-76 20q-9 -79 -47 -174zM371 88q69 18 81 29q-1 6 -9 23q-26 60 -58 148q-30 -12 -72 -20q41 -86 58 -180zM544 135v292h97v-292h-97zM808 135h-100v292h100v-292zM355 453q27 33 93 139l-73 39q-30 -74 -79 -141z" />
</svg>
