<?xml version="1.0" standalone="no"?>
<!DOCTYPE svg PUBLIC "-//W3C//DTD SVG 1.1//EN" "http://www.w3.org/Graphics/SVG/1.1/DTD/svg11.dtd" >
<svg xmlns="http://www.w3.org/2000/svg" xmlns:xlink="http://www.w3.org/1999/xlink" version="1.1" viewBox="-10 0 1034 1024">
  <g transform="matrix(1 0 0 -1 0 820)">
   <path fill="currentColor"
d="M206 225l32 71q6 13 14 29l-3 -469v-3q-1 -3 -2 -15h48q-3 33 -5 66v365l51 -64l43 -64q21 21 34 31q-4 4 -41 50q-15 13 -28 33l-59 77v61l115 -1q3 0 36 -4v46q-33 -1 -65 -5h-86v276q0 18 2 35q0 12 11 30h-56q4 -24 5 -65v-276l-164 5v-46q3 1 7 1q15 3 57 4h82
q-15 -61 -74 -177q-51 -94 -101 -135q34 -9 53 -20q21 33 50 86zM89 635q18 -27 43 -75q19 -39 34 -71q12 9 27 16q4 1 8 3l-39 75l-36 74q-16 -12 -37 -22zM411 664q-9 3 -17 7q-25 -84 -63 -156q18 -3 35 -15q6 12 12 27q13 36 29 72q13 30 39 49l-3 1l-2 1q-1 0 -4 1
l-2 1q-1 0 -4 1q-10 6 -20 11zM477 -21q0 -33 9 -54q15 -30 61 -43q52 -15 166 -15q78 0 124 5q66 9 90 65q7 19 14 42q6 24 13 66q-25 7 -50 24q0 -40 -3 -65l-7 -37q-12 -46 -59 -55q-33 -6 -126 -7q-132 0 -172 26q-22 12 -23 56v312l356 -1l48 -4q-6 51 -5 98l1 259
l4 51q-66 -6 -88 -6l-302 1q-30 4 -56 5q1 -30 5 -63v-660zM514 335v326h159v-326h-159zM711 335v326h164v-326h-164z" />
  </g>

</svg>
