<?xml version="1.0" standalone="no"?>
<!DOCTYPE svg PUBLIC "-//W3C//DTD SVG 1.1//EN" "http://www.w3.org/Graphics/SVG/1.1/DTD/svg11.dtd" >
<svg xmlns="http://www.w3.org/2000/svg" xmlns:xlink="http://www.w3.org/1999/xlink" version="1.1" viewBox="-10 0 1034 1024">
  <g transform="matrix(1 0 0 -1 0 820)">
   <path fill="currentColor"
d="M514 -87l-125 3q-4 1 -7 3h-6v-47q6 1 67 6l496 -1q21 0 42 -5v47q-25 -6 -66 -6h-41l1 754l4 45q-34 -1 -69 -5l-254 1q-7 1 -15 2q-15 0 -32 2q4 -60 5 -64v-735zM551 -87v252h285v-252h-285zM551 199v216h285v-216h-285zM551 450v222h285v-222h-285zM48 648
q16 -22 48 -77l29 -55q6 -12 16 -35q30 19 34 22q-75 138 -93 166q-13 -9 -34 -21zM335 484q70 136 73 138q7 13 25 24q-30 12 -53 24q-4 -15 -28 -67l-29 -61q-9 -18 -22 -37q16 -10 34 -21zM229 -104q-3 -57 -4 -60q-1 0 -1 -2q0 -3 -1 -5h48q0 1 -5 52v436q36 -33 92 -92
l44 -54q10 15 33 37l-166 164q-1 3 -3 4v24h90q24 0 52 -3q1 0 14 -2v46q-27 -4 -66 -5h-90v263q0 36 22 69h-65q3 -12 3 -15l3 -54v-263q-144 0 -167 2q-6 3 -18 3v-46q12 3 25 3q21 0 41 2h113q-43 -129 -128 -263q-31 -45 -64 -74q18 -6 26 -10q6 -3 9 -4q4 -3 13 -10
q48 72 80 129l70 142v-414z" />
  </g>

</svg>
