<?xml version="1.0" standalone="no"?>
<!DOCTYPE svg PUBLIC "-//W3C//DTD SVG 1.1//EN" "http://www.w3.org/Graphics/SVG/1.1/DTD/svg11.dtd" >
<svg xmlns="http://www.w3.org/2000/svg" xmlns:xlink="http://www.w3.org/1999/xlink" version="1.1" viewBox="-10 0 1034 1024">
  <g transform="matrix(1 0 0 -1 0 820)">
   <path fill="currentColor"
d="M215 517l-66 134q-3 9 -8 20q-12 -9 -26 -16l-16 -6q30 -42 79 -152q18 10 37 20zM416 671l-46 -112q-3 -1 -3 -5q-7 -16 -18 -31q4 0 37 -19q39 85 51 104q10 18 33 32q-9 3 -54 31zM497 -66q-3 -33 -3 -53q0 -6 -4 -14h50q-3 19 -4 36l-1 54h340q0 -46 -5 -87h49
q-1 10 -6 62l1 613q1 22 5 45q-24 -1 -33 -2q-25 -3 -36 -3h-187q12 43 20 77l14 47q9 27 27 48q-27 6 -62 18q0 -3 -11 -79l-30 -111q-63 0 -90 2q-9 3 -41 3q6 -42 7 -64v-592zM535 -8v266h340v-266h-340zM535 293v256h340v-256h-340zM111 40q78 115 149 281
q0 -459 -3 -477q-3 -3 -3 -10h48q-1 3 -1 6q-1 3 -4 56v405l25 -28l60 -66l33 -45q15 18 38 34q-24 27 -64 68q-36 36 -92 96v52q108 0 130 -3q4 0 10 -3v47q-24 -6 -65 -6h-75v246q0 33 21 70h-64q4 -19 5 -42l1 -274l-155 3q-4 1 -7 2t-6 1v-47l44 6h115q-18 -57 -39 -104
q-21 -48 -53 -110q-45 -90 -100 -133q16 -4 19 -6q18 -9 33 -19v0z" />
  </g>

</svg>
