<?xml version="1.0" standalone="no"?>
<!DOCTYPE svg PUBLIC "-//W3C//DTD SVG 1.1//EN" "http://www.w3.org/Graphics/SVG/1.1/DTD/svg11.dtd" >
<svg xmlns="http://www.w3.org/2000/svg" xmlns:xlink="http://www.w3.org/1999/xlink" version="1.1" viewBox="-10 0 1034 1024">
  <g transform="matrix(1 0 0 -1 0 820)">
   <path fill="currentColor"
d="M198 518q-6 10 -12 19l-40 62q-4 9 -11 19q-19 24 -32 45q-18 -15 -35 -24q66 -91 90 -144q19 12 40 23zM309 519q1 0 4 -2q9 -4 18 -10q30 48 31 54q28 51 38 62q7 12 32 31q-28 13 -49 33q-1 -3 -3 -8l-6 -15q-7 -12 -21 -41q-24 -46 -59 -96q7 -3 15 -8zM465 -61
l-67 5v-45q39 4 45 5l487 -1q15 0 31 -4v45q-30 -4 -66 -5h-172l59 177l69 217q3 6 5 14q18 48 38 66q-33 10 -65 29q-1 -21 -9 -51l-26 -100l-64 -213q-27 -84 -50 -139h-215zM448 518q19 4 50 5l412 -1q15 0 31 -4v46q-27 -4 -65 -5l-414 3q-6 1 -14 2v-46zM596 254
q-15 54 -35 108q-6 18 -11 39q-18 -6 -23 -9q-6 -3 -21 -7q27 -61 50 -140q36 -118 45 -176q16 7 45 14q-12 39 -25 88zM746 609l-128 158q-12 -10 -38 -30q66 -55 128 -156q9 12 27 21q4 4 11 7zM235 -94q-3 -51 -4 -61q0 -3 -2 -5h48q0 1 -1 5q-1 3 -4 57v404
q9 -13 17 -21l55 -70q15 -21 31 -50q0 1 13 14q21 13 25 18q-36 43 -66 82q-69 82 -75 89v38q117 0 127 -3q1 0 6 -2v46q-27 -4 -65 -5h-68v258q0 36 22 69h-65q6 -72 6 -103v-224l-145 1q-21 3 -19 2q-6 1 -13 2v-46q39 4 45 5h119q-10 -39 -26 -77q-16 -42 -42 -98
q-36 -78 -55 -108q-21 -33 -48 -54q12 -3 18 -6q18 -9 33 -15q21 30 41 70q9 16 27 55q24 51 39 84q12 30 26 67v-418z" />
  </g>

</svg>
