<?xml version="1.0" standalone="no"?>
<!DOCTYPE svg PUBLIC "-//W3C//DTD SVG 1.1//EN" "http://www.w3.org/Graphics/SVG/1.1/DTD/svg11.dtd" >
<svg xmlns="http://www.w3.org/2000/svg" xmlns:xlink="http://www.w3.org/1999/xlink" version="1.1" viewBox="-10 0 1010 1000">
   <path fill="currentColor"
d="M454 -6q54 0 96 6q-12 16 -16 46q-4 29 -2 97h216q4 -68 -4 -113q85 -2 97 10q-11 14 -14 30q-2 13 -2 55q-1 53 8 86q-60 -10 -95 -10h-204v131h250q0 -22 -1 -58q-1 -22 -1 -30q4 0 12 1q86 3 79 5q-16 29 -16 74q0 33 8 75q-36 -6 -91 -6h-534q-52 0 -97 10
q4 -29 4 -77q0 -4 -1 -13q-1 -17 -7 -61q12 1 33 2q66 4 60 6q0 2 -4 12q-15 34 -14 60h250v-131h-214q-40 0 -87 8q6 -29 6 -86q-1 -38 -10 -77q85 1 95 6q-13 20 -12 83v8h222q-4 -109 -10 -149zM452 427h27q77 -2 73 8q1 5 -3 18q-17 46 -17 117h272q9 -1 28 -1
q52 -2 79 -7v79q-37 -8 -101 -8h-207q105 124 328 145q-35 32 -62 89q-210 -56 -337 -238v157q0 52 8 117h-88q7 -35 8 -119v-151q-122 165 -341 252q-25 -51 -71 -81q212 -34 337 -171h-202q-72 1 -106 8v-79q37 7 104 8h279q2 -76 -8 -143zM270 433q68 64 91 87l-61 44
q-53 -56 -88 -85zM623 536q63 -54 85 -99q77 23 86 42q-4 7 -15 12q-38 17 -87 71z" />
</svg>
