<?xml version="1.0" standalone="no"?>
<!DOCTYPE svg PUBLIC "-//W3C//DTD SVG 1.1//EN" "http://www.w3.org/Graphics/SVG/1.1/DTD/svg11.dtd" >
<svg xmlns="http://www.w3.org/2000/svg" xmlns:xlink="http://www.w3.org/1999/xlink" version="1.1" viewBox="-10 0 1034 1024">
  <g transform="matrix(1 0 0 -1 0 820)">
   <path fill="currentColor"
d="M480 355l5 -101v-57l-400 1q-18 3 -21 3q-3 1 -6 1v-46q1 0 64 5h321q-51 -54 -92 -89q-31 -27 -91 -66q-54 -33 -91 -50q-34 -13 -85 -25l43 -46q198 87 358 261l-1 -261l-4 -40h49q-3 12 -6 60v233q70 -82 161 -136q61 -34 114 -60q54 -22 113 -43q13 24 37 52
q-111 15 -214 69q-118 64 -177 141l350 -1q6 0 24 -4v46q-27 -4 -65 -5h-190q12 18 44 56q30 36 40 45q7 7 30 19q-3 1 -49 35q-19 -30 -46 -63q-24 -31 -38 -48q-10 -12 -23 -23q13 -9 25 -21h-136v95q0 9 3 24q3 21 13 39h-59zM196 547l30 -18q12 21 24 33q-27 18 -115 65
q-13 7 -27 14q-1 -4 -21 -34q-1 0 -1 -2q79 -39 110 -58zM123 335q4 -6 9 -14q27 30 34 34q30 27 54 45q9 7 109 78q-7 31 -10 59q-16 -21 -37 -40q-24 -21 -68 -53q-42 -30 -70 -48q-24 -13 -50 -24q12 -12 29 -37zM194 750q-6 -12 -17 -23l84 -53l53 -41q1 1 3 4q3 3 5 7
q12 12 21 23q-30 22 -72 51l-43 27q-12 7 -25 18q-4 -6 -9 -13zM365 223q4 7 10 13q0 3 4 4q1 3 7 8q-70 54 -139 95l-3 -2l-1 -2q-3 -1 -4 -7l-19 -24q-1 1 -1 0q15 -7 29 -16q15 -9 43 -28q45 -30 66 -52q3 6 8 11zM477 567q3 3 6 8q10 12 26 26q-33 9 -49 23
q-21 -42 -41 -71q-37 -45 -66 -59q24 -12 42 -28q21 21 49 56q3 6 33 45zM471 707q-55 3 -60 4q-4 1 -7 1v-46q19 4 50 5h146q-19 -112 -59 -171q-49 -66 -145 -87q21 -16 40 -45q96 52 128 96q30 42 46 81q15 39 32 126h151q-4 -55 -20 -167q-4 -45 -19 -63
q-18 -19 -64 -20q-18 0 -48 4q0 -1 1 -4q6 -18 15 -31q3 -12 6 -15q54 6 97 21q25 12 36 34q9 21 17 86q9 64 15 126q4 36 11 70q-36 -1 -71 -5h-298zM940 465q7 7 24 20q-7 12 -15 22l-86 109q-24 -22 -30 -28q-1 0 -3 -2q39 -46 61 -74q18 -24 40 -56z" />
  </g>

</svg>
