<?xml version="1.0" standalone="no"?>
<!DOCTYPE svg PUBLIC "-//W3C//DTD SVG 1.1//EN" "http://www.w3.org/Graphics/SVG/1.1/DTD/svg11.dtd" >
<svg xmlns="http://www.w3.org/2000/svg" xmlns:xlink="http://www.w3.org/1999/xlink" version="1.1" viewBox="-10 0 1010 1000">
   <path fill="currentColor"
d="M702 -6l3 9q26 76 33 110l-85 14q-14 -67 -36 -113zM202 2q99 -2 108 12q0 4 -5 12q-21 30 -21 78v218h41q70 -1 92 -6v79q-53 -8 -96 -8h-37v363q0 101 8 145h-92q11 -67 12 -141v-260q-40 126 -121 258q-23 -49 -53 -85q124 -149 158 -280h-37q-65 1 -103 8v-81
q15 5 71 7q17 1 26 1h59v-199q-1 -58 -10 -121zM133 80q12 70 36 174l-66 10q-5 -81 -40 -170zM359 86q90 20 85 26q-1 2 -4 7q-24 37 -59 153q-7 -2 -20 -6q-24 -7 -40 -10q36 -100 38 -170zM923 131v82q-28 -8 -127 -8h-207q-98 1 -131 8v-82q42 7 123 8h213q70 -1 129 -8
zM536 225q88 23 95 29l-2 1q-17 12 -46 83q62 46 90 79q-36 28 -56 54q-17 -32 -57 -76q-47 102 -68 129q-23 -14 -77 -28q103 -110 121 -271zM764 233q89 21 91 37q-1 3 -5 6q-20 17 -42 76q70 46 138 103q-36 31 -57 57q-30 -39 -101 -103q-2 5 -7 15q-35 72 -49 108
q-53 -20 -83 -24q92 -110 115 -275zM349 451q15 19 52 67q25 33 36 48l-66 49q-20 -52 -79 -125zM633 538q91 0 95 8q1 4 -2 12q-10 25 -10 61h129q69 0 113 -7v83q-38 -9 -109 -10h-133v115q1 65 6 105h-89q7 -39 8 -107v-113h-111q-70 0 -115 8v-81q33 6 113 7h113
q0 -40 -8 -81z" />
</svg>
