<?xml version="1.0" standalone="no"?>
<!DOCTYPE svg PUBLIC "-//W3C//DTD SVG 1.1//EN" "http://www.w3.org/Graphics/SVG/1.1/DTD/svg11.dtd" >
<svg xmlns="http://www.w3.org/2000/svg" xmlns:xlink="http://www.w3.org/1999/xlink" version="1.1" viewBox="-10 0 1010 1000">
   <path fill="currentColor"
d="M202 -10q94 1 104 16q2 5 -6 14q-18 20 -18 50v240h30q49 0 85 -6v79q-9 -6 -85 -6h-30v354q0 144 6 156h-84q6 -9 6 -150v-260q-67 177 -125 246l-57 -68q86 -75 166 -278h-35q-69 0 -107 6v-79q38 6 107 6h51v-244q0 -61 -8 -76zM627 -13q98 0 99 13q1 4 -4 13
q-16 32 -16 79h127q60 0 96 -6v67q-41 -6 -104 -6h-119v68h96q57 0 93 -6v67q-39 -6 -97 -6h-92v68h147q63 0 103 -6v67q-40 -6 -103 -6h-319q-78 0 -121 6v-67q9 6 119 6h103v-68h-75q-63 0 -96 6v-67q31 6 88 6h83v-68h-89q-63 0 -96 6v-67q34 6 88 6h97v-44q1 -39 -8 -61
zM361 84l76 20q-33 54 -66 154l-65 -14q36 -63 55 -160zM129 90q4 13 14 44q29 86 36 110l-70 18q-11 -73 -47 -154zM462 437q29 6 101 6h225q72 0 101 -6q-6 33 -6 75v300q8 82 -137 95q-9 -39 -40 -91q106 24 106 -24v-52h-272v36q0 75 6 111h-86q8 -23 8 -143v-232
q0 -42 -6 -75zM812 498h-272v64h272v-64zM540 617v68h272v-68h-272zM294 465l43 -30q53 68 80 123l-58 42q-25 -78 -65 -135z" />
</svg>
