<?xml version="1.0" standalone="no"?>
<!DOCTYPE svg PUBLIC "-//W3C//DTD SVG 1.1//EN" "http://www.w3.org/Graphics/SVG/1.1/DTD/svg11.dtd" >
<svg xmlns="http://www.w3.org/2000/svg" xmlns:xlink="http://www.w3.org/1999/xlink" version="1.1" viewBox="-10 0 1034 1024">
  <g transform="matrix(1 0 0 -1 0 820)">
   <path fill="currentColor"
d="M143 591l-39 63q-18 -12 -34 -20q25 -36 44 -67q16 -28 37 -74l35 24q0 1 -3 5q-7 12 -40 69zM293 509q22 -10 37 -22q37 76 45 85q21 37 44 56q-30 15 -47 31q-15 -42 -38 -81q-22 -42 -41 -69zM663 503v-88l-206 1q-18 3 -25 3q-3 1 -6 1v-46q3 0 65 5l450 -1
q12 -1 24 -4v46q-27 -4 -66 -5h-198v88h122q24 0 52 -3l13 -2v45q-18 -4 -65 -5h-122v79q186 0 214 -3q4 0 10 -3v47q-27 -6 -66 -6h-158v58q0 7 3 26q3 21 16 41h-62q1 -33 5 -67v-58l-189 3q-4 1 -7 2t-6 1v-47q6 3 28 5l174 1v-79h-101q-49 0 -66 5v-45q19 4 49 5h118z
M478 -110q-4 -63 -5 -67h48q0 4 -6 60v127h335v-109q0 -18 -15 -28q-19 -7 -54 -8q-18 0 -48 4q6 -15 14 -49q96 6 124 27q16 15 17 46l1 374l4 46q-33 -1 -66 -5l-309 1q-15 3 -45 4q4 -60 5 -64v-359zM515 46v100h335v-100h-335zM515 182v91h335v-91h-335zM223 295
q4 9 9 20l-4 -493q0 -3 -2 -5h48q-3 6 -4 36l-1 449q6 -9 48 -59q7 -10 13 -16l17 -27q12 -15 16 -24q18 19 35 35q-1 3 -3 4q-4 4 -7 9q-24 30 -53 61q-1 0 -13 14q-13 15 -27 33q-12 15 -26 29v41q105 0 115 -3q1 0 6 -2v46q-27 -4 -66 -5h-55v241q0 33 22 70h-65
q3 -12 4 -27q0 -21 2 -43v-241l-139 3q-6 1 -15 2v-46q1 0 64 5h77q-21 -66 -40 -112q-18 -43 -44 -93q-48 -84 -83 -114q24 -9 52 -24q64 112 92 175z" />
  </g>

</svg>
