<?xml version="1.0" standalone="no"?>
<!DOCTYPE svg PUBLIC "-//W3C//DTD SVG 1.1//EN" "http://www.w3.org/Graphics/SVG/1.1/DTD/svg11.dtd" >
<svg xmlns="http://www.w3.org/2000/svg" xmlns:xlink="http://www.w3.org/1999/xlink" version="1.1" viewBox="-10 0 1034 1024">
  <g transform="matrix(1 0 0 -1 0 820)">
   <path fill="currentColor"
d="M100 495q18 15 36 21q-12 27 -35 74q-22 45 -40 76l-3 -2q-1 0 -25 -15q-3 0 -8 -5q9 -15 17 -27q9 -16 26 -51l22 -43q6 -13 10 -28zM259 488q7 -4 7 -5h1l26 45l34 74q3 9 15 26q7 13 22 30q-33 6 -54 13q-6 -27 -15 -49q-6 -21 -16 -40q-18 -37 -46 -81q6 -1 8 -4z
M449 539q-88 0 -101 3q-6 0 -10 1q-3 1 -5 1v-46l62 5h54v-179l-63 4q-3 1 -27 2q1 -31 5 -64l-1 -276l-4 -41h49q-6 18 -6 70v18h134q0 -27 -5 -46h47q-3 18 -4 46l1 244q1 24 5 49q-66 -6 -82 -6h-11v179q99 0 107 -3q4 0 7 -2v46q-24 -4 -65 -5h-49v148q0 9 3 28
q3 22 17 41h-63q1 -33 5 -69v-148zM536 289v-216h-134v216h134zM843 194v-231q0 -30 -9 -40q-12 -12 -53 -12q-10 0 -46 3q7 -13 10 -23q0 -4 3 -10q0 -9 4 -16q54 3 85 15q43 13 44 67l1 736q0 15 5 45q-33 -1 -67 -5q-99 0 -124 2q-6 3 -38 3q1 -30 5 -61l-1 -470
q-4 -36 -16 -89q-24 -105 -65 -164q-24 -30 -65 -58q27 -9 53 -29q57 76 87 151q30 81 44 186h143zM700 469v218h143v-218h-143zM700 230v203h143v-203h-143zM158 240q0 4 10 22l-4 -423q0 -3 -2 -6h48q-3 7 -4 36l-1 446q27 -36 53 -74q27 -39 38 -63q3 6 10 10q3 4 12 9
q7 6 13 11q-49 69 -56 78l-69 91q-1 10 -1 21q111 0 121 -3q3 0 7 -2v46q-27 -4 -66 -5h-62v262q0 36 21 70h-64q4 -24 5 -42l1 -290l-134 3q-4 1 -7 1q-3 1 -6 1v-46q3 0 64 5h77q-6 -33 -14 -60q-7 -27 -23 -70q-36 -99 -74 -164q-24 -36 -47 -57q30 -9 56 -19
q12 21 19 34q12 25 36 80q22 48 32 71q4 13 11 27v0z" />
  </g>

</svg>
