<?xml version="1.0" standalone="no"?>
<!DOCTYPE svg PUBLIC "-//W3C//DTD SVG 1.1//EN" "http://www.w3.org/Graphics/SVG/1.1/DTD/svg11.dtd" >
<svg xmlns="http://www.w3.org/2000/svg" xmlns:xlink="http://www.w3.org/1999/xlink" version="1.1" viewBox="-10 0 1034 1024">
  <g transform="matrix(1 0 0 -1 0 820)">
   <path fill="currentColor"
d="M134 680q-21 -9 -41 -20q30 -51 75 -164q15 7 38 16q-36 81 -54 126q-7 19 -18 42zM388 568q33 61 36 63q6 9 17 17q-31 15 -49 29q-6 -21 -15 -41l-36 -75q-6 -15 -26 -46q21 -7 38 -19q12 30 28 59q3 7 7 13zM510 445q4 10 11 19q48 -48 85 -64q34 -15 112 -24
q36 -3 76 -6l172 -4q6 33 15 54q-66 -13 -115 -14q-49 0 -162 7q-4 1 -7 1v99q174 0 186 -2q6 0 16 -3v46q-27 -1 -54 -5h-148v147h202q-19 -42 -46 -93q-1 0 -2 -2q27 -6 44 -14q12 25 21 46l29 65q4 13 19 39q-31 -1 -64 -5l-421 1q-6 1 -22 2q-3 0 -13 2v-47q0 1 2 1
q3 1 6 1q3 3 42 3l165 1v-272q-37 9 -72 33q-28 21 -48 49q13 40 22 52q6 13 24 25q-34 12 -57 23q-4 -34 -26 -91q-24 -54 -66 -112q-27 -28 -60 -50q18 -6 47 -27q9 9 19 21t31 41q9 12 32 48q1 4 5 9zM485 -96q-3 -30 -3 -52q-1 -3 -1 -6q-1 -3 -1 -8h48q-4 54 -5 80v94
h322v-83q0 -42 -57 -42q-28 0 -54 6q15 -27 15 -34l6 -15q21 0 52 3q36 4 50 10q25 10 26 58l1 349q1 24 5 49q-36 -1 -72 -5l-293 1q-15 3 -44 4q1 -21 2 -34q3 -24 3 -35v-340zM523 48v91h322v-91h-322zM523 175v97h322v-97h-322zM126 132q33 51 49 78q12 21 25 45
q9 21 26 50q4 7 10 17l-1 -437q-1 -7 -2 -35q-1 -3 -2 -16h48q-3 33 -5 67v405q19 -24 42 -46q33 -34 54 -69q13 18 32 34q-27 27 -54 59l-74 75v54q120 0 133 -3q3 0 16 -3v47q-36 -6 -88 -6h-61v248q0 18 2 35q0 15 12 31h-57q1 -7 3 -27q0 -19 2 -39v-248l-153 3
q-3 0 -15 3v-47q3 1 7 1q9 3 53 5h104q-12 -36 -27 -67q-19 -39 -58 -103q-31 -54 -57 -88q-22 -27 -54 -55q21 -4 27 -8q4 0 10 -5l17 -8h2q16 27 34 53v0z" />
  </g>

</svg>
