<?xml version="1.0" standalone="no"?>
<!DOCTYPE svg PUBLIC "-//W3C//DTD SVG 1.1//EN" "http://www.w3.org/Graphics/SVG/1.1/DTD/svg11.dtd" >
<svg xmlns="http://www.w3.org/2000/svg" xmlns:xlink="http://www.w3.org/1999/xlink" version="1.1" viewBox="-10 0 1034 1024">
  <g transform="matrix(1 0 0 -1 0 820)">
   <path fill="currentColor"
d="M176 548q-40 81 -50 96q-18 -10 -37 -20q16 -25 30 -50q15 -30 38 -85q18 9 37 21zM419 646q-1 0 -6 2l-39 20q-21 -84 -66 -149q18 -6 38 -18q13 27 36 76q21 48 49 63zM534 632l29 84q9 21 24 31q-3 0 -8 3l-52 19q-4 -39 -14 -77q-16 -51 -30 -84q-12 -25 -27 -51
q-21 -33 -34 -50q-9 -10 -26 -25q22 -6 44 -21q48 69 78 135h95q-16 -82 -58 -155q-30 25 -40 64q-15 -15 -36 -26q21 -34 55 -68q-36 -42 -74 -72q-33 -24 -93 -50q7 -3 11 -5q9 -3 38 -27q91 66 146 128q78 -69 218 -89q48 -6 118 -10q18 0 53 -2q4 22 26 52
q-45 -6 -84 -6q-40 0 -89 4q-75 6 -134 27q-46 16 -86 55q30 54 45 92q15 48 34 130q-63 -6 -94 -6h-35zM542 236l-53 4q-13 1 -26 1q1 -30 5 -63l-1 -295q-3 -18 -4 -33h49q0 6 -2 13q0 21 -2 41h319l-4 -52h49q-3 34 -5 70l1 274l4 45q-34 -1 -69 -5h-261zM827 -60h-319
v114h319v-114zM508 90v110h319v-110h-319zM738 769q1 -31 5 -65l-1 -289q-3 -21 -3 -32q-1 -1 -1 -5h48q-3 33 -5 66l1 283q0 19 12 42h-56zM803 605q85 -61 133 -115q13 18 32 34q-15 13 -135 114q-12 -18 -30 -33zM236 -96q-3 -30 -3 -51q-1 -3 -2 -15h48q-3 33 -5 66v390
q45 -61 90 -149q15 15 30 27q3 3 7 6l-85 121q-15 21 -42 54v44q102 0 113 -2q3 0 6 -1l13 -2v46q-33 -4 -70 -5h-62v258q0 16 2 35q0 15 13 31h-58q1 -7 3 -27q0 -19 2 -39v-258q-141 3 -156 5v-46q1 1 50 5h99q-9 -30 -41 -108q-18 -39 -54 -99q-42 -67 -93 -109q3 0 8 -2
q39 -13 41 -16q3 -1 8 -6q76 111 138 250v-403z" />
  </g>

</svg>
