<?xml version="1.0" standalone="no"?>
<!DOCTYPE svg PUBLIC "-//W3C//DTD SVG 1.1//EN" "http://www.w3.org/Graphics/SVG/1.1/DTD/svg11.dtd" >
<svg xmlns="http://www.w3.org/2000/svg" xmlns:xlink="http://www.w3.org/1999/xlink" version="1.1" viewBox="-10 0 1034 1024">
  <g transform="matrix(1 0 0 -1 0 820)">
   <path fill="currentColor"
d="M104 653q-7 -6 -24 -16q22 -19 50 -59q30 -42 45 -76q18 16 37 26q-46 72 -95 138q-3 -3 -7 -6q-3 -3 -6 -7zM326 518q15 -3 26 -9q4 -3 10 -5q66 120 71 125q9 13 24 23q-15 4 -28 11q-9 6 -25 14q-13 -39 -29 -72q-18 -36 -49 -87zM370 -127q4 -3 18 -7q30 -12 34 -15
q15 24 43 81q57 108 62 113q3 6 15 18q4 6 11 10q-34 10 -60 21q-4 -21 -11 -36q-9 -22 -27 -62q-45 -97 -85 -123zM653 200l-225 3q-4 1 -8 1l-6 2v-47q4 1 66 6l443 -1q18 0 38 -5v47q-22 -6 -66 -6h-203v155q189 0 198 -3q1 0 6 -2v46q-27 -4 -65 -5h-139v149h165
q30 0 53 -3l13 -2v46q-24 -4 -66 -5l-391 1q-18 3 -25 3q-3 1 -6 1v-46q54 4 77 5h141v-149l-183 3q-4 1 -7 1q-3 1 -6 1v-46q39 4 47 5h149v-155zM724 590q6 -3 17 -11q18 22 41 57q39 55 52 69q12 15 35 29q-22 12 -49 30q-9 -16 -21 -35q-3 -6 -7 -12q-27 -39 -53 -79
q-4 -9 -32 -39q3 -1 17 -9zM489 721q21 -13 38 -34q12 -12 54 -60q7 -12 19 -27q10 12 33 29l-28 32q-75 84 -82 90q-18 -18 -34 -30zM589 66q18 -84 32 -173q19 3 41 5q-1 18 -7 49l-26 127q-19 -4 -25 -5zM710 73q18 -81 34 -172q33 10 40 10q-6 40 -18 92l-17 80
q-18 -9 -27 -9q-6 0 -12 -1zM870 81q-6 9 -13 21q-7 -7 -21 -16q-1 -1 -4 -3q-4 -3 -9 -6q30 -43 57 -88q30 -49 69 -124q10 10 24 20q7 6 13 8l-45 72l-39 65q-16 25 -32 51zM247 -102q-3 -39 -3 -52q-3 -12 -4 -15h49q-1 3 -2 14q-1 3 -4 53v441q66 -73 75 -86l30 -40
q6 3 10 7q9 12 20 20q1 3 6 4q-120 132 -141 153v11h65q31 0 52 -3q1 0 14 -2v46q-24 -4 -66 -5h-65v242q0 33 22 70h-65q3 -9 3 -15q3 -27 4 -55v-242q-136 0 -162 2q-6 1 -13 2q-3 1 -6 1v-46q54 4 109 5h61q-24 -67 -47 -118q-21 -48 -52 -99t-52 -77q-21 -24 -47 -45
l24 -8q10 -6 30 -16q52 82 90 148q33 60 65 129v-424z" />
  </g>

</svg>
