<?xml version="1.0" standalone="no"?>
<!DOCTYPE svg PUBLIC "-//W3C//DTD SVG 1.1//EN" "http://www.w3.org/Graphics/SVG/1.1/DTD/svg11.dtd" >
<svg xmlns="http://www.w3.org/2000/svg" xmlns:xlink="http://www.w3.org/1999/xlink" version="1.1" viewBox="-10 0 1034 1024">
  <g transform="matrix(1 0 0 -1 0 820)">
   <path fill="currentColor"
d="M166 510q4 3 11 5q7 3 11 7q-9 19 -18 34q-15 28 -28 57l-17 34q-15 -9 -38 -18q28 -42 66 -128q6 4 13 9zM332 506l30 71q15 27 35 42q-3 0 -33 21q-7 6 -11 9q-33 -84 -57 -126q18 -7 36 -17zM478 307q0 28 5 64q-13 -1 -27 -4q-16 -1 -50 -2q-12 1 -35 2q-4 1 -8 3
q-1 0 -6 1v-48l26 4q39 3 57 3v-340q-30 -3 -46 -10q-13 -6 -29 -17q-18 -12 -48 -29q10 -12 23 -43q18 18 40 37q36 27 56 28q15 0 40 -14l38 -22q9 -4 16 -9q33 -16 83 -27q48 -9 121 -9l222 6q0 6 2 13l1 2q0 3 1 6t3 10q1 9 5 22q-37 -7 -92 -13q-93 -6 -157 -8
q-33 0 -69 3q-45 4 -71 14q-36 13 -101 55v322zM430 692l-11 21q-6 -3 -14 -8q-9 -6 -24 -13q12 -15 23 -31q39 -67 52 -95q4 -10 12 -35q6 4 13 9q13 7 25 11l-44 84q-16 28 -32 57zM711 423l-197 3q-4 1 -7 1q-3 1 -6 1v-46q1 0 60 5l359 -1l25 -4v46q-27 -4 -66 -5h-130
v136q111 0 128 -2q9 0 20 -4v47q-33 -1 -66 -5h-82v104q0 6 3 23q3 21 14 43h-60q4 -49 5 -80v-90h-103q1 3 3 7q15 45 21 52q3 9 22 25q-36 9 -57 20q-13 -66 -35 -123q-24 -69 -56 -99q33 -15 36 -16q-3 3 9 -6l35 80q6 15 11 24h114v-136zM591 97q0 -15 -6 -64q54 4 78 5
l174 -1q15 0 49 -4q-4 24 -5 63l1 161l4 46q-109 -4 -113 -5q-123 0 -151 2q-6 3 -37 3q6 -60 6 -84v-122zM628 74v188h215v-188h-215zM100 86q58 96 81 147q15 34 31 68l13 26l-4 -487q0 -3 -1 -6h47q-3 6 -3 21l-2 73v370q13 -18 30 -42l49 -77q16 15 33 28q-9 9 -36 45
l-76 104v58q99 0 106 -3q7 -1 9 -3v47q-31 -6 -66 -6h-49v229q0 34 21 70h-63q4 -45 5 -70v-229l-120 4q-4 1 -7 1q-3 1 -6 1v-47q19 4 42 5l80 1q-9 -31 -32 -87q-21 -51 -44 -99q-48 -90 -84 -119q21 -9 46 -23v0z" />
  </g>

</svg>
