<?xml version="1.0" standalone="no"?>
<!DOCTYPE svg PUBLIC "-//W3C//DTD SVG 1.1//EN" "http://www.w3.org/Graphics/SVG/1.1/DTD/svg11.dtd" >
<svg xmlns="http://www.w3.org/2000/svg" xmlns:xlink="http://www.w3.org/1999/xlink" version="1.1" viewBox="-10 0 1010 1000">
   <path fill="currentColor"
d="M702 4q89 -2 100 12q0 2 -2 5q-22 27 -22 132h26q76 -1 99 -6v76q-45 -8 -103 -8h-22v113h34q93 0 121 -8v79q-42 -7 -120 -8h-154q-80 1 -117 6v-73q25 3 105 6h61v-115h-87q-15 37 -30 81q-4 -1 -11 -3q-37 -12 -56 -11q50 -90 61 -230q13 4 47 10q35 6 35 8q0 1 -2 3
q-17 23 -28 80h71q0 -78 -1 -102q-1 -31 -5 -47zM188 14q94 3 94 14q0 1 -2 5q-16 27 -16 96v211h14q34 -1 75 -6v75q-25 -4 -69 -4h-20v353q0 104 4 133h-83q9 -49 11 -135v-230q-70 185 -127 240q-18 -43 -47 -75q103 -93 163 -286h-24q-39 0 -90 7q-6 1 -8 1v-79
q31 6 96 6h37v-211q1 -73 -8 -115zM466 62q38 106 44 145l-72 20q-10 -73 -45 -149zM133 115l38 161l-68 10q-7 -90 -38 -163zM327 115q81 14 80 26q0 2 -3 5q-20 31 -51 148q-20 -8 -59 -16q24 -45 33 -163zM371 340q55 11 139 0q-7 38 -8 107v258q12 62 149 84
q65 10 147 7q81 -4 172 -20q-20 34 -32 84q-258 18 -337 -8q-43 -16 -95 -43q-37 -19 -50 -19q-17 0 -68 54q-11 12 -15 16q-17 -29 -60 -66q86 -49 120 -79v-306q-30 0 -62 8v-77zM593 449q25 3 94 6h95q66 0 99 -4q0 3 -1 10q-5 61 -5 75v77q1 55 6 90q-21 -3 -89 -6h-90
q-93 0 -111 6q0 -22 6 -91v-70v-19q3 -57 -4 -74zM327 475q36 51 76 115l-70 35q-26 -67 -63 -115zM665 514v121h143v-121h-143z" />
</svg>
