<?xml version="1.0" standalone="no"?>
<!DOCTYPE svg PUBLIC "-//W3C//DTD SVG 1.1//EN" "http://www.w3.org/Graphics/SVG/1.1/DTD/svg11.dtd" >
<svg xmlns="http://www.w3.org/2000/svg" xmlns:xlink="http://www.w3.org/1999/xlink" version="1.1" viewBox="-10 0 1034 1024">
  <g transform="matrix(1 0 0 -1 0 820)">
   <path fill="currentColor"
d="M227 -124q-3 -30 -5 -61h48q-4 16 -5 61v436q54 -57 91 -117q6 9 15 18q6 6 15 17l-48 57l-73 79v50h61q33 0 65 -5v46q-30 -4 -65 -5h-61v229q0 21 13 68h-56q0 -4 5 -60q-1 -3 0 -8v-229q-111 0 -138 2q-1 0 -22 3v-46q7 0 16 2l71 4h66q-9 -51 -31 -104
q-19 -51 -53 -113q-48 -84 -101 -124l28 -6q18 -3 35 -10q15 21 29 42q15 24 28 48q30 58 72 152v-426zM117 642q-15 -12 -33 -22q43 -48 77 -119q15 12 36 22q-9 16 -52 82l-21 28zM372 586q12 25 44 37q-39 18 -65 36q-13 -69 -58 -142q24 -12 38 -21q9 24 22 50
q9 21 19 40zM667 373v-89q-111 0 -131 2q-9 3 -25 4v-47q60 6 94 6h62v-157q-63 -39 -111 -59q-48 -19 -111 -36q7 -10 15 -22q12 -19 18 -30l88 52l101 54v-134q0 -31 -25 -38q-16 -4 -39 -5q-15 0 -44 7q12 -19 17 -31q3 -9 6 -21q54 4 76 10q46 12 47 73v237
q55 -81 96 -129q49 -57 110 -114q1 0 17 11q10 7 23 14l24 15q-48 13 -83 39q-34 27 -87 89q22 31 48 59q25 25 52 30l-33 29l-20 19q-22 -58 -70 -109q-54 67 -77 126v21l146 -1q21 -1 45 -5q-6 27 -5 90v40h9q36 0 64 -6v47q-33 -6 -64 -6h-9q0 72 2 85q0 18 3 35
q-55 -4 -85 -5h-106v83h168q33 0 63 -5v47q-33 -6 -63 -6h-172q12 16 29 33q-57 63 -101 100q0 -1 -3 -3q-16 -10 -33 -23q48 -40 64 -58q18 -18 37 -49l-227 1q-4 1 -43 5q1 -19 2 -32q3 -21 3 -30v-285q0 -121 -9 -191q-15 -90 -59 -155q-24 -34 -60 -60q6 -3 13 -8
q3 -1 7 -3q13 -7 26 -20q67 85 97 179q15 51 19 113q3 37 4 87v130h200zM467 408v198h200v-83h-93q-40 0 -63 5v-46q30 4 63 5h93v-79h-200zM705 284v89h148v-89h-148zM853 408h-148v79h148v-79zM497 171q48 -27 103 -83q9 15 18 24q3 3 5 6l-52 45q-18 15 -51 37
q-9 -12 -23 -29v0z" />
  </g>

</svg>
