<?xml version="1.0" standalone="no"?>
<!DOCTYPE svg PUBLIC "-//W3C//DTD SVG 1.1//EN" "http://www.w3.org/Graphics/SVG/1.1/DTD/svg11.dtd" >
<svg xmlns="http://www.w3.org/2000/svg" xmlns:xlink="http://www.w3.org/1999/xlink" version="1.1" viewBox="-10 0 1010 1000">
   <path fill="currentColor"
d="M196 -2q78 4 92 16q1 3 -3 13q-15 38 -15 102v197q49 0 83 -8v77q-24 -7 -83 -6v94l38 -30q19 29 85 113l-60 40q-25 -52 -63 -90v248q0 55 9 122q1 8 1 11h-86q8 -64 8 -129v-246q-60 117 -125 205q-12 -28 -47 -68q108 -105 162 -270h-21q-66 0 -94 6v-77q67 8 102 8
h23v-199q0 -79 -6 -129zM611 56q78 8 131 8h22q86 0 133 -8l-3 27q-5 47 -5 84v56q0 52 8 107q-43 -8 -121 -8v71h16q74 0 125 -8q-9 38 -8 107v38q0 72 8 137h-76q0 -2 1 -5q3 -13 3 -27h-69v139l73 -4q-8 -16 -20 -41q-9 -17 -12 -24l64 -22q53 94 79 173l-71 29
q-6 -23 -20 -63q-154 12 -300 47q-7 -47 -27 -81q69 1 170 -10v-143h-65l4 40h-80q8 -49 8 -123v-48q0 -82 -8 -119q6 1 18 2q67 6 105 6h18v-71q-24 0 -80 6q-14 1 -21 2q8 -65 8 -115v-46q0 -59 -8 -113zM139 96q26 92 46 182l-76 10q5 -81 -42 -175zM683 123v139h142
v-139h-142zM712 453h-69v123h69v-123zM845 453h-69v123h69v-123zM389 54q34 8 83 8q48 0 91 -8q-7 50 -7 95v91q0 40 6 96q1 5 1 8q-47 -8 -113 -8v137q57 0 90 -10q-8 32 -8 101v147q2 103 -30 130q-28 32 -147 46q5 -47 -20 -83q90 13 107 -8q23 -17 22 -109v-159
q-33 -1 -87 8q10 -47 10 -107v-89l-6 -70l56 6h55v-155h-18q-59 -1 -85 4v-71zM339 117q31 10 70 32q0 1 -3 4q-29 27 -75 135l-47 -32q39 -61 55 -139z" />
</svg>
