<?xml version="1.0" standalone="no"?>
<!DOCTYPE svg PUBLIC "-//W3C//DTD SVG 1.1//EN" "http://www.w3.org/Graphics/SVG/1.1/DTD/svg11.dtd" >
<svg xmlns="http://www.w3.org/2000/svg" xmlns:xlink="http://www.w3.org/1999/xlink" version="1.1" viewBox="-10 0 1034 1024">
  <g transform="matrix(1 0 0 -1 0 820)">
   <path fill="currentColor"
d="M222 300l15 35v-442q0 -34 -5 -70h50q-1 6 -5 58v442q24 -31 46 -71q22 -39 32 -61q15 12 31 23q3 0 8 4l-53 80l-64 89v35h37q36 0 67 -5v46q-30 -4 -67 -5h-37v246q0 15 2 32q1 16 11 33h-58q4 -49 5 -65v-246l-109 1q-7 1 -41 4v-46q49 4 98 5h44q-27 -76 -63 -160
l-35 -73q-15 -30 -29 -49q-21 -30 -52 -55q27 -7 54 -21q27 46 65 119q6 9 14 28zM111 647q37 -57 58 -130q24 12 40 16l1 1l-40 94l-21 39q-19 -15 -25 -15q-7 -1 -13 -5zM371 568q6 21 14 42q12 33 30 45l-3 2q-13 6 -26 10l-21 10q-9 -45 -18 -74q-15 -39 -39 -72
q21 -4 42 -14q9 27 21 51zM699 272l225 -1q9 0 37 -5v46q-45 -4 -68 -5l-434 1q-6 0 -44 4v-46q19 4 48 5l197 1l-29 -90l-156 1q-15 3 -46 4q1 -33 5 -67l-1 -245q-1 -4 -4 -40h48q-1 6 -5 66v245h110v-179q0 -43 -5 -79h48q-1 7 -5 65v193h98v-160q0 -40 -5 -80h48
q-1 6 -5 67v173h127v-217q0 -33 -37 -34q-15 0 -58 6q12 -24 21 -51q37 3 56 7q27 6 42 19q13 13 14 54l1 208l4 49q-31 -1 -63 -5h-193zM417 522q0 -42 -5 -73h48q-6 66 -5 105v22h193v-155q0 -51 -6 -80h49q-1 6 -5 67v168h214l-3 -103q0 -3 -3 -21h50q-3 15 -6 61
q0 61 4 86q0 9 2 19l-33 -4q-25 -3 -34 -3h-191v82h145q36 0 67 -5v47q-15 -3 -63 -6l-345 1q-10 1 -22 2q-6 0 -19 3v-47q66 6 129 6h70v-83l-188 1q-30 6 -48 6q1 -33 5 -67v-29zM501 464q51 3 54 4q31 0 39 -3q6 0 13 -1v41q-48 -3 -79 -3q-10 1 -27 3v-41zM744 467
q39 3 54 4q36 0 52 -4v41q-48 -3 -79 -3q-10 1 -27 3v-41zM502 371q51 3 54 4q36 0 52 -4v41q-7 0 -15 -2q-45 -4 -76 0q-7 1 -15 2v-41zM742 374q39 3 53 4l56 -4v41q-48 -3 -82 -3q-10 1 -27 3v-41z" />
  </g>

</svg>
