<?xml version="1.0" standalone="no"?>
<!DOCTYPE svg PUBLIC "-//W3C//DTD SVG 1.1//EN" "http://www.w3.org/Graphics/SVG/1.1/DTD/svg11.dtd" >
<svg xmlns="http://www.w3.org/2000/svg" xmlns:xlink="http://www.w3.org/1999/xlink" version="1.1" viewBox="-10 0 1034 1024">
  <g transform="matrix(1 0 0 -1 0 820)">
   <path fill="currentColor"
d="M103 -89q12 -7 26 -16q12 -9 24 -21q58 46 90 75q28 24 70 65q40 39 72 50q-27 10 -59 34q-4 -12 -18 -28q-18 -21 -54 -57q-55 -49 -85 -70q-31 -21 -66 -32zM114 521q4 -90 5 -92q-3 -75 -5 -85h50q-4 12 -5 25l-2 121h328q-27 -25 -58 -48q-31 -24 -76 -52
q-36 -22 -56 -30q-16 -6 -52 -8q16 -45 17 -50q30 12 193 16q45 0 88 3q-40 -24 -97 -53q-57 -28 -113 -53q-51 -21 -75 -27q-28 -4 -87 -8q9 -30 13 -51q31 9 82 12l140 5l99 4v-213q0 -36 -17 -44q-12 -6 -49 -7q-15 0 -61 5q4 -7 8 -17q10 -19 15 -32q61 1 96 12
q43 15 44 65v232q238 13 246 14q40 -30 73 -69q1 3 4 4q12 18 14 20q6 12 5 9l2 2q-46 46 -197 167q-9 -12 -8 -10q-7 -10 -13 -15q-6 -3 -8 -6q55 -39 94 -73q-16 -1 -37 -3l-109 -3l-202 -5q-28 0 -57 -1q3 3 65 32q9 6 54 27q4 4 11 6l149 78q49 30 70 39q9 6 32 14
q15 6 33 7q-22 21 -45 48q-22 -18 -54 -40q-39 -25 -60 -36l-245 -3l98 66q19 10 33 20q12 6 20 12q15 6 32 15q-19 10 -28 18q-3 3 -6 5h372q-3 -132 -5 -140h49q-3 9 -3 13l-3 111l6 57q-33 -1 -65 -5h-315v101l310 -1q13 0 29 -3l2 -1v46q-16 -4 -66 -5h-275q0 69 3 72
q3 18 17 33h-64q0 -1 5 -32l1 -73l-290 1q-12 1 -25 2q-3 0 -15 2v-46q3 1 62 5h268v-101l-343 1q-3 0 -46 4v-10zM897 -63l-91 60l-117 76q-15 9 -27 18q-18 -27 -30 -40q45 -22 118 -69l88 -59l45 -36l22 27q1 4 8 13q-9 6 -16 10v0z" />
  </g>

</svg>
