<?xml version="1.0" standalone="no"?>
<!DOCTYPE svg PUBLIC "-//W3C//DTD SVG 1.1//EN" "http://www.w3.org/Graphics/SVG/1.1/DTD/svg11.dtd" >
<svg xmlns="http://www.w3.org/2000/svg" xmlns:xlink="http://www.w3.org/1999/xlink" version="1.1" viewBox="-10 0 1010 1000">
   <path fill="currentColor"
d="M466 -17h13q106 1 96 9q1 2 -3 9q-16 28 -16 81h180q114 0 143 -6v79q-36 -6 -141 -6h-182v74h252q74 0 111 -6q-5 18 -4 67v52l8 75h-100l4 -65v-56h-349q4 2 11 6q62 34 57 38q-1 5 -19 13q-68 29 -150 92h194q75 -51 102 -77q97 52 97 61q-2 10 -26 14q-51 8 -95 32
l-6 3q-106 57 -250 122h325q-30 -33 -75 -62l69 -42q6 6 27 24q88 76 140 129l-75 54l-36 -42h-214v189q14 49 -151 69q-11 -55 -38 -97q108 14 109 -16v-145h-159q-46 3 -140 22l-22 -85q61 12 129 -9q61 -18 198 -89q-220 12 -246 18l-18 -79q109 -14 244 -143h-281v54v0
q1 27 4 67h-100q2 0 7 -55q1 -5 1 -8v-64q0 -28 -4 -67h2q27 6 131 6h252v-74h-214q-62 0 -85 1q-28 1 -42 3v-75q45 3 125 4h214q0 -50 -5 -85q-2 -12 1 -14zM677 681q113 56 232 131l-78 73q-93 -88 -210 -145zM302 685q87 52 83 55q-1 5 -21 13q-32 7 -223 124
q-16 -32 -70 -63q120 -39 231 -129z" />
</svg>
