<?xml version="1.0" standalone="no"?>
<!DOCTYPE svg PUBLIC "-//W3C//DTD SVG 1.1//EN" "http://www.w3.org/Graphics/SVG/1.1/DTD/svg11.dtd" >
<svg xmlns="http://www.w3.org/2000/svg" xmlns:xlink="http://www.w3.org/1999/xlink" version="1.1" viewBox="-10 0 1010 1000">
   <path fill="currentColor"
d="M234 102v73h234v-73h-234zM540 102v73h246v-73h-246zM234 229v69h234v-69h-234zM540 229v67h246v-67h-246zM714 356h-172q-33 14 -106 46q-47 21 -71 31l224 -4q53 -23 125 -73zM308 661q65 42 75 64q-2 1 -7 1q-16 1 -35 12q-94 61 -204 112q-30 -36 -70 -58
q166 -65 241 -131zM659 669q106 37 248 111l-68 74q-82 -62 -234 -127zM159 34q55 8 83 8h534q60 0 87 -4q-6 38 -6 74v172q0 55 6 79q-42 -7 -131 -7q62 57 54 69q-2 3 -18 5q-33 6 -54 15q-238 100 -401 139l401 -10q25 9 -79 -48l63 -43q142 76 215 136l-74 54
q-18 -16 -61 -46l-234 2v193q6 54 -141 63q-14 -58 -34 -85q64 6 83 1q19 -4 18 -25v-143q-271 12 -315 32q-8 -18 -22 -55l-12 -30q143 -2 367 -105q-28 2 -73 6q-179 13 -209 25q-4 -11 -11 -33q-10 -27 -14 -40q77 1 222 -75h-157q-44 0 -61 1q-20 1 -32 3q7 -42 10 -96
v-151q0 -34 -4 -81z" />
</svg>
