<?xml version="1.0" standalone="no"?>
<!DOCTYPE svg PUBLIC "-//W3C//DTD SVG 1.1//EN" "http://www.w3.org/Graphics/SVG/1.1/DTD/svg11.dtd" >
<svg xmlns="http://www.w3.org/2000/svg" xmlns:xlink="http://www.w3.org/1999/xlink" version="1.1" viewBox="-10 0 1010 1000">
   <path fill="currentColor"
d="M569 -12q48 0 88 8q24 5 11 30q-13 27 -13 46q0 8 -1 32q-1 30 -1 43q123 -48 196 -101q34 37 60 83q8 15 -34 15q-25 0 -32 3q-82 34 -190 62v59q-8 41 59 36h56q77 6 77 -99q49 34 93 47q-28 128 -142 127h-80q-86 0 -112 -14q-28 -13 -27 -57v-210q0 -58 -7 -102
q-1 -7 -1 -8zM310 -8q48 -1 75 4q37 2 20 27q-10 23 -10 41v42q85 1 131 -8v77q-24 -5 -54 -6q-15 -1 -33 -2h-44v101l131 -20l-4 70l-115 16q63 32 83 53q0 2 -13 7q-71 28 -162 87l203 -6q72 -48 117 -98q49 18 83 42q18 13 -29 31l-10 5q-33 17 -115 64q-136 78 -201 108
l355 -19q-44 -35 -93 -64l65 -46q98 63 193 161l-75 48q-6 -11 -27 -34q-6 -6 -9 -10l-220 12v155q3 60 -29 76q-29 19 -134 17q-11 -38 -35 -82q-5 -10 -5 -11q122 34 117 -28v-123q-16 2 -58 6q-183 16 -241 34l-30 -88q63 -1 113 -16q52 -15 163 -73l24 -12
q-155 7 -260 28l-26 -79q67 -3 103 -24q102 -63 147 -121l-326 53l-25 -83l101 -8v-147q0 -6 -1 -33q-2 -37 -3 -64q5 0 16 1q50 4 71 7q19 2 3 32q-13 22 -13 33v163l93 -12v-184q1 -62 -7 -100zM657 707q124 44 258 115l-68 73q-85 -62 -244 -129zM290 713q35 22 73 59
q13 13 -28 23q-28 7 -39 13q-105 51 -199 93q-12 -31 -55 -73q130 -28 248 -115z" />
</svg>
