<?xml version="1.0" standalone="no"?>
<!DOCTYPE svg PUBLIC "-//W3C//DTD SVG 1.1//EN" "http://www.w3.org/Graphics/SVG/1.1/DTD/svg11.dtd" >
<svg xmlns="http://www.w3.org/2000/svg" xmlns:xlink="http://www.w3.org/1999/xlink" version="1.1" viewBox="-10 0 1010 1000">
   <path fill="currentColor"
d="M282 -15q88 11 95 25q-1 2 -6 7q-30 26 -52 79h100q41 0 127 -8q-41 102 -98 180q29 10 82 28q28 10 41 14q-26 33 -43 71q-107 -50 -133 -59q-110 71 -284 119q-15 -41 -57 -79q175 -12 261 -70l-156 -32q12 -20 36 -61q15 -27 23 -40q-61 0 -117 4q-17 1 -26 2v-75
q66 4 169 4q7 -21 22 -64q11 -30 16 -45zM742 76q103 0 163 -6q-10 85 -10 149q0 77 1 105q1 34 3 53q-33 -10 -149 -10q-117 0 -165 6q4 -41 4 -144q0 -115 -6 -157q76 4 159 4zM663 145v155h156v-155h-156zM437 159h-145l-30 60q3 1 9 2q74 17 100 27q37 -38 66 -89z
M409 352q76 41 77 53q-2 4 -15 7q-57 17 -134 78l213 -13q9 -7 29 -21q57 -42 80 -65q60 42 81 68q0 2 -19 5q-23 4 -29 7q-143 87 -325 148l337 -7q-23 -20 -66 -45l-15 -9l73 -40q93 75 191 159l-75 44q-33 -42 -52 -60l-208 8v149q2 57 -22 71q-22 17 -113 22
q-5 -39 -38 -73q60 3 78 -3t17 -29v-131q-137 0 -307 18q-2 -9 -7 -25q-9 -34 -15 -51q98 6 307 -87q-142 11 -183 17q-35 4 -51 5q-1 -1 -2 -9q-6 -36 -16 -56q106 -18 209 -135zM310 711q72 45 67 57q-2 5 -16 8q-32 9 -63 24q-32 15 -96 46q-67 31 -79 37
q-22 -32 -67 -65q136 -24 254 -107zM677 711q86 34 232 109l-56 67q-105 -76 -224 -115z" />
</svg>
