<?xml version="1.0" standalone="no"?>
<!DOCTYPE svg PUBLIC "-//W3C//DTD SVG 1.1//EN" "http://www.w3.org/Graphics/SVG/1.1/DTD/svg11.dtd" >
<svg xmlns="http://www.w3.org/2000/svg" xmlns:xlink="http://www.w3.org/1999/xlink" version="1.1" viewBox="-10 0 1034 1024">
  <g transform="matrix(1 0 0 -1 0 820)">
   <path fill="currentColor"
d="M424 435q24 0 60 -5q-4 52 -5 102q0 42 3 85q0 15 2 26q-30 -1 -60 -5h-73q9 18 25 34q-37 30 -101 73l-15 9q-6 -16 -23 -33q51 -30 68 -43q24 -18 42 -40q-120 0 -145 2q-6 3 -36 3q3 -66 3 -112q0 -75 -15 -129q-16 -63 -49 -105q-16 -21 -50 -49q22 -9 48 -23
q25 33 48 69q15 27 26 55q9 25 25 86h222zM207 471v131h234v-131h-234zM810 605q-9 -36 -26 -75q-21 -42 -45 -71q-24 19 -45 51q-18 27 -27 59q-18 -13 -38 -24q39 -64 80 -112q-33 -25 -89 -48q-52 -18 -102 -22q21 -16 38 -44q61 21 98 38q36 16 86 50q78 -55 198 -103
q9 9 9 14q9 18 26 30q-48 7 -96 28l-67 30q-18 10 -41 28q25 34 43 66q16 36 42 105q42 -1 85 -5h6v44q-33 -1 -66 -5h-247q4 15 10 28q16 42 24 53q6 10 27 31q-55 12 -61 15q-25 -90 -57 -154q-48 -85 -87 -118q15 -9 50 -23q1 4 45 73l34 61h193zM105 -112q19 -18 39 -37
q42 21 72 38q31 18 74 45l57 36q13 9 43 15q-25 21 -48 43q-25 -24 -46 -40q-25 -18 -67 -43q-69 -37 -124 -57zM445 217q4 0 59 6q-42 -27 -100 -57q-54 -30 -94 -48q-58 -24 -131 -30l16 -35q1 -4 3 -9q42 9 62 10q21 1 45 5q99 10 130 10q43 3 80 4v-139q0 -27 -11 -38
q-12 -10 -42 -11q-24 0 -58 6q12 -27 20 -51q87 4 114 24q18 15 18 68v144q27 0 48 3l122 11q25 0 55 3l63 -66q12 13 31 30q-52 48 -134 117l-50 39q-10 -16 -25 -30q9 -6 17 -13q45 -31 50 -38q6 -4 14 -14l-206 -13q-7 1 -15 0l-130 -5q-24 -3 -54 -5q51 24 119 60
q69 36 123 68q90 57 94 58q21 10 46 15q-21 13 -49 41q-7 -6 -13 -14q-24 -13 -52 -36q-13 -10 -35 -23l-130 -10q-34 -1 -59 -3l-50 -4q33 25 61 52l65 56q12 10 45 28q-3 1 -37 24q-6 6 -11 10q-46 -60 -108 -114q-42 -36 -58 -45q-18 -10 -39 -17q10 -24 14 -35
q0 -4 2 -10q24 3 54 9l83 9zM647 -1q78 -36 117 -57q54 -31 123 -78q9 21 26 40l-243 131q-7 -16 -23 -36v0z" />
  </g>

</svg>
