<?xml version="1.0" standalone="no"?>
<!DOCTYPE svg PUBLIC "-//W3C//DTD SVG 1.1//EN" "http://www.w3.org/Graphics/SVG/1.1/DTD/svg11.dtd" >
<svg xmlns="http://www.w3.org/2000/svg" xmlns:xlink="http://www.w3.org/1999/xlink" version="1.1" viewBox="-10 0 1034 1024">
  <g transform="matrix(1 0 0 -1 0 820)">
   <path fill="currentColor"
d="M203 622l693 -1l38 -4v46q-30 -1 -62 -5h-274q4 13 11 20q1 1 8 10q-9 6 -16 10q-42 24 -55 33q-36 19 -56 30q-13 -21 -25 -32q70 -30 118 -71l-381 1q-15 3 -42 4q1 -18 2 -29q3 -18 4 -30q0 -289 -3 -347q-1 -9 -2 -21q-3 -72 -11 -129q-16 -114 -54 -193
q-16 -33 -44 -67q12 0 26 -2q6 -1 20 -4q3 0 12 -2l34 84q9 27 18 58q21 72 30 155l7 103q3 57 4 97v286zM413 521l-145 2q-6 3 -13 3v-46q27 4 118 5h30q-39 -51 -94 -102q-39 -33 -80 -54l43 -28q39 40 81 81q25 27 60 66q0 -108 -2 -141q-3 -9 -5 -19h50q-4 18 -5 56v85
q46 -31 82 -69q4 12 12 23q1 1 3 5l6 9l-105 65v23l91 -3q6 0 9 -2v46q-10 -1 -15 -3l-85 -2q0 6 3 36q1 16 12 34h-58q1 -6 6 -32zM462 -38q-21 16 -32 27q-3 4 -14 15q-36 -46 -85 -80q-51 -33 -96 -45q6 -6 18 -14q7 -6 22 -21q25 12 46 28q102 78 107 79q12 7 34 11z
M273 31q3 -6 6 -18q19 3 39 8q60 7 124 11q40 0 118 5v-134q0 -15 -6 -22q-6 -6 -23 -8q-9 -1 -26 -2q-15 0 -50 4q12 -27 15 -47q25 0 52 4q46 6 60 17q15 12 16 54v136l234 9q18 -21 40 -51q4 7 31 33l-100 102q-18 18 -30 29l-32 -26l65 -57l-406 -15q70 27 146 61
l126 62q40 21 52 26q15 6 35 8q-16 12 -34 28l-17 16q-45 -39 -93 -67l-93 -4q-49 -3 -100 -4l88 53q31 19 46 25q10 4 30 6l-19 16q-16 12 -29 25q-39 -40 -102 -82q-45 -27 -97 -35q3 -9 10 -16q7 -15 14 -32q42 7 182 13q-66 -31 -153 -66q-30 -12 -59 -18
q-28 -6 -71 -10q7 -27 11 -37zM640 375q19 18 34 35q15 16 35 43v-107q0 -36 -6 -56h49q-4 18 -5 56v124q39 -49 99 -100q40 -33 81 -59q18 24 38 41q-37 12 -90 43q-58 37 -109 95q120 0 143 -3q3 0 9 -2h2v46l-28 -4l-145 -1q0 34 3 43q1 13 10 27h-57q6 -60 6 -70l-105 4
q-3 0 -7 1v-46q9 0 19 2q30 1 63 3h25q-52 -61 -90 -94q-31 -27 -72 -49q22 -12 41 -28zM687 -13q45 -33 83 -62q39 -31 89 -76q3 6 9 12l18 24q-142 108 -168 130q-15 -18 -31 -28v0z" />
  </g>

</svg>
