<?xml version="1.0" standalone="no"?>
<!DOCTYPE svg PUBLIC "-//W3C//DTD SVG 1.1//EN" "http://www.w3.org/Graphics/SVG/1.1/DTD/svg11.dtd" >
<svg xmlns="http://www.w3.org/2000/svg" xmlns:xlink="http://www.w3.org/1999/xlink" version="1.1" viewBox="-10 0 1034 1024">
  <g transform="matrix(1 0 0 -1 0 820)">
   <path fill="currentColor"
d="M403 219q-24 -6 -45 -9q-22 -3 -62 -8l-131 -11q-16 0 -32 -2q19 18 38 40q22 25 57 71q45 55 82 104q34 48 72 105q18 27 30 40q12 12 30 22q-30 16 -55 33q-36 -79 -91 -152q-111 -4 -131 -8q-22 0 -46 -3q3 3 6 8q0 4 43 65q6 6 49 84q25 45 39 69q24 46 51 64
q-33 15 -55 33q-18 -48 -45 -103q-61 -123 -119 -193q-15 -18 -23 -23q-4 -3 -12 -8q9 -18 18 -46q21 7 41 11l95 11l63 6q-21 -36 -77 -106q-48 -60 -76 -90q-21 -19 -47 -35q10 -19 21 -50q10 1 21 4q6 1 20 4l71 8q45 4 90 12q57 6 104 11zM438 13q1 22 4 45
q-28 -10 -60 -19q-37 -10 -107 -27q-96 -24 -146 -34q-36 -6 -75 -11q15 -24 24 -54q27 12 66 22l147 39l94 23q40 13 53 16zM681 345l-273 5q-1 1 -2 1v-47q3 1 8 1q3 3 27 3l240 1v-376q0 -28 -12 -40q-15 -12 -62 -13q-24 0 -55 6q0 -3 22 -54q87 3 124 27q21 15 21 62
v388q225 0 237 -3q3 0 16 -2v46q-33 -1 -65 -5h-188v313q186 -3 198 -6q0 1 3 0v47q-1 0 -5 -1q-1 0 -58 -5l-385 3q1 0 -10 3l-2 1v-48q3 1 6 1q3 1 51 5h164v-313z" />
  </g>

</svg>
