<?xml version="1.0" standalone="no"?>
<!DOCTYPE svg PUBLIC "-//W3C//DTD SVG 1.1//EN" "http://www.w3.org/Graphics/SVG/1.1/DTD/svg11.dtd" >
<svg xmlns="http://www.w3.org/2000/svg" xmlns:xlink="http://www.w3.org/1999/xlink" version="1.1" viewBox="-10 0 1034 1024">
  <g transform="matrix(1 0 0 -1 0 820)">
   <path fill="currentColor"
d="M506 305q15 -15 36 -48q9 -15 25 -38q42 -67 53 -89q18 15 38 28l-33 51q-18 24 -84 123q-12 -10 -23 -18zM295 188q42 6 84 10q15 0 29 4q4 24 10 47q-46 -9 -116 -19q-73 -9 -153 -15q18 18 32 36l132 168q33 43 76 105q25 36 51 51q-12 10 -55 39q-39 -84 -96 -159
l-90 -3q-22 -1 -42 -5l-34 -1q15 25 26 43l24 41q94 168 100 172q18 27 42 45q-33 13 -59 33q-21 -54 -38 -93q-21 -39 -60 -105q-39 -72 -65 -107q-18 -24 -40 -38q9 -19 15 -39l80 12l114 9q-21 -33 -56 -76l-42 -51l-22 -27q-39 -46 -71 -57q6 -27 12 -50q48 10 101 17
q24 4 111 13zM293 -37l109 30q16 6 33 10q1 24 4 47q-24 -10 -54 -19l-246 -66q-36 -7 -76 -13q15 -25 25 -53q87 31 114 38zM773 486l-297 1q-27 3 -30 4v-47q3 0 8 2q3 3 42 3l277 1v-513q0 -33 -13 -40q-24 -12 -53 -13q-12 0 -22 1q-15 0 -47 6q18 -36 19 -52
q103 6 134 23q21 15 21 63v525l113 -1q27 0 41 -4l2 -1v47q-33 -1 -65 -5h-91v214q0 16 2 34q0 15 12 31h-58q1 -31 5 -65v-214z" />
  </g>

</svg>
