<?xml version="1.0" standalone="no"?>
<!DOCTYPE svg PUBLIC "-//W3C//DTD SVG 1.1//EN" "http://www.w3.org/Graphics/SVG/1.1/DTD/svg11.dtd" >
<svg xmlns="http://www.w3.org/2000/svg" xmlns:xlink="http://www.w3.org/1999/xlink" version="1.1" viewBox="-10 0 1034 1024">
  <g transform="matrix(1 0 0 -1 0 820)">
   <path fill="currentColor"
d="M344 726q-21 13 -37 26q-16 -34 -39 -73q-27 -46 -79 -125q-42 -64 -60 -83q-16 -18 -42 -24q12 -30 15 -42q1 -9 4 -13q19 7 45 11q36 7 58 8q39 3 74 4q21 0 39 4q-93 -132 -144 -188q-34 -33 -68 -40q13 -27 25 -60q16 4 32 11q15 3 32 8q12 3 97 19l161 27l6 38
q0 7 4 11q-67 -21 -270 -51q48 57 95 116q60 76 118 158q27 39 44 57q10 13 33 31q-30 18 -54 35q-9 -25 -38 -71q-28 -45 -49 -66l-185 -7q22 30 46 63l69 109q42 66 82 98q-7 4 -14 9zM106 -37q15 -28 27 -62q46 24 66 30q12 6 114 40q148 51 175 58l12 57q-16 -9 -50 -23
q-39 -16 -106 -40q-84 -27 -142 -43q-51 -12 -96 -17zM607 590q0 15 4 29q4 19 16 36h-62q0 -9 2 -16q0 -3 3 -49v-382q0 -33 -19 -53q16 -15 33 -45q37 27 96 49l163 67l-1 -322l-4 -40h49q-6 18 -6 67l1 767q0 12 6 24q4 13 14 23h-64q3 -24 5 -66v-413q-12 -6 -129 -50
q-60 -24 -107 -41v415z" />
  </g>

</svg>
