<?xml version="1.0" standalone="no"?>
<!DOCTYPE svg PUBLIC "-//W3C//DTD SVG 1.1//EN" "http://www.w3.org/Graphics/SVG/1.1/DTD/svg11.dtd" >
<svg xmlns="http://www.w3.org/2000/svg" xmlns:xlink="http://www.w3.org/1999/xlink" version="1.1" viewBox="-10 0 1034 1024">
  <g transform="matrix(1 0 0 -1 0 820)">
   <path fill="currentColor"
d="M361 16q16 3 33 8l6 49q-28 -12 -60 -21q-36 -10 -102 -26q-91 -21 -121 -27t-62 -8q12 -28 17 -54q30 12 71 24l133 34zM174 452q-24 0 -46 -3q57 88 115 170q36 57 52 78q10 15 39 25l-49 28q-12 6 -13 8q-9 -24 -20 -45q-12 -24 -33 -59q-30 -52 -54 -89
q-21 -33 -50 -68q-28 -34 -56 -49q9 -24 15 -46l35 7q16 1 36 5l122 11q-46 -67 -111 -150q-36 -40 -54 -56q-18 -13 -39 -19q7 -25 13 -49q34 9 90 17q220 25 241 28l11 47q-42 -10 -110 -19l-164 -18l90 110l115 156q40 61 57 77q12 12 36 17l-58 43q-27 -58 -94 -150
q-18 0 -116 -7zM782 493q-46 -544 -46 -569q0 -27 22 -45q21 -15 72 -15q27 0 54 5q21 4 42 21q21 18 36 77q3 16 8 31q-27 13 -44 26l-2 2q-1 -72 -19 -98q-18 -24 -70 -24q-22 0 -35 4q-25 6 -24 29l45 526q0 24 8 71q-48 -6 -68 -7l-143 -6q3 60 4 172q0 48 23 76
q-24 0 -69 4q1 -30 3 -59q0 -108 2 -119l-1 -75l-109 -2q-6 1 -49 2l3 -49q45 9 60 9l95 4l-4 -97q0 -37 -3 -60q-1 -21 -6 -48l-86 70q-13 -18 -28 -34q37 -21 106 -81q-30 -132 -103 -223q-66 -78 -159 -116q33 -21 50 -39q13 7 22 14q15 10 31 25q60 52 107 119
q57 82 86 189q57 -45 94 -90l30 39q-103 90 -114 100l11 122q3 42 4 112z" />
  </g>

</svg>
