<?xml version="1.0" standalone="no"?>
<!DOCTYPE svg PUBLIC "-//W3C//DTD SVG 1.1//EN" "http://www.w3.org/Graphics/SVG/1.1/DTD/svg11.dtd" >
<svg xmlns="http://www.w3.org/2000/svg" xmlns:xlink="http://www.w3.org/1999/xlink" version="1.1" viewBox="-10 0 1034 1024">
  <g transform="matrix(1 0 0 -1 0 820)">
   <path fill="currentColor"
d="M271 728q-34 -72 -99 -167q-60 -78 -63 -83q-13 -15 -39 -23q9 -24 17 -57q61 12 70 12q67 4 142 7q-21 -30 -54 -70q-36 -45 -89 -104q-36 -39 -65 -47l16 -58q25 12 79 19q42 4 89 9l132 7q6 25 12 43q1 3 3 7q-27 -9 -84 -17l-71 -7l-101 -6q33 43 85 102l21 25
q87 105 106 129q42 54 54 65q12 12 41 32q-54 36 -56 37q-48 -78 -89 -131l-193 -3q19 24 55 76q1 4 6 9q105 148 108 151q13 15 29 24q-3 0 -19 10q-13 12 -35 26q-4 -7 -8 -17zM90 -32q9 -22 18 -60q63 33 323 89q3 33 11 55q-25 -13 -73 -26l-113 -29q-39 -9 -75 -16
q-36 -6 -91 -13zM883 680q-33 -1 -68 -5l-274 1q-19 3 -18 2q-6 1 -14 2v-46q3 0 64 5h267v-289l-276 1q-12 3 -41 4h-5q6 -60 6 -65l1 -350q0 -7 3 -15q12 -30 42 -39q42 -12 150 -12q117 0 165 20q37 16 53 64q3 9 6 22q3 16 9 50q-9 0 -18 4q-10 3 -31 14v-17
q0 -27 -5 -46q-10 -48 -45 -60q-28 -12 -125 -12q-45 0 -73 2q-36 1 -55 6q-39 7 -39 61v332l274 -1l47 -4q-3 33 -5 67l1 257q0 19 4 47v0z" />
  </g>

</svg>
