<?xml version="1.0" standalone="no"?>
<!DOCTYPE svg PUBLIC "-//W3C//DTD SVG 1.1//EN" "http://www.w3.org/Graphics/SVG/1.1/DTD/svg11.dtd" >
<svg xmlns="http://www.w3.org/2000/svg" xmlns:xlink="http://www.w3.org/1999/xlink" version="1.1" viewBox="-10 0 1010 1000">
   <path fill="currentColor"
d="M841 18q72 73 72 97q-3 2 -17 2q-65 -1 -168 14v260q162 3 216 -10v92q-18 -4 -60 -5q-45 -1 -156 -1v242q-3 120 6 188h-99q14 -76 14 -188v-242q-180 0 -211 6v-88q8 0 22 2q61 6 189 4v-248q-41 8 -117 21q-45 8 -72 13q-7 -43 -35 -85q235 -8 416 -74zM454 649
q-12 46 -4 88q-251 43 -365 87q4 21 -27 -107q203 -18 396 -68zM234 -13q102 39 109 53q-1 3 -8 9q-21 18 -37 45q-7 12 -22 36q-84 135 -101 160l121 -6q38 -70 53 -115q81 41 91 58q0 2 -7 6q-19 11 -32 29q-124 180 -191 266q123 -6 203 -22q-13 29 -12 78
q-219 14 -290 33q-1 -6 -2 -16q-4 -37 -16 -73q51 9 169 -178q-114 8 -169 21q-6 -48 -18 -83q91 -36 159 -301z" />
</svg>
