<?xml version="1.0" standalone="no"?>
<!DOCTYPE svg PUBLIC "-//W3C//DTD SVG 1.1//EN" "http://www.w3.org/Graphics/SVG/1.1/DTD/svg11.dtd" >
<svg xmlns="http://www.w3.org/2000/svg" xmlns:xlink="http://www.w3.org/1999/xlink" version="1.1" viewBox="-10 0 1034 1024">
  <g transform="matrix(1 0 0 -1 0 820)">
   <path fill="currentColor"
d="M74 433q1 -6 5 -14l12 -32q19 7 35 10q1 0 18 2l62 6q7 0 17 2l71 6q-54 -70 -86 -108l-50 -56q-49 -51 -83 -57q9 -18 21 -58q18 3 35 9q21 6 49 9l224 27q1 12 4 29q1 10 5 20q-84 -25 -264 -40q109 118 225 262q18 21 31 40q6 9 21 26q9 12 43 38q-36 18 -56 33
q-1 -1 -2 -5q-27 -48 -66 -105q-10 -15 -28 -31l-173 -7q15 31 32 56q16 27 35 54q45 76 64 105q9 18 22 34q10 18 34 36q-36 12 -62 27q-21 -57 -47 -109l-54 -93q-34 -57 -45 -71q-24 -31 -52 -39zM411 20q3 1 14 4q1 24 10 56q-34 -16 -67 -27q-42 -12 -107 -26
q-108 -21 -177 -24q12 -33 17 -57q33 13 59 19q10 0 182 41q34 7 69 14zM418 -146q24 18 47 39q70 60 118 129q49 75 73 170q21 94 27 265l4 114q0 21 3 67h185l-9 -444q-4 -171 -8 -192q-6 -57 -34 -72q-31 -15 -80 -15q-19 0 -45 5l20 -52q57 3 94 16q75 19 84 101
q4 79 7 172l8 434l7 88q-21 -1 -36 -2q-25 -3 -75 -3l-307 1q-18 3 -22 3q-3 1 -6 1v-46q19 4 50 5h127q-9 -268 -14 -327l-3 -20q-21 -180 -131 -304q-67 -67 -139 -94zM474 236q21 48 33 78q10 27 22 64q15 49 37 72q-10 4 -21 7q-10 0 -38 14q-15 -84 -41 -141
q-25 -55 -50 -83q15 -1 23 -3q10 -3 35 -8v0z" />
  </g>

</svg>
