<?xml version="1.0" standalone="no"?>
<!DOCTYPE svg PUBLIC "-//W3C//DTD SVG 1.1//EN" "http://www.w3.org/Graphics/SVG/1.1/DTD/svg11.dtd" >
<svg xmlns="http://www.w3.org/2000/svg" xmlns:xlink="http://www.w3.org/1999/xlink" version="1.1" viewBox="-10 0 1010 1000">
   <path fill="currentColor"
d="M730 0q29 81 46 147l-89 14q-12 -70 -46 -147zM264 4q95 48 93 60q-1 3 -9 7q-24 10 -44 39q-34 46 -139 200q12 0 35 -1q75 -3 100 -3q51 -75 85 -143q86 63 79 70q-1 2 -5 4q-21 9 -48 45q-86 111 -193 234q108 -15 199 -28q-14 33 -14 78q-187 13 -302 40
q-6 -48 -18 -80q67 -5 173 -161q-110 9 -181 24q1 -33 -15 -81q74 -19 204 -304zM946 175v83q-58 -6 -123 -6h-254q1 185 -4 264q-5 91 -21 153q-27 123 -137 236q-35 -32 -90 -49q174 -121 173 -352v-208q0 -73 -6 -121q54 6 141 6h196q69 0 125 -6zM419 639q-12 38 -12 82
q-226 37 -330 75q-12 -67 -25 -99q169 -11 367 -58z" />
</svg>
