<?xml version="1.0" standalone="no"?>
<!DOCTYPE svg PUBLIC "-//W3C//DTD SVG 1.1//EN" "http://www.w3.org/Graphics/SVG/1.1/DTD/svg11.dtd" >
<svg xmlns="http://www.w3.org/2000/svg" xmlns:xlink="http://www.w3.org/1999/xlink" version="1.1" viewBox="-10 0 1010 1000">
   <path fill="currentColor"
d="M905 96q-7 80 -18 379q-8 202 -12 275q0 66 -32 84q-30 23 -143 37q-3 -68 -49 -105q91 12 113 2q26 -7 28 -51q7 -93 16 -343q4 -130 7 -201h-99q-15 373 -64 470q-45 127 -225 250q-34 -43 -90 -61q184 -86 238 -215q57 -111 60 -446q-115 -1 -165 16v-91q36 6 143 6
h177q91 0 115 -6zM484 276q98 14 93 20q0 5 -5 12q-12 16 -16 46q-14 103 -40 194q-44 -13 -93 -4q47 -74 61 -268zM226 -6q98 37 109 54q-1 3 -8 9q-21 18 -37 45q-7 12 -22 36q-84 135 -101 160l121 -6q40 -74 53 -115q86 42 92 58q0 2 -6 5q-21 10 -34 30
q-124 180 -191 266q152 -4 209 -30q-18 44 -18 86q-219 14 -290 33q-1 -6 -2 -16q-4 -37 -16 -73q51 9 169 -178q-120 8 -169 21q-6 -48 -18 -83q91 -36 159 -302zM407 665l-8 83q-52 -1 -314 64q3 18 -25 -97q3 15 347 -50z" />
</svg>
