<?xml version="1.0" standalone="no"?>
<!DOCTYPE svg PUBLIC "-//W3C//DTD SVG 1.1//EN" "http://www.w3.org/Graphics/SVG/1.1/DTD/svg11.dtd" >
<svg xmlns="http://www.w3.org/2000/svg" xmlns:xlink="http://www.w3.org/1999/xlink" version="1.1" viewBox="-10 0 1010 1000">
   <path fill="currentColor"
d="M579 12q91 15 109 30q0 4 -7 9q-21 15 -32 43q-4 7 -11 25q-17 35 -27 56h173q91 0 151 -10v83q-29 -3 -61 -5q-33 -1 -92 -1h-201q-7 12 -31 57q-26 47 -36 64q31 6 85 6h149q60 -1 101 -4v84q-207 100 -286 329q0 34 145 30q104 0 128 -23q28 -18 27 -104q11 9 27 24
q34 34 66 39q-17 96 -54 117q-38 29 -152 28q-168 0 -223 -19q-58 -16 -59 -72q6 -150 242 -365h-109q-64 0 -95 8v-62l-50 76q-11 -6 -26 -16q-32 -23 -65 -22q152 -152 214 -405zM405 691l-14 93q-137 16 -329 76l-24 -96q197 -18 367 -73zM208 22q91 31 115 54
q-1 3 -8 10q-22 17 -39 43q-21 32 -63 95q-55 83 -68 102l129 -6q40 -66 55 -115q53 23 98 57q0 2 -7 6q-21 11 -35 30q-109 151 -202 266q161 -4 222 -30l-20 85q-236 14 -308 34l-19 -89q51 10 180 -179q-123 8 -180 22l-18 -83q94 -34 168 -302z" />
</svg>
