<?xml version="1.0" standalone="no"?>
<!DOCTYPE svg PUBLIC "-//W3C//DTD SVG 1.1//EN" "http://www.w3.org/Graphics/SVG/1.1/DTD/svg11.dtd" >
<svg xmlns="http://www.w3.org/2000/svg" xmlns:xlink="http://www.w3.org/1999/xlink" version="1.1" viewBox="-10 0 1010 1000">
   <path fill="currentColor"
d="M224 14q108 60 93 60q-1 5 -9 10q-23 14 -44 49q-55 91 -133 181l177 -12q50 -74 73 -127q23 18 54 41q38 27 33 30q-1 4 -11 12q-38 26 -78 76q-93 115 -196 208q160 -18 261 -46l-15 90q-244 19 -342 45l-24 -95q66 -19 199 -169q-119 6 -197 28l-27 -87
q104 -94 186 -294zM476 74q36 3 151 4h147q73 0 101 -6q-6 33 -6 85v224q0 65 1 87q1 27 3 38h-91l4 -53h-205v287q-1 40 14 51q13 12 64 11h135q59 13 71 -141q1 -1 6 3q28 23 89 53q-28 105 -52 134q-21 32 -73 30h-216q-72 1 -96 -22q-26 -20 -25 -83v-301q0 -63 -6 -104
q32 6 99 6h195v-224h-159q-71 0 -98 1q-34 1 -53 3v-83zM448 677l-10 85q-142 21 -357 80l-29 -102q154 -15 396 -63z" />
</svg>
