<?xml version="1.0" standalone="no"?>
<!DOCTYPE svg PUBLIC "-//W3C//DTD SVG 1.1//EN" "http://www.w3.org/Graphics/SVG/1.1/DTD/svg11.dtd" >
<svg xmlns="http://www.w3.org/2000/svg" xmlns:xlink="http://www.w3.org/1999/xlink" version="1.1" viewBox="-10 0 1034 1024">
  <g transform="matrix(1 0 0 -1 0 820)">
   <path fill="currentColor"
d="M328 161l82 16q1 18 3 30q3 7 6 21q-27 -9 -53 -17q-207 -36 -213 -37q27 33 59 78l121 169q30 45 65 91q13 18 36 31q-37 24 -56 42q-25 -51 -45 -85q-18 -30 -41 -65l-181 -15l54 85q106 183 111 187q9 13 32 30q0 1 3 2q-25 7 -65 29q-10 -36 -39 -93l-65 -121
q-33 -58 -44 -72q-28 -39 -56 -51q12 -21 24 -50q40 16 200 29l-77 -111q-18 -25 -34 -45q-28 -36 -44 -51q-13 -10 -33 -18q15 -36 20 -58q24 10 56 19zM113 -87q52 19 64 22q4 1 216 58q10 4 22 8q0 18 12 54q-12 -6 -50 -20q-39 -13 -100 -31q-63 -16 -127 -31
q-72 -15 -88 -16q6 -15 10 -26q3 -10 7 -29q16 6 34 11zM985 400q-87 24 -170 105q-88 82 -154 210q6 18 21 37q-27 4 -57 14q-9 -36 -43 -111q-63 -120 -153 -217q-52 -51 -96 -71q21 -13 49 -38q87 85 148 166q55 75 107 179q46 -90 115 -164q49 -52 81 -79
q39 -33 100 -76q1 0 3 3q6 3 36 33q6 4 13 9zM588 326q0 40 20 66h-63q4 -39 5 -66l1 -417q3 -24 16 -37q18 -15 63 -19q37 0 76 -2q60 0 103 4q34 4 58 24q24 21 54 116q-15 4 -21 8q-7 3 -25 15q-6 -33 -16 -69q-13 -51 -61 -57q-24 -1 -90 -2l-79 3q-24 3 -33 14
q-7 12 -8 45v169q36 19 80 47q51 30 118 73q45 30 84 43q-15 10 -31 26q-9 9 -18 17q-15 -18 -64 -55q-112 -79 -169 -107v161z" />
  </g>

</svg>
