<?xml version="1.0" standalone="no"?>
<!DOCTYPE svg PUBLIC "-//W3C//DTD SVG 1.1//EN" "http://www.w3.org/Graphics/SVG/1.1/DTD/svg11.dtd" >
<svg xmlns="http://www.w3.org/2000/svg" xmlns:xlink="http://www.w3.org/1999/xlink" version="1.1" viewBox="-10 0 1034 1024">
  <g transform="matrix(1 0 0 -1 0 820)">
   <path fill="currentColor"
d="M255 413l-101 -153q-30 -37 -47 -57q-16 -13 -34 -23q-3 0 -3 -1q12 -24 18 -45q63 18 74 20q9 3 86 16q1 1 5 1l149 20q1 22 5 43q-28 -7 -60 -13l-197 -29l111 163l74 113q24 36 41 60q13 19 23 25q4 3 9 6q4 1 10 5q-27 9 -55 29q-27 -63 -84 -147l-161 -7l59 102
q21 36 43 79q33 63 50 86q10 15 33 22q-15 6 -28 12l-35 18q-3 -9 -27 -71q-22 -45 -77 -145q-10 -15 -19 -31q-31 -48 -58 -72q9 -19 17 -44q42 9 93 12zM411 34q-30 -12 -68 -25q-45 -15 -120 -36q-61 -18 -98 -27q-27 -6 -54 -10q12 -22 22 -50q42 18 96 37l218 67
q1 22 4 44zM494 419h86q28 0 50 -3q-3 0 15 -2v46q-33 -1 -65 -5h-86v229q0 16 2 35q0 13 11 32h-59q6 -24 6 -67v-730q0 -43 -18 -59q15 -15 36 -40q22 28 86 78q43 34 87 71q-9 28 -12 49q-39 -39 -68 -66q-28 -24 -71 -57v489zM733 690q0 16 2 35q0 12 12 32h-59
q4 -27 5 -67v-725q0 -61 50 -76q22 -6 84 -7q69 0 97 35q21 30 36 93q-21 6 -50 27q-1 -40 -3 -54q-4 -28 -23 -45q-19 -16 -66 -17q-60 0 -73 15q-12 12 -12 44v407l91 61l55 34q33 18 59 19q-22 34 -25 38q-6 9 -11 17q-21 -21 -50 -44l-119 -83v261z" />
  </g>

</svg>
