<?xml version="1.0" standalone="no"?>
<!DOCTYPE svg PUBLIC "-//W3C//DTD SVG 1.1//EN" "http://www.w3.org/Graphics/SVG/1.1/DTD/svg11.dtd" >
<svg xmlns="http://www.w3.org/2000/svg" xmlns:xlink="http://www.w3.org/1999/xlink" version="1.1" viewBox="-10 0 1034 1024">
  <g transform="matrix(1 0 0 -1 0 820)">
   <path fill="currentColor"
d="M174 273q-12 -15 -22 -31q-31 -40 -60 -47q15 -27 23 -51q21 9 45 13q6 3 52 9q22 4 153 17q0 18 12 51q-24 -9 -62 -17q-57 -7 -145 -15q22 31 57 88l61 98l52 80q33 48 58 70q-25 6 -57 28q-9 -25 -38 -81l-20 -32l-150 -6q16 36 61 111q21 36 41 74q34 61 42 68
q6 7 20 16q-28 10 -58 29q-34 -102 -98 -209q-30 -52 -41 -67q-9 -12 -30 -22q12 -25 16 -38q0 -3 2 -11q15 6 53 13l121 6q-76 -123 -88 -144zM237 21q-115 -33 -162 -39q9 -13 17 -34q3 -13 7 -21q27 15 75 32l200 64q0 15 3 19q3 12 8 36q-24 -15 -73 -32
q-37 -12 -75 -25zM428 711q4 -60 5 -66l2 -725q0 -46 -4 -63q-1 -1 -1 -4h49q-6 18 -6 67v750h402v-726q0 -7 -2 -22q-1 -10 -12 -16q-24 -6 -48 -7q-9 0 -43 4q9 -18 16 -49q54 4 79 11q48 12 48 62l1 737l4 47q-33 -1 -68 -5l-375 1q-15 3 -47 4zM543 51q27 31 72 97
l50 78q15 24 28 51q46 -69 61 -93q7 -15 44 -79q6 -15 12 -27q15 10 37 29l-35 60q-24 39 -49 77l-39 58q-4 9 -11 19q1 6 5 12q7 21 17 41l30 75l32 71q7 16 24 30q-9 1 -13 4q-15 4 -28 8q-9 3 -16 8q-12 -36 -23 -73q-12 -39 -24 -68q-10 -28 -31 -74q-9 12 -14 23
l-38 50l-77 108q-7 -6 -15 -14q-3 -3 -8 -5q-6 -3 -15 -10q18 -16 55 -63l57 -74q18 -24 35 -53q-15 -33 -37 -71q-21 -39 -48 -76q-25 -36 -48 -61q-18 -18 -39 -34q40 -15 49 -24v0z" />
  </g>

</svg>
