<?xml version="1.0" standalone="no"?>
<!DOCTYPE svg PUBLIC "-//W3C//DTD SVG 1.1//EN" "http://www.w3.org/Graphics/SVG/1.1/DTD/svg11.dtd" >
<svg xmlns="http://www.w3.org/2000/svg" xmlns:xlink="http://www.w3.org/1999/xlink" version="1.1" viewBox="-10 0 1010 1000">
   <path fill="currentColor"
d="M200 14q97 42 98 56q-3 7 -23 24q-18 14 -23 21q-104 171 -129 199l2 6l139 -16q51 -83 63 -124q1 -5 2 -7q100 45 92 58q-3 5 -13 11q-21 14 -37 38q-129 179 -210 260l4 2q4 0 12 -1q154 -15 216 -37l-8 82q-89 11 -193 23q-84 10 -111 14l-21 -87q29 14 170 -171
q-86 3 -167 28l-21 -97q69 -18 158 -282zM847 40q62 77 56 95q-26 -6 -177 3q-8 1 -12 1v117q0 67 4 119q102 -2 199 -10v82q0 1 -11 0q-71 -6 -180 -6q13 156 93 294q11 17 19 20q8 2 13 -11q13 -29 14 -79q36 47 79 68q-36 138 -71 142q-172 -57 -226 -432q-23 0 -139 4
q-2 89 -4 201q-1 69 -2 100l115 -87q6 44 28 74q-133 90 -199 148l-57 -75l2 -2q32 -24 32 -38q11 -163 13 -341q2 -181 -5 -347q98 8 215 -3q120 -12 201 -37zM639 143q-5 0 -17 1q-65 3 -110 7q-2 100 -4 228q39 2 109 -1q16 -1 24 -1q0 -5 -1 -16q-3 -75 -1 -103v-115z
M373 677q-12 39 0 83q-174 33 -304 66l-25 -99q147 -6 329 -50z" />
</svg>
