<?xml version="1.0" standalone="no"?>
<!DOCTYPE svg PUBLIC "-//W3C//DTD SVG 1.1//EN" "http://www.w3.org/Graphics/SVG/1.1/DTD/svg11.dtd" >
<svg xmlns="http://www.w3.org/2000/svg" xmlns:xlink="http://www.w3.org/1999/xlink" version="1.1" viewBox="-10 0 1034 1024">
  <g transform="matrix(1 0 0 -1 0 820)">
   <path fill="currentColor"
d="M71 -34q9 -10 13 -18l19 -37q12 9 38 19q1 0 44 16q40 13 79 25q60 15 118 34q6 3 14 4q0 13 6 34q1 13 4 18q-27 -13 -60 -25q-36 -12 -99 -30q-52 -15 -95 -25q-39 -9 -81 -15zM276 416q-34 -58 -62 -102q-24 -36 -45 -66q-39 -48 -72 -57q12 -31 27 -55q60 18 80 22
q25 6 86 12l92 10q3 21 13 51q-63 -22 -220 -38q1 3 68 96q1 6 5 9q108 174 123 192q18 27 29 37q6 7 15 13q-15 6 -25 12q-9 6 -16 11q-9 4 -16 9q-22 -57 -62 -123l-166 -7q10 19 18 34l75 129q39 69 50 80q10 18 29 31q-27 12 -58 33q-7 -31 -47 -110q-36 -70 -78 -140
q-24 -39 -47 -53q12 -18 24 -53l90 15q24 0 56 5zM551 -75q-132 0 -153 2q-6 3 -18 3v-46q39 4 45 5l498 -1q4 0 38 -4v46q-24 -4 -66 -5h-53q0 36 3 77l9 150q27 468 30 488q1 19 5 36q-72 -4 -94 -5l-333 3q-4 1 -8 1q-3 1 -6 1v-46q12 1 25 3l139 2l-26 -314
q-93 0 -118 2q-6 3 -19 3v-46q1 0 64 5h69zM586 -75l33 360h205l-21 -360h-217zM624 321l25 314h195l-18 -314h-202z" />
  </g>

</svg>
