<?xml version="1.0" standalone="no"?>
<!DOCTYPE svg PUBLIC "-//W3C//DTD SVG 1.1//EN" "http://www.w3.org/Graphics/SVG/1.1/DTD/svg11.dtd" >
<svg xmlns="http://www.w3.org/2000/svg" xmlns:xlink="http://www.w3.org/1999/xlink" version="1.1" viewBox="-10 0 1010 1000">
   <path fill="currentColor"
d="M528 4q28 2 67 4q51 1 48 8q1 4 -4 10q-14 17 -18 50q-7 45 -4 162l161 -29q44 -8 87 -21q16 -5 16 -3l16 85q-2 1 -9 1q-37 -2 -102 9l-169 28v69q1 25 2 48l181 -34q52 -10 97 -25q11 -4 14 -4l14 91q-2 1 -11 0q-38 -3 -104 8l-181 31q16 81 46 143q62 -52 111 -141
q6 4 19 11q83 49 78 55q-1 7 -19 17q-65 39 -154 124q69 92 113 99q21 -28 22 -103q38 37 95 59q-39 152 -81 153q-85 -8 -212 -155q-140 102 -234 145l-88 -71q145 -32 288 -139q-39 -79 -57 -181l-46 10q-64 14 -101 28q-8 3 -10 2l-12 -91q1 -1 7 -1q33 4 98 -9l54 -10
q-1 -14 -3 -39q-5 -51 -5 -76l-54 12q-43 9 -76 22q-12 4 -13 2l-14 -78q-1 -2 34 -6q44 -4 63 -8l60 -12q0 -83 -7 -203q-2 -31 -3 -47zM744 24q52 50 93 119l-89 46q-25 -67 -81 -119zM421 665l-4 87q-42 9 -197 48q-111 27 -141 34l-29 -107q112 0 371 -62zM175 552
q143 -21 212 -42l-16 82q-19 3 -126 22q-132 23 -150 25l-28 -87q67 -38 167 -189q-28 7 -95 20q-49 10 -64 14l-25 -89q83 -62 164 -302q120 39 109 52q-1 7 -12 12q-24 12 -39 38q-9 14 -26 42q-55 94 -105 168l129 -20q42 -61 63 -131q18 8 47 21q62 25 53 33q-1 3 -9 10
q-86 69 -249 321z" />
</svg>
