<?xml version="1.0" standalone="no"?>
<!DOCTYPE svg PUBLIC "-//W3C//DTD SVG 1.1//EN" "http://www.w3.org/Graphics/SVG/1.1/DTD/svg11.dtd" >
<svg xmlns="http://www.w3.org/2000/svg" xmlns:xlink="http://www.w3.org/1999/xlink" version="1.1" viewBox="-10 0 1010 1000">
   <path fill="currentColor"
d="M411 667q-16 44 -10 81q-179 32 -322 82q0 -47 -31 -97q146 -14 363 -66zM427 246v-83q53 9 154 8h88q-27 -74 -80 -139l78 -30q63 85 89 135l-58 34h102q95 0 144 -12v85q-43 -7 -138 -4h-183q-3 78 -10 137h153q79 0 115 -6q-7 44 -20 197q-11 141 -18 188
q-8 72 -47 97q-37 27 -143 34q6 -57 -36 -105q75 14 103 10q33 -3 40 -26q21 -62 32 -323h-181q-33 301 -194 452q-12 -6 -29 -16q-38 -25 -76 -25q237 -93 234 -614q-53 -1 -77 0q-22 1 -42 6zM214 -6q96 36 109 54q-1 3 -8 9q-20 18 -37 45q-13 22 -41 66q-67 109 -82 130
l121 -6q38 -68 53 -115q84 42 92 58q0 2 -6 5q-21 10 -34 30q-110 161 -191 266q152 -4 209 -30q-18 44 -18 86q-219 14 -290 33q-1 -6 -2 -16q-4 -37 -16 -73q51 9 169 -178q-120 8 -169 21q-5 -40 -15 -75q-1 -5 -2 -8q90 -37 158 -302z" />
</svg>
