<?xml version="1.0" standalone="no"?>
<!DOCTYPE svg PUBLIC "-//W3C//DTD SVG 1.1//EN" "http://www.w3.org/Graphics/SVG/1.1/DTD/svg11.dtd" >
<svg xmlns="http://www.w3.org/2000/svg" xmlns:xlink="http://www.w3.org/1999/xlink" version="1.1" viewBox="-10 0 1034 1024">
  <g transform="matrix(1 0 0 -1 0 820)">
   <path fill="currentColor"
d="M401 178l9 46q-25 -6 -65 -13l-162 -21q-18 -3 -34 -5l156 213l70 102q3 3 6 9q0 -1 7 10q15 24 18 25q16 19 40 28q-30 18 -57 37q-22 -48 -46 -86q-22 -37 -56 -82l-166 -6l69 108l12 20q43 69 54 89q21 36 29 48q6 9 28 20q-15 4 -28 11q-12 6 -29 17
q-24 -64 -103 -197q-37 -60 -54 -81q-21 -24 -43 -38q7 -19 13 -44q31 6 62 9q16 0 38 2l92 5q-55 -84 -101 -142q-57 -64 -95 -84q18 -40 19 -44q43 12 110 18zM422 50q-27 -10 -47 -17l-44 -10l-81 -19q-105 -18 -117 -23q-9 -1 -21 -4q-18 -3 -51 -6q10 -21 21 -52
q36 10 72 21l116 28l149 37zM487 446q-34 1 -70 3q-4 0 -9 1q-1 1 -8 2v-47q54 6 87 6v-467q0 -12 -3 -38q0 -15 -2 -33l75 6l343 -1q22 0 38 -5v47q-9 -3 -25 -4q-21 0 -40 -2h-348v497h104v-289q0 -13 -2 -37q0 -16 -3 -32q60 4 95 5q69 0 83 -2q21 0 43 -3q-4 57 -5 108
v250q87 0 100 -2q12 0 25 -4v47q-7 -1 -59 -6h-66v227q0 16 2 35q0 13 11 32h-56q4 -30 5 -67v-227h-134l1 253q0 9 4 29q3 6 8 15h-57q4 -30 5 -67v-230h-104v151q0 16 2 35q0 13 12 32h-57q4 -30 5 -67v-151zM668 94v317h134v-317h-134z" />
  </g>

</svg>
