<?xml version="1.0" standalone="no"?>
<!DOCTYPE svg PUBLIC "-//W3C//DTD SVG 1.1//EN" "http://www.w3.org/Graphics/SVG/1.1/DTD/svg11.dtd" >
<svg xmlns="http://www.w3.org/2000/svg" xmlns:xlink="http://www.w3.org/1999/xlink" version="1.1" viewBox="-10 0 1010 1000">
   <path fill="currentColor"
d="M762 -2q10 0 27 1q78 1 78 7q2 2 -2 10q-18 42 -18 117v86q67 0 115 -6v81q-36 -6 -115 -6v476q1 83 8 131h-91q4 -29 4 -89h-206q-3 46 3 83h-89q6 -45 6 -139v-462q-48 0 -69 4q1 3 -12 11q-24 14 -34 29q-85 125 -192 244q166 -30 236 -48q-17 39 -16 85
q-138 7 -320 46q-2 -29 -15 -85q53 6 170 -177q-115 10 -165 20q-5 -38 -19 -81q68 -5 168 -336q103 38 101 46q0 4 -8 11q-20 16 -31 39q-37 78 -133 246l127 -4q36 -54 55 -103q38 19 72 45v-65q22 0 75 3q7 1 10 1v-76v-16q1 -78 -6 -111h24q84 -2 81 8q1 2 -2 8
q-17 36 -17 109v78h206v-86v-17q1 -72 -6 -118zM562 288v179h206v-179h-206zM562 536v201h206v-201h-206zM429 691q-7 24 -11 74q0 13 -1 17q-157 26 -348 76q-11 -57 -25 -100q199 -10 385 -67z" />
</svg>
