<?xml version="1.0" standalone="no"?>
<!DOCTYPE svg PUBLIC "-//W3C//DTD SVG 1.1//EN" "http://www.w3.org/Graphics/SVG/1.1/DTD/svg11.dtd" >
<svg xmlns="http://www.w3.org/2000/svg" xmlns:xlink="http://www.w3.org/1999/xlink" version="1.1" viewBox="-10 0 1010 1000">
   <path fill="currentColor"
d="M248 4q73 30 93 54q-1 2 -8 7q-23 16 -37 37q-12 17 -39 57q-65 96 -110 155l129 -2q56 -80 75 -129q79 41 86 57q-1 2 -6 5q-25 12 -48 43q-101 145 -191 240q17 -3 61 -10q101 -15 146 -22q-14 33 -14 82q-190 10 -292 43q-7 -52 -24 -91q64 -3 173 -163q-95 4 -180 30
q-1 -33 -20 -85q75 -15 206 -308zM438 60q66 6 159 6h179q85 0 139 -6v93q-59 5 -195 116q-14 11 -22 17q24 21 32 30q-39 17 -53 32h156q62 0 115 -6q-22 53 -58 141q-15 37 -21 53q-35 -16 -87 -20q8 -16 23 -43q22 -44 30 -56h-123v377q2 55 -27 71q-28 19 -133 28
q-2 -55 -36 -103q122 31 111 -42v-331h-79q-84 0 -149 6v-81q77 6 147 6h105q-48 -67 -131 -121l71 -40q42 36 60 55q30 -22 80 -61q41 -32 63 -48h-201q-89 0 -155 6v-79zM409 633q-8 30 -11 82q-1 11 -1 16q-210 43 -318 103q-15 -57 -29 -97q263 -59 359 -104z" />
</svg>
