<?xml version="1.0" standalone="no"?>
<!DOCTYPE svg PUBLIC "-//W3C//DTD SVG 1.1//EN" "http://www.w3.org/Graphics/SVG/1.1/DTD/svg11.dtd" >
<svg xmlns="http://www.w3.org/2000/svg" xmlns:xlink="http://www.w3.org/1999/xlink" version="1.1" viewBox="-10 0 1010 1000">
   <path fill="currentColor"
d="M585 -13q89 13 109 23q0 2 -8 10q-20 22 -29 38q-5 11 -15 30q-17 31 -21 43h133q66 -1 123 -4q-4 7 -11 22q-77 156 -126 230h68q51 0 99 -4q-6 42 -6 96v347q0 56 8 93h-96q4 -33 4 -67h-279q-92 0 -123 4v-84q36 8 121 8h281v-129h-222q-112 0 -143 6v-83q22 4 50 5
t87 1h228v-125h-287q-75 0 -107 6v-82q2 0 6 1q39 7 93 7h131q54 -72 103 -180h-163q-28 36 -87 141q-44 -19 -99 -20q131 -130 178 -333zM397 691l-8 89q-157 27 -326 72l-23 -98q188 -10 357 -63zM206 -2q80 36 100 58q0 1 -5 5q-26 21 -41 45q-16 23 -68 112
q-54 92 -63 102l143 -14q58 -106 65 -141q81 46 92 62q0 3 -11 12q-23 19 -39 41q-100 138 -189 253q-13 17 -19 25q55 -5 230 -40l-8 86q-185 8 -306 41l-22 -93q32 13 171 -183q-75 2 -167 30l-21 -103q68 -18 158 -298z" />
</svg>
