<?xml version="1.0" standalone="no"?>
<!DOCTYPE svg PUBLIC "-//W3C//DTD SVG 1.1//EN" "http://www.w3.org/Graphics/SVG/1.1/DTD/svg11.dtd" >
<svg xmlns="http://www.w3.org/2000/svg" xmlns:xlink="http://www.w3.org/1999/xlink" version="1.1" viewBox="-10 0 1010 1000">
   <path fill="currentColor"
d="M583 -8q63 13 109 44q0 5 -8 12q-32 28 -63 89q254 -7 282 -12q-60 133 -175 270q90 65 240 86q-37 32 -63 93q-149 -58 -230 -131q-96 77 -237 137q-17 -44 -51 -76q138 -36 236 -113q-55 -64 -75 -127q-2 4 -7 12q-63 101 -87 131q-30 -34 -77 -45q126 -138 206 -370z
M774 197q-80 5 -183 6q28 85 84 141q49 -52 99 -147zM599 540q91 36 240 113l-43 78q-113 -84 -244 -123zM403 667l6 79l-320 82l-29 -93zM516 671q188 84 323 173l-65 77q-100 -92 -314 -177zM377 572q-177 24 -275 49q-14 3 -15 2l-39 -87q1 -1 7 -4q73 -26 177 -182
q-82 8 -138 24q-13 4 -15 3l-29 -81q0 -1 7 -8q133 -124 173 -286q90 30 105 48q0 4 -9 10q-18 11 -30 28q-4 5 -11 16q-112 161 -150 190l137 -4q35 -55 73 -149q78 42 90 66q-1 5 -13 11q-17 9 -23 19q-157 223 -230 297q124 -24 214 -42z" />
</svg>
