<?xml version="1.0" standalone="no"?>
<!DOCTYPE svg PUBLIC "-//W3C//DTD SVG 1.1//EN" "http://www.w3.org/Graphics/SVG/1.1/DTD/svg11.dtd" >
<svg xmlns="http://www.w3.org/2000/svg" xmlns:xlink="http://www.w3.org/1999/xlink" version="1.1" viewBox="-10 0 1034 1024">
  <g transform="matrix(1 0 0 -1 0 820)">
   <path fill="currentColor"
d="M95 -86q22 15 78 34l71 22l100 28q25 9 85 23q3 21 8 44q0 3 2 14q-36 -22 -179 -64q-73 -21 -116 -30q-27 -6 -75 -11q18 -37 20 -41q3 -9 6 -19zM120 141q18 6 63 13l109 17l127 15q3 31 14 52q-34 -12 -77 -21l-191 -25q63 72 113 137q48 63 103 141q36 52 46 61
q9 10 34 20q-34 19 -65 41q-3 -13 -7 -23q-3 -9 -13 -25q-15 -28 -33 -57q-12 -22 -35 -53l-163 -4q51 84 102 179q27 57 35 67q15 24 44 41q-27 10 -40 18q-6 3 -26 17q-1 -15 -5 -27q-1 -3 -16 -41q-6 -16 -17 -41q-12 -27 -29 -58q-33 -60 -59 -101q-30 -42 -50 -48
q10 -31 17 -56q45 15 183 19q-33 -46 -60 -81l-55 -65q-45 -48 -76 -58q6 -9 18 -30zM387 -113q33 -16 51 -35q54 60 76 87q45 61 83 128q21 42 57 60q-39 16 -67 32q-6 -31 -29 -73q-63 -115 -111 -159q-30 -30 -60 -40zM501 313l-4 -46q-1 -10 -1 -23q16 1 32 3q24 3 66 3
l247 -1q9 0 45 -5q-4 57 -5 110l1 286l4 48q-31 -1 -64 -5l-280 1q-15 3 -46 4q1 -33 5 -66v-309zM538 285v362h305v-362h-305zM728 133q13 -9 34 -34q24 -30 62 -83l67 -101q15 -25 27 -52q10 12 29 24q6 3 11 7q-18 28 -71 104l-110 152q-6 6 -10 11q-9 -9 -39 -28v0z" />
  </g>

</svg>
