<?xml version="1.0" standalone="no"?>
<!DOCTYPE svg PUBLIC "-//W3C//DTD SVG 1.1//EN" "http://www.w3.org/Graphics/SVG/1.1/DTD/svg11.dtd" >
<svg xmlns="http://www.w3.org/2000/svg" xmlns:xlink="http://www.w3.org/1999/xlink" version="1.1" viewBox="-10 0 1010 1000">
   <path fill="currentColor"
d="M667 -8q98 0 97 8q1 3 -4 14q-16 36 -16 82v53q96 0 165 -6q-8 29 -8 123v18q-1 89 6 119q-42 -9 -163 -8v123q9 0 26 -1q127 -1 172 -11q0 7 -1 21q-4 80 -6 136q-1 74 -23 91q-18 23 -108 42q-14 -56 -46 -93q56 11 75 0q18 -7 20 -52q1 -13 1 -34t1 -35h-109v190v25
q-2 62 6 106h-87q6 -24 8 -129v-192h-78q-21 185 -202 315q-40 -39 -87 -57q189 -90 216 -258q-102 0 -151 6q6 -33 6 -137q0 -76 -6 -127q71 8 149 8v-121q-107 -1 -137 8v-78q71 8 137 8q0 -93 -6 -147q99 4 101 12q0 2 -3 9q-19 42 -19 126h78v-53q0 -75 -4 -104z
M593 211v121h78v-121h-78zM744 211v121h77v-121h-77zM522 395h-74v123h74v-123zM595 395v123h76v-123h-76zM373 655q-11 38 -12 87q-179 37 -296 78l-25 -93q118 -7 333 -72zM379 227q0 4 -10 12q-12 10 -16 17q-5 9 -23 39q-91 159 -143 233q112 -17 162 -30q-17 33 -22 86
q-120 4 -246 37q-5 -36 -18 -89q54 9 157 -178q-8 1 -27 4q-97 11 -135 25q-5 -41 -22 -81q74 -27 145 -298q12 4 34 10q79 22 73 30q-1 3 -6 7q-21 16 -36 47q-2 3 -5 9q-51 102 -104 189l115 -2q44 -73 60 -121q69 44 67 54z" />
</svg>
