<?xml version="1.0" standalone="no"?>
<!DOCTYPE svg PUBLIC "-//W3C//DTD SVG 1.1//EN" "http://www.w3.org/Graphics/SVG/1.1/DTD/svg11.dtd" >
<svg xmlns="http://www.w3.org/2000/svg" xmlns:xlink="http://www.w3.org/1999/xlink" version="1.1" viewBox="-10 0 1010 1000">
   <path fill="currentColor"
d="M250 12q90 43 91 58q-1 3 -9 8q-19 12 -30 30q-44 67 -145 202q67 -6 145 -12q60 -94 79 -137q87 48 87 68q-1 1 -7 6q-24 18 -40 39q-17 21 -58 74q-133 169 -165 198q10 -1 28 -4q141 -21 214 -34l-15 82q-28 3 -89 9q-174 18 -217 26l-34 -91q1 0 5 -1q25 -1 49 -21
q29 -23 110 -129q15 -19 23 -29q-9 1 -29 4q-106 15 -148 27l-28 -83q2 -2 6 -2q18 -2 42 -36q70 -98 135 -252zM565 149v300h227v-300h-227zM567 590l82 51q-115 162 -199 244q-26 -24 -85 -45q152 -138 202 -250zM768 590q72 79 176 224l-79 53q-107 -163 -167 -230z
M433 669q-9 42 0 83q-259 36 -346 78q-11 -73 -27 -109q231 -7 373 -52zM482 70q43 8 101 8h189q60 -1 103 -8q-5 19 -4 89v292q0 58 8 77q-51 -7 -95 -8h-199q-64 0 -107 8q7 -39 8 -105v-264q0 -17 -3 -63q-1 -17 -1 -26z" />
</svg>
