<?xml version="1.0" standalone="no"?>
<!DOCTYPE svg PUBLIC "-//W3C//DTD SVG 1.1//EN" "http://www.w3.org/Graphics/SVG/1.1/DTD/svg11.dtd" >
<svg xmlns="http://www.w3.org/2000/svg" xmlns:xlink="http://www.w3.org/1999/xlink" version="1.1" viewBox="-10 0 1034 1024">
  <g transform="matrix(1 0 0 -1 0 820)">
   <path fill="currentColor"
d="M349 196q3 21 8 42l-89 -16l-79 -11q-19 -3 -50 -7q9 15 89 112q63 90 96 132q9 13 39 49q15 21 27 27q7 6 23 13q-36 18 -57 36q-13 -31 -26 -50q-16 -27 -51 -75q-3 0 -165 -9q67 103 94 148q48 84 60 101q10 16 38 32q-21 10 -54 35q-18 -43 -38 -82q-21 -40 -55 -95
q-43 -73 -64 -100q-18 -24 -43 -43q9 -18 16 -40q69 12 187 18q-51 -75 -89 -121q-43 -51 -62 -69q-18 -16 -44 -27q15 -39 17 -44q12 3 26 7q19 3 36 8l53 8l79 11zM395 57q-28 -12 -62 -21q-36 -10 -92 -23l-113 -26q-33 -6 -63 -8q4 -9 9 -18q3 -10 11 -31q33 12 85 26
l220 55q1 24 5 46zM546 591q-46 -90 -122 -156q-73 -63 -124 -74q36 -18 51 -36q91 72 137 119q25 28 46 55q22 31 61 92h78q43 -76 83 -120q39 -42 98 -81q57 -36 89 -49q13 22 37 38q-69 15 -142 67q-42 33 -63 60q-22 27 -57 85q162 0 178 -3q1 0 23 -2v46q-33 -1 -66 -5
h-241q4 6 39 82q10 19 33 33q-36 13 -43 17q-9 6 -17 8q-21 -76 -57 -140l-165 3q-6 1 -16 2v-46q30 4 65 5h95zM460 364q-3 0 9 1q27 3 55 5l246 -1q24 -1 50 -5v47q-9 -3 -13 -3q-27 -1 -53 -3l-274 2q-7 3 -20 4v-47zM575 233l342 -3q6 0 10 -2v46q-33 -1 -65 -5l-437 1
q-31 3 -38 4v-46q-3 0 9 1q72 3 76 4h57l-18 -75q-6 -30 -22 -70q37 3 76 5h244q-3 -42 -7 -63q-1 -16 -5 -33q-9 -58 -28 -78q-22 -25 -86 -26q-24 0 -50 7q12 -24 15 -52q45 1 74 6q66 9 91 51q9 15 15 37q3 24 34 192q-36 -1 -72 -5h-244z" />
  </g>

</svg>
