<?xml version="1.0" standalone="no"?>
<!DOCTYPE svg PUBLIC "-//W3C//DTD SVG 1.1//EN" "http://www.w3.org/Graphics/SVG/1.1/DTD/svg11.dtd" >
<svg xmlns="http://www.w3.org/2000/svg" xmlns:xlink="http://www.w3.org/1999/xlink" version="1.1" viewBox="-10 0 1034 1024">
  <g transform="matrix(1 0 0 -1 0 820)">
   <path fill="currentColor"
d="M257 771q-9 -30 -32 -78q-22 -48 -61 -118q-31 -57 -56 -91q-22 -27 -44 -38q15 -49 18 -52q100 21 198 23q-42 -72 -71 -115q-24 -36 -48 -66q-27 -30 -63 -44q12 -30 20 -55l54 18l87 18q60 9 138 25l28 4q3 19 8 39q0 1 2 10q-48 -16 -110 -28l-141 -26q45 64 73 108
l137 219q21 34 33 43q7 7 19 14q-39 18 -59 35q-24 -66 -84 -164q-21 -1 -47 -3l-96 -3q-15 0 -31 -2q39 63 67 112q25 42 50 88q25 49 39 65q9 15 34 33q-34 12 -62 29zM86 -39q13 -27 24 -58q21 13 87 38l229 79q1 24 9 53q-39 -18 -82 -35l-110 -39q-108 -33 -157 -38z
M875 674q0 -147 -4 -209q-6 -63 -17 -81q-19 -30 -85 -30q-18 0 -68 5q18 -33 28 -54q45 1 83 10q84 21 96 105q1 16 3 52l4 155l4 62q1 12 3 26q-49 -4 -68 -5l-355 1q-9 1 -22 2q-3 0 -19 2v-46q45 4 88 5h77q-9 -90 -25 -146q-15 -48 -50 -97q-60 -72 -154 -102
q6 -6 21 -14q7 -4 17 -10q6 -6 14 -12q115 73 169 172q18 37 28 77q9 48 21 132h211zM488 230l5 -91l-1 -261q-3 -19 -5 -44h49q-3 15 -4 44q0 24 -2 48h339q0 -31 -5 -87h48q-4 45 -5 78l1 274l4 50q-33 -1 -68 -5l-309 1q-19 3 -48 4q0 -4 1 -11zM530 -38v238h339v-238
h-339z" />
  </g>

</svg>
