<?xml version="1.0" standalone="no"?>
<!DOCTYPE svg PUBLIC "-//W3C//DTD SVG 1.1//EN" "http://www.w3.org/Graphics/SVG/1.1/DTD/svg11.dtd" >
<svg xmlns="http://www.w3.org/2000/svg" xmlns:xlink="http://www.w3.org/1999/xlink" version="1.1" viewBox="-10 0 1034 1024">
  <g transform="matrix(1 0 0 -1 0 820)">
   <path fill="currentColor"
d="M239 723l-78 -144l-71 -114q-15 -19 -36 -31q10 -37 13 -57q6 3 12 4q33 12 45 13q108 13 123 14q-48 -70 -78 -112q-27 -33 -53 -68q-24 -33 -51 -40q7 -21 12 -39q1 -9 5 -18q30 15 112 29l95 15l58 8q0 15 6 37q0 9 4 14q-16 -6 -107 -25l-110 -19q21 34 54 79
q168 237 171 239q15 19 43 35q-9 6 -22 16q-19 12 -30 24q-18 -39 -85 -138l-120 -9q-22 0 -36 -4q21 39 43 70l37 60q28 51 61 103q31 54 55 70q1 3 4 4q-30 15 -58 32q0 -6 -4 -14q-7 -16 -14 -34zM371 27q1 18 8 42q-31 -15 -91 -33q-45 -10 -88 -22q-39 -9 -77 -16
q-34 -6 -68 -8q6 -24 12 -57q15 4 30 11q64 19 168 44l105 24q0 7 1 15zM563 241l64 -4l2 -1v48q-27 -6 -66 -6h-42q3 58 4 92q0 45 19 80q-24 1 -64 7q3 -87 4 -96q-1 -28 -2 -83q-76 0 -101 2q-7 3 -19 4v-48q12 1 64 5h55q-13 -162 -46 -245q-33 -81 -104 -127
q36 -9 54 -24q21 24 51 70q25 43 37 73q12 33 24 92q12 66 22 161h44zM640 639q1 -33 3 -71l-215 3q-3 0 -9 2v-48q15 4 40 5h185q4 -81 14 -170q4 -55 15 -106q10 -58 32 -151q-51 -81 -106 -140q-33 -34 -53 -51q-16 -12 -37 -20l54 -34q33 36 74 83q42 51 88 115
q33 -88 69 -137q51 -75 93 -75q33 0 61 59q15 36 30 79q-21 7 -44 28q-7 -48 -23 -83q-15 -33 -29 -34q-12 0 -35 29q-4 7 -27 35q-27 37 -69 146q43 87 91 199q21 54 33 74q7 16 29 42q-31 9 -61 23q-18 -66 -38 -122q-10 -30 -28 -68l-44 -98q-18 90 -31 166q-3 39 -10 88
l-10 123l230 -1l32 -4v48q-30 -4 -66 -5h-197l-1 72q0 57 5 104q3 22 14 40q-21 3 -49 3q-7 0 -15 3zM861 613q9 15 16 20q6 6 13 12l-56 61q-24 22 -35 35q-7 9 -17 19q-7 -9 -35 -36q69 -55 110 -114q1 1 4 3v0z" />
  </g>

</svg>
