<?xml version="1.0" standalone="no"?>
<!DOCTYPE svg PUBLIC "-//W3C//DTD SVG 1.1//EN" "http://www.w3.org/Graphics/SVG/1.1/DTD/svg11.dtd" >
<svg xmlns="http://www.w3.org/2000/svg" xmlns:xlink="http://www.w3.org/1999/xlink" version="1.1" viewBox="-10 0 1034 1024">
  <g transform="matrix(1 0 0 -1 0 820)">
   <path fill="currentColor"
d="M407 55q-39 -24 -173 -66q-130 -36 -176 -40q18 -49 19 -53l93 34l119 35q28 9 57 17q30 9 57 16q1 28 4 57zM259 759q-9 3 -16 6q-45 -114 -102 -213q-33 -58 -52 -82q-12 -18 -31 -30q9 -18 13 -31q1 -4 3 -10q30 7 67 12l127 11q-24 -43 -45 -75q-22 -34 -65 -90
q-21 -30 -46 -62q-12 -15 -39 -33q9 -16 18 -42l150 28l157 23q1 24 5 48q-34 -9 -62 -15q-27 -6 -74 -13l-124 -18q34 45 101 141q36 52 90 140q18 31 61 98q18 27 41 39q-6 1 -21 8q-24 9 -41 21q-15 -48 -82 -160l-136 -12q-16 0 -32 -1q1 3 4 9l80 140q0 3 41 79
q6 15 21 34q10 18 35 31q-18 9 -22 9q-12 6 -24 10zM955 366q7 7 15 14l-189 215q-13 -13 -33 -28q61 -66 120 -135l-283 -7l-99 -3q57 72 95 125q37 51 89 128q24 37 59 53q-9 3 -20 8q-27 12 -48 24q-40 -90 -111 -194q-46 -64 -77 -102q-27 -27 -48 -42q10 -21 18 -51
q90 15 121 15q10 0 167 8l164 5q18 -21 38 -51q10 9 22 18zM479 -102q-3 -42 -3 -52q-1 -3 -2 -16h48q-4 54 -5 90h313q0 -49 -3 -68v-2q-1 -3 -2 -16h48q0 7 -2 16q-3 51 -3 71l1 294l4 47q-37 -1 -76 -5l-271 1q-19 3 -52 4q1 -33 5 -66v-298zM517 -45v266h313v-266h-313z
" />
  </g>

</svg>
