<?xml version="1.0" standalone="no"?>
<!DOCTYPE svg PUBLIC "-//W3C//DTD SVG 1.1//EN" "http://www.w3.org/Graphics/SVG/1.1/DTD/svg11.dtd" >
<svg xmlns="http://www.w3.org/2000/svg" xmlns:xlink="http://www.w3.org/1999/xlink" version="1.1" viewBox="-10 0 1010 1000">
   <path fill="currentColor"
d="M661 -15q32 40 57 105l-79 27q-14 -54 -50 -103zM933 119v92q-41 -11 -266 -8q-170 0 -250 8v-88q15 10 175 8h79q212 0 262 -12zM544 248q10 6 29 16q55 29 48 32q-16 8 -60 56q-58 62 -107 109q-39 -27 -85 -32q108 -77 175 -181zM766 248q84 50 184 153l-67 64
q-85 -101 -177 -163zM734 449q11 4 33 10q70 20 66 28q0 2 -6 8q-19 18 -29 39q-50 111 -100 183q91 59 248 87q-38 43 -53 93q-155 -55 -244 -127q-124 87 -242 141q-10 -11 -25 -28q-27 -33 -49 -43q147 -37 260 -123q-68 -112 -109 -244l85 -22q9 102 76 216
q58 -93 89 -218zM417 665q-4 43 -2 83q-168 17 -340 72q-10 -61 -29 -99q198 -11 371 -56zM206 6q104 42 109 54q-1 3 -8 9q-21 18 -37 44q-8 12 -23 38q-83 134 -100 159l121 -6q42 -74 53 -115q91 46 92 57q0 2 -7 6q-20 11 -33 30q-107 157 -190 266q151 -4 208 -30
q-18 44 -18 86q-222 13 -290 33q-1 -6 -2 -16q-4 -37 -16 -73q51 9 169 -179q-116 8 -169 22q-5 -48 -17 -83q90 -37 158 -302z" />
</svg>
