<?xml version="1.0" standalone="no"?>
<!DOCTYPE svg PUBLIC "-//W3C//DTD SVG 1.1//EN" "http://www.w3.org/Graphics/SVG/1.1/DTD/svg11.dtd" >
<svg xmlns="http://www.w3.org/2000/svg" xmlns:xlink="http://www.w3.org/1999/xlink" version="1.1" viewBox="-10 0 1010 1000">
   <path fill="currentColor"
d="M214 -2q18 8 46 22q63 27 55 30q0 6 -13 18q-30 26 -50 59q-43 74 -93 165q-11 22 -18 34l119 -6q43 -86 65 -153q99 49 98 58q0 5 -12 16q-36 31 -64 79q-66 115 -153 242l187 -20l-12 77q-123 2 -270 26l-18 -85q47 -12 147 -183q-72 10 -165 28l-15 -77
q93 -122 166 -330zM603 2q13 1 35 4q76 7 70 10q1 4 -5 12q-7 8 -11 14q58 192 278 288q0 3 -9 9q-35 26 -62 70q-188 -130 -250 -301q-58 152 -135 236l87 6h111q10 -1 92 -4v75l-90 -4h-119l-91 4v-67q-38 43 -81 93q-31 -25 -78 -44q-8 -3 -8 -4q194 -141 266 -397z
M845 695v79q0 56 1 77q1 26 3 42h-85l4 -69h-242l4 67h-88q4 -56 4 -129v-85q0 -123 -6 -165q2 0 9 1q53 5 134 5h111q99 0 145 -5q9 -1 12 -1v2q-6 57 -6 181zM766 590h-240v162h240v-162zM395 705l-4 77q-217 34 -298 62l-28 -96q96 3 330 -43z" />
</svg>
