<?xml version="1.0" standalone="no"?>
<!DOCTYPE svg PUBLIC "-//W3C//DTD SVG 1.1//EN" "http://www.w3.org/Graphics/SVG/1.1/DTD/svg11.dtd" >
<svg xmlns="http://www.w3.org/2000/svg" xmlns:xlink="http://www.w3.org/1999/xlink" version="1.1" viewBox="-10 0 1034 1024">
  <g transform="matrix(1 0 0 -1 0 820)">
   <path fill="currentColor"
d="M324 -3l66 17l9 56q-57 -24 -162 -55q-106 -30 -187 -38q10 -15 20 -38q1 -9 8 -20q33 21 157 55q43 12 89 23zM128 441l46 80q64 115 78 133q24 39 29 41q10 12 26 19q-13 6 -29 14q-15 7 -31 19q-7 -25 -28 -69q-18 -37 -50 -93q-36 -66 -52 -87q-30 -48 -55 -55
q15 -36 21 -53q25 7 43 9l79 5q30 0 57 3l-69 -100q-28 -39 -58 -73q-36 -40 -58 -44q3 -6 21 -60q39 18 91 25l185 22q0 15 11 53q-34 -12 -88 -22q-67 -10 -150 -18q49 61 104 136q51 70 83 123q13 21 24 36q9 12 17 24q9 12 37 31q-21 7 -41 20q-10 6 -21 13
q-9 -36 -67 -129zM710 281v-337q0 -28 8 -50q9 -21 31 -28q21 -9 71 -9q93 0 115 42q15 30 29 85q-3 3 -10 4l-2 1q-6 0 -31 18l-10 -60q-10 -30 -28 -42q-16 -9 -63 -9q-33 0 -46 5q-25 10 -26 54v330l105 5q22 -27 28 -35l14 -21q3 6 23 21q4 4 12 10q-12 15 -132 147
q-25 25 -35 41q-13 -16 -35 -32q24 -19 51 -46q40 -45 45 -51l-321 -15q45 51 85 108q40 60 88 139l246 -1q4 0 25 -4v46q-24 -4 -66 -5l-431 1q-15 0 -32 4v-46q51 4 84 5h126q-48 -87 -112 -171q-36 -45 -55 -60q-18 -13 -40 -16q6 -15 20 -56q24 10 39 12q15 0 75 7
q-1 -114 -13 -178q-12 -60 -37 -101q-63 -93 -199 -111q27 -25 43 -51q36 16 90 50q102 64 128 149q13 48 18 81q6 43 9 113q0 21 2 49zM723 621q12 12 25 21q-24 30 -61 67q-43 43 -60 56q-15 -21 -31 -34q27 -18 41 -32q57 -63 68 -79q3 -4 8 -11q4 6 10 12v0z" />
  </g>

</svg>
