<?xml version="1.0" standalone="no"?>
<!DOCTYPE svg PUBLIC "-//W3C//DTD SVG 1.1//EN" "http://www.w3.org/Graphics/SVG/1.1/DTD/svg11.dtd" >
<svg xmlns="http://www.w3.org/2000/svg" xmlns:xlink="http://www.w3.org/1999/xlink" version="1.1" viewBox="-10 0 1010 1000">
   <path fill="currentColor"
d="M530 -8q108 30 107 36q1 3 -5 8q-30 28 -55 101q187 0 253 -2q70 -2 99 -8q-12 78 -15 420q-1 171 -3 247q0 57 -35 79q-30 22 -134 34q-7 -50 -44 -107q81 16 103 6q24 -8 26 -58q4 -82 10 -329q4 -143 6 -214h-287q-10 17 -36 69q-7 13 -10 20q30 6 73 6q109 0 165 -8
q-10 44 -10 133v234q0 59 6 99h-85q6 -24 6 -51h-125q0 35 2 71h-84q10 -42 10 -93v-318q-10 15 -27 42q-15 24 -34 54q-19 -43 -60 -66q141 -147 183 -405zM540 363v110h127v-110h-127zM540 528v119h127v-119h-127zM407 659q-2 14 -4 34q-7 40 -2 59q-226 47 -326 90
q-10 -70 -25 -105q171 -15 357 -78zM214 -8q93 44 99 56q0 1 -11 13q-29 33 -42 52q-12 19 -52 83q-66 109 -77 120l141 -14q57 -98 65 -131q98 47 92 58q-1 3 -10 9q-22 17 -40 40q-130 170 -206 262q72 -8 228 -38q0 4 -2 11q-4 28 -6 71q-170 7 -304 37q-3 -46 -22 -87
q31 15 171 -171q-86 3 -167 28q-5 -52 -21 -97q68 -19 164 -302z" />
</svg>
