<?xml version="1.0" standalone="no"?>
<!DOCTYPE svg PUBLIC "-//W3C//DTD SVG 1.1//EN" "http://www.w3.org/Graphics/SVG/1.1/DTD/svg11.dtd" >
<svg xmlns="http://www.w3.org/2000/svg" xmlns:xlink="http://www.w3.org/1999/xlink" version="1.1" viewBox="-10 0 1034 1024">
  <g transform="matrix(1 0 0 -1 0 820)">
   <path fill="currentColor"
d="M263 750q-18 -42 -43 -86q-27 -48 -71 -116q-30 -48 -52 -74q-18 -19 -43 -34q12 -21 25 -45q21 9 40 10q42 6 84 10q27 1 56 5q-25 -39 -47 -67q-21 -28 -51 -65q-36 -46 -56 -70q-10 -10 -39 -30l20 -50q18 4 34 11q16 3 36 9l120 20l103 14q1 22 4 44q-36 -7 -100 -18
l-144 -20q3 6 10 14l10 13l68 87l102 141q31 48 44 60q12 12 34 24q-27 13 -57 35q-3 -9 -57 -99l-10 -15l-48 -4q-79 -7 -108 -8q21 37 28 43q127 201 132 203q10 13 30 23q-9 6 -21 13q-9 6 -17 12q-9 6 -16 10zM401 54q-30 -9 -65 -18l-97 -22l-113 -24q-33 -6 -64 -8
l20 -51q82 27 103 31q162 37 205 44q3 1 7 1q1 24 4 47zM951 385q-70 0 -171 40q-45 18 -87 41q99 97 152 191l-70 -6h-214q18 27 36 59q15 24 41 35q-46 18 -60 27q-30 -69 -77 -137q-55 -70 -94 -92q21 -7 47 -25q3 3 47 56q18 19 37 42h231q-25 -37 -48 -65
q-24 -27 -63 -64l-20 16q-12 10 -38 35q-12 10 -34 39q-12 -15 -25 -28q-3 -3 -7 -6q18 -18 33 -30q46 -39 61 -49q-67 -48 -152 -82q-72 -27 -131 -30q16 -16 32 -47q150 40 284 134q105 -66 271 -105q16 28 37 51h-18zM468 74q-4 -13 -8 -28q-4 -16 -11 -32q61 4 96 5h123
q0 -138 -3 -160v-1q-1 -3 -1 -7q-1 -3 -1 -8h48q-4 39 -5 67v109h194q31 0 50 -3l15 -2v46q-33 -1 -65 -5h-194v166l195 -1q13 -1 29 -4v46q-33 -1 -65 -5h-159q0 66 3 73q1 12 10 24h-56q4 -30 5 -68v-29l-183 3q-6 1 -16 2v-46q-3 0 9 1q72 3 74 4h116v-166h-163l15 70
q6 30 27 47q-21 3 -61 13q0 -21 -18 -111v0z" />
  </g>

</svg>
