<?xml version="1.0" standalone="no"?>
<!DOCTYPE svg PUBLIC "-//W3C//DTD SVG 1.1//EN" "http://www.w3.org/Graphics/SVG/1.1/DTD/svg11.dtd" >
<svg xmlns="http://www.w3.org/2000/svg" xmlns:xlink="http://www.w3.org/1999/xlink" version="1.1" viewBox="-10 0 1034 1024">
  <g transform="matrix(1 0 0 -1 0 820)">
   <path fill="currentColor"
d="M75 -56q63 21 70 21l172 41q9 0 18 3q33 6 56 13q6 36 11 45q0 3 2 6q-22 -9 -61 -21q-21 -6 -50 -12l-79 -18q-49 -9 -92 -17q-36 -6 -67 -8q9 -16 15 -35q1 -9 5 -18zM75 405q15 6 48 9l129 9q-33 -54 -61 -93q-22 -33 -45 -62q-27 -33 -43 -50q-13 -10 -31 -16
q12 -15 19 -39q0 -6 5 -17q27 9 78 15l90 10q34 3 70 5q16 0 32 3l1 3q12 36 18 46q-46 -9 -83 -13q-129 -12 -157 -13q15 22 85 117l71 104q57 84 78 110q21 27 45 42q-37 15 -61 27q-63 -109 -86 -139l-151 -5q66 93 75 108q84 126 89 130q13 18 39 32q-9 3 -51 24l-9 6
q-30 -63 -116 -197q-36 -52 -58 -80q-18 -18 -36 -23q7 -25 16 -53zM751 237q-18 -48 -33 -78q-12 -25 -33 -59q61 4 89 5h88l-18 -75q-19 -82 -38 -107q-15 -22 -55 -23q-28 0 -81 6q7 -25 10 -35q1 -7 5 -16q45 0 97 6q15 3 30 9q15 9 29 28q21 28 52 170q10 51 19 78
q-72 -4 -93 -5h-68q10 28 22 55q15 28 40 82q-39 -1 -79 -5l-241 1q-12 1 -25 2q-3 0 -15 2v-46q3 0 62 5h47q-21 -136 -76 -216q-73 -103 -188 -126q21 -15 47 -48q51 31 103 74q51 42 67 70q36 54 54 106q19 54 36 140h146zM592 509q-66 -72 -138 -120q-66 -43 -133 -62
q30 -24 46 -42q141 75 266 211q0 -159 -3 -181v-4q-3 -6 -3 -13h49q-1 6 -5 54v157q28 -45 86 -96q42 -39 78 -63q30 -19 102 -56q18 27 38 46q-60 12 -131 54q-72 46 -128 115h155q31 0 52 -3l13 -2v46q-24 -4 -65 -5h-200v123q27 6 102 15q63 6 114 16q1 1 6 1
q-16 21 -31 47q-27 -9 -57 -17l-70 -13q-36 -6 -73 -9q-93 -9 -153 -10q-28 0 -63 6q9 -16 12 -25q1 -6 4 -12l4 -13q70 1 167 10v-119l-172 1q-12 1 -25 2q-3 0 -15 2v-46q51 4 86 5h85z" />
  </g>

</svg>
