<?xml version="1.0" standalone="no"?>
<!DOCTYPE svg PUBLIC "-//W3C//DTD SVG 1.1//EN" "http://www.w3.org/Graphics/SVG/1.1/DTD/svg11.dtd" >
<svg xmlns="http://www.w3.org/2000/svg" xmlns:xlink="http://www.w3.org/1999/xlink" version="1.1" viewBox="-10 0 1010 1000">
   <path fill="currentColor"
d="M198 -10q103 33 112 48q-1 6 -14 15q-20 13 -30 29q-16 26 -49 91q-45 87 -66 117l113 -14q28 -61 42 -107q87 44 91 58q-1 5 -14 13q-20 14 -28 26q-129 204 -188 276q131 -17 196 -34l-14 82q-160 13 -261 41q-8 2 -9 2l-23 -97q0 -1 3 -1q59 -5 175 -195
q-82 11 -139 28q-15 4 -18 3l-25 -83q0 -1 3 -1q70 -13 143 -297zM597 -8q97 1 105 10q0 5 -6 16q-19 34 -19 74h121q65 0 110 -7q7 -1 9 -1v77q-3 0 -11 -1q-43 -7 -108 -7h-123v62h73q47 0 95 -6q12 -2 16 -2v69q-2 0 -10 -1q-46 -7 -101 -7h-73v62h150q53 0 108 -7
q9 -1 11 -1v77q-2 0 -8 -1q-37 -7 -109 -7h-355q-45 0 -99 6q-13 2 -16 2v-77q3 0 12 1q45 7 103 7h129v-62h-77q-52 0 -95 7q-7 1 -8 1v-69q2 0 13 1q48 7 90 7h79v-62h-107q-58 0 -108 7q-9 1 -11 1v-77q3 0 12 1q42 7 109 7h107q0 -54 -7 -91q-1 -7 -1 -9zM516 449h238
q62 0 103 -6q-8 29 -8 99v54q0 63 7 106q1 8 1 11h-87q6 -19 6 -111v-92h-284v76q0 107 6 129h-85q0 -2 1 -10q7 -50 7 -113v-50q0 -78 -6 -99q19 6 101 6zM591 546q94 5 101 16q1 5 -8 19q-10 15 -11 23q-21 157 -72 196q-41 46 -250 101q-11 -31 -65 -81q186 -8 248 -68
q69 -60 57 -206zM365 669l2 79l-298 62l-23 -81zM710 709q93 40 213 125l-76 73q-92 -90 -192 -139z" />
</svg>
