<?xml version="1.0" standalone="no"?>
<!DOCTYPE svg PUBLIC "-//W3C//DTD SVG 1.1//EN" "http://www.w3.org/Graphics/SVG/1.1/DTD/svg11.dtd" >
<svg xmlns="http://www.w3.org/2000/svg" xmlns:xlink="http://www.w3.org/1999/xlink" version="1.1" viewBox="-10 0 1034 1024">
  <g transform="matrix(1 0 0 -1 0 820)">
   <path fill="currentColor"
d="M285 414q-22 -39 -47 -72q-25 -36 -70 -93q-39 -48 -65 -67q10 -22 21 -44q18 6 71 18l201 36q1 22 4 45q-46 -13 -229 -45q12 15 23 30q42 61 79 107q-4 -7 17 24l96 141q22 39 66 60q-48 30 -59 39q-12 -30 -28 -58q-19 -33 -53 -86l-71 -6q-79 -4 -106 -5
q154 255 161 262q6 9 12 13q7 6 23 13q-39 21 -58 35q-7 -27 -27 -66q-21 -42 -61 -108q-22 -40 -41 -70q-15 -24 -27 -41q-15 -21 -39 -38q12 -24 15 -35q1 -4 3 -10q21 3 38 7q9 1 55 5zM421 57q-87 -33 -177 -56q-60 -15 -100 -23q-33 -6 -69 -11q15 -27 25 -50
q67 22 132 41l86 23q51 12 101 27q0 25 2 49zM537 623q-46 58 -49 63q-6 9 -19 25q-15 -15 -32 -27q81 -94 123 -172q15 13 37 28q-6 12 -19 25zM474 -95q-3 -33 -3 -51q-3 -6 -3 -15h50q-4 19 -5 51l-1 188h355v-147q0 -30 -12 -37q-19 -7 -50 -8q-21 0 -73 7
q12 -21 17 -54q27 0 65 4q51 3 68 13q22 15 23 65l1 492l4 48q-66 -4 -99 -5h-107l1 271q0 21 12 43h-57q6 -18 6 -67v-247h-125q-10 0 -38 3q-15 0 -35 2l6 -76v-480zM512 114v133h355v-133h-355zM512 282v138h355v-138h-355zM941 679q-3 0 -38 35q-27 -39 -51 -69
q-19 -25 -37 -45q-28 -31 -58 -55q21 -10 41 -29l65 78q36 46 51 59q10 9 38 18q-6 4 -11 8v0z" />
  </g>

</svg>
