<?xml version="1.0" standalone="no"?>
<!DOCTYPE svg PUBLIC "-//W3C//DTD SVG 1.1//EN" "http://www.w3.org/Graphics/SVG/1.1/DTD/svg11.dtd" >
<svg xmlns="http://www.w3.org/2000/svg" xmlns:xlink="http://www.w3.org/1999/xlink" version="1.1" viewBox="-10 0 1034 1024">
  <g transform="matrix(1 0 0 -1 0 820)">
   <path fill="currentColor"
d="M73 386q21 9 63 16q105 9 112 10q-39 -61 -62 -91q-30 -42 -72 -95q-13 -12 -24 -22q-7 -3 -17 -8q16 -27 22 -51q4 0 29 8q48 10 59 12l149 19q3 1 38 5q0 10 14 53q0 3 2 5q-36 -15 -78 -23q-27 -6 -64 -11q-42 -6 -102 -14q25 30 64 85l74 106q78 114 85 119
q13 15 35 31q-4 3 -8 4q-6 3 -16 7q-3 0 -25 12q-4 3 -8 7q-27 -58 -68 -118q-120 -7 -150 -8q0 6 24 42q1 6 7 11l70 118q21 34 36 61q24 39 30 45q10 12 30 23q-39 18 -59 31q-9 -33 -63 -132q-49 -93 -91 -152q-30 -43 -54 -55zM117 -59q9 3 17 7q46 18 71 24
q13 6 156 46l18 6q0 21 8 63q-28 -21 -94 -43q-150 -46 -220 -55q4 -9 9 -22q3 -7 9 -36q12 6 26 10zM331 -118q13 -19 27 -54q180 49 254 134q48 55 59 151l8 62q3 13 12 33q-25 1 -59 7q1 -30 2 -47q0 -48 -12 -103q-18 -64 -69 -104q-58 -45 -133 -66q-39 -9 -89 -13z
M642 510v-89h-186q-27 0 -52 3q-1 0 -14 2v-45q1 0 63 5l469 -1l32 -4v45q-24 -4 -66 -5h-207v89q193 0 203 -3q1 0 6 -2v46q-24 -4 -65 -5h-144v83h171q25 0 52 -2q6 0 13 -3v46q-24 -4 -65 -5h-171v38q0 12 3 29q3 21 18 40h-65q1 -6 2 -19q0 -36 3 -75v-13l-187 1
q-12 1 -26 2q-3 0 -15 2v-46q51 4 76 5h152v-83q-141 0 -170 2q-1 0 -21 3v-46q54 4 82 5h109zM457 70q0 -28 -3 -53q0 -4 -3 -14h49q-1 6 -5 55v211h338l-1 -218q-3 -21 -3 -29q0 -1 -2 -8h49q-3 15 -4 34l-1 200q0 21 5 62q-33 -1 -65 -5l-313 1q-7 1 -15 2q-15 0 -32 2
q6 -60 6 -86v-154zM699 -15q18 -6 36 -18q12 -7 104 -77l60 -51q10 19 27 39l-87 67q-52 37 -115 79q-1 -3 -4 -6q-12 -24 -21 -33v0z" />
  </g>

</svg>
