<?xml version="1.0" standalone="no"?>
<!DOCTYPE svg PUBLIC "-//W3C//DTD SVG 1.1//EN" "http://www.w3.org/Graphics/SVG/1.1/DTD/svg11.dtd" >
<svg xmlns="http://www.w3.org/2000/svg" xmlns:xlink="http://www.w3.org/1999/xlink" version="1.1" viewBox="-10 0 1010 1000">
   <path fill="currentColor"
d="M601 -13q93 -3 105 7q1 2 -2 10q-17 40 -17 100v210h103q86 0 131 -6q-6 37 -6 115v369q4 64 -26 82q-30 23 -137 37q-6 -58 -38 -97q118 14 121 -64v-371h-367v393v18q-1 68 4 105h-89q7 -40 6 -106v-15v-363q0 -61 -6 -103q51 6 153 6h71v-208q0 -87 -6 -119zM206 -10
q7 3 20 10q84 41 76 44q-1 3 -7 8q-23 19 -47 61q-8 15 -27 49q-46 87 -82 146q25 -2 70 -2q32 1 47 0q2 -4 7 -11q52 -80 68 -130q88 49 88 58q-1 2 -8 8q-26 20 -46 49q-102 149 -194 258q139 -25 190 -40q-21 51 -20 86q-185 17 -272 41q-3 -46 -25 -95q62 11 178 -165
q-124 9 -172 22q-4 -34 -18 -81q64 12 174 -316zM837 58q89 33 86 46q0 6 -11 13q-20 13 -31 32q-13 23 -51 85q-25 40 -38 62l-68 -36q66 -79 113 -202zM466 70q39 60 101 182l-75 32q-41 -104 -101 -180zM526 481q39 4 122 4q82 0 116 -4q-4 35 -4 127q0 91 4 129
q-22 -4 -110 -5q-90 1 -128 5q4 -38 5 -131q-1 -94 -5 -125zM595 546v125h101v-125h-101zM361 657q-9 24 -8 85v8q-233 57 -295 98q-12 -61 -34 -106q211 -32 337 -85z" />
</svg>
