<?xml version="1.0" standalone="no"?>
<!DOCTYPE svg PUBLIC "-//W3C//DTD SVG 1.1//EN" "http://www.w3.org/Graphics/SVG/1.1/DTD/svg11.dtd" >
<svg xmlns="http://www.w3.org/2000/svg" xmlns:xlink="http://www.w3.org/1999/xlink" version="1.1" viewBox="-10 0 1010 1000">
   <path fill="currentColor"
d="M587 -13q104 2 103 9q0 1 -3 5q-16 26 -16 77h150q74 0 117 -8v77q-2 0 -8 -1q-56 -5 -109 -5h-150v88h137q52 1 85 -8q-6 41 -6 69v208q0 34 6 76q-24 -5 -80 -4h-105v89h135q70 0 111 -6v85q-55 -7 -105 -7h-141v91q0 57 4 89h-85q6 -52 6 -87v-93h-111q-46 0 -66 1
q-23 1 -39 3v-80q46 4 105 4h111v-89h-113q-38 0 -80 6q11 -45 12 -93v-173q0 -42 -4 -87q36 6 78 6h73v-155q-1 -53 -12 -87zM524 288v79h291v-79h-291zM524 427v83h291v-83h-291zM403 685l4 85q-197 27 -338 78l-11 -104q184 -12 345 -59zM218 2q93 41 101 54q0 2 -9 9
q-25 19 -38 39q-12 19 -36 59q-72 121 -109 163l145 -16q10 -17 16 -28q20 -32 36 -79q4 -11 9 -26q5 3 16 9q69 37 66 41q0 2 -6 7q-23 20 -44 54q-94 157 -184 262l212 -34l-10 74q-167 9 -290 41l-24 -93q61 12 169 -167q-113 9 -169 28l-23 -87q27 -14 53 -50
q78 -120 119 -260z" />
</svg>
