<?xml version="1.0" standalone="no"?>
<!DOCTYPE svg PUBLIC "-//W3C//DTD SVG 1.1//EN" "http://www.w3.org/Graphics/SVG/1.1/DTD/svg11.dtd" >
<svg xmlns="http://www.w3.org/2000/svg" xmlns:xlink="http://www.w3.org/1999/xlink" version="1.1" viewBox="-10 0 1034 1024">
  <g transform="matrix(1 0 0 -1 0 820)">
   <path fill="currentColor"
d="M61 -13q9 -21 15 -57q70 30 209 67q51 12 89 25q3 27 15 55q-24 -12 -54 -23q-40 -13 -110 -34q-103 -27 -164 -33zM303 731q-39 19 -53 30q-18 -42 -35 -78q-19 -37 -53 -90q-49 -81 -66 -102q-18 -21 -39 -24l15 -53q16 4 58 7l127 7l-91 -137q-39 -54 -53 -68
q-12 -12 -35 -21q9 -24 16 -56q15 3 30 8q15 3 39 7q30 3 74 9l133 14q9 30 20 52q-36 -12 -85 -20q-84 -10 -162 -17q4 9 11 16q48 66 71 99q21 30 54 81q28 43 58 85q15 24 35 49q13 18 34 29q-45 24 -59 35q-15 -51 -65 -126l-161 -4q30 43 66 101l49 77q9 12 35 51
q15 21 39 36q-4 1 -7 3zM852 339q96 0 105 -3q1 0 6 -2v46q-24 -4 -66 -5l-513 1q-10 1 -22 2q-7 0 -14 2v-46q33 3 66 5h400v-405q0 -34 -19 -45q-18 -7 -68 -8q-16 0 -51 4q7 -19 17 -47q114 4 140 30q18 21 19 66v405zM429 395q162 51 209 164q39 -19 108 -72
q76 -58 99 -85q9 15 21 32q6 6 8 9q-6 6 -143 102q-48 31 -79 50q0 4 2 7l239 -1q6 0 24 -4v46q-30 -4 -66 -5h-189l3 34q6 51 10 63q1 12 17 31q-21 3 -62 8q0 -15 1 -23q0 -19 -4 -52q-3 -33 -8 -61l-161 1q-12 1 -25 2q-3 0 -15 2v-46q51 4 81 5h108q-18 -64 -66 -105
q-61 -48 -145 -56zM448 247q6 -66 6 -88q0 -88 -2 -119q-3 -7 -4 -33v-10q63 6 82 6q121 0 133 -2l45 -4q-4 60 -5 87l1 116l4 47q-66 -6 -102 -6l-110 1q-19 4 -48 5zM665 38h-175v168h175v-168z" />
  </g>

</svg>
