<?xml version="1.0" standalone="no"?>
<!DOCTYPE svg PUBLIC "-//W3C//DTD SVG 1.1//EN" "http://www.w3.org/Graphics/SVG/1.1/DTD/svg11.dtd" >
<svg xmlns="http://www.w3.org/2000/svg" xmlns:xlink="http://www.w3.org/1999/xlink" version="1.1" viewBox="-10 0 1034 1024">
  <g transform="matrix(1 0 0 -1 0 820)">
   <path fill="currentColor"
d="M246 759q-6 -21 -21 -50q-18 -39 -33 -65q-12 -24 -34 -58q-24 -43 -45 -75q-15 -24 -28 -42q-18 -21 -37 -27q12 -27 20 -53q69 12 184 15q-72 -100 -136 -180q-27 -30 -56 -37q12 -27 20 -57q69 21 77 20q67 12 130 18l82 10q1 6 3 10q3 15 6 25q3 6 7 19
q-51 -24 -160 -37l-98 -11q18 19 34 40l45 60q90 120 133 182q34 51 49 66q10 12 33 19q-30 16 -57 38q-9 -27 -38 -77q-28 -48 -48 -71l-172 -3q18 27 37 57q21 33 47 78q60 105 75 125q15 19 41 30q-24 9 -42 21q-9 6 -18 10zM372 -26l2 12l3 16l6 26q-24 -15 -67 -29
q-27 -9 -65 -20q-118 -31 -131 -34l-64 -7q12 -31 20 -59q24 16 50 25q27 7 70 22q153 42 176 48zM634 7q-12 -12 -25 -22q-12 -10 -24 -19l-91 -47q-9 -4 -18 -9l-1 234q141 0 149 -3q4 0 7 -2v46q-30 -4 -66 -5h-89v50q0 15 3 34q1 24 15 39h-61l5 -113l-1 -270
q-4 -16 -22 -32q15 -22 28 -46q22 18 33 25q4 3 113 61q18 9 41 18q1 31 4 61zM429 429q0 -3 -5 -68q34 3 70 5l337 -1l50 -4q-3 33 -5 68l1 252l4 50q-60 -4 -71 -5l-338 1q-19 3 -48 4q1 -33 5 -67v-235zM467 401v125h371v-125h-371zM467 561v129h371v-129h-371zM733 241
q0 15 2 34q3 21 16 39h-61q3 -27 3 -33l2 -79l1 -274q4 -25 20 -40q21 -16 90 -17l39 1q39 0 65 12q30 15 47 56q7 19 18 57q-27 12 -49 28q0 -18 -3 -33q-3 -36 -10 -50q-15 -33 -97 -34q-63 0 -74 13q-9 9 -9 35v159l136 69q45 21 57 23q10 3 25 3q-22 22 -40 50
q-16 -18 -66 -46q-24 -15 -47 -26q-24 -12 -65 -31v84z" />
  </g>

</svg>
