<?xml version="1.0" standalone="no"?>
<!DOCTYPE svg PUBLIC "-//W3C//DTD SVG 1.1//EN" "http://www.w3.org/Graphics/SVG/1.1/DTD/svg11.dtd" >
<svg xmlns="http://www.w3.org/2000/svg" xmlns:xlink="http://www.w3.org/1999/xlink" version="1.1" viewBox="-10 0 1010 1000">
   <path fill="currentColor"
d="M599 -13q84 1 99 9q0 2 -4 8q-15 23 -15 64v36h103q55 0 103 -6v79q-17 -7 -103 -6h-103v83h140q42 0 116 -8v82q-57 -6 -108 -6h-337q56 38 68 53q0 2 -14 9q-21 11 -30 19q-14 12 -43 39q-59 54 -102 88q-25 -31 -75 -47q120 -61 192 -161h-26q-37 -1 -79 8v-84
q40 8 87 8h135v-83h-83q-58 0 -109 5q-7 1 -10 1v-81q35 8 119 8h83v-42q0 -20 -3 -55q-1 -16 -1 -20zM772 334q85 49 172 129l-63 67q-69 -84 -167 -151zM583 391q74 24 88 34q0 2 -6 6q-30 23 -64 73h125q51 0 95 -6q-42 158 -117 258q135 62 254 58q-41 38 -57 95
q-150 -37 -256 -101q-118 66 -270 103q-8 -41 -58 -83q171 -17 266 -74q-61 -93 -71 -144q-17 19 -72 82q-13 14 -19 21q-24 -30 -78 -50q155 -98 240 -272zM558 568q31 84 85 145q42 -51 77 -145h-162zM345 689l-10 87q-103 14 -287 68l-18 -98q194 -12 315 -57zM171 2
q100 44 103 54q-1 3 -8 9q-20 18 -36 45q-69 122 -115 198l113 -6q37 -65 52 -117q79 44 87 59q0 2 -7 6q-19 11 -31 30q-16 24 -46 70q-88 133 -134 198q145 -4 196 -30l-16 86q-213 13 -273 35l-18 -91q50 8 158 -181q-108 8 -158 22l-16 -83q86 -39 149 -304z" />
</svg>
