<?xml version="1.0" standalone="no"?>
<!DOCTYPE svg PUBLIC "-//W3C//DTD SVG 1.1//EN" "http://www.w3.org/Graphics/SVG/1.1/DTD/svg11.dtd" >
<svg xmlns="http://www.w3.org/2000/svg" xmlns:xlink="http://www.w3.org/1999/xlink" version="1.1" viewBox="-10 0 1034 1024">
  <g transform="matrix(1 0 0 -1 0 820)">
   <path fill="currentColor"
d="M129 150q85 22 273 35q3 18 11 43l3 9q-24 -9 -54 -13q-75 -10 -196 -24q51 57 68 79q120 151 131 162q16 19 28 35q10 10 19 20q7 9 32 23q-28 18 -42 32q-3 1 -5 5q-30 -52 -72 -102l-186 -6q9 12 71 109q58 99 72 115q27 37 48 50q-25 12 -54 33q-31 -73 -104 -192
q-45 -69 -62 -90q-18 -18 -36 -24q9 -21 17 -56q18 9 58 14q30 6 49 6q30 0 102 6q-60 -81 -112 -141q-36 -42 -53 -56q-12 -10 -29 -19zM387 43q-24 -12 -50 -23q-31 -10 -87 -26q-96 -24 -162 -27q12 -21 18 -39q4 -16 8 -22q19 12 34 17l64 20l183 48q0 18 10 61z
M664 257q-153 0 -178 2q-6 3 -40 3q1 -18 2 -30q3 -21 4 -36v-219q0 -25 -4 -54q0 -6 -2 -14h48q-3 4 -5 28l-1 284h176l-5 -388h47q-4 28 -5 67v321h201v-216q0 -16 -14 -24q-21 -6 -49 -7q-15 0 -42 3q7 -27 17 -54q88 13 107 26q18 15 18 56v191q0 12 4 33q0 16 2 33
q-34 -1 -69 -5h-175v91l152 -1q15 0 52 -4q-6 55 -7 70l1 199q1 19 5 39q0 3 1 11q-34 -1 -70 -5h-185q25 76 56 101q-9 3 -19 5q-16 3 -34 14l-6 3q-1 -18 -13 -59q-12 -34 -25 -64q-55 0 -82 2q-6 3 -39 3q1 -19 2 -31q3 -24 4 -34v-184q0 -12 -4 -36q0 -15 -2 -34
q51 4 101 5h75v-91zM531 384v104h328v-104h-328zM531 523v98h328v-98h-328z" />
  </g>

</svg>
