<?xml version="1.0" standalone="no"?>
<!DOCTYPE svg PUBLIC "-//W3C//DTD SVG 1.1//EN" "http://www.w3.org/Graphics/SVG/1.1/DTD/svg11.dtd" >
<svg xmlns="http://www.w3.org/2000/svg" xmlns:xlink="http://www.w3.org/1999/xlink" version="1.1" viewBox="-10 0 1010 1000">
   <path fill="currentColor"
d="M218 -10q95 49 101 66q-1 4 -9 7q-19 6 -30 23q-26 39 -68 104q-41 62 -69 104l119 -10q2 -3 6 -10q41 -73 49 -113q91 50 90 64q-1 4 -19 18q-23 18 -27 25q-56 90 -173 248q140 -15 189 -28q-21 38 -18 78q-101 5 -268 30q-2 -35 -14 -80q-1 -7 -2 -10q33 28 118 -107
q22 -32 35 -51q-48 -2 -161 23q-1 -5 -2 -14q-4 -45 -15 -71q67 -19 168 -296zM681 12q2 4 8 26q13 56 29 99q143 0 203 -6q-5 23 -4 77v11v47q1 12 2 20h-90q6 -30 6 -89h-347q-1 64 4 83h-85q0 -1 1 -4q7 -28 7 -71q0 -44 -1 -53q0 -12 -3 -23q30 4 70 5q44 1 144 1
q-16 -57 -46 -103zM431 314q41 8 123 8h212q69 0 111 -6v79q-40 -4 -76 -5q-38 -1 -105 -1v137q86 0 119 -2q34 -2 56 -8v84q-12 -3 -49 -3q-18 -1 -46 -1h-80v180q63 4 138 1q69 -3 110 -11q-36 48 -41 96q-201 6 -290 -32q-64 -30 -127 -123q-36 89 -117 176
q-42 -41 -87 -41q178 -118 164 -385q99 4 102 18q0 3 -5 13q-32 55 -27 149q26 65 103 115v-363q-80 0 -116 2q-36 1 -72 6v-83zM381 643q-19 47 -18 92q-122 15 -292 59q-6 -59 -25 -103q214 -8 335 -48z" />
</svg>
