<?xml version="1.0" standalone="no"?>
<!DOCTYPE svg PUBLIC "-//W3C//DTD SVG 1.1//EN" "http://www.w3.org/Graphics/SVG/1.1/DTD/svg11.dtd" >
<svg xmlns="http://www.w3.org/2000/svg" xmlns:xlink="http://www.w3.org/1999/xlink" version="1.1" viewBox="-10 0 1034 1024">
  <g transform="matrix(1 0 0 -1 0 820)">
   <path fill="currentColor"
d="M376 46q-70 -22 -167 -46q-108 -24 -161 -30q15 -22 23 -47l85 26l122 29q42 9 95 24zM216 420l28 3l-43 -69q-13 -19 -23 -33q-19 -25 -39 -52q-27 -37 -42 -51q-13 -12 -36 -24q9 -19 16 -44l71 14l121 15l55 6q15 1 30 6q0 9 10 44q-39 -9 -93 -17q-58 -9 -138 -19
q33 42 56 74q13 18 29 43q18 27 44 68q63 99 69 106q13 25 28 50q1 6 7 10q13 16 35 26l-57 36q-9 -28 -29 -65q-27 -54 -51 -87l-155 -15q6 12 16 26q70 120 74 125q39 75 47 85q9 15 15 21q12 15 32 19q-36 16 -62 32q-19 -54 -78 -165q-33 -60 -57 -96q-21 -30 -44 -51
q12 -21 18 -42q52 12 91 16q27 3 55 5zM709 335q42 -63 98 -120q-33 -1 -68 -5l-198 1q-7 1 -16 2q-13 0 -30 2q1 -33 5 -69l1 -207q3 -28 15 -46q13 -18 49 -26q39 -6 101 -7l121 4q36 3 62 17q22 12 37 35q7 15 21 67l6 23q-7 3 -16 5q-21 6 -24 8l-9 6l-4 -62
q-7 -25 -24 -40q-15 -12 -50 -19q-33 -3 -116 -4q-96 0 -117 20q-15 13 -15 45v209h235l-7 -108q-3 -7 -8 -14q-18 -15 -53 -15q-13 0 -51 6q18 -27 25 -51q15 0 25 2q60 6 82 27q21 22 21 78q1 46 7 111q54 -48 134 -88q10 25 36 45q-63 15 -110 48q-78 55 -123 120l206 -3
q6 0 10 -2v46q-6 -1 -12 -3q-27 0 -53 -2h-319q4 12 9 23q9 21 21 56q4 15 10 28q294 -3 298 -5v47q-7 -3 -12 -3q-27 -1 -54 -3h-223q12 64 24 148l9 57q1 9 15 37q-15 0 -61 4l1 -40q0 -49 -10 -112q-6 -43 -17 -94l-158 1q-16 3 -34 5v-47q13 1 17 2q48 3 94 3h69
q-21 -72 -40 -107q-172 3 -189 5v-46q49 6 78 5h88q-30 -51 -77 -105q-66 -72 -125 -100q18 -7 46 -30q45 39 85 82q27 28 49 58q27 33 67 95h146zM504 587l17 -16q6 13 16 23q3 3 9 11l-93 81q-10 7 -29 26q-12 -15 -28 -30q12 -9 21 -17q33 -27 87 -78zM834 645
q9 10 20 20q24 19 51 24q-31 21 -53 42q-27 -36 -53 -65q-28 -30 -76 -73q15 -10 30 -27q15 12 30 27z" />
  </g>

</svg>
