<?xml version="1.0" standalone="no"?>
<!DOCTYPE svg PUBLIC "-//W3C//DTD SVG 1.1//EN" "http://www.w3.org/Graphics/SVG/1.1/DTD/svg11.dtd" >
<svg xmlns="http://www.w3.org/2000/svg" xmlns:xlink="http://www.w3.org/1999/xlink" version="1.1" viewBox="-10 0 1034 1024">
  <g transform="matrix(1 0 0 -1 0 820)">
   <path fill="currentColor"
d="M74 22q12 -19 25 -55q18 7 37 15l66 21l169 48q0 7 2 15q3 31 8 42q0 1 1 3q-21 -12 -56 -27q-37 -13 -96 -29l-106 -27q-31 -6 -50 -6zM271 429q-93 -121 -97 -127q-33 -36 -56 -55l-20 -12q13 -27 21 -58q24 9 87 18q174 16 177 17q1 16 14 52q-45 -12 -91 -19
l-146 -14q30 33 79 95l105 139q46 67 55 74q10 10 25 19q-16 6 -47 31q-4 3 -7 5q-1 -3 -12 -29l-33 -57q-6 -9 -14 -19l-47 -4l-91 -5q-16 0 -32 -2q30 37 61 88q82 126 90 132q10 12 27 22q-30 16 -52 34q-7 -25 -29 -65q-24 -45 -55 -90q-27 -42 -51 -72q-33 -39 -58 -51
q12 -18 25 -52q3 0 5 2q1 3 9 4l1 1q6 0 14 2q54 9 101 13q7 1 17 1q27 1 41 5q-9 -10 -16 -23zM348 -147q6 -4 13 -9q111 135 134 276q9 66 9 139v417h369v-730q0 -25 -12 -37q-24 -18 -65 -18h-15q-12 0 -36 3q12 -27 17 -49l61 9q55 9 74 30q12 12 13 49l1 740q0 3 4 44
q-33 -1 -67 -5l-340 1l-46 4q1 -33 5 -66l-1 -441q-4 -67 -18 -122q-19 -82 -71 -152q-27 -33 -70 -61zM661 351h-61q-43 0 -66 5v-46q24 3 44 4l189 1q24 0 66 -5v46q-4 0 -7 -1q-36 -3 -77 -4h-50v138l65 -1q19 -1 41 -5v47q-12 -3 -26 -4l-68 -2h-12v53q0 18 3 32
q3 15 14 30h-60q4 -19 5 -62v-53q-60 0 -87 2q-10 1 -22 4v-47q9 3 60 6h49v-138zM567 78q0 -4 -5 -65q49 4 101 5q70 0 85 -2q18 0 39 -3q-4 54 -5 77q0 90 2 104q0 18 3 38q-33 -1 -67 -5q-96 0 -121 2q-6 3 -37 3l5 -106v-48zM604 54v138h140v-138h-140z" />
  </g>

</svg>
