<?xml version="1.0" standalone="no"?>
<!DOCTYPE svg PUBLIC "-//W3C//DTD SVG 1.1//EN" "http://www.w3.org/Graphics/SVG/1.1/DTD/svg11.dtd" >
<svg xmlns="http://www.w3.org/2000/svg" xmlns:xlink="http://www.w3.org/1999/xlink" version="1.1" viewBox="-10 0 1010 1000">
   <path fill="currentColor"
d="M863 4q54 64 66 98q-1 2 -17 -1q-39 -9 -63 -5q-148 21 -442 45q-6 -40 -36 -81q322 6 492 -56zM790 135q88 27 93 36q0 1 -4 6q-39 45 -87 145h67q34 -1 64 -4q-5 22 -4 71v20q0 43 4 70h-88q0 -2 1 -6q9 -46 9 -86h-403q0 62 4 88h-83q0 -5 1 -16q3 -38 3 -54v-20
q0 -26 -4 -69q40 4 99 4h264q47 -105 64 -185zM661 151q21 60 27 117l-75 16q-7 -60 -34 -123zM504 157q24 44 44 125l-76 20q-18 -78 -49 -127zM829 481q-32 172 -129 279q105 47 258 50q-48 53 -57 95q-154 -30 -266 -97q-89 53 -258 97q-17 -39 -62 -85q177 -14 260 -62
q-56 -66 -105 -146l74 -26q23 60 91 133q66 -73 91 -167h-145q-88 0 -131 4v-75q54 3 119 4h165q48 0 62 -1q20 0 33 -3zM377 663l-8 89q-239 40 -306 72l-27 -101q161 -5 341 -60zM192 8q58 25 98 56q1 2 -10 11q-24 17 -36 35q-13 19 -55 88q-63 103 -74 114l141 -14
q60 -99 65 -131q81 45 92 58q0 1 -7 7q-25 18 -43 42q-144 189 -206 262q77 -8 228 -38l-8 82q-170 7 -304 37l-21 -87q29 14 170 -170q-82 2 -166 27l-22 -97q69 -18 158 -282z" />
</svg>
