<?xml version="1.0" standalone="no"?>
<!DOCTYPE svg PUBLIC "-//W3C//DTD SVG 1.1//EN" "http://www.w3.org/Graphics/SVG/1.1/DTD/svg11.dtd" >
<svg xmlns="http://www.w3.org/2000/svg" xmlns:xlink="http://www.w3.org/1999/xlink" version="1.1" viewBox="-10 0 1034 1024">
  <g transform="matrix(1 0 0 -1 0 820)">
   <path fill="currentColor"
d="M295 726l-14 6q-27 15 -42 22q-6 -25 -13 -43q-9 -22 -28 -61q-16 -37 -37 -74l-52 -88q-16 -27 -28 -42q-10 -9 -25 -17q4 -7 9 -14q16 -27 20 -36q15 9 27 12q15 3 67 11l77 10q-12 -25 -30 -53q-21 -34 -64 -96q-45 -66 -77 -82l24 -50q30 12 88 25q33 6 75 15l105 18
q3 6 4 17l5 20q3 6 6 15q-33 -12 -77 -21q-24 -4 -85 -20l-76 -15q39 54 87 131q48 75 81 136q30 54 53 90q9 15 29 29q-24 9 -38 16l-23 12q-3 -18 -24 -71q-24 -51 -42 -80q-13 -1 -44 -4q-40 -1 -79 -5q-15 -1 -33 -3q30 45 82 136q0 4 3 7q57 109 62 115q3 7 11 13
q7 7 23 16q-4 1 -7 3zM73 -26q21 -36 29 -58q24 18 71 37l136 49l78 26q1 18 3 30q0 13 5 27q-57 -33 -162 -68q-64 -21 -105 -32q-31 -7 -55 -11zM410 380q19 28 38 58q16 24 34 58v-595q0 -45 -5 -67h48q-1 3 -1 6q-1 3 -4 50v54l398 -1q30 0 36 -3q1 0 5 -1v46
q-7 -3 -13 -3q-45 -3 -53 -3h-161v161q118 0 135 -2q15 0 27 -4v47q-27 -4 -65 -5h-97v153l110 -1q30 0 46 -4q1 0 6 -2v48q-19 -6 -65 -6h-97v156l153 -1q24 0 40 -5v47q-33 -1 -67 -5h-345q6 15 12 29q18 45 53 120q9 19 29 35q-22 6 -58 24q-22 -90 -68 -185
q-69 -145 -136 -192q27 -10 52 -27q6 10 13 20zM692 -21h-172v161h172v-161zM520 176v153h172v-153h-172zM520 364v156h172v-156h-172zM660 712q69 -60 119 -132q27 28 34 31l-115 126l-6 6q-10 -15 -32 -31v0z" />
  </g>

</svg>
