<?xml version="1.0" standalone="no"?>
<!DOCTYPE svg PUBLIC "-//W3C//DTD SVG 1.1//EN" "http://www.w3.org/Graphics/SVG/1.1/DTD/svg11.dtd" >
<svg xmlns="http://www.w3.org/2000/svg" xmlns:xlink="http://www.w3.org/1999/xlink" version="1.1" viewBox="-10 0 1034 1024">
  <g transform="matrix(1 0 0 -1 0 820)">
   <path fill="currentColor"
d="M61 411q46 12 70 14l99 12q-69 -115 -119 -182q-18 -21 -41 -31q18 -45 18 -53q28 12 42 14l85 15l102 19q0 1 2 14q0 18 3 23q0 6 2 10q-19 -9 -69 -21q-67 -12 -112 -16l201 316q3 7 13 17q-12 6 -23 10q-10 7 -21 14q-3 0 -6 1q-4 -12 -9 -26l-48 -87q-39 -4 -68 -7
q-27 -3 -70 -4q25 46 37 69q19 40 40 79l30 57q24 45 53 66l-52 20q-3 3 -12 7q-12 -40 -34 -91l-48 -101q-31 -63 -37 -70q-21 -33 -43 -39zM321 45l20 7q-1 15 4 54q-22 -15 -47 -27q-33 -13 -91 -35q-109 -37 -161 -40q9 -18 21 -57q27 16 73 32zM316 -138
q117 81 189 196l12 -12q19 -21 41 -43q12 -15 26 -30q12 15 27 28q-15 18 -32 33q-55 51 -60 56q45 94 80 210q-66 -4 -101 -5l-145 3q-6 0 -12 2v-44q4 3 52 6h159q-24 -93 -53 -147l-78 78q-7 6 -21 21q-12 -13 -28 -29q67 -52 111 -102q-21 -46 -94 -114
q-58 -49 -114 -69q27 -21 40 -37zM597 383q0 3 -5 9q0 1 -9 11l-59 68l-6 5q27 49 42 83q12 30 25 71q15 54 16 58q1 3 7 19q-109 -4 -113 -5q-112 0 -138 2q-4 1 -6 1q-3 0 -12 2v-44q4 3 52 6h165q-19 -88 -59 -164q-30 27 -69 71q-19 18 -37 36q-6 -7 -16 -17
q-6 -4 -10 -9q1 -1 4 -3l74 -72q15 -12 33 -33q-48 -54 -82 -80q-33 -24 -76 -40q27 -15 44 -34q72 51 136 130q33 -37 69 -98q9 7 20 18q4 4 10 9zM575 -149q15 7 33 18q15 7 41 27q60 42 133 115q66 -75 163 -146q13 18 24 25q1 1 18 14q-40 13 -91 48q-27 21 -52 43
q-21 18 -42 44q45 79 78 173q9 31 20 63q6 13 11 28q-36 -1 -74 -5l-186 1l-19 3v-41q19 3 39 4q16 -67 29 -96q12 -36 30 -72q15 -30 31 -59q-34 -46 -95 -88q-70 -45 -132 -59q1 0 41 -40zM861 265q-18 -93 -77 -200q-63 105 -77 200h154zM629 357q15 -10 25 -21
q33 24 70 64q39 42 58 68q37 -37 59 -65l29 -36q19 24 27 29l-24 29l-47 45q-12 13 -24 25q58 97 77 152q9 33 18 50q1 6 7 13q-33 -1 -66 -5l-186 3q-3 0 -7 1q-3 1 -5 1v-45q15 6 40 6l172 1q-3 -12 -22 -63q-33 -66 -51 -93l-95 97q-15 -13 -28 -28q49 -33 104 -94
q-19 -30 -67 -72q-31 -27 -80 -51q7 -4 16 -11v0z" />
  </g>

</svg>
