<?xml version="1.0" standalone="no"?>
<!DOCTYPE svg PUBLIC "-//W3C//DTD SVG 1.1//EN" "http://www.w3.org/Graphics/SVG/1.1/DTD/svg11.dtd" >
<svg xmlns="http://www.w3.org/2000/svg" xmlns:xlink="http://www.w3.org/1999/xlink" version="1.1" viewBox="-10 0 1034 1024">
  <g transform="matrix(1 0 0 -1 0 820)">
   <path fill="currentColor"
d="M77 361q48 12 58 13q46 7 77 11q15 0 38 4q-49 -85 -106 -165q-24 -31 -37 -43q-12 -7 -32 -10q13 -27 16 -39q1 -6 4 -15q48 18 58 18q57 12 207 37l18 54q-54 -18 -126 -34q-87 -12 -96 -17l101 154q40 63 79 129q27 45 42 67q9 13 28 24l-41 24q-3 4 -12 9
q-39 -97 -82 -157q-16 -1 -34 -2q-39 -3 -77 -7q-15 -1 -40 -3q24 43 51 96q30 58 67 142q18 42 29 57q6 12 26 25q-34 13 -59 25q-6 -27 -29 -86q-21 -52 -41 -94q-21 -45 -56 -113q-21 -39 -50 -51q7 -19 15 -41q1 -6 4 -12zM65 -19q9 -39 10 -54q37 13 78 24l209 50
q1 13 15 53q-45 -22 -162 -50l-105 -19q-27 -3 -45 -4zM961 694q-30 -4 -67 -5l-498 3q-6 1 -13 2v-46q15 3 30 3l135 2h97l-24 -78l-28 -76q-106 0 -132 2q-6 3 -39 3q1 -33 5 -66l-1 -561q-1 -7 -2 -22q0 -7 -2 -13h47q-3 24 -4 50l-1 44h413q-1 -39 -3 -79q0 -3 -3 -8h50
q-3 6 -4 36l-1 552q1 33 5 67q-21 -1 -35 -2q-24 -3 -32 -3h-219q22 60 54 154q255 0 266 -3q1 0 6 -2v46zM464 -28v491h105v-491h-105zM606 -28v145h122v-145h-122zM606 153v133h122v-133h-122zM606 321v142h122v-142h-122zM765 -28v491h112v-491h-112z" />
  </g>

</svg>
