<?xml version="1.0" standalone="no"?>
<!DOCTYPE svg PUBLIC "-//W3C//DTD SVG 1.1//EN" "http://www.w3.org/Graphics/SVG/1.1/DTD/svg11.dtd" >
<svg xmlns="http://www.w3.org/2000/svg" xmlns:xlink="http://www.w3.org/1999/xlink" version="1.1" viewBox="-10 0 1034 1024">
  <g transform="matrix(1 0 0 -1 0 820)">
   <path fill="currentColor"
d="M100 157q12 3 23 9q6 3 41 10q18 0 41 6q72 12 143 20q3 21 17 51q-43 -15 -83 -21q-49 -7 -81 -11q-24 -3 -41 -4q28 39 57 82q19 30 40 59l105 164q9 15 35 35q-33 18 -53 35q-30 -69 -69 -132l-156 -8l57 100q69 129 86 155q12 18 33 36q-30 9 -62 25q-3 -22 -23 -69
q-18 -39 -45 -90t-54 -94q-19 -33 -30 -46q-10 -12 -27 -21q12 -22 21 -52q52 21 177 26q-31 -52 -56 -90l-40 -57q-25 -34 -43 -52q-12 -9 -34 -15q6 -13 9 -20q6 -12 12 -31zM373 60q1 12 2 20q-24 -12 -62 -26q-36 -12 -95 -26q-100 -21 -163 -25q10 -21 19 -42
q3 -12 8 -19q30 16 67 28l198 51q1 1 5 1q7 0 17 4q0 10 4 34zM291 -105q15 -21 33 -52q43 12 83 31q70 31 103 56q33 24 68 69q48 72 67 166q12 57 28 90q-24 3 -58 14q-6 -75 -10 -96q-12 -90 -58 -150q-36 -52 -109 -90q-72 -36 -147 -38zM455 429q-1 9 -3 20l-3 139
q0 90 2 99q0 12 5 24q3 12 13 22h-64q6 -63 6 -76l-2 -199q-3 -18 -2 -16q0 -7 -2 -13h50zM431 119v-12q0 -13 -3 -41q0 -7 -2 -13h48q0 3 -1 6t-4 60v204h362l-1 -230q-1 -9 -2 -23q0 -7 -3 -13h50q-1 3 -1 5q-1 3 -4 58l1 196l4 48q-34 -1 -70 -5l-330 1q-19 3 -49 4
q1 -31 5 -65v-180zM599 698q0 34 20 66h-64q0 -9 2 -14q0 -25 3 -52l-1 -249q-1 -13 -2 -30q0 -1 -2 -8h49q-1 3 -1 6t-4 63v43q24 -9 42 -21l70 98q249 0 258 -3q1 0 6 -2v46q-28 -4 -65 -5h-179q6 10 12 19q30 57 62 87q-39 9 -58 19q-21 -60 -57 -118q-54 -84 -91 -112
v167zM943 -4q-12 3 -28 13q-1 -33 -7 -49q-7 -30 -27 -38q-19 -9 -60 -9q-16 0 -47 2q-43 6 -51 11q-9 7 -10 48v86q0 33 19 66h-62q4 -34 5 -81l1 -115q1 -16 9 -26q9 -15 42 -22q42 -6 74 -7q42 0 87 10q33 9 55 54q6 15 18 51zM760 525q25 -24 59 -60q33 -36 53 -63
q22 24 32 31l-48 52l-66 68q-15 -13 -30 -28v0z" />
  </g>

</svg>
