<?xml version="1.0" standalone="no"?>
<!DOCTYPE svg PUBLIC "-//W3C//DTD SVG 1.1//EN" "http://www.w3.org/Graphics/SVG/1.1/DTD/svg11.dtd" >
<svg xmlns="http://www.w3.org/2000/svg" xmlns:xlink="http://www.w3.org/1999/xlink" version="1.1" viewBox="-10 0 1010 1000">
   <path fill="currentColor"
d="M442 296v456h72v-456h-72zM573 296v111h110v-111h-110zM742 296v456h81v-456h-81zM573 455v117h110v-117h-110zM573 619v133h110v-133h-110zM337 657q-12 43 -4 85q-141 31 -273 82q-9 -49 -30 -86q165 -23 307 -81zM365 227q22 2 64 3q20 1 49 1h82q11 -78 17 -110h-120
q-38 0 -61 1q-45 0 -63 3v-79q75 8 137 8h195h162q72 0 115 -6v79q-34 -6 -99 -6h-180l-36 112h43q245 -2 237 -8q-8 35 -8 172v393q0 52 1 73q1 24 3 40h-86q7 -29 4 -91h-379q1 18 2 42q1 25 2 45h-89q10 -75 10 -200v-399q0 -20 -1 -51q-1 -16 -1 -22zM188 -2
q96 38 90 54q-1 3 -10 12q-21 18 -32 36q-8 14 -28 50q-64 114 -103 172l131 -16q45 -82 52 -105q67 43 73 57q0 4 -7 12q-17 18 -35 46q-63 98 -164 230l174 -30q-10 23 -13 64q-1 7 -1 10q-137 7 -240 37q-7 -56 -21 -93q54 12 152 -167q-101 9 -152 28q0 -32 -20 -87
q25 -16 47 -50q70 -123 107 -260z" />
</svg>
