<?xml version="1.0" standalone="no"?>
<!DOCTYPE svg PUBLIC "-//W3C//DTD SVG 1.1//EN" "http://www.w3.org/Graphics/SVG/1.1/DTD/svg11.dtd" >
<svg xmlns="http://www.w3.org/2000/svg" xmlns:xlink="http://www.w3.org/1999/xlink" version="1.1" viewBox="-10 0 1010 1000">
   <path fill="currentColor"
d="M200 -13q92 22 100 39q0 2 -7 9q-18 15 -25 31q-6 13 -18 40q-57 131 -107 206l121 -10q38 -60 57 -113q89 51 84 55q0 3 -7 9q-25 23 -51 63q-78 123 -153 214q108 -12 175 -26q-10 37 -10 84q-196 10 -284 37q-2 -37 -19 -85q69 -7 180 -178q-134 20 -178 33
q-5 -49 -18 -87q100 -50 160 -321zM458 -8q7 0 19 1q84 1 79 9q1 2 -2 8q-16 38 -16 111h174q-1 -19 -1 -52q1 -49 -3 -75q83 -2 104 8q2 2 -2 12q-20 44 -20 105q81 0 147 -6v78q-66 -9 -147 -6q-3 100 6 139q-33 -9 -129 -6v71h75q102 0 135 -6q-6 27 -6 123q0 77 6 109
q-40 -5 -127 -5h-83v81h148q85 0 125 -6v81q-28 -6 -125 -6h-148v56v17q-1 62 6 88h-86q6 -33 6 -105v-56h-91q-87 0 -127 6v-81q52 6 127 6h91v-81h-93q-65 0 -111 5q6 -36 6 -123q0 -80 -6 -109q49 6 127 6h77v-71q-92 0 -137 6q8 -64 8 -139q-68 0 -119 6v-76q54 6 119 6
q0 -90 -6 -129zM538 185v71h178v-71h-178zM593 453h-123v93h123v-93zM667 453v93h129v-93h-129zM357 669q-10 50 -4 81q-199 34 -290 72q-14 -56 -35 -97q130 -4 329 -56z" />
</svg>
