<?xml version="1.0" standalone="no"?>
<!DOCTYPE svg PUBLIC "-//W3C//DTD SVG 1.1//EN" "http://www.w3.org/Graphics/SVG/1.1/DTD/svg11.dtd" >
<svg xmlns="http://www.w3.org/2000/svg" xmlns:xlink="http://www.w3.org/1999/xlink" version="1.1" viewBox="-10 0 1010 1000">
   <path fill="currentColor"
d="M371 649l-2 88q-170 29 -300 83l-17 -105q149 -8 319 -66zM464 -2q98 29 105 40q0 2 -6 6q-26 17 -45 48q-10 16 -44 74q-16 29 -26 45q2 5 27 38q49 65 85 118l-80 38q-35 -86 -109 -184q58 -96 93 -223zM649 0q79 22 97 36q0 1 -5 6q-20 18 -35 46q-41 78 -79 131
q54 49 121 129l-79 39q-32 -69 -125 -160q76 -105 105 -227zM829 0q97 21 102 30q0 2 -7 8q-21 21 -35 48q-24 44 -60 108l-12 21l30 30q73 74 95 101l-77 41q-47 -80 -133 -164q66 -89 97 -223zM887 411q-4 29 -4 77v280q0 84 8 125h-87q0 -4 1 -13q3 -33 3 -48h-316
q-1 45 4 61h-87q6 -43 6 -119v-268q0 -42 -5 -83q-1 -9 -1 -14q43 6 109 6h262q59 -1 107 -4zM611 479h-121v113h121v-113zM687 479v113h121v-113h-121zM490 655v113h121v-113h-121zM808 655h-121v113h121v-113zM187 4q98 37 115 56q-1 3 -8 6q-25 11 -40 38l-48 80
q-63 106 -75 124l109 -6q32 -62 48 -107q81 42 83 53q0 2 -7 6q-20 10 -31 28q-96 149 -170 252q136 -4 188 -28l-18 80q-199 14 -260 33l-15 -85q45 8 150 -169q-3 0 -10 1q-103 7 -140 19l-16 -79q79 -36 145 -302z" />
</svg>
