<?xml version="1.0" standalone="no"?>
<!DOCTYPE svg PUBLIC "-//W3C//DTD SVG 1.1//EN" "http://www.w3.org/Graphics/SVG/1.1/DTD/svg11.dtd" >
<svg xmlns="http://www.w3.org/2000/svg" xmlns:xlink="http://www.w3.org/1999/xlink" version="1.1" viewBox="-10 0 1010 1000">
   <path fill="currentColor"
d="M440 4q15 1 41 3q57 2 55 7q1 2 -3 9q-19 38 -19 108v96q54 0 95 -6v71q-41 -9 -95 -6v133l49 -22q5 9 15 25q36 61 49 86v-321v-14q1 -61 -6 -97q41 6 151 6q86 0 141 -6q-7 43 -8 113v542q0 106 10 154h-90q6 -46 6 -99h-131q0 54 6 89h-85q7 -54 6 -127v-208l-60 22
q-12 -42 -53 -113v321q0 34 1 58q1 28 5 65h-80q7 -63 6 -127v-363q-51 161 -111 268q-24 -33 -57 -67q93 -106 159 -318q-35 0 -82 8v-34q-14 2 -47 58q-18 26 -48 74q-53 83 -89 132q106 -23 135 -32q-16 42 -14 80q-103 7 -213 36q-4 -14 -17 -82q54 -3 142 -170
q-81 0 -139 15q-5 -43 -17 -77q61 -12 140 -282q94 34 96 48q0 2 -7 8q-24 19 -37 45q-49 105 -97 185h95q28 -47 52 -105q41 20 65 44v-18q44 8 91 8v-96q0 -81 -6 -127zM700 149v143h131v-143h-131zM700 356v148h131v-148h-131zM831 568h-131v151h131v-151zM321 671
q-12 49 -9 81q-129 14 -243 54q-6 -27 -20 -74q-3 -11 -5 -17q111 0 277 -44z" />
</svg>
