<?xml version="1.0" standalone="no"?>
<!DOCTYPE svg PUBLIC "-//W3C//DTD SVG 1.1//EN" "http://www.w3.org/Graphics/SVG/1.1/DTD/svg11.dtd" >
<svg xmlns="http://www.w3.org/2000/svg" xmlns:xlink="http://www.w3.org/1999/xlink" version="1.1" viewBox="-10 0 1010 1000">
   <path fill="currentColor"
d="M185 -21q66 25 95 51q0 2 -9 9q-26 19 -37 39q-75 147 -131 214l131 -12q8 -14 13 -23q22 -36 33 -74q5 -13 12 -34q47 22 81 46v-22q0 -75 -10 -117q103 -5 200 -46q45 64 44 88q-1 1 -7 0q-50 -10 -156 12v123h40q30 0 84 -6h3v73q-25 -6 -87 -6h-40v125h40
q39 -1 79 -4v72q-33 -4 -83 -4h-36v152l129 -59l4 77l-133 60v85q0 63 4 99l-83 2q0 -2 1 -7q7 -50 7 -96v-58l-38 24l-27 -73l-2 49q-123 23 -239 64l-13 -93q77 1 256 -50l-2 26q42 -15 65 -24v-458l-1 1q-24 14 -45 54q-78 148 -172 254l153 -18l-10 70q-139 5 -231 30
l-21 -92q57 11 156 -162q-115 13 -156 27l-22 -85q23 -13 49 -49q71 -117 112 -254zM635 32q42 6 87 6h78q48 0 75 -6q-17 89 -12 201q-2 32 20 35q19 4 83 -18q-11 44 -8 88q-107 11 -134 -5q-30 -12 -28 -75v-156h-84q2 208 -95 271q-32 -29 -75 -35q67 -46 86 -113
q21 -64 7 -193zM591 395q42 5 107 8h114q54 0 99 -6q-32 199 -125 336q95 67 196 95q-46 31 -71 83q-86 -48 -177 -129q-87 64 -196 117q-21 -43 -74 -81q113 -16 226 -91q-57 -89 -91 -240l52 -22q-36 3 -60 6v-76zM669 465q17 133 67 214q66 -111 83 -214h-150z" />
</svg>
