<?xml version="1.0" standalone="no"?>
<!DOCTYPE svg PUBLIC "-//W3C//DTD SVG 1.1//EN" "http://www.w3.org/Graphics/SVG/1.1/DTD/svg11.dtd" >
<svg xmlns="http://www.w3.org/2000/svg" xmlns:xlink="http://www.w3.org/1999/xlink" version="1.1" viewBox="-10 0 1010 1000">
   <path fill="currentColor"
d="M163 -8q102 38 97 46q0 1 -6 6q-19 14 -26 28q-5 12 -17 37q-50 113 -98 201l91 -6q37 -79 46 -117q69 31 79 46q0 1 -4 5q-20 17 -37 58q-47 110 -141 248q72 -10 159 -36l-18 80q-160 20 -221 39l-17 -83q52 -16 133 -182q-65 1 -137 23l-20 -79q68 -20 137 -314z
M714 -2q95 4 109 12q0 1 -4 7q-23 32 -23 79v379q0 92 8 138h-86q6 -38 6 -138v-358q0 -74 -9 -112q-1 -5 -1 -7zM500 143h-97v127h97v-127zM873 189q48 82 97 196l-77 30q-36 -119 -81 -194zM500 334h-97v127h97v-127zM855 445q92 31 97 42q0 3 -5 7q-15 10 -24 34
q-71 305 -375 385q-25 -48 -76 -79q363 -48 383 -389zM403 524v143h97v-143h-97zM304 665l-12 85q-159 37 -232 76l-26 -95q93 2 270 -66zM335 161q0 -38 -8 -85q3 0 10 1q37 3 80 3h53q31 0 81 -3q17 -1 26 -1q-10 40 -10 119v284q46 -86 52 -280q74 6 83 12q1 3 -3 9
q-11 19 -14 46q-16 115 -44 246q-49 -10 -74 -8v149q0 54 8 121h-79q0 -4 1 -11q3 -16 3 -32h-95q0 45 4 75h-80q6 -27 6 -131v-514z" />
</svg>
