<?xml version="1.0" standalone="no"?>
<!DOCTYPE svg PUBLIC "-//W3C//DTD SVG 1.1//EN" "http://www.w3.org/Graphics/SVG/1.1/DTD/svg11.dtd" >
<svg xmlns="http://www.w3.org/2000/svg" xmlns:xlink="http://www.w3.org/1999/xlink" version="1.1" viewBox="-10 0 1034 1024">
  <g transform="matrix(1 0 0 -1 0 820)">
   <path fill="currentColor"
d="M64 363q27 10 52 14q66 9 133 12q-42 -70 -76 -122q-33 -51 -52 -71q-25 -27 -56 -35l19 -55q69 21 280 43q0 19 4 32q0 4 3 9q-36 -7 -61 -10l-53 -6l-69 -8q-19 -3 -48 -5q16 21 41 57q117 183 134 210q0 4 3 6q40 72 41 71q18 21 45 36q-27 15 -54 38q-6 -21 -25 -56
q-27 -54 -56 -100l-157 -6l78 129q30 52 49 88q24 42 33 52q10 13 33 23q-27 15 -55 38q-9 -25 -19 -46l-53 -106q-15 -27 -33 -56q-42 -76 -57 -95q-19 -19 -44 -26zM49 -46q7 -24 12 -54q24 7 50 15l98 21l167 30q0 24 5 46q-40 -13 -87 -24q-51 -10 -123 -22
q-48 -9 -71 -11zM479 321h-76q-48 0 -65 5v-47q37 6 80 5h61v-154h-47q-40 0 -66 5v-46q1 1 5 1q6 3 31 3l239 1v-171h-179q-46 0 -65 5v-47q48 6 65 6l420 -1q12 0 24 -2q3 0 6 -2q3 0 5 -1v47q-3 0 -8 -2l-15 -2l-41 -1h-174v171l251 -3l2 -1q1 0 5 -2v47q-6 -1 -11 -3
q3 0 -11 -1l-75 -1v154l121 -5q1 0 4 -1v48q-3 -1 -8 -2l-2 -1l-115 -3v160q48 0 98 -3q4 0 11 -3v47l-64 -5h-206v156q169 24 186 24q15 0 40 -3q-13 24 -24 54q-46 -15 -92 -23q-114 -18 -215 -29q-72 -6 -132 -7q-30 0 -63 7q12 -24 21 -51l100 10l141 14v-152h-196
q-39 0 -64 5v-46q1 1 5 1q7 3 33 4h60v-159zM516 320v160h125v-160h-125zM516 130v154h125v-154h-125zM679 320v160h124v-160h-124zM679 130v154h124v-154h-124z" />
  </g>

</svg>
