<?xml version="1.0" standalone="no"?>
<!DOCTYPE svg PUBLIC "-//W3C//DTD SVG 1.1//EN" "http://www.w3.org/Graphics/SVG/1.1/DTD/svg11.dtd" >
<svg xmlns="http://www.w3.org/2000/svg" xmlns:xlink="http://www.w3.org/1999/xlink" version="1.1" viewBox="-10 0 1034 1024">
  <g transform="matrix(1 0 0 -1 0 820)">
   <path fill="currentColor"
d="M387 -2q0 6 3 27q-30 -12 -69 -23q-46 -13 -121 -32q-90 -21 -145 -24q18 -34 27 -56q21 13 78 33l226 57q0 9 1 18zM74 388q6 4 17 8q21 7 46 8h121q-66 -96 -138 -187q-24 -28 -51 -35l21 -49q24 9 65 15q150 16 200 25q9 0 24 1q0 16 4 46q-31 -9 -70 -15
q-79 -12 -176 -22l45 58l93 121l90 129q30 43 62 59q-33 19 -53 38q-10 -27 -29 -59q-22 -36 -61 -89h-164q21 31 47 74q30 48 68 119q34 61 44 72q9 12 33 23q-33 16 -57 34q-24 -75 -126 -241q-6 -12 -14 -22q-28 -48 -61 -65zM667 412l-271 1q-12 3 -20 4v-46q34 4 53 5
l517 -1q9 0 20 -3l2 -1v46q-10 -1 -22 -4l-241 -1v82l152 -1l31 -4q7 0 16 -1q-6 63 -6 94q0 43 3 61q0 18 3 36q-30 -1 -59 -5h-140q0 57 3 66q1 15 10 28h-56q3 -9 3 -16l2 -78q-142 0 -168 2q-6 3 -35 3q4 -99 5 -102q0 -42 -4 -82q-1 -3 -1 -7q60 6 91 6h112v-82z
M506 529v109h161v-109h-161zM705 529v109h156v-109h-156zM387 -113q24 -27 34 -48q106 36 166 84q93 81 106 238q4 45 22 66q-31 0 -59 4l1 -44q0 -135 -74 -215q-39 -40 -103 -69q-42 -15 -77 -16h-16zM480 66q0 -37 -5 -63h47q-1 1 -1 2q-3 39 -4 61v207h331l-2 -248
l-3 -16h48q-1 3 -1 5q0 1 -4 53l1 198l4 49q-30 -1 -60 -5l-310 1q-19 3 -46 4q1 -33 5 -66v-182zM718 5q55 -36 119 -85q67 -55 86 -81q4 9 31 43q-111 85 -210 155q-9 -15 -26 -32v0z" />
  </g>

</svg>
