<?xml version="1.0" standalone="no"?>
<!DOCTYPE svg PUBLIC "-//W3C//DTD SVG 1.1//EN" "http://www.w3.org/Graphics/SVG/1.1/DTD/svg11.dtd" >
<svg xmlns="http://www.w3.org/2000/svg" xmlns:xlink="http://www.w3.org/1999/xlink" version="1.1" viewBox="-10 0 1010 1000">
   <path fill="currentColor"
d="M181 -12q104 36 99 44q-1 4 -8 10q-16 14 -28 36q-6 10 -18 33q-66 121 -115 191q88 -10 109 -12q44 -82 54 -123q79 32 83 46q0 1 -5 6q-19 20 -37 51q-66 120 -168 260q9 -1 31 -3q118 -13 161 -25q-18 42 -16 78q-158 10 -269 33q-2 -21 -14 -55l-10 -30
q62 -3 158 -174q-113 12 -150 23q0 -19 -10 -65q-3 -13 -4 -20q84 -49 157 -304zM456 0q95 29 96 40q0 1 -5 6q-15 15 -23 34q-9 19 -29 71q-19 48 -29 72v535q0 100 6 139h-89q7 -38 6 -121v-18v-389q-24 48 -63 104q-5 6 -7 10q-17 -21 -69 -42q148 -140 206 -441zM579 50
q39 4 138 4q100 0 150 -4q-12 43 -35 144q-3 15 -5 23q78 0 121 -6v77q-44 -6 -123 -6h-206q13 5 35 13q51 17 46 21q-1 2 -6 6q-27 22 -57 67h155q77 0 119 -6v70q-48 -6 -121 -6h-34q0 38 -1 58q-1 24 -3 49h75q77 0 113 -6v73q-46 -9 -156 -8q32 165 180 217
q-44 24 -69 77q-155 -111 -159 -284q-24 169 -180 282q-28 -42 -74 -65q151 -50 193 -227q-81 -1 -155 8v-73q51 6 111 6h54q3 -44 3 -107h-77q-21 30 -46 71q-29 -24 -67 -31q75 -74 113 -205q-64 0 -97 4v-75q57 6 143 6h97l20 -100h-91q-61 0 -104 6v-73zM345 653
q-5 59 2 82q-128 28 -280 99q-1 -4 -3 -11q-10 -41 -36 -85q153 -19 317 -85z" />
</svg>
