<?xml version="1.0" standalone="no"?>
<!DOCTYPE svg PUBLIC "-//W3C//DTD SVG 1.1//EN" "http://www.w3.org/Graphics/SVG/1.1/DTD/svg11.dtd" >
<svg xmlns="http://www.w3.org/2000/svg" xmlns:xlink="http://www.w3.org/1999/xlink" version="1.1" viewBox="-10 0 1010 1000">
   <path fill="currentColor"
d="M679 -6q13 2 37 5q68 7 64 17q0 2 -5 7q-29 27 -57 102q100 0 169 -6q-4 25 -4 92v73q0 50 4 89q-32 -6 -99 -6h-147v88h141q63 0 111 -6q-6 37 -6 101v93q-1 48 6 84q-36 -6 -95 -6h-121q-69 -3 -112 6q5 -33 4 -99v-15v-388v-21q3 -59 -4 -83q40 3 88 4q21 -70 26 -131
zM196 4q104 36 96 48q0 4 -8 11q-27 22 -50 68q-37 76 -99 181l113 -2q41 -82 50 -129q88 34 95 48q0 1 -4 4q-27 21 -56 75q-73 142 -152 256q92 -22 178 -52q-12 44 -12 80q-164 25 -262 53q-6 -43 -31 -79q61 5 170 -197q-141 13 -174 26q-4 -37 -24 -75q90 -26 170 -316
zM464 32q40 99 62 181l-89 24q-10 -109 -56 -179zM813 189h-172v115h172v-115zM641 518v139h174v-139h-174zM373 657q-17 42 -10 89q-232 68 -290 98q-4 -9 -11 -33q-14 -44 -26 -71q153 -7 337 -83zM333 316q66 9 159 0q-6 35 -6 107v280q-11 66 107 91q58 13 189 12
q131 -2 194 -16q-36 38 -51 105q-307 -16 -332 -30q-27 -7 -80 -40q-24 -15 -33 -19q-38 -30 -123 95q-27 -40 -65 -67q40 -28 91 -69q24 -19 36 -28v-350q-65 -1 -86 4v-75z" />
</svg>
