<?xml version="1.0" standalone="no"?>
<!DOCTYPE svg PUBLIC "-//W3C//DTD SVG 1.1//EN" "http://www.w3.org/Graphics/SVG/1.1/DTD/svg11.dtd" >
<svg xmlns="http://www.w3.org/2000/svg" xmlns:xlink="http://www.w3.org/1999/xlink" version="1.1" viewBox="-10 0 1010 1000">
   <path fill="currentColor"
d="M500 151q25 6 91 6h177q51 0 93 -6v72q-45 -6 -93 -6h-179q-57 0 -89 4v-70zM835 548q0 2 -3 6q-15 18 -15 50h28q75 0 109 -8v79q-31 -8 -101 -8h-34v163q1 39 -28 54q-26 15 -110 21q0 -45 -34 -91q107 21 105 -26v-123h-179q-72 0 -107 8v-75q25 4 107 4h177
q0 -31 -4 -64q36 0 89 10zM310 627l-4 84q-113 24 -256 83l-22 -101q126 -4 282 -66zM609 689q26 32 48 97l-82 20q-16 -63 -45 -97zM383 117q0 -58 -4 -89q40 8 73 8h326q99 0 129 -6v76q-29 -6 -123 -6h-326v176h344q86 0 115 -6v72q-44 -6 -111 -6h-114q26 52 60 81
q40 -23 81 -71q28 11 76 47q0 3 -13 5q-16 3 -25 7q-30 14 -67 45q-4 3 -6 5q67 32 154 33q-40 39 -51 76q-216 -55 -266 -228h-56v149l92 -40l4 63q-97 30 -155 66l-32 -68q3 -3 9 -8q23 -18 19 -27v-135h-58q6 380 -145 553q-46 -39 -85 -53q107 -93 132 -226
q16 -72 21 -186q5 -111 2 -307zM181 -8q77 32 97 52q0 2 -10 9q-25 18 -36 37q-75 142 -137 216l137 -14q4 -7 7 -12q28 -47 38 -80q6 -14 15 -39q77 39 85 52q0 2 -6 6q-27 17 -46 51q-70 123 -180 256l188 -32l-12 74q-144 7 -259 36l-22 -90q57 12 160 -162
q-111 9 -160 25l-22 -83q29 -17 49 -50q78 -123 114 -252z" />
</svg>
