<?xml version="1.0" standalone="no"?>
<!DOCTYPE svg PUBLIC "-//W3C//DTD SVG 1.1//EN" "http://www.w3.org/Graphics/SVG/1.1/DTD/svg11.dtd" >
<svg xmlns="http://www.w3.org/2000/svg" xmlns:xlink="http://www.w3.org/1999/xlink" version="1.1" viewBox="-10 0 1010 1000">
   <path fill="currentColor"
d="M605 401q86 -3 93 8q1 3 -2 12q-9 31 -9 77h126q40 0 76 -6q-6 33 -6 84v170q1 43 -22 58q-19 16 -95 30q-4 -59 -40 -88q85 15 82 -29v-155h-123v214q-3 75 5 131h-87q10 -54 10 -135v-208h-109q-4 202 2 260h-83q10 -54 10 -149q0 -144 -6 -183q41 8 184 8
q0 -75 -6 -99zM185 12q94 46 97 56q-27 15 -46 45q-11 17 -48 75q-69 112 -81 124l2 6l139 -16q55 -87 65 -131q94 45 92 58q-29 15 -50 49q-151 216 -210 260l4 2q4 0 12 -1q154 -15 216 -37q0 4 -2 14q-8 38 -6 68q-268 23 -304 37q-3 -45 -21 -87q29 14 170 -171
q-87 4 -166 28q-2 -22 -17 -77q-3 -13 -5 -20q68 -17 159 -282zM736 177q89 24 95 42q-1 4 -9 9q-33 23 -66 80q87 0 123 -3q32 -2 67 -11q-5 24 -4 85q0 48 2 72h-83q1 -8 0 -5q4 -50 4 -77h-409q0 60 4 96h-83q6 -36 6 -84q1 -56 -8 -83q40 9 123 8h198q28 -68 32 -83
q7 -21 8 -46zM667 -10q19 33 37 112h111q74 0 123 -10v83q-63 -10 -214 -10h-178q-102 -1 -159 8v-83q42 12 125 12h111q0 -1 -2 -5q-12 -48 -40 -89zM361 669q-3 13 -3 28q-1 11 -1 45q-182 40 -262 80q-11 -31 -32 -74q-6 -13 -7 -15q133 -18 305 -64zM565 177q8 16 22 50
q13 29 22 49l-69 22q-1 -3 -2 -8q-13 -47 -42 -91z" />
</svg>
