<?xml version="1.0" standalone="no"?>
<!DOCTYPE svg PUBLIC "-//W3C//DTD SVG 1.1//EN" "http://www.w3.org/Graphics/SVG/1.1/DTD/svg11.dtd" >
<svg xmlns="http://www.w3.org/2000/svg" xmlns:xlink="http://www.w3.org/1999/xlink" version="1.1" viewBox="-10 0 1010 1000">
   <path fill="currentColor"
d="M597 6q57 0 97 10q0 3 -5 10q-18 30 -18 74v117h144q45 0 116 -8v81q-90 -13 -205 -10q56 90 224 135q-48 25 -77 75q-147 -62 -202 -202q-3 113 4 157h-84q1 -8 3 -21q9 -48 7 -136q-61 93 -214 193q-17 -28 -77 -56q129 -40 224 -147q-94 0 -133 6v-75q39 5 200 8v-117
q0 -61 -4 -94zM802 34q76 32 81 46q0 2 -5 5q-34 29 -100 112q-36 -30 -62 -38q58 -53 86 -125zM496 42q13 30 45 99q7 16 11 24l-74 22q-28 -78 -59 -119zM560 451q99 17 103 28q0 3 -8 9q-27 22 -52 60h207q70 0 119 -6v79q-54 -6 -125 -6q-33 72 -76 122q45 17 130 56
q35 16 55 25q-2 1 -5 4q-34 28 -57 73q-45 -40 -176 -103q-124 79 -312 105q-15 -58 -44 -85q181 -6 276 -52q-46 -24 -182 -59q3 -4 10 -11q45 -54 63 -80l-131 7v-79l21 3q60 9 144 7q39 -69 40 -97zM714 612h-151q-6 8 -17 24q-15 21 -22 31q67 23 133 44q36 -43 57 -99z
M345 673q-1 3 -2 9q-9 34 -4 76q-113 5 -283 54q-12 -48 -28 -89q164 -8 317 -50zM194 -6q111 40 102 54q-1 3 -11 9q-25 18 -37 39q-83 152 -145 222l145 -16q50 -86 62 -133q81 35 83 54q-1 4 -7 8q-22 16 -41 49q-73 125 -188 262l166 -32q-18 46 -13 84q-151 4 -241 29
q-7 -54 -23 -93q60 12 168 -167q-114 9 -168 28q1 -29 -24 -87q29 -14 53 -50q81 -124 119 -260z" />
</svg>
