<?xml version="1.0" standalone="no"?>
<!DOCTYPE svg PUBLIC "-//W3C//DTD SVG 1.1//EN" "http://www.w3.org/Graphics/SVG/1.1/DTD/svg11.dtd" >
<svg xmlns="http://www.w3.org/2000/svg" xmlns:xlink="http://www.w3.org/1999/xlink" version="1.1" viewBox="-10 0 1034 1024">
  <g transform="matrix(1 0 0 -1 0 820)">
   <path fill="currentColor"
d="M353 236q-31 -7 -54 -11l-169 -24l71 107q16 21 63 92q24 42 55 85q9 18 26 37q15 22 37 36q-30 15 -57 31q-31 -75 -76 -137l-129 -4q18 27 32 52q21 36 64 99q31 55 47 76q9 15 16 24q10 12 34 24q-18 9 -58 37q-16 -39 -36 -76l-29 -52q-55 -90 -99 -154
q-12 -12 -24 -22q-3 -1 -7 -4q9 -39 10 -46q63 7 96 8l60 2q-18 -33 -36 -62q-18 -30 -50 -73q-28 -39 -45 -59q-12 -13 -29 -25q7 -24 13 -48q33 9 64 13q13 3 145 21q9 0 58 7q3 24 7 46zM374 64q-28 -9 -60 -18l-82 -21l-109 -25q-31 -6 -64 -10q16 -27 24 -47
q45 15 128 37q19 6 46 12q52 12 114 29zM306 -89q18 -15 39 -33q66 48 103 79l70 60q21 15 46 26q-21 13 -32 21q-7 6 -15 15q-100 -114 -211 -168zM752 679l175 -3q6 0 10 -2v46q-33 -1 -65 -5l-490 5v-46q49 6 103 5h82v-94l-114 1q-19 3 -46 4q0 -21 2 -27q3 -43 4 -62
l-1 -92q-3 -7 -4 -36q-1 -1 -1 -6q60 6 88 6l375 -1q22 -1 47 -5q-4 48 -5 91q0 84 2 95q0 18 3 37q-31 -1 -63 -5h-102v94zM449 406v145h118v-145h-118zM604 585v94h110v-94h-110zM604 406v145h110v-145h-110zM752 406v145h122v-145h-122zM680 137l274 -3q6 0 10 -2v46
q-33 -1 -66 -5l-472 1q-19 3 -34 4v-46q13 1 16 2q24 1 49 3h182v-216q0 -21 -9 -30q-10 -12 -41 -12q-18 0 -48 7q12 -24 16 -52q22 0 36 3q-1 0 10 1q36 4 54 15q22 15 23 62v222zM879 301q-33 -1 -66 -5l-325 1q-24 3 -34 4v-44q13 1 16 2q48 3 87 3l312 -3q6 0 10 -2v44
zM957 -67q-103 78 -162 125q-6 6 -18 12q-1 1 -2 1q-9 -15 -23 -28q45 -33 97 -76q48 -42 79 -72q13 19 29 38v0z" />
  </g>

</svg>
