<?xml version="1.0" standalone="no"?>
<!DOCTYPE svg PUBLIC "-//W3C//DTD SVG 1.1//EN" "http://www.w3.org/Graphics/SVG/1.1/DTD/svg11.dtd" >
<svg xmlns="http://www.w3.org/2000/svg" xmlns:xlink="http://www.w3.org/1999/xlink" version="1.1" viewBox="-10 0 1010 1000">
   <path fill="currentColor"
d="M702 -8q98 29 92 38q0 3 -8 9q-35 31 -74 90h101q79 -1 124 -4v68q-17 -2 -43 -3q-13 -1 -30 -1h-47h-115v81h90q30 0 77 -6q-6 26 -6 68v71h30q17 0 56 -4q-29 3 3 0v62q-11 -3 -23 -3q-8 -1 -40 -1h-26v79q0 30 2 64q-33 -6 -67 -6h-40q46 124 206 194q-35 25 -69 74
q-143 -111 -193 -252v176q0 66 6 113h-77q8 -73 8 -123v-182h-85v192q0 50 1 70q1 24 3 41h-76q8 -24 8 -103v-153q-80 148 -175 236q-39 -34 -85 -51q141 -67 230 -232h-35q-37 0 -51 1q-17 0 -47 3v-66q49 7 108 8h55v-81h-61q-83 0 -112 6v-68q30 6 114 6h59v-79h-38
q-54 0 -79 4v-66q13 5 62 7q12 1 19 1h36v-81h-81q-47 0 -67 1q-25 1 -42 3v-72q50 8 115 8h232q36 -54 55 -137zM508 -2q30 41 65 100l-73 21q-31 -67 -60 -101zM554 189v81h85v-81h-85zM702 324v79h94v-79h-94zM554 324v79h85v-79h-85zM554 459v81h85v-81h-85zM702 459v81
h94v-81h-94zM341 639q-8 56 -6 78q-184 49 -277 93q-1 -3 -2 -9q-17 -65 -32 -88q170 -15 317 -74zM190 4q106 40 98 52q-1 3 -11 9q-25 17 -35 37q-76 146 -137 216l137 -14q3 -6 9 -17q35 -66 39 -80q84 33 81 43l-6 6q-16 14 -26 28q-24 33 -71 99q-69 99 -111 155
l153 -18q-9 18 -9 48q0 13 -1 20q-135 4 -227 27q-8 -61 -21 -89q54 11 158 -163q-107 9 -158 26q0 -30 -22 -83q22 -11 49 -50q77 -120 111 -252z" />
</svg>
