<?xml version="1.0" standalone="no"?>
<!DOCTYPE svg PUBLIC "-//W3C//DTD SVG 1.1//EN" "http://www.w3.org/Graphics/SVG/1.1/DTD/svg11.dtd" >
<svg xmlns="http://www.w3.org/2000/svg" xmlns:xlink="http://www.w3.org/1999/xlink" version="1.1" viewBox="-10 0 1010 1000">
   <path fill="currentColor"
d="M635 -15q94 11 97 21q1 2 -7 7q-31 24 -54 65q192 0 252 -6q-54 104 -143 194q77 28 172 34q-39 40 -49 75q-136 -36 -175 -67q-88 45 -212 81q-13 -41 -36 -67q112 -12 189 -56q-37 -30 -68 -77q-26 38 -61 79q-20 -21 -72 -37q109 -85 167 -246zM444 40q10 30 37 98
l15 39l-81 22q-16 -87 -52 -141zM631 135q39 60 87 96q43 -31 86 -96h-173zM339 663q-8 31 8 85q-44 0 -285 70q2 -43 -16 -99q109 0 293 -56zM196 -13q88 32 86 53q-1 3 -9 9q-22 18 -33 39q-64 142 -121 226l121 -20q42 -91 54 -133q74 36 75 52q0 4 -7 10q-21 17 -39 49
q-67 127 -160 266l166 -50q-12 29 -4 80q-106 8 -236 53q-4 -42 -19 -91q-1 -3 -1 -4q53 11 143 -166q-94 8 -143 27q1 -25 -17 -91q19 -13 43 -50q69 -128 101 -259zM474 415v316q102 55 201 65v-97q-23 1 -66 1q-59 0 -81 3v-62q48 3 147 4v-71q-94 -3 -135 4v-64
q53 4 137 4v-61h-55q-58 -1 -84 2v-64q9 0 28 1q27 1 111 7q0 -37 -6 -61q87 -3 95 6q0 3 -4 11q-10 23 -10 44q112 0 143 -6v68q-20 -4 -47 -5q-14 -1 -35 -1h-65v61q97 0 147 -4v64q-56 -4 -147 -4v69q76 0 105 -1q35 -1 54 -3v64q-51 -9 -159 -6v101q83 0 214 -20
q-15 28 -21 96q-1 5 -1 7q-231 -3 -331 -23q-58 -14 -116 -47q-25 -14 -35 -15q-34 -8 -111 73q-25 -41 -71 -59q23 -14 69 -38q72 -39 68 -43v-336q-42 -4 -78 8v-73q24 5 53 6t92 0q-6 33 -6 79z" />
</svg>
