<?xml version="1.0" standalone="no"?>
<!DOCTYPE svg PUBLIC "-//W3C//DTD SVG 1.1//EN" "http://www.w3.org/Graphics/SVG/1.1/DTD/svg11.dtd" >
<svg xmlns="http://www.w3.org/2000/svg" xmlns:xlink="http://www.w3.org/1999/xlink" version="1.1" viewBox="-10 0 1034 1024">
  <g transform="matrix(1 0 0 -1 0 820)">
   <path fill="currentColor"
d="M53 -43q6 -13 13 -32l6 -18q19 18 76 37q45 16 92 31l113 38l6 57q-51 -33 -168 -68q-60 -18 -95 -26q-21 -4 -49 -7zM208 752q-24 -85 -58 -158l-39 -84q-15 -30 -26 -49q-18 -27 -38 -36q3 -7 7 -12q9 -18 13 -35q30 9 62 13q34 4 87 6q-46 -82 -93 -153
q-36 -52 -64 -59q12 -24 21 -55q19 9 23 11q1 0 6 1q58 16 87 17l147 20q12 43 15 53q-37 -16 -134 -32l-36 -4q-18 -3 -31 -4q-16 -1 -23 -4q63 97 133 217q51 93 66 111q15 21 39 32q-36 18 -60 34q-15 -39 -30 -68q-16 -33 -46 -80l-123 -4q97 210 107 224q18 36 25 43
q12 18 32 28q-36 12 -69 27zM308 -93q15 -9 36 -36q12 24 34 42q39 37 69 38q12 0 25 -6l78 -41q24 -12 69 -23q61 -15 162 -15l178 3q6 24 15 51q-115 -12 -203 -13q-159 0 -249 55q-42 24 -58 28l1 357l4 42q-31 -1 -63 -5q-39 0 -84 4q-1 0 -10 1v-47q39 4 45 5l69 1
v-361q-36 -9 -80 -48q-15 -9 -38 -32zM329 676q4 -3 38 -37l43 -48q27 -34 30 -38q21 19 32 28q-21 24 -60 65q-30 31 -54 58q-10 -12 -29 -28zM869 628q9 12 16 23q-37 -1 -76 -5h-167q36 72 64 90q-13 6 -27 10q-13 4 -31 15q-16 -46 -30 -74q-12 -25 -36 -61
q-28 -42 -52 -66q-22 -21 -61 -44q12 -3 51 -27q3 0 5 -2q19 21 40 47l59 76h188q-30 -48 -97 -115q-51 39 -73 80q-6 -4 -11 -11q-19 -19 -26 -23l47 -45l28 -25q-21 -18 -41 -31q-22 -15 -58 -34q-57 -30 -107 -39q27 -22 41 -44q21 9 73 40q69 42 127 83q93 -57 231 -98
q10 24 31 50q-63 4 -112 20q-48 15 -118 54q69 69 101 123zM704 92l-130 1q-12 3 -27 3q-3 1 -5 1v-46q12 3 25 3q21 0 41 2h96q-3 -99 -5 -108h48q-3 6 -4 36l-1 72q169 0 176 -3q4 0 7 -2v46q-24 -4 -66 -5h-117v81h70q24 0 53 -3l13 -2v46q-31 -4 -66 -5h-70v81
q129 0 137 -3q3 0 16 -3v47q-25 -6 -65 -6h-88v17q0 33 19 65h-62q1 -31 5 -65v-17l-128 3q-12 3 -17 3v-47q19 4 41 5l104 1v-81l-116 3q-6 1 -13 2v-46q1 0 60 5h69v-81z" />
  </g>

</svg>
