<?xml version="1.0" standalone="no"?>
<!DOCTYPE svg PUBLIC "-//W3C//DTD SVG 1.1//EN" "http://www.w3.org/Graphics/SVG/1.1/DTD/svg11.dtd" >
<svg xmlns="http://www.w3.org/2000/svg" xmlns:xlink="http://www.w3.org/1999/xlink" version="1.1" viewBox="-10 0 1010 1000">
   <path fill="currentColor"
d="M214 0q99 32 105 48q0 4 -12 13q-21 16 -31 33q-99 168 -143 230q4 -1 12 -2q72 -14 105 -16q30 -54 40 -91q75 33 79 43q0 1 -6 8q-58 72 -188 280q6 0 16 -1q126 -5 164 -17l-16 76q-167 3 -254 25l-22 -81q36 18 163 -181q-89 8 -155 28l-19 -85q72 -17 162 -310z
M514 215q85 25 87 33q0 2 -7 7q-43 37 -94 116v399q-1 73 8 115h-85q8 -61 8 -115v-313q-9 12 -26 32q-25 30 -36 45q-23 -36 -69 -49q116 -70 214 -270zM649 488v116h170v-116h-170zM649 655v115h170v-115h-170zM369 687l-8 85q-197 21 -294 52l-19 -101q182 9 321 -36z
M379 187q0 -31 -5 -67q-1 -7 -1 -10l103 7h151q-15 -53 -46 -93l94 -18q23 51 35 111h115q52 0 106 -6q4 -1 6 -1q-8 28 -8 79q-1 46 8 63h-102q9 -23 8 -71h-389q0 47 8 93h-87q0 -3 1 -12q3 -33 3 -75zM581 280q29 6 98 6h150q88 1 109 -8v72q-24 -9 -107 -8h-63
q-2 7 -6 32q-7 42 -12 63h38q43 0 89 -6q13 -2 18 -2q-8 39 -8 111v214q0 39 7 122q1 11 1 15h-83q0 -4 2 -15q5 -28 5 -54h-170q0 32 7 53q2 5 3 8h-86q9 -41 8 -111v-250q0 -62 -8 -93q46 8 106 8q7 -24 17 -95h-15q-78 0 -100 6v-68z" />
</svg>
