<?xml version="1.0" standalone="no"?>
<!DOCTYPE svg PUBLIC "-//W3C//DTD SVG 1.1//EN" "http://www.w3.org/Graphics/SVG/1.1/DTD/svg11.dtd" >
<svg xmlns="http://www.w3.org/2000/svg" xmlns:xlink="http://www.w3.org/1999/xlink" version="1.1" viewBox="-10 0 1010 1000">
   <path fill="currentColor"
d="M476 2q67 19 89 34q0 4 -11 10q-13 7 -20 14q-12 10 -62 75q-7 8 -10 12q8 7 27 21q41 34 65 55l-46 39h159q-19 -33 -111 -117q69 -70 97 -139q78 23 87 34q0 3 -7 6q-20 7 -33 24q-26 30 -65 69q47 43 97 86l-55 37h164q-30 -51 -109 -129q60 -49 93 -125q83 27 86 36
q0 3 -8 7q-13 6 -20 13q-36 35 -70 63q42 38 98 90l-64 45q24 -1 42 -4q-6 30 -6 64v143q-1 64 4 85q-25 -4 -72 -4h-138v60h164q33 0 88 -8v73q-36 -8 -82 -8h-103q89 125 226 135q-42 30 -61 85q-160 -66 -232 -214v129q0 75 8 111h-84q8 -41 8 -113v-131
q-105 146 -242 232q-27 -46 -63 -69q124 -36 240 -165h-76q-69 0 -101 6v-67q51 3 107 4h135v-60h-123q-57 0 -81 4q6 -18 6 -87v-133q0 -42 -4 -74q27 6 77 6q-29 -51 -105 -111q61 -58 97 -149zM609 322h-131v53h131v-53zM677 322v53h138v-53h-138zM677 431v56h138v-56
h-138zM478 431v56h131v-56h-131zM363 641l-10 88q-192 45 -276 95l-29 -101q123 -9 315 -82zM200 -6q78 34 102 54q0 2 -10 9q-26 18 -38 39q-83 152 -145 222l145 -16q8 -13 13 -22q24 -38 36 -78q5 -13 12 -33q75 34 90 52q0 3 -7 8q-27 17 -47 51q-73 125 -188 262
l196 -34l-12 72q-133 7 -272 43l-23 -93q60 12 168 -167q-114 9 -168 28l-24 -87q26 -13 53 -50q81 -124 119 -260z" />
</svg>
