<?xml version="1.0" standalone="no"?>
<!DOCTYPE svg PUBLIC "-//W3C//DTD SVG 1.1//EN" "http://www.w3.org/Graphics/SVG/1.1/DTD/svg11.dtd" >
<svg xmlns="http://www.w3.org/2000/svg" xmlns:xlink="http://www.w3.org/1999/xlink" version="1.1" viewBox="-10 0 1010 1000">
   <path fill="currentColor"
d="M409 48q38 6 101 6h278q52 0 115 -6q-8 39 -8 89v137q0 64 6 93q-34 -5 -111 -5h-209q54 32 50 37q-3 3 -12 3q-20 0 -38 11q-7 4 -30 17q-35 20 -57 33l171 -2q61 -43 91 -78q78 45 79 56q-3 3 -14 4q-19 1 -33 10q-134 86 -246 143l246 -16q-18 -21 -56 -50l66 -38
q52 54 133 151l-78 46q-13 -26 -32 -56l-142 8v143q3 82 -22 96q-19 21 -127 27q4 -46 -30 -97q119 31 109 -30v-137q-144 3 -212 22q-1 -2 -2 -12q-5 -40 -14 -65q71 -2 214 -78q-151 4 -188 16q-5 -49 -20 -79q83 -10 157 -85h-76q-38 0 -61 3q8 -53 8 -83v-163
q0 -35 -6 -71zM484 113v68h133v-68h-133zM681 113v68h144v-68h-144zM484 235v67h133v-67h-133zM681 235v67h144v-67h-144zM486 677l18 9q64 31 59 35q0 3 -9 6q-25 8 -46 27q-65 59 -143 117q-33 -37 -65 -55q118 -47 186 -139zM770 689q93 68 155 121l-66 65
q-53 -81 -149 -142zM367 675v16q-2 43 0 65q-145 16 -304 70q-9 -61 -25 -97q174 -11 329 -54zM198 6q24 11 60 27q57 24 50 27q-1 3 -8 9q-21 18 -38 44q-8 12 -23 38q-83 134 -100 159l121 -6q42 -74 53 -115q14 8 41 23q54 29 51 34q0 2 -7 6q-20 11 -33 30
q-107 157 -190 266q151 -4 208 -30q-18 44 -18 86q-222 13 -290 33q-1 -6 -2 -17q-4 -36 -15 -72q50 9 168 -179q-116 8 -168 22q-6 -48 -18 -83q92 -39 158 -302z" />
</svg>
