<?xml version="1.0" standalone="no"?>
<!DOCTYPE svg PUBLIC "-//W3C//DTD SVG 1.1//EN" "http://www.w3.org/Graphics/SVG/1.1/DTD/svg11.dtd" >
<svg xmlns="http://www.w3.org/2000/svg" xmlns:xlink="http://www.w3.org/1999/xlink" version="1.1" viewBox="-10 0 1034 1024">
  <g transform="matrix(1 0 0 -1 0 820)">
   <path fill="currentColor"
d="M309 14q1 19 5 39q-27 -16 -51 -26q-30 -10 -84 -25q-43 -12 -74 -19q-27 -6 -61 -9q19 -24 33 -48l45 20l80 24q36 9 105 32q0 6 2 12zM100 434q21 39 39 77l45 92q22 49 38 69q10 15 32 29q-9 6 -55 29q-10 -46 -74 -177q-37 -76 -48 -92q-13 -18 -32 -27q7 -18 16 -47
q36 9 62 13q24 3 92 5q-27 -52 -50 -88q-21 -33 -49 -73q-30 -40 -64 -45q1 -3 3 -8q7 -19 12 -32q1 -7 4 -10q30 12 86 21q84 9 137 12q6 30 12 49q-25 -9 -65 -14l-67 -9q-18 -1 -43 -2q30 43 52 82q120 201 125 206q6 9 14 13q4 1 9 5q-24 13 -44 34q-6 -19 -21 -49
q-21 -40 -33 -58zM469 589v98q0 18 3 34q3 22 14 38h-60q1 -36 5 -72v-98l-112 3q-1 1 -3 1q-3 1 -6 1v-47q4 1 38 5l83 1v-151l-71 1q-19 3 -25 3q-3 1 -6 1v-46q54 4 82 5l147 -1q12 -1 24 -4v46q-6 0 -14 -2q-13 0 -51 -3h-48v151q117 0 127 -3q3 0 8 -3v47l-107 -5h-28z
M348 -23q-3 -43 -4 -64q-1 -3 -1 -6h49q-6 16 -6 70v16h132q-1 -30 -3 -61q-1 -3 -2 -16h48q-1 9 -5 55l1 263q0 19 4 48q-72 -4 -107 -5l-111 5q1 -33 5 -66v-239zM386 28v213h132v-213h-132zM786 302q0 15 2 34q3 21 15 39h-60q1 -36 5 -73l-2 -131q-9 -69 -13 -85
l-15 -47q-39 -90 -121 -139q-21 -12 -54 -20q21 -15 44 -38q102 66 147 146q34 60 46 140q4 55 6 107v67zM898 672q27 0 53 -2q6 -1 13 -3v46l-27 -3l-91 -2l-228 1q-12 1 -36 2q-3 1 -12 2v-46q54 4 81 5h92q-18 -87 -42 -162q-12 0 -77 5q1 -33 5 -66l-3 -348q-1 -3 -1 -8
q-1 -3 -1 -7h49q-3 19 -4 32l-1 356h199q0 -339 -3 -363v-3q-1 -3 -1 -8q-1 -3 -1 -7h49q-3 19 -4 33l-1 322q0 33 5 67q-34 -1 -70 -5h-102l32 120q4 15 10 42h117zM795 26q82 -81 146 -170q15 15 21 23q4 4 9 7q-9 9 -74 87q-45 49 -70 81q-16 -13 -32 -28v0z" />
  </g>

</svg>
