<?xml version="1.0" standalone="no"?>
<!DOCTYPE svg PUBLIC "-//W3C//DTD SVG 1.1//EN" "http://www.w3.org/Graphics/SVG/1.1/DTD/svg11.dtd" >
<svg xmlns="http://www.w3.org/2000/svg" xmlns:xlink="http://www.w3.org/1999/xlink" version="1.1" viewBox="-10 0 1010 1000">
   <path fill="currentColor"
d="M742 -15q64 18 91 35q0 2 -7 7q-39 28 -74 86h67h67q20 -1 33 -3v67q-46 -4 -102 -4h-127v69h106q34 0 97 -4v70q-28 -6 -97 -6h-106v63h127q51 0 103 -6q5 -1 7 -1v67q-33 -4 -102 -4h-135v107h50q24 -52 34 -95q81 25 77 30q0 3 -6 7q-25 19 -45 58h47q69 -1 103 -4v72
q1 -8 -111 -8h-373q-65 0 -107 6v-72q5 0 15 1q44 5 94 5h20q-14 -31 -40 -63l72 -26q29 50 42 89h53v-107h-135q-75 0 -103 6v-67q28 3 46 4q22 1 57 1h135v-63h-95q-67 0 -105 6v-71q35 5 103 5h97v-69h-131q-60 0 -95 6v-71q21 5 101 5h54q-27 -71 -56 -105l75 -21
q33 39 58 101l-71 25h138q47 -88 54 -128zM437 635q35 4 87 4h268q41 -1 83 -4q-6 33 -6 70v117q0 52 8 87h-85q4 -33 4 -69h-280q0 36 6 73h-87q5 -45 5 -75v-131q0 -16 -2 -48q-1 -16 -1 -24zM379 679l-10 83q-194 33 -302 78l-21 -96q183 -21 333 -65zM516 699v81h278
v-81h-278zM202 -2q83 38 102 54q0 2 -10 9q-26 18 -38 39q-83 152 -145 222l145 -16q37 -67 61 -133q79 38 82 50q0 3 -7 9q-23 20 -43 52q-94 157 -184 262l186 -30l-6 74q-151 7 -268 37l-23 -93q60 12 168 -167q-114 9 -168 28l-24 -87q26 -13 53 -50q81 -124 119 -260z
" />
</svg>
