<?xml version="1.0" standalone="no"?>
<!DOCTYPE svg PUBLIC "-//W3C//DTD SVG 1.1//EN" "http://www.w3.org/Graphics/SVG/1.1/DTD/svg11.dtd" >
<svg xmlns="http://www.w3.org/2000/svg" xmlns:xlink="http://www.w3.org/1999/xlink" version="1.1" viewBox="-10 0 1034 1024">
  <g transform="matrix(1 0 0 -1 0 820)">
   <path fill="currentColor"
d="M505 327l-400 1q-12 1 -19 3l-13 2v-48q1 0 4 3l62 4h366v-336l-253 -16v204q0 15 2 32q3 18 12 33h-57q4 -12 5 -65l-1 -202q-3 -15 -4 -49q24 3 28 4l34 4l520 39v-39q0 -37 -5 -63h49q-4 12 -5 35l-1 274q0 28 4 41q1 13 10 24h-57q4 -15 5 -65v-170l-248 -16v331h351
q25 0 51 -2q6 0 12 -5v48q-3 0 -8 -2l-55 -4h-351v226l275 -1q3 0 28 -5v47q-10 -1 -22 -4l-511 -1q6 18 13 34q15 34 31 68q15 30 18 34q1 4 20 20q-27 7 -61 20q-13 -63 -54 -151q-42 -87 -85 -143q-30 -39 -56 -56q9 -3 50 -27l70 107q18 30 37 58h209v-226z" />
  </g>

</svg>
