<?xml version="1.0" standalone="no"?>
<!DOCTYPE svg PUBLIC "-//W3C//DTD SVG 1.1//EN" "http://www.w3.org/Graphics/SVG/1.1/DTD/svg11.dtd" >
<svg xmlns="http://www.w3.org/2000/svg" xmlns:xlink="http://www.w3.org/1999/xlink" version="1.1" viewBox="-10 0 1010 1000">
   <path fill="currentColor"
d="M198 14q24 7 62 16q52 13 48 16q0 3 -7 8q-34 25 -67 101h151q61 0 109 -6v80q-47 -6 -113 -6h-38v172h74q65 0 125 -6v80q-39 -6 -131 -6h-68v283l88 -13q0 -136 -6 -187q15 1 40 1q58 0 57 7q1 1 -2 8q-14 39 -14 91v131q0 62 6 99h-85q4 -53 4 -87q-289 45 -336 58
q6 -50 6 -161t-6 -151q8 0 21 1q82 1 76 7q1 2 -3 12q-18 49 -18 113v95l97 -16v-291h-89q-83 0 -123 6v-80q49 6 125 6h87v-172h-66q-15 32 -46 94q-14 27 -21 41q-37 -29 -85 -32q112 -143 148 -312zM534 141q42 5 65 6q26 2 72 2h137q61 0 111 -8v82q-48 -6 -109 -6h-54
v567h81q66 1 111 -8v82q-40 -7 -99 -6h-12h-186q-83 0 -131 6v-82q5 0 20 2q60 6 137 6v-567q-96 -4 -143 8v-84z" />
</svg>
