<?xml version="1.0" standalone="no"?>
<!DOCTYPE svg PUBLIC "-//W3C//DTD SVG 1.1//EN" "http://www.w3.org/Graphics/SVG/1.1/DTD/svg11.dtd" >
<svg xmlns="http://www.w3.org/2000/svg" xmlns:xlink="http://www.w3.org/1999/xlink" version="1.1" viewBox="-10 0 1010 1000">
   <path fill="currentColor"
d="M462 -6q84 10 78 14q0 3 -5 8q-13 15 -13 38v67q39 0 69 -8v70q-10 -7 -69 -8v71q48 0 75 -6v62l-43 -2v69q19 -10 51 -37l4 -4q3 21 26 55q-82 42 -133 94q-7 -8 -20 -24q-17 -21 -24 -30q42 -15 42 -40v-83h-42q-21 134 -113 196q-21 -29 -55 -43q99 -55 109 -153
q-28 0 -53 3q-8 1 -13 1v-62q31 4 64 4h67v-71h-75q-12 24 -18 42q-33 -15 -61 -20q48 -73 57 -165q9 2 26 5q54 8 51 15q0 3 -5 8q-20 18 -32 61h57v-55q0 -15 -1 -42q-1 -21 -1 -30zM744 0q80 -4 79 4q1 3 -3 11q-12 25 -12 61v43h47q44 0 74 -6v64q-20 -5 -72 -4h-51v73
h63q41 0 75 -6v66q-25 -6 -73 -6h-36v95q-4 39 26 32q30 6 44 -81q24 41 55 53q-18 59 -35 73q-16 17 -62 16q-58 1 -69 -7q-13 -6 -12 -38v-145h-40q-12 129 -103 204h123q44 0 91 -4q-6 30 -6 78v81q-1 60 4 83h-85q-1 1 0 -7q6 -36 6 -74v-89h-292v91q0 58 6 87h-89
q8 -45 8 -87v-79q0 -22 -1 -56q-1 -22 -1 -30q39 6 99 6h125q-16 -24 -50 -43q94 -48 110 -161l-76 4v-60q17 0 60 3q8 1 12 1h65v-73h-77q-2 -4 -20 44q-45 -12 -66 -12q51 -78 66 -177q10 2 28 6q51 9 47 14q0 3 -6 10q-20 24 -33 61h61v-39q0 -57 -4 -80zM587 600
q93 12 90 17q0 3 -6 9q-10 10 -14 23q-15 226 -312 262q-15 -48 -55 -79q304 16 297 -232zM685 742q144 59 230 106l-52 69q-67 -58 -222 -115zM167 26q7 3 19 8q75 30 64 40q-1 3 -9 11q-19 16 -29 34q-66 136 -121 207l121 -12q6 -13 11 -22q19 -35 29 -71q4 -13 10 -32
q74 36 69 48q0 3 -6 9q-17 16 -33 46q-72 133 -157 246l171 -26q-9 22 -11 58q-1 7 -1 10q-139 7 -231 35q-6 -52 -19 -89q50 11 141 -157q-97 9 -141 26q0 -18 -15 -70l-3 -9q24 -18 41 -48q61 -101 100 -242zM351 631q-10 30 -2 88q-185 51 -272 87q-5 -35 -31 -95
q139 -5 305 -80z" />
</svg>
