<?xml version="1.0" standalone="no"?>
<!DOCTYPE svg PUBLIC "-//W3C//DTD SVG 1.1//EN" "http://www.w3.org/Graphics/SVG/1.1/DTD/svg11.dtd" >
<svg xmlns="http://www.w3.org/2000/svg" xmlns:xlink="http://www.w3.org/1999/xlink" version="1.1" viewBox="-10 0 1034 1024">
  <g transform="matrix(1 0 0 -1 0 820)">
   <path fill="currentColor"
d="M301 550v-221l-221 2q-3 1 -12 2v-47q6 3 12 4q25 1 52 3h169v-345l-137 -9v201q0 34 16 59h-59q0 -1 2 -3q0 -6 4 -39q-1 -3 0 -7l-1 -212q-3 -9 -3 -28q0 -4 -2 -15l130 14q84 9 209 15q-1 -30 -3 -63q-1 -3 -1 -8q-1 -1 -1 -5h50q-3 15 -4 34l-1 262q0 34 17 59h-61
q3 -12 3 -16q1 -19 3 -43v-188l-123 -5v342l186 -1q24 0 32 -4q3 0 6 -2v47q-18 -3 -60 -4h-164v221l139 1q22 -1 47 -5v46q-18 -4 -60 -5h-255q0 7 14 36q4 15 21 47q18 39 50 70q-16 3 -61 21q-7 -31 -33 -94q-22 -54 -45 -94q-63 -108 -109 -137q34 -13 51 -24
q10 12 31 44q24 36 60 94h112zM739 -70l-190 3q-4 1 -7 1q-3 1 -5 1v-47q4 3 52 6l344 -1q21 0 37 -5v47q-18 -4 -60 -5h-134v651q120 0 140 -2q15 0 30 -4v47q-19 -4 -61 -5l-290 3q-4 1 -7 1q-3 1 -5 1v-47q4 3 53 6h103v-651z" />
  </g>

</svg>
