<?xml version="1.0" standalone="no"?>
<!DOCTYPE svg PUBLIC "-//W3C//DTD SVG 1.1//EN" "http://www.w3.org/Graphics/SVG/1.1/DTD/svg11.dtd" >
<svg xmlns="http://www.w3.org/2000/svg" xmlns:xlink="http://www.w3.org/1999/xlink" version="1.1" viewBox="-10 0 1010 1000">
   <path fill="currentColor"
d="M613 -8q96 1 105 10q0 3 -5 9q-15 20 -15 41q0 12 -1 58q-1 40 -1 49q88 0 120 -1q39 -1 57 -5q-8 35 -8 137v151q65 0 103 -10v89q-82 -10 -176 -10h-80q50 219 262 296q-37 15 -87 64q-7 6 -10 9q-170 -110 -212 -305q-48 212 -256 329q-49 -47 -90 -59
q233 -48 290 -336q-97 0 -127 6v-81q27 8 135 8q3 -38 2 -158v-54q-86 0 -123 8v-82q30 8 123 8q0 -66 -1 -99q-1 -39 -5 -72zM694 227q-1 27 -2 73q-2 93 -2 141h106v-214h-102zM373 782q3 -16 4 -34l-190 28q-50 5 -116 30q8 -34 8 -111v-129q0 -39 -2 -64v-10q60 1 88 6
q3 2 -2 9q-14 17 -14 35v177l81 -8v-276h-45q-114 0 -149 8v-85q41 7 147 7h47v-146h-73q-20 45 -52 109q-3 -1 -9 -4q-49 -20 -70 -20q102 -132 125 -298q94 12 101 22q0 3 -7 10q-36 36 -60 111h115q64 0 89 -1q31 -2 42 -5v80q-38 -9 -131 -6v148q118 0 146 -7v83
q-28 -8 -146 -8v270l77 -10v-139q0 -53 -2 -62q88 4 85 10q0 2 -3 9q-11 24 -11 53v87q0 104 6 131h-79z" />
</svg>
