<?xml version="1.0" standalone="no"?>
<!DOCTYPE svg PUBLIC "-//W3C//DTD SVG 1.1//EN" "http://www.w3.org/Graphics/SVG/1.1/DTD/svg11.dtd" >
<svg xmlns="http://www.w3.org/2000/svg" xmlns:xlink="http://www.w3.org/1999/xlink" version="1.1" viewBox="-10 0 1010 1000">
   <path fill="currentColor"
d="M121 26q31 7 77 8h193q54 0 79 -6q-6 32 -6 70v103q1 75 8 107h-89q10 -84 10 -111v-99h-195v103q1 57 12 107h-95q12 -34 12 -103v-107q0 -36 -6 -72zM528 28q35 8 77 8h199q41 0 83 -8q-8 52 -8 76v91q1 45 10 113h-93q7 -45 10 -107v-101h-201v99q0 59 10 109h-91
q10 -30 10 -105v-103q0 -30 -6 -72zM256 145q45 0 89 6q0 3 -5 10q-11 17 -15 36q-1 5 -3 18q-18 118 -48 152q-60 67 -163 112q-17 -41 -61 -72q115 -17 162 -67q53 -59 44 -195zM661 145q51 0 93 12q0 5 -4 11q-11 16 -16 43q-18 190 -186 260q-17 -44 -64 -68
q111 -22 151 -81q38 -64 26 -177zM341 304q61 32 129 91l-53 52q-40 -47 -115 -97zM752 312q117 69 159 101l-62 56q-50 -50 -143 -104zM284 405q56 14 93 32q-36 24 -54 48h367q58 -1 129 -14v81q-46 -7 -119 -8h-162v81h283q83 -1 129 -10v78q-55 -8 -123 -8h-289v113h206
q0 -55 -6 -85q27 5 79 7q18 0 18 1q-17 28 -16 95q0 61 10 93h-95q6 -12 10 -51h-492q-43 1 -89 11q8 -18 8 -85q0 -52 -4 -75q23 5 70 7q33 1 29 5q-30 23 -28 77h224v-113h-277q-59 -2 -131 8v-80q56 12 131 12h277v-81h-184l-56 66q-29 -27 -75 -38q114 -85 137 -167z
" />
</svg>
