<?xml version="1.0" standalone="no"?>
<!DOCTYPE svg PUBLIC "-//W3C//DTD SVG 1.1//EN" "http://www.w3.org/Graphics/SVG/1.1/DTD/svg11.dtd" >
<svg xmlns="http://www.w3.org/2000/svg" xmlns:xlink="http://www.w3.org/1999/xlink" version="1.1" viewBox="-10 0 1034 1024">
  <g transform="matrix(1 0 0 -1 0 820)">
   <path fill="currentColor"
d="M510 217v-103l-416 1l-18 2q-3 0 -12 2v-47q1 0 38 5l408 1v-145l-273 -8v54q0 10 3 32q1 16 12 33h-58q1 -31 5 -65l-5 -95l62 6l558 20q-3 -33 -5 -68h49q0 3 -5 40l-1 103q0 12 3 33q1 18 12 31h-58q0 -6 3 -12q1 -27 2 -95l-266 -8v144q390 0 413 -3q3 0 9 -3v47
l-62 -5h-360v103q264 0 286 -3q3 0 9 -3v47l-93 -5h-440q33 43 39 49q9 9 31 16q-33 19 -55 36q-6 -22 -19 -40q-15 -22 -44 -55q-42 -45 -60 -61q-21 -16 -44 -25q42 -21 50 -27l71 71h231zM171 285q52 33 81 60q58 61 76 126q3 13 5 27l16 120q3 10 10 21l-29 1
q-10 0 -30 4q3 -31 3 -52q0 -30 -4 -65q-6 -46 -19 -77q-30 -70 -103 -114q-33 -18 -75 -25q22 -21 41 -42q13 9 28 16zM171 512q0 -36 -5 -64h49q-4 15 -5 52l-1 203h234v-188q0 -37 -3 -52q0 -3 -2 -13h49q0 3 -4 13l-2 188q0 42 3 67q0 12 3 26q-27 -1 -53 -5l-230 1
q-3 0 -38 4q1 -30 5 -61v-171zM486 352q-94 81 -106 89q-3 -6 -6 -8q-9 -12 -20 -24q16 -9 66 -52q42 -37 56 -54l28 34zM571 515q0 -30 -5 -65h50q-4 12 -5 27q0 18 -2 38v191h241v-187q0 -37 -3 -52q0 -1 -2 -12h49l-4 26l-2 127l1 95q0 6 2 13l3 31q-27 -1 -55 -5l-232 1
q-15 3 -41 4v-8q1 -18 2 -16q3 -27 3 -95v-113zM537 315q24 -13 47 -33q43 34 78 72q57 64 74 176l10 63l4 28q0 6 12 26q-31 0 -58 5q3 -27 3 -44q0 -79 -26 -150q-24 -66 -89 -116q-25 -18 -55 -27zM757 417q25 -16 73 -61q51 -48 77 -81q7 12 28 37l-150 134
q-13 -15 -28 -29v0z" />
  </g>

</svg>
