<?xml version="1.0" standalone="no"?>
<!DOCTYPE svg PUBLIC "-//W3C//DTD SVG 1.1//EN" "http://www.w3.org/Graphics/SVG/1.1/DTD/svg11.dtd" >
<svg xmlns="http://www.w3.org/2000/svg" xmlns:xlink="http://www.w3.org/1999/xlink" version="1.1" viewBox="-10 0 1034 1024">
  <g transform="matrix(1 0 0 -1 0 820)">
   <path fill="currentColor"
d="M143 -60q-1 -25 -2 -53q0 -9 -3 -20h48q-4 28 -5 73v728h664v-675q0 -30 -7 -43q-9 -15 -40 -21q-19 -3 -48 -4q-3 0 -27 1q-18 0 -37 4q15 -27 24 -56q43 3 81 9q58 9 77 30q16 28 17 74l1 677l4 46q-54 -6 -60 -6l-647 1q-12 3 -28 3q-4 0 -17 2q1 -31 5 -65v-705z
M484 81l15 6l-37 80l-46 92l-15 30q10 31 22 61q15 42 24 68l13 42q18 63 44 88q-24 6 -59 17q-13 -99 -67 -239q-18 31 -35 64l-41 69l-39 67q-18 -12 -41 -21q15 -18 26 -33q10 -15 25 -38q45 -72 87 -150q-36 -81 -79 -150t-89 -105q33 -7 58 -22q63 99 132 241
q24 -49 44 -98q21 -55 28 -82q10 6 21 10zM760 121q-9 27 -22 56l-51 108l66 174q15 49 44 72l-20 8q-12 3 -20 7q-6 3 -19 8q-43 -165 -71 -234q-42 90 -102 203q-22 -15 -46 -24q30 -27 53 -69q15 -25 32 -60l44 -89q-39 -91 -92 -171q-36 -52 -74 -84q24 -3 59 -16
q24 39 57 102q36 66 70 132q30 -57 47 -105q15 -42 26 -87q21 13 41 19z" />
  </g>

</svg>
