<?xml version="1.0" standalone="no"?>
<!DOCTYPE svg PUBLIC "-//W3C//DTD SVG 1.1//EN" "http://www.w3.org/Graphics/SVG/1.1/DTD/svg11.dtd" >
<svg xmlns="http://www.w3.org/2000/svg" xmlns:xlink="http://www.w3.org/1999/xlink" version="1.1" viewBox="-10 0 1010 1000">
   <path fill="currentColor"
d="M534 -13q87 0 87 7q0 1 -2 4q-18 28 -18 88h145q0 -28 -3 -69q-1 -20 -1 -27q82 0 83 8q0 1 -2 5q-17 36 -17 85q66 0 158 -8v73q-71 -8 -158 -8v60q50 0 117 -4q-4 22 -4 87t4 91q-37 -4 -115 -5q-78 1 -112 5q4 -26 5 -87q-1 -60 -5 -89q11 0 29 1q15 1 21 1v-60h-147
l2 60q32 0 46 -2q-4 24 -4 83q0 60 4 89q-36 -6 -107 -6q73 27 69 30q0 3 -8 10q-23 18 -43 44h129q-14 -32 -32 -62l77 -4q12 45 20 66h69q51 0 72 -1q25 -1 42 -3v61q-42 -8 -116 -10h-83v66h81q44 0 60 -1q20 -1 32 -3v55q-21 -4 -77 -4h-15h-81v66h76q57 0 93 -6v62
q-44 -8 -92 -8h-77v67h91h31q54 1 77 -4v66q-16 -4 -40 -5q-12 -1 -27 -1h-39h-295q0 38 4 59h-78q7 -49 6 -113v-212l-41 67q-16 -48 -32 -65q101 -120 135 -217q-73 -3 -105 6q6 -26 6 -88t-6 -88q47 6 117 6v-60q-81 -1 -137 8v-71q48 6 137 6q0 -72 -6 -101zM488 252v66
h95v-66h-95zM760 256v68h99v-68h-99zM534 500v66h135v-66h-135zM534 613v66h135v-66h-135zM534 727v67h135v-67h-135zM385 742q0 64 6 102h-74q0 -12 1 -35t1 -35q-236 37 -256 48q6 -49 6 -107v-151q0 -63 -6 -101q91 6 86 10q1 2 -3 9q-15 36 -15 88v168l69 -9v-326
q-121 0 -156 8v-77q35 8 156 8v-155h-41q-5 17 -16 47q-15 43 -24 72q-29 -17 -73 -22q58 -103 81 -288q107 13 101 20q-1 2 -5 6q-25 22 -48 105h93q60 0 113 -6v72q-63 -9 -121 -6v155q86 0 141 -6v73q-66 -6 -141 -6v318l59 -12v-145q0 -69 -6 -95q53 0 67 1q18 1 19 5
q1 2 -2 12q-12 46 -12 103v152z" />
</svg>
