<?xml version="1.0" standalone="no"?>
<!DOCTYPE svg PUBLIC "-//W3C//DTD SVG 1.1//EN" "http://www.w3.org/Graphics/SVG/1.1/DTD/svg11.dtd" >
<svg xmlns="http://www.w3.org/2000/svg" xmlns:xlink="http://www.w3.org/1999/xlink" version="1.1" viewBox="-10 0 1010 1000">
   <path fill="currentColor"
d="M117 32q37 4 153 6h440q132 -3 177 -6q-6 32 -8 151v575q3 87 -28 106q-29 25 -149 33q-4 -59 -45 -107q97 14 117 4q24 -7 22 -61v-620h-594v588q1 97 8 178h-101q11 -47 12 -174v-506q0 -134 -4 -167zM208 697q80 -96 139 -242q-60 -129 -123 -220q25 -10 74 -24
q17 33 49 95q22 43 32 63q35 -115 44 -202q10 3 31 10q71 24 66 26q0 1 -3 3q-12 9 -23 36q-4 10 -11 28q-33 83 -66 173q9 16 27 51q38 69 60 112q-48 22 -77 45q-17 -61 -44 -125q-6 13 -17 37q-53 117 -86 172q-25 -24 -72 -38zM605 467q-5 -9 -13 -25q-37 -85 -102 -174
q15 -7 43 -18q22 -9 30 -13q33 68 58 123q12 29 16 23q36 -127 38 -202q106 22 101 28l-5 5q-13 12 -17 24q-4 13 -14 43q-36 110 -63 182q67 146 97 206q-37 13 -84 34q-27 -96 -51 -159q-3 6 -10 18q-56 105 -103 175q-3 -1 -13 -5q-49 -20 -80 -27q115 -91 172 -238z" />
</svg>
