<?xml version="1.0" standalone="no"?>
<!DOCTYPE svg PUBLIC "-//W3C//DTD SVG 1.1//EN" "http://www.w3.org/Graphics/SVG/1.1/DTD/svg11.dtd" >
<svg xmlns="http://www.w3.org/2000/svg" xmlns:xlink="http://www.w3.org/1999/xlink" version="1.1" viewBox="-10 0 1034 1024">
  <g transform="matrix(1 0 0 -1 0 820)">
   <path fill="currentColor"
d="M504 -74q0 -42 -5 -70h49q-3 34 -5 70v352q6 6 12 13q0 3 7 9q7 9 42 44l333 -3q3 0 11 -3v47q-33 -4 -63 -5l-738 1q-13 1 -28 2l-12 2v-47q10 3 24 4q21 0 44 2l372 -1q-93 -105 -235 -200q-141 -88 -244 -95q12 -9 23 -20q6 -6 23 -30q126 54 212 107q82 54 178 135
v-314zM188 545q-3 -34 -5 -71q33 3 67 5l574 -1q18 0 51 -4q-6 48 -6 79l1 135q0 13 5 53q-18 -1 -34 -4q-27 -3 -38 -3l-572 1q-10 1 -21 3q-13 1 -27 3q1 -34 5 -71v-125zM225 515v184h180v-184h-180zM615 699v-184h-172v184h172zM651 515v184h180v-184h-180zM670 216
l-24 13q-9 -18 -21 -36q16 -6 77 -39q84 -48 132 -80q58 -39 90 -67l5 10q9 18 15 20q0 4 5 8q-54 42 -199 127z" />
  </g>

</svg>
