<?xml version="1.0" standalone="no"?>
<!DOCTYPE svg PUBLIC "-//W3C//DTD SVG 1.1//EN" "http://www.w3.org/Graphics/SVG/1.1/DTD/svg11.dtd" >
<svg xmlns="http://www.w3.org/2000/svg" xmlns:xlink="http://www.w3.org/1999/xlink" version="1.1" viewBox="-10 0 1010 1000">
   <path fill="currentColor"
d="M119 28q27 5 79 7q25 0 61 1h104h284q115 0 154 -1q50 -2 78 -7q-8 37 -8 133q-3 111 6 137q-31 -8 -202 -8h-354q-168 0 -202 8q8 -37 8 -135q0 -60 -1 -85q-2 -30 -7 -50zM421 106v119h146v-119h-146zM206 104v119h143v-119h-143zM637 106v119h149v-119h-149zM351 308
q88 2 101 12q0 2 -3 7q-14 27 -14 60v350q0 74 1 105q2 36 6 53h-99q13 -37 12 -149h-127q-140 0 -176 10v-85q26 8 174 8h129v-87h-71q-84 0 -118 1q-40 2 -55 5v-74q15 4 53 5q18 1 44 1h72h75v-79h-85h-39q-120 -1 -144 6v-84q49 9 183 10h85v-15q1 -44 -4 -60zM542 310
q91 1 97 10q0 2 -3 10q-9 25 -9 53h123q126 0 157 -10v86q-26 -8 -159 -8h-121v79h103q124 0 151 -8v82q-53 -11 -149 -12h-105v87h151q127 0 162 -8v91q-66 -15 -156 -16h-157q0 79 1 108q2 34 5 41h-91q9 -30 8 -153v-319q0 -91 -8 -113z" />
</svg>
