<?xml version="1.0" standalone="no"?>
<!DOCTYPE svg PUBLIC "-//W3C//DTD SVG 1.1//EN" "http://www.w3.org/Graphics/SVG/1.1/DTD/svg11.dtd" >
<svg xmlns="http://www.w3.org/2000/svg" xmlns:xlink="http://www.w3.org/1999/xlink" version="1.1" viewBox="-10 0 1034 1024">
  <g transform="matrix(1 0 0 -1 0 820)">
   <path fill="currentColor"
d="M232 65q0 -9 -6 -69l70 6h186v-66q0 -30 17 -50q16 -21 67 -27q55 -3 109 -4q118 6 128 7q49 9 77 51q19 49 31 72q-18 9 -45 32q-4 -33 -12 -61q-15 -45 -57 -57q-31 -6 -100 -7q-75 0 -117 3q-30 3 -43 12q-15 10 -16 41v54h190q12 0 37 -4q15 0 33 -2q-1 15 -2 23
q-4 19 -5 46v202q87 -45 170 -70q16 30 43 53q-75 6 -124 20q-109 39 -183 120l239 -1l25 -4v46q-27 -1 -55 -5h-457q42 54 89 67q-30 16 -46 34l347 -1q24 -1 49 -5q-4 54 -5 81l5 130q-21 -1 -36 -2q-25 -3 -72 -3l-564 1q-15 3 -50 4q1 -33 5 -66q0 -79 -2 -108
q-3 -3 -3 -37q60 6 68 6h244q-7 -15 -16 -24q-9 -10 -17 -23l-30 -35q-9 -10 -20 -19l-253 1q-13 1 -27 2l-12 2v-46q24 3 49 5h203q-66 -57 -149 -108q-76 -42 -141 -52q24 -15 50 -44l92 51q16 9 42 28v-200zM193 562v129h186v-129h-186zM253 278q33 21 61 44l85 68h227
q37 -39 62 -62q25 -21 65 -50h-232q0 49 3 55q3 16 16 30h-63q1 -33 5 -69v-16h-229zM269 37v87h213v-87h-213zM269 159v83h213v-83h-213zM601 562h-185v129h185v-129zM521 37v87h215v-87h-215zM521 159v83h215v-83h-215zM827 562h-189v129h189v-129z" />
  </g>

</svg>
