<?xml version="1.0" standalone="no"?>
<!DOCTYPE svg PUBLIC "-//W3C//DTD SVG 1.1//EN" "http://www.w3.org/Graphics/SVG/1.1/DTD/svg11.dtd" >
<svg xmlns="http://www.w3.org/2000/svg" xmlns:xlink="http://www.w3.org/1999/xlink" version="1.1" viewBox="-10 0 1010 1000">
   <path fill="currentColor"
d="M133 28q60 7 123 8h464q91 -1 145 -6q-7 39 -8 105v10q0 6 1 20q3 70 7 89q-53 -6 -165 -6h-234q5 2 15 5q40 12 39 17q2 5 -25 35l-9 9h244q128 -1 177 -12v87q-35 -10 -171 -10h-57q118 110 285 113q-33 30 -53 90q-6 -2 -22 -8q-92 -33 -121 -50q0 2 -1 4q-4 7 -3 42
v73q0 53 1 70q1 22 3 31q-34 -6 -95 -6h-149v40q-1 30 11 37q12 10 56 11q176 5 199 -12q33 -26 31 -101q43 39 94 55q-16 92 -60 113q-31 12 -99 15q-68 2 -212 -3q-100 -3 -98 -73v-82h-176q0 50 6 62h-91q9 -17 9 -113v-34q0 -88 -4 -111q-43 24 -111 50q-14 -33 -55 -74
q185 -40 309 -141h-81q-126 2 -173 10v-85q40 8 171 10h137q4 -5 11 -16q25 -33 31 -48h-155q-98 1 -143 6q7 -66 8 -115v-14q-1 -56 -6 -97zM633 102v81h149v-81h-149zM214 102v81h139v-81h-139zM421 102v81h144v-81h-144zM435 379q-58 54 -112 92q-4 11 110 10h13
q0 -45 -6 -78q97 1 106 16q1 3 -4 8q-15 20 -18 54h38q70 0 92 -2q28 -2 31 -8q-50 -43 -88 -92h-162zM270 532v54h176v-54h-176zM690 532h-166v54h166v-54zM446 633h-176v54h176v-54zM524 633v54h166v-54h-166z" />
</svg>
