<?xml version="1.0" standalone="no"?>
<!DOCTYPE svg PUBLIC "-//W3C//DTD SVG 1.1//EN" "http://www.w3.org/Graphics/SVG/1.1/DTD/svg11.dtd" >
<svg xmlns="http://www.w3.org/2000/svg" xmlns:xlink="http://www.w3.org/1999/xlink" version="1.1" viewBox="-10 0 1034 1024">
  <g transform="matrix(1 0 0 -1 0 820)">
   <path fill="currentColor"
d="M500 305l-391 1q-13 1 -27 2q-3 0 -13 2v-45q54 4 109 5h268q-96 -69 -177 -112q-52 -22 -90 -23q12 -30 18 -57q16 9 46 14l51 5l93 9l330 29q28 1 57 5q24 -12 33 -21q21 -18 58 -44q7 16 24 35l-206 137q-7 3 -22 14q-10 -18 -26 -33q48 -22 98 -60l-267 -20
q-81 -6 -154 -8l93 57q36 21 69 43q42 27 46 30l418 -1q12 -1 24 -4v45q-33 -4 -63 -5h-361v85l271 -1q12 -1 24 -4v45q-6 0 -66 -5h-229v95l287 -1l54 -4q-4 57 -5 85q0 75 2 88q0 19 3 40q-36 -1 -72 -5l-603 1q-3 0 -45 4q1 -18 3 -34q3 -27 4 -50q0 -60 -2 -83
q-1 -3 -5 -46q51 4 101 5h240v-95q-273 3 -286 5v-45q18 4 67 5h219v-85zM202 556v132h176v-132h-176zM415 556v132h190v-132h-190zM642 556v132h194v-132h-194zM113 -137q13 -3 22 -6q6 -1 10 -4l31 50q16 28 31 48q27 48 39 60q9 12 32 20q-37 7 -65 20q-7 -30 -42 -87
q-33 -48 -46 -64q-12 -15 -35 -30q10 -3 23 -7zM384 42q-6 0 -13 -3q19 -54 39 -175q4 1 11 3q13 4 28 7q-15 84 -37 175q-6 0 -28 -7zM566 56q31 -90 57 -180q6 1 10 4q4 1 13 3q6 0 17 2q-3 12 -28 85l-30 95q-22 -9 -39 -9zM921 -110q12 12 18 13q3 3 7 4q-18 24 -48 59
l-91 103q-6 -6 -22 -18q-3 0 -9 -5q82 -84 136 -163q4 4 9 7v0z" />
  </g>

</svg>
