<?xml version="1.0" standalone="no"?>
<!DOCTYPE svg PUBLIC "-//W3C//DTD SVG 1.1//EN" "http://www.w3.org/Graphics/SVG/1.1/DTD/svg11.dtd" >
<svg xmlns="http://www.w3.org/2000/svg" xmlns:xlink="http://www.w3.org/1999/xlink" version="1.1" viewBox="-10 0 1034 1024">
  <g transform="matrix(1 0 0 -1 0 820)">
   <path fill="currentColor"
d="M97 162q7 -1 12 -4q27 75 41 122q12 39 22 60q4 12 20 25l-37 6q-15 3 -18 5q-3 0 -6 2q-1 -42 -29 -127q-15 -51 -38 -78q1 0 4 -1l2 -1q6 0 12 -2q7 -3 15 -7zM216 730q-34 3 -70 5q4 -109 5 -113l-5 -92l69 6l605 -1q24 -1 51 -5q-4 19 -5 49l-1 88q1 31 6 68
q-33 -1 -67 -5h-588zM189 571v122h186v-122h-186zM413 571v122h187v-122h-187zM636 571v122h191v-122h-191zM268 -165q-3 9 -4 31l-1 562q0 15 2 32q1 21 17 38h-63q4 -60 5 -70l-1 -556q-3 -24 -4 -37h49zM290 390q27 -42 65 -115q4 3 9 7q4 1 11 7l13 8q-9 16 -17 32
q-18 27 -30 52q-6 12 -18 27q-13 -9 -33 -18zM455 292v-385q0 -46 -6 -69h49l-4 32l-1 42l442 -1q12 -1 24 -4v46q-30 -4 -66 -5h-178v107q165 0 176 -3q1 0 6 -2v46q-27 -1 -53 -5h-129v103l172 -3q3 0 10 -3v46q-27 -1 -53 -5h-129v107q201 0 213 -3q1 0 6 -2v46
q-27 -1 -53 -5h-137q9 15 24 29q-54 48 -114 96q-15 -21 -25 -31q64 -42 111 -94h-232q39 73 50 88q10 15 34 25q-42 13 -66 25q-3 -27 -32 -83q-30 -55 -69 -110q-72 -97 -126 -118q3 0 9 -4q7 -3 17 -7q19 -6 33 -15q16 16 41 48q27 36 56 71zM678 91h-183v103h183v-103z
M495 -52v106h183v-106h-183zM495 229v105h183v-105h-183z" />
  </g>

</svg>
