<?xml version="1.0" standalone="no"?>
<!DOCTYPE svg PUBLIC "-//W3C//DTD SVG 1.1//EN" "http://www.w3.org/Graphics/SVG/1.1/DTD/svg11.dtd" >
<svg xmlns="http://www.w3.org/2000/svg" xmlns:xlink="http://www.w3.org/1999/xlink" version="1.1" viewBox="-10 0 1034 1024">
  <g transform="matrix(1 0 0 -1 0 820)">
   <path fill="currentColor"
d="M274 362q42 -16 75 -34q42 -22 54 -33q10 21 22 32l-76 42q-39 21 -57 27q-15 -31 -18 -34zM738 419q-7 -9 -15 -16q-10 -9 -34 -25q-39 -30 -87 -56q12 -12 26 -30q64 49 72 52q21 15 37 19q12 6 37 8q-18 16 -36 48zM136 240q31 3 64 5l642 -1q18 0 46 -4q-4 54 -5 110
q0 60 2 73q0 19 3 39q-33 -1 -65 -5h-190l40 30q12 10 25 19q15 9 36 14q4 0 9 2q-19 15 -32 24q-1 3 -8 9l111 -1l47 -4q0 3 -2 11q-3 72 -4 76q0 66 3 81q0 7 3 12q-60 -4 -65 -5l-589 1l-38 4q1 -31 5 -64l-4 -85q0 -15 -2 -31q31 3 65 5h458q-12 -13 -29 -29
q-6 -4 -12 -11q-58 -48 -71 -58h-160q3 10 16 26q-18 13 -64 38l-59 31q0 -1 -1 -3q-1 -1 -4 -7t-5 -11q0 -3 -9 -13q43 -18 111 -61h-204q-9 0 -32 3q-15 0 -32 2q1 -19 2 -32q3 -24 3 -80q0 -39 -2 -68q-3 -6 -3 -42zM178 280v142h317v-142h-317zM211 590v101h177v-101
h-177zM605 691v-101h-182v101h182zM530 280v142h317v-142h-317zM641 590v101h177v-101h-177zM235 -71q0 -45 -5 -66h46l-4 31l-1 43h505q-1 -42 -5 -69h47q-3 19 -4 33l-1 215q1 33 5 65q-60 -4 -98 -5l-442 1q-15 3 -48 4q4 -60 5 -65v-187zM776 35v-64h-505v64h505z
M776 69h-505v73h505v-73z" />
  </g>

</svg>
