<?xml version="1.0" standalone="no"?>
<!DOCTYPE svg PUBLIC "-//W3C//DTD SVG 1.1//EN" "http://www.w3.org/Graphics/SVG/1.1/DTD/svg11.dtd" >
<svg xmlns="http://www.w3.org/2000/svg" xmlns:xlink="http://www.w3.org/1999/xlink" version="1.1" viewBox="-10 0 1010 1000">
   <path fill="currentColor"
d="M119 14q61 6 155 6h468q82 0 139 -6q-5 31 -6 105v18q1 57 6 90q-40 -5 -125 -6h-117q58 22 55 31q-1 4 -10 11q-21 16 -41 37h103q60 0 89 -1q34 -1 62 -3q-5 39 -6 101v24q1 67 8 121q-77 -6 -121 -6h-542q-87 0 -131 6q5 -35 6 -115v-24q0 -64 -6 -109q67 5 149 6h87
q-19 -32 -41 -52l75 -27h-161q-37 0 -93 8q6 -53 6 -106v-23q1 -48 -8 -86zM208 157h151v-73h-151v73zM425 84v73h156v-73h-156zM649 84v73h145v-73h-145zM391 221q26 49 34 79h129q26 -42 35 -79h-198zM534 360v117h79q31 -71 38 -102q95 8 95 18q0 5 -14 17q-33 32 -49 67
h129v-117h-278zM460 360h-270v117h120q-13 -39 -44 -88l73 -26q30 41 50 86l-66 28h137v-117zM194 582q69 3 147 4h336q83 0 138 -4q-4 51 -5 111v83q0 112 7 139h-89q5 -16 6 -52h-460q0 40 4 54h-86q7 -23 6 -147v-79q-1 -71 -4 -109zM274 641v60h460v-60h-460zM274 752
v56h460v-56h-460z" />
</svg>
