<?xml version="1.0" standalone="no"?>
<!DOCTYPE svg PUBLIC "-//W3C//DTD SVG 1.1//EN" "http://www.w3.org/Graphics/SVG/1.1/DTD/svg11.dtd" >
<svg xmlns="http://www.w3.org/2000/svg" xmlns:xlink="http://www.w3.org/1999/xlink" version="1.1" viewBox="-10 0 1034 1024">
  <g transform="matrix(1 0 0 -1 0 820)">
   <path fill="currentColor"
d="M319 94v-66h-175q-40 0 -59 5v-45q21 3 42 5h192v-81q0 -24 -3 -50l-2 -13h46q-3 7 -4 31l-1 113l160 -1q12 -1 27 -4v45q-30 -1 -60 -5h-127v66l130 -1q13 0 38 -4q-4 45 -5 70l5 98q-54 -6 -76 -6h-92v62h59q6 0 26 -3q6 0 25 -2q-4 45 -5 67v45q34 -1 71 -5v45
q-30 -1 -59 -5h-12q1 36 13 59h-55q1 -13 4 -29q0 -15 1 -30h-157q0 12 2 22q0 12 11 34h-53q0 -3 1 -6q0 -9 4 -50h-60q-39 0 -61 5v-45q30 4 61 5h60q0 -54 -2 -80q-3 -3 -3 -32q45 4 90 5h3v-62l-131 1q-9 3 -37 5q4 -54 5 -86q0 -36 -5 -82q45 4 84 5h84zM191 128v89
h128v-89h-128zM266 348v72h157v-72h-157zM355 128v89h127v-89h-127zM558 20q22 6 78 5l162 -1q9 -1 19 -4v46q-3 0 -56 -5l-178 1q-18 1 -25 4v-46zM796 476h-161q-42 0 -59 5v-46q15 4 32 5l196 1l-8 -109l-10 -126h-148q0 15 2 30q3 63 8 93q1 24 17 38q-16 0 -56 9
q3 -27 3 -46q0 -69 -16 -164q27 3 56 5h223q-3 -96 -9 -155q-3 -45 -8 -67q-6 -31 -35 -42q-27 -6 -68 -7q-15 0 -37 5q13 -22 24 -48q36 3 58 6q52 7 74 33q18 24 23 59q3 25 7 68l7 119q0 33 9 69q-28 -1 -57 -5h-43l18 215q3 22 5 41q1 7 3 19q-25 -1 -50 -5zM228 730
l-39 4q-10 1 -20 1q4 -54 5 -75l-5 -121q28 3 59 5l610 -1q15 0 44 -4q-4 30 -5 61l5 135q-30 -1 -60 -5h-594zM395 695v-116h-186v116h186zM430 579v116h194v-116h-194zM659 579v116h181v-116h-181z" />
  </g>

</svg>
