<?xml version="1.0" standalone="no"?>
<!DOCTYPE svg PUBLIC "-//W3C//DTD SVG 1.1//EN" "http://www.w3.org/Graphics/SVG/1.1/DTD/svg11.dtd" >
<svg xmlns="http://www.w3.org/2000/svg" xmlns:xlink="http://www.w3.org/1999/xlink" version="1.1" viewBox="-10 0 1010 1000">
   <path fill="currentColor"
d="M647 -13q106 27 125 43q0 1 -6 4q-61 28 -125 131h117q100 -3 137 -8v93q-44 -11 -143 -10h-212v143h147q106 0 140 -6v90q-31 -8 -137 -8h-150v141h250q105 -1 148 -8v93q-47 -7 -154 -10h-242v117q0 88 6 119h-106q7 -34 10 -121v-115h-232q-138 0 -168 8v-95
q35 6 166 12h236v-143h-160q-110 0 -139 6v-92q40 7 141 10h158v-141h-194q-132 2 -161 8v-93q39 8 157 10h296q58 -75 95 -178zM337 -12q4 5 16 18q68 79 89 107l-93 40q-34 -64 -97 -127z" />
</svg>
