<?xml version="1.0" standalone="no"?>
<!DOCTYPE svg PUBLIC "-//W3C//DTD SVG 1.1//EN" "http://www.w3.org/Graphics/SVG/1.1/DTD/svg11.dtd" >
<svg xmlns="http://www.w3.org/2000/svg" xmlns:xlink="http://www.w3.org/1999/xlink" version="1.1" viewBox="-10 0 1034 1024">
  <g transform="matrix(1 0 0 -1 0 820)">
   <path fill="currentColor"
d="M476 215l-10 -59h-331q-18 0 -55 3q-7 0 -13 2v-46q7 3 32 4l353 1q-15 -27 -37 -56q-54 -63 -140 -117q-106 -61 -205 -77q24 -19 42 -47q36 13 89 39q126 60 215 148q30 31 78 98q57 -87 169 -158q51 -30 108 -55q60 -22 140 -48q18 27 39 51q-117 3 -240 71
q-127 70 -176 151l369 -1q12 -1 24 -4v46q-60 -4 -65 -5h-355q0 7 8 47q7 37 21 57l-57 8q-1 -25 -3 -53zM483 428v-115h-314q-18 0 -55 3q-7 0 -13 2v-47q7 3 28 4q18 3 40 2l700 -1q12 0 29 -5v47q-24 -3 -36 -4l-340 -1v115l251 -1q21 0 37 -5v47l-60 -5h-228v104l318 -1
q12 0 36 -5v47q-12 -1 -61 -5h-230q15 21 57 66q13 18 27 28q27 27 58 42q-34 18 -60 40q-6 -21 -31 -56q-84 -103 -100 -120h-347q-16 0 -54 3q-7 0 -14 2v-47q24 6 48 6h314v-104h-223q-16 0 -53 3q-9 0 -14 2v-47q6 3 14 3q21 3 53 3h223zM426 652q-12 12 -89 82
q-6 6 -36 31q-15 -18 -32 -31q46 -36 84 -69l49 -49q4 9 27 32q-1 3 -3 4v0z" />
  </g>

</svg>
