<?xml version="1.0" standalone="no"?>
<!DOCTYPE svg PUBLIC "-//W3C//DTD SVG 1.1//EN" "http://www.w3.org/Graphics/SVG/1.1/DTD/svg11.dtd" >
<svg xmlns="http://www.w3.org/2000/svg" xmlns:xlink="http://www.w3.org/1999/xlink" version="1.1" viewBox="-10 0 1010 1000">
   <path fill="currentColor"
d="M625 2q4 1 12 4q86 29 83 38q0 5 -7 10q-17 10 -34 30l-6 6q-20 22 -40 53h113q125 0 131 -6v80q-12 -6 -131 -6h-212v79h151q118 0 127 -6v76h-1q-21 -6 -136 -6h-141v81h226q135 0 158 -6h1v79h-1q-24 -6 -158 -6h-526q-124 0 -146 6h-1v-79h1q26 6 144 6h226v-81h-131
q-122 0 -140 6v-76h1q22 6 137 6h133v-79h-200q-103 0 -124 6h-1v-80q6 6 123 6h306q45 -94 63 -141zM446 508q104 9 100 18q1 5 -10 18q-22 27 -24 50h180q124 0 146 -6h1v79h-1q-22 -6 -140 -6h-158q54 63 178 104q56 17 112 22t105 -3q-49 59 -62 103q-288 -50 -389 -200
q-76 161 -357 206q-23 -49 -69 -87q298 6 367 -145h-135q-115 0 -136 6h-1v-79h1q22 6 142 6h142q9 -36 8 -86zM290 40l73 -32q42 44 79 102l-65 25q-49 -65 -87 -95z" />
</svg>
