<?xml version="1.0" standalone="no"?>
<!DOCTYPE svg PUBLIC "-//W3C//DTD SVG 1.1//EN" "http://www.w3.org/Graphics/SVG/1.1/DTD/svg11.dtd" >
<svg xmlns="http://www.w3.org/2000/svg" xmlns:xlink="http://www.w3.org/1999/xlink" version="1.1" viewBox="-10 0 1010 1000">
   <path fill="currentColor"
d="M619 6q97 30 117 46q-1 2 -7 4q-46 21 -100 111h111q112 -4 153 -12v91q-36 -8 -153 -9h-208v111h155q107 -3 130 -8v87q-28 -10 -130 -10h-155v125h252q82 0 127 -10v87q-24 -3 -125 -7h-558q-88 1 -157 7v-87q39 10 153 10h228v-125h-168q-90 0 -121 6v-83q33 6 119 8
h170v-111h-208q-114 0 -145 7v-87q41 9 143 10h109q-46 -77 -93 -121l87 -32q45 54 90 113l-78 40h191q53 -82 71 -161zM790 655q21 20 131 177l-88 45q-39 -88 -117 -188zM159 659q87 22 97 32q-1 2 -5 7q-36 38 -92 191q-3 -1 -8 -3q-35 -14 -82 -26q73 -106 90 -201z
M603 665q7 19 23 63q28 75 45 120l-96 17q-18 -107 -53 -180zM401 679q17 60 39 175l-97 11q3 -89 -24 -178z" />
</svg>
