<?xml version="1.0" standalone="no"?>
<!DOCTYPE svg PUBLIC "-//W3C//DTD SVG 1.1//EN" "http://www.w3.org/Graphics/SVG/1.1/DTD/svg11.dtd" >
<svg xmlns="http://www.w3.org/2000/svg" xmlns:xlink="http://www.w3.org/1999/xlink" version="1.1" viewBox="-10 0 1034 1024">
  <g transform="matrix(1 0 0 -1 0 820)">
   <path fill="currentColor"
d="M239 178q-145 0 -174 2q-4 1 -7 1t-12 2v-47q12 6 52 6h140q-4 -96 -59 -181q-43 -66 -96 -86q28 -13 53 -33q66 66 98 137q30 67 44 163q147 0 170 -3q3 0 10 -3v47q-9 -3 -22 -3q-18 0 -41 -2h-118v147l131 -3q3 0 9 -3v47q-9 -3 -13 -3q-25 0 -50 -2h-77v150l156 -3
q3 0 9 -3v47q-12 -3 -23 -4l-104 -1l54 79q-3 -3 8 13q30 46 38 55q10 10 38 26q-54 33 -60 37q-7 -28 -34 -74q-34 -60 -55 -91q-15 -24 -34 -45l-192 1q-12 3 -20 4v-47l39 5l142 1v-150l-138 4q-1 1 -3 1v-47q12 6 52 6h89v-147zM143 741q-19 -15 -38 -23q57 -72 77 -137
q21 15 41 24q-36 66 -80 136zM488 -24q0 -54 -21 -75l40 -43q21 36 57 75q36 37 70 77l46 51q9 7 17 17q-6 12 -9 24q-1 9 -6 24q-12 -18 -64 -79q-33 -36 -92 -95v403h171l15 -103q19 -111 47 -179q25 -70 70 -131q28 -43 67 -44q24 0 50 38q10 19 34 82q-21 15 -43 34
q-6 -52 -17 -77q-12 -27 -27 -28q-15 0 -35 25q-21 27 -35 53q-27 48 -48 119q-21 72 -39 211l186 -1q13 0 27 -5v46l-104 -5h-113q-10 145 -13 271l110 18q48 6 56 3q4 1 9 0q-19 25 -37 58q-42 -18 -73 -26q-39 -9 -100 -20q-117 -15 -201 -18l5 -111v-589zM526 390v250
l152 14l8 -134q0 -22 8 -130h-168zM786 -130q-52 76 -79 112l-13 19q-18 -15 -32 -25q67 -87 86 -134q18 15 38 28v0z" />
  </g>

</svg>
