<?xml version="1.0" standalone="no"?>
<!DOCTYPE svg PUBLIC "-//W3C//DTD SVG 1.1//EN" "http://www.w3.org/Graphics/SVG/1.1/DTD/svg11.dtd" >
<svg xmlns="http://www.w3.org/2000/svg" xmlns:xlink="http://www.w3.org/1999/xlink" version="1.1" viewBox="-10 0 1010 1000">
   <path fill="currentColor"
d="M825 8q15 7 40 18q61 25 54 30q0 5 -10 13q-46 40 -107 132h41q79 -1 88 -4v75q-5 -2 -24 -3q-14 -1 -64 -1h-81v119h71q62 0 79 -4h1v76h-1q-17 -4 -81 -4h-69v135h89q72 0 86 -4h1v75q-5 -2 -24 -3q-15 -1 -65 -1h-87v115q0 81 4 119q1 6 0 6h-79v-1q3 -23 3 -128v-111
h-71q-55 0 -70 1q-20 0 -25 3v-75q17 4 87 4h79v-135h-53q-52 0 -67 1q-19 1 -24 3v-76h1q20 4 90 4h53v-119h-43q-68 0 -84 4h-1v-75q17 4 81 4h91q56 -88 91 -193zM643 20q35 59 71 127l-77 34q-21 -67 -66 -127zM113 54q44 8 121 8h137q84 0 129 -6q-6 33 -6 99v64l52 -4
v71l-52 -4v66q0 75 6 101h-2q-33 -6 -133 -6h-117q-2 6 -8 20q-21 55 -34 75q17 4 94 4h99q63 0 91 -6q-6 36 -6 95v129q0 72 8 111h-81q6 -13 6 -73h-169q0 43 6 75h-83q1 -7 2 -21q6 -49 6 -94v-93q0 -36 -6 -77q-15 38 -78 129q-18 -36 -59 -66q96 -99 141 -208
q-69 0 -87 4h-1v-72h1q21 4 106 4q13 -50 16 -97h-53q-50 0 -64 1q-19 1 -24 3v-71q9 3 90 4h55q0 1 1 -12q2 -46 5 -86h-24q-51 0 -85 4v-71zM296 121q-2 17 -6 54q-2 29 -4 44h137v-98h-127zM282 282q-9 54 -18 97h159v-97h-141zM248 596v142h169v-142h-169z" />
</svg>
