<?xml version="1.0" standalone="no"?>
<!DOCTYPE svg PUBLIC "-//W3C//DTD SVG 1.1//EN" "http://www.w3.org/Graphics/SVG/1.1/DTD/svg11.dtd" >
<svg xmlns="http://www.w3.org/2000/svg" xmlns:xlink="http://www.w3.org/1999/xlink" version="1.1" viewBox="-10 0 1010 1000">
   <path fill="currentColor"
d="M629 -17q77 40 87 61q-2 5 -14 11q-20 11 -33 27q-80 93 -125 131l262 -8q-33 -31 -80 -62l64 -45q48 34 166 152l-63 54q-2 -3 -7 -9q-15 -21 -33 -35q-122 4 -276 14q-95 6 -117 16l-23 -85q46 -10 69 -36q65 -72 123 -186zM312 12q88 36 95 50q0 3 -12 11
q-20 13 -28 25q-15 24 -42 75q-13 23 -19 34q70 0 101 -6v69q-34 -7 -129 -6v117q67 1 109 -8v76q-31 -6 -89 -4h-20q0 27 -3 96q-1 14 -1 21q54 0 78 -1q29 -2 53 -7v83q-37 -9 -133 -8q-40 170 -147 284q-29 -32 -81 -50q119 -96 152 -236h-13q-88 -1 -131 10v-83
q51 11 154 10q0 -12 1 -41q1 -50 1 -82h-25q-56 0 -98 8v-76q40 9 96 8h27v-117h-39q-73 0 -106 8v-73q37 8 110 8h63q65 -124 76 -195zM179 20q26 62 41 133l-77 14q-11 -73 -40 -127zM562 298l65 46q-68 53 -163 139q-21 -30 -57 -54q89 -50 155 -131zM762 300
q97 49 188 111l-49 70q-83 -68 -191 -125zM595 397q67 20 84 40q-1 6 -10 12q-13 10 -22 22q-14 16 -20 29h133q49 0 99 -6q-52 141 -137 252q56 43 230 62q-39 47 -47 93q-136 -38 -234 -105q-72 57 -254 111q-17 -31 -64 -77q171 -28 266 -84q-49 -67 -73 -127
q-36 48 -93 105l-9 9q-17 -29 -71 -46q167 -126 222 -290zM758 556h-163q30 84 76 143q50 -50 87 -143z" />
</svg>
