<?xml version="1.0" standalone="no"?>
<!DOCTYPE svg PUBLIC "-//W3C//DTD SVG 1.1//EN" "http://www.w3.org/Graphics/SVG/1.1/DTD/svg11.dtd" >
<svg xmlns="http://www.w3.org/2000/svg" xmlns:xlink="http://www.w3.org/1999/xlink" version="1.1" viewBox="-10 0 1010 1000">
   <path fill="currentColor"
d="M611 -6q40 10 101 38q-1 2 -7 5q-35 19 -72 76h143q85 -2 125 -9v81q-31 -8 -125 -8h-232v67h174q68 0 119 -7v79q-29 -9 -113 -8h-180v69h254q90 0 133 -8v82q-28 -6 -127 -10h-300q27 14 59 38q-19 1 -47 43h236q70 0 123 -6q-44 88 -79 159q-32 -14 -88 -18
q40 -43 62 -79h-135q2 191 290 218q-38 37 -58 91q-223 -66 -270 -220q-32 176 -264 234q-25 -49 -77 -73q279 -19 302 -250h-82q-17 23 -45 59l-24 30q-33 -32 -72 -40q113 -91 145 -186h-234q-135 3 -165 12v-84q66 8 163 8h224v-69h-174q-92 -1 -117 6v-77q31 7 121 7
h170v-65h-218q-103 0 -133 6v-75q35 5 133 5h117q-27 -41 -65 -87l85 -28q5 8 17 25q28 40 46 69l-57 21h167q48 -88 51 -121zM188 479q34 25 105 82q17 14 26 21l-67 55q-62 -67 -125 -103zM333 641q0 30 9 86q1 3 1 4q-154 77 -216 127q-17 -57 -48 -92q153 -46 254 -125z
" />
</svg>
