<?xml version="1.0" standalone="no"?>
<!DOCTYPE svg PUBLIC "-//W3C//DTD SVG 1.1//EN" "http://www.w3.org/Graphics/SVG/1.1/DTD/svg11.dtd" >
<svg xmlns="http://www.w3.org/2000/svg" xmlns:xlink="http://www.w3.org/1999/xlink" version="1.1" viewBox="-10 0 1034 1024">
  <g transform="matrix(1 0 0 -1 0 820)">
   <path fill="currentColor"
d="M497 125l-401 3q-6 1 -13 2v-39l61 5h343q-12 -34 -28 -59l-315 3l-8 2q-3 1 -5 1v-41q34 4 55 5h245q-30 -21 -54 -35q-55 -28 -143 -45q-60 -12 -95 -12q-24 3 -30 3l-2 1q-9 0 -14 1q18 -24 30 -51q117 15 185 35q117 37 177 103h40q78 -57 165 -88q34 -12 101 -27
q63 -12 116 -18q6 21 23 55q-30 -3 -51 -3q-67 0 -140 19q-75 21 -147 62q277 0 287 -3q3 0 8 -2v41q-19 -6 -62 -6h-319q0 3 15 24q0 3 6 8q6 6 14 11q-24 7 -41 16l431 -3l10 -2v39q-30 -1 -62 -5h-349v57l285 -1q12 0 26 -3l2 -1v40q-7 -3 -12 -3q-22 -1 -50 -3h-251v52
l307 -1q18 0 31 -4v38q-42 -3 -84 -4h-133q30 30 55 47q18 12 46 19q-33 24 -50 40q-16 -19 -33 -40q-40 -39 -71 -65q-1 0 -2 -1h-191q-9 12 -19 22q-39 43 -60 64q-7 -9 -18 -19q-6 -4 -12 -10q12 -9 51 -49q1 -3 7 -8l-209 4h-5v-38q27 3 54 5h303v-52l-266 1
q-31 3 -41 4q-3 1 -5 1v-40q6 3 28 4l284 1v-57zM244 447q-52 -39 -93 -62q-33 -18 -66 -27q9 -6 19 -14q7 -6 16 -19q9 7 12 9q13 9 28 17q-4 -3 17 9q37 24 59 37q18 10 40 19q-15 13 -27 31h329q-10 -6 -20 -13q31 -45 50 -88q7 9 23 18q3 1 9 6q-9 19 -47 77h176
q-10 -9 -17 -18l85 -64q21 -18 45 -45q6 18 25 33q-52 45 -116 94l115 -4v37q-84 -3 -126 -4h-250v64q276 0 282 -3q3 0 8 -2v41q-21 -6 -63 -6h-227v66l350 -4l2 -1v41q-21 -4 -62 -5h-185q4 6 9 10q51 57 55 59q12 10 26 13l-46 36q-48 -82 -87 -118h-165q-42 51 -91 107
q-6 -3 -10 -8q-6 -6 -11 -12q-4 -1 -13 -9l46 -42l32 -36l-249 4q-1 0 -5 1v-41q39 4 55 5h311v-66l-253 1q-24 3 -31 4q-4 1 -7 1v-41h4q7 3 36 4l251 1v-64l-363 1q-15 3 -24 3v-37q24 3 52 4h87zM382 428q16 -27 43 -87l2 2q1 0 4 3q1 1 25 13q-30 60 -40 84
q-6 0 -22 -11q-3 0 -12 -4v0z" />
  </g>

</svg>
