<?xml version="1.0" standalone="no"?>
<!DOCTYPE svg PUBLIC "-//W3C//DTD SVG 1.1//EN" "http://www.w3.org/Graphics/SVG/1.1/DTD/svg11.dtd" >
<svg xmlns="http://www.w3.org/2000/svg" xmlns:xlink="http://www.w3.org/1999/xlink" version="1.1" viewBox="-10 0 1010 1000">
   <path fill="currentColor"
d="M530 -13q12 53 30 89h216q69 0 161 -8v75q-60 -6 -159 -10h-524v54h411q100 -1 160 -10v75q-38 -10 -160 -10h-363q-84 0 -131 6q5 -31 6 -89v-24q-84 1 -125 10v-75q5 0 18 1q76 5 107 5h295l-12 -24q-16 -34 -27 -54zM169 274q42 6 127 6h379q88 -1 148 -6q-6 27 -6 78
q0 65 6 95q-56 -6 -144 -6h-367q-96 0 -143 6q6 -33 6 -85v-2q0 -41 -6 -86zM248 338v47h494v-47h-494zM442 449q27 47 42 71l-57 26h69q19 -47 32 -97q77 17 83 30q0 4 -10 8q-19 8 -28 21q-11 18 -17 40q44 0 67 -4v52q-22 -7 -79 -6h-26v55q66 0 89 -4v50q-20 -4 -89 -4
v57h18q58 0 85 -4v52q-23 -4 -85 -4h-18q3 93 10 117h-78q9 -26 12 -117h-27q-59 0 -84 4v-52q23 4 87 4h24v-57q-44 0 -59 1q-18 1 -28 3v-50q22 4 87 4v-55h-18q-55 0 -87 8v-56q19 4 62 4q-14 -43 -40 -75zM101 483l97 5h42l97 -5l-6 87v256q3 51 -15 61q-13 13 -92 18
q-3 -48 -28 -85q81 31 74 -22v-40h-113q-11 75 -52 151q-32 -24 -71 -42q88 -72 67 -384zM883 490q-13 153 -12 316q1 17 17 18q15 -1 19 -18q4 -21 2 -50q33 31 65 36q-14 67 -32 81q-21 20 -65 18q-78 1 -73 -57q0 -5 2 -46q6 -162 6 -240h-104q14 251 -51 363
q-49 -27 -80 -32q49 -39 64 -113q8 -38 9 -94q2 -55 -1 -144q0 -18 -6 -38q20 0 79 2q27 1 42 2h14q50 0 105 -4zM167 538v58h103v-58h-103zM776 602q5 57 13 144q2 18 3 26l-58 4q5 -21 3 -87q-2 -60 -9 -85zM167 645l-4 64h107v-64h-103z" />
</svg>
