<?xml version="1.0" standalone="no"?>
<!DOCTYPE svg PUBLIC "-//W3C//DTD SVG 1.1//EN" "http://www.w3.org/Graphics/SVG/1.1/DTD/svg11.dtd" >
<svg xmlns="http://www.w3.org/2000/svg" xmlns:xlink="http://www.w3.org/1999/xlink" version="1.1" viewBox="-10 0 1034 1024">
  <g transform="matrix(1 0 0 -1 0 820)">
   <path fill="currentColor"
d="M70 536q27 -21 43 -41q69 48 113 82q33 25 71 64q34 37 72 75q24 24 50 39q-24 12 -52 35q-6 -16 -20 -36q-48 -60 -100 -111q-99 -88 -177 -107zM127 -17q112 45 300 98v-133q0 -21 -19 -28q-16 -6 -48 -6q-18 0 -55 8q6 -27 14 -54q67 6 84 11q60 12 60 69l1 346l4 47
q-60 -4 -62 -5l-261 3q-6 1 -13 2v-45q1 0 60 5h235v-184l-185 -55q-39 -9 -78 -19q-40 -9 -60 -12q10 -24 23 -48zM305 142q3 4 7 8q-9 12 -38 38q-7 6 -13 13q-24 24 -44 46q-9 -15 -29 -31l48 -42l49 -54q9 12 20 22zM646 567q-4 6 -9 11q-9 10 -17 19q-12 -13 -33 -30
q36 -30 47 -44q6 -7 28 -30q-96 -12 -225 -23q-30 -3 -83 -6q6 9 13 17q63 76 87 107q30 39 62 60q-30 18 -46 36q-13 -27 -51 -83q-51 -72 -79 -100q-36 -36 -72 -45q12 -25 17 -48q63 18 134 25l175 21l94 10q27 -36 40 -57q12 15 33 28q-66 81 -69 83zM612 31
q36 19 75 35q76 34 103 44q12 4 22 10v-155q0 -30 -23 -39q-31 -9 -56 -9q-9 0 -16 1q-9 0 -28 4q9 -42 11 -50q21 0 49 6q54 9 74 22q24 16 25 69l1 332l4 46q-30 -1 -61 -5l-239 1q-15 3 -32 3q-3 1 -5 1v-45q39 4 50 5h246v-149q-7 0 -78 -34q-39 -18 -81 -35l-86 -35
q-28 -9 -63 -17q13 -18 18 -26q6 -9 11 -20q21 15 57 30q10 6 22 10zM666 149q6 6 9 10q-57 48 -111 91q-9 -18 -24 -32q12 -6 52 -40q39 -33 57 -52q4 6 9 12q3 6 8 11zM928 536q7 10 30 27q-37 6 -106 40q-85 45 -145 111q-42 45 -57 81q-21 -16 -42 -28q7 -6 48 -50
q72 -85 198 -161l61 -36q6 9 13 16v0z" />
  </g>

</svg>
