<?xml version="1.0" standalone="no"?>
<!DOCTYPE svg PUBLIC "-//W3C//DTD SVG 1.1//EN" "http://www.w3.org/Graphics/SVG/1.1/DTD/svg11.dtd" >
<svg xmlns="http://www.w3.org/2000/svg" xmlns:xlink="http://www.w3.org/1999/xlink" version="1.1" viewBox="-10 0 1010 1000">
   <path fill="currentColor"
d="M200 2q60 1 96 12q12 4 2 25q-15 29 -16 53v67q11 0 29 -1q102 -1 110 -5v76q-44 -6 -139 -6v131q60 0 123 -8q-41 239 -107 361q129 95 319 99h101q198 -9 260 -20q-36 54 -41 101l-227 -2q-337 2 -458 -123q-87 87 -161 133q-27 -44 -71 -65q118 -51 180 -121
q-53 -83 -93 -219l80 -17q12 73 61 176q39 -77 60 -228h-74q-127 0 -184 8v-83q43 8 156 8v-131q-105 0 -156 10v-82q44 8 156 8v-71q-1 -58 -6 -86zM760 207q25 50 48 145l-80 13q-8 -81 -43 -142zM490 223q21 33 58 139l-78 17q-17 -82 -43 -139zM419 139v-81q39 9 115 8
q77 1 117 -10v75v385q81 -43 194 -151v-240q-82 -5 -157 12v-81q42 7 104 6h14q45 0 68 -2q27 -1 49 -6q-6 36 -6 95v496q2 51 -26 67q-26 18 -123 30q-1 -54 -36 -89q122 11 113 -40v-162q-63 57 -141 137q-27 -46 -53 -64v133q2 47 -30 63q-31 18 -127 24q-2 -53 -30 -91
q114 23 117 -26v-158q-31 33 -98 87q-38 31 -54 46l-54 -70q133 -68 204 -141v-262q-129 2 -160 10z" />
</svg>
