<?xml version="1.0" standalone="no"?>
<!DOCTYPE svg PUBLIC "-//W3C//DTD SVG 1.1//EN" "http://www.w3.org/Graphics/SVG/1.1/DTD/svg11.dtd" >
<svg xmlns="http://www.w3.org/2000/svg" xmlns:xlink="http://www.w3.org/1999/xlink" version="1.1" viewBox="-10 0 1034 1024">
  <g transform="matrix(1 0 0 -1 0 820)">
   <path fill="currentColor"
d="M431 27q0 -37 -19 -56q-18 -16 -68 -24q-54 -7 -92 -4q-16 0 -33 2q9 -21 16 -54q84 9 139 20q51 13 74 37q21 24 21 75l1 629l4 48q-60 -6 -66 -6l-265 3q-6 1 -10 2q-3 1 -6 1v-47q19 4 41 5l263 1v-336q-33 -18 -56 -30l-144 -71q-102 -45 -138 -52q13 -25 29 -52
q0 -1 2 -5q30 24 110 67q189 96 197 100v-253zM140 512l86 -76l85 -86q7 12 29 34l-89 85l-47 45l-35 31q-15 -21 -29 -33zM745 222l69 33q13 6 27 12v-255q0 -43 -35 -56q-45 -12 -99 -12l-56 4q12 -19 21 -53q99 10 118 15q90 21 90 93l1 651q0 18 4 50q-31 -1 -64 -5
l-252 3q-6 1 -13 2v-46q39 4 45 5h240v-352q-16 -9 -29 -15q-3 0 -135 -64q-78 -37 -149 -55q19 -33 30 -56q21 18 39 27q27 12 81 41zM591 547q-12 -18 -32 -34q78 -63 164 -157q4 6 8 11q4 3 11 12q3 3 11 12z" />
  </g>

</svg>
