<?xml version="1.0" standalone="no"?>
<!DOCTYPE svg PUBLIC "-//W3C//DTD SVG 1.1//EN" "http://www.w3.org/Graphics/SVG/1.1/DTD/svg11.dtd" >
<svg xmlns="http://www.w3.org/2000/svg" xmlns:xlink="http://www.w3.org/1999/xlink" version="1.1" viewBox="-10 0 1010 1000">
   <path fill="currentColor"
d="M520 46q25 6 111 6h115q52 0 74 -1q27 -1 49 -3q-6 50 -6 109v143q1 110 8 145h-93q8 -36 8 -113q-30 12 -91 35q-117 43 -147 58q-15 -48 -34 -83q56 2 270 -62v-157h-149q-98 0 -115 8v-85zM107 52q17 5 111 8h155q36 -6 107 -8q-8 71 -8 95v165q1 89 8 121h-87
q6 -33 6 -95q-152 43 -278 93q-8 -45 -38 -89q102 -7 314 -62v-149h-179q-75 1 -111 8v-87zM268 153q15 31 45 103l-79 30q-16 -66 -46 -105zM651 153q25 51 39 109l-77 28q-7 -50 -40 -111zM528 443q6 14 17 43q6 17 9 24h166q98 -3 151 -8v84q-35 -12 -155 -8h-422
q-135 0 -165 6v-82q30 5 161 8h184q-12 -24 -36 -57zM643 604q96 27 99 41q0 2 -5 4q-39 18 -94 123h145q122 -3 149 -8v92q-53 -10 -151 -12h-518q-141 1 -201 12v-94q55 10 189 10h311q35 -50 71 -153zM383 608q32 60 50 121l-86 21q-8 -43 -45 -125z" />
</svg>
