<?xml version="1.0" standalone="no"?>
<!DOCTYPE svg PUBLIC "-//W3C//DTD SVG 1.1//EN" "http://www.w3.org/Graphics/SVG/1.1/DTD/svg11.dtd" >
<svg xmlns="http://www.w3.org/2000/svg" xmlns:xlink="http://www.w3.org/1999/xlink" version="1.1" viewBox="-10 0 1010 1000">
   <path fill="currentColor"
d="M145 10q92 -5 99 2q2 1 0 9q-16 39 -6 104q204 -39 216 -49l16 75q-47 2 -186 30q-22 4 -32 6q20 72 42 99q50 -40 81 -83q77 38 75 45q-2 3 -8 6q-16 8 -35 22q-6 4 -21 16q-38 28 -57 44q61 53 78 47q20 -8 26 -61q24 31 69 40q-34 103 -73 103q-76 -5 -157 -96
q-93 56 -163 84q-4 -24 -49 -60q104 -23 176 -69q-35 -56 -51 -123q-59 14 -110 32q-6 3 -10 4l-15 -84q25 3 119 -14q-6 -26 -15 -78zM714 46q11 2 33 3q10 1 25 1h41q74 0 100 -4q-4 29 -4 129v435q0 53 -4 67q-4 15 -22 24q31 36 75 39q-14 73 -52 98q-34 26 -122 25
h-310q-98 1 -123 -18q-29 -16 -28 -77v-212h-73q7 221 -139 331q-32 -41 -75 -59q151 -80 143 -270h-26q-59 1 -93 6v-77q45 2 128 5h133q97 -1 155 -7v77q-30 -6 -81 -6v179q-1 36 19 46q17 12 78 11h250q77 1 97 -15q22 -13 22 -66q-35 9 -87 16q-2 -43 -30 -88q70 8 79 0
q15 -4 14 -43v-165q-14 21 -76 121q-9 15 -13 22q-10 -15 -26 -38q-13 -20 -26 -38q71 -59 141 -156v-229h-61q-1 1 -22 3q-34 3 -40 5v-75zM688 48q-3 66 -3 121v478q2 47 -27 63q-29 19 -114 25q-2 -47 -30 -96q64 19 82 13q18 -3 17 -39v-140q-40 52 -83 131
q-24 -39 -48 -72q61 -45 131 -151v-264h-28q-54 0 -93 6v-75q5 0 14 1q40 5 81 5q74 0 101 -6zM776 171q10 38 29 132q3 17 5 25l-66 12q2 -69 -26 -157zM544 181q31 118 43 175l-63 11q0 -62 -38 -176z" />
</svg>
