<?xml version="1.0" standalone="no"?>
<!DOCTYPE svg PUBLIC "-//W3C//DTD SVG 1.1//EN" "http://www.w3.org/Graphics/SVG/1.1/DTD/svg11.dtd" >
<svg xmlns="http://www.w3.org/2000/svg" xmlns:xlink="http://www.w3.org/1999/xlink" version="1.1" viewBox="-10 0 1010 1000">
   <path fill="currentColor"
d="M456 -25q98 22 107 33q0 4 -9 8q-6 2 -10 4q155 158 426 183q-40 44 -61 91q-136 -37 -234 -97v40q-12 -2 -39 -3q-14 -1 -33 -1h-55h-111h-24q-67 -1 -84 4v-44q-137 96 -228 133q-27 -46 -71 -86q250 -30 426 -265zM496 62q-3 -3 -21 14q-49 46 -110 93q18 3 72 4h79
q69 0 93 -6q-63 -43 -113 -105zM226 274q21 5 131 8h310q86 -1 129 -6q-4 34 -4 66v59q-1 62 4 72q-39 -8 -125 -8h-342q-85 0 -103 6q4 -13 4 -74v-61q0 -48 -4 -62zM716 338h-410v71h410v-71zM113 516q44 8 101 8h165q76 0 109 -6q-7 24 -6 92v9v203q2 61 -24 75
q-19 16 -127 24q-6 -45 -37 -83q124 17 113 -42v-61q-210 95 -276 130q-2 -1 -13 -22q-20 -38 -33 -59q133 -21 322 -107v-93h-195q-62 0 -99 6v-74zM528 518q25 3 109 6h121q5 2 55 0q41 -2 56 -4q-6 51 -8 107v157q3 90 -22 105q-14 20 -133 34q-12 -51 -39 -85
q78 7 98 -3q22 -8 21 -47v-46q-8 3 -28 11q-159 63 -218 93q-11 -29 -32 -68q-6 -11 -8 -16q83 2 286 -75v-103h-149q-80 2 -109 6v-72zM651 619q10 14 26 48l15 30l-75 18q-17 -53 -38 -80zM266 619q8 13 24 46q10 22 16 32l-74 22q-26 -61 -40 -78z" />
</svg>
