<?xml version="1.0" standalone="no"?>
<!DOCTYPE svg PUBLIC "-//W3C//DTD SVG 1.1//EN" "http://www.w3.org/Graphics/SVG/1.1/DTD/svg11.dtd" >
<svg xmlns="http://www.w3.org/2000/svg" xmlns:xlink="http://www.w3.org/1999/xlink" version="1.1" viewBox="-10 0 1034 1024">
  <g transform="matrix(1 0 0 -1 0 820)">
   <path fill="currentColor"
d="M257 171l-127 1q-42 3 -47 4v-46q15 4 60 5h113q-21 -141 -83 -221q-33 -37 -70 -58l54 -30q54 58 86 124q42 90 51 185l130 -1q9 0 29 -3q-12 -9 -23 -18q24 -15 40 -36q36 52 143 166v-280q0 -34 -12 -42q-16 -12 -63 -12q-30 0 -61 6q15 -34 20 -51l67 5q45 6 66 20
q21 16 21 64l1 674q0 10 5 45q-33 -1 -66 -5l-123 3q-6 1 -13 2v-46q39 4 66 5h92v-331q-36 -43 -57 -66q-30 -30 -59 -61l-40 -38v41q-61 -4 -95 -5h-66l7 161q124 0 131 -3q4 0 7 -3v47q-30 -6 -65 -6h-73v165l117 -1q10 0 22 -3l2 -1v46q-24 -4 -65 -5h-55q81 123 83 124
q10 18 28 26q6 4 19 8q-43 16 -71 33q-3 -22 -29 -72q-30 -54 -75 -119q-145 0 -168 2q-6 3 -17 3v-46q10 3 25 3q21 0 41 2h104v-165l-108 2q-3 0 -28 4v-47q19 4 41 5l95 1zM238 617q3 4 8 7q-25 27 -61 61l-45 43q-3 4 -9 11q-15 -16 -32 -29l55 -52l60 -66q3 6 9 11
q3 1 7 6q3 4 8 8zM559 373q-69 81 -102 112q-15 -15 -31 -26q70 -70 100 -115q3 0 4 4q7 3 19 15q1 0 3 3zM747 163q13 15 27 28q4 3 62 61l46 44v-331q0 -9 -2 -26q-1 -12 -11 -16q-18 -7 -47 -8q-10 0 -64 7q7 -25 12 -50q34 1 53 4q52 6 71 16q25 15 26 56l1 678l4 47
q-31 -1 -63 -5l-130 1q-18 1 -27 4v-46q39 4 47 5h130v-283l-68 -69q-27 -25 -50 -45q-37 -31 -75 -48q21 -15 42 -42q7 9 16 18zM693 480q12 -10 46 -50l55 -71q13 10 20 18q3 3 13 10l-27 35l-48 57q-12 15 -30 32q-12 -15 -29 -31v0z" />
  </g>

</svg>
