<?xml version="1.0" standalone="no"?>
<!DOCTYPE svg PUBLIC "-//W3C//DTD SVG 1.1//EN" "http://www.w3.org/Graphics/SVG/1.1/DTD/svg11.dtd" >
<svg xmlns="http://www.w3.org/2000/svg" xmlns:xlink="http://www.w3.org/1999/xlink" version="1.1" viewBox="-10 0 1034 1024">
  <g transform="matrix(1 0 0 -1 0 820)">
   <path fill="currentColor"
d="M391 420l-313 5q-1 1 -2 1v-48q3 0 8 2q15 3 50 4h257v-7q0 -43 -5 -63h48q0 1 -5 60l1 345q0 18 7 33q1 4 5 9h-56q1 -33 5 -66v-38q-267 3 -279 5v-46q49 4 65 5h214v-86l-224 4l-6 2v-47q3 1 8 1q15 3 50 4h172v-79zM618 662q0 72 3 80q1 10 10 23h-56q1 -31 5 -65
q0 -351 -3 -369q-1 -3 -1 -7q-1 -3 -1 -7h48l-4 42l-1 33l297 -1l32 -4v46q-6 -1 -14 -2q-48 -3 -140 -3h-175v76l206 -1l41 -4v46q-33 -1 -66 -5h-181v86l274 -3q3 0 13 -2v46q-6 -1 -15 -2q-48 -3 -51 -3h-221zM358 18q28 15 70 34v-131q0 -22 -16 -32q-19 -9 -51 -10
q-18 0 -65 8q15 -33 21 -53q48 3 90 11q30 7 47 25q12 15 12 45l1 334q0 18 4 46q-19 -1 -35 -3q-22 -3 -32 -3h-231q-27 0 -53 2q-4 0 -12 4v-47q3 1 7 1q3 3 28 3l285 1v-158l-46 -22q-3 -3 -7 -4q-22 -9 -42 -21q-73 -36 -173 -80q-33 -15 -67 -22q21 -27 33 -48
q24 12 46 25zM274 142l-55 45q-12 10 -33 28q-12 -16 -29 -33q12 -9 23 -16q12 -7 31 -25l38 -33q12 -12 30 -32q15 22 28 38q-4 3 -33 28zM811 -64q0 -22 -5 -35q-9 -12 -24 -15q-21 -4 -51 -5q-12 0 -44 6q18 -24 23 -50l78 7q34 7 49 28q12 21 12 56l1 323l4 47
q-30 -1 -62 -5l-230 1q-7 1 -27 2q-3 0 -13 2v-46q7 3 33 4l256 1v-136l-210 -102q-10 -6 -23 -11q-34 -13 -71 -25q16 -19 33 -46q72 45 167 91l60 30q19 9 44 25v-147zM608 199q-15 15 -32 29l-28 -31l66 -55q31 -27 51 -47q12 15 30 31z" />
  </g>

</svg>
