<?xml version="1.0" standalone="no"?>
<!DOCTYPE svg PUBLIC "-//W3C//DTD SVG 1.1//EN" "http://www.w3.org/Graphics/SVG/1.1/DTD/svg11.dtd" >
<svg xmlns="http://www.w3.org/2000/svg" xmlns:xlink="http://www.w3.org/1999/xlink" version="1.1" viewBox="-10 0 1034 1024">
  <g transform="matrix(1 0 0 -1 0 820)">
   <path fill="currentColor"
d="M129 30q-55 3 -61 4l-6 2v-45q15 4 37 5h406v-97l-3 -51q0 -6 -2 -14h49q-6 21 -6 42v120q391 0 404 -2q1 0 5 -1l13 -2v45q-9 -3 -13 -3q-24 -1 -53 -3h-356q1 37 13 64h-56q0 -3 1 -8l4 -56h-376zM177 687l-61 4q-3 1 -6 1v-44q19 4 49 5h271v-115q-27 -12 -57 -23
q-75 -27 -164 -54q-19 -6 -83 -22q-3 1 -3 0q21 -48 21 -51q22 12 76 34l210 78q0 -33 -4 -70q-1 -1 -1 -4h49q-4 19 -5 31l1 200q0 10 4 35q-31 -1 -64 -5h-233zM179 319q-24 1 -53 2l-8 2q-3 1 -6 1v-45q24 4 59 5h190q-3 -15 -12 -26q-12 -16 -54 -64q-16 -19 -32 -34
q-16 -13 -45 -34q-27 -18 -56 -30q21 -12 36 -25l8 -8q21 16 58 49q37 34 72 69l69 -44q27 -18 56 -42q1 3 3 4q1 4 5 8q3 6 5 9l10 13q-30 21 -102 65l-24 16q24 30 62 50q-24 12 -34 20q-3 3 -5 4l499 -1q15 0 30 -3l2 -1v45q-21 -4 -66 -5h-295q13 19 28 30q-6 4 -13 8
l-40 27l-24 15q-16 10 -30 20q-13 -22 -26 -33q36 -24 54 -33q30 -18 46 -34h-367zM543 110q9 -6 20 -16q7 7 17 14q36 31 40 36q30 30 47 45q9 -6 17 -10q1 0 71 -47q64 -42 71 -48l3 -3l9 15q3 9 16 19q-19 13 -85 53q-42 25 -76 49q18 21 52 38q-28 13 -53 29
q-6 -15 -15 -27q-15 -18 -47 -51q-55 -60 -109 -82q10 -6 22 -14zM315 559q-19 12 -58 31q-31 15 -63 32q-9 -21 -19 -36q66 -27 126 -66q7 15 22 35q-4 3 -8 4zM598 693q-25 1 -52 3q-9 3 -15 3v-45q12 6 49 6h241v-117q-54 -21 -128 -43l-104 -31q-16 -4 -52 -10
q18 -27 28 -46q21 9 96 36q21 9 42 15l118 39q-3 -94 -6 -104h50q-3 12 -7 54l1 197l4 28q0 9 2 21l-65 -6h-202zM640 561q45 -22 60 -31q3 7 8 15q6 9 11 19q-99 45 -106 48l-16 8l-4 -11q-4 -12 -14 -21q3 0 61 -27v0z" />
  </g>

</svg>
