<?xml version="1.0" standalone="no"?>
<!DOCTYPE svg PUBLIC "-//W3C//DTD SVG 1.1//EN" "http://www.w3.org/Graphics/SVG/1.1/DTD/svg11.dtd" >
<svg xmlns="http://www.w3.org/2000/svg" xmlns:xlink="http://www.w3.org/1999/xlink" version="1.1" viewBox="-10 0 1010 1000">
   <path fill="currentColor"
d="M317 4l30 98h44q40 0 79 -4q-4 18 -4 69v75q0 57 4 86q-33 -6 -117 -6h-192l-10 75h206q96 -3 131 -6q-5 25 -4 87v16v310q2 40 -21 53q-21 15 -98 26q7 -39 -30 -87q64 12 79 6q17 -3 15 -32v-143h-50v76q0 38 4 77h-56q4 -12 4 -81v-72h-49v96q1 35 4 71h-60
q6 -28 8 -73v-94h-49v137v18q-1 65 3 87h-67q8 -36 8 -103v-262q-41 140 -71 201q-15 -56 -46 -95q58 -82 76 -202q19 -120 3 -312q21 6 90 6h95q-26 -54 -44 -84zM925 52q-5 53 -6 131v607q2 54 -21 68q-17 17 -110 33q3 -49 -34 -95q60 14 77 5q18 -5 16 -45v-220
q-26 24 -86 78q-8 6 -11 9q-18 -29 -46 -65q24 -7 143 -83v-348h-49q-17 0 -57 5q-5 1 -7 1v-81q24 3 97 6q59 -1 94 -6zM165 157v109h234v-109h-234zM794 231q17 103 19 192l-63 6q2 -121 -20 -192zM569 238q15 75 26 189l-67 6q2 -93 -22 -189zM282 449v127h49v-127h-49z
M185 449v127h49v-127h-49zM379 449v127h50v-127h-50zM488 598q81 -45 139 -102v-367h-26q-63 0 -87 6v-81q35 6 93 6q42 0 57 -1q20 0 38 -3q-4 68 -4 123v597q2 60 -20 74q-18 18 -109 31q-4 -61 -35 -93q66 13 77 7q17 -4 16 -37v-190q-67 64 -95 99q-24 -47 -44 -69z" />
</svg>
