<?xml version="1.0" standalone="no"?>
<!DOCTYPE svg PUBLIC "-//W3C//DTD SVG 1.1//EN" "http://www.w3.org/Graphics/SVG/1.1/DTD/svg11.dtd" >
<svg xmlns="http://www.w3.org/2000/svg" xmlns:xlink="http://www.w3.org/1999/xlink" version="1.1" viewBox="-10 0 1034 1024">
  <g transform="matrix(1 0 0 -1 0 820)">
   <path fill="currentColor"
d="M105 719q1 -27 5 -56l-1 -315q-3 -12 -4 -48q15 3 57 4l307 1q21 0 66 -5v46l-64 -5h-324v347l365 -3q1 0 11 -2v46q-25 -1 -51 -5l-319 1q-19 3 -48 4v-10zM212 546q3 4 6 7q6 12 20 26q1 4 6 7h100q-4 -48 -13 -72q-135 3 -143 5q-1 1 -2 1v-45q1 1 50 5h81
q-42 -72 -118 -90q22 -15 37 -34q39 27 58 44q18 16 57 60l19 -13q-1 0 10 -7q13 -10 28 -21l29 -22q9 -6 17 -12l17 -17q9 18 24 33q-9 6 -17 13q-33 21 -51 32q-7 6 -50 34q63 0 130 -3q1 0 11 -2v45q-7 -3 -14 -3q-27 -1 -40 -3h-92q6 39 11 72q109 -3 119 -6l2 -1v46
l-63 -5h-173q12 21 37 37q-24 12 -40 25q-28 -60 -90 -120q16 -7 35 -19q0 1 2 3zM794 704v-54q0 -54 46 -63q21 -4 81 -4q0 21 8 43q-43 -6 -57 -7q-15 0 -26 5q-15 9 -15 26v40q1 27 5 56q-18 -1 -33 -3q-22 -3 -33 -3h-99q-9 0 -34 3q-10 0 -33 3q3 -28 3 -46
q0 -51 -20 -91q-9 -18 -43 -39q21 -7 41 -22q49 51 60 156h149zM547 480q16 1 34 3q3 -1 6 -5l63 -60q1 0 6 -4q24 -19 44 -31q-31 -21 -76 -43q-37 -16 -72 -26q25 -16 40 -36q73 37 142 84q3 0 77 -38q1 0 4 -2q39 -15 103 -44q12 24 31 44q-24 0 -38 5q-24 7 -91 34
q-22 9 -56 26q58 45 104 137q-31 -1 -64 -5q-243 3 -257 5v-44zM801 483q-24 -40 -70 -78q-54 34 -97 78h167zM295 -12l97 42q16 9 33 16v-115q0 -18 -8 -28q-9 -7 -34 -13q-31 -3 -44 -4q-24 0 -50 8q12 -27 20 -53q45 3 60 5q48 6 71 23q22 16 23 55l1 282q0 18 4 46
q-33 -1 -67 -5l-279 4q-3 1 -5 1v-46q3 0 7 1q7 3 36 4h265v-128q-33 -18 -55 -26l-141 -61q-60 -24 -95 -37q-24 -9 -49 -13q16 -21 28 -47q3 1 5 3q60 31 68 35q3 1 8 3zM200 160q-6 6 -12 11q-13 -18 -29 -30q51 -37 98 -86q12 16 25 33q-24 24 -50 46zM811 -59
q0 -31 -12 -42q-15 -12 -54 -12q-24 0 -57 5q12 -19 22 -48q39 1 54 4q45 6 68 23q16 16 17 61l1 277q1 24 5 47q-60 -4 -63 -5l-226 1q-6 1 -22 2l-13 2v-47q1 1 3 1q0 1 28 4l249 1v-120q-213 -99 -236 -109q-42 -15 -68 -19q15 -25 29 -52q51 36 169 90q64 30 106 53
v-117zM557 153q64 -52 93 -89q13 15 29 32q-24 24 -94 87q-7 -9 -28 -30v0z" />
  </g>

</svg>
