<?xml version="1.0" standalone="no"?>
<!DOCTYPE svg PUBLIC "-//W3C//DTD SVG 1.1//EN" "http://www.w3.org/Graphics/SVG/1.1/DTD/svg11.dtd" >
<svg xmlns="http://www.w3.org/2000/svg" xmlns:xlink="http://www.w3.org/1999/xlink" version="1.1" viewBox="-10 0 1034 1024">
  <g transform="matrix(1 0 0 -1 0 820)">
   <path fill="currentColor"
d="M260 197v-108q-168 0 -189 2q-3 1 -12 2q-3 1 -5 1v-46q19 4 45 5h161l-5 -220h49q-6 21 -6 67v153l117 -1q10 0 43 -4v46q-7 0 -12 -2l-111 -3h-37v108l88 -1l49 -4q-4 54 -5 77l1 187l4 48q-33 -1 -66 -5h-78v96l162 -1q16 0 30 -5v46q-24 -4 -66 -5h-126v58
q0 36 18 66h-62q4 -34 5 -81v-43q-139 0 -162 2q-3 1 -13 2q-3 1 -6 1v-46q18 6 68 6h113v-96q-76 0 -100 2q-1 0 -40 3q1 -18 3 -34q3 -24 3 -47l-1 -185q-1 -6 -5 -46q51 4 81 5h67zM156 364v99h236v-99h-236zM392 233h-236v94h236v-94zM625 -84q0 -24 -9 -28
q-15 -9 -46 -9q-15 0 -40 4q9 -21 14 -49q40 1 74 11q45 15 45 72l1 438q0 19 4 47q-66 -4 -82 -5q-76 0 -101 3q-6 1 -13 2v-46q3 0 64 5h89v-191q-57 -57 -110 -104q-33 -28 -57 -45q-18 -12 -40 -23q21 -18 39 -44q34 42 70 73l64 58q15 15 34 29v-198zM711 758
q-28 10 -41 19q-7 -33 -35 -87q-37 -76 -115 -165q-48 -51 -85 -70q30 -24 41 -36q121 120 203 265q42 -61 110 -132l58 -55q33 -30 86 -72q18 18 45 41q-24 9 -44 21q-51 33 -78 56q-93 87 -150 178q6 12 25 29zM576 200q-9 15 -22 32l-35 50q-9 13 -19 27q-18 -13 -35 -24
q12 -12 20 -22q9 -9 22 -30q21 -30 35 -55q9 9 24 17q4 3 10 5zM857 -51q0 -37 -13 -46q-15 -10 -50 -11q-18 1 -35 3q12 -19 22 -47q24 3 40 6q37 9 54 24q21 18 21 56l1 424q0 12 5 47q-33 -1 -66 -5q-87 0 -112 2q-9 3 -19 3v-46q21 3 60 5h92v-161q-42 -45 -76 -77
q-25 -27 -46 -44q-30 -25 -55 -38q21 -21 38 -42q15 25 27 37l50 51l62 61v-202zM734 243q15 -21 22 -33q3 -3 12 -22q15 15 32 23q-9 13 -18 27l-55 78q-13 -13 -30 -23q9 -10 20 -25q7 -12 17 -25v0z" />
  </g>

</svg>
