<?xml version="1.0" standalone="no"?>
<!DOCTYPE svg PUBLIC "-//W3C//DTD SVG 1.1//EN" "http://www.w3.org/Graphics/SVG/1.1/DTD/svg11.dtd" >
<svg xmlns="http://www.w3.org/2000/svg" xmlns:xlink="http://www.w3.org/1999/xlink" version="1.1" viewBox="-10 0 1010 1000">
   <path fill="currentColor"
d="M444 24q52 61 54 76q-1 1 -10 1q-64 -4 -147 18v157h44q85 0 109 -8v70q-48 -8 -101 -8h-52v160h74q45 0 81 -7q-4 36 -4 77v188q0 100 8 133h-79q6 -20 8 -65h-248q0 42 7 75h-79q5 -21 7 -48q0 -13 1 -32v-53v-234q-17 20 -46 42q-13 -36 -43 -60q89 -42 206 -176h-40
q-101 2 -119 8v-70q29 8 117 8h86v-145q-122 26 -175 32q-10 -41 -38 -69q221 -4 379 -70zM937 52q-8 36 -8 115v615q15 83 -143 95q4 -45 -26 -93q113 27 105 -47v-215q-13 15 -57 59l-50 50l-36 -77q49 -19 143 -97v-336h-36q-57 0 -97 8v-77q21 5 39 7q15 1 56 1
q83 0 110 -8zM429 131q38 14 71 34q-34 29 -73 91q-18 -12 -52 -23q42 -61 54 -102zM196 161q14 18 34 77l-63 20q-16 -54 -34 -75zM800 209q26 111 31 198l-67 14q-5 -118 -26 -200zM585 227q20 98 26 194l-61 6q-2 -93 -26 -194zM278 336q-42 75 -121 154h121v-154z
M409 358q70 30 149 83l-44 49q-69 -59 -147 -83zM341 538v89h88v-89h-88zM181 538v89h97v-89h-97zM429 675h-88v93h88v-93zM278 675h-97v93h97v-93zM645 496v-371h-28q-59 0 -101 8v-79q37 9 99 8q55 0 101 -8q-8 29 -8 115v595q2 59 -21 73q-17 17 -118 34q0 -50 -27 -89
q117 18 103 -30v-188q-64 49 -109 103l-40 -77q66 -30 149 -94z" />
</svg>
