<?xml version="1.0" standalone="no"?>
<!DOCTYPE svg PUBLIC "-//W3C//DTD SVG 1.1//EN" "http://www.w3.org/Graphics/SVG/1.1/DTD/svg11.dtd" >
<svg xmlns="http://www.w3.org/2000/svg" xmlns:xlink="http://www.w3.org/1999/xlink" version="1.1" viewBox="-10 0 1034 1024">
  <g transform="matrix(1 0 0 -1 0 820)">
   <path fill="currentColor"
d="M379 -32q0 -54 27 -74q25 -16 91 -20l216 -1q54 3 84 10q33 9 54 31q19 22 37 79q4 21 10 33q-31 15 -51 34q0 -10 -4 -43q-6 -69 -44 -90q-31 -16 -153 -17l-128 2q-55 3 -77 13q-21 9 -22 52v83q78 18 159 43q79 25 149 53l77 30q18 6 29 6q10 0 21 -2q-24 27 -45 52
q-13 -10 -58 -32q-46 -21 -122 -49q-67 -24 -120 -40q-49 -15 -90 -22v70q63 55 106 97q42 40 97 102h269q24 0 52 -3q1 0 14 -2v46q-39 -4 -66 -5h-244q39 46 65 82q27 36 68 101q36 54 48 65q12 13 31 18l-62 29q-21 -40 -77 -128q-60 -90 -122 -167h-110v163l181 -1
l31 -4v46q-30 -4 -66 -5h-146q0 124 3 127q3 13 11 26h-59q0 -3 1 -8q3 -75 4 -116v-29l-221 1q-6 1 -7 1q-12 1 -26 3v-46q60 4 66 5h188v-163h-299q-42 0 -58 4q-4 1 -7 1v-46q45 4 65 5h418q-57 -72 -148 -147v5q0 12 9 33h-54q4 -18 5 -58v-12q-36 -33 -140 -97
q-111 -63 -176 -78q30 -22 46 -41q81 43 142 80q57 36 128 85v-170z" />
  </g>

</svg>
