<?xml version="1.0" standalone="no"?>
<!DOCTYPE svg PUBLIC "-//W3C//DTD SVG 1.1//EN" "http://www.w3.org/Graphics/SVG/1.1/DTD/svg11.dtd" >
<svg xmlns="http://www.w3.org/2000/svg" xmlns:xlink="http://www.w3.org/1999/xlink" version="1.1" viewBox="-10 0 1010 1000">
   <path fill="currentColor"
d="M401 -6q13 2 38 4q67 6 65 12q1 4 -4 14q-9 16 -10 28q-2 23 -2 63h40q78 -1 133 -5v77q-63 -3 -133 -4h-40v105h70q4 -3 10 -9q113 -86 198 -239q90 60 87 70q-1 4 -14 13q-23 15 -37 30q-11 10 -31 30q-72 68 -106 103h115q113 -3 170 -10v86q-80 -6 -166 -8h-193
q-76 66 -115 93h250q102 -2 145 -6v81q-113 -8 -147 -8h-159q-10 18 -41 69q-12 19 -18 30h163q79 -2 139 -9q5 1 4 6q-1 7 -4 20q-40 198 -76 226q-48 42 -198 47q-10 -60 -58 -103q129 16 177 -2q47 -25 57 -127q-246 6 -283 22l-34 -80q31 -5 45 -23q22 -22 42 -76h-85
q-182 131 -280 183q-16 -41 -65 -72q192 -71 421 -255q14 -12 17 -14h-240q-111 0 -175 7v-83q107 7 175 8h163v-103h-72q-93 2 -152 8v-83q69 5 148 7h76q-1 -88 -10 -123z" />
</svg>
