<?xml version="1.0" standalone="no"?>
<!DOCTYPE svg PUBLIC "-//W3C//DTD SVG 1.1//EN" "http://www.w3.org/Graphics/SVG/1.1/DTD/svg11.dtd" >
<svg xmlns="http://www.w3.org/2000/svg" xmlns:xlink="http://www.w3.org/1999/xlink" version="1.1" viewBox="-10 0 1034 1024">
  <g transform="matrix(1 0 0 -1 0 820)">
   <path fill="currentColor"
d="M505 258l-29 -107q-1 -1 -23 -61q49 4 72 5h243q-16 -102 -38 -146q-16 -34 -51 -46q-43 -13 -99 -14q-31 0 -77 10q1 -3 3 -6q3 -6 5 -13q7 -24 11 -36q21 0 47 3q78 3 116 12q45 12 68 47q22 36 43 121q18 90 23 98q1 6 5 11q-54 -6 -67 -6h-247l37 128h279q27 0 52 -3
l13 -2v46q-33 -1 -65 -5h-349l24 22q12 15 36 35q30 34 56 60l332 -1q9 0 50 -5v47q-6 -1 -63 -6h-289q15 16 41 51q79 108 98 135q3 9 23 31q10 12 33 24q-30 16 -54 31q-13 -27 -28 -49q-15 -27 -44 -67q-30 -45 -60 -83q-27 -36 -63 -73h-100v150h109q24 0 51 -3
q1 0 14 -2v47q-36 -6 -65 -6h-109q0 102 3 112q1 12 10 23h-57q1 -19 5 -40q-1 -10 1 -25v-70h-148q-36 0 -58 4q-3 0 -7 2v-47q66 6 85 5h128v-150l-321 1q-6 1 -7 1l-26 4v-47l66 6h396l-76 -78q-24 -25 -53 -50q-126 -106 -239 -178q-46 -28 -73 -41q-25 -12 -61 -22
q33 -10 60 -31q136 79 343 247h65z" />
  </g>

</svg>
