<?xml version="1.0" standalone="no"?>
<!DOCTYPE svg PUBLIC "-//W3C//DTD SVG 1.1//EN" "http://www.w3.org/Graphics/SVG/1.1/DTD/svg11.dtd" >
<svg xmlns="http://www.w3.org/2000/svg" xmlns:xlink="http://www.w3.org/1999/xlink" version="1.1" viewBox="-10 0 1010 1000">
   <path fill="currentColor"
d="M409 -12h14q91 1 85 10q2 2 -4 13q-12 20 -12 35v28q132 0 175 -10v71q-36 -6 -177 -6v64h91q146 -78 244 -175q6 5 17 14q60 49 55 52q-1 2 -8 3q-22 3 -44 15q-38 21 -87 51q-45 28 -70 40h96q116 0 166 -8v77q-31 -10 -168 -10h-185q-115 50 -210 80q213 -19 381 -64
q3 4 11 13q51 57 44 63l-470 39q-7 31 74 28h254q72 1 90 -10q23 -10 25 -45q15 22 55 25q11 1 16 2q-20 60 -47 68q-23 13 -139 12h-328q-50 1 -64 -18q-16 -16 -15 -76q-127 34 -183 44q-5 -34 -45 -75q190 -6 402 -86h-226q-107 -1 -160 8v-73q35 6 160 6h193v-62h-80
q-124 -1 -168 8v-77q44 9 168 10h80v-13q1 -58 -6 -71zM812 481q66 66 63 73q-1 1 -10 0q-35 -5 -81 -4q-57 1 -154 2q-112 1 -154 2v50l218 -12q126 -10 161 -16l2 71q-30 -9 -159 0l-222 12v50l286 -18q140 -10 173 -16l3 71q-101 -5 -174 0l-288 16v26q-1 21 17 26
q17 6 76 6h163q74 1 89 -9q21 -10 18 -45q57 39 84 42q-27 81 -121 77h-310q-53 0 -68 -12q-16 -11 -15 -51v-56l-201 12q-128 6 -174 18l-4 -69q17 5 174 -2l205 -12v-50l-141 8q-123 6 -153 18l-4 -72q36 3 151 -2l147 -7v-54q-160 6 -242 6q-7 -37 -34 -70q84 16 326 14
q238 -4 353 -23z" />
</svg>
