<?xml version="1.0" standalone="no"?>
<!DOCTYPE svg PUBLIC "-//W3C//DTD SVG 1.1//EN" "http://www.w3.org/Graphics/SVG/1.1/DTD/svg11.dtd" >
<svg xmlns="http://www.w3.org/2000/svg" xmlns:xlink="http://www.w3.org/1999/xlink" version="1.1" viewBox="-10 0 1034 1024">
  <g transform="matrix(1 0 0 -1 0 820)">
   <path fill="currentColor"
d="M354 650l196 -1q24 0 34 -4q3 0 5 -1v47q-7 -1 -11 -2q-57 -3 -110 -3q-378 0 -398 3q-3 0 -9 2v-47q15 4 41 5l208 1l-54 -178l-112 1q-19 3 -45 4q1 -31 5 -64l-3 -494q-1 -3 -2 -16h48q-1 4 -1 8q-3 7 -4 128v397h102v-330q0 -28 -3 -58q0 -3 -2 -17h51q-1 6 -2 16
l-4 38v351h90v-326q0 -28 -3 -58l-2 -17h50q-1 4 -1 9q-3 6 -3 30l-1 362h99v-439q0 -45 -44 -45q-43 0 -82 8q18 -36 23 -57q40 1 74 7q39 7 54 24q12 15 13 59l1 437q0 22 4 47q-33 -1 -67 -5h-189zM603 349q-12 -6 -24 -15q36 -46 69 -111l26 -53q3 -6 6 -13q10 9 18 14
q10 7 23 15l-57 100l-48 73q-7 -4 -13 -10zM786 521l-202 5q-1 1 -3 1v-47q51 4 83 5h122v-538q0 -28 -15 -40q-15 -9 -47 -10q-30 0 -73 9q3 -6 16 -34q0 -4 5 -21q54 3 87 7q25 7 43 20q22 18 23 63v544q63 0 128 -3l2 -1q3 0 7 -1v47q-6 -3 -11 -3q-27 -1 -57 -3h-69v179
q0 39 13 65h-57q4 -64 5 -77v-167z" />
  </g>

</svg>
