<?xml version="1.0" standalone="no"?>
<!DOCTYPE svg PUBLIC "-//W3C//DTD SVG 1.1//EN" "http://www.w3.org/Graphics/SVG/1.1/DTD/svg11.dtd" >
<svg xmlns="http://www.w3.org/2000/svg" xmlns:xlink="http://www.w3.org/1999/xlink" version="1.1" viewBox="-10 0 1010 1000">
   <path fill="currentColor"
d="M65 12q24 6 66 8q40 2 133 2h512q137 -3 168 -8v90q-35 -7 -172 -10h-234l-22 97h212q71 0 127 -4q-6 44 -6 81v94q2 69 -26 85q-26 20 -131 24q-2 -52 -17 -88q59 9 77 2q19 -6 18 -37v-94h-149v74q0 64 4 99h-83q8 -21 8 -97v-76h-129v72q0 59 4 97h-82q3 -17 5 -68
q1 -20 1 -31v-70h-121v90q0 9 -1 35q-2 69 1 90h-87q7 -35 8 -137v-56q0 -66 -4 -93q8 1 52 5q23 2 37 3h208l14 -97h-200q-140 3 -191 8v-90zM415 441q26 8 65 19q37 9 34 11q0 4 -9 11q-24 19 -45 50h338q92 0 120 -1q36 -1 48 -3v87q-40 -8 -158 -11h-88l-3 6
q-44 90 -94 132q25 8 100 29q124 36 180 55q-30 37 -54 91q-151 -77 -293 -121q-156 101 -463 119q-16 -51 -43 -97q45 9 101 10q56 0 116 -7q134 -18 195 -55q-118 -36 -220 -53q37 -31 95 -109h-152q-110 3 -153 9v-89q36 8 156 8h191q36 -73 36 -91zM635 604h-212l-56 73
l171 42q56 -46 97 -115z" />
</svg>
