<?xml version="1.0" standalone="no"?>
<!DOCTYPE svg PUBLIC "-//W3C//DTD SVG 1.1//EN" "http://www.w3.org/Graphics/SVG/1.1/DTD/svg11.dtd" >
<svg xmlns="http://www.w3.org/2000/svg" xmlns:xlink="http://www.w3.org/1999/xlink" version="1.1" viewBox="-10 0 1010 1000">
   <path fill="currentColor"
d="M772 6q96 4 103 16q1 4 -5 13q-6 10 -7 17q-2 72 -2 169q37 0 91 -4v81q-47 -4 -91 -4v492q12 97 -159 102q-9 1 -14 1q-2 -55 -41 -109q110 17 127 -10q3 -19 3 -130q1 -106 -1 -348h-52q-66 1 -135 4v-79q42 4 133 4h54q0 -128 -1 -161q0 -46 -3 -54zM597 62v85
q-44 -5 -151 -6h-49q-2 5 -8 19q-36 88 -46 108h78q97 -1 146 -8q-6 92 -5 321v187q-1 93 -151 92q1 -54 -32 -96q37 10 71 7q29 -3 30 -17q8 -135 10 -422h-73v281q1 22 2 58q2 53 2 64h-70q1 -10 2 -34q4 -73 4 -89v-280h-61v285q0 89 4 125h-68q4 -66 4 -129v-281h-69
v339q0 125 4 175h-84q6 -64 8 -173v-284q-1 -87 -6 -125v-3q-1 -1 2 -1q48 6 125 8h56q36 -95 41 -127h-99q-42 0 -131 5q-11 1 -16 1v-83q62 5 153 6h226q37 0 151 -8zM675 360q14 29 61 214l-81 22q-13 -116 -56 -213z" />
</svg>
