<?xml version="1.0" standalone="no"?>
<!DOCTYPE svg PUBLIC "-//W3C//DTD SVG 1.1//EN" "http://www.w3.org/Graphics/SVG/1.1/DTD/svg11.dtd" >
<svg xmlns="http://www.w3.org/2000/svg" xmlns:xlink="http://www.w3.org/1999/xlink" version="1.1" viewBox="-10 0 1034 1024">
  <g transform="matrix(1 0 0 -1 0 820)">
   <path fill="currentColor"
d="M271 -76q0 -36 -5 -67h48v3q-3 6 -4 33l-1 327q75 -48 100 -70q28 -22 57 -55q15 24 31 45q-46 34 -99 70l-64 42l-25 16v33h113q30 0 51 -3q1 0 14 -2v46q-43 -4 -80 -5h-98v127h70q28 0 53 -3l13 -2v46q-43 -4 -80 -5h-56v114h89q25 0 53 -3l13 -2v46q-33 -1 -66 -5
h-89v71q0 16 2 34q0 12 11 32h-56q1 -33 5 -66v-71l-163 3q-3 1 -11 2v-46q49 6 108 5h66v-114l-140 3q-3 1 -14 2v-46q-3 0 9 1q72 3 109 4h36v-127l-166 1q-9 1 -26 2q-3 1 -13 2v-46q54 4 75 5h119q-42 -87 -84 -146q-70 -94 -135 -135q39 -12 60 -25q102 114 170 237
v-308zM900 350q24 0 66 -5v46q-39 -4 -66 -5l-363 1q-6 1 -7 1q-12 1 -25 3v-46q66 6 80 5h100q-19 -75 -39 -129q-18 -51 -46 -116l-37 -84l-26 -50q-18 -30 -41 -44q10 -18 20 -41q39 12 120 23q201 30 256 37q12 -19 26 -51l13 -28q18 16 40 32q-18 34 -40 72
q-94 159 -99 164q0 1 -13 20q-3 3 -7 10q-18 -13 -41 -27q18 -18 39 -50q27 -42 66 -110l-315 -38q61 114 101 208q37 93 68 202h170zM540 645q49 6 82 5l275 -1q7 0 17 -2l13 -2v46q-39 -4 -65 -5l-290 1q-6 1 -7 1q-12 1 -25 3v-46z" />
  </g>

</svg>
