<?xml version="1.0" standalone="no"?>
<!DOCTYPE svg PUBLIC "-//W3C//DTD SVG 1.1//EN" "http://www.w3.org/Graphics/SVG/1.1/DTD/svg11.dtd" >
<svg xmlns="http://www.w3.org/2000/svg" xmlns:xlink="http://www.w3.org/1999/xlink" version="1.1" viewBox="-10 0 1010 1000">
   <path fill="currentColor"
d="M520 82q36 6 93 6h169q59 0 111 -4v79q-33 -4 -101 -4h-179q-67 -1 -93 4v-81zM468 332q42 6 119 6h256q67 0 105 -6v85q-13 -2 -33 -3q-16 -1 -58 -1h-230q96 28 105 42q0 4 -12 13q-20 16 -26 28q-77 188 -132 274l240 -18q-6 -13 -16 -37q-32 -75 -46 -102l81 -23
q69 134 117 270l-93 33q-2 -21 -22 -79q-304 28 -339 48l-32 -86q54 -24 86 -97q78 -187 81 -266h-63q-41 0 -88 4v-85zM218 8q112 -1 109 10q0 3 -5 10q-18 25 -18 64v41h63q45 1 89 -6v74q-32 -5 -91 -4h-12h-49v85h35q60 0 92 -6v76q-35 -6 -86 -6h-41v89h45q41 0 81 -3
q4 -1 7 -1v71q-20 -3 -34 -3q-10 -1 -58 -1h-41v94l59 -42q46 37 99 101l-67 50q-46 -67 -91 -99v138q0 86 6 144q2 14 2 19h-94q0 -5 2 -21q8 -62 8 -142v-166q-34 102 -125 224q-11 -30 -57 -61q101 -110 146 -239h-45q-48 0 -85 6v-77q45 8 95 8h71v-89h-45q-25 0 -38 1
q-14 1 -52 5v-76q37 6 64 6h22h49v-85h-59q-43 0 -59 1q-20 1 -35 5v-76q47 6 94 6h59v-39q0 -37 -8 -75q-2 -9 -2 -11z" />
</svg>
