<?xml version="1.0" standalone="no"?>
<!DOCTYPE svg PUBLIC "-//W3C//DTD SVG 1.1//EN" "http://www.w3.org/Graphics/SVG/1.1/DTD/svg11.dtd" >
<svg xmlns="http://www.w3.org/2000/svg" xmlns:xlink="http://www.w3.org/1999/xlink" version="1.1" viewBox="-10 0 1010 1000">
   <path fill="currentColor"
d="M206 -4q83 5 94 12q0 1 -1 3q-15 24 -15 93h31q14 0 57 -3q12 -1 19 -1v77q-24 -4 -60 -7q-12 0 -18 -1h-33v81h26q53 0 71 -4v74q-12 -6 -65 -6h-32v89h32q57 0 81 -6v76q-15 -4 -54 -3q-22 0 -31 -1h-28v71l47 -22q5 8 16 24q41 61 50 85l-62 34q-23 -66 -51 -95v159
q-2 130 4 160h-88q9 -52 14 -164v-155q-54 133 -137 220q-25 -37 -67 -65q119 -92 181 -254h-30q-83 0 -105 6v-80q11 5 83 7q23 1 34 1h41v-87h-35q-10 1 -28 1q-36 1 -54 5v-78q24 5 84 8h33v-79h-37q-75 0 -105 4h-3v-77q24 5 114 8h31v-25q1 -68 -4 -85zM419 30q2 0 5 1
q8 3 139 5h185q132 -3 179 -10v93q-30 -10 -179 -9h-252v176h308q94 0 125 -6v74q-26 -4 -119 -6h-80q2 4 6 13q11 28 32 62q42 -25 79 -63q59 39 58 57q-4 4 -13 7q-33 7 -90 39q65 38 146 47q-22 20 -47 68q-185 -52 -230 -230h-54v142q62 -26 79 -39q5 43 12 71
q-60 16 -150 56q-11 -27 -32 -56q23 -7 27 -36q5 -25 5 -138h-62q0 235 -22 327q-20 103 -89 202q-33 -28 -87 -35q90 -84 109 -209q13 -65 17 -173q4 -98 3 -315q-2 -76 -8 -115zM871 159v74q-30 -9 -117 -6h-115q-82 0 -109 6v-72q24 3 113 6h109q70 0 119 -8zM756 556
q4 0 13 1q74 3 72 9q0 2 -2 6q-5 15 -4 38h30q50 -2 70 -8v75q-35 -7 -70 -8h-32v129q2 67 -22 82q-20 19 -115 25q-2 -49 -37 -93q63 11 82 4q20 -5 19 -36v-111h-109q-118 0 -149 8v-73q33 6 153 6h105q1 -41 -4 -54zM625 697q4 6 11 17q28 46 41 76l-76 26
q-21 -56 -47 -93z" />
</svg>
