<?xml version="1.0" standalone="no"?>
<!DOCTYPE svg PUBLIC "-//W3C//DTD SVG 1.1//EN" "http://www.w3.org/Graphics/SVG/1.1/DTD/svg11.dtd" >
<svg xmlns="http://www.w3.org/2000/svg" xmlns:xlink="http://www.w3.org/1999/xlink" version="1.1" viewBox="-10 0 1010 1000">
   <path fill="currentColor"
d="M331 354h-21v83h37q62 1 101 -6v79q-28 -6 -103 -6h-35v84l63 -36l107 119l-79 50q-38 -75 -91 -121v142q2 133 7 171h-99q11 -66 16 -176v-112q-60 104 -135 203q-28 -38 -69 -66q122 -93 182 -256h-31q-99 3 -119 10v-83q31 5 126 6h46v-83h-36q-86 0 -115 6v-76
q12 4 37 5q12 1 29 1h47h38v-81h-34q-107 0 -137 6v-82q53 8 137 8h36q-2 -111 -12 -143q105 5 111 14q0 1 -2 5q-21 32 -21 124h31q6 -1 28 -2q75 -5 89 -8v84q-34 -6 -111 -6h-39v79h27q59 0 94 -8v78q-33 -6 -100 -6zM512 510q55 6 121 6h101q109 -6 139 -6q-7 36 -8 115
v119q0 100 10 149h-91q3 -23 2 -64v-5h-189q0 54 4 81h-95q10 -59 12 -167v-125q-3 -82 -6 -103zM623 -10q112 15 117 30q-12 11 -16 20q46 202 262 278q-47 40 -71 87l-80 -57v67q-15 -2 -40 -3q-12 -1 -29 -1h-46h-73q-66 0 -107 8v-56q-14 27 -62 78q-24 -31 -83 -56
q154 -92 228 -395zM597 588v168h189v-168h-189zM677 106q-53 151 -115 232q23 5 87 6h67q71 -2 107 -10q-86 -74 -146 -228z" />
</svg>
