<?xml version="1.0" standalone="no"?>
<!DOCTYPE svg PUBLIC "-//W3C//DTD SVG 1.1//EN" "http://www.w3.org/Graphics/SVG/1.1/DTD/svg11.dtd" >
<svg xmlns="http://www.w3.org/2000/svg" xmlns:xlink="http://www.w3.org/1999/xlink" version="1.1" viewBox="-10 0 1010 1000">
   <path fill="currentColor"
d="M714 -12q83 5 90 14q0 3 -6 11q-16 20 -16 47v26h77q15 0 42 -1q21 -1 30 -1v69q-36 -6 -70 -6h-79v62h37q44 0 78 -6v65q-48 -4 -76 -4h-39v64h85q46 0 87 -6v71q-5 0 -14 -1q-36 -3 -85 -3h-170v54h117l79 -2q-4 27 -4 53v189q54 -1 83 -4v69q-32 -6 -83 -6v82
q2 47 -21 61q-21 16 -102 24q-5 -44 -34 -89q85 13 82 -24v-56h-298v70q0 56 4 87h-79q6 -19 6 -85v-72h-48q-14 1 -26 2v-65q18 3 74 4v-173q0 -3 -1 -14q-1 -32 -1 -59l75 6h113v-52h-163q-46 0 -73 4v-73q42 3 83 4h62v-60h-36q-56 -1 -77 4v-65q27 6 73 6h40v-62h-56
q-53 -1 -77 4v-69q31 3 79 4h54v-24q0 -9 -1 -30q-1 -24 -1 -38q81 1 85 12q0 2 -4 8q-16 19 -16 48v24h125v-28q0 -24 -3 -57q-1 -10 -1 -13zM718 147h-125v62h125v-62zM718 264h-125v62h125v-62zM506 500v58h113v-58h-113zM685 502v56h117v-56h-117zM621 617h-115v64h115
v-64zM685 617v64h117v-64h-117zM181 4q87 2 95 10q0 2 -4 9q-16 29 -16 65v39h54q38 1 79 -6v74q-30 -5 -79 -4h-10h-44v85h34q36 0 68 -7q5 -1 7 -1v74q-30 -6 -73 -6h-36v89h38q36 0 70 -3q3 -1 5 -1v71q-16 -3 -27 -3q-9 -1 -50 -1h-36v96l50 -44q60 60 85 99l-58 48
q-42 -67 -77 -95v139q0 83 1 110q1 34 3 50h-79q4 -26 6 -60q1 -31 1 -104v-165q-25 94 -109 220q-11 -31 -49 -59q87 -104 129 -235h-40q-43 0 -75 6v-77q38 8 83 8h61v-89h-39q-21 0 -32 1t-46 5v-74q32 7 39 7q9 1 39 1h39v-85h-51q-38 0 -52 1q-17 1 -29 5v-76
q39 6 81 6h51v-37q0 -49 -6 -80q-1 -5 -1 -6z" />
</svg>
