<?xml version="1.0" standalone="no"?>
<!DOCTYPE svg PUBLIC "-//W3C//DTD SVG 1.1//EN" "http://www.w3.org/Graphics/SVG/1.1/DTD/svg11.dtd" >
<svg xmlns="http://www.w3.org/2000/svg" xmlns:xlink="http://www.w3.org/1999/xlink" version="1.1" viewBox="-10 0 1010 1000">
   <path fill="currentColor"
d="M75 36q10 1 31 2q55 4 104 4h564q91 0 139 -6v81q-16 0 -59 -2q-56 -2 -84 -2h-30v491l105 -4q75 -5 105 -12l2 81h-27q-58 -2 -72 0l-111 8v48q1 55 6 156h-97q8 -65 8 -156v-44l-500 28q-53 3 -109 16l-6 -84q14 -1 56 -2q44 -1 55 -2l85 -4v-520h-28q-59 0 -84 1
q-30 1 -53 3v-81zM323 113v127h334v-127h-334zM323 304v131h334v-131h-334zM657 498h-334v129l334 -15v-114z" />
</svg>
