<?xml version="1.0" standalone="no"?>
<!DOCTYPE svg PUBLIC "-//W3C//DTD SVG 1.1//EN" "http://www.w3.org/Graphics/SVG/1.1/DTD/svg11.dtd" >
<svg xmlns="http://www.w3.org/2000/svg" xmlns:xlink="http://www.w3.org/1999/xlink" version="1.1" viewBox="-10 0 1034 1024">
  <g transform="matrix(1 0 0 -1 0 820)">
   <path fill="currentColor"
d="M246 -96q0 -31 -6 -66h49v3q-1 3 -1 5q-3 7 -4 32l-1 342q39 -27 64 -51q30 -27 70 -68q10 21 28 43q-25 22 -112 90l-50 36v33h73q27 0 52 -3q1 0 14 -2v46q-12 -1 -14 -2l-101 -3h-24v128q79 0 95 -3q1 0 6 -1q1 0 14 -2v46q-43 -4 -79 -5h-36v119l87 -1q3 0 40 -4v46
q-51 -4 -78 -5h-49l1 79q0 24 13 42h-57q0 -9 2 -14l4 -88v-19q-111 0 -123 2q-13 1 -27 3v-46q66 6 82 5h68v-119l-94 1q-24 3 -27 4v-46q49 6 80 5h41v-127q-126 0 -153 2q-15 3 -20 3v-46q49 6 78 5h83q-24 -69 -84 -163q-63 -93 -113 -131q28 -4 54 -25q108 144 155 240
v-320zM470 -119q46 24 90 67q55 63 82 142h224q-1 -37 -4 -51q-6 -46 -14 -77q-10 -36 -39 -50q-24 -10 -54 -11q-18 0 -54 7q21 -28 26 -54q48 4 77 11q25 6 40 15q24 13 38 48q12 36 21 107q4 45 9 96q-33 -1 -66 -5h-196q4 42 11 73q1 15 2 34h251q27 0 51 -3q1 0 14 -2
v46q-39 -4 -65 -5l-451 1q-13 1 -21 3q-4 1 -7 1v-46q49 6 82 5h104q-4 -73 -25 -146q-28 -96 -116 -152q-66 -39 -126 -50q33 -21 47 -42q48 27 69 38zM512 662q-42 0 -59 4q-4 1 -7 1v-46q33 3 66 5l415 -1q7 0 18 -2q1 0 14 -2v46q-43 -4 -78 -5h-162q9 16 27 34
q-4 3 -7 6l-114 88q-15 -18 -32 -36q63 -36 116 -92h-197zM461 336h47q-1 4 -1 8q-3 36 -4 69v24h404q-1 -39 -3 -80q0 -7 -2 -16h49q-3 12 -4 33q-3 46 0 66l4 38q-66 -4 -100 -5h-70q7 10 16 25q33 51 46 63q12 13 35 20q-54 30 -58 34q-1 3 -3 3q-7 -19 -36 -70
q-24 -42 -49 -75h-73l-19 30q-10 15 -22 35l-30 43q-6 10 -14 22q-24 -16 -46 -28q30 -24 78 -102q-78 0 -104 2q-6 3 -41 3q1 -30 5 -60q-1 -36 -3 -72q-1 -1 -1 -4q-1 -3 -1 -6zM751 290q9 9 18 17q-18 24 -27 31l-77 76q-18 -18 -35 -31q57 -40 105 -107q7 7 16 14v0z
" />
  </g>

</svg>
