<?xml version="1.0" standalone="no"?>
<!DOCTYPE svg PUBLIC "-//W3C//DTD SVG 1.1//EN" "http://www.w3.org/Graphics/SVG/1.1/DTD/svg11.dtd" >
<svg xmlns="http://www.w3.org/2000/svg" xmlns:xlink="http://www.w3.org/1999/xlink" version="1.1" viewBox="-10 0 1010 1000">
   <path fill="currentColor"
d="M708 -10q6 24 24 90h85q41 0 121 -10v85q-45 -7 -107 -8h-275q-49 0 -112 8v-83q53 8 104 8h103q-7 -31 -38 -76zM202 -12q22 2 60 4q54 2 48 8q-25 42 -26 125h35q22 0 70 -7l18 -3v82q-45 -9 -90 -8h-33v81h22q25 0 83 -7q4 -1 6 -1v78q-10 -1 -30 -2q-39 -4 -59 -4
h-22v95h26q40 0 97 -8v79q-40 -8 -94 -8h-29v90l45 -30q39 36 108 107l-60 54q-61 -90 -93 -113v188q0 66 8 119h-88q7 -34 8 -121v-204q-49 118 -131 212q-23 -42 -59 -63q100 -83 163 -239h-20q-68 0 -111 10v-81q39 9 117 8h41v-95h-31q-69 0 -106 8v-82q45 10 106 10h31
v-81h-47q-67 0 -102 8v-80q45 8 102 8h45q0 -94 -8 -137zM760 163q87 28 87 36l-2 1q-41 25 -73 82h113q41 0 69 -4q-7 18 -6 58v14q0 27 9 64q1 2 1 3h-91q6 -30 6 -75h-373q0 32 8 67h-87q7 -19 8 -67q1 -34 -4 -66q23 7 73 6h75q-7 -36 -49 -87l67 -30q18 26 44 71
q8 14 12 20l-62 26h115q41 -57 60 -119zM700 377q20 34 34 92h107q59 -1 101 -12v83q-7 -1 -20 -2q-50 -6 -77 -6h-216q0 44 -4 76h179q34 -1 83 -10q-5 27 -12 94q-11 97 -20 130q-11 57 -163 67q-4 -47 -35 -101q90 21 115 -2q19 -27 30 -119h-185q-50 161 -192 226
q-30 -40 -78 -59q214 -59 209 -304h-26q-43 0 -109 8v-79q30 9 103 8h129q-13 -44 -36 -74z" />
</svg>
