<?xml version="1.0" standalone="no"?>
<!DOCTYPE svg PUBLIC "-//W3C//DTD SVG 1.1//EN" "http://www.w3.org/Graphics/SVG/1.1/DTD/svg11.dtd" >
<svg xmlns="http://www.w3.org/2000/svg" xmlns:xlink="http://www.w3.org/1999/xlink" version="1.1" viewBox="-10 0 1034 1024">
  <g transform="matrix(1 0 0 -1 0 820)">
   <path fill="currentColor"
d="M373 -100q-1 -24 -2 -49q0 -6 -4 -18h49v4q-1 3 -1 5q-1 3 -4 58v195q4 0 8 2q40 10 83 21l6 53q-34 -19 -97 -38v519q51 0 84 -3q3 0 10 -3v47q-39 -4 -66 -5l-349 1l-25 3q-4 1 -7 1v-47q21 6 66 6h26v-583q-42 -9 -70 -14q-21 -3 -43 -4q12 -25 24 -53q21 9 47 16
q258 69 265 70v-184zM188 301v161h185v-161h-185zM188 497v155h185v-155h-185zM188 265h185v-144l-185 -45v189zM885 527v-64q0 -36 -5 -67h48q0 4 -1 8q0 3 -4 62l4 82q0 9 1 20q-36 -1 -71 -5h-140q3 162 6 169q1 15 10 27q-28 0 -60 2q3 -27 4 -62l2 -136h-138
q-9 0 -34 3q-15 0 -33 2q1 -33 5 -67q0 -75 -3 -100q-1 -4 -2 -10h47q0 4 -1 8q-1 3 -4 59v69h161q0 -48 -7 -111q-6 -61 -14 -108q-37 -187 -129 -327q-54 -78 -109 -117q21 -6 54 -23q66 78 107 146q40 72 73 159q52 141 65 381h168zM753 275q0 16 2 34q0 12 11 32h-56
l4 -36q0 -378 3 -391q3 -16 11 -29q7 -12 26 -19q27 -9 80 -9q61 0 91 11q28 13 44 56q7 21 17 67q-30 12 -49 31q-1 -66 -8 -89q-12 -36 -84 -36q-66 0 -79 9q-12 12 -13 50v319z" />
  </g>

</svg>
