<?xml version="1.0" standalone="no"?>
<!DOCTYPE svg PUBLIC "-//W3C//DTD SVG 1.1//EN" "http://www.w3.org/Graphics/SVG/1.1/DTD/svg11.dtd" >
<svg xmlns="http://www.w3.org/2000/svg" xmlns:xlink="http://www.w3.org/1999/xlink" version="1.1" viewBox="-10 0 1010 1000">
   <path fill="currentColor"
d="M694 -6h9q92 4 89 12q0 2 -3 8q-13 24 -13 48v198q88 0 110 -1q30 -2 41 -7v88q-22 -8 -151 -8v420q86 0 120 -2q41 -1 58 -6v84q-28 -8 -164 -8h-185q-113 0 -153 10v-88q24 8 74 8v-460q1 -70 -6 -81q89 4 93 16q0 3 -4 9q-12 20 -12 44v474h103v-660q0 -79 -6 -98z
M42 44q28 8 164 8h137q131 0 159 -8v87q-18 -8 -89 -8v496l75 -23v77l-75 20q0 148 8 210h-92q13 -22 12 -196q-206 49 -283 79l-34 -89q2 -2 12 -3q37 -3 95 -15v-556q-71 -1 -89 6v-85zM341 123h-139v135h139v-135zM202 324v139h139v-139h-139zM202 528v135l139 -28v-107
h-139z" />
</svg>
