<?xml version="1.0" standalone="no"?>
<!DOCTYPE svg PUBLIC "-//W3C//DTD SVG 1.1//EN" "http://www.w3.org/Graphics/SVG/1.1/DTD/svg11.dtd" >
<svg xmlns="http://www.w3.org/2000/svg" xmlns:xlink="http://www.w3.org/1999/xlink" version="1.1" viewBox="-10 0 1034 1024">
  <g transform="matrix(1 0 0 -1 0 820)">
   <path fill="currentColor"
d="M383 -97q0 -36 -5 -66h49q0 3 -2 8q-1 3 -4 58v171l48 14q27 6 50 13l3 53q-18 -7 -96 -37q-3 0 -5 -1v524q42 0 86 -3q3 0 10 -3v46q-39 -4 -66 -5l-351 1q-6 1 -7 1q-12 1 -26 3v-46q19 4 36 5l51 1v-590l-26 -7q-60 -7 -70 -12q9 -18 12 -30q3 -9 5 -22q42 15 105 33
l203 55v-164zM192 478v162h191v-162h-191zM192 253h191v-146l-98 -24l-93 -25v195zM192 289v155h191v-155h-191zM731 200l24 -65l23 -52q21 -45 58 -99q28 -42 50 -66q25 -30 70 -70q22 19 51 35q-39 18 -71 49q-51 54 -87 108q-76 126 -122 305l1 320q0 30 4 51q3 15 17 37
q-33 1 -67 3q3 -25 3 -41l2 -171l-3 -202q-7 -117 -62 -245q-49 -112 -123 -187q-27 -24 -66 -48q36 -9 55 -23q42 40 70 75q24 30 52 75q72 121 102 264zM477 281q21 -6 41 -17q24 55 47 161q7 36 17 73q3 16 23 31q-39 6 -63 13q-1 -112 -65 -261zM880 411l36 62
q24 42 54 58q-21 12 -57 31q-12 -27 -58 -113l-47 -78l-26 -37q18 -9 36 -24l20 32z" />
  </g>

</svg>
