<?xml version="1.0" standalone="no"?>
<!DOCTYPE svg PUBLIC "-//W3C//DTD SVG 1.1//EN" "http://www.w3.org/Graphics/SVG/1.1/DTD/svg11.dtd" >
<svg xmlns="http://www.w3.org/2000/svg" xmlns:xlink="http://www.w3.org/1999/xlink" version="1.1" viewBox="-10 0 1034 1024">
  <g transform="matrix(1 0 0 -1 0 820)">
   <path fill="currentColor"
d="M342 -81q-1 -19 -2 -53q-3 -6 -3 -12h49q-3 6 -4 27q0 18 -2 38v149q15 1 23 4q16 4 34 7q12 0 25 4q0 1 7 44q-63 -15 -68 -16q-10 -1 -21 -4v551q79 -3 88 -6l2 -1v48q-9 -3 -23 -4q-21 0 -40 -2h-282q-30 0 -54 3q4 0 -10 3h-2v-48q13 6 62 7h25v-590
q-66 -10 -108 -11q12 -24 21 -51q30 10 71 18q208 36 212 37v-142zM183 484v174h158v-174h-158zM183 295v153h158v-153h-158zM341 98l-158 -25v186h158v-161zM506 200l-79 4l-6 2v-47q3 3 56 6h29v-244q0 -45 -5 -65h49q-3 6 -4 27q0 18 -2 38v244h301v-212q0 -21 -8 -31
q-10 -12 -45 -12q-21 0 -59 4q12 -24 19 -49q52 3 79 10q33 9 46 31q6 15 6 48v211q43 0 71 -3q3 0 20 -3v47q-9 -3 -22 -4q-25 -1 -69 -2l1 381l4 47q-15 -1 -29 -3q-24 -3 -31 -3h-115q0 111 2 120q0 9 12 40h-57q3 -24 4 -27l1 -133l-127 1q-19 4 -47 5q1 -31 5 -64v-364
zM675 586v-165h-131v165h131zM544 200v185h131v-185h-131zM713 586h132v-165h-132v165zM713 200v185h132v-185h-132z" />
  </g>

</svg>
