<?xml version="1.0" standalone="no"?>
<!DOCTYPE svg PUBLIC "-//W3C//DTD SVG 1.1//EN" "http://www.w3.org/Graphics/SVG/1.1/DTD/svg11.dtd" >
<svg xmlns="http://www.w3.org/2000/svg" xmlns:xlink="http://www.w3.org/1999/xlink" version="1.1" viewBox="-10 0 1010 1000">
   <path fill="currentColor"
d="M635 -10q111 4 105 10q-17 17 -22 46q-6 32 -6 103h107q19 0 72 -6q9 -1 14 -2q-8 37 -8 76v341q30 0 69 -8v79q-35 -8 -67 -8v189q2 52 -27 68q-26 19 -120 27q0 -47 -36 -99q42 8 55 9q18 2 29 -1q21 -4 21 -30v-165h-273v161q0 79 6 113h-94q8 -34 10 -113v-155
l-41 10l9 50q-41 8 -71 16v97q0 72 10 107h-93q11 -34 12 -109v-79q-16 4 -55 14q-114 28 -174 51l-29 -81l65 -12v-550q-32 0 -63 8v-89q41 10 97 10h196q48 0 107 -8v79q-5 0 -14 -1q-37 -3 -59 -3v490q15 -6 56 -17v-54l47 6v-341q0 -34 -6 -76q36 7 80 8h99
q1 -111 -8 -161zM296 135h-121v127h121v-127zM714 211v143h107v-143h-107zM546 211v143h97v-143h-97zM175 326v137h121v-137h-121zM643 413h-97v147h97v-147zM714 413v147h107v-147h-107zM296 526h-121v147q25 -3 121 -24v-123z" />
</svg>
