<?xml version="1.0" standalone="no"?>
<!DOCTYPE svg PUBLIC "-//W3C//DTD SVG 1.1//EN" "http://www.w3.org/Graphics/SVG/1.1/DTD/svg11.dtd" >
<svg xmlns="http://www.w3.org/2000/svg" xmlns:xlink="http://www.w3.org/1999/xlink" version="1.1" viewBox="-10 0 1034 1024">
  <g transform="matrix(1 0 0 -1 0 820)">
   <path fill="currentColor"
d="M54 -79l45 6q10 0 21 2l589 24v-52q0 -34 -5 -67h48v4q-1 3 -1 5q-1 3 -4 58v53q153 9 201 9q7 0 19 -1l-3 49q-37 -7 -67 -12l-150 -8v278h118q27 0 51 -3q1 0 14 -2v46q-33 -1 -65 -5l-757 1l-25 3q-3 0 -7 1v-46q54 4 82 5h104v-299q-165 -3 -185 -5q-7 0 -25 2
q0 -22 2 -46zM709 269v-76h-409v76h409zM300 -26v78h409v-63zM300 88v69h409v-69h-409zM432 757q0 -33 -5 -81q-1 -21 -7 -42h-291q-37 0 -66 5v-46q45 4 66 5h282q-33 -96 -119 -154q-55 -34 -89 -48q-33 -12 -95 -26q19 -12 44 -39q120 46 185 99q81 69 116 168h94v-123
q-39 -12 -85 -25q-27 -6 -48 -9q-18 -3 -42 -3q6 -6 16 -13q15 -12 28 -31q48 12 123 37q4 1 8 3v-3q0 -45 62 -57q33 -6 92 -6q72 0 109 8q36 7 63 43q13 22 27 68q-45 24 -46 28q0 -24 -4 -48q-7 -39 -48 -54q-22 -9 -97 -9q-69 0 -97 9q-22 7 -23 29v4q76 33 144 70
q27 15 56 15q-19 24 -37 50q-13 -13 -25 -21q-36 -24 -68 -42l-48 -19q-10 -6 -22 -11v110l349 -3q3 0 11 -2v46q-30 -4 -66 -5h-418q3 25 5 45q3 69 32 93q-45 0 -66 4v-19zM697 759q-9 6 -24 19q-15 -15 -34 -31q67 -45 114 -98q13 19 31 31q-12 12 -87 79v0z" />
  </g>

</svg>
