<?xml version="1.0" standalone="no"?>
<!DOCTYPE svg PUBLIC "-//W3C//DTD SVG 1.1//EN" "http://www.w3.org/Graphics/SVG/1.1/DTD/svg11.dtd" >
<svg xmlns="http://www.w3.org/2000/svg" xmlns:xlink="http://www.w3.org/1999/xlink" version="1.1" viewBox="-10 0 1034 1024">
  <g transform="matrix(1 0 0 -1 0 820)">
   <path fill="currentColor"
d="M369 -64q0 -34 -6 -65h47q-1 4 -2 9q-3 7 -4 33v204q4 1 11 3l49 18q10 6 28 9q0 25 2 50q-13 -9 -26 -15q-12 -6 -35 -14q-15 -6 -29 -13v531q22 0 69 -5v44q-6 -1 -13 -2q-33 0 -68 -3l-305 3q-4 1 -8 1q-3 1 -6 1v-44q49 4 77 5h14v-601q-48 -15 -98 -24
q22 -42 23 -50q36 18 116 44q120 39 164 50v-169zM369 512h-169v174h169v-174zM200 323v155h169v-155h-169zM369 290v-146l-169 -50v196h169zM436 -83q19 -9 41 -24q45 60 60 81q13 19 31 53q24 43 28 56q21 51 26 57q3 6 7 16q9 21 35 32q-16 4 -20 7q-4 1 -20 11
q-3 3 -18 10q-16 -67 -68 -166q-42 -73 -102 -133zM522 296q33 3 67 5l248 -1q18 0 47 -4q-3 33 -5 66l1 316q0 18 4 46q-33 -1 -68 -5l-253 1q-3 0 -41 4q1 -31 5 -64l-1 -316q-3 -12 -4 -48zM562 335v350h281v-350h-281zM893 -40q15 -27 29 -58q18 16 38 29q-7 12 -17 25
l-154 247q-4 7 -9 13l-35 -23q15 -16 44 -58z" />
  </g>

</svg>
