<?xml version="1.0" standalone="no"?>
<!DOCTYPE svg PUBLIC "-//W3C//DTD SVG 1.1//EN" "http://www.w3.org/Graphics/SVG/1.1/DTD/svg11.dtd" >
<svg xmlns="http://www.w3.org/2000/svg" xmlns:xlink="http://www.w3.org/1999/xlink" version="1.1" viewBox="-10 0 1034 1024">
  <g transform="matrix(1 0 0 -1 0 820)">
   <path fill="currentColor"
d="M94 684q4 1 9 1q3 3 30 3q3 0 16 1v-573q-33 -12 -73 -20q12 -21 23 -50l91 42l127 50v-196q0 -40 -5 -66h47q-1 4 -1 9q-3 7 -4 33v234l44 18q1 27 4 53q-19 -13 -48 -28v494h15q27 0 53 -5v45q-27 -1 -53 -5l-262 3q-6 1 -13 2v-45zM186 129v182h131v-130
q-27 -12 -50 -21zM186 346v149h131v-149h-131zM186 529v160h131v-160h-131zM623 466q1 30 2 75q1 37 16 62q-33 0 -59 4q3 -42 4 -77q-3 -75 -3 -180q0 -49 -4 -83l-77 -28q-10 -4 -22 -8v438q28 6 62 18q1 0 8 2q72 25 82 27q6 1 26 2q-21 18 -40 46q-28 -21 -83 -42
q-55 -19 -96 -26q1 -30 5 -63l-1 -390q-4 -21 -21 -42q15 -16 29 -34q18 13 44 26l81 34q-21 -105 -62 -178q-51 -85 -128 -126q27 -9 49 -27q75 69 114 138q37 69 58 172q6 30 11 70q3 46 4 119q0 36 1 71zM699 703q1 -33 5 -68l-1 -723l-4 -33h46q-1 4 -1 8q-1 3 -4 57
v719h128v-506q0 -7 -2 -26q-3 -15 -16 -21q-16 -4 -34 -5q-15 0 -41 8q12 -24 19 -52l34 1q36 3 55 17q21 18 22 62l1 514l4 48q-28 -1 -58 -5l-110 1q-19 3 -43 4v0z" />
  </g>

</svg>
