<?xml version="1.0" standalone="no"?>
<!DOCTYPE svg PUBLIC "-//W3C//DTD SVG 1.1//EN" "http://www.w3.org/Graphics/SVG/1.1/DTD/svg11.dtd" >
<svg xmlns="http://www.w3.org/2000/svg" xmlns:xlink="http://www.w3.org/1999/xlink" version="1.1" viewBox="-10 0 1010 1000">
   <path fill="currentColor"
d="M389 -13q80 4 103 17q1 1 -5 6q-15 15 -19 30q-6 21 -12 54h232q-12 -20 -89 -56l54 -46q47 14 115 58l-50 44h66q91 0 133 -8v79q-37 -7 -133 -8h-191v87q70 -21 161 -75q51 55 50 66q-1 1 -17 6q-27 7 -39 13q-81 36 -157 56q1 19 32 28q109 21 185 -12q27 -27 31 -76
q36 39 74 54q-9 49 -44 79q-30 27 -120 32q-108 4 -176 -16q-59 -19 -53 -71q-49 13 -101 22q-18 -55 -42 -70q70 -1 143 -18v-105h-78q-26 66 -71 119q-61 72 -240 131q-18 -46 -60 -79q216 -13 296 -171h-163q-75 0 -119 8v-79q43 8 117 8h179q8 -56 8 -107zM63 427
q40 10 108 10h631q95 -1 131 -8v79q-37 -7 -129 -8h-60v240l79 -3q85 -5 117 -14l4 79q-9 -5 -119 0l-81 6q0 61 8 101h-93q8 -48 8 -99l-488 24q-31 1 -116 14l-3 -82q29 6 103 2h10l53 -2v-266h-55q-76 0 -108 8v-81zM306 762l361 -18v-43h-361v61zM306 500v52h361v-52
h-361zM306 604v45h361v-45h-361z" />
</svg>
