<?xml version="1.0" standalone="no"?>
<!DOCTYPE svg PUBLIC "-//W3C//DTD SVG 1.1//EN" "http://www.w3.org/Graphics/SVG/1.1/DTD/svg11.dtd" >
<svg xmlns="http://www.w3.org/2000/svg" xmlns:xlink="http://www.w3.org/1999/xlink" version="1.1" viewBox="-10 0 1034 1024">
  <g transform="matrix(1 0 0 -1 0 820)">
   <path fill="currentColor"
d="M413 17q3 3 11 5q18 9 50 12q-25 21 -43 45q-61 -45 -167 -94q-64 -27 -117 -45q-51 -15 -90 -21q18 -21 34 -41l107 38q4 3 10 4q9 3 135 59zM74 335q6 -30 6 -32q3 -6 4 -15l115 22l202 31q18 1 38 5q0 -33 -5 -74h48q0 3 -1 8q0 3 -4 61v9q21 0 72 10q1 24 5 46
q-48 -12 -77 -17v293q37 -1 77 -5v45q-39 -4 -66 -5l-381 1q-18 1 -33 4v-45q39 3 69 5h36v-333q-60 -7 -79 -8l-29 1q1 -3 3 -7zM439 444v-61l-113 -17q-33 -3 -66 -8q-22 -3 -44 -5v91h223zM216 480v84h223v-84h-223zM216 600v82h223v-82h-223zM134 33l180 60q45 19 92 35
q24 9 50 10l-28 32q-4 7 -10 14q-87 -45 -176 -75q-102 -34 -166 -42q19 -21 31 -43zM273 208q39 0 219 15v-317q0 -37 -6 -66h50q0 4 -2 8q-1 3 -1 4q-1 3 -4 54v201q67 -73 153 -126q78 -51 257 -107q15 31 40 54q-73 3 -158 35q-97 36 -163 80q166 111 172 112
q19 12 41 13q-21 18 -31 28q-1 1 -16 20q-18 -18 -38 -35q-24 -18 -63 -46q-60 -42 -97 -63q-55 45 -97 99v55q34 3 103 12q66 9 96 16q15 1 27 2q9 0 24 -2q-24 24 -40 53q-30 -12 -71 -22q-73 -13 -143 -23l-135 -12q-72 -3 -124 -5q-30 0 -85 7q13 -27 22 -48q39 3 70 4z
M922 297q0 6 15 26q1 6 7 11l-23 20q-123 90 -138 101q37 45 67 91q30 51 65 126q-31 -1 -63 -5l-251 1q-6 1 -7 1q-12 1 -26 3v-45q60 4 66 5h214q-27 -67 -98 -153q-72 48 -156 101q-10 -21 -29 -42q30 -10 71 -34q57 -33 84 -55q-22 -21 -80 -59q-64 -39 -119 -55
q30 -15 50 -36q9 3 39 21q22 13 48 32q51 36 96 74q69 -46 165 -134q1 3 3 5v0z" />
  </g>

</svg>
