<?xml version="1.0" standalone="no"?>
<!DOCTYPE svg PUBLIC "-//W3C//DTD SVG 1.1//EN" "http://www.w3.org/Graphics/SVG/1.1/DTD/svg11.dtd" >
<svg xmlns="http://www.w3.org/2000/svg" xmlns:xlink="http://www.w3.org/1999/xlink" version="1.1" viewBox="-10 0 1010 1000">
   <path fill="currentColor"
d="M621 -17q89 -2 97 11q0 3 -4 9q-14 19 -14 55v32h117q49 0 82 -6q-5 24 -4 77v163q0 63 6 117q-26 -5 -105 -8h-231q-84 0 -121 6q4 -41 4 -91v-161q0 -18 -6 -101l82 4h105v-30q0 -51 -8 -77zM819 153h-119v78h119v-78zM522 153v80h107v-80h-107zM700 286v83h119v-83
h-119zM629 288h-107v81h107v-81zM962 488v76q-59 -6 -131 -6h-216l-16 69h135q93 -1 153 -10q-11 48 -24 122q-8 49 -14 77q-1 88 -186 97q0 -51 -46 -103q66 9 89 8q28 0 43 -11q30 -15 41 -116h-175q-75 0 -123 10q33 -87 44 -143h-42q-58 0 -105 4v-75q2 0 6 1q46 6 95 6
h347q92 0 125 -6zM30 38q3 0 8 1q47 3 71 3h232q45 -1 90 -4v81q-23 -4 -62 -4v506q24 -6 54 -17q-10 28 -6 81q-4 1 -13 3q-20 5 -35 11v65q0 99 4 139h-79q0 -6 2 -20q6 -50 6 -113v-53q-234 63 -252 83q-3 -51 -20 -103q39 -6 81 -12v-572q-46 0 -81 4v-79zM179 113v139
h123v-139h-123zM179 320v137h123v-137h-123zM179 524v149l123 -34v-115h-123z" />
</svg>
