<?xml version="1.0" standalone="no"?>
<!DOCTYPE svg PUBLIC "-//W3C//DTD SVG 1.1//EN" "http://www.w3.org/Graphics/SVG/1.1/DTD/svg11.dtd" >
<svg xmlns="http://www.w3.org/2000/svg" xmlns:xlink="http://www.w3.org/1999/xlink" version="1.1" viewBox="-10 0 1010 1000">
   <path fill="currentColor"
d="M873 2q46 67 48 96q-3 2 -12 0q-23 -6 -52 -2q-91 11 -137 19v149h141q67 0 95 -6v84q-5 0 -14 -2q-35 -4 -79 -4h-143v137h93q49 -1 82 -4q-4 32 -4 87v190q0 120 6 141h-84q4 -11 5 -27q1 -14 1 -50h-254q0 52 4 83h-81q6 -35 6 -153v-186q0 -17 -1 -49q-1 -26 -1 -38
q28 6 87 6h72v-137h-105q-42 0 -94 6v-84q48 6 94 6h105v-141q-25 3 -116 19q-20 3 -31 5q-6 -48 -32 -87q183 10 401 -58zM565 544v194h254v-194h-254zM319 117h-129v141h129v-141zM319 322h-129v129h129v-129zM190 514v141l129 -28v-113h-129zM387 615q21 -6 57 -18
q25 -8 36 -11l-4 87q-17 2 -64 11q-17 3 -27 5v115q0 67 10 115h-85q9 -57 9 -109v-109q-223 51 -257 73l-26 -93h3l84 -14v-550q-44 0 -79 6v-79q4 1 12 2q42 8 131 8h136q108 0 141 -6v73q-15 -3 -28 -3q-11 -1 -49 -1v498z" />
</svg>
