<?xml version="1.0" standalone="no"?>
<!DOCTYPE svg PUBLIC "-//W3C//DTD SVG 1.1//EN" "http://www.w3.org/Graphics/SVG/1.1/DTD/svg11.dtd" >
<svg xmlns="http://www.w3.org/2000/svg" xmlns:xlink="http://www.w3.org/1999/xlink" version="1.1" viewBox="-10 0 1034 1024">
  <g transform="matrix(1 0 0 -1 0 820)">
   <path fill="currentColor"
d="M389 -122q27 -25 45 -45q97 46 145 83q46 34 70 83q16 36 31 151q4 45 21 74q-27 0 -61 5q1 -25 2 -41q0 -52 -9 -113q-12 -75 -68 -121q-42 -36 -109 -62q-31 -10 -67 -14zM468 547q-3 -27 -5 -54q49 4 69 5h114v-77q-219 0 -233 3l-13 2v-47q7 3 27 4q19 3 38 2
q444 0 466 -3q3 0 9 -3v47q-1 0 -59 -5h-197v77l151 -1l43 -4q-4 45 -5 88l5 96q-15 -1 -28 -3q-22 -3 -29 -3h-137v40q0 10 3 30q1 15 12 33h-58l5 -103l-140 1q-1 0 -43 5l5 -96v-34zM646 636v-102h-141v102h141zM684 534v102h150v-102h-150zM473 322q1 -31 5 -65l-1 -222
q-1 -16 -4 -30h49q-3 6 -4 26q0 18 -2 38v212h314v-204q0 -37 -3 -52q0 -1 -2 -12h48q0 3 -2 11q-1 21 -3 43l1 208l4 47q-51 -4 -78 -5l-279 1q-15 3 -43 4zM910 -133l18 27q-15 12 -33 25q-159 114 -174 124q-12 -21 -23 -33q42 -27 67 -46l93 -71q21 -18 44 -39q3 7 8 13
zM34 28q3 -10 8 -21q25 12 70 24q37 12 67 19q10 3 26 6q36 7 121 32q0 -220 -3 -239q-1 -3 -1 -7q-1 -1 -1 -5h50q-6 12 -6 41l-1 218q30 9 44 11q6 3 32 6q0 6 -1 16q0 15 2 32q-18 -9 -33 -13q-28 -6 -31 -9q-7 -1 -13 -4v541q43 0 61 -4l6 -2v47q-6 -1 -11 -3l-170 -2
q-180 0 -197 3q-3 0 -9 2v-47q24 6 47 6h32v-602q-42 -9 -64 -12q-19 -3 -35 -3q9 -27 10 -31zM159 501v175h167v-175h-167zM159 302v162h167v-162h-167zM326 125l-29 -9q-87 -19 -138 -35v185h167v-141z" />
  </g>

</svg>
