<?xml version="1.0" standalone="no"?>
<!DOCTYPE svg PUBLIC "-//W3C//DTD SVG 1.1//EN" "http://www.w3.org/Graphics/SVG/1.1/DTD/svg11.dtd" >
<svg xmlns="http://www.w3.org/2000/svg" xmlns:xlink="http://www.w3.org/1999/xlink" version="1.1" viewBox="-10 0 1010 1000">
   <path fill="currentColor"
d="M625 -10q82 -2 95 8q0 3 -5 10q-17 23 -17 56v24h117q33 0 88 -4q-5 15 -4 63v54q-1 59 4 85q-24 -5 -90 -4h-115v60h165q32 0 101 -8v77q-2 0 -5 -1q-39 -9 -108 -9h-371q-54 0 -97 8v-75q59 8 95 8h153v-60h-111q-63 -1 -80 4q0 -2 1 -6q3 -24 3 -47v-62q0 -60 -4 -87
q30 3 78 4h113v-24q0 -35 -6 -74zM512 143v84h119v-84h-119zM698 143v84h133v-84h-133zM454 437q48 3 108 4h212q58 -1 103 -4q-5 20 -4 69v78q0 74 4 107h-79q0 -3 1 -10q5 -36 5 -79v-102h-278v125q0 42 6 84h-78q6 -45 6 -97v-76q0 -63 -6 -99zM631 544q83 1 93 12
q1 4 -4 12q-15 26 -18 69q4 179 -236 278q-23 -44 -67 -73q153 -41 194 -99q47 -56 38 -199zM744 699q101 51 204 147l-73 61q-82 -95 -181 -159zM294 119h-119v137h119v-137zM294 324h-119v125h119v-125zM175 516v135l119 -24v-111h-119zM361 615q54 -17 89 -29l-4 85h-4
q-41 4 -81 12v123q0 60 6 107h-81q8 -63 8 -109v-109q-219 58 -244 77l-24 -93q2 0 9 -1q9 -2 72 -13v-546q-39 0 -75 6v-75q23 3 50 3q14 1 35 1h66h130q70 0 84 -1q19 0 40 -3v73q-15 -3 -28 -3q-11 -1 -48 -1v496z" />
</svg>
