<?xml version="1.0" standalone="no"?>
<!DOCTYPE svg PUBLIC "-//W3C//DTD SVG 1.1//EN" "http://www.w3.org/Graphics/SVG/1.1/DTD/svg11.dtd" >
<svg xmlns="http://www.w3.org/2000/svg" xmlns:xlink="http://www.w3.org/1999/xlink" version="1.1" viewBox="-10 0 1010 1000">
   <path fill="currentColor"
d="M772 -13q100 31 105 39q-3 5 -11 13q-18 16 -33 37q-48 69 -75 109h61q42 0 72 -6q-4 20 -4 75v121q-1 64 4 88q-28 -5 -93 -4h-213q-59 0 -107 6q4 -47 4 -94v-109q0 -53 -6 -83q27 3 89 4h118q39 -53 89 -196zM581 -6q10 16 35 59q28 47 43 72l-88 32q-13 -60 -65 -127
zM808 254h-248v133h248v-133zM726 481q43 88 64 180l-88 20q-7 -105 -49 -183zM891 544q62 118 89 208l-91 30q-7 -87 -76 -222zM468 548l78 10q-19 107 -36 270l-89 -12q23 -46 37 -128q14 -80 10 -140zM569 548q90 11 98 18q1 3 -3 8q-13 18 -13 53v133q-1 32 9 37
q9 7 52 7q41 1 54 -22q13 -19 14 -89q28 41 89 49q-30 98 -57 114q-21 21 -114 19q-82 1 -102 -15q-23 -12 -21 -66v-159q0 -57 -6 -87zM26 68q39 3 83 4h244q63 -1 97 -4v85h-4q-35 -4 -61 -4v490q18 -5 51 -17q18 -6 26 -9q-11 36 -8 82q-9 2 -28 8q-22 7 -41 12v63
q0 94 4 137h-83q7 -44 7 -131v-51q-240 59 -263 79q-3 -48 -24 -99q42 -6 89 -12v-554q-50 0 -89 4v-83zM185 147v133h128v-133h-128zM185 348v131h128v-131h-128zM185 546v143l128 -32v-111h-128z" />
</svg>
