<?xml version="1.0" standalone="no"?>
<!DOCTYPE svg PUBLIC "-//W3C//DTD SVG 1.1//EN" "http://www.w3.org/Graphics/SVG/1.1/DTD/svg11.dtd" >
<svg xmlns="http://www.w3.org/2000/svg" xmlns:xlink="http://www.w3.org/1999/xlink" version="1.1" viewBox="-10 0 1034 1024">
  <g transform="matrix(1 0 0 -1 0 820)">
   <path fill="currentColor"
d="M164 279q-81 0 -99 3q-6 1 -13 2v-46q12 3 25 3q21 0 41 2h97l-27 -76l-47 -109q-16 -28 -28 -42q-15 -16 -48 -26q18 -30 29 -58q27 15 53 24q31 12 91 26l164 43l12 -18q9 -19 17 -38q3 -9 13 -26q19 9 38 23q-10 21 -71 132q-31 52 -40 64q-6 -6 -13 -10t-24 -12
q6 -6 10 -14q21 -30 42 -70q-64 -16 -131 -31q-57 -13 -96 -19q30 57 59 123q27 63 45 114q198 0 209 -3q1 0 6 -2v46q-24 -4 -65 -5h-212v108l205 -1q3 0 28 -4v46q-24 -4 -65 -5h-168v114q219 0 229 -3q3 0 7 -3v47q-21 -6 -66 -6h-170v117l234 -1q15 0 32 -3l2 -1v46
q-24 -4 -67 -5h-179q-9 0 -34 3q-13 0 -31 2q6 -60 6 -89v-362zM676 89l-176 3q-6 1 -14 2v-46q39 4 45 5h145l-1 -161l-4 -40h49q-6 18 -6 67v134h175q25 0 52 -2q12 -1 14 -3v46q-24 -4 -66 -5h-175v104q195 0 205 -3q1 0 6 -2v46q-28 -4 -66 -5h-145v115l146 -1l50 -4
q-4 57 -5 112v37l72 -4l2 -1v46q-27 -4 -65 -5h-9q0 93 2 106q0 22 3 46l-111 -5h-85v53q0 15 3 28q3 15 16 38h-62q3 -55 5 -66v-53l-182 5v-47q12 4 44 6h138v-111l-204 3q-4 1 -7 1q-3 1 -6 1v-46q6 3 28 4l189 1v-108l-137 1q-42 3 -47 4v-46q3 1 6 1q0 1 60 4h118v-115
l-127 1q-42 3 -48 4v-46q12 3 25 3q21 0 41 2h109v-104zM714 524v111h153v-111h-153zM714 380v108h153v-108h-153z" />
  </g>

</svg>
