<?xml version="1.0" standalone="no"?>
<!DOCTYPE svg PUBLIC "-//W3C//DTD SVG 1.1//EN" "http://www.w3.org/Graphics/SVG/1.1/DTD/svg11.dtd" >
<svg xmlns="http://www.w3.org/2000/svg" xmlns:xlink="http://www.w3.org/1999/xlink" version="1.1" viewBox="-10 0 1010 1000">
   <path fill="currentColor"
d="M595 -10q73 24 80 42q-1 2 -5 5q-24 16 -49 55h196q84 -3 102 -8v73q-29 -8 -78 -8q-44 67 -91 113q108 37 200 38q-39 54 -45 81q-139 -38 -213 -81q-51 26 -140 44q-9 -16 -18 -22q-12 12 -16 41h157q35 -1 78 -2q17 -1 21 -1q-6 44 -6 61v40h71q72 -4 98 -10v65
q-9 -3 -59 -4q-26 -1 -35 -2h-75v30q1 44 6 75q-34 -5 -86 -5h-170v49h188q84 -3 107 -6v60q-16 -5 -103 -4h-8h-184v51h274q71 -3 111 -10v70q-22 -9 -105 -10h-280v24q1 52 6 79h-84q7 -33 8 -75v-28h-273q-66 2 -112 10v-68q12 1 58 4q32 3 52 4h275v-51h-158
q-24 -2 -111 4v-62q16 5 111 8h158v-49h-144q-1 1 -40 2q-60 3 -72 5v-65q18 5 110 8h146v-50h-277q-74 0 -108 6v-63q27 6 108 8h277v-48h-140q-80 0 -98 6v-65q39 8 100 9h138q0 -37 -4 -55q46 1 86 8q-15 -18 -34 -32q77 2 143 -20q-62 -51 -77 -71l59 -34q19 33 75 76
q42 -35 76 -88h-187q-33 36 -63 78q-14 -23 -54 -40q73 -45 127 -195zM196 137q0 12 -1 39q-1 30 -1 47h203v-86h-201zM518 413v48h180v-48h-180zM518 510v50h180v-50h-180zM462 213q1 9 1 25q0 29 5 46q-27 -6 -115 -6h-165q-29 104 -61 149q-29 -17 -87 -28
q58 -50 76 -124q20 -74 7 -199q40 5 99 6h58q-8 -25 -36 -68l79 -14q1 5 5 17q5 16 17 65h32q62 0 91 -4q-4 12 -5 47q0 16 -1 22v40v26z" />
</svg>
