<?xml version="1.0" standalone="no"?>
<!DOCTYPE svg PUBLIC "-//W3C//DTD SVG 1.1//EN" "http://www.w3.org/Graphics/SVG/1.1/DTD/svg11.dtd" >
<svg xmlns="http://www.w3.org/2000/svg" xmlns:xlink="http://www.w3.org/1999/xlink" version="1.1" viewBox="-10 0 1034 1024">
  <g transform="matrix(1 0 0 -1 0 820)">
   <path fill="currentColor"
d="M370 194v-257q0 -33 -17 -39q-15 -6 -36 -6q-10 1 -21 1q-18 0 -30 3q12 -24 17 -50q60 9 83 15q40 9 41 67l1 722q0 12 5 42q-25 -1 -52 -5q-165 0 -184 2q-6 3 -31 3q1 -27 5 -54l-1 -388q-1 -10 -1 -23q0 -51 -5 -122q-1 -6 -2 -13q-12 -114 -52 -178q-15 -21 -45 -45
q34 -7 60 -20q36 63 57 136q18 69 26 209h182zM190 449v202h180v-202h-180zM188 230l2 185h180v-185h-182zM879 478l-3 -151l-7 -278q0 -48 -5 -93q-3 -27 -19 -35q-22 -13 -68 -14q-16 0 -46 4q9 -21 17 -50q33 6 53 6q9 0 17 3q66 10 80 57q6 12 13 311l3 132l2 76
q0 39 7 74q-54 -6 -66 -6h-159q0 184 3 200q0 15 8 27q6 12 18 20q-46 4 -60 8q-6 1 -15 3q4 -36 5 -54l2 -204l-168 1q-25 4 -28 5v-47q19 4 57 5h139l-7 -148q-3 -51 -11 -91q-27 -177 -138 -305q-48 -51 -90 -69q24 -9 57 -28q120 126 167 244q30 82 41 159q12 82 17 238
h184z" />
  </g>

</svg>
