<?xml version="1.0" standalone="no"?>
<!DOCTYPE svg PUBLIC "-//W3C//DTD SVG 1.1//EN" "http://www.w3.org/Graphics/SVG/1.1/DTD/svg11.dtd" >
<svg xmlns="http://www.w3.org/2000/svg" xmlns:xlink="http://www.w3.org/1999/xlink" version="1.1" viewBox="-10 0 1034 1024">
  <g transform="matrix(1 0 0 -1 0 820)">
   <path fill="currentColor"
d="M58 -108q15 -3 35 -14q39 70 56 148q18 79 23 207h175v-221q0 -28 -5 -38q-4 -7 -23 -12q-16 -6 -41 -6h-12q-15 0 -36 6q10 -24 20 -54q22 3 96 18q4 3 10 5q28 16 29 66l1 683l4 40q-27 -1 -56 -5l-164 1q-15 3 -40 4q1 -27 5 -56l-1 -352q-1 -15 -2 -84
q-3 -115 -18 -179q-15 -66 -32 -95q-18 -33 -47 -56zM173 486v193h174v-193h-174zM172 269l1 181h174v-181h-175zM553 683h203v-707q0 -61 30 -75q24 -9 66 -9q28 0 50 7q42 12 56 54q4 18 15 70q-18 3 -51 20v-48q0 -42 -22 -53q-21 -7 -38 -8q-28 0 -42 3q-9 1 -13 3
q-12 6 -13 45l1 699l4 41q-27 -6 -52 -6l-200 1q-6 1 -37 5q1 -27 5 -55l-2 -372q-1 -31 -1 -58q0 -39 -8 -111q-6 -39 -13 -70q-12 -48 -40 -90q-43 -63 -104 -81q33 -15 56 -33q33 33 50 51q42 48 64 109q21 63 27 128q9 157 9 271v269z" />
  </g>

</svg>
