<?xml version="1.0" standalone="no"?>
<!DOCTYPE svg PUBLIC "-//W3C//DTD SVG 1.1//EN" "http://www.w3.org/Graphics/SVG/1.1/DTD/svg11.dtd" >
<svg xmlns="http://www.w3.org/2000/svg" xmlns:xlink="http://www.w3.org/1999/xlink" version="1.1" viewBox="-10 0 1034 1024">
  <g transform="matrix(1 0 0 -1 0 820)">
   <path fill="currentColor"
d="M274 151q118 0 129 -3q3 0 7 -2v46q-28 -4 -66 -5h-65q13 99 16 131q-1 4 0 8q94 0 104 -3q1 0 6 -2v46q-6 -1 -13 -3q-25 -1 -183 -2h-20q18 39 41 53q-18 9 -38 17q-3 0 -6 3q-6 3 -10 7q-10 -33 -21 -58q-9 -24 -27 -57q-33 -57 -64 -86q21 -6 45 -17q6 9 12 17
q6 9 17 29q9 19 34 56h83q0 -36 -4 -58q-9 -63 -11 -81l-149 3q-6 1 -14 2v-46q3 0 64 5h90q-18 -78 -70 -148q-60 -81 -117 -111q21 -12 44 -35q81 78 149 192q75 -55 149 -137q6 9 8 15q6 12 19 22q-46 43 -82 74l-54 45q-13 12 -20 20q7 31 17 63zM113 755q0 -9 2 -13
l3 -158q0 -40 3 -56q4 -27 20 -43q24 -19 91 -20q54 0 85 4q49 4 70 47q9 18 19 53q-3 0 -11 6q-15 9 -30 17q-12 -67 -36 -82q-21 -9 -80 -9q-43 0 -58 4q-34 9 -35 54v50q27 3 124 26q27 9 106 28q10 3 24 5q-12 12 -23 31q-4 7 -9 16q-15 -10 -29 -19q-10 -4 -41 -15
q-78 -22 -152 -37q0 45 3 68q3 18 10 35q1 4 3 8h-59zM633 52l-197 1q-24 3 -28 4v-43q19 4 46 5h179v-119q0 -24 -3 -53q0 -6 -2 -14h49q-6 21 -6 67v119l269 -1q15 0 31 -4v43q-24 -4 -65 -5h-235v129q231 0 239 -3q4 0 7 -2v43q-28 -4 -66 -5h-180v120l145 -1q18 0 50 -4
q-6 27 -5 85v62q94 0 104 -3q1 0 6 -3v44q-27 -4 -65 -5h-45q0 93 2 106q0 18 3 39l-111 -5h-84v51q0 12 3 25q3 19 16 40h-62q0 -15 2 -16l3 -100l-168 3q-3 1 -5 1q-3 1 -6 1v-44q6 1 63 6h116v-107l-166 1q-18 3 -33 3q-3 1 -6 1v-44q9 4 24 5l181 1v-110l-164 4
q-6 1 -14 2v-43q7 3 36 4l142 1v-120l-141 1q-42 3 -48 4v-43q1 1 5 1q31 3 52 4h132v-129zM671 509v107h152v-107h-152zM671 366v110h152v-110h-152z" />
  </g>

</svg>
