<?xml version="1.0" standalone="no"?>
<!DOCTYPE svg PUBLIC "-//W3C//DTD SVG 1.1//EN" "http://www.w3.org/Graphics/SVG/1.1/DTD/svg11.dtd" >
<svg xmlns="http://www.w3.org/2000/svg" xmlns:xlink="http://www.w3.org/1999/xlink" version="1.1" viewBox="-10 0 1010 1000">
   <path fill="currentColor"
d="M621 2q89 -3 101 8q2 4 -4 13q-15 23 -16 53q-4 96 -8 149h108q88 0 113 -4q-10 104 -25 328q-12 188 -21 235q-13 70 -175 93q-1 -66 -49 -115q108 27 141 -20q21 -34 39 -442h-135q-9 420 -222 595q-35 -40 -71 -59q-39 21 -135 41q-1 -4 -3 -11q-14 -59 -37 -90
q113 16 121 -30v-190h-137q-20 211 -99 339q-8 -6 -29 -22q-28 -23 -46 -37q66 -85 85 -213q12 -86 18 -216q3 -65 4 -137t0 -139q-1 -45 -8 -81q17 5 73 6h145q41 -1 78 -8q-7 21 -8 75v685q181 -112 200 -508h-36q-44 1 -129 10v-93q34 7 127 8h38q8 -147 2 -223zM343 123
h-133v145h133v-145zM210 336q0 21 -2 91q-1 39 -2 61h137v-152h-133z" />
</svg>
