<?xml version="1.0" standalone="no"?>
<!DOCTYPE svg PUBLIC "-//W3C//DTD SVG 1.1//EN" "http://www.w3.org/Graphics/SVG/1.1/DTD/svg11.dtd" >
<svg xmlns="http://www.w3.org/2000/svg" xmlns:xlink="http://www.w3.org/1999/xlink" version="1.1" viewBox="-10 0 1034 1024">
  <g transform="matrix(1 0 0 -1 0 820)">
   <path fill="currentColor"
d="M328 636l-108 76q-10 -16 -34 -39q102 -48 198 -145q13 22 34 41q-13 9 -27 20zM237 -114q0 -21 -3 -42q0 -4 -3 -16h50q-6 30 -6 58v192h520v-140q0 -39 -30 -45q-19 -3 -47 -4q-21 0 -64 7q18 -24 28 -55l88 7q64 10 65 75l1 525l4 41q-30 -1 -60 -5h-222v231q0 9 2 25
q1 15 12 36h-59q3 -16 6 -47q-1 -6 0 -14v-231h-225q-9 0 -33 3q-12 0 -30 2q6 -48 6 -60v-543zM275 299v149h520v-149h-520zM275 264h520v-151h-520v151zM816 655q25 28 37 35q9 7 37 15q-34 15 -64 37q-33 -51 -71 -95q-39 -42 -93 -88q18 -9 39 -28l53 58z" />
  </g>

</svg>
