<?xml version="1.0" standalone="no"?>
<!DOCTYPE svg PUBLIC "-//W3C//DTD SVG 1.1//EN" "http://www.w3.org/Graphics/SVG/1.1/DTD/svg11.dtd" >
<svg xmlns="http://www.w3.org/2000/svg" xmlns:xlink="http://www.w3.org/1999/xlink" version="1.1" viewBox="-10 0 1034 1024">
  <g transform="matrix(1 0 0 -1 0 820)">
   <path fill="currentColor"
d="M487 313l-52 4q-3 0 -5 1v-46q21 6 73 5q57 -138 147 -235q-58 -54 -112 -85q-76 -37 -142 -46q28 -30 39 -50q57 24 107 52q51 30 137 101q69 -54 118 -81q54 -30 157 -72q12 24 42 51q-138 10 -288 130q57 73 93 133q34 63 68 143q-54 -4 -59 -5h-323zM808 277
q-45 -105 -129 -210q-84 84 -135 210h264zM336 215v-252q0 -42 -26 -46q-18 -3 -35 -3q-24 0 -49 6q13 -30 18 -55q52 3 66 6q36 4 51 20q12 12 13 48l1 741l4 43q-55 -4 -83 -5q-108 0 -131 2q-6 3 -31 3q1 -30 5 -60v-344q0 -106 -13 -194q-18 -108 -58 -178
q-16 -28 -42 -52q12 -1 28 -8q13 -3 29 -12q73 144 91 340h162zM176 251l1 185h159v-185h-160zM177 472v210h159v-210h-159zM427 366q10 -7 21 -19q40 45 66 79q18 27 34 67q12 39 19 79q6 48 11 116h175v-203q0 -66 34 -81q22 -10 77 -11q18 0 52 3q22 1 48 7v13q0 15 5 43
q-33 -13 -49 -19q-33 -6 -61 -6q-30 0 -45 5q-22 9 -23 59l1 188q1 21 5 42q-55 -4 -78 -5l-152 1q-15 3 -37 4q6 -54 6 -79q-3 -70 -20 -127q-19 -57 -54 -98q-22 -22 -62 -41q13 -7 27 -17v0z" />
  </g>

</svg>
