<?xml version="1.0" standalone="no"?>
<!DOCTYPE svg PUBLIC "-//W3C//DTD SVG 1.1//EN" "http://www.w3.org/Graphics/SVG/1.1/DTD/svg11.dtd" >
<svg xmlns="http://www.w3.org/2000/svg" xmlns:xlink="http://www.w3.org/1999/xlink" version="1.1" viewBox="-10 0 1010 1000">
   <path fill="currentColor"
d="M413 30q-5 43 -6 117v603q1 75 -26 92q-21 22 -135 41q0 -57 -30 -103q73 13 89 3q21 -8 20 -52v-203h-133q-19 237 -95 361q-27 -33 -75 -49q73 -92 88 -213q10 -65 12 -166q2 -99 -3 -274q-1 -100 -6 -157q60 6 123 6h48q87 -1 129 -6zM893 40v85q-41 -7 -135 -6h-133
q-113 1 -143 8v-85q37 6 141 6h127q98 -1 143 -8zM325 104h-131v142h131v-142zM788 254q104 -2 156 -12v90q-19 -3 -54 -5q-18 0 -40 -1h-58h-133q-11 28 -34 96q-10 29 -16 47h103q133 0 179 -6q-8 36 -18 150q-16 172 -34 197q-37 55 -178 63q-3 -57 -38 -103q6 1 20 3
q96 19 123 -23q24 -28 34 -214h-110q-112 0 -152 12l-32 -71q2 -1 6 -2q21 -3 34 -28q24 -44 41 -121h-24q-90 -1 -123 4v-86q38 8 141 10h207zM325 314h-131v147h131v-147z" />
</svg>
