<?xml version="1.0" standalone="no"?>
<!DOCTYPE svg PUBLIC "-//W3C//DTD SVG 1.1//EN" "http://www.w3.org/Graphics/SVG/1.1/DTD/svg11.dtd" >
<svg xmlns="http://www.w3.org/2000/svg" xmlns:xlink="http://www.w3.org/1999/xlink" version="1.1" viewBox="-10 0 1010 1000">
   <path fill="currentColor"
d="M784 16l18 9q80 37 73 45q-1 3 -13 5q-22 2 -35 11q-24 17 -77 64q-64 65 -204 162q-29 -37 -70 -58q170 -82 308 -238zM147 50q52 9 117 10h93q73 1 107 -8q-3 15 -5 55q0 18 -1 28v613v30q32 89 -146 103q-4 -60 -32 -93q63 15 91 2q11 -7 12 -30v-218h-157
q-8 163 -99 333q-39 -27 -89 -33q108 -132 117 -377q1 -68 -1 -179q-1 -78 -1 -123q0 -82 -6 -113zM228 125v157h155v-157h-155zM812 233q90 49 85 57q-1 2 -11 6q-22 8 -35 20t-42 44q-101 112 -247 230q-34 -41 -78 -60q184 -97 328 -297zM383 346h-155v131h155v-131z
M851 467q93 39 91 47q-1 2 -8 5q-20 8 -33 25q-191 244 -345 337q-31 -41 -80 -61q237 -118 375 -353z" />
</svg>
