<?xml version="1.0" standalone="no"?>
<!DOCTYPE svg PUBLIC "-//W3C//DTD SVG 1.1//EN" "http://www.w3.org/Graphics/SVG/1.1/DTD/svg11.dtd" >
<svg xmlns="http://www.w3.org/2000/svg" xmlns:xlink="http://www.w3.org/1999/xlink" version="1.1" viewBox="-10 0 1010 1000">
   <path fill="currentColor"
d="M109 40q26 7 83 8h102q56 -1 87 -6q-9 38 -10 81v649q1 42 -27 59q-19 16 -112 34q-6 -54 -42 -97q107 21 110 -35v-191h-117q-15 210 -88 335q-8 -11 -36 -34q-27 -22 -29 -29q65 -86 79 -302q11 -93 0 -472zM446 42q49 7 135 8h133q89 -1 159 -8v91q-41 -4 -99 40
q-12 9 -44 37q-99 85 -170 136h226q101 -1 143 -10q-9 49 -33 215q-26 184 -41 241q-16 60 -178 81q-6 -59 -38 -103q23 6 48 7q24 1 43 -4q37 -8 46 -35q26 -89 61 -333h-79q-39 298 -272 470l-8 -8q-38 -39 -73 -53q233 -102 282 -409h-68q-63 198 -175 290
q-7 -18 -57 -64q106 -45 165 -226h-28l-74 20l-25 -87q82 -9 228 -143q73 -66 105 -85h-177q-102 0 -135 5v-73zM300 112h-115v152h115v-152zM185 328v151h115v-151h-115z" />
</svg>
