<?xml version="1.0" standalone="no"?>
<!DOCTYPE svg PUBLIC "-//W3C//DTD SVG 1.1//EN" "http://www.w3.org/Graphics/SVG/1.1/DTD/svg11.dtd" >
<svg xmlns="http://www.w3.org/2000/svg" xmlns:xlink="http://www.w3.org/1999/xlink" version="1.1" viewBox="-10 0 1034 1024">
  <g transform="matrix(1 0 0 -1 0 820)">
   <path fill="currentColor"
d="M347 245v-281q0 -31 -10 -40q-9 -6 -36 -7q-13 0 -27 2q-6 3 -25 3q-7 0 -14 3q9 -22 11 -27q1 -12 4 -27q39 1 61 5q46 6 61 21q12 15 13 60l1 718l4 45q-18 -1 -32 -2q-21 -3 -69 -3l-100 1q-3 0 -43 4q1 -30 5 -61l-1 -350q-1 -10 -1 -25q0 -36 -6 -126q-1 -7 -2 -16
q-15 -124 -55 -201q-18 -28 -44 -55q10 -3 20 -5q19 -6 33 -12q43 78 62 153q18 78 28 223h162zM187 281l2 174h158v-174h-160zM347 679v-189h-158v189h158zM440 93q3 -1 16 -14q69 54 108 106q27 36 44 69q21 43 49 113h111q-51 -267 -213 -389q-54 -40 -106 -57
q22 -12 46 -37q127 85 189 168q87 121 123 315h97l-14 -193l-5 -85l-10 -93q-7 -40 -19 -54q-12 -9 -46 -17q-33 -3 -69 -4l-35 6q15 -25 24 -56q105 9 138 27q25 16 37 51q9 33 16 131l16 240q1 33 6 56q1 16 6 32q-49 -4 -60 -5h-331q63 51 107 91q39 34 75 69l88 89
q31 33 64 73l-62 -6l-348 1l-14 2q-3 0 -12 3v-47q19 4 57 5h295q-108 -115 -209 -198l-51 -42q-18 -13 -33 -24q-21 -12 -58 -24q18 -21 30 -45q19 10 34 13q19 3 38 4h54q-34 -106 -80 -163q-66 -70 -121 -92q6 -4 14 -9q6 -4 14 -10v0z" />
  </g>

</svg>
