<?xml version="1.0" standalone="no"?>
<!DOCTYPE svg PUBLIC "-//W3C//DTD SVG 1.1//EN" "http://www.w3.org/Graphics/SVG/1.1/DTD/svg11.dtd" >
<svg xmlns="http://www.w3.org/2000/svg" xmlns:xlink="http://www.w3.org/1999/xlink" version="1.1" viewBox="-10 0 1034 1024">
  <g transform="matrix(1 0 0 -1 0 820)">
   <path fill="currentColor"
d="M364 200v-244q0 -42 -19 -48q-18 -3 -58 -3q-12 1 -28 4q13 -27 17 -47l59 6q34 6 52 17q15 15 16 56l1 714q0 6 4 38q-27 -1 -56 -5l-162 1q-15 3 -37 4q1 -25 5 -53l-1 -337q-1 -6 -1 -14q0 -39 -5 -115q-1 -7 -2 -16q-6 -63 -14 -103q-15 -67 -39 -109
q-22 -33 -53 -60q22 -9 33 -12q9 -3 21 -9q36 58 60 126q13 42 22 87q7 42 14 122h171zM194 236l3 189h167v-189h-170zM197 460v192h167v-192h-167zM884 297l-3 -181l-6 -138q-3 -52 -55 -61q-39 -4 -58 -5q-7 0 -38 5q6 -10 9 -19q4 -10 11 -30q81 7 119 18q46 18 50 92
l3 88l4 157q1 48 3 75q3 27 6 40q-18 -1 -25 -2q-22 -3 -31 -3h-219l9 185l297 -3q3 0 10 -2v46q-9 0 -11 -2q-18 0 -46 -3l-439 1q-15 3 -29 4v-46q21 4 58 5h122q0 -76 -6 -161q-4 -81 -13 -143q-21 -147 -109 -252q-55 -66 -106 -81q21 -15 47 -37q139 132 188 283
q7 28 14 63l11 107h233zM634 766q-15 -15 -40 -29q84 -52 153 -145q10 15 34 29q-27 33 -65 71q-1 1 -82 74v0z" />
  </g>

</svg>
