<?xml version="1.0" standalone="no"?>
<!DOCTYPE svg PUBLIC "-//W3C//DTD SVG 1.1//EN" "http://www.w3.org/Graphics/SVG/1.1/DTD/svg11.dtd" >
<svg xmlns="http://www.w3.org/2000/svg" xmlns:xlink="http://www.w3.org/1999/xlink" version="1.1" viewBox="-10 0 1034 1024">
  <g transform="matrix(1 0 0 -1 0 820)">
   <path fill="currentColor"
d="M331 195v-251q0 -21 -7 -28q-3 -3 -15 -8q-25 -3 -52 -4q-9 1 -11 1q-15 0 -28 3q3 -9 8 -20q7 -24 8 -32q30 1 60 7q48 7 62 22q12 15 13 68l1 697l4 42q-27 -1 -55 -5l-146 1q-15 3 -42 4q1 -30 5 -60l-2 -436q-1 -7 -1 -17q-3 -58 -10 -103q-12 -72 -39 -145
q-19 -45 -41 -68q33 -7 51 -16q33 75 53 156q9 39 15 76q6 42 11 116h158zM174 231v183h157v-183h-157zM174 449v202h157v-202h-157zM644 590l-224 3q-3 1 -8 3v-47q39 4 60 5h172v-344l-143 -15v190q0 6 2 24q1 19 11 36h-55q4 -30 5 -60l-1 -192q-3 -12 -4 -41
q108 15 185 24v-231q0 -61 47 -76q16 -3 48 -5q31 -1 45 -3q24 0 93 5q54 7 77 58q9 24 21 71q-9 4 -19 8q-15 4 -34 13q0 -9 1 -23q0 -66 -28 -82q-13 -6 -53 -10q-48 0 -51 -2q-21 3 -52 3q-30 0 -41 7q-15 9 -16 45v224l158 16v-23q0 -40 -5 -60h48q-4 30 -5 60l1 233
q0 19 7 34q1 6 5 11h-56q4 -42 5 -71v-149l-158 -16v341l238 -1l26 -4v47q-21 -1 -44 -5l-220 -1q0 136 3 143q1 15 12 28h-58q1 -36 5 -75v-96z" />
  </g>

</svg>
