<?xml version="1.0" standalone="no"?>
<!DOCTYPE svg PUBLIC "-//W3C//DTD SVG 1.1//EN" "http://www.w3.org/Graphics/SVG/1.1/DTD/svg11.dtd" >
<svg xmlns="http://www.w3.org/2000/svg" xmlns:xlink="http://www.w3.org/1999/xlink" version="1.1" viewBox="-10 0 1010 1000">
   <path fill="currentColor"
d="M683 -13q34 45 69 126l-87 34q-22 -64 -66 -133zM254 56q82 0 145 -6q-2 47 -2 103v466v147q7 93 -139 97q-4 -48 -34 -91q70 9 83 0q17 -6 14 -49v-175h-142q1 159 -70 339q-32 -30 -77 -39q78 -157 75 -407v-292q-1 -49 -6 -97q26 1 69 2zM321 123h-142v157h142v-157z
M427 177q30 8 103 8h331q59 0 89 -8v81q-28 -9 -87 -8h-228l-2 133h155q47 0 103 -4q-7 35 -10 84q-14 335 -34 363q-24 46 -159 59q-9 -53 -39 -101q88 18 111 0q16 -10 20 -39q5 -22 14 -149l6 -145h-169q-3 112 -42 234q-42 127 -127 224q-40 -28 -95 -44
q85 -52 137 -170q44 -104 50 -238q3 -84 6 -211h-32q-67 -1 -101 8v-77zM321 340h-142v150h142v-150z" />
</svg>
