<?xml version="1.0" standalone="no"?>
<!DOCTYPE svg PUBLIC "-//W3C//DTD SVG 1.1//EN" "http://www.w3.org/Graphics/SVG/1.1/DTD/svg11.dtd" >
<svg xmlns="http://www.w3.org/2000/svg" xmlns:xlink="http://www.w3.org/1999/xlink" version="1.1" viewBox="-10 0 1034 1024">
  <g transform="matrix(1 0 0 -1 0 820)">
   <path fill="currentColor"
d="M375 204v-254q0 -36 -21 -42q-19 -3 -46 -4q-15 0 -40 4q3 -10 8 -22q3 -9 5 -14q0 4 1 -13q13 0 31 3q30 1 45 5q27 6 35 12q19 15 20 66l1 737l4 36q-27 -1 -53 -5l-182 1q-15 3 -37 4q1 -24 5 -50l-1 -397q-1 -10 -1 -24q0 -60 -5 -106q-1 -13 -4 -28
q-15 -111 -57 -183q-18 -27 -50 -55q33 -6 60 -19q42 78 63 148q22 76 30 200h189zM188 240l1 194h186v-194h-187zM189 470v207h186v-207h-186zM516 703l4 -35l1 -707q1 -18 8 -34q9 -19 28 -32q33 -18 90 -25q52 -3 97 -5q13 0 53 2q39 1 62 6q69 12 90 56q10 27 27 94
q-21 7 -52 26q-1 -64 -9 -95q-9 -39 -64 -48q-16 -1 -49 -4q-33 -1 -55 -2q-12 0 -36 2q-27 0 -39 2q-72 6 -91 21q-22 15 -23 64v311l339 -1q15 0 39 -4q-3 28 -5 58l1 329l4 39q-27 -1 -55 -5l-325 1q-3 0 -41 4q0 -9 1 -18zM558 336v344h151v-344h-151zM747 336v344h146
v-344h-146z" />
  </g>

</svg>
