<?xml version="1.0" standalone="no"?>
<!DOCTYPE svg PUBLIC "-//W3C//DTD SVG 1.1//EN" "http://www.w3.org/Graphics/SVG/1.1/DTD/svg11.dtd" >
<svg xmlns="http://www.w3.org/2000/svg" xmlns:xlink="http://www.w3.org/1999/xlink" version="1.1" viewBox="-10 0 1034 1024">
  <g transform="matrix(1 0 0 -1 0 820)">
   <path fill="currentColor"
d="M312 -101q0 -31 -5 -57h48q-6 21 -6 57v125h414v-91q0 -22 -4 -30q-4 -9 -19 -13q-21 -6 -47 -6h-16q-19 0 -41 6q7 -18 15 -49q36 0 71 5q45 6 62 17q16 15 17 59l1 346l4 42q-55 -4 -83 -5h-374l73 89l511 -1l33 -4v46q-9 0 -13 -2q-37 0 -75 -3h-429q9 12 14 19
q6 15 16 25q19 33 58 47q-33 12 -69 33q-16 -37 -33 -66q-15 -25 -39 -58l-293 1q-12 0 -29 4v-46q28 3 58 5h238q-49 -70 -142 -151q-97 -82 -175 -102q30 -27 44 -44q54 33 100 70q51 39 115 98v-366zM349 60v84h414v-84h-414zM763 180h-414v89h414v-89zM620 655l104 63
q22 13 63 18q-27 19 -56 52q-61 -63 -203 -140q-163 64 -220 83q-15 6 -57 21q-7 -27 -19 -51q84 -10 248 -75q-66 -33 -160 -64q-79 -24 -162 -32q19 -25 31 -51q93 28 188 62q96 33 156 62q181 -63 282 -131q12 30 23 48l-258 112q19 12 40 23v0z" />
  </g>

</svg>
