<?xml version="1.0" standalone="no"?>
<!DOCTYPE svg PUBLIC "-//W3C//DTD SVG 1.1//EN" "http://www.w3.org/Graphics/SVG/1.1/DTD/svg11.dtd" >
<svg xmlns="http://www.w3.org/2000/svg" xmlns:xlink="http://www.w3.org/1999/xlink" version="1.1" viewBox="-10 0 1010 1000">
   <path fill="currentColor"
d="M641 -12q43 5 78 10q11 2 13 2q18 1 8 15q-15 21 -16 41v3q-2 50 -2 114h70q76 1 133 -8q-10 49 -10 131v518q21 45 -157 75q-11 -56 -42 -105q131 14 123 -26v-518h-119q-1 10 -2 28q-9 94 -12 119q65 80 127 221l-85 43q-23 -109 -61 -186q-29 108 -98 204
q-30 -24 -57 -32v129q-1 96 8 119h-92q5 -18 6 -45q1 -14 2 -30v-44v-482q0 -45 -1 -69q-2 -27 -5 -50q44 9 117 8h80v-97q0 -61 -6 -88zM101 42q46 9 147 8q93 0 137 -8q-7 50 -6 129v609q16 84 -155 97q2 -55 -28 -99q103 23 108 -38v-182h-127q-14 211 -78 349
q-39 -38 -87 -53q102 -114 97 -514v-173q1 -88 -8 -125zM185 117v159h119v-159h-119zM532 240v360q41 -44 79 -137q30 -79 36 -223h-115zM183 340v49q2 74 0 99h121v-148h-121z" />
</svg>
