<?xml version="1.0" standalone="no"?>
<!DOCTYPE svg PUBLIC "-//W3C//DTD SVG 1.1//EN" "http://www.w3.org/Graphics/SVG/1.1/DTD/svg11.dtd" >
<svg xmlns="http://www.w3.org/2000/svg" xmlns:xlink="http://www.w3.org/1999/xlink" version="1.1" viewBox="-10 0 1010 1000">
   <path fill="currentColor"
d="M655 -10q34 55 63 135l-79 28q-22 -77 -62 -133zM387 54q-4 17 -7 51q-2 30 -1 46v625q3 71 -149 86q-4 -48 -34 -92q110 20 110 -28v-202h-133q-8 195 -74 355q-32 -34 -75 -51q68 -132 75 -328v-337q0 -60 -6 -125q47 10 84 8h135q46 0 75 -8zM173 129v141h133v-141
h-133zM401 153q52 9 155 10h220q94 -1 147 -10v89q-43 -6 -141 -7h-230q-95 1 -151 7v-89zM788 324q-7 41 -6 95v347q0 27 24 30q37 3 49 -2q21 -19 30 -101q48 41 83 42q-27 129 -81 134q-30 5 -103 2q-73 -7 -74 -75v-397h-127q1 119 -3 177q-5 66 -19 118
q-27 105 -111 209q-42 -47 -93 -49q115 -81 143 -219q9 -57 11 -149q2 -98 -5 -162q33 8 77 8h127q44 -1 78 -8zM306 330h-133v151h133v-151z" />
</svg>
