<?xml version="1.0" standalone="no"?>
<!DOCTYPE svg PUBLIC "-//W3C//DTD SVG 1.1//EN" "http://www.w3.org/Graphics/SVG/1.1/DTD/svg11.dtd" >
<svg xmlns="http://www.w3.org/2000/svg" xmlns:xlink="http://www.w3.org/1999/xlink" version="1.1" viewBox="-10 0 1034 1024">
  <g transform="matrix(1 0 0 -1 0 820)">
   <path fill="currentColor"
d="M91 -150q3 -1 10 -4q82 148 93 346h167v-254q0 -28 -4 -37q-4 -7 -22 -13q-19 -3 -39 -4q-22 0 -40 4q7 -13 12 -23l8 -28q63 9 90 18q33 12 33 66l1 725l4 38q-4 0 -8 -1l-46 -4q-142 0 -163 2q-3 1 -5 1q-12 0 -27 2q1 -25 5 -53l-1 -394q-1 -9 -1 -21q0 -31 -6 -99
q-1 -9 -3 -21q-15 -111 -59 -185q-18 -27 -37 -45l20 -8q9 -3 18 -8zM198 454v189h163v-189h-163zM197 228l1 190h163v-190h-164zM488 -91q0 -39 -5 -59h47q-4 30 -5 59v611h170q-6 -93 -17 -146q-21 -94 -67 -162q-30 -42 -66 -68q36 -18 47 -27q48 69 71 109q24 48 49 118
q96 -123 135 -200q21 15 23 17q6 3 16 9q-76 109 -166 223q7 63 13 127h172v-567q0 -24 -3 -33q-4 -9 -18 -13q-24 -3 -30 -3q-22 0 -55 4q7 -12 17 -49q96 6 111 22q15 15 16 55l1 583l4 42q-30 -1 -59 -5h-153q3 178 6 184q3 12 15 24q-33 3 -54 9q-4 0 -11 3
q7 -57 8 -142l-2 -78l-176 1q-15 3 -39 4q4 -54 5 -58v-594z" />
  </g>

</svg>
