<?xml version="1.0" standalone="no"?>
<!DOCTYPE svg PUBLIC "-//W3C//DTD SVG 1.1//EN" "http://www.w3.org/Graphics/SVG/1.1/DTD/svg11.dtd" >
<svg xmlns="http://www.w3.org/2000/svg" xmlns:xlink="http://www.w3.org/1999/xlink" version="1.1" viewBox="-10 0 1034 1024">
  <g transform="matrix(1 0 0 -1 0 820)">
   <path fill="currentColor"
d="M99 -136q34 70 55 152q9 39 17 81l14 128h152v-263q0 -19 -12 -27q-15 -7 -48 -8q-19 0 -45 4q9 -18 18 -49q87 9 109 28q15 15 16 54l1 701l4 46q-34 -1 -69 -5q-102 0 -126 2q-21 1 -41 3q1 -33 5 -67l-1 -417q-3 -43 -11 -108q-15 -118 -54 -189q-16 -27 -41 -49
q27 -7 57 -17zM186 472v199h151v-199h-151zM186 261v175h151v-175h-151zM780 217v-284q0 -30 -6 -70h49q-4 12 -5 35l-1 319q135 0 145 -3q1 0 6 -2v46q-27 -1 -54 -5h-97v267q105 0 112 -3q4 0 7 -2v46q-27 -1 -53 -5h-66v135q0 18 3 32q3 22 17 38h-63q0 -3 2 -8
q0 1 2 -11l2 -186h-164v131q0 15 2 31q3 22 17 38h-63q6 -21 6 -69v-131q-93 0 -123 2q-6 1 -12 1l-12 2v-46q54 4 110 5h37v-267l-134 1q-12 1 -26 2l-14 2v-46q54 4 109 5h62q-16 -186 -119 -286q-37 -34 -76 -50q39 -15 59 -29q73 70 117 153q24 48 34 88q13 49 25 124
h165zM780 520v-267h-164v267h164z" />
  </g>

</svg>
