<?xml version="1.0" standalone="no"?>
<!DOCTYPE svg PUBLIC "-//W3C//DTD SVG 1.1//EN" "http://www.w3.org/Graphics/SVG/1.1/DTD/svg11.dtd" >
<svg xmlns="http://www.w3.org/2000/svg" xmlns:xlink="http://www.w3.org/1999/xlink" version="1.1" viewBox="-10 0 1034 1024">
  <g transform="matrix(1 0 0 -1 0 820)">
   <path fill="currentColor"
d="M336 239v-262q0 -25 -4 -33q-3 -4 -18 -9q-21 -3 -34 -3q-19 0 -45 4q6 -21 13 -49q54 6 83 11q19 6 29 15q13 13 14 55l1 712l4 37q-51 -4 -73 -5l-142 1q-6 1 -11 2q-10 0 -25 2q6 -48 6 -72l-1 -333l-3 -99q0 -15 -10 -120q-15 -69 -23 -97q-12 -36 -25 -60
q-15 -24 -40 -46l36 -14q9 -3 19 -8q40 81 60 163q18 82 23 208h166zM172 485v191h164v-191h-164zM171 275l1 175h164v-175h-165zM671 591l-215 1q-19 3 -25 4v-46q15 4 57 5h183v-165l-153 1q-15 3 -39 4q1 -27 5 -56l-1 -333q-1 -15 -4 -28h48q-4 18 -5 37l-1 339h150
v-440q0 -30 -3 -42q0 -3 -3 -15h50q-6 21 -6 57v440h164v-269q0 -21 -5 -31q-3 -6 -13 -9q-18 -6 -48 -6q-9 0 -37 5q12 -28 17 -50q13 3 28 4q45 9 60 14q24 12 30 30q6 16 6 38l1 275q0 15 4 40q-28 -1 -57 -5h-150v165q228 0 250 -3q1 0 11 -2v46q-4 0 -7 -1q-3 0 -6 -1
q-18 0 -45 -3h-203v104q0 9 2 25q1 19 11 37h-57q3 -9 6 -58v-108z" />
  </g>

</svg>
