<?xml version="1.0" standalone="no"?>
<!DOCTYPE svg PUBLIC "-//W3C//DTD SVG 1.1//EN" "http://www.w3.org/Graphics/SVG/1.1/DTD/svg11.dtd" >
<svg xmlns="http://www.w3.org/2000/svg" xmlns:xlink="http://www.w3.org/1999/xlink" version="1.1" viewBox="-10 0 1010 1000">
   <path fill="currentColor"
d="M587 -2q12 3 34 9q70 17 66 23q0 2 -7 8q-19 14 -27 32q-30 64 -54 127h213q93 0 134 -6q-45 90 -91 214q-31 -16 -83 -26q18 -30 50 -95q7 -15 11 -22h-260q-39 81 -79 137q-45 -26 -81 -32q104 -106 174 -369zM129 56q33 6 99 6h93q37 0 54 -1q20 -1 38 -3q-8 36 -8 85
v609q1 65 -32 90q-29 26 -119 33q-3 -44 -30 -87q77 12 99 -6q10 -7 10 -44v-192h-135q-24 217 -103 343q-29 -32 -79 -45q106 -121 117 -393v-320q0 -43 -4 -75zM333 121h-131v157h131v-157zM333 338h-131v149h131v-149zM399 834q120 -40 182 -221q45 -137 38 -303
q100 10 99 18q0 3 -4 7q-19 21 -18 86q36 317 254 397q-38 22 -81 69q-170 -108 -208 -311q-44 198 -199 323q-27 -41 -63 -65z" />
</svg>
