<?xml version="1.0" standalone="no"?>
<!DOCTYPE svg PUBLIC "-//W3C//DTD SVG 1.1//EN" "http://www.w3.org/Graphics/SVG/1.1/DTD/svg11.dtd" >
<svg xmlns="http://www.w3.org/2000/svg" xmlns:xlink="http://www.w3.org/1999/xlink" version="1.1" viewBox="-10 0 1034 1024">
  <g transform="matrix(1 0 0 -1 0 820)">
   <path fill="currentColor"
d="M161 403l58 6l608 -1q4 0 12 -2q13 0 30 -3q-4 24 -5 65l1 221q0 18 4 41q-28 -1 -57 -5l-611 1q-15 3 -40 4q1 -24 3 -28q3 -24 3 -29l-1 -221q-4 -24 -5 -49zM203 587v102h287v-102h-287zM203 445v106h287v-106h-287zM826 445h-298v106h298v-106zM528 587v102h298v-102
h-298zM223 -90l-3 -43q-1 -3 -2 -14h47q-4 22 -5 57v139h532v-94q0 -34 -18 -45q-15 -7 -53 -8q-42 0 -69 6q10 -22 17 -53q6 1 33 2q48 3 64 7q43 9 56 31q7 18 8 56l1 352l4 39q-27 -1 -56 -5l-523 1q-15 3 -38 4q1 -27 5 -54v-378zM260 85v90h532v-90h-532zM792 211h-532
v90h532v-90z" />
  </g>

</svg>
