<?xml version="1.0" standalone="no"?>
<!DOCTYPE svg PUBLIC "-//W3C//DTD SVG 1.1//EN" "http://www.w3.org/Graphics/SVG/1.1/DTD/svg11.dtd" >
<svg xmlns="http://www.w3.org/2000/svg" xmlns:xlink="http://www.w3.org/1999/xlink" version="1.1" viewBox="-10 0 1034 1024">
  <g transform="matrix(1 0 0 -1 0 820)">
   <path fill="currentColor"
d="M334 234v-266q0 -39 -30 -45q-18 -3 -39 -4q-24 0 -45 4q10 -30 14 -53q30 3 61 11q42 9 54 16q22 15 23 57l1 735q0 13 3 20q0 9 1 17q-51 -4 -65 -5q-138 0 -160 2q-6 3 -32 3l6 -52l-1 -388q0 -42 -10 -153q-12 -93 -37 -156q-16 -43 -52 -84q36 -9 49 -15q6 -1 10 -4
q36 87 54 166q16 81 23 194h172zM162 270l2 177h170v-177h-172zM164 483v202h170v-202h-170zM618 505q0 -60 -6 -134q-4 -72 -12 -129q-21 -153 -132 -275q-54 -54 -109 -78q22 -9 40 -21q6 -3 21 -13q69 66 120 133q84 114 103 276l10 117l6 124h133l-4 -106l-7 -196
l-9 -218q-3 -42 -11 -55q-7 -9 -41 -17q-25 -3 -53 -4q-21 0 -43 4q12 -21 17 -51q90 6 118 17q28 10 40 32q9 19 13 80l12 357q3 78 4 120q0 30 7 78q-30 -1 -59 -5h-116q3 183 6 189q3 19 19 37q-3 1 -44 7q-13 3 -25 6q3 -25 4 -35l2 -94l-1 -110q-144 0 -160 2
q-3 1 -17 3v-46q21 4 58 5h116zM393 168q28 -6 51 -19q12 24 21 46q21 45 63 153q9 18 28 32q-28 6 -60 22q-13 -66 -36 -121q-34 -78 -67 -113zM888 392q-7 -6 -18 -11q-7 -3 -26 -8q76 -124 100 -229q15 12 44 28q-18 43 -45 103z" />
  </g>

</svg>
