<?xml version="1.0" standalone="no"?>
<!DOCTYPE svg PUBLIC "-//W3C//DTD SVG 1.1//EN" "http://www.w3.org/Graphics/SVG/1.1/DTD/svg11.dtd" >
<svg xmlns="http://www.w3.org/2000/svg" xmlns:xlink="http://www.w3.org/1999/xlink" version="1.1" viewBox="-10 0 1010 1000">
   <path fill="currentColor"
d="M845 16q49 64 60 92q-1 2 -17 1q-37 -1 -73 1q-8 1 -34 2q-36 1 -51 3q-1 62 -1 82v43q0 27 3 104h38q105 0 163 -6v85q-54 -9 -165 -8h-30q22 255 113 337q23 -17 24 -105q36 53 85 66q-40 122 -59 135q-111 42 -201 -211q-23 -97 -37 -220h-123v288q49 -50 85 -103
l38 77q-117 109 -187 196l-53 -83q26 -32 32 -46q6 -11 5 -37v-512q-1 -94 -6 -143q77 11 197 0q131 -14 194 -38zM107 30q43 5 127 6h22q96 0 129 -4q-5 37 -6 129v589q4 66 -25 86q-30 27 -126 41q-4 -57 -36 -107q109 29 112 -24v-198h-121q-20 185 -78 355
q-31 -45 -81 -67q32 -39 57 -121q22 -64 28 -186q4 -62 4 -151q0 -88 -2 -221q0 -13 -2 -62q-1 -40 -2 -65zM185 104v154h119v-154h-119zM657 119q-11 0 -33 1q-43 1 -84 1v225h119q-3 -51 -2 -210v-17zM185 326v155h119v-155h-119zM692 738q26 58 36 135l-85 14
q-5 -67 -32 -133z" />
</svg>
