<?xml version="1.0" standalone="no"?>
<!DOCTYPE svg PUBLIC "-//W3C//DTD SVG 1.1//EN" "http://www.w3.org/Graphics/SVG/1.1/DTD/svg11.dtd" >
<svg xmlns="http://www.w3.org/2000/svg" xmlns:xlink="http://www.w3.org/1999/xlink" version="1.1" viewBox="-10 0 1010 1000">
   <path fill="currentColor"
d="M399 52q0 2 -1 9q-5 33 -5 74v637q2 45 -26 60q-24 18 -117 33q1 -28 -36 -99q112 21 107 -35v-181h-148q-12 187 -72 333q-29 -36 -69 -57q51 -58 68 -238q8 -87 8 -210q1 -102 -5 -328q32 8 87 8h110q49 0 86 -5q9 -1 13 -1zM321 125h-146v145h146v-145zM321 338h-146
l-2 145h148v-145zM778 330q85 95 164 228l-81 52q-66 -147 -149 -241zM397 556q171 -127 268 -425h-94q-93 1 -138 8v-79q41 7 140 8h205q121 -1 160 -8v79q-43 -7 -152 -8h-40q-33 79 -48 123v518h60q109 -1 165 -10v82q-22 -4 -82 -7q-53 -2 -81 -1h-151q-81 -1 -180 8
v-82q57 9 168 10h26v-385q-51 92 -153 226q-33 -38 -73 -57z" />
</svg>
