<?xml version="1.0" standalone="no"?>
<!DOCTYPE svg PUBLIC "-//W3C//DTD SVG 1.1//EN" "http://www.w3.org/Graphics/SVG/1.1/DTD/svg11.dtd" >
<svg xmlns="http://www.w3.org/2000/svg" xmlns:xlink="http://www.w3.org/1999/xlink" version="1.1" viewBox="-10 0 1010 1000">
   <path fill="currentColor"
d="M641 -10q83 18 97 32q0 2 -8 7q-14 7 -16 15q54 204 252 264q-37 27 -59 75q-175 -90 -236 -285q-44 123 -197 297q-32 -44 -65 -63q145 -90 232 -342zM333 123h-125v139h125v-139zM677 290q88 48 83 54q-1 3 -7 4q-24 6 -47 29q-107 108 -204 173q-25 -38 -69 -58
q173 -81 244 -202zM208 330v145h125v-145h-125zM740 423q68 35 81 58q-1 2 -7 5q-22 6 -44 26q-145 140 -219 184q-20 13 -31 21q-24 -41 -74 -66q173 -52 294 -228zM825 544q79 57 78 69q-1 3 -9 5q-28 7 -51 33q-92 123 -335 254q-26 -45 -73 -67q248 -81 390 -294z
M401 752q1 53 -3 66q-3 19 -16 30q-17 21 -132 39q4 -52 -32 -103q73 20 103 4q11 -8 12 -48v-202h-127q-17 200 -97 335q-33 -31 -83 -39q116 -139 117 -435q0 -155 -2 -258q0 -52 -4 -85q13 2 39 3q12 1 30 1h48h34q84 0 119 -6q-6 39 -6 111v587z" />
</svg>
