<?xml version="1.0" standalone="no"?>
<!DOCTYPE svg PUBLIC "-//W3C//DTD SVG 1.1//EN" "http://www.w3.org/Graphics/SVG/1.1/DTD/svg11.dtd" >
<svg xmlns="http://www.w3.org/2000/svg" xmlns:xlink="http://www.w3.org/1999/xlink" version="1.1" viewBox="-10 0 1034 1024">
  <g transform="matrix(1 0 0 -1 0 820)">
   <path fill="currentColor"
d="M370 209v-247q0 -27 -6 -40q-6 -10 -29 -14q-21 -3 -32 -3q-19 0 -44 6q10 -30 15 -50q51 3 73 8q60 12 60 88l1 720q1 21 5 43q-55 -4 -85 -5l-145 1q-3 1 -38 4l5 -56l-1 -401q-4 -108 -16 -182q-18 -87 -49 -144q-18 -27 -48 -51q27 -9 58 -26q42 72 62 149
q19 79 29 200h185zM187 244l1 196h182v-196h-183zM188 476v203h182v-203h-182zM683 183l-220 1q-9 1 -16 2q-3 0 -12 2v-46q21 3 42 5h206l-3 -293q-1 -3 -2 -14h48q-4 21 -5 57v250l231 -1l25 -4v46q-9 0 -11 -2q-22 0 -45 -3h-200v177l207 -1q1 0 26 -4v47q-4 0 -7 -2
q-3 0 -4 -1l-141 -3h-81v304q0 9 2 24q1 19 11 37h-56q4 -66 5 -101v-264l-188 1q-25 4 -28 5v-47q19 4 57 5h159v-177zM458 637q67 -72 114 -181q19 19 36 29l-48 82q-39 58 -62 98q-12 -12 -20 -16q-6 -3 -20 -12zM764 469q15 -9 17 -11q3 -1 19 -18q51 76 79 122
q30 45 41 58q9 9 35 14q-19 12 -33 23q-7 6 -23 21q-40 -105 -135 -209v0z" />
  </g>

</svg>
