<?xml version="1.0" standalone="no"?>
<!DOCTYPE svg PUBLIC "-//W3C//DTD SVG 1.1//EN" "http://www.w3.org/Graphics/SVG/1.1/DTD/svg11.dtd" >
<svg xmlns="http://www.w3.org/2000/svg" xmlns:xlink="http://www.w3.org/1999/xlink" version="1.1" viewBox="-10 0 1034 1024">
  <g transform="matrix(1 0 0 -1 0 820)">
   <path fill="currentColor"
d="M55 -137q10 -4 23 -9q7 -3 16 -7q25 39 42 68q15 28 22 48q28 66 41 152q9 66 10 180q0 333 3 358q0 15 5 31q3 10 8 21l-59 6q3 -67 4 -130v-299q0 -126 -15 -196q-15 -81 -54 -148q-22 -37 -62 -70q7 -1 16 -5zM500 525q-33 -27 -70 -55q-36 -27 -75 -52
q-24 -15 -68 -26q9 -25 16 -53q48 13 182 20q43 1 162 11q9 -12 17 -23q7 -12 20 -29q15 16 33 33q-70 90 -112 123q-15 -13 -33 -25q9 -7 46 -44q1 -1 6 -7l-245 -9l96 70q78 60 125 99q18 12 30 22q15 10 41 18q-16 15 -34 29l-15 15q-19 -24 -37 -42t-52 -48l-171 4
l29 27q9 10 96 92q34 33 66 49q-3 0 -32 21q-4 4 -20 15q-40 -54 -85 -101q-82 -85 -134 -98q0 -1 2 -5q1 -6 6 -28q0 -3 3 -15q27 3 51 5q27 0 72 3q42 3 84 4zM309 295q1 -28 5 -59l-1 -339q-1 -15 -4 -33h47q-4 27 -5 59v106h267v-75q0 -28 -17 -35q-15 -4 -40 -5
q-10 0 -41 7q10 -18 16 -30q3 -12 8 -24q72 6 94 20q18 12 18 51l1 316q1 21 5 41q-30 -1 -60 -5l-253 1q-15 3 -40 4zM351 65v71h267v-71h-267zM618 172h-267v82h267v-82zM755 717q1 -18 2 -16l3 -98l1 -671q0 -10 4 -23q4 -16 26 -26q27 -9 65 -10q15 0 31 2q34 6 54 24
q19 18 37 93l-48 33q0 -58 -8 -81q-7 -21 -30 -27q-9 -1 -37 -4q-33 1 -41 4q-15 6 -16 37v695q0 21 13 68h-56z" />
  </g>

</svg>
