<?xml version="1.0" standalone="no"?>
<!DOCTYPE svg PUBLIC "-//W3C//DTD SVG 1.1//EN" "http://www.w3.org/Graphics/SVG/1.1/DTD/svg11.dtd" >
<svg xmlns="http://www.w3.org/2000/svg" xmlns:xlink="http://www.w3.org/1999/xlink" version="1.1" viewBox="-10 0 1010 1000">
   <path fill="currentColor"
d="M544 -15q106 32 105 37q0 2 -5 6q-34 34 -79 117h245q68 0 109 -12q-9 45 -15 227q-7 197 -17 263q-2 56 -127 64q-2 -48 -20 -83q81 10 75 -42q10 -173 16 -349h-299q-70 105 -99 135l-44 -58q119 -124 155 -305zM187 115v151h123v-151h-123zM187 326v149h123v-149h-123
zM544 369v159h115v-159h-115zM381 806q6 55 -147 69q-5 -43 -42 -97q117 21 118 -28v-216h-123q-27 209 -94 353q-29 -35 -73 -59q94 -159 95 -427v-250q0 -79 -6 -103q22 4 89 4h100q62 -1 89 -4q-7 24 -6 86v13v659zM472 306h91h92q52 -3 79 -6q-2 8 -3 27q-1 16 -1 60
v119v53q1 21 2 37q-5 -3 -19 -3q-11 -1 -50 -1h-119v154q-4 53 61 50h181q47 1 62 -19q17 -16 29 -82q34 31 85 49q-34 87 -62 107q-25 23 -96 20h-225q-109 2 -107 -87v-389v-89z" />
</svg>
