<?xml version="1.0" standalone="no"?>
<!DOCTYPE svg PUBLIC "-//W3C//DTD SVG 1.1//EN" "http://www.w3.org/Graphics/SVG/1.1/DTD/svg11.dtd" >
<svg xmlns="http://www.w3.org/2000/svg" xmlns:xlink="http://www.w3.org/1999/xlink" version="1.1" viewBox="-10 0 1034 1024">
  <g transform="matrix(1 0 0 -1 0 820)">
   <path fill="currentColor"
d="M273 631q13 21 24 40l16 24q12 13 34 25q-27 10 -58 31q-18 -52 -43 -97q-6 -12 -14 -23q-114 0 -142 2q-4 1 -7 1l-13 2v-47l52 6h89q-57 -84 -78 -110q4 -1 10 -3q85 -27 148 -52q-51 -39 -132 -70q-27 -9 -50 -14q-27 -3 -60 -2q15 -21 24 -46q54 9 117 35
q90 39 142 81q72 -27 105 -54q4 12 8 22l14 20q-36 12 -97 38q28 30 72 109l19 38q7 19 18 49q-18 -1 -31 -2q-21 -3 -28 -3h-139zM253 595h161q-33 -84 -91 -139q-87 30 -132 48q16 22 46 69q7 12 16 22zM258 273q-21 0 -64 6q1 -33 5 -66l-3 -363q0 -3 -2 -7h48q-1 3 -1 5
q0 1 -4 53v336h225q-7 -18 -26 -41q-19 -21 -51 -42q-48 -25 -104 -26q21 -22 31 -45q70 27 103 49q45 31 72 74q111 -63 146 -87q21 -12 50 -39q4 9 9 16q6 7 18 20l-61 38l-146 83h273v-320q0 -21 -17 -30q-18 -6 -44 -6q-28 0 -65 7q6 -24 9 -49q13 1 27 1q31 0 51 3
q15 0 25 4q33 9 45 29q6 18 7 46v292q0 9 2 28l4 37q-60 -6 -64 -6h-249q3 39 26 65q-12 1 -58 13q0 -18 -5 -78h-212zM288 -43q21 -24 30 -45q46 21 75 37q54 36 86 86q39 -21 78 -48l68 -45q22 -18 32 -28q6 16 23 40l-83 52l-100 58q13 39 37 54q-30 12 -57 27
q-3 -33 -15 -65q-27 -57 -77 -91q-52 -31 -85 -32h-12zM877 689l-52 -4l-287 1q-9 1 -17 2q-3 0 -12 2v-46q15 3 29 4q21 1 36 2h250q-18 -45 -42 -84q-42 -60 -93 -100q-18 16 -28 30q-12 16 -31 46q-18 28 -23 68q-24 -13 -50 -21q43 -81 102 -147q-27 -18 -71 -39
q-39 -15 -73 -18q18 -21 30 -43q30 12 75 36q43 22 68 39q67 -43 115 -69q45 -21 112 -43q15 27 31 47q-49 0 -106 22q-66 25 -120 66q87 84 145 204l21 46q-4 0 -9 -1v0z" />
  </g>

</svg>
