<?xml version="1.0" standalone="no"?>
<!DOCTYPE svg PUBLIC "-//W3C//DTD SVG 1.1//EN" "http://www.w3.org/Graphics/SVG/1.1/DTD/svg11.dtd" >
<svg xmlns="http://www.w3.org/2000/svg" xmlns:xlink="http://www.w3.org/1999/xlink" version="1.1" viewBox="-10 0 1010 1000">
   <path fill="currentColor"
d="M911 32q-6 35 -8 157v534q0 70 2 102q1 36 6 54h-96q8 -33 8 -99h-303q0 47 10 103h-101q8 -38 9 -141v-563q0 -103 -5 -147q41 5 127 6h210q84 -1 141 -6zM103 36q31 7 99 6h58q67 0 115 -6q-8 57 -8 105v611q4 61 -24 80q-30 26 -117 37q-3 -52 -28 -101q98 23 94 -30
v-196h-111q-14 190 -72 341q-44 -34 -85 -41q74 -110 79 -304q4 -107 0 -460v-42zM181 110v150h111v-150h-111zM823 110h-305v500q102 -76 113 -260q-68 -2 -93 8v-78q20 7 73 6h18v-19q3 -95 -4 -120q90 1 97 10q0 1 -2 5q-13 21 -16 51q-1 8 -2 25q-2 25 -4 48h13
q58 3 85 -6v78q-27 -8 -102 -8q-5 31 -7 63q80 110 136 191v-494zM292 328h-111v147h111v-147zM669 494q-32 91 -84 169q-47 -34 -67 -32v78h305v-97l-77 33q-21 -57 -62 -125q-11 -18 -15 -26z" />
</svg>
