<?xml version="1.0" standalone="no"?>
<!DOCTYPE svg PUBLIC "-//W3C//DTD SVG 1.1//EN" "http://www.w3.org/Graphics/SVG/1.1/DTD/svg11.dtd" >
<svg xmlns="http://www.w3.org/2000/svg" xmlns:xlink="http://www.w3.org/1999/xlink" version="1.1" viewBox="-10 0 1010 1000">
   <path fill="currentColor"
d="M109 46q13 4 33 5q17 1 58 1h129q62 0 86 -6q-7 59 -6 101v645q2 42 -27 55q-25 15 -124 26q-5 -49 -46 -103q125 20 125 -22v-204h-149q-7 151 -83 339q-50 -38 -79 -51q88 -142 89 -359v-324q0 -55 -6 -103zM889 50q-8 10 -31 44q-65 97 -122 166q158 92 224 133
q-39 20 -77 60q-78 -83 -195 -147q-79 79 -180 141q-28 -40 -71 -62q184 -71 311 -258h-161q-81 -1 -111 6v-83q33 6 113 6h197q76 0 103 -6zM187 119v147h150v-147h-150zM337 326h-150v159h150v-159zM466 500q30 6 101 6h231q75 0 99 -6v78q-33 -8 -93 -8h-84v196h103
q68 -2 102 -8v82q-26 -6 -98 -6h-275q-93 0 -119 6v-82q26 5 119 8h93v-196h-78q-71 0 -101 6v-76z" />
</svg>
