<?xml version="1.0" standalone="no"?>
<!DOCTYPE svg PUBLIC "-//W3C//DTD SVG 1.1//EN" "http://www.w3.org/Graphics/SVG/1.1/DTD/svg11.dtd" >
<svg xmlns="http://www.w3.org/2000/svg" xmlns:xlink="http://www.w3.org/1999/xlink" version="1.1" viewBox="-10 0 1010 1000">
   <path fill="currentColor"
d="M605 2q101 -3 107 8q1 3 -4 10q-13 22 -14 56v289h102q104 -1 148 -7v77q-28 -3 -78 -5q-47 -2 -74 -1h-26v311q-8 55 30 50q37 3 57 -10q17 -8 36 -95q38 43 77 50q-18 110 -65 123q-28 5 -93 8q-49 1 -70 -4q-35 -7 -41 -21q-9 -14 -7 -57v-355h-79q2 115 -4 169
q-6 63 -22 111q-33 98 -129 174q-25 -26 -71 -59q93 -55 122 -133q27 -55 33 -262h-18q-74 0 -119 6v-77q37 6 131 7h81v-277q0 -45 -10 -86zM379 50q-8 24 -8 73v709q9 53 -127 63q-2 -39 -50 -97q106 21 106 -24v-214h-129q5 200 -84 361q-26 -52 -61 -81q70 -92 71 -203
q3 -144 2 -318q-1 -165 -6 -269q34 7 76 8h139q41 -1 71 -8zM817 76q57 23 102 49q-12 -19 -109 187q-26 -14 -76 -20q59 -93 83 -216zM496 96q25 44 69 186l-83 16q-17 -94 -69 -186zM171 121v153h129v-153h-129zM300 338h-129v158h129v-158z" />
</svg>
