<?xml version="1.0" standalone="no"?>
<!DOCTYPE svg PUBLIC "-//W3C//DTD SVG 1.1//EN" "http://www.w3.org/Graphics/SVG/1.1/DTD/svg11.dtd" >
<svg xmlns="http://www.w3.org/2000/svg" xmlns:xlink="http://www.w3.org/1999/xlink" version="1.1" viewBox="-10 0 1034 1024">
  <g transform="matrix(1 0 0 -1 0 820)">
   <path fill="currentColor"
d="M90 -127l24 -6q15 39 37 120q12 45 21 94q6 51 14 126h178v-243q0 -27 -4 -36q-4 -10 -23 -16q-18 -3 -34 -4q-24 0 -45 4q10 -21 20 -49l54 8q42 9 54 21q15 15 16 68l1 700l4 40q-15 -1 -29 -2q-25 -3 -39 -4l-151 1q-33 4 -41 5q1 -18 2 -29q3 -18 3 -66
q0 -288 -3 -369q-3 -67 -12 -130q-18 -115 -50 -179q-15 -28 -35 -47q19 -1 38 -7zM188 242l2 186h174v-186h-176zM190 464v195h174v-195h-174zM892 214v-8q0 -42 -5 -60h48q-3 7 -4 32l-1 243q1 27 5 54q-27 -1 -56 -5h-165v140l219 -1l32 -4v47l-62 -6h-189q0 79 3 85
q1 13 11 29h-57q0 -6 3 -13l2 -162v-115q-102 0 -123 2q-6 3 -34 3q1 -28 5 -58q0 -192 -2 -235q-4 -58 -15 -112q-19 -81 -62 -155q-19 -28 -44 -53q30 -10 46 -20q45 63 76 150q30 87 39 222h330zM562 249v185h330v-185h-330z" />
  </g>

</svg>
