<?xml version="1.0" standalone="no"?>
<!DOCTYPE svg PUBLIC "-//W3C//DTD SVG 1.1//EN" "http://www.w3.org/Graphics/SVG/1.1/DTD/svg11.dtd" >
<svg xmlns="http://www.w3.org/2000/svg" xmlns:xlink="http://www.w3.org/1999/xlink" version="1.1" viewBox="-10 0 1034 1024">
  <g transform="matrix(1 0 0 -1 0 820)">
   <path fill="currentColor"
d="M346 209v-269q0 -21 -7 -28q-4 -3 -18 -6l-47 1l-22 4q12 -27 17 -51q42 3 71 7q43 7 44 62l1 739l4 38q-27 -1 -55 -5q-126 0 -149 2q-6 3 -31 3q1 -27 5 -55l-1 -374q-1 -19 -2 -42l-6 -109q-10 -120 -56 -201q-13 -27 -42 -53q33 -12 48 -21q40 67 58 124
q16 57 24 102q6 42 12 132h152zM195 244l3 182h148v-182h-151zM198 462v203h148v-203h-148zM400 -51q24 -10 45 -27q48 58 122 176q21 30 28 44q6 7 24 15q-24 13 -52 34q-27 -69 -81 -148q-39 -58 -86 -94zM487 597q-25 1 -51 3q-3 1 -8 3v-47q42 6 65 5h88l-42 -105
q-15 -37 -38 -83q-21 -42 -32 -55q-12 -12 -29 -16q24 -45 25 -48q36 7 70 8h153v-317q0 -37 -27 -45q-15 -3 -48 -4q-9 0 -44 5q13 -30 19 -51q34 0 58 4q48 4 66 24q13 15 14 60v324l173 -1q9 0 42 -4v47q-21 -1 -44 -5l-171 -1q0 111 3 117q1 15 12 28h-58q1 -6 3 -13
q1 -18 2 -47v-85h-185l35 68q9 18 15 33l48 110q3 9 7 17q7 18 16 35l310 -1q3 0 36 -4v47q-21 -1 -44 -5l-288 -1l12 34q24 72 32 86q6 13 30 28q-9 3 -21 6q-10 3 -47 17q-10 -51 -21 -87q-9 -36 -28 -84h-108zM782 150l39 -41l68 -80q52 -63 64 -95q12 15 35 34l-40 54
l-61 71l-75 85q-6 -9 -20 -20q-6 -3 -10 -8v0z" />
  </g>

</svg>
