<?xml version="1.0" standalone="no"?>
<!DOCTYPE svg PUBLIC "-//W3C//DTD SVG 1.1//EN" "http://www.w3.org/Graphics/SVG/1.1/DTD/svg11.dtd" >
<svg xmlns="http://www.w3.org/2000/svg" xmlns:xlink="http://www.w3.org/1999/xlink" version="1.1" viewBox="-10 0 1010 1000">
   <path fill="currentColor"
d="M589 -10q13 1 37 2q67 3 64 10q1 2 -4 11q-19 38 -19 89h158q51 0 104 -10v77q-42 -9 -102 -8h-160v72h109q70 0 93 -6q-3 18 -3 99q0 82 3 105q-31 -6 -97 -6h-105q0 7 -3 34q-3 25 -5 41h160h13q56 1 75 -6q-4 26 -10 112q1 63 -25 83q-22 21 -108 28q-1 -46 -24 -82
q68 9 77 -3q13 -7 10 -72h-164q46 211 291 258q-62 46 -81 83q-189 -96 -248 -262q-46 129 -198 268q-40 -37 -92 -51q193 -98 244 -296h-91q-62 -1 -89 6q20 -107 18 -206q29 5 93 5h85v-73h-79h-14q-73 -1 -101 4v-69q27 6 111 6h83v-72h-85q-69 -1 -123 8v-77
q60 10 123 10h85q0 -58 -1 -77q-1 -24 -5 -35zM353 42q-7 47 -6 91v653q5 63 -137 81q-9 -55 -39 -95q110 23 105 -32v-196h-107q-3 200 -78 357q-16 -39 -67 -69q71 -94 75 -340v-357q0 -42 -8 -93q25 6 88 6h87q64 0 87 -6zM276 112h-105v156h105v-156zM796 292h-129v73
h129v-73zM276 328h-105v157h105v-157zM595 425h-115l-4 75h113q6 -54 6 -75z" />
</svg>
