<?xml version="1.0" standalone="no"?>
<!DOCTYPE svg PUBLIC "-//W3C//DTD SVG 1.1//EN" "http://www.w3.org/Graphics/SVG/1.1/DTD/svg11.dtd" >
<svg xmlns="http://www.w3.org/2000/svg" xmlns:xlink="http://www.w3.org/1999/xlink" version="1.1" viewBox="-10 0 1010 1000">
   <path fill="currentColor"
d="M675 -8q27 54 49 121l-51 24h139q61 -2 105 -12q-4 39 -4 98q-1 64 6 97h-86q6 -18 6 -115h-329q0 82 6 123h-89q9 -24 8 -105q0 -55 -4 -98q41 12 107 12h105q-24 -74 -48 -119zM371 165v629q10 56 -147 79q-7 -64 -32 -103q117 16 106 -18v-200h-113q-22 213 -80 349
q-37 -36 -83 -49q84 -109 89 -407v-294q0 -89 -4 -107q46 9 125 8q137 0 149 -6q-9 65 -10 119zM185 123v159h113v-159h-113zM185 346v144h113v-144h-113zM633 477q-5 9 -14 28q-34 70 -48 97q56 21 112 49q46 -72 69 -174h-119zM373 808q181 -28 266 -101q-67 -35 -163 -78
q53 -96 74 -152h-34q-71 1 -117 10v-88q30 9 113 10h65q33 -92 46 -167q77 11 103 30q0 3 -7 12q-33 44 -60 125h176q68 0 109 -10v88q-36 -10 -117 -10q-30 128 -79 208q51 26 184 107q14 8 20 12l-73 71q-91 -80 -175 -131q-99 102 -267 145q-28 -50 -64 -81z" />
</svg>
