<?xml version="1.0" standalone="no"?>
<!DOCTYPE svg PUBLIC "-//W3C//DTD SVG 1.1//EN" "http://www.w3.org/Graphics/SVG/1.1/DTD/svg11.dtd" >
<svg xmlns="http://www.w3.org/2000/svg" xmlns:xlink="http://www.w3.org/1999/xlink" version="1.1" viewBox="-10 0 1010 1000">
   <path fill="currentColor"
d="M692 6q25 51 42 135l-95 18q-4 -55 -44 -137zM109 52q31 9 117 8h18h16q80 1 125 -8q-6 30 -8 56q-2 22 -2 61v476q150 -52 290 -190q-125 17 -201 35q-6 -44 -24 -72q-4 -8 -7 -13q70 -15 166 -168q-123 0 -168 7v-85q45 6 123 6h271q87 0 123 -8v87q-43 -7 -123 -7
h-174q25 8 36 15q12 8 -14 26q-9 6 -14 10q-17 13 -66 65q-39 42 -55 56l170 -12q40 -48 76 -113l15 9q72 41 66 53q-2 8 -18 14q-11 3 -14 7q-222 257 -406 358q-15 -38 -48 -61q-3 -2 -4 -3v129q12 79 -147 89q-2 -64 -26 -99q98 29 94 -22v-192h-102q-10 145 -79 313
q-39 -16 -95 -27q101 -119 99 -413v-258q-1 -25 -7 -87q-2 -27 -3 -42zM296 127h-98v155h98v-155zM198 350l-2 148h100v-148h-98zM810 461q7 4 19 11q74 43 68 48q0 8 -14 14q-22 11 -36 28q-50 65 -93 107q110 97 175 179l-82 59q-67 -117 -147 -186q-113 101 -230 170
q-19 -35 -71 -77q124 -42 228 -127q121 -103 183 -226z" />
</svg>
