<?xml version="1.0" standalone="no"?>
<!DOCTYPE svg PUBLIC "-//W3C//DTD SVG 1.1//EN" "http://www.w3.org/Graphics/SVG/1.1/DTD/svg11.dtd" >
<svg xmlns="http://www.w3.org/2000/svg" xmlns:xlink="http://www.w3.org/1999/xlink" version="1.1" viewBox="-10 0 1034 1024">
  <g transform="matrix(1 0 0 -1 0 820)">
   <path fill="currentColor"
d="M264 497l-112 -8l92 137l12 16q34 54 48 67q12 12 39 20q-36 22 -56 41q-33 -67 -108 -175q-48 -66 -67 -86q-18 -16 -44 -25q13 -21 22 -49q24 3 53 9q34 3 77 10l247 22q16 -24 25 -36q6 -10 11 -23q13 15 38 31q-76 105 -95 126l-62 72q-22 -16 -41 -27
q48 -37 103 -109zM146 361l4 -38l-1 -431l-4 -37h47q-4 22 -5 57v160h234v-134q0 -40 -23 -45q-13 -3 -34 -4q-27 0 -55 6q12 -28 16 -48q45 0 76 5q57 9 58 76l1 413l4 40q-49 -4 -52 -5l-230 1q-12 3 -37 4q0 -9 1 -20zM187 238v102h234v-102h-234zM187 108v94h234v-94
h-234zM609 249q0 9 2 24q1 16 12 37h-58q3 -18 6 -48q-1 -4 0 -13l1 -302q3 -36 26 -52q18 -13 75 -20q45 -3 82 -4q25 0 52 2q45 3 73 17q24 12 41 40q9 16 32 83q-24 7 -57 23q-3 -60 -9 -79q-13 -37 -70 -43q-51 -3 -80 -4q-45 4 -73 5q-54 9 -55 66v105l100 44
q135 63 144 65q15 4 44 5q-21 24 -41 54q-25 -19 -48 -34q-18 -12 -56 -32q-36 -18 -67 -32q-30 -13 -76 -30v123zM565 746q3 -16 6 -48q-1 -6 0 -14l1 -239q1 -16 8 -33q7 -25 42 -38q21 -6 49 -8q28 -1 42 -3q72 3 89 6q1 1 4 1q60 7 82 56q7 19 26 75q-21 6 -51 24
q-3 -66 -16 -91q-12 -22 -48 -29q-15 0 -74 -5q-27 0 -77 7q-13 3 -19 6q-19 12 -20 57v71q18 7 197 97q39 18 73 23q-34 45 -36 49q-18 -15 -42 -31q-18 -12 -49 -29q-72 -39 -143 -72q0 133 3 137q1 13 11 31h-58z" />
  </g>

</svg>
