<?xml version="1.0" standalone="no"?>
<!DOCTYPE svg PUBLIC "-//W3C//DTD SVG 1.1//EN" "http://www.w3.org/Graphics/SVG/1.1/DTD/svg11.dtd" >
<svg xmlns="http://www.w3.org/2000/svg" xmlns:xlink="http://www.w3.org/1999/xlink" version="1.1" viewBox="-10 0 1010 1000">
   <path fill="currentColor"
d="M764 -4q65 13 101 36q0 2 -8 9q-21 17 -32 37q-41 76 -57 111q90 3 165 -10v85q-27 -7 -119 -6h-16v191q112 -1 150 -12v91q-46 -8 -150 -10v228q0 74 2 103q1 35 6 50h-94q10 -55 10 -155v-226h-119q-2 232 -147 391q-22 -25 -99 -51q164 -87 169 -340q-89 -3 -131 4
v-83q39 7 133 8l4 -189q-90 2 -115 8v-85q36 10 123 10h158q46 -105 66 -195zM556 0q43 61 89 145l-82 32q-27 -79 -81 -143zM385 42q-8 69 -8 139v589q15 92 -151 103q2 -39 -32 -99q118 14 104 -30v-192h-117q-17 218 -82 331q-11 -7 -29 -17q-41 -28 -60 -28
q64 -66 89 -221q10 -64 13 -225q2 -171 -5 -352q63 6 131 6h22q88 0 125 -4zM298 113h-115v155h115v-155zM607 256q5 -8 0 104q-3 56 -4 89h119v-193h-115zM183 334v151h115v-151h-115z" />
</svg>
