<?xml version="1.0" standalone="no"?>
<!DOCTYPE svg PUBLIC "-//W3C//DTD SVG 1.1//EN" "http://www.w3.org/Graphics/SVG/1.1/DTD/svg11.dtd" >
<svg xmlns="http://www.w3.org/2000/svg" xmlns:xlink="http://www.w3.org/1999/xlink" version="1.1" viewBox="-10 0 1034 1024">
  <g transform="matrix(1 0 0 -1 0 820)">
   <path fill="currentColor"
d="M256 -97q-1 -21 -3 -42q-1 -3 -2 -14h46q-3 24 -4 56v136h446v-100q0 -39 -37 -43q-10 0 -38 -3q-24 0 -49 6q15 -37 16 -48q25 0 60 4q48 4 66 16t19 59l1 355l6 39l67 -25l90 -27q13 30 36 54q-60 1 -133 21q-129 37 -231 144q-54 58 -87 131l12 82q3 22 25 40
q-16 1 -65 11q-3 1 -5 2q3 -27 4 -32q0 -13 -3 -43q-9 -52 -17 -81q-30 -96 -112 -166q-75 -63 -175 -97q-60 -19 -126 -24q12 -18 20 -29l10 -22q33 9 64 21l94 34q1 -24 5 -51v-364zM282 335q100 63 142 105q42 43 85 129q55 -84 104 -131q72 -64 146 -103q-25 -1 -52 -5
l-390 1q-15 3 -35 4zM293 74v88h446v-88h-446zM293 197v99h446v-99h-446zM381 564q-54 -22 -133 -41q-82 -19 -131 -23q16 -30 22 -50q21 7 39 15q22 6 60 18q73 22 136 32q3 25 7 49zM388 640q3 6 6 14q-21 6 -42 14q-75 24 -173 53q-7 -27 -15 -44q123 -18 213 -67
q3 15 11 30zM743 640q30 10 60 24q37 15 75 16l-20 24q-7 9 -18 27q-81 -52 -203 -87q7 -13 11 -22q3 -7 5 -18q18 6 30 13q30 12 60 23zM693 551q-16 3 -33 9q-15 -36 -18 -42q-1 0 -1 -1l131 -29q52 -15 107 -39q6 30 15 47l-79 23z" />
  </g>

</svg>
