<?xml version="1.0" standalone="no"?>
<!DOCTYPE svg PUBLIC "-//W3C//DTD SVG 1.1//EN" "http://www.w3.org/Graphics/SVG/1.1/DTD/svg11.dtd" >
<svg xmlns="http://www.w3.org/2000/svg" xmlns:xlink="http://www.w3.org/1999/xlink" version="1.1" viewBox="-10 0 1034 1024">
  <g transform="matrix(1 0 0 -1 0 820)">
   <path fill="currentColor"
d="M345 183v-230q0 -27 -5 -37q-3 -4 -16 -9q-21 -6 -42 -6q-7 0 -20 1q-15 0 -29 4q12 -31 17 -50q52 3 90 11q42 9 43 67l1 721l4 38q-27 -1 -54 -5q-142 0 -160 2q-3 1 -5 1q-12 0 -27 2q1 -27 5 -54v-304q0 -114 -8 -203q-10 -117 -46 -185q-24 -42 -60 -71
q28 -7 59 -22q39 66 63 144q10 39 17 77q6 42 10 108h163zM185 446v206h160v-206h-160zM184 219l1 193h160v-193h-161zM428 528q24 6 57 6l470 -1q3 0 33 -5v47q-6 0 -8 -2q-3 0 -6 -1q-36 0 -74 -3l-444 1q-25 4 -28 5v-47zM476 -94l40 5l72 5l311 18q-3 -36 -5 -75h49
q-6 22 -6 63v410q0 3 2 22q0 12 12 35h-57q1 -27 5 -57v-364l-381 -22v327q0 7 2 23q1 18 11 35h-55q1 -28 5 -58l-1 -323q-3 -12 -4 -44zM602 47q27 36 44 61q15 22 41 62l38 54q30 -34 60 -76l53 -80l5 5q1 0 3 3q10 9 23 19q-3 4 -11 14l-20 29l-94 119q36 75 66 147
q12 30 19 38q6 7 22 17q-19 4 -39 13q-9 4 -19 8q-15 -79 -73 -194q-3 4 -35 41q-82 99 -87 104l-34 36q-6 -6 -10 -12q-9 -12 -19 -20q75 -61 165 -182q-37 -63 -71 -108q-40 -48 -80 -75zM603 724q88 -58 136 -125q12 18 31 37q-27 30 -61 58q-37 33 -76 64
q-21 -27 -30 -34v0z" />
  </g>

</svg>
