<?xml version="1.0" standalone="no"?>
<!DOCTYPE svg PUBLIC "-//W3C//DTD SVG 1.1//EN" "http://www.w3.org/Graphics/SVG/1.1/DTD/svg11.dtd" >
<svg xmlns="http://www.w3.org/2000/svg" xmlns:xlink="http://www.w3.org/1999/xlink" version="1.1" viewBox="-10 0 1034 1024">
  <g transform="matrix(1 0 0 -1 0 820)">
   <path fill="currentColor"
d="M98 -133q66 126 81 350h150v-265q0 -24 -9 -33q-7 -7 -39 -8q-16 0 -49 4q15 -30 20 -50q48 6 74 14q21 7 29 16q10 10 11 58v687q0 9 4 27q0 9 2 25q-24 -1 -48 -5l-150 1q-12 3 -35 4q1 -25 5 -52l-1 -353l-11 -168q-12 -100 -45 -174q-16 -31 -46 -53q9 -4 21 -8
q1 0 36 -17zM329 464h-147v187h147v-187zM181 253l1 175h147v-175h-148zM540 -50q0 -42 -24 -61q19 -21 36 -43q18 21 72 71q9 9 52 44l51 38q-4 19 -6 37q0 7 -2 19q-18 -19 -34 -35q-18 -18 -56 -50q-10 -10 -51 -41v411l56 121q19 45 41 100h216v-97q0 -33 -3 -45
q0 1 -2 -14h48q-4 49 -5 98l5 99q-25 -1 -52 -5h-200q21 78 28 106q6 31 34 50q-45 6 -71 14q0 -60 -34 -170l-166 1q-6 1 -36 4q1 -27 5 -55q0 -102 -2 -124q-3 -3 -3 -18h47q-4 24 -5 59v97h149q-16 -58 -59 -149q-40 -87 -114 -175q-39 -43 -83 -72q19 -9 50 -30
q36 39 61 72l57 72v-329zM664 419q15 -105 34 -172q33 -121 97 -211q61 -87 139 -156l36 25q10 7 22 15q-42 15 -63 30q-24 16 -58 54q-69 78 -103 166q61 58 128 108q18 15 49 16l-29 23q-9 7 -25 27q-21 -27 -34 -38q-16 -18 -47 -47q-18 -19 -57 -53q-22 54 -31 100
q-9 49 -10 84q0 7 5 33q-22 -3 -36 -4h-17z" />
  </g>

</svg>
