<?xml version="1.0" standalone="no"?>
<!DOCTYPE svg PUBLIC "-//W3C//DTD SVG 1.1//EN" "http://www.w3.org/Graphics/SVG/1.1/DTD/svg11.dtd" >
<svg xmlns="http://www.w3.org/2000/svg" xmlns:xlink="http://www.w3.org/1999/xlink" version="1.1" viewBox="-10 0 1010 1000">
   <path fill="currentColor"
d="M663 -8q34 51 63 121l-99 30q-14 -65 -52 -123zM109 46q39 6 87 6h84q46 0 85 -6q-7 24 -6 79v12v685q16 56 -135 79q-9 -48 -41 -99q108 13 105 -22v-238h-103q-11 165 -100 357q-30 -40 -63 -67q81 -155 91 -375v-320q0 -68 -4 -91zM185 112v158h103v-158h-103z
M389 145q63 9 113 10h361q20 0 68 -5q26 -3 33 -3v82q-24 -4 -48 -5q-21 -1 -59 -1h-357q-53 -1 -111 8v-86zM720 256q10 4 26 10q74 29 64 30q-20 19 -58 96q-30 61 -52 100q72 120 100 165q-31 10 -74 42q-15 -47 -48 -120q-7 -16 -11 -25q-10 14 -26 37q-47 66 -79 114
q-1 -1 -3 -4q-24 -31 -49 -38q2 -3 23 -31q64 -86 96 -134q-79 -141 -131 -196q14 -7 39 -18q17 -8 26 -12q35 60 100 163q42 -83 57 -179zM288 330h-103v153h103v-153zM504 758l313 -8v-297q-1 -79 -7 -105q10 1 30 2q76 5 69 8q0 1 -2 3q-18 30 -18 90v335q0 66 6 107h-82
q0 -6 1 -24q1 -33 1 -55l-277 8q-75 5 -111 14q6 -45 6 -96v-267q0 -90 -6 -110q10 0 29 1q70 2 70 7q0 1 -2 5q-20 30 -20 93v289z" />
</svg>
