<?xml version="1.0" standalone="no"?>
<!DOCTYPE svg PUBLIC "-//W3C//DTD SVG 1.1//EN" "http://www.w3.org/Graphics/SVG/1.1/DTD/svg11.dtd" >
<svg xmlns="http://www.w3.org/2000/svg" xmlns:xlink="http://www.w3.org/1999/xlink" version="1.1" viewBox="-10 0 1034 1024">
  <g transform="matrix(1 0 0 -1 0 820)">
   <path fill="currentColor"
d="M314 215v-243q0 -30 -3 -37t-17 -12q-18 -3 -34 -3q-18 0 -41 4q0 1 5 -16q3 -6 6 -14q3 -15 3 -19q63 6 85 12q12 4 20 9q15 13 15 53l1 707l4 39q-90 -4 -93 -5q-102 0 -122 2q-6 3 -32 3q1 -27 5 -55l-3 -423q-1 -9 -1 -19q-3 -103 -15 -172q-15 -81 -59 -143
q31 -9 49 -17q24 60 43 132q6 30 12 83q4 52 8 134h164zM151 251l3 178h160v-178h-163zM154 465v190h160v-190h-160zM536 227q0 -72 -2 -108q-1 -3 -1 -8q-9 -76 -30 -119q-22 -42 -58 -76q-30 -30 -76 -50q27 -12 25 -13q9 -6 23 -16q33 27 53 49q18 18 36 42q33 42 48 92
q12 48 18 140q3 51 6 63q0 9 15 28q-27 3 -53 8q-3 1 -7 3zM871 578q19 0 46 -2q9 0 16 -4v48q-48 -6 -62 -7q-451 0 -463 3q-3 0 -13 4v-48q19 4 40 5l336 1q-21 -37 -45 -68t-62 -73l-53 43q-9 7 -20 20q-34 34 -42 65q-21 -24 -37 -36q12 -16 26 -31l53 -51
q15 -15 46 -39q-63 -54 -133 -92q-55 -27 -122 -39q27 -36 31 -44q81 33 138 66q51 30 119 87q133 -78 283 -130l13 21q7 10 18 26q-54 3 -140 36q-87 34 -146 76q33 39 60 74l63 89h50zM705 644q3 3 10 11l-102 99q-9 7 -17 15l-9 -9q-3 0 -4 -4q-9 -6 -17 -14l64 -58
q33 -33 57 -61q9 10 18 21zM815 -148q-3 7 -4 36l-1 313q0 25 3 32q1 15 11 29h-58q0 -6 3 -13l2 -144l-1 -227q-1 -15 -4 -26h49z" />
  </g>

</svg>
