<?xml version="1.0" standalone="no"?>
<!DOCTYPE svg PUBLIC "-//W3C//DTD SVG 1.1//EN" "http://www.w3.org/Graphics/SVG/1.1/DTD/svg11.dtd" >
<svg xmlns="http://www.w3.org/2000/svg" xmlns:xlink="http://www.w3.org/1999/xlink" version="1.1" viewBox="-10 0 1034 1024">
  <g transform="matrix(1 0 0 -1 0 820)">
   <path fill="currentColor"
d="M63 373q27 -18 44 -34q22 21 46 41q19 15 37 34q22 21 45 45q39 42 69 54q-24 13 -49 38q-27 -45 -72 -89q-57 -55 -120 -89zM958 644q-18 -4 -61 -5l-796 3q-4 1 -7 1q-3 1 -5 1v-47q4 3 53 6h241l-1 -191q-3 -36 -4 -38v-6h49q-3 15 -4 40l-1 195h186l-1 -186
q-1 -9 -2 -37l-1 -2q0 -6 -1 -12h49q-3 3 -4 27q-1 25 -2 75v135l273 -1q24 0 37 -4l2 -1v47zM427 747l73 -51q27 -22 62 -56q7 15 32 39l-136 105q-16 -24 -31 -37zM185 312q1 -31 5 -65l-1 -359l-4 -41h47q-3 15 -4 34l-1 390h245q-72 -100 -191 -131q22 -15 44 -45
q60 36 95 64q31 25 78 75q30 -13 57 -29l54 -30q48 -27 83 -56q4 10 10 19q4 6 7 12q3 3 8 10q-34 22 -72 41q-18 12 -124 70h278v-322q0 -34 -15 -45q-19 -9 -50 -10q-21 0 -60 7q9 -16 14 -28q1 -4 3 -11q3 -6 6 -14q36 3 54 6q39 6 62 20q24 16 24 53l1 337l4 48
q-49 -4 -67 -5h-247q9 51 12 61q1 9 14 29q-34 1 -62 6q0 -18 2 -37q0 -10 -4 -27l-3 -32l-254 1q-15 3 -48 4zM362 -35q45 34 74 60q25 22 58 58q91 -45 184 -118q3 7 7 12q6 12 19 25q-124 75 -173 107q-1 0 -11 7q21 22 40 28l-55 33q-30 -63 -92 -120q-61 -54 -117 -70
q22 -15 46 -40q9 9 20 18zM711 511q30 -12 44 -22q82 -54 128 -89q21 -18 42 -39q6 15 9 17q3 4 9 14q9 9 10 13l-212 146q-15 -18 -19 -28q-6 -6 -11 -12v0z" />
  </g>

</svg>
