<?xml version="1.0" standalone="no"?>
<!DOCTYPE svg PUBLIC "-//W3C//DTD SVG 1.1//EN" "http://www.w3.org/Graphics/SVG/1.1/DTD/svg11.dtd" >
<svg xmlns="http://www.w3.org/2000/svg" xmlns:xlink="http://www.w3.org/1999/xlink" version="1.1" viewBox="-10 0 1010 1000">
   <path fill="currentColor"
d="M603 -4q109 3 105 10q0 2 -3 6q-20 29 -20 98h144q70 0 100 -6v77q-25 -6 -100 -6h-144v87h138q47 0 98 -6q-4 23 -4 77q0 53 4 78h-62v74q-39 5 -157 87v30h141q62 0 99 -6v79q-35 -6 -101 -6h-139v159q2 36 -24 47q-23 13 -120 26q-4 -53 -38 -93q77 6 90 1
q18 -4 17 -29v-111h-115q-66 0 -117 6v-79q33 6 117 6h115v-60q90 -54 119 -69h-192q-49 0 -86 8v-64h-69q9 -97 0 -161q39 6 101 6h109v-87h-105q-76 0 -109 6v-75q31 6 109 6h105q0 -82 -6 -116zM95 60q25 4 76 4h111q56 -1 77 -4q-6 25 -6 99v643q18 67 -147 79
q1 -46 -31 -93q65 11 86 3q23 -7 23 -39v-188h-115q0 187 -68 333q-34 -45 -67 -69q70 -85 67 -341v-328q1 -75 -6 -99zM171 127v155h113v-155h-113zM837 322h-357v50q1 18 2 31q28 6 76 6h208q38 0 69 -8q0 -7 1 -26q1 -32 1 -53zM171 346v154h113v-154h-113z" />
</svg>
