<?xml version="1.0" standalone="no"?>
<!DOCTYPE svg PUBLIC "-//W3C//DTD SVG 1.1//EN" "http://www.w3.org/Graphics/SVG/1.1/DTD/svg11.dtd" >
<svg xmlns="http://www.w3.org/2000/svg" xmlns:xlink="http://www.w3.org/1999/xlink" version="1.1" viewBox="-10 0 1034 1024">
  <g transform="matrix(1 0 0 -1 0 820)">
   <path fill="currentColor"
d="M631 325l15 30v-444q0 -40 -5 -69h48q0 7 -3 15q0 24 -2 54v465q33 -79 59 -132q18 -36 58 -94q30 -42 58 -75q30 -33 76 -80q27 25 54 39q-19 4 -39 17q-42 25 -85 79q-103 129 -145 270l215 -1q12 -1 24 -4v46q-27 -1 -54 -5h-221v259q0 12 3 34t17 40h-63q1 -36 5 -73
v-260l-193 1q-13 1 -27 2l-12 2v-46q54 4 76 5h131q-61 -159 -154 -292q-30 -39 -43 -52q-15 -12 -43 -29q34 -12 63 -24l54 78q22 36 54 89q30 52 48 90q15 33 31 65zM430 663q18 -18 34 -36l54 -70q15 -18 37 -53q15 15 26 21q3 3 7 5q-102 130 -125 161l-5 -7q0 -1 -3 -3
q-18 -9 -23 -16q-1 0 -2 -2zM782 504q3 -3 11 -9l15 21q16 22 35 44q18 24 38 47q39 49 69 54q-24 16 -50 43q-9 -22 -57 -86q-48 -60 -85 -97q10 -6 16 -11q3 -3 8 -6zM92 -130q9 0 17 -5q22 52 33 82q7 19 18 58q25 99 29 229h146v-299q0 -36 -52 -36q-31 0 -60 9
q12 -24 19 -54q9 0 27 2q18 3 37 4q30 3 46 15q21 15 21 48l1 751l4 47q-34 -1 -69 -5l-112 1q-15 3 -49 4q1 -33 5 -67l-1 -426q-1 -6 -1 -15l-6 -74q-9 -111 -50 -197q-21 -39 -47 -63q6 -1 15 -5l8 -2q10 0 21 -2zM190 482v198h145v-198h-145zM190 270v176h145v-176h-145
z" />
  </g>

</svg>
