<?xml version="1.0" standalone="no"?>
<!DOCTYPE svg PUBLIC "-//W3C//DTD SVG 1.1//EN" "http://www.w3.org/Graphics/SVG/1.1/DTD/svg11.dtd" >
<svg xmlns="http://www.w3.org/2000/svg" xmlns:xlink="http://www.w3.org/1999/xlink" version="1.1" viewBox="-10 0 1034 1024">
  <g transform="matrix(1 0 0 -1 0 820)">
   <path fill="currentColor"
d="M128 698q3 -60 4 -88l-3 -423q-3 -55 -11 -112q-15 -105 -40 -154q-12 -27 -41 -54l16 -3q6 0 12 -2q12 -3 31 -7q61 147 72 356h160v-285q0 -21 -9 -30q-4 -3 -18 -6q-13 -1 -25 -2q-12 0 -41 4q13 -24 20 -50q49 4 75 11l6 2q28 12 29 58v736q0 10 4 28q1 18 2 29
q-51 -4 -71 -5l-137 1q-15 3 -36 4q0 -3 1 -8zM170 463v202h158v-202h-158zM169 247l1 180h158v-180h-159zM666 647h-199q-24 0 -45 3q-3 0 -14 3v-47q22 3 47 5h211v-111l-200 1q-12 3 -38 4q6 -48 6 -76q0 -75 -2 -98q-3 -3 -4 -17v-2h48q-4 31 -5 59v93h427
q-3 -132 -5 -144q-1 0 -1 -2h49q-4 28 -5 58q0 85 2 97q0 15 3 32q-45 -4 -51 -5h-186v111l229 -1q18 0 31 -4v47q-4 0 -7 -2q-3 0 -4 -1q-21 0 -46 -3h-203q0 90 3 99q1 15 10 27h-57q3 -16 6 -47q-1 -6 0 -14v-65zM683 158l-246 1l-14 2q-3 0 -12 2v-46q27 3 57 5h215
v-190q0 -39 -21 -46q-27 0 -56 -3q-13 0 -42 3q6 -9 10 -20q1 -3 7 -27q55 3 83 6q31 6 43 18q13 18 14 52v207l236 -1q18 0 31 -4v46q-4 0 -8 -1q-3 0 -4 -1q-4 0 -8 -1q-9 0 -38 -2h-209v22l46 53q30 34 61 67l46 54q-30 -1 -62 -5l-264 1l-14 2l-13 2v-46q21 6 58 6h213
l-111 -127q0 -13 2 -29v0z" />
  </g>

</svg>
