<?xml version="1.0" standalone="no"?>
<!DOCTYPE svg PUBLIC "-//W3C//DTD SVG 1.1//EN" "http://www.w3.org/Graphics/SVG/1.1/DTD/svg11.dtd" >
<svg xmlns="http://www.w3.org/2000/svg" xmlns:xlink="http://www.w3.org/1999/xlink" version="1.1" viewBox="-10 0 1010 1000">
   <path fill="currentColor"
d="M530 -12q5 31 12 84q1 11 2 16h252q98 -1 119 -8v87q-27 -6 -119 -8h-163v111q1 70 8 103h-87q8 -82 8 -101v-113h-129v115q0 72 5 103h-85q7 -42 8 -105v-113h-163q-99 0 -123 6v-85q37 7 125 8h262q-7 -40 -29 -94zM236 199q80 38 79 47q-1 4 -7 6q-16 6 -34 24
q-62 61 -149 135q-33 -34 -67 -49q109 -61 178 -163zM740 203q118 78 187 139l-66 65q-62 -75 -184 -157zM643 836q-78 -56 -173 -107q-76 67 -176 109q-14 -38 -58 -70q186 -38 226 -153q11 4 33 11q62 21 57 23q-4 7 -22 20q-14 11 -22 18q69 27 180 83zM532 439h190
q102 -3 127 -6q-5 42 -6 135v228q3 60 -25 76q-24 20 -130 37q-3 -32 -17 -74q-5 -15 -4 -17q107 30 101 -66v-254h-250l-14 30q2 1 7 3q84 30 215 75q-28 32 -45 73q-54 -40 -217 -103q-58 55 -168 97q-17 -40 -58 -69q136 -7 202 -106h-224v258q-2 102 4 135h-93
q14 -39 14 -141v-196q-1 -68 -8 -125q18 3 137 10h188q3 -28 0 -69v-10q68 8 88 17q0 6 -6 29q-6 22 -8 33z" />
</svg>
