<?xml version="1.0" standalone="no"?>
<!DOCTYPE svg PUBLIC "-//W3C//DTD SVG 1.1//EN" "http://www.w3.org/Graphics/SVG/1.1/DTD/svg11.dtd" >
<svg xmlns="http://www.w3.org/2000/svg" xmlns:xlink="http://www.w3.org/1999/xlink" version="1.1" viewBox="-10 0 1010 1000">
   <path fill="currentColor"
d="M466 -6q98 0 99 10q2 7 -9 17q-14 13 -14 23v123h43q42 -1 72 -4v74q2 -7 -58 -6h-57v144h37q42 0 78 -6v74q-12 -5 -74 -4h-158q-62 -1 -74 4v-74q36 6 74 6h47v-144h-34q-40 0 -65 4v-72q4 0 10 1q37 3 54 3h35v-99q0 -33 -6 -74zM173 42h73q58 0 91 -6q-6 39 -6 91
v643q1 45 -21 59q-19 16 -98 29q-11 -60 -31 -90q83 15 83 -31v-205h-101q-8 202 -82 351q-39 -59 -53 -73q42 -87 54 -169q14 -79 13 -250v-270q0 -60 -6 -85q33 6 84 6zM264 106h-101v160h101v-160zM264 326h-101v147h101v-147zM694 141q0 -41 -5 -84q-1 -8 -1 -9h3
q34 6 87 6h59q60 0 88 -6q-6 30 -6 93v490q2 55 -20 72q-21 21 -95 34q-6 -54 -30 -98q79 13 77 -29v-489h-89v637q0 29 2 79q2 42 2 62h-78q6 -79 6 -139v-619zM562 475q0 6 -15 17q-15 10 -19 18q-10 18 -32 65q-39 86 -63 124l142 -32q-15 -48 -43 -91l67 -24
q55 114 93 220l-83 24q-10 -46 -20 -75q-27 8 -69 20q-116 31 -137 47l-44 -71q80 -49 133 -270q89 17 90 28z" />
</svg>
