<?xml version="1.0" standalone="no"?>
<!DOCTYPE svg PUBLIC "-//W3C//DTD SVG 1.1//EN" "http://www.w3.org/Graphics/SVG/1.1/DTD/svg11.dtd" >
<svg xmlns="http://www.w3.org/2000/svg" xmlns:xlink="http://www.w3.org/1999/xlink" version="1.1" viewBox="-10 0 1010 1000">
   <path fill="currentColor"
d="M857 30q-6 39 -6 93v104q0 47 1 65q1 23 3 36q-26 -3 -58 -3q-16 -1 -37 -1h-60v18q2 51 0 77q158 0 207 -6q-6 45 -6 109v252q5 56 -22 73q-26 21 -119 36q0 -51 -28 -93q25 7 50 8q28 0 35 -6q12 -9 12 -71v-234h-133q-1 4 -2 11q-2 20 -4 26q41 35 133 127
q-43 32 -75 60q-15 -41 -81 -125q-30 77 -80 151q-33 -28 -67 -36q0 155 6 180h-84q6 -26 6 -200v-155q0 -65 -1 -82q-1 -24 -5 -31q16 6 195 6q0 -66 -2 -93q-71 0 -99 1q-34 1 -58 3q4 -48 4 -107v-102q0 -62 -6 -87q17 2 41 3q12 1 28 1h44h141q69 0 127 -8zM286 42
q63 0 105 -6q-2 12 -3 35q-1 11 -1 26v42v560q2 117 -19 135q-12 25 -120 37q-4 -55 -30 -91q59 12 88 0q6 -5 7 -53v-191h-121q-6 214 -85 339q-27 -36 -73 -51q85 -92 89 -314v-138v-81q-1 -68 -2 -138q0 -67 -6 -115q15 4 91 4h80zM780 102h-226v160h226v-160zM313 106
h-121v150h121v-150zM313 320h-121v153h121v-153zM633 487h-113v194q86 -67 113 -194z" />
</svg>
