<?xml version="1.0" standalone="no"?>
<!DOCTYPE svg PUBLIC "-//W3C//DTD SVG 1.1//EN" "http://www.w3.org/Graphics/SVG/1.1/DTD/svg11.dtd" >
<svg xmlns="http://www.w3.org/2000/svg" xmlns:xlink="http://www.w3.org/1999/xlink" version="1.1" viewBox="-10 0 1010 1000">
   <path fill="currentColor"
d="M603 -13q15 2 38 5q73 7 63 16q0 3 -6 10q-27 30 -57 95h171q50 0 93 -5q-6 37 -6 91v234q0 22 1 38q1 19 5 57q-51 -6 -95 -6h-50v125h95q53 0 103 -6v78q-56 -6 -107 -6h-91v91q0 28 1 48q1 23 5 59h-83q6 -53 5 -113v-85h-170q-59 0 -125 6v-78l49 6q76 -57 120 -125
h-40q-47 0 -93 6q6 -44 6 -93v-234q1 -52 -6 -93q35 5 95 5h49q28 -84 30 -126zM95 64q155 15 276 0q-7 52 -6 103v657q2 36 -24 50q-23 15 -107 29q-2 -43 -34 -89q94 16 90 -22v-228h-113q-7 164 -96 347q-30 -54 -55 -77q71 -110 75 -310v-357q0 -61 -6 -103zM290 135
h-113v147h113v-147zM639 179h-129v107h123q3 -48 6 -107zM823 179h-111q-1 10 -3 40q-3 41 -5 67h119v-107zM290 346h-113v154h113v-154zM625 346h-115v111h85q16 -43 28 -100q1 -7 2 -11zM823 346h-129q-9 60 -27 111h156v-111zM688 522h-49q-53 80 -99 125h148v-125z" />
</svg>
