<?xml version="1.0" standalone="no"?>
<!DOCTYPE svg PUBLIC "-//W3C//DTD SVG 1.1//EN" "http://www.w3.org/Graphics/SVG/1.1/DTD/svg11.dtd" >
<svg xmlns="http://www.w3.org/2000/svg" xmlns:xlink="http://www.w3.org/1999/xlink" version="1.1" viewBox="-10 0 1010 1000">
   <path fill="currentColor"
d="M708 -17l16 105h125q67 0 119 -6v79q-44 -6 -119 -6h-347q-35 0 -59 1q-28 1 -64 5v-79q63 6 119 6h149q-7 -45 -34 -94zM339 42q-6 56 -6 107v635q2 56 -20 71q-15 16 -105 34q-5 -50 -31 -91q90 10 85 -28v-236h-103q-6 226 -72 381q-44 -59 -59 -71q35 -79 48 -152
q12 -65 11 -180v-365q1 -58 -6 -105q49 6 140 6q90 0 118 -6zM262 112h-103v148h103v-148zM262 320h-103v157h103v-157zM831 358h-150l-30 61q16 135 87 248q64 -100 90 -290q2 -13 3 -19zM754 405q17 65 24 123l-70 4q-5 -67 -20 -125zM607 496q-19 41 -45 88
q-14 -23 -42 -61q-5 -8 -6 -9q125 -204 139 -329q109 19 107 28q0 1 -4 4q-28 17 -52 77h108q63 0 107 -6q-45 309 -133 425q47 47 182 103q-29 33 -57 79q-20 -13 -35 -23q-80 -48 -116 -90l-20 -20q-88 86 -161 129q-7 -9 -29 -34q-31 -35 -30 -39q82 -20 174 -103
q-71 -112 -87 -219zM516 903h-79q3 -26 4 -52q1 -13 1 -29v-40v-325q-15 34 -65 115q-13 -56 -36 -87q113 -157 147 -312q102 28 97 34q0 2 -6 9q-32 36 -69 114v460q0 60 6 113z" />
</svg>
