<?xml version="1.0" standalone="no"?>
<!DOCTYPE svg PUBLIC "-//W3C//DTD SVG 1.1//EN" "http://www.w3.org/Graphics/SVG/1.1/DTD/svg11.dtd" >
<svg xmlns="http://www.w3.org/2000/svg" xmlns:xlink="http://www.w3.org/1999/xlink" version="1.1" viewBox="-10 0 1034 1024">
  <g transform="matrix(1 0 0 -1 0 820)">
   <path fill="currentColor"
d="M348 226v-268q0 -18 -3 -27t-14 -12q-19 -6 -56 -6q-13 1 -29 6q9 -30 13 -51q82 6 101 17q25 13 26 58l1 728q0 15 4 40q-54 -6 -66 -6l-163 1q-4 1 -33 5q4 -90 5 -95l-5 -453q-7 -124 -31 -192q-25 -60 -67 -91q18 -6 34 -9q15 -4 31 -11q40 85 57 168q15 90 18 198
h177zM172 475v195h176v-195h-176zM171 262l1 177h176v-177h-177zM563 437h-91q-40 0 -57 5v-46q19 4 57 5l497 -3q1 0 10 -2v46q-28 -1 -57 -5h-111v147h85q19 0 44 -3q1 0 14 -2v46q-4 0 -7 -1q-3 0 -4 -1l-132 -3v88q0 4 2 23q1 21 12 38h-58q3 -16 6 -47q-1 -6 0 -14v-88
h-173q0 109 3 119q1 15 10 27h-56q3 -16 6 -47q-1 -6 0 -14v-85q-72 0 -96 2q-3 1 -19 3v-46q19 4 58 5h57v-147zM600 437v147h173v-147h-173zM505 311q1 -27 5 -57l-1 -377l-4 -29h47q-4 49 -5 87h300q0 -51 -3 -71q-1 -1 -2 -12h48q-3 30 -5 59l1 358l4 42q-45 -4 -55 -5
l-292 1q-15 3 -38 4zM547 -30v133h300v-133h-300zM547 139v131h300v-131h-300z" />
  </g>

</svg>
