<?xml version="1.0" standalone="no"?>
<!DOCTYPE svg PUBLIC "-//W3C//DTD SVG 1.1//EN" "http://www.w3.org/Graphics/SVG/1.1/DTD/svg11.dtd" >
<svg xmlns="http://www.w3.org/2000/svg" xmlns:xlink="http://www.w3.org/1999/xlink" version="1.1" viewBox="-10 0 1034 1024">
  <g transform="matrix(1 0 0 -1 0 820)">
   <path fill="currentColor"
d="M169 626q1 -27 2 -41v-199q0 -240 -52 -383q-25 -69 -76 -131q33 -3 56 -16l42 88q34 88 52 198q6 51 11 109q3 58 5 120v256l713 -1q27 0 45 -5v48q-12 -3 -19 -3q-24 -1 -36 -3h-310q7 16 24 36q-43 36 -119 84q-9 -18 -28 -36q10 -6 22 -13q45 -25 53 -34q7 -6 43 -37
l-373 1q-15 3 -31 3q-12 0 -27 2zM365 459v-135q0 -45 -6 -75h51q-6 25 -6 74v187q1 3 7 9q6 7 13 18q24 36 63 65q-36 9 -56 20q-24 -51 -89 -125q-40 -45 -64 -66q-21 -18 -54 -40q28 -9 44 -29zM346 203q-45 6 -67 6l5 -88l-1 -244l-4 -39h50q-6 25 -6 74v257h195
q-58 -75 -135 -95q21 -16 35 -36q84 48 131 110q78 -42 151 -88q25 -16 39 -29q6 27 20 43q-16 9 -31 16l-53 28l-35 19q-24 12 -58 32h252v-255q0 -25 -25 -30q-19 -3 -46 -3q-12 0 -39 4q16 -24 20 -44l65 4q24 4 44 14q19 10 20 56l1 238l4 56l-76 -6h-225q10 27 17 51
q9 34 29 51q-34 4 -61 5q-3 -63 -27 -107h-189zM611 70q-28 10 -46 20q-22 -51 -84 -99q-63 -42 -116 -55q24 -15 37 -35q48 24 83 47q30 21 73 60q15 -4 26 -13q6 -3 20 -11l41 -24q33 -21 52 -32q6 -4 27 -23q10 19 23 39l-112 63q-18 9 -52 29q13 18 28 34zM781 504h-255
q-10 0 -47 3q-12 0 -20 3v-47q34 4 67 5h255v-104q0 -45 -9 -54q-6 -6 -39 -7q-24 0 -52 6q15 -22 21 -51q9 1 20 1q75 6 89 35q9 21 9 60v114l86 -1q30 0 47 -4v47q-12 -3 -20 -3q-24 -1 -36 -3h-77q0 33 3 49q1 15 12 34h-60q3 -12 4 -28q0 -27 2 -55zM549 409l-16 -14
q36 -6 69 -28q33 -19 58 -40q9 19 21 36q-24 16 -40 26q-30 15 -44 24q-15 9 -33 16q-9 -9 -15 -20v0z" />
  </g>

</svg>
