<?xml version="1.0" standalone="no"?>
<!DOCTYPE svg PUBLIC "-//W3C//DTD SVG 1.1//EN" "http://www.w3.org/Graphics/SVG/1.1/DTD/svg11.dtd" >
<svg xmlns="http://www.w3.org/2000/svg" xmlns:xlink="http://www.w3.org/1999/xlink" version="1.1" viewBox="-10 0 1010 1000">
   <path fill="currentColor"
d="M560 -2q20 40 33 98h153q147 0 179 -10v77q-27 -7 -173 -8h-520q1 309 -24 457q-23 150 -93 267q-42 -41 -77 -57q113 -145 115 -488q-1 -210 -8 -246q24 8 178 8h187q-22 -61 -40 -82zM710 167q83 1 88 6q0 2 -3 9q-11 22 -11 51q101 0 121 -6v71q-12 -5 -38 -7
q-12 0 -31 -1h-52v99q1 42 -23 57q-22 15 -96 21q1 -40 -30 -80q88 17 79 -20v-75h-156q-12 1 -35 1q-55 2 -65 5v-69q22 8 121 8h135q0 -58 -4 -70zM534 425q75 9 81 18q0 3 -4 9q-10 15 -16 40h76q144 0 176 -9q-8 25 -8 164v171q14 71 -123 83q-5 -50 -28 -89
q84 21 78 -40v-228h-187q-9 15 -12 24q136 51 183 75l-40 60q-85 -63 -172 -95q-36 33 -118 84q-3 2 -5 3q-19 -27 -62 -48q109 -23 159 -105h-163v196q0 89 1 111q1 30 5 40h-85q8 -25 8 -152v-88v-46q2 -111 -8 -120q33 7 208 7h52q8 -38 4 -65zM665 822q-58 -50 -123 -84
q-51 46 -109 87q-12 9 -18 13q-14 -23 -62 -48q131 -48 187 -153q4 2 13 5q42 16 48 23q0 3 -7 9q-13 11 -19 23q3 1 8 4q77 34 131 67zM619 383l-65 28q-19 -45 -56 -83l58 -26q38 38 63 81zM393 157q76 18 79 24q0 5 -8 12q-24 21 -49 59v76q0 76 1 96q1 28 5 35h-78
q8 -23 8 -133q-16 21 -46 53q-12 12 -17 18q-17 -28 -46 -49q98 -76 151 -191z" />
</svg>
