<?xml version="1.0" standalone="no"?>
<!DOCTYPE svg PUBLIC "-//W3C//DTD SVG 1.1//EN" "http://www.w3.org/Graphics/SVG/1.1/DTD/svg11.dtd" >
<svg xmlns="http://www.w3.org/2000/svg" xmlns:xlink="http://www.w3.org/1999/xlink" version="1.1" viewBox="-10 0 1010 1000">
   <path fill="currentColor"
d="M690 -2q7 17 32 112h131q45 1 101 -6v79q-58 -6 -105 -6h-361l-4 240q66 -73 109 -226q5 1 14 3q76 18 70 27q0 2 -5 7q-31 31 -65 110v414q1 52 8 125h-81q6 -47 6 -123v-309q-21 42 -36 61q-1 -2 -2 -8q-15 -46 -18 -45q-2 232 -87 428q-8 -15 -23 -44q-19 -36 -25 -43
q62 -110 66 -349v-244q0 -56 -6 -97q36 6 107 6h133q-13 -47 -44 -96zM270 127h-97v161h97v-161zM782 201h24q74 -2 73 8q0 1 -2 4q-16 26 -16 87v62q52 0 93 -6v73q-47 -7 -95 -4v391q1 48 -24 62q-20 15 -105 19q-6 -56 -34 -95q96 31 92 -24v-353h-54q-21 0 -59 2
q-27 2 -38 2v-73q54 6 97 6h54v-60q0 -71 -6 -101zM270 348h-97v152h97v-152zM702 479q34 47 72 138l-78 24q-20 -75 -57 -145zM218 889q3 -49 -30 -93q51 10 66 1q17 -9 16 -47v-190h-99q1 116 -68 327q-2 -2 -7 -6q-38 -30 -66 -49q74 -124 71 -351v-314q1 -54 -6 -105
q44 6 130 6q85 0 122 -6q-6 41 -6 101v639q9 72 -123 87z" />
</svg>
