<?xml version="1.0" standalone="no"?>
<!DOCTYPE svg PUBLIC "-//W3C//DTD SVG 1.1//EN" "http://www.w3.org/Graphics/SVG/1.1/DTD/svg11.dtd" >
<svg xmlns="http://www.w3.org/2000/svg" xmlns:xlink="http://www.w3.org/1999/xlink" version="1.1" viewBox="-10 0 1010 1000">
   <path fill="currentColor"
d="M679 0q4 18 11 46q15 68 18 56h141q40 0 93 -6q-7 78 0 156h-75q4 -35 4 -83h-413q0 42 4 73h-77q9 -84 0 -146q42 6 93 6h153q-15 -47 -40 -92zM89 50q140 12 254 0q-6 42 -6 105v649q15 55 -123 77q-5 -37 -31 -91q86 16 83 -20v-208h-99q-17 176 -74 333
q-20 -36 -65 -67q64 -103 67 -320v-353q0 -81 -6 -105zM167 115v161h99v-161h-99zM659 320q122 12 240 0q-10 79 -10 244q1 43 -20 58q-16 15 -97 35q-11 -53 -34 -85q52 4 66 -5q15 -7 15 -43q1 -18 2 -46q2 -53 2 -93h-93v314q-1 71 10 81q7 16 56 14q48 2 62 -18
q16 -19 23 -87q35 34 81 49q-26 81 -49 100q-24 26 -80 25h-103q-68 3 -67 -87v-359q0 -82 -4 -97zM266 336h-99v166h99v-166zM341 562q86 -91 119 -312q15 4 44 11q49 10 46 15q0 3 -5 7q-19 19 -33 57q71 0 83 -1q16 0 38 -3q-3 26 -6 80q0 301 -187 467q-32 -24 -89 -43
q112 -61 179 -207q-55 -42 -92 -55l36 -56q66 50 72 50q17 -75 19 -177h-69q-29 75 -89 203q-18 -12 -66 -36z" />
</svg>
