<?xml version="1.0" standalone="no"?>
<!DOCTYPE svg PUBLIC "-//W3C//DTD SVG 1.1//EN" "http://www.w3.org/Graphics/SVG/1.1/DTD/svg11.dtd" >
<svg xmlns="http://www.w3.org/2000/svg" xmlns:xlink="http://www.w3.org/1999/xlink" version="1.1" viewBox="-10 0 1034 1024">
  <g transform="matrix(1 0 0 -1 0 820)">
   <path fill="currentColor"
d="M93 -149q46 81 65 154q16 73 22 204h152v-276q0 -30 -14 -36q-18 -4 -38 -5q-7 3 -34 4h-4q13 -30 20 -50q15 0 49 7q33 6 43 14q15 15 16 57l1 744q0 19 4 43q-27 -1 -56 -5l-141 1q-15 3 -40 4q1 -30 5 -62l-1 -384q-1 -12 -6 -136q-3 -39 -13 -96q-15 -64 -43 -114
q-13 -22 -36 -46q30 -12 49 -22zM181 469v201h151v-201h-151zM180 244l1 189h151v-189h-152zM709 154q174 0 187 -3q3 0 6 -2v47q-19 -4 -39 -5l-154 -1v184l156 -1q12 0 31 -6v48q-18 -3 -59 -7l-325 1q-6 1 -9 2q-4 1 -14 4v-48q9 3 35 6l147 1v-422q-66 39 -118 136l5 38
l4 49q0 10 5 20q4 12 15 23q-30 3 -65 13q3 -33 3 -53q0 -51 -10 -116q-9 -66 -47 -136q-27 -45 -68 -76q30 -9 49 -22q39 54 62 98q19 40 37 100q48 -66 81 -91q34 -27 86 -36q67 -13 245 -13q6 24 27 55q-27 -7 -55 -12q-51 -3 -90 -4q-16 1 -45 3q-46 3 -83 11v215z
M446 634q6 -54 6 -73q0 -63 -2 -87q-3 -10 -4 -21h48q-1 3 -1 6q-3 7 -4 32l-1 102h401v-70q0 -42 -5 -59h48q-3 7 -4 34l1 102q0 16 3 34q-27 -1 -56 -5h-162q9 15 27 32l-98 110q-13 -13 -33 -26q69 -64 95 -116l-217 1q-15 3 -42 4v0z" />
  </g>

</svg>
