<?xml version="1.0" standalone="no"?>
<!DOCTYPE svg PUBLIC "-//W3C//DTD SVG 1.1//EN" "http://www.w3.org/Graphics/SVG/1.1/DTD/svg11.dtd" >
<svg xmlns="http://www.w3.org/2000/svg" xmlns:xlink="http://www.w3.org/1999/xlink" version="1.1" viewBox="-10 0 1034 1024">
  <g transform="matrix(1 0 0 -1 0 820)">
   <path fill="currentColor"
d="M316 234v-293q0 -36 -22 -39q-21 -3 -39 -3q-12 0 -42 3q12 -28 19 -48q58 4 76 9q22 4 31 12q15 15 15 51l1 741l4 43q-27 -1 -55 -5q-115 0 -139 2q-6 3 -34 3q1 -28 5 -59l-1 -373q-1 -22 -2 -57q-3 -70 -8 -124q-12 -94 -41 -157q-19 -36 -54 -64q12 -4 24 -9
q9 -3 14 -6q6 -1 14 -6q46 75 64 152q10 51 17 99q6 52 9 128h144zM174 471v198h142v-198h-142zM174 270v165h142v-165h-142zM516 240q49 4 103 5h27q-1 -51 -8 -107h-143q-34 0 -47 2q-1 0 -14 4v-47q42 6 70 5h124q-40 -105 -109 -157q-57 -40 -101 -44q7 -7 14 -17
q9 -12 20 -25q79 40 127 88q42 45 84 129q55 -42 112 -99q54 -57 112 -125q3 6 31 34q-9 10 -121 122l-106 94h149q39 0 63 -5v47q-3 0 -6 -1l-38 -4l-181 -1q3 69 8 107h79q30 0 70 -5v24q12 -12 42 -35q45 -34 74 -54q1 -1 6 -4q9 15 26 36q4 4 8 9q-63 21 -105 54
q-75 61 -104 115h117q27 0 48 -3q1 0 16 -2v47q-4 0 -7 -2q-75 -3 -113 -4h-225q15 39 31 84l213 -1l32 -4v46q-30 -1 -62 -5h-174l13 82l227 -1q3 0 39 -4v47q-42 -6 -63 -6h-201l6 54q3 27 23 40q-21 1 -43 6q-21 4 -24 5q3 -21 4 -41q0 -22 -4 -64l-215 3q-3 1 -7 3v-47
q49 4 81 5h137q-3 -40 -13 -82l-146 1q-15 3 -19 4v-46q42 6 65 5h89q-12 -42 -30 -84l-175 3l-9 3v-47q42 6 68 5h94q-37 -57 -96 -113q-39 -37 -96 -63q9 -4 44 -32q42 34 66 56q18 16 43 41v-34zM527 286q51 66 71 99h140q21 -37 72 -99q-28 -1 -58 -5l-202 1q-7 1 -13 2
q-3 1 -4 1q-3 1 -6 1v0z" />
  </g>

</svg>
