<?xml version="1.0" standalone="no"?>
<!DOCTYPE svg PUBLIC "-//W3C//DTD SVG 1.1//EN" "http://www.w3.org/Graphics/SVG/1.1/DTD/svg11.dtd" >
<svg xmlns="http://www.w3.org/2000/svg" xmlns:xlink="http://www.w3.org/1999/xlink" version="1.1" viewBox="-10 0 1034 1024">
  <g transform="matrix(1 0 0 -1 0 820)">
   <path fill="currentColor"
d="M698 741q-19 7 -58 30q-13 -39 -24 -57q-36 -60 -91 -121q-96 -102 -164 -119q21 -13 46 -36q81 61 128 110q43 45 113 141q126 -162 297 -241q0 1 37 47q-48 3 -119 43q-114 66 -191 187q13 12 19 13q3 1 7 3zM438 -86q0 -40 -5 -69h47q-3 19 -4 32l-1 167h150v-135
q0 -22 -32 -23q-16 0 -54 11l15 -50q30 0 45 2q12 0 20 3q43 9 44 54l1 424q0 19 4 47q-34 -1 -70 -5l-117 1q-15 3 -49 4q6 -66 6 -94v-369zM475 79v102h150v-102h-150zM475 217v120h150v-120h-150zM833 499q-25 -1 -52 -5l-232 1q-13 1 -27 2l-12 2v-46q33 3 68 5l225 -1
q15 0 30 -5v47zM738 331l4 -41v-255l-4 -33h48q-3 19 -4 33l-1 218q0 31 3 41q1 19 13 37h-59zM909 316q0 15 3 35q3 24 14 44h-60l5 -131l-1 -356q-3 -10 -7 -16q-12 -7 -37 -8q-22 0 -43 4q-12 3 -21 7l18 -43q0 -4 3 -10q31 0 52 3q45 6 60 21q13 15 14 45v405zM319 221
v-296q0 -34 -59 -35q-21 0 -44 5q9 -18 13 -38l3 -12q30 3 50 6q43 7 60 20q15 13 15 44l1 750l4 46q-72 -4 -108 -5q-60 0 -87 2l-40 3q1 -33 5 -67l-1 -422q-1 -13 -2 -30q-1 -30 -7 -66l-17 -105q-10 -42 -26 -87q-18 -45 -50 -74q6 0 17 -2q18 -1 25 -5q7 -1 19 -4
q60 132 78 372h151zM169 472v199h150v-199h-150zM169 257v179h150v-179h-150z" />
  </g>

</svg>
