<?xml version="1.0" standalone="no"?>
<!DOCTYPE svg PUBLIC "-//W3C//DTD SVG 1.1//EN" "http://www.w3.org/Graphics/SVG/1.1/DTD/svg11.dtd" >
<svg xmlns="http://www.w3.org/2000/svg" xmlns:xlink="http://www.w3.org/1999/xlink" version="1.1" viewBox="-10 0 1010 1000">
   <path fill="currentColor"
d="M593 -13q80 12 103 25l-19 22q81 157 297 203q-40 46 -49 87q-61 -25 -113 -60v42q-47 -7 -86 -6h-163q-29 0 -89 8v-30l-89 66q-19 -29 -48 -34v496q2 51 -20 64q-21 17 -103 25q-3 -44 -26 -87q51 8 65 0q16 -6 15 -38v-212h-87q-17 236 -78 337q-36 -30 -81 -43
q54 -49 73 -186q10 -69 14 -170q4 -100 2 -254q-1 -137 -6 -194q37 8 70 8h91q29 1 77 -8q-6 25 -6 69v169q169 -102 256 -299zM633 80q-53 87 -125 155q20 4 52 5h156q23 0 46 -5q-79 -71 -129 -155zM177 119v165h91v-165h-91zM179 344v154h89v-154h-89zM808 346
q94 5 95 10q-11 33 -14 59v389q1 60 -26 80q-26 23 -103 27q-5 -47 -34 -95q57 13 73 6q17 -5 16 -40v-337q-1 -59 -7 -99zM389 358q11 1 34 3q36 4 49 4h113q23 0 76 -5q-6 34 -6 69v379q4 76 -111 85q-5 -46 -28 -79q69 14 65 -38v-83h-117v73q1 64 12 123h-91
q11 -27 10 -109v-12v-331q-1 -43 -6 -79zM694 397q4 0 14 1q81 3 76 7q-13 35 -14 68v154q1 55 12 100h-88q9 -41 8 -98v-156q0 -40 -8 -76zM464 421v87h117v-87h-117zM464 641h117v-81h-117v81z" />
</svg>
