<?xml version="1.0" standalone="no"?>
<!DOCTYPE svg PUBLIC "-//W3C//DTD SVG 1.1//EN" "http://www.w3.org/Graphics/SVG/1.1/DTD/svg11.dtd" >
<svg xmlns="http://www.w3.org/2000/svg" xmlns:xlink="http://www.w3.org/1999/xlink" version="1.1" viewBox="-10 0 1034 1024">
  <g transform="matrix(1 0 0 -1 0 820)">
   <path fill="currentColor"
d="M129 639q-36 0 -46 2q-3 0 -14 4v-47q42 6 66 5h78q-3 -66 -10 -111q-6 -37 -16 -70q-27 -90 -111 -136q27 -15 47 -30q60 69 82 110q21 45 36 114h147q-3 -57 -10 -100q-3 -9 -4 -16q-6 -18 -20 -23q-21 -6 -50 -7q-15 0 -43 6q12 -25 20 -54q70 6 97 17q24 15 33 42
q9 28 15 108q3 45 9 68q-28 -1 -57 -5h-132l7 87h155q12 0 47 -3q1 0 16 -2v47q-21 -1 -44 -5l-103 -1q10 15 21 29l-52 42l-72 54q-15 -21 -27 -33l34 -22q16 -10 35 -26q36 -27 49 -44h-183zM241 251q6 -60 6 -81l-1 -307l-5 -30h48q-1 3 -1 6q-3 6 -4 36l-1 111h479v-56
q0 -22 -4 -30q-4 -9 -19 -14q-22 -4 -42 -5q-10 0 -23 1q-9 0 -28 4q13 -27 19 -51q87 7 112 24q22 15 23 71l1 278l4 43l-57 -6l-461 1q-33 4 -46 5zM283 22v74h479v-74h-479zM283 132v78h479v-78h-479zM873 635q21 0 46 -2q3 0 16 -4v47q-3 0 -7 -1q-21 -4 -55 -5h-284
q21 39 32 52q10 15 27 24q-37 12 -59 24q-18 -64 -64 -128q-54 -67 -93 -93q3 -1 4 -3q9 -3 16 -8q15 -9 23 -17q22 24 41 48q21 25 50 66h307zM529 347q0 -10 -4 -25q-3 -6 -16 -12q15 -24 25 -47q27 15 46 27q18 12 29 16q27 12 55 23q13 7 29 14q0 25 7 49l-39 -23
q-18 -9 -53 -25q-21 -9 -41 -19v187q120 15 223 35q75 15 90 15q4 0 11 -1q-19 31 -28 50q-30 -12 -57 -21q-39 -10 -97 -22q-102 -18 -163 -18q-9 0 -23 1q6 -60 6 -79v-125zM717 510q-22 -12 -45 -20q40 -84 102 -139q40 -36 153 -88q10 18 27 38q3 3 6 9q-105 13 -172 80
q31 30 62 54q33 25 62 27l-20 20q-4 9 -19 27q-24 -27 -49 -49q-24 -22 -62 -52q-40 48 -45 93v0z" />
  </g>

</svg>
