<?xml version="1.0" standalone="no"?>
<!DOCTYPE svg PUBLIC "-//W3C//DTD SVG 1.1//EN" "http://www.w3.org/Graphics/SVG/1.1/DTD/svg11.dtd" >
<svg xmlns="http://www.w3.org/2000/svg" xmlns:xlink="http://www.w3.org/1999/xlink" version="1.1" viewBox="-10 0 1010 1000">
   <path fill="currentColor"
d="M583 -19q55 18 88 33l-5 5q-34 30 -57 65h216q53 -1 117 -10v83q-69 -8 -117 -8h-248q-1 1 -3 4q-33 45 -48 64q134 4 321 -44q56 62 52 73q0 2 -18 2q-17 -1 -24 0q-10 1 -6 1q-60 7 -143 15q18 50 42 82q44 -19 91 -74q51 37 62 56q-19 3 -70 30q-33 17 -53 27
q78 52 178 58q-45 34 -67 79q-188 -67 -248 -250q-20 0 -62 4h-6v115q42 -18 84 -41v75q-78 40 -135 79h208q53 -1 89 -6q-6 42 -6 78v254q4 55 -22 67q-22 16 -118 18q2 -46 -30 -89q98 26 91 -18v-42h-456v34q1 71 8 107h-96q9 -43 10 -105v-214q0 -54 -6 -90q36 7 90 6
h222q-9 -26 -30 -59q30 -13 30 -46v-161l-16 14q-25 -21 -63 -33q88 -79 154 -238zM280 564v48h456v-48h-456zM280 665v48h456v-48h-456zM466 175q-38 -8 -105 -8h-97q-3 19 -6 48q-1 13 -2 18h179q-4 25 -10 69q-15 139 -38 151q-27 21 -111 32q-9 -48 -38 -86q60 10 87 -4
q17 -8 26 -78q3 -16 4 -25h-105q-27 138 -117 230q-33 -37 -81 -53q133 -63 138 -302h-25q-52 0 -107 10v-83q42 9 113 10h79q-4 -35 -26 -92l88 -8q6 50 17 98h34q71 -3 103 -8v81z" />
</svg>
