<?xml version="1.0" standalone="no"?>
<!DOCTYPE svg PUBLIC "-//W3C//DTD SVG 1.1//EN" "http://www.w3.org/Graphics/SVG/1.1/DTD/svg11.dtd" >
<svg xmlns="http://www.w3.org/2000/svg" xmlns:xlink="http://www.w3.org/1999/xlink" version="1.1" viewBox="-10 0 1034 1024">
  <g transform="matrix(1 0 0 -1 0 820)">
   <path fill="currentColor"
d="M333 225v-273q0 -21 -9 -29q-9 -6 -27 -8q-24 -1 -37 -2q-10 1 -26 4q16 -45 17 -50q78 6 98 21q21 15 22 47l1 734l4 40q-27 -1 -55 -5l-144 1q-12 3 -37 4q1 -28 5 -58l-2 -376l-10 -148q-6 -46 -16 -99q-15 -57 -30 -88q-19 -34 -49 -58q28 -6 65 -18q37 93 55 167
q15 72 22 194h153zM181 261l3 181h149v-181h-152zM184 478v190h149v-190h-149zM966 720l-57 -6l-466 1l-14 2q-3 0 -12 3v-47q19 4 57 5l482 -3q3 0 10 -2v47zM460 -72q-3 -28 -5 -58h47q-4 30 -5 58v361h407v-334q0 -27 -16 -36q-12 -7 -35 -8q-18 0 -52 4q13 -27 19 -48
l50 7q24 3 37 8q33 9 34 62l1 339l6 48l-58 -7l-399 1q-9 1 -19 4q-4 0 -17 2q1 -27 5 -56v-347zM512 453q-3 -27 -5 -55q54 6 74 6l268 -1q9 0 35 -5q-4 45 -5 69q0 93 2 104q0 15 3 29q-24 -1 -49 -5l-288 1q-15 3 -40 4q1 -25 5 -53v-94zM841 440h-292v119h292v-119z
M584 119q-21 1 -43 3q-7 1 -15 4v-48q6 0 13 2q9 3 45 4h85l-1 -184q-3 -15 -4 -26h48q-4 48 -5 89v121q118 0 125 -2q15 0 27 -4v48q-4 0 -7 -2q-3 0 -4 -2l-90 -3h-22q21 30 45 66t31 43q7 9 32 13q-33 18 -59 35q-30 -69 -92 -157h-109zM645 158q12 10 14 11l-33 46
l-42 52q-12 -10 -35 -25q45 -39 76 -98q3 4 12 9q3 3 8 5v0z" />
  </g>

</svg>
