<?xml version="1.0" standalone="no"?>
<!DOCTYPE svg PUBLIC "-//W3C//DTD SVG 1.1//EN" "http://www.w3.org/Graphics/SVG/1.1/DTD/svg11.dtd" >
<svg xmlns="http://www.w3.org/2000/svg" xmlns:xlink="http://www.w3.org/1999/xlink" version="1.1" viewBox="-10 0 1034 1024">
  <g transform="matrix(1 0 0 -1 0 820)">
   <path fill="currentColor"
d="M318 216v-264q0 -34 -18 -41q-15 -6 -44 -6q-15 0 -38 3q13 -24 21 -46l45 6q40 6 58 20q13 12 14 54v313q24 -15 39 -32q81 48 140 91q54 40 113 93q55 -54 153 -104q30 -15 55 -25l92 -34q6 12 12 22q9 10 24 32q-78 1 -151 32q-97 40 -161 105q9 9 19 18l-30 15h19
q-4 24 -5 53v73l136 -86l47 -33l41 -33q3 3 9 14q9 13 18 27q-12 6 -30 18l-93 58l-96 60l198 -1q15 0 30 -5v47l-57 -6h-203q0 69 3 75q1 16 11 32h-57q4 -24 5 -63v-44h-176q-31 0 -58 6v-47q3 0 7 2q63 3 68 4h114q-25 -30 -46 -50q-15 -15 -46 -40q-37 -30 -65 -47
q-24 -12 -55 -22q13 -9 42 -38q54 39 99 77q22 19 49 46q30 27 67 66v-90q0 -24 -5 -53h13q-64 -87 -177 -157q-63 -36 -112 -48l1 410q0 12 3 19q0 9 1 18q-25 -1 -51 -5q-132 0 -154 2q-6 3 -28 3q1 -27 5 -55l-2 -358q-1 -18 -1 -37q0 -33 -2 -64q-7 -147 -33 -221
q-28 -67 -65 -99q4 0 61 -17q21 49 35 85q10 30 19 67q7 36 12 72q4 30 5 51l5 82h151zM168 252l3 183h147v-183h-150zM318 471h-147v198h147v-198zM637 -65q0 -30 -15 -36q-13 -6 -41 -6q-13 0 -46 4q12 -25 18 -49q58 7 71 11q51 10 51 70v173q37 -24 94 -68q3 -3 81 -67
q21 -21 55 -59q10 24 16 29q4 6 11 15l-59 47l-141 108q30 30 76 64q36 27 65 30q-18 25 -31 51q-36 -34 -41 -38q-24 -19 -48 -40q-18 -16 -52 -42q-13 9 -26 16q0 129 3 138q1 13 10 30h-56q4 -24 5 -62v-135l-123 -76q-51 -28 -115 -61q15 -21 25 -45q51 46 213 140v-142
zM569 129q0 3 16 28q0 1 2 2q-28 21 -118 65q0 -1 -2 -4q0 -3 -12 -22q-1 -3 -7 -8q37 -13 65 -29q21 -10 54 -37q0 3 2 5v0z" />
  </g>

</svg>
