<?xml version="1.0" standalone="no"?>
<!DOCTYPE svg PUBLIC "-//W3C//DTD SVG 1.1//EN" "http://www.w3.org/Graphics/SVG/1.1/DTD/svg11.dtd" >
<svg xmlns="http://www.w3.org/2000/svg" xmlns:xlink="http://www.w3.org/1999/xlink" version="1.1" viewBox="-10 0 1010 1000">
   <path fill="currentColor"
d="M675 -13q24 66 33 99h76q80 0 102 -1q29 -1 41 -5v69q-11 -3 -40 -3q-14 -1 -37 -1h-66h-62q77 23 82 34q0 4 -7 7q-12 5 -19 13q-13 15 -28 41q124 0 181 -3q-6 55 0 103h-74q7 -13 6 -36v-8h-171v79q24 -1 70 -1q106 -2 123 -5q-2 15 -2 52v56q2 41 -14 52
q-13 15 -77 33q-6 -35 -30 -70q39 8 51 0q6 -5 6 -15v-46h-127q0 73 1 99q1 32 5 44h-77q2 -7 3 -39q1 -15 1 -39v-65h-103q-3 76 4 111h-72q9 -76 0 -171q12 2 50 3q18 1 46 1h75v-79h-153q-1 31 4 54h-71q6 -56 0 -113q54 3 145 3q-8 -22 -44 -63l83 -10q15 43 32 73h67
q21 -34 32 -95h-155h-73q-23 0 -37 1q-27 0 -36 3v-67q3 3 33 3q14 1 38 1h73h68q-16 -51 -46 -90zM115 50q11 3 29 3q13 1 54 1h82q58 -1 89 -4q-6 36 -6 89v601v12q23 93 -119 111q-6 -51 -34 -89q18 4 47 4q29 -1 35 -6q5 -7 6 -41v-201h-111q-5 219 -74 343
q-40 -31 -79 -39q50 -65 69 -152q19 -80 18 -235v-128q1 -127 0 -194q0 -37 -6 -75zM298 117h-111v149h111v-149zM298 326h-111v141h111v-141zM873 584q-4 38 -4 85v143q0 53 4 73h-81q5 -16 4 -65h-254q-3 27 6 63h-88q6 -19 6 -83v-131q0 -35 -1 -50q-1 -18 -3 -35
q38 7 121 8h155q97 -1 135 -8zM796 653h-256v105h256v-105z" />
</svg>
