<?xml version="1.0" standalone="no"?>
<!DOCTYPE svg PUBLIC "-//W3C//DTD SVG 1.1//EN" "http://www.w3.org/Graphics/SVG/1.1/DTD/svg11.dtd" >
<svg xmlns="http://www.w3.org/2000/svg" xmlns:xlink="http://www.w3.org/1999/xlink" version="1.1" viewBox="-10 0 1034 1024">
  <g transform="matrix(1 0 0 -1 0 820)">
   <path fill="currentColor"
d="M594 213q-3 -9 -5 -21q-7 -60 -34 -125q-4 -9 -8 -20l-33 30l-41 38q-4 -12 -25 -30q21 -15 41 -36q18 -18 37 -36q-18 -43 -62 -89q-42 -40 -81 -55q24 -9 55 -25q76 72 120 142q40 72 59 160l23 108q-36 -1 -73 -5h-49q1 4 4 9q0 1 2 4l18 31q13 24 41 34
q-42 15 -60 30q-12 -49 -51 -117q-30 -49 -50 -74q-16 -19 -48 -39q31 -12 49 -23q22 28 38 51q24 39 37 58h96zM643 391q0 -49 -5 -70h49q-4 57 -5 88v113q30 -33 54 -56q22 -19 50 -41q76 -55 148 -83q22 33 39 46q-67 7 -139 49q-63 37 -108 90l187 -1q12 -1 24 -4v46
q-27 -1 -53 -5h-202l1 148q6 39 8 40q1 4 8 13h-61q4 -109 5 -113v-88l-189 1q-12 1 -26 2l-12 2v-46q18 4 67 5h129q-66 -69 -118 -106q-49 -33 -103 -42q27 -21 45 -40q105 64 207 169v-117zM566 600q4 6 11 11q4 6 11 10l-66 67l-48 51q-1 -1 -2 -4q-3 -1 -5 -5
q-6 -9 -15 -16l-8 -6q42 -33 114 -116q3 4 8 8zM806 24v-111q0 -39 -5 -68h49q-3 15 -4 38l-1 141q99 0 106 -3q4 0 7 -2v46q-27 -1 -54 -5h-59v153q111 0 118 -3q4 0 7 -2v46l-41 -4l-84 -1q0 36 3 58q3 21 15 38h-62q1 -12 3 -21l2 -75q-94 0 -123 2q-4 1 -7 1t-12 2v-46
q54 4 82 5h60v-153h-102q1 6 3 16l6 35q6 37 28 51q-52 6 -63 10l-1 -54q-18 -93 -21 -99q60 4 88 5h62zM775 591q48 55 80 87q24 21 54 30q-24 15 -45 40q-10 -21 -47 -59q-42 -43 -74 -72q21 -15 32 -26zM112 -140q33 69 49 153q10 60 20 200h152v-286q0 -34 -60 -35
q-18 0 -45 4q6 -12 5 -9q4 -10 9 -28q1 -6 4 -12q54 6 76 11q48 13 49 58l1 750l4 46q-66 -4 -102 -5q-66 0 -92 2q-6 3 -42 3q1 -33 5 -67l-1 -417q-6 -118 -13 -173q-1 -1 -1 -6q-9 -60 -33 -118q-18 -43 -51 -72q31 -7 36 -8q6 0 13 -2q3 -1 10 -4q3 7 7 15zM182 460v212
h151v-212h-151zM182 249v175h151v-175h-151z" />
  </g>

</svg>
