<?xml version="1.0" standalone="no"?>
<!DOCTYPE svg PUBLIC "-//W3C//DTD SVG 1.1//EN" "http://www.w3.org/Graphics/SVG/1.1/DTD/svg11.dtd" >
<svg xmlns="http://www.w3.org/2000/svg" xmlns:xlink="http://www.w3.org/1999/xlink" version="1.1" viewBox="-10 0 1034 1024">
  <g transform="matrix(1 0 0 -1 0 820)">
   <path fill="currentColor"
d="M317 196v-258q0 -22 -7 -32q-9 -10 -33 -13l-52 1q-7 1 -13 2q7 -18 18 -50l68 7q36 6 47 22q10 15 11 59l1 730l4 41q-27 -1 -55 -5q-120 0 -144 2q-6 3 -33 3l5 -91l-1 -313l-8 -174q-4 -57 -13 -110q-9 -49 -25 -90q-19 -42 -53 -63q12 -4 26 -9q13 -3 22 -8l10 -7
q33 60 54 153q9 48 14 88q4 48 7 115h150zM168 232l4 193h145v-193h-149zM172 461v204h145v-204h-145zM436 220l-52 4q-3 0 -5 1v-47q18 6 57 6l529 -3q1 0 10 -3v47q-4 0 -7 -1q-3 0 -4 -1q-4 0 -7 -1q-10 0 -39 -2h-120q33 60 46 73q10 13 39 26q-31 15 -57 33
q-34 -76 -74 -132h-64v143l247 -3q3 0 11 -3v47q-4 0 -8 -1q-3 0 -4 -1q-4 0 -7 -1q-21 0 -39 -2h-200v81l172 -1q18 0 31 -4v47q-7 0 -11 -3q-42 0 -85 -3h-107v96l213 -1q1 0 27 -5v47q-4 0 -7 -2q-3 0 -6 -1l-101 -3h-49q27 28 44 49q24 25 32 31q7 6 35 14
q-25 12 -59 37q-39 -66 -97 -131h-117q12 9 24 20q-39 49 -64 74l-24 25q-22 -18 -36 -25q51 -42 85 -94l-133 1q-24 3 -23 2q-4 0 -12 3v-47q18 6 57 6h173v-96h-132q-24 0 -45 3l-12 3v-47q24 4 57 5h132v-81l-219 1q-3 0 -33 4v-47q9 4 26 5l226 1v-143h-59l-90 119
q-21 -19 -37 -28q37 -28 81 -91h-109zM468 -102q0 -52 -5 -73h47q0 9 -1 17q0 12 -3 45h332q-1 -33 -6 -57h50q-4 27 -5 76q0 153 2 165q0 16 3 34q-55 -4 -77 -5l-302 1q-6 1 -13 2q-10 0 -27 2q1 -28 5 -58v-149zM506 -77v141h332v-141h-332z" />
  </g>

</svg>
