<?xml version="1.0" standalone="no"?>
<!DOCTYPE svg PUBLIC "-//W3C//DTD SVG 1.1//EN" "http://www.w3.org/Graphics/SVG/1.1/DTD/svg11.dtd" >
<svg xmlns="http://www.w3.org/2000/svg" xmlns:xlink="http://www.w3.org/1999/xlink" version="1.1" viewBox="-10 0 1010 1000">
   <path fill="currentColor"
d="M677 -10l23 92h129q63 1 96 -8v73q-22 -9 -94 -8h-89q64 30 64 40q-1 3 -11 8q-36 20 -59 55h99q61 1 88 -7v69q-35 -10 -78 -10h-101v68q67 0 90 -1q29 -2 49 -7q-8 42 -8 117h17q45 1 58 -4v59q-16 -7 -75 -6q0 55 2 80q1 29 6 49q-28 -10 -101 -10q59 120 164 185
q-37 23 -65 57q-101 -110 -137 -230v167q0 67 8 89h-71q5 -19 4 -73v-18v-177h-72v167q1 68 10 93h-75q7 -13 6 -75v-18v-155q-39 126 -123 238q-23 -32 -66 -43q103 -87 149 -203q-41 0 -70 8v-71q43 9 100 8h10v-66h-112q-13 207 -121 379q-26 -30 -61 -43q68 -71 95 -179
q25 -135 28 -246v-244q0 -77 -8 -115q63 8 125 8h125q-1 -3 -6 -14q-17 -46 -30 -68zM93 46q42 9 115 8q89 0 123 -6q-10 32 -10 103v603q4 60 -134 72q-2 -48 -24 -86q66 6 79 1q15 -3 14 -30v-181h-89q-13 191 -74 341q-35 -30 -75 -43q46 -69 65 -170q19 -94 18 -269
v-228q0 -72 -8 -115zM256 121h-89v133h89v-133zM444 139v103h104q-4 -35 -28 -71l67 -18l32 74l-42 15h104q33 -61 47 -103h-284zM554 294h-110l-2 181h112v-66q-67 0 -96 8v-65q37 8 96 8v-66zM613 294v68h72v-68h-72zM256 322h-89v141h89v-141zM613 407v68h72v-68h-72z
M744 409v64h73v-64h-73zM613 522v66h72v-66h-72zM744 520v68h73v-68h-73z" />
</svg>
