<?xml version="1.0" standalone="no"?>
<!DOCTYPE svg PUBLIC "-//W3C//DTD SVG 1.1//EN" "http://www.w3.org/Graphics/SVG/1.1/DTD/svg11.dtd" >
<svg xmlns="http://www.w3.org/2000/svg" xmlns:xlink="http://www.w3.org/1999/xlink" version="1.1" viewBox="-10 0 1010 1000">
   <path fill="currentColor"
d="M732 -17q7 19 22 79h52q39 0 60 -1q26 -1 53 -5v69q-63 -8 -109 -8h-193q-36 0 -107 8v-69q28 4 50 5q19 1 53 1h64q-16 -37 -36 -62zM113 38q49 9 177 9q127 0 168 -9q-6 83 0 187q-23 -5 -42 -7q-15 -1 -47 -1h-182q-32 140 -96 220q-29 -35 -69 -48q66 -60 86 -137
q9 -38 11 -88q1 -47 -6 -126zM389 98h-202v67h202v-67zM756 131q9 2 27 7q64 14 60 19q0 2 -5 6q-25 18 -48 62h67q47 0 93 -6v67q-56 -6 -95 -6h-119v62h68q41 -3 101 -6v65q-46 -4 -105 -4h-64q2 15 4 41t4 41h-77q3 -22 3 -38q1 -14 1 -44h-62q-51 0 -95 4v-65q60 6 93 6
h62v-62h-76q-58 0 -103 6v-67q51 6 103 6h133q5 -13 12 -32q16 -35 18 -62zM399 328h-159v71h159v-71zM827 490q-4 60 -4 110v234q2 44 -25 57q-23 14 -123 24q2 -43 -36 -89q76 12 92 2q19 -5 17 -54h-490q-1 77 6 137h-87q7 -69 6 -137v-180q0 -22 -4 -78q-1 -16 -2 -26
q64 6 121 6h422q50 0 107 -6zM748 552h-490v58h490v-58zM748 661h-490v62h490v-62zM567 159l68 -26l14 28q8 13 20 40l-68 20l-8 -16q-20 -41 -26 -46zM179 274q51 5 153 6q97 0 130 -4q-4 26 -4 84t4 91q-43 -4 -141 -5q-99 1 -142 5q6 -45 0 -177z" />
</svg>
