<?xml version="1.0" standalone="no"?>
<!DOCTYPE svg PUBLIC "-//W3C//DTD SVG 1.1//EN" "http://www.w3.org/Graphics/SVG/1.1/DTD/svg11.dtd" >
<svg xmlns="http://www.w3.org/2000/svg" xmlns:xlink="http://www.w3.org/1999/xlink" version="1.1" viewBox="-10 0 1010 1000">
   <path fill="currentColor"
d="M510 246v44h131v-44h-131zM641 330h-131v45h131v-45zM510 415v48h131v-48h-131zM829 546q-6 42 -6 91v197q2 51 -22 63q-20 14 -109 18q-3 -41 -35 -83q96 22 91 -26v-24h-375v42q-1 59 4 85h-83q8 -44 8 -95v-183q0 -53 -6 -83q29 6 91 6h329q48 0 113 -8zM373 598v53
h375v-53h-375zM748 691h-375v51h375v-51zM327 139q70 22 82 34q0 4 -7 8q-13 7 -21 16q-6 7 -15 20q-11 15 -19 25v88q75 -59 123 -193q68 16 78 28q0 2 -5 5q-18 13 -29 37h127q-17 -32 -30 -48l76 -18q3 7 9 22q13 29 18 44h99q31 0 82 -8v51q-27 -4 -83 -4h-106v44h98
q15 0 42 -1q22 -1 31 -1v46q-20 -4 -65 -4h-106v45h98q35 0 75 -4v48q-15 -5 -69 -4h-104v48h123q55 0 88 -6v51q-26 -4 -88 -4h-319l2 26h-68q6 -30 6 -61v-171q-3 5 -10 15q-27 38 -45 60q-21 -23 -48 -39v109q1 59 4 83h-71q6 -26 6 -77v-139q-25 43 -50 71
q-13 -32 -32 -55q100 -104 123 -187zM544 -12q12 35 25 80h215q69 0 125 -8v75q-36 -9 -127 -8h-584v233q5 396 -81 533q-37 -30 -89 -47q53 -73 73 -205q19 -117 18 -395q1 -116 -7 -160q-2 -14 -3 -22q36 3 155 4h224q-8 -14 -20 -38l-12 -24z" />
</svg>
