<?xml version="1.0" standalone="no"?>
<!DOCTYPE svg PUBLIC "-//W3C//DTD SVG 1.1//EN" "http://www.w3.org/Graphics/SVG/1.1/DTD/svg11.dtd" >
<svg xmlns="http://www.w3.org/2000/svg" xmlns:xlink="http://www.w3.org/1999/xlink" version="1.1" viewBox="-10 0 1034 1024">
  <g transform="matrix(1 0 0 -1 0 820)">
   <path fill="currentColor"
d="M137 675q1 -30 3 -49q3 -34 3 -49v-303q0 -93 -12 -185q-12 -75 -39 -144q-15 -30 -36 -64q33 -6 53 -14l37 109q18 64 27 123q9 84 10 179v137l37 -20q27 27 46 52q9 15 21 26v-172q0 -21 -2 -40q0 -18 -4 -35h47q-6 24 -6 74v215q42 57 50 66q9 10 21 18q-19 12 -47 30
q-30 -63 -59 -100q-75 -85 -104 -105v211h452q-15 -15 -18 -21q-7 -4 -9 -8q27 -18 66 -57h-176q18 33 48 50q-33 12 -52 25q-33 -66 -42 -82q-15 -24 -37 -56q-37 -48 -80 -81q21 -9 46 -25q45 69 58 83q6 10 14 18v-193q0 -45 -6 -62h43l-3 34q408 0 429 -3q4 0 11 -2v41
q-33 -1 -65 -5h-165v52q157 0 170 -3q6 0 9 -2v42q-61 -4 -81 -5h-98v53l140 -1q16 0 35 -3v41q-12 -1 -20 -3l-155 -2v58l160 -1q9 0 24 -2q3 0 21 -2v41q-18 -1 -21 -2q-24 -1 -35 -3h-154q9 6 22 17q-39 39 -73 69l241 -1q21 -1 45 -5v46q-49 -4 -65 -5h-280q4 6 7 12
q9 12 19 23q-13 13 -49 40l-51 37q-6 -7 -31 -33q37 -19 49 -28q24 -18 53 -51l-383 1q-19 3 -59 4zM658 343v-52h-171v52h171zM658 428v-53h-171v53h171zM487 460v58h171v-58h-171zM792 -35v-46q0 -25 -17 -31q-9 -1 -40 -2q-6 0 -54 4q10 -15 17 -35q1 -6 3 -13q12 1 26 1
q54 3 73 12q30 16 31 67l1 226q1 27 5 55q-36 -1 -74 -5l-421 1q-19 3 -52 4q4 -54 5 -76l-1 -244l-4 -37h49q-4 27 -5 74v45h458zM334 -2v67h458v-67h-458zM334 100v62h458v-62h-458z" />
  </g>

</svg>
