<?xml version="1.0" standalone="no"?>
<!DOCTYPE svg PUBLIC "-//W3C//DTD SVG 1.1//EN" "http://www.w3.org/Graphics/SVG/1.1/DTD/svg11.dtd" >
<svg xmlns="http://www.w3.org/2000/svg" xmlns:xlink="http://www.w3.org/1999/xlink" version="1.1" viewBox="-10 0 1010 1000">
   <path fill="currentColor"
d="M673 -2q2 7 7 27q9 35 14 59h100q47 -3 101 -6v67q-38 -4 -99 -4h-254q-51 0 -127 6v-71q5 0 14 1q81 8 113 7h81q-10 -37 -38 -78zM103 60q123 9 250 0q-4 49 -4 97v631q2 44 -19 56q-17 15 -106 33q0 -40 -32 -87q57 5 73 -3q18 -7 17 -35v-190h-107q-2 167 -76 325
q-33 -33 -69 -55q79 -113 77 -336v-333q0 -54 -4 -103zM282 127h-107v161h107v-161zM748 157q13 4 38 12q49 14 45 18q-1 2 -6 6q-21 16 -47 47h55q24 0 115 -5v71q-35 -7 -101 -6h-14h-339h-15q-44 -1 -104 6v-73q38 6 115 7h56q-24 -33 -52 -63l83 -16q9 25 23 53
q8 17 11 26h99q24 -46 38 -83zM282 344h-107v162h107v-162zM440 344q85 4 229 4q142 0 196 -4q-4 34 -4 135q0 102 4 154q-45 -4 -207 -5q-162 1 -218 5q6 -56 6 -155q0 -98 -6 -134zM514 399v62h280v-62h-280zM514 512v66h280v-66h-280zM677 651q27 37 53 93l-69 24
q-18 -57 -46 -97zM847 683q58 59 109 137l-71 45q-34 -81 -101 -146zM520 685q7 1 20 2q62 5 59 10q0 1 -1 5q-11 26 -11 90q-1 34 14 42q11 9 68 8q46 2 58 -12q16 -13 31 -70q46 38 71 44q-22 66 -51 80q-24 17 -119 15q-97 1 -117 -14q-23 -10 -20 -69q0 -109 -2 -131z
M421 699q27 7 59 12q21 4 18 6q0 1 -2 3q-23 27 -59 157q-33 -13 -76 -15q47 -74 60 -163z" />
</svg>
