<?xml version="1.0" standalone="no"?>
<!DOCTYPE svg PUBLIC "-//W3C//DTD SVG 1.1//EN" "http://www.w3.org/Graphics/SVG/1.1/DTD/svg11.dtd" >
<svg xmlns="http://www.w3.org/2000/svg" xmlns:xlink="http://www.w3.org/1999/xlink" version="1.1" viewBox="-10 0 1034 1024">
  <g transform="matrix(1 0 0 -1 0 820)">
   <path fill="currentColor"
d="M68 -157q9 0 26 -4q42 106 52 234q3 36 7 109h149v-267q0 -24 -13 -31q-16 -4 -35 -5q-15 0 -39 4q9 -22 17 -50q18 3 39 7q42 7 57 21q12 13 12 51l1 714l4 41q-4 0 -8 -1q-60 -3 -62 -4l-124 1q-15 3 -38 4q1 -28 5 -58l-1 -371q-1 -10 -1 -23q-1 -67 -7 -135
q-9 -96 -29 -157q-12 -43 -43 -78q15 0 31 -2zM156 429v197h146v-197h-146zM153 218l3 175h146v-175h-149zM403 -118q7 -4 15 -9q6 12 12 22q30 52 62 127q10 30 31 42q-36 12 -52 22q-9 -36 -31 -90q-27 -61 -64 -105l15 -5q6 -1 12 -4zM444 498q-25 1 -52 3q-4 1 -8 3v-46
q39 4 60 5l487 -1q6 0 15 -2q1 0 16 -2v46q-13 -3 -59 -6h-150q4 10 11 20l27 46q3 9 23 41q66 0 76 -3q3 0 10 -2v46q-99 -4 -103 -5h-112q9 12 19 22q-73 66 -110 96q-1 -3 -6 -7q0 -1 -3 -3q-16 -16 -21 -19q64 -48 101 -89q-228 0 -239 3q-6 1 -10 2v-46q42 6 67 5h56
q-15 -15 -32 -26q39 -33 73 -81h-136zM625 498l-81 107h221q-13 -31 -26 -53q-12 -21 -32 -54h-82zM462 206q-3 -28 -5 -59q54 6 75 6l305 -1q9 0 19 -3q4 0 17 -2q-4 49 -5 97l1 118l4 40q-30 -6 -73 -6l-305 1q-19 4 -38 5q4 -90 5 -94v-102zM499 297v63h331v-63h-331z
M499 189v72h331v-72h-331zM797 -7q-1 -48 -8 -64q-9 -22 -41 -30q-43 -4 -70 -5q-13 1 -35 3q-30 3 -38 11q-9 10 -9 43l2 97q1 18 11 36h-56q4 -42 5 -72v-72q0 -60 40 -73q30 -9 85 -9q18 0 40 2q49 6 70 18q22 13 37 46q6 15 13 46q-30 12 -46 23zM640 112q33 -39 52 -63
q15 -19 28 -44q12 12 32 25q-12 21 -82 106q-15 -15 -30 -24zM950 -77q24 24 29 28l-72 90q-36 42 -59 68q-15 -15 -30 -23q57 -64 95 -113z" />
  </g>

</svg>
