<?xml version="1.0" standalone="no"?>
<!DOCTYPE svg PUBLIC "-//W3C//DTD SVG 1.1//EN" "http://www.w3.org/Graphics/SVG/1.1/DTD/svg11.dtd" >
<svg xmlns="http://www.w3.org/2000/svg" xmlns:xlink="http://www.w3.org/1999/xlink" version="1.1" viewBox="-10 0 1034 1024">
  <g transform="matrix(1 0 0 -1 0 820)">
   <path fill="currentColor"
d="M210 601q4 -45 5 -62l-1 -686q-1 -18 -4 -26h49q-3 39 -5 70v40h517l-3 -93q-1 -3 -2 -7h50q-3 33 -5 66l1 653l4 45q-34 -1 -70 -5h-327l31 67q12 24 21 41q15 24 37 35q-30 6 -69 20q-4 -27 -15 -54q-6 -18 -19 -42l-32 -67q-94 0 -121 2q-6 3 -42 3zM254 186v165h517
v-165h-517zM254 386v174h517v-174h-517zM254 151h517v-179h-517v179z" />
  </g>

</svg>
