<?xml version="1.0" standalone="no"?>
<!DOCTYPE svg PUBLIC "-//W3C//DTD SVG 1.1//EN" "http://www.w3.org/Graphics/SVG/1.1/DTD/svg11.dtd" >
<svg xmlns="http://www.w3.org/2000/svg" xmlns:xlink="http://www.w3.org/1999/xlink" version="1.1" viewBox="-10 0 1034 1024">
  <g transform="matrix(1 0 0 -1 0 820)">
   <path fill="currentColor"
d="M277 230q-1 -105 -26 -213q-27 -111 -96 -163q30 -9 54 -23q25 39 42 73q30 69 48 165q15 99 16 252v244h334l6 -65q3 -36 12 -99q10 -81 25 -148q18 -70 51 -168q-42 -85 -95 -146q-60 -64 -97 -75q28 -13 51 -33q85 81 162 205q15 -24 25 -42q27 -42 58 -79
q42 -43 71 -44q21 0 32 20q12 24 22 65l6 41q3 15 7 26q-10 4 -19 7q-12 3 -30 14q1 -31 2 -53q0 -18 -4 -35q-10 -33 -27 -34q-16 0 -60 57q-13 18 -27 41q-12 24 -33 69q21 63 42 136q39 172 42 177q6 21 19 35q-34 10 -57 22q-4 -72 -21 -150l-23 -96q-9 -37 -23 -72
q-18 45 -30 90q-10 49 -24 122l-14 97l-10 115l222 -1q12 0 26 -5v49q-6 -1 -12 -4q-12 0 -50 -2h-188q-3 48 -4 82q0 55 15 93q-21 0 -46 5q3 0 -12 2l7 -126q1 -21 2 -56h-313q-9 0 -28 3q-12 0 -34 3l5 -111v-86h-122v155q0 12 3 32q3 19 9 30q1 3 3 6h-58q0 -7 3 -17
l2 -188q-3 -30 -5 -63q4 0 10 1q-1 0 10 1q36 6 66 6h79v-107h-138q-25 0 -53 3q-3 0 -13 2v-48q6 4 70 6q-4 -117 -38 -212q-27 -69 -65 -94q27 -9 54 -20q34 60 55 129q10 36 18 74l16 123h93zM380 466l4 -51l-1 -392q-3 -12 -4 -45q60 6 83 6q165 0 180 -2q6 0 18 -4v48
l-102 -5h-14v129q45 0 59 -2l33 -4q-4 49 -5 75q0 63 2 76q0 15 3 34q-15 -1 -28 -4q-19 -3 -61 -3v112h24q48 0 64 -6v48q-4 0 -61 -5q-135 0 -162 2q-6 3 -33 3q0 -4 1 -10zM421 21v129h86v-129h-86zM421 187v98h173v-98h-173zM421 322v112h89v-112h-89zM786 744
q-10 7 -19 15l-25 -31q78 -63 108 -100q13 18 31 36z" />
  </g>

</svg>
