<?xml version="1.0" standalone="no"?>
<!DOCTYPE svg PUBLIC "-//W3C//DTD SVG 1.1//EN" "http://www.w3.org/Graphics/SVG/1.1/DTD/svg11.dtd" >
<svg xmlns="http://www.w3.org/2000/svg" xmlns:xlink="http://www.w3.org/1999/xlink" version="1.1" viewBox="-10 0 1034 1024">
  <g transform="matrix(1 0 0 -1 0 820)">
   <path fill="currentColor"
d="M365 27q12 4 26 8q0 27 2 53q-33 -18 -56 -27q-30 -12 -91 -33v188l111 -3q6 0 12 -2q-9 -1 -16 -8q-7 -3 -14 -7q-6 -1 -22 -6q18 -7 26 -15q-1 0 11 -9l11 -11q37 27 67 54q30 28 70 70q19 -19 25 -30q21 1 94 14v-93h-131q-33 0 -58 4q-3 0 -7 1v-42q49 6 80 5h100
q-27 -34 -42 -48q-27 -27 -60 -54q-33 -28 -54 -43q-72 -45 -119 -55q19 -12 49 -40q54 31 106 76t85 75q22 21 51 56v-192q0 -24 -3 -53q0 -3 -3 -13h47q-3 15 -4 34l-1 227q25 -19 44 -36l100 -82q25 -21 48 -41q19 -18 47 -49q3 3 9 11q9 15 21 27q-9 9 -86 70
q-1 0 -51 41l-120 89h141q24 0 52 -3q1 0 14 -2v42q-43 -4 -76 -5h-143v99q15 3 29 6q51 12 63 13q7 0 17 -3l-31 40q-49 -18 -98 -25q-45 -6 -78 -9q-27 -3 -53 -3q19 24 35 48q15 24 41 67h135q39 -76 90 -129q58 -63 133 -108q19 18 48 33q-87 36 -143 86q-43 42 -88 118
q130 0 148 -2l26 -3v43q-39 -4 -66 -5h-267q15 45 32 100q225 0 240 -3q1 0 4 -1q1 0 14 -2v43q-19 -3 -27 -4l-223 -1q7 43 13 92q249 -3 258 -6v44q-12 -3 -28 -4l-131 -2h-93q3 27 6 50q3 31 19 50q-36 0 -61 6q-3 -84 -6 -106l-168 1q-25 4 -28 5v-44q15 3 12 3l149 3
h35q-6 -46 -16 -92q-123 0 -145 2q-15 3 -18 3v-43q13 1 16 2q63 3 68 4h71q-6 -27 -16 -50q-7 -22 -20 -50q-102 0 -127 2q-15 3 -22 3v-43q54 4 80 5h56q-39 -63 -62 -90q-58 -66 -106 -97v41q-109 -4 -112 -5h-16v141l92 15q1 -1 3 -4q1 -1 3 -4q12 -27 14 -35l37 30
l-102 161q-22 -18 -35 -26q28 -37 62 -89l-196 -29l76 120q6 9 13 21q31 57 40 64q9 13 37 20q-10 6 -20 11h52q28 0 53 -3l13 -2v46q-3 0 -63 -5l-238 1l-25 3q-4 1 -7 1v-46q51 4 84 5h75q-9 -27 -21 -46q-19 -39 -71 -125q-7 -12 -15 -26q0 -1 -2 -3q-21 -30 -46 -46
q12 -18 20 -43q45 16 129 28v-135l-133 3q-3 1 -13 2v-46q54 4 82 5h64v-198q-72 -24 -170 -45q15 -24 24 -51q108 42 112 43q51 18 191 62v0z" />
  </g>

</svg>
