<?xml version="1.0" standalone="no"?>
<!DOCTYPE svg PUBLIC "-//W3C//DTD SVG 1.1//EN" "http://www.w3.org/Graphics/SVG/1.1/DTD/svg11.dtd" >
<svg xmlns="http://www.w3.org/2000/svg" xmlns:xlink="http://www.w3.org/1999/xlink" version="1.1" viewBox="-10 0 1034 1024">
  <g transform="matrix(1 0 0 -1 0 820)">
   <path fill="currentColor"
d="M364 166l-268 1l-18 2q-3 0 -12 2v-46q33 3 66 5h226q-6 -30 -13 -46q-18 -49 -54 -93q-42 -45 -101 -69q-42 -16 -83 -17q-10 0 -25 1q19 -27 29 -53q108 30 169 76q85 69 118 201h267l-1 -261q-3 -15 -4 -24h49q-3 7 -4 26t-2 37v222q225 0 245 -3l10 -2v46l-63 -5
h-192q0 87 3 92q3 15 11 28h-57q0 -3 2 -8q0 -40 3 -82v-30h-263q1 21 3 41q0 7 2 19q6 33 23 56q-34 0 -66 7v-123zM184 373q-3 -30 -5 -62q30 3 63 5l568 -1l41 -4q-3 30 -5 61l1 287l4 44q-27 -1 -55 -5q-225 0 -242 3q-3 0 -9 2v-46q15 3 31 4l232 1v-139q-210 0 -228 3
l-13 2v-47q24 6 48 6h193v-135h-587v132q214 0 228 -3q6 0 15 -3v48q-18 -6 -63 -6h-180v130q21 7 65 14q9 3 19 3q7 0 27 6l53 13q37 10 76 15q12 0 28 1l-20 25q-6 9 -17 29q-31 -21 -102 -40q-102 -24 -171 -29q1 -31 5 -65v-249z" />
  </g>

</svg>
