<?xml version="1.0" standalone="no"?>
<!DOCTYPE svg PUBLIC "-//W3C//DTD SVG 1.1//EN" "http://www.w3.org/Graphics/SVG/1.1/DTD/svg11.dtd" >
<svg xmlns="http://www.w3.org/2000/svg" xmlns:xlink="http://www.w3.org/1999/xlink" version="1.1" viewBox="-10 0 1010 1000">
   <path fill="currentColor"
d="M433 12q29 48 45 88q-33 -3 -73 2q-20 2 -84 8q-72 8 -69 7v92h52q108 0 146 -8v75q-53 -7 -146 -8h-52v82h502v-84h-119q-44 0 -104 6q-15 1 -23 2v-75q68 8 127 8h119v-90h-109q-74 1 -133 8v-83q76 8 129 8h57q92 0 143 -8q-8 53 -8 133v101q-1 86 8 149
q-54 -8 -156 -8h-314q-3 4 -7 10q-27 39 -58 75h400q79 -1 173 -6q-14 211 -26 316q2 71 -174 93q-6 -44 -44 -101q130 28 135 -42q6 -36 12 -140q3 -39 4 -54h-544q-54 53 -143 125q-23 -36 -73 -62q172 -84 266 -216q-57 0 -127 8q8 -67 8 -143v-83q0 -37 -3 -92
q-2 -31 -3 -49q128 5 266 -44zM187 633l75 6q-11 84 -32 201l-87 -14q42 -79 44 -193zM663 600q17 34 49 148l-75 20q-20 -108 -50 -155zM383 631l36 159l-80 14q1 -83 -27 -163zM514 619l53 143l-75 18q-23 -112 -52 -151z" />
</svg>
