<?xml version="1.0" standalone="no"?>
<!DOCTYPE svg PUBLIC "-//W3C//DTD SVG 1.1//EN" "http://www.w3.org/Graphics/SVG/1.1/DTD/svg11.dtd" >
<svg xmlns="http://www.w3.org/2000/svg" xmlns:xlink="http://www.w3.org/1999/xlink" version="1.1" viewBox="-10 0 1034 1024">
  <g transform="matrix(1 0 0 -1 0 820)">
   <path fill="currentColor"
d="M154 104q45 36 59 48l67 60h595l-9 -208q-7 -67 -27 -88q-24 -21 -100 -22q-30 0 -56 6q7 -18 15 -53q154 7 186 62q9 15 13 46q3 18 5 48l4 82q3 94 7 115l8 54l-58 -6h-553q31 36 45 46q13 12 43 23q-15 7 -49 34q-3 3 -8 6q-21 -40 -60 -86q-72 -76 -125 -114
q-43 -27 -81 -37q28 -18 51 -40q13 12 28 24zM166 -73q22 -9 46 -24q60 102 71 124q21 40 48 60q-30 9 -52 21q-12 -37 -45 -94q-42 -69 -68 -87zM391 92q9 -16 17 -30q3 -6 20 -44q22 -55 30 -86q0 -3 2 -8q15 10 42 20q-31 76 -73 164q-12 -6 -22 -10q-4 0 -16 -6z
M547 112q13 -19 36 -62q15 -33 20 -48q6 -18 13 -40q3 1 10 6q15 9 31 14q-30 66 -73 148q-21 -12 -37 -18zM809 31l-28 53q-21 37 -46 77q-9 -7 -17 -11q-6 -3 -18 -6q27 -39 49 -83q24 -46 33 -73q16 10 40 22q-7 10 -13 21zM182 416q0 -25 -6 -62q31 3 64 5l565 -1l41 -4
q-3 30 -5 61l1 245q0 19 4 44q-27 -1 -55 -5l-220 1q-9 1 -15 2q-3 0 -12 2v-46q15 3 30 4l229 1v-112q-202 0 -218 3l-13 2v-46q6 0 13 3l152 2h66v-120h-584v116q192 0 215 -3q3 0 9 -3v47q-9 -3 -27 -4l-197 -1v104q162 39 195 44q42 9 74 8q-18 19 -25 32q-4 9 -12 22
q-34 -21 -102 -39q-108 -25 -173 -30q6 -60 6 -65v-207z" />
  </g>

</svg>
