<?xml version="1.0" standalone="no"?>
<!DOCTYPE svg PUBLIC "-//W3C//DTD SVG 1.1//EN" "http://www.w3.org/Graphics/SVG/1.1/DTD/svg11.dtd" >
<svg xmlns="http://www.w3.org/2000/svg" xmlns:xlink="http://www.w3.org/1999/xlink" version="1.1" viewBox="-10 0 1034 1024">
  <g transform="matrix(1 0 0 -1 0 820)">
   <path fill="currentColor"
d="M249 -102q0 -25 -2 -52l-1 -2q0 -3 -3 -13h50q-6 51 -5 83h454v-14q0 -46 -6 -67h50q-3 33 -5 67v314q45 -28 84 -50q39 -19 95 -43q12 22 33 48q-81 15 -159 60q-100 60 -161 144l233 -1l42 -6v48q-22 -6 -66 -6h-464l48 98h318q15 0 50 -3q6 0 15 -3v47q-27 -4 -65 -5
h-305q13 36 28 79h330q18 0 50 -3q6 0 16 -4v48q-24 -4 -66 -5h-320q9 54 25 75q3 6 19 30q-39 3 -54 8q-7 3 -13 4q0 -54 -20 -117l-301 1q-33 0 -48 4v-48q3 1 7 3q1 1 4 1q6 3 56 3h272q-12 -39 -29 -79q-246 3 -254 5v-47q3 0 7 2q6 0 12 2l106 2h114q-21 -48 -50 -98
l-286 3l-13 3v-48q3 1 7 2q0 1 2 2q28 1 59 3h206q-66 -87 -139 -144q-76 -57 -173 -94q15 -7 25 -19q7 -7 21 -22q63 36 170 116v-312zM622 373q51 -72 110 -123l-181 3q-4 0 -8 2v-47q30 6 60 6h139v-113q-126 0 -153 2q-1 0 -27 3v-46q21 3 67 4h113v-116h-454v113
q132 0 151 -2q15 0 27 -4v46q-24 -3 -66 -4h-112v96l74 20l62 14q42 10 73 13q-15 15 -36 46q-27 -15 -78 -30q-66 -18 -109 -26q36 36 72 78q33 39 51 65h225z" />
  </g>

</svg>
