<?xml version="1.0" standalone="no"?>
<!DOCTYPE svg PUBLIC "-//W3C//DTD SVG 1.1//EN" "http://www.w3.org/Graphics/SVG/1.1/DTD/svg11.dtd" >
<svg xmlns="http://www.w3.org/2000/svg" xmlns:xlink="http://www.w3.org/1999/xlink" version="1.1" viewBox="-10 0 1034 1024">
  <g transform="matrix(1 0 0 -1 0 820)">
   <path fill="currentColor"
d="M907 708q-27 22 -48 51q-27 -10 -99 -29q-67 -13 -156 -26q-88 -12 -170 -19l-110 -6q-57 -3 -108 -3q-34 3 -97 8q16 -21 25 -50l215 8q69 3 138 10l126 15l171 25l58 9q16 1 28 4q12 0 27 3zM225 311l213 32q18 0 47 5q-18 18 -40 52q-12 -6 -28 -12l-106 -26
q-4 0 -8 -1q-78 -10 -90 -12q-12 1 -31 3q4 -45 5 -60l-1 -415q-1 -18 -4 -26h49q-4 15 -5 35l-1 45h606q0 -39 -5 -65q-1 -1 -1 -4h50q-3 33 -5 67l1 384l4 48q-33 -1 -68 -5l-213 3l-6 2v-47q3 0 7 2q0 1 39 4h197v-145q-210 3 -220 5v-47q30 6 60 6h160v-172h-606v166
h174q21 0 50 -3q6 0 16 -3v46q-51 -4 -78 -5h-162v143zM342 430q3 1 6 4q4 1 8 4q-24 39 -27 43l-71 108q-18 -12 -41 -23q18 -18 49 -63q30 -48 53 -87q7 3 15 9q3 3 8 5zM542 425q21 15 40 23q-15 33 -62 121q-9 18 -24 45q-18 -10 -40 -21q19 -27 24 -36q10 -16 25 -45
q27 -57 37 -87zM722 438q18 25 38 49q16 21 32 44q13 19 28 37q21 28 48 46q-33 12 -61 29q-18 -42 -42 -78q-34 -51 -58 -81q-21 -24 -54 -54q7 -1 32 -14q9 -7 13 -9q12 16 24 31v0z" />
  </g>

</svg>
