<?xml version="1.0" standalone="no"?>
<!DOCTYPE svg PUBLIC "-//W3C//DTD SVG 1.1//EN" "http://www.w3.org/Graphics/SVG/1.1/DTD/svg11.dtd" >
<svg xmlns="http://www.w3.org/2000/svg" xmlns:xlink="http://www.w3.org/1999/xlink" version="1.1" viewBox="-10 0 1034 1024">
  <g transform="matrix(1 0 0 -1 0 820)">
   <path fill="currentColor"
d="M853 73q-4 -48 -11 -80q-13 -57 -36 -69q-21 -12 -57 -12q-24 0 -73 8q3 -6 6 -18q7 -24 9 -32q18 0 33 2q54 1 83 10q24 6 45 27q19 21 34 105l9 58q3 16 8 40q-60 -4 -67 -5h-318l16 72l269 -1l47 -4q-4 49 -5 98l1 95l4 46l-64 -6l-554 1q-24 4 -48 5q1 -31 5 -64
q0 -112 -2 -141q-3 -3 -3 -34q30 3 63 5h246q-6 -37 -15 -72l-324 1q-7 1 -18 2q-1 0 -8 2v-44q6 3 33 4l300 1q-36 -76 -137 -130q-79 -39 -205 -47q21 -27 29 -50q286 55 359 227h346zM226 212v68h271v-68h-271zM226 313v62h271v-62h-271zM535 212v68h273q-1 -33 -1 -68
h-272zM807 313h-272v62h273q-1 -30 -1 -62zM166 527l-6 -61q51 4 103 5l565 -1q15 0 47 -4q-4 49 -5 69l1 132l4 43q-54 -4 -67 -5l-229 1q-9 1 -16 1q-4 0 -12 3v-44q4 3 26 5l255 1v-68l-254 3l-6 2v-44q1 1 3 1q1 1 5 1q1 1 3 1q6 3 57 3h192v-67h-630v61l237 -1
q21 0 34 -4v44q-21 -4 -66 -5h-205v64q82 9 193 30q30 4 49 10q24 4 41 5q-28 28 -37 44q-13 -7 -33 -16q-9 -1 -108 -26l-113 -17l-34 1q6 -54 6 -70v-97z" />
  </g>

</svg>
