<?xml version="1.0" standalone="no"?>
<!DOCTYPE svg PUBLIC "-//W3C//DTD SVG 1.1//EN" "http://www.w3.org/Graphics/SVG/1.1/DTD/svg11.dtd" >
<svg xmlns="http://www.w3.org/2000/svg" xmlns:xlink="http://www.w3.org/1999/xlink" version="1.1" viewBox="-10 0 1010 1000">
   <path fill="currentColor"
d="M812 14q11 15 29 40q43 56 36 58q-2 3 -16 1q-31 -5 -61 -3q-460 28 -651 45q-1 -46 -32 -87q64 7 163 7q99 -1 207 -9q222 -18 325 -52zM734 147q11 6 30 16q72 37 65 40q-2 6 -10 12q-15 11 -29 27q-14 17 -67 94q-16 23 -23 33q-34 -20 -67 -35q55 -70 101 -187z
M502 167q27 74 46 143l-86 16q-9 -66 -45 -137zM234 189q49 63 87 131l-79 36q-36 -80 -87 -133zM433 367q67 79 59 82q-3 1 -15 0q-35 -4 -70 0q-52 6 -133 14q-27 3 -38 4v101h95q87 -2 115 -6v83q-27 -8 -111 -10h-99v105h522v-99h-101q-64 0 -84 1q-25 1 -35 3v-81
q30 6 123 10h97v-103h-93q-102 -1 -127 8v-84q30 8 123 8h83q30 -1 69 -3q23 -1 28 -1q-8 27 -8 151v165q0 142 10 166h-91q0 -12 6 -73h-522q-2 13 4 75h-93q14 -68 14 -164v-181q0 -96 -6 -131q137 7 278 -40z" />
</svg>
