<?xml version="1.0" standalone="no"?>
<!DOCTYPE svg PUBLIC "-//W3C//DTD SVG 1.1//EN" "http://www.w3.org/Graphics/SVG/1.1/DTD/svg11.dtd" >
<svg xmlns="http://www.w3.org/2000/svg" xmlns:xlink="http://www.w3.org/1999/xlink" version="1.1" viewBox="-10 0 1034 1024">
  <g transform="matrix(1 0 0 -1 0 820)">
   <path fill="currentColor"
d="M280 662l15 15l62 -42q21 -10 39 -26q18 -12 35 -24q63 -48 93 -77q15 30 24 41l-231 163q16 16 34 29q-22 9 -51 28q-9 -21 -25 -46q-57 -85 -91 -124q-87 -91 -147 -121q18 -9 40 -27q6 -3 9 -7q39 36 86 86q51 57 71 83q18 25 37 49zM284 323q-189 0 -201 3q-4 1 -8 1
q-3 1 -5 2v-48q6 3 13 3l50 4h151v-120q-76 0 -102 2q-6 3 -38 3q1 -33 5 -66l-1 -210q-1 -9 -2 -38q-1 -3 -1 -8q-1 -1 -1 -5h49q-3 3 -4 24q-1 30 -2 47h242q0 -43 -3 -59q-1 -1 -2 -10h51q-6 24 -6 53l1 223q1 24 5 49q-76 -4 -115 -5h-38v120q129 0 147 -3q9 0 24 -4v48
q-21 -6 -61 -6h-110v127l138 -3q3 0 11 -3v47q-21 -4 -60 -5l-267 5v-47q4 3 53 6h87v-127zM187 -49v181h242v-181h-242zM978 361l-56 -4l-376 1q-21 3 -20 2q-6 0 -12 2v-46q9 3 64 6l154 1v-397q0 -27 -13 -36q-18 -10 -58 -11q-21 0 -67 6q6 -15 8 -24q0 -6 4 -23
q42 3 85 5q42 6 63 23q15 15 16 51v406l157 -1q-39 -82 -74 -126q33 -4 50 -10l44 85l42 91q-6 0 -11 -1zM800 372q9 12 22 24l-14 12l-35 29l-17 17l51 56q18 19 33 40l68 86l40 56q-34 -1 -69 -5l-319 3q-3 0 -7 1q-3 1 -5 1v-47q4 3 53 6h267q-43 -70 -142 -175
q-15 12 -28 24l-66 53q-10 -15 -31 -33q22 -13 41 -26q21 -15 56 -44q36 -28 55 -47q16 -15 39 -43q3 6 8 12v0z" />
  </g>

</svg>
