<?xml version="1.0" standalone="no"?>
<!DOCTYPE svg PUBLIC "-//W3C//DTD SVG 1.1//EN" "http://www.w3.org/Graphics/SVG/1.1/DTD/svg11.dtd" >
<svg xmlns="http://www.w3.org/2000/svg" xmlns:xlink="http://www.w3.org/1999/xlink" version="1.1" viewBox="-10 0 1010 1000">
   <path fill="currentColor"
d="M284 -17q80 30 91 45q-3 3 -13 9q-24 13 -35 33q107 62 217 131q-41 24 -68 59q-64 -72 -186 -139q-42 48 -113 133l31 2h125q62 0 98 -6v70q-13 -3 -33 -3q-16 -1 -69 -1v93q130 0 149 -6v74q-14 -3 -41 -3q-13 -1 -36 -1h-72v87q86 0 143 -8q-6 29 -6 155q0 105 6 158
h-85q4 -30 4 -63h-191q0 58 4 83h-87q8 -43 8 -168q0 -144 -6 -165q50 8 139 8v-89h-95q-55 0 -80 4v-72q13 3 29 3q13 1 53 1h93v-91q-85 0 -103 6v-50q-36 41 -82 80q-17 -37 -61 -62q172 -101 272 -307zM518 42q74 10 196 10q154 0 224 -10q-85 153 -174 248q27 21 48 42
l-42 35q137 -1 196 -4q-20 83 -65 209q-38 -23 -86 -20q42 -57 56 -117h-111v363q2 69 -22 84q-18 19 -127 33q-4 -45 -40 -95q75 8 91 0q22 -7 21 -40v-345h-46q-64 0 -87 1q-28 1 -44 5v-81q46 9 129 9h93q-43 -59 -151 -113l54 -53q55 31 81 51l100 -139h-135
q-109 2 -153 13q-4 1 -6 1v-87zM391 619h-189v123h189v-123z" />
</svg>
