<?xml version="1.0" standalone="no"?>
<!DOCTYPE svg PUBLIC "-//W3C//DTD SVG 1.1//EN" "http://www.w3.org/Graphics/SVG/1.1/DTD/svg11.dtd" >
<svg xmlns="http://www.w3.org/2000/svg" xmlns:xlink="http://www.w3.org/1999/xlink" version="1.1" viewBox="-10 0 1034 1024">
  <g transform="matrix(1 0 0 -1 0 820)">
   <path fill="currentColor"
d="M918 404q10 -6 22 -12q12 21 40 49q-106 22 -232 98q-147 85 -213 177q10 12 30 20q-36 19 -53 36q-15 -27 -44 -64q-51 -57 -123 -117q-75 -63 -135 -98q-93 -55 -160 -73q22 -15 46 -40q46 24 80 45q30 18 53 33q42 27 96 68q87 67 180 160q42 -48 87 -86
q39 -34 109 -79q63 -42 132 -76zM492 313l-338 1q-15 3 -33 3q-3 1 -5 1v-47q4 3 54 6h322v-116l-210 1q-48 6 -50 6q1 -31 5 -65l-1 -225q-3 -31 -4 -51h49q-3 15 -4 40l-1 53h481q-3 -78 -5 -89h50q-3 15 -4 39l-1 233q1 33 5 65l-68 -7h-203v116l339 -1q21 0 38 -5v47
q-19 -4 -61 -5h-316v124q177 0 200 -2q12 0 24 -4v47q-18 -4 -61 -5l-382 1q-24 3 -39 4v-47q15 4 35 5l184 1v-124zM276 -48v175h481v-175h-481z" />
  </g>

</svg>
