<?xml version="1.0" standalone="no"?>
<!DOCTYPE svg PUBLIC "-//W3C//DTD SVG 1.1//EN" "http://www.w3.org/Graphics/SVG/1.1/DTD/svg11.dtd" >
<svg xmlns="http://www.w3.org/2000/svg" xmlns:xlink="http://www.w3.org/1999/xlink" version="1.1" viewBox="-10 0 1010 1000">
   <path fill="currentColor"
d="M815 -10q57 72 62 96q-1 3 -23 1q-56 -4 -114 -1q-115 6 -488 33q-76 6 -109 8q-6 -46 -32 -85q47 7 140 7q96 -1 214 -10q257 -20 350 -49zM706 112q88 32 102 43q-3 3 -10 9q-57 49 -106 112h120q53 -1 115 -4q-3 41 -4 64v18q0 59 4 83h-94q2 -12 3 -32q1 -16 1 -57
h-678q0 82 6 113h-94q7 -45 8 -103v-10q-1 -44 -4 -76q65 4 117 4h78q-37 -68 -68 -95l74 -42q28 28 67 98l-63 39h339q41 -43 87 -164zM500 121q24 38 52 117l-82 22q-26 -79 -55 -117zM250 362q69 18 93 33q0 3 -8 11q-22 24 -39 55h65q78 -1 125 -6q-42 329 -339 460
q-9 -22 -76 -69q142 -38 231 -139q-61 -60 -94 -72l66 -61q39 39 65 85q35 -48 56 -139h-135q-23 30 -59 76q-49 64 -56 71q-37 -28 -80 -40q115 -81 185 -265zM665 365q81 2 93 12q0 1 -1 3q-15 27 -15 87h16q93 0 115 -4v75q-33 -6 -117 -6h-12v139h32q73 -1 127 -10v77
q-22 -4 -59 -5q-38 -2 -66 0h-34v29q1 110 10 143h-93q11 -67 12 -139v-31h-24q-105 1 -153 5q6 -82 6 -117v-37q0 -70 -6 -127q69 6 141 6h36q0 -66 -7 -96q-1 -3 -1 -4zM573 530v141h100v-141h-100z" />
</svg>
