<?xml version="1.0" standalone="no"?>
<!DOCTYPE svg PUBLIC "-//W3C//DTD SVG 1.1//EN" "http://www.w3.org/Graphics/SVG/1.1/DTD/svg11.dtd" >
<svg xmlns="http://www.w3.org/2000/svg" xmlns:xlink="http://www.w3.org/1999/xlink" version="1.1" viewBox="-10 0 1034 1024">
  <g transform="matrix(1 0 0 -1 0 820)">
   <path fill="currentColor"
d="M403 508q-4 -66 -22 -151l-34 -121q-102 79 -116 90q-12 -19 -29 -36q79 -48 131 -97q-57 -133 -183 -223q-49 -33 -98 -43q27 -24 41 -43q57 34 94 63q33 24 62 52q78 78 126 193q10 30 27 92q15 64 26 117l18 108q1 18 8 40q-30 -1 -60 -5h-155q7 25 37 142q7 27 30 45
q-22 1 -35 5q-15 4 -29 10q0 -37 -21 -129q-36 -141 -93 -234q-24 -43 -45 -68q-15 -18 -40 -31q24 -9 54 -25q42 63 70 115q27 52 61 134h175zM730 154l-1 -272q-1 -7 -2 -20q0 -6 -3 -15h49q-3 9 -3 19q0 27 -2 45v243q192 0 198 -3q3 0 7 -2v46q-10 -1 -22 -4l-183 -1
v310q153 0 167 -2q6 0 17 -4v47q-12 -3 -23 -4l-161 -1v167q0 9 2 27q3 19 13 36h-59q0 -3 3 -9l3 -109v-112q-204 0 -224 3q-3 0 -9 2v-47q12 6 52 6h181v-310h-189l35 192q7 31 27 49q-34 6 -61 12q0 -24 -7 -75q-6 -45 -14 -83q-19 -100 -29 -136q51 4 76 5h162z" />
  </g>

</svg>
