<?xml version="1.0" standalone="no"?>
<!DOCTYPE svg PUBLIC "-//W3C//DTD SVG 1.1//EN" "http://www.w3.org/Graphics/SVG/1.1/DTD/svg11.dtd" >
<svg xmlns="http://www.w3.org/2000/svg" xmlns:xlink="http://www.w3.org/1999/xlink" version="1.1" viewBox="-10 0 1034 1024">
  <g transform="matrix(1 0 0 -1 0 820)">
   <path fill="currentColor"
d="M415 486q87 -31 174 -110l24 39q-19 13 -54 36l-118 73q-13 -18 -26 -38zM268 306h-140q-40 0 -66 5v-46q49 6 101 5h102q1 -126 -21 -203q-22 -75 -84 -142q-22 -24 -41 -36q-15 -10 -50 -29q33 -21 42 -30l5 -5q45 43 59 59q52 57 82 115q24 49 35 111q10 57 11 160
h439v-307q0 -24 -4 -34q-6 -12 -23 -22q-19 -9 -66 -10q-12 0 -52 7q18 -27 26 -54q52 6 69 9q49 9 69 28q21 19 21 67v316h120q30 0 64 -5v46q-34 -4 -64 -5h-120l1 286q0 19 4 47q-55 -4 -82 -5h-264q15 33 25 58q12 27 17 35q10 16 35 33q-27 6 -66 25q-15 -78 -52 -151
q-79 0 -102 2q-6 3 -35 3q1 -33 5 -66v-267zM305 306v292h437v-292h-437zM411 168q85 -28 186 -105q12 24 25 39q-28 18 -62 37l-125 68q-7 -15 -15 -27q3 3 -9 -12v0z" />
  </g>

</svg>
