<?xml version="1.0" standalone="no"?>
<!DOCTYPE svg PUBLIC "-//W3C//DTD SVG 1.1//EN" "http://www.w3.org/Graphics/SVG/1.1/DTD/svg11.dtd" >
<svg xmlns="http://www.w3.org/2000/svg" xmlns:xlink="http://www.w3.org/1999/xlink" version="1.1" viewBox="-10 0 1034 1024">
  <g transform="matrix(1 0 0 -1 0 820)">
   <path fill="currentColor"
d="M311 405q9 9 20 14l-26 37q-19 25 -39 54q-3 6 -22 28q-13 -15 -32 -28q55 -55 84 -117zM365 285v-318q0 -33 -12 -40q-24 -10 -47 -11q-21 0 -42 8q9 -21 16 -50q84 7 108 28q15 15 15 54l1 628l4 48q-33 -1 -67 -5h-86q12 33 23 54q4 15 14 29q10 21 32 34
q-45 16 -60 27q-10 -43 -23 -78q-12 -33 -28 -66q-37 3 -76 5q1 -33 5 -66v-246q-78 3 -86 5v-46q3 1 7 2q1 1 38 4h41q0 -58 -4 -104q-1 -39 -5 -71q-3 -48 -18 -103q-21 -79 -68 -132q27 -9 50 -24q33 58 52 125q15 57 21 118q3 36 6 81q3 48 4 110h185zM180 320v271h185
v-271h-185zM218 208q51 -69 80 -131q12 9 10 8q12 12 22 16q1 1 3 2q-21 31 -44 73q-21 33 -36 54q-12 -7 -23 -16zM474 -153q42 37 70 68q27 28 60 74q69 93 95 214q6 39 10 77q3 40 3 104q0 75 5 99q3 27 14 45q-30 3 -60 4q6 -30 6 -103q0 -156 -20 -244
q-31 -123 -132 -229q-49 -51 -119 -88q25 -15 51 -38q7 9 17 17zM748 152q0 18 4 32q3 15 13 29h-60q0 -1 1 -5q3 -15 4 -56v-231q0 -43 30 -57q24 -12 104 -12q64 0 95 30q25 24 42 99q-22 6 -43 21q0 -27 -4 -46q-7 -33 -28 -51q-24 -15 -62 -16q-33 0 -58 4t-32 15
q-6 7 -6 41v203zM509 696l6 -66l-1 -407q-3 -24 -3 -38l-2 -9h49q-3 33 -5 67v412h276v-402q0 -51 -5 -67h50q-3 7 -6 64l1 400q0 16 5 46q-33 -1 -68 -5l-251 1q-15 3 -46 4v0z" />
  </g>

</svg>
