<?xml version="1.0" standalone="no"?>
<!DOCTYPE svg PUBLIC "-//W3C//DTD SVG 1.1//EN" "http://www.w3.org/Graphics/SVG/1.1/DTD/svg11.dtd" >
<svg xmlns="http://www.w3.org/2000/svg" xmlns:xlink="http://www.w3.org/1999/xlink" version="1.1" viewBox="-10 0 1010 1000">
   <path fill="currentColor"
d="M250 2q92 6 105 16q0 3 -6 10q-31 34 -43 97h37q68 0 109 -8q0 3 -1 9q-7 65 -7 107v521q3 78 -22 92q-21 20 -130 27q-3 -59 -26 -101q116 23 109 -22v-263h-167q-1 274 -89 408q-29 -35 -73 -57q92 -101 91 -351q-63 -1 -85 7v-83q38 8 89 8v-196q0 -61 -8 -106
q51 8 101 8q12 -49 16 -123zM548 66q36 9 113 8h63q60 0 103 -8q-21 165 -19 224q18 35 129 0q-14 44 -12 95q-24 2 -112 2q-59 -4 -70 -19q-15 -13 -11 -68q2 -28 4 -80q2 -56 4 -79h-107q2 112 -17 159q-20 55 -82 113q-39 -40 -82 -51q60 -21 82 -64q21 -37 22 -133
q0 -57 -8 -99zM212 193v226h163v-226h-163zM321 246q7 51 8 119l-65 8q3 -65 -8 -123zM319 536q3 32 4 90q1 28 2 43l-69 8q0 -69 -1 -93q-1 -30 -3 -44zM635 721q-65 -72 -115 -197l55 -28q-28 0 -62 4q-10 2 -15 2v-83q25 5 49 6q24 2 72 2h135q62 0 113 -8
q-42 193 -123 300q82 49 196 67q-35 38 -57 95q-111 -41 -189 -105q-76 68 -176 113q-24 -41 -72 -67q115 -39 189 -101zM593 494q42 120 92 177q51 -76 83 -177h-175z" />
</svg>
