<?xml version="1.0" standalone="no"?>
<!DOCTYPE svg PUBLIC "-//W3C//DTD SVG 1.1//EN" "http://www.w3.org/Graphics/SVG/1.1/DTD/svg11.dtd" >
<svg xmlns="http://www.w3.org/2000/svg" xmlns:xlink="http://www.w3.org/1999/xlink" version="1.1" viewBox="-10 0 1034 1024">
  <g transform="matrix(1 0 0 -1 0 820)">
   <path fill="currentColor"
d="M313 398q10 10 25 17q-52 69 -85 117l-14 -12t-22 -13q51 -46 84 -118zM143 329l-90 4q-3 0 -6 1v-48q13 6 62 7h34l-3 -102q-1 -37 -5 -68q-4 -45 -20 -96q-28 -93 -71 -136q40 -12 49 -20q51 102 71 190q7 39 11 80q1 24 3 59l2 93h189v-324q0 -30 -14 -37
q-18 -9 -62 -10q-24 3 -46 3q12 -30 15 -47q36 1 57 6q36 4 60 17q27 15 27 55l1 612q0 16 5 52q-69 -6 -101 -6h-62q12 36 29 73q18 40 44 58q-4 1 -7 3q-7 3 -13 5l-45 18q0 -12 -4 -27q-3 -16 -16 -51q-9 -33 -16 -49q-3 -12 -12 -30q-22 0 -71 6q1 -33 5 -68v-223z
M180 329v250h189v-250h-189zM321 101q12 7 10 6l1 1q-58 108 -76 136q-24 -18 -39 -23q46 -54 77 -138q9 7 16 11q4 4 11 7zM604 385h161v-424q0 -37 19 -56q18 -21 87 -21q30 0 51 7q27 10 42 40q4 10 9 24q4 18 12 56q-18 3 -44 17q-1 -45 -3 -51q-4 -31 -22 -47
q-10 -9 -39 -9q-51 0 -66 16q-9 12 -9 50q0 373 2 391q1 24 5 48q-33 -1 -68 -5l-132 1l-47 4q1 -34 5 -70l-2 -176q-1 -4 -1 -10q-4 -81 -13 -114q-16 -78 -73 -133q-28 -27 -67 -48q18 -12 43 -32q33 30 56 56q69 76 82 168q4 39 8 86q3 45 4 83v149zM445 531q16 6 49 7
l416 -1q27 0 36 -4q1 0 5 -2v48q-25 -6 -66 -6l-407 1l-19 3q-7 0 -14 2v-48zM564 743q52 -39 149 -141q12 21 29 34q-21 21 -41 40q-85 81 -108 99q-12 -18 -29 -32v0z" />
  </g>

</svg>
