<?xml version="1.0" standalone="no"?>
<!DOCTYPE svg PUBLIC "-//W3C//DTD SVG 1.1//EN" "http://www.w3.org/Graphics/SVG/1.1/DTD/svg11.dtd" >
<svg xmlns="http://www.w3.org/2000/svg" xmlns:xlink="http://www.w3.org/1999/xlink" version="1.1" viewBox="-10 0 1010 1000">
   <path fill="currentColor"
d="M248 -6q78 7 99 18q0 3 -7 9q-34 29 -52 110q91 0 147 -10q-1 6 -2 17q-6 62 -6 110v572q2 36 -23 49q-24 15 -112 32q5 -40 -20 -85q58 3 72 -5q16 -6 15 -37v-276h-161q1 253 -91 399q-22 -39 -65 -63q52 -61 70 -132q19 -71 19 -204q-43 0 -77 6v-83q50 8 77 8v-187
q0 -74 -8 -119q42 11 103 10q16 -63 22 -139zM704 14q97 0 102 10q1 2 -3 9q-21 31 -21 80v254q3 -4 9 -13q88 -115 90 -133q78 43 83 57q0 2 -12 10q-27 15 -41 30q-18 19 -54 58q-56 60 -75 79v276q-1 58 9 67q7 13 50 12q32 1 39 -14q9 -12 13 -75q44 21 81 30q3 1 2 1
q-24 92 -48 107q-13 10 -36 13q-17 3 -73 3q-80 2 -91 -18q-9 -10 -12 -31q-2 -17 -2 -74v-589q0 -80 -10 -149zM504 24q75 0 91 12q3 3 -1 12q-17 39 -17 103v191q68 0 110 -8v77q-57 -6 -110 -6v339q22 -11 96 -79q-4 43 19 81q-94 66 -170 137q-5 -17 -40 -71
q19 -16 23 -29q5 -11 5 -45v-585q0 -80 -6 -129zM359 199h-161v232h161v-232zM292 252q24 68 37 119l-71 20q-2 -53 -30 -119zM292 542q12 31 31 110q3 13 4 19l-69 14q-5 -62 -30 -129z" />
</svg>
