<?xml version="1.0" standalone="no"?>
<!DOCTYPE svg PUBLIC "-//W3C//DTD SVG 1.1//EN" "http://www.w3.org/Graphics/SVG/1.1/DTD/svg11.dtd" >
<svg xmlns="http://www.w3.org/2000/svg" xmlns:xlink="http://www.w3.org/1999/xlink" version="1.1" viewBox="-10 0 1034 1024">
  <g transform="matrix(1 0 0 -1 0 820)">
   <path fill="currentColor"
d="M274 554q-16 -6 -36 -10q9 -15 26 -71l31 -110q18 9 37 13q-36 130 -58 178zM162 313l-102 4q-1 1 -4 1v-44q34 4 54 5h52q3 -183 -46 -293q-27 -60 -67 -96q27 -9 47 -24q39 60 57 106q39 99 43 226q0 48 3 81h179v-334q0 -28 -17 -38q-18 -7 -42 -8q-15 0 -60 9
q6 -16 11 -50l52 1q49 1 67 13q27 19 27 77l1 643q0 21 4 49q-30 -1 -60 -5h-83q6 27 11 48q3 18 9 31q6 18 21 34q-30 6 -57 17q-4 -48 -12 -89l-9 -41q-42 3 -85 5q6 -69 6 -87v-241zM199 313v288h179v-288h-179zM325 43q-19 57 -56 189l-36 -12q13 -37 36 -111l22 -81
q18 6 25 7q3 1 12 3q-1 3 -3 5zM549 422v262q0 13 2 31q1 18 12 36h-56q1 -33 5 -67l-1 -755q-3 -9 -6 -16q-6 -6 -13 -10q13 -21 28 -49q42 30 114 76q27 16 54 35l15 9l-6 45q-34 -27 -64 -46q-31 -21 -84 -51v464h77q42 0 62 -5v47q-4 0 -7 -2q-3 0 -6 -1q-36 0 -71 -3
h-55zM767 680q0 13 2 31q1 18 13 36h-59q1 -9 4 -21l2 -194v-590q0 -45 30 -62q18 -10 74 -11q42 0 60 3q34 9 47 37q9 16 13 40q6 30 12 80q-18 4 -47 17l-4 -87q-4 -28 -20 -43q-10 -9 -44 -9h-28q-18 0 -26 3q-28 6 -29 37v356q63 72 111 120q9 12 27 28q3 6 11 10
q13 13 40 20q-33 27 -48 45q-51 -75 -141 -169v323z" />
  </g>

</svg>
