<?xml version="1.0" standalone="no"?>
<!DOCTYPE svg PUBLIC "-//W3C//DTD SVG 1.1//EN" "http://www.w3.org/Graphics/SVG/1.1/DTD/svg11.dtd" >
<svg xmlns="http://www.w3.org/2000/svg" xmlns:xlink="http://www.w3.org/1999/xlink" version="1.1" viewBox="-10 0 1034 1024">
  <g transform="matrix(1 0 0 -1 0 820)">
   <path fill="currentColor"
d="M240 522q30 -57 47 -89l31 -79q16 9 33 18q-10 28 -33 77q-22 48 -44 90q-15 -9 -34 -17zM391 270v-348q0 -22 -16 -28q-19 -6 -43 -6q-9 0 -22 1q-15 3 -46 8q12 -30 15 -48q60 0 90 3q25 3 39 12q21 13 21 53l1 668q0 19 4 48q-33 -1 -67 -5h-84q9 40 14 57q6 30 25 55
l-58 15q-1 -64 -21 -127l-66 4q-10 1 -21 1q1 -33 5 -67v-262q-84 3 -95 5q-1 1 -3 1v-45q3 1 6 1l65 4h27l-1 -94q0 -27 -4 -57q-12 -105 -44 -173q-21 -45 -69 -82q21 -7 45 -24q63 78 86 166q24 108 24 264h193zM198 304v290h193v-290h-193zM272 222q-16 -9 -34 -16
q51 -103 76 -181q15 7 33 19l-23 58zM503 194q-1 -27 -3 -55q-1 -6 -2 -15h46q-3 19 -4 46v20h146l-3 -328q-1 -1 -2 -11h49q-1 6 -5 35l-1 304h160q-1 -24 -3 -49q0 -3 -1 -5h47q-6 55 -5 86l1 286l4 47q-109 -4 -113 -5h-90l1 141q0 21 13 48h-57l5 -64v-125l-142 1
q-19 3 -46 4q4 -70 5 -106v-255zM686 224h-146v292h146v-292zM724 224v292h160v-292h-160z" />
  </g>

</svg>
