<?xml version="1.0" standalone="no"?>
<!DOCTYPE svg PUBLIC "-//W3C//DTD SVG 1.1//EN" "http://www.w3.org/Graphics/SVG/1.1/DTD/svg11.dtd" >
<svg xmlns="http://www.w3.org/2000/svg" xmlns:xlink="http://www.w3.org/1999/xlink" version="1.1" viewBox="-10 0 1010 1000">
   <path fill="currentColor"
d="M623 -6q15 5 42 13q72 21 67 27q-1 3 -11 11q-26 20 -34 41q-30 65 -44 93h167q77 0 123 -6v79q-25 -7 -80 -6h-157v153h106q57 -1 101 -8v80q-26 -9 -105 -8h-102v154h125q69 0 104 -7l2 83q-33 -7 -104 -8h-127v87q0 93 10 129h-89q7 -40 8 -131v-522h-18l-107 155
q-28 -28 -56 -41v426q3 40 -23 54q-25 17 -113 35q-5 -56 -38 -91q109 2 99 -28v-268h-169q-3 294 -87 403q-31 -31 -75 -45q84 -103 87 -360q-59 -1 -89 8v-73q25 6 89 6v-202q1 -61 -6 -114q33 6 89 6q17 -55 22 -119l97 28q-31 44 -51 93q71 0 107 -2q40 -1 67 -6
q-8 62 -8 227q145 -162 181 -346zM369 185h-169v246h169v-246zM290 229q18 47 29 136l-61 10q-6 -81 -24 -133zM304 538l25 151l-65 12q-3 -70 -22 -151z" />
</svg>
