<?xml version="1.0" standalone="no"?>
<!DOCTYPE svg PUBLIC "-//W3C//DTD SVG 1.1//EN" "http://www.w3.org/Graphics/SVG/1.1/DTD/svg11.dtd" >
<svg xmlns="http://www.w3.org/2000/svg" xmlns:xlink="http://www.w3.org/1999/xlink" version="1.1" viewBox="-10 0 1034 1024">
  <g transform="matrix(1 0 0 -1 0 820)">
   <path fill="currentColor"
d="M907 209q0 -42 -3 -54q0 -3 -2 -12h48q-4 24 -5 49l1 230l4 45q-18 -1 -32 -3q-15 -1 -25 -2h-162v134l221 -1q12 0 26 -3l2 -1v46q-9 -3 -22 -3q-19 0 -41 -2h-186v74q0 34 16 64h-60q0 -1 2 -5q0 -1 1 -4q0 -24 3 -55v-244l-132 3q-13 1 -22 2q6 -57 9 -105l2 -111
q0 -147 -24 -225q-21 -76 -68 -127q-21 -16 -43 -28q31 -13 57 -31q54 72 84 151q15 48 24 93q6 42 8 125h319zM588 244v182h319v-182h-319zM270 539q-18 -15 -38 -22q57 -69 86 -152q18 16 40 27q-84 141 -88 147zM395 283v-323q0 -51 -83 -51q-13 0 -40 4q15 -30 21 -53
q82 10 110 26q30 15 30 58l1 654q0 7 5 43q-28 -1 -57 -5h-114q27 64 37 80q10 18 33 31q-39 9 -67 21q-15 -66 -46 -132q-33 3 -65 5q6 -63 6 -82v-240q-75 0 -103 3q-3 0 -9 2v-47q1 0 38 5l74 1q-3 -105 -12 -170q-9 -57 -33 -121q-37 -93 -84 -118q39 -9 63 -17
q45 78 73 162q15 57 20 100q3 27 5 66q1 42 3 98h194zM201 319v281h194v-281h-194zM237 208q21 -33 37 -63q33 -67 37 -76q1 -4 4 -12q12 7 20 13q3 3 19 9q-15 31 -34 66l-45 81q-21 -9 -38 -18v0z" />
  </g>

</svg>
