<?xml version="1.0" standalone="no"?>
<!DOCTYPE svg PUBLIC "-//W3C//DTD SVG 1.1//EN" "http://www.w3.org/Graphics/SVG/1.1/DTD/svg11.dtd" >
<svg xmlns="http://www.w3.org/2000/svg" xmlns:xlink="http://www.w3.org/1999/xlink" version="1.1" viewBox="-10 0 1034 1024">
  <g transform="matrix(1 0 0 -1 0 820)">
   <path fill="currentColor"
d="M882 610q67 0 77 -3q1 0 4 -1l2 -1v46q-45 -1 -89 -5l-406 1q-12 0 -30 4v-46q6 0 13 3q28 0 53 2h338v-644q0 -39 -16 -51q-18 -9 -45 -9q-15 0 -70 6q10 -27 14 -53q15 0 89 8q21 6 37 15q28 18 29 59v669zM526 187q-3 -33 -5 -66q19 1 35 3q24 3 76 3q75 0 89 -2
q9 0 21 -3q6 0 14 -1q-4 60 -5 66l1 226l4 46q-60 -6 -88 -6q-81 0 -109 2q-3 1 -17 2q-6 0 -21 2q1 -33 5 -67v-205zM563 162v255h150v-255h-150zM267 509q-18 -12 -34 -20q48 -70 64 -130q21 13 40 21zM77 -149q9 0 31 -10q24 45 38 77q12 33 25 76q12 52 17 102
q3 30 5 68l3 102h194v-318q0 -21 -7 -28q-6 -9 -27 -15q-16 -3 -34 -3q-16 0 -45 5q12 -27 21 -53q10 1 23 4q60 9 76 17q30 15 31 63l1 627l4 45l-91 -5h-69q9 27 25 62q18 39 46 57q-27 9 -59 28q-9 -36 -21 -68q-12 -33 -34 -81q-9 0 -75 6q1 -31 5 -65v-242l-82 2
q-3 1 -4 1q-3 0 -12 2v-47q1 0 38 5l60 1q-1 -78 -5 -121q-1 -34 -6 -64q-15 -105 -48 -165q-22 -39 -51 -58q13 -3 27 -7zM196 302v266h194v-266h-194zM265 210q-6 -3 -10 -7l-23 -10q15 -15 38 -64q21 -45 30 -77q16 12 40 21l-70 139q-3 0 -5 -2v0z" />
  </g>

</svg>
