<?xml version="1.0" standalone="no"?>
<!DOCTYPE svg PUBLIC "-//W3C//DTD SVG 1.1//EN" "http://www.w3.org/Graphics/SVG/1.1/DTD/svg11.dtd" >
<svg xmlns="http://www.w3.org/2000/svg" xmlns:xlink="http://www.w3.org/1999/xlink" version="1.1" viewBox="-10 0 1034 1024">
  <g transform="matrix(1 0 0 -1 0 820)">
   <path fill="currentColor"
d="M278 522q-6 9 -7 12q-12 -10 -35 -21q36 -51 67 -120q12 10 38 21q-4 9 -63 108zM389 295v-356q0 -21 -11 -29q-12 -6 -39 -7q-24 0 -56 8q7 -16 12 -37l3 -15q36 0 58 4q36 4 55 18q15 13 16 41l1 675l4 47q-66 -4 -100 -5h-63l30 72q3 12 8 16q10 18 22 26
q-13 3 -41 13l-19 9q-1 -54 -39 -136q-6 0 -76 5q4 -60 5 -65v-249q-36 0 -76 2q-10 1 -22 3v-47q7 3 26 4q12 1 72 2q0 -54 -3 -95q0 -36 -4 -66q-4 -88 -46 -177q-21 -46 -65 -81q33 -9 42 -14q4 -3 12 -7q54 82 78 172q12 51 16 98q3 30 4 69l3 102h193zM196 330v273h193
v-273h-193zM256 226q-10 -3 -19 -8q25 -42 40 -70q12 -28 30 -74q12 9 26 17q4 1 10 5q-6 21 -30 69q-16 34 -39 70l-3 -2q-3 -1 -6 -4zM611 659h186v-243q0 -33 10 -46q13 -19 58 -26q46 -3 106 -4q6 37 16 57q-21 -6 -37 -10q-28 -4 -50 -5q-51 0 -61 19q-3 6 -4 39l1 211
l4 49q-60 -6 -74 -6q-138 0 -153 2q-15 3 -44 4q6 -66 6 -87q0 -67 -6 -123l-7 -53q-13 -55 -48 -87q-15 -13 -58 -32q30 -19 46 -38q18 15 29 27q36 36 55 77q24 64 25 200v75zM865 -84q0 -45 -4 -69h48q-3 33 -5 66l1 305l4 48q-34 -1 -70 -5l-254 1q-19 3 -49 4
q1 -21 2 -34q3 -24 3 -72l-1 -280q-1 -10 -2 -25q0 -3 -2 -13h49q-3 6 -6 59v15h286zM579 -48v274h286v-274h-286z" />
  </g>

</svg>
