<?xml version="1.0" standalone="no"?>
<!DOCTYPE svg PUBLIC "-//W3C//DTD SVG 1.1//EN" "http://www.w3.org/Graphics/SVG/1.1/DTD/svg11.dtd" >
<svg xmlns="http://www.w3.org/2000/svg" xmlns:xlink="http://www.w3.org/1999/xlink" version="1.1" viewBox="-10 0 1034 1024">
  <g transform="matrix(1 0 0 -1 0 820)">
   <path fill="currentColor"
d="M909 513q39 0 57 -4q1 0 5 -2v47q-43 -1 -87 -5l-380 1l-18 2q-3 0 -12 2v-47q1 0 38 5l172 1q-9 -16 -17 -34q-7 -15 -46 -76l-60 -86q-34 -40 -57 -46l19 -50q21 3 37 8q16 1 36 5l133 10l-75 -110l-93 -130q-48 -66 -84 -77l30 -56q33 15 69 23q162 30 232 39
q37 6 77 11q18 -31 37 -84q18 16 44 27l-144 248q-19 -15 -39 -25q33 -48 56 -84l27 -48l-119 -20l-195 -28q58 76 102 138q39 52 69 98q54 78 109 173q24 40 60 58q-28 15 -57 34q-10 -24 -35 -71q-15 -28 -49 -81l-174 -6l156 240h176zM629 745q-7 -4 -14 -11l-6 -3
q31 -31 65 -74q36 -45 56 -81q16 15 36 26q-18 27 -43 57l-80 98zM280 523q-7 -7 -32 -20q12 -15 41 -63q19 -37 32 -67q13 10 37 22zM400 281v-349q0 -21 -6 -30q-9 -7 -28 -13q-13 -3 -29 -3t-42 5q12 -30 20 -53q42 6 59 10q33 9 48 20q15 15 16 54l1 656l4 46l-91 -5
h-69l25 52q6 10 11 23q10 21 37 36q-40 18 -58 29q-9 -39 -24 -72q-9 -27 -18 -43q-6 -12 -14 -26q-37 3 -76 5q1 -33 5 -66v-240q-93 0 -111 3q-3 0 -9 2v-47q1 0 38 5l82 1q-3 -132 -13 -205q-10 -66 -38 -127q-28 -60 -68 -85q12 -3 53 -26q45 75 70 149q15 51 22 111
q6 72 10 183h193zM207 317v265h193v-265h-193zM254 207q45 -61 67 -128q18 15 39 23q-33 63 -70 123q-18 -10 -36 -18v0z" />
  </g>

</svg>
