<?xml version="1.0" standalone="no"?>
<!DOCTYPE svg PUBLIC "-//W3C//DTD SVG 1.1//EN" "http://www.w3.org/Graphics/SVG/1.1/DTD/svg11.dtd" >
<svg xmlns="http://www.w3.org/2000/svg" xmlns:xlink="http://www.w3.org/1999/xlink" version="1.1" viewBox="-10 0 1010 1000">
   <path fill="currentColor"
d="M220 -6l92 26q-1 2 -8 10q-38 41 -52 82h87q41 0 80 -8q-8 31 -10 79v577q2 61 -23 77q-19 19 -118 34q-1 -50 -34 -95q71 5 86 -4q19 -7 17 -47v-246h-160q-3 257 -86 410q-24 -37 -71 -57q82 -114 87 -351q-43 0 -67 7v-79q37 7 67 8v-236q-1 -47 -8 -77q45 8 76 8h21
q18 -53 24 -118zM643 -6q67 0 84 1q24 2 21 7q-23 39 -24 92v198h86q27 0 70 -5q15 -2 23 -3q-8 35 -8 83v445q2 43 -26 59q-27 19 -117 32q-6 -62 -42 -95q121 15 113 -34v-95h-260v91q1 73 8 121h-91q9 -42 10 -123v-403q-1 -50 -8 -81q36 8 85 8h86v-220q-1 -48 -10 -78z
M857 44l85 38q-39 56 -103 166l-65 -27q51 -85 83 -177zM518 58q24 36 56 90q23 39 37 61l-77 37q-35 -82 -94 -156zM337 173h-158v244h158v-244zM276 217q12 59 24 148l-66 12q0 -81 -20 -146zM823 356h-260v101h260v-101zM563 516v103h260v-103h-260zM274 514
q22 107 24 153l-66 6q2 -72 -20 -149z" />
</svg>
