<?xml version="1.0" standalone="no"?>
<!DOCTYPE svg PUBLIC "-//W3C//DTD SVG 1.1//EN" "http://www.w3.org/Graphics/SVG/1.1/DTD/svg11.dtd" >
<svg xmlns="http://www.w3.org/2000/svg" xmlns:xlink="http://www.w3.org/1999/xlink" version="1.1" viewBox="-10 0 1010 1000">
   <path fill="currentColor"
d="M254 -10q86 3 93 16q1 2 -5 10q-31 39 -44 107q79 0 135 -8q-8 51 -8 141v552q2 41 -24 55q-24 15 -121 34q4 -44 -28 -91q67 11 86 1q20 -7 19 -47v-279h-161q4 236 -111 400q-13 -39 -51 -79q99 -110 97 -321q-35 0 -81 7v-83q28 8 83 8v-163q0 -69 -8 -135q5 1 14 2
q59 6 97 6q14 -79 18 -133zM615 -2q33 63 60 135l-80 32q-16 -82 -53 -137zM784 0q108 29 101 36q0 2 -5 5q-43 30 -84 142h21q38 0 99 -5q21 -2 30 -3v79q-51 -8 -142 -8h-78q-12 42 -30 86h38q86 0 161 -8q-8 62 -8 145v287q0 98 8 143h-91q8 -47 8 -73h-231q-3 22 6 69
h-89q8 -34 8 -135v-297q0 -80 -8 -139q68 8 135 8q7 -44 10 -86h-48q-55 0 -117 6q-14 1 -22 2v-79q61 8 137 8h133q49 -138 58 -183zM200 191v222h157v-222h-157zM300 229q10 42 17 129l-65 13q3 -62 -16 -133zM581 399v76h231v-76h-231zM302 524q9 99 8 147l-68 16
q7 -78 -10 -149zM581 538v77h231v-77h-231zM581 679v79h231v-79h-231z" />
</svg>
