<?xml version="1.0" standalone="no"?>
<!DOCTYPE svg PUBLIC "-//W3C//DTD SVG 1.1//EN" "http://www.w3.org/Graphics/SVG/1.1/DTD/svg11.dtd" >
<svg xmlns="http://www.w3.org/2000/svg" xmlns:xlink="http://www.w3.org/1999/xlink" version="1.1" viewBox="-10 0 1034 1024">
  <g transform="matrix(1 0 0 -1 0 820)">
   <path fill="currentColor"
d="M295 447l-31 99q-18 -6 -38 -12q12 -33 27 -75q15 -48 21 -83q18 4 38 11zM151 315q-78 3 -90 5v-45q9 4 55 5l35 1q0 -211 -39 -314q-19 -52 -54 -88q30 -7 48 -17q39 63 66 177q16 82 16 242h176v-340q0 -36 -21 -42q-18 -6 -41 -7q-9 0 -17 1q-13 1 -44 8
q6 -30 13 -47h58q39 1 62 12q27 18 28 64l1 663q1 19 5 39q-55 -4 -76 -5h-65q3 6 7 21q10 39 18 54q6 12 24 30q-36 13 -59 25q-3 -9 -4 -28q-10 -58 -24 -102q-28 0 -84 5q6 -42 6 -67v-250zM188 315v278h176v-278h-176zM227 213q15 -33 26 -63q6 -18 14 -41q9 -27 20 -65
q13 3 25 9q4 1 8 3q-6 25 -16 56q-12 39 -39 114q-15 -3 -38 -13zM511 581q-33 3 -55 3q-6 3 -14 3v-45q6 3 31 3q15 1 141 2h52l-21 -116q-63 0 -86 2l-40 3q1 -30 5 -63l-1 -490q0 -4 -4 -29h46q-3 72 -4 90h280v-23q0 -24 -4 -47h48q-3 13 -6 60l1 457q0 6 2 14l3 31
q-31 -1 -64 -5h-138l27 116h193q28 0 49 -3l13 -2v45q-15 -3 -25 -4l-74 -2h-92l43 68q15 22 26 39q13 19 35 30q-30 18 -48 33l-2 2l-49 -97q-7 -12 -9 -16q-15 -25 -40 -59h-219zM561 288v109h280v-109h-280zM561 142v113h280v-113h-280zM561 -22v130h280v-130h-280z
M516 728q70 -75 106 -129l29 28q-25 36 -56 74q-28 33 -47 51q-9 -9 -32 -24v0z" />
  </g>

</svg>
