<?xml version="1.0" standalone="no"?>
<!DOCTYPE svg PUBLIC "-//W3C//DTD SVG 1.1//EN" "http://www.w3.org/Graphics/SVG/1.1/DTD/svg11.dtd" >
<svg xmlns="http://www.w3.org/2000/svg" xmlns:xlink="http://www.w3.org/1999/xlink" version="1.1" viewBox="-10 0 1010 1000">
   <path fill="currentColor"
d="M224 -10q74 9 86 18q0 2 -5 8q-24 30 -41 92q74 0 121 -8q-8 70 -8 127v557q1 55 -26 74q-24 21 -109 31q2 -40 -24 -87q58 9 75 1q18 -7 17 -41v-295h-123q-2 244 -78 416q-28 -23 -79 -33q53 -98 70 -176q19 -81 19 -207q-44 0 -77 8v-84q32 8 77 8v-172q0 -70 -8 -127
q51 8 103 8q10 -57 10 -118zM687 -10q64 1 81 10q1 2 -1 6q-11 27 -11 92h54q86 0 128 -8v77q-50 -6 -128 -6h-54v48h20q87 0 127 -8q-8 39 -8 103v85q0 54 8 117q-70 -8 -163 -8h-175q-94 0 -154 8q8 -46 8 -115v-79q0 -62 -8 -111q7 1 21 2q69 6 106 6h20v-48h-30
q-59 0 -123 6v-77q58 8 127 8h24q1 -66 -8 -104q82 -3 83 6q1 3 -1 9q-11 29 -11 89h73q0 -55 -5 -108zM694 161h-75v48h75v-48zM310 175h-123v224h123v-224zM264 213q7 70 16 131l-60 10q2 -57 -12 -129zM558 268h-72v56h72v-56zM694 268h-75v56h75v-56zM827 268h-71v56h71
v-56zM694 377h-75v58h75v-58zM829 377h-73v58h73v-58zM558 377h-72v60h72v-60zM256 516q15 70 18 135l-56 8q0 -77 -16 -133zM440 550q56 8 133 8h151q71 0 137 -8q-8 63 -8 125v111q0 73 8 115h-91q9 -24 8 -45h-254q1 5 2 17q1 23 4 32h-90q8 -45 8 -137v-93
q0 -59 -8 -125zM778 613h-254v68h254v-68zM778 733h-254v67h254v-67z" />
</svg>
