<?xml version="1.0" standalone="no"?>
<!DOCTYPE svg PUBLIC "-//W3C//DTD SVG 1.1//EN" "http://www.w3.org/Graphics/SVG/1.1/DTD/svg11.dtd" >
<svg xmlns="http://www.w3.org/2000/svg" xmlns:xlink="http://www.w3.org/1999/xlink" version="1.1" viewBox="-10 0 1034 1024">
  <g transform="matrix(1 0 0 -1 0 820)">
   <path fill="currentColor"
d="M261 544l-37 -12q33 -94 48 -165q9 4 14 6q10 3 22 8q-4 24 -18 70q-13 46 -29 93zM350 275v-348q0 -42 -46 -42q-33 0 -73 10q7 -25 11 -48q40 -3 54 -3q43 0 69 14q22 12 23 61l1 670l4 50q-55 -4 -75 -5h-53l3 12q3 16 8 33q10 39 29 57q-13 4 -26 7t-29 10
q-12 -97 -16 -110q-3 -3 -4 -9q-27 0 -83 5q1 -33 5 -68v-262q-33 1 -65 3q-9 3 -17 3v-45q39 4 60 5h22q0 -111 -6 -182q-6 -63 -23 -120q-24 -69 -68 -107q27 -9 46 -24q60 82 75 192q6 57 10 111q3 57 3 130h161zM189 309v291h161v-291h-161zM264 221q-15 -6 -37 -13
q15 -36 24 -70q10 -42 24 -107l38 16l-26 99q-12 43 -23 75zM609 646l-176 3q-6 0 -15 2v-44q3 0 6 1q1 1 5 1q39 1 81 3h99v-68q-84 0 -113 2q-6 3 -35 3q4 -99 5 -103l-1 -130q-3 -15 -4 -44q15 3 53 4l353 1q25 0 61 -5q-4 49 -5 91q0 141 2 151q0 3 1 5q0 12 2 30
q-30 -1 -59 -5h-87v68h117q42 0 63 -5v44q-9 0 -13 -2q-18 -3 -74 -3h-93q0 78 3 87q1 13 10 25h-56q1 -33 5 -67v-45h-98q0 78 3 83q1 15 11 28h-56q0 -3 1 -6zM504 311v81h105v-81h-105zM504 426v84h105v-84h-105zM646 544v68h98v-68h-98zM646 426v84h98v-84h-98zM646 311
v81h98v-81h-98zM782 426v84h103v-84h-103zM782 311v81h103v-81h-103zM504 -151h47q-3 63 -4 75h300v-17q0 -30 -4 -49h47q-4 39 -5 71l1 245l4 43q-31 -1 -64 -5l-272 1q-19 3 -50 4l6 -63l-3 -291q-1 -3 -1 -6q-1 -3 -2 -8zM547 -43v93h300v-93h-300zM547 84v94h300v-94
h-300z" />
  </g>

</svg>
