<?xml version="1.0" standalone="no"?>
<!DOCTYPE svg PUBLIC "-//W3C//DTD SVG 1.1//EN" "http://www.w3.org/Graphics/SVG/1.1/DTD/svg11.dtd" >
<svg xmlns="http://www.w3.org/2000/svg" xmlns:xlink="http://www.w3.org/1999/xlink" version="1.1" viewBox="-10 0 1010 1000">
   <path fill="currentColor"
d="M202 -4q99 11 96 22q0 4 -10 13q-13 12 -18 21q-2 4 -5 12q-10 23 -23 53q77 1 145 -7q-7 30 -6 99v569q1 48 -25 62q-16 14 -120 29q-10 -56 -30 -91q66 9 85 3q23 -5 22 -29v-283h-142v63q1 180 -76 369q-25 -35 -69 -59q68 -118 77 -300v-73q-42 0 -65 4v-68
q23 4 65 4v-194v-16q1 -60 -6 -87q29 5 86 5q16 -84 19 -121zM702 4q2 12 7 34q9 37 11 58q80 0 119 -2q45 -2 68 -8v77q-43 -9 -155 -8q10 6 28 14q25 12 41 22q-7 9 -27 27q-22 20 -32 32h89q57 0 84 -6v68q-18 -7 -70 -6h-16h-331q-54 0 -97 8v-72q47 8 144 8
q-24 -38 -51 -65l55 -30q-69 0 -138 6v-73q26 9 101 8h111q-3 -33 -28 -78zM571 155q20 21 42 47q11 14 16 19l-44 29h115q28 -35 46 -95h-175zM171 181v151v77h142v-228h-142zM260 219q16 68 20 135l-66 4q-1 -77 -14 -131zM450 344q42 8 110 8h216q69 1 117 -8
q-10 46 -10 117v103q2 43 10 79q-66 -9 -133 -8h-60v60h92h12q53 1 81 -6v67q-48 -9 -91 -10h-94v70h123q79 0 106 -8v73q-31 -9 -112 -10h-307q-54 1 -107 10v-75q32 9 95 10h139v-70h-101q-63 0 -92 8v-67q39 8 88 8h105v-60h-72q-75 0 -115 8q8 -40 8 -95v-111
q1 -61 -8 -93zM637 407h-111v62h111v-62zM815 407h-115v62h115v-62zM260 504q9 45 20 149l-68 10q0 -76 -14 -149zM637 518h-111v62h111v-62zM700 518v62h115v-62h-115z" />
</svg>
