<?xml version="1.0" standalone="no"?>
<!DOCTYPE svg PUBLIC "-//W3C//DTD SVG 1.1//EN" "http://www.w3.org/Graphics/SVG/1.1/DTD/svg11.dtd" >
<svg xmlns="http://www.w3.org/2000/svg" xmlns:xlink="http://www.w3.org/1999/xlink" version="1.1" viewBox="-10 0 1034 1024">
  <g transform="matrix(1 0 0 -1 0 820)">
   <path fill="currentColor"
d="M68 -25q1 -1 5 -4t11 -7q34 34 77 86q30 33 53 67l68 114q7 -9 10 -14l67 -129q3 -7 8 -17q10 -22 16 -35q6 6 24 18q1 0 16 7q-7 12 -69 128q-34 58 -44 82q-1 3 -2 4q22 54 40 107q16 49 29 97l39 179l-66 -6l-255 1q-21 3 -19 2q-4 1 -7 3h-6v-47q10 3 67 6h234
q-21 -171 -84 -301q-52 87 -76 119q-25 39 -58 83q-18 -16 -37 -29l35 -38q13 -18 28 -40q72 -112 85 -138q-30 -57 -50 -91q-16 -28 -41 -62q-72 -88 -133 -125q16 -9 35 -20zM517 305h109q48 -189 176 -316q27 -27 50 -45q30 -22 80 -56q1 1 3 4q1 1 6 8q10 7 21 17
q7 9 17 16q-57 12 -125 63q-70 57 -105 117q15 15 28 24l84 63q40 31 82 36q-24 21 -51 52q-6 -13 -17 -24l-66 -57q-54 -39 -82 -59q-27 57 -34 78t-22 79l142 -1l45 -4q-3 30 -5 62l1 300l4 49q-31 -1 -64 -5l-275 1q-19 3 -45 4q1 -33 5 -67v-711q0 -27 -32 -45
q12 -12 24 -33q4 -7 9 -16q10 9 20 19l18 16q15 15 51 38q67 46 118 79q-3 22 -11 57q-18 -22 -45 -44q-24 -19 -106 -74q-4 -1 -8 -5v380zM517 341v142h298v-142h-298zM517 519v151h298v-151h-298z" />
  </g>

</svg>
