<?xml version="1.0" standalone="no"?>
<!DOCTYPE svg PUBLIC "-//W3C//DTD SVG 1.1//EN" "http://www.w3.org/Graphics/SVG/1.1/DTD/svg11.dtd" >
<svg xmlns="http://www.w3.org/2000/svg" xmlns:xlink="http://www.w3.org/1999/xlink" version="1.1" viewBox="-10 0 1034 1024">
  <g transform="matrix(1 0 0 -1 0 820)">
   <path fill="currentColor"
d="M364 332l-258 1q-30 3 -37 5v-47q19 4 51 5h244l-4 -181q-1 0 -1 -2h48q-3 15 -4 39l-1 144h243l-1 -141l-2 -26q0 -3 -2 -12h48q0 1 -1 5q-1 3 -4 47v127l235 -1q12 -1 27 -4v47q-9 -3 -23 -4l-140 -2h-99v104q0 36 14 67h-57q1 -33 5 -67v-104h-243v102q0 37 14 68h-57
l5 -109v-61z" />
  </g>

</svg>
