<?xml version="1.0" standalone="no"?>
<!DOCTYPE svg PUBLIC "-//W3C//DTD SVG 1.1//EN" "http://www.w3.org/Graphics/SVG/1.1/DTD/svg11.dtd" >
<svg xmlns="http://www.w3.org/2000/svg" xmlns:xlink="http://www.w3.org/1999/xlink" version="1.1" viewBox="-10 0 1034 1024">
  <g transform="matrix(1 0 0 -1 0 820)">
   <path fill="currentColor"
d="M342 642h-193q-24 0 -60 5v-44q34 4 60 5h193q0 -84 -2 -107l-3 -20h47q-4 48 -5 95v32h246v-69q0 -33 -5 -57h49q-4 27 -5 57v69h222q25 0 60 -5v44q-33 -4 -60 -5h-222v73q0 24 13 65h-57q4 -27 5 -65v-73h-246v74q0 25 13 66h-55q4 -21 5 -64v-76zM637 384l-73 -43
l-152 -91q-64 -37 -79 -49q-153 -99 -154 -188q0 -55 48 -77q36 -16 106 -23q39 -3 129 -4l132 1q9 1 21 1q78 1 126 6q90 12 126 76q10 24 24 67q-18 9 -49 31q-1 -37 -5 -52q-9 -42 -38 -62q-15 -9 -41 -16q-24 -4 -83 -10q-126 -6 -163 -6q-63 3 -112 3q-51 0 -85 5
q-34 4 -56 15q-36 15 -37 43q0 33 26 63q19 27 54 56q52 43 173 114q207 127 242 152l28 23h-534l-33 4v-44q22 4 61 5h398z" />
  </g>

</svg>
