<?xml version="1.0" standalone="no"?>
<!DOCTYPE svg PUBLIC "-//W3C//DTD SVG 1.1//EN" "http://www.w3.org/Graphics/SVG/1.1/DTD/svg11.dtd" >
<svg xmlns="http://www.w3.org/2000/svg" xmlns:xlink="http://www.w3.org/1999/xlink" version="1.1" viewBox="-10 0 1010 1000">
   <path fill="currentColor"
d="M313 2q110 4 112 12q0 2 -3 7q-17 36 -17 110h176q0 -106 -8 -129q108 4 108 14q0 3 -3 10q-15 35 -15 105h141q74 0 122 -7q6 -1 7 -1v90q-2 0 -11 -1q-46 -7 -116 -7h-143q0 68 7 99q1 6 1 8h-98q0 -3 1 -12q7 -43 7 -95h-176q0 57 6 100q2 10 2 13h-98q0 -5 2 -21
q6 -47 6 -92h-115q-81 0 -136 9q-9 1 -12 1v-94q2 0 10 1q55 9 136 9h117q0 -95 -10 -129zM133 362q4 0 21 1q70 6 136 6h422q53 -2 98 -7v91q-164 43 -479 254q-66 54 -36 78q29 25 159 25h129q151 2 178 -21q36 -16 45 -118q2 0 17 10q44 32 78 46q-34 115 -68 137
q-18 14 -48 19q-25 4 -93 4h-279q-254 4 -232 -105q24 -134 448 -337h-337q-76 0 -139 6q-16 2 -20 2v-91z" />
</svg>
