<?xml version="1.0" standalone="no"?>
<!DOCTYPE svg PUBLIC "-//W3C//DTD SVG 1.1//EN" "http://www.w3.org/Graphics/SVG/1.1/DTD/svg11.dtd" >
<svg xmlns="http://www.w3.org/2000/svg" xmlns:xlink="http://www.w3.org/1999/xlink" version="1.1" viewBox="-10 0 1010 1000">
   <path fill="currentColor"
d="M454 -10q92 0 102 6q1 1 -2 12q-16 46 -16 100v361h113v-280q0 -66 -4 -117q67 -2 97 8q2 2 -3 12q-19 40 -19 95v36h113q56 0 96 -6v79q-32 -9 -98 -6h-111v179h52q41 0 56 -1q19 -1 55 -5v77q-54 -6 -109 -6h-238v93h281q96 -3 121 -8v82q-47 -8 -119 -8h-283v97
q0 42 1 62q2 24 7 53h-92q9 -47 8 -117v-95h-275q-70 0 -129 8v-84q55 8 129 10h275v-93h-244q-59 -3 -107 4v-77q48 8 107 8h60v-175h-105q-63 0 -100 6v-83q17 3 60 6q26 3 40 4h105v-38q0 -43 -1 -63q-1 -23 -5 -50q86 -2 99 8q0 2 -3 9q-19 39 -19 96v280h113v-361
q0 -63 -8 -118z" />
</svg>
