<?xml version="1.0" standalone="no"?>
<!DOCTYPE svg PUBLIC "-//W3C//DTD SVG 1.1//EN" "http://www.w3.org/Graphics/SVG/1.1/DTD/svg11.dtd" >
<svg xmlns="http://www.w3.org/2000/svg" xmlns:xlink="http://www.w3.org/1999/xlink" version="1.1" viewBox="-10 0 1010 1000">
   <path fill="currentColor"
d="M579 -12q95 6 104 16q2 3 -2 8q-14 22 -14 66v32h160q54 0 99 -7q6 -1 9 -1v81q-29 -6 -110 -6h-158q-1 51 8 77h-96q1 -4 2 -12q6 -33 6 -65h-180q0 45 8 81h-96q0 -3 1 -8q7 -39 7 -73h-160q-79 0 -109 8v-83q46 8 111 8h158v-28q1 -59 -8 -86q98 3 102 12q1 2 -2 6
q-12 23 -12 74v22h180v-44q0 -44 -8 -78zM821 381q-32 -8 -160 -8h-147q-4 67 -18 112h308q93 0 136 -8v83q-44 -8 -132 -8h-203v169q0 52 7 63q6 13 37 12h113q46 1 62 -23q18 -22 25 -96q41 43 95 56q-25 95 -55 118q-27 26 -113 24h-165q-60 2 -70 -14q-14 -13 -13 -81
v-228h-44q-67 244 -357 349q-22 -42 -81 -77q281 -48 355 -272h-191q-56 0 -82 2q-28 2 -53 8v-85q31 5 57 6q26 2 78 2h209q11 -39 18 -112h-104q-106 0 -156 8v-85q41 6 73 8q34 2 85 2h314q109 0 172 -8v83z" />
</svg>
