<?xml version="1.0" standalone="no"?>
<!DOCTYPE svg PUBLIC "-//W3C//DTD SVG 1.1//EN" "http://www.w3.org/Graphics/SVG/1.1/DTD/svg11.dtd" >
<svg xmlns="http://www.w3.org/2000/svg" xmlns:xlink="http://www.w3.org/1999/xlink" version="1.1" viewBox="-10 0 1034 1024">
  <g transform="matrix(1 0 0 -1 0 820)">
   <path fill="currentColor"
d="M858 406q-34 -1 -69 -5h-461q34 51 74 70q-6 3 -18 7q-27 9 -36 13q-6 4 -11 6q-9 -24 -22 -45q-15 -24 -44 -62q-73 -97 -153 -140q30 -13 53 -32q34 34 55 58q51 63 77 89h506q-42 -82 -77 -110q27 -3 35 -5q6 0 22 -7q19 33 29 58q15 25 29 53l26 53q-7 0 -15 -1z
M131 -99q21 -18 48 -49q51 24 106 57q63 36 90 61q105 87 145 209q87 -144 186 -215q49 -34 91 -60q40 -22 79 -41q18 33 47 50q-108 15 -209 94q-60 48 -106 109q-49 63 -72 124q0 9 2 19q3 36 27 56l-69 7q3 -18 3 -28q0 -15 -4 -39q-12 -61 -25 -97q-25 -60 -70 -110
q-72 -81 -168 -119q-40 -16 -101 -28zM348 643l-238 1q-15 3 -23 4v-46q33 3 66 5h195q-3 -97 -5 -104h49q-6 18 -6 69v35h249q-3 -99 -5 -104h48q-6 66 -5 104l240 -1l36 -4v46q-30 -4 -67 -5h-209q0 73 2 80q-3 12 11 42h-56q1 -12 2 -14q0 1 2 -24l1 -84h-249q0 84 3 92
q0 3 10 24h-56l4 -34z" />
  </g>

</svg>
