<?xml version="1.0" standalone="no"?>
<!DOCTYPE svg PUBLIC "-//W3C//DTD SVG 1.1//EN" "http://www.w3.org/Graphics/SVG/1.1/DTD/svg11.dtd" >
<svg xmlns="http://www.w3.org/2000/svg" xmlns:xlink="http://www.w3.org/1999/xlink" version="1.1" viewBox="-10 0 1010 1000">
   <path fill="currentColor"
d="M591 -12q87 1 97 12q1 3 -2 9q-11 26 -11 67v32h101q131 -1 166 -8v81q-32 -7 -152 -8h-113q1 0 2 20q3 55 8 69h-96q8 -26 8 -89h-190q0 55 8 91h-92q9 -23 8 -91h-123q-125 -1 -154 8v-81q43 8 154 8h123v-22q1 -45 -6 -92q7 0 20 1q78 1 74 9q1 2 -1 7q-10 23 -11 73
v24h190v-32q-1 -57 -8 -88zM607 282q92 2 109 16q1 4 -4 10q-16 23 -16 73v361q-3 70 56 68q61 3 83 -10q34 -34 30 -117q40 35 93 52q-16 93 -59 134q-16 15 -73 20q-70 5 -128 -2q-90 -11 -83 -111v-393q0 -69 -8 -101zM109 288q55 7 210 8h24q163 -1 211 -4v95
q-94 28 -179 105v56q91 -18 175 -40q-6 42 -6 78q-22 4 -73 12q-68 11 -96 17v199q6 53 -29 69q-25 17 -148 24q-4 -55 -29 -103q114 27 125 -22v-151q-93 17 -205 52q-5 -32 -17 -63q-6 -15 -10 -26q86 -5 232 -32v-107q-3 -1 168 -92h-143q-181 0 -210 8v-83z" />
</svg>
