<?xml version="1.0" standalone="no"?>
<!DOCTYPE svg PUBLIC "-//W3C//DTD SVG 1.1//EN" "http://www.w3.org/Graphics/SVG/1.1/DTD/svg11.dtd" >
<svg xmlns="http://www.w3.org/2000/svg" xmlns:xlink="http://www.w3.org/1999/xlink" version="1.1" viewBox="-10 0 1034 1024">
  <g transform="matrix(1 0 0 -1 0 820)">
   <path fill="currentColor"
d="M508 17q0 7 1 14q-31 -24 -106 -56q-123 -57 -132 -61q-12 -4 -35 -13v308h334q21 -102 39 -148q39 -105 124 -169q54 -42 108 -42q58 0 81 61l22 75q-18 4 -53 26q1 -15 2 -33q0 -48 -16 -73q-12 -16 -35 -17q-40 0 -96 44q-67 52 -102 143q-15 45 -34 133
q288 -3 299 -6q0 1 2 0v48q-15 -3 -67 -7h-241l-9 193q33 3 70 9q12 0 25 3q18 4 50 8q69 10 88 11q18 0 49 -3q-27 24 -49 57q-19 -10 -38 -16q-27 -6 -126 -22l-86 -9q-78 -4 -183 -7l-153 -3q-13 0 -48 2q1 -34 5 -71l-1 -488q-1 -3 -2 -7q-3 -9 -20 -15q15 -24 27 -53
q19 16 48 29q150 69 168 77l86 39q0 12 4 39zM236 244v182l319 10l7 -148q0 -21 3 -44h-329zM356 650h-214q-33 0 -55 3q-7 0 -14 4v-48q24 6 67 7h216q-3 -102 -5 -112h50l-2 6q-3 6 -3 34l-1 72h234l-3 -101q0 -3 -2 -5h48q-6 66 -5 87v19l231 -1q33 0 50 -5l2 -1v48
q-9 -3 -27 -5q-21 0 -40 -2h-216q0 87 3 95q0 3 10 24h-56q1 -9 2 -14l3 -93v-12h-234q0 69 2 76q0 6 4 26q1 6 7 15h-57q0 -6 2 -11q0 -36 3 -72v-34z" />
  </g>

</svg>
