<?xml version="1.0" standalone="no"?>
<!DOCTYPE svg PUBLIC "-//W3C//DTD SVG 1.1//EN" "http://www.w3.org/Graphics/SVG/1.1/DTD/svg11.dtd" >
<svg xmlns="http://www.w3.org/2000/svg" xmlns:xlink="http://www.w3.org/1999/xlink" version="1.1" viewBox="-10 0 1010 1000">
   <path fill="currentColor"
d="M296 18q103 1 117 10q1 2 -5 10q-23 28 -23 72v37h218v-30q0 -51 -8 -99q118 3 115 10q1 3 -4 9q-21 24 -21 65v47h140q60 0 113 -9q3 -1 4 -1v92q-39 -8 -113 -8h-144v29q0 93 7 127h-97q8 -33 8 -127v-31h-218v31q0 52 8 121h-97q8 -47 8 -121v-31h-123q-59 0 -84 1
q-30 2 -47 5v-88q41 8 123 8h131v-30q0 -47 -8 -99zM530 373q50 101 105 233l-95 29q-32 -114 -98 -238zM788 441q114 192 176 280l-103 53q-78 -183 -163 -287zM296 459q112 4 109 20q0 2 -4 5q-24 16 -24 92v113q-2 78 22 91q15 17 125 18q90 3 116 -23q27 -20 37 -112
q53 51 107 64q-42 109 -84 127q-24 14 -64 19q-36 4 -122 4q-154 1 -185 -15q-37 -11 -33 -76v-327zM149 463q100 4 103 14q-16 37 -66 194q-31 96 -43 129l-101 -26q79 -120 107 -311z" />
</svg>
