<?xml version="1.0" standalone="no"?>
<!DOCTYPE svg PUBLIC "-//W3C//DTD SVG 1.1//EN" "http://www.w3.org/Graphics/SVG/1.1/DTD/svg11.dtd" >
<svg xmlns="http://www.w3.org/2000/svg" xmlns:xlink="http://www.w3.org/1999/xlink" version="1.1" viewBox="-10 0 1034 1024">
  <g transform="matrix(1 0 0 -1 0 820)">
   <path fill="currentColor"
d="M608 214v-273q0 -54 55 -69q36 -9 127 -9q108 0 141 46q9 13 17 32q9 22 20 64q-22 13 -45 34q-6 -72 -24 -102q-19 -36 -120 -36q-81 0 -106 10t-26 44v259q246 0 255 -2q10 0 21 -3v47q-6 0 -12 -3l-102 -3l-680 1l-18 2q-3 0 -13 3v-47q19 4 67 5h217
q-10 -144 -77 -217q-96 -96 -248 -103q27 -33 37 -54q73 24 116 44q40 21 85 53q105 79 129 277h184zM199 384q39 4 62 5l542 -1q24 0 38 -4q1 0 3 -1v46q-18 -3 -27 -3q-21 0 -40 -2l-550 1q-19 1 -28 4v-45zM362 628h-227q-31 0 -56 3q-6 0 -13 3v-47q18 6 67 6h229
q-3 -111 -5 -118h49q-3 9 -4 26q-1 12 -2 92h223q-3 -111 -5 -116h48q0 1 -1 5q0 1 -4 61v50l282 -3q6 0 10 -3v47q-9 -3 -63 -6h-229q0 97 3 107q0 3 10 24h-56q4 -42 5 -75v-56h-223v71q0 12 2 28q3 18 12 34h-57q0 -18 5 -48q-1 -6 0 -14v-71z" />
  </g>

</svg>
