<?xml version="1.0" standalone="no"?>
<!DOCTYPE svg PUBLIC "-//W3C//DTD SVG 1.1//EN" "http://www.w3.org/Graphics/SVG/1.1/DTD/svg11.dtd" >
<svg xmlns="http://www.w3.org/2000/svg" xmlns:xlink="http://www.w3.org/1999/xlink" version="1.1" viewBox="-10 0 1034 1024">
  <g transform="matrix(1 0 0 -1 0 820)">
   <path fill="currentColor"
d="M171 383q1 -21 2 -36q3 -24 3 -58l-1 -382q-1 -12 -2 -27q0 -3 -2 -14h47q-3 19 -4 30l-1 446h268q-16 -97 -71 -168q-63 -78 -157 -100q22 -16 47 -42q42 25 86 62q72 63 112 149l60 -39l71 -50q51 -37 76 -58q15 -12 30 -31q15 22 32 38l-94 69q-9 4 -103 70l-60 38
l12 62h293v-367q0 -31 -5 -39q-6 -10 -30 -15q-33 -4 -57 -5l-56 9q12 -30 19 -54q10 1 21 1q36 1 54 4q12 0 23 4q36 9 53 25q16 18 17 63l1 365l4 50q-60 -4 -86 -5h-246q0 13 3 27l9 69q4 24 20 35q-28 0 -66 5q3 -27 3 -40q0 -15 -3 -43q-1 -27 -7 -53l-268 1
q-19 3 -47 4zM333 628l-246 1l-29 5v-47q18 6 67 6h208q0 -79 -3 -101q0 -9 -2 -17h50q0 3 -2 8q-3 6 -3 31l-1 79h272q-3 -111 -5 -115h48q-6 66 -5 88v27q253 0 261 -3q1 3 12 -1q3 0 7 -2v47q-18 -6 -67 -6h-213q0 117 3 120q0 6 2 9l8 17h-56q1 -30 5 -61v-85h-272
q0 114 3 117q0 6 2 9l8 17h-57q1 -30 5 -61v-82z" />
  </g>

</svg>
