<?xml version="1.0" standalone="no"?>
<!DOCTYPE svg PUBLIC "-//W3C//DTD SVG 1.1//EN" "http://www.w3.org/Graphics/SVG/1.1/DTD/svg11.dtd" >
<svg xmlns="http://www.w3.org/2000/svg" xmlns:xlink="http://www.w3.org/1999/xlink" version="1.1" viewBox="-10 0 1034 1024">
  <g transform="matrix(1 0 0 -1 0 820)">
   <path fill="currentColor"
d="M348 623l-238 1q-12 1 -23 2q-9 1 -17 3v-47q34 4 64 5h214v-63q0 -45 -5 -67h49q0 7 -2 15q-3 51 -3 77v38h258v-59q0 -46 -5 -67h49q-6 72 -5 107v19q237 0 259 -3q4 0 11 -2v47q-48 -6 -68 -6h-202v81q0 10 3 30q1 18 12 35h-59l5 -81v-65h-258v76q0 12 2 29
q1 18 8 29q1 3 3 6h-57q4 -49 5 -84v-56zM115 29q3 -1 6 -4q6 -3 14 -6l62 129q22 49 44 102q18 37 43 51q-40 15 -64 30q-10 -45 -24 -83q-15 -39 -40 -92q-18 -37 -35 -66q-15 -25 -35 -51q7 -1 11 -2q1 0 4 -1q7 -3 14 -7zM401 293q0 13 2 30q3 18 13 35h-59q0 -9 5 -65
l1 -355q3 -39 24 -56q15 -13 72 -17l107 -2q78 0 117 7q57 12 76 51q12 24 32 104q-10 4 -19 8q-13 6 -38 20q6 -24 7 -41q0 -28 -13 -63q-15 -33 -54 -41q-30 -6 -105 -7l-56 1q-72 3 -80 5q-31 9 -32 51v335zM463 469q36 -45 61 -88q36 -63 56 -114q18 9 31 21q6 3 11 8
q-73 136 -124 201q-15 -15 -35 -28zM775 331q-19 -16 -41 -28q54 -63 64 -77q13 -22 39 -60q42 -69 77 -139q18 15 43 28q-28 51 -73 119z" />
  </g>

</svg>
