<?xml version="1.0" standalone="no"?>
<!DOCTYPE svg PUBLIC "-//W3C//DTD SVG 1.1//EN" "http://www.w3.org/Graphics/SVG/1.1/DTD/svg11.dtd" >
<svg xmlns="http://www.w3.org/2000/svg" xmlns:xlink="http://www.w3.org/1999/xlink" version="1.1" viewBox="-10 0 1010 1000">
   <path fill="currentColor"
d="M581 -15q104 1 111 11q1 2 -4 9q-23 33 -23 75v26h105q130 0 163 -8v89q-44 -7 -163 -8h-103q0 75 8 89h-100q8 -37 10 -89h-172q-1 71 8 87h-94q9 -29 8 -87h-123q-107 0 -150 8v-89q40 7 148 8h123v-28q0 -24 -8 -84q65 0 85 1q25 1 25 5q0 1 -4 7q-20 29 -18 71v28
h172v-28q0 -40 -4 -93zM179 298q16 8 166 8h318q108 0 160 -8v87q-37 -8 -156 -8h-320q-132 1 -168 8v-87zM77 475q33 12 171 13h496q154 0 193 -7v87q-40 -8 -187 -8h-121v192q-7 43 42 42q38 2 76 2q35 -1 53 -4q36 -7 43 -105q33 37 92 57q-31 112 -92 127q-20 5 -71 5
q-47 1 -147 -3q-57 -2 -71 -19q-14 -12 -10 -74v-220h-106q-4 159 -66 223q-47 61 -249 128q-18 -51 -65 -85q123 -17 214 -72q75 -42 81 -194h-105q-131 2 -171 10v-95z" />
</svg>
