<?xml version="1.0" standalone="no"?>
<!DOCTYPE svg PUBLIC "-//W3C//DTD SVG 1.1//EN" "http://www.w3.org/Graphics/SVG/1.1/DTD/svg11.dtd" >
<svg xmlns="http://www.w3.org/2000/svg" xmlns:xlink="http://www.w3.org/1999/xlink" version="1.1" viewBox="-10 0 1010 1000">
   <path fill="currentColor"
d="M601 0q100 -1 101 8q1 2 -2 9q-21 36 -21 114h138q63 0 125 -8v86q-50 -9 -125 -8h-138q-1 58 4 75h-80q4 -24 4 -75h-218q-1 45 4 63h-24q81 28 79 40q0 1 -6 3q-36 11 -71 49h373q59 0 145 -8q-7 40 -25 297q-5 79 -7 107q-3 75 -39 95q-32 25 -169 48q-3 -62 -44 -115
q101 14 133 2q32 -9 38 -63q4 -28 8 -119q6 -112 12 -179h-100q-16 296 -436 476q-19 -35 -73 -77q386 -107 434 -399h-97q-73 180 -330 314q-27 -41 -77 -74q252 -72 323 -240h-125q-59 55 -194 157q-24 -41 -67 -70q201 -88 291 -244h-33q3 -16 3 -63h-140q-84 0 -117 8
v-86q54 8 119 8h138q0 -74 -7 -131q98 -3 105 8q1 3 -3 10q-21 37 -21 113h218q0 -80 -6 -131z" />
</svg>
