<?xml version="1.0" standalone="no"?>
<!DOCTYPE svg PUBLIC "-//W3C//DTD SVG 1.1//EN" "http://www.w3.org/Graphics/SVG/1.1/DTD/svg11.dtd" >
<svg xmlns="http://www.w3.org/2000/svg" xmlns:xlink="http://www.w3.org/1999/xlink" version="1.1" viewBox="-10 0 1034 1024">
  <g transform="matrix(1 0 0 -1 0 820)">
   <path fill="currentColor"
d="M347 238q-15 15 -29 24q1 13 3 29l7 74l5 41q3 18 18 33q-39 3 -64 9q3 -21 3 -58q-10 -130 -17 -171q-13 -73 -49 -138q-49 -87 -111 -141q-28 -24 -75 -41q36 -18 55 -38q24 21 62 62q39 42 64 78q70 94 93 213q51 -33 93 -73l52 -50q10 -12 27 -35q18 16 28 27
q3 3 7 6q-64 64 -120 109zM908 -109q7 -7 16 -17q9 6 14 11q18 9 46 30q-63 24 -96 54q-76 72 -127 161q-27 48 -45 85q-13 28 -29 73q3 90 9 113q4 27 20 44q-33 1 -63 7q3 -27 4 -47l-10 -115q-12 -108 -70 -210q-46 -79 -106 -135q-48 -42 -104 -60q6 -3 21 -13
q22 -12 33 -22q58 48 93 83q75 81 120 172q9 18 18 42q9 25 23 70q51 -105 66 -129q49 -82 131 -164zM347 632h-209q-27 0 -55 3q-4 0 -14 3v-47q24 6 43 6h235q-3 -105 -5 -111h49q-3 13 -6 48v63h244l-3 -91q0 -12 -2 -17h48q-6 66 -5 88v20l239 -1q28 0 38 -4q1 0 3 -1
v47q-18 -6 -67 -6h-213q0 93 3 101q0 3 10 24h-56q1 -30 5 -62v-63h-244q0 93 3 101q0 3 10 24h-56l4 -34z" />
  </g>

</svg>
