<?xml version="1.0" standalone="no"?>
<!DOCTYPE svg PUBLIC "-//W3C//DTD SVG 1.1//EN" "http://www.w3.org/Graphics/SVG/1.1/DTD/svg11.dtd" >
<svg xmlns="http://www.w3.org/2000/svg" xmlns:xlink="http://www.w3.org/1999/xlink" version="1.1" viewBox="-10 0 1034 1024">
  <g transform="matrix(1 0 0 -1 0 820)">
   <path fill="currentColor"
d="M350 654h-216q-21 1 -47 3q-7 0 -17 3v-47q25 6 64 6h216v-41q0 -45 -5 -67h49q-3 12 -4 40l-1 68h249v-41q0 -39 -5 -67h49q-4 34 -5 62v46l265 -1q9 0 22 -5v47q-4 0 -8 -1q-4 0 -8 -2q-18 0 -52 -3h-219q0 70 3 80q1 13 10 24h-57q4 -49 5 -85v-19h-249q0 69 3 75
q3 15 10 27h-57q1 -42 5 -84v-18zM485 434l-374 3q-6 0 -16 2v-46q30 3 63 5h327v-95h-232q-21 0 -47 3l-17 2v-46q-3 0 9 1l55 4h232v-92l-347 1q-31 3 -39 4v-45q30 3 63 5h323v-237q0 -43 -5 -66h49q-3 33 -5 66v237h313q-3 -57 -7 -91q-3 -25 -13 -43q-12 -27 -57 -27
q-30 0 -83 14q12 -27 18 -57q78 3 107 11q34 10 50 39q15 31 21 95q0 10 2 19l3 37l6 43q-36 -1 -74 -5h-286v92h246q33 0 52 -3l15 -2v46q-33 -1 -67 -5h-246v95h327q31 0 53 -3l15 -2v46q-6 0 -8 -1q-24 -3 -60 -4h-327q0 78 3 80q3 15 12 30h-59q0 -6 3 -31z" />
  </g>

</svg>
