<?xml version="1.0" standalone="no"?>
<!DOCTYPE svg PUBLIC "-//W3C//DTD SVG 1.1//EN" "http://www.w3.org/Graphics/SVG/1.1/DTD/svg11.dtd" >
<svg xmlns="http://www.w3.org/2000/svg" xmlns:xlink="http://www.w3.org/1999/xlink" version="1.1" viewBox="-10 0 1010 1000">
   <path fill="currentColor"
d="M298 -12q96 -1 105 8q1 3 -3 8q-13 19 -13 50v32h222v-32q1 -43 -8 -67q99 2 105 11q1 2 -3 9q-13 22 -13 47v32h141q43 0 93 -6q15 -1 22 -2v83q-19 -8 -113 -8h-143q0 58 8 93h-97q8 -48 8 -93h-222q0 67 8 93h-97q0 -3 1 -8q7 -37 7 -85h-149q-50 0 -99 8v-83
q37 9 101 8h147v-30q1 -44 -8 -68zM438 193q97 3 116 14q2 2 -5 10q-15 17 -15 33v38h254q73 0 113 -8v82q-3 0 -10 -1q-74 -7 -107 -7h-250v75h143h57q19 0 31 -1q23 -1 43 -5v79q-38 -6 -123 -6h-151v78h214q84 0 115 -8q-11 174 -30 220q-24 48 -152 46q-4 -50 -44 -99
q86 18 108 0q28 -17 27 -92h-238v163q0 50 7 100q1 6 1 9h-104q9 -37 8 -107v-165h-263q-74 0 -110 8v-83q35 9 110 8h263v-78h-156q-90 0 -119 6v-79q7 0 21 2q41 4 98 4h156v-75h-256q-47 0 -68 2q-20 1 -41 6v-82q49 9 109 8h256v-28q0 -29 -6 -59q-1 -5 -2 -8z" />
</svg>
