<?xml version="1.0" standalone="no"?>
<!DOCTYPE svg PUBLIC "-//W3C//DTD SVG 1.1//EN" "http://www.w3.org/Graphics/SVG/1.1/DTD/svg11.dtd" >
<svg xmlns="http://www.w3.org/2000/svg" xmlns:xlink="http://www.w3.org/1999/xlink" version="1.1" viewBox="-10 0 1010 1000">
   <path fill="currentColor"
d="M323 -2q93 -2 98 10q-15 25 -16 102h192q0 -59 -10 -114q93 -3 100 8q-11 42 -10 106h150q50 0 111 -10v89q-56 -10 -109 -10h-150q0 14 6 43l3 18h-97q8 -38 8 -61h-190q0 34 10 65h-96q5 -31 6 -65h-131q-67 0 -131 10v-89q57 9 131 10h131q1 -82 -6 -112zM188 262
q60 8 108 8h478q54 0 127 -10v90q-52 -9 -129 -10h-498q-1 236 -31 334q-29 111 -124 227q-29 -41 -75 -67q92 -72 120 -166q31 -90 30 -299q-1 -72 -6 -107zM353 429q49 7 95 8h252l94 -4q-2 17 -6 63q-11 145 -30 181q-22 47 -147 52q-3 -59 -46 -96q60 8 76 7q22 0 34 -9
q27 -28 27 -125h-260v227q-1 57 17 68q13 14 85 13h162q90 2 112 -22q28 -22 31 -105q38 43 88 51q-23 99 -61 120q-37 28 -158 27h-176q-125 2 -152 -24q-32 -20 -29 -119v-228q-1 -50 -8 -85z" />
</svg>
