<?xml version="1.0" standalone="no"?>
<!DOCTYPE svg PUBLIC "-//W3C//DTD SVG 1.1//EN" "http://www.w3.org/Graphics/SVG/1.1/DTD/svg11.dtd" >
<svg xmlns="http://www.w3.org/2000/svg" xmlns:xlink="http://www.w3.org/1999/xlink" version="1.1" viewBox="-10 0 1034 1024">
  <g transform="matrix(1 0 0 -1 0 820)">
   <path fill="currentColor"
d="M230 433q675 0 685 -2q3 0 8 -2q3 0 7 -1v46q-33 -1 -66 -5l-625 1q-19 3 -52 4q1 -34 5 -70q0 -153 -2 -194q-3 -40 -10 -85q-15 -85 -59 -160q-30 -48 -76 -85q31 -6 62 -19q21 30 32 52q10 15 19 34q18 34 32 74q13 39 24 76q15 72 16 170v166zM229 -130
q19 -16 40 -35q171 99 240 240q13 31 22 63q10 36 21 90h270l-23 -270q-6 -36 -22 -50q-15 -10 -60 -11q-31 0 -87 11q12 -27 21 -57q97 6 107 9q43 9 61 31q16 24 20 78l16 200q3 43 12 100q-69 -4 -76 -5h-235q3 84 5 86q3 33 28 52q-33 0 -71 5q1 -19 2 -51q-1 -9 -1 -21
q-3 -60 -4 -71q-135 0 -159 2l-18 3v-47q24 6 42 6h130q-15 -96 -51 -164q-54 -97 -146 -150q-39 -19 -98 -35q6 -4 14 -9zM355 671h-212q-30 0 -55 2q-6 0 -14 3v-46q30 4 67 5h214q-3 -111 -5 -119h50q-6 60 -6 93v26h233l-3 -113q0 -3 -2 -5h48v5q-3 6 -4 34l-1 79
l244 -1q4 0 41 -4v46q-30 -4 -67 -5h-218v41q0 12 2 29q1 9 3 15l8 17h-56q1 -30 5 -61v-41h-233q0 72 3 75q3 13 10 26h-57q1 -42 5 -84v-17z" />
  </g>

</svg>
