<?xml version="1.0" standalone="no"?>
<!DOCTYPE svg PUBLIC "-//W3C//DTD SVG 1.1//EN" "http://www.w3.org/Graphics/SVG/1.1/DTD/svg11.dtd" >
<svg xmlns="http://www.w3.org/2000/svg" xmlns:xlink="http://www.w3.org/1999/xlink" version="1.1" viewBox="-10 0 1034 1024">
  <g transform="matrix(1 0 0 -1 0 820)">
   <path fill="currentColor"
d="M72 -99q21 -18 40 -53q75 22 127 42q40 16 89 46q151 93 188 298q6 43 13 55q6 12 25 26l-72 10q0 -15 1 -27q0 -27 -10 -79q-12 -60 -39 -111q-66 -123 -199 -175q-67 -25 -163 -32zM278 441q-7 0 -67 5q1 -33 5 -68l-1 -257q-1 -7 -2 -18q0 -3 -2 -13h47q-4 24 -5 61
v254h491l-1 -270q-1 -12 -2 -28q0 -3 -2 -13h49q-3 12 -4 48l-1 231q1 36 5 73q-36 -1 -72 -5h-438zM581 108q1 21 5 44q3 6 8 18h-57q3 -12 4 -28t2 -34v-165q0 -22 10 -37q16 -21 52 -28q43 -10 128 -11q75 0 126 8q46 10 65 45q9 18 23 70q3 10 5 21q-6 4 -15 9
q-18 12 -32 27q-1 -22 -5 -45q-3 -40 -13 -61q-13 -24 -52 -31q-34 -6 -100 -7q-93 0 -127 11q-27 9 -27 38v156zM351 638l-262 1l-29 5v-47q18 6 67 6h224q-3 -96 -5 -104q-1 0 -1 -1h50q-4 24 -5 51v54h230q-3 -100 -5 -105h48q-6 66 -5 105l262 -3q6 0 10 -3v47
q-18 -6 -66 -6h-206q0 103 3 107q3 13 10 26h-56q4 -25 5 -90v-43h-230q0 99 3 105q1 13 10 24h-58q0 -4 3 -11q0 -36 3 -72v-46z" />
  </g>

</svg>
