<?xml version="1.0" standalone="no"?>
<!DOCTYPE svg PUBLIC "-//W3C//DTD SVG 1.1//EN" "http://www.w3.org/Graphics/SVG/1.1/DTD/svg11.dtd" >
<svg xmlns="http://www.w3.org/2000/svg" xmlns:xlink="http://www.w3.org/1999/xlink" version="1.1" viewBox="-10 0 1010 1000">
   <path fill="currentColor"
d="M585 -10q57 0 74 1q22 1 22 5q0 2 -2 8q-12 30 -12 104h160q70 0 106 -6v81q-31 -6 -108 -6h-158q-1 62 4 81h-82q4 -27 4 -81h-186q0 55 6 85h-56q1 2 -1 12q-5 31 -5 70v131h462h18q60 1 106 -6v83q-54 -9 -124 -8h-250q107 203 399 232q-48 54 -49 93
q-338 -85 -433 -325h-129v238q16 -8 45 -23q90 -45 120 -64q-1 47 10 85q-8 4 -24 11q-204 90 -234 118q-10 -33 -46 -85q62 -25 54 -68v-212h-93q-60 0 -106 6v-83q62 8 106 8h93v-129q0 -69 -8 -108q32 2 60 5q3 1 5 1q0 -7 1 -25q1 -26 1 -42h-156q-39 0 -60 1
q-24 1 -52 5v-81q42 6 114 6h154q0 -66 -6 -116q84 0 96 4q1 1 -2 10q-17 45 -16 102h186q0 -51 -8 -118zM758 227q68 39 73 63q-2 2 -9 3q-34 1 -92 35q-50 31 -260 121q-19 -38 -63 -70q181 -41 351 -152z" />
</svg>
