<?xml version="1.0" standalone="no"?>
<!DOCTYPE svg PUBLIC "-//W3C//DTD SVG 1.1//EN" "http://www.w3.org/Graphics/SVG/1.1/DTD/svg11.dtd" >
<svg xmlns="http://www.w3.org/2000/svg" xmlns:xlink="http://www.w3.org/1999/xlink" version="1.1" viewBox="-10 0 1034 1024">
  <g transform="matrix(1 0 0 -1 0 820)">
   <path fill="currentColor"
d="M549 541q-30 15 -55 29q-18 -37 -41 -65q-57 -72 -166 -150q-129 -88 -216 -94q30 -24 45 -47q43 18 60 28q19 9 38 20q60 36 103 66q37 27 73 59q63 57 111 111q82 -93 198 -160q58 -31 106 -55q48 -21 106 -43q16 25 42 51q-82 4 -196 59q-141 69 -229 176zM353 658
l-229 1q-31 3 -38 4v-45l61 5h206v-34q0 -45 -5 -65h47q-6 43 -5 72v27h258v-33q0 -45 -5 -65h47q-3 33 -5 67v31h198q30 0 51 -3q-3 0 15 -2v45q-33 -1 -66 -5h-198q0 78 3 84q1 15 11 26h-56q4 -42 5 -78v-32h-258q0 70 3 79q0 6 10 25h-55l5 -101v-3zM305 -5q0 -18 5 -37
q6 -24 34 -36q25 -13 91 -17l147 -3l96 2q81 3 113 28q27 24 57 103l-21 12q-12 6 -29 20q-1 -39 -8 -63q-15 -51 -75 -60q-48 -6 -135 -6l-80 1q-40 0 -68 3q-57 3 -73 14q-16 10 -17 42v271h332l-5 -75q-3 -25 -6 -44q-6 -27 -18 -37q-16 -15 -51 -15q-24 0 -64 11
q12 -21 24 -55q19 0 39 4q87 9 104 68q9 42 17 147q1 18 3 36q-34 -1 -70 -5l-302 1q-15 3 -45 4q1 -36 5 -73v-241z" />
  </g>

</svg>
