<?xml version="1.0" standalone="no"?>
<!DOCTYPE svg PUBLIC "-//W3C//DTD SVG 1.1//EN" "http://www.w3.org/Graphics/SVG/1.1/DTD/svg11.dtd" >
<svg xmlns="http://www.w3.org/2000/svg" xmlns:xlink="http://www.w3.org/1999/xlink" version="1.1" viewBox="-10 0 1010 1000">
   <path fill="currentColor"
d="M319 -8q36 -3 73 0q35 4 33 10q-18 28 -18 100h186q-1 -77 -8 -106q48 -2 83 -1q30 1 28 5q-12 14 -15 32q-4 19 -4 68h142q66 0 119 -6v87q-37 -8 -117 -8h-142q1 51 11 93h-103q7 -30 8 -91h-186q0 53 8 89h-98q8 -38 8 -91h-146q-77 0 -131 8v-89q70 7 129 8h148
q0 -72 -8 -108zM800 280q-7 37 -8 85v155q1 73 10 131h-108q9 -55 10 -129v-160h-420v158q1 88 8 135h-102q9 -42 10 -133v-162q-1 -34 -8 -78q47 6 90 6h420q36 0 98 -8zM433 407q102 5 113 12q1 1 -7 9q-18 20 -19 29q-1 5 -3 22q-15 173 -94 261q-99 108 -272 163
q-29 -54 -89 -81q190 -15 307 -139q66 -69 64 -276zM518 552q109 0 107 8q-22 39 -22 95v70q-1 47 15 59q14 15 67 14h69q63 1 79 -24q19 -21 20 -103q53 49 97 60q-22 94 -51 117q-25 27 -105 25h-125q-101 1 -122 -17q-25 -13 -23 -82v-127q0 -66 -6 -95z" />
</svg>
