<?xml version="1.0" standalone="no"?>
<!DOCTYPE svg PUBLIC "-//W3C//DTD SVG 1.1//EN" "http://www.w3.org/Graphics/SVG/1.1/DTD/svg11.dtd" >
<svg xmlns="http://www.w3.org/2000/svg" xmlns:xlink="http://www.w3.org/1999/xlink" version="1.1" viewBox="-10 0 1010 1000">
   <path fill="currentColor"
d="M585 -6q92 -2 103 4q-24 51 -23 108h154q57 0 123 -10v95q-52 -11 -125 -10h-152q0 37 12 109h-94q10 -60 10 -109h-186q0 33 8 105h-92q9 -58 10 -107h-152q-54 1 -119 12v-97q50 10 119 10h152q1 -84 -6 -108q77 -3 104 10q-23 42 -24 100h184q1 -77 -6 -112zM234 270
q75 18 95 30q1 1 -4 5q-24 20 -39 55h121q21 0 77 -6q-1 7 -3 23q-29 255 -106 350q-76 97 -242 174q-21 -37 -85 -69q209 -63 281 -173q-42 -36 -89 -67q-23 -14 -38 -24l60 -56q40 28 84 70q8 8 13 12q28 -60 38 -165h-137q-4 8 -14 26q-68 130 -111 188q-36 -25 -81 -33
q123 -126 180 -340zM524 326q52 8 89 8h159q12 0 40 -3q27 -2 43 -3q-4 37 -7 127q-2 160 -23 184q-17 29 -138 44q-3 -54 -40 -99q92 22 107 -4q14 -29 14 -177h-157v294q-1 71 16 86q14 18 81 17q99 2 120 -21q26 -19 21 -104q48 39 99 48q-19 161 -144 156h-131
q-95 1 -119 -21q-13 -10 -18 -30q-4 -16 -4 -60v-361q-1 -37 -8 -81z" />
</svg>
