<?xml version="1.0" standalone="no"?>
<!DOCTYPE svg PUBLIC "-//W3C//DTD SVG 1.1//EN" "http://www.w3.org/Graphics/SVG/1.1/DTD/svg11.dtd" >
<svg xmlns="http://www.w3.org/2000/svg" xmlns:xlink="http://www.w3.org/1999/xlink" version="1.1" viewBox="-10 0 1034 1024">
  <g transform="matrix(1 0 0 -1 0 820)">
   <path fill="currentColor"
d="M341 625h-216q-21 0 -48 3q-6 0 -16 3v-47q31 4 64 5h216v-73q0 -46 -6 -68h50q-4 54 -5 112v29h255v-68q0 -45 -5 -67h49q0 7 -2 15q-3 51 -3 75v45l258 -1q22 0 35 -4v47q-45 -6 -68 -6h-225v93q0 18 3 30q1 12 12 27h-59q4 -90 5 -94v-56h-255v88q0 18 3 30
q1 13 12 28h-60q3 -12 3 -19q1 -21 3 -39v-88zM222 -159q-4 34 -5 63v46h580l-3 -88q0 -6 -2 -12h50q-3 15 -6 64l1 450q1 24 5 49l-69 -6l-546 1q-39 4 -53 5q1 -33 5 -69l-1 -472q-1 -6 -4 -31h48zM217 196v175h270v-175h-270zM217 -14v174h270v-174h-270zM526 196v175
h271v-175h-271zM526 -14v174h271v-174h-271z" />
  </g>

</svg>
