<?xml version="1.0" standalone="no"?>
<!DOCTYPE svg PUBLIC "-//W3C//DTD SVG 1.1//EN" "http://www.w3.org/Graphics/SVG/1.1/DTD/svg11.dtd" >
<svg xmlns="http://www.w3.org/2000/svg" xmlns:xlink="http://www.w3.org/1999/xlink" version="1.1" viewBox="-10 0 1034 1024">
  <g transform="matrix(1 0 0 -1 0 820)">
   <path fill="currentColor"
d="M365 640q0 103 3 106q3 13 13 24h-60l5 -96v-34h-189q-21 0 -47 3q-6 0 -17 3v-48q30 4 64 5h189v-49q0 -45 -5 -68h50q-6 18 -6 65v52h287v-49q0 -46 -6 -68h49q0 7 -2 16q-3 51 -3 78v23h197q36 0 68 -5v48q-51 -6 -68 -6h-197q0 81 3 107q3 10 13 24h-60q0 -9 3 -19
l3 -112h-287zM481 556q-75 -87 -209 -189q-69 -51 -91 -62q-21 -10 -61 -14q9 -22 16 -52q63 13 75 14q36 3 212 12l274 15l98 8q22 -15 32 -24q18 -15 46 -41q15 24 29 37l-111 83l-151 102q0 -3 -9 -12q-6 -4 -11 -11q-6 -6 -10 -11q75 -39 143 -92l-227 -13l-176 -10
l-114 -3l198 161q39 33 57 42q13 9 43 16q-9 6 -34 27q-10 9 -19 17zM272 -169q-1 4 -1 8q0 3 -4 63v18h484q-1 -33 -3 -68q-1 -3 -1 -7q-1 -3 -1 -7h49q-3 30 -5 62l1 228q0 18 4 50q-36 -1 -73 -5l-444 1q-19 3 -55 4q1 -36 5 -74l-1 -241q-1 -18 -4 -32h49zM267 -45v182
h484v-182h-484z" />
  </g>

</svg>
