<?xml version="1.0" standalone="no"?>
<!DOCTYPE svg PUBLIC "-//W3C//DTD SVG 1.1//EN" "http://www.w3.org/Graphics/SVG/1.1/DTD/svg11.dtd" >
<svg xmlns="http://www.w3.org/2000/svg" xmlns:xlink="http://www.w3.org/1999/xlink" version="1.1" viewBox="-10 0 1010 1000">
   <path fill="currentColor"
d="M605 -10q85 2 105 12q1 2 -3 6q-19 17 -19 52v36h124q91 0 126 -8v89q-50 -8 -123 -8h-127v12q0 76 8 111h-95q1 -5 2 -15q6 -52 6 -96v-12h-234v14q0 59 8 105h-95q5 -28 6 -47q2 -20 2 -58v-14h-143q-41 0 -83 6q-14 1 -20 2v-89q30 9 103 8h143v-20q0 -41 -7 -79
q-1 -3 -1 -5q97 4 107 16q1 2 -3 6q-17 14 -17 50v32h234v-34q0 -34 -4 -72zM462 207q79 18 98 31q-12 8 -24 20q146 167 432 197q-48 32 -77 99q-287 -101 -403 -250q-114 134 -387 278q-17 -33 -51 -59q-16 -13 -26 -21q303 -84 438 -295zM506 399q28 79 40 119l-94 14
q-1 -37 -33 -115zM819 548q-81 95 -250 244q43 18 93 37l40 15l-63 77q-178 -112 -349 -163l53 -59q22 7 68 25q58 22 89 32q14 -12 39 -32q64 -50 110 -95h-328q-88 0 -138 6v-87q55 8 138 8h342q102 0 156 -8z" />
</svg>
