<?xml version="1.0" standalone="no"?>
<!DOCTYPE svg PUBLIC "-//W3C//DTD SVG 1.1//EN" "http://www.w3.org/Graphics/SVG/1.1/DTD/svg11.dtd" >
<svg xmlns="http://www.w3.org/2000/svg" xmlns:xlink="http://www.w3.org/1999/xlink" version="1.1" viewBox="-10 0 1034 1024">
  <g transform="matrix(1 0 0 -1 0 820)">
   <path fill="currentColor"
d="M298 194q3 -30 3 -37v-244q0 -25 -3 -57q0 -6 -3 -15h50q-1 4 -1 7t-4 65v28h440q0 -55 -3 -74q-3 -3 -3 -19h50l-6 68l1 247q0 21 5 62l-75 -5l-387 1l-32 3l122 137l481 -1l35 -4v47q-45 -6 -68 -6h-422q3 3 6 9q42 63 53 74q16 19 41 26q-18 12 -20 13q-16 9 -39 26
q-24 -66 -91 -148h-293q-21 0 -47 3q-7 0 -17 3v-47q34 4 64 5h264q-75 -93 -172 -178q-105 -87 -176 -106q36 -19 54 -39q6 4 12 10q15 12 25 18q16 15 48 35q24 18 68 57q19 18 40 36zM340 -23v205h440v-205h-440zM382 636q0 102 3 105q3 13 12 25h-59q4 -54 5 -87v-43
h-165q-21 0 -47 3q-6 0 -17 3v-47q33 4 64 5h165v-36q0 -46 -5 -67h49q0 7 -2 15q-3 51 -3 78v10h291v-41q0 -48 -5 -68h49q-4 54 -5 109l175 -1q24 0 37 -4v47q-45 -6 -78 -6h-134q0 102 3 105q3 13 12 25h-59l5 -96v-34h-291z" />
  </g>

</svg>
