<?xml version="1.0" standalone="no"?>
<!DOCTYPE svg PUBLIC "-//W3C//DTD SVG 1.1//EN" "http://www.w3.org/Graphics/SVG/1.1/DTD/svg11.dtd" >
<svg xmlns="http://www.w3.org/2000/svg" xmlns:xlink="http://www.w3.org/1999/xlink" version="1.1" viewBox="-10 0 1010 1000">
   <path fill="currentColor"
d="M613 -6q109 2 105 16q1 3 -3 14q-11 37 -11 86h86q83 0 156 -4v81q-51 -9 -158 -6l-84 2q1 83 4 113h-93q0 -12 2 -47q2 -47 2 -68h-230q0 70 4 115h-87v-2q4 -39 4 -113h-100q-27 0 -83 2q-44 2 -62 2v-81q12 1 36 2q64 4 109 4h102q0 -54 -1 -75q-1 -25 -3 -39
q105 3 103 18q0 3 -4 9q-17 28 -18 87h230q0 -99 -6 -116zM464 233q106 27 99 39q0 5 -11 13q-29 22 -50 59h274q109 -1 162 -6v85q-113 -8 -162 -8h-322q-42 59 -107 115h280q140 0 194 -6q6 -1 6 8q0 5 -1 15q-5 66 -5 162q0 140 8 198h-99q6 -42 6 -91h-367q0 57 4 81
h-95q4 -67 6 -303q-90 75 -181 131q-24 -29 -73 -66q204 -78 339 -242h-141q-98 1 -165 8v-85q104 6 159 6h189q30 -51 47 -97q4 -10 6 -16zM369 602v142h365v-142h-365z" />
</svg>
