<?xml version="1.0" standalone="no"?>
<!DOCTYPE svg PUBLIC "-//W3C//DTD SVG 1.1//EN" "http://www.w3.org/Graphics/SVG/1.1/DTD/svg11.dtd" >
<svg xmlns="http://www.w3.org/2000/svg" xmlns:xlink="http://www.w3.org/1999/xlink" version="1.1" viewBox="-10 0 1010 1000">
   <path fill="currentColor"
d="M585 -6q63 0 81 1q23 1 22 5q-27 50 -25 102h162q75 -3 119 -10v85q-54 -10 -115 -10h-164v109h71q41 0 89 -6q-5 50 -6 95v413q2 83 10 121h-97q8 -25 8 -71h-470q0 36 8 77h-97q7 -33 7 -117v-426q1 -60 -5 -92q42 6 91 6h61v-111h-170q-71 0 -107 10v-85q50 10 107 10
h172q0 -46 -10 -106q88 4 106 10q-22 33 -24 96h184q0 -49 -8 -106zM411 165v111h182v-111h-182zM272 342v95h466v-95h-466zM272 596h466v-96h-466v96zM738 659h-466v103h466v-103z" />
</svg>
