<?xml version="1.0" standalone="no"?>
<!DOCTYPE svg PUBLIC "-//W3C//DTD SVG 1.1//EN" "http://www.w3.org/Graphics/SVG/1.1/DTD/svg11.dtd" >
<svg xmlns="http://www.w3.org/2000/svg" xmlns:xlink="http://www.w3.org/1999/xlink" version="1.1" viewBox="-10 0 1034 1024">
  <g transform="matrix(1 0 0 -1 0 820)">
   <path fill="currentColor"
d="M805 417q-1 -22 -1 -47l-7 -204q-3 -40 -13 -54q-18 -18 -57 -19q-21 0 -56 10q10 -22 19 -58q6 0 30 4q75 12 97 40q12 18 16 35q3 28 8 175l5 143q0 9 1 16q-34 -1 -70 -5h-452q31 39 57 54q-25 12 -52 30q-69 -123 -195 -219q-36 -24 -82 -37q36 -18 53 -38
q49 36 91 71q43 39 102 103h506zM369 638h-225q-21 0 -47 3q-6 0 -17 3v-47q33 4 64 5h225v-12q0 -48 -7 -69h51q-6 69 -6 81h234v-16q0 -48 -6 -69h50q0 7 -2 15q-3 54 -3 70q252 0 271 -3q4 0 11 -2v47q-51 -6 -68 -6h-214q0 100 3 103q3 15 12 25h-60q6 -30 6 -76v-52
h-234v69q0 18 4 29q1 13 12 28h-61q3 -9 3 -18q3 -48 4 -76v-32zM249 295q3 -24 3 -75q0 -292 3 -299q6 -28 44 -47q21 -9 65 -11l206 -2l150 2q72 0 89 2q69 4 109 67q10 18 20 37q9 21 20 53q-27 12 -51 33q0 -27 -4 -46q-12 -52 -39 -78q-28 -27 -117 -30l-265 -1l-90 1
q-57 1 -76 8q-27 9 -27 63v129l298 -1l48 -4q-4 54 -5 79l1 101q0 19 4 47q-34 -1 -69 -5l-266 1q-3 0 -54 4zM289 137v145h302v-145h-302z" />
  </g>

</svg>
