<?xml version="1.0" standalone="no"?>
<!DOCTYPE svg PUBLIC "-//W3C//DTD SVG 1.1//EN" "http://www.w3.org/Graphics/SVG/1.1/DTD/svg11.dtd" >
<svg xmlns="http://www.w3.org/2000/svg" xmlns:xlink="http://www.w3.org/1999/xlink" version="1.1" viewBox="-10 0 1034 1024">
  <g transform="matrix(1 0 0 -1 0 820)">
   <path fill="currentColor"
d="M472 94q9 7 14 12q-1 7 -2 13q-3 10 -5 20l-3 24q-15 -21 -77 -74q-75 -60 -169 -125l1 423q0 9 6 29q1 6 6 14h-57l5 -88l-1 -377q-1 -3 -2 -8q-4 -12 -14 -20q34 -42 38 -45l52 46l70 50q99 78 138 106zM932 -115q3 1 4 4q3 4 8 8q3 3 12 10q-15 16 -25 25
q-16 15 -52 45l-129 104q15 37 26 87q15 75 21 168q7 91 9 95q4 12 16 28q-33 3 -66 5q3 -28 4 -76q0 -81 -16 -181q-19 -105 -66 -157q-73 -79 -174 -121q-60 -24 -158 -32q27 -30 39 -51q123 28 222 94q30 21 57 42q27 24 65 63q45 -30 104 -84q60 -54 89 -89q4 7 10 13z
M460 476q-9 -9 -23 -16q-4 -1 -15 -8q48 -63 102 -198q7 6 15 10q9 3 24 13q-43 93 -103 199zM349 635h-214q-51 0 -69 5v-47q7 3 64 6h219q-3 -105 -5 -112h49q-4 22 -6 48v64h235q-3 -108 -5 -112h48q-6 66 -5 87v25l290 -3q6 0 9 -3v47q-30 -4 -67 -5h-232q0 78 2 86
q0 6 4 26q1 6 7 15h-56q3 -15 3 -28l2 -99h-235q0 87 3 95q0 3 10 24h-56q0 -6 2 -11l3 -100v-8z" />
  </g>

</svg>
