<?xml version="1.0" standalone="no"?>
<!DOCTYPE svg PUBLIC "-//W3C//DTD SVG 1.1//EN" "http://www.w3.org/Graphics/SVG/1.1/DTD/svg11.dtd" >
<svg xmlns="http://www.w3.org/2000/svg" xmlns:xlink="http://www.w3.org/1999/xlink" version="1.1" viewBox="-10 0 1010 1000">
   <path fill="currentColor"
d="M607 -10q93 3 103 14q0 3 -7 17q-11 21 -11 29v56h129q68 0 106 -7q8 -1 10 -1v89q-3 0 -12 -1q-44 -7 -100 -7h-133q0 44 6 77q2 12 2 18h-95q0 -6 2 -20q6 -37 6 -75h-226q0 48 7 91q1 7 1 8h-95q0 -5 2 -18q6 -40 6 -81h-129q-51 0 -98 7q-11 1 -14 1v-89q3 0 14 2
q42 6 96 6h131q0 -62 -5 -105q-1 -7 -1 -9q89 4 107 18q0 3 -6 12q-14 24 -14 42v42h224q1 -81 -6 -116zM450 227q92 3 104 17q0 3 -5 11q-13 19 -13 43v52h258q57 0 100 -6q10 -2 13 -2v85q-2 0 -8 -1q-35 -7 -97 -7h-195q48 113 153 185q107 66 204 89q-58 33 -93 93
q-83 -41 -137 -93v73q-2 0 -9 -1q-29 -7 -72 -7h-113q0 80 9 136q1 9 1 11h-102q0 -4 2 -16q8 -57 8 -131h-113q-41 0 -80 7q-9 1 -11 1v-73q-64 66 -137 111q-31 -41 -93 -67q70 -21 166 -102q107 -93 181 -216h-163q-62 0 -111 7q-7 1 -8 1v-85q1 0 8 1q49 7 113 7h248
q0 -82 -8 -123zM540 423v262h111q35 0 64 -5q4 -1 5 -1q-128 -112 -180 -256zM458 423q-77 142 -190 254q1 0 3 1q20 7 80 7h107v-161v-101z" />
</svg>
