<?xml version="1.0" standalone="no"?>
<!DOCTYPE svg PUBLIC "-//W3C//DTD SVG 1.1//EN" "http://www.w3.org/Graphics/SVG/1.1/DTD/svg11.dtd" >
<svg xmlns="http://www.w3.org/2000/svg" xmlns:xlink="http://www.w3.org/1999/xlink" version="1.1" viewBox="-10 0 1010 1000">
   <path fill="currentColor"
d="M581 -15q103 0 109 9q1 3 -4 11q-17 26 -17 57v36h133q87 0 129 -8v83q-46 -7 -129 -8h-133q-1 54 8 91h-96q0 -2 1 -4q7 -43 7 -87h-192q0 66 8 99h-95q7 -53 7 -99h-127q-59 0 -82 1q-29 1 -46 5v-81q4 1 12 2q47 6 109 6h134v-26q0 -7 -3 -33q-3 -28 -4 -47
q96 1 111 12q1 3 -5 9q-19 22 -19 53v32h192v-34q1 -59 -8 -79zM877 292v83q-52 -8 -147 -8h-184v239h260q87 0 140 -8v79q-59 -4 -142 -4h-258v137q0 53 8 99h-100q8 -27 8 -99v-137h-279q-67 0 -133 8v-83q51 8 135 8h277v-239h-202q-85 0 -125 8v-83q39 9 127 8h470
q88 0 145 -8zM728 403l10 5q66 30 81 43q-41 10 -136 135q-32 -31 -76 -44q71 -52 121 -139zM274 413q49 38 107 119l-77 48q-39 -73 -108 -125z" />
</svg>
