<?xml version="1.0" standalone="no"?>
<!DOCTYPE svg PUBLIC "-//W3C//DTD SVG 1.1//EN" "http://www.w3.org/Graphics/SVG/1.1/DTD/svg11.dtd" >
<svg xmlns="http://www.w3.org/2000/svg" xmlns:xlink="http://www.w3.org/1999/xlink" version="1.1" viewBox="-10 0 1010 1000">
   <path fill="currentColor"
d="M325 -12q93 4 100 10q0 1 -2 5q-14 28 -16 85v18h174v-20q0 -61 -2 -94q9 0 26 1q73 1 70 7q1 1 -2 6q-19 28 -20 74v26h83q150 0 189 -8v83q-39 -8 -179 -8h-89q0 49 8 69h-92q7 -28 8 -69h-174q0 54 8 69h-86q6 -20 6 -69h-131q-98 0 -141 8v-83q19 4 101 6q33 1 42 2
h129v-20q0 -60 -10 -98zM242 250q109 5 109 16q-1 2 -4 6q-18 17 -16 72v23h332v-27v-16q1 -54 -4 -76q95 4 107 16q0 1 -3 7q-19 31 -19 73v25h36q116 -1 170 -9v85q-34 -7 -170 -8h-34v301q1 134 12 169h-97q7 -22 6 -91h-336q0 65 4 85h-91q8 -58 8 -176v-290h-60
q-118 1 -148 8v-85q15 4 50 6q17 0 39 1h59h60v-27q0 -55 -10 -88zM331 437v117h336v-117h-336zM331 623v123h336v-123h-336z" />
</svg>
