<?xml version="1.0" standalone="no"?>
<!DOCTYPE svg PUBLIC "-//W3C//DTD SVG 1.1//EN" "http://www.w3.org/Graphics/SVG/1.1/DTD/svg11.dtd" >
<svg xmlns="http://www.w3.org/2000/svg" xmlns:xlink="http://www.w3.org/1999/xlink" version="1.1" viewBox="-10 0 1010 1000">
   <path fill="currentColor"
d="M304 -10q79 1 103 12q0 3 -5 9q-15 23 -15 49v48h226v-56q0 -34 -5 -57q-1 -4 -1 -5q102 4 107 10q0 3 -6 11q-16 23 -16 43v54h116q69 0 118 -7q9 -1 12 -1v91q-3 0 -12 -1q-45 -5 -114 -5h-122q0 47 6 79q2 7 2 10h-93q0 -5 2 -16q6 -33 6 -73h-226q0 48 6 79q2 7 2 10
h-93q8 -47 8 -89h-96q-65 0 -126 6q-15 2 -19 2v-93q4 0 22 2q67 6 123 6h96v-52q0 -27 -5 -59q-1 -6 -1 -7zM456 238q98 7 107 18q1 2 -3 8q-18 27 -18 74h158q69 0 106 -6q-8 32 -8 105v115q58 0 119 -6q15 -2 18 -2v87q-3 0 -14 -1q-51 -7 -123 -7h-223q116 173 377 177
q-43 38 -79 101q-292 -73 -367 -274q-55 183 -381 278q-34 -50 -87 -87q289 -29 387 -195h-223q-67 0 -134 7q-15 1 -18 1v-87q3 0 17 1q73 7 133 7v-135q0 -74 -6 -85q30 6 96 6h172q-3 -62 -6 -100zM280 405v147h168q9 -48 12 -147h-180zM538 405q-2 65 -12 147h190v-147
h-178z" />
</svg>
