<?xml version="1.0" standalone="no"?>
<!DOCTYPE svg PUBLIC "-//W3C//DTD SVG 1.1//EN" "http://www.w3.org/Graphics/SVG/1.1/DTD/svg11.dtd" >
<svg xmlns="http://www.w3.org/2000/svg" xmlns:xlink="http://www.w3.org/1999/xlink" version="1.1" viewBox="-10 0 1010 1000">
   <path fill="currentColor"
d="M583 -15q94 3 94 17q1 4 -5 12q-9 14 -9 24v70h129q121 -1 162 -6v75q-34 -4 -158 -4h-131v20q0 42 6 81h-88q6 -33 6 -87v-14h-192v16q1 42 4 85h-86q5 -38 6 -83v-18h-115q-98 1 -152 6v-79q8 0 31 2q99 6 123 6h113v-66q0 -33 -6 -55q98 2 98 15q0 6 -6 15
q-10 15 -10 31v60h190v-72q0 -22 -4 -51zM212 252q94 60 157 123l-65 60q-70 -76 -149 -125zM589 332h82q12 0 63 -1q56 -2 93 -3q-12 289 -33 299q-17 26 -147 40q-11 -54 -32 -95q94 11 109 -10q7 -9 13 -103q3 -45 5 -64h-220v363q-2 41 51 42q46 4 129 2q78 -3 98 -10
q35 -14 41 -111q46 40 97 57q-33 106 -51 114q-29 40 -311 28q-25 -1 -38 -1q-61 0 -75 -21q-18 -19 -17 -92v-295q-1 -99 -6 -147q37 7 149 8zM127 421q102 54 159 99l-60 68q-73 -64 -153 -101zM312 568q30 67 57 87q-157 180 -192 256q-51 -53 -84 -83q111 -85 219 -260z
" />
</svg>
