<?xml version="1.0" standalone="no"?>
<!DOCTYPE svg PUBLIC "-//W3C//DTD SVG 1.1//EN" "http://www.w3.org/Graphics/SVG/1.1/DTD/svg11.dtd" >
<svg xmlns="http://www.w3.org/2000/svg" xmlns:xlink="http://www.w3.org/1999/xlink" version="1.1" viewBox="-10 0 1034 1024">
  <g transform="matrix(1 0 0 -1 0 820)">
   <path fill="currentColor"
d="M238 -101q0 -25 -3 -56q0 -6 -3 -14h49q-3 19 -4 30l-1 503q7 15 17 30q30 57 72 80q-42 18 -63 33q-4 -19 -18 -47q-36 -72 -90 -144q-76 -108 -153 -137q18 -7 57 -32q34 36 75 81q39 45 65 80v-407zM792 346l1 111l4 25q3 6 8 18h-56q1 -30 5 -62v-92l-368 2
q-3 1 -4 1q-3 0 -13 3v-47q24 6 42 6h343v-371q0 -22 -4 -31q-6 -13 -34 -21q-27 -6 -62 -7q-22 0 -56 5q12 -22 18 -51q33 3 48 5q66 6 95 21q33 15 33 61v389q147 0 157 -2q6 0 18 -4v47q-18 -6 -68 -6h-107zM603 79q-3 -1 6 7l1 1l-77 70l-77 68q-24 -31 -26 -34
q27 -21 67 -57q42 -39 84 -81q3 7 22 26zM351 638h-214q-33 0 -55 3q-6 0 -14 3v-47q21 6 67 6h216q-3 -84 -5 -91h49q-3 12 -6 48v43h257q-3 -91 -5 -96h48q-6 66 -5 88v8l273 -3q6 0 9 -3v47q-7 -1 -59 -6h-223q0 87 3 96q0 9 5 16q1 4 6 8h-57q4 -25 5 -93v-27h-257
q0 87 3 95q0 3 10 24h-56q0 -6 2 -11l3 -100v-8z" />
  </g>

</svg>
