<?xml version="1.0" standalone="no"?>
<!DOCTYPE svg PUBLIC "-//W3C//DTD SVG 1.1//EN" "http://www.w3.org/Graphics/SVG/1.1/DTD/svg11.dtd" >
<svg xmlns="http://www.w3.org/2000/svg" xmlns:xlink="http://www.w3.org/1999/xlink" version="1.1" viewBox="-10 0 1034 1024">
  <g transform="matrix(1 0 0 -1 0 820)">
   <path fill="currentColor"
d="M364 670h-233q-21 0 -47 3q-7 0 -17 3v-47q31 4 64 5h233v-27q0 -48 -5 -67h49q-6 51 -5 85v9h235v-26q0 -45 -6 -67h50q0 7 -2 15q-3 51 -3 78q247 0 269 -3q4 0 11 -2v47q-4 0 -8 -2l-60 -4h-212q0 75 3 78q3 13 12 23h-60l4 -34l2 -67h-235v43q0 16 3 30q1 10 13 27
h-60q4 -49 5 -80v-20zM504 260q-132 -157 -299 -243q-54 -27 -77 -34q-27 -9 -57 -11q24 -22 44 -45q262 120 432 322v-334q0 -31 -25 -40q-18 -6 -60 -6q-30 0 -68 15q15 -28 22 -60q115 4 139 19q30 16 31 74v343h281q-25 -63 -62 -122q27 0 48 -9q21 46 39 88q7 18 17 36
q9 19 21 49q-21 -1 -36 -3q-25 -3 -36 -3h-236l20 34l-56 30l24 18q43 27 75 48q27 18 48 33q36 25 82 63q-40 -1 -81 -5l-476 1q-12 1 -23 2q-1 0 -16 2v-46q31 4 63 5h415q-99 -69 -158 -99q-16 6 -32 13q-45 22 -84 38q-7 3 -16 6q-6 -21 -17 -39q60 -21 88 -34
q16 -7 40 -21q69 -36 90 -49l-514 5q-1 1 -4 1v-47q31 4 62 5h352z" />
  </g>

</svg>
