<?xml version="1.0" standalone="no"?>
<!DOCTYPE svg PUBLIC "-//W3C//DTD SVG 1.1//EN" "http://www.w3.org/Graphics/SVG/1.1/DTD/svg11.dtd" >
<svg xmlns="http://www.w3.org/2000/svg" xmlns:xlink="http://www.w3.org/1999/xlink" version="1.1" viewBox="-10 0 1034 1024">
  <g transform="matrix(1 0 0 -1 0 820)">
   <path fill="currentColor"
d="M546 64q-72 -33 -165 -63v263l154 -3q6 0 9 -2v46q-3 0 -4 -1l-60 -4h-99q0 111 3 117q1 15 11 28h-57q0 -7 3 -13q0 -22 2 -47v-395l-131 -39v348q0 4 2 23q1 19 12 36h-56q1 -28 5 -59v-357q-45 -18 -108 -26q12 -37 15 -51q64 24 113 40l347 110q1 25 4 49zM639 391
q0 9 2 25q1 18 11 36h-56q1 -9 3 -14q1 -18 2 -47v-424q0 -34 9 -53q9 -16 37 -24q3 0 6 -1q12 -1 37 -4q36 -1 53 -3q99 3 119 7q36 6 53 20q22 21 41 100l6 22q-24 6 -56 26q3 -27 3 -38q0 -34 -7 -55q-12 -37 -75 -42q-61 -3 -94 -4q-9 3 -44 3q-22 1 -36 8q-13 7 -14 45
v225q10 4 23 11q216 108 221 110q3 1 6 1q6 3 34 8q-28 33 -38 50q-27 -24 -92 -63q-82 -45 -154 -77v152zM354 624l-267 1q-6 1 -14 3q-3 1 -4 1v-46q30 3 60 5h225q0 -55 -2 -82q-3 -9 -3 -19h47q-3 6 -5 46v55h225q0 -60 -4 -82q0 -4 -2 -13h49q0 6 -2 12q-3 7 -4 36v47
l257 -1l36 -4v46q-13 0 -63 -5h-230v85q0 10 3 23q1 19 12 36h-58l4 -37l2 -107h-225v83q0 6 2 24q1 19 12 36h-56q4 -42 5 -76v-67z" />
  </g>

</svg>
