<?xml version="1.0" standalone="no"?>
<!DOCTYPE svg PUBLIC "-//W3C//DTD SVG 1.1//EN" "http://www.w3.org/Graphics/SVG/1.1/DTD/svg11.dtd" >
<svg xmlns="http://www.w3.org/2000/svg" xmlns:xlink="http://www.w3.org/1999/xlink" version="1.1" viewBox="-10 0 1034 1024">
  <g transform="matrix(1 0 0 -1 0 820)">
   <path fill="currentColor"
d="M100 162q54 48 136 144v-402q0 -28 -3 -56q0 -4 -3 -14h49q-3 19 -4 42l-1 479q27 46 52 79q19 24 51 32q-3 0 -7 4q-6 3 -14 8q-24 15 -42 29q-6 -24 -24 -57q-54 -87 -108 -151q-67 -78 -131 -101l26 -17zM617 281q-267 0 -289 3q-6 1 -11 4v-48q33 3 67 5h233v-304
l-246 4q-4 1 -6 1v-47q15 4 36 5l448 1q27 0 57 -3q6 0 10 -3v47q-30 -4 -67 -5h-195v304l255 -1q4 0 41 -4v48q-9 -3 -13 -4q-16 -1 -54 -3h-229q0 78 3 158q3 18 11 31h-57q6 -60 6 -79v-110zM370 636h-230q-33 0 -55 3q-6 0 -14 3v-47q24 6 82 6h217l-1 -72l-1 -2
q0 -21 -4 -34h50q-4 12 -5 32l-2 76h242q-3 -97 -5 -104q-1 0 -1 -1h49q-6 51 -5 83v22q252 0 262 -2q9 -1 18 -4v47q-9 0 -67 -6h-213q0 96 3 103q3 15 11 26h-58q1 -6 6 -58v-71h-242v68q0 12 3 28t11 33h-57q0 -6 2 -11q3 -63 4 -68v-50z" />
  </g>

</svg>
