<?xml version="1.0" standalone="no"?>
<!DOCTYPE svg PUBLIC "-//W3C//DTD SVG 1.1//EN" "http://www.w3.org/Graphics/SVG/1.1/DTD/svg11.dtd" >
<svg xmlns="http://www.w3.org/2000/svg" xmlns:xlink="http://www.w3.org/1999/xlink" version="1.1" viewBox="-10 0 1010 1000">
   <path fill="currentColor"
d="M321 -17q91 4 98 13q1 3 -4 8q-16 16 -16 46v36h176v-24q1 -49 -8 -74q89 1 98 10q1 2 -3 6q-15 19 -15 54v28h163q68 0 121 -8v81q-35 -8 -121 -8h-163q0 34 7 78q1 3 1 4h-88q1 -3 2 -10q6 -33 6 -72h-176q-1 52 8 82h-86q8 -38 8 -82h-144q-56 -1 -110 8v-81q5 1 15 2
q51 6 98 6h141v-30q1 -45 -8 -73zM819 250v98q-40 -2 -209 96q-13 7 -19 11h207q52 0 104 -5q9 -1 13 -1q-30 98 -72 196q-50 -12 -99 -6q31 -41 60 -119h-221v304q8 85 -170 87q4 -50 -36 -99q88 18 104 3q22 -10 21 -80v-221q-112 179 -361 338q-26 -45 -79 -72
q203 -78 353 -260h-221q-63 0 -123 8v-81q29 5 51 6q23 2 66 2h260q-69 -56 -115 -64l78 -61q67 52 115 103q25 -18 76 -51q59 -38 86 -58h-390q-44 0 -93 4q-16 1 -24 2v-80q5 1 15 2q42 6 102 6h400q55 0 79 -2q24 -1 42 -6z" />
</svg>
