<?xml version="1.0" standalone="no"?>
<!DOCTYPE svg PUBLIC "-//W3C//DTD SVG 1.1//EN" "http://www.w3.org/Graphics/SVG/1.1/DTD/svg11.dtd" >
<svg xmlns="http://www.w3.org/2000/svg" xmlns:xlink="http://www.w3.org/1999/xlink" version="1.1" viewBox="-10 0 1010 1000">
   <path fill="currentColor"
d="M609 -8q101 0 103 10q1 3 -4 8q-16 17 -16 52v38h118q99 0 134 -8v89q-23 -8 -129 -8h-123v16q0 53 8 85h-91q9 -31 8 -85v-16h-240v26q-1 53 8 75h-91q0 -2 1 -7q7 -29 7 -68v-26h-123q-65 0 -119 8v-89q27 9 119 8h123v-26q0 -46 -8 -80q97 -3 103 8q1 2 -3 6
q-17 16 -17 62v30h240v-22q0 -60 -8 -86zM446 209q105 1 112 12q1 2 -3 6q-15 18 -15 61v28h240q50 0 101 -6q15 -1 22 -2v87q-32 -8 -121 -8h-242v92h196q40 0 80 -5l21 -3v87q-34 -8 -103 -8h-137q123 170 363 202q-53 24 -85 98q-297 -134 -335 -304v240q0 64 7 110
q1 3 1 5h-102q5 -25 6 -49q2 -24 2 -70v-214q-118 167 -319 282q-10 -10 -25 -26q-30 -36 -70 -48q236 -69 343 -226h-111h-40q-65 -1 -87 4v-83q48 8 125 8h184v-92h-230q-81 0 -135 8v-87q40 9 131 8h234v-28q0 -47 -8 -79z" />
</svg>
