<?xml version="1.0" standalone="no"?>
<!DOCTYPE svg PUBLIC "-//W3C//DTD SVG 1.1//EN" "http://www.w3.org/Graphics/SVG/1.1/DTD/svg11.dtd" >
<svg xmlns="http://www.w3.org/2000/svg" xmlns:xlink="http://www.w3.org/1999/xlink" version="1.1" viewBox="-10 0 1034 1024">
  <g transform="matrix(1 0 0 -1 0 820)">
   <path fill="currentColor"
d="M453 342q0 12 2 29q3 15 11 32h-58q1 -3 5 -24l2 -162q-25 -12 -73 -32l-136 -54v292q201 42 221 44q12 0 29 -2q-19 21 -40 55q-15 -9 -31 -17q-40 -18 -111 -31l-47 -7q-22 -3 -32 -3q-12 0 -33 2q6 -60 6 -64v-242q0 -31 -25 -47q15 -25 28 -53q9 10 48 33q3 3 19 11
q3 3 170 74q-12 -141 -132 -229q-76 -52 -162 -66q18 -18 30 -28q9 -9 18 -22q33 18 49 26q81 46 139 103q45 45 72 101q30 82 31 167v114zM572 -88q0 -39 -5 -65v-4h49q-6 60 -6 69v531h225v-301q0 -31 -11 -47q-18 -16 -53 -17q-27 0 -76 11q18 -27 24 -55q105 9 130 30
q21 18 22 63l1 311q0 21 4 46q-66 -4 -104 -5l-158 1q-19 3 -47 4q1 -31 5 -65v-507zM357 663l-261 1q-12 0 -29 5v-47q18 6 67 6h223l-4 -93q-1 -1 -1 -3h49q-4 18 -5 44l-1 52h248q-3 -87 -5 -92h48q0 1 -1 5q0 3 -4 67v20l233 -1q19 -1 40 -5v47q-9 -3 -13 -3
q-30 -1 -54 -3h-206q0 72 3 82q0 3 10 24h-56l5 -100v-6h-248q0 72 3 80q0 3 10 24h-56q0 -9 2 -13z" />
  </g>

</svg>
