<?xml version="1.0" standalone="no"?>
<!DOCTYPE svg PUBLIC "-//W3C//DTD SVG 1.1//EN" "http://www.w3.org/Graphics/SVG/1.1/DTD/svg11.dtd" >
<svg xmlns="http://www.w3.org/2000/svg" xmlns:xlink="http://www.w3.org/1999/xlink" version="1.1" viewBox="-10 0 1010 1000">
   <path fill="currentColor"
d="M310 -12q94 1 101 10q0 2 -4 7q-14 19 -14 43v52h194v-52q0 -38 -4 -56q98 4 102 12q1 2 -4 7q-14 19 -14 43v44h125q73 -1 146 -8v83q-38 -8 -146 -8h-125q1 69 8 103h-94q6 -19 6 -101h-194q1 67 8 101h-93q5 -17 5 -101h-117q-88 1 -142 8v-83q48 7 142 8h117v-64
q0 -36 -3 -48zM409 270q9 11 26 30q45 52 39 54q-2 3 -25 0q-26 -3 -38 -2q-48 4 -185 27q-10 1 -14 2v219l139 -36v-87q1 -58 -4 -80q9 1 25 3q87 12 84 15q1 3 -5 11q-15 18 -16 37q-1 11 -2 34q-5 112 -24 186q-47 151 -284 226q-24 -46 -75 -85q263 -25 297 -193
q-162 45 -212 74q-14 -42 -34 -82q27 -17 31 -25q6 -9 7 -40v-149q0 -12 -6 -91q148 -1 276 -48zM855 302q-8 45 -8 113v258q1 36 -3 45q-4 14 -18 23q-25 19 -130 33q-10 -63 -43 -105q65 12 99 4q14 -4 14 -54v-240h-155v369q0 96 8 157h-95q8 -61 8 -155v-341
q0 -75 -8 -107q55 8 129 8h75q69 -1 127 -8z" />
</svg>
