<?xml version="1.0" standalone="no"?>
<!DOCTYPE svg PUBLIC "-//W3C//DTD SVG 1.1//EN" "http://www.w3.org/Graphics/SVG/1.1/DTD/svg11.dtd" >
<svg xmlns="http://www.w3.org/2000/svg" xmlns:xlink="http://www.w3.org/1999/xlink" version="1.1" viewBox="-10 0 1034 1024">
  <g transform="matrix(1 0 0 -1 0 820)">
   <path fill="currentColor"
d="M358 147l-221 3q-6 3 -9 2v-46q54 4 77 5h153l-1 -222q-1 -9 -2 -22q0 -3 -3 -13h49q-4 24 -5 65v192l228 -3q6 0 10 -2v46q-30 -4 -67 -5h-171v169h314q-12 -327 -12 -353q0 -24 4 -38q4 -15 15 -26q27 -24 92 -24q58 0 93 21q24 18 42 67q6 18 16 57q-30 13 -53 33
q0 -15 1 -31q0 -36 -10 -59q-9 -27 -25 -36q-25 -12 -62 -13q-34 0 -52 8q-22 10 -23 51l2 92q12 261 15 276q0 7 3 16q-76 -4 -103 -5l-426 4q-3 1 -5 1v-47q19 4 36 5l100 1v-169zM130 387q0 -30 -5 -71h47q-4 30 -5 71v74h680l-1 -94l-4 -42h49q-3 30 -5 73q0 51 2 60
q-1 6 0 11q1 12 3 31q-37 -1 -75 -5l-644 1q-19 3 -47 4q1 -33 5 -67v-46zM343 676h-211q-51 0 -69 5v-46q18 4 67 5h213q-3 -94 -5 -100h50l-2 8q-3 6 -3 31l-1 61h255l-3 -91q0 -3 -2 -5h48v5q-3 6 -4 34l-1 57l232 -1q12 0 25 -2q-1 0 16 -2v46q-30 -4 -67 -5h-206v46
q0 12 2 30q1 9 3 15l8 17h-56q4 -99 5 -102v-6h-255q0 75 3 81q1 12 10 25h-57q4 -99 5 -103v-3z" />
  </g>

</svg>
