<?xml version="1.0" standalone="no"?>
<!DOCTYPE svg PUBLIC "-//W3C//DTD SVG 1.1//EN" "http://www.w3.org/Graphics/SVG/1.1/DTD/svg11.dtd" >
<svg xmlns="http://www.w3.org/2000/svg" xmlns:xlink="http://www.w3.org/1999/xlink" version="1.1" viewBox="-10 0 1010 1000">
   <path fill="currentColor"
d="M310 -10h23q82 -2 78 8q0 2 -3 6q-13 14 -13 36v56h206q0 -89 -6 -104q91 -3 95 6q-11 14 -11 50v48h115q90 0 146 -12v89q-35 -9 -142 -8h-117q0 68 9 93h-99q9 -36 10 -93h-206q0 62 12 95h-101q9 -38 9 -93h-101q-112 0 -160 10v-89q56 9 160 10h101q0 -93 -5 -108z
M903 272q-7 21 -4 82q0 70 10 89h-101q9 -30 9 -93h-656q0 71 8 103h-96q10 -30 10 -80q0 -57 -8 -101q48 9 185 10h444q122 0 189 -9q8 -1 10 -1zM718 433q-8 34 -8 135q13 218 103 236q19 -10 28 -115q43 48 84 59q-19 129 -64 151q-51 20 -131 -43q-98 -89 -103 -350
h-214v115h45q64 0 133 -8v86q-28 -10 -135 -10h-43v55q0 141 8 161h-94q0 -3 2 -9q8 -31 8 -150v-55h-77q-110 -1 -161 8v-84q65 8 155 8h83v-117h-24q-83 -1 -119 8v-81q45 6 135 6h256q100 0 133 -6z" />
</svg>
