<?xml version="1.0" standalone="no"?>
<!DOCTYPE svg PUBLIC "-//W3C//DTD SVG 1.1//EN" "http://www.w3.org/Graphics/SVG/1.1/DTD/svg11.dtd" >
<svg xmlns="http://www.w3.org/2000/svg" xmlns:xlink="http://www.w3.org/1999/xlink" version="1.1" viewBox="-10 0 1034 1024">
  <g transform="matrix(1 0 0 -1 0 820)">
   <path fill="currentColor"
d="M104 -26q7 3 25 4q16 3 42 2l506 -1q24 0 37 -3q1 0 4 -2v47q-18 -6 -67 -6q-516 0 -537 3q-4 1 -10 3v-47zM301 473q-36 3 -71 5q1 -36 5 -74l-1 -230q-3 -15 -4 -47q15 3 58 4l567 1q-3 -52 -12 -119q-10 -84 -32 -107q-22 -21 -85 -21q-30 0 -75 6q9 -16 19 -40
q1 -4 5 -17q111 9 145 25q28 15 42 48q12 34 25 131q3 51 8 79q3 25 11 56q-21 -1 -38 -3q-25 -3 -38 -3h-557v270h472q-9 -90 -17 -120q-13 -45 -69 -46q-27 0 -58 6q9 -21 20 -53l55 6q6 0 13 3q51 9 71 51q3 9 9 36l18 120q3 16 7 38q-36 -1 -74 -5h-246q9 19 20 32
q25 40 53 51q-33 12 -62 29q-6 -39 -57 -112h-127zM525 264q15 24 18 31q-7 3 -13 6q-21 13 -48 30l-87 49q-3 -7 -8 -15q-6 -13 -15 -22q60 -30 98 -53q30 -18 49 -35zM338 657h-190q-33 0 -55 3q-4 0 -14 3v-47q21 6 67 6h192q-3 -88 -5 -96h49q-4 12 -5 58l-1 38h268
q-3 -90 -5 -94h48q-6 66 -5 88v6q234 0 241 -3q0 3 14 -1q1 0 4 -2v47q-7 -1 -58 -6h-201q0 54 2 61q0 6 4 26q1 6 7 15h-56q1 -30 5 -61v-41h-268q0 54 2 61q0 6 4 26q1 6 7 15h-56q0 -3 1 -7q0 -1 1 -4q0 -36 3 -74v-17z" />
  </g>

</svg>
