<?xml version="1.0" standalone="no"?>
<!DOCTYPE svg PUBLIC "-//W3C//DTD SVG 1.1//EN" "http://www.w3.org/Graphics/SVG/1.1/DTD/svg11.dtd" >
<svg xmlns="http://www.w3.org/2000/svg" xmlns:xlink="http://www.w3.org/1999/xlink" version="1.1" viewBox="-10 0 1034 1024">
  <g transform="matrix(1 0 0 -1 0 820)">
   <path fill="currentColor"
d="M585 326l302 -1q19 -1 41 -5v47q-9 -3 -12 -3q-16 -1 -54 -3h-368q0 13 3 27q1 9 4 35q3 36 8 48q4 30 25 45q-36 1 -70 8q3 -27 3 -41q0 -34 -14 -122l-308 1q-34 3 -38 5v-47q3 3 54 6h285q-13 -78 -64 -172q-78 -141 -209 -228q-58 -36 -106 -44q25 -16 54 -41
q151 96 232 199q102 129 135 286h58v-286q-103 -66 -184 -67l25 -25q10 -10 19 -24q30 12 71 33q21 9 39 20q18 7 30 16v-80q0 -18 5 -28q9 -19 36 -28q33 -10 105 -11q30 1 61 1q48 0 74 6q31 6 52 32q9 9 22 33q12 25 28 69q-18 9 -47 33q-3 -33 -8 -53q-9 -33 -27 -57
q-16 -19 -62 -24q-34 0 -70 -3l-103 7q-27 6 -28 42v86q18 15 73 55q7 6 22 19q25 22 43 42q54 52 71 65q13 10 44 19q-37 22 -47 30q-6 4 -13 12q-13 -33 -90 -108q-73 -64 -103 -85zM674 464q46 -45 88 -94q15 18 32 29q-69 75 -90 95q-6 -9 -13 -15q-1 -3 -8 -7
q-4 -3 -9 -8zM346 634l-225 1l-29 5v-47q18 6 66 6h188q-3 -117 -5 -126h50q-4 19 -5 44l-1 82h240l-1 -69l-4 -36h49l-5 34l-1 71l238 -1q28 0 38 -4l2 -1v47q-7 -1 -58 -6h-220q0 93 3 99q3 13 10 26h-56q4 -66 5 -99v-26h-240q0 78 2 86q0 6 4 28q1 6 7 13h-57l5 -101
v-26z" />
  </g>

</svg>
