<?xml version="1.0" standalone="no"?>
<!DOCTYPE svg PUBLIC "-//W3C//DTD SVG 1.1//EN" "http://www.w3.org/Graphics/SVG/1.1/DTD/svg11.dtd" >
<svg xmlns="http://www.w3.org/2000/svg" xmlns:xlink="http://www.w3.org/1999/xlink" version="1.1" viewBox="-10 0 1010 1000">
   <path fill="currentColor"
d="M577 -8q107 0 110 10q0 2 -5 8q-22 29 -21 62v45h141q93 -1 146 -13v83q-23 -4 -97 -3q-33 1 -49 1h-141q0 36 5 62q1 8 1 11h-94q0 -5 3 -19q5 -30 5 -54h-176v28q0 26 4 52q2 10 2 13h-92q0 -5 2 -17q4 -26 4 -50v-26h-148q-80 0 -137 8v-83q24 4 137 7h148v-51
q1 -43 -4 -68q103 0 108 10q2 2 -6 15q-17 28 -18 49v45h176v-45q0 -17 -3 -66q-1 -9 -1 -14zM183 250q59 41 121 92l-76 63q-44 -58 -111 -99zM639 270q23 39 44 93l-92 32q-11 -45 -45 -101zM954 391v84q-2 0 -9 -1q-43 -7 -126 -7h-305v325h264q95 0 133 -8v85
q-49 -9 -135 -9h-216q-78 0 -125 6q-6 1 -8 1q0 -2 1 -10q7 -47 7 -119v-271q-99 1 -129 6v-82q48 7 131 8h380q74 0 124 -7q10 -1 13 -1zM109 413q71 38 127 81l-61 72q-61 -60 -125 -89zM238 556q39 56 70 71q-106 201 -120 278q-47 -33 -99 -55q95 -130 149 -294z" />
</svg>
