<?xml version="1.0" standalone="no"?>
<!DOCTYPE svg PUBLIC "-//W3C//DTD SVG 1.1//EN" "http://www.w3.org/Graphics/SVG/1.1/DTD/svg11.dtd" >
<svg xmlns="http://www.w3.org/2000/svg" xmlns:xlink="http://www.w3.org/1999/xlink" version="1.1" viewBox="-10 0 1034 1024">
  <g transform="matrix(1 0 0 -1 0 820)">
   <path fill="currentColor"
d="M488 -96q-3 -61 -5 -70h50q-3 15 -5 30l-1 361q55 -66 101 -107q57 -48 116 -89q67 -45 112 -67l53 -26q12 -7 18 -11q1 3 4 5q3 6 8 11q16 24 33 38q-94 13 -198 79q-67 45 -116 87q-49 43 -89 91l337 -1l41 -4v47q-18 -6 -67 -6h-353v146l276 -1l41 -4v47
q-18 -6 -67 -6h-250q0 82 3 85q3 13 11 28h-58q0 -3 1 -6l4 -107h-207q27 48 55 58l-39 13q-9 4 -24 13q0 -9 -8 -26q0 -3 -19 -43q-42 -69 -63 -93q-24 -25 -59 -44l58 -23q6 7 12 17q54 79 65 92h229v-146h-334q-27 0 -55 3q-3 0 -13 3v-47q33 3 66 5h308q-13 -21 -32 -40
q-18 -19 -38 -39q-42 -39 -96 -82q-136 -102 -239 -113q24 -22 43 -49q33 13 93 48q63 36 93 59q133 99 204 186v-302zM343 661l-228 1l-18 2q-3 0 -13 3v-47q18 6 66 6h193l-2 -86q0 -3 -3 -17h49q-4 22 -6 48v55h249q-3 -99 -5 -102h48q-6 66 -5 87v15l232 -1q25 0 38 -4
l2 -1v47q-7 -3 -12 -3q-27 -1 -54 -3h-206v56q0 12 2 29q1 9 3 15l8 17h-56q4 -66 5 -98v-19h-249v56q0 12 2 28q3 15 11 32h-56q0 -6 2 -11z" />
  </g>

</svg>
