<?xml version="1.0" standalone="no"?>
<!DOCTYPE svg PUBLIC "-//W3C//DTD SVG 1.1//EN" "http://www.w3.org/Graphics/SVG/1.1/DTD/svg11.dtd" >
<svg xmlns="http://www.w3.org/2000/svg" xmlns:xlink="http://www.w3.org/1999/xlink" version="1.1" viewBox="-10 0 1010 1000">
   <path fill="currentColor"
d="M323 -12q104 1 110 12q1 2 -4 7q-20 18 -20 59v30h182v-26q1 -65 -8 -80q64 0 83 1q24 2 26 7q2 3 -3 8q-18 20 -18 64v26h166q90 1 113 -8v89q-42 -8 -113 -8h-166v10q0 42 7 76q1 3 1 5h-96q9 -27 8 -81v-10h-182v12q0 38 9 81q1 4 1 6h-78q3 1 8 5q35 18 30 21
q0 1 -4 3q-43 20 -97 122v357q0 83 8 127h-94q8 -60 8 -129v-270q-52 76 -105 125q-23 -38 -77 -57q156 -91 260 -335q22 7 45 21q8 -30 8 -77v-12h-172q-77 -1 -107 8v-89q25 9 103 8h176v-28q0 -53 -8 -80zM788 258q52 63 79 111l-89 46q-17 -46 -64 -117zM563 276
q101 4 112 14q1 3 -5 7q-16 13 -19 45q-1 12 -3 32q-5 41 -5 53h151q59 0 124 -5q13 -1 19 -1v85q-14 -3 -46 -5q-16 -1 -38 -1h-57h-143q57 240 303 296q-58 45 -81 95q-236 -135 -260 -309q-37 197 -236 325q-30 -38 -89 -63q239 -92 270 -344h-96q-86 0 -141 6v-89
q69 10 145 10h95q4 -83 0 -151z" />
</svg>
