<?xml version="1.0" standalone="no"?>
<!DOCTYPE svg PUBLIC "-//W3C//DTD SVG 1.1//EN" "http://www.w3.org/Graphics/SVG/1.1/DTD/svg11.dtd" >
<svg xmlns="http://www.w3.org/2000/svg" xmlns:xlink="http://www.w3.org/1999/xlink" version="1.1" viewBox="-10 0 1034 1024">
  <g transform="matrix(1 0 0 -1 0 820)">
   <path fill="currentColor"
d="M189 -93q0 -24 -3 -56q0 -4 -3 -13h48q-1 7 -3 29q0 21 -2 40v545h601v-510q0 -34 -19 -45q-25 -12 -61 -12q-18 0 -56 7q19 -46 20 -53l55 7q45 6 69 20q30 19 30 65l1 515l4 47l-71 -6l-566 1q-24 3 -50 5l6 -66v-520zM300 308q7 3 25 4q16 3 41 2l372 -3q6 0 10 -3v47
q-18 -6 -67 -6l-352 1l-29 5v-47zM377 8l44 4l205 -1q15 0 49 -4q-4 54 -5 112l5 105q-34 -1 -69 -5l-214 1l-38 4q1 -33 5 -67q0 -78 -2 -110q-3 -6 -3 -40q10 1 23 1zM396 48v135h236v-135h-236zM352 667h-201q-49 0 -68 5v-46q33 3 66 5h203q-3 -99 -5 -105h49
q-3 7 -4 36l-1 69h227q-3 -94 -5 -99l-1 -2h49q-1 3 -2 14q-3 54 -3 83v4l280 -3l2 -1q3 0 7 -1v46q-33 -1 -67 -5h-222q0 81 3 83q0 9 7 21q0 1 3 4h-57q6 -45 6 -76v-32h-227q0 75 3 83q1 12 10 23h-57q0 -6 2 -11q0 -36 3 -74v-21z" />
  </g>

</svg>
