<?xml version="1.0" standalone="no"?>
<!DOCTYPE svg PUBLIC "-//W3C//DTD SVG 1.1//EN" "http://www.w3.org/Graphics/SVG/1.1/DTD/svg11.dtd" >
<svg xmlns="http://www.w3.org/2000/svg" xmlns:xlink="http://www.w3.org/1999/xlink" version="1.1" viewBox="-10 0 1034 1024">
  <g transform="matrix(1 0 0 -1 0 820)">
   <path fill="currentColor"
d="M43 265q21 -15 46 -47q129 48 225 112q93 63 195 167q94 -102 191 -161q96 -57 249 -107q15 33 40 51q-46 1 -106 20q-46 12 -120 49q-69 34 -106 64q-78 58 -119 109q13 6 29 18q-25 9 -54 31q-33 -54 -108 -121q-72 -64 -150 -110q-121 -66 -212 -75zM339 660l-226 1
q-12 1 -23 2q-9 1 -17 3v-47q33 4 64 5h202v-67q0 -45 -6 -68h50q-3 12 -4 47l-1 88h267v-64q0 -45 -5 -67h49q0 7 -2 15q-3 51 -3 78v38q225 0 244 -3q4 0 11 -2v47q-6 0 -63 -6q-3 1 -4 0h-188v60q0 18 3 30q1 15 13 28h-60l5 -94v-24h-267q0 90 3 94q3 13 12 24h-60
q6 -36 6 -66v-52zM80 -54q22 -15 46 -43q43 21 110 64q28 18 54 37q24 16 42 33q36 33 51 42q13 9 42 18q-39 18 -60 34q-34 -51 -130 -117q-87 -57 -155 -68zM493 236l-241 1q-31 3 -39 4v-46q31 4 63 5h217v-263q0 -33 -13 -45q-15 -10 -47 -11q-33 0 -70 12
q10 -21 16 -56q45 0 72 4q54 6 70 29q9 15 10 55v275q264 0 283 -3q6 0 12 -2v46l-46 -4l-249 -1v77q0 9 3 30q3 15 13 29h-61q0 -9 3 -20q3 -55 4 -75v-41zM617 91q54 -24 134 -85q51 -39 76 -63q21 -18 44 -51q9 24 26 51l-132 104q-70 51 -120 83q-12 -21 -28 -39v0z" />
  </g>

</svg>
