<?xml version="1.0" standalone="no"?>
<!DOCTYPE svg PUBLIC "-//W3C//DTD SVG 1.1//EN" "http://www.w3.org/Graphics/SVG/1.1/DTD/svg11.dtd" >
<svg xmlns="http://www.w3.org/2000/svg" xmlns:xlink="http://www.w3.org/1999/xlink" version="1.1" viewBox="-10 0 1034 1024">
  <g transform="matrix(1 0 0 -1 0 820)">
   <path fill="currentColor"
d="M504 73l-383 1q-7 1 -36 2q-9 1 -17 3v-47q34 4 64 5h372v-139q0 -45 -5 -68h49q0 7 -2 16q-3 51 -3 71v120q382 0 405 -3q4 0 11 -2v47q-18 -1 -35 -5l-381 -1v114l205 -1l51 -4q-3 34 -5 69l1 213l4 48q-36 -1 -71 -5l-453 1q-19 3 -48 4q1 -31 5 -65l-1 -221
q-3 -12 -4 -44q15 3 54 4l223 1v-114zM272 223v109h483v-109h-483zM272 367v104h483v-104h-483zM358 654l-228 1q-30 3 -48 6v-48q25 6 63 6h213v-20q0 -43 -5 -68h49q0 7 -2 16q-3 51 -3 72h235v-20q0 -43 -5 -68h49q0 7 -2 16q-3 51 -3 72q246 0 262 -3q6 0 15 -3v48
q-12 -1 -23 -4q-15 -3 -45 -3h-209v61q0 12 2 30q3 12 13 27h-59q4 -90 5 -93v-25h-235v59q0 16 3 30q1 15 13 28h-60q4 -54 5 -85v-32z" />
  </g>

</svg>
