<?xml version="1.0" standalone="no"?>
<!DOCTYPE svg PUBLIC "-//W3C//DTD SVG 1.1//EN" "http://www.w3.org/Graphics/SVG/1.1/DTD/svg11.dtd" >
<svg xmlns="http://www.w3.org/2000/svg" xmlns:xlink="http://www.w3.org/1999/xlink" version="1.1" viewBox="-10 0 1034 1024">
  <g transform="matrix(1 0 0 -1 0 820)">
   <path fill="currentColor"
d="M50 251q12 -13 37 -39q96 45 140 69q49 24 123 78q66 48 110 93l53 51q42 -42 62 -59l48 -38q87 -66 209 -125q88 -42 108 -51q9 15 24 32q0 4 14 17q1 1 4 5q-69 3 -193 63q-127 63 -249 183q6 3 11 7q1 1 13 5q-24 12 -57 33q-39 -61 -79 -99q-66 -60 -123 -101
q-60 -40 -124 -72q-72 -34 -143 -43zM791 297q-18 -6 -67 -6l-452 3q-6 1 -14 3v-47q19 4 66 5h173v-139l-210 1q-9 1 -16 2q-3 0 -13 2v-46q54 4 77 5h162v-168q-324 0 -344 3q-4 1 -10 4v-48q3 1 40 6l641 1l32 -3l35 -4v48l-12 -4q-16 -1 -55 -3h-285v168l202 -1
q18 -1 16 -2q7 0 17 -2v46q-33 -1 -66 -5h-169v139l242 -3q6 0 10 -2v47zM343 645l-233 1q-15 0 -31 5v-47q21 6 67 6h197q-3 -87 -5 -105h49q-3 12 -6 48v57h278q-3 -94 -5 -103q-1 0 -1 -1h49v5q-3 6 -4 34l-1 65l204 -1q30 0 40 -5v47q-7 -1 -58 -6h-186q0 90 3 99
q0 3 10 24h-57q0 -6 3 -13q0 1 2 -24l1 -86h-278q0 87 3 95q0 3 10 24h-56q0 -6 2 -11q0 -36 3 -73v-35z" />
  </g>

</svg>
