<?xml version="1.0" standalone="no"?>
<!DOCTYPE svg PUBLIC "-//W3C//DTD SVG 1.1//EN" "http://www.w3.org/Graphics/SVG/1.1/DTD/svg11.dtd" >
<svg xmlns="http://www.w3.org/2000/svg" xmlns:xlink="http://www.w3.org/1999/xlink" version="1.1" viewBox="-10 0 1034 1024">
  <g transform="matrix(1 0 0 -1 0 820)">
   <path fill="currentColor"
d="M265 401l-4 -168q-135 0 -162 2l-19 3v-46q30 4 45 5h135q-7 -121 -64 -217q-51 -78 -104 -104q33 -18 48 -32q58 60 100 135q25 48 38 89q12 48 23 129h155l-3 -321q-1 -1 -1 -4q-1 -3 -1 -7h49q-1 3 -1 5q-1 3 -4 55v272h106q36 0 61 -5v46q-43 -4 -75 -5h-92v168
q111 0 121 -3q3 0 9 -3v48l-61 -6l-384 1q-12 1 -26 2q-3 0 -12 3v-48q15 4 29 5zM302 233l4 168h150v-168h-154zM270 633q-135 0 -163 2q-3 0 -18 3v-46q42 6 69 5h112l-3 -102q-1 -1 -2 -11h49q-3 6 -3 24l-2 67v22h153l-3 -99q-1 -1 -1 -3l-1 -9h49q-6 43 -5 70v41h106
q36 0 61 -5v46q-30 -1 -61 -5h-106v59q0 18 14 65h-58q1 -31 5 -65v-59h-153v61q0 16 14 64h-58q0 -9 2 -13l3 -51v-61zM707 638q0 -6 5 -63q0 -439 -3 -470q-1 -1 -1 -4q-1 -3 -1 -7h49q-3 15 -4 37l-1 444q0 21 4 38q3 15 10 25h-58zM916 695q0 9 2 27q3 24 12 37h-58
q1 -31 5 -64v-741q0 -43 -39 -52q-24 -4 -44 -5q-42 0 -80 4q12 -30 16 -49q45 1 87 7q60 7 81 33q18 21 18 70v733z" />
  </g>

</svg>
