<?xml version="1.0" standalone="no"?>
<!DOCTYPE svg PUBLIC "-//W3C//DTD SVG 1.1//EN" "http://www.w3.org/Graphics/SVG/1.1/DTD/svg11.dtd" >
<svg xmlns="http://www.w3.org/2000/svg" xmlns:xlink="http://www.w3.org/1999/xlink" version="1.1" viewBox="-10 0 1034 1024">
  <g transform="matrix(1 0 0 -1 0 820)">
   <path fill="currentColor"
d="M93 65q63 46 107 83q40 36 88 84v-318q0 -40 -6 -67h50l-6 67v361q1 0 3 3q1 3 5 9q97 132 110 151l468 -1l41 -4v47q-51 -6 -68 -6h-420q24 45 36 61q9 12 32 31q-36 13 -63 24q-16 -48 -53 -116h-284q-21 0 -47 3q-7 0 -17 3v-47q66 6 116 5h209q-117 -181 -259 -284
q-51 -34 -85 -49q16 -9 32 -28q4 -6 11 -12zM344 670l-216 1q-36 4 -39 5v-47q31 4 63 5h192v-43q0 -48 -5 -68h49q-6 51 -5 111h256v-41q0 -45 -5 -68h49q0 7 -2 16q-3 51 -3 77v16l215 -1q22 0 35 -4v47q-22 -1 -46 -5l-204 -1q0 67 3 70q3 13 12 24h-59q4 -90 5 -94h-256
q0 61 3 65q3 13 12 24h-59q1 -27 5 -57v-32zM685 146l-283 5q-1 1 -4 1v-47q34 4 64 5h223v-173q0 -24 -13 -36q-15 -12 -46 -12q-24 0 -71 7q9 -24 15 -52q16 0 35 2q60 4 87 18q33 18 33 71v175l207 -1q28 0 42 -4v47q-45 -6 -67 -6h-182v51l87 84q25 25 60 65l-36 -3
q-24 -3 -33 -3h-291q-21 0 -47 3q-6 0 -17 3v-47q31 4 64 5h269q-34 -42 -100 -93z" />
  </g>

</svg>
