<?xml version="1.0" standalone="no"?>
<!DOCTYPE svg PUBLIC "-//W3C//DTD SVG 1.1//EN" "http://www.w3.org/Graphics/SVG/1.1/DTD/svg11.dtd" >
<svg xmlns="http://www.w3.org/2000/svg" xmlns:xlink="http://www.w3.org/1999/xlink" version="1.1" viewBox="-10 0 1034 1024">
  <g transform="matrix(1 0 0 -1 0 820)">
   <path fill="currentColor"
d="M363 647l-251 1q-24 3 -29 3q-4 0 -11 2v-46q34 4 64 5h227v-19q0 -45 -5 -66h49q-4 54 -5 80v5h248v-17q0 -45 -5 -67h49l-5 64v20q243 0 261 -3q4 0 11 -2v46q-9 0 -13 -3q-27 0 -55 -3h-204q0 78 3 80q3 12 13 23h-60q4 -90 5 -93v-10h-248v41q0 13 3 30q1 18 13 31
h-60q0 -3 1 -7q0 -3 1 -6zM69 -111q27 -16 43 -40q106 52 158 117q42 57 61 168q3 27 18 46q-1 0 -38 3q-6 1 -20 4q1 -16 2 -29q0 -58 -28 -125q-31 -69 -104 -111q-40 -24 -92 -33zM184 455q-27 3 -47 4q-3 0 -17 3v-47q33 4 64 5h52q0 -112 -2 -143q-3 -6 -3 -40
q64 4 110 5l472 -1q16 0 35 -4v46q-7 0 -16 -4q-31 0 -51 -2h-506v143l610 -1q12 -1 27 -4v47q-51 -6 -104 -6h-233q3 9 20 27q-70 57 -119 84q-10 -16 -27 -36q7 -4 15 -9q24 -13 56 -35l36 -32h-372zM480 187q1 -33 5 -66l-1 -222q-1 -16 -4 -30h49q0 7 -2 15q-1 25 -3 51
l1 207q1 28 13 45h-58zM911 -35q-1 -36 -20 -52q-19 -15 -87 -15q-55 0 -71 9q-15 7 -16 39v181q0 12 3 29q1 18 12 31h-60q3 -9 3 -15q1 -25 3 -45v-188q0 -48 29 -67q21 -12 93 -12q73 0 106 13q24 12 34 36q10 22 20 62q-3 0 -34 20q-7 6 -14 13q-1 -19 -1 -39v0z" />
  </g>

</svg>
