<?xml version="1.0" standalone="no"?>
<!DOCTYPE svg PUBLIC "-//W3C//DTD SVG 1.1//EN" "http://www.w3.org/Graphics/SVG/1.1/DTD/svg11.dtd" >
<svg xmlns="http://www.w3.org/2000/svg" xmlns:xlink="http://www.w3.org/1999/xlink" version="1.1" viewBox="-10 0 1010 1000">
   <path fill="currentColor"
d="M306 -19q101 7 105 11q3 1 -2 10q-16 27 -16 58v36h232v-36q0 -38 -7 -70q-1 -3 -1 -5q95 5 105 13q1 3 -3 9q-15 23 -15 59v30h117q97 1 114 -8v87q-24 -9 -116 -8h-115q-1 56 8 93h-95q8 -48 8 -93h-232q0 40 7 86q1 4 1 7h-95q8 -33 7 -93h-125q-80 0 -121 8v-87
q23 8 120 8h126v-38q0 -13 -6 -66q-1 -7 -1 -11zM446 215q95 6 110 14q2 2 -2 9q-13 27 -16 70h224q95 0 119 -6v79q-18 -6 -119 -6h-226q-3 109 -16 185h284q102 0 123 -6v79q-31 -7 -121 -6h-14h-225q98 174 385 179q-60 50 -77 107q-316 -84 -373 -282q-62 187 -383 278
q-16 -43 -77 -91q282 -21 381 -191h-236q-91 0 -120 4v-77q37 6 118 6h257q15 -77 16 -185h-196q-93 -3 -123 6v-79q33 6 123 6h194q0 -72 -10 -93zM302 389q57 89 81 127l-89 26q-20 -56 -72 -129zM688 397q80 21 88 32q1 4 -10 16q-39 42 -78 107q-30 -18 -79 -24
q65 -77 79 -131z" />
</svg>
