<?xml version="1.0" standalone="no"?>
<!DOCTYPE svg PUBLIC "-//W3C//DTD SVG 1.1//EN" "http://www.w3.org/Graphics/SVG/1.1/DTD/svg11.dtd" >
<svg xmlns="http://www.w3.org/2000/svg" xmlns:xlink="http://www.w3.org/1999/xlink" version="1.1" viewBox="-10 0 1034 1024">
  <g transform="matrix(1 0 0 -1 0 820)">
   <path fill="currentColor"
d="M613 134l285 -1q21 0 33 -4l2 -1v47q-1 0 -57 -6q-4 1 -9 0q-750 0 -772 3q-4 1 -10 3v-47q24 6 42 6h273q-3 -22 -9 -37q-18 -57 -59 -100q-42 -40 -103 -65q-63 -24 -120 -24l-35 1q18 -19 36 -54q129 27 206 78q97 66 126 201h134v-181q0 -33 15 -48q15 -18 63 -25
q66 -4 111 -5q39 1 74 6q46 6 67 31q18 24 41 100q-16 6 -33 17q-9 6 -19 14q0 -16 1 -27q0 -25 -9 -53q-12 -37 -46 -43q-10 -3 -42 -5q-45 -3 -112 0q-15 0 -42 6q-12 3 -18 8q-13 9 -14 48v157zM110 408q36 12 74 15l251 22q45 -87 69 -106q-60 -18 -112 -28
q-102 -13 -148 -17l-87 1q9 -15 12 -19q4 -10 13 -31q67 6 136 17q63 9 107 19l110 25q55 -42 103 -64q63 -27 132 -28q57 0 87 37q19 21 36 60q-21 13 -41 43q-10 -45 -20 -64q-16 -36 -68 -36q-54 0 -108 23q-39 15 -77 42q18 6 42 16l42 14l69 27q54 19 83 20h17
q-12 13 -26 38q0 3 -3 6q-3 7 -7 12q-24 -21 -71 -39q-51 -21 -106 -40l-72 -25q-16 12 -39 45q-22 36 -30 57q369 33 392 33q7 0 19 -1q-6 25 -11 49q-13 -6 -76 -16l-340 -31q-15 39 -16 87q-25 -3 -50 -5q22 -69 26 -87q-291 -22 -294 -24q-12 0 -28 1q4 -24 10 -48z
M343 668h-201q-33 0 -55 3q-4 0 -14 3v-47q21 6 67 6h203q-3 -90 -5 -96h50q0 1 -2 5q-3 39 -4 61v30h239q-3 -90 -5 -95q-1 0 -1 -1h49q-3 21 -5 70v26l240 -1q19 -1 40 -5v47l-66 -6h-214q0 81 3 84q3 13 10 26h-57q1 -7 3 -12l3 -98h-239q0 78 3 80q3 13 10 26h-57
q1 -30 5 -61v-45z" />
  </g>

</svg>
