<?xml version="1.0" standalone="no"?>
<!DOCTYPE svg PUBLIC "-//W3C//DTD SVG 1.1//EN" "http://www.w3.org/Graphics/SVG/1.1/DTD/svg11.dtd" >
<svg xmlns="http://www.w3.org/2000/svg" xmlns:xlink="http://www.w3.org/1999/xlink" version="1.1" viewBox="-10 0 1010 1000">
   <path fill="currentColor"
d="M327 -2q9 0 27 1q72 1 69 7q1 3 -3 9q-11 17 -11 47v42h176v-27q1 -62 -4 -77q99 0 106 6q2 2 -3 6q-19 15 -19 46v46h131q95 -1 144 -10v83q-46 -9 -138 -8h-137q0 78 10 97h-98q8 -23 8 -97h-176q0 74 10 93h-96q8 -30 8 -93h-105q-106 0 -164 12v-89q35 12 156 12h115
q0 -13 -1 -35q-2 -59 -5 -71zM913 272q-6 30 -6 82q0 55 8 87h-107q9 -50 9 -89h-632q0 47 5 81h-101q10 -40 10 -81q0 -40 -4 -68q-1 -9 0 -12q33 10 189 10h454q151 -1 175 -10zM448 379q90 0 98 6q4 4 -2 12q-10 14 -10 28q41 103 71 141q58 -39 133 -123q84 58 74 65
q-2 2 -10 5q-53 18 -165 106q126 130 282 145q-61 44 -86 96q-243 -115 -297 -302v264q15 72 -161 77q4 -63 -38 -105q126 28 119 -24v-238q0 -83 -1 -107q-2 -31 -7 -46zM125 488q63 8 123 8h34q72 0 119 -4q14 -2 14 0q-52 249 -300 375q-11 -28 -83 -67q191 -58 283 -232
h-71q-75 0 -109 8q-7 2 -10 2v-90z" />
</svg>
