<?xml version="1.0" standalone="no"?>
<!DOCTYPE svg PUBLIC "-//W3C//DTD SVG 1.1//EN" "http://www.w3.org/Graphics/SVG/1.1/DTD/svg11.dtd" >
<svg xmlns="http://www.w3.org/2000/svg" xmlns:xlink="http://www.w3.org/1999/xlink" version="1.1" viewBox="-10 0 1034 1024">
  <g transform="matrix(1 0 0 -1 0 820)">
   <path fill="currentColor"
d="M548 363q-30 1 -63 8q3 -30 3 -48q0 -57 -20 -138q-30 -112 -97 -178q-60 -55 -154 -92q-28 -9 -59 -15q-33 -3 -83 -5q21 -24 42 -54q222 51 324 188q33 48 63 132q42 -69 77 -111q33 -42 77 -78q84 -69 242 -125q21 30 45 52q-124 15 -223 77q-139 91 -201 256l6 81
q1 9 3 19q3 15 18 31zM142 357q0 -39 -5 -65v-4h47q0 6 -2 14q-1 40 -3 81v38h684q0 -69 -2 -100q0 -12 -4 -29h49q0 3 -2 15q0 33 -5 89q0 10 4 35l3 31q-69 -4 -74 -5l-645 1q-19 3 -50 4q1 -33 5 -67v-38zM211 124q25 -1 56 -9q24 69 38 117q12 45 37 68q-25 3 -62 13
q-3 -36 -16 -87q-21 -72 -53 -102zM662 136q24 -9 41 -19q54 136 58 141q6 21 37 36q-40 12 -66 23q-3 -25 -32 -106q-21 -55 -38 -75zM362 632l-238 1q-10 1 -22 2q-3 0 -13 3v-47q18 6 66 6h207l-4 -104q-1 -1 -1 -4h49q-4 18 -5 44l-1 64h227l-2 -88q-1 -1 -1 -5
q0 -9 -2 -15h48q-6 58 -5 86v22l243 -1q19 -1 41 -5v47q-7 -3 -13 -3q-27 -1 -54 -3h-217q0 99 3 109q0 3 10 24h-56l2 -13q0 1 2 -24l1 -96h-227q0 96 3 106q0 7 5 15q1 4 6 9h-57q0 -6 2 -11l3 -109v-10z" />
  </g>

</svg>
