<?xml version="1.0" standalone="no"?>
<!DOCTYPE svg PUBLIC "-//W3C//DTD SVG 1.1//EN" "http://www.w3.org/Graphics/SVG/1.1/DTD/svg11.dtd" >
<svg xmlns="http://www.w3.org/2000/svg" xmlns:xlink="http://www.w3.org/1999/xlink" version="1.1" viewBox="-10 0 1034 1024">
  <g transform="matrix(1 0 0 -1 0 820)">
   <path fill="currentColor"
d="M500 46l-406 3q-9 3 -17 3v-47q33 4 64 5h359v-104q0 -46 -5 -67h49q0 7 -2 15q-3 51 -3 73v83q384 0 403 -3q4 0 11 -2v47q-1 0 -68 -6h-346v107l269 -1q28 0 42 -4v47q-4 0 -8 -2q-3 0 -5 -1q-27 0 -54 -3h-244q0 45 3 66q1 18 12 29h-59q4 -66 5 -95h-233
q69 63 118 105q15 12 32 28l387 -1q21 0 34 -4v47q-51 -6 -68 -6h-321q39 42 56 53q15 12 43 18q-33 21 -53 43h381v-47q0 -51 -6 -68h50q-6 51 -5 84q0 36 4 48q0 12 1 24q-34 -1 -69 -5l-683 1q-3 0 -53 4q1 -31 5 -64q0 -72 -3 -96q-1 -4 -2 -10h50q-3 12 -3 15
q-3 54 -3 106v8h329q-31 -51 -95 -114l-142 1q-36 4 -39 5v-47q34 4 63 5h82q-36 -37 -84 -78q-36 -31 -53 -42q-12 -7 -37 -13q12 -21 20 -44q25 7 57 8h240v-107zM357 671h-216q-21 0 -47 3q-6 0 -17 3v-47q31 3 64 5h216v-25q0 -45 -6 -67h50q-4 54 -5 82v10h244v-24
q0 -46 -6 -67h50q0 7 -2 15q-3 51 -3 76h201q27 0 52 -3q-1 0 16 -2v47q-10 0 -17 -3l-151 -3h-101v41q0 12 3 31q1 16 12 31h-60q0 -4 6 -60v-43h-244q0 58 2 71q0 3 6 26q1 6 8 10h-61q3 -9 3 -16q1 -21 3 -46v-45z" />
  </g>

</svg>
