<?xml version="1.0" standalone="no"?>
<!DOCTYPE svg PUBLIC "-//W3C//DTD SVG 1.1//EN" "http://www.w3.org/Graphics/SVG/1.1/DTD/svg11.dtd" >
<svg xmlns="http://www.w3.org/2000/svg" xmlns:xlink="http://www.w3.org/1999/xlink" version="1.1" viewBox="-10 0 1010 1000">
   <path fill="currentColor"
d="M321 -21q99 -2 104 9q-22 31 -20 84h180q0 -32 -12 -85q116 -1 108 7q-25 37 -24 78h139q70 -1 135 -10v91q-77 -10 -131 -10h-143q0 37 6 72h-88q7 -29 8 -72h-176q1 45 8 86h-94q8 -38 10 -84h-127q-80 0 -133 8v-89q67 9 129 10h131q0 -60 -10 -95zM774 211
q56 69 61 97q-1 1 -13 -2q-30 -7 -48 -6q-16 1 -73 4q-128 7 -191 10q-7 30 -22 75q-3 8 -4 12h264q68 0 157 -12v92q-67 -7 -155 -8h-107q66 133 311 133q-44 48 -57 103q-119 -23 -207 -86q-3 28 -3 66v105q1 76 9 115h-99q9 -59 10 -115v-121q-1 -9 -1 -28q-1 -38 -5 -55
q27 -1 48 2q-50 -53 -66 -89q-9 -18 -16 -30h-111q-47 71 -101 115q83 2 87 14q1 1 -4 5q-18 16 -19 40q8 202 -223 272q-18 -42 -85 -77q259 -31 222 -236q-109 77 -216 129q-20 -43 -79 -78q199 -42 325 -184h-153q-82 0 -141 8v-90q40 12 122 10h15h193q17 -36 24 -83
q-14 0 -40 1q-169 5 -228 5q-8 -52 -40 -82q69 8 157 10q89 2 184 -3q205 -10 318 -38z" />
</svg>
