<?xml version="1.0" standalone="no"?>
<!DOCTYPE svg PUBLIC "-//W3C//DTD SVG 1.1//EN" "http://www.w3.org/Graphics/SVG/1.1/DTD/svg11.dtd" >
<svg xmlns="http://www.w3.org/2000/svg" xmlns:xlink="http://www.w3.org/1999/xlink" version="1.1" viewBox="-10 0 1034 1024">
  <g transform="matrix(1 0 0 -1 0 820)">
   <path fill="currentColor"
d="M499 -101q0 -43 -5 -68h49q0 7 -2 16q-3 51 -3 71v270q82 -102 175 -168q84 -58 216 -115q28 36 48 51q-111 16 -213 80q-114 75 -192 175q300 0 319 -3q6 0 12 -2v47q-18 -1 -35 -5l-330 -1v62q0 12 3 30q1 18 12 32h-59q1 -18 2 -16l3 -108l-307 1q-6 1 -36 2
q-7 1 -16 3v-47q31 4 63 5h252q-19 -30 -54 -66q-81 -81 -133 -115q-123 -78 -227 -88q30 -21 45 -42l6 -8q76 30 140 66q108 69 170 130q60 60 97 115v-304zM370 648l-251 1q-12 1 -23 2q-9 1 -17 3v-47q24 4 64 5h227v-42q0 -42 -6 -67h50q-6 66 -6 89v20h223v-40
q0 -45 -5 -68h49q0 7 -2 15q-3 54 -3 93l243 -1l34 -4v47q-10 0 -17 -3q-18 0 -51 -3h-209v56q0 12 2 29q3 19 13 32h-59q4 -39 5 -76v-41h-223q0 69 2 79q0 6 6 30q1 7 8 14h-60q6 -73 6 -86v-37zM113 457q1 -31 5 -65q0 -51 -2 -81l-3 -17h49q-3 33 -5 66v56h720v-48
q0 -45 -5 -67h49q0 7 -2 15q-3 51 -3 78q0 18 5 63q-36 -1 -71 -5l-685 1q-19 3 -52 4v0z" />
  </g>

</svg>
