<?xml version="1.0" standalone="no"?>
<!DOCTYPE svg PUBLIC "-//W3C//DTD SVG 1.1//EN" "http://www.w3.org/Graphics/SVG/1.1/DTD/svg11.dtd" >
<svg xmlns="http://www.w3.org/2000/svg" xmlns:xlink="http://www.w3.org/1999/xlink" version="1.1" viewBox="-10 0 1010 1000">
   <path fill="currentColor"
d="M583 -8q85 0 104 14q0 6 -7 18q-21 36 -21 88h99q71 0 179 -10v77q-56 -6 -171 -6h-107q0 50 10 87h-88q8 -41 8 -87h-196q0 52 6 87h-84q8 -53 8 -87h-117q-98 1 -143 8v-77q50 7 143 8h115q1 -48 -8 -116q95 2 108 20q0 4 -6 15q-22 38 -22 81h194q0 -33 -3 -108
q-1 -8 -1 -12zM895 278q-8 32 -8 89v20q0 49 8 74h-95q8 -48 8 -107h-623q0 57 1 84q2 31 6 49h-95q8 -47 8 -86v-38q0 -51 -8 -85q27 5 91 8h606q64 0 101 -8zM448 391q109 -1 110 12q1 2 -5 9q-19 24 -19 53q11 173 186 281q91 45 199 56q-68 48 -84 95
q-127 -48 -222 -129q-77 -64 -111 -190q-18 134 -101 210q-72 63 -270 119q-21 -55 -77 -95q129 2 246 -54q171 -76 148 -367zM746 469q63 31 77 53q0 2 -5 6q-12 8 -22 24q-41 66 -96 119q-30 -31 -69 -46q72 -66 115 -156zM254 451q82 26 87 43q-1 4 -6 8q-11 8 -16 22
q-26 78 -81 143q-28 -21 -81 -32q76 -80 97 -184z" />
</svg>
