<?xml version="1.0" standalone="no"?>
<!DOCTYPE svg PUBLIC "-//W3C//DTD SVG 1.1//EN" "http://www.w3.org/Graphics/SVG/1.1/DTD/svg11.dtd" >
<svg xmlns="http://www.w3.org/2000/svg" xmlns:xlink="http://www.w3.org/1999/xlink" version="1.1" viewBox="-10 0 1010 1000">
   <path fill="currentColor"
d="M585 -13q92 2 111 15q-1 2 -5 8q-18 27 -18 46v38h140q51 0 137 -10v81q-37 -8 -137 -8h-140q-1 69 6 81h-92q6 -17 6 -81h-176q0 59 8 80h-96q10 -33 10 -80h-170q-66 0 -105 7q-5 1 -6 1v-79q2 0 7 1q37 7 106 7h168v-26q0 -46 -4 -83q105 3 103 13q0 3 -4 10
q-14 27 -15 56v30h174v-38q0 -38 -8 -69zM200 221q73 39 133 87l-57 63q-53 -45 -131 -85zM857 256v86q-49 -6 -99 20q-111 59 -228 119h208q109 -1 157 -10q-4 53 -11 179q-8 159 -13 178q-19 62 -149 75q-4 -60 -55 -107q104 19 125 -18q14 -43 16 -232h-72
q-52 280 -321 363q-28 -40 -68 -65q255 -46 316 -300h-80q-63 153 -218 244q-37 -41 -71 -59q152 -54 210 -185h-34q-61 1 -85 8l-14 -77q44 -8 79 -24q92 -42 237 -121h-161q-80 0 -134 7q-10 1 -13 1v-80q2 0 7 1q46 7 140 7h119q134 0 202 -9q8 -1 10 -1zM127 381
q67 34 145 90l-64 67q-57 -48 -141 -91zM262 560q18 21 49 51l14 14q-158 234 -166 276q-18 -13 -44 -35q-23 -19 -40 -32q122 -143 187 -274z" />
</svg>
