<?xml version="1.0" standalone="no"?>
<!DOCTYPE svg PUBLIC "-//W3C//DTD SVG 1.1//EN" "http://www.w3.org/Graphics/SVG/1.1/DTD/svg11.dtd" >
<svg xmlns="http://www.w3.org/2000/svg" xmlns:xlink="http://www.w3.org/1999/xlink" version="1.1" viewBox="-10 0 1010 1000">
   <path fill="currentColor"
d="M321 -12q83 -1 92 8q1 2 -2 7q-14 33 -14 97h186q0 -72 -4 -110q88 4 96 10q0 1 -1 4q-17 26 -17 96h170q45 0 100 -8v79q-63 -9 -102 -8h-168q-1 56 4 77h-82q4 -35 4 -77h-186q-1 52 4 72h-80q4 -33 4 -72h-123h-10q-87 -1 -121 6v-77q63 8 127 8h127q0 -49 -4 -112z
M115 264q42 6 113 6h538q75 0 123 -6q-32 81 -81 185q-40 -17 -84 -20q42 -63 58 -93h-556q-72 0 -111 6v-78zM558 362q92 3 101 15q1 3 -4 9q-21 25 -26 73q-8 79 -24 154h207q71 0 111 -5v77q-44 -6 -110 -6h-232q-63 140 -442 226q-11 -48 -52 -89q280 -21 403 -137h-286
q-87 0 -129 6v-77q36 5 125 5h324q22 -96 34 -251zM633 695q151 57 268 135l-76 77q-90 -83 -254 -151zM181 510l49 -61q83 36 185 93l-48 66q1 2 -30 -17q-125 -73 -156 -81zM500 439l-56 65q-66 -59 -166 -111l47 -53q85 35 175 99z" />
</svg>
