<?xml version="1.0" standalone="no"?>
<!DOCTYPE svg PUBLIC "-//W3C//DTD SVG 1.1//EN" "http://www.w3.org/Graphics/SVG/1.1/DTD/svg11.dtd" >
<svg xmlns="http://www.w3.org/2000/svg" xmlns:xlink="http://www.w3.org/1999/xlink" version="1.1" viewBox="-10 0 1034 1024">
  <g transform="matrix(1 0 0 -1 0 820)">
   <path fill="currentColor"
d="M73 -33q18 -10 35 -24q39 39 63 67q24 30 41 54q42 66 59 107q13 39 28 117h330q42 -102 108 -167q64 -64 189 -128q12 18 47 53q-66 7 -134 47q-126 73 -162 195q73 0 85 -2l49 -4q-4 54 -5 113q0 42 3 84q0 13 2 24q-36 -1 -72 -5l-432 1q-19 3 -50 4q4 -75 5 -114
l-1 -95q-6 -58 -33 -124q-39 -90 -111 -150q-33 -27 -67 -40q10 -6 23 -13zM300 323v139h468v-139h-468zM752 -121q-27 13 -71 30q-112 42 -122 47q-12 3 -26 9l-181 57q-3 -18 -7 -26q-1 -6 -8 -18q21 -3 137 -37q28 -7 54 -17q108 -39 127 -49q33 -12 58 -29q7 -4 20 -13
q3 15 19 46zM412 145q109 -30 220 -95q6 13 12 29q1 7 8 14q-24 13 -98 47q-15 6 -28 12q-1 0 -99 37q-6 -22 -15 -44zM357 665l-268 1q-9 1 -17 2q-3 0 -13 3v-47q18 6 67 6h231q-3 -88 -5 -100h49q-4 24 -5 44l-1 56h234q0 -61 -3 -80q0 -12 -2 -19h48q-6 66 -5 88v11
l244 -1q27 0 39 -4l2 -1v47q-6 -1 -59 -6h-226q0 81 3 85q0 6 2 9l8 17h-56q0 -9 2 -13q0 1 2 -24l1 -74h-234v46q0 12 2 29q1 9 3 15l8 17h-56q0 -6 2 -11q0 -36 3 -74v-22z" />
  </g>

</svg>
