<?xml version="1.0" standalone="no"?>
<!DOCTYPE svg PUBLIC "-//W3C//DTD SVG 1.1//EN" "http://www.w3.org/Graphics/SVG/1.1/DTD/svg11.dtd" >
<svg xmlns="http://www.w3.org/2000/svg" xmlns:xlink="http://www.w3.org/1999/xlink" version="1.1" viewBox="-10 0 1010 1000">
   <path fill="currentColor"
d="M349 -12q77 3 84 8q1 1 -1 8q-14 38 -15 94h180l-4 -106q68 0 82 6q2 1 -1 10q-11 36 -11 90h162q71 0 106 -6v79q-36 -6 -108 -6h-160q0 32 6 62h-76q4 -32 4 -62h-180q0 42 4 58h-72q0 -2 1 -5q3 -34 3 -53h-168q-64 0 -106 6v-79q36 6 104 6h170zM254 205q91 30 89 37
q0 2 -5 5q-41 34 -124 160h107q56 -72 84 -123q12 5 38 14q67 25 61 30q-1 1 -4 3q-66 41 -260 275q55 -5 173 -27q29 -5 41 -7q-15 34 -10 77q-245 22 -299 44q-4 -9 -12 -39q-9 -31 -14 -44q35 21 165 -149q-128 3 -165 18l-22 -62q48 23 157 -212zM718 217q107 3 103 10
q0 1 -2 4q-23 28 -23 115v33h39q62 0 103 -6v80q-24 -4 -46 -5q-18 -1 -57 -1h-39v387q8 57 -159 71q8 -32 -24 -91q75 13 93 5q20 -5 18 -47v-325h-107q-67 0 -109 6v-80q24 4 45 5q17 1 58 1h113q0 -109 -6 -162zM585 494q43 55 80 137l-78 36q-21 -84 -63 -145zM476 707
q-12 33 -6 73q-313 46 -365 68q-3 -9 -9 -31q-12 -42 -17 -55q183 -19 397 -55z" />
</svg>
