<?xml version="1.0" standalone="no"?>
<!DOCTYPE svg PUBLIC "-//W3C//DTD SVG 1.1//EN" "http://www.w3.org/Graphics/SVG/1.1/DTD/svg11.dtd" >
<svg xmlns="http://www.w3.org/2000/svg" xmlns:xlink="http://www.w3.org/1999/xlink" version="1.1" viewBox="-10 0 1034 1024">
  <g transform="matrix(1 0 0 -1 0 820)">
   <path fill="currentColor"
d="M130 104q-42 0 -65 6v-47q12 3 38 4l424 1q-7 -15 -14 -25q-18 -27 -59 -61q-54 -39 -135 -65q-87 -24 -138 -25q-6 0 -42 4q15 -24 26 -49q58 10 105 22q40 9 74 19q55 18 103 48q78 52 121 132l385 -3l2 -1q3 0 5 -1v47q-10 -3 -23 -4q-18 0 -41 -2h-309q9 36 18 76
l17 103q7 60 14 80q3 13 17 27l-62 17l-1 -81q-12 -99 -18 -133q-9 -39 -24 -89h-418zM869 487q-24 -3 -35 -3h-631q-43 0 -64 5v-46q15 3 31 4l661 1q-15 -45 -34 -92q-21 -48 -32 -64l44 -4q33 84 35 88l48 113q-12 0 -23 -2zM423 185l-64 37l-86 46q-9 4 -19 11
q-3 -6 -19 -30l45 -24q24 -12 60 -34l59 -35q18 -12 34 -27q9 19 21 38q-16 9 -31 18zM289 387l89 -48q24 -13 44 -26q51 -33 68 -52q7 10 11 17q6 9 16 20l-209 122q-9 -18 -19 -33zM370 641l-278 1q-33 3 -36 5v-47q19 4 50 5h264q0 -69 -3 -86q0 -4 -3 -9h49q-1 3 -1 5
q-1 3 -5 53v37h225q-3 -84 -5 -95h48q0 1 -1 5q-1 3 -4 46v44l267 -1l26 -4v47q-10 -3 -23 -4q-21 0 -41 -2h-229v40q0 36 13 67h-56q4 -60 5 -85v-22h-225v42q0 33 14 68h-57q6 -66 6 -102v-8zM882 -112l-28 16l-82 49q-49 30 -83 48l-77 45q-9 -18 -22 -34l72 -40l132 -78
q54 -36 78 -61q10 22 24 46q-7 4 -14 9v0z" />
  </g>

</svg>
