<?xml version="1.0" standalone="no"?>
<!DOCTYPE svg PUBLIC "-//W3C//DTD SVG 1.1//EN" "http://www.w3.org/Graphics/SVG/1.1/DTD/svg11.dtd" >
<svg xmlns="http://www.w3.org/2000/svg" xmlns:xlink="http://www.w3.org/1999/xlink" version="1.1" viewBox="-10 0 1010 1000">
   <path fill="currentColor"
d="M329 -2q72 -1 98 8q1 3 -3 10q-11 25 -11 60v26h184v-22q0 -38 -4 -74q80 -2 97 6q0 3 -4 12q-11 26 -11 56v22h125q69 0 135 -8v79q-53 -8 -137 -8h-127q0 50 8 75h-92q8 -28 8 -75h-182q0 42 8 70h-96q8 -29 8 -70h-158q-74 0 -113 8v-81q38 9 117 10h154v-26
q0 -40 -4 -78zM127 258q47 10 87 8h115q65 0 111 -8l-89 217q82 113 58 194q-34 72 -145 87q-2 -27 -40 -91q97 11 105 -46q10 -36 -57 -136q16 -37 45 -112q11 -27 16 -41h-127v385q0 131 10 162h-89q5 -23 7 -59q0 -17 1 -39v-62v-348q0 -52 -8 -111zM494 266q39 6 101 6
h145q68 0 121 -8v76v450q1 57 -34 79q-30 22 -125 28q-6 -49 -35 -95q74 5 96 -3q24 -8 23 -37v-105h-224q-38 139 -149 236q-34 -39 -88 -51q117 -56 151 -178q18 -60 22 -151q4 -86 -4 -247zM573 336v97h213v-97h-213zM573 496q-3 47 -6 98h219v-98h-213z" />
</svg>
