<?xml version="1.0" standalone="no"?>
<!DOCTYPE svg PUBLIC "-//W3C//DTD SVG 1.1//EN" "http://www.w3.org/Graphics/SVG/1.1/DTD/svg11.dtd" >
<svg xmlns="http://www.w3.org/2000/svg" xmlns:xlink="http://www.w3.org/1999/xlink" version="1.1" viewBox="-10 0 1034 1024">
  <g transform="matrix(1 0 0 -1 0 820)">
   <path fill="currentColor"
d="M690 124l-594 1q-9 1 -17 2q-3 0 -13 3v-47q18 6 67 6h557v-147q0 -33 -16 -48q-19 -15 -65 -15q-28 0 -59 6q12 -34 17 -52q55 3 96 13q64 15 65 84v159l191 -1q30 0 40 -5v47q-6 -1 -60 -6h-171q0 46 3 53q3 13 11 25h-58l1 -2q0 -1 1 -5q0 -1 1 -4q0 -33 3 -67z
M256 518q-19 0 -55 3q-9 0 -13 2v-47q15 6 66 6h526v-100l-520 1q-7 1 -17 2q-1 0 -8 2v-47q21 6 67 6h478v-86l-556 1q-21 3 -35 4v-46q33 3 67 5l518 -1l49 -4q-6 66 -6 77l1 175q1 25 5 52q-34 -1 -70 -5h-497zM421 -80l15 15q3 4 8 8q-45 40 -51 45l-95 76
q-18 -24 -29 -34q45 -30 75 -54q31 -25 67 -61q1 -1 4 -5q3 6 6 10zM356 665h-211q-30 0 -54 3q-4 0 -14 3v-47l67 6h212q-3 -66 -5 -84h49q-6 18 -6 72v12h227q-3 -75 -5 -78h48v5q-3 7 -4 36l-1 37l259 -1q15 0 41 -5v47q-6 -1 -60 -6h-240q0 79 3 82q0 6 2 9l8 17h-56
q1 -30 5 -61v-47h-227q0 79 3 82q0 6 2 9l8 17h-56q0 -6 2 -11q0 -36 3 -75v-22z" />
  </g>

</svg>
