<?xml version="1.0" standalone="no"?>
<!DOCTYPE svg PUBLIC "-//W3C//DTD SVG 1.1//EN" "http://www.w3.org/Graphics/SVG/1.1/DTD/svg11.dtd" >
<svg xmlns="http://www.w3.org/2000/svg" xmlns:xlink="http://www.w3.org/1999/xlink" version="1.1" viewBox="-10 0 1010 1000">
   <path fill="currentColor"
d="M335 -13q93 1 102 9q-25 13 -24 86h174q0 -56 -6 -92q98 8 98 14q-26 15 -24 78h160q49 0 125 -12v87q-50 -9 -114 -8h-9h-160q0 15 9 66q1 3 1 4h-86q8 -40 8 -70h-176q0 20 7 55l3 15h-90q6 -30 6 -70h-154q-70 1 -122 8v-85q48 8 120 10h158q4 -65 -6 -95zM165 229
q58 9 137 8h432q26 0 89 -6q-5 40 -6 77v161q1 37 8 85q-45 -5 -85 -6h-18v69h90q44 0 136 -9v85q-33 -5 -64 -6q-15 -1 -31 -2h-40h-89v141q4 44 -30 59q-34 18 -142 26q-1 -50 -44 -103q152 35 141 -28v-95h-306q48 33 102 77q12 11 19 16l-73 58q-34 -51 -119 -107
l51 -44h-121q-84 1 -144 10v-89q101 11 146 11h445v-69h-357q-85 0 -127 8v-81q46 7 123 8h452v-60h-411q-78 0 -131 8v-79q39 8 129 8h413v-58h-440q-82 1 -135 8v-81z" />
</svg>
