<?xml version="1.0" standalone="no"?>
<!DOCTYPE svg PUBLIC "-//W3C//DTD SVG 1.1//EN" "http://www.w3.org/Graphics/SVG/1.1/DTD/svg11.dtd" >
<svg xmlns="http://www.w3.org/2000/svg" xmlns:xlink="http://www.w3.org/1999/xlink" version="1.1" viewBox="-10 0 1010 1000">
   <path fill="currentColor"
d="M577 -4q98 1 98 10q-24 10 -22 86h157q71 0 123 -10v91q-57 -9 -120 -10h-160q1 43 8 74h-82q6 -29 6 -74h-182q0 37 8 74h-86q10 -43 10 -74h-154q-78 0 -127 10v-91q49 9 131 10h150q4 -54 -8 -98q72 4 98 14q-28 16 -26 84h186q0 -56 -8 -96zM194 221q42 41 78 83
l59 -60q43 27 76 54q-34 14 -95 64q57 104 59 224q2 161 -43 217q-42 62 -171 76q-1 -64 -42 -101q105 16 147 -26q22 -24 31 -83q5 -32 6 -69q1 -40 -3 -64q-69 92 -189 177q-22 -34 -65 -62q140 -60 236 -194q-8 -24 -22 -50q-11 8 -33 23q-67 50 -118 76q-16 -37 -55 -65
q66 -14 162 -87q-39 -52 -81 -82zM601 246q55 3 91 14q-7 34 -11 123q-11 330 265 435q-55 27 -91 79q-172 -124 -212 -319q-40 208 -232 321q-31 -42 -88 -67q149 -49 215 -169q81 -130 63 -417zM446 336q69 5 88 14q0 2 -4 8q-14 21 -18 57q-11 98 -32 163
q-39 -14 -73 -10q41 -105 39 -232zM827 342q83 34 86 45q-1 2 -7 7q-21 16 -35 47q-6 11 -17 35q-33 69 -60 114q-20 -20 -68 -36q69 -95 101 -212z" />
</svg>
