<?xml version="1.0" standalone="no"?>
<!DOCTYPE svg PUBLIC "-//W3C//DTD SVG 1.1//EN" "http://www.w3.org/Graphics/SVG/1.1/DTD/svg11.dtd" >
<svg xmlns="http://www.w3.org/2000/svg" xmlns:xlink="http://www.w3.org/1999/xlink" version="1.1" viewBox="-10 0 1010 1000">
   <path fill="currentColor"
d="M327 -6q35 0 68 4q34 4 19 31q-9 16 -9 25v40h188q1 -65 -8 -98q33 -2 78 2q24 4 12 27q-10 20 -10 33v36h176h16q58 1 83 -6v81q-36 -8 -103 -8h-172q-1 57 8 83h-88q9 -26 8 -83h-188q-1 56 6 74h-86q9 -18 8 -74h-164q-75 0 -106 8v-83q29 8 104 8h166q1 -71 -6 -100z
M246 213q96 38 101 49q0 4 -12 16q-35 36 -63 82v436q-1 81 8 107h-92q6 -21 7 -39q1 -13 1 -68v-323q-34 52 -93 127q-27 -42 -59 -64q128 -140 202 -323zM946 276v86q-41 -9 -109 -8v436q2 62 -26 79q-27 21 -128 32q-15 -56 -40 -101q129 29 117 -42v-404h-280
q-79 -1 -119 8v-86q35 9 115 8h345q55 0 79 -2q29 -1 46 -6zM381 441q48 6 145 6q66 0 92 -1q33 -1 57 -5q-2 23 -3 56q-1 16 -1 37v50q0 49 8 139q-66 -8 -147 -8q-101 0 -147 6v-67q1 -36 2 -76q0 -72 -6 -137zM460 510v145h135v-145h-135z" />
</svg>
