<?xml version="1.0" standalone="no"?>
<!DOCTYPE svg PUBLIC "-//W3C//DTD SVG 1.1//EN" "http://www.w3.org/Graphics/SVG/1.1/DTD/svg11.dtd" >
<svg xmlns="http://www.w3.org/2000/svg" xmlns:xlink="http://www.w3.org/1999/xlink" version="1.1" viewBox="-10 0 1034 1024">
  <g transform="matrix(1 0 0 -1 0 820)">
   <path fill="currentColor"
d="M217 -91q0 -45 -5 -67h49q0 7 -2 15q-1 25 -3 52v436l66 101q24 36 50 45q-37 19 -56 34q-15 -39 -45 -89q-57 -85 -125 -162q-31 -33 -47 -45q-16 -13 -41 -27q24 -10 47 -30q25 24 47 49q24 27 65 76v-388zM379 650l-261 1q-24 3 -32 3q-3 0 -6 2l-2 1v-48q31 3 38 4
l263 1v-19q0 -45 -6 -69h49q0 7 -2 16q-3 54 -3 72h229v-19q0 -48 -6 -69h50q0 7 -2 16q-3 54 -3 72l231 -1q27 0 41 -4v48q-3 -1 -8 -3q-15 0 -60 -4h-204v58q0 12 3 31q1 16 13 31h-61q1 -7 6 -59v-61h-229v56q0 12 3 29q1 18 12 32h-59q3 -9 3 -16q1 -24 3 -36v-65z
M366 -54q-45 6 -63 6v-47q30 4 59 5l568 -1q27 0 41 -4v47q-18 -1 -35 -5l-268 -1l148 269q18 33 45 55q-28 7 -60 28q-28 -81 -84 -190q-30 -57 -55 -99q-19 -36 -38 -63h-258zM353 321q31 3 38 4l466 1l61 -4q3 0 7 -1v47q-4 0 -8 -2q-4 0 -8 -1q-18 0 -52 -3l-464 1
q-12 1 -23 2q-9 1 -17 3v-47zM414 234q4 -6 9 -14q57 -72 97 -151q10 -22 23 -46q0 -3 5 -9q6 3 11 8q1 0 3 2l1 2q6 3 9 7l15 9l-91 150q-24 37 -54 76q-6 -3 -11 -8q-18 -18 -23 -19q3 -3 6 -7zM553 503l74 -57q25 -22 59 -56q12 18 28 34q-22 25 -65 61q-37 31 -65 49
q-13 -18 -25 -27q-3 -1 -6 -4v0z" />
  </g>

</svg>
