<?xml version="1.0" standalone="no"?>
<!DOCTYPE svg PUBLIC "-//W3C//DTD SVG 1.1//EN" "http://www.w3.org/Graphics/SVG/1.1/DTD/svg11.dtd" >
<svg xmlns="http://www.w3.org/2000/svg" xmlns:xlink="http://www.w3.org/1999/xlink" version="1.1" viewBox="-10 0 1034 1024">
  <g transform="matrix(1 0 0 -1 0 820)">
   <path fill="currentColor"
d="M323 -97q0 -45 -5 -68h51q0 3 -2 6l-1 2q0 6 -2 14l-2 224v89q45 -31 86 -65q55 -45 79 -86q16 33 32 47q-21 21 -89 76l-28 20l-80 59v27q184 0 196 -2q9 -1 21 -4v48q-4 0 -9 -1q-3 -3 -26 -4l-123 -2h-59v140l67 12q49 9 71 10q9 0 24 -1q-15 24 -29 52
q-31 -12 -70 -21q-90 -18 -165 -28q-66 -7 -102 -8q-10 0 -44 5q24 -27 32 -54l177 27v-134l-181 1q-6 1 -36 2q-7 3 -16 4v-48q48 6 59 6h159q-45 -78 -107 -147q-54 -60 -81 -85q-25 -22 -66 -45q30 -10 55 -32q37 39 102 110q28 33 53 65q25 33 59 82v-293zM351 640
l-235 1q-24 4 -38 5v-47q24 3 38 4l235 1v-38q0 -48 -5 -66h49q-4 54 -5 82v22h270v-35q0 -48 -6 -67h50q0 7 -2 15q-3 51 -3 78v9l233 -1q12 0 36 -4v47q-9 0 -16 -3q-25 0 -52 -3h-201q0 90 3 94q3 16 12 28h-60q1 -7 6 -60v-62h-270v59q0 12 3 29q1 18 12 32h-59
q4 -49 5 -76v-44zM645 422q4 -45 5 -62l-1 -277q-1 -18 -4 -30h49q0 7 -2 15q-1 25 -3 52l1 260q0 15 4 22q1 12 11 20h-60zM838 498q1 -30 5 -62l-1 -496q-3 -24 -13 -35q-24 -15 -66 -16q-31 0 -85 11q18 -30 26 -63q123 9 154 36q24 22 24 81v482q0 13 3 30q1 18 12 32
h-59z" />
  </g>

</svg>
