<?xml version="1.0" standalone="no"?>
<!DOCTYPE svg PUBLIC "-//W3C//DTD SVG 1.1//EN" "http://www.w3.org/Graphics/SVG/1.1/DTD/svg11.dtd" >
<svg xmlns="http://www.w3.org/2000/svg" xmlns:xlink="http://www.w3.org/1999/xlink" version="1.1" viewBox="-10 0 1010 1000">
   <path fill="currentColor"
d="M603 -21q103 0 101 8q-24 47 -23 95h111q71 0 123 -10v93q-55 -10 -119 -10h-115q0 61 6 87h-88q9 -54 10 -87h-230q1 56 6 85h-91q8 -35 8 -85h-106q-77 1 -129 8v-91q57 8 127 10h106q0 -74 -6 -103q82 1 103 9q-19 36 -18 94h230q0 -62 -6 -103zM524 183q9 42 26 99
h194q59 0 135 -10v91q-67 -9 -133 -9h-496q-79 0 -135 8v-90q5 0 16 2q87 8 119 8h210q-6 -48 -31 -87zM633 356q96 21 99 35q0 1 -5 5q-40 36 -82 102h174q66 -1 118 -8v90q-60 -9 -116 -10h-289v99h218q72 -2 133 -12v93q-73 -9 -129 -10h-218q-2 82 10 175h-102
q10 -73 12 -173h-198q-57 0 -137 10v-91q69 9 137 10h196v-101h-266q-78 0 -132 10v-92q78 10 132 10h151q-30 -53 -75 -105l79 -30q28 38 70 116l-52 19h202q32 -33 70 -142z" />
</svg>
