<?xml version="1.0" standalone="no"?>
<!DOCTYPE svg PUBLIC "-//W3C//DTD SVG 1.1//EN" "http://www.w3.org/Graphics/SVG/1.1/DTD/svg11.dtd" >
<svg xmlns="http://www.w3.org/2000/svg" xmlns:xlink="http://www.w3.org/1999/xlink" version="1.1" viewBox="-10 0 1034 1024">
  <g transform="matrix(1 0 0 -1 0 820)">
   <path fill="currentColor"
d="M484 286q0 -39 -5 -65h48q-3 9 -3 20l-2 87v21q75 -67 202 -123q52 -21 108 -38q52 -15 93 -26q12 30 33 50q-81 1 -173 32q-129 45 -224 119l313 -1l35 -4v46q-3 0 -7 -1l-2 -1q-3 0 -5 -1q-4 0 -8 -1q-12 0 -44 -2h-321v87q3 0 127 18l99 15l49 4q-27 27 -36 50
q-66 -24 -120 -33q-81 -15 -177 -21q-75 -3 -151 -5q-43 0 -95 10q12 -28 12 -51l119 4q18 0 135 7v-85l-345 1q-34 4 -38 5v-46q30 4 60 5h279q-70 -57 -189 -112q-112 -49 -184 -52q18 -15 37 -44q217 73 380 192v-61zM349 663l-223 1q-24 3 -31 3q-3 0 -7 2v-46
q21 4 61 5h200v-19q0 -45 -5 -65h48q-3 33 -5 68v16h220v-10q0 -45 -5 -66h48q-4 24 -5 62v14q259 0 270 -2q3 0 8 -2q3 0 7 -1v46q-4 0 -8 -2q-3 0 -5 -1q-25 0 -52 -3h-220q0 81 3 83q3 15 12 26h-58l2 -15q0 -31 3 -64v-30h-220q0 87 3 89q1 13 11 24h-57l2 -15
q0 1 2 -24zM638 168q-15 -60 -34 -108q66 6 96 6h77q-15 -121 -51 -141q-27 -15 -75 -16q-34 0 -72 15q12 -30 19 -60q82 1 127 18q39 13 54 37q15 25 27 89q6 37 11 55q0 12 10 43q-33 -1 -65 -5h-103q21 84 31 108q-16 -1 -37 -3q-22 -3 -35 -4l-335 3q-7 3 -21 4v-47
q1 0 4 1q1 1 14 3l122 2q-15 -99 -100 -176q-85 -75 -197 -89q25 -19 40 -41q108 39 193 113q43 39 63 76q21 39 44 117h193z" />
  </g>

</svg>
