<?xml version="1.0" standalone="no"?>
<!DOCTYPE svg PUBLIC "-//W3C//DTD SVG 1.1//EN" "http://www.w3.org/Graphics/SVG/1.1/DTD/svg11.dtd" >
<svg xmlns="http://www.w3.org/2000/svg" xmlns:xlink="http://www.w3.org/1999/xlink" version="1.1" viewBox="-10 0 1034 1024">
  <g transform="matrix(1 0 0 -1 0 820)">
   <path fill="currentColor"
d="M214 -99q-3 -61 -5 -70h49q-4 24 -5 45l-1 478q0 1 8 19q43 88 56 106q1 3 4 5q7 9 34 23q-16 6 -32 14q-12 6 -31 19q-3 -28 -43 -110q-54 -103 -131 -189q-30 -30 -74 -55q31 -19 49 -35q42 45 122 151v-401zM958 -107q6 10 13 19q-63 3 -142 42q-85 48 -132 98
q45 61 74 129q27 73 43 172l109 -3q3 0 11 -3v47q-9 -3 -26 -4l-79 -2h-252q12 42 26 67q18 36 43 50q-30 6 -65 20q-7 -51 -60 -157q-36 -64 -58 -95q-25 -30 -59 -55q31 -12 56 -24q6 13 43 63q12 16 55 96h213q-21 -178 -106 -273q-34 42 -68 102q-18 37 -20 75l-53 -20
q9 -13 16 -27q6 -12 12 -25q13 -31 32 -59q21 -31 54 -75q-66 -70 -194 -123q-69 -27 -122 -35q13 -10 25 -23q7 -7 18 -23q106 42 178 83q66 39 125 92q64 -57 123 -93q63 -36 143 -67q1 6 24 31zM353 372q0 -9 2 -14q0 -18 3 -48q-3 -273 -5 -290h49q-3 12 -6 48l1 260
q3 28 6 31q1 7 7 13h-57zM361 652l-262 1l-28 5l-3 1v-48q18 6 67 7h226l-4 -99q-1 -1 -1 -5h49q-3 12 -6 48v56h242q-3 -96 -5 -100h49q-3 16 -6 54v46l231 -1q19 0 26 -3q9 0 15 -3v48q-6 -3 -13 -4q-24 -3 -54 -3h-205q0 96 3 100q3 13 10 26h-56q1 -30 5 -61v-65h-242
q0 90 3 94q0 9 5 17q1 4 6 9h-57q0 -6 2 -11q0 -36 3 -73v-36z" />
  </g>

</svg>
