<?xml version="1.0" standalone="no"?>
<!DOCTYPE svg PUBLIC "-//W3C//DTD SVG 1.1//EN" "http://www.w3.org/Graphics/SVG/1.1/DTD/svg11.dtd" >
<svg xmlns="http://www.w3.org/2000/svg" xmlns:xlink="http://www.w3.org/1999/xlink" version="1.1" viewBox="-10 0 1010 1000">
   <path fill="currentColor"
d="M587 -6q104 4 103 12q-16 38 -17 104h146q46 -1 131 -12v91q-48 -7 -121 -8h-154q0 46 6 75h-92q8 -38 8 -75h-206q0 48 8 85h-89q4 -42 5 -85h-132q-73 1 -131 8v-87q61 7 127 8h136q0 -66 -7 -110q86 -4 103 8q-20 35 -20 102h206q0 -76 -10 -116zM260 246q54 24 99 54
q-1 3 -10 6q-20 6 -28 18q-14 20 -33 51q-9 16 -14 24v345q1 80 10 145h-101q8 -60 9 -143v-244q-35 55 -93 117q-27 -36 -77 -55q160 -127 238 -318zM567 256q55 11 100 32q-17 10 -43 61q-5 9 -7 13h216q70 -1 111 -8v85q-52 -8 -121 -8q-33 188 -103 282q98 70 236 81
q-51 44 -69 99q-136 -49 -224 -119q-88 67 -266 127q-10 -41 -70 -81q161 -21 282 -107q-54 -81 -79 -177l-36 56q-23 -24 -65 -48q107 -115 138 -288zM738 431h-151l-45 85l65 -14q3 12 5 22q9 66 40 119l11 22q57 -88 75 -234zM421 592q1 74 10 123h-96q9 -60 10 -123
v-127q1 -61 -8 -90q108 3 100 12q-16 25 -16 72v133z" />
</svg>
