<?xml version="1.0" standalone="no"?>
<!DOCTYPE svg PUBLIC "-//W3C//DTD SVG 1.1//EN" "http://www.w3.org/Graphics/SVG/1.1/DTD/svg11.dtd" >
<svg xmlns="http://www.w3.org/2000/svg" xmlns:xlink="http://www.w3.org/1999/xlink" version="1.1" viewBox="-10 0 1034 1024">
  <g transform="matrix(1 0 0 -1 0 820)">
   <path fill="currentColor"
d="M338 326l-225 1q-15 0 -37 6v-48q24 6 68 6h194v-156q-186 -55 -241 -58q16 -22 33 -56q33 15 73 30l83 28l52 16v-164q0 -37 -43 -41q-21 0 -42 -2q-7 0 -43 7q7 -16 13 -38q1 -7 4 -15q15 0 45 4q57 6 71 13q33 15 33 55v194q15 4 35 10q24 9 49 17q6 1 76 23
q1 16 9 53q-37 -22 -169 -62v142h224q13 -87 21 -111q1 -18 13 -51l7 -25q9 -24 19 -55q-111 -105 -214 -124q13 -9 30 -29l3 -4q1 0 3 -2q1 -3 4 -5q64 33 110 64q42 27 81 64q51 -100 105 -144q39 -30 67 -31q21 0 36 17q21 24 36 64q12 27 23 57q-27 15 -48 37
q-16 -126 -52 -126q-9 0 -24 8q-24 15 -51 46q-15 18 -29 38l-32 60q33 39 65 86q45 66 51 71q15 18 39 29q-15 4 -41 18q-13 6 -23 10q-6 -25 -28 -63q-42 -69 -82 -111q-21 60 -30 100q-6 21 -10 51q-3 27 -9 61q274 0 283 -2q10 0 23 -4v48q-6 -1 -37 -5q-18 0 -30 -2
h-242q-9 94 -10 133q0 36 7 50q3 7 12 15q-31 0 -65 4q3 -36 5 -49l5 -92q3 -28 5 -61h-219v123q87 12 95 13l61 4q-18 21 -23 30q-6 9 -13 20q-36 -13 -99 -25q-43 -6 -93 -12q-45 -3 -78 -5q-39 3 -67 3q18 -25 25 -45l153 10v-116zM718 497q-3 -1 -6 -4q25 -25 53 -62
q28 -36 45 -63q22 21 33 28q-6 9 -15 20q-28 33 -80 102q-1 -1 -10 -8q-10 -6 -20 -13zM350 645l-243 1q-15 0 -31 5v-47q21 6 67 6h207q-3 -72 -5 -88h49q-4 19 -5 44l-1 44h250l-1 -46q-3 -24 -2 -23q0 -4 -2 -14h49q-4 19 -5 39l-1 44l210 -1q27 0 39 -4l2 -1v47
q-7 -1 -58 -6h-193q0 90 3 100q0 3 10 24h-56l2 -13l3 -111h-250q0 69 2 76q0 6 4 26q1 6 7 15h-56q0 -6 2 -11q0 -36 3 -72v-34z" />
  </g>

</svg>
