<?xml version="1.0" standalone="no"?>
<!DOCTYPE svg PUBLIC "-//W3C//DTD SVG 1.1//EN" "http://www.w3.org/Graphics/SVG/1.1/DTD/svg11.dtd" >
<svg xmlns="http://www.w3.org/2000/svg" xmlns:xlink="http://www.w3.org/1999/xlink" version="1.1" viewBox="-10 0 1010 1000">
   <path fill="currentColor"
d="M589 -13q79 -1 99 9q-23 17 -21 82h158q62 0 123 -10v91q-56 -10 -123 -10h-156q0 24 8 64h-90q8 -32 8 -64h-194q0 14 4 55q2 11 2 15h-86q7 -25 6 -70h-144q-75 1 -131 10v-91q73 9 133 10h140v-15q1 -50 -4 -75q38 -2 71 -1q31 1 27 5q-21 22 -20 86h198
q-2 -72 -8 -91zM825 203q55 73 52 83q-2 2 -21 -1q-25 -4 -35 -3q-5 0 -17 1q-156 13 -296 21q14 26 38 69q18 31 25 44l-81 28q-17 -57 -57 -113l61 -28q-88 10 -210 10q13 30 34 67q15 26 23 42l-71 34h349q39 -40 91 -157q82 30 100 46q-30 13 -87 80q-19 21 -29 33h82
q38 0 91 -10v83q-55 -4 -300 103h250q86 -1 135 -12v94q-71 -9 -127 -10h-267v115q2 52 -33 69q-35 20 -130 20q-1 -52 -38 -103q125 38 119 -22v-81h-291q-54 0 -82 2q-32 1 -57 6v-90q52 9 139 10h291v-43q132 -32 201 -64h-417q-66 1 -129 10v-89q62 9 129 10
q-13 -54 -54 -115l70 -28q-26 -1 -78 1q-31 1 -45 1q-7 -51 -32 -83q70 8 159 10q90 2 193 -3q253 -12 352 -37z" />
</svg>
