<?xml version="1.0" standalone="no"?>
<!DOCTYPE svg PUBLIC "-//W3C//DTD SVG 1.1//EN" "http://www.w3.org/Graphics/SVG/1.1/DTD/svg11.dtd" >
<svg xmlns="http://www.w3.org/2000/svg" xmlns:xlink="http://www.w3.org/1999/xlink" version="1.1" viewBox="-10 0 1010 1000">
   <path fill="currentColor"
d="M306 -13q96 0 99 7q1 3 -5 9q-17 18 -17 53v30h236v-24q0 -52 -8 -75h13q87 -4 84 1q-18 20 -18 68v30h78q137 0 172 -8v83q-33 -7 -168 -8h-82q1 50 8 84h-85q6 -33 6 -84h-236q0 54 8 76h-87q8 -24 8 -76h-114q-121 0 -144 6v-81q23 5 142 8h116v-26q0 -41 -6 -73z
M526 177q13 52 24 85h105q93 -1 137 -8q-8 33 -8 100v142q0 81 8 116q-48 -9 -123 -10h-177q29 58 99 121q65 -60 113 -110q57 30 92 54q-71 34 -151 91q62 23 146 35q80 11 142 5q-51 58 -66 105q-361 -52 -454 -301h-141v168q27 -16 92 -54q29 -18 45 -27q0 62 6 95
q-129 59 -223 125q-29 -45 -53 -81q2 -3 13 -12q40 -33 40 -58v-406q0 -48 -9 -98q29 7 121 8h160q0 -9 -29 -69zM272 326v71h432v-71h-432zM272 461v77h432v-77h-432z" />
</svg>
