<?xml version="1.0" standalone="no"?>
<!DOCTYPE svg PUBLIC "-//W3C//DTD SVG 1.1//EN" "http://www.w3.org/Graphics/SVG/1.1/DTD/svg11.dtd" >
<svg xmlns="http://www.w3.org/2000/svg" xmlns:xlink="http://www.w3.org/1999/xlink" version="1.1" viewBox="-10 0 1010 1000">
   <path fill="currentColor"
d="M589 -12q50 0 80 6q18 4 7 24t-11 32v44h164q41 0 60 -1q23 -2 42 -7v83q-27 -9 -98 -8h-168v76q97 0 147 -10q-2 14 -3 36q-1 17 -1 63v139q0 70 4 103q-70 -6 -102 -6h-172q-3 38 -12 63h307q69 0 102 -8v80q-23 -7 -84 -6h-18h-260q90 112 360 123q-38 45 -58 91
q-275 -49 -371 -212q-42 149 -387 212q-23 -47 -63 -85q303 -7 371 -129h-252q-72 0 -110 8v-82q41 8 110 8h277q4 -16 9 -44q2 -12 3 -19h-174h-11q-58 -1 -87 4q0 -2 1 -10q7 -40 7 -91v-143q0 -47 -6 -93q36 9 112 9h43v-77h-157q-86 -1 -121 8v-83q40 8 119 8h157v-36
q0 -31 -2 -55v-9q38 1 84 8q10 2 2 20q-10 21 -10 36v36h174v-38q0 -35 -3 -61q-1 -5 -1 -7zM595 161h-176v77h176v-77zM272 294v75h462v-75h-462zM274 429v69h460v-69h-460z" />
</svg>
