<?xml version="1.0" standalone="no"?>
<!DOCTYPE svg PUBLIC "-//W3C//DTD SVG 1.1//EN" "http://www.w3.org/Graphics/SVG/1.1/DTD/svg11.dtd" >
<svg xmlns="http://www.w3.org/2000/svg" xmlns:xlink="http://www.w3.org/1999/xlink" version="1.1" viewBox="-10 0 1034 1024">
  <g transform="matrix(1 0 0 -1 0 820)">
   <path fill="currentColor"
d="M54 11q18 -28 29 -57q27 13 58 24l109 31l191 47q0 30 5 51q-12 -6 -36 -14l-77 -22q-18 -4 -49 -11v251q106 0 122 -3q3 0 9 -2v46q-6 0 -13 -3q-12 0 -51 -2h-67v99q0 36 14 68h-57q6 -42 6 -81v-86h-91q-40 0 -64 5v-46q15 3 30 4l125 1v-262q-64 -18 -116 -29
q-43 -9 -75 -9h-2zM292 -120q25 -19 52 -41q106 69 160 121q90 82 136 225q43 -108 103 -179q55 -67 182 -157q21 24 53 45q-57 10 -128 63q-91 73 -139 162q-12 21 -30 67l-28 77q9 43 24 61q-33 0 -65 6q1 -24 3 -36q0 -51 -17 -113q-21 -84 -84 -157q-64 -72 -156 -123
q-31 -15 -66 -21zM427 199q21 34 44 68q0 3 9 15l43 76h330q-36 -85 -68 -132q18 -1 28 -3q6 -1 22 -4q12 31 50 111q22 48 37 69q-30 -1 -61 -5h-322q9 24 18 45q3 10 17 37q18 36 38 49q-31 9 -61 25q-9 -49 -28 -92q-15 -40 -39 -87q-24 -45 -49 -85q-36 -57 -81 -87
q27 -6 58 -22q7 12 15 22zM354 624h-225q-42 0 -65 5v-46q15 3 31 4l259 1q0 -72 -3 -103l-2 -8h48q0 4 -2 10q-1 12 -3 53v48h248q-3 -93 -5 -106h48q-1 3 -1 5q0 1 -4 55v46q252 0 268 -3q4 0 9 -2v46q-6 -1 -12 -3q-13 0 -52 -2h-213v57q0 39 13 67h-56q1 -33 5 -67v-57
h-248v56q0 36 13 67h-56q1 -33 5 -67v-56z" />
  </g>

</svg>
