<?xml version="1.0" standalone="no"?>
<!DOCTYPE svg PUBLIC "-//W3C//DTD SVG 1.1//EN" "http://www.w3.org/Graphics/SVG/1.1/DTD/svg11.dtd" >
<svg xmlns="http://www.w3.org/2000/svg" xmlns:xlink="http://www.w3.org/1999/xlink" version="1.1" viewBox="-10 0 1034 1024">
  <g transform="matrix(1 0 0 -1 0 820)">
   <path fill="currentColor"
d="M358 648l-266 3q-18 3 -26 3v-47q31 3 38 4l254 1v-34q0 -48 -5 -68h49l-4 40l-1 62h236v-34q0 -48 -5 -68h49l-4 40l-1 62l258 -4q3 0 7 -1v47q-4 0 -8 -1l-26 -4l-231 -1v56q0 13 3 30q1 18 12 32h-59q4 -54 5 -88v-30h-236v58q0 12 3 29q1 19 13 32h-60q4 -49 5 -76
v-43zM136 295q-21 0 -47 3q-9 0 -17 3v-47q24 3 38 4l95 1v-248q-78 -37 -133 -103q24 -19 44 -41q15 40 33 61q37 39 71 40q18 0 52 -17l79 -41q36 -18 77 -32q45 -13 94 -18q61 -3 156 -4l258 3q3 24 8 36q4 9 10 21q-66 -10 -141 -16q-76 -3 -148 -4q-127 0 -195 15
q-36 9 -67 23q-42 18 -112 53q-37 21 -48 24l1 234q1 27 5 56q-60 -6 -82 -6h-31zM155 517q45 -45 73 -77q22 -25 43 -59q18 16 39 34l-51 59q-18 19 -31 35q-15 18 -40 40q-30 -30 -33 -32zM610 114l-247 1q-33 4 -53 5v-47q31 3 37 4l263 1v-70q0 -45 -5 -68h49
q-4 54 -5 110v28q238 0 249 -3q6 0 12 -2v47q-4 0 -8 -2q-15 0 -60 -4h-193v117l179 -1l41 -4v47q-18 -1 -35 -5l-185 -1v40q0 13 3 30q1 16 13 31h-60q4 -49 5 -74v-27h-167q21 24 43 60l36 56q9 15 20 30l362 -2q3 -1 14 -4v48q-4 0 -8 -2q-12 0 -43 -5q-7 1 -16 0h-292
q7 12 14 23q7 9 17 25q15 21 33 31q-30 12 -56 29q-16 -52 -51 -108l-163 3q-3 0 -10 1q-6 3 -13 3v-48q36 6 57 6h111q-9 -12 -16 -25q-42 -66 -63 -89q-21 -22 -56 -33q9 -15 15 -37q1 -4 3 -9q27 9 33 9q15 1 108 2h88v-117z" />
  </g>

</svg>
