<?xml version="1.0" standalone="no"?>
<!DOCTYPE svg PUBLIC "-//W3C//DTD SVG 1.1//EN" "http://www.w3.org/Graphics/SVG/1.1/DTD/svg11.dtd" >
<svg xmlns="http://www.w3.org/2000/svg" xmlns:xlink="http://www.w3.org/1999/xlink" version="1.1" viewBox="-10 0 1034 1024">
  <g transform="matrix(1 0 0 -1 0 820)">
   <path fill="currentColor"
d="M321 408q51 45 73 59q-22 16 -40 37q-42 -55 -85 -89q-21 22 -35 35q-24 19 -56 51q-12 -21 -38 -42q45 -18 96 -72q-58 -42 -99 -68q-36 -19 -62 -27q18 -15 31 -30q3 -4 6 -9q33 21 64 43l85 60q30 -42 48 -95q-54 -60 -113 -110q-66 -51 -125 -75q24 -13 44 -36
q60 42 110 83q43 37 95 94q10 -48 11 -103q0 -147 -55 -192q-27 -24 -89 -24q-33 0 -69 10q16 -27 26 -58q60 3 94 11q81 18 107 83q27 63 27 166q0 97 -32 187q-15 37 -46 87zM351 648l-219 1q-6 1 -36 2q-9 1 -17 3v-47q31 3 38 4l234 1v-31q0 -45 -5 -68h49q-4 54 -5 99
h252v-31q0 -45 -5 -68h49q-4 54 -5 99l237 -1l36 -4v47q-12 -1 -23 -4q-22 0 -45 -2h-205v64q0 12 3 30q1 18 13 31h-60q4 -49 5 -74v-51h-252v65q0 12 3 30q1 18 12 32h-59l5 -101v-26zM920 -139q6 -6 13 -12q28 30 52 44q-96 36 -174 120q-102 111 -141 237l251 -3
q1 1 5 -2q3 0 7 -1v48q-9 0 -16 -3q-10 0 -51 -4h-204q3 69 3 99q0 51 4 71q3 18 12 36q-19 -3 -30 -3q-9 0 -28 3q3 -27 3 -77q0 -66 -3 -129l-169 1q-19 4 -47 5q-3 0 -7 1v-48q19 4 34 5l186 1q-28 -177 -168 -304q-57 -48 -121 -67q30 -18 51 -37q93 66 149 129
q87 102 118 222q34 -73 55 -106q58 -100 158 -179zM802 355l37 -31q10 19 29 35q-27 27 -39 35l-90 70q-12 -16 -23 -30q-3 -3 -6 -7q48 -30 57 -40z" />
  </g>

</svg>
