<?xml version="1.0" standalone="no"?>
<!DOCTYPE svg PUBLIC "-//W3C//DTD SVG 1.1//EN" "http://www.w3.org/Graphics/SVG/1.1/DTD/svg11.dtd" >
<svg xmlns="http://www.w3.org/2000/svg" xmlns:xlink="http://www.w3.org/1999/xlink" version="1.1" viewBox="-10 0 1010 1000">
   <path fill="currentColor"
d="M325 -17q96 -3 100 7q-13 21 -16 39q-4 15 -4 53h186q0 -69 -6 -97q100 -1 94 5q-10 20 -12 35q-3 11 -4 55h145q71 -1 121 -10v91q-49 -9 -117 -10h-143q0 29 6 68h-88q6 -33 6 -66h-188q0 3 1 11q2 16 7 53h-88q8 -29 8 -64h-172q-49 0 -101 8v-89q55 8 105 10h166
q0 -41 -1 -60q-1 -22 -5 -39zM192 227q59 8 88 8h430q45 0 90 -8q-5 38 -6 75v77q0 15 4 54q1 18 2 26q-68 -6 -88 -6h-176q-1 5 -2 17q0 6 -6 48h248q36 0 99 -8q-8 52 -8 84v252q4 56 -153 67q-6 -50 -37 -101q110 22 107 -16v-214h-272l-8 22q30 17 141 73q69 35 85 44
l-61 69q-101 -79 -193 -135q-61 94 -184 167q-24 -41 -74 -72q158 -33 217 -168h-227v198q1 65 10 119h-99q9 -41 10 -117v-188q-1 -50 -8 -84q50 7 83 8h248q1 -6 3 -24q3 -25 5 -41h-182q-49 1 -86 6q5 -28 6 -72v-87q-1 -35 -6 -73zM278 298v91h440v-91h-440z" />
</svg>
