<?xml version="1.0" standalone="no"?>
<!DOCTYPE svg PUBLIC "-//W3C//DTD SVG 1.1//EN" "http://www.w3.org/Graphics/SVG/1.1/DTD/svg11.dtd" >
<svg xmlns="http://www.w3.org/2000/svg" xmlns:xlink="http://www.w3.org/1999/xlink" version="1.1" viewBox="-10 0 1010 1000">
   <path fill="currentColor"
d="M619 6h33q76 -1 72 4q0 1 -2 5q-16 31 -16 102h109q36 0 101 -6q6 -1 9 -1v87q-51 -9 -112 -8h-107q0 45 1 61q1 20 3 32h-89q4 -39 4 -93h-260q0 42 1 59q1 21 3 34h-85q4 -33 4 -93h-96q-73 -1 -127 8v-87q47 7 122 7h101q0 -64 -6 -109q43 -2 76 -1q30 1 31 5
q1 2 -3 9q-21 34 -21 96h260q0 -44 -1 -60q-1 -20 -5 -51zM464 203q3 1 10 2q93 18 89 26q0 2 -5 5q-10 6 -14 12q151 169 414 203q-35 35 -63 95q-96 -35 -161 -69v57q-14 -5 -109 -4h-8h-226h-1q-81 -1 -120 6v-48q-57 40 -167 98q-25 -48 -69 -82q300 -80 430 -301z
M496 302q-80 84 -169 149q22 8 70 8h222q39 0 62 -6q-106 -72 -185 -151zM706 550q7 3 19 9q88 41 81 47q0 2 -4 5q-43 35 -127 193h107q73 0 123 -8v91q-44 -8 -123 -8h-566q-85 0 -127 8v-91q71 8 127 8h371q63 -105 119 -254zM526 550q23 97 37 194l-93 8
q-8 -123 -28 -192zM310 568q45 108 65 188l-87 16q-17 -93 -62 -186z" />
</svg>
