<?xml version="1.0" standalone="no"?>
<!DOCTYPE svg PUBLIC "-//W3C//DTD SVG 1.1//EN" "http://www.w3.org/Graphics/SVG/1.1/DTD/svg11.dtd" >
<svg xmlns="http://www.w3.org/2000/svg" xmlns:xlink="http://www.w3.org/1999/xlink" version="1.1" viewBox="-10 0 1010 1000">
   <path fill="currentColor"
d="M296 -10q83 2 107 10q2 2 -4 9q-14 16 -14 33v46h222v-18q0 -39 -4 -78q81 2 105 16q1 2 -4 9q-15 26 -14 53v18h114q74 -1 121 -12v91q-65 -11 -119 -12h-116q0 61 4 95q-42 -6 -91 0q0 -5 1 -15q3 -41 3 -80h-222q0 50 1 67q1 22 3 30q-43 -6 -91 0q3 -11 3 -31
q1 -15 1 -66h-133q-68 0 -100 8v-83q37 8 100 8h133q0 -21 -4 -76q-2 -19 -2 -22zM444 197q93 -7 112 10q1 2 -4 11q-18 39 -18 78h180q82 -1 153 -8v83q-84 -11 -151 -11h-180v160h210q102 0 183 -10v82q-79 -7 -171 -8h-153q129 155 351 168q-49 41 -81 95q-3 5 -4 7
q-267 -105 -323 -270h-10v184q1 101 8 139h-102q10 -35 10 -143v-178h-8q-75 135 -317 281q-41 -48 -99 -75q157 -24 343 -206h-141q-115 0 -169 8v-82q87 10 169 10h220v-162h-204q-99 0 -131 7v-79q38 8 135 8h198q0 -45 -6 -99zM694 373q41 11 98 40q-54 31 -102 97
q-51 -25 -85 -27q56 -37 89 -110zM302 387q52 60 67 90l-91 37q-8 -35 -64 -95z" />
</svg>
