<?xml version="1.0" standalone="no"?>
<!DOCTYPE svg PUBLIC "-//W3C//DTD SVG 1.1//EN" "http://www.w3.org/Graphics/SVG/1.1/DTD/svg11.dtd" >
<svg xmlns="http://www.w3.org/2000/svg" xmlns:xlink="http://www.w3.org/1999/xlink" version="1.1" viewBox="-10 0 1034 1024">
  <g transform="matrix(1 0 0 -1 0 820)">
   <path fill="currentColor"
d="M971 310q-51 0 -144 35q-91 33 -173 85q-61 39 -121 95q15 6 31 11q-27 18 -53 43q-13 -27 -40 -57q-60 -66 -106 -100q-99 -78 -193 -120q-72 -31 -129 -32q22 -21 44 -52q139 60 225 119q45 30 78 56q33 27 78 70q18 16 38 36q81 -78 197 -141q88 -48 242 -98
q9 15 17 26q7 9 22 24h-13zM213 -104q-42 0 -65 5v-46q6 3 24 4l687 1q42 0 51 -3q9 0 13 -2v46q-6 0 -12 -3q-12 0 -52 -2h-229q60 114 102 187q27 51 39 67q7 10 37 32q-33 15 -56 34q-9 -28 -22 -55q-15 -30 -42 -81l-62 -114q-21 -39 -42 -70h-371zM243 188
q85 -124 114 -226q16 12 42 22l-51 100l-67 124q-15 -9 -30 -17q-4 -1 -8 -3zM309 265l63 5l344 -1q12 -1 27 -4v46q-7 -1 -13 -3q-12 0 -51 -2h-304q-40 0 -66 5v-46zM337 647h-195q-46 0 -65 6v-47q19 4 44 5h216l-3 -103q0 -3 -2 -7h48q-1 3 -5 48v62h274q0 -75 -3 -104
l-2 -8h48q-3 15 -4 39l-1 73l241 -1l28 -4v47q-6 -1 -12 -4q-12 0 -52 -2h-205v51q0 36 14 67h-57l5 -111v-7h-274v45q0 36 13 67h-56q1 -33 5 -67v-45zM571 52l-59 125l-26 53q-18 -9 -41 -16q21 -34 32 -56q10 -21 24 -49q30 -69 42 -114q21 13 45 21q-9 18 -17 36v0z" />
  </g>

</svg>
