<?xml version="1.0" standalone="no"?>
<!DOCTYPE svg PUBLIC "-//W3C//DTD SVG 1.1//EN" "http://www.w3.org/Graphics/SVG/1.1/DTD/svg11.dtd" >
<svg xmlns="http://www.w3.org/2000/svg" xmlns:xlink="http://www.w3.org/1999/xlink" version="1.1" viewBox="-10 0 1010 1000">
   <path fill="currentColor"
d="M595 -23q94 1 103 10q0 1 -4 7q-17 24 -17 52v28h109q77 0 138 -7q11 -1 13 -1v87q-38 -7 -147 -8h-113q3 17 6 51q3 31 5 42h-97q12 -46 12 -93h-210q0 71 8 99h-97q8 -51 8 -99h-127q-74 2 -122 8v-87q3 0 14 1q52 7 108 7h128v-26q0 -26 -7 -63q110 4 109 11
q0 4 -9 20q-13 26 -13 36v22h210v-26q0 -36 -7 -66q-1 -4 -1 -5zM780 179q29 35 57 85l-77 34q-20 -48 -56 -81zM456 187q108 22 111 30q0 3 -9 10q-19 12 -32 29q-13 19 -33 54q1 -3 -3 4h304q75 0 131 -8v87q-48 -8 -127 -8h-143q125 115 317 109q-34 43 -55 102
q-121 -35 -219 -88q-14 16 -15 107h71q74 0 119 -7v89q-32 -8 -113 -8h-77v91q0 94 7 115h-97q5 -18 8 -54q3 -33 2 -61v-91h-186q-29 158 -244 230q-23 -47 -86 -79q187 -15 248 -151h-95q-71 0 -111 8v-89q55 8 117 9h101q3 -45 0 -132q98 3 99 9q0 2 -2 5q-8 11 -11 39
q-3 22 -8 61q-1 11 -2 18h180v-13q1 -59 -8 -112q8 -2 44 -1q30 1 46 3q-56 -38 -102 -109h-131q-159 157 -353 225q-12 -37 -63 -80q175 -20 307 -145h-168q-74 1 -102 8v-87q54 8 114 8h212q26 -41 57 -127z" />
</svg>
