<?xml version="1.0" standalone="no"?>
<!DOCTYPE svg PUBLIC "-//W3C//DTD SVG 1.1//EN" "http://www.w3.org/Graphics/SVG/1.1/DTD/svg11.dtd" >
<svg xmlns="http://www.w3.org/2000/svg" xmlns:xlink="http://www.w3.org/1999/xlink" version="1.1" viewBox="-10 0 1034 1024">
  <g transform="matrix(1 0 0 -1 0 820)">
   <path fill="currentColor"
d="M488 330l-392 1q-9 0 -24 5v-44q21 6 67 6l779 -1q27 0 39 -4l2 -1v44q-7 -3 -12 -3q-24 -1 -55 -3h-366v69l257 -1q33 0 44 -4l2 -1v43q-7 -3 -13 -3q-21 0 -54 -3h-236v70q303 0 318 -3q3 0 18 -2v42q-66 -6 -86 -6h-250q0 36 3 42q3 13 9 20q1 3 3 6h-58l4 -34l1 -34
l-297 1l-24 3q-6 1 -14 2v-42q12 1 26 3l131 2h178v-70l-240 1l-18 2q-3 0 -13 3v-43q18 6 67 6h204v-69zM241 237q6 -66 6 -84q-3 -300 -6 -319h49q-3 7 -4 27q-1 9 -2 117h478v-66q0 -16 -11 -25q-15 -7 -38 -8q-19 0 -56 8q13 -27 18 -53q37 1 59 5q33 6 51 19
q15 13 15 52l1 279q0 21 4 48q-64 -4 -78 -5l-437 1q-19 3 -49 4zM284 124v75h478v-75h-478zM284 10v82h478v-82h-478zM334 688l-224 1q-15 0 -31 5v-47q21 6 67 6h188l-4 -75q-1 -1 -1 -6h49q-3 19 -4 42l-1 39h255q-3 -72 -5 -76h49q-6 25 -6 51v25l238 -1q24 0 36 -3
q1 0 5 -2v47q-9 -3 -63 -6h-216q0 49 3 56q3 13 10 26h-56l2 -13q0 1 2 -24l1 -45h-255q0 48 3 54q1 13 10 24h-57q0 -6 2 -11q0 -33 3 -67v0z" />
  </g>

</svg>
