<?xml version="1.0" standalone="no"?>
<!DOCTYPE svg PUBLIC "-//W3C//DTD SVG 1.1//EN" "http://www.w3.org/Graphics/SVG/1.1/DTD/svg11.dtd" >
<svg xmlns="http://www.w3.org/2000/svg" xmlns:xlink="http://www.w3.org/1999/xlink" version="1.1" viewBox="-10 0 1010 1000">
   <path fill="currentColor"
d="M605 -2q72 -1 99 8q0 2 -4 7q-13 19 -13 43v36h81q101 0 172 -8v85q-57 -6 -170 -6h-83q0 54 3 77h-85q6 -19 6 -75h-230q0 58 6 77h-89q6 -17 6 -77h-64q-140 1 -177 6v-85q59 8 177 8h64v-32q1 -44 -4 -62q93 4 97 12q1 2 -4 8q-14 19 -14 40v34h232v-40q0 -42 -6 -56z
M534 193q2 9 8 33q9 41 14 56h212q78 -1 145 -10q-9 68 0 155h-94q0 -5 2 -15q4 -34 4 -62h-652q-2 3 0 40q1 31 4 47h-92q8 -59 0 -163q48 8 135 8h254q-2 -22 -24 -71q-3 -7 -4 -10zM286 360q82 23 93 31q1 2 -8 9q-14 11 -20 19q-2 3 -5 7q-14 19 -17 27h92q64 0 91 -4
q-57 227 -113 291q-71 95 -262 159q-21 -48 -74 -87q178 -5 274 -115q-62 -44 -113 -70l50 -49q33 20 71 48q21 16 28 19q32 -57 48 -135h-127q-58 90 -151 179q-27 -35 -68 -54q142 -85 211 -275zM524 433q50 7 103 8h99q54 -1 101 -8q-5 47 -10 136q-5 68 -7 74
q-24 44 -123 55q-14 2 -20 3q-3 -44 -30 -89q56 13 85 0q18 -12 20 -104h-143v234q-3 55 36 60q48 9 105 6q51 -3 68 -16q38 -35 31 -105q53 38 96 44q0 2 -1 7q-16 89 -61 120q-39 24 -129 30q-92 4 -155 -15q-36 -9 -48 -31q-13 -22 -13 -74v-214q-1 -74 -4 -121z" />
</svg>
