<?xml version="1.0" standalone="no"?>
<!DOCTYPE svg PUBLIC "-//W3C//DTD SVG 1.1//EN" "http://www.w3.org/Graphics/SVG/1.1/DTD/svg11.dtd" >
<svg xmlns="http://www.w3.org/2000/svg" xmlns:xlink="http://www.w3.org/1999/xlink" version="1.1" viewBox="-10 0 1010 1000">
   <path fill="currentColor"
d="M323 -2q87 2 96 12q-18 43 -20 92h184q0 -58 -6 -100q77 2 98 12q-18 42 -16 88h158q70 -1 123 -8v85q-67 -10 -121 -10h-162q1 49 6 69l15 3q22 4 18 7q-18 16 -17 72h105q68 -1 127 -8v83q-71 -8 -123 -8h-111v195l103 -4v-72q-3 -55 -8 -75q87 5 99 14q-15 43 -14 117
q1 97 10 139h-89q-3 -1 0 -26q1 -22 2 -36l-103 6v103q-1 46 16 58q17 14 75 14q60 1 76 -18q21 -19 23 -83q53 44 91 47q-27 85 -60 110q-16 12 -38 16q-17 4 -68 3h-66q-77 1 -97 -16q-25 -17 -24 -75v-157q-135 7 -184 18q7 -52 8 -103q0 -91 -6 -133q53 3 89 12
q-6 19 -9 99q-2 34 -3 52l105 -4v-201h-61q-26 0 -102 5q-16 1 -23 1q-19 6 -68 65q-81 97 -149 148q66 -4 189 -32q-8 33 -8 77q-138 9 -286 40q1 -51 -14 -87q35 12 169 -127q-59 6 -167 25l-18 -83q62 8 149 -218q70 27 90 41q0 4 -10 10q-17 10 -22 20q-45 75 -113 157
q23 -2 62 -5q41 -3 65 -5q24 -36 53 -85q42 18 78 41v-63q53 7 121 8h63q0 -50 -4 -66h-22q-1 1 1 -10q4 -38 5 -75h-186q1 62 8 89h-86q9 -38 10 -91h-154q-69 0 -121 8v-85q76 7 117 8h158q0 -61 -6 -100zM417 711q-12 41 -8 83q-36 8 -111 23q-177 35 -225 50
q-4 -50 -23 -101q151 5 367 -55z" />
</svg>
