<?xml version="1.0" standalone="no"?>
<!DOCTYPE svg PUBLIC "-//W3C//DTD SVG 1.1//EN" "http://www.w3.org/Graphics/SVG/1.1/DTD/svg11.dtd" >
<svg xmlns="http://www.w3.org/2000/svg" xmlns:xlink="http://www.w3.org/1999/xlink" version="1.1" viewBox="-10 0 1034 1024">
  <g transform="matrix(1 0 0 -1 0 820)">
   <path fill="currentColor"
d="M379 -23l26 6q1 28 9 53q-25 -12 -41 -18q-33 -10 -104 -29q-135 -33 -165 -33q-10 0 -20 1q3 -15 7 -27q3 -13 5 -33q18 9 69 24l171 45q21 6 43 11zM156 320q42 55 87 126q27 40 37 50q12 12 35 23q-36 19 -56 38q-6 -18 -22 -45q-18 -36 -46 -78q-27 -42 -49 -72
q-25 -30 -51 -40q13 -36 16 -55q18 7 27 9l120 12q-48 -63 -92 -107q-31 -30 -63 -34q9 -27 16 -57q15 6 66 12l200 18q0 15 16 51q-37 -12 -89 -19q-49 -6 -82 -8q-24 -3 -46 -3q42 45 67 75q21 25 46 58q45 63 64 78q15 15 50 30q-15 9 -57 41q-4 -24 -67 -98zM662 438
q0 48 3 55q3 13 10 26h-56q0 -6 2 -11q0 -34 3 -70l-195 5v-46q18 4 67 5h128v-259l-131 -2l1 168q0 9 6 29q1 6 6 14h-55l4 -34v-171q-3 -15 -4 -48l48 4q6 0 10 1l115 4v-164q0 -54 43 -74q28 -12 101 -12q42 0 70 4q63 9 92 62q13 30 27 78q-18 6 -44 28q-4 -48 -13 -69
q-12 -37 -46 -54q-22 -9 -88 -9q-58 0 -79 8q-24 12 -25 57v146l149 4q-1 -34 -4 -46h47q-3 63 -4 97q0 157 3 167q0 7 5 15q1 4 6 9h-58q0 -6 3 -13l2 -144v-48l-149 -4v256l239 -3q4 0 12 -2v46q-13 -3 -27 -3q-19 -1 -40 -2h-184zM348 663h-205q-19 0 -55 3q-6 0 -14 3
v-47q21 6 67 6h207q-3 -84 -5 -96h49q-4 24 -5 44l-1 52h230l-1 -53l-1 -2q0 -9 -2 -21q0 -9 -2 -14h49q-6 54 -6 61v29l252 -1q19 -1 41 -5v47q-9 -3 -13 -3q-27 -1 -54 -3h-226q0 61 2 72l4 20l8 17h-57q6 -48 6 -71v-38h-230q0 81 3 85q0 6 2 9l8 17h-56q0 -18 5 -48
q-1 -6 0 -13v-50z" />
  </g>

</svg>
