<?xml version="1.0" standalone="no"?>
<!DOCTYPE svg PUBLIC "-//W3C//DTD SVG 1.1//EN" "http://www.w3.org/Graphics/SVG/1.1/DTD/svg11.dtd" >
<svg xmlns="http://www.w3.org/2000/svg" xmlns:xlink="http://www.w3.org/1999/xlink" version="1.1" viewBox="-10 0 1034 1024">
  <g transform="matrix(1 0 0 -1 0 820)">
   <path fill="currentColor"
d="M114 171q54 21 94 41q36 19 79 48q79 55 164 154h159q57 -82 149 -147q88 -60 174 -88q12 21 44 48q-172 3 -320 187l274 -4l2 -1q3 0 7 -1v48q-4 0 -8 -1q-12 0 -26 -3q-33 -3 -86 -3h-345q25 39 39 54q19 24 39 33q-31 13 -63 31q-16 -58 -64 -118l-298 1q-15 3 -40 4
q-3 1 -14 2v-48q18 3 38 5l287 1q-81 -96 -189 -157q-76 -42 -155 -50q21 -24 32 -48zM343 668l-196 1q-24 4 -52 5v-46q39 3 63 4h185v-44q0 -51 -6 -68h49q0 7 -2 16q-3 51 -3 76v20h253v-41q0 -43 -5 -68h49q0 7 -2 16q-3 51 -3 77v16l253 -4v46q-15 -1 -65 -6h-188v43
q0 13 3 30q1 18 12 31h-59q4 -49 5 -75v-29h-253v38q0 12 3 29q1 18 12 32h-59q3 -9 3 -16q1 -24 3 -36v-47zM391 144l-190 1q-6 1 -10 1q-18 1 -36 3q-4 1 -7 1v-47q31 3 38 4l199 1q-9 -39 -25 -70q-24 -46 -50 -75q-43 -46 -75 -67q-31 -21 -70 -30q22 -15 44 -38
q73 46 129 108q61 75 88 172h207v-191q0 -46 -6 -67h50q0 7 -2 15q-1 25 -3 52v191l202 -4q3 0 7 -1v47q-4 0 -8 -1q-34 -1 -69 -5h-132v89q0 13 3 30q1 18 12 32h-60q3 -9 3 -17q1 -25 3 -45v-89h-203q3 36 4 89q0 33 18 58q-15 0 -27 -1q-12 0 -34 3q3 -67 4 -89
q-3 -31 -4 -60zM756 548q-9 9 -27 25q-13 -15 -29 -28q43 -31 77 -82q15 16 31 30q-15 19 -22 25z" />
  </g>

</svg>
