<?xml version="1.0" standalone="no"?>
<!DOCTYPE svg PUBLIC "-//W3C//DTD SVG 1.1//EN" "http://www.w3.org/Graphics/SVG/1.1/DTD/svg11.dtd" >
<svg xmlns="http://www.w3.org/2000/svg" xmlns:xlink="http://www.w3.org/1999/xlink" version="1.1" viewBox="-10 0 1010 1000">
   <path fill="currentColor"
d="M292 -21q84 0 95 8q2 2 -1 6q-13 17 -13 47v34h246v-46q0 -27 -6 -47q55 0 70 1q20 1 25 5q2 3 -2 9q-10 16 -10 42v36h92q84 0 154 -8v89q-37 -10 -148 -10h-96q-3 38 6 74h-95q10 -36 10 -74h-244q0 44 8 70h-95q6 -25 6 -70h-88q-106 -1 -164 8v-89q44 9 166 10h86
v-42q0 -11 -1 -30q-1 -16 -1 -23zM530 173q10 28 16 79h196q122 0 181 -8q-4 18 -5 41q-1 18 -1 63q0 52 6 79h-96q6 -30 6 -107h-686q0 61 6 103h-95q7 -29 7 -93q0 -63 -5 -86q49 8 158 8h240q2 -31 -20 -73zM198 367q97 10 223 10h113q127 0 220 -8q-8 30 -8 108
q0 84 6 111q-48 -9 -153 -8h-315v61h331q108 0 167 -8q-8 33 -8 121v26l10 133h-101q5 -20 5 -61h-404q0 41 8 65h-100q12 -65 12 -167v-240q0 -123 -6 -143zM284 441v75h381v-75h-381zM284 705v83h406v-83h-406z" />
</svg>
