<?xml version="1.0" standalone="no"?>
<!DOCTYPE svg PUBLIC "-//W3C//DTD SVG 1.1//EN" "http://www.w3.org/Graphics/SVG/1.1/DTD/svg11.dtd" >
<svg xmlns="http://www.w3.org/2000/svg" xmlns:xlink="http://www.w3.org/1999/xlink" version="1.1" viewBox="-10 0 1034 1024">
  <g transform="matrix(1 0 0 -1 0 820)">
   <path fill="currentColor"
d="M396 147v-207q0 -18 -11 -29q-13 -9 -43 -9q-19 0 -57 6q12 -22 21 -53q48 6 69 11q60 13 60 64v516q0 12 3 34q0 15 2 33q-36 -1 -71 -5l-151 1q-19 3 -50 4l6 -68l-1 -284q-4 -45 -16 -95q-21 -87 -60 -139q-18 -24 -55 -47q30 -7 63 -22q42 70 69 133q22 63 36 156
h186zM213 183v130h183v-130h-183zM213 349v124h183v-124h-183zM531 517l6 -65l-1 -577q-1 -9 -2 -20q0 -6 -3 -13h50q-6 18 -6 68v296h258q-28 -97 -81 -168q-27 22 -54 62q-28 39 -39 61q-4 -1 -11 -6q-10 -7 -20 -15l-9 -6q33 -39 68 -84q15 -18 39 -44q-25 -27 -66 -59
q-42 -27 -81 -39q39 -25 48 -35q70 51 129 105q73 -55 173 -111q15 22 40 48q-36 4 -92 31q-42 21 -96 63q66 94 100 214l6 24l-80 -6h-232v235h265l-3 -30q-4 -66 -25 -85q-18 -16 -58 -17q-21 0 -64 8q15 -25 21 -56q117 6 144 48q13 19 20 93q0 21 10 80q-34 -1 -70 -5
l-234 1q-19 3 -50 4zM356 661l-252 1l-18 2q-3 0 -14 3v-47q21 6 67 6h217q-3 -57 -5 -75h49q-6 18 -6 69v6h237q-3 -70 -5 -74h48q-6 66 -5 74l248 -1q27 0 39 -4l2 -1v47q-9 -3 -27 -4t-40 -2h-222q0 72 3 82q0 9 7 20q0 1 3 4h-56q1 -30 5 -61v-45h-237q0 67 3 77
q0 3 10 24h-56l4 -34z" />
  </g>

</svg>
