<?xml version="1.0" standalone="no"?>
<!DOCTYPE svg PUBLIC "-//W3C//DTD SVG 1.1//EN" "http://www.w3.org/Graphics/SVG/1.1/DTD/svg11.dtd" >
<svg xmlns="http://www.w3.org/2000/svg" xmlns:xlink="http://www.w3.org/1999/xlink" version="1.1" viewBox="-10 0 1010 1000">
   <path fill="currentColor"
d="M331 -10q76 -1 98 10q1 3 -6 10q-18 24 -18 50v30h174v-24q0 -34 -6 -76q87 -2 100 10q1 2 -5 11q-17 27 -17 53v26h174q76 -1 125 -10v81q-36 -7 -117 -8h-182q0 46 4 76h-80q2 -11 3 -27q1 -13 1 -49h-172q-1 57 4 72h-80q3 -31 4 -72h-158q-85 0 -121 8v-81
q50 9 123 10h156v-36q0 -34 -4 -64zM141 240q34 11 99 12h502q76 -1 115 -6q-3 40 -4 84v450q0 96 8 125h-91q6 -19 6 -67h-554q0 44 6 71h-91q8 -33 8 -127v-458q0 -40 -4 -84zM220 316v458h558v-458h-558zM669 348q46 52 49 73q-1 4 -26 0q-36 -6 -55 -4q-23 0 -103 6v64
h85q57 0 103 -7q7 -1 8 -1v75q-41 -9 -107 -8h-89v117q0 55 8 83h-86q0 -3 2 -11q8 -32 8 -66v-81q-27 31 -135 126q-15 14 -23 21q-28 -38 -64 -54q104 -41 200 -135h-81q-76 0 -97 6v-73q1 0 7 1q43 7 86 7h107v-58q-27 2 -84 6q-45 2 -69 4q-2 -29 -33 -66q83 10 204 3
q120 -8 185 -28zM599 568q94 59 137 103l-61 54q-40 -59 -129 -115z" />
</svg>
