<?xml version="1.0" standalone="no"?>
<!DOCTYPE svg PUBLIC "-//W3C//DTD SVG 1.1//EN" "http://www.w3.org/Graphics/SVG/1.1/DTD/svg11.dtd" >
<svg xmlns="http://www.w3.org/2000/svg" xmlns:xlink="http://www.w3.org/1999/xlink" version="1.1" viewBox="-10 0 1034 1024">
  <g transform="matrix(1 0 0 -1 0 820)">
   <path fill="currentColor"
d="M349 674l-255 1q-36 4 -39 5v-47q39 4 59 5h235v-28q0 -45 -5 -68h49q0 7 -2 15q-3 54 -3 81h242v-24q0 -48 -5 -68h49q-3 33 -5 65v27l256 -1l41 -4v47q-18 -1 -35 -5l-262 -1q0 72 3 75q3 15 12 26h-59q4 -49 5 -74v-27h-242v37q0 13 3 30q1 18 12 31h-59q4 -49 5 -75
v-23zM495 261l-200 1q-33 4 -53 5v-47q24 3 38 4l183 1q-22 -33 -73 -80q-78 -66 -151 -87q15 -7 28 -23q4 -6 11 -12q138 75 217 181v-146q0 -43 -6 -68h50q0 7 -2 16q-3 51 -3 78v101q28 -16 93 -67l54 -45q18 -18 41 -47l13 20q6 7 17 20q-90 75 -205 159l198 -1
q24 0 36 -4v47q-6 0 -9 -2q-4 0 -8 -1l-147 -3h-83v101q63 9 107 18q27 6 43 7q15 1 33 1q-24 24 -40 46q-37 -15 -92 -28q-94 -16 -187 -17q-34 0 -99 7q9 -13 14 -28q3 -7 7 -17l109 3l66 2v-95zM148 -165h48q-3 72 -4 77h644l-4 -70h48q-4 36 -5 75l1 544q0 21 4 50
q-36 -1 -72 -5l-605 1q-19 3 -55 4q1 -34 5 -70l-3 -592q-1 -3 -1 -6q-1 -3 -1 -8zM192 -52v522h644v-522h-644z" />
  </g>

</svg>
