<?xml version="1.0" standalone="no"?>
<!DOCTYPE svg PUBLIC "-//W3C//DTD SVG 1.1//EN" "http://www.w3.org/Graphics/SVG/1.1/DTD/svg11.dtd" >
<svg xmlns="http://www.w3.org/2000/svg" xmlns:xlink="http://www.w3.org/1999/xlink" version="1.1" viewBox="-10 0 1010 1000">
   <path fill="currentColor"
d="M331 -17q86 0 94 5q2 2 -2 9q-10 19 -10 43v46h184v-44q0 -46 -6 -55h37q64 -2 64 5q2 2 -3 12q-12 23 -12 44v38h105q88 0 158 -8v89q-32 -10 -154 -10h-109q1 61 10 91h-98q10 -26 10 -91h-186q0 62 10 85h-98q8 -45 8 -85h-91q-141 0 -176 9q-4 1 -6 1v-91
q47 9 184 10h89v-54q0 -5 -1 -20q-1 -20 -1 -29zM179 213q79 60 131 107v-50q72 8 176 8h276q123 0 176 -10v90q-38 -6 -117 -6v474q22 65 -174 87q-9 -66 -38 -115q131 27 127 -24v-424h-252q-130 0 -174 6v-22l-70 53q-54 -69 -129 -121zM107 375q93 60 159 108l-66 67
q-71 -68 -152 -113zM353 423q42 6 113 6h56q87 0 129 -6q-2 12 -3 41q-1 14 -1 34v58v59q0 101 10 131h-95q5 -25 5 -51h-134q0 42 7 63h-91q10 -47 10 -148v-74q0 -65 -5 -103q-1 -7 -1 -10zM431 492v139h136v-139h-136zM183 572l73 51q-5 12 -21 50q-41 97 -60 151
q-13 33 -19 64q-3 11 -5 13l-95 -53q0 -2 7 -13q68 -97 120 -263z" />
</svg>
