<?xml version="1.0" standalone="no"?>
<!DOCTYPE svg PUBLIC "-//W3C//DTD SVG 1.1//EN" "http://www.w3.org/Graphics/SVG/1.1/DTD/svg11.dtd" >
<svg xmlns="http://www.w3.org/2000/svg" xmlns:xlink="http://www.w3.org/1999/xlink" version="1.1" viewBox="-10 0 1010 1000">
   <path fill="currentColor"
d="M599 -4q93 4 97 10q0 1 -3 5q-12 17 -12 37v56h105q70 0 98 -1q34 -1 60 -5v85q-60 -8 -168 -8h-95q-3 54 4 87h-86q8 -38 8 -85h-192l6 97h-86q4 -24 4 -97h-121q-97 1 -156 10v-91q62 9 160 10h117v-52q0 -18 -4 -40q-1 -9 -2 -14q90 4 98 10q1 1 -3 8q-13 19 -13 36
v52h190v-52q0 -27 -6 -58zM210 244q5 0 16 1q89 7 87 13q1 1 -2 7q-13 24 -13 53v47q88 0 129 -3v77q-65 -8 -131 -8v306q1 106 8 162h-94q10 -86 10 -162v-185l-3 6q-67 144 -112 204q-42 -39 -73 -51q109 -104 182 -282q-108 -1 -145 6v-73q43 4 153 5v-53q0 -29 -11 -66
q-1 -3 -1 -4zM762 272q49 194 204 268q-40 26 -75 75q-154 -142 -203 -331q9 -2 28 -4q28 -4 46 -8zM544 276q89 30 87 38q0 3 -7 10q-15 19 -27 39q-91 168 -129 221q-32 -32 -71 -48q107 -93 147 -260zM627 459q86 32 93 47q0 1 -6 4q-23 13 -35 34q-5 8 -19 33
q-87 157 -132 201q22 -4 140 -15q61 -6 86 -9q-21 -43 -67 -105l75 -24q69 99 143 235l-90 33q-11 -36 -31 -75q-267 24 -344 51q-8 -50 -29 -85q34 4 73 -51q81 -117 143 -274zM302 526l63 -28q4 7 11 20q50 85 70 123l-77 36q-15 -49 -67 -151z" />
</svg>
