<?xml version="1.0" standalone="no"?>
<!DOCTYPE svg PUBLIC "-//W3C//DTD SVG 1.1//EN" "http://www.w3.org/Graphics/SVG/1.1/DTD/svg11.dtd" >
<svg xmlns="http://www.w3.org/2000/svg" xmlns:xlink="http://www.w3.org/1999/xlink" version="1.1" viewBox="-10 0 1034 1024">
  <g transform="matrix(1 0 0 -1 0 820)">
   <path fill="currentColor"
d="M489 225l-390 2q-15 1 -29 4v-47q31 3 38 4l340 1q-25 -36 -53 -62q-57 -55 -99 -88q-120 -82 -221 -105q21 -12 45 -44q57 25 102 53q46 27 94 63q100 75 173 171v-263q0 -45 -5 -67h50q0 6 -3 15q-3 51 -3 70v246q54 -57 91 -90q36 -30 88 -65q54 -33 101 -60
q48 -24 112 -49q15 25 42 46q-36 6 -84 23q-123 46 -201 110q-67 54 -106 96q384 -3 390 -5v47q-7 0 -16 -3q-18 -3 -76 -3h-341q0 42 10 65q0 1 1 2h-54q3 -24 4 -48v-19zM351 665h-218q-21 0 -47 3q-7 0 -17 3v-47q24 3 38 4l244 1v-20q0 -42 -5 -67h49q-4 34 -5 66v21
h250v-18q0 -45 -6 -67h50q0 7 -2 15q-3 51 -3 70l258 -1q6 0 26 -4v47q-18 -1 -35 -5l-249 -1v47q0 12 3 31q1 18 12 31h-60q3 -12 6 -59v-50h-250v43q0 12 3 31q1 18 12 31h-59q4 -49 5 -85v-20zM217 462l153 5l117 6q54 3 108 9l127 16q87 9 107 10q9 0 26 -2
q-27 37 -35 54q-25 -9 -53 -15q-27 -6 -72 -13l-114 -15q-45 -4 -88 -7l-249 -7q-36 3 -83 11q12 -15 15 -26q3 -6 9 -27q15 1 32 1zM329 274l13 -13q12 19 30 35l-55 55q-22 21 -65 56q-7 -9 -29 -31q45 -39 65 -58q15 -15 41 -44zM460 408q28 -33 48 -58q12 -16 36 -55
q18 16 35 25l-48 68q-13 18 -38 46q-15 -12 -33 -26zM651 284q16 -6 41 -24l107 125q10 10 34 21q-24 15 -54 38q-16 -34 -52 -82q-28 -37 -76 -78v0z" />
  </g>

</svg>
