<?xml version="1.0" standalone="no"?>
<!DOCTYPE svg PUBLIC "-//W3C//DTD SVG 1.1//EN" "http://www.w3.org/Graphics/SVG/1.1/DTD/svg11.dtd" >
<svg xmlns="http://www.w3.org/2000/svg" xmlns:xlink="http://www.w3.org/1999/xlink" version="1.1" viewBox="-10 0 1034 1024">
  <g transform="matrix(1 0 0 -1 0 820)">
   <path fill="currentColor"
d="M476 144q-49 -117 -174 -183q-49 -25 -98 -40q-45 -12 -117 -20q21 -24 37 -53q63 16 115 37q48 21 94 47q129 78 189 212h45v-203q0 -28 8 -43q12 -30 64 -40q21 -3 63 -4l61 -1q54 0 85 5q57 7 78 46q6 9 18 46q3 9 7 22q-19 9 -48 35q-3 -39 -6 -56q-9 -42 -44 -51
q-33 -6 -93 -7l-84 2q-42 3 -56 13q-15 9 -15 44v192h161q12 0 35 -2q16 -1 36 -3q-4 60 -5 119l5 108q-36 -1 -71 -5h-154q42 40 105 109l33 31q-40 -1 -82 -5h-247q19 19 47 38q3 0 5 2q9 6 44 13q-33 19 -59 45q-15 -21 -35 -43q-27 -25 -73 -61q-40 -30 -81 -54
q-60 -33 -143 -51q22 -21 41 -44q112 55 212 119h272q-19 -27 -96 -99l-272 1q-15 3 -49 4q1 -33 5 -68q0 -85 -2 -116q-3 -6 -3 -43q54 4 79 5h163zM515 326q-3 -49 -25 -146h-214v146h239zM531 180q6 28 13 71l13 75h236v-146h-262zM832 11l-120 106q-9 -15 -15 -20
l-14 -14q33 -24 58 -47q19 -15 60 -58q6 7 15 17q3 1 6 4q4 6 10 12zM347 663h-204q-30 0 -54 3q-6 0 -14 3v-47q21 6 67 6h205q-1 -40 -3 -82q0 -6 -2 -14h49q-4 19 -5 39l-1 57h250q0 -60 -3 -81q0 -12 -2 -18h48q-6 66 -5 88v11l224 -1q28 0 38 -4l2 -1v47q-7 -1 -58 -6
h-206q0 66 3 72q3 13 10 26h-56q1 -30 5 -61v-37h-250q0 63 3 71q0 3 10 24h-56q0 -9 2 -13q0 -40 3 -82v0z" />
  </g>

</svg>
