<?xml version="1.0" standalone="no"?>
<!DOCTYPE svg PUBLIC "-//W3C//DTD SVG 1.1//EN" "http://www.w3.org/Graphics/SVG/1.1/DTD/svg11.dtd" >
<svg xmlns="http://www.w3.org/2000/svg" xmlns:xlink="http://www.w3.org/1999/xlink" version="1.1" viewBox="-10 0 1010 1000">
   <path fill="currentColor"
d="M577 -10q94 0 94 10q1 2 -3 8q-14 22 -15 64v28h127q113 0 157 -8v89q-33 -9 -161 -10h-125q1 1 2 18q3 48 8 59h-88q7 -30 8 -77h-174q-1 62 6 73h-86q8 -32 8 -73h-143q0 1 -32 2q-89 3 -104 8v-87q20 6 138 6h139v-18q0 -10 -2 -48q-1 -26 -2 -42h25q71 -2 71 6
q1 2 -3 7q-18 24 -17 63v32h176v-28q0 -52 -4 -82zM196 264q37 7 179 8h258q106 -1 147 -8v99q-111 22 -244 80v63q4 3 13 9t13 9q85 -46 130 -107q6 5 17 15q50 44 47 47q0 2 -10 6q-24 8 -42 19q-9 5 -60 39q-19 12 -29 19q31 20 75 49q46 31 60 38l-63 60
q-56 -60 -151 -137v117q2 67 -131 69q-10 -47 -34 -79q93 26 91 -32v-153q-1 -56 -6 -89q96 -36 213 -71h-300q-130 1 -173 8v-78zM343 405l36 36q34 33 44 44l-62 43q-44 -63 -75 -87zM770 419q95 -6 105 6q0 3 -4 9q-17 28 -18 78v258q-1 119 8 141h-95q7 -23 8 -63h-502
q-108 1 -139 8q5 -32 6 -121v-207l-4 -101q91 -6 99 8q1 3 -3 11q-14 35 -11 88v244h554v-250q0 -12 -2 -40q-2 -42 -2 -69zM429 526q2 10 5 27q5 26 8 33q-90 45 -150 97q-18 -28 -54 -58q115 -53 191 -99z" />
</svg>
