<?xml version="1.0" standalone="no"?>
<!DOCTYPE svg PUBLIC "-//W3C//DTD SVG 1.1//EN" "http://www.w3.org/Graphics/SVG/1.1/DTD/svg11.dtd" >
<svg xmlns="http://www.w3.org/2000/svg" xmlns:xlink="http://www.w3.org/1999/xlink" version="1.1" viewBox="-10 0 1034 1024">
  <g transform="matrix(1 0 0 -1 0 820)">
   <path fill="currentColor"
d="M842 -80q-1 -18 -1 -36q0 -25 -4 -37h49q-6 48 -6 69l1 405l4 26l8 17h-56q0 -6 2 -11q0 -24 3 -50v-349l-658 -39v388q0 12 2 29q3 16 12 32h-56q0 -6 2 -11q0 -36 3 -74l-1 -361q-3 -12 -4 -46q36 6 79 9zM242 71q15 -13 20 -21q3 -3 5 -8q18 18 48 36q169 109 178 112
q6 4 12 6v-134q0 -33 -44 -33q-21 0 -59 7l20 -52q78 9 99 22q21 12 22 53v143q18 -10 36 -23q15 -9 49 -35q33 -22 61 -45l79 -68l25 38q-13 13 -134 104q-9 7 -18 13q24 31 46 62q30 39 43 51q12 10 41 20q-37 30 -52 49q-9 -22 -23 -44q-16 -25 -55 -77q-12 -18 -32 -38
q-34 22 -66 42v79q102 66 181 131l56 47q-39 -1 -78 -5l-412 1q-9 1 -16 2q-3 0 -13 2v-46q18 6 67 6h346q-43 -36 -93 -69q-54 -36 -81 -46q1 -31 5 -64v-46l-156 -99q-78 -45 -120 -57zM278 316q51 -39 91 -75q12 -12 26 -24q9 15 28 33l-134 113q-13 -18 -28 -31z
M365 664l-264 1q-9 1 -17 2q-3 0 -14 3v-47q21 6 67 6h228q-3 -78 -5 -94h50q-4 9 -7 47v47h240q0 -45 -3 -73q0 -10 -2 -15h49q0 1 -1 5q-3 6 -4 34l-1 49q240 0 250 -2q9 -1 21 -4v47q-6 -1 -59 -6h-212q0 75 3 80q3 15 10 26h-56q1 -30 5 -61v-45h-240q0 67 3 77
q0 7 5 15q1 4 6 9h-57l4 -34z" />
  </g>

</svg>
