<?xml version="1.0" standalone="no"?>
<!DOCTYPE svg PUBLIC "-//W3C//DTD SVG 1.1//EN" "http://www.w3.org/Graphics/SVG/1.1/DTD/svg11.dtd" >
<svg xmlns="http://www.w3.org/2000/svg" xmlns:xlink="http://www.w3.org/1999/xlink" version="1.1" viewBox="-10 0 1010 1000">
   <path fill="currentColor"
d="M601 -17q96 7 103 13q1 2 -3 7q-14 20 -14 59v20h144q75 0 107 -10v87q-41 -8 -103 -8h-148q0 40 7 87h-91q0 -2 1 -5q7 -42 7 -82h-220q0 17 4 52q3 23 4 34h-91q7 -41 7 -86h-148q-61 0 -104 8v-85q24 9 99 8h13h140v-14q0 -49 -7 -81q96 5 101 13q1 2 -3 7
q-15 22 -15 59v16h220v-18q0 -58 -10 -81zM534 183l28 85h198q79 0 127 -8v84q-40 -6 -129 -6h-518h-43q-63 -1 -90 4v-82q61 8 133 8h240q-3 -8 -18 -37l-16 -32zM617 344q8 2 23 6q78 18 76 23q1 2 -5 6q-35 19 -62 80h188q71 0 105 -6v85q-5 -1 -15 -2q-43 -8 -88 -8
h-682q-55 0 -103 8v-87q32 10 105 10h186q-14 -31 -55 -90l79 -25l66 87l-72 28h195l21 -42q23 -47 38 -73zM192 586q30 5 64 6q33 2 93 2h298q105 0 155 -8q-12 31 -12 117v75q0 62 9 119q1 7 1 10h-98q6 -42 6 -73h-426q-1 46 8 75h-98q9 -53 8 -141v-55q0 -81 -8 -127z
M282 663v101h426v-101h-426z" />
</svg>
