<?xml version="1.0" standalone="no"?>
<!DOCTYPE svg PUBLIC "-//W3C//DTD SVG 1.1//EN" "http://www.w3.org/Graphics/SVG/1.1/DTD/svg11.dtd" >
<svg xmlns="http://www.w3.org/2000/svg" xmlns:xlink="http://www.w3.org/1999/xlink" version="1.1" viewBox="-10 0 1034 1024">
  <g transform="matrix(1 0 0 -1 0 820)">
   <path fill="currentColor"
d="M358 644l-245 1q-10 1 -22 2q-6 3 -14 3v-46q31 3 38 4l243 1v-20q0 -45 -6 -67h50q-4 52 -5 66v21h232v-16q0 -42 -5 -67h49l-5 66v17q279 -3 285 -5v46q-4 0 -8 -1q-13 -1 -27 -4l-250 -1v50q0 13 3 30q1 18 12 31h-59q4 -49 5 -74v-37h-232v46q0 13 3 30q1 18 13 31
h-61q3 -9 3 -16q1 -25 3 -45v-46zM394 60l-301 3q-9 3 -14 3v-47q12 3 19 3q21 0 45 2h251v-120q0 -48 -6 -66h50q-3 33 -5 66l1 551q0 12 5 23q1 10 9 18h-60q3 -12 3 -16q1 -25 3 -45v-34l-236 1q-33 4 -53 5v-46q22 4 64 5h225v-125l-206 1q-6 1 -36 2q-6 0 -9 3
q-3 0 -7 1v-48q25 6 63 6h195v-146zM583 503q4 -45 5 -62l-1 -572q-1 -16 -4 -29h49q-4 54 -5 82v106h259q25 0 53 -2q1 0 16 -2v46q-51 -6 -104 -6h-224v146l255 -3q1 0 3 -1v46q-48 -6 -68 -7h-190v125l244 -1q28 0 42 -4v47q-4 0 -8 -3q-15 0 -60 -4h-218v36q0 15 3 30
q1 18 12 32h-59z" />
  </g>

</svg>
