<?xml version="1.0" standalone="no"?>
<!DOCTYPE svg PUBLIC "-//W3C//DTD SVG 1.1//EN" "http://www.w3.org/Graphics/SVG/1.1/DTD/svg11.dtd" >
<svg xmlns="http://www.w3.org/2000/svg" xmlns:xlink="http://www.w3.org/1999/xlink" version="1.1" viewBox="-10 0 1010 1000">
   <path fill="currentColor"
d="M591 -13q100 0 96 7q-13 25 -12 84h135q31 0 123 -12v87q-25 -10 -121 -10h-135q1 38 8 64h-92q6 -30 6 -64h-212q-3 29 6 66h-87q6 -30 6 -66h-116q-83 1 -127 10v-85q46 9 121 10h122q0 -40 -1 -57q-1 -20 -5 -34q99 1 97 11q-20 35 -20 80h216q1 -54 -8 -91zM450 175
q79 -2 94 6q-17 28 -16 57h206q69 0 125 -9v85q-47 -6 -70 -8q-25 -2 -53 -2h-208v75h266q71 0 135 -10v86q-79 -10 -129 -10h-119q172 85 226 115l-62 73q-22 -21 -76 -54l-15 -9q-72 115 -165 194q145 51 344 38q-43 54 -56 105q-204 -20 -357 -97q-133 70 -385 101
q-15 -49 -54 -89q195 11 373 -56q-47 -38 -93 -119q-54 54 -115 103q-33 -29 -79 -51q174 -87 268 -234q45 13 91 35q-34 18 -78 66h193q40 0 91 -8q-54 -34 -123 -64l44 -49h-341q3 2 7 5q32 22 52 42q-63 36 -159 93q-71 43 -83 48q-15 -27 -62 -57q148 -55 225 -131h-92
q-73 0 -123 10v-86q45 10 123 10h256v-73h-184q-52 0 -117 8v-81q39 6 113 7h190q-3 -33 -8 -65zM433 631q16 43 85 98q41 -21 101 -98h-186z" />
</svg>
