<?xml version="1.0" standalone="no"?>
<!DOCTYPE svg PUBLIC "-//W3C//DTD SVG 1.1//EN" "http://www.w3.org/Graphics/SVG/1.1/DTD/svg11.dtd" >
<svg xmlns="http://www.w3.org/2000/svg" xmlns:xlink="http://www.w3.org/1999/xlink" version="1.1" viewBox="-10 0 1010 1000">
   <path fill="currentColor"
d="M321 -10q83 -2 104 8q2 2 -5 16q-17 34 -17 54v40h190v-46q-3 -31 -10 -68q102 0 107 6q0 3 -6 14q-17 29 -17 54v40h152q68 -1 125 -12v83q-46 -8 -119 -8h-158q3 53 6 73h-88q8 -31 8 -73h-190q-2 36 4 71h-84q4 -35 4 -71h-156q-17 2 -53 4q-47 4 -62 6v-83
q32 10 117 10h154v-44q0 -32 -6 -74zM349 260q84 -2 103 8q2 3 -6 19q-13 28 -13 43v448q0 93 7 125h-95q8 -45 8 -129v-26h-163q-94 1 -128 8v-83q54 8 128 8h163v-117h-127q-74 0 -107 8v-84q41 8 103 8h131v-95h-147q-65 1 -109 8v-83q39 7 109 8h147q0 -49 -4 -74z
M552 260q94 -3 107 6q1 3 -5 12q-18 25 -17 52h119q90 0 145 -10v85q-48 -8 -141 -8h-123v103h103q85 0 135 -8v84q-45 -8 -131 -8h-107v115h159q105 0 144 -8v83q-23 -4 -71 -7q-42 -2 -71 -1h-159v36q0 101 8 123h-97q5 -21 6 -51q1 -15 2 -34v-48v-442q0 -27 -6 -74z" />
</svg>
