<?xml version="1.0" standalone="no"?>
<!DOCTYPE svg PUBLIC "-//W3C//DTD SVG 1.1//EN" "http://www.w3.org/Graphics/SVG/1.1/DTD/svg11.dtd" >
<svg xmlns="http://www.w3.org/2000/svg" xmlns:xlink="http://www.w3.org/1999/xlink" version="1.1" viewBox="-10 0 1010 1000">
   <path fill="currentColor"
d="M593 -4h32q62 -1 60 4q1 2 -3 11q-11 23 -11 45v44h93q116 -1 178 -10v93q-53 -9 -180 -10h-91q-1 34 4 48h-86q1 -5 2 -15q2 -22 2 -31h-178q-2 22 3 58q1 3 1 4h-84q4 -30 4 -62h-91l-181 6v-87q31 8 181 8h91v-48q0 -39 -4 -56q96 0 98 10q1 2 -5 11q-13 23 -13 41v42
h180v-46q0 -44 -2 -60zM639 231q99 8 95 13q1 2 -9 11q-22 20 -21 29q81 126 250 163q-34 34 -53 91q-147 -73 -228 -196q-58 118 -161 222q-20 -30 -44 -40q-5 32 -13 129q-13 155 -22 173q-25 45 -149 57q-4 -51 -40 -93q89 13 111 -14q11 -18 21 -139q3 -41 5 -61h-119
q-20 201 -155 321q-32 -41 -79 -57q177 -83 166 -423q-74 1 -121 6v-83q33 5 119 6h84q-15 -43 -48 -88l85 -20q17 35 42 108q94 -1 145 -8v83q-63 -6 -149 -6h-81q0 25 -4 95h109q63 0 67 -8q137 -83 197 -271zM615 516q68 22 214 96l-53 77q-81 -66 -207 -109zM554 685
q131 49 299 143l-57 71q-104 -75 -288 -151z" />
</svg>
