<?xml version="1.0" standalone="no"?>
<!DOCTYPE svg PUBLIC "-//W3C//DTD SVG 1.1//EN" "http://www.w3.org/Graphics/SVG/1.1/DTD/svg11.dtd" >
<svg xmlns="http://www.w3.org/2000/svg" xmlns:xlink="http://www.w3.org/1999/xlink" version="1.1" viewBox="-10 0 1010 1000">
   <path fill="currentColor"
d="M333 -12q87 0 94 6q1 1 -3 8q-13 19 -13 36v44h184v-44q0 -26 -6 -44q35 -3 66 -3q28 1 30 5q1 2 -4 9q-12 18 -12 37v40h105q90 -1 161 -10v85q-54 -7 -167 -8h-101q0 35 5 43l1 1q91 -4 91 6q2 3 -6 13q-14 17 -14 30v30q76 0 161 -10v80q-65 -6 -161 -6v313
q123 2 196 -8v86q-77 -7 -196 -8h-518q-123 2 -172 10v-90q56 11 170 12h36v-315q-107 1 -159 6v-78q68 7 159 8q-1 -49 -6 -75q17 1 56 7q16 2 25 3q2 -16 2 -58h-107q-125 1 -170 8v-87q68 10 174 12h103v-50q0 -24 -4 -44zM413 149l4 78l-72 -2q-9 6 -8 47h330
q0 -42 -4 -55h-76q6 -18 6 -68h-180zM337 336v69h330v-69h-330zM337 455v71h330v-71h-330zM337 576v75h330v-75h-330zM357 729q70 51 76 69q-1 2 -18 5q-42 8 -74 21q-48 20 -162 66q-32 13 -48 19q-29 -47 -73 -75q133 -24 299 -105zM619 735q183 48 306 95l-70 79
q-124 -67 -295 -111z" />
</svg>
