<?xml version="1.0" standalone="no"?>
<!DOCTYPE svg PUBLIC "-//W3C//DTD SVG 1.1//EN" "http://www.w3.org/Graphics/SVG/1.1/DTD/svg11.dtd" >
<svg xmlns="http://www.w3.org/2000/svg" xmlns:xlink="http://www.w3.org/1999/xlink" version="1.1" viewBox="-10 0 1034 1024">
  <g transform="matrix(1 0 0 -1 0 820)">
   <path fill="currentColor"
d="M605 28h-475q-48 0 -65 6v-47q10 3 60 5h480v-84q0 -27 -3 -51q0 -6 -2 -11h48q-1 3 -1 5q-1 3 -4 57v84l291 -1l35 -4v47q-10 -3 -22 -4q-21 0 -41 -2h-263v44q0 36 14 67h-57zM253 497q-31 3 -63 5q1 -30 5 -63l-1 -232q-3 -15 -4 -47q63 6 87 6h149q-40 -34 -78 -51
q-58 -25 -120 -26q-12 0 -32 2q16 -25 27 -49q55 12 90 21q27 7 53 20q57 27 112 83l299 -1q12 0 48 -5q-3 31 -5 63l1 234l4 45q-30 -1 -59 -5h-295q12 37 18 46q6 12 21 20q-30 9 -57 25q-6 -46 -18 -91h-182zM232 346v115h255l-1 -115h-254zM232 201v109h252
q-3 -60 -29 -109h-223zM497 201q16 39 25 109h260v-109h-285zM522 346l1 115h259v-115h-260zM356 648l-259 1l-36 5v-47q28 3 58 5h237l-4 -91q-1 0 -1 -2h48q0 6 -2 11q-3 24 -3 78v4h228q-3 -78 -5 -89h48q0 1 -1 5q-1 3 -4 48v36l270 -1l28 -4v47q-10 -3 -23 -4
q-21 0 -41 -2h-234v40q0 33 13 67h-56q0 -9 2 -14q3 -51 3 -93h-228v37q0 36 13 67h-56q1 -33 5 -67v-37z" />
  </g>

</svg>
