<?xml version="1.0" standalone="no"?>
<!DOCTYPE svg PUBLIC "-//W3C//DTD SVG 1.1//EN" "http://www.w3.org/Graphics/SVG/1.1/DTD/svg11.dtd" >
<svg xmlns="http://www.w3.org/2000/svg" xmlns:xlink="http://www.w3.org/1999/xlink" version="1.1" viewBox="-10 0 1010 1000">
   <path fill="currentColor"
d="M571 -23q54 1 90 10q17 4 2 25q-12 17 -12 26v40h198q66 1 103 -8v85q-47 -10 -99 -10h-200q-1 41 6 64h-90q9 -16 8 -64h-168q-1 38 6 58h-88q7 -16 6 -58h-170q-75 -1 -107 8v-83q34 9 103 8h174q0 -51 -2 -89v-8q40 -2 86 7q15 4 1 26q-9 15 -9 22v42h168
q1 -74 -6 -101zM232 169q47 16 76 32q14 8 -2 19q-15 10 -20 18h490q69 1 107 -9q-10 64 -10 142v113q1 228 -4 298q-5 87 -46 109q-34 24 -119 34q-7 -55 -37 -99q97 10 109 -18q16 -22 16 -307v-34v-163h-550q-44 55 -81 96q-27 28 -48 51l-81 -44q125 -75 200 -238z
M282 806q-65 0 -129 6q15 -123 8 -181q49 0 79 6q21 5 12 20q-10 19 -10 36v42h143v-133h-185q-68 -1 -101 8v-78q25 8 101 8h185v-93h-81l-64 75l-81 -35q78 -47 143 -167q40 7 75 22q10 4 -7 16q-22 16 -31 29h244q73 1 98 -8v78q-31 -9 -96 -8h-121v91h157q37 0 55 -1
q22 -2 44 -7v80q-23 -9 -97 -10h-159v133h137v-30q0 -17 -2 -57v-11q51 1 82 8q21 6 7 27q-11 18 -11 29v20q0 65 8 91q-30 -6 -96 -6h-307z" />
</svg>
