<?xml version="1.0" standalone="no"?>
<!DOCTYPE svg PUBLIC "-//W3C//DTD SVG 1.1//EN" "http://www.w3.org/Graphics/SVG/1.1/DTD/svg11.dtd" >
<svg xmlns="http://www.w3.org/2000/svg" xmlns:xlink="http://www.w3.org/1999/xlink" version="1.1" viewBox="-10 0 1034 1024">
  <g transform="matrix(1 0 0 -1 0 820)">
   <path fill="currentColor"
d="M471 211q-9 -6 -58 -61q-12 -9 -25 -21l-277 1q-9 1 -17 2q-3 0 -12 3v-44q19 4 64 5h205q-19 -21 -37 -37t-49 -43q138 -22 168 -29q18 -3 38 -8l45 -9q-37 -18 -74 -29q-67 -18 -128 -28q-63 -7 -106 -8q-12 0 -75 5q18 -21 27 -53q132 12 226 34q88 24 174 66
q36 -7 78 -19l88 -25q96 -30 148 -56q6 15 18 39l-149 47l-150 43q19 15 43 38l70 72l228 -3q3 0 11 -2v44q-7 -1 -62 -6h-446q36 33 60 59q10 9 25 23l230 -1l47 -4q-4 54 -5 83v34q63 0 130 -3q3 0 11 -3v43q-30 -1 -62 -5h-79q0 69 4 102q0 4 1 7q-33 -1 -66 -5h-208v67
l337 -3q3 0 10 -2v44q-9 -3 -62 -6h-285q0 9 2 30q1 18 12 33h-57q3 -18 4 -34l1 -29l-299 1q-12 0 -29 5v-44q18 4 66 5h262v-67h-222q-22 0 -53 3q-9 0 -14 2v-43q19 4 65 5h224v-71l-364 1q-34 3 -37 4v-43l46 6h355v-80q-262 0 -274 3l-12 2q-3 1 -5 1v-43q18 4 66 5
h209zM340 38l47 42q9 9 18 16h254q-60 -69 -110 -101q-31 7 -207 43h-2zM756 323v-80h-231v80h231zM756 426v-71h-231v71h231zM347 701l-237 1q-7 1 -16 2q-1 0 -8 2v-44q18 6 64 6h197q-1 -30 -3 -63q0 -6 -2 -13h49q-6 24 -6 43v33h248q-3 -70 -5 -74h47q-3 33 -5 72v2
l227 -1q27 0 40 -4l2 -1v44q-13 -3 -26 -3q-19 0 -39 -2h-204q1 36 5 73l8 17h-55q0 -9 2 -14q0 1 2 -24l1 -52h-248q0 55 3 65q1 12 10 24h-56l4 -34z" />
  </g>

</svg>
