<?xml version="1.0" standalone="no"?>
<!DOCTYPE svg PUBLIC "-//W3C//DTD SVG 1.1//EN" "http://www.w3.org/Graphics/SVG/1.1/DTD/svg11.dtd" >
<svg xmlns="http://www.w3.org/2000/svg" xmlns:xlink="http://www.w3.org/1999/xlink" version="1.1" viewBox="-10 0 1034 1024">
  <g transform="matrix(1 0 0 -1 0 820)">
   <path fill="currentColor"
d="M354 667l-253 1q-10 1 -23 2q-7 1 -16 3v-47q31 3 37 4l255 1v-32q0 -42 -5 -68h49l-5 65v35h247v-29q0 -46 -6 -67h50q-4 54 -5 83v13l286 -4q3 0 7 -1v47q-4 0 -8 -2q-4 0 -8 -1q-21 0 -51 -3h-226v42q0 13 3 30q1 18 12 31h-60q3 -9 3 -16q1 -25 3 -45v-42h-247v40
q0 13 3 30q1 18 12 32h-59q4 -49 5 -83v-19zM220 484q-36 3 -73 5q6 -66 6 -95l-1 -403q-1 -10 -2 -26q0 -6 -3 -18h49q-3 24 -4 40v33h187q-1 -21 -3 -45q-1 0 -1 -2h48q0 3 -1 7q0 9 -2 11l-2 175l1 274l4 49q-33 -1 -65 -5h-138zM192 56v193h187v-193h-187zM192 284v164
h187v-164h-187zM834 115v-169q0 -46 -62 -47q-12 0 -29 2q-24 3 -45 12q12 -30 18 -61q93 3 127 22q30 18 30 71l1 514l4 51q-60 -6 -63 -6l-249 1q-7 1 -45 5q6 -76 7 -143l-2 -143q-3 -79 -11 -128q-22 -121 -91 -185q-21 -18 -62 -38q33 -12 54 -33q114 111 143 275h275z
M562 151q0 60 5 140h267v-140h-272zM567 326v142h267v-142h-267z" />
  </g>

</svg>
