<?xml version="1.0" standalone="no"?>
<!DOCTYPE svg PUBLIC "-//W3C//DTD SVG 1.1//EN" "http://www.w3.org/Graphics/SVG/1.1/DTD/svg11.dtd" >
<svg xmlns="http://www.w3.org/2000/svg" xmlns:xlink="http://www.w3.org/1999/xlink" version="1.1" viewBox="-10 0 1034 1024">
  <g transform="matrix(1 0 0 -1 0 820)">
   <path fill="currentColor"
d="M237 -80q-3 -33 -3 -57q0 -3 -3 -13h49l-4 49q-1 13 -1 25l632 -1l41 -4v46q-30 -4 -67 -5h-303v123l220 -1q30 0 46 -4q1 0 4 -1v48q-9 -3 -20 -5q-22 0 -46 -2h-204v115q243 0 255 -2q6 0 9 -2q3 0 6 -1v47q-3 -1 -10 -3l-158 -3h-102v117l310 -3q4 0 11 -3v47
q-7 -3 -57 -6h-276q12 13 25 27q-9 9 -88 82q-9 9 -18 16q-4 -1 -10 -10q-6 -6 -11 -14q-3 -4 -8 -8q69 -54 100 -93h-268q4 9 11 17q19 36 34 49q12 16 33 21q-15 6 -59 33q-12 -39 -54 -103q-46 -69 -123 -142q-31 -27 -69 -41l48 -37q39 36 64 61q24 25 64 72v-431z
M540 118h-265v115h265v-115zM275 269v117h265v-117h-265zM540 -40h-265v123h265v-123zM360 639l-261 1q-9 1 -17 2q-3 0 -14 3v-47q21 6 67 6h225q-3 -69 -5 -86h49q-3 12 -6 64v22h241q-3 -82 -5 -88h49q-6 25 -6 51v37l238 -1q15 0 37 -3q1 0 4 -2v47q-6 -1 -60 -6h-219
q0 84 3 90q3 15 10 27h-56q4 -42 5 -77v-40h-241q0 81 3 84q0 9 6 18q1 4 5 9h-57l4 -34z" />
  </g>

</svg>
