<?xml version="1.0" standalone="no"?>
<!DOCTYPE svg PUBLIC "-//W3C//DTD SVG 1.1//EN" "http://www.w3.org/Graphics/SVG/1.1/DTD/svg11.dtd" >
<svg xmlns="http://www.w3.org/2000/svg" xmlns:xlink="http://www.w3.org/1999/xlink" version="1.1" viewBox="-10 0 1010 1000">
   <path fill="currentColor"
d="M613 -17q88 -2 101 9q1 2 -5 9q-22 24 -21 59v38h98q122 0 160 -6v81q-35 -8 -164 -8h-92q0 59 8 85h-87q6 -19 8 -85h-256q0 53 6 72l40 -46q16 7 46 19q46 18 43 23q0 4 -22 17q-36 23 -57 42h210q10 0 33 -1q104 -2 142 -11q-78 87 -165 165q-16 -10 -91 -28
q21 -15 63 -46q15 -11 22 -17h-282q-21 16 -57 45q-58 46 -80 60q128 -1 221 -28q60 77 53 79q-4 4 -18 1q-30 -4 -61 -1q-18 2 -62 6q-45 3 -75 6v95h59q108 -1 149 -7v83q-29 -7 -151 -8h-57v95h486v-97h-52q-123 1 -164 10v-85q32 7 158 7h58v-95h-70q-116 -1 -148 8v-81
q23 6 143 6h47q76 -1 115 -8q-8 39 -8 99v214q1 129 8 155h-95q7 -29 8 -65h-484q0 40 10 65h-99q6 -34 7 -135v-198q-1 -70 -7 -103q-43 32 -74 53q-17 -32 -67 -69q168 -61 315 -213h-75q8 -23 8 -83h-100q-112 3 -142 10v-87q28 9 144 10h96v-28q1 -63 -4 -82q95 -2 95 6
q0 2 -3 7q-17 21 -17 67v30h256v-40q-1 -12 -2 -33q-2 -33 -2 -42z" />
</svg>
