<?xml version="1.0" standalone="no"?>
<!DOCTYPE svg PUBLIC "-//W3C//DTD SVG 1.1//EN" "http://www.w3.org/Graphics/SVG/1.1/DTD/svg11.dtd" >
<svg xmlns="http://www.w3.org/2000/svg" xmlns:xlink="http://www.w3.org/1999/xlink" version="1.1" viewBox="-10 0 1034 1024">
  <g transform="matrix(1 0 0 -1 0 820)">
   <path fill="currentColor"
d="M563 459q70 -90 152 -148q99 -66 223 -118q12 21 44 51q-90 9 -192 66q-108 63 -177 149l275 -1q27 0 39 -4l2 -1v47q-33 -1 -66 -5h-383q6 15 21 33q13 18 35 25q-24 9 -60 31q0 -12 -12 -37q-16 -33 -29 -52l-321 1q-9 1 -16 2q-3 0 -13 2v-47q18 6 66 6h260
q-75 -115 -184 -188q-99 -66 -181 -74q22 -16 44 -47q90 42 177 104q48 34 96 83q42 45 97 122h103zM347 275q6 3 25 4q21 0 41 2l271 -3q3 0 11 -3v47q-7 -3 -12 -3q-28 -1 -54 -3l-239 1q-30 3 -33 3q-4 0 -10 2v-47zM116 -80q15 -10 45 -39q24 15 90 66l100 83
q15 10 40 17q-28 15 -57 39q-18 -31 -79 -87q-64 -57 -139 -79zM833 178q-6 -1 -60 -6l-518 1q-30 3 -38 5v-47q18 6 66 6h221v-214q0 -25 -19 -31q-18 -4 -57 -5q-21 0 -52 5q13 -33 16 -50q7 1 15 1l77 8q31 6 45 19q12 15 13 65v202q258 0 268 -2q15 0 23 -4v47zM657 59
q54 -40 114 -89q55 -48 97 -89q10 16 31 34q-15 15 -61 51l-73 60q-69 55 -79 65q-3 0 -12 -14q-3 -3 -6 -9q-6 -3 -11 -9zM350 666l-229 1q-9 1 -17 2q-3 0 -13 3v-47q18 6 66 6h193l-4 -92q-1 -1 -1 -5h49q0 1 -2 5q0 1 -4 60v32h242q-3 -93 -5 -97h48l-4 36l-1 61l220 -1
q27 0 39 -4l2 -1v47q-18 -6 -66 -6h-195q0 70 3 79q0 3 10 24h-56q0 -9 2 -13q0 1 2 -24l1 -66h-242q0 63 3 69q3 15 10 26h-56q0 -6 2 -11q0 -36 3 -75v-9z" />
  </g>

</svg>
