<?xml version="1.0" standalone="no"?>
<!DOCTYPE svg PUBLIC "-//W3C//DTD SVG 1.1//EN" "http://www.w3.org/Graphics/SVG/1.1/DTD/svg11.dtd" >
<svg xmlns="http://www.w3.org/2000/svg" xmlns:xlink="http://www.w3.org/1999/xlink" version="1.1" viewBox="-10 0 1010 1000">
   <path fill="currentColor"
d="M405 145v82h178v-82h-178zM317 425v83h346v-83h-346zM258 685v93h464v-93h-464zM171 621q40 3 121 4h406q68 0 112 -6q-4 36 -4 90v97q0 69 4 107h-90q4 -40 4 -75h-474q-1 51 4 69h-83q4 -51 4 -105v-93q0 -57 -4 -88zM230 362q6 0 18 1q55 2 95 2h298q38 0 93 -2
q11 -1 16 -1q-5 18 -4 77v49l4 84l-103 -4h-312q-61 -1 -107 6q7 -34 6 -84v-45q0 -57 -4 -83zM323 -12q40 -2 100 6q12 1 0 20q-12 17 -12 26q-3 21 -4 42h176q0 -63 -4 -92q39 -2 102 6q9 1 -2 18q-9 12 -10 18q-6 35 -6 50h170h65q24 -1 42 -2v69q-16 -2 -39 -3
q-12 -1 -26 -1h-40h-176v82h156q16 0 64 -5q22 -2 34 -3q-4 43 -4 95q0 59 4 95h-92q6 -33 6 -117h-664q0 59 1 80q1 25 3 37h-86q3 -42 6 -103q0 -48 -4 -83q36 3 107 4h141v-82h-154q-55 0 -76 1q-25 1 -39 3v-71q43 3 115 4h152q0 -43 -6 -94z" />
</svg>
