<?xml version="1.0" standalone="no"?>
<!DOCTYPE svg PUBLIC "-//W3C//DTD SVG 1.1//EN" "http://www.w3.org/Graphics/SVG/1.1/DTD/svg11.dtd" >
<svg xmlns="http://www.w3.org/2000/svg" xmlns:xlink="http://www.w3.org/1999/xlink" version="1.1" viewBox="-10 0 1010 1000">
   <path fill="currentColor"
d="M321 -4q84 1 100 8q1 2 -3 12q-17 38 -17 86h182q0 -54 -3 -93q-1 -10 -1 -13q99 -5 100 6q1 4 -6 20q-18 43 -18 80h117q80 -1 166 -8v83q-49 -7 -158 -8h-123v91h149q59 0 107 -8q-8 36 -8 66v18q-1 56 8 77h-100q5 -17 7 -68q1 -17 1 -25h-660q0 60 8 95h-92
q8 -29 8 -75v-22q0 -34 -8 -66q63 8 111 8h139v-91h-107q-95 1 -158 8v-83q33 5 66 7q16 0 35 1h51h111q0 -62 -4 -106zM585 169h-186v91h186v-91zM442 344q100 4 98 10q1 2 -5 11q-17 25 -17 46v26h165q7 0 21 -1q72 -3 90 -7q-10 33 -10 69v80q1 54 10 85q-42 -10 -78 -8
q115 110 189 195l-80 51q-30 -46 -59 -79q-588 23 -673 61l-30 -105q123 11 383 -4v-119h-178q-1 47 4 58h-87q0 -2 1 -7q6 -56 6 -91v-117q0 -43 -9 -69q44 8 111 8h152q0 -32 -4 -93zM446 496h-178v100h178v-100zM520 496v100h188v-100h-188zM520 655v115q12 -1 44 -2
q89 -5 152 -8q-30 -33 -63 -57l55 -48h-188z" />
</svg>
