<?xml version="1.0" standalone="no"?>
<!DOCTYPE svg PUBLIC "-//W3C//DTD SVG 1.1//EN" "http://www.w3.org/Graphics/SVG/1.1/DTD/svg11.dtd" >
<svg xmlns="http://www.w3.org/2000/svg" xmlns:xlink="http://www.w3.org/1999/xlink" version="1.1" viewBox="-10 0 1010 1000">
   <path fill="currentColor"
d="M312 -15q100 0 105 9q1 3 -4 8q-20 20 -20 60v24h200v-24q0 -31 -7 -68q-1 -4 -1 -6q103 -2 103 4q1 3 -4 9q-17 16 -17 49v36h166q57 0 77 -1q26 -2 44 -7v83q-27 -5 -49 -7q-17 -1 -70 -1h-168q-1 40 8 62h-90q9 -25 8 -62h-200q0 33 7 63q1 3 1 5h-88q9 -25 8 -68
h-162q-80 0 -109 8v-83q26 8 109 8h162v-22q0 -48 -9 -79zM694 223q2 2 5 17q5 31 13 58h84q51 0 99 -7q13 -2 20 -3v85q-21 -8 -115 -8h-52q53 19 83 40q1 2 -6 7q-34 26 -61 86h75q47 0 94 -8v84q-43 -8 -94 -8h-321q3 77 -3 123q-5 49 -22 86q-33 75 -130 134
q-45 -41 -93 -55q97 -39 133 -94q37 -50 37 -154q0 -44 -1 -65q-2 -26 -6 -51q45 8 95 8h155q41 -87 47 -133h-180q-74 0 -123 8v-81q20 4 46 5q12 1 28 1h45h91q-9 -28 -24 -53l-6 -12zM103 250q32 8 117 8h64q40 0 92 -6q15 -1 21 -2q-18 56 -55 154q-18 48 -25 67
q81 96 58 178q-28 80 -145 99q5 -48 -32 -101q85 16 99 -34q11 -53 -59 -130q7 -19 29 -77q20 -55 29 -80h-109v484q0 62 7 93h-91q9 -36 8 -93v-439q0 -55 -6 -103q-1 -12 -2 -18zM585 375q7 12 23 47q12 27 19 41l-81 27q-8 -42 -42 -89z" />
</svg>
