<?xml version="1.0" standalone="no"?>
<!DOCTYPE svg PUBLIC "-//W3C//DTD SVG 1.1//EN" "http://www.w3.org/Graphics/SVG/1.1/DTD/svg11.dtd" >
<svg xmlns="http://www.w3.org/2000/svg" xmlns:xlink="http://www.w3.org/1999/xlink" version="1.1" viewBox="-10 0 1034 1024">
  <g transform="matrix(1 0 0 -1 0 820)">
   <path fill="currentColor"
d="M366 659h-229q-21 0 -47 3q-6 0 -17 3v-47q33 4 64 5h229v-20q0 -45 -5 -67h50q0 6 -3 15q-3 51 -3 72h220v-12q0 -45 -5 -67h49l-5 64v15l258 -1q3 0 27 -4v47q-3 0 -7 -1l-2 -1q-3 0 -6 -1l-2 -1l-160 -2h-108v47q0 13 3 30q1 18 12 32h-59q4 -49 5 -84v-25h-220
q0 66 2 75q0 10 6 23q0 1 8 13h-60q4 -49 5 -74v-37zM125 -103q0 -46 -6 -68h50q0 7 -2 16q-1 25 -3 52v552h165l-40 -78q-15 -27 -62 -101q36 -33 60 -66q39 -54 39 -113q0 -36 -19 -63q-27 -31 -72 -32q-18 0 -44 10q16 -30 23 -58q58 9 93 27q58 34 59 117q0 55 -35 111
q-6 7 -53 74q15 30 60 104l63 109q-31 -1 -64 -5l-168 1q-19 3 -50 4l6 -67v-526zM488 220h393q25 0 52 -2q6 -1 16 -4v49q-7 0 -15 -3l-2 -1l-101 -2h-76q46 70 60 85q12 15 33 23q-39 24 -50 35q103 0 114 -3q3 0 8 -2v47q-18 -1 -35 -5l-192 -1q1 3 4 8q9 15 18 24
q-24 22 -122 87q-9 -18 -26 -34q40 -24 66 -43q19 -13 48 -42l-224 1q-36 4 -39 5v-47q12 0 19 2q21 0 44 3h312q-30 -64 -85 -143h-91q9 12 23 26q-28 43 -95 105l-29 -31l4 -5q3 -1 9 -8q36 -33 55 -57q9 -12 23 -31q-97 0 -118 2q-19 4 -48 5q6 -63 7 -96q0 -63 -12 -127
q-18 -78 -60 -131q-27 -31 -77 -55q34 -15 54 -31q30 28 50 53q46 60 66 139q18 88 19 177v28z" />
  </g>

</svg>
