<?xml version="1.0" standalone="no"?>
<!DOCTYPE svg PUBLIC "-//W3C//DTD SVG 1.1//EN" "http://www.w3.org/Graphics/SVG/1.1/DTD/svg11.dtd" >
<svg xmlns="http://www.w3.org/2000/svg" xmlns:xlink="http://www.w3.org/1999/xlink" version="1.1" viewBox="-10 0 1010 1000">
   <path fill="currentColor"
d="M607 -13q86 -3 97 5q1 2 -3 9q-16 31 -16 69h107q79 0 139 -14v79q-17 -3 -48 -5q-15 0 -35 -1h-50h-115q-2 24 4 58h-80q4 -23 4 -58h-224q-3 31 4 64h-79q3 -27 3 -64h-121q-79 0 -119 8v-75q57 7 119 8h123q0 -44 -4 -78q77 -6 94 4q1 4 -4 14q-16 28 -16 60h224
q0 -50 -4 -83zM450 161q103 10 98 16q1 3 -4 14q-9 20 -10 38h145q72 -1 134 -12q-7 36 -7 81v48h29q75 0 113 -8v77q-39 -8 -109 -8h-33v58q-1 51 6 65q-22 -7 -74 -6h-204v260q0 62 10 111h-98q12 -38 12 -105v-266h-156q-81 1 -117 8v-75q2 -1 16 1q49 7 103 7h154v-58
h-271q-91 1 -125 8v-77q56 9 123 10h273v-60h-158h-8q-81 -1 -111 8v-75q30 7 115 8h160q0 -44 -6 -68zM730 288h-196v60h196v-60zM730 407h-196v58h196v-58zM742 548q95 1 101 10q-1 2 -4 7q-12 17 -12 45v206q-3 37 4 73h-85q6 -33 6 -73v-189q0 -49 -10 -79zM171 564
q87 3 103 14l-4 8q-17 26 -20 57q-9 174 -103 266q-49 -39 -82 -49q66 -37 90 -106q25 -66 16 -190zM643 580q40 85 61 160l-75 22q-24 -92 -58 -160zM335 590q57 12 88 22q-23 20 -68 178q-32 -12 -71 -18q45 -98 51 -182z" />
</svg>
