<?xml version="1.0" standalone="no"?>
<!DOCTYPE svg PUBLIC "-//W3C//DTD SVG 1.1//EN" "http://www.w3.org/Graphics/SVG/1.1/DTD/svg11.dtd" >
<svg xmlns="http://www.w3.org/2000/svg" xmlns:xlink="http://www.w3.org/1999/xlink" version="1.1" viewBox="-10 0 1010 1000">
   <path fill="currentColor"
d="M585 -6l39 3q59 3 61 9q2 2 -4 15q-17 36 -16 65h141q59 0 136 -8v79q-82 -9 -140 -8h-137q0 45 2 76h-82q4 -31 4 -76h-196q0 47 1 60q0 16 3 20h-87q5 -9 5 -80h-148q-63 -1 -109 8v-79q10 1 29 3q62 5 82 5h146q0 -73 -5 -94q85 1 97 12q1 4 -4 19q-11 34 -10 63h196
q0 -72 -4 -92zM480 185q88 26 89 38q1 4 -12 12q-21 15 -31 29h234q50 0 105 -8q-94 143 -186 213q121 46 283 49q-35 31 -55 95q-168 -36 -296 -99q-61 35 -262 99q-35 11 -36 12q-26 -44 -51 -64q-6 -4 -4 -7q129 -6 290 -81q-48 -34 -100 -104q-5 6 -13 19q-42 58 -68 87
q-35 -21 -69 -30q-13 -3 -12 -8q109 -72 194 -252zM161 201q38 20 125 80q18 13 26 19l-56 65q-64 -57 -143 -101zM732 324h-244q63 87 121 111q75 -49 123 -111zM99 375q50 23 143 78l-50 69q-53 -45 -140 -83zM200 566l70 53q-81 203 -97 274l-94 -47q66 -90 121 -280z
M470 667v117h276v-117h-276zM391 606l87 2h254l93 -4l-4 93v107q0 94 6 103h-85q4 -31 4 -63h-276q0 41 4 59h-85q6 -12 6 -95v-123q0 -54 -4 -79z" />
</svg>
