<?xml version="1.0" standalone="no"?>
<!DOCTYPE svg PUBLIC "-//W3C//DTD SVG 1.1//EN" "http://www.w3.org/Graphics/SVG/1.1/DTD/svg11.dtd" >
<svg xmlns="http://www.w3.org/2000/svg" xmlns:xlink="http://www.w3.org/1999/xlink" version="1.1" viewBox="-10 0 1034 1024">
  <g transform="matrix(1 0 0 -1 0 820)">
   <path fill="currentColor"
d="M131 235q48 54 56 64q13 16 28 33l-5 -494q-1 -1 -1 -4h50q-3 13 -6 48v506l17 31q18 30 37 58q4 12 17 26q15 13 40 21q-19 9 -32 18q-15 7 -30 21q-7 -30 -31 -72q-28 -48 -77 -118q-78 -108 -148 -142q24 -16 46 -39q18 21 39 43zM579 119q0 3 21 29l-2 -293
q0 -1 -4 -20h49q-4 19 -5 43v268q55 -96 137 -166q33 -27 67 -49q36 -22 85 -50q12 18 48 49q-93 18 -169 76q-84 69 -131 150l248 -1l41 -4v46q-13 -3 -27 -3q-18 0 -40 -2h-259v101h146q12 0 37 -2q15 -1 34 -3q-4 60 -5 89q0 79 2 93q0 19 3 40q-36 -1 -71 -5l-335 1
q-19 3 -49 4q1 -21 2 -34q3 -24 3 -83l-4 -93q0 -7 -1 -12q60 6 104 5h96v-101l-245 1q-42 3 -48 4v-46q6 3 25 3q22 0 42 2h183q-54 -84 -139 -166q-63 -55 -131 -76l36 -27q6 -4 14 -14q124 90 209 201zM442 329v140h370v-140h-370zM383 679l-268 1q-9 1 -17 2q-3 0 -13 3
v-47q18 6 66 6h232q-3 -78 -5 -90q-1 0 -1 -2h50q-3 12 -6 48v44h226q-3 -87 -5 -92h48l-5 68v24q231 0 240 -2q9 0 21 -4v47q-9 -3 -63 -6h-198q0 66 3 69q0 9 5 17q1 4 6 9h-57l2 -13q0 1 2 -24l1 -58h-226q0 72 3 75q0 6 2 9l8 17h-57q0 -4 3 -11q0 -36 3 -74v-16z" />
  </g>

</svg>
