<?xml version="1.0" standalone="no"?>
<!DOCTYPE svg PUBLIC "-//W3C//DTD SVG 1.1//EN" "http://www.w3.org/Graphics/SVG/1.1/DTD/svg11.dtd" >
<svg xmlns="http://www.w3.org/2000/svg" xmlns:xlink="http://www.w3.org/1999/xlink" version="1.1" viewBox="-10 0 1010 1000">
   <path fill="currentColor"
d="M335 -6q10 0 28 1q70 2 70 7q2 2 -4 12q-12 23 -12 42v38h176v-40q0 -46 -6 -58q18 1 45 1q50 0 49 5q1 1 -2 8q-10 22 -10 46v38h111q105 0 157 -10v85q-63 -8 -149 -8h-119q0 47 8 85h-96q10 -31 10 -85h-172q0 54 8 87h-92q8 -33 8 -87h-117q-112 -1 -163 8v-83
q87 8 163 8h117v-44q0 -31 -8 -56zM232 213q93 40 97 51q-1 3 -7 7q-19 11 -32 33q-24 41 -36 67v369q0 124 8 163h-91q9 -65 10 -157v-267q-48 95 -100 160q-32 -48 -55 -71q130 -128 206 -355zM363 268q70 8 179 8h103q144 0 212 -6q-6 30 -6 115q-3 80 4 115
q-54 -8 -137 -8h-77v78h153q94 0 139 -10v83q-64 -9 -141 -10h-82q72 116 234 165q-58 35 -85 77q-167 -113 -220 -238v143q0 87 8 123h-91q10 -42 11 -123v-139q-61 104 -228 234q-2 -2 -5 -6q-34 -47 -76 -63q112 -26 238 -171h-56q-119 0 -150 8v-83q54 12 156 12h123
v-80h-47q-114 -1 -157 8q4 -40 4 -117q0 -85 -6 -115zM766 340h-318v89h318v-89z" />
</svg>
