<?xml version="1.0" standalone="no"?>
<!DOCTYPE svg PUBLIC "-//W3C//DTD SVG 1.1//EN" "http://www.w3.org/Graphics/SVG/1.1/DTD/svg11.dtd" >
<svg xmlns="http://www.w3.org/2000/svg" xmlns:xlink="http://www.w3.org/1999/xlink" version="1.1" viewBox="-10 0 1010 1000">
   <path fill="currentColor"
d="M341 -6q46 1 78 6q12 2 4 15q-8 15 -8 25v36h172q1 -52 -6 -76q41 -3 82 4q14 2 5 20q-9 15 -9 24v28h168h20q70 1 90 -6v75q-35 -8 -110 -8h-168q-1 44 8 62h-88q8 -21 8 -62h-172q-1 37 8 60h-84q9 -19 8 -60h-182q-77 -1 -109 8v-77q26 8 111 8h178q0 -57 -4 -82z
M232 151q81 18 85 28q0 6 -11 15q-19 16 -30 37h492q66 -1 111 -4q-4 187 -18 581q-1 53 -24 67q-19 17 -103 28q-8 -39 -27 -84q-5 -13 -5 -15q93 30 88 -42l16 -476h-181l36 52l-52 22q54 0 80 -2q30 -1 51 -6v67q-31 -9 -85 -8h-189v54h141q6 0 24 -1q41 -1 69 -1
q-6 40 -6 85v262q8 57 -127 67q-7 -46 -29 -79q96 18 89 -14v-51h-159q0 86 8 119h-81q9 -27 8 -119h-157v25q0 86 6 107h-87q8 -32 8 -113v-206q0 -45 -6 -87q71 6 95 6h141v-54h-127q-61 -1 -93 8v-63q-25 28 -61 68q-19 20 -25 27q-29 -30 -65 -44q130 -95 200 -256z
M403 286h-167l-51 66q28 9 85 8h133v-74zM466 286v74h121q-5 -20 -31 -48l59 -26h-149zM403 512h-157v66h157v-66zM466 512v66h161v-66h-161zM403 623h-157v62h157v-62zM466 623v62h161v-62h-161z" />
</svg>
