<?xml version="1.0" standalone="no"?>
<!DOCTYPE svg PUBLIC "-//W3C//DTD SVG 1.1//EN" "http://www.w3.org/Graphics/SVG/1.1/DTD/svg11.dtd" >
<svg xmlns="http://www.w3.org/2000/svg" xmlns:xlink="http://www.w3.org/1999/xlink" version="1.1" viewBox="-10 0 1034 1024">
  <g transform="matrix(1 0 0 -1 0 820)">
   <path fill="currentColor"
d="M355 667h-220q-21 0 -47 3q-3 0 -17 3v-47q24 3 38 4l246 1v-38q0 -42 -5 -68h49q0 7 -2 16q-3 51 -3 78v12h244v-40q0 -48 -5 -68h49q-6 51 -5 108l235 -1l34 -4v47q-18 -1 -35 -5l-234 -1v49q0 12 3 31q1 18 12 31h-59q4 -49 5 -85v-26h-244v47q0 12 3 30q1 18 13 31
h-60q4 -49 5 -76v-32zM167 -113q-1 4 -1 7q0 6 -2 13q-1 34 -3 69h180q-1 -31 -3 -65q0 1 -2 -16h50q-4 24 -5 49l-1 414l6 65q-34 -1 -69 -5h-92q34 51 47 64q12 15 37 30q-9 4 -19 9q-19 7 -35 23l-1 1q-10 -28 -20 -45q-15 -27 -53 -82l-44 4q-12 0 -19 1q6 -66 6 -94
q0 -403 -3 -426q0 -6 -3 -16h49zM161 12v173h180v-173h-180zM161 221v161h180v-161h-180zM471 469q1 -33 5 -68v-458q0 -54 50 -73q21 -6 55 -8l136 -3q103 0 146 10q46 10 69 68q6 15 11 34q4 16 10 48q-30 9 -55 26q4 -30 5 -44q0 -60 -36 -85q-30 -18 -129 -19l-149 3
q-37 3 -52 11q-21 12 -22 54v194l298 -1q21 0 54 -4q-3 33 -5 68l1 199q0 19 4 48q-36 -1 -71 -5l-271 1q-19 3 -54 4zM515 195v233h133v-233h-133zM686 195v233h137v-233h-137z" />
  </g>

</svg>
