<?xml version="1.0" standalone="no"?>
<!DOCTYPE svg PUBLIC "-//W3C//DTD SVG 1.1//EN" "http://www.w3.org/Graphics/SVG/1.1/DTD/svg11.dtd" >
<svg xmlns="http://www.w3.org/2000/svg" xmlns:xlink="http://www.w3.org/1999/xlink" version="1.1" viewBox="-10 0 1010 1000">
   <path fill="currentColor"
d="M323 -6q12 1 33 2q57 3 57 10q1 2 -1 8q-12 31 -11 90h176q0 -57 -10 -104q80 -6 94 6q1 2 -2 9q-13 33 -12 89h157q96 -3 129 -8v81q-47 -7 -129 -8h-157q-3 38 6 73h-84q4 -21 8 -68v-5h-176q-1 51 4 77h-76q-2 1 -6 4q-14 9 -23 20h369q114 -1 190 -14q-6 56 -15 144
q-18 182 -27 200q-13 43 -124 72q-12 3 -18 5q-5 -59 -30 -93q81 3 101 -30q12 -36 24 -224h-95q-7 12 -20 34q-53 89 -74 119q59 17 96 33l-48 70q-30 -23 -65 -42q-14 -7 -22 -12q-79 82 -191 141q-24 -40 -65 -61q91 -26 190 -106q-29 -11 -74 -25q-19 -5 -27 -8
q-115 90 -230 135q-14 -29 -54 -66q111 -23 211 -95q-26 -10 -88 -24l46 -56q48 14 91 34q7 -8 22 -26q23 -29 36 -45h-149q-81 83 -123 131q-28 -44 -62 -60q92 -54 179 -194q43 16 71 31q6 -43 6 -69h-174q-72 0 -105 8v-83q31 6 103 10h176q0 -31 -7 -99q-1 -7 -1 -11z
M597 330h-113q-32 51 -67 93q7 2 21 7q51 18 82 29q48 -55 77 -129zM530 631q27 31 71 98l-79 37q-27 -68 -62 -105zM827 653q67 76 127 159l-75 53q-71 -112 -123 -168zM163 661q41 24 79 32q-23 35 -95 198q-41 -25 -89 -37q57 -60 105 -193zM308 679q75 1 87 10
q2 3 -4 21q-8 23 -8 34v54q-4 38 48 40q138 5 204 -16q38 -23 36 -95q64 52 89 51q-10 120 -131 123q-34 3 -102 4q-80 0 -136 -2q-82 -4 -83 -63v-161z" />
</svg>
