<?xml version="1.0" standalone="no"?>
<!DOCTYPE svg PUBLIC "-//W3C//DTD SVG 1.1//EN" "http://www.w3.org/Graphics/SVG/1.1/DTD/svg11.dtd" >
<svg xmlns="http://www.w3.org/2000/svg" xmlns:xlink="http://www.w3.org/1999/xlink" version="1.1" viewBox="-10 0 1010 1000">
   <path fill="currentColor"
d="M575 -8q88 0 96 10q1 2 -3 8q-11 21 -11 48v22h172q75 -1 111 -8v75q-29 -7 -113 -6h-170v76h119q93 -1 123 -8v75q-28 -7 -115 -6h-157v105q27 -8 46 -14q91 -27 128 -45q9 -5 22 -10q44 52 54 75q-2 1 -15 1q-43 2 -70 9q-96 22 -163 40v44q2 10 48 16q42 4 95 -1
q85 -9 81 -91v-4q28 42 85 54q-34 97 -105 109q-36 4 -188 -2q-94 -2 -89 -70v-216h-177l-75 74h97q49 0 94 -3q11 -1 15 -1q-58 220 -381 293q-20 -33 -49 -62l-9 -9q60 4 181 -34q13 -4 20 -6q-24 -31 -60 -57l64 -40q29 24 55 65q58 -43 78 -87h-163q-5 3 -14 10
q-60 41 -101 67q-27 -32 -73 -63q116 -22 236 -147h-84q-90 1 -113 8v-77q40 8 111 8h115v-76h-148q-79 0 -115 6v-79q46 10 119 12h142q0 -24 -4 -82q4 42 0 -6q82 -2 98 10q1 1 -3 11q-17 33 -17 67h188q0 -47 -7 -79q-1 -7 -1 -9zM395 141v76h190v-76h-190zM357 574
q102 3 105 14q1 2 -4 11q-20 30 -20 62h179q0 -54 -4 -79q76 1 91 10q1 1 -2 10q-10 28 -10 59h133q79 0 123 -8v82q-53 -7 -123 -8h-133v95q0 45 8 83h-93q10 -45 10 -81v-97h-188q-49 143 -296 188q2 -36 -68 -87q216 7 284 -101h-174q-66 1 -106 8v-82q44 7 108 8h184
q1 -27 -2 -64q-1 -15 -2 -23z" />
</svg>
