<?xml version="1.0" standalone="no"?>
<!DOCTYPE svg PUBLIC "-//W3C//DTD SVG 1.1//EN" "http://www.w3.org/Graphics/SVG/1.1/DTD/svg11.dtd" >
<svg xmlns="http://www.w3.org/2000/svg" xmlns:xlink="http://www.w3.org/1999/xlink" version="1.1" viewBox="-10 0 1010 1000">
   <path fill="currentColor"
d="M587 4q12 0 33 1q57 2 55 5q1 2 -3 9q-9 18 -9 39v38h81q137 0 191 -8v83q-56 -7 -181 -8h-93q0 37 4 70h-80q6 -30 6 -68h-188q0 47 4 73h-80q0 -6 2 -26q2 -30 2 -45h-87q-111 1 -184 8v-83q69 8 184 8h87v-34q0 -42 -6 -58q82 0 88 6q1 2 -2 9q-8 19 -8 41v34h188v-42
q0 -27 -4 -52zM810 252l-4 104v144q0 39 1 55q0 20 3 55q-28 -2 -62 -3q-17 -1 -37 -1h-52h-332q-89 1 -148 4q2 -19 3 -44q1 -12 1 -27v-39v-140q0 -47 -1 -67q-1 -24 -3 -41q42 4 156 4h316zM730 326h-204v77h204v-77zM258 326v77h198v-77h-198zM526 463v81h204v-81h-204z
M258 463v81h198v-81h-198zM516 619q29 36 73 110l-75 33q-30 -70 -68 -119zM280 633q90 3 91 12q1 1 -3 6q-10 15 -11 32v81q-1 35 6 43q6 11 30 15q31 5 86 7q47 1 84 -2q69 -6 84 -27q15 -22 24 -85q21 28 87 51q-23 74 -56 103q-31 24 -146 31q-133 5 -217 -13
q-34 -8 -44 -25q-10 -14 -11 -64v-113q-1 -13 -3 -31q-1 -17 -1 -21zM145 639q82 14 89 24q1 3 -7 12q-15 16 -19 28q-2 6 -8 22q-27 75 -51 129q-34 -19 -84 -26q54 -67 80 -189zM776 639q86 70 147 133q-34 18 -68 56q-70 -87 -141 -143z" />
</svg>
