<?xml version="1.0" standalone="no"?>
<!DOCTYPE svg PUBLIC "-//W3C//DTD SVG 1.1//EN" "http://www.w3.org/Graphics/SVG/1.1/DTD/svg11.dtd" >
<svg xmlns="http://www.w3.org/2000/svg" xmlns:xlink="http://www.w3.org/1999/xlink" version="1.1" viewBox="-10 0 1034 1024">
  <g transform="matrix(1 0 0 -1 0 820)">
   <path fill="currentColor"
d="M70 -105q18 -7 28 -11q7 -4 18 -11q40 60 70 108q24 40 58 58q-13 7 -27 16l-30 16q-4 -25 -46 -93q-45 -63 -71 -83zM214 201q-3 -33 -5 -69q33 3 67 5l479 -1l52 -4q-6 63 -7 69l1 268q0 22 4 51q-36 -1 -71 -5l-477 1q-7 1 -16 2q-13 0 -32 2q4 -69 5 -72v-247z
M493 314v-141h-242v141h242zM251 349v130h242v-130h-242zM531 173v141h231v-141h-231zM531 349v130h231v-130h-231zM347 21q0 12 2 29q3 16 12 33h-57q0 -6 2 -12q0 -34 3 -71v-58q0 -72 99 -82q30 -3 117 -3q91 1 122 5q58 7 86 64q9 15 21 57q-7 3 -40 28l-6 6
q-4 -42 -11 -61q-16 -46 -59 -54q-22 -4 -141 -5q-87 0 -120 9q-30 9 -30 45v70zM457 87q60 -51 109 -107q3 6 31 33l-111 106q-13 -18 -29 -32zM945 -65l9 9l-116 117q-12 9 -26 24q-15 -18 -30 -30q15 -12 60 -56l81 -85q1 3 9 10q6 6 13 11zM370 659l-273 1q-9 1 -17 2
q-3 0 -13 3v-47q18 6 67 6h236l-6 -77h50q-3 9 -6 35l-1 42h217q-3 -73 -5 -77h48q-6 55 -5 77l249 -1q19 -1 40 -5v47q-9 -3 -63 -6h-226q0 67 3 77q0 3 10 24h-56l2 -13l3 -88h-217q0 52 2 63q0 3 6 24q1 6 6 14h-57q0 -6 2 -11q0 -6 1 -9q0 -9 3 -41v-40z" />
  </g>

</svg>
