<?xml version="1.0" standalone="no"?>
<!DOCTYPE svg PUBLIC "-//W3C//DTD SVG 1.1//EN" "http://www.w3.org/Graphics/SVG/1.1/DTD/svg11.dtd" >
<svg xmlns="http://www.w3.org/2000/svg" xmlns:xlink="http://www.w3.org/1999/xlink" version="1.1" viewBox="-10 0 1010 1000">
   <path fill="currentColor"
d="M589 -12q89 3 96 10q2 3 -2 12q-14 34 -14 86h178q51 0 97 -6v81q-61 -8 -95 -8h-180q0 31 4 50h-82q4 -32 4 -50h-200q0 46 4 66h-84q4 -27 4 -66h-166q-57 -3 -97 6v-79q41 6 95 6h168q0 -64 -6 -100q91 -4 94 4q1 3 -1 11q-11 32 -11 85h200q0 -63 -6 -108zM147 195
q92 -1 91 8q1 2 -3 5q-17 23 -17 74h135h13q58 1 102 -6v70q-53 -6 -119 -6h-131v89q149 -30 246 -60q-8 43 0 80q-230 33 -307 79q-4 -23 -38 -77q40 -7 34 -51v-5q0 -90 -1 -130q-2 -46 -5 -70zM514 213q85 1 91 12q1 3 -3 9q-17 25 -17 80q162 -50 232 -95q56 44 68 69
q-1 3 -23 6q-44 7 -70 18q-113 37 -207 63q-1 36 8 43q7 10 40 9h180q43 2 54 -15q13 -16 18 -80q34 33 75 37q-18 80 -42 100q-22 23 -91 21h-214q-100 3 -93 -49v-131q0 -69 -6 -97zM427 469q5 1 15 2q80 13 76 19q0 2 -4 5q-20 15 -38 53h228q23 0 84 -6q16 -1 24 -2
q-6 39 -6 99v137q0 75 7 131h-97q4 -31 4 -57h-430q-2 2 -1 23q1 19 3 34h-94q8 -44 8 -137v-127q0 -62 -4 -101q54 6 115 6h90q21 -49 20 -79zM720 606h-430v65h430v-65zM720 727h-430v65h430v-65z" />
</svg>
