<?xml version="1.0" standalone="no"?>
<!DOCTYPE svg PUBLIC "-//W3C//DTD SVG 1.1//EN" "http://www.w3.org/Graphics/SVG/1.1/DTD/svg11.dtd" >
<svg xmlns="http://www.w3.org/2000/svg" xmlns:xlink="http://www.w3.org/1999/xlink" version="1.1" viewBox="-10 0 1034 1024">
  <g transform="matrix(1 0 0 -1 0 820)">
   <path fill="currentColor"
d="M340 668l-248 3q-9 1 -17 3v-47q24 3 38 4l227 1q-3 -78 -5 -98h49q-3 12 -4 46l-1 52h260l-5 -96h49q0 7 -2 15q-3 51 -3 77v4l238 -1q21 0 34 -4v47l-68 -6h-204v42q0 12 3 30q1 18 12 31h-59q4 -49 5 -75v-28h-260v44q0 12 3 30q1 18 12 32h-59q4 -49 5 -85v-21z
M100 224q0 -27 -3 -52q0 -4 -3 -16h50l-5 65v62h348v-102l-202 1q-15 3 -28 3q-9 0 -25 2q1 -37 5 -76l-1 -157q-1 -10 -2 -26q0 -1 -2 -16h49l-4 40l-1 193h211v-242q0 -24 -3 -52q0 -3 -3 -16h50q-3 12 -6 65v245h227v-131q0 -57 -64 -58q-24 0 -65 13q15 -21 24 -56
q30 0 74 7q3 1 6 1q36 10 55 36q9 19 9 59q0 115 2 129q0 18 3 42l-72 -6h-199v102h355v-56q0 -24 -3 -53l-2 -15h49q-7 90 -4 115l4 51q-18 -1 -36 -3q-25 -3 -36 -3h-215q0 3 15 21q22 28 40 43q19 18 51 30q-22 9 -51 31q0 -3 -7 5q-36 -60 -100 -130h-159
q-30 48 -93 109l-31 -31q34 -22 74 -78l-228 1q-4 0 -54 5q6 -48 6 -71v-30zM467 548q12 -7 49 -41q9 -9 18 -17l-384 1q-9 1 -26 2q-3 0 -17 4v-49q30 4 38 5l703 1q48 0 58 -3q3 0 10 -3v49q-21 -1 -35 -6l-114 -2h-220q9 15 23 27q-21 21 -103 82q-9 -15 -27 -32z" />
  </g>

</svg>
