<?xml version="1.0" standalone="no"?>
<!DOCTYPE svg PUBLIC "-//W3C//DTD SVG 1.1//EN" "http://www.w3.org/Graphics/SVG/1.1/DTD/svg11.dtd" >
<svg xmlns="http://www.w3.org/2000/svg" xmlns:xlink="http://www.w3.org/1999/xlink" version="1.1" viewBox="-10 0 1010 1000">
   <path fill="currentColor"
d="M313 -19q36 0 88 4q22 2 9 25q-11 19 -11 30v54h206q0 -68 -4 -107q62 0 80 1q21 2 9 26q-11 20 -11 32v48h138q103 1 137 -8v85q-32 -9 -131 -8h-144q-1 43 8 68h-92q9 -21 8 -68h-204q-1 51 8 72h-94q9 -21 8 -72h-144q-76 -1 -119 8v-85q36 9 119 8h142q0 -58 -5 -105
q-1 -7 -1 -8zM502 209q80 19 89 31q0 4 -10 13q-16 16 -23 29h218q63 0 101 -6q-30 79 -155 191q-104 67 -230 101q-34 -46 -59 -58q96 -15 158 -47q-21 -21 -81 -48l57 -55q59 34 94 67q59 -45 95 -87h-226q-42 60 -93 115q-27 -18 -80 -28q104 -97 145 -218zM258 246
q54 -1 87 6q22 4 6 35q-14 27 -14 43v480q-1 70 8 97h-89q9 -29 8 -99v-212q-15 19 -51 65q-83 104 -116 149l-55 -87q118 -99 222 -227v-131q0 -77 -6 -119zM155 292q47 99 73 171l-89 27q-28 -95 -68 -176zM734 463q37 0 83 8q31 6 14 29q-12 15 -12 24v44q109 1 143 -8
v83q-23 -5 -55 -7q-15 0 -35 -1h-51v185q1 48 -29 65q-28 19 -115 26q-4 -48 -50 -105q124 27 111 -28v-143h-242q-75 -1 -121 8v-79q44 8 123 8h238q0 -96 -2 -109zM563 645q33 48 62 113l-77 30q-25 -65 -62 -115z" />
</svg>
