<?xml version="1.0" standalone="no"?>
<!DOCTYPE svg PUBLIC "-//W3C//DTD SVG 1.1//EN" "http://www.w3.org/Graphics/SVG/1.1/DTD/svg11.dtd" >
<svg xmlns="http://www.w3.org/2000/svg" xmlns:xlink="http://www.w3.org/1999/xlink" version="1.1" viewBox="-10 0 1010 1000">
   <path fill="currentColor"
d="M597 -15q15 1 43 1q54 -1 54 6q1 4 -3 18q-12 38 -12 80h140q87 0 114 -6v77q-18 -6 -112 -6h-142q0 24 6 48h-62q3 6 13 33q15 41 23 60h65q45 0 62 -1q21 -1 49 -5q-4 41 -4 111v123q-1 45 6 93q-30 -6 -105 -5h-127q35 67 85 115q46 -44 98 -106q48 29 71 48q1 1 -5 4
q-45 24 -118 87q80 41 208 44q-42 42 -55 95q-268 -61 -353 -287h-86v182q36 -24 110 -65q0 38 9 87q-82 30 -179 87l-21 12q-15 -35 -46 -71q58 -32 52 -94v-347q0 -67 -6 -113q51 6 105 6h111q-5 -7 -12 -18q-19 -29 -43 -57l79 -18h-12q4 -15 4 -48h-194q0 50 4 70h-86
q4 -31 4 -70h-152q-89 0 -123 6v-77q30 6 123 6h152q0 -76 -6 -100h23q77 -1 77 6q1 1 -2 10q-14 40 -14 84h194q0 -66 -4 -105zM194 223q25 19 63 46q45 33 76 57l-55 69q-79 -81 -135 -111zM450 354v75h306v-75h-306zM105 389q109 69 145 94l-52 71q-85 -76 -140 -99z
M450 479v75h306v-75h-306zM220 570q38 38 76 49q-72 134 -123 280q-34 -24 -92 -51q92 -118 139 -278z" />
</svg>
