<?xml version="1.0" standalone="no"?>
<!DOCTYPE svg PUBLIC "-//W3C//DTD SVG 1.1//EN" "http://www.w3.org/Graphics/SVG/1.1/DTD/svg11.dtd" >
<svg xmlns="http://www.w3.org/2000/svg" xmlns:xlink="http://www.w3.org/1999/xlink" version="1.1" viewBox="-10 0 1010 1000">
   <path fill="currentColor"
d="M323 -10q84 6 104 14q1 3 -3 12q-17 30 -17 78h196q0 -52 -6 -100q97 5 99 10q0 2 -3 8q-16 30 -16 82h142q70 -1 129 -10v85q-31 -8 -125 -8h-144q-3 35 4 87h-86q6 -40 6 -87h-196q-2 42 4 83h-86q4 -28 4 -83h-141q-73 0 -126 12v-89q38 9 125 10h142q0 -48 -6 -104z
M121 268q22 8 83 8h157q61 0 97 -8v84q-50 -8 -99 -8h-155q-61 0 -83 8v-84zM534 268q27 8 89 8h161q79 -3 99 -8v88q-36 -11 -99 -12h-155q-63 1 -95 8v-84zM65 429q37 8 104 8h204q65 0 107 -8v85q-39 -8 -103 -8h-38v320q5 49 -147 71q-2 -54 -41 -101q112 18 109 -24
v-268h-91q-66 1 -104 10v-85zM510 431q23 8 113 8h208q90 -3 117 -8v83q-34 -7 -111 -8h-103v316q-2 87 -143 83q-10 -69 -41 -101q97 21 105 -2v-296h-32q-90 0 -113 8v-83zM137 558q45 14 85 30q-25 39 -79 159q-16 36 -26 57q-27 -13 -87 -32q76 -95 107 -214zM419 562
q48 55 87 117q21 -32 42 -101q77 21 87 34q0 4 -9 12q-19 17 -29 35q-5 10 -19 37q-38 73 -76 140q-34 -28 -81 -36q48 -54 83 -119l-71 44q-31 -77 -80 -131zM823 584q69 75 141 192l-89 50q-36 -97 -121 -207z" />
</svg>
