<?xml version="1.0" standalone="no"?>
<!DOCTYPE svg PUBLIC "-//W3C//DTD SVG 1.1//EN" "http://www.w3.org/Graphics/SVG/1.1/DTD/svg11.dtd" >
<svg xmlns="http://www.w3.org/2000/svg" xmlns:xlink="http://www.w3.org/1999/xlink" version="1.1" viewBox="-10 0 1034 1024">
  <g transform="matrix(1 0 0 -1 0 820)">
   <path fill="currentColor"
d="M369 682q-256 0 -275 3q-10 0 -24 3v-47q25 3 64 5h235v-81h-181q-9 0 -38 3q-18 0 -34 3q1 -31 5 -64q-3 -78 -5 -96h50q-6 33 -6 65v53h718q-3 -81 -5 -100h49q-3 19 -4 33l4 109q-60 -6 -83 -6h-167v81l242 -1l35 -4v47q-18 -1 -35 -5l-242 -1v26q0 12 3 31
q1 16 12 31h-59q4 -25 5 -88h-226q0 36 3 56q3 18 13 29h-60q6 -54 6 -85zM407 565v81h226v-81h-226zM805 321q33 -1 68 -5v46q-18 -1 -35 -5l-650 1q-6 1 -12 1q-3 0 -17 3v-46q9 0 20 2q21 0 45 3h210q-55 -39 -140 -76q-48 -19 -82 -29q-33 -9 -81 -14q21 -16 40 -44
q132 36 255 109q25 -18 44 -41q-87 -63 -183 -109q-52 -21 -88 -32q-42 -9 -84 -11q27 -21 44 -46q187 63 339 170q16 -18 36 -58q-93 -84 -238 -153q-123 -54 -204 -55q18 -19 35 -48q76 24 134 46q52 21 106 50q96 52 185 122q12 -48 12 -83q0 -73 -33 -104
q-31 -30 -97 -30q-24 0 -54 11q15 -22 21 -58q49 3 73 8q81 15 112 76q18 37 18 96q0 33 -6 66q-4 24 -17 56q10 3 28 13q24 9 27 13q87 -171 281 -268q18 24 51 49q-70 6 -150 62q-103 78 -146 177q18 9 36 21l66 38q18 10 42 13q-1 3 -41 50q-66 -67 -214 -135
q-45 73 -101 116q24 15 49 32h296zM241 418q60 4 64 5l465 -1q6 0 26 -4v47q-18 -1 -35 -5h-480q-12 1 -23 2q-3 0 -17 3v-47z" />
  </g>

</svg>
