<?xml version="1.0" standalone="no"?>
<!DOCTYPE svg PUBLIC "-//W3C//DTD SVG 1.1//EN" "http://www.w3.org/Graphics/SVG/1.1/DTD/svg11.dtd" >
<svg xmlns="http://www.w3.org/2000/svg" xmlns:xlink="http://www.w3.org/1999/xlink" version="1.1" viewBox="-10 0 1034 1024">
  <g transform="matrix(1 0 0 -1 0 820)">
   <path fill="currentColor"
d="M220 -30q19 33 41 64q12 18 44 62q-4 4 -7 9q-6 12 -10 22q-1 3 -4 6q-3 4 -5 10q-19 -39 -46 -82q-25 -43 -54 -82q-31 -45 -54 -71q-18 -21 -36 -33q13 -7 21 -15q7 -4 25 -20q66 105 85 130zM199 310l-35 26q-12 7 -21 14l-19 13q-15 -24 -28 -38q34 -18 87 -56
q46 -30 72 -55q3 7 8 15q6 6 18 24q-21 16 -82 57zM191 524q-7 -13 -17 -23q46 -27 89 -57q46 -33 61 -48q9 18 26 37l-150 106zM391 465q1 -33 5 -66v-474q0 -15 -7 -28q-6 -7 -18 -16q3 -3 6 -8q0 -3 6 -9l16 -33q19 16 28 22q9 7 46 29l131 72l8 64q-27 -25 -36 -33
l-104 -61q-13 -9 -38 -19v279h138q54 -118 128 -193q39 -39 90 -71q46 -27 134 -65q10 22 46 56q-57 3 -106 22q-72 28 -126 82q15 15 68 55q12 12 43 31q15 13 57 19h5q-22 18 -53 52q-12 -19 -43 -46q-37 -34 -106 -83q-52 55 -88 141l169 -1q18 0 50 -4q-6 69 -6 99
q0 135 2 149l4 40q-34 -1 -69 -5h-117q9 18 22 34l-71 47q-30 19 -61 39q-10 -19 -26 -37q18 -9 106 -65l18 -18h-179zM434 220v83h362v-83h-362zM434 339v87h362v-87h-362zM353 664l-264 1q-9 1 -17 2q-3 0 -13 3v-47q18 6 67 6h227l-4 -88q-1 -1 -1 -5h48q-3 6 -4 38
l-1 55h260q-3 -81 -5 -85h48q-6 55 -5 85l269 -3q6 0 9 -3v47q-7 -1 -59 -6h-219q0 78 3 81q0 7 6 17q1 4 5 8h-57q1 -30 5 -61v-45h-260q0 72 3 81q0 3 10 24h-56q0 -3 1 -7q0 -1 1 -4q0 -36 3 -73v-21z" />
  </g>

</svg>
