<?xml version="1.0" standalone="no"?>
<!DOCTYPE svg PUBLIC "-//W3C//DTD SVG 1.1//EN" "http://www.w3.org/Graphics/SVG/1.1/DTD/svg11.dtd" >
<svg xmlns="http://www.w3.org/2000/svg" xmlns:xlink="http://www.w3.org/1999/xlink" version="1.1" viewBox="-10 0 1034 1024">
  <g transform="matrix(1 0 0 -1 0 820)">
   <path fill="currentColor"
d="M471 322q-9 -21 -25 -32q51 -27 110 -76q3 6 27 30l-58 42q-19 15 -54 36zM952 219q-6 -1 -59 -6l-780 1q-9 1 -17 2q-3 0 -13 3v-47q27 4 66 5h252q-12 -147 -96 -212q-93 -66 -197 -72q24 -25 38 -51q78 22 151 70q79 54 121 142h348q-4 -63 -14 -102q-9 -31 -28 -45
q-24 -16 -65 -17q-24 0 -62 6q12 -30 19 -52q108 10 141 39q31 30 43 127l6 51q1 24 4 34q-49 -4 -71 -5h-310q9 39 13 87l497 -3q4 0 13 -2v47zM141 310q0 -42 -4 -58q-1 0 -1 -3h49q-1 6 -6 58v26h665l-5 -79h49q-1 1 -1 2v3q0 3 -5 65l6 50q-34 0 -60 -5l-200 -1
q15 25 37 50q18 19 45 26q-27 15 -47 33l160 -1q25 0 38 -4l3 -1v48q-10 -3 -63 -6h-240l14 21q3 3 8 11l-29 21q-22 18 -66 47q-6 6 -12 10q-6 -15 -22 -35q78 -45 100 -75h-319q-30 0 -55 3q-6 0 -13 3v-48q18 6 66 6h417q-22 -64 -69 -109h-123q-21 24 -101 103
q-6 -3 -18 -21q-6 -6 -11 -7q12 -9 34 -31l43 -44l-213 1q-30 4 -56 5q1 -31 5 -64zM344 671l-236 1q-15 0 -31 5v-47q19 4 49 5l218 1q-3 -66 -5 -84h49q-3 12 -6 49v35h256q-3 -78 -5 -83h48q-6 55 -5 83l225 -1l33 -4l2 -1v47q-7 -1 -58 -6h-202q0 70 3 74q0 6 2 9l8 17
h-56l2 -13q0 1 2 -24l1 -63h-256q0 70 3 74q0 6 2 9l8 17h-56q0 -6 2 -11z" />
  </g>

</svg>
