<?xml version="1.0" standalone="no"?>
<!DOCTYPE svg PUBLIC "-//W3C//DTD SVG 1.1//EN" "http://www.w3.org/Graphics/SVG/1.1/DTD/svg11.dtd" >
<svg xmlns="http://www.w3.org/2000/svg" xmlns:xlink="http://www.w3.org/1999/xlink" version="1.1" viewBox="-10 0 1010 1000">
   <path fill="currentColor"
d="M593 -13q81 -1 101 9q1 2 -3 10q-17 33 -16 80h142q91 0 135 -8v81q-46 -6 -135 -6h-142q0 35 10 56h-52q0 1 -1 4q-9 27 -7 73h151q-13 -39 -48 -79l74 -34q28 28 57 75l-73 38h37q72 0 116 -7q6 -1 7 -1v76q-2 0 -11 -1q-47 -7 -112 -7h-196v63h161q50 0 75 -4
q-11 34 -8 68v373q4 55 -139 63q-1 -45 -29 -91q92 20 97 -12v-79h-157v69q-3 30 8 83h-87q1 -6 2 -18q6 -51 6 -67v-67h-137v45q0 68 7 114q1 10 1 13h-88q0 -3 1 -13q7 -48 7 -118v-280q0 -37 -6 -85q33 6 84 6h131v-63h-153q-60 -1 -101 8v-80q46 10 103 12h151
q0 -42 -8 -71q-2 -8 -2 -12q34 -6 51 0q8 -10 8 -50h-204q-3 32 6 68h-86q6 -36 6 -68h-146q-89 0 -133 8v-83q39 7 131 8h148v-24q0 -18 -3 -67q-1 -5 -1 -7q93 0 96 8q1 3 -3 13q-15 36 -15 77h204v-16q0 -42 -12 -83zM167 213q67 43 125 91l-64 63q-62 -63 -129 -103z
M101 379q53 18 151 78l-50 71q-72 -54 -150 -81zM784 469h-157v69h157v-69zM417 469v69h139v-69h-139zM200 566q24 42 68 57q-112 270 -103 280q-20 -13 -52 -30q-23 -12 -38 -21q77 -113 125 -286zM419 598v69h137v-69h-137zM627 598v69h157v-69h-157z" />
</svg>
