<?xml version="1.0" standalone="no"?>
<!DOCTYPE svg PUBLIC "-//W3C//DTD SVG 1.1//EN" "http://www.w3.org/Graphics/SVG/1.1/DTD/svg11.dtd" >
<svg xmlns="http://www.w3.org/2000/svg" xmlns:xlink="http://www.w3.org/1999/xlink" version="1.1" viewBox="-10 0 1034 1024">
  <g transform="matrix(1 0 0 -1 0 820)">
   <path fill="currentColor"
d="M351 672h-220q-21 0 -47 3q-3 0 -17 3v-47q-3 0 9 1q3 0 11 1q19 0 44 3h220q-3 -93 -5 -111h49q0 7 -2 16q-3 51 -3 76v20h231q0 -45 -5 -85h49q-3 31 -5 63v21l268 -1q12 -1 27 -4v47q-3 0 -6 -1q-12 -1 -29 -4l-260 -1v35q0 12 3 29q1 18 12 32h-59q1 -30 5 -61v-35
h-231v32q0 13 3 30q1 18 12 32h-59q4 -49 5 -85v-9zM75 327q10 -6 21 -13q27 -15 63 -39q16 -12 46 -42q9 18 18 30q1 4 6 9q-3 3 -130 93l-7 -13q0 -1 -7 -10q-6 -7 -10 -15zM266 187q0 1 -4 6q-4 7 -8 13q-9 -28 -21 -56q-13 -30 -38 -76q-36 -69 -64 -114
q-24 -36 -52 -71q24 -15 44 -36l73 140l92 164q-3 6 -22 30zM130 518q54 -22 125 -96q7 18 27 39q-46 42 -125 96zM591 459l-236 1q-39 4 -42 5v-47q24 3 38 4l240 1v-79q-168 0 -195 2q-6 3 -40 3q1 -31 5 -64l-1 -400q-1 -10 -2 -26q0 -3 -2 -15h49q0 7 -2 15q-3 51 -3 71
v123h191q-3 -150 -5 -170h49q0 7 -2 15q-3 51 -3 73v82h191v-118q0 -46 -51 -47q-36 0 -62 10q9 -25 16 -56q34 0 53 3q12 0 25 4q57 12 57 75v361q0 3 4 31q1 18 2 33q-34 -1 -69 -5h-166v79l274 -1q12 0 33 -4v47q-66 -6 -100 -6h-15q6 16 25 31q-60 61 -115 99
q-9 -18 -26 -35q54 -36 72 -52q6 -4 19 -19q9 -10 18 -24h-185q0 28 3 38q1 18 12 32h-59q0 -9 2 -14q0 -27 3 -56zM400 89v95h191v-95h-191zM400 220v88h191v-88h-191zM630 89v95h191v-95h-191zM630 220v88h191v-88h-191z" />
  </g>

</svg>
