<?xml version="1.0" standalone="no"?>
<!DOCTYPE svg PUBLIC "-//W3C//DTD SVG 1.1//EN" "http://www.w3.org/Graphics/SVG/1.1/DTD/svg11.dtd" >
<svg xmlns="http://www.w3.org/2000/svg" xmlns:xlink="http://www.w3.org/1999/xlink" version="1.1" viewBox="-10 0 1034 1024">
  <g transform="matrix(1 0 0 -1 0 820)">
   <path fill="currentColor"
d="M115 67q0 1 88 57l52 39q45 39 88 82h313q57 -67 125 -113q66 -45 143 -75q6 9 14 19q6 9 24 30q-30 1 -52 7q-63 19 -113 54q-57 36 -88 78l201 -1q21 0 36 -5v47q-19 -3 -23 -4l-548 -1q24 30 50 71l377 -1q6 0 29 -4v46l-63 -5h-322q18 31 33 66q366 0 384 -3
q3 0 20 -3v47q-15 -4 -33 -5l-356 -1q1 7 8 24q15 48 39 70q-37 7 -60 16q-7 -42 -28 -110q-297 0 -309 3q-1 1 -2 1q-3 0 -12 2v-47q6 0 12 2q6 3 36 3l258 1q-13 -34 -36 -66l-192 1q-9 1 -17 2q-3 0 -12 2v-46q19 3 41 5h161q-27 -36 -56 -71l-237 2q-3 0 -16 3v-47
q15 4 39 5l178 1q-66 -70 -143 -111q-43 -24 -80 -27q25 -21 42 -45q3 3 7 5zM445 27q-81 -60 -153 -94q-43 -18 -67 -24q-25 -6 -55 -6q21 -24 38 -49l56 26q78 34 124 62q49 30 107 77l-3 -182q-1 -3 -3 -8h50q0 3 -2 5q-3 7 -4 36v145q87 -39 166 -86q78 -45 117 -79
q12 21 31 41l-36 19l-86 47l-135 70l197 -1q12 0 26 -3l2 -1v46l-62 -5h-220v85q99 12 123 12q12 0 31 -2q-10 18 -19 29q-4 9 -14 25q-27 -12 -66 -19q-90 -15 -169 -15q-33 0 -94 7q18 -28 29 -49q45 0 141 8v-81l-264 1q-15 3 -28 4v-46q66 6 77 5h165zM353 671l-288 4
q-1 0 -5 1v-47q30 6 49 6h244q0 -48 -5 -101h48l-1 6q-3 7 -4 36v59h248q0 -54 -2 -81q-1 -3 -1 -6l-2 -11h48q-6 55 -5 88v10q261 0 271 -3q1 0 6 -3v47q-4 0 -8 -2q-15 0 -31 -2l-238 -1q0 63 3 74q1 15 10 26h-56q1 -33 5 -67v-33h-248q0 60 3 69q1 15 10 27h-56
q3 -9 3 -16q1 -30 2 -51v-29z" />
  </g>

</svg>
