<?xml version="1.0" standalone="no"?>
<!DOCTYPE svg PUBLIC "-//W3C//DTD SVG 1.1//EN" "http://www.w3.org/Graphics/SVG/1.1/DTD/svg11.dtd" >
<svg xmlns="http://www.w3.org/2000/svg" xmlns:xlink="http://www.w3.org/1999/xlink" version="1.1" viewBox="-10 0 1010 1000">
   <path fill="currentColor"
d="M313 -6q9 0 28 1q63 2 60 7q0 2 -2 7q-10 32 -10 89h206q0 -75 -6 -102q84 3 88 10q2 2 0 11q-8 31 -8 81h154q69 0 108 -6v71q-44 -9 -110 -6h-152q0 40 4 58h-82q4 -28 4 -58h-206q-1 39 4 50h-80q4 -18 4 -50h-146h-6q-59 -1 -102 6v-71q48 6 106 6h148q0 -72 -4 -104
zM452 161q94 19 102 30q0 4 -6 8q-20 13 -36 43h226q63 0 111 -5v65q-56 -6 -113 -6h-246q-10 20 -22 48h240q58 0 100 -6v63q-53 -10 -104 -4h-256q-7 9 -21 33q-7 11 -10 15h393q73 -4 105 -8v69q-54 -7 -100 -6h-115q77 99 256 129q-40 27 -61 74q-202 -79 -274 -203
h-242q-84 107 -276 227q-28 -46 -67 -74q133 -38 258 -157h-133q-54 0 -101 6v-65q44 6 105 6h172q2 -2 5 -7q7 -12 27 -39h-127h-12q-56 -1 -89 4v-63q43 6 97 6h157l22 -48h-203q-68 0 -107 6v-65q33 5 107 5h221q18 -50 17 -81zM605 746q143 38 224 80l-47 73
q-79 -51 -215 -93zM329 570q185 4 282 -26q58 50 56 68q-2 2 -17 1q-53 -2 -114 6v56h129q70 0 107 -6v68q-45 -6 -105 -6h-131q0 112 6 172h-80q6 -60 6 -151q-100 68 -276 149q-21 -41 -59 -65q126 -18 262 -105h-68q-65 0 -103 6v-68q51 6 105 6h139v-52q-54 1 -117 10
q-6 -45 -22 -63z" />
</svg>
