<?xml version="1.0" standalone="no"?>
<!DOCTYPE svg PUBLIC "-//W3C//DTD SVG 1.1//EN" "http://www.w3.org/Graphics/SVG/1.1/DTD/svg11.dtd" >
<svg xmlns="http://www.w3.org/2000/svg" xmlns:xlink="http://www.w3.org/1999/xlink" version="1.1" viewBox="-10 0 1034 1024">
  <g transform="matrix(1 0 0 -1 0 820)">
   <path fill="currentColor"
d="M263 -89q0 -48 -5 -76h48q-3 33 -4 63h446q0 -39 -4 -56h48q-4 33 -5 70l1 195l4 32q57 -24 81 -32l60 -21q18 30 23 35q4 9 17 18q-63 0 -178 47q-162 70 -253 162q12 9 26 12q-27 16 -52 34q-30 -37 -71 -75q-72 -64 -142 -105q-135 -78 -252 -86q19 -19 35 -51l130 48
l42 21q1 -27 5 -54v-181zM337 150q-10 0 -56 5q33 16 59 34q27 16 65 46q34 25 58 46q24 19 47 42q96 -90 246 -168q-24 -1 -49 -5h-370zM302 -66v180h446v-180h-446zM344 675l-245 2q-6 1 -12 1q-3 0 -17 3v-47q24 4 60 5h214l-5 -88h49q-3 31 -5 63v25h273q-3 -54 -6 -88
h50q-6 66 -6 88l228 -1q3 0 27 -4v47q-18 -1 -35 -5l-220 -1v29q0 15 4 30q1 18 12 32h-60q6 -54 6 -85v-6h-273q0 60 3 64q3 16 12 27h-59q4 -49 5 -85v-6zM131 505q6 -66 6 -88q-3 -69 -5 -83q-1 -1 -1 -3h50q0 7 -2 15q-3 51 -3 78v39h683q-3 -111 -5 -123q-1 0 -1 -2h51
q0 7 -2 15l-4 49q0 54 2 62q0 3 4 39q-1 1 0 2q-21 -1 -36 -3q-27 -3 -36 -3h-275q6 12 21 22l-99 90q-3 1 -3 2q-15 -16 -33 -31q19 -13 28 -22q16 -15 35 -31q10 -9 27 -30l-350 1q-24 4 -52 5zM346 348q12 9 27 22q16 12 43 18q-36 18 -58 33q-13 -24 -61 -66
q-63 -54 -119 -72q27 -21 38 -39q63 46 96 74q16 15 34 30zM654 412q-9 -7 -17 -17q72 -34 175 -124q12 22 27 36q-25 21 -70 52q-48 33 -102 68q-7 -7 -13 -15v0z" />
  </g>

</svg>
