<?xml version="1.0" standalone="no"?>
<!DOCTYPE svg PUBLIC "-//W3C//DTD SVG 1.1//EN" "http://www.w3.org/Graphics/SVG/1.1/DTD/svg11.dtd" >
<svg xmlns="http://www.w3.org/2000/svg" xmlns:xlink="http://www.w3.org/1999/xlink" version="1.1" viewBox="-10 0 1034 1024">
  <g transform="matrix(1 0 0 -1 0 820)">
   <path fill="currentColor"
d="M469 467h-340q-36 0 -63 4q-3 0 -6 1v-45q3 3 22 4q33 1 72 2h377q-69 -36 -126 -61q-55 -21 -124 -42q-58 -16 -100 -24q-39 -6 -108 -8q18 -21 28 -44q1 -3 3 -7q33 6 87 20l110 31v-72q0 -19 12 -34q12 -13 56 -14l225 -2q84 3 172 3q30 4 50 17q21 15 41 64q3 3 8 16
q-21 12 -39 33q-3 -21 -8 -32q-10 -36 -25 -48q-13 -9 -33 -13q-18 -3 -69 -5l-158 -2l-137 3q-36 -3 -51 8q-6 3 -6 13v23q9 0 202 30q72 12 152 31q93 22 107 24l38 2q6 0 14 -1l-14 12q-3 3 -4 5l-19 23q-3 3 -10 11q-12 -9 -24 -16q-16 -7 -57 -18q-39 -10 -89 -21
q-78 -18 -147 -29l-149 -19v17q9 3 19 8q81 31 132 56q49 24 119 62l312 -1q27 0 39 -4l2 -1v45l-64 -5h-233q46 30 79 53q22 15 47 29q15 9 30 14q3 3 27 9q-33 25 -47 44q-25 -30 -80 -67v24q-36 -1 -72 -5h-139q0 9 3 25q0 12 12 31h-60q3 -21 4 -56h-207q-48 0 -69 5
v-45q18 4 51 7h225v-68zM510 467v68h137q12 0 48 -4q-48 -33 -102 -64h-83zM311 132l-47 4q-12 1 -23 1q6 -66 6 -79l-1 -200q-1 -15 -4 -24h46q-4 16 -5 56h493q0 -34 -4 -49h46q-3 27 -4 62l1 186q1 24 5 48q-33 -1 -68 -5h-441zM283 -74v69h493v-69h-493zM776 96v-67
h-493v67h493zM347 700l-243 1q-9 1 -17 2q-3 0 -14 3v-47q21 6 67 6h207q0 -6 -1 -24q0 -24 -4 -37h49l-4 37q0 12 -2 24h246q-1 -27 -3 -55q0 -3 -2 -5h49q0 1 -1 5l-4 55q249 0 256 -3q9 0 19 -3v47q-9 -3 -63 -6h-212q1 27 5 56l8 17h-57q1 -9 3 -14l2 -59h-246
q0 18 3 39q1 18 11 31h-57q0 -6 2 -11q0 -28 3 -59v0z" />
  </g>

</svg>
