<?xml version="1.0" standalone="no"?>
<!DOCTYPE svg PUBLIC "-//W3C//DTD SVG 1.1//EN" "http://www.w3.org/Graphics/SVG/1.1/DTD/svg11.dtd" >
<svg xmlns="http://www.w3.org/2000/svg" xmlns:xlink="http://www.w3.org/1999/xlink" version="1.1" viewBox="-10 0 1034 1024">
  <g transform="matrix(1 0 0 -1 0 820)">
   <path fill="currentColor"
d="M206 -106l-6 -68h50l-6 68v479q12 25 55 97q24 39 48 53q-37 19 -58 34q-10 -33 -31 -74q-24 -46 -68 -115q-9 -16 -23 -35l-48 -59q-36 -42 -72 -68q21 -4 51 -28q18 19 32 39q18 22 53 69q12 15 23 30v-422zM356 663q-264 3 -278 5q-1 1 -3 1v-47q24 3 38 4l243 1
q0 -40 -5 -81h49q0 7 -2 15q-3 51 -3 66h250l-4 -76q-1 -1 -2 -7h50q-4 34 -5 66v17l244 -1q21 0 33 -4v47q-18 -1 -35 -5l-242 -1v42q0 12 3 29q1 19 13 32h-61q3 -9 3 -16q1 -27 3 -45v-42h-250v40q0 13 3 30q1 19 13 32h-60q4 -49 5 -83v-19zM372 265q-21 3 -48 3
q-3 0 -16 3v-47q24 3 42 4l542 1q33 -1 68 -5v47q-18 -1 -35 -5l-191 -1q28 48 48 71q18 24 44 32q-21 13 -53 43q-43 -90 -87 -146h-314zM433 456q-21 3 -47 3q-3 0 -16 3v-47q30 4 59 5l443 -1l34 -4v47q-18 -1 -35 -5l-231 -1q9 12 25 23q-6 6 -49 55q-12 12 -47 42
q-16 -18 -31 -29l25 -22q15 -15 40 -43l22 -26h-192zM395 152q1 -19 2 -34q3 -24 3 -31l-3 -245q0 -9 -2 -18h48q-3 31 -4 55v26h376q-1 -33 -3 -67q-1 -3 -1 -8h48q0 9 -2 17q-3 66 -3 89q0 165 2 177q0 19 3 39q-36 -1 -72 -5l-342 1q-19 3 -50 4zM439 -59v170h376v-170
h-376zM479 395q-24 -19 -31 -24q30 -27 87 -98q15 18 30 26q-48 61 -86 96v0z" />
  </g>

</svg>
