<?xml version="1.0" standalone="no"?>
<!DOCTYPE svg PUBLIC "-//W3C//DTD SVG 1.1//EN" "http://www.w3.org/Graphics/SVG/1.1/DTD/svg11.dtd" >
<svg xmlns="http://www.w3.org/2000/svg" xmlns:xlink="http://www.w3.org/1999/xlink" version="1.1" viewBox="-10 0 1034 1024">
  <g transform="matrix(1 0 0 -1 0 820)">
   <path fill="currentColor"
d="M533 524l-444 1l-29 5v-48q18 6 67 6l820 -3q6 0 9 -3v48q-9 -3 -59 -6h-354q10 15 22 29q-22 12 -59 34q-33 19 -48 31q-15 -24 -24 -35q36 -18 54 -30zM430 170q-81 -72 -192 -120q-87 -36 -180 -42q27 -30 35 -52q102 34 210 82v-119q0 -27 -28 -39q13 -15 24 -32
q4 -7 9 -15q21 16 47 27l114 46q28 10 57 20q1 7 3 17q0 3 6 29q0 7 4 11q-15 -9 -32 -18l-48 -21q-60 -25 -118 -44v159q87 52 151 111l233 -1l50 -4q-4 24 -5 65v47q72 0 152 -3l2 -1q4 0 9 -1v46q-7 -3 -12 -3q-25 -1 -54 -3h-97l3 95q0 13 2 24q-34 -1 -69 -5l-426 1
q-19 3 -50 4q1 -34 5 -70v-49q-102 0 -133 2q-4 1 -7 1t-13 3v-46q54 4 78 5h75l-5 -112q57 4 87 5h113zM272 206v71h459v-71h-459zM272 312v78h459v-78h-459zM549 96q37 -40 71 -69q15 -12 33 -26l40 -27q93 -58 240 -109q18 33 37 55q-66 3 -126 22q-79 28 -129 65l81 62
q48 39 60 44q10 6 38 11l-44 34l-13 13q-9 -22 -37 -49q-16 -16 -45 -38q-30 -24 -73 -56q-66 45 -115 113q-13 -15 -34 -30q7 -7 16 -15zM333 679l-217 1q-9 1 -17 2q-3 0 -13 3v-47q18 6 66 6h181q0 -48 -3 -72q0 -6 -2 -16h49q-4 12 -5 57l-1 31h269q-3 -81 -5 -85h48
q-6 55 -5 85l233 -3q6 0 10 -3v47q-18 -6 -67 -6h-176q0 54 3 63q0 3 10 24h-56l2 -13q0 1 2 -24l1 -50h-269q0 58 3 64q3 15 10 26h-56q0 -6 2 -11q0 -36 3 -75v-4z" />
  </g>

</svg>
