<?xml version="1.0" standalone="no"?>
<!DOCTYPE svg PUBLIC "-//W3C//DTD SVG 1.1//EN" "http://www.w3.org/Graphics/SVG/1.1/DTD/svg11.dtd" >
<svg xmlns="http://www.w3.org/2000/svg" xmlns:xlink="http://www.w3.org/1999/xlink" version="1.1" viewBox="-10 0 1010 1000">
   <path fill="currentColor"
d="M313 -10q9 0 26 1q64 2 68 7q2 1 -2 11q-10 24 -10 41v32h222v-38q0 -32 -8 -56q96 -1 99 10q1 2 -2 6q-12 16 -12 44v34h102q86 -1 144 -10v75q-30 -5 -111 -4h-31h-104q0 48 8 72h-93q6 -20 6 -72h-220q0 37 6 72h-88q6 -22 6 -72h-97q-85 0 -157 10v-83q55 12 161 12
h93v-34q1 -45 -6 -58zM538 171l14 69h182q121 0 181 -7v79q-53 -7 -177 -8h-464q-91 0 -183 8v-79q52 7 177 7h212q-3 -5 -18 -37q-8 -17 -12 -26zM214 336q48 9 161 10h268q89 0 147 -8q-9 29 -6 119h49q68 0 102 -6v69q-14 -5 -37 -7q-12 0 -27 -1h-40h-47q0 59 1 82
q1 28 3 45h-28q70 36 75 54q-2 3 -10 5q-18 4 -37 13q-59 29 -96 53q83 43 246 50q-49 44 -65 95q-291 -67 -383 -272q-59 45 -113 78v93q37 -15 127 -66l14 82q-114 38 -220 99l-48 -73q2 -2 18 -10q29 -14 30 -20v-66q-125 62 -203 90q-10 -38 -67 -88q221 -19 365 -123
q-127 0 -175 6q9 -41 8 -125h-49q-69 2 -121 8v-71q36 8 123 8h43q0 -81 -8 -123zM302 401v56h402v-56h-402zM302 512v66h402v-66h-402zM563 633q34 62 74 94q91 -52 113 -88q-54 -6 -187 -6z" />
</svg>
