<?xml version="1.0" standalone="no"?>
<!DOCTYPE svg PUBLIC "-//W3C//DTD SVG 1.1//EN" "http://www.w3.org/Graphics/SVG/1.1/DTD/svg11.dtd" >
<svg xmlns="http://www.w3.org/2000/svg" xmlns:xlink="http://www.w3.org/1999/xlink" version="1.1" viewBox="-10 0 1010 1000">
   <path fill="currentColor"
d="M351 -10q83 0 86 6q1 2 -2 9q-8 17 -8 33v36h160v-32q1 -40 -6 -52q84 0 90 10q1 3 -2 7q-8 11 -8 31v36h129q64 0 143 -8v79q-54 -9 -137 -8h-135v64h95q100 0 139 -6v69q-19 -2 -49 -3q-15 -1 -35 -1h-53h-530q-1 -1 0 36q1 67 0 101h544q99 0 153 -6v76
q-30 -7 -161 -10q2 1 5 2q55 27 56 37q-2 2 -9 4q-34 9 -86 42q36 11 99 17q61 4 104 -1q-38 39 -46 81q-359 -54 -421 -182h-85v107q52 -17 111 -48l8 74q-126 40 -169 67q-4 3 -6 4l-35 -55q1 -2 7 -8q17 -16 18 -30v-111h-89q-20 247 -117 406q-30 -34 -81 -53
q78 -88 100 -186q27 -103 25 -316q0 -96 -6 -113l147 6h61v-64h-129q-107 0 -159 6v-77q29 5 61 7q15 0 36 1h58h133v-38q0 -14 -3 -41q-1 -3 -1 -5zM427 137v64h160v-64h-160zM837 298v65q-5 1 -29 0q-56 -3 -114 -3h-269q-96 0 -137 5v-69q52 8 139 8h261q96 0 149 -6z
M540 457q48 43 125 71q47 -30 77 -71h-202zM657 617q54 0 66 1q18 0 19 3q0 2 -2 7q-5 14 -4 39h56q81 0 129 -6v79q-54 -5 -123 -5h-60v111q4 48 -137 61q-6 -50 -34 -89q98 23 96 -16v-65h-223q2 10 24 50q20 36 24 47l-79 29q-29 -76 -50 -101l64 -25h-56q-98 0 -140 8
q-5 1 -7 1v-85q3 0 12 1q47 7 129 7h300q0 -40 -4 -52z" />
</svg>
