<?xml version="1.0" standalone="no"?>
<!DOCTYPE svg PUBLIC "-//W3C//DTD SVG 1.1//EN" "http://www.w3.org/Graphics/SVG/1.1/DTD/svg11.dtd" >
<svg xmlns="http://www.w3.org/2000/svg" xmlns:xlink="http://www.w3.org/1999/xlink" version="1.1" viewBox="-10 0 1010 1000">
   <path fill="currentColor"
d="M589 2q56 -1 78 4q19 4 6 26q-10 16 -10 24v56h174h8q78 1 101 -8v83q-32 -9 -107 -8h-172q-2 31 8 58h-90q12 -28 10 -58h-190q-1 41 8 59h-86q9 -15 8 -59h-156q-80 0 -123 8v-83q21 5 50 6q14 1 31 2h44h152q0 -50 -6 -92q-2 -10 -2 -14q46 -3 82 2q20 3 9 24
q-11 22 -11 38v42h188q0 -75 -4 -110zM581 246q31 4 84 22q17 7 -1 25q-25 25 -35 47h175q67 1 105 -8v75q-33 -6 -107 -6h-205q-53 88 -79 121q-35 -30 -78 -41q96 -94 141 -235zM355 264q17 -3 68 4q30 4 18 26q-10 18 -10 30v143q-1 68 7 93h-87q8 -17 8 -85v-131
q0 -38 -3 -67q-1 -9 -1 -13zM161 266q49 0 85 6q18 3 6 22t-12 32v135q-1 64 8 87h-91q9 -21 8 -89v-115q0 -44 -3 -72q-1 -5 -1 -6zM712 421q33 32 78 115l-74 38q-27 -60 -73 -117zM161 594q95 8 115 8h462q50 0 91 -6q0 4 -1 25q-3 46 -3 64v127q90 1 135 -8v85
q-26 -5 -57 -6q-14 -1 -32 -2h-44h-654q-101 0 -139 6v-79q40 9 135 8v-127q-1 -59 -8 -95zM435 669v145h125v-145h-125zM367 669h-127v145h127v-145zM623 669v145h125v-145h-125z" />
</svg>
