<?xml version="1.0" standalone="no"?>
<!DOCTYPE svg PUBLIC "-//W3C//DTD SVG 1.1//EN" "http://www.w3.org/Graphics/SVG/1.1/DTD/svg11.dtd" >
<svg xmlns="http://www.w3.org/2000/svg" xmlns:xlink="http://www.w3.org/1999/xlink" version="1.1" viewBox="-10 0 1034 1024">
  <g transform="matrix(1 0 0 -1 0 820)">
   <path fill="currentColor"
d="M177 -80q-84 0 -109 2q-24 3 -26 4v-47q30 4 59 5l813 -1q18 0 34 -4v47q-66 -6 -99 -6h-35l1 181q1 25 5 52l-71 -5l-526 1q-7 1 -16 2q-16 0 -35 2q1 -36 5 -74v-159zM214 -80v192h165v-192h-165zM418 -80v192h147v-192h-147zM604 -80v192h171v-192h-171zM336 663
l-280 5q-1 1 -2 1v-47q30 4 59 5h223q-3 -72 -5 -93h49q-6 58 -5 93h246l-1 -51q0 -3 -4 -39h49q-6 72 -5 90l244 -1q18 0 33 -4v47q-12 -3 -63 -6h-214q0 78 3 82q3 15 12 26h-59q1 -30 5 -60v-48h-246v45q0 12 3 29q1 18 12 32h-59q4 -49 5 -76v-30zM183 484q3 -9 3 -16
q1 -25 3 -45v-150q0 -39 -6 -67h50q0 7 -2 15q-3 51 -3 72q0 147 2 156q0 15 7 26q1 6 6 9h-60zM372 522q1 -6 6 -58l-1 -243q-1 -9 -2 -20q0 -6 -3 -15h51q-6 30 -6 59l1 235q0 13 5 24q1 10 9 18h-60zM825 388q24 0 52 -2q6 0 15 -3v47q-18 -1 -35 -5l-278 -1q7 15 15 28
q21 40 50 53q-28 10 -62 27q-36 -94 -98 -173q-28 -33 -58 -52q25 -7 53 -26q72 93 78 107h268zM690 312l-50 33q-15 -24 -28 -39q49 -24 80 -47q36 -25 80 -67q16 27 29 39q-13 12 -54 42z" />
  </g>

</svg>
