<?xml version="1.0" standalone="no"?>
<!DOCTYPE svg PUBLIC "-//W3C//DTD SVG 1.1//EN" "http://www.w3.org/Graphics/SVG/1.1/DTD/svg11.dtd" >
<svg xmlns="http://www.w3.org/2000/svg" xmlns:xlink="http://www.w3.org/1999/xlink" version="1.1" viewBox="-10 0 1010 1000">
   <path fill="currentColor"
d="M319 -12q10 0 29 1q71 2 71 7q1 2 -3 9q-17 29 -17 85h206v-17q0 -52 -6 -77q20 1 53 1q44 -1 44 3q1 2 -2 8q-15 29 -15 82h148q85 0 121 -6v77q-51 -8 -131 -8h-138q0 55 4 80h-82q5 -17 4 -80h-206q0 49 4 76h-82q5 -19 4 -76h-150q-69 -1 -125 8v-79q51 8 127 8h148
q0 -72 -6 -102zM77 250q45 6 115 6h120q81 0 111 -6v84q-38 -2 -143 127h40q100 2 144 -6q-31 102 -69 182q-34 -18 -74 -22q28 -42 52 -95h-85v238q2 66 -26 86q-24 22 -125 37q-2 -48 -42 -105q128 27 119 -57v-199h-26q-99 -2 -140 8v-73q22 3 60 5q18 0 41 1h59
q-62 -77 -81 -90l71 -25q25 40 44 63l21 -24q44 -49 58 -69h-131q-58 0 -113 6v-72zM927 248v74q-37 -9 -115 -6h-100q-22 53 -35 95h51q106 2 137 -6q-2 22 -3 58q-1 17 -1 41v68q0 73 1 96q1 30 3 45h-83q9 -36 8 -110v-13v-123h-240v139q0 82 6 121h-82q3 -18 3 -50
q1 -16 1 -38v-63v-51q1 -101 -4 -120q57 6 133 6q14 -51 22 -95h-52q-85 0 -137 6v-74q42 7 126 6h9h231q82 0 121 -6zM629 494q15 2 44 5q48 3 47 9q1 2 -2 9q-12 37 -20 102q-12 201 -289 286q-15 -42 -62 -83q212 -19 268 -153q9 -26 14 -77q4 -58 0 -98zM732 711
q84 41 220 125l-61 75q-124 -97 -210 -139z" />
</svg>
