<?xml version="1.0" standalone="no"?>
<!DOCTYPE svg PUBLIC "-//W3C//DTD SVG 1.1//EN" "http://www.w3.org/Graphics/SVG/1.1/DTD/svg11.dtd" >
<svg xmlns="http://www.w3.org/2000/svg" xmlns:xlink="http://www.w3.org/1999/xlink" version="1.1" viewBox="-10 0 1034 1024">
  <g transform="matrix(1 0 0 -1 0 820)">
   <path fill="currentColor"
d="M362 423l48 51q21 24 39 48q-24 -1 -41 -3q-25 -3 -39 -3l-232 1q-9 1 -17 2q-3 0 -13 3v-47q24 6 67 6h193q-39 -48 -96 -99q-39 27 -77 51q-7 -13 -23 -33q33 -19 60 -38l74 -61q13 18 28 30q-15 12 -32 27zM428 263q-18 -48 -33 -78q-15 -27 -23 -36l52 -4l40 99
l26 60q-19 -1 -37 -3q-27 -3 -59 -3l-303 1q-9 1 -17 2q-3 0 -13 3v-47q24 6 67 6h130v-354q0 -15 -10 -22q-12 -6 -41 -7q-19 0 -52 7q10 -21 18 -53l67 8q57 12 57 69v352h131zM688 249l1 -41q0 -39 -8 -92q-13 -90 -66 -146q-54 -52 -114 -71q-25 -7 -67 -11
q33 -33 42 -46q1 -1 3 -4q151 60 204 154q18 31 27 66q9 40 15 102q6 45 10 56q3 12 22 26zM943 531q-18 -6 -68 -6l-360 1q-9 1 -17 2q-6 0 -14 3v-47q27 4 66 5h139l-42 -134h-51q-9 0 -34 3q-10 1 -34 3l6 -70l-3 -255q-1 -3 -1 -7q0 -6 -2 -14h48q-3 16 -5 34l-1 270
h271q0 -258 -3 -291q-1 -1 -2 -11h49q-3 15 -4 34l-1 240q0 30 5 70q-72 -6 -106 -6h-90l46 134q171 0 182 -2q6 0 10 -1q-1 0 16 -2v47zM930 -147q9 13 14 16q3 3 7 6q-24 21 -54 46q-33 27 -82 65l-52 43q-4 -6 -9 -14q-9 -10 -20 -21q132 -90 187 -152q4 6 9 11zM346 659
l-237 1q-15 0 -31 5v-47q24 6 60 6h208q-3 -40 -5 -82h49q-6 19 -6 69v13h252q-3 -73 -5 -77h48q-3 39 -5 73v4l232 -1q27 0 37 -4q1 0 4 -1v47q-12 -3 -63 -6h-210q0 67 3 77q0 3 10 24h-56l2 -13l3 -88h-252v31q0 12 2 29q1 9 3 15q3 6 8 18h-56q0 -6 2 -11q0 -40 3 -82v0
z" />
  </g>

</svg>
