<?xml version="1.0" standalone="no"?>
<!DOCTYPE svg PUBLIC "-//W3C//DTD SVG 1.1//EN" "http://www.w3.org/Graphics/SVG/1.1/DTD/svg11.dtd" >
<svg xmlns="http://www.w3.org/2000/svg" xmlns:xlink="http://www.w3.org/1999/xlink" version="1.1" viewBox="-10 0 1010 1000">
   <path fill="currentColor"
d="M331 -23q90 -4 92 8q1 3 -4 9q-10 17 -10 34v24h168q0 -60 -2 -71q86 3 86 7q1 2 -2 6q-10 13 -10 34v24h129q84 0 141 -8v73q-33 -7 -139 -7h-133v57q145 -3 165 -8q-6 21 -6 105v24q-3 57 4 123q-51 -6 -203 -6h-145q-10 13 -25 35l-10 15h327q87 0 167 -8v69
q-41 -8 -201 -8q56 79 238 100q-37 43 -47 81q-158 -46 -228 -131q-13 40 -20 123q118 -1 158 -4q-4 36 -8 95q-5 107 -25 119q-28 22 -113 36q-7 -49 -30 -77q-4 0 -15 -1q-47 -5 -132 -5h-200q-131 0 -161 8v-76q51 10 157 10h204q105 0 149 -8v60q41 12 77 -2
q10 -1 16 -98h-288q-153 0 -170 6q0 -2 2 -7q4 -20 6 -50q2 -31 -2 -58q11 1 30 1q49 2 53 5q3 3 -2 10q-12 18 -14 38h234l4 -70h-164q-91 0 -129 6v-35q-101 72 -197 121q-33 -44 -81 -64q152 -34 272 -133h-80q-109 -1 -151 8v-69q79 8 149 8h127q9 -10 30 -37l12 -15
q-141 0 -194 6q0 -2 1 -5q6 -62 6 -108v-44q0 -72 -6 -93q61 8 147 8v-57h-133q-107 0 -148 7v-73q69 8 140 8h141q0 -63 -4 -75zM407 110v57h170v-57h-170zM268 219v43h462v-43h-462zM268 310v44h462v-44h-462zM647 508h-256q-11 8 -33 27q-16 14 -25 21h6q38 2 82 2h133
q76 0 125 -8q-20 -18 -32 -42z" />
</svg>
