<?xml version="1.0" standalone="no"?>
<!DOCTYPE svg PUBLIC "-//W3C//DTD SVG 1.1//EN" "http://www.w3.org/Graphics/SVG/1.1/DTD/svg11.dtd" >
<svg xmlns="http://www.w3.org/2000/svg" xmlns:xlink="http://www.w3.org/1999/xlink" version="1.1" viewBox="-10 0 1034 1024">
  <g transform="matrix(1 0 0 -1 0 820)">
   <path fill="currentColor"
d="M275 147q49 4 63 5h318l-15 -108h-290q3 24 7 47q0 10 17 28q-12 1 -20 2q-16 3 -36 10q-3 -21 -3 -42q-9 -42 -9 -59q-3 -15 -6 -27q33 3 69 5h421q-3 -36 -9 -71q-9 -51 -43 -62q-21 -4 -47 -5q-15 0 -53 12q10 -21 17 -55q51 3 80 7q24 4 40 13q40 18 52 128
q3 34 13 74q-37 -1 -76 -5h-86l21 133q1 7 3 16q-34 -1 -70 -5l-323 1l89 81h240q54 -63 122 -104q67 -40 190 -83q18 33 39 49q-48 3 -102 20q-118 36 -196 118l210 -1q12 0 33 -4v47q-4 0 -8 -1q-30 -1 -59 -5h-441q24 33 43 62l264 -1q21 -1 45 -5q-6 60 -6 86
q0 105 2 115q0 10 4 35l-101 -5h-26v68h218q24 0 53 -2q9 0 14 -4v48q-24 -4 -27 -5q-21 0 -40 -2h-218q0 30 6 65q1 9 7 16h-55q6 -60 6 -80v-1h-217q0 54 7 64q3 7 8 12h-57q1 -27 5 -57v-19l-236 1q-30 6 -53 6v-48q6 3 20 4q37 1 44 2h225v-68h-66q-9 0 -35 3
q-15 0 -33 2q1 -18 2 -31q3 -21 3 -66q0 -76 -2 -101q-3 -3 -3 -38q66 6 102 6h93q-24 -39 -44 -62l-290 3q-9 1 -18 3v-47q24 3 38 4l234 1q-73 -70 -159 -118q-76 -39 -137 -49q18 -15 38 -46q114 49 190 109v-19zM734 463v-59h-463v59h463zM271 499v58h463v-58h-463z
M616 661v-68h-217v68h217zM170 -100q30 4 59 5l443 -1q3 0 27 -4v47q-13 -3 -29 -5h-461l-39 5v-47z" />
  </g>

</svg>
