<?xml version="1.0" standalone="no"?>
<!DOCTYPE svg PUBLIC "-//W3C//DTD SVG 1.1//EN" "http://www.w3.org/Graphics/SVG/1.1/DTD/svg11.dtd" >
<svg xmlns="http://www.w3.org/2000/svg" xmlns:xlink="http://www.w3.org/1999/xlink" version="1.1" viewBox="-10 0 1034 1024">
  <g transform="matrix(1 0 0 -1 0 820)">
   <path fill="currentColor"
d="M300 224l45 4l158 1v-116q-252 0 -270 3q-3 0 -9 2v-47q18 6 66 6h213v-168h-132l32 22q-33 49 -79 108q-1 1 -2 3q-9 -9 -17 -13q-7 -6 -17 -10q49 -58 74 -110l-236 4q-3 1 -5 1v-46q33 3 66 5q696 0 719 -3l10 -2v46q-30 -1 -60 -5h-191l25 43q21 36 32 49q7 9 30 22
q-27 12 -55 34q-10 -30 -21 -50q-18 -39 -31 -63q-9 -18 -19 -35h-85v168q240 0 252 -2q6 0 16 -4v47q-10 -1 -22 -4l-246 -1v116l192 -5v38q54 -24 113 -48q57 -22 98 -35q15 30 32 51q-61 -1 -174 43q-144 63 -264 176h336q-3 -108 -5 -120h48q-3 15 -4 39l-1 58
q1 31 5 64q-30 -1 -59 -5l-690 1q-19 3 -44 4q1 -31 5 -64q0 -63 -3 -92q-1 -6 -2 -14h47q-6 43 -5 72v57h313q-52 -54 -141 -120q-57 -40 -101 -67q-43 -24 -72 -37q-61 -27 -106 -30q24 -22 40 -45q93 42 201 105v-31zM673 265l-325 1q-6 1 -29 2q27 16 87 64
q54 43 104 89q78 -75 211 -153zM379 646h-213q-46 0 -65 5v-46q22 3 47 5h231q-3 -87 -5 -101h48q0 1 -1 5q-3 7 -4 36v60h211q0 -63 -3 -87l-2 -10h48q-6 60 -5 95v2q234 0 257 -3l10 -2v46q-6 0 -12 -3q-25 0 -50 -2h-205q0 78 3 86q1 15 10 27h-56q4 -109 5 -113h-211
q0 79 3 85q3 18 10 29h-56l5 -111v-3z" />
  </g>

</svg>
