<?xml version="1.0" standalone="no"?>
<!DOCTYPE svg PUBLIC "-//W3C//DTD SVG 1.1//EN" "http://www.w3.org/Graphics/SVG/1.1/DTD/svg11.dtd" >
<svg xmlns="http://www.w3.org/2000/svg" xmlns:xlink="http://www.w3.org/1999/xlink" version="1.1" viewBox="-10 0 1010 1000">
   <path fill="currentColor"
d="M312 -6q31 3 67 3q24 0 26 3q3 3 -1 20q-11 40 -11 80h182q0 -50 -1 -68q-1 -23 -3 -36q89 -3 98 6q1 3 -3 14q-15 38 -15 84h188q62 1 99 -6v79q-32 -6 -99 -6h-186q1 9 1 21q0 18 5 33q37 3 39 10q-1 4 -4 9q-10 12 -11 36h87q60 0 107 -6v76q-42 -6 -103 -6h-91v87
h132h10q74 1 108 -6v75q-31 -7 -116 -6h-347q-80 -3 -125 6v-75q36 6 93 6v-54v-9q1 -78 -5 -116q86 0 89 10q0 1 -1 6q-13 31 -13 105v58h105v-91q0 -48 -6 -101h-40q8 -28 8 -68h-182q0 39 8 70h-80q6 4 15 8q7 3 5 5q-1 2 -7 6q-60 36 -215 193q-25 -28 -75 -52
q119 -68 214 -200q27 18 55 36q5 -17 4 -50v-16h-154q-82 -3 -123 6v-79q49 6 127 6h150q0 -73 -5 -106zM280 350q78 42 79 53q0 2 -7 7q-39 24 -90 88v276q-3 72 6 125h-81q6 -39 5 -110v-19v-196q-10 12 -47 49q-29 30 -50 52q-20 -24 -63 -56q143 -95 248 -269zM597 506
q76 -3 88 4q1 2 -2 10q-12 35 -12 88h99q50 0 70 -1q24 -1 37 -5v73q-25 -6 -107 -6h-99v117q118 14 262 0q-31 37 -42 95q-269 -16 -320 -45q-66 -29 -119 -113q-4 8 -12 27q-33 75 -61 125q-48 -28 -91 -33q126 -118 129 -314q15 2 43 5q51 5 50 9q1 3 -3 10
q-17 29 -29 87q48 102 125 135v-143q0 -81 -6 -125z" />
</svg>
