<?xml version="1.0" standalone="no"?>
<!DOCTYPE svg PUBLIC "-//W3C//DTD SVG 1.1//EN" "http://www.w3.org/Graphics/SVG/1.1/DTD/svg11.dtd" >
<svg xmlns="http://www.w3.org/2000/svg" xmlns:xlink="http://www.w3.org/1999/xlink" version="1.1" viewBox="-10 0 1034 1024">
  <g transform="matrix(1 0 0 -1 0 820)">
   <path fill="currentColor"
d="M237 -101q-3 -33 -3 -52q0 -6 -2 -16h49q-3 15 -4 28q0 22 -2 40v385q31 39 54 70q28 42 63 50q-28 15 -57 35q-66 -123 -184 -225q-63 -51 -98 -67q10 -3 17 -8l24 -16q3 -1 7 -6q18 15 71 63l65 62v-343zM353 682l-279 5q-1 1 -3 1v-47q-3 0 9 1q3 0 11 1q19 0 44 3
h218q-3 -73 -5 -94h49q-3 31 -5 63v31h252q-3 -72 -5 -90h49q-3 31 -5 63v27l253 -1q6 0 26 -4v47q-18 -1 -35 -5l-244 -1q0 48 3 65q1 18 13 30h-60q4 -49 5 -84v-11h-252v31q0 12 3 30q1 18 12 31h-59q4 -49 5 -75v-17zM171 357q-4 33 -5 83v34h702q0 -54 -4 -75
q0 -4 -1 -7h49q-3 6 -5 55l4 55q0 6 1 13q-36 -1 -71 -5h-284q7 15 25 30q-63 48 -112 81q-3 -3 -8 -12q-9 -10 -20 -23q54 -27 106 -76l-377 1q-19 3 -48 4q1 -27 5 -56q-3 -84 -3 -93q-1 -6 -2 -9h48zM677 331l237 -1q4 0 25 -5v48q-27 -3 -33 -6l-508 1l-14 2q-3 0 -17 3
v-48q48 6 63 6h199q-22 -40 -62 -105q-82 0 -108 2q-7 3 -36 4h-3q1 -21 2 -35q3 -24 3 -35l-1 -288q-1 -3 -2 -22q-1 -3 -2 -18h47q-3 24 -4 52v37h352q-1 -39 -3 -80q-1 -1 -1 -4h48q-4 45 -5 75l1 268l4 50q-21 -1 -39 -3q-27 -3 -35 -3h-168l48 84zM463 -42v98h352v-98
h-352zM463 92v98h352v-98h-352z" />
  </g>

</svg>
