<?xml version="1.0" standalone="no"?>
<!DOCTYPE svg PUBLIC "-//W3C//DTD SVG 1.1//EN" "http://www.w3.org/Graphics/SVG/1.1/DTD/svg11.dtd" >
<svg xmlns="http://www.w3.org/2000/svg" xmlns:xlink="http://www.w3.org/1999/xlink" version="1.1" viewBox="-10 0 1010 1000">
   <path fill="currentColor"
d="M308 -12q101 -1 93 6q-18 33 -18 76h218q0 -24 -6 -80q58 0 93 2q-19 36 -17 76h160q43 0 109 -8v87q-23 -7 -107 -10h-160q1 41 10 74h-92q10 -39 12 -72h-218q0 19 5 65q1 5 1 7h-81q8 -37 5 -72h-146q-69 1 -119 10v-89q62 8 117 10h146q-2 -61 -5 -82zM530 167
q5 10 12 29q11 30 20 44h279q20 1 90 -7q-14 77 -2 130h-90q8 -42 6 -59h-676q0 11 4 56q2 10 2 15h-90q18 -70 0 -140q31 5 92 5h307q-10 -17 -44 -55zM250 314q89 36 97 44q1 2 -8 7q-17 11 -27 22q-2 2 -5 7q-32 45 -51 67v305q0 88 12 143h-99q9 -49 10 -139v-198
q-23 25 -75 73q-11 11 -17 16q-20 -30 -57 -65q157 -106 220 -282zM357 373q60 8 107 8h314q47 1 109 -8v78q-43 -9 -113 -10h-139l-28 65h149q30 0 87 -6q-6 36 -6 82v210q2 59 10 109h-91q8 -40 8 -57h-300q2 39 8 59h-99q8 -47 10 -119v-210q0 -40 -6 -76q51 8 79 8h76
l24 -65h-92q-67 -1 -107 6v-74zM762 566h-306v75h306v-75zM458 701v83h304v-83h-304z" />
</svg>
