<?xml version="1.0" standalone="no"?>
<!DOCTYPE svg PUBLIC "-//W3C//DTD SVG 1.1//EN" "http://www.w3.org/Graphics/SVG/1.1/DTD/svg11.dtd" >
<svg xmlns="http://www.w3.org/2000/svg" xmlns:xlink="http://www.w3.org/1999/xlink" version="1.1" viewBox="-10 0 1010 1000">
   <path fill="currentColor"
d="M585 -17q83 1 94 9q1 3 -4 10q-18 24 -18 60h180q73 0 115 -10v69q-29 -7 -115 -8h-180v54h47q18 0 72 -5q19 -2 30 -3q-8 54 -8 89v78q0 40 8 77q-72 -9 -102 -8h-406q-36 -3 -94 6q8 -48 8 -79v-85q1 -33 -8 -78q43 8 82 8h61v-54h-176q-69 1 -108 8v-69q41 9 108 10
h176q0 -46 -6 -77q29 -3 59 -2q31 1 35 5q1 3 -4 10q-18 28 -18 64h178q-1 -1 -1 -17q-1 -39 -5 -62zM415 113v54h174v-54h-174zM284 219v37h442v-37h-442zM284 308v36h442v-36h-442zM119 427q50 8 147 8h446q86 0 177 -8q-11 39 -8 63v62q0 33 8 54q-36 -5 -84 -7
q-44 -2 -79 -1h-482q-44 -4 -125 8l3 -18q5 -36 5 -48v-53q0 -30 -8 -60zM194 487v59h159v-59h-159zM421 487v59h162v-59h-162zM651 487v59h162v-59h-162zM198 627q51 9 127 10h298q28 0 119 -4q49 -3 77 -4q-75 89 -252 175q113 18 192 21q81 4 179 -3q-41 35 -59 91
q-220 -15 -399 -75q-198 57 -365 75q-14 -42 -65 -89q36 5 78 6q43 1 91 -2q104 -7 190 -28q-7 -4 -33 -17q-64 -33 -98 -52l47 -36q-85 1 -127 8v-76zM651 693h-296q66 50 139 81q99 -46 157 -81z" />
</svg>
