<?xml version="1.0" standalone="no"?>
<!DOCTYPE svg PUBLIC "-//W3C//DTD SVG 1.1//EN" "http://www.w3.org/Graphics/SVG/1.1/DTD/svg11.dtd" >
<svg xmlns="http://www.w3.org/2000/svg" xmlns:xlink="http://www.w3.org/1999/xlink" version="1.1" viewBox="-10 0 1034 1024">
  <g transform="matrix(1 0 0 -1 0 820)">
   <path fill="currentColor"
d="M101 -127q60 99 77 194q21 129 27 266l317 -1q22 0 46 -3q-4 52 -5 105q0 39 4 73q0 4 1 8q-66 -6 -84 -6l-276 1q-7 1 -50 5q4 -42 7 -64l1 -40v-76q0 -24 -2 -45q-3 -67 -10 -125q-12 -132 -64 -224q-18 -28 -44 -54q22 0 35 -7q10 -3 20 -7zM205 371v102h319v-102
h-319zM372 668l-250 2q-7 1 -13 1q-7 1 -16 3v-47q-3 0 9 1q3 0 10 1q21 0 44 3h216l-1 -56q-3 -21 -2 -20q-1 -6 -3 -15h50q0 7 -2 15q-3 51 -3 76h229l-5 -87h49q0 7 -2 15q-3 51 -3 72l254 -1q13 0 34 -4v47q-9 0 -16 -3q-18 0 -52 -3h-220v47q0 12 3 30q1 18 12 31h-59
q4 -49 5 -76v-32h-229v43q0 12 3 30q1 18 12 31h-60q6 -60 6 -81v-23zM233 -66l39 48q25 30 35 44q13 21 35 32q-15 4 -24 9q-9 4 -27 16q-39 -82 -110 -146q7 -3 11 -5q12 -6 28 -17q6 10 13 19zM433 127q129 0 138 -3q6 0 12 -3v48q-3 0 -8 -2q-10 -1 -27 -4h-276
q-42 4 -49 6v-48q9 3 33 4q13 1 31 2h107v-183q0 -24 -19 -34q-15 -6 -42 -6q-22 0 -46 5q10 -16 20 -50q36 1 59 6q43 9 57 27q9 15 10 55v180zM262 228q10 1 32 3l183 2q33 -1 68 -5v47q-18 -1 -35 -5h-209q-16 1 -26 2q-6 3 -13 3v-47zM589 -58q15 9 23 16q-15 21 -35 46
q-25 30 -72 79q-16 -16 -32 -27q13 -10 54 -54q30 -36 53 -68q4 4 9 8zM801 334l-190 3l-11 3v-47q34 4 64 5h137v-352q0 -34 -16 -43q-18 -9 -52 -9q-22 0 -54 5q12 -18 23 -54q27 1 54 8q48 10 64 22q19 19 20 77v346q115 0 125 -3q4 0 7 -2v47q-10 -1 -22 -4l-89 -2h-21
v151q0 13 3 30q1 19 12 32h-59q4 -49 5 -82v-131zM611 187q12 -12 51 -60l49 -74q3 3 20 16q6 3 14 8q-31 55 -105 136q-6 -3 -29 -26v0z" />
  </g>

</svg>
