<?xml version="1.0" standalone="no"?>
<!DOCTYPE svg PUBLIC "-//W3C//DTD SVG 1.1//EN" "http://www.w3.org/Graphics/SVG/1.1/DTD/svg11.dtd" >
<svg xmlns="http://www.w3.org/2000/svg" xmlns:xlink="http://www.w3.org/1999/xlink" version="1.1" viewBox="-10 0 1034 1024">
  <g transform="matrix(1 0 0 -1 0 820)">
   <path fill="currentColor"
d="M846 464q18 0 52 -2q9 0 15 -3v46l-67 -6h-253q6 12 14 20q-15 12 -30 26l-50 34l-32 21q-9 -12 -15 -24q-3 -4 -10 -13q18 -6 49 -26l40 -29q3 -1 13 -9l-323 1q-24 4 -48 5l6 -86q1 -33 2 -64l-2 -107l-7 -97q-13 -114 -65 -185q-27 -33 -73 -60q31 -9 55 -28
q105 123 121 270q3 42 6 112l2 204h600zM365 672l-253 5q-3 1 -4 1v-46q7 1 62 5h195q-3 -96 -5 -107h48q0 7 -2 16q-3 51 -3 75v16h263l-3 -98q-1 -3 -2 -9h47q-3 48 -4 89v18l213 -1l34 -4v46q-9 0 -17 -3q-18 -3 -74 -3h-156v44q0 12 3 29q1 18 12 31h-58q0 -9 2 -16
q0 1 2 -23l1 -65h-263q0 54 2 62q0 21 14 39h-59q4 -21 5 -60v-41zM390 53l-30 21q-13 -30 -38 -65q-54 -76 -96 -113q13 -6 36 -30q4 6 13 18q3 4 7 9q18 22 38 47q61 85 67 88q6 6 21 12q-9 7 -18 13zM432 320l-151 3q-4 1 -11 3v-46q30 4 75 5h87q0 -105 -2 -133
q-3 -3 -3 -37q31 3 65 5l214 -1q12 0 45 -4q-4 54 -5 79v91q187 0 198 -3q4 0 7 -2v46q-10 -1 -22 -4l-82 -2h-101q0 81 3 86q1 13 12 24h-57l4 -50v-60h-238v47q0 13 3 29q1 18 12 32h-58q4 -27 5 -61v-47zM708 155h-238v130h238v-130zM493 -48q3 -6 5 -15q7 -24 15 -61
q7 6 17 10q12 3 16 5q3 0 9 2q-9 30 -23 67q-3 7 -7 18q-12 36 -28 74l-39 -16zM628 62q18 -36 38 -81q18 -48 26 -85q18 10 44 17q-3 12 -8 24q-13 34 -29 69q-10 27 -19 43q-4 12 -14 28q-1 0 -4 -2q-3 -1 -8 -4l-1 -1l-19 -6q-3 0 -6 -2zM921 -107q15 12 27 20l-113 149
l-33 40q-10 -12 -34 -32q13 -9 23 -20l53 -63q21 -27 38 -56q18 -27 28 -47q4 4 11 9v0z" />
  </g>

</svg>
