<?xml version="1.0" standalone="no"?>
<!DOCTYPE svg PUBLIC "-//W3C//DTD SVG 1.1//EN" "http://www.w3.org/Graphics/SVG/1.1/DTD/svg11.dtd" >
<svg xmlns="http://www.w3.org/2000/svg" xmlns:xlink="http://www.w3.org/1999/xlink" version="1.1" viewBox="-10 0 1034 1024">
  <g transform="matrix(1 0 0 -1 0 820)">
   <path fill="currentColor"
d="M689 281q-10 -1 -22 -4q-12 0 -45 -2l-231 1l-24 2q-3 0 -16 3v-47q30 4 64 5l248 -1q6 0 26 -4v47zM356 676l-273 5q-3 1 -5 1v-47q9 0 20 2q19 0 44 3h214q-3 -66 -5 -83h49q-4 54 -5 83h224q-3 -63 -5 -76q-1 -1 -1 -3h50l-4 40l-1 39l274 -1q6 0 26 -4v47
q-21 -1 -41 -5l-259 -1q0 66 3 69q3 15 12 26h-60q3 -9 3 -16q1 -25 3 -45v-34h-224q0 45 3 62q1 18 13 29h-60q4 -49 5 -85v-6zM178 -150l78 57q96 81 111 90q15 10 35 16q3 1 9 2q-10 9 -19 18q-18 19 -28 30q-25 -33 -82 -84q-76 -63 -143 -91q12 -7 29 -26q4 -6 10 -12z
M541 113l253 -1q15 0 27 -4v47q-48 -6 -68 -6l-513 5q-1 1 -3 1v-47q30 4 64 5h201v-194q0 -24 -12 -31q-22 -12 -49 -12q-7 0 -49 8q9 -18 12 -23q3 -9 11 -29q13 0 29 3q46 4 68 17q28 15 29 63v198zM620 506q-34 3 -70 5q88 -219 305 -344l75 -43q13 21 44 46
q-25 0 -83 26q-82 39 -138 89q85 121 137 226q-31 -1 -64 -5h-206zM824 471q-48 -96 -99 -157q-69 63 -112 157h211zM641 22q49 -25 101 -60q81 -57 117 -107q15 25 35 44q-27 22 -72 55l-153 104q-10 -16 -28 -36zM281 482q7 10 15 19q25 37 51 49q-25 7 -39 14q-3 0 -6 3
q-3 0 -12 5q-18 -46 -79 -116q-63 -67 -116 -90q28 -18 43 -32q31 25 70 64q18 21 49 49h175q-19 -33 -33 -52q-10 -15 -26 -32q-9 6 -20 17q-42 27 -49 35l-3 3q-9 -15 -22 -29q-3 -3 -6 -7q15 -6 34 -20q3 -1 6 -5q21 -12 34 -23q-33 -37 -62 -62q-9 10 -18 19
q-15 12 -31 28q-10 10 -25 22q-3 -7 -29 -33q12 -6 44 -32q3 -3 8 -7q12 -9 23 -19q-19 -18 -37 -28q-22 -13 -62 -34q-60 -30 -114 -39q22 -18 43 -45q142 63 250 165q87 84 165 218q-34 -1 -70 -5h-151z" />
  </g>

</svg>
