<?xml version="1.0" standalone="no"?>
<!DOCTYPE svg PUBLIC "-//W3C//DTD SVG 1.1//EN" "http://www.w3.org/Graphics/SVG/1.1/DTD/svg11.dtd" >
<svg xmlns="http://www.w3.org/2000/svg" xmlns:xlink="http://www.w3.org/1999/xlink" version="1.1" viewBox="-10 0 1010 1000">
   <path fill="currentColor"
d="M325 -25q87 2 100 8q1 3 -6 13q-12 18 -12 30v28h184v-34q0 -5 -1 -19q-1 -17 -1 -24q59 0 75 1q21 2 21 7q0 2 -4 9q-10 17 -10 36v24h107q118 -1 176 -10v87q-62 -9 -172 -8h-111q0 45 6 78h-94q0 -1 1 -4q7 -26 7 -74h-184q0 53 8 80h-94q8 -33 8 -80h-127
q-112 0 -150 6v-83q59 8 150 8h127v-38q0 -8 -3 -31q-1 -7 -1 -10zM260 175q25 37 58 88q17 26 23 35l-77 40q-24 -62 -76 -127zM387 213q2 0 12 1q62 9 151 9h158q115 0 167 -8q0 3 -1 8q-5 24 -5 121v498q10 61 -157 79q2 -51 -33 -103q120 26 111 -36v-496h-242
q-104 0 -161 10v-83zM560 304q4 8 14 25q21 35 29 54l-63 24h67q67 0 121 -6v66q-65 -6 -159 -6v53q90 0 139 -6v66q-41 -6 -139 -6v55q89 0 141 -8v66q-35 -8 -141 -8v62q97 0 159 -8v71q-53 -9 -137 -8h-204q0 45 6 73h-89q13 -55 13 -162v-191q-13 24 -42 63
q-9 14 -13 19q-22 -23 -60 -36v188q0 111 6 161h-95q10 -53 10 -143v-289v-104q-1 -33 -2 -47q84 5 99 12q1 3 -3 8q-15 15 -15 45v161q114 -103 163 -240q77 22 85 32q-2 3 -8 7q-23 15 -53 60h135q-3 -28 -36 -81zM502 463h-117v51h117v-51zM385 566v55h117v-55h-117z
M385 673v62h117v-62h-117z" />
</svg>
