<?xml version="1.0" standalone="no"?>
<!DOCTYPE svg PUBLIC "-//W3C//DTD SVG 1.1//EN" "http://www.w3.org/Graphics/SVG/1.1/DTD/svg11.dtd" >
<svg xmlns="http://www.w3.org/2000/svg" xmlns:xlink="http://www.w3.org/1999/xlink" version="1.1" viewBox="-10 0 1034 1024">
  <g transform="matrix(1 0 0 -1 0 820)">
   <path fill="currentColor"
d="M367 675l-268 1q-10 1 -23 2q-9 1 -17 3v-47q-3 0 9 1q3 0 10 1q21 0 46 3h243q-3 -75 -5 -95h50q0 7 -2 15l-4 49v31h215q-3 -75 -5 -95h48q-3 48 -4 88v7l275 -1q6 0 26 -4v47q-18 -1 -35 -5l-266 -1v39q0 12 3 30q1 18 12 31h-59q4 -49 5 -74v-26h-215q0 70 3 74
q3 15 13 26h-60q4 -49 5 -74v-26zM124 343l6 -64l-1 -376q-1 -9 -2 -36q0 -6 -3 -15h50q0 7 -2 15q-3 54 -3 105v330h140l-1 -342l-4 -50h49q0 7 -2 16q-1 25 -3 52v324h142v-347q0 -36 -41 -36q-24 0 -55 7q12 -27 18 -54q36 4 74 9q4 1 9 4q33 13 34 64l1 345q1 24 5 49
q-72 -4 -109 -5h-78v141q0 13 2 30q1 16 11 32h-57q4 -60 5 -71v-132l-135 1q-24 3 -50 4zM121 484q27 -21 47 -42q24 -27 60 -69q10 15 32 30q-24 30 -89 95l-18 18q-13 -15 -26 -26zM177 45q27 -6 44 -18l39 90q18 48 24 57q6 13 23 29q-30 6 -51 17q-30 -114 -79 -175z
M438 49l36 28q-57 102 -85 136q-15 -15 -33 -25q27 -33 54 -85l18 -38zM400 404q15 -6 34 -26q36 33 61 61q27 30 36 35q9 7 30 14l-50 37q-49 -73 -111 -121zM887 375q33 -1 68 -5v47q-18 -1 -35 -5l-243 -1l12 30q6 12 11 27q16 39 27 46q7 9 25 18q-30 6 -67 24
q-13 -51 -30 -93q-15 -37 -33 -76q-51 -93 -89 -131q27 -6 47 -19q22 33 45 71q22 45 37 67h149q-3 -60 -17 -137q-15 -78 -53 -160q-30 42 -56 103q-21 54 -22 105q-3 -1 -5 -3q-4 -3 -11 -5q-12 -3 -36 -13q60 -151 64 -155q15 -30 30 -50q4 -6 11 -15q-40 -54 -89 -98
q-66 -54 -130 -69q27 -16 49 -38q58 39 101 73q42 36 97 95q63 -79 178 -154q18 25 47 42q-24 7 -48 19l-48 29q-63 42 -107 101q33 54 55 132q19 76 32 198h34z" />
  </g>

</svg>
