<?xml version="1.0" standalone="no"?>
<!DOCTYPE svg PUBLIC "-//W3C//DTD SVG 1.1//EN" "http://www.w3.org/Graphics/SVG/1.1/DTD/svg11.dtd" >
<svg xmlns="http://www.w3.org/2000/svg" xmlns:xlink="http://www.w3.org/1999/xlink" version="1.1" viewBox="-10 0 1034 1024">
  <g transform="matrix(1 0 0 -1 0 820)">
   <path fill="currentColor"
d="M85 -115q15 -28 25 -55q93 12 154 35q135 58 158 194l7 41q3 15 16 29q-33 3 -64 5q3 -21 3 -31q0 -57 -20 -102q-30 -69 -133 -103q-48 -15 -102 -15q-12 1 -44 2zM132 143q7 -19 16 -32q30 27 59 39q1 1 6 3q49 25 101 51l8 60q-24 -24 -74 -52q-45 -24 -66 -33v283
l33 7l71 14q21 1 47 6q-13 13 -26 30q-6 12 -13 19q-22 -16 -57 -26q-66 -16 -97 -17l4 -66l-1 -245q-3 -4 -5 -12q-4 -7 -15 -15q4 -6 9 -14zM359 244q0 -12 -6 -73q24 4 62 5q189 0 205 -2q21 0 42 -3q-4 60 -5 120q0 144 2 158q0 19 3 40q-18 -1 -35 -3q-27 -3 -37 -3
h-91q18 49 25 58q6 10 26 20q-40 12 -64 24q-3 -33 -27 -102q-48 0 -99 5q-4 1 -7 1q6 -60 6 -92v-153zM396 212v99h223v-99h-223zM396 347v100h223v-100h-223zM740 -112l-65 2q-31 0 -43 8q-12 7 -13 38l1 150l4 26q3 6 8 18h-56l4 -34q0 -183 3 -197q1 -16 10 -26
q16 -16 57 -20q27 -3 98 -3q87 0 116 11q33 13 53 65q3 6 5 13q3 15 12 42q-27 15 -47 30q-3 -37 -7 -57q-3 -15 -7 -26q-18 -39 -103 -40h-30zM863 436q1 33 5 65q-66 -6 -99 -6l-74 4q-3 1 -5 2v-47q25 4 66 5h69v-276l-103 1q-15 0 -31 5v-47q21 6 70 6l84 -4q10 0 23 -2
q-3 39 -5 77v217zM347 659l-238 1q-15 0 -31 5v-47q21 6 67 6h202q-3 -84 -5 -101h49q-3 13 -6 48v53h246q-3 -97 -5 -101h49l-4 30q-1 27 -2 71l269 -3q6 0 10 -3v47q-6 -1 -59 -6h-220q0 85 3 88q0 9 7 21q0 1 3 4h-56q1 -30 5 -60v-53h-246q0 78 3 86q0 3 10 24h-56
q0 -6 2 -11q0 -36 3 -73v-26z" />
  </g>

</svg>
