<?xml version="1.0" standalone="no"?>
<!DOCTYPE svg PUBLIC "-//W3C//DTD SVG 1.1//EN" "http://www.w3.org/Graphics/SVG/1.1/DTD/svg11.dtd" >
<svg xmlns="http://www.w3.org/2000/svg" xmlns:xlink="http://www.w3.org/1999/xlink" version="1.1" viewBox="-10 0 1034 1024">
  <g transform="matrix(1 0 0 -1 0 820)">
   <path fill="currentColor"
d="M457 392l-34 25q-33 21 -89 64q12 12 31 22l-58 27q-6 -19 -19 -46q-36 -57 -91 -117q-81 -81 -143 -98q10 -6 23 -14q21 -12 29 -21q24 18 63 54q31 27 59 58q15 15 34 39q21 25 50 62q42 -27 79 -53l98 -79q10 21 24 34q-3 3 -10 7zM324 -54q-6 -3 -12 -4l-106 -25
q-36 -9 -61 -12q-21 -3 -51 -4q12 -21 18 -53q24 10 42 15q9 1 24 6q118 33 127 35l213 52q3 21 13 52q-27 -12 -67 -23q-36 -12 -67 -18q0 6 26 67q0 4 25 59q9 18 17 39q12 31 19 40q6 9 29 21l-70 26q-3 -39 -24 -101q-34 -90 -69 -164q-13 -3 -26 -8zM153 146
q-3 0 -10 -5l37 -85l18 -53q6 -15 12 -27q3 1 7 5q3 0 6 3q3 1 23 10l-35 85q-16 45 -33 78q-9 -4 -25 -11zM205 262q18 6 66 6q145 0 155 -2q10 0 20 -4v47q-7 -1 -58 -6q-135 0 -163 2q-4 1 -7 1t-13 3v-47zM263 179q9 -24 34 -76l24 -68q7 3 13 8q10 4 24 13
q-9 25 -26 64l-47 105q-15 -10 -34 -19zM526 -145q57 36 99 66q39 33 91 82q51 -52 93 -87l23 -17q25 -18 81 -52q1 -1 4 -3q13 18 49 42q-49 12 -88 34q-84 45 -134 114q24 42 48 94q16 43 27 77q9 33 21 94q4 18 8 37q37 0 76 -3q6 0 9 -2v47q-7 -1 -58 -6h-242
q36 76 48 94q10 18 35 28q-33 10 -50 18q-6 3 -17 7q-3 -18 -11 -43q-10 -27 -32 -69q-30 -60 -57 -98q-21 -30 -54 -51q27 -7 56 -21q6 12 15 25q12 19 26 38q10 18 21 36h192q-15 -150 -90 -268q-42 66 -52 95q-25 66 -30 94q-19 -10 -47 -17l53 -119q18 -36 49 -89
q-45 -48 -105 -93q-66 -42 -127 -56q40 -27 52 -40zM357 655l-244 1q-33 3 -42 6v-48q18 6 67 7h219l-4 -83q-1 -1 -1 -6h49q-4 18 -5 44l-1 45h239q-3 -78 -5 -81h48q-4 57 -5 81l248 -1q24 0 34 -3q3 0 5 -2l2 -1v48q-6 -1 -37 -5q-18 0 -30 -2h-222q0 90 3 93q3 13 10 26
h-56q1 -30 5 -61v-58h-239q0 82 3 89q3 13 10 26h-56l4 -34z" />
  </g>

</svg>
