<?xml version="1.0" standalone="no"?>
<!DOCTYPE svg PUBLIC "-//W3C//DTD SVG 1.1//EN" "http://www.w3.org/Graphics/SVG/1.1/DTD/svg11.dtd" >
<svg xmlns="http://www.w3.org/2000/svg" xmlns:xlink="http://www.w3.org/1999/xlink" version="1.1" viewBox="-10 0 1010 1000">
   <path fill="currentColor"
d="M323 -4q87 -2 102 8q1 2 -4 11q-22 37 -22 85h198q0 -14 -1 -45q-1 -37 -1 -57q32 -1 45 -2h26q20 1 22 6q2 4 -3 15q-16 33 -16 83h113q103 -2 158 -10v79q-32 -6 -152 -6h-119q-1 59 8 75h-90q8 -25 8 -75h-196q0 25 6 54q2 11 2 14h-90q0 -4 3 -18q5 -29 5 -50h-131
q-101 2 -144 8v-79q53 7 140 8h137q0 -54 -3 -92q-1 -9 -1 -12zM530 221q18 24 49 135l-77 25q-17 -99 -38 -135zM764 246q37 37 107 142q11 15 16 23l-79 54q-47 -108 -114 -175zM187 262q64 9 79 18q-18 45 -58 193q-27 -7 -82 -15q-3 -1 -5 -1q41 -72 66 -195zM321 268
q96 -4 100 8q2 3 -6 12q-18 24 -18 46v63q-5 38 40 42q42 6 105 3q52 -4 71 -15q21 -7 28 -95q42 39 83 53q-25 85 -63 109q-19 12 -99 15q-104 4 -171 -3q-64 -14 -66 -65v-107q0 -8 -2 -36q-1 -19 -2 -30zM736 504q41 81 66 177l-78 22q-3 -69 -49 -177zM292 510
q32 62 75 165l-61 28q-18 -82 -68 -175zM427 568q31 73 53 155l-67 19q-14 -100 -50 -160zM879 576q43 69 89 220l-79 30q-27 -126 -76 -228zM175 590q81 3 83 14q1 4 -4 14q-16 31 -16 69v67q0 40 4 49q4 12 20 13q46 5 61 -10q16 -18 26 -79q31 39 72 49q-26 98 -88 107
q-30 7 -80 3q-43 -5 -59 -17q-19 -16 -19 -61v-218zM75 592q58 11 70 20q-2 11 -6 32q-17 101 -40 196q-46 -13 -75 -18q47 -92 51 -230zM603 592q69 5 78 12q0 1 -3 5q-11 16 -11 36v123q-2 57 16 60q10 3 27 5q20 1 28 -1q38 -5 42 -101q25 29 61 42q6 2 8 3
q-16 113 -79 117q-55 9 -119 0q-33 -6 -42 -21q-9 -11 -6 -52v-228zM502 612q51 8 71 17q0 1 -6 29q-31 156 -35 192q-26 -14 -76 -12q40 -93 46 -226z" />
</svg>
