<?xml version="1.0" standalone="no"?>
<!DOCTYPE svg PUBLIC "-//W3C//DTD SVG 1.1//EN" "http://www.w3.org/Graphics/SVG/1.1/DTD/svg11.dtd" >
<svg xmlns="http://www.w3.org/2000/svg" xmlns:xlink="http://www.w3.org/1999/xlink" version="1.1" viewBox="-10 0 1010 1000">
   <path fill="currentColor"
d="M319 -19q91 4 100 11q1 2 -2 6q-12 14 -12 42v38h198v-18q0 -48 -8 -81q91 4 103 13q1 4 -4 9q-13 12 -13 39v38h160q50 0 96 -9q3 -1 5 -1v87q-34 -8 -101 -8h-160v12q-1 37 7 66h-93q8 -23 8 -64v-14h-198q-1 43 8 62h-78l12 6q37 18 34 22q0 1 -4 2q-29 10 -46 41h197
q-13 -37 -50 -79l78 -28q4 7 18 30q19 31 31 51l-47 26h204q77 0 123 -8v72q-47 -8 -119 -8h-175v63h145q76 1 103 -8v72q-30 -9 -105 -8h-143v63h143q61 0 101 -8v70q-16 -4 -35 -5q-15 -1 -64 -1h-145v67h199q83 0 127 -8v76q-5 -1 -16 -3q-47 -9 -105 -9h-494q0 27 8 49
h-88l34 14q-44 71 -83 153q-29 -17 -86 -34q37 -44 88 -154l39 17q14 -34 14 -95v-244q-33 44 -91 105q-30 -32 -77 -57q143 -92 234 -266l25 14q9 -22 8 -52h-174q-66 0 -99 8v-85q36 8 101 8h172v-18q0 -31 -8 -79zM302 336v63h216v-63h-216zM302 455v63h216v-63h-216z
M302 574v67h216v-67h-216zM819 725q62 84 112 137l-90 39q-58 -96 -97 -147zM619 731q38 54 69 132l-87 26q-16 -59 -59 -137zM415 742q30 66 49 135l-87 12q-10 -56 -38 -135z" />
</svg>
