<?xml version="1.0" standalone="no"?>
<!DOCTYPE svg PUBLIC "-//W3C//DTD SVG 1.1//EN" "http://www.w3.org/Graphics/SVG/1.1/DTD/svg11.dtd" >
<svg xmlns="http://www.w3.org/2000/svg" xmlns:xlink="http://www.w3.org/1999/xlink" version="1.1" viewBox="-10 0 1010 1000">
   <path fill="currentColor"
d="M312 -13q20 1 51 2q46 0 44 5q1 3 -3 7q-13 19 -13 55v20h216v-20q-1 -31 -8 -68q84 -6 89 0q1 1 -1 6q-9 23 -8 62v18h107q72 0 103 -1q37 -2 57 -5v81q-42 -7 -160 -8h-107q-1 69 8 84h-88q9 -28 8 -82h-214q0 66 6 80h-86q6 -18 6 -80h-142q-99 0 -129 8v-83
q27 8 127 8h144v-20q0 -40 -7 -69zM704 225q9 0 26 1q66 2 64 7q1 2 -2 7q-14 26 -14 76v34q104 0 129 -8v71q-18 -10 -105 -8h-24v80h20q79 0 109 -8v71q-27 -6 -117 -6h-10v93h26q112 -3 123 -8v76q-37 -8 -108 -8h-138q-2 1 -40 2q-63 2 -76 4q122 99 395 75
q-43 47 -61 107q-281 -28 -363 -107q-94 -93 -129 -268l-24 28q25 63 29 147q3 84 -17 131q-35 73 -169 95q-1 -52 -41 -103q98 16 134 -24q22 -32 22 -135q-90 88 -216 161q-15 -34 -69 -66q143 -29 271 -170q-6 -21 -17 -44q-96 81 -207 143q-8 -12 -34 -38l-23 -23
q110 -19 232 -133q-18 -19 -36 -34q-71 47 -125 79q-20 -34 -67 -59q142 -27 246 -147h-76q-105 1 -137 8v-80q37 8 135 8h179q96 0 137 -8v80q-31 -7 -135 -8h-26q-15 16 -39 43q-33 37 -42 46q43 48 61 78q58 -62 91 -118q73 48 72 54q-2 4 -11 5q-15 3 -23 11
q-15 15 -24 30q20 144 100 226v-64q26 7 117 8h35v-93h-29q-83 0 -102 6v-71q57 9 102 10h27v-82h-95q-14 28 -42 72q-25 -20 -61 -20q56 -74 77 -205q7 2 22 6q67 17 64 22q0 3 -5 9q-19 23 -35 61h73v-34q0 -59 -4 -91z" />
</svg>
