<?xml version="1.0" standalone="no"?>
<!DOCTYPE svg PUBLIC "-//W3C//DTD SVG 1.1//EN" "http://www.w3.org/Graphics/SVG/1.1/DTD/svg11.dtd" >
<svg xmlns="http://www.w3.org/2000/svg" xmlns:xlink="http://www.w3.org/1999/xlink" version="1.1" viewBox="-10 0 1034 1024">
  <g transform="matrix(1 0 0 -1 0 820)">
   <path fill="currentColor"
d="M927 -138q9 0 18 -2q1 12 5 20l17 35q-42 -6 -76 -6q-72 0 -137 16q-87 18 -138 54q-67 43 -108 115q-24 42 -40 109q-13 54 -16 91q36 45 71 50q-21 13 -46 38q-25 -45 -120 -127q-13 27 -27 47q-15 21 -52 59q31 24 53 43q21 16 47 42q115 0 134 -3q4 0 11 -2v46
q-6 0 -12 -2q-19 -3 -93 -3l-293 1q-9 1 -17 2q-3 0 -13 2v-46q16 4 69 5h160q-57 -51 -125 -90q-85 -45 -138 -50q21 -15 44 -41l142 76q21 -21 41 -46q-61 -57 -133 -98q-52 -27 -98 -34q18 -16 44 -43q15 12 51 30q34 19 82 53q1 3 6 5q39 28 69 56q21 -39 30 -61
q0 -3 2 -7q-60 -64 -173 -135q-57 -33 -115 -43q36 -27 50 -43q49 27 127 81q67 48 121 95q6 -27 6 -55q0 -40 -5 -81q-4 -34 -19 -61q-33 -60 -114 -60q-19 0 -44 3q7 -12 11 -24q3 -6 4 -11q1 -9 5 -14q33 1 60 7q51 9 84 41q33 33 44 83q9 45 10 111q0 72 -20 134l46 40
l23 -104q7 -30 23 -64q55 -124 185 -181q97 -39 217 -50zM603 337q6 15 13 29l12 31h104v-119q-52 0 -88 2q-4 1 -8 1q-3 0 -13 3v-47q25 4 66 5h43v-147h-97q-30 0 -54 3q-6 0 -14 3v-47q21 6 66 6q273 0 286 -3q7 0 19 -3v47q-7 -3 -12 -3q-27 -1 -55 -3h-101v147
q90 0 100 -2q9 0 21 -3v47q-12 -3 -26 -4q-18 -1 -40 -2h-55v119l154 -3q6 0 10 -2v47q-6 -1 -60 -6h-104q0 90 3 99q0 7 5 15q1 4 6 9h-57q0 -3 1 -7q0 -3 1 -6l3 -110h-91q4 15 10 28q9 27 32 44q-12 3 -56 20q-1 -22 -10 -52q-21 -70 -52 -126q-15 -25 -30 -37l54 -7
q0 1 14 34zM360 660h-217q-30 0 -55 3q-6 0 -14 3v-47q21 6 67 6h219q-3 -66 -5 -85h49q-6 18 -6 69v16h240q-3 -33 -3 -58q0 -9 -2 -14h48q-3 12 -4 37l-1 35l246 -1q15 0 37 -3q1 0 4 -2v47q-7 -1 -59 -6h-228q0 72 3 80q0 7 10 23h-56q4 -33 5 -66v-37h-240q0 67 3 77
q0 7 5 15q1 4 6 9h-57q0 -9 2 -13z" />
  </g>

</svg>
