<?xml version="1.0" standalone="no"?>
<!DOCTYPE svg PUBLIC "-//W3C//DTD SVG 1.1//EN" "http://www.w3.org/Graphics/SVG/1.1/DTD/svg11.dtd" >
<svg xmlns="http://www.w3.org/2000/svg" xmlns:xlink="http://www.w3.org/1999/xlink" version="1.1" viewBox="-10 0 1034 1024">
  <g transform="matrix(1 0 0 -1 0 820)">
   <path fill="currentColor"
d="M503 238l424 -1l41 -4v47q-18 -6 -66 -6l-812 1l-18 2q-3 0 -13 3v-47q54 4 80 5h55v-278q-57 -3 -92 -4q-10 1 -25 2l20 -53q15 3 29 8l57 8l281 28q-3 -102 -5 -114h49q0 3 -1 6l-4 60v52q33 1 72 7q3 28 11 50q-46 -13 -83 -20v248zM231 50h233v-65l-233 -22v87z
M464 86h-233v57h233v-57zM231 179v59h233v-59h-233zM241 386q-3 -33 -5 -68q34 3 70 5l448 -1l50 -4q-6 66 -6 98l1 103q1 24 5 47q-69 -4 -72 -5l-456 1l-39 4q3 -78 5 -90zM279 359v71h481v-71h-481zM279 525h481v-61h-481v61zM593 188l-42 4v-44q15 3 41 4q15 -39 25 -55
q9 -18 18 -33q36 -54 65 -84q-39 -34 -82 -60q-45 -24 -99 -34q25 -21 43 -42q87 36 169 113q49 -37 86 -58q42 -24 100 -49q22 27 47 48q-61 6 -101 25q-57 24 -104 61q43 61 66 104q18 34 42 105q-39 -1 -77 -5h-197zM812 152q-9 -27 -28 -63q-18 -33 -57 -81
q-63 61 -93 144h178zM361 683l-273 1l-29 5v-47q18 6 67 6h235l-1 -31q0 -25 -4 -37h49q-3 12 -5 37l-1 31h244q-3 -36 -3 -52q0 -9 -2 -14h48q-3 13 -4 37l-1 29l253 -1q27 0 39 -4l2 -1v47q-39 -6 -66 -6h-228q0 54 3 60q3 15 10 26h-56q1 -30 5 -61v-25h-244q0 51 3 60
q0 7 5 15q1 4 6 9h-57q0 -6 2 -11q0 -36 3 -73v0z" />
  </g>

</svg>
