<?xml version="1.0" standalone="no"?>
<!DOCTYPE svg PUBLIC "-//W3C//DTD SVG 1.1//EN" "http://www.w3.org/Graphics/SVG/1.1/DTD/svg11.dtd" >
<svg xmlns="http://www.w3.org/2000/svg" xmlns:xlink="http://www.w3.org/1999/xlink" version="1.1" viewBox="-10 0 1034 1024">
  <g transform="matrix(1 0 0 -1 0 820)">
   <path fill="currentColor"
d="M881 480q25 -1 49 -3q6 0 16 -2v46q-25 0 -65 -5l-674 1q-19 3 -52 4l5 -92v-168q-1 -12 -2 -26l-11 -129q-6 -42 -18 -86q-13 -45 -32 -87q-15 -31 -48 -66q27 -1 54 -15q73 126 87 287l8 154l3 187h680zM375 666l-245 1q-21 1 -35 4v-47q30 6 58 6h222l-4 -81
q-1 -1 -1 -6h50q-6 60 -6 87h236l-4 -79q-1 -1 -1 -4h49q0 7 -2 16q-3 48 -3 67l264 -3q3 0 11 -3v47q-24 -4 -65 -5h-210q0 66 3 73q1 13 11 25h-58q1 -31 5 -64v-34h-236q0 69 3 72q1 13 11 26h-58q1 -31 5 -64v-34zM523 62q-3 -21 -5 -43h46q-3 33 -4 66q0 121 2 129
q0 9 10 35h-54q0 -9 4 -33l1 -119l-93 -6q3 24 5 49q4 94 5 151l126 -4q6 -1 10 -3v47q-33 -1 -65 -5h-23q39 64 44 68q16 21 34 27q-18 9 -36 21q-9 6 -15 11q-4 -16 -10 -28q-7 -13 -23 -39q-18 -31 -38 -60h-78q13 13 29 24q-54 78 -77 100q-15 -12 -34 -25q4 -7 49 -58
q6 -10 12 -19q4 -9 12 -22l-120 4q-3 1 -6 1v-47q9 4 22 5l86 2h61l-3 -127q-1 -36 -7 -73l-87 -4v100q0 33 13 60h-55q1 -30 5 -60q0 -73 -2 -102q-3 -6 -3 -39q15 0 30 3q18 0 39 3l51 3q-24 -78 -102 -142q-24 -19 -64 -37q3 -1 7 -3l16 -6q12 -4 20 -8q6 -3 14 -10
q54 45 89 88q34 45 64 121zM505 -162q58 24 122 85q55 57 98 163q15 -54 79 -136q54 -64 118 -109q13 19 45 37q-42 18 -61 30q-66 46 -118 135q-31 54 -46 119q0 48 21 66q-28 0 -62 6q0 -15 1 -26q0 -81 -33 -158q-43 -96 -130 -147q-34 -18 -85 -32q21 -7 39 -23
q6 -4 12 -10zM855 296q-18 -51 -47 -119q30 0 50 -2q45 151 50 161q-33 -1 -67 -5h-152q22 60 34 81q9 18 26 32q-36 6 -58 18q-18 -73 -39 -121q-36 -81 -84 -144q18 -7 43 -22l66 121h178z" />
  </g>

</svg>
