<?xml version="1.0" standalone="no"?>
<!DOCTYPE svg PUBLIC "-//W3C//DTD SVG 1.1//EN" "http://www.w3.org/Graphics/SVG/1.1/DTD/svg11.dtd" >
<svg xmlns="http://www.w3.org/2000/svg" xmlns:xlink="http://www.w3.org/1999/xlink" version="1.1" viewBox="-10 0 1010 1000">
   <path fill="currentColor"
d="M335 6q90 -3 98 8q1 3 -3 13q-16 33 -17 79h178q0 -39 -8 -98q16 1 45 1q53 0 51 5q1 3 -3 10q-16 33 -15 82h115q124 -2 172 -10v77q-45 -7 -166 -8h-121q1 41 8 60h-90q8 -24 8 -60h-172q1 42 8 66h-92q8 -26 8 -66h-149q-84 1 -132 8v-77q81 9 127 10h154
q0 -54 -3 -91q-1 -7 -1 -9zM222 201q87 23 93 39q0 4 -7 7q-20 9 -36 31q-20 28 -59 74q-35 42 -54 67q64 -9 127 -18q21 -22 57 -83q80 33 84 45q0 3 -8 8q-18 9 -32 24q-54 59 -197 199q75 -9 193 -38l-16 83q-109 1 -268 40l-24 -87q2 -2 11 -4q28 -4 49 -20
q26 -20 75 -71l40 -40q-30 3 -135 30q-18 5 -28 7l-25 -87q3 -4 12 -5q20 -4 39 -21q51 -44 109 -180zM438 227q36 8 80 8h252q48 0 83 -8q-4 15 -6 61q-1 18 -2 24v151q1 44 8 73q-38 -7 -109 -8h-228q-52 3 -78 8q7 -26 8 -83v-141q-1 -60 -8 -85zM774 294h-256v58h256
v-58zM518 411v58h256v-58h-256zM407 572q23 5 97 8h309q46 -1 84 -8q-8 32 -8 95v141q55 0 69 -4v77q-48 -7 -208 -8h-262q-103 0 -159 8v-77q23 4 86 4v-171q0 -38 -8 -65zM552 639h-66v169h66v-169zM685 639h-62v169h62v-169zM756 639v169h61v-169h-61zM363 693l-2 81
q-93 16 -268 82l-33 -100q113 -5 303 -63z" />
</svg>
