<?xml version="1.0" standalone="no"?>
<!DOCTYPE svg PUBLIC "-//W3C//DTD SVG 1.1//EN" "http://www.w3.org/Graphics/SVG/1.1/DTD/svg11.dtd" >
<svg xmlns="http://www.w3.org/2000/svg" xmlns:xlink="http://www.w3.org/1999/xlink" version="1.1" viewBox="-10 0 1034 1024">
  <g transform="matrix(1 0 0 -1 0 820)">
   <path fill="currentColor"
d="M392 667v36q0 16 2 33q1 15 11 31h-57q1 -31 5 -64v-36l-250 1q-7 1 -35 4v-47q60 6 67 6h218l-5 -103h51q-6 49 -7 61v42h232q0 -39 -5 -100h49q0 9 -2 17q-3 48 -3 74v9l265 -1q24 0 40 -5v47l-40 -4l-265 -1v36q0 16 2 33q1 15 11 31h-57q4 -33 5 -69v-31h-232z
M259 557q-15 -36 -54 -99q-39 -60 -82 -117q-25 -30 -53 -46q9 -24 15 -45q30 12 154 24q9 0 25 2q-10 -16 -41 -52q-3 -3 -6 -8q-69 -84 -94 -107q-19 -15 -33 -20q9 -24 18 -47q91 18 119 20q39 6 144 17q1 21 7 34q0 3 2 6q3 3 5 10q-30 -9 -96 -20q-63 -9 -130 -14
q30 30 67 73l94 111q12 12 13 17q21 30 34 46q6 7 12 13q19 19 41 28q-30 12 -55 35q-31 -52 -69 -103l-155 -12q33 43 58 79q24 33 52 76q22 36 35 49q7 9 28 21q-18 6 -40 20zM374 -28q0 12 3 40q-27 -18 -48 -29q-30 -15 -82 -35q-67 -24 -111 -38q-31 -9 -63 -13
q13 -18 24 -52q16 6 72 30q54 24 122 49q19 9 67 24l16 8v16zM420 -95l-81 4q-3 1 -6 1v-47l62 6q537 0 553 -3q3 1 16 -1q1 0 7 -2v47q-33 -1 -65 -5h-18l1 217l4 53q-33 -1 -67 -5l-362 1q-19 3 -49 4q1 -36 5 -74v-196zM457 -95v229h102v-229h-102zM596 -95v229h104v-229
h-104zM738 -95v229h111v-229h-111zM781 251l36 -4q12 0 25 -2q-4 52 -5 101q0 120 2 132q0 21 3 42q-19 -1 -33 -3q-22 -3 -28 -3l-265 1q-24 4 -53 5q1 -33 5 -68l-1 -162q-3 -12 -4 -45q22 1 39 3q24 3 33 3h246zM506 286v77h292v-77h-292zM506 399v78h292v-78h-292z" />
  </g>

</svg>
