<?xml version="1.0" standalone="no"?>
<!DOCTYPE svg PUBLIC "-//W3C//DTD SVG 1.1//EN" "http://www.w3.org/Graphics/SVG/1.1/DTD/svg11.dtd" >
<svg xmlns="http://www.w3.org/2000/svg" xmlns:xlink="http://www.w3.org/1999/xlink" version="1.1" viewBox="-10 0 1034 1024">
  <g transform="matrix(1 0 0 -1 0 820)">
   <path fill="currentColor"
d="M156 503q-60 3 -68 5v-47q18 6 66 6l739 -1q27 0 39 -4l2 -1v47q-10 -3 -26 -3q-21 0 -40 -2h-304q7 12 14 18q1 3 9 10q-6 7 -13 13q-18 12 -37 28l-61 47q-16 -22 -31 -34q30 -19 89 -66q7 -7 18 -16h-396zM393 88q6 12 14 24q9 16 32 25q-4 3 -8 4q-9 4 -16 9
q-16 7 -29 20l-25 -62q0 -3 -7 -12l-155 -5q63 55 166 175q27 33 59 40q-31 18 -58 40q-7 -19 -18 -38q-12 -18 -36 -46l-138 -3q9 15 77 90q39 45 53 54q13 9 31 13q-33 16 -60 42q-6 -27 -68 -109q-36 -43 -59 -67q-16 -15 -36 -20q16 -33 19 -49q45 9 93 12q24 3 59 4
q-43 -55 -83 -91q-45 -37 -87 -45q12 -21 21 -53q12 6 20 6q9 0 29 4q18 4 86 9q34 1 66 5q-51 -82 -123 -126q-55 -31 -119 -47q9 -7 15 -11q18 -12 30 -28l86 47q15 12 31 22q73 57 120 135zM480 -99q0 -30 -3 -62h45q-3 31 -4 62l421 -3q3 0 12 -2v46l-89 -6h-145v93
l149 -3q6 0 9 -2v46q-13 -3 -27 -3q-18 0 -40 -2h-91v96q120 0 136 -2q3 0 24 -4v47q-6 -1 -62 -5h-98v102l180 -3q6 0 11 -2v47q-18 -6 -67 -6h-110q12 15 25 33q-10 13 -40 39q-3 3 -6 5q-34 30 -48 43q-13 -21 -30 -35q63 -45 94 -85h-195q6 9 12 16q40 63 73 77
q-22 9 -36 15l-24 15q-3 -15 -7 -23q-6 -13 -23 -38q-42 -72 -91 -122q-36 -36 -78 -51q33 -12 38 -16q10 -6 19 -13q48 48 54 56q3 1 12 14v-364zM518 -64v93h162v-93h-162zM518 65v96h162v-96h-162zM518 197v102h162v-102h-162zM353 675l-259 1q-9 1 -17 2q-3 0 -13 3v-47
q18 6 67 6h222q-3 -66 -5 -85h49q-3 12 -6 48v37h249l-4 -83q-1 -1 -1 -5h49q-3 9 -5 31l-1 57l240 -1q15 0 37 -3q1 0 4 -2v47q-6 -1 -60 -6h-221q0 75 3 77q0 6 2 9l8 17h-56q1 -30 5 -61v-42h-249q0 70 3 74q0 6 2 9l8 17h-56q0 -6 2 -11z" />
  </g>

</svg>
