<?xml version="1.0" standalone="no"?>
<!DOCTYPE svg PUBLIC "-//W3C//DTD SVG 1.1//EN" "http://www.w3.org/Graphics/SVG/1.1/DTD/svg11.dtd" >
<svg xmlns="http://www.w3.org/2000/svg" xmlns:xlink="http://www.w3.org/1999/xlink" version="1.1" viewBox="-10 0 1034 1024">
  <g transform="matrix(1 0 0 -1 0 820)">
   <path fill="currentColor"
d="M348 685l-257 3q-6 1 -17 2v-44q19 4 50 5h224q-3 -64 -5 -76h49q-3 30 -5 65v11h226q0 -37 -5 -73q-1 -1 -1 -3h51q-6 18 -6 65v11q262 0 273 -2q10 0 22 -3v44q-4 0 -8 -1q-4 0 -8 -1q-25 0 -49 -3h-230q0 51 3 58q3 12 11 23h-59q3 -6 3 -12q3 -54 3 -69h-226
q0 51 3 57q1 13 10 22h-57q4 -33 5 -67v-12zM104 358l-5 -63h50q-1 6 -6 61v69h347v-156q0 -6 -3 -47q0 -6 -2 -16h50q-6 63 -6 94v125h345q-3 -102 -5 -122h49q-6 51 -5 103q1 28 5 58q-36 -1 -71 -5h-318v62h263q27 0 51 -3l15 -2v45q-4 0 -7 -1q-3 0 -5 -1q-27 0 -54 -3
l-640 5v-45q19 4 50 5h288v-62h-320q-10 0 -36 3q-15 0 -35 2q1 -33 5 -66v-40zM186 -90q-3 -30 -3 -52q0 -4 -3 -13h49q-3 15 -4 45v14h567q-1 -24 -3 -51q-1 0 -1 -2h48q-4 64 -5 68l1 215l4 47q-66 -4 -103 -5l-505 1q-19 3 -48 4l6 -64v-207zM225 -61v85h265v-85h-265z
M225 59v82h265v-82h-265zM529 -61v85h263v-85h-263zM529 59v82h263v-82h-263zM221 338q25 3 52 4l154 -4v41q-3 -1 -8 -2l-78 -2l-120 4v-41zM221 242q19 4 44 5l133 -1q18 0 26 -4v41q-4 -1 -10 -2l-65 -2l-128 4v-41zM595 338q1 1 4 1q3 1 7 1q10 0 29 2h123q22 0 41 -4
v41q-19 -3 -49 -4l-155 4v-41zM595 247q6 0 11 2l66 2l107 -1q15 -1 14 -2q1 0 6 -1v41q-3 -1 -5 -3q-154 0 -157 -2q-12 1 -34 2q-3 0 -8 3v-41z" />
  </g>

</svg>
