<?xml version="1.0" standalone="no"?>
<!DOCTYPE svg PUBLIC "-//W3C//DTD SVG 1.1//EN" "http://www.w3.org/Graphics/SVG/1.1/DTD/svg11.dtd" >
<svg xmlns="http://www.w3.org/2000/svg" xmlns:xlink="http://www.w3.org/1999/xlink" version="1.1" viewBox="-10 0 1034 1024">
  <g transform="matrix(1 0 0 -1 0 820)">
   <path fill="currentColor"
d="M209 460l243 -3q3 0 13 -3v46q-66 -4 -100 -5q-132 0 -160 2q-9 3 -40 3q1 -33 5 -69v-282q-99 3 -106 5v-47q18 6 67 6h100q-15 -40 -58 -117q-39 -61 -67 -68q7 -10 20 -35q0 -3 7 -14q21 12 80 25l218 46l22 -25q9 9 20 17q1 0 4 3q1 1 7 5q-10 16 -23 31
q-87 99 -92 104q-1 0 -11 -10q-3 -3 -8 -6q-7 -4 -13 -10q16 -18 35 -36q27 -34 38 -45l-163 -30q-37 -6 -70 -11l105 176l163 -3q6 0 11 -3v47l-103 -5h-144v95q201 0 218 -3l24 -2v47q-9 -3 -63 -6h-179v75l229 -3q6 0 10 -2v47q-7 -1 -58 -6h-181v69zM416 -120
q25 -12 52 -33q60 57 122 123q37 42 46 48q9 9 34 17q-33 15 -60 35q-10 -36 -90 -120q-57 -55 -104 -70zM598 157l-103 3q-3 1 -8 2v-47q21 6 67 6l395 -3q3 0 11 -3v47q-30 -4 -67 -5h-93v190l120 -3q6 0 10 -2v47q-7 -1 -58 -6h-72q0 108 3 114q3 15 10 26h-57l1 -2
l4 -117v-21h-126q0 96 3 106q0 3 10 24h-56l1 -2q0 -1 1 -5q0 -3 1 -6l3 -117q-66 0 -93 3q-3 0 -10 3v-47q54 4 80 5h23v-190zM635 157v190h126v-190h-126zM935 -125q4 4 10 11q7 6 12 12l-90 101q-33 36 -88 92q-3 -1 -4 -3q-3 -3 -7 -8q0 -1 -4 -4l-18 -16
q69 -69 106 -109q33 -36 72 -88q4 6 11 12zM364 641l-245 1q-9 1 -17 2q-3 0 -13 3v-47q18 6 66 6h209l-5 -80h49q0 6 -3 15q-3 18 -3 65h218q-4 -73 -5 -76h48q-3 10 -4 37q-1 19 -1 39l249 -1q22 0 32 -4l2 -1v47q-7 -1 -58 -6h-225q0 93 3 101q0 3 10 24h-56q0 -9 2 -13
q0 1 2 -24l1 -88h-218q0 87 3 96q0 7 5 15q1 4 6 9h-57q0 -6 2 -11q0 -36 3 -73v-36z" />
  </g>

</svg>
