<?xml version="1.0" standalone="no"?>
<!DOCTYPE svg PUBLIC "-//W3C//DTD SVG 1.1//EN" "http://www.w3.org/Graphics/SVG/1.1/DTD/svg11.dtd" >
<svg xmlns="http://www.w3.org/2000/svg" xmlns:xlink="http://www.w3.org/1999/xlink" version="1.1" viewBox="-10 0 1034 1024">
  <g transform="matrix(1 0 0 -1 0 820)">
   <path fill="currentColor"
d="M168 184q12 10 29 29l-1 -339q0 -6 -4 -42h49q0 9 -2 17q-1 24 -3 50v357q18 24 41 46q18 21 29 24q3 1 11 4q-24 12 -47 32q-75 -103 -143 -162q-25 -22 -42 -34q-10 -7 -37 -21q21 -10 42 -33q15 13 28 26q24 24 50 46zM102 324q45 40 77 72q30 30 71 75q30 33 41 41
q7 6 28 13q-22 12 -50 35q-33 -51 -102 -122q-52 -51 -104 -82q9 -4 19 -11q9 -10 20 -21zM352 683h-214q-22 0 -50 3q-4 0 -17 3v-48q3 0 45 5l236 1q0 -36 -5 -82h50q-6 42 -7 48v34h256l-4 -64q-1 -3 -3 -13h51q-4 54 -5 77l251 -3q6 0 11 -3v48l-66 -6h-196q0 57 3 63
q1 12 11 25h-60q6 -21 7 -65v-23h-256q0 57 3 64q1 13 12 24h-58q1 -31 5 -65v-23zM527 140q0 -138 -3 -163q-4 -10 -13 -23q19 -15 31 -27q109 103 118 110q-9 24 -13 51q-36 -46 -82 -84l1 131q0 16 4 45q-55 -4 -90 -5q-54 0 -75 2q-3 1 -5 1q-12 0 -26 2q3 -33 4 -59
q0 -108 -54 -170q-16 -16 -47 -35q24 -7 46 -25q48 48 71 103q19 57 25 146h108zM323 231q12 3 32 4l68 2l187 -3q6 0 11 -3v47l-31 -4l-90 -2q-156 3 -173 5q-3 1 -4 1v-47zM379 376q0 106 3 115q1 10 8 21h-54q1 -33 5 -66q0 -54 -2 -78q-3 -3 -3 -32q30 3 61 5l202 -1
q19 -1 40 -5q-4 52 -5 105q0 33 4 44q3 15 9 28h-55q4 -37 5 -75v-61h-90v130q0 18 3 34q1 16 11 30h-56q4 -37 5 -73v-121h-91zM784 8q4 -7 11 -15q33 -39 66 -70l82 -66q18 21 48 37q-102 37 -193 163q60 135 75 330q64 0 76 -3q1 1 4 0l15 -2v46q-9 0 -12 -2l-153 -3h-50
q36 84 41 88q13 27 32 39q-34 10 -59 20q-22 -82 -62 -152q-54 -91 -87 -113q9 -4 19 -10q6 -3 23 -17q15 24 30 46l42 63h97q0 -60 -9 -122q-18 -93 -47 -166q-24 45 -33 83q-15 46 -16 75q0 3 2 21q-21 -7 -51 -11q3 -15 8 -30l30 -97q9 -25 40 -85q-39 -69 -96 -127
q-37 -36 -92 -66q31 -7 53 -28q48 45 83 82q33 39 76 99z" />
  </g>

</svg>
