<?xml version="1.0" standalone="no"?>
<!DOCTYPE svg PUBLIC "-//W3C//DTD SVG 1.1//EN" "http://www.w3.org/Graphics/SVG/1.1/DTD/svg11.dtd" >
<svg xmlns="http://www.w3.org/2000/svg" xmlns:xlink="http://www.w3.org/1999/xlink" version="1.1" viewBox="-10 0 1010 1000">
   <path fill="currentColor"
d="M587 -21q4 0 11 1q92 3 89 10q0 2 -3 5q-16 21 -13 81h137q114 0 129 -10v81q-15 -6 -129 -6h-137q0 60 8 66h-46q-8 6 -8 49h200q96 0 113 -8v70q-7 -6 -115 -6h-198v46h145q64 0 89 -6q-6 31 -6 79v131q0 71 8 83h-67q-8 5 -8 38h31q106 0 127 -8v73q-4 -11 -127 -10
h-31v104q2 70 -141 75q-4 -52 -32 -93q102 18 101 -24v-62h-335q-123 -1 -129 10v-73q26 8 131 8h333q0 -42 -10 -48h70l4 -37h-153q-2 35 4 53h-83q5 -6 4 -53h-151q-2 38 4 53h-88q8 -19 8 -93v-129q0 -48 -6 -77q27 6 82 6h151v-46h-127q-120 -1 -129 8v-72q22 8 131 8
h125q0 -27 -8 -55h45q8 -32 8 -60h-186q0 60 8 66h-92q8 -36 8 -66h-154q-114 -1 -121 8v-83q7 9 127 10h148v-40q-2 -46 -8 -55q98 7 104 19q1 5 -4 14q-16 24 -16 62h186v-42q-3 -15 -6 -39q-1 -11 -2 -16zM153 205q66 36 125 89l-62 68q-52 -56 -121 -94zM399 409v44h151
v-44h-151zM625 409v44h153v-44h-153zM399 500v46h151v-46h-151zM625 500v46h153v-46h-153zM167 546l75 46q-52 201 -95 291l-78 -45q65 -120 98 -292zM476 748l54 88l-82 27q-27 -60 -53 -89zM750 250q-17 -32 -50 -59l68 -32q24 24 44 64zM109 365q63 36 125 92l-61 67
q-54 -56 -121 -93z" />
</svg>
