<?xml version="1.0" standalone="no"?>
<!DOCTYPE svg PUBLIC "-//W3C//DTD SVG 1.1//EN" "http://www.w3.org/Graphics/SVG/1.1/DTD/svg11.dtd" >
<svg xmlns="http://www.w3.org/2000/svg" xmlns:xlink="http://www.w3.org/1999/xlink" version="1.1" viewBox="-10 0 1034 1024">
  <g transform="matrix(1 0 0 -1 0 820)">
   <path fill="currentColor"
d="M210 86l-1 -199q-1 -16 -3 -35h45q-1 6 -5 68h192q-3 -30 -3 -53h46q-3 72 -4 98q0 133 2 147q0 21 3 44q-36 -1 -74 -5l-152 1q-24 3 -48 3q9 54 15 103l196 -1l51 -4q-6 55 -5 120q0 39 3 77q0 15 2 26q-36 -1 -72 -5l-169 1q-19 3 -49 4q1 -34 5 -71v-114
q0 -57 -16 -126q-21 -87 -63 -147q-21 -30 -52 -49q34 -6 61 -20q9 12 16 24q9 15 22 42q28 54 53 133q1 -30 4 -62zM223 293v142h204v-142h-204zM246 -46v161h192v-161h-192zM566 225q-58 3 -67 5v-46q21 4 65 5h139v-132q-127 0 -154 2q-4 1 -7 1l-14 3v-47q27 4 66 5h109
l-5 -172q-1 0 -1 -2h50q-6 18 -6 69v105l160 -1l40 -4v47q-7 -1 -58 -6h-142v132l185 -1l37 -4v46q-13 -3 -28 -3q-18 -1 -40 -2h-118q15 21 26 35q54 66 63 72q10 7 26 13q-33 15 -58 33q-3 -9 -8 -20q-6 -12 -20 -34q-39 -63 -73 -99h-167zM672 503q67 -39 92 -64
q0 1 7 11q4 9 16 21l-97 63q-9 -21 -18 -31zM931 441q-7 -1 -58 -6l-314 1q-15 0 -31 5v-47q21 6 67 6l295 -1q24 0 37 -3q1 0 4 -2v47zM571 349q48 -49 73 -100q6 9 33 25q-48 72 -76 103q-9 -12 -30 -28zM364 661l-241 1l-18 2q-3 0 -13 3v-47q18 6 66 6h206
q-3 -73 -5 -85h49q-4 12 -5 32l-1 53h261q-3 -63 -5 -76q-1 0 -1 -2h50q-1 3 -1 4q-3 6 -4 28l-1 46l209 -1q27 0 39 -4l2 -1v47q-12 -3 -27 -4q-21 0 -40 -2h-183q0 72 3 78q3 15 10 25h-56q4 -33 5 -67v-36h-261q0 67 3 77q0 7 5 15q1 4 6 9h-57l4 -34z" />
  </g>

</svg>
