<?xml version="1.0" standalone="no"?>
<!DOCTYPE svg PUBLIC "-//W3C//DTD SVG 1.1//EN" "http://www.w3.org/Graphics/SVG/1.1/DTD/svg11.dtd" >
<svg xmlns="http://www.w3.org/2000/svg" xmlns:xlink="http://www.w3.org/1999/xlink" version="1.1" viewBox="-10 0 1010 1000">
   <path fill="currentColor"
d="M563 -13q97 -3 102 7q1 2 -5 7q-22 23 -21 57h125q116 -1 159 -8v75q-56 -7 -153 -8h-131v56h105q71 -1 101 -8q-6 16 -8 62v37q-3 26 8 74q-62 -12 -83 -8h-280v51h32q97 -1 141 -8v58q83 -64 115 -97q73 31 83 49q-2 5 -14 8q-22 6 -41 18q-67 42 -115 76h97
q104 -1 151 -6v71q-97 -9 -155 -10h-177q-33 21 -87 52h184q71 0 108 -8q-10 56 -10 89v103q0 80 10 122q2 8 2 11h-100q0 -2 2 -7q6 -22 6 -48h-385q0 40 4 61h-93q7 -49 8 -117v-113q2 -2 -85 27q-55 19 -74 25q-18 -49 -57 -76q265 -34 448 -121h-272q-96 1 -154 8v-73
q66 8 158 10h191v-56h-64q-83 1 -133 8v-64q62 8 131 8h66v-51h-157q-50 0 -89 8q8 -24 8 -64v-49q0 -28 -8 -60q44 8 95 8h83v-56h-133q-99 1 -146 8v-75q42 7 142 8h135q0 -28 -6 -70q93 -2 98 6q1 3 -5 13q-16 26 -15 51h164q0 -36 -6 -71zM403 117v56h168v-56h-168z
M244 221v61h119v-61h-119zM442 221v61h118v-61h-118zM639 221v61h119v-61h-119zM714 647h-351l-34 12v38h385v-50zM714 746h-385v52h385v-52zM482 429v56h93q41 -24 72 -48q-51 -7 -133 -8h-32z" />
</svg>
