<?xml version="1.0" standalone="no"?>
<!DOCTYPE svg PUBLIC "-//W3C//DTD SVG 1.1//EN" "http://www.w3.org/Graphics/SVG/1.1/DTD/svg11.dtd" >
<svg xmlns="http://www.w3.org/2000/svg" xmlns:xlink="http://www.w3.org/1999/xlink" version="1.1" viewBox="-10 0 1010 1000">
   <path fill="currentColor"
d="M343 -10q78 4 88 10q1 1 -3 7q-13 14 -13 31v50h186q0 -84 -6 -96q11 1 34 1q57 0 56 7q1 3 -4 8q-14 18 -14 44v36h141l144 -10q-6 40 0 81q-38 -6 -142 -6h-143q0 36 8 60q-42 -6 -82 0q8 -29 8 -60h-184q0 24 8 48q-46 -6 -84 0q0 -3 2 -9q4 -22 4 -37h-121
q-119 0 -163 10v-83q73 8 157 8h127v-25q1 -58 -4 -75zM185 205q53 53 81 99q-23 8 -54 34h86v-74l-4 -59q11 0 31 1q58 0 56 9q0 1 -3 5q-15 17 -15 58v58h79q-20 -22 -45 -32q47 -42 73 -91q61 23 62 31q0 4 -6 6q-14 4 -26 18q-9 9 -29 35q-16 20 -27 33q72 0 102 -6
q-8 29 0 73q-51 -9 -133 -8h-50q0 91 6 127q-39 -6 -71 0q13 5 31 11q18 5 22 9q-2 4 -9 9q-15 11 -27 35h118q77 0 111 -10q-36 97 -113 180q44 18 83 48q-30 27 -28 32q117 -44 187 -119q-36 -64 -74 -205q-18 36 -30 54q-35 -24 -75 -28q87 -80 141 -319q101 9 97 18
q1 4 -9 12q-18 14 -23 29q-3 9 -9 23q-9 22 -12 29h134q94 0 129 -6v75q-34 -6 -91 -6q-27 246 -83 320q65 70 188 105q-37 18 -79 77q-71 -40 -157 -121q-53 62 -174 131q-45 -48 -72 -55l-14 23q-30 -32 -99 -65q-86 55 -262 85q-7 -46 -47 -83q124 3 238 -36
q-60 -29 -143 -49q16 -16 61 -78q-103 -3 -139 10v-81q42 9 125 10h42q21 -35 34 -74l20 8q8 -48 8 -115q-68 86 -165 149q-23 -33 -60 -52q104 -40 167 -105h-42q-76 0 -109 6v-75q30 9 119 10q-11 -29 -70 -94l-9 -9zM774 393h-115q-21 44 -42 86l52 -8q14 103 51 180
q39 -86 54 -258zM415 409q3 2 10 7q53 36 93 69l-52 45q-17 -17 -23 -24q-9 -10 -35 -30q-12 -11 -37 -31zM427 647h-145q-3 -3 -36 46q50 12 107 36q38 -33 74 -82z" />
</svg>
