<?xml version="1.0" standalone="no"?>
<!DOCTYPE svg PUBLIC "-//W3C//DTD SVG 1.1//EN" "http://www.w3.org/Graphics/SVG/1.1/DTD/svg11.dtd" >
<svg xmlns="http://www.w3.org/2000/svg" xmlns:xlink="http://www.w3.org/1999/xlink" version="1.1" viewBox="-10 0 1034 1024">
  <g transform="matrix(1 0 0 -1 0 820)">
   <path fill="currentColor"
d="M359 694q-249 0 -263 3q-12 1 -23 4v-49q25 6 48 6l238 1q-1 -25 -3 -52q-1 -3 -1 -6h47q-3 15 -4 58h230q-1 -24 -3 -48q0 -3 -2 -7h48l-4 45v10q262 0 274 -3q6 0 20 -4v49q-12 -3 -15 -3l-50 -4h-229q0 63 3 69q3 15 10 27h-57q4 -33 5 -69v-27h-230v21q0 13 3 32
q1 18 11 33h-57q0 -4 1 -9q0 -37 3 -77zM318 311q42 -19 82 -88q3 4 8 8q1 3 5 6q4 4 8 7q3 6 10 10q-27 33 -46 53q-18 18 -40 35q-4 -9 -15 -20q-6 -4 -12 -11zM502 44l-366 1q-12 1 -31 2q-6 0 -16 3v-48q30 6 60 6l780 -3q3 0 11 -3v48q-24 -6 -65 -6h-334v46
q274 0 286 -3q0 1 19 -3v48l-65 -6h-240v57l239 -1q24 -1 49 -5q-6 63 -6 94q0 72 2 86q0 3 4 39q-33 -1 -67 -5h-221v57q369 0 381 -3q6 0 18 -3v47q-33 -1 -65 -5h-334v58q15 0 29 3l67 6l75 6q33 3 55 4l37 -1q-27 36 -36 54q-55 -18 -153 -29q-117 -9 -222 -12
q-57 0 -122 5q-27 0 -62 6q15 -21 27 -48l201 3l65 2v-57l-366 1q-10 1 -23 2q-1 0 -16 2v-47q7 1 65 6h340v-57h-221q-9 0 -38 3q-15 0 -34 2q4 -60 5 -83l-3 -115q-1 -10 -2 -21q48 6 72 6h221v-57l-279 1q-10 1 -23 2q-6 0 -16 3v-48q60 6 68 6h250v-46zM502 355v-136
h-250v136h250zM784 219h-243v136h142q-24 -60 -74 -106q19 -9 36 -21q45 69 54 77q7 7 28 18l-26 19q-3 3 -12 13h95v-136zM130 -165q6 7 63 57l50 45q1 0 3 2q15 9 41 17l-32 20q-7 3 -20 15q-18 -25 -58 -62q-33 -30 -53 -46q-15 -12 -31 -19q15 -6 27 -19zM440 -149
q16 13 36 24l-49 75q-12 18 -36 40q-12 -12 -32 -27q30 -21 81 -112zM653 -132q3 -6 7 -12l22 18q12 7 10 7l2 1q-33 57 -83 117l-30 -25q21 -21 42 -49q12 -24 30 -57zM769 -27q60 -40 133 -127q7 15 30 34q-82 82 -137 125q0 -3 -5 -9q0 -1 -3 -3q-6 -4 -12 -11l-6 -9v0z
" />
  </g>

</svg>
