<?xml version="1.0" standalone="no"?>
<!DOCTYPE svg PUBLIC "-//W3C//DTD SVG 1.1//EN" "http://www.w3.org/Graphics/SVG/1.1/DTD/svg11.dtd" >
<svg xmlns="http://www.w3.org/2000/svg" xmlns:xlink="http://www.w3.org/1999/xlink" version="1.1" viewBox="-10 0 1010 1000">
   <path fill="currentColor"
d="M310 -15q8 0 23 1q68 1 66 8q1 3 -4 8q-10 9 -10 22v24h218q0 -48 -4 -60q81 -1 88 6q-1 3 -4 8q-8 12 -8 22v24h119q110 -1 143 -10v75q-36 -7 -141 -7h-121q0 26 5 43q2 5 1 6h-84q6 -24 6 -49h-218q0 24 5 42q1 6 1 9h-85q6 -18 6 -51h-112q-110 0 -148 7v-75
q50 9 148 10h112q0 -52 -2 -63zM454 127q61 0 84 8q-1 3 -4 7q-10 11 -8 33h232q65 0 113 -8v54q-27 -6 -113 -6h-232v41h139q90 0 141 -6v52q-45 -6 -135 -6h-354q-95 0 -136 6v-54q45 8 140 8h137v-41h-240q-80 -1 -107 8v-56q41 8 109 8h238q1 -42 -4 -48zM794 326
q-2 10 -2 63q-1 51 4 66q-30 -6 -143 -6h-312q-117 0 -147 6q4 -15 4 -60q0 -36 -4 -67q58 8 147 8h284q127 0 169 -10zM274 373v38h442v-38h-442zM67 479q46 8 175 8h500q126 0 183 -8q-9 11 -6 65q0 26 8 56h-86q8 -26 8 -70h-706q0 44 10 74h-88q6 -28 6 -64
q0 -38 -4 -61zM192 558q45 9 151 10h296q95 0 149 -8v53q-42 -7 -137 -7q47 25 139 71l-52 48q-27 -27 -46 -34l-166 4v45h135q85 0 141 -7v59q-36 -9 -143 -8h-133v42h212q90 0 169 -8v69q-41 -10 -165 -10h-504q-130 0 -163 8v-67q66 8 163 8h216v-42h-152q-99 -1 -145 8
v-59q52 6 151 7h146v-43q-179 0 -231 13l-3 1q-1 0 -3 -12q-5 -35 -11 -50q68 7 167 -43q-135 -3 -181 9v-57zM603 606h-123l-139 55l300 -8q-8 -5 -40 -20q-19 -8 -26 -12z" />
</svg>
