<?xml version="1.0" standalone="no"?>
<!DOCTYPE svg PUBLIC "-//W3C//DTD SVG 1.1//EN" "http://www.w3.org/Graphics/SVG/1.1/DTD/svg11.dtd" >
<svg xmlns="http://www.w3.org/2000/svg" xmlns:xlink="http://www.w3.org/1999/xlink" version="1.1" viewBox="-10 0 1010 1000">
   <path fill="currentColor"
d="M327 -23q95 3 94 8q1 2 -2 7q-14 29 -14 76h178q0 -69 -6 -91h24q74 -2 74 6q1 2 -2 7q-18 26 -18 78h149q99 0 129 -6v73q-54 -9 -129 -6h-147q0 32 4 46h-82q4 -22 4 -46h-178q0 21 2 40h-76q0 -6 1 -18q1 -15 1 -22h-143q-84 -3 -127 6v-73q41 6 124 6h146
q0 -66 -6 -91zM169 179q40 6 121 6h446q76 0 109 -6v67q-40 -8 -111 -8h-194v48h275q82 0 112 -6q-4 26 -4 78q0 51 4 79h-84q4 -63 4 -99h-307q-3 123 6 170h-84q6 -56 6 -170h-303q-1 68 4 89h-84q9 -81 0 -147q36 6 121 6h262v-48h-180q-66 0 -119 6v-65zM202 367
q33 4 108 4q76 0 113 -4v50q-90 -5 -221 0v-50zM585 373q32 4 113 4t108 -4v52q-20 -4 -101 -5q-83 1 -120 5v-52zM188 455q29 4 121 4t114 -4v49q-28 -4 -118 -5q-91 1 -117 5v-49zM583 459q50 4 136 4q74 0 98 -4v51q-29 -4 -113 -5q-84 1 -121 5v-51zM79 538q39 6 129 6
h594q85 0 127 -6v66q-48 -9 -129 -6h-264l-22 59h224q78 0 113 -6q-4 29 -5 70q-1 20 -1 45v66q2 45 -20 60q-21 19 -91 29q-3 -42 -28 -81q42 5 54 -4q12 -6 10 -40v-87h-151v63q0 72 6 117h-81q7 -36 6 -104v-15v-61h-113v57q0 90 5 125h-81q7 -31 6 -109v-16v-57h-141v71
q0 90 6 125h-85q5 -27 4 -95v-38q0 -60 -1 -78q0 -24 -3 -45q70 8 129 8h170l14 -59h-250q-83 -3 -131 6v-66z" />
</svg>
