<?xml version="1.0" standalone="no"?>
<!DOCTYPE svg PUBLIC "-//W3C//DTD SVG 1.1//EN" "http://www.w3.org/Graphics/SVG/1.1/DTD/svg11.dtd" >
<svg xmlns="http://www.w3.org/2000/svg" xmlns:xlink="http://www.w3.org/1999/xlink" version="1.1" viewBox="-10 0 1010 1000">
   <path fill="currentColor"
d="M327 -17q96 -3 96 5q0 3 -4 11q-10 21 -10 39v40h180q0 -72 -6 -95q58 0 74 1q21 1 20 4q-1 5 -5 12q-9 16 -9 36v42h135q95 -1 148 -10v81q-38 -8 -146 -8h-137q0 27 6 48h-86q6 -24 6 -48h-180q0 48 6 60h-90q8 -24 8 -60h-123q-118 0 -160 10v-83q28 6 158 10h125
q0 -78 -6 -95zM214 177q98 6 92 10q1 6 -5 15q-11 17 -11 36v30q74 0 135 -8v76q-30 -9 -137 -8v65q77 0 119 -6v70q-39 -6 -121 -6v71q75 0 139 -8v74q-42 -9 -141 -6v79l61 -32q40 36 97 106l-67 51q-25 -52 -91 -119v113q0 108 8 131h-90q10 -30 10 -127v-121
q-58 112 -119 179q-25 -32 -71 -52q111 -88 170 -206h-35q-49 0 -95 6q-12 1 -18 2v-76q62 8 117 8h53v-71q-88 0 -133 6v-72q56 8 135 8v-67q-107 0 -149 6v-74q39 9 127 10h22v-34q1 -47 -2 -59zM732 189q49 0 64 1q19 1 21 5q-11 20 -11 53v44q87 -3 111 -8v70
q-14 -2 -39 -3q-11 -1 -28 -1h-44v95q107 -4 154 -10v81q-34 -10 -156 -10h-219q-112 -1 -156 8v-77q47 8 113 8v-93q-56 1 -92 8v-74q30 8 94 8q0 -66 -4 -99q79 2 85 8q1 2 -3 8q-11 18 -11 43v40h123q0 -88 -2 -105zM611 352v93h123v-93h-123zM873 548q-2 14 -3 43
q-1 13 -1 32v54v97q0 86 9 127q1 6 1 8h-91q6 -18 6 -63h-231q0 47 8 65h-89q8 -39 8 -139v-103q0 -84 -8 -119q57 8 145 8h93q114 -1 153 -10zM794 610h-231v67h231v-67zM563 727v67h231v-67h-231z" />
</svg>
