<?xml version="1.0" standalone="no"?>
<!DOCTYPE svg PUBLIC "-//W3C//DTD SVG 1.1//EN" "http://www.w3.org/Graphics/SVG/1.1/DTD/svg11.dtd" >
<svg xmlns="http://www.w3.org/2000/svg" xmlns:xlink="http://www.w3.org/1999/xlink" version="1.1" viewBox="-10 0 1034 1024">
  <g transform="matrix(1 0 0 -1 0 820)">
   <path fill="currentColor"
d="M148 357q0 -36 3 -72q0 -144 -2 -175q-3 -6 -3 -41q33 3 68 5l247 -1q15 0 49 -4q-4 57 -5 81l1 173l4 52q-81 -6 -95 -7h-39l45 58q34 39 59 70q-21 -1 -37 -2q-22 -3 -37 -4h-146q22 30 33 39q7 9 30 16q-18 9 -33 16q-7 3 -25 16q-12 -36 -68 -104q-81 -96 -141 -120
q25 -13 48 -30q10 12 34 33q3 1 9 8q0 -3 1 -7zM401 457q-9 -12 -17 -21q-25 -27 -50 -60q-4 -3 -6 -8h-176q70 76 81 89h168zM188 110v90h123v-90h-123zM188 236v97h123v-97h-123zM349 236v97h118v-97h-118zM349 110v90h118v-90h-118zM522 -19q4 18 8 25q-30 -10 -71 -19
q-36 -6 -76 -12l-220 -23q-28 -1 -70 0q-4 1 -7 1q9 -27 18 -57l70 16l219 26l121 12q3 15 8 31zM712 236q-129 3 -137 5v-46q24 4 65 5h72v-125q-117 0 -150 2q-6 0 -22 3v-46q22 4 66 5h106l-5 -192q-1 -1 -1 -4h50q-3 12 -6 52v144l199 -3q6 0 10 -2v46q-33 -1 -67 -5
h-142v125l157 -3q6 0 10 -2v46q-33 -1 -67 -5h-100v117l172 -3q6 0 9 -2v47q-12 -3 -26 -4q-19 -1 -40 -2h-64q4 12 21 35q1 4 5 7q21 36 38 59q13 18 39 31q-31 10 -64 26q-9 -31 -25 -61q-19 -39 -35 -62q-12 -18 -26 -35l-178 1l-18 2q-3 0 -13 3v-47q54 4 79 5h88v-117z
M586 530q-9 -12 -18 -19q49 -40 84 -75l19 -20q6 10 28 30q-46 45 -105 95q-4 -4 -8 -11zM359 669l-244 1q-9 1 -17 2q-3 0 -13 3v-47q18 6 66 6h208q-3 -78 -5 -90h49q-6 18 -6 69v21h240l-4 -82q-1 -1 -1 -6h49q-3 12 -6 64v24q240 0 250 -2q9 0 21 -4v47q-9 -3 -63 -6
h-208q0 75 3 77q0 6 2 9l8 17h-56l2 -13q0 1 2 -24l1 -66h-240q0 75 3 77q0 9 5 17q1 4 6 9h-57q0 -6 2 -11q0 -36 3 -75v-17z" />
  </g>

</svg>
