<?xml version="1.0" standalone="no"?>
<!DOCTYPE svg PUBLIC "-//W3C//DTD SVG 1.1//EN" "http://www.w3.org/Graphics/SVG/1.1/DTD/svg11.dtd" >
<svg xmlns="http://www.w3.org/2000/svg" xmlns:xlink="http://www.w3.org/1999/xlink" version="1.1" viewBox="-10 0 1010 1000">
   <path fill="currentColor"
d="M569 -10q92 0 94 8q1 3 -4 12q-10 15 -10 28v44h182q66 0 113 -6v73q-36 -4 -105 -4h-188v74h-80q2 -20 4 -50q1 -21 2 -24h-170q0 51 4 82h-84q2 -15 3 -32q1 -14 1 -50h-166q-58 0 -76 1q-24 1 -33 3v-73q28 6 111 6h164q0 -20 -3 -72q-1 -12 -1 -18q88 1 94 10
q1 2 -3 8q-11 16 -11 32v40h168q0 -50 -6 -92zM835 155l13 13q34 32 43 45l-52 27q-17 -24 -55 -55zM504 411h-91v76h91v-76zM563 534h-150v76h150v-76zM413 657v89h89v-89h-89zM548 798h-106q-36 0 -77 5q-8 1 -10 1v-3q6 -33 6 -68v-308q0 -39 -6 -73q16 4 70 4h135
q11 0 41 -2q14 -1 22 -2v63q-48 -5 -61 -4h-6v74h11q33 0 55 -4h3q-4 12 -4 57v62q0 45 4 61q-11 -4 -71 -4v87l61 -4v62q-30 -4 -67 -4zM859 248q26 0 79 -8v68q-21 -5 -79 -4h-137q-2 168 34 298q41 -124 56 -229q71 17 89 32q0 5 -12 17q-16 15 -18 23q-38 133 -85 228
q27 77 73 121q23 -20 22 -105q2 1 6 5q20 24 63 48q-32 162 -67 153q-66 -6 -139 -149q-54 83 -131 157q-19 -13 -60 -28q-25 -9 -29 -13q109 -40 190 -179q-57 -200 -55 -379h-359q5 270 -14 394q-19 130 -76 209q-33 -15 -67 -20q-14 -2 -16 -6q102 -96 109 -309h-75
q-12 154 -78 274q-31 -31 -61 -46q68 -78 77 -226q-49 -1 -67 4v-66q27 3 63 4h141v-79h-73q-17 0 -80 6q0 -3 1 -10q7 -74 7 -107q0 -54 -8 -103q76 -2 88 8q1 3 -3 7q-9 9 -9 30v113h77v-65q0 -42 -6 -74q2 0 9 1q35 5 69 5h347q0 -32 2 -53q65 2 87 14q1 2 -5 9
q-13 15 -15 30h135z" />
</svg>
