<?xml version="1.0" standalone="no"?>
<!DOCTYPE svg PUBLIC "-//W3C//DTD SVG 1.1//EN" "http://www.w3.org/Graphics/SVG/1.1/DTD/svg11.dtd" >
<svg xmlns="http://www.w3.org/2000/svg" xmlns:xlink="http://www.w3.org/1999/xlink" version="1.1" viewBox="-10 0 1034 1024">
  <g transform="matrix(1 0 0 -1 0 820)">
   <path fill="currentColor"
d="M232 195q-1 -63 -8 -108q-4 -33 -21 -81q-34 -94 -100 -147q33 -10 47 -24q52 60 85 144q33 93 33 240l3 256h413q10 -169 31 -272l20 -103q-15 -36 -32 -66q-15 -27 -52 -73v33q-6 0 -14 -3q-22 -3 -92 -3h-22v105q63 0 76 -2q15 0 36 -3q-3 15 -4 52l-1 67q1 30 5 62
q-60 -6 -78 -6h-34v96q94 0 107 -3q9 0 18 -2v43q-33 -1 -65 -5l-200 1q-15 3 -43 4q1 -33 5 -68l-1 -330q-3 -12 -4 -49q15 3 57 4l200 1q21 0 46 -4l2 -1q-43 -49 -82 -70q28 -9 50 -28q15 13 59 74q24 31 41 58q18 27 43 72q15 -42 32 -72q33 -67 64 -99q30 -30 55 -30
q27 0 50 51q10 25 19 55q-22 15 -44 36q-3 -34 -6 -48q0 -6 -2 -11q-6 -33 -24 -33q-15 0 -32 23q-21 25 -36 54q-33 54 -50 118q10 30 15 38q13 33 29 66q3 6 9 24q7 24 17 46l30 76q6 12 21 24q-31 9 -56 21q-3 -13 -7 -27q-22 -93 -79 -222l-17 100l-6 53l-12 123
q-1 30 -3 53l180 -3q4 0 13 -2v44q-66 -6 -82 -6h-111v52q0 6 8 28q-27 -1 -55 0l6 -80l-405 1q-7 1 -50 5q1 -37 5 -77v-65h-89v83q0 12 3 31q1 18 10 34h-53l4 -83l-4 -105q42 6 98 6h31v-110l-174 3v-40q15 3 45 4q0 -66 -10 -126q-12 -75 -46 -127q27 0 48 -5
q22 60 33 114q9 57 13 144h91zM381 -12v105h105v-105h-105zM381 126v104h213v-104h-213zM381 263v96h105v-96h-105zM362 683h-235q-6 0 -50 3q-6 0 -16 3v-45q30 6 59 6h242q-3 -84 -5 -95h47q-1 6 -6 64v31h224q-3 -78 -5 -91h47q0 4 -6 65v26l250 -1q24 0 42 -5v45l-31 -4
q-16 0 -35 -2h-226v31q0 13 3 32q1 18 11 32h-55l5 -62v-33h-224q0 42 3 63q1 18 12 30h-56q4 -42 5 -81v-12zM751 601q57 -31 86 -71q15 24 21 29q-7 7 -19 18q-13 12 -43 34q-9 9 -26 18q-3 -3 -4 -7q-9 -9 -15 -21v0z" />
  </g>

</svg>
