<?xml version="1.0" standalone="no"?>
<!DOCTYPE svg PUBLIC "-//W3C//DTD SVG 1.1//EN" "http://www.w3.org/Graphics/SVG/1.1/DTD/svg11.dtd" >
<svg xmlns="http://www.w3.org/2000/svg" xmlns:xlink="http://www.w3.org/1999/xlink" version="1.1" viewBox="-10 0 1010 1000">
   <path fill="currentColor"
d="M595 -15q8 0 24 1q75 2 73 6q1 2 -3 12q-13 35 -14 70h117q117 1 176 -8v79q-52 -7 -174 -8h-121q0 38 4 54h-80q9 -19 8 -52h-186q1 41 8 64h-84q8 -19 8 -64h-153q-88 1 -140 8v-79q55 7 142 8h149q-1 -64 -6 -88q92 0 97 8q3 5 -3 14q-17 26 -16 66h184q0 -62 -10 -91
zM310 193q71 52 67 59q0 3 -14 6q-36 8 -69 24q18 16 49 64l56 -46q53 51 53 69q-1 5 -13 7q-19 3 -34 11q-5 3 -20 11q-35 21 -56 33q67 44 88 177q20 159 -24 238q161 -26 172 -244q-72 0 -95 6q3 -21 6 -102v-160q0 -43 -6 -72q26 5 83 4h18q11 -26 20 -77q97 4 105 16
q1 4 -13 18q-25 25 -36 45h159q56 0 87 -6q-6 24 -6 76v184q0 47 6 72q-48 -3 -119 -4v166q-4 49 30 48q42 3 65 -8q25 -18 26 -89q34 31 83 47q-10 73 -27 93q-18 26 -64 28q-42 2 -117 2q-48 -6 -58 -18q-14 -13 -14 -51v-218h-65q-2 223 -177 307l-13 -13
q-27 -30 -56 -40q-20 25 -64 40q-44 14 -83 9q-3 -45 -36 -91q38 9 75 4q34 -5 46 -22q30 -36 30 -149q-82 92 -240 175q-19 -30 -61 -60q202 -65 291 -188q-2 -3 -5 -13q-6 -16 -11 -25q-84 81 -230 151q-19 -33 -57 -56q139 -34 258 -141q-6 -8 -19 -20l-7 -7
q-90 43 -177 77q-24 -42 -47 -59q89 -19 135 -40q-20 -42 -54 -79q-10 3 -38 23q-20 -34 -55 -67q152 -43 272 -125zM242 306q-33 14 -61 32q36 32 59 73q17 -8 52 -32l2 -2q-2 -2 -5 -7q-28 -48 -47 -64zM552 344v65h260v-65h-260zM552 473v65h260v-65h-260z" />
</svg>
