<?xml version="1.0" standalone="no"?>
<!DOCTYPE svg PUBLIC "-//W3C//DTD SVG 1.1//EN" "http://www.w3.org/Graphics/SVG/1.1/DTD/svg11.dtd" >
<svg xmlns="http://www.w3.org/2000/svg" xmlns:xlink="http://www.w3.org/1999/xlink" version="1.1" viewBox="-10 0 1010 1000">
   <path fill="currentColor"
d="M587 -19q55 0 70 1q20 2 20 6q0 3 -4 8q-12 18 -12 42v36h141q82 0 152 -8v75q-35 -8 -152 -8h-137q0 21 6 46h-68q59 17 62 30q1 2 -6 6q-19 12 -30 27h137q53 0 101 -5q15 -2 20 -2q-3 47 -6 117q-2 100 -16 115q-27 41 -137 55q7 -40 -32 -85q63 11 88 0
q23 -20 24 -135h-58q-27 109 -143 175q-15 -24 -59 -53l-2 -1q100 -31 137 -121h-90q-18 30 -53 73q-32 -27 -64 -35v49q-47 -12 -143 -8v54q0 64 6 103h-81q1 -5 2 -13q6 -57 6 -84v-50q-52 90 -137 161q-15 -18 -71 -50q93 -38 152 -119q-104 -1 -137 8v-71q56 8 125 8h68
v-54q-6 1 -31 3q-83 6 -96 9q-5 -31 -34 -69q79 8 167 0q87 -8 149 -28q62 59 57 67q0 2 -8 1q-27 -6 -55 -1q-10 2 -29 4q-46 7 -53 10v56q99 0 141 -8l2 10q55 -22 107 -155q8 -16 8 -38h-190q0 36 6 52l-92 -2q8 -31 8 -50h-123q-110 0 -148 12v-83q40 12 146 12h125
q0 -72 -2 -89q87 2 98 9q0 4 -6 11q-14 14 -14 37v32h192v-44q0 -25 -4 -51zM385 393q34 26 69 60l-55 41q-12 -22 -58 -67zM502 413q167 180 460 183q-25 25 -51 95q-271 -63 -401 -189q-145 130 -409 207q-10 -27 -61 -78q311 -35 462 -218zM480 556q15 1 42 3q47 1 47 7
q1 3 -1 7q-10 16 -10 48v70q50 -22 117 -72q8 5 21 14q55 33 44 38q-2 2 -13 5q-49 9 -108 45q113 27 246 77q-25 32 -50 83q-76 -55 -257 -129v86q13 63 -141 77q0 -55 -42 -97q114 31 111 -28v-135q0 -69 -6 -99zM361 629q28 16 54 58q-29 12 -76 40q-16 -33 -49 -62
q42 -12 71 -36zM452 687q0 2 1 5q9 53 15 64q-167 61 -253 111q-12 7 -13 6q-4 -2 -11 -18q-17 -40 -42 -65q2 -2 13 -3q96 -10 290 -100z" />
</svg>
