<?xml version="1.0" standalone="no"?>
<!DOCTYPE svg PUBLIC "-//W3C//DTD SVG 1.1//EN" "http://www.w3.org/Graphics/SVG/1.1/DTD/svg11.dtd" >
<svg xmlns="http://www.w3.org/2000/svg" xmlns:xlink="http://www.w3.org/1999/xlink" version="1.1" viewBox="-10 0 1034 1024">
  <g transform="matrix(1 0 0 -1 0 820)">
   <path fill="currentColor"
d="M194 21q6 12 15 25q15 28 53 92q-27 21 -40 40q-18 -60 -75 -157q-52 -85 -84 -109q27 -15 46 -34q3 10 85 143zM241 268q-12 9 -20 17q-6 4 -19 13l-108 74q-6 -15 -27 -43q93 -40 144 -104l27 40q0 1 3 3zM373 687h-226q-6 0 -49 3q-6 0 -16 3v-48q30 6 60 6h231
q-3 -81 -5 -96q-1 0 -1 -3h51q-1 6 -6 64v35h229q-3 -87 -5 -99h50q-1 6 -6 64v35l257 -3q3 0 12 -3v48q-12 -3 -31 -4q-16 0 -35 -2h-203q0 42 3 62q1 18 10 31h-57q4 -33 5 -70v-23h-229q0 42 3 62q1 18 10 31h-58q1 -7 6 -61v-32zM124 513q10 -7 23 -15q39 -22 60 -38
q25 -19 57 -52q18 24 30 37q-48 45 -143 107q-16 -27 -27 -39zM264 158q3 -1 9 -8q9 -9 23 -25q36 15 73 35q0 -21 2 -45q0 -231 -3 -262q-1 -1 -1 -4q0 3 -2 -15h46q0 3 -2 7q-3 42 -3 62h376q-3 -64 -5 -69h47l-4 44q-1 13 -2 36l1 226q0 3 4 13q0 9 1 15q79 -31 128 -43
q4 15 17 30q1 3 4 5q3 6 8 12q-81 0 -182 47q-70 34 -149 103l248 -1q18 0 43 -5v41q-6 0 -15 -3l-108 -2h-87q46 66 90 81q-18 13 -48 34q-30 -54 -81 -115h-79v123q90 6 175 16q13 3 39 4q9 0 37 -4q-9 12 -14 23q-4 9 -7 17l-3 9q-54 -13 -127 -23q-135 -16 -247 -17
q-42 0 -82 2q-22 0 -53 4q6 -13 17 -44l230 10v-120h-64l-63 72l-25 26q-15 -18 -29 -28l11 -11q36 -30 61 -59l-200 5v-41q1 0 4 1q15 3 12 2q16 0 51 3h207q-15 -10 -28 -23q-43 -36 -80 -61q-39 -22 -90 -45q-51 -18 -91 -25zM578 261q0 -46 -6 -67h50q-9 54 -9 86v36
q66 -76 185 -138q-36 -3 -50 -4h-304q-4 0 -42 4q87 49 176 138v-55zM406 -64v92h169v-92h-169zM575 141v-84h-169v84h169zM612 57v84h170v-84h-170zM782 -64h-170v91h170v-91z" />
  </g>

</svg>
