<?xml version="1.0" standalone="no"?>
<!DOCTYPE svg PUBLIC "-//W3C//DTD SVG 1.1//EN" "http://www.w3.org/Graphics/SVG/1.1/DTD/svg11.dtd" >
<svg xmlns="http://www.w3.org/2000/svg" xmlns:xlink="http://www.w3.org/1999/xlink" version="1.1" viewBox="-10 0 1034 1024">
  <g transform="matrix(1 0 0 -1 0 820)">
   <path fill="currentColor"
d="M349 690l-239 1q-9 1 -22 2q-3 0 -17 2v-47q7 1 65 6h213l-4 -70q-1 -1 -1 -3h49q-3 12 -3 25q0 24 -2 48h246l-4 -63q-1 -1 -2 -6h50q-4 48 -5 69q250 0 263 -2q9 0 23 -4v47q-9 0 -65 -5h-221q0 45 3 62q1 18 10 31h-58q3 -9 3 -14q1 -27 3 -51v-28h-246q0 60 3 66
q3 15 10 26h-57l2 -15q0 -36 3 -75v-2zM255 261q6 12 8 13q-39 28 -85 53q-55 31 -71 39q-9 -18 -11 -20q-3 -9 -8 -15q-1 -6 -4 -8q48 -18 71 -31q61 -36 87 -61q4 9 13 30zM128 -132q9 22 34 69q13 33 57 112l57 104q-27 21 -42 40q-9 -33 -23 -67l-45 -95
q-27 -54 -48 -85q-13 -19 -40 -46q19 -7 36 -20q6 -6 14 -12zM150 523q7 -4 16 -9q10 -6 23 -13l53 -37q30 -22 54 -45l8 16q1 1 17 22q-6 6 -109 78q-13 7 -39 27q0 -4 -5 -10q0 -1 -2 -4q-6 -7 -11 -16q-3 -4 -5 -9zM580 -93q0 -21 -5 -66h50q0 3 -6 64v176l18 -19
q33 -36 58 -57t75 -54q36 -22 66 -37q36 -16 93 -40q24 33 46 46q-22 1 -40 6q-58 15 -121 51q-81 42 -144 108l241 -1q22 0 26 -3q4 0 16 -3v48q-6 0 -13 -2q-1 -1 -18 -2q-16 0 -35 -2h-268q0 33 3 38q3 13 11 23h-58q4 -49 5 -61l-249 1q-10 1 -42 5v-48q25 6 52 6l183 1
q-43 -48 -132 -104q-78 -48 -145 -66q24 -12 47 -41q181 102 286 211v-178zM331 348q6 -54 6 -76q0 -43 -5 -84q-1 -1 -1 -5q51 4 105 5l98 -1l47 -4q-6 72 -6 95q1 42 6 70q-30 -1 -62 -5l-143 1q-19 3 -45 4zM537 224h-164v83h164v-83zM400 557q4 -99 5 -104q0 -10 -5 -67
q34 3 71 5l296 -1q18 0 50 -4q-4 49 -5 76q0 45 2 57q0 18 3 38q-33 -1 -68 -5l-298 1q-19 3 -51 4zM443 427v89h330v-89h-330zM695 347l-39 4q-12 1 -23 1q0 -7 2 -17q0 1 1 -10q3 -21 3 -73q0 -15 -6 -64q60 6 79 6l138 -1q12 0 43 -5q-4 48 -5 94q1 34 5 70
q-30 -1 -59 -5h-139zM676 229v82h173v-82h-173z" />
  </g>

</svg>
