<?xml version="1.0" standalone="no"?>
<!DOCTYPE svg PUBLIC "-//W3C//DTD SVG 1.1//EN" "http://www.w3.org/Graphics/SVG/1.1/DTD/svg11.dtd" >
<svg xmlns="http://www.w3.org/2000/svg" xmlns:xlink="http://www.w3.org/1999/xlink" version="1.1" viewBox="-10 0 1010 1000">
   <path fill="currentColor"
d="M591 -17q53 0 96 9q0 2 -3 6q-11 12 -11 44v34h144q89 0 129 -12v83q-27 -8 -129 -8h-144q0 54 6 78h-94q8 -40 8 -78h-198q-3 48 6 78h-91q7 -45 7 -78h-113q-101 0 -154 12v-85q40 10 158 10h109q0 -59 -4 -86q20 1 51 3q42 1 43 5q-14 12 -14 48v30h200v-65
q-1 -20 -2 -28zM440 167q7 2 20 6q63 20 60 24q1 3 -7 8q-27 15 -47 43q73 1 142 -3q20 -2 23 -1q-7 12 -83 114q88 0 115 -6q-6 35 -6 101v51q0 101 6 125q-27 -9 -145 -8q0 9 -1 26q-1 16 -1 24h47q83 0 129 -6v64q-38 -6 -123 -6h-61q78 46 153 97l-62 59
q-48 -55 -121 -101q-46 65 -147 111q-16 -24 -71 -65q141 -16 180 -101h-41q-92 -1 -119 8v-68q63 8 123 8h53q4 -22 4 -50q-119 -4 -148 8q9 -36 9 -121v-99q-35 29 -79 85v260q-1 129 10 145h-93q10 -41 10 -143v-176l-20 20q-43 44 -58 57q-18 -27 -63 -51
q138 -91 214 -248q60 25 79 47q0 -27 -4 -49q18 3 48 4q-24 -18 -52 -30q78 -57 127 -163zM228 183q40 21 82 52q-21 2 -42 35q-56 80 -151 173q-31 -34 -71 -48q122 -84 182 -212zM921 246v86q-30 -9 -100 -8h-33q-70 0 -105 6v-82q43 8 103 8h29q66 0 106 -10zM520 300
h-89q-33 39 -46 60h95zM593 409h-75v56h75v-56zM381 409v58h81v-58h-81zM681 415q13 6 103 6h51q62 0 109 -6v79q-2 0 -8 -1q-40 -6 -97 -5v326q2 38 -26 51q-27 15 -117 24q5 -46 -35 -99q112 31 103 -36v-266q-54 -1 -83 8v-81zM383 512l-2 60h81v-60h-79zM518 510v62h77
v-62h-77z" />
</svg>
