<?xml version="1.0" standalone="no"?>
<!DOCTYPE svg PUBLIC "-//W3C//DTD SVG 1.1//EN" "http://www.w3.org/Graphics/SVG/1.1/DTD/svg11.dtd" >
<svg xmlns="http://www.w3.org/2000/svg" xmlns:xlink="http://www.w3.org/1999/xlink" version="1.1" viewBox="-10 0 1010 1000">
   <path fill="currentColor"
d="M335 -12q83 1 90 10q0 3 -4 9q-15 20 -12 57h170q0 -43 -4 -70h19q72 -2 69 8q0 4 -5 11q-15 21 -15 51h149q89 0 160 -8v77q-62 -9 -160 -10h-149q1 34 6 52l65 -14q13 28 18 70h46q72 0 117 -8v69q-75 -10 -111 -8h-20q60 16 67 24q0 2 -6 5q-13 7 -19 15
q-13 13 -38 45h24q86 -1 119 -8v68q-44 -7 -133 -8h-66v60h24q95 -1 157 -10v73q-45 -7 -161 -8h-18q-3 36 6 95h-79q9 -73 8 -97h-32q-96 1 -127 8v-71q62 8 125 10h34v-62h-28q-92 1 -147 8v-68q45 8 107 8q-14 -45 -35 -71l73 -14q13 23 30 85h57q22 -31 42 -87h-143
q-73 1 -111 8v-67q47 8 103 8h68q-6 -27 -28 -48h-68q7 -32 8 -62h-166q-1 48 6 66h-86q8 -24 8 -66h-137q-98 0 -152 8v-75q55 8 146 8h143q0 -44 -4 -76zM218 139q51 8 88 24q-33 23 -44 62h97q55 0 79 -4q-3 28 -3 53v56q0 39 3 57q-12 -5 -59 -4h-181v46h167q50 0 68 -4
q-5 13 -4 56v63q-1 35 4 50q-13 -5 -62 -4h-244v-312q0 -43 -6 -61q27 6 79 6q14 -35 18 -84zM198 272v64h165v-64h-165zM198 477v63h159v-63h-159zM444 566q85 1 100 12q1 3 -3 11q-15 27 -15 70h232q132 -1 177 -8v70q-38 -4 -101 -8q-54 -3 -74 -2h-163q76 54 156 76
q78 23 191 21q-45 39 -63 95q-269 -56 -347 -190h-8v79q-2 46 8 113h-94q10 -54 10 -117v-77h-10q-103 123 -353 180q-6 -41 -55 -91q195 3 339 -89h-163q-111 1 -158 8v-68q57 8 154 8h246q0 -48 -6 -93z" />
</svg>
