<?xml version="1.0" standalone="no"?>
<!DOCTYPE svg PUBLIC "-//W3C//DTD SVG 1.1//EN" "http://www.w3.org/Graphics/SVG/1.1/DTD/svg11.dtd" >
<svg xmlns="http://www.w3.org/2000/svg" xmlns:xlink="http://www.w3.org/1999/xlink" version="1.1" viewBox="-10 0 1034 1024">
  <g transform="matrix(1 0 0 -1 0 820)">
   <path fill="currentColor"
d="M152 366q-33 0 -54 4q-6 0 -13 3v-42q54 4 82 5h6q-3 -54 -15 -104q33 3 67 5h197q-30 -21 -83 -48q-51 -21 -93 -29q12 -15 15 -21q6 -10 11 -25q18 3 32 7q10 0 28 3q24 0 151 6l-134 -46q-46 -15 -61 -19l-78 -15q-15 -3 -31 -4q12 -31 19 -56q16 3 33 9q63 10 83 12
q12 1 191 8v-104q0 -16 -8 -24q-12 -6 -42 -7q-27 0 -61 7q9 -24 13 -49q43 0 77 5q16 3 30 8q30 12 30 57v107q9 3 225 11q33 -19 54 -40q6 12 17 27q3 6 7 9q-10 10 -59 43t-99 68q-10 -16 -26 -30q18 -9 36 -20l48 -28l-435 -17l230 80q63 22 84 30q21 6 56 9
q-12 10 -23 22q-13 12 -22 27q-21 -31 -90 -55l-232 -4l106 42q19 6 51 9q-27 18 -42 35q36 0 102 -3q10 0 21 -4v44q-19 0 -37 -2q1 33 5 64q33 0 66 -3q6 0 9 -2v42q-3 -1 -7 -2q3 1 -20 -3q-24 -1 -46 -2q0 22 2 43q1 31 10 57q-36 -1 -71 -5l-236 1q-19 3 -48 4
q1 -27 2 -47q0 -21 -4 -53h-26zM205 268q1 34 5 68h97q-4 -7 -8 -17q13 -6 17 -8q12 -6 24 -13q25 -15 39 -30h-174zM215 366l6 65h84q-3 -9 -10 -16q60 -24 84 -49h-164zM387 366q7 15 16 29q-54 30 -66 36h152q-1 -31 -2 -65h-100zM483 336l-3 -68h-94q4 15 15 31l-73 37
h155zM254 549q25 30 60 47q-36 13 -53 28q-6 -24 -66 -87q-48 -46 -93 -67q25 -10 48 -25q45 42 72 73l337 -3q3 0 11 -2v41q-3 0 -6 -1q-3 0 -6 -1q-27 0 -54 -3h-250zM193 -138l97 45q57 28 98 31q-25 19 -44 44q-6 -9 -29 -22q-27 -13 -54 -27q-79 -36 -138 -45
q21 -21 36 -41q16 7 34 15zM869 474q27 0 57 -3q6 0 9 -2v42q-72 -4 -110 -5h-120q27 58 54 76q-18 6 -39 17q-7 4 -16 8q-4 -34 -39 -100q-45 -78 -105 -105q34 -12 51 -23q33 30 73 95h138q-24 -75 -74 -131q-40 36 -56 87q-21 -9 -40 -19q1 -3 5 -7q12 -19 45 -65
q7 -10 15 -22q-45 -30 -72 -45q-27 -12 -88 -23q34 -22 47 -41q15 6 81 44q21 12 48 32l10 7q81 -57 173 -90q15 27 41 48q-90 1 -185 68q54 64 91 157h6zM856 -95l-82 38l-107 49q-7 -19 -21 -36q51 -18 121 -51q76 -36 106 -56q6 22 19 38zM343 670l-255 1q-9 1 -17 2
q-3 0 -13 3v-43q15 4 67 5h218q-1 -13 -1 -28q0 -21 -4 -34h49q0 3 -2 8q-1 4 -3 26q0 10 -1 28h245l-5 -68h49q-3 12 -5 35l-1 33l258 -1l41 -4v43q-7 -1 -59 -6h-240q0 54 3 60q3 15 10 25h-56l2 -13q0 1 2 -24l1 -48h-245q0 57 3 62q0 7 10 23h-56q0 -3 1 -6z" />
  </g>

</svg>
