<?xml version="1.0" standalone="no"?>
<!DOCTYPE svg PUBLIC "-//W3C//DTD SVG 1.1//EN" "http://www.w3.org/Graphics/SVG/1.1/DTD/svg11.dtd" >
<svg xmlns="http://www.w3.org/2000/svg" xmlns:xlink="http://www.w3.org/1999/xlink" version="1.1" viewBox="-10 0 1010 1000">
   <path fill="currentColor"
d="M325 -21q58 0 94 6q1 2 -3 10q-15 28 -15 67h202q0 -51 -4 -79q21 1 51 1q44 0 42 4q-17 14 -17 74h156q50 0 98 -6v75q-2 0 -7 -1q-57 -7 -79 -7h-166q-1 48 4 64h-80q4 -25 4 -64h-204q0 41 4 64h-80q5 -15 4 -64h-123q-70 0 -127 8v-75q55 6 115 6h135q0 -16 -3 -61
q-1 -14 -1 -22zM528 145q3 21 14 64h260q71 0 105 -6v69q-48 -6 -107 -6h-74v64h42q79 -3 133 -8v61q-42 -6 -139 -6q62 69 169 86q-41 30 -60 69q-104 -50 -145 -131q0 61 6 111h-73q6 -47 6 -109q-48 68 -107 117q-23 -25 -60 -39q71 -30 133 -104q-45 0 -85 6v-61
q77 8 119 8v-64h-248v64q64 -1 103 -4v57q-36 -6 -103 -6v42l45 -24q21 16 64 56l-50 36q-18 -24 -59 -60q0 51 8 89h-78q8 -41 8 -115q-43 68 -107 125q-12 -21 -38 -39q1 179 -113 386q-40 -32 -85 -43q120 -139 123 -373v-22q3 -110 -2 -182q-1 -20 -2 -50q42 6 135 6
h200q-2 -13 -17 -42q-4 -9 -7 -14zM210 266v205q58 -30 107 -96q-43 0 -85 6v-57q54 6 123 6v-64h-145zM427 518q10 0 30 -1q53 -2 55 5q1 2 -1 11q-11 37 -11 90v179q-3 63 6 99h-79q4 -32 4 -71h-125q-84 0 -119 6v-68q60 8 119 10h125v-53h-60q-73 0 -127 6v-64
q42 6 125 6h62v-54h-80q-67 0 -115 6v-61q17 2 42 3q12 1 28 1h43h82q1 -39 -4 -50zM567 522h31q65 -2 61 6q1 2 -4 9q-12 15 -12 29h113q84 0 125 -6v63q-44 -3 -137 -6h-101v56h103q88 0 115 -6v66q-41 -8 -113 -8h-105v53h125q105 0 147 -6v64q-47 -5 -151 -6h-119
q-1 4 0 38q1 25 2 43h-80q6 -31 6 -99v-189q0 -77 -6 -101z" />
</svg>
