<?xml version="1.0" standalone="no"?>
<!DOCTYPE svg PUBLIC "-//W3C//DTD SVG 1.1//EN" "http://www.w3.org/Graphics/SVG/1.1/DTD/svg11.dtd" >
<svg xmlns="http://www.w3.org/2000/svg" xmlns:xlink="http://www.w3.org/1999/xlink" version="1.1" viewBox="-10 0 1034 1024">
  <g transform="matrix(1 0 0 -1 0 820)">
   <path fill="currentColor"
d="M348 519q129 -3 133 -5q3 0 6 -1v42q-7 -3 -54 -6l-314 1q-7 1 -15 2q-3 0 -12 3v-42q60 6 81 6h54v-99l-89 3q-12 0 -23 2q4 -54 5 -65l-1 -449q-1 -7 -1 -16q0 -4 -3 -14h45q-3 6 -4 38l-1 37h247q-1 -12 -2 -31q-1 -25 -4 -36h47q-3 6 -4 38l-1 424q21 -3 45 -13
q4 7 11 16l55 81v-322q0 -25 -4 -52h44q-3 15 -4 52q312 0 321 -3q3 0 8 -2v40q-3 0 -60 -5h-112v93l125 -5q3 0 6 -1v42q-31 -1 -63 -5h-68v88q57 0 122 -3q3 0 10 -3v41q-63 -6 -91 -6h-41v91l147 -3q6 0 9 -3v42q-6 0 -11 -3q-15 -1 -51 -2h-90q10 12 25 23l-50 71
q-19 30 -21 32q-15 -12 -32 -23q39 -46 72 -103h-152q6 19 20 38q10 13 29 21q-27 13 -49 31q-3 -15 -55 -120q-45 -81 -95 -114l3 34q0 15 2 30q-66 -4 -95 -5v98zM155 387h70q-3 -57 -14 -105q-22 -69 -56 -91v196zM155 -13v91h247v-91h-247zM402 109h-247v72
q19 -1 44 -11q48 81 59 217h58v-125q0 -27 7 -40q13 -22 47 -23l32 1v-91zM316 420h-57v99h57v-99zM402 239q-18 -1 -25 -2q-28 0 -29 39v111h54v-148zM585 143v93h122v-93h-122zM585 267v88h122v-88h-122zM585 384v91h122v-91h-122zM468 -99l18 -6q42 81 60 106
q10 18 31 28l-50 32q-6 -27 -25 -65q-24 -45 -35 -61q-10 -15 -24 -25q6 -1 12 -4q1 0 5 -2q3 -1 8 -3zM633 -97q1 0 4 1q12 4 27 5q0 3 -13 90q-3 25 -8 54q-18 -6 -38 -8q18 -64 20 -144q3 1 8 2zM776 -10l-7 30l-10 43q-15 -6 -39 -11q27 -102 31 -138q7 1 13 5q9 1 19 4
q3 0 8 1zM933 -81q-13 34 -29 66q-16 33 -47 89q-10 -10 -35 -19q3 -3 34 -62q10 -18 31 -68q4 -13 10 -29q4 1 13 8q10 7 23 15zM350 710l-234 1q-12 0 -26 4v-46q18 6 62 6h198l-4 -78q-1 -1 -1 -5h46q-3 6 -4 38l-1 45h224q-3 -75 -5 -78h46q0 6 -3 13l-2 65l253 -3
q6 0 9 -3v46q-31 -1 -63 -5h-199q1 34 5 69l8 17h-54q1 -6 2 -13q3 -54 3 -73h-224q0 57 3 62q1 13 9 24h-53q0 -6 2 -11q0 -36 3 -75v0z" />
  </g>

</svg>
