<?xml version="1.0" standalone="no"?>
<!DOCTYPE svg PUBLIC "-//W3C//DTD SVG 1.1//EN" "http://www.w3.org/Graphics/SVG/1.1/DTD/svg11.dtd" >
<svg xmlns="http://www.w3.org/2000/svg" xmlns:xlink="http://www.w3.org/1999/xlink" version="1.1" viewBox="-10 0 1010 1000">
   <path fill="currentColor"
d="M325 -13q78 0 94 11q2 1 -3 10q-19 32 -19 66h182q0 -43 -5 -77q-1 -7 -1 -10q83 -3 94 9q2 3 -3 14q-12 30 -13 64h137q50 2 145 -8v79q-43 -7 -145 -8h-135q-2 23 8 56h-88q8 -27 8 -56h-182q0 49 8 76h-86q2 -17 5 -43q3 -27 3 -33h-125q-76 1 -146 8v-79q42 7 142 8
h129q0 -42 -3 -76q-1 -8 -1 -11zM760 171q16 24 38 91l-52 18q112 -2 183 -8v64q-32 -7 -147 -8v73q80 -1 127 -8v62q-35 -7 -127 -8v77q93 0 137 -8v64q-30 -7 -137 -8v73h33q80 -1 133 -8v68q-61 -6 -146 -8h-175l4 36h-71q6 -48 7 -147v-187l-37 64q-42 -31 -48 -28v331
q0 67 6 105h-73q0 -4 1 -14q3 -17 3 -31h-256q0 4 1 14q4 49 9 67h-88q13 -62 14 -107v-363q0 -12 -3 -48q-1 -12 -1 -18q57 4 117 4v-81h-31q-60 0 -112 8v-71q30 7 114 7h202q69 0 123 -7v71q-47 -7 -125 -8h-26v81q87 -1 129 -4q-5 13 -4 52q78 -92 107 -224q68 19 76 30
q1 2 -7 11q-19 19 -27 40h93q-6 -50 -32 -89zM260 294v81h52v-81h-52zM722 328h-95v73h95v-73zM214 423h-51v236h256v-63q-91 10 -107 -32v-141h-52q3 124 -30 204q-24 -19 -63 -19q49 -58 47 -185zM357 423v113q-4 25 62 16v-129h-62zM722 449h-95v75h95v-75zM627 572v73
h95v-73h-95zM163 707v71h256v-71h-256zM913 738q30 60 51 131l-77 14q-5 -72 -40 -135zM792 742q26 60 33 125l-69 12q-4 -50 -24 -125zM526 744q43 12 67 12q-20 51 -31 147q-36 -13 -76 -12q32 -84 40 -147zM681 750q12 55 19 127l-69 10q3 -52 -12 -131z" />
</svg>
