<?xml version="1.0" standalone="no"?>
<!DOCTYPE svg PUBLIC "-//W3C//DTD SVG 1.1//EN" "http://www.w3.org/Graphics/SVG/1.1/DTD/svg11.dtd" >
<svg xmlns="http://www.w3.org/2000/svg" xmlns:xlink="http://www.w3.org/1999/xlink" version="1.1" viewBox="-10 0 1010 1000">
   <path fill="currentColor"
d="M440 -13q103 0 110 9q1 2 -5 9q-21 26 -21 55h228q52 0 115 -8v77q-47 -6 -115 -6h-228v68h303q60 -4 113 -10q0 2 -2 5q-22 70 -49 148q-44 -11 -91 -8q19 -37 31 -72h-297v72l133 -10q69 -7 93 -14l6 73q-47 -3 -95 0l-137 8q-2 48 8 60q8 15 43 14h121q96 4 98 -99
q35 30 81 43q-26 72 -53 94q-29 26 -86 25h-155q-95 2 -112 -21q-23 -16 -21 -110l-81 8q-29 4 -63 9q-19 3 -30 5v-69l81 -2l93 -8v-78h-212q3 88 -8 276q-17 220 -127 367q-36 -31 -87 -41q121 -101 137 -346q5 -94 6 -185q0 -88 -4 -144q17 2 57 6q27 2 42 4h186
q0 -158 -6 -204zM516 532q15 1 41 4q66 5 62 10q0 2 -5 7q-17 22 -23 51h171q58 0 109 -6q-2 19 -6 50q-14 106 -24 158q-7 53 -41 70q-36 20 -133 25q-4 -46 -40 -95q129 22 135 -38q9 -34 16 -97h-207q-52 174 -289 238q-23 -48 -68 -79q217 -19 276 -159h-101
q-60 0 -115 6v-79q58 6 117 6h119q7 -25 6 -72z" />
</svg>
