<?xml version="1.0" standalone="no"?>
<!DOCTYPE svg PUBLIC "-//W3C//DTD SVG 1.1//EN" "http://www.w3.org/Graphics/SVG/1.1/DTD/svg11.dtd" >
<svg xmlns="http://www.w3.org/2000/svg" xmlns:xlink="http://www.w3.org/1999/xlink" version="1.1" viewBox="-10 0 1034 1024">
  <g transform="matrix(1 0 0 -1 0 820)">
   <path fill="currentColor"
d="M228 532h661q-27 -78 -58 -115l49 -16q6 13 11 26q15 37 31 73q18 54 28 73q-37 -1 -75 -5h-338v84h268q27 0 51 -3q3 0 15 -2v46q-10 0 -15 -3q-13 0 -51 -2h-268q0 51 3 58q1 10 10 24h-56q0 -9 2 -13l3 -97v-92l-266 1q-19 3 -48 4q1 -24 2 -39q3 -24 3 -33l-1 -317
l-8 -77q-18 -108 -67 -176q-24 -34 -62 -61q33 -9 56 -23q36 48 57 83q43 84 58 194q3 28 4 55zM671 140v-207q0 -57 37 -70q27 -7 108 -8q46 0 76 8q45 12 62 73q4 18 15 65q-34 12 -48 24l-1 -37q-3 -63 -35 -83q-19 -10 -57 -11l-64 2q-33 0 -44 9q-10 9 -11 42v165
q0 9 3 34q0 12 3 36q-72 -6 -92 -6l-156 1q-12 3 -25 3q-6 0 -20 2q6 -42 6 -79q0 -78 -16 -117q-22 -49 -87 -85q-36 -18 -88 -29q22 -13 40 -39q51 21 96 52q69 46 87 133q3 18 4 42q1 28 3 80h204zM278 343q43 7 69 12l149 17v-46q0 -54 28 -71q15 -9 46 -12
q45 -3 101 -4q42 0 77 3q51 6 73 23q22 19 45 82q-27 12 -44 29q-1 -45 -14 -65q-21 -33 -133 -34q-39 0 -93 5q-28 1 -40 13q-7 7 -8 35v46q201 24 219 24l44 -1q-3 24 -5 46q-33 -9 -64 -12l-194 -21q0 69 3 79q1 10 10 24h-57q0 -3 2 -8l4 -100q-177 -15 -185 -17
q-12 0 -37 3q1 -24 4 -50v0z" />
  </g>

</svg>
