<?xml version="1.0" standalone="no"?>
<!DOCTYPE svg PUBLIC "-//W3C//DTD SVG 1.1//EN" "http://www.w3.org/Graphics/SVG/1.1/DTD/svg11.dtd" >
<svg xmlns="http://www.w3.org/2000/svg" xmlns:xlink="http://www.w3.org/1999/xlink" version="1.1" viewBox="-10 0 1010 1000">
   <path fill="currentColor"
d="M427 4q97 4 101 16q0 2 -5 10q-17 25 -17 54v24h179q76 0 140 -10v81q-40 -9 -140 -8h-179v87h254q129 0 198 -8q-32 52 -101 179q-11 20 -16 30l-73 -34q36 -47 63 -103h-613q0 15 -1 44q5 384 -104 527q-35 -33 -91 -45q71 -65 94 -152q23 -77 25 -285q-1 -94 -12 -159
q52 6 153 6h151v-111v-39q0 -59 -6 -104zM425 340q108 18 105 33q1 6 -7 15q-15 18 -15 43v103q205 -30 315 -57l16 83q-77 6 -331 46v123q-1 38 9 45q6 9 46 8h185q42 1 52 -20q12 -17 15 -95q42 44 82 42q-13 142 -97 143h-262q-73 1 -89 -15q-18 -10 -16 -69v-151
q-22 4 -65 11q-86 14 -120 21l-12 -83q77 -5 197 -22v-91q-1 -75 -8 -113z" />
</svg>
