<?xml version="1.0" standalone="no"?>
<!DOCTYPE svg PUBLIC "-//W3C//DTD SVG 1.1//EN" "http://www.w3.org/Graphics/SVG/1.1/DTD/svg11.dtd" >
<svg xmlns="http://www.w3.org/2000/svg" xmlns:xlink="http://www.w3.org/1999/xlink" version="1.1" viewBox="-10 0 1010 1000">
   <path fill="currentColor"
d="M417 -8q91 1 99 14q0 3 -5 13q-9 16 -9 25v30h204q106 -1 165 -8v79q-68 -6 -165 -8h-204v56h256q119 -1 173 -4q5 0 4 6q-21 59 -52 161l-93 -12q20 -44 37 -84h-307v82l77 -8q65 -6 135 -20l6 65q-51 1 -137 12l-81 12v44q7 24 49 30q62 7 119 1q50 -5 66 -21
q30 -33 30 -78q36 48 77 64q-40 82 -85 99q-35 13 -114 16q-91 1 -140 -10q-76 -18 -74 -67v-72l-75 8q-28 4 -69 10q-26 4 -38 6l-6 -70q34 0 109 -5l79 -8v-88h-238q3 55 2 138q-2 76 -7 142q-10 129 -32 200q-38 113 -68 163q-28 -41 -67 -71q83 -99 91 -304
q7 -138 4 -270q0 -36 -4 -73q97 8 183 8h115v-99q-3 -77 -10 -104zM603 570q46 82 68 143l-86 24q-23 -84 -61 -143zM276 596l87 19q-38 165 -67 237q-32 -19 -86 -16q46 -90 66 -240zM819 600q63 72 119 184l-87 44q-42 -106 -103 -187zM407 608q99 6 93 19q0 6 -6 18
q-10 22 -10 38v79q-1 45 44 50q107 10 131 -4q25 -14 33 -87q36 44 84 53q-27 82 -70 97q-37 13 -113 14q-99 -1 -153 -12q-34 -12 -33 -69v-196z" />
</svg>
