<?xml version="1.0" standalone="no"?>
<!DOCTYPE svg PUBLIC "-//W3C//DTD SVG 1.1//EN" "http://www.w3.org/Graphics/SVG/1.1/DTD/svg11.dtd" >
<svg xmlns="http://www.w3.org/2000/svg" xmlns:xlink="http://www.w3.org/1999/xlink" version="1.1" viewBox="-10 0 1034 1024">
  <g transform="matrix(1 0 0 -1 0 820)">
   <path fill="currentColor"
d="M170 267l-2 -117q-3 -42 -11 -78q-18 -96 -64 -157q-15 -18 -46 -44q30 -6 58 -20q36 57 51 89q36 78 47 180q3 27 4 49l1 365h669q-27 -60 -51 -91q21 -6 43 -19q3 12 11 26q10 21 23 41q7 15 15 33q9 22 26 51q-42 -6 -78 -6h-333v74h259q24 0 51 -3q1 0 14 -2v46
q-27 -4 -65 -5h-259q0 54 3 63q1 10 10 24h-57q1 -18 5 -39l1 -158h-263q-9 0 -35 3q-13 0 -32 3q4 -60 5 -66v-242zM350 57q-79 0 -106 2q-15 3 -20 3v-46q49 6 110 5h16l-1 -100q-3 -15 -4 -53q15 3 55 4l410 1q25 0 66 -5v46q-33 -1 -66 -5h-422v112h515q27 0 51 -3
q1 0 14 -2v46q-39 -4 -65 -5h-515v101l479 -3q1 0 11 -2v46q-3 0 -9 -2l-138 -3l-337 1q-19 3 -49 4q4 -109 5 -112v-30zM272 352q34 9 60 11l163 15v-41q0 -54 43 -71q15 -4 58 -7l95 -2q51 0 89 4q48 6 74 31q16 15 39 57q-21 18 -41 41q-12 -54 -31 -74q-18 -15 -50 -18
q-39 -3 -94 -4q-28 1 -55 1q-37 1 -57 6q-31 6 -32 47v33q213 22 237 23h25q-3 22 -4 45q-36 -9 -62 -12l-196 -20q0 63 3 71q1 10 10 24h-57q6 -66 6 -87v-11q-201 -15 -204 -17q-10 0 -27 1q3 -22 8 -46v0z" />
  </g>

</svg>
