<?xml version="1.0" standalone="no"?>
<!DOCTYPE svg PUBLIC "-//W3C//DTD SVG 1.1//EN" "http://www.w3.org/Graphics/SVG/1.1/DTD/svg11.dtd" >
<svg xmlns="http://www.w3.org/2000/svg" xmlns:xlink="http://www.w3.org/1999/xlink" version="1.1" viewBox="-10 0 1034 1024">
  <g transform="matrix(1 0 0 -1 0 820)">
   <path fill="currentColor"
d="M210 538h679q-6 -19 -14 -36q-9 -21 -21 -42l46 -7q18 42 31 75q12 27 18 39q3 7 5 12l-69 -6h-360v80h272q27 0 51 -3l15 -2v46q-39 -4 -66 -5h-272q0 51 3 54q1 13 11 26h-57q0 -9 2 -13l3 -148v-35h-252q-9 0 -34 4q-13 0 -33 2q1 -21 2 -35q3 -27 3 -47
q0 -264 -3 -312q-1 -7 -2 -17q-12 -120 -50 -198q-24 -52 -64 -94q9 0 57 -9q31 54 50 103q30 73 44 186q3 37 4 60zM883 132q25 0 66 -5v46q-39 -4 -66 -5h-247q7 12 20 22q-7 4 -15 10q-4 3 -6 6q-27 15 -51 33l-40 30q-19 -24 -31 -33q24 -15 43 -25q9 -6 60 -43h-288
q-37 0 -66 5v-46q66 6 100 5h23q72 -93 166 -161q-51 -27 -111 -45q-120 -33 -186 -34l-34 1q25 -31 33 -50q199 31 341 104q93 -42 155 -58q102 -24 188 -41q15 31 32 50q-67 0 -152 15q-115 27 -184 59q45 37 79 72q33 36 70 88h101zM731 132q-16 -30 -46 -61
q-24 -24 -44 -43q-19 -16 -49 -37q-90 57 -153 141h292zM271 372q36 6 42 6q3 0 30 3l144 9v-41q0 -36 15 -51q16 -18 65 -19l132 -3q72 0 113 6q48 6 71 36q16 27 29 65q-27 15 -46 36q0 -33 -4 -47q-7 -28 -30 -43q-21 -12 -68 -14l-114 -1q-91 0 -108 6q-16 6 -17 41v32
l246 13q27 1 66 2l-3 47q-13 -3 -27 -8q-3 0 -12 -2q-3 -1 -24 -4l-246 -14q0 52 3 56q1 13 11 26h-57q0 -3 1 -8l4 -77q-171 -6 -212 -6h-8q1 -22 4 -46v0z" />
  </g>

</svg>
