<?xml version="1.0" standalone="no"?>
<!DOCTYPE svg PUBLIC "-//W3C//DTD SVG 1.1//EN" "http://www.w3.org/Graphics/SVG/1.1/DTD/svg11.dtd" >
<svg xmlns="http://www.w3.org/2000/svg" xmlns:xlink="http://www.w3.org/1999/xlink" version="1.1" viewBox="-10 0 1010 1000">
   <path fill="currentColor"
d="M411 -21q104 -1 107 8q0 1 -3 4q-21 24 -21 65h274q54 0 101 -6v81q-1 0 -14 -1q-66 -7 -91 -7h-270v58h351q3 0 23 -1q39 -2 70 -3q-23 58 -45 159q-47 -18 -95 -12q1 -2 3 -7q26 -51 28 -73h-317v70l161 -6q64 -6 81 -12v71l-75 -2l-165 6q-3 45 11 55q12 12 66 11h117
q78 6 86 -83q33 33 83 47q-26 62 -52 80q-25 20 -83 19h-198q-74 2 -90 -21q-20 -20 -17 -104l-82 4q-20 -1 -99 14l-4 -77q53 4 101 4l84 -4v-72h-221q-1 33 -1 89q-2 133 -5 217q-7 195 -103 371q-27 -36 -83 -63q111 -115 109 -407v-4q2 -219 -2 -274q63 8 101 8h183
q0 -143 -4 -202zM323 546q42 6 102 6h323q50 0 109 -8v79q-6 -1 -23 -2q-59 -6 -82 -6h-347v66h405q60 -3 123 -10v77q-51 -9 -118 -8h-410v76h341q51 0 93 -7q13 -2 22 -3v79q-41 -6 -113 -6h-319q-51 0 -106 6q3 -23 5 -56q1 -16 1 -36v-53q-58 -1 -105 6v-73q56 8 105 8
q0 -52 -1 -80q-2 -31 -5 -55z" />
</svg>
