<?xml version="1.0" standalone="no"?>
<!DOCTYPE svg PUBLIC "-//W3C//DTD SVG 1.1//EN" "http://www.w3.org/Graphics/SVG/1.1/DTD/svg11.dtd" >
<svg xmlns="http://www.w3.org/2000/svg" xmlns:xlink="http://www.w3.org/1999/xlink" version="1.1" viewBox="-10 0 1010 1000">
   <path fill="currentColor"
d="M403 -12q101 0 103 14q1 5 -3 13q-9 22 -9 51h204q81 0 143 -6v75q-44 -5 -143 -6h-206v68h236q93 0 124 -1q39 -1 55 -3q-22 65 -44 159l-89 -14l32 -78h-304v78q161 -12 220 -24l4 75q-10 -2 -48 0q-35 1 -176 8q-1 46 10 53q7 10 55 9h114q48 2 63 -18q19 -19 28 -81
q36 40 81 55q-27 115 -129 109h-184q-89 1 -98 -17q-17 -10 -13 -102q-139 9 -163 16l-4 -75q44 5 167 -2v-84h-209q3 306 -18 410q-16 107 -93 223q-40 -29 -89 -39q124 -101 121 -395q0 -181 -10 -268q30 6 149 6h131v-111q0 -57 -8 -98zM413 542q96 6 95 18q1 6 -5 14
q-11 15 -11 32v196h101v-189q0 -38 -1 -48q0 -14 -3 -23q100 9 96 20q1 5 -6 14q-10 12 -10 26v200h95q78 0 146 -5q12 -1 17 -1v83q-74 -6 -161 -6h-425q-79 0 -132 3q-7 1 -11 1v-81q33 4 61 5q30 1 78 1h80v-196q0 -38 -4 -64zM792 576q82 27 83 45q0 1 -5 4
q-16 8 -27 24q-21 33 -64 93l-9 12q-30 -25 -66 -31q53 -66 88 -147zM306 586q51 78 75 135l-77 27q-31 -72 -74 -133z" />
</svg>
