<?xml version="1.0" standalone="no"?>
<!DOCTYPE svg PUBLIC "-//W3C//DTD SVG 1.1//EN" "http://www.w3.org/Graphics/SVG/1.1/DTD/svg11.dtd" >
<svg xmlns="http://www.w3.org/2000/svg" xmlns:xlink="http://www.w3.org/1999/xlink" version="1.1" viewBox="-10 0 1034 1024">
  <g transform="matrix(1 0 0 -1 0 820)">
   <path fill="currentColor"
d="M78 -143q15 -3 28 -9q34 48 61 106q31 75 42 171l7 105l2 138v201h681q-24 -46 -54 -86q24 -3 34 -6q6 0 14 -2q4 15 21 42q9 21 29 55l20 38q-18 -1 -34 -3q-22 -3 -33 -3h-367v60l284 -1l42 -4v46q-33 -1 -67 -5h-259v12q0 33 15 65h-58l4 -37q1 -19 2 -129v-7l-273 1
q-15 3 -44 4q1 -31 5 -65v-199q0 -157 -15 -252q-15 -81 -51 -146q-21 -39 -75 -82q10 0 39 -8zM220 -122q4 -6 11 -13l10 -13l14 -17q36 9 88 25q60 19 88 34q78 40 135 110q120 -132 372 -162q15 24 37 54q-24 -3 -38 -3q-28 0 -85 7q-99 12 -173 57q-39 24 -74 62l302 -1
l36 -4v44l-43 -4l-315 -1q6 25 10 56h223q22 0 50 -3q3 0 17 -2v44q-45 -4 -68 -5l-485 1l-38 4v-44q25 4 68 5h188q-3 -28 -9 -56h-234q-27 0 -68 5v-44q27 4 68 5h220q-54 -69 -148 -106q-75 -24 -164 -29q1 -3 5 -6zM282 437q12 1 23 4q48 7 68 8l119 10v-27
q0 -30 16 -45q12 -9 44 -11q54 -3 106 -3q69 0 115 6q33 6 54 25q12 15 22 42q-21 15 -37 30q-7 -33 -17 -45q-18 -18 -70 -20l-118 -4q-39 1 -54 5q-24 4 -24 30v18q244 12 252 13q10 0 23 -2q-1 24 -2 46q-24 -4 -63 -9l-211 -14q0 39 13 60h-55q3 -16 6 -63l-153 -10
l-61 2q1 -22 4 -46zM768 193q25 0 61 -5q-4 48 -5 94q1 30 5 60q-30 -1 -61 -5l-374 1q-15 3 -40 4l5 -91q-3 -30 -5 -63q30 3 60 5h354zM786 302v-73h-390v73h390z" />
  </g>

</svg>
