<?xml version="1.0" standalone="no"?>
<!DOCTYPE svg PUBLIC "-//W3C//DTD SVG 1.1//EN" "http://www.w3.org/Graphics/SVG/1.1/DTD/svg11.dtd" >
<svg xmlns="http://www.w3.org/2000/svg" xmlns:xlink="http://www.w3.org/1999/xlink" version="1.1" viewBox="-10 0 1010 1000">
   <path fill="currentColor"
d="M629 34q85 0 151 -6q-6 33 -8 111q-2 70 -2 213q-2 252 57 367q21 41 35 21q15 -21 19 -97q54 42 83 52q-29 118 -51 155q-33 42 -101 -18q-98 -98 -114 -336q-10 -205 -10 -394h-470q-47 0 -74 2q-32 1 -63 6v-82q54 6 135 6h413zM575 139q59 75 60 92q-1 2 -12 1
q-74 -6 -212 18v100h113q52 0 97 -6q-6 27 -6 127q0 99 6 129q-19 -5 -83 -4h-127v127q31 -4 95 -8q35 -3 52 -4q-7 -20 -46 -62l69 -30q39 44 127 173l-81 44q-14 -37 -32 -68q-41 5 -114 14q-352 42 -382 64q-8 -45 -32 -98q44 2 196 -12q49 -5 76 -7v-133h-133l2 69h-77
q4 -39 4 -173v-46q1 -78 -4 -102q36 6 99 6h109v-88q-31 4 -108 12q-69 8 -106 12q-11 -36 -48 -85q288 12 498 -62zM544 413h-133v119h133v-119zM206 413v119h133v-119h-133z" />
</svg>
