<?xml version="1.0" standalone="no"?>
<!DOCTYPE svg PUBLIC "-//W3C//DTD SVG 1.1//EN" "http://www.w3.org/Graphics/SVG/1.1/DTD/svg11.dtd" >
<svg xmlns="http://www.w3.org/2000/svg" xmlns:xlink="http://www.w3.org/1999/xlink" version="1.1" viewBox="-10 0 1010 1000">
   <path fill="currentColor"
d="M631 -10q101 0 97 10q1 3 -3 11q-18 43 -19 146h102q44 0 83 -6q-6 42 -6 74v170q0 32 6 70q-59 -10 -89 -10h-94v145q66 -3 119 -12q-18 -37 -39 -64l67 -28q7 13 19 35q32 56 68 130l-67 28l-24 -52q-300 31 -403 66q-5 -51 -29 -97q103 9 222 -2v-149h-91q0 6 3 24
q2 18 3 29h-90q9 -41 10 -93v-196q0 -6 -1 -21q-1 -28 -1 -47q49 6 70 6h97q0 -80 -2 -108q-2 -36 -8 -59zM966 758q-39 75 -83 91q-23 11 -60 14q-34 4 -107 4h-188q-158 2 -189 -18q-41 -17 -39 -95v-605h-66v173q0 60 -1 98q-1 79 -3 100q-19 224 -123 385
q-24 -39 -69 -73q104 -116 121 -342q3 -43 3 -167q-1 -114 -5 -176q-65 0 -113 14v-97q58 10 113 10h214q47 1 93 -6v85q-49 -4 -89 -4v526q-1 77 19 99q18 25 80 24h242q88 1 118 -19q31 -17 41 -78q71 47 91 57zM708 225v162h105v-162h-105zM548 225v162h93v-162h-93z" />
</svg>
