<?xml version="1.0" standalone="no"?>
<!DOCTYPE svg PUBLIC "-//W3C//DTD SVG 1.1//EN" "http://www.w3.org/Graphics/SVG/1.1/DTD/svg11.dtd" >
<svg xmlns="http://www.w3.org/2000/svg" xmlns:xlink="http://www.w3.org/1999/xlink" version="1.1" viewBox="-10 0 1034 1024">
  <g transform="matrix(1 0 0 -1 0 820)">
   <path fill="currentColor"
d="M868 651q30 -1 60 -5v43q-6 -1 -11 -3q4 0 -10 -1h-789q-18 1 -27 4v-43q15 3 32 4l292 1q0 -81 -34 -153q-42 -93 -141 -154q-87 -51 -141 -51q27 -27 39 -42q126 57 190 114q60 54 100 147h360q-3 -51 -7 -75q-9 -60 -31 -81q-27 -22 -97 -23q-18 0 -51 4q9 -27 13 -46
q117 4 157 34q34 30 48 121q6 48 8 72q1 16 5 32l-31 -3q-13 0 -26 -2h-339l18 106h413zM118 -89q9 -18 14 -29q3 -9 8 -25q22 9 52 12q36 6 102 12q255 21 282 23l145 11l60 6q22 3 46 5q42 -48 63 -76q12 15 30 33q-12 13 -71 70l-83 82l-30 -26q22 -18 55 -52l-30 -5
q-16 0 -32 -2q-129 -12 -202 -16q-3 1 -5 0v105h238q6 0 31 -3q6 0 25 -2q-4 45 -5 86l4 105q0 6 1 13q-27 -1 -56 -5h-238v55q0 10 3 27q1 15 11 32h-56q3 -12 3 -22q1 -36 2 -92l-240 1q-15 3 -36 4q1 -27 5 -54l-1 -110q-3 -12 -4 -40q19 4 50 5h226v-109l-221 -16
q-66 -3 -102 -4q-22 1 -44 1zM250 72v128h235v-128h-235zM522 72v128h252v-128h-252z" />
  </g>

</svg>
