<?xml version="1.0" standalone="no"?>
<!DOCTYPE svg PUBLIC "-//W3C//DTD SVG 1.1//EN" "http://www.w3.org/Graphics/SVG/1.1/DTD/svg11.dtd" >
<svg xmlns="http://www.w3.org/2000/svg" xmlns:xlink="http://www.w3.org/1999/xlink" version="1.1" viewBox="-10 0 1010 1000">
   <path fill="currentColor"
d="M234 4q88 -2 99 8q1 1 -2 8q-23 49 -23 151q100 0 158 -6q-4 42 -4 99v181q0 71 6 113h-83l6 -40h-83v175q21 -6 82 -20l27 -6q-5 -21 -26 -61l69 -22q37 77 64 170l-78 26q-6 -36 -13 -53q-263 68 -348 103l-23 -99q77 -5 178 -28v-185h-77v46q1 18 2 32h-80
q6 -50 6 -127v-195q0 -58 -4 -109q66 6 153 6q0 -128 -6 -167zM685 10q36 107 65 209l-85 23q-14 -118 -64 -210zM808 108l15 3q95 21 92 28q0 1 -2 5q-23 42 -34 122q-36 257 -133 403q107 90 228 125q-43 29 -75 89q-131 -85 -205 -152q-96 91 -216 176q-39 -44 -85 -69
q145 -49 254 -161q-99 -137 -137 -480q-3 -20 -4 -30l85 -10q-8 269 105 460q109 -220 112 -509zM240 235h-77v224h77v-224zM391 235h-83v224h83v-224z" />
</svg>
