<?xml version="1.0" standalone="no"?>
<!DOCTYPE svg PUBLIC "-//W3C//DTD SVG 1.1//EN" "http://www.w3.org/Graphics/SVG/1.1/DTD/svg11.dtd" >
<svg xmlns="http://www.w3.org/2000/svg" xmlns:xlink="http://www.w3.org/1999/xlink" version="1.1" viewBox="-10 0 1034 1024">
  <g transform="matrix(1 0 0 -1 0 820)">
   <path fill="currentColor"
d="M966 -101q-24 46 -48 89l-74 129q-18 -12 -40 -20q45 -69 71 -119l-176 -18v234l176 -1l38 -4q-3 28 -5 58l1 271q0 16 4 41q-18 -1 -26 -2q-19 -3 -26 -3h-162v141q0 33 12 65h-55q3 -15 4 -46l1 -160q-147 0 -172 2q-6 3 -34 3q1 -27 5 -56l-1 -272q-3 -12 -4 -42
q49 4 79 5h127v-240l-145 -15q-46 -3 -79 -4q-15 0 -40 2q12 -36 15 -55l127 19l356 41q21 -31 46 -100l40 29q-7 15 -15 28zM497 230v288h164v-288h-164zM699 230v288h171v-288h-171zM93 372q12 19 26 42q33 51 78 133h178q-12 -42 -24 -70q-10 -27 -25 -57q6 0 16 1
q10 0 30 -5l6 19q7 19 15 42q1 6 41 112q-16 -1 -32 -3q-22 -3 -30 -3h-158q37 96 48 115q9 19 28 33q-39 9 -62 20q-15 -93 -87 -226q-33 -57 -59 -93q-24 -28 -48 -42q30 -15 43 -25q3 -1 8 -6q3 7 8 13zM255 346q0 34 12 65h-56q0 -6 3 -14q0 -24 3 -51l-1 -377
q-4 -30 -22 -55q19 -19 39 -40l70 87l115 129q-12 24 -15 34q0 4 -3 11q-30 -36 -63 -72l-82 -89v372z" />
  </g>

</svg>
