<?xml version="1.0" standalone="no"?>
<!DOCTYPE svg PUBLIC "-//W3C//DTD SVG 1.1//EN" "http://www.w3.org/Graphics/SVG/1.1/DTD/svg11.dtd" >
<svg xmlns="http://www.w3.org/2000/svg" xmlns:xlink="http://www.w3.org/1999/xlink" version="1.1" viewBox="-10 0 1034 1024">
  <g transform="matrix(1 0 0 -1 0 820)">
   <path fill="currentColor"
d="M292 2l143 37q18 7 38 12q3 -3 4 -6q27 -55 33 -71q16 12 24 14l19 8q-108 184 -111 188q-21 -12 -39 -19l14 -21q12 -16 22 -35q7 -12 16 -24q-9 -4 -32 -11q-39 -9 -76 -19l-24 -6q-4 -1 -11 -3v202l101 -1q25 -1 52 -5q-3 33 -5 67l1 214l4 46q-33 -1 -65 -5h-88v142
q0 16 2 34q1 13 12 31h-58q0 -3 4 -35l2 -58v-114q-87 0 -114 2q-6 3 -39 3q6 -60 6 -66l-1 -214q-4 -19 -5 -47q66 6 90 6h63v-211q-150 -36 -214 -43q13 -24 28 -54l36 14l53 16zM164 283v245h110v-245h-110zM312 283v245h110v-245h-110zM965 684l-66 -6l-419 1
q-18 3 -20 3l-6 2v-47l33 4l181 1l-5 -812h50q-3 33 -5 67v745l229 -1q10 0 28 -4v47zM747 375q39 -42 75 -92q82 -121 103 -162q12 16 40 31l-85 122q-54 75 -97 129q-18 -15 -36 -28v0z" />
  </g>

</svg>
