<?xml version="1.0" standalone="no"?>
<!DOCTYPE svg PUBLIC "-//W3C//DTD SVG 1.1//EN" "http://www.w3.org/Graphics/SVG/1.1/DTD/svg11.dtd" >
<svg xmlns="http://www.w3.org/2000/svg" xmlns:xlink="http://www.w3.org/1999/xlink" version="1.1" viewBox="-10 0 1010 1000">
   <path fill="currentColor"
d="M692 14q109 5 110 14q0 3 -6 12q-24 33 -24 75v274q54 -47 117 -131q82 68 75 80q-3 3 -14 5q-29 7 -53 26q-34 26 -115 95q-7 6 -10 9v281q-3 58 43 50q39 0 48 -17q12 -15 22 -86q22 31 79 55q-19 83 -47 101q-24 21 -111 20q-69 0 -90 -13q-21 -11 -20 -52v-663
q0 -69 -3 -125q-1 -6 -1 -10zM482 38h10q91 4 89 14q0 3 -5 13q-14 27 -14 54v217h29q48 0 92 -6v79q-28 -5 -92 -4h-29v341q15 -11 56 -41q43 -31 55 -40l17 81q-128 78 -194 143l-52 -65q26 -19 33 -38q9 -19 9 -59v-560q0 -101 -4 -129zM198 34q90 -2 102 10q1 4 -6 13
q-18 25 -18 58v100h67q37 0 76 -6q-6 39 -6 73v214q0 54 6 102h-76q0 -6 1 -17q1 -14 1 -23h-69v177l91 -14q-16 -47 -34 -86l70 -14q45 113 59 161l-69 26q-5 -13 -8 -28q-318 58 -320 66l-21 -90q33 1 162 -14v-184h-69q0 41 4 65h-74q4 -33 4 -69v-270q0 -39 -4 -75
q30 6 66 6h73v-92q0 -38 -8 -89zM139 286v201h67v-201h-67zM345 286h-69v201h69v-201z" />
</svg>
