<?xml version="1.0" standalone="no"?>
<!DOCTYPE svg PUBLIC "-//W3C//DTD SVG 1.1//EN" "http://www.w3.org/Graphics/SVG/1.1/DTD/svg11.dtd" >
<svg xmlns="http://www.w3.org/2000/svg" xmlns:xlink="http://www.w3.org/1999/xlink" version="1.1" viewBox="-10 0 1034 1024">
  <g transform="matrix(1 0 0 -1 0 820)">
   <path fill="currentColor"
d="M483 -154h47q0 3 -2 9q-1 13 -3 53v164q13 -6 33 -22q40 54 65 93q37 64 71 160q33 -45 72 -102q31 -48 50 -78q13 -27 28 -60q16 18 40 33l-85 128l-89 127l8 89l4 76h168v-575q0 -24 -9 -34q-12 -12 -46 -13q-28 0 -75 6q12 -25 19 -53q105 6 131 27q18 18 19 55l1 581
l4 47q-30 -1 -61 -5h-151l1 142q1 46 15 65h-58q0 -48 5 -84l-1 -123l-158 1q-15 3 -43 4q1 -31 5 -64l-1 -615q-3 -6 -3 -27q-1 -1 -1 -5zM525 516h157q-3 -136 -38 -236q-19 -58 -55 -118q-37 -57 -64 -74v428zM372 117q0 3 -8 17q-37 -18 -40 -19l40 -73
q-57 -21 -101 -31v209q102 0 115 -2q12 0 34 -3l-6 62l1 228q1 24 5 49q-30 -1 -59 -5h-90v136q0 15 3 32q1 16 11 33h-57q3 -24 4 -27l1 -174l-103 1q-15 3 -44 4l6 -63l-1 -227q-4 -19 -5 -49q51 4 102 5h45v-219q-57 -16 -97 -27q-27 -6 -68 -12q15 -30 17 -36
q1 -3 7 -16q34 13 84 31l213 65q13 -28 26 -77l42 24q-15 37 -34 76zM120 256v257h105v-257h-105zM263 256v257h106v-257h-106z" />
  </g>

</svg>
