<?xml version="1.0" standalone="no"?>
<!DOCTYPE svg PUBLIC "-//W3C//DTD SVG 1.1//EN" "http://www.w3.org/Graphics/SVG/1.1/DTD/svg11.dtd" >
<svg xmlns="http://www.w3.org/2000/svg" xmlns:xlink="http://www.w3.org/1999/xlink" version="1.1" viewBox="-10 0 1010 1000">
   <path fill="currentColor"
d="M651 -12q12 1 35 2q79 3 74 12q0 7 -6 16q-12 20 -14 50q-1 10 -3 40q-6 65 -7 89h117q56 0 76 -8q-8 35 -8 73v576q0 50 -149 67q0 -55 -32 -97q107 23 105 -28v-141q-15 2 -67 38q-33 -123 -80 -200q-39 140 -79 220q-42 -33 -59 -38v139q0 63 8 103h-90q7 -24 6 -97
v-216v-322q0 -9 -2 -42q-1 -21 -2 -33q30 6 80 6h101q6 -179 -4 -209zM554 264v363q89 -138 99 -363h-99zM839 264h-113q-3 19 -9 82q-2 24 -3 35q74 128 125 219v-336zM198 -17q99 0 100 9q1 4 -6 13q-18 26 -18 63v103h79q36 -1 62 -4q-4 20 -4 66v254q0 41 1 58
q1 21 3 35h-76q4 -18 4 -42h-69v189l89 -14q-11 -46 -34 -92l68 -13q28 77 61 196l-73 20q-3 -21 -6 -48q-309 60 -310 68q-7 -49 -19 -94q29 1 156 -15v-197h-67q0 45 4 72h-78q4 -32 5 -51q1 -17 1 -45v-266q0 -28 -8 -83q47 8 72 8h71v-97q0 -44 -8 -93zM141 242v227h65
v-227h-65zM341 240h-67v229h67v-229z" />
</svg>
