<?xml version="1.0" standalone="no"?>
<!DOCTYPE svg PUBLIC "-//W3C//DTD SVG 1.1//EN" "http://www.w3.org/Graphics/SVG/1.1/DTD/svg11.dtd" >
<svg xmlns="http://www.w3.org/2000/svg" xmlns:xlink="http://www.w3.org/1999/xlink" version="1.1" viewBox="-10 0 1010 1000">
   <path fill="currentColor"
d="M202 -6q54 0 68 1q19 1 20 5q1 2 -2 13q-14 45 -14 118v34q61 0 151 -8q-7 35 -6 93v14v189q-1 65 6 111h-78q0 -6 1 -19t1 -19h-75v191q17 -3 48 -8q29 -4 39 -6q-6 -30 -24 -66l72 -22q30 72 57 197l-77 20q-2 -19 -7 -56q-2 -10 -3 -16q-215 36 -312 70
q-1 -34 -29 -95q46 3 170 -10v-199h-67q-3 30 2 64h-80q9 -57 8 -121v-207q1 -56 -6 -105q90 8 143 8v-32q1 -71 -6 -139zM815 24q27 1 63 2q51 1 47 6q0 1 -3 9q-23 52 -23 140v556q1 97 8 166h-92q9 -62 8 -168v-552q0 -61 -8 -159zM458 58q42 6 129 6t125 -6
q-6 24 -6 135q0 112 6 151q-31 -5 -66 -7q-16 0 -37 -1h-57v143q64 0 92 -1q35 -1 64 -5q-5 63 -9 163q-3 85 -7 126q8 108 -178 125q-4 -49 -34 -107q128 45 131 -43q1 -7 2 -21q8 -100 10 -176q-104 -1 -143 8q6 -47 6 -146t-6 -138q45 5 77 7q16 0 33 1h45v-143
q-59 0 -88 1q-35 2 -89 7v-79zM274 227v240h75v-240h-75zM141 225v242h67v-242h-67z" />
</svg>
