<?xml version="1.0" standalone="no"?>
<!DOCTYPE svg PUBLIC "-//W3C//DTD SVG 1.1//EN" "http://www.w3.org/Graphics/SVG/1.1/DTD/svg11.dtd" >
<svg xmlns="http://www.w3.org/2000/svg" xmlns:xlink="http://www.w3.org/1999/xlink" version="1.1" viewBox="-10 0 1034 1024">
  <g transform="matrix(1 0 0 -1 0 820)">
   <path fill="currentColor"
d="M254 302l4 -46q0 -85 -2 -114q-3 -6 -3 -44q60 4 95 5h135v-146q-22 0 -45 -3l-121 -8q-112 -9 -153 -9l-35 3q12 -24 25 -61l80 16q19 0 42 5l333 33l199 18q24 -25 62 -81q15 18 25 24q6 3 12 10l-86 97q-46 51 -77 82q-18 -15 -36 -29q40 -34 72 -71q-39 -4 -93 -9
l-164 -11v140l203 -1q18 0 47 -4q-6 55 -5 118q0 66 2 76q0 4 3 29q54 -33 93 -55l70 -35q18 25 43 46q-99 21 -204 96q-82 60 -135 136l259 -1l31 -4v47l-65 -6h-410q10 22 15 38q30 87 33 96l286 -1q6 0 40 -4v47q-54 -6 -66 -6l-555 3q-9 3 -14 3v-47q24 4 67 5h195
q-7 -36 -17 -65q-10 -28 -29 -69l-312 1q-18 3 -20 3q-3 0 -7 2v-47q25 4 66 5h253q-64 -99 -165 -168q-93 -58 -179 -74q25 -24 46 -46q63 25 162 88v-7zM591 509q69 -106 174 -184q-31 -1 -64 -5h-178q0 82 3 88q1 15 11 25h-59q1 -33 5 -66v-47q-180 0 -204 3q-3 1 -6 1
q94 70 166 185h152zM296 139v145h187v-145h-187zM728 284v-145h-205v145h205z" />
  </g>

</svg>
