<?xml version="1.0" standalone="no"?>
<!DOCTYPE svg PUBLIC "-//W3C//DTD SVG 1.1//EN" "http://www.w3.org/Graphics/SVG/1.1/DTD/svg11.dtd" >
<svg xmlns="http://www.w3.org/2000/svg" xmlns:xlink="http://www.w3.org/1999/xlink" version="1.1" viewBox="-10 0 1034 1024">
  <g transform="matrix(1 0 0 -1 0 820)">
   <path fill="currentColor"
d="M410 4q0 -3 1 -6t4 -10q15 7 25 15l14 7l-40 97l-39 91q-18 -7 -37 -14q39 -93 41 -96q-15 -6 -30 -11q-70 -18 -74 -20v199l125 -5q-3 12 -3 31q0 24 -2 35l1 219l4 52q-30 -1 -59 -5h-66l1 146q0 22 13 42h-55l4 -35l1 -153q-75 0 -112 4q-4 1 -8 1q1 -21 2 -36
q3 -25 4 -38l-1 -211q-1 -4 -5 -52q51 4 83 5h37v-208q-102 -33 -154 -36q21 -39 26 -52q39 18 94 36l186 57q4 -9 6 -15q6 -16 13 -34zM239 291h-80v257h80v-257zM275 291v257h84v-257h-84zM512 723q-30 3 -61 5v-45q7 3 34 4l171 1v-175q-112 0 -141 2q-9 3 -40 3
q1 -30 2 -50q-1 -9 -8 -145l-9 -69q54 4 111 5h85l-3 -105l-6 -150q-6 -39 -19 -50q-28 -15 -70 -16q-25 0 -74 10q16 -24 24 -58q31 1 74 7q61 9 83 34q12 16 16 39q3 27 6 82q4 124 5 162q1 42 5 85q-33 -1 -68 -5h-126l11 184l135 -1q15 0 48 -4q-6 72 -6 105q0 96 2 110
l4 40q-36 -1 -74 -5h-111zM876 -124q-4 24 -5 63l1 797q0 24 12 42h-54q0 -7 2 -12l3 -103l-1 -746l-4 -41h46z" />
  </g>

</svg>
