<?xml version="1.0" standalone="no"?>
<!DOCTYPE svg PUBLIC "-//W3C//DTD SVG 1.1//EN" "http://www.w3.org/Graphics/SVG/1.1/DTD/svg11.dtd" >
<svg xmlns="http://www.w3.org/2000/svg" xmlns:xlink="http://www.w3.org/1999/xlink" version="1.1" viewBox="-10 0 1034 1024">
  <g transform="matrix(1 0 0 -1 0 820)">
   <path fill="currentColor"
d="M459 -56q-6 15 -10 29l-38 111l-12 28q0 1 -15 38l-41 -13q16 -33 26 -54q7 -19 18 -48q-54 -15 -115 -29v217q103 0 116 -2q16 0 35 -3q-3 33 -5 65l1 236q0 19 4 52q-18 -1 -31 -3q-21 -3 -29 -3h-91q0 168 3 177q1 12 10 23h-56l4 -36l1 -164q-81 0 -107 2q-1 0 -33 4
q1 -34 5 -70l-1 -236q-3 -15 -4 -47q49 4 81 5h59v-226q-21 -4 -42 -9q-51 -12 -84 -18q-28 -3 -61 -6q12 -33 18 -57q10 3 68 23l150 39q67 15 114 29q9 -24 18 -58q3 -13 7 -29q21 13 42 17q-3 9 -5 16zM136 259v270h98v-270h-98zM272 259v270h108v-270h-108zM427 316
q22 -6 47 -22q87 120 148 304q24 72 29 82q6 15 24 29q-24 4 -62 19q-15 -103 -78 -252q-55 -120 -108 -160zM691 -109q19 1 39 5l140 17q24 -57 27 -69q18 10 32 15q6 1 15 6l-13 22q0 3 -5 10l-135 270l-39 -21l46 -83q24 -45 56 -114l-121 -16q-171 -18 -176 -20
q30 67 64 159q33 94 57 181q24 90 32 107q7 16 32 29q-49 12 -68 20q-1 -10 -18 -84l-64 -220q-63 -153 -66 -159q-16 -24 -38 -39q-1 0 -3 -2q9 -15 21 -42q105 18 160 25q12 3 25 3zM781 749q-27 -4 -53 -6q6 -18 11 -30q3 -15 9 -42q18 -97 71 -200q48 -99 116 -173
q27 21 52 36q-52 30 -81 68q-54 73 -97 192q-28 81 -29 126z" />
  </g>

</svg>
