<?xml version="1.0" standalone="no"?>
<!DOCTYPE svg PUBLIC "-//W3C//DTD SVG 1.1//EN" "http://www.w3.org/Graphics/SVG/1.1/DTD/svg11.dtd" >
<svg xmlns="http://www.w3.org/2000/svg" xmlns:xlink="http://www.w3.org/1999/xlink" version="1.1" viewBox="-10 0 1034 1024">
  <g transform="matrix(1 0 0 -1 0 820)">
   <path fill="currentColor"
d="M433 219q0 -22 2 -46q30 4 61 7l140 11v-238q0 -48 27 -63t101 -15q114 0 151 33q18 19 37 71q7 27 17 53q-16 4 -23 9q-9 4 -26 16q0 -21 -2 -39q-1 -13 -5 -26q-13 -58 -60 -70q-31 -9 -96 -9q-60 0 -72 13q-10 10 -11 40v226l193 16q27 0 56 -2q-1 24 -2 47l-54 -9
l-193 -15v199l152 6q28 0 59 -1q-1 24 -1 47q-31 -3 -61 -8l-149 -9v198q27 6 93 20q79 19 85 20q10 0 23 3q-22 18 -48 49q-25 -15 -70 -31q-37 -12 -75 -21q-42 -9 -79 -14q-90 -13 -134 -14q-13 0 -36 2q24 -40 27 -48q30 3 48 6l128 19v-192l-119 -6q-34 1 -69 2
q1 -22 4 -47l66 8l118 8v-199l-147 -9zM42 -30q12 -24 23 -54l87 25l262 60q9 -30 21 -74q4 3 10 5q7 4 15 7q12 6 18 8q-21 52 -75 171l-9 21q-19 -10 -38 -18q18 -27 39 -85q-34 -9 -72 -17q-34 -7 -64 -12v193q100 0 114 -2q16 0 34 -3q-4 24 -5 63l1 244q0 16 4 45
q-18 0 -25 -2l-99 -3h-24v149q0 15 2 32q3 18 12 33h-57q1 -42 5 -85v-129l-105 1q-15 3 -43 4q1 -30 5 -63l-1 -243q-3 -12 -4 -46q15 3 52 4l96 1v-203q-144 -24 -154 -25q-3 1 -25 -2zM115 236v270h106v-270h-106zM259 236v270h105v-270h-105z" />
  </g>

</svg>
