<?xml version="1.0" standalone="no"?>
<!DOCTYPE svg PUBLIC "-//W3C//DTD SVG 1.1//EN" "http://www.w3.org/Graphics/SVG/1.1/DTD/svg11.dtd" >
<svg xmlns="http://www.w3.org/2000/svg" xmlns:xlink="http://www.w3.org/1999/xlink" version="1.1" viewBox="-10 0 1034 1024">
  <g transform="matrix(1 0 0 -1 0 820)">
   <path fill="currentColor"
d="M77 -46q72 30 80 30l226 64q3 3 8 3q18 -36 26 -57q13 12 40 24l-61 112q-15 27 -29 47q-18 -12 -36 -20q21 -30 44 -72q-22 -4 -75 -22q-16 -3 -34 -8v181q93 0 108 -2q19 0 41 -3q-3 34 -5 70l1 215q0 19 4 48l-111 -5h-38v133q0 18 2 34q1 13 11 32h-56q0 -9 2 -14
l3 -149v-36q-78 0 -105 2q-6 3 -39 3q1 -33 5 -69l-1 -213q-3 -15 -4 -51q54 4 82 5h62v-191q-96 -27 -172 -34q9 -18 16 -40q1 -7 5 -17zM126 272v251h102v-251h-102zM266 272v251h106v-251h-106zM776 308v-355q0 -39 -24 -51q-21 -7 -51 -8q-12 0 -41 4q-13 3 -27 5
q18 -37 23 -56q49 3 78 8q45 6 64 26q15 18 16 65v362h90q30 0 51 -3q1 0 14 -2v47q-3 0 -6 -2l-113 -4h-36v319h54q27 0 52 -3l13 -2v46q-54 -6 -65 -6l-358 1q-18 3 -21 3l-6 2v-46q60 4 66 5h227v-319h-243q21 67 62 183q0 9 8 22q6 18 27 29q-9 3 -17 5q-12 3 -47 17
q-1 -22 -12 -61q-3 -6 -5 -16q-21 -72 -41 -130q-3 -4 -4 -11q-21 -51 -35 -79q36 3 73 5h182q-109 -195 -256 -314q-67 -52 -148 -81q7 -3 22 -14q13 -9 29 -24q132 82 224 184q114 129 174 249h7z" />
  </g>

</svg>
