<?xml version="1.0" standalone="no"?>
<!DOCTYPE svg PUBLIC "-//W3C//DTD SVG 1.1//EN" "http://www.w3.org/Graphics/SVG/1.1/DTD/svg11.dtd" >
<svg xmlns="http://www.w3.org/2000/svg" xmlns:xlink="http://www.w3.org/1999/xlink" version="1.1" viewBox="-10 0 1034 1024">
  <g transform="matrix(1 0 0 -1 0 820)">
   <path fill="currentColor"
d="M364 -125q30 -19 49 -37q33 24 76 68q39 43 51 64q33 54 46 122q12 66 14 192q1 60 16 89q-22 0 -60 5q6 -67 6 -117q0 -64 -7 -120q-7 -69 -32 -117q-36 -75 -102 -123q-27 -18 -57 -26zM392 361q24 -12 50 -35q106 108 165 199q28 48 69 125q28 -72 92 -147
q64 -78 181 -165q10 12 18 20q7 9 26 22q-69 15 -167 116q-76 73 -133 204q12 19 29 31q-25 9 -57 23q-18 -75 -56 -147q-54 -105 -136 -190q-45 -42 -81 -56zM824 -143q-3 6 -4 27q-3 36 -3 64l1 378q0 15 6 30q1 10 8 17h-58l6 -58q-1 -3 0 -7l-1 -421q-1 -10 -3 -18
q0 -1 -2 -12h50zM423 -53q7 6 25 13q-6 15 -13 29l-76 149q-9 -6 -39 -21q21 -27 42 -73l-99 -30v182q85 0 99 -2q12 0 34 -3q-3 31 -5 63l1 257l4 45q-28 -1 -58 -5h-75v133q0 15 3 32q1 16 11 33h-58q3 -24 4 -27l1 -171h-76q-6 0 -29 3q-13 0 -30 2q1 -30 5 -62l-1 -257
q-3 -12 -4 -46q49 4 101 5h34v-193q-108 -31 -178 -36q13 -24 26 -55q30 16 116 42l131 37q27 6 61 16q15 -31 26 -69q7 4 17 9zM131 232v283h92v-283h-92zM263 232v283h90v-283h-90z" />
  </g>

</svg>
