<?xml version="1.0" standalone="no"?>
<!DOCTYPE svg PUBLIC "-//W3C//DTD SVG 1.1//EN" "http://www.w3.org/Graphics/SVG/1.1/DTD/svg11.dtd" >
<svg xmlns="http://www.w3.org/2000/svg" xmlns:xlink="http://www.w3.org/1999/xlink" version="1.1" viewBox="-10 0 1034 1024">
  <g transform="matrix(1 0 0 -1 0 820)">
   <path fill="currentColor"
d="M880 270q39 0 57 -4q1 0 6 -2v47l-96 -5h-132v210q168 0 190 -3q3 0 9 -3v47l-100 -5h-99v140q0 13 3 30q3 21 11 35h-57q0 -1 1 -5l4 -78v-122q-135 0 -166 2q-4 1 -7 1t-12 2v-47q1 0 38 5l147 1v-210q-189 0 -211 3q-3 0 -9 2v-47q1 1 37 5l178 1q-3 -30 -15 -82
q-18 -82 -76 -175q-85 -129 -169 -142q22 -15 46 -44q60 52 98 91q28 30 57 73q61 93 87 210q25 -88 82 -183q49 -81 144 -168q24 19 50 39q-33 12 -58 33q-54 43 -101 114q-52 79 -97 234h160zM307 -27q34 10 70 19q18 4 36 12q18 -42 29 -78q7 6 17 11q9 6 26 15l-105 192
q-1 1 -1 2q-15 -12 -40 -24q28 -39 39 -56q6 -13 15 -30q-97 -27 -122 -37v215l114 -1l42 -4q-4 24 -5 62l1 221l4 46q-57 -6 -84 -6h-72v152q0 13 3 30q3 19 11 35h-57q1 -42 5 -85v-132h-87l-29 4q-13 0 -30 2q1 -30 5 -63l-1 -221q-3 -12 -4 -45q49 4 101 5h45v-224
q-22 -9 -42 -14l-59 -13q-33 -7 -54 -12q-15 -3 -34 -5q10 -24 19 -53l56 21l73 24zM129 250v247h104v-247h-104zM271 250v247h113v-247h-113z" />
  </g>

</svg>
