<?xml version="1.0" standalone="no"?>
<!DOCTYPE svg PUBLIC "-//W3C//DTD SVG 1.1//EN" "http://www.w3.org/Graphics/SVG/1.1/DTD/svg11.dtd" >
<svg xmlns="http://www.w3.org/2000/svg" xmlns:xlink="http://www.w3.org/1999/xlink" version="1.1" viewBox="-10 0 1034 1024">
  <g transform="matrix(1 0 0 -1 0 820)">
   <path fill="currentColor"
d="M395 6l32 -71q27 15 39 25l-47 88l-49 85q-1 -1 -4 -3q-13 -10 -33 -21q21 -27 44 -67q-45 -15 -104 -28v188q85 0 101 -2q15 0 39 -3q-1 7 -2 33q-3 22 -4 33l1 231q1 24 5 48q-31 -1 -64 -5h-76v154q0 18 2 34q1 15 12 32h-58q0 -3 4 -35l2 -185l-93 1q-15 3 -47 4
q1 -30 5 -63l-1 -234l-4 -48q60 4 90 5h50v-196q-31 -10 -88 -22q-58 -10 -80 -11q21 -30 33 -58q19 10 66 25l137 41q45 13 92 25zM235 238h-98v263h98v-263zM273 238v263h97v-263h-97zM508 -101l-5 -68h48q-6 51 -5 83v22h348l-4 -96q-1 -1 -1 -6h48q-4 54 -5 106l1 557
l4 54q-66 -6 -86 -6h-121v160q0 16 2 34q1 13 12 31h-57q0 -9 2 -14l3 -147v-64h-126q-9 0 -32 3q-15 0 -31 3q1 -36 5 -75v-577zM546 274v235h146v-235h-146zM546 -28v266h146v-266h-146zM730 274v235h164v-235h-164zM730 -28v266h164v-266h-164z" />
  </g>

</svg>
