<?xml version="1.0" standalone="no"?>
<!DOCTYPE svg PUBLIC "-//W3C//DTD SVG 1.1//EN" "http://www.w3.org/Graphics/SVG/1.1/DTD/svg11.dtd" >
<svg xmlns="http://www.w3.org/2000/svg" xmlns:xlink="http://www.w3.org/1999/xlink" version="1.1" viewBox="-10 0 1010 1000">
   <path fill="currentColor"
d="M512 6q98 24 95 30q1 2 -5 8q-22 24 -31 58q-50 165 -89 256l80 -12q33 -83 37 -129l74 29q0 2 -5 13q-15 33 -29 73q-62 172 -157 325q15 -4 62 -12q39 -6 55 -10q-7 -21 -28 -63l-4 -8l58 -24q4 7 11 21q39 69 47 100q36 -149 39 -369q-28 0 -45 6v-75q17 6 45 6
q0 -157 -8 -221q102 9 99 16q1 2 -3 9q-19 30 -18 84v112h69q58 1 81 -8q-16 141 -25 521q1 87 -27 108q-20 25 -140 51q-6 -54 -40 -95q124 22 125 -38q18 -129 28 -476h-71q-4 276 -46 387q-36 115 -169 236q-36 -42 -93 -52q101 -37 177 -156l-34 20q-8 -32 -12 -44
q-144 36 -186 57q-14 -40 -38 -79q63 -32 153 -260q-54 4 -125 36q-14 -42 -24 -62v121q0 69 8 96h-78q1 -5 2 -15q1 -11 2 -15h-67v173q10 -3 46 -12q15 -4 23 -6q-13 -36 -31 -72l67 -14q39 84 62 173l-68 16l-14 -52q-252 72 -254 92q-7 -18 -21 -50q-11 -26 -16 -38
q102 -14 144 -26l2 -182h-65q0 50 8 73h-80q6 -45 6 -143v-192q0 -74 -8 -121q2 0 7 1q51 7 101 7h29v-72q1 -79 -8 -105q21 1 52 1q38 -1 38 3q1 2 -2 8q-18 35 -18 99v66h26q43 0 103 -7q9 -1 12 -1q-8 44 -8 93v84q79 -61 117 -352zM137 254v244h67v-244h-67zM264 254
v244h65v-244h-65z" />
</svg>
