<?xml version="1.0" standalone="no"?>
<!DOCTYPE svg PUBLIC "-//W3C//DTD SVG 1.1//EN" "http://www.w3.org/Graphics/SVG/1.1/DTD/svg11.dtd" >
<svg xmlns="http://www.w3.org/2000/svg" xmlns:xlink="http://www.w3.org/1999/xlink" version="1.1" viewBox="-10 0 1010 1000">
   <path fill="currentColor"
d="M772 4q103 3 101 10q1 3 -3 11q-15 30 -15 75v109q69 -1 95 -4v75q-25 -5 -95 -4v455q0 81 1 105q0 32 3 47h-85q4 -23 4 -89h-189q0 46 1 64q1 23 3 37l-85 2q6 -43 6 -141v-480q-13 0 -51 3q-15 0 -23 1v-81q33 5 63 7q7 1 11 1v-94q0 -68 -4 -101q89 -2 97 8q1 2 -3 9
q-15 26 -15 73v107h191v-115q0 -43 -8 -90zM780 276h-191v193h191v-193zM780 532h-191v195h191v-195zM204 14q91 -2 102 10q1 4 -6 13q-18 25 -18 59v99h73q37 0 70 -6q-6 30 -6 65v238q0 53 6 86h-80q4 -23 4 -40h-67v177l91 -14q-16 -47 -34 -86l70 -13q11 26 33 83
q24 65 38 99l-79 22q-2 -7 -5 -22q-3 -16 -5 -24q-318 58 -320 66q-8 -53 -21 -89q33 1 162 -14v-185h-67q0 43 2 68h-78q7 -20 6 -86v-256q0 -39 -6 -75q46 6 70 6h73v-91q0 -40 -8 -90zM145 264v203l67 2v-205h-67zM349 264h-67v205h67v-205z" />
</svg>
