<?xml version="1.0" standalone="no"?>
<!DOCTYPE svg PUBLIC "-//W3C//DTD SVG 1.1//EN" "http://www.w3.org/Graphics/SVG/1.1/DTD/svg11.dtd" >
<svg xmlns="http://www.w3.org/2000/svg" xmlns:xlink="http://www.w3.org/1999/xlink" version="1.1" viewBox="-10 0 1034 1024">
  <g transform="matrix(1 0 0 -1 0 820)">
   <path fill="currentColor"
d="M275 204l104 -1q21 -1 45 -5q-4 60 -5 62l1 250l4 47q-30 -1 -59 -5h-90v131q0 36 14 68h-58q0 -6 3 -15q3 -48 3 -96v-88l-99 1q-15 3 -42 4q1 -33 5 -66l-1 -247q-3 -12 -4 -46q4 1 10 1q37 6 81 5h50v-199q-123 -30 -184 -30q13 -24 24 -56q39 16 76 26l115 27l139 32
q21 -48 28 -82q24 13 44 19q-15 39 -39 89q-24 54 -58 122q-18 -7 -39 -16q10 -18 21 -38q12 -22 29 -61q-51 -12 -118 -25v192zM138 240v276h99v-276h-99zM381 240h-106v276h106v-276zM874 634q72 0 88 -3q6 0 8 -2v46q-3 0 -60 -5l-452 1q-18 1 -27 4v-46q3 0 7 2
q28 1 58 3h340v-678q0 -36 -22 -45q-27 -12 -69 -12q-19 0 -55 5q12 -25 22 -58q57 7 91 16q39 10 58 28q12 15 13 47v697zM523 183q-3 -30 -5 -63q63 6 96 6q75 0 87 -2q36 -3 38 -4q-1 19 -3 32q-3 24 -3 31l1 243q0 12 5 48q-28 -1 -57 -5l-147 3q-9 1 -17 2q1 -33 5 -66
v-225zM560 161v272h135v-272h-135z" />
  </g>

</svg>
