<?xml version="1.0" standalone="no"?>
<!DOCTYPE svg PUBLIC "-//W3C//DTD SVG 1.1//EN" "http://www.w3.org/Graphics/SVG/1.1/DTD/svg11.dtd" >
<svg xmlns="http://www.w3.org/2000/svg" xmlns:xlink="http://www.w3.org/1999/xlink" version="1.1" viewBox="-10 0 1010 1000">
   <path fill="currentColor"
d="M218 -2q89 1 99 12q0 1 -2 4q-17 24 -17 99v78q88 0 140 -8q-7 45 -7 125v115q1 82 7 137h-81q0 -7 3 -21t3 -21h-65v187q7 -1 22 -1q42 -2 61 -7q-6 -10 -22 -40q-17 -30 -26 -45l68 -28q40 64 103 206l-75 24q-12 -31 -24 -58q-235 31 -326 50q-6 -48 -21 -89l168 -8
v-191h-65q0 27 4 70h-80q8 -65 8 -147v-125q0 -69 -8 -133q63 8 141 8v-64q0 -55 -8 -129zM456 90q69 8 141 8h195q105 0 156 -8v83q-29 -8 -79 -8v631q2 48 -31 67q-30 20 -130 34q0 -41 -29 -99q79 8 98 0q22 -6 21 -42v-591h-201q-85 0 -141 8v-83zM226 254h-65v201h65
v-201zM363 254h-65v201h65v-201zM480 268q30 4 56 5q21 1 69 1q74 0 129 -8q-8 56 -8 139v105q0 93 8 151h-83q8 -43 8 -65h-103q0 45 6 81h-82q6 -33 7 -58q1 -19 1 -87v-125q0 -60 -8 -139zM659 338h-103v194h103v-194z" />
</svg>
