<?xml version="1.0" standalone="no"?>
<!DOCTYPE svg PUBLIC "-//W3C//DTD SVG 1.1//EN" "http://www.w3.org/Graphics/SVG/1.1/DTD/svg11.dtd" >
<svg xmlns="http://www.w3.org/2000/svg" xmlns:xlink="http://www.w3.org/1999/xlink" version="1.1" viewBox="-10 0 1034 1024">
  <g transform="matrix(1 0 0 -1 0 820)">
   <path fill="currentColor"
d="M472 173l-78 4q-3 0 -5 1v-47q12 6 52 6h31v-237q0 -39 -5 -65h49q-3 7 -4 27q0 18 -2 38v237h346v-196q0 -34 -29 -41q-24 -4 -52 -5q-9 0 -35 3q9 -19 13 -36q1 -6 4 -14q81 12 94 16q42 12 43 81v192q51 0 73 -3q3 0 9 -3v47q-40 -1 -82 -5l1 376l4 43q-57 -6 -85 -6
h-111v117q0 15 3 31q1 18 11 33h-57l5 -103v-78l-179 3l-19 3q1 -30 5 -63v-356zM510 381v169h155v-169h-155zM510 173v172h155v-172h-155zM703 381v169h153v-169h-153zM703 173v172h153v-172h-153zM357 143l-38 -19q19 -34 34 -63l10 -22q-54 -16 -108 -30v197q79 0 91 -2
l42 -4q-3 31 -5 63l1 250l4 45q-28 -1 -58 -5h-75v132q0 15 3 32q1 16 11 33h-57q1 -13 4 -29l1 -168q-72 0 -97 2q-6 3 -34 3q1 -30 5 -62l-1 -250q-3 -12 -4 -46q60 6 94 6h37v-208q-57 -15 -100 -22q-33 -6 -67 -8q12 -21 17 -39q0 -7 5 -19q24 15 130 47l113 31
q28 6 63 17q15 -39 28 -82q22 15 41 21q-12 28 -78 172zM128 241v276h89v-276h-89zM255 241v276h90v-276h-90z" />
  </g>

</svg>
