<?xml version="1.0" standalone="no"?>
<!DOCTYPE svg PUBLIC "-//W3C//DTD SVG 1.1//EN" "http://www.w3.org/Graphics/SVG/1.1/DTD/svg11.dtd" >
<svg xmlns="http://www.w3.org/2000/svg" xmlns:xlink="http://www.w3.org/1999/xlink" version="1.1" viewBox="-10 0 1010 1000">
   <path fill="currentColor"
d="M651 -6q107 4 105 14q0 1 -2 4q-24 37 -24 165h89q53 0 86 -6q-8 60 -8 89v340q28 0 53 -6v77q0 -4 -51 -4v115q2 63 -23 83q-26 24 -102 32q-6 -44 -38 -85q63 4 74 -4q16 -6 15 -40v-101h-260v97q1 88 8 131q-52 -6 -87 0q8 -35 8 -129v-99q-24 -3 -59 4v-79q29 8 59 8
v-350q0 -33 -8 -77q27 6 87 6h84q1 -80 0 -116q-1 -34 -6 -69zM196 4q107 6 106 16q0 2 -2 6q-26 39 -26 163h63q46 0 80 -8q-7 34 -6 83v203q0 55 8 103h-80q4 -7 3 -22q0 -9 1 -14h-67v171q-2 1 4 1q23 0 75 -15q-14 -42 -32 -66l66 -21q26 67 71 188q-35 9 -77 26
q-4 -37 -12 -70q-147 33 -302 80q0 -3 -1 -8q-3 -37 -28 -76q19 -2 53 -5q81 -6 117 -14v-191h-57q0 30 6 64h-88q5 -13 8 -53q3 -39 2 -64v-223q0 -48 -8 -75q21 4 71 8h5h57q0 -52 -2 -85q-1 -27 -8 -102zM565 246v139h92v-139h-92zM825 244h-97v141h97v-141zM149 254v217
h61v-217h-61zM343 252h-67v219h67v-219zM657 443h-92v157h92v-157zM728 443v157h97v-157h-97z" />
</svg>
