<?xml version="1.0" standalone="no"?>
<!DOCTYPE svg PUBLIC "-//W3C//DTD SVG 1.1//EN" "http://www.w3.org/Graphics/SVG/1.1/DTD/svg11.dtd" >
<svg xmlns="http://www.w3.org/2000/svg" xmlns:xlink="http://www.w3.org/1999/xlink" version="1.1" viewBox="-10 0 1010 1000">
   <path fill="currentColor"
d="M706 18q25 67 38 145l-85 14q-2 -57 -34 -143zM224 26q19 1 48 1q48 0 45 5q0 1 -2 6q-15 32 -15 107v62q109 0 156 -6q-6 28 -6 91v196q0 63 6 96h-77q0 -12 2 -30h-81v184l121 -17q-5 -7 -16 -22q-19 -29 -32 -44l60 -28q52 70 91 139l-66 38l-14 -30q-285 50 -369 82
q-9 -41 -27 -86q48 -2 173 -18q7 -1 11 -2v-196h-75q0 46 4 67h-80q6 -45 6 -113v-212q0 -28 -5 -85q-1 -7 -1 -10q60 6 151 6v-64q0 -60 -8 -117zM232 266h-73v228h73v-228zM379 266h-79v228h79v-228zM597 800h60v-260h-50q-59 -1 -101 8v-83q63 8 105 8h46v-213h-46
q-52 0 -115 6v-79q60 6 115 6h216q30 0 50 -1q23 -2 56 -7v81q-42 -6 -106 -6h-95v213h74q50 0 95 -6v79q-31 -7 -95 -6h-74v260h95q46 0 95 -7q14 -2 22 -3v83q-47 -6 -115 -6h-232q-37 0 -88 3q-25 1 -33 1v-75z" />
</svg>
