<?xml version="1.0" standalone="no"?>
<!DOCTYPE svg PUBLIC "-//W3C//DTD SVG 1.1//EN" "http://www.w3.org/Graphics/SVG/1.1/DTD/svg11.dtd" >
<svg xmlns="http://www.w3.org/2000/svg" xmlns:xlink="http://www.w3.org/1999/xlink" version="1.1" viewBox="-10 0 1010 1000">
   <path fill="currentColor"
d="M647 -6q101 -1 99 6q1 3 -3 10q-15 25 -15 74v119h115q56 0 92 -6v81q-36 -9 -94 -8h-113v183h87q52 0 82 -6q-6 30 -6 85v254q0 67 6 97h-89q6 -44 5 -89h-214q0 46 1 65q1 23 3 40h-85q8 -55 8 -111v-256q0 -49 -4 -85q31 6 85 6h46v-183h-82q-63 0 -99 6v-79
q30 6 97 6h84v-129q0 -48 -6 -80zM601 516v215h214v-215h-214zM216 6q9 0 24 1q89 1 85 9q1 4 -6 13q-19 25 -19 59v99h71q41 0 81 -6q-8 45 -8 79v217q0 53 8 95h-83q4 -23 4 -40h-73v177l99 -14q-3 -6 -10 -24q-16 -40 -26 -61l74 -14q50 111 75 182l-83 22q-2 -7 -5 -22
q-3 -16 -5 -24q-338 57 -346 66q-8 -53 -21 -89q32 1 174 -14v-185h-75q0 41 4 66h-80q4 -38 4 -88v-254q0 -28 -4 -75q36 6 70 6h81v-91q0 -29 -8 -75q-1 -10 -2 -15zM151 254v211h75v-211h-75zM375 254h-75v211h75v-211z" />
</svg>
