<?xml version="1.0" standalone="no"?>
<!DOCTYPE svg PUBLIC "-//W3C//DTD SVG 1.1//EN" "http://www.w3.org/Graphics/SVG/1.1/DTD/svg11.dtd" >
<svg xmlns="http://www.w3.org/2000/svg" xmlns:xlink="http://www.w3.org/1999/xlink" version="1.1" viewBox="-10 0 1034 1024">
  <g transform="matrix(1 0 0 -1 0 820)">
   <path fill="currentColor"
d="M404 22q6 -12 20 -46q3 -9 7 -19q18 12 40 25l-53 110q-12 22 -23 45q-7 12 -13 29q-21 -15 -43 -22q10 -15 28 -50q6 -10 11 -23l-76 -25q-16 -4 -32 -10v178q72 0 87 -2q21 0 44 -3q-3 30 -5 60l1 247q0 18 4 43q-33 -1 -68 -5h-63v142q0 18 2 34q1 13 11 32h-56
l5 -104v-104h-65q-9 0 -34 3q-12 0 -31 2q1 -30 5 -60l-1 -244q-3 -12 -4 -46q54 4 80 5h50v-188q-15 -6 -38 -13l-51 -13q-60 -13 -90 -17l25 -56q87 33 123 45l197 64q3 -6 6 -14zM144 250v268h88v-268h-88zM270 250v268h90v-268h-90zM398 397q22 -7 50 -27q48 45 98 113
q30 42 57 86q27 48 62 116q57 -100 115 -165q72 -78 165 -142q13 24 47 47q-175 55 -304 301q12 16 30 27q-33 9 -70 21q-25 -90 -87 -196q-78 -126 -163 -181zM533 273l-60 4q-3 0 -6 2v-47q66 6 86 5h276q-30 -57 -63 -106q-36 -52 -88 -122l-108 87q-13 -21 -29 -36
l120 -97q79 -69 123 -120q16 18 32 37l-9 9q-9 12 -16 17q-31 28 -63 59q-9 9 -18 17l82 112q1 4 72 113q24 37 43 72q-60 -6 -84 -6h-290zM675 445l-19 24l-37 -30q28 -30 63 -73q16 -21 31 -42t23 -33q19 15 39 31q-36 48 -100 123v0z" />
  </g>

</svg>
