<?xml version="1.0" standalone="no"?>
<!DOCTYPE svg PUBLIC "-//W3C//DTD SVG 1.1//EN" "http://www.w3.org/Graphics/SVG/1.1/DTD/svg11.dtd" >
<svg xmlns="http://www.w3.org/2000/svg" xmlns:xlink="http://www.w3.org/1999/xlink" version="1.1" viewBox="-10 0 1034 1024">
  <g transform="matrix(1 0 0 -1 0 820)">
   <path fill="currentColor"
d="M861 331l79 2q0 3 25 53q-30 -6 -54 -8q-31 -3 -80 -5l-102 -1q-93 0 -188 8v107l319 -3q3 0 11 -2v44q-39 -4 -66 -5h-264v132h309q-27 -45 -55 -76l48 -11q28 55 68 119q1 4 5 7q-39 -1 -78 -5q-684 0 -696 3q-6 0 -13 2v-44q7 3 36 4l338 1v-268q-58 9 -126 41
q-36 18 -79 47q4 9 10 18q7 12 22 36q12 27 46 38q-4 1 -7 3q-9 4 -16 7q-30 10 -46 20q-30 -90 -97 -168q-78 -85 -156 -106q27 -16 50 -39q88 57 173 163q70 -52 130 -73q72 -27 215 -36q39 -3 151 -3zM207 -129q7 3 43 5l55 6q10 0 124 12l413 38q33 -33 63 -69
q15 19 35 32q-30 31 -77 74q-45 42 -89 77q-12 -16 -30 -30q13 -9 65 -53l-133 -14l-132 -10v111l249 -1q15 0 47 -4q-1 15 -3 30q-3 24 -3 47q0 81 2 94l4 38q-34 -1 -70 -5h-226v10q0 31 14 56h-58q1 -27 5 -55v-11h-215q-10 0 -36 3q-15 0 -33 2q6 -66 6 -88
q0 -57 -2 -86q-3 -3 -3 -25q-1 -4 -1 -10q33 3 69 5h215v-115q-313 -21 -320 -23q-34 0 -64 3q9 -12 12 -19q3 -4 8 -18q3 -12 7 -17q9 0 59 10zM265 84v131h240v-131h-240zM544 84v131h250v-131h-250z" />
  </g>

</svg>
