<?xml version="1.0" standalone="no"?>
<!DOCTYPE svg PUBLIC "-//W3C//DTD SVG 1.1//EN" "http://www.w3.org/Graphics/SVG/1.1/DTD/svg11.dtd" >
<svg xmlns="http://www.w3.org/2000/svg" xmlns:xlink="http://www.w3.org/1999/xlink" version="1.1" viewBox="-10 0 1010 1000">
   <path fill="currentColor"
d="M637 0q18 5 47 12q57 14 54 20q1 3 -4 6q-10 5 -14 14q44 217 256 311q-43 25 -69 74q-188 -131 -228 -320q-90 220 -189 338q-34 -38 -57 -52v82q0 38 4 81h-76q0 -5 1 -15q1 -13 1 -21h-67v193q23 -4 60 -10q26 -4 35 -6q-17 -29 -44 -76l68 -27q50 95 89 206l-73 28
q-12 -34 -20 -72q-283 45 -342 82q-8 -44 -29 -96q110 -9 186 -19v-203h-73q-1 56 4 78h-80q6 -35 6 -106v-226q0 -49 -6 -91q28 4 60 5q16 1 36 1h53v-60q0 -63 -6 -109q7 0 20 1q79 1 77 9q-21 10 -21 99v60q75 0 141 -6q-4 40 -4 97v101q127 -106 204 -383zM363 250h-67
v221h67v-221zM153 250v221h73v-221h-73zM692 302q3 9 11 30q22 61 37 97l-73 18q-13 -69 -46 -129zM488 490q48 6 131 6h177q71 0 131 -6q-45 64 -177 292q39 42 67 78l-77 53q-84 -133 -206 -230l67 -50q42 39 97 96q20 -32 52 -86t50 -83h-183q-54 0 -129 8v-78z" />
</svg>
