<?xml version="1.0" standalone="no"?>
<!DOCTYPE svg PUBLIC "-//W3C//DTD SVG 1.1//EN" "http://www.w3.org/Graphics/SVG/1.1/DTD/svg11.dtd" >
<svg xmlns="http://www.w3.org/2000/svg" xmlns:xlink="http://www.w3.org/1999/xlink" version="1.1" viewBox="-10 0 1010 1000">
   <path fill="currentColor"
d="M214 6q11 1 31 2q60 3 57 10q1 3 -3 8q-19 26 -19 91v70q79 0 139 -6q-4 34 -4 89v209q0 61 6 97h-72l2 -38h-71v189l69 -12q0 -15 -14 -66q-4 -12 -6 -20l56 -10q32 87 52 195l-64 14q0 -29 -8 -58q-225 40 -296 66q-7 -59 -23 -94q24 5 174 -9v-195h-69q-1 60 4 81
l-78 2q6 -47 6 -134v-209q0 -57 -4 -95q20 2 52 3q15 1 35 1h54v-70q0 -61 -6 -111zM454 88q75 8 113 8h258q56 0 98 -6q-6 55 -6 111v549q0 92 6 135h-80q4 -29 4 -71h-319q-1 50 4 65h-78q7 -67 6 -146v-530q0 -66 -6 -115zM530 159v591h317v-591h-317zM149 246v233h71
v-233h-71zM349 246h-69v233h69v-233zM587 266q30 6 102 6q71 0 101 -6q-4 35 -4 192q0 156 4 189q-30 -4 -98 -5q-70 1 -105 5q4 -42 5 -195q-1 -153 -5 -186zM655 324v268h67v-268h-67z" />
</svg>
