<?xml version="1.0" standalone="no"?>
<!DOCTYPE svg PUBLIC "-//W3C//DTD SVG 1.1//EN" "http://www.w3.org/Graphics/SVG/1.1/DTD/svg11.dtd" >
<svg xmlns="http://www.w3.org/2000/svg" xmlns:xlink="http://www.w3.org/1999/xlink" version="1.1" viewBox="-10 0 1010 1000">
   <path fill="currentColor"
d="M429 437q101 -24 196 -91q-58 -61 -117 -161l48 -32q-40 1 -82 10v-85q19 4 37 5q13 1 68 1h197q87 0 121 -6q-71 167 -161 268q109 51 236 53q-35 36 -55 101q-145 -45 -232 -109q-92 72 -201 123q-19 -40 -52 -73zM571 800h74v-159h-72q-52 0 -83 6v-75q42 6 93 6h62
v-36q0 -44 -10 -67q31 4 74 4q31 -1 29 4q0 4 -5 9q-13 17 -13 48v38h88q50 0 83 -6v75q-42 -6 -83 -6h-88v159h82q29 0 104 -6q12 -1 19 -2v79q-51 -8 -131 -8h-205l-129 8l2 -73l-57 16q-2 -7 -5 -22q-3 -16 -5 -24q-318 58 -320 66q-7 -44 -21 -90q33 1 162 -13v-185h-67
q-2 30 4 66h-76q4 -38 4 -88v-252q0 -39 -4 -75q30 6 66 6h73v-91q0 -40 -8 -90q99 0 102 10q1 4 -6 13q-18 25 -18 59v99h77q15 0 66 -6q-6 42 -6 67v238q0 54 6 84h-80q6 -1 6 -40h-69v177l91 -14q-16 -47 -34 -86l70 -13q53 124 71 178q52 11 87 12zM151 272v205h65v-205
h-65zM353 272h-67v205h67v-205zM579 153q40 88 98 147q57 -58 97 -147h-195z" />
</svg>
