<?xml version="1.0" standalone="no"?>
<!DOCTYPE svg PUBLIC "-//W3C//DTD SVG 1.1//EN" "http://www.w3.org/Graphics/SVG/1.1/DTD/svg11.dtd" >
<svg xmlns="http://www.w3.org/2000/svg" xmlns:xlink="http://www.w3.org/1999/xlink" version="1.1" viewBox="-10 0 1010 1000">
   <path fill="currentColor"
d="M657 12q12 1 35 2q73 3 74 12q1 2 -4 6q-26 25 -26 76v65h54q79 0 125 -10v85h-3q-66 -8 -122 -8h-54v129h72q60 0 129 -8q4 -1 5 -1v85q-33 -10 -130 -8h-203q-97 0 -133 8v-85q5 1 17 2q64 7 110 7h62v-129h-42q-82 0 -121 8v-85q66 10 121 10h42v-81q0 -59 -8 -80z
M216 12q15 1 39 4q63 4 62 12q1 3 -4 9q-21 25 -21 75v75h31l127 -8q-8 78 -8 105v165q-1 82 8 121h-85l6 -46h-79v189q16 -3 45 -10q26 -6 42 -10q-17 -49 -32 -70l72 -21q35 72 65 178l-73 24l-14 -54q-261 71 -320 104q-7 -57 -27 -98q43 1 174 -29v-203h-79q1 12 1 40
q-1 46 3 55h-82q8 -67 8 -136v-183q0 -50 -2 -74q-1 -23 -6 -47q47 8 104 8h53v-62q0 -75 -8 -113zM292 246v219h79v-219h-79zM224 246h-77v219h77v-219zM653 467q86 4 99 16q1 2 -3 8q-15 23 -15 51v48h79q63 0 100 -8v81q-9 -4 -29 -5q-15 -1 -69 -1h-81v155h103
q49 0 101 -10q9 -2 12 -2v89q-50 -10 -115 -10h-250q-77 0 -137 10v-89q74 12 133 12h80v-155h-68q-69 0 -93 4v-79q2 0 7 1q46 7 84 7h70v-48q0 -47 -8 -75z" />
</svg>
