<?xml version="1.0" standalone="no"?>
<!DOCTYPE svg PUBLIC "-//W3C//DTD SVG 1.1//EN" "http://www.w3.org/Graphics/SVG/1.1/DTD/svg11.dtd" >
<svg xmlns="http://www.w3.org/2000/svg" xmlns:xlink="http://www.w3.org/1999/xlink" version="1.1" viewBox="-10 0 1034 1024">
  <g transform="matrix(1 0 0 -1 0 820)">
   <path fill="currentColor"
d="M415 -20q3 -9 7 -18q6 3 9 6q15 9 30 15q-19 36 -45 91l-40 75l-38 -15q15 -30 46 -84q-15 0 -31 -5l-55 -12q-13 -1 -33 -4v192q108 0 122 -2q19 0 41 -3l-6 70l1 204q1 24 5 49q-109 -4 -113 -5h-50v139q0 16 2 34q0 12 11 32h-56q0 -6 1 -9l4 -112v-84q-76 0 -104 2
q-9 3 -37 3q1 -33 5 -68l-1 -206q-3 -15 -4 -49q57 4 89 5h52v-200q-105 -15 -121 -15l-51 -1q15 -33 24 -58q25 9 38 13q9 3 53 12l229 47q0 -4 16 -39zM128 257v240h99v-240h-99zM265 257v241h119v-241h-119zM669 -79l-253 3q-6 1 -14 2v-46q33 3 66 5l470 -1q7 0 17 -2
l13 -2v46q-30 -4 -65 -5h-196v185h142q27 0 51 -3q3 0 15 -2v46q-33 -1 -66 -5h-142q0 117 3 124q1 10 10 25h-57l6 -99v-50q-139 0 -161 2q-6 3 -18 3v-46q-3 0 9 1q51 3 87 4h83v-185zM666 363l-201 3q-4 1 -7 1t-6 3v-47q9 0 14 2l50 4l372 -1q9 0 49 -5v47
q-15 -4 -26 -5q-25 -1 -95 -2h-112v184l175 -1l33 -4v46q-72 -6 -76 -6h-132v107q0 15 2 34q1 18 11 32h-56q0 -9 2 -14l3 -152v-7q-139 0 -162 2q-7 3 -18 4v-46q-3 0 9 1q51 3 87 4h84v-184z" />
  </g>

</svg>
