<?xml version="1.0" standalone="no"?>
<!DOCTYPE svg PUBLIC "-//W3C//DTD SVG 1.1//EN" "http://www.w3.org/Graphics/SVG/1.1/DTD/svg11.dtd" >
<svg xmlns="http://www.w3.org/2000/svg" xmlns:xlink="http://www.w3.org/1999/xlink" version="1.1" viewBox="-10 0 1034 1024">
  <g transform="matrix(1 0 0 -1 0 820)">
   <path fill="currentColor"
d="M679 338v-187q-216 0 -238 3q-3 0 -9 2v-47q1 0 38 5l209 1l-1 -259q0 -3 -4 -25h49q-3 7 -4 27q0 18 -2 38v219l222 -1q12 0 26 -5v47q-10 -1 -22 -4l-226 -1v187h133q25 0 50 -3q4 0 13 -3v47q-3 0 -8 -2q-15 0 -31 -2l-157 -1v175l209 -3q3 0 9 -3v47q-9 -3 -23 -3
q-18 0 -40 -2h-97q27 45 56 90l30 41q6 7 27 26q-24 15 -45 28q-3 3 -10 7q-9 -34 -41 -95q-27 -48 -59 -97l-244 1q-9 1 -17 2q-3 0 -12 2v-47q1 0 38 5l181 1v-175q-165 0 -183 3l-13 2v-47q3 3 53 6h143zM562 669q22 -24 35 -40q6 -7 21 -32q3 3 7 6q12 15 28 27
l-120 133q-16 -16 -34 -30l34 -31q13 -16 29 -33zM389 54q24 -66 31 -86q9 3 16 8q7 4 16 9q6 3 14 6l-45 96l-27 59q-10 21 -20 44q-24 -15 -41 -22q21 -34 41 -78q-60 -18 -101 -28v193q85 0 100 -2q12 0 34 -3q-3 30 -5 62l1 235l4 45q-60 -4 -89 -5h-45v116q0 15 3 31
q1 18 12 33h-58q0 -4 2 -9q0 -39 3 -78v-93q-87 0 -110 2q-6 3 -34 3q4 -60 5 -63l-1 -234q-3 -15 -4 -45q49 4 101 5h43v-205q-126 -36 -181 -43q18 -27 29 -52q45 21 57 23q25 9 68 21q168 51 181 55zM133 291v260h102v-260h-102zM273 291v260h91v-260h-91z" />
  </g>

</svg>
