<?xml version="1.0" standalone="no"?>
<!DOCTYPE svg PUBLIC "-//W3C//DTD SVG 1.1//EN" "http://www.w3.org/Graphics/SVG/1.1/DTD/svg11.dtd" >
<svg xmlns="http://www.w3.org/2000/svg" xmlns:xlink="http://www.w3.org/1999/xlink" version="1.1" viewBox="-10 0 1010 1000">
   <path fill="currentColor"
d="M927 68v87q-31 -8 -117 -8h-145q57 24 57 34q0 5 -17 21q-22 19 -32 33q-15 19 -44 57q-51 68 -73 89l257 -14q-5 -11 -59 -89l69 -41q33 49 123 216l-79 43q-3 -11 -10 -31q-9 -25 -12 -36q-19 0 -55 3q-40 3 -64 3v141h54q86 0 123 -6v85q-35 -5 -123 -6h-54v143h105
q103 1 123 -8v81q-8 3 -55 1q-44 -3 -70 -3l-260 2q-69 0 -131 4v-77l-37 10q-2 -7 -5 -22q-3 -16 -5 -24q-318 58 -320 66q-8 -53 -21 -89q33 1 162 -14v-185h-65q0 36 6 66h-80q4 -35 4 -70v-270q0 -28 -4 -75q30 6 66 6h73v-91q0 -40 -8 -90q8 0 25 1q79 1 77 9
q1 4 -6 13q-18 25 -18 59v97h79q37 -1 64 -4q-5 20 -4 63v239q-1 63 4 87h-76q0 -6 1 -17q1 -14 1 -23h-69v177l91 -14q-16 -48 -34 -85l70 -14q14 34 38 99q22 57 33 83l-34 10q20 2 112 2h99v-141h-62q-69 1 -107 6v-85q37 5 105 6h64v-137q-143 18 -177 34
q-16 -63 -32 -88q41 1 90 -63q56 -84 97 -177h-52q-78 1 -123 8v-87q21 8 123 8h225q83 0 119 -8zM151 258v209h61v-209h-61zM349 256h-67v211h67v-211z" />
</svg>
