<?xml version="1.0" standalone="no"?>
<!DOCTYPE svg PUBLIC "-//W3C//DTD SVG 1.1//EN" "http://www.w3.org/Graphics/SVG/1.1/DTD/svg11.dtd" >
<svg xmlns="http://www.w3.org/2000/svg" xmlns:xlink="http://www.w3.org/1999/xlink" version="1.1" viewBox="-10 0 1034 1024">
  <g transform="matrix(1 0 0 -1 0 820)">
   <path fill="currentColor"
d="M580 696q0 15 3 32q1 18 11 33h-56q0 -4 2 -9q0 -27 3 -56l-1 -412q-4 -76 -17 -148q-1 -3 -1 -6q-22 -105 -79 -177q-27 -31 -49 -42l50 -28q49 72 65 103q42 79 55 168q13 96 14 184v358zM482 199q-3 15 -5 32l-1 334q0 30 4 42q3 13 9 23h-55q1 -31 5 -65l-2 -350
q-3 -12 -3 -16h48zM946 723l-9 -2q1 0 -13 -2h-285q-24 3 -27 4v-47q7 3 25 4q12 1 117 2v-171l-111 3q-7 1 -15 2q1 -30 5 -60q0 -408 -3 -422q-1 -3 -1 -7q-1 -1 -1 -5h47q-4 24 -5 62v391h84v-549q0 -39 -5 -64h48q-6 15 -6 42v571h79v-363q0 -27 -7 -37q-10 -9 -28 -9
q-12 0 -29 2q12 -24 20 -47q39 6 58 16q22 15 23 59l1 375q0 21 4 45q-27 -1 -55 -5h-66v171q126 0 138 -2q4 0 17 -4v47zM94 -32q63 24 280 64l15 -43q3 -12 6 -29q12 6 19 13q7 6 21 9q-10 27 -24 64q-28 70 -48 122q-12 -7 -39 -18l23 -50q6 -13 12 -33q-64 -15 -94 -18
v186q63 0 76 -2q16 0 34 -3q-3 31 -5 63l1 246l4 45q-28 -1 -57 -5h-53v141q0 15 3 32q1 16 10 33h-55q0 -1 1 -5q0 -1 1 -5q0 -36 3 -74v-122q-51 0 -73 2q-6 3 -35 3l6 -63l-1 -246q-4 -19 -5 -45q49 6 102 5h6v-193q-49 -12 -149 -23l8 -15q3 -12 7 -36zM161 271v272h67
v-272h-67zM265 271v272h68v-272h-68z" />
  </g>

</svg>
