<?xml version="1.0" standalone="no"?>
<!DOCTYPE svg PUBLIC "-//W3C//DTD SVG 1.1//EN" "http://www.w3.org/Graphics/SVG/1.1/DTD/svg11.dtd" >
<svg xmlns="http://www.w3.org/2000/svg" xmlns:xlink="http://www.w3.org/1999/xlink" version="1.1" viewBox="-10 0 1034 1024">
  <g transform="matrix(1 0 0 -1 0 820)">
   <path fill="currentColor"
d="M636 -60l-262 3q-6 1 -13 2v-49q7 3 25 4q10 1 73 2l480 -1q10 0 27 -5v49l-62 -5h-230v189h156q31 0 50 -3q4 0 12 -4v50q-6 -1 -11 -3q3 0 -11 -1l-196 -1v182l178 15q15 -21 23 -37q4 -7 17 -34q15 15 39 30l-61 89l-48 67q-10 15 -21 28l-33 46q-15 -12 -36 -25
l42 -52l54 -77q-181 -16 -205 -17q-111 -6 -122 -7q55 73 101 145q42 73 88 166l208 -1q15 0 38 -5v50q-6 -3 -13 -4l-76 -2l-400 1l-24 5v-50q12 3 29 4l66 2h127q-28 -66 -58 -119q-28 -48 -53 -83q-19 -30 -42 -57q-36 -43 -61 -53l15 -51q28 6 109 15q15 0 81 8v-179
l-191 3q-3 1 -8 2v-50q9 6 40 6l159 1v-189zM385 -8q3 -7 5 -17q15 12 21 14q6 6 22 9l-88 178q-6 -6 -35 -22q12 -18 33 -60q3 -9 11 -25l-20 -6l-58 -18q-7 -1 -13 -4q-3 0 -6 -2v198q93 0 107 -2l34 -4q-3 33 -5 67l1 221l4 48q-57 -6 -85 -6h-56v157q0 16 3 33
q1 19 11 35h-57q0 -3 1 -6q0 -3 1 -6l3 -108v-105q-72 0 -96 2l-35 4q1 -33 5 -66l-1 -222q0 -1 -4 -48q60 6 94 6h37v-208q-6 -3 -16 -5q-3 0 -16 -5q-132 -31 -140 -34q7 -12 11 -22q0 -7 4 -15q0 -6 5 -17q24 15 127 49q172 51 177 52q1 -3 14 -40zM130 275v249h89v-249
h-89zM257 275v249h98v-249h-98z" />
  </g>

</svg>
