<?xml version="1.0" standalone="no"?>
<!DOCTYPE svg PUBLIC "-//W3C//DTD SVG 1.1//EN" "http://www.w3.org/Graphics/SVG/1.1/DTD/svg11.dtd" >
<svg xmlns="http://www.w3.org/2000/svg" xmlns:xlink="http://www.w3.org/1999/xlink" version="1.1" viewBox="-10 0 1034 1024">
  <g transform="matrix(1 0 0 -1 0 820)">
   <path fill="currentColor"
d="M257 475q-24 -3 -86 -21q-15 -3 -28 -8l-87 -13q15 -22 32 -50q40 22 169 57v-99q0 -31 -41 -32q-19 0 -68 8q12 -16 22 -46q0 -3 2 -7q39 1 67 8q55 13 56 72v105l131 33q1 22 5 45q-120 -37 -136 -42v100l138 -3q6 0 11 -3v47q-15 -3 -40 -4l-109 -1q0 117 3 122
q1 13 10 26h-57q6 -54 6 -110v-38h-121q-21 0 -66 5v-47q19 4 51 5l136 1v-110zM492 44v-120q-222 -15 -260 -15l-99 1q-13 1 -27 2q13 -36 20 -58q36 9 75 13q6 1 118 11q16 1 35 2l174 11l314 20q19 -21 48 -72q3 4 8 8q1 0 3 3q7 6 15 11q0 3 12 10q-93 120 -139 164
q-18 -18 -36 -31q34 -28 63 -62l-287 -15v117l256 -1q24 -1 49 -5q-4 49 -5 75q0 67 2 80q0 18 3 35q-31 -1 -63 -5h-242q0 15 5 51q3 18 9 36h-57q6 -66 6 -87h-241q-9 0 -31 3q-12 0 -29 2q4 -99 5 -102l-5 -88l60 6h241zM492 79h-257v108h257v-108zM529 79v108h261v-108
h-261zM686 385q3 3 4 6t3 6l1 2q-40 24 -99 50q27 55 43 128l131 8l-8 -150l-2 -58q0 -39 20 -55q15 -15 59 -15q39 0 67 7q27 9 44 36q9 19 17 71q-24 10 -47 27q0 -15 1 -24q0 -33 -3 -49q-4 -18 -26 -25q-21 -6 -53 -6q-15 0 -24 4q-16 6 -17 36l6 152q3 46 8 90
q-36 -6 -56 -8l-114 -8q0 12 9 112q3 24 15 44q-36 3 -62 8q3 -30 4 -62l-1 -33q0 -24 -4 -73l-118 2q1 -22 4 -45q36 6 110 13q-15 -66 -39 -111q-10 4 -57 28q-6 3 -21 9q0 -3 -2 -5l-1 -2q0 -3 -3 -8q-6 -13 -12 -22q45 -16 76 -35q-27 -34 -75 -69q-61 -37 -107 -47
q15 -9 32 -26q1 -3 4 -5l7 -9q39 22 61 37q15 9 28 20q42 33 86 85q42 -18 98 -57q4 9 6 13q3 7 7 13v0z" />
  </g>

</svg>
