<?xml version="1.0" standalone="no"?>
<!DOCTYPE svg PUBLIC "-//W3C//DTD SVG 1.1//EN" "http://www.w3.org/Graphics/SVG/1.1/DTD/svg11.dtd" >
<svg xmlns="http://www.w3.org/2000/svg" xmlns:xlink="http://www.w3.org/1999/xlink" version="1.1" viewBox="-10 0 1034 1024">
  <g transform="matrix(1 0 0 -1 0 820)">
   <path fill="currentColor"
d="M61 -21q9 -18 14 -36q18 7 37 14l46 15q45 12 146 45l75 23q12 -24 22 -56q1 -3 3 -7q19 12 40 26l-63 124q-13 24 -25 48q-15 -9 -37 -20l43 -82q-3 -1 -7 -3q-4 -3 -12 -4l-49 -13q-15 -4 -22 -5q-3 -1 -10 -3v188q70 0 84 -2q18 0 42 -3q-3 33 -5 65l1 213q0 21 4 49
l-111 -5h-15v151q0 16 3 33q1 16 11 32h-57l4 -35l1 -181q-60 0 -87 2q-6 3 -39 3q1 -31 5 -65l-1 -215q-3 -15 -4 -47q54 4 82 5h44v-200q-30 -4 -101 -25l-58 -11q-6 1 -14 0q4 -9 10 -18zM224 269h-84v245h84v-245zM262 269v245h83v-245h-83zM540 488h-56q-36 0 -52 3
q3 0 -8 3h-1q-3 1 -4 1v-48q36 6 91 6h30v-202q-78 -34 -149 -48q16 -24 23 -41q1 -4 3 -8q33 18 40 21q46 18 51 19q12 4 32 13v-246q0 -33 -13 -42q-12 -9 -43 -10q-21 0 -47 6q13 -22 20 -54q39 3 55 6q28 6 47 22q18 18 18 59v275l89 34q0 28 2 55q-18 -13 -36 -24
q-19 -10 -55 -24v189h123q3 -81 9 -134l16 -119l15 -85q-27 -46 -67 -92q-37 -39 -77 -66q22 -3 29 -7q10 -3 33 -13q28 36 96 127q19 -66 45 -118q48 -96 88 -96q33 0 58 74q10 37 22 74q-28 18 -45 40q-1 -31 -9 -71q-12 -63 -31 -64q-18 0 -54 77q-27 52 -46 132
q10 16 34 63q21 40 49 100q24 57 59 68q-18 7 -28 12q-6 0 -37 20q-24 -90 -91 -210l-20 147l-10 141q177 -3 188 -6q0 1 3 0v48q-3 0 -8 -2q-6 -1 -27 -4l-158 -1l-1 110l2 88q3 34 7 54q1 13 16 28q-18 0 -68 7q3 -36 4 -61l4 -226h-123v189q3 1 7 1q6 1 13 3q27 4 39 8
q21 0 31 -2q-12 13 -26 37q0 1 -3 5q-3 3 -7 11q-24 -12 -44 -19q-25 -7 -69 -18q-76 -18 -127 -19q21 -27 31 -46q9 3 21 6l48 10q16 3 40 11q3 0 9 2v-179zM794 694q33 -42 56 -73q19 -30 41 -67q18 12 35 25q-12 21 -46 68q-28 39 -54 71q-10 -9 -32 -24v0z" />
  </g>

</svg>
