<?xml version="1.0" standalone="no"?>
<!DOCTYPE svg PUBLIC "-//W3C//DTD SVG 1.1//EN" "http://www.w3.org/Graphics/SVG/1.1/DTD/svg11.dtd" >
<svg xmlns="http://www.w3.org/2000/svg" xmlns:xlink="http://www.w3.org/1999/xlink" version="1.1" viewBox="-10 0 1010 1000">
   <path fill="currentColor"
d="M206 0q91 0 94 6q1 2 -3 11q-21 44 -21 118v42q73 0 133 -6q-7 41 -4 111v163q0 69 6 113h-74q0 -9 3 -30q1 -4 1 -6h-65v191q9 -2 30 -6q25 -5 39 -8q-2 -5 -6 -17q-15 -44 -26 -65l66 -19q40 85 67 192l-75 22q0 -21 -10 -60q-229 46 -294 70q-4 -24 -21 -72
q-4 -11 -6 -17q78 5 172 -10v-201h-67q-3 54 2 82h-72q6 -45 6 -119v-211q0 -68 -4 -103q45 6 137 6v-44q0 -77 -8 -133zM915 28v84q-43 -5 -191 130l10 12h60q71 0 115 -8q-6 40 -6 114v456q2 38 -20 51q-17 13 -97 28q2 -33 -36 -93q86 15 85 -22v-119h-119q0 88 1 123
q1 42 3 66h-77q6 -54 6 -189h-113v83q0 72 8 147h-84q9 -58 8 -145v-369v-19q1 -74 -4 -110q66 6 185 6q-55 -46 -123 -75l65 -52q52 41 90 74q14 -11 47 -42q51 -46 70 -61h-217q-60 0 -76 1q-22 1 -39 5v-76q33 6 111 6h242q51 0 96 -6zM341 240h-65v219h65v-219zM212 240
h-67v219h67v-219zM536 314v111h113v-111h-113zM835 314h-119v111h119v-111zM716 481v125h119v-125h-119zM649 481h-113v125h113v-125z" />
</svg>
