<?xml version="1.0" standalone="no"?>
<!DOCTYPE svg PUBLIC "-//W3C//DTD SVG 1.1//EN" "http://www.w3.org/Graphics/SVG/1.1/DTD/svg11.dtd" >
<svg xmlns="http://www.w3.org/2000/svg" xmlns:xlink="http://www.w3.org/1999/xlink" version="1.1" viewBox="-10 0 1010 1000">
   <path fill="currentColor"
d="M649 -25q99 1 107 12q1 3 -6 11q-18 24 -18 52v234q161 -2 181 -12q-5 22 -6 70q-2 47 -2 152v342q2 50 -22 62q-22 16 -109 23q-6 -61 -42 -109q69 16 82 9q17 -3 15 -43v-107h-266v47q-1 181 6 187h-87q6 -53 6 -232v-204v-54q2 -98 -6 -139q33 5 69 6q35 2 106 2v-226
q0 -36 -7 -73q-2 -9 -1 -10zM841 34q86 28 94 42q0 3 -8 9q-17 12 -26 27q-4 6 -11 18q-27 49 -69 112q-41 -20 -67 -21q64 -97 87 -187zM520 58q71 103 101 169l-93 17q-23 -81 -80 -166zM563 348v97h266v-97h-266zM563 508v100h266v-100h-266zM204 14q98 0 102 10
q1 4 -6 13q-18 25 -18 59v99h67q37 0 76 -6q-5 20 -4 63v238q-1 64 4 88h-76q0 -6 1 -17q1 -14 1 -23h-69v177l91 -14q-16 -47 -34 -86l70 -13q30 68 71 182l-79 22q-2 -7 -5 -22q-3 -16 -5 -24q-318 58 -320 66q-8 -53 -21 -89q33 1 162 -14v-185h-63q-1 53 4 66h-80
q4 -38 4 -88v-252q0 -39 -4 -75q30 6 66 6h73v-91q0 -40 -8 -90zM149 262v209h63v-209h-63zM349 262h-67v209h67v-209z" />
</svg>
