<?xml version="1.0" standalone="no"?>
<!DOCTYPE svg PUBLIC "-//W3C//DTD SVG 1.1//EN" "http://www.w3.org/Graphics/SVG/1.1/DTD/svg11.dtd" >
<svg xmlns="http://www.w3.org/2000/svg" xmlns:xlink="http://www.w3.org/1999/xlink" version="1.1" viewBox="-10 0 1034 1024">
  <g transform="matrix(1 0 0 -1 0 820)">
   <path fill="currentColor"
d="M265 654l-163 1q-4 1 -7 1l-32 4v-47q21 6 47 5l155 1v-124q-22 -9 -27 -9q-120 -24 -130 -24q-21 -3 -40 -3q3 -7 4 -13q13 -27 14 -40l76 24l103 25v-102q0 -16 -7 -28q-12 -9 -45 -10q-22 0 -55 7q15 -36 17 -52q9 1 20 1q24 0 38 3q34 3 51 20q18 18 19 67v102
l143 33q0 24 9 50q-24 -12 -49 -20q-27 -7 -74 -18q-18 -3 -29 -7v118q115 0 134 -2l21 -4v47q-48 -6 -78 -6h-77q0 81 3 90q1 10 10 24h-56q1 -42 5 -84v-30zM667 -87l71 6q33 0 68 3q52 -51 78 -85q15 16 32 33q-64 66 -147 143l-28 29q-16 -16 -33 -28l62 -58l-170 -14
q-33 -3 -71 -5v110l247 -1q15 0 48 -4l-3 35q-3 25 -4 46q0 57 2 64q1 19 5 40q-33 -1 -66 -5h-229q0 54 3 57q3 16 11 27h-60q0 -6 3 -12q0 -36 3 -72l-256 1q-25 3 -50 4q1 -30 5 -62q0 -57 -2 -88q-3 -6 -3 -35q34 3 71 5h235v-113q-228 -12 -244 -16q-18 0 -127 -7
q-12 0 -42 3q9 -21 18 -53q33 6 144 19l355 27zM226 83v103h263v-103h-263zM529 83v103h248v-103h-248zM751 512q-3 -204 -5 -222h48q-4 54 -5 76v146l107 1q33 -1 48 -2q10 0 18 -4v47q-54 -6 -66 -6h-334l6 117q42 0 105 7q27 0 66 7q163 21 171 22h12q-12 12 -27 32
q-6 9 -11 17q-49 -21 -119 -32l-108 -13q-54 -4 -87 -6q-18 0 -47 4q4 -42 5 -75q0 -66 -8 -111q-21 -96 -85 -158q-24 -21 -66 -46q16 -6 45 -31q9 12 21 21q33 30 49 50q15 21 36 61q25 51 38 98h193z" />
  </g>

</svg>
