<?xml version="1.0" standalone="no"?>
<!DOCTYPE svg PUBLIC "-//W3C//DTD SVG 1.1//EN" "http://www.w3.org/Graphics/SVG/1.1/DTD/svg11.dtd" >
<svg xmlns="http://www.w3.org/2000/svg" xmlns:xlink="http://www.w3.org/1999/xlink" version="1.1" viewBox="-10 0 1034 1024">
  <g transform="matrix(1 0 0 -1 0 820)">
   <path fill="currentColor"
d="M882 359l-5 -101l-13 -271q0 -16 -8 -49q-9 -21 -24 -31q-31 -15 -69 -15q-12 0 -71 7q15 -27 22 -54q105 6 149 35q21 15 32 48q7 36 10 125l4 83q6 147 7 167l7 97q-49 -4 -70 -5h-532q10 10 59 65l19 22l443 -1q15 0 49 -4q-4 54 -5 80l1 115l4 53q-33 -1 -68 -5
l-567 1q-19 3 -46 4q1 -34 5 -71l-1 -132q-3 -15 -4 -45q51 4 102 5h44q-63 -72 -153 -143q-70 -51 -133 -71q15 -6 26 -14q13 -9 29 -19q72 48 157 124h600zM253 518v168h175v-168h-175zM463 518v168h182v-168h-182zM680 518v168h168v-168h-168zM730 -34q19 -24 38 -51
q12 9 26 21q3 4 8 7q-15 22 -36 44q-6 6 -55 61q-12 13 -32 33q-13 -13 -33 -26q36 -31 61 -59l-156 -9q-25 -1 -58 -2v100l179 -1q24 -1 48 -5q-4 49 -5 77q0 40 3 81q0 12 2 23q-30 -1 -62 -5h-164v25q0 27 12 63h-53q3 -9 6 -59v-29l-167 1q-15 3 -46 4q4 -99 5 -104
q0 -12 -5 -77q60 6 93 6h120v-103q-210 -9 -264 -9l-40 4q12 -30 21 -56l37 8q15 4 32 5q93 9 163 12q21 0 55 3l108 7zM285 116v106h174v-106h-174zM493 116v106h187v-106h-187z" />
  </g>

</svg>
