<?xml version="1.0" standalone="no"?>
<!DOCTYPE svg PUBLIC "-//W3C//DTD SVG 1.1//EN" "http://www.w3.org/Graphics/SVG/1.1/DTD/svg11.dtd" >
<svg xmlns="http://www.w3.org/2000/svg" xmlns:xlink="http://www.w3.org/1999/xlink" version="1.1" viewBox="-10 0 1010 1000">
   <path fill="currentColor"
d="M579 -8q105 16 108 22q1 3 -7 8q-30 22 -61 66h175q49 1 105 -8q-70 121 -159 198q90 35 222 42q-28 44 -43 99q-16 -6 -47 -16q-159 -53 -191 -79q-87 58 -223 105q-8 -16 -38 -52q-15 -17 -15 -19q118 -14 224 -80q-48 -48 -75 -85q-14 19 -51 64q-20 24 -29 35
q-21 -17 -69 -42q123 -83 174 -258zM591 147q47 54 92 95q49 -43 89 -95h-181zM333 252h-69v215h69v-215zM137 252v215h63v-215h-63zM639 375q13 1 35 2q55 3 56 8q2 2 -3 14q-14 32 -13 62h64q48 0 65 -1q22 -1 42 -5v73q-47 -9 -109 -8h-62v66q59 0 87 -1q33 -2 66 -7v71
q-27 -5 -61 -7q-17 0 -38 -1h-54v68l82 2q0 -1 33 -3q55 -4 80 -7v73q-51 -6 -109 -6h-86q0 54 1 80q2 31 5 55h-85q5 -21 7 -50q0 -14 1 -33v-52h-72q-58 0 -109 6v-73q66 8 111 8h70v-68q-63 0 -92 1q-35 2 -69 7v-71q30 5 66 7q17 0 39 1h56v-66h-62q-39 -1 -107 8v-73
q34 4 56 5q18 1 51 1h62q0 -60 -4 -86zM401 473q0 61 6 97h-80l6 -40h-69v171q17 -4 50 -12q20 -4 27 -6q-18 -55 -26 -70l74 -19q38 81 63 194l-79 22q-2 -33 -12 -68q-252 57 -296 86q-9 -52 -29 -97q72 0 164 -20v-181h-63v64h-74q6 -46 6 -119v-195q1 -43 -6 -97
q63 6 137 6v-62q1 -59 -6 -119q15 1 41 2q60 3 57 8q0 1 -3 8q-25 48 -25 105v58q89 0 143 -6q-6 36 -6 69v4v217z" />
</svg>
