<?xml version="1.0" standalone="no"?>
<!DOCTYPE svg PUBLIC "-//W3C//DTD SVG 1.1//EN" "http://www.w3.org/Graphics/SVG/1.1/DTD/svg11.dtd" >
<svg xmlns="http://www.w3.org/2000/svg" xmlns:xlink="http://www.w3.org/1999/xlink" version="1.1" viewBox="-10 0 1034 1024">
  <g transform="matrix(1 0 0 -1 0 820)">
   <path fill="currentColor"
d="M142 -26q36 103 56 219q18 108 27 275h122v-121q0 -13 -3 -26q-3 -10 -13 -23l24 -42q36 21 87 46q39 21 84 40q9 3 22 9l-5 25q-1 9 -3 19q-18 -15 -39 -27l-118 -52v152h146q12 -18 47 -63q1 0 3 -3q21 -24 33 -32q51 -43 116 -72q63 -24 90 -33l86 -26q9 16 32 46
q-49 3 -112 19t-102 37l53 56q28 27 60 39q-4 4 -9 7q-1 0 -4 3q-15 10 -26 22l94 -1q9 0 21 -3l2 -1v44q1 0 -10 -3q-24 0 -51 -2h-625l2 188l634 -1q12 0 25 -3l2 -1v44l-9 -2l-90 -3l-564 1q-12 3 -43 4q6 -57 7 -119q-3 -159 -14 -304q-13 -126 -44 -222
q-21 -63 -55 -107zM783 468q-12 -18 -26 -34q-16 -18 -32 -37q-12 -15 -36 -38q-75 43 -112 109h206zM203 -103q30 6 72 9q12 1 29 2q346 28 386 29l126 8q27 -25 61 -67q12 16 32 31l-60 59q-6 4 -10 9l-70 67q12 0 33 -4q-6 55 -5 82l4 85q0 6 1 15q-27 -1 -54 -5h-219
q0 55 5 65q3 10 9 18h-56q0 -4 2 -9q0 -3 1 -8q0 -33 3 -66l-201 1q-15 3 -42 4q4 -90 5 -93l-5 -91l58 6h185v-87q-156 -10 -181 -12q-63 -1 -129 0q9 -24 20 -48zM288 77v106h205v-106h-205zM734 23q28 -21 51 -45q-198 -15 -257 -17v83h228q-12 -10 -22 -21zM528 77v106
l233 -1v-105h-233zM315 567q51 4 89 5q378 0 395 -3l10 -2v44q-9 -3 -21 -3q-19 0 -39 -2h-370q-45 0 -64 5v-44z" />
  </g>

</svg>
