<?xml version="1.0" standalone="no"?>
<!DOCTYPE svg PUBLIC "-//W3C//DTD SVG 1.1//EN" "http://www.w3.org/Graphics/SVG/1.1/DTD/svg11.dtd" >
<svg xmlns="http://www.w3.org/2000/svg" xmlns:xlink="http://www.w3.org/1999/xlink" version="1.1" viewBox="-10 0 1010 1000">
   <path fill="currentColor"
d="M823 24q11 0 31 1q75 2 71 7q0 3 -4 10q-14 24 -14 62v710q2 40 -26 54q-24 15 -125 31q-17 -66 -54 -109q131 27 129 -32v-234v-373q0 -79 -8 -127zM377 606q85 -101 125 -252h-16q-38 0 -63 6v-74q25 3 67 4h22v-133q-55 20 -93 26q-9 -28 -46 -71q133 -6 280 -72
q58 54 59 72q-1 2 -12 3q-22 0 -41 4q-4 1 -11 2q-38 9 -73 20v151h28q22 0 46 -3q8 -1 12 -1v74q-14 -6 -64 -6h-22v136l46 -27q46 70 69 99v-324q0 -45 -5 -79q86 2 95 14q0 2 -3 7q-15 32 -15 94v300q0 84 4 115h-81q5 -35 5 -117l-55 41q-21 -41 -60 -97v260q1 99 4 125
h-73q6 -65 6 -133v-278q-34 101 -75 173q-20 -30 -60 -59zM190 0q11 0 32 1q58 2 54 5q0 3 -4 9q-14 24 -14 67v85h65q28 0 64 -6q-7 33 -6 74v232q0 52 4 79h-75q5 -27 5 -36h-57v195l73 -12q-14 -46 -37 -87l75 -18q12 40 43 137q12 39 19 59l-80 20q0 -20 -4 -47
q-1 -7 -2 -11q-214 45 -285 70q-3 -22 -9 -61q-4 -20 -5 -30h4q40 1 148 -12v-203h-61q0 44 5 86q1 5 1 8h-80q6 -29 6 -82v-284q0 -47 -4 -77q30 6 66 6h67v-107q1 -46 -8 -60zM133 231v216h65v-216h-65zM258 231v216h55v-216h-55z" />
</svg>
