<?xml version="1.0" standalone="no"?>
<!DOCTYPE svg PUBLIC "-//W3C//DTD SVG 1.1//EN" "http://www.w3.org/Graphics/SVG/1.1/DTD/svg11.dtd" >
<svg xmlns="http://www.w3.org/2000/svg" xmlns:xlink="http://www.w3.org/1999/xlink" version="1.1" viewBox="-10 0 1010 1000">
   <path fill="currentColor"
d="M609 117q143 -12 260 -61q65 76 54 83q-2 2 -10 -1q-20 -5 -38 -3q-17 2 -68 14q-5 1 -7 2v181h47q36 -1 66 -4v75q-15 -5 -72 -4h-41v205h33q34 -1 70 -4v73q-56 -3 -80 -2h-131q-45 0 -61 4v-77l67 6h34v-207h-34q-34 0 -67 6v-75q2 0 7 1q45 3 62 3h32v-167
q-13 3 -45 11q-27 7 -44 11q-15 -44 -34 -70zM484 498q2 1 2 9q-2 50 36 130q14 -45 21 -104q8 -62 5 -100q-60 8 -94 20q-2 -23 -16 -59l-3 -9q66 -27 89 -232h-34q-42 0 -73 6q3 -37 0 -73q35 4 67 4h56q47 -1 71 -4q-45 197 -83 295q27 -3 73 -10q15 -3 22 -4
q-19 219 -52 328q56 53 135 66q76 14 266 5q-34 40 -39 97q-295 -8 -391 -107q-54 93 -113 155q-40 -37 -84 -48q97 -60 151 -158q-59 -94 -81 -171q15 -5 40 -23q23 -16 29 -13zM196 -6q91 -3 96 8q1 4 -5 13q-17 25 -17 59v95h73q36 -1 60 -4q-5 20 -4 64v234q-1 64 4 85
h-74q6 -1 6 -38h-65v173l85 -14q-1 -3 -5 -13q-17 -48 -27 -70l66 -14q42 110 57 163l-65 29q-1 -5 -4 -14l-6 -21q-286 56 -298 63q-7 -45 -19 -87q30 1 150 -14v-181h-59q0 41 4 64h-74q4 -27 4 -68v-266q0 -28 -4 -75q30 6 62 6h67v-89q0 -41 -8 -88zM145 238v205h59
v-205h-59zM333 237h-63v206h63v-206z" />
</svg>
