<?xml version="1.0" standalone="no"?>
<!DOCTYPE svg PUBLIC "-//W3C//DTD SVG 1.1//EN" "http://www.w3.org/Graphics/SVG/1.1/DTD/svg11.dtd" >
<svg xmlns="http://www.w3.org/2000/svg" xmlns:xlink="http://www.w3.org/1999/xlink" version="1.1" viewBox="-10 0 1034 1024">
  <g transform="matrix(1 0 0 -1 0 820)">
   <path fill="currentColor"
d="M490 624q27 1 49 5q6 0 11 2v-196q-102 0 -122 3q-3 0 -9 2v-47q19 4 36 5l90 1q-28 -96 -93 -211q-39 -67 -71 -84q30 -7 55 -21q31 48 64 110q15 34 31 69q9 13 19 34q0 -442 -3 -467q0 -3 -1 -8q-1 -1 -1 -5h49q-3 6 -4 27q0 19 -2 38v390q48 -54 73 -91q15 18 31 35
l-104 121v63q96 0 111 -5l2 -1v47q-19 -3 -23 -4l-90 -1v202q75 13 126 15q-21 24 -36 50q-28 -12 -66 -21q-58 -12 -110 -16q-51 -3 -79 -4q-15 0 -44 3q15 -27 22 -51q27 6 38 7q25 3 51 4zM733 576q0 -13 3 -29q3 -36 3 -62l-1 -397q-1 -10 -3 -18q0 -1 -2 -12h50
q-3 7 -4 27q-3 18 -3 37v389q0 18 4 32q1 16 11 33h-58zM908 682q0 16 3 32q1 16 11 33h-57q3 -24 4 -27v-808q-3 -10 -8 -16q-6 -4 -21 -10q-18 -3 -39 -4q-21 0 -54 5q12 -27 19 -55q45 3 73 10q24 6 41 15q27 18 28 58v767zM202 -56l106 27l70 14q18 -45 27 -83
q9 6 20 14q9 6 26 11q-7 15 -15 28l-34 79l-27 62q-6 15 -14 32q-24 -12 -44 -20q27 -39 44 -86l-100 -25v197q87 0 100 -2q12 0 34 -3q-3 31 -5 63l1 222q0 18 4 46q-33 -6 -79 -6h-55v161q0 15 3 31q1 16 11 33h-57q0 -6 2 -10l3 -107v-108q-73 0 -98 2q-1 0 -35 4
q1 -30 5 -63l-1 -223q-3 -15 -4 -45q49 4 105 5h28v-205q-93 -19 -161 -29l7 -21l6 -33q31 13 60 21q33 9 67 17zM132 230v248h91v-248h-91zM261 230v248h91v-248h-91z" />
  </g>

</svg>
