<?xml version="1.0" standalone="no"?>
<!DOCTYPE svg PUBLIC "-//W3C//DTD SVG 1.1//EN" "http://www.w3.org/Graphics/SVG/1.1/DTD/svg11.dtd" >
<svg xmlns="http://www.w3.org/2000/svg" xmlns:xlink="http://www.w3.org/1999/xlink" version="1.1" viewBox="-10 0 1010 1000">
   <path fill="currentColor"
d="M633 -6q96 11 105 22q0 8 -13 18q-12 10 -13 18q73 185 256 250q-33 25 -66 77q-2 3 -3 4q-42 -25 -86 -63v67q-17 -4 -59 -4h-36v107h111q27 0 70 -2q8 -1 12 -1v71q0 3 -32 1q-34 -3 -54 -3h-107v264q1 49 -27 65q-25 17 -118 26q-4 -51 -37 -99q115 31 111 -22v-232
h-103q-45 0 -74 6v-76l70 4h107v-109h-46q-37 0 -57 6v-43q-21 29 -56 67q-22 -27 -65 -53q149 -131 210 -366zM679 113q-34 71 -116 203q25 3 76 4h93q49 0 76 -6q-95 -109 -129 -201zM825 612q56 72 121 194l-81 38q-49 -131 -107 -199zM530 623q85 27 81 36q-1 4 -6 7
q-16 10 -30 35q-38 72 -103 180q-34 -25 -83 -27q74 -71 141 -231zM200 14q89 -2 102 10q1 4 -6 13q-18 25 -18 59v97h79q37 -1 64 -4q-5 20 -4 63v238q-1 64 4 88h-76q0 -6 1 -17q1 -14 1 -23h-69v177l91 -14q-16 -47 -34 -86l68 -13q24 68 59 154l-67 32q-5 -13 -8 -28
q-318 58 -320 66q-8 -53 -21 -89q33 1 162 -14v-185h-61q-2 21 4 66h-82q4 -35 4 -70v-270q0 -39 -4 -75q30 6 66 6h73v-91q0 -40 -8 -90zM147 262v209h61v-209h-61zM345 262h-67v209h67v-209z" />
</svg>
