<?xml version="1.0" standalone="no"?>
<!DOCTYPE svg PUBLIC "-//W3C//DTD SVG 1.1//EN" "http://www.w3.org/Graphics/SVG/1.1/DTD/svg11.dtd" >
<svg xmlns="http://www.w3.org/2000/svg" xmlns:xlink="http://www.w3.org/1999/xlink" version="1.1" viewBox="-10 0 1034 1024">
  <g transform="matrix(1 0 0 -1 0 820)">
   <path fill="currentColor"
d="M255 42v183q75 0 89 -2q12 0 34 -3q-3 28 -5 57l1 257l4 39q-30 -1 -59 -5h-64v131q0 27 13 70h-58q1 -34 5 -70v-131q-66 0 -90 2q-6 3 -30 3q1 -27 5 -57l-1 -255q-3 -12 -4 -41q45 4 89 5h31v-196q-48 -12 -86 -21q-34 -6 -76 -12q9 -19 18 -54q39 16 107 38l175 52
q9 -27 13 -56q19 10 44 20l-64 171q-19 -9 -43 -13q9 -18 17 -32q7 -18 21 -53zM138 261v271h77v-271h-77zM255 261v271h78v-271h-78zM915 -92q22 0 45 -1q7 27 31 59q-34 -9 -53 -13q-51 -4 -95 -5l-59 2q-54 3 -87 11q-51 10 -87 35q-21 16 -58 55q30 69 43 178
q0 24 15 122l-96 -5h-25q30 67 53 130l62 170q-28 -1 -58 -5q-93 0 -121 2q-15 3 -23 3v-46q54 4 111 5h36q-42 -129 -123 -300q30 4 53 5h86q-6 -82 -15 -141q-10 -54 -25 -89q-51 75 -70 177q-13 -3 -20 -7q-9 -3 -25 -7q19 -45 29 -69q25 -63 67 -131q-81 -132 -173 -168
q28 -15 47 -32q99 90 154 170q55 -60 110 -80q55 -19 177 -23zM744 436h-71q-33 0 -69 5v-46q30 6 69 6h71v-262q-75 0 -101 2q-15 3 -21 3v-46q4 3 54 5l202 -1q18 0 39 -4v46q-36 -4 -73 -5h-60v262h75q42 0 73 -6v46q-46 -4 -73 -5h-75v230q78 18 138 19q-18 25 -34 51
q-48 -21 -89 -30q-51 -12 -96 -17l-59 -3q-9 0 -32 3q15 -27 21 -48l111 17v-222z" />
  </g>

</svg>
