<?xml version="1.0" standalone="no"?>
<!DOCTYPE svg PUBLIC "-//W3C//DTD SVG 1.1//EN" "http://www.w3.org/Graphics/SVG/1.1/DTD/svg11.dtd" >
<svg xmlns="http://www.w3.org/2000/svg" xmlns:xlink="http://www.w3.org/1999/xlink" version="1.1" viewBox="-10 0 1034 1024">
  <g transform="matrix(1 0 0 -1 0 820)">
   <path fill="currentColor"
d="M422 -88q13 16 29 31q33 34 68 78q31 37 42 46q9 10 36 28q-27 15 -40 26q-3 3 -10 7q-39 -69 -110 -142q-43 -42 -71 -54q9 -4 17 -10l30 -20q4 6 9 10zM392 440q22 -13 44 -32q124 105 231 284q45 -75 112 -141l60 -55q84 -63 102 -75q19 24 43 43q-60 15 -131 72
q-103 84 -164 192q9 15 24 24q-21 4 -59 20q-18 -66 -79 -155q-60 -87 -121 -139q-36 -28 -62 -38zM650 222h-155q-45 0 -66 5v-47q1 0 38 5l183 1v-258q0 -34 -21 -43q-18 -6 -51 -7q-22 0 -55 3q15 -30 18 -51q39 3 56 7q58 7 78 27q12 12 13 47v275q207 0 230 -3
q3 0 9 -3v47l-12 -3q-25 0 -50 -2h-177v155q144 0 157 -2q4 0 17 -4v47q-19 -3 -23 -4l-322 1q-6 0 -15 3v-47q1 0 38 5l110 1v-155zM798 130q-15 -15 -35 -30q18 -16 38 -39l44 -51q48 -60 76 -104q12 15 23 23l14 11l-142 169zM359 163q-3 9 -8 17q-21 -12 -36 -19
q18 -33 36 -76q-42 -15 -88 -27v178q81 0 94 -2q12 0 34 -3q-3 31 -5 63l1 234l4 45l-96 -5h-32v124q0 16 3 32q1 18 11 33h-57q0 -4 2 -9l3 -114v-66q-63 0 -84 2q-6 3 -36 3q1 -30 5 -62l-1 -235q-3 -12 -4 -45q51 4 105 5h15v-192q-84 -27 -120 -36q-30 -9 -61 -14
q12 -12 30 -48q21 12 35 17l81 29l179 58q7 -22 15 -47q10 9 17 10q6 3 22 8q-19 48 -32 74zM147 272v260h78v-260h-78zM263 272v260h85v-260h-85z" />
  </g>

</svg>
