<?xml version="1.0" standalone="no"?>
<!DOCTYPE svg PUBLIC "-//W3C//DTD SVG 1.1//EN" "http://www.w3.org/Graphics/SVG/1.1/DTD/svg11.dtd" >
<svg xmlns="http://www.w3.org/2000/svg" xmlns:xlink="http://www.w3.org/1999/xlink" version="1.1" viewBox="-10 0 1034 1024">
  <g transform="matrix(1 0 0 -1 0 820)">
   <path fill="currentColor"
d="M393 425l-314 3l-6 2v-46q6 3 13 3q27 3 53 3h254v-20q0 -42 -5 -63h49q-3 6 -4 27l-2 36v341q0 15 2 31q3 18 12 32h-57q0 -1 1 -5q0 -1 1 -4q0 -40 3 -82l-265 1q-12 3 -21 4v-46q1 0 38 5l248 1v-91h-193q-45 0 -65 5v-46q1 0 38 5l220 1v-97zM596 773q0 -3 5 -63
l-1 -376l-2 -12q0 -3 -2 -12h49q-3 6 -4 27q0 28 -2 57l282 -1q21 0 35 -5v45q-3 0 -8 -2q-15 0 -31 -2l-278 -1v98h201q25 0 50 -3l13 -2v45q-6 -1 -12 -3q3 0 -11 -1l-241 -1v87l256 -1q21 0 35 -5v46l-9 -2q1 0 -13 -2l-269 -1q0 58 3 65q3 15 11 25h-57zM909 -127
q4 6 15 15q-7 10 -15 19l-126 150q-10 -10 -19 -17q-3 -1 -5 -4q-4 -3 -9 -7q33 -33 47 -50l7 -9l-269 -15v126l246 -1l40 -4q-6 54 -6 72q0 75 2 88q0 12 4 33q-28 -1 -58 -5h-228v40q0 15 3 31q1 16 11 32h-57q0 -1 1 -5q0 -1 1 -4l3 -94h-244q-9 0 -33 3q-15 0 -31 2
q1 -28 5 -58q0 -78 -2 -105q-3 -3 -3 -30h9q-1 0 10 1l45 4h244v-130q-40 0 -117 -7l-203 -11l-65 1q-4 1 -7 1q9 -24 15 -51q1 -4 3 -10q27 10 78 17q207 18 267 22l365 24q22 -30 45 -62l12 -20q9 9 19 18zM231 116v113h266v-113h-266zM535 116v113h242v-113h-242z" />
  </g>

</svg>
