<?xml version="1.0" standalone="no"?>
<!DOCTYPE svg PUBLIC "-//W3C//DTD SVG 1.1//EN" "http://www.w3.org/Graphics/SVG/1.1/DTD/svg11.dtd" >
<svg xmlns="http://www.w3.org/2000/svg" xmlns:xlink="http://www.w3.org/1999/xlink" version="1.1" viewBox="-10 0 1034 1024">
  <g transform="matrix(1 0 0 -1 0 820)">
   <path fill="currentColor"
d="M485 213l-229 1q-1 0 -45 4q1 -33 5 -66l-5 -131q30 3 63 5h211v-105l-164 -6l-104 -2q-39 0 -90 6q15 -33 20 -56q99 10 115 11l34 1q57 0 182 8l361 14q40 -33 66 -59q9 16 18 25l11 11q-34 31 -104 87l-63 48q-12 -15 -35 -31l31 -22l34 -24l-274 -9v103l250 -1l53 -4
l-3 37q-3 27 -3 91q0 9 6 69q-36 -1 -72 -5h-231v95h33q42 0 82 6q37 4 69 25q31 21 48 91q-15 7 -40 23q-12 -75 -49 -94q-18 -6 -60 -11q-51 -3 -104 -4q-21 0 -56 2q127 82 207 158q27 25 37 30q10 7 34 13l-27 19q-6 4 -22 20q-54 -63 -125 -121q-51 -39 -91 -66
q-36 -22 -74 -41q-9 9 -10 15q-6 12 -6 33q0 75 2 84q0 10 11 41h-59q0 -3 1 -8q4 -21 5 -58v-71q0 -13 4 -30q3 -13 15 -26q-151 -84 -283 -80q22 -22 39 -48q66 15 137 39q58 18 154 66q45 -6 90 -7v-95zM254 62v115h231v-115h-231zM782 62h-259v115h259v-115zM107 355
q25 -10 43 -28q42 54 83 112q22 36 44 58q-27 9 -46 21q-27 -51 -48 -84q-21 -30 -54 -64q-10 -9 -22 -15zM133 567q-3 -60 -5 -73h47l-4 47l-1 79h697q-3 -99 -5 -118h48l-4 47q0 21 -2 43l6 69l-66 -6h-255q12 18 26 35l-78 50q-40 21 -81 46q-15 -19 -28 -39
q78 -33 155 -92h-386q-10 0 -36 4q-13 0 -33 2q1 -34 5 -70v-24zM427 564l78 -40q15 -9 39 -28q6 6 7 10q6 9 9 15q3 3 7 10l-115 70q-12 -19 -25 -37zM764 472q60 -39 78 -54l51 -46q15 -15 25 -30q16 22 33 37q-67 63 -155 129q-12 -18 -32 -36v0z" />
  </g>

</svg>
