<?xml version="1.0" standalone="no"?>
<!DOCTYPE svg PUBLIC "-//W3C//DTD SVG 1.1//EN" "http://www.w3.org/Graphics/SVG/1.1/DTD/svg11.dtd" >
<svg xmlns="http://www.w3.org/2000/svg" xmlns:xlink="http://www.w3.org/1999/xlink" version="1.1" viewBox="-10 0 1010 1000">
   <path fill="currentColor"
d="M216 -6q55 0 69 1q19 1 23 5q1 1 -1 8q-15 41 -15 115v80h61q37 0 50 -1q18 -1 39 -5q-2 13 -3 36q-1 18 -1 67v159q0 70 6 101h-81q1 -4 2 -10q2 -8 2 -16h-75v175l101 -24q-7 -20 -23 -61q-3 -8 -5 -12l62 -20q33 60 69 168l-75 24q-3 -22 -12 -46q-250 54 -328 92
q-1 -31 -29 -88q78 -6 172 -23v-185h-73q-1 65 4 85h-78q6 -36 6 -109v-196q0 -47 -1 -68q-1 -25 -5 -47q37 6 100 6h47v-84q0 -85 -8 -127zM780 -2q92 31 101 44q0 2 -3 4q-37 31 -106 175q84 0 117 -6q-4 34 -5 56q-1 26 -1 73q0 76 1 105q1 36 5 59q-14 -2 -37 -3
q-11 -1 -27 -1h-41v238q-5 57 57 54q36 2 48 -19q13 -18 16 -80q40 33 77 47q-11 76 -39 99q-13 12 -35 16q-18 4 -61 4q-84 1 -107 -15q-25 -15 -24 -68v-276h-65q3 162 -34 233q-39 87 -153 172q-50 -47 -81 -55q118 -52 161 -130q41 -64 39 -220q-53 -3 -83 6
q2 -20 3 -52q1 -15 1 -37v-61v-46q1 -87 -4 -99q33 6 91 6h113q53 -115 76 -223zM579 10q50 85 76 151l-76 26q-32 -83 -75 -145zM224 270h-73v203h73v-203zM292 270v203h75v-203h-75zM812 280h-237v165h237v-165z" />
</svg>
