<?xml version="1.0" standalone="no"?>
<!DOCTYPE svg PUBLIC "-//W3C//DTD SVG 1.1//EN" "http://www.w3.org/Graphics/SVG/1.1/DTD/svg11.dtd" >
<svg xmlns="http://www.w3.org/2000/svg" xmlns:xlink="http://www.w3.org/1999/xlink" version="1.1" viewBox="-10 0 1010 1000">
   <path fill="currentColor"
d="M361 8q98 -3 97 2q-16 24 -16 76v270q-1 58 4 93h-85q5 -17 6 -42h-188q-67 1 -116 8v-73q67 7 116 8h190v-72h-161q-50 0 -97 8v-71q59 7 97 8h161v-76h-182q-36 0 -100 8v-71q58 7 96 8h188q0 -41 -10 -84zM562 10q82 -2 99 6q-21 32 -22 80h188q41 0 96 -10v73
q-50 -8 -90 -8h-192v74h151q66 0 95 -6v69q-51 -8 -91 -8h-153v70h188h17q47 1 85 -4v69q-40 -9 -98 -8h-190q0 23 6 56h-93q9 -54 9 -103v-268q0 -57 -5 -82zM450 429q98 -3 98 8q-18 30 -18 73h210q19 0 85 -8q-7 37 -8 72v65q0 30 8 76q-40 -6 -81 -6h-216v91h230
q-13 -9 -33 -24q-12 -8 -17 -12l58 -43l143 150l-66 48q-23 -47 -43 -69q-37 1 -107 3q-490 13 -598 34q-1 -33 -20 -93q35 6 75 6h61h243v-91h-212q0 23 4 45h-83q7 -29 10 -89v-89q-1 -42 -6 -76q66 8 83 8h204q0 -40 -1 -53q-1 -18 -3 -26zM528 568v83h224v-83h-224z
M242 566v85h212v-85h-212z" />
</svg>
