<?xml version="1.0" standalone="no"?>
<!DOCTYPE svg PUBLIC "-//W3C//DTD SVG 1.1//EN" "http://www.w3.org/Graphics/SVG/1.1/DTD/svg11.dtd" >
<svg xmlns="http://www.w3.org/2000/svg" xmlns:xlink="http://www.w3.org/1999/xlink" version="1.1" viewBox="-10 0 1010 1000">
   <path fill="currentColor"
d="M210 -2q99 7 98 12q0 2 -5 8q-25 35 -25 99v54q71 0 143 -6q-4 36 -4 89v201q0 59 4 97h-74l2 -38h-71v181q27 -6 71 -12q-7 -29 -30 -75l78 -20q40 104 59 204l-83 20q-3 -45 -10 -70q-268 56 -296 86q-11 -48 -33 -99q102 -8 180 -20v-195h-65q-1 68 4 92h-80
q6 -40 6 -106v-244q0 -39 -4 -91q48 6 139 6v-56q0 -23 -3 -95q-1 -14 -1 -22zM502 48q24 4 62 5q19 1 47 1h83q93 0 130 -1q44 -2 59 -5q-7 28 -6 94v33q0 101 6 137q-24 -6 -91 -6h-60q-1 10 -2 32q-2 39 -4 65h80h13q67 1 104 -6q-6 30 -6 95v304q5 55 -23 71
q-27 20 -132 34q2 -48 -28 -91q76 8 90 -5q18 -9 17 -65v-273h-121q-1 7 -4 20q-2 12 -6 33q16 24 47 64q43 57 70 99q-23 4 -75 46q-20 -79 -64 -147q-13 48 -57 160q-59 -33 -79 -39q72 -93 97 -236h-103v297q0 82 6 121h-88q6 -47 6 -117v-291q0 -43 -6 -82q27 8 111 8
h84q0 -58 4 -99h-66q-57 0 -95 6q3 -21 3 -50q1 -14 1 -34v-55q0 -59 -1 -76q0 -23 -3 -47zM577 121v116h229v-116h-229zM214 235h-67v216h67v-216zM349 235h-71v216h71v-216z" />
</svg>
