<?xml version="1.0" standalone="no"?>
<!DOCTYPE svg PUBLIC "-//W3C//DTD SVG 1.1//EN" "http://www.w3.org/Graphics/SVG/1.1/DTD/svg11.dtd" >
<svg xmlns="http://www.w3.org/2000/svg" xmlns:xlink="http://www.w3.org/1999/xlink" version="1.1" viewBox="-10 0 1010 1000">
   <path fill="currentColor"
d="M528 -8q11 30 26 100h256q40 0 103 -8q-4 24 -4 80t4 86h-92q4 -43 4 -91h-652v2q-2 64 2 93h-86q4 -33 5 -91q-1 -58 -5 -79q2 0 6 1q69 7 101 7h266q-3 -5 -7 -16q-18 -39 -30 -60zM437 169q65 41 99 73l-76 56q-39 -52 -89 -79zM651 179q75 44 81 56q1 1 -7 5
q-31 15 -62 40q-102 79 -226 137h156q65 3 74 -99q30 39 81 53q-29 72 -55 91q-22 21 -80 19h-202q-57 1 -72 -16q-34 15 -138 55q-54 21 -78 30q-23 -55 -56 -77q88 -3 245 -64q0 -78 -1 -102q-1 -31 -3 -43q96 0 97 8q1 2 -3 9q-19 34 -19 102q168 -86 268 -204zM768 256
q63 35 145 92l-62 69q-64 -70 -137 -109zM456 490q7 0 19 1q79 1 75 9q1 3 -4 10q-10 15 -10 32h172q65 0 111 -8q-10 93 0 195q-36 -7 -107 -8h-176v79q109 0 180 -2q-24 -19 -53 -36l63 -37q91 57 165 123l-72 55q-29 -35 -47 -53q-632 20 -639 47q-2 -9 -6 -25
q-8 -41 -22 -72q41 5 111 5q48 1 244 -3v-81h-190q0 24 2 43h-80q12 -135 0 -230q39 8 100 8h168q0 -28 -4 -52zM460 594h-190v75h190v-75zM536 594v75h206v-75h-206zM179 248l77 18q-14 61 -44 147l-87 -18q30 -44 54 -147z" />
</svg>
