<?xml version="1.0" standalone="no"?>
<!DOCTYPE svg PUBLIC "-//W3C//DTD SVG 1.1//EN" "http://www.w3.org/Graphics/SVG/1.1/DTD/svg11.dtd" >
<svg xmlns="http://www.w3.org/2000/svg" xmlns:xlink="http://www.w3.org/1999/xlink" version="1.1" viewBox="-10 0 1034 1024">
  <g transform="matrix(1 0 0 -1 0 820)">
   <path fill="currentColor"
d="M665 216v-272q0 -42 24 -58q22 -15 93 -15q78 0 108 18q30 15 57 91l9 27q-21 10 -39 23l-9 7q0 -19 -4 -48q-12 -63 -58 -76q-18 -4 -71 -5q-31 0 -45 4q-27 7 -27 39v265q198 0 205 -3q3 0 7 -2v46q-1 0 -60 -5h-219q6 28 10 58q4 31 10 79l165 -1q21 0 35 -5v47
q-10 -1 -22 -4l-177 -1l5 131q207 0 230 -3q3 0 10 -3v47q-19 -3 -23 -4l-169 -1q73 106 81 113q16 19 39 34q-19 7 -30 14q-6 3 -27 16q-12 -37 -111 -177q-222 0 -241 3q-3 0 -9 2v-47q12 6 52 6h156l-4 -131q-148 0 -163 3l-13 2v-47q6 3 13 3q24 3 53 3h109
q-3 -45 -9 -79q-4 -30 -12 -58h-122q-34 0 -53 3q1 0 -14 2v-46q15 3 39 4l141 1q-37 -135 -147 -250q-84 -84 -146 -100q15 -9 30 -19q1 -1 21 -18l43 35q45 39 90 85q18 19 45 54q72 99 105 213h39zM457 734q15 -12 25 -22l54 -54l36 -47q18 18 37 31l-53 57l-69 65
q-9 -12 -16 -18q-6 -3 -14 -12zM84 -35q27 12 62 22l120 37q45 12 93 27l6 -14q15 -30 20 -56q9 6 19 11q10 3 24 9q-75 160 -82 179q-28 -13 -39 -17q18 -30 37 -76q-63 -21 -100 -30v162q87 0 100 -2q16 0 35 -3q-1 16 -3 33q-3 22 -3 29l1 243q1 22 5 45q-30 -1 -60 -5
h-75v126q0 12 4 32q1 16 11 33h-58q0 -4 2 -9v-8q1 -6 4 -48v-126q-69 0 -93 2q-6 3 -37 3q6 -55 7 -62l-1 -240q-6 -24 -6 -48q51 4 86 5h44v-173q-19 -3 -29 -8q-108 -18 -114 -20q7 -13 15 -37q1 -7 5 -16zM120 255v268h87v-268h-87zM244 255v268h91v-268h-91z" />
  </g>

</svg>
