<?xml version="1.0" standalone="no"?>
<!DOCTYPE svg PUBLIC "-//W3C//DTD SVG 1.1//EN" "http://www.w3.org/Graphics/SVG/1.1/DTD/svg11.dtd" >
<svg xmlns="http://www.w3.org/2000/svg" xmlns:xlink="http://www.w3.org/1999/xlink" version="1.1" viewBox="-10 0 1010 1000">
   <path fill="currentColor"
d="M214 -2q9 0 25 1q72 1 69 7q1 3 -4 13q-20 37 -20 94v68q47 0 141 -8q-4 33 -4 101v187q0 68 6 103h-78q4 -24 4 -48h-69v185q11 -2 29 -4q36 -5 58 -10q-2 -5 -5 -14q-14 -46 -25 -69l66 -16q35 74 67 188l-77 18q-3 -25 -10 -48q-250 40 -331 66q-3 -30 -18 -89
q47 3 182 -14v-193h-67q-2 51 4 94h-78q6 -52 6 -141v-193q0 -70 -4 -103q60 8 139 8v-68v-14q1 -58 -6 -101zM728 0q60 0 77 1q23 2 24 7q0 1 -2 6q-21 43 -21 127q87 0 111 -6v80q-39 -9 -111 -6v127q91 0 146 -8v79q-44 -10 -117 -4h-283q-81 -3 -114 4v-77q45 6 110 6
v-127q-54 0 -100 6v-80q40 6 100 6q0 -94 -6 -139q7 0 20 1q87 1 77 5q0 1 -2 4q-22 37 -22 129h123q-2 0 -4 -54q-3 -68 -6 -87zM738 209h-123v127h123v-127zM284 244v213h69v-213h-69zM153 244v213h67v-213h-67zM498 471q45 5 134 4h56q96 0 128 -1q40 0 65 -3
q-6 32 -8 109v192q1 79 8 125h-85q6 -26 6 -71h-227q1 0 1 16q1 40 5 57h-83q6 -35 6 -143v-170q0 -78 -6 -115zM802 534h-227v89h227v-89zM802 679h-227v87h227v-87z" />
</svg>
