<?xml version="1.0" standalone="no"?>
<!DOCTYPE svg PUBLIC "-//W3C//DTD SVG 1.1//EN" "http://www.w3.org/Graphics/SVG/1.1/DTD/svg11.dtd" >
<svg xmlns="http://www.w3.org/2000/svg" xmlns:xlink="http://www.w3.org/1999/xlink" version="1.1" viewBox="-10 0 1010 1000">
   <path fill="currentColor"
d="M778 -6q14 5 40 14q65 21 59 28q-1 3 -9 7q-17 7 -25 19q-3 5 -11 17q-26 41 -40 62h51q52 0 88 -6v78q-31 -5 -98 -4h-113q0 3 -1 11q-3 47 -7 80h101q61 0 88 -10v83q-39 -6 -86 -6h-111q-1 18 -7 61q-2 22 -3 29h125q49 0 112 -8v79q-6 0 -20 -1q-38 -3 -84 -3h-142
q-3 2 -12 44q97 -3 105 8q1 3 -5 12q-19 32 -19 75v119q-1 20 10 24q7 5 51 4q33 1 45 -21q13 -19 17 -82q37 37 85 47q-23 91 -48 110q-26 26 -102 25q-89 1 -111 -16q-25 -15 -24 -75v-141q0 -42 -6 -83q-52 183 -246 343q-33 -41 -92 -63q228 -117 274 -330h-49
q-54 0 -96 6v-77q36 3 101 4h56q5 -38 10 -92h-56q-58 0 -89 4q6 -40 0 -75l89 4h62q1 -15 4 -44q3 -31 4 -47h-81q-70 -1 -96 4v-76q34 3 82 4h47q-26 -60 -81 -111l83 -30q54 67 72 110l-64 31h107q35 -48 66 -145zM202 2q100 0 102 10q1 5 -7 20q-17 30 -17 52v97h79
q37 -1 64 -4q-5 20 -4 63v239q-1 63 4 87q-39 -6 -76 0l2 -40h-69v177l91 -14q-16 -48 -34 -85l70 -14q5 13 16 41q31 79 49 123l-75 22q-5 -13 -8 -28q-318 58 -320 66q-8 -53 -21 -89q33 1 162 -14v-185h-63q0 43 4 66h-80q4 -35 4 -70v-270q0 -28 -4 -75q30 6 66 6h73
v-91q0 -40 -8 -90zM149 250v209h61v-209h-61zM347 248h-67v211h67v-211z" />
</svg>
