<?xml version="1.0" standalone="no"?>
<!DOCTYPE svg PUBLIC "-//W3C//DTD SVG 1.1//EN" "http://www.w3.org/Graphics/SVG/1.1/DTD/svg11.dtd" >
<svg xmlns="http://www.w3.org/2000/svg" xmlns:xlink="http://www.w3.org/1999/xlink" version="1.1" viewBox="-10 0 1010 1000">
   <path fill="currentColor"
d="M185 -15q83 -2 97 9q1 4 -6 13q-18 26 -18 63v91h63q34 0 76 -6q-6 39 -6 76v234q0 56 6 101h-74q0 -6 1 -18q1 -15 1 -24h-67v185l69 -10q0 -1 -1 -5q-15 -62 -24 -86l71 -18q41 142 62 200l-78 20q0 -2 -1 -6q-7 -33 -13 -48q-245 52 -287 72q-6 -43 -20 -95
q32 1 154 -14v-195h-63q0 43 4 68h-75q5 -18 4 -74v-285q0 -42 -6 -78q37 6 67 6h69v-83q0 -51 -5 -93zM127 229v228h63v-228h-63zM323 229h-65v228h65v-228zM641 -4q98 15 95 26q0 4 -8 9q-32 24 -59 84h166q24 0 59 -1q20 -1 27 -1q-5 28 -4 94v258q0 38 4 63
q-25 -4 -74 -4h-59v127h99q33 0 79 -6v82q-36 -6 -81 -6h-97v117q0 46 6 84v3h-82q1 -5 2 -17q6 -42 6 -76v-111h-230q-27 -1 -71 2v-76q-1 -1 10 0q27 2 53 2h38q41 -51 79 -129h-67q-41 0 -68 4q2 -27 4 -70q4 -55 4 -67v-180q0 -57 -6 -95q3 0 11 1q30 2 53 2h77
q26 -61 34 -119zM540 183v107h119q6 -30 8 -107h-127zM849 183h-115q-3 35 -10 94q-1 9 -2 13h127v-107zM540 348v105h83q16 -39 28 -105h-111zM849 348h-135q-4 24 -13 66q-6 26 -9 41h157v-107zM720 522h-49q-16 38 -72 129h121v-129z" />
</svg>
