<?xml version="1.0" standalone="no"?>
<!DOCTYPE svg PUBLIC "-//W3C//DTD SVG 1.1//EN" "http://www.w3.org/Graphics/SVG/1.1/DTD/svg11.dtd" >
<svg xmlns="http://www.w3.org/2000/svg" xmlns:xlink="http://www.w3.org/1999/xlink" version="1.1" viewBox="-10 0 1034 1024">
  <g transform="matrix(1 0 0 -1 0 820)">
   <path fill="currentColor"
d="M71 -58q15 7 86 36l188 72q1 -3 3 -7q6 -22 15 -47q19 12 39 23q-1 4 -3 8q-60 132 -68 146q-18 -10 -38 -19q15 -22 35 -70q-10 -4 -21 -8q-3 0 -39 -14l-19 -6v180q72 0 86 -2l41 -4q-3 34 -5 70l1 240l4 52q-66 -6 -87 -6h-40v139q0 16 2 35q1 13 11 34h-57l4 -37
l1 -171q-63 0 -88 2q-1 0 -40 4q1 -34 5 -71l-1 -240q-3 -12 -4 -49v-2q60 6 79 6h49v-192q-24 -10 -80 -27q-46 -12 -80 -20q6 -10 20 -52q0 -1 1 -3zM124 273v274h86v-274h-86zM249 273v274h84v-274h-84zM570 25l63 33q12 6 27 14l-6 55q-24 -24 -138 -84q-46 -25 -76 -39
q-24 -10 -57 -21q13 -25 27 -53q15 9 27 17q6 6 133 78zM681 611q-244 0 -256 3q-7 3 -13 4v-49l65 6h205q3 -144 6 -156q3 -85 8 -110q3 -36 13 -89l19 -95q-27 -54 -58 -104q-33 -51 -59 -79q-19 -21 -55 -50q9 -3 16 -5q15 -4 23 -8q6 -4 17 -11q33 42 61 83
q30 45 72 116l32 -74l24 -46q54 -99 89 -99q25 0 50 57q19 48 31 87q-24 15 -48 41q-4 -45 -9 -68q-9 -55 -30 -56q-15 0 -52 69q-27 48 -57 138q42 93 80 191l36 84q7 12 29 21q-51 24 -66 28q-7 -31 -19 -66q-10 -34 -24 -68q-21 -61 -52 -123q-9 45 -16 85l-10 74l-6 92
q0 60 -4 141l183 -1q18 -1 39 -5v49q-1 0 -2 -1q-3 0 -4 -1q-3 0 -6 -2l-106 -3h-104q0 103 3 115q4 46 23 68l-55 4q-6 0 -13 2v-189zM568 158l64 -6q-4 54 -5 76l1 173l4 53l-66 -7q-69 0 -95 2q-6 3 -29 5h-8q1 -36 5 -73l-1 -182q-3 -12 -4 -47q60 6 91 6h43zM475 195
v216h115v-216h-115zM880 719q-42 42 -59 63q-15 -15 -32 -30l68 -74q12 -15 30 -41q18 19 33 36q-13 15 -21 22q-10 12 -19 24v0z" />
  </g>

</svg>
