<?xml version="1.0" standalone="no"?>
<!DOCTYPE svg PUBLIC "-//W3C//DTD SVG 1.1//EN" "http://www.w3.org/Graphics/SVG/1.1/DTD/svg11.dtd" >
<svg xmlns="http://www.w3.org/2000/svg" xmlns:xlink="http://www.w3.org/1999/xlink" version="1.1" viewBox="-10 0 1034 1024">
  <g transform="matrix(1 0 0 -1 0 820)">
   <path fill="currentColor"
d="M502 675h401v-734q0 -31 -23 -39q-21 -4 -48 -5q-21 0 -49 6q7 -21 12 -38q1 -6 4 -14l60 5q15 0 27 4q27 6 41 24q12 18 13 55l1 728q0 13 5 49q-28 -1 -57 -5l-387 1q-15 3 -43 4q1 -31 5 -65v-280q0 -123 -7 -211q-9 -78 -26 -132q-21 -63 -50 -104q-24 -31 -51 -50
q25 -9 52 -24q30 46 52 86q42 81 56 195q6 48 9 116q3 69 3 133v295zM675 384l-133 3l-6 2v-47q7 3 25 4q19 3 39 2q234 0 248 -3q6 0 16 -3v47q-19 -3 -23 -4l-128 -1v115q94 0 108 -3q6 0 15 -3v47l-103 -5h-20v40q0 15 3 30q1 18 11 33h-57q0 -6 2 -11l3 -92
q-79 0 -106 2q-4 1 -7 1t-12 2v-47q12 6 52 6h73v-115zM561 269q1 -19 2 -33q3 -21 3 -70q0 -81 -2 -111q-3 -6 -3 -33q51 4 100 5q111 0 126 -2q15 0 33 -3q-6 54 -6 85l1 118q1 15 4 29q0 4 1 15q-28 -1 -57 -5l-158 1q-19 3 -44 4zM776 63h-173v165h173v-165zM400 11
q6 4 23 7q-1 3 -3 7q-1 4 -5 10q-6 12 -10 23q-15 42 -31 78l-17 41q-22 -10 -38 -16q12 -21 30 -63q-33 -13 -82 -29v154q85 0 99 -2q16 0 34 -3q-3 30 -5 62l1 221l4 45q-28 -1 -57 -5h-76v147q0 15 3 32q1 18 11 33h-57q0 -3 1 -6q0 -1 1 -3l3 -105v-98h-77q-6 0 -28 3
q-15 0 -31 2q1 -30 5 -63l-1 -220q-3 -12 -4 -45q49 4 102 5h34v-165q-60 -21 -100 -32q-36 -9 -80 -16q15 -24 23 -53q28 18 116 49q130 43 174 55q9 -21 20 -60q9 6 18 10zM135 259v246h94v-246h-94zM267 259v246h90v-246h-90z" />
  </g>

</svg>
