<?xml version="1.0" standalone="no"?>
<!DOCTYPE svg PUBLIC "-//W3C//DTD SVG 1.1//EN" "http://www.w3.org/Graphics/SVG/1.1/DTD/svg11.dtd" >
<svg xmlns="http://www.w3.org/2000/svg" xmlns:xlink="http://www.w3.org/1999/xlink" version="1.1" viewBox="-10 0 1010 1000">
   <path fill="currentColor"
d="M659 0q30 5 74 4q28 -1 29 4t-7 19q-12 22 -13 39q-2 21 -2 109h95q69 -1 103 -4v81q1 -10 -103 -10h-91q2 157 28 336q41 -118 49 -274q24 8 64 13q28 4 28 9q0 6 -6 14q-12 16 -16 39q-25 138 -85 284q37 98 81 131q12 5 22 -87q30 36 65 51q-25 139 -65 141
q-85 -19 -149 -159q-66 86 -147 155q-33 -33 -77 -51q113 -57 192 -179q-47 -166 -53 -423h-163q-58 0 -102 6h-3v-77q37 3 103 4h161q-5 -158 -12 -175zM851 20q5 8 14 22q31 51 36 66l-66 31q-16 -38 -51 -91zM639 322q-6 35 -6 137q0 97 6 145q-14 -2 -37 -3
q-18 -1 -64 -1q-63 -1 -94 8q4 -36 4 -90v-57v-52q0 -70 -4 -85q30 6 98 6q58 0 97 -8zM498 385v159h85v-159h-85zM667 641v72q-100 25 -180 53q-26 9 -41 14l-25 -77q97 -7 246 -62zM190 32q27 3 65 4q21 0 21 2q0 3 -4 9q-16 22 -16 65v87h67q28 0 64 -6q-7 33 -6 73v232
q0 53 4 80h-73q0 -8 2 -20q1 -12 1 -16h-59v196l75 -13q-14 -45 -37 -88l75 -18q11 37 39 125q15 47 23 72l-80 20q0 -20 -4 -47q-1 -7 -2 -11q-214 46 -285 70q-2 -21 -9 -59q-3 -22 -5 -33h4q42 1 150 -12v-202h-65q0 63 8 93h-80q6 -29 6 -81v-284q0 -48 -4 -77
q30 6 66 6h69v-109q0 -41 -10 -58zM131 262v217h69v-217h-69zM256 262v217h61v-217h-61z" />
</svg>
