<?xml version="1.0" standalone="no"?>
<!DOCTYPE svg PUBLIC "-//W3C//DTD SVG 1.1//EN" "http://www.w3.org/Graphics/SVG/1.1/DTD/svg11.dtd" >
<svg xmlns="http://www.w3.org/2000/svg" xmlns:xlink="http://www.w3.org/1999/xlink" version="1.1" viewBox="-10 0 1034 1024">
  <g transform="matrix(1 0 0 -1 0 820)">
   <path fill="currentColor"
d="M47 9q6 -18 18 -37q3 -6 7 -15q36 16 97 32q27 9 130 34q24 4 45 11q15 6 31 10q15 -42 26 -90q25 21 45 26q-37 96 -92 212q-15 -9 -41 -21q33 -63 45 -92l-97 -21v193h73q6 0 30 -3q15 -1 33 -4q-4 45 -5 59l1 241l4 41q-31 -1 -63 -5h-73v143q0 16 2 35q1 15 12 34
h-58l5 -107v-105h-65q-9 0 -38 3q-16 0 -34 2q1 -30 5 -61l-1 -237q-3 -12 -4 -43q28 3 33 4q24 3 31 3h73v-203q-81 -27 -180 -32q1 -3 5 -7zM128 288v255h94v-255h-94zM261 288v255h93v-255h-93zM529 -35q0 -57 31 -80q16 -10 65 -14l103 -2q39 0 70 3q60 9 81 29
q13 12 23 31q7 16 24 67q-21 15 -46 40q-3 -45 -10 -66q-18 -48 -57 -57q-36 -6 -90 -6q-33 1 -66 1q-24 0 -46 3q-43 7 -44 51v241h219l-6 -93q-6 -19 -16 -26q-12 -7 -46 -8q-30 0 -54 7q15 -30 21 -57q13 0 29 3q66 7 86 28q18 19 23 91q1 52 7 84q69 -51 119 -76
q19 24 40 47q-63 21 -86 33q-28 15 -60 42q-45 37 -82 103l172 -3q3 0 11 -3v49q-1 0 -62 -6q-3 1 -4 0h-233q13 30 32 101l165 1q30 -1 46 -3q12 0 20 -4v49q-6 0 -12 -3l-108 -3h-106q4 57 7 101l4 92q0 12 4 20q3 10 11 20h-14q-21 0 -49 5q3 -39 4 -86l-1 -67l-7 -85
q-154 0 -176 2q-7 3 -18 4v-49q24 6 48 6h141q-12 -52 -34 -101l-169 3q-6 3 -13 3v-49q24 6 61 6h105q-42 -69 -97 -129q-57 -55 -105 -74q36 -21 51 -39q40 37 90 91q3 -39 4 -51v-217zM715 384q37 -66 98 -135q-54 -6 -75 -6l-155 1q-6 1 -44 5q28 33 50 61q19 30 44 74
h82zM517 705q-16 19 -39 43q-24 -27 -33 -32q66 -60 106 -128l36 36q-12 13 -20 21q-30 37 -50 60zM789 597q4 7 52 62q27 34 38 42q12 9 31 10q-30 19 -54 43q-31 -48 -57 -80q-24 -30 -52 -58q18 -13 34 -28q3 4 8 9v0z" />
  </g>

</svg>
