<?xml version="1.0" standalone="no"?>
<!DOCTYPE svg PUBLIC "-//W3C//DTD SVG 1.1//EN" "http://www.w3.org/Graphics/SVG/1.1/DTD/svg11.dtd" >
<svg xmlns="http://www.w3.org/2000/svg" xmlns:xlink="http://www.w3.org/1999/xlink" version="1.1" viewBox="-10 0 1010 1000">
   <path fill="currentColor"
d="M440 44q66 9 149 10h177q60 0 131 -8q-8 26 -8 93v205q0 46 1 65q1 23 3 38q-24 -8 -81 -8h-112v69h115q70 0 129 -8v80q-3 0 -9 -1q-40 -7 -116 -7h-65q57 157 214 214q-39 27 -71 83q-152 -116 -197 -287v190q0 95 4 155l-83 -2q11 -54 10 -147v-188q-84 168 -230 285
q-47 -50 -86 -65q159 -66 258 -238h-35q-53 0 -78 2q-24 1 -49 6v-80q21 5 44 6q23 2 79 2h97v-71h-91q-53 -1 -98 8q6 -60 6 -113v-167q0 -58 -8 -121zM631 117h-107v98h107v-98zM813 117h-113v98h113v-98zM700 274v101h113v-101h-113zM524 274v99h107v-99h-107zM194 -19
q7 1 20 2q75 6 74 13q1 4 -4 12q-16 28 -16 72v65h75q36 -1 60 -4q-5 20 -4 64v238q-1 63 4 87h-72q0 -6 1 -17q1 -14 1 -23h-65v177l85 -14q-8 -34 -32 -85l64 -26q9 24 28 72q28 71 41 105l-73 39q-2 -7 -5 -21q-3 -16 -5 -24q-298 57 -302 65q-7 -45 -19 -89
q30 1 152 -14v-185h-57q0 36 2 66h-76q4 -35 4 -69v-270q0 -40 -4 -76q30 6 62 6h69v-65q0 -50 -8 -101zM145 215v208h57v-208h-57zM331 215h-63v208h63v-208z" />
</svg>
