<?xml version="1.0" standalone="no"?>
<!DOCTYPE svg PUBLIC "-//W3C//DTD SVG 1.1//EN" "http://www.w3.org/Graphics/SVG/1.1/DTD/svg11.dtd" >
<svg xmlns="http://www.w3.org/2000/svg" xmlns:xlink="http://www.w3.org/1999/xlink" version="1.1" viewBox="-10 0 1034 1024">
  <g transform="matrix(1 0 0 -1 0 820)">
   <path fill="currentColor"
d="M397 -15q4 -12 7 -16q18 12 38 23l-46 86l-43 80q-16 -9 -38 -17q21 -27 44 -77q-99 -27 -108 -29v196q75 0 90 -2q15 0 37 -3q-4 24 -5 62l1 238l4 47q-31 -1 -63 -5h-64l1 144q0 12 13 39h-57l4 -35l1 -148q-63 0 -88 2l-35 3q1 -31 5 -65l-1 -233l-4 -49q51 4 84 5h39
v-204q-64 -18 -160 -30q3 -7 8 -16q10 -24 14 -36q78 28 89 31l213 55zM132 267v265h81v-265h-81zM251 267v265h84v-265h-84zM451 428q1 -30 5 -63l-1 -243q-3 -12 -4 -45q30 3 63 5l134 1v-131q0 -54 34 -70q25 -12 116 -13q51 0 72 3q42 6 63 33q24 31 35 94
q-28 12 -47 26q0 -39 -3 -56q-6 -36 -34 -50q-21 -10 -101 -11q-49 0 -63 3q-33 6 -34 40v132l148 -1q18 0 54 -5q-3 30 -5 62l1 243l4 46q-33 -1 -66 -5h-136v74l119 -1q7 0 48 -5q-4 52 -5 105l5 122q-31 -1 -64 -5l-258 1q-19 3 -50 4q6 -63 6 -90q0 -72 -2 -97
q-1 -1 -2 -17q0 -6 -2 -23q42 6 88 6h79v-74q-135 0 -161 2q-6 3 -36 3zM648 118h-155v120h155v-120zM493 274v113h155v-113h-155zM524 532v145h286v-145h-286zM686 118v120h159v-120h-159zM686 274v113h159v-113h-159z" />
  </g>

</svg>
