<?xml version="1.0" standalone="no"?>
<!DOCTYPE svg PUBLIC "-//W3C//DTD SVG 1.1//EN" "http://www.w3.org/Graphics/SVG/1.1/DTD/svg11.dtd" >
<svg xmlns="http://www.w3.org/2000/svg" xmlns:xlink="http://www.w3.org/1999/xlink" version="1.1" viewBox="-10 0 1034 1024">
  <g transform="matrix(1 0 0 -1 0 820)">
   <path fill="currentColor"
d="M383 158q-6 13 -13 29q-21 -15 -37 -22q22 -39 48 -91q-87 -21 -94 -26q-9 -1 -15 -5v207q87 0 101 -2q9 0 41 -4l-7 62l1 219l6 51q-66 -6 -98 -6h-44v133q0 15 2 33q1 15 13 32h-58l4 -35l1 -163q-78 0 -101 2q-7 3 -32 4h-4q1 -33 5 -66l-1 -221q-3 -12 -4 -45
q36 6 87 6h50v-218q-133 -36 -181 -40q12 -25 24 -53q28 12 95 33q7 4 134 41q51 15 92 30q16 -34 37 -91q22 15 40 22q-21 48 -63 132zM139 285v250h95v-250h-95zM272 285v250h98v-250h-98zM671 107l-198 1q-18 3 -20 3q-3 0 -7 2v-47q3 3 50 5h175l-5 -238q-1 -1 -1 -3h50
q-3 9 -4 32q-1 24 -2 209l256 -3q4 0 10 -2v47q-3 0 -4 -1q-30 -1 -61 -5h-201v113q141 0 154 -2q21 0 45 -3q-3 34 -5 70l1 268l4 52q-36 -1 -71 -5h-74l48 73q18 24 31 43q18 22 48 40q-13 6 -41 22q-9 7 -16 11q-40 -87 -118 -189l-183 1q-19 3 -51 4q6 -60 6 -73
l-1 -267q-1 -4 -5 -50q60 4 88 5h102v-113zM524 432v132h147v-132h-147zM524 256v140h147v-140h-147zM865 256h-156v140h156v-140zM709 432v132h156v-132h-156zM495 748q54 -48 74 -69q24 -27 53 -63q12 15 30 30l-63 69l-62 62q-12 -15 -32 -29v0z" />
  </g>

</svg>
