<?xml version="1.0" standalone="no"?>
<!DOCTYPE svg PUBLIC "-//W3C//DTD SVG 1.1//EN" "http://www.w3.org/Graphics/SVG/1.1/DTD/svg11.dtd" >
<svg xmlns="http://www.w3.org/2000/svg" xmlns:xlink="http://www.w3.org/1999/xlink" version="1.1" viewBox="-10 0 1010 1000">
   <path fill="currentColor"
d="M611 -12q92 18 101 26q1 2 -3 6q-5 6 -5 12q87 175 276 224q-40 32 -63 84q-39 -19 -135 -90v58q-24 -5 -84 -4h-95h-47q-18 1 -32 2v-36q-19 27 -72 80q-24 -32 -63 -60q161 -122 222 -302zM657 84q-56 88 -111 156q9 0 28 1q25 1 39 1h81q43 -1 76 -4
q-46 -49 -113 -154zM833 352q8 1 24 2q73 4 68 8q0 5 -4 13q-10 24 -10 64v395q12 69 -139 75q2 -47 -32 -91q62 13 80 7q20 -4 19 -35v-341q0 -66 -6 -97zM433 362q5 0 16 1q43 2 75 2h61q30 0 76 -2q10 -1 14 -1q-4 32 -4 91v361q9 78 -109 91q0 -47 -34 -87q47 7 59 2
q14 -4 14 -28v-83h-95v75q0 64 5 113q1 3 1 4h-83q8 -34 8 -117v-345q0 -48 -4 -77zM710 391q14 1 37 3q51 2 49 7q1 3 -4 11q-14 25 -14 51v192q0 63 4 95h-72q6 -53 6 -99v-125q0 -109 -6 -135zM506 429v75h95v-75h-95zM506 568v77h95v-77h-95zM183 14q8 0 25 1q71 2 70 9
q1 4 -5 13q-17 26 -17 61v101h67q36 0 68 -6q-5 20 -4 63v244q-1 66 4 90h-72q0 -6 1 -17q1 -14 1 -23h-65v181l75 -10q-13 -47 -29 -92l73 -14q12 38 31 102q19 59 25 81l-72 28q-6 -28 -12 -52q-238 47 -279 66q-6 3 -10 4q-5 -37 -20 -92q29 1 152 -14v-188h-59
q-2 39 4 67h-75q3 -27 3 -89v-258q0 -42 -3 -77q28 6 61 6h69v-93q0 -47 -7 -92zM131 266v217h59v-217h-59zM319 266h-63v217h63v-217z" />
</svg>
