<?xml version="1.0" standalone="no"?>
<!DOCTYPE svg PUBLIC "-//W3C//DTD SVG 1.1//EN" "http://www.w3.org/Graphics/SVG/1.1/DTD/svg11.dtd" >
<svg xmlns="http://www.w3.org/2000/svg" xmlns:xlink="http://www.w3.org/1999/xlink" version="1.1" viewBox="-10 0 1010 1000">
   <path fill="currentColor"
d="M758 -2q81 29 87 40q-1 5 -8 12q-33 29 -67 107h97q49 0 85 -8v72q-25 -5 -89 -4h-123q-37 56 -52 85q27 6 66 6h101q54 0 89 -6v85q-81 37 -117 88v55h42q48 0 89 -6v76q-32 -6 -89 -6h-40v232q8 57 -133 73q-4 -46 -43 -99q109 32 105 -34v-172h-30q-50 -1 -65 4v-72
q32 5 51 4h46v-75q39 -39 81 -84h-87q-41 0 -75 6v-59q1 -4 -8 8q-34 -21 -72 -28q29 -21 48 -54q-25 -4 -58 -4h-71q0 41 -6 120h71q39 -1 68 -4q-6 84 -13 223q-6 123 -11 187q3 88 -133 101q-1 -50 -34 -95q96 35 100 -39q10 -136 19 -314h-69q0 322 -135 480
q-35 -32 -89 -36q102 -86 129 -197q28 -77 41 -428h-16q-30 0 -47 4v-65q46 4 81 4h111q20 0 66 -4h6v54q63 -111 101 -233zM528 10q34 69 53 131l-73 26q-22 -76 -58 -133zM177 14q11 1 35 1q61 1 60 7q1 4 -5 13q-17 25 -17 57v93h75q36 -1 60 -4q-6 36 -6 67v211
q0 50 6 95h-72q0 -4 1 -15q1 -14 1 -23h-65v163l60 -8q-5 -20 -18 -63l59 -18q21 53 38 137l-64 23q0 -3 -1 -7q-3 -15 -5 -24q-183 45 -267 75l-20 -87q8 0 34 -4q56 -7 119 -14v-173h-64q-3 25 4 64h-71q4 -35 4 -84v-242q0 -37 -4 -73q28 6 61 6h70v-87q0 -41 -7 -76
q-1 -8 -1 -10zM121 254v201h64v-201h-64zM315 254h-65v201h65v-201z" />
</svg>
