<?xml version="1.0" standalone="no"?>
<!DOCTYPE svg PUBLIC "-//W3C//DTD SVG 1.1//EN" "http://www.w3.org/Graphics/SVG/1.1/DTD/svg11.dtd" >
<svg xmlns="http://www.w3.org/2000/svg" xmlns:xlink="http://www.w3.org/1999/xlink" version="1.1" viewBox="-10 0 1034 1024">
  <g transform="matrix(1 0 0 -1 0 820)">
   <path fill="currentColor"
d="M316 343q0 -33 -61 -34q-19 0 -38 5q9 -25 16 -50q15 0 32 4q24 3 38 7q21 7 34 19q15 12 16 49v181h112q-15 -36 -29 -58q-10 -18 -28 -39q25 -6 46 -14q1 4 18 37l55 114q-28 -1 -57 -5h-112q4 7 9 13q-12 7 -22 15q130 97 189 145q-33 -1 -65 -5q-315 0 -334 3
q-3 0 -9 2v-45q31 4 64 5h236l-50 -40q-24 -18 -64 -45q-55 34 -88 54q-7 -13 -21 -32l24 -13q42 -24 50 -30q15 -10 36 -27q-213 0 -227 3l-13 2v-45q19 4 47 5h159q-57 -81 -130 -137q-48 -31 -82 -39q22 -15 30 -24q6 -6 12 -14q63 45 112 92q43 42 95 109v-168z
M142 -117q6 1 88 10q240 15 262 16l343 22l35 -35q12 -13 29 -34q13 18 30 34l-117 105l-50 43q-12 -15 -29 -26q30 -24 65 -55l-152 -11l-113 -5v98l251 -1l32 -4q4 0 8 -1q-3 12 -3 33q-1 19 -3 40q0 70 2 79q0 18 4 42q-30 -1 -60 -5h-231q0 51 3 61q1 15 10 26h-57
q1 -12 6 -47q-1 -9 0 -18v-22l-250 1q-15 3 -39 4l5 -101l-5 -93q60 6 62 6h227v-101l-131 -7l-197 -6q-21 0 -62 4q12 -27 24 -55q6 1 13 3zM248 79v114h247v-114h-247zM533 79v114h248v-114h-248zM805 612q-10 -109 -65 -183q-30 33 -54 70q-21 36 -23 67q-6 -3 -15 -7
q-15 -6 -32 -9q36 -73 102 -152q-102 -88 -174 -88q30 -27 43 -44q7 6 17 10q24 15 48 29q21 12 39 27q30 19 58 44q30 -21 73 -45q46 -24 109 -51l33 49q-40 1 -80 16q-61 22 -114 60q27 46 43 87q16 48 32 120l68 -1q10 0 36 -4v45l-63 -5h-224q21 55 32 74q9 18 29 33
q-21 4 -58 19q-7 -39 -23 -75q-15 -42 -32 -73q-3 -10 -28 -50q-30 -45 -60 -65q28 -9 50 -22q15 21 29 47q16 27 43 77h161z" />
  </g>

</svg>
