<?xml version="1.0" standalone="no"?>
<!DOCTYPE svg PUBLIC "-//W3C//DTD SVG 1.1//EN" "http://www.w3.org/Graphics/SVG/1.1/DTD/svg11.dtd" >
<svg xmlns="http://www.w3.org/2000/svg" xmlns:xlink="http://www.w3.org/1999/xlink" version="1.1" viewBox="-10 0 1010 1000">
   <path fill="currentColor"
d="M758 -4q62 17 93 36q0 3 -9 7q-19 9 -29 25q-34 54 -55 79h54q95 0 126 -8v76q-18 -9 -128 -8h-50v87h67q23 0 36 -1q29 -1 44 -5q-6 33 -6 145v286q0 142 8 170h-82q8 -13 8 -57h-327q0 59 6 71h-76q4 -10 5 -42q1 -16 1 -41v-76v-267q0 -111 -1 -138q0 -38 -3 -53
q27 6 141 6v-85q-125 -1 -154 8v-76q14 5 48 6q33 2 110 2h103q40 -62 70 -147zM202 2q81 -2 88 8q0 2 -5 8q-19 24 -19 58v95q119 0 135 -6q-6 36 -6 163v59q1 105 10 155h-82q1 -3 2 -9q4 -14 4 -25h-63v199q14 -2 41 -6q26 -4 40 -6q-11 -36 -30 -74l60 -15
q48 136 54 172l-62 26q-2 -34 -8 -52q-234 44 -296 63l-3 1q-1 -20 -24 -89h2q36 6 166 -12v-207h-65q0 35 6 72q2 8 2 12h-80q10 -56 10 -183v-79q0 -123 -8 -165q38 8 135 8v-107q1 -56 -4 -64zM573 2q53 79 66 108l-74 25q-13 -50 -63 -105zM639 203v85h61v-85h-61z
M143 237v208h63v-208h-63zM266 235v210h65v-210h-65zM508 352v271h329v-75q-96 -1 -114 -8q-24 -6 -23 -32v-156h-61q-3 146 -60 232q-32 -27 -59 -38q50 -27 61 -194h-73zM760 354v103q-2 22 11 25q11 5 66 5v-133h-77zM508 685v85h327v-85h-327z" />
</svg>
