<?xml version="1.0" standalone="no"?>
<!DOCTYPE svg PUBLIC "-//W3C//DTD SVG 1.1//EN" "http://www.w3.org/Graphics/SVG/1.1/DTD/svg11.dtd" >
<svg xmlns="http://www.w3.org/2000/svg" xmlns:xlink="http://www.w3.org/1999/xlink" version="1.1" viewBox="-10 0 1010 1000">
   <path fill="currentColor"
d="M617 -6q3 -4 51 5q52 9 50 13q1 4 -4 9q-22 21 -41 91h117q123 1 143 -8v81q-20 -8 -129 -8h-44q71 115 202 133q-37 45 -55 81q-140 -63 -211 -214h-49q-66 126 -193 214q-11 -28 -47 -43v63q0 112 6 145h-80q6 -12 6 -30h-67v179q13 -2 57 -12q13 -2 20 -4
q-10 -29 -39 -70l65 -29q40 74 85 174l-79 28q-3 -30 -12 -50q-249 60 -304 82q-9 -47 -29 -91q1 -1 10 -1q58 -2 162 -15v-191h-61q-1 61 4 70h-82q5 -18 6 -56q2 -38 2 -121v-97q0 -122 -6 -155q18 4 45 5q13 1 33 1h57q0 -145 -6 -163q90 -1 88 8q0 3 -4 10
q-12 19 -12 44v101q110 0 143 -8q-11 43 -8 169q122 -60 170 -157q-124 0 -146 8v-79q11 4 39 6q25 1 90 1h41q22 -68 16 -119zM339 237h-67v226h67v-226zM208 237h-63v226h63v-226zM633 268q75 1 87 10q1 1 -3 6q-15 18 -15 42v37q105 0 125 -9v79q-19 -8 -125 -8v81h66
q100 0 129 -6v74q-10 -4 -36 -5q-12 -1 -31 -1h-54h-203q-100 0 -131 6v-76q39 8 131 8h62v-79q-93 0 -131 6v-75q34 7 131 7v-49q0 -32 -2 -48zM635 580q88 3 87 10q0 2 -3 6q-12 17 -11 57q117 0 147 -10v76q-63 -8 -147 -6v97h62q127 1 153 -8v81q-30 -10 -149 -10h-203
q-121 0 -158 6v-79q23 3 106 7q31 2 48 3h72v-95q-131 0 -163 6v-76q18 6 53 8q34 2 110 2v-17q1 -42 -4 -58z" />
</svg>
