<?xml version="1.0" standalone="no"?>
<!DOCTYPE svg PUBLIC "-//W3C//DTD SVG 1.1//EN" "http://www.w3.org/Graphics/SVG/1.1/DTD/svg11.dtd" >
<svg xmlns="http://www.w3.org/2000/svg" xmlns:xlink="http://www.w3.org/1999/xlink" version="1.1" viewBox="-10 0 1034 1024">
  <g transform="matrix(1 0 0 -1 0 820)">
   <path fill="currentColor"
d="M213 36q-64 -18 -103 -27q-18 -4 -51 -11q3 -7 7 -14l6 -12q3 -10 13 -33q12 6 21 12q27 13 108 46q33 10 82 29q21 9 43 16q7 -30 12 -62q15 7 41 14q-10 48 -22 87q-12 36 -31 82q-7 -1 -13 -5l-14 -6q-6 -1 -13 -4q12 -22 30 -70q-37 -15 -77 -29v180q75 0 88 -2
l37 -4q-3 33 -5 65l1 245l4 51q-60 -6 -91 -6h-34l1 131q0 21 13 48h-59q6 -36 6 -65v-114q-60 0 -81 2l-35 4q1 -33 5 -67l-1 -248q-3 -12 -4 -46q15 1 30 3q21 3 70 3h16v-193zM213 265h-75v276h75v-276zM252 265v276h81v-276h-81zM404 500q46 4 96 5h10v-175q-42 3 -84 5
q-3 1 -5 1q1 -30 5 -62l-1 -278l-4 -47h46q-4 24 -5 54v30h129q0 -24 -4 -48h49q-6 30 -6 57l1 249q1 22 5 45q-15 -1 -30 -3q-19 -3 -57 -3v175l97 -3q6 0 10 -2v47q-10 -1 -59 -6h-48v147q0 36 13 69h-58q3 -9 3 -18q1 -27 3 -39v-159h-48q-30 0 -58 6v-47zM462 69v223
h129v-223h-129zM884 190v-239q0 -31 -12 -43q-12 -9 -44 -10q-27 0 -62 5q13 -30 20 -52q60 4 84 11q51 13 51 76l1 742l4 46q-15 -1 -29 -3q-21 -3 -66 -3q-72 0 -97 2q-3 1 -14 2q-7 0 -20 2q6 -63 6 -89l-1 -405q-1 -4 -1 -10q-3 -39 -5 -78q-1 -13 -5 -32
q-18 -129 -84 -206q-24 -27 -56 -48q39 -12 58 -23q57 63 95 161q12 42 21 82q6 45 11 112h145zM743 474v210h141v-210h-141zM742 225l1 214h141v-214h-142z" />
  </g>

</svg>
