<?xml version="1.0" standalone="no"?>
<!DOCTYPE svg PUBLIC "-//W3C//DTD SVG 1.1//EN" "http://www.w3.org/Graphics/SVG/1.1/DTD/svg11.dtd" >
<svg xmlns="http://www.w3.org/2000/svg" xmlns:xlink="http://www.w3.org/1999/xlink" version="1.1" viewBox="-10 0 1010 1000">
   <path fill="currentColor"
d="M619 -8q6 1 17 4q64 13 72 20q0 5 -9 11q-11 7 -11 15q0 5 -1 17q-1 41 -4 66h83q86 0 141 -10v76q-52 -6 -139 -6h-91q-3 39 -10 63h67q52 0 116 -6q16 -2 23 -2v74q-42 -6 -137 -6h-83l-3 12q-8 37 -17 49h145q113 0 151 -6v74q-3 0 -12 -1q-82 -7 -149 -7
q71 87 194 115q-29 34 -51 77q-45 -16 -92 -51v212q0 90 8 129h-85q6 -29 6 -57h-204q-2 13 3 44q2 9 3 15h-86q9 -48 8 -129v-210q-25 28 -53 47q-18 -41 -62 -57q90 -39 165 -135q-47 0 -113 8v-75q18 1 46 3q46 4 77 4h24q14 -25 25 -61h-21q-65 0 -122 6v-74q53 8 118 8
h41q10 -36 12 -63h-83h-17q-58 -1 -90 6v-74q7 1 21 2q45 6 86 6h87zM187 -2q49 1 87 16q0 2 -4 7q-16 19 -16 53v117h22q60 0 111 -8q-9 37 -8 117v113q0 53 8 127h-75q3 -8 3 -26h-61v177l61 -18q-5 -11 -12 -27q-10 -24 -19 -34l63 -28q36 56 86 174l-76 40
q-4 -30 -18 -65q-177 43 -270 79q-6 -30 -35 -79q63 1 156 -30v-189h-57q0 24 4 60h-74q8 -47 8 -131v-127q0 -16 -4 -73q-3 -36 -4 -58q42 6 116 6h11v-113q0 -32 -3 -80zM190 254h-55v197h55v-197zM315 254h-61v197h61v-197zM704 429h-103q-40 59 -73 87q18 4 41 5
q19 1 66 1q87 0 129 -8q-5 -7 -15 -20q-34 -41 -45 -65zM748 586h-204v67h204v-67zM748 717h-204v73h204v-73z" />
</svg>
