<?xml version="1.0" standalone="no"?>
<!DOCTYPE svg PUBLIC "-//W3C//DTD SVG 1.1//EN" "http://www.w3.org/Graphics/SVG/1.1/DTD/svg11.dtd" >
<svg xmlns="http://www.w3.org/2000/svg" xmlns:xlink="http://www.w3.org/1999/xlink" version="1.1" viewBox="-10 0 1010 1000">
   <path fill="currentColor"
d="M605 0q6 1 18 2q84 11 81 18q0 3 -6 10q-25 29 -39 82h145q46 0 91 -6q-4 28 -4 81v286q0 48 4 73q-26 -4 -85 -4h-239q-55 0 -97 4q6 -28 6 -83v-290q0 -33 -4 -65q40 5 60 4h51q14 -58 18 -112zM813 175h-257v65h257v-65zM558 296v58h255v-58h-255zM558 409v70h255v-70
h-255zM712 560q28 55 60 135l-74 26q-22 -79 -57 -139zM877 604q43 73 97 180l-79 36q-26 -84 -85 -187zM554 610q17 3 53 6q32 2 32 5t-3 8q-9 18 -9 42v107q-1 32 13 39q10 8 62 7q54 1 68 -18q14 -12 16 -81q35 35 79 51q-25 84 -48 99q-23 21 -99 20q-107 1 -133 -12
q-29 -11 -27 -57v-141q0 -51 -4 -75zM460 621q31 9 82 18q-5 16 -15 50q-30 102 -47 167q-46 -17 -75 -20q47 -101 55 -215zM204 -13q96 -1 96 9q1 4 -5 13q-17 26 -17 61v101h61q36 0 74 -6q-5 20 -4 64v244q-1 65 4 89h-72q0 -6 1 -17q1 -14 1 -23h-65v181l63 -10
q-12 -53 -22 -87l76 -18q18 73 36 174l-72 20l-6 -36q-223 50 -274 70q-4 -31 -19 -91q30 1 152 -14v-189h-57q-3 32 2 68h-76q4 -39 4 -90v-258q0 -41 -4 -77q30 6 62 6h69v-93q0 -42 -8 -91zM153 238v217h59v-217h-59zM341 238h-63v217h63v-217z" />
</svg>
