<?xml version="1.0" standalone="no"?>
<!DOCTYPE svg PUBLIC "-//W3C//DTD SVG 1.1//EN" "http://www.w3.org/Graphics/SVG/1.1/DTD/svg11.dtd" >
<svg xmlns="http://www.w3.org/2000/svg" xmlns:xlink="http://www.w3.org/1999/xlink" version="1.1" viewBox="-10 0 1010 1000">
   <path fill="currentColor"
d="M708 375q16 52 28 102h99q57 0 113 -6v75q-56 -6 -113 -6h-188q-1 1 -6 48q-1 15 -2 20h151q43 0 91 -4l-9 57q-12 86 -21 135q-2 82 -164 93q-9 -58 -40 -107q98 34 127 -16q7 -37 11 -89q1 -4 1 -6h-155q-55 146 -198 236q-38 -40 -82 -55q225 -92 220 -314h-47
q-40 0 -84 5q-3 1 -5 1v-75q29 6 89 6h131q-6 -40 -34 -84zM696 -8q5 13 17 55q7 24 11 37h105q60 0 121 -6v85q-27 -8 -123 -8h-287q-75 0 -123 8v-85q28 4 50 5q24 1 69 1h117q-10 -31 -36 -82zM768 171q9 3 26 8q58 17 55 20q-1 5 -8 11q-10 9 -16 19q-5 8 -16 31
q-10 20 -15 28h35q71 0 108 -8v4q-4 39 -4 64q0 32 4 67h-82q8 -31 8 -67h-361q0 38 1 50q0 16 3 27h-77q0 -7 2 -25q2 -29 2 -46q0 -32 -4 -73q0 2 0 -3q24 9 85 10h59q-22 -65 -37 -91l75 -18q9 33 32 109h87q18 -44 38 -117zM194 -6q89 -2 102 10q1 4 -6 13
q-18 25 -18 59v99h61q37 0 82 -6q-5 20 -4 64v238q-1 63 4 87h-76q0 -6 1 -17q1 -14 1 -23h-69v177l91 -14q-16 -48 -34 -85l70 -14q24 68 59 155l-69 31q-5 -13 -8 -28q-319 58 -319 66q-7 -48 -22 -89q32 1 162 -14v-185h-63q3 42 8 66h-84q4 -35 4 -70v-270q0 -28 -4 -75
q30 6 66 6h73v-91q0 -40 -8 -90zM141 242v209h61v-209h-61zM339 242h-67v209h67v-209z" />
</svg>
