<?xml version="1.0" standalone="no"?>
<!DOCTYPE svg PUBLIC "-//W3C//DTD SVG 1.1//EN" "http://www.w3.org/Graphics/SVG/1.1/DTD/svg11.dtd" >
<svg xmlns="http://www.w3.org/2000/svg" xmlns:xlink="http://www.w3.org/1999/xlink" version="1.1" viewBox="-10 0 1034 1024">
  <g transform="matrix(1 0 0 -1 0 820)">
   <path fill="currentColor"
d="M278 88q-15 -3 -22 -8v192q76 0 90 -2q12 0 38 -3q-3 33 -5 65l1 225l4 46q-99 -4 -102 -5h-26v137q0 18 2 34q1 13 11 32h-54q1 -33 5 -66v-137l-113 5q1 -30 5 -62l-1 -228q-3 -12 -4 -46q51 4 84 5h29v-202q-19 -7 -35 -11q-15 -4 -43 -10q-24 -6 -37 -9
q-12 -3 -32 -5q12 -24 24 -55l56 24q10 3 110 39l96 31q12 -25 24 -66q16 12 37 22q-10 30 -25 63l-52 107q-18 -12 -35 -19q16 -28 36 -73q-7 -3 -12 -4q-3 0 -54 -16zM147 308v254h73v-254h-73zM256 308v254h87v-254h-87zM446 11q0 -12 -4 -27q-3 -15 -13 -29
q15 -16 31 -40q18 25 56 61q21 19 44 41l59 50q12 -21 32 -64q18 15 35 32l-93 155q-13 -10 -34 -20q21 -33 42 -70q-103 -85 -110 -95q-4 -3 -9 -8v246l143 -1l43 -4q-4 24 -5 63l1 299l4 46q-55 -4 -85 -5q-78 0 -105 2q-6 3 -37 3q1 -31 5 -65v-570zM482 279v150h146
v-150h-146zM482 465v140h146v-140h-146zM478 766q19 -18 49 -48q30 -33 48 -58q12 15 29 31l-33 38l-65 66q-12 -16 -28 -29zM730 721q1 -37 5 -77l-3 -769q-1 -3 -2 -8h46q-4 49 -5 67v746h110q-21 -133 -76 -317q37 -45 68 -98q36 -66 37 -132q0 -55 -32 -73
q-19 -9 -46 -10q-19 0 -42 6q13 -25 25 -57q51 6 81 23q52 30 53 106q0 67 -33 134q-22 45 -67 110l87 349q-28 -1 -57 -5q-90 0 -113 2q-6 3 -36 3v0z" />
  </g>

</svg>
