<?xml version="1.0" standalone="no"?>
<!DOCTYPE svg PUBLIC "-//W3C//DTD SVG 1.1//EN" "http://www.w3.org/Graphics/SVG/1.1/DTD/svg11.dtd" >
<svg xmlns="http://www.w3.org/2000/svg" xmlns:xlink="http://www.w3.org/1999/xlink" version="1.1" viewBox="-10 0 1034 1024">
  <g transform="matrix(1 0 0 -1 0 820)">
   <path fill="currentColor"
d="M496 668q411 0 433 -3q3 0 9 -3v48q-6 -3 -12 -4l-98 -2l-334 1q-3 0 -42 5q6 -63 6 -83v-264q0 -139 -25 -245q-19 -78 -60 -150q-30 -48 -66 -77q19 -4 32 -11q9 -3 23 -12q6 13 11 20q24 39 34 60q9 15 19 38q46 99 58 201q6 43 9 92q3 46 3 88v301zM625 545l-62 6
q1 -33 5 -66l-1 -248q-3 -12 -4 -41q49 4 74 5h79v-246q0 -37 -16 -46q-24 -9 -54 -9q-13 0 -37 2q12 -24 17 -39q1 -4 3 -10q82 6 106 31q18 18 19 51v266q97 0 112 -2q15 0 32 -3q-3 30 -5 59l1 251l4 45q-30 -6 -56 -6h-125q21 55 30 68q6 12 24 30q-30 7 -59 21
q-3 -42 -31 -119h-56zM605 237v123h250v-123h-250zM605 396v114h250v-114h-250zM607 72l10 15q12 24 43 50q-30 7 -60 21q-15 -49 -56 -121q-46 -75 -83 -97q21 -9 49 -28q36 52 68 107q13 27 29 53zM921 47l-65 107q-22 -15 -38 -23q27 -39 47 -71q55 -93 76 -147
q27 18 41 25zM279 31q13 3 23 7q10 1 29 7q0 -4 3 -11q6 -21 7 -37q37 10 44 11l-50 173q-1 0 -5 -2q-4 -3 -12 -4q-22 -3 -25 -5q13 -36 28 -87q-36 -12 -81 -23v190l95 -1q21 -1 42 -5q-3 31 -5 63l1 210q0 16 4 45q-30 -1 -59 -5h-78v133q0 16 3 32q3 19 12 33h-58
q1 -31 5 -65v-133q-67 0 -90 2q-6 3 -36 3l6 -62v-193q0 1 -4 -32q0 -16 -2 -31q60 6 93 6h33v-202q-115 -33 -158 -33q9 -15 17 -37q3 -9 6 -16q18 9 28 13q24 7 77 26zM118 285v236h84v-236h-84zM240 285v236h94v-236h-94z" />
  </g>

</svg>
