<?xml version="1.0" standalone="no"?>
<!DOCTYPE svg PUBLIC "-//W3C//DTD SVG 1.1//EN" "http://www.w3.org/Graphics/SVG/1.1/DTD/svg11.dtd" >
<svg xmlns="http://www.w3.org/2000/svg" xmlns:xlink="http://www.w3.org/1999/xlink" version="1.1" viewBox="-10 0 1010 1000">
   <path fill="currentColor"
d="M609 -4q19 2 53 5q46 3 46 7q0 3 -3 8q-19 31 -24 107h73q114 0 143 -8v78q-29 -10 -147 -10h-75q0 21 -6 55h59q109 0 135 -7v71q-34 -8 -137 -8h-67q-1 3 -5 13q-9 26 -17 45h127q141 0 167 -8v77q-31 -12 -167 -12q74 95 202 125q-44 40 -63 72q-138 -77 -193 -195
h-101q-33 60 -71 95q87 3 194 -27q7 10 21 28q26 33 23 37q-3 2 -13 1q-31 -2 -75 5v65h64q102 0 127 -7v79q-20 -8 -119 -8h-72v85q-1 125 8 137h-85q11 -26 10 -137v-83q-87 136 -206 216q-34 -34 -68 -55q142 -57 207 -165q-87 -1 -121 8v-79q10 8 136 7h52v-53
q-24 -1 -65 8q-6 -26 -26 -54q-39 38 -113 98l-62 -52q115 -50 179 -151q-97 1 -127 10v-73q24 8 155 8q17 -35 21 -58q-103 0 -143 6v-69q23 7 157 7q5 -13 8 -57h-38q-119 0 -148 8v-76q30 8 144 8h46q3 -94 0 -127zM190 8q82 -3 90 6q1 3 -5 11q-15 25 -15 51v105
q98 -1 131 -10q-6 20 -6 149v73q0 67 2 96q1 30 6 45h-80q6 -14 6 -40h-59v205q24 -6 71 -8l-21 -64l61 -17q41 116 52 172l-74 18q0 -24 -6 -56q-263 43 -265 59q-10 4 -15 5q-5 -21 -35 -89h9q42 3 159 -14v-213h-57q0 48 6 72h-82q5 -17 6 -48q2 -31 2 -105v-87
q0 -122 -6 -149q22 6 131 6q0 -149 -6 -173zM754 699q99 57 171 109l-52 59q-111 -98 -163 -121zM317 244h-57v187h57v-187zM139 244v185h57v-185h-57z" />
</svg>
