<?xml version="1.0" standalone="no"?>
<!DOCTYPE svg PUBLIC "-//W3C//DTD SVG 1.1//EN" "http://www.w3.org/Graphics/SVG/1.1/DTD/svg11.dtd" >
<svg xmlns="http://www.w3.org/2000/svg" xmlns:xlink="http://www.w3.org/1999/xlink" version="1.1" viewBox="-10 0 1010 1000">
   <path fill="currentColor"
d="M188 -6q102 13 96 22q-24 39 -24 82v73h61q31 0 82 -8q-6 32 -6 64v242q0 43 6 79h-70v-32h-73v149l73 -12q-10 -34 -27 -67l55 -20q18 30 58 157q26 -81 33 -160q8 -88 8 -279q1 -118 -10 -188q29 4 84 4h119q-7 -22 -34 -73q-3 -5 -4 -7l83 -18q6 33 24 96h105
q63 0 100 -8v81q-63 -10 -110 -10h-95v72h99q20 0 66 -6q-6 20 -6 57v74q33 2 67 -4v67q-37 -6 -65 -6v73q0 40 6 58q-36 -6 -66 -6h-99v66h84q25 0 69 -8q-8 46 -8 63v141q0 39 8 77h-85q5 -23 6 -55h-191q-3 35 4 69h-83q9 -39 10 -87v-145q0 -35 -6 -63q28 7 67 8h62v-66
h-24q-30 0 -78 5q-5 1 -7 1v-65q22 4 87 4h22v-70h-137q0 349 -131 484q-35 -30 -85 -45q58 -41 101 -116l-54 14l-6 -47q-25 5 -72 14q-179 35 -227 55q-4 -37 -20 -91q53 2 166 -12v-155h-59q0 30 4 58h-79q6 -39 7 -95v-248q0 -18 -6 -66l66 6h67v-99q-1 -47 -8 -78z
M524 163v197h135v-72h-36q-53 0 -81 8v-71q38 7 79 8h38v-70h-135zM135 235v218h63v-218h-63zM262 235v218h69v-218h-69zM819 288h-97v72h97v-72zM821 415h-97v70h97v-70zM605 661v107h197v-107h-197z" />
</svg>
