<?xml version="1.0" standalone="no"?>
<!DOCTYPE svg PUBLIC "-//W3C//DTD SVG 1.1//EN" "http://www.w3.org/Graphics/SVG/1.1/DTD/svg11.dtd" >
<svg xmlns="http://www.w3.org/2000/svg" xmlns:xlink="http://www.w3.org/1999/xlink" version="1.1" viewBox="-10 0 1010 1000">
   <path fill="currentColor"
d="M188 -2q97 0 94 8q0 2 -2 6q-20 45 -20 159q81 0 135 -6q-2 15 -3 55q-1 20 -1 50v86q0 100 1 130q1 39 3 54h-72q0 -9 3 -33q1 -5 1 -7h-67v187l67 -14q-23 -58 -37 -85l59 -14q38 73 76 196l-68 20q-7 -46 -16 -61q-220 49 -274 77q-8 -43 -29 -91q64 -2 158 -18v-197
h-65q0 26 4 74h-73q5 -46 5 -133v-183q0 -53 -5 -93q34 6 134 6q0 -86 -8 -173zM738 2h21q62 -2 62 6q1 3 -2 17q-11 41 -11 85q92 0 136 -6v79q-53 -9 -136 -8q0 51 4 75h-72q4 -45 4 -75h-127q0 47 4 73h-71q4 -29 4 -73q-84 0 -131 6v-75q35 6 131 6q0 -72 -6 -110
q7 0 19 1q69 1 68 9q0 1 -2 5q-16 32 -16 95h127q0 -61 -1 -75q-1 -21 -5 -35zM131 235v202h65v-202h-65zM260 235v202h67v-202h-67zM435 274q3 0 10 1q78 7 111 7h273q6 -1 26 -1q55 -2 82 -7v80q-53 -8 -157 -8q0 21 -1 56q-1 23 -1 31q77 0 141 -8q-7 46 -6 115v284
q1 43 -22 56q-15 12 -107 23q-3 -46 -28 -87q101 19 93 -34v-286h-75q0 19 -5 69q-1 12 -1 17q15 14 43 50q19 24 30 37q-30 42 -41 64q-2 -6 -7 -18q-18 -50 -37 -78q-21 89 -71 173q-35 -26 -70 -38q100 -94 101 -276h-83q0 18 -12 78q34 35 69 67q-5 6 -15 16
q-23 23 -28 30q-10 -26 -38 -64q-20 75 -57 159q-22 -36 -42 -49q-6 -3 -6 -8q56 -89 69 -229h-75v284q-1 77 6 113h-73q4 -45 4 -180v-177q0 -27 -1 -47q-1 -23 -5 -62q53 6 148 6q0 -11 1 -35q1 -33 1 -52q-103 -1 -144 8v-80zM720 346h-83q0 19 -1 52q-1 24 -1 35h83
q0 -8 1 -31q1 -35 1 -56z" />
</svg>
