<?xml version="1.0" standalone="no"?>
<!DOCTYPE svg PUBLIC "-//W3C//DTD SVG 1.1//EN" "http://www.w3.org/Graphics/SVG/1.1/DTD/svg11.dtd" >
<svg xmlns="http://www.w3.org/2000/svg" xmlns:xlink="http://www.w3.org/1999/xlink" version="1.1" viewBox="-10 0 1034 1024">
  <g transform="matrix(1 0 0 -1 0 820)">
   <path fill="currentColor"
d="M975 624l-62 -5l-467 1q-9 1 -17 2q-3 0 -12 2v-47q12 6 52 6q474 0 497 -3q3 0 9 -3v47zM698 705l-52 45q-4 4 -15 13q-12 -15 -27 -28q4 -6 15 -13l61 -51l48 -49l28 31zM682 308q-4 -24 -11 -43q-6 -19 -18 -51l-160 1q-12 3 -42 4q1 -31 5 -65l-1 -288q-1 -16 -4 -31
h49q-3 7 -4 27q0 21 -2 38v279h145q-33 -84 -58 -130q-18 -27 -39 -37l22 -44q76 22 238 33q13 -22 26 -58q15 15 41 24l-78 128q-21 30 -34 54q-18 -12 -35 -22l27 -37q12 -21 34 -54l-171 -15q27 54 53 119q1 9 7 19l7 20h218v-252q0 -27 -16 -36q-15 -7 -43 -8
q-12 0 -37 3q6 -15 9 -24q3 -10 7 -27q33 4 50 8q12 1 25 6q42 15 43 72l1 251l4 47q-27 -1 -56 -5h-191l33 94l146 -1q15 0 43 -4q-4 49 -5 73l1 103q0 15 5 27q1 9 7 17h-56q4 -15 5 -64v-115h-358v112q0 12 3 31q1 15 11 33h-57q4 -12 5 -64l-1 -110q-3 -12 -4 -43
q49 4 102 5h109zM824 552q-9 7 -22 23q-13 -15 -56 -54l-25 -20q-3 -3 -8 -6l-66 37q-37 21 -65 39q-7 -12 -24 -32q31 -15 57 -30q19 -9 62 -37q-79 -51 -135 -64q22 -21 37 -36q106 63 134 81q12 -9 29 -19q48 -30 81 -59q7 19 23 39q-57 33 -99 60q45 37 55 43
q12 9 39 17q-9 9 -17 18zM72 -33q1 -4 5 -10q6 -18 15 -38q18 12 114 44l112 33q27 9 61 16q9 -28 15 -44q3 -13 8 -31q25 12 41 16l-83 203q-22 -10 -37 -15q22 -40 41 -96q-45 -15 -91 -26v194q76 0 91 -2q16 0 35 -3q-6 60 -6 62l1 229q1 22 5 45q-30 -1 -59 -5h-67v146
q0 15 2 32q3 18 13 33h-58q1 -31 5 -65v-146q-66 0 -91 2q-6 3 -35 3q1 -30 5 -63l-1 -228q-3 -15 -4 -45q51 4 85 5h41v-203q-124 -36 -166 -39q1 -1 3 -4zM151 249v254h84v-254h-84zM273 249v254h82v-254h-82z" />
  </g>

</svg>
