<?xml version="1.0" standalone="no"?>
<!DOCTYPE svg PUBLIC "-//W3C//DTD SVG 1.1//EN" "http://www.w3.org/Graphics/SVG/1.1/DTD/svg11.dtd" >
<svg xmlns="http://www.w3.org/2000/svg" xmlns:xlink="http://www.w3.org/1999/xlink" version="1.1" viewBox="-10 0 1010 1000">
   <path fill="currentColor"
d="M948 36v74q-14 -2 -38 -3q-11 -1 -27 -1h-46h-71v79h59q53 0 86 -4q-6 30 -6 61v74q0 56 4 83q-45 -6 -97 -6h-294q-39 -1 -83 8q5 -48 5 -83v-68q0 -13 -2 -43q-1 -18 -1 -28q35 6 63 6h77v-79h-71q-45 0 -63 1q-22 1 -36 3v-74q0 -1 17 1q50 5 88 5h327q47 0 92 -4
q12 -2 17 -2zM706 106h-69v79h69v-79zM837 242h-71v94h71v-94zM706 242h-69v94h69v-94zM508 242v94h69v-94h-69zM889 447v75q-11 -9 -97 -8h-225q-84 -1 -107 8v-75q63 4 111 4h217q60 0 101 -4zM956 564v79q-51 -10 -119 -10h-125v185q12 64 -135 73q-4 -43 -33 -93
q93 21 89 -16v-149h-125q-55 0 -96 5q-4 1 -5 1v-75q39 6 105 6h186h141q70 0 117 -6zM813 685q21 20 69 64q51 47 78 73l-73 49q-58 -85 -133 -148zM504 677q79 24 83 34q-1 2 -8 5q-19 8 -33 22q-6 7 -27 31q-51 61 -82 94q-36 -26 -82 -37q77 -43 149 -149zM190 -10
q96 -1 96 8q1 4 -5 13q-17 26 -17 61v99h73q36 0 62 -6q-4 21 -4 62v240q-1 65 4 87h-70q0 -6 1 -17q1 -14 1 -23h-67v179l69 -12q-9 -34 -29 -85l77 -16q14 62 50 170l-74 22q-2 -7 -5 -20q-4 -14 -5 -19q-219 44 -278 70l-6 3q-3 -27 -15 -83q-1 -5 -2 -8q30 1 152 -14
v-187h-63q-3 30 6 66h-76q4 -25 4 -70v-270q0 -28 -4 -75q31 6 64 6h69v-91q0 -43 -8 -90zM135 238v209h63v-209h-63zM329 238h-65v209h65v-209z" />
</svg>
