<?xml version="1.0" standalone="no"?>
<!DOCTYPE svg PUBLIC "-//W3C//DTD SVG 1.1//EN" "http://www.w3.org/Graphics/SVG/1.1/DTD/svg11.dtd" >
<svg xmlns="http://www.w3.org/2000/svg" xmlns:xlink="http://www.w3.org/1999/xlink" version="1.1" viewBox="-10 0 1010 1000">
   <path fill="currentColor"
d="M208 -2q90 3 92 10q1 2 -3 10q-19 45 -19 101v50h20q66 0 119 -6q-7 44 -6 99v179q0 51 6 93h-80q0 -19 6 -34h-65v171q13 -2 57 -12q13 -2 20 -4q-12 -30 -30 -81l62 -20q31 62 63 175l-73 23q-6 -25 -6 -37q-226 39 -304 79q-8 -53 -25 -95q68 1 172 -20v-179h-61l4 60
h-78q6 -44 6 -115v-187q0 -43 -4 -95q57 6 133 6v-52q0 -51 -1 -72q-1 -27 -5 -47zM454 40q54 6 133 6h203q63 0 111 -6q-4 25 -5 59q-1 17 -1 40v68q0 74 1 99q1 31 5 69q-36 -7 -90 -6h-19h-100q-40 36 -115 94h127l82 -78q74 54 67 58q-1 2 -10 7q-77 42 -234 156
q109 -4 199 -4l-5 -5q-26 -30 -47 -47l61 -30q50 42 125 141l-73 38q-4 -5 -11 -18q-9 -18 -15 -26q-18 0 -65 2t-66 2v155q2 43 -24 57q-24 16 -105 26q-1 -49 -31 -85q102 14 89 -34v-117q-6 1 -19 2q-103 7 -150 20q-5 -35 -20 -77q83 -4 199 -96q-12 1 -34 2
q-109 7 -131 16q-5 -40 -20 -67q47 -6 135 -92q-105 -3 -147 6q3 -25 3 -57q1 -16 1 -39v-66q0 -88 -1 -117q-1 -38 -3 -56zM643 110h-113v73h113v-73zM710 110v73h113v-73h-113zM278 231v214h65v-214h-65zM153 231v214h61v-214h-61zM530 237v73h113v-73h-113zM710 237v73
h113v-73h-113zM530 693q19 16 44 34q20 13 17 15q-1 3 -18 14q-66 41 -160 111q-8 -10 -43 -37l-15 -12q99 -47 175 -125zM794 701q96 65 148 115l-63 47q-55 -63 -137 -119z" />
</svg>
