<?xml version="1.0" standalone="no"?>
<!DOCTYPE svg PUBLIC "-//W3C//DTD SVG 1.1//EN" "http://www.w3.org/Graphics/SVG/1.1/DTD/svg11.dtd" >
<svg xmlns="http://www.w3.org/2000/svg" xmlns:xlink="http://www.w3.org/1999/xlink" version="1.1" viewBox="-10 0 1010 1000">
   <path fill="currentColor"
d="M702 -15q18 65 30 113h119q54 0 101 -6v73q-46 -6 -111 -6h-188q14 14 42 23q13 4 13 7q0 4 -12 11q-19 11 -25 21q-7 11 -24 39q-17 30 -26 44l77 -8q18 -22 38 -77q22 16 58 33q27 11 21 16q-1 1 -5 3q-21 11 -40 37q-74 96 -129 169l103 -12l-28 -54l58 -24
q9 17 24 48q25 48 43 87l-65 32l-16 -38q-132 11 -198 28q-2 -17 -22 -67q59 -19 133 -131q-51 5 -113 21q-2 -27 -16 -55q36 1 83 -153h-81q-69 -1 -102 8v-77q44 8 90 8h117q-15 -47 -40 -92zM488 203q3 6 10 17q33 49 48 84l-64 28q-23 -62 -53 -99zM879 203q67 31 69 45
q-1 2 -8 7q-14 9 -23 21q-9 11 -32 41q-20 27 -34 45q-14 -9 -40 -21q-10 -5 -15 -7q43 -49 83 -131zM504 362l56 41q-32 69 -59 138q-8 20 -11 27q-36 -31 -61 -46q0 -1 6 -12q37 -66 69 -148zM875 379q74 84 97 125l-59 48q-35 -65 -94 -135zM641 562q11 0 33 1q66 0 62 9
q0 2 -3 7q-13 22 -13 62h115q61 0 105 -6v78q-39 -8 -105 -8h-115v115q0 58 6 89h-87q6 -21 6 -91v-113h-107q-69 0 -96 6v-76q36 6 92 6h111q0 -46 -4 -79zM196 -15q89 -2 98 9q1 4 -6 13q-18 26 -18 63v103h79q36 0 60 -6q-6 42 -6 77v241q0 57 6 93h-78q4 -18 4 -42h-65
v185l69 -10q-16 -64 -26 -92l72 -17q33 113 61 200l-77 20q0 -2 -1 -6q-7 -33 -13 -48q-243 51 -288 72q-7 -50 -19 -96q32 1 154 -13v-195h-63q0 43 4 68h-74q4 -27 4 -72v-286q0 -40 -4 -79q30 6 64 6h69v-95q0 -56 -6 -93zM139 240v229h63v-229h-63zM335 238l-65 2v229
h65v-231z" />
</svg>
