<?xml version="1.0" standalone="no"?>
<!DOCTYPE svg PUBLIC "-//W3C//DTD SVG 1.1//EN" "http://www.w3.org/Graphics/SVG/1.1/DTD/svg11.dtd" >
<svg xmlns="http://www.w3.org/2000/svg" xmlns:xlink="http://www.w3.org/1999/xlink" version="1.1" viewBox="-10 0 1034 1024">
  <g transform="matrix(1 0 0 -1 0 820)">
   <path fill="currentColor"
d="M651 109l-235 3q-7 0 -16 2v-46q4 3 54 6h197l-1 -195q-3 -31 -4 -51h49q-3 15 -4 39l-1 207l243 -1q21 0 36 -5v46q-19 -4 -60 -5h-219q0 51 5 61q3 10 15 27h-64q4 -79 5 -86v-2zM418 197q12 -10 20 -24l37 57q60 79 75 105q-7 9 -27 40q-13 -28 -50 -81
q-18 -27 -33 -45q-13 -15 -37 -38q7 -6 15 -14zM476 642q-25 1 -51 3q-3 0 -7 1q-3 1 -5 1v-47q4 3 53 6h179q-15 -33 -50 -93q-34 -52 -60 -68q12 -18 21 -47q27 9 41 10q18 0 72 6q-9 -16 -19 -30q-24 -33 -78 -99q-15 -13 -38 -23q13 -22 25 -54q46 19 190 33
q7 -21 17 -43q19 12 39 22l-59 131q-18 -7 -35 -16l27 -61l-138 -13q3 6 8 10q42 54 62 81l68 94q10 12 21 21l20 16q-4 0 -21 8q-7 6 -15 10q-6 3 -10 6q-1 0 -5 2q-13 -27 -23 -42q-6 -10 -16 -22l-101 -4q7 13 16 25q36 58 53 81q16 22 38 43q-22 6 -37 16l246 -1
q21 0 37 -5v47q-18 -4 -60 -5h-165q6 12 14 24q0 3 10 13q-81 61 -117 87q-7 6 -16 14q-13 -21 -27 -38q72 -42 128 -100h-232zM415 535q16 -21 52 -77q9 -15 19 -37q16 15 26 20q3 1 8 5l-54 86q0 3 -19 28q-9 -7 -15 -12q-9 -6 -17 -13zM908 542q-25 18 -35 33
q-42 -78 -98 -129q25 -15 38 -26q18 21 53 67q24 34 51 48q-4 4 -9 7zM828 377q-21 -18 -37 -28q36 -36 51 -56q7 -12 28 -36q21 -33 34 -58q18 21 35 32q-33 46 -59 80q-24 33 -52 66zM302 69q-24 -6 -49 -11v165q73 0 88 -2q15 0 37 -3l-6 61l1 251q1 24 5 47
q-63 -6 -96 -6h-28v123q0 15 3 28q3 18 17 38h-63q0 -6 3 -13l2 -151v-25l-81 1q-33 4 -41 5h-2q1 -30 5 -63l-1 -251q-3 -12 -4 -45q45 4 69 5h55v-175q-34 -12 -86 -24q-28 -7 -47 -11q-16 -3 -32 -3q12 -24 24 -54q15 10 32 17q12 6 64 21q84 25 177 49l23 -82
q22 10 42 15q-15 48 -30 92l-37 98q-18 -9 -41 -16q15 -24 30 -72zM133 259v277h83v-277h-83zM253 257v279h81v-279h-81z" />
  </g>

</svg>
