<?xml version="1.0" standalone="no"?>
<!DOCTYPE svg PUBLIC "-//W3C//DTD SVG 1.1//EN" "http://www.w3.org/Graphics/SVG/1.1/DTD/svg11.dtd" >
<svg xmlns="http://www.w3.org/2000/svg" xmlns:xlink="http://www.w3.org/1999/xlink" version="1.1" viewBox="-10 0 1010 1000">
   <path fill="currentColor"
d="M194 -8q20 1 52 1q48 -1 46 5q1 2 -3 8q-19 37 -19 111v58q78 0 135 -6q-7 27 -6 88v11v179q0 72 6 105h-78q0 -7 2 -28q1 -10 2 -16h-61v179q17 -6 63 -12q-10 -31 -25 -62l59 -21q34 64 68 176l-76 26q-1 -7 -3 -23q-3 -31 -9 -42q-182 43 -278 85q-8 -38 -35 -85
q66 -7 168 -26v-195h-59q0 39 2 66h-76q6 -35 6 -121v-179q0 -74 -6 -105q48 6 133 6v-52v-8q1 -79 -8 -123zM704 -8q6 41 18 86h86q55 0 109 -6v73q-38 -6 -109 -6h-254q-79 0 -110 6v-73q42 6 108 6h95q-13 -31 -38 -78zM754 155q10 2 30 5q60 10 57 15q0 3 -8 8
q-26 17 -47 50h41q68 1 108 -6v75q-49 -6 -110 -6h-297q-69 -1 -103 8v-79q63 8 140 8q-13 -25 -41 -56l73 -22q5 7 37 66q5 8 7 12h75zM270 238v207h61v-207h-61zM143 238v207h59v-207h-59zM468 344q34 4 77 5q21 1 50 1h84h48q109 2 150 -6q-2 14 -3 47q-1 16 -1 40v65v45
q-1 83 4 106q-66 -8 -163 -8v70h98q58 1 119 -8v73q-31 -7 -107 -6h-14h-96v38q0 61 6 103h-87q6 -66 6 -111v-30h-77q-70 0 -118 8v-77q60 10 119 10h76v-68q-120 0 -171 6q3 -25 3 -58q1 -16 1 -37v-60v-45q1 -74 -4 -103zM548 405v64h250v-64h-250zM548 520v62h250v-62
h-250z" />
</svg>
