<?xml version="1.0" standalone="no"?>
<!DOCTYPE svg PUBLIC "-//W3C//DTD SVG 1.1//EN" "http://www.w3.org/Graphics/SVG/1.1/DTD/svg11.dtd" >
<svg xmlns="http://www.w3.org/2000/svg" xmlns:xlink="http://www.w3.org/1999/xlink" version="1.1" viewBox="-10 0 1034 1024">
  <g transform="matrix(1 0 0 -1 0 820)">
   <path fill="currentColor"
d="M299 -43q-162 -12 -175 -13h-34q13 -24 24 -48q16 3 34 8q244 34 276 37l30 3q13 -18 36 -58l32 25l-87 122q-13 -10 -27 -17q-3 -1 -7 -3l28 -38q-36 -7 -94 -12v85q94 0 108 -2q15 0 37 -3q-4 48 -5 95q1 43 5 87q-18 -1 -33 -2q-21 -3 -27 -3h-85q0 69 5 79q1 9 8 17
h-55l4 -20l2 -76q-93 0 -118 2q-6 3 -35 3q4 -49 5 -75q0 -69 -4 -99q0 -3 -1 -8q49 4 74 5h79v-91zM187 81v105h112v-105h-112zM335 81v105h103v-105h-103zM522 372q0 -16 -9 -22q-15 -7 -47 -8q-18 0 -47 3q15 -28 20 -48q73 6 103 22q16 9 17 41v176h291q-12 -21 -36 -55
q-24 -30 -51 -60q15 -1 24 -3q9 -3 25 -7q24 39 52 75l13 20q12 18 26 38q6 9 19 29q-34 -1 -69 -5h-236l-45 25q97 60 129 81l64 42q15 9 35 27q-19 -1 -37 -3q-24 -1 -36 -3l-466 1l-38 4q-1 0 -6 1v-44q30 3 62 5h401q-36 -25 -66 -45q-30 -19 -79 -49l-131 62
q-9 -21 -18 -39q61 -21 124 -54q9 -4 20 -11l-399 1q-15 3 -17 3q-3 1 -6 1v-43q18 6 63 6h306q-73 -66 -178 -112q-70 -27 -120 -43q-45 -12 -85 -17q15 -12 39 -43q168 61 237 97q66 34 152 105v-151zM530 -65l29 -46q21 6 85 18l135 23q18 4 37 7l46 7q22 -28 38 -55
q19 12 33 26l-70 90q-12 13 -25 30q-12 -9 -35 -19q10 -10 11 -13q9 -9 24 -31l-30 -6q-42 -3 -53 -7q-12 -1 -26 -5v98l115 -1l44 -4q-4 49 -5 97q1 42 5 84q-60 -4 -94 -5h-65q0 60 3 70q1 10 11 22h-56q0 -9 2 -14q0 -39 3 -78l-134 3q-9 1 -16 2q1 -30 5 -60
q0 -84 -4 -116q-1 -1 -1 -5q51 4 82 5h68v-102q-24 -4 -72 -9q-72 -6 -90 -6zM583 85v104h109v-104h-109zM729 85v104h117v-104h-117z" />
  </g>

</svg>
