<?xml version="1.0" standalone="no"?>
<!DOCTYPE svg PUBLIC "-//W3C//DTD SVG 1.1//EN" "http://www.w3.org/Graphics/SVG/1.1/DTD/svg11.dtd" >
<svg xmlns="http://www.w3.org/2000/svg" xmlns:xlink="http://www.w3.org/1999/xlink" version="1.1" viewBox="-10 0 1010 1000">
   <path fill="currentColor"
d="M571 -13q11 3 32 7q58 12 58 18q-1 4 -9 8q-26 11 -51 46h86q117 0 158 -6q-4 15 -97 125q138 0 167 -6q-8 24 -8 111q0 88 8 109q-21 -6 -155 -6h-81l-36 36q57 54 75 89q69 -33 133 -93q61 46 74 63q-2 4 -15 7q-43 10 -93 41q17 160 143 226q-29 27 -67 78
q-104 -96 -127 -274q-12 2 -24 14q12 61 11 146q-1 77 -15 108q-31 61 -147 75q-5 -55 -37 -93q72 17 109 -20q13 -13 20 -58q8 -48 4 -89q-130 130 -282 213q-29 -43 -66 -66q191 -53 336 -220q-3 -18 -18 -42q-88 86 -211 151q-18 -44 -51 -72q130 -21 230 -125
q-3 -2 -9 -8q-2 -3 -17 -15q-106 61 -139 75l-3 -6q-17 -42 -34 -65q93 -6 168 -76q-103 0 -145 10q4 -11 5 -37q1 -12 1 -31v-51q0 -49 -1 -67q-1 -22 -5 -34l26 2q-26 -21 -61 -28q99 -64 160 -170zM718 125h-168q-27 23 -60 62h177q9 -11 26 -31q18 -22 25 -31zM339 240
h-67v205h67v-205zM139 240v205h61v-203zM835 248h-127q-1 45 -10 82h137v-82zM524 250v80h107q13 -44 10 -80h-117zM419 540h-90q8 -15 8 -32h-65v177l59 -10q-4 -19 -21 -60l63 -19q2 6 15 40q32 83 41 110l-68 20q-8 -29 -12 -33q-224 44 -280 71q-3 2 -4 2
q-8 -47 -23 -89q-6 4 158 -22v-187h-59q0 42 8 66h-91q9 -29 9 -157v-97q0 -113 -5 -147q37 6 138 6v-101q0 -57 -10 -80q7 0 20 1q82 1 78 9q1 2 -3 10q-13 27 -13 54v105q13 0 39 -1q91 -2 108 -7q-8 30 -8 151v145q0 46 8 75z" />
</svg>
