<?xml version="1.0" standalone="no"?>
<!DOCTYPE svg PUBLIC "-//W3C//DTD SVG 1.1//EN" "http://www.w3.org/Graphics/SVG/1.1/DTD/svg11.dtd" >
<svg xmlns="http://www.w3.org/2000/svg" xmlns:xlink="http://www.w3.org/1999/xlink" version="1.1" viewBox="-10 0 1034 1024">
  <g transform="matrix(1 0 0 -1 0 820)">
   <path fill="currentColor"
d="M365 -126q19 -13 41 -36q52 30 77 49q34 27 83 69q24 21 38 30q4 3 36 19l-50 34q-49 -58 -123 -112q-63 -43 -102 -53zM563 653q-114 0 -127 3q-1 1 -2 1q-3 0 -12 2v-47q15 3 23 4q27 1 118 2v-125l-147 2q-3 0 -16 3v-48q4 3 13 4q27 1 52 3h181v-90q-130 0 -152 2
q-15 3 -39 4q1 -33 5 -66l-1 -205q-3 -7 -4 -36v-6q15 3 51 4l317 1q28 -1 59 -5q-3 30 -5 62l1 203l4 48q-54 -6 -65 -6h-134v90h223q31 0 50 -3q4 0 12 -4v48l-96 -5h-92v125q108 0 147 -3l9 -3v47q-15 -4 -33 -5l-123 -1q0 66 2 73q0 9 6 28q1 6 6 14h-58q3 -7 4 -12
q1 -30 2 -103h-141v48q0 12 3 31q1 18 12 33h-58q4 -15 5 -64v-48zM497 101v101h149v-101h-149zM497 237v95h149v-95h-149zM742 493h-141v125h141v-125zM839 101h-156v101h156v-101zM683 237v95h156v-95h-156zM709 5q51 -36 103 -80q51 -43 86 -83q16 21 34 37
q-21 19 -63 53q-24 18 -94 77q-15 12 -36 26q-13 -15 -30 -30zM79 -33q21 12 71 27l153 45l53 16q6 -15 13 -28q4 -15 10 -34q7 6 15 10q9 3 14 7q6 0 15 4l-86 181q-15 -9 -25 -14q-6 -3 -14 -5q28 -46 42 -84q-30 -12 -74 -24v169q70 0 83 -2q16 0 34 -3q-3 31 -5 63
l1 228l4 45q-30 -1 -59 -5h-58v138q0 15 3 31q1 18 11 33h-57q1 -31 5 -64v-138q-67 0 -90 2q-6 3 -36 3q1 -30 5 -62l-1 -228q-3 -12 -4 -46q51 4 105 5h21v-178q-61 -15 -107 -26q-34 -6 -60 -9q7 -16 14 -40q1 -7 4 -17zM144 273v254h84v-254h-84zM266 273v254h74v-254
h-74z" />
  </g>

</svg>
