<?xml version="1.0" standalone="no"?>
<!DOCTYPE svg PUBLIC "-//W3C//DTD SVG 1.1//EN" "http://www.w3.org/Graphics/SVG/1.1/DTD/svg11.dtd" >
<svg xmlns="http://www.w3.org/2000/svg" xmlns:xlink="http://www.w3.org/1999/xlink" version="1.1" viewBox="-10 0 1010 1000">
   <path fill="currentColor"
d="M714 -2q94 -3 94 8q1 3 -3 9q-16 29 -17 97h53q50 1 90 -6v77q-45 -7 -96 -6h-47v91h67q39 0 56 -1q20 -1 39 -5v76q-36 -6 -97 -6h-155v63h112q52 0 91 -6q-3 33 -3 69q-1 17 -1 41v67q0 77 1 101q0 32 3 62q-42 -9 -89 -6h-258q-71 0 -104 6q3 -24 3 -57q1 -16 1 -38
v-66q0 -86 -1 -115q0 -38 -3 -64q43 6 110 6h79v-63h-105q-60 0 -113 6v-76q53 6 125 6v-93q-65 -3 -106 6v-75q54 6 106 6q0 -49 -1 -67q-1 -23 -5 -43q53 0 70 1q20 1 21 5q1 2 -2 7q-16 33 -16 97h107q0 -78 -6 -114zM196 4q58 0 71 1q18 1 19 5q1 2 -2 9q-14 40 -14 102
v50q85 0 145 -6q-6 33 -6 89v207v12q-1 47 6 83h-84q0 -20 6 -50h-67v189l65 -12q-6 -22 -17 -48q-3 -8 -5 -12l64 -23q33 69 63 180l-75 20q-1 -4 -2 -12q-4 -21 -8 -48q-248 56 -286 84q-10 -45 -25 -89q6 -1 23 -3q70 -10 135 -23v-203h-61q-1 47 6 74h-84q6 -31 6 -92
v-226v-7q1 -56 -6 -90q48 6 139 6v-42v-22q1 -65 -6 -103zM613 175v93h107v-93h-107zM202 231h-61v216h61v-216zM270 231v216h67v-216h-67zM698 455v75h131v-75h-131zM522 455v75h117v-75h-117zM522 586v77h117v-77h-117zM698 586v77h131v-77h-131zM571 735q78 50 70 55
q0 1 -6 3q-65 20 -200 118q-25 -35 -64 -59q97 -34 200 -117zM766 738q129 75 180 114l-61 63q-87 -79 -173 -119z" />
</svg>
