<?xml version="1.0" standalone="no"?>
<!DOCTYPE svg PUBLIC "-//W3C//DTD SVG 1.1//EN" "http://www.w3.org/Graphics/SVG/1.1/DTD/svg11.dtd" >
<svg xmlns="http://www.w3.org/2000/svg" xmlns:xlink="http://www.w3.org/1999/xlink" version="1.1" viewBox="-10 0 1034 1024">
  <g transform="matrix(1 0 0 -1 0 820)">
   <path fill="currentColor"
d="M389 38q24 -37 37 -76q1 1 4 3q3 3 11 9q9 6 20 11l-55 104q-22 42 -49 83q-9 -9 -33 -22q27 -40 49 -82q-18 -3 -79 -22q-16 -3 -21 -6v213q87 0 100 -2q18 0 39 -3l-4 36q19 -21 30 -35q9 7 17 12q3 3 83 63q0 1 3 3q31 28 51 48l72 75l-3 -156q-1 -6 -2 -14h50
q-3 15 -4 38l-1 142q54 -79 131 -135q66 -48 124 -75q10 21 32 45q-49 10 -101 41q-87 57 -132 114q-4 7 -17 22l177 -1q21 0 37 -5v47q-18 -4 -61 -5h-103q10 15 32 49q9 12 18 27q27 42 53 59q-31 18 -46 32q-49 -94 -100 -167h-44v198q16 1 35 5l73 9q21 1 44 5
q25 3 57 8q-15 13 -31 42q-69 -21 -166 -32q-51 -6 -118 -11q-63 -3 -97 -5q-18 0 -61 6q7 -19 16 -44l208 13v-194l-196 1q-21 3 -20 2q-3 0 -7 1q-3 1 -5 1v-47q4 3 54 6h144q-63 -72 -118 -117q-66 -49 -108 -63l1 235q1 25 5 52q-18 -1 -31 -2q-22 -3 -34 -4h-76v129
q0 13 3 27q3 19 18 38h-65l4 -36l1 -158h-81l-35 4q-12 0 -30 2q1 -33 5 -66l-1 -219q-3 -12 -4 -46q15 3 52 4l94 1v-223q-126 -34 -189 -37q13 -36 19 -59q24 15 55 25q22 9 263 77q3 1 7 2zM130 289v250h104v-250h-104zM273 289v250h97v-250h-97zM479 -85q-1 -27 -3 -56
q-1 -3 -2 -13h49q-3 9 -4 38l-1 36h330q0 -27 -5 -64h48q-3 19 -4 32l1 327l4 47q-66 -4 -105 -5l-266 1q-19 3 -47 4q1 -31 5 -65v-282zM667 106h-149v115h149v-115zM667 71v-116h-149v116h149zM848 106h-144v115h144v-115zM704 -45v116h144v-116h-144zM598 527q4 6 10 11
q6 6 13 10q-40 49 -103 111q-1 -3 -28 -29q54 -49 101 -110q3 4 7 7v0z" />
  </g>

</svg>
