<?xml version="1.0" standalone="no"?>
<!DOCTYPE svg PUBLIC "-//W3C//DTD SVG 1.1//EN" "http://www.w3.org/Graphics/SVG/1.1/DTD/svg11.dtd" >
<svg xmlns="http://www.w3.org/2000/svg" xmlns:xlink="http://www.w3.org/1999/xlink" version="1.1" viewBox="-10 0 1034 1024">
  <g transform="matrix(1 0 0 -1 0 820)">
   <path fill="currentColor"
d="M357 -89l44 -20q33 60 52 98q24 54 28 58q7 13 28 29q-24 9 -52 23q-37 -114 -100 -188zM648 658l-209 1q-9 1 -17 2q-3 0 -12 2v-47q9 4 41 5l197 1v-76l-164 1q-15 3 -42 4q4 -99 5 -104l-1 -134q-3 -15 -4 -43q43 3 63 4h144v-80l-151 -8l-85 1q10 -28 18 -53
q49 9 113 15l81 8q189 18 232 20l50 -50q13 18 29 32l-64 59l-64 55q-13 -15 -25 -31q19 -15 42 -33l-36 -4q-37 0 -102 -8v78l172 -1l38 -4q-4 49 -5 72q0 160 2 172q0 18 3 37q-51 -4 -65 -5h-145v77l214 -1q28 0 41 -4q1 0 6 -2v47q-7 -1 -14 -3q-12 0 -50 -2h-197
q0 63 2 71q1 25 12 38h-58q0 -9 2 -13zM648 310h-164v85h164v-85zM648 431h-164v79h164v-79zM687 311v83h167v-83h-167zM687 430v80h167v-80h-167zM580 51q0 10 3 32q1 16 11 32h-57q4 -12 5 -64v-119q0 -33 23 -50q27 -19 109 -20q48 0 89 7q24 3 45 17q16 12 39 61
q1 3 15 29q-21 9 -49 28q-6 -52 -19 -75q-15 -22 -54 -26q-34 -3 -70 -3q-40 0 -57 4q-33 9 -33 43v104zM677 120q-7 10 -16 21q-18 -18 -33 -28q57 -57 88 -108q15 15 35 30q-7 12 -15 17l-26 33q-16 18 -33 35zM953 -86q4 4 9 8q1 0 11 7l-57 94l-49 77q-1 3 -8 12
q0 1 -3 5q-18 -12 -35 -22q21 -27 62 -93q39 -63 53 -100q7 6 17 12zM318 50q18 3 33 8q13 -48 19 -55q13 9 22 14q3 3 16 6l-10 30q-12 39 -28 78l-28 65q-12 -6 -21 -10q-9 -1 -17 -5q18 -42 34 -85q-18 -6 -20 -7q-6 -3 -10 -3l-66 -20v182q69 0 80 -2l38 -4q-3 31 -5 63
l1 221l4 45q-28 -1 -57 -5h-61v129q0 18 4 32q1 18 11 33h-58q1 -9 4 -18l2 -176h-57q-6 0 -29 3q-13 0 -30 2q1 -30 5 -62l-1 -221q-3 -12 -4 -46q60 6 94 6h22v-191q-91 -25 -155 -31q7 -12 14 -30q3 -9 8 -23q30 15 167 55q39 12 79 22zM131 283v247h74v-247h-74z
M242 283v247h75v-247h-75z" />
  </g>

</svg>
