<?xml version="1.0" standalone="no"?>
<!DOCTYPE svg PUBLIC "-//W3C//DTD SVG 1.1//EN" "http://www.w3.org/Graphics/SVG/1.1/DTD/svg11.dtd" >
<svg xmlns="http://www.w3.org/2000/svg" xmlns:xlink="http://www.w3.org/1999/xlink" version="1.1" viewBox="-10 0 1010 1000">
   <path fill="currentColor"
d="M750 -13q99 22 99 37q-1 4 -10 8q-17 8 -26 20q-19 27 -49 73h71q40 0 82 -6v66q-20 -5 -74 -4h-137v67h102q51 0 81 -6v66q-20 -4 -79 -4h-104v69h115q46 0 61 -1q18 -2 41 -7v68q-34 -4 -76 -4h-24q52 14 52 24q0 3 -9 11q-28 24 -56 60h37q52 0 99 -6v66
q-36 -4 -107 -4h-341q-48 0 -71 6v-68q23 6 71 6h28q-8 -24 -40 -63l58 -32h-22q-32 0 -56 4q-6 1 -10 2v-68q30 6 78 6h109v-69h-81q-59 -1 -92 8v-70q30 6 88 6h85v-67h-125q-63 -1 -81 4v-64q28 3 85 4h45q-30 -50 -79 -91l70 -42q58 69 79 102l-50 31h101
q47 -75 62 -138zM706 429v95h44q30 -59 42 -95h-86zM643 429h-91l43 81l-28 14h76v-95zM478 623q39 6 113 6h193q64 -1 109 -4q-8 26 -8 94v77q0 51 8 99q2 10 2 14h-87q4 -23 4 -73h-258q0 40 4 71h-82q6 -29 6 -77v-133q0 -42 -4 -74zM813 689h-259v87h259v-87zM196 26
q8 0 25 1q79 1 77 9q1 4 -6 13q-18 25 -18 59v97h79q37 -1 64 -4q-5 20 -4 63v238q-1 64 4 88h-76q0 -6 1 -17q1 -14 1 -23h-69v177l91 -14q-16 -47 -34 -86l70 -14q14 35 40 102q21 55 31 81l-79 22q-2 -7 -5 -22q-3 -16 -5 -24q-318 58 -320 66q-5 -45 -21 -90
q32 1 162 -13v-185h-63q0 43 4 65h-80q4 -33 4 -69v-270q0 -39 -4 -75q30 6 66 6h73v-92q0 -38 -8 -89zM141 274v209h63v-209h-63zM341 272h-67v211h67v-211z" />
</svg>
