<?xml version="1.0" standalone="no"?>
<!DOCTYPE svg PUBLIC "-//W3C//DTD SVG 1.1//EN" "http://www.w3.org/Graphics/SVG/1.1/DTD/svg11.dtd" >
<svg xmlns="http://www.w3.org/2000/svg" xmlns:xlink="http://www.w3.org/1999/xlink" version="1.1" viewBox="-10 0 1034 1024">
  <g transform="matrix(1 0 0 -1 0 820)">
   <path fill="currentColor"
d="M438 212l-60 4q-3 0 -5 1v-47q12 6 52 6l509 -1q12 0 26 -5v47q-9 -3 -23 -3q-18 0 -40 -2h-110q42 48 57 60q13 13 42 28q-28 21 -49 41q-18 -42 -95 -129h-65v130q225 0 248 -3q3 0 9 -3v47q-12 -3 -22 -3q-19 0 -41 -2h-194v85l203 -4l2 -1v47q-12 -3 -23 -4
q-19 0 -39 -2h-143v86l220 -1q12 0 26 -5v47q-6 -1 -11 -3l-159 -2q30 61 48 90q15 24 39 36q-18 12 -38 23l-16 13q-1 0 -4 3q-6 -28 -21 -64q-18 -40 -49 -101l-304 3q-3 1 -10 2v-47q6 3 13 3q27 3 53 3h175v-86q-153 0 -181 2l-20 4v-47q15 3 34 4l167 1v-85l-215 1
q-13 1 -27 4v-47q3 3 13 3q42 3 53 4h176v-131h-54q-33 51 -77 110q-18 -12 -35 -21q36 -45 64 -89h-99zM524 103q-10 0 -70 5q1 -33 5 -66l-3 -200q-1 -3 -1 -7q-1 -3 -1 -6h49q-3 9 -4 31q-1 13 -2 27h338q-3 -27 -5 -56h49q-6 24 -6 92l1 137q1 24 5 48q-30 -1 -61 -5
h-294zM497 -77v144h338v-144h-338zM475 734q75 -54 116 -100q15 18 31 35l-121 93q-4 -6 -26 -28zM67 -68q15 9 49 20l117 38l115 37q30 -79 32 -86q25 19 31 21q1 1 6 1q-33 69 -85 189q-33 -13 -37 -16q18 -31 37 -78q-9 -1 -25 -8q-48 -16 -52 -17q-7 -1 -13 -4v198
q87 0 99 -2q16 0 35 -3l-6 62l1 228q0 9 5 45q-30 -1 -60 -5h-74v143q0 18 4 32q1 18 11 33h-58q0 -1 4 -18l2 -180v-10h-69q-7 0 -29 3q-13 0 -31 2l6 -62l-1 -224q-4 -19 -5 -49q51 4 103 5h26v-207q-103 -33 -164 -37q9 -12 19 -36q3 -7 7 -15zM118 263v253h87v-253h-87z
M242 263v253h90v-253h-90z" />
  </g>

</svg>
