<?xml version="1.0" standalone="no"?>
<!DOCTYPE svg PUBLIC "-//W3C//DTD SVG 1.1//EN" "http://www.w3.org/Graphics/SVG/1.1/DTD/svg11.dtd" >
<svg xmlns="http://www.w3.org/2000/svg" xmlns:xlink="http://www.w3.org/1999/xlink" version="1.1" viewBox="-10 0 1010 1000">
   <path fill="currentColor"
d="M581 -13q12 3 33 7q60 13 57 16q0 1 -8 6q-33 19 -60 48h155q34 0 50 -1q20 -1 47 -5q-3 4 -9 11q-48 60 -84 108h67q59 1 106 -8v69q-51 -8 -123 -7h-304v115q1 108 0 198q-1 213 -103 365q-48 -27 -92 -28q81 -56 106 -151q28 -92 27 -317v-50q1 -158 -6 -192
q52 8 102 8h141q23 -30 47 -60h-176q-32 30 -56 54q-31 -23 -71 -32q93 -58 154 -154zM258 242v207h65v-207h-65zM129 242v207h65v-207h-65zM736 296q5 11 16 35q10 22 16 34h77q49 0 82 -5v61q-48 -6 -190 -6t-199 6v-61q30 5 79 5h87q-3 -4 -8 -11q-18 -26 -35 -44z
M567 465q46 6 173 6q126 0 155 -6v53q-28 -6 -162 -6q-133 0 -166 6v-53zM565 562q44 6 166 6t166 -6v53q-49 -5 -167 -5q-119 0 -165 5v-53zM550 663q24 4 63 5q20 1 47 1h76q88 0 116 -1q36 -1 57 -5q-6 27 -6 115t6 125h-74q0 -6 1 -22q1 -19 1 -29h-214q0 39 2 51h-75
q6 -35 6 -121t-6 -119zM623 721v79h210v-79h-210zM401 764l-70 14q0 -35 -2 -45q-19 6 -55 16q-173 49 -211 69q-15 -46 -39 -81q92 -11 170 -32v-199h-65q1 0 2 23q2 33 4 49h-72q4 -27 5 -52q1 -20 1 -65v-181q0 -65 -6 -101q66 6 131 6v-68q1 -66 -6 -117q8 0 22 1
q75 1 68 7q0 1 -2 8q-18 45 -18 103v66q86 0 131 -6q-6 31 -6 89v183q-1 47 6 87h-68l2 -32h-65v185q7 -1 23 -4q28 -5 38 -8q-5 -33 -17 -77l59 -10q25 72 40 172zM623 235q52 26 62 39q-1 2 -8 6q-40 19 -96 72q-13 -13 -51 -34q29 -20 93 -83zM903 316l-60 38
q-32 -53 -87 -90l46 -29q45 27 101 81z" />
</svg>
