<?xml version="1.0" standalone="no"?>
<!DOCTYPE svg PUBLIC "-//W3C//DTD SVG 1.1//EN" "http://www.w3.org/Graphics/SVG/1.1/DTD/svg11.dtd" >
<svg xmlns="http://www.w3.org/2000/svg" xmlns:xlink="http://www.w3.org/1999/xlink" version="1.1" viewBox="-10 0 1034 1024">
  <g transform="matrix(1 0 0 -1 0 820)">
   <path fill="currentColor"
d="M285 29v-105q0 -18 -11 -25q-12 -6 -34 -6q-13 1 -26 1q10 -21 20 -47q39 9 66 23q18 13 19 52l1 318l4 45q-27 -1 -53 -5q-78 0 -97 2q-6 3 -34 3q1 -31 5 -65l-1 -167q-3 -31 -9 -72q-9 -45 -35 -84q-12 -15 -32 -30q25 -10 45 -25q55 85 64 187h108zM285 142v-82h-107
v82h107zM285 172h-107v78h107v-78zM144 660q-27 0 -52 3q-4 0 -12 2v-42q6 0 12 3l101 2h32q0 -39 -2 -65q-3 -3 -3 -35l58 6l492 -1l36 -4l2 -1v40q-9 -1 -21 -4l-526 -1v65l641 -1q10 -1 22 -4v42q-9 -3 -21 -3q-18 0 -39 -2h-297l21 30l-31 19q-61 40 -89 56
q-6 -12 -12 -19l-12 -14q82 -45 108 -72h-408zM224 393q-3 -27 -5 -56q27 3 56 5l468 -1q15 0 43 -4q-4 45 -5 70q1 37 5 75q-27 -1 -55 -5l-474 1q-3 0 -38 4q4 -60 5 -89zM744 447v-76h-484v76h484zM653 294l6 -61l1 -36q0 -85 -7 -147q-9 -93 -44 -150q-16 -27 -45 -44
q27 -9 48 -26q16 27 27 45q30 55 41 113l14 159v107h111v-335q0 -21 9 -35q12 -21 54 -21q45 0 66 23q12 12 33 68q-25 12 -45 24q-1 -12 -1 -25q-1 -39 -19 -47q-13 -4 -31 -5q-21 0 -27 7q-4 4 -5 24v301q0 9 3 31q0 18 2 30q-55 -4 -71 -5q-63 0 -85 2q-6 3 -35 3z
M734 117q-6 7 -12 17l-16 -16q-3 -3 -11 -7q15 -12 39 -46q22 -30 34 -56q15 15 27 23l-41 59zM578 -48q9 -15 17 -36q12 12 31 21q-6 12 -26 47l-28 53q-15 -9 -31 -17q9 -12 16 -28l4 -9q-37 -13 -56 -17v90l96 -5q-6 27 -5 89q0 67 2 79q0 18 3 36q-90 -4 -93 -5h-3
q0 15 3 37q1 18 10 31h-52q1 -31 5 -64v-4q-48 0 -98 5q1 -30 5 -62q0 -78 -2 -106q-1 -1 -1 -6q0 -12 -2 -30q49 4 75 5h23v-102q-54 -18 -113 -27q9 -15 23 -51l72 35q1 0 16 5zM411 87v133h60v-133h-60zM505 87v133h57v-133h-57z" />
  </g>

</svg>
