<?xml version="1.0" standalone="no"?>
<!DOCTYPE svg PUBLIC "-//W3C//DTD SVG 1.1//EN" "http://www.w3.org/Graphics/SVG/1.1/DTD/svg11.dtd" >
<svg xmlns="http://www.w3.org/2000/svg" xmlns:xlink="http://www.w3.org/1999/xlink" version="1.1" viewBox="-10 0 1010 1000">
   <path fill="currentColor"
d="M522 -8q8 33 24 88h234q97 0 145 -8v75q-22 -5 -114 -9q-19 -1 -27 -1h-536v48h415q64 0 94 -1q36 -2 58 -5v67q-38 -7 -148 -6h-367q-84 0 -137 6q5 -32 6 -99v-8q-77 1 -121 10v-77q41 7 137 8h271q-16 -39 -33 -74zM821 272q-6 29 -6 80q0 55 6 87q-47 -6 -133 -6
h-404q-80 1 -121 6q5 -25 6 -95q-1 -32 -6 -72q58 6 135 6h361q90 -1 162 -6zM242 334v43h500v-43h-500zM444 445q68 -3 74 6q0 2 -3 5q-14 13 -15 38v20h42q31 0 67 -4q-2 33 -2 66v59q1 32 4 56q-24 -4 -59 -4h-52v77l63 -6q-2 -8 -9 -23q-3 -7 -4 -10l49 -14q15 37 30 81
q13 -14 20 -80q3 -33 4 -77q1 -47 0 -89q0 -52 -8 -75q47 4 107 4h34q12 0 41 -1q38 -1 60 -1q-8 24 -10 91q0 36 -2 118q-2 66 -2 90q-1 46 7 40h3q14 4 20 -18q6 -16 10 -54q28 32 63 40q-19 75 -43 93q-19 12 -84 8q-40 -2 -39 -71v-10q0 -80 5 -220q2 -34 2 -48h-109
q12 282 -65 373q-31 -16 -78 -26q39 -25 50 -61l-32 8q-2 -15 -8 -30q-159 30 -228 54q-2 -24 -20 -72q8 -1 23 -2q80 -8 104 -8v-81h-53q-1 26 4 38h-62q4 -16 4 -86v-65q0 -12 -2 -43q-1 -13 -2 -21q13 1 34 2l34 2h43v-20q-1 -29 -10 -49zM91 473q34 3 88 6h29
q73 0 104 -4q-4 32 -4 93v262q2 35 -16 45q-19 14 -86 24q-4 -37 -27 -79q45 8 57 3q14 -5 14 -27v-50h-99q-18 87 -54 155q-34 -28 -67 -36q42 -40 59 -147q16 -111 2 -245zM157 528v66h93v-66h-93zM500 554v93h56v-93h-56zM401 554v93h53v-93h-53zM774 576q6 118 14 198
l-50 2q3 -85 -12 -198zM157 639q-2 14 -2 62h95v-62h-93z" />
</svg>
