<?xml version="1.0" standalone="no"?>
<!DOCTYPE svg PUBLIC "-//W3C//DTD SVG 1.1//EN" "http://www.w3.org/Graphics/SVG/1.1/DTD/svg11.dtd" >
<svg xmlns="http://www.w3.org/2000/svg" xmlns:xlink="http://www.w3.org/1999/xlink" version="1.1" viewBox="-10 0 1010 1000">
   <path fill="currentColor"
d="M190 4h33q55 -2 51 6q-18 30 -18 107v50q78 0 131 -6q-9 27 -6 99v159q-3 83 6 131h-72q0 -8 1 -25t1 -25h-61v193q12 -3 33 -8q31 -7 40 -8l-29 -71l55 -20q36 82 62 180l-64 20q0 -14 -8 -47q-1 -5 -2 -8q-179 45 -278 81q-5 -50 -23 -87q47 0 154 -20v-205h-61
q0 49 2 64h-72q7 -62 6 -127v-177q0 -59 -4 -99q45 6 129 6v-54q0 -78 -6 -109zM897 36v72q-48 -9 -111 -6h-96v63h129q72 0 108 -6q-4 20 -4 68t4 75h-68q4 -36 4 -77h-173v61q-1 76 6 131h-75q7 -42 6 -122v-7v-63h-139q0 55 4 75h-69q12 -84 0 -141q35 6 99 6h105v-63
h-71q-75 -3 -119 6v-72q44 6 117 6h234q61 0 109 -6zM196 225h-61v222h61v-222zM256 225v222h61v-222h-61zM587 270v48q-40 -9 -87 0v-48q31 8 87 0zM829 268v52q-37 -6 -93 0v-52q53 6 93 0zM460 363q22 4 66 4t61 -4v54q-53 -9 -127 0v-54zM738 363q69 9 123 0v52
q-60 -9 -123 0v-52zM927 459v71q-26 -4 -52 -5q-22 -1 -63 -1h-131l-12 60h139q51 0 93 -6q-5 34 0 224q3 47 -16 62q-16 16 -87 29q-7 -41 -34 -77q74 18 67 -36v-141h-81v90v19q-1 65 4 104h-66q6 -54 6 -121v-92h-69v101q0 71 6 112h-68q7 -35 6 -98v-19v-96h-73v127v24
q-3 54 4 95h-73q7 -42 6 -115v-12v-89q0 -64 -6 -91q40 6 109 6h71l8 -60h-93q-78 0 -113 6v-71q47 6 113 6h288q75 0 117 -6z" />
</svg>
