<?xml version="1.0" standalone="no"?>
<!DOCTYPE svg PUBLIC "-//W3C//DTD SVG 1.1//EN" "http://www.w3.org/Graphics/SVG/1.1/DTD/svg11.dtd" >
<svg xmlns="http://www.w3.org/2000/svg" xmlns:xlink="http://www.w3.org/1999/xlink" version="1.1" viewBox="-10 0 1034 1024">
  <g transform="matrix(1 0 0 -1 0 820)">
   <path fill="currentColor"
d="M304 39l30 10q12 -36 19 -63l44 20l-64 169l-28 -12q-7 -1 -15 -4q15 -25 32 -74l-57 -14l-26 -7v177q69 0 83 -2q18 0 37 -3q-3 30 -5 62l1 231l4 48q-73 -6 -86 -7h-34v138q0 12 3 28q3 18 18 38h-65q0 -1 1 -3q0 1 2 -11q1 -37 2 -190q-51 0 -77 2q-7 3 -28 4
q-4 1 -9 1q1 -33 5 -66l-1 -231q-1 -6 -2 -14q0 -15 -2 -30q49 4 76 5h38v-186q-30 -9 -70 -18q-39 -9 -71 -14q9 -12 16 -24l13 -26q48 21 144 49q36 9 72 17zM200 535v-258h-72v258h72zM316 535v-258h-77v258h77zM664 265l284 -3q3 0 10 -3v47q-18 -4 -60 -5l-502 3
q-4 1 -7 1q-3 1 -5 1v-47q18 6 63 6h175l-22 -87l-137 1q-7 1 -16 2q-15 0 -32 2l6 -67l-1 -229q-1 -9 -1 -18q-1 -13 -3 -28q0 -3 -1 -7h49q-4 15 -5 70v238h106l-1 -216q-3 -36 -4 -38v-6h48q-3 15 -4 40l-1 220h110l-1 -198q-1 -12 -2 -36q-1 -3 -2 -13h48q-3 15 -4 35
l-1 212h119v-210q0 -24 -8 -30q-15 -9 -42 -10q-16 0 -37 5q6 -16 11 -33q1 -9 3 -20q42 3 73 13q37 13 38 70l1 208l4 48q-36 -1 -71 -5h-198zM393 601q1 -31 5 -64l-3 -94q-1 -6 -2 -14h48q-3 15 -4 38l-1 92h199l-1 -173q-1 -12 -2 -39q-1 -3 -1 -8q-1 -3 -1 -6h51
q-4 19 -5 35l-1 191h214l-1 -70q-3 -24 -4 -52h50q-3 19 -4 32l-1 68q1 31 5 64q-33 -1 -66 -5h-193v91l190 -1q21 0 40 -5v47q-19 -4 -61 -5l-406 2q-3 1 -12 2q-3 1 -5 1v-47q7 3 26 4q7 1 67 2h121v-91l-195 1q-15 3 -47 4zM480 362q6 0 10 2l59 2l41 -4v42l-99 -2
q-3 1 -6 1q-3 1 -5 1v-42zM480 456q43 3 56 4l52 -4v41q-3 0 -5 -1q-33 0 -68 -3q-28 1 -31 3q-3 1 -4 1v-41zM713 459l36 4l76 -1q15 -1 14 -2q3 0 6 -1v42q-12 -3 -41 -4q-42 1 -86 3q-3 1 -5 1v-42zM715 367q15 4 32 5l92 -3l1 -1q3 0 5 -1v42q-6 -1 -20 -3q-99 0 -110 3
v-42z" />
  </g>

</svg>
