<?xml version="1.0" standalone="no"?>
<!DOCTYPE svg PUBLIC "-//W3C//DTD SVG 1.1//EN" "http://www.w3.org/Graphics/SVG/1.1/DTD/svg11.dtd" >
<svg xmlns="http://www.w3.org/2000/svg" xmlns:xlink="http://www.w3.org/1999/xlink" version="1.1" viewBox="-10 0 1010 1000">
   <path fill="currentColor"
d="M440 -17q100 0 98 9q0 2 -6 12q-12 20 -22 40h246q75 0 123 -6v64q-53 -6 -127 -6h-260q-4 7 -10 20q-7 16 -12 25h220q74 0 116 -6v60q-49 -6 -116 -6h-242q-2 3 -7 13q-13 23 -20 33h381q77 -3 119 -8v61q-51 -6 -115 -6h-104q82 88 252 125q-52 37 -63 76
q-67 -34 -153 -97q-12 -9 -18 -13v84q-1 56 6 83q-21 -6 -93 -6h-276q-63 -3 -99 6q6 -37 6 -71v-92q-71 50 -151 96q-33 -40 -81 -56q168 -51 266 -135h-125q-63 -3 -100 6v-61q22 5 104 8h160q8 -8 28 -35q5 -7 8 -11h-93q-69 0 -109 6v-62q50 8 113 8h113q12 -22 22 -45
h-175q-76 0 -121 6v-64q37 6 121 6h189q7 -38 7 -61zM385 282q-15 15 -41 37q-8 6 -11 9h340q-26 -25 -40 -46h-248zM657 367h-330v44h330v-44zM327 451v43h330v-43h-330zM683 548q69 0 77 6q1 1 -2 6q-12 14 -12 30q108 0 159 -6q-4 23 -4 81t4 87q-47 -8 -159 -8v76h87
l-25 -36l55 -20q46 62 79 117l-65 28q-8 -23 -24 -46q-285 11 -323 34q-4 -23 -24 -77q44 3 181 0v-76h-96q1 0 2 17q1 15 2 21h-65q5 -145 0 -200q32 5 68 7q17 0 37 1h52q0 -30 -4 -42zM256 550q14 1 36 1q41 0 41 5q2 3 -4 10q-10 12 -10 26q108 0 155 -6q-4 18 -4 77
q0 60 4 87q-47 -10 -155 -4v72q13 1 38 0t38 0q-3 -8 -8 -20q-7 -15 -8 -20l56 -14q26 47 55 127l-65 18q-4 -28 -14 -49q-265 18 -340 37q-1 -3 -2 -11q-7 -41 -15 -66h206v-74h-93q0 21 2 40h-68q4 -37 5 -105q-1 -66 -5 -95q42 6 159 6q0 -27 -4 -42zM167 639v60h93v-60
h-93zM319 639v60h94v-60h-94zM746 637v60h95v-60h-95zM591 637v60h96v-60h-96z" />
</svg>
