<?xml version="1.0" standalone="no"?>
<!DOCTYPE svg PUBLIC "-//W3C//DTD SVG 1.1//EN" "http://www.w3.org/Graphics/SVG/1.1/DTD/svg11.dtd" >
<svg xmlns="http://www.w3.org/2000/svg" xmlns:xlink="http://www.w3.org/1999/xlink" version="1.1" viewBox="-10 0 1010 1000">
   <path fill="currentColor"
d="M179 2q98 3 93 10q1 6 -7 17q-15 22 -15 47v97q100 0 131 -6q-8 30 -8 153v168q94 -68 123 -182q-79 0 -95 6q6 -15 6 -113v-72q0 -79 -8 -113q23 6 111 6t121 -8q-6 25 -6 123v64q0 82 8 113q-20 -6 -93 -6q4 1 12 4q27 9 27 12q0 1 -5 5q-18 12 -30 31h119
q-6 -26 -16 -38h71q5 8 8 38h52q116 0 129 -6v51q-13 -4 -40 -5q-28 -1 -93 -1h-66v40h46q91 0 123 -8v56q-47 -8 -125 -8h-44v43h42q101 0 127 -8v56q-27 -8 -123 -8h-46v42h60q111 0 139 -6v51q-21 -6 -135 -6h-248q0 10 6 22h-70q6 -14 6 -97v-85q-17 18 -41 57l-15 -12
q-22 -19 -37 -26l6 38q-45 -3 -79 0q6 -18 6 -42h-56v199q7 -1 20 -3q32 -4 43 -7q-13 -49 -25 -70l67 -17q25 64 58 172l-76 26q-1 -26 -10 -58q-166 30 -256 64q-19 -64 -31 -85h6q40 1 142 -14v-207h-53q0 69 6 82h-79q7 -31 7 -177v-87q0 -106 -9 -147q12 3 42 5
q14 0 34 1h52q0 -144 -9 -171zM913 14q-10 30 -10 121v62q0 86 10 113q-14 -6 -127 -6q-83 0 -115 4q6 -26 6 -119v-66q0 -86 -6 -109q27 4 101 4h38q59 0 75 -1q22 0 28 -3zM565 64h-99v49h99v-49zM843 62h-107v48h107v-48zM843 145h-107v40h107v-40zM565 149h-99v38h99
v-38zM843 221h-107v39h107v-39zM565 223h-99v39h99v-39zM308 237h-58v196h58v-196zM188 237h-55v196h55v-196zM645 397h-121v40h121v-40zM645 477h-121v45h121v-45zM645 562h-119v40h119v-40zM887 669q-41 53 -177 149q52 15 124 16q72 2 128 -10q-11 16 -32 71q-3 8 -5 12
q-168 -5 -280 -49q-88 30 -268 55q-7 -40 -48 -77q59 4 130 -1t118 -17q-59 -29 -105 -60l50 -29q-87 0 -113 6v-64q25 8 151 8h158q118 0 169 -10zM732 729h-182q4 3 13 9q63 44 84 50q33 -16 85 -59z" />
</svg>
