<?xml version="1.0" standalone="no"?>
<!DOCTYPE svg PUBLIC "-//W3C//DTD SVG 1.1//EN" "http://www.w3.org/Graphics/SVG/1.1/DTD/svg11.dtd" >
<svg xmlns="http://www.w3.org/2000/svg" xmlns:xlink="http://www.w3.org/1999/xlink" version="1.1" viewBox="-10 0 1034 1024">
  <g transform="matrix(1 0 0 -1 0 820)">
   <path fill="currentColor"
d="M202 -44l-139 2q1 0 -10 3l-2 1v-48q3 1 7 2q1 1 3 1q6 3 30 3l813 1l55 -4q3 0 10 -3v48q-21 -6 -65 -6h-61l1 563l4 49q-31 -1 -64 -5h-392q1 6 61 91q33 49 64 70q-21 6 -33 13q-10 6 -32 17q-6 -27 -34 -79q-19 -28 -37 -59q-21 -33 -37 -53l-102 1q-15 3 -45 4
q4 -64 5 -68v-544zM240 -44v571h164v-571h-164zM441 -44v571h158v-571h-158zM636 -44v571h169v-571h-169z" />
  </g>

</svg>
