<?xml version="1.0" standalone="no"?>
<!DOCTYPE svg PUBLIC "-//W3C//DTD SVG 1.1//EN" "http://www.w3.org/Graphics/SVG/1.1/DTD/svg11.dtd" >
<svg xmlns="http://www.w3.org/2000/svg" xmlns:xlink="http://www.w3.org/1999/xlink" version="1.1" viewBox="-10 0 1010 1000">
   <path fill="currentColor"
d="M220 -8q108 19 107 28q0 3 -7 12q-35 46 -58 121h141q53 0 91 -4q-6 38 -6 80v436l32 -10v-83q78 8 133 8h32v-135h-42q-60 -1 -121 8v-84q60 9 117 10h49v-279q0 -84 -9 -108q93 1 97 8q0 5 -5 13q-9 17 -9 37v327h46q36 0 115 -8v84q-53 -8 -117 -8h-46v133h73
q58 -1 129 -8v87q-44 -8 -127 -8h-75v56q0 73 8 198h-93q10 -107 10 -196v-58h-30q-48 0 -119 6l-6 76l-474 93l-28 -84l57 -5v-502q0 -14 -5 -55q-2 -21 -3 -33q52 6 88 6h27q20 -70 28 -159zM853 74q91 18 91 30q0 3 -9 14q-17 19 -22 33q-9 25 -27 86q-16 53 -23 75
q-30 -13 -71 -14q45 -132 61 -224zM587 84q27 84 56 214l-78 16q-10 -90 -51 -206zM206 221h-61v508l61 -8v-500zM429 221h-70v472l70 -14v-458zM312 221h-58v492l58 -10v-482z" />
</svg>
