<?xml version="1.0" standalone="no"?>
<!DOCTYPE svg PUBLIC "-//W3C//DTD SVG 1.1//EN" "http://www.w3.org/Graphics/SVG/1.1/DTD/svg11.dtd" >
<svg xmlns="http://www.w3.org/2000/svg" xmlns:xlink="http://www.w3.org/1999/xlink" version="1.1" viewBox="-10 0 1010 1000">
   <path fill="currentColor"
d="M270 -6l69 64q-141 162 -250 252q-25 -45 -55 -66q154 -126 236 -250zM883 60v89q-91 -5 -151 -6h-107q-114 0 -163 6v-89q86 7 161 8h105q100 -3 155 -8zM308 207q88 56 87 67q-91 71 -125 129v326q0 106 4 168h-91q6 -56 7 -166v-246q-56 64 -99 115q-26 -46 -59 -68
q154 -144 276 -325zM948 318v91q-59 -7 -158 -8h-32v419q1 41 -26 56q-27 17 -111 25q-11 -54 -42 -97q99 9 96 -28v-375h-96q-113 1 -170 8v-89q72 5 170 6h205q113 -2 164 -8z" />
</svg>
