<?xml version="1.0" standalone="no"?>
<!DOCTYPE svg PUBLIC "-//W3C//DTD SVG 1.1//EN" "http://www.w3.org/Graphics/SVG/1.1/DTD/svg11.dtd" >
<svg xmlns="http://www.w3.org/2000/svg" xmlns:xlink="http://www.w3.org/1999/xlink" version="1.1" viewBox="-10 0 1034 1024">
  <g transform="matrix(1 0 0 -1 0 820)">
   <path fill="currentColor"
d="M55 199q15 -9 29 -19q30 33 50 58q21 24 52 70q6 10 13 19v-422q0 -36 -2 -53q-1 -6 -3 -13h49q-3 33 -5 66v486q27 63 70 104q-30 9 -53 24q-21 -51 -44 -94q-28 -54 -50 -84q-19 -28 -53 -69q-34 -39 -72 -62q9 -4 19 -11zM258 667q9 15 21 32q12 15 34 30
q-30 15 -56 32q-22 -63 -72 -136q-39 -54 -69 -86q-28 -28 -64 -50q22 -7 48 -25q45 48 74 84q27 33 54 75zM576 551q37 0 63 -5l2 -1v47q-27 -4 -65 -5h-143q45 93 53 104q13 22 32 40q-18 4 -28 8q-13 3 -31 13q-10 -45 -41 -112q-33 -70 -64 -117q-28 -42 -65 -71l24 -8
q4 0 32 -12l74 119h157zM462 249l-147 5v-47q4 3 23 5l124 1v-209q0 -12 -9 -25q-9 -9 -23 -22q18 -24 29 -49q25 30 71 59l130 86q-6 27 -9 45q-60 -52 -151 -104v219q108 0 124 -2q15 0 27 -4v47q-22 -4 -66 -5h-85v141h56q18 0 50 -3q6 0 16 -3v47q-22 -4 -66 -5
q-196 3 -205 5v-47q3 1 7 2q15 3 104 4v-141zM871 390l104 -3q3 0 11 -3v47q-22 -4 -66 -5l-269 5v-47q3 1 8 2q1 1 3 1q39 1 80 3h91v-449q0 -27 -12 -37q-18 -10 -47 -11q-7 0 -46 4q-6 1 -25 4q9 -19 18 -54q36 0 56 3q48 6 71 20q22 16 23 51v469zM667 634q6 1 9 2
q19 3 43 4l185 -1q24 0 42 -5v47q-27 -4 -95 -5l-179 3q-3 1 -5 2v-47z" />
  </g>

</svg>
