<?xml version="1.0" standalone="no"?>
<!DOCTYPE svg PUBLIC "-//W3C//DTD SVG 1.1//EN" "http://www.w3.org/Graphics/SVG/1.1/DTD/svg11.dtd" >
<svg xmlns="http://www.w3.org/2000/svg" xmlns:xlink="http://www.w3.org/1999/xlink" version="1.1" viewBox="-10 0 1034 1024">
  <g transform="matrix(1 0 0 -1 0 820)">
   <path fill="currentColor"
d="M166 288q12 13 25 29v-412q0 -37 -3 -52q0 -3 -2 -12h49q-3 6 -4 26q0 18 -2 38v465q43 66 53 76q10 12 35 22q-22 12 -56 35q-7 -34 -67 -118q-21 -33 -52 -68q-27 -33 -49 -51q-30 -24 -55 -32q24 -12 51 -32q37 43 77 86zM51 513l25 -13q6 -3 24 -19q52 57 86 96
q28 34 52 69q36 52 41 58q6 7 29 16q-33 19 -53 37q-30 -78 -109 -169q-61 -66 -95 -75zM393 347q-76 0 -101 3l-13 2v-47q7 3 28 4q12 1 136 2q229 0 242 -2q6 0 17 -4v47q-39 -1 -78 -5l4 139q1 33 5 65q-27 -1 -55 -5h-117l20 130q153 0 169 -2l19 -4v47q-3 0 -8 -2
q-15 0 -31 -2l-296 1l-17 3v-47q7 3 29 4q12 1 98 2l-20 -130q-72 0 -95 5v-47q12 6 52 6h38zM430 347l26 163h136l-5 -163h-157zM356 224q4 -66 5 -102l-1 -179q-1 -16 -4 -29h49q-4 15 -5 52q0 4 -1 16h213l-4 -62q-1 -1 -1 -5h50q-4 12 -5 24q-1 27 -2 76l1 162q0 4 6 47
q-30 -1 -62 -5l-194 1q-19 3 -45 4zM399 18v165h213v-165h-213zM691 -97q1 -6 4 -12q7 -24 9 -33q93 6 124 20q30 12 33 73l2 436q81 0 103 -3q3 0 9 -3v47q-10 -1 -22 -4l-243 1q-3 0 -16 3v-47q7 3 28 4q12 1 103 2v-431q0 -31 -12 -42q-18 -10 -54 -11q-24 0 -70 7
q0 -3 2 -7zM718 645q1 0 38 5l107 1q39 0 57 -4q1 0 5 -2v47l-99 -5l-92 2q-3 1 -4 1q-3 0 -12 2v-47z" />
  </g>

</svg>
