<?xml version="1.0" standalone="no"?>
<!DOCTYPE svg PUBLIC "-//W3C//DTD SVG 1.1//EN" "http://www.w3.org/Graphics/SVG/1.1/DTD/svg11.dtd" >
<svg xmlns="http://www.w3.org/2000/svg" xmlns:xlink="http://www.w3.org/1999/xlink" version="1.1" viewBox="-10 0 1010 1000">
   <path fill="currentColor"
d="M437 -12q96 -1 109 8q2 5 -3 16q-15 31 -15 82h222q43 0 109 -4v83q-37 -4 -105 -4h-226v71h202q21 0 62 -2q24 -1 37 -1v79q-14 -2 -35 -3q-18 -1 -62 -1h-204v77h289q61 -1 106 -4v84q-15 -2 -38 -3q-11 -1 -26 -1h-38h-269q11 52 83 160q61 -49 123 -127q80 43 85 54
q0 4 -16 14q-64 35 -144 103q136 85 263 95q0 1 -8 8q-44 37 -71 90q-318 -107 -387 -397h-8q-3 4 -8 12q-41 58 -65 87v210q57 -35 123 -89l28 87q-156 85 -215 135l-51 -75l35 -26v-171q-72 67 -206 151q-43 -50 -77 -75q218 -74 353 -246h-202q-45 0 -68 1q-27 1 -50 3
v-84q57 3 116 4h259v-77h-162q-79 0 -115 4v-79h8q56 3 103 3h166v-71h-192q-48 0 -71 1q-28 1 -50 3v-83q57 3 125 4h188q0 -41 -6 -89q-2 -16 -1 -17z" />
</svg>
