<?xml version="1.0" standalone="no"?>
<!DOCTYPE svg PUBLIC "-//W3C//DTD SVG 1.1//EN" "http://www.w3.org/Graphics/SVG/1.1/DTD/svg11.dtd" >
<svg xmlns="http://www.w3.org/2000/svg" xmlns:xlink="http://www.w3.org/1999/xlink" version="1.1" viewBox="-10 0 1034 1024">
  <g transform="matrix(1 0 0 -1 0 820)">
   <path fill="currentColor"
d="M274 -91q0 -45 -6 -66h49q-3 4 -5 49v371q10 -7 22 -15q51 -34 83 -59q24 -19 55 -54q1 6 5 10q3 6 6 11q4 12 17 25q-3 3 -6 4q-7 4 -14 9q-25 21 -69 53q6 15 38 63q19 30 27 35q15 16 35 22q-30 12 -62 33q-3 -16 -17 -46q-18 -33 -53 -87q-33 22 -67 42v42
q96 99 162 229q-69 -4 -80 -5l-274 1q-27 3 -34 4v-48q13 6 54 7h264q-51 -100 -177 -209q-54 -42 -90 -63q-33 -18 -84 -33q31 -27 44 -45q99 63 177 128v-408zM238 728q45 -34 77 -62q33 -30 49 -48l33 34q-31 30 -68 61q-54 43 -60 50q-3 -3 -10 -12q0 -1 -21 -23z
M449 -104q27 -24 46 -48q124 54 209 111q84 54 164 139q54 57 70 71q12 10 42 27q-27 25 -49 49q-33 -51 -79 -104q-115 -129 -259 -199q-76 -34 -144 -46zM519 464q21 -13 46 -38q58 39 105 81q45 40 102 107l62 70q16 19 41 32q-24 13 -51 42q-21 -42 -63 -95
q-84 -102 -160 -159q-42 -27 -82 -40zM842 381q12 16 29 31q15 15 45 29q-27 25 -44 46q-79 -109 -119 -148q-66 -64 -113 -93q-51 -31 -111 -48q19 -15 33 -33q3 -6 10 -13q136 78 232 187q18 21 38 42v0z" />
  </g>

</svg>
