<?xml version="1.0" standalone="no"?>
<!DOCTYPE svg PUBLIC "-//W3C//DTD SVG 1.1//EN" "http://www.w3.org/Graphics/SVG/1.1/DTD/svg11.dtd" >
<svg xmlns="http://www.w3.org/2000/svg" xmlns:xlink="http://www.w3.org/1999/xlink" version="1.1" viewBox="-10 0 1010 1000">
   <path fill="currentColor"
d="M540 -4q25 50 35 104h167q132 -1 181 -14v89q-21 -5 -59 -6q-37 -2 -122 -2h-452q-174 -1 -199 8v-83q13 5 57 6q42 2 140 2h206q-12 -42 -50 -86zM218 217q42 8 181 8h196q84 0 118 -1q41 -1 63 -5q-9 15 -8 133q66 0 96 -2q34 -1 51 -6v75q-25 -8 -147 -8q0 109 8 135
q-56 -8 -169 -8h-99q-8 8 -29 26q-74 66 -90 79v123q55 -28 109 -69l22 79q-111 60 -199 125l-35 -77l3 -2q26 -20 28 -32v-99q-107 61 -206 105q-12 -33 -63 -69q217 -52 361 -187q-153 0 -193 8q9 -33 8 -137q-82 0 -107 1q-33 1 -50 5v-73q25 8 157 8q0 -63 -1 -88
q-1 -30 -5 -47zM300 282v70h392v-70h-392zM300 409v74h392v-74h-392zM724 564q67 36 76 48q0 2 -10 5q-24 8 -42 20q-9 6 -40 30q-24 18 -35 26q123 68 258 73q-53 48 -68 90q-260 -78 -385 -254l64 -32q13 41 83 87q68 -52 99 -93z" />
</svg>
