<?xml version="1.0" standalone="no"?>
<!DOCTYPE svg PUBLIC "-//W3C//DTD SVG 1.1//EN" "http://www.w3.org/Graphics/SVG/1.1/DTD/svg11.dtd" >
<svg xmlns="http://www.w3.org/2000/svg" xmlns:xlink="http://www.w3.org/1999/xlink" version="1.1" viewBox="-10 0 1034 1024">
  <g transform="matrix(1 0 0 -1 0 820)">
   <path fill="currentColor"
d="M627 260q-39 -204 -193 -326q-69 -49 -110 -52q22 -18 47 -43q54 34 98 71q37 34 78 80q73 88 117 248q22 -70 71 -159q54 -99 130 -173l62 -62q21 21 49 40q-43 13 -95 65q-73 79 -123 167q-21 36 -34 66l-27 78q246 0 267 -3q3 0 9 -3v47l-91 -5l1 238l4 33v11
q-54 -6 -76 -6h-130v133q0 9 2 27q3 21 14 36h-60l1 -2q0 -1 1 -3q0 -1 1 -4l3 -107v-80l-127 1q-3 1 -6 1q-18 0 -37 4v-48q7 3 12 4q28 1 54 3h104q0 -171 -9 -241q-150 0 -176 2l-19 3v-47q6 3 13 3q27 3 53 3h122zM672 296q3 30 5 53l4 188h163v-241h-172zM98 192
q87 78 148 140l-1 -450q-1 -1 -1 -6q0 -10 -4 -36h50q0 4 -3 10q0 -1 -2 16q0 19 -2 38v354q10 -7 22 -17l41 -29q54 -49 81 -79l1 -2q7 9 12 16q0 1 5 6q1 3 4 4q3 6 8 10l-45 39q-13 9 -27 21q-12 12 -31 28q16 22 34 43q39 51 53 66q12 12 38 22q-31 18 -55 39
q-6 -18 -14 -28l-57 -87l-28 -34l-42 30v72q57 66 136 189q-19 -1 -32 -2q-21 -3 -29 -3l-258 1q-12 0 -30 4v-47q6 3 13 3q27 3 53 3h209q-72 -117 -177 -220q-43 -42 -79 -66q-30 -18 -58 -23q12 -6 23 -14l29 -24q7 7 15 13zM203 733q58 -52 105 -134q30 27 37 31l-51 65
q-21 27 -57 67q-18 -18 -34 -29v0z" />
  </g>

</svg>
