<?xml version="1.0" standalone="no"?>
<!DOCTYPE svg PUBLIC "-//W3C//DTD SVG 1.1//EN" "http://www.w3.org/Graphics/SVG/1.1/DTD/svg11.dtd" >
<svg xmlns="http://www.w3.org/2000/svg" xmlns:xlink="http://www.w3.org/1999/xlink" version="1.1" viewBox="-10 0 1010 1000">
   <path fill="currentColor"
d="M248 -8q26 40 74 132q5 9 7 13l-87 38q-20 -61 -75 -147zM859 52q70 91 64 101q-3 2 -17 0q-35 -6 -69 -2q-96 12 -127 18v228h76q107 0 137 -8v86q-37 -9 -139 -6h-74v303h76q100 0 137 -8v94q-49 -10 -137 -10h-221q-97 0 -144 8v-94q39 9 133 10h77v-301h-56
q-78 2 -117 10v-90q37 6 115 8h58v-220q-77 9 -179 28q-9 -41 -45 -88q238 5 452 -67zM56 187q45 7 107 8h109q91 0 133 -6q-25 65 -133 210v48q6 11 38 32q49 -74 59 -110q79 36 79 44q-3 5 -13 12q-36 27 -82 91l91 76l-59 67q-9 -11 -37 -46q-60 -77 -76 -93v220
q0 119 8 173h-103q13 -47 13 -171v-244q-56 72 -109 123l-2 -4q-20 -39 -55 -71q137 -92 250 -280h-89q-108 3 -129 8v-87z" />
</svg>
