<?xml version="1.0" standalone="no"?>
<!DOCTYPE svg PUBLIC "-//W3C//DTD SVG 1.1//EN" "http://www.w3.org/Graphics/SVG/1.1/DTD/svg11.dtd" >
<svg xmlns="http://www.w3.org/2000/svg" xmlns:xlink="http://www.w3.org/1999/xlink" version="1.1" viewBox="-10 0 1034 1024">
  <g transform="matrix(1 0 0 -1 0 820)">
   <path fill="currentColor"
d="M42 472q21 -21 41 -49q42 18 99 50q57 31 107 65q79 55 194 163l112 -87q43 -30 106 -62q103 -54 247 -94q12 27 33 53q-33 1 -91 15q-54 12 -101 31q-174 70 -281 173q12 12 35 25q-3 3 -18 7l-21 8q-6 3 -19 12q-24 -45 -88 -108q-63 -60 -133 -106q-138 -87 -222 -96z
M439 176q-51 -45 -90 -72q-43 -30 -96 -59q-99 -52 -193 -63q24 -24 40 -48q51 19 92 37q34 13 62 28q45 24 98 59v-131q0 -16 -4 -31q-3 -10 -16 -21q24 -27 38 -48q25 31 46 45l144 98l-13 52q-15 -22 -47 -46l-109 -74v183q13 15 108 91l383 -1q18 0 41 -5v47
q-28 -4 -66 -5h-289q3 9 8 12q6 7 17 19l-131 99q-9 -15 -29 -35q70 -39 124 -95l-427 1q-27 3 -34 4v-47q6 3 13 3q27 3 53 3h277zM751 458l-45 -4l-455 5v-47q6 3 13 3q24 3 53 3h377q-63 -84 -114 -115q24 -12 43 -28q28 30 61 68l90 116q-12 0 -23 -1zM567 480
q9 13 19 21l9 9l-125 93q-15 -18 -31 -34q82 -39 124 -94q1 3 4 5zM603 64q16 -16 34 -33q45 -39 102 -70q24 -15 82 -41q57 -24 112 -44q15 28 38 48q-127 12 -249 92q28 30 61 54q30 25 62 33q-18 18 -41 46q-9 -12 -42 -47q-33 -31 -70 -64q-63 48 -99 108
q-18 -15 -42 -28q9 -6 52 -54v0z" />
  </g>

</svg>
