<?xml version="1.0" standalone="no"?>
<!DOCTYPE svg PUBLIC "-//W3C//DTD SVG 1.1//EN" "http://www.w3.org/Graphics/SVG/1.1/DTD/svg11.dtd" >
<svg xmlns="http://www.w3.org/2000/svg" xmlns:xlink="http://www.w3.org/1999/xlink" version="1.1" viewBox="-10 0 1034 1024">
  <g transform="matrix(1 0 0 -1 0 820)">
   <path fill="currentColor"
d="M336 -90q0 -21 -5 -31q-1 -3 -13 -15q7 -9 13 -16q6 -9 12 -22q18 12 33 25q69 45 127 80q24 13 46 30q-4 25 -7 49q-48 -39 -77 -58q-52 -36 -91 -57v179q33 22 58 44q27 21 66 56q399 0 405 -3q6 0 10 -2v43q-43 -4 -65 -5h-319q7 9 14 17l9 9q-15 18 -51 46
q-24 19 -49 42l-29 -33l59 -45q19 -18 34 -36h-350q-42 0 -64 5v-43q9 3 64 5h271q-55 -60 -169 -119q-126 -60 -213 -72q27 -21 39 -40q157 54 242 109v-142zM514 91q15 -19 32 -39l41 -43q60 -54 125 -88q87 -45 222 -73q3 9 20 29q6 9 15 16q-7 0 -26 2q-70 4 -151 31
q-82 28 -149 83q39 49 63 73q27 27 42 31q6 3 16 5l-46 26q-3 3 -10 7q-9 -10 -16 -21q-21 -33 -39 -54q-15 -18 -40 -41q-27 27 -47 53q-15 24 -22 48q-39 -19 -48 -23q9 -10 18 -22zM892 361q-1 -6 -1 -14q-3 -33 -16 -47q-19 -21 -61 -21q-19 0 -47 3q15 -19 23 -49
q66 6 95 21q24 12 34 29q7 16 11 59q0 10 7 58q-45 -4 -57 -5h-601v236h497l-1 -29q-3 -72 -19 -89q-15 -15 -59 -15q-30 0 -63 5q15 -27 23 -54q93 4 124 30q30 24 34 99q0 40 5 75l3 19q-34 -1 -69 -5h-298q3 9 11 17q21 36 31 45q7 9 31 19l-21 9q-12 4 -21 9
q-3 1 -16 11q-27 -66 -64 -110h-102q-9 0 -35 3q-15 0 -34 2q1 -34 5 -71l-1 -200l-4 -45q34 3 71 5h585zM405 546q69 -27 143 -78q13 21 22 41l-129 68q-7 3 -16 8q0 -1 -4 -11q-3 -9 -16 -28v0z" />
  </g>

</svg>
