<?xml version="1.0" standalone="no"?>
<!DOCTYPE svg PUBLIC "-//W3C//DTD SVG 1.1//EN" "http://www.w3.org/Graphics/SVG/1.1/DTD/svg11.dtd" >
<svg xmlns="http://www.w3.org/2000/svg" xmlns:xlink="http://www.w3.org/1999/xlink" version="1.1" viewBox="-10 0 1034 1024">
  <g transform="matrix(1 0 0 -1 0 820)">
   <path fill="currentColor"
d="M686 261q-6 13 -10 27v29l221 -1q21 0 29 -3q1 0 5 -1v47q-18 -6 -63 -6h-192l1 287l86 17q33 6 65 16q16 4 31 5q9 0 27 -6l-24 67q-67 -28 -116 -40q-87 -18 -179 -34q-40 -6 -122 -13q-18 0 -49 3l17 -27q9 -18 13 -31q10 0 22 4l62 10q33 6 71 14l57 9v-281
q-180 0 -199 3l-9 3v-47q1 1 5 1q3 3 42 3l159 1q-4 -180 -76 -275q-58 -81 -127 -123q-49 -28 -86 -31q24 -21 40 -43q162 93 229 216q13 27 25 58q10 34 24 88q45 -123 97 -194q51 -69 169 -164q27 19 58 36q-42 6 -111 64q-114 100 -172 254zM240 -89q-3 -51 -5 -62h48
q-1 3 -1 5q0 1 -4 53v322l29 -19l34 -26q40 -30 59 -51q6 9 11 19q6 6 14 19q-3 1 -76 54l-4 4q3 7 7 15q0 3 17 31l12 24q13 30 27 47q7 10 27 26q-27 13 -49 31q-7 -27 -19 -52q-10 -21 -20 -43q-9 -21 -32 -60q-19 13 -37 27v37q25 39 47 76q19 36 44 89q16 36 25 54
q-30 -1 -59 -5l-228 1q-19 1 -28 4v-46q7 3 34 4l220 1q-66 -180 -214 -282q-33 -22 -63 -26q15 -12 23 -19l19 -22q69 48 142 127v-357zM320 617q-18 21 -81 85l-43 43q-12 -15 -29 -29q30 -24 70 -64l55 -66q4 -7 11 -16q12 15 33 29q-9 9 -16 18v0z" />
  </g>

</svg>
