<?xml version="1.0" standalone="no"?>
<!DOCTYPE svg PUBLIC "-//W3C//DTD SVG 1.1//EN" "http://www.w3.org/Graphics/SVG/1.1/DTD/svg11.dtd" >
<svg xmlns="http://www.w3.org/2000/svg" xmlns:xlink="http://www.w3.org/1999/xlink" version="1.1" viewBox="-10 0 1010 1000">
   <path fill="currentColor"
d="M448 -17q104 1 108 15q0 4 -6 12q-14 18 -14 36v36h210q71 0 119 -8v81q-27 -6 -121 -6h-208v78h266q101 0 135 -8v85q-52 -10 -137 -10h-602q-72 0 -142 10v-85q59 8 142 8h256v-80h-186q-72 0 -117 8v-83q55 8 115 8h188v-28q0 -54 -6 -69zM188 352q75 8 165 8h294
q92 0 155 -8q-8 26 -8 103v24q-1 75 8 105q-26 -9 -135 -8h-121q29 63 83 115q57 -38 113 -101q74 49 85 65q0 2 -11 7q-54 23 -137 73q82 43 263 61q-43 44 -63 95q-319 -63 -397 -303q-21 18 -61 53q-33 29 -48 42v131q107 -54 149 -77q-10 44 2 89q-186 71 -220 105
q-10 -25 -36 -64q-5 -9 -8 -13q34 -15 36 -36v-95q-104 48 -217 91q-25 -54 -57 -83q201 -31 377 -155h-95q-54 0 -106 7q-7 1 -10 1q0 -3 1 -9q7 -41 7 -98v-30q0 -60 -8 -95zM280 421v93h430v-93h-430z" />
</svg>
