<?xml version="1.0" standalone="no"?>
<!DOCTYPE svg PUBLIC "-//W3C//DTD SVG 1.1//EN" "http://www.w3.org/Graphics/SVG/1.1/DTD/svg11.dtd" >
<svg xmlns="http://www.w3.org/2000/svg" xmlns:xlink="http://www.w3.org/1999/xlink" version="1.1" viewBox="-10 0 1010 1000">
   <path fill="currentColor"
d="M254 -10q101 4 101 16q0 1 -2 4q-20 22 -26 96h119q33 0 72 -6q-3 23 -9 77q-11 93 -17 129q-6 44 -35 57q-25 15 -122 26q1 -51 -27 -93q99 21 111 -20q12 -62 16 -107h-116q-38 177 -190 266q-38 -47 -79 -64q156 -39 192 -202h-67q-58 0 -82 4v-75q24 5 78 8h79
q6 -93 4 -116zM583 76q27 3 86 4h111q59 -1 107 -4q-6 36 -6 109v111q0 53 4 79q-31 -4 -89 -4h-121q-70 0 -98 4q7 -34 8 -91v-133q0 -17 -1 -45q-1 -21 -1 -30zM661 147v157h145v-157h-145zM546 373q15 27 27 94h246q58 0 102 -8v87q-27 -8 -96 -8h-273q21 57 79 121
q66 -53 113 -111q76 57 75 67q-1 4 -13 8q-20 7 -36 18q-24 17 -85 64q131 55 246 59q-37 40 -60 111q-307 -92 -381 -317q-59 65 -107 93v133l123 -69l18 83q-8 4 -23 10q-120 49 -191 95l-36 -77q29 -13 34 -42v-85q-64 36 -203 91q-19 -50 -61 -85q186 -19 371 -167h-213
q-77 0 -119 6v-81q33 3 119 4h292q-12 -44 -38 -82z" />
</svg>
