<?xml version="1.0" standalone="no"?>
<!DOCTYPE svg PUBLIC "-//W3C//DTD SVG 1.1//EN" "http://www.w3.org/Graphics/SVG/1.1/DTD/svg11.dtd" >
<svg xmlns="http://www.w3.org/2000/svg" xmlns:xlink="http://www.w3.org/1999/xlink" version="1.1" viewBox="-10 0 1034 1024">
  <g transform="matrix(1 0 0 -1 0 820)">
   <path fill="currentColor"
d="M345 -81q0 -12 -6 -24q-6 -10 -22 -23q15 -18 29 -41q21 21 38 32q37 27 77 52l97 61q-3 18 -9 43q0 3 -2 7q-22 -21 -59 -47q-45 -30 -69 -47l-36 -22v197q45 43 93 99l444 -1q12 0 41 -6v48q-24 -6 -66 -6h-746q-16 0 -54 3q-7 0 -13 3v-48q3 0 41 6l298 1
q-121 -144 -278 -217q-30 -15 -51 -23q-15 -6 -41 -12q22 -21 38 -43q72 39 150 88q33 19 52 34q21 15 54 44v-158zM466 356q-1 -3 -17 -24q54 -30 121 -85q15 21 24 31q-18 16 -34 26q-28 19 -51 37q-12 9 -37 24zM454 617l-11 -133q0 -18 -3 -27q-3 -24 -13 -37
q-13 -18 -46 -18q-16 0 -49 5q9 -24 9 -32l3 -16q52 3 83 14q43 18 51 92q9 150 12 159q1 13 5 34q-28 -1 -32 -3q-22 -3 -30 -3h-123q3 25 4 46q0 18 3 30q3 18 14 38q-12 1 -24 1q-19 0 -38 4q3 -25 4 -61q0 -21 -3 -58h-101q-16 0 -54 3q-7 0 -13 3v-48q6 3 51 7h113
q-12 -87 -54 -161q-48 -75 -119 -110q28 -18 45 -36q135 129 168 307h148zM818 189q-34 -36 -65 -62q-31 -27 -83 -66q-72 75 -82 123q-24 -18 -47 -29q10 -10 18 -19q7 -10 23 -30q75 -99 174 -165q97 -63 189 -86q6 19 26 51q-52 4 -108 26q-99 36 -163 104q6 7 79 64
q30 24 44 33q7 6 35 14q-16 13 -40 42zM828 388q30 0 65 -5q-4 49 -5 74l1 181l4 46q-66 -6 -77 -6q-166 0 -192 2q-1 0 -37 4q1 -31 5 -64l-1 -193q-3 -12 -4 -44q49 4 98 5h143zM850 643v-219h-221v219h221z" />
  </g>

</svg>
