<?xml version="1.0" standalone="no"?>
<!DOCTYPE svg PUBLIC "-//W3C//DTD SVG 1.1//EN" "http://www.w3.org/Graphics/SVG/1.1/DTD/svg11.dtd" >
<svg xmlns="http://www.w3.org/2000/svg" xmlns:xlink="http://www.w3.org/1999/xlink" version="1.1" viewBox="-10 0 1010 1000">
   <path fill="currentColor"
d="M542 -6q12 66 20 84h220q102 0 145 -8v83q-44 -6 -149 -6h-548h-20q-96 -1 -131 6v-81q43 5 147 6h254q-3 -7 -13 -27q-16 -34 -25 -55zM810 189v75q-3 2 -12 2q-35 0 -82 22q-93 46 -113 62h177q88 0 151 -8q-45 98 -84 160q-21 -13 -79 -20q-4 -1 -6 -1q14 -15 53 -68
h-202v40q1 60 -4 69q-9 25 -51 32l5 10l-13 10q3 4 9 13q46 63 66 78q66 -55 111 -115q76 36 83 48q-3 6 -21 15q-23 11 -38 22q-68 52 -91 70q109 70 273 81q-61 73 -69 97q-267 -63 -379 -281q-42 26 -121 83v103q78 -33 125 -59q-6 44 0 81q-121 45 -200 95
q-14 -42 -38 -67q29 -18 36 -28q8 -10 8 -30v-59q-62 32 -169 84l-42 21q-29 -54 -69 -82q223 -36 438 -210q-6 -19 -22 -46q69 10 90 -1q10 -9 10 -74h-56q-145 143 -329 208q-18 -38 -70 -75q137 -11 314 -133h-147h-27q-88 -1 -114 4v-73q22 3 54 5q15 1 34 1h49h212
q-44 -26 -103 -50l46 -42h-88q-91 -1 -142 6v-75q54 5 142 6h324q123 0 171 -6zM663 258h-236q52 32 109 72q79 -51 127 -72z" />
</svg>
