<?xml version="1.0" standalone="no"?>
<!DOCTYPE svg PUBLIC "-//W3C//DTD SVG 1.1//EN" "http://www.w3.org/Graphics/SVG/1.1/DTD/svg11.dtd" >
<svg xmlns="http://www.w3.org/2000/svg" xmlns:xlink="http://www.w3.org/1999/xlink" version="1.1" viewBox="-10 0 1010 1000">
   <path fill="currentColor"
d="M389 -19q102 12 105 23q0 2 -5 7q-15 17 -19 37q-1 6 -6 22q-7 29 -10 40h284q126 0 171 -8v85q-17 -5 -115 -4h-52h-161v109q93 -47 159 -101q60 54 68 71q-1 1 -7 1q-22 -2 -41 7q-127 67 -175 86q-1 18 10 21q9 4 54 4h113q62 6 75 -91q38 39 84 52q-20 61 -48 84
q-25 24 -75 23h-195q-93 1 -91 -68q-64 25 -131 48q-19 -41 -50 -69q116 -11 181 -42v-135h-75q-59 173 -292 300q-19 -38 -66 -74q213 -62 280 -226h-111q-85 0 -119 2q-36 2 -50 8v-93q15 6 53 8q35 2 118 2h127q9 -36 11 -61q2 -27 1 -68zM522 445q17 36 22 77h176
q155 0 201 -10v84q-21 -6 -63 -8q-40 -2 -130 -2h-190q20 45 73 107q61 -32 119 -78q69 42 76 58q0 4 -17 5q-25 3 -39 9q-24 11 -58 30q-21 12 -33 18q115 61 272 69q-26 26 -49 66q-9 16 -15 27q-306 -67 -397 -301q-51 56 -107 101v115q69 -36 123 -75l16 77
q-147 71 -180 108q-2 3 -3 3l-49 -62q0 -1 3 -7q25 -42 17 -110q-43 27 -135 75q-33 17 -48 25q-27 -43 -65 -66q214 -66 353 -194h-135q-159 0 -197 8v-82q21 6 64 8q41 2 129 2h206q-5 -26 -31 -65zM587 42l50 -55q55 19 115 61l-50 58q-46 -36 -115 -64z" />
</svg>
