<?xml version="1.0" standalone="no"?>
<!DOCTYPE svg PUBLIC "-//W3C//DTD SVG 1.1//EN" "http://www.w3.org/Graphics/SVG/1.1/DTD/svg11.dtd" >
<svg xmlns="http://www.w3.org/2000/svg" xmlns:xlink="http://www.w3.org/1999/xlink" version="1.1" viewBox="-10 0 1034 1024">
  <g transform="matrix(1 0 0 -1 0 820)">
   <path fill="currentColor"
d="M334 -67q0 -24 -8 -34l-14 -15l30 -44q6 3 13 9q49 37 217 119q0 1 -8 43q-49 -30 -98 -56q-45 -24 -95 -47v168q12 7 18 13q12 7 16 10l54 32q15 9 43 16q-25 24 -45 48q-33 -37 -79 -69q-60 -40 -108 -63q-85 -40 -125 -54q-40 -12 -79 -12q22 -25 35 -51
q154 63 233 109v-122zM151 638l-60 4q-3 0 -5 1v-47q12 6 52 6l803 -3q3 0 9 -3v47q-19 -3 -23 -4l-374 -1q16 24 30 37q-10 6 -18 13q-24 19 -48 37q-33 24 -59 45q-12 -15 -29 -34q27 -16 59 -42q34 -27 59 -56h-396zM526 365v-81q0 -27 -13 -33t-29 -6q-9 0 -51 8
q6 -19 11 -51q42 1 61 6q39 6 50 25q7 10 8 37v95h259q-19 -33 -31 -50q-9 -12 -22 -26q24 -3 44 -12l22 38q12 18 19 31q15 27 41 60q-30 -1 -60 -5h-255l-17 17q12 9 30 16q85 45 135 75q40 24 66 44q-21 -1 -36 -2q-24 -3 -32 -3q-480 0 -499 3q-3 0 -9 2v-47q1 0 38 5
l397 1q-27 -18 -53 -35q-27 -16 -71 -39q-6 3 -19 11l-64 38q-7 4 -13 8q-15 -24 -23 -32q60 -33 97 -62l-350 1q-9 1 -17 2q-3 0 -12 2v-47q12 6 52 6h263q-54 -37 -102 -64q-40 -22 -99 -47q-75 -31 -125 -32h-18q18 -24 32 -50q76 25 141 53q58 27 125 66q69 42 109 74
h20zM594 89q30 -48 88 -93q67 -55 176 -93q66 -21 76 -27q13 27 32 53h-18q-48 0 -125 29q-75 30 -141 91q15 12 71 59q31 27 46 35q10 7 35 12q-21 21 -42 51q-12 -18 -26 -33q-13 -15 -39 -36q-40 -37 -74 -62q-60 69 -67 118q-24 -15 -50 -23q9 -12 18 -26z" />
  </g>

</svg>
