<?xml version="1.0" standalone="no"?>
<!DOCTYPE svg PUBLIC "-//W3C//DTD SVG 1.1//EN" "http://www.w3.org/Graphics/SVG/1.1/DTD/svg11.dtd" >
<svg xmlns="http://www.w3.org/2000/svg" xmlns:xlink="http://www.w3.org/1999/xlink" version="1.1" viewBox="-10 0 1010 1000">
   <path fill="currentColor"
d="M577 -13q96 2 106 11q1 3 -3 8q-15 18 -15 66q1 107 6 184h142q101 0 133 -8v82q-42 -8 -131 -8h-142q10 165 43 284q63 -159 66 -231q91 25 105 38q2 4 -7 14q-18 21 -27 46q-35 99 -103 212q61 100 99 113q16 -5 26 -115q39 47 85 69q-33 147 -81 159q-86 -6 -185 -161
q-70 73 -170 143q-29 -31 -87 -53q135 -70 224 -165q-52 -115 -68 -353h-401q-106 -1 -136 8v-82q23 5 50 6q27 2 88 2h96v-87h-56q-57 0 -109 8v-79q38 9 109 8h56v-18q0 -61 -6 -98q62 0 82 1q24 1 25 5q1 2 -4 8q-24 30 -24 74v30h54q71 0 103 -6v77q-45 -8 -99 -8h-58
v85h226q-4 -55 -8 -168q-2 -70 -4 -101zM798 32q11 20 43 66q29 42 42 63l-81 46q-27 -67 -86 -137zM383 344q5 35 14 85h69q61 0 103 -8v81q-2 0 -8 -1q-44 -9 -101 -9h-109q-7 4 -57 70v200q13 -11 36 -32q33 -29 47 -41q11 38 32 75q-96 61 -177 135q-5 -10 -19 -33
t-21 -36q36 -34 34 -58v-141q-66 79 -129 131q-23 -33 -73 -63q88 -29 242 -207h-79q-45 0 -106 7q-6 1 -10 1v-79q39 8 117 8h129q-1 -2 -2 -5q-13 -50 -23 -74zM494 510q70 40 73 56q-1 2 -9 5q-42 15 -86 58l93 80l-71 59q-90 -120 -184 -188l55 -46q12 12 48 43l18 15
q27 -29 63 -82z" />
</svg>
