<?xml version="1.0" standalone="no"?>
<!DOCTYPE svg PUBLIC "-//W3C//DTD SVG 1.1//EN" "http://www.w3.org/Graphics/SVG/1.1/DTD/svg11.dtd" >
<svg xmlns="http://www.w3.org/2000/svg" xmlns:xlink="http://www.w3.org/1999/xlink" version="1.1" viewBox="-10 0 1034 1024">
  <g transform="matrix(1 0 0 -1 0 820)">
   <path fill="currentColor"
d="M222 118q6 9 21 23v-230q0 -27 -17 -52q3 -1 9 -8l14 -17q4 -6 10 -12q34 42 84 89l82 79q-12 27 -17 54q-3 -6 -48 -61l-79 -77v281l50 67q10 13 31 26q-6 6 -11 10h176q25 0 52 -4l13 -2v47q-21 -1 -44 -5l-173 -1q9 15 26 29q-21 24 -34 32q-6 6 -72 58
q-7 -12 -28 -32q42 -28 52 -38q15 -12 47 -49h-198q-21 0 -40 2q-12 0 -15 2q-3 0 -13 2v-47q12 4 30 5l173 1q-24 -37 -39 -59q-12 -18 -28 -37q-69 -81 -132 -129q-40 -27 -61 -35q27 -12 45 -37l20 20q15 12 32 26zM324 495l-209 1q-36 3 -45 4v-46h2q0 1 30 4l521 1
l11 -131l11 -94q16 -94 47 -173q-31 -43 -98 -110q-48 -46 -108 -77q9 -3 50 -23l5 -4q42 33 79 70q39 40 61 66q18 19 32 39q39 -64 74 -105q64 -76 119 -77q19 0 30 10q21 18 29 57l16 79q-31 6 -52 23q0 -63 -4 -91q-3 -6 -4 -13q-9 -16 -25 -17q-30 0 -82 61
q-37 45 -74 112q51 85 93 189q22 57 33 77q6 12 26 30q-24 6 -37 11l-23 12q-4 -36 -30 -103q-19 -51 -39 -91q-18 -39 -43 -78q-18 45 -27 81q-6 31 -19 129q-3 31 -8 100l-2 41l261 -1q4 0 38 -4v46q-39 -4 -65 -5h-235l-4 174q0 55 3 68q1 18 9 33q-10 0 -61 5
q6 -63 7 -91l4 -189h-259v105q141 0 157 -2l25 -3v46q-43 -4 -80 -5h-102v57q0 18 3 35q1 15 12 31h-58q4 -45 5 -81v-42l-201 5v-46q3 0 7 1q1 1 60 4h134v-105zM326 159q9 -4 46 -32q48 -42 75 -69q54 -55 78 -93q6 6 11 13q10 13 25 23q-18 18 -56 58q-39 39 -47 48
q9 12 19 22q39 42 49 49q9 9 37 20q-1 0 -5 4q-18 12 -35 26q-1 0 -4 3q-1 3 -5 6q-45 -63 -89 -102q-4 4 -21 17l-24 21l-22 20zM730 683q37 -27 68 -63q42 -48 49 -59q12 18 31 36q-60 63 -117 116q-9 -12 -23 -24l-8 -6v0z" />
  </g>

</svg>
