<?xml version="1.0" standalone="no"?>
<!DOCTYPE svg PUBLIC "-//W3C//DTD SVG 1.1//EN" "http://www.w3.org/Graphics/SVG/1.1/DTD/svg11.dtd" >
<svg xmlns="http://www.w3.org/2000/svg" xmlns:xlink="http://www.w3.org/1999/xlink" version="1.1" viewBox="-10 0 1010 1000">
   <path fill="currentColor"
d="M569 -10q9 3 31 10q58 19 65 26q0 3 -6 9q-26 25 -56 84h85q116 0 185 -7q-49 153 -149 277q97 64 230 62q-40 41 -53 93q-113 -23 -228 -103q-94 70 -179 109q42 9 93 8h113q100 0 153 -8q-8 61 -8 141v63q0 99 8 151h-87q6 -33 6 -61h-238q0 27 8 59h-86q8 -72 8 -133
v-111q0 -48 -8 -91l-18 8q-15 -40 -55 -72q132 -37 240 -119q-44 -48 -87 -145q-37 50 -68 114q-31 -26 -81 -36q90 -92 182 -328zM262 4q44 59 83 137l-81 38q-18 -77 -81 -135zM766 187h-181q32 90 86 155q64 -77 95 -155zM71 209q65 8 125 8h44q94 0 143 -6
q-55 115 -111 194v91q57 -55 87 -113q70 32 76 50q-1 1 -4 2q-31 8 -106 83q58 39 104 76q-39 29 -60 59q-31 -48 -97 -109v222q0 80 8 139h-88q0 -5 1 -19q7 -79 7 -128v-268q-38 36 -115 102q-19 -40 -59 -68q167 -99 240 -244h-62q-83 0 -133 8v-79zM774 625h-238v151
h238v-151z" />
</svg>
