<?xml version="1.0" standalone="no"?>
<!DOCTYPE svg PUBLIC "-//W3C//DTD SVG 1.1//EN" "http://www.w3.org/Graphics/SVG/1.1/DTD/svg11.dtd" >
<svg xmlns="http://www.w3.org/2000/svg" xmlns:xlink="http://www.w3.org/1999/xlink" version="1.1" viewBox="-10 0 1034 1024">
  <g transform="matrix(1 0 0 -1 0 820)">
   <path fill="currentColor"
d="M451 194q-84 -82 -198 -139q-108 -51 -202 -54q24 -30 35 -52q148 45 251 109v-127q0 -9 -5 -23q-3 -7 -19 -20q16 -21 28 -46q13 9 28 21l163 89q12 6 26 12q-7 37 -9 53q-15 -15 -56 -41q-54 -30 -115 -62v167q46 36 66 54q31 30 65 59l418 -1q21 0 33 -4v46
q-28 -4 -66 -5h-753q-36 0 -53 2q-7 1 -14 3v-46q33 3 67 5h310zM469 319q30 -18 56 -40q25 -19 54 -45q1 3 22 24q1 3 6 4q-45 37 -127 100q-9 -12 -31 -28q9 -7 20 -15zM502 541q-19 -30 -53 -68q-36 -37 -61 -55q-61 48 -105 77q-4 -12 -14 -24q-6 -6 -11 -12
q70 -39 97 -66q-30 -25 -80 -49q-60 -28 -130 -46q6 -9 17 -17q18 -15 24 -23q130 54 218 124q103 82 170 200q-64 -4 -75 -5h-200q39 52 60 101l206 -1q18 0 40 -5v47q-27 -4 -65 -5l-413 3q-4 1 -8 1q-3 1 -6 1v-47q6 3 14 3q24 3 54 3h133q-22 -55 -82 -119
q-72 -73 -146 -103q33 -19 49 -35q72 57 134 120h233zM517 130q1 -1 14 -17q57 -66 95 -98q30 -25 96 -63q87 -42 215 -77q15 36 28 54q-73 1 -159 32q-90 30 -136 68q78 48 114 72q22 12 47 22q7 3 16 6q-18 15 -42 46q-36 -36 -66 -56q-85 -54 -98 -61q-3 0 -4 -2
q-48 33 -79 98zM664 681q4 -49 5 -78q-3 -174 -5 -190h48q-4 54 -5 76l1 149q0 12 5 22q3 12 12 21h-61zM722 339q0 -3 2 -5l5 -12q0 -12 4 -18q0 -6 2 -12q42 3 74 9q64 12 65 62v335q0 12 3 24q1 18 15 35h-61q4 -45 5 -59v-317q0 -34 -21 -41q-30 -4 -57 -5q-19 3 -36 4
v0z" />
  </g>

</svg>
