<?xml version="1.0" standalone="no"?>
<!DOCTYPE svg PUBLIC "-//W3C//DTD SVG 1.1//EN" "http://www.w3.org/Graphics/SVG/1.1/DTD/svg11.dtd" >
<svg xmlns="http://www.w3.org/2000/svg" xmlns:xlink="http://www.w3.org/1999/xlink" version="1.1" viewBox="-10 0 1034 1024">
  <g transform="matrix(1 0 0 -1 0 820)">
   <path fill="currentColor"
d="M215 -96q0 -25 -5 -66h48q-3 33 -5 66v354q69 -63 91 -85l34 -39q24 24 32 28q-15 18 -47 48q-18 15 -35 32q48 78 62 95q13 18 36 30q-27 16 -48 34q-27 -57 -78 -135l-47 42v41l50 83l55 100q-66 -4 -87 -5l-181 1l-20 2q-7 0 -13 2v-47q9 4 42 5l185 1
q-15 -39 -31 -64q-18 -33 -52 -78q-84 -121 -166 -155q27 -9 51 -29q60 54 129 134v-395zM307 593q3 3 12 10q-7 12 -58 73l-28 32q-12 15 -30 34q-16 -15 -36 -28q49 -45 117 -139q10 9 23 18zM683 551q-12 6 -29 15q-24 -69 -83 -146q-90 -111 -204 -152q33 -21 51 -36
l77 58q21 18 46 42q66 64 120 148q33 -66 102 -124q82 -66 189 -118q12 27 32 47q-73 16 -145 64q-97 66 -155 167q9 12 24 26q-13 4 -25 9zM391 545q31 -18 50 -33l43 44l69 77q22 30 38 45q9 12 31 25q-30 15 -55 38q-12 -30 -28 -56q-40 -54 -82 -94q-24 -21 -38 -32
q-13 -9 -28 -14zM486 -92l-5 -66h48q-6 43 -5 71v14h306l-4 -74q-1 -1 -2 -6h49q-3 33 -5 66l1 263l4 48q-33 -1 -68 -5l-282 1q-1 0 -42 4q1 -33 5 -67v-249zM524 -36v219h306v-219h-306zM729 700q45 -36 81 -67q36 -34 87 -89q12 15 32 33l-86 81l-80 73q-15 -18 -34 -31
v0z" />
  </g>

</svg>
