<?xml version="1.0" standalone="no"?>
<!DOCTYPE svg PUBLIC "-//W3C//DTD SVG 1.1//EN" "http://www.w3.org/Graphics/SVG/1.1/DTD/svg11.dtd" >
<svg xmlns="http://www.w3.org/2000/svg" xmlns:xlink="http://www.w3.org/1999/xlink" version="1.1" viewBox="-10 0 1034 1024">
  <g transform="matrix(1 0 0 -1 0 820)">
   <path fill="currentColor"
d="M202 -100q-1 -25 -3 -53q0 1 -2 -14h49q-3 9 -6 64v360q63 -48 111 -106q9 12 16 22l14 14q-39 39 -74 66l36 49q21 28 49 48q-33 19 -43 30l-3 3q-4 -15 -23 -46q-18 -30 -42 -63q-19 18 -41 33v19q9 12 16 26q15 27 31 52q16 30 32 65l29 58q-37 -1 -74 -5l-195 3
q-6 1 -13 2v-47q19 4 42 5l173 1q-18 -52 -82 -143q-69 -99 -161 -146q21 -10 53 -32l55 55q21 21 56 62v-382zM182 724q63 -55 108 -119q12 16 32 30q-15 25 -106 118q-6 -3 -22 -20zM485 129v-217q0 -36 -5 -59h48q-4 15 -5 60h313q-1 -12 -2 -25q0 -22 -4 -35h49
q-4 45 -5 60l1 234l4 46q-33 -1 -68 -5l-284 1q-12 1 -21 2q21 37 48 104l265 -1l48 -4q-4 19 -5 51l-1 135q33 0 98 -3q3 0 11 -3v47q-19 -4 -65 -5h-44l1 136q1 24 5 48q-60 -4 -88 -5l-308 1q-10 1 -22 2q-7 0 -13 2v-47q9 4 42 5l78 1l-5 -143q-106 0 -147 2
q-10 1 -22 3v-47q6 3 13 3q24 3 53 3h101q-12 -93 -26 -144l-107 4q-1 1 -3 1v-47q24 6 53 6h46q-31 -78 -83 -149q-72 -93 -155 -134q31 -19 50 -36q84 73 160 179q0 -13 1 -27zM836 152v-203h-313v203h313zM564 332q9 33 14 60q4 28 10 84h235v-144h-259zM589 512l6 143
h228v-143h-234z" />
  </g>

</svg>
