<?xml version="1.0" standalone="no"?>
<!DOCTYPE svg PUBLIC "-//W3C//DTD SVG 1.1//EN" "http://www.w3.org/Graphics/SVG/1.1/DTD/svg11.dtd" >
<svg xmlns="http://www.w3.org/2000/svg" xmlns:xlink="http://www.w3.org/1999/xlink" version="1.1" viewBox="-10 0 1034 1024">
  <g transform="matrix(1 0 0 -1 0 820)">
   <path fill="currentColor"
d="M341 -79q0 -12 -7 -21q-3 -4 -18 -17q21 -18 37 -45q15 16 32 30q24 18 68 47l104 70q-6 51 -6 55q-31 -36 -140 -107q-16 -10 -32 -22v195l86 95l438 -1q22 0 41 -5v47q-30 -4 -66 -5h-289q6 12 19 28q-42 19 -132 54q-12 -19 -28 -35l91 -33q18 -7 26 -14l-436 1
q-27 3 -34 4v-47q6 3 13 3q27 3 54 3h249q-79 -88 -145 -132q-70 -42 -106 -56q-34 -13 -102 -25q24 -18 44 -50q58 24 107 50q48 27 81 48q28 18 51 37v-152zM110 579l78 -35q25 -15 54 -34q0 1 2 4q6 9 14 23l8 13l-89 46l-66 28q-12 -22 -24 -35q10 -4 23 -10zM334 538
q-39 -43 -93 -92q-51 -45 -94 -81q-21 -15 -44 -29q27 -21 42 -34l78 79q84 73 114 102q4 4 8 7q-6 24 -11 48zM209 757q-12 -25 -19 -34q48 -25 81 -46q22 -13 31 -21q18 -12 32 -24q9 18 26 36q-25 18 -66 43l-84 50q-1 -1 -1 -4zM804 484q21 13 42 20q-25 18 -43 39
q-115 -108 -305 -164q-45 -13 -75 -18q-39 -6 -122 -12q13 -15 33 -49q222 31 405 142zM381 469q12 -3 23 -4q12 -1 28 -9l39 95l26 66q0 3 2 6q7 19 27 46q-33 6 -58 16q-12 -63 -37 -129q-27 -64 -50 -87zM568 100q15 -21 31 -41q40 -48 95 -93q87 -66 221 -112q3 6 14 18
q6 12 28 28q-159 18 -272 127l68 61q31 27 47 35q12 9 37 15q-30 21 -46 44q-12 -18 -28 -36l-74 -66q-12 -10 -32 -25q-64 55 -82 130q-4 -3 -11 -4q-24 -10 -40 -16q3 -4 6 -9q4 -4 13 -17q12 -19 25 -39zM619 771q4 -49 5 -71l-1 -198l-4 -31h49q-4 54 -5 79q0 174 2 179
q0 12 4 21q3 12 12 21h-62zM949 504q4 4 9 8q-30 42 -75 93q-72 84 -75 86q-15 -15 -34 -25q18 -18 31 -33q16 -18 48 -55q54 -63 73 -95q4 4 10 12q6 4 13 9v0z" />
  </g>

</svg>
