<?xml version="1.0" standalone="no"?>
<!DOCTYPE svg PUBLIC "-//W3C//DTD SVG 1.1//EN" "http://www.w3.org/Graphics/SVG/1.1/DTD/svg11.dtd" >
<svg xmlns="http://www.w3.org/2000/svg" xmlns:xlink="http://www.w3.org/1999/xlink" version="1.1" viewBox="-10 0 1034 1024">
  <g transform="matrix(1 0 0 -1 0 820)">
   <path fill="currentColor"
d="M734 76q-346 0 -361 3l-13 2v-47q6 3 13 3q27 3 53 3h308q0 -172 -3 -194q-1 -3 -1 -7q-1 -3 -1 -6h50q-6 15 -6 41l-1 166l177 -1q21 0 36 -5v47q-19 -3 -23 -4l-190 -1q0 112 3 116q3 15 12 32h-58q0 -4 2 -9zM456 299q-3 -27 -5 -57q48 6 77 6h74q-25 -46 -47 -72
q-37 -42 -74 -52q31 -15 54 -29q36 37 62 73q24 33 50 80l210 -1l46 -5q-6 48 -6 76l1 281q1 22 5 46q-28 -1 -57 -5h-234q37 57 49 70q15 18 40 31q-21 9 -32 16q-9 6 -27 16q-3 -16 -11 -32q-33 -63 -61 -101h-61q-6 0 -29 3q-12 0 -29 2q1 -30 5 -61v-285zM664 604
q0 -48 -2 -77q0 -27 -5 -63h-164v140h171zM493 283v145h159q-4 -69 -35 -145h-124zM657 283q15 42 30 111l6 34h166v-145h-202zM859 464h-164q3 39 5 67q1 27 2 73h157v-140zM205 -109q0 -33 -4 -52l-2 -13h50q0 4 -3 10l-4 55v342q21 -12 40 -25q16 -9 41 -28
q45 -31 70 -59q6 16 17 26q4 6 10 12q-7 7 -47 34q-7 4 -20 15q-18 12 -30 21q25 43 57 83q21 30 44 39q-30 15 -58 36q-15 -54 -74 -138l-50 33v41q49 63 82 110l63 93q-30 -1 -59 -5l-241 1q-9 1 -17 2q-3 0 -12 2v-47q1 0 38 5l215 1q-42 -69 -77 -112q-31 -39 -91 -94
q-69 -60 -114 -70q24 -18 45 -39q61 46 131 114v-393zM166 704q96 -82 133 -140q15 18 38 34q-96 96 -142 137q-12 -15 -29 -31v0z" />
  </g>

</svg>
