<?xml version="1.0" standalone="no"?>
<!DOCTYPE svg PUBLIC "-//W3C//DTD SVG 1.1//EN" "http://www.w3.org/Graphics/SVG/1.1/DTD/svg11.dtd" >
<svg xmlns="http://www.w3.org/2000/svg" xmlns:xlink="http://www.w3.org/1999/xlink" version="1.1" viewBox="-10 0 1034 1024">
  <g transform="matrix(1 0 0 -1 0 820)">
   <path fill="currentColor"
d="M225 -88l-5 -66h48q-3 33 -5 66v350q6 -3 95 -84q7 -7 19 -21q12 19 28 33q-30 30 -80 75q42 73 82 101q-31 21 -46 34q-3 -10 -25 -50q-21 -36 -39 -60q-18 12 -34 24v50q7 13 17 27q40 55 68 99q24 36 43 72q-72 -6 -109 -6l-177 1q-9 1 -17 2q-4 0 -14 3v-47q3 0 6 1
q7 3 33 4l208 1q-7 -15 -17 -31q-12 -18 -36 -51q-54 -75 -129 -148q-51 -48 -93 -68q31 -18 49 -33q78 76 130 133v-411zM174 714l79 -73q25 -25 42 -46q3 6 13 17q4 7 16 16q-12 13 -24 27q-13 13 -40 37q-25 25 -53 51q-6 -3 -11 -11q-9 -10 -22 -18zM478 582l467 -1
q21 0 34 -4v46l-15 -3q-13 -1 -50 -2h-411q-9 0 -33 3q-16 0 -35 2q1 -33 5 -66l-1 -284q-3 -70 -13 -127q-18 -99 -68 -175q-33 -48 -68 -79q24 -10 30 -15q3 -1 21 -15q27 39 50 79q54 102 72 188q15 70 15 186v267zM671 737l-36 28q-9 -16 -29 -37q72 -45 138 -105
q21 27 29 35l-66 52zM722 73l-217 1q-12 3 -34 4v-46q24 4 67 5h184q-3 -174 -5 -190h48q-4 54 -5 74v116q204 0 213 -3q3 0 6 -2v46q-28 -4 -66 -5h-153v127q135 0 156 -2q6 0 24 -4v47q-27 -4 -65 -5h-115v45q0 12 3 27q3 16 16 34h-62q4 -49 5 -76v-30h-153q28 51 42 77
l38 75q7 12 15 27h222q19 0 50 -2q9 0 16 -5v48q-33 -6 -66 -6h-206l28 53q6 9 20 23q6 9 11 12q-25 12 -57 29q-6 -19 -14 -41q-9 -27 -31 -76h-63q-19 0 -55 4q-7 0 -13 2v-48q12 6 39 6l75 1q-24 -58 -59 -118q-28 -46 -59 -58l19 -49q9 1 14 4q51 6 71 6h116v-127z" />
  </g>

</svg>
