<?xml version="1.0" standalone="no"?>
<!DOCTYPE svg PUBLIC "-//W3C//DTD SVG 1.1//EN" "http://www.w3.org/Graphics/SVG/1.1/DTD/svg11.dtd" >
<svg xmlns="http://www.w3.org/2000/svg" xmlns:xlink="http://www.w3.org/1999/xlink" version="1.1" viewBox="-10 0 1010 1000">
   <path fill="currentColor"
d="M482 6q35 49 70 135l-84 38q-25 -84 -61 -133zM583 70q46 8 96 8h129q68 0 101 -6q-10 29 -10 109v627q9 65 -147 89q-8 -56 -36 -105q94 15 111 -28v-615h-148q-68 -1 -96 4v-83zM508 252q39 4 81 4h66q64 -1 97 -4q-6 36 -6 90v271q-1 61 4 78q-29 -2 -73 -2h-94
q-64 0 -79 2q0 -2 1 -6q7 -65 7 -95v-246q0 -44 -4 -92zM683 316h-108v117h108v-117zM575 492v137h108v-137h-108zM371 284q0 -26 -3 -74q-1 -5 -1 -7q73 2 97 12q1 4 -4 11q-18 25 -18 74v472q0 52 1 74q1 26 3 43h-85q9 -44 10 -131v-474zM63 185q47 8 86 8h99q44 0 95 -8
q-44 112 -115 230v54q18 12 22 18q45 -62 60 -94q58 48 57 56q0 2 -8 6q-35 21 -73 61q42 38 75 76l-55 51q-30 -52 -78 -105v214q0 51 1 81q1 33 3 62h-81q6 -35 6 -137v-254q-20 26 -61 68q-22 23 -36 38q-11 -77 -24 -94q104 -68 208 -260h-101q-42 -1 -80 8v-79zM230 -2
q32 52 52 123l-80 24q-17 -67 -49 -119z" />
</svg>
