<?xml version="1.0" standalone="no"?>
<!DOCTYPE svg PUBLIC "-//W3C//DTD SVG 1.1//EN" "http://www.w3.org/Graphics/SVG/1.1/DTD/svg11.dtd" >
<svg xmlns="http://www.w3.org/2000/svg" xmlns:xlink="http://www.w3.org/1999/xlink" version="1.1" viewBox="-10 0 1010 1000">
   <path fill="currentColor"
d="M562 -13q94 19 113 31q1 3 -5 7q-7 5 -7 9q77 200 305 272q-46 42 -71 85q-42 -21 -111 -75v67q-41 -4 -111 -4h-94q-89 2 -101 8v-75l-75 79q-31 -28 -92 -45q200 -116 249 -359zM228 6q45 68 76 129l-94 28q-25 -60 -73 -125zM615 84q-48 127 -127 220q37 8 97 8h80
q93 0 111 -6q-105 -96 -161 -222zM244 185q106 0 131 -6q-48 108 -125 226v58l22 24q7 -14 35 -60q14 -22 22 -36q71 43 68 50q-3 3 -10 7q-33 20 -81 68q42 46 103 103l-78 42q-33 -56 -83 -113v200q0 106 8 163h-93q14 -45 14 -163v-254q-57 72 -108 123q-6 -12 -14 -29
q-15 -35 -33 -52q143 -89 230 -280h-79q-53 0 -121 8v-87q22 5 97 8h95zM760 439q112 37 111 46q-1 2 -7 8q-16 15 -23 33q-74 208 -101 258h36q6 0 19 -1q102 -3 136 -9v93q-39 -11 -161 -11h-266q-118 0 -169 7v-87q44 8 155 8h183q70 -169 87 -345zM637 449
q39 142 57 218l-85 14q-16 -145 -55 -218zM492 475q22 53 55 210q3 15 5 22l-84 16q-12 -147 -57 -236z" />
</svg>
