<?xml version="1.0" standalone="no"?>
<!DOCTYPE svg PUBLIC "-//W3C//DTD SVG 1.1//EN" "http://www.w3.org/Graphics/SVG/1.1/DTD/svg11.dtd" >
<svg xmlns="http://www.w3.org/2000/svg" xmlns:xlink="http://www.w3.org/1999/xlink" version="1.1" viewBox="-10 0 1010 1000">
   <path fill="currentColor"
d="M597 -15q100 16 103 25q-1 2 -6 6q-32 22 -63 88h173q24 0 62 -1q24 -1 33 -1q-6 37 -6 91v208q0 30 6 115q-27 -4 -80 -4h-63v125h107q18 0 68 -3q10 -1 15 -1v82q-32 -9 -83 -8h-107v119q0 46 6 84v3h-87q0 -3 1 -10q5 -44 5 -83v-113h-244q-60 0 -102 6v-82h4
q48 6 90 6h39q42 -47 86 -129h-72q-44 0 -73 4q2 -27 4 -70q4 -55 4 -67v-180q0 -57 -6 -95q25 3 67 4h84q26 -59 35 -119zM492 171v99h127q3 -25 6 -99h-133zM817 171h-123q-6 54 -7 99h130v-99zM492 338v103h87q24 -56 32 -103h-119zM817 338h-136q-10 40 -26 103h162
v-103zM681 510h-52q-17 35 -63 107q-8 13 -12 20h127v-127zM54 159q29 10 93 10h115q66 -1 113 -10q-32 76 -135 222v62q13 8 28 20q35 -47 67 -94q55 33 68 56q-1 3 -10 7q-36 19 -83 60q46 36 85 76l-64 51q-41 -64 -91 -111v215q0 78 7 152q1 7 1 10h-87q5 -24 6 -55
q2 -31 2 -99v-264q-59 65 -119 119q-10 -73 -28 -94q122 -71 238 -259h-115q-37 0 -51 1q-17 1 -40 4v-79zM232 2q26 38 58 127l-88 26q-20 -73 -57 -123z" />
</svg>
