<?xml version="1.0" standalone="no"?>
<!DOCTYPE svg PUBLIC "-//W3C//DTD SVG 1.1//EN" "http://www.w3.org/Graphics/SVG/1.1/DTD/svg11.dtd" >
<svg xmlns="http://www.w3.org/2000/svg" xmlns:xlink="http://www.w3.org/1999/xlink" version="1.1" viewBox="-10 0 1034 1024">
  <g transform="matrix(1 0 0 -1 0 820)">
   <path fill="currentColor"
d="M419 180q-25 -43 -96 -102q-72 -55 -140 -88q-76 -33 -122 -36q24 -27 37 -48l84 40q45 21 78 41q31 19 73 51q7 6 15 11v-137q0 -7 -4 -20q-3 -6 -13 -16q10 -15 26 -47q3 3 118 96q28 22 59 43q9 6 17 15q-1 7 -4 12q-3 10 -4 19t-4 15q-21 -24 -45 -43
q-22 -19 -108 -82v176q33 42 73 67q-21 13 -40 33zM414 252q-154 -105 -338 -105q15 -15 36 -49q108 21 210 65q72 31 155 89h9l-4 -92q-1 -1 -1 -5h48q-6 43 -5 72v25q27 -6 71 -24l124 -53q151 -70 197 -103q6 15 14 25q3 6 8 12q-21 12 -159 77l-151 66l288 -1
q12 0 32 -6v45q-10 -1 -13 -2q-6 -3 -23 -3l-388 -1v62l222 -1q15 0 48 -4q-6 66 -5 115q0 58 2 71q0 18 3 39q-54 -4 -66 -5l-464 1q-15 3 -43 4q4 -99 5 -104q0 -61 -2 -86q-3 -3 -3 -35q18 1 28 2q21 3 32 3h205v-62l-370 1l-18 3q-7 0 -13 2v-45l38 6zM262 528h224v-58
h-224v58zM486 377h-224v62h224v-62zM524 377v61h226v-61h-226zM524 470v58h226v-58h-226zM955 661q-7 0 -10 -2l-56 -4l-752 1q-33 4 -51 5v-43q19 4 67 5l769 -1q15 0 31 -3l2 -1v43zM472 767q-9 6 -16 13q-10 -21 -26 -38q76 -39 123 -81q6 6 7 11l21 21l-67 48
q-21 15 -42 26zM579 148q-13 -9 -16 -9t-23 -13q30 -39 87 -100q24 -24 54 -48q10 -10 60 -40q40 -22 86 -43q39 -18 91 -41q13 24 41 44q-57 7 -136 42q-76 33 -122 69q54 63 101 82q-27 21 -44 40q-4 -12 -13 -25q-13 -15 -45 -47q-10 -10 -27 -25q-15 13 -20 19
q-9 9 -29 32q-27 28 -45 63v0z" />
  </g>

</svg>
