<?xml version="1.0" standalone="no"?>
<!DOCTYPE svg PUBLIC "-//W3C//DTD SVG 1.1//EN" "http://www.w3.org/Graphics/SVG/1.1/DTD/svg11.dtd" >
<svg xmlns="http://www.w3.org/2000/svg" xmlns:xlink="http://www.w3.org/1999/xlink" version="1.1" viewBox="-10 0 1010 1000">
   <path fill="currentColor"
d="M427 42q62 9 148 10h185q64 0 135 -8q-8 26 -8 93v199q0 46 1 64q1 23 3 37q-30 -9 -85 -8h-116v69h120q72 0 134 -8v80q-31 -6 -53 -8q-27 -2 -76 -2h-69q62 155 222 210q-44 31 -73 82q-156 -114 -205 -282v186q0 100 8 153h-87q8 -74 8 -147v-184q-84 163 -240 280
q-43 -47 -89 -64q167 -67 270 -234h-38q-55 0 -81 2q-24 1 -52 6v-78q23 5 46 6q25 2 83 2h101v-71h-103q-58 0 -93 6q10 -57 10 -107v-165q0 -72 -6 -119zM619 113h-111v98h111v-98zM808 113h-118v98h118v-98zM690 270v97h118v-97h-118zM508 270v95h111v-95h-111zM56 177
q37 6 97 6h121q53 0 101 -8q-40 92 -133 226v60q-15 -4 26 18q29 -38 67 -94q60 38 68 56q-1 3 -10 7q-36 19 -83 60q46 36 85 76l-64 51q-36 -57 -89 -105v214q0 68 6 141h-91q12 -43 12 -139v-263q-59 65 -119 119q-10 -73 -28 -94q123 -71 238 -260h-115q-45 -1 -89 8
v-79zM256 -13q25 50 57 126l-87 26q-20 -70 -57 -123z" />
</svg>
