<?xml version="1.0" standalone="no"?>
<!DOCTYPE svg PUBLIC "-//W3C//DTD SVG 1.1//EN" "http://www.w3.org/Graphics/SVG/1.1/DTD/svg11.dtd" >
<svg xmlns="http://www.w3.org/2000/svg" xmlns:xlink="http://www.w3.org/1999/xlink" version="1.1" viewBox="-10 0 1010 1000">
   <path fill="currentColor"
d="M526 443q9 33 24 73h256q72 0 134 -6v78q-48 -8 -150 -8h-213h-29q11 62 59 115q52 -22 135 -93q77 53 73 65q-1 5 -15 8q-62 12 -145 63q57 27 148 41q90 14 161 7q-49 42 -57 105q-345 -36 -447 -291l72 -20h-72q-24 30 -60 66q-21 20 -15 19v137q43 -19 112 -63l9 -6
q0 45 16 77q-121 46 -203 105q-10 -30 -41 -73q34 -26 32 -32v-87q-86 55 -209 113q-9 -6 -23 -31q-22 -36 -42 -51q176 -9 341 -174h-179q-98 0 -148 6v-76q19 4 59 5q42 1 141 1h220q-3 -4 -8 -12q-12 -20 -24 -37zM347 -12q100 0 99 10q1 2 -3 7q-16 27 -16 73v272
q0 59 8 107h-86q4 -12 4 -30h-172q-93 0 -121 8v-81q34 9 121 9h172v-77h-147q-49 0 -67 1q-23 1 -36 3v-73q1 0 4 1q21 5 91 5h153v-74h-163q-81 0 -107 6v-77q0 -1 14 1q53 7 97 7h161q0 -56 -6 -98zM540 -15q87 0 101 9q0 1 -2 5q-18 26 -18 79h173q42 0 113 -8v81
q-43 -9 -115 -10h-173v76h157q37 0 55 -2q16 -1 42 -6v75q-32 -8 -85 -8h-169v80h187q79 0 115 -6v79q-38 -10 -113 -10h-187q0 18 3 32q1 1 1 2h-85q6 -42 6 -107v-256q0 -73 -6 -105z" />
</svg>
