<?xml version="1.0" standalone="no"?>
<!DOCTYPE svg PUBLIC "-//W3C//DTD SVG 1.1//EN" "http://www.w3.org/Graphics/SVG/1.1/DTD/svg11.dtd" >
<svg xmlns="http://www.w3.org/2000/svg" xmlns:xlink="http://www.w3.org/1999/xlink" version="1.1" viewBox="-10 0 1010 1000">
   <path fill="currentColor"
d="M248 -4q24 45 62 137l-84 28q-20 -64 -57 -137zM421 56q29 5 144 8h173q104 0 159 -8q-6 24 -6 87v66q4 67 10 97q-30 -10 -133 -4h-40v97h74q102 0 135 -6v78q-42 -7 -129 -8h-78v87h46q78 0 113 -6q-6 29 -6 109v117q2 87 10 121h-89q4 -25 4 -61h-209q1 45 4 65h-87
q8 -29 8 -139v-107q0 -55 -1 -73q-1 -22 -3 -32q27 3 101 6h38v-87h-157q-24 273 -125 418q-24 -32 -69 -59q76 -103 102 -232q13 -65 18 -151q5 -82 3 -214q-1 -97 -10 -169zM817 131h-313v104h313v-104zM52 189q44 7 107 8h107q69 0 111 -4q-94 167 -127 216v58l30 23
q37 -69 55 -111q84 43 80 52q0 3 -12 7q-17 7 -22 13q-31 36 -62 77q50 43 80 76l-64 47q-42 -71 -85 -109v196q1 114 8 161h-97q11 -49 14 -162v-245q-72 84 -102 114q-16 -54 -47 -90q145 -90 220 -248h-101q-64 0 -93 8v-87zM657 302h-155v97h155v-97zM599 613v153h209
v-153h-209z" />
</svg>
