<?xml version="1.0" standalone="no"?>
<!DOCTYPE svg PUBLIC "-//W3C//DTD SVG 1.1//EN" "http://www.w3.org/Graphics/SVG/1.1/DTD/svg11.dtd" >
<svg xmlns="http://www.w3.org/2000/svg" xmlns:xlink="http://www.w3.org/1999/xlink" version="1.1" viewBox="-10 0 1034 1024">
  <g transform="matrix(1 0 0 -1 0 820)">
   <path fill="currentColor"
d="M473 -101q0 -37 -3 -52q0 -1 -2 -13h50q-3 9 -6 52v187h99q0 -99 -2 -127q-3 -9 -3 -17h50q-4 9 -5 27q-1 25 -2 117h99v-79q0 -39 -5 -63h49q-3 6 -4 26q0 18 -2 37v79h117v-141q0 -39 -26 -47q-19 -6 -45 -6q-19 0 -47 5q10 -28 15 -51q55 3 93 14q46 15 47 68l1 328
l6 52q-66 -4 -87 -5h-352l3 99l354 -1l43 -4q-4 49 -5 74q0 102 2 115q0 18 3 37q-30 -1 -62 -5l-341 1q-19 3 -46 4q6 -49 8 -73q3 -52 3 -133q0 -165 -47 -280q-48 -115 -103 -176q-18 -21 -41 -33q34 -10 61 -23q45 72 77 128q28 54 56 117v-238zM511 425l-4 144h358
v-144h-354zM512 109v145h99v-145h-99zM649 109v145h99v-145h-99zM786 109v145h117v-145h-117zM90 175q3 4 8 7q61 51 120 107v-391q0 -27 -3 -52q0 -1 -2 -13h49q-3 9 -4 27q0 18 -2 38v338q81 -64 115 -110q9 18 16 24q4 6 11 12l-68 63q10 22 22 45q15 27 32 52
q19 33 43 45q-24 12 -54 35q-15 -60 -75 -150l-42 33v46l76 106q25 39 66 107q-36 -1 -72 -5l-235 1l-18 2q-3 0 -12 2v-47q1 0 38 5l225 1q-67 -124 -175 -223q-39 -34 -63 -50q-21 -12 -49 -18q27 -18 49 -41q1 3 4 4zM188 729l-9 -9q0 -1 -3 -3l-2 -1q91 -72 124 -122
q12 13 32 34l-55 53l-44 42l-29 25q0 -1 -3 -4q-9 -9 -11 -15zM578 736q21 -12 66 -49q51 -42 64 -57q3 -3 7 -8q9 10 15 17q9 9 17 18l-99 79q-16 15 -44 33q-3 -4 -8 -11q-4 -6 -10 -12q-4 -4 -8 -10v0z" />
  </g>

</svg>
