<?xml version="1.0" standalone="no"?>
<!DOCTYPE svg PUBLIC "-//W3C//DTD SVG 1.1//EN" "http://www.w3.org/Graphics/SVG/1.1/DTD/svg11.dtd" >
<svg xmlns="http://www.w3.org/2000/svg" xmlns:xlink="http://www.w3.org/1999/xlink" version="1.1" viewBox="-10 0 1010 1000">
   <path fill="currentColor"
d="M667 0q21 54 35 115h90q71 1 107 -7q-6 26 -6 89v67q-3 55 4 82q-38 -8 -159 -8h-268l-2 75q34 6 111 6h185q80 0 143 -10q-8 41 -8 117v254q0 43 -3 58q-3 18 -13 30q-19 24 -95 39q-5 -41 -42 -81q3 0 10 -1q81 5 69 -57v-113h-77v60q1 8 1 26q2 51 7 69h-75
q7 -23 7 -95v-60h-61v56q1 73 6 107h-73q6 -38 7 -105v-58h-59v70q3 110 10 164h-93q9 -39 10 -156v-149q-54 144 -104 208q-26 -43 -57 -57q30 -35 91 -147q46 -117 34 -478q39 5 131 5h95q-34 -80 -46 -95zM222 18q14 36 48 115q4 9 6 14l-82 26q-13 -70 -47 -129z
M476 183v87h347v-87h-347zM748 477v121h77v-121h-77zM508 477v121h59v-121h-59zM627 477v121h61v-121h-61zM294 635q-24 -58 -68 -117v207q0 133 8 168h-91q8 -20 14 -133q1 -25 2 -37v-217q-21 28 -76 89q-13 14 -18 20q-13 -33 -43 -81q124 -76 212 -274h-81q-69 0 -105 8
v-87q11 4 93 9q12 1 18 1h69q87 -1 125 -4q-72 152 -123 230v32l34 32q6 -13 17 -36q21 -39 27 -62l9 6q32 23 56 44q-1 2 -6 5q-28 18 -69 82q22 24 55 66z" />
</svg>
