<?xml version="1.0" standalone="no"?>
<!DOCTYPE svg PUBLIC "-//W3C//DTD SVG 1.1//EN" "http://www.w3.org/Graphics/SVG/1.1/DTD/svg11.dtd" >
<svg xmlns="http://www.w3.org/2000/svg" xmlns:xlink="http://www.w3.org/1999/xlink" version="1.1" viewBox="-10 0 1034 1024">
  <g transform="matrix(1 0 0 -1 0 820)">
   <path fill="currentColor"
d="M202 -99q-3 -58 -5 -67h49q-3 10 -3 15q-1 27 -3 52v340q15 -10 29 -23q19 -18 53 -52q13 -12 31 -37q4 7 11 13t12 12q6 3 11 9q-12 13 -54 53q-18 15 -26 25q51 69 86 92q-28 15 -42 29l-43 -62q-12 -18 -29 -37q-18 15 -39 35v34q7 15 16 29l55 119q1 6 4 11
q12 31 20 51q-36 -1 -73 -5q-132 0 -174 2q-15 3 -23 3v-47q19 4 42 5l167 1q-10 -36 -39 -96q-37 -81 -125 -164q-45 -39 -79 -56q24 -18 43 -38q69 69 85 87q15 18 43 49v-382zM186 742q-6 -4 -12 -10q66 -63 102 -131q18 18 37 28q-28 48 -105 133q0 -1 -3 -3
q-9 -7 -19 -17zM422 458q7 13 17 26q-3 -621 -5 -639h48q-4 39 -5 66l1 635q3 13 7 17l63 127q0 6 15 27q6 9 14 19q-12 3 -56 21q-9 -45 -28 -90q-48 -103 -100 -179q-37 -48 -73 -72q37 -15 54 -26q15 19 26 36q10 16 22 32zM721 -88l-4 -63q-1 -1 -1 -3h50q-3 7 -6 63
v271q15 -33 47 -78q48 -66 90 -118l41 -47q13 18 42 41q-51 27 -127 124q-58 79 -89 152q141 0 158 -2q16 0 27 -4v47q-30 -4 -66 -5h-123v135q90 0 107 -2l38 -4q-6 66 -6 88l1 155q1 27 5 53q-33 -1 -67 -5q-174 0 -198 2q-6 3 -39 3q4 -109 5 -112l-1 -137q-3 -15 -4 -47
q66 6 88 6h32v-135q-126 0 -162 2q-12 3 -22 3v-47q6 3 13 3q24 3 53 3h109q-24 -61 -82 -149q-75 -105 -124 -128q31 -18 41 -27q3 -1 10 -9q33 39 72 92q22 30 39 56l53 90v-267zM643 460v214h219v-214h-219z" />
  </g>

</svg>
