<?xml version="1.0" standalone="no"?>
<!DOCTYPE svg PUBLIC "-//W3C//DTD SVG 1.1//EN" "http://www.w3.org/Graphics/SVG/1.1/DTD/svg11.dtd" >
<svg xmlns="http://www.w3.org/2000/svg" xmlns:xlink="http://www.w3.org/1999/xlink" version="1.1" viewBox="-10 0 1010 1000">
   <path fill="currentColor"
d="M482 0q78 20 95 36q0 4 -6 11q-12 14 -21 35q-8 19 -23 52q-24 56 -39 85v557q0 53 8 107h-87q8 -24 8 -93v-434q-3 4 -8 12q-30 50 -46 71q-23 -34 -65 -54q121 -119 184 -385zM222 8q24 38 54 139l-82 14q-16 -89 -45 -137zM653 123v165h157v-165h-157zM651 510h-44
q-53 -1 -73 4v-67q39 3 77 4h79v-95h-47q-45 0 -68 4q6 -25 6 -82v-151q0 -35 -4 -75q27 3 86 4h119q65 -1 107 -4q-8 32 -8 85v155q-1 50 4 68q-18 -5 -62 -4h-63v95h105q48 0 68 -6v71q-33 -6 -76 -6h-65q48 133 172 225q-37 51 -49 83q-103 -112 -155 -242v186
q0 87 4 127h-81q7 -34 7 -127v-206q-50 146 -132 258l-6 -6q-33 -32 -56 -42q78 -65 155 -256zM58 181q35 6 83 6h105q60 0 111 -6q-62 141 -115 220v82l16 15q34 -31 59 -63q63 38 68 52q-1 1 -6 2q-14 3 -26 11q-10 6 -30 20q-15 11 -23 16q44 42 79 81l-67 42
q-31 -59 -70 -97v196q0 69 6 125h-85q5 -26 7 -55q0 -14 1 -33v-53v-246q-44 53 -111 119q0 -38 -28 -93q155 -120 214 -272h-107q-52 0 -81 10v-79z" />
</svg>
