<?xml version="1.0" standalone="no"?>
<!DOCTYPE svg PUBLIC "-//W3C//DTD SVG 1.1//EN" "http://www.w3.org/Graphics/SVG/1.1/DTD/svg11.dtd" >
<svg xmlns="http://www.w3.org/2000/svg" xmlns:xlink="http://www.w3.org/1999/xlink" version="1.1" viewBox="-10 0 1010 1000">
   <path fill="currentColor"
d="M849 10q53 67 54 84q-1 2 -9 1q-22 -1 -47 1q-8 1 -27 3q-99 10 -141 16v44h125q48 0 81 -6v64h-4q-42 -6 -79 -6h-123v55h194l67 -4q-5 20 -13 54q-16 60 -18 77l-84 -14q21 -27 32 -57h-135v61q73 -7 99 -14l4 60q-12 -1 -33 0q-20 1 -70 6v40q-5 24 41 19h17
q32 1 41 -10q9 -7 20 -51q36 34 64 36q-18 60 -41 72q-23 16 -98 15q-75 1 -90 -9q-18 -7 -17 -45v-61q-26 4 -56 10q-10 1 -14 2l-6 -62q14 3 76 -2v-67h-82q1 229 -25 343q-26 121 -100 228q-22 -20 -81 -30q88 -97 116 -206q15 -56 21 -132q6 -74 4 -187v-49
q-1 -16 -2 -27l55 4h46v-143q-6 0 -24 2q-86 8 -143 8q5 173 2 273q-4 104 -17 178q-24 142 -116 270q-41 -30 -77 -46q95 -82 124 -210q32 -127 23 -395q-1 -10 -2 -38q-3 -77 -6 -93q279 0 474 -62zM611 592q30 3 72 4h75q45 -1 71 -4q-7 90 -8 174q-6 46 30 38
q29 2 28 -85q30 35 75 45q-16 82 -32 92q-17 18 -85 17q-56 1 -67 -11q-17 -11 -16 -56v-151h-73q3 152 -96 240q-30 -27 -75 -41q126 -73 101 -262zM218 4q27 78 42 137l-83 20q-15 -88 -42 -139zM56 177q32 6 77 6h107q57 0 95 -6q-46 121 -107 218v38l22 16
q39 -64 52 -93q51 30 61 43q0 3 -9 11q-11 10 -19 19q-7 8 -20 25q-16 21 -27 33q40 35 65 55l-53 54q-12 -22 -47 -66q-19 -23 -25 -32v250q0 86 4 125h-75q4 -37 5 -65q1 -29 1 -70v-251q-45 54 -105 121q-1 -56 -18 -100q138 -113 192 -262h-101q-43 0 -75 6v-75z" />
</svg>
