<?xml version="1.0" standalone="no"?>
<!DOCTYPE svg PUBLIC "-//W3C//DTD SVG 1.1//EN" "http://www.w3.org/Graphics/SVG/1.1/DTD/svg11.dtd" >
<svg xmlns="http://www.w3.org/2000/svg" xmlns:xlink="http://www.w3.org/1999/xlink" version="1.1" viewBox="-10 0 1034 1024">
  <g transform="matrix(1 0 0 -1 0 820)">
   <path fill="currentColor"
d="M89 196q39 39 74 76q30 31 52 57l-5 -498h48q-3 15 -4 39l-1 375q66 -45 111 -90q12 16 26 32q-4 4 -9 7q-37 28 -71 56q3 6 5 9q3 9 42 58q18 24 53 41q-27 16 -46 37q-9 -19 -18 -32q-7 -12 -23 -32l-41 -60q-15 10 -29 21v86q18 24 56 95q30 57 51 103q-66 -6 -89 -6
l-166 1q-18 0 -40 5v-48q13 6 64 7h167q-58 -133 -171 -247q-36 -33 -86 -59q18 -6 37 -22q6 -4 13 -11zM290 616q3 6 16 16q6 4 13 12q-18 21 -41 44l-85 79q-10 -13 -29 -31q84 -70 123 -124q1 3 3 4zM468 658q34 0 61 3q93 9 173 12q15 0 52 5q102 15 134 18l52 7
q-10 12 -28 47l-1 3q-24 -9 -42 -14q-46 -13 -140 -26q-60 -7 -125 -13q-78 -6 -116 -6h-5q-33 4 -58 5q1 -30 5 -63l-2 -363q-4 -58 -10 -96q-10 -54 -29 -107q-18 -54 -38 -88q-21 -36 -69 -76q30 -15 53 -33q39 61 59 104q39 84 62 195q12 72 12 189v297zM583 455h117
v-89q-27 0 -59 -4q-6 0 -22 3q1 -22 4 -45q6 1 12 4q18 6 40 8q12 1 25 2v-50q0 -48 34 -60q21 -6 73 -7q64 0 89 30q19 22 33 57q-9 4 -16 9q-10 6 -22 16q-9 -36 -15 -52q-16 -25 -63 -26q-40 0 -63 7q-15 6 -15 34v45q49 6 81 5q13 0 35 -4l-3 47q-21 -6 -54 -10
q-30 -1 -59 -4v84h171q-22 -45 -39 -60q3 0 5 -2q7 -3 17 -7l16 -7l52 99q3 6 8 17l-69 -6h-183v63l166 -1q21 0 37 -5v47q-21 -4 -66 -5h-137q0 30 18 62h-60q1 -28 5 -59v-102l-88 1q-30 4 -48 5q1 -31 5 -64l-2 -238q-3 -30 -12 -92q-6 -31 -15 -62q-12 -39 -43 -89
q-21 -31 -51 -53q27 -13 46 -30q48 69 72 122q19 49 32 124q10 69 11 151v191zM783 117v-172q0 -61 83 -62q25 0 46 7q18 6 32 25q12 21 27 73q-7 0 -19 6q-4 3 -8 4q-9 6 -16 8q-3 -66 -31 -82q-15 -4 -34 -5q-19 0 -28 5q-13 9 -14 44v127q1 31 5 63q-33 -1 -67 -5
q-45 0 -111 5q6 -30 6 -56q0 -51 -8 -87q-12 -58 -49 -96q-15 -16 -48 -36q30 -16 45 -29q39 42 63 86q30 66 34 177h92z" />
  </g>

</svg>
