<?xml version="1.0" standalone="no"?>
<!DOCTYPE svg PUBLIC "-//W3C//DTD SVG 1.1//EN" "http://www.w3.org/Graphics/SVG/1.1/DTD/svg11.dtd" >
<svg xmlns="http://www.w3.org/2000/svg" xmlns:xlink="http://www.w3.org/1999/xlink" version="1.1" viewBox="-10 0 1010 1000">
   <path fill="currentColor"
d="M536 -10q13 59 22 92h277q39 0 84 -4q-3 26 -4 71q0 56 8 88h-92q8 -43 8 -82v-12h-678v26q0 51 8 75h-94q8 -26 8 -95q1 -49 -4 -73q34 6 94 6h301q-12 -33 -36 -84zM335 155q90 6 82 10q0 1 -3 6q-11 24 -11 44h186q0 -46 -4 -60q15 2 38 3q30 1 46 5q2 1 -2 8
q-14 23 -14 44h20q91 -1 127 -8v61q-25 -8 -125 -8h-20v58h33q89 -1 124 -8v61q-27 -6 -135 -6h-22v48h103q102 -1 155 -10v68q-29 -6 -149 -6h-101q118 81 293 85q-37 52 -51 85q-58 -14 -149 -51v55q-5 -2 -15 -3q-4 -1 -7 -1q66 30 76 50q0 3 -12 5q-26 4 -48 13l-14 7
q-55 30 -77 40q90 51 198 72q-35 31 -45 83q-215 -79 -334 -218l40 -38q44 44 89 72q71 -43 115 -86h-240q-43 42 -97 80v95q105 -41 141 -60q3 57 6 74q-135 45 -201 85q-9 -15 -28 -49q-7 -13 -11 -20q25 -19 31 -32v-58q-115 61 -188 82q-18 -38 -62 -72
q189 -17 324 -125h-18q-119 1 -143 8v-55q-20 9 -85 36q-35 14 -52 21q-26 -46 -61 -73q183 -32 287 -107h-83q-131 1 -165 8v-68q45 7 155 8h107v-50h-49q-95 -1 -119 8v-61q43 7 117 8h51v-58h-53q-62 1 -98 8v-61q50 7 102 8h47q0 -13 -1 -36q-1 -17 -1 -24zM591 260
h-188v58h188v-58zM403 363v50h188v-50h-188zM417 465q-61 48 -151 109q36 8 157 8h182q97 -1 125 -8q-65 -40 -135 -109h-178zM536 477q1 5 4 15q13 48 16 72l-78 8q-8 -42 -26 -84z" />
</svg>
