<?xml version="1.0" standalone="no"?>
<!DOCTYPE svg PUBLIC "-//W3C//DTD SVG 1.1//EN" "http://www.w3.org/Graphics/SVG/1.1/DTD/svg11.dtd" >
<svg xmlns="http://www.w3.org/2000/svg" xmlns:xlink="http://www.w3.org/1999/xlink" version="1.1" viewBox="-10 0 1034 1024">
  <g transform="matrix(1 0 0 -1 0 820)">
   <path fill="currentColor"
d="M625 411q0 -37 -3 -52q0 -1 -2 -12h49q0 3 -4 12l-2 179q0 138 2 153q0 10 4 35q-30 -1 -61 -5q-153 0 -181 2q-3 1 -20 3v-47q6 3 13 3q27 3 53 3h152v-185q-70 -45 -138 -80q-36 -18 -66 -23q15 -16 35 -47q21 19 52 38l117 68v-45zM439 605q63 -66 87 -106
q15 18 34 32l-63 71l-29 33q-15 -18 -29 -30zM497 -97q0 -42 -5 -63h49q-3 6 -4 28q-1 24 -2 60h322l-4 -81q-1 0 -1 -4h51q-3 6 -5 12q0 15 -2 52v306q0 9 2 28q3 18 5 36q-31 -1 -63 -5h-151q22 42 61 70q-33 12 -60 26q-6 -30 -44 -96l-140 4q-7 1 -14 1q1 -31 5 -64
v-310zM857 -36h-322v124h322v-124zM535 124v112h322v-112h-322zM130 211q66 60 78 71q9 9 23 26v-404q0 -27 -3 -52q0 -1 -2 -12h49q-3 7 -4 26q0 19 -2 38v346q90 -75 131 -139q21 27 34 38q-70 70 -92 90q21 34 33 47q9 15 28 33q1 3 19 14q1 0 3 1q-18 12 -36 23
q-3 1 -14 10q-12 -30 -32 -63l-27 -42l-47 36v47q45 63 77 111q34 55 39 62q10 15 20 31q-33 -1 -67 -5l-229 1q-12 1 -30 4v-46q6 3 13 3q27 3 53 3h187q-58 -112 -162 -210q-43 -39 -71 -58q-27 -16 -56 -23q25 -19 44 -41q6 4 12 9q15 13 31 25zM214 764q-6 -6 -9 -12
q-6 -3 -9 -10q-3 -4 -5 -7l-2 -1q0 -1 -3 -3l-2 -2q34 -21 76 -59q40 -37 65 -69q9 12 16 20q7 10 16 17q-96 87 -143 126zM709 618q36 -37 55 -59q13 -15 30 -41q15 19 33 32l-91 94q-12 -13 -27 -26zM894 408q0 -45 -5 -63h49q-4 9 -5 42l-1 277l6 62q-30 -1 -60 -5
q-130 0 -159 2q-4 1 -7 1t-12 2v-47q12 6 52 6h142v-151q-69 -43 -129 -75q-39 -18 -61 -22q13 -13 18 -20q7 -9 19 -26q30 30 153 99v-82z" />
  </g>

</svg>
