<?xml version="1.0" standalone="no"?>
<!DOCTYPE svg PUBLIC "-//W3C//DTD SVG 1.1//EN" "http://www.w3.org/Graphics/SVG/1.1/DTD/svg11.dtd" >
<svg xmlns="http://www.w3.org/2000/svg" xmlns:xlink="http://www.w3.org/1999/xlink" version="1.1" viewBox="-10 0 1010 1000">
   <path fill="currentColor"
d="M573 46q36 6 104 6h97q70 -1 115 -4q-6 24 -6 65v90q0 41 1 57q1 20 3 32q-28 -4 -62 -4h-67v70h97q10 0 31 -1q18 -1 27 -1q-8 41 -8 101v105l4 71q-25 -4 -70 -4h-81v143h91q-6 -15 -33 -62q-2 -3 -3 -5l64 -20q41 63 81 169l-71 25q-4 -10 -12 -37q-4 -15 -6 -20
q-299 26 -327 41l-22 -85h10q111 -4 160 -4v-145h-73q-1 34 4 46h-79q8 -29 8 -99v-143q0 -49 -4 -79q38 4 55 4h89v-70h-59q-44 -1 -62 4q8 -47 8 -83v-82q0 -34 -4 -81zM317 60q34 4 82 4h59q14 0 38 -1q21 -1 30 -1q-8 30 -8 73v135q-1 52 4 72q-25 -4 -54 -4h-65v129h37
q53 1 62 -4q-6 30 -6 75q-2 40 -6 114q-5 74 -6 104q0 56 -28 76q-23 21 -119 41q1 -37 -39 -89q116 14 117 -46q8 -38 14 -210h-50q-32 -1 -56 2q13 -44 12 -81v-107q0 -16 -1 -43q-1 -19 -1 -27q19 6 56 6h65v-151h-63q-38 0 -74 6v-73zM645 115v110h170v-110h-170z
M617 421v145h73v-145h-73zM837 421h-79v145h79v-145zM48 175q28 6 67 6h79q48 0 92 -6q-38 111 -92 222v48l14 16q17 -22 46 -64q45 33 56 52q-1 2 -7 3q-11 3 -19 9q-7 6 -20 17q-15 14 -24 20q28 27 64 84l-54 39q-24 -59 -56 -95v228q0 69 6 127h-71q6 -56 6 -135v-244
q-37 55 -83 104q-4 -53 -22 -88q121 -121 168 -274h-85q-41 0 -65 10v-79zM212 20q19 30 44 115l-89 18q-14 -65 -44 -117z" />
</svg>
