<?xml version="1.0" standalone="no"?>
<!DOCTYPE svg PUBLIC "-//W3C//DTD SVG 1.1//EN" "http://www.w3.org/Graphics/SVG/1.1/DTD/svg11.dtd" >
<svg xmlns="http://www.w3.org/2000/svg" xmlns:xlink="http://www.w3.org/1999/xlink" version="1.1" viewBox="-10 0 1010 1000">
   <path fill="currentColor"
d="M837 161q-6 30 -6 79q0 60 6 88q-36 -6 -172 -6v59h137q45 0 81 -6v58q-12 -5 -71 -4h-147v52h88q28 0 45 -1q34 -1 49 -5v59q-20 -3 -58 -5q-40 -1 -124 -1v56h139q23 0 92 -5q26 -2 41 -3v63q-50 -6 -131 -8h-304q-10 7 -34 24q-65 45 -87 62v103q52 -27 127 -74
q-12 42 0 84q-82 32 -200 105q-12 -48 -28 -77q27 -11 28 -34v-68q-127 57 -215 88q-20 -42 -67 -76q190 -23 373 -137h-205q-88 0 -123 4v-55q24 3 121 4h133v-56q-153 0 -182 6v-59q24 6 75 6h107v-52h-127q-67 0 -95 4v-58q39 6 85 6h139v-57q-134 0 -170 6q4 -40 4 -86
q0 -58 -6 -79q37 6 145 6q107 0 162 -6q-6 27 -6 77q-1 65 4 86q-15 -5 -65 -4v57h202v-59q-59 -1 -83 4q8 -37 8 -88q0 -47 -4 -73q17 3 49 3q16 1 39 1h67q85 0 149 -7q10 -1 15 -1zM589 215v61h173v-61h-173zM232 219v61h155v-61h-155zM395 429v52h202v-52h-202zM597 528
h-202v56h202v-56zM752 649q21 15 50 33q25 13 23 17q-2 3 -14 6q-50 14 -111 59q116 39 262 38q-40 33 -63 89q-261 -46 -413 -198q16 -9 47 -28q11 -7 17 -10q25 35 89 78q41 -19 113 -84zM538 -23l25 83h217q93 0 135 -10v77q-18 -5 -37 -6q-21 -2 -78 -2h-262h-312
q-83 0 -143 10v-77l135 8h262q-9 -16 -24 -41q-9 -15 -12 -21z" />
</svg>
