<?xml version="1.0" standalone="no"?>
<!DOCTYPE svg PUBLIC "-//W3C//DTD SVG 1.1//EN" "http://www.w3.org/Graphics/SVG/1.1/DTD/svg11.dtd" >
<svg xmlns="http://www.w3.org/2000/svg" xmlns:xlink="http://www.w3.org/1999/xlink" version="1.1" viewBox="-10 0 1010 1000">
   <path fill="currentColor"
d="M712 -21q7 25 16 68q5 17 6 23h38q29 0 92 -7q17 -2 23 -3v71q-27 -6 -137 -6h-109q-99 3 -133 10v-71q50 8 115 8h34q-1 -3 -4 -10q-19 -46 -34 -64zM117 32q36 3 113 6h107q73 0 121 -4q-6 21 -6 78v45q0 50 6 74q-27 -7 -125 -6h-8h-142q-24 158 -82 238
q-33 -42 -59 -56q103 -107 75 -375zM389 98h-202l-2 67h204v-67zM768 143q81 22 79 30q-1 3 -7 8q-22 17 -44 54h31q59 -3 98 -10v75q-39 -6 -123 -6h-80v64h36q73 -2 119 -10v71q-35 -8 -127 -8h-28v18q1 40 6 63h-77q9 -27 8 -63v-18h-38q-38 0 -107 6v-67q9 1 58 5
q26 2 41 3h46v-64h-70q-82 0 -115 8v-71q41 6 101 7h22q-17 -29 -49 -68q-3 -3 -4 -5l75 -14q11 19 36 65q8 14 12 22h59q16 -17 42 -95zM183 280q22 3 85 6h93q69 -1 89 -4q-7 23 -8 68v37v58q1 17 2 22q-11 -2 -35 -3q-12 -1 -28 -1h-46h-63q-78 0 -91 6q5 -51 6 -82v-35
q0 -54 -4 -72zM246 338v73h137v-73h-137zM450 467l82 -12q2 8 9 27q13 36 19 58h140q152 -4 215 -12v80q-46 -8 -213 -8h-156q36 63 91 115q41 -24 101 -92q62 41 70 56q-2 5 -16 7q-17 3 -26 9q-17 10 -64 40q-11 7 -17 11q92 46 253 50q-41 49 -63 97q-286 -41 -405 -293
q-47 50 -97 89v111q68 -40 131 -89q5 56 16 81q-125 61 -205 121q-17 -43 -45 -69q25 -15 30 -33q6 -17 6 -76q-22 13 -75 45q-105 64 -136 78q-17 -39 -65 -76q202 -50 345 -182h-147q-124 3 -166 10v-78q24 5 170 8h250q-6 -12 -17 -38q-10 -23 -15 -35z" />
</svg>
