<?xml version="1.0" standalone="no"?>
<!DOCTYPE svg PUBLIC "-//W3C//DTD SVG 1.1//EN" "http://www.w3.org/Graphics/SVG/1.1/DTD/svg11.dtd" >
<svg xmlns="http://www.w3.org/2000/svg" xmlns:xlink="http://www.w3.org/1999/xlink" version="1.1" viewBox="-10 0 1010 1000">
   <path fill="currentColor"
d="M214 8q22 49 50 131l-77 30q-18 -84 -46 -131zM889 30v89q-21 -4 -50 -6q-27 -1 -93 -1h-79v55h154q73 0 106 -8q-11 63 -2 173h-86q11 -55 8 -107h-180v111q0 88 4 113h-84q7 -20 8 -115v-109h-172q0 49 4 99h-86q7 -42 8 -94q1 -49 -4 -71q21 5 92 8h158v-55h-55
q-134 1 -161 7v-85q18 5 54 7q18 0 43 1h66h200q96 0 147 -12zM46 195q26 8 99 8h79q84 -1 117 -4q-40 110 -97 206v58l14 16q27 -34 58 -85q10 -18 15 -25q16 19 43 46q14 13 13 14q-3 3 -12 9q-35 21 -83 72q16 17 40 42q21 24 33 36q-36 27 -59 57q-25 -47 -66 -117v210
q0 132 8 167h-95q11 -55 14 -176v-229q-59 85 -100 123q-17 -59 -41 -83q125 -90 200 -270h-87q-76 0 -93 6v-81zM454 270q43 6 104 0v54q-55 -9 -104 0v-54zM708 274q53 6 111 0v56q-56 -9 -111 0v-56zM444 365q55 6 110 0v54q-49 -9 -110 0v-54zM710 373q54 6 109 0v54
q-54 -9 -109 0v-54zM379 473q65 8 125 8h238q135 -1 181 -10v77q-16 -5 -56 -7q-20 0 -47 -1h-74h-101l-20 60h139q104 -3 143 -8q-6 30 -6 99v123q1 48 -22 62q-20 17 -101 27q-6 -44 -28 -75q62 6 68 -6q12 -7 11 -68v-99h-95v97q0 74 6 92h-75q10 -19 10 -102v-87h-82
v105q1 59 8 88h-75q7 -31 8 -88v-105h-84v129q0 78 6 101h-87q8 -37 10 -107v-83q2 -62 -6 -105q42 7 125 10h60l15 -60h-71q-88 0 -123 8v-75z" />
</svg>
