<?xml version="1.0" standalone="no"?>
<!DOCTYPE svg PUBLIC "-//W3C//DTD SVG 1.1//EN" "http://www.w3.org/Graphics/SVG/1.1/DTD/svg11.dtd" >
<svg xmlns="http://www.w3.org/2000/svg" xmlns:xlink="http://www.w3.org/1999/xlink" version="1.1" viewBox="-10 0 1034 1024">
  <g transform="matrix(1 0 0 -1 0 820)">
   <path fill="currentColor"
d="M498 27l-417 1q-6 1 -7 1q-12 1 -25 3v-45q45 4 65 5h384v-84q0 -40 -5 -65h50q0 4 -1 8q-3 7 -4 33v108h375q27 0 51 -3q1 0 14 -2v45q-39 -4 -65 -5h-375v75l234 -1l48 -4q-6 54 -6 64l1 146q0 12 5 42q-33 -1 -65 -5l-500 1q-1 0 -50 4q1 -28 5 -59q0 -132 -2 -157
q-1 -1 -1 -5q0 -12 -2 -31q34 3 71 5h222v-75zM776 137h-529v67h529v-67zM247 239v70h529v-70h-529zM640 672l260 -1q19 0 40 -5v45q-39 -4 -65 -5l-768 1q-13 1 -21 3q-4 1 -8 1v-45q30 6 54 6h252v-78l-180 1q-19 3 -51 4q1 -33 5 -67q0 -66 -2 -92q-3 -3 -3 -36
q34 3 70 5l590 -1l54 -4q-4 60 -5 87q0 54 2 65q0 21 3 43q-76 -4 -114 -5h-113v78zM195 444v115h189v-115h-189zM422 444v115h180v-115h-180zM602 594h-180v78h180v-78zM640 444v115h184v-115h-184z" />
  </g>

</svg>
