<?xml version="1.0" standalone="no"?>
<!DOCTYPE svg PUBLIC "-//W3C//DTD SVG 1.1//EN" "http://www.w3.org/Graphics/SVG/1.1/DTD/svg11.dtd" >
<svg xmlns="http://www.w3.org/2000/svg" xmlns:xlink="http://www.w3.org/1999/xlink" version="1.1" viewBox="-10 0 1010 1000">
   <path fill="currentColor"
d="M77 6q14 5 54 7q20 0 48 1h79h504q144 0 175 -10v72q-37 -8 -167 -8h-131v53h81q126 0 155 -9q-8 20 -8 81q0 37 2 52q1 14 6 31q-32 -8 -161 -8h-208q46 11 52 20q0 5 -13 11q-24 11 -43 27h268q106 0 135 -8v57q-8 -6 -131 -6h-314q-6 6 -30 24q-8 6 -13 10q9 4 38 5
q13 1 33 1h54h162q118 0 143 -8q-7 28 -8 109q0 81 8 111q-28 -9 -125 -8h-157l-49 46h167q81 0 113 -1q37 -1 55 -5q-76 87 -176 153q41 12 114 13q74 2 149 -7q-20 38 -27 81q-183 -9 -304 -53q-135 49 -270 53q-5 -38 -37 -71q145 19 258 -20q-56 -30 -90 -101
q-42 36 -103 75q-21 -34 -63 -59q77 -17 190 -104q-82 0 -109 8q8 -29 10 -101v-18q1 -62 -6 -73q-6 7 -18 17q-10 9 -16 15q-5 -23 -41 -50q101 -60 154 -143h-160q-117 0 -169 12q5 -19 6 -81q0 -43 -1 -58q-1 -18 -5 -28q26 8 115 8h113v-53h-101q-137 0 -187 8v-70z
M579 68h-152v53h152v-53zM639 167v56h159v-56h-159zM208 167v56h157v-56h-157zM579 167h-152v56h152v-56zM286 274q63 39 69 52q0 3 -8 6q-18 8 -34 20q-17 13 -106 91q-43 37 -70 61q-24 -42 -44 -57q113 -70 193 -173zM274 439q70 48 67 63q-2 4 -10 5q-12 3 -21 9
q-7 4 -25 20q-16 13 -23 18v222q0 88 8 117h-87q7 -21 7 -121v-159q-47 39 -95 78q-9 -24 -37 -59q-1 -2 -2 -3q123 -66 218 -190zM778 451h-328v39h328v-39zM448 532v40h330v-40h-330zM722 703h-204q28 46 93 73q73 -37 111 -73z" />
</svg>
