<?xml version="1.0" standalone="no"?>
<!DOCTYPE svg PUBLIC "-//W3C//DTD SVG 1.1//EN" "http://www.w3.org/Graphics/SVG/1.1/DTD/svg11.dtd" >
<svg xmlns="http://www.w3.org/2000/svg" xmlns:xlink="http://www.w3.org/1999/xlink" version="1.1" viewBox="-10 0 1034 1024">
  <g transform="matrix(1 0 0 -1 0 820)">
   <path fill="currentColor"
d="M118 57q-30 1 -62 3q-4 1 -7 2v-43q15 4 35 5l34 1v-125q0 -45 -5 -59h44q-4 34 -5 59v125h269v-92q0 -33 -26 -37q-15 -3 -39 -3q-9 0 -31 4q9 -27 14 -45q63 4 92 16q24 12 25 48v109q60 0 80 -4q3 0 8 -2v43q-15 -3 -29 -3l-59 -2l1 220q0 15 4 39q-51 -4 -69 -5h-90
v87l208 -3q4 0 9 -2v42q-31 -1 -63 -5h-78v86q84 0 96 -3q3 0 6 -2v42q-99 -4 -102 -5v78q75 0 91 -2q4 0 29 -3v47q-6 -4 -17 -7q-24 -1 -46 -3h-57q0 54 3 63q1 13 10 30h-54q3 -9 3 -14q3 -48 3 -79h-123q0 54 3 63q1 13 10 30h-52q4 -42 5 -76v-17q-72 0 -95 2
q-9 3 -19 5v-44q42 6 67 5h47v-78l-80 2q-3 0 -8 2q-3 1 -5 1v-42q1 0 58 5h35v-86l-132 3q-4 1 -7 2v-42q49 4 81 5h136v-87l-118 1q-1 0 -33 4q1 -25 5 -53v-206zM152 57v91h112v-91h-112zM152 177v102h112v-102h-112zM220 430v86h123v-86h-123zM220 548v78h123v-78h-123z
M421 57h-119v91h119v-91zM421 279v-102h-119v102h119zM732 445q1 24 3 48q3 24 17 41q-33 1 -62 8q4 -40 5 -71q-1 -10 -2 -31q-3 -105 -12 -178q-12 -102 -44 -168q-34 -73 -76 -123q-42 -48 -93 -72q33 -18 49 -32q30 28 61 67q57 69 96 154q42 91 54 285q1 36 4 72z
M561 255q0 -42 -5 -60h47q-4 34 -5 60v413h239v-411q0 -42 -6 -59h49q-4 49 -5 85l1 386q0 15 4 39q-45 -4 -54 -5l-234 1q-15 3 -36 4q1 -27 5 -54v-399zM927 -3q0 -18 -3 -36q-9 -46 -44 -53q-25 -3 -55 -4q-16 1 -25 4q-18 4 -19 43v235q0 7 2 22q1 15 11 39h-56
q1 -30 5 -61l1 -255q0 -9 5 -26q6 -16 21 -25q9 -6 35 -9q21 -1 42 -3q16 0 43 4q33 9 51 29q21 22 36 95q-19 6 -50 20v-19z" />
  </g>

</svg>
