<?xml version="1.0" standalone="no"?>
<!DOCTYPE svg PUBLIC "-//W3C//DTD SVG 1.1//EN" "http://www.w3.org/Graphics/SVG/1.1/DTD/svg11.dtd" >
<svg xmlns="http://www.w3.org/2000/svg" xmlns:xlink="http://www.w3.org/1999/xlink" version="1.1" viewBox="-10 0 1034 1024">
  <g transform="matrix(1 0 0 -1 0 820)">
   <path fill="currentColor"
d="M232 -81q-4 -63 -5 -66h48q0 4 -1 8q-1 3 -4 58v354q24 -12 63 -42l43 -34q12 -12 24 -28q9 21 30 44q-72 51 -151 102q39 54 69 100q30 48 68 116q-49 -4 -64 -5l-249 1q-13 1 -32 2q-3 0 -13 2v-46q3 1 7 1q3 3 29 3l247 1q-66 -129 -145 -202q-88 -85 -162 -117
q27 -10 49 -32q78 60 149 123v-343zM158 711q42 -24 73 -49q60 -51 86 -95q12 24 35 43q-16 21 -65 62l-98 80q-9 -16 -31 -41zM330 -104q24 -15 44 -41q223 141 280 310q16 54 22 95q3 27 5 62l4 147q0 34 3 37q3 15 12 30q-34 0 -62 6q6 -48 6 -107q0 -135 -15 -219
q-18 -84 -76 -158q-64 -81 -152 -132q-24 -15 -71 -30zM472 717q1 -30 5 -63q0 -402 -3 -433q-1 -4 -1 -9q-1 -1 -1 -5h47q0 3 -1 8q-3 6 -3 42l-1 419h321l-3 -438q-1 -3 -1 -7q-1 -3 -1 -8h48q0 3 -1 8q-3 6 -3 43l-1 380q1 31 5 63q-31 -1 -63 -5l-294 1q-19 3 -49 4z
M727 203q0 18 3 33q1 18 11 33h-58q3 -15 4 -40q0 -276 3 -288q3 -16 13 -28q10 -15 39 -22q19 -4 81 -5q75 0 102 18q27 21 46 98l10 36q-27 10 -50 26q-1 -48 -5 -68q-6 -57 -47 -67q-16 -3 -74 -3q-57 0 -69 16q-9 12 -9 46v215z" />
  </g>

</svg>
