<?xml version="1.0" standalone="no"?>
<!DOCTYPE svg PUBLIC "-//W3C//DTD SVG 1.1//EN" "http://www.w3.org/Graphics/SVG/1.1/DTD/svg11.dtd" >
<svg xmlns="http://www.w3.org/2000/svg" xmlns:xlink="http://www.w3.org/1999/xlink" version="1.1" viewBox="-10 0 1010 1000">
   <path fill="currentColor"
d="M248 -12q87 -2 91 4q2 2 -1 10q-9 18 -9 40v48q126 0 159 -8v85q-30 -9 -161 -10v85h72q100 0 127 -9q5 0 -35 150q-6 25 -9 36q-38 -16 -83 -8q6 -14 17 -42q28 -64 22 -59h-212q-155 0 -172 8v-81q9 3 46 4q18 1 51 1h103v-83q-129 3 -159 12v-87q13 5 47 7q17 0 41 1
h71q0 -54 -1 -72q-1 -22 -5 -32zM921 42q-10 28 -10 191v158q0 147 8 169h-94q0 -3 1 -10q9 -61 9 -153v-282h-218v286q0 150 6 161h-91q10 -42 10 -159v-161q0 -174 -8 -198q43 6 160 6h64q144 1 163 -8zM681 179q51 0 87 6q0 3 -3 11q-9 23 -9 52q0 209 -16 312q10 1 28 3
q52 4 49 7q0 4 -5 12q-12 18 -12 43v147q-1 33 5 38q5 8 30 8q33 1 43 -20q11 -19 11 -79q22 18 63 34q16 6 22 9q-18 78 -37 102q-19 27 -56 27h-79q-48 1 -61 -16q-16 -16 -15 -71v-189q-60 163 -254 292q-29 -43 -83 -65q192 -76 244 -196q65 -128 52 -409q0 -8 -2 -32
q-1 -16 -2 -26zM171 324q88 67 101 81l-52 54q-44 -51 -93 -86zM282 328q90 -1 93 6q2 7 -3 16q-8 15 -9 31q-4 113 -12 193h30q98 -1 135 -10v81q-22 -8 -135 -8h-40q-65 184 -222 266q-29 -39 -75 -67q182 -63 220 -197h-62q-121 -1 -144 8v-79q18 8 111 8
q-26 -48 -92 -84l50 -51q48 31 105 83l-45 52h91q8 -59 10 -139q1 -71 -6 -109zM319 717l54 -54q14 12 54 46q47 39 61 51l-61 56q-27 -39 -108 -99z" />
</svg>
