<?xml version="1.0" standalone="no"?>
<!DOCTYPE svg PUBLIC "-//W3C//DTD SVG 1.1//EN" "http://www.w3.org/Graphics/SVG/1.1/DTD/svg11.dtd" >
<svg xmlns="http://www.w3.org/2000/svg" xmlns:xlink="http://www.w3.org/1999/xlink" version="1.1" viewBox="-10 0 1034 1024">
  <g transform="matrix(1 0 0 -1 0 820)">
   <path fill="currentColor"
d="M314 677q12 15 17 19q36 -24 118 -91q48 -40 62 -55q18 -21 32 -46q6 9 11 17q9 18 21 30q-48 42 -113 94q-61 48 -110 83q18 21 36 33q-24 4 -31 8q-9 3 -28 14q-49 -109 -164 -205q-42 -36 -73 -55q-28 -18 -60 -30q22 -7 39 -22q4 -4 13 -10q123 90 193 171
q18 22 37 45zM183 486h2q3 3 22 3q19 1 134 2l125 -1l30 -4v46q-3 0 -61 -5l-218 1q-22 3 -21 2q-3 0 -13 2v-46zM109 423q1 -33 5 -67l-3 -456q-1 -3 -1 -7q-1 -3 -1 -8h48q0 3 -2 8q-3 6 -3 42l-1 173h122v-137q0 -31 -13 -39q-12 -6 -35 -6l-30 1q13 -18 22 -46
q55 9 76 27q16 18 17 56l1 411q0 16 4 48q-18 -1 -30 -2q-21 -3 -68 -3l-87 4q-10 1 -21 1zM151 144v105h122v-105h-122zM151 282v102h122v-102h-122zM369 373q4 -45 5 -66l-2 -237l-2 -6t-1 -8h47q0 3 -3 19l-2 139q0 127 3 131q3 15 10 28h-55zM525 355q0 18 3 33
q0 12 12 33h-58l2 -15l3 -101l-1 -344q-3 -10 -7 -19q-13 -18 -57 -19q-24 0 -50 6q18 -30 22 -51q30 0 50 4q51 7 67 29q13 21 14 55v389zM495 -130q24 -12 45 -32q207 181 220 417q9 273 11 279q1 10 10 26q-6 0 -13 -1q-21 0 -44 5q6 -57 6 -107q-3 -51 -3 -101
q0 -79 -7 -131q-6 -49 -22 -99q-33 -103 -116 -191q-42 -43 -87 -65zM610 229q-3 -33 -3 -50q-1 -3 -2 -16h47v4q-4 49 -5 62v431h216l-2 -470q-3 -7 -4 -15h49l-4 33q-1 21 -2 167l1 279q1 24 5 47q-63 -6 -86 -6l-161 1q-10 1 -49 5h-5q1 -28 5 -58v-414zM764 192
q4 -39 5 -65l1 -217q3 -28 18 -43q16 -16 71 -17q33 0 56 5q27 7 46 42q6 12 21 65q-22 7 -45 28q0 -31 -3 -48q-4 -27 -17 -40q-15 -15 -54 -15q-54 0 -55 49l1 212q0 24 13 44h-58z" />
  </g>

</svg>
