<?xml version="1.0" standalone="no"?>
<!DOCTYPE svg PUBLIC "-//W3C//DTD SVG 1.1//EN" "http://www.w3.org/Graphics/SVG/1.1/DTD/svg11.dtd" >
<svg xmlns="http://www.w3.org/2000/svg" xmlns:xlink="http://www.w3.org/1999/xlink" version="1.1" viewBox="-10 0 1010 1000">
   <path fill="currentColor"
d="M897 24q-10 36 -10 187v188q1 126 8 161h-93q10 -11 10 -149v-315h-205v323q0 129 8 155h-91q8 -20 8 -48l-72 34q-13 -74 -41 -151q-24 104 -46 173q-28 -19 -56 -24v99q91 -20 185 -51q-14 51 -8 87q-301 64 -402 109q-10 5 -13 4q-15 -70 -37 -101q2 -1 8 0
q49 4 196 -34v-121l-58 22q-6 -67 -31 -149q0 1 -2 7q-15 75 -46 183q-36 -19 -73 -23q72 -141 77 -383q16 4 42 9q58 12 53 13q-1 4 -4 8q-11 12 -19 41q-3 10 -6 27q-3 16 -6 27q50 124 73 162v-357q-159 0 -183 8v-83q18 8 177 8h72q136 0 170 -10v83q-23 -9 -125 -8h-40
v391q61 -119 68 -321q9 2 25 5q70 14 68 17q0 4 -7 10q-16 14 -21 39q-4 19 -8 37q-3 12 -4 21q73 134 94 184v-313q1 -149 -10 -181q32 10 153 10h59q81 0 113 -2q33 -2 50 -8zM667 161q90 4 97 12q0 3 -4 11q-12 24 -12 58q-5 188 -24 304q47 2 66 12q2 4 -2 16
q-10 28 -10 59v113q-3 51 53 46q52 2 58 -101q38 35 85 46q-26 140 -107 134h-61q-106 2 -100 -87v-176q-76 173 -260 301q-20 -41 -85 -67q212 -108 264 -238q32 -69 41 -172q10 -99 1 -271z" />
</svg>
