<?xml version="1.0" standalone="no"?>
<!DOCTYPE svg PUBLIC "-//W3C//DTD SVG 1.1//EN" "http://www.w3.org/Graphics/SVG/1.1/DTD/svg11.dtd" >
<svg xmlns="http://www.w3.org/2000/svg" xmlns:xlink="http://www.w3.org/1999/xlink" version="1.1" viewBox="-10 0 1010 1000">
   <path fill="currentColor"
d="M242 10q76 -2 97 6q0 1 -3 5q-15 27 -15 57v159h84v-102q-1 -49 -8 -73q80 4 91 12q0 2 -3 6q-13 21 -13 57v62q0 67 6 107q-44 -6 -149 -6h-101q-89 0 -135 4q4 -26 4 -97v-68q0 -27 -4 -75q78 2 90 12q0 1 -2 4q-16 25 -16 67v90h89v-143q0 -51 -12 -84zM518 54
q75 5 167 6h39q110 -1 169 -6q-3 32 -6 77q-1 41 0 60v216q0 69 6 134q2 23 2 33h-95q0 -6 3 -22q9 -60 9 -141v-280h-213v276q0 118 8 169h-91q8 -44 8 -165v-214q0 -94 -6 -143zM661 209q86 1 91 6q0 1 -2 5q-12 24 -14 62q-5 175 -16 254q69 5 70 10q0 1 -2 6
q-12 26 -12 67v98q-2 76 24 73q43 6 61 -8q20 -12 22 -97q43 47 83 55q-19 110 -75 120q-37 9 -113 5q-45 -2 -60 -21q-15 -17 -14 -72v-178q-64 182 -266 303q-34 -48 -91 -61q154 -50 232 -153q54 -65 70 -140q19 -81 18 -233v-20q3 -45 -6 -81zM454 356q-5 45 -6 107v12
q0 70 4 107q-45 -4 -123 -4h-146v166q130 -46 250 -103l-4 86q-207 78 -308 144l-48 -79l4 -4q30 -28 30 -50v-119q-1 -58 -8 -111q62 5 165 6h109v-91h-143q-123 0 -145 6v-75q44 6 147 6h66q79 -1 156 -4z" />
</svg>
