<?xml version="1.0" standalone="no"?>
<!DOCTYPE svg PUBLIC "-//W3C//DTD SVG 1.1//EN" "http://www.w3.org/Graphics/SVG/1.1/DTD/svg11.dtd" >
<svg xmlns="http://www.w3.org/2000/svg" xmlns:xlink="http://www.w3.org/1999/xlink" version="1.1" viewBox="-10 0 1010 1000">
   <path fill="currentColor"
d="M306 -25q63 25 89 41q0 2 -15 14q-10 8 -11 10l210 143v-22q0 -76 -6 -105q107 6 149 6h70q76 -1 131 -6q-8 72 -8 113v278q0 109 8 141h-90q5 -30 6 -133v-326h-182v316q-1 117 8 143h-90q7 -23 6 -107v-30v-242l-57 53q-43 -51 -46 -45v59q-17 -2 -48 -3q-14 -1 -33 -1
h-50q-112 1 -157 6v-34q-14 13 -80 67q-7 6 -11 9q44 7 93 8h18q51 0 105 -8q-3 42 -3 111v389q1 48 -110 57q0 -31 -27 -87q73 28 73 -30v-89h-91v89q-1 84 6 107h-80q9 -26 10 -109v-325q0 -74 -6 -103q-15 -21 -57 -66q188 -100 276 -289zM327 94q-4 5 -13 16
q-51 63 -82 95q23 4 113 4q54 0 77 -1q27 -1 48 -3q-77 -66 -143 -111zM452 320q87 4 94 14q0 1 -3 6q-19 28 -19 81v353q10 88 -131 91q2 -50 -22 -95q55 13 71 2q17 -8 14 -55v-294q0 -57 -3 -90q-1 -9 -1 -13zM349 332q79 7 82 16q0 2 -3 7q-13 24 -13 68v185q1 82 6 111
h-74q8 -25 8 -113v-183q-1 -55 -6 -91zM248 387h-91v82h91v-82zM157 528v84h91v-84h-91zM815 663v123q-7 55 24 48q40 11 40 -94q35 28 85 44q-19 68 -37 103q-9 15 -42 21q-37 6 -77 1q-68 -5 -62 -77v-191q-54 170 -183 282q-37 -34 -83 -54q100 -42 165 -164
q40 -72 51 -153q6 -43 9 -103q2 -59 1 -157q0 -38 -1 -53q-1 -19 -5 -42q77 1 94 10q0 1 -2 5q-16 31 -16 96q0 135 -14 268q6 1 21 1q45 2 44 7q0 3 -3 11q-9 29 -9 68z" />
</svg>
