<?xml version="1.0" standalone="no"?>
<!DOCTYPE svg PUBLIC "-//W3C//DTD SVG 1.1//EN" "http://www.w3.org/Graphics/SVG/1.1/DTD/svg11.dtd" >
<svg xmlns="http://www.w3.org/2000/svg" xmlns:xlink="http://www.w3.org/1999/xlink" version="1.1" viewBox="-10 0 1010 1000">
   <path fill="currentColor"
d="M185 -10q16 1 41 1q40 -1 40 5q1 1 -3 9q-13 25 -13 45v36h107v-20q1 -60 -4 -76q82 3 84 8q0 3 -4 8q-16 17 -16 46v32q69 0 117 -6v75q-18 -6 -115 -6v52q59 5 85 -2v67q-23 -8 -85 -8v62q88 0 113 -6v69q-9 0 -35 -2q-57 -4 -100 -4h-56v48q137 0 159 -8q-6 56 -6 119
v111q51 1 62 -6v64q-8 -6 -60 -6q4 107 -14 127q-26 34 -113 47q3 -48 -30 -99q46 12 74 0q14 -7 14 -56v-13h-240q-2 127 7 162h-87q12 -32 10 -158q-48 0 -73 6v-70q13 6 73 6v-97q0 -64 -1 -91q-2 -32 -5 -48q44 12 167 10v-48h-72q-122 0 -144 8v-75q35 10 128 10v-60
q-78 -3 -91 4v-65q29 8 91 8v-58q-92 0 -115 6v-75q36 8 115 8q0 -75 -5 -96zM903 32q-6 62 -6 159v204q0 129 10 165h-88q-22 5 -23 65v131q-6 48 43 46q56 9 58 -101q38 32 81 45q-16 133 -113 129h-79q-65 7 -60 -95v-85v-32q1 -45 -2 -53q-63 170 -172 295
q-38 -30 -90 -47q148 -111 194 -259q25 -75 32 -176q7 -98 0 -258q60 7 90 16q0 6 -5 12q-11 16 -11 47q-1 177 -20 304q54 0 68 6q12 -21 11 -149v-291h-180v279q0 145 8 179h-93q9 -15 9 -169v-188q0 -155 -7 -179q44 10 146 10h44q126 0 155 -10zM250 145v58h109v-58
h-109zM250 258v60h109v-60h-109zM425 479h-84v51h84v-51zM187 479v51h91v-51h-91zM187 586v61h91v-61h-91zM341 586v61h86v-61h-86z" />
</svg>
