<?xml version="1.0" standalone="no"?>
<!DOCTYPE svg PUBLIC "-//W3C//DTD SVG 1.1//EN" "http://www.w3.org/Graphics/SVG/1.1/DTD/svg11.dtd" >
<svg xmlns="http://www.w3.org/2000/svg" xmlns:xlink="http://www.w3.org/1999/xlink" version="1.1" viewBox="-10 0 1034 1024">
  <g transform="matrix(1 0 0 -1 0 820)">
   <path fill="currentColor"
d="M207 226l31 26q-12 24 -32 54l-59 87q4 24 9 50q6 40 12 52q3 7 19 22q-21 3 -36 6l-27 8v-53q-7 -60 -19 -125q-13 -63 -28 -110q-15 -46 -39 -78l51 -7q30 91 51 183q42 -64 62 -119q1 3 5 4zM284 204q21 -9 29 -15q3 -3 7 -5q31 69 60 163q46 -69 61 -114q6 3 13 10
q9 9 13 10q4 3 12 8l-87 135l16 80q6 22 24 40q-34 7 -58 18q0 -81 -34 -196q-13 -42 -25 -68q-12 -22 -31 -52v433h91q12 0 46 -3q1 0 16 -2v47l-62 -6l-287 3l-9 3v-47q49 4 75 5h93v-601q-115 -40 -192 -49q15 -33 20 -46q0 -4 2 -8l65 26q51 19 228 80l74 24q0 30 5 55
q-45 -22 -82 -38q-36 -15 -83 -32v142zM367 -143q18 -10 29 -19q48 36 111 103q90 99 136 211q33 84 47 234q0 30 10 113q0 15 7 36q4 13 13 24q-10 1 -20 1q-22 1 -46 6q4 -25 5 -45q0 -24 -2 -60q-6 -120 -17 -185q-15 -79 -46 -146q-58 -118 -163 -209q-36 -30 -81 -54
q7 -4 17 -10zM723 203q0 9 2 23q1 16 11 39h-56q4 -66 5 -97v-228q0 -63 45 -74q6 0 36 -5l66 -1l31 3q51 4 74 36q16 19 35 86l6 26q-24 9 -53 26q1 -24 2 -40q0 -36 -9 -57q-15 -30 -55 -35q-36 -6 -56 -6q-12 0 -32 2q-28 3 -37 7q-15 6 -15 37v258zM497 732q1 -30 5 -60
l-1 -436q-1 -15 -4 -26h47q0 6 -2 12q-1 24 -3 47v422h303v-406q0 -39 -5 -59h48q-4 24 -5 59l1 404l4 43q-18 -1 -28 -2q-21 -3 -64 -3l-254 1q-15 3 -42 4v0z" />
  </g>

</svg>
