<?xml version="1.0" standalone="no"?>
<!DOCTYPE svg PUBLIC "-//W3C//DTD SVG 1.1//EN" "http://www.w3.org/Graphics/SVG/1.1/DTD/svg11.dtd" >
<svg xmlns="http://www.w3.org/2000/svg" xmlns:xlink="http://www.w3.org/1999/xlink" version="1.1" viewBox="-10 0 1034 1024">
  <g transform="matrix(1 0 0 -1 0 820)">
   <path fill="currentColor"
d="M88 -34q0 -45 -5 -60h47q-4 49 -5 78v15h240v-16q0 -45 -5 -59h48q-4 49 -5 79l1 293l4 40q-27 -1 -56 -5h-100v198l178 -1q18 0 34 -4v47q-9 0 -23 -4l-189 -2q0 148 3 158q1 13 10 30h-56q1 -30 5 -62v-360q-75 0 -99 2q-6 3 -32 3q1 -18 2 -30q3 -21 3 -28v-312z
M125 35v260h240v-260h-240zM401 -128q18 -12 26 -20q48 31 122 104q105 105 137 235q10 42 17 94q4 57 7 144v53q0 15 3 33t20 33q-15 1 -28 1q-16 0 -38 5q4 -39 5 -75q0 -90 -2 -131l-11 -102q-7 -43 -21 -80q-46 -126 -149 -215q-48 -39 -107 -63zM511 261q0 -45 -5 -60
h47q-3 30 -5 60v421h284l-1 -448q-4 -24 -5 -27h49q0 6 -2 12q-3 48 -3 74l1 389l4 41q-30 -1 -59 -5l-268 1q-6 1 -13 2q-12 0 -29 2q4 -54 5 -57v-405zM743 167q0 7 2 22q1 16 11 39h-56q1 -30 5 -61l1 -233q4 -40 30 -51q25 -10 80 -11q48 0 73 8q37 9 59 54q3 9 8 23
q4 18 11 48q-18 4 -48 23q-1 -67 -12 -92q-6 -18 -37 -22q-30 -3 -52 -4q-7 0 -27 2q-36 3 -43 14q-4 6 -5 36v205z" />
  </g>

</svg>
