<?xml version="1.0" standalone="no"?>
<!DOCTYPE svg PUBLIC "-//W3C//DTD SVG 1.1//EN" "http://www.w3.org/Graphics/SVG/1.1/DTD/svg11.dtd" >
<svg xmlns="http://www.w3.org/2000/svg" xmlns:xlink="http://www.w3.org/1999/xlink" version="1.1" viewBox="-10 0 1034 1024">
  <g transform="matrix(1 0 0 -1 0 820)">
   <path fill="currentColor"
d="M262 153l-3 -127q0 -3 -1 -5q-1 -3 -1 -7h48q-4 18 -5 40l-1 99h100v-160q0 -64 -77 -65q-18 0 -50 4q15 -24 19 -33q3 -9 7 -15q70 3 101 23q37 24 38 82l1 466l4 46q-99 -4 -102 -5h-34q21 24 41 50q21 27 43 52q3 3 13 16q12 18 26 34q-48 -6 -75 -6h-130q6 9 11 20
q25 46 37 56q9 6 20 15q-30 10 -59 21q-7 -27 -33 -75q-24 -49 -43 -79q-18 -27 -45 -63q-25 -33 -53 -57q27 -9 45 -19q42 57 50 70q15 21 29 46q10 16 22 32h142q-12 -21 -28 -40l-62 -73q-63 0 -89 2q-6 3 -32 3q1 -33 5 -67v-136q0 -141 -13 -226q-15 -82 -49 -141
q-15 -27 -41 -53l47 -20q81 133 89 295h88zM175 187l3 119h84v-119h-87zM178 340v122h84v-122h-84zM299 187v119h100v-119h-100zM299 340v122h100v-122h-100zM651 -7q0 -19 -3 -32q-4 -15 -21 -28q13 -21 24 -41q36 18 58 25q22 10 47 19q19 6 39 14q0 -1 32 -69
q21 15 39 24l-47 86l-48 94q-21 -12 -38 -18q18 -30 36 -66q3 -7 10 -17q-36 -15 -90 -31v683q9 0 18 3q25 4 53 7q18 1 33 5q6 -270 8 -284q4 -72 15 -135q12 -67 29 -123l20 -57l21 -51q24 -49 58 -105q18 16 50 28q-57 55 -83 119q-55 132 -63 219q-6 57 -10 111l-4 96
l-1 125q0 18 -2 61q39 6 64 6l29 -1q-12 12 -21 23q-9 10 -23 30q-27 -9 -56 -16q-22 -4 -59 -12q-42 -7 -82 -12q-42 -4 -100 -9q-30 0 -60 -3q3 -79 4 -82l-2 -228l-3 -90q-6 -111 -16 -167q-18 -102 -53 -172q-16 -30 -42 -55q27 -9 50 -23q22 42 43 93q36 99 48 205
q12 121 13 482q15 0 22 2q51 6 64 6v-639z" />
  </g>

</svg>
