<?xml version="1.0" standalone="no"?>
<!DOCTYPE svg PUBLIC "-//W3C//DTD SVG 1.1//EN" "http://www.w3.org/Graphics/SVG/1.1/DTD/svg11.dtd" >
<svg xmlns="http://www.w3.org/2000/svg" xmlns:xlink="http://www.w3.org/1999/xlink" version="1.1" viewBox="-10 0 1010 1000">
   <path fill="currentColor"
d="M597 -4q94 32 95 42q-2 7 -14 15q-16 11 -23 25q-18 30 -28 49h121q72 0 108 -2q41 -1 67 -6v76q-18 -3 -59 -5q-19 0 -46 -1h-66h-157q-6 11 -17 31q-13 22 -32 58q49 6 139 6q150 -3 180 -8v78q-37 -7 -145 65q-59 39 -77 44h133q92 -1 143 -10q-2 14 -3 37
q-1 24 -3 38q-1 8 -2 25q-20 250 -38 285q-23 49 -135 63q-2 -39 -40 -93q75 21 98 -6q27 -46 41 -284h-59q-21 246 -203 363q-23 -31 -67 -45q190 -101 206 -316h-51q-33 137 -135 228q-23 -32 -50 -51q98 -57 125 -177q-53 1 -91 16q-5 -32 -18 -73q24 2 56 -10
q59 -27 176 -105h-51q-114 0 -147 6v-42q-19 -15 -52 -22q-6 35 -6 107v437q10 54 -97 67q-7 -41 -28 -73q61 11 62 -22v-149h-78v95q0 93 8 115h-81q9 -34 8 -115v-95h-77q-16 149 -78 252q-21 -18 -61 -40q54 -66 70 -178q7 -54 9 -134q2 -67 -2 -225l-34 41
q-20 -23 -57 -47q142 -150 162 -314q99 23 102 32q0 6 -10 16q-11 10 -16 20q-14 27 -20 43h83q10 0 29 -1q40 -3 80 -3l-79 161q58 -1 93 -6q83 -84 139 -278zM335 179h-109q-7 11 -19 31q-32 54 -44 70h127q15 -30 45 -101zM329 334v109h78v-109h-78zM187 336v105h77v-105
h-77zM329 490v110h78v-110h-78zM187 488v112h77v-112h-77z" />
</svg>
