<?xml version="1.0" standalone="no"?>
<!DOCTYPE svg PUBLIC "-//W3C//DTD SVG 1.1//EN" "http://www.w3.org/Graphics/SVG/1.1/DTD/svg11.dtd" >
<svg xmlns="http://www.w3.org/2000/svg" xmlns:xlink="http://www.w3.org/1999/xlink" version="1.1" viewBox="-10 0 1010 1000">
   <path fill="currentColor"
d="M206 -12q92 25 100 36q0 2 -5 5q-21 10 -41 35q-7 8 -23 30q-12 18 -19 27h82q73 0 133 -6q-89 137 -96 153q73 0 111 -6q-7 56 -8 101v425q106 -84 155 -244q-63 0 -101 6q4 -20 5 -42q1 -18 1 -63v-48q0 -67 -6 -109q75 6 117 6h42v-77h-60q-92 -3 -137 6v-74
q30 6 129 6h68v-57q0 -3 -1 -11q-3 -61 -9 -83q85 -9 99 4q1 2 -5 11q-20 31 -17 69v65h68q117 0 141 -6v74q-33 -6 -137 -6h-72v79h42q20 0 82 -2q27 -1 43 -2q-6 40 -6 103v48q0 59 6 107q-31 -4 -97 -4h-30q63 175 196 228q-56 52 -77 80q-119 -117 -159 -296v210
q0 117 6 141h-79q9 -59 6 -137v-230q-51 177 -153 320q-1 -2 -4 -5q-33 -40 -56 -49q2 54 -101 69q-2 -34 -27 -75q62 8 65 -40v-107h-75v66q1 77 10 107h-78q7 -39 8 -107v-66h-79q-27 155 -72 236q-20 -30 -63 -57q53 -54 64 -153q7 -48 8 -131q1 -62 -1 -258
q-12 12 -24 30q-2 -3 -6 -8q-21 -29 -39 -50q117 -104 176 -274zM323 177h-135q-11 15 -31 41q-29 38 -36 50h141q22 -24 61 -91zM165 324v109h77v-109h-77zM302 324v109h75v-109h-75zM563 350v138h90v-138h-90zM720 350v138h97v-138h-97zM242 485h-77l-2 113h79v-113z
M302 485v113h75v-113h-75z" />
</svg>
