<?xml version="1.0" standalone="no"?>
<!DOCTYPE svg PUBLIC "-//W3C//DTD SVG 1.1//EN" "http://www.w3.org/Graphics/SVG/1.1/DTD/svg11.dtd" >
<svg xmlns="http://www.w3.org/2000/svg" xmlns:xlink="http://www.w3.org/1999/xlink" version="1.1" viewBox="-10 0 1010 1000">
   <path fill="currentColor"
d="M187 -6q96 35 95 42q0 7 -10 16q-25 20 -44 56h66q28 0 106 -3q20 -1 31 -1l-100 162h40q45 0 109 -6q-7 33 -6 102v420q6 63 -83 79q-8 3 -12 4q-5 -38 -30 -77q64 15 62 -34v-123h-90v78q0 102 8 145h-79q10 -38 10 -145v-78h-83q-18 166 -58 254l-2 -2
q-32 -23 -71 -39q85 -57 68 -443q-1 -72 -1 -113q-18 27 -53 70q-11 -32 -41 -73q-2 -4 -3 -5q105 -82 171 -286zM645 -4q15 1 42 3q59 2 55 7q0 3 -4 9q-14 20 -14 73v258h91q-5 -1 19 -1q74 -2 99 -7v79q-30 -6 -112 -6h-25v331q1 52 23 54q44 2 48 -14q7 -17 8 -31
q2 -12 0 -50q31 23 87 41q-1 5 -4 16q-21 90 -51 102q-19 7 -115 7q-44 0 -54 -21q-13 -17 -12 -90v-343h-65v39q22 317 -121 451q-17 -20 -86 -41q166 -80 141 -419v-30q-78 0 -99 6v-79q17 3 93 6h64v-223q0 -51 -8 -127zM833 78q10 3 29 9q62 17 59 23l-4 4q-13 8 -22 33
q-11 31 -37 96q-16 41 -19 51q-44 -15 -71 -18q41 -71 65 -198zM558 90q7 37 27 119q11 44 16 67l-75 14q-5 -83 -44 -186zM319 169h-127l-36 60q-15 24 -23 37h125q26 -39 61 -97zM260 322h-85v101h85v-101zM411 320l-90 2v101h90v-103zM411 475h-90v101h90v-101zM177 475
v101h83v-101h-83z" />
</svg>
