<?xml version="1.0" standalone="no"?>
<!DOCTYPE svg PUBLIC "-//W3C//DTD SVG 1.1//EN" "http://www.w3.org/Graphics/SVG/1.1/DTD/svg11.dtd" >
<svg xmlns="http://www.w3.org/2000/svg" xmlns:xlink="http://www.w3.org/1999/xlink" version="1.1" viewBox="-10 0 1034 1024">
  <g transform="matrix(1 0 0 -1 0 820)">
   <path fill="currentColor"
d="M340 608q-27 -51 -73 -120h-77q-9 0 -34 3q-9 3 -33 5q1 -36 5 -75l-4 -308q-7 -87 -31 -157q-24 -63 -56 -93q30 -9 47 -20q39 63 56 127q15 63 24 169h100l-3 -149q-1 -1 -1 -5q-1 -3 -1 -7h48q-4 54 -5 111v50h102v-199q0 -45 -67 -45q-18 0 -43 4q10 -27 16 -49
q40 6 82 11q25 9 40 26q9 15 10 50l1 511q0 19 4 48q-13 -1 -29 -5q-24 -3 -31 -3h-74q12 16 21 31t26 45q24 36 53 85q-66 -4 -97 -5h-109q28 57 38 69q9 15 33 30q-33 12 -55 23q-31 -78 -92 -175q-45 -69 -90 -107q10 -4 18 -9q9 -6 24 -15q49 63 104 148h153zM164 173
l1 123h99v-123h-100zM165 330v126h99v-126h-99zM302 330v126h102v-126h-102zM404 173h-102v123h102v-123zM689 616l-215 2q-15 3 -27 3v-46q9 0 14 2q12 0 52 3h176v-98l-127 1l-50 4q1 -31 5 -65l-1 -142q-3 -15 -4 -50q60 6 104 5h72q-36 -69 -96 -144q-40 -49 -73 -82
q-34 -30 -73 -57q25 -12 43 -28q57 55 109 116q49 60 91 121q0 -282 -3 -307q-1 -1 -2 -12h48l-4 41l-1 287q36 -49 42 -56l106 -111q25 -22 71 -60q15 18 41 38q-36 16 -81 50q-57 46 -122 129q-30 39 -49 75q114 0 130 -2q16 0 41 -3q-6 69 -6 103q0 96 2 108l4 46
q-34 -1 -70 -5h-109v98l193 -1l34 -4v46q-16 -3 -29 -3q-19 0 -37 -2h-161v68q0 40 13 67h-56q1 -33 5 -67v-68zM554 271v175h135v-175h-135zM727 271v175h137v-175h-137z" />
  </g>

</svg>
