<?xml version="1.0" standalone="no"?>
<!DOCTYPE svg PUBLIC "-//W3C//DTD SVG 1.1//EN" "http://www.w3.org/Graphics/SVG/1.1/DTD/svg11.dtd" >
<svg xmlns="http://www.w3.org/2000/svg" xmlns:xlink="http://www.w3.org/1999/xlink" version="1.1" viewBox="-10 0 1010 1000">
   <path fill="currentColor"
d="M222 -4q88 13 95 26q0 4 -10 14q-31 29 -57 77q174 0 187 -3q-77 123 -98 152h44q55 0 85 -6q-6 19 -6 80v446q1 65 -18 81q-10 15 -87 22q-3 -43 -20 -77q71 15 62 -44v-135h-87v102q0 51 6 95q1 8 1 10h-85q11 -39 14 -111v-96h-79q-11 167 -80 250q-37 -27 -67 -39
q89 -83 85 -300v-240q-4 4 -11 12q-11 11 -19 18l-43 -64q123 -91 188 -270zM675 -2q91 1 93 16q0 5 -7 15q-15 21 -15 39v125h75q52 0 90 -8q-9 28 -10 85v203q0 52 4 79q-27 -8 -92 -8h-67v216l101 -10q-16 -65 -37 -115l75 -10q52 172 67 252l-77 20q-5 -48 -12 -83
l-343 53l-30 -87l191 -12v-224h-86q0 48 6 66h-85q0 -4 2 -15q8 -47 8 -114v-199q0 -55 -6 -97q23 8 95 8h66v-111q0 -63 -6 -84zM329 167h-117q-43 66 -73 95h131q30 -47 59 -95zM595 254v227h86v-227h-86zM746 254v227h85v-227h-85zM399 316h-86v105h86v-105zM171 316v105
h81v-105h-81zM252 473h-81v103h81v-103zM313 473v103h86v-103h-86z" />
</svg>
