<?xml version="1.0" standalone="no"?>
<!DOCTYPE svg PUBLIC "-//W3C//DTD SVG 1.1//EN" "http://www.w3.org/Graphics/SVG/1.1/DTD/svg11.dtd" >
<svg xmlns="http://www.w3.org/2000/svg" xmlns:xlink="http://www.w3.org/1999/xlink" version="1.1" viewBox="-10 0 1034 1024">
  <g transform="matrix(1 0 0 -1 0 820)">
   <path fill="currentColor"
d="M363 616q-37 -69 -72 -123l-113 1l-38 4q1 -27 5 -55l-1 -268q-1 -6 -1 -13q0 -61 -5 -107q-1 -3 -1 -6q-6 -73 -38 -130q-13 -24 -43 -53q30 -12 47 -23q40 63 57 121q15 61 20 164h102v-113q0 -33 -5 -63h49q-6 19 -6 63v113h113v-171q0 -27 -5 -37q-4 -9 -21 -12
q-13 -3 -44 -3q-6 1 -34 5q1 -3 3 -7q1 -3 3 -8q0 -3 2 -7q3 -13 8 -29l48 6q6 0 12 2q34 6 53 23q12 15 13 57l1 512l4 39q-25 -1 -51 -5h-88l27 48l38 65l31 51q-60 -6 -70 -6h-134l13 25q24 43 55 58q-27 9 -61 27q-84 -207 -188 -268q39 -19 52 -29q54 63 109 152h154z
M183 329v128h99v-128h-99zM180 163l3 130h99v-130h-102zM320 163v130h113v-130h-113zM433 329h-113v128h113v-128zM921 -111q4 -13 9 -26q16 9 39 20q-42 106 -115 232q-16 -10 -40 -20q16 -21 29 -40l33 -62l-130 -22v230l146 -1l39 -4q-4 45 -5 59l1 252l4 40
q-51 -4 -65 -5h-120q0 180 3 186q1 13 11 31h-57q4 -30 5 -60v-157l-130 1q-15 3 -42 4q1 -28 5 -58l-1 -250q-3 -15 -4 -38v-5q46 4 96 5h76v-236q-43 -9 -99 -17q-55 -6 -105 -10q15 -36 21 -57q36 15 129 34l71 16l167 31q12 -28 18 -45q4 -13 11 -28zM708 237h-130v269
h130v-269zM746 237v269h142v-269h-142z" />
  </g>

</svg>
