<?xml version="1.0" standalone="no"?>
<!DOCTYPE svg PUBLIC "-//W3C//DTD SVG 1.1//EN" "http://www.w3.org/Graphics/SVG/1.1/DTD/svg11.dtd" >
<svg xmlns="http://www.w3.org/2000/svg" xmlns:xlink="http://www.w3.org/1999/xlink" version="1.1" viewBox="-10 0 1034 1024">
  <g transform="matrix(1 0 0 -1 0 820)">
   <path fill="currentColor"
d="M268 100q0 -103 -2 -132l-3 -26h48q-3 25 -5 52v106h90v-166q0 -48 -53 -48q-30 0 -67 9l11 -33q0 -6 2 -16q15 0 25 -1q54 0 80 7q39 9 40 77l1 517l4 51q-34 0 -55 -4l-73 -2l64 108l39 60l-67 -7h-109q3 7 6 11q6 6 14 21q21 39 48 52q-42 25 -53 34q-43 -99 -97 -164
q-46 -54 -110 -88q25 -15 44 -33q72 63 124 133h126q-36 -69 -73 -127q-52 0 -77 2q-19 3 -48 4q1 -36 5 -73q0 -282 -3 -322q-1 -4 -1 -9q-7 -87 -46 -157q-16 -33 -58 -69q28 -7 49 -21q28 37 58 101q27 64 37 153h85zM185 134l1 137h82v-137h-83zM186 308v149h82v-149
h-82zM306 308v149h90v-149h-90zM306 134v139h90v-139h-90zM681 84l-188 1l-37 5v-46h8q7 3 36 4l181 1q0 -150 -2 -178l-3 -22h48q-6 55 -5 75v125q201 0 212 -2q3 0 7 -1q1 0 14 -2v46l-62 -6h-171v94h113q6 0 33 -3q12 0 33 -3q-3 30 -5 60l1 274q0 18 4 46q-60 -6 -91 -6
h-41q30 48 57 94q28 51 38 62q9 12 32 26q-31 19 -55 38q-55 -135 -119 -220l-169 1q-4 1 -47 5q1 -21 2 -35q3 -24 3 -34l-1 -262q-3 -12 -4 -49q66 6 97 6h81v-94zM545 373v138h136v-138h-136zM545 213v125h136v-125h-136zM719 373v138h136v-138h-136zM719 213v125h136
v-125h-136zM486 730q30 -27 73 -75q43 -51 59 -78q30 30 33 32q-24 30 -97 111q-13 15 -37 39q-12 -15 -31 -29v0z" />
  </g>

</svg>
