<?xml version="1.0" standalone="no"?>
<!DOCTYPE svg PUBLIC "-//W3C//DTD SVG 1.1//EN" "http://www.w3.org/Graphics/SVG/1.1/DTD/svg11.dtd" >
<svg xmlns="http://www.w3.org/2000/svg" xmlns:xlink="http://www.w3.org/1999/xlink" version="1.1" viewBox="-10 0 1010 1000">
   <path fill="currentColor"
d="M244 -19q80 28 91 45q0 2 -6 5q-34 17 -69 82h50q48 0 114 -5q21 -1 30 -2q-35 75 -83 152q49 0 111 -8q-8 51 -8 137v367q2 96 -15 112q-12 24 -92 37q0 -48 -26 -77q51 1 59 -4q12 -3 11 -22v-163h-86v98q0 48 6 109q1 17 2 25h-77q1 -12 2 -35q4 -54 4 -103v-94h-81
q-11 157 -80 262q-33 -39 -67 -57q50 -54 67 -129q18 -73 18 -223v-162q-3 -2 -20 20q-16 22 -22 25q-3 -33 -45 -75q118 -85 212 -317zM802 8q83 44 81 50q0 3 -7 12q-11 12 -19 24q-24 35 -51 101q77 0 111 -8q-8 57 -8 151v87q0 79 8 159q-72 -8 -141 -8h-24v75h26
q99 0 162 -10v90q-70 -8 -160 -8h-28v49q0 69 8 141h-87q8 -70 8 -145v-45h-32q-87 -1 -143 8v-90q58 9 145 10h30v-75h-18q-73 0 -141 8q8 -56 8 -135v-139q0 -54 -8 -123q51 8 141 8h75q55 -126 64 -187zM637 14q35 68 55 133l-77 26q-12 -62 -57 -129zM343 173h-113
q-43 55 -65 87h127q28 -51 51 -87zM595 254v100h86v-100h-86zM752 254v100h93v-100h-93zM262 316h-79v107h79v-107zM411 316h-86v107h86v-107zM593 409v107h88v-107h-88zM845 409h-93v107h93v-107zM262 483h-79v95h79v-95zM411 483h-86v95h86v-95z" />
</svg>
