<?xml version="1.0" standalone="no"?>
<!DOCTYPE svg PUBLIC "-//W3C//DTD SVG 1.1//EN" "http://www.w3.org/Graphics/SVG/1.1/DTD/svg11.dtd" >
<svg xmlns="http://www.w3.org/2000/svg" xmlns:xlink="http://www.w3.org/1999/xlink" version="1.1" viewBox="-10 0 1034 1024">
  <g transform="matrix(1 0 0 -1 0 820)">
   <path fill="currentColor"
d="M889 583l-10 -365q-10 -249 -10 -279q-10 -57 -102 -57q-19 0 -52 5q15 -30 21 -53q93 9 129 27q42 24 46 117l4 132l8 377l4 81q3 27 5 56q-30 -1 -61 -5h-567q16 27 28 49l19 30q10 15 36 37q-37 13 -59 25q-13 -34 -36 -79q-60 -106 -132 -181q-60 -57 -105 -79
q27 -15 48 -32q22 19 41 39q33 31 66 69q67 84 70 86h609zM222 -6q-3 -24 -5 -50q46 4 82 5l359 -1l45 -4q-6 36 -6 56q0 93 2 104l4 33q-30 -1 -62 -5l-378 1q-19 3 -46 4q4 -54 5 -85v-58zM259 -15v112h399v-112h-399zM709 251l-61 -6l-404 1q-16 3 -25 5v-48q18 6 30 6
l399 1q39 0 53 -4q3 0 8 -3v48zM222 308q3 0 5 1q16 3 56 4h365q42 0 61 -5v46q-30 -1 -61 -5l-402 1q-18 1 -24 4v-46zM239 457q-48 0 -61 5v-46q39 4 61 5l512 -1q6 0 16 -2q3 0 17 -2v46q-30 -1 -61 -5h-209q1 3 16 23l-3 2l-1 2q-6 3 -9 7l-40 32q-1 0 -52 39
q-30 -28 -35 -32q31 -13 64 -41q21 -18 33 -32h-248z" />
  </g>

</svg>
