<?xml version="1.0" standalone="no"?>
<!DOCTYPE svg PUBLIC "-//W3C//DTD SVG 1.1//EN" "http://www.w3.org/Graphics/SVG/1.1/DTD/svg11.dtd" >
<svg xmlns="http://www.w3.org/2000/svg" xmlns:xlink="http://www.w3.org/1999/xlink" version="1.1" viewBox="-10 0 1010 1000">
   <path fill="currentColor"
d="M296 -19l21 3q77 9 78 16q1 2 -4 7q-16 19 -16 45v34q72 0 100 -1q35 -1 51 -5v73q-14 -4 -47 -5q-16 -1 -39 -1h-65v86q94 -12 151 -28q-20 45 -18 79q-320 26 -422 58q-6 2 -7 2q-22 -66 -33 -86h4q31 3 93 -2v-141q0 -45 -6 -67q6 0 17 1q85 5 80 13q0 2 -5 8
q-17 19 -17 51v131l90 -10v-170q0 -60 -6 -91zM560 -15q94 4 95 11q1 3 -4 10q-12 18 -12 40v67q115 -28 198 -81q48 64 58 87q-3 3 -13 1q-29 -6 -63 3q-132 37 -180 54v42q-7 42 57 37h68q49 1 65 -19q19 -19 24 -78q42 46 89 56q-20 119 -160 113h-92q-133 5 -125 -72
v-198q-1 -44 -5 -73zM526 308l20 75h210q132 -1 190 -14v86q-39 -8 -188 -8h-528q-159 -1 -196 10v-82q27 8 190 8h232q-7 -30 -35 -61zM813 483v71q-25 -7 -146 -6h-50h-258q-90 0 -127 2q-37 1 -59 6v-71q37 4 182 7h258q183 1 200 -9zM815 580v71q-19 -4 -58 -5
q-19 -1 -49 -1h-85h-254q-89 0 -129 2q-40 1 -67 6v-73q36 10 192 10h256q162 0 194 -10zM808 796q0 105 7 121h-103q10 -19 10 -54h-458q0 35 6 54h-95q7 -13 6 -81v-36q0 -91 -8 -113q30 8 182 8h274q151 0 186 -10q-7 25 -7 111zM724 750h-460v58h460v-58z" />
</svg>
