<?xml version="1.0" standalone="no"?>
<!DOCTYPE svg PUBLIC "-//W3C//DTD SVG 1.1//EN" "http://www.w3.org/Graphics/SVG/1.1/DTD/svg11.dtd" >
<svg xmlns="http://www.w3.org/2000/svg" xmlns:xlink="http://www.w3.org/1999/xlink" version="1.1" viewBox="-10 0 1034 1024">
  <g transform="matrix(1 0 0 -1 0 820)">
   <path fill="currentColor"
d="M128 421l-62 4q-3 0 -6 1v-46q1 1 5 1q1 1 5 1q57 3 109 3l763 -1q12 -1 24 -4v46q-27 -1 -54 -5h-360q9 16 22 28q-12 10 -15 12q-9 7 -62 40q-12 6 -30 18l356 -1l50 -4q-6 66 -5 102q0 67 2 81q0 21 3 42l-69 -6l-596 1q-24 4 -49 5q6 -69 6 -88q0 -72 -2 -95
q-3 -12 -4 -42q33 3 68 5h234q-4 -7 -9 -16q-6 -6 -14 -16l54 -30q21 -13 49 -36h-413zM202 556v142h190v-142h-190zM429 698h186v-142h-186v142zM651 556v142h179v-142h-179zM206 118q6 -48 6 -75q0 -147 -2 -175q-3 -10 -4 -21h48q-3 19 -4 31l-1 46h531q-1 -45 -6 -70h49
q-4 12 -5 35l-1 163l6 66q-34 -1 -69 -5l-496 1q-19 3 -52 4zM249 -40v117h531v-117h-531zM209 178q4 1 38 5l505 1q51 0 57 -3q3 0 8 -3v47q-27 -1 -54 -5l-515 1q-13 1 -27 2l-12 2v-47zM212 278q33 3 67 5q525 0 536 -3q3 0 7 -2v46q-27 -1 -54 -5l-517 1q-13 1 -27 2
l-12 2v-46z" />
  </g>

</svg>
