<?xml version="1.0" standalone="no"?>
<!DOCTYPE svg PUBLIC "-//W3C//DTD SVG 1.1//EN" "http://www.w3.org/Graphics/SVG/1.1/DTD/svg11.dtd" >
<svg xmlns="http://www.w3.org/2000/svg" xmlns:xlink="http://www.w3.org/1999/xlink" version="1.1" viewBox="-10 0 1010 1000">
   <path fill="currentColor"
d="M460 -8q106 10 105 18q0 6 -7 17q-27 39 -48 118h230q10 -2 58 -4q66 -3 81 -6v72q-28 -5 -139 -6h-246q-2 5 -7 15q-8 18 -21 48h322q99 -1 137 -6v70q-53 -7 -137 -8h-113q89 101 289 123q-42 37 -59 85q-59 -19 -147 -61h-492q-17 8 -57 30q-83 44 -108 53
q-20 -46 -61 -73q181 -40 301 -155h-149q-92 1 -132 6v-70q37 6 132 8h195q17 -26 32 -65h-179q-94 0 -137 8v-74q32 5 123 9q11 1 16 1h195q24 -94 23 -153zM595 320h-164q-39 51 -98 95h139q-6 -22 -30 -57l88 -12q4 9 13 44q5 18 7 25h135q-9 -10 -33 -34
q-39 -40 -57 -61zM774 498v66q-30 -7 -167 -6h-252q-83 0 -105 1q-30 0 -42 3v-62q49 6 151 6h246q96 -1 169 -8zM774 594v63q-45 -8 -153 -8h-272q-109 0 -139 6v-63q30 6 143 6h264q120 0 157 -4zM782 685q-5 17 -4 81v34q1 70 6 97h-86q4 -17 4 -39h-410l2 45h-86
q6 -20 8 -89v-48q0 -55 -4 -81q55 6 163 6h254q110 1 153 -6zM702 742h-410v64h410v-64zM290 141q-29 -33 -105 -79l65 -54q30 19 105 90zM677 141q-33 -21 -64 -31q63 -46 97 -108q15 7 41 18q54 21 47 26q4 0 -121 95z" />
</svg>
