<?xml version="1.0" standalone="no"?>
<!DOCTYPE svg PUBLIC "-//W3C//DTD SVG 1.1//EN" "http://www.w3.org/Graphics/SVG/1.1/DTD/svg11.dtd" >
<svg xmlns="http://www.w3.org/2000/svg" xmlns:xlink="http://www.w3.org/1999/xlink" version="1.1" viewBox="-10 0 1010 1000">
   <path fill="currentColor"
d="M546 -33q17 56 33 101h221q86 0 129 -6q-8 21 -8 51v28q-1 49 4 64h-96q8 -27 8 -80h-504h-160q1 57 4 90h-92q6 -22 6 -58v-38q0 -35 -4 -59q38 9 111 8h286q-16 -34 -46 -83zM347 141q83 -1 80 8q0 2 -4 5q-12 12 -12 31h186q1 -30 -4 -44q77 0 78 8q0 2 -2 5
q-8 12 -8 31h59q54 -1 84 -4v56q-26 -4 -78 -4h-67v37h59q54 -1 101 -4v50q0 3 -33 1q-40 -3 -66 -3h-61v48h168q60 0 92 -6v63q-27 -6 -109 -6h-106q68 93 264 119q-36 28 -57 80q-73 -26 -117 -52v48q-34 -6 -119 -6h-338q-66 0 -109 4v-48q19 3 41 3q17 1 68 1h336
q86 0 117 -6q-24 -13 -52 -32h-218h-274q-84 50 -153 80q-29 -48 -59 -74q133 -11 264 -119h-125q-72 0 -102 6v-67q33 9 104 10h176v-46h-107q-46 0 -63 4v-54q28 6 73 6h97v-37h-81q-45 0 -70 5v-61q40 8 78 8h73q0 -29 -4 -44zM411 233v37h188v-37h-188zM411 314v46h188
v-46h-188zM452 411h-75q-27 24 -60 56q-11 11 -15 14h73h101q-8 -24 -20 -44l74 -10q7 36 16 54h144q-29 -34 -51 -70h-187zM226 635q23 4 44 5q22 1 67 1h340q88 0 121 -4v50q-47 -6 -127 -6h-330q-82 0 -115 6v-52zM218 717q41 4 105 4h373q81 0 106 -4q-6 30 -6 69v50
q0 60 8 81h-86q4 -18 4 -54h-428q-1 30 4 42h-80q4 -54 4 -87v-34q0 -36 -4 -67zM294 764v56h430v-56h-430z" />
</svg>
