<?xml version="1.0" standalone="no"?>
<!DOCTYPE svg PUBLIC "-//W3C//DTD SVG 1.1//EN" "http://www.w3.org/Graphics/SVG/1.1/DTD/svg11.dtd" >
<svg xmlns="http://www.w3.org/2000/svg" xmlns:xlink="http://www.w3.org/1999/xlink" version="1.1" viewBox="-10 0 1010 1000">
   <path fill="currentColor"
d="M718 -17q9 12 24 75q94 -1 155 -8v69q-14 -4 -48 -6q-30 -1 -99 -1h-71q-136 0 -171 7v-67q31 8 161 8q-4 -23 -26 -66zM117 14q24 4 64 5q20 1 45 1h66q124 0 166 -8q-7 25 -8 98q0 66 8 85q-30 -8 -162 -8h-119q0 7 -4 30q-1 8 -2 12q21 6 141 6q111 -1 138 -6
q-6 26 -6 89q0 33 5 68q1 7 1 9q-17 -5 -103 -4h-37q-116 1 -149 8q5 -20 6 -85v-70q-20 55 -68 139q-28 -36 -67 -45q55 -51 74 -125q20 -75 11 -199zM389 72h-202l-4 63h206v-63zM772 119q86 22 85 28q-1 5 -6 6q-25 7 -63 54q119 0 150 -8v69q-48 -8 -150 -8h-58v60
q128 0 159 -8v61q-30 -8 -157 -8q0 39 8 56h-79q7 -12 6 -54q-112 1 -143 8v-63q29 7 143 8v-60h-70q-97 0 -117 6v-65q13 4 39 5q13 1 30 1h46q-12 -24 -41 -62l69 -18q40 50 44 58l-68 22h129q29 -38 44 -88zM226 284v58h163v-58h-163zM171 524q15 8 174 8h304
q117 0 163 -8v68q-40 -10 -165 -10h-300q-123 1 -176 8v-66zM169 613q30 5 174 6h294q88 0 120 -1q39 -1 56 -5v64q-45 -8 -178 -8h-292q-128 0 -174 6v-62zM804 705q-8 30 -8 107q0 67 8 99h-86q6 -15 6 -40h-466q0 24 6 38h-87q10 -27 10 -103q1 -85 -8 -101q18 5 61 6
q21 1 51 2h78h218q140 0 217 -8zM724 762h-468v60h468v-60zM532 391q12 27 18 54h236q111 0 160 -8v67q-24 -8 -166 -8h-530q-152 0 -196 8v-67q34 7 196 8h228q-6 -16 -17 -36l-3 -6z" />
</svg>
