<?xml version="1.0" standalone="no"?>
<!DOCTYPE svg PUBLIC "-//W3C//DTD SVG 1.1//EN" "http://www.w3.org/Graphics/SVG/1.1/DTD/svg11.dtd" >
<svg xmlns="http://www.w3.org/2000/svg" xmlns:xlink="http://www.w3.org/1999/xlink" version="1.1" viewBox="-10 0 1034 1024">
  <g transform="matrix(1 0 0 -1 0 820)">
   <path fill="currentColor"
d="M249 446q-19 -1 -39 -5l-146 2q-6 3 -13 3v-46q49 4 80 5h81l-13 -382q-3 -42 -27 -66q28 -28 42 -46l1 -2q7 15 17 28q18 25 35 53l88 130l28 43q3 6 8 13q-12 27 -20 54q-51 -103 -132 -207l12 367q0 12 6 56h-8zM182 734q-9 -9 -22 -19q40 -33 80 -73l49 -49
q9 -9 25 -33q6 7 12 13q18 18 21 22q-36 39 -136 134q-9 7 -18 17q-6 -6 -11 -12zM485 430l-6 -176q-6 -69 -15 -117q-27 -121 -118 -205q-33 -30 -71 -41q3 0 54 -35q81 78 119 137q52 84 64 207q9 115 11 230v234h246l-8 -677q0 -61 34 -74q18 -6 54 -7q21 0 45 5
q33 7 51 33q13 28 30 125q-21 7 -29 12q-9 6 -25 16l1 -33q0 -25 -4 -62t-29 -48q-18 -4 -40 -5q-9 0 -16 1q-21 3 -25 10q-9 9 -7 39l8 652q1 27 5 54q-25 -1 -52 -5l-243 1q-12 3 -39 4q1 -27 5 -54v-221z" />
  </g>

</svg>
