<?xml version="1.0" standalone="no"?>
<!DOCTYPE svg PUBLIC "-//W3C//DTD SVG 1.1//EN" "http://www.w3.org/Graphics/SVG/1.1/DTD/svg11.dtd" >
<svg xmlns="http://www.w3.org/2000/svg" xmlns:xlink="http://www.w3.org/1999/xlink" version="1.1" viewBox="-10 0 1034 1024">
  <g transform="matrix(1 0 0 -1 0 820)">
   <path fill="currentColor"
d="M106 425q-21 1 -47 2q-6 3 -13 3v-46q49 4 79 5h77l-4 -384q-3 -48 -24 -71q21 -19 31 -30q7 -9 17 -19q27 40 65 89q31 39 127 147q-13 28 -21 56q-15 -25 -34 -51q-18 -25 -39 -51q-39 -49 -83 -93l4 399q0 18 6 49q-55 -4 -83 -5h-58zM292 573q9 12 21 24
q-67 61 -169 131q-18 -24 -28 -34q49 -30 89 -62q37 -30 77 -69q4 6 10 10zM779 644h131q21 0 46 -3q1 0 16 -2v46q-45 -4 -62 -5l-486 1q-3 0 -22 1q-6 3 -13 3v-46q3 3 45 5h304v-676q0 -21 -6 -32q-9 -12 -35 -15q-28 -3 -56 -4q-22 0 -59 6q18 -37 24 -56q36 0 70 5
q69 9 87 26q15 15 16 60v686z" />
  </g>

</svg>
