<?xml version="1.0" standalone="no"?>
<!DOCTYPE svg PUBLIC "-//W3C//DTD SVG 1.1//EN" "http://www.w3.org/Graphics/SVG/1.1/DTD/svg11.dtd" >
<svg xmlns="http://www.w3.org/2000/svg" xmlns:xlink="http://www.w3.org/1999/xlink" version="1.1" viewBox="-10 0 1034 1024">
  <g transform="matrix(1 0 0 -1 0 820)">
   <path fill="currentColor"
d="M459 -53v515q0 42 12 66h-54q0 -9 2 -14l3 -147l-1 -405q-3 -19 -4 -54q21 1 45 3q15 1 407 20q-1 -33 -3 -67q-1 -1 -1 -5q-1 -3 -1 -7h48q-3 33 -5 67l1 577q1 25 11 41h-55l4 -38l1 -535l-193 -7v739q0 42 12 67h-55l4 -38l1 -771zM124 421q-27 3 -53 3l-13 2v-46
q45 4 136 5h17l-4 -393q-1 -33 -20 -57l44 -45q12 24 27 44q21 34 54 79q3 6 68 92l-19 47q-15 -18 -29 -45q-40 -60 -88 -121l6 369q1 36 5 71q-33 -1 -66 -5h-65zM284 645q-36 33 -66 63l-20 17q-12 -12 -32 -27q42 -37 86 -81q49 -49 63 -68q15 16 34 34q-15 12 -53 50z
" />
  </g>

</svg>
