<?xml version="1.0" standalone="no"?>
<!DOCTYPE svg PUBLIC "-//W3C//DTD SVG 1.1//EN" "http://www.w3.org/Graphics/SVG/1.1/DTD/svg11.dtd" >
<svg xmlns="http://www.w3.org/2000/svg" xmlns:xlink="http://www.w3.org/1999/xlink" version="1.1" viewBox="-10 0 1010 1000">
   <path fill="currentColor"
d="M188 22q75 82 108 145l-72 52q-41 -85 -107 -149zM813 58q-22 153 -20 322q4 175 30 305q13 53 32 57q29 -15 36 -113q33 46 69 64q-25 80 -53 115q-47 72 -101 6q-36 -39 -56 -117q-22 -107 -28 -264q-5 -161 8 -302h-196v260q94 0 133 -4v72q-15 -3 -96 -2h-37v254
q1 96 6 154h-84q6 -65 6 -158v-252h-29q-91 0 -114 4v-70q26 4 114 4h29v-262q-50 2 -119 6v-77q82 4 149 4h135q101 -2 183 -10q3 -1 3 4zM260 278q-5 30 -6 103l-10 322q16 -13 70 -75q22 -26 35 -40l38 79q-130 122 -177 183l-61 -70q24 -30 24 -85l8 -347q-97 0 -135 4
v-80q156 2 208 -2q6 0 6 8z" />
</svg>
