<?xml version="1.0" standalone="no"?>
<!DOCTYPE svg PUBLIC "-//W3C//DTD SVG 1.1//EN" "http://www.w3.org/Graphics/SVG/1.1/DTD/svg11.dtd" >
<svg xmlns="http://www.w3.org/2000/svg" xmlns:xlink="http://www.w3.org/1999/xlink" version="1.1" viewBox="-10 0 1034 1024">
  <g transform="matrix(1 0 0 -1 0 820)">
   <path fill="currentColor"
d="M250 433q-55 -3 -82 -4l-106 2q-6 3 -13 3v-46q49 4 81 5h84l-9 -415q-3 -51 -30 -71q21 -28 38 -56q12 22 32 46l49 67l106 132q-18 48 -18 51q-31 -48 -61 -86q-31 -40 -79 -92q9 408 12 426l4 39q-4 0 -8 -1zM328 559q15 18 24 24l-157 145q-16 -18 -35 -34
q81 -58 155 -147q6 6 13 12zM904 565q22 0 46 -2l16 -3v46q-45 -4 -62 -5h-359q10 19 20 40q27 54 37 68q9 21 39 33q-12 6 -26 10q-24 9 -45 19q-7 -33 -17 -55q-12 -30 -36 -79q-15 -28 -40 -68q-33 -49 -50 -68q-48 -55 -85 -73q31 -19 49 -35q31 36 60 72q30 39 74 100
h379zM797 295q15 12 19 18l80 74q-40 -1 -82 -5l-338 2q-6 3 -13 3v-46q49 4 78 5h251l-97 -92l-80 -81q-54 -57 -86 -102q-48 -66 -48 -115q0 -51 41 -75q37 -18 106 -23q105 -3 108 -4q91 7 112 11q37 7 59 21q24 18 39 57q6 16 10 34q4 19 12 58q-39 15 -58 25
q3 -24 4 -42q0 -13 -3 -35q-4 -33 -17 -52q-18 -27 -102 -34q-60 -4 -105 -5q-10 1 -62 4q-49 3 -74 15q-28 16 -29 44q0 48 57 118q66 85 178 186q19 18 40 36v0z" />
  </g>

</svg>
