<?xml version="1.0" standalone="no"?>
<!DOCTYPE svg PUBLIC "-//W3C//DTD SVG 1.1//EN" "http://www.w3.org/Graphics/SVG/1.1/DTD/svg11.dtd" >
<svg xmlns="http://www.w3.org/2000/svg" xmlns:xlink="http://www.w3.org/1999/xlink" version="1.1" viewBox="-10 0 1034 1024">
  <g transform="matrix(1 0 0 -1 0 820)">
   <path fill="currentColor"
d="M238 432q-43 -3 -66 -4l-111 2q-6 3 -13 3v-46q49 4 81 5h83l-7 -397q-3 -45 -33 -67q27 -24 48 -48l12 18l96 141l68 104l-20 55q-54 -106 -132 -209l8 395q1 24 5 49q-10 0 -19 -1zM168 734q0 -1 -3 -3q-10 -10 -13 -14q-6 -3 -9 -7q13 -9 21 -17l89 -74q19 -19 42 -46
q12 16 22 23q3 6 11 11q-36 34 -76 70l-77 65q-4 -3 -7 -8zM661 612v-643l-276 2q-6 3 -13 3v-46h2l29 4l502 1q36 0 62 -5v46q-24 -4 -62 -5h-203v643h166q37 0 62 -5v46q-30 -1 -62 -5l-451 2q-6 3 -14 3v-46q30 3 60 5h198z" />
  </g>

</svg>
