<?xml version="1.0" standalone="no"?>
<!DOCTYPE svg PUBLIC "-//W3C//DTD SVG 1.1//EN" "http://www.w3.org/Graphics/SVG/1.1/DTD/svg11.dtd" >
<svg xmlns="http://www.w3.org/2000/svg" xmlns:xlink="http://www.w3.org/1999/xlink" version="1.1" viewBox="-10 0 1010 1000">
   <path fill="currentColor"
d="M238 14q46 63 99 175l-95 32q-32 -92 -97 -173zM619 14q35 111 66 262l-100 14q-17 -152 -59 -258zM758 94q102 20 111 39q0 5 -9 14q-14 13 -17 28q-4 17 -14 56q-58 263 -142 386q106 103 285 169q-55 33 -85 85q-153 -88 -250 -188q-105 117 -264 214q-33 -47 -77 -73
q191 -81 287 -199q-117 -158 -186 -462l97 -14q-4 187 139 411q96 -146 125 -466zM278 300q-3 12 -10 107v272q47 -46 117 -133l42 87q-133 119 -205 203l-57 -78q24 -28 23 -85v-298q-66 0 -89 1q-30 0 -53 3v-89q74 12 222 0q13 -2 10 10z" />
</svg>
