<?xml version="1.0" standalone="no"?>
<!DOCTYPE svg PUBLIC "-//W3C//DTD SVG 1.1//EN" "http://www.w3.org/Graphics/SVG/1.1/DTD/svg11.dtd" >
<svg xmlns="http://www.w3.org/2000/svg" xmlns:xlink="http://www.w3.org/1999/xlink" version="1.1" viewBox="-10 0 1034 1024">
  <g transform="matrix(1 0 0 -1 0 820)">
   <path fill="currentColor"
d="M253 398q0 18 5 52q-4 0 -8 -1l-45 -4l-139 2q-6 3 -13 3v-46q49 4 80 5h81l-6 -355q-3 -58 -34 -83q24 -24 44 -48q3 6 8 14l161 258q-12 18 -25 43q-15 -36 -36 -68q-18 -28 -34 -57q-16 -28 -46 -75zM191 742l-15 15q-15 -16 -32 -31q39 -33 74 -68q27 -27 43 -46
q13 -16 26 -36q15 21 33 36q-43 48 -73 77zM306 -136q15 -12 30 -22q76 82 112 149q46 87 53 216q4 121 5 212l1 266q0 12 6 29q1 7 6 16h-56q4 -27 5 -60v-287l-2 -80q0 -45 -3 -83q-6 -105 -27 -159q-22 -66 -73 -125q-31 -36 -74 -62q7 -4 17 -10zM701 -37q-6 30 -6 59
l1 617q1 21 13 47h-57l6 -60q0 -628 -3 -647q0 -3 -3 -16h49zM854 759q1 -30 5 -60l-1 -809q-1 -10 -2 -24l-2 -13h49q-3 15 -3 12q-1 24 -3 50l1 799q0 6 13 45h-57z" />
  </g>

</svg>
