<?xml version="1.0" standalone="no"?>
<!DOCTYPE svg PUBLIC "-//W3C//DTD SVG 1.1//EN" "http://www.w3.org/Graphics/SVG/1.1/DTD/svg11.dtd" >
<svg xmlns="http://www.w3.org/2000/svg" xmlns:xlink="http://www.w3.org/1999/xlink" version="1.1" viewBox="-10 0 1034 1024">
  <g transform="matrix(1 0 0 -1 0 820)">
   <path fill="currentColor"
d="M226 371q0 15 5 53q-28 -1 -57 -5l-115 2q-6 3 -13 3v-46q49 4 76 5h67l-3 -402q-3 -61 -27 -79q16 -9 44 -32q3 -3 7 -6l64 88l104 125q-7 31 -14 54q-70 -103 -142 -181zM128 704q75 -54 147 -144q4 9 30 34l-83 81q-39 36 -65 58q-13 -16 -29 -29zM512 346l-152 4
q-4 1 -7 1v-46q49 4 74 5h85l-2 -417q-1 -1 -1 -4q0 -6 -2 -14h48q-4 52 -5 88v347h87q37 0 63 -5v46q-24 -4 -63 -5h-87v315h223l-10 -683q0 -57 35 -68q18 -6 53 -7q22 0 45 4q34 4 55 36q0 1 19 50q6 27 12 49q-4 3 -17 7q-16 6 -35 16q0 -7 1 -18q0 -24 -5 -56
q-7 -39 -36 -47q-24 -3 -33 -4q-6 0 -21 2q-22 3 -27 10q-6 7 -6 50l8 635q6 60 6 64l-60 -6l-353 1q-12 1 -26 2q-6 3 -14 3v-47q0 1 2 1h6q9 4 25 5l115 1v-315z" />
  </g>

</svg>
