<?xml version="1.0" standalone="no"?>
<!DOCTYPE svg PUBLIC "-//W3C//DTD SVG 1.1//EN" "http://www.w3.org/Graphics/SVG/1.1/DTD/svg11.dtd" >
<svg xmlns="http://www.w3.org/2000/svg" xmlns:xlink="http://www.w3.org/1999/xlink" version="1.1" viewBox="-10 0 1034 1024">
  <g transform="matrix(1 0 0 -1 0 820)">
   <path fill="currentColor"
d="M255 418q-55 -3 -81 -4l-104 2q-6 3 -13 3v-46q49 4 80 5h83l-6 -410q-1 -39 -7 -51q-4 -12 -26 -26q39 -49 43 -56l25 38q4 6 9 12l62 82l105 127q-10 24 -21 50q-30 -46 -61 -88q-34 -45 -89 -106q3 418 5 432l4 37q-4 0 -8 -1zM155 705q21 -15 39 -30t41 -36
q57 -51 80 -86l32 36q-72 69 -159 147q-15 -18 -33 -31zM780 523l-371 1q-3 0 -16 1q-6 3 -13 3v-46q3 3 45 5h355v-530q0 -31 -7 -45q-7 -12 -34 -16q-36 -3 -59 -4q-22 0 -58 7q12 -22 18 -55q102 7 115 10q7 3 17 4q48 12 48 79v550h78q39 0 63 -5v46q-24 -4 -63 -5h-78
v183q0 4 2 23q1 16 11 38h-59q6 -27 6 -59v-185zM604 169q12 9 24 20q3 3 7 6q-36 51 -89 114l-58 67q-15 -15 -33 -29q78 -85 104 -123q19 -28 40 -61q1 3 5 6v0z" />
  </g>

</svg>
