<?xml version="1.0" standalone="no"?>
<!DOCTYPE svg PUBLIC "-//W3C//DTD SVG 1.1//EN" "http://www.w3.org/Graphics/SVG/1.1/DTD/svg11.dtd" >
<svg xmlns="http://www.w3.org/2000/svg" xmlns:xlink="http://www.w3.org/1999/xlink" version="1.1" viewBox="-10 0 1010 1000">
   <path fill="currentColor"
d="M183 6q75 93 119 161l-92 56q-22 -76 -113 -165zM929 56v93q-35 -9 -141 -10h-310v641h335q87 -2 133 -10v95q-42 -8 -133 -9h-253q-154 3 -175 6q8 -48 10 -159v-480q0 -130 -6 -165q27 3 178 6h225q99 -1 137 -8zM758 189q14 6 37 16q80 32 70 35q-1 2 -5 5
q-15 13 -29 39q-31 63 -79 175q16 22 60 83q72 99 89 121l-91 54q-30 -79 -100 -183q-59 93 -135 187q-44 -29 -87 -38q82 -65 173 -216q-69 -100 -167 -199l75 -45q18 23 55 71q58 79 76 97q53 -132 58 -202zM242 286q-10 47 -10 131v310q70 -67 109 -127q4 67 22 111
q-115 91 -178 158q-33 -49 -60 -75q29 -26 28 -85v-338q-42 0 -103 8q-10 2 -14 2v-95q22 8 97 8q69 -1 109 -8z" />
</svg>
