<?xml version="1.0" standalone="no"?>
<!DOCTYPE svg PUBLIC "-//W3C//DTD SVG 1.1//EN" "http://www.w3.org/Graphics/SVG/1.1/DTD/svg11.dtd" >
<svg xmlns="http://www.w3.org/2000/svg" xmlns:xlink="http://www.w3.org/1999/xlink" version="1.1" viewBox="-10 0 1034 1024">
  <g transform="matrix(1 0 0 -1 0 820)">
   <path fill="currentColor"
d="M115 411q-21 1 -47 2q-6 3 -13 3v-46q49 4 78 5h74l-6 -394q-3 -43 -27 -66q30 -33 40 -48q63 81 141 170q1 3 52 60q-7 24 -13 55q-78 -108 -154 -184l7 403q0 18 5 45q-55 -4 -80 -5h-57zM300 566q4 6 10 10q-24 31 -126 136q-15 -12 -30 -30q84 -78 122 -136q1 0 3 3
q9 9 21 17zM618 269l-266 2q-6 3 -13 3v-46q30 4 60 5h219l-1 -362l-4 -35q-1 0 -1 -2h50q-4 45 -5 63v336h239q0 -46 -6 -138q-3 -12 -4 -27q-6 -36 -34 -53q-24 -13 -62 -14q-18 0 -46 4q6 -13 7 -17q3 -4 4 -8q0 -3 5 -14q0 -1 2 -5q1 -4 3 -11q103 15 129 42
q18 19 26 45q6 28 10 90q10 141 11 147q-49 -4 -53 -5h-231v136l185 -1l38 -4v46q-51 -4 -85 -5h-138v144l226 -1l38 -4v46q-45 -4 -63 -5h-201v93q0 27 13 61h-59q6 -18 7 -60v-94l-225 1q-13 1 -28 3q-4 1 -7 1v-46h2q1 1 44 5h214v-144l-185 1q-9 1 -30 2q-3 1 -13 2v-46
q3 3 50 5h178v-136z" />
  </g>

</svg>
