<?xml version="1.0" standalone="no"?>
<!DOCTYPE svg PUBLIC "-//W3C//DTD SVG 1.1//EN" "http://www.w3.org/Graphics/SVG/1.1/DTD/svg11.dtd" >
<svg xmlns="http://www.w3.org/2000/svg" xmlns:xlink="http://www.w3.org/1999/xlink" version="1.1" viewBox="-10 0 1010 1000">
   <path fill="currentColor"
d="M230 16q48 66 103 169l-97 38q-40 -106 -93 -167zM871 74q-6 30 -6 83v238q0 98 8 113h-95q8 -31 8 -59h-260v280q-7 77 67 71h173q84 3 90 -119q1 -5 1 -8q45 35 95 56q-18 149 -121 146h-285q-99 -2 -100 -91v-321q0 -58 -6 -94q24 8 106 8h240v-226h-234
q-113 -1 -125 8v-87q19 8 125 8h222q49 0 97 -6zM46 294q54 8 109 8h41q46 0 82 -6q-6 31 -6 79v320q51 -42 109 -101l34 89q-118 81 -189 155l-53 -74q24 -26 23 -75v-316h-39q-102 -1 -111 8v-87z" />
</svg>
