<?xml version="1.0" standalone="no"?>
<!DOCTYPE svg PUBLIC "-//W3C//DTD SVG 1.1//EN" "http://www.w3.org/Graphics/SVG/1.1/DTD/svg11.dtd" >
<svg xmlns="http://www.w3.org/2000/svg" xmlns:xlink="http://www.w3.org/1999/xlink" version="1.1" viewBox="-10 0 1010 1000">
   <path fill="currentColor"
d="M192 0q47 56 114 173l-82 48q-22 -77 -105 -179zM377 38q47 7 141 8h288q67 0 109 -6v83q-54 -6 -109 -6h-20v246h61q65 0 107 -7v83q-15 -4 -105 -4h-63v375q11 84 -149 87q-17 -67 -46 -103q119 16 111 -30v-331q-123 273 -301 427q-49 -39 -101 -56q224 -128 305 -371
q-143 0 -210 17q-3 1 -4 1q-13 -34 -28 -66q0 -1 5 -4q23 -16 37 -35q39 -63 53 -183q118 16 111 22q-1 4 -11 11q-15 12 -20 23q-43 103 -58 144h222v-246h-182q-100 0 -143 8v-87zM36 276q37 8 95 8q77 0 123 -8q-8 49 -8 137v250q5 -6 14 -17q47 -56 83 -112q15 38 54 81
q-120 118 -189 201q-22 -30 -63 -58q24 -29 24 -91v-311h-36q-37 0 -97 7v-87z" />
</svg>
