<?xml version="1.0" standalone="no"?>
<!DOCTYPE svg PUBLIC "-//W3C//DTD SVG 1.1//EN" "http://www.w3.org/Graphics/SVG/1.1/DTD/svg11.dtd" >
<svg xmlns="http://www.w3.org/2000/svg" xmlns:xlink="http://www.w3.org/1999/xlink" version="1.1" viewBox="-10 0 1034 1024">
  <g transform="matrix(1 0 0 -1 0 820)">
   <path fill="currentColor"
d="M705 558l3 160q0 27 4 31q0 4 3 9q3 6 7 16q-37 0 -62 4q4 -54 5 -100l-1 -120l-180 1q-19 3 -51 4q1 -39 5 -79l-3 -637q-1 -1 -2 -13h48q-3 33 -5 67v620h188q-7 -141 -27 -211q-21 -72 -70 -136q-37 -46 -83 -71q12 -3 24 -9q6 -3 16 -9l16 -8q63 70 89 115
q25 45 55 134q24 -27 45 -53l66 -88q37 -52 52 -82q18 16 39 29l-110 146q-36 45 -83 101q0 6 9 105l3 37h187v-569q0 -37 -13 -45q-15 -9 -42 -9q-22 0 -72 7q6 -18 14 -50q30 0 60 2q60 4 74 19q16 21 17 70l1 565l4 52q-72 -4 -104 -5h-126zM116 434q-24 3 -52 3l-13 2
v-46q54 6 84 5h76l-9 -431q0 -30 -17 -50q21 -12 47 -38q3 6 68 99q48 69 65 87q9 12 23 27l-24 52q-6 -9 -10 -18q-1 -6 -5 -10q-9 -9 -56 -81q-3 -3 -4 -7q-21 -31 -47 -65l7 405l6 71q-33 -1 -66 -5h-73zM186 684l54 -43q7 -6 60 -58q13 -15 26 -29q15 16 26 31l7 7
q-63 60 -159 138q-24 -24 -29 -34z" />
  </g>

</svg>
