<?xml version="1.0" standalone="no"?>
<!DOCTYPE svg PUBLIC "-//W3C//DTD SVG 1.1//EN" "http://www.w3.org/Graphics/SVG/1.1/DTD/svg11.dtd" >
<svg xmlns="http://www.w3.org/2000/svg" xmlns:xlink="http://www.w3.org/1999/xlink" version="1.1" viewBox="-10 0 1010 1000">
   <path fill="currentColor"
d="M478 -2q112 31 111 44q0 3 -8 9q-18 11 -25 27q-31 65 -50 111v542q0 99 1 124q2 34 7 44h-99q7 -13 9 -50q3 -34 3 -112v-381q-32 70 -77 140q-5 7 -7 10q-26 -23 -85 -39q172 -186 220 -469zM202 38q75 107 102 149l-84 40q-9 -17 -23 -44q-30 -63 -74 -109zM38 302
q36 8 113 8q59 0 101 -8q-8 39 -8 113v290q43 -51 81 -105q3 33 40 81q-115 112 -165 181q-19 -31 -63 -62q29 -33 30 -81v-344q-69 0 -129 8v-81zM508 518q82 -35 143 -85v-294v-59v-32q-1 -24 -2 -40q86 5 115 18q2 2 -7 11q-29 28 -29 55v266q78 -74 133 -179
q80 47 89 65q-1 4 -7 5q-21 5 -40 29q-101 123 -171 183v283q-2 34 8 39q9 9 48 9q47 2 58 -18q14 -19 21 -97q47 37 95 50q-31 139 -105 146h-99q-70 1 -86 -12q-18 -10 -17 -57v-288q-57 54 -76 66q-27 -37 -71 -64z" />
</svg>
