<?xml version="1.0" standalone="no"?>
<!DOCTYPE svg PUBLIC "-//W3C//DTD SVG 1.1//EN" "http://www.w3.org/Graphics/SVG/1.1/DTD/svg11.dtd" >
<svg xmlns="http://www.w3.org/2000/svg" xmlns:xlink="http://www.w3.org/1999/xlink" version="1.1" viewBox="-10 0 1010 1000">
   <path fill="currentColor"
d="M593 -2q116 3 121 16q1 4 -6 11q-17 19 -20 53q-1 17 -4 54q-5 56 -3 49h81q27 -1 71 -4q38 -2 74 -4q-4 51 -6 141v464q3 77 -26 92q-25 20 -147 25q1 -55 -40 -107q147 27 137 -36v-500h-148q-2 24 -13 114q-2 19 -3 29q17 21 93 137q42 65 59 91q-38 14 -89 44
q-27 -97 -87 -190q-42 120 -107 228q-12 -11 -56 -35q-27 -15 -26 -17q126 -120 147 -401h-151v492q1 -1 3 41q3 81 7 104h-95q10 -45 10 -147v-432q0 -34 -6 -135q37 3 147 6h89q6 -114 -6 -183zM194 28q21 36 65 107q29 44 43 68l-102 45q-32 -100 -95 -176zM40 300
q39 8 93 8q89 -2 107 -6q-9 46 -10 131v264q60 -62 91 -115q4 65 30 99q-118 98 -172 165q-28 -41 -62 -70q31 -29 30 -81v-316q-70 0 -107 10v-89z" />
</svg>
