<?xml version="1.0" standalone="no"?>
<!DOCTYPE svg PUBLIC "-//W3C//DTD SVG 1.1//EN" "http://www.w3.org/Graphics/SVG/1.1/DTD/svg11.dtd" >
<svg xmlns="http://www.w3.org/2000/svg" xmlns:xlink="http://www.w3.org/1999/xlink" version="1.1" viewBox="-10 0 1034 1024">
  <g transform="matrix(1 0 0 -1 0 820)">
   <path fill="currentColor"
d="M206 407l-8 -396q0 -31 -4 -44q-3 -9 -17 -25q24 -19 43 -47l180 250q-12 24 -23 50q-48 -87 -137 -201l7 399q1 15 3 31q1 9 3 24q-27 -1 -54 -5l-133 2q-6 3 -13 3v-46q30 4 60 5h93zM158 716q76 -60 152 -146q12 15 31 31q-36 39 -134 132q-9 9 -16 15q0 -1 -19 -20
q-7 -4 -14 -12zM347 -128q6 -9 13 -23q153 58 289 160q70 -49 122 -74q30 -15 69 -31l97 -37q9 12 17 25q9 15 27 29q-52 3 -126 25q-100 36 -175 96q57 78 90 134q30 58 70 162q-27 -1 -54 -5l-381 2q-6 3 -13 3v-46q49 4 76 5h6q28 -81 60 -135q27 -51 84 -120
q-150 -130 -292 -142q10 -13 21 -28zM779 297q-45 -132 -130 -226q-39 42 -71 97q-36 66 -59 129h260zM736 683v-180q0 -40 14 -62q16 -24 82 -24q21 0 111 8q1 37 5 56q-39 -16 -67 -21q-27 -3 -51 -4q-30 0 -42 7q-13 7 -14 49v158q0 6 3 26l3 29q-36 -6 -55 -6l-202 1
q-6 1 -41 5q6 -54 6 -74q-1 -51 -6 -85q-12 -72 -61 -120q-30 -24 -73 -37q30 -24 45 -41q30 24 59 52q33 36 50 75q24 52 24 188h210z" />
  </g>

</svg>
