<?xml version="1.0" standalone="no"?>
<!DOCTYPE svg PUBLIC "-//W3C//DTD SVG 1.1//EN" "http://www.w3.org/Graphics/SVG/1.1/DTD/svg11.dtd" >
<svg xmlns="http://www.w3.org/2000/svg" xmlns:xlink="http://www.w3.org/1999/xlink" version="1.1" viewBox="-10 0 1010 1000">
   <path fill="currentColor"
d="M190 12q38 37 104 163l-84 44q-41 -93 -101 -167zM359 62q2 0 16 1q67 7 115 7h296q43 0 100 -7q13 -1 15 -1v93q-2 0 -13 -1q-52 -7 -100 -7h-113v230h59q86 0 142 -7q7 -1 9 -1v88q-2 0 -10 -1q-62 -7 -141 -7h-59v309h123q76 0 131 -7q7 -1 8 -1v92q-2 0 -12 -1
q-53 -7 -125 -7h-385q-64 -2 -112 7q-9 1 -11 1v-90q2 0 13 1q53 7 100 7v-319q0 -92 -4 -123q103 3 101 14q1 3 -3 9q-17 31 -17 112v305h111v-611h-101q-66 0 -127 7q-5 1 -6 1v-93zM38 284q2 0 13 1q47 7 88 7q62 0 105 -8q-3 71 -10 296q-3 77 -4 119q21 -28 59 -83
q18 -26 28 -40l48 73q-109 116 -165 191l-65 -64q17 -31 20 -87q1 -25 2 -103q4 -149 6 -219h-20q-44 0 -92 7q-11 1 -13 1v-91z" />
</svg>
