<?xml version="1.0" standalone="no"?>
<!DOCTYPE svg PUBLIC "-//W3C//DTD SVG 1.1//EN" "http://www.w3.org/Graphics/SVG/1.1/DTD/svg11.dtd" >
<svg xmlns="http://www.w3.org/2000/svg" xmlns:xlink="http://www.w3.org/1999/xlink" version="1.1" viewBox="-10 0 1034 1024">
  <g transform="matrix(1 0 0 -1 0 820)">
   <path fill="currentColor"
d="M240 423q-48 -6 -66 -6l-120 2q-7 3 -13 4v-47q3 3 45 5h110l-9 -331q-1 -19 -8 -39q-6 -18 -26 -37q36 -36 42 -47l61 90l32 47q19 24 60 78l-17 55q-51 -82 -105 -153l8 328zM295 563q3 6 28 31l-60 62l-90 85q-18 -19 -33 -31q45 -37 76 -68q33 -33 75 -83q1 3 4 4z
M290 -131l25 -13q21 28 38 56q15 27 31 60q45 102 56 228q3 30 4 80l2 83v299h356l-7 -126l-3 -144l3 -103q1 -82 11 -145q15 -129 60 -221q21 -48 48 -48q24 0 42 51q10 30 24 91q-21 12 -55 38l-1 -98q-1 -1 -1 -4q-3 -12 -11 -12q-18 0 -42 82q-24 81 -35 218l-5 228
q0 21 8 164q0 18 7 70q-24 -1 -47 -5l-355 1q-3 0 -41 4q6 -54 6 -73l-1 -323q-1 -18 -2 -42q-3 -64 -9 -114q-16 -117 -68 -202q-28 -40 -66 -66q13 -6 28 -14zM664 302q33 90 38 101q7 21 16 51q12 39 18 50q4 9 22 22q-30 12 -60 26q-9 -57 -22 -106q-15 -52 -41 -124
q0 1 -61 102l-59 94q-18 -15 -43 -29q28 -25 68 -85q39 -61 75 -125q-13 -28 -35 -64q-21 -37 -51 -81q-54 -75 -96 -103q12 -3 51 -24q76 90 152 232q24 -48 48 -103q21 -54 29 -84q21 9 48 19q-24 48 -47 99q-18 39 -57 113q3 10 7 19v0z" />
  </g>

</svg>
