<?xml version="1.0" standalone="no"?>
<!DOCTYPE svg PUBLIC "-//W3C//DTD SVG 1.1//EN" "http://www.w3.org/Graphics/SVG/1.1/DTD/svg11.dtd" >
<svg xmlns="http://www.w3.org/2000/svg" xmlns:xlink="http://www.w3.org/1999/xlink" version="1.1" viewBox="-10 0 1034 1024">
  <g transform="matrix(1 0 0 -1 0 820)">
   <path fill="currentColor"
d="M114 448q-21 1 -47 2q-7 3 -13 4v-47q3 0 7 1q19 4 53 5h109l-10 -380q-3 -48 -23 -72q25 -24 46 -49q34 57 96 145l71 101q-10 24 -21 53q-57 -111 -130 -200l10 393q1 24 5 50q-57 -6 -83 -6h-70zM164 716q87 -54 162 -139q15 18 30 39q-18 21 -45 42l-115 92l-22 -24
q-6 -4 -10 -10zM329 -120q25 -12 50 -28q45 48 87 104q21 28 47 68q28 46 72 122q13 27 39 38q-40 16 -60 28q-28 -93 -103 -198q-70 -93 -132 -134zM475 345q-3 -30 -5 -60q18 1 30 4q21 3 28 3h312q6 0 29 -3q12 -1 28 -4q-3 30 -5 61l1 326l4 42q-28 -1 -57 -5l-327 1
q-15 3 -43 4q1 -27 5 -57v-312zM514 326v347h338v-347h-338zM728 191q45 -52 102 -139q39 -60 64 -106q21 -39 39 -90q12 9 27 18l7 7q3 0 7 4q-7 15 -16 28q-33 61 -61 105q-24 39 -55 84l-51 73q-18 25 -28 41q-18 -12 -25 -20q-6 -1 -10 -5v0z" />
  </g>

</svg>
