<?xml version="1.0" standalone="no"?>
<!DOCTYPE svg PUBLIC "-//W3C//DTD SVG 1.1//EN" "http://www.w3.org/Graphics/SVG/1.1/DTD/svg11.dtd" >
<svg xmlns="http://www.w3.org/2000/svg" xmlns:xlink="http://www.w3.org/1999/xlink" version="1.1" viewBox="-10 0 1010 1000">
   <path fill="currentColor"
d="M563 -8q112 8 118 20q0 5 -12 15q-14 11 -14 17q86 214 309 280q-37 30 -75 87q-221 -131 -270 -305q-89 183 -260 331q-38 -35 -97 -54q239 -131 301 -391zM200 32q57 97 98 189l-94 29q-38 -109 -89 -192zM615 300q83 58 83 69q-2 4 -11 5q-14 3 -24 9
q-136 126 -244 197q-27 -38 -70 -56q164 -88 266 -224zM242 318q-6 47 -6 131v284q46 -48 95 -108q10 30 40 78q-121 107 -173 170q-22 -37 -59 -63q18 -35 18 -97v-320h-28q-64 0 -99 6v-81q27 6 103 6q42 0 97 -5q8 -1 12 -1zM724 425q78 49 86 65q-1 1 -11 5
q-23 8 -31 17q-135 145 -308 238q-31 -42 -71 -65q209 -78 335 -260zM825 564q85 63 86 79q0 2 -12 6q-29 10 -38 20q-165 179 -448 252q-18 -32 -64 -73q311 -48 476 -284z" />
</svg>
