<?xml version="1.0" standalone="no"?>
<!DOCTYPE svg PUBLIC "-//W3C//DTD SVG 1.1//EN" "http://www.w3.org/Graphics/SVG/1.1/DTD/svg11.dtd" >
<svg xmlns="http://www.w3.org/2000/svg" xmlns:xlink="http://www.w3.org/1999/xlink" version="1.1" viewBox="-10 0 1010 1000">
   <path fill="currentColor"
d="M202 6q64 78 111 169l-81 46q-33 -72 -107 -169zM871 62q1 1 -1 6q-9 31 -9 95v238q0 50 6 93q2 17 0 20q-5 3 -26 0q-38 -6 -71 -6h-238q-52 0 -90 6q-11 2 -13 0q-3 -3 1 -23q7 -50 7 -98v-242q0 -52 -7 -81q-2 -6 -1 -8q1 -1 11 0q41 6 102 6h228q47 0 87 -6
q12 -2 14 0zM778 139h-258v298h258v-298zM48 292q19 6 89 6h44q50 0 73 -5q3 -1 4 -1q1 2 0 8q-8 27 -8 75v310q48 -43 103 -107l32 73q-126 115 -177 169q-20 -29 -53 -56q21 -20 20 -101v-296h-52q-53 0 -73 5q-1 1 -2 1v-81zM522 596q17 10 45 25q41 21 38 24q0 1 -3 4
q-24 16 -56 62q-71 96 -141 178q-47 -25 -90 -39q109 -90 207 -254zM760 600l198 230l-87 57q-106 -163 -186 -240z" />
</svg>
