<?xml version="1.0" standalone="no"?>
<!DOCTYPE svg PUBLIC "-//W3C//DTD SVG 1.1//EN" "http://www.w3.org/Graphics/SVG/1.1/DTD/svg11.dtd" >
<svg xmlns="http://www.w3.org/2000/svg" xmlns:xlink="http://www.w3.org/1999/xlink" version="1.1" viewBox="-10 0 1010 1000">
   <path fill="currentColor"
d="M196 20q46 67 104 169l-92 40q-39 -87 -97 -165zM855 46q-8 41 -10 161v567q69 0 109 -6v92q-29 -8 -139 -8h-333q-95 0 -159 8v-94q41 10 102 10v-581q-2 -95 -10 -151q24 5 145 8h136q129 -6 159 -6zM766 127h-262v165h262v-165zM38 300q24 6 111 6q71 -2 105 -6
q-9 88 -10 151v252q44 -40 91 -115q10 47 42 85q-111 111 -171 183q-28 -35 -73 -64q29 -27 28 -121v-286q-73 0 -123 6v-91zM504 360v170h262v-170h-262zM504 598v178h262v-178h-262z" />
</svg>
