<?xml version="1.0" standalone="no"?>
<!DOCTYPE svg PUBLIC "-//W3C//DTD SVG 1.1//EN" "http://www.w3.org/Graphics/SVG/1.1/DTD/svg11.dtd" >
<svg xmlns="http://www.w3.org/2000/svg" xmlns:xlink="http://www.w3.org/1999/xlink" version="1.1" viewBox="-10 0 1010 1000">
   <path fill="currentColor"
d="M200 18q58 120 82 185l-97 34q-12 -67 -74 -179zM815 18q91 98 80 103q-3 1 -14 -1q-31 -6 -71 -3q-8 1 -35 2q-62 3 -77 6q-2 65 -1 119q0 47 5 116h108q74 0 111 -8v87q-30 -8 -106 -8h-105q37 246 135 331q26 0 26 -93q33 49 83 64q-33 144 -93 148
q-161 -56 -228 -452h-167v288q39 -40 96 -115q5 50 33 87q-101 88 -172 169q-24 -36 -60 -66q23 -33 24 -109v-502q-2 -86 -6 -109q205 16 434 -54zM617 133q-34 3 -151 18v211h161q-5 -37 -9 -191q-1 -26 -1 -38zM34 294q31 6 103 6t103 -4q-6 27 -9 111q-1 22 -1 32v258
q54 -57 91 -115q7 59 32 101q-106 89 -163 161q-13 -27 -65 -68q27 -29 26 -103v-298q-86 1 -117 8v-89zM639 729q21 47 57 144l-93 22q-3 -58 -45 -145z" />
</svg>
