<?xml version="1.0" standalone="no"?>
<!DOCTYPE svg PUBLIC "-//W3C//DTD SVG 1.1//EN" "http://www.w3.org/Graphics/SVG/1.1/DTD/svg11.dtd" >
<svg xmlns="http://www.w3.org/2000/svg" xmlns:xlink="http://www.w3.org/1999/xlink" version="1.1" viewBox="-10 0 1010 1000">
   <path fill="currentColor"
d="M569 -4l9 3q120 42 112 51q-1 2 -7 3q-25 6 -42 33q-60 97 -161 232l316 -16q-37 -56 -102 -121l76 -50q107 135 182 254l-95 50q-12 -33 -30 -68q-401 21 -446 42q1 -42 -32 -95q51 2 127 -117q68 -103 93 -201zM232 22q18 28 53 81q42 62 56 86l-91 48
q-44 -97 -111 -171zM52 300q51 8 103 8q55 0 105 -6q-8 39 -8 79v320q39 -41 87 -119q10 61 40 97q-101 98 -167 179q-24 -41 -59 -68q21 -34 22 -87v-318q-83 -1 -123 6v-91zM407 485q50 5 85 5h282q33 0 89 -5q-6 48 -6 83v212q2 62 10 111h-99q6 -29 8 -83h-276
q-3 51 6 93h-101q9 -32 10 -111v-224q0 -38 -8 -81zM498 558v182h276v-182h-276z" />
</svg>
