<?xml version="1.0" standalone="no"?>
<!DOCTYPE svg PUBLIC "-//W3C//DTD SVG 1.1//EN" "http://www.w3.org/Graphics/SVG/1.1/DTD/svg11.dtd" >
<svg xmlns="http://www.w3.org/2000/svg" xmlns:xlink="http://www.w3.org/1999/xlink" version="1.1" viewBox="-10 0 1034 1024">
  <g transform="matrix(1 0 0 -1 0 820)">
   <path fill="currentColor"
d="M110 435q-21 1 -47 2q-6 3 -13 3v-48q49 4 78 5h72l-7 -418q-3 -43 -23 -65q27 -24 44 -44q102 165 159 232q-13 24 -24 50q-45 -87 -116 -177l5 412q0 21 5 53q-27 -1 -53 -5h-80zM308 583q4 6 10 11q-30 36 -75 85l-73 77q-15 -16 -33 -30q54 -52 89 -91q30 -36 62 -77
q4 4 20 25zM392 565q-33 3 -47 3q-6 3 -13 3v-48q49 4 79 5h272q4 -114 14 -220q10 -138 45 -242q33 -108 82 -173q36 -49 65 -50q27 0 49 46q9 16 15 32l22 68l-40 25q-7 6 -14 10q-1 -48 -6 -73q-12 -49 -30 -50q-18 0 -52 56q-45 78 -71 192q-19 94 -29 187l-6 104
q-1 42 -3 88h152q28 0 62 -5v48q-21 -1 -44 -5l-173 -1l3 155q1 36 25 62q-33 3 -77 13q4 -33 5 -46q3 -63 4 -184h-289zM670 74q-27 -15 -53 -25q-28 -12 -86 -32v295h45q36 0 63 -6v48q-27 -4 -92 -5q-136 0 -156 2q-6 3 -17 3v-48q36 6 63 6h57v-308q-39 -15 -71 -23
q-30 -7 -65 -14q3 -13 7 -21q6 -16 7 -23q0 1 2 -11q51 24 95 41l195 68zM888 659l-80 95q-21 -19 -34 -27q60 -55 99 -119q21 21 33 30z" />
  </g>

</svg>
