<?xml version="1.0" standalone="no"?>
<!DOCTYPE svg PUBLIC "-//W3C//DTD SVG 1.1//EN" "http://www.w3.org/Graphics/SVG/1.1/DTD/svg11.dtd" >
<svg xmlns="http://www.w3.org/2000/svg" xmlns:xlink="http://www.w3.org/1999/xlink" version="1.1" viewBox="-10 0 1034 1024">
  <g transform="matrix(1 0 0 -1 0 820)">
   <path fill="currentColor"
d="M128 440q-21 1 -48 2q-6 3 -13 3v-46q49 4 75 5h89l-5 -381q-3 -55 -27 -82q42 -42 45 -48l54 74l119 159q-16 39 -19 49q-27 -45 -55 -82q-30 -42 -79 -100l5 403l6 49q-27 -1 -53 -5h-94zM342 576q6 9 21 25q-21 21 -51 46l-115 97q-18 -21 -31 -31l97 -79
q36 -33 70 -70zM867 674l-12 -184q-3 -42 -9 -54q-9 -24 -40 -30q-18 -3 -43 -3q-18 0 -52 4q4 -10 10 -23q3 -9 7 -26q36 1 68 6q69 9 84 42q4 12 10 44l21 265q-49 -4 -57 -5l-409 2q-6 3 -13 3v-46q49 4 74 5h85q-6 -46 -12 -77q-9 -36 -16 -55q-33 -97 -110 -152
q-57 -39 -117 -48q21 -22 35 -46q126 66 173 126q63 81 88 252h235zM481 -81q0 -33 -3 -51l-2 -13h47q-3 30 -5 60v38h350l-2 -77q0 -6 -3 -15h48q-4 39 -5 63l1 338q0 3 4 40q-27 -1 -56 -5l-339 1q-4 1 -11 2q-12 0 -29 2q1 -27 5 -57v-326zM518 -11v272h350v-272h-350z
" />
  </g>

</svg>
