<?xml version="1.0" standalone="no"?>
<!DOCTYPE svg PUBLIC "-//W3C//DTD SVG 1.1//EN" "http://www.w3.org/Graphics/SVG/1.1/DTD/svg11.dtd" >
<svg xmlns="http://www.w3.org/2000/svg" xmlns:xlink="http://www.w3.org/1999/xlink" version="1.1" viewBox="-10 0 1010 1000">
   <path fill="currentColor"
d="M569 -4q91 4 110 16q1 1 -4 7q-22 22 -22 51v57h53q163 -1 199 -12v88q-26 -5 -61 -6q-34 -2 -110 -2h-81v95h51q113 0 143 -10v85q-24 -10 -143 -9h-53v85h119q81 0 109 -2q35 -2 48 -8v85q-13 -5 -47 -6q-33 -2 -112 -2h-46q51 186 230 248q-55 28 -91 82
q-149 -103 -212 -328v228q0 135 8 161h-97q13 -31 13 -161v-228q-97 224 -220 336q-26 -43 -89 -62q160 -85 238 -276h-32q-132 0 -158 8v-85q19 11 154 10h109v-83h-39q-125 0 -157 7v-83q13 6 45 8q30 2 104 2h49v-95h-69q-139 0 -169 8v-88q43 12 179 12h59
q-1 -114 -8 -133zM177 12q68 100 101 163l-95 40q-46 -103 -94 -161zM40 288q14 8 91 8q91 0 117 -8q-7 41 -8 139v220q47 -53 73 -91q2 58 30 95q-115 108 -158 159q-23 -40 -60 -73q32 -29 32 -78v-286q-94 0 -117 10v-95z" />
</svg>
