<?xml version="1.0" standalone="no"?>
<!DOCTYPE svg PUBLIC "-//W3C//DTD SVG 1.1//EN" "http://www.w3.org/Graphics/SVG/1.1/DTD/svg11.dtd" >
<svg xmlns="http://www.w3.org/2000/svg" xmlns:xlink="http://www.w3.org/1999/xlink" version="1.1" viewBox="-10 0 1010 1000">
   <path fill="currentColor"
d="M510 74q-22 50 -65 156q-42 103 -58 139h53q52 0 82 -6q-14 152 -66 304q67 63 204 87q141 22 298 -4q-32 45 -41 104q-374 4 -496 -123q-24 32 -75 98q-32 41 -38 50q-41 -35 -92 -45q88 -55 153 -153q-36 -38 -103 -153l77 -26q16 44 55 105q2 5 3 6q26 -74 36 -184
q-108 3 -137 18q-17 -45 -26 -72q2 -2 9 -6q22 -13 34 -29q56 -72 92 -197h-22q-74 0 -95 4v-73q12 4 99 4q77 0 119 -4zM857 18q26 26 66 86q-3 3 -17 2q-50 -5 -116 7v203q88 0 117 -6v81q-22 -6 -117 -6v191q68 0 91 -1q29 -1 42 -5v87q-22 -6 -125 -6h-145q-48 0 -67 1
q-22 1 -36 3q4 -52 4 -133v-166q0 -48 -7 -86q-2 -11 1 -10q90 -4 99 6q3 3 -3 17q-11 24 -11 41v256h77v-451q3 0 -65 10q-74 11 -91 14q-17 -59 -36 -73q194 -8 339 -62zM42 282q17 6 75 6q61 -1 97 -4q-6 29 -6 97v276l40 -63q13 26 46 71q-92 95 -129 149
q-12 -19 -54 -56q18 -33 18 -95v-301h-12q-55 0 -75 5v-85zM258 187l-75 42q-49 -107 -94 -159l72 -42q68 100 97 159z" />
</svg>
