<?xml version="1.0" standalone="no"?>
<!DOCTYPE svg PUBLIC "-//W3C//DTD SVG 1.1//EN" "http://www.w3.org/Graphics/SVG/1.1/DTD/svg11.dtd" >
<svg xmlns="http://www.w3.org/2000/svg" xmlns:xlink="http://www.w3.org/1999/xlink" version="1.1" viewBox="-10 0 1010 1000">
   <path fill="currentColor"
d="M577 -6q103 -1 100 6q0 2 -2 7q-16 33 -16 101v99h123q53 0 99 -6v79q-51 -6 -99 -6h-123v159h166q66 -1 100 -8v81q-48 -9 -94 -6h-111v256q-7 54 52 48q58 2 67 -16q14 -15 16 -97q50 30 93 32q-14 91 -37 122q-20 30 -74 28h-123q-73 3 -69 -71v-302h-85
q-4 193 -44 259q-36 74 -181 156q-24 -50 -79 -69q138 -41 185 -115q46 -63 43 -231h-53q-61 0 -116 6v-79q42 3 116 6h152v-159h-137q-14 41 -33 99q-37 -18 -96 -19q73 -98 116 -288q7 2 21 5q76 16 72 25q0 2 -4 6q-26 24 -52 105h113v-99q0 -72 -6 -114zM196 36
q4 6 14 22q73 108 94 143l-82 43q-50 -106 -99 -166zM258 318q-2 47 -2 93v278q29 -25 89 -84q5 -5 8 -7q11 44 38 77q-124 87 -179 151q-26 -43 -53 -70q29 -28 29 -95v-268h-57q-52 -1 -93 6v-81q103 12 220 0z" />
</svg>
