<?xml version="1.0" standalone="no"?>
<!DOCTYPE svg PUBLIC "-//W3C//DTD SVG 1.1//EN" "http://www.w3.org/Graphics/SVG/1.1/DTD/svg11.dtd" >
<svg xmlns="http://www.w3.org/2000/svg" xmlns:xlink="http://www.w3.org/1999/xlink" version="1.1" viewBox="-10 0 1034 1024">
  <g transform="matrix(1 0 0 -1 0 820)">
   <path fill="currentColor"
d="M101 428q-21 1 -47 2q-6 3 -13 3v-46q49 4 79 5h79l-10 -378q-1 -51 -24 -76q16 -15 26 -25l17 -20l79 110l74 98q-9 21 -20 45q-22 -36 -46 -68q-24 -34 -67 -86l9 389q1 25 5 52q-18 -1 -24 -2q-19 -3 -27 -3h-90zM296 586q9 10 20 23q-111 100 -145 125q-3 -1 -7 -8
q-3 0 -5 -4q-3 -6 -11 -12q-3 -3 -6 -5q54 -45 86 -72q27 -25 59 -60q4 7 9 13zM364 -45q84 75 139 143q52 64 119 170v-362q0 -22 -3 -50q0 -4 -2 -12h48l-4 35l-1 438q43 -102 112 -191q46 -61 160 -171q3 4 20 18q15 15 28 23l-34 19q-19 12 -28 20q-58 48 -93 91
q-64 76 -123 194h176q36 0 62 -5v46q-30 -1 -62 -5h-218v165h155q37 0 63 -5v46q-7 0 -16 -3l-182 -2h-20v148q0 27 13 61h-56q4 -33 5 -60v-149h-134l40 95q4 9 27 24q-39 13 -63 26q-16 -78 -50 -155q-33 -75 -68 -107q24 -6 51 -17q27 48 50 98h147v-165l-272 2
q-6 3 -13 3v-46q30 3 60 5h205q-24 -49 -72 -122q-48 -69 -95 -119q-36 -36 -58 -53q-22 -16 -62 -36q9 -7 16 -11q1 0 11 -7q4 0 22 -17v0z" />
  </g>

</svg>
