<?xml version="1.0" standalone="no"?>
<!DOCTYPE svg PUBLIC "-//W3C//DTD SVG 1.1//EN" "http://www.w3.org/Graphics/SVG/1.1/DTD/svg11.dtd" >
<svg xmlns="http://www.w3.org/2000/svg" xmlns:xlink="http://www.w3.org/1999/xlink" version="1.1" viewBox="-10 0 1034 1024">
  <g transform="matrix(1 0 0 -1 0 820)">
   <path fill="currentColor"
d="M105 429q-21 1 -47 2q-6 3 -13 3v-46q49 4 75 5h96l-15 -428q-3 -48 -23 -69q3 -1 6 -5q18 -16 39 -34q21 34 29 42q1 4 6 7q6 9 14 19q4 6 9 14l97 135q-13 24 -21 43q-30 -51 -55 -86q-24 -33 -61 -80l14 431q0 21 6 52q-18 -1 -25 -2q-21 -3 -30 -3h-101zM147 682
q93 -75 153 -146q15 21 32 35q-33 33 -65 63l-88 78q-6 -4 -11 -11q-12 -12 -21 -19zM952 388q15 15 35 29q-55 18 -100 52q-70 54 -132 127q-28 33 -47 61l-47 77q9 12 22 18q-15 3 -24 7q-24 6 -47 16q-9 -36 -24 -65q-12 -24 -42 -70q-52 -78 -132 -159q-54 -49 -107 -70
q27 -19 49 -40q33 27 67 61q34 36 72 77q84 100 139 197q30 -54 65 -101q27 -39 65 -80q88 -90 174 -148q6 6 14 11zM629 -64l-250 2q-6 3 -14 3v-46q30 3 61 5l486 -1q16 0 33 -4v46q-31 -1 -63 -5h-213v219h155q24 0 54 -5v47q-12 -3 -60 -6h-149v189h130q18 0 46 -3
l17 -2v46q-18 -1 -16 -2q-18 -3 -67 -3l-322 2q-6 3 -14 3v-46q3 3 50 5h136v-189l-156 1q-12 1 -29 2q-6 3 -13 3v-47h2q1 1 47 5h149v-219z" />
  </g>

</svg>
