<?xml version="1.0" standalone="no"?>
<!DOCTYPE svg PUBLIC "-//W3C//DTD SVG 1.1//EN" "http://www.w3.org/Graphics/SVG/1.1/DTD/svg11.dtd" >
<svg xmlns="http://www.w3.org/2000/svg" xmlns:xlink="http://www.w3.org/1999/xlink" version="1.1" viewBox="-10 0 1010 1000">
   <path fill="currentColor"
d="M589 -6q117 2 117 8q0 2 -2 6q-23 36 -23 139h132q90 -1 131 -8v90q-41 -9 -129 -10h-136v141h117q72 0 123 -8v87q-35 -8 -119 -8h-294q-87 0 -127 6v-83q18 4 44 5q13 1 30 1h45h97v-141h-125q-93 -3 -129 6v-86q28 6 90 7q26 0 41 1h123q0 -74 -6 -153zM187 26
q59 79 109 163l-92 51q-26 -84 -103 -168zM38 314q5 0 16 2q56 6 99 6q49 0 105 -8q-14 70 -14 143v252q31 -29 99 -111q2 21 20 59q7 16 12 26q-115 102 -169 167q-26 -42 -63 -70q23 -27 22 -89v-294q-75 -3 -127 10v-93zM407 510q68 7 145 8h162q77 -1 151 -8
q-4 31 -4 119v153q0 69 8 111h-95q6 -22 6 -79h-288q-1 63 6 87h-93q7 -30 8 -117v-155q0 -86 -6 -119zM492 586v160h290v-160h-290z" />
</svg>
