<?xml version="1.0" standalone="no"?>
<!DOCTYPE svg PUBLIC "-//W3C//DTD SVG 1.1//EN" "http://www.w3.org/Graphics/SVG/1.1/DTD/svg11.dtd" >
<svg xmlns="http://www.w3.org/2000/svg" xmlns:xlink="http://www.w3.org/1999/xlink" version="1.1" viewBox="-10 0 1010 1000">
   <path fill="currentColor"
d="M567 -8q6 1 18 2q102 8 98 14q1 2 -9 11q-21 19 -21 31v129h121q58 0 111 -8v87q-28 -6 -107 -6h-127v137h168q81 0 108 -8v90q-7 -1 -23 -2q-53 -6 -94 -6h-100q55 181 246 272q-52 23 -93 81q-169 -141 -210 -326v270q0 85 1 107q1 29 5 34h-94q9 -21 8 -139v-266
q-56 185 -214 344q-44 -38 -91 -56q187 -131 252 -319h-87q-89 0 -125 6v-86q38 5 121 6h142v-139h-127q-16 35 -43 104q-33 -21 -89 -26q71 -77 99 -286q9 2 27 5q79 12 76 19q1 4 -12 21q-14 16 -16 23q-13 40 -22 67h109v-111q-1 -57 -6 -76zM181 16q4 6 12 19
q66 98 93 152l-98 38q-23 -70 -97 -169zM28 284q27 6 81 6q76 -1 123 -8q-8 33 -8 115v274l82 -93q10 35 39 77q-117 107 -158 161q-26 -33 -62 -62q22 -27 22 -87v-304h-38q-47 0 -81 8v-87z" />
</svg>
