<?xml version="1.0" standalone="no"?>
<!DOCTYPE svg PUBLIC "-//W3C//DTD SVG 1.1//EN" "http://www.w3.org/Graphics/SVG/1.1/DTD/svg11.dtd" >
<svg xmlns="http://www.w3.org/2000/svg" xmlns:xlink="http://www.w3.org/1999/xlink" version="1.1" viewBox="-10 0 1010 1000">
   <path fill="currentColor"
d="M593 -2q87 -1 109 10q1 1 -5 8q-16 20 -16 34q0 76 2 131h105q78 -1 115 -6v77q-10 -4 -34 -5q-12 -1 -30 -1h-51h-103q7 145 49 318q48 -115 62 -226q100 28 101 39q2 4 -8 13q-18 17 -22 31q-47 145 -99 238q47 109 91 135q22 -16 20 -103q32 39 83 51q-31 150 -65 153
q-79 18 -183 -158q-50 78 -158 160q-27 -36 -80 -55q131 -74 203 -185q-52 -192 -66 -411h-212v129h85q55 0 87 -6q2 -1 -2 39q-4 46 -4 63q-3 202 -11 230q-17 42 -129 55q-8 -67 -24 -91q5 1 15 2q61 10 68 -2q10 -12 10 -226h-95q2 316 -101 460q-36 -19 -94 -28
q122 -148 121 -367v-180q0 -110 -8 -151q54 8 123 8h167q-4 -131 -16 -181v-2zM813 18q41 60 60 99l-71 36q-10 -35 -56 -103zM179 40q6 10 16 28q55 92 77 137l-85 37q-30 -74 -88 -162zM28 308q41 6 79 6h70q22 -1 33 -2q-9 34 -8 107v234q2 -2 6 -7q36 -38 60 -72
q8 44 32 75q-94 88 -133 139q-10 -15 -46 -48q-7 -6 -10 -9q18 -29 18 -84v-272h-20q-51 0 -81 6v-73z" />
</svg>
