<?xml version="1.0" standalone="no"?>
<!DOCTYPE svg PUBLIC "-//W3C//DTD SVG 1.1//EN" "http://www.w3.org/Graphics/SVG/1.1/DTD/svg11.dtd" >
<svg xmlns="http://www.w3.org/2000/svg" xmlns:xlink="http://www.w3.org/1999/xlink" version="1.1" viewBox="-10 0 1034 1024">
  <g transform="matrix(1 0 0 -1 0 820)">
   <path fill="currentColor"
d="M117 425q-21 1 -47 2q-6 3 -13 3v-46q49 4 78 5h71l-9 -386q-1 -48 -23 -62l41 -53q9 16 20 33l89 140l35 53q-13 21 -24 41q-3 -7 -10 -17q3 0 -5 -7l-37 -66q-16 -27 -45 -66l7 389q0 3 5 42q-55 -4 -85 -5h-48zM333 588q-51 48 -161 132q-10 -12 -21 -27q-1 -3 -6 -7
q82 -54 159 -134q1 3 3 4q0 3 11 15q1 3 15 17zM461 446h435q37 0 63 -5v47q-30 -6 -63 -6h-165q67 108 121 184q-60 -4 -64 -5h-229q10 12 21 28q24 36 61 52q-48 18 -69 28q-22 -60 -93 -145q-54 -63 -114 -101l23 -16q12 -9 22 -19l63 68l58 69h243l-46 -72
q-18 -28 -48 -71l-222 1q-6 1 -40 5q1 -30 5 -62l-2 -269q-1 -4 -1 -12q-3 -57 -10 -93q-18 -82 -58 -138q-21 -31 -57 -56q1 -1 20 -11q12 -4 17 -9q1 0 14 -9q31 42 60 96q36 70 48 150q3 28 5 70l2 84v217zM583 -46q0 -49 19 -68q18 -18 77 -21l66 -4q45 0 95 5
q12 0 23 4q57 12 82 60q6 12 11 29q6 21 17 62q-39 15 -58 26q1 -24 2 -39q0 -52 -15 -73q-21 -24 -73 -29q-60 -3 -99 -3q-19 0 -40 2q-54 0 -62 19q-6 10 -6 44v331h211q-3 -75 -4 -136q0 -33 -27 -39q-15 -3 -30 -4q-15 0 -48 6q7 -21 15 -52q31 3 74 9q51 9 55 82l3 142
q0 15 4 35q-48 -6 -57 -6l-199 1q-6 1 -41 5q1 -30 5 -61v-327z" />
  </g>

</svg>
