<?xml version="1.0" standalone="no"?>
<!DOCTYPE svg PUBLIC "-//W3C//DTD SVG 1.1//EN" "http://www.w3.org/Graphics/SVG/1.1/DTD/svg11.dtd" >
<svg xmlns="http://www.w3.org/2000/svg" xmlns:xlink="http://www.w3.org/1999/xlink" version="1.1" viewBox="-10 0 1034 1024">
  <g transform="matrix(1 0 0 -1 0 820)">
   <path fill="currentColor"
d="M234 420q-51 -3 -78 -4l-91 2q-6 3 -13 3v-46q49 4 79 5h78l-4 -373q-1 -42 -7 -61q-6 -18 -21 -34q21 -19 44 -51q13 28 27 45q9 12 19 30q27 36 69 99l47 62q-7 22 -17 48q-30 -48 -57 -85l-68 -90l7 398q1 27 5 53q-10 0 -19 -1zM321 583l-60 69l-66 71
q-10 -12 -31 -28q79 -78 126 -141q15 15 20 18q4 6 11 11zM638 592l-249 2q-6 3 -13 3v-46h2l29 4l232 1v-162l-214 2q-6 3 -13 3v-46q30 3 60 5l425 -1q7 0 17 -2q1 0 16 -2v46q-30 -1 -62 -5h-190v162h229q22 0 47 -3q1 0 16 -2v46q-45 -4 -63 -5h-229q0 129 3 138
q1 13 10 29h-58q1 -30 5 -60v-107zM446 216q1 -16 5 -35l-1 -304q-3 -27 -5 -36h50q-6 24 -6 46v36h367q-3 -67 -5 -78h51q-6 22 -6 62l1 290q0 12 3 19q0 9 2 17q-25 -1 -52 -5l-369 1q-6 1 -36 4q0 -7 1 -17zM489 -42v234h368v-234h-368z" />
  </g>

</svg>
