<?xml version="1.0" standalone="no"?>
<!DOCTYPE svg PUBLIC "-//W3C//DTD SVG 1.1//EN" "http://www.w3.org/Graphics/SVG/1.1/DTD/svg11.dtd" >
<svg xmlns="http://www.w3.org/2000/svg" xmlns:xlink="http://www.w3.org/1999/xlink" version="1.1" viewBox="-10 0 1034 1024">
  <g transform="matrix(1 0 0 -1 0 820)">
   <path fill="currentColor"
d="M126 457q-21 1 -48 2q-6 3 -13 3v-46q49 4 73 5h80l-10 -373q-3 -48 -29 -71q3 -7 22 -35q7 -12 15 -22q72 96 104 144l20 24q13 15 33 39q-18 36 -22 48q-54 -81 -105 -146q9 375 12 387q-1 7 1 17q0 15 3 29q-27 -1 -56 -5h-80zM323 595l-76 70l-82 72q-4 -9 -18 -23
l-10 -10q55 -39 158 -147zM893 448q33 0 62 -5v46q-30 -1 -62 -5h-417v177q69 3 152 11q84 7 152 18q109 15 116 13q9 1 22 -1q-33 40 -39 57q-36 -15 -74 -24q-66 -15 -145 -24q-100 -12 -177 -12l-51 1q6 -60 6 -85l-2 -228q-1 -21 -2 -48q-3 -78 -10 -132
q-18 -130 -78 -222q-28 -39 -61 -64l52 -27q34 48 63 101q36 73 53 144q9 39 16 110q3 36 4 83l3 116h417zM511 301q1 -28 5 -59l-1 -338q-1 -7 -4 -29h47q-4 52 -5 81h296q0 -55 -5 -76h48l-4 36l-1 327q1 28 5 58q-27 -1 -54 -5l-287 1q-12 3 -40 4zM553 -8v271h296v-271
h-296z" />
  </g>

</svg>
