<?xml version="1.0" standalone="no"?>
<!DOCTYPE svg PUBLIC "-//W3C//DTD SVG 1.1//EN" "http://www.w3.org/Graphics/SVG/1.1/DTD/svg11.dtd" >
<svg xmlns="http://www.w3.org/2000/svg" xmlns:xlink="http://www.w3.org/1999/xlink" version="1.1" viewBox="-10 0 1034 1024">
  <g transform="matrix(1 0 0 -1 0 820)">
   <path fill="currentColor"
d="M250 417q-55 -3 -84 -4l-91 4q-4 1 -7 1v-46q49 4 72 5h75l-7 -414q-1 -45 -30 -72q3 -4 10 -10q0 -1 2 -3l30 -34q105 153 139 196l16 24q-9 22 -15 46l-114 -160l7 417q0 19 5 51q-4 0 -8 -1zM306 552q16 18 23 20l-52 55l-105 101q-18 -19 -32 -30q48 -37 89 -80
q48 -48 66 -77q4 6 11 11zM879 582l-1 -73l-5 -335l-3 -211q-1 -39 -15 -52q-16 -15 -61 -18l-64 1q-9 1 -20 2q15 -31 22 -50q34 0 52 3q13 0 26 4q63 9 80 29q21 21 22 76l7 611q0 25 6 54q-45 -4 -55 -5h-376q7 18 16 34q21 45 29 57q10 18 32 30l-64 25q-9 -49 -46 -122
q-33 -67 -77 -129q-33 -45 -72 -72q30 -12 51 -27q57 70 111 168h405zM441 68q0 -10 -6 -54q27 3 54 5l211 -1q4 0 11 -2q6 0 25 -2q-3 27 -5 56l1 319q0 12 3 18q0 9 1 16q-45 -4 -51 -5l-210 1q-15 3 -40 4q6 -30 6 -71v-284zM479 55v153h214v-153h-214zM479 243v139h214
v-139h-214z" />
  </g>

</svg>
