<?xml version="1.0" standalone="no"?>
<!DOCTYPE svg PUBLIC "-//W3C//DTD SVG 1.1//EN" "http://www.w3.org/Graphics/SVG/1.1/DTD/svg11.dtd" >
<svg xmlns="http://www.w3.org/2000/svg" xmlns:xlink="http://www.w3.org/1999/xlink" version="1.1" viewBox="-10 0 1010 1000">
   <path fill="currentColor"
d="M393 -4q117 5 109 14q1 4 -4 13q-18 33 -18 85v43q223 -40 351 -109q7 12 20 33q43 69 36 68q-4 4 -24 4q-34 1 -61 6q-209 41 -322 66v35q-2 44 11 49q10 10 76 9h149q86 2 104 -18q24 -16 35 -97q32 42 83 59q-32 92 -57 107q-22 22 -105 20h-248q-60 0 -76 -2
q-22 -2 -32 -9q-21 -10 -19 -76v-147q-1 -108 -8 -153zM171 14q88 117 123 173l-84 48q-33 -84 -121 -175zM38 292q38 10 99 10q78 -2 109 -8q-10 58 -10 131v300q52 -49 91 -104q13 50 38 90q-108 85 -171 152q-25 -37 -59 -65q24 -30 22 -121v-304q-86 0 -119 8v-89z
M395 437q57 6 155 6h166q89 -1 149 -8q-5 64 -6 139v190q2 112 8 137h-91l4 -87h-300q0 46 6 79h-93q8 -32 8 -143v-176q-2 -97 -6 -137zM780 506h-300v92h300v-92zM480 661v89h300v-89h-300z" />
</svg>
