<?xml version="1.0" standalone="no"?>
<!DOCTYPE svg PUBLIC "-//W3C//DTD SVG 1.1//EN" "http://www.w3.org/Graphics/SVG/1.1/DTD/svg11.dtd" >
<svg xmlns="http://www.w3.org/2000/svg" xmlns:xlink="http://www.w3.org/1999/xlink" version="1.1" viewBox="-10 0 1010 1000">
   <path fill="currentColor"
d="M641 4q35 69 57 119l-73 26h188q78 -1 112 -6q-6 30 -6 82q0 62 6 95h-92q8 -41 8 -97h-395q-2 75 4 103h-89q6 -32 6 -103q0 -57 -6 -84q35 10 117 10h125q-12 -64 -51 -115zM204 36q41 55 102 161l-94 41q-24 -81 -91 -158zM784 286q73 89 69 93q-4 2 -15 1
q-60 -6 -173 21v139l170 -22q50 -6 94 -20l8 84q-31 -3 -90 6l-182 25v153q-1 31 8 35q7 7 47 7h68q52 10 51 -111q55 43 94 49q-9 83 -36 111q-24 29 -89 28h-125q-105 5 -98 -71v-189l-111 14q-68 9 -115 22q13 33 34 66q-122 86 -179 138q-29 -42 -55 -69q26 -26 26 -77
v-336h-34q-70 0 -113 6v-89q39 8 125 8q55 0 94 -6q11 -1 17 -2q-11 54 -10 109v322l83 -74l-8 -83q30 0 127 -10l119 -12v-137q-32 7 -116 22q-31 6 -44 8q-5 -23 -38 -66q-7 -8 -10 -12q193 6 407 -81z" />
</svg>
