<?xml version="1.0" standalone="no"?>
<!DOCTYPE svg PUBLIC "-//W3C//DTD SVG 1.1//EN" "http://www.w3.org/Graphics/SVG/1.1/DTD/svg11.dtd" >
<svg xmlns="http://www.w3.org/2000/svg" xmlns:xlink="http://www.w3.org/1999/xlink" version="1.1" viewBox="-10 0 1010 1000">
   <path fill="currentColor"
d="M474 -8q123 23 117 34q-1 3 -8 7q-29 16 -53 63h168q73 0 127 -8q-43 42 -121 174h64q68 0 105 -6q-6 30 -6 109v60q77 0 99 -6v81q-47 -6 -97 -6v118q2 68 8 105h-91q0 -2 1 -6q5 -34 5 -54h-141v131q3 68 -24 83q-22 20 -135 32q-8 -68 -42 -103q74 12 97 6
q25 -4 24 -32v-117h-61q-93 0 -129 8v-85q38 7 129 10h61v-96h-129q-98 0 -132 8v-81q36 6 128 6h131v-97h-47q-82 0 -105 6v-66q-30 48 -60 84q-33 -26 -87 -38q151 -129 204 -324zM222 20q47 83 80 167l-100 36q-16 -91 -75 -169zM679 163h-191q-31 52 -59 93q22 3 105 6
h87zM36 274q36 8 105 8q60 -1 107 -8q-7 65 -8 153v274q63 -72 81 -101q10 52 34 89q-118 112 -161 169q-20 -34 -55 -76q18 -32 18 -99v-327q-38 0 -104 9q-11 1 -17 2v-93zM792 330h-143v97h143v-97zM651 494v96h141v-96h-141z" />
</svg>
