<?xml version="1.0" standalone="no"?>
<!DOCTYPE svg PUBLIC "-//W3C//DTD SVG 1.1//EN" "http://www.w3.org/Graphics/SVG/1.1/DTD/svg11.dtd" >
<svg xmlns="http://www.w3.org/2000/svg" xmlns:xlink="http://www.w3.org/1999/xlink" version="1.1" viewBox="-10 0 1034 1024">
  <g transform="matrix(1 0 0 -1 0 820)">
   <path fill="currentColor"
d="M268 437l-46 -4l-146 2q-6 3 -13 3v-46q4 3 47 5h123l-7 -393q-1 -42 -26 -63q36 -33 48 -48q21 39 40 65q12 18 25 39q6 12 15 22l44 65l32 47q-15 24 -23 45q-21 -39 -49 -82q-28 -45 -68 -99q6 384 8 400l4 43q-4 0 -8 -1zM357 586q-15 15 -46 44l-121 104
q-13 -15 -32 -30q93 -66 167 -151l21 22q4 6 11 11zM905 725q-60 -4 -86 -5l-392 4q-4 1 -7 1v-46q30 4 60 5h330l-73 -76q-27 -27 -61 -58l-100 60q-10 -19 -23 -35l78 -43l72 -48h-215q-6 0 -28 3q-12 0 -27 2q1 -30 5 -60l-1 -549q-1 -7 -2 -15q0 -4 -2 -12h47l-4 35
l-1 207h176l-3 -176q-1 -3 -2 -9h49q-6 25 -6 50v135h203v-133q0 -25 -8 -36q-9 -9 -29 -13q-27 -3 -49 -4q-18 0 -44 4q13 -28 22 -54l52 7q43 6 70 21q24 15 24 63l1 495l4 44q-27 -1 -55 -5h-146q7 10 16 23q-21 12 -39 24q73 78 123 124q9 12 71 70zM475 316v132h176
v-132h-176zM475 131v149h176v-149h-176zM689 131v149h203v-149h-203zM689 316v132h203v-132h-203z" />
  </g>

</svg>
