<?xml version="1.0" standalone="no"?>
<!DOCTYPE svg PUBLIC "-//W3C//DTD SVG 1.1//EN" "http://www.w3.org/Graphics/SVG/1.1/DTD/svg11.dtd" >
<svg xmlns="http://www.w3.org/2000/svg" xmlns:xlink="http://www.w3.org/1999/xlink" version="1.1" viewBox="-10 0 1034 1024">
  <g transform="matrix(1 0 0 -1 0 820)">
   <path fill="currentColor"
d="M120 398q-21 1 -47 2q-6 3 -13 3v-46q30 4 60 5h100l-9 -399q-3 -45 -25 -65q12 -15 35 -55q12 15 21 30l83 111l73 97q-18 37 -21 44q-36 -57 -128 -172l10 416q1 16 5 34q-25 -1 -52 -5h-92zM149 699l91 -85q28 -30 62 -69l32 32q-111 111 -151 149q-12 -10 -34 -27z
M650 360l-290 2q-7 3 -13 4v-47q30 4 60 5l538 -1q15 0 30 -4v47q-12 -3 -60 -6h-227v178h160q36 0 63 -6v47q-63 -6 -85 -6h-138v133q0 27 14 61h-57q4 -30 5 -60v-134h-171q4 18 11 34q15 45 20 52q3 9 26 26q-42 10 -65 20q-12 -76 -41 -152q-34 -82 -64 -110
q19 -4 37 -12q6 -1 14 -5q24 52 50 112h183v-178zM462 -100q0 -42 -5 -62h47q-4 49 -5 77v2h347l-4 -74q-1 0 -1 -3h48q-3 28 -5 58l1 285l4 42q-18 -1 -25 -2q-21 -3 -29 -3l-340 1q-1 0 -38 4q4 -90 5 -93v-232zM499 -47v231h347v-231h-347z" />
  </g>

</svg>
