<?xml version="1.0" standalone="no"?>
<!DOCTYPE svg PUBLIC "-//W3C//DTD SVG 1.1//EN" "http://www.w3.org/Graphics/SVG/1.1/DTD/svg11.dtd" >
<svg xmlns="http://www.w3.org/2000/svg" xmlns:xlink="http://www.w3.org/1999/xlink" version="1.1" viewBox="-10 0 1010 1000">
   <path fill="currentColor"
d="M579 -8q118 0 119 14q0 3 -5 7q-24 25 -24 87v190h73q93 0 137 -6q-7 46 -8 159v381q2 42 -28 56q-31 16 -125 21q0 -60 -33 -113q67 15 87 9q21 -4 20 -37v-77h-330v63q3 109 12 145h-103q12 -58 12 -147v-295q-1 -126 -8 -169q38 9 127 10h87v-171q0 -90 -10 -127z
M187 0q74 104 111 167l-92 50q-30 -74 -103 -169zM835 34q104 60 94 62q-2 2 -11 5q-27 11 -39 28q-48 70 -87 133q-29 -27 -82 -41q67 -58 125 -187zM429 40q62 83 109 163l-82 43q-34 -80 -107 -162zM46 276q18 9 95 8q61 0 103 -6q-15 47 -16 137v276q40 -42 87 -117
q3 58 32 109q-88 68 -157 161q-25 -38 -63 -72q22 -33 22 -103v-307q-75 2 -103 9v-95zM462 358v95h330v-95h-330zM462 516v103h330v-103h-330z" />
</svg>
