<?xml version="1.0" standalone="no"?>
<!DOCTYPE svg PUBLIC "-//W3C//DTD SVG 1.1//EN" "http://www.w3.org/Graphics/SVG/1.1/DTD/svg11.dtd" >
<svg xmlns="http://www.w3.org/2000/svg" xmlns:xlink="http://www.w3.org/1999/xlink" version="1.1" viewBox="-10 0 1010 1000">
   <path fill="currentColor"
d="M474 -12q95 21 103 34q1 3 -7 9q-34 24 -58 71h280q78 0 135 -10v85q-42 -9 -137 -8h-322q-20 29 -48 69q15 -21 -3 4q35 9 103 10h190q82 0 137 -10q-6 42 -6 114v109q70 0 107 -10v83q-29 -6 -107 -6q0 24 -1 75q-1 59 -1 90q68 0 92 -6v79q-34 -6 -96 -6q-5 71 -23 96
q-20 30 -127 45q-8 -46 -46 -91q54 5 89 -2q24 -9 26 -46h-262q-58 0 -91 6q4 -17 4 -87v-155q-53 0 -76 1q-26 1 -41 3v-79q23 8 119 8q0 -18 1 -58q1 -43 1 -65q-1 -56 -6 -80q-42 58 -64 80q-17 -27 -75 -46q123 -84 210 -306zM173 10q47 59 103 155l-82 40
q-44 -95 -99 -153zM44 290q38 8 93 8q70 0 101 -8q-6 31 -6 113v308q38 -36 89 -99q17 42 42 77q-114 94 -171 167q-20 -31 -63 -68q26 -36 26 -89v-330h-26q-56 0 -85 6v-85zM762 318h-276l-2 147h278v-147zM629 332q31 50 44 89l-72 30q-14 -45 -38 -93zM480 532l-2 167
h284q0 -24 1 -75q1 -59 1 -92h-284zM627 552q23 48 40 103l-72 24q-17 -63 -35 -105z" />
</svg>
