<?xml version="1.0" standalone="no"?>
<!DOCTYPE svg PUBLIC "-//W3C//DTD SVG 1.1//EN" "http://www.w3.org/Graphics/SVG/1.1/DTD/svg11.dtd" >
<svg xmlns="http://www.w3.org/2000/svg" xmlns:xlink="http://www.w3.org/1999/xlink" version="1.1" viewBox="-10 0 1010 1000">
   <path fill="currentColor"
d="M187 16q46 58 93 149l-80 48q-52 -106 -91 -153zM899 36v77q-102 -3 -163 -3h-115l-24 99h125q42 0 62 -1q24 -1 43 -3q7 -1 4 8q-10 45 -18 95l-11 83h19q16 0 71 -2q32 -1 50 -2v78q-87 -6 -123 -6h-390q-83 1 -123 6v-80q79 6 123 6h47l32 -115h-24q-49 1 -109 6v-79
q78 6 147 6l26 -99h-38q-63 0 -159 5v-81q10 1 33 2q75 6 128 6h224q42 0 141 -5q15 -1 22 -1zM742 276h-161l-31 115h170zM46 276q34 6 87 6h113q-13 153 -20 407l99 -109q11 39 44 75q-130 114 -179 177l-61 -72q22 -27 24 -77q3 -49 6 -141q4 -120 8 -190h-20
q-25 0 -79 6q-16 1 -22 2v-84zM482 604v138h274v-138h-274zM395 528q60 8 129 8h206q52 0 117 -8q-11 54 -8 103v133q0 54 8 113h-99q0 -3 1 -9q7 -40 7 -58h-272q0 38 6 67h-95q9 -65 8 -101v-153q0 -24 -7 -83q-1 -8 -1 -12z" />
</svg>
