<?xml version="1.0" standalone="no"?>
<!DOCTYPE svg PUBLIC "-//W3C//DTD SVG 1.1//EN" "http://www.w3.org/Graphics/SVG/1.1/DTD/svg11.dtd" >
<svg xmlns="http://www.w3.org/2000/svg" xmlns:xlink="http://www.w3.org/1999/xlink" version="1.1" viewBox="-10 0 1010 1000">
   <path fill="currentColor"
d="M357 36q65 63 85 97q40 -46 60 -93q47 21 87 46q-7 -1 -111 117q45 138 52 299q3 136 -2 192q-5 63 -23 97q-25 65 -164 90q-3 -54 -39 -105q71 18 113 -10q45 -26 41 -289q-88 108 -143 152q-23 -33 -65 -65q115 -49 198 -191q-11 -64 -23 -115q-35 37 -102 96
q-22 -30 -79 -58q74 -27 151 -103q-42 -67 -109 -107zM181 38q66 92 105 161l-92 43q-34 -105 -99 -164zM333 703q-108 84 -166 153q-19 -37 -54 -76q26 -30 26 -91v-310q2 1 -22 2q-62 3 -83 8v-89q31 6 91 6q69 -1 101 -8q-8 33 -8 137v276q55 -55 82 -88zM597 88
q20 5 80 4h138q91 0 102 -4v87q-40 -7 -104 -8h-45v240h38h22q61 1 75 -4v85q-39 -5 -101 -5h-34v287h30q75 -1 131 -8v92q-39 -7 -121 -8h-165q-80 0 -113 6v-92q51 9 113 10h45v-287h-21q-83 0 -109 5v-87q17 4 42 5q12 1 27 1h40h21v-240h-27q-46 0 -64 4v-83z" />
</svg>
