<?xml version="1.0" standalone="no"?>
<!DOCTYPE svg PUBLIC "-//W3C//DTD SVG 1.1//EN" "http://www.w3.org/Graphics/SVG/1.1/DTD/svg11.dtd" >
<svg xmlns="http://www.w3.org/2000/svg" xmlns:xlink="http://www.w3.org/1999/xlink" version="1.1" viewBox="-10 0 1034 1024">
  <g transform="matrix(1 0 0 -1 0 820)">
   <path fill="currentColor"
d="M111 433q-21 1 -47 2q-6 3 -13 3v-46q30 4 60 5h84l-9 -414q-1 -39 -26 -64q28 -28 43 -48l89 113q75 94 90 109l-17 51l-86 -113q-9 -9 -53 -63l8 413q1 28 5 57q-27 -1 -56 -5h-72zM170 742q-19 -18 -34 -28q78 -76 125 -145q13 15 35 31q-1 1 -3 4q-31 39 -53 61
q-57 61 -70 77zM332 307q1 0 32 -31q72 42 129 89q57 49 128 122v-197l-173 4q-4 1 -7 1v-46q30 3 64 5h43q-6 -102 -22 -158q-24 -82 -85 -147q-30 -31 -88 -52q22 -15 47 -38q79 61 122 130q31 54 46 110q15 63 21 155h164l-42 -140q45 4 88 5h70q-12 -84 -21 -127
q-9 -33 -22 -48q-18 -16 -50 -21q-24 -3 -59 -4q-18 0 -40 5q12 -24 22 -53q120 7 154 38q30 30 49 152q6 51 16 99q-51 -4 -64 -5h-91l12 45q9 33 19 65q4 13 9 30q-15 -1 -24 -2q-19 -3 -26 -3h-94v209q69 -76 120 -115q48 -34 162 -92l33 51q-72 10 -142 53
q-60 37 -131 112h167q34 0 62 -5v46q-30 -1 -62 -5h-209v139q73 6 163 19q18 3 30 3t28 -1q-24 21 -44 50q-61 -18 -151 -28q-43 -4 -95 -7q-49 -3 -93 -3q-45 0 -84 7l20 -51q90 1 188 8v-136l-238 2q-6 3 -13 3v-46q3 1 7 1q6 3 37 3l173 1q-42 -45 -75 -76
q-34 -30 -64 -51q-69 -48 -129 -63q6 -4 13 -11v0z" />
  </g>

</svg>
