<?xml version="1.0" standalone="no"?>
<!DOCTYPE svg PUBLIC "-//W3C//DTD SVG 1.1//EN" "http://www.w3.org/Graphics/SVG/1.1/DTD/svg11.dtd" >
<svg xmlns="http://www.w3.org/2000/svg" xmlns:xlink="http://www.w3.org/1999/xlink" version="1.1" viewBox="-10 0 1034 1024">
  <g transform="matrix(1 0 0 -1 0 820)">
   <path fill="currentColor"
d="M223 408q-55 -3 -86 -4l-75 2q-6 3 -13 3v-47q15 3 52 6h88l-8 -376q-1 -40 -24 -61q24 -22 38 -42l108 121l36 35q-4 21 -7 55q-21 -27 -97 -110q-7 -6 -15 -15l6 386q0 28 6 48q-4 0 -9 -1zM115 686q93 -72 141 -138q15 15 27 31q-18 21 -58 60t-82 76q-12 -15 -28 -29
zM496 593l26 44q21 34 28 41q7 9 29 20q-27 12 -56 33q-24 -69 -80 -148q-28 42 -104 112q-7 -10 -28 -32q54 -36 110 -112q-42 -45 -70 -71q-21 -18 -61 -40q21 -12 47 -32l106 110q18 -39 28 -65q6 -16 13 -58q-21 -51 -96 -143q-51 -58 -110 -90q24 -12 46 -29
q82 73 171 201q3 -52 4 -92l1 -64q0 -163 -27 -214q-25 -43 -91 -44q-21 0 -39 4q4 -12 14 -26q6 -12 13 -27q69 18 90 27q45 24 61 90q15 72 16 178l-2 98q-3 61 -10 110q-12 87 -55 177q12 21 26 42zM736 289v-334l-180 4q-1 1 -2 1q-3 0 -7 1v-47q60 6 80 6l293 -1l47 -5
v47l-60 -6h-132v334h92q33 0 63 -6v48q-25 -4 -56 -7h-99v298h109q27 0 63 -5v46q-9 0 -17 -3l-173 -2l-174 2q-6 3 -14 3v-46q3 3 50 5h117v-298l-132 2q-4 3 -8 4q-3 1 -5 1v-48q3 0 7 1q16 4 53 5h85z" />
  </g>

</svg>
