<?xml version="1.0" standalone="no"?>
<!DOCTYPE svg PUBLIC "-//W3C//DTD SVG 1.1//EN" "http://www.w3.org/Graphics/SVG/1.1/DTD/svg11.dtd" >
<svg xmlns="http://www.w3.org/2000/svg" xmlns:xlink="http://www.w3.org/1999/xlink" version="1.1" viewBox="-10 0 1010 1000">
   <path fill="currentColor"
d="M829 8q56 70 52 88q-1 5 -19 4q-80 -5 -211 15v92h162q78 0 118 -8v75q-72 -6 -123 -6h-96q94 155 250 171q-30 23 -56 71q-4 7 -5 8q-187 -78 -250 -250v82q0 63 1 80q1 23 5 33h-90q11 -7 10 -109v-74q-78 132 -252 232q-30 -34 -73 -55q147 -38 254 -187h-60
q-77 0 -131 8v-75q32 6 129 6h133v-88q-41 1 -141 7q-48 2 -65 3q-7 -43 -36 -75q147 6 278 -7q128 -12 216 -41zM200 32q44 81 68 155l-83 24q-17 -65 -62 -155zM242 284q-8 50 -8 111v294q71 -70 105 -111q11 53 34 79q-121 101 -181 165q-22 -40 -51 -68q22 -25 22 -79
v-317h-36q-38 0 -91 7v-81q52 8 91 8q74 -1 115 -8zM778 481q3 -3 -36 123q78 0 127 -8q-29 255 -73 273q-42 26 -137 36q-18 -63 -48 -99q91 18 121 2q28 -17 48 -149l-117 4l25 -113h-115q-12 264 -226 343q-19 -30 -71 -61q214 -48 224 -278h-28q-53 0 -73 4v-73
q9 0 33 1q31 2 48 2h183q71 0 115 -7z" />
</svg>
