<?xml version="1.0" standalone="no"?>
<!DOCTYPE svg PUBLIC "-//W3C//DTD SVG 1.1//EN" "http://www.w3.org/Graphics/SVG/1.1/DTD/svg11.dtd" >
<svg xmlns="http://www.w3.org/2000/svg" xmlns:xlink="http://www.w3.org/1999/xlink" version="1.1" viewBox="-10 0 1010 1000">
   <path fill="currentColor"
d="M917 24q-77 85 -280 248h137q63 0 115 -8q0 2 -1 8q-7 66 -7 119v423q0 54 -144 72q-3 1 -5 1q-11 -59 -32 -101q104 23 102 -24v-99h-147v58q0 93 4 115h-90q8 -45 8 -113v-60h-140v68q0 105 7 134h-95q8 -43 8 -136v-354q0 -83 -8 -111q64 8 107 8h119
q-64 -52 -150 -89l69 -44l115 80q42 -35 115 -113h-268q-61 0 -125 7v-81q26 6 121 6h284q117 -2 181 -14zM171 34q69 85 113 153l-80 50q-34 -65 -113 -159zM44 294q33 6 85 8q67 -1 101 -6q-8 30 -8 79v332q19 -18 88 -103q10 40 33 85q-115 101 -158 155q-28 -44 -58 -72
q20 -27 20 -81v-324q-39 0 -91 5q-8 1 -12 1v-79zM655 332v103h147v-103h-147zM577 332h-142v105h142v-105zM435 496v108h142v-108h-142zM655 494v110h147v-110h-147z" />
</svg>
