<?xml version="1.0" standalone="no"?>
<!DOCTYPE svg PUBLIC "-//W3C//DTD SVG 1.1//EN" "http://www.w3.org/Graphics/SVG/1.1/DTD/svg11.dtd" >
<svg xmlns="http://www.w3.org/2000/svg" xmlns:xlink="http://www.w3.org/1999/xlink" version="1.1" viewBox="-10 0 1034 1024">
  <g transform="matrix(1 0 0 -1 0 820)">
   <path fill="currentColor"
d="M247 447q-22 -1 -45 -5q-97 0 -120 2q-7 3 -18 4v-47q30 4 61 5h87l-5 -409q-1 -42 -32 -65q21 -24 37 -45q72 81 93 99q15 18 61 58q-10 43 -11 48q-36 -39 -60 -63l-51 -47l6 415q0 22 6 51q-4 0 -9 -1zM291 585q15 15 22 20q-21 27 -67 71q-54 51 -70 69
q-9 -12 -29 -30l73 -71q28 -30 61 -68q4 4 10 9zM347 -133l12 -15q66 34 101 59q36 27 78 67q33 33 55 68q21 33 49 96q60 -93 121 -151q60 -60 164 -126q6 3 10 10q9 10 19 19q1 0 3 3l2 3l12 12q-82 22 -150 78q-100 82 -143 167h197q37 0 63 -5v46q-31 -1 -63 -5h-227
l4 58q6 51 6 91h167q40 0 62 -6v47q-30 -1 -62 -5l-404 4q-3 1 -5 1v-47q18 3 54 6h150q0 -51 -4 -84q-3 -31 -8 -65l-246 2q-6 3 -13 3v-46q30 4 61 5h190q-25 -87 -110 -170q-82 -75 -171 -90q9 -9 26 -30zM420 479q6 3 37 3q12 3 20 2l352 -1l38 -4q-4 49 -5 70l1 147
l4 41q-18 -1 -25 -2q-19 -3 -28 -3l-352 1q-19 3 -42 4q1 -28 5 -58l-1 -156q-3 -12 -4 -44zM824 696v-176h-362v176h362z" />
  </g>

</svg>
