<?xml version="1.0" standalone="no"?>
<!DOCTYPE svg PUBLIC "-//W3C//DTD SVG 1.1//EN" "http://www.w3.org/Graphics/SVG/1.1/DTD/svg11.dtd" >
<svg xmlns="http://www.w3.org/2000/svg" xmlns:xlink="http://www.w3.org/1999/xlink" version="1.1" viewBox="-10 0 1034 1024">
  <g transform="matrix(1 0 0 -1 0 820)">
   <path fill="currentColor"
d="M228 379l4 54q0 7 1 11q-81 -4 -117 -5q-36 1 -38 1q-12 1 -26 3q-1 0 -5 1v-46q3 3 23 3q9 1 119 2l-8 -431q-3 -22 -22 -37q13 -10 28 -28q3 -3 11 -12q1 1 3 4q4 4 7 8q7 13 17 25q18 24 36 46l74 97q-6 12 -7 17q-3 7 -13 40q-12 -31 -42 -77q-21 -30 -33 -46
q-9 -12 -20 -25zM118 678q15 -12 35 -26l38 -32q40 -33 63 -60q9 15 28 32l-29 27l-107 91q-12 -16 -28 -32zM610 99v577l71 -1q15 0 40 -4v46l-13 -2l-93 -3l-304 1q-19 3 -29 4v-46q16 3 58 5h30v-660q-19 -6 -60 -14q18 -33 27 -53q24 18 62 34l172 65l-3 -198
q-1 -1 -2 -6h50q-1 4 -1 8q-3 7 -4 34l-1 175q28 10 59 20q6 45 7 50q-18 -12 -44 -22q-12 -4 -22 -10zM406 250h165v-164l-46 -18q-91 -30 -119 -42v224zM406 282v178h165v-178h-165zM571 676v-182h-165v182h165zM688 609q-9 0 -37 3v-41l34 1q1 -12 3 -21l14 -121l16 -98
q9 -54 23 -96q12 -45 28 -91q-9 -24 -24 -54q-13 -28 -30 -58q-30 -57 -57 -90q-24 -27 -45 -40q24 -6 54 -22q45 72 75 125q27 46 50 96l12 -22q13 -27 48 -82q39 -60 81 -117q21 15 55 28q-39 22 -82 77q-58 78 -92 157q37 103 60 188q10 42 20 94l23 131q4 33 10 58
q-34 -1 -70 -5h-169zM880 573q-3 -67 -36 -210q-15 -69 -52 -171q-57 159 -68 381h156z" />
  </g>

</svg>
