<?xml version="1.0" standalone="no"?>
<!DOCTYPE svg PUBLIC "-//W3C//DTD SVG 1.1//EN" "http://www.w3.org/Graphics/SVG/1.1/DTD/svg11.dtd" >
<svg xmlns="http://www.w3.org/2000/svg" xmlns:xlink="http://www.w3.org/1999/xlink" version="1.1" viewBox="-10 0 1034 1024">
  <g transform="matrix(1 0 0 -1 0 820)">
   <path fill="currentColor"
d="M108 431q-21 1 -47 2q-6 3 -13 3v-46h2q3 3 22 3q24 1 138 2l-9 -407q-3 -39 -32 -64q21 -25 34 -49q33 46 43 56q15 21 58 64q1 3 38 39l-18 45q-33 -45 -84 -99l8 404q0 18 5 52q-24 -1 -50 -5h-95zM152 703q79 -63 145 -146q6 9 29 32q-24 30 -60 65q-6 4 -11 10
l-72 68q-4 -4 -9 -11q-15 -12 -22 -18zM319 -134q4 -6 11 -12q4 -6 11 -13q4 -7 10 -15q117 45 194 101q90 72 127 181h237q37 0 62 -6v47q-60 -4 -62 -5h-231q7 57 12 104l9 98q0 6 5 28q6 24 23 42q-45 3 -76 11q6 -24 6 -42q0 -49 -4 -91l-7 -84q-3 -33 -11 -66l-297 4
q-4 1 -7 1v-47q15 3 53 6h243q-27 -73 -70 -119q-57 -55 -132 -88q-30 -12 -57 -20q-22 -6 -55 -10q3 -1 6 -5zM628 493l-243 1q-12 1 -30 2q-6 3 -13 3v-47q30 4 60 5h475q-12 -27 -26 -49q-13 -24 -39 -62q21 -3 46 -11l92 164q-15 -1 -27 -3q-19 -3 -29 -3h-228v129
l215 -1l35 -4v47q-9 -3 -17 -4q-24 0 -46 -2h-187q0 75 3 84q1 15 10 27h-56q4 -66 5 -86v-25l-230 3q-6 3 -11 3v-47q30 4 60 5h181v-129zM380 304q-6 -12 -17 -23q85 -48 146 -103q15 27 26 38q-132 90 -147 100zM589 302l17 23q-48 45 -140 104q-15 -22 -25 -34
q82 -48 139 -105zM727 35q-9 7 -20 15q-6 -9 -10 -18q-6 -9 -15 -19q69 -36 134 -86q67 -49 110 -94l8 14q6 7 10 13q0 3 10 13q-93 70 -164 120z" />
  </g>

</svg>
