<?xml version="1.0" standalone="no"?>
<!DOCTYPE svg PUBLIC "-//W3C//DTD SVG 1.1//EN" "http://www.w3.org/Graphics/SVG/1.1/DTD/svg11.dtd" >
<svg xmlns="http://www.w3.org/2000/svg" xmlns:xlink="http://www.w3.org/1999/xlink" version="1.1" viewBox="-10 0 1034 1024">
  <g transform="matrix(1 0 0 -1 0 820)">
   <path fill="currentColor"
d="M115 436q-36 0 -62 5v-47q25 4 62 5h76l-8 -394q-1 -51 -27 -73q13 -10 26 -25q3 -6 6 -8q6 -6 17 -21q36 78 84 147q15 22 31 45q12 15 22 33l-28 42q-15 -33 -31 -60q-19 -30 -61 -88l8 395l4 38q0 4 1 11q-51 -4 -69 -5h-51zM90 698l31 -20l41 -32q51 -37 90 -79
q9 15 28 35q-28 25 -68 58l-93 72q-12 -18 -29 -34zM402 344q21 -21 38 -40q-61 -51 -128 -68q21 -15 44 -41q15 10 30 19q40 25 67 46q6 3 13 10q15 -21 26 -36q13 -19 22 -36q10 9 23 19h1l12 9l-52 68q88 82 102 95q12 -21 23 -49q9 -24 20 -62q-75 -103 -175 -181
q-84 -63 -147 -77q22 -18 31 -28q4 -6 10 -14q33 18 69 42t76 56q36 27 67 59q33 34 80 89q7 -48 8 -63q0 -13 2 -44q1 -48 -13 -107q-15 -66 -44 -89q-25 -21 -80 -21q-27 0 -61 11q9 -39 11 -60q13 1 28 1q45 1 62 5q33 6 56 19q54 39 72 137q9 48 10 102q0 42 -10 106
q-7 51 -26 122q25 18 53 34q39 -144 82 -219q42 -69 63 -97q6 -7 11 -13q49 -61 53 -67q19 15 31 23q6 3 22 12q-31 21 -58 47q-42 42 -75 96q-27 48 -39 73t-25 66q-16 48 -20 62q-4 15 -9 41q31 30 67 56q30 22 65 33q-33 27 -49 52q-60 -84 -187 -163q-21 39 -42 70
q-22 30 -63 79q42 40 71 71q27 27 58 65l224 -1l25 -4v46q-66 -4 -95 -5l-464 1q-16 1 -30 4v-46q24 4 62 5h220q-54 -78 -158 -151q-81 -54 -157 -74q15 -12 31 -32l7 -10q84 45 175 104q33 -37 61 -76q-52 -54 -109 -102q-22 27 -59 68q-18 -15 -31 -25z" />
  </g>

</svg>
