<?xml version="1.0" standalone="no"?>
<!DOCTYPE svg PUBLIC "-//W3C//DTD SVG 1.1//EN" "http://www.w3.org/Graphics/SVG/1.1/DTD/svg11.dtd" >
<svg xmlns="http://www.w3.org/2000/svg" xmlns:xlink="http://www.w3.org/1999/xlink" version="1.1" viewBox="-10 0 1034 1024">
  <g transform="matrix(1 0 0 -1 0 820)">
   <path fill="currentColor"
d="M241 427q-22 -1 -45 -5l-132 3q-6 3 -13 3v-47h2q3 3 22 3q25 1 132 2l-6 -399q-1 -42 -25 -60q22 -25 38 -46q42 48 104 109q16 18 36 34l20 20q-3 9 -5 17l-7 30q-28 -34 -63 -69q-33 -33 -60 -57l7 413q0 18 5 50q-6 0 -10 -1zM266 546q6 7 17 19l14 14l-55 56l-98 93
q-12 -13 -32 -28q48 -42 79 -73zM375 220q-21 1 -47 2q-9 3 -14 3v-47q15 3 56 6h141q-12 -16 -25 -33q-30 -40 -54 -65l113 -35q48 -16 105 -40q-63 -58 -149 -95q-70 -24 -143 -25q24 -36 31 -50q87 19 159 54q39 18 70 39q31 22 74 60q51 -21 115 -56q66 -36 109 -68
q10 24 16 29q3 3 8 13q-111 61 -220 114q25 36 45 69q21 36 49 89h94q39 0 62 -6v47q-39 -4 -62 -5h-326q31 46 40 53q6 9 30 15q-34 19 -55 32q-30 -54 -61 -100h-161zM556 184h210q-24 -48 -42 -81q-18 -28 -43 -60l-179 63zM337 326q15 -10 26 -25q36 21 55 34
q16 10 37 27q87 75 154 153l-3 -185q-1 -3 -2 -8h48l-4 36l-1 165q79 -75 123 -106q70 -48 145 -91q1 3 5 6l32 38q0 1 5 6q-114 4 -274 163h179q27 0 62 -5v46q-30 -1 -62 -5h-215v120q81 15 119 19q84 9 88 9q6 1 17 -1q-18 18 -29 30q-1 1 -16 20q-25 -12 -54 -20
q-57 -12 -129 -22q-103 -12 -192 -12q-15 0 -61 6q9 -18 16 -43q33 0 54 2q12 0 149 9v-117l-229 1q-12 1 -24 3q-4 1 -7 1v-46q3 1 7 1q6 3 39 3l185 1q-61 -78 -127 -130q-70 -51 -133 -68q7 -7 17 -15v0z" />
  </g>

</svg>
