<?xml version="1.0" standalone="no"?>
<!DOCTYPE svg PUBLIC "-//W3C//DTD SVG 1.1//EN" "http://www.w3.org/Graphics/SVG/1.1/DTD/svg11.dtd" >
<svg xmlns="http://www.w3.org/2000/svg" xmlns:xlink="http://www.w3.org/1999/xlink" version="1.1" viewBox="-10 0 1010 1000">
   <path fill="currentColor"
d="M571 -12q98 0 98 8q1 6 -5 19q-9 20 -9 37v34h160q44 0 101 -7q9 -1 13 -1v73q-7 0 -21 -2q-57 -4 -95 -4h-158v66h91q64 0 147 -6v73q-53 -8 -147 -8h-91v68h145q70 -1 152 -8v73q-111 -6 -152 -6h-356q-47 0 -148 6v-73q94 8 148 8h131v-68h-77q-59 1 -139 8v-75
q71 7 135 8h81v-66h-135q-28 0 -81 4q-23 1 -34 2v-71q57 6 119 6h131v-36q0 -22 -4 -62zM177 14q57 75 107 159l-78 44q-42 -84 -103 -157zM36 282q36 5 95 8h111l-14 413q24 -26 79 -93q7 -8 10 -12q11 45 38 79q-115 108 -163 167l-57 -68q19 -31 20 -71q4 -140 4 -334
h-32q-54 0 -91 6v-95zM782 510h-314v60h314v-60zM782 621h-314v64h314v-64zM867 443q-11 36 -8 69v340q-21 44 -151 53q2 -39 -27 -91q101 19 101 -12v-65h-314v71q-1 71 8 95h-93q8 -43 8 -93v-302q0 -18 -7 -57q-1 -5 -1 -8q54 8 105 8h270q53 0 109 -8z" />
</svg>
