<?xml version="1.0" standalone="no"?>
<!DOCTYPE svg PUBLIC "-//W3C//DTD SVG 1.1//EN" "http://www.w3.org/Graphics/SVG/1.1/DTD/svg11.dtd" >
<svg xmlns="http://www.w3.org/2000/svg" xmlns:xlink="http://www.w3.org/1999/xlink" version="1.1" viewBox="-10 0 1034 1024">
  <g transform="matrix(1 0 0 -1 0 820)">
   <path fill="currentColor"
d="M109 423q-21 1 -47 2q-6 3 -13 3v-46h2q3 3 22 3q24 1 122 2l-5 -420q-1 -45 -28 -75q9 -7 23 -21q6 -6 14 -12q0 -1 4 -5q18 30 95 147q21 31 46 61q-15 24 -22 43q-36 -66 -94 -144l5 418q0 27 6 49q-51 -4 -76 -5h-54zM167 723q-27 -18 -37 -28q93 -87 134 -152
q9 12 24 21q6 3 11 8q-12 15 -18 21q-93 106 -100 114q-7 9 -14 16zM529 589l-187 2q-6 3 -13 3v-47q12 3 50 6h150v-204l-148 1q-3 0 -22 1q-6 3 -13 3v-46q30 4 60 5h123v-182l-166 2q-6 3 -13 3v-46q30 4 61 5h118v-199q0 -39 -6 -59h51q-6 25 -6 41l-1 811q0 27 15 62
h-59q6 -30 6 -61v-101zM739 595v104q0 24 13 61h-57l6 -60l-1 -842l-5 -19h49l-4 35l-1 224h166q33 0 62 -5v46q-30 -1 -62 -5h-166v184h112q33 0 63 -5v46q-4 0 -7 -1l-56 -4h-112v205h130q34 0 62 -5v46q-30 -1 -62 -5h-130z" />
  </g>

</svg>
