<?xml version="1.0" standalone="no"?>
<!DOCTYPE svg PUBLIC "-//W3C//DTD SVG 1.1//EN" "http://www.w3.org/Graphics/SVG/1.1/DTD/svg11.dtd" >
<svg xmlns="http://www.w3.org/2000/svg" xmlns:xlink="http://www.w3.org/1999/xlink" version="1.1" viewBox="-10 0 1034 1024">
  <g transform="matrix(1 0 0 -1 0 820)">
   <path fill="currentColor"
d="M248 445q-31 -1 -63 -5q-76 0 -106 2l-25 3v-46q31 4 63 5h86v-427q0 -21 -10 -40q-4 -9 -20 -27q22 -19 46 -43q49 75 64 92q4 7 10 13l50 63q18 27 44 53q-10 18 -21 49q-4 -9 -21 -34q-13 -21 -31 -45q-36 -48 -72 -90l1 428q0 13 5 49zM303 588q3 4 8 9q3 4 8 8
q-57 57 -153 120q-13 -18 -28 -34q99 -49 152 -119q10 15 13 16zM296 339q19 -9 40 -21q70 87 126 181v-595q0 -48 -5 -74h47q-4 27 -5 78v28l421 -1q36 0 50 -4l2 -1v47q-12 -3 -19 -3q-42 -3 -49 -3h-176v164l171 -3q6 0 12 -3v46q-55 -4 -92 -5h-91v146l174 -3q4 0 10 -2
v46q-55 -4 -92 -5h-92v168l204 -3q6 0 11 -3v47q-66 -4 -95 -5h-356l59 128q16 42 43 61q-33 12 -66 23q-4 -36 -17 -73q-48 -127 -126 -243q-52 -75 -105 -107q7 -3 16 -6zM499 -29v164h191v-164h-191zM499 170v146h191v-146h-191zM499 352v168h191v-168h-191zM748 590
q22 24 28 25q0 1 3 2q-48 69 -112 131q-6 -9 -22 -20q-7 -6 -10 -8q22 -18 44 -42q39 -42 66 -90q1 1 3 2v0z" />
  </g>

</svg>
