<?xml version="1.0" standalone="no"?>
<!DOCTYPE svg PUBLIC "-//W3C//DTD SVG 1.1//EN" "http://www.w3.org/Graphics/SVG/1.1/DTD/svg11.dtd" >
<svg xmlns="http://www.w3.org/2000/svg" xmlns:xlink="http://www.w3.org/1999/xlink" version="1.1" viewBox="-10 0 1010 1000">
   <path fill="currentColor"
d="M562 2q83 11 109 28q1 5 -10 13q-16 12 -18 23q101 188 325 230q-55 50 -73 95q-213 -98 -292 -276q-99 166 -272 314q-26 -40 -79 -62q226 -112 310 -365zM194 36q77 106 112 171l-92 47q-56 -131 -103 -182zM631 231q23 69 36 123l-90 11q-5 -62 -27 -127zM244 320
q-8 25 -8 147v240q43 -72 58 -107q10 64 39 97q-86 95 -129 165q-37 -41 -69 -66q26 -29 26 -77v-318q-100 0 -125 10v-89q8 6 99 6q74 0 109 -8zM817 383q-31 92 -89 201q-41 -21 -87 -20q44 -54 63 -103h-137q-144 0 -178 8v-84q39 8 173 8h87q127 -1 168 -10zM567 514
q68 68 123 133l-69 46q-53 -78 -111 -139zM806 564q85 94 148 176l-89 54q-35 -87 -133 -184zM359 596q66 7 87 17q1 4 -3 12q-11 21 -16 50q-5 26 -11 67q-10 63 -21 104q-31 -17 -95 -22q54 -85 59 -228zM480 637q78 0 87 6q1 2 -2 8q-11 22 -11 52v75q-4 48 47 44h32
q42 1 57 -21q16 -21 22 -86q29 46 84 57q-22 76 -48 99q-23 23 -81 22h-125q-38 0 -49 -14q-12 -13 -11 -59v-123z" />
</svg>
