<?xml version="1.0" standalone="no"?>
<!DOCTYPE svg PUBLIC "-//W3C//DTD SVG 1.1//EN" "http://www.w3.org/Graphics/SVG/1.1/DTD/svg11.dtd" >
<svg xmlns="http://www.w3.org/2000/svg" xmlns:xlink="http://www.w3.org/1999/xlink" version="1.1" viewBox="-10 0 1034 1024">
  <g transform="matrix(1 0 0 -1 0 820)">
   <path fill="currentColor"
d="M113 443q-21 1 -47 2q-6 3 -13 3v-46h2q3 3 22 3q25 1 128 2l-6 -451q-1 -37 -24 -62q12 -9 20 -19q12 -10 25 -21q18 24 32 45l42 52l59 72l-12 48q-22 -31 -45 -57q-22 -27 -59 -68l6 449q0 22 6 53q-16 -1 -26 -2q-18 -3 -25 -3h-85zM138 699q46 -39 73 -63l48 -47
q13 -13 28 -31q12 18 30 37q-120 109 -149 138q-10 -15 -30 -34zM405 633q-24 0 -47 2q-6 3 -13 3v-46q30 3 60 5l511 -1q15 0 35 -4v46l-39 -4l-215 -1q9 18 24 37l-38 31q-25 18 -52 39q-13 10 -37 27q-18 -24 -28 -36q90 -48 126 -98h-287zM653 95l-276 2q-6 3 -14 3v-46
q30 4 61 5h229v-140q0 -33 -31 -37q-27 -3 -33 -3q-30 0 -51 7q9 -27 14 -54q54 3 86 9q24 4 36 12q16 12 17 53v153h218q24 0 62 -5v46q-39 -4 -62 -5h-218v29q49 33 87 63q39 30 100 82q-33 -1 -65 -5l-400 4q-4 1 -8 1v-46q30 4 61 5h303q-33 -28 -61 -48
q-19 -13 -60 -36q1 -24 5 -49zM435 390l-4 -38q-1 -9 -1 -18q24 3 51 5l346 -1q13 0 38 -4q-6 54 -6 76q0 66 2 74q0 13 4 38q-25 -1 -52 -5l-346 1q-3 1 -37 4q4 -90 5 -92v-40zM822 481v-106h-350v106h350z" />
  </g>

</svg>
