<?xml version="1.0" standalone="no"?>
<!DOCTYPE svg PUBLIC "-//W3C//DTD SVG 1.1//EN" "http://www.w3.org/Graphics/SVG/1.1/DTD/svg11.dtd" >
<svg xmlns="http://www.w3.org/2000/svg" xmlns:xlink="http://www.w3.org/1999/xlink" version="1.1" viewBox="-10 0 1034 1024">
  <g transform="matrix(1 0 0 -1 0 820)">
   <path fill="currentColor"
d="M123 454q-24 1 -48 3q-3 1 -13 2v-46h2q3 3 22 3q25 1 123 2l-6 -374q-1 -54 -31 -82l44 -45l66 100l71 97q-9 27 -17 57q-24 -46 -46 -80q-21 -30 -49 -66l6 381q0 1 6 53q-27 -1 -53 -5h-77zM306 558q12 15 25 25q1 1 4 3q-27 31 -55 60l-101 98q-12 -18 -29 -31
q33 -27 85 -80q46 -48 68 -79q1 3 3 4zM462 669h422v-715q0 -27 -7 -41q-4 -6 -16 -9q-18 -4 -44 -5h-15q-18 0 -44 5q12 -31 16 -52q108 6 131 24q16 16 17 60l1 731l4 43q-30 -1 -59 -5l-409 1q-15 3 -40 4q1 -30 5 -62v-363q0 -96 -13 -182q-16 -103 -65 -176
q-15 -22 -48 -47q7 -4 22 -10l30 -16q22 33 38 61q13 24 24 49q28 70 42 167q6 72 8 152v386zM649 372l-136 3q-3 1 -11 2v-46q30 4 60 5l255 -1q15 0 35 -4v46l-39 -4l-125 -1v124h74q30 0 63 -6v47q-9 0 -17 -3q-48 -3 -91 -3h-29q0 75 3 80q1 15 11 29h-58q4 -66 5 -85
v-24l-113 3q-9 3 -14 3v-47h2q4 4 43 5l82 1v-124zM555 74q-3 -25 -5 -53q42 4 62 5l155 -1l35 -4q-4 45 -5 86q0 102 2 111q0 16 3 33q-4 0 -8 -1q-19 -1 -40 -5l-160 1q-12 3 -44 5l5 -86v-91zM592 62v148h167v-148h-167z" />
  </g>

</svg>
