<?xml version="1.0" standalone="no"?>
<!DOCTYPE svg PUBLIC "-//W3C//DTD SVG 1.1//EN" "http://www.w3.org/Graphics/SVG/1.1/DTD/svg11.dtd" >
<svg xmlns="http://www.w3.org/2000/svg" xmlns:xlink="http://www.w3.org/1999/xlink" version="1.1" viewBox="-10 0 1010 1000">
   <path fill="currentColor"
d="M627 -6q16 22 48 102q3 7 4 10l-86 23q-16 -48 -47 -107zM183 28q30 45 91 143l-82 38q-42 -89 -85 -141zM942 129v86q-34 -6 -132 -6h-358q-90 1 -133 8v-88q38 8 133 8h356q96 0 134 -8zM861 282q-6 30 -6 95v68q1 82 6 119q-29 -6 -111 -6h-73v258q14 76 -153 83
q-2 -20 -34 -78q-4 -7 -6 -11q70 7 90 -2q21 -6 19 -40v-210h-85q-67 1 -115 8q8 -44 8 -115v-74q-3 -77 -6 -95q54 6 143 8h182q89 -1 141 -8zM42 292q21 8 99 8q72 -1 99 -6q-10 41 -10 111v284l18 -18q56 -56 77 -83q7 38 40 75q-103 88 -178 175q-26 -34 -60 -66
q21 -27 20 -89v-310h-10q-58 0 -95 6v-87zM484 360v128h288v-128h-288zM796 608q22 29 72 92q57 72 74 96l-79 50q-57 -104 -135 -187zM442 613q96 20 94 30q0 3 -7 9q-21 16 -35 41q-62 106 -121 172q-10 -5 -49 -20q-22 -8 -34 -13q99 -83 152 -219z" />
</svg>
