<?xml version="1.0" standalone="no"?>
<!DOCTYPE svg PUBLIC "-//W3C//DTD SVG 1.1//EN" "http://www.w3.org/Graphics/SVG/1.1/DTD/svg11.dtd" >
<svg xmlns="http://www.w3.org/2000/svg" xmlns:xlink="http://www.w3.org/1999/xlink" version="1.1" viewBox="-10 0 1010 1000">
   <path fill="currentColor"
d="M565 -8q107 1 112 16q0 6 -9 19q-10 16 -13 27q-4 13 -12 62t-14 85q200 107 296 161l-58 85q-56 -66 -262 -183q-77 130 -250 203q-31 -59 -73 -82q169 -29 231 -118q65 -89 52 -275zM159 22q55 55 127 163l-76 52q-60 -111 -121 -163zM38 294q8 1 25 2q57 4 82 4h91
q-6 93 -12 433q31 -38 88 -116q7 45 43 78q-100 99 -163 170l-63 -67q21 -21 20 -75q0 -102 2 -348h-16q-60 1 -97 6v-87zM563 379q6 0 19 1q95 1 91 15q0 7 -6 18q-11 21 -12 44q-5 270 287 351q-51 40 -73 91q-205 -102 -256 -301q-30 189 -246 307q-41 -45 -81 -69
q311 -81 277 -457zM784 473q43 10 87 31q-18 27 -48 100q-16 38 -25 57q-27 -19 -76 -26q50 -83 62 -162zM778 52q82 31 81 42q-1 3 -6 9q-28 37 -71 126q-47 -24 -76 -32q53 -71 72 -145zM403 56q83 6 91 18q0 2 -2 4q-19 26 -50 145q-37 -13 -81 -14q33 -72 42 -153z
M397 467q87 13 91 23q0 4 -5 10q-11 13 -13 28q-13 82 -41 129q-23 -14 -84 -18q44 -69 52 -172z" />
</svg>
