<?xml version="1.0" standalone="no"?>
<!DOCTYPE svg PUBLIC "-//W3C//DTD SVG 1.1//EN" "http://www.w3.org/Graphics/SVG/1.1/DTD/svg11.dtd" >
<svg xmlns="http://www.w3.org/2000/svg" xmlns:xlink="http://www.w3.org/1999/xlink" version="1.1" viewBox="-10 0 1034 1024">
  <g transform="matrix(1 0 0 -1 0 820)">
   <path fill="currentColor"
d="M252 435q-55 -3 -86 -4l-96 2q-6 3 -13 3v-46h2q3 3 22 3q25 1 135 2l-6 -405q0 -45 -29 -68q42 -42 47 -48q93 132 101 138l66 83q-9 21 -19 54q-30 -48 -58 -88q-28 -37 -69 -85l5 407l6 53q-4 0 -8 -1zM195 721q-15 -16 -33 -30q55 -46 93 -82q28 -28 56 -66
q6 6 10 11q7 9 23 25q-55 55 -72 70l-56 52q-10 10 -21 20zM835 594q-33 -61 -63 -106q-28 -42 -66 -87q24 -9 44 -20l46 72q15 22 28 47l83 135q-30 -1 -62 -5h-285q36 63 47 74q9 12 35 28q-12 3 -62 25q-36 -87 -103 -179q-79 -108 -146 -151q30 -15 50 -29q39 42 75 88
l81 108h298zM429 -98q0 -33 -3 -49q0 -6 -2 -11h47q-1 3 -1 6t-4 56v29h419q-1 -40 -3 -82q-1 -1 -2 -6h50q-6 25 -6 49l1 404q0 6 2 13l3 28q-90 -4 -93 -5l-121 2q-6 3 -13 3v-46q30 4 60 5h122v-138l-165 4q-6 1 -9 2v-47q36 6 60 6h114v-156h-419v151h105q27 0 63 -5v46
q-4 0 -7 -1l-112 -4h-49v153l123 35q31 7 62 9q-25 28 -42 51q-81 -54 -185 -62q1 -28 5 -58v-382z" />
  </g>

</svg>
