<?xml version="1.0" standalone="no"?>
<!DOCTYPE svg PUBLIC "-//W3C//DTD SVG 1.1//EN" "http://www.w3.org/Graphics/SVG/1.1/DTD/svg11.dtd" >
<svg xmlns="http://www.w3.org/2000/svg" xmlns:xlink="http://www.w3.org/1999/xlink" version="1.1" viewBox="-10 0 1010 1000">
   <path fill="currentColor"
d="M397 -12q86 1 99 8q0 2 -4 9q-12 24 -12 45v42h254q0 -90 -6 -102q99 4 101 12q0 3 -4 8q-12 18 -12 44v36q87 0 116 -8v83q-15 -4 -39 -5q-11 -1 -28 -1h-49v141q0 131 8 153q-16 -8 -178 -8v77h127q146 0 174 -10v88q-23 -8 -226 -8q51 124 228 178q-51 42 -61 88
q-196 -115 -242 -272v182q0 132 6 143h-91q6 -13 7 -42q2 -28 2 -103v-178q-84 158 -228 279q-1 -1 -5 -4q-43 -38 -78 -49q123 -65 238 -226q-168 -1 -194 10v-84q17 10 184 10h81v-77q-73 0 -110 1q-42 2 -64 5q10 -31 10 -139v-151q-87 0 -109 8v-89q21 12 109 12v-29
q1 -61 -4 -77zM163 22q38 48 93 161l-81 42q-30 -92 -90 -167zM480 161v74h254v-74h-254zM480 304v73h254v-73h-254zM226 296q-8 34 -8 125v286q8 -7 31 -29q36 -34 61 -57l31 74q-124 100 -182 165l-44 -76q25 -26 24 -85v-322q-79 -1 -103 8v-89q14 5 35 7q16 1 68 1
q54 0 87 -8z" />
</svg>
