<?xml version="1.0" standalone="no"?>
<!DOCTYPE svg PUBLIC "-//W3C//DTD SVG 1.1//EN" "http://www.w3.org/Graphics/SVG/1.1/DTD/svg11.dtd" >
<svg xmlns="http://www.w3.org/2000/svg" xmlns:xlink="http://www.w3.org/1999/xlink" version="1.1" viewBox="-10 0 1010 1000">
   <path fill="currentColor"
d="M198 12q14 21 45 75q25 43 43 74l-78 42q-41 -98 -87 -143zM667 94v73h162v-73h-162zM595 94h-151v73h151v-73zM595 219h-151v75h151v-75zM667 219v75h162v-75h-162zM38 272q60 4 119 4h109q-16 155 -22 263q-6 104 -12 168q21 -23 47 -51q34 -36 60 -68q8 26 38 77
q-120 109 -177 179l-67 -64q22 -21 26 -69q6 -85 9 -190q2 -94 7 -165h-20q-39 0 -117 4v-88zM478 477v63h306v-63h-306zM480 592v69h306v-69h-306zM357 22q39 6 91 6h346q49 0 121 -6q-6 44 -6 80v184q0 47 4 76q-7 0 -21 -1q-48 -3 -88 -3h-340q-21 -2 -84 3q-13 1 -19 1
q4 -38 4 -82v-178q0 -33 -8 -80zM389 409q12 1 34 2q40 2 53 2h330q14 0 56 -3q8 -1 13 -1q-8 42 -8 66v345q-5 64 -137 73q-2 -47 -32 -85q91 7 88 -16v-79h-306v65q0 39 6 107h-97q11 -34 8 -105v-309q0 -10 -5 -40q-2 -14 -3 -22z" />
</svg>
