<?xml version="1.0" standalone="no"?>
<!DOCTYPE svg PUBLIC "-//W3C//DTD SVG 1.1//EN" "http://www.w3.org/Graphics/SVG/1.1/DTD/svg11.dtd" >
<svg xmlns="http://www.w3.org/2000/svg" xmlns:xlink="http://www.w3.org/1999/xlink" version="1.1" viewBox="-10 0 1034 1024">
  <g transform="matrix(1 0 0 -1 0 820)">
   <path fill="currentColor"
d="M103 425q-21 1 -47 2q-6 3 -13 3v-47q0 1 2 1q3 3 22 3q24 1 121 2l-7 -357q-1 -51 -32 -72q24 -27 41 -55q9 18 21 30q0 1 3 3l89 115l44 52q-9 19 -18 39q-1 6 -4 10q-22 -36 -44 -65q-22 -30 -62 -77l7 370q0 19 5 48q-51 -4 -76 -5h-52zM218 663l-78 72
q-18 -22 -31 -32q54 -43 145 -143q24 30 29 32q1 1 4 3zM609 -96q0 -28 -2 -47q0 -6 -3 -12h48q-3 7 -4 34l-1 286q58 -93 125 -157q60 -57 159 -114q24 30 50 48q-76 15 -149 70q-51 39 -77 70q-25 30 -70 98h209q36 0 63 -5v46q-31 -1 -63 -5h-247v109q135 0 147 -2
q16 0 35 -3l-6 58v239h65q31 0 64 -6v47q-24 -6 -64 -6h-65q0 93 3 95q1 13 11 30h-57q0 -6 3 -19l2 -106h-305q0 78 3 83q1 13 11 30h-56q4 -66 5 -84v-29l-107 3q-9 3 -15 3v-47q36 6 85 6h37l-1 -255q-3 -12 -4 -42q46 4 95 5h76v-109l-276 4q-4 1 -8 1v-46q30 4 61 5
h196q-46 -67 -127 -144q-84 -73 -164 -99q19 -18 40 -43q61 39 127 91q45 39 80 77q36 37 71 85v-243zM480 360v111h305v-111h-305zM480 507v110h305v-110h-305z" />
  </g>

</svg>
