<?xml version="1.0" standalone="no"?>
<!DOCTYPE svg PUBLIC "-//W3C//DTD SVG 1.1//EN" "http://www.w3.org/Graphics/SVG/1.1/DTD/svg11.dtd" >
<svg xmlns="http://www.w3.org/2000/svg" xmlns:xlink="http://www.w3.org/1999/xlink" version="1.1" viewBox="-10 0 1034 1024">
  <g transform="matrix(1 0 0 -1 0 820)">
   <path fill="currentColor"
d="M123 412l-54 4q-4 1 -7 2v-47h2q3 3 22 3q25 1 131 2l-7 -346q-3 -49 -32 -83q21 -18 47 -46l68 109l64 95l-17 58l-57 -94q-6 -6 -34 -53l6 348q0 31 5 54q-48 -6 -71 -6h-66zM156 684q52 -43 71 -63q28 -30 48 -51q16 -19 32 -40q10 18 30 35q-13 15 -92 94l-58 57
q-9 -12 -31 -32zM528 28q0 -99 -2 -125q-3 -3 -3 -36q46 4 95 5l259 -1q15 0 38 -4v46q-31 -1 -63 -5h-286v120h347q28 0 63 -5v46q-9 -1 -16 -3q-13 -1 -47 -2h-347v105h283q30 0 63 -6v47q-21 -3 -60 -6l-281 1q-24 4 -48 5q1 -30 5 -60v-86h-89l8 104l1 364h445
q-12 -37 -36 -85q21 -3 41 -12l50 138q-27 -1 -53 -5h-234v79h157q24 0 63 -5v46q-31 -1 -63 -5h-157q0 42 3 51q1 13 10 28h-56q1 -33 5 -66v-128l-175 1q-19 3 -43 4q6 -60 6 -79l-1 -313q-3 -49 -10 -104q-10 -81 -41 -141q-19 -42 -55 -76q39 -10 53 -17q48 84 76 185
h95zM482 366q39 12 53 15q1 3 89 12v-49q0 -34 17 -52q12 -12 44 -15q33 -3 58 -4q28 0 67 4q42 3 64 25q12 13 31 59q-15 6 -29 17q-3 3 -21 14q0 -30 -3 -43q-4 -21 -20 -30q-15 -6 -50 -9l-90 2q-15 3 -19 5q-10 6 -11 37v43q114 19 131 19q18 1 37 2q-3 22 -5 44
q-27 -9 -54 -14l-109 -18q0 42 3 51q1 13 10 27h-56q0 -9 2 -13q3 -18 3 -69l-90 -12q-27 0 -56 -3q1 -22 4 -45v0z" />
  </g>

</svg>
