<?xml version="1.0" standalone="no"?>
<!DOCTYPE svg PUBLIC "-//W3C//DTD SVG 1.1//EN" "http://www.w3.org/Graphics/SVG/1.1/DTD/svg11.dtd" >
<svg xmlns="http://www.w3.org/2000/svg" xmlns:xlink="http://www.w3.org/1999/xlink" version="1.1" viewBox="-10 0 1034 1024">
  <g transform="matrix(1 0 0 -1 0 820)">
   <path fill="currentColor"
d="M103 441q-21 1 -47 2q-6 3 -13 3v-46h2q3 3 22 3q24 1 133 2l-6 -414q-1 -39 -23 -67q21 -15 49 -39q36 61 78 126q21 28 38 55l30 41l-21 55q-15 -28 -29 -51q-15 -25 -47 -75q-12 -19 -36 -53l5 411q0 19 5 52q-18 -1 -24 -2q-19 -3 -27 -3h-89zM318 568q7 12 19 21
q-45 45 -76 74l-73 68q-27 -27 -35 -31q39 -28 85 -72q48 -46 67 -74q6 7 13 14zM440 393v179h114q36 0 63 -5v46q-9 0 -17 -3l-160 -2q0 105 3 111q1 15 11 30h-57q4 -39 5 -66l-1 -279q-3 -10 -5 -17q-6 -9 -23 -20q21 -24 33 -47q31 27 81 58q66 37 130 70q-3 18 -5 31
q0 6 -1 16q-27 -18 -51 -32l-84 -49zM425 273q6 -42 6 -54l-1 -357l-5 -30h50q0 7 -3 19q0 15 -3 44h352l-4 -48q0 -3 -1 -6h49q-6 21 -6 65l1 321q0 21 5 46q-28 -1 -57 -5h-204q19 42 29 52q7 10 32 23q-12 6 -22 10q-22 9 -39 20q-13 -40 -24 -65q-9 -21 -21 -40
q-82 0 -102 2q-6 3 -32 3zM470 -70v138h350v-138h-350zM470 105v127h350v-127h-350zM742 706q0 12 2 28q0 16 11 37h-56q1 -31 5 -65l1 -282q3 -27 15 -43q15 -18 51 -21q27 -1 49 -3q42 0 76 6q39 9 59 44q9 21 23 70q-27 10 -52 28v-37q0 -22 -5 -40q-10 -28 -53 -31
q-28 -1 -50 -3q-15 0 -29 2q-24 3 -33 7q-13 9 -14 50v96l107 47q15 7 32 13q37 18 75 20q-19 18 -30 29q-6 6 -15 19q-69 -45 -169 -89v118z" />
  </g>

</svg>
