<?xml version="1.0" standalone="no"?>
<!DOCTYPE svg PUBLIC "-//W3C//DTD SVG 1.1//EN" "http://www.w3.org/Graphics/SVG/1.1/DTD/svg11.dtd" >
<svg xmlns="http://www.w3.org/2000/svg" xmlns:xlink="http://www.w3.org/1999/xlink" version="1.1" viewBox="-10 0 1010 1000">
   <path fill="currentColor"
d="M514 -12q102 0 101 12q0 2 -3 7q-15 20 -15 61h155q74 -1 111 -8v75q-2 0 -7 -1q-50 -7 -100 -7h-159v70h195q109 0 146 -6q-7 21 -21 65q-19 59 -28 90q-43 -13 -85 -10q22 -41 35 -80h-210v82l54 -6q5 -1 16 -2q74 -6 83 -10l6 63q-26 -2 -44 -2q-23 0 -57 4l-58 6v24
q-7 41 54 36h51q53 1 67 -16q15 -12 14 -66q31 25 80 32q-13 74 -39 90q-24 20 -110 19h-75q-77 1 -91 -10q-19 -9 -18 -53v-48l-40 4q-14 3 -36 7q-25 4 -40 7l-6 -69q27 2 76 -2l46 -4v-86h-141q3 289 -19 420q-19 129 -87 233q-38 -25 -97 -32q87 -76 113 -229
q13 -78 15 -188q1 -109 -9 -267q11 0 57 2q37 1 60 2h68q0 -118 -1 -150q-2 -43 -7 -59zM169 16q79 108 103 151l-87 44q-36 -92 -94 -157zM34 264q28 5 91 6q72 0 103 -6q-12 80 -12 121v284q35 -33 66 -93q13 56 35 79q-96 108 -138 165q-18 -37 -58 -80q19 -29 20 -89
v-307q-70 0 -107 8v-88zM859 544v77q-12 -6 -101 -6h-187v60h260q85 -1 106 -6v77q-23 -7 -106 -8h-260v68h195q45 -1 113 -8v79q-28 -7 -113 -8h-133q-129 3 -139 8q5 -26 6 -91v-48h-22q-47 0 -65 4v-75q22 6 67 6h20v-52q-3 -59 -6 -77q12 1 64 5q34 2 55 3h145
q28 0 87 -7q10 -1 14 -1z" />
</svg>
