<?xml version="1.0" standalone="no"?>
<!DOCTYPE svg PUBLIC "-//W3C//DTD SVG 1.1//EN" "http://www.w3.org/Graphics/SVG/1.1/DTD/svg11.dtd" >
<svg xmlns="http://www.w3.org/2000/svg" xmlns:xlink="http://www.w3.org/1999/xlink" version="1.1" viewBox="-10 0 1010 1000">
   <path fill="currentColor"
d="M554 -13q98 0 109 13q1 2 -3 9q-17 39 -17 110h170q78 -1 120 -7v81q-41 -9 -121 -10h-171v81h109q91 -1 131 -6q-5 49 -6 119v90q0 94 6 121q-31 -4 -113 -6h-76q83 152 266 202q-49 23 -87 79q-185 -110 -230 -265v184q1 77 6 127h-97q10 -39 12 -133v-174
q-79 153 -235 265q-24 -33 -81 -57q171 -87 254 -228h-56q-81 2 -109 6q6 -50 8 -119v-96q-1 -76 -6 -115q27 3 131 6h94v-81h-151q-75 2 -115 8v-79q47 5 119 7h147q1 -103 -8 -132zM161 26q44 62 97 165l-89 36q-23 -81 -90 -167zM30 302q18 5 97 8q80 -2 107 -8
q-7 21 -9 99q-1 19 -1 28v260q54 -58 78 -99q13 43 35 77q-102 97 -154 165q-21 -42 -52 -74q18 -26 18 -85v-294q-31 0 -94 4q-17 2 -25 2v-83zM641 324v198h159v-198h-159zM419 324v198h143v-198h-143zM708 358q64 23 72 35q0 1 -3 3q-24 24 -61 98q-31 -11 -61 -19
q33 -45 53 -117zM492 363q3 6 10 22q24 48 36 80l-62 18q-16 -56 -41 -102z" />
</svg>
