<?xml version="1.0" standalone="no"?>
<!DOCTYPE svg PUBLIC "-//W3C//DTD SVG 1.1//EN" "http://www.w3.org/Graphics/SVG/1.1/DTD/svg11.dtd" >
<svg xmlns="http://www.w3.org/2000/svg" xmlns:xlink="http://www.w3.org/1999/xlink" version="1.1" viewBox="-10 0 1034 1024">
  <g transform="matrix(1 0 0 -1 0 820)">
   <path fill="currentColor"
d="M123 432l-63 4q-3 0 -6 1v-46q1 1 5 1q1 1 3 1q3 3 64 3h80l-9 -438q-3 -21 -25 -43q21 -27 33 -42l1 -2q7 16 22 33l141 161q1 3 6 6q0 3 -5 14q-9 21 -13 42q-21 -36 -41 -62l-81 -90l6 405q3 36 4 43q1 9 2 14q-36 -1 -71 -5h-53zM139 696q51 -39 79 -63l69 -62
q10 16 26 34q-99 82 -146 125q-4 -9 -10 -15q-1 -3 -18 -19zM489 472q-21 21 -26 29q-6 -25 -27 -62q-18 -33 -63 -99q-34 -46 -57 -63q16 -9 46 -30q51 91 70 119q64 90 69 96q-6 6 -12 10zM354 680q54 -42 105 -108q13 21 24 26q0 3 4 4q-18 18 -52 55l-53 53
q-10 -9 -17 -21q0 -1 -3 -3zM430 223q1 -34 5 -70l-1 -262q-1 -7 -2 -27q-1 -3 -2 -16h47q-4 24 -5 45v24h361q0 -43 -5 -67h49q-4 33 -5 67l1 256q3 48 4 50q-60 -6 -70 -6l-332 1q-24 4 -45 5zM833 181v-228h-361v228h361zM694 591q-3 -60 -29 -123q-51 -106 -137 -149
q-34 -16 -86 -23l46 -46q75 37 120 81q81 70 107 169l15 -36q3 -10 12 -27q13 -24 33 -54q51 -73 155 -142l5 7q12 13 24 21q9 7 15 14q-10 6 -20 8q-36 12 -59 25q-55 36 -96 97q-49 73 -68 151q0 13 2 27h145q-19 -49 -65 -102q18 0 25 -3q9 0 13 -3q-3 0 11 -3
q6 18 17 36l46 81q6 13 26 35q-39 -1 -79 -5h-239q6 21 10 24q6 15 22 38q16 37 40 48q-12 3 -60 28q-6 -36 -26 -79q-18 -42 -39 -77q-16 -31 -31 -52q-27 -34 -53 -51q30 -6 58 -21l63 106h77z" />
  </g>

</svg>
