<?xml version="1.0" standalone="no"?>
<!DOCTYPE svg PUBLIC "-//W3C//DTD SVG 1.1//EN" "http://www.w3.org/Graphics/SVG/1.1/DTD/svg11.dtd" >
<svg xmlns="http://www.w3.org/2000/svg" xmlns:xlink="http://www.w3.org/1999/xlink" version="1.1" viewBox="-10 0 1034 1024">
  <g transform="matrix(1 0 0 -1 0 820)">
   <path fill="currentColor"
d="M118 434q-21 1 -47 2q-6 3 -13 3v-46h2q3 3 22 3q25 1 121 2l-11 -378q-3 -45 -28 -67q19 -15 49 -47q18 39 58 97q37 57 77 112q-12 18 -17 30q-3 6 -7 15q-21 -36 -41 -66l-53 -80l11 375l6 50q-27 -1 -53 -5h-76zM302 582q6 7 11 13q3 1 11 10q-60 60 -81 76l-56 52
q-16 -16 -34 -28q79 -63 139 -134q4 6 10 11zM436 397h467q30 0 62 -5v46q-9 -1 -16 -3q-15 -1 -46 -2h-152q48 75 52 77q25 33 55 41q-25 10 -60 31q-39 -75 -96 -149l-266 1q-15 3 -43 4q4 -60 5 -91l-2 -201q-4 -46 -11 -87q-15 -81 -62 -142q-21 -25 -52 -50
q31 -12 54 -23q34 52 56 91q31 64 44 125q1 7 4 30q6 84 7 120v187zM386 601q30 4 60 5l453 -1q15 0 36 -4v46q-7 0 -16 -3q-24 0 -46 -2l-452 1q-4 0 -22 1q-6 3 -13 3v-46zM953 79q-15 12 -31 26q-82 -97 -235 -163q-121 -54 -238 -56q21 -27 35 -47q85 24 150 46
q57 21 109 44q24 10 69 38l67 44q49 36 53 37q18 9 45 13zM591 464q6 6 10 8q-37 48 -93 109q-4 -4 -8 -10q-1 -1 -4 -3q-18 -12 -21 -15q49 -49 93 -108q1 0 3 2q3 0 8 7q6 6 12 10zM799 309q18 10 46 14q-21 21 -40 44q-58 -51 -154 -100q-60 -30 -103 -46
q-33 -12 -65 -12q18 -22 34 -50q85 39 137 66q45 24 98 56q22 15 47 28zM504 45q18 -25 33 -48q87 39 157 79q69 39 146 94q25 18 55 25q-21 18 -45 43q-34 -36 -75 -67q-75 -54 -163 -95q-54 -22 -108 -31zM567 733q34 -21 72 -49q19 -15 42 -34q6 12 17 22q1 0 4 4t7 8
q-24 18 -39 29q-27 18 -53 39q-15 9 -38 25q-15 -19 -27 -32z" />
  </g>

</svg>
