<?xml version="1.0" standalone="no"?>
<!DOCTYPE svg PUBLIC "-//W3C//DTD SVG 1.1//EN" "http://www.w3.org/Graphics/SVG/1.1/DTD/svg11.dtd" >
<svg xmlns="http://www.w3.org/2000/svg" xmlns:xlink="http://www.w3.org/1999/xlink" version="1.1" viewBox="-10 0 1010 1000">
   <path fill="currentColor"
d="M187 18q57 79 93 165l-93 42q-12 -70 -86 -173zM329 40q21 4 98 4h61q66 -1 89 -4q-4 25 -4 75v78q0 53 8 85q-19 -4 -91 -4h-63q-77 0 -98 6q6 -33 6 -87v-74q0 -55 -6 -79zM625 36q26 3 99 6h70q69 -3 91 -6q-2 12 -3 33q-1 16 -1 60v60q0 66 4 91q-30 -6 -99 -6h-52
q-53 0 -72 1q-23 1 -35 3q3 -43 4 -95v-64q-3 -62 -6 -83zM403 108v103h103v-103h-103zM702 106v105h108v-105h-108zM38 270q38 8 93 8q68 -2 99 -8q-10 56 -10 139v278q58 -54 97 -113q11 56 36 93q-124 111 -172 169q-35 -49 -64 -70q24 -28 24 -95v-319q-67 0 -103 6v-88
zM355 320q57 6 131 6h240q93 -1 133 -6v83q-39 -9 -127 -8h-240q-91 0 -137 6v-81zM290 451q34 6 129 6h394q81 -1 125 -6v81q-34 -7 -128 -8h-245l-19 74h190q88 -1 125 -6q-7 32 -18 84q-24 126 -37 144q-31 52 -185 59q1 -55 -38 -107q95 25 139 0q19 -5 38 -107h-171
q-113 2 -149 8q19 -28 44 -149h-67q-85 0 -127 8v-81z" />
</svg>
