<?xml version="1.0" standalone="no"?>
<!DOCTYPE svg PUBLIC "-//W3C//DTD SVG 1.1//EN" "http://www.w3.org/Graphics/SVG/1.1/DTD/svg11.dtd" >
<svg xmlns="http://www.w3.org/2000/svg" xmlns:xlink="http://www.w3.org/1999/xlink" version="1.1" viewBox="-10 0 1034 1024">
  <g transform="matrix(1 0 0 -1 0 820)">
   <path fill="currentColor"
d="M116 422q-24 1 -47 3q-6 3 -13 3v-47l49 5h92l-10 -407q-1 -42 -29 -66q21 -24 39 -54q57 76 102 131l51 62q13 15 27 34q-9 27 -16 53q-40 -58 -71 -98q-27 -34 -65 -76l11 413l6 50q-6 0 -9 -1q-16 -1 -15 -2q-21 -3 -67 -3h-35zM298 585q3 3 10 9q-30 40 -69 86
l-62 71q-10 -10 -35 -30q79 -76 130 -159q0 3 4 4q6 7 22 19zM971 283q-7 0 -16 -3l-218 -2l-389 2q-6 3 -13 3v-46q30 4 60 5h112q-6 -24 -10 -50l-21 -89q54 6 76 6h270q-4 -24 -7 -49q-9 -75 -17 -103q-15 -45 -74 -52q-30 -1 -56 -3q-27 0 -60 6q4 -7 9 -16
q9 -21 15 -34q10 1 21 1q90 4 126 18q34 13 51 50q7 21 12 43q6 31 13 91l8 52q3 15 8 36q-30 -1 -59 -5h-288q10 49 22 98h363q24 0 62 -5v46zM549 502q13 0 52 -6q-4 45 -5 88l1 109l4 40q-51 -4 -78 -5l-118 1q-15 3 -42 4q6 -54 6 -82q0 -94 -2 -115q-3 -12 -4 -40
q54 6 83 6h103zM405 538v154h153v-154h-153zM899 424q-7 0 -16 -3l-202 -2l-279 2q-6 3 -13 3v-46q3 1 7 1q7 3 36 4l432 -1q15 0 35 -4v46zM844 506q25 -1 52 -5q-4 48 -5 90q0 102 2 113q0 15 3 33l-86 -5l-108 1q-15 3 -39 4q1 -27 5 -54l-1 -141q-3 -12 -4 -41
q18 1 26 2q21 3 28 3h127zM705 542v154h147v-154h-147z" />
  </g>

</svg>
