<?xml version="1.0" standalone="no"?>
<!DOCTYPE svg PUBLIC "-//W3C//DTD SVG 1.1//EN" "http://www.w3.org/Graphics/SVG/1.1/DTD/svg11.dtd" >
<svg xmlns="http://www.w3.org/2000/svg" xmlns:xlink="http://www.w3.org/1999/xlink" version="1.1" viewBox="-10 0 1010 1000">
   <path fill="currentColor"
d="M520 -19q85 11 97 27q-1 4 -8 9q-26 20 -61 67h121q61 -1 129 -8q-35 58 -102 145h88q58 -1 95 -4q-6 24 -6 85v58q1 47 6 79q-24 -6 -89 -6h-82v59q0 33 10 41q9 10 44 9h42q45 1 56 -16q13 -13 15 -75q29 28 81 45q-18 74 -41 94q-18 20 -78 18h-107q-53 1 -70 -15
q-19 -15 -19 -59v-101h-32q-59 120 -250 206q-23 -35 -69 -61q173 -42 242 -145h-105l2 40h-78q3 -41 4 -96v-69q0 -47 -1 -63q-1 -20 -3 -30q32 5 86 6h180q30 -37 60 -82h-171q-13 16 -51 54q-16 15 -20 20q-57 -18 -96 -24q123 -63 181 -208zM202 18q28 31 106 159
l-80 40q-46 -107 -101 -163zM577 280h-150v93h133q12 -47 17 -93zM802 280h-157q-6 55 -18 93h175v-93zM50 286q31 6 93 6q75 -2 97 -6q-6 31 -6 117v314q47 -44 81 -98q12 52 34 84q-98 91 -149 151q-23 -33 -59 -64q18 -30 18 -95v-333q-67 1 -109 7v-83zM546 586
q123 48 230 101l-52 61q-76 -51 -230 -107zM468 705q200 77 332 137l-56 73q-168 -105 -325 -145z" />
</svg>
