<?xml version="1.0" standalone="no"?>
<!DOCTYPE svg PUBLIC "-//W3C//DTD SVG 1.1//EN" "http://www.w3.org/Graphics/SVG/1.1/DTD/svg11.dtd" >
<svg xmlns="http://www.w3.org/2000/svg" xmlns:xlink="http://www.w3.org/1999/xlink" version="1.1" viewBox="-10 0 1034 1024">
  <g transform="matrix(1 0 0 -1 0 820)">
   <path fill="currentColor"
d="M426 399q-45 4 -66 5v-46q39 4 66 5l535 -3l2 -1q3 0 7 -1v46q-33 -1 -65 -5h-148q48 87 59 101q21 34 49 47q-36 15 -59 31q-25 -57 -48 -99q-21 -39 -48 -80h-284zM406 592q49 4 66 5l439 -3q6 0 9 -2v46q-33 -1 -66 -5l-434 3q-6 0 -14 2v-46zM459 280q1 -33 5 -69
q0 -339 -3 -361q-1 -1 -1 -3q-1 -3 -1 -7h47q-1 3 -5 63v25h341q0 -45 -3 -65q0 -6 -1 -9t-1 -6h48q-3 33 -5 66l1 316l4 50q-33 -1 -68 -5l-308 1q-19 3 -50 4zM501 -36v124h341v-124h-341zM501 124v115h341v-115h-341zM586 764q-9 -15 -19 -28q-1 -1 -6 -8q63 -36 87 -54
q12 -7 47 -37q13 18 29 36q-27 21 -68 45q-60 40 -70 46zM121 420q-33 3 -65 5v-46q49 4 83 5h74l-5 -415q-1 -27 -19 -54q27 -13 51 -35q12 13 73 95q6 10 14 17q6 6 13 16q10 15 36 41q9 12 20 24l-18 48l-68 -87q-3 -3 -5 -7q-12 -15 -26 -32q-3 -6 -10 -13
q-9 -9 -20 -26q0 399 3 416q1 27 5 53q-33 -1 -66 -5h-70zM323 598q-9 7 -16 15l-69 58l-63 53q-13 -18 -29 -34q100 -75 157 -135q9 15 29 35q-4 4 -9 8zM515 571q-15 -10 -36 -21q9 -12 19 -23q49 -61 85 -115q15 13 35 25l-60 78q-13 19 -23 33q-7 9 -20 23v0z" />
  </g>

</svg>
