<?xml version="1.0" standalone="no"?>
<!DOCTYPE svg PUBLIC "-//W3C//DTD SVG 1.1//EN" "http://www.w3.org/Graphics/SVG/1.1/DTD/svg11.dtd" >
<svg xmlns="http://www.w3.org/2000/svg" xmlns:xlink="http://www.w3.org/1999/xlink" version="1.1" viewBox="-10 0 1010 1000">
   <path fill="currentColor"
d="M575 6q72 90 102 131l-70 44q-45 -84 -99 -141zM758 28q17 10 47 27q46 26 40 27q0 1 -8 7q-25 17 -33 32q-110 167 -250 268q5 3 17 3q9 1 44 1h68q65 9 81 -91q40 42 75 56q-25 106 -101 105h-184q-56 -3 -72 -32q-31 21 -143 69q-15 -33 -71 -63q106 -16 200 -72v-176
q0 -40 -4 -74q12 2 35 6q58 10 57 14q0 2 -4 6q-12 15 -12 36v143q152 -116 218 -292zM179 32q82 110 109 161l-78 44q-55 -109 -105 -165zM345 157q15 3 39 7q47 8 45 11q1 2 -3 6q-13 15 -17 42q-19 95 -34 146q-36 -13 -85 -11q51 -101 55 -201zM849 185q54 77 103 153
l-75 39q-45 -84 -99 -154zM40 306q18 6 97 6q77 0 97 -6q-8 26 -8 149v250q11 -14 36 -50q24 -35 38 -53q12 56 37 81q-85 86 -147 173q-13 -28 -59 -64q20 -33 20 -97v-310q-82 0 -111 6v-85zM371 510q22 6 55 8q32 2 106 2h162q150 0 177 -8q-8 32 -8 145v131q66 0 91 -8
v80q-17 -5 -56 -6q-38 -2 -124 -2h-322q-130 0 -174 10v-82q18 8 101 8v-127q1 -109 -8 -151zM522 584h-72v204h72v-204zM581 584v204h74v-204h-74zM714 584v204h78v-204h-78z" />
</svg>
