<?xml version="1.0" standalone="no"?>
<!DOCTYPE svg PUBLIC "-//W3C//DTD SVG 1.1//EN" "http://www.w3.org/Graphics/SVG/1.1/DTD/svg11.dtd" >
<svg xmlns="http://www.w3.org/2000/svg" xmlns:xlink="http://www.w3.org/1999/xlink" version="1.1" viewBox="-10 0 1010 1000">
   <path fill="currentColor"
d="M581 -10q12 1 34 4q64 5 64 12q1 3 -5 9q-15 17 -15 39v171h111q120 0 157 -8q-8 29 -8 93q-1 65 6 79h-86q8 -17 8 -101h-458q0 89 8 107h-91q7 -13 7 -85q0 -68 -5 -95q32 11 166 10h109v-159q0 -18 -1 -49q-1 -19 -1 -27zM196 18q63 107 88 165l-88 32
q-16 -65 -79 -169zM440 22q6 8 17 24q55 79 75 113l-76 32q-21 -55 -83 -131zM804 30q92 38 87 48q-1 3 -7 4q-19 5 -33 24q-2 3 -6 8q-54 71 -73 91q-19 -20 -66 -36q65 -62 98 -139zM248 284q-10 40 -10 147v260q56 -59 93 -111q17 46 38 77q-116 112 -171 179
q-29 -41 -59 -68q23 -29 22 -85v-320q-104 0 -125 10v-89q25 8 105 8q82 1 107 -8zM407 367q18 5 57 6q18 1 44 2h67h84q126 0 160 -8q-7 30 -7 121q-1 104 7 122q-16 -8 -105 -8v166q-1 39 10 45q7 8 60 7q44 1 59 -21q18 -22 22 -82q35 28 81 43q-26 132 -107 129h-111
q-60 1 -73 -14q-17 -14 -16 -71v-202h-70q-6 138 -52 195q-38 56 -178 110q-23 -40 -69 -73q234 -26 230 -232q-69 0 -93 8q4 -11 5 -37q1 -12 1 -31v-57q0 -56 -1 -76q-1 -25 -5 -42zM484 435v107h256v-107h-256z" />
</svg>
