<?xml version="1.0" standalone="no"?>
<!DOCTYPE svg PUBLIC "-//W3C//DTD SVG 1.1//EN" "http://www.w3.org/Graphics/SVG/1.1/DTD/svg11.dtd" >
<svg xmlns="http://www.w3.org/2000/svg" xmlns:xlink="http://www.w3.org/1999/xlink" version="1.1" viewBox="-10 0 1010 1000">
   <path fill="currentColor"
d="M792 -10q94 5 99 16q0 4 -6 15q-14 25 -14 51v151q56 -3 87 -6v83q-23 -5 -87 -4v526q2 50 -24 63q-26 17 -119 22q1 -51 -32 -99q76 13 89 8q17 -2 15 -32v-488q-97 0 -140 3q-11 1 -17 1v-85q7 0 33 2q72 4 124 4v-145q-1 -55 -8 -86zM415 -6q109 6 105 16q0 4 -7 14
q-25 35 -41 89h89q30 0 62 -1q-4 60 -4 126v600q1 35 -27 47q-26 14 -106 18q0 -44 -32 -89q96 20 92 -10v-206q-69 129 -215 246q-24 -30 -81 -52q154 -84 224 -202q-139 0 -192 6v-72l51 4v-288q0 -74 -4 -128h30q29 1 46 1q10 -46 10 -119zM187 30q35 68 73 165l-91 28
q-20 -80 -68 -163zM401 173v81h145v-81h-145zM546 310h-145v81h145v-81zM724 389q37 89 42 185l-81 12q-1 -122 -30 -189zM401 447v79h145v-79h-145zM40 282q35 3 119 4q47 -1 77 -4q0 1 -1 3q-15 53 -15 98v314l52 -82q14 49 38 68q-92 100 -133 163q-19 -37 -48 -70
q23 -26 22 -87v-335q-52 0 -68 1q-21 0 -43 3v-76z" />
</svg>
