<?xml version="1.0" standalone="no"?>
<!DOCTYPE svg PUBLIC "-//W3C//DTD SVG 1.1//EN" "http://www.w3.org/Graphics/SVG/1.1/DTD/svg11.dtd" >
<svg xmlns="http://www.w3.org/2000/svg" xmlns:xlink="http://www.w3.org/1999/xlink" version="1.1" viewBox="-10 0 1034 1024">
  <g transform="matrix(1 0 0 -1 0 820)">
   <path fill="currentColor"
d="M237 455q-54 -6 -78 -6q-63 0 -82 2q-3 1 -15 2q-3 1 -13 2v-47h2q4 4 31 5l112 1l-9 -386q-1 -46 -29 -74q3 -3 42 -33q6 -6 12 -13q15 39 58 115l79 131q-7 16 -15 30q-1 6 -6 15q-28 -54 -52 -92l-50 -82q6 382 9 391q0 15 3 21q0 9 1 18zM116 698q93 -75 136 -135
q16 18 33 34l-19 20q-36 37 -61 61l-59 52q-6 -7 -30 -32zM284 -96q16 -9 32 -24q69 58 113 111q42 52 100 149l-1 -283q-1 -6 -4 -26h46l-4 36l-1 319h123v-294q-1 -22 -2 -47q-1 -4 -4 -13h47q-6 24 -6 48v262q52 -81 88 -121q42 -45 112 -102q12 -10 25 -21q0 1 4 6
q27 36 33 40q0 1 2 1q-31 12 -75 41q-15 9 -52 44q-36 36 -45 48q-51 70 -71 108q99 0 112 -2q15 0 30 -3q-4 19 -5 50v104h19q28 0 63 -5v43q-27 -3 -59 -6h-23l1 103l4 38q-27 -1 -53 -5h-110v93l185 -1l35 -4v43q-33 -4 -64 -5h-158q54 67 73 84q15 13 48 21
q-43 22 -66 37q-30 -49 -105 -142h-112l30 28q-21 18 -39 35q-18 18 -85 74q-6 -4 -10 -11q-12 -12 -19 -21q9 -7 19 -15q36 -28 58 -48q18 -18 39 -42l-190 1l-25 4v-43q6 0 58 5h134v-93q-114 0 -129 2q-6 3 -18 3v-43h3q3 3 22 3q24 1 70 2h52v-103l-197 3q-9 3 -14 3
v-43q42 6 70 5h141v-116l-106 1q-6 0 -26 1q-6 3 -13 3v-43l49 5h72q-46 -97 -105 -166q-67 -78 -135 -104q9 -6 19 -12zM688 219h-123v116h123v-116zM565 367v103h123v-103h-123zM688 503h-123v93h123v-93zM723 219v116h122v-116h-122zM723 367v103h122v-103h-122z" />
  </g>

</svg>
