<?xml version="1.0" standalone="no"?>
<!DOCTYPE svg PUBLIC "-//W3C//DTD SVG 1.1//EN" "http://www.w3.org/Graphics/SVG/1.1/DTD/svg11.dtd" >
<svg xmlns="http://www.w3.org/2000/svg" xmlns:xlink="http://www.w3.org/1999/xlink" version="1.1" viewBox="-10 0 1034 1024">
  <g transform="matrix(1 0 0 -1 0 820)">
   <path fill="currentColor"
d="M390 289q33 13 48 22q13 6 17 8q39 24 58 33v-8q0 -28 13 -44q19 -18 53 -23q30 -4 79 -5q55 0 93 8q40 12 59 59q7 18 21 63q-24 10 -51 26q-3 -42 -7 -62q-6 -39 -39 -49q-15 0 -95 -7l-50 7q-37 6 -38 38v18q141 99 239 248q10 15 21 31q9 15 20 29q16 21 37 28
q-4 0 -20 10l-38 26q-27 -69 -106 -176q-63 -79 -153 -147v170q0 40 12 67h-55l4 -38l1 -224q-63 -36 -102 -53q-42 -16 -88 -27q24 -15 44 -40q10 6 23 12zM326 -135q34 4 66 5q555 0 564 -2q6 0 16 -3v46q-33 -1 -65 -5h-15l1 246l4 51q-36 -1 -71 -5l-365 1q-19 3 -54 4
q1 -31 3 -36q3 -27 3 -36v-225l-51 1q-31 3 -36 4v-46zM449 -94v256h114v-256h-114zM601 -94v256h106v-256h-106zM745 -94v256h109v-256h-109zM377 404q66 153 70 156q4 7 19 20q-3 0 -13 4q-22 4 -29 9q-3 1 -10 4l-1 1q-12 -39 -31 -86q-28 -63 -61 -108q21 -3 41 -8
q4 0 9 -2q3 6 6 10zM951 424l-26 38l-42 59q-15 24 -43 63q-15 -15 -37 -29q21 -22 62 -79q15 -22 26 -41l30 -53q15 16 38 30zM108 437q-33 3 -65 5v-46q49 4 85 5h80l-6 -437q-1 -40 -18 -58q21 -13 43 -37q15 27 55 78q25 33 53 64l29 36q9 9 24 23q-13 25 -25 51
q-30 -46 -57 -83l-65 -82l5 416q1 18 3 36q1 18 3 34q-33 -1 -66 -5h-78zM145 700q27 -18 48 -35l78 -68l31 37l-149 112q-9 -18 -26 -34zM593 744q-15 15 -36 34q-15 -15 -31 -26q90 -81 123 -130q15 18 31 33q-7 9 -22 24z" />
  </g>

</svg>
