<?xml version="1.0" standalone="no"?>
<!DOCTYPE svg PUBLIC "-//W3C//DTD SVG 1.1//EN" "http://www.w3.org/Graphics/SVG/1.1/DTD/svg11.dtd" >
<svg xmlns="http://www.w3.org/2000/svg" xmlns:xlink="http://www.w3.org/1999/xlink" version="1.1" viewBox="-10 0 1034 1024">
  <g transform="matrix(1 0 0 -1 0 820)">
   <path fill="currentColor"
d="M234 448l-45 -4l-118 2q-6 3 -13 3v-46h2q3 3 22 3q25 1 117 2l-11 -394q-3 -48 -31 -76q28 -28 43 -48l54 68l95 106q-4 24 -11 51q-27 -33 -51 -62l-60 -65l10 409q0 19 5 52q-4 0 -8 -1zM188 748q-6 -3 -9 -10q-6 -7 -20 -22q82 -67 132 -136q13 16 32 32
q-12 15 -79 83l-35 33q-10 10 -21 20zM632 219l-260 1q-9 1 -29 2q-3 1 -13 2v-46q16 3 60 5h242v-235l-180 -9v104q0 12 2 28q1 15 11 37h-57q0 -3 5 -37l-1 -140l-4 -32v-2q39 4 48 5q48 6 73 6l320 20l-4 -75q-1 -1 -1 -4h49q-4 27 -6 51l1 173q0 19 7 32q1 7 7 15h-58
q4 -66 5 -83v-74l-179 -12v232h232q30 0 62 -5v46q-30 -1 -62 -5h-232v128h164q22 0 63 -5v46q-39 -4 -63 -5h-342q18 24 43 34q-37 15 -58 27q-12 -30 -26 -53q-12 -21 -28 -45q-42 -57 -79 -81q30 -15 46 -26q36 45 79 108h163v-128zM381 691q12 -27 16 -43q96 6 173 14
q78 9 176 25q39 6 79 15l54 4q-24 22 -34 35q-3 3 -11 12q-30 -12 -58 -22q-30 -7 -79 -16q-150 -27 -251 -28q-27 0 -65 4zM388 583q36 -36 90 -119q19 16 31 24q-36 58 -90 116q-9 -7 -18 -13q-7 -3 -13 -8zM612 627q-3 0 -18 -11q-3 -3 -11 -8q42 -54 71 -128q12 6 32 18
q1 0 4 3q-6 9 -12 22l-26 49q-12 21 -36 58q-3 -1 -4 -3zM736 454q36 -21 40 -21q81 105 89 118q31 48 66 62q-30 15 -61 34q-48 -111 -134 -193z" />
  </g>

</svg>
