<?xml version="1.0" standalone="no"?>
<!DOCTYPE svg PUBLIC "-//W3C//DTD SVG 1.1//EN" "http://www.w3.org/Graphics/SVG/1.1/DTD/svg11.dtd" >
<svg xmlns="http://www.w3.org/2000/svg" xmlns:xlink="http://www.w3.org/1999/xlink" version="1.1" viewBox="-10 0 1010 1000">
   <path fill="currentColor"
d="M839 -10q56 68 68 104q-1 3 -6 1q-26 -7 -66 1q-128 25 -484 61q-6 -46 -43 -87q363 3 531 -80zM202 44q57 82 98 175l-96 35q-39 -110 -87 -176zM804 145q78 19 103 34q1 5 -10 12q-17 11 -24 24q-6 10 -26 50q-36 69 -49 91q-24 -12 -72 -30q62 -97 78 -181zM633 167
q23 58 41 132q2 9 3 13l-92 12q-1 -80 -29 -147zM415 179q8 10 22 27q52 62 63 88l-75 34q-28 -63 -84 -111zM234 308q-10 31 -10 135v278q38 -37 64 -74q14 46 41 74q-110 86 -152 133q-14 -30 -46 -66q22 -24 22 -85v-318q-90 0 -127 10v-89q37 10 105 10q73 -1 103 -8z
M444 332q74 18 90 28q1 2 -8 8q-20 13 -30 27h252q97 0 139 -14v92q-40 -10 -131 -10h-97v95h145q119 0 136 -8v85q-13 -6 -42 -8q-26 -2 -90 -2h-149v171h135l-2 -127q99 10 101 16q2 2 -4 9q-12 18 -12 33v55q0 95 8 125h-95q6 -12 6 -44h-304q-79 0 -127 12q9 -30 8 -111
q0 -76 -6 -93q86 1 97 10q1 1 -3 6q-11 17 -11 32v77h131v-167h-144q-85 1 -135 12v-89q30 9 138 10h141v-99h-133q-43 49 -55 69q-1 -1 -5 -3q-46 -24 -71 -31q92 -80 127 -166z" />
</svg>
