<?xml version="1.0" standalone="no"?>
<!DOCTYPE svg PUBLIC "-//W3C//DTD SVG 1.1//EN" "http://www.w3.org/Graphics/SVG/1.1/DTD/svg11.dtd" >
<svg xmlns="http://www.w3.org/2000/svg" xmlns:xlink="http://www.w3.org/1999/xlink" version="1.1" viewBox="-10 0 1010 1000">
   <path fill="currentColor"
d="M161 8q5 9 16 26q58 93 73 127l-81 38q-20 -67 -86 -155zM567 26v72q-2 0 -7 -1q-42 -5 -62 -5q-5 72 -14 111q52 0 79 -6v71q-3 0 -12 -1q-47 -7 -79 -7l-12 30q11 1 29 1q42 0 41 7q0 1 -2 5q-16 21 -14 84q46 -25 79 -59q-3 21 12 69q-78 44 -143 95q-11 -33 -31 -55
q25 -17 27 -46q0 -67 -6 -81q-67 114 -148 186q-25 -21 -74 -45q130 -77 173 -191q-65 0 -123 10q22 -95 18 -153q47 5 77 14q0 6 -5 14q-14 20 -19 60h68q9 -50 12 -113h-56q-64 0 -87 6v-70q24 3 95 4h91q68 0 93 -6zM589 24q27 3 109 6h115q74 0 108 -6v74q-11 -2 -50 -4
q-22 -1 -28 -2h-37q-1 11 -1 7q-7 78 -11 102h47q50 0 96 -6v73q-34 -8 -98 -8h-55l-10 40q27 0 67 10q0 2 -5 10q-13 20 -13 34v35q-3 38 32 34q25 0 34 -13q9 -10 14 -52q31 23 65 39q-13 57 -37 74q-20 18 -80 16q-61 -1 -75 -11q-17 -9 -16 -45v-46q0 -30 -4 -47
q-43 84 -123 152q-36 -22 -75 -35q120 -69 160 -195h-59l-70 4q15 -60 16 -151q48 5 78 14q1 4 -4 11q-13 24 -22 63h71q9 -57 10 -111v0h-40q-58 0 -76 1q-23 1 -33 3v-70zM224 284q-10 42 -14 143v274q63 -63 107 -117q18 45 38 73q-123 118 -174 181q-22 -34 -62 -68
q20 -25 20 -87v-323q-71 0 -115 7v-83q35 6 93 6q66 0 107 -6zM843 514q-6 33 -6 115v145q1 65 8 127h-89q6 -18 6 -59h-312q1 38 4 59h-89q10 -42 10 -121v-163q-2 -73 -8 -103q31 5 165 8h174q86 1 137 -8zM450 586v71h312v-71h-312zM762 709h-312v73h312v-73z" />
</svg>
