<?xml version="1.0" standalone="no"?>
<!DOCTYPE svg PUBLIC "-//W3C//DTD SVG 1.1//EN" "http://www.w3.org/Graphics/SVG/1.1/DTD/svg11.dtd" >
<svg xmlns="http://www.w3.org/2000/svg" xmlns:xlink="http://www.w3.org/1999/xlink" version="1.1" viewBox="-10 0 1034 1024">
  <g transform="matrix(1 0 0 -1 0 820)">
   <path fill="currentColor"
d="M121 409q-33 3 -47 3q-6 3 -13 3v-48q3 0 5 2l2 1q67 3 102 4h33l-9 -414q-3 -45 -27 -68q21 -21 46 -49l32 53l37 56l93 136q-15 48 -16 58q-30 -64 -127 -195l9 416q0 21 7 48q-51 -6 -66 -6h-61zM264 557q9 12 21 24l-65 63l-43 39q-18 15 -23 21q-24 -30 -28 -31
q69 -52 128 -127q4 6 10 11zM552 367l-185 3q-12 3 -18 3v-47q3 3 38 5l516 1q30 0 63 -6v47q-31 -6 -63 -6h-160v233h130q27 0 62 -5v46q-66 -4 -100 -5h-104q6 7 16 18q6 10 13 18q18 21 26 33q21 21 28 25q10 7 31 14q-36 15 -61 33q-19 -37 -39 -67q-21 -30 -60 -74
h-113q18 24 22 32q-10 10 -108 94q-15 -13 -29 -28q36 -25 58 -45q24 -22 52 -53l-188 4q-4 1 -7 1v-46q49 4 76 5h104v-233zM589 367v233h115v-232zM481 433q4 4 9 8q-12 16 -29 37q-21 27 -69 80q-12 -12 -32 -27q60 -54 98 -117q1 0 3 3q3 1 7 6q6 6 13 10zM494 -170
q-6 15 -7 66h339q-1 -48 -5 -69h48q-4 21 -5 69l1 326q0 12 3 19q0 9 1 18q-27 -1 -56 -5l-327 1q-15 3 -41 4q6 -51 6 -74l-1 -316l-3 -25q0 1 -2 -14h49zM487 -68v134h339v-134h-339zM487 102v116h339v-116h-339zM882 501q18 25 41 36q-27 12 -54 31q-16 -40 -44 -85
q-19 -27 -40 -49q18 -7 29 -15l8 -5q6 9 11 17q9 12 19 28z" />
  </g>

</svg>
