<?xml version="1.0" standalone="no"?>
<!DOCTYPE svg PUBLIC "-//W3C//DTD SVG 1.1//EN" "http://www.w3.org/Graphics/SVG/1.1/DTD/svg11.dtd" >
<svg xmlns="http://www.w3.org/2000/svg" xmlns:xlink="http://www.w3.org/1999/xlink" version="1.1" viewBox="-10 0 1010 1000">
   <path fill="currentColor"
d="M704 -10q88 20 88 36q-1 4 -7 10q-27 26 -61 83q122 -1 185 -9v81q-37 -8 -183 -8v206h74q78 0 144 -10v82q-70 -9 -144 -10h-365q-78 0 -151 8v-78q31 8 143 8h73v-204q-129 1 -175 10v-85q49 8 179 9q-21 -57 -52 -97l60 -26q6 9 18 25q36 54 43 61l-57 37h137
q29 -59 51 -129zM175 34q45 46 105 139l-80 36q-37 -72 -95 -129zM567 183v206h92v-206h-92zM812 221q31 12 68 30q6 3 9 5q-30 34 -70 104q-5 -2 -13 -6q-39 -17 -56 -24q30 -33 62 -109zM399 223q21 32 49 82q8 15 12 21l-69 30q-3 -7 -13 -27q-29 -64 -39 -75zM38 298
q24 8 89 8q55 0 99 -8q-7 41 -8 111v316q43 -44 86 -102q13 49 43 78q-135 119 -172 172q-21 -32 -58 -67q24 -24 24 -85v-344q-71 0 -103 8v-87zM841 502q-8 50 -8 139v111q1 99 10 153h-91q6 -19 6 -65h-286q0 46 6 61h-91q5 -17 7 -45q0 -13 1 -32v-54v-129
q0 -91 -8 -137q33 3 167 6h129q120 0 158 -8zM472 574v75h286v-75h-286zM472 709v71h286v-71h-286z" />
</svg>
