<?xml version="1.0" standalone="no"?>
<!DOCTYPE svg PUBLIC "-//W3C//DTD SVG 1.1//EN" "http://www.w3.org/Graphics/SVG/1.1/DTD/svg11.dtd" >
<svg xmlns="http://www.w3.org/2000/svg" xmlns:xlink="http://www.w3.org/1999/xlink" version="1.1" viewBox="-10 0 1034 1024">
  <g transform="matrix(1 0 0 -1 0 820)">
   <path fill="currentColor"
d="M110 439l-60 4v-45q30 4 60 5h86l-4 -407q-1 -45 -26 -68q18 -18 43 -49q115 168 127 180q7 10 16 20l-10 61q-37 -58 -62 -93q-21 -30 -50 -67l4 418q0 19 6 45q-72 -3 -105 -4h-25zM308 585l-144 131q-21 -21 -30 -29l32 -25l42 -37q34 -31 69 -73q12 13 31 33z
M578 690q1 27 5 53q-54 -6 -65 -6l-163 1q-9 1 -30 2q-6 3 -13 3v-48q3 0 5 2q45 4 67 5h155v-164q-51 -19 -93 -33l-63 -21q-43 -12 -71 -16q12 -24 23 -48q48 31 171 69q18 9 33 12q-1 -33 -4 -41h44q-45 -73 -161 -160q-75 -52 -140 -69q21 -15 40 -39q93 54 149 98
q52 43 132 126q94 -85 198 -139q34 -16 67 -30q36 -13 97 -34q24 31 34 47q-54 4 -101 19q-75 24 -147 67q-27 16 -54 36q-27 21 -69 57q3 6 12 14q-1 0 -4 1l-1 1q-6 0 -12 2q-15 3 -30 8q-3 0 -6 2q-4 19 -5 55v168zM332 631q33 -15 58 -29q25 -15 62 -40q12 25 18 32
l-59 36l-62 34q-6 -16 -17 -33zM895 121q-28 18 -56 38q-15 -19 -30 -35q-12 -13 -34 -32q-81 -73 -162 -119q-75 -42 -138 -61q-63 -16 -138 -19l30 -49q111 24 205 64q103 46 229 153q39 34 50 42q16 10 44 18zM376 143l42 -36q6 3 13 9q45 31 75 55t80 73q39 36 72 47
q-33 21 -49 38q-21 -28 -53 -61q-28 -28 -63 -57q-63 -51 -117 -68zM406 18q9 -6 21 -20q7 -6 19 -20q40 21 65 37q19 12 38 25q87 63 135 109q31 30 39 33q9 6 32 13q-22 15 -51 36q-87 -108 -196 -170q-51 -28 -102 -43zM890 746q-22 -1 -45 -5l-199 3q-6 1 -14 2v-46
q3 1 49 5h175v-152q-126 -43 -213 -59q3 -6 7 -13q3 -3 4 -6t4 -8q3 -9 9 -18q45 22 87 36q28 10 57 19l45 15q-1 -33 -3 -66q-1 -3 -2 -9h48q-3 6 -4 31l-1 218q0 12 5 53h-9zM643 637q100 -57 106 -61q7 15 18 30q-6 3 -17 12q-16 10 -32 17l-56 33q-4 -9 -19 -31v0z" />
  </g>

</svg>
