<?xml version="1.0" standalone="no"?>
<!DOCTYPE svg PUBLIC "-//W3C//DTD SVG 1.1//EN" "http://www.w3.org/Graphics/SVG/1.1/DTD/svg11.dtd" >
<svg xmlns="http://www.w3.org/2000/svg" xmlns:xlink="http://www.w3.org/1999/xlink" version="1.1" viewBox="-10 0 1034 1024">
  <g transform="matrix(1 0 0 -1 0 820)">
   <path fill="currentColor"
d="M218 438q-55 -3 -84 -4l-58 2q-6 3 -13 3v-46q3 3 50 5h70l-6 -380q-1 -24 -17 -45q22 -21 43 -59q4 15 13 26q18 34 34 57l76 128q-15 18 -25 42q-19 -42 -38 -76q-18 -33 -48 -78l5 381q0 21 6 45q-4 0 -8 -1zM141 684q75 -69 80 -75q27 -33 34 -40q1 1 3 4
q15 15 19 22q3 4 7 7q-21 24 -70 71l-63 59q-6 -3 -10 -10l-22 -18zM343 595q0 -9 2 -13q3 -18 3 -53l-1 -657q-3 -7 -4 -19h48q0 6 -2 12q-1 24 -3 47l1 636q0 21 8 37q0 4 4 10h-56zM362 734q42 -24 80 -57q34 -27 62 -55q12 18 27 35q-66 60 -140 109l-22 -25
q-4 -3 -7 -7zM556 273q9 -15 16 -32q12 7 26 17q-30 51 -53 84q-9 -9 -22 -19q4 -9 12 -17zM669 257q13 -6 28 -16q25 45 36 60q10 16 21 26q-19 7 -36 19q-12 -30 -22 -48q-6 -10 -27 -41zM442 -57q3 -3 12 -7q27 27 42 44q12 12 24 28q52 66 97 143q0 -220 -3 -236
q0 -6 -3 -20h46l-6 38v191q60 -60 90 -95q28 -33 44 -59q7 9 13 17q6 6 19 23q-36 36 -85 80q-45 42 -82 71v13q111 0 121 -2l32 -4q-1 13 -3 27q-3 19 -3 63l1 116q0 9 3 20q0 4 2 19q-51 -6 -66 -6h-87v78h112q24 0 63 -5v41q-27 -4 -63 -5h-112q0 21 3 43q3 19 12 35h-54
q0 -9 2 -14q3 -21 4 -58v-6l-172 2q-6 3 -13 3v-41q3 1 51 5h134v-78l-109 1q-24 4 -42 5q6 -51 6 -71q0 -117 -2 -142q-3 -3 -3 -27q-1 -1 -1 -5q6 0 9 1q-3 0 9 1q43 3 55 4h55q-45 -81 -92 -136q-45 -49 -96 -72q1 0 36 -23zM504 203v174h113v-174h-113zM650 203v174h114
v-174h-114zM919 636q1 27 5 54q-27 -1 -56 -5l-259 2q-6 3 -13 3v-46q3 3 50 5h235v-689q0 -46 -34 -49q-4 0 -8 -1l-48 1l-16 3q12 -30 13 -36q1 -4 3 -14q40 3 63 6q18 3 30 8q34 12 35 66v692z" />
  </g>

</svg>
