<?xml version="1.0" standalone="no"?>
<!DOCTYPE svg PUBLIC "-//W3C//DTD SVG 1.1//EN" "http://www.w3.org/Graphics/SVG/1.1/DTD/svg11.dtd" >
<svg xmlns="http://www.w3.org/2000/svg" xmlns:xlink="http://www.w3.org/1999/xlink" version="1.1" viewBox="-10 0 1034 1024">
  <g transform="matrix(1 0 0 -1 0 820)">
   <path fill="currentColor"
d="M105 387l-53 4q-3 0 -7 1v-46q49 4 78 5h51l-6 -369q-1 -45 -26 -75q12 -10 29 -29q0 -1 3 -5q3 -3 7 -9q39 73 94 147l-14 49q-10 -13 -19 -28q-6 -10 -14 -22q-10 -15 -21 -32l5 362q0 21 5 52q-27 -1 -55 -5h-57zM107 684q78 -64 132 -133q15 21 29 36
q-78 78 -133 128q-6 -9 -28 -31zM719 464l-441 2q-6 3 -13 3v-46q3 3 44 5h106v-90l-108 2q-6 3 -13 3v-43q49 4 80 5h41v-87l-118 4q-3 0 -7 1v-43q49 4 81 5h44v-85l-122 3q-9 3 -15 3v-44q3 1 51 5h86v-97q-97 -6 -122 -6h-13q9 -28 14 -52q42 7 93 15l213 25l61 5
q3 22 13 47q-57 -12 -107 -18v84h62q33 0 62 -6v44q-66 -4 -100 -5h-24v83h53q27 0 62 -5v43q-7 0 -16 -3l-99 -2v87h63q33 0 62 -5v43q-9 -1 -15 -3q-15 -1 -47 -2h-63v89h154l18 -182q12 -78 33 -177q-27 -58 -69 -113q-49 -57 -100 -87q9 -6 19 -12q7 -3 14 -9
q3 -3 14 -11q73 72 140 181l31 -74q9 -21 17 -36q36 -60 66 -61q24 0 46 44q12 25 24 66q3 15 7 24q-19 10 -51 36q-1 -48 -6 -76q-7 -36 -24 -37q-4 0 -11 6q-10 9 -23 33q-24 45 -51 123q27 66 40 101q12 30 25 72q18 57 24 68q4 10 25 27q-30 6 -64 20q-16 -102 -65 -225
q-33 133 -40 299h130q28 0 64 -5v46q-31 -1 -64 -5h-132l-3 209q0 15 4 36q3 16 17 34q-6 0 -21 3q-30 3 -27 3l-2 1q-9 0 -17 3q3 -25 3 -40l4 -101q0 -93 3 -148zM529 -16q-39 -4 -77 -10v454h77v-444zM414 661q12 42 21 57q6 12 27 29q-36 4 -63 15q-9 -66 -36 -124
q-39 -78 -85 -123q18 -4 48 -20q28 45 45 74q13 24 28 57q33 -28 74 -74q7 12 27 32q-24 22 -54 49zM529 496l48 87l41 -34l36 -36q13 18 28 35q-37 31 -91 72q6 18 14 41q13 39 21 48q6 10 28 25q-42 10 -66 21q-13 -78 -44 -147q-30 -60 -67 -101q30 -12 46 -22q3 6 6 11z
M807 654q51 -51 86 -116q10 12 34 26q-7 15 -34 50q-24 31 -53 64q-12 -10 -33 -24v0z" />
  </g>

</svg>
