<?xml version="1.0" standalone="no"?>
<!DOCTYPE svg PUBLIC "-//W3C//DTD SVG 1.1//EN" "http://www.w3.org/Graphics/SVG/1.1/DTD/svg11.dtd" >
<svg xmlns="http://www.w3.org/2000/svg" xmlns:xlink="http://www.w3.org/1999/xlink" version="1.1" viewBox="-10 0 1034 1024">
  <g transform="matrix(1 0 0 -1 0 820)">
   <path fill="currentColor"
d="M34 229q9 -9 20 -18l24 -27q114 57 216 133q61 48 113 98q42 42 104 123q115 -157 275 -258q27 -15 55 -30l110 -55q12 22 35 50q-69 16 -127 43q-84 39 -164 104q-49 42 -83 78q-36 42 -78 100q9 10 13 12l7 7q-31 13 -53 27q-33 -75 -96 -146q-39 -43 -99 -94
q-64 -54 -109 -80q-93 -54 -163 -67zM108 523q4 -4 11 -10q9 -7 14 -13q4 -4 10 -11q55 40 94 77q42 39 89 93q28 30 37 40q13 12 36 21q-25 15 -50 35q-30 -43 -54 -73q-16 -21 -57 -61q-36 -36 -66 -57q-24 -15 -69 -36zM251 -89q-1 -22 -3 -46q-1 -3 -2 -16h50
q-6 39 -5 76v16h448q0 -30 -2 -55q-1 -4 -4 -29h52q-4 39 -5 63l1 275q0 16 4 41q-27 -1 -55 -5l-442 1q-6 1 -13 2q-12 0 -29 2q1 -30 5 -60v-265zM291 -23v218h448v-218h-448zM619 717q39 -21 128 -86q84 -63 124 -106q9 18 17 26q6 9 15 15l-172 126l-82 58q-3 0 -11 -14
q-3 -4 -8 -8q-6 -4 -11 -11v0z" />
  </g>

</svg>
