<?xml version="1.0" standalone="no"?>
<!DOCTYPE svg PUBLIC "-//W3C//DTD SVG 1.1//EN" "http://www.w3.org/Graphics/SVG/1.1/DTD/svg11.dtd" >
<svg xmlns="http://www.w3.org/2000/svg" xmlns:xlink="http://www.w3.org/1999/xlink" version="1.1" viewBox="-10 0 1010 1000">
   <path fill="currentColor"
d="M621 -4q141 78 268 177l-77 73q-97 -99 -250 -186zM329 -2q48 21 90 48q13 9 -8 17q-27 10 -40 23q-111 109 -218 196q-32 -36 -86 -55q163 -84 262 -229zM450 143q40 8 110 32q10 3 -7 12q-14 8 -15 12q0 55 129 153q155 85 283 95q-43 44 -59 99q-50 -15 -127 -48
q-6 42 -6 106v176q-1 67 6 117h-89q5 -22 4 -75h-377q-1 58 4 77h-92q6 -38 6 -111v-176q0 -54 -4 -84q-49 29 -103 56q-34 -57 -75 -68q167 -62 240 -133q122 -108 172 -240zM486 254q-74 130 -224 240q40 4 95 4h302q57 0 95 -6q-79 -33 -165 -105q-48 -37 -103 -133z
M300 570v180h377v-180h-377z" />
</svg>
