<?xml version="1.0" standalone="no"?>
<!DOCTYPE svg PUBLIC "-//W3C//DTD SVG 1.1//EN" "http://www.w3.org/Graphics/SVG/1.1/DTD/svg11.dtd" >
<svg xmlns="http://www.w3.org/2000/svg" xmlns:xlink="http://www.w3.org/1999/xlink" version="1.1" viewBox="-10 0 1034 1024">
  <g transform="matrix(1 0 0 -1 0 820)">
   <path fill="currentColor"
d="M691 535v-107q0 -39 -47 -40q-21 0 -47 6q9 -16 18 -49q13 0 28 3q34 3 54 12q28 15 29 61v114h174q-22 -36 -38 -55q-12 -16 -31 -36q18 -3 37 -10q3 -1 7 -3l40 73l43 68q-36 -1 -73 -5h-145q-15 10 -29 21q57 51 148 140q-40 -1 -82 -5l-345 2q-15 3 -27 3v-43
q49 4 66 5h297q-7 -6 -15 -14q-33 -36 -42 -42q-16 -12 -33 -27q-1 0 -2 -2q-9 4 -19 11q-66 33 -90 48q-7 -19 -23 -35l87 -38q18 -9 43 -24l-280 1q-12 1 -25 2l-14 2v-43q30 3 66 6h222q-57 -48 -141 -95q-93 -42 -161 -52q15 -15 35 -41q99 34 162 74q63 39 146 114h7z
M555 171q42 40 44 42q10 9 32 16l-39 29q-39 -43 -68 -71q-25 -24 -68 -54q13 -3 27 -12q4 -3 12 -7q39 39 60 57zM401 -89q-3 -30 -3 -54q-1 -3 -1 -8q-1 -1 -1 -4h44q-3 33 -5 66v362h444v-338q0 -22 -17 -34q-18 -9 -49 -9q-21 0 -54 6q9 -16 18 -41q1 -6 3 -12
q36 4 41 5q46 6 69 20q24 15 24 63l1 328l4 50q-66 -4 -94 -5l-380 1q-7 1 -15 2q-16 0 -34 2q1 -36 5 -72v-328zM601 131q-31 3 -64 5l3 -30q3 -21 3 -69q0 -30 -6 -79q60 6 89 6q112 0 125 -2l37 -4q-4 49 -5 74q0 60 2 73q0 15 3 31q-33 -1 -65 -5h-122zM575 -6v106h174
v-106h-174zM133 432q-33 3 -66 5v-46q45 4 134 5h17l-7 -409q0 -37 -15 -63q18 -18 37 -39q60 76 140 151q-9 25 -17 49q-24 -33 -40 -50q-7 -9 -26 -28t-39 -40l5 399l6 71q-55 -4 -79 -5h-50zM249 586l36 -39l30 34l-54 48l-104 97q-13 -15 -31 -30q39 -31 101 -89
q10 -9 22 -21zM764 184q1 -1 5 -3q1 0 62 -52q10 15 21 29q-7 7 -73 56l-67 43q-10 -15 -22 -28q1 0 74 -45v0z" />
  </g>

</svg>
