<?xml version="1.0" standalone="no"?>
<!DOCTYPE svg PUBLIC "-//W3C//DTD SVG 1.1//EN" "http://www.w3.org/Graphics/SVG/1.1/DTD/svg11.dtd" >
<svg xmlns="http://www.w3.org/2000/svg" xmlns:xlink="http://www.w3.org/1999/xlink" version="1.1" viewBox="-10 0 1010 1000">
   <path fill="currentColor"
d="M159 10q20 25 60 76q37 47 55 69l-91 52q-49 -103 -106 -151zM383 24q31 3 123 6h240q103 -1 143 -6v82q-67 7 -224 101h156q61 0 81 -1q26 0 44 -3q-38 105 -69 174q-31 -19 -85 -19q26 -30 57 -96h-125v86q1 53 -21 66q-20 16 -100 17q-9 -49 -40 -77q57 12 73 7
q16 -4 15 -33v-66h-28q-78 91 -300 193q-12 -38 -61 -68q166 -21 288 -125h-115q-90 0 -129 10v-73q25 8 127 8h162q-1 0 -14 -7q-60 -30 -103 -47q30 -13 56 -38q12 7 37 22q37 22 58 34q52 -31 117 -77h-238q-88 0 -125 8v-78zM34 274q46 6 89 6q55 0 97 -4q-1 8 -3 26
q-9 91 -9 133v270q58 -49 98 -99q8 35 37 79q-115 88 -168 151q-32 -45 -62 -70q21 -16 20 -91v-323q-62 0 -99 6v-84zM571 667v71h100v-71h-100zM361 441q29 1 72 2h46h61h190q125 -3 167 -6q-7 64 -8 123v258q15 68 -139 83q-5 -53 -42 -89q101 31 109 -42v-272h-380v252
q2 102 7 143h-89q10 -29 10 -141v-180q0 -62 -1 -84q-1 -29 -3 -47zM440 612q65 -33 100 -100q70 44 61 46q-2 2 -8 5q-23 10 -57 49q10 0 51 3h70q22 0 54 -2q8 -1 11 -1q-29 -32 -83 -64l46 -36q28 19 105 79l18 15l-52 45l-16 -18q-6 19 -6 52v32q1 53 4 77l-83 -4h-60
q-70 0 -91 4q4 -21 4 -73v-28q0 -42 -6 -52l-26 22q-9 -17 -36 -51z" />
</svg>
