<?xml version="1.0" standalone="no"?>
<!DOCTYPE svg PUBLIC "-//W3C//DTD SVG 1.1//EN" "http://www.w3.org/Graphics/SVG/1.1/DTD/svg11.dtd" >
<svg xmlns="http://www.w3.org/2000/svg" xmlns:xlink="http://www.w3.org/1999/xlink" version="1.1" viewBox="-10 0 1010 1000">
   <path fill="currentColor"
d="M526 -25q95 23 91 31q-1 3 -11 8q-34 17 -58 46h146q85 0 127 -8q-1 1 -21 31q-41 61 -62 92h48q109 -1 152 -12v79q-26 -7 -140 -7q71 52 85 71l-64 42q-39 -62 -83 -86l38 -27h-228q-3 1 19 16q27 17 28 21q-2 2 -7 4q-15 6 -30 20q-5 4 -22 20q-32 30 -38 34l-67 -40
q65 -21 97 -75h-109q2 162 0 266q-3 105 -12 178q-16 141 -68 222q-42 -27 -91 -34q113 -88 99 -471v-42q0 -155 -12 -185q32 6 104 6q-16 -25 -82 -42q102 -51 171 -158zM185 28q5 11 19 37q43 84 60 124l-85 30q-22 -83 -78 -163zM698 115h-200q-6 7 -20 21q-28 30 -34 39
h209zM230 282q-8 29 -8 131v272q36 -48 64 -93q4 50 29 87q-86 86 -132 159q-19 -32 -58 -64q24 -39 24 -87v-329q-55 0 -74 1q-25 1 -41 4v-81q19 8 87 8q81 0 109 -8zM700 292q3 11 13 37q12 33 13 40h58q91 0 137 -9v69q-30 -9 -133 -8h-203q-119 -1 -143 10v-69
q48 7 139 7h74q-3 -4 -10 -18q-19 -37 -30 -51zM883 465v69q-48 -10 -149 -10h-127q-100 0 -143 10v-71q22 10 143 10h131q105 0 145 -8zM877 564v73q-44 -9 -155 -10h-107q-101 1 -151 10v-69q30 8 147 8h121q103 0 145 -12zM887 669q-4 12 -5 40q-1 13 -1 34v59
q0 86 8 109h-93q10 -25 10 -57h-256q0 48 8 65h-94q9 -33 8 -115q1 -109 -6 -135q42 10 175 10h89q126 0 157 -10zM806 735h-258v63h258v-63z" />
</svg>
