<?xml version="1.0" standalone="no"?>
<!DOCTYPE svg PUBLIC "-//W3C//DTD SVG 1.1//EN" "http://www.w3.org/Graphics/SVG/1.1/DTD/svg11.dtd" >
<svg xmlns="http://www.w3.org/2000/svg" xmlns:xlink="http://www.w3.org/1999/xlink" version="1.1" viewBox="-10 0 1010 1000">
   <path fill="currentColor"
d="M298 2q4 13 13 39q14 39 18 59h84q16 0 51 -5q15 -2 24 -3q-11 39 -4 103q87 -71 129 -167q49 16 87 46q-37 31 -126 147q-16 21 -24 31q-33 -28 -64 -41l2 12h-79q6 -30 6 -62h-282q-1 30 10 66h-83q1 -9 3 -25q4 -33 4 -45q0 -34 -7 -63q36 5 67 6h123l-9 -21
q-12 -32 -27 -59zM808 30q89 86 134 151l-71 57q-38 -81 -129 -164zM671 185q56 16 99 36q-1 2 -5 5q-15 11 -27 32q83 137 234 197q-37 46 -51 83l-44 -24q-1 5 -2 17q-4 28 -4 41v192q0 80 12 125h-97q8 -35 8 -85h-159q1 45 10 91h-95q7 -37 8 -109v-208q1 -13 -6 -54
l-30 30q-29 -37 -66 -52v56q-47 -7 -83 -8h-52v69h48q21 0 85 -9q-6 49 -6 75v99q0 36 8 85h-87q3 -13 6 -37h-188q0 10 3 33q1 14 2 22h-87q8 -61 8 -95v-107q-2 -38 -8 -72q46 5 85 6h56v-69h-85q-56 0 -101 8v-71q54 7 99 7h87v-59h-63h-16q-46 -1 -80 4v-68q67 8 94 8
h65v-61h-56q-48 0 -107 8v-74q51 7 104 8h59q0 -50 -4 -65q88 0 87 8q-11 22 -10 55h50q32 0 101 -8v74q-59 -8 -99 -8h-52v61h52q38 0 95 -8v70q-43 -6 -105 -6h-42v61h50q45 -1 89 -7q149 -85 213 -302zM698 320q-49 92 -125 176q29 5 68 6h149q28 0 57 -8
q-83 -64 -149 -174zM633 564v178h159v-178h-159zM185 675v101h190v-101h-190z" />
</svg>
