<?xml version="1.0" standalone="no"?>
<!DOCTYPE svg PUBLIC "-//W3C//DTD SVG 1.1//EN" "http://www.w3.org/Graphics/SVG/1.1/DTD/svg11.dtd" >
<svg xmlns="http://www.w3.org/2000/svg" xmlns:xlink="http://www.w3.org/1999/xlink" version="1.1" viewBox="-10 0 1010 1000">
   <path fill="currentColor"
d="M103 52q46 9 141 10h512q93 -1 143 -10v89q-33 -9 -125 -8h-530q-54 0 -83 2q-33 1 -58 6v-89zM210 227q67 8 119 8h340q64 1 117 -10q-8 65 -8 99v105q-1 55 8 103q-48 -9 -103 -8h-350q-83 0 -125 10q9 -33 8 -93v-125q1 -52 -6 -89zM296 302v155h402v-155h-402z
M637 558q59 19 99 46q-49 47 -127 160h212q75 0 108 -8v92q-27 -9 -106 -8h-633q-70 -1 -123 8v-92q42 9 123 8h344q67 -114 103 -206zM325 558q39 44 98 149l-82 33q-40 -85 -93 -142z" />
</svg>
