<?xml version="1.0" standalone="no"?>
<!DOCTYPE svg PUBLIC "-//W3C//DTD SVG 1.1//EN" "http://www.w3.org/Graphics/SVG/1.1/DTD/svg11.dtd" >
<svg xmlns="http://www.w3.org/2000/svg" xmlns:xlink="http://www.w3.org/1999/xlink" version="1.1" viewBox="-10 0 1010 1000">
   <path fill="currentColor"
d="M373 -17q111 27 109 41q-1 6 -21 17q-34 18 -54 39h178q92 0 185 -4q5 1 2 6q-46 46 -113 133q132 0 202 -6q9 -1 6 12q0 2 -1 6q-5 46 -5 97t6 89q2 10 -6 10q-69 -7 -176 -8h-175q-9 6 -34 28q72 56 113 127q123 -74 167 -133q10 7 29 19q67 43 58 50q-4 6 -21 10
q-56 13 -124 64q86 152 256 188q-44 30 -93 92q-120 -80 -224 -245q-12 6 -28 16q16 59 9 130q-7 63 -33 93q-44 44 -148 59q-5 -57 -44 -105q62 5 82 0q26 -4 41 -20q35 -43 20 -135q-79 105 -395 218q-26 -42 -70 -75q239 -25 447 -198q-13 -27 -26 -44q-107 91 -365 175
q-21 -40 -65 -72q221 -21 394 -143q-10 -12 -27 -26q-5 -5 -8 -7q-70 45 -284 109q-32 -48 -62 -74q223 -17 344 -99h-76q-50 0 -137 8q-7 0 -6 -8q4 -48 4 -151q-47 37 -77 56l-8 -8q-35 -37 -59 -54q173 -99 313 -277zM623 139h-272l-89 74h300q22 -25 50 -60
q8 -10 11 -14zM286 272v86h184q17 -33 34 -86h-218zM583 276q-14 44 -33 80h230v-80h-197z" />
</svg>
