<?xml version="1.0" standalone="no"?>
<!DOCTYPE svg PUBLIC "-//W3C//DTD SVG 1.1//EN" "http://www.w3.org/Graphics/SVG/1.1/DTD/svg11.dtd" >
<svg xmlns="http://www.w3.org/2000/svg" xmlns:xlink="http://www.w3.org/1999/xlink" version="1.1" viewBox="-10 0 1034 1024">
  <g transform="matrix(1 0 0 -1 0 820)">
   <path fill="currentColor"
d="M455 309q-51 -36 -144 -82q-96 -40 -147 -48q16 -15 35 -39q93 28 201 89q25 -13 46 -35q-42 -30 -129 -77q-111 -48 -177 -57q18 -15 38 -42q109 45 149 64q72 39 147 84q21 -24 31 -53q-118 -81 -226 -129q-88 -39 -150 -45q18 -21 31 -44q72 22 168 68q42 19 77 40
l116 74q7 -30 8 -62q0 -27 -7 -63q-6 -24 -23 -44q-22 -22 -69 -23q-22 0 -53 6q13 -33 18 -53q15 0 28 1q48 3 78 18q67 36 68 153q0 43 -11 86q3 4 8 7q111 -70 137 -90q46 -34 116 -92q21 -18 43 -39q10 21 26 39l-135 104l-147 100q42 27 62 42q36 27 41 27q12 9 19 9
q0 1 2 1l10 5q3 3 7 5q-21 19 -37 40q-30 -30 -64 -56q-39 -28 -101 -66q-24 46 -58 80q-22 21 -49 40q60 42 83 57h188q30 -19 55 -34q24 -13 50 -26q75 -33 124 -52q19 28 37 44q-54 10 -76 18q-28 9 -74 30q-127 60 -202 148l279 -1l39 -4v46q-12 -3 -25 -3l-71 -2h-429
q16 34 47 89l377 -1l40 -4v46q-33 -1 -66 -5h-336q39 130 41 132q4 13 23 23q-3 1 -6 1q-45 9 -48 10q-6 3 -12 5q-3 -37 -14 -83q-7 -33 -13 -47q-6 -18 -16 -41l-261 3q-7 1 -12 2v-46q49 4 65 5h193q-9 -15 -16 -30q-21 -39 -37 -59l-252 1q-19 3 -36 4v-46q-3 0 9 1
l55 4h200q-63 -78 -142 -137q-78 -54 -150 -73q18 -16 40 -41q114 60 185 123h181zM312 345q18 18 81 92h181q39 -43 87 -92h-349zM214 710q51 -30 79 -52l40 -33q9 18 27 36q-111 75 -128 86q-9 -18 -24 -33q3 -1 6 -4zM619 652q15 -15 28 -31q103 84 107 86q13 12 33 14
q-21 13 -47 39q-46 -60 -121 -108v0z" />
  </g>

</svg>
