<?xml version="1.0" standalone="no"?>
<!DOCTYPE svg PUBLIC "-//W3C//DTD SVG 1.1//EN" "http://www.w3.org/Graphics/SVG/1.1/DTD/svg11.dtd" >
<svg xmlns="http://www.w3.org/2000/svg" xmlns:xlink="http://www.w3.org/1999/xlink" version="1.1" viewBox="-10 0 1010 1000">
   <path fill="currentColor"
d="M538 -37q11 19 27 91h191q99 0 153 -10v79q-45 -12 -151 -8h-528q-102 -3 -147 10v-79q52 7 151 8h248q-7 -29 -49 -81zM208 153q44 10 111 10h314q97 0 157 -6q-5 22 -4 80q-1 57 4 81q-48 -9 -145 -8h-328q-77 -4 -113 8q8 -44 8 -81q0 -54 -4 -84zM708 215h-418v43
h418v-43zM67 348q30 6 135 6h558q113 0 180 -6q0 1 -1 4q-6 43 -6 73q-2 42 4 73h-92q8 -53 8 -93h-704v24q-2 48 6 69h-95q10 -16 9 -77q0 -20 -1 -51q-1 -16 -1 -22zM206 449q33 8 117 6h322q115 0 153 -6v67q-41 -8 -183 -8q-27 0 -97 48q26 23 50 60q10 16 17 27
q106 -60 139 -101q74 35 80 56q0 3 -14 7q-52 14 -102 46q100 122 266 151q-46 32 -69 81q-173 -68 -244 -204l-38 18q19 120 -20 173q-39 54 -154 67q2 -52 -34 -95q152 34 137 -119q-125 101 -389 188q-1 -2 -4 -7q-22 -41 -54 -64q266 -38 431 -171q-5 -18 -14 -36
q-148 92 -349 139q-13 -34 -44 -59q198 -11 365 -115l-14 -18q-152 46 -319 75q-4 -22 -42 -67q211 5 417 -82h-216q-48 -3 -94 6v-63z" />
</svg>
