<?xml version="1.0" standalone="no"?>
<!DOCTYPE svg PUBLIC "-//W3C//DTD SVG 1.1//EN" "http://www.w3.org/Graphics/SVG/1.1/DTD/svg11.dtd" >
<svg xmlns="http://www.w3.org/2000/svg" xmlns:xlink="http://www.w3.org/1999/xlink" version="1.1" viewBox="-10 0 1034 1024">
  <g transform="matrix(1 0 0 -1 0 820)">
   <path fill="currentColor"
d="M149 668q-39 3 -47 3q-3 1 -13 2v-43q3 1 7 1q0 1 53 4l755 -1q13 0 26 -4v43q-19 -4 -58 -5h-294q4 15 18 37l-134 79q-4 -6 -8 -14q-9 -15 -19 -24q36 -15 72 -36q34 -19 58 -42h-416zM114 370q4 -84 5 -88q0 -45 -3 -72q-1 -6 -2 -13h48q-6 30 -6 53v84h715v-68
q0 -22 -5 -53h48q-4 45 -5 85q1 36 5 72q-4 0 -8 -2l-40 -4l-718 1q-19 4 -34 5zM638 88q42 -49 72 -82q22 -24 64 -56q66 -45 142 -91q6 12 15 23q9 13 28 27q-70 10 -145 56q-66 39 -149 138q66 49 133 52q-31 34 -49 58q-25 -27 -54 -47q-37 -28 -62 -45q-21 -13 -52 -31
q-9 12 -16 24q-16 28 -31 46q-9 12 -49 52q13 10 29 19h234q39 0 58 -6v44q-7 -1 -55 -6l-499 1q-7 1 -24 2q-6 3 -13 3v-44q12 4 30 5l206 1q-57 -39 -157 -74q-69 -21 -138 -29q10 -15 17 -23q13 -16 14 -21q45 12 108 36q30 10 60 26q36 16 92 46q21 -18 40 -37
q-54 -45 -183 -112q-82 -43 -175 -55q21 -22 33 -44q57 21 95 38q33 15 73 37q34 18 65 37l116 74q16 -25 31 -53q-31 -28 -99 -71q-60 -37 -118 -66q-135 -61 -213 -70q21 -24 32 -47q69 27 124 53q51 22 96 48q43 24 89 53q48 30 103 70q7 -33 8 -49q0 -27 -9 -56
q-12 -39 -37 -55q-28 -18 -75 -19q-15 0 -44 6q15 -36 20 -49q28 0 44 3q39 6 72 24q63 39 63 150q0 27 -6 58q22 15 46 28zM264 570q3 -55 4 -63q0 -33 -2 -59q-3 -3 -3 -30q42 4 79 5l386 -1l37 -4q-4 45 -5 86q1 37 5 75q-13 -1 -23 -2q-18 -3 -28 -4l-406 1q-10 3 -45 5
q0 -4 1 -9zM722 454h-417v89h417v-89z" />
  </g>

</svg>
