<?xml version="1.0" standalone="no"?>
<!DOCTYPE svg PUBLIC "-//W3C//DTD SVG 1.1//EN" "http://www.w3.org/Graphics/SVG/1.1/DTD/svg11.dtd" >
<svg xmlns="http://www.w3.org/2000/svg" xmlns:xlink="http://www.w3.org/1999/xlink" version="1.1" viewBox="-10 0 1010 1000">
   <path fill="currentColor"
d="M569 -4q77 22 88 34q-13 9 -37 31q-17 17 -29 27l252 -4q-17 21 -48 68q-26 39 -43 63h69q57 1 86 -6q-7 25 -8 73v66q0 37 8 73q-38 -6 -84 -6h-166q-18 15 -40 34q50 48 79 97q65 -32 139 -105q68 50 68 63q-32 2 -91 40q-4 3 -6 4q29 145 162 216q-46 24 -75 68
q-113 -115 -139 -252l-38 16q48 165 6 248q-26 52 -133 63q-6 -46 -33 -83q79 1 101 -26q9 -12 13 -52q3 -40 -3 -73q-105 114 -280 192q-21 -38 -60 -71q189 -39 322 -194l-12 -24l-8 -16q-94 95 -226 161l-54 -62q141 -48 244 -147l-22 -25q-57 52 -162 101
q-19 -31 -52 -56q157 -61 216 -117h-43q-35 -1 -86 8q7 -33 8 -73v-92l-43 44q-31 -35 -68 -48q131 -75 228 -258zM401 58v89q-33 -4 -149 131q6 8 18 21q15 16 20 25l-44 34h60q32 0 113 -6q-26 74 -42 162q-48 -7 -79 -2q5 -12 13 -35q15 -37 22 -56h-75v345q2 58 -24 74
q-21 18 -123 35q-6 -51 -38 -103q110 22 110 -28v-323q-76 -1 -125 6q-10 2 -14 2v-79q60 8 135 8h51q-60 -86 -117 -131l56 -36l45 46l82 -108h-100q-65 0 -125 8v-79q48 8 123 8h92q63 -1 115 -8zM722 145l-172 4q-8 9 -20 24q-24 28 -32 36q24 6 46 6h137zM528 280v72h83
q23 -34 34 -72h-117zM720 280q-8 29 -30 72h133v-72h-103z" />
</svg>
