<?xml version="1.0" standalone="no"?>
<!DOCTYPE svg PUBLIC "-//W3C//DTD SVG 1.1//EN" "http://www.w3.org/Graphics/SVG/1.1/DTD/svg11.dtd" >
<svg xmlns="http://www.w3.org/2000/svg" xmlns:xlink="http://www.w3.org/1999/xlink" version="1.1" viewBox="-10 0 1034 1024">
  <g transform="matrix(1 0 0 -1 0 820)">
   <path fill="currentColor"
d="M87 151q6 -4 33 -32q36 22 66 45q28 21 57 45q58 51 138 132q19 -40 31 -77q-66 -85 -105 -124q-66 -66 -128 -106q-46 -25 -90 -39q24 -18 44 -38q150 94 290 259q7 -54 8 -94q0 -22 -3 -50q-7 -57 -26 -100q-30 -64 -113 -71q-28 -1 -31 -2q-6 0 -32 5q3 -10 7 -21
q9 -27 9 -31q109 6 153 47q45 42 62 110q12 54 12 120q0 69 -17 138q-21 72 -61 126l-50 61q4 4 33 25q87 69 92 71q27 18 39 20q4 0 9 2q-31 24 -47 45q-18 -22 -38 -43q-21 -21 -56 -49q-27 36 -52 61l-16 17q-6 -4 -12 -10q-9 -9 -23 -16q18 -15 61 -58q6 -6 14 -16
q-45 -37 -83 -61q-37 48 -77 94q-18 -18 -33 -29q49 -46 76 -84q-90 -57 -181 -68q16 -15 25 -23q3 -4 10 -10q6 -3 11 -11q106 52 213 118q30 -27 52 -57q-34 -40 -64 -70q-28 -27 -67 -60q-81 -69 -147 -85q3 -3 7 -6zM374 754q-7 4 -13 9q-22 -24 -49 -45
q-37 -27 -77 -51q-102 -60 -171 -66q13 -15 22 -22q0 1 7 -10q6 -6 10 -11q115 52 215 118q39 27 54 35q15 9 42 13q-21 12 -34 25q-3 3 -6 5zM781 -65q0 -19 -9 -31q-6 -6 -34 -12q-24 -1 -47 -3q-10 0 -47 6q12 -33 17 -51q27 0 104 11q24 6 36 13q19 15 20 58v521h88
q24 0 46 -3q1 0 16 -2v47q-19 -4 -38 -5l-112 -1v213q0 6 2 23q1 18 11 39h-59q6 -27 6 -60v-215l-261 1q-12 1 -24 4q-3 1 -6 1v-47q3 3 45 5h231q-51 -129 -144 -263q-67 -99 -140 -153q39 -12 41 -12l20 -7q72 87 132 181q28 43 51 82l55 103v-443z" />
  </g>

</svg>
