<?xml version="1.0" standalone="no"?>
<!DOCTYPE svg PUBLIC "-//W3C//DTD SVG 1.1//EN" "http://www.w3.org/Graphics/SVG/1.1/DTD/svg11.dtd" >
<svg xmlns="http://www.w3.org/2000/svg" xmlns:xlink="http://www.w3.org/1999/xlink" version="1.1" viewBox="-10 0 1010 1000">
   <path fill="currentColor"
d="M407 -6q29 21 73 70q13 14 -16 21q-30 6 -47 15q-13 6 -53 27q-153 78 -257 121l-65 -73q222 -44 365 -181zM758 -4q92 5 105 12q0 2 -3 7q-13 23 -13 57v145q69 0 113 -10v89q-36 -8 -113 -8v474q2 78 -33 101q-25 23 -153 40q-1 -63 -44 -113q140 24 151 -52v-349
q-86 192 -226 332q-3 -47 -42 -94q128 -112 240 -339h-105q-58 0 -99 8v-87q39 8 97 8h135v-133q0 -45 -10 -88zM446 161q21 17 68 72q-52 21 -149 97q80 88 103 172q39 155 0 290q-34 95 -198 109q-2 -56 -38 -109q108 32 145 -18q18 -21 28 -78q10 -60 6 -112
q-142 139 -296 232q-19 -48 -63 -66q142 -38 343 -240q-12 -38 -26 -57q-64 67 -262 208q-16 -43 -49 -65q190 -89 277 -197q-12 -15 -25 -32q-11 7 -46 29q-113 73 -171 102q-17 -41 -53 -67q77 -19 172 -73q-40 -54 -69 -76l61 -38q33 34 58 82q37 -23 69 -52
q-21 -32 -63 -65l59 -42q36 36 54 66q21 -18 65 -72z" />
</svg>
