<?xml version="1.0" standalone="no"?>
<!DOCTYPE svg PUBLIC "-//W3C//DTD SVG 1.1//EN" "http://www.w3.org/Graphics/SVG/1.1/DTD/svg11.dtd" >
<svg xmlns="http://www.w3.org/2000/svg" xmlns:xlink="http://www.w3.org/1999/xlink" version="1.1" viewBox="-10 0 1012 1000">
   <path fill="currentColor"
d="M522 -4q95 30 97 38q0 3 -8 16q-19 29 -32 56q-17 37 -44 102q-3 9 -5 13v446q78 -81 143 -369h-10q-90 -3 -113 6v-79q17 6 111 6h35v-131q0 -71 -11 -100q8 0 24 1q82 1 81 9q1 3 -4 12q-19 28 -16 70v139h43q96 0 127 -8v83q-23 -9 -121 -8h-13q42 242 186 361
q-46 34 -69 72q-96 -95 -151 -362v360q0 82 2 114q2 37 8 50h-94q10 -44 10 -158v-330q-43 245 -113 330q-29 -28 -53 -34v26q0 133 6 160h-82q5 -16 7 -53q0 -18 1 -43v-70v-373q-8 18 -46 86q-5 9 -7 13q-30 -26 -72 -44q141 -154 183 -407zM310 -2q84 59 83 72q0 2 -14 4
q-30 2 -42 12q-155 118 -260 162q-19 -42 -49 -71q169 -45 282 -179zM290 149q9 13 22 35q11 19 17 27q21 -24 54 -60q65 56 59 64q-4 9 -23 20q-25 14 -44 29q-4 3 -14 11q-56 45 -81 69q71 74 93 162q14 58 18 113t-1 100q-11 91 -59 135q-38 35 -129 47q-3 -47 -29 -101
q84 24 121 -32q16 -30 24 -85q6 -56 -1 -97q-131 148 -228 210q-21 -27 -59 -58q177 -80 272 -242q-7 -34 -16 -47q-120 138 -203 190q-21 -36 -53 -57q135 -59 220 -189q-2 -2 -5 -7q-6 -8 -11 -13q-95 63 -161 102q-24 -41 -53 -66q89 -30 155 -77q-6 -16 -58 -68l64 -37
q2 3 8 10q15 21 39 57q26 -12 54 -42q-26 -41 -50 -65z" />
</svg>
