<?xml version="1.0" standalone="no"?>
<!DOCTYPE svg PUBLIC "-//W3C//DTD SVG 1.1//EN" "http://www.w3.org/Graphics/SVG/1.1/DTD/svg11.dtd" >
<svg xmlns="http://www.w3.org/2000/svg" xmlns:xlink="http://www.w3.org/1999/xlink" version="1.1" viewBox="-10 0 1010 1000">
   <path fill="currentColor"
d="M462 -29q102 26 111 33q2 4 -11 9q-15 6 -14 11q123 185 428 211q-43 27 -83 95q-307 -99 -395 -270q-101 124 -252 224q49 12 139 12h169q100 0 190 -8l-117 165h85q55 0 90 -8q-8 27 -8 83v93q0 58 8 106h-104q8 -44 8 -104v-107h-422v107q0 66 8 115h-104
q8 -54 8 -113v-107q0 -13 -1 -39q-1 -25 -1 -38q56 11 135 12h211l73 -93h-226q-110 -1 -155 7v-77q-14 8 -69 44q-38 26 -62 41q-20 -39 -73 -79q261 -74 434 -325zM518 161q22 45 34 87l-88 12q-8 -55 -35 -89zM446 572q101 13 108 24q1 2 -8 13q-16 19 -18 28
q-29 110 -88 163q-70 63 -315 107q-26 -52 -63 -91l-6 -6q79 14 166 -2q93 -17 151 -54q76 -54 73 -182zM573 687q89 37 257 135q30 17 45 26l-63 77q-143 -109 -296 -171z" />
</svg>
