<?xml version="1.0" standalone="no"?>
<!DOCTYPE svg PUBLIC "-//W3C//DTD SVG 1.1//EN" "http://www.w3.org/Graphics/SVG/1.1/DTD/svg11.dtd" >
<svg xmlns="http://www.w3.org/2000/svg" xmlns:xlink="http://www.w3.org/1999/xlink" version="1.1" viewBox="-10 0 1034 1024">
  <g transform="matrix(1 0 0 -1 0 820)">
   <path fill="currentColor"
d="M278 411l-3 -123q-3 -81 -13 -127q-9 -45 -28 -85q-39 -76 -117 -135q-33 -24 -80 -40q33 -21 51 -42q129 100 180 200q24 48 35 111l7 82q3 51 3 115q0 69 6 95q3 18 19 33q-37 6 -67 17l5 -40q0 -30 2 -61zM176 680l-36 4q-10 1 -19 1l6 -58l-1 -472q-3 -15 -5 -31h48
q-4 27 -5 58v462h272l-1 -481q-3 -13 -5 -29h49q-4 31 -5 57v133q30 -7 49 -19q31 54 54 97q21 42 48 102h189q-4 -252 -99 -405q-39 75 -54 125q-24 73 -25 100q0 12 1 23q-27 -1 -51 -1l12 -44q33 -126 92 -238q-69 -78 -143 -127q-46 -27 -82 -42q-33 -10 -71 -14
q21 -21 42 -51q58 27 127 70q73 49 152 135q49 -49 99 -92q54 -42 132 -99q25 28 48 45q-63 19 -120 58q-78 57 -133 117q36 69 59 121q18 48 31 112q9 46 14 90q4 45 8 117q93 0 108 -3q4 0 11 -2v46l-28 -4l-306 -1q7 21 16 50q9 33 23 87q9 42 17 55q6 12 29 27l-30 7
q-16 4 -41 14q-12 -105 -37 -186q-21 -72 -64 -156q-39 -69 -77 -104l1 308l4 43q-49 -4 -56 -5h-247zM384 85l-34 28q-12 -18 -30 -34q88 -54 156 -142q10 21 29 38q-42 42 -78 74z" />
  </g>

</svg>
