<?xml version="1.0" standalone="no"?>
<!DOCTYPE svg PUBLIC "-//W3C//DTD SVG 1.1//EN" "http://www.w3.org/Graphics/SVG/1.1/DTD/svg11.dtd" >
<svg xmlns="http://www.w3.org/2000/svg" xmlns:xlink="http://www.w3.org/1999/xlink" version="1.1" viewBox="-10 0 1034 1024">
  <g transform="matrix(1 0 0 -1 0 820)">
   <path fill="currentColor"
d="M183 530q12 7 17 11l98 74l43 40q21 24 55 58q12 10 36 17q-13 6 -25 12q-18 7 -30 20q-33 -45 -68 -83q-39 -39 -82 -70q-108 -78 -180 -97q27 -13 45 -37q10 9 23 14q33 21 68 41zM770 564q-30 -1 -60 -5l-472 5v-46q60 6 104 5h101q-12 -18 -27 -31q-16 -15 -49 -39
q-69 -51 -151 -77q-34 -12 -60 -17q-22 -3 -49 -5q28 -25 41 -47q22 6 82 29q49 18 75 34q130 70 188 153h233q0 -16 -3 -34q-3 -63 -19 -81q-22 -21 -83 -21q-19 0 -58 4q15 -18 24 -55q84 12 109 20q30 9 44 29q13 22 22 90q3 55 8 89zM109 -101q15 -18 28 -49
q255 42 340 142q33 33 60 145q7 33 26 51l-28 6q-15 3 -32 10q-6 -78 -29 -138q-15 -39 -49 -71q-48 -40 -145 -71q-84 -25 -151 -26q-10 0 -20 1zM227 81q0 -18 -5 -65h48q-3 24 -4 49l-1 198h492l-1 -204l-4 -33h48q-3 24 -4 50l-1 163q1 33 5 66l-69 -6l-463 1
q-7 1 -46 5q1 -33 5 -66v-158zM906 -135q0 3 15 32q-109 48 -234 96q-39 12 -104 36q-6 -24 -20 -44q69 -10 202 -68q49 -21 84 -40q24 -12 50 -30q3 9 7 18zM979 518q-52 9 -106 34q-111 57 -180 128q-33 36 -49 84q-21 -15 -48 -25q1 -3 61 -78l41 -40q19 -16 50 -38
q96 -69 190 -107q19 30 41 42v0z" />
  </g>

</svg>
