<?xml version="1.0" standalone="no"?>
<!DOCTYPE svg PUBLIC "-//W3C//DTD SVG 1.1//EN" "http://www.w3.org/Graphics/SVG/1.1/DTD/svg11.dtd" >
<svg xmlns="http://www.w3.org/2000/svg" xmlns:xlink="http://www.w3.org/1999/xlink" version="1.1" viewBox="-10 0 1010 1000">
   <path fill="currentColor"
d="M629 -12q126 175 345 209q-33 39 -61 85q-85 -20 -153 -69q-5 126 -28 162q-30 57 -141 50q-15 -48 -47 -91q92 17 107 2q16 -16 26 -86h-195q-39 72 -65 104q-57 61 -155 85q14 0 41 1q76 3 100 3h232q121 -1 169 -8q-5 50 -6 125v50q0 31 3 88q1 11 1 17h-86
q4 -56 4 -123v-86h-414v86q0 99 6 135h-92q7 -74 8 -141v-34q0 -68 -6 -101q-35 15 -65 22q-20 -40 -54 -74q102 -9 177 -41q92 -43 115 -104h-32q-59 1 -115 4v-49q-75 64 -104 80q-18 12 -31 21q-32 -40 -81 -60q84 -27 176 -103q91 -75 133 -157q93 29 96 42q-2 6 -14 16
q-14 11 -24 22q-50 51 -121 117h438q-87 -71 -160 -161zM470 536q95 5 99 20q-1 7 -8 17q-9 12 -11 21q-31 141 -106 206q-98 80 -271 113q-4 -6 -11 -18q-19 -36 -59 -61q206 -18 288 -92q63 -44 79 -206zM605 673q147 67 300 171l-80 71q-112 -108 -279 -178z" />
</svg>
