<?xml version="1.0" standalone="no"?>
<!DOCTYPE svg PUBLIC "-//W3C//DTD SVG 1.1//EN" "http://www.w3.org/Graphics/SVG/1.1/DTD/svg11.dtd" >
<svg xmlns="http://www.w3.org/2000/svg" xmlns:xlink="http://www.w3.org/1999/xlink" version="1.1" viewBox="-10 0 1034 1024">
  <g transform="matrix(1 0 0 -1 0 820)">
   <path fill="currentColor"
d="M186 518q1 1 16 12q21 15 68 55l-1 -200q-1 -3 -1 -7q-1 -12 -3 -27h48q-3 12 -4 49l-1 220q12 15 56 60q24 25 27 26q10 7 26 13q-27 15 -51 37q-39 -54 -69 -88q-27 -28 -82 -75q-73 -60 -145 -85q28 -13 51 -38zM498 214q-1 -48 -5 -69q-15 -88 -80 -146
q-46 -42 -131 -73q-85 -28 -163 -31q18 -15 37 -48q82 18 134 37q49 18 108 54q108 69 139 217q4 33 18 54q-6 0 -57 5zM223 79l-4 -56q-1 -3 -1 -8h48q-3 16 -5 64v185h507v-175q0 -33 -4 -57q0 -3 -1 -8h48q-6 55 -5 75l1 164q0 6 4 42l-66 -6l-482 1q-6 1 -45 5
q1 -30 5 -61v-165zM562 458q0 -57 54 -73q18 -3 52 -6l96 -2q43 0 78 4q55 6 80 39q12 18 30 68q-33 15 -50 37q-3 -43 -8 -61q-9 -30 -38 -40q-28 -9 -87 -9q-57 0 -105 3q-39 3 -49 10q-13 9 -14 43v71q66 25 117 51q51 25 113 62q25 16 49 21q-9 6 -17 11q-18 15 -35 31
q-22 -25 -87 -67q-34 -19 -68 -36q-33 -15 -72 -29v100q0 21 3 34q1 16 11 31h-58q4 -45 5 -80v-100q-99 -36 -179 -41q15 -12 37 -45q7 3 72 21q40 10 70 22v-70zM865 -73l-101 44l-61 25l-93 38q-7 4 -15 8q0 -3 -3 -7q0 -3 -2 -5q0 -6 -15 -33q30 -4 60 -15l87 -37
l101 -48q28 -15 64 -41q1 3 13 35q6 6 11 15z" />
  </g>

</svg>
