<?xml version="1.0" standalone="no"?>
<!DOCTYPE svg PUBLIC "-//W3C//DTD SVG 1.1//EN" "http://www.w3.org/Graphics/SVG/1.1/DTD/svg11.dtd" >
<svg xmlns="http://www.w3.org/2000/svg" xmlns:xlink="http://www.w3.org/1999/xlink" version="1.1" viewBox="-10 0 1010 1000">
   <path fill="currentColor"
d="M452 -10q59 0 77 1q23 1 25 5t-1 14q-11 32 -11 76h232q43 0 92 -5q12 -1 15 -1v79q-31 -6 -109 -6h-230v68h172q48 0 100 -5q13 -1 17 -1v79q-50 -6 -119 -6h-170v66h273q42 0 100 -4q20 -2 25 -2v83q-31 -5 -121 -6h-642q-65 0 -112 5q-7 1 -9 1v-83q3 0 17 1
q56 5 108 5h277v-66h-176q-32 0 -92 3q-21 1 -25 1v-75q4 0 21 1q54 3 92 3h180v-68h-216q-52 0 -103 5q-14 1 -18 1v-79q3 0 15 1q56 5 106 5h216q0 -50 -5 -86q-2 -9 -1 -10zM810 473q0 3 -2 10q-6 38 -6 65v101v0q2 37 4 76h-92l4 -66v-105h-442v97q0 -10 0 10q2 32 4 72
h-92l4 -82v-95q0 -36 -6 -72q-1 -9 -1 -11l101 6h420zM450 584q98 19 106 26q0 3 -5 10q-24 31 -49 91q-47 128 -377 188q-16 -44 -49 -80q-8 -9 -7 -11q184 3 286 -50q87 -48 95 -174zM573 699q227 80 336 127l-66 79q-105 -74 -313 -137z" />
</svg>
