<?xml version="1.0" standalone="no"?>
<!DOCTYPE svg PUBLIC "-//W3C//DTD SVG 1.1//EN" "http://www.w3.org/Graphics/SVG/1.1/DTD/svg11.dtd" >
<svg xmlns="http://www.w3.org/2000/svg" xmlns:xlink="http://www.w3.org/1999/xlink" version="1.1" viewBox="-10 0 1010 1000">
   <path fill="currentColor"
d="M742 -6q99 -3 107 12q1 4 -5 12q-15 25 -15 62v133q96 0 131 -6v81q-54 -4 -129 -4v530q3 49 -26 62q-28 17 -132 25q-5 -51 -44 -109q126 33 123 -22v-446q-81 246 -232 411q-36 -26 -95 -48q172 -115 279 -405h-33q-109 0 -167 6v-77q82 4 161 4h85v-135q0 -39 -8 -86z
M462 427q0 72 5 180q1 8 1 12h-83q0 -6 1 -18q5 -65 5 -174v-296h-212v298q0 147 6 206h-86q0 -5 1 -17q7 -100 7 -189v-159q0 -143 -6 -216q46 4 179 8q73 0 160 -6q23 -2 32 -2q-6 83 -10 204v169zM244 199q97 0 95 12q0 5 -7 14q-18 23 -17 61q3 162 -3 248
q-6 90 -25 147q-24 96 -168 214q-33 -38 -81 -61q159 -83 183 -182q18 -54 22 -151q5 -80 1 -302zM361 653q87 73 151 159l-81 51q-57 -90 -133 -166z" />
</svg>
