<?xml version="1.0" standalone="no"?>
<!DOCTYPE svg PUBLIC "-//W3C//DTD SVG 1.1//EN" "http://www.w3.org/Graphics/SVG/1.1/DTD/svg11.dtd" >
<svg xmlns="http://www.w3.org/2000/svg" xmlns:xlink="http://www.w3.org/1999/xlink" version="1.1" viewBox="-10 0 1034 1024">
  <g transform="matrix(1 0 0 -1 0 820)">
   <path fill="currentColor"
d="M496 421l-394 1q-6 1 -20 2q-4 0 -14 2v-46q30 4 51 5l797 -1q6 0 39 -4v46q-39 -4 -65 -5h-356v86l241 -1q22 0 38 -5v47q-6 0 -61 -5h-218v82l347 -1q4 0 37 -4v46q-6 -1 -14 -2q-31 -3 -50 -3h-320v47q0 18 3 35q1 16 11 30h-58q6 -54 6 -87v-25l-394 5v-46q3 0 7 1
q0 1 61 4h326v-82l-301 5v-47q3 0 7 2q3 0 14 2l163 2h117v-86zM515 150q1 15 5 28q6 13 10 21q-30 1 -56 7q0 -16 1 -28q0 -61 -30 -127q-27 -58 -83 -91q-63 -37 -147 -61q-57 -15 -142 -19q25 -21 40 -47q261 58 335 151q46 54 64 153q1 7 3 13zM790 306q-19 -1 -32 -2
q-21 -3 -59 -3l-437 1q-15 3 -48 4q1 -33 5 -67l-1 -186q-3 -24 -4 -34h48v3q-3 7 -4 36l-1 207h490l-1 -203l-4 -33h48q-1 4 -1 8q-3 31 -4 106q0 109 2 122q0 21 3 41zM549 -11q51 -10 152 -66q114 -66 143 -99q6 9 8 15q0 1 22 30q-51 33 -95 58l-166 86q-6 3 -37 17
q-12 -22 -27 -41v0z" />
  </g>

</svg>
