<?xml version="1.0" standalone="no"?>
<!DOCTYPE svg PUBLIC "-//W3C//DTD SVG 1.1//EN" "http://www.w3.org/Graphics/SVG/1.1/DTD/svg11.dtd" >
<svg xmlns="http://www.w3.org/2000/svg" xmlns:xlink="http://www.w3.org/1999/xlink" version="1.1" viewBox="-10 0 1034 1024">
  <g transform="matrix(1 0 0 -1 0 820)">
   <path fill="currentColor"
d="M291 553q-12 0 -40 3q4 -99 5 -136q-3 -57 -3 -158q0 -18 -13 -89q-10 -45 -22 -75q-31 -63 -99 -124q-30 -27 -73 -49q27 -15 45 -34q36 33 62 58q24 24 40 44q78 96 94 227q1 4 4 89l2 178q0 39 12 66h-14zM118 726l6 -71l-1 -462q-1 -15 -4 -32q0 -4 -1 -8h49
q-1 4 -1 8q0 1 -2 12q0 12 -3 46v466h220l-1 -502l-4 -33h48q-4 54 -5 66l1 458q0 19 4 52q-109 -4 -113 -5l-142 1q-19 3 -51 4zM288 85q42 -24 62 -42q18 -15 44 -53q12 21 18 27t9 10q-18 19 -51 47q-39 31 -58 44q-3 -6 -5 -9q-9 -15 -16 -21q0 -1 -3 -3zM858 407
q-12 -66 -33 -131q-9 -30 -19 -55q-9 -24 -19 -44q-21 -42 -42 -72q-30 49 -57 117q-28 79 -31 135q-13 -9 -50 -16q22 -72 58 -163q19 -45 57 -109q-36 -54 -119 -119q-69 -52 -127 -66q31 -15 49 -33q109 63 222 185q27 -37 64 -73q21 -21 49 -45l71 -60q13 21 44 39
q-43 18 -96 59q-81 69 -110 111q58 94 101 225q24 81 40 156q-36 -1 -73 -5h-276v212l112 15q42 6 100 17l90 17q27 3 62 5q-25 25 -39 51q-39 -15 -70 -24q-22 -6 -65 -15q-117 -21 -188 -21l-44 1q4 -82 6 -124l-2 -251q-1 -10 -1 -22q0 -31 -8 -101q-22 -151 -93 -242
q-28 -33 -66 -61q33 -6 47 -24q43 37 91 125q46 96 57 199q4 39 7 74q1 21 2 50q1 33 2 83h297z" />
  </g>

</svg>
