<?xml version="1.0" standalone="no"?>
<!DOCTYPE svg PUBLIC "-//W3C//DTD SVG 1.1//EN" "http://www.w3.org/Graphics/SVG/1.1/DTD/svg11.dtd" >
<svg xmlns="http://www.w3.org/2000/svg" xmlns:xlink="http://www.w3.org/1999/xlink" version="1.1" viewBox="-10 0 1010 1000">
   <path fill="currentColor"
d="M327 24h373q97 0 125 -6q-6 28 -6 111v44h14q62 0 109 -7q9 -1 12 -1v83q-2 0 -9 -1q-37 -7 -108 -7h-18v38q0 87 6 107q-13 -6 -103 -6h-409q-90 0 -117 6q6 -27 6 -115v-30h-29q-68 0 -117 7q-8 1 -10 1v-81q2 0 10 1q50 7 119 7h27v-48q0 -63 -6 -111q42 7 131 8z
M276 88v87h196v-87h-196zM546 88v87h194v-87h-194zM470 238h-194v78h194v-78zM544 238v78h194v-78h-194zM339 441h338q87 0 121 -4q-4 30 -4 115v22q0 70 7 132q1 9 1 11h-98q9 -27 8 -133v-76h-412v88q0 117 6 139h-96q0 -2 1 -10q7 -46 7 -131v-50q0 -85 -6 -107
q36 3 127 4zM450 530q93 7 115 24q0 5 -10 15q-16 16 -19 31q-29 162 -98 208q-54 49 -309 103q-12 -42 -52 -85q231 -20 301 -81q78 -58 72 -215zM587 677q149 57 334 163l-76 75q-142 -106 -311 -169z" />
</svg>
