<?xml version="1.0" standalone="no"?>
<!DOCTYPE svg PUBLIC "-//W3C//DTD SVG 1.1//EN" "http://www.w3.org/Graphics/SVG/1.1/DTD/svg11.dtd" >
<svg xmlns="http://www.w3.org/2000/svg" xmlns:xlink="http://www.w3.org/1999/xlink" version="1.1" viewBox="-10 0 1034 1024">
  <g transform="matrix(1 0 0 -1 0 820)">
   <path fill="currentColor"
d="M217 645l-145 3q-3 1 -8 2v-45q42 6 66 5h87v-201q0 -6 -3 -28q-1 -9 -3 -31q30 3 60 5l553 -1q25 0 42 -4v46q-51 -6 -63 -6h-548v220h196l-1 -96q-4 -19 -5 -44q30 3 60 5l216 -1q12 0 41 -4q-4 48 -5 91v49l164 -1q4 0 42 -4v45q-31 -1 -64 -5h-142q0 75 3 85
q1 15 10 28h-56q1 -30 5 -60v-53h-232q0 75 3 77q3 15 11 32h-56q6 -60 6 -80v-29h-196q0 54 3 63q1 12 10 28h-57q3 -6 6 -53v-38zM487 510v100h232v-100h-232zM102 -130q0 -1 2 -3q4 -9 9 -16q3 -7 8 -16q52 12 92 23q34 9 62 18q48 16 94 39q66 34 99 78q33 45 60 132
q12 36 12 38q4 12 21 23q-12 3 -28 6t-37 10q0 -22 -8 -70q-9 -42 -19 -64q-46 -102 -193 -149q-97 -31 -181 -36q3 -6 7 -13zM227 290q1 -27 5 -54l-1 -199q-1 -15 -4 -23h47q-4 48 -5 94v142h496v-173q0 -40 -5 -58h48q-4 48 -5 90l1 143l4 38q-54 -6 -56 -6l-481 1
q-24 4 -44 5zM575 12q54 -21 88 -37q33 -15 76 -37q36 -19 85 -50q3 0 49 -31q9 21 21 40l-182 97q-54 27 -116 54q-7 -16 -16 -29q-3 -3 -5 -7v0z" />
  </g>

</svg>
