<?xml version="1.0" standalone="no"?>
<!DOCTYPE svg PUBLIC "-//W3C//DTD SVG 1.1//EN" "http://www.w3.org/Graphics/SVG/1.1/DTD/svg11.dtd" >
<svg xmlns="http://www.w3.org/2000/svg" xmlns:xlink="http://www.w3.org/1999/xlink" version="1.1" viewBox="-10 0 1010 1000">
   <path fill="currentColor"
d="M688 -6q37 75 60 161l-91 24q-13 -74 -56 -161zM75 68q65 8 129 8h92q65 0 135 -7q5 -1 7 -1q-7 53 -7 127v317q0 53 7 113h-93q8 -46 8 -111v-367h-194v363q-1 71 8 113h-92q8 -53 8 -109v-337q0 -58 -7 -102q-1 -5 -1 -7zM925 191q-6 21 -8 44q-2 22 -2 69v48
q0 29 5 77q2 23 3 34h-100q8 -56 8 -109v-84h-271v82q0 74 7 115h-97q8 -42 8 -113v-34q0 -75 -8 -131q35 6 63 8t72 2h183q75 0 137 -8zM212 207q90 0 98 8q0 2 -3 6q-14 22 -15 73q-2 66 -2 198q16 218 -183 409q-7 -5 -19 -13q-39 -29 -68 -36q130 -88 168 -178
q21 -47 28 -111q8 -62 4 -164q1 -133 -8 -192zM327 663q33 31 120 131q6 7 9 10l-77 44q-46 -87 -117 -145zM464 746q57 8 125 8h226q74 0 133 -8v90q-60 -8 -129 -8h-234q-68 0 -121 8v-90z" />
</svg>
