<?xml version="1.0" standalone="no"?>
<!DOCTYPE svg PUBLIC "-//W3C//DTD SVG 1.1//EN" "http://www.w3.org/Graphics/SVG/1.1/DTD/svg11.dtd" >
<svg xmlns="http://www.w3.org/2000/svg" xmlns:xlink="http://www.w3.org/1999/xlink" version="1.1" viewBox="-10 0 1034 1024">
  <g transform="matrix(1 0 0 -1 0 820)">
   <path fill="currentColor"
d="M296 308l3 191q1 7 10 21q-37 0 -58 5q3 -37 5 -62q1 -33 2 -78l1 -84q0 -171 -40 -245q-33 -60 -95 -112q-42 -30 -81 -48q22 -12 44 -36q81 64 128 121q76 96 79 238zM113 687l4 -55l-1 -464q-1 -7 -4 -29h48q-3 24 -4 49l-1 470h233l-1 -476l-4 -33h49q-3 7 -5 52
l1 450l4 49q-15 -1 -29 -4q-22 -3 -30 -3l-216 1q-15 3 -31 4q-3 0 -14 2q0 -6 1 -13zM415 27l-52 48q-9 10 -18 19q-15 -21 -33 -35q46 -33 74 -60q27 -28 43 -47q9 -12 22 -32q16 21 34 36zM521 -89q-3 -43 -4 -60q-1 -1 -1 -5h48q-6 55 -5 83v12h316q0 -49 -3 -71
q-1 -3 -2 -14h48q0 3 -1 8q-1 3 -4 58l1 347l4 47q-31 -1 -64 -5h-145v218l219 -1q6 0 38 -4v47l-64 -6h-193v137q0 18 3 34q1 15 11 31h-57q4 -42 5 -65v-391l-111 1q-15 3 -44 4q1 -31 5 -65v-340zM559 -23v298h316v-298h-316z" />
  </g>

</svg>
