<?xml version="1.0" standalone="no"?>
<!DOCTYPE svg PUBLIC "-//W3C//DTD SVG 1.1//EN" "http://www.w3.org/Graphics/SVG/1.1/DTD/svg11.dtd" >
<svg xmlns="http://www.w3.org/2000/svg" xmlns:xlink="http://www.w3.org/1999/xlink" version="1.1" viewBox="-10 0 1010 1000">
   <path fill="currentColor"
d="M468 -19q89 -2 109 7q0 1 -4 6q-23 27 -23 76v16h158q89 -1 157 -10v85q-42 -8 -147 -8h-168q0 62 8 93h-90q7 -25 8 -93h-180q-105 -1 -145 8v-85q46 10 149 10h176v-16q1 -61 -8 -89zM284 191q77 2 89 12q0 2 -4 9q-12 24 -12 52v16h302v-8q-1 -48 -8 -81q82 2 95 8
q0 2 -3 6q-13 21 -13 61v14h62q92 2 160 -8v80q-29 -7 -124 -6h-22h-74q0 54 8 81h-85q6 -21 6 -81h-304q0 55 8 79h-85q8 -24 8 -79h-103q-59 0 -124 7q-11 1 -13 1v-84q51 9 139 10h101v-12q0 -43 -4 -77zM212 439q45 3 137 6h314q68 0 141 -6q-8 83 -8 107v60q0 60 8 104
q2 11 2 15h-100q9 -35 10 -131v-86h-418v76q1 99 8 139h-98q10 -43 10 -141v-18q-1 -72 -6 -125zM450 540q85 11 115 24q0 2 -8 13q-27 37 -31 62q-23 153 -149 205q-76 33 -258 61q-19 -53 -56 -97q125 15 239 -18q161 -45 148 -250zM563 681q208 75 344 149l-58 87
q-146 -94 -335 -163z" />
</svg>
