<?xml version="1.0" standalone="no"?>
<!DOCTYPE svg PUBLIC "-//W3C//DTD SVG 1.1//EN" "http://www.w3.org/Graphics/SVG/1.1/DTD/svg11.dtd" >
<svg xmlns="http://www.w3.org/2000/svg" xmlns:xlink="http://www.w3.org/1999/xlink" version="1.1" viewBox="-10 0 1010 1000">
   <path fill="currentColor"
d="M232 185q97 -1 95 12q1 3 -5 10q-19 26 -18 65q3 161 -3 248q-6 90 -25 147q-25 97 -169 214q-35 -38 -81 -61q159 -83 183 -182q18 -54 22 -151q5 -80 1 -302zM595 300q104 14 101 26q-17 21 -52 107q-41 100 -77 179l133 -14q-21 -85 -41 -131l75 -14q44 117 70 246
l-88 12q0 -32 -6 -62q-145 28 -210 42l-20 -66q53 -7 115 -325zM347 643q100 87 151 159l-81 52q-53 -93 -133 -167zM442 475q-3 99 6 146h-85q6 -41 6 -162v-326h-210v342q-3 113 8 164h-86q6 -59 6 -156v-254q0 -116 -8 -171q51 6 181 6q132 0 190 -10q-8 39 -8 139v282z
M577 -8q103 10 117 24q0 2 -5 8q-37 40 -74 133h198q63 0 110 -12q-5 87 -10 317q-7 252 -12 316q-5 68 -42 91q-32 24 -147 34q-3 -53 -47 -103q97 20 126 2q32 -14 34 -87q2 -39 4 -94q5 -82 8 -392h-248q-58 114 -77 144q-14 -30 -66 -53q115 -162 131 -328z" />
</svg>
