<?xml version="1.0" standalone="no"?>
<!DOCTYPE svg PUBLIC "-//W3C//DTD SVG 1.1//EN" "http://www.w3.org/Graphics/SVG/1.1/DTD/svg11.dtd" >
<svg xmlns="http://www.w3.org/2000/svg" xmlns:xlink="http://www.w3.org/1999/xlink" version="1.1" viewBox="-10 0 1034 1024">
  <g transform="matrix(1 0 0 -1 0 820)">
   <path fill="currentColor"
d="M52 -111q30 -21 40 -42q96 28 173 75q57 39 85 84q24 45 37 135q3 28 20 44q-39 3 -59 10q0 -72 -12 -126q-28 -96 -156 -148q-78 -31 -128 -32zM654 605l-589 5v-46q60 6 102 5h487l5 -135q6 -96 14 -160q18 -147 60 -247q49 -118 108 -160q28 -19 48 -20q36 0 55 57
l19 70q-33 18 -52 40v-57q-6 -60 -30 -63q-4 0 -20 12q-42 36 -62 75q-22 37 -45 104q-21 63 -34 130q-19 111 -23 249q-3 63 -3 105l206 -1q6 0 38 -4v46q-31 -1 -64 -5h-180q-3 15 0 42l3 88q0 16 7 34q-25 0 -55 4zM135 340q3 0 7 1q1 1 60 4l353 -1q4 0 38 -4v47
q-7 0 -15 -3q-27 -3 -50 -3l-353 1q-7 1 -27 2q-3 0 -13 3v-47zM203 447q3 0 8 1q3 1 13 2q13 0 46 3l209 -1q7 0 48 -5v48q-9 -3 -15 -4q-25 -3 -49 -3l-226 1q-21 3 -20 2q-3 1 -14 4v-48zM171 72q-3 -57 -5 -65h47q0 3 -1 8q0 6 -2 11l-2 219h314v-169q0 -34 -4 -57
q-1 -3 -1 -8h48v3q-3 6 -4 32l-1 180q1 30 5 60q-33 -1 -67 -5l-287 1q-19 3 -45 4q1 -18 2 -29q3 -24 3 -31v-154zM388 -13q36 -9 119 -55l58 -37q21 -15 47 -40q12 25 29 42l-125 76q-48 27 -103 56q-3 -9 -7 -14q0 -3 -9 -13zM837 696q-57 48 -67 55q-10 -18 -26 -34
q57 -39 100 -90q9 16 30 36q-4 4 -37 33v0z" />
  </g>

</svg>
