<?xml version="1.0" standalone="no"?>
<!DOCTYPE svg PUBLIC "-//W3C//DTD SVG 1.1//EN" "http://www.w3.org/Graphics/SVG/1.1/DTD/svg11.dtd" >
<svg xmlns="http://www.w3.org/2000/svg" xmlns:xlink="http://www.w3.org/1999/xlink" version="1.1" viewBox="-10 0 1010 1000">
   <path fill="currentColor"
d="M421 0q8 10 22 29q42 51 33 57q-3 3 -22 2q-35 -2 -59 2q-88 15 -191 25v169l147 -63q-7 -9 -31 -31q-10 -10 -16 -15l59 -40q80 64 129 129l-65 48q-21 -24 -36 -42q-121 49 -238 123l-46 -65q23 -24 24 -52v-101q0 -64 -8 -111q-3 -8 8 -8q118 9 290 -56zM909 58
q-4 32 -10 104q-9 101 -16 138q-2 66 -155 73q-6 -47 -40 -93q100 16 116 -14q12 -30 15 -145h-123q-33 189 -166 272q-41 -31 -90 -51q146 -43 183 -223q-71 0 -113 6v-79q38 4 73 5q40 1 131 1q80 0 152 -3q26 -1 37 -1q9 -1 6 10zM452 520q6 0 18 1q93 5 88 17q0 4 -5 12
q-18 29 -29 81q-30 212 -409 272q-6 -42 -59 -93q412 4 396 -290zM597 681q184 64 332 139l-74 81q-109 -73 -319 -155zM190 401q73 4 163 4h298q116 0 168 -6q-7 35 -7 147q0 104 7 145h-99q6 -30 6 -95v-123h-456q0 112 2 153q1 40 6 63h-90q10 -51 10 -157q0 -78 -8 -131
z" />
</svg>
