<?xml version="1.0" standalone="no"?>
<!DOCTYPE svg PUBLIC "-//W3C//DTD SVG 1.1//EN" "http://www.w3.org/Graphics/SVG/1.1/DTD/svg11.dtd" >
<svg xmlns="http://www.w3.org/2000/svg" xmlns:xlink="http://www.w3.org/1999/xlink" version="1.1" viewBox="-10 0 1034 1024">
  <g transform="matrix(1 0 0 -1 0 820)">
   <path fill="currentColor"
d="M30 -139q31 -12 48 -30q103 91 147 221q18 55 25 128q3 42 6 102q3 66 4 154q3 48 4 72q0 12 9 28q-33 0 -54 4q3 -76 3 -124q-1 -129 -9 -242q-6 -79 -41 -158q-36 -70 -82 -116q-28 -24 -60 -39zM92 190q-1 -18 -1 -37l-4 -25v-6h47q-6 60 -5 99v439h209l-5 -534h48
q-4 54 -5 66l1 465l4 44q-63 -6 -85 -6l-159 1q-30 4 -50 5q1 -19 2 -32q3 -21 3 -31v-448zM350 29q-36 39 -58 66q-16 -16 -33 -28q24 -18 62 -65q36 -48 50 -72q15 22 31 34l-12 16zM580 258q22 0 50 -3q3 0 13 -3v48q-6 0 -37 -5l-50 -1q0 63 4 132q0 9 9 22l-54 4
q0 -43 4 -128q-1 -3 0 -9v-21q-102 3 -108 5q-3 1 -4 1v-48q4 3 32 5l79 1q-9 -150 -53 -243q-45 -97 -119 -145q27 -3 54 -21q63 69 104 160q24 57 35 108q10 52 17 141h24zM479 568q-31 0 -53 3q-4 0 -13 4v-49q3 0 7 2q6 3 28 3l221 1l9 -128q6 -64 12 -105
q6 -43 32 -155q-16 -25 -37 -49l-56 -63q-52 -54 -109 -81q30 -6 56 -25q34 30 76 73q48 54 83 98l39 -96q12 -30 25 -50q22 -40 47 -67q34 -37 61 -38q36 0 54 49q7 21 18 68q-27 15 -46 41q0 -33 -4 -73q-3 -31 -22 -32q-22 0 -54 41q-27 36 -58 114q-9 22 -16 43
q-6 15 -14 46q51 88 82 173q24 67 31 78q6 12 28 30q-33 10 -62 24q-12 -57 -36 -124q-25 -75 -56 -125q-27 108 -35 208l-9 125l205 -1q9 0 28 -5v49q-7 -3 -15 -4q-30 -3 -49 -3h-170l-2 107q0 63 6 72q3 16 14 29q-33 3 -64 4l5 -113l1 -99h-188zM830 702q-39 43 -45 50
q-22 -22 -36 -31q52 -39 96 -117q18 24 36 36q-7 9 -17 21z" />
  </g>

</svg>
