<?xml version="1.0" standalone="no"?>
<!DOCTYPE svg PUBLIC "-//W3C//DTD SVG 1.1//EN" "http://www.w3.org/Graphics/SVG/1.1/DTD/svg11.dtd" >
<svg xmlns="http://www.w3.org/2000/svg" xmlns:xlink="http://www.w3.org/1999/xlink" version="1.1" viewBox="-10 0 1010 1000">
   <path fill="currentColor"
d="M276 -8q7 3 19 8q78 32 72 42q-1 6 -13 12q-42 22 -82 87v139q0 86 4 137h-91q3 -7 5 -194q-13 15 -38 41q-40 44 -55 62l-67 -60q140 -111 246 -274zM730 -6q60 45 91 88l-65 43q-47 -66 -89 -97zM456 532q13 2 37 4q70 8 67 16q1 4 -5 12q-14 18 -19 42
q-33 245 -375 299q-26 -47 -70 -83q216 -13 291 -76q81 -62 74 -214zM571 685q176 70 306 143l-67 77q-108 -75 -290 -159zM571 2q1 6 -3 14q-7 16 -5 36q10 76 26 119l193 -30q95 -18 125 -24l12 82q-55 0 -123 10l-179 28q75 108 208 126q32 1 34 -107l83 56
q-23 84 -50 107q-26 25 -88 18q-157 -26 -260 -189l-92 12q-105 19 -123 28l-16 -81q11 -4 116 -14l89 -12q-11 -31 -37 -119q-11 -37 -17 -56q104 -17 107 -4zM214 431q22 6 53 8q29 2 98 2h276h64q20 0 33 -1q26 0 42 -3q-6 38 -4 137q3 114 10 133h-96q6 -17 7 -61
q2 -47 1 -150h-400q0 127 1 159q2 44 7 64h-98q13 -25 12 -157q0 -84 -6 -131z" />
</svg>
