<?xml version="1.0" standalone="no"?>
<!DOCTYPE svg PUBLIC "-//W3C//DTD SVG 1.1//EN" "http://www.w3.org/Graphics/SVG/1.1/DTD/svg11.dtd" >
<svg xmlns="http://www.w3.org/2000/svg" xmlns:xlink="http://www.w3.org/1999/xlink" version="1.1" viewBox="-10 0 1034 1024">
  <g transform="matrix(1 0 0 -1 0 820)">
   <path fill="currentColor"
d="M190 639q-33 0 -70 5v-45q39 4 70 5h82q-18 -93 -74 -150q-63 -64 -143 -74q27 -22 43 -40q28 12 46 23q18 12 46 34q93 72 123 207h179l-16 -120q-13 -58 -73 -59q-24 0 -61 6q10 -22 20 -51q73 6 105 20q24 15 34 37q10 24 19 83q6 37 11 79q4 19 10 45q-36 -1 -73 -5
h-149q3 10 4 25q7 51 13 64q3 15 19 33q-31 3 -64 10q-3 -70 -11 -132h-90zM534 210q-6 3 -17 4q-4 -63 -22 -118q-21 -61 -67 -102q-45 -37 -130 -65q-75 -24 -172 -27q15 -18 31 -49q99 15 197 54q85 37 127 85q40 48 64 134q3 6 7 21q1 10 5 20q4 18 24 32q-18 3 -30 7
q-9 3 -17 4zM267 102q0 -36 -5 -78h48q-1 6 -5 66v185h472l-1 -204q-1 -6 -4 -39h49q-6 42 -6 106l1 130q1 24 5 47q-60 -4 -67 -5l-444 1q-3 0 -48 4q1 -31 5 -65v-148zM581 2q87 -22 134 -44q79 -33 133 -59q45 -22 86 -52l24 46q-76 39 -159 76q-87 36 -201 79
q-3 -19 -17 -46zM623 407q63 6 86 6l159 -1q10 0 51 -5q-4 54 -5 77q0 151 2 165q0 18 3 38l-111 -5q-121 0 -148 2q-6 3 -37 3q4 -66 5 -93q0 -117 -2 -148q-3 -6 -3 -39zM874 647v-200h-208v200h208z" />
  </g>

</svg>
