<?xml version="1.0" standalone="no"?>
<!DOCTYPE svg PUBLIC "-//W3C//DTD SVG 1.1//EN" "http://www.w3.org/Graphics/SVG/1.1/DTD/svg11.dtd" >
<svg xmlns="http://www.w3.org/2000/svg" xmlns:xlink="http://www.w3.org/1999/xlink" version="1.1" viewBox="-10 0 1034 1024">
  <g transform="matrix(1 0 0 -1 0 820)">
   <path fill="currentColor"
d="M118 -96q165 157 179 355q9 153 10 197q0 52 8 60q4 7 13 16q-39 4 -65 10q4 -45 5 -60l-3 -146q-7 -145 -33 -207q-30 -82 -104 -160q-36 -34 -79 -60q21 -9 48 -26zM179 708q-3 0 -58 5q3 -12 3 -28q3 -18 3 -26v-457q0 -45 -6 -60h48q-4 30 -5 60v470h233v-468
q0 -45 -5 -59h48q0 6 -2 12q-3 48 -3 77l1 439l4 40q-27 -1 -53 -5h-208zM341 106q-9 9 -13 14q-12 -15 -24 -25q-3 -3 -6 -5q81 -64 132 -129q12 15 29 30l-64 64zM435 -145q121 81 174 165q30 52 41 105q10 54 19 190h77v-345q0 -48 14 -66q13 -18 46 -23q30 -6 42 -6
q7 0 16 2q12 0 23 3q42 6 65 41q13 25 25 67q3 13 5 20q-30 9 -51 20v-16q0 -24 -4 -43q-9 -36 -31 -46q-21 -9 -47 -9q-3 0 -22 2q-19 4 -28 9q-15 7 -15 45v345q67 0 80 -2q15 0 32 -3q-4 48 -5 96l1 264q0 16 4 41q-18 -1 -26 -2q-22 -3 -65 -3l-248 1q-15 3 -42 4l5 -96
l-1 -261q-3 -12 -4 -44q45 4 95 5h20q-1 -141 -26 -216q-30 -93 -133 -167q-36 -27 -78 -39q12 -6 21 -15q1 -3 21 -23zM557 351v319h296v-319h-296z" />
  </g>

</svg>
