<?xml version="1.0" standalone="no"?>
<!DOCTYPE svg PUBLIC "-//W3C//DTD SVG 1.1//EN" "http://www.w3.org/Graphics/SVG/1.1/DTD/svg11.dtd" >
<svg xmlns="http://www.w3.org/2000/svg" xmlns:xlink="http://www.w3.org/1999/xlink" version="1.1" viewBox="-10 0 1010 1000">
   <path fill="currentColor"
d="M641 -4l27 6q93 21 90 26q0 3 -14 17q-20 20 -26 31q-23 41 -82 150q-32 61 -45 84l234 -4q-41 -76 -85 -123l75 -34q86 119 139 246l-81 36q-4 -15 -20 -60q14 36 -2 -6q-57 0 -223 12q-18 1 -25 2q-43 3 -105 18l-20 -67q0 -2 7 -5q46 -22 86 -110q50 -113 70 -219z
M456 58q-8 32 -8 93v347q0 79 7 129q1 10 1 14h-91q0 -4 2 -16q6 -49 6 -115v-373h-200v351q0 114 8 153h-92q8 -66 8 -151v-355q0 -42 -6 -73q24 5 80 4h172q58 0 113 -8zM230 199q86 2 99 12q0 3 -7 12q-12 17 -12 29q-3 239 -9 300q-7 80 -29 135q-49 118 -151 210
q-37 -32 -83 -49q141 -105 174 -215q19 -58 24 -143q6 -78 0 -238q0 -29 -6 -53zM522 475q47 8 105 8h185q47 0 79 -6q8 -2 12 -2q-11 41 -8 75v240q-3 42 8 109h-90q0 -4 1 -16q5 -31 5 -69h-214q0 37 6 91h-89q9 -59 8 -107v-248q1 -37 -8 -75zM605 554v188h214v-188h-214
zM341 657q69 62 153 163l-77 49q-53 -86 -137 -166z" />
</svg>
