<?xml version="1.0" standalone="no"?>
<!DOCTYPE svg PUBLIC "-//W3C//DTD SVG 1.1//EN" "http://www.w3.org/Graphics/SVG/1.1/DTD/svg11.dtd" >
<svg xmlns="http://www.w3.org/2000/svg" xmlns:xlink="http://www.w3.org/1999/xlink" version="1.1" viewBox="-10 0 1010 1000">
   <path fill="currentColor"
d="M581 -21q100 5 106 9q0 4 -5 10q-11 11 -15 28q-3 39 -6 72q84 -9 170 -22q-6 49 -6 100q-1 52 3 99q10 103 31 110q26 -7 46 -93q51 54 71 66q-63 140 -111 136q-120 -44 -113 -337q-31 2 -99 10q-8 61 -24 105q29 21 103 54l-51 73q-49 -39 -84 -59q-56 79 -159 139
h203q102 0 157 -6q-6 49 -6 137q0 92 8 125h-102q9 -38 10 -129v-56h-422v62q0 89 6 134h-94q8 -39 8 -129v-27q1 -48 -8 -109q-4 1 -12 4q-14 4 -19 7q-5 -48 -32 -87q103 15 99 -32v-57q-48 8 -151 40l-25 -80q58 -1 176 -26v-91h-53q-75 -3 -118 10v-85q54 12 118 12h53
v-20q-1 -60 -10 -93q87 1 105 7q0 2 -4 8q-19 27 -19 74v24h11q69 0 102 -10q6 -2 8 -2v81q-24 -9 -110 -8h-11v80q24 -9 127 -36l-4 79q-62 7 -123 22v99q4 49 -80 72q63 6 127 6h72q-25 -31 -74 -54q124 -38 189 -119q-19 -8 -66 -24q-14 -5 -22 -8l44 -61q39 14 73 37
q7 -23 14 -75q-100 11 -137 20l-8 -83q69 0 149 -8q0 -63 -6 -125zM454 576q96 14 104 26q0 5 -7 12q-16 14 -23 39q-41 166 -185 205q-113 33 -200 49q-24 -53 -68 -89q216 0 296 -58q80 -46 83 -184zM567 695q178 55 344 143l-74 79q-174 -105 -315 -151z" />
</svg>
