<?xml version="1.0" standalone="no"?>
<!DOCTYPE svg PUBLIC "-//W3C//DTD SVG 1.1//EN" "http://www.w3.org/Graphics/SVG/1.1/DTD/svg11.dtd" >
<svg xmlns="http://www.w3.org/2000/svg" xmlns:xlink="http://www.w3.org/1999/xlink" version="1.1" viewBox="-10 0 1010 1000">
   <path fill="currentColor"
d="M556 -12q81 0 85 10q1 4 -6 13q-8 12 -8 19q0 8 -1 21q-1 16 -1 29h109q77 -1 125 -4q6 0 6 6q-4 39 -4 77v34q0 33 4 81v3q1 1 -2 1h-5q-71 -6 -112 -6h-123v64h153q63 0 143 -6q4 0 4 4q-11 83 -26 143q-15 42 -95 47q0 -36 -34 -77q35 7 47 -2q10 -6 11 -36
q1 -9 1 -14h-204v101h73q55 0 80 -2q5 -1 4 4q-2 14 -2 64v34q0 82 4 135h-88q4 -39 4 -137v-38h-396v40q0 51 4 131h-84q6 -57 6 -127v-60q-11 4 -35 16q-44 21 -72 30q-18 -38 -56 -78q200 -23 276 -113h-73q-75 1 -121 4q-5 1 -4 -4q0 -8 2 -39q1 -28 2 -46v-32
q0 -38 -4 -63l4 -6q40 3 107 4h109v-70h-139q-90 0 -119 6v-73q14 4 119 4h139q1 -63 -6 -90q93 0 91 10q-1 4 -5 11q-6 11 -8 23q-5 27 -6 46h131q0 -44 -1 -60q-1 -20 -3 -32zM623 143v70h165v-70h-165zM560 143h-131v70h131v-70zM361 272h-143v64h139q5 -10 4 -54v-10z
M560 272h-131q0 45 -4 64h135v-64zM560 395h-145q-25 62 -98 101h243v-101zM464 582q96 12 96 26q-1 5 -10 16q-17 19 -24 39q-23 69 -66 117q-86 87 -303 121q-11 -40 -50 -85q143 5 270 -58q80 -52 87 -176zM581 715q151 49 306 123l-58 71q-113 -67 -297 -129z" />
</svg>
