<?xml version="1.0" standalone="no"?>
<!DOCTYPE svg PUBLIC "-//W3C//DTD SVG 1.1//EN" "http://www.w3.org/Graphics/SVG/1.1/DTD/svg11.dtd" >
<svg xmlns="http://www.w3.org/2000/svg" xmlns:xlink="http://www.w3.org/1999/xlink" version="1.1" viewBox="-10 0 1010 1000">
   <path fill="currentColor"
d="M468 34q51 6 169 6h147q70 0 127 -8q15 -3 18 -2v91q-5 0 -18 -2q-52 -7 -133 -7h-232v250h250q83 0 144 -6v85q-45 -7 -142 -8h-32q2 100 24 167q64 -64 97 -110q51 39 61 62q-1 3 -16 11q-27 14 -45 27q-10 7 -32 24q-23 18 -43 33q47 93 158 173q-46 25 -83 71
q-178 -178 -183 -458h-45v339q40 -20 87 -53l12 79q-98 46 -177 103l-33 -75q43 -23 39 -54v-341h-37q-20 328 -119 470q-25 -20 -90 -38q64 -54 94 -150q46 -137 39 -542q0 -65 -6 -137zM75 34q51 5 147 6h44q85 0 151 -6q-6 56 -6 127v286q1 138 6 172h-88q6 -28 6 -166
v-341h-178v363q0 79 7 143q1 13 1 17h-92q8 -60 8 -166v-300q-1 -83 -6 -135zM210 181q72 6 94 16q0 2 -4 7q-14 21 -14 46q-4 330 -38 427l56 -36q38 44 97 131l-72 40q-28 -61 -87 -123q-48 118 -135 194q-15 -19 -54 -47q-12 -8 -17 -12q75 -37 135 -141q49 -83 43 -403
q0 -74 -4 -99zM583 191q41 6 131 6h40q91 0 133 -6v83q-29 -6 -123 -6h-44q-106 0 -137 6v-83z" />
</svg>
