<?xml version="1.0" standalone="no"?>
<!DOCTYPE svg PUBLIC "-//W3C//DTD SVG 1.1//EN" "http://www.w3.org/Graphics/SVG/1.1/DTD/svg11.dtd" >
<svg xmlns="http://www.w3.org/2000/svg" xmlns:xlink="http://www.w3.org/1999/xlink" version="1.1" viewBox="-10 0 1034 1024">
  <g transform="matrix(1 0 0 -1 0 820)">
   <path fill="currentColor"
d="M46 -117q4 -3 11 -8q15 -9 17 -11q6 -4 13 -11q90 82 128 151q48 85 58 206l7 118q0 145 3 154q0 30 16 45q0 1 3 3q-13 3 -27 4q-12 0 -21 4q-6 0 -14 3q3 -49 4 -92q0 -126 -3 -184q-1 -3 -1 -9q-4 -72 -14 -119q-25 -115 -107 -195q-37 -34 -78 -55q1 -1 5 -4z
M124 184q0 -46 -6 -64h48q-1 12 -2 14q-3 6 -3 36l-1 512h205v-497q0 -48 -5 -63h48q-4 60 -5 63l1 498l4 42q-15 -1 -27 -3q-22 -3 -65 -3l-158 1q-24 4 -40 5l6 -60v-481zM285 59q10 -9 50 -52l64 -79l37 -53q15 18 30 30q-30 39 -72 89q-46 51 -79 94q-12 -15 -30 -29z
M724 466q31 -99 82 -174q49 -72 132 -140q9 6 15 13t31 25q-60 24 -114 81q-64 72 -105 195q72 0 85 -2l33 -4q-4 49 -5 71l1 151l4 46q-48 -6 -56 -6l-272 1q-19 4 -40 5q1 -19 2 -33q3 -21 3 -29v-141q0 -55 -9 -128q-12 -81 -45 -142q-25 -46 -53 -81q27 -7 48 -17
q42 81 64 143q12 33 19 65q6 36 13 101h167zM558 503v181h282v-181h-282zM826 -136q7 15 17 26q-42 39 -97 76l-68 47l-95 62q-3 -3 -7 -12q-4 -6 -8 -14q-3 -6 -8 -14q33 -16 59 -35q28 -18 68 -46q87 -61 130 -104q4 7 9 14zM610 251l99 -56l86 -56q18 34 19 37
q-117 72 -166 100l-19 13q-9 -21 -19 -38v0z" />
  </g>

</svg>
