<?xml version="1.0" standalone="no"?>
<!DOCTYPE svg PUBLIC "-//W3C//DTD SVG 1.1//EN" "http://www.w3.org/Graphics/SVG/1.1/DTD/svg11.dtd" >
<svg xmlns="http://www.w3.org/2000/svg" xmlns:xlink="http://www.w3.org/1999/xlink" version="1.1" viewBox="-10 0 1034 1024">
  <g transform="matrix(1 0 0 -1 0 820)">
   <path fill="currentColor"
d="M348 535q-18 -18 -38 -35q-24 -16 -63 -40q-67 -40 -107 -63q-27 -13 -58 -26q15 -19 31 -49q21 21 78 56q105 63 112 67q28 18 42 28zM121 678q100 -19 174 -91q10 33 23 49l-94 50l-55 26q-1 0 -26 12l-12 -31q-6 -7 -10 -15zM121 -131q24 -13 39 -46q78 15 144 39
q126 51 181 141q18 31 30 65q10 40 23 111q4 27 20 43q-12 0 -21 1q-19 0 -41 5q0 -13 1 -24q0 -27 -10 -70q-18 -88 -48 -127q-63 -87 -204 -123q-42 -12 -114 -15zM244 55l-4 -58q-1 -3 -1 -8h49q0 3 -1 8q-3 7 -4 31l-1 258h474v-222q0 -34 -4 -57q-1 -4 -1 -9h48
q0 3 -1 9t-4 57l1 216l4 47q-60 -4 -68 -5l-443 1q-19 3 -49 4q1 -33 5 -68v-204zM612 631q-16 -102 -86 -167q-66 -60 -154 -74q24 -15 39 -46q58 24 123 73q21 18 44 42q19 27 49 75q51 -66 111 -117q37 -30 68 -53q40 -22 103 -54q19 33 44 50q-48 4 -87 22
q-76 34 -142 100q-34 34 -48 53q-15 19 -31 48q6 22 14 48h169q-4 -6 -8 -14q-22 -42 -53 -77q24 -3 47 -16l6 13q4 6 9 15q12 24 26 46q12 21 22 41q7 16 17 33q-34 -1 -69 -5h-320q6 12 14 24q25 48 56 62q-40 12 -63 24q-54 -139 -156 -212q27 -9 44 -27q24 22 39 41
q15 18 41 52h132zM867 -148q3 3 15 28q-6 4 -93 48q-133 60 -187 81q-16 7 -32 13q-9 -30 -21 -45q87 -22 184 -71q105 -51 125 -77q4 12 9 23v0z" />
  </g>

</svg>
