<?xml version="1.0" standalone="no"?>
<!DOCTYPE svg PUBLIC "-//W3C//DTD SVG 1.1//EN" "http://www.w3.org/Graphics/SVG/1.1/DTD/svg11.dtd" >
<svg xmlns="http://www.w3.org/2000/svg" xmlns:xlink="http://www.w3.org/1999/xlink" version="1.1" viewBox="-10 0 1010 1000">
   <path fill="currentColor"
d="M260 -21q87 32 99 43q0 1 -5 4q-42 28 -88 99v205q0 102 8 133h-87q7 -27 7 -129v-121q-38 49 -101 127q-2 -3 -7 -8q-38 -44 -52 -62q133 -96 226 -291zM806 22q60 71 63 86q-1 2 -16 1q-43 -3 -85 1q-12 1 -66 7q-49 6 -67 8v92h141q112 -2 162 -10v87
q-54 -10 -160 -10h-143v87h69q98 -1 173 -11v85q-46 -7 -140 -6h-31h-220q-116 0 -155 8v-87q37 9 157 11h72v-87h-112q-117 0 -146 6v-81q55 7 146 8h112v-86q-18 1 -79 4q-84 5 -110 6q-9 -52 -32 -83q45 7 104 8q60 0 129 -5q155 -13 234 -39zM204 492q47 4 137 6h308
q93 -1 153 -6q-5 34 -6 102v19q0 98 6 122h-96q10 -51 10 -112v-57h-426v55q1 86 8 117h-96q7 -36 8 -125v-13q0 -61 -6 -108zM460 602q107 10 105 15q0 2 -4 10q-15 25 -25 58q-32 115 -163 171q-53 21 -248 55q-14 -48 -60 -95q103 10 199 -8q92 -19 139 -58
q56 -47 57 -148zM573 707q210 67 340 127l-58 85q-77 -60 -329 -147z" />
</svg>
