<?xml version="1.0" standalone="no"?>
<!DOCTYPE svg PUBLIC "-//W3C//DTD SVG 1.1//EN" "http://www.w3.org/Graphics/SVG/1.1/DTD/svg11.dtd" >
<svg xmlns="http://www.w3.org/2000/svg" xmlns:xlink="http://www.w3.org/1999/xlink" version="1.1" viewBox="-10 0 1034 1024">
  <g transform="matrix(1 0 0 -1 0 820)">
   <path fill="currentColor"
d="M234 395q0 -45 -5 -58h48q-4 22 -5 58v265l43 59q4 4 9 11q13 13 31 19q-31 16 -52 33q-16 -39 -67 -105q-48 -64 -90 -105q-52 -45 -83 -58q24 -16 37 -32q36 30 65 56q28 27 69 74v-217zM149 -130l9 -15q7 -9 9 -13q123 25 203 67q132 73 182 209l18 45q7 15 23 29
q-40 9 -62 18q-13 -90 -52 -155q-43 -79 -164 -128q-99 -40 -178 -40q6 -7 12 -17zM244 291q1 -24 5 -48l-1 -231q-3 -16 -5 -24h48l-6 59v213h515v-205q0 -43 -5 -59h49q-3 30 -5 59l1 204q0 16 4 41q-28 -1 -58 -5l-502 1q-3 0 -41 4q0 -4 1 -9zM616 562l-288 2q3 0 -11 2
l-3 1v-46q15 4 39 5l263 1v-107h-160q-36 0 -48 2q-4 0 -13 4v-46q39 4 61 5l406 -1q3 0 36 -4v46q-21 -1 -44 -5l-201 -1v107l275 -1q22 0 41 -5v46q-30 -1 -62 -5h-254v126l191 27q15 3 26 3q9 0 23 -1q-18 15 -48 48q-30 -12 -59 -20l-59 -11q-36 -6 -73 -10
q-100 -10 -215 -11q-21 0 -51 5q13 -25 22 -46q36 3 96 4l110 8v-122zM790 -40l-153 75q-12 6 -22 12q-9 -21 -17 -35l170 -85q57 -33 140 -86q9 18 21 40q-15 7 -32 17l-52 30z" />
  </g>

</svg>
