<?xml version="1.0" standalone="no"?>
<!DOCTYPE svg PUBLIC "-//W3C//DTD SVG 1.1//EN" "http://www.w3.org/Graphics/SVG/1.1/DTD/svg11.dtd" >
<svg xmlns="http://www.w3.org/2000/svg" xmlns:xlink="http://www.w3.org/1999/xlink" version="1.1" viewBox="-10 0 1010 1000">
   <path fill="currentColor"
d="M591 -2q77 10 103 20q0 1 -2 2q-22 17 -53 86h115q68 0 151 -8q-62 171 -151 269q91 60 216 80q-37 35 -55 85q-136 -49 -213 -117q-89 71 -148 107q47 8 111 8h67q85 0 141 -8q-10 46 -10 103v149q0 55 9 114q1 3 1 5h-95q9 -31 8 -73h-171q0 45 8 75h-93q8 -42 8 -109
v-141q0 -62 -8 -109l-36 16q-15 -21 -56 -50v18q0 74 8 109h-87q9 -39 8 -101v-389h-204v391q0 75 8 119h-86q8 -65 8 -121v-325q0 -65 -7 -123q-1 -8 -1 -12l30 3q43 5 89 5h108q81 0 134 -8q-8 62 -8 123v109q105 -93 153 -302zM796 169h-179q-1 58 83 155q72 -90 96 -155
zM228 197q86 7 91 16q1 1 -4 10q-13 23 -13 41q1 353 -46 441q-40 81 -155 192q-17 -24 -73 -55q120 -72 162 -163q41 -80 38 -260v-222zM573 240q-16 35 -61 104q-33 -21 -74 -28v171q123 -39 215 -118q-51 -63 -80 -129zM613 592v164h175v-164h-175zM345 659
q47 54 137 169l-89 45q-43 -104 -123 -172z" />
</svg>
