<?xml version="1.0" standalone="no"?>
<!DOCTYPE svg PUBLIC "-//W3C//DTD SVG 1.1//EN" "http://www.w3.org/Graphics/SVG/1.1/DTD/svg11.dtd" >
<svg xmlns="http://www.w3.org/2000/svg" xmlns:xlink="http://www.w3.org/1999/xlink" version="1.1" viewBox="-10 0 1034 1024">
  <g transform="matrix(1 0 0 -1 0 820)">
   <path fill="currentColor"
d="M25 -104q3 -1 4 -3q12 -6 36 -24q1 0 11 -9q129 99 172 211q18 52 24 113q3 39 5 92l1 147q0 73 5 95q1 19 16 36q-33 3 -55 8q-3 0 -10 2q4 -120 6 -218q0 -111 -9 -183q-21 -144 -128 -225q-39 -27 -78 -42zM115 216q0 -48 -5 -78h49q-4 19 -5 47l-1 505h210v-471
q0 -45 -6 -78h50q-3 13 -3 21q-1 28 -3 57l1 463q1 24 5 49q-33 -1 -65 -5q-168 0 -195 2q-3 1 -6 1q-12 0 -31 2q1 -34 5 -70v-445zM280 69q42 -33 73 -68q21 -22 34 -40l40 -58q15 15 25 21q1 0 4 4q1 0 3 2l1 2q1 0 3 2l1 2q-40 49 -74 87q-33 36 -75 79q-6 -9 -15 -15
q-9 -9 -20 -18zM676 271q-24 -69 -97 -146q-54 -55 -128 -81q9 -6 17 -11q6 -3 10 -7q-1 0 10 -7q3 -1 6 -3q6 -3 9 -5q148 106 215 260h97q-13 -49 -53 -125q-66 -129 -174 -209q-51 -36 -104 -52q33 -21 43 -27q4 -3 11 -7q97 60 173 148q39 46 83 125q42 81 63 147h55
l-16 -283q-3 -57 -17 -71q-15 -15 -56 -15q-12 0 -38 3q-15 0 -33 2q15 -27 25 -53q40 1 81 10q45 10 62 41q6 15 10 36q3 27 6 73l14 239q1 21 5 42l1 1q0 3 2 7q-3 6 -17 7l-129 -3h-226q46 64 67 99l186 -1l49 -4q-3 36 -5 71l1 211q0 18 4 51q-33 -1 -68 -5l-260 1
q-19 3 -48 4q1 -33 5 -67l-1 -212q-3 -15 -4 -54q66 6 90 6h2q-25 -58 -102 -132q-48 -43 -90 -59q30 -15 54 -30q21 18 88 85h122zM554 442v105h291v-105h-291zM554 583v109h291v-109h-291z" />
  </g>

</svg>
