<?xml version="1.0" standalone="no"?>
<!DOCTYPE svg PUBLIC "-//W3C//DTD SVG 1.1//EN" "http://www.w3.org/Graphics/SVG/1.1/DTD/svg11.dtd" >
<svg xmlns="http://www.w3.org/2000/svg" xmlns:xlink="http://www.w3.org/1999/xlink" version="1.1" viewBox="-10 0 1034 1024">
  <g transform="matrix(1 0 0 -1 0 820)">
   <path fill="currentColor"
d="M270 498q0 18 9 40q-37 0 -56 2q3 -22 7 -149l-6 -148q-6 -94 -23 -151q-21 -69 -67 -128q-19 -25 -40 -44q-19 -15 -57 -34q21 -7 27 -12q9 -3 30 -16q112 100 149 234q22 75 25 287q0 87 2 119zM100 686l4 -52l-1 -483l-3 -23q-1 -4 -1 -9h48q-3 12 -4 40l-1 496h208
v-466q0 -34 -4 -57q-1 -3 -1 -8h48q-4 49 -5 65l1 462l4 45q-18 -1 -33 -2q-21 -3 -27 -3h-175q-9 0 -30 3q-12 0 -29 2q0 -4 1 -10zM410 412q16 -12 28 -23q66 52 128 125q31 39 51 70q24 37 57 95q21 -33 50 -71q30 -42 52 -65q52 -57 169 -140q13 18 57 38q-27 6 -56 22
q-54 27 -100 67q-90 82 -145 186q9 12 23 24q-33 16 -43 21q-9 6 -15 8q-6 -24 -25 -61q-19 -39 -34 -65q-12 -24 -33 -54q-90 -126 -179 -168zM438 -69l-134 140q-9 -13 -36 -36q39 -19 86 -72q46 -51 69 -99q16 27 38 42zM555 104q15 15 23 25q9 6 21 12q-31 16 -49 36
q-34 -75 -137 -170q9 -1 13 -5q6 -3 12 -9t15 -12q24 27 64 78q18 22 38 45zM710 241l210 -1q6 0 38 -4v46q-31 -1 -64 -5l-459 5v-46q60 6 101 5h136v-297q0 -30 -13 -42q-21 -15 -59 -16q-22 0 -59 9q15 -24 20 -56q66 4 77 7q72 15 72 93v302zM521 403q3 1 7 2q0 1 60 4
l231 -1q12 0 25 -2q3 0 13 -3v47q-6 0 -61 -5l-256 2q-3 1 -5 1q-4 0 -14 2v-47zM818 157q-7 12 -17 21q-16 -19 -34 -32q100 -82 144 -191q22 24 39 34q-16 25 -78 106z" />
  </g>

</svg>
