<?xml version="1.0" standalone="no"?>
<!DOCTYPE svg PUBLIC "-//W3C//DTD SVG 1.1//EN" "http://www.w3.org/Graphics/SVG/1.1/DTD/svg11.dtd" >
<svg xmlns="http://www.w3.org/2000/svg" xmlns:xlink="http://www.w3.org/1999/xlink" version="1.1" viewBox="-10 0 1034 1024">
  <g transform="matrix(1 0 0 -1 0 820)">
   <path fill="currentColor"
d="M99 496q-3 -31 -5 -64h48q-6 55 -5 89v36h753q0 -70 -2 -100q-3 -12 -3 -21h48q-6 55 -5 91q1 34 5 70q-33 -1 -67 -5h-172q31 39 49 62l22 26q33 34 61 42q-19 10 -39 29l-16 13q-18 -27 -35 -55q-33 -46 -68 -86l-30 -31h-94v119q0 18 3 34q1 13 11 30h-57q4 -33 5 -63
v-120h-345q-9 0 -34 3q-15 0 -33 2q4 -70 5 -90v-11zM92 -110q15 -18 25 -48q142 18 198 38q154 48 204 191q15 42 21 51q3 9 21 23q-42 3 -62 9q-6 -42 -23 -84q-33 -75 -89 -114q-66 -39 -159 -56q-54 -10 -105 -11zM227 53q-3 -36 -3 -49q-1 -3 -1 -8q-1 -3 -1 -8h48
q-3 24 -4 49l-1 167h499v-140q0 -33 -4 -55q0 -4 -1 -8h50q-3 7 -5 60l1 136q0 3 4 47q-21 -1 -36 -2q-24 -3 -63 -3l-439 1q-19 3 -49 4q1 -33 5 -67v-124zM243 729q-9 -15 -17 -23q36 -19 54 -34q16 -12 46 -41l29 -27q7 16 31 35q-75 63 -132 106q-6 -7 -11 -16zM275 363
q0 -7 -6 -62q33 3 69 5l373 -1l50 -4q-4 49 -5 77q0 54 2 67q0 15 3 37q-21 -1 -35 -2q-24 -3 -34 -3l-375 1q-19 3 -48 4q6 -60 6 -81v-38zM312 341v101h406v-101h-406zM919 -106q-46 21 -104 45l-223 83q-12 -33 -22 -44q49 -6 160 -48t165 -84q3 15 9 24q6 12 15 24v0z
" />
  </g>

</svg>
