<?xml version="1.0" standalone="no"?>
<!DOCTYPE svg PUBLIC "-//W3C//DTD SVG 1.1//EN" "http://www.w3.org/Graphics/SVG/1.1/DTD/svg11.dtd" >
<svg xmlns="http://www.w3.org/2000/svg" xmlns:xlink="http://www.w3.org/1999/xlink" version="1.1" viewBox="-10 0 1010 1000">
   <path fill="currentColor"
d="M595 0q85 1 93 10q1 1 -3 8q-14 26 -14 54v53q50 0 89 -7q9 -1 12 -1v74q9 -19 21 -45q21 -42 42 -94q82 37 94 56q-2 4 -11 9q-16 8 -23 18q-81 126 -123 181h28q116 0 156 -6v77q-42 -7 -158 -8h-72q-10 10 -27 29q-46 49 -62 63h133q18 0 78 -5q29 -2 45 -3
q-11 58 -8 97v246q0 61 8 95h-93q10 -22 10 -63h-231q0 30 6 71h-89q8 -25 8 -99v-224q-3 2 -23 22q-21 20 -29 27q-15 -35 -37 -51q0 31 8 69h-88q1 -7 2 -19q6 -55 6 -78v-413h-184v393q0 36 8 125h-88q1 -14 3 -40q5 -65 5 -85v-385q1 -42 -8 -83q36 8 86 8h166
q48 0 92 -8q-8 42 -8 95v403q3 -2 11 -6q52 -27 76 -48l-4 -55l54 8q37 -36 87 -86h-64q-90 1 -144 8v-79q76 8 146 8h22v-125h-26q-31 0 -101 7q-4 1 -6 1v-82q54 8 111 8h22q0 -79 -4 -125zM216 187q78 -2 90 8q0 2 -3 6q-12 12 -13 47q-7 335 -16 385q-20 135 -155 276
q-36 -34 -91 -42q120 -80 159 -172q40 -71 33 -383v-68q0 -17 -3 -52q-1 -3 -1 -5zM671 191v125h17q42 -60 80 -117q-1 0 -8 -1q-39 -7 -89 -7zM579 538v81h231v-81h-231zM579 687v83h231v-83h-231zM319 683q60 51 137 139l-65 49q-67 -99 -129 -144z" />
</svg>
