<?xml version="1.0" standalone="no"?>
<!DOCTYPE svg PUBLIC "-//W3C//DTD SVG 1.1//EN" "http://www.w3.org/Graphics/SVG/1.1/DTD/svg11.dtd" >
<svg xmlns="http://www.w3.org/2000/svg" xmlns:xlink="http://www.w3.org/1999/xlink" version="1.1" viewBox="-10 0 1034 1024">
  <g transform="matrix(1 0 0 -1 0 820)">
   <path fill="currentColor"
d="M87 390q1 -25 5 -52q0 -60 -3 -80q-1 -3 -2 -8h47q-3 30 -5 63v36h761v-34q0 -39 -5 -59h48q-6 27 -5 84q0 25 5 50q-24 -1 -50 -5h-361v246h216q-30 -66 -70 -116q-57 -64 -100 -86q30 -13 49 -27q33 33 59 61q22 27 48 61q54 -34 84 -60q34 -30 59 -58q7 13 13 19
l17 21q-132 99 -150 112q24 34 46 40l-43 33q87 0 104 -2l28 -3v47q-21 -1 -44 -5l-316 -1q0 66 3 72q1 16 11 32h-57q4 -42 5 -75v-29l-333 3q-3 1 -8 3v-47q46 4 94 5h52q-21 -49 -74 -116q-48 -58 -95 -91q10 -1 24 -8q12 -6 27 -14q18 18 35 40l65 79q6 -4 13 -9
q42 -28 79 -59q21 -18 51 -51q12 22 26 38q-66 57 -144 115q28 37 56 46q-24 12 -50 30h182v-246l-359 1q-15 3 -38 4zM98 -114q9 -12 16 -19q1 -1 3 -4q6 -6 12 -20q160 24 255 88q55 39 82 79q27 42 59 133q9 25 29 42q-25 3 -65 13q-6 -67 -36 -133q-45 -93 -159 -139
q-84 -33 -196 -40zM806 284q-15 -1 -26 -3q-21 -3 -26 -3l-500 1q-19 4 -37 5q1 -27 5 -54l-1 -203q-1 -16 -4 -24h47q0 6 -2 12q-3 48 -3 95v132h504v-177q0 -45 -5 -59h48q-4 49 -5 92l1 147q0 15 4 39zM549 3l40 -14q18 -7 37 -15q39 -16 91 -42q96 -48 179 -94
q10 18 21 38q-180 96 -347 163q-7 -16 -21 -36v0z" />
  </g>

</svg>
