<?xml version="1.0" standalone="no"?>
<!DOCTYPE svg PUBLIC "-//W3C//DTD SVG 1.1//EN" "http://www.w3.org/Graphics/SVG/1.1/DTD/svg11.dtd" >
<svg xmlns="http://www.w3.org/2000/svg" xmlns:xlink="http://www.w3.org/1999/xlink" version="1.1" viewBox="-10 0 1010 1000">
   <path fill="currentColor"
d="M925 18v78q-56 -5 -147 -6h-62q22 34 36 65l-56 20h104q74 0 109 -6v60q-39 -5 -109 -6h-76v47h62q65 0 105 -4v52q-31 -4 -103 -4h-64v51h38q82 0 127 -7v59q-43 -8 -129 -8h-36v56h56q64 -1 137 -10v67q-72 -9 -133 -10h-248l4 26h-82q5 -16 7 -42q0 -12 1 -27v-42v-60
q0 -76 -4 -87q-21 37 -51 70q-17 -33 -40 -48v95q0 75 8 125q2 10 2 14h-89q11 -35 12 -135v-121l-12 15q-37 44 -48 61q-14 -32 -40 -60q101 -87 135 -206h-141v186q5 245 -17 382q-21 136 -80 241q-15 -22 -69 -75q54 -66 76 -213q12 -73 16 -173q5 -100 3 -237
q1 -123 -6 -181q138 6 198 6h451q91 0 155 -8zM361 90q58 25 66 37l-5 5q-15 11 -27 27q-16 19 -24 36v95q94 -79 137 -200h-147zM522 90q57 23 61 31q0 2 -4 5q-16 14 -33 43q15 5 85 6h40q-8 -36 -34 -63l69 -22h-184zM534 221v49h127v-49h-127zM661 314h-127v51h127v-51z
M661 409h-127v56h127v-56zM310 566q20 0 79 3q17 1 26 1h275q81 0 137 -6q-5 17 -4 77v8q0 62 6 103h-91q7 -27 6 -107v-20h-351v46q0 55 8 93h-93q5 -30 5 -97v-20q0 -56 -3 -81zM518 641q95 9 97 14q0 2 -4 11q-14 27 -24 59q-12 59 -87 107q-86 55 -240 69
q-7 -43 -50 -81q153 7 242 -42q73 -45 66 -137zM637 731q106 31 286 117l-64 69q-112 -81 -268 -129z" />
</svg>
