<?xml version="1.0" standalone="no"?>
<!DOCTYPE svg PUBLIC "-//W3C//DTD SVG 1.1//EN" "http://www.w3.org/Graphics/SVG/1.1/DTD/svg11.dtd" >
<svg xmlns="http://www.w3.org/2000/svg" xmlns:xlink="http://www.w3.org/1999/xlink" version="1.1" viewBox="-10 0 1034 1024">
  <g transform="matrix(1 0 0 -1 0 820)">
   <path fill="currentColor"
d="M294 171l-1 -303q-1 -10 -3 -23q-1 -3 -1 -8h48q0 3 -1 8q-1 6 -4 57v249q99 -72 144 -132q9 24 28 46q-7 7 -168 128q-3 1 -4 2v43q111 0 126 -2q15 0 35 -3q-1 30 -3 33q-3 21 -3 69l1 95q1 22 5 45q-33 -1 -65 -5h-96v127l189 -3q4 0 10 -2v46q-31 -1 -64 -5h-135v66
q0 18 3 34q1 18 11 31h-57q4 -45 5 -83v-48l-174 1q-21 3 -20 2q-3 0 -13 2v-46q7 3 36 4l171 1v-127q-90 0 -114 2q-6 3 -32 3l5 -101q0 -78 -2 -103q-3 -3 -3 -38q49 4 80 5h57q-39 -73 -102 -157q-72 -87 -132 -120q24 -6 49 -25q88 81 172 203q10 16 22 32zM190 274v160
h104v-160h-104zM332 274v160h117v-160h-117zM576 -109q37 18 89 67q64 69 85 164q18 90 18 138q0 36 12 56q-30 0 -56 3q3 -42 3 -68q0 -105 -30 -179q-42 -100 -161 -158q-39 -18 -76 -24q24 -18 41 -39l22 13zM548 480q18 24 42 58l55 81h181q-40 -75 -87 -143
q-112 0 -139 2q-6 3 -39 3q1 -33 5 -67l-3 -341q0 -4 -2 -10h47q-4 19 -5 46v332h275l-1 -342q0 -12 -3 -28q-1 -1 -1 -5h48v3q-3 6 -4 32l-1 313q1 33 5 67q-60 -4 -92 -5h-42q33 54 54 92l48 90q-60 -6 -72 -6h-151q3 9 11 25q7 15 16 30q15 28 36 44q-3 0 -7 2
q-4 1 -15 4q-18 6 -23 7q-6 0 -12 5q-13 -42 -33 -81q-18 -37 -53 -91q-40 -57 -85 -95q15 -3 26 -9q9 -6 21 -13zM767 3q69 -48 110 -80q30 -24 67 -64q13 27 29 43l-179 140l-2 -6q-3 -3 -23 -28q-1 -1 -2 -5v0z" />
  </g>

</svg>
