<?xml version="1.0" standalone="no"?>
<!DOCTYPE svg PUBLIC "-//W3C//DTD SVG 1.1//EN" "http://www.w3.org/Graphics/SVG/1.1/DTD/svg11.dtd" >
<svg xmlns="http://www.w3.org/2000/svg" xmlns:xlink="http://www.w3.org/1999/xlink" version="1.1" viewBox="-10 0 1010 1000">
   <path fill="currentColor"
d="M633 -2q86 1 91 6q0 1 -3 5q-17 25 -17 77v24h106q-15 -40 -56 -76l59 -32q29 25 64 76l-46 32q71 -1 107 -8v77q-46 -9 -111 -10h-123v62h46q64 -1 147 -4q-4 59 -4 111v87v17q-1 89 6 110h-82q4 -16 4 -46h-117q0 47 6 62h-77q9 -12 8 -55v-7h-117q0 48 6 64h-82
q5 -11 7 -77q1 -22 1 -32v-125q-1 -59 -6 -109q77 4 141 4h50v-62h-85q-91 0 -121 6v-73q46 7 123 8h81v-12q0 -73 -6 -100zM85 44q71 6 151 6h12q90 -1 167 -6q-4 28 -6 69q-2 44 0 66v298q-3 109 8 150h-90q10 -32 10 -140v-366h-174v369q0 73 8 128q2 17 2 25h-92
q10 -39 10 -147v-321q0 -87 -6 -131zM212 185q77 -3 84 6q0 1 -2 4q-14 23 -14 65q6 299 -25 408q-24 109 -140 235q-13 -19 -68 -54q-4 -2 -5 -3q78 -47 135 -147q23 -46 32 -127q5 -40 6 -93q2 -52 1 -125q0 -46 -2 -111q-1 -35 -2 -58zM704 282v60h117v-60h-117zM524 282
v60h117v-60h-117zM641 393h-117v62h117v-62zM704 393v62h117v-62h-117zM752 572q74 -1 89 8q0 2 -3 6q-11 18 -11 43q87 0 117 -6v68q-46 -6 -117 -6v135q-1 42 -31 59q-22 16 -113 28q-3 -47 -26 -93q92 23 99 -28v-101h-181q-89 0 -142 10v-76q59 9 140 10h183
q0 -6 -2 -30q-1 -17 -2 -27zM581 701q22 33 44 97l-71 24q-11 -59 -42 -103zM327 649q93 79 141 147l-69 50q-54 -87 -133 -155z" />
</svg>
