<?xml version="1.0" standalone="no"?>
<!DOCTYPE svg PUBLIC "-//W3C//DTD SVG 1.1//EN" "http://www.w3.org/Graphics/SVG/1.1/DTD/svg11.dtd" >
<svg xmlns="http://www.w3.org/2000/svg" xmlns:xlink="http://www.w3.org/1999/xlink" version="1.1" viewBox="-10 0 1034 1024">
  <g transform="matrix(1 0 0 -1 0 820)">
   <path fill="currentColor"
d="M295 313q0 -30 -5 -58h47q-3 18 -6 56v245q6 9 13 22l27 40q4 6 25 21q-18 7 -29 13q-3 1 -21 14q-31 -70 -67 -123q-24 -36 -43 -58q-13 -15 -37 -32q21 -13 30 -23q6 -6 9 -8q39 52 57 78v-187zM559 142q0 -12 -6 -40q-18 -84 -65 -126q-43 -36 -158 -68
q-48 -10 -124 -15q18 -21 37 -49q123 30 181 53q52 19 90 50q43 36 74 122q15 45 35 64q-34 7 -64 18v-9zM337 22q0 -27 -5 -59h48q-3 6 -5 46v180h428l-1 -171q-1 -7 -2 -21q0 -4 -2 -9h48q-4 49 -5 76q0 120 2 133q0 15 3 32q-27 -1 -54 -5l-421 1q-15 3 -39 4
q1 -30 5 -60v-147zM421 489q10 13 23 27l-5 -261h46q-3 10 -3 30l457 -1q3 0 26 -5v44l-62 -5h-217v55h121q49 0 63 -7v45q-6 -3 -13 -4q-18 -1 -50 -2h-121v56h121q45 0 63 -6v44q-6 0 -13 -3l-99 -2h-72v51h153q48 0 64 -6v44q-9 -3 -13 -3q-18 -1 -51 -3h-134q3 7 10 14
q4 6 11 10l-71 52q-12 9 -23 17q-13 -21 -25 -33q51 -30 65 -41q9 -9 20 -18h-205q27 48 64 65q-27 9 -58 27q-30 -84 -109 -162q-21 -19 -41 -28q30 -15 44 -28zM649 318h-167v55h167v-55zM649 405h-167v56h167v-56zM649 545v-51h-167v51h167zM637 -48l96 -31l92 -36
l88 -42q3 6 20 44l-39 13q-10 3 -23 8l-47 19l-171 62q-22 9 -43 17q-9 -22 -18 -40q22 -6 45 -14zM194 675h683q45 0 62 -5v45q-10 -1 -22 -4h-727q-3 0 -39 4q1 -30 5 -62l-1 -435q-1 -9 -1 -17q-4 -48 -12 -93q-18 -93 -55 -157q-15 -24 -45 -48q12 -3 57 -21
q25 51 41 88q33 82 44 160q9 64 10 194v351z" />
  </g>

</svg>
