<?xml version="1.0" standalone="no"?>
<!DOCTYPE svg PUBLIC "-//W3C//DTD SVG 1.1//EN" "http://www.w3.org/Graphics/SVG/1.1/DTD/svg11.dtd" >
<svg xmlns="http://www.w3.org/2000/svg" xmlns:xlink="http://www.w3.org/1999/xlink" version="1.1" viewBox="-10 0 1010 1000">
   <path fill="currentColor"
d="M256 -12q99 1 113 12q0 3 -5 12q-19 30 -19 66v57h97q67 0 98 -8v88q-33 -9 -98 -8h-97v101h86q53 1 93 -8v75q76 -131 103 -381q52 9 105 26q14 5 1 22q-16 21 -21 38q-5 15 -16 54q-13 49 -19 67h180q66 -1 101 -10v93q-37 -11 -91 -10q-30 299 -95 419q67 78 198 113
q-8 8 -20 21q-36 33 -51 76q-102 -55 -181 -145q-74 89 -206 167q-28 -33 -68 -51q-17 -8 -29 -14q129 -39 256 -167q-49 -86 -82 -272l-27 44q-36 -32 -78 -34l32 -42q-27 -9 -81 -8v389q11 93 -137 99q-1 -48 -42 -101q61 11 80 2q20 -7 19 -43v-348h-69q-6 204 -26 308
q-25 119 -131 220q-46 -37 -107 -47q96 -47 139 -127q51 -91 49 -354h-83q-55 0 -85 8v-87q6 0 20 2q33 6 65 6h139v-103h-85q-47 -1 -94 8v-88q36 9 94 8h85q0 -101 -10 -145zM782 272h-125q-25 70 -52 115l64 -8q9 152 51 248q55 -142 62 -355zM87 457q59 9 94 20
q-17 9 -74 186q-5 16 -8 24q-37 -29 -83 -26q61 -88 71 -204zM448 528l72 -38q46 51 97 131l-77 44q-45 -86 -92 -137z" />
</svg>
