<?xml version="1.0" standalone="no"?>
<!DOCTYPE svg PUBLIC "-//W3C//DTD SVG 1.1//EN" "http://www.w3.org/Graphics/SVG/1.1/DTD/svg11.dtd" >
<svg xmlns="http://www.w3.org/2000/svg" xmlns:xlink="http://www.w3.org/1999/xlink" version="1.1" viewBox="-10 0 1034 1024">
  <g transform="matrix(1 0 0 -1 0 820)">
   <path fill="currentColor"
d="M180 94q15 19 31 38q19 30 39 60q34 54 60 69q-1 0 -6 2l-13 6q-9 4 -17 9q-9 6 -20 13q-6 -27 -17 -46q-15 -25 -42 -64q-31 -45 -51 -64q-18 -16 -48 -31q33 -15 51 -30q15 18 33 38zM623 374v-435q0 -21 -8 -32q-15 -12 -45 -13q-22 0 -70 7q4 -12 11 -36q0 1 2 -15
q15 0 36 2q58 4 80 15q31 18 32 64v443h227q19 0 50 -3q7 0 16 -4v48q-30 -6 -66 -6h-352v166h233q15 0 51 -4q6 0 15 -3v48q-9 -3 -15 -4q-18 -1 -51 -2h-233q0 124 3 128q3 18 14 33h-63q3 -4 3 -14q1 -21 3 -46v-101l-275 1q-21 3 -20 2q-9 3 -12 3v-48q6 3 12 3l56 4
h239v-166l-379 1q-21 3 -48 5v-48q6 3 13 4q25 1 54 3h257l-6 -164q-1 -12 -13 -80q-30 -114 -148 -205q-25 -18 -40 -27q-21 -10 -58 -26q31 -24 47 -39q54 40 88 70q27 22 48 44q96 100 108 222q4 45 8 101q3 55 2 104h194zM897 58q16 18 22 21q3 1 7 4q-18 28 -79 97
q-51 58 -90 98q-7 -10 -21 -21q-9 -9 -8 -7l-1 -1q22 -19 40 -38q18 -18 43 -49q45 -54 83 -107q1 1 4 3v0z" />
  </g>

</svg>
