<?xml version="1.0" standalone="no"?>
<!DOCTYPE svg PUBLIC "-//W3C//DTD SVG 1.1//EN" "http://www.w3.org/Graphics/SVG/1.1/DTD/svg11.dtd" >
<svg xmlns="http://www.w3.org/2000/svg" xmlns:xlink="http://www.w3.org/1999/xlink" version="1.1" viewBox="-10 0 1010 1000">
   <path fill="currentColor"
d="M260 0q84 0 89 10q1 4 -1 10q-12 33 -11 121h58q59 0 95 -6v76q-30 -6 -91 -6h-62v111h62q67 -1 107 -8v81q-33 -8 -85 -8h-10v401q2 48 -17 61q-19 17 -92 30q-2 -48 -30 -97q51 12 62 4q14 -5 13 -40v-359h-67q3 215 -25 309q-26 102 -112 193q-27 -23 -83 -37
q98 -78 127 -172q16 -49 22 -117q6 -66 3 -174h-33q-79 0 -114 8v-85q42 11 123 10h82v-111h-68q-61 0 -103 8v-78q21 6 101 6h70v-19q-1 -105 -10 -122zM617 437v385q1 49 6 73h-87q3 -37 6 -141v-129l-54 32q-7 -47 -69 -172l51 -28q37 60 72 127v-435q-1 -59 -8 -107
q63 7 127 8h115q91 -1 115 -4q-4 29 -11 89q-11 111 -21 139q-28 52 -127 60q4 -24 -30 -90q74 13 84 -13q15 -38 18 -118h-187v264h183q83 0 107 -6q-47 243 -92 338q10 8 18 15q46 42 104 71q13 7 31 17q-28 21 -55 71q-17 -14 -40 -33q-43 -32 -93 -84q-31 49 -95 119
l-62 -63q61 -34 113 -111q-56 -100 -83 -274h-36zM101 463q4 0 12 1q77 5 68 15q-1 2 -3 4q-11 11 -15 37l-3 15q-18 100 -27 124l-71 -10q43 -99 39 -186zM712 437q17 115 60 208q37 -98 45 -208h-105z" />
</svg>
