<?xml version="1.0" standalone="no"?>
<!DOCTYPE svg PUBLIC "-//W3C//DTD SVG 1.1//EN" "http://www.w3.org/Graphics/SVG/1.1/DTD/svg11.dtd" >
<svg xmlns="http://www.w3.org/2000/svg" xmlns:xlink="http://www.w3.org/1999/xlink" version="1.1" viewBox="-10 0 1010 1000">
   <path fill="currentColor"
d="M280 -12q78 2 95 14q0 2 -4 6q-16 21 -20 54v46h16q46 0 90 -7q8 -1 9 -1v71q-2 0 -10 -1q-38 -7 -89 -7h-16v87h18q47 0 85 -7q7 -1 8 -1v74q-2 0 -10 -2q-32 -6 -69 -6v93q34 -20 85 -63l12 77q-55 26 -120 66q-24 15 -27 15l-33 -55q0 -2 8 -11q17 -17 17 -27v-95h-63
q-20 164 -157 236q-17 -31 -51 -52q133 -46 144 -182h-29q-48 0 -88 6q-10 2 -14 2v-76q2 0 12 1q46 7 90 7h115v-87h-92l-20 36q-16 28 -21 36l-68 -26q67 -71 78 -181q70 10 83 26q0 2 -5 8q-17 20 -27 46h72v-44q0 -42 -4 -76zM659 -10q85 1 93 10q0 2 -2 6
q-15 28 -18 104h58q58 0 95 -7q5 -1 6 -1v71q-1 0 -6 -1q-35 -7 -97 -7h-56v77h76q65 0 112 -6q6 -1 7 -1v75q-2 0 -10 -1q-46 -7 -109 -7h-32v60q0 32 10 41q6 9 39 8q33 1 41 -12q10 -11 15 -63q23 16 75 43q-17 67 -38 77q-20 16 -99 17q-86 3 -99 -12q-20 -11 -18 -80
v-79h-47q-13 115 -123 200q-32 -29 -70 -45q110 -41 129 -153h-20q-46 0 -82 7q-6 1 -7 1v-75q1 0 8 1q40 6 85 6h90v-79h-94q0 -1 -7 14q-18 35 -26 50l-68 -16q55 -71 68 -185q76 14 85 28q0 3 -6 10q-15 18 -28 44h76q0 -88 -6 -120zM464 606q99 15 107 27q0 4 -6 8
q-12 6 -19 20q-64 210 -391 248q-5 -37 -48 -95q348 20 357 -208zM577 715q149 53 302 133l-62 75q-149 -97 -291 -143zM685 508q69 0 101 -8q-6 23 -6 108v31q0 51 7 98q1 9 1 11h-94q6 -27 6 -111v-65h-387v59q0 119 6 129h-93q0 -3 1 -12q7 -51 7 -113v-23q0 -83 -6 -112
q36 8 109 8h348z" />
</svg>
