<?xml version="1.0" standalone="no"?>
<!DOCTYPE svg PUBLIC "-//W3C//DTD SVG 1.1//EN" "http://www.w3.org/Graphics/SVG/1.1/DTD/svg11.dtd" >
<svg xmlns="http://www.w3.org/2000/svg" xmlns:xlink="http://www.w3.org/1999/xlink" version="1.1" viewBox="-10 0 1034 1024">
  <g transform="matrix(1 0 0 -1 0 820)">
   <path fill="currentColor"
d="M884 521q22 0 50 -3q6 0 16 -3v47q-21 -4 -66 -5h-232q25 75 45 141q12 45 35 65q-25 4 -61 20q-16 -84 -35 -151q-19 -64 -50 -135q-49 -112 -86 -145q12 0 20 -4q12 -1 21 -4t16 -6q30 69 63 135q9 30 19 48h175l-11 -147q-4 -45 -13 -84q-12 -49 -32 -105
q-19 -51 -36 -73q-66 138 -76 246q-13 -3 -50 -6q39 -168 104 -281q-42 -66 -124 -129q-75 -52 -123 -64q21 -13 47 -44q75 51 122 92q51 48 106 111q49 -49 93 -89q48 -39 114 -86q24 31 43 48q-60 18 -110 56q-84 66 -117 109q25 51 45 98q18 45 28 90q18 81 31 258h29z
M60 94q9 0 16 -2q6 -1 15 -4q3 -1 6 -3q7 -1 12 -5q15 28 32 79q13 43 25 72q7 21 28 43q-34 7 -57 20q-9 -57 -23 -99q-24 -72 -54 -101zM382 392v-422q0 -33 -19 -42q-12 -6 -41 -7l-25 3q-9 0 -17 2q3 -19 7 -26q3 -15 5 -22q60 6 82 12l16 7q30 18 30 63v432q66 0 92 -3
q4 0 12 -3v47q-24 -4 -66 -5h-119v148h113l50 -4q6 0 15 -3v49q-9 0 -15 -4q-15 -1 -50 -2h-113v94q0 9 3 22q1 16 14 39h-61q3 -6 3 -14q1 -21 3 -47v-94l-171 3q-12 3 -16 3v-49q15 6 37 6l150 1v-148l-205 1q-24 3 -28 4v-47q30 6 60 6h107q0 -78 -3 -120q-1 -33 -7 -66
q-21 -144 -89 -236q-46 -60 -85 -83l47 -25l6 -4q28 33 61 81q76 121 97 259q4 33 7 70q4 64 5 124h108zM469 306q-16 -15 -36 -27q31 -39 55 -72q22 -33 51 -81q13 15 32 24q-24 42 -56 87q-24 34 -46 69v0z" />
  </g>

</svg>
