<?xml version="1.0" standalone="no"?>
<!DOCTYPE svg PUBLIC "-//W3C//DTD SVG 1.1//EN" "http://www.w3.org/Graphics/SVG/1.1/DTD/svg11.dtd" >
<svg xmlns="http://www.w3.org/2000/svg" xmlns:xlink="http://www.w3.org/1999/xlink" version="1.1" viewBox="-10 0 1010 1000">
   <path fill="currentColor"
d="M446 -8q93 7 106 20q0 4 -6 12q-16 21 -16 42v71h238q62 0 97 -8v88q-31 -9 -97 -8h-238v115h287q81 1 112 -12v91q-17 -7 -88 -6h-14h-180v407q2 52 -30 66q-31 18 -131 19q-16 -66 -55 -109q79 11 108 2q28 -7 26 -40v-345h-127q-2 163 -16 224q-15 71 -61 127
q-56 67 -208 153q-32 -45 -88 -75q167 -44 239 -139q31 -46 42 -111q12 -58 11 -179h-167q-83 -1 -127 8v-89q46 9 125 8h262v-115h-206q-69 -1 -115 8v-88q29 8 113 8h208v-65q0 -39 -3 -70q-1 -8 -1 -10zM208 461q88 32 100 45q-1 3 -11 12q-72 59 -166 201
q-31 -27 -81 -48q93 -90 158 -210zM768 467q103 106 176 214l-103 50q-52 -114 -153 -221z" />
</svg>
