<?xml version="1.0" standalone="no"?>
<!DOCTYPE svg PUBLIC "-//W3C//DTD SVG 1.1//EN" "http://www.w3.org/Graphics/SVG/1.1/DTD/svg11.dtd" >
<svg xmlns="http://www.w3.org/2000/svg" xmlns:xlink="http://www.w3.org/1999/xlink" version="1.1" viewBox="-10 0 1034 1024">
  <g transform="matrix(1 0 0 -1 0 820)">
   <path fill="currentColor"
d="M865 688l-55 -4l-266 3q1 0 -14 2v-46q9 1 20 3q28 0 48 2h234v-209l-230 1q-15 3 -47 4q0 1 2 -22l4 -41v-249q0 -54 50 -72q27 -9 98 -10q85 0 121 8q36 6 56 29q9 9 18 26q9 18 22 55q3 9 6 17q-9 3 -20 10q-7 3 -11 5q-6 3 -16 12q-4 -39 -13 -64q-15 -43 -45 -53
q-27 -7 -93 -8q-76 0 -102 7q-33 9 -33 56v255l228 -1l48 -4q-4 52 -5 97q0 141 2 155q0 18 3 37q-6 0 -10 -1zM953 -88q6 18 19 34q-36 -7 -68 -12q-84 -6 -195 -8l-112 1q-51 0 -91 4q-61 4 -105 19q-21 7 -52 28v199q115 0 133 -2q13 0 26 -4v47q-24 -4 -67 -5h-92v147
l159 -3l9 -3v47q-19 -4 -65 -5h-127v150q124 0 141 -2q9 0 22 -4v47q-24 -4 -65 -5h-98v105q0 27 20 67h-63q6 -48 6 -81v-91l-158 3q-6 0 -13 2v-47q15 4 39 5l132 1v-150h-139q-27 0 -54 3q-1 0 -12 2v-47q15 4 38 5l189 1v-355q-79 72 -112 124q3 9 5 20l9 52q0 9 2 13
q3 18 20 41q-24 0 -59 7l-6 -84q-3 -30 -10 -58q-16 -84 -61 -170q-21 -39 -48 -60q36 -9 50 -19l3 -2q22 45 48 102q22 57 38 102q63 -69 95 -101q55 -45 115 -66q36 -10 89 -14q42 -3 105 -4l128 -2l223 5z" />
  </g>

</svg>
