<?xml version="1.0" standalone="no"?>
<!DOCTYPE svg PUBLIC "-//W3C//DTD SVG 1.1//EN" "http://www.w3.org/Graphics/SVG/1.1/DTD/svg11.dtd" >
<svg xmlns="http://www.w3.org/2000/svg" xmlns:xlink="http://www.w3.org/1999/xlink" version="1.1" viewBox="-10 0 1010 1000">
   <path fill="currentColor"
d="M272 -4q48 2 89 8q18 2 4 27q-14 23 -14 37v75h62q72 1 103 -8v88q-33 -9 -101 -8h-64v127h99q69 1 100 -8v83q-36 -9 -102 -8h-85v109h60q56 1 87 -8v80q-27 -9 -91 -8h-56v170q61 32 204 34h108q161 2 283 -22q-23 37 -39 98h-425q-122 -10 -198 -52q-76 -45 -123 -159
q-15 112 -80 248q-33 -41 -67 -65q87 -111 99 -369q49 6 87 18q12 3 -3 23q-10 13 -11 18t-2 14l-4 26q14 62 98 157v-121v-191h-111q-73 0 -110 8v-83q43 8 106 8h103v-127h-80q-70 -1 -103 8v-88q35 8 103 8h80v-26q1 -78 -6 -121zM794 60q53 11 97 26q19 7 -1 30
q-19 23 -23 39q-42 146 -89 252l12 21q50 83 129 241l-98 46q-1 -4 -4 -12q-40 -128 -85 -216q-42 73 -159 217q-8 9 -11 13q-33 -33 -102 -50q124 -73 228 -252q-51 -115 -172 -300l87 -29q10 19 34 62q61 109 97 190q50 -153 60 -278z" />
</svg>
