<?xml version="1.0" standalone="no"?>
<!DOCTYPE svg PUBLIC "-//W3C//DTD SVG 1.1//EN" "http://www.w3.org/Graphics/SVG/1.1/DTD/svg11.dtd" >
<svg xmlns="http://www.w3.org/2000/svg" xmlns:xlink="http://www.w3.org/1999/xlink" version="1.1" viewBox="-10 0 1034 1024">
  <g transform="matrix(1 0 0 -1 0 820)">
   <path fill="currentColor"
d="M826 44q0 -27 -5 -67h47q-4 33 -5 65l1 650q0 10 6 26q4 12 13 22h-62l4 -42l1 -451q-7 -3 -24 -5q-111 -10 -166 -19v331q0 9 3 31q3 24 14 43h-59q0 -9 2 -14q0 -30 3 -60l-1 -333q-3 -12 -4 -46l95 17l137 19v-167zM354 172l164 -3q3 0 10 -3v47q-24 -4 -65 -5h-109
v149q168 0 178 -3q3 0 8 -3v47q-21 -4 -67 -5h-149v155l158 -3q3 0 11 -3v47q-24 -4 -66 -5h-103v94q0 18 4 31q3 18 15 44h-62q0 -6 2 -12q1 -18 4 -63v-94l-156 3q-6 0 -13 2v-47q19 4 36 5l133 1v-155l-172 1l-39 4v-47q9 3 60 6h179v-369q-87 63 -123 125q12 69 20 94
q4 18 16 36q-18 1 -29 5q-13 1 -31 8q-1 -51 -10 -99q-15 -90 -37 -145q-33 -99 -75 -131q42 -9 47 -11q6 -1 11 -3q33 55 76 197q34 -45 76 -80q97 -82 211 -101q72 -12 235 -12q117 0 239 7l15 32q7 12 17 30q-51 -10 -90 -16l-90 -7q-54 -3 -115 -3q-124 0 -205 12
q-63 9 -119 41v205z" />
  </g>

</svg>
