<?xml version="1.0" standalone="no"?>
<!DOCTYPE svg PUBLIC "-//W3C//DTD SVG 1.1//EN" "http://www.w3.org/Graphics/SVG/1.1/DTD/svg11.dtd" >
<svg xmlns="http://www.w3.org/2000/svg" xmlns:xlink="http://www.w3.org/1999/xlink" version="1.1" viewBox="-10 0 1010 1000">
   <path fill="currentColor"
d="M627 -4q57 0 76 2q22 3 23 10q1 6 -4 12q-11 13 -12 36q-4 66 -4 141v67l46 -33q116 120 185 242l-72 43q-86 -145 -159 -220v317q0 53 6 137h-85q3 -59 4 -138v-508q0 -80 -4 -108zM274 -4q96 0 97 12q1 7 -4 14q-10 14 -10 38v91h56q77 -1 131 -4v76q-29 -4 -127 -4
h-60v123h87q94 -1 139 -4v77q-68 -4 -135 -6h-63v127h52q12 0 68 -3q52 -3 62 -3v78q-40 -3 -136 -4h-46v162q68 30 240 30l107 -2q83 -1 214 -18q-33 57 -47 99q-43 -2 -71 -2h-49h-104q-8 0 -24 -1q-273 -3 -363 -66q-77 -46 -100 -145q-26 114 -81 242q-26 -37 -56 -58
q-6 -4 -9 -7q89 -159 97 -373q101 4 97 18q-1 5 -6 12q-12 15 -16 41q-5 22 -8 58q47 115 104 143v-328h-96q-92 1 -141 4v-75q45 2 141 4h68v-123h-62q-19 0 -115 6v-78q41 3 117 4h60v-81q0 -34 -8 -74z" />
</svg>
