<?xml version="1.0" standalone="no"?>
<!DOCTYPE svg PUBLIC "-//W3C//DTD SVG 1.1//EN" "http://www.w3.org/Graphics/SVG/1.1/DTD/svg11.dtd" >
<svg xmlns="http://www.w3.org/2000/svg" xmlns:xlink="http://www.w3.org/1999/xlink" version="1.1" viewBox="-10 0 1034 1024">
  <g transform="matrix(1 0 0 -1 0 820)">
   <path fill="currentColor"
d="M338 168q96 0 111 -2q6 0 15 -4v47q-66 -6 -86 -6h-40v153h93q51 0 66 -5v46q-30 -4 -66 -5h-112v148h75q51 0 66 -5v46q-33 -1 -66 -5h-75v116q0 16 2 36q0 16 12 32h-58q4 -27 5 -68v-116q-153 3 -173 5v-46q30 4 65 5h108v-148l-174 1q-24 3 -35 4v-46q54 6 76 5h153
v-379q-54 40 -114 129q1 10 3 24l6 46q6 45 28 65q-37 9 -63 17q-1 -165 -56 -297q-13 -33 -29 -60q-6 -12 -26 -38q27 -4 52 -14q33 81 49 124q12 31 26 86q30 -40 44 -55q37 -37 53 -50q37 -28 82 -48q69 -24 181 -30l222 -3q33 1 68 2l138 6q1 27 13 52q-69 -12 -130 -17
q-84 -3 -177 -4l-197 6l-82 15q-22 7 -53 20v215zM535 70l-98 3q-6 0 -12 2v-46q34 4 90 5l407 -1q18 0 28 -4v46q-6 -1 -13 -3l-95 -2v559q0 9 3 32q0 10 2 29q-31 -1 -64 -5l-206 1q-19 3 -48 4l6 -61v-559zM571 70v197h233v-197h-233zM571 302v157h233v-157h-233z
M571 493v158h233v-158h-233z" />
  </g>

</svg>
