<?xml version="1.0" standalone="no"?>
<!DOCTYPE svg PUBLIC "-//W3C//DTD SVG 1.1//EN" "http://www.w3.org/Graphics/SVG/1.1/DTD/svg11.dtd" >
<svg xmlns="http://www.w3.org/2000/svg" xmlns:xlink="http://www.w3.org/1999/xlink" version="1.1" viewBox="-10 0 1034 1024">
  <g transform="matrix(1 0 0 -1 0 820)">
   <path fill="currentColor"
d="M319 160l110 -3q6 0 9 -2v45q-33 -1 -66 -5h-53v147q64 0 101 -3q16 0 29 -4v47q-19 -4 -65 -5h-79v179q90 0 106 -2q13 0 26 -4v47q-24 -4 -65 -5h-67v118q0 9 3 27q3 24 18 41h-65q6 -90 6 -99v-87l-161 3l-6 2v-47q4 1 38 5l128 1v-179q-189 3 -198 5v-47q9 4 26 5
l187 1v-356q-42 42 -50 54q-9 15 -20 30q-21 30 -39 63q6 30 11 54q1 10 8 30q4 15 20 31q-36 6 -62 17q-9 -126 -49 -249q-31 -84 -74 -134q24 -7 36 -11q7 -3 17 -8q15 28 42 98q24 61 38 117q72 -118 157 -164q57 -28 180 -40l141 -7l158 -3l157 3q10 30 23 62
q-39 -12 -60 -15q-24 -3 -71 -6q-42 -1 -88 -2l-148 4l-133 7q-96 10 -156 44v200zM482 712q-10 -13 -29 -31q78 -81 132 -161q13 18 32 32l-131 155q-3 3 -4 5zM474 27q-3 -18 -3 -40l-2 -13h46q-1 9 -3 20l-2 73v370h355v-380q0 -27 -11 -34q-13 -12 -46 -12q-39 4 -52 5
l19 -50q54 4 77 11q51 15 51 73l1 380q0 19 4 48q-66 -6 -86 -6h-123v236q0 13 3 32t17 38h-65q0 -6 3 -13q0 -27 3 -57v-236q-126 0 -153 2q-1 0 -38 4q1 -33 5 -69v-382zM594 191q0 -7 -3 -34q0 -15 -3 -33q54 4 79 5q66 0 82 -2q18 0 37 -3q-4 54 -5 79q0 91 2 104
q0 18 3 39q-66 -6 -89 -6q-78 3 -109 6q6 -60 6 -90v-65zM631 165v140h112v-140h-112zM790 519q75 100 85 110q12 18 29 29q10 10 29 21q-21 13 -49 40q-3 -6 -9 -14q-9 -12 -16 -26q-7 -13 -21 -32q-12 -18 -22 -28q-6 -12 -35 -45q-12 -13 -28 -26z" />
  </g>

</svg>
