<?xml version="1.0" standalone="no"?>
<!DOCTYPE svg PUBLIC "-//W3C//DTD SVG 1.1//EN" "http://www.w3.org/Graphics/SVG/1.1/DTD/svg11.dtd" >
<svg xmlns="http://www.w3.org/2000/svg" xmlns:xlink="http://www.w3.org/1999/xlink" version="1.1" viewBox="-10 0 1034 1024">
  <g transform="matrix(1 0 0 -1 0 820)">
   <path fill="currentColor"
d="M149 262q0 6 2 22q1 16 11 36h-55q1 -30 5 -60v-298q-36 -9 -69 -13q9 -18 18 -45q1 -3 3 -8q21 9 36 16q15 6 33 14l117 40l129 39q15 6 53 14q3 27 7 52q-36 -16 -67 -30q-34 -12 -91 -30v216h86q18 0 46 -3q1 0 14 -2v46q-21 -4 -60 -5h-86v166q84 0 97 -2q15 0 32 -3
q-1 15 -3 29q-3 18 -3 25l1 198q1 19 5 40q-27 -1 -55 -5l-200 1q-15 3 -39 4q1 -27 5 -54l-1 -200q-3 -12 -4 -38q45 4 74 5h53v-428q-42 -16 -94 -29v290zM366 465h-208v210h208v-210zM556 685q3 -21 3 -43q0 -57 -4 -133q-10 -204 -32 -303q-33 -156 -121 -260
q-31 -36 -86 -63q39 -18 58 -30q138 142 184 330q7 30 14 75q6 46 11 102q9 117 13 241q0 51 5 62q3 12 21 31q-22 1 -69 13zM986 -110q-19 12 -32 24q-30 36 -37 48q-60 93 -99 235q-37 148 -49 319l-5 148q0 21 3 37q3 15 18 29q-25 4 -61 16l-2 1q4 -75 5 -105l10 -184
q9 -87 21 -158q30 -166 76 -265q46 -105 100 -177z" />
  </g>

</svg>
