<?xml version="1.0" standalone="no"?>
<!DOCTYPE svg PUBLIC "-//W3C//DTD SVG 1.1//EN" "http://www.w3.org/Graphics/SVG/1.1/DTD/svg11.dtd" >
<svg xmlns="http://www.w3.org/2000/svg" xmlns:xlink="http://www.w3.org/1999/xlink" version="1.1" viewBox="-10 0 1034 1024">
  <g transform="matrix(1 0 0 -1 0 820)">
   <path fill="currentColor"
d="M968 -77q-40 -6 -70 -10q-57 -3 -124 -5l-212 4q-111 4 -193 34q-36 13 -79 43v194q121 0 135 -3q1 0 5 -2v45q-33 -1 -66 -5h-74v120q93 0 101 -3q3 0 5 -2l2 -1v46q-12 -3 -25 -3l-77 -2h-32v164q84 0 94 -3q1 0 6 -3v47q-66 -6 -87 -6h-13v113q0 16 2 34q0 13 11 32
h-56q4 -30 5 -66v-113l-100 4q-6 1 -17 2v-47q6 0 17 3l100 3v-164l-130 3q-7 1 -11 2v-46q10 3 29 4q18 0 35 2h103v-313q-18 19 -38 45q-18 25 -32 57q9 72 14 91q3 18 15 36q-24 0 -55 5q0 -78 -24 -185q-25 -105 -73 -178q19 0 33 -4q6 -1 14 -4q25 58 39 96
q12 33 24 84q33 -48 49 -65q51 -55 120 -89q57 -24 162 -39l152 -9l296 4q3 9 4 16q0 1 16 37zM518 547l-120 4q-4 1 -8 1v-39q24 3 61 5h22q-1 -36 -16 -72q-30 -57 -58 -74q21 -7 40 -18q18 25 29 44q7 15 16 34q15 39 21 86h51l-3 -111q-4 -7 -11 -13q15 -15 23 -31
q18 21 107 78q-4 19 -8 37q-10 -10 -17 -14q-13 -9 -25 -20q-30 -21 -34 -25v99q30 -1 61 -5v39q-33 -1 -65 -5h-33v71l60 -4q6 0 16 -2v39q-3 0 -12 -3q-39 -1 -64 -2q0 81 3 87q1 12 10 23h-51q4 -24 5 -66v-44h-61q12 46 42 65q-30 9 -51 18q-25 -97 -63 -150
q13 -3 16 -5q9 -3 22 -7q9 27 16 36q3 6 6 15h73v-71zM646 239q0 -55 -20 -106q-39 -88 -144 -122q-30 -9 -64 -10q15 -18 28 -43q123 27 192 117q16 24 25 44q9 27 21 77q6 30 26 51q-12 0 -28 2q-12 1 -36 7v-17zM480 336q1 -31 5 -65l-3 -158q-1 -6 -2 -15h47
q-4 54 -5 76v123h302l-1 -149q-1 -9 -2 -32q-1 -3 -1 -6q-1 -3 -2 -8h49q-4 54 -5 81q0 105 2 116q0 18 3 37q-66 -4 -101 -5l-248 1q-15 3 -38 4zM818 520v-93q0 -54 64 -55q19 0 34 6q21 7 36 36q4 9 16 43q-18 9 -40 23q-1 -37 -8 -53q-9 -21 -38 -22q-9 0 -20 4
q-12 6 -12 30v81q72 0 86 -2q9 0 21 -3v38l-63 -5h-78v73h42q33 0 51 -3q3 0 15 -2v38q-4 0 -7 -2l-101 -4q0 78 3 83q1 13 11 25h-54q3 -13 7 -51v-56h-64l13 32q13 28 17 32q3 6 10 11q-30 6 -45 12q-27 -99 -72 -151q24 -3 39 -12q1 1 3 5q1 3 4 7q15 28 21 36h74v-73
l-83 1l-32 4v-38q12 3 64 5h13q-6 -63 -66 -124q-22 -18 -45 -25q27 -9 49 -23q79 72 96 172h39zM694 98q33 -15 97 -53l109 -76q12 18 22 38l-117 74l-87 52q-7 -15 -24 -35v0z" />
  </g>

</svg>
