<?xml version="1.0" standalone="no"?>
<!DOCTYPE svg PUBLIC "-//W3C//DTD SVG 1.1//EN" "http://www.w3.org/Graphics/SVG/1.1/DTD/svg11.dtd" >
<svg xmlns="http://www.w3.org/2000/svg" xmlns:xlink="http://www.w3.org/1999/xlink" version="1.1" viewBox="-10 0 1010 1000">
   <path fill="currentColor"
d="M613 8q99 0 107 8q1 1 -2 7q-18 33 -18 73v89h58q47 0 115 -7q20 -2 28 -3v85q-43 -8 -129 -8h-72v141h92q82 0 139 -8v84q-70 -8 -141 -8h-86q35 203 264 339q-49 27 -81 75q-172 -146 -224 -321q-29 199 -236 351q-25 -33 -90 -75q235 -79 274 -369h-20q-44 0 -119 8
v-84q51 8 121 8h26l4 -141h-30q-45 -1 -111 8v-85q57 10 117 10h24v-91q0 -24 -7 -64q-2 -16 -3 -22zM99 38l143 8h68l130 -8q-7 52 -7 121v64q0 46 6 121q1 6 1 8q-9 -1 -28 -3q-47 -5 -85 -5v129q53 0 111 -8v75q-61 -8 -111 -8v157q13 -4 38 -11q62 -17 93 -29
q-12 49 -6 82q-339 75 -390 105q-2 -47 -26 -96q28 -2 71 -9v-171q0 -65 -8 -135q13 1 37 2q64 3 64 10q1 2 -3 8q-20 37 -20 103v171q23 -7 64 -14q8 -1 11 -2v-359h-34l-119 8q2 -25 4 -66q4 -51 4 -61v-58q0 -14 -4 -66q-3 -39 -4 -63zM183 113v163h174v-163h-174z" />
</svg>
