<?xml version="1.0" standalone="no"?>
<!DOCTYPE svg PUBLIC "-//W3C//DTD SVG 1.1//EN" "http://www.w3.org/Graphics/SVG/1.1/DTD/svg11.dtd" >
<svg xmlns="http://www.w3.org/2000/svg" xmlns:xlink="http://www.w3.org/1999/xlink" version="1.1" viewBox="-10 0 1034 1024">
  <g transform="matrix(1 0 0 -1 0 820)">
   <path fill="currentColor"
d="M428 349q34 12 47 11q27 4 101 11q276 10 304 12q4 1 12 1q15 -24 37 -65q19 16 39 29l-86 117l-86 111q-13 -12 -33 -24l60 -75l43 -59q-88 0 -209 -6q-51 -3 -87 -4l-82 -1q30 39 61 86q34 52 80 128q36 60 50 74q13 15 43 25q-24 12 -64 39q-24 -63 -65 -131
q-34 -57 -70 -111q-34 -55 -43 -63q-31 -39 -74 -50zM498 -85q0 -30 -5 -63h48q-3 15 -4 38l-1 35h293q-1 -30 -3 -62q0 -3 -2 -7h49q-1 3 -1 5q-3 6 -3 30l-1 313l4 50q0 7 1 16q-30 -1 -61 -5l-274 1q-19 3 -45 4q1 -33 5 -66v-289zM536 -39v268h293v-268h-293zM50 -39
q9 -24 18 -54q48 18 120 30q99 15 215 39q19 1 42 5q0 6 -1 14q0 12 5 31q-21 -6 -51 -13l-107 -20v218l141 -5q1 -1 5 -3v49q-19 -3 -23 -4l-123 -1v162q69 0 98 -4q3 0 8 -1q-4 49 -5 94l1 154q0 19 4 44q-30 -1 -59 -5q-175 0 -195 2q-6 3 -37 3q1 -30 5 -62l-1 -186
l-4 -44q49 4 72 5h75v-424l-94 -15v271q0 36 14 67h-59q1 -18 5 -38l2 -84v-221q-30 -3 -50 -4h-21zM354 655v-210h-206v210h206z" />
  </g>

</svg>
