<?xml version="1.0" standalone="no"?>
<!DOCTYPE svg PUBLIC "-//W3C//DTD SVG 1.1//EN" "http://www.w3.org/Graphics/SVG/1.1/DTD/svg11.dtd" >
<svg xmlns="http://www.w3.org/2000/svg" xmlns:xlink="http://www.w3.org/1999/xlink" version="1.1" viewBox="-10 0 1034 1024">
  <g transform="matrix(1 0 0 -1 0 820)">
   <path fill="currentColor"
d="M305 247h85l46 -4l13 -2v47q-16 -6 -59 -6h-85v151q69 0 83 -2q15 0 31 -3q-4 45 -5 87q0 144 2 156q0 16 3 34l-52 -6l-208 1q-4 1 -40 5q6 -60 6 -71l-1 -165q-1 -4 -3 -15q0 -15 -2 -26q45 4 68 5h80v-416q-78 -24 -101 -29v276q0 6 2 24q1 15 11 34h-55q4 -27 5 -59
v-285q-39 -10 -82 -17q7 -21 12 -39q1 -7 4 -17q79 30 83 31q42 15 90 30q112 31 198 52q0 27 3 36q1 6 3 17q-30 -12 -59 -21l-76 -22v219zM161 469v194h215v-194h-215zM595 363l34 122l296 -1l34 -4v46q-21 -4 -59 -5h-265l16 100q4 24 9 51q7 57 41 76q-18 4 -36 7
t-42 10q0 -7 1 -19q0 -58 -29 -225h-86q-36 0 -54 4q-4 1 -7 1v-46q49 4 71 5h68q-27 -117 -85 -235q-45 -91 -102 -142q25 -6 54 -21q42 64 71 118q25 52 55 124h237q-12 -52 -38 -116q-15 -36 -27 -55q-16 -28 -47 -71q-48 72 -62 102q-16 40 -18 69q-22 -12 -50 -21
l52 -101q13 -27 49 -80q-58 -55 -149 -107q-76 -40 -161 -55q16 -25 29 -50q60 24 97 42q31 13 51 25q72 42 162 114q30 -34 51 -53l53 -45l48 -32l80 -47q27 36 39 48q-34 9 -62 20q-22 9 -52 27q-69 42 -131 111q78 103 125 265q0 1 6 17q4 15 10 34q-42 -6 -57 -7h-220z
M759 718q-18 -21 -33 -32q70 -55 129 -126q15 21 30 35q-25 27 -126 123v0z" />
  </g>

</svg>
