<?xml version="1.0" standalone="no"?>
<!DOCTYPE svg PUBLIC "-//W3C//DTD SVG 1.1//EN" "http://www.w3.org/Graphics/SVG/1.1/DTD/svg11.dtd" >
<svg xmlns="http://www.w3.org/2000/svg" xmlns:xlink="http://www.w3.org/1999/xlink" version="1.1" viewBox="-10 0 1010 1000">
   <path fill="currentColor"
d="M710 2q22 83 26 131l-89 12q-2 -73 -28 -123zM101 78q18 3 101 6h117q15 -1 40 -2q32 -2 64 -2q-5 41 -6 99v107q0 49 4 99q-38 -4 -86 -4h-20v127h44q54 0 93 -8v84q-28 -7 -99 -8h-38v166q48 -6 137 -29q-16 41 -12 85q-222 34 -382 83q-5 -55 -30 -93l63 -8v-220
q0 -23 -5 -88q-1 -8 -1 -11q18 2 49 5q48 4 45 7q0 5 -5 12q-15 21 -15 59v224l85 -12v-375h-52q-76 0 -91 6q6 -26 6 -101v-111q-1 -71 -6 -97zM345 151h-166v163h166v-163zM925 153q-5 25 -4 76v23q0 71 6 96h-92q10 -38 10 -117h-305q0 89 8 119h-92q8 -27 8 -102
q0 -72 -4 -93q30 5 145 8h179q62 0 136 -9q3 -1 5 -1zM569 346q93 4 106 12q1 2 -5 13q-17 33 -17 62v107q128 -74 162 -127l21 18q68 58 57 59q-4 5 -15 5q-25 1 -51 17q-84 53 -174 96v154q-1 42 16 52q13 11 71 8q64 0 77 -17q18 -14 32 -90q42 41 86 55q-19 76 -49 101
q-14 13 -35 18q-19 4 -57 4h-104q-78 2 -93 -16q-21 -15 -20 -85v-343q-3 -75 -8 -103z" />
</svg>
