<?xml version="1.0" standalone="no"?>
<!DOCTYPE svg PUBLIC "-//W3C//DTD SVG 1.1//EN" "http://www.w3.org/Graphics/SVG/1.1/DTD/svg11.dtd" >
<svg xmlns="http://www.w3.org/2000/svg" xmlns:xlink="http://www.w3.org/1999/xlink" version="1.1" viewBox="-10 0 1010 1000">
   <path fill="currentColor"
d="M629 12q74 -1 107 8q1 2 -3 11q-14 34 -15 69v5q-2 42 -4 92h94q50 1 81 -8v79q-38 -9 -81 -8h-96l-2 175h115q61 0 98 -10v87q-25 -11 -94 -10h-101q49 222 228 286q-50 28 -79 77q-166 -118 -189 -321q-20 105 -69 183q-65 94 -182 158q-41 -38 -98 -63
q241 -62 292 -320h-85q-67 -1 -100 8v-83q37 8 94 8h99v-30q2 -77 2 -145h-95q-11 51 -38 133q-36 -16 -85 -10q72 -132 67 -293q67 8 99 22q0 1 -3 6q-19 30 -26 79h81q0 -79 -2 -115q-3 -42 -10 -70zM403 74q-9 33 -8 89v109q-1 55 6 88q-36 -9 -95 -8v129q84 1 115 -8v79
q-29 -8 -115 -8v149q89 -24 138 -42l-4 80q-155 24 -371 95l-27 -95l59 -2v-199q1 -53 -8 -95q42 0 84 10q11 2 3 16q-11 19 -11 35v223q1 0 3 -1q36 -9 68 -13v-353q-86 -1 -143 8q8 -48 8 -96v-97q0 -35 -1 -52q-2 -21 -7 -41q35 9 103 8h82q79 1 121 -8zM327 145h-154
v143h154v-143z" />
</svg>
