<?xml version="1.0" standalone="no"?>
<!DOCTYPE svg PUBLIC "-//W3C//DTD SVG 1.1//EN" "http://www.w3.org/Graphics/SVG/1.1/DTD/svg11.dtd" >
<svg xmlns="http://www.w3.org/2000/svg" xmlns:xlink="http://www.w3.org/1999/xlink" version="1.1" viewBox="-10 0 1034 1024">
  <g transform="matrix(1 0 0 -1 0 820)">
   <path fill="currentColor"
d="M105 -36q-33 -9 -70 -13q12 -18 25 -54q58 28 164 63q100 30 197 56l4 36q1 7 4 19q-73 -31 -146 -51v222h82q22 0 46 -3l13 -2v46q-21 -4 -59 -5h-82v162q75 0 89 -2q16 0 34 -3q-6 54 -6 76l1 164q0 12 5 42q-45 -4 -58 -5l-204 1q-15 3 -39 4q1 -18 2 -30q3 -21 3 -62
q0 -135 -2 -157q-3 -3 -3 -33q45 4 67 5h74v-434q-51 -18 -104 -31v273q0 6 2 23q0 16 11 36h-56q0 -6 3 -15q3 -24 3 -64v-264zM147 476v200h215v-200h-215zM889 254q28 -1 59 -5v46q-24 -4 -59 -5h-185l3 91l2 117h148q37 0 60 -5v46q-21 -4 -60 -5h-148q0 202 3 212
q1 13 10 27h-56q4 -30 5 -60v-179h-129q4 18 10 35q6 22 19 58q10 30 36 49q-31 4 -30 5q-15 3 -38 10q-21 -147 -79 -257q-25 -43 -50 -66q15 -3 28 -8q16 -4 25 -9l41 89l24 58h143l-2 -113q0 -45 -5 -95h-145q-34 0 -53 4q-3 0 -7 1v-46q60 6 79 5h122q-18 -91 -54 -160
q-42 -84 -126 -152q-60 -48 -119 -62q4 -3 9 -7l38 -32q108 66 171 144q40 51 63 94q19 40 52 131q21 -67 39 -108q18 -39 54 -92q42 -69 151 -166q24 24 51 45q-42 15 -68 35q-42 30 -82 82q-82 103 -117 248h167z" />
  </g>

</svg>
