<?xml version="1.0" standalone="no"?>
<!DOCTYPE svg PUBLIC "-//W3C//DTD SVG 1.1//EN" "http://www.w3.org/Graphics/SVG/1.1/DTD/svg11.dtd" >
<svg xmlns="http://www.w3.org/2000/svg" xmlns:xlink="http://www.w3.org/1999/xlink" version="1.1" viewBox="-10 0 1010 1000">
   <path fill="currentColor"
d="M800 2q63 48 85 90q-2 1 -10 1q-86 -2 -319 42q-14 194 -22 258h127v-103q0 -71 -8 -113q97 2 99 14q1 3 -4 14q-16 32 -16 73v115h30q88 0 149 -8v80q-45 -8 -149 -8h-30v367q9 51 -147 73q-1 -58 -33 -99q120 21 109 -28v-313h-34q-112 0 -173 8q18 -113 36 -387
q184 -12 310 -76zM107 56q53 8 135 8h32q77 0 133 -8q-8 60 -8 125v52q0 93 8 134q-43 -7 -105 -7v107q80 1 133 -8v81q-41 -8 -133 -8v167q49 -11 81 -20q-8 36 0 61q0 4 -110 32q-171 44 -204 60q-9 -52 -25 -92q12 -2 44 -4q12 -1 19 -1v-153q0 -65 -8 -139q92 12 89 22
q1 4 -2 12q-13 34 -13 97v149q7 -1 21 -4q28 -5 42 -8v-351q-56 0 -129 7q0 -2 1 -6q7 -69 7 -123v-49q0 -75 -8 -133zM187 131v161h140v-161h-140zM841 538q14 26 43 80q54 101 80 152l-89 38q-36 -123 -109 -238zM532 526q7 2 23 8q68 22 68 28q-1 2 -7 6q-25 15 -45 45
q-45 72 -97 159q-23 38 -36 60q-37 -26 -93 -38q103 -88 187 -268z" />
</svg>
