<?xml version="1.0" standalone="no"?>
<!DOCTYPE svg PUBLIC "-//W3C//DTD SVG 1.1//EN" "http://www.w3.org/Graphics/SVG/1.1/DTD/svg11.dtd" >
<svg xmlns="http://www.w3.org/2000/svg" xmlns:xlink="http://www.w3.org/1999/xlink" version="1.1" viewBox="-10 0 1034 1024">
  <g transform="matrix(1 0 0 -1 0 820)">
   <path fill="currentColor"
d="M403 -43q25 -12 44 -25q19 27 57 95q33 60 58 114q21 42 28 50q7 10 31 21q-27 12 -61 37q-9 -46 -41 -114q-30 -63 -66 -120q-24 -33 -50 -58zM504 293q18 13 32 17q18 3 54 3h103v-360q0 -39 -67 -40q-25 0 -55 8q9 -24 10 -52q15 1 31 1q64 3 89 15q30 15 30 54v374
l168 -1q21 0 29 -4q3 0 5 -1v47q-10 -1 -22 -4l-180 -1v193q0 13 3 33q0 15 11 34h-57q0 -7 2 -14q0 3 1 -8q0 -22 2 -45v-193h-167l13 188l3 47q1 43 5 85l203 24q48 6 83 14q40 7 60 8q7 0 28 -3q-13 24 -24 54q-46 -15 -100 -27q-148 -30 -237 -30q-21 0 -56 4
q3 -45 3 -73l-1 -46l-8 -134q-3 -66 -11 -89q-4 -21 -20 -38zM824 242q-19 -15 -34 -22l40 -65q19 -34 45 -83q28 -54 51 -110q22 15 40 24zM50 -27q12 -28 16 -48q0 -4 2 -10q42 18 50 19q3 0 131 33l112 26q34 6 63 13q0 15 4 48q-21 -9 -48 -17q-30 -9 -84 -22v220
q57 0 119 -3q1 0 4 -2q3 0 5 -1v47q-3 0 -8 -2q-15 0 -31 -2l-89 -1v163q66 0 81 -2q15 0 31 -3q-6 55 -5 82l1 170l4 44q-55 -4 -81 -5l-154 1q-15 3 -43 4q1 -30 5 -62l-1 -190q-3 -12 -4 -44q46 4 96 5h32v-428l-84 -18v272q0 37 13 67h-57q6 -66 6 -86v-260
q-37 -7 -68 -8h-18zM365 684v-214h-193v214h193z" />
  </g>

</svg>
