<?xml version="1.0" standalone="no"?>
<!DOCTYPE svg PUBLIC "-//W3C//DTD SVG 1.1//EN" "http://www.w3.org/Graphics/SVG/1.1/DTD/svg11.dtd" >
<svg xmlns="http://www.w3.org/2000/svg" xmlns:xlink="http://www.w3.org/1999/xlink" version="1.1" viewBox="-10 0 1010 1000">
   <path fill="currentColor"
d="M569 22q94 35 96 44q0 4 -10 10q-21 12 -28 30q-19 47 -55 121q-9 21 -14 31v488q0 78 9 141h-91q1 -6 2 -19q8 -72 8 -120v-365q-19 28 -60 93q2 -3 -3 5q-26 -25 -70 -46q7 -8 17 -18q14 -14 23 -26q-24 -8 -87 -8v137q76 0 129 -8v76q-45 -8 -129 -8v135l127 -34
q-6 39 5 77q-202 37 -357 98q-6 -34 -25 -76l47 -12v-186q0 -48 -1 -70q-1 -26 -3 -47q82 0 86 12q1 4 -3 12q-13 24 -13 73v188l71 -19v-346l-125 8q8 -78 8 -164q0 -92 -8 -145q18 1 56 4q57 4 85 4q81 0 151 -8q-8 45 -8 149q0 99 8 142q105 -152 162 -353zM766 22
q91 0 95 12q1 2 -1 9q-11 30 -11 94v143q60 0 99 -8v88q-50 -8 -99 -8v414q2 73 -26 92q-24 22 -123 27q4 -34 -23 -75q67 2 83 -9q17 -9 16 -51v-398h-34q-70 0 -151 8v-88q91 8 145 8h40v-113q0 -90 -10 -145zM331 155h-141v165h141v-165zM675 421q2 8 8 23q23 72 49 168
l-73 19q-12 -91 -58 -188z" />
</svg>
