<?xml version="1.0" standalone="no"?>
<!DOCTYPE svg PUBLIC "-//W3C//DTD SVG 1.1//EN" "http://www.w3.org/Graphics/SVG/1.1/DTD/svg11.dtd" >
<svg xmlns="http://www.w3.org/2000/svg" xmlns:xlink="http://www.w3.org/1999/xlink" version="1.1" viewBox="-10 0 1034 1024">
  <g transform="matrix(1 0 0 -1 0 820)">
   <path fill="currentColor"
d="M575 344v-369q0 -19 -12 -31q-10 -9 -38 -9q-19 0 -54 4q10 -18 14 -28q9 -15 10 -23q63 3 91 20q21 16 22 63v373h97q0 -117 -8 -210q-10 -87 -32 -147q-27 -67 -65 -102q10 -3 22 -7q15 -4 29 -14q54 93 71 198q3 15 6 46l6 78q4 87 5 158h105v-374q0 -30 -11 -38
q-12 -7 -33 -8q-27 3 -56 5q13 -27 20 -54q87 9 103 32q10 18 11 65v372q63 0 86 -3q6 0 14 -2v46q-33 -1 -65 -5h-35l1 303q0 22 4 51q-55 -4 -90 -5l-94 5q1 -18 3 -33q3 -24 3 -34v-287h-97l1 298q0 18 4 51l-75 -5q-42 0 -66 2q-3 1 -5 1q-12 0 -31 2q1 -34 5 -70v-279
q-37 1 -76 3q-7 1 -11 2v-46q51 4 87 5q0 -144 -11 -222q-9 -73 -40 -147q-25 -57 -61 -87q24 -7 50 -23q27 42 49 107q24 69 32 122q15 100 14 250h101zM474 380v311h101v-311h-101zM739 380v315h105v-315h-105zM147 264q0 18 2 36q0 15 10 32h-54q1 -33 5 -68v-250
q-30 -7 -67 -11q18 -48 18 -51q9 3 16 6q12 3 24 9q16 3 42 12q225 63 240 66q1 24 4 47q-28 -12 -123 -39v202q88 0 107 -3q6 0 12 -2v46q-33 -1 -67 -5h-52v155l100 -5l-3 36q-3 27 -3 45q0 156 2 167l4 37q-72 -4 -110 -5q-87 0 -110 2q-1 0 -38 3q1 -31 5 -64l-1 -169
q0 -1 -4 -52q15 3 52 4l68 1v-402q-39 -13 -79 -21v241zM148 482v203h172v-203h-172z" />
  </g>

</svg>
