<?xml version="1.0" standalone="no"?>
<!DOCTYPE svg PUBLIC "-//W3C//DTD SVG 1.1//EN" "http://www.w3.org/Graphics/SVG/1.1/DTD/svg11.dtd" >
<svg xmlns="http://www.w3.org/2000/svg" xmlns:xlink="http://www.w3.org/1999/xlink" version="1.1" viewBox="-10 0 1034 1024">
  <g transform="matrix(1 0 0 -1 0 820)">
   <path fill="currentColor"
d="M46 -70q15 -21 28 -46l86 43l149 63l109 42q0 27 2 53q-55 -31 -69 -39q-21 -6 -39 -16q-12 -3 -23 -10v213q75 0 96 -3q6 0 13 -2v46q-33 -1 -65 -5h-44v175l107 -4q1 0 6 -1q-6 63 -5 100q0 141 2 154q-1 3 0 5q1 13 3 32q-19 -1 -35 -3q-24 -3 -81 -3q-93 0 -122 2
q-12 3 -44 4l4 -37q3 -21 3 -70l-1 -133q-3 -9 -6 -51q54 4 114 5h17v-440q-24 -12 -45 -19q-21 -9 -57 -21v298q0 16 2 35q0 12 10 30h-54q4 -27 5 -65v-312q-60 -16 -66 -20zM164 480v208h194v-208h-194zM369 -137q9 -9 19 -21q105 70 157 156q33 54 49 117q13 61 17 171
h115v-350q0 -42 23 -61q12 -9 46 -12q25 0 51 -2q24 0 62 8q33 9 51 68q3 9 15 65q-3 0 -33 15q-6 4 -14 9q0 -15 -2 -32q-1 -57 -17 -73q-19 -18 -71 -18q-16 1 -31 1q-24 1 -33 8q-9 9 -9 29v345l149 -1l40 -4v46q-33 -1 -66 -5h-183v199l160 -1l42 -4v46q-33 -1 -66 -5
h-136v151q0 15 2 35q0 12 10 31h-56q6 -36 6 -66v-151h-135q9 36 19 62q6 21 27 33q-13 4 -61 24q-7 -48 -15 -78q-6 -27 -19 -66q-30 -88 -67 -138q21 -3 50 -16l54 143h147v-199l-196 1q-19 3 -34 4v-46q49 6 106 5h29q-1 -67 -5 -106q-3 -31 -9 -54q-22 -90 -90 -164
q-55 -55 -121 -79q10 -10 23 -20v0z" />
  </g>

</svg>
