<?xml version="1.0" standalone="no"?>
<!DOCTYPE svg PUBLIC "-//W3C//DTD SVG 1.1//EN" "http://www.w3.org/Graphics/SVG/1.1/DTD/svg11.dtd" >
<svg xmlns="http://www.w3.org/2000/svg" xmlns:xlink="http://www.w3.org/1999/xlink" version="1.1" viewBox="-10 0 1034 1024">
  <g transform="matrix(1 0 0 -1 0 820)">
   <path fill="currentColor"
d="M625 -72q-52 1 -101 8v104l241 2l54 -4q3 0 8 -2v45q-9 -1 -13 -3q-13 0 -53 -2h-237v83l228 -1q18 0 51 -4q-4 52 -5 105q1 36 5 74l-72 -6l-456 1q-9 1 -25 3q-18 0 -38 2q4 -99 5 -104q-3 -36 -5 -75q36 3 73 5h201v-217q-54 15 -101 42q-58 37 -86 81q13 31 50 43
l-54 34q-40 -73 -94 -131q-45 -46 -75 -71q-33 -24 -70 -40q27 -13 48 -31q115 93 169 163q63 -78 148 -109q90 -33 250 -36l258 -5q3 25 22 52q-72 -9 -170 -9zM254 193v100h506v-100h-506zM462 525q-30 -9 -76 -21l-86 -19v169q115 0 134 -3q6 0 10 -2v45q-33 -1 -66 -5
l-270 3q-7 1 -11 2v-45q66 6 117 5h48v-177q-97 -18 -162 -29q-15 -3 -37 -4q9 -24 21 -49q33 10 52 14l116 27l124 27l83 17zM743 684v-235q0 -31 16 -47q21 -18 76 -19q60 0 87 19q22 21 44 92q-21 7 -47 21q-1 -45 -13 -67q-16 -27 -63 -27h-20q-42 0 -42 38l1 217l4 48
q-34 -1 -69 -5q-142 0 -169 2q-3 1 -6 1q-12 0 -32 2q6 -48 6 -73q0 -76 -12 -133q-13 -57 -69 -104q-19 -16 -62 -40q21 -12 44 -29q93 75 113 132q12 34 18 70q3 22 4 54q1 34 2 83h189zM705 483q-40 45 -101 107l-30 -29q42 -37 63 -60l39 -46q13 15 29 28v0z" />
  </g>

</svg>
