<?xml version="1.0" standalone="no"?>
<!DOCTYPE svg PUBLIC "-//W3C//DTD SVG 1.1//EN" "http://www.w3.org/Graphics/SVG/1.1/DTD/svg11.dtd" >
<svg xmlns="http://www.w3.org/2000/svg" xmlns:xlink="http://www.w3.org/1999/xlink" version="1.1" viewBox="-10 0 1010 1000">
   <path fill="currentColor"
d="M478 14q46 5 139 6h75q92 0 133 -6q-14 134 -18 207q-1 14 -1 19q-4 69 57 52q13 0 22 -69q31 33 77 39q-19 94 -59 103q-27 8 -111 2q-69 2 -62 -79q1 -31 8 -130q3 -55 4 -70h-184q10 196 -118 307h195q112 -3 151 -6q-9 49 -6 105v10q0 93 6 113q-13 -4 -93 -7h-12
h-153v59h155q123 0 162 -6v72q-33 -6 -168 -6h-149v73q47 2 119 1q69 0 131 -3q117 -7 172 -20q-35 67 -39 99h-63q-385 6 -457 -37q-87 -47 -127 -107q-68 98 -167 156q-7 -7 -19 -21q-23 -28 -48 -42q155 -53 200 -207q95 19 105 28q3 5 -8 10q-19 10 -29 22
q52 77 158 107v-178h-162q-58 0 -115 5q7 -29 6 -105v-29q0 -48 -6 -92q32 3 131 6h115q-18 -24 -60 -47q83 -54 104 -121q11 -34 13 -83q3 -46 -4 -130zM81 36q25 7 106 8h113q79 0 109 -8v81q-31 -7 -101 -7h-22v140q40 -7 121 -29q-6 56 -4 77q-196 35 -330 69
q-6 -35 -19 -89q43 4 160 -14v-154h-24q-72 0 -109 7v-81zM653 143q9 21 24 82q7 29 10 41l-74 18q-3 -66 -26 -125zM264 459v87h436v-87h-436z" />
</svg>
