<?xml version="1.0" standalone="no"?>
<!DOCTYPE svg PUBLIC "-//W3C//DTD SVG 1.1//EN" "http://www.w3.org/Graphics/SVG/1.1/DTD/svg11.dtd" >
<svg xmlns="http://www.w3.org/2000/svg" xmlns:xlink="http://www.w3.org/1999/xlink" version="1.1" viewBox="-10 0 1010 1000">
   <path fill="currentColor"
d="M702 -8q5 21 17 68q10 38 15 59h119q69 -1 101 -9v83q-21 -8 -97 -8h-18q-39 102 -97 175q82 38 236 35q-28 35 -43 92q-140 -24 -252 -78q-139 64 -239 87q-1 -45 -39 -85q118 0 218 -46q-23 -20 -96 -120q-12 -18 -17 -24l33 -12q30 -9 46 -16q14 44 88 135
q50 -45 85 -145h-206q-86 2 -123 10v-83q68 7 119 9h103q-25 -75 -48 -113zM105 50q21 6 99 6h90q77 0 107 -6q-7 34 -8 101v95q3 72 6 102q-9 -2 -30 -3q-17 -1 -63 -1v125h29q49 -1 90 -8v73q-15 -6 -94 -6h-25v171q57 -13 132 -32q-40 10 6 -2q-11 35 -11 81
q-236 48 -377 94q-2 -48 -18 -94h3q21 -3 50 -8v-220q-3 -74 -6 -91q14 2 41 4q59 5 55 10q0 2 -4 7q-18 24 -18 54v227l79 -18v-367h-48q-72 0 -85 6q7 -31 8 -98v-105q0 -18 -7 -90q-1 -5 -1 -7zM181 119v161h144v-161h-144zM540 488q18 2 49 5q52 4 50 7q2 5 -6 14
q-10 12 -10 20q-7 166 -41 226q-31 68 -144 145q-22 -41 -93 -65q128 -36 166 -109q21 -38 28 -94q6 -55 1 -149zM734 488q20 2 54 5q49 3 47 7q1 2 -2 7q-16 30 -16 81v180q1 73 8 129h-97q9 -48 10 -125v-162q3 -92 -4 -122z" />
</svg>
