<?xml version="1.0" standalone="no"?>
<!DOCTYPE svg PUBLIC "-//W3C//DTD SVG 1.1//EN" "http://www.w3.org/Graphics/SVG/1.1/DTD/svg11.dtd" >
<svg xmlns="http://www.w3.org/2000/svg" xmlns:xlink="http://www.w3.org/1999/xlink" version="1.1" viewBox="-10 0 1010 1000">
   <path fill="currentColor"
d="M454 6q100 12 98 22q0 2 -4 6q-18 20 -18 64v79h32q42 0 79 -8v73q-15 -5 -85 -9h-26v160q51 -34 93 -69q4 42 10 75q-93 55 -177 127q-5 -41 -31 -81q24 -18 29 -34q7 -13 6 -53v-268q0 -61 -6 -84zM671 10q103 3 99 10q1 5 -7 15q-19 24 -19 49v143q83 -67 105 -125
q79 60 78 73q-2 4 -14 9q-17 7 -28 15q-66 53 -141 107v83q-2 48 50 46q35 2 46 -17q14 -18 23 -82q31 33 81 51q-22 77 -39 93q-19 21 -68 20h-75q-54 0 -70 -21q-8 -10 -11 -28q-2 -15 -2 -56v-289q-2 -63 -8 -96zM101 50q23 6 115 6h82q73 -3 103 -6q-6 27 -6 97v101
q0 45 6 104q-33 -6 -95 -6v121h31q46 0 76 -6v71q-30 -6 -82 -6h-25v159q51 -15 83 -32v-59q23 5 80 7q15 1 23 1h113q0 -64 -1 -79q-1 -21 -5 -33q23 3 63 7q44 3 40 7q0 2 -3 6q-18 33 -18 92h138q66 -1 125 -10v79q-36 -6 -127 -6h-136v115q0 90 6 119h-92
q10 -59 10 -117v-117h-121q-58 0 -89 8q-6 29 0 62q-167 39 -337 97q-4 -57 -32 -94q46 0 77 -7v-262q0 -28 -4 -56q17 3 47 7q47 6 44 9q0 2 -4 11q-15 35 -15 72v207l65 -18v-355h-40q-74 3 -95 6q6 -23 6 -108v-111q-3 -59 -6 -83zM179 119v163h144v-163h-144z" />
</svg>
