<?xml version="1.0" standalone="no"?>
<!DOCTYPE svg PUBLIC "-//W3C//DTD SVG 1.1//EN" "http://www.w3.org/Graphics/SVG/1.1/DTD/svg11.dtd" >
<svg xmlns="http://www.w3.org/2000/svg" xmlns:xlink="http://www.w3.org/1999/xlink" version="1.1" viewBox="-10 0 1010 1000">
   <path fill="currentColor"
d="M446 44q23 5 135 6h173q92 -3 121 -6q-6 39 -6 97v50q0 71 6 95q-32 -6 -121 -6h-212v87q-7 52 47 52q27 2 97 3q83 1 106 -1q54 -11 71 -97q37 41 83 51q-23 105 -115 115q-92 4 -289 -3q-84 -3 -74 -90v-103q0 -42 -6 -85q27 5 117 6h213v-100h-211q-93 0 -135 6v-77z
M101 42q60 6 103 6h94q36 0 97 -6q-3 20 -5 52q-2 29 -1 45v127q0 35 8 90q-24 -6 -91 -6v115q63 -1 107 -8v75q-45 -9 -107 -6v151q38 -12 77 -24q-6 42 0 78q-147 34 -325 99q-6 -26 -34 -88l75 -13v-254q0 -16 -6 -82q15 2 41 4q51 4 51 10q1 3 -3 13q-11 28 -11 57v236
q4 -1 14 -4t51 -12v-347h-48q-42 0 -87 6q6 -36 6 -92v-137q0 -22 -4 -66q-2 -13 -2 -19zM317 113h-138v171h138v-171zM685 510q32 66 59 131l-75 24q-13 -71 -56 -133zM859 544q59 114 95 212l-83 32q-12 -101 -83 -216zM429 558q33 -1 81 12q-1 6 -4 15q-6 17 -10 42
q-21 141 -42 207l-83 -22q52 -101 58 -254zM528 570q11 1 35 3q64 4 60 9q-1 2 -5 8q-15 20 -15 45v137q-1 32 22 34q45 3 89 0q39 1 40 -91q46 35 89 47q-2 7 -7 19q-24 80 -52 88q-30 14 -152 11q-15 -1 -23 -1q-48 -1 -63 -17q-15 -13 -14 -60v-169v-6q0 -13 -3 -50
q-1 -5 -1 -7z" />
</svg>
