<?xml version="1.0" standalone="no"?>
<!DOCTYPE svg PUBLIC "-//W3C//DTD SVG 1.1//EN" "http://www.w3.org/Graphics/SVG/1.1/DTD/svg11.dtd" >
<svg xmlns="http://www.w3.org/2000/svg" xmlns:xlink="http://www.w3.org/1999/xlink" version="1.1" viewBox="-10 0 1034 1024">
  <g transform="matrix(1 0 0 -1 0 820)">
   <path fill="currentColor"
d="M154 275q0 6 2 24q1 16 12 36h-56q1 -30 5 -61v-279q-27 -9 -38 -10q24 -42 29 -55q31 22 52 33q27 15 89 41q24 7 56 24q51 24 81 36l6 55q-25 -16 -49 -29q-24 -12 -67 -32v225h50q22 0 47 -3l13 -2v46q-21 -4 -60 -5h-50v138q75 0 89 -2q12 0 34 -3q-6 60 -6 72
q0 168 2 181l4 32q-55 -4 -77 -5l-153 1q-3 0 -40 4q1 -28 5 -58q0 -163 -2 -192q-3 -3 -3 -35q45 4 95 5h14v-413q-22 -12 -40 -20l-44 -16v267zM171 493v203h184v-203h-184zM633 -84q0 -19 -5 -65h48q-4 34 -5 65v286l29 -42l77 -95q39 -42 121 -120q24 22 48 41
q-49 18 -121 89q-81 81 -139 174h170q22 0 47 -4l13 -2v47q-18 -6 -60 -6h-185q0 112 3 121q1 12 10 26h-56q4 -30 5 -59v-88h-140q-37 0 -54 5q-4 1 -7 1v-47q3 0 7 1q19 4 54 5h124q-45 -81 -122 -166q-78 -82 -138 -102l50 -38q66 58 113 110q51 57 113 143v-280z
M579 705h165v-221q0 -40 14 -54q15 -15 57 -16q39 3 78 5q13 0 27 3v14q0 12 3 40q-24 -9 -44 -14q-42 -6 -63 -6q-13 1 -23 4q-10 4 -11 33l1 216l4 37q-55 -4 -82 -5l-133 1q-15 3 -36 4q1 -27 5 -54l-4 -115q-6 -24 -11 -49q-13 -45 -45 -76q-27 -24 -66 -36
q18 -18 39 -44q39 33 61 56q40 48 53 107q10 42 11 107v63z" />
  </g>

</svg>
