<?xml version="1.0" standalone="no"?>
<!DOCTYPE svg PUBLIC "-//W3C//DTD SVG 1.1//EN" "http://www.w3.org/Graphics/SVG/1.1/DTD/svg11.dtd" >
<svg xmlns="http://www.w3.org/2000/svg" xmlns:xlink="http://www.w3.org/1999/xlink" version="1.1" viewBox="-10 0 1034 1024">
  <g transform="matrix(1 0 0 -1 0 820)">
   <path fill="currentColor"
d="M323 657q0 81 3 90q1 9 10 20h-55q6 -60 6 -94v-16l-203 3q-4 1 -9 2v-44q31 4 63 5h149v-108l-173 -33q-30 -3 -42 -5q13 -22 25 -44l92 26q87 19 98 23v-74q0 -21 -11 -35q-15 -16 -56 -17q-19 0 -58 4q12 -22 20 -45q30 0 55 5q43 6 64 22q21 18 22 57v90l115 26
q10 0 19 3q1 21 4 40q-37 -10 -65 -18l-73 -17v100q124 0 143 -3q3 0 9 -2v44q-9 -3 -26 -4zM746 528l-1 -140q-3 -18 -3 -39q-1 -1 -1 -5h47q-6 27 -5 87v97l131 -3q6 0 8 -2v44q-31 -1 -64 -5h-305v117q9 0 24 3q36 7 100 16q27 3 53 8q87 15 101 14h28q-13 21 -23 33
q-3 7 -9 16q-57 -18 -121 -34q-42 -7 -91 -14q-54 -6 -73 -7l-31 1q4 -54 5 -88q-1 -85 -10 -133q-9 -46 -37 -83q-21 -28 -69 -57q24 -7 46 -23q30 25 65 75q15 27 23 47q9 30 19 75h193zM115 -113q6 4 13 9q36 25 54 41q4 3 62 61q10 9 21 21q27 -21 46 -35
q46 -33 100 -52q87 -33 279 -33l84 1l159 9q6 25 21 55q-48 -13 -92 -19q-102 -7 -202 -10q-58 0 -134 5v99l259 -1l39 -4v44q-6 0 -13 -3l-168 -2h-117v78l204 -1q18 0 50 -4l-4 34l-2 71q0 18 6 59q-60 -4 -69 -5l-439 1q-15 3 -39 4q4 -94 5 -98q-3 -33 -5 -66q15 3 51 4
l205 1v-203q-126 21 -205 101q18 24 37 35q9 6 19 10q-33 9 -59 21q-9 -18 -19 -33q-9 -13 -23 -32q-39 -52 -91 -93q-39 -27 -77 -41q22 -15 38 -34q3 3 6 5zM274 185v86h462v-86h-462z" />
  </g>

</svg>
