<?xml version="1.0" standalone="no"?>
<!DOCTYPE svg PUBLIC "-//W3C//DTD SVG 1.1//EN" "http://www.w3.org/Graphics/SVG/1.1/DTD/svg11.dtd" >
<svg xmlns="http://www.w3.org/2000/svg" xmlns:xlink="http://www.w3.org/1999/xlink" version="1.1" viewBox="-10 0 1034 1024">
  <g transform="matrix(1 0 0 -1 0 820)">
   <path fill="currentColor"
d="M59 -74q12 -36 14 -39q49 24 83 37l85 31q43 12 194 62q0 39 2 53q-28 -16 -60 -30q-34 -13 -84 -29v208h71q18 0 46 -3q1 0 14 -2v46q-21 -4 -60 -5h-71v167q60 0 74 -2q15 0 33 -3q-6 48 -6 65l1 181q1 18 5 38q-54 -6 -66 -6l-173 1q-33 4 -41 5q6 -54 6 -67l-1 -178
q-4 -19 -5 -37v-2q45 4 76 5h59v-421q-43 -16 -97 -31l1 280q0 12 13 42h-56q0 -15 2 -16q3 -12 3 -63v-253q-31 -9 -72 -13q4 -10 10 -21zM162 458v202h194v-202h-194zM574 608q-24 -84 -70 -147q-60 -81 -141 -108q31 -18 53 -36q60 48 107 107q33 45 59 93q22 51 49 132
q-4 0 -8 -1l-46 -4l-131 1q-7 1 -12 2q-6 0 -13 2v-46q49 4 79 5h74zM482 -102q-3 -33 -5 -66h47q-6 43 -5 70v13h332l-4 -71q-1 -1 -1 -6h48q-4 34 -5 65l1 333l4 40q-39 -4 -56 -5l-319 1q-1 0 -42 4q1 -27 5 -57v-321zM519 105v130h332v-130h-332zM519 -49v118h332v-118
h-332zM697 597q115 -178 249 -273q10 18 36 47q-51 15 -108 66q-54 51 -98 117q27 15 93 63q42 25 44 26q19 7 44 11q-30 33 -45 54q-24 -25 -55 -50l-102 -74q-19 27 -32 48l-26 57v18q1 33 14 61h-58l6 -61v-317q0 -34 -30 -38q-21 0 -35 -2q-15 0 -50 4q9 -21 18 -50
q36 0 67 5q51 7 63 31q4 7 5 47v210z" />
  </g>

</svg>
