<?xml version="1.0" standalone="no"?>
<!DOCTYPE svg PUBLIC "-//W3C//DTD SVG 1.1//EN" "http://www.w3.org/Graphics/SVG/1.1/DTD/svg11.dtd" >
<svg xmlns="http://www.w3.org/2000/svg" xmlns:xlink="http://www.w3.org/1999/xlink" version="1.1" viewBox="-10 0 1010 1000">
   <path fill="currentColor"
d="M437 14q51 10 117 10h248q70 -1 115 -10v98h-3q-21 1 -49 11q-97 54 -169 102l30 29h87q48 0 96 -10q-7 27 -6 80v18v452q11 77 -137 79q5 -48 -36 -95q60 12 76 8q21 -4 21 -26v-107h-119v80q-1 59 8 95h-91q9 -26 8 -95v-80h-117v119q-1 75 8 107h-91q7 -30 7 -105
v-454q0 -47 -5 -74q39 9 93 8h103q-43 -54 -111 -95l67 -47q51 42 76 77l137 -101h-246q-63 -1 -117 8v-82zM101 30q55 8 95 8h102q62 1 95 -8q-8 33 -8 83v125q-1 54 8 88q-51 -11 -93 -10v155q65 1 109 -12v75q-42 -9 -109 -8v177l109 -46l-10 93q-187 46 -337 110
l-24 -104l59 -2v-234q0 -81 -6 -119v-4q76 3 97 16q0 1 -3 6q-18 28 -18 73v248l67 -19v-405q-78 0 -131 8q7 -25 6 -87v-129q0 -45 -8 -78zM317 102h-140v150h140v-150zM633 318h-117v103h117v-103zM827 318h-119v103h119v-103zM708 485v105h119v-105h-119zM516 485v105
h117v-105h-117z" />
</svg>
