<?xml version="1.0" standalone="no"?>
<!DOCTYPE svg PUBLIC "-//W3C//DTD SVG 1.1//EN" "http://www.w3.org/Graphics/SVG/1.1/DTD/svg11.dtd" >
<svg xmlns="http://www.w3.org/2000/svg" xmlns:xlink="http://www.w3.org/1999/xlink" version="1.1" viewBox="-10 0 1010 1000">
   <path fill="currentColor"
d="M633 -2q82 1 95 8q0 1 -3 6q-12 21 -11 38q5 65 34 135q83 -62 127 -115q51 51 63 75q-16 8 -95 51q-46 26 -67 37q50 92 186 123q-45 32 -67 83q-86 -48 -129 -103q-42 -62 -60 -165v202q1 50 -25 66q-24 19 -104 24q0 -47 -37 -90q101 22 99 -25v-240q0 -46 -1 -65
q-1 -25 -5 -45zM103 54q36 6 93 6h96q66 0 99 -8q-8 48 -8 85v133q0 68 6 97q-33 -8 -91 -7v130q83 1 127 -11v75q-31 -8 -127 -8v165q95 -22 137 -34l-12 81q-315 54 -365 76l-26 -84q65 -6 59 -6v-244q0 -40 -4 -63q87 5 94 14q0 2 -5 9q-17 24 -17 44v231q1 0 3 -1
q36 -9 68 -13v-363q-9 1 -38 2q-58 2 -89 5q7 -23 6 -87v-145q1 -52 -6 -79zM631 117q-16 88 -52 161q-47 104 -137 175q-27 -37 -69 -54q107 -58 175 -216q-78 -1 -133 14v-80q37 9 105 8q62 1 111 -8zM181 123v171h131v-171h-131zM891 469q-10 44 -10 101v216q0 78 10 113
h-89q9 -25 8 -81h-274q0 52 6 79h-90q9 -39 10 -121v-204q0 -59 -10 -103q59 8 108 8h224q70 1 107 -8zM534 540v73h276v-73h-276zM534 677v77h276v-77h-276z" />
</svg>
