<?xml version="1.0" standalone="no"?>
<!DOCTYPE svg PUBLIC "-//W3C//DTD SVG 1.1//EN" "http://www.w3.org/Graphics/SVG/1.1/DTD/svg11.dtd" >
<svg xmlns="http://www.w3.org/2000/svg" xmlns:xlink="http://www.w3.org/1999/xlink" version="1.1" viewBox="-10 0 1034 1024">
  <g transform="matrix(1 0 0 -1 0 820)">
   <path fill="currentColor"
d="M153 241q0 15 2 35q0 16 11 32h-55q4 -49 5 -87v-279q-31 -10 -68 -18q9 -22 16 -51q40 19 62 26q22 10 62 24q156 55 182 63q19 6 42 13q-3 22 -4 45q-57 -24 -120 -45v231l131 -4q3 0 5 -1v46q-33 -1 -66 -5h-70v139q54 0 113 -5q-4 57 -5 82l1 180l4 45q-34 -1 -69 -5
l-169 1q-19 3 -52 4q1 -30 5 -63l-1 -195q-3 -15 -4 -49q61 4 93 5h46v-420q-12 -1 -21 -7q-69 -22 -76 -24v287zM153 441v225h205v-225h-205zM654 102l-200 1q-24 3 -22 2q-9 3 -16 3v-47q13 1 16 2q45 3 93 3h129l-1 -182q-1 -7 -2 -34q-1 -3 -2 -15h50q0 6 -4 15
q-3 54 -3 107v109l238 -1l40 -4v47q-12 -3 -26 -4q-18 -1 -39 -2h-213v123l138 -1l51 -5q-3 36 -5 73l1 209q0 19 4 48q-36 -1 -71 -5h-134v96l217 -1l41 -4v47q-12 -3 -25 -4q-18 -1 -40 -2h-193q0 70 3 80q1 10 9 21h-55l5 -111v-122q-93 0 -121 2q-6 3 -43 3q1 -33 5 -67
l-1 -213q-3 -15 -4 -50q72 6 108 6h72v-123zM516 398v112h322v-112h-322zM516 259v105h322v-105h-322z" />
  </g>

</svg>
