<?xml version="1.0" standalone="no"?>
<!DOCTYPE svg PUBLIC "-//W3C//DTD SVG 1.1//EN" "http://www.w3.org/Graphics/SVG/1.1/DTD/svg11.dtd" >
<svg xmlns="http://www.w3.org/2000/svg" xmlns:xlink="http://www.w3.org/1999/xlink" version="1.1" viewBox="-10 0 1034 1024">
  <g transform="matrix(1 0 0 -1 0 820)">
   <path fill="currentColor"
d="M160 272q0 28 14 59h-56q0 -4 6 -59v-302q-45 -13 -72 -17q13 -28 22 -57q61 36 152 73l200 75q3 27 8 54q-51 -30 -139 -65v225q108 0 127 -3q3 0 9 -2v46q-28 -1 -57 -5h-79v154l87 -1l39 -4q-4 45 -5 66l1 173l4 41q-49 -4 -55 -5l-206 1q-12 3 -40 4q1 -15 4 -29
q1 -24 2 -129l-4 -111q-1 -4 -2 -11q46 4 95 5h42v-428q-75 -30 -97 -38v290zM162 484v198h216v-198h-216zM623 397l-39 -57q-31 -37 -78 -78q-58 -40 -114 -58q9 -7 20 -17q9 -12 19 -22q42 27 71 47q27 18 58 46h110q-39 -73 -98 -127q-79 -67 -135 -84q3 -3 15 -12
l30 -24q84 60 138 116q51 52 95 131h84q-33 -82 -53 -117q-51 -82 -113 -137q-105 -90 -202 -104l23 -19q10 -10 21 -22q138 70 225 157q78 81 140 242h76q-13 -216 -17 -240l-5 -71q-3 -18 -6 -25q-6 -16 -40 -24q-19 -4 -38 -5q-24 0 -46 6q15 -37 19 -55q7 1 26 4
q48 7 55 10q40 12 54 31q7 12 13 39q4 36 9 108l13 196q4 57 9 67q-55 -4 -77 -5h-286l72 103l182 -1l41 -4l-6 57l1 245q1 19 5 39q-55 -4 -75 -5l-261 1q-15 3 -40 4q1 -27 5 -54l-1 -245q-3 -12 -4 -42q45 4 95 5h10zM560 433v108h290v-108h-290zM560 577v115h290v-115
h-290z" />
  </g>

</svg>
