<?xml version="1.0" standalone="no"?>
<!DOCTYPE svg PUBLIC "-//W3C//DTD SVG 1.1//EN" "http://www.w3.org/Graphics/SVG/1.1/DTD/svg11.dtd" >
<svg xmlns="http://www.w3.org/2000/svg" xmlns:xlink="http://www.w3.org/1999/xlink" version="1.1" viewBox="-10 0 1034 1024">
  <g transform="matrix(1 0 0 -1 0 820)">
   <path fill="currentColor"
d="M114 23l-21 -6q-9 -4 -21 -5q-3 0 -36 -8q18 -27 29 -50q22 12 53 24q6 3 25 9q36 10 111 37l166 53l3 50q-22 -12 -56 -25q-33 -12 -67 -24v201q111 0 131 -3q7 0 12 -2v47l-32 -5l-111 -1v148l113 -5q-1 7 -2 33q-3 30 -4 44l1 165q1 27 5 54q-66 -4 -81 -5
q-147 0 -177 2q-4 1 -7 1q-15 0 -34 2l5 -111l-1 -136q-3 -15 -4 -49q24 4 62 5h86v-398q-30 -10 -60 -17q-15 -4 -31 -9l-21 -7v270q0 15 2 35q0 12 10 31h-54q6 -33 6 -66v-279zM156 499v214h213v-214h-213zM720 348l-2 -135q-90 0 -117 2q-12 3 -42 3q1 -36 5 -72
l-1 -223q-1 -7 -2 -33q-1 -3 -2 -16h47l-4 41l-1 35h281q-3 -36 -5 -73q-1 0 -1 -3h49q-4 45 -5 67l1 226l4 51q-36 -1 -72 -5h-97l3 135l182 -1q18 -1 39 -5v47q-33 -1 -65 -5h-158l2 137q103 0 120 -2q15 0 40 -3l-3 34q-1 25 -3 37v100q0 7 3 33l3 34q-76 -4 -110 -5
l-269 1q-24 3 -52 4q6 -78 6 -110l-3 -280q-4 -73 -9 -107q-18 -141 -94 -262q-33 -45 -67 -73l41 -15q7 -3 17 -7q75 109 109 206q30 94 42 242h190zM531 384v137h192l-3 -137h-189zM531 557v156h344v-156h-344zM601 -14v191h281v-191h-281z" />
  </g>

</svg>
