<?xml version="1.0" standalone="no"?>
<!DOCTYPE svg PUBLIC "-//W3C//DTD SVG 1.1//EN" "http://www.w3.org/Graphics/SVG/1.1/DTD/svg11.dtd" >
<svg xmlns="http://www.w3.org/2000/svg" xmlns:xlink="http://www.w3.org/1999/xlink" version="1.1" viewBox="-10 0 1010 1000">
   <path fill="currentColor"
d="M482 12q64 21 97 36q0 4 -7 9q-16 14 -26 37q-26 53 -38 83h67q59 -1 86 -8v73q-23 -7 -82 -7q-3 106 -6 172h12q58 0 78 -6v76q-23 -7 -84 -6h-8q-8 58 -11 93q80 94 130 163v-479q0 -58 -5 -107q37 5 113 6h21q74 0 108 -6q-6 36 -6 123v411q0 82 1 115q2 38 5 48h-86
q5 -17 7 -41q0 -12 1 -28v-42h-85q0 92 8 119h-91q7 -28 7 -86q-44 12 -63 34q-32 -82 -85 -161q-44 153 -187 254q-33 -41 -85 -57q220 -88 234 -359h-24q-63 -1 -83 6v-76q35 5 87 6h24q4 -69 4 -174h-24q-13 22 -31 56q-13 24 -22 41q-25 -30 -52 -42l4 70l-81 -6v131
q64 -3 81 -6v73q-24 -6 -81 -6v141q28 -13 91 -28q-8 27 -8 74q-236 52 -329 101l-28 -82l71 -17v-241q0 -9 -2 -42q-1 -28 -2 -45q9 0 26 1q68 1 64 7q0 2 -3 7q-12 25 -11 72v223q19 -6 63 -14v-349h-24l-99 6q6 -40 6 -112v-73q0 -54 -6 -101q38 5 113 6h54q69 -1 105 -6
q-5 38 -6 95v103q84 -105 103 -258zM183 137v155h132v-155h-132zM849 215h-87v444h87v-444z" />
</svg>
