<?xml version="1.0" standalone="no"?>
<!DOCTYPE svg PUBLIC "-//W3C//DTD SVG 1.1//EN" "http://www.w3.org/Graphics/SVG/1.1/DTD/svg11.dtd" >
<svg xmlns="http://www.w3.org/2000/svg" xmlns:xlink="http://www.w3.org/1999/xlink" version="1.1" viewBox="-10 0 1010 1000">
   <path fill="currentColor"
d="M716 10q12 51 24 111h91q57 -3 109 -11v87q-26 -9 -107 -8h-295q5 156 2 252q-4 100 -16 173q-23 139 -107 273q-45 -29 -98 -39q99 -87 126 -225q15 -70 18 -170q3 -94 -5 -266q0 -8 -4 -40q-3 -21 -4 -34q24 7 94 8h111q-9 -47 -34 -97zM185 135v173h140v-173h-140z
M661 215q101 -1 97 8q0 2 -2 6q-14 26 -14 93h70q82 0 119 -8v77q-33 -6 -112 -6h-77v139h64q63 0 97 -4q-4 31 -6 107v131q1 76 6 121h-86q0 -3 2 -11q6 -34 6 -60h-192q1 49 4 73h-87q9 -30 10 -115v-147q0 -78 -6 -99q6 0 34 2q29 1 49 2h30v-210q-1 -67 -6 -99zM631 584
v164h194v-164h-194zM62 846q-9 -60 -26 -88q21 -2 65 -13q2 -1 4 -1v-188q0 -102 -6 -127q96 7 91 14q0 2 -3 6q-14 18 -14 57v227l65 -18v-344h-40q-72 3 -87 6q6 -31 6 -119v-101q-3 -66 -6 -89q15 3 91 4h100q62 -1 95 -4q-4 27 -4 103v115q1 57 4 89q-30 -8 -87 -4v114
q77 0 105 -8v73q-39 -6 -105 -6v149q36 -13 91 -42l4 70q-305 107 -343 125z" />
</svg>
