<?xml version="1.0" standalone="no"?>
<!DOCTYPE svg PUBLIC "-//W3C//DTD SVG 1.1//EN" "http://www.w3.org/Graphics/SVG/1.1/DTD/svg11.dtd" >
<svg xmlns="http://www.w3.org/2000/svg" xmlns:xlink="http://www.w3.org/1999/xlink" version="1.1" viewBox="-10 0 1034 1024">
  <g transform="matrix(1 0 0 -1 0 820)">
   <path fill="currentColor"
d="M146 263q0 4 2 23q1 15 11 35h-55q4 -30 5 -60v-278q-28 -9 -71 -17q15 -36 23 -58q30 18 55 27q9 3 102 42l189 70q0 24 4 54q-22 -13 -46 -25q-27 -12 -83 -33v193h62q36 0 59 -5v46q-21 -4 -59 -5h-62v155q69 0 82 -2q10 0 30 -3q-3 27 -5 54l1 202l4 39
q-18 -1 -23 -2q-19 -3 -27 -3l-200 1q-15 3 -36 4q1 -25 5 -53l-1 -203q-3 -12 -4 -39q39 4 67 5h69v-397q-45 -18 -98 -36v269zM150 463v213h201v-213h-201zM363 -71q33 -27 42 -38q37 40 78 91q39 48 70 94q22 33 53 50q-30 16 -59 36q-27 -70 -82 -140q-57 -67 -102 -93z
M444 625q1 -27 5 -54l-4 -94q-1 -1 -1 -4h48q0 4 -2 7q-3 31 -4 68v36h413l-4 -102q0 -3 -1 -8h49q-6 48 -6 79q1 28 5 58q0 4 1 14q-25 -1 -51 -5h-160l26 34q-42 45 -63 63q-40 40 -66 61q-21 -19 -36 -31q78 -48 132 -127l-245 1q-12 3 -36 4zM708 234l214 -1q10 0 29 -5
v46q-30 -4 -60 -5l-415 1q-19 3 -25 4v-46q9 3 24 4q24 1 194 2v-313q0 -33 -28 -38q-24 -3 -51 -4q-6 1 -36 5q4 -12 10 -26q3 -12 6 -27q63 9 67 9l42 10q10 6 18 12q10 12 11 53v319zM866 443q-24 -4 -60 -5l-259 1q-7 3 -19 4v-46q30 3 61 5l241 -1l36 -4v46zM773 130
q21 -21 40 -41q18 -21 42 -53q57 -75 82 -120q19 18 27 22l10 7q-111 147 -134 173l-31 36q-19 -15 -36 -24v0z" />
  </g>

</svg>
