<?xml version="1.0" standalone="no"?>
<!DOCTYPE svg PUBLIC "-//W3C//DTD SVG 1.1//EN" "http://www.w3.org/Graphics/SVG/1.1/DTD/svg11.dtd" >
<svg xmlns="http://www.w3.org/2000/svg" xmlns:xlink="http://www.w3.org/1999/xlink" version="1.1" viewBox="-10 0 1034 1024">
  <g transform="matrix(1 0 0 -1 0 820)">
   <path fill="currentColor"
d="M296 245q90 0 104 -2q9 0 23 -4v47q-30 -1 -60 -5h-67v156l77 -1q9 0 38 -4q-1 12 -4 29q-3 19 -3 26v178q0 6 3 25q1 15 4 27q-25 -1 -52 -5l-196 1q-3 0 -37 4q1 -25 5 -52l-1 -192q-3 -12 -4 -41q39 4 61 5h70v-401q-49 -15 -98 -28v254q0 7 2 23q3 16 12 36h-56
q6 -33 6 -60v-263q-37 -10 -81 -15q9 -27 18 -60q36 18 91 38q42 15 166 53q1 1 123 36q0 31 5 57q-27 -15 -58 -29q-36 -13 -91 -32v199zM366 473h-198v204h198v-204zM356 -42q18 -9 42 -28l2 -1l48 46q24 24 54 59q37 42 70 87q31 42 76 115l-1 -369q-1 -6 -4 -30h48
q-4 34 -5 65v322q49 -75 105 -134q72 -78 150 -138q28 27 53 41q-36 12 -58 27q-43 30 -75 59q-96 85 -159 198h180q21 0 46 -3l13 -2v46q-18 -4 -59 -5h-196q0 67 3 74q1 13 11 29h-57q4 -30 5 -61v-42l-186 1q-19 3 -26 4v-46q49 4 69 5h119q-42 -90 -125 -187
q-51 -57 -80 -83q-30 -24 -70 -44q3 -1 7 -5zM438 708q12 -19 25 -45q168 12 365 43q61 9 77 10l30 -1q-27 30 -45 53q-36 -15 -65 -21q-72 -15 -156 -27q-43 -4 -97 -9q-51 -3 -85 -4zM475 588q-9 -6 -17 -13l-10 -5q-3 -3 -10 -7q66 -70 103 -163q13 12 41 25l-94 144z
M713 464q-9 27 -21 59l-40 101q-15 -7 -33 -13q-3 0 -9 -2q40 -66 60 -161q15 6 43 16zM770 428q3 -1 20 -15q96 150 102 155q16 24 43 33q-27 12 -60 32q-25 -57 -54 -106q-33 -51 -70 -87q3 -1 19 -12v0z" />
  </g>

</svg>
