<?xml version="1.0" standalone="no"?>
<!DOCTYPE svg PUBLIC "-//W3C//DTD SVG 1.1//EN" "http://www.w3.org/Graphics/SVG/1.1/DTD/svg11.dtd" >
<svg xmlns="http://www.w3.org/2000/svg" xmlns:xlink="http://www.w3.org/1999/xlink" version="1.1" viewBox="-10 0 1034 1024">
  <g transform="matrix(1 0 0 -1 0 820)">
   <path fill="currentColor"
d="M381 49l3 32q-48 -30 -115 -56v207h79q27 0 45 -3l13 -2v46q-19 -4 -58 -5h-79v140q60 0 72 -2q15 0 30 -3l-6 51l1 204q1 19 5 40q-51 -6 -62 -6q-153 0 -170 2q-7 3 -32 4q4 -39 5 -51l-1 -212q-1 0 -4 -30v-2q39 4 61 5h62v-395q-39 -18 -83 -32v254q0 7 2 24
q0 15 11 35h-55q1 -15 2 -14q3 -12 3 -65v-246q-15 -4 -29 -8q-12 -3 -27 -5q15 -34 23 -58q34 21 55 30l81 34l92 35l73 26zM149 444v213h179v-213h-179zM470 442h124q0 -85 -2 -106q-3 -3 -3 -33q39 4 70 5q141 0 153 -2q10 0 30 -3q-4 45 -5 88v51h61q19 0 47 -3l13 -2
v46q-21 -4 -60 -5h-61q0 63 3 73q1 12 10 27h-56q4 -30 5 -60v-40h-168q0 58 3 68q1 12 10 26h-55q4 -30 5 -60v-34h-124v125l467 -1l34 -4v46q-19 -4 -58 -5h-180l25 36l-91 72l-41 29q-15 -18 -29 -33q78 -49 131 -104l-261 1q-3 0 -41 4q1 -15 3 -28q3 -24 3 -30v-255
q0 -39 -3 -110q-3 -52 -9 -103q-15 -111 -64 -186q-21 -36 -61 -66q31 -12 39 -15l16 -7q48 75 76 143q33 93 40 208l4 180v67zM631 344v98h168v-98h-168zM565 233q-30 3 -62 5v-46q12 3 55 5q27 -55 49 -95q18 -30 65 -89q-69 -60 -138 -92q-46 -21 -114 -30q24 -25 42 -48
q63 24 115 54q54 33 127 87q94 -81 230 -147q9 9 16 19q9 9 28 30q-55 7 -109 33q-69 33 -137 94q49 54 83 105q27 42 62 120q-49 -4 -60 -5h-252zM813 197q-36 -75 -109 -155q-37 42 -55 67q-36 57 -47 88h211z" />
  </g>

</svg>
