<?xml version="1.0" standalone="no"?>
<!DOCTYPE svg PUBLIC "-//W3C//DTD SVG 1.1//EN" "http://www.w3.org/Graphics/SVG/1.1/DTD/svg11.dtd" >
<svg xmlns="http://www.w3.org/2000/svg" xmlns:xlink="http://www.w3.org/1999/xlink" version="1.1" viewBox="-10 0 1034 1024">
  <g transform="matrix(1 0 0 -1 0 820)">
   <path fill="currentColor"
d="M317 12l75 31q-34 -64 -51 -86q-15 -21 -46 -47q28 -13 48 -29q19 27 34 50q15 24 33 60q21 42 35 75q12 30 26 78l12 38l-3 -320q-1 -3 -1 -7q-1 -3 -1 -8h47q-4 54 -5 78v165h98l-3 -143l-2 -6t-1 -8h48q-6 48 -6 77v80h101l-3 -143q-1 -3 -2 -14h47q-6 39 -5 77v80
h113v-147q0 -31 -18 -43q-22 -15 -58 -15q-13 0 -61 7q9 -21 15 -34q0 -9 4 -15q60 3 96 9l21 7q39 16 39 78l1 324l4 50q-34 -1 -69 -5l-348 1q-15 3 -29 3l5 99l345 -1l50 -4q-6 66 -6 99q0 87 2 99q0 3 1 5q0 -1 2 14q0 6 1 19q-60 -4 -71 -5l-318 1q-19 3 -49 4
q1 -36 5 -72l-1 -178l-8 -110q-7 -52 -19 -101q-9 -40 -29 -89q-12 -7 -28 -15q-30 -9 -58 -20q-13 -3 -31 -12v208q99 0 111 -3t15 -4v47l-40 -4q-19 -1 -86 -2v131q57 0 73 -2q3 0 38 -5q-4 54 -5 78l1 170l4 51q-36 -1 -71 -5q-147 0 -175 2q-9 3 -43 3q6 -66 6 -101
q0 -132 -2 -156q-1 -3 -2 -19q0 -10 -2 -23q33 3 37 4q21 3 29 3h74v-389l-99 -38q0 294 3 301q1 12 10 20h-55q1 -12 2 -11l3 -163v-160q-48 -15 -65 -16q13 -24 21 -50l102 45l115 48q10 4 23 9zM159 450v218h204v-218h-204zM507 445v155h351v-155h-351zM520 126v145h98
v-145h-98zM654 126v145h101v-145h-101zM792 126v145h113v-145h-113zM579 750q27 -15 64 -40q33 -22 51 -37q16 -13 31 -29l27 38q-21 19 -72 53q-36 25 -74 51q-12 -19 -27 -36v0z" />
  </g>

</svg>
