<?xml version="1.0" standalone="no"?>
<!DOCTYPE svg PUBLIC "-//W3C//DTD SVG 1.1//EN" "http://www.w3.org/Graphics/SVG/1.1/DTD/svg11.dtd" >
<svg xmlns="http://www.w3.org/2000/svg" xmlns:xlink="http://www.w3.org/1999/xlink" version="1.1" viewBox="-10 0 1034 1024">
  <g transform="matrix(1 0 0 -1 0 820)">
   <path fill="currentColor"
d="M989 -69q-31 -6 -70 -11q-55 -6 -115 -6q-79 0 -138 9q-51 6 -97 35q-25 18 -63 53q10 28 19 54q7 27 12 52q9 97 14 172q1 39 5 79q-30 -1 -59 -5h-40l51 194q16 55 35 109q-28 -1 -58 -5q-73 0 -98 2q-9 1 -15 3v-47q3 0 7 3q54 3 108 3l-17 -70l-39 -147
q-9 -30 -16 -43q-6 -10 -21 -19l26 -43q13 12 24 17q16 6 32 7h37q0 -66 -5 -143q-6 -51 -10 -72q-7 -30 -18 -60q-16 42 -24 69q-15 54 -16 96q0 15 4 43q-42 -6 -54 -6q1 -18 20 -101q6 -36 16 -64q10 -31 34 -82q-55 -69 -108 -103q-25 -13 -55 -17q21 -21 40 -45
q45 30 71 54q31 27 77 81q76 -69 152 -87q36 -7 97 -11q39 -3 90 -3l140 -2q15 48 23 55q0 1 2 2zM724 521h-112q-46 0 -64 5v-47q25 6 62 6h114v-97h-71q-42 0 -64 5v-46q3 1 6 1q7 3 34 4h95l2 -100h-80q-46 0 -64 5v-47q0 1 2 1q42 6 67 5h75v-95h-105q-48 0 -65 6v-47
q4 0 7 3q57 3 114 3h49l-2 -104q-1 -7 -2 -19q0 -1 -2 -8h49q-3 6 -5 58v73l177 -3q4 0 10 -3v47q-9 -3 -23 -3q-18 -1 -41 -3h-123v95l119 -1q21 0 30 -4q3 0 5 -1v47q-3 0 -8 -2q-15 0 -31 -2l-115 -1v100l108 -1l44 -4q-4 49 -5 71v67q24 0 54 -5l2 -1v47q-27 -1 -56 -5
l1 102l4 44q-18 -1 -31 -3q-18 -1 -29 -2h-92q0 39 3 62q1 18 10 32h-57q0 -7 2 -14q3 -72 4 -80h-69q-48 0 -65 5v-47q3 0 5 2l2 1q57 3 116 3h9v-105zM764 521v105h109v-105h-109zM764 388v97h109v-97h-109zM361 -40q15 1 27 4q0 3 1 11q0 22 6 37q-40 -13 -64 -20
q-9 0 -26 -5q-18 -1 -36 -8v230q39 0 83 -4q1 0 4 -2q3 0 5 -1v48q-10 -3 -27 -5l-65 -1v176q39 -1 81 -5q-6 55 -5 80q0 154 2 167q0 18 3 36q-60 -6 -82 -6l-109 1q-19 4 -42 5h-2q4 -66 5 -95l-1 -145q-3 -12 -4 -43q49 4 75 5h41v-448q-34 -6 -71 -12v285q0 39 14 68
h-59q0 -19 5 -50q0 -18 3 -37v-273q-34 -6 -69 -7q9 -30 13 -52q43 15 93 26l146 30q27 6 55 10zM307 657v-201h-150v201h150z" />
  </g>

</svg>
