<?xml version="1.0" standalone="no"?>
<!DOCTYPE svg PUBLIC "-//W3C//DTD SVG 1.1//EN" "http://www.w3.org/Graphics/SVG/1.1/DTD/svg11.dtd" >
<svg xmlns="http://www.w3.org/2000/svg" xmlns:xlink="http://www.w3.org/1999/xlink" version="1.1" viewBox="-10 0 1034 1024">
  <g transform="matrix(1 0 0 -1 0 820)">
   <path fill="currentColor"
d="M605 -56q0 -24 -16 -35q-12 -7 -40 -8q-30 0 -67 6q9 -27 14 -53q55 3 85 9q21 4 35 13q27 19 27 60l1 391q0 21 4 40q-27 -1 -54 -5q-138 0 -162 2q-10 1 -15 3v-46q15 3 31 4l157 1v-183q-24 -21 -44 -35l-62 -43q-40 -27 -65 -41q-21 -9 -45 -16q24 -25 35 -46
q34 28 67 54l114 81v-153zM501 221q-21 21 -46 52q-6 -9 -15 -17q-6 -6 -16 -12q57 -52 89 -105q18 21 33 32q-9 9 -18 20zM493 506q-6 -36 -6 -62q48 6 62 6l310 -1q12 0 25 -3q6 0 20 -2q-6 60 -6 72l1 183q1 22 5 45q-30 -1 -59 -5l-313 1q-15 3 -45 4q6 -60 6 -86v-152z
M529 486v89h332v-89h-332zM861 610h-332v93h332v-93zM402 47q0 13 3 36q-16 -9 -54 -23q-31 -12 -69 -25v217q60 0 123 -3q6 0 10 -4v48q-7 -1 -13 -3q-12 0 -50 -2h-70v153q69 0 84 -2q15 0 30 -3q-1 10 -1 21q-3 48 -4 72l1 154q0 19 4 44q-30 -1 -59 -5q-162 0 -184 2
q-6 3 -37 3q4 -66 5 -96q0 -132 -2 -159q-3 -3 -3 -36q49 4 78 5h50v-417q-48 -19 -96 -35v251q0 36 13 69h-57q6 -66 6 -86v-244q-36 -10 -68 -11q13 -24 25 -55q21 13 73 33q10 4 191 64q30 10 71 20v17zM353 686v-209h-195v209h195zM904 -56q0 -22 -17 -34q-10 -7 -38 -8
q-25 0 -63 5q10 -30 14 -53q57 3 77 8q21 3 37 14q27 19 27 60l1 386q1 21 5 44q-4 0 -8 -1q-63 -3 -86 -4q-135 0 -158 2q-10 1 -15 3v-46q15 3 31 4l193 1v-163q-24 -19 -45 -34q-22 -16 -67 -45q-42 -30 -67 -44q-15 -7 -47 -16q22 -21 36 -45l66 52l124 85v-171z
M701 241q66 -54 101 -104q18 19 34 33q-45 39 -107 102q-13 -18 -28 -31v0z" />
  </g>

</svg>
