<?xml version="1.0" standalone="no"?>
<!DOCTYPE svg PUBLIC "-//W3C//DTD SVG 1.1//EN" "http://www.w3.org/Graphics/SVG/1.1/DTD/svg11.dtd" >
<svg xmlns="http://www.w3.org/2000/svg" xmlns:xlink="http://www.w3.org/1999/xlink" version="1.1" viewBox="-10 0 1010 1000">
   <path fill="currentColor"
d="M855 0q36 33 68 84q8 13 -16 11q-28 -2 -46 1q-205 34 -413 57q-7 -48 -41 -83q260 9 448 -70zM95 48q40 9 101 8h98q53 1 91 -8q-9 29 -8 77v139q-1 52 8 94q-36 -9 -97 -8v121q90 1 123 -8v75q-46 -9 -123 -8v171q7 -2 29 -7q69 -16 96 -23l-18 83q-213 33 -337 80
l-28 -96q13 0 33 -2q16 -1 22 -1v-243q0 -38 -4 -63q72 6 86 14q0 2 -4 7q-14 21 -14 44v233q12 -2 34 -6q33 -5 41 -8v-363q-48 0 -74 1q-30 2 -55 5q9 -29 8 -88v-133q1 -47 -8 -87zM179 123v159h123v-159h-123zM839 155q36 10 96 36q-30 18 -108 182q-29 -21 -71 -23
q63 -85 83 -195zM690 161q26 76 40 155l-79 12q-6 -79 -42 -155zM512 195q42 72 57 133l-77 26q-26 -98 -57 -141zM601 371q35 22 70 58q14 16 -22 15q-25 -1 -36 1q-23 4 -65 10q-23 4 -36 6v113q59 0 87 -2q32 -2 50 -8v75q-30 -9 -137 -8v109h323v-109q-87 -1 -137 8v-69
q24 5 54 7q15 0 34 1h49v-109q-83 -1 -131 10v-76q38 8 108 8q76 0 113 -8q-14 38 -14 101v254q0 90 10 131h-94q9 -19 8 -85h-319q-1 64 8 93h-97q10 -22 10 -113v-8v-355q78 -12 164 -50z" />
</svg>
