<?xml version="1.0" standalone="no"?>
<!DOCTYPE svg PUBLIC "-//W3C//DTD SVG 1.1//EN" "http://www.w3.org/Graphics/SVG/1.1/DTD/svg11.dtd" >
<svg xmlns="http://www.w3.org/2000/svg" xmlns:xlink="http://www.w3.org/1999/xlink" version="1.1" viewBox="-10 0 1034 1024">
  <g transform="matrix(1 0 0 -1 0 820)">
   <path fill="currentColor"
d="M436 65q-27 -12 -53 -21q-28 -9 -83 -25v228q97 0 114 -3q9 0 21 -3v47q-25 -6 -63 -6h-72v152q72 0 85 -2q13 0 35 -3q-4 49 -5 71l1 174q0 18 4 43q-55 -4 -83 -5q-156 0 -181 2q-6 3 -33 3q4 -60 5 -96l-1 -156l-4 -36q46 4 96 5h43v-425q-78 -22 -101 -28v256
q0 30 15 69h-58q4 -45 5 -69v-264q-34 -9 -70 -13q12 -28 22 -63q64 31 189 72q127 40 139 41l26 6q3 25 7 49zM166 470v206h211v-206h-211zM460 701q15 -21 24 -47l152 11q63 6 117 14l116 17l74 8q-21 21 -47 57q-57 -28 -128 -43q-45 -7 -105 -14q-57 -6 -107 -6
q-48 3 -96 3zM518 -147q-3 12 -4 42l-1 42h375q0 -31 -5 -78h48q-4 28 -5 70l1 378l4 38q-51 -6 -64 -6l-115 1q-7 1 -13 2q-6 0 -16 3v-46q25 4 63 5h102v-142l-141 3q-7 1 -14 3v-48q21 6 63 7h92v-154h-375v154h79q36 0 65 -7v48q-30 -6 -65 -6h-79v135l90 18q15 0 59 7
q-27 37 -32 51q-1 1 -4 5q-24 -21 -57 -33t-69 -12q-15 3 -30 3q1 -30 5 -63l-1 -389q0 -6 -3 -18q0 -6 -2 -13h49zM543 453q4 -12 13 -31q18 15 40 26q-48 84 -81 133q-3 6 -10 16q-16 -12 -35 -20l37 -55zM711 551l-42 77q-18 -9 -41 -17q15 -19 42 -71q24 -51 36 -86
q21 9 43 20zM874 524q27 51 42 69q10 13 41 25q-30 12 -72 35q-19 -64 -59 -138q-36 -60 -76 -94q24 -4 53 -19q61 108 71 122v0z" />
  </g>

</svg>
