<?xml version="1.0" standalone="no"?>
<!DOCTYPE svg PUBLIC "-//W3C//DTD SVG 1.1//EN" "http://www.w3.org/Graphics/SVG/1.1/DTD/svg11.dtd" >
<svg xmlns="http://www.w3.org/2000/svg" xmlns:xlink="http://www.w3.org/1999/xlink" version="1.1" viewBox="-10 0 1010 1000">
   <path fill="currentColor"
d="M704 -6q20 69 22 106h107q64 0 105 -10v77q-35 -9 -91 -8h-325q-79 -1 -109 8v-75q36 7 111 8h123q-12 -49 -36 -100zM87 40q42 6 105 6h74q56 1 105 -8q-8 27 -8 79v145q-1 54 8 90q-34 -9 -85 -8v121q70 0 101 -6v69q-40 -7 -101 -6v173q36 -12 101 -36l-6 85
q-210 46 -321 94l-34 -88q25 -4 55 -4v-242q0 -52 -2 -73q74 6 90 14q0 2 -4 8q-16 27 -16 53v225l67 -16v-373q-83 0 -129 6q9 -31 8 -96v-131q1 -45 -8 -81zM292 106h-125v176h125v-176zM577 175q19 25 51 83l3 6l-79 22q-19 -51 -44 -87zM748 175q60 17 91 32
q-33 19 -75 87h75l105 -8q-6 54 -7 81q0 59 5 86h-93q9 -31 8 -99h-367q-1 68 8 101h-93q9 -32 8 -80q1 -64 -8 -89q34 8 117 8h174l6 -9q37 -53 46 -110zM615 391q9 1 29 3q67 6 64 9q0 1 -3 6q-15 24 -15 46v51h123q39 1 82 -8q-12 45 -12 84v155q11 91 -129 95
q0 -46 -36 -88q99 19 94 -35v-139h-122v218q0 82 8 113h-87q9 -27 8 -101v-230h-107v159q0 65 10 105h-89q8 -35 7 -101v-141q0 -54 -7 -94q48 9 97 8h89v-45q0 -44 -3 -65q-1 -4 -1 -5z" />
</svg>
