<?xml version="1.0" standalone="no"?>
<!DOCTYPE svg PUBLIC "-//W3C//DTD SVG 1.1//EN" "http://www.w3.org/Graphics/SVG/1.1/DTD/svg11.dtd" >
<svg xmlns="http://www.w3.org/2000/svg" xmlns:xlink="http://www.w3.org/1999/xlink" version="1.1" viewBox="-10 0 1034 1024">
  <g transform="matrix(1 0 0 -1 0 820)">
   <path fill="currentColor"
d="M295 155l-4 -33q-1 -7 -1 -17q15 3 53 4l158 1v-185q-117 18 -183 88q30 40 63 52q-24 9 -50 29q-39 -60 -103 -119q-87 -76 -154 -94q18 -13 38 -39q109 67 180 142q31 -28 43 -35q67 -43 146 -60q90 -15 201 -15l140 4l139 3q6 27 21 52q-55 -9 -117 -13
q-153 -6 -207 -7q-54 1 -119 6v97h197q27 0 51 -3q3 0 15 -2v44l-36 -4l-227 -1v60l163 -1l49 -4q-6 51 -5 105q0 12 4 38q69 -54 195 -106q18 25 48 48q-103 6 -222 92q-42 34 -60 60l195 -1q4 0 41 -4v46l-36 -4l-255 -1v55h68q27 0 50 -3q3 0 16 -2v44q-4 0 -7 -2
l-118 -4h-9v55l116 -1q19 -1 40 -5v43q-3 0 -6 -1q-3 0 -5 -1l-109 -3h-36q0 39 3 45q0 4 9 18h-55q4 -15 5 -48v-15h-201q0 37 6 50q1 3 5 7h-52l4 -57l-152 4q-1 1 -4 1v-43q36 6 90 6h66v-52l-110 2q-1 0 -27 3v-46q51 4 84 5h53v-55q-283 3 -304 5v-46q-1 0 10 1l56 4
h195q-36 -39 -63 -64q-21 -18 -67 -48q-87 -54 -176 -70q13 -9 20 -16q1 -1 5 -4q12 -9 20 -20q127 48 216 123q3 -24 3 -34v-54zM326 273q18 15 26 25q10 13 41 44h266q1 -3 7 -7q6 -6 13 -16l41 -46q-63 -3 -88 -4l-279 1q-12 3 -27 3zM332 144v91h376v-91h-376zM618 433
v-55h-201v55h201zM417 466v55h201v-55h-201zM139 588q-1 -24 -2 -52q0 -6 -3 -15h49q-3 39 -5 70v38h680l-3 -95q-1 -3 -2 -7h50q-6 21 -7 57l4 64q0 9 3 22q-34 -1 -69 -5h-238q6 13 15 25q-25 13 -48 23q-99 43 -109 49q-10 -18 -25 -38l76 -31q43 -21 54 -28l-370 1
q-19 3 -55 4q4 -54 5 -82v0z" />
  </g>

</svg>
