<?xml version="1.0" standalone="no"?>
<!DOCTYPE svg PUBLIC "-//W3C//DTD SVG 1.1//EN" "http://www.w3.org/Graphics/SVG/1.1/DTD/svg11.dtd" >
<svg xmlns="http://www.w3.org/2000/svg" xmlns:xlink="http://www.w3.org/1999/xlink" version="1.1" viewBox="-10 0 1010 1000">
   <path fill="currentColor"
d="M510 -8q12 1 33 2q60 3 58 10q-14 15 -14 106h111q-1 -96 -10 -118q12 1 34 2q64 3 60 10q0 3 -2 9q-12 29 -12 97h61q60 -1 106 -8v79q-37 -7 -106 -8h-61v20q1 40 6 69h-84q3 -18 6 -65v-24h-109v28q0 49 4 61h-81q5 -37 6 -57v-30h-38q-57 0 -93 6v-75q23 3 97 6h36
q1 -94 -8 -120zM81 50q18 3 90 6h71q60 -1 107 -4q-8 27 -8 93v103q1 70 6 100q-30 -6 -79 -6v135q53 2 95 -8v73q-53 -9 -95 -6v179q30 -10 101 -28q-12 37 -6 73q-240 54 -311 86q1 -45 -20 -86q5 -2 29 -5q21 -2 16 -3v-234q-1 -58 -8 -103q16 1 45 3q49 1 47 7
q1 2 -4 10q-16 29 -16 61v242l63 -9v-387h-43q-63 3 -82 6q6 -27 8 -106v-101q0 -62 -6 -91zM274 119h-119v159h119v-159zM948 274v78q-37 -8 -111 -8h-73l-4 87h46q55 -1 95 -6q-6 30 -6 121v262q1 48 -20 62q-16 16 -99 31q-4 -57 -30 -95q53 10 66 -3q16 -10 15 -63v-45
q-25 3 -57 38q-11 -41 -38 -90q-27 93 -55 157q-43 -21 -70 -26q39 -48 58 -115l-36 28q-8 -14 -20 -34q-24 -40 -26 -55q-20 102 -51 166q-5 -2 -16 -8q-38 -19 -50 -18v38q0 88 4 119h-79q7 -55 8 -125v-230q-1 -89 -6 -115q67 6 103 6h48v-87h-54q-8 1 -32 2q-64 2 -79 6
v-78q29 6 117 8h329q103 -3 123 -8zM704 342h-101v89h99zM542 492h-76v225q55 -39 76 -225zM698 490h-95l-6 58q16 17 54 56q17 17 26 27q12 -40 21 -141zM827 490h-71q-3 51 -10 92q6 7 19 20q34 33 62 67v-179z" />
</svg>
