<?xml version="1.0" standalone="no"?>
<!DOCTYPE svg PUBLIC "-//W3C//DTD SVG 1.1//EN" "http://www.w3.org/Graphics/SVG/1.1/DTD/svg11.dtd" >
<svg xmlns="http://www.w3.org/2000/svg" xmlns:xlink="http://www.w3.org/1999/xlink" version="1.1" viewBox="-10 0 1034 1024">
  <g transform="matrix(1 0 0 -1 0 820)">
   <path fill="currentColor"
d="M44 -61q12 -25 20 -47q151 55 169 60q6 3 15 4q54 19 68 22l69 23q0 25 2 50q-18 -9 -33 -16q-19 -9 -37 -15q-7 -3 -32 -11v234q75 0 87 -4q6 0 9 -1v46q-33 -1 -66 -5h-30v156l90 -6q-4 52 -5 101q0 117 2 131q0 21 3 44q-33 -1 -68 -5q-126 0 -153 2q-6 3 -41 3
q1 -36 5 -72l-1 -162l-4 -42q66 6 99 6h36v-439q-54 -18 -71 -22l-24 -6q0 319 3 325q1 9 9 19h-54q1 -33 5 -68v-288q-18 -6 -44 -12q-6 -1 -13 -3q-7 0 -15 -2zM155 469v198h177v-198h-177zM550 604v-97q-129 3 -145 5q-3 1 -4 1v-47q45 3 55 5h123l-3 -91q0 -19 -1 -26
q-90 0 -119 2q-12 3 -40 3q1 -34 5 -70l-1 -396q-1 -9 -2 -31q-1 -3 -2 -14h47q0 6 -2 14q-3 51 -3 76v95q18 -4 27 -11q6 -3 15 -8q19 33 42 79q22 45 38 84l32 -45q9 -13 18 -29q10 15 31 28l-69 91q9 46 17 96h101q-18 -207 -109 -330q24 -3 46 -9q40 75 75 182
q27 -36 60 -85q37 -60 51 -88l38 30q-3 6 -88 125q-24 31 -49 69l13 106h135v-382q0 -27 -15 -35q-27 -15 -63 -15q-9 0 -43 4q9 -21 16 -48q28 0 54 5q45 9 59 17q30 21 30 72l1 372l4 51l-111 -5h-66q3 67 5 117l185 -1q18 0 37 -3l2 -1v47q-6 -1 -58 -6h-150v97l137 -1
l44 -4v46q-30 -4 -65 -5h-116q0 93 3 102q1 12 10 23h-56l5 -109v-16h-144q0 90 3 98q1 10 9 21h-54q4 -30 5 -67v-52l-122 3q-7 1 -11 2v-46q13 1 16 2q48 3 94 3h23zM571 318q-21 -136 -66 -217q-21 -36 -47 -63v280h113zM587 507v97h144v-97h-144zM610 354q1 42 5 86
l1 31h100q-1 -16 -1 -33q-3 -72 -4 -84h-101z" />
  </g>

</svg>
