<?xml version="1.0" standalone="no"?>
<!DOCTYPE svg PUBLIC "-//W3C//DTD SVG 1.1//EN" "http://www.w3.org/Graphics/SVG/1.1/DTD/svg11.dtd" >
<svg xmlns="http://www.w3.org/2000/svg" xmlns:xlink="http://www.w3.org/1999/xlink" version="1.1" viewBox="-10 0 1010 1000">
   <path fill="currentColor"
d="M262 -13q91 1 89 11q0 2 -4 7q-18 22 -18 51v103h135q15 0 51 -3q7 -1 11 -1q-5 12 -4 68q82 -82 111 -227q87 17 91 30q0 1 -4 4q-32 24 -61 97h182q51 0 90 -6v72q-20 -5 -70 -4h-14q-18 88 -59 145q70 41 158 61q-26 13 -53 72q-91 -28 -163 -78q-59 39 -153 56
q-12 -37 -51 -64q88 -9 145 -37q-54 -50 -82 -82l62 -49q29 46 81 83q34 -40 44 -107h-149l-48 73q-25 -17 -53 -20h-4v84q0 62 8 109h-82q8 -38 8 -111v-107h-127v125q0 43 5 83q1 4 1 6h-75q8 -19 8 -91v-123h-115v127q33 -47 51 -92q27 9 56 16q-34 50 -52 97
q-28 -10 -55 -11q-1 57 4 81h-76q0 -2 1 -7q5 -42 5 -86v-100q0 -44 -4 -89q27 6 72 6h113v-103q0 -54 -6 -69zM444 12q8 4 25 12q49 22 43 28q-1 2 -6 3q-20 2 -34 23q-9 14 -27 37q-14 17 -22 28q-15 -17 -54 -30q46 -42 75 -101zM149 16q65 58 87 86l-51 39
q-24 -34 -86 -89zM385 246q12 16 37 46q15 19 22 28l-51 30q-22 -46 -56 -76zM196 451q24 6 80 6h430q27 0 58 -3q14 -1 20 -1q-5 12 -4 71v52q0 30 6 61q-37 -4 -80 -4h-184v60h180q94 0 135 -8v67h-5q-56 -6 -128 -6h-182v76q234 4 416 -18q-29 37 -43 91h-34
q-387 0 -468 -33q-83 -26 -135 -98q-49 78 -151 147q-23 -34 -63 -55q150 -71 192 -209q95 15 91 24q1 4 -8 11q-17 13 -23 29q32 68 154 101v-179h-150q-66 0 -106 6q6 -31 6 -61v-64q0 -17 -3 -51q-1 -8 -1 -12zM268 512v66h444v-66h-444z" />
</svg>
