<?xml version="1.0" standalone="no"?>
<!DOCTYPE svg PUBLIC "-//W3C//DTD SVG 1.1//EN" "http://www.w3.org/Graphics/SVG/1.1/DTD/svg11.dtd" >
<svg xmlns="http://www.w3.org/2000/svg" xmlns:xlink="http://www.w3.org/1999/xlink" version="1.1" viewBox="-10 0 1034 1024">
  <g transform="matrix(1 0 0 -1 0 820)">
   <path fill="currentColor"
d="M140 270q0 6 2 24q0 12 11 36h-55q0 -6 5 -61v-279q-36 -9 -56 -13q4 -12 11 -25q6 -12 12 -29q88 40 93 42l27 10l176 60q0 24 3 51q-22 -12 -44 -23q-22 -10 -63 -27v205h58q33 0 59 -5v46q-16 -4 -59 -5h-58v152q66 0 80 -2q15 0 31 -3l-6 56l1 195q0 16 5 46
q-27 -1 -56 -5l-172 1q-1 0 -37 4q4 -49 5 -54l-1 -207q-3 -7 -4 -36q42 4 86 5h29v-405l-83 -26v272zM150 465v215h180v-215h-180zM458 694l475 -1q3 0 35 -4v46q-21 -4 -59 -5l-455 1q-15 3 -40 4q6 -48 6 -75l-1 -338l-11 -159q-1 -3 -1 -6q-12 -103 -56 -185
q-21 -40 -58 -73q28 -7 56 -17q82 142 99 297q4 42 7 96t3 103v316zM710 -23q7 3 31 7l10 47q-27 -9 -44 -14q-21 -6 -57 -14l45 113q7 18 30 29q-21 9 -55 33l-7 -30q-13 -63 -53 -152q-94 -18 -169 -20q13 -30 21 -53q72 18 171 41q37 7 77 13zM733 583q-30 -1 -59 -5
q-150 0 -170 2q-6 3 -18 3v-46q3 3 45 5l167 -1q3 0 35 -4v46zM496 197q39 4 65 5q108 0 118 -2q13 0 29 -3q-4 45 -5 82l1 124l4 38q-24 -1 -47 -5l-129 1q-3 0 -36 4q6 -48 6 -69l-1 -137q-4 -15 -5 -38zM539 238v162h126v-162h-126zM534 165q-16 -9 -35 -16
q36 -52 55 -127q31 15 36 16q-49 117 -56 127zM813 138l13 6q-33 90 -60 152q-3 -3 -6 -4t-6 -3q-10 -4 -23 -9q15 -21 32 -70q15 -39 27 -84q4 3 8 5q1 0 4 2q4 3 11 5zM892 381q51 0 76 -4q1 0 5 -1v46q-30 -1 -59 -5h-22q0 193 3 200q1 15 11 29h-57q4 -30 5 -60v-169
q-66 0 -89 2q-15 3 -20 3v-46q3 3 44 5h65v-439q0 -24 -4 -32q-6 -9 -27 -14q-27 -3 -40 -4q-9 0 -45 6l15 -51q-1 0 0 -2q13 1 23 2l48 5q12 1 24 6q43 12 44 67v456z" />
  </g>

</svg>
