<?xml version="1.0" standalone="no"?>
<!DOCTYPE svg PUBLIC "-//W3C//DTD SVG 1.1//EN" "http://www.w3.org/Graphics/SVG/1.1/DTD/svg11.dtd" >
<svg xmlns="http://www.w3.org/2000/svg" xmlns:xlink="http://www.w3.org/1999/xlink" version="1.1" viewBox="-10 0 1034 1024">
  <g transform="matrix(1 0 0 -1 0 820)">
   <path fill="currentColor"
d="M425 27q13 4 30 11l3 51q-27 -15 -46 -23q-25 -9 -69 -27l-56 -20v217q117 0 128 -2q6 0 11 -2q3 0 7 -1v46q-33 -1 -66 -5h-80v156l89 -3q12 0 30 -2q-4 60 -5 82q0 162 2 176q0 19 3 40q-37 -1 -75 -5q-142 0 -172 2l-40 3q6 -79 7 -90q0 -132 -2 -163q-1 -3 -1 -7
q-3 -4 -4 -38q57 4 86 5h44v-424q-15 -6 -34 -14l-31 -9q-15 -6 -25 -8v279q0 39 13 66h-55q0 -10 3 -23l3 -121v-216q-27 -10 -67 -18q12 -22 22 -47q40 18 89 37l128 48zM162 464v216h201v-216h-201zM651 436q-21 33 -46 68q-27 36 -39 49q-12 -10 -31 -25q46 -49 84 -116
q15 12 32 24zM831 481q3 6 9 14q15 19 43 40q-12 6 -48 33q-37 -75 -85 -128q19 -10 40 -26q0 3 4 8q4 6 9 14q13 22 28 45zM464 651l6 -65l-1 -217q0 -1 -5 -46l75 6h337q-1 0 34 -4q16 0 35 -2l-6 69l1 208q0 16 5 51q-34 -1 -69 -5h-110q12 15 26 30q27 36 37 46
q6 6 18 16q16 13 34 16q-27 25 -49 44q-28 -43 -54 -78l-61 -74h-97q10 13 27 28l-64 62q-12 10 -47 46q-24 -24 -34 -31l64 -57q21 -21 44 -48q-75 0 -103 2q-12 3 -43 3zM507 364v246h177v-246h-177zM722 364v246h180v-246h-180zM518 -80q-1 -27 -3 -56q-1 -1 -1 -5
q-1 -3 -1 -6h47q-4 54 -5 80h311q0 -31 -3 -62q-1 -1 -1 -5q-1 -3 -1 -7h48q-3 33 -5 67l1 277l4 49q-66 -4 -82 -5l-266 1q-7 1 -15 2q-16 0 -33 2q1 -33 5 -69v-263zM555 -31v99h311v-99h-311zM555 104v107h311v-107h-311z" />
  </g>

</svg>
