<?xml version="1.0" standalone="no"?>
<!DOCTYPE svg PUBLIC "-//W3C//DTD SVG 1.1//EN" "http://www.w3.org/Graphics/SVG/1.1/DTD/svg11.dtd" >
<svg xmlns="http://www.w3.org/2000/svg" xmlns:xlink="http://www.w3.org/1999/xlink" version="1.1" viewBox="-10 0 1010 1000">
   <path fill="currentColor"
d="M565 276q25 41 46 86l-59 17h138q23 -46 34 -101q103 24 97 38q-1 2 -9 6q-32 17 -54 57h57q56 -1 106 -8v76q-39 -7 -104 -8h-140v73h109q79 -3 91 -8v74q-30 -9 -89 -6h-111l-4 65h139q73 0 134 -8v80q-40 -10 -136 -12h-108q26 94 254 111q-35 35 -55 91
q-212 -50 -252 -188q-43 119 -274 200q-13 -39 -65 -83q181 1 273 -131h-101q-73 0 -103 8v-76q43 6 99 8h129l2 -65h-91q-78 0 -99 6v-74q35 6 99 8h91v-73h-115q-64 0 -97 8v-74q30 5 93 6h44q-14 -40 -44 -81zM79 42q18 6 84 6h89q84 -3 105 -6q-7 60 -8 103v105
q1 54 4 102q-25 -4 -75 -4v127q53 0 107 -6v73q-34 -8 -107 -8v177q-3 0 18 -5q44 -11 71 -19q-9 28 -8 66v5q-220 48 -315 84q2 -51 -18 -88q15 1 47 -6v-252q-1 -40 -6 -63q12 1 35 1q56 0 55 7q1 2 -3 7q-17 24 -17 60v227l69 -12v-375h-53l-74 6q6 -25 6 -112v-105
q0 -66 -6 -95zM532 -17l95 11q0 4 -5 11q-15 26 -15 67v131h76v-127q0 -63 -6 -84q90 0 95 10q-22 16 -22 58v143h62q92 -2 125 -8v77q-55 -5 -145 -6h-282q-84 0 -137 6v-77q38 7 117 10h50v-143q-2 -58 -8 -79zM278 108h-121v180h121v-180zM829 10q17 5 50 13q57 13 52 17
l-4 4q-28 23 -82 141q-33 -18 -67 -26q41 -62 51 -149zM470 28q34 84 36 111l-69 18q-3 -23 -25 -71q-10 -23 -17 -38z" />
</svg>
