<?xml version="1.0" standalone="no"?>
<!DOCTYPE svg PUBLIC "-//W3C//DTD SVG 1.1//EN" "http://www.w3.org/Graphics/SVG/1.1/DTD/svg11.dtd" >
<svg xmlns="http://www.w3.org/2000/svg" xmlns:xlink="http://www.w3.org/1999/xlink" version="1.1" viewBox="-10 0 1010 1000">
   <path fill="currentColor"
d="M54 826q-8 -42 -28 -78l49 -10v-236q-1 -74 -6 -101q45 3 84 10q-20 18 -20 60v256l48 -16v-385q-80 0 -98 6q5 -35 6 -94v-113q0 -56 -6 -85q21 6 94 6h41q61 -1 88 -4q-5 33 -6 101v95q0 63 6 92q-15 -5 -64 -4v129q51 2 81 -6v67q-13 -5 -81 -4v187l52 -20q0 31 10 56
q-206 67 -250 91zM611 332v226h48v-89q1 -57 -4 -62q3 0 8 1q23 1 59 7q-12 20 -12 56v83q0 76 6 97h-61q0 -6 3 -28q1 -7 1 -11h-52q-22 146 -169 269q-28 -36 -77 -49q166 -81 193 -220q-56 0 -73 1q-22 0 -29 2q6 -18 6 -85v-69q0 -54 -6 -72q9 1 24 4q42 5 44 10
q-10 15 -10 50v105h50v-226q2 0 -22 1q-85 4 -96 5v-68q45 4 69 4q28 1 70 0q30 -56 44 -145q35 7 81 28q-1 3 -5 7q-28 24 -66 108q52 1 71 -4v64h-95zM921 28v72q-40 -8 -123 -8h-377q12 357 -15 522q-23 162 -108 279q-21 -35 -66 -61q83 -54 107 -191q27 -131 22 -480
q-1 -73 -3 -86q-1 -16 -7 -43q18 3 115 4h326q99 0 129 -8zM756 413q3 0 8 1q67 3 71 11l-16 26q11 255 133 357q-25 20 -61 65q-72 -113 -95 -256q-29 170 -173 264q-23 -29 -67 -49q127 -61 172 -157q23 -48 30 -111q6 -61 -2 -151zM766 127q93 16 87 22q0 1 -3 4
q-26 27 -50 111q68 0 94 -1q31 -2 46 -7l-49 153q-17 -12 -64 -16q25 -52 30 -75h-77l-36 81l-67 -20q68 -59 89 -252zM236 102h-83v164h83v-164zM536 135q24 51 31 102l-61 17q-11 -65 -32 -105z" />
</svg>
