<?xml version="1.0" standalone="no"?>
<!DOCTYPE svg PUBLIC "-//W3C//DTD SVG 1.1//EN" "http://www.w3.org/Graphics/SVG/1.1/DTD/svg11.dtd" >
<svg xmlns="http://www.w3.org/2000/svg" xmlns:xlink="http://www.w3.org/1999/xlink" version="1.1" viewBox="-10 0 1034 1024">
  <g transform="matrix(1 0 0 -1 0 820)">
   <path fill="currentColor"
d="M390 57q10 4 22 9l3 49q-73 -36 -84 -43q-13 -1 -24 -7q-10 -3 -18 -8v209q117 -3 123 -5v46q-51 -4 -81 -5h-42v156q42 0 86 -3q12 0 25 -2q-4 24 -5 65l1 174l4 49q-66 -6 -97 -6l-127 1q-39 4 -58 5q6 -66 6 -87l-1 -149q0 -3 -5 -50v-2q24 4 62 5h71v-415
q-31 -9 -46 -17q-10 -4 -23 -8q-9 -3 -16 -6v265q0 42 12 68h-54l4 -39l1 -308q-48 -15 -84 -23q16 -24 28 -48q48 24 69 33q18 9 185 73q6 3 63 24zM160 494v206h197v-206h-197zM656 -99q-3 -43 -4 -54q-1 -1 -2 -13h49q0 6 -2 13l-4 54v236q57 -76 110 -122q24 -22 65 -51
q37 -25 82 -53q16 27 46 42q-78 22 -134 65q-84 61 -141 144l238 -3l2 -1q3 0 7 -1v46q-34 -4 -65 -5h-210q0 54 3 57q3 13 10 25h-56q6 -72 6 -82q-243 3 -259 5v-46q54 6 77 5h158q-51 -72 -133 -135q-99 -70 -173 -85q15 -9 27 -25q6 -6 12 -13q21 9 36 18q15 7 43 24
q45 27 73 47q25 19 61 54q27 24 44 43q15 15 34 41v-230zM443 357q-3 -27 -5 -57q54 4 81 5q69 0 83 -2q19 0 40 -3q-4 48 -5 92l5 95q-33 -1 -66 -5q-69 0 -97 2q-9 3 -41 3q4 -99 5 -102v-28zM600 339h-121v109h121v-109zM526 608q-3 -30 -5 -62q36 3 74 5l203 -1l48 -4
q-6 66 -5 114q1 45 5 89q-33 -1 -66 -5l-208 1q-19 3 -51 4q1 -31 5 -64v-77zM563 587v121h240v-121h-240zM721 304q36 3 73 4q82 0 96 -2q1 0 6 -1q10 0 29 -2q-4 54 -5 83q0 57 2 69q0 18 3 36q-60 -4 -92 -5q-57 0 -85 2q-3 1 -6 1q-15 0 -31 2q4 -99 5 -103
q-3 -42 -5 -85q4 1 10 1zM750 342v111h133v-111h-133z" />
  </g>

</svg>
