<?xml version="1.0" standalone="no"?>
<!DOCTYPE svg PUBLIC "-//W3C//DTD SVG 1.1//EN" "http://www.w3.org/Graphics/SVG/1.1/DTD/svg11.dtd" >
<svg xmlns="http://www.w3.org/2000/svg" xmlns:xlink="http://www.w3.org/1999/xlink" version="1.1" viewBox="-10 0 1034 1024">
  <g transform="matrix(1 0 0 -1 0 820)">
   <path fill="currentColor"
d="M106 -47q-21 -4 -54 -8q10 -30 17 -52q64 28 252 82q36 12 75 23l3 46q-21 -12 -47 -22q-31 -10 -90 -28v214q103 0 110 -3l1 -1q3 0 10 -2h4v47q-66 -6 -86 -6h-39v166l102 -5q-4 54 -5 77l1 164l4 50q-33 -1 -65 -5q-126 0 -153 2q-6 3 -41 3q1 -33 5 -69l-1 -174
l-4 -48q54 4 112 5h7v-427q-9 0 -65 -16q-9 0 -16 -4l1 301q0 19 11 42h-54l5 -105v-247zM147 445v209h174v-209h-174zM479 677q24 33 32 40q4 4 29 13l-21 15l-29 22q-7 -18 -17 -35q-12 -22 -40 -61q-18 -27 -38 -47q82 -58 106 -79l30 -27l15 23q3 3 8 11l-80 56
q-3 3 -27 21q1 1 3 4q3 3 6 8q10 18 23 36zM733 398q-15 6 -30 10q46 24 84 27q-18 18 -34 37q-28 -18 -65 -35q-15 -6 -30 -13l-111 32q-18 3 -26 7q-6 -18 -14 -32q15 -3 21 -5q4 0 9 -2q21 -6 43 -11q4 0 20 -6q4 -1 12 -4q-72 -22 -120 -31q18 -13 35 -33l131 50l75 -29
q27 -10 43 -19q3 16 14 37q-6 1 -57 20zM887 515q-49 -4 -59 -5l-370 1q-19 3 -46 4q1 -33 5 -67l-1 -125q-3 -12 -4 -46q30 3 63 5l364 -1l48 -4q-4 52 -5 100q0 87 2 99q0 18 3 39zM454 318v156h390v-156h-390zM812 619l-18 15q55 72 62 77q13 15 33 21q-21 18 -43 39
q-30 -54 -105 -139q6 -6 20 -16l68 -57q12 -10 40 -40q15 21 28 35q-19 16 -57 44q-15 10 -28 21zM552 -94q12 4 24 10q6 4 10 6q6 3 21 10l-3 44q-27 -18 -64 -36l-70 -33v270q0 40 12 66h-54l4 -37v-290q-4 -18 -11 -29q-1 -1 -4 -6q18 -33 19 -36l70 40zM510 63l44 -34
q15 -12 35 -31q6 13 13 23q3 3 8 10q-64 51 -95 72q-6 -12 -20 -28zM503 198l79 -69l8 -8q7 21 19 34q-6 7 -15 15q-15 15 -32 25q-15 15 -41 36l-23 -29q1 -1 5 -4zM657 760q-6 -7 -10 -15q-24 -42 -40 -64q-15 -21 -40 -52q81 -58 117 -100q12 18 17 23q3 3 8 10
q-4 4 -17 14l-35 28q-12 10 -26 21q-7 6 -13 12q9 12 20 28q27 36 37 45q6 7 30 21q-27 16 -43 36q-3 -3 -5 -7zM670 181q0 40 12 67h-54q0 -10 2 -15l3 -95l-1 -226q-1 -10 -8 -24q-1 -3 -4 -6q12 -18 22 -36q46 36 88 60q28 18 59 34q10 6 21 13q-3 22 -5 45
q-22 -18 -49 -35l-86 -53v271zM784 35l-42 37q-16 15 -33 30q-7 -15 -24 -31q13 -6 24 -17q12 -12 29 -27q7 -6 23 -24q10 16 23 32zM726 202q-6 6 -11 13q-10 -15 -25 -30q31 -27 42 -37q31 -31 41 -38q9 15 24 30q-21 21 -41 38zM808 265q3 -21 3 -39q0 -28 6 -109
q9 -82 21 -130q12 -51 41 -89q18 -28 38 -29q21 0 37 30q3 6 6 15q21 85 22 88q-27 7 -45 19q0 -7 1 -17q0 -9 -3 -27q-3 -24 -3 -28q-4 -24 -17 -25q-7 0 -18 13q-19 28 -32 88q-16 72 -17 181q0 28 11 55q-25 3 -51 4v0z" />
  </g>

</svg>
