<?xml version="1.0" standalone="no"?>
<!DOCTYPE svg PUBLIC "-//W3C//DTD SVG 1.1//EN" "http://www.w3.org/Graphics/SVG/1.1/DTD/svg11.dtd" >
<svg xmlns="http://www.w3.org/2000/svg" xmlns:xlink="http://www.w3.org/1999/xlink" version="1.1" viewBox="-10 0 1034 1024">
  <g transform="matrix(1 0 0 -1 0 820)">
   <path fill="currentColor"
d="M358 -104q13 -25 20 -50q40 6 87 18q78 24 119 58q60 49 70 126q3 21 6 45q3 22 5 32q4 18 19 36q-30 6 -60 16l1 -44q0 -103 -35 -154q-24 -33 -88 -64q-54 -21 -107 -21q-13 0 -37 2zM443 270q1 -31 5 -64l-3 -195q0 -3 -2 -7h49q-3 7 -4 19l-2 141v65h331l-1 -221
q-3 -15 -4 -21h49q-1 3 -2 5q0 1 -4 54l1 178q0 10 5 46q-30 -1 -59 -5l-312 1q-19 3 -47 4zM812 489v-114q0 -34 16 -49q15 -15 54 -15q30 0 47 10q22 12 34 55q3 12 7 24q-27 6 -42 14q-1 -9 -2 -20q-3 -36 -18 -43q-12 -3 -24 -3q-24 0 -32 6q-6 6 -7 26v109q48 0 98 -3
q4 0 10 -3v43l-102 -5h-43v79q48 0 98 -3q1 0 4 -2q3 0 5 -1v43q-6 0 -12 -3l-95 -2v50q0 15 3 33q1 18 12 34h-54l4 -41l1 -76h-67q9 36 18 51q6 9 24 21q-21 4 -33 9q-9 3 -22 11q-6 -39 -23 -85q-21 -52 -53 -77q25 -9 48 -19q1 6 8 18q4 12 10 22q6 13 8 17h82v-79h-58
q-46 0 -65 5v-44q6 3 15 5q18 1 66 2q-3 -82 -41 -124q-31 -34 -82 -45q22 -15 40 -36q52 36 83 81q27 48 31 124h49zM679 -39q33 -16 83 -38q48 -24 108 -58q15 -9 32 -21q3 6 8 17q4 7 12 22l-110 56l-117 55q-1 -1 -1 -5q-3 -4 -4 -9q-4 -4 -7 -11q-3 -3 -4 -8zM68 -67
q6 -15 10 -34q24 12 43 16q103 33 106 33q100 27 134 34q9 0 24 5q0 25 4 47q-33 -13 -121 -39v221l69 -1q21 0 30 -4q3 0 6 -1v47q-10 -3 -23 -3l-82 -2v172l83 -5q0 3 -1 10q-3 63 -4 93q0 135 2 147q0 18 3 36q-30 -1 -59 -5q-132 0 -154 2q-6 3 -36 3q4 -66 5 -96
q0 -129 -2 -155q-3 -3 -3 -35q19 4 51 5h77v-438q-39 -10 -77 -18v270q0 36 14 67h-58q0 -6 3 -13l3 -109v-223q-12 -4 -20 -7q-15 -1 -36 -2zM308 664v-204h-164v204h164zM542 487v-105q0 -24 -19 -42q15 -19 30 -41q9 12 15 21l23 23q22 21 37 32q21 16 44 30q-3 9 -5 16
q-1 4 -3 8q-3 7 -5 14q-36 -25 -47 -37q-4 -3 -8 -8q-15 -10 -29 -22v111q28 -1 58 -5q1 0 4 -1v43l-102 -5v79q60 0 75 -3q4 0 10 -3v43q-19 -3 -23 -4l-62 -1v53q0 15 3 33q1 18 11 35h-53l5 -110v-11h-64q13 48 20 58q6 13 25 22q-15 4 -38 16q-7 3 -16 8q-7 -45 -24 -89
q-18 -48 -45 -73q24 -12 41 -24q12 21 23 50h78v-79h-66q-42 0 -65 5v-43q19 4 38 5l44 1q-7 -82 -39 -126q-30 -34 -74 -46q27 -19 42 -37q39 30 66 74q27 46 35 135h60z" />
  </g>

</svg>
