<?xml version="1.0" standalone="no"?>
<!DOCTYPE svg PUBLIC "-//W3C//DTD SVG 1.1//EN" "http://www.w3.org/Graphics/SVG/1.1/DTD/svg11.dtd" >
<svg xmlns="http://www.w3.org/2000/svg" xmlns:xlink="http://www.w3.org/1999/xlink" version="1.1" viewBox="-10 0 1010 1000">
   <path fill="currentColor"
d="M639 0q16 56 26 82l-62 14q-4 -52 -24 -86zM798 14q58 -1 81 10q1 3 -3 8q-12 17 -15 44q-2 19 -5 69q-8 115 -17 155q59 78 117 169q3 4 4 6q-39 14 -63 31q-29 -73 -70 -152q-15 82 -69 170q-18 -18 -48 -36q0 21 6 48q-30 -6 -73 -6h-36q-30 0 -73 6q3 -21 6 -49v-10
q-27 9 -49 23q-5 3 -7 4q-9 -37 -35 -93q-11 -24 -18 -40q-36 124 -58 173q-21 -24 -58 -36q56 -63 78 -188q12 -63 14 -138q2 -76 -6 -156q69 0 79 10q-13 17 -16 48q-5 131 -20 220q28 43 65 106q26 45 31 49v-22q-3 -22 -6 -70q33 4 71 4h42q37 0 67 -6q-4 28 -4 62v50
q62 -66 80 -165q9 -50 11 -121q2 -69 -3 -177zM69 54q57 3 108 6h25q58 0 100 -6q-6 42 -6 93v107q0 72 6 108q-39 -6 -60 -6v105q51 0 70 -8v67q-21 -6 -70 -6v193l107 -42l-6 81q-21 -3 -291 92l-28 -76l41 -10v-264q0 -37 -5 -67q84 4 83 10q1 2 -3 6q-15 20 -15 53v250
l60 -15v-369h-22q-69 0 -94 6q6 -36 6 -104v-111q0 -42 -6 -93zM700 104v59q-17 -4 -79 -4q-54 1 -71 6q-2 7 -5 21q-18 72 -39 124l-44 -14q24 -68 34 -155l40 14v-49q25 4 81 4q54 0 83 -6zM232 119h-93v177h93v-177zM716 125l48 4q-2 34 -5 91q-4 56 -5 78l-52 -4
q9 -27 14 -82q4 -56 0 -87zM905 131l59 26q-34 108 -53 149l-48 -16q35 -73 42 -159zM688 193v55q-19 -4 -73 -4q-57 -1 -67 4v-55q21 4 67 4q56 0 73 -4zM540 280q9 7 73 6q49 0 77 -4v56q-17 -4 -79 -4q-52 0 -71 4v-58zM659 419h-70v64h70v-64zM389 560q33 6 89 6h256
q97 -6 127 -6q-98 147 -180 206q133 34 273 38q-33 36 -51 93q-204 -37 -292 -81q-81 43 -268 87q-5 -20 -41 -81q149 -9 261 -54q-49 -46 -101 -145q-40 0 -73 6v-69zM746 619h-220q48 78 99 118q73 -49 121 -118zM325 133l48 4q-2 34 -5 91q-4 56 -5 78l-51 -4
q8 -28 13 -84q4 -55 0 -85z" />
</svg>
