<?xml version="1.0" standalone="no"?>
<!DOCTYPE svg PUBLIC "-//W3C//DTD SVG 1.1//EN" "http://www.w3.org/Graphics/SVG/1.1/DTD/svg11.dtd" >
<svg xmlns="http://www.w3.org/2000/svg" xmlns:xlink="http://www.w3.org/1999/xlink" version="1.1" viewBox="-10 0 1034 1024">
  <g transform="matrix(1 0 0 -1 0 820)">
   <path fill="currentColor"
d="M137 243q-46 0 -62 3q-6 3 -17 3v-47q3 0 7 1q18 4 52 5h220q-33 -48 -65 -84q-30 -33 -72 -68q-82 -72 -149 -84q33 -24 48 -44q12 9 24 17q39 27 64 49q25 21 64 56q33 30 62 64q33 36 77 94h13v-263q0 -40 -21 -48q-19 -6 -56 -6q-13 0 -48 4q9 -21 14 -37q1 -7 4 -16
q96 9 122 24q24 15 24 64l1 685q0 15 4 40q-4 0 -8 -1q-63 -3 -90 -4h-86q22 66 29 76q6 12 28 26q-6 0 -64 23q-12 -63 -16 -75q-4 -18 -16 -50q-37 0 -59 2q-6 3 -33 3q1 -27 5 -54v-358zM174 243v105h229v-105h-229zM174 384v98h229v-98h-229zM174 518v96h229v-96h-229z
M912 -101q18 0 59 -5v46q-21 -4 -59 -5h-335v705h319q37 0 60 -5v46q-21 -4 -60 -5l-326 1q-1 0 -36 4q1 -27 5 -54l-1 -691q-3 -12 -4 -42q25 3 52 5h326zM879 165q0 1 -13 24l-57 96q78 207 83 214q7 12 30 24q-36 19 -63 37q-12 -85 -72 -235l-128 198q-12 -10 -25 -17
q-3 -1 -5 -4q-6 -3 -11 -6q27 -27 60 -74q43 -63 87 -137q-30 -72 -67 -133q-54 -87 -101 -113q13 -6 24 -10q18 -6 31 -14q37 51 69 102q31 52 69 126q36 -60 59 -107q21 -46 36 -93q42 21 46 25q-13 21 -14 25z" />
  </g>

</svg>
