<?xml version="1.0" standalone="no"?>
<!DOCTYPE svg PUBLIC "-//W3C//DTD SVG 1.1//EN" "http://www.w3.org/Graphics/SVG/1.1/DTD/svg11.dtd" >
<svg xmlns="http://www.w3.org/2000/svg" xmlns:xlink="http://www.w3.org/1999/xlink" version="1.1" viewBox="-10 0 1034 1024">
  <g transform="matrix(1 0 0 -1 0 820)">
   <path fill="currentColor"
d="M302 -79q0 -39 -5 -79h50q-1 7 -5 66v183l172 34q1 12 3 22q0 -3 2 12q1 7 3 19q-36 -13 -69 -22l-111 -25v159h78q39 0 66 -6v47q-13 -1 -19 -2q-63 -3 -94 -4h-31v103q0 15 2 33q1 16 10 33h-57q1 -33 5 -66v-103h-152q24 51 44 98l67 166h179q21 0 67 -5v46
q-13 -1 -20 -2l-136 -3h-78q6 16 14 36q24 64 31 76q7 15 28 31q-36 6 -68 18q-4 -31 -13 -62q-12 -39 -20 -62q-6 -18 -15 -37h-92q-34 0 -70 5v-46q43 3 46 4l104 1q-39 -103 -77 -188q-18 -36 -31 -53q-13 -12 -36 -19q10 -25 16 -51q48 12 68 12h144v-166l-99 -19
q-36 -6 -63 -10q-48 -6 -84 -7q9 -30 16 -61q19 9 71 23l159 33v-162zM709 301l-156 1q-10 1 -22 2q-3 0 -20 2v-46q51 4 87 5h111v-339q0 -42 -5 -79h50q-1 7 -5 66v352h148q36 0 68 -5v46q-51 -4 -88 -5h-128v333h109q31 0 67 -5v46l-102 -5l-251 1q-6 0 -42 4v-46
q54 4 113 5h66v-333z" />
  </g>

</svg>
