<?xml version="1.0" standalone="no"?>
<!DOCTYPE svg PUBLIC "-//W3C//DTD SVG 1.1//EN" "http://www.w3.org/Graphics/SVG/1.1/DTD/svg11.dtd" >
<svg xmlns="http://www.w3.org/2000/svg" xmlns:xlink="http://www.w3.org/1999/xlink" version="1.1" viewBox="-10 0 1010 1000">
   <path fill="currentColor"
d="M230 -15q90 17 101 29q0 2 -4 9q-28 44 -53 122h63q118 -5 139 -10v86q-58 -8 -137 -8h-83q-63 160 -95 220h111v-79q0 -49 -8 -84q76 7 105 22q0 1 -3 3q-20 19 -23 65v73q83 0 145 -8v83q-93 -11 -145 -10v121q63 -9 157 -27l-8 79l-149 18v71q3 101 10 147h-89
q3 -10 6 -66q3 -57 2 -79v-63q-13 2 -41 5q-120 15 -166 29l-15 -92q49 6 222 -12v-129h-82q-91 5 -111 10l-14 -83q64 -42 114 -214q-16 -1 -71 2q-50 3 -56 6v-86q62 8 144 8q21 -63 34 -158zM585 0q87 9 109 24q0 2 -3 7q-18 29 -22 75v119q92 -9 178 -22l-32 555
q-7 65 28 64q55 -6 48 -97q33 33 79 49q-1 5 -4 15q-16 107 -83 108q-39 8 -103 0q-61 -1 -47 -91q1 -5 1 -8l28 -508q-26 2 -93 6q6 432 -207 605q-36 -37 -91 -51q130 -81 172 -191q45 -106 50 -357q-18 2 -52 6q-54 6 -77 10l-8 -85q81 0 137 -4v-139q0 -54 -8 -90z" />
</svg>
