<?xml version="1.0" standalone="no"?>
<!DOCTYPE svg PUBLIC "-//W3C//DTD SVG 1.1//EN" "http://www.w3.org/Graphics/SVG/1.1/DTD/svg11.dtd" >
<svg xmlns="http://www.w3.org/2000/svg" xmlns:xlink="http://www.w3.org/1999/xlink" version="1.1" viewBox="-10 0 1034 1024">
  <g transform="matrix(1 0 0 -1 0 820)">
   <path fill="currentColor"
d="M159 19l99 25q10 1 22 5l-1 -195q-1 -10 -3 -23q-1 -3 -1 -8h49q0 3 -2 9q-1 12 -3 57v169l86 22q67 18 95 26l3 51q-37 -16 -73 -28q-39 -12 -111 -29v166q127 0 144 -2q3 0 20 -3v46q-6 0 -61 -5h-103q0 112 3 118q1 10 11 24h-58q4 -45 5 -85v-57h-147q21 42 60 133
q19 45 51 128l213 -1q21 0 39 -5v47q-7 -1 -16 -3q-27 -1 -49 -2h-175q33 90 44 111q9 19 33 38q-25 3 -66 16q-6 -30 -20 -71q-15 -45 -33 -94l-148 3q-3 1 -8 2v-47q3 1 7 2q0 1 60 4h76q-33 -93 -64 -162q-30 -63 -41 -80q-12 -16 -31 -26q18 -25 25 -41q18 6 31 8
q30 3 48 4h111v-174q-64 -15 -129 -29q-63 -12 -93 -14q6 -15 19 -54q24 10 46 16zM403 -129q13 -3 26 -12q13 -13 18 -14q6 -3 8 -6q169 114 231 317q24 -55 43 -91q12 -24 39 -64q33 -48 72 -85q33 -33 97 -77q24 24 49 40q-24 7 -39 15q-36 16 -76 54q-99 90 -142 212
q-24 73 -25 160q0 42 17 88q-30 0 -59 4q3 -18 3 -51q0 -48 -4 -97q-4 -57 -18 -106q-15 -60 -48 -119q-39 -66 -103 -118q-34 -27 -89 -50zM578 495q6 13 14 29h301q-6 -16 -16 -35q-12 -25 -36 -71q-10 -21 -28 -45q21 -1 49 -11q21 39 40 80l24 52l35 71q-33 -1 -65 -5
h-292q6 18 11 28q28 99 33 106q4 18 17 34q7 10 23 21q-27 6 -54 11q-7 3 -15 7q-9 -66 -45 -166q-33 -99 -71 -162q-28 -48 -67 -79q37 -9 56 -20q36 55 53 88z" />
  </g>

</svg>
