<?xml version="1.0" standalone="no"?>
<!DOCTYPE svg PUBLIC "-//W3C//DTD SVG 1.1//EN" "http://www.w3.org/Graphics/SVG/1.1/DTD/svg11.dtd" >
<svg xmlns="http://www.w3.org/2000/svg" xmlns:xlink="http://www.w3.org/1999/xlink" version="1.1" viewBox="-10 0 1010 1000">
   <path fill="currentColor"
d="M208 -8q105 16 104 28q0 2 -4 6q-24 29 -48 101h61q83 0 116 -6v80q-37 -6 -116 -6h-81l-85 226h89v-71q0 -51 -4 -74q105 8 101 14q1 2 -3 9q-19 44 -19 122h14q52 -1 86 -6v77q-38 -5 -84 -5h-18v109q54 -11 110 -30q-1 7 -2 18q-4 33 -4 59q-9 2 -32 7q-50 9 -72 15
v117q1 62 8 113h-93q9 -38 10 -111v-105q-103 17 -177 44q-5 -60 -27 -96q66 4 204 -19v-121q-119 0 -175 11q0 -45 -23 -87q54 19 125 -216h-28q-26 0 -75 6q-9 2 -12 2v-84q36 6 91 8h42q22 -76 21 -135zM460 62q42 6 141 6h224q58 -1 125 -10v89q-36 -8 -117 -8h-289
q-4 390 -24 518q-16 134 -85 248q-36 -37 -90 -42q80 -68 102 -211q12 -73 17 -191q4 -111 2 -324q0 -21 -6 -75zM591 242q47 6 123 8h80q75 -2 111 -8q-16 111 -30 294q-1 62 -141 74q8 -52 -24 -92q53 10 70 2q18 -5 24 -39q7 -41 11 -159h-142v424q-2 38 12 46
q13 10 67 10q72 1 85 -15q17 -11 20 -84q34 40 89 43q-23 90 -47 106q-21 23 -99 21h-78q-89 1 -106 -17q-21 -14 -19 -92v-383q-1 -97 -6 -139z" />
</svg>
