<?xml version="1.0" standalone="no"?>
<!DOCTYPE svg PUBLIC "-//W3C//DTD SVG 1.1//EN" "http://www.w3.org/Graphics/SVG/1.1/DTD/svg11.dtd" >
<svg xmlns="http://www.w3.org/2000/svg" xmlns:xlink="http://www.w3.org/1999/xlink" version="1.1" viewBox="-10 0 1034 1024">
  <g transform="matrix(1 0 0 -1 0 820)">
   <path fill="currentColor"
d="M512 52l-3 -220q-1 -1 -2 -11h51q0 4 -2 9q0 18 -3 57v165l389 -3q1 0 11 -2v46q-33 -1 -65 -5h-335v192q246 0 257 -2q1 0 6 -1q1 0 14 -2v46q-39 -4 -65 -5h-212v106q0 36 13 65h-59q4 -45 5 -79v-92h-229l141 255l449 -1q6 0 39 -4v46q-39 -4 -65 -5h-405
q36 84 50 110q7 13 16 23q9 7 19 18q-30 7 -63 26q-12 -43 -22 -66q-10 -22 -20 -46q-3 -12 -10 -25q-4 -13 -19 -40l-301 5v-46q54 4 67 5h219l-85 -157q-34 -60 -49 -77q-13 -15 -32 -24q9 -21 15 -48q45 15 94 15h191v-192l-397 1q-27 3 -41 3q-3 1 -4 1v-46q3 1 7 1
q0 1 60 4h375z" />
  </g>

</svg>
