<?xml version="1.0" standalone="no"?>
<!DOCTYPE svg PUBLIC "-//W3C//DTD SVG 1.1//EN" "http://www.w3.org/Graphics/SVG/1.1/DTD/svg11.dtd" >
<svg xmlns="http://www.w3.org/2000/svg" xmlns:xlink="http://www.w3.org/1999/xlink" version="1.1" viewBox="-10 0 1034 1024">
  <g transform="matrix(1 0 0 -1 0 820)">
   <path fill="currentColor"
d="M127 609q-51 3 -67 5v-47q3 1 7 2q0 1 60 4h104q-42 -90 -70 -141q-34 -63 -50 -84q-13 -18 -36 -33q6 -9 7 -14l11 -32q10 3 27 5q30 1 50 3h140v-173q-21 -6 -48 -13q-33 -9 -101 -23q-42 -9 -65 -13q-19 -3 -34 -3q12 -36 17 -55q30 13 69 25l162 40l-1 -190
q-1 -6 -2 -23q-3 -6 -3 -16h49q0 6 -2 10q-1 12 -3 56v172l146 35q19 3 41 8l9 54q-21 -9 -60 -22l-136 -34v165h118q24 0 51 -3l13 -2v46q-31 -1 -64 -5h-118v83q0 19 3 35q1 16 11 31h-58q3 -9 3 -16q1 -27 3 -39v-94h-166q42 73 75 142l42 89q7 13 14 29l245 -1
q21 0 37 -5v47q-4 -1 -14 -2l-49 -3h-203q18 49 37 85q18 40 45 52q-15 6 -29 10q-25 7 -41 15q-6 -24 -11 -41l-46 -121h-119zM672 673q0 15 3 31q1 18 10 35h-58q4 -49 5 -66l1 -704q3 -42 21 -61q27 -24 129 -25q75 0 103 10q30 9 46 39q9 21 23 72l7 25q-22 7 -52 29
q0 -33 -4 -69q-9 -45 -32 -56q-24 -9 -83 -10q-39 0 -72 4q-24 3 -36 13q-10 9 -11 56v677z" />
  </g>

</svg>
