<?xml version="1.0" standalone="no"?>
<!DOCTYPE svg PUBLIC "-//W3C//DTD SVG 1.1//EN" "http://www.w3.org/Graphics/SVG/1.1/DTD/svg11.dtd" >
<svg xmlns="http://www.w3.org/2000/svg" xmlns:xlink="http://www.w3.org/1999/xlink" version="1.1" viewBox="-10 0 1034 1024">
  <g transform="matrix(1 0 0 -1 0 820)">
   <path fill="currentColor"
d="M374 -141q21 -10 27 -14q27 46 37 65q24 43 40 97q30 97 31 242v388h371q27 0 63 -5v46q-9 0 -17 -3q-24 0 -46 -2l-376 1q-12 3 -38 4q1 -27 5 -57l-1 -421q-1 -12 -2 -26q-3 -55 -14 -111q-24 -99 -66 -160q-13 -18 -33 -34q9 -4 19 -10zM613 491l6 -53l1 -491
q1 -19 7 -34q10 -25 48 -35q10 -3 27 -5l77 -4q28 0 71 5q57 9 80 40q6 9 12 23q1 4 20 68q-24 9 -51 26q-1 -67 -14 -90q-12 -24 -71 -30q-39 -3 -58 -3q-12 0 -46 3q-43 4 -54 17q-10 15 -11 54v468h171v-225q0 -39 -28 -45q-25 -3 -49 -4q-12 1 -29 4q9 -21 16 -49
q25 0 51 5q48 9 62 23q15 18 15 61l1 234l4 37q-18 -1 -26 -2q-19 -3 -69 -3l-125 1q-15 3 -38 4zM73 22q3 -6 7 -12l85 32l94 30v-170q0 -39 -5 -59h49l-4 35l-1 206l129 41q0 27 4 49q-60 -24 -133 -49v152h62q28 0 64 -5v46q-9 0 -17 -3l-109 -2q0 114 3 120q1 15 11 29
h-58q4 -54 5 -88v-61h-136q30 64 47 105l26 67l33 81h143q37 0 63 -5v47q-4 0 -7 -2q-18 -3 -56 -4l-133 1q9 21 15 37q0 3 22 59q13 27 36 37q-13 6 -29 12q-18 7 -35 15q-18 -82 -49 -161l-138 4h-5v-45q0 1 2 1q72 3 110 4h20q-18 -51 -42 -110q-25 -64 -36 -83
q-22 -45 -53 -58q13 -24 22 -46q43 7 72 8h108v-163q-108 -39 -206 -54q12 -15 12 -21q3 -7 8 -17v0z" />
  </g>

</svg>
