<?xml version="1.0" standalone="no"?>
<!DOCTYPE svg PUBLIC "-//W3C//DTD SVG 1.1//EN" "http://www.w3.org/Graphics/SVG/1.1/DTD/svg11.dtd" >
<svg xmlns="http://www.w3.org/2000/svg" xmlns:xlink="http://www.w3.org/1999/xlink" version="1.1" viewBox="-10 0 1034 1024">
  <g transform="matrix(1 0 0 -1 0 820)">
   <path fill="currentColor"
d="M252 294v-157q-142 -37 -173 -38q-10 0 -22 1q4 -12 8 -20q3 -6 8 -20q0 -6 5 -14q33 13 53 19q9 4 104 30l17 3v-188q0 -43 -5 -69h49q-3 15 -4 38l-1 227q6 3 56 14q3 3 24 6q4 1 10 1l33 7q3 31 7 54q-22 -13 -67 -27q-33 -9 -63 -16v149q117 0 124 -3q3 0 7 -3v47
q-27 -1 -53 -5h-78q0 127 3 134q3 18 12 32h-59q4 -120 5 -123v-43h-132q33 72 57 132q21 55 41 115h131q25 0 52 -2q4 -1 14 -4v47q-36 -6 -63 -6h-123l18 58q15 55 47 81q-42 9 -65 18q-7 -51 -39 -157q-76 0 -104 2q-12 0 -27 4v-47q66 6 102 6h17q-18 -60 -33 -102
q-15 -39 -39 -87t-51 -59q12 -24 27 -55q10 6 21 10q25 9 46 10h103zM654 280q-40 -231 -188 -359q-40 -33 -84 -50q21 -10 41 -24q7 -4 15 -10q54 48 91 87q33 36 59 77q72 114 97 236q33 -117 110 -232q63 -94 137 -164q21 18 54 34q-78 39 -148 139q-96 138 -125 266
q229 0 239 -3q1 0 6 -2v46q-27 -1 -54 -5h-204v208q186 0 195 -3q3 0 7 -2v47q-51 -6 -75 -6h-127q0 168 3 174q3 16 11 30h-57q1 -36 5 -74v-130h-144q9 54 16 69q6 16 24 36q-39 3 -62 13q-6 -73 -32 -170q-15 -48 -28 -71q-12 -21 -34 -42q28 -3 59 -8q22 46 49 137h152
v-208h-150q-24 0 -55 3q-3 0 -13 2v-46q12 3 42 4z" />
  </g>

</svg>
