<?xml version="1.0" standalone="no"?>
<!DOCTYPE svg PUBLIC "-//W3C//DTD SVG 1.1//EN" "http://www.w3.org/Graphics/SVG/1.1/DTD/svg11.dtd" >
<svg xmlns="http://www.w3.org/2000/svg" xmlns:xlink="http://www.w3.org/1999/xlink" version="1.1" viewBox="-10 0 1034 1024">
  <g transform="matrix(1 0 0 -1 0 820)">
   <path fill="currentColor"
d="M680 638q25 -42 61 -84q36 -43 77 -78q45 -36 103 -74q9 -7 25 -16q16 19 51 41q-69 18 -115 49q-63 43 -125 117q-49 60 -91 146q9 9 21 17q-31 7 -63 20q-12 -87 -46 -164q-42 -85 -110 -151q-51 -46 -104 -67q30 -15 48 -33q49 39 109 104q45 51 73 100q27 48 53 126z
M407 -129q21 -22 34 -42q225 57 411 236q39 36 51 43q9 7 35 14q-22 19 -49 46q-61 -76 -124 -130q-105 -85 -204 -127q-66 -27 -154 -40zM764 225q12 12 24 22q19 18 44 27q-19 13 -44 38q-45 -61 -132 -143q-96 -84 -171 -108q39 -33 43 -37q126 88 201 166q16 18 35 35z
M717 443l-13 13q-31 -48 -96 -117q-37 -39 -70 -64q-27 -18 -56 -28q4 -3 38 -37q54 45 90 79q33 31 68 71q34 40 43 46q9 7 28 12q-21 13 -32 25zM265 -101q0 -42 -5 -59h50q-3 7 -4 34l-1 216l163 44l3 47q-66 -27 -166 -53v148l122 -1q15 0 32 -5v47q-24 -6 -63 -6h-91
q0 105 3 115l10 27h-58q1 -28 5 -58v-84h-128l54 132l44 116l199 -1q4 0 41 -4v47q-9 -1 -59 -6h-173l24 87q12 42 35 60q-37 6 -63 13q-6 -39 -15 -82q-10 -48 -21 -78l-144 3q-3 1 -8 3v-47q42 6 70 5h73q-31 -99 -66 -181q-27 -54 -60 -65q15 -28 21 -49q37 12 65 12h111
v-160q-141 -43 -217 -52q9 -21 17 -51q27 9 51 19l93 29q15 6 56 16v-178z" />
  </g>

</svg>
