<?xml version="1.0" standalone="no"?>
<!DOCTYPE svg PUBLIC "-//W3C//DTD SVG 1.1//EN" "http://www.w3.org/Graphics/SVG/1.1/DTD/svg11.dtd" >
<svg xmlns="http://www.w3.org/2000/svg" xmlns:xlink="http://www.w3.org/1999/xlink" version="1.1" viewBox="-10 0 1034 1024">
  <g transform="matrix(1 0 0 -1 0 820)">
   <path fill="currentColor"
d="M52 113q9 -19 20 -53q36 12 56 20l134 30q-3 -249 -5 -261h48q0 1 -1 5q-3 7 -4 36v228q69 21 122 28q3 21 5 27q0 6 7 23q-30 -10 -57 -18l-77 -20v145q96 0 109 -2q1 0 5 -1l12 -2v46q-9 -3 -23 -3q-18 0 -41 -2h-62v104q0 13 2 29q1 21 11 38h-56q1 -33 5 -67v-104
h-141q33 70 51 115l54 135l172 -1q21 0 36 -5v47q-10 -1 -22 -4l-175 -1q28 84 37 101q9 18 29 31q-36 12 -62 24q-9 -72 -43 -156q-111 0 -129 3q-3 0 -9 2v-47q19 4 34 5l92 1q-30 -87 -69 -172q-18 -39 -27 -54q-9 -12 -24 -21l25 -52q27 12 83 13h88v-154
q-150 -36 -193 -36h-17zM680 313q-208 0 -224 3l-13 2v-46q39 4 65 5h172v-338q0 -21 -17 -31q-15 -6 -38 -6q-40 0 -71 12q7 -24 14 -55q54 1 77 4q33 3 54 19q18 15 19 54v341q225 0 237 -2q1 0 4 -1q1 0 12 -2v46l-59 -5h-194v354q150 30 162 30q15 3 50 -3q1 1 4 0
q-18 28 -31 58l-38 -16q-61 -16 -143 -29l-114 -13q-60 -4 -102 -6q-30 0 -63 6q19 -27 28 -52l169 16l40 4v-349zM589 450q-7 15 -24 36q-39 60 -59 90q-7 -6 -37 -24q33 -42 68 -95q16 -27 27 -45l19 -41q24 15 40 27zM758 379q15 -6 41 -25q16 27 42 73q69 118 76 125
q10 12 29 23q-30 15 -54 36q-18 -52 -66 -135q-42 -69 -68 -97v0z" />
  </g>

</svg>
