<?xml version="1.0" standalone="no"?>
<!DOCTYPE svg PUBLIC "-//W3C//DTD SVG 1.1//EN" "http://www.w3.org/Graphics/SVG/1.1/DTD/svg11.dtd" >
<svg xmlns="http://www.w3.org/2000/svg" xmlns:xlink="http://www.w3.org/1999/xlink" version="1.1" viewBox="-10 0 1010 1000">
   <path fill="currentColor"
d="M645 4q13 1 35 3q80 6 76 11q1 2 -4 9q-20 31 -20 71v105h101q52 0 113 -10v83q-22 -6 -109 -6h-105v179h46l123 -6q-5 41 -6 113v196q2 95 10 139h-97q1 -7 3 -22q6 -45 4 -75h-230q0 12 1 32q2 55 5 67h-93q9 -38 10 -147v-188q0 -77 -6 -115q63 6 123 6h28v-179h-90
q-28 0 -88 7q-7 1 -11 1v-81q25 5 98 6h91v-101q-1 -72 -8 -98zM222 -12q66 12 103 28q-1 5 -8 14q-27 31 -47 97h85q75 -1 99 -6v82q-29 -8 -103 -8h-105q-87 210 -99 228h113v-77q0 -52 -1 -63q-1 -16 -5 -25q95 0 97 10q1 2 -3 7q-17 24 -17 67v79h36q63 -1 83 -6v79
q-31 -5 -85 -6h-34v124q83 -15 131 -30q-6 17 -12 85q-36 0 -119 10v117q0 47 1 69q1 25 3 44h-91q12 -40 16 -113v-105q-94 12 -195 42q-3 -64 -17 -94q100 -2 212 -18v-131q-113 5 -193 24q-2 -12 -6 -31q-6 -46 -19 -64q55 -4 127 -224h-28q-20 0 -65 6q-16 1 -22 2v-82
q19 4 69 6q21 1 26 2h41q31 -98 32 -139zM587 520v203h228v-203h-228z" />
</svg>
