<?xml version="1.0" standalone="no"?>
<!DOCTYPE svg PUBLIC "-//W3C//DTD SVG 1.1//EN" "http://www.w3.org/Graphics/SVG/1.1/DTD/svg11.dtd" >
<svg xmlns="http://www.w3.org/2000/svg" xmlns:xlink="http://www.w3.org/1999/xlink" version="1.1" viewBox="-10 0 1010 1000">
   <path fill="currentColor"
d="M224 -10q108 19 103 26q-1 3 -10 12q-19 17 -25 32q-2 6 -8 20q-13 32 -22 55h67q46 0 111 -10v86q-44 -8 -109 -8h-89q-50 115 -99 212h97q0 -62 -6 -137q45 0 103 10q-29 36 -29 125q63 1 115 -10v74q-20 -4 -46 -5q-12 -1 -27 -1h-40v123q74 -9 132 -26l-11 83
q-35 2 -119 16v71q0 119 7 159h-95q12 -47 14 -159v-61q-120 19 -180 32l-18 -97q99 -1 200 -10v-129q-95 -1 -167 23q-14 -58 -29 -93q50 6 123 -202h-18q-74 1 -97 8v-84q48 7 103 8h33q24 -74 36 -143zM843 44q77 81 72 91q-2 3 -22 -1q-21 -4 -30 -3q-15 1 -44 5
q-132 14 -236 19q-9 45 -25 129q-17 92 -26 133h133v-99q0 -71 -6 -103q14 1 43 3q53 3 50 7q0 2 -3 10q-15 32 -15 71v109h91q60 -1 110 -10v89q-59 -9 -100 -11h-101v287q2 84 -27 104q-26 25 -134 31q-1 -57 -33 -99q132 44 125 -62v-259q-171 2 -209 11q-6 -44 -21 -81
q46 7 75 -329q177 13 333 -42zM520 540l83 36q-55 110 -151 232l-77 -40q86 -86 145 -228zM851 554q64 91 119 222l-85 34q-17 -84 -103 -226z" />
</svg>
