<?xml version="1.0" standalone="no"?>
<!DOCTYPE svg PUBLIC "-//W3C//DTD SVG 1.1//EN" "http://www.w3.org/Graphics/SVG/1.1/DTD/svg11.dtd" >
<svg xmlns="http://www.w3.org/2000/svg" xmlns:xlink="http://www.w3.org/1999/xlink" version="1.1" viewBox="-10 0 1034 1024">
  <g transform="matrix(1 0 0 -1 0 820)">
   <path fill="currentColor"
d="M342 517l-281 3l-8 2v-47q12 3 20 3q21 1 45 3h518q4 -87 16 -187q16 -108 45 -188q-45 -61 -114 -123q-51 -42 -117 -71q7 -4 17 -9q21 -9 39 -21q57 37 92 70q42 42 103 110q18 -33 32 -56q45 -79 77 -108q36 -36 70 -37q16 0 30 11q16 16 25 41q9 30 15 77
q-21 9 -51 27q0 -22 3 -47q0 -57 -28 -58q-12 0 -31 15q-21 16 -44 48q-18 27 -34 54l-37 73q36 57 60 101q24 45 59 120q15 40 44 57q-12 3 -23 9q-27 13 -40 18q-13 -54 -38 -109q-51 -108 -81 -150q-40 130 -48 333l225 -1q30 0 51 -5v47q-24 -3 -59 -5h-218
q-3 69 -4 114q0 60 4 89q1 21 16 41q-33 1 -66 6q4 -30 5 -49l4 -201h-254v100q177 -3 188 -6l2 -1v48q-54 -6 -74 -6h-116v44q0 36 14 69h-58q4 -31 5 -69v-44l-203 5q-1 0 -3 1v-48q24 6 48 6l158 1v-100zM344 -77q0 -45 -6 -78h50q-6 30 -6 78v100l190 21q7 22 16 49
q-69 -18 -206 -32v98l156 -3q4 0 12 -3v47q-39 -4 -74 -5h-94v28q0 34 14 68h-58q3 -12 3 -19q3 -51 3 -77h-148q21 30 38 59q21 33 50 83l269 -3q4 0 12 -3v47q-55 -4 -66 -5h-190q6 6 17 28q18 30 46 47l-58 28q-18 -49 -52 -103l-144 3q-6 1 -9 2v-47q12 3 21 3
q42 3 67 3h45q-34 -61 -46 -77q-24 -33 -31 -42q-13 -15 -28 -24q12 -21 23 -44q25 7 53 8l131 1v-103l-105 -12q-156 -12 -160 -12q13 -28 24 -53q30 9 77 17l164 21v-94zM870 608l12 12q-39 40 -67 67q-22 21 -47 41q-15 -19 -32 -36q30 -18 64 -50q27 -27 47 -55
q6 7 15 15q3 3 8 6v0z" />
  </g>

</svg>
