<?xml version="1.0" standalone="no"?>
<!DOCTYPE svg PUBLIC "-//W3C//DTD SVG 1.1//EN" "http://www.w3.org/Graphics/SVG/1.1/DTD/svg11.dtd" >
<svg xmlns="http://www.w3.org/2000/svg" xmlns:xlink="http://www.w3.org/1999/xlink" version="1.1" viewBox="-10 0 1034 1024">
  <g transform="matrix(1 0 0 -1 0 820)">
   <path fill="currentColor"
d="M121 581q-40 0 -64 5v-46q24 4 47 5h77l-40 -134q-13 -43 -25 -70q-13 -33 -40 -45l33 -47q9 7 20 11q19 7 56 8h86v-157l-155 -26q-25 -1 -52 -2q9 -31 10 -56l73 20q43 12 109 24q6 1 15 2l-5 -223q-1 0 -1 -1h49q-1 3 -1 5q0 1 -4 53v172q36 9 70 14q40 7 64 11
q0 24 6 44q-24 -7 -60 -16q-37 -7 -80 -15v151l128 -3l2 -1q1 0 5 -2v47l-101 -5h-34v112q0 13 3 32q1 18 10 34h-57l1 -2q0 -1 1 -5q0 -3 1 -6l3 -150v-15h-125q0 4 8 33l65 208q210 0 218 -2q9 0 18 -3v46q-10 -3 -24 -3q-18 0 -40 -2h-161q30 96 35 103q9 22 33 37
q-18 4 -30 9q-12 4 -35 15q-3 -13 -5 -28q-12 -57 -26 -106q-3 -13 -10 -30h-71zM392 404q27 -19 45 -37q48 36 126 122q25 30 51 66q27 40 69 111q36 -82 115 -167q63 -61 132 -120q27 25 50 37q-54 13 -127 82q-106 103 -145 205q9 9 25 15q-36 18 -58 34
q-12 -42 -52 -114q-42 -70 -78 -113q-88 -106 -153 -121zM679 -85h-174q-48 0 -66 6v-47q48 6 66 6q444 0 450 -3q1 0 2 -1q3 0 6 -1q3 0 5 -1v47q-15 -4 -33 -5l-218 -1v197l169 -1q21 0 30 -4q3 0 5 -1v47q-3 0 -8 -2q-15 0 -31 -2l-165 -1v195q175 -3 182 -6v47
q-10 -1 -22 -4h-358q-18 1 -27 4v-47q3 0 7 3q54 3 114 3h66v-195h-136q-48 0 -65 5v-47q25 6 46 6h155v-197z" />
  </g>

</svg>
