<?xml version="1.0" standalone="no"?>
<!DOCTYPE svg PUBLIC "-//W3C//DTD SVG 1.1//EN" "http://www.w3.org/Graphics/SVG/1.1/DTD/svg11.dtd" >
<svg xmlns="http://www.w3.org/2000/svg" xmlns:xlink="http://www.w3.org/1999/xlink" version="1.1" viewBox="-10 0 1010 1000">
   <path fill="currentColor"
d="M599 -13q98 9 115 17q1 2 -4 5q-26 21 -27 67q-1 19 -2 51q-2 68 -2 106h146q57 0 113 -6q11 -2 16 -2v83q-46 -8 -129 -8h-144q2 164 35 300q53 -124 70 -235q89 35 103 50q1 3 -6 7q-14 9 -20 23l-9 21q-58 139 -104 209q68 117 107 131q20 -7 20 -91q36 40 77 59
q-28 127 -67 135q-107 -10 -191 -174q-60 75 -174 170q-22 -35 -91 -53q114 -56 232 -183q-52 -134 -58 -369h-288q56 18 58 26q0 1 -7 5q-19 10 -27 21q-13 15 -29 39h111q63 0 84 -1q27 -1 43 -5v72q-16 -4 -39 -5q-12 -1 -30 -1h-54h-153q0 -3 -89 115h123q0 -61 -8 -97
q100 4 105 14q1 1 -3 5q-21 16 -21 50v28h38q45 0 66 -2q20 -1 41 -6v77q-21 -5 -41 -6q-21 -2 -66 -2h-38v74q98 -8 161 -24q-15 26 -18 77q-28 -1 -143 10v62q0 45 8 79h-89q8 -37 8 -79v-56q-177 19 -225 38q-3 -40 -23 -91q34 12 214 -4q22 -1 34 -2v-84h-121
q-40 0 -74 20q-4 -7 -11 -22q-16 -35 -29 -57q59 -6 131 -117h-25h-24q-48 -2 -70 6v-72q39 6 103 6h48q33 -54 44 -91h-135q-38 0 -81 6q-14 1 -20 2v-83q28 8 101 8h163v-76h-82q-65 0 -109 6v-77q28 5 47 6q20 2 58 2h86v-18q-2 -62 -8 -84q79 1 101 10q1 2 -3 9
q-17 29 -17 65v18h65q73 0 110 -6v75q-11 0 -34 -2q-40 -4 -72 -4h-69v76h224q-1 -32 -2 -90q-3 -97 -4 -156zM813 44l82 105l-83 44q-9 -16 -22 -38q-26 -49 -52 -75z" />
</svg>
