<?xml version="1.0" standalone="no"?>
<!DOCTYPE svg PUBLIC "-//W3C//DTD SVG 1.1//EN" "http://www.w3.org/Graphics/SVG/1.1/DTD/svg11.dtd" >
<svg xmlns="http://www.w3.org/2000/svg" xmlns:xlink="http://www.w3.org/1999/xlink" version="1.1" viewBox="-10 0 1034 1024">
  <g transform="matrix(1 0 0 -1 0 820)">
   <path fill="currentColor"
d="M255 -102q-3 -33 -3 -51q-1 -3 -2 -15h48q0 6 -2 10q-1 12 -3 56v180q67 18 112 26q13 4 30 6q0 30 5 56q-12 -9 -33 -16q-93 -27 -114 -33v153h69q24 0 52 -3l13 -2v46q-33 -1 -65 -5h-69q0 120 3 128q1 10 10 23h-56q4 -54 5 -77v-74h-138q3 9 51 125q30 91 45 127
q0 3 2 5l184 -1q21 0 37 -5v47q-12 -3 -35 -4l-176 -1q1 12 4 18q9 31 19 63q12 37 33 55l-58 22q-10 -72 -40 -158q-84 0 -109 2l-19 3v-47q33 6 73 6h45l-49 -141q-22 -57 -40 -89q-3 -3 -5 -8q-10 -16 -25 -26q21 -30 25 -41q10 6 26 9q21 3 44 3h106v-161q-19 -3 -30 -7
q-54 -12 -96 -20q-37 -6 -79 -11q10 -21 20 -56q22 9 57 20l128 33v-170zM515 173v45q0 39 13 65h-56q4 -45 5 -84l-1 -286q-1 -10 -4 -19q-6 -13 -17 -22l7 -16q3 -6 6 -11l1 -1q3 -10 8 -20l32 27q9 6 19 14q7 6 104 70q12 6 22 13q9 4 21 12q-4 24 -6 54q-24 -22 -68 -52
q-27 -18 -86 -55v230l127 -1q6 0 38 -4v46q-31 -1 -64 -5h-101zM476 337q54 4 104 5l255 -1q16 0 45 -4q-3 31 -5 63l1 271l4 45q-31 -1 -63 -5l-293 1q-19 3 -48 4q1 -31 5 -65l-1 -267q-3 -12 -4 -47zM519 543v132h318v-132h-318zM519 378v129h318v-129h-318zM765 222
q0 21 3 35q0 13 11 31h-57q4 -49 5 -66l1 -306q3 -25 19 -40q21 -18 76 -19q42 0 66 4q43 6 66 52q10 24 23 67q-21 6 -52 31q0 -24 -3 -50q-6 -36 -20 -49q-18 -12 -71 -13q-42 0 -54 9q-12 7 -13 36v151l114 47q45 18 79 21q-21 22 -33 52q-28 -18 -62 -34
q-37 -18 -98 -41v82z" />
  </g>

</svg>
