<?xml version="1.0" standalone="no"?>
<!DOCTYPE svg PUBLIC "-//W3C//DTD SVG 1.1//EN" "http://www.w3.org/Graphics/SVG/1.1/DTD/svg11.dtd" >
<svg xmlns="http://www.w3.org/2000/svg" xmlns:xlink="http://www.w3.org/1999/xlink" version="1.1" viewBox="-10 0 1010 1000">
   <path fill="currentColor"
d="M623 -15q89 -2 103 17q1 1 -3 8q-14 26 -17 56v75h106q-28 -57 -66 -101l81 -42q31 36 68 106l-72 37q78 0 127 -8v86q-49 -8 -129 -8h-115v81h98q49 1 111 -8q-10 55 -10 113v393q18 101 -102 106q-17 3 -27 5q-4 -61 -42 -101q98 25 95 -30v-79h-123v59q0 84 8 135h-91
q8 -59 8 -137v-57h-119v61q-1 79 8 149h-93q7 -43 10 -155v-363q-3 -72 -10 -99q47 8 107 8h97v-81h-85q-88 1 -131 8v-86q69 8 131 8h85v-77q0 -48 -8 -79zM188 -2q91 9 108 26q0 1 -3 5q-28 31 -51 116h26q65 0 119 -8v88q-8 -3 -54 -6q-47 -3 -65 -2h-44q-3 8 -8 25
q-51 152 -65 185h79v-69q0 -44 -8 -82q69 -1 103 12q0 1 -3 5q-20 33 -20 78v56q59 0 103 -8v87q-46 -8 -103 -8v106q19 -4 75 -20q26 -7 36 -10l-6 79q-84 16 -105 24v113q-1 61 8 119h-88q3 -12 6 -57q3 -43 2 -62v-99q-3 1 -19 4q-102 23 -138 36l-23 -98q109 -3 180 -18
v-117h-71q-46 0 -84 8l-21 -79q51 -29 99 -210q-57 0 -103 8v-88q59 8 121 8q19 -73 17 -147zM829 363h-123v92h123v-92zM512 363v92h119v-92h-119zM512 526v93h119v-93h-119zM706 526v93h123v-93h-123z" />
</svg>
