<?xml version="1.0" standalone="no"?>
<!DOCTYPE svg PUBLIC "-//W3C//DTD SVG 1.1//EN" "http://www.w3.org/Graphics/SVG/1.1/DTD/svg11.dtd" >
<svg xmlns="http://www.w3.org/2000/svg" xmlns:xlink="http://www.w3.org/1999/xlink" version="1.1" viewBox="-10 0 1034 1024">
  <g transform="matrix(1 0 0 -1 0 820)">
   <path fill="currentColor"
d="M131 622l-62 4q-3 0 -6 1v-46q54 4 112 5h23q-12 -42 -28 -84q-15 -43 -42 -102q-18 -39 -28 -54q-9 -12 -25 -16q16 -19 29 -50q31 16 62 17h114v-152l-164 -39q-18 -3 -43 -6q0 -6 5 -17q4 -15 7 -25q0 3 2 -12q33 22 193 61v-185q0 -42 -5 -70h49q-4 16 -5 70v194
l40 10q1 0 75 14q0 21 5 52q-15 -9 -40 -19q-28 -9 -80 -21v145q111 0 118 -3q3 0 8 -3v47q-27 -1 -53 -5h-73q0 120 3 126q3 18 13 31h-60q1 -36 5 -73v-84h-143q21 42 29 66q12 27 22 56q10 27 22 52l29 79q180 0 189 -3q1 0 6 -2v46q-27 -1 -53 -5h-130q21 72 30 91
q6 15 30 35l-37 10q-12 3 -26 10q-9 -55 -14 -67q-9 -28 -17 -57q-3 -12 -6 -22h-80zM469 -78q0 -42 -5 -70h49q-3 19 -4 32l-1 776h410v-704q0 -33 -13 -41q-18 -9 -48 -9q-27 0 -60 9q6 -9 9 -17l10 -37l76 8q27 6 43 18q21 16 21 52l1 713l4 49q-19 -1 -35 -2
q-22 -3 -35 -4l-374 1q-10 1 -53 5q1 -33 5 -66v-713zM597 428q-36 0 -68 5v-46q33 3 68 5l269 -1q12 -1 24 -4v46q-27 -1 -53 -5h-90q28 46 48 80q15 27 28 44q15 21 33 32q-7 4 -15 8q-18 10 -36 21q-9 -30 -27 -66q-24 -45 -68 -119h-113zM721 280q3 3 6 8q3 0 4 4
q9 6 19 16q-66 72 -76 80q-12 -13 -27 -27q3 -3 6 -7q3 -1 9 -8q39 -39 55 -60q1 -1 4 -6zM647 241l208 -1q12 -1 24 -4v46q-27 -1 -54 -5l-250 1q-12 1 -26 2q-3 0 -13 2v-46q54 4 73 5l-1 -148q-3 -12 -4 -48q54 4 113 5q114 0 123 -3q6 0 9 -2v46q-36 -1 -74 -5h-128v155
zM642 469q9 7 26 16q-15 25 -40 61q-9 12 -37 53q-3 -1 -4 -3q-3 -1 -8 -5q-6 -6 -24 -14q37 -45 78 -115q4 4 9 7v0z" />
  </g>

</svg>
