<?xml version="1.0" standalone="no"?>
<!DOCTYPE svg PUBLIC "-//W3C//DTD SVG 1.1//EN" "http://www.w3.org/Graphics/SVG/1.1/DTD/svg11.dtd" >
<svg xmlns="http://www.w3.org/2000/svg" xmlns:xlink="http://www.w3.org/1999/xlink" version="1.1" viewBox="-10 0 1034 1024">
  <g transform="matrix(1 0 0 -1 0 820)">
   <path fill="currentColor"
d="M264 -97q-3 -33 -3 -51q-1 -3 -2 -14h48v3q-3 7 -4 32l-1 215q18 6 35 9q9 0 86 20l6 54q-40 -16 -66 -25q-22 -7 -61 -16v156q42 0 101 -3q3 0 11 -3v47q-3 0 -61 -5h-51v118q0 18 2 35q1 15 11 31h-56q4 -45 5 -82v-104h-138q1 3 3 10l7 15q16 40 35 80q3 4 14 35
l49 120l172 -1q4 0 38 -4v46q-31 -1 -64 -5h-133q3 18 15 46q3 18 14 44q3 12 9 24q6 13 22 27q-22 3 -30 6q-15 7 -30 13q-10 -66 -45 -160q-126 3 -137 5v-46q3 0 7 1q1 1 61 4h55q-21 -61 -47 -124q-15 -39 -28 -66q-9 -21 -18 -37q-9 -18 -28 -36q19 -27 27 -43
q33 12 65 12h105v-166q-7 -3 -26 -7q-16 -3 -33 -7l-100 -21q-15 -3 -48 -6q15 -36 20 -53q63 24 187 51v-174zM438 667q60 6 93 5l384 -1q6 0 39 -4v46q-39 -4 -65 -5l-451 5v-46zM459 -93q-1 -24 -3 -50q-1 -3 -2 -15h48v3q-1 3 -1 5q-3 7 -4 33v49h387q0 -55 -3 -72
q-1 -6 -2 -15h48q-3 16 -5 65l1 346l4 47q-49 -4 -64 -5l-361 1q-7 1 -17 2q-13 0 -31 2q1 -33 5 -66v-330zM497 -32v128h173v-128h-173zM497 132v130h173v-130h-173zM708 132v130h176v-130h-176zM708 -32v128h176v-128h-176zM806 387q33 -1 67 -5q-6 55 -5 80q0 69 2 82
q0 18 3 38q-21 -1 -34 -3q-24 -3 -33 -3l-261 1q-1 0 -43 5l5 -106l-5 -94q30 3 60 5h244zM545 423v117h285v-117h-285z" />
  </g>

</svg>
