<?xml version="1.0" standalone="no"?>
<!DOCTYPE svg PUBLIC "-//W3C//DTD SVG 1.1//EN" "http://www.w3.org/Graphics/SVG/1.1/DTD/svg11.dtd" >
<svg xmlns="http://www.w3.org/2000/svg" xmlns:xlink="http://www.w3.org/1999/xlink" version="1.1" viewBox="-10 0 1010 1000">
   <path fill="currentColor"
d="M603 -12q57 6 105 18q-16 14 -24 66q-3 20 -5 32h134q52 0 100 -8v77q-61 -6 -96 -6h-150q-4 43 -12 68h83q55 -1 127 -10v81q-68 -8 -115 -8h-107l-24 58h206q73 0 108 -8v79q-50 -8 -112 -8h-59q67 87 212 107q-43 37 -67 86q-74 -34 -137 -100v52q-33 -6 -76 -6h-21
q0 9 -1 29q-1 25 -1 40h87q47 0 103 -10v80q-29 -4 -47 -5q-15 -1 -48 -1h-99l-2 14l240 129q-42 33 -72 77q-59 -70 -194 -151q-36 73 -208 157q-21 -37 -72 -69q186 -35 234 -157h-75q-67 0 -103 8v-80q38 8 97 8h91q4 -29 4 -65h-14q-53 0 -83 6v-46q-54 50 -115 88
q-13 -33 -62 -64q104 -24 183 -127h-22q-72 1 -111 8v-81q60 10 113 10h56q21 -44 25 -58h-37q-68 0 -109 8v-81q43 9 109 10h51q5 -25 9 -62q1 -4 1 -6h-87q-72 0 -107 8v-79q47 8 111 8h85q6 -66 0 -116zM185 -12q114 29 111 36q-20 11 -32 40q-9 19 -20 49q-6 15 -10 24
h48q60 0 97 -8v88q-40 -8 -95 -8h-72q-60 164 -87 218h81v-93q-1 -49 -6 -76q51 0 104 10q0 1 -4 8q-18 34 -18 52v97q28 0 81 -7q7 -1 10 -1l-2 77q-38 -7 -89 -7v125l85 -20l-12 79q-38 -3 -71 2v129q3 69 12 105h-98q8 -33 10 -109v-115q-98 21 -154 44l-16 -102
q61 14 168 0v-137q-103 3 -146 16q-3 -44 -28 -87q43 6 101 -208q-61 1 -91 8v-88q5 1 15 2q53 6 76 6h22q31 -103 30 -149zM698 419h-103q-34 51 -63 79q47 6 65 6h95q28 0 60 -8q-22 -21 -54 -77z" />
</svg>
