<?xml version="1.0" standalone="no"?>
<!DOCTYPE svg PUBLIC "-//W3C//DTD SVG 1.1//EN" "http://www.w3.org/Graphics/SVG/1.1/DTD/svg11.dtd" >
<svg xmlns="http://www.w3.org/2000/svg" xmlns:xlink="http://www.w3.org/1999/xlink" version="1.1" viewBox="-10 0 1034 1024">
  <g transform="matrix(1 0 0 -1 0 820)">
   <path fill="currentColor"
d="M249 67q22 4 31 5l-1 -193q-1 -7 -2 -32q-3 -6 -3 -16h49q0 6 -1 9q-3 7 -4 33v207q21 6 115 21l35 6l4 39q1 6 3 12q-43 -15 -59 -18q-51 -12 -98 -20v144q94 0 110 -2q12 0 25 -3v46q-33 -1 -65 -5h-70q0 121 3 128q1 12 11 25h-58q3 -9 3 -15q1 -27 3 -41v-97h-140
q61 144 95 261l197 -1q6 0 39 -4v46q-15 -3 -36 -4l-188 -1q3 19 7 29q21 93 26 100q3 7 23 33q-33 4 -60 13l-13 -83q-9 -39 -24 -92q-97 0 -124 2q-3 1 -20 3v-46q30 4 51 5h83q-28 -93 -63 -181q-27 -61 -49 -83q3 -7 7 -12q6 -9 16 -28q19 6 36 6l137 1v-151l-146 -22
q-45 -4 -83 -7q9 -24 17 -54q7 1 16 4q102 24 123 27q19 4 42 6zM812 -105q-1 -24 -3 -50q-1 -3 -2 -16h48q-1 4 -1 9q-3 7 -4 33v107l125 11l5 33q6 12 6 17q-21 -7 -39 -12q-30 -4 -97 -12v390q51 0 107 -3q1 0 11 -2v46q-31 -1 -64 -5l-477 5v-46q6 3 36 4l78 1v-413
q-84 -6 -110 -6q-7 1 -16 2q4 -18 8 -51l102 13q285 25 287 25v-80zM812 13q-37 -4 -65 -7l-140 -11q-12 0 -28 -1v123h233v-104zM579 153v108h233v-108h-233zM579 297v108h233v-108h-233zM533 569l-6 -62q31 3 64 5l238 -1l49 -4q-4 49 -5 74q0 91 2 104q0 18 3 38
q-21 -1 -35 -2q-24 -3 -33 -3l-240 1q-15 3 -43 4q6 -63 6 -94v-60zM570 548v134h265v-134h-265z" />
  </g>

</svg>
