<?xml version="1.0" standalone="no"?>
<!DOCTYPE svg PUBLIC "-//W3C//DTD SVG 1.1//EN" "http://www.w3.org/Graphics/SVG/1.1/DTD/svg11.dtd" >
<svg xmlns="http://www.w3.org/2000/svg" xmlns:xlink="http://www.w3.org/1999/xlink" version="1.1" viewBox="-10 0 1010 1000">
   <path fill="currentColor"
d="M183 -2q108 22 109 32q0 3 -8 8q-20 15 -30 36q-8 15 -24 53q-7 17 -8 20h38q87 -4 117 -10v86q-48 -8 -109 -8h-64q-7 17 -31 76q-44 112 -54 132h97v-67q1 -10 -2 -52q-3 -37 -6 -42q95 5 102 14q0 2 -4 8q-16 26 -22 74v65q59 0 97 -8v87q-38 -8 -97 -8v112
q13 0 70 -11q22 -5 33 -7l-18 77q-20 3 -63 10q-15 3 -22 4v101q1 93 8 117h-84q3 -5 6 -46q3 -44 2 -61v-101q-101 19 -160 40l-18 -110q67 11 178 -2v-123h-91q-40 0 -73 8l-16 -91q41 -25 95 -196q-48 -1 -87 8v-86q54 9 105 10q27 -75 34 -149zM411 46q15 3 55 6
q39 3 46 2h305q64 0 106 -8q-8 35 -8 85v60q0 49 8 83q-9 -3 -43 -6q-33 -3 -45 -2h-33v80h33q48 1 96 -8v83q-40 -8 -94 -8h-35v83h39q64 0 109 -8v84q-44 -8 -111 -8h-103q15 70 32 107q36 -26 85 -87q68 38 80 55q0 2 -9 5q-53 21 -126 79q65 69 172 101q-13 9 -30 21
q-32 19 -57 52q-177 -90 -216 -333h-62v208q-6 4 0 1q20 -13 74 -62l17 77q-158 120 -152 127l-50 -79q44 -27 46 -88v-184h-50q-23 220 -117 327q-29 -31 -77 -41q146 -83 123 -622v-91q0 -52 -8 -91zM492 117v86h355v-86h-355zM579 266h-87v80h87v-80zM647 266v80h87v-80
h-87zM647 413v83h87v-83h-87zM579 413h-87v83h87v-83z" />
</svg>
