<?xml version="1.0" standalone="no"?>
<!DOCTYPE svg PUBLIC "-//W3C//DTD SVG 1.1//EN" "http://www.w3.org/Graphics/SVG/1.1/DTD/svg11.dtd" >
<svg xmlns="http://www.w3.org/2000/svg" xmlns:xlink="http://www.w3.org/1999/xlink" version="1.1" viewBox="-10 0 1034 1024">
  <g transform="matrix(1 0 0 -1 0 820)">
   <path fill="currentColor"
d="M54 65q0 -3 7 -17l55 21q15 4 25 9q72 27 81 28q3 0 11 4l-1 -237q-1 -4 -1 -8q-1 -12 -3 -26h48q-3 16 -5 65v218q19 7 40 14q30 10 60 19q15 4 35 13q0 3 5 54q-49 -27 -108 -47l-32 -12v145l78 -1q4 0 38 -4v46q-43 -4 -79 -5h-37v61q0 19 3 35q1 15 11 31h-57
q4 -45 5 -82v-45h-114q54 106 101 232l124 -1q9 0 49 -5v48q-9 -3 -15 -4q-57 -3 -103 -3h-46q4 15 9 32q6 24 14 47q3 15 12 29q9 15 25 28q-48 12 -61 19q-6 -31 -11 -52l-29 -103l-117 3q-3 1 -13 4v-48q6 3 18 3q48 3 99 3h4q-31 -87 -62 -152q-22 -48 -33 -61
q-10 -13 -29 -20q12 -30 16 -44q36 9 59 9h103v-156q-108 -37 -192 -56q3 -3 11 -23q0 -3 2 -8zM534 -61q0 -18 -8 -34q-6 -12 -22 -25q15 -25 26 -43q27 18 104 63l89 51q-3 27 -4 30q0 9 1 25q-27 -24 -47 -38q-24 -15 -73 -42l-29 -17v217l62 78q162 0 175 -2l39 -4
q-4 49 -5 77q0 76 2 87q0 18 3 35q-60 -4 -80 -5l-260 1q-15 3 -44 4q1 -30 5 -61q0 -78 -2 -104q-3 -3 -3 -34q60 6 88 6h31q-19 -30 -46 -61q-54 -60 -72 -76q-96 -78 -156 -95q28 -16 46 -35q52 33 87 60q36 30 93 83v-141zM506 240v116h298v-116h-298zM633 507
q-252 3 -264 5v-47q30 6 60 6l480 -1q19 0 38 -5v47q-31 -1 -64 -5h-212v114l188 -1q6 0 38 -4v46q-31 -1 -64 -5h-162q0 78 3 85q1 12 10 23h-56q4 -42 5 -79v-29l-162 1q-21 3 -20 2q-4 0 -14 2v-46q3 0 7 1q0 3 120 4h69v-114zM852 97q30 34 41 43q9 7 31 19
q-30 21 -46 37q-58 -84 -107 -135q-19 28 -37 61q-15 33 -17 66l-26 -12q-12 -4 -25 -7q46 -106 108 -179q22 -27 75 -68q55 -42 90 -59q9 9 12 15q12 19 30 32q-39 7 -85 35q-70 45 -102 87l37 43q9 12 21 22v0z" />
  </g>

</svg>
