<?xml version="1.0" standalone="no"?>
<!DOCTYPE svg PUBLIC "-//W3C//DTD SVG 1.1//EN" "http://www.w3.org/Graphics/SVG/1.1/DTD/svg11.dtd" >
<svg xmlns="http://www.w3.org/2000/svg" xmlns:xlink="http://www.w3.org/1999/xlink" version="1.1" viewBox="-10 0 1034 1024">
  <g transform="matrix(1 0 0 -1 0 820)">
   <path fill="currentColor"
d="M260 277v-160q-24 -9 -46 -17l-108 -32q-15 -4 -43 -9q1 -6 5 -14q9 -27 12 -39q45 19 95 39q28 10 59 20q6 1 13 5q4 0 13 5l-1 -211q-3 -12 -4 -35h48q-3 21 -5 66v194q10 4 21 8q19 7 40 13q28 9 55 21q0 7 -1 17q0 7 4 36q-43 -24 -67 -34q-12 -3 -52 -20v147
q84 0 99 -2l25 -3v46q-43 -4 -81 -5h-43v103q0 18 3 34q1 18 11 31h-57q4 -45 5 -85v-83h-128q37 73 70 146q15 37 32 73q4 16 13 29h113q24 0 52 -3l13 -2v46q-33 -1 -65 -5h-103q4 10 8 24l26 62q15 42 40 61q-27 3 -62 21q0 -6 -16 -62q-3 -6 -39 -106q-130 3 -142 5v-46
q60 6 108 5h21q-15 -45 -31 -80q-15 -36 -39 -85q-19 -40 -32 -56q-10 -12 -34 -27q12 -24 19 -45q54 9 74 9h102zM355 -135q9 0 23 -8q4 -1 10 -6q57 73 80 183q15 81 18 224h73v-330q0 -40 -21 -59l25 -41q0 3 57 52q18 18 53 46q13 12 28 22l12 12q-10 21 -14 45
q-27 -30 -48 -48q-36 -27 -54 -45v163l98 -3q3 0 11 -2v46q-43 -4 -80 -5h-29v147h143v-331q0 -24 3 -36q3 -21 22 -30t84 -9q66 0 90 22q16 18 33 73q3 9 6 20q-31 15 -47 26q-1 -54 -11 -74q-15 -27 -64 -27q-34 0 -60 5q-7 1 -10 4q-9 9 -9 32v134l104 34q42 12 54 13
q6 1 20 1q0 1 -25 58q-40 -25 -153 -67v152l110 -1l49 -4q-4 24 -5 63l1 115l4 48q-66 -4 -100 -5h-50v127l131 -1q4 0 38 -4v47q-7 0 -15 -3q-24 -3 -96 -3h-130q15 22 32 36q-28 27 -53 47l-63 49q-15 -16 -32 -34q30 -18 56 -42q36 -30 52 -56l-213 1q-15 3 -27 3
q-6 0 -23 2q1 -24 2 -39q3 -24 3 -73l-2 -321q-1 -10 -2 -23q-3 -73 -8 -109q-1 -4 -2 -11q-12 -69 -35 -115q-21 -43 -64 -82q9 -1 20 -5zM486 294v144h115v-144h-115zM486 474v127h115v-127h-115zM638 294v144h110v-144h-110zM638 474v127h110v-127h-110zM786 294v144h107
v-144h-107z" />
  </g>

</svg>
