<?xml version="1.0" standalone="no"?>
<!DOCTYPE svg PUBLIC "-//W3C//DTD SVG 1.1//EN" "http://www.w3.org/Graphics/SVG/1.1/DTD/svg11.dtd" >
<svg xmlns="http://www.w3.org/2000/svg" xmlns:xlink="http://www.w3.org/1999/xlink" version="1.1" viewBox="-10 0 1010 1000">
   <path fill="currentColor"
d="M192 -10q122 18 108 26l-4 4q-25 16 -58 123h48q77 -1 103 -6v82q-32 -8 -109 -8h-64q-38 124 -75 216h83v-75q0 -18 -8 -90q14 1 37 3q62 4 57 13q0 2 -3 9q-11 26 -11 57v85q59 -1 83 -6v73q-4 0 -13 -1q-37 -5 -70 -5v114q56 -6 81 -16q-13 55 -12 79q-41 0 -69 6v119
q1 75 6 119h-84q0 -9 2 -36q4 -52 4 -87v-107q-9 2 -32 6q-103 20 -134 30q-1 -40 -20 -92q101 0 186 -13v-122h-69q-48 4 -92 14q-6 -36 -21 -85q45 7 105 -206q-68 0 -99 6v-82q36 6 115 6q19 -65 29 -153zM692 -4q18 59 38 116h101q87 0 109 -6v79q-36 -7 -109 -8h-65
v105h55q31 0 91 -7q7 -1 9 -1q-5 40 -6 91v44q1 73 6 109q-13 -3 -60 -4q-25 -1 -34 -2h-61v117q50 -18 117 -47q10 19 30 50q19 29 14 27h-7q-35 -5 -154 24v71q-4 72 46 64q34 1 42 -19q11 -20 9 -86q30 43 85 57q-19 84 -41 101q-22 23 -90 20q-86 0 -98 -16
q-20 -14 -19 -87v-276h-99v103q52 0 82 -7v69q-38 -9 -82 -6v111q3 -1 12 -6q30 -16 54 -28q-5 32 1 70q1 3 1 4q-62 23 -133 75q-14 -51 -32 -73q31 -4 30 -58v-254h-54q-5 261 -87 401q-38 -36 -83 -46q77 -67 92 -211q20 -150 5 -552q61 9 141 9h101q-30 -65 -58 -101z
M625 177v105h77v-105h-77zM480 177v105h82v-105h-82zM480 338v115h82v-115h-82zM702 338h-77v115h77v-115zM766 338v115h81v-115h-81z" />
</svg>
