<?xml version="1.0" standalone="no"?>
<!DOCTYPE svg PUBLIC "-//W3C//DTD SVG 1.1//EN" "http://www.w3.org/Graphics/SVG/1.1/DTD/svg11.dtd" >
<svg xmlns="http://www.w3.org/2000/svg" xmlns:xlink="http://www.w3.org/1999/xlink" version="1.1" viewBox="-10 0 1010 1000">
   <path fill="currentColor"
d="M712 -12q21 56 34 120h91q54 1 94 -8v83q-29 -9 -98 -8h-230q-67 -1 -113 8v-83q38 9 103 8h74q-17 -60 -46 -106zM427 34q1 1 2 3q23 33 39 61q19 27 -15 20q-21 -3 -32 -1q-12 2 -59 8q-41 5 -60 8v131h59q26 0 82 -4q23 -2 27 -2v86q-47 -6 -109 -6h-59v129
q98 1 136 -8q-8 48 -7 103v176q0 55 1 79q2 27 6 41h-89q6 -54 6 -86h-188q0 39 8 109h-90q5 -18 6 -47q1 -14 2 -32v-46v-190q1 -64 -8 -105q28 5 62 6q17 1 36 2h47v-137h-81q-75 -1 -111 8v-84q32 9 105 8h87v-125q-13 2 -47 5q-57 6 -94 11q-11 -40 -36 -69q-3 -4 -5 -6
q209 3 379 -46zM790 203l93 41q-23 30 -77 110q-15 22 -22 33h73q78 1 105 -8v84q-32 -9 -109 -8h-123v149h119q25 0 41 -1q18 -1 45 -5v81q-33 -9 -90 -8h-115v125q0 78 10 113h-93q5 -18 7 -44q0 -12 1 -29v-44v-121h-86q-65 -1 -101 8v-83q36 9 95 8h92v-149h-93
q-73 -1 -110 8v-84q35 9 119 8h143q39 -69 76 -184zM599 207q31 36 70 123l-76 30q-17 -66 -63 -122zM169 528v185h186v-185h-186z" />
</svg>
