<?xml version="1.0" standalone="no"?>
<!DOCTYPE svg PUBLIC "-//W3C//DTD SVG 1.1//EN" "http://www.w3.org/Graphics/SVG/1.1/DTD/svg11.dtd" >
<svg xmlns="http://www.w3.org/2000/svg" xmlns:xlink="http://www.w3.org/1999/xlink" version="1.1" viewBox="-10 0 1010 1000">
   <path fill="currentColor"
d="M724 -6q20 50 32 118h59q57 0 109 -7q9 -1 11 -1v85q-3 0 -13 -1q-48 -7 -105 -7h-214q-55 0 -105 7q-11 1 -14 1v-83q3 0 17 1q55 6 98 6h76q-15 -47 -46 -105zM224 66h105q92 0 117 -8q-8 32 -8 113v93q0 75 6 101q-35 -5 -105 -5h-145q-1 8 -4 26q-8 44 -13 73
q2 0 8 1q36 7 75 7h93q50 0 84 -6q13 1 11 10q0 3 -2 11q-6 41 -6 80v155q0 88 8 125h-85q6 -27 6 -68h-129q-1 73 6 105h-85q8 -62 8 -142v-252q-32 119 -90 214q-27 -43 -65 -70q69 -82 95 -231q26 -151 4 -338q24 6 111 6zM198 133v159h165v-159h-165zM780 217
q102 20 105 31q0 5 -10 13q-16 13 -24 27q-10 17 -29 55q-20 42 -34 68h43q50 0 100 -7q11 -1 13 -1v85q-2 0 -10 -1q-43 -6 -101 -6h-89v134h77q51 0 97 -6q10 -1 13 -1v89q-1 0 -9 -1q-48 -7 -97 -7h-81v81q0 79 7 127q1 6 1 8h-93q0 -2 1 -9q7 -49 7 -126v-83h-54
q-51 0 -103 7q-10 1 -12 1v-87q1 0 8 1q48 6 105 6h56v-134h-58q-65 0 -115 6q-11 1 -14 1v-85q2 0 14 1q64 7 115 7h103q36 -53 68 -194zM611 221q31 55 54 139l-78 17q-11 -56 -53 -135zM240 534v177h129v-177h-129z" />
</svg>
