<?xml version="1.0" standalone="no"?>
<!DOCTYPE svg PUBLIC "-//W3C//DTD SVG 1.1//EN" "http://www.w3.org/Graphics/SVG/1.1/DTD/svg11.dtd" >
<svg xmlns="http://www.w3.org/2000/svg" xmlns:xlink="http://www.w3.org/1999/xlink" version="1.1" viewBox="-10 0 1034 1024">
  <g transform="matrix(1 0 0 -1 0 820)">
   <path fill="currentColor"
d="M121 147l-53 4q-4 1 -7 1v-45q30 3 60 5h375v-96l-361 4q-3 1 -5 1v-45q49 4 80 5h286v-85q0 -42 -6 -58h50q-6 24 -6 37v106h295q25 0 63 -5v45q-6 0 -16 -3q-18 -1 -87 -2h-255v96h366q25 0 63 -5v45q-24 -4 -63 -5h-247q34 49 52 66q15 16 44 28q-21 10 -37 22h100
q28 0 64 -5v45q-33 -4 -64 -5h-251q6 10 13 19q3 3 8 10q-40 25 -101 61h276q4 0 26 -3q6 0 25 -2q-4 19 -5 51q0 84 2 94q0 15 3 30q-25 -1 -51 -5h-226v65l381 -1q18 -1 36 -5v46q-3 0 -9 -1q-3 -1 -8 -3q-24 0 -46 -2h-354q0 43 3 55q0 13 9 32q0 4 2 6h-57q1 -12 2 -14
q3 -12 4 -54v-25l-404 2q-7 3 -14 4v-46q10 0 19 4q22 0 42 2h357v-65l-248 1q-15 3 -38 4q1 -24 5 -49l-1 -90q-3 -12 -4 -36q25 3 53 5h205q-6 -10 -14 -21q-3 -3 -6 -7q48 -15 104 -62l-362 1q-19 3 -26 4v-45q49 4 80 5h80q-12 -12 -26 -25q70 -61 92 -91h-267zM250 423
v95h515v-95h-515zM399 147q7 9 14 17l8 8l-16 16q-6 9 -47 46q-13 15 -28 29h351q-27 -52 -76 -116h-206z" />
  </g>

</svg>
