<?xml version="1.0" standalone="no"?>
<!DOCTYPE svg PUBLIC "-//W3C//DTD SVG 1.1//EN" "http://www.w3.org/Graphics/SVG/1.1/DTD/svg11.dtd" >
<svg xmlns="http://www.w3.org/2000/svg" xmlns:xlink="http://www.w3.org/1999/xlink" version="1.1" viewBox="-10 0 1010 1000">
   <path fill="currentColor"
d="M617 -12q93 1 103 10q-21 23 -20 143h151q48 0 103 -10v88q-55 -10 -101 -10h-153v83h119q30 0 80 -8q-8 31 -8 68v121q2 35 8 73q-39 -6 -78 -8h-61q56 159 202 230q-44 34 -67 70q-152 -108 -195 -300v260q2 52 12 111h-91q6 -23 6 -115v-254q-72 194 -214 323
q-57 -42 -90 -55q170 -88 233 -270h-32q-39 0 -82 6q8 -44 8 -75v-115q-1 -43 -6 -70q4 1 12 2q43 6 60 6h111v-87h-109q-57 0 -103 8v-82q58 8 101 8h113q0 -86 -12 -151zM268 8q7 27 26 84l6 18l-94 19q-6 -53 -27 -103zM397 137v84q-7 -1 -19 -2q-54 -6 -80 -6h-133
q-69 1 -107 8v-84q62 7 105 8h137q20 0 65 -5q21 -2 32 -3zM288 242q88 21 99 26q0 1 -6 6q-16 14 -22 28q-10 22 -25 57q-21 47 -30 62h19q35 0 88 -10v79q-56 -7 -88 -7h-51q0 61 -4 99h38q35 0 101 -8v83q-48 -8 -101 -8h-44q-20 151 -135 236q-40 -42 -85 -53
q114 -46 148 -183h-27q-38 0 -103 8v-83q50 8 101 8h35q4 -33 4 -97h-49q-48 0 -103 7v-79q54 7 101 8h97q31 -80 42 -179zM183 254q4 17 10 45q9 48 19 78l-81 14q0 -57 -28 -127zM524 354v123h103v-123h-103zM819 354h-119v123h119v-123z" />
</svg>
