<?xml version="1.0" standalone="no"?>
<!DOCTYPE svg PUBLIC "-//W3C//DTD SVG 1.1//EN" "http://www.w3.org/Graphics/SVG/1.1/DTD/svg11.dtd" >
<svg xmlns="http://www.w3.org/2000/svg" xmlns:xlink="http://www.w3.org/1999/xlink" version="1.1" viewBox="-10 0 1010 1000">
   <path fill="currentColor"
d="M772 -10q21 62 28 131q62 0 111 -7q8 -1 10 -1v82q-1 0 -7 -1q-44 -7 -108 -7h-92q-52 0 -108 7q-12 1 -15 1v-82q3 0 17 2q54 6 104 6h12q-16 -71 -41 -115zM238 0q25 48 42 135h12q41 0 82 -7q9 -1 11 -1v84q-1 0 -8 -1q-43 -7 -89 -7h-115q-52 0 -99 7q-9 1 -11 1v-84
q3 0 16 2q49 6 92 6h31q-19 -61 -49 -109zM488 28q37 86 56 181l-84 18q-17 -111 -49 -179zM812 211q81 20 87 33q0 2 -5 6q-36 33 -69 139h18q56 0 98 -7q6 -1 7 -1v78q-1 0 -7 -1q-43 -7 -102 -7h-45v123h23q53 0 76 -2q23 -1 42 -6v79q-22 -9 -120 -8h-21v139q0 67 9 114
q1 7 1 9h-90q0 -3 1 -14q7 -55 7 -109v-139h-20q-64 0 -105 6v-77q57 8 103 8h22v-123h-24q-52 0 -104 7q-8 1 -9 1v-78q2 0 12 1q51 7 101 7h64q32 -84 50 -178zM694 217q23 55 38 133l-69 15q-10 -66 -38 -134zM280 223q77 22 85 31q-1 4 -9 12q-12 12 -19 24
q-12 21 -49 100q-4 9 -6 13h12q47 0 85 -7q5 -1 6 -1v78q-1 0 -6 -1q-41 -7 -83 -7h-30v113h16q50 0 86 -7q7 -1 9 -1v79q-2 0 -10 -1q-39 -7 -85 -7h-18q-13 167 -117 266q-33 -33 -91 -44q124 -68 134 -222h-25q-50 0 -95 7q-8 1 -10 1v-79q2 0 13 1q54 7 92 7h29v-113
h-31q-47 0 -94 7q-11 1 -13 1v-78q2 0 14 1q57 7 95 7h57q35 -70 58 -180zM173 242q16 51 25 123l-71 6q-7 -56 -28 -123zM589 651l38 64q-97 73 -148 129q-10 11 -13 12l-43 -74l2 -2q25 17 35 -411q-33 0 -75 7q-8 1 -10 1v-83q2 0 11 2q35 6 68 6q60 -1 86 -8
q-8 139 -20 423z" />
</svg>
