<?xml version="1.0" standalone="no"?>
<!DOCTYPE svg PUBLIC "-//W3C//DTD SVG 1.1//EN" "http://www.w3.org/Graphics/SVG/1.1/DTD/svg11.dtd" >
<svg xmlns="http://www.w3.org/2000/svg" xmlns:xlink="http://www.w3.org/1999/xlink" version="1.1" viewBox="-10 0 1034 1024">
  <g transform="matrix(1 0 0 -1 0 820)">
   <path fill="currentColor"
d="M364 303v-354q0 -39 -23 -52q9 -15 16 -34q0 -3 7 -16q36 34 97 75l77 49l62 31q-1 25 -2 51q-33 -24 -61 -42q-30 -19 -94 -57l-41 -24v373h128l54 -110q39 -70 101 -133q57 -58 138 -110l111 -65q19 24 50 48q-76 12 -154 59q-88 58 -124 102q36 33 70 67q34 33 46 40
q12 9 39 13q-21 13 -51 44q-13 -22 -43 -56q-33 -33 -86 -82q-39 49 -59 83q-22 36 -51 100h297q21 0 44 -2q3 0 13 -3v46q-9 0 -11 -2q-4 0 -8 -1q-21 0 -38 -2h-635v331q645 0 655 -3q3 0 8 -2v46q-4 0 -7 -1q-4 0 -6 -1q-42 0 -83 -3l-566 1q-1 0 -44 4q1 -30 5 -62
l-1 -327l-11 -143q-15 -114 -71 -203q-21 -34 -60 -70q31 -12 42 -20l7 -5q57 87 86 161q18 49 29 101q9 60 16 160h132zM823 538q-4 0 -8 -1q-3 0 -4 -1q-4 0 -8 -1l-112 -3l-323 1l-20 3q-4 0 -12 2v-47q15 4 28 5l401 1q39 0 50 -3q1 0 8 -3v47z" />
  </g>

</svg>
