<?xml version="1.0" standalone="no"?>
<!DOCTYPE svg PUBLIC "-//W3C//DTD SVG 1.1//EN" "http://www.w3.org/Graphics/SVG/1.1/DTD/svg11.dtd" >
<svg xmlns="http://www.w3.org/2000/svg" xmlns:xlink="http://www.w3.org/1999/xlink" version="1.1" viewBox="-10 0 1010 1000">
   <path fill="currentColor"
d="M177 22q7 7 24 23q84 79 114 116l-69 60q-48 -72 -133 -145zM42 342q21 2 44 3q20 1 63 1h14q59 0 101 -6q-6 40 -6 109v234q65 97 188 109q60 7 219 5q162 -3 287 -13q-36 33 -41 85q-30 -1 -123 0q-343 4 -403 -15q-74 -21 -137 -89q-22 -24 -30 -23q-35 4 -119 131
q-26 -41 -65 -79q58 -36 153 -109v-270h-46q-48 0 -65 1q-22 1 -34 3v-77z" />
</svg>
