<?xml version="1.0" standalone="no"?>
<!DOCTYPE svg PUBLIC "-//W3C//DTD SVG 1.1//EN" "http://www.w3.org/Graphics/SVG/1.1/DTD/svg11.dtd" >
<svg xmlns="http://www.w3.org/2000/svg" xmlns:xlink="http://www.w3.org/1999/xlink" version="1.1" viewBox="-10 0 1010 1000">
   <path fill="currentColor"
d="M214 32q67 119 92 195l-100 35q-32 -106 -81 -192zM907 68v99q-48 -6 -168 95q-32 26 -51 40q0 31 2 128q6 213 -2 245q-12 46 -172 56q-11 -60 -40 -104q120 16 125 -12q8 -12 7 -90t-11 -257q63 -31 177 -115h-252q-82 0 -157 8v-91q12 1 34 2q83 6 111 6h254
q80 0 143 -10zM56 336q46 8 93 8h36q53 0 109 -4q-20 54 -20 103v246q167 88 339 83q224 -6 325 -24q-30 36 -49 108q-564 6 -599 -76q-40 -22 -60 -16q-52 14 -105 101l-81 -69q39 -32 124 -86q13 -9 19 -13v-274h-38q-46 0 -93 8v-95z" />
</svg>
