<?xml version="1.0" standalone="no"?>
<!DOCTYPE svg PUBLIC "-//W3C//DTD SVG 1.1//EN" "http://www.w3.org/Graphics/SVG/1.1/DTD/svg11.dtd" >
<svg xmlns="http://www.w3.org/2000/svg" xmlns:xlink="http://www.w3.org/1999/xlink" version="1.1" viewBox="-10 0 1010 1000">
   <path fill="currentColor"
d="M571 -6q96 2 106 14q0 5 -9 20q-13 23 -13 36q0 35 -1 94q-1 41 -1 59h123q71 0 123 -9q7 -1 8 -1v87q-3 0 -13 -1q-46 -7 -116 -7h-127q-14 286 -262 429q-30 -45 -89 -70q261 -85 273 -359h-105q-65 0 -124 7q-8 1 -9 1v-85q4 0 21 2q60 6 112 6h107v-169
q-1 -30 -4 -54zM190 36q7 10 19 27q62 87 89 144l-80 45q-40 -92 -105 -174zM266 441v264q125 79 252 90q132 15 430 -17l-39 105h-81q-329 2 -431 -35q-29 -10 -92 -43q-57 -30 -71 -31q-29 -3 -97 95q-11 16 -12 16l-71 -67q26 -25 106 -88l27 -21v-286h-26q-50 0 -95 6
q-12 2 -16 2v-91q2 0 13 1q53 7 100 7h12q72 0 97 -6q-6 19 -6 99zM708 421q67 58 187 220l-78 60q-78 -132 -176 -232z" />
</svg>
