<?xml version="1.0" standalone="no"?>
<!DOCTYPE svg PUBLIC "-//W3C//DTD SVG 1.1//EN" "http://www.w3.org/Graphics/SVG/1.1/DTD/svg11.dtd" >
<svg xmlns="http://www.w3.org/2000/svg" xmlns:xlink="http://www.w3.org/1999/xlink" version="1.1" viewBox="-10 0 1034 1024">
  <g transform="matrix(1 0 0 -1 0 820)">
   <path fill="currentColor"
d="M125 390h-11q-9 0 -59 5v-48q69 6 87 6h70v-331q-33 -12 -47 -22q-16 -9 -59 -49l-42 -37q27 -18 45 -39q6 18 17 31q24 36 50 55q31 27 65 27q18 0 37 -8l80 -40q61 -30 172 -37q48 -3 133 -4l287 -1q4 21 10 31l12 27q-30 -7 -50 -11q-28 -3 -72 -4l-100 -2l-141 1
q-63 0 -108 4q-82 6 -154 42q-39 19 -56 29q-6 3 -14 6q-15 4 -28 8l1 312l4 54q-30 -1 -61 -5h-68zM108 680q36 -18 86 -59q7 -6 51 -49q9 -9 20 -23q13 21 32 39q-33 30 -69 58l-67 54l-20 15q-10 -15 -33 -35zM882 679q-75 -3 -111 -4l-370 1q-10 1 -25 2q-1 0 -18 2v-46
q12 0 18 2q24 1 51 3h401q-39 -49 -79 -90q-27 -27 -49 -46q-21 -18 -55 -43v-334q0 -36 -17 -47q-22 -9 -72 -10q-19 0 -52 3q12 -24 21 -50l73 7q40 4 59 17q27 18 27 85v307q37 30 62 54q24 24 57 60q34 36 57 64q21 25 50 64q-15 0 -28 -1v0z" />
  </g>

</svg>
