<?xml version="1.0" standalone="no"?>
<!DOCTYPE svg PUBLIC "-//W3C//DTD SVG 1.1//EN" "http://www.w3.org/Graphics/SVG/1.1/DTD/svg11.dtd" >
<svg xmlns="http://www.w3.org/2000/svg" xmlns:xlink="http://www.w3.org/1999/xlink" version="1.1" viewBox="-10 0 1010 1000">
   <path fill="currentColor"
d="M536 8q117 3 119 14q1 7 -7 18q-15 22 -17 46q-2 32 -3 78q0 30 -1 47h129q91 0 121 -6q-3 40 -7 115q-19 337 -37 351q-20 39 -164 54q-19 -57 -42 -92q-7 -10 -4 -12q119 16 133 -19q9 -17 32 -294q1 -18 2 -26h-167q-17 288 -204 439q-46 -30 -89 -46q-14 -5 -11 -8
q198 -100 221 -385h-72q-58 -1 -103 8v-89q36 9 101 10h78q5 -97 -8 -203zM232 46q54 96 89 183l-99 33q-21 -95 -83 -180zM79 330q48 12 98 12h99v361q16 7 44 22q101 66 311 63q184 -2 323 -28q5 2 -4 16q-26 42 -45 95q-232 5 -323 0q-110 -4 -171 -21q-48 -13 -122 -57
q-45 -27 -57 -27q-41 -4 -99 99l-89 -71q30 -22 80 -56q51 -34 76 -53v-272h-25q-48 -1 -96 8v-91z" />
</svg>
