<?xml version="1.0" standalone="no"?>
<!DOCTYPE svg PUBLIC "-//W3C//DTD SVG 1.1//EN" "http://www.w3.org/Graphics/SVG/1.1/DTD/svg11.dtd" >
<svg xmlns="http://www.w3.org/2000/svg" xmlns:xlink="http://www.w3.org/1999/xlink" version="1.1" viewBox="-10 0 1034 1024">
  <g transform="matrix(1 0 0 -1 0 820)">
   <path fill="currentColor"
d="M120 418q-36 0 -69 5v-46q31 4 69 5h92v-343q-36 -12 -60 -29q-24 -15 -84 -65l18 -16q6 -4 20 -23q10 16 27 33q30 31 39 38q33 24 61 25q31 0 75 -23l64 -38q36 -21 96 -39q51 -15 98 -22q48 -6 118 -6q36 0 271 9q0 13 7 30l9 29q-31 -7 -55 -12q-81 -10 -222 -11
q-120 0 -197 18q-76 16 -151 61q-49 28 -55 31q-33 9 -40 13l1 333l4 48q-30 -1 -60 -5h-76zM170 726q-18 -15 -36 -33q60 -46 86 -74q30 -30 61 -73q19 16 36 35q-42 43 -77 78zM626 382l-267 3q-6 1 -14 2v-46q15 1 18 2q25 1 52 3h211v-276q0 -30 -18 -36q-18 -4 -64 -5
l-38 1q10 -22 19 -50q91 9 117 22q22 12 23 51v293h221q24 0 48 -3q3 0 16 -2v46q-39 -4 -64 -5h-221v276h161q24 0 48 -4q3 0 15 -2v48q-12 -3 -15 -4q-30 -3 -48 -3h-373q-24 0 -52 3q-3 0 -18 4v-48q-3 0 9 1q3 0 9 1l52 4h173v-276z" />
  </g>

</svg>
