<?xml version="1.0" standalone="no"?>
<!DOCTYPE svg PUBLIC "-//W3C//DTD SVG 1.1//EN" "http://www.w3.org/Graphics/SVG/1.1/DTD/svg11.dtd" >
<svg xmlns="http://www.w3.org/2000/svg" xmlns:xlink="http://www.w3.org/1999/xlink" version="1.1" viewBox="-10 0 1034 1024">
  <g transform="matrix(1 0 0 -1 0 820)">
   <path fill="currentColor"
d="M251 388q-25 -1 -51 -5q-90 0 -118 2l-28 3v-46l44 4l118 1v-324q-48 -21 -70 -36q-15 -9 -56 -50q-13 -12 -27 -25q19 -13 37 -32q45 66 84 88q27 16 51 17q21 0 46 -14q19 -10 39 -23q21 -12 56 -27q45 -16 127 -22q144 -6 200 -6l258 -1q4 24 18 57q-33 -7 -67 -11
q-39 -3 -94 -4l-120 -1q-118 0 -216 6q-84 6 -139 39q-48 30 -68 36q-9 4 -20 9l1 311q1 27 5 54h-10zM210 670l-44 44q-18 -21 -33 -32q79 -55 149 -156l32 34zM821 708q-37 -1 -75 -5h-347q-19 0 -51 3q-3 0 -17 2v-46q49 6 110 5h48v-269q-88 0 -120 2l-25 3v-46
q-3 0 9 1l81 4h55q-3 -336 -5 -357h49q-1 15 -3 22q-3 51 -3 71v264h71q43 0 64 -5v46q-43 -4 -78 -5h-57v269h248l-32 -566l1 -30q4 -21 22 -37q27 -18 71 -18q51 0 79 20q30 24 50 103q-6 1 -8 4q-12 6 -34 20q-1 -15 -4 -29q-7 -43 -27 -62q-18 -15 -54 -16q-19 0 -34 7
q-24 12 -22 44q0 25 29 519z" />
  </g>

</svg>
