<?xml version="1.0" standalone="no"?>
<!DOCTYPE svg PUBLIC "-//W3C//DTD SVG 1.1//EN" "http://www.w3.org/Graphics/SVG/1.1/DTD/svg11.dtd" >
<svg xmlns="http://www.w3.org/2000/svg" xmlns:xlink="http://www.w3.org/1999/xlink" version="1.1" viewBox="-10 0 1010 1000">
   <path fill="currentColor"
d="M175 24q57 89 105 185l-90 37q-36 -108 -93 -182zM907 46v83q-34 -8 -129 -8v173h8q104 -1 141 -8v85q-33 -7 -141 -8h-8v280q5 47 -26 65q-29 19 -131 34q-9 -56 -48 -97q81 7 102 -5q21 -8 19 -56v-221h-27q-101 201 -310 332q-41 -46 -87 -62q179 -55 327 -270h-101
q-77 3 -135 18q-5 -25 -24 -69q45 -9 72 -66q16 -31 31 -91q91 30 88 36q0 1 -4 4q-14 12 -30 34q-7 9 -23 32q-14 24 -23 35h246v-173h-178q-143 1 -177 8v-83q58 5 173 6h252q108 -1 143 -8zM50 332q21 7 107 8q77 0 97 -4q-6 59 -6 139v224q8 4 27 13q139 71 271 72
q282 2 391 -12q-32 40 -42 99q-72 -3 -197 -7q-211 -5 -252 -14q-69 -12 -164 -61q-55 -29 -70 -25q-29 18 -97 107q-11 -14 -52 -49q-12 -10 -19 -16q42 -36 109 -91q12 -9 18 -14v-286q-88 1 -121 8v-91z" />
</svg>
