<?xml version="1.0" standalone="no"?>
<!DOCTYPE svg PUBLIC "-//W3C//DTD SVG 1.1//EN" "http://www.w3.org/Graphics/SVG/1.1/DTD/svg11.dtd" >
<svg xmlns="http://www.w3.org/2000/svg" xmlns:xlink="http://www.w3.org/1999/xlink" version="1.1" viewBox="-10 0 1034 1024">
  <g transform="matrix(1 0 0 -1 0 820)">
   <path fill="currentColor"
d="M155 393h-10q-7 0 -58 5v-46q31 4 68 5h78v-329q-45 -16 -86 -55q-21 -19 -41 -41l-20 -20q28 -18 44 -33q24 48 44 68q36 43 86 44q30 0 61 -16q28 -15 57 -31q33 -15 75 -28q46 -9 110 -15q70 -4 165 -5l247 5q9 30 26 63q-39 -12 -67 -18q-61 -10 -241 -11
q-153 0 -238 20q-28 9 -90 38q-27 13 -49 24l-46 16l1 313l4 52q-30 -1 -59 -5h-61zM185 710q-13 -15 -34 -32q55 -36 84 -69q33 -36 50 -55q9 -10 24 -31q13 21 31 34q-105 112 -155 153zM459 413q0 -204 -65 -307q-21 -33 -54 -58q39 -12 54 -20q36 54 64 127
q34 105 39 233h234l-5 -391h49l-4 48l-1 343l161 -1q19 0 38 -5v47q-16 -4 -63 -5h-409l2 215q63 3 141 11l131 17q84 13 101 14q15 0 33 -2q-28 31 -42 53q-45 -15 -82 -24q-34 -7 -73 -14q-46 -6 -105 -10q-55 -3 -97 -5q-18 0 -52 4q4 -49 5 -72v-198z" />
  </g>

</svg>
