<?xml version="1.0" standalone="no"?>
<!DOCTYPE svg PUBLIC "-//W3C//DTD SVG 1.1//EN" "http://www.w3.org/Graphics/SVG/1.1/DTD/svg11.dtd" >
<svg xmlns="http://www.w3.org/2000/svg" xmlns:xlink="http://www.w3.org/1999/xlink" version="1.1" viewBox="-10 0 1010 1000">
   <path fill="currentColor"
d="M835 28q29 38 56 87q-3 3 -19 1q-18 -2 -29 -1q-17 1 -80 6q-194 15 -285 14v117h270q30 0 109 -6q-23 183 -101 292q90 79 133 135l-77 60q-23 -55 -102 -137q-71 68 -194 139q-29 -33 -85 -64q127 -37 228 -127q-82 -82 -169 -139l75 -45q88 73 139 125q43 -74 60 -167
h-284q8 242 -117 407q-46 -27 -91 -34q134 -98 131 -381v-141q0 -45 -4 -99q211 11 436 -42zM210 34q31 61 72 189l-94 19q-22 -107 -67 -188zM268 324q-9 29 -10 73v310q108 94 432 79h70q68 1 190 -18q-26 39 -47 101q-267 0 -388 -10q-131 -11 -182 -37q-12 -6 -35 -20
q-66 -39 -90 -36q-12 0 -57 60q-20 27 -32 43l-67 -71q30 -31 129 -101v-298h-24q-42 -1 -95 8v-87q65 8 93 8h41q9 0 42 -2q19 -1 30 -2z" />
</svg>
