<?xml version="1.0" standalone="no"?>
<!DOCTYPE svg PUBLIC "-//W3C//DTD SVG 1.1//EN" "http://www.w3.org/Graphics/SVG/1.1/DTD/svg11.dtd" >
<svg xmlns="http://www.w3.org/2000/svg" xmlns:xlink="http://www.w3.org/1999/xlink" version="1.1" viewBox="-10 0 1034 1024">
  <g transform="matrix(1 0 0 -1 0 820)">
   <path fill="currentColor"
d="M243 412q-69 -3 -144 -3q-10 1 -31 4q-10 0 -18 2v-48q21 6 69 7h78v-349q-43 -24 -90 -59l-59 -46q27 -18 42 -34q33 39 50 53q51 46 93 47q24 0 60 -19q63 -36 84 -47q3 0 65 -22q51 -10 125 -12l386 2q4 21 10 31q6 13 11 29q-30 -7 -55 -11q-27 -3 -70 -4
q-54 -3 -129 -4l-130 -1q-76 0 -110 5q-70 12 -147 57q-36 22 -51 28q-9 3 -46 12l4 362q0 10 3 20zM272 561q9 12 19 24q-43 45 -74 75l-81 72q-15 -18 -35 -34q37 -24 78 -62q42 -39 83 -89q4 7 10 14zM502 421q-3 -114 -18 -172q-13 -54 -52 -103q-57 -69 -131 -83
q10 -9 23 -18q12 -9 24 -20q108 63 152 148q39 82 42 248h116v-325q0 -36 20 -53q22 -19 96 -20q49 0 76 9q37 15 56 59q6 13 25 79q-19 4 -48 21q-6 -51 -10 -65q-9 -28 -26 -47q-18 -13 -63 -14q-42 0 -63 5q-27 6 -27 36v315l181 -1q13 -1 29 -4v46q-19 -4 -64 -5l-469 1
q-6 0 -45 4v-46q34 4 70 5h106zM392 649q31 4 70 5q339 0 367 -3q3 0 13 -2v46q-31 -1 -63 -5l-345 1q-10 1 -23 2q-3 0 -19 2v-46z" />
  </g>

</svg>
