<?xml version="1.0" standalone="no"?>
<!DOCTYPE svg PUBLIC "-//W3C//DTD SVG 1.1//EN" "http://www.w3.org/Graphics/SVG/1.1/DTD/svg11.dtd" >
<svg xmlns="http://www.w3.org/2000/svg" xmlns:xlink="http://www.w3.org/1999/xlink" version="1.1" viewBox="-10 0 1010 1000">
   <path fill="currentColor"
d="M212 32q30 48 66 183l-97 23q-21 -116 -58 -184zM383 72q6 0 19 2q62 6 120 6h196q72 0 121 -8v83q-9 -1 -27 -2q-47 -4 -92 -4h-198q-78 0 -139 8v-85zM313 264q53 8 122 8h359q69 0 115 -8v88q-16 -6 -40 -8q-22 -2 -75 -2h-70v246q-6 46 52 39q35 0 46 -21
q12 -16 23 -88q40 40 82 50q-21 83 -42 107q-22 29 -68 28h-77q-69 1 -81 -15q-16 -12 -14 -84v-262h-91q-11 172 -45 233q-32 70 -146 150q-24 -36 -77 -64q187 -51 190 -319h-38q-76 0 -125 8v-86zM50 322q35 8 87 8h24q73 1 97 -8q-10 41 -10 101v278q113 60 180 68
q42 8 104 9q60 2 172 0q109 -4 244 -22q-37 52 -47 106q-136 2 -214 1q-86 0 -150 -4q-130 -7 -184 -27q-18 -6 -69 -34q-64 -34 -76 -34q-49 -1 -105 98l-73 -74q65 -56 135 -97v-286h-24q-61 0 -91 8v-91z" />
</svg>
