<?xml version="1.0" standalone="no"?>
<!DOCTYPE svg PUBLIC "-//W3C//DTD SVG 1.1//EN" "http://www.w3.org/Graphics/SVG/1.1/DTD/svg11.dtd" >
<svg xmlns="http://www.w3.org/2000/svg" xmlns:xlink="http://www.w3.org/1999/xlink" version="1.1" viewBox="-10 0 1010 1000">
   <path fill="currentColor"
d="M456 16q104 8 111 14q1 1 -3 5q-13 16 -16 39q-4 34 -4 113h129v-68q0 -77 -6 -101q107 9 109 14q0 3 -4 9q-10 14 -14 31q0 2 -1 8q-5 23 -5 41v66h28q15 0 109 -7q12 -1 16 -1v77q-36 -5 -119 -6h-34v159h36q94 -2 139 -8v80q-50 -6 -137 -8h-38v129q0 31 9 149
q1 10 1 13h-93q3 -48 4 -166v-125h-133q-19 181 -129 285q-43 -30 -98 -41q120 -71 145 -244h-20q-56 1 -138 6v-78q49 6 137 8h25q4 -22 4 -159h-18q-48 1 -125 6v-77q9 1 34 3q68 5 87 5h22q3 -82 -10 -171zM185 44q48 75 87 175l-97 31q-25 -85 -76 -172zM544 250
q0 24 -1 76q-1 55 -1 83h131v-159h-129zM56 330q104 11 192 0q-5 44 -6 143v248q103 64 282 77q187 14 411 -24q-35 43 -48 107h-50q-393 9 -482 -29q-37 -12 -89 -40q-52 -29 -72 -24q-33 4 -89 93l-75 -79q73 -46 129 -79v-312q-72 0 -103 6v-87z" />
</svg>
