<?xml version="1.0" standalone="no"?>
<!DOCTYPE svg PUBLIC "-//W3C//DTD SVG 1.1//EN" "http://www.w3.org/Graphics/SVG/1.1/DTD/svg11.dtd" >
<svg xmlns="http://www.w3.org/2000/svg" xmlns:xlink="http://www.w3.org/1999/xlink" version="1.1" viewBox="-10 0 1034 1024">
  <g transform="matrix(1 0 0 -1 0 820)">
   <path fill="currentColor"
d="M121 391h-10q-12 0 -41 3q-6 0 -18 3v-47q31 4 69 5h100v-332q-45 -12 -77 -37q-30 -21 -92 -85l27 -17q9 -4 19 -15q9 24 21 37q21 28 49 47q36 30 65 30q15 0 50 -16q103 -51 147 -63q69 -19 195 -20l328 3q4 18 12 33q6 13 13 29q-51 -12 -99 -16l-118 -5l-136 -2
q-100 0 -159 12q-73 15 -206 85l1 319l4 55q-72 -6 -96 -6h-48zM142 700q-13 -19 -33 -36q69 -42 154 -134q15 22 31 37l-74 68zM566 309l-214 1q-10 1 -22 2q-6 0 -19 3v-47q31 4 69 5h186l-5 -305h49l-4 47l-1 258h243q-4 -58 -12 -110q-4 -22 -13 -33q-18 -18 -74 -18
q-21 0 -49 2q12 -24 20 -48q39 3 64 6q18 3 36 9q39 15 50 49q9 34 22 185l-33 -3q-24 -3 -33 -3h-221v122h185q42 0 63 -6v47q-18 -4 -63 -5h-185v117l264 -1q12 0 33 -5v47q-19 -4 -64 -5h-233v88q0 36 15 63h-59l5 -104v-47l-200 1q-9 1 -22 2q-6 0 -18 2v-47q36 6 92 6
h148v-117l-160 1q-10 1 -23 2q-6 0 -19 2v-47q30 6 70 6h132v-122z" />
  </g>

</svg>
