<?xml version="1.0" standalone="no"?>
<!DOCTYPE svg PUBLIC "-//W3C//DTD SVG 1.1//EN" "http://www.w3.org/Graphics/SVG/1.1/DTD/svg11.dtd" >
<svg xmlns="http://www.w3.org/2000/svg" xmlns:xlink="http://www.w3.org/1999/xlink" version="1.1" viewBox="-10 0 1010 1000">
   <path fill="currentColor"
d="M653 113q25 3 67 4h107q37 0 70 -5q-2 9 -3 27q-1 15 -1 56v387q0 47 6 89q-25 -4 -74 -4h-89q-55 0 -85 6q6 -42 6 -89v-375q0 -54 -4 -96zM371 -10q104 0 103 14q0 1 -3 4q-16 15 -19 54l-6 103h80q43 -1 67 -4q-9 40 -20 286q-5 124 -8 161q-2 58 -27 73
q-21 20 -109 32q-1 -54 -34 -92q66 8 81 -1q18 -5 20 -44q6 -80 15 -248q4 -79 5 -99h-74q-4 311 -125 460q-71 -34 -79 -30q125 -109 135 -430h-28q-38 0 -59 4v-72q27 3 59 4h30q0 -133 -4 -175zM228 699q112 78 267 92q153 16 457 -19q-33 42 -41 97q-456 10 -554 -35
q-33 -15 -82 -43q-58 -34 -73 -29q-36 13 -95 105l-6 -6q-37 -36 -65 -55q10 -9 40 -35q73 -60 81 -72v-292h-50q-36 -1 -51 4v-75q26 4 57 4h48q45 0 75 -6q-8 26 -8 97v268zM728 183v419h97v-419h-97zM204 46q41 122 56 183l-87 19q-18 -101 -56 -184z" />
</svg>
