<?xml version="1.0" standalone="no"?>
<!DOCTYPE svg PUBLIC "-//W3C//DTD SVG 1.1//EN" "http://www.w3.org/Graphics/SVG/1.1/DTD/svg11.dtd" >
<svg xmlns="http://www.w3.org/2000/svg" xmlns:xlink="http://www.w3.org/1999/xlink" version="1.1" viewBox="-10 0 1010 1000">
   <path fill="currentColor"
d="M440 -23q107 34 100 41q-1 3 -8 7q-39 24 -74 94h316q67 0 153 -7v81q-42 -6 -153 -6h-220h-137q-10 15 -7 10q-41 63 -67 105q-35 -30 -71 -44q111 -116 168 -281zM181 44q37 87 63 183l-85 31q-21 -95 -62 -184zM569 215h29q70 -2 67 6q1 3 -5 11q-17 23 -17 58v44
l143 -36q17 -6 42 -14q25 -7 39 -12q-1 2 -1 5q-9 26 -11 81q-1 12 -2 38q-2 72 -4 87q-5 50 -29 67q-18 16 -110 38q-4 -50 -31 -96q99 18 95 -33q0 -33 6 -97l-135 33v145q0 52 8 85h-91l3 -18q6 -31 6 -65v-129l-111 32v167q-3 49 27 58q26 14 138 13q142 2 174 -19
q38 -17 48 -100q10 9 24 22q30 31 62 37q-32 89 -86 106q-28 10 -79 14q-41 3 -161 3q-145 1 -182 -16q-42 -14 -40 -71v-194q-71 15 -107 31l-6 -30q-3 -17 -10 -53q30 1 125 -20v-75q0 -36 -4 -60q97 -3 101 8q0 4 -6 11q-16 18 -16 47v53l111 -27v-36q0 -49 -4 -99z
M40 354q24 3 81 4h54q40 -1 67 -4q-8 33 -8 105v276q74 55 203 79q93 14 232 9q135 -6 273 -29l-3 6q-29 63 -30 101q-122 3 -210 2q-90 0 -155 -4q-130 -7 -189 -28q-19 -6 -80 -36q-74 -37 -87 -37q-31 4 -89 103q-15 -18 -45 -41q-15 -11 -24 -18q1 -6 121 -115v-296h-40
q-43 0 -71 4v-81z" />
</svg>
