<?xml version="1.0" standalone="no"?>
<!DOCTYPE svg PUBLIC "-//W3C//DTD SVG 1.1//EN" "http://www.w3.org/Graphics/SVG/1.1/DTD/svg11.dtd" >
<svg xmlns="http://www.w3.org/2000/svg" xmlns:xlink="http://www.w3.org/1999/xlink" version="1.1" viewBox="-10 0 1010 1000">
   <path fill="currentColor"
d="M202 32q58 87 102 191l-98 25q-32 -102 -85 -188zM411 62q93 8 170 8h131q88 0 143 -8q-8 54 -8 133v119q-1 81 8 111h-93q9 -29 8 -60h-270q-27 209 -123 338q-40 -29 -91 -36q131 -128 133 -335v-129q0 -90 -8 -141zM498 141v153h270v-153h-270zM262 326
q-10 21 -10 111v250q69 56 178 77q54 10 123 14q62 3 173 0q30 -1 202 -19q22 -2 34 -3q-30 45 -39 102q-103 1 -169 1q-69 -1 -124 -2q-113 -4 -190 -15q-64 -9 -165 -63q-53 -29 -69 -29q-21 -7 -93 113l-69 -71q18 -18 85 -75q28 -24 44 -38v-278h-26q-59 0 -95 8v-83
q43 8 97 8q48 0 93 -6q14 -1 20 -2zM635 417q145 116 252 240l-91 58q-83 -123 -236 -248z" />
</svg>
