<?xml version="1.0" standalone="no"?>
<!DOCTYPE svg PUBLIC "-//W3C//DTD SVG 1.1//EN" "http://www.w3.org/Graphics/SVG/1.1/DTD/svg11.dtd" >
<svg xmlns="http://www.w3.org/2000/svg" xmlns:xlink="http://www.w3.org/1999/xlink" version="1.1" viewBox="-10 0 1010 1000">
   <path fill="currentColor"
d="M544 2q93 19 103 32q-2 5 -11 14q-28 26 -55 79h173q79 0 137 -7q8 -1 10 -1v84q-2 0 -11 -1q-54 -7 -138 -7h-206q-16 27 -42 70q-48 79 -62 102h151q0 -53 -9 -122q-1 -9 -1 -10q94 1 105 11q0 3 -4 13q-15 44 -15 104h67q79 0 130 -6q9 -1 11 -1v85q-3 0 -14 -1
q-53 -7 -125 -7h-69v115h99q79 0 135 -7q10 -1 12 -1v89q-2 0 -10 -1q-58 -7 -137 -7h-99q0 69 7 123q1 8 1 10h-94q0 -2 1 -12q7 -50 7 -121h-135q-103 0 -146 8v-89q2 0 10 1q53 7 134 7h139v-113q-23 1 -62 2q-138 3 -182 12l-18 -89q46 20 133 -165h-35q-58 0 -111 7
q-10 1 -12 1v-84q51 8 119 8h71q39 -88 48 -125zM214 50q28 67 58 183l-95 19q-26 -120 -56 -182zM62 336q1 0 6 1q39 7 91 7q70 -1 103 -8q-8 41 -8 105v250q135 83 267 92q142 14 423 -29q-36 49 -45 108q-149 4 -232 3q-86 0 -139 -4q-98 -7 -183 -43q-17 -7 -47 -25
q-51 -32 -80 -31q-53 11 -95 98l-85 -60q89 -78 137 -107v-270h-10q-46 0 -93 7q-8 1 -10 1v-95z" />
</svg>
