<?xml version="1.0" standalone="no"?>
<!DOCTYPE svg PUBLIC "-//W3C//DTD SVG 1.1//EN" "http://www.w3.org/Graphics/SVG/1.1/DTD/svg11.dtd" >
<svg xmlns="http://www.w3.org/2000/svg" xmlns:xlink="http://www.w3.org/1999/xlink" version="1.1" viewBox="-10 0 1034 1024">
  <g transform="matrix(1 0 0 -1 0 820)">
   <path fill="currentColor"
d="M231 638l-92 80q-12 -16 -29 -34q31 -21 84 -71l43 -42q13 -13 29 -33q9 15 23 30q3 3 6 7zM846 596q24 0 66 -5v47q-4 0 -7 -2q-3 0 -5 -1l-103 -3h-318q36 63 43 77q9 18 13 20q6 9 28 21q-4 1 -7 2q-7 3 -14 5q-33 9 -41 13q-21 -60 -89 -171q-57 -87 -124 -140
q22 -13 40 -30q25 27 59 68q36 45 74 99h385zM424 341q-34 -10 -67 -22q-25 -7 -54 -14q6 -13 15 -47q30 16 62 30q21 9 44 16v-173q0 -33 3 -47q4 -31 46 -47q18 -4 61 -9q94 -4 141 -5q51 3 107 3q84 3 115 49q21 31 40 82q-21 13 -45 32q-4 -30 -8 -44q-10 -42 -34 -61
q-19 -15 -68 -19l-252 3q-31 4 -46 9q-21 10 -22 59v180l154 52l-1 -196q-6 -37 -6 -40h50q-6 66 -6 92v157l171 56q0 -16 1 -26q0 -24 -3 -60q0 -31 -4 -61q-1 -42 -17 -55q-22 -15 -51 -16q-21 1 -43 3q10 -19 17 -49q12 1 27 4q63 10 85 34q19 27 22 92l5 82q3 81 6 111
q-13 -6 -24 -11q-6 0 -86 -31l-106 -37v68q0 18 4 32q3 21 10 37h-58q6 -36 6 -47l1 -102l-154 -52v54q0 16 3 32q1 16 10 37h-56l4 -36zM93 -102q12 -6 25 -19q24 42 49 63q34 36 71 37q21 0 49 -13l96 -50q39 -12 95 -21l58 -4l168 -2l245 3l4 12q6 18 9 23q1 6 11 19
q-37 -7 -81 -11l-209 -5l-129 1q-45 0 -78 4q-57 6 -128 43q-57 28 -70 33q-10 3 -23 9l1 332q1 24 5 50q-16 -1 -32 -3q-21 -3 -46 -3l-122 4q-4 1 -7 2v-47l17 2q48 3 93 3h53v-342q-72 -31 -143 -110q9 -4 19 -10v0z" />
  </g>

</svg>
