<?xml version="1.0" standalone="no"?>
<!DOCTYPE svg PUBLIC "-//W3C//DTD SVG 1.1//EN" "http://www.w3.org/Graphics/SVG/1.1/DTD/svg11.dtd" >
<svg xmlns="http://www.w3.org/2000/svg" xmlns:xlink="http://www.w3.org/1999/xlink" version="1.1" viewBox="-10 0 1034 1024">
  <g transform="matrix(1 0 0 -1 0 820)">
   <path fill="currentColor"
d="M116 399h-10q-9 0 -59 5v-47q25 6 69 6h105v-351q-46 -15 -98 -49q-39 -27 -65 -51q22 -15 40 -30q24 27 45 43q57 46 106 47q27 0 54 -12l46 -25q51 -27 110 -41q66 -12 225 -13l275 5q9 31 23 60q-25 -7 -44 -11q-46 -4 -105 -9l-181 -2q-129 0 -174 8q-48 7 -131 50
q-48 24 -87 33l1 336l4 53q-66 -4 -100 -5h-49zM142 714q-15 -19 -37 -36q37 -21 85 -59q54 -48 87 -88q15 24 30 40l-103 95q-36 30 -62 48zM393 598q1 -39 5 -80l-1 -430q-3 -15 -4 -54q34 3 70 5l339 -1q19 0 52 -4q-3 37 -5 76l1 429l4 59q-36 -1 -71 -5h-219
q9 18 16 36l27 54q25 49 55 68q-33 12 -66 31q-3 -25 -26 -83q-21 -51 -49 -106q-60 0 -87 2q-6 3 -41 3zM811 304v-229h-376v229h376zM435 340v217h376v-217h-376z" />
  </g>

</svg>
