<?xml version="1.0" standalone="no"?>
<!DOCTYPE svg PUBLIC "-//W3C//DTD SVG 1.1//EN" "http://www.w3.org/Graphics/SVG/1.1/DTD/svg11.dtd" >
<svg xmlns="http://www.w3.org/2000/svg" xmlns:xlink="http://www.w3.org/1999/xlink" version="1.1" viewBox="-10 0 1010 1000">
   <path fill="currentColor"
d="M573 2q106 1 110 16q0 3 -5 13q-22 41 -23 104h125q19 0 75 -6q14 -1 22 -2q0 4 -2 13q-6 52 -6 75v383q0 31 8 91q-3 0 -9 -1q-58 -7 -88 -7h-328q-28 0 -89 6q0 -10 1 -29q3 -34 3 -68v-377q0 -30 -6 -84q56 6 89 6h131q0 -77 -7 -124q-1 -7 -1 -9zM200 46
q65 93 94 161l-94 41q-27 -89 -85 -158zM444 203v166h135v-166h-135zM653 203v166h143v-166h-143zM60 332q61 8 95 8h28q14 0 69 -6q-6 54 -6 75v276q145 100 347 95h165q110 -1 180 -14q-28 43 -41 103h-69q-374 2 -447 -31q-58 -20 -116 -65q-26 -20 -35 -21
q-39 -7 -105 111l-79 -69q34 -39 125 -105v-278h-14q-51 0 -97 10v-89zM444 435v177h135v-177h-135zM653 435v177h143v-177h-143z" />
</svg>
