<?xml version="1.0" standalone="no"?>
<!DOCTYPE svg PUBLIC "-//W3C//DTD SVG 1.1//EN" "http://www.w3.org/Graphics/SVG/1.1/DTD/svg11.dtd" >
<svg xmlns="http://www.w3.org/2000/svg" xmlns:xlink="http://www.w3.org/1999/xlink" version="1.1" viewBox="-10 0 1010 1000">
   <path fill="currentColor"
d="M554 -13q107 53 105 59q-1 3 -11 8q-25 14 -43 34q-117 133 -170 186l345 -18q-43 -54 -101 -113l79 -43q98 111 184 234l-87 51q-18 -37 -36 -67q-394 15 -454 42q-10 -53 -42 -90q65 -27 117 -93q71 -80 114 -190zM194 32q82 130 112 193l-90 41q-35 -106 -107 -196z
M44 336q23 6 113 8q74 0 99 -4q-6 36 -6 125v254q25 6 76 25q72 26 114 34q94 18 220 20q124 2 304 -12q-32 42 -37 99q-347 7 -514 -31q-36 -8 -115 -40q-80 -32 -96 -30q-35 10 -109 101q-2 -3 -7 -11q-34 -55 -54 -76q15 -9 28 -16q114 -66 109 -69l6 -6v-286h-12
q-84 1 -119 8v-93zM379 419q58 7 149 8h172q97 -1 149 -8q-7 65 -8 125v68q0 71 8 111q-37 -7 -127 -8h-178q-128 1 -165 8q8 -55 8 -129v-54q-1 -74 -8 -121zM466 498v145h296v-145h-296z" />
</svg>
