<?xml version="1.0" standalone="no"?>
<!DOCTYPE svg PUBLIC "-//W3C//DTD SVG 1.1//EN" "http://www.w3.org/Graphics/SVG/1.1/DTD/svg11.dtd" >
<svg xmlns="http://www.w3.org/2000/svg" xmlns:xlink="http://www.w3.org/1999/xlink" version="1.1" viewBox="-10 0 1010 1000">
   <path fill="currentColor"
d="M573 0q104 7 114 18q0 4 -11 13q-17 13 -21 23q-8 17 -26 68q-4 12 -6 17h67q114 0 169 -8q-8 30 -8 213v168q0 168 10 203q-21 -5 -60 -6q-37 -2 -122 -2h-116q-127 0 -186 8q10 -32 10 -191v-208q0 -156 -10 -187q51 10 125 10h44q16 -62 27 -139zM173 48
q58 63 119 167l-78 53q-64 -117 -117 -168zM772 211h-306v172h306v-172zM260 338q-10 38 -10 121v250q24 10 59 32q82 92 635 53q-39 70 -43 101q-290 -3 -379 -12q-110 -8 -171 -35q-47 -20 -92 -51q-31 -24 -51 -21q-36 2 -102 110l-3 5l-67 -77q0 -2 11 -9
q49 -34 124 -92v-288q-93 0 -123 8v-93q24 8 91 8q79 -1 121 -10zM466 455v180h306v-180h-306z" />
</svg>
