<?xml version="1.0" standalone="no"?>
<!DOCTYPE svg PUBLIC "-//W3C//DTD SVG 1.1//EN" "http://www.w3.org/Graphics/SVG/1.1/DTD/svg11.dtd" >
<svg xmlns="http://www.w3.org/2000/svg" xmlns:xlink="http://www.w3.org/1999/xlink" version="1.1" viewBox="-10 0 1034 1024">
  <g transform="matrix(1 0 0 -1 0 820)">
   <path fill="currentColor"
d="M309 -22q-15 7 -56 23l1 339q1 24 5 49q-33 -1 -65 -5q-87 0 -114 2l-28 3v-47q25 6 69 6h94v-347q-30 -10 -64 -34q-15 -9 -89 -73q21 -16 37 -36q18 28 55 63q43 39 77 39q19 0 56 -16l72 -36q36 -16 99 -29q73 -16 180 -17l321 5q6 30 20 59q-37 -12 -95 -17
q-109 -6 -224 -7q-112 0 -163 9q-81 15 -153 50q-18 9 -35 17zM146 702q-15 -18 -35 -35q39 -25 83 -69q48 -48 68 -88q15 15 26 25q3 4 12 9q-43 49 -75 81zM377 341q-18 0 -69 5v-46q31 4 69 5h227q-30 -108 -98 -179q-69 -69 -159 -97q28 -18 42 -37q42 24 74 46
q27 21 56 47q39 39 57 65q22 34 46 86l134 -112l73 -66q27 -27 57 -62q10 15 16 19q7 9 16 18q-45 42 -120 107l-163 132q3 16 8 33l249 -1l38 -4v46q-18 -4 -63 -5h-218l9 93q3 36 4 89q177 0 200 -3q3 0 13 -2v46q-18 -4 -64 -5h-149v135q0 9 4 31q3 19 8 31q1 3 3 7h-59
q1 -33 5 -67v-137h-155l10 29q9 39 19 64q9 22 23 41q-36 7 -56 16q-9 -66 -36 -150q-30 -84 -79 -139q25 -6 49 -16q6 10 41 81q6 15 18 38h166q-1 -57 -5 -94q-1 -36 -7 -88h-234z" />
  </g>

</svg>
