<?xml version="1.0" standalone="no"?>
<!DOCTYPE svg PUBLIC "-//W3C//DTD SVG 1.1//EN" "http://www.w3.org/Graphics/SVG/1.1/DTD/svg11.dtd" >
<svg xmlns="http://www.w3.org/2000/svg" xmlns:xlink="http://www.w3.org/1999/xlink" version="1.1" viewBox="-10 0 1010 1000">
   <path fill="currentColor"
d="M190 30q65 93 100 173l-92 35q-31 -109 -91 -166zM831 52q-61 105 -144 175q116 56 246 129q-34 21 -69 56l-7 7q-90 -81 -224 -145q-124 74 -286 139q-16 -47 -63 -79q268 -47 397 -207h-235q-40 0 -83 5q-6 1 -8 1v-81q67 4 123 4h228q84 -1 125 -4zM256 324
q-8 28 -8 73v282q78 82 236 100q153 19 472 -17q-34 52 -39 105q-29 0 -86 -1q-360 0 -436 -22q-59 -15 -119 -60q-34 -25 -52 -28q-44 -5 -145 104q-26 -44 -59 -80q115 -69 147 -97v-284h-54q-18 0 -46 3q-11 0 -17 1v-79q26 3 71 4h44q42 0 54 -1q17 0 37 -3zM833 409v85
q-21 -6 -97 -6h-91v135h129q65 0 101 -6v82q-39 -4 -103 -4h-298q-87 0 -135 8v-86q36 6 111 6h119v-135h-81h-32q-73 -1 -93 4v-81q29 6 141 6h222q60 0 107 -8z" />
</svg>
