<?xml version="1.0" standalone="no"?>
<!DOCTYPE svg PUBLIC "-//W3C//DTD SVG 1.1//EN" "http://www.w3.org/Graphics/SVG/1.1/DTD/svg11.dtd" >
<svg xmlns="http://www.w3.org/2000/svg" xmlns:xlink="http://www.w3.org/1999/xlink" version="1.1" viewBox="-10 0 1010 1000">
   <path fill="currentColor"
d="M482 -8q12 20 31 53q26 44 41 70l-80 38q-18 -55 -69 -127zM716 -8q104 35 97 42q0 4 -9 7q-15 6 -22 17q-27 48 -78 115h64q81 -1 145 -14v91q-64 -8 -143 -8h-14v153h46q34 0 112 -7q11 -1 17 -1v90q-51 -9 -125 -8h-50v137q0 73 8 148h-91q7 -45 8 -142v-141h-139
q-24 165 -143 287q-32 -29 -99 -49q149 -98 164 -236h-51q-64 0 -127 8v-92q5 0 15 1q78 7 110 7h59v-155h-28q-80 0 -132 8v-87q85 8 140 8h183q47 -65 83 -179zM181 24q11 30 50 121q16 37 25 58l-85 28q-28 -92 -72 -175zM681 242h-135v155h135v-155zM50 326q61 8 101 8
h26q36 0 75 -6q-10 22 -10 77v310q139 82 302 83h180q158 -1 232 -26q-38 68 -37 107h-348q-178 -4 -277 -53q-16 -8 -38 -21q-42 -27 -62 -21q-34 3 -91 103l-69 -57q68 -72 133 -117v-306q-61 0 -117 10v-91z" />
</svg>
