<?xml version="1.0" standalone="no"?>
<!DOCTYPE svg PUBLIC "-//W3C//DTD SVG 1.1//EN" "http://www.w3.org/Graphics/SVG/1.1/DTD/svg11.dtd" >
<svg xmlns="http://www.w3.org/2000/svg" xmlns:xlink="http://www.w3.org/1999/xlink" version="1.1" viewBox="-10 0 1034 1024">
  <g transform="matrix(1 0 0 -1 0 820)">
   <path fill="currentColor"
d="M138 717q-13 -15 -31 -30q48 -40 83 -75q33 -34 72 -80q15 18 33 33l-79 79zM790 460l-134 65q55 51 94 94q36 42 80 103q-24 -1 -39 -2q-27 -3 -35 -3l-358 1q-12 3 -35 4v-46q33 3 66 5h321q-31 -45 -94 -104q-93 -84 -228 -146q-78 -33 -139 -46q28 -25 41 -41
q151 61 291 154q162 -76 175 -86q93 -48 118 -64q12 24 24 41zM599 55l-222 1l-42 4v-46l17 2q48 3 78 3l450 -1q7 0 15 -2q3 0 16 -2v46l-36 -4l-238 -1v224h130q27 0 51 -3q3 0 15 -2v46l-35 -4h-363q-1 0 -35 4v-46q15 1 19 2q45 3 91 3h89v-224zM330 -65l25 -13l55 -21
q36 -9 75 -14q36 -3 122 -4l217 -2l126 -3q9 28 26 56q-36 -4 -61 -7q-61 -3 -120 -5l-276 3q-108 6 -182 50q-45 27 -83 46q-6 3 -12 5l1 323q1 27 5 53q-66 -4 -99 -5q-40 0 -85 5v-46q-3 0 9 1q72 3 112 4h20v-332q-45 -12 -73 -35q-25 -18 -84 -86q24 -12 42 -30
q15 28 24 41q27 37 53 54q21 15 45 16q27 0 52 -15z" />
  </g>

</svg>
