<?xml version="1.0" standalone="no"?>
<!DOCTYPE svg PUBLIC "-//W3C//DTD SVG 1.1//EN" "http://www.w3.org/Graphics/SVG/1.1/DTD/svg11.dtd" >
<svg xmlns="http://www.w3.org/2000/svg" xmlns:xlink="http://www.w3.org/1999/xlink" version="1.1" viewBox="-10 0 1034 1024">
  <g transform="matrix(1 0 0 -1 0 820)">
   <path fill="currentColor"
d="M125 388q-18 0 -69 5v-46q31 4 69 5h93v-335l-73 -38q-27 -18 -69 -50q-7 -6 -17 -14l30 -34q0 -3 5 -9q21 27 43 47q64 63 111 63q22 0 49 -15l58 -35q45 -27 120 -43q45 -9 134 -13l343 -3q4 22 22 59q-45 -10 -84 -13l-221 -3q-57 0 -105 3q-40 1 -74 6q-66 9 -146 58
q-36 21 -44 24q-10 4 -43 14l1 311q0 10 5 61q-30 -1 -61 -5h-77zM136 707q-10 -15 -33 -37q7 -3 54 -39q48 -42 74 -68l26 -32q16 27 32 38q-57 63 -153 138zM584 413q-15 -27 -29 -46q-12 -18 -30 -40q-60 -73 -103 -112q-46 -40 -78 -62q-25 -16 -54 -26q21 -18 31 -24
q1 0 5 -4q4 -3 10 -8q13 12 27 22q78 63 121 107q51 54 115 140l-5 -380h49l-4 47l-1 335q85 -75 96 -84q100 -100 114 -117l41 -51q15 16 31 33q-54 61 -114 120q-31 30 -72 66l-96 84q255 0 275 -3q10 0 23 -4v48q-16 -6 -63 -6h-235v257q0 6 4 29q3 19 8 31q1 3 3 7h-59
q1 -33 5 -66v-258l-231 1q-18 3 -51 5v-48q9 3 60 7h207zM403 690q-15 -15 -38 -30q42 -39 66 -68q52 -63 67 -84l1 -3q18 18 37 30l-83 101zM836 711q-51 -75 -84 -117q-12 -15 -25 -29q-13 -13 -32 -31q15 -7 37 -29q15 15 28 33q61 81 84 104q16 19 41 33q-30 18 -49 36
v0z" />
  </g>

</svg>
