<?xml version="1.0" standalone="no"?>
<!DOCTYPE svg PUBLIC "-//W3C//DTD SVG 1.1//EN" "http://www.w3.org/Graphics/SVG/1.1/DTD/svg11.dtd" >
<svg xmlns="http://www.w3.org/2000/svg" xmlns:xlink="http://www.w3.org/1999/xlink" version="1.1" viewBox="-10 0 1034 1024">
  <g transform="matrix(1 0 0 -1 0 820)">
   <path fill="currentColor"
d="M124 405q-42 0 -62 5l-3 1v-47q19 6 65 6h95v-348q-54 -24 -93 -56q-19 -18 -58 -47q27 -18 44 -38q24 40 42 57q48 45 90 46q21 0 45 -12q48 -27 65 -35q61 -25 107 -36q73 -15 243 -16l254 3q3 25 17 55q-15 -6 -49 -12q-34 -3 -82 -6l-147 -2q-144 0 -215 11
q-69 12 -136 48q-54 30 -89 40q0 342 3 360q0 15 2 29l-34 -4q-13 0 -27 -2h-77zM279 582q-67 67 -98 101l-39 38q-13 -18 -33 -37q30 -16 82 -66q42 -45 66 -86q9 15 27 30q3 3 8 7zM449 704q-39 4 -55 5q1 -21 3 -39q1 -15 2 -18v-572q0 -15 -5 -28q-4 -10 -17 -19l22 -43
q12 9 63 33l166 70q0 9 -2 23q0 13 2 25q-93 -52 -190 -86v291l354 -1l41 -4q-4 39 -5 67l1 255l4 46q-25 -1 -52 -5h-332zM438 380v128h352v-128h-352zM438 542v128h352v-128h-352zM669 217q-27 15 -54 35l-47 27q-15 -22 -26 -34q34 -16 70 -37q40 -24 99 -63
q94 -60 161 -118q12 21 31 35l-173 117l112 78q51 33 71 39q-21 15 -41 36q-18 -21 -73 -64q-49 -39 -99 -71z" />
  </g>

</svg>
