<?xml version="1.0" standalone="no"?>
<!DOCTYPE svg PUBLIC "-//W3C//DTD SVG 1.1//EN" "http://www.w3.org/Graphics/SVG/1.1/DTD/svg11.dtd" >
<svg xmlns="http://www.w3.org/2000/svg" xmlns:xlink="http://www.w3.org/1999/xlink" version="1.1" viewBox="-10 0 1010 1000">
   <path fill="currentColor"
d="M817 18q71 92 64 97q-4 4 -28 3q-84 -3 -192 11v119h113q139 0 163 -6v80q-18 -6 -159 -6h-117v107h93q43 0 91 -6h4q0 2 -1 12q-5 43 -5 83v131q0 38 6 74q-2 0 -12 -1q-40 -5 -79 -5h-262q-47 0 -93 5q-11 1 -14 1q6 -36 6 -82v-129q0 -37 -6 -85v-4q35 6 93 6h99v-107
h-119q-123 0 -147 6v-80q18 6 145 6h121v-111q-99 5 -202 24q-8 -43 -34 -83q266 0 472 -60zM181 46q70 88 103 161l-88 47q-44 -109 -95 -164zM60 344q16 5 73 4h26q44 0 95 -4h4q-6 23 -6 79v280q24 8 75 35q83 44 125 48q281 23 492 -12l-2 3q-23 29 -43 100
q-398 -2 -484 -19q-26 -5 -97 -45q-70 -39 -88 -39q-35 -6 -111 97l-77 -77q72 -44 131 -93v-280h-36q-44 0 -56 1q-17 0 -21 3v-81zM764 490h-290v153h290v-153z" />
</svg>
