<?xml version="1.0" standalone="no"?>
<!DOCTYPE svg PUBLIC "-//W3C//DTD SVG 1.1//EN" "http://www.w3.org/Graphics/SVG/1.1/DTD/svg11.dtd" >
<svg xmlns="http://www.w3.org/2000/svg" xmlns:xlink="http://www.w3.org/1999/xlink" version="1.1" viewBox="-10 0 1010 1000">
   <path fill="currentColor"
d="M192 28q50 88 86 189l-93 21q-30 -124 -72 -190zM452 100v95h302v-95h-302zM452 250v88h302v-88h-302zM48 324q46 4 91 4q80 0 113 -4q-7 29 -6 79v272q-9 100 373 107h69q155 -1 254 -20q-32 36 -57 100l-272 -2q-303 -21 -357 -76q-32 -16 -44 -16q-32 -1 -91 99
q9 12 -71 -59q50 -52 119 -105v-306h-32q-42 0 -58 1q-20 1 -31 3v-77zM837 36q-4 40 -4 83v197q0 43 4 87q-15 -6 -31 -6q31 23 63 56q11 11 -20 16q-26 4 -34 10q-10 6 -48 37q-29 23 -39 30q-8 -2 69 49q52 36 90 62l-75 62q-134 -138 -322 -242l60 -50q38 24 131 83
q71 -62 103 -113h-332v234q81 -34 121 -61q0 38 14 79q-112 36 -202 95l-38 -71q26 -29 26 -56v-492q0 -60 -4 -89q40 4 97 4h270q63 0 101 -4z" />
</svg>
