<?xml version="1.0" standalone="no"?>
<!DOCTYPE svg PUBLIC "-//W3C//DTD SVG 1.1//EN" "http://www.w3.org/Graphics/SVG/1.1/DTD/svg11.dtd" >
<svg xmlns="http://www.w3.org/2000/svg" xmlns:xlink="http://www.w3.org/1999/xlink" version="1.1" viewBox="-10 0 1034 1024">
  <g transform="matrix(1 0 0 -1 0 820)">
   <path fill="currentColor"
d="M119 379q-45 0 -59 4q-3 1 -5 1v-47q9 4 25 5l136 1v-321q-63 -22 -145 -114q30 -18 44 -32q21 45 54 74q33 33 63 33q24 0 49 -14l69 -38q43 -24 71 -33q19 -6 64 -13l144 -4l317 -5q9 36 23 58q-27 -6 -73 -12q-91 -4 -214 -6q-78 0 -134 3q-51 1 -75 6q-57 10 -123 49
q-69 40 -77 43q-10 4 -20 7q0 315 2 319q0 21 3 41q-27 -1 -56 -5h-83zM264 585l-82 81q-15 13 -33 32q-12 -16 -34 -36q84 -45 138 -131q15 18 32 32q-10 12 -21 22zM599 501h-230q-36 0 -54 3q-3 0 -11 2v-46q15 4 65 5h230v-147l-170 3q-9 1 -19 2q1 -31 5 -64l-1 -210
q-3 -3 -3 -21q0 -9 -1 -18q46 4 80 5l306 -1l40 -4l-3 37q0 12 -2 20q0 210 3 227q0 15 2 29q-27 -1 -55 -5h-144v147l257 -1q22 0 29 -3q3 0 6 -1v46q-3 0 -5 -1q-9 0 -57 -4h-230v154l135 22q51 7 69 8h18q-22 27 -35 50q-43 -15 -80 -23q-42 -9 -94 -17q-51 -9 -100 -13
q-21 -3 -76 -5q-45 -3 -72 -3q-18 0 -52 4q7 -15 19 -49l48 4q78 9 177 16h5v-148zM452 51v231h341v-231h-341z" />
  </g>

</svg>
