<?xml version="1.0" standalone="no"?>
<!DOCTYPE svg PUBLIC "-//W3C//DTD SVG 1.1//EN" "http://www.w3.org/Graphics/SVG/1.1/DTD/svg11.dtd" >
<svg xmlns="http://www.w3.org/2000/svg" xmlns:xlink="http://www.w3.org/1999/xlink" version="1.1" viewBox="-10 0 1010 1000">
   <path fill="currentColor"
d="M821 30q63 86 50 93q-4 3 -16 -2q-17 -7 -28 -6q-21 2 -62 6q-212 19 -315 22l-2 90h330q57 0 135 -4v71q-40 -4 -131 -4h-334q-5 277 -99 425q-55 -37 -85 -44q104 -98 105 -343v-60q1 -133 -4 -202q260 10 456 -42zM171 36q35 53 101 161l-91 41q-30 -90 -92 -158z
M248 328q-8 26 -8 79v284q44 65 254 87q97 9 210 4t233 -24q-46 47 -56 107q-336 0 -464 -13q-78 -9 -161 -60q-37 -23 -52 -24q-38 -15 -131 92q-23 -48 -47 -84q39 -26 135 -77v-288h-64q-42 0 -63 4v-87q27 3 69 4h54q46 -1 91 -4zM476 393q42 6 99 6h175q29 0 92 -7
q6 -1 9 -1q-6 42 -6 84v148q0 33 6 76q-45 -6 -91 -6h-189q-49 0 -97 6q6 -42 6 -82v-134q1 -66 -4 -90zM556 467v158h214v-158h-214z" />
</svg>
