<?xml version="1.0" standalone="no"?>
<!DOCTYPE svg PUBLIC "-//W3C//DTD SVG 1.1//EN" "http://www.w3.org/Graphics/SVG/1.1/DTD/svg11.dtd" >
<svg xmlns="http://www.w3.org/2000/svg" xmlns:xlink="http://www.w3.org/1999/xlink" version="1.1" viewBox="-10 0 1010 1000">
   <path fill="currentColor"
d="M623 4q60 8 83 14q16 3 10 23q-14 40 -14 84v233q91 38 238 113l-57 67q-93 -71 -183 -105v165q-1 42 10 50q7 10 50 7h40q55 4 61 -81q31 42 76 59q-17 59 -40 79q-23 22 -72 21h-111q-60 1 -74 -15q-16 -12 -15 -67l2 -516q0 -98 -4 -131zM474 10q63 6 80 12
q18 6 12 19q-10 23 -10 47v305q0 124 -50 219q-42 84 -127 144q-31 -33 -79 -49q92 -41 131 -113q39 -81 47 -163q-25 19 -76 55q-59 43 -87 64q-15 -58 -39 -85q131 -48 206 -98v-208q0 -107 -8 -149zM177 44q38 54 79 181l-87 23q-37 -125 -74 -178zM829 110q96 34 90 47
q-64 75 -117 171q-1 -1 -4 -3q-27 -22 -72 -31q69 -83 103 -184zM361 129q54 96 87 197l-77 28q-39 -123 -83 -195zM38 342q34 7 99 6q63 0 109 -4q-4 28 -4 73v312q4 2 15 6q148 67 251 67h232q81 -1 214 -20q-31 40 -37 103h-298q-299 -16 -351 -69q-40 -20 -60 -20
q-28 -7 -99 93q-11 -10 -29 -26q-19 -17 -38 -35q38 -40 121 -99v-310h-32q-60 0 -93 6v-83z" />
</svg>
