<?xml version="1.0" standalone="no"?>
<!DOCTYPE svg PUBLIC "-//W3C//DTD SVG 1.1//EN" "http://www.w3.org/Graphics/SVG/1.1/DTD/svg11.dtd" >
<svg xmlns="http://www.w3.org/2000/svg" xmlns:xlink="http://www.w3.org/1999/xlink" version="1.1" viewBox="-10 0 1034 1024">
  <g transform="matrix(1 0 0 -1 0 820)">
   <path fill="currentColor"
d="M223 398l-106 -2l-59 4q-3 1 -5 2v-47q24 4 42 5h124v-337q-51 -19 -77 -44l-83 -78q24 -13 46 -35q13 31 35 59q48 58 96 59q19 0 58 -22q91 -54 158 -70q78 -16 206 -17h216l82 -3q1 9 8 26q6 21 13 34q-48 -10 -81 -13l-109 -6l-108 -2q-126 0 -203 13q-66 9 -141 55
q-54 33 -69 38q-6 1 -10 3l1 327l4 55q-19 -1 -38 -4zM211 630l-71 72q-27 -30 -35 -34q82 -54 138 -137q10 12 22 22q1 1 10 8zM607 426q0 -42 -6 -60h49q-6 43 -5 72v76q79 -76 139 -114q27 -16 53 -29l95 -42q19 30 30 46q-63 7 -121 34q-69 33 -158 116q219 0 228 -2
q6 0 10 -2q3 0 7 -1v46q-30 -1 -62 -5h-221v117q81 10 112 17q39 6 61 11q18 0 39 2q-19 21 -40 49q-27 -12 -49 -20q-27 -7 -69 -15q-42 -7 -76 -12q-105 -6 -163 -7q-79 4 -85 5q16 -24 28 -48l146 9l58 4v-112q-252 0 -268 3q-3 1 -8 2v-46q15 4 64 5h174
q-39 -36 -76 -66q-39 -28 -92 -61q-30 -18 -54 -28q-18 -7 -53 -16q24 -18 43 -40l126 80q79 54 144 120v-88zM714 299l-30 -92q-6 -16 -16 -37q49 4 81 5h85q-6 -48 -11 -74q-12 -48 -49 -65q-24 -9 -66 -10q-15 0 -40 4q9 -24 12 -51q55 9 95 19q4 3 12 5q36 18 51 41
q15 21 26 78l17 94q-51 -4 -77 -5h-80l46 129l-44 -4h-283q-12 3 -17 4v-46q24 4 42 5h72q-24 -144 -132 -227q-36 -25 -74 -39q30 -18 45 -35q87 69 132 130q21 30 37 65q12 30 32 106h134z" />
  </g>

</svg>
