<?xml version="1.0" standalone="no"?>
<!DOCTYPE svg PUBLIC "-//W3C//DTD SVG 1.1//EN" "http://www.w3.org/Graphics/SVG/1.1/DTD/svg11.dtd" >
<svg xmlns="http://www.w3.org/2000/svg" xmlns:xlink="http://www.w3.org/1999/xlink" version="1.1" viewBox="-10 0 1010 1000">
   <path fill="currentColor"
d="M556 0h22q75 -2 73 8q1 3 -3 9q-9 19 -9 45v65h113q-14 -40 -56 -91l72 -28q30 39 65 88l-67 31h63q69 0 98 -8v80q-23 -6 -114 -6h-174v73h157q28 0 75 -4q-6 36 -6 109v300q9 103 -125 101q-7 -46 -42 -85q97 19 96 -16v-65h-155v61q-1 68 4 97h-81q5 -34 5 -91v-65
h-136v77q0 54 6 79h-86q9 -14 8 -89v-294q0 -83 -6 -119q24 3 78 4h136v-73h-127q-111 0 -127 6v-78q51 6 114 6h140v-55q0 -54 -11 -72zM181 62q37 69 75 165l-85 29q-23 -78 -68 -166zM567 326h-136v85h136v-85zM639 326v83h155v-83h-155zM38 348q38 6 81 6h42q40 0 87 -4
q-4 19 -4 65v312q101 82 286 85q170 5 266 0q103 -6 166 -22q-26 41 -41 101h-129q-365 5 -415 -20q-21 -5 -80 -39q-72 -42 -91 -40q-37 2 -107 103l-27 -24q-28 -24 -46 -41q74 -59 141 -105v-296h-42q-35 0 -48 1q-15 0 -39 3v-85zM639 467v79h155v-79h-155zM567 469
h-136v79h136v-79z" />
</svg>
