<?xml version="1.0" standalone="no"?>
<!DOCTYPE svg PUBLIC "-//W3C//DTD SVG 1.1//EN" "http://www.w3.org/Graphics/SVG/1.1/DTD/svg11.dtd" >
<svg xmlns="http://www.w3.org/2000/svg" xmlns:xlink="http://www.w3.org/1999/xlink" version="1.1" viewBox="-10 0 1010 1000">
   <path fill="currentColor"
d="M552 -6q5 2 14 5q74 26 71 37q0 4 -7 8q-3 1 -3 2q31 45 121 109q59 47 198 78q-35 38 -51 85q-5 -2 -14 -5q-70 -25 -113 -49v68q-25 -4 -105 -4h-34v95h97q34 0 96 -2q40 -2 55 -2v71q-44 -3 -151 -3h-97v117v83q18 59 -131 81q0 -49 -36 -91q59 9 75 3q18 -4 17 -31
v-162h-114q-59 0 -136 5v-75q10 1 30 2q55 4 104 4h116v-95h-44q-55 0 -105 4v-62q-48 42 -78 66q-31 -30 -79 -48q153 -88 304 -294zM196 58q16 31 70 163l-87 25q-1 -4 -3 -11q-31 -102 -61 -149zM583 90q-4 4 -10 12q-35 44 -158 158q23 4 73 4h200q45 -1 74 -4
q-91 -57 -164 -152zM417 530l71 36q-57 80 -135 157q-31 -35 -67 -40q81 -79 131 -153zM744 532q80 61 149 131l-66 54q-78 -99 -139 -143zM141 362q47 0 103 -4q-4 43 -4 83v299q111 60 304 76h148q51 0 254 -24q-28 42 -33 103h-322q-256 -15 -329 -68q-41 -19 -56 -19
q-23 2 -93 93q-23 -28 -65 -59l113 -96v-311q-78 1 -111 8v-87q18 5 91 6z" />
</svg>
