<?xml version="1.0" standalone="no"?>
<!DOCTYPE svg PUBLIC "-//W3C//DTD SVG 1.1//EN" "http://www.w3.org/Graphics/SVG/1.1/DTD/svg11.dtd" >
<svg xmlns="http://www.w3.org/2000/svg" xmlns:xlink="http://www.w3.org/1999/xlink" version="1.1" viewBox="-10 0 1010 1000">
   <path fill="currentColor"
d="M181 32q48 91 77 197l-95 25q-27 -113 -70 -192zM312 50q80 8 138 8h272q69 0 147 -8v87q-42 -6 -145 -8h-59q-53 46 -105 80q76 98 103 168q106 -109 145 -194q87 53 91 71q-1 2 -10 5q-29 10 -46 29l-13 13q-82 84 -112 108q104 74 195 169q-41 21 -74 63
q-59 -97 -162 -208q13 67 10 138q-3 65 -22 102q-40 71 -163 83q-16 -52 -42 -93q64 7 109 -14q25 -13 36 -65q6 -26 7 -60q2 -34 -1 -69q-96 115 -270 220q-24 -37 -69 -63q163 -47 317 -225q-6 -20 -27 -57q-87 100 -221 178q-36 -43 -67 -61q119 -35 262 -163
q-11 -21 -32 -44q-99 68 -163 96q-29 -39 -67 -66q151 -31 295 -141h-119q-73 1 -138 8v-87zM50 330q87 9 192 0q5 -1 4 4q-6 38 -6 89v284q14 -1 53 20q60 30 102 39q35 8 103 11q66 4 143 2q151 -4 294 -25q-46 44 -54 108h-25q-297 6 -433 -16q-67 -11 -156 -51
q-47 -22 -61 -21q-37 1 -81 91l-87 -47q41 -57 123 -109v-298q-65 0 -111 8v-89z" />
</svg>
