<?xml version="1.0" standalone="no"?>
<!DOCTYPE svg PUBLIC "-//W3C//DTD SVG 1.1//EN" "http://www.w3.org/Graphics/SVG/1.1/DTD/svg11.dtd" >
<svg xmlns="http://www.w3.org/2000/svg" xmlns:xlink="http://www.w3.org/1999/xlink" version="1.1" viewBox="-10 0 1034 1024">
  <g transform="matrix(1 0 0 -1 0 820)">
   <path fill="currentColor"
d="M119 704q-10 -15 -25 -31q106 -90 148 -137q13 16 31 31q-16 18 -44 42q-36 33 -110 95zM604 265v-211q0 -31 -20 -45q-18 -10 -50 -11q-30 0 -59 6q18 -30 27 -51q12 0 26 2q81 9 100 34q13 24 14 64v221l65 -44l77 -57q100 -79 124 -116q15 24 31 42q-46 39 -104 82
l-102 75q24 33 88 100q30 33 40 39q7 6 33 13q-43 39 -49 46q-1 -4 -27 -39q-9 -9 -16 -19l-98 -119l-62 41v191h215q27 0 51 -3q3 0 15 -2v47q-4 0 -7 -2q-3 0 -4 -1q-27 0 -55 -3h-215v136q0 16 3 32q1 19 11 37h-58q0 -6 3 -13l3 -110v-82l-225 1l-42 5v-47l17 2
q24 1 48 3h202v-201q-34 -22 -126 -76q-52 -31 -92 -53q-34 -19 -79 -41q16 -19 33 -41q15 12 32 23q9 7 93 61q69 43 139 84zM481 372l-86 85q-12 -16 -30 -34q70 -58 118 -120q13 18 21 23q6 6 12 11zM710 710l70 -66q25 -27 52 -57q12 13 21 24q4 3 10 10q-22 24 -61 60
q-36 34 -61 62q-15 -19 -31 -33zM875 -133l77 1q1 10 3 19q1 6 9 18q4 9 9 18q-60 -9 -103 -13l-211 -7q-45 0 -99 3q-106 6 -147 20q-55 15 -159 78l1 333l4 49q-60 -4 -93 -5l-95 4q-4 1 -7 1v-46q-3 0 9 1q72 3 114 4h29v-335q-45 -9 -93 -43q-30 -24 -66 -58
q19 -18 38 -37q15 30 47 58q46 40 72 41q16 0 51 -19q93 -54 170 -71q40 -7 89 -13q57 -3 139 -3z" />
  </g>

</svg>
