<?xml version="1.0" standalone="no"?>
<!DOCTYPE svg PUBLIC "-//W3C//DTD SVG 1.1//EN" "http://www.w3.org/Graphics/SVG/1.1/DTD/svg11.dtd" >
<svg xmlns="http://www.w3.org/2000/svg" xmlns:xlink="http://www.w3.org/1999/xlink" version="1.1" viewBox="-10 0 1010 1000">
   <path fill="currentColor"
d="M583 -12q101 0 102 10q1 6 -4 18q-15 41 -16 115h75q93 -1 157 -10v84q-104 -6 -155 -6h-77v121h117q64 0 135 -5q14 -1 20 -1v81q-56 -8 -155 -8h-338q-81 0 -146 4v-77q5 0 16 1q75 5 130 5h145v-119h-158l-34 71q-36 -15 -91 -18q70 -118 115 -236l83 18q-7 13 -21 46
q-16 37 -23 51h127q0 -91 -4 -145zM175 46q27 33 98 144q9 14 13 21l-80 47q-57 -103 -109 -166zM474 522v133h304v-133h-304zM863 453q-6 47 -6 77v121q-3 51 8 76q-33 -4 -101 -4h-254q-74 2 -119 8q4 -29 4 -80v-129q0 -40 -6 -73q36 6 129 6h224q38 0 83 -2q29 -1 38 0z
M50 336q10 1 28 4q30 4 37 4h137q-12 35 -10 95v286q121 93 274 93q45 2 115 2q68 0 135 -2q129 -5 200 -14q-45 52 -45 97q-90 1 -150 1h-113q-101 -2 -186 -7q-91 -5 -206 -79q-45 -29 -60 -30q-14 -1 -74 71q-27 32 -31 34q-12 -18 -41 -44q-13 -10 -20 -17
q80 -76 127 -115v-294q-76 -3 -117 4v-89z" />
</svg>
