<?xml version="1.0" standalone="no"?>
<!DOCTYPE svg PUBLIC "-//W3C//DTD SVG 1.1//EN" "http://www.w3.org/Graphics/SVG/1.1/DTD/svg11.dtd" >
<svg xmlns="http://www.w3.org/2000/svg" xmlns:xlink="http://www.w3.org/1999/xlink" version="1.1" viewBox="-10 0 1010 1000">
   <path fill="currentColor"
d="M512 14q44 30 81 46q-74 78 -113 123q41 98 55 176q15 82 9 169q-6 102 -41 140q-31 39 -134 61q-2 -44 -52 -102q104 17 136 -40q34 -53 15 -216q-54 95 -155 195q-17 -36 -67 -58q125 -83 200 -212q-8 -39 -23 -63q-20 21 -117 101q-18 -28 -54 -53q-8 -6 -8 -7
q39 -12 141 -93q-38 -50 -101 -87q37 -23 67 -56q42 38 87 83q34 -43 74 -107zM187 48q10 18 27 50q49 90 58 121l-95 31q-15 -86 -72 -170zM50 342q23 3 65 4h56q30 0 69 -4q-2 16 -3 39q-1 19 -1 62v135v133q3 1 11 4q187 64 265 67q146 6 243 1q99 -6 191 -25
q-40 48 -45 111q-373 5 -522 -33q-33 -10 -85 -33q-63 -31 -90 -25q-53 23 -91 103q-31 -34 -87 -71q45 -29 135 -103v-282h-50q-47 -1 -61 4v-87zM577 90q15 3 28 3q10 1 52 1h155q53 -1 95 -4v75q-27 -4 -78 -4h-55v175h38q55 -1 91 -4v75q-8 -2 -26 -3q-13 -1 -54 -1h-49
v216h55q40 0 80 -4v76q-20 -4 -66 -4h-202q-67 -1 -85 4v-78q28 6 85 6h55v-216h-33q-48 0 -82 6v-79q37 6 88 6h27v-175h-55q-44 -1 -64 4v-75z" />
</svg>
