<?xml version="1.0" standalone="no"?>
<!DOCTYPE svg PUBLIC "-//W3C//DTD SVG 1.1//EN" "http://www.w3.org/Graphics/SVG/1.1/DTD/svg11.dtd" >
<svg xmlns="http://www.w3.org/2000/svg" xmlns:xlink="http://www.w3.org/1999/xlink" version="1.1" viewBox="-10 0 1034 1024">
  <g transform="matrix(1 0 0 -1 0 820)">
   <path fill="currentColor"
d="M112 394q-42 0 -62 5h-2v-45q19 3 64 4h87v-328q-34 -12 -54 -28q-21 -15 -67 -59l-20 -19q27 -24 38 -39q24 42 49 67q36 39 79 39q31 0 74 -19l110 -53q9 -1 21 -7q63 -18 187 -24l216 -4l131 1q0 1 18 58q-30 -10 -70 -14q-78 -3 -176 -5q-193 0 -282 22
q-43 10 -127 51q-48 24 -90 36l1 314l4 52l-41 -4zM137 695q-10 9 -19 18q-18 -19 -34 -33q96 -63 154 -139q15 18 34 34q-60 57 -78 71zM773 726l-412 1l-25 4v-46q22 3 47 5h355l-69 -59q-30 -24 -70 -52q-13 12 -70 47q-9 4 -28 18q-21 -27 -29 -38q105 -39 165 -102
h-222l-17 2q-18 0 -43 4q3 -36 4 -49q1 -19 2 -119l-3 -330q-1 -1 -3 -7h50q-4 15 -5 57v107h198v-84q0 -24 -3 -49q0 -4 -3 -11h50l-5 58v86h203v-74q0 -21 -5 -31q-3 -6 -19 -12q-19 -3 -37 -4q-18 0 -52 4q15 -45 16 -50q48 4 74 10q18 3 31 11q30 15 30 75l1 358l4 54
q-21 -1 -42 -4q-13 -1 -16 -2h-180q3 4 26 27l-38 27q55 46 106 84q31 25 99 87q0 1 2 2l-64 -4q-1 0 -3 -1zM400 204v115h198v-115h-198zM400 355v113h198v-113h-198zM840 204h-203v115h203v-115zM637 355v113h203v-113h-203z" />
  </g>

</svg>
