<?xml version="1.0" standalone="no"?>
<!DOCTYPE svg PUBLIC "-//W3C//DTD SVG 1.1//EN" "http://www.w3.org/Graphics/SVG/1.1/DTD/svg11.dtd" >
<svg xmlns="http://www.w3.org/2000/svg" xmlns:xlink="http://www.w3.org/1999/xlink" version="1.1" viewBox="-10 0 1010 1000">
   <path fill="currentColor"
d="M562 -10q102 33 101 40t-19 13q-19 5 -27 13q-44 39 -103 92q-30 27 -44 39l296 -6q-45 -42 -85 -66l63 -41q56 36 189 157l-80 45q-9 -17 -32 -41q-401 5 -464 39q-4 -37 -32 -87q103 -10 237 -197zM187 58q61 108 85 169l-91 29q-19 -88 -76 -170zM488 254q4 2 11 5
q82 37 76 43q-1 1 -6 2q-21 3 -45 20q-74 53 -161 111q-21 -32 -57 -50q104 -50 182 -131zM688 260q138 61 225 107l-68 62q-48 -50 -202 -117zM248 352q-2 11 -3 33q-1 17 -1 64v260q103 95 208 103q356 0 504 -22q-3 7 -14 24q-32 53 -33 75q-229 0 -302 -1
q-94 -2 -148 -7q-103 -7 -169 -47q-21 -12 -47 -32q-32 -26 -56 -24q-42 10 -102 111q-17 -29 -44 -63q-13 -17 -19 -26q11 -8 36 -25q64 -47 107 -72v-272h-44q-43 0 -76 4h-3v-83q19 3 85 4h30q61 -1 91 -4zM512 356q79 13 89 31q-1 3 -9 8q-9 6 -15 12q-7 7 -20 26
q-8 11 -13 18h186q35 0 83 -9q5 -1 8 -1q-70 143 -105 186q59 33 157 82q-50 33 -75 65q-58 -47 -143 -95q-91 56 -262 99q-15 -42 -54 -79q130 0 242 -56q-47 -25 -131 -53l58 -50q42 15 125 51q8 3 12 5q33 -30 61 -94h-204q-66 60 -99 96q-37 -36 -72 -46
q135 -88 181 -196z" />
</svg>
