<?xml version="1.0" standalone="no"?>
<!DOCTYPE svg PUBLIC "-//W3C//DTD SVG 1.1//EN" "http://www.w3.org/Graphics/SVG/1.1/DTD/svg11.dtd" >
<svg xmlns="http://www.w3.org/2000/svg" xmlns:xlink="http://www.w3.org/1999/xlink" version="1.1" viewBox="-10 0 1034 1024">
  <g transform="matrix(1 0 0 -1 0 820)">
   <path fill="currentColor"
d="M116 357q-34 0 -53 3q-3 0 -11 2v-46q24 4 42 5h117v-320q-39 -15 -60 -30q-12 -7 -35 -28l-54 -45q22 -15 40 -33q22 36 51 59q51 39 76 39q21 0 68 -25q66 -36 80 -43q22 -9 44 -17q57 -16 187 -17l345 7q3 24 15 53q1 3 3 8q-30 -9 -44 -11q-24 -4 -65 -8
q-57 -4 -131 -7q-76 -3 -194 -3q-57 3 -86 8q-30 6 -51 15q-15 6 -90 50q-33 18 -62 30l1 305l4 54q-27 -1 -56 -5h-81zM241 593l-86 79q-21 18 -43 38l-12 -15q-10 -10 -25 -22q33 -15 86 -62q48 -43 74 -82q15 18 34 38zM602 636h-231q-36 0 -54 3q-3 0 -11 2v-46
q24 4 39 5h257v-103q-181 0 -220 3q-7 1 -15 2q6 -58 7 -75q0 -100 -2 -124q-3 -12 -5 -32q66 6 84 5h127q-54 -72 -150 -150q-66 -51 -124 -70q25 -19 43 -38q60 42 117 89q33 27 61 55q30 31 77 85v-244q0 -25 -2 -49q-1 -4 -3 -11h48q-4 15 -5 33v252q3 0 119 -89
q3 -3 9 -7q69 -57 94 -82l22 -25q13 24 32 41q-21 16 -39 30l-213 161l-24 19l192 -1l45 -4q-4 45 -5 71l3 140q0 15 2 20q-27 -1 -55 -5h-182v103l255 -1l30 -4h4v46q-30 -1 -62 -5h-227v74q0 33 12 63h-55q0 -6 3 -12q1 -36 2 -100v-25zM411 312v149h191v-149h-191z
M640 312v149h194v-149h-194z" />
  </g>

</svg>
