<?xml version="1.0" standalone="no"?>
<!DOCTYPE svg PUBLIC "-//W3C//DTD SVG 1.1//EN" "http://www.w3.org/Graphics/SVG/1.1/DTD/svg11.dtd" >
<svg xmlns="http://www.w3.org/2000/svg" xmlns:xlink="http://www.w3.org/1999/xlink" version="1.1" viewBox="-10 0 1010 1000">
   <path fill="currentColor"
d="M484 -19q89 19 95 29q-1 5 -14 12q-25 14 -45 34h234q49 -1 117 -12q-90 129 -202 204q60 25 126 33q69 9 167 5q-38 35 -59 89q-202 -30 -294 -89q-84 52 -292 97q-12 -38 -51 -81q150 5 290 -56q-59 -42 -104 -105q-54 65 -99 101q-3 -1 -8 -4q-41 -24 -69 -33
q95 -55 208 -224zM183 24q34 90 61 199l-87 27q-16 -117 -62 -198zM724 115h-218l7 7q58 60 104 91q70 -49 107 -98zM40 324q37 6 105 6q56 0 101 -6q-13 51 -12 73v306q21 9 60 28q138 79 345 73q216 -1 309 -12q-35 46 -39 95q-364 -4 -471 -22q-53 -8 -164 -68
q-54 -29 -64 -29q-33 -3 -105 105l-73 -61q56 -43 123 -101v-310q-66 0 -115 8v-85zM560 330q37 -5 67 -4q28 1 28 8q0 8 -5 23q-7 24 -7 44h111q74 0 127 -8v76q-21 -5 -50 -6q-14 -1 -32 -2h-45h-109v57h93q59 0 119 -8v74q-33 -6 -117 -6h-95v59h133q79 0 135 -8v80
q-58 -11 -127 -12h-137q0 43 6 74q2 8 2 11h-97q0 -3 1 -11q6 -31 6 -74h-138q-64 0 -131 8v-76q49 8 125 8h144v-59h-103q-73 0 -109 6v-74q37 8 111 8h101v-57h-121q-68 0 -113 8v-76q48 8 115 8h119q1 -20 -5 -60q-2 -9 -2 -11z" />
</svg>
