<?xml version="1.0" standalone="no"?>
<!DOCTYPE svg PUBLIC "-//W3C//DTD SVG 1.1//EN" "http://www.w3.org/Graphics/SVG/1.1/DTD/svg11.dtd" >
<svg xmlns="http://www.w3.org/2000/svg" xmlns:xlink="http://www.w3.org/1999/xlink" version="1.1" viewBox="-10 0 1034 1024">
  <g transform="matrix(1 0 0 -1 0 820)">
   <path fill="currentColor"
d="M121 387q-42 0 -62 5h-2v-46q24 4 42 5h96v-339q-33 -9 -84 -39q-27 -18 -52 -31q18 -25 33 -49q18 28 44 46q42 36 79 36q33 0 67 -17l85 -41q12 -6 33 -13q60 -21 159 -24q76 -3 156 -4l201 3q9 0 38 -3q6 34 15 56q0 3 2 6q-48 -12 -81 -15q-52 -3 -133 -5
q-78 -3 -133 -3q-106 0 -162 11q-49 9 -118 42l-39 18q-15 7 -27 12q-16 7 -46 17l1 332l4 45q-27 -1 -54 -5h-62zM133 679q34 -24 73 -69q40 -49 59 -84q12 10 20 17q9 6 17 13q-36 46 -74 90q-33 36 -60 63q-15 -15 -35 -30zM528 660l48 56q-27 9 -50 26q-27 -69 -82 -144
q-36 54 -66 81q-36 31 -39 34l-35 -33q49 -21 117 -111q-13 -19 -28 -35q-13 -16 -39 -40q-18 -18 -32 -29q-13 -9 -33 -21q30 -19 41 -31q69 72 109 117q18 -54 27 -106q-36 -69 -81 -127q-57 -70 -109 -102q30 -12 48 -28q51 60 86 104q30 40 64 90q6 -69 6 -112
q0 -52 -4 -104q-4 -55 -29 -75q-16 -12 -46 -12q-15 0 -47 4q15 -33 22 -53q30 4 47 8q39 12 55 29q37 36 38 193q0 130 -18 225q-10 42 -32 100zM713 65l-173 3q-3 0 -7 2v-46l36 4l297 1q24 0 56 -4q3 0 7 -1v46q-6 0 -11 -2q-21 -3 -52 -3h-115v286q57 0 117 -3l2 -1
q3 0 7 -1v46l-35 -4l-91 -1v233q72 0 152 -3q4 -1 9 -3v47q-9 0 -13 -2q-13 -3 -51 -4l-281 3q-3 1 -4 1q-3 0 -11 2v-47q6 3 10 3q24 1 56 3h95v-233q-105 0 -120 3q-3 1 -8 2v-46q24 4 42 5h86v-286z" />
  </g>

</svg>
