<?xml version="1.0" standalone="no"?>
<!DOCTYPE svg PUBLIC "-//W3C//DTD SVG 1.1//EN" "http://www.w3.org/Graphics/SVG/1.1/DTD/svg11.dtd" >
<svg xmlns="http://www.w3.org/2000/svg" xmlns:xlink="http://www.w3.org/1999/xlink" version="1.1" viewBox="-10 0 1034 1024">
  <g transform="matrix(1 0 0 -1 0 820)">
   <path fill="currentColor"
d="M290 589l-59 66l-63 74q-15 -15 -35 -31q33 -31 74 -82q43 -54 59 -79q36 33 38 35zM930 710q-7 0 -11 -3q-27 0 -54 -3l-519 1l-42 5v-47l17 2q24 1 49 3l530 -1q7 0 16 -2q1 0 14 -2v47zM339 520q3 -55 4 -68l-1 -391q-1 -9 -2 -21q0 -3 -2 -13h47q-4 45 -5 69v406h155
v-388q0 -25 -9 -33q-9 -7 -31 -8q-18 0 -51 7l13 -38q0 -7 3 -15q57 3 86 17q25 12 26 58l1 385q1 27 5 56q-33 -1 -67 -5l-126 1q-3 0 -47 4q0 -10 1 -23zM459 375q-6 12 -13 27q-16 -9 -38 -17q54 -108 71 -164q18 9 38 17zM647 95l-4 -63l-1 -6h48q-6 24 -6 47v433h171
v-414q0 -18 -11 -28q-15 -9 -41 -10q-12 0 -42 4q12 -24 22 -53q13 1 21 4q33 4 57 15q31 16 32 69l1 404l4 50q-33 -1 -68 -5l-143 1q-19 3 -45 4q1 -33 5 -68v-384zM770 383l-13 31q-19 -10 -36 -18q42 -87 64 -171q21 12 43 18q-30 69 -58 140zM956 -116q4 28 17 53
q-54 -7 -92 -12q-87 -4 -214 -6q-100 0 -158 11q-82 15 -176 69q-30 16 -50 26q-10 4 -41 14l1 322q1 27 5 53q-18 -1 -31 -2q-19 -3 -30 -4h-63q-25 3 -50 4q-1 0 -16 2v-47q66 6 88 6h59v-334q-63 -27 -139 -94q12 -9 26 -29q3 -3 4 -6q3 -3 8 -10q15 31 40 54
q51 48 86 48q27 0 98 -42q75 -45 141 -62q49 -10 98 -16q73 -3 162 -4l116 3q78 3 111 3v0z" />
  </g>

</svg>
