<?xml version="1.0" standalone="no"?>
<!DOCTYPE svg PUBLIC "-//W3C//DTD SVG 1.1//EN" "http://www.w3.org/Graphics/SVG/1.1/DTD/svg11.dtd" >
<svg xmlns="http://www.w3.org/2000/svg" xmlns:xlink="http://www.w3.org/1999/xlink" version="1.1" viewBox="-10 0 1010 1000">
   <path fill="currentColor"
d="M633 -6q4 10 10 29q24 63 28 83h148q63 0 100 -6q0 67 1 94q1 34 5 60h-90q4 -35 4 -81h-464v56q1 21 2 39h-89q10 -88 4 -172q57 10 103 10h188q-22 -51 -43 -84zM192 62q44 87 70 159l-85 25q-34 -109 -64 -156zM812 238q-1 14 -2 38v26v42q0 31 2 79q1 19 1 28
q-23 -2 -91 -2h-248v67h256q56 -1 111 -8v76v65q0 40 4 78q-32 -3 -38 -2h-28h-47h-196q-85 0 -139 6q4 -26 5 -51q1 -13 1 -30v-48v-244q0 -102 -6 -120q57 6 139 6h160q44 0 66 -1q27 -1 50 -5zM474 304v85h264v-85h-264zM58 326q9 6 67 6h67q57 1 70 -4q-6 31 -6 113v266
q10 5 31 20q89 69 221 71q151 4 256 0q102 -4 188 -18q-24 34 -35 97q-185 4 -377 -6q-214 -23 -266 -76q-38 -24 -56 -23q-41 -5 -121 86q-27 -49 -55 -78q65 -41 137 -79v-298q-99 0 -121 8v-85zM770 576h-296v89h296v-89z" />
</svg>
