<?xml version="1.0" standalone="no"?>
<!DOCTYPE svg PUBLIC "-//W3C//DTD SVG 1.1//EN" "http://www.w3.org/Graphics/SVG/1.1/DTD/svg11.dtd" >
<svg xmlns="http://www.w3.org/2000/svg" xmlns:xlink="http://www.w3.org/1999/xlink" version="1.1" viewBox="-10 0 1034 1024">
  <g transform="matrix(1 0 0 -1 0 820)">
   <path fill="currentColor"
d="M128 679q-15 -12 -30 -29l84 -75q25 -25 52 -56q13 19 30 32q-45 45 -75 73q-25 24 -61 55zM599 431q0 -39 -5 -69h48q-4 57 -5 113v16l32 -18q166 -96 228 -143q12 16 24 37q-70 43 -99 60q-6 3 -108 61q-3 3 -49 29q-1 1 -2 1h192q45 0 66 -5v47q-54 -6 -66 -6h-218
v110q39 3 154 23q22 3 41 0q4 0 10 -2q-25 36 -37 57q-21 -10 -43 -18q-45 -12 -108 -23q-97 -15 -215 -16q-33 0 -69 7q13 -27 17 -47q51 0 92 4q46 3 120 11v-106h-203q-21 0 -49 3q-6 0 -16 3v-47q-3 0 9 1q72 3 76 4h134q-55 -64 -134 -117q-75 -42 -131 -54
q30 -22 44 -38q36 18 68 37q33 19 68 44q36 24 61 48q30 27 73 77v-84zM538 288q-6 -10 -13 -21l-152 1l-42 4v-47q9 3 17 3q48 3 90 3h64q-25 -40 -43 -63q-15 -19 -38 -44l52 -14l115 -35q1 0 28 -11q-21 -15 -43 -26q-21 -9 -52 -19q-72 -21 -117 -21q-18 0 -51 5
q19 -24 30 -52q27 3 61 10l78 20q72 18 137 68q57 -21 119 -49q70 -31 96 -49q7 24 19 44q-84 36 -172 69q-18 6 -36 14q58 73 86 153q133 0 150 -2q9 0 23 -4v47q-9 0 -12 -2l-95 -3h-266q21 36 31 46q9 9 35 20q-24 10 -57 32q-12 -28 -25 -49q-9 -13 -17 -28zM490 145
q7 9 17 25l40 61h180q-28 -81 -82 -139l-73 25q-12 4 -82 28zM944 -131q9 28 24 54q-49 -7 -84 -10q-93 -4 -173 -6l-206 3q-87 1 -166 48q-60 36 -68 39q-9 4 -21 11l1 333l4 49l-101 -5q-54 0 -99 5v-46q-3 0 9 1q72 3 74 4h74v-341q-24 -6 -42 -15l-50 -30l-34 -25
l-31 -28q12 -9 34 -37q21 33 51 58q45 36 80 37q28 0 59 -20q22 -12 35 -20q18 -12 41 -24q28 -9 73 -23q37 -6 74 -9q4 1 12 0l230 -4z" />
  </g>

</svg>
