<?xml version="1.0" standalone="no"?>
<!DOCTYPE svg PUBLIC "-//W3C//DTD SVG 1.1//EN" "http://www.w3.org/Graphics/SVG/1.1/DTD/svg11.dtd" >
<svg xmlns="http://www.w3.org/2000/svg" xmlns:xlink="http://www.w3.org/1999/xlink" version="1.1" viewBox="-10 0 1034 1024">
  <g transform="matrix(1 0 0 -1 0 820)">
   <path fill="currentColor"
d="M305 1q-24 9 -56 18l1 321l4 43l-86 -5l-104 3q-3 1 -6 1q-3 1 -5 1v-46q24 4 42 5h117v-319q-51 -22 -82 -46q-33 -22 -80 -69q25 -18 42 -37q27 45 54 67q48 42 86 42q24 0 61 -16q93 -46 103 -50q78 -30 209 -30l268 7l84 1q3 27 14 60q-43 -12 -60 -15q-3 0 -17 -2
q-22 0 -80 -4q-45 -3 -116 -5l-124 -2q-117 0 -191 38zM114 664q99 -58 160 -145q13 18 34 35l-84 81q-51 48 -76 67q-15 -22 -34 -38zM829 309q-72 -117 -164 -181q-9 9 -21 17q-52 49 -76 68q-7 6 -16 14q-6 6 -19 17q-7 -9 -17 -19q-7 -7 -16 -14q30 -18 70 -51
q33 -27 59 -57q-42 -21 -77 -36q-30 -10 -63 -20q-63 -19 -114 -20q-9 0 -18 1q22 -27 32 -50q220 52 321 135q55 48 95 95q43 57 99 143q-16 -1 -29 -3q-21 -3 -28 -3h-314q18 22 30 41l19 24q12 13 37 29q-15 9 -36 29l267 -1l41 -4q-4 49 -5 71l1 152l4 45q-27 -1 -54 -5
l-448 1q-19 3 -41 4q4 -54 5 -87l-1 -138q-3 -15 -4 -43q49 4 81 5h137q-42 -81 -131 -171q-79 -78 -144 -103q31 -19 49 -37q9 9 14 15q57 48 88 77l61 60h326zM390 504v186h126v-186h-126zM553 504v186h120v-186h-120zM710 504v186h138v-186h-138z" />
  </g>

</svg>
