<?xml version="1.0" standalone="no"?>
<!DOCTYPE svg PUBLIC "-//W3C//DTD SVG 1.1//EN" "http://www.w3.org/Graphics/SVG/1.1/DTD/svg11.dtd" >
<svg xmlns="http://www.w3.org/2000/svg" xmlns:xlink="http://www.w3.org/1999/xlink" version="1.1" viewBox="-10 0 1034 1024">
  <g transform="matrix(1 0 0 -1 0 820)">
   <path fill="currentColor"
d="M247 396q-24 -1 -49 -5q-109 0 -133 2q-7 1 -16 4v-47q24 4 42 5h124v-326q-60 -27 -108 -78q-30 -31 -45 -46q22 -15 39 -35q12 18 22 34q10 12 21 27q51 57 87 58q15 0 46 -15q18 -9 47 -26q69 -36 108 -48q69 -16 190 -17h339q4 27 17 61q-39 -10 -88 -15
q-130 -7 -251 -9q-120 0 -178 11q-28 6 -56 17q-27 10 -75 40q-42 24 -78 38l1 322l4 49q-6 0 -10 -1zM149 685q-10 10 -21 19q-16 -19 -35 -37q99 -54 162 -144q15 22 34 39q-15 12 -30 27l-49 45zM347 674q24 4 47 5l491 -1q21 0 30 -4h5v46l-35 -4l-524 1q-6 0 -14 3v-46
zM388 3q24 3 50 4l403 -1q4 0 13 -2q9 0 27 -2q-3 28 -5 57l1 269l4 45l-56 -6l-396 1q-19 4 -51 5q0 -6 5 -58l-1 -274q-3 -12 -4 -39q4 1 10 1zM421 43v132h183v-132h-183zM421 211v121h183v-121h-183zM641 211v121h197v-121h-197zM838 43h-197v132h197v-132zM760 438
q27 -1 55 -5q-4 45 -5 88q1 42 5 83q-27 -1 -55 -5l-283 1q-19 3 -44 4q4 -99 5 -102q0 -22 -5 -69q30 3 62 5h265zM475 474v90h297v-90h-297z" />
  </g>

</svg>
