<?xml version="1.0" standalone="no"?>
<!DOCTYPE svg PUBLIC "-//W3C//DTD SVG 1.1//EN" "http://www.w3.org/Graphics/SVG/1.1/DTD/svg11.dtd" >
<svg xmlns="http://www.w3.org/2000/svg" xmlns:xlink="http://www.w3.org/1999/xlink" version="1.1" viewBox="-10 0 1034 1024">
  <g transform="matrix(1 0 0 -1 0 820)">
   <path fill="currentColor"
d="M357 -88q40 -21 92 -36q73 -18 195 -18l317 5q4 18 13 39q3 7 8 19q-45 -12 -93 -17q-111 -7 -240 -10q-82 0 -148 10q-81 12 -159 59l-53 30q-16 6 -37 15l1 328l4 43q-55 -4 -83 -5q-90 0 -106 3q-3 1 -8 2v-47q12 6 39 6h116v-331q-61 -22 -103 -56l-39 -30
q-6 -6 -18 -14q22 -15 44 -37q18 31 37 49q48 48 96 48q30 0 62 -18q31 -18 63 -37zM264 568q-7 7 -15 14l-47 42q-36 33 -70 61q-13 -18 -33 -37q93 -51 138 -125q15 19 35 38q-4 4 -8 7zM916 139q-57 52 -111 99l-118 92l44 35l51 42q30 30 38 34q13 12 43 19
q-25 21 -45 42q-27 -34 -53 -59q-6 -6 -88 -77q-4 -3 -9 -8q-21 37 -44 65q-21 22 -67 62q28 21 62 50l270 -1q21 0 29 -4l2 -1h5v48q-16 -6 -62 -7h-181q3 9 28 39q19 30 33 43q46 63 54 68q9 10 27 25q-27 9 -55 25q-24 -48 -55 -95q-33 -48 -80 -105l-293 1q-21 3 -26 6
v-48q22 4 46 6h202q-85 -72 -176 -109q-51 -18 -74 -19q22 -24 34 -43q85 39 177 98q28 -21 52 -44q-48 -51 -145 -115q-69 -42 -122 -52q19 -22 30 -42q94 46 156 92q60 45 75 59q21 18 34 32q21 -28 37 -68q-36 -40 -76 -72q-42 -33 -103 -74q-96 -58 -159 -68
q18 -21 35 -45l89 47q27 15 66 41q94 64 161 132q6 -33 6 -62q0 -36 -6 -69q-9 -69 -39 -100q-36 -37 -117 -38q-24 0 -57 3q10 -27 14 -51l92 11q6 1 14 4q72 19 104 77q30 60 30 153q0 25 -3 66q63 -45 87 -67q27 -24 91 -88q10 -12 27 -40q18 18 36 40q-9 7 -17 15z
M557 639l-72 61q-25 24 -72 59q-10 -16 -32 -38q94 -49 143 -121q19 25 33 39v0z" />
  </g>

</svg>
