<?xml version="1.0" standalone="no"?>
<!DOCTYPE svg PUBLIC "-//W3C//DTD SVG 1.1//EN" "http://www.w3.org/Graphics/SVG/1.1/DTD/svg11.dtd" >
<svg xmlns="http://www.w3.org/2000/svg" xmlns:xlink="http://www.w3.org/1999/xlink" version="1.1" viewBox="-10 0 1034 1024">
  <g transform="matrix(1 0 0 -1 0 820)">
   <path fill="currentColor"
d="M145 707q-15 -15 -33 -29q94 -76 151 -142q15 16 33 33zM946 459q-9 0 -12 -2l-89 -3l-513 1q-3 0 -34 4v-46q-3 0 9 1q3 0 8 1q24 0 48 3h212q-6 -18 -11 -28q-9 -19 -36 -67q-1 -1 -3 -4q-85 0 -107 2q-19 3 -44 4q1 -33 5 -67l-1 -251q-1 -9 -2 -21q0 -3 -2 -13h49
q-6 28 -6 67v243h107l-1 -227q0 -15 -5 -33h50q-6 24 -6 68v192h115l-1 -221q-1 -9 -2 -22q0 -3 -3 -13h49q-4 54 -5 69v187h119v-227q0 -24 -11 -34q-15 -12 -42 -13l-26 3q-12 3 -28 4q12 -21 17 -50q57 3 78 8q49 10 50 81l1 219l4 51q-37 -6 -67 -6h-239q46 94 50 99
h259q43 0 66 -5v46zM427 569q0 114 3 118q3 21 10 31h-57q0 -6 3 -12l3 -113l-6 -65q31 3 65 5l353 1l67 -6q-4 54 -5 81q0 76 3 82q3 15 10 30h-58q1 -9 5 -21l2 -131h-180v121q0 16 3 32q1 18 11 37h-58q0 -6 3 -14q0 -39 3 -79v-97h-180zM703 -120l245 2q9 34 22 56
q-40 -6 -71 -9q-139 -7 -216 -8l-186 3q-79 3 -140 38q-79 42 -93 47l1 335l4 49q-30 -1 -60 -5l-149 4q-3 1 -6 1v-46q-3 0 9 1q3 0 8 1q24 0 48 3h107v-333q-36 -10 -76 -39q-37 -27 -68 -59q9 -7 33 -35q33 40 52 55q42 36 69 34q19 0 49 -20q55 -30 101 -48
q61 -22 144 -25z" />
  </g>

</svg>
