<?xml version="1.0" standalone="no"?>
<!DOCTYPE svg PUBLIC "-//W3C//DTD SVG 1.1//EN" "http://www.w3.org/Graphics/SVG/1.1/DTD/svg11.dtd" >
<svg xmlns="http://www.w3.org/2000/svg" xmlns:xlink="http://www.w3.org/1999/xlink" version="1.1" viewBox="-10 0 1010 1000">
   <path fill="currentColor"
d="M873 28q-2 21 -2 54v123q0 47 4 67q-18 -5 -67 -4h-108l-69 2v-71l73 4h92v-105h-94q-48 0 -71 4v-74q36 4 69 4h117q24 0 56 -4zM327 32q27 3 86 4h89q49 -1 85 -4q-8 30 -8 66v99q-1 56 4 75q-18 -4 -57 -4h-121v101h97q27 0 69 -4v66q-24 -4 -73 -4h-93v107h95
q19 0 49 -1q19 -1 26 -1v64q-19 -5 -71 -4h-99v37q0 49 1 71q1 26 3 44l-84 -2q8 -61 8 -113v-527q0 -40 -6 -70zM171 34q44 92 77 185l-87 29q-27 -95 -74 -190zM405 96v113h103v-113h-103zM40 324q21 3 71 4h68q15 0 53 -3q4 -1 6 -1q-8 51 -8 117v266q61 58 294 77
q243 17 438 -22q-36 53 -43 109q-491 8 -633 -51q-21 -9 -53 -28q-44 -28 -62 -24q-42 14 -82 99q-31 -45 -73 -75q86 -64 139 -99v-296h-50q-42 0 -65 4v-77zM601 346q12 2 33 3q16 1 60 1h127q48 -1 74 -4q-44 155 -85 232q23 17 63 49q46 36 65 50l-59 65
q-58 -66 -107 -109q-82 74 -205 125q-20 -45 -61 -73q112 -14 206 -97q-46 -42 -117 -84l58 -43q50 38 97 77q38 -82 44 -125h-106q-40 0 -56 1q-19 1 -31 3v-71z" />
</svg>
