<?xml version="1.0" standalone="no"?>
<!DOCTYPE svg PUBLIC "-//W3C//DTD SVG 1.1//EN" "http://www.w3.org/Graphics/SVG/1.1/DTD/svg11.dtd" >
<svg xmlns="http://www.w3.org/2000/svg" xmlns:xlink="http://www.w3.org/1999/xlink" version="1.1" viewBox="-10 0 1010 1000">
   <path fill="currentColor"
d="M367 30q8 1 34 3q30 3 49 5h324q39 0 95 -8q-8 45 -8 78v144q0 37 8 76q-45 -9 -85 -8h-252q-20 29 -44 56q-5 6 -8 9h328q49 -1 97 -8q-8 60 -13 199q-4 123 -11 133q-18 28 -137 43q-7 -50 -32 -87q76 8 90 -14q10 4 15 -156q1 -25 2 -38h-164l-18 28q67 34 141 81
l-58 55q-46 -50 -115 -91q-30 39 -81 85q-23 -32 -66 -45q80 -45 121 -113h-158l-38 26q19 3 53 3q19 1 18 2q-21 26 -23 143h148q73 0 118 -7q4 -1 5 -1v88q-41 -8 -117 -8h-133l-101 8q15 -55 14 -213l-52 42q-16 -29 -61 -53q119 -56 194 -169q-29 0 -79 10q6 -27 8 -74
v-152q-2 -51 -8 -72zM196 30q56 86 96 179l-88 35q-39 -107 -91 -180zM450 96v53h336v-53h-336zM450 209v51h336v-51h-336zM46 326q64 6 97 6h24q9 0 38 -2q22 -1 35 -2q-8 48 -8 79v296q18 7 53 23q124 63 255 62q250 4 404 -24q-40 48 -49 105q-370 2 -492 -17
q-63 -14 -144 -62q-53 -31 -71 -26q-33 12 -81 92l-79 -68q71 -63 129 -97v-288q-6 0 -20 1q-65 4 -91 7v-85z" />
</svg>
