<?xml version="1.0" standalone="no"?>
<!DOCTYPE svg PUBLIC "-//W3C//DTD SVG 1.1//EN" "http://www.w3.org/Graphics/SVG/1.1/DTD/svg11.dtd" >
<svg xmlns="http://www.w3.org/2000/svg" xmlns:xlink="http://www.w3.org/1999/xlink" version="1.1" viewBox="-10 0 1034 1024">
  <g transform="matrix(1 0 0 -1 0 820)">
   <path fill="currentColor"
d="M259 576q-52 42 -82 69l-52 43q-13 -16 -28 -30q45 -36 89 -74q46 -42 70 -69q12 19 29 37zM609 6l-237 1q-39 4 -42 5v-47q-3 0 9 1q3 0 9 1q21 0 47 3h474q45 0 65 -5v47q-3 0 -6 -2q-3 0 -5 -1q-27 0 -54 -3h-222v103h144q28 0 50 -3q3 0 15 -2v47q-18 -1 -35 -5
l-174 -1v95l233 -1q13 0 32 -5v47q-4 0 -7 -1q-3 0 -5 -1q-27 0 -54 -3l-450 1q-12 1 -22 2q-3 0 -17 2v-47q19 4 49 5l203 1v-95l-179 1l-42 5v-47q54 6 76 5h145v-103zM388 424q-3 -30 -5 -63q15 3 52 4l369 1q28 0 64 -5q-4 52 -5 97q0 148 2 161q0 18 3 35
q-31 -1 -64 -5h-236q30 73 33 74q9 12 25 21q-12 3 -23 8q-10 4 -19 8q-9 3 -16 6q-6 -25 -27 -83q-1 -1 -2 -5q-6 -15 -12 -29q-79 0 -105 2q-6 3 -39 3q4 -66 5 -95v-135zM425 523v90h400v-90h-400zM825 487v-85h-400v85h400zM64 -118q12 -13 27 -28q21 36 46 57
q40 39 82 40q27 0 54 -13l84 -47q64 -27 149 -37q45 -3 99 -6q52 -3 92 -2l244 3q6 28 20 50q-42 -4 -72 -7q-105 -4 -201 -6l-107 2q-52 0 -82 2q-75 6 -125 34l-90 47q-1 0 -12 5l-24 9l1 348l4 49q-30 -1 -61 -5l-111 2l-26 3v-46q-3 0 9 1q3 0 8 1l138 3v-353
q-42 -9 -66 -25q-24 -13 -88 -73z" />
  </g>

</svg>
