<?xml version="1.0" standalone="no"?>
<!DOCTYPE svg PUBLIC "-//W3C//DTD SVG 1.1//EN" "http://www.w3.org/Graphics/SVG/1.1/DTD/svg11.dtd" >
<svg xmlns="http://www.w3.org/2000/svg" xmlns:xlink="http://www.w3.org/1999/xlink" version="1.1" viewBox="-10 0 1010 1000">
   <path fill="currentColor"
d="M700 -13q92 26 92 35q0 5 -9 13q-37 32 -79 98h102q77 0 131 -6v76q-60 -6 -133 -6h-163q-11 21 -27 49q-15 27 -11 26h137q50 0 98 -7q4 -1 5 -1q-6 36 -6 94v277q0 59 6 98q-32 -6 -85 -6h-296q-60 0 -93 6q6 -43 6 -106v-254q0 -45 -6 -111q34 10 91 10h80l20 -75
h-143q-65 0 -129 6v-76q61 6 123 6h230q28 -46 59 -146zM488 -10q63 78 77 100l-69 39q-29 -51 -83 -105zM179 52q45 103 67 179l-87 25q-24 -107 -62 -174zM766 336h-320v75h320v-75zM250 354q1 2 -1 8q-7 27 -7 79v297q153 67 260 72q149 3 243 -3q80 -4 197 -23
q1 2 -4 12q-22 44 -25 93q-106 4 -186 4t-144 -3q-129 -6 -212 -28q-11 -3 -56 -21q-96 -40 -111 -37q-43 11 -95 91l-73 -67q49 -33 127 -95v-300h-34q-61 0 -81 5q-1 1 -2 1v-85l45 6h84q41 0 67 -6q7 -1 8 0zM766 463h-320v73h320v-73zM766 588h-318v75h318v-75z" />
</svg>
