<?xml version="1.0" standalone="no"?>
<!DOCTYPE svg PUBLIC "-//W3C//DTD SVG 1.1//EN" "http://www.w3.org/Graphics/SVG/1.1/DTD/svg11.dtd" >
<svg xmlns="http://www.w3.org/2000/svg" xmlns:xlink="http://www.w3.org/1999/xlink" version="1.1" viewBox="-10 0 1010 1000">
   <path fill="currentColor"
d="M671 -17q82 0 91 5q1 1 -4 9q-16 22 -16 39v38q92 -1 157 -8v69q-85 -9 -157 -10v58q79 0 127 -6v65q-51 -7 -127 -7v59h71q60 0 122 -8v70q-48 -8 -127 -8h-179v47h71q95 0 145 -6q-6 20 -6 80v139q58 0 99 -6v71q-45 -9 -99 -10v54v5q16 64 -127 74q-5 -49 -29 -85
q39 16 69 2q18 -7 16 -48h-331q-3 69 5 109h-81q6 -34 6 -107q-46 0 -91 4v-65q26 5 89 4v-131q0 -21 -6 -69q-1 -14 -2 -19q60 4 145 4h61v-47h-121q-115 1 -178 8v-70q43 7 184 8v-57q-98 2 -140 9v-69q58 7 140 8v-58q-98 1 -154 8v-65q40 6 154 6v-34q0 -30 -6 -54
q89 6 92 12q1 1 -3 7q-15 19 -15 39v30h159v-38q0 -32 -4 -55zM177 38q52 106 77 185l-87 23q-20 -93 -76 -184zM675 127h-159v58h159v-58zM675 237h-159v57h159v-57zM242 330q-1 8 -2 24q-4 37 -4 59v272q24 91 212 123q133 8 287 1q146 -6 231 -25q-38 37 -41 105
q-106 7 -268 2q-150 -4 -252 -18q-78 -10 -149 -65q-35 -27 -52 -26q-31 -7 -105 89q-9 10 -14 16q-21 -49 -53 -89q106 -62 127 -81v-306q-70 0 -117 8l2 -87q29 4 107 4q60 -1 91 -6zM629 447v55h139v-55h-139zM563 447h-126v55h126v-55zM629 550v62h139v-62h-139z
M437 550v62h126v-62h-126z" />
</svg>
