<?xml version="1.0" standalone="no"?>
<!DOCTYPE svg PUBLIC "-//W3C//DTD SVG 1.1//EN" "http://www.w3.org/Graphics/SVG/1.1/DTD/svg11.dtd" >
<svg xmlns="http://www.w3.org/2000/svg" xmlns:xlink="http://www.w3.org/1999/xlink" version="1.1" viewBox="-10 0 1010 1000">
   <path fill="currentColor"
d="M573 0q88 5 92 10q0 2 -4 9q-12 19 -12 35v30h69q123 0 153 -8q-10 23 -10 105q0 73 6 93q-2 0 -5 -1q-26 -10 -134 -9h-83v62h133h41q116 2 131 -6v75q-18 -5 -53 -7q-18 0 -43 -1h-72h-318h-80q-26 0 -40 1q-30 1 -46 7v-75q12 4 47 5q16 1 44 1h81h105v-62h-69
q-117 -1 -149 8q9 -31 8 -91q0 -83 -8 -105q32 8 161 8h59q0 -44 -3 -75q-1 -7 -1 -9zM210 46q41 70 74 169l-94 25q-20 -98 -65 -166zM438 137v76h137v-76h-137zM647 137v76h141v-76h-141zM60 332q24 7 93 8q73 0 99 -6q-6 18 -6 123v270q27 11 76 38q39 22 53 27
q61 18 227 17q154 -1 338 -23q-48 71 -47 101q-333 -1 -432 -10q-110 -9 -149 -39q-68 -47 -104 -44q-30 5 -79 81q-7 11 -8 12l-81 -69q1 -1 18 -14q89 -71 113 -85v-310q-97 3 -111 10v-87zM367 433q26 9 167 8h147q120 0 168 -8q-8 9 -8 97q0 57 2 80q1 24 6 41h-97
q9 -21 8 -121v-32h-308v34q0 110 8 127h-93q8 -20 8 -123q0 -68 -8 -103zM560 528q89 5 95 14q0 4 -7 14q-12 18 -15 30q-26 162 -254 200q-25 -46 -62 -73q255 8 243 -185zM623 695l58 -60q129 46 214 92l-68 65q-93 -56 -204 -97z" />
</svg>
