<?xml version="1.0" standalone="no"?>
<!DOCTYPE svg PUBLIC "-//W3C//DTD SVG 1.1//EN" "http://www.w3.org/Graphics/SVG/1.1/DTD/svg11.dtd" >
<svg xmlns="http://www.w3.org/2000/svg" xmlns:xlink="http://www.w3.org/1999/xlink" version="1.1" viewBox="-10 0 1034 1024">
  <g transform="matrix(1 0 0 -1 0 820)">
   <path fill="currentColor"
d="M112 367l-53 4q-3 1 -6 1q-3 1 -5 1v-47q12 3 9 3q18 3 80 3h70v-328q-33 -15 -44 -22q-16 -9 -38 -28q-31 -24 -68 -62q21 -12 42 -33q16 33 39 54q49 54 92 54q19 0 58 -15l19 -8q16 -6 35 -15q57 -27 102 -40q61 -15 161 -16q76 0 202 6q18 3 156 3q6 25 24 60
q-54 -13 -114 -19q-54 -4 -131 -8q-78 -3 -148 -3q-130 0 -207 35l-87 40q-24 9 -57 19l1 325q1 21 5 42q-54 -6 -72 -6h-65zM135 687l-17 14q-15 -21 -31 -37l40 -26q21 -15 45 -37q48 -45 70 -81q13 19 34 38l-24 24l-74 68zM378 512q45 4 83 5h118v-74q-267 0 -284 3
q-3 1 -8 2v-46q24 4 42 5l576 -1q21 0 29 -4h5v46q-6 0 -11 -2q-21 -3 -52 -3h-259v74l168 -1l42 -4q-4 45 -5 88q0 52 5 88q-1 1 0 1q-60 -6 -81 -6h-129v33q0 12 3 27q1 18 11 37h-57l5 -97q-144 0 -167 2l-34 4q1 -28 5 -58q0 -63 -2 -86q-3 -3 -3 -33zM420 553v94h159
v-94h-159zM617 553v94h167v-94h-167zM375 9q18 -24 29 -43q102 40 150 86q51 51 78 152q6 30 20 55q-27 1 -54 8q-1 -67 -19 -116q-30 -76 -119 -120q-49 -19 -85 -22zM391 352q1 -28 5 -58l-3 -186q-1 -1 -2 -6h49q-4 18 -5 60v149h359q0 -162 -2 -188q-1 -6 -3 -13h50
q-3 7 -6 58q0 151 3 157l3 27q-30 -1 -62 -5l-341 1q-19 3 -45 4zM653 98q54 -19 114 -58q54 -33 108 -78q12 25 24 42l-217 134q-18 -27 -29 -40v0z" />
  </g>

</svg>
