<?xml version="1.0" standalone="no"?>
<!DOCTYPE svg PUBLIC "-//W3C//DTD SVG 1.1//EN" "http://www.w3.org/Graphics/SVG/1.1/DTD/svg11.dtd" >
<svg xmlns="http://www.w3.org/2000/svg" xmlns:xlink="http://www.w3.org/1999/xlink" version="1.1" viewBox="-10 0 1034 1024">
  <g transform="matrix(1 0 0 -1 0 820)">
   <path fill="currentColor"
d="M805 -132l141 3q1 7 5 13q0 4 8 21q3 6 8 14q-61 -9 -117 -11q-75 -3 -213 -3l-142 4q-79 6 -156 45q-33 18 -86 43l-3 1l1 335q0 15 3 21q0 10 1 19q-60 -6 -85 -6l-89 1q-6 1 -8 2q-6 1 -14 3v-47q60 6 79 6h74v-331q-46 -15 -83 -41q-39 -27 -73 -58q9 -7 14 -14
l16 -24q31 42 61 65q43 34 74 35q18 0 41 -11l63 -34q66 -34 143 -45q60 -6 149 -7zM100 688q-4 -7 -13 -16q30 -21 80 -70q51 -48 72 -75q9 13 20 25q3 1 8 7q-63 61 -156 145q-6 -7 -11 -16zM361 457q0 -21 -6 -33q-6 -6 -19 -16q16 -25 29 -53q24 24 53 47l133 100
l34 -57q15 13 30 27l-49 70q-27 33 -50 68q-1 1 -2 3q-13 -12 -32 -23q7 -9 14 -16q12 -12 33 -45q-36 -28 -63 -48l-67 -46v219l186 63q12 3 35 4q-10 12 -21 22q-7 9 -17 24q-33 -22 -100 -49q-61 -24 -126 -31q1 -28 5 -59v-171zM440 330q-6 0 -61 5q1 -30 5 -62l-1 -246
q-3 -12 -4 -47q15 3 50 4l403 1q27 0 57 -5q-3 31 -5 64l1 246l4 45q-28 -1 -58 -5h-391zM421 21v117h191v-117h-191zM421 174v120h191v-120h-191zM650 21v117h196v-117h-196zM846 294v-120h-196v120h196zM869 660q-3 -123 -6 -157q-1 -31 -4 -38q-3 -19 -23 -25
q-15 -3 -34 -4q-28 0 -54 5q0 -3 1 -5q4 -4 5 -13q7 -27 8 -30q54 3 77 7q21 4 35 14q16 12 22 36q3 18 4 47q4 109 5 131q0 28 5 59q0 6 3 14q-57 -6 -82 -6l-191 1q-6 1 -8 2q-9 3 -14 3v-47q3 3 36 5l47 1q-6 -63 -13 -105q-6 -33 -19 -65q-34 -72 -93 -105l46 -24
q48 55 72 104q16 36 25 72q7 33 19 123h131z" />
  </g>

</svg>
