<?xml version="1.0" standalone="no"?>
<!DOCTYPE svg PUBLIC "-//W3C//DTD SVG 1.1//EN" "http://www.w3.org/Graphics/SVG/1.1/DTD/svg11.dtd" >
<svg xmlns="http://www.w3.org/2000/svg" xmlns:xlink="http://www.w3.org/1999/xlink" version="1.1" viewBox="-10 0 1010 1000">
   <path fill="currentColor"
d="M188 28q26 39 72 185l-89 24q-4 -18 -7 -32q-7 -53 -42 -118q-6 -14 -15 -33zM357 32q30 6 78 6h343q43 0 79 -6q-6 39 -6 91v108q0 41 6 89q-22 -5 -71 -4h-338q-64 0 -93 4q6 -28 6 -64v-146q0 -42 -4 -78zM776 94h-339v57h339v-57zM437 203v57h339v-57h-339zM50 330
q35 3 83 4h46q35 -1 59 -4q-5 15 -4 73v304q45 63 261 84q104 9 221 4q117 -6 226 -25q-36 49 -49 99q-101 2 -171 2q-71 0 -127 -2q-112 -3 -182 -15q-58 -10 -142 -54q-50 -25 -67 -26q-45 2 -111 93q-27 -43 -57 -73q53 -39 123 -79v-312h-46q-49 -1 -63 4v-77zM613 363
q47 4 81 4h102q56 -1 95 -4q-8 35 -8 80v246q17 60 -145 75q-3 -40 -32 -83q70 6 90 0q22 -6 21 -32v-79q-129 53 -204 99q-9 -48 -28 -73q44 -1 232 -78v-97h-127q-32 0 -65 3q-8 1 -12 1v-62zM714 443q4 11 12 36q11 33 18 53l-63 18q-7 -47 -26 -89zM308 367q45 4 81 4
h101q57 -1 95 -4q-8 35 -8 80v246q17 60 -144 75q-3 -40 -32 -83q69 6 90 0q22 -6 21 -32v-79q-129 53 -204 99q-18 -42 -36 -67q31 1 240 -84v-97h-127q-34 0 -67 3q-6 1 -10 1v-62zM409 447q2 5 5 14q7 21 24 75l-63 18q-8 -49 -26 -89z" />
</svg>
