<?xml version="1.0" standalone="no"?>
<!DOCTYPE svg PUBLIC "-//W3C//DTD SVG 1.1//EN" "http://www.w3.org/Graphics/SVG/1.1/DTD/svg11.dtd" >
<svg xmlns="http://www.w3.org/2000/svg" xmlns:xlink="http://www.w3.org/1999/xlink" version="1.1" viewBox="-10 0 1034 1024">
  <g transform="matrix(1 0 0 -1 0 820)">
   <path fill="currentColor"
d="M231 385q-24 -1 -50 -5l-105 1q-9 1 -14 2q-3 0 -11 2v-46q24 4 42 5h104v-340q-37 -21 -57 -37l-70 -67q-7 -9 -17 -17q31 -13 46 -24q24 42 56 72q36 33 64 33q16 0 63 -20q124 -51 134 -54q24 -7 70 -14q7 0 18 -2q72 -3 154 -4l300 5q3 12 19 60q-33 -9 -66 -13
q-63 -9 -126 -11l-224 -4q-48 1 -87 8q-60 12 -136 47q-61 27 -104 44l1 332l4 47h-8zM247 587l-65 61l-69 58q-16 -21 -30 -34q27 -18 78 -63q30 -27 48 -45q16 -18 29 -36q15 18 33 36q-12 12 -24 23zM605 262h-234q-36 0 -55 3q-3 0 -11 2v-46q6 0 10 2q24 1 56 3h234
v-175l-170 -6q0 72 2 79q0 7 12 52h-58q0 -3 3 -8l3 -104q0 -7 -3 -31l-3 -28q42 4 60 5l364 17q0 -25 -3 -44q0 -3 -3 -12h49q-3 6 -5 49q0 106 2 114q0 7 13 51h-59q0 -3 1 -5q1 -28 5 -59v-60l-172 -8v173l257 -1l28 -4v46q-30 -1 -62 -5h-223v119q177 0 186 -2
q6 0 10 -2q3 0 7 -1v47q-13 -3 -47 -6h-332q22 28 50 45q-27 12 -48 27q-45 -66 -69 -92q-45 -51 -82 -73q24 -12 39 -28q16 15 28 28q13 15 28 29l25 28h167v-119zM759 701q18 3 32 5q30 6 74 7q-16 16 -22 27l-16 25q-43 -18 -98 -33q-87 -18 -187 -30q-105 -12 -153 -13
q-22 0 -60 3q15 -25 23 -49q28 6 109 12l113 14q72 9 92 14zM456 523l-74 86q-19 -18 -36 -28q60 -37 89 -101q16 16 33 28zM530 601q66 -51 94 -118q15 13 37 27l-42 58q-36 43 -50 62q-21 -18 -39 -29zM727 491q22 -9 44 -20q60 93 76 124q16 24 46 44q-28 10 -53 24
q-69 -133 -113 -172v0z" />
  </g>

</svg>
