<?xml version="1.0" standalone="no"?>
<!DOCTYPE svg PUBLIC "-//W3C//DTD SVG 1.1//EN" "http://www.w3.org/Graphics/SVG/1.1/DTD/svg11.dtd" >
<svg xmlns="http://www.w3.org/2000/svg" xmlns:xlink="http://www.w3.org/1999/xlink" version="1.1" viewBox="-10 0 1010 1000">
   <path fill="currentColor"
d="M657 -6q26 47 37 114h84q78 -1 141 -10v89q-2 0 -11 -1q-54 -7 -134 -7h-345v105h105q0 -37 -5 -72q-1 -11 -1 -15q45 0 93 10q-16 27 -16 77h131q2 -31 -5 -78q-1 -5 -1 -7q10 0 30 1q70 2 63 7q0 5 -5 16q-11 30 -10 61q60 0 99 -5q9 -1 12 -1v85q-2 0 -13 -1
q-52 -6 -98 -6v83q0 40 5 73q-28 -8 -79 -8h-125q-29 0 -85 8q6 -38 8 -67t2 -89h-105q-3 208 -96 355q-44 -28 -83 -34q96 -97 105 -306v-129q0 -92 -10 -142q43 8 99 8h161q-14 -54 -40 -94zM200 32q39 94 60 193l-95 19q-6 -70 -52 -190zM52 334q2 0 11 1q41 7 82 7h26
l65 -8q-8 46 -8 75v304q157 82 409 79q231 0 315 -18q-38 55 -49 103q-273 -1 -363 -8q-117 -8 -183 -29q-39 -13 -87 -38q-37 -19 -54 -20q-49 -6 -105 87l-83 -57q54 -49 92 -72q19 -13 33 -23v-304q-52 0 -92 7q-7 1 -9 1v-87zM605 356v77h131v-77h-131zM847 536
q28 55 68 173l-82 24q-14 -95 -55 -177zM458 546q24 9 68 16q-6 27 -31 118q-10 37 -15 57q-7 -2 -19 -7q-38 -14 -62 -15q54 -81 59 -169zM742 560q12 38 26 155l-78 8q2 -71 -13 -159zM625 560q4 31 7 118q0 31 1 45l-75 6q11 -86 5 -161z" />
</svg>
