<?xml version="1.0" standalone="no"?>
<!DOCTYPE svg PUBLIC "-//W3C//DTD SVG 1.1//EN" "http://www.w3.org/Graphics/SVG/1.1/DTD/svg11.dtd" >
<svg xmlns="http://www.w3.org/2000/svg" xmlns:xlink="http://www.w3.org/1999/xlink" version="1.1" viewBox="-10 0 1010 1000">
   <path fill="currentColor"
d="M649 -6q77 -3 89 4q2 3 -2 11q-15 25 -16 65h113q61 0 105 -9q8 -1 10 -1v73q-3 0 -12 -1q-43 -7 -99 -7h-121v60h96q48 0 89 -6q-6 33 -6 99v89q0 31 3 69q1 12 1 15q-35 -6 -103 -6h-373q-64 0 -102 6q4 -36 4 -88v-117q0 -42 -4 -67q3 0 8 1q33 5 72 5h95v-60h-79
q-54 0 -110 8q-12 2 -15 2v-77q3 0 14 2q56 10 117 10h73q-2 -61 -8 -76q94 -1 91 8q0 2 -4 9q-15 25 -15 59h97q-1 -11 -3 -31q-4 -45 -5 -49zM175 46q48 83 87 177l-87 31q-29 -96 -82 -180zM657 129h-101v60h101v-60zM395 237v61h101v-61h-101zM556 237v61h99v-61h-99z
M823 237h-107v61h107v-61zM40 334h2q35 8 95 8q76 0 109 -4q-7 32 -8 93v284q38 18 85 48q31 86 621 37q-31 40 -39 85q-278 3 -398 -5q-119 -7 -160 -30q-37 -20 -81 -48q-44 -31 -72 -30q-26 12 -81 113l-85 -71q68 -57 137 -109v-290q-59 0 -112 7q-10 1 -13 1v-89z
M395 340v65h101v-65h-101zM655 340h-99v65h99v-65zM714 340v65h109v-65h-109zM365 494q37 8 99 8h278q83 0 113 -4q-6 30 -6 74v103q1 63 4 79q-31 -6 -93 -6h-298q-65 0 -99 8q8 -27 8 -91v-95q0 -47 -6 -76zM442 544v54h332v-54h-332zM442 643v56h332v-56h-332z" />
</svg>
