<?xml version="1.0" standalone="no"?>
<!DOCTYPE svg PUBLIC "-//W3C//DTD SVG 1.1//EN" "http://www.w3.org/Graphics/SVG/1.1/DTD/svg11.dtd" >
<svg xmlns="http://www.w3.org/2000/svg" xmlns:xlink="http://www.w3.org/1999/xlink" version="1.1" viewBox="-10 0 1034 1024">
  <g transform="matrix(1 0 0 -1 0 820)">
   <path fill="currentColor"
d="M229 398l-86 -5q-54 0 -78 2q-3 1 -5 1q-3 0 -11 2v-46q24 4 42 5h98v-350q-40 -15 -61 -28q-16 -9 -73 -52l34 -48q21 37 55 62q34 27 62 28q33 0 62 -17q100 -51 115 -58q3 0 8 -3q66 -27 172 -31q78 -3 196 -3q10 1 30 1q39 0 165 6q0 12 9 35q3 9 9 24
q-45 -12 -105 -18q-42 -3 -93 -5l-129 -2l-116 2q-36 1 -70 8q-54 9 -150 63q-31 18 -46 24q-7 3 -17 7q-9 3 -22 7l1 347q0 1 4 42zM126 655q81 -66 106 -127q18 18 39 32q-28 34 -53 63l-60 64q-15 -18 -32 -32zM568 567v-66q-153 -15 -158 -16q3 -22 8 -46q36 9 81 16
q33 6 69 10v-24q0 -19 14 -34q13 -10 49 -15q48 -3 95 -4q69 0 95 12q16 9 41 46l-38 31q-3 -27 -17 -41q-18 -15 -72 -15q-9 0 -69 3q-42 0 -56 11q-4 4 -5 21v12q54 6 156 15q10 0 22 1q-3 22 -4 44q-15 0 -32 -7q-9 0 -19 -3l-123 -15v64h250q-10 -24 -31 -58q22 0 46 -4
q4 15 19 46q12 28 25 57q-55 -4 -70 -5h-240v58l210 -1q18 0 27 -4l2 -1q1 0 5 -1v48l-35 -4q-19 -1 -118 -2h-91q0 33 5 46q1 7 7 16h-56q0 -3 1 -6q1 -28 5 -59v-90q-183 0 -208 2q-6 3 -33 3q6 -78 8 -91l-1 -202l-4 -48q-13 -111 -53 -183q-15 -25 -41 -50q27 -6 53 -18
q21 37 42 87q21 51 34 147q4 34 6 73l4 244h195zM605 310q-46 -42 -124 -78q-34 -13 -81 -20q9 -9 17 -19q7 -9 18 -25q87 39 152 80q15 -9 35 -25q-121 -105 -211 -117q19 -18 33 -39q36 18 85 46q49 30 119 85q12 -15 21 -37q-57 -57 -122 -101q-66 -42 -131 -57
q18 -18 36 -41q12 7 25 15q51 27 78 46q24 15 54 40q33 27 74 63q7 -39 8 -64q0 -42 -19 -61q-18 -19 -57 -20q-12 0 -26 1q12 -22 20 -49q48 10 72 25q46 31 47 107q0 28 -8 71l18 18q87 -69 135 -148q6 9 25 25l12 9q-27 30 -65 68q-37 36 -77 71q21 19 32 32q34 31 67 50
q-19 12 -44 33q-45 -55 -115 -120q-25 42 -38 55q-12 15 -50 43l41 38l218 -1l30 -4h5v46q-31 -1 -63 -5l-415 1l-25 4v-46q51 4 82 5h112z" />
  </g>

</svg>
