<?xml version="1.0" standalone="no"?>
<!DOCTYPE svg PUBLIC "-//W3C//DTD SVG 1.1//EN" "http://www.w3.org/Graphics/SVG/1.1/DTD/svg11.dtd" >
<svg xmlns="http://www.w3.org/2000/svg" xmlns:xlink="http://www.w3.org/1999/xlink" version="1.1" viewBox="-10 0 1010 1000">
   <path fill="currentColor"
d="M516 -17q91 0 93 9q1 2 -5 6q-13 10 -13 24v20h185q68 0 101 -6v60q-33 -6 -95 -6h-191v47h234q39 0 110 -4q-38 58 -68 117q-38 -21 -75 -19q19 -19 37 -48h-238v50q127 -4 169 -12l2 53q-36 -4 -171 -2q-6 51 42 44h151q37 -1 47 -74q23 30 62 42q-27 73 -85 76h-203
q-60 1 -69 -12q-13 -10 -12 -70q-69 0 -113 12l-2 -55q7 0 29 1q49 1 86 1v-54h-141q0 16 1 46q5 182 -7 295q-14 133 -73 242q-40 -40 -72 -49q53 -68 69 -155q17 -86 14 -272q-2 -85 -13 -159q35 6 89 6h133v-81q0 -32 -8 -73zM165 32q42 90 75 199l-85 29
q-17 -108 -70 -208zM40 340q30 3 59 4h50q45 -1 71 -4q-8 24 -8 73v300q34 100 320 107q212 1 422 -28q-30 32 -39 99q-80 1 -225 0q-144 -1 -232 -4q-205 -25 -260 -81q-22 -14 -27 -14q-38 -7 -102 95q-18 -32 -63 -69q38 -30 96 -69q22 -15 35 -24v-135v-171h-32
q-30 0 -39 1q-13 0 -26 3v-83zM393 522q118 -8 200 -73h-89q-81 0 -99 6v-60q30 6 101 6h149h139q41 0 93 -4v58q-1 0 -4 -1q-33 -5 -89 -5h-127q-10 10 -36 26q42 33 71 89q69 -45 113 -87l14 7q66 34 58 42q-2 4 -19 8q-54 13 -110 48q77 50 155 111q-32 19 -62 45
q-57 -74 -129 -126q56 183 -121 192q-9 -45 -36 -71q74 8 94 -13q23 -20 12 -87q-100 78 -240 147q-10 -23 -56 -57q135 -13 278 -133q-1 -1 -2 -4q-7 -19 -14 -28q-97 76 -222 119q-10 -25 -34 -50q130 -20 234 -99q-3 -3 -8 -9q-12 -13 -18 -17q-77 41 -160 76
q-15 -33 -36 -56z" />
</svg>
