<?xml version="1.0" standalone="no"?>
<!DOCTYPE svg PUBLIC "-//W3C//DTD SVG 1.1//EN" "http://www.w3.org/Graphics/SVG/1.1/DTD/svg11.dtd" >
<svg xmlns="http://www.w3.org/2000/svg" xmlns:xlink="http://www.w3.org/1999/xlink" version="1.1" viewBox="-10 0 1010 1000">
   <path fill="currentColor"
d="M310 56q26 4 121 4h39q40 0 93 -4q-3 46 -3 137v40q0 62 3 91q-14 -2 -39 -3q-12 -1 -29 -1h-47h-71q0 53 -6 103h99q66 -1 107 -4q-4 21 -4 139v54q0 48 3 87q1 8 1 10q-19 -2 -46 -3q-13 -1 -29 -1h-42h-33q-57 -1 -72 4q4 -21 4 -92v-113q-45 118 -85 177
q-29 -47 -51 -61q-6 -3 -7 -7q93 -116 97 -267v-189q0 -60 -3 -101zM208 717q126 90 328 91q231 -2 422 -28q0 1 -4 5q-28 29 -51 90h-395q-225 -17 -287 -77q-27 -16 -34 -16q-21 -19 -96 99l-67 -65q34 -25 105 -83q8 -7 10 -8v-316q-48 0 -68 1q-23 1 -39 3v-79
q18 3 53 4h40q51 -1 89 -4q-6 29 -6 83v300zM815 189q18 5 44 11q44 10 40 17q0 5 -7 14q-28 37 -59 117q90 -1 98 -4v69q-5 -3 -34 -3q-14 -1 -37 -1h-68v109q115 -1 133 -4v76q-3 -3 -31 -3q-13 -1 -36 -1h-66v33q0 138 6 147h-78q6 -56 6 -154v-26q-77 0 -97 1
q-27 0 -32 3v-76q21 3 127 4v-109q-74 0 -94 1q-27 0 -33 3v-67q27 4 181 4q27 -81 37 -161zM776 -2l28 108q106 -1 121 -4v73q-20 -4 -74 -4h-172q-60 -1 -80 4v-71q9 3 131 4q-21 -59 -40 -92zM496 119h-119v141h119v-141zM169 34q29 63 57 187l-83 25q-17 -116 -56 -188z
M423 483v162h87v-162h-87zM692 195q26 62 46 119l-63 16q-13 -65 -46 -119z" />
</svg>
