<?xml version="1.0" standalone="no"?>
<!DOCTYPE svg PUBLIC "-//W3C//DTD SVG 1.1//EN" "http://www.w3.org/Graphics/SVG/1.1/DTD/svg11.dtd" >
<svg xmlns="http://www.w3.org/2000/svg" xmlns:xlink="http://www.w3.org/1999/xlink" version="1.1" viewBox="-10 0 1010 1000">
   <path fill="currentColor"
d="M397 -12q6 1 20 2q79 7 73 12q-13 14 -28 57q-6 18 -10 27h72q31 0 73 -8q-5 21 -8 63v193q77 -107 103 -332q91 22 104 30q-24 18 -64 153h115q35 0 101 -8v79q-27 -8 -65 -8q-18 185 -60 290q48 65 114 167l-80 55q-33 -91 -71 -154q-65 107 -143 180q-34 -39 -81 -63
q111 -62 180 -191q-57 -77 -105 -129l63 -40q40 55 54 75q19 28 18 23h2q26 -68 39 -213h-99q-35 80 -75 141q-3 -3 -9 -8q-30 -29 -39 -35l2 21l-71 -5h-157q-46 0 -81 5q1 -7 2 -20q4 -35 4 -57v-147q-1 -40 -8 -67q48 9 75 10h32q1 -5 2 -13q6 -41 6 -85zM147 58
q44 77 79 188l-83 24q-29 -108 -74 -182zM357 149v44h165v-44h-165zM522 256h-165v42h165v-42zM36 354q33 10 93 9h18l71 -5q-6 52 -6 79v288q204 98 377 91q297 -13 365 -22q-30 43 -35 99q-315 -1 -430 -12q-127 -11 -191 -43q-11 -5 -30 -15q-66 -36 -80 -29
q-20 1 -79 99l-71 -51q84 -93 107 -109v-306q-46 1 -92 8q-13 2 -17 2v-83zM562 707q-13 60 -122 65q-2 -43 -27 -73q69 1 79 -22q11 -17 17 -70q1 -5 1 -7h-99q-45 102 -92 154q-43 -27 -81 -33q95 -44 129 -227h-18q-59 0 -99 8v-67q50 8 99 8h80l-38 -52l77 -14l28 64h52
q60 0 95 -8v71q-39 -8 -95 -8h-115l-12 52h99l75 -6q-18 125 -33 165z" />
</svg>
