<?xml version="1.0" standalone="no"?>
<!DOCTYPE svg PUBLIC "-//W3C//DTD SVG 1.1//EN" "http://www.w3.org/Graphics/SVG/1.1/DTD/svg11.dtd" >
<svg xmlns="http://www.w3.org/2000/svg" xmlns:xlink="http://www.w3.org/1999/xlink" version="1.1" viewBox="-10 0 522 1024">
  <g transform="matrix(1 0 0 -1 0 820)">
   <path fill="currentColor"
d="M221 321v-279q-28 6 -50 19q-39 22 -71 81l-35 -38q33 -60 82 -89q31 -19 74 -26v-84h43v81q97 0 152 48q52 49 53 143q0 73 -50 115q-49 43 -155 82v249q34 1 74 -20q39 -25 72 -67l28 43q-37 51 -74 73q-42 24 -100 23v61h-43v-63q-73 -7 -122 -53q-55 -52 -55 -126
q0 -70 41 -105q30 -27 136 -68zM221 390q-90 36 -105 52q-19 22 -20 52q0 55 39 90q34 30 86 36v-230zM264 305q99 -37 127 -69q25 -28 26 -59q0 -72 -41 -107q-37 -31 -112 -32v267z" />
  </g>

</svg>
