<?xml version="1.0" standalone="no"?>
<!DOCTYPE svg PUBLIC "-//W3C//DTD SVG 1.1//EN" "http://www.w3.org/Graphics/SVG/1.1/DTD/svg11.dtd" >
<svg xmlns="http://www.w3.org/2000/svg" xmlns:xlink="http://www.w3.org/1999/xlink" version="1.1" viewBox="-10 0 1010 1000">
   <path fill="currentColor"
d="M403 0q3 1 8 4q79 33 75 40q-1 3 -11 5q-15 4 -21 9q-19 16 -69 55q-6 4 -8 6q36 15 107 52q-39 15 -49 28h172q-47 -37 -127 -76q60 -37 117 -117q81 33 76 42q-4 4 -13 6q-15 1 -25 10q-14 12 -32 29q-18 16 -26 22l96 48q-44 18 -56 36h177q-49 -38 -127 -72
q62 -38 125 -125q75 41 71 56q-1 4 -13 4q-19 1 -27 8q-24 23 -55 47q15 6 54 21q33 13 53 21q-44 21 -62 40q39 -1 68 -4q-5 19 -4 75v121q-1 52 4 72q-29 -2 -81 -2h-409q-46 0 -63 1q-21 1 -34 3q5 -25 4 -55v-19v-127q0 -21 -1 -50q-1 -14 -1 -19q39 4 99 4
q-45 -38 -109 -70q79 -59 117 -129zM167 42q46 84 83 200l-89 30q-16 -104 -74 -202zM365 246v167h445v-167h-364q35 17 108 45q31 11 47 17q70 -33 99 -56q73 37 68 46q-3 3 -13 4q-40 4 -96 28q71 19 121 37q-4 4 -14 10q-21 12 -32 30q-29 -17 -94 -42q-23 -9 -33 -13
q-33 12 -111 35q-46 13 -67 20q-21 -30 -48 -44q102 -12 167 -33q-15 -4 -42 -12q-55 -16 -97 -26l9 -15q13 -22 19 -31h-72zM38 340q31 4 61 4h50q42 1 75 -6q-5 24 -4 81v306q10 33 88 59l-26 -46q31 -3 30 -43v-147q0 -12 -1 -37q-1 -22 -1 -32q10 1 28 2q54 3 51 11
q0 2 -3 7q-11 17 -11 51v167q17 -6 47 -20q27 -12 42 -18l4 63q-76 15 -133 50q94 29 271 31q178 2 346 -25q-28 42 -39 95q-124 3 -220 2t-171 -6q-148 -10 -224 -39q-31 -12 -65 -34q-27 -18 -45 -20q-44 1 -117 95q-1 -20 -51 -85q16 -8 74 -43q33 -20 53 -32v-318h-40
q-49 -1 -69 4v-77zM524 473q94 2 89 14q0 3 -4 7q-16 16 -16 56v169q33 -12 90 -42l9 65q-104 35 -156 70q-17 -30 -38 -60q33 -6 32 -27v-181q0 -36 -6 -71zM738 473q90 7 87 14q0 2 -3 4q-16 14 -14 61q5 145 41 163q20 -5 28 -74q20 28 65 50q-38 110 -81 107
q-83 -17 -107 -157q-4 -36 -9 -93q-4 -52 -7 -75zM425 487q32 15 89 51l-28 42q-37 -31 -85 -56zM641 487q54 26 81 47l-30 40q-32 -30 -83 -54zM421 576q41 22 85 53l-32 42q-38 -34 -81 -58zM637 588q57 32 97 53l-32 42q-67 -48 -95 -56z" />
</svg>
