<?xml version="1.0" standalone="no"?>
<!DOCTYPE svg PUBLIC "-//W3C//DTD SVG 1.1//EN" "http://www.w3.org/Graphics/SVG/1.1/DTD/svg11.dtd" >
<svg xmlns="http://www.w3.org/2000/svg" xmlns:xlink="http://www.w3.org/1999/xlink" version="1.1" viewBox="-10 0 1034 1024">
  <g transform="matrix(1 0 0 -1 0 820)">
   <path fill="currentColor"
d="M120 675q-7 9 -17 17q-12 -18 -27 -33l77 -74q24 -27 52 -60q12 21 28 37l-65 68zM317 259q31 18 64 35q9 4 21 13l63 45q13 -33 20 -63q-129 -100 -217 -127q21 -19 34 -35l116 67l70 49q1 -28 2 -51q0 -60 -18 -95q-25 -48 -86 -48q-15 0 -47 5q13 -30 20 -51
q39 3 62 11q69 21 91 79q15 43 16 113q0 82 -25 153q-10 27 -25 48q-12 18 -48 54q39 24 65 46q33 27 47 36q12 7 32 10q0 -159 -2 -183q-3 -12 -4 -45q69 6 85 6q-1 -64 -7 -101t-18 -72q-43 -117 -130 -148q22 -12 47 -28q81 61 119 159q21 60 27 190h63v-252
q0 -33 22 -52q19 -13 61 -14q34 0 55 8q28 12 46 67q4 15 10 30q-21 10 -44 32q0 -18 -1 -28q-4 -42 -20 -60q-15 -12 -44 -13q-46 0 -47 43v239q33 0 53 -3q15 0 37 -3q-3 30 -5 62l1 224q0 1 4 38q-30 -1 -62 -5h-139q39 58 51 70q12 13 35 17q-27 15 -54 33
q-18 -33 -36 -63q-18 -28 -39 -57l-49 4q-10 1 -21 1q6 -54 6 -83v-7q-15 9 -30 23q-6 6 -15 11q-22 -25 -51 -49q-1 3 -53 64q-15 -13 -33 -24q21 -19 36 -34t25 -30q-36 -27 -68 -46q-4 7 -20 24l-44 46q-15 -13 -31 -24q36 -33 65 -65q-61 -28 -118 -44q21 -18 37 -36
q33 15 66 33q30 16 60 30q18 -13 30 -28q6 -6 19 -27q-88 -66 -179 -99q16 -12 32 -34zM610 366v104h228v-104h-228zM610 506v102h228v-102h-228zM249 617q13 -18 24 -38q57 24 112 51q48 24 85 45q39 21 79 21q-19 18 -44 50q-36 -27 -97 -62q-76 -42 -159 -67zM103 -138
q66 103 115 104q21 0 50 -14l77 -36q28 -12 50 -20q31 -12 71 -15q15 -3 82 -5l235 -2l172 -3q0 25 18 53q-52 -4 -89 -7l-179 -4l-145 2q-48 0 -79 4q-25 3 -49 8q-33 7 -102 40q-52 24 -99 41l1 335q0 16 4 49q-30 -1 -60 -5l-84 1l-42 4v-46q-3 0 9 1q3 0 8 1l126 3v-353
q-15 -6 -38 -18q-10 -6 -34 -29q-27 -22 -56 -58q27 -21 35 -28z" />
  </g>

</svg>
