<?xml version="1.0" standalone="no"?>
<!DOCTYPE svg PUBLIC "-//W3C//DTD SVG 1.1//EN" "http://www.w3.org/Graphics/SVG/1.1/DTD/svg11.dtd" >
<svg xmlns="http://www.w3.org/2000/svg" xmlns:xlink="http://www.w3.org/1999/xlink" version="1.1" viewBox="-10 0 1034 1024">
  <g transform="matrix(1 0 0 -1 0 820)">
   <path fill="currentColor"
d="M154 249l4 -51l1 -242q1 -25 11 -44q15 -34 67 -41q30 -3 83 -4l217 -5q94 4 216 5q48 0 73 4q1 1 4 1q54 9 85 48q18 27 34 73q-22 10 -50 29q-1 -31 -4 -48q-9 -42 -42 -59q-16 -7 -54 -11q-45 -3 -146 -3l-156 -2q-207 3 -229 6q-4 1 -6 1q-66 6 -66 63v86l612 -1
q18 0 42 -4q-4 49 -5 72q0 90 2 101q0 6 3 36q-28 -1 -58 -5l-596 1l-43 4q0 -4 1 -10zM196 91v127h290v-127h-290zM524 91v127h283v-127h-283zM345 501q3 18 17 40l-134 75q49 70 64 87q9 10 19 20q9 7 19 18q-13 4 -24 9q-10 6 -30 16q-28 -64 -101 -163q42 -21 120 -69z
M243 496q-28 3 -58 5q4 -42 5 -76l-4 -100q-1 -3 -1 -6q46 4 92 5l495 -1l42 -4q-4 45 -5 70q0 67 2 78q0 16 3 34q-28 -1 -58 -5h-513zM228 360v100h543v-100h-543zM578 517q1 4 4 9q3 3 9 15q1 9 5 12q-66 33 -124 66l50 61q31 36 62 46q-13 6 -42 24q-9 7 -15 10
q-28 -54 -112 -148q120 -61 161 -100q0 3 2 5zM856 562q-21 10 -44 24l-100 52q64 69 67 71q15 13 35 23q-1 0 -4 2l-3 2l-47 28q-40 -70 -108 -138q103 -45 185 -103q3 3 8 14q6 19 11 25v0z" />
  </g>

</svg>
