<?xml version="1.0" standalone="no"?>
<!DOCTYPE svg PUBLIC "-//W3C//DTD SVG 1.1//EN" "http://www.w3.org/Graphics/SVG/1.1/DTD/svg11.dtd" >
<svg xmlns="http://www.w3.org/2000/svg" xmlns:xlink="http://www.w3.org/1999/xlink" version="1.1" viewBox="-10 0 1034 1024">
  <g transform="matrix(1 0 0 -1 0 820)">
   <path fill="currentColor"
d="M223 549h278q21 0 50 -3q6 0 12 -3v47q-1 0 -59 -5l-282 1q-12 3 -42 4q1 -33 5 -67l-1 -277q-4 -60 -16 -128q-19 -87 -52 -141q-24 -39 -61 -61l59 -23q24 37 37 63q24 48 45 114q27 96 27 248v231zM276 740q-10 -12 -17 -19q4 -3 91 -79q34 -34 45 -47q13 21 32 38
q-49 39 -73 62l-64 58q-7 -6 -14 -13zM617 -103l-4 -51q0 -3 -2 -9h49q0 4 -2 9l-4 51v753h227q-30 -67 -62 -127q-33 -60 -81 -135q63 -39 87 -62q93 -82 94 -174q0 -45 -23 -76q-36 -42 -108 -43q-18 0 -62 7q13 -30 20 -57q79 6 120 21q93 36 93 147q0 76 -55 150
q-36 45 -111 98l78 141q24 48 49 94l33 57q-30 -1 -61 -5l-237 1q-19 3 -44 4l6 -60v-734z" />
  </g>

</svg>
