<?xml version="1.0" standalone="no"?>
<!DOCTYPE svg PUBLIC "-//W3C//DTD SVG 1.1//EN" "http://www.w3.org/Graphics/SVG/1.1/DTD/svg11.dtd" >
<svg xmlns="http://www.w3.org/2000/svg" xmlns:xlink="http://www.w3.org/1999/xlink" version="1.1" viewBox="-10 0 1034 1024">
  <g transform="matrix(1 0 0 -1 0 820)">
   <path fill="currentColor"
d="M240 377q-135 0 -162 2q-3 0 -18 3v-46q18 4 61 5h119q-1 -57 -5 -99l-7 -69q-12 -96 -70 -185q-37 -54 -85 -83q27 -12 54 -31q42 57 74 108q27 48 43 96q25 82 35 263h158v-389q0 -43 -6 -62h50q-3 7 -4 32l-1 419h58q36 0 61 -5v46q-30 -1 -61 -5h-58v295h48
q42 0 61 -5v46q-30 -1 -61 -5l-374 1q-24 3 -39 4v-46q19 4 45 5h84v-295zM279 377v295h158v-295h-158zM636 -93q0 -33 -3 -51q0 -4 -2 -11h49q0 1 -1 5q-1 3 -4 57v771h205l-18 -37q-33 -72 -57 -117t-67 -117q42 -27 55 -39q45 -34 80 -82q49 -66 50 -130q0 -57 -42 -83
q-31 -18 -83 -19q-21 0 -47 4q13 -30 18 -55l40 7q63 10 96 33q54 39 54 113q0 82 -76 174q-22 25 -40 41q-27 25 -57 48l98 188q30 60 31 63l25 50l-49 -6l-221 1l-39 5q1 -27 5 -55v-758z" />
  </g>

</svg>
