<?xml version="1.0" standalone="no"?>
<!DOCTYPE svg PUBLIC "-//W3C//DTD SVG 1.1//EN" "http://www.w3.org/Graphics/SVG/1.1/DTD/svg11.dtd" >
<svg xmlns="http://www.w3.org/2000/svg" xmlns:xlink="http://www.w3.org/1999/xlink" version="1.1" viewBox="-10 0 1034 1024">
  <g transform="matrix(1 0 0 -1 0 820)">
   <path fill="currentColor"
d="M213 543v142q0 12 3 32q3 15 10 33h-57q4 -12 5 -65v-142q-55 0 -84 2q-3 0 -19 3v-47q15 4 28 5l75 1q0 -594 -3 -608l-2 -10h49q-1 3 -1 5q-1 3 -4 48v48h232q0 -60 -3 -78l-2 -10h49q0 3 -1 6q0 6 -2 11l-2 191v397l83 -1q18 0 33 -5v47q-30 -1 -60 -5h-56
q0 171 3 177q0 15 11 33h-58q4 -12 5 -65v-145h-232zM213 26v241h232v-241h-232zM213 303v204h232v-204h-232zM637 -86l-4 -55l-1 -7h49q0 1 -1 5q-1 3 -4 57v769h213q-28 -61 -69 -137q-43 -81 -75 -127q45 -36 60 -50q15 -13 39 -42q69 -78 69 -158q0 -73 -55 -100
q-33 -13 -81 -14q-16 0 -46 3q13 -22 25 -54q36 4 82 16q54 16 80 48q33 42 33 104q0 69 -44 135q-34 51 -112 122q36 60 56 96l102 200q-15 -1 -26 -3q-19 -3 -25 -3l-228 1q-7 1 -42 5q1 -30 5 -62v-749z" />
  </g>

</svg>
