<?xml version="1.0" standalone="no"?>
<!DOCTYPE svg PUBLIC "-//W3C//DTD SVG 1.1//EN" "http://www.w3.org/Graphics/SVG/1.1/DTD/svg11.dtd" >
<svg xmlns="http://www.w3.org/2000/svg" xmlns:xlink="http://www.w3.org/1999/xlink" version="1.1" viewBox="-10 0 1034 1024">
  <g transform="matrix(1 0 0 -1 0 820)">
   <path fill="currentColor"
d="M71 59q15 -43 16 -49l112 23l138 24q45 7 88 17q0 6 6 42q-39 -9 -78 -17l-147 -25q-103 -15 -122 -15h-13zM152 278q0 -6 -3 -26q0 -13 -3 -29q51 4 104 5h259l-8 -186q0 -36 -2 -53q0 -12 -3 -20q-9 -36 -28 -49q-21 -15 -75 -16q-16 0 -47 4q9 -21 16 -50q61 6 97 13
q69 24 76 112q1 30 4 60l5 112l11 114l-31 -3q-15 -1 -23 -2h-312v344h268q0 -21 -9 -139q-7 -39 -12 -51q-3 -4 -5 -9q-18 -18 -70 -19q-18 0 -45 5q13 -27 19 -53l67 10q52 12 70 50q6 16 9 33q3 24 7 66q3 60 13 148q-28 -1 -58 -5h-153q30 57 45 76q10 16 34 32l-62 25
q-9 -37 -60 -133l-101 5q0 -7 2 -17q0 1 1 -10q3 -21 3 -29v-315zM628 -107q0 -21 -3 -51q0 -3 -2 -8v-2h48q-3 24 -5 50v761h215q-9 -24 -21 -46q-34 -67 -84 -150q-16 -27 -40 -60l28 -22q55 -40 90 -86q55 -70 56 -143q0 -66 -44 -92q-34 -18 -89 -19q-13 0 -39 3
q15 -24 23 -52q33 3 64 9q72 18 100 57q25 36 26 89q0 106 -90 200l-69 65q1 3 4 7q3 3 4 7q3 10 37 64l109 207q0 1 1 3q-30 -1 -62 -5l-219 1q-19 3 -43 4q1 -30 5 -60v-731z" />
  </g>

</svg>
