<?xml version="1.0" standalone="no"?>
<!DOCTYPE svg PUBLIC "-//W3C//DTD SVG 1.1//EN" "http://www.w3.org/Graphics/SVG/1.1/DTD/svg11.dtd" >
<svg xmlns="http://www.w3.org/2000/svg" xmlns:xlink="http://www.w3.org/1999/xlink" version="1.1" viewBox="-10 0 1010 1000">
   <path fill="currentColor"
d="M484 10q87 85 76 94q-4 4 -27 2q-45 -4 -85 2q-116 15 -222 25q-12 1 -18 2v149h203q79 -1 121 -8v84q-47 -7 -119 -8v260l133 -34l-18 93q-248 31 -468 101l-36 -89l113 -18v-500q-1 -58 -8 -97q158 10 355 -58zM581 40q46 8 111 8h123q66 -1 100 -8q-42 163 -119 351
q144 128 130 252q-22 118 -190 141q-7 -60 -44 -103q128 19 140 -73q2 -98 -120 -205q58 -136 100 -288h-151v639q0 80 7 139q1 8 1 10h-88q0 -2 1 -14q7 -74 7 -135v-609q-1 -63 -8 -105zM341 352h-133v301l133 -26v-275z" />
</svg>
