<?xml version="1.0" standalone="no"?>
<!DOCTYPE svg PUBLIC "-//W3C//DTD SVG 1.1//EN" "http://www.w3.org/Graphics/SVG/1.1/DTD/svg11.dtd" >
<svg xmlns="http://www.w3.org/2000/svg" xmlns:xlink="http://www.w3.org/1999/xlink" version="1.1" viewBox="-10 0 1010 1000">
   <path fill="currentColor"
d="M569 38v77q-50 -5 -101 -5h-107v119h77q43 0 63 -1q24 -1 43 -5q-6 41 -6 119v410q2 46 -20 59q-14 14 -109 37q-3 -62 -32 -98q106 26 95 -37v-121l-57 35q-26 -87 -78 -142q-37 106 -97 194q-39 -50 -57 -62v116q0 84 5 121h-77q6 -51 6 -121v-368q0 -102 -6 -142
q25 4 47 5q18 1 58 1h76v-119h-111q-38 0 -57 1q-23 1 -53 4v-77q48 6 108 6h293q56 0 97 -6zM609 36q49 7 99 8h117q69 -3 108 -8q-13 33 -50 142q-36 104 -60 172q79 86 103 140q27 57 16 116q-16 116 -200 148q3 -47 -26 -107q139 27 143 -77q8 -84 -113 -212
q45 -114 67 -204q8 -29 12 -44h-137v613q0 107 8 156h-89q8 -56 8 -154v-566v-16q1 -59 -6 -107zM292 294h-109v310q63 -60 85 -125q24 -66 24 -185zM472 294h-111q0 83 -16 169l46 -32q45 56 81 131v-268z" />
</svg>
