<?xml version="1.0" standalone="no"?>
<!DOCTYPE svg PUBLIC "-//W3C//DTD SVG 1.1//EN" "http://www.w3.org/Graphics/SVG/1.1/DTD/svg11.dtd" >
<svg xmlns="http://www.w3.org/2000/svg" xmlns:xlink="http://www.w3.org/1999/xlink" version="1.1" viewBox="-10 0 1034 1024">
  <g transform="matrix(1 0 0 -1 0 820)">
   <path fill="currentColor"
d="M155 404q49 6 99 5h231v-168l-262 1q-12 1 -26 2q-3 0 -12 3v-47q30 4 48 6h252v-182l-299 1q-24 3 -38 4v-46q19 4 62 5h275q0 -57 -3 -71l-2 -10h49q-4 39 -5 62l1 444q0 19 4 37q-28 -1 -55 -5h-82q64 130 89 172q6 12 13 21q-30 -1 -60 -5h-162q36 81 67 110
q-30 10 -57 26q-18 -69 -92 -207q-67 -108 -115 -134q30 -13 49 -31l31 45v-38zM428 597q-25 -57 -41 -88q-13 -27 -36 -64h-132q-19 0 -59 4l46 66l48 82h174zM635 -92l-4 -55l-1 -7h49q-1 3 -1 5q-3 7 -4 33v779h191q-21 -64 -59 -155q-21 -51 -60 -117q40 -37 84 -98
q69 -97 69 -169q0 -51 -30 -72q-30 -19 -78 -20q-21 0 -59 4q16 -25 24 -52l30 4q36 3 60 12q16 4 39 18q51 31 52 109q0 54 -34 120q-15 30 -39 62l-70 89q28 60 51 111q24 55 58 145q9 27 19 52q-16 -1 -29 -4q-21 -3 -64 -3l-157 1q-6 1 -42 5q1 -19 2 -31q3 -21 3 -31
v-735z" />
  </g>

</svg>
