<?xml version="1.0" standalone="no"?>
<!DOCTYPE svg PUBLIC "-//W3C//DTD SVG 1.1//EN" "http://www.w3.org/Graphics/SVG/1.1/DTD/svg11.dtd" >
<svg xmlns="http://www.w3.org/2000/svg" xmlns:xlink="http://www.w3.org/1999/xlink" version="1.1" viewBox="-10 0 1010 1000">
   <path fill="currentColor"
d="M532 36v81q-50 -5 -121 -5h-22q-1 3 -3 10q-20 64 -39 103v426q57 -10 153 -34q18 -5 26 -7q-16 38 -12 85q-173 31 -419 95l-26 -93q94 -8 207 -32v-256v-65q-55 89 -157 198q-39 -45 -81 -65q107 -59 180 -165q68 -107 94 -200h-110q-70 0 -109 5v-81q38 7 123 8h197
q63 -1 119 -8zM937 32q35 -86 -135 351q128 113 127 221q15 126 -193 162q-15 -64 -51 -109q153 33 150 -65q-2 -102 -115 -193q109 -297 97 -291h-148v569q0 83 1 130q2 53 5 90h-94q3 -30 5 -82q0 -25 1 -58v-80v-536q1 -63 -6 -109q42 6 117 6h123q63 1 116 -6zM431 302
q72 83 138 192l-73 46q-55 -115 -133 -202z" />
</svg>
