<?xml version="1.0" standalone="no"?>
<!DOCTYPE svg PUBLIC "-//W3C//DTD SVG 1.1//EN" "http://www.w3.org/Graphics/SVG/1.1/DTD/svg11.dtd" >
<svg xmlns="http://www.w3.org/2000/svg" xmlns:xlink="http://www.w3.org/1999/xlink" version="1.1" viewBox="-10 0 1010 1000">
   <path fill="currentColor"
d="M516 24q-2 9 -5 39q-4 34 -7 52q-18 208 -38 243q-24 43 -143 55q-6 -54 -35 -97q60 12 83 5q23 -6 32 -39q19 -82 22 -182h-119q-10 246 -211 355q-31 -43 -65 -66q186 -57 202 -287q-9 0 -28 1q-74 2 -101 9v-88q80 8 135 8h139q30 0 139 -8zM575 40q65 6 151 6h28
q110 -1 165 -6q-13 34 -48 144q-41 127 -61 183q69 78 94 135q25 56 15 113q-18 131 -203 135q-6 -65 -35 -115q125 37 146 -35q21 -110 -101 -213q43 -109 82 -270h-143v602q0 158 8 176h-100q8 -37 8 -176v-544q-1 -89 -6 -135zM490 451q-6 55 -6 166v56q-3 127 6 161h-91
q6 -22 6 -74h-195q0 49 1 66q1 20 3 30h-93q5 -24 6 -67q1 -21 2 -49v-69v-101q-1 -61 -8 -119q46 6 137 6h81q103 0 151 -6zM208 528v161h197v-161h-197z" />
</svg>
