<?xml version="1.0" standalone="no"?>
<!DOCTYPE svg PUBLIC "-//W3C//DTD SVG 1.1//EN" "http://www.w3.org/Graphics/SVG/1.1/DTD/svg11.dtd" >
<svg xmlns="http://www.w3.org/2000/svg" xmlns:xlink="http://www.w3.org/1999/xlink" version="1.1" viewBox="-10 0 1010 1000">
   <path fill="currentColor"
d="M254 -10q14 6 40 16q20 7 55 22q16 6 -5 22q-33 26 -50 54q-13 20 -45 69q-53 83 -78 119q125 -5 267 -14q-29 -60 -71 -101l71 -42q82 117 129 223l-77 39q-1 -2 -2 -7q-13 -38 -20 -52q-303 20 -391 43q-17 -64 -31 -91q58 -13 87 -57q73 -114 121 -243zM581 38
q48 6 113 6h149q33 0 53 -1q22 -1 52 -5l-144 327q116 110 127 241q13 120 -183 162q-14 -66 -50 -109q144 14 143 -71q0 -90 -123 -213q11 -23 19 -40q47 -97 78 -188q6 -15 12 -32h-164v687v57q1 6 6 46h-88q1 -12 3 -24q4 -7 3 -75v-639q0 -81 -6 -129zM482 449
q-7 50 -6 105v151q0 50 1 76q2 30 5 53h-93q10 -47 10 -78h-212q0 50 5 94h-89q5 -20 6 -53q1 -16 2 -37v-51v-159q1 -53 -6 -99q51 3 109 4h165q56 1 103 -6zM187 522v167h214v-167h-214z" />
</svg>
