<?xml version="1.0" standalone="no"?>
<!DOCTYPE svg PUBLIC "-//W3C//DTD SVG 1.1//EN" "http://www.w3.org/Graphics/SVG/1.1/DTD/svg11.dtd" >
<svg xmlns="http://www.w3.org/2000/svg" xmlns:xlink="http://www.w3.org/1999/xlink" version="1.1" viewBox="-10 0 1034 1024">
  <g transform="matrix(1 0 0 -1 0 820)">
   <path fill="currentColor"
d="M284 -18l90 10l157 18l70 6q9 36 11 47q-40 -9 -76 -13q-31 -3 -63 -8q-21 -3 -41 -7v665q0 9 3 24q0 16 11 40h-58q1 -6 3 -11q0 -13 3 -53v-669l-106 -12v669q0 7 3 27q1 19 11 38h-59q3 -6 4 -11q0 -15 3 -54v-672q-69 -6 -110 -9q-33 -1 -75 -2q12 -24 22 -54l149 26
h4q21 3 44 5zM114 566q-21 -9 -43 -14q18 -42 31 -78q13 -39 31 -98q36 -118 48 -206q21 9 40 12q6 0 9 1l-47 167l-38 119zM465 194q24 -1 45 -9q12 34 25 79l30 108l46 189q-21 4 -48 15q-1 -33 -9 -75q-9 -48 -26 -115q-16 -63 -33 -113q-15 -43 -30 -79zM659 -105
q0 -21 -3 -51q0 3 -3 -8v-2h49q-3 24 -5 50v811h173q-6 -19 -53 -141q-25 -67 -60 -134q63 -43 91 -78q66 -81 67 -162q0 -64 -39 -88q-28 -16 -83 -17q-24 0 -53 8q13 -31 22 -57q27 0 47 4q58 9 97 32q48 37 49 113q0 106 -81 195q-24 24 -66 62q16 36 40 94
q57 153 69 177l14 33q-28 -1 -57 -5l-177 1q-19 3 -44 4l6 -60v-781z" />
  </g>

</svg>
