<?xml version="1.0" standalone="no"?>
<!DOCTYPE svg PUBLIC "-//W3C//DTD SVG 1.1//EN" "http://www.w3.org/Graphics/SVG/1.1/DTD/svg11.dtd" >
<svg xmlns="http://www.w3.org/2000/svg" xmlns:xlink="http://www.w3.org/1999/xlink" version="1.1" viewBox="-10 0 1010 1000">
   <path fill="currentColor"
d="M210 6q15 1 39 3q27 2 47 5q15 2 7 18q-11 23 -11 42v619q32 -6 65 -8v-548q0 -81 -6 -125q66 2 97 8q7 1 0 18q-17 39 -17 77v560l138 -18q-9 30 -10 41q-3 14 -3 31q-282 29 -467 77l-33 -85l162 -18v-72v-484q0 -99 -8 -141zM940 48q-70 193 -115 333q109 132 108 240
q9 116 -179 143q-10 -57 -48 -107q139 24 139 -53q-13 -113 -101 -209q56 -153 83 -266h-131v540q0 136 6 238h-91q8 -79 8 -238v-508q1 -62 -8 -111q38 7 107 6h117q64 1 105 -8zM508 171q53 7 77 18q13 5 8 14q-12 22 -16 51q-18 146 -55 320l-76 -18q54 -175 62 -385z
M129 191q45 187 67 363l-77 14q-15 -207 -69 -365z" />
</svg>
