<?xml version="1.0" standalone="no"?>
<!DOCTYPE svg PUBLIC "-//W3C//DTD SVG 1.1//EN" "http://www.w3.org/Graphics/SVG/1.1/DTD/svg11.dtd" >
<svg xmlns="http://www.w3.org/2000/svg" xmlns:xlink="http://www.w3.org/1999/xlink" version="1.1" viewBox="-10 0 1010 1000">
   <path fill="currentColor"
d="M290 -12q112 20 117 36q0 5 -12 12q-26 15 -38 36q104 69 230 182l-75 66q-105 -121 -199 -187q-90 152 -206 280q-35 -42 -81 -57q170 -114 264 -368zM343 254q28 70 48 135l-89 18q-21 -92 -46 -135zM538 427q-45 99 -183 296q31 37 74 101l-84 51q-76 -134 -206 -246
l73 -49q51 45 90 89q32 -39 86 -127q18 -28 23 -36h-223q-62 1 -101 8v-87q38 8 98 8h250q65 -1 103 -8zM593 133q-1 -58 -8 -93q35 7 103 8h155q62 -1 97 -8l-115 341q129 146 109 271q-27 117 -188 126q-10 -71 -54 -113q135 41 154 -52q9 -102 -112 -224q45 -102 95 -270
h-160v643q7 128 12 147h-96q7 -49 8 -147v-629z" />
</svg>
