<?xml version="1.0" standalone="no"?>
<!DOCTYPE svg PUBLIC "-//W3C//DTD SVG 1.1//EN" "http://www.w3.org/Graphics/SVG/1.1/DTD/svg11.dtd" >
<svg xmlns="http://www.w3.org/2000/svg" xmlns:xlink="http://www.w3.org/1999/xlink" version="1.1" viewBox="-10 0 1010 1000">
   <path fill="currentColor"
d="M950 30q-12 29 -121 345q118 138 111 233q3 122 -164 156q-7 -48 -48 -99q134 9 127 -81q1 -79 -107 -193l103 -289h-147q-4 3 -4 87v540q0 98 6 166h-95q6 -40 6 -164v-586q1 -77 -8 -117q60 9 123 8h107q47 0 67 -1q24 -1 44 -5zM558 38v79q-37 -6 -97 -5h-11h-164
q29 11 61 26l18 9q9 4 -8 12q-34 18 -55 40q-59 58 -117 131l261 -28q-35 -51 -59 -73l67 -46q60 73 133 196l-77 42q-15 -39 -30 -61q-30 0 -135 13v131h86q54 0 87 -8v80q-24 -5 -63 -4h-13h-97v143q136 -14 197 -30q-9 35 -6 77q-168 13 -459 72q-8 -58 -29 -97
q77 0 222 -14v-151h-76h-17q-42 -3 -78 4v-78q35 6 93 6h78v-121q-105 15 -159 30q-13 -46 -42 -83q40 -10 78 -50q65 -69 111 -168h-75q-57 0 -104 9v-83q38 6 102 6h275q62 1 102 -6z" />
</svg>
