<?xml version="1.0" standalone="no"?>
<!DOCTYPE svg PUBLIC "-//W3C//DTD SVG 1.1//EN" "http://www.w3.org/Graphics/SVG/1.1/DTD/svg11.dtd" >
<svg xmlns="http://www.w3.org/2000/svg" xmlns:xlink="http://www.w3.org/1999/xlink" version="1.1" viewBox="-10 0 1034 1024">
  <g transform="matrix(1 0 0 -1 0 820)">
   <path fill="currentColor"
d="M313 -9l-123 -14q-57 -4 -92 -6l-30 1q15 -30 23 -53q51 12 90 18q0 1 219 28q145 15 166 20q3 13 12 37q1 4 3 8q-48 -12 -86 -17l-144 -18v186h122q21 0 50 -3q7 0 13 -3v47q-9 -3 -23 -3q-18 0 -40 -2h-122v79q0 10 3 26q1 18 11 38h-58q1 -6 3 -11q0 -15 3 -53v-79
q-151 0 -179 2q-4 1 -7 1l-13 2v-47q6 3 13 3q27 3 53 3h133v-190zM525 666q19 0 52 -3q6 0 12 -3v47q-3 0 -8 -2q-15 0 -32 -2l-452 1q-6 0 -15 3v-47q12 6 52 6h184q-9 -18 -22 -36l-43 -59q-57 -73 -115 -131q-25 -24 -46 -32q7 -22 17 -46q30 7 56 11q31 4 62 9l297 30
l31 -61q21 15 42 29q-3 3 -83 120q-24 36 -69 96q-15 -13 -32 -25q33 -42 54 -73l36 -54q-55 -7 -139 -15l-195 -14q75 79 127 151q42 60 75 100h154zM640 -83l-4 -56q0 -1 -1 -4h48q-3 30 -5 60v768h213l-58 -109q-21 -33 -41 -69q-10 -18 -32 -48q-10 -15 -20 -31
q81 -52 128 -128q42 -69 43 -127q0 -102 -131 -103q-15 0 -40 4q12 -21 21 -53q7 0 16 3l36 5q36 6 63 21q75 37 75 121q0 93 -79 189q-18 22 -76 78l77 129q9 21 36 66l20 34q21 36 30 54l3 5q-18 -1 -30 -2q-21 -3 -28 -3l-226 1q-19 3 -43 4q1 -18 2 -30q3 -21 3 -30
v-749z" />
  </g>

</svg>
