<?xml version="1.0" standalone="no"?>
<!DOCTYPE svg PUBLIC "-//W3C//DTD SVG 1.1//EN" "http://www.w3.org/Graphics/SVG/1.1/DTD/svg11.dtd" >
<svg xmlns="http://www.w3.org/2000/svg" xmlns:xlink="http://www.w3.org/1999/xlink" version="1.1" viewBox="-10 0 1010 1000">
   <path fill="currentColor"
d="M200 -12q70 21 88 30q16 7 13 10q-1 1 -35 42q-15 21 -33 54q-3 6 -5 9h203q44 1 123 -10q-5 31 -6 59q-1 14 -2 29v35v453q1 87 -34 118q-28 31 -135 45q-6 -66 -34 -100q87 14 106 -7q11 -11 15 -34q4 -19 4 -74v-446h-270q-30 64 -49 91h178l62 -2l-2 50v293v13
q-1 49 6 77h-81v-36h-106q-1 71 8 97h-93q10 -47 10 -119v-341q-26 44 -50 71q-17 -37 -49 -59q119 -165 168 -348zM849 58q66 0 103 -6q-20 58 -48 140q-56 157 -67 203q106 139 105 230q14 126 -170 155q0 -58 -38 -103q115 22 117 -67q-4 -93 -93 -205l83 -278h-137v451
v220q0 48 1 68q1 23 5 39h-89q4 -28 4 -107v-625q1 -77 -6 -121q51 6 117 6h113zM206 352v107h106v-107h-106zM312 514h-106v113h106v-113z" />
</svg>
