<?xml version="1.0" standalone="no"?>
<!DOCTYPE svg PUBLIC "-//W3C//DTD SVG 1.1//EN" "http://www.w3.org/Graphics/SVG/1.1/DTD/svg11.dtd" >
<svg xmlns="http://www.w3.org/2000/svg" xmlns:xlink="http://www.w3.org/1999/xlink" version="1.1" viewBox="-10 0 1034 1024">
  <g transform="matrix(1 0 0 -1 0 820)">
   <path fill="currentColor"
d="M449 60q57 -63 86 -110q21 27 33 36l-88 101l-132 139l3 32l205 -1q13 0 29 -3l2 -1v46l-97 -5h-136l7 297q156 0 173 -2q18 0 24 -4v47l-98 -5h-99q0 97 2 106q0 16 8 29q1 6 5 13h-59q0 -3 2 -7q3 -72 4 -113v-28q-142 0 -171 2q-4 1 -7 1t-12 2v-47q3 3 12 3
q30 1 53 3h125l-6 -297l-199 1q-9 1 -15 2q-3 0 -12 2v-46q15 3 30 4l190 1q-10 -72 -36 -123q-39 -76 -126 -150q-43 -36 -87 -52q24 -15 29 -20q6 -4 20 -18q51 45 121 114q6 9 15 17q60 69 90 154q36 -39 73 -76zM223 364q15 12 40 23l-75 143q-18 -10 -37 -20
q45 -72 72 -146zM412 378q18 -3 39 -16q0 3 7 16q6 9 34 73q18 42 23 46q6 10 20 23q-21 7 -50 20q-6 -25 -30 -79q-21 -48 -43 -83zM640 -112q0 -27 -5 -61h48q-3 24 -5 50v783h194q-6 -21 -14 -42l-71 -178q-3 -3 -5 -9q-4 -7 -9 -17q-15 -27 -16 -33q96 -84 130 -150
q30 -57 31 -118q0 -55 -40 -82q-31 -18 -85 -19q-15 0 -41 3q3 -7 8 -17q9 -15 10 -19q3 -6 6 -14q22 0 39 4q55 9 91 34q51 39 52 116q0 60 -30 115q-19 42 -54 85q-28 34 -68 76q18 36 38 86q78 193 89 220l-55 -6l-222 1q-12 3 -21 5q1 -30 5 -61v-752z" />
  </g>

</svg>
