<?xml version="1.0" standalone="no"?>
<!DOCTYPE svg PUBLIC "-//W3C//DTD SVG 1.1//EN" "http://www.w3.org/Graphics/SVG/1.1/DTD/svg11.dtd" >
<svg xmlns="http://www.w3.org/2000/svg" xmlns:xlink="http://www.w3.org/1999/xlink" version="1.1" viewBox="-10 0 1010 1000">
   <path fill="currentColor"
d="M268 -10q110 9 103 12q-11 17 -14 44q-4 30 -4 97h105q51 1 78 -6v78q-53 -9 -86 -8h-97v252h111q59 1 86 -8v75q-21 -5 -75 -4h-19h-105q-2 -2 -6 18q-1 7 -2 10q134 98 226 177l-71 67q-79 -99 -177 -175q-52 137 -200 258q-48 -42 -93 -51q193 -102 242 -304h-117
q-40 0 -55 1q-20 2 -38 7v-77q26 6 93 6h123v-250h-103q-30 -1 -84 8v-80q32 7 88 8h99l-2 -111q0 -15 -6 -44zM942 48q-110 319 -111 341q81 91 104 157q14 73 -4 127q-29 83 -181 103q-9 -49 -46 -107q147 26 151 -71q-6 -88 -109 -199q4 -10 7 -18q19 -42 59 -183
q9 -30 21 -71h-154v657q0 98 8 125h-96q7 -28 8 -127v-625q1 -65 -8 -109q34 5 55 7q18 1 56 1h119q67 1 121 -8zM456 254l74 26q-14 37 -56 112q-6 13 -10 19l-67 -16q46 -84 59 -141zM181 254q39 79 55 149l-75 16q-15 -87 -46 -153z" />
</svg>
