<?xml version="1.0" standalone="no"?>
<!DOCTYPE svg PUBLIC "-//W3C//DTD SVG 1.1//EN" "http://www.w3.org/Graphics/SVG/1.1/DTD/svg11.dtd" >
<svg xmlns="http://www.w3.org/2000/svg" xmlns:xlink="http://www.w3.org/1999/xlink" version="1.1" viewBox="-10 0 1010 1000">
   <path fill="currentColor"
d="M321 -10q67 22 86 30q22 9 1 20q-8 5 -11 8l-12 20q219 157 228 157v-66q1 -75 -8 -115q46 6 133 6h111q91 1 119 -8l-137 339q126 160 119 232q12 142 -188 173q-12 -61 -48 -103q149 19 145 -77q3 -82 -113 -205l113 -286h-167v677q0 59 4 113h-89q4 -37 5 -57
q1 -23 1 -58v-542q-27 14 -57 54q-84 -89 -209 -187q-64 93 -135 171q24 6 66 6h123q52 1 99 -6v77q-40 -6 -95 -5h-125q-44 0 -80 5v-65q-40 46 -87 81q-36 -39 -81 -51q90 -56 168 -145q77 -88 121 -193zM63 443q33 7 96 6h331q54 0 93 -6v79q-35 -7 -91 -6h-141l-127 213
l234 -30q-29 -60 -65 -101l75 -30q50 82 123 212l-85 48q-14 -48 -30 -80q-15 3 -58 10q-209 35 -269 62q-13 -49 -46 -89q48 -23 72 -56q58 -97 87 -159h-97q-53 1 -102 10v-83z" />
</svg>
