<?xml version="1.0" standalone="no"?>
<!DOCTYPE svg PUBLIC "-//W3C//DTD SVG 1.1//EN" "http://www.w3.org/Graphics/SVG/1.1/DTD/svg11.dtd" >
<svg xmlns="http://www.w3.org/2000/svg" xmlns:xlink="http://www.w3.org/1999/xlink" version="1.1" viewBox="-10 0 1010 1000">
   <path fill="currentColor"
d="M325 -10q27 48 46 104l-85 25q-19 -64 -46 -103zM581 72q39 7 109 8h135q63 -1 100 -8l-106 331q126 156 106 259q-22 102 -185 124q2 -39 -44 -105q129 18 142 -56q9 -80 -104 -202q32 -96 67 -214q15 -54 18 -58h-154v613q1 97 8 143h-92q7 -48 8 -141v-585
q-1 -66 -8 -109zM107 115q39 8 95 8h201q69 -1 105 -8q-8 36 -8 94v234q1 61 8 93q-36 -7 -97 -8h-221v205q30 -12 112 -51q39 -19 53 -25q-30 -39 -59 -65l73 -40q82 87 155 198l-76 48q-2 -3 -5 -9q-21 -40 -50 -80q-77 33 -266 147l-40 -72q16 -11 22 -30q5 -13 6 -63
v-488q0 -50 -8 -88zM425 195h-235v93h235v-93zM190 360v97h235v-97h-235z" />
</svg>
