<?xml version="1.0" standalone="no"?>
<!DOCTYPE svg PUBLIC "-//W3C//DTD SVG 1.1//EN" "http://www.w3.org/Graphics/SVG/1.1/DTD/svg11.dtd" >
<svg xmlns="http://www.w3.org/2000/svg" xmlns:xlink="http://www.w3.org/1999/xlink" version="1.1" viewBox="-10 0 1034 1024">
  <g transform="matrix(1 0 0 -1 0 820)">
   <path fill="currentColor"
d="M105 155q30 31 53 51q18 15 36 33l-1 -267q-3 -21 -4 -35h48q-3 16 -5 34v278h126l-1 -383l-5 -31h49q-3 24 -5 50v364h142v-211q0 -25 -17 -34q-16 -9 -44 -9q-7 0 -32 3q7 -19 13 -49q51 6 77 16q39 12 40 64l1 217q0 15 4 44q-54 -6 -73 -6h-111q0 21 3 39q1 18 12 36
h-59q0 -1 2 -5q0 -3 1 -6q0 -31 3 -64h-89q-16 3 -32 4q9 7 14 13q3 3 6 7q12 16 26 32q39 49 48 58h247q19 0 51 -3q6 0 12 -3v47q-9 -3 -22 -3q-21 0 -41 -2h-228q36 69 68 91q-24 12 -52 29q-19 -45 -32 -70q-10 -19 -24 -41q0 -3 -5 -9l-196 1q-12 1 -30 4v-47q6 3 13 3
q27 3 53 3h133q-21 -31 -47 -60q-25 -28 -53 -57q-24 -25 -40 -40q-57 -49 -94 -61q25 -13 51 -35q4 6 10 10zM465 630l-37 19q9 9 20 17q18 15 38 29q36 30 71 42q-19 18 -41 41q-48 -48 -131 -111l-195 86q-6 -16 -20 -38l174 -73q-54 -36 -126 -69q-54 -22 -91 -26
q19 -21 37 -46q13 7 22 11q61 28 105 53q42 24 99 60l111 -58q30 -18 62 -40q12 28 18 35q1 3 4 6zM674 -98l-4 -56q0 -1 -1 -4h48q-3 30 -5 60v773h191q-12 -30 -26 -57q-13 -30 -41 -83q-36 -70 -78 -135q64 -36 107 -77q75 -72 76 -160q0 -67 -52 -92q-33 -12 -77 -13
q-18 0 -43 2q12 -19 21 -50q94 12 133 34q57 33 58 121q0 103 -92 187q-25 25 -75 61q21 33 49 88l71 140q7 21 22 45q10 21 16 30q-49 -4 -62 -5l-201 1q-4 1 -11 2q-13 0 -29 2l5 -61v-753z" />
  </g>

</svg>
