<?xml version="1.0" standalone="no"?>
<!DOCTYPE svg PUBLIC "-//W3C//DTD SVG 1.1//EN" "http://www.w3.org/Graphics/SVG/1.1/DTD/svg11.dtd" >
<svg xmlns="http://www.w3.org/2000/svg" xmlns:xlink="http://www.w3.org/1999/xlink" version="1.1" viewBox="-10 0 1010 1000">
   <path fill="currentColor"
d="M119 20q48 7 125 8h135q100 -1 143 -6q-7 49 -8 123v48l63 -4v79q-14 -5 -63 -4v22q0 56 1 82q1 31 5 59q-63 -5 -159 -6h-103l-34 73q38 8 119 8h28q96 0 143 -6q-4 34 -6 78q-1 41 0 65v42q0 76 1 107q1 36 5 52h-85q4 -40 4 -66h-159q0 42 4 78h-88q11 -60 12 -139
v-56q0 -90 -4 -121q-10 13 -33 43q-46 60 -74 98q-19 -43 -55 -71q89 -76 141 -185q-51 -1 -80 6v-79q36 7 101 8q11 -41 16 -94q-62 0 -87 1q-31 1 -50 5v-81q63 6 145 6q6 -32 10 -97q-48 0 -70 1q-26 2 -43 5v-82zM603 34q83 7 133 8h60q61 0 144 -8q-59 166 -107 333
q66 71 87 120q23 50 18 113q-5 131 -182 140q-2 -59 -34 -109q119 33 129 -53q9 -105 -101 -191q16 -48 50 -168q21 -76 31 -109h-143v589q1 3 2 50q3 137 8 152h-97q5 -16 6 -61q1 -21 2 -52v-81v-530q-1 -91 -6 -143zM304 96q-6 60 -10 99h143v-99h-133zM288 262l-16 92
h165v-92h-149zM274 570v137h159v-137h-159z" />
</svg>
