<?xml version="1.0" standalone="no"?>
<!DOCTYPE svg PUBLIC "-//W3C//DTD SVG 1.1//EN" "http://www.w3.org/Graphics/SVG/1.1/DTD/svg11.dtd" >
<svg xmlns="http://www.w3.org/2000/svg" xmlns:xlink="http://www.w3.org/1999/xlink" version="1.1" viewBox="-10 0 1010 1000">
   <path fill="currentColor"
d="M107 26q37 8 117 8h165q65 1 113 -12q-7 34 -6 88v91q0 42 1 63q2 25 7 46q-46 -9 -117 -8h-163q-67 0 -119 8q9 -31 8 -101v-94q0 -62 -6 -89zM954 30l-139 333q120 145 120 227q-11 146 -179 162q-1 -61 -38 -95q125 22 127 -77q-1 -95 -115 -195q0 -2 11 -28
q24 -52 96 -247h-158v672q0 88 8 119h-96q9 -33 8 -119v-621q1 -81 -8 -129q75 8 155 8h64q81 0 144 -10zM192 102v133h227v-133h-227zM91 363q30 6 96 6h242q64 0 97 -7v81q-37 -10 -95 -10h-88v97h80l71 -8v82q-36 -10 -85 -10h-66v107q111 -13 183 -34q-9 37 -6 87
q-177 7 -443 56l-25 -83q59 -3 220 -18v-115h-89q-42 -1 -80 8v-80q39 9 78 8h91v-97h-85q-46 0 -96 10v-80z" />
</svg>
