<?xml version="1.0" standalone="no"?>
<!DOCTYPE svg PUBLIC "-//W3C//DTD SVG 1.1//EN" "http://www.w3.org/Graphics/SVG/1.1/DTD/svg11.dtd" >
<svg xmlns="http://www.w3.org/2000/svg" xmlns:xlink="http://www.w3.org/1999/xlink" version="1.1" viewBox="-10 0 1034 1024">
  <g transform="matrix(1 0 0 -1 0 820)">
   <path fill="currentColor"
d="M339 165l150 -1q15 0 37 -5v47q-9 -3 -22 -4q-19 -1 -40 -2h-125v127h154q21 0 50 -3q6 0 12 -3v47q-10 -1 -22 -4l-430 1q-6 0 -15 3v-47q12 6 52 6h161v-127q-132 0 -161 2l-20 4v-47q66 6 81 6h100v-142q-36 -6 -71 -9q-120 -9 -143 -11q-9 1 -20 1q10 -33 16 -58
q55 13 59 14q64 10 237 33q31 3 75 10l131 14l4 47q-70 -19 -250 -38v139zM470 461q18 0 61 -6q-4 48 -5 89l1 141l4 41q-18 -1 -34 -3q-19 -1 -80 -2l-240 1q-15 3 -45 4q6 -48 6 -78q0 -132 -2 -157l-4 -36q60 6 80 6h258zM175 497v188h313v-188h-313zM628 720l4 -50
l-1 -776q-1 -10 -2 -26q0 -4 -2 -9h48q-3 30 -5 61v769h213q-12 -33 -27 -62q-15 -33 -43 -87q-37 -76 -80 -143q64 -33 108 -72q78 -72 79 -150q0 -63 -51 -88q-30 -13 -73 -14q-18 0 -53 7q4 -7 8 -16q7 -15 13 -38q34 1 58 6q76 12 109 57q28 34 29 84q0 99 -96 183
q-24 21 -72 58l52 100l66 138l38 78q-30 -1 -59 -5l-219 1q-19 3 -43 4q0 -4 1 -10v0z" />
  </g>

</svg>
