<?xml version="1.0" standalone="no"?>
<!DOCTYPE svg PUBLIC "-//W3C//DTD SVG 1.1//EN" "http://www.w3.org/Graphics/SVG/1.1/DTD/svg11.dtd" >
<svg xmlns="http://www.w3.org/2000/svg" xmlns:xlink="http://www.w3.org/1999/xlink" version="1.1" viewBox="-10 0 1010 1000">
   <path fill="currentColor"
d="M288 -12q33 3 78 8q15 1 21 2q24 2 9 19q-18 19 -21 35q-1 7 -4 22q-15 102 -26 141q50 25 238 145l-67 63q-88 -85 -195 -153q-64 109 -212 205q-22 -38 -73 -70q99 -22 190 -121q71 -75 66 -224q0 -7 -2 -36q-1 -22 -2 -36zM913 32l-94 335q118 149 119 239
q-6 143 -184 160q-1 -63 -40 -99q142 22 141 -73q-5 -84 -117 -211q49 -132 72 -271h-127v670q0 92 7 125h-93q11 -29 10 -123v-387v-250q1 -78 -8 -111q42 8 115 8h88q65 1 111 -12zM474 50q17 4 41 12q25 8 37 10q11 3 -4 20q-10 11 -14 18q-8 13 -32 63q-16 34 -28 58
q-30 -21 -69 -30q40 -66 69 -151zM139 56q48 3 77 12q9 2 3 12q-12 19 -15 39q-10 66 -23 121q-40 -9 -76 -9q31 -93 34 -175zM286 377q21 3 50 6q32 5 49 6q10 1 -1 14q-16 20 -17 34q-8 99 -20 157q122 74 234 162l-61 68q-142 -140 -197 -161q-75 128 -208 216l-4 -4
q-35 -41 -79 -55q162 -73 224 -187q21 -38 29 -109q8 -77 1 -147zM474 449l88 34q-14 26 -78 117q-7 10 -10 15l-69 -29q49 -70 69 -137zM137 475l89 13q-33 124 -51 155l-80 -12q38 -66 42 -156z" />
</svg>
