<?xml version="1.0" standalone="no"?>
<!DOCTYPE svg PUBLIC "-//W3C//DTD SVG 1.1//EN" "http://www.w3.org/Graphics/SVG/1.1/DTD/svg11.dtd" >
<svg xmlns="http://www.w3.org/2000/svg" xmlns:xlink="http://www.w3.org/1999/xlink" version="1.1" viewBox="-10 0 1034 1024">
  <g transform="matrix(1 0 0 -1 0 820)">
   <path fill="currentColor"
d="M312 773q3 -39 3 -63q0 -49 -7 -110q-7 -66 -30 -107q-40 -76 -139 -125q-33 -15 -77 -21q30 -22 47 -42q66 34 100 59q78 61 119 139q37 -21 65 -42q34 -25 76 -60q25 -21 39 -34q12 -12 26 -31q13 24 31 42q-39 33 -89 70l-136 96q16 187 18 190q4 15 15 32
q-30 0 -61 7zM214 664l-55 16q-4 -33 -14 -64q-24 -73 -50 -109q22 -3 45 -12q16 39 40 106q13 40 34 63zM628 -89l-4 -56q0 -1 -1 -4h48q-3 30 -5 60v770h205q-12 -36 -24 -66l-83 -191q-6 -10 -13 -24q24 -15 39 -26q39 -28 67 -66q58 -72 59 -139q0 -70 -47 -97
q-27 -13 -79 -14q-19 0 -47 5q12 -31 17 -53q99 4 137 33q60 39 60 123q0 70 -53 145q-28 39 -99 104l32 69l65 162l32 76q-49 -4 -57 -5q-210 0 -241 3q-7 1 -13 2q1 -30 5 -60v-751zM225 262q-34 7 -55 14q-4 -42 -12 -65q-10 -42 -21 -70q-12 -24 -23 -42q22 -1 37 -6
q4 -1 9 -3q15 39 34 107q12 42 31 65zM531 218l8 12q13 24 33 38q-24 9 -50 26q-9 -27 -21 -55q-34 -61 -61 -87q22 -9 38 -22q15 21 31 49q10 19 22 39zM524 698q-15 -30 -31 -54q-22 -31 -41 -52q-16 -16 -36 -31q25 -12 40 -25q19 22 38 47q33 48 45 58q12 12 35 23
q-19 12 -50 34zM373 92q129 -91 191 -177q15 24 33 41q-48 43 -103 89l-142 112q1 22 5 45q6 103 10 115q1 16 7 26q3 4 4 8q-27 0 -62 4q6 -36 7 -74q0 -42 -4 -86q-9 -76 -34 -123q-49 -88 -147 -143q-39 -21 -77 -25q24 -24 41 -48q111 64 177 140q36 43 66 115z" />
  </g>

</svg>
