<?xml version="1.0" standalone="no"?>
<!DOCTYPE svg PUBLIC "-//W3C//DTD SVG 1.1//EN" "http://www.w3.org/Graphics/SVG/1.1/DTD/svg11.dtd" >
<svg xmlns="http://www.w3.org/2000/svg" xmlns:xlink="http://www.w3.org/1999/xlink" version="1.1" viewBox="-10 0 1034 1024">
  <g transform="matrix(1 0 0 -1 0 820)">
   <path fill="currentColor"
d="M281 278h267q37 0 60 -6v48l-60 -6l-429 1q-12 1 -26 2l-13 3v-48q16 4 30 5l132 1q-9 -45 -19 -74q-9 -27 -27 -67q27 3 56 5h242q-10 -64 -21 -106q-19 -70 -52 -91q-27 -13 -62 -14q-34 0 -80 14q7 -24 13 -55q84 0 118 9t60 40q21 27 34 71q7 27 16 67l21 106
q-49 -4 -53 -5h-234zM106 566q-3 -27 -5 -56q42 4 86 5q75 0 89 -2q15 0 33 -3q-4 45 -5 70l1 107l4 38q-24 -1 -47 -5l-123 1q-12 3 -38 4q4 -84 5 -88v-71zM267 551h-124v133h124v-133zM143 396q30 4 34 5l330 -1l34 -4v47q-60 -6 -80 -6l-281 1q-12 1 -25 2q-3 0 -12 3
v-47zM354 565l-4 -35q-1 -7 -1 -17q45 4 84 5l98 -1l39 -4q-4 45 -5 83l1 96q0 12 3 19q0 9 1 16q-27 -1 -54 -5q-112 0 -133 2q-3 1 -5 1q-12 0 -29 2q1 -24 5 -49v-113zM527 554h-135v132h135v-132zM640 735q1 -25 5 -53q0 -801 -3 -818l-2 -10h49q0 1 -1 5q-1 3 -4 57
v778h202q-12 -33 -26 -61l-35 -75q-24 -51 -42 -81q-13 -25 -32 -50l37 -33q19 -19 48 -55q27 -34 40 -56q33 -58 33 -117q0 -49 -36 -75q-34 -22 -90 -23q-15 0 -38 2q15 -19 25 -50l50 9q64 16 94 46q30 39 31 95q0 75 -62 167q-21 33 -84 96q43 81 70 135l54 122
q4 12 10 23q3 13 10 22q-45 -4 -53 -5l-209 1q-15 3 -41 4v0z" />
  </g>

</svg>
