<?xml version="1.0" standalone="no"?>
<!DOCTYPE svg PUBLIC "-//W3C//DTD SVG 1.1//EN" "http://www.w3.org/Graphics/SVG/1.1/DTD/svg11.dtd" >
<svg xmlns="http://www.w3.org/2000/svg" xmlns:xlink="http://www.w3.org/1999/xlink" version="1.1" viewBox="-10 0 1034 1024">
  <g transform="matrix(1 0 0 -1 0 820)">
   <path fill="currentColor"
d="M423 73q6 0 24 -3q6 0 24 -2q-4 45 -5 70l1 71l4 35q-4 0 -8 -1q-51 -3 -56 -4q-102 0 -124 2l-32 3q1 -24 5 -49l-4 -118q-1 -3 -1 -9q45 4 71 5h101zM292 107v99h137v-99h-137zM348 461l-281 5v-47q13 3 29 5l252 1v-81l-170 1q-15 3 -41 4q1 -27 5 -54q0 -372 -3 -390
q-1 -3 -2 -9h48q-1 3 -1 6q-3 6 -3 40q0 4 -1 25h363l-4 -64q-1 -1 -1 -4h48q-3 31 -5 63l1 348l4 39q-25 -1 -52 -5h-149v81l211 -1q18 0 33 -5v47q-6 -1 -17 -2q-34 -3 -42 -3h-185v80q126 0 137 -2q15 0 32 -3q-4 42 -5 64q0 90 2 101q0 15 3 30q-27 -1 -53 -5l-293 1
q-7 3 -36 4q1 -25 5 -52q0 -88 -2 -113q-3 -3 -3 -30q7 3 36 4l140 1v-80zM180 3v305h363v-305h-363zM213 577v113h298v-113h-298zM663 719q1 -27 5 -54l-1 -787l-2 -12l-2 -11h48q0 1 -1 5q-1 3 -4 56v762h182l-53 -120q-21 -49 -38 -81l-38 -75q51 -33 58 -40
q25 -21 48 -47q54 -64 54 -136q0 -79 -73 -104q-27 -6 -47 -7q-12 0 -37 4q12 -24 20 -54q48 10 79 21q36 16 57 36q36 40 37 106q0 66 -37 124q-28 45 -109 112l64 137q4 15 12 27l67 138q-24 -1 -48 -5l-201 1q-15 3 -40 4v0z" />
  </g>

</svg>
