<?xml version="1.0" standalone="no"?>
<!DOCTYPE svg PUBLIC "-//W3C//DTD SVG 1.1//EN" "http://www.w3.org/Graphics/SVG/1.1/DTD/svg11.dtd" >
<svg xmlns="http://www.w3.org/2000/svg" xmlns:xlink="http://www.w3.org/1999/xlink" version="1.1" viewBox="-10 0 1034 1024">
  <g transform="matrix(1 0 0 -1 0 820)">
   <path fill="currentColor"
d="M334 57l-248 1q-24 3 -27 4v-47q18 3 37 5l238 1l-1 -131l-2 -26l-2 -11h48q-3 7 -4 33l-1 135l205 -1l30 -4q1 0 4 -1v47l-97 -5h-142v65q129 0 142 -2q3 0 40 -4q-4 52 -5 99l1 117q0 19 4 44q-31 -1 -64 -5l-306 1q-12 3 -40 4q1 -30 5 -63l-1 -153q-3 -12 -4 -44
q60 6 87 6h103v-65zM186 264v71h325v-71h-325zM511 157h-325v71h325v-71zM130 464q-34 0 -53 2q-4 0 -12 3v-47q18 3 37 5l440 1q24 0 54 -3q1 0 4 -2q3 0 5 -1v47q-10 -1 -22 -4l-160 -1q36 63 73 85q-24 15 -49 39q-6 -21 -29 -65q-18 -30 -37 -59h-251zM570 633
q-10 -1 -22 -4h-410q-15 3 -28 4v-47l52 6l374 -1q21 0 29 -4q3 0 5 -1v47zM255 733l67 -56q15 -13 39 -44q24 27 31 34l-63 56q-3 3 -7 5q-12 9 -25 21q-7 7 -17 13q-10 -15 -25 -29zM661 -83q-3 -51 -5 -62h48q-1 3 -1 5q0 1 -4 53v761h177q-58 -153 -124 -271l45 -27
q54 -37 87 -81q36 -45 36 -102q0 -75 -42 -97q-21 -12 -61 -12q-37 0 -66 9q4 -33 6 -50q16 1 35 1q54 1 75 7q34 9 57 34q33 36 33 106q0 87 -66 153q-27 28 -87 74l133 297q-4 0 -8 -1q-63 -3 -92 -4l-135 1q-1 0 -46 4q1 -33 5 -69v-729zM290 515q-54 60 -67 73l-14 -15
q-7 -6 -15 -10q33 -33 51 -54q15 -18 30 -44q12 16 30 32z" />
  </g>

</svg>
