<?xml version="1.0" standalone="no"?>
<!DOCTYPE svg PUBLIC "-//W3C//DTD SVG 1.1//EN" "http://www.w3.org/Graphics/SVG/1.1/DTD/svg11.dtd" >
<svg xmlns="http://www.w3.org/2000/svg" xmlns:xlink="http://www.w3.org/1999/xlink" version="1.1" viewBox="-10 0 1034 1024">
  <g transform="matrix(1 0 0 -1 0 820)">
   <path fill="currentColor"
d="M211 655l-114 1q-18 3 -33 5v-48q3 3 12 4q37 3 54 3h81q0 -58 -2 -87q-3 -3 -3 -28q45 4 92 5h31v-62l-167 3q-10 3 -27 3q6 -54 6 -85l-6 -84q60 6 78 6h116v-73l-225 4q-1 1 -3 1v-46q3 1 12 2q37 3 54 3h162v-74h-128q-34 0 -53 3q-3 0 -13 2v-46q12 3 45 4l149 1
v-90l-206 -16l-50 1q13 -28 20 -52q31 9 85 15l75 9l247 26l96 9q0 3 7 43q-27 -7 -92 -16q-66 -9 -146 -15v86l169 -1q24 0 32 -4v46q-9 -3 -21 -3q-19 -1 -41 -2h-139v74l206 -1q22 0 32 -4v46q-15 -3 -22 -4l-216 -1v73h147q6 0 31 -3q3 0 31 -3q-6 48 -6 76q0 36 3 71
q0 12 3 22q-60 -6 -70 -6h-139v62q78 0 94 -2q15 0 30 -3q-3 12 -4 37q-1 9 -2 78q91 0 111 -2q7 0 16 -2q3 -1 6 -3v48q-60 -6 -91 -6h-42q0 75 3 78q3 16 12 33h-59q0 -3 2 -6q0 -1 1 -5l3 -100h-196q0 72 5 85q3 12 9 23h-57q4 -99 5 -105v-3zM178 326v87h151v-87h-151z
M445 620v-74h-196v74h196zM530 326h-165v87h165v-87zM662 -101l-4 -56q0 -1 -1 -4h48q-3 30 -5 60v776h178q-18 -51 -44 -113q-30 -75 -79 -178q58 -34 102 -83q63 -67 64 -160q0 -75 -59 -96q-19 -7 -55 -8q-21 0 -47 6q9 -18 19 -53q36 3 57 6l36 10q88 25 89 136
q0 99 -80 189q-22 25 -75 66q3 12 39 92l36 85q19 45 27 64q21 60 31 78q-18 -1 -25 -2q-22 -3 -74 -3l-168 3q-7 1 -15 2q1 -30 5 -61v-756z" />
  </g>

</svg>
