<?xml version="1.0" standalone="no"?>
<!DOCTYPE svg PUBLIC "-//W3C//DTD SVG 1.1//EN" "http://www.w3.org/Graphics/SVG/1.1/DTD/svg11.dtd" >
<svg xmlns="http://www.w3.org/2000/svg" xmlns:xlink="http://www.w3.org/1999/xlink" version="1.1" viewBox="-10 0 1010 1000">
   <path fill="currentColor"
d="M169 2q80 2 93 12q0 1 -3 5q-17 25 -17 57v20h167v-20q0 -52 -6 -72q76 2 95 10q0 1 -2 5q-14 23 -14 59v16q59 0 117 -6v71q-41 -5 -117 -6v18q1 69 8 103q-30 -4 -103 -4h-22v48h91l102 -6l-4 91v14q0 53 4 85q-41 -4 -92 -4h-101v50h77q77 -1 121 -6v68
q-21 -7 -103 -6h-20h-75v57h66q68 -2 123 -10v72q-2 0 -11 -1q-54 -5 -114 -5h-64v57q15 -2 72 -8q78 -8 132 -14l-11 72q-332 25 -467 49l-29 -91q43 3 108 2t124 -6v-61h-70q-75 2 -115 10v-72q45 6 117 6h68v-57h-76q-86 0 -119 6v-68q37 6 119 6h76v-50h-96q-20 0 -74 3
q-15 1 -23 1q4 -50 4 -81v-8q0 -43 -4 -99q52 4 111 4h82v-48h-30l-95 2l4 -91v-24q-83 -1 -117 6v-77q50 7 117 8v-22q0 -47 -4 -70zM931 52q-27 110 -96 335q144 202 96 310q-30 71 -171 91q-5 -49 -40 -99q152 27 137 -89q-5 -79 -101 -201q35 -91 69 -278h-119v625
q3 125 10 171h-95q10 -63 10 -171v-561q-1 -80 -8 -133q51 6 137 6h28q82 -1 143 -6zM242 155v56h169v-56h-169zM482 373h-117v70h117v-70zM294 373h-119v70h119v-70z" />
</svg>
