<?xml version="1.0" standalone="no"?>
<!DOCTYPE svg PUBLIC "-//W3C//DTD SVG 1.1//EN" "http://www.w3.org/Graphics/SVG/1.1/DTD/svg11.dtd" >
<svg xmlns="http://www.w3.org/2000/svg" xmlns:xlink="http://www.w3.org/1999/xlink" version="1.1" viewBox="-10 0 1010 1000">
   <path fill="currentColor"
d="M351 -12q26 41 44 88l-64 24h151q48 0 95 -6v71q-41 -6 -97 -6h-43q15 9 39 20q15 6 14 8t-5 5q-24 16 -52 80h63q26 0 92 -6q10 -1 15 -2v78q-26 -7 -107 -10h-345q-42 0 -101 10v-76q41 6 103 6h218q29 -60 38 -113h-215q-65 0 -107 6v-71q36 6 109 6h123
q-15 -42 -41 -84zM625 46q51 6 99 6h97q63 0 104 -6q-30 99 -80 245q-22 65 -22 69q131 133 123 232q3 126 -170 156q-1 -4 -2 -11q-6 -53 -30 -84q114 8 119 -51q7 -126 -117 -233q16 -46 36 -105q32 -88 45 -149h-127v665q0 80 6 123h-81q7 -57 4 -121v-613v-19
q1 -67 -4 -104zM550 377q-7 31 -6 100v35q0 68 1 94q1 32 5 51q-48 -6 -175 -6v54h131q55 0 97 -6v71q-29 -7 -83 -6h-12h-133v29q-2 79 6 112h-85q8 -35 8 -141h-149h-11q-49 -1 -86 6v-71q32 6 95 6h151v-54q-143 0 -191 6q4 -25 5 -55q1 -15 1 -34v-56q0 -59 -1 -78
q-1 -23 -5 -57q29 5 76 7q23 0 55 1h87q110 0 145 -1q45 -2 74 -7zM472 441h-282v51h282v-51zM472 542h-282v54h282v-54zM258 165q16 24 44 73l-60 26q-20 -44 -42 -75z" />
</svg>
