<?xml version="1.0" standalone="no"?>
<!DOCTYPE svg PUBLIC "-//W3C//DTD SVG 1.1//EN" "http://www.w3.org/Graphics/SVG/1.1/DTD/svg11.dtd" >
<svg xmlns="http://www.w3.org/2000/svg" xmlns:xlink="http://www.w3.org/1999/xlink" version="1.1" viewBox="-10 0 1010 1000">
   <path fill="currentColor"
d="M593 18v78q-32 -8 -97 -8h-117v67h75q50 1 92 -8v70q-38 -9 -92 -8h-75v69h139q62 0 95 -8v76q-40 -9 -93 -8h-383q-55 0 -91 10v-74q30 6 85 6v-71q0 -55 -4 -76q30 5 64 10q7 2 9 2q11 1 5 17q-7 17 -7 29v87h110v-190h-127q-64 0 -102 8v-76q45 7 111 8h266
q95 -1 137 -10zM637 24q44 8 117 8h56q75 1 123 -8q-12 55 -59 240q-18 68 -27 105q107 141 107 246q0 133 -166 157q-13 -60 -48 -101q128 23 131 -81q3 -75 -103 -207q36 -107 71 -287h-115v682q-1 76 8 121h-95q9 -38 8 -119v-653q1 -59 -8 -103zM119 358q21 2 57 5
q20 1 28 2q0 6 -5 15q-9 17 -7 31h266q65 0 96 -10v74q-38 -9 -96 -8h-266v57h302q62 1 99 -8q-2 31 -5 95q-7 200 -26 213q-28 38 -151 55q-12 -55 -52 -95q79 12 117 -4q28 -11 30 -81l2 -117l-274 6q-64 1 -117 10q6 -33 6 -92v-65q0 -60 -4 -83zM440 612q9 34 24 99
q5 25 8 37l-67 10q-2 -64 -26 -135zM83 619l76 16q-24 62 -46 171l-75 -14q15 -60 45 -173zM343 631q3 20 9 58q8 54 13 79l-65 6q-2 -71 -18 -139zM181 635h63q3 66 14 149h-71q7 -92 -6 -149z" />
</svg>
