<?xml version="1.0" standalone="no"?>
<!DOCTYPE svg PUBLIC "-//W3C//DTD SVG 1.1//EN" "http://www.w3.org/Graphics/SVG/1.1/DTD/svg11.dtd" >
<svg xmlns="http://www.w3.org/2000/svg" xmlns:xlink="http://www.w3.org/1999/xlink" version="1.1" viewBox="-10 0 1034 1024">
  <g transform="matrix(1 0 0 -1 0 820)">
   <path fill="currentColor"
d="M131 239l-61 4q-3 0 -5 1v-46q6 3 31 3q22 3 35 2l462 -1q24 0 33 -4v46l-102 -5h-58q25 45 36 56q12 15 37 31q-31 18 -49 33q-16 -37 -30 -62q-12 -24 -35 -58h-61v129l198 -1q12 0 32 -4v46q-3 0 -8 -2q-15 0 -31 -2l-191 -1v79q147 0 167 -2q15 0 21 -3v46
q-12 0 -23 -3l-165 -2v75l211 -3q4 0 7 -3v47q-19 -3 -23 -4l-151 -1q9 9 17 21q48 66 52 69q10 9 34 22q-22 12 -53 33q-19 -36 -47 -80q-30 -45 -49 -65l-248 2q-6 0 -15 3v-47q3 3 20 4l89 2h118v-75q-127 0 -156 2q-6 1 -11 1l-12 2v-46q3 1 12 2q37 3 54 3h113v-79
q-204 0 -222 3q-3 0 -9 2v-46q51 4 76 5h155v-129h-84q9 7 16 13q3 1 8 6q-16 19 -42 52l-36 43q-13 -12 -29 -22q36 -39 72 -92h-100zM220 130q-7 0 -63 5q1 -30 5 -62l-1 -198q-3 -19 -4 -31h49q-6 13 -6 60v18h293l1 -1q0 -33 -2 -47q-1 -9 -4 -14h49q0 4 -2 9l-4 52
l1 164q1 24 5 50q-60 -4 -92 -5h-225zM200 -43v137h294v-137h-294zM247 717q-33 37 -48 53q-4 -3 -8 -7q-6 -7 -21 -20q55 -57 83 -103q12 15 17 18q3 3 18 13q-6 7 -15 17zM659 -104q0 -21 -4 -54l-2 -7h49q-3 24 -5 50v780h197l-25 -63q-13 -33 -35 -77q-25 -54 -44 -88
q-15 -27 -31 -52q24 -13 62 -44q52 -48 79 -94q27 -49 28 -96q0 -60 -33 -87q-31 -27 -87 -27q-18 0 -38 6q9 -15 16 -34q4 -15 7 -19q46 4 72 14q102 33 102 140q0 93 -79 182q-27 30 -77 70q18 33 42 88q16 37 35 73q48 99 68 149q-28 -1 -58 -5q-183 0 -208 2q-6 3 -37 3
l6 -61v-749z" />
  </g>

</svg>
