<?xml version="1.0" standalone="no"?>
<!DOCTYPE svg PUBLIC "-//W3C//DTD SVG 1.1//EN" "http://www.w3.org/Graphics/SVG/1.1/DTD/svg11.dtd" >
<svg xmlns="http://www.w3.org/2000/svg" xmlns:xlink="http://www.w3.org/1999/xlink" version="1.1" viewBox="-10 0 1034 1024">
  <g transform="matrix(1 0 0 -1 0 820)">
   <path fill="currentColor"
d="M331 364l-6 -60h48l-4 60v83q153 -99 216 -166q15 27 30 41q-3 0 -106 75l-24 17l-87 58l193 -1q24 0 33 -4v46q-1 0 -60 -5h-105q9 13 19 29q19 27 40 58q6 9 33 28q-25 12 -50 29q-12 -27 -33 -64q-21 -39 -50 -80h-49v173l131 23q49 4 66 5q-21 22 -28 35q-3 6 -11 15
q-36 -15 -66 -23q-48 -9 -112 -19q-87 -12 -171 -12q-34 0 -78 4q15 -22 29 -48l151 11q21 0 51 4v-168l-234 1l-18 2q-3 0 -12 2v-46q3 1 12 2q37 3 54 3h169q-63 -67 -135 -123q-72 -51 -120 -63q24 -18 42 -41q81 57 139 106q52 45 103 96v-83zM557 284q-31 -1 -63 -5
l-299 1q-19 3 -43 4q1 -30 5 -61l-1 -316q-3 -18 -4 -35h48q-3 24 -5 50v31h319l-4 -72q-1 0 -1 -3h48q-3 30 -5 60l1 303q0 6 4 43zM337 135h-142v109h142v-109zM195 -11v109h142v-109h-142zM374 135v109h140v-109h-140zM374 -11v109h140v-109h-140zM221 603q-9 12 -34 36
q-12 -15 -29 -28q33 -31 48 -49q13 -15 33 -45q22 22 33 31zM648 711q1 -30 5 -61l-1 -770q-3 -21 -4 -35h47v5q-1 6 -4 55v765h206q-25 -58 -69 -139q-42 -76 -75 -126q63 -42 103 -85q73 -78 74 -178q0 -66 -50 -93q-33 -16 -74 -17q-16 0 -40 2q19 -45 20 -51q30 3 53 8
q63 15 92 44q37 39 38 110q0 121 -90 208q-66 60 -69 63q132 258 151 290q1 3 3 5q-30 -1 -61 -5l-208 1q-19 3 -47 4v0z" />
  </g>

</svg>
