<?xml version="1.0" standalone="no"?>
<!DOCTYPE svg PUBLIC "-//W3C//DTD SVG 1.1//EN" "http://www.w3.org/Graphics/SVG/1.1/DTD/svg11.dtd" >
<svg xmlns="http://www.w3.org/2000/svg" xmlns:xlink="http://www.w3.org/1999/xlink" version="1.1" viewBox="-10 0 1010 1000">
   <path fill="currentColor"
d="M415 -8q64 21 93 42q0 1 -7 5q-21 10 -39 27q-23 20 -41 44h21q82 0 133 -8v77q-32 -6 -137 -6h-75v60h36q82 0 139 -6v73q-59 -9 -137 -6h-38v60h56q80 0 143 -8v77q-40 -7 -139 -8h-60v105h46q24 -41 39 -93q72 17 82 26q0 2 -9 8q-36 24 -57 59q64 -1 133 -12v82
q-27 -6 -125 -6h-301q-85 -3 -129 8v-82q58 9 127 10q-9 -37 -34 -71l65 -20q20 27 40 75l-42 16h94v-105h-54q-106 -1 -141 8v-77q81 8 141 8h54v-60h-38q-100 0 -135 6v-75q31 5 101 7q21 1 32 1h40v-60h-80q-82 0 -125 8v-79q51 8 115 8h26q-18 -46 -53 -88l71 -28
q25 27 54 94l-62 22h117q43 -68 60 -118zM621 56q44 5 123 6h50q105 -1 150 -6q-43 151 -111 335q142 152 119 270q-14 110 -180 129q-14 -58 -48 -107q129 21 151 -52q8 -109 -127 -218q39 -100 89 -284h-135v621q1 -1 3 49q3 103 7 122h-93q11 -64 12 -171v-553
q0 -33 -8 -123q-1 -12 -2 -18zM121 625q78 4 129 4h143q72 0 131 -6q-8 64 -6 106v47q0 74 8 113h-89q0 -4 2 -15q3 -31 3 -42h-242q-1 50 4 63h-87q7 -33 8 -129v-33q0 -52 -4 -108zM200 693v75h242v-75h-242z" />
</svg>
