<?xml version="1.0" standalone="no"?>
<!DOCTYPE svg PUBLIC "-//W3C//DTD SVG 1.1//EN" "http://www.w3.org/Graphics/SVG/1.1/DTD/svg11.dtd" >
<svg xmlns="http://www.w3.org/2000/svg" xmlns:xlink="http://www.w3.org/1999/xlink" version="1.1" viewBox="-10 0 1034 1024">
  <g transform="matrix(1 0 0 -1 0 820)">
   <path fill="currentColor"
d="M622 674h265q24 0 52 -3q1 0 14 -2v46q-24 -4 -66 -5l-776 1q-12 1 -25 2q-3 0 -16 2v-46q45 4 66 5h278v-152l-190 1q-15 3 -45 4q1 -31 5 -65l-1 -578q-1 -16 -2 -31q-1 -3 -2 -14h47q-6 55 -5 85h594q-1 -30 -3 -62q0 -6 -2 -13h48q-3 15 -4 33l-1 581q1 31 5 64
q-33 -1 -66 -5h-170v152zM221 126v360h190q-16 -189 -158 -253q24 -12 47 -34q48 39 94 106q25 39 37 74q9 30 20 107h134v-138q0 -45 33 -68q18 -12 41 -16q24 -3 80 -4q22 0 45 -1q3 27 13 48q-39 -6 -75 -6q-61 0 -80 12q-19 13 -20 55v118h193v-360h-594zM221 -40v131
h594v-131h-594zM451 522v152h134v-152h-134z" />
  </g>

</svg>
