<?xml version="1.0" standalone="no"?>
<!DOCTYPE svg PUBLIC "-//W3C//DTD SVG 1.1//EN" "http://www.w3.org/Graphics/SVG/1.1/DTD/svg11.dtd" >
<svg xmlns="http://www.w3.org/2000/svg" xmlns:xlink="http://www.w3.org/1999/xlink" version="1.1" viewBox="-10 0 1034 1024">
  <g transform="matrix(1 0 0 -1 0 820)">
   <path fill="currentColor"
d="M132 581l-61 4q-1 0 -5 2v-47q1 0 3 1q-3 0 9 1q34 1 54 3h279v-116l-173 1q-19 3 -52 4q1 -33 5 -66l-1 -502q-1 -12 -2 -27q0 -3 -2 -14h47q-3 15 -4 38l-1 40h571l-1 -55q0 -12 -4 -18h50q-6 30 -6 58l1 500q0 18 4 46q-66 -4 -99 -5h-129v116l301 -1q27 0 39 -4l2 -1
v47q-24 -4 -66 -5h-290q6 10 18 21q27 31 54 65q39 45 49 53q9 9 38 22q-6 6 -19 13q-19 13 -35 29l-81 -115q-6 -6 -11 -14q-24 -30 -64 -74h-418zM228 -61v109h572v-109h-572zM228 83v310h178q-7 -81 -44 -140q-42 -66 -98 -90q30 -16 42 -31q66 58 98 118q30 55 41 143
h133v-126q0 -37 32 -57q33 -16 113 -17l77 2v-112h-572zM447 428v117h131v-117h-131zM800 232l-85 -2q-36 0 -58 4q-18 3 -29 11q-12 10 -13 41v107h185v-161zM246 729l98 -74q39 -31 57 -50q15 24 29 37q-49 42 -90 71q-30 21 -67 51q-10 -16 -27 -35v0z" />
  </g>

</svg>
