<?xml version="1.0" standalone="no"?>
<!DOCTYPE svg PUBLIC "-//W3C//DTD SVG 1.1//EN" "http://www.w3.org/Graphics/SVG/1.1/DTD/svg11.dtd" >
<svg xmlns="http://www.w3.org/2000/svg" xmlns:xlink="http://www.w3.org/1999/xlink" version="1.1" viewBox="-10 0 1034 1024">
  <g transform="matrix(1 0 0 -1 0 820)">
   <path fill="currentColor"
d="M65 434l90 -55q27 -18 59 -47q12 16 25 35q-55 51 -149 105q-3 -9 -13 -18q-3 -7 -12 -20zM270 607q13 18 22 23q-64 61 -149 119l-9 -15q-9 -9 -17 -21q52 -39 80 -57q1 0 65 -58q3 4 8 9zM233 62q12 31 26 63l52 130q-18 25 -34 50q-15 -55 -30 -101q-21 -58 -43 -111
q-18 -48 -35 -82q-16 -36 -29 -57q-10 -18 -26 -38q30 -18 51 -36q3 12 5 13q7 21 14 43zM719 668l239 -3l2 -1q4 0 8 -1v47q-19 -4 -42 -5h-553q-4 1 -9 1q-15 1 -29 4v-47q6 3 23 3l145 2h51v-131l-122 1q-19 3 -48 4q1 -30 5 -63l-1 -589q-3 -6 -3 -38q-1 -1 -1 -5h47
q-6 60 -5 82v7h444q-1 -33 -3 -68q-1 -6 -2 -17h48q-4 39 -5 68l1 576q0 18 4 47q-33 -1 -68 -5h-126v131zM426 -28v142h444v-142h-444zM426 150v351h128q-3 -82 -18 -130q-28 -79 -103 -122q24 -10 47 -26q55 51 83 118q22 57 28 160h90v-152q0 -30 10 -46q18 -28 75 -29
l73 4l31 1v-129h-444zM592 537v131h89v-131h-89zM870 318q-57 -4 -100 -6q-27 0 -38 8q-12 12 -13 37v144h151v-183z" />
  </g>

</svg>
