<?xml version="1.0" standalone="no"?>
<!DOCTYPE svg PUBLIC "-//W3C//DTD SVG 1.1//EN" "http://www.w3.org/Graphics/SVG/1.1/DTD/svg11.dtd" >
<svg xmlns="http://www.w3.org/2000/svg" xmlns:xlink="http://www.w3.org/1999/xlink" version="1.1" viewBox="-10 0 1034 1024">
  <g transform="matrix(1 0 0 -1 0 820)">
   <path fill="currentColor"
d="M329 541v128q135 0 157 -3q6 0 12 -2v46q-30 -4 -66 -5l-362 3q-6 0 -16 2v-46q30 4 64 5h84v-128q-49 0 -114 5l6 -68l-1 -575q-1 -7 -2 -35q-1 -3 -1 -6q-1 -3 -2 -8h49q-4 15 -5 40l-1 51h276q-1 -36 -3 -75q-1 -3 -2 -15h49q-3 9 -3 15q-1 28 -3 52v463q15 0 33 -6
q9 -3 19 -6q13 21 30 49l61 107h72l-3 -673q-1 -3 -1 -6q-1 -1 -2 -8h49q-4 45 -5 66v218l199 -1q4 0 26 -3l13 -2v47q-6 0 -12 -2q-24 0 -52 -4h-174v162l193 -1l40 -4v46q-33 -1 -65 -5h-168v170q238 0 252 -3q10 0 23 -2v47q-7 -1 -57 -6h-313q16 40 30 83q18 57 28 71
q7 13 27 27l-63 20q-7 -67 -67 -204q-55 -121 -113 -169v86q0 9 3 34q0 15 3 33l-91 -5h-31zM131 131v374h71q-1 -25 -2 -51q0 -40 -4 -71q-3 -28 -8 -58q-15 -70 -54 -113q25 -1 47 -18q27 60 39 101q9 42 15 123l3 59q0 15 1 28h52v-200q0 -46 20 -62q16 -12 77 -18
q9 0 19 -1v-93h-276zM131 -19v114h276v-114h-276zM291 669v-128h-52v128h52zM407 505v-240q-60 0 -70 9q-7 7 -8 33v198h78z" />
  </g>

</svg>
