<?xml version="1.0" standalone="no"?>
<!DOCTYPE svg PUBLIC "-//W3C//DTD SVG 1.1//EN" "http://www.w3.org/Graphics/SVG/1.1/DTD/svg11.dtd" >
<svg xmlns="http://www.w3.org/2000/svg" xmlns:xlink="http://www.w3.org/1999/xlink" version="1.1" viewBox="-10 0 1034 1024">
  <g transform="matrix(1 0 0 -1 0 820)">
   <path fill="currentColor"
d="M898 370q36 -1 66 -6v47q-21 -6 -66 -6h-330q-21 0 -50 3q-6 0 -15 3v-47q6 0 15 2l50 4h140q-60 -180 -124 -308q-27 -52 -43 -76q-9 -13 -25 -19q18 -31 24 -52q18 12 53 14q13 3 298 29q6 -12 5 -9q6 -9 11 -21q6 -15 11 -26q3 -9 9 -21q16 15 31 21q4 1 8 4
q-3 9 -9 18q-57 120 -151 270q-15 -12 -39 -22q18 -21 53 -79q30 -51 54 -101l-135 -11l-161 -10q48 93 88 183q39 93 85 216h147zM554 659q33 3 66 5l267 -1l25 -4v46q-24 -4 -66 -5l-251 1q-12 1 -26 2q-3 0 -15 2v-46zM498 701q-24 -6 -66 -6l-337 1q-30 3 -40 5v-47
q12 4 27 5l138 2v-144q-57 0 -81 2l-39 4q1 -30 5 -61l-1 -580l-4 -31h47q-1 4 -1 7t-4 61v30h289l-4 -81l-1 -6h48q-4 24 -5 67l1 551l4 43q-66 -6 -100 -6h-20v144q103 0 119 -2q12 0 25 -5v47zM142 -17v122h289v-122h-289zM142 141v340h79q-7 -108 -27 -160
q-21 -55 -51 -81q7 -4 18 -9q6 0 12 -4q6 -3 10 -7q37 57 53 109q18 69 22 152h58v-152q0 -48 30 -62q22 -9 85 -10v-116h-289zM316 517h-58v144h58v-144zM431 294q-15 1 -28 1q-27 0 -39 9q-9 9 -10 31v146h77v-187z" />
  </g>

</svg>
