<?xml version="1.0" standalone="no"?>
<!DOCTYPE svg PUBLIC "-//W3C//DTD SVG 1.1//EN" "http://www.w3.org/Graphics/SVG/1.1/DTD/svg11.dtd" >
<svg xmlns="http://www.w3.org/2000/svg" xmlns:xlink="http://www.w3.org/1999/xlink" version="1.1" viewBox="-10 0 1010 1000">
   <path fill="currentColor"
d="M724 6q40 68 58 119l-84 20q-13 -45 -53 -115zM65 60q50 8 129 8h193q57 0 133 -8v85q-42 -9 -127 -8h-20v119q93 1 139 -8q-9 36 -8 125v375q0 75 8 137h-83q9 -34 9 -77h-295q0 52 8 81h-82q7 -40 6 -125v-35v-342q0 -50 -7 -125q-1 -8 -1 -12q60 6 151 6v-119h-24
q-77 1 -129 8v-85zM321 137h-51v119h51v-119zM950 153q-8 29 -8 91q0 63 8 98h-87q9 -51 10 -119h-268q0 70 8 115h-87q8 -45 8 -98q0 -47 -8 -87q52 8 119 8h167q72 0 138 -8zM321 320h-51q2 139 -44 254q-35 -20 -71 -24q65 -98 63 -230h-75v290h294v-58q-85 1 -98 -9
q-19 -7 -18 -51v-172zM373 320v135q-1 32 10 38q9 7 54 5v-178h-64zM617 312q94 9 107 22q1 3 -4 9q-22 27 -22 82v109q97 -87 145 -149q46 33 74 72q-2 3 -15 8q-29 12 -53 29q-68 53 -151 102v129q-1 44 12 55q11 13 54 12q53 1 75 -10q25 -7 32 -91q30 45 81 71
q-29 80 -56 93q-15 10 -40 13q-21 3 -76 3q-118 2 -133 -15q-25 -10 -22 -90v-331q0 -73 -8 -123zM143 669v75h294v-75h-294z" />
</svg>
