<?xml version="1.0" standalone="no"?>
<!DOCTYPE svg PUBLIC "-//W3C//DTD SVG 1.1//EN" "http://www.w3.org/Graphics/SVG/1.1/DTD/svg11.dtd" >
<svg xmlns="http://www.w3.org/2000/svg" xmlns:xlink="http://www.w3.org/1999/xlink" version="1.1" viewBox="-10 0 1010 1000">
   <path fill="currentColor"
d="M685 -4q74 1 91 10q1 3 -3 12q-15 32 -15 80v115h59q72 0 129 -8v77q-60 -6 -129 -6h-59v177q70 0 125 -8q-8 67 -8 145v182q0 45 8 129h-81q0 -7 2 -31q4 -39 4 -60h-169q0 39 8 87h-84q8 -49 8 -137v-180q0 -73 -8 -135q4 0 11 1q65 7 116 7v-177h-47q-43 0 -68 1
q-28 2 -55 5v-77q53 8 125 8h45v-100q0 -52 -1 -71q-1 -25 -4 -46zM67 58q68 8 123 8h229q87 0 123 -8v83q-40 -8 -119 -8h-50v105q79 0 129 -7q-8 58 -8 131v398q0 76 8 139h-81q8 -58 8 -97h-262q0 66 6 99h-80q8 -54 8 -139v-393q0 -90 -8 -138q42 7 127 7v-105h-32
q-53 0 -121 8v-83zM321 133h-49v105h49v-105zM220 298h-53v210q48 -54 53 -210zM321 298h-49q-2 168 -58 274l-8 -8q-23 -26 -39 -30v74h262v-76q-76 1 -90 -12q-19 -10 -18 -63v-159zM429 298h-56v135q-1 34 9 39q8 8 47 3v-177zM639 512v238h169v-238h-169zM167 663v83
h262v-83h-262z" />
</svg>
