<?xml version="1.0" standalone="no"?>
<!DOCTYPE svg PUBLIC "-//W3C//DTD SVG 1.1//EN" "http://www.w3.org/Graphics/SVG/1.1/DTD/svg11.dtd" >
<svg xmlns="http://www.w3.org/2000/svg" xmlns:xlink="http://www.w3.org/1999/xlink" version="1.1" viewBox="-10 0 1010 1000">
   <path fill="currentColor"
d="M857 4q19 23 48 72q11 19 -16 18q-20 0 -32 2q-42 4 -103 14v178q119 1 179 -10v84q-39 -8 -127 -8q27 198 162 339q-39 17 -63 69q-111 -140 -151 -397v419q-1 89 8 109h-81q6 -23 6 -98v-13v-420q-45 232 -125 380q-30 -28 -68 -35q0 54 2 86q1 35 6 63h-85
q9 -18 8 -54h-274q-1 45 8 71h-86q11 -49 12 -168v-379q0 -55 -10 -101q64 8 133 8v-118h-41q-66 -1 -111 8v-81q43 8 109 8h97h129q41 0 60 -1q23 -2 45 -7v83q-44 -9 -105 -8h-20v114q85 1 129 -8q-9 35 -8 93v369q88 -94 147 -329q-50 0 -70 1q-25 2 -51 8v-83q35 5 69 7
q17 0 38 1h62v-165q-36 4 -93 10q-42 4 -56 6q-6 -40 -34 -75q250 -3 353 -62zM319 115h-57v118h57v-118zM149 294v210q35 -30 45 -71q12 -44 12 -139h-57zM260 294q1 104 -10 152q-12 56 -44 102q-25 -20 -57 -26v86h276v-70h-54q-59 8 -54 -77v-167h-57zM373 294v145
q-1 23 8 27q6 6 44 5v-177h-52zM149 667v75h276v-75h-276z" />
</svg>
