<?xml version="1.0" standalone="no"?>
<!DOCTYPE svg PUBLIC "-//W3C//DTD SVG 1.1//EN" "http://www.w3.org/Graphics/SVG/1.1/DTD/svg11.dtd" >
<svg xmlns="http://www.w3.org/2000/svg" xmlns:xlink="http://www.w3.org/1999/xlink" version="1.1" viewBox="-10 0 1010 1000">
   <path fill="currentColor"
d="M849 2q47 4 84 10q10 2 2 19q-16 33 -16 65v381q1 348 6 416h-78q10 -23 8 -302v-104l-38 9q-20 -94 -51 -166v359q0 88 12 171h-91q17 -62 19 -167v-199l-33 10q-21 -92 -52 -156l-6 228q-6 149 -85 295q-27 -25 -74 -39q44 -41 70 -111q29 -75 30 -175q0 -54 6 -214
q-18 44 -47 122q-16 40 -23 58l-46 -18v237q0 124 6 136h-77q10 -26 10 -61h-250q0 55 6 83h-76q9 -27 8 -115v-452q1 -67 -8 -99q33 7 103 6h24v-116h-57q-57 0 -91 8v-81q31 9 91 10h250q64 -1 113 -10v81q-35 -9 -103 -8h-56v114q70 1 115 -10q-9 44 -8 93v161
q30 -48 60 -175l56 14q0 -136 -1 -191q-1 -66 -3 -109q33 0 73 8q15 3 6 20q-16 32 -16 64v206l30 -8q24 39 55 131v-266q0 -75 -5 -119q-1 -8 -1 -10q36 1 80 8q8 2 1 19q-15 36 -15 70v165l36 -8q39 96 53 147v-349q0 -51 -5 -80q-1 -5 -1 -6zM240 113v116h52v-116h-52z
M292 280h-52q1 116 -9 172q-9 64 -35 114q-20 -23 -59 -24q32 -34 44 -94q13 -58 11 -168h-59v330h254v-80h-38q-42 1 -49 -7q-9 -5 -8 -40v-203zM339 280v177q-1 15 8 17q4 3 40 3v-197h-48zM133 665v81h254v-81h-254z" />
</svg>
