<?xml version="1.0" standalone="no"?>
<!DOCTYPE svg PUBLIC "-//W3C//DTD SVG 1.1//EN" "http://www.w3.org/Graphics/SVG/1.1/DTD/svg11.dtd" >
<svg xmlns="http://www.w3.org/2000/svg" xmlns:xlink="http://www.w3.org/1999/xlink" version="1.1" viewBox="-10 0 1010 1000">
   <path fill="currentColor"
d="M657 0q91 25 93 32q-1 5 -7 10q-25 23 -53 81h125q82 0 137 -8q-125 286 -273 383q28 2 77 2h57q76 -3 106 -6q-7 37 -8 131v92q1 121 8 172h-86q0 -8 3 -25q4 -32 3 -54h-180q0 34 1 47q1 17 3 32h-88q8 -47 10 -125v-101q-1 -79 -6 -99q-18 11 -45 30l-12 8
q-23 -40 -38 -52v200q1 59 8 129h-79q8 -33 8 -61h-266q0 34 6 75h-82q11 -47 12 -170v-332q-1 -93 -8 -139q40 8 105 8h22v-121h-27q-8 1 -40 1q-70 1 -89 5v-81q22 5 121 8h150q79 0 175 -9q5 -1 8 -1v85q-42 -8 -115 -8h-28v121h26q66 0 99 -4q-6 32 -6 62
q117 -124 173 -318zM258 139v121h57v-121h-57zM833 191h-176q-63 107 -113 172q-25 -16 -60 -27v192q100 -24 208 -125q-22 -30 -83 -81l58 -52l15 18q32 35 56 64q55 -68 95 -161zM258 316q1 97 -10 149q-10 56 -40 115q-31 -34 -47 -48q-2 -1 -2 -2q31 -30 42 -78
q11 -46 9 -136h-55v303h266v-61q-81 1 -91 -8q-17 -7 -15 -52v-182h-57zM365 316v155q-11 38 56 33v-188h-56zM839 568h-182v174h182v-174zM155 675v83h266v-83h-266z" />
</svg>
