<?xml version="1.0" standalone="no"?>
<!DOCTYPE svg PUBLIC "-//W3C//DTD SVG 1.1//EN" "http://www.w3.org/Graphics/SVG/1.1/DTD/svg11.dtd" >
<svg xmlns="http://www.w3.org/2000/svg" xmlns:xlink="http://www.w3.org/1999/xlink" version="1.1" viewBox="-10 0 1034 1024">
  <g transform="matrix(1 0 0 -1 0 820)">
   <path fill="currentColor"
d="M711 520h-148q-48 0 -65 5v-46q49 6 75 5h138v-205q-90 0 -115 2l-37 3l5 -101l-5 -311h48q-3 6 -4 36q-1 15 -1 29h270q-1 -18 -3 -38q-1 -3 -3 -8h49q0 1 -1 5q-3 7 -4 36l1 306q0 18 4 46q-28 -1 -57 -5h-109v205l169 -1l35 -4v46q-12 -3 -23 -4l-181 -1v157
q0 15 3 33q1 18 10 35h-56q0 -6 2 -12l3 -160v-53zM602 -27v270h270v-270h-270zM355 651q63 0 133 -3q4 0 10 -3v47q-9 -3 -23 -3q-25 -1 -60 -2l-322 1q-24 3 -29 4v-47q18 3 37 5l115 1v-140q-51 0 -75 2q-6 3 -38 3l4 -37q1 -27 2 -207l-5 -414q-1 0 -1 -1h49q-1 3 -1 5
q0 1 -4 54v16h281q0 -9 -1 -24q0 -21 -4 -33h48q-3 6 -4 34l-1 539q1 33 5 68q-30 -1 -60 -5h-56v140zM428 113h-281v361h69q0 -69 -2 -112q-3 -30 -12 -72q-15 -58 -51 -79l49 -21q27 48 40 109q6 28 8 64q3 42 4 111h66v-176q0 -24 22 -38q16 -10 62 -11h26v-136zM147 -33
v110h281v-110h-281zM253 511v140h65v-140h-65zM428 284q-9 0 -21 -1q-19 0 -26 2q-25 6 -26 34v155h73v-190z" />
  </g>

</svg>
