<?xml version="1.0" standalone="no"?>
<!DOCTYPE svg PUBLIC "-//W3C//DTD SVG 1.1//EN" "http://www.w3.org/Graphics/SVG/1.1/DTD/svg11.dtd" >
<svg xmlns="http://www.w3.org/2000/svg" xmlns:xlink="http://www.w3.org/1999/xlink" version="1.1" viewBox="-10 0 1034 1024">
  <g transform="matrix(1 0 0 -1 0 820)">
   <path fill="currentColor"
d="M353 648q111 0 125 -3q6 0 12 -2v46q-33 -1 -65 -5q-327 0 -345 3q-9 0 -19 2v-46q30 4 65 5h94v-137l-90 4q-13 1 -25 1q1 -34 5 -70l-3 -594q-1 -3 -2 -14h48q-4 15 -5 35l-1 47h271q-1 -28 -3 -58q-1 -3 -1 -7q-1 -3 -1 -8h48q-3 33 -5 66l1 555q0 19 4 48
q-31 -1 -63 -5h-45v137zM147 93v382h73q-1 -94 -8 -141q-6 -45 -25 -89q-15 -33 -37 -57q21 -9 40 -22q30 37 54 130q13 60 13 179h58v-169q0 -54 32 -75q24 -16 71 -16v-122h-271zM147 -45v102h271v-102h-271zM257 511v137h58v-137h-58zM418 475v-218q-25 0 -34 2
q-30 9 -31 56v160h65zM586 691q0 16 2 35q0 15 11 32h-56q4 -45 5 -67l1 -223q3 -31 22 -48q25 -21 116 -22l70 -2q81 0 121 10q36 9 57 49q15 27 25 81q-28 10 -49 26q-1 -49 -6 -69q-12 -39 -44 -48q-33 -7 -111 -8l-55 1q-60 3 -78 8q-30 12 -31 50v70l212 68
q58 19 81 27q24 4 39 5q9 0 16 -1q-15 18 -26 38q-3 9 -11 19q-24 -12 -49 -24q-28 -12 -80 -30q-39 -15 -75 -27l-107 -34v84zM550 308q1 -31 5 -65l-1 -355q-1 -7 -2 -26q-1 -3 -2 -15h47q-6 43 -5 72v6h267q-1 -28 -3 -59q-3 -6 -3 -15h50q-3 15 -5 32l-1 360l6 65
q-33 -1 -68 -5l-236 1q-19 3 -49 4zM592 138v129h267v-129h-267zM592 -39v141h267v-141h-267z" />
  </g>

</svg>
