<?xml version="1.0" standalone="no"?>
<!DOCTYPE svg PUBLIC "-//W3C//DTD SVG 1.1//EN" "http://www.w3.org/Graphics/SVG/1.1/DTD/svg11.dtd" >
<svg xmlns="http://www.w3.org/2000/svg" xmlns:xlink="http://www.w3.org/1999/xlink" version="1.1" viewBox="-10 0 1034 1024">
  <g transform="matrix(1 0 0 -1 0 820)">
   <path fill="currentColor"
d="M317 641q87 0 110 -3q6 0 14 -2v46q-33 -1 -65 -5l-314 3q-7 1 -11 2v-46q36 4 58 5h78v-139l-108 5l6 -68q0 -531 -3 -559v-4q-3 -6 -3 -17h47q-4 45 -5 73h267q-1 -24 -3 -50q0 -1 -1 -4h48q-4 18 -5 37l-1 524l6 68q-66 -4 -105 -5h-10v139zM121 113v355h66
q0 -58 -7 -114q-7 -52 -18 -82q-12 -30 -31 -61q3 0 15 -4q3 -3 29 -12q25 72 34 110q6 30 9 65l6 98h55v-142q0 -36 20 -61q16 -21 66 -24q18 0 23 -1v-127h-267zM121 -32v109h267v-109h-267zM279 502h-55v139h55v-139zM317 468h71v-188q-30 0 -39 3q-31 9 -32 47v138z
M882 590q30 0 55 -4q1 1 6 -1h5v46q-30 -4 -66 -5h-294q1 6 28 73q9 27 32 43q-30 7 -57 17q-10 -52 -43 -129q-27 -63 -52 -100q-22 -36 -58 -72q18 -4 46 -23q18 27 43 71q25 43 45 84h310zM717 142l-55 48q-12 -15 -27 -30q66 -51 86 -71q12 -10 27 -26q10 16 25 30
q-18 18 -56 49zM722 371l-56 49q-16 -21 -29 -32q37 -21 118 -96q12 18 24 29q-6 4 -20 18zM535 257q-69 3 -78 5v-46q30 3 66 5h10l-11 -175q-1 -22 -7 -61q36 3 73 5h245q-1 -18 -2 -38q-3 -28 -13 -41q-18 -19 -51 -20q-16 0 -55 7q7 -18 11 -35q1 -9 2 -16q36 0 58 4
q18 3 34 9q48 18 52 93q0 19 2 37q39 0 63 -3q6 0 12 -2v46q-33 -1 -66 -5h-9l5 195q21 0 80 -3q4 0 10 -2v46q-33 -1 -66 -5h-23l3 168q1 33 5 66q-33 -1 -65 -5l-233 1l-47 4q0 -31 3 -65zM558 26l12 195h268l-5 -195h-275zM839 257h-268l10 193h262z" />
  </g>

</svg>
