<?xml version="1.0" standalone="no"?>
<!DOCTYPE svg PUBLIC "-//W3C//DTD SVG 1.1//EN" "http://www.w3.org/Graphics/SVG/1.1/DTD/svg11.dtd" >
<svg xmlns="http://www.w3.org/2000/svg" xmlns:xlink="http://www.w3.org/1999/xlink" version="1.1" viewBox="-10 0 1010 1000">
   <path fill="currentColor"
d="M560 -2q52 4 87 10q22 3 7 30q-17 32 -17 54v57q118 -36 236 -97q26 21 64 67q7 10 -25 16q-29 6 -47 12q-82 26 -226 68v43q-1 30 11 36q8 7 56 6h72q88 6 89 -85q41 33 85 43q-18 115 -111 113h-147q-58 0 -76 -2q-23 -3 -34 -11q-23 -12 -21 -82v-147v-28
q1 -69 -3 -103zM512 50v81q-38 -8 -103 -8h-38v115q73 -1 127 -7q-5 30 -4 87v22v428q-1 71 8 107h-75q3 -9 2 -57h-270q-3 66 4 77h-82q9 -33 8 -117v-438q0 -79 -6 -102q18 1 49 2l82 2v-121h-65q-62 -1 -99 8v-79q37 8 97 8h260q70 1 105 -8zM262 127v113h57v-113h-57z
M212 296h-53v222q50 -69 53 -222zM264 296q1 136 -50 264q-25 -19 -55 -24v89h272v-83h-48q-72 6 -64 -61v-121v-64h-55zM371 294v171q-1 24 9 28q8 5 49 3v-202h-58zM653 441h159q25 0 93 -6q-6 39 -6 91v264q0 41 1 61q2 24 7 46h-86q6 -17 6 -77h-184q0 61 8 77h-91
q4 -19 6 -43q0 -12 1 -27v-39v-254q-1 -69 -7 -97q18 1 48 2q36 2 45 2zM643 508v96h184v-96h-184zM641 659v103h186v-103h-186zM429 681h-270v81h270v-81z" />
</svg>
