<?xml version="1.0" standalone="no"?>
<!DOCTYPE svg PUBLIC "-//W3C//DTD SVG 1.1//EN" "http://www.w3.org/Graphics/SVG/1.1/DTD/svg11.dtd" >
<svg xmlns="http://www.w3.org/2000/svg" xmlns:xlink="http://www.w3.org/1999/xlink" version="1.1" viewBox="-10 0 1034 1024">
  <g transform="matrix(1 0 0 -1 0 820)">
   <path fill="currentColor"
d="M461 700q-24 0 -60 -6q-4 1 -6 0l-328 3q-9 0 -19 3v-47q60 6 90 6h53v-146l-109 5q6 -54 6 -65l-1 -547q-1 -7 -2 -34q-3 -6 -3 -15h48q-4 54 -5 78h266q-1 -33 -3 -67q-1 -1 -1 -3h47q-4 60 -5 107l1 499l4 47q-109 -4 -113 -5v146q105 0 120 -3q9 0 20 -3v47zM125 -31
v117h266v-117h-266zM125 119v358h66q0 -4 -1 -18l-3 -61q0 -27 -10 -75q-18 -69 -48 -106q27 -4 47 -15q42 87 47 197l3 54q0 12 1 24h57v-158q0 -34 13 -50q12 -15 46 -20q18 -4 48 -4v-126h-266zM284 513h-57v146h57v-146zM391 477v-193q-33 0 -46 4q-24 6 -24 35v154h70z
M716 748q-25 9 -36 15q-7 -24 -18 -46q-10 -24 -30 -58q-39 -75 -118 -162q-24 -24 -82 -68q25 -12 46 -27q18 15 36 35q19 21 52 59q36 42 58 74q27 40 61 100q64 -100 116 -150q52 -51 145 -102q9 18 38 44q-78 22 -143 78q-40 34 -79 83q-37 48 -55 89q9 15 27 29
q-9 4 -18 7zM713 420l96 -1l45 -4v46q-33 -1 -65 -5l-238 3q-7 1 -11 2v-46q49 4 106 5h29v-137l-158 1q-24 3 -22 2l-6 2q-4 0 -11 2v-48q54 6 83 6h114v-302q0 -37 -16 -49q-13 -9 -39 -9q-21 0 -48 3q13 -21 20 -47q27 0 45 4q42 7 62 27q13 18 14 56v317l176 -1l42 -4
q3 0 5 -1v48q-6 -3 -12 -4q-27 -3 -106 -3h-105v137zM446 -39q21 -4 49 -17q28 54 49 99l42 98q10 24 32 48q-31 6 -57 18q-4 -30 -24 -81q-18 -48 -42 -95q-24 -42 -49 -70zM811 202q-19 -9 -38 -19q40 -64 77 -131q36 -67 52 -106q30 18 42 23q-22 34 -59 101
q-39 73 -74 132v0z" />
  </g>

</svg>
