<?xml version="1.0" standalone="no"?>
<!DOCTYPE svg PUBLIC "-//W3C//DTD SVG 1.1//EN" "http://www.w3.org/Graphics/SVG/1.1/DTD/svg11.dtd" >
<svg xmlns="http://www.w3.org/2000/svg" xmlns:xlink="http://www.w3.org/1999/xlink" version="1.1" viewBox="-10 0 1010 1000">
   <path fill="currentColor"
d="M556 -13q31 8 87 37q12 6 -6 17q-32 19 -46 41h195q92 0 137 -10q-71 136 -141 184q-107 80 -217 111h284q75 1 105 -7v75q-29 -9 -105 -8h-234v58h101h17q50 2 96 -6q-11 47 -10 113v210q0 77 10 109h-95q6 -18 6 -49h-490q0 24 4 45h-89q12 -50 12 -133v-190
q-1 -62 -10 -109q43 9 115 10h115v-58h-236q-75 -1 -111 8v-75q26 8 111 7h353q-14 -28 -56 -61q120 -10 169 -38q-35 -37 -75 -59l61 -46q47 36 77 74q57 -37 108 -96h-248q-36 46 -90 105q-26 -32 -57 -37v131h-86q4 -18 5 -42q1 -11 1 -26v-39q-7 3 -24 9
q-138 56 -192 72l-32 -81q151 -21 248 -54q0 -144 -6 -185q45 -2 84 2q25 5 16 22q-11 22 -12 42q-2 36 -2 44v34v57q104 -97 153 -208zM196 30q39 41 78 103l-66 38q-34 -55 -83 -103zM456 427v58h92v-58h-92zM548 542h-92q9 121 -156 145q-7 -34 -38 -64q132 -3 133 -81
h-143v159h488v-32h-105q-58 1 -72 -11q-16 -9 -15 -50v-66zM615 542v44q-1 20 10 23q7 4 56 4h59v-71h-125zM250 756v50h490v-50h-490z" />
</svg>
