<?xml version="1.0" standalone="no"?>
<!DOCTYPE svg PUBLIC "-//W3C//DTD SVG 1.1//EN" "http://www.w3.org/Graphics/SVG/1.1/DTD/svg11.dtd" >
<svg xmlns="http://www.w3.org/2000/svg" xmlns:xlink="http://www.w3.org/1999/xlink" version="1.1" viewBox="-10 0 1010 1000">
   <path fill="currentColor"
d="M690 8q36 0 80 6q17 2 5 23q-9 16 -9 25q0 7 -1 30q-1 56 -1 99q114 1 153 -8v77q-50 -6 -151 -6v157h77q69 1 99 -8v85q-37 -8 -101 -7h-31v252q-3 53 35 49q28 1 38 -19q10 -17 16 -82q32 33 73 50q-29 130 -97 121h-65q-78 7 -72 -84v-287h-51q11 266 -133 406
q-22 -33 -62 -63q0 19 8 38h-79q4 -15 4 -72h-278q0 58 4 75h-74q9 -30 8 -111v-444q0 -14 -3 -48q-2 -19 -3 -29q35 3 131 4v-114h-39q-72 0 -111 8v-83q34 9 107 8h234q80 1 111 -8v83q-38 -9 -105 -8h-34v114q90 -1 123 -6q-4 30 -4 85v500q72 -47 103 -126
q30 -72 28 -209q-67 -1 -107 7v-85q33 9 113 8h69v-157h-87l-34 104q-28 -14 -71 -18q56 -110 67 -264q43 4 76 14q23 8 5 28q-13 15 -15 25q-8 32 -14 50h73q0 -123 -8 -185zM262 123v115h59v-115h-59zM210 296h-63v308h278v-70h-62q-30 1 -35 -11q-8 -9 -7 -56v-169h-59
q-1 163 -36 270q-39 -18 -67 -18q48 -87 51 -254zM425 298h-52v137q-1 36 7 40q5 7 45 6v-183zM147 661v77h278v-77h-278z" />
</svg>
