<?xml version="1.0" standalone="no"?>
<!DOCTYPE svg PUBLIC "-//W3C//DTD SVG 1.1//EN" "http://www.w3.org/Graphics/SVG/1.1/DTD/svg11.dtd" >
<svg xmlns="http://www.w3.org/2000/svg" xmlns:xlink="http://www.w3.org/1999/xlink" version="1.1" viewBox="-10 0 1010 1000">
   <path fill="currentColor"
d="M909 28q-9 62 -8 151q0 71 8 139q-23 -5 -61 -6q-19 -1 -43 -2h-63q-94 -1 -186 8q0 -6 1 -20q6 -81 6 -129q0 -52 -4 -121q-1 -14 -1 -20q68 8 178 8q93 0 173 -8zM69 40q53 8 125 8h187q85 0 125 -8v79q-29 -7 -123 -7h-16v105q72 0 135 -8q-8 60 -8 129v406
q0 75 8 133h-83q8 -34 8 -75h-272q0 54 8 77h-84q8 -53 8 -141v-398q0 -56 -1 -78q-2 -28 -7 -53q3 0 10 1q65 7 127 7v-105h-24q-46 0 -123 7v-79zM829 106h-194v136h194v-136zM315 112h-47v105h47v-105zM268 272q3 167 -58 302q-13 -25 -51 -52q58 -72 57 -250h-61v340
h272v-86q-81 1 -95 -11q-19 -9 -17 -62v-181h-47zM367 270v141q-1 47 10 56q7 11 50 8v-205h-60zM536 375q11 0 49 2q59 4 88 4h111h31q80 1 112 -4v80q-43 -8 -137 -8h-22v113h20q46 0 66 -1q24 -1 43 -5v81q-52 -8 -113 -8h-16v147h34q70 0 154 -8v82q-32 -5 -106 -4h-33
h-156q-97 0 -149 6v-84q54 8 149 8h37v-147h-21q-78 0 -127 8v-81q54 6 127 6h21v-113h-31q-73 0 -131 6v-80zM427 667h-272v79h272v-79z" />
</svg>
