<?xml version="1.0" standalone="no"?>
<!DOCTYPE svg PUBLIC "-//W3C//DTD SVG 1.1//EN" "http://www.w3.org/Graphics/SVG/1.1/DTD/svg11.dtd" >
<svg xmlns="http://www.w3.org/2000/svg" xmlns:xlink="http://www.w3.org/1999/xlink" version="1.1" viewBox="-10 0 1034 1024">
  <g transform="matrix(1 0 0 -1 0 820)">
   <path fill="currentColor"
d="M350 658q105 0 127 -3q1 0 15 -3v48q-4 0 -8 -2q-25 -1 -51 -5l-339 1q-24 3 -23 2q-4 1 -12 4v-48q6 0 12 2q7 3 36 4h104l-1 -150q-69 0 -93 2q-6 3 -27 3q1 -27 5 -54l-1 -576q-1 -3 -1 -7q-1 -10 -3 -22h48q-4 15 -5 35l-1 52h288q0 -57 -3 -73q-1 -3 -1 -6
q-1 -3 -1 -7h49q-6 21 -6 42l1 577q0 10 3 21q0 6 2 18q-16 -1 -28 -2q-19 -3 -25 -3h-61v150zM132 -23v110h288v-110h-288zM132 122v98q13 -3 20 -8q3 -3 18 -13q33 48 52 100q16 57 22 173h69v-165q0 -42 16 -59q12 -16 57 -17h34v-109h-288zM209 472q-6 -106 -22 -157
q-15 -51 -55 -87v244h77zM248 658h65v-150h-66zM420 267h-34q-18 0 -27 6t-9 40v159h70v-205zM699 554v-197l-186 1q-24 3 -23 2q-6 0 -12 2v-46q21 3 42 5q429 0 440 -3q3 0 8 -2v46q-28 -1 -58 -5h-174v197l186 -1q9 -1 19 -4v46q-9 0 -11 -2q-4 0 -8 -1q-21 0 -38 -2
h-148q0 69 3 142q1 15 11 35h-57q0 -3 1 -8q4 -19 5 -50v-119h-115q27 69 36 81q7 12 29 22q-40 15 -62 27q-13 -55 -39 -114q-22 -49 -42 -80q-19 -25 -41 -43q12 -4 21 -9q6 -3 24 -15l56 95h133zM552 -101l-4 -50q-1 -3 -1 -7h47q-3 24 -5 49v42h267q-1 -39 -3 -78
q-1 -6 -3 -13h49q-3 24 -5 49l1 287q0 19 4 43q-28 -1 -57 -5l-255 1q-15 3 -40 4q1 -28 5 -59v-263zM589 -31v211h267v-211h-267z" />
  </g>

</svg>
