<?xml version="1.0" standalone="no"?>
<!DOCTYPE svg PUBLIC "-//W3C//DTD SVG 1.1//EN" "http://www.w3.org/Graphics/SVG/1.1/DTD/svg11.dtd" >
<svg xmlns="http://www.w3.org/2000/svg" xmlns:xlink="http://www.w3.org/1999/xlink" version="1.1" viewBox="-10 0 1034 1024">
  <g transform="matrix(1 0 0 -1 0 820)">
   <path fill="currentColor"
d="M338 674l71 -1l32 -4h5v46q-30 -1 -62 -5l-265 1q-19 3 -41 4v-46q49 4 72 5h68v-143q-48 0 -64 2q-15 3 -43 4q4 -34 5 -65l-1 -567q-3 -15 -3 -44q-1 -3 -1 -6h45q-3 19 -4 33l-1 63h249q0 -57 -5 -83v-6h47q-4 54 -5 104l1 524q0 19 4 47q-60 -6 -84 -6h-20v143z
M151 146v352h67q0 -99 -5 -136q-10 -73 -54 -122q22 -6 43 -14q30 57 40 111q10 58 10 161h51v-162q0 -48 26 -62q21 -10 57 -11q7 0 14 1v-118h-249zM151 -15v127h249v-127h-249zM303 531h-51v143h51v-143zM400 302h-11q-36 0 -44 11q-6 6 -7 34v151h62v-196zM469 674
q9 0 15 2l46 3l374 -1l37 -4v46q-30 -1 -62 -5l-366 1q-24 3 -44 4v-46zM489 551q6 -60 6 -64l-3 -617q-1 -3 -2 -7q-1 -3 -1 -8h45q0 3 -4 15l-2 170v472h103v-289q-13 27 -21 37q-42 76 -47 85q-18 -16 -29 -23q36 -57 71 -132q9 9 26 17v-251q0 -15 -5 -24
q-9 -12 -26 -12q-9 0 -15 1q-9 0 -20 3q12 -19 20 -49q37 3 53 10q28 15 29 67l1 553q0 18 4 46q-27 -1 -55 -5q-64 0 -90 2q-6 3 -38 3zM720 -71q-3 -33 -3 -51q-1 -3 -1 -8q-1 -3 -1 -8h44q0 3 -5 64v588h120v-552q0 -19 -6 -28q-12 -12 -29 -13q-24 3 -33 3q9 -18 16 -50
q45 7 61 16q27 13 27 64l1 553l4 46q-4 0 -8 -1l-45 -4q-93 0 -114 2q-16 1 -33 3q4 -64 5 -67v-557zM811 313q-9 18 -19 36l-31 -20l56 -104l20 -43q15 12 33 25q-3 9 -9 19q-24 39 -50 87v0z" />
  </g>

</svg>
