<?xml version="1.0" standalone="no"?>
<!DOCTYPE svg PUBLIC "-//W3C//DTD SVG 1.1//EN" "http://www.w3.org/Graphics/SVG/1.1/DTD/svg11.dtd" >
<svg xmlns="http://www.w3.org/2000/svg" xmlns:xlink="http://www.w3.org/1999/xlink" version="1.1" viewBox="-10 0 1010 1000">
   <path fill="currentColor"
d="M435 32v83q-57 -7 -110 -7v101q78 0 113 -8q-6 36 -7 58q-2 26 -2 63v416q0 62 9 120h-73q8 -27 8 -92h-230q0 68 8 92h-72q8 -42 8 -133v-405q1 -68 -8 -119q47 9 108 8v-101q-78 0 -137 7v-83q43 8 146 8h96q90 0 143 -8zM958 38v85q-63 -7 -152 -8h-203q-59 0 -149 8
v-85q68 8 145 8h203q112 0 156 -8zM278 108h-44v101h44v-101zM698 175q6 1 19 2q58 8 100 8q64 0 118 -8q-10 53 -10 127v462q1 55 -18 71q-14 17 -82 26q-4 -39 -31 -77q83 15 75 -40v-146l-50 10q-18 -113 -63 -217v330q0 99 8 131h-70q8 -58 8 -133v-435q0 -52 -1 -73
q-1 -25 -3 -38zM685 179q-8 42 -8 111v494q6 68 -100 76q-2 -28 -27 -74q73 25 69 -34v-158l-34 8q-22 -124 -63 -225v352q0 71 8 134h-74q11 -42 12 -138v-437q0 -47 -1 -68q-1 -26 -5 -43q57 10 113 10q53 0 110 -8zM619 244h-97v98l32 -10q13 45 49 152q11 33 16 50v-290
zM869 242h-113v110l30 -12q17 46 58 165q17 48 25 71v-334zM187 262h-44v312h230v-62q-63 -3 -79 -12q-19 -8 -18 -35v-203h-42q-2 189 -42 278l-10 -10q-20 -20 -33 -26q37 -67 38 -242zM373 262h-50v155q-8 48 50 42v-197zM143 627v86h230v-86h-230z" />
</svg>
