<?xml version="1.0" standalone="no"?>
<!DOCTYPE svg PUBLIC "-//W3C//DTD SVG 1.1//EN" "http://www.w3.org/Graphics/SVG/1.1/DTD/svg11.dtd" >
<svg xmlns="http://www.w3.org/2000/svg" xmlns:xlink="http://www.w3.org/1999/xlink" version="1.1" viewBox="-10 0 1010 1000">
   <path fill="currentColor"
d="M754 -4q26 0 74 5q4 1 5 1q21 1 10 24q-12 23 -12 38v69q82 1 104 -8v78q-35 -9 -104 -8v135q59 0 74 -2q18 -1 49 -10v83q-36 -9 -111 -8h-240q-80 -1 -113 8v-79q35 9 111 8v-135q-72 0 -105 6v-76q29 9 103 8q0 -51 -2 -78q-1 -31 -6 -55q28 0 88 4q15 1 1 27
q-11 22 -11 33v69h93q1 -95 -8 -137zM480 62v83q-35 -9 -131 -8v117q85 0 123 -4q-4 40 -4 100v424q-1 89 8 115h-77q5 -4 4 -59h-266q0 35 4 45h-76q9 -31 8 -117v-406q0 -40 -8 -100q11 0 53 2q57 2 76 2v-119h-39q-45 0 -66 2q-26 1 -45 6v-83q38 9 113 8h202
q95 1 121 -8zM296 137h-50v117h50v-117zM764 195h-95v135h95v-135zM296 308h-50q1 151 -48 266q-24 -14 -61 -12v65h266v-75h-52q-60 4 -55 -48v-196zM194 308h-57v242q56 -89 57 -242zM403 308h-54v167q-3 28 24 25h30v-192zM552 467q51 6 105 6h129q75 -1 107 -4l-3 33
q-3 37 -3 54v246q-1 73 8 97h-83v-6q3 -33 3 -59h-186q0 48 4 67h-87q9 -27 8 -103v-240q0 -72 -2 -91zM627 536v91h186v-91h-186zM137 677v97h266v-97h-266zM627 683v93h186v-93h-186z" />
</svg>
