<?xml version="1.0" standalone="no"?>
<!DOCTYPE svg PUBLIC "-//W3C//DTD SVG 1.1//EN" "http://www.w3.org/Graphics/SVG/1.1/DTD/svg11.dtd" >
<svg xmlns="http://www.w3.org/2000/svg" xmlns:xlink="http://www.w3.org/1999/xlink" version="1.1" viewBox="-10 0 1010 1000">
   <path fill="currentColor"
d="M730 -19q29 49 54 123l-80 21q-19 -65 -49 -115zM50 60q12 0 42 1q52 3 93 3h186q76 -1 121 -4v75q-52 -3 -117 -4h-18v107h38q21 0 55 -2q30 -1 40 -1q0 2 -1 6q-7 91 -7 140v326q0 122 6 168h-79q4 -29 4 -59h-264q-2 36 4 71h-78q3 -49 4 -166v-322q0 -130 -4 -164
q24 3 94 3h35v-107h-19q-97 0 -135 4v-75zM935 135v76q-43 -4 -129 -4h-171q-47 0 -119 4v-76q80 4 117 4h169q46 0 133 -4zM254 131v107h52v-107h-52zM599 229q6 2 17 5q78 19 71 28q-2 5 -9 11q-13 10 -19 25l-9 21q-7 18 -11 25q34 25 75 65l-45 48q-14 -16 -35 -39
q-13 -14 -17 -19q-36 75 -55 107l-74 -27q74 -113 111 -250zM804 240q84 19 79 30q-2 7 -7 14q-9 11 -17 26q-8 14 -16 33q-4 9 -6 13l121 97l-53 53q-19 -28 -54 -61l-38 -38q-43 83 -61 113l18 2q6 0 -2 15q-10 20 -10 31v55h75q64 -1 117 -4v78q-45 -5 -111 -6h-79v75
q0 19 2 85q2 52 2 64h-83q6 -98 6 -147v-77h-64q-89 6 -119 6v-78q65 4 121 4h60v-63q-3 -31 -6 -46q26 -3 65 4l-61 -33q86 -110 121 -245zM202 298h-55v327h268v-85h-40q-74 3 -69 -61v-181h-52q-1 175 -42 266q-17 -16 -59 -26q60 -81 49 -240zM357 298v151q-3 37 30 34
h28v-185h-58zM413 681h-266v79h266v-79z" />
</svg>
