<?xml version="1.0" standalone="no"?>
<!DOCTYPE svg PUBLIC "-//W3C//DTD SVG 1.1//EN" "http://www.w3.org/Graphics/SVG/1.1/DTD/svg11.dtd" >
<svg xmlns="http://www.w3.org/2000/svg" xmlns:xlink="http://www.w3.org/1999/xlink" version="1.1" viewBox="-10 0 1010 1000">
   <path fill="currentColor"
d="M744 14q2 7 9 36q13 55 17 73h28q64 0 129 -8v78q-50 -8 -129 -8h-125q-66 0 -141 8v-78q53 9 139 8h19q-9 -33 -39 -99zM60 52q52 8 128 8h179q81 1 135 -8v81q-70 -8 -137 -8v110q72 0 131 -8q-8 54 -8 148v336q0 56 7 149q1 8 1 11h-79q8 -31 8 -69h-282q0 48 8 85
h-78q6 -46 6 -162v-326q0 -71 -1 -100q-1 -37 -5 -72q5 1 15 1q63 7 120 7v-108h-23q-49 0 -125 10v-85zM313 127h-53v108h53v-108zM808 203q95 36 91 45q0 1 -3 3q-35 20 -81 140q74 0 143 -8v82q-64 -8 -129 -8h-174q-93 0 -149 8v-82q52 8 143 8h93q38 -87 66 -188z
M641 217q30 54 53 110q3 7 4 11l-77 18q-9 -40 -46 -118zM143 290v331h282v-87q-78 6 -94 -9q-19 -11 -18 -74v-161h-53q-1 186 -44 282q-30 -19 -63 -24q53 -80 57 -258h-67zM365 290v145q-1 36 10 42q8 8 50 6v-193h-60zM554 512q86 8 152 8h44q109 0 157 -8
q-10 56 -10 139v62q0 120 8 162h-93q7 -35 7 -75h-180q0 42 8 75h-93q7 -57 8 -158v-68q0 -99 -8 -137zM639 580v160h180v-160h-180zM143 675v67h282v-67h-282z" />
</svg>
