<?xml version="1.0" standalone="no"?>
<!DOCTYPE svg PUBLIC "-//W3C//DTD SVG 1.1//EN" "http://www.w3.org/Graphics/SVG/1.1/DTD/svg11.dtd" >
<svg xmlns="http://www.w3.org/2000/svg" xmlns:xlink="http://www.w3.org/1999/xlink" version="1.1" viewBox="-10 0 1034 1024">
  <g transform="matrix(1 0 0 -1 0 820)">
   <path fill="currentColor"
d="M346 682l129 -3q6 0 8 -2v46q-33 -1 -65 -5l-320 1q-24 3 -42 4v-46q13 1 16 2q48 3 91 3h50v-137q-54 0 -79 2q-6 3 -42 3q1 -34 5 -70l-1 -570q-1 -7 -2 -35q-1 -3 -2 -15h47q0 7 -2 15q-3 54 -3 78h271q-1 -33 -3 -67q-1 -6 -2 -16h48q-3 33 -5 67l1 563l4 50
q-31 -1 -64 -5h-38v137zM405 141h-271v368h79v-28q0 -42 -5 -90q-12 -66 -29 -106q-9 -21 -37 -52q19 -6 44 -21q34 60 51 140q12 54 12 157h60v-189q0 -49 41 -59q13 -3 55 -4v-116zM134 -11v116h271v-116h-271zM249 682h60v-137h-60v137zM405 295h-16q-42 0 -43 39v175h59
v-214zM565 185q0 105 3 111q1 12 11 23h-56q1 -33 5 -66l-1 -332q-1 -3 -2 -9q-3 -9 -16 -22q10 -18 21 -45q16 13 28 25q6 6 28 23q37 27 81 60q12 10 36 24q-3 25 -4 49q-78 -60 -134 -96v219q114 0 129 -3q6 0 15 -2v46q-33 -1 -66 -5h-78zM830 386q37 -1 77 -5
q-3 34 -5 69l1 229q0 19 4 48q-39 -1 -77 -5l-257 1q-19 3 -51 4q1 -33 5 -68l-1 -227q0 -1 -4 -48v-3q34 3 71 5h237zM564 422v116h300v-116h-300zM564 573v113h300v-113h-300zM794 150l1 131q0 21 12 43h-56q4 -45 5 -66v-298q0 -63 41 -77q25 -7 66 -8q60 0 87 44
q12 19 27 79q-30 7 -49 19q-3 -48 -7 -64q-13 -39 -70 -39t-57 48v143l75 53q34 21 49 32q7 3 11 6q15 9 41 10l-32 36q-6 6 -10 12q-45 -42 -67 -58l-39 -27q-15 -9 -28 -19v0z" />
  </g>

</svg>
