<?xml version="1.0" standalone="no"?>
<!DOCTYPE svg PUBLIC "-//W3C//DTD SVG 1.1//EN" "http://www.w3.org/Graphics/SVG/1.1/DTD/svg11.dtd" >
<svg xmlns="http://www.w3.org/2000/svg" xmlns:xlink="http://www.w3.org/1999/xlink" version="1.1" viewBox="-10 0 1034 1024">
  <g transform="matrix(1 0 0 -1 0 820)">
   <path fill="currentColor"
d="M474 723q-9 0 -13 -2q-42 0 -84 -3l-282 1q-24 3 -23 2q-4 0 -12 2v-46q45 4 95 5h44l1 -159q-60 0 -82 2q-6 3 -29 3q1 -25 5 -53l-1 -586q-1 -1 -1 -6q-1 -10 -3 -23h43q-3 27 -5 53v33h287l-4 -74q-1 -3 -3 -7h50q-6 21 -6 42l1 583q1 18 5 38q-27 -1 -55 -5h-68v159
q124 0 131 -3l2 -1q3 0 7 -1v46zM127 134v353h71q-4 -111 -19 -171q-15 -57 -49 -93q15 -3 48 -17q46 108 53 281h70v-176q0 -37 17 -55q18 -16 58 -17h38v-105h-287zM414 98v-116h-287v116h287zM301 523h-68v159h68v-159zM414 487v-212h-31q-22 0 -35 7q-13 9 -14 50v155
h80zM704 243v-111l-121 3q1 0 -14 2v-46q25 4 58 5h77v-144l-182 1q-24 3 -23 2q-4 0 -13 2v-46q22 3 47 5q411 0 421 -3q3 0 8 -2v46q-9 0 -11 -2q-4 0 -8 -1q-19 0 -38 -2h-165v144q138 0 147 -3q3 0 8 -2v46q-9 0 -11 -2l-138 -3h-6v111q162 0 172 -3q3 0 9 -2v46
q-9 0 -13 -2l-102 -3h-66v129q103 0 116 -2q18 0 36 -3q-3 30 -5 59l1 226l4 40q-28 -1 -57 -5l-255 1q-15 3 -40 4q6 -48 6 -56l-1 -227q-3 -9 -3 -23q0 -6 -2 -19q42 6 64 5h100v-129h-120q9 30 20 52q7 16 20 25q4 3 8 5q-27 6 -53 17q-6 -27 -19 -63q-13 -37 -31 -77
q-33 -70 -63 -97q25 -3 48 -10q21 36 32 60q10 21 23 52h135zM580 584v103h271v-103h-271zM580 444v104h271v-104h-271z" />
  </g>

</svg>
