<?xml version="1.0" standalone="no"?>
<!DOCTYPE svg PUBLIC "-//W3C//DTD SVG 1.1//EN" "http://www.w3.org/Graphics/SVG/1.1/DTD/svg11.dtd" >
<svg xmlns="http://www.w3.org/2000/svg" xmlns:xlink="http://www.w3.org/1999/xlink" version="1.1" viewBox="-10 0 1034 1024">
  <g transform="matrix(1 0 0 -1 0 820)">
   <path fill="currentColor"
d="M352 668q96 0 123 -3q4 0 10 -2v47q-6 -1 -58 -6l-336 3q-3 1 -5 1q-6 0 -12 2v-47q34 4 65 5h87v-140h-58q-9 0 -35 3q-21 3 -31 3q4 -75 5 -107l-1 -502q-1 -7 -2 -34q-1 -3 -2 -16h47q-4 54 -5 106h279q-1 -22 -3 -46q0 -3 -1 -7h45q-13 -21 -41 -49q24 -9 46 -19
q45 64 86 151q57 -60 89 -80q57 -34 138 -37l172 -4q3 24 15 50q-72 -7 -105 -8q-42 1 -82 2q-36 1 -54 5v171l135 -1l40 -4v46q-33 -1 -66 -5h-109v128l184 -1l42 -4v46q-33 -1 -67 -5l-382 3q-7 1 -11 2v-46q30 4 64 5h132v-327q-66 31 -119 105q0 3 31 83q9 27 27 43
q-24 6 -54 20q-28 -151 -109 -266q0 7 -2 15q-1 25 -3 52l1 484l4 51q-66 -6 -82 -6h-32v140zM144 495h82q-1 -115 -36 -197q-18 -42 -43 -75q27 -7 43 -15q36 75 52 135q16 63 20 152h54v-169q0 -54 41 -67q16 -4 66 -5v-108h-279v349zM144 15v97h279v-97h-279zM262 668h54
v-140h-54v140zM423 495v-204q-42 0 -57 7q-13 7 -14 32v165h71zM550 454l-6 -61q34 3 71 5l217 -1l46 -4q-3 33 -5 66l1 222l4 47q-31 -1 -64 -5l-219 1q-19 3 -51 4q6 -48 6 -65v-209zM587 577v110h247v-110h-247zM587 434v107h247v-107h-247z" />
  </g>

</svg>
