<?xml version="1.0" standalone="no"?>
<!DOCTYPE svg PUBLIC "-//W3C//DTD SVG 1.1//EN" "http://www.w3.org/Graphics/SVG/1.1/DTD/svg11.dtd" >
<svg xmlns="http://www.w3.org/2000/svg" xmlns:xlink="http://www.w3.org/1999/xlink" version="1.1" viewBox="-10 0 1010 1000">
   <path fill="currentColor"
d="M556 28q22 5 127 8h85q91 -3 121 -6q-6 48 -6 115v97q1 78 8 129q-21 -9 -115 -6h-107q-98 6 -111 6q0 -5 2 -50q3 -65 3 -75v-105q0 -89 -7 -113zM67 48q50 5 143 8h143q71 0 152 -7q8 -1 13 -1v83q-37 -8 -117 -8h-34v110h34q65 -1 89 -4q-6 28 -6 113v317q1 101 8 131
h-73l4 -22h-286q-1 61 4 76h-72q9 -55 10 -129v-361q-1 -76 -10 -127q37 8 114 8h27v-112h-37q-63 0 -106 4v-79zM631 96v73h184v-73h-184zM258 123v112h59v-112h-59zM631 229v77h184v-77h-184zM425 290h-58v143q-2 34 8 38q8 7 50 4v-185zM258 290q-1 157 -66 274
q-1 -3 -4 -7q-7 -23 -41 -49q61 -64 63 -218h-71v302h286v-62q-84 -2 -94 -13q-16 -8 -14 -64v-163h-59zM502 415q35 8 141 8h163q81 0 131 -8v83q-38 -10 -133 -10h-50v100h48q57 0 97 -8v73q-21 -6 -101 -6h-44v137q55 5 115 2q58 -3 97 -12q-26 37 -39 89
q-152 1 -213 -21q-70 -21 -127 -88q-40 92 -73 135q-28 -20 -72 -35q114 -88 127 -308q14 6 39 15q46 15 41 19q-1 2 -5 7q-12 12 -15 25q-14 57 -20 73q36 54 81 83v-281h-55q-93 0 -133 7v-79zM139 643v70h286v-70h-286z" />
</svg>
