<?xml version="1.0" standalone="no"?>
<!DOCTYPE svg PUBLIC "-//W3C//DTD SVG 1.1//EN" "http://www.w3.org/Graphics/SVG/1.1/DTD/svg11.dtd" >
<svg xmlns="http://www.w3.org/2000/svg" xmlns:xlink="http://www.w3.org/1999/xlink" version="1.1" viewBox="-10 0 1034 1024">
  <g transform="matrix(1 0 0 -1 0 820)">
   <path fill="currentColor"
d="M323 668q84 0 116 -4q1 0 3 -1v47q-7 -1 -60 -6q-298 0 -313 3h-5q-3 1 -5 1q-4 0 -11 2v-47q30 4 64 5h86v-127l-90 4q-10 1 -20 1q1 -34 5 -70l-3 -603q0 -4 -2 -13h46q-3 48 -4 77h257q-1 -31 -3 -64q-1 -3 -1 -7h47q-4 19 -5 51v383q25 -12 39 -25q15 12 82 82
q10 9 51 55q0 3 3 4q27 31 68 86q67 -72 124 -118q49 -37 143 -94q15 24 38 41q-70 21 -144 74q-54 40 -139 131l31 29q-10 3 -21 8l-31 18q-18 -40 -37 -70q-24 -36 -67 -87q-72 -87 -140 -126v171q0 10 2 33q1 13 3 34q-37 -4 -64 -5h-43v127zM130 131v374h68
q0 -33 -6 -118l-10 -62q-16 -55 -49 -105q6 -3 21 -7l12 -4q6 -3 11 -6h1q39 84 50 161q3 33 5 73q3 45 2 68h52v-182q0 -54 29 -69q18 -12 71 -12v-111h-257zM130 -27v122h257v-122h-257zM287 668v-127h-52v127h52zM387 280q-6 1 -21 2q-21 0 -28 6q-15 9 -15 36v181h64
v-225zM546 664l-88 3q-4 0 -13 2v-46q54 6 84 5h17q-1 -42 -3 -86q-3 -6 -3 -15h49q0 7 -2 15q-3 51 -3 77v9h185q-1 -42 -3 -84q-3 -6 -3 -16h50q-4 19 -5 50l-1 50q63 0 132 -3q4 0 11 -2v46q-6 0 -13 -3q-24 -1 -130 -2q0 84 3 94q1 10 11 24h-58q1 -12 6 -59v-59h-185
l1 70q0 21 12 43h-57q6 -66 6 -88v-25zM663 -64l-204 5v-46q30 4 64 5l363 -1l40 -4v46q-33 -1 -65 -5h-160v173l163 -4q3 0 5 -1v47q-6 -1 -59 -6h-109v136l106 -1l40 -4v46q-33 -1 -65 -5l-227 1q-24 3 -35 4v-46q54 6 86 5h57v-136l-150 3q-9 3 -16 3v-47q36 4 59 5h107
v-173z" />
  </g>

</svg>
