<?xml version="1.0" standalone="no"?>
<!DOCTYPE svg PUBLIC "-//W3C//DTD SVG 1.1//EN" "http://www.w3.org/Graphics/SVG/1.1/DTD/svg11.dtd" >
<svg xmlns="http://www.w3.org/2000/svg" xmlns:xlink="http://www.w3.org/1999/xlink" version="1.1" viewBox="-10 0 1034 1024">
  <g transform="matrix(1 0 0 -1 0 820)">
   <path fill="currentColor"
d="M319 649q78 0 102 -3q3 0 11 -2v46q-33 -1 -66 -5l-319 5v-46q30 4 64 5h83v-137q-61 0 -111 5q1 -31 5 -65l-1 -563q-1 -7 -2 -34q-1 -3 -2 -15h48q-3 6 -5 43l-1 39h254l-2 -67q-1 -1 -2 -4h47v2q-1 3 -1 5q-1 3 -4 72l1 541l4 46q-31 -1 -63 -5h-40v137zM125 110v366
h69q0 -99 -7 -140q-12 -70 -54 -130q21 -7 44 -15q21 45 33 77q7 24 13 63q6 51 7 145h53v-178q0 -28 8 -47q6 -16 28 -24q7 -1 43 -5q7 0 17 -1v-111h-254zM379 -43h-254v117h254v-117zM283 649v-137h-53v137h53zM319 476h60v-217q-12 0 -37 5q-9 3 -13 6q-9 7 -10 30v176z
M564 387q-15 -1 -28 -3q-13 -1 -55 -2q-13 1 -35 2q-3 1 -5 1q-3 1 -7 2v-45q42 6 69 5h19v-377q-34 -18 -71 -54q-9 -6 -16 -13q21 -18 36 -39q45 72 80 72q15 0 34 -8l65 -31q28 -10 60 -16q49 -6 120 -6l111 4q10 0 26 -1q0 6 9 35q3 7 8 21q-33 -6 -55 -9l-63 -7
q-27 -3 -46 -3l-46 1q-36 1 -46 4q-40 4 -94 26q-27 12 -43 20q-9 3 -15 6q-9 3 -17 5l1 366q0 15 4 44zM539 491q16 15 35 28l-102 131q-16 -12 -36 -22q36 -40 64 -79q6 -10 13 -21q6 -9 26 -37zM632 117q28 54 39 67l73 137l-1 -294q-1 -7 -2 -34q-1 -3 -2 -15h48
q-3 33 -5 67v279q78 -99 146 -217q16 21 39 35q-6 7 -13 17q-4 9 -113 152q-6 6 -59 77v15l149 -3q6 0 8 -2v46q-33 -1 -65 -5h-92v247q0 16 2 35q0 15 11 32h-56q4 -45 5 -67v-247l-126 1q-24 3 -34 4v-46q13 1 16 2q48 3 91 3h39q-27 -82 -76 -166q-54 -93 -91 -131
q27 -6 50 -19q9 15 19 30zM685 580l-52 73l-28 38q-12 -10 -21 -17l-13 -7q30 -36 61 -80q36 -51 45 -74q16 13 35 31q1 -1 -7 10zM920 614q19 31 41 45q-6 3 -44 32q-9 -18 -45 -79q-22 -37 -44 -65q-7 -7 -14 -16q21 -9 40 -21q0 3 5 7q18 28 18 31q9 12 17 27
q12 19 26 39v0z" />
  </g>

</svg>
