<?xml version="1.0" standalone="no"?>
<!DOCTYPE svg PUBLIC "-//W3C//DTD SVG 1.1//EN" "http://www.w3.org/Graphics/SVG/1.1/DTD/svg11.dtd" >
<svg xmlns="http://www.w3.org/2000/svg" xmlns:xlink="http://www.w3.org/1999/xlink" version="1.1" viewBox="-10 0 1034 1024">
  <g transform="matrix(1 0 0 -1 0 820)">
   <path fill="currentColor"
d="M320 632l101 -1q19 0 32 -4v47q-9 -3 -63 -6l-279 1q-12 1 -31 2q-3 1 -5 1l-11 2v-47q49 6 108 5h22v-132l-95 5q1 -33 5 -66l-1 -539q-1 -9 -2 -35q-1 -3 -2 -15h44q-3 33 -5 69v5h247q-1 -27 -3 -57q-1 -3 -2 -14h46q-6 18 -6 67l1 540q0 4 5 45q-99 -4 -103 -5h-3
v132zM138 -40v102h247v-102h-247zM138 98v366h56q0 -70 -5 -131q-10 -87 -47 -132q16 -3 43 -16q22 49 33 112q3 18 5 52q3 43 5 115h59v-152q0 -13 3 -29q3 -27 26 -38q18 -7 69 -12v-135h-247zM228 632h59v-132h-59v132zM385 271q-33 0 -43 4q-21 7 -22 44v145h65v-193z
M572 326q-3 -33 -5 -66q66 6 79 6l187 -1q24 -1 48 -5q-4 49 -5 70l1 130l4 51q-33 -1 -68 -5l-215 3q42 63 51 81l250 -1l34 -4h5v46q-33 -1 -65 -5h-205q30 66 40 80q7 12 31 29q-3 1 -60 27q-21 -75 -53 -136l-132 3q-9 1 -12 2v-46q37 6 80 5h43q-27 -45 -62 -91
q-48 -64 -108 -110q24 -9 47 -22q27 28 47 51q18 21 40 49l3 -98v-43zM609 302v168h229v-168h-229zM529 -68q-31 1 -64 3q-7 1 -11 2v-46q36 4 58 5l436 -1q24 0 34 -4h6v46q-33 -1 -65 -5h-11l1 223l4 42q-30 -1 -62 -5l-283 1q-19 3 -48 4q1 -28 5 -58v-207zM566 156h78
v-224h-78v224zM758 -68h-77v224h77v-224zM874 -68h-78v224h78v-224z" />
  </g>

</svg>
