<?xml version="1.0" standalone="no"?>
<!DOCTYPE svg PUBLIC "-//W3C//DTD SVG 1.1//EN" "http://www.w3.org/Graphics/SVG/1.1/DTD/svg11.dtd" >
<svg xmlns="http://www.w3.org/2000/svg" xmlns:xlink="http://www.w3.org/1999/xlink" version="1.1" viewBox="-10 0 1034 1024">
  <g transform="matrix(1 0 0 -1 0 820)">
   <path fill="currentColor"
d="M344 670l169 -5v46q-33 -1 -66 -5l-363 2q-10 1 -21 3v-46q30 4 65 5h88v-125l-95 3q-13 1 -22 2q1 -34 5 -70l-3 -610q-1 -3 -2 -14h47q-4 54 -5 83v10h274v-11q0 -27 -4 -41h47q0 3 -1 7q-1 3 -4 68v457q18 -6 35 -18l58 93l-3 -411q-3 -6 -3 -14h46q-3 15 -3 39
l331 -1q19 -1 40 -5v47q-33 -1 -66 -5h-127v115l130 -3q6 0 8 -2v46q-33 -1 -65 -5h-73v113q105 0 117 -2q12 0 24 -3v46q-33 -1 -66 -5h-75v116l128 -1l40 -4v46q-12 -3 -25 -3l-76 -2h-230q4 12 10 26q21 49 32 66q9 15 30 30q-13 4 -26 9q-15 6 -34 17q-9 -46 -36 -109
q-21 -48 -39 -81q-15 -28 -34 -57q-16 -27 -28 -41q-7 -12 -20 -25l5 109q-66 -4 -101 -5h-13v125zM141 -15v111h274v-111h-274zM141 132v377h75q-1 -33 -3 -66q0 -10 -9 -88q-4 -27 -12 -45q-16 -51 -43 -78q12 -3 47 -19q25 33 44 127q13 72 13 169h54v-198q0 -42 21 -56
q18 -12 59 -12h28v-111h-274zM307 545h-54v125h54v-125zM415 509v-228h-23q-36 0 -43 13q-4 9 -5 38v177h71zM583 154v115h140v-115h-140zM583 305v113h140v-113h-140zM583 454v116h140v-116h-140zM556 -13q0 3 4 7q9 13 31 28q-9 4 -17 9q-16 9 -34 24q-15 -39 -53 -116
q-16 -30 -31 -53q21 -4 41 -19q4 10 9 21l23 44zM656 45q-21 0 -43 -2q6 -27 13 -63l15 -106q19 4 44 6q-6 48 -29 165zM687 732q18 -18 70 -86q9 -13 19 -32q13 13 35 29l-43 55l-48 60q-15 -13 -33 -26zM794 -56l-18 71l-11 48q-13 -6 -25 -8q-6 0 -14 -2q9 -34 20 -82
l16 -88q22 9 44 10zM861 85q-21 -13 -37 -22q39 -64 63 -110q18 -39 33 -73q18 7 30 14q4 3 12 7q-4 9 -10 23l-39 67q-12 19 -36 67q0 1 -16 27v0z" />
  </g>

</svg>
