<?xml version="1.0" standalone="no"?>
<!DOCTYPE svg PUBLIC "-//W3C//DTD SVG 1.1//EN" "http://www.w3.org/Graphics/SVG/1.1/DTD/svg11.dtd" >
<svg xmlns="http://www.w3.org/2000/svg" xmlns:xlink="http://www.w3.org/1999/xlink" version="1.1" viewBox="-10 0 1034 1024">
  <g transform="matrix(1 0 0 -1 0 820)">
   <path fill="currentColor"
d="M426 682q-33 -1 -65 -5l-298 1q-24 3 -28 4v-46q9 6 77 5h65v-134q-33 0 -103 5q6 -48 6 -64l-1 -562q-1 -7 -2 -28q0 -3 -3 -13h49q-3 12 -5 37l-1 37h256l-4 -64q-1 -1 -2 -5h50q-4 49 -5 70l1 548l4 44q-33 -1 -67 -5h-49v134q105 0 118 -3q1 0 7 -2v46zM117 103v368
h60l1 -37q0 -66 -9 -120q-7 -36 -24 -70q-7 -13 -25 -29l48 -15q7 16 12 28q15 40 25 85q0 10 8 121v37h52v-157q0 -43 22 -59q19 -15 57 -16q13 1 29 1v-137h-256zM117 -45v112h256v-112h-256zM213 507v134h52v-134h-52zM373 276q-12 0 -24 -1q-18 0 -32 7q-15 9 -16 35
v154h72v-195zM567 149l-45 4q-12 1 -22 1q4 -70 5 -104v-145l-65 4q-3 0 -6 1v-46q3 3 20 4l446 1q51 0 60 -3q1 0 6 -2v46q-33 -1 -66 -5h-8q0 196 2 209q0 12 4 40q-36 -1 -71 -5h-260zM619 113v-208h-77v208h77zM654 -95v208h79v-208h-79zM770 -95v208h84v-208h-84z
M549 412q3 -18 3 -33q0 -42 -8 -71q-12 -48 -58 -77q-9 -6 -18 -9q-12 -4 -33 -12q6 -3 31 -24l12 -12q99 72 108 167q3 42 17 61q-27 6 -54 10zM880 598q49 0 59 -3q3 0 7 -2v46q-33 -1 -66 -5l-380 1q-24 3 -31 4v-46q24 4 67 5h128q-39 -43 -82 -83q-45 -39 -78 -47
q0 -1 19 -46q15 7 34 12q24 4 69 12l93 13l139 16q24 -24 49 -53q10 13 23 28q3 3 5 7q-24 21 -85 83l-28 30q-12 -12 -31 -28l43 -39l-80 -8q-54 -7 -161 -19q19 16 33 30q12 13 95 92h159zM725 636q9 13 17 20q4 4 8 9l-91 90q-15 -19 -27 -29q19 -15 37 -30
q21 -21 56 -60zM669 408q0 -12 3 -24l2 -152l-5 -37h49q-1 7 -3 29l-2 80q0 69 3 75q1 13 3 13q0 3 7 16h-57zM837 338q6 57 8 60q1 4 5 10h-57l2 -14q3 -75 4 -112q0 -31 5 -44q3 -7 10 -14q15 -15 64 -16q33 0 49 6q21 9 36 45l12 35q-24 15 -39 28q-3 -28 -5 -38
q-6 -24 -16 -35q-9 -9 -37 -9q-40 0 -41 41v57z" />
  </g>

</svg>
