<?xml version="1.0" standalone="no"?>
<!DOCTYPE svg PUBLIC "-//W3C//DTD SVG 1.1//EN" "http://www.w3.org/Graphics/SVG/1.1/DTD/svg11.dtd" >
<svg xmlns="http://www.w3.org/2000/svg" xmlns:xlink="http://www.w3.org/1999/xlink" version="1.1" viewBox="-10 0 1010 1000">
   <path fill="currentColor"
d="M456 80v75q-27 -6 -91 -6h-24v107h26q40 0 52 -1q14 0 37 -3q-7 26 -6 113v16v332q1 104 6 149h-71q5 -10 7 -33q1 -6 1 -9h-244q0 -2 1 13q2 41 3 56h-76q10 -65 12 -137v-353q-2 -75 -10 -149l84 6h41v-107h-47q-53 0 -95 8v-77q46 9 121 10h134q59 -1 139 -10zM605 4
q66 -3 72 6q1 2 -2 8q-10 30 -10 88h63q-1 -13 -1 -37q0 -45 -5 -63h20q53 -2 54 6q-18 21 -18 94h49q64 -3 82 -6q-4 33 -4 105v89q0 69 4 97q-61 -8 -135 -8h-139q-127 2 -145 8q7 -47 8 -111v-87q-3 -74 -6 -93q18 3 83 6h40q0 -65 -10 -102zM508 530l113 6h155
q86 -3 113 -8q-2 12 -3 38q0 16 -1 22v43l6 66q-21 -6 -85 -8h-197q-9 1 -25 2q-65 5 -76 8l6 -62v-53q-1 -33 -6 -54zM248 308q-6 227 -52 280q-28 -15 -47 -14v71h248v-87q-62 0 -81 -11q-19 -9 -18 -45v-194h-50zM843 725q-1 3 -7 9q-23 24 -48 72h39q93 0 125 -6v69
q-30 -8 -123 -9h-240q-81 0 -109 5v-67q27 6 109 6h139q27 -41 36 -107q79 18 79 28zM942 433v61q-29 -7 -109 -7h-240q-86 0 -113 7v-61q27 3 115 6h234zM149 693v71h248v-71h-248zM573 580v65h252v-65h-252zM341 308v165q-1 27 9 32q6 6 47 5v-202h-56zM149 308v248
q56 -35 55 -248h-55zM776 260v80h73v-80h-73zM623 695q5 11 15 30q18 35 23 53l-60 20q-13 -46 -39 -83zM298 149h-50v107h50v-107zM776 149v72h73v-72h-73zM663 260v80h65v-80h-65zM615 260h-65v80h65v-80zM663 149v72h65v-72h-65zM550 149v72h65v-72h-65z" />
</svg>
