<?xml version="1.0" standalone="no"?>
<!DOCTYPE svg PUBLIC "-//W3C//DTD SVG 1.1//EN" "http://www.w3.org/Graphics/SVG/1.1/DTD/svg11.dtd" >
<svg xmlns="http://www.w3.org/2000/svg" xmlns:xlink="http://www.w3.org/1999/xlink" version="1.1" viewBox="-10 0 1034 1024">
  <g transform="matrix(1 0 0 -1 0 820)">
   <path fill="currentColor"
d="M316 668l107 -3q6 0 9 -2v47q-6 -1 -59 -6l-280 1q-6 1 -10 1q-7 0 -24 4v-47q-3 0 9 1q72 3 74 4h55v-153l-105 5q1 -33 5 -66l-1 -552q-1 -7 -2 -28l-2 -15h46q-3 27 -4 61v22h237q0 -18 -2 -46h38l-29 -30q22 -12 42 -25q1 3 3 6q6 9 7 11q4 7 33 50q36 58 44 66
q7 10 19 20q-25 15 -42 28q-25 -52 -70 -115l-6 62l1 495q0 21 5 56q-55 -4 -91 -5h-7v153zM134 -23v123h237v-123h-237zM134 136v85q21 -7 41 -18q27 42 43 111q6 33 11 78q3 45 5 89h45v-171q0 -54 52 -62q10 -3 40 -3v-109h-237zM134 481h63q0 -60 -11 -140
q-15 -75 -52 -118v258zM279 668v-153h-45v153h45zM371 284q-15 0 -23 1q-15 0 -24 8q-7 6 -8 46v142h55v-197zM552 443q-19 -15 -29 -23q48 -58 70 -102q15 13 29 28l-18 27q-12 18 -52 70zM752 346q16 24 42 54q10 15 32 24q-13 7 -31 21q-6 4 -10 9q-28 -49 -78 -102
q13 -9 29 -25q7 10 16 19zM688 676l42 7q123 18 134 19q7 0 21 -3q-12 18 -19 36q-3 6 -8 15q-78 -21 -81 -21q-30 -6 -82 -14l-85 -10q-81 -6 -102 -6q-27 3 -42 4q12 -18 22 -45q15 0 32 3q24 3 50 4l80 6v-63l-214 1q-19 3 -34 4v-46q19 4 43 5l205 1v-66l-130 1
q-3 0 -54 4q6 -54 6 -81q0 -108 -2 -134q-1 -1 -1 -5q0 -18 -3 -30q54 4 115 5h69v-69l-177 3q-6 0 -16 2v-44q-3 0 9 1q45 4 72 5h112v-67q-202 3 -219 5v-46q-3 0 9 1l56 4l430 -1l40 -4v46q-33 -1 -66 -5h-212v67q141 0 160 -2l40 -4v44q-33 -1 -65 -5h-135v69l145 -1
q3 0 48 -4q-6 51 -5 94l1 111l4 45q-36 -1 -71 -5h-122v66l220 -1q24 0 42 -5v46q-30 -4 -66 -5h-196v68zM509 301v172h141v-172h-141zM688 301v172h150v-172h-150zM600 21q-18 -7 -41 -11q27 -63 51 -158q18 7 38 12q-9 22 -15 46q-9 33 -21 69q-6 19 -8 27q0 6 -4 15z
M749 -111q3 -10 8 -21q13 6 24 11q1 0 14 5q-15 40 -65 145l-38 -14q27 -49 36 -72zM820 15q24 -27 50 -64q48 -69 55 -82l7 -15l38 28q-18 27 -63 88l-52 68q-15 -12 -35 -23v0z" />
  </g>

</svg>
