<?xml version="1.0" standalone="no"?>
<!DOCTYPE svg PUBLIC "-//W3C//DTD SVG 1.1//EN" "http://www.w3.org/Graphics/SVG/1.1/DTD/svg11.dtd" >
<svg xmlns="http://www.w3.org/2000/svg" xmlns:xlink="http://www.w3.org/1999/xlink" version="1.1" viewBox="-10 0 1010 1000">
   <path fill="currentColor"
d="M784 14q37 45 65 90q-340 22 -684 73q-14 -47 -36 -74q-7 -9 -6 -13q368 -2 661 -76zM730 169l80 44q-70 137 -110 184l-77 -49q75 -94 107 -179zM516 189q17 45 28 139l-80 6q-2 -62 -27 -137zM276 217q26 45 59 146l-81 18q-19 -76 -56 -143zM452 373q105 -1 104 6
q1 4 -4 13q-14 25 -14 57h238q83 0 151 -8v85q-48 -6 -147 -6h-181q133 197 339 230q-54 40 -75 96q-200 -70 -325 -316v208q0 54 8 143h-92q1 -9 2 -31q6 -65 6 -110v-210q-115 219 -307 328q-37 -40 -97 -74q219 -83 337 -264h-169q-111 0 -147 8v-87q13 8 147 8h232
q3 -34 -6 -76z" />
</svg>
