<?xml version="1.0" standalone="no"?>
<!DOCTYPE svg PUBLIC "-//W3C//DTD SVG 1.1//EN" "http://www.w3.org/Graphics/SVG/1.1/DTD/svg11.dtd" >
<svg xmlns="http://www.w3.org/2000/svg" xmlns:xlink="http://www.w3.org/1999/xlink" version="1.1" viewBox="-10 0 1034 1024">
  <g transform="matrix(1 0 0 -1 0 820)">
   <path fill="currentColor"
d="M264 -92q-3 -33 -3 -54q-3 -3 -3 -12h50q-1 4 -6 59v395q64 -66 111 -128q12 13 21 24q4 3 12 11l-80 81q-39 40 -64 68v22q75 0 156 -3q3 0 10 -4v48l-73 -6h-93v266q126 24 166 26q-19 24 -32 44q-30 -12 -46 -16q-24 -6 -67 -13q-48 -9 -98 -14q-46 -6 -75 -6
q-19 0 -48 4q15 -24 29 -50l133 18v-259h-124l-52 4q-7 0 -14 2v-48q7 3 14 4q27 0 52 3h117q-39 -129 -138 -261q-33 -43 -69 -75q36 -12 50 -24q18 21 39 52l45 69q45 75 80 142v-369zM210 499q-40 66 -62 105q-18 -12 -37 -23q27 -33 79 -137q16 15 36 26q-9 15 -16 29z
M390 456q66 112 72 118q9 10 26 19q-30 16 -52 32q-30 -78 -87 -154q21 -9 38 -22q1 4 3 7zM501 -90q-3 -30 -3 -54q-1 -1 -2 -11h48q0 1 -5 39l-1 58h365q0 -54 -3 -76q-1 -1 -1 -3q-1 -3 -1 -8q-1 -1 -1 -4h49q0 3 -5 44l-1 587l4 41q0 13 2 25q-72 -4 -103 -5h-99v158
q0 40 12 67h-55l4 -38l1 -187h-140q-9 0 -36 3q-15 0 -34 2q1 -33 5 -69v-569zM538 274v233h168v-233h-168zM538 -22v260h168v-260h-168zM903 274h-159v233h159v-233zM744 -22v260h159v-260h-159z" />
  </g>

</svg>
