<?xml version="1.0" standalone="no"?>
<!DOCTYPE svg PUBLIC "-//W3C//DTD SVG 1.1//EN" "http://www.w3.org/Graphics/SVG/1.1/DTD/svg11.dtd" >
<svg xmlns="http://www.w3.org/2000/svg" xmlns:xlink="http://www.w3.org/1999/xlink" version="1.1" viewBox="-10 0 1010 1000">
   <path fill="currentColor"
d="M403 2q63 76 55 88q-5 3 -23 3q-60 -1 -127 17v230q50 0 107 -3q10 -1 16 -1v71q-60 -4 -123 -6v103l51 -39q74 54 113 109l-59 51q-38 -50 -105 -115v221q0 132 4 160h-80q4 -65 4 -160v-246q-41 122 -157 265q-11 -53 -41 -83q108 -85 174 -264q-48 0 -127 5
q-16 1 -23 1v-75q80 6 174 6v-217q-31 4 -96 15q-27 4 -43 7l-49 -79q229 -9 355 -64zM389 159l77 34q-31 71 -61 121q-24 -19 -64 -22q30 -55 48 -133zM167 175q16 46 31 127l-75 12q-4 -50 -30 -125zM635 397q103 9 101 18q-1 5 -5 14q-12 25 -13 65h52q45 0 98 -4
q19 -1 29 -2v78q-25 -2 -55 -3q-15 -1 -32 -1h-42h-52v99h52q88 0 157 -6v80q-63 -6 -153 -6h-54q0 131 6 166h-89q6 -69 6 -168h-74q-56 0 -125 6v-80q48 9 125 8h74v-99h-32q-49 0 -103 3q-12 1 -18 1v-79q78 7 117 7h38q0 -42 -8 -97zM625 294q-52 -47 -117 -147l42 -32
q-32 0 -62 4v-77q39 3 133 4h117q122 0 165 -4q7 1 4 8q-57 125 -165 242q73 31 216 40q-32 42 -43 93q-117 -21 -232 -85q-51 37 -195 105q-12 -42 -53 -78q104 -17 190 -73zM573 113q46 82 104 139q58 -57 113 -139h-217z" />
</svg>
