<?xml version="1.0" standalone="no"?>
<!DOCTYPE svg PUBLIC "-//W3C//DTD SVG 1.1//EN" "http://www.w3.org/Graphics/SVG/1.1/DTD/svg11.dtd" >
<svg xmlns="http://www.w3.org/2000/svg" xmlns:xlink="http://www.w3.org/1999/xlink" version="1.1" viewBox="-10 0 1010 1000">
   <path fill="currentColor"
d="M633 -8q100 1 103 10q-15 24 -19 57q-5 34 -5 118h121q42 0 82 -8q-6 42 -6 77v528q1 61 10 107h-90q8 -39 8 -77h-313q2 47 10 77h-94q9 -55 10 -107v-532q0 -46 -6 -73q48 8 76 8h123q0 -94 -2 -122q-1 -36 -8 -63zM379 4q74 74 73 84q-1 3 -24 4q-10 1 -15 2
q-35 5 -121 19v256h25q36 0 110 -9v85q-65 -9 -110 -8h-25v343q1 76 10 123h-90q8 -34 10 -119v-297q-57 171 -147 277q-12 -40 -45 -79q87 -72 158 -248h-23q-62 0 -111 8v-83q76 7 113 7h55v-242q-10 2 -36 7q-67 12 -113 23q-10 -50 -39 -77q201 1 345 -76zM365 155
q3 1 7 3q61 22 68 31q-29 54 -61 135q-29 -15 -62 -20q25 -32 48 -149zM141 181l40 127l-74 18q-4 -57 -36 -123zM522 244v199h121v-199h-121zM712 244v197h123v-197h-123zM522 508v229h121v-229h-121zM712 506v231h123v-231h-123zM365 508q47 77 72 131l-64 34
q-23 -61 -71 -133z" />
</svg>
