<?xml version="1.0" standalone="no"?>
<!DOCTYPE svg PUBLIC "-//W3C//DTD SVG 1.1//EN" "http://www.w3.org/Graphics/SVG/1.1/DTD/svg11.dtd" >
<svg xmlns="http://www.w3.org/2000/svg" xmlns:xlink="http://www.w3.org/1999/xlink" version="1.1" viewBox="-10 0 1010 1000">
   <path fill="currentColor"
d="M300 16h420q71 0 109 -8q-6 22 -6 105v50q0 89 6 113q-29 -8 -111 -8h-428q-86 0 -111 6q4 -36 4 -109v-59q0 -73 -6 -98q39 8 123 8zM258 72v41h490v-41h-490zM748 169h-490v44h490v-44zM54 302q2 0 15 1q71 9 137 9h611q66 0 119 -8q11 -2 14 -2v77q-3 0 -14 -1
q-49 -7 -117 -7h-611q-67 0 -143 7q-10 1 -11 1v-77zM288 413h438q75 0 111 -6q-6 21 -6 99v78q0 62 4 87q-17 -6 -87 -6h-216v46h206q54 0 102 -7q10 -1 13 -1v71q-3 0 -13 -2q-43 -6 -100 -6h-208v50h281q60 0 111 -6q12 -2 16 -2v77q-3 0 -13 -1q-49 -7 -114 -7h-652
q-57 0 -103 7q-8 1 -10 1v-77q2 0 10 1q48 7 107 7h289v-50h-202q-50 0 -98 7q-9 1 -11 1v-71q5 0 20 2q47 6 87 6h204v-46h-198q-86 4 -95 6q6 -33 6 -93v-62q0 -59 -6 -109q25 6 127 6zM758 469h-226v41h226v-41zM454 469h-214v41h214v-41zM532 566v44h226v-44h-226z
M454 566h-214v44h214v-44z" />
</svg>
