<?xml version="1.0" standalone="no"?>
<!DOCTYPE svg PUBLIC "-//W3C//DTD SVG 1.1//EN" "http://www.w3.org/Graphics/SVG/1.1/DTD/svg11.dtd" >
<svg xmlns="http://www.w3.org/2000/svg" xmlns:xlink="http://www.w3.org/1999/xlink" version="1.1" viewBox="-10 0 1034 1024">
  <g transform="matrix(1 0 0 -1 0 820)">
   <path fill="currentColor"
d="M38 351q24 -25 37 -52q249 45 431 148q153 -75 330 -105l116 -18q22 45 29 56q-33 -3 -55 -3q-31 0 -84 6q-87 9 -179 38q-60 18 -122 49q13 12 28 26l61 48l33 27q1 1 7 6q12 10 40 14q-27 18 -47 41q-13 -18 -26 -31q-12 -13 -38 -35q-33 -30 -51 -43q-16 -13 -45 -34
q-60 39 -91 63q-48 42 -62 78q-18 -18 -40 -30l37 -37q15 -15 31 -27q34 -27 91 -67q-42 -24 -78 -40q-66 -27 -133 -48q-102 -30 -192 -30h-28zM494 -77l-380 1q-19 3 -25 4v-44q19 4 50 5l773 -1q19 0 36 -4v44q-4 0 -8 -1q-15 0 -51 -4h-358v199l293 -1l35 -4v44l-39 -4
l-289 -1v109h240q16 0 44 -3q1 0 14 -2v44q-9 0 -20 -3q-19 0 -38 -2l-539 1q-9 0 -22 4v-44q18 4 57 5h227v-109h-261q-34 0 -58 5v-44q46 4 93 5h226v-199zM115 572q16 -12 31 -26q6 -6 14 -15q75 48 120 80q39 28 81 63q31 27 68 31q-27 18 -47 43q-57 -60 -142 -121
q-64 -42 -125 -55zM242 61q72 -39 136 -113q9 12 12 15q7 9 17 16q-31 30 -62 56q-30 25 -74 59q-16 -21 -29 -33zM567 704q48 -18 73 -32q21 -9 128 -74q33 -21 74 -51q6 15 10 17q6 7 14 21l-131 78l-141 78q-3 -4 -27 -37zM662 -57l60 63q24 22 41 41q12 12 36 16
q-27 18 -45 37q-19 -27 -59 -69q-39 -39 -66 -62q12 -7 22 -17q4 -4 11 -9v0z" />
  </g>

</svg>
