<?xml version="1.0" standalone="no"?>
<!DOCTYPE svg PUBLIC "-//W3C//DTD SVG 1.1//EN" "http://www.w3.org/Graphics/SVG/1.1/DTD/svg11.dtd" >
<svg xmlns="http://www.w3.org/2000/svg" xmlns:xlink="http://www.w3.org/1999/xlink" version="1.1" viewBox="-10 0 1010 1000">
   <path fill="currentColor"
d="M583 -13q17 4 46 11q62 14 58 18q0 3 -6 8q-13 11 -22 24q-5 8 -15 23q-20 33 -27 46h157q57 0 137 -7v85q-42 -6 -137 -6h-185q-30 48 -63 97q-7 -3 -20 -9q-34 -17 -58 -21q93 -96 135 -269zM331 -4q14 1 43 1q54 0 51 5q1 6 -3 12q-11 20 -11 64v143q0 101 8 131
q24 -24 45 -60q9 4 29 12q63 26 61 32q0 3 -7 6q-8 4 -11 8q228 143 430 152q-45 42 -57 96q-108 -27 -205 -70v44q-38 -6 -125 -6h-51v71h129q101 0 155 -12v80q-45 -9 -149 -8h-135v115h79q34 -42 54 -105l87 37q0 2 -5 5q-25 16 -60 63h103q83 0 137 -10v83
q-54 -8 -131 -8h-574q-120 0 -153 10v-83q51 8 155 8h72q-34 -61 -54 -77l85 -16q18 27 42 93h87v-115h-123q-95 -1 -148 8v-78q53 9 142 10h129v-71h-59q-59 0 -80 1q-27 1 -41 3v-46q-18 9 -51 26q-79 41 -114 54q-33 -38 -79 -72q165 -30 377 -172h-80q10 -33 10 -133
v-153q0 -57 -4 -78zM141 30q21 1 57 0q34 -1 34 2q1 4 -2 11q-10 20 -10 55v150q0 93 8 125h-91q8 -51 8 -127v-144q0 -51 -4 -72zM671 221q63 35 164 127l-69 61q-32 -48 -155 -137zM492 385q-103 78 -184 115q18 6 103 6h137q85 1 103 -6q-83 -39 -159 -115z" />
</svg>
