<?xml version="1.0" standalone="no"?>
<!DOCTYPE svg PUBLIC "-//W3C//DTD SVG 1.1//EN" "http://www.w3.org/Graphics/SVG/1.1/DTD/svg11.dtd" >
<svg xmlns="http://www.w3.org/2000/svg" xmlns:xlink="http://www.w3.org/1999/xlink" version="1.1" viewBox="-10 0 1034 1024">
  <g transform="matrix(1 0 0 -1 0 820)">
   <path fill="currentColor"
d="M168 148l43 13q39 13 80 26q130 57 216 120q66 -51 204 -107q54 -19 107 -36q54 -15 119 -31l10 13q15 22 28 32h-14q-52 0 -130 19q-97 25 -199 74q-49 25 -93 59l27 9q-27 12 -56 34q-34 -46 -87 -80q-97 -60 -216 -98q-87 -24 -135 -24q-9 0 -25 1q16 -27 25 -50
q18 3 58 16q18 6 38 10zM73 414q9 -25 13 -53q6 1 11 4q30 9 67 16l85 16q120 16 194 31q0 18 4 42q-63 -16 -151 -31v215q123 0 139 -3q3 0 8 -2v44q-9 -3 -27 -4h-301q-12 3 -20 4v-44q15 3 30 4l134 1v-221q-115 -18 -164 -19h-22zM749 692v-297q0 -31 13 -47
q16 -21 67 -22q19 0 55 5q31 6 45 25q6 9 21 56q3 12 7 27q-24 4 -46 16q0 -6 1 -15q0 -13 -3 -31q-6 -33 -23 -42q-15 -6 -42 -6q-42 0 -50 10q-6 6 -7 31l1 289l4 40q-55 -4 -83 -5l-174 1q-19 3 -46 4q6 -76 7 -94q-1 -16 -1 -41l-5 -90q-7 -48 -37 -86q-28 -34 -78 -65
q-27 -13 -66 -17q25 -19 43 -42q70 42 98 66q27 27 53 70q16 34 22 79q3 28 4 71l2 110h218zM618 598q-6 9 -13 21q-15 -10 -34 -17q15 -19 42 -65q46 -78 66 -131q3 1 10 6q15 10 27 14l-54 99zM735 182q-9 -3 -12 -3q-25 0 -51 -2h-328q-43 0 -65 5v-44q1 1 5 1q7 3 36 4
h176v-78h-242q-45 0 -65 5v-44q3 3 27 4l280 1v-120h-314q-45 0 -66 5v-44q15 3 35 4q12 1 31 2l704 -1q21 0 30 -4q3 0 5 -1v44q-6 0 -12 -3l-149 -2h-97q9 12 18 23q9 9 19 20q28 30 58 35l-49 39q-36 -54 -91 -117h-84v120l253 -1q24 0 31 -3q3 0 6 -1v44q-7 -1 -13 -3
q-25 0 -50 -2h-227v78q187 0 194 -3l2 -1q1 0 5 -1v44zM324 9q-9 7 -18 17q-15 -10 -29 -23q36 -30 56 -49q12 -13 31 -41q15 15 32 25q-39 42 -46 47l-26 24v0z" />
  </g>

</svg>
