<?xml version="1.0" standalone="no"?>
<!DOCTYPE svg PUBLIC "-//W3C//DTD SVG 1.1//EN" "http://www.w3.org/Graphics/SVG/1.1/DTD/svg11.dtd" >
<svg xmlns="http://www.w3.org/2000/svg" xmlns:xlink="http://www.w3.org/1999/xlink" version="1.1" viewBox="-10 0 1010 1000">
   <path fill="currentColor"
d="M490 30q45 8 117 8h68q54 0 131 -8q-8 48 -8 105v88q-1 47 6 55q5 11 35 10q50 4 48 -85q38 34 79 35q-19 74 -37 90q-18 21 -68 20h-63q-44 -2 -53 -19q-12 -16 -11 -81v-150h-176q-2 118 -28 190q-24 -28 -84 -20q29 -35 35 -76q8 -36 9 -162zM87 46q42 8 129 8h72
q94 1 139 -8v81q-38 -11 -129 -10v141q52 -11 111 -31q-8 33 0 73q-238 49 -300 87l-32 -83q105 -19 153 -30v-157h-16q-77 0 -127 8v-79zM627 165q43 43 79 89l-53 44q-34 -57 -76 -93zM494 363q-75 71 -188 129q30 9 107 8h164q71 0 108 -6q-101 -49 -191 -131zM966 477
q-42 32 -55 87q-34 -4 -124 -35q-48 -16 -83 -27v66q-39 -8 -123 -8h-53v57h149q81 0 142 -7v77q-38 -6 -144 -6h-147v115h85q7 -16 21 -53q12 -32 19 -50q60 18 83 32q0 3 -8 8q-28 20 -45 63h53q112 0 173 -8v79q-47 -7 -173 -7h-478q-89 0 -163 7v-79q61 8 165 8h40
q-8 -24 -48 -69l79 -24q6 11 16 31q23 47 32 62h77v-115h-107q-107 0 -155 6v-77q11 1 32 2q81 5 121 5h109v-57h-39q-42 0 -121 5q-11 1 -16 1v-62q-120 56 -185 80q-11 -52 -49 -82q296 -57 452 -224q157 172 468 199z" />
</svg>
