<?xml version="1.0" standalone="no"?>
<!DOCTYPE svg PUBLIC "-//W3C//DTD SVG 1.1//EN" "http://www.w3.org/Graphics/SVG/1.1/DTD/svg11.dtd" >
<svg xmlns="http://www.w3.org/2000/svg" xmlns:xlink="http://www.w3.org/1999/xlink" version="1.1" viewBox="-10 0 1010 1000">
   <path fill="currentColor"
d="M542 -21q1 3 2 10q7 39 18 93h251q108 -1 129 -6v83q-26 -6 -127 -6h-166v107q0 43 6 84h-88q5 -36 6 -90v-101h-138v91l2 106h-88q9 -37 10 -100v-97h-157q-83 0 -131 8v-87q43 8 133 8h266q-10 -55 -30 -95zM242 195q95 39 87 45q-2 2 -6 3q-13 3 -33 23q-8 7 -28 27
q-83 80 -113 102q-23 -28 -72 -51q104 -56 165 -149zM738 195q67 29 197 109l-72 67q-57 -56 -180 -123zM506 389q-77 64 -121 94q12 3 59 4h98q3 1 37 0q28 -1 40 -2q-52 -34 -113 -96zM484 294q61 32 78 48q1 1 -5 5q-3 2 -5 3q126 142 414 154q-31 48 -45 98
q-184 -53 -242 -84v38q-24 -6 -74 -6h-71v65h166q73 -1 115 -7v79q-34 -8 -111 -8h-170v133h85q28 -37 46 -117q84 29 87 36q1 3 -5 10q-27 24 -51 71h100q75 -1 127 -8v81q-43 -6 -131 -6h-574q-99 0 -117 6v-81q31 5 115 8h246v-133h-149q-86 2 -113 8v-81q37 9 112 9h150
v-65h-47q-57 0 -88 6v-42q-135 74 -240 113q-24 -49 -61 -83q341 -86 458 -250zM312 808q-11 -46 -46 -83l73 -28q9 12 31 49q14 23 19 32z" />
</svg>
