<?xml version="1.0" standalone="no"?>
<!DOCTYPE svg PUBLIC "-//W3C//DTD SVG 1.1//EN" "http://www.w3.org/Graphics/SVG/1.1/DTD/svg11.dtd" >
<svg xmlns="http://www.w3.org/2000/svg" xmlns:xlink="http://www.w3.org/1999/xlink" version="1.1" viewBox="-10 0 1034 1024">
  <g transform="matrix(1 0 0 -1 0 820)">
   <path fill="currentColor"
d="M303 149q22 4 66 5h126v-78l-276 3q-3 1 -9 4v-46l60 6h225v-118h-108q9 12 24 23q-6 3 -78 82l-2 2q-16 -12 -32 -23q33 -31 48 -49t28 -35q-234 0 -247 3q-6 0 -11 3v-45q30 3 60 5l696 -1q9 0 43 -4v45q-48 -6 -64 -6h-191q42 45 55 54q12 10 36 17q-27 19 -44 38
q-37 -46 -99 -109h-76v118h239q34 0 63 -6v46q-3 -3 -7 -3q-3 0 -6 -1q-24 0 -50 -3h-239v78q190 0 197 -3l2 -1q6 0 10 -1v44q82 -27 209 -44q3 7 4 14q3 4 6 14q4 10 9 19q-15 -1 -25 -2q-27 0 -81 9q-78 15 -139 36q-51 18 -92 38q-36 18 -89 53q6 6 12 11q-21 10 -39 28
q-1 1 -3 2q-42 -45 -87 -76q-67 -45 -142 -74q-135 -51 -233 -56q21 -22 36 -44q123 34 215 67v-39zM315 193q88 37 196 114q78 -48 113 -66q39 -19 112 -48q-34 -1 -69 -5l-328 1q-19 3 -24 4zM302 519q-111 -135 -226 -167q21 -18 38 -36q1 3 66 41q22 18 45 34
q10 7 22 17q45 42 91 98v-159q0 -22 -10 -28q-15 -4 -29 -5q-24 0 -48 4q6 -18 10 -22q3 -9 6 -24q33 3 53 6q30 3 43 17q12 12 13 47v177h96q-7 -24 -16 -41q-10 -22 -32 -60q6 0 16 1q15 0 30 -3q4 16 28 69l35 73q-55 -4 -86 -5h-54l-29 23q33 24 54 43q21 18 60 56
l56 54l-115 -4l-246 1q-16 1 -26 4v-44q34 4 60 5h239q-27 -27 -52 -47q-25 -21 -62 -48q-75 51 -91 63q-3 -3 -13 -18q-6 -9 -17 -18q12 -3 50 -25q25 -15 68 -45l-223 2q-6 3 -13 3v-45q15 4 37 5zM813 617q-3 -34 -21 -89q-13 -36 -37 -72l-58 42q-24 16 -29 22
q-7 4 -21 17q-13 -18 -31 -36q46 -18 115 -75q-24 -25 -70 -58q-36 -21 -79 -33q34 -27 41 -34q45 24 69 42q30 21 70 60q51 -37 118 -94q13 -12 28 -28q1 3 4 6q1 3 3 7q3 9 16 25q0 1 1 2q-4 3 -7 6q-1 0 -14 12q-90 66 -99 74l-25 19q43 70 68 185q66 -1 99 -6v44
q-31 -1 -63 -5h-226q36 84 39 87q4 7 21 16q-39 9 -62 20q-18 -81 -63 -170q-40 -75 -81 -108q25 -9 49 -20q42 69 80 142h165z" />
  </g>

</svg>
