<?xml version="1.0" standalone="no"?>
<!DOCTYPE svg PUBLIC "-//W3C//DTD SVG 1.1//EN" "http://www.w3.org/Graphics/SVG/1.1/DTD/svg11.dtd" >
<svg xmlns="http://www.w3.org/2000/svg" xmlns:xlink="http://www.w3.org/1999/xlink" version="1.1" viewBox="-10 0 1034 1024">
  <g transform="matrix(1 0 0 -1 0 820)">
   <path fill="currentColor"
d="M367 329q-6 1 -8 4q-9 4 -25 17h345q-42 -61 -128 -133q-55 -42 -102 -52q24 -15 41 -34l49 36q42 31 68 57l74 72q84 -72 175 -117l64 -31q7 -4 16 -9q10 13 18 24l14 18q-48 6 -125 44q-70 37 -138 92q15 7 31 13q-24 9 -42 20q139 0 159 -2q12 0 23 -5v43q-3 0 -5 -1
q-3 0 -5 -2l-208 -2q30 42 72 60q-9 7 -17 13q-9 6 -25 19q-33 -43 -75 -92h-83v92l277 -3q6 0 10 -4v43q-3 0 -5 -1l-55 -4h-227v60l168 -1q9 0 15 -3q3 0 9 -1v31q34 -16 83 -36l112 -42q7 12 9 13l26 31q-69 3 -190 56q-136 60 -229 137q12 6 26 12l-38 13q-9 3 -23 11
q-21 -27 -52 -57q-76 -69 -137 -106l-72 -43q-21 -12 -40 -19q-57 -22 -100 -26q24 -24 38 -41q192 78 367 236q45 -36 87 -64q45 -28 115 -67l-38 -3h-263q-46 0 -63 5v-41q21 4 63 5h91v-60h-194q-36 0 -64 5v-41q12 3 47 4l211 1v-92h-76q9 9 21 17q-12 12 -88 74
q-12 -13 -26 -25l76 -66l-187 1q-33 3 -37 4v-41q18 4 63 5h72q-40 -51 -119 -120q-69 -57 -127 -71q19 -15 39 -38q9 9 30 21q42 31 65 50q48 39 76 68q15 12 37 36q61 -34 101 -59q33 -21 55 -42q9 16 26 32q-36 24 -79 49q-42 24 -77 43q13 6 28 10zM708 69l183 -3
q3 -1 6 -4v43q-60 -4 -77 -5h-112v60l107 -3q3 -1 7 -3v42q-13 -3 -22 -3l-95 -2q-115 3 -126 5v-41q15 4 63 5h30v-60h-83q-45 0 -64 5v-41q18 4 64 5h83v-129l-182 4q-3 1 -4 1v-41q19 4 51 5l382 -3q6 0 10 -4v43q-9 0 -20 -3l-76 -2h-53q54 72 56 72q6 6 19 14
q-15 9 -43 31q-27 -57 -72 -117h-32v129zM332 65q105 0 109 -2q9 0 20 -1q3 -1 6 -4v43l-101 -5h-34v70q60 0 84 -3q1 0 5 -1q3 -1 6 -3v42q-3 0 -10 -2q-27 -3 -74 -3q-81 0 -108 2q-10 1 -18 3v-41q24 6 48 6h31v-70q-130 3 -141 5v-41q15 3 33 4l108 1v-115
q-45 -7 -74 -12q-61 -6 -81 -7q-9 0 -28 1q19 -24 30 -46q4 1 167 33l152 21q3 24 11 44q-69 -18 -141 -29v110zM360 -18l31 -16q31 45 62 63q-12 6 -17 11q-6 6 -21 18q-33 -49 -55 -76zM171 26q39 -37 62 -70q9 10 30 26q-13 16 -66 66q-13 -13 -26 -22zM591 -25
q6 -6 12 -14l19 16q-3 0 9 5l-50 54q-7 9 -14 16q-9 -9 -26 -21q6 -4 50 -56v0z" />
  </g>

</svg>
