<?xml version="1.0" standalone="no"?>
<!DOCTYPE svg PUBLIC "-//W3C//DTD SVG 1.1//EN" "http://www.w3.org/Graphics/SVG/1.1/DTD/svg11.dtd" >
<svg xmlns="http://www.w3.org/2000/svg" xmlns:xlink="http://www.w3.org/1999/xlink" version="1.1" viewBox="-10 0 1010 1000">
   <path fill="currentColor"
d="M472 -15q9 1 25 2q81 6 82 15q2 3 -8 5q-16 5 -21 11q162 132 416 151q-42 37 -53 89q-130 -33 -228 -83v28q-26 -6 -86 -6h-67v51h141q91 0 140 -8v64q-35 -6 -89 -6h-192v71h95q26 -38 42 -69q72 17 71 28q0 3 -8 7q-23 11 -42 34h68q49 0 107 -7v65q-35 -6 -101 -6
h-40l-18 24q94 93 262 123q-30 27 -47 75q-64 -28 -104 -57v35q-15 -2 -39 -3q-11 -1 -26 -1h-42v60h80q62 0 103 -8v58q-33 -6 -101 -6h-82v117h46q24 -43 38 -96l77 22q-1 2 -7 6q-31 20 -52 68q59 0 107 -8v65q-33 -8 -119 -8h-215q-77 0 -119 8v-65q41 8 96 8
q-19 -48 -48 -74l59 -18q21 42 40 90h38v-115h-40q-74 -1 -119 8v-58q42 6 113 6h46v-60q-43 0 -59 1q-21 1 -32 3v-35q-42 29 -90 59q-24 -34 -57 -47q138 -51 238 -179h-318l-21 26q91 27 176 71l-46 48q-79 -56 -164 -83q-60 50 -90 71q17 4 68 4h44q65 -1 101 -4v61
q-33 -5 -93 -5v51h27q55 0 88 -6v60q-30 -6 -82 -6h-33v115q11 -4 39 -8q12 -42 14 -77l66 9q1 3 -5 9q-20 20 -29 53q12 -3 8 -2q41 -8 55 -12q-9 31 -6 58q-272 28 -364 58q-7 3 -9 3q-1 -1 -3 -13q-5 -37 -16 -64q1 -1 8 0q33 4 95 0q-16 -50 -38 -76l60 -18q2 6 5 17
q15 55 18 71l42 -4v-119h-52q-71 -1 -101 8v-64q34 8 99 8h54v-51q-52 0 -85 5v-37q-15 11 -44 32l-30 21q-10 -14 -31 -31q-14 -12 -24 -20q133 -46 218 -157q-71 0 -107 6v-64q56 8 119 8h49q-16 -27 -35 -41l65 -26q30 45 42 65h87v-71h-147q-89 0 -131 6v-64q57 8 137 8
h141v-51h-41q-77 0 -116 6v-34q-71 45 -220 103q-16 -36 -63 -67q240 -36 440 -220zM496 52q-67 52 -141 91q10 3 33 3q11 1 28 1h54h70q48 0 65 -1q21 -1 28 -3q-69 -29 -137 -91zM673 487q-43 41 -94 79q6 4 64 4h67q56 0 70 -6q-58 -36 -107 -77z" />
</svg>
