<?xml version="1.0" standalone="no"?>
<!DOCTYPE svg PUBLIC "-//W3C//DTD SVG 1.1//EN" "http://www.w3.org/Graphics/SVG/1.1/DTD/svg11.dtd" >
<svg xmlns="http://www.w3.org/2000/svg" xmlns:xlink="http://www.w3.org/1999/xlink" version="1.1" viewBox="-10 0 898 1000">
   <path fill="currentColor"
d="M284 846h-94l421 -790h91zM200 379q84 -2 86 -129q-3 -122 -84 -125q-86 2 -87 129q2 121 85 125zM202 54q156 5 161 202q-4 192 -167 197q-151 -10 -158 -197q5 -197 164 -202zM690 772q86 -3 88 -129q-3 -122 -84 -125q-87 3 -89 129q3 119 85 125zM692 447
q158 5 163 202q-4 190 -168 195q-152 -10 -159 -195q5 -197 164 -202z" />
</svg>
