<?xml version="1.0" standalone="no"?>
<!DOCTYPE svg PUBLIC "-//W3C//DTD SVG 1.1//EN" "http://www.w3.org/Graphics/SVG/1.1/DTD/svg11.dtd" >
<svg xmlns="http://www.w3.org/2000/svg" xmlns:xlink="http://www.w3.org/1999/xlink" version="1.1" viewBox="-10 0 1010 1000">
   <path fill="currentColor"
d="M210 -6q104 34 103 48q1 2 -6 5q-19 7 -31 25q-14 22 -30 48q-9 17 -14 23h93q70 0 129 -8v82q-55 -6 -133 -6h-131q-34 51 -73 95q38 2 91 2h125q84 0 109 -6v79q-35 -6 -107 -6h-51v117h49q54 0 119 -7v79q-35 -9 -119 -8h-49v194q36 -21 141 -105q10 62 21 88
q-163 96 -226 164q-5 6 -6 6q-14 -23 -40 -62l-15 -21l5 -4q48 -31 48 -62v-198h-45q-75 0 -113 6v-77q46 7 109 7h49v-119q-75 0 -111 6v-51q-21 27 -39 45q-19 -64 -36 -81q121 -97 184 -298zM476 88q90 8 141 8h202q93 -1 133 -10v95q-31 -9 -103 -8h-55v601q2 75 -31 95
q-31 24 -142 26q-4 -50 -44 -103q79 13 105 4q29 -9 28 -46v-579h-81q-111 0 -153 8v-91z" />
</svg>
