<?xml version="1.0" standalone="no"?>
<!DOCTYPE svg PUBLIC "-//W3C//DTD SVG 1.1//EN" "http://www.w3.org/Graphics/SVG/1.1/DTD/svg11.dtd" >
<svg xmlns="http://www.w3.org/2000/svg" xmlns:xlink="http://www.w3.org/1999/xlink" version="1.1" viewBox="-10 0 1010 1000">
   <path fill="currentColor"
d="M224 -10q93 27 107 42q-1 2 -10 10q-22 18 -33 34q-38 54 -50 75h91q85 0 133 -7q9 -1 12 -1v90q-27 -10 -145 -10h-131q-32 47 -65 89q3 3 26 3q11 1 29 1h58h28q115 0 151 -6v85q-45 -9 -137 -8v109h47q86 0 121 -8v88q-46 -9 -127 -8h-41v170q41 -26 107 -93l32 86
q-106 59 -221 182l-57 -77q0 -1 11 -10q50 -40 50 -60v-196q-105 0 -147 8v-90q45 10 147 10v-111q-55 0 -91 6v-63q-13 15 -33 38q-11 12 -15 17q-13 -47 -45 -77q139 -122 198 -318zM647 2q88 2 109 10q0 2 -4 10q-16 30 -16 64v212h62q79 0 135 -8v91q-40 -8 -129 -8h-68
v401h72q112 0 156 -10v99q-33 -9 -151 -9h-220q-113 0 -160 8v-96q64 8 158 8h66v-401h-42q-72 0 -111 8q-10 1 -16 2v-95q33 9 127 10h42v-171q0 -87 -10 -125z" />
</svg>
