<?xml version="1.0" standalone="no"?>
<!DOCTYPE svg PUBLIC "-//W3C//DTD SVG 1.1//EN" "http://www.w3.org/Graphics/SVG/1.1/DTD/svg11.dtd" >
<svg xmlns="http://www.w3.org/2000/svg" xmlns:xlink="http://www.w3.org/1999/xlink" version="1.1" viewBox="-10 0 1034 1024">
  <g transform="matrix(1 0 0 -1 0 820)">
   <path fill="currentColor"
d="M351 545q27 0 63 -5v47q-9 0 -17 -3q-18 -3 -66 -3h-132q39 81 55 117q12 30 42 37q-24 9 -66 30q-12 -39 -23 -70q-9 -27 -21 -52q-46 -96 -82 -141q-37 -45 -72 -68q27 -12 54 -27q36 48 56 78l38 60h171zM232 212l-154 3q-6 3 -11 3v-47q3 1 49 5h116v-245
q0 -21 -6 -34q-4 -9 -21 -22q6 -9 12 -15q21 -27 27 -36l21 26q6 7 15 17q7 9 15 18q0 1 78 83l57 56q-4 19 -15 49q-21 -25 -51 -58l-92 -93v254h87q25 0 63 -5v47q-9 -3 -17 -4l-133 -2v160h59q31 0 62 -6v47q-9 -1 -15 -3l-1 -1q-19 -1 -88 -2l-168 4q-6 1 -9 2v-47l57 6
h63v-160zM786 601h136q25 0 63 -5v46q-9 0 -17 -3l-204 -2l-284 2q-6 3 -13 3v-46q3 3 45 5h234v-665q0 -34 -11 -42q-9 -9 -36 -13q-34 -3 -59 -5q-16 0 -53 6q10 -30 15 -53l76 5q58 9 76 17q31 15 32 65v685z" />
  </g>

</svg>
