<?xml version="1.0" standalone="no"?>
<!DOCTYPE svg PUBLIC "-//W3C//DTD SVG 1.1//EN" "http://www.w3.org/Graphics/SVG/1.1/DTD/svg11.dtd" >
<svg xmlns="http://www.w3.org/2000/svg" xmlns:xlink="http://www.w3.org/1999/xlink" version="1.1" viewBox="-10 0 1010 1000">
   <path fill="currentColor"
d="M218 -4q78 17 105 32q0 2 -7 10q-17 15 -26 32q-17 27 -38 67h117q77 0 141 -8v80q-54 -9 -141 -8h-149q-22 38 -65 103q10 8 97 8h97q80 0 137 -8v77q-42 -6 -139 -6h-37v117h49q93 0 151 -9v87q-39 -10 -149 -10h-51v190q28 -14 112 -69q36 -23 50 -32l12 88
q-137 59 -240 158l-56 -81q42 -25 46 -50v-204h-34q-103 -1 -133 8v-87q54 11 133 11h34v-117q-66 -3 -97 6v-47q-20 27 -62 75q-9 -33 -37 -81q125 -116 180 -332zM790 2q95 2 109 12q0 2 -4 10q-14 26 -14 54v762q14 60 -173 69q-11 -58 -37 -103q136 26 127 -26v-668
q0 -68 -8 -110zM599 112q97 1 103 9q0 2 -2 8q-15 34 -15 96v321q0 110 9 155h-99q10 -70 10 -157v-339q0 -72 -6 -93z" />
</svg>
