<?xml version="1.0" standalone="no"?>
<!DOCTYPE svg PUBLIC "-//W3C//DTD SVG 1.1//EN" "http://www.w3.org/Graphics/SVG/1.1/DTD/svg11.dtd" >
<svg xmlns="http://www.w3.org/2000/svg" xmlns:xlink="http://www.w3.org/1999/xlink" version="1.1" viewBox="-10 0 1034 1024">
  <g transform="matrix(1 0 0 -1 0 820)">
   <path fill="currentColor"
d="M624 760q1 -33 5 -67l-1 -809q-1 -12 -2 -33q-1 -3 -1 -6q-1 -3 -1 -6h48q-3 33 -5 66l1 814q1 25 11 41h-55zM731 408q64 -72 70 -82l31 -42q25 -31 65 -91q19 -30 32 -51q18 18 35 31q-39 55 -78 108l-118 153q-9 12 -28 32q-22 -24 -32 -30zM201 539q264 0 274 -3
q1 0 6 -2v46q-33 -1 -65 -5h-195l35 76q21 48 24 52q9 18 32 33q-15 6 -29 9q-13 3 -32 12q-22 -70 -42 -118q-43 -90 -90 -161q-18 -27 -32 -43q-10 -12 -32 -29q7 -3 13 -5q19 -6 33 -16q30 42 44 61q1 4 56 93zM248 210q-123 0 -151 2q-12 3 -25 3v-47q7 3 66 6h110v-236
q0 -12 -2 -26q-3 -12 -16 -26q18 -21 34 -41q15 15 36 39l83 84l74 69l-12 47q-42 -45 -86 -89l-70 -67v246q151 0 172 -2q6 0 22 -4v47q-31 -1 -64 -5h-130v148q132 0 140 -3q3 0 8 -2v46q-33 -1 -65 -5l-225 3q-6 0 -13 2v-46q54 6 84 5h30v-148z" />
  </g>

</svg>
