<?xml version="1.0" standalone="no"?>
<!DOCTYPE svg PUBLIC "-//W3C//DTD SVG 1.1//EN" "http://www.w3.org/Graphics/SVG/1.1/DTD/svg11.dtd" >
<svg xmlns="http://www.w3.org/2000/svg" xmlns:xlink="http://www.w3.org/1999/xlink" version="1.1" viewBox="-10 0 1034 1024">
  <g transform="matrix(1 0 0 -1 0 820)">
   <path fill="currentColor"
d="M385 567q27 0 62 -5v46q-7 0 -16 -3l-218 -2q7 21 17 41q7 18 16 35q18 43 23 50q6 9 26 23q-25 4 -66 20q-12 -54 -45 -131q-18 -42 -36 -76q-18 -33 -41 -67q-34 -49 -65 -72q24 -12 49 -26q18 25 39 58q24 39 65 109h190zM247 239l-144 1q-4 1 -6 1q-12 1 -23 3v-46
q3 1 49 5h124v-254q0 -39 -29 -57q3 -3 12 -18q10 -22 21 -35q18 21 38 37l87 71l51 38q13 10 28 21q-1 24 -3 56q-39 -34 -74 -63q-37 -30 -93 -71v275h106q28 0 64 -5v46q-27 -4 -64 -5h-106v153h59q28 0 63 -5v46l-59 -5q-3 1 -4 0l-207 2q-6 3 -13 3v-46q30 4 59 5h64
v-153zM469 347q28 48 52 94q24 45 48 106h314l-3 -223l-2 -289q0 -48 -3 -75q-1 -18 -6 -25q-21 -31 -136 -32q-21 0 -48 5q12 -27 21 -55q87 7 128 17q40 9 60 26q15 13 19 34t5 88l7 540q0 16 5 30q-57 -6 -77 -6h-271l31 117q15 42 39 63q-15 3 -28 5q-16 1 -29 5
q-4 1 -13 3q-19 -165 -90 -305q-34 -61 -76 -99q18 -6 53 -24zM719 173q6 6 14 12q-6 6 -61 72l-93 106q-18 -16 -36 -29q73 -76 93 -100q36 -45 62 -82l10 10q4 6 11 11v0z" />
  </g>

</svg>
