<?xml version="1.0" standalone="no"?>
<!DOCTYPE svg PUBLIC "-//W3C//DTD SVG 1.1//EN" "http://www.w3.org/Graphics/SVG/1.1/DTD/svg11.dtd" >
<svg xmlns="http://www.w3.org/2000/svg" xmlns:xlink="http://www.w3.org/1999/xlink" version="1.1" viewBox="-10 0 1034 1024">
  <g transform="matrix(1 0 0 -1 0 820)">
   <path fill="currentColor"
d="M476 572l5 -104q-3 -609 -5 -622h47q0 3 -2 9q-1 12 -3 56l1 616q0 9 6 31q0 4 6 14h-55zM498 709l61 -63q24 -27 65 -77q15 16 30 33l-84 92q-21 22 -42 42q-13 -15 -30 -27zM920 613l6 69q-66 -4 -99 -5q-138 3 -160 5v-46q54 6 85 5h130v-694q0 -27 -18 -36
q-33 -15 -78 -15q-21 0 -52 5q16 -34 25 -55q36 3 57 6q55 9 81 29q22 16 23 66v666zM205 553q219 0 225 -3q3 0 9 -2v46q-33 -1 -65 -5h-150q9 15 16 30q27 57 45 84q12 21 36 42q-39 12 -60 24q-6 -22 -29 -74q-21 -46 -46 -90q-33 -54 -61 -88q-30 -36 -72 -74
q30 -12 48 -24q12 13 23 27q24 30 48 64zM253 238l-151 3q-6 0 -13 2v-46q45 4 78 5h86v-212q0 -27 -3 -41q-3 -16 -20 -35q18 -24 33 -52l99 104l70 65l-9 57q-24 -28 -62 -68q-37 -39 -70 -69v251q66 0 139 -3q3 0 10 -2v46q-31 -1 -64 -5h-85v147q99 0 108 -3q1 0 6 -2
v46q-33 -1 -65 -5l-172 1q-31 3 -38 4v-46q54 6 84 5h39v-147z" />
  </g>

</svg>
