<?xml version="1.0" standalone="no"?>
<!DOCTYPE svg PUBLIC "-//W3C//DTD SVG 1.1//EN" "http://www.w3.org/Graphics/SVG/1.1/DTD/svg11.dtd" >
<svg xmlns="http://www.w3.org/2000/svg" xmlns:xlink="http://www.w3.org/1999/xlink" version="1.1" viewBox="-10 0 1010 1000">
   <path fill="currentColor"
d="M617 -10q85 13 113 26q0 2 -5 7q-24 26 -31 65q-9 56 -27 142q-3 12 -4 18h115q113 0 166 -11v93q-26 -6 -87 -6q-19 204 -93 339q131 119 186 163l-85 77q-48 -71 -147 -170q-79 100 -274 180q-18 -42 -81 -83q170 -23 296 -153q-62 -62 -175 -129q32 -50 76 -222
q-107 0 -139 10v-98q35 9 156 10q32 -148 40 -258zM220 -6q117 28 115 36q0 3 -7 8q-23 17 -36 44q-15 34 -32 63h59q75 0 115 -5q6 -1 8 -1v86q-27 -8 -129 -8h-85q-42 66 -61 89q7 4 69 4h54q68 0 113 -8v85q-29 -8 -117 -8v133q77 -4 125 -10v88q-51 -6 -125 -6v178
q41 -25 131 -85l18 83q-123 62 -219 141l-51 -87q1 -1 6 -4q41 -19 39 -46v-180q-91 -1 -127 8v-90q30 9 127 10v-131q-37 0 -67 6v-45q-11 16 -40 53q-14 20 -22 30q-16 -26 -51 -59l-8 -8q144 -124 198 -364zM778 324h-135q-39 140 -60 196l119 92q56 -97 76 -288z" />
</svg>
