<?xml version="1.0" standalone="no"?>
<!DOCTYPE svg PUBLIC "-//W3C//DTD SVG 1.1//EN" "http://www.w3.org/Graphics/SVG/1.1/DTD/svg11.dtd" >
<svg xmlns="http://www.w3.org/2000/svg" xmlns:xlink="http://www.w3.org/1999/xlink" version="1.1" viewBox="-10 0 1010 1000">
   <path fill="currentColor"
d="M204 -12q116 29 117 40q-2 5 -10 10q-17 10 -31 36q-5 10 -17 33q-15 27 -21 40h113q62 0 125 -8v82q-50 -6 -131 -6h-141q-38 61 -67 99q3 3 55 2h32h97q72 0 108 -6v75q-36 -6 -114 -6h-33v127h63q68 0 113 -8v76q-37 -9 -121 -8h-55v198q89 -65 152 -133q6 19 17 57
q8 24 11 35q-162 111 -229 177q-8 7 -9 7t-18 -20q-28 -33 -45 -51q0 -2 12 -12q37 -33 37 -52v-204h-41q-66 -1 -108 8v-78q52 8 100 8h49v-125q-55 0 -85 6v-53q-20 30 -50 63q-6 -30 -45 -73q124 -127 170 -336zM581 -8q128 23 121 28q2 6 -10 16q-19 15 -25 34
q-7 22 -23 66q-7 20 -11 31h147q93 0 141 -12q-16 266 -22 404q-9 257 -28 253q-40 65 -200 73q-3 -58 -44 -109q97 23 153 0q27 -7 34 -97q8 -55 19 -439h-222q-49 116 -111 219q-41 -29 -85 -38q132 -148 166 -429zM623 385q54 82 97 191l-87 37q-23 -84 -83 -198z" />
</svg>
