<?xml version="1.0" standalone="no"?>
<!DOCTYPE svg PUBLIC "-//W3C//DTD SVG 1.1//EN" "http://www.w3.org/Graphics/SVG/1.1/DTD/svg11.dtd" >
<svg xmlns="http://www.w3.org/2000/svg" xmlns:xlink="http://www.w3.org/1999/xlink" version="1.1" viewBox="-10 0 1034 1024">
  <g transform="matrix(1 0 0 -1 0 820)">
   <path fill="currentColor"
d="M362 569q30 -1 63 -5v46q-31 -1 -63 -5h-153q18 36 43 79q15 30 23 38q6 7 28 19q-3 0 -7 3q-54 27 -61 30q-16 -72 -75 -169q-63 -96 -129 -137q27 -9 52 -31q25 25 50 58q24 30 53 74h176zM227 252l-137 2q-6 3 -14 3v-46q49 4 73 5h78v-219q0 -27 -6 -42
q-6 -9 -20 -20q13 -13 18 -20q7 -9 21 -29q13 16 71 70q48 45 110 94q-6 24 -7 34q0 9 -1 17q-27 -28 -43 -42l-105 -89v246h97q27 0 63 -5v46q-31 -1 -63 -5h-97v144h64q27 0 62 -5v46q-7 0 -16 -3q-187 0 -192 -2q-18 1 -39 2q-6 3 -13 3v-46q46 4 96 5v-144zM499 576
q1 -28 5 -58l-1 -406q-1 -15 -4 -27h47q-4 49 -5 93h156v-288q0 -16 -2 -35q0 -13 -4 -26h50q-6 34 -7 56v293h163v-33q0 -36 -5 -59h48q0 6 -2 12q-3 48 -3 72l1 366q0 15 3 21q0 10 1 19q-54 -6 -65 -6h-141q0 165 3 171q3 16 11 31h-57q6 -60 6 -80v-122l-159 1
q-24 4 -39 5zM541 214v321h156v-321h-156zM734 214v321h163v-321h-163z" />
  </g>

</svg>
