<?xml version="1.0" standalone="no"?>
<!DOCTYPE svg PUBLIC "-//W3C//DTD SVG 1.1//EN" "http://www.w3.org/Graphics/SVG/1.1/DTD/svg11.dtd" >
<svg xmlns="http://www.w3.org/2000/svg" xmlns:xlink="http://www.w3.org/1999/xlink" version="1.1" viewBox="-10 0 1034 1024">
  <g transform="matrix(1 0 0 -1 0 820)">
   <path fill="currentColor"
d="M194 576h171q15 0 31 -2l32 -4v47q-3 0 -8 -1q-3 -1 -8 -3q-24 0 -47 -2h-150q9 15 16 32q16 34 29 55q18 28 44 43q-39 12 -68 24q-27 -84 -80 -174q-42 -69 -66 -99q-25 -30 -57 -50q27 -9 54 -24q39 54 80 116zM223 260l-146 2q-6 3 -13 3v-46q30 4 61 5h98v-229
q0 -19 -8 -35q-4 -10 -25 -24q15 -15 31 -38l10 -16q13 15 26 28q96 103 118 123q15 18 43 42q0 1 2 1q-9 40 -9 53q-66 -79 -150 -155v250h88q27 0 63 -5v46q-9 0 -17 -3l-134 -2v149h59q27 0 63 -5v46q-30 -4 -63 -5l-182 2q-6 3 -13 3v-46q49 4 80 5h18v-149zM892 258
q-12 6 -34 15q-6 -28 -17 -55q-7 -21 -35 -74q-49 -93 -137 -161q-139 -105 -290 -109q22 -28 33 -51l85 26q25 9 52 20q105 45 186 120q73 72 127 177q24 46 32 58q7 10 27 23q-15 6 -29 11zM516 413q6 9 10 20q33 72 37 76q6 15 28 24q4 3 11 4l-36 15q-15 6 -31 17
q-12 -45 -24 -77q-13 -34 -36 -76q-27 -52 -43 -79q-10 -18 -29 -36q25 -6 39 -13q4 -1 12 -5zM672 768q1 -30 5 -62l-1 -545q-1 -15 -4 -25h48l-4 35l-1 535q0 24 3 34q1 13 10 28h-56zM777 551q34 -40 112 -144q25 -36 54 -83q19 24 32 33l-78 107q-60 78 -85 113
q-18 -15 -35 -26v0z" />
  </g>

</svg>
