<?xml version="1.0" standalone="no"?>
<!DOCTYPE svg PUBLIC "-//W3C//DTD SVG 1.1//EN" "http://www.w3.org/Graphics/SVG/1.1/DTD/svg11.dtd" >
<svg xmlns="http://www.w3.org/2000/svg" xmlns:xlink="http://www.w3.org/1999/xlink" version="1.1" viewBox="-10 0 1034 1024">
  <g transform="matrix(1 0 0 -1 0 820)">
   <path fill="currentColor"
d="M169 517l30 44h177q27 0 62 -5v46q-43 -4 -72 -5h-146l18 36l24 41q15 30 25 41q4 6 31 21q-57 27 -66 33q-24 -85 -90 -189q-46 -70 -68 -94q-24 -24 -60 -45q21 -12 29 -16q4 0 13 -8q7 -4 10 -9q45 54 61 77q10 16 22 32zM258 233l-169 2q-6 3 -14 3v-46q3 1 49 5h134
v-210q0 -33 -8 -50q-4 -6 -19 -18q16 -18 40 -54q60 63 202 180q-3 18 -6 51q-25 -27 -64 -59q-45 -39 -107 -88v248h97q24 0 63 -5v46q-7 -1 -15 -2l-2 -1l-92 -2h-51v159h73q27 0 62 -5v46l-58 -5q-3 1 -4 0l-219 2q-6 3 -13 3v-46q3 3 45 5h76v-159zM971 701
q-19 -1 -39 -5l-443 1q-3 1 -6 1q-6 3 -13 3v-47q4 3 35 5l186 1v-383h-149l11 197q1 37 18 56q-27 0 -61 6q4 -45 5 -52l-13 -222q-1 -12 -4 -26q27 3 56 5h359q0 -33 -8 -163q-3 -55 -6 -86q-3 -22 -7 -38q-7 -24 -47 -40q-42 -12 -100 -13q-30 0 -59 5q12 -33 17 -50
q63 3 113 11q79 13 103 48q12 19 16 52q3 21 5 51l13 239q0 7 4 25q-27 -1 -53 -5h-173v173h135q28 0 62 -6v47q-43 -4 -80 -5h-117v174h177q33 0 63 -6v47z" />
  </g>

</svg>
