<?xml version="1.0" standalone="no"?>
<!DOCTYPE svg PUBLIC "-//W3C//DTD SVG 1.1//EN" "http://www.w3.org/Graphics/SVG/1.1/DTD/svg11.dtd" >
<svg xmlns="http://www.w3.org/2000/svg" xmlns:xlink="http://www.w3.org/1999/xlink" version="1.1" viewBox="-10 0 1010 1000">
   <path fill="currentColor"
d="M206 -13q69 13 92 27q0 2 -6 6q-22 15 -34 42q-9 19 -30 59l-14 28h76q95 0 148 -8v80q-29 -9 -160 -8h-97q-33 59 -58 95q27 3 95 4h52q67 0 131 -8v79q-54 -6 -141 -6v113q95 -1 143 -7v83q-51 -9 -143 -8v182q53 -28 145 -103l18 86q-160 97 -233 168l-51 -89
q41 -18 46 -44v-198q-86 0 -127 8v-83q66 7 127 7v-113q-45 0 -70 6v-67q-18 27 -40 49q-13 -40 -49 -73q133 -139 180 -307zM631 2q102 5 107 16q0 2 -4 8q-18 26 -18 70v341q0 133 12 180h-103q12 -47 12 -172v-339q-1 -81 -6 -104zM825 179q83 109 149 220l-81 46
q-62 -132 -141 -228zM498 199q87 10 97 20q0 4 -4 9q-12 15 -18 44q-3 12 -11 51q-28 137 -46 211q-35 -16 -87 -16q66 -150 69 -319zM813 439q87 36 100 49q0 2 -4 5q-17 13 -34 55q-97 272 -442 361q-27 -43 -76 -75q398 -44 456 -395z" />
</svg>
