<?xml version="1.0" standalone="no"?>
<!DOCTYPE svg PUBLIC "-//W3C//DTD SVG 1.1//EN" "http://www.w3.org/Graphics/SVG/1.1/DTD/svg11.dtd" >
<svg xmlns="http://www.w3.org/2000/svg" xmlns:xlink="http://www.w3.org/1999/xlink" version="1.1" viewBox="-10 0 1010 1000">
   <path fill="currentColor"
d="M198 -6q41 7 94 24q15 5 -9 26q-15 13 -19 20q-15 29 -42 75h88q74 0 97 -8v76q-38 -9 -95 -8h-120q-45 73 -67 103q26 4 93 4h62q82 1 119 -8v87q-35 -9 -119 -8v108h39q67 1 98 -8v83q-35 -9 -94 -8h-43v204q87 -64 137 -111q5 41 21 90q-95 56 -220 170l-49 -73
q44 -38 41 -68v-214h-39q-72 -1 -113 8v-81q32 8 113 8h39v-108q-61 -1 -105 8v-59q-4 4 -12 13q-11 12 -18 19q-10 -40 -37 -74q99 -86 160 -290zM942 56v85q-32 -9 -97 -8h-133v135h103q60 1 100 -8v84q-38 -9 -96 -8h-107v139h92q76 0 101 -6q-11 79 -12 117
q-8 190 -30 234q-27 58 -202 77q-13 -57 -56 -111q51 9 101 7q46 -1 64 -13q35 6 45 -236h-234q-69 0 -123 10q10 -72 10 -123v-129q0 -35 -4 -73q63 2 90 8q15 2 5 22q-15 31 -15 57v159h95v-342h-91q-75 -1 -110 8v-85q40 9 110 8h295q49 0 99 -8z" />
</svg>
