<?xml version="1.0" standalone="no"?>
<!DOCTYPE svg PUBLIC "-//W3C//DTD SVG 1.1//EN" "http://www.w3.org/Graphics/SVG/1.1/DTD/svg11.dtd" >
<svg xmlns="http://www.w3.org/2000/svg" xmlns:xlink="http://www.w3.org/1999/xlink" version="1.1" viewBox="-10 0 1010 1000">
   <path fill="currentColor"
d="M198 -6q59 16 86 30q18 8 -2 26q-14 13 -18 22q-23 43 -50 87h60q71 1 109 -8v82q-38 -9 -109 -8h-93l-100 133q-21 -39 -49 -62q114 -114 166 -302zM627 2q10 1 28 1q40 2 59 5q20 3 10 25q-13 30 -14 57q-1 17 -2 49q-1 34 -2 48h104q65 0 103 -6q-2 15 -3 43
q-1 14 -1 32v48v476q0 64 -29 87q-24 22 -112 28q-6 -53 -34 -99q106 20 99 -28v-184l-73 41q-37 -90 -93 -174q-30 103 -88 212q-21 -28 -67 -46v123q0 115 8 143h-91q5 -14 7 -44q0 -14 1 -35v-60v-448v-30q2 -67 -2 -85q57 5 117 6h83q0 -22 -1 -63q-1 -33 -1 -48
q0 -16 -6 -74zM833 254h-129q-4 64 -16 127q68 76 145 193v-320zM633 254h-121v348q48 -56 83 -147q28 -79 38 -201zM371 318v77q-23 -5 -48 -7q-20 -1 -65 -1v115q75 1 119 -8v84q-30 -9 -119 -8v188q57 -42 105 -97q7 49 22 83q-141 111 -185 157l-45 -69q33 -25 30 -56
v-204h-14q-67 -1 -106 6v-84q37 9 120 8v-113q-35 0 -62 4v-75q25 8 87 8h70q46 1 91 -8z" />
</svg>
