<?xml version="1.0" standalone="no"?>
<!DOCTYPE svg PUBLIC "-//W3C//DTD SVG 1.1//EN" "http://www.w3.org/Graphics/SVG/1.1/DTD/svg11.dtd" >
<svg xmlns="http://www.w3.org/2000/svg" xmlns:xlink="http://www.w3.org/1999/xlink" version="1.1" viewBox="-10 0 1010 1000">
   <path fill="currentColor"
d="M627 -15q15 1 41 2q59 1 58 7q1 2 -3 6q-15 18 -15 52v139h76q94 0 133 -8q-6 42 -6 163v141q0 121 10 152h-86q4 -36 4 -67h-131v202q0 79 6 133h-87q6 -51 6 -127v-208h-123q-3 48 2 75h-83q9 -36 9 -149v-186q0 -85 -7 -127q53 6 202 6v-123q0 -59 -6 -83zM204 -8
q96 28 102 36q2 3 -5 7q-17 11 -29 31q-8 13 -31 48t-25 39h84q66 0 107 -8v76q-37 -8 -109 -8h-111q-38 59 -64 93q16 8 81 8h76q68 -1 107 -10v75q-36 -6 -133 -6v117h46q59 -1 95 -7v73q-24 -6 -97 -6h-44v194q2 -2 7 -6q66 -51 120 -99q4 44 24 84q-166 104 -217 164
q-1 -1 -3 -5q-21 -39 -50 -68q2 -2 7 -6q40 -32 41 -54v-202q-90 -1 -125 8v-77q29 6 125 7v-117q-45 0 -72 6v-57q-9 13 -32 39q-7 8 -10 12q-21 -48 -43 -73q126 -127 178 -308zM633 256h-123v252h123v-252zM708 256v252h131v-252h-131z" />
</svg>
