<?xml version="1.0" standalone="no"?>
<!DOCTYPE svg PUBLIC "-//W3C//DTD SVG 1.1//EN" "http://www.w3.org/Graphics/SVG/1.1/DTD/svg11.dtd" >
<svg xmlns="http://www.w3.org/2000/svg" xmlns:xlink="http://www.w3.org/1999/xlink" version="1.1" viewBox="-10 0 1034 1024">
  <g transform="matrix(1 0 0 -1 0 820)">
   <path fill="currentColor"
d="M360 538q30 0 63 -6v47q-63 -6 -89 -6h-106q4 10 11 22q3 3 4 7q0 1 53 97q9 18 21 27q6 6 17 11q-36 12 -64 23q-24 -84 -87 -188q-60 -99 -126 -145q36 -21 46 -29q15 18 35 44q25 33 70 96h152zM242 225l-163 4q-4 1 -7 1v-47q60 6 74 6h96v-231q0 -39 -23 -55
q19 -18 44 -49q57 57 84 81q7 7 19 16l72 60q-1 24 -2 52q-25 -27 -55 -52q-36 -30 -101 -81v259h97q39 0 62 -6v47q-43 -4 -75 -5h-84v153h67q28 0 64 -5v46q-9 0 -17 -3l-185 -2l-67 2q-6 3 -13 3v-46h2l29 4l82 1v-153zM487 -87q0 -42 -5 -59h48q-6 25 -6 49v601h168
q0 -31 -2 -46q0 -138 -43 -238q-45 -96 -106 -134q7 -4 17 -10q15 -7 27 -15q19 24 36 46q15 21 30 45q30 49 63 147q34 -43 77 -113q43 -72 55 -105q0 3 13 11q6 6 13 9l12 9l-70 110l-91 134q3 43 5 74l1 76h177v-551q0 -27 -8 -38q-7 -10 -39 -16q-24 -3 -44 -3
q-13 0 -40 4q13 -30 17 -42q0 -1 1 -6q64 4 107 16q43 15 44 66l1 571l4 40q-55 -4 -75 -5h-144l1 161q0 13 4 26t15 30q-12 1 -23 1q-19 0 -43 5q6 -36 9 -223q-157 0 -180 2q-6 3 -31 3l5 -96v-536z" />
  </g>

</svg>
