<?xml version="1.0" standalone="no"?>
<!DOCTYPE svg PUBLIC "-//W3C//DTD SVG 1.1//EN" "http://www.w3.org/Graphics/SVG/1.1/DTD/svg11.dtd" >
<svg xmlns="http://www.w3.org/2000/svg" xmlns:xlink="http://www.w3.org/1999/xlink" version="1.1" viewBox="-10 0 1034 1024">
  <g transform="matrix(1 0 0 -1 0 820)">
   <path fill="currentColor"
d="M850 307l-4 -103l-5 -113l-8 -103q-6 -45 -19 -61q-18 -21 -69 -22q-21 0 -67 8q12 -18 22 -54q78 4 104 12q25 7 45 32q13 19 18 34q3 15 6 57l10 144l4 107l6 103q-31 -1 -64 -5h-196l3 170l312 -3q4 0 10 -2v46q-33 -1 -66 -5l-417 1l-26 2l-13 2v-46q49 6 109 5h50
l1 -79q0 -88 -8 -167q-10 -97 -51 -187q-48 -99 -120 -161q-31 -25 -76 -45q27 -13 38 -22q6 -6 15 -13q70 63 110 109q36 45 64 100q52 114 64 259h218zM747 643l-32 35q-88 94 -94 99q-12 -9 -21 -18q-1 -1 -12 -10q0 -1 4 -4q3 -4 8 -9q39 -34 73 -74l30 -35l28 -38
q21 19 29 26q1 1 8 6q-10 12 -21 22zM341 556q49 0 59 -3q1 0 6 -2v46q-33 -1 -65 -5h-129l44 90q13 27 36 43q-10 4 -21 9q-4 1 -8 3q-7 4 -15 7q-6 3 -10 6q-1 0 -5 4q-18 -67 -65 -160q-30 -57 -57 -92q-22 -28 -58 -58q36 -10 57 -21l34 51l49 82h148zM225 235l-113 1
q-31 3 -39 4v-47q7 3 66 6h86v-213q0 -7 -4 -23q-1 -10 -4 -17q-3 -6 -8 -12l39 -41q36 46 54 65q30 33 54 62q13 12 33 33l-20 44q-39 -54 -106 -123v225q66 0 138 -3q4 0 11 -3v47q-33 -1 -65 -5h-84v147q108 0 114 -3q3 0 8 -2v46q-33 -1 -66 -5q-142 0 -171 2
q-12 3 -24 3v-46q49 4 84 5h17v-147z" />
  </g>

</svg>
