<?xml version="1.0" standalone="no"?>
<!DOCTYPE svg PUBLIC "-//W3C//DTD SVG 1.1//EN" "http://www.w3.org/Graphics/SVG/1.1/DTD/svg11.dtd" >
<svg xmlns="http://www.w3.org/2000/svg" xmlns:xlink="http://www.w3.org/1999/xlink" version="1.1" viewBox="-10 0 1010 1000">
   <path fill="currentColor"
d="M224 -6q43 13 89 38q20 11 1 25q-16 12 -22 23q-7 12 -21 38q-13 25 -21 39h81q68 1 107 -8v80q-30 -9 -107 -8h-113l-53 81q50 8 111 8q62 0 90 -1q32 -2 53 -7v83q-22 -5 -54 -6q-16 -1 -36 -2h-51v123q91 1 137 -10v78q-33 -7 -111 -6h-26v180q22 -18 97 -87
q0 33 24 83q-59 39 -170 138q-13 11 -19 17l-55 -77q58 -29 53 -64v-190q-92 0 -129 8v-78q39 9 129 8v-123q-30 0 -65 12v-55l-52 75q-23 -36 -59 -55q121 -126 192 -360zM605 -4q66 12 89 18q22 6 5 26q-13 16 -18 28q-3 7 -11 28q-9 25 -13 35h123q67 1 93 -8
q-8 63 -8 76q-13 190 -40 192q-46 37 -146 44q-4 -60 -32 -99q63 25 103 2q18 -12 25 -42q6 -22 9 -101h-213v292h244q52 0 91 -5q6 -1 9 -1q-1 38 -4 102q-5 216 -20 239q-21 78 -193 79q-4 -53 -35 -103q126 25 147 -14q16 -33 19 -232h-228q-91 3 -111 6q7 -47 8 -123
v-191q-1 -90 -8 -119q48 5 97 6q14 -59 18 -135zM768 643v84q-27 -9 -91 -8h-149q-66 -1 -105 8v-84q32 8 103 8h149q51 1 93 -8z" />
</svg>
