<?xml version="1.0" standalone="no"?>
<!DOCTYPE svg PUBLIC "-//W3C//DTD SVG 1.1//EN" "http://www.w3.org/Graphics/SVG/1.1/DTD/svg11.dtd" >
<svg xmlns="http://www.w3.org/2000/svg" xmlns:xlink="http://www.w3.org/1999/xlink" version="1.1" viewBox="-10 0 1034 1024">
  <g transform="matrix(1 0 0 -1 0 820)">
   <path fill="currentColor"
d="M371 569q27 0 62 -5v46q-66 -4 -100 -5h-103q9 22 19 36q27 51 37 63q12 15 31 21q-4 1 -8 3q-33 16 -59 27q-36 -112 -117 -230q-48 -67 -95 -96l9 -4l43 -24q33 40 57 74l64 94h160zM255 233l-152 2q-6 3 -13 3v-46q3 3 45 5h120v-226q0 -24 -7 -38q-7 -9 -23 -19
q24 -33 36 -57q18 21 32 33l86 78q25 21 51 41q9 9 19 17q-6 25 -9 47q-76 -69 -147 -124v248h80q27 0 62 -5v46q-43 -4 -78 -5h-64v161h55q27 0 63 -5v46l-39 -4l-236 1q-6 3 -13 3v-46q46 4 93 5h39v-161zM468 411q6 -3 12 -7q21 31 34 55l30 50q13 18 24 41h324l-3 -288
l-5 -246q-1 -15 -8 -49q-6 -16 -21 -29q-21 -15 -71 -21q-22 -3 -39 -3q-24 0 -55 7q15 -33 23 -59q64 6 107 17q69 15 90 59q7 16 11 46q3 36 3 104q3 409 6 444q1 36 5 60l-60 -6h-290q21 45 34 78l21 43q10 21 33 35q-31 7 -65 21q-12 -57 -46 -135q-33 -75 -72 -133
q-36 -48 -61 -67q18 -7 39 -17zM822 143l-38 76q-33 55 -55 99q-9 -3 -14 -5q-18 -6 -29 -11q27 -39 44 -69q15 -25 31 -62l-226 -28l109 213q21 42 47 63q-25 7 -60 23q-27 -88 -85 -197q-30 -60 -44 -77q-12 -15 -37 -25q9 -18 21 -54q36 10 63 15q49 10 130 22
q36 3 97 12q9 -21 18 -47q22 15 42 24q-7 15 -14 28v0z" />
  </g>

</svg>
