<?xml version="1.0" standalone="no"?>
<!DOCTYPE svg PUBLIC "-//W3C//DTD SVG 1.1//EN" "http://www.w3.org/Graphics/SVG/1.1/DTD/svg11.dtd" >
<svg xmlns="http://www.w3.org/2000/svg" xmlns:xlink="http://www.w3.org/1999/xlink" version="1.1" viewBox="-10 0 1010 1000">
   <path fill="currentColor"
d="M218 -12q109 39 103 44q1 3 -4 5q-17 8 -33 35l-39 65q-8 14 -13 22h101q86 0 133 -6v78q-41 -9 -137 -8h-129q-46 69 -113 148q-9 -32 -35 -75q-3 -4 -4 -6q127 -128 170 -302zM575 -12q4 1 11 2q100 21 99 30q1 5 -8 12q-19 16 -26 40q-3 11 -11 39q-12 42 -19 64h171
q103 0 150 -10q-37 119 -79 232q-23 -13 -87 -18q33 -68 61 -137h-236q-43 112 -85 181q-49 -28 -85 -38q122 -154 144 -397zM619 296q8 0 22 1q90 1 87 11q1 5 -4 11q-19 20 -20 74q6 319 270 423q-67 27 -103 77q-168 -122 -202 -327q-46 192 -238 341q-35 -38 -88 -65
q167 -90 224 -208q59 -110 52 -338zM226 310h84q53 0 109 -8v79q-30 -6 -109 -6h-34v106h55q58 0 119 -8v87q-35 -8 -123 -8h-51v188q66 -47 145 -119q-3 34 10 96q-172 121 -210 158q-20 17 -21 16t-7 -13q-17 -42 -36 -66l6 -5q37 -28 37 -47v-208h-25q-87 0 -115 6v-85
q33 8 109 8h31v-106l-55 2v-67h81z" />
</svg>
