<?xml version="1.0" standalone="no"?>
<!DOCTYPE svg PUBLIC "-//W3C//DTD SVG 1.1//EN" "http://www.w3.org/Graphics/SVG/1.1/DTD/svg11.dtd" >
<svg xmlns="http://www.w3.org/2000/svg" xmlns:xlink="http://www.w3.org/1999/xlink" version="1.1" viewBox="-10 0 1034 1024">
  <g transform="matrix(1 0 0 -1 0 820)">
   <path fill="currentColor"
d="M350 565q12 0 62 -5l2 -1v47q-9 -3 -23 -3q-19 0 -41 -2h-139q12 22 26 45q27 51 38 65q9 10 32 22q-34 16 -57 32q-15 -42 -32 -76q-21 -42 -57 -98q-42 -67 -69 -99q-25 -27 -54 -42q30 -13 50 -31q45 61 101 146h161zM234 390v-141h-89q-42 0 -66 5v-46l63 5h92v-268
q0 -22 -9 -37q-7 -7 -15 -13l36 -45q15 30 35 52q108 115 112 118q7 9 21 16q-12 27 -16 54q-9 -13 -17 -24q-9 -12 -31 -35q-16 -21 -33 -38q-16 -18 -46 -44v264q132 0 147 -3q3 0 9 -2v46q-6 0 -12 -3q-12 0 -52 -2h-92v141q108 0 123 -3q6 0 8 -2v46q-1 0 -60 -5l-189 1
q-18 1 -27 4v-46q49 6 105 5h3zM861 407q-27 -114 -67 -201q-27 -60 -50 -91q-33 51 -56 88q-18 34 -38 80q-12 31 -13 56v10q-24 -12 -53 -19q16 -30 52 -105q15 -33 37 -69q18 -31 47 -76q-72 -81 -135 -126q-72 -46 -123 -58q18 -12 25 -19q3 -1 23 -22q12 7 77 53
q39 28 74 58q36 33 85 84q58 -70 141 -138l56 -45q15 25 51 48q-45 10 -94 45q-67 48 -132 123q48 64 88 178q16 46 29 86q12 39 28 101q-31 -1 -63 -5h-325l-3 202q144 12 306 47q42 9 71 10q9 0 33 -3q-21 30 -35 60q-18 -12 -59 -25q-73 -18 -176 -35q-27 -3 -76 -8
q-46 -3 -72 -5q-9 0 -37 3q3 -46 5 -72l5 -241q0 -97 -10 -188q-9 -84 -30 -142q-27 -76 -65 -120q-18 -21 -45 -35q30 -12 58 -31q37 57 62 104q19 42 37 94q15 54 23 126q3 40 6 93q3 57 3 130h335z" />
  </g>

</svg>
