<?xml version="1.0" standalone="no"?>
<!DOCTYPE svg PUBLIC "-//W3C//DTD SVG 1.1//EN" "http://www.w3.org/Graphics/SVG/1.1/DTD/svg11.dtd" >
<svg xmlns="http://www.w3.org/2000/svg" xmlns:xlink="http://www.w3.org/1999/xlink" version="1.1" viewBox="-10 0 1034 1024">
  <g transform="matrix(1 0 0 -1 0 820)">
   <path fill="currentColor"
d="M686 765q-40 6 -60 15q-4 -39 -18 -81q-33 -102 -57 -146q-72 -138 -180 -206q28 -15 47 -29q87 84 143 173q52 87 88 202q36 -66 63 -109q21 -36 60 -82q78 -97 166 -165q15 15 21 17q10 10 31 20q-81 33 -162 125q-105 117 -158 245q7 10 16 21zM516 238l-50 2
q-7 1 -15 3v-46q-3 0 9 1q72 3 76 4h286q-22 -61 -98 -188q-37 -60 -68 -100q-28 -34 -51 -55q28 -6 52 -22q25 34 57 83l72 117q51 90 108 206q-72 -4 -110 -5h-268zM728 326q-18 27 -33 44l-64 78q-13 -12 -35 -27q1 -3 66 -80q3 -3 45 -68q18 18 40 29q-10 12 -19 24z
M100 429q27 42 55 82q16 24 37 60q210 0 219 -3q3 0 7 -2v46q-12 -1 -14 -2l-99 -3h-94q9 21 19 42l26 54q13 28 36 46q-39 12 -60 25q-16 -61 -36 -102q-43 -96 -82 -148q-43 -60 -77 -85q25 -9 52 -27q4 9 11 17zM225 248l-134 3q-6 0 -14 2v-46q30 4 76 5h72v-241
q0 -27 -3 -41q-3 -18 -17 -31q15 -25 32 -50q30 31 41 39q3 6 130 102q9 7 18 13l-6 56q-72 -66 -157 -128v281q66 0 135 -3q4 0 10 -2v46q-33 -1 -65 -5h-80v152q108 0 118 -3q1 0 6 -2v46q-33 -1 -66 -5l-165 1l-24 2l-15 2v-46q49 6 108 5v-152z" />
  </g>

</svg>
