<?xml version="1.0" standalone="no"?>
<!DOCTYPE svg PUBLIC "-//W3C//DTD SVG 1.1//EN" "http://www.w3.org/Graphics/SVG/1.1/DTD/svg11.dtd" >
<svg xmlns="http://www.w3.org/2000/svg" xmlns:xlink="http://www.w3.org/1999/xlink" version="1.1" viewBox="-10 0 1010 1000">
   <path fill="currentColor"
d="M218 -10q17 5 47 14q68 21 64 26q-1 4 -8 8q-17 9 -29 28q-5 7 -14 22q-29 48 -40 63h81q58 0 119 -8v78q-38 -10 -119 -10h-115q-25 46 -61 93q9 4 69 4h68q73 0 109 -6v77q-42 -9 -109 -8v116h30q69 0 111 -6v77q-45 -8 -111 -8h-30v196q60 -30 115 -83q19 56 38 79
q-199 125 -213 154q-9 9 -12 11q-2 -1 -10 -15q-26 -48 -47 -62q-1 -1 9 -8q47 -38 48 -60v-212h-49q-54 -1 -103 8v-81q45 10 111 10h41v-116q-53 0 -77 6v-53q-21 27 -48 59q-22 -47 -51 -67q120 -106 186 -326zM573 298q8 3 23 7q87 27 83 35q1 3 -8 6q-27 9 -36 35
q-38 105 -105 232l164 -29q-4 -11 -14 -36q-18 -55 -31 -77l75 -26q38 93 80 234l-84 26q-2 -15 -9 -42q-3 -16 -5 -24q-184 29 -234 58q-4 2 -6 2q-2 -2 -8 -17q-13 -37 -29 -65q47 -10 81 -97q48 -104 63 -222zM393 330q113 -90 161 -340q119 26 113 36q1 5 -10 10
q-24 12 -32 32q-7 16 -20 47q-14 35 -20 46h179q98 0 171 -8q-30 408 -29 527q-1 119 -15 144q-23 71 -197 81q-1 -45 -45 -109q57 13 106 10q45 -4 58 -24q13 -3 17 -172q4 -120 19 -381h-293q-44 84 -86 144q-10 -5 -39 -21q-23 -14 -38 -22z" />
</svg>
