<?xml version="1.0" standalone="no"?>
<!DOCTYPE svg PUBLIC "-//W3C//DTD SVG 1.1//EN" "http://www.w3.org/Graphics/SVG/1.1/DTD/svg11.dtd" >
<svg xmlns="http://www.w3.org/2000/svg" xmlns:xlink="http://www.w3.org/1999/xlink" version="1.1" viewBox="-10 0 1010 1000">
   <path fill="currentColor"
d="M198 -4q109 34 102 42q0 3 -9 10q-42 32 -83 101h78q32 0 75 -6q14 -1 20 -2v80q-8 0 -36 -3q-41 -5 -59 -5h-111q-43 54 -104 143l-41 -76q122 -124 168 -284zM518 72h276q61 0 115 -6h4q-6 39 -6 111v601q2 66 -23 86q-24 24 -112 37q-12 -58 -40 -90q-7 -8 -6 -11
q117 22 105 -44v-617h-345v607q0 84 8 143h-91q8 -67 8 -147v-565q0 -79 -6 -111h3q46 6 110 6zM490 651q70 -64 135 -184q-36 -84 -129 -207l75 -22q36 60 84 155q43 -103 47 -188q100 28 98 35q1 4 -7 10q-17 16 -27 40q-4 10 -14 39q-32 92 -58 138q69 110 118 212
l-86 34q-9 -55 -63 -173q-31 59 -109 179q-30 -60 -64 -68zM171 320h107q46 0 83 -8v73q-4 0 -13 -1q-39 -5 -70 -5h-38v111h54q29 -1 89 -7v79q-54 -9 -85 -8h-58v192q36 -38 95 -113l44 72q-152 149 -189 192l-51 -71q25 -14 28 -48v-222h-24q-39 0 -76 8v-79l24 3
q38 4 56 4h20v-113q-21 0 -60 6v-69q34 3 64 4z" />
</svg>
