<?xml version="1.0" standalone="no"?>
<!DOCTYPE svg PUBLIC "-//W3C//DTD SVG 1.1//EN" "http://www.w3.org/Graphics/SVG/1.1/DTD/svg11.dtd" >
<svg xmlns="http://www.w3.org/2000/svg" xmlns:xlink="http://www.w3.org/1999/xlink" version="1.1" viewBox="-10 0 1010 1000">
   <path fill="currentColor"
d="M202 -8q100 28 108 38q0 3 -9 13q-19 20 -31 41q-17 30 -32 65h68q63 0 119 -8v88q-2 0 -11 -1q-46 -7 -114 -7h-100q-44 73 -59 97q1 3 44 2h25h64q88 0 135 -8v87q-60 -12 -143 -8v119h53q73 0 118 -6v88q-1 0 -6 -1q-40 -9 -106 -9h-59v170q52 -35 131 -103l26 82
q-191 135 -199 160l-12 12l-63 -69l3 -3q38 -31 38 -51v-196q-95 -1 -142 8v-92q29 9 142 10v-117q-65 -3 -83 4v-30q-4 5 -12 18q-11 18 -18 28q-18 -49 -45 -85q109 -115 170 -336zM458 92q65 8 149 8h149q89 -1 137 -10v95q-23 -10 -123 -10h-70v234h64q71 0 105 -8v87
q-18 -7 -101 -7h-68v309h86q105 0 158 -10v95q-43 -8 -150 -8h-229q-130 0 -174 8v-91q73 8 174 8h52v-311q-101 0 -147 9v-89q51 8 147 8v-234q-112 0 -159 8v-91zM813 544q44 43 96 149l-88 34q-33 -95 -83 -149z" />
</svg>
