<?xml version="1.0" standalone="no"?>
<!DOCTYPE svg PUBLIC "-//W3C//DTD SVG 1.1//EN" "http://www.w3.org/Graphics/SVG/1.1/DTD/svg11.dtd" >
<svg xmlns="http://www.w3.org/2000/svg" xmlns:xlink="http://www.w3.org/1999/xlink" version="1.1" viewBox="-10 0 1034 1024">
  <g transform="matrix(1 0 0 -1 0 820)">
   <path fill="currentColor"
d="M359 575q1 0 63 -6v47l-17 -4l-187 -2q24 51 29 60l16 32l3 5q13 22 42 39q-30 6 -70 20q-37 -132 -126 -255q-19 -27 -35 -44q-16 -15 -36 -28q24 -12 50 -30q51 73 70 104l38 62h160zM725 530v177q0 6 2 24q1 18 12 38h-57q1 -30 5 -62v-177l-240 4q-6 1 -9 2v-47
q10 0 19 4q21 0 41 2h189v-227l-152 1q-12 3 -35 4q1 -27 5 -55l-1 -359q-1 -16 -4 -30h50q0 7 -2 13l-4 82h331v-36q0 -36 -4 -55q-1 -1 -1 -5h51q-4 52 -5 60l1 344q0 16 4 41q-55 -4 -82 -5h-114v227h183q30 0 63 -6v47q-7 0 -16 -4q-13 -1 -47 -2h-183zM545 -40v272h330
v-272h-330zM238 253l-158 4q-3 0 -7 2v-47h2q1 1 44 5h119v-247q0 -42 -25 -61q21 -27 39 -55q42 51 176 166q-3 25 -8 53q-42 -42 -70 -68q-27 -25 -74 -65v277h85q27 0 64 -5v47q-48 -6 -81 -6h-68v146h53q27 0 62 -5v46l-58 -5q-3 1 -4 0l-190 2q-6 3 -13 3v-46h2l29 4
l81 1v-146z" />
  </g>

</svg>
