<?xml version="1.0" standalone="no"?>
<!DOCTYPE svg PUBLIC "-//W3C//DTD SVG 1.1//EN" "http://www.w3.org/Graphics/SVG/1.1/DTD/svg11.dtd" >
<svg xmlns="http://www.w3.org/2000/svg" xmlns:xlink="http://www.w3.org/1999/xlink" version="1.1" viewBox="-10 0 1010 1000">
   <path fill="currentColor"
d="M427 74q38 6 160 6h101q125 0 185 -8q-4 1 -5 26q-1 13 -1 34v63v206q0 127 12 163h-95q7 -30 8 -70h-280v258q0 38 20 50q16 11 81 10h139q57 1 79 -28q22 -26 26 -105q58 49 89 58q-31 158 -154 152h-201q-95 1 -125 -28q-31 -24 -29 -111v-490q0 -150 -10 -186zM196 8
q34 6 100 34q0 2 -8 9q-20 16 -30 35q-18 36 -36 65h52q92 0 127 -10v80q-36 -6 -127 -6h-84q-10 14 -30 43q-29 42 -41 58q22 4 89 4h36q103 -1 133 -10v79q-27 -6 -127 -6v113q93 -3 135 -8v80q-42 -9 -135 -8v171q47 -26 127 -94l18 84q-152 105 -203 158q-6 7 -9 8
l-54 -75q1 -1 4 -3q42 -28 42 -57v-192q-70 0 -125 8v-80q58 8 125 8v-111q-48 -1 -72 8v-57q-7 8 -20 23q-22 25 -29 36q-5 -21 -25 -67q-5 -10 -7 -16q134 -127 174 -304zM688 147v280h104v-280h-104zM512 147v280h101v-280h-101z" />
</svg>
