<?xml version="1.0" standalone="no"?>
<!DOCTYPE svg PUBLIC "-//W3C//DTD SVG 1.1//EN" "http://www.w3.org/Graphics/SVG/1.1/DTD/svg11.dtd" >
<svg xmlns="http://www.w3.org/2000/svg" xmlns:xlink="http://www.w3.org/1999/xlink" version="1.1" viewBox="-10 0 1034 1024">
  <g transform="matrix(1 0 0 -1 0 820)">
   <path fill="currentColor"
d="M516 -60l-103 3q-6 1 -19 2v-46q3 1 8 1l58 4q504 0 515 -3q1 0 6 -2v46q-33 -1 -65 -5h-178v373q78 0 162 -3q4 0 11 -2v46q-33 -1 -66 -5h-107v286l193 -3q3 0 10 -3v47q-31 -1 -64 -5q-399 3 -412 5v-47q3 1 7 2q6 3 35 3l193 1v-695h-146v373q0 12 2 30q1 16 11 35
h-56q1 -31 5 -65v-373zM164 482q16 30 35 60q214 0 224 -3q1 0 6 -2v46q-33 -1 -66 -5h-143l47 101q13 31 39 50q-39 12 -45 14l-14 7q-9 -36 -23 -68q-16 -36 -50 -99q-58 -115 -125 -180q25 -7 50 -21q3 7 63 97q0 3 2 3zM238 234l-138 3q-6 0 -13 2v-46q45 4 76 5h75
v-206q0 -24 -3 -40q-3 -18 -17 -31q13 -24 33 -51q27 33 63 69q6 3 65 63l47 42q-12 22 -22 45q-31 -37 -58 -63q-25 -25 -70 -64v236q69 0 144 -3q4 0 10 -2v46q-33 -1 -66 -5h-88v143q108 0 114 -3q3 0 8 -2v46l-40 -4h-184q-31 3 -38 4v-46q49 4 84 5h18v-143z" />
  </g>

</svg>
