<?xml version="1.0" standalone="no"?>
<!DOCTYPE svg PUBLIC "-//W3C//DTD SVG 1.1//EN" "http://www.w3.org/Graphics/SVG/1.1/DTD/svg11.dtd" >
<svg xmlns="http://www.w3.org/2000/svg" xmlns:xlink="http://www.w3.org/1999/xlink" version="1.1" viewBox="-10 0 1034 1024">
  <g transform="matrix(1 0 0 -1 0 820)">
   <path fill="currentColor"
d="M50 459q3 -1 4 -3q21 -10 34 -20l1 -1q1 3 35 48q19 33 33 49q7 12 19 24l179 -1q21 0 43 -5v47q-15 -1 -31 -5h-171q3 6 9 16q7 12 23 41q10 25 23 49q15 30 41 39q-33 15 -57 32q-16 -64 -69 -157q-42 -67 -70 -100q-24 -27 -61 -45q7 -3 15 -8zM228 241l-112 1
q-18 3 -21 3q-1 1 -6 2v-47q3 3 17 4l107 2h15v-244q0 -12 -5 -26q-4 -9 -20 -21l41 -43l55 62q18 16 40 38l61 56q-6 34 -7 45q0 7 -3 18q-45 -60 -61 -75l-63 -62v252l91 -1q19 0 40 -5v47q-15 -3 -27 -4l-104 -2v141q79 0 86 -3q3 0 8 -2v46q-33 -1 -65 -5l-137 1
q-24 3 -27 4v-46q3 0 5 1q3 1 6 1q6 3 68 3h18v-141zM602 309q-6 7 -12 13q6 -6 -21 23l-94 100q-6 7 -14 15q-21 -21 -32 -31q90 -84 143 -157l35 30q-3 4 -5 7zM428 151q3 -25 8 -51q34 13 84 21l254 40q-3 -300 -5 -318h48q-4 45 -5 69v256q69 12 119 18h37q-4 28 -7 55
q-12 -9 -23 -12q-27 -7 -49 -12q-39 -6 -77 -13l1 520q0 9 7 37q1 6 6 13h-57q1 -36 5 -72v-506l-267 -41q-37 -4 -56 -5q-12 1 -23 1zM565 684l-21 24q-12 -15 -32 -29q21 -21 86 -93q3 -3 60 -77q15 15 35 32z" />
  </g>

</svg>
