<?xml version="1.0" standalone="no"?>
<!DOCTYPE svg PUBLIC "-//W3C//DTD SVG 1.1//EN" "http://www.w3.org/Graphics/SVG/1.1/DTD/svg11.dtd" >
<svg xmlns="http://www.w3.org/2000/svg" xmlns:xlink="http://www.w3.org/1999/xlink" version="1.1" viewBox="-10 0 1010 1000">
   <path fill="currentColor"
d="M206 -4q109 30 107 42q1 3 -6 7q-18 11 -33 33q-18 29 -48 75h70q82 0 127 -6v78q-48 -8 -129 -8h-102q-14 25 -51 77q-12 17 -14 20q23 6 99 6h30q92 -1 143 -10v83q-48 -8 -139 -8v113q113 0 149 -6v82q-65 -8 -149 -8v169q91 -56 141 -98q3 55 20 86
q-196 105 -242 176q-1 -2 -4 -12q-18 -65 -38 -85q1 -1 10 -6q41 -24 41 -50v-178q-80 0 -136 6v-80q55 8 136 8v-119q-40 0 -73 8v-59q-17 25 -46 59q-19 -44 -51 -73q124 -118 188 -322zM911 68q-6 38 -6 155v488q0 134 10 168h-96q6 -53 6 -101h-279q0 59 8 111h-98
q10 -46 10 -147v-426q0 -114 -10 -250q36 12 185 12h77q124 0 184 -9q7 -1 9 -1zM546 137v155h279v-155h-279zM546 350v146h279v-146h-279zM546 556v161h279v-161h-279z" />
</svg>
