<?xml version="1.0" standalone="no"?>
<!DOCTYPE svg PUBLIC "-//W3C//DTD SVG 1.1//EN" "http://www.w3.org/Graphics/SVG/1.1/DTD/svg11.dtd" >
<svg xmlns="http://www.w3.org/2000/svg" xmlns:xlink="http://www.w3.org/1999/xlink" version="1.1" viewBox="-10 0 1010 1000">
   <path fill="currentColor"
d="M216 -13q98 26 92 37q0 3 -9 10q-18 13 -27 28q-29 49 -48 91q117 0 153 -6v76q-8 -3 -48 -3q-18 -1 -49 -1h-90q-20 40 -49 81q19 6 79 6h46q54 0 113 -8v77q-28 -6 -115 -6v102q86 -4 101 -8v47q91 -103 163 -285q-76 0 -125 6v-78q38 6 143 6q19 -65 29 -163
q109 12 106 24q-1 6 -11 14q-14 10 -17 20q-3 11 -9 30q-14 51 -23 75h135q122 0 179 -8v80q-35 -6 -177 -6h-155q-12 31 -47 110q-19 41 -26 58h103v-69q0 -39 -4 -60q10 1 32 3q62 4 61 9q1 4 -8 17q-14 21 -14 31v67h66q90 0 125 -6q-2 20 -3 46q-1 13 -1 29v42v225
q2 47 -17 59q-12 14 -92 32q-6 -44 -34 -83q21 2 44 2q21 -1 25 -4t4 -42v-234h-115v266q0 135 8 184h-83q6 -37 6 -182v-268h-97v188q0 155 6 181h-82q4 -19 5 -51q1 -15 1 -38v-66v-161q-42 69 -75 105q-39 -36 -89 -43q25 -20 39 -34q-20 -4 -77 -4v218q52 -35 100 -86
l13 -13q15 52 38 78q-102 63 -201 168q-21 -41 -55 -73q33 -29 37 -54v-238q-97 0 -131 6v-73q52 4 131 4v-102q-46 -1 -67 6v-55q-38 58 -62 83q-12 -39 -47 -81q126 -124 196 -335z" />
</svg>
