<?xml version="1.0" standalone="no"?>
<!DOCTYPE svg PUBLIC "-//W3C//DTD SVG 1.1//EN" "http://www.w3.org/Graphics/SVG/1.1/DTD/svg11.dtd" >
<svg xmlns="http://www.w3.org/2000/svg" xmlns:xlink="http://www.w3.org/1999/xlink" version="1.1" viewBox="-10 0 1010 1000">
   <path fill="currentColor"
d="M202 8q105 23 104 34q-2 4 -11 11q-19 14 -29 31q-5 9 -17 28q-15 26 -25 43h62q97 0 133 -6v82q-42 -9 -139 -8h-92q-11 17 -44 61q-22 28 -27 36q5 6 91 6h60q93 0 135 -6v79q-48 -6 -129 -6v113q94 3 139 -8v84q-54 -12 -139 -8v159q40 -22 123 -92l20 84
q-111 68 -219 162l-47 -79q1 -1 5 -3q42 -19 42 -49v-180q-106 0 -146 10v-88q32 8 146 8v-113q-65 -3 -95 6v-59q-18 23 -53 59q-6 -45 -24 -87q126 -127 176 -304zM478 60q54 10 177 10h61q99 0 159 -6q-10 40 -10 186v179q0 170 8 202q-2 0 -7 -1q-53 -7 -170 -7h-57
q-139 0 -163 10q8 -66 8 -198v-216q0 -108 -6 -159zM560 141v167h230v-167h-230zM560 379v173h228v-173h-228zM393 756q73 8 184 8h205q106 0 174 -8v94q-42 -10 -174 -10h-199q-139 0 -190 10v-94z" />
</svg>
