<?xml version="1.0" standalone="no"?>
<!DOCTYPE svg PUBLIC "-//W3C//DTD SVG 1.1//EN" "http://www.w3.org/Graphics/SVG/1.1/DTD/svg11.dtd" >
<svg xmlns="http://www.w3.org/2000/svg" xmlns:xlink="http://www.w3.org/1999/xlink" version="1.1" viewBox="-10 0 1010 1000">
   <path fill="currentColor"
d="M194 -15q99 27 104 45q-1 4 -14 14q-18 14 -24 24q-18 30 -46 79h86q111 -2 154 -6v82q-7 0 -29 -2q-105 -6 -123 -6h-123q-57 77 -72 95q65 7 107 8h86q77 -1 123 -6v81q-57 -6 -125 -8h-24v115h24q75 -1 131 -6v82q-70 -7 -135 -8h-20v184q2 -2 8 -5q76 -51 123 -96
l24 89q-108 69 -206 150q-13 10 -19 15l-47 -83q30 -19 41 -52v-202h-27q-87 0 -125 4v-80q68 7 125 8h27v-115h-10q-33 0 -93 4v-63l-45 53l-24 -97q125 -114 168 -297zM548 514v228h258v-228h-258zM593 -13q113 -3 121 9q2 3 -9 16q-19 23 -20 38v123h180q54 -1 79 -8v87
q-28 -6 -77 -8h-182v201h115q66 -1 97 -8q-8 33 -8 89v284q1 60 8 99h-101q8 -37 8 -99h-256q0 55 8 97h-100q9 -30 8 -97v-284q0 -52 -8 -87q34 8 90 8h57v-335q0 -53 -2 -78q-2 -26 -8 -47z" />
</svg>
