<?xml version="1.0" standalone="no"?>
<!DOCTYPE svg PUBLIC "-//W3C//DTD SVG 1.1//EN" "http://www.w3.org/Graphics/SVG/1.1/DTD/svg11.dtd" >
<svg xmlns="http://www.w3.org/2000/svg" xmlns:xlink="http://www.w3.org/1999/xlink" version="1.1" viewBox="-10 0 1010 1000">
   <path fill="currentColor"
d="M187 -10q102 34 103 46q0 3 -10 12q-20 17 -30 34q-20 32 -38 65h22q129 1 157 -8v88q-36 -9 -157 -8h-61q-27 41 -52 89q21 8 60 8h57q94 1 129 -8v89q-31 -9 -135 -10v119q85 -1 137 -8v84q-18 -5 -59 -7q-47 -3 -78 -1v174q46 -34 125 -107q1 41 22 96
q-114 78 -202 170q-15 -49 -58 -83q43 -30 42 -82v-170q-98 -1 -131 6v-82q47 8 131 8v-117q-49 0 -78 6v-35q-18 23 -39 53q-6 -26 -21 -66q-7 -19 -11 -29q113 -124 175 -326zM617 -4q113 10 115 18q2 4 -5 10q-16 15 -17 40q-6 60 -6 129h74q89 -1 141 -8v87
q-45 -7 -143 -8h-70q3 196 48 328q50 -115 67 -240q104 31 98 39q0 7 -8 17q-15 19 -24 45q-54 167 -91 232q38 74 67 89q13 -7 14 -101q42 45 85 64q-24 159 -55 160q-68 21 -163 -139q-76 98 -113 135q-29 -31 -93 -43q91 -63 164 -171q-69 -182 -75 -415h-121v409
q36 -36 101 -119q4 13 10 33q11 38 24 58q-139 147 -181 224l-63 -79q36 -23 32 -65v-427q0 -46 -1 -67q-1 -24 -3 -42q60 4 123 4h77zM829 20q25 19 80 99l-70 46q-21 -40 -64 -89q-7 -8 -11 -12z" />
</svg>
