<?xml version="1.0" standalone="no"?>
<!DOCTYPE svg PUBLIC "-//W3C//DTD SVG 1.1//EN" "http://www.w3.org/Graphics/SVG/1.1/DTD/svg11.dtd" >
<svg xmlns="http://www.w3.org/2000/svg" xmlns:xlink="http://www.w3.org/1999/xlink" version="1.1" viewBox="-10 0 1038 1024">
  <g transform="matrix(1 0 0 -1 0 820)">
   <path fill="currentColor"
d="M178 577h180q33 0 64 -6v47q-31 -6 -64 -6h-158q12 22 25 43q37 69 42 71q9 10 34 25q-30 12 -68 31q-22 -72 -78 -165q-57 -96 -123 -148q37 -13 54 -24q19 30 92 132zM230 241l-145 3q-6 3 -12 3v-47l30 4q16 0 34 2h93v-238q0 -36 -27 -53q19 -27 36 -60q43 48 62 63
q21 22 47 42q34 25 74 59v55q-87 -75 -153 -123v255h81q27 0 65 -6v47q-4 0 -9 -2q-22 -3 -56 -4h-82v160h50q24 0 64 -5v47q-28 -6 -64 -6h-142q-21 0 -48 3q-4 0 -15 3v-47q49 6 103 5h14v-160zM412 356l15 -10q76 84 127 161q48 78 103 197q64 -105 139 -192
q37 -42 71 -74q37 -33 92 -77q9 12 25 22q1 3 34 25q-54 13 -102 47q-66 42 -161 171q-27 36 -39 57l-39 69q9 12 26 22q-6 0 -76 21q-6 -63 -48 -161q-42 -93 -113 -179q-49 -55 -89 -76q7 -7 11 -8q12 -6 24 -15zM893 263l-52 -4l-349 1q-13 3 -31 4v-46q30 3 62 5h303
q-60 -99 -163 -217l-32 28l-65 55q-15 -19 -32 -38q54 -36 89 -67q54 -45 77 -68q6 -6 60 -74q21 24 38 42q-57 54 -103 95q31 36 54 65q21 25 40 53q21 27 46 64l69 103q-6 0 -11 -1zM648 486q-10 -10 -37 -29q70 -63 108 -128q24 21 39 30q-7 12 -46 57z" />
  </g>

</svg>
