<?xml version="1.0" standalone="no"?>
<!DOCTYPE svg PUBLIC "-//W3C//DTD SVG 1.1//EN" "http://www.w3.org/Graphics/SVG/1.1/DTD/svg11.dtd" >
<svg xmlns="http://www.w3.org/2000/svg" xmlns:xlink="http://www.w3.org/1999/xlink" version="1.1" viewBox="-10 0 1010 1000">
   <path fill="currentColor"
d="M667 -13q15 26 45 130l-85 18q-15 -79 -46 -125zM196 8q18 6 53 16q52 15 49 18q0 5 -11 19q-16 18 -27 35q-20 27 -46 77h30q76 -1 127 -10v79q-45 -7 -127 -7h-59q-15 19 -48 69q-11 16 -16 24q20 7 72 6h11h64q71 0 121 -8v79q-32 -7 -123 -8v115q92 -2 125 -12v82
q-20 -4 -58 -6q-41 -2 -67 0v178q48 -38 131 -113q7 44 20 88q-122 82 -225 180q-23 -47 -49 -75q50 -31 49 -86v-174q-108 0 -130 10v-84q36 10 130 10v-113q-65 1 -93 8v-45q-17 21 -39 48q-6 8 -8 11q-5 -37 -30 -87q131 -146 174 -324zM950 145v88q-49 -7 -148 -8h-201
q86 35 76 47q-1 2 -7 5q-26 10 -47 45q-49 84 -107 163h157q58 -95 87 -155q92 35 91 47q-1 3 -8 9q-24 21 -49 61q-163 251 -256 337l274 -12q-20 -54 -76 -143l81 -23q86 165 129 265l-91 30l-22 -63q-11 1 -50 3q-301 14 -356 32q0 -3 -1 -9q-7 -50 -15 -82q1 -3 14 -6
q43 -10 71 -41q57 -66 145 -189h-79q-81 1 -131 12q-4 -35 -14 -79q1 -2 7 -6q32 -17 62 -66q65 -101 95 -182h-41q-102 0 -135 8v-88q56 7 137 8h260q93 0 148 -8z" />
</svg>
