<?xml version="1.0" standalone="no"?>
<!DOCTYPE svg PUBLIC "-//W3C//DTD SVG 1.1//EN" "http://www.w3.org/Graphics/SVG/1.1/DTD/svg11.dtd" >
<svg xmlns="http://www.w3.org/2000/svg" xmlns:xlink="http://www.w3.org/1999/xlink" version="1.1" viewBox="-10 0 1010 1000">
   <path fill="currentColor"
d="M619 -10q111 0 117 14q0 3 -3 11q-25 48 -25 186h64q86 0 125 -10v85q-35 -8 -127 -8h-64q-2 83 -12 177h98q42 0 105 -5q25 -2 36 -3v81q-13 -1 -39 -2q-59 -4 -96 -4h-72q72 237 246 308q1 6 -11 12q-39 20 -70 69q-172 -169 -214 -367q-58 269 -274 373
q-35 -41 -72 -57q-9 -5 -10 -8q243 -89 286 -330h-71q-35 0 -119 5q-5 1 -8 1v-81q67 7 127 8h83q12 -86 14 -177h-117l-6 18q-20 68 -42 121q-37 -23 -79 -26q75 -133 81 -315q102 11 101 22q1 4 -5 12q-25 33 -40 101h107q0 -21 -1 -57q1 -107 -13 -154zM181 -4
q98 27 107 42q0 6 -13 14q-21 12 -31 30q-15 24 -34 52q-5 7 -8 11h94q22 0 82 -6q17 -1 25 -2v82q-68 -10 -111 -10h-119l-33 54q-18 28 -29 45q31 9 70 10h101q36 0 83 -8v75q-39 -9 -79 -8h-30v117h34q60 -1 91 -9v77q-32 -8 -85 -8h-42v173q56 -37 129 -94l18 88
q-119 64 -211 162l-55 -83q1 -3 22 -25t24 -27v-194h-48q-63 -1 -83 8v-75q25 9 87 9h46v-119q-47 -1 -86 8v-57l-34 45q-17 -60 -39 -73q126 -172 157 -304z" />
</svg>
