<?xml version="1.0" standalone="no"?>
<!DOCTYPE svg PUBLIC "-//W3C//DTD SVG 1.1//EN" "http://www.w3.org/Graphics/SVG/1.1/DTD/svg11.dtd" >
<svg xmlns="http://www.w3.org/2000/svg" xmlns:xlink="http://www.w3.org/1999/xlink" version="1.1" viewBox="-10 0 1034 1024">
  <g transform="matrix(1 0 0 -1 0 820)">
   <path fill="currentColor"
d="M356 573q27 0 63 -5v46l-39 -4l-179 -1q42 87 57 108q12 18 34 27q-6 1 -41 16q-13 6 -27 11q-31 -120 -126 -249q-30 -36 -61 -53q30 -12 55 -30q54 79 87 134h177zM438 340q6 -4 14 -9q69 63 92 132q21 69 23 225h204v-219q0 -40 18 -58q16 -19 79 -20l41 1q21 0 57 6
q0 18 10 55q-51 -22 -104 -23q-42 0 -52 9t-11 48v191q0 6 3 25q0 15 2 25q-25 -1 -51 -5l-203 1q-15 3 -36 4q4 -60 5 -101q-6 -72 -14 -123q-13 -64 -49 -102q-25 -22 -64 -42q3 -3 36 -20zM486 -104q0 -42 -5 -59h47l-4 35l-1 57h314v-29q0 -42 -5 -59h48l-4 35l-1 358
q1 28 5 57q-54 -6 -73 -6l-285 1q-24 4 -36 5h-5q1 -18 2 -29q3 -18 3 -28v-338zM523 -35v285h314v-285h-314zM225 251l-145 2q-6 3 -13 3v-46q49 4 79 5h79v-241q0 -37 -28 -57q19 -19 44 -52q10 15 21 29l46 52q30 33 48 55l37 37q-9 27 -12 51q-57 -75 -118 -133v259h93
q27 0 63 -5v46q-31 -1 -63 -5h-93v152h72q27 0 62 -5v46q-30 -1 -62 -5l-204 2q-6 3 -14 3v-46q3 3 50 5h58v-152z" />
  </g>

</svg>
