<?xml version="1.0" standalone="no"?>
<!DOCTYPE svg PUBLIC "-//W3C//DTD SVG 1.1//EN" "http://www.w3.org/Graphics/SVG/1.1/DTD/svg11.dtd" >
<svg xmlns="http://www.w3.org/2000/svg" xmlns:xlink="http://www.w3.org/1999/xlink" version="1.1" viewBox="-10 0 1034 1024">
  <g transform="matrix(1 0 0 -1 0 820)">
   <path fill="currentColor"
d="M841 661q93 0 103 -3q3 0 7 -3v47q-48 -6 -66 -6l-408 1q-25 3 -52 5v-47h3q3 1 8 2q7 3 36 4h18v-587l-62 -1q1 -24 4 -49l49 9q15 1 29 4l293 32q-3 -213 -5 -226h48q0 4 -2 9q-1 13 -3 56v165q36 4 73 8q27 3 60 4l-3 46q-39 -9 -60 -13q-36 -3 -70 -8v551zM527 298
v165h276v-165h-276zM803 661v-162h-276v162h276zM803 262v-157l-276 -28v185h276zM314 569q28 0 58 -3q3 0 8 -2v47l-99 -6h-90q0 3 34 72q12 27 19 35q7 10 26 23q-1 0 -6 2q-4 4 -11 6l-24 10q-9 3 -17 9q-9 -34 -23 -68q-15 -34 -39 -81q-52 -100 -103 -140q22 -7 47 -24
q27 39 43 63l34 57h143zM214 249l-103 1l-38 4v-46q42 6 70 5h71v-225q0 -19 -3 -35q-3 -18 -20 -30q18 -18 37 -45q72 88 105 124q3 6 41 44q12 12 16 19q-7 25 -14 49q-58 -78 -124 -146v245l96 -1l40 -4v46q-33 -1 -65 -5h-71v146q66 0 87 -3q7 0 17 -2v46q-33 -1 -66 -5
q-150 3 -169 5v-46q54 6 82 5h11v-146z" />
  </g>

</svg>
