<?xml version="1.0" standalone="no"?>
<!DOCTYPE svg PUBLIC "-//W3C//DTD SVG 1.1//EN" "http://www.w3.org/Graphics/SVG/1.1/DTD/svg11.dtd" >
<svg xmlns="http://www.w3.org/2000/svg" xmlns:xlink="http://www.w3.org/1999/xlink" version="1.1" viewBox="-10 0 1034 1024">
  <g transform="matrix(1 0 0 -1 0 820)">
   <path fill="currentColor"
d="M362 -160q54 69 84 131q27 57 43 137q18 94 18 325l326 -1l46 -4q-4 54 -5 76l1 155l4 47q-33 -1 -65 -5l-305 1q-15 3 -46 4l3 -34q3 -24 3 -75q0 -213 -3 -290q0 -81 -10 -150l-3 -23q-39 -193 -147 -269q21 -3 39 -14q7 -4 17 -11zM507 469v196h329v-196h-329z
M613 370q0 -6 2 -9l4 -56l1 -355q1 -15 6 -26q10 -33 54 -40q30 -6 101 -6q79 0 116 11q45 13 66 75q3 13 18 67l-33 16q-6 3 -17 9v-16q0 -30 -7 -57q-10 -45 -59 -58q-43 -9 -85 -9l-53 3q-19 0 -37 4q-33 7 -33 53v165l123 62q63 37 75 42q16 7 48 12q-16 16 -32 38
q-4 7 -10 14q-27 -27 -75 -55q-60 -34 -129 -68l1 138q0 13 12 46h-57zM337 568q27 0 55 -3q6 0 10 -2v46q-30 -4 -65 -5h-130q6 12 12 26q34 78 39 82q9 13 27 27q-16 6 -28 12q-15 6 -31 14q-13 -48 -43 -114q-48 -97 -85 -152q-24 -36 -38 -52q-10 -12 -31 -27
q19 -6 49 -24q33 42 108 172h151zM212 242l-143 3q-6 1 -13 3v-47q24 3 39 3q24 3 50 3h67v-200q0 -30 -3 -45q-3 -21 -17 -35q21 -21 38 -42q21 33 40 57l100 115l-20 56q-33 -63 -100 -132v226l109 -1l42 -4q3 0 5 -1v47q-3 0 -6 -1q-7 -3 -34 -4l-116 -1v157q90 0 105 -2
q10 0 23 -3v46q-33 -1 -66 -5l-159 1l-39 4v-46q45 4 81 5h17v-157z" />
  </g>

</svg>
