<?xml version="1.0" standalone="no"?>
<!DOCTYPE svg PUBLIC "-//W3C//DTD SVG 1.1//EN" "http://www.w3.org/Graphics/SVG/1.1/DTD/svg11.dtd" >
<svg xmlns="http://www.w3.org/2000/svg" xmlns:xlink="http://www.w3.org/1999/xlink" version="1.1" viewBox="-10 0 1034 1024">
  <g transform="matrix(1 0 0 -1 0 820)">
   <path fill="currentColor"
d="M101 416q19 22 38 48l61 87l200 -1l34 -4v46q-43 -4 -72 -5h-139q9 15 18 33q39 69 49 81q10 15 36 30q-42 18 -62 30q-18 -48 -38 -90q-21 -45 -55 -98q-57 -90 -118 -129q30 -18 48 -28zM664 247q-1 -27 -6 -63q-4 -40 -15 -95q46 4 91 5h127l-9 -104l-7 -40
q-10 -51 -82 -57q-60 -3 -79 -4l-43 6q3 -10 18 -49q70 3 114 9q33 3 54 12q33 15 47 44q12 30 17 106l7 76q0 15 6 42q-27 -1 -54 -5h-162l14 117h166q21 0 62 -6v47q-7 -1 -16 -4l-144 -2h-98q46 60 99 119h140q27 0 62 -5v46q-27 -4 -62 -5h-116l45 74q18 30 41 73
q25 43 34 53q6 9 33 22q-31 12 -63 31q-7 -21 -20 -48q-13 -30 -36 -74q-36 -66 -82 -131h-71v134h53q28 0 63 -5v46q-33 -4 -67 -5h-49q0 117 3 126q1 13 10 28h-56q4 -25 5 -63v-91l-132 4q-4 0 -7 1v-46q30 4 59 5h80v-134l-178 2q-6 3 -14 3v-46q3 3 50 5h223
q-75 -102 -173 -183q-81 -69 -169 -97q27 -21 43 -42l115 80q45 34 105 88h24zM237 229l-148 2q-6 3 -14 3v-46q3 1 49 5h113v-220q0 -25 -6 -35q-4 -7 -21 -16q18 -27 30 -57q48 49 116 99q37 27 59 44q-1 25 -3 51q-63 -54 -137 -108v242h102q28 0 63 -5v46q-31 -1 -63 -5
h-102v156h51q28 0 63 -5v46q-31 -1 -63 -5l-184 2q-6 3 -13 3v-46q46 4 95 5h13v-156z" />
  </g>

</svg>
