<?xml version="1.0" standalone="no"?>
<!DOCTYPE svg PUBLIC "-//W3C//DTD SVG 1.1//EN" "http://www.w3.org/Graphics/SVG/1.1/DTD/svg11.dtd" >
<svg xmlns="http://www.w3.org/2000/svg" xmlns:xlink="http://www.w3.org/1999/xlink" version="1.1" viewBox="-10 0 1034 1024">
  <g transform="matrix(1 0 0 -1 0 820)">
   <path fill="currentColor"
d="M613 310l-3 -210q0 -24 -6 -38q-6 -13 -42 -14q-25 0 -56 7q6 -21 7 -27q0 -3 3 -21q78 1 107 15q12 9 19 27q3 15 6 69q0 150 2 174q0 30 3 59q-60 -4 -96 -5h-93v156h260l8 -176l11 -145l9 -89q-43 -66 -118 -135q-54 -45 -96 -53q24 -19 42 -42q46 36 86 75
q42 42 99 108q15 -60 37 -107q39 -87 90 -87q21 0 41 20q15 19 25 60l6 22q0 12 5 20q0 4 5 17q-25 6 -50 18l1 -30q0 -28 -8 -55q-12 -30 -30 -30q-27 0 -56 70q-21 46 -37 123q27 54 38 84q9 25 21 63q21 76 34 113q12 34 32 47q-34 7 -64 21q-4 -58 -23 -130
q-24 -85 -50 -141l-14 184l-7 175q150 0 165 -2q9 0 18 -3v46q-19 -3 -23 -4l-160 -1l-1 68q0 88 5 106q1 10 15 27q-27 0 -61 5q3 -43 4 -82v-124l-254 1q-15 3 -47 4q4 -61 5 -68l3 -216q0 -124 -16 -200q-19 -90 -59 -150q-18 -27 -46 -42q21 -7 37 -17q6 -3 14 -8
q46 66 75 155q18 63 24 121q6 55 6 192h148zM827 721q-12 -12 -29 -26q69 -64 99 -116q15 15 24 22l7 5q-19 25 -29 34q-36 39 -72 81zM129 435q1 0 15 21q3 6 46 70q162 0 178 -3q6 0 13 -3v47q-9 -3 -23 -3q-18 0 -41 -2h-108q57 117 61 120q12 18 34 29q-24 12 -56 32
q-13 -48 -35 -94q-25 -54 -68 -127q-48 -81 -95 -101q27 -16 44 -33q4 10 35 47zM219 361v-129h-69q-43 0 -64 5v-46q15 4 34 5h99v-242q0 -22 -9 -37l-16 -13q15 -22 32 -45q12 27 32 47q70 75 75 80q4 3 9 9q12 15 35 32q-13 24 -19 43q-9 -15 -42 -51q-30 -33 -60 -61
v238q66 0 134 -3l2 -1q3 0 5 -1v46q-6 0 -12 -3q-12 0 -51 -2h-78v129l73 -1l36 -4v46q-10 -1 -22 -4h-195q-18 1 -28 4v-46q42 6 69 5h30z" />
  </g>

</svg>
