<?xml version="1.0" standalone="no"?>
<!DOCTYPE svg PUBLIC "-//W3C//DTD SVG 1.1//EN" "http://www.w3.org/Graphics/SVG/1.1/DTD/svg11.dtd" >
<svg xmlns="http://www.w3.org/2000/svg" xmlns:xlink="http://www.w3.org/1999/xlink" version="1.1" viewBox="-10 0 1034 1024">
  <g transform="matrix(1 0 0 -1 0 820)">
   <path fill="currentColor"
d="M369 558q27 0 62 -5v46q-9 -1 -16 -3q-15 -1 -46 -2h-139l40 85q18 39 45 54q-3 0 -22 9q-21 6 -43 18q-16 -61 -44 -123q-39 -84 -86 -148q-36 -48 -78 -69q9 -4 46 -29q1 -1 5 -4q51 60 121 171h155zM253 393v-162l-147 2q-6 3 -13 3v-46q49 4 80 5h80v-228
q0 -36 -29 -61q19 -21 36 -46q22 30 39 46l118 123l14 14q-9 19 -13 44q-3 -4 -5 -5q0 -1 -3 -3q-6 -3 -15 -16l-49 -55q-19 -22 -55 -58v245h82q28 0 63 -5v46q-31 -1 -63 -5h-82v162h55q27 0 62 -5v46q-7 0 -16 -3q-187 0 -191 -2q-18 1 -40 2l-8 2q-3 1 -5 1v-46
q49 4 81 5h24zM475 689l4 -45l-1 -770q-1 -15 -4 -25h47l-4 35l-1 774h384v-689q0 -34 -7 -42q-6 -4 -28 -10q-30 -3 -52 -4q-21 0 -60 6q12 -30 20 -51q108 4 142 23q22 13 23 62l1 707q1 19 5 40l-59 -7l-370 1q-31 6 -41 6q0 -4 1 -11zM851 525q-28 -6 -63 -6l-197 2
q-7 3 -13 4v-47q3 3 45 5l193 -1q15 0 35 -4v47zM601 144l-4 -33q-1 -7 -1 -17q42 4 86 5q100 0 114 -2q13 0 28 -3q-6 48 -6 61l1 163q0 18 4 27q0 9 1 17q-15 -1 -24 -2q-18 -3 -42 -3q-114 0 -131 2q-6 3 -31 3q1 -25 5 -52v-166zM638 135v186h143v-186h-143z" />
  </g>

</svg>
