<?xml version="1.0" standalone="no"?>
<!DOCTYPE svg PUBLIC "-//W3C//DTD SVG 1.1//EN" "http://www.w3.org/Graphics/SVG/1.1/DTD/svg11.dtd" >
<svg xmlns="http://www.w3.org/2000/svg" xmlns:xlink="http://www.w3.org/1999/xlink" version="1.1" viewBox="-10 0 1010 1000">
   <path fill="currentColor"
d="M200 -17q95 28 106 43q0 3 -6 6q-22 10 -36 36q-25 45 -38 73h66q77 -1 119 -10v84q-31 -10 -121 -10h-94q-16 23 -40 62q-18 27 -25 37q14 4 85 4h40q91 0 123 -8v71q-33 -6 -119 -6v116q69 0 125 -8v79q-42 -9 -125 -8v179q72 -43 123 -82l20 80q-120 63 -220 150
l-44 -79q1 -1 4 -2q49 -28 49 -50v-194q-88 0 -127 10v-83q57 8 127 8v-114q-62 -1 -77 4v-45q-9 12 -31 38q-9 10 -13 15q-18 -49 -39 -69q115 -122 168 -327zM607 -8q101 1 107 12q0 2 -5 9q-17 23 -17 51q0 10 -1 43q-1 34 -1 44h78q82 0 135 -10v82q-31 -8 -129 -8h-84
q0 114 -5 268h123q98 0 144 -10v79q-44 -6 -135 -6h-117q49 199 252 250q-3 5 -10 16q-37 55 -41 77q-189 -90 -244 -274q-38 180 -266 298q-26 -41 -72 -67q233 -63 284 -298h-53q-94 0 -135 8v-79q48 8 137 8h57q4 -50 7 -195q0 -54 1 -75h-63q-81 0 -119 10v-84
q38 9 119 10h63q1 -122 -10 -159zM796 260q77 15 85 24q0 2 -5 6q-18 17 -29 46q-3 9 -13 35q-15 44 -22 62q-42 -16 -66 -16q30 -57 50 -157zM526 272q22 60 36 141l-78 16q-4 -77 -30 -141z" />
</svg>
