<?xml version="1.0" standalone="no"?>
<!DOCTYPE svg PUBLIC "-//W3C//DTD SVG 1.1//EN" "http://www.w3.org/Graphics/SVG/1.1/DTD/svg11.dtd" >
<svg xmlns="http://www.w3.org/2000/svg" xmlns:xlink="http://www.w3.org/1999/xlink" version="1.1" viewBox="-10 0 1034 1024">
  <g transform="matrix(1 0 0 -1 0 820)">
   <path fill="currentColor"
d="M552 238q9 19 19 37v-334q0 -18 -7 -25q-9 -10 -52 -11q-40 0 -68 6q10 -24 15 -48q45 0 72 3q55 6 68 26q9 16 9 45v407q61 0 74 -3q6 0 10 -2v46q-10 -1 -22 -4l-62 -1v278q55 -3 62 -6q3 0 5 -1v45q-84 -3 -122 -4q-108 0 -136 2l-14 2v-45q6 1 13 3q79 3 100 4h55
v-278h-127q12 57 23 125q6 36 12 45q3 9 21 18q-34 12 -62 24q0 -30 -3 -59l-15 -100q-9 -54 -35 -73l31 -38q9 9 16 12q19 9 53 10h70q-57 -171 -158 -297q-30 -37 -64 -49q28 -18 50 -38l51 73q58 85 90 148q13 28 28 57zM710 702q1 -33 5 -68q-3 -771 -5 -782h48
q-1 3 -1 5q0 1 -4 53v751h149q-12 -54 -26 -97l-53 -161l-16 -38q42 -33 75 -84q46 -70 47 -132q0 -54 -23 -80q-21 -21 -68 -21q-15 0 -41 4q9 -24 16 -49q33 3 51 6q39 9 62 25q39 31 40 112q0 63 -41 133q-25 45 -73 96l32 99l35 109q18 61 38 119q-60 -6 -77 -6l-122 1
q-33 4 -48 5zM144 487q12 21 36 58l9 13q162 0 174 -3q6 0 13 -3v47q-19 -3 -23 -4l-143 -1l20 40q33 66 35 66q10 18 35 30q-30 15 -58 35q-12 -48 -36 -99q-49 -102 -88 -152q-28 -36 -60 -51q22 -9 48 -28q1 1 3 4q12 18 35 48zM226 383v-136h-73q-40 0 -64 5v-46l62 5
h75v-205q0 -42 -30 -67l35 -41l14 20q24 30 101 110q21 21 32 30q-18 19 -25 38q-36 -49 -90 -100v215q96 0 111 -3q3 0 8 -2v46q-6 0 -12 -3q-12 0 -52 -2h-55v136q66 0 82 -3q6 0 8 -2v46l-59 -5q-138 0 -162 2q-9 1 -15 3v-46q39 4 54 5h55z" />
  </g>

</svg>
