<?xml version="1.0" standalone="no"?>
<!DOCTYPE svg PUBLIC "-//W3C//DTD SVG 1.1//EN" "http://www.w3.org/Graphics/SVG/1.1/DTD/svg11.dtd" >
<svg xmlns="http://www.w3.org/2000/svg" xmlns:xlink="http://www.w3.org/1999/xlink" version="1.1" viewBox="-10 0 1034 1024">
  <g transform="matrix(1 0 0 -1 0 820)">
   <path fill="currentColor"
d="M728 201v-251q0 -45 27 -59q24 -12 69 -12q48 0 88 9q30 9 48 50q7 21 21 72q-24 7 -44 22q-4 -49 -8 -63q-9 -33 -33 -43q-22 -6 -51 -7q-24 0 -50 4q-28 4 -29 30v248q177 0 184 -3q3 0 9 -2v47q-9 -3 -28 -4l-115 -2l-342 1q-9 1 -15 2q-6 0 -19 3v-47q54 6 85 5h73
q-1 -57 -16 -112q-31 -105 -112 -163q-51 -34 -95 -50q25 -18 41 -36q103 55 156 135q27 45 44 94q13 48 24 132h88zM440 544q30 9 72 16l104 17q19 -54 32 -78q13 -30 36 -64q-36 -27 -122 -69q-60 -27 -124 -43q21 -18 39 -39l150 71q37 21 84 50l53 -50q49 -34 64 -42
q33 -16 52 -18q33 0 51 45q6 15 12 34q4 18 9 44q-15 4 -31 13l-15 10q0 -12 -2 -29q0 -22 -5 -36q-9 -33 -31 -34q-15 0 -61 30q-24 15 -65 56q1 1 22 14q48 42 59 47q10 10 25 18q27 19 39 23q4 3 17 6q-28 18 -47 37q-72 -72 -140 -114q-9 10 -16 20q-6 9 -16 32
q-19 45 -28 71l202 32q21 4 69 6q-4 22 -7 45q-42 -12 -67 -17l-210 -30q-9 30 -17 67q-6 31 -6 46t8 32q-30 0 -60 -2q0 -12 5 -19q12 -64 13 -67q6 -28 17 -65l-161 -21q-6 1 -12 0zM345 528q27 0 57 -3q6 0 9 -2v46q-33 -1 -66 -5h-139q3 12 14 29l43 88q12 27 41 48
q-18 4 -34 11q-3 0 -14 5q-6 3 -17 7q-15 -57 -42 -114q-27 -60 -48 -96q-15 -27 -40 -60q-22 -31 -38 -49q-9 -12 -29 -28q27 -6 49 -17q28 36 49 65q19 30 46 75h159zM231 218l-125 2q-6 1 -12 1q-4 0 -14 2v-46q36 4 77 5h74v-219q0 -16 -3 -31q-4 -18 -19 -29
q15 -18 32 -43q72 78 112 115q33 33 55 52q-7 24 -13 47q-42 -48 -83 -89q-13 -15 -43 -41v238q66 0 135 -3q6 0 14 -2v46q-12 -1 -14 -2l-102 -3h-33v138q85 0 97 -2q9 0 19 -3v46l-41 -4l-202 1q-6 1 -12 1q-3 0 -15 2v-46q54 6 82 5h34v-138z" />
  </g>

</svg>
