<?xml version="1.0" standalone="no"?>
<!DOCTYPE svg PUBLIC "-//W3C//DTD SVG 1.1//EN" "http://www.w3.org/Graphics/SVG/1.1/DTD/svg11.dtd" >
<svg xmlns="http://www.w3.org/2000/svg" xmlns:xlink="http://www.w3.org/1999/xlink" version="1.1" viewBox="-10 0 1010 1000">
   <path fill="currentColor"
d="M637 -12q12 0 32 1q60 0 65 9q1 1 -3 8q-15 25 -15 58v123h74q79 0 117 -10v85q-36 -9 -113 -8h-78v163h97q84 -1 131 -10v85q-35 -7 -125 -7h-49v267q-5 53 45 50q43 1 55 -18q13 -15 19 -85q49 41 79 49q-22 133 -95 129q-5 0 -37 1q-42 1 -52 1q-58 -2 -74 -21
q-17 -15 -16 -74v-299h-79q8 286 -200 424q-40 -38 -92 -53q132 -65 171 -136q44 -70 50 -235q-96 0 -127 5v-83q62 10 146 10h74v-163h-119q-20 48 -46 98q-40 -19 -71 -22q59 -98 81 -254q17 4 45 11q52 11 52 17q2 3 -5 7q-14 8 -18 24q-6 24 -18 52h99v-121v-78zM181 -2
q18 5 48 12q55 12 53 18q1 3 -4 5q-19 8 -32 37q-8 18 -18 42t-16 35h72q76 0 125 -8v82q-54 -6 -121 -6h-107q-74 115 -118 162q-10 -58 -25 -91q97 -98 143 -288zM109 326q10 -1 31 0q30 2 58 2h76q57 0 105 -8v77q-39 -6 -101 -6h-26v113h36q64 -1 115 -4v74
q-48 -6 -115 -6h-36v172q49 -39 101 -94q10 -11 16 -17q11 49 34 80q-141 111 -203 184q-7 8 -8 8q-3 -1 -10 -16q-20 -39 -43 -65l4 -4q36 -29 36 -56v-192q-87 0 -125 6v-74q35 3 125 4v-113l-70 6v-71z" />
</svg>
