<?xml version="1.0" standalone="no"?>
<!DOCTYPE svg PUBLIC "-//W3C//DTD SVG 1.1//EN" "http://www.w3.org/Graphics/SVG/1.1/DTD/svg11.dtd" >
<svg xmlns="http://www.w3.org/2000/svg" xmlns:xlink="http://www.w3.org/1999/xlink" version="1.1" viewBox="-10 0 1034 1024">
  <g transform="matrix(1 0 0 -1 0 820)">
   <path fill="currentColor"
d="M173 544h129q27 0 62 -5v46q-30 -1 -62 -5h-111q45 115 49 119q13 24 35 36q-36 12 -58 25q-22 -75 -45 -131q-21 -52 -49 -101q-28 -45 -59 -70q33 -18 46 -29q18 31 29 50q16 33 34 65zM398 -156q58 58 90 100q55 75 69 155q7 57 8 142l1 226q0 39 3 42q3 13 17 29
q-10 1 -22 3q-19 1 -41 7q4 -48 5 -105l-2 -277q-1 -4 -1 -10q-4 -58 -15 -95q-19 -63 -77 -125q-36 -36 -81 -56q39 -30 46 -36zM405 705l2 -26q3 -16 4 -28v-505q0 -42 -6 -59h48q-6 36 -6 52v525h187v-488q0 -42 -5 -60h48q-4 30 -5 60l1 490l4 39q-51 -4 -66 -5l-169 1
q-12 3 -37 4zM689 -102q9 9 18 14q6 4 11 11q-7 9 -11 15q-42 57 -85 109q-6 7 -15 17q-15 -13 -32 -22q72 -79 110 -147q1 1 4 3zM759 609q1 -30 5 -62l-1 -389q-1 -15 -4 -25h48l-4 35l-1 379q0 27 4 36q1 13 9 26h-56zM798 -111q1 -6 4 -14q3 -6 5 -15q0 -4 2 -14
q36 3 55 6q34 6 49 18q15 13 16 52v778q0 6 2 24q1 18 12 38h-57q1 -30 5 -62l-1 -779q-1 -3 -2 -9q-1 -12 -12 -15q-18 -4 -37 -5q-10 0 -43 4q0 -3 2 -7zM223 364v-137l-119 2q-6 3 -13 3v-46q3 3 45 5h87v-235q0 -19 -4 -34q-4 -9 -16 -18q21 -16 41 -41q24 36 52 70
l86 100q-9 19 -19 43q-57 -78 -102 -129v244h51q27 0 63 -5v46q-31 -1 -63 -5h-51v137h21q28 0 64 -5v46q-31 -1 -64 -5l-148 4q-3 1 -5 1v-46q49 4 80 5h14z" />
  </g>

</svg>
