<?xml version="1.0" standalone="no"?>
<!DOCTYPE svg PUBLIC "-//W3C//DTD SVG 1.1//EN" "http://www.w3.org/Graphics/SVG/1.1/DTD/svg11.dtd" >
<svg xmlns="http://www.w3.org/2000/svg" xmlns:xlink="http://www.w3.org/1999/xlink" version="1.1" viewBox="-10 0 1010 1000">
   <path fill="currentColor"
d="M202 -12q89 20 108 38q0 3 -13 13q-25 16 -35 31q-30 43 -44 71h50q49 0 115 -8v76q-26 -8 -121 -8h-74q-35 48 -77 109q36 6 97 6h48q46 0 97 -6v71q-33 -6 -111 -6v127q81 0 129 -6v74q-51 -9 -129 -6v151q60 -57 105 -111l34 79q-108 81 -193 194l-63 -79l5 -5
q41 -38 41 -56v-173q-86 -3 -121 6v-74q54 8 121 8v-129q-48 -3 -72 4v-53l-37 41q-5 -19 -29 -57q-9 -13 -13 -20q131 -130 182 -302zM613 -4q95 1 101 12q0 2 -5 10q-17 25 -17 54v125h54q102 0 147 -12v87q-51 -12 -151 -12h-50v149h120q104 0 123 -8v80q-31 -8 -127 -8
h-74q54 177 222 256q-47 53 -63 93q-151 -116 -201 -316v246q0 117 10 153h-97q16 -53 16 -161v-228q-77 196 -232 330q-28 -37 -91 -46q164 -82 271 -325h-43q-109 0 -131 10v-82q56 8 129 8h97v-151h-121q-13 36 -50 107q-50 -28 -75 -31q86 -125 105 -284q89 14 99 28
q0 3 -5 7q-16 13 -24 38q-2 6 -8 20q-16 42 -20 52h99v-115q0 -64 -8 -86z" />
</svg>
