<?xml version="1.0" standalone="no"?>
<!DOCTYPE svg PUBLIC "-//W3C//DTD SVG 1.1//EN" "http://www.w3.org/Graphics/SVG/1.1/DTD/svg11.dtd" >
<svg xmlns="http://www.w3.org/2000/svg" xmlns:xlink="http://www.w3.org/1999/xlink" version="1.1" viewBox="-10 0 1010 1000">
   <path fill="currentColor"
d="M169 -8q87 26 95 38q1 3 -3 5q-16 7 -27 31q-30 60 -42 77h28q59 0 93 -6v80q-35 -6 -97 -6h-59q-9 17 -97 139q-15 -36 -46 -66q106 -114 155 -292zM833 22q6 0 17 1q80 5 79 13q1 3 -3 9q-15 27 -15 74v701q1 46 -29 62q-27 17 -118 23q-11 -58 -44 -97q128 15 119 -34
v-635q0 -45 -6 -117zM337 72q42 6 123 6h78q88 -1 121 -10q-8 53 -8 167v252q0 91 6 126h-80q6 -53 6 -121v-347h-172v361q0 48 1 70q1 26 3 47h-78q6 -28 6 -111v-311q0 -93 -6 -129zM706 151h20q76 -2 72 8q0 8 -4 14q-10 16 -10 62v295q0 113 6 143h-88q10 -37 10 -145
v-291q0 -45 -6 -86zM454 219q12 1 32 2q58 3 58 10q1 2 -3 7q-12 15 -11 40q6 142 -3 240q-8 100 -34 172q-51 146 -183 213q-16 -25 -76 -65q161 -63 199 -184q22 -61 27 -159q5 -90 -6 -276zM103 298q10 2 58 2h45q54 -1 86 -4v71q-12 -1 -31 -2h-55v108q60 0 96 -6v79
q-36 -6 -96 -6v165q43 -37 84 -90q8 30 31 66q4 7 6 10q-136 116 -172 178q-4 -2 -9 -14q-15 -34 -41 -63q36 -30 38 -50v-202q-56 0 -97 6v-81q53 8 97 8v-111q-28 0 -40 3v-67zM506 675l56 -36q80 72 140 151l-65 60q-61 -109 -131 -175z" />
</svg>
