<?xml version="1.0" standalone="no"?>
<!DOCTYPE svg PUBLIC "-//W3C//DTD SVG 1.1//EN" "http://www.w3.org/Graphics/SVG/1.1/DTD/svg11.dtd" >
<svg xmlns="http://www.w3.org/2000/svg" xmlns:xlink="http://www.w3.org/1999/xlink" version="1.1" viewBox="-10 0 1034 1024">
  <g transform="matrix(1 0 0 -1 0 820)">
   <path fill="currentColor"
d="M657 261q-231 3 -245 5v-47q4 1 10 2q-1 0 7 1q45 3 82 3h142q-63 -109 -107 -171q-46 -63 -75 -94q-27 -27 -53 -40q12 -21 23 -46q49 10 59 12q12 0 30 4q265 25 290 27h6l25 4q9 -12 18 -26q9 -16 24 -49q22 15 42 26l-83 126l-73 115q-16 -9 -39 -19l41 -61l52 -80
l-263 -21l-77 -7q15 22 52 68q15 21 30 41l119 175q3 9 9 16q256 -3 263 -6v47q-33 -1 -66 -5h-206v174l214 -3l2 -1q3 0 7 -2v47q-27 -4 -66 -5h-157v198q36 6 99 26q1 1 4 1l56 16l44 4q-28 30 -43 51q-48 -24 -100 -41q-84 -24 -150 -37q-90 -15 -142 -16q-18 0 -55 3
q18 -28 24 -50q22 0 134 17q39 6 92 18v-190l-180 1q-15 3 -39 4v-47q19 4 46 5l173 1v-174zM126 500q27 36 29 40l198 -1q21 0 31 -4v47q-12 -3 -31 -4l-63 -2h-111q30 42 46 70q7 16 17 31q7 15 16 28q15 21 37 38q-33 15 -55 30q-12 -36 -35 -84q-27 -51 -88 -131
q-37 -48 -73 -74q27 -10 49 -25q16 21 33 41zM212 218l-108 1q-31 3 -38 4v-46q42 6 70 5h76v-220q0 -24 -3 -39q-3 -12 -14 -24q7 -9 16 -21q4 -6 14 -24q13 18 50 54q72 75 80 81q16 16 38 34l-15 49q-13 -18 -29 -34q-18 -19 -56 -56q-15 -15 -43 -39v239q57 0 121 -3
q6 0 14 -2v46l-41 -4l-94 -1v157q78 0 90 -2q9 0 20 -3v46q-33 -1 -65 -5q-135 0 -164 2q-6 1 -11 1q-1 0 -14 2v-46q45 4 82 5h24v-157z" />
  </g>

</svg>
