<?xml version="1.0" standalone="no"?>
<!DOCTYPE svg PUBLIC "-//W3C//DTD SVG 1.1//EN" "http://www.w3.org/Graphics/SVG/1.1/DTD/svg11.dtd" >
<svg xmlns="http://www.w3.org/2000/svg" xmlns:xlink="http://www.w3.org/1999/xlink" version="1.1" viewBox="-10 0 1034 1024">
  <g transform="matrix(1 0 0 -1 0 820)">
   <path fill="currentColor"
d="M490 540l1 113q0 18 4 31q0 6 9 24h-56q1 -30 6 -65q0 -78 -2 -106q-3 -3 -3 -20q-1 -7 -1 -18q15 3 55 4l350 1q31 -1 64 -5q-4 54 -5 78l1 96q0 16 5 29q1 9 8 18h-57q0 -9 2 -13l3 -105v-62h-170v155q0 9 3 29q0 18 10 36h-56q0 -9 2 -14l3 -102v-104h-176zM458 363
q27 4 67 5h321v-145l-323 1q-15 3 -47 4q6 -48 6 -70l1 -224q4 -34 41 -53q19 -9 64 -13q63 -3 136 -4q27 3 77 3q60 1 91 14q27 10 47 40q18 30 35 110q-15 6 -36 18q-7 3 -12 7q0 -33 -5 -63q-9 -42 -28 -63q-19 -19 -78 -25l-132 -3q-42 0 -86 3q-45 3 -61 15
q-15 10 -16 43v224l325 -1l44 -4q-4 49 -5 75l1 109l4 43q-30 -1 -60 -5l-329 1q-10 1 -25 2l-17 2v-46zM152 527q4 12 14 21l208 -1q21 0 30 -4v47q-6 0 -63 -6h-153q24 39 47 87q21 42 49 62q-9 1 -16 6q-25 10 -40 21q-27 -81 -62 -136q-54 -88 -74 -115q-21 -28 -49 -48
q24 -15 42 -31q21 24 43 59zM219 238l-119 1q-31 3 -38 4v-46q15 1 33 3l124 2v-253q0 -16 -5 -32q-6 -10 -19 -21q9 -9 17 -19q6 -9 16 -25q36 37 66 61q75 66 108 91q7 7 18 13q-7 27 -14 52q-10 -13 -46 -50q-12 -9 -23 -20q-37 -31 -80 -63v266q66 0 135 -3q6 0 14 -2
v46q-33 -1 -65 -5h-84v139q90 0 101 -2q9 0 20 -3v46q-33 -1 -67 -5l-160 1l-39 4v-46q45 4 82 5h25v-139z" />
  </g>

</svg>
