<?xml version="1.0" standalone="no"?>
<!DOCTYPE svg PUBLIC "-//W3C//DTD SVG 1.1//EN" "http://www.w3.org/Graphics/SVG/1.1/DTD/svg11.dtd" >
<svg xmlns="http://www.w3.org/2000/svg" xmlns:xlink="http://www.w3.org/1999/xlink" version="1.1" viewBox="-10 0 1010 1000">
   <path fill="currentColor"
d="M212 -10q83 19 105 40q0 4 -6 8q-17 13 -33 38q-3 4 -8 14q-36 58 -42 73h56q69 0 121 -8v85q-30 -9 -125 -9h-88q-4 6 -11 16q-48 71 -60 83q7 4 62 4h87q79 0 121 -6v77q-53 -6 -131 -6v113q72 0 111 -6v84q-42 -12 -111 -8v170q72 -59 119 -107l28 84
q-116 79 -209 176l-51 -85q1 -1 8 -7q33 -24 33 -45v-188q-79 -3 -132 6v-82q55 8 132 8v-111q-64 -1 -83 4v-55q-4 8 -26 35q-26 -44 -53 -63q118 -114 186 -332zM841 30q61 64 66 83q-1 4 -13 4q-31 -1 -69 4q-84 11 -140 18v135h71q85 0 135 -8v86q-8 -10 -131 -10h-75
v131h103q104 -1 150 -10v91q-32 -10 -146 -10h-111q-80 143 -147 230l248 -24q-27 -58 -66 -109l76 -28q51 67 137 243l-90 35q-7 -33 -27 -75q-263 12 -359 53q-6 2 -7 2l-41 -85q102 -40 186 -242h-53q-110 -1 -149 8v-87q31 8 149 8h71v-131h-46q-83 0 -130 6v-80
q59 6 136 6h40v-127q-11 2 -47 6q-74 9 -127 16q-14 -46 -41 -76q-4 -6 -7 -9q239 12 454 -54z" />
</svg>
