<?xml version="1.0" standalone="no"?>
<!DOCTYPE svg PUBLIC "-//W3C//DTD SVG 1.1//EN" "http://www.w3.org/Graphics/SVG/1.1/DTD/svg11.dtd" >
<svg xmlns="http://www.w3.org/2000/svg" xmlns:xlink="http://www.w3.org/1999/xlink" version="1.1" viewBox="-10 0 1010 1000">
   <path fill="currentColor"
d="M613 -17q94 11 105 25q0 5 -6 12q-8 10 -10 18q77 236 280 333q-49 40 -79 82q-65 -53 -93 -86v58q-28 -8 -135 -8h-26q-85 0 -133 6v-56q-19 30 -85 108q-8 -6 -22 -15q-50 -37 -70 -37q29 -17 44 -34q-36 -9 -125 -6v125q79 0 147 -8v86q-44 -10 -147 -10v166
q65 -47 121 -99l26 88q-172 105 -228 172l-48 -83q51 -45 54 -68v-176q-72 -4 -127 8v-86q59 10 127 10v-123q-40 -3 -68 4v-41q-5 5 -13 16q-20 24 -29 33q-11 -39 -41 -71q126 -126 200 -336q28 8 97 44q0 3 -7 8q-23 18 -44 52q-6 8 -17 30l-15 27h58q90 0 138 -8v80
q-35 -9 -136 -8h-94q-4 6 -13 19q-40 57 -60 80q38 6 85 6h40q92 0 127 -10v73q155 -149 222 -400zM655 106q-35 103 -125 240q10 3 30 3q15 1 73 1h48q91 -1 109 -4q-82 -98 -135 -240zM464 510q57 9 163 10h93q96 0 143 -6q-8 31 -8 127v119q0 101 10 151h-97q7 -25 8 -87
h-228q0 57 7 85q1 5 1 6h-96q10 -50 10 -173v-87q0 -85 -6 -145zM550 588v168h226v-168h-226z" />
</svg>
