<?xml version="1.0" standalone="no"?>
<!DOCTYPE svg PUBLIC "-//W3C//DTD SVG 1.1//EN" "http://www.w3.org/Graphics/SVG/1.1/DTD/svg11.dtd" >
<svg xmlns="http://www.w3.org/2000/svg" xmlns:xlink="http://www.w3.org/1999/xlink" version="1.1" viewBox="-10 0 1010 1000">
   <path fill="currentColor"
d="M194 -12q79 28 104 48q0 3 -7 9q-19 15 -35 39q-6 9 -18 30q-16 27 -22 35h58q67 0 104 -8q8 -1 13 -2v86q-52 -7 -121 -8h-85q-9 16 -34 53q-18 28 -28 44q15 5 87 6h62q69 0 109 -6v79q-19 -7 -125 -6v109q76 0 119 -6v82q-36 -7 -119 -8v182q48 -34 121 -105l30 86
q-122 75 -219 180l-53 -67q0 -1 7 -7q39 -38 39 -57v-212q-91 1 -133 6v-82q52 7 133 8v-107q-37 0 -70 4v-61l-32 46q-7 9 -10 13q-9 -27 -51 -75q134 -151 176 -328zM679 -12q21 33 51 114l-91 25q-13 -58 -50 -113zM431 133q58 9 154 10h205q93 0 148 -8v90
q-46 -9 -150 -10h-197q-92 0 -160 8v-90zM768 250q82 64 172 171l-71 60q-70 -108 -165 -183zM546 256q81 29 93 42q0 5 -13 12q-26 13 -43 32q-9 10 -34 38q-43 50 -65 73l76 -14q19 113 85 210q59 -96 87 -222q84 24 101 40q0 3 -6 9q-19 18 -37 58q-56 121 -92 171
q104 70 270 95q-42 37 -67 91q-144 -44 -256 -131q-85 71 -262 145q-32 -44 -77 -77q174 -37 287 -121q-69 -104 -117 -244q-10 13 -26 27q-38 -28 -73 -39q109 -83 169 -195z" />
</svg>
