<?xml version="1.0" standalone="no"?>
<!DOCTYPE svg PUBLIC "-//W3C//DTD SVG 1.1//EN" "http://www.w3.org/Graphics/SVG/1.1/DTD/svg11.dtd" >
<svg xmlns="http://www.w3.org/2000/svg" xmlns:xlink="http://www.w3.org/1999/xlink" version="1.1" viewBox="-10 0 1010 1000">
   <path fill="currentColor"
d="M538 -4q59 8 89 20q19 8 -2 30q-11 12 -14 18q-15 30 -24 49h183q68 0 113 -7q-51 145 -161 269q78 49 236 70q-32 33 -55 93q-174 -66 -236 -111q-73 62 -167 105l77 6h177q65 1 109 -6q0 13 -2 52q-2 42 -2 57v131q0 53 1 74q2 26 7 47h-91q6 -23 6 -77h-232q0 48 6 83
h-90q9 -30 8 -129v-143l-6 -77q-5 0 -11 4q-13 10 -30 20q-20 -44 -58 -76v66q-35 -9 -101 -8v196q42 -29 131 -111l22 82q-103 64 -209 166l-47 -67q34 -25 31 -62v-204q-90 -1 -125 16v-85q40 7 125 7v-117q-45 -1 -79 8v-59l-38 51q-19 -43 -51 -67q128 -136 176 -302
q36 7 90 34q16 9 -9 30q-14 12 -17 18q-2 4 -8 13q-18 29 -30 54h52q68 -1 101 -8v80q-18 -9 -81 -8h-114q-8 10 -25 37q-20 31 -34 50q16 7 69 6h74q51 1 87 -6v75q-27 -9 -91 -8v117q57 0 99 -5q150 -37 246 -110q-52 -56 -87 -129q-48 89 -66 117q-28 -17 -85 -27
q122 -133 163 -342zM560 171q31 88 105 167q69 -83 107 -167h-212zM782 602h-230v152h230v-152z" />
</svg>
