<?xml version="1.0" standalone="no"?>
<!DOCTYPE svg PUBLIC "-//W3C//DTD SVG 1.1//EN" "http://www.w3.org/Graphics/SVG/1.1/DTD/svg11.dtd" >
<svg xmlns="http://www.w3.org/2000/svg" xmlns:xlink="http://www.w3.org/1999/xlink" version="1.1" viewBox="-10 0 1034 1024">
  <g transform="matrix(1 0 0 -1 0 820)">
   <path fill="currentColor"
d="M321 554l64 -4l2 -1v46q-43 -4 -81 -5h-94q1 4 28 57q4 6 9 15q15 30 27 44q7 9 26 18q-9 3 -21 8q-27 12 -40 20q-15 -48 -44 -105q-27 -57 -49 -93q-19 -33 -46 -66q-34 -40 -69 -61q36 -9 56 -23q12 12 24 28q51 72 62 93q6 9 18 29h128zM217 236q-106 0 -127 2
q-6 3 -19 3v-46q3 3 20 3q9 1 94 2h32v-250q0 -4 -6 -21q-6 -9 -18 -19q21 -16 40 -45q31 42 42 58l58 69q15 22 39 45q0 6 -7 16q-9 21 -13 42q-36 -75 -97 -138v243q114 0 124 -3q1 0 6 -2v46l-109 -5h-21v151q78 0 92 -3q1 0 6 -2v46q-33 -1 -65 -5l-132 1q-24 3 -27 4
v-46l31 4l57 1v-151zM618 657q0 24 6 54q0 3 7 16h-59q1 -7 4 -17q1 -30 3 -43v-378l-76 -54q-78 -54 -105 -60q21 -30 30 -50q24 25 54 49q39 27 59 44l31 21q-6 -142 -88 -245q-73 -90 -150 -108q37 -19 55 -36l68 56q34 34 61 67q75 102 92 221l8 109v354zM445 567
q-3 -1 -5 -4q-4 -3 -25 -19q15 -15 52 -68q15 -22 28 -45q10 -16 23 -41q9 6 16 12q9 7 19 13l-54 83q-39 55 -52 72q-1 -1 -2 -3zM758 666q6 57 8 60q1 4 5 10h-57l2 -14l4 -58l1 -732q1 -18 11 -28q15 -15 38 -20q18 -4 66 -5q69 0 97 18q28 19 44 81l12 52q-18 9 -43 29
q-9 -106 -34 -127q-16 -12 -61 -13q-34 0 -57 3q-21 1 -28 10t-8 43v268q58 -40 135 -126q13 18 29 34l-51 48q-16 15 -19 17q-33 25 -65 54q-9 9 -29 24v372zM793 403q12 -7 19 -15q25 36 66 97q33 51 66 59q-19 9 -24 12q-10 7 -31 25q-4 -13 -11 -25q-6 -13 -23 -38
q-25 -43 -41 -67q-13 -18 -32 -39q4 -4 11 -9v0z" />
  </g>

</svg>
