<?xml version="1.0" standalone="no"?>
<!DOCTYPE svg PUBLIC "-//W3C//DTD SVG 1.1//EN" "http://www.w3.org/Graphics/SVG/1.1/DTD/svg11.dtd" >
<svg xmlns="http://www.w3.org/2000/svg" xmlns:xlink="http://www.w3.org/1999/xlink" version="1.1" viewBox="-10 0 1034 1024">
  <g transform="matrix(1 0 0 -1 0 820)">
   <path fill="currentColor"
d="M70 407l14 -7q22 33 44 69q24 42 49 83h167q27 0 62 -5v46q-7 0 -16 -3l-197 -2q45 100 50 105q6 13 17 24q6 9 16 15q-24 9 -58 24q-21 -84 -86 -204q-54 -94 -99 -129q12 -6 37 -16zM796 597q-37 -61 -64 -100q-24 -33 -60 -71l-20 22q-48 54 -61 95q-6 -3 -13 -9
q-7 -4 -17 -8q-7 -3 -12 -6l35 -48l60 -73q-45 -42 -127 -94q-60 -36 -119 -49q15 -13 40 -41q69 36 119 69q49 33 117 88q117 -91 274 -146q13 24 32 48q-42 4 -66 11q-18 4 -64 23q-75 30 -150 92q45 54 81 106q37 55 81 132q-30 -1 -62 -5h-219q36 66 48 77q15 21 37 29
q-15 6 -28 11q-12 6 -33 18q-27 -76 -100 -183q-34 -48 -61 -74q-27 -24 -59 -42q36 -21 48 -31l61 73l65 86h237zM498 -105q0 -42 -5 -60h48q-4 15 -5 34l-1 51h283v-19q0 -42 -5 -59h49l-6 38l1 305l4 28q0 6 1 13q-31 -6 -56 -7l-274 1q-6 1 -13 2q-12 0 -26 4
q1 -18 2 -29q3 -21 3 -28v-274zM535 -45v230h283v-230h-283zM223 371v-152l-143 4q-3 1 -5 1v-46q3 1 49 5h99v-229q0 -24 -6 -34q-3 -4 -16 -15q9 -12 19 -24q7 -12 19 -29l80 86l88 86q-12 24 -17 44q-63 -72 -129 -134v249h70q28 0 63 -5v46q-7 0 -16 -3l-117 -2v152h45
q21 0 64 -6v47q-9 -1 -17 -4q-184 0 -188 -2q-18 1 -39 2q-7 3 -14 4v-47q60 6 80 6h31z" />
  </g>

</svg>
