<?xml version="1.0" standalone="no"?>
<!DOCTYPE svg PUBLIC "-//W3C//DTD SVG 1.1//EN" "http://www.w3.org/Graphics/SVG/1.1/DTD/svg11.dtd" >
<svg xmlns="http://www.w3.org/2000/svg" xmlns:xlink="http://www.w3.org/1999/xlink" version="1.1" viewBox="-10 0 1034 1024">
  <g transform="matrix(1 0 0 -1 0 820)">
   <path fill="currentColor"
d="M383 -132q16 -15 35 -31q28 12 56 29q27 15 61 39q70 48 152 130q37 -43 97 -91q34 -27 59 -43q21 -15 103 -64q16 30 39 48q-66 22 -107 47q-102 63 -166 140q40 69 86 161q18 45 29 59q7 12 32 33q-30 13 -61 29q-10 -42 -41 -110q-19 -45 -37 -78q-15 -30 -36 -61
q-45 63 -79 140q-21 57 -21 103q-30 -12 -57 -19q34 -85 63 -147q27 -52 68 -113q-66 -73 -130 -117q-58 -37 -90 -53q-36 -15 -69 -20zM441 562q39 4 66 5q436 0 447 -3q4 0 8 -2v46q-33 -1 -66 -5l-416 1l-39 4v-46zM631 760q-9 -6 -16 -14q10 -13 42 -41q33 -33 75 -85
q21 18 35 35l-118 120zM743 487q102 -75 162 -148q15 15 34 36q-45 48 -165 146q-9 -9 -31 -34zM414 339q21 -10 53 -32q39 40 69 77l32 40l26 31q12 13 48 40q-36 18 -56 32q-18 -37 -60 -87q-37 -43 -63 -69q-21 -18 -49 -32zM334 565q60 -3 65 -5v47q-9 -3 -28 -4
l-147 -2q3 6 6 11q6 12 11 23q42 81 46 84q7 12 25 26q-24 7 -39 12q-9 3 -24 10q-27 -85 -75 -171q-84 -135 -146 -178q27 -10 49 -29q39 48 66 84q25 36 60 92h131zM221 239l-151 4q-3 1 -5 1v-46q39 4 66 5h90v-239q0 -19 -3 -34q-3 -18 -19 -32q18 -18 35 -41l27 30
q4 3 56 55q69 70 97 94l-17 58q-49 -67 -138 -149v258l111 -1l41 -4v46q-33 -1 -66 -5h-86v153q87 0 100 -2q9 0 21 -3v46q-33 -1 -67 -5l-192 5v-46q54 6 86 5h14v-153z" />
  </g>

</svg>
