<?xml version="1.0" standalone="no"?>
<!DOCTYPE svg PUBLIC "-//W3C//DTD SVG 1.1//EN" "http://www.w3.org/Graphics/SVG/1.1/DTD/svg11.dtd" >
<svg xmlns="http://www.w3.org/2000/svg" xmlns:xlink="http://www.w3.org/1999/xlink" version="1.1" viewBox="-10 0 1010 1000">
   <path fill="currentColor"
d="M575 -6q111 3 110 12q-2 4 -8 9q-15 11 -18 41q-1 8 -2 27q-3 33 -4 42h139q82 0 117 -10v80q-24 -9 -113 -8h-147q-6 50 -12 89h127q59 0 111 -8v76q-24 -9 -113 -8h-133q-6 27 -16 81h224q72 -1 119 -10v76q-40 -9 -121 -8v101q69 -1 113 -10v71q-23 -6 -113 -6v201
q9 61 -152 69q-3 -49 -36 -89q77 10 96 1q22 -7 21 -47v-135h-214q-59 144 -135 238q-10 -4 -28 -12q-40 -18 -66 -25q136 -98 203 -355h-34q-82 -1 -115 8v-76q52 8 113 8h52q9 -37 14 -81h-34q-68 0 -97 6v-72q34 6 97 6h43q2 -15 5 -40q4 -33 5 -47h-57q-84 -1 -127 8
v-76q48 8 117 8h71q5 -82 -2 -135zM196 0q93 31 98 40q0 4 -9 8q-19 7 -29 22q-21 30 -46 71h56q66 0 99 -6v74q-41 -9 -101 -8h-85q-61 86 -108 147q-19 -42 -43 -66q112 -122 168 -282zM764 477h-163l-36 99h199v-99zM633 657q25 34 48 105l-72 20q-18 -59 -46 -105z
M196 300h54q69 -1 105 -4v71q-36 -6 -109 -5v111q66 0 111 -8v81q-48 -9 -111 -8v197q54 -41 117 -110q4 60 16 88q-124 91 -183 149q-9 9 -11 9t-13 -18q-23 -36 -39 -51l4 -4q36 -34 38 -50v-208q-78 -1 -119 8v-81q51 8 119 8v-113q-38 -1 -62 5v-67q6 -1 42 -1
q26 1 41 1z" />
</svg>
