<?xml version="1.0" standalone="no"?>
<!DOCTYPE svg PUBLIC "-//W3C//DTD SVG 1.1//EN" "http://www.w3.org/Graphics/SVG/1.1/DTD/svg11.dtd" >
<svg xmlns="http://www.w3.org/2000/svg" xmlns:xlink="http://www.w3.org/1999/xlink" version="1.1" viewBox="-10 0 1034 1024">
  <g transform="matrix(1 0 0 -1 0 820)">
   <path fill="currentColor"
d="M371 -97q24 -9 47 -20q3 16 12 37l96 287q-16 10 -34 28q-19 -76 -33 -118l-25 -73q-42 -111 -63 -141zM389 679q72 -48 131 -123q6 10 22 24q3 3 7 6q-30 30 -57 55l-76 67q-13 -16 -27 -29zM897 340l-6 -373q-1 -3 -1 -9q-1 -16 -10 -28q-15 -15 -66 -16q-33 0 -75 11
q4 -19 6 -30q0 -6 2 -21l64 2q69 3 90 19t25 70q3 48 5 112q3 267 6 287q0 9 2 17q-30 -1 -61 -5h-237q24 27 44 57q120 153 124 158l69 87q9 15 20 28q-22 -1 -34 -2q-25 -3 -32 -3l-230 1q-24 3 -30 4v-46q9 3 54 6h194q-10 -10 -46 -62q-69 -84 -126 -162
q-33 -42 -47 -55q-18 -15 -39 -26l30 -45q27 24 56 24h32q-25 -120 -101 -201q-24 -24 -52 -33q25 -15 43 -34q57 63 89 117q27 51 62 151h80q-16 -102 -57 -195q-54 -115 -136 -180q-54 -39 -92 -44q27 -24 32 -30q1 -1 10 -12q72 49 110 89q82 88 128 207q10 28 19 61
l25 104h57zM108 440q42 54 58 78q9 12 23 35l167 -1q18 -1 36 -5v47q-10 -1 -22 -4l-160 -1q10 18 20 40q33 63 40 73q9 12 30 23q-27 12 -56 32q-16 -54 -41 -103q-48 -93 -85 -140q-31 -39 -64 -54q21 -12 44 -33q4 7 10 13zM226 378v-137h-73q-45 0 -65 6v-47q15 4 36 5
l102 1v-231q0 -46 -30 -72l34 -41l24 34q15 16 40 47q58 69 95 102q-12 16 -22 39q-24 -33 -65 -79q-13 -15 -39 -40v241l88 -1q19 -1 41 -5v47q-6 -3 -12 -4q-12 0 -51 -2h-66v137h41q33 0 52 -3q1 0 11 -2v46q-9 -3 -22 -3q-21 0 -41 -2h-122q-46 0 -65 5v-46q24 4 46 5
h63zM377 458q39 -27 75 -60q16 -15 27 -26l23 -29q12 15 31 30q-63 58 -130 115q-12 -15 -26 -30v0z" />
  </g>

</svg>
