<?xml version="1.0" standalone="no"?>
<!DOCTYPE svg PUBLIC "-//W3C//DTD SVG 1.1//EN" "http://www.w3.org/Graphics/SVG/1.1/DTD/svg11.dtd" >
<svg xmlns="http://www.w3.org/2000/svg" xmlns:xlink="http://www.w3.org/1999/xlink" version="1.1" viewBox="-10 0 1010 1000">
   <path fill="currentColor"
d="M206 -4q16 6 44 17q58 22 56 27q3 3 -5 7q-18 11 -27 27q-4 7 -3 5q-33 61 -43 76h48q84 0 123 -8v82q-36 -6 -131 -6h-80q-2 3 -6 10q-40 71 -51 83l67 4h64q71 0 113 -8v83q-36 -6 -115 -6v109q81 0 117 -6v76q-42 -6 -117 -6v180q38 -25 101 -91q5 41 22 84
q-132 92 -186 151q-7 8 -10 9q-2 2 -10 -20q-19 -50 -32 -63l3 -2q37 -23 37 -48v-200q-84 -1 -127 8v-76q46 6 127 6v-111q-51 -1 -64 4v-65q-6 13 -29 39q-5 6 -7 8q-31 -46 -53 -65q102 -83 174 -314zM688 -2q26 63 38 125l-89 12q-7 -60 -38 -119zM919 143q-3 7 -3 25
q-1 13 -1 57v37q0 47 6 74h-92q10 -30 10 -72v-41h-327v35q0 69 6 84h-87q6 -21 6 -78v-29q0 -57 -8 -90q34 9 170 10h173q102 0 147 -12zM605 272q91 19 99 28q1 5 -9 14q-16 14 -22 28q-16 36 -34 89h171q100 -1 128 -10v83q-32 -6 -105 -6q-27 126 -81 209q79 46 181 113
l-36 36q-24 23 -36 35q-79 -68 -157 -125q-117 84 -291 135q-24 -54 -74 -83q216 -28 296 -95q-22 -12 -64 -37q-73 -42 -103 -55q29 -37 68 -133l-129 6v-83q53 10 151 10q3 -7 8 -23q33 -92 39 -136zM752 498h-137q-30 78 -46 108q4 2 12 7q84 47 104 60q43 -57 67 -175z
" />
</svg>
