<?xml version="1.0" standalone="no"?>
<!DOCTYPE svg PUBLIC "-//W3C//DTD SVG 1.1//EN" "http://www.w3.org/Graphics/SVG/1.1/DTD/svg11.dtd" >
<svg xmlns="http://www.w3.org/2000/svg" xmlns:xlink="http://www.w3.org/1999/xlink" version="1.1" viewBox="-10 0 1034 1024">
  <g transform="matrix(1 0 0 -1 0 820)">
   <path fill="currentColor"
d="M109 447q21 28 39 59q15 19 39 61h156q27 0 62 -5v46q-31 -4 -62 -5h-136q60 120 64 123q7 9 25 20q-28 9 -62 25q-39 -130 -128 -258q-36 -46 -70 -74q30 -15 49 -27q1 3 4 6q9 15 20 29zM411 -34q9 -6 13 -9q34 36 68 78q36 45 82 111h232v-212q0 -27 -5 -37
q-7 -9 -36 -15q-25 -3 -49 -4q-22 0 -51 6q12 -31 16 -54q30 0 61 5q48 7 65 15q36 15 37 79v217h61q27 0 62 -5v46q-43 -4 -79 -5h-44v121h75q36 0 62 -5v46q-6 -1 -13 -2l-2 -1q-24 0 -47 -2h-259q13 52 27 117l186 -1q15 0 25 -3q1 -1 8 -2v47q-9 0 -17 -3q-21 -3 -66 -3
h-132q7 57 13 114h172q30 0 62 -5v45q-9 -1 -16 -3q-15 -1 -46 -2h-169q0 57 4 81q0 21 18 44q-31 0 -66 6q6 -45 6 -63l-2 -68l-200 2q-6 3 -13 3v-45h2q0 1 27 4l180 1l-4 -56l-8 -58l-171 3q-6 3 -13 3v-47q3 1 31 5l148 1l-13 -67q-6 -24 -14 -50l-189 2q-6 3 -13 3v-46
q46 4 93 5h96q-64 -162 -162 -259q-18 -19 -34 -32q-12 -9 -36 -23q27 -18 37 -23zM593 182q15 33 31 65q13 27 26 56h156v-121h-213zM685 -33q1 0 3 3q9 9 17 15l-53 60l-55 60q-6 -4 -11 -11q-10 -7 -22 -17q66 -61 109 -123q6 7 12 13zM221 401v-158l-144 4q-6 1 -9 2
v-47q3 0 7 1q19 4 53 5h93v-245q0 -30 -8 -46q-3 -6 -18 -21q24 -27 40 -52q45 69 101 145q13 18 27 34q7 9 22 29q-9 21 -19 48q-21 -34 -45 -66q-24 -34 -62 -84v258h85q28 0 62 -6v47q-12 -1 -16 -4l-92 -2h-39v158h61q28 0 64 -5v46q-9 0 -17 -3l-177 -2l-73 4
q-3 0 -7 1v-46h2q1 1 47 5h62z" />
  </g>

</svg>
