<?xml version="1.0" standalone="no"?>
<!DOCTYPE svg PUBLIC "-//W3C//DTD SVG 1.1//EN" "http://www.w3.org/Graphics/SVG/1.1/DTD/svg11.dtd" >
<svg xmlns="http://www.w3.org/2000/svg" xmlns:xlink="http://www.w3.org/1999/xlink" version="1.1" viewBox="-10 0 1010 1000">
   <path fill="currentColor"
d="M440 -2q97 12 100 20q0 2 -5 7q-17 15 -23 47t-15 88q-3 21 -5 31q107 -3 149 -12q-7 309 -76 460q38 32 82 71q30 28 30 23v-407q0 -155 -10 -191q52 6 115 6h51q66 0 96 -8q-6 48 -6 185v395q0 113 12 144q2 3 2 5h-96q-1 -1 1 -6q7 -35 7 -96h-97q-2 75 5 104q1 4 1 5
h-93q0 -1 1 -6q11 -44 11 -121l-68 60q-41 -61 -79 -95q-85 117 -207 202q-19 -36 -69 -69q139 -60 222 -185q-75 -70 -119 -99q16 -59 53 -272q4 -20 5 -28q-75 0 -94 10v-39q-1 -8 -142 -8q-13 21 -43 63q-9 13 -13 18q11 6 67 6h40q53 0 91 -8v77q-28 -6 -87 -6v116
q66 -3 97 -8v77q-29 -6 -97 -6v157q52 -45 79 -80l28 80q-117 85 -172 157l-50 -72l2 -2q42 -34 42 -53v-185q-73 0 -103 8v-79q34 6 103 6v-116q-36 0 -54 6v-47l-42 59q-13 -21 -45 -53l-10 -10q112 -105 165 -322q78 17 103 34q0 3 -6 7q-17 13 -30 39q-4 8 -14 27
q-14 27 -24 48q96 0 121 -6v40q11 1 32 2h64q9 -55 15 -118q4 -57 2 -77zM752 209v484h95v-484h-95zM562 254h-78q-10 60 -37 220q-7 37 -10 56q21 18 50 42q19 16 23 20q40 -106 52 -338z" />
</svg>
