<?xml version="1.0" standalone="no"?>
<!DOCTYPE svg PUBLIC "-//W3C//DTD SVG 1.1//EN" "http://www.w3.org/Graphics/SVG/1.1/DTD/svg11.dtd" >
<svg xmlns="http://www.w3.org/2000/svg" xmlns:xlink="http://www.w3.org/1999/xlink" version="1.1" viewBox="-10 0 1034 1024">
  <g transform="matrix(1 0 0 -1 0 820)">
   <path fill="currentColor"
d="M174 560h146q24 0 63 -5v46q-9 0 -17 -3l-173 -2l35 75q19 42 51 61l-20 9q-12 3 -19 7q-3 0 -24 12q-24 -84 -66 -163q-54 -96 -108 -138q18 -6 46 -20q1 0 4 -2q7 9 52 77q3 9 30 46zM719 -11q15 -7 52 -33l91 -66l53 -45q7 15 22 30q3 4 8 9q-120 84 -165 112l-52 32
q33 54 55 101q18 45 45 137h74q27 0 62 -6v47q-9 -1 -16 -3q-15 -1 -46 -2h-277q9 33 16 46q4 15 10 28q4 9 13 32q3 9 5 18q12 34 19 43q6 10 26 20q-12 4 -22 7q-21 6 -44 16q-33 -129 -67 -210l-171 4q-3 1 -6 1v-47q60 6 80 6h83q-27 -73 -70 -160l95 -44l80 -43
q-55 -51 -125 -91q-84 -43 -150 -54l26 -24q9 -9 18 -21q165 75 264 168q6 -3 14 -8zM787 266q-33 -132 -92 -215l-56 28l-87 48q30 69 58 139h177zM435 506q0 -42 -5 -60h47q-4 49 -5 76v64h413v-70q0 -42 -5 -59h48l-4 35l1 103q0 15 3 32q-27 -1 -54 -5h-179q12 16 29 29
q-13 19 -63 73q-9 9 -17 18q-12 13 -26 27q-12 -9 -31 -22q-1 -1 -5 -3q79 -75 104 -122l-218 1q-12 3 -38 4q1 -16 2 -27q3 -21 3 -28v-66zM217 385v-154l-122 2q-6 3 -13 3v-46h2l29 4l104 1v-228q0 -33 -21 -53q16 -16 37 -49q97 102 109 112q42 42 71 62l-17 51
q-25 -31 -57 -63q-34 -36 -84 -81v249h65q27 0 63 -5v46q-31 -1 -63 -5h-65v154h35q27 0 62 -5v46q-99 -4 -102 -5l-133 4q-4 1 -7 1v-46q49 4 76 5h31z" />
  </g>

</svg>
