<?xml version="1.0" standalone="no"?>
<!DOCTYPE svg PUBLIC "-//W3C//DTD SVG 1.1//EN" "http://www.w3.org/Graphics/SVG/1.1/DTD/svg11.dtd" >
<svg xmlns="http://www.w3.org/2000/svg" xmlns:xlink="http://www.w3.org/1999/xlink" version="1.1" viewBox="-10 0 1010 1000">
   <path fill="currentColor"
d="M704 -8q33 67 40 116h69q61 0 124 -8v79q-45 -9 -124 -8h-216q-98 0 -151 8v-79q57 8 147 8h62q-14 -60 -46 -102zM204 0q6 1 16 3q99 20 95 29q-1 4 -8 5q-18 5 -33 27q-31 49 -52 77h72q64 0 113 -8v80q-9 -8 -117 -8h-102q-10 15 -25 39q-28 42 -34 50q9 5 79 4h76
q73 0 103 -6v83q-36 -6 -125 -6v116h46q47 0 95 -8v81q-39 -6 -97 -6h-44v173l23 -23q63 -61 88 -90q10 62 24 89q-131 96 -184 171q-7 10 -9 9t-12 -19q-25 -46 -45 -66l4 -4q36 -27 36 -59v-183q-110 0 -133 6v-75q55 4 133 4v-116q-50 -1 -68 4v-65q-6 8 -14 19
q-13 19 -26 33q-17 -35 -59 -62q126 -118 184 -298zM768 189q6 2 17 5q92 22 86 33q0 3 -7 6q-23 9 -35 35q-10 22 -32 60q-8 14 -11 20h47q76 0 123 -8v83q-41 -8 -123 -8h-293q-4 213 -32 304q-29 103 -109 186q-34 -29 -99 -40q102 -59 135 -176q18 -59 22 -141
q5 -80 -3 -206q51 6 117 6h137q32 -60 60 -159zM601 195q28 40 58 109l-82 26q-11 -44 -55 -105z" />
</svg>
