<?xml version="1.0" standalone="no"?>
<!DOCTYPE svg PUBLIC "-//W3C//DTD SVG 1.1//EN" "http://www.w3.org/Graphics/SVG/1.1/DTD/svg11.dtd" >
<svg xmlns="http://www.w3.org/2000/svg" xmlns:xlink="http://www.w3.org/1999/xlink" version="1.1" viewBox="-10 0 1034 1024">
  <g transform="matrix(1 0 0 -1 0 820)">
   <path fill="currentColor"
d="M832 192q0 -6 -5 -67q-9 -129 -14 -153q-6 -36 -23 -47q-22 -15 -71 -15q-27 0 -60 5q7 -22 15 -54q15 0 34 3q93 4 120 35q24 30 31 146l7 88q3 19 5 43q3 28 7 57q-60 -6 -80 -6h-124q1 57 7 81q3 22 13 46q-33 0 -59 5l1 -76q-3 -27 -3 -56l-149 2q-12 1 -23 4v-47
q10 3 55 6h114q-22 -183 -155 -264q-54 -33 -95 -42q30 -24 44 -45q40 24 97 69q75 61 118 156q9 27 16 51q7 28 16 75h161zM609 622v89q0 9 3 30q3 18 12 34h-59q6 -42 6 -99v-54h-78q-24 0 -52 3q-1 0 -14 2v-46q30 3 62 5h82l-4 -103q-1 -1 -2 -6h51q-4 19 -5 31l-2 78
h157q-3 -90 -5 -106h49q0 3 -2 7q0 3 -4 60v39q132 0 142 -3q3 0 8 -2v46q-9 -1 -28 -3l-122 -2v92q0 7 3 29q1 18 10 34h-56q1 -30 5 -63v-92h-157zM435 438q1 -30 5 -63q0 -45 -2 -76l-3 -20h47q-3 7 -4 33l-1 85h437q0 -67 -2 -98l-3 -20h48q-3 7 -4 33l1 89q0 15 3 37
q-18 -1 -35 -3q-24 -3 -60 -3l-379 1q-24 4 -48 5zM336 556q27 0 57 -3q3 0 8 -2v47q-66 -6 -79 -6h-94l15 37q28 64 40 83q10 19 31 42q-39 12 -59 22q-15 -58 -40 -114q-30 -69 -52 -109q-10 -21 -17 -31q-7 -12 -17 -26q-36 -52 -74 -85q25 -12 51 -23q39 55 56 84
q1 3 50 84h124zM237 233h-90q-24 0 -51 3q-1 0 -14 2v-46q39 4 65 5h90v-219q0 -12 -5 -30q-4 -13 -19 -31q13 -16 30 -45q30 33 123 115q4 7 20 19q15 16 36 31q-6 30 -11 58q-15 -19 -31 -36q-19 -21 -60 -58q-16 -18 -45 -41v237q93 0 115 -3q6 0 15 -2v46q-12 -1 -14 -2
l-103 -3h-13v146q78 0 92 -2q9 0 20 -3v46q-33 -1 -66 -5l-144 1q-31 3 -38 4v-46q45 4 81 5h17v-146z" />
  </g>

</svg>
