<?xml version="1.0" standalone="no"?>
<!DOCTYPE svg PUBLIC "-//W3C//DTD SVG 1.1//EN" "http://www.w3.org/Graphics/SVG/1.1/DTD/svg11.dtd" >
<svg xmlns="http://www.w3.org/2000/svg" xmlns:xlink="http://www.w3.org/1999/xlink" version="1.1" viewBox="-10 0 1034 1024">
  <g transform="matrix(1 0 0 -1 0 820)">
   <path fill="currentColor"
d="M134 470q25 34 56 83h143q31 0 62 -6v47q-30 -3 -62 -4h-121l40 76q18 39 29 51q6 9 31 25q-39 10 -69 23q-27 -118 -128 -251q-21 -27 -33 -39t-32 -29q24 -9 49 -24q16 24 35 48zM661 590l-213 1q-9 3 -17 4v-46q46 4 93 5h137v-110l-159 1q-15 3 -37 4q1 -16 2 -27
q3 -21 3 -27v-503q0 -42 -5 -60h48q-6 31 -6 53v176h154v-136q0 -42 -5 -60h48q-4 49 -5 69v127h174v-133q0 -30 -10 -34q-15 -6 -36 -7q-6 0 -47 4q12 -33 15 -50q19 0 45 5q33 6 49 13q21 12 22 53l1 499l4 38q-27 -1 -54 -5h-163v110h205q30 0 62 -5v46q-30 -4 -62 -5
h-205q0 151 3 157q1 15 11 30h-57q4 -25 5 -62v-125zM507 278v130h154v-130h-154zM507 97v145h154v-145h-154zM873 278h-174v130h174v-130zM699 97v145h174v-145h-174zM761 714q79 -55 121 -100q7 12 29 34q-102 85 -122 101q-7 -12 -9 -15q-3 -4 -19 -20zM219 386v-154
l-151 4q-4 1 -7 1v-46q3 1 50 5h108v-258q0 -33 -8 -46q-3 -3 -5 -6l-14 -14q21 -21 39 -51q40 48 87 98q43 48 83 79q-3 15 -6 26q0 10 -5 29q-72 -81 -133 -138v281h75q27 0 62 -5v46q-7 0 -16 -3l-121 -2v154h52q28 0 64 -5v46q-9 0 -17 -3l-178 -2l-62 4q-4 1 -7 1v-46
q3 3 45 5h65z" />
  </g>

</svg>
