<?xml version="1.0" standalone="no"?>
<!DOCTYPE svg PUBLIC "-//W3C//DTD SVG 1.1//EN" "http://www.w3.org/Graphics/SVG/1.1/DTD/svg11.dtd" >
<svg xmlns="http://www.w3.org/2000/svg" xmlns:xlink="http://www.w3.org/1999/xlink" version="1.1" viewBox="-10 0 1010 1000">
   <path fill="currentColor"
d="M187 -4q86 30 99 44q0 3 -9 10q-20 16 -33 36q-28 44 -32 55h36q58 0 117 -8v84q-39 -9 -123 -8h-63q-21 36 -60 99q2 0 5 1q25 7 74 7h50q72 0 113 -8v81q-33 -9 -111 -6v109q62 0 125 -7v87q-34 -10 -125 -10v182q42 -34 107 -109l28 92q-118 87 -200 172l-44 -83
q33 -26 34 -62v-190q-75 -1 -113 8v-87q53 7 113 7v-109q-44 -1 -60 4v-73q-9 13 -29 37q-9 11 -13 16q-16 -36 -49 -69q104 -106 163 -302zM534 22q85 1 93 10q0 2 -4 8q-14 24 -14 60v343q46 -22 117 -97q-37 -64 -71 -197l53 -20q-12 1 -30 1q-29 2 -33 3v-81
q43 9 115 10h61q63 0 108 -6q-34 158 -114 290q59 65 131 85q-40 35 -63 75q-55 -34 -113 -97q-47 56 -82 87q-33 -31 -79 -45q0 11 4 21q2 4 2 5h-87q10 -51 10 -157v-177q0 -57 -1 -80q-1 -27 -3 -41zM403 58q93 4 89 10q0 3 -3 11q-11 29 -11 64v175q0 90 10 121h-89
q8 -52 8 -119v-161q0 -65 -4 -101zM599 494q90 5 97 14q0 3 -4 10q-11 19 -11 44v34h65q90 -1 125 -10v83q-48 -6 -129 -6h-61v133h99q82 0 160 -8v93q-42 -10 -164 -10h-242q-139 0 -177 10v-97q11 11 169 12h75v-133h-51q-96 -1 -127 8v-87q32 12 123 12h57v-38
q0 -28 -4 -64zM728 129q18 97 44 157q34 -58 61 -157h-105z" />
</svg>
