<?xml version="1.0" standalone="no"?>
<!DOCTYPE svg PUBLIC "-//W3C//DTD SVG 1.1//EN" "http://www.w3.org/Graphics/SVG/1.1/DTD/svg11.dtd" >
<svg xmlns="http://www.w3.org/2000/svg" xmlns:xlink="http://www.w3.org/1999/xlink" version="1.1" viewBox="-10 0 1034 1024">
  <g transform="matrix(1 0 0 -1 0 820)">
   <path fill="currentColor"
d="M711 735q6 -105 6 -172h-248q-24 0 -51 3l-15 2v-47q9 3 15 3q27 1 51 3h250l5 -128l16 -171q9 -66 21 -127q27 -129 80 -198q36 -46 65 -47q30 0 47 43q6 15 11 36q4 21 11 58q-9 3 -20 9q-15 7 -29 20l1 -45q0 -66 -31 -67q-9 0 -19 14q-18 19 -31 46q-30 66 -45 128
q-21 102 -28 149q-3 24 -11 142l-5 138l185 -3l2 -1q3 0 7 -2v47q-12 -1 -14 -2l-104 -3h-77q-3 84 -3 111t5 48q3 19 12 35q-24 0 -59 3v-25zM583 357q4 -6 17 -19q18 15 33 29l-118 118l-34 -27q39 -30 59 -54zM645 29q0 -33 -6 -51q-10 -31 -49 -32q-25 0 -34 10
q-7 12 -8 38l1 284q0 21 4 29q0 1 8 18h-56q1 -31 5 -64l1 -294q3 -25 16 -40q16 -18 57 -19q66 0 87 40q9 24 22 85q-12 6 -22 10q-7 3 -12 6q-4 3 -14 8v-28zM890 672q-7 7 -67 62q-12 -16 -26 -31q69 -57 106 -104q15 21 28 33q-21 19 -41 40zM730 68q10 6 22 12
q-3 7 -52 102l-34 71q-27 -18 -39 -25q15 -22 44 -81q24 -51 40 -91q9 6 19 12zM456 249q-7 1 -13 2q-6 0 -23 8q-1 -48 -10 -99q-10 -51 -19 -78q-4 -16 -17 -45q18 -3 48 -11q18 82 27 146q6 42 25 70q-9 4 -18 7zM166 532q7 13 15 25q162 0 181 -2q13 0 20 -3v47
q-9 -1 -62 -6h-118q6 15 14 30q21 54 35 79q10 22 32 42q-4 1 -8 3q-16 3 -35 13q-4 0 -15 5q-36 -130 -118 -251q-36 -49 -69 -77q25 -6 52 -23l48 72q13 24 28 46zM220 242l-133 3q-7 1 -14 3v-47q63 6 81 6h66v-254q0 -18 -3 -33q-4 -18 -20 -32q21 -21 37 -44
q16 19 27 34l41 48q27 31 49 53q3 6 11 14q-9 25 -17 50q-40 -60 -87 -108v272q75 0 100 -2l33 -4v47q-3 0 -6 -1q-30 -1 -60 -5h-67v153q72 0 84 -2q9 0 20 -3v46q-33 -1 -65 -5l-155 2q-1 0 -25 3v-46q54 6 89 5h14v-153z" />
  </g>

</svg>
