<?xml version="1.0" standalone="no"?>
<!DOCTYPE svg PUBLIC "-//W3C//DTD SVG 1.1//EN" "http://www.w3.org/Graphics/SVG/1.1/DTD/svg11.dtd" >
<svg xmlns="http://www.w3.org/2000/svg" xmlns:xlink="http://www.w3.org/1999/xlink" version="1.1" viewBox="-10 0 1034 1024">
  <g transform="matrix(1 0 0 -1 0 820)">
   <path fill="currentColor"
d="M362 567q27 0 63 -5v46q-33 -4 -63 -5h-150l53 105q0 1 2 5l5 8q9 19 31 30q-24 12 -57 32q-12 -43 -27 -82q-27 -63 -55 -109q-27 -45 -55 -79q-21 -22 -56 -51q21 -9 49 -27q43 57 92 132h168zM460 692q72 -78 121 -158q15 15 34 28q-27 39 -59 78l-64 81
q-9 -10 -22 -20q-6 -4 -10 -9zM492 483q1 -28 5 -59l-1 -562q-1 -15 -4 -24h47l-4 35l-1 201h349v-147q0 -34 -21 -39q-21 -3 -42 -3q-27 0 -50 5q12 -30 17 -55q51 3 81 8q24 3 36 13q18 13 18 56l1 530q0 16 4 41q-27 -1 -54 -5h-144v245q0 6 2 25q1 18 13 38h-58
q1 -30 5 -63v-245l-156 1q-15 3 -43 4zM534 110v155h349v-155h-349zM534 300v142h349v-142h-349zM807 556q9 -6 15 -8q9 -3 22 -16l53 84q27 45 38 61q12 16 36 29q-34 18 -57 33q-12 -31 -38 -79q-21 -39 -37 -64q-13 -21 -32 -40zM242 398v-153l-136 3q-6 3 -13 3v-47
q4 0 7 2q24 3 52 4h90v-232q0 -36 -6 -50q-4 -12 -20 -25q24 -21 42 -45q7 9 15 18q6 7 90 104q12 12 23 24l36 40q-6 16 -15 46q-21 -28 -44 -55q-45 -49 -83 -88v263h85q31 0 64 -6v47q-36 -6 -87 -6h-62v153h61q28 0 63 -5v46q-31 -1 -63 -5l-193 4q-3 1 -5 1v-46
q46 4 96 5h3z" />
  </g>

</svg>
