<?xml version="1.0" standalone="no"?>
<!DOCTYPE svg PUBLIC "-//W3C//DTD SVG 1.1//EN" "http://www.w3.org/Graphics/SVG/1.1/DTD/svg11.dtd" >
<svg xmlns="http://www.w3.org/2000/svg" xmlns:xlink="http://www.w3.org/1999/xlink" version="1.1" viewBox="-10 0 1010 1000">
   <path fill="currentColor"
d="M208 10q88 31 96 46q0 4 -12 10q-21 11 -30 24q-15 20 -50 85h46q52 0 115 -8v81q-42 -10 -119 -10h-73q-39 58 -70 94q21 4 89 4h30q41 0 117 -8v77q-44 -6 -107 -6v117q53 0 109 -8v82q-42 -6 -109 -6v164q41 -30 79 -69l6 20l20 59q-122 83 -176 139l-38 -79
q42 -33 42 -44v-188q-87 -1 -127 8v-84q62 8 127 8v-119q-60 0 -82 6v-43l-24 23q-14 -33 -43 -63q132 -130 184 -312zM677 -2q104 7 107 16q0 3 -6 8q-21 19 -24 60q-6 50 -6 113q119 0 179 -12v89q-42 -8 -123 -8h-54q3 396 111 510q18 -8 28 -119q28 44 73 66
q-45 155 -83 172q-58 8 -123 -145q-76 -204 -77 -484h-123q-108 -1 -159 8v-85q72 10 157 10h123v-199zM466 485q81 5 84 13q0 3 -4 10q-10 17 -10 44v167q-5 48 39 43q52 2 48 -87q30 22 71 36q-17 119 -99 121h-45q-53 1 -67 -17q-16 -16 -15 -77v-146q0 -87 -2 -107z
M401 701q-40 -7 -76 -2q49 -82 56 -224q30 0 73 10q0 3 -4 9q-11 14 -13 38q-11 77 -36 169zM633 481q28 45 59 154l-69 14q-25 -108 -56 -155zM528 308q31 45 71 145l-65 26q-27 -82 -66 -147zM837 38q32 36 62 95l-72 36q-14 -48 -49 -101z" />
</svg>
