<?xml version="1.0" standalone="no"?>
<!DOCTYPE svg PUBLIC "-//W3C//DTD SVG 1.1//EN" "http://www.w3.org/Graphics/SVG/1.1/DTD/svg11.dtd" >
<svg xmlns="http://www.w3.org/2000/svg" xmlns:xlink="http://www.w3.org/1999/xlink" version="1.1" viewBox="-10 0 1034 1024">
  <g transform="matrix(1 0 0 -1 0 820)">
   <path fill="currentColor"
d="M180 563h159q27 0 62 -5v46q-43 -4 -71 -5h-132q16 31 35 62q12 21 20 31q15 30 45 39q-13 9 -26 16q-18 9 -34 21q-22 -55 -40 -92q-15 -31 -36 -65q-61 -102 -117 -146q4 -1 47 -23l2 -2q13 21 19 26l42 61q12 18 25 36zM356 -118q21 -27 35 -50q93 42 140 73
q45 31 85 79q45 60 61 112q13 51 21 168q4 52 7 59q3 13 14 27q-34 3 -63 9q3 -31 4 -55l-1 -60q-3 -81 -20 -138q-18 -57 -65 -113q-45 -48 -111 -81q-42 -19 -107 -30zM562 559q9 12 21 20l-104 112q-9 10 -19 21l-30 -29q37 -34 65 -63q27 -30 58 -70zM478 488
q3 -63 4 -90l-1 -305q-1 -15 -4 -26h47q-3 30 -5 60v330h336v-318q0 -42 -5 -60h48l-4 36l-1 326q1 28 5 57q-27 -1 -54 -5h-140v218q0 6 2 24q1 18 12 38h-57q1 -30 5 -62v-218l-149 1q-15 3 -40 4q0 -4 1 -10zM936 -153q7 7 12 14q1 0 4 4l9 9q-58 54 -98 84l-121 99
q-15 -18 -32 -33q52 -37 104 -80q48 -39 74 -64q19 -21 39 -43q4 6 9 10zM854 622q15 18 30 40q18 24 43 33q-18 12 -47 38q-28 -48 -59 -91q-33 -45 -58 -66q27 -18 37 -28q10 12 21 28zM226 387v-142l-147 3q-6 3 -13 3v-47q4 0 7 2q25 3 53 4h100v-230q0 -21 -6 -40
q-6 -10 -19 -21q24 -27 40 -55q21 25 43 58l109 129q-6 24 -15 52q-33 -48 -54 -73q-48 -54 -60 -72v252h85q31 0 64 -6v47q-9 0 -17 -3q-21 -3 -87 -3h-45v142h49q28 0 64 -5v46q-31 -1 -64 -5l-182 3q-1 0 -4 1t-6 1v-46q3 1 49 5h56z" />
  </g>

</svg>
