<?xml version="1.0" standalone="no"?>
<!DOCTYPE svg PUBLIC "-//W3C//DTD SVG 1.1//EN" "http://www.w3.org/Graphics/SVG/1.1/DTD/svg11.dtd" >
<svg xmlns="http://www.w3.org/2000/svg" xmlns:xlink="http://www.w3.org/1999/xlink" version="1.1" viewBox="-10 0 1010 1000">
   <path fill="currentColor"
d="M704 -10q10 0 27 1q69 2 69 7q3 4 -4 13q-12 17 -12 37q-2 71 -2 159h33q65 0 110 -8q0 4 -1 13q-3 63 -3 94q-1 293 -4 373q-2 91 -10 125q-4 54 -133 75q-2 -54 -42 -93q56 9 81 0q21 -2 26 -89q6 -47 10 -427h-67q-8 322 -41 434q-28 116 -134 203q-38 -33 -85 -42
q116 -62 149 -177q38 -108 43 -418q-47 -1 -83 8v-77q39 6 83 6q0 -181 -10 -217zM179 18q9 2 26 7q77 19 71 29q-1 4 -6 7q-16 9 -30 33q-12 23 -34 61h44q58 0 97 -6v74q-24 -9 -105 -8h-67q-20 27 -43 61q-14 21 -21 30q7 3 23 3q11 1 51 1h41q69 0 109 -6v69
q-35 -6 -103 -6v114q73 0 115 -6v73q-36 -6 -115 -6v193q1 -1 12 -15q47 -57 73 -95q16 55 32 70q-97 99 -149 178q-8 12 -10 12q-1 -1 -3 -5q-19 -36 -46 -66q-1 -1 8 -9q20 -21 20 -29v-232q-78 0 -109 6v-75q35 6 109 6v-114q-48 0 -72 6v-45l-30 41q-8 -52 -25 -85
q100 -112 137 -266zM544 127h-104v155h104v-155zM440 342v154h104v-154h-104zM440 556v165l104 -24v-141h-104zM651 737q-218 52 -292 85q-5 2 -6 2q-1 -1 -4 -15q-12 -44 -22 -71q1 -1 8 -2q19 -2 38 -9v-536q0 -89 -8 -131q41 8 105 8h36q65 0 109 -4q-2 15 -3 39
q-1 11 -1 27v45v504q6 -2 22 -9q19 -7 30 -11q-3 36 -12 78z" />
</svg>
