<?xml version="1.0" standalone="no"?>
<!DOCTYPE svg PUBLIC "-//W3C//DTD SVG 1.1//EN" "http://www.w3.org/Graphics/SVG/1.1/DTD/svg11.dtd" >
<svg xmlns="http://www.w3.org/2000/svg" xmlns:xlink="http://www.w3.org/1999/xlink" version="1.1" viewBox="-10 0 1034 1024">
  <g transform="matrix(1 0 0 -1 0 820)">
   <path fill="currentColor"
d="M66 453q12 -9 27 -20q27 30 50 60q24 33 56 78h151q24 0 63 -5v46l-39 -4l-154 -1l35 66q22 42 51 54q-27 15 -60 36q-49 -148 -130 -237q-34 -37 -68 -61zM455 -100q0 -42 -6 -59h49q-6 24 -6 52v406h179q-19 -157 -99 -229q-39 -36 -74 -52l14 -11q13 -13 29 -24
q31 28 59 59q51 61 80 131q109 -105 159 -198q15 21 32 37q-43 57 -79 96l-52 57l-46 51q10 40 18 83h187v-357q0 -48 -45 -55q-33 -3 -57 -4q-15 1 -36 4q13 -31 22 -54q51 6 72 11q45 9 63 22q18 18 19 65l1 367q1 21 5 43q-54 -6 -81 -6h-147l6 119q123 0 134 -2l36 -4
q-6 57 -6 77l1 146q1 19 5 40q-27 -1 -55 -5l-309 1l-39 4q1 -18 4 -26q3 -21 3 -68l-1 -127l-6 -42q54 6 84 6h110l-1 -61q0 -24 -5 -58l-185 1q-6 1 -42 5l6 -60v-381zM531 489v181h316v-181h-316zM221 407v-157l-147 2q-6 3 -13 3v-46q46 4 92 5h68v-247q0 -33 -3 -45
q-3 -15 -21 -26q25 -27 40 -52q51 60 161 154q-3 24 -5 57q-27 -30 -55 -56q-28 -30 -79 -73v288h84q30 0 62 -5v46l-101 -5h-45v157h62q27 0 63 -5v46q-30 -4 -63 -5l-186 3q-1 0 -4 1t-5 1v-46q3 3 45 5h50z" />
  </g>

</svg>
