<?xml version="1.0" standalone="no"?>
<!DOCTYPE svg PUBLIC "-//W3C//DTD SVG 1.1//EN" "http://www.w3.org/Graphics/SVG/1.1/DTD/svg11.dtd" >
<svg xmlns="http://www.w3.org/2000/svg" xmlns:xlink="http://www.w3.org/1999/xlink" version="1.1" viewBox="-10 0 1034 1024">
  <g transform="matrix(1 0 0 -1 0 820)">
   <path fill="currentColor"
d="M645 -100q0 -39 -5 -65h50q-6 30 -6 54v352q87 -138 181 -225l50 -46q10 -12 23 -24q45 36 47 37q0 1 1 1q-31 15 -62 40q-27 21 -78 72q-76 75 -140 187l206 -1q25 0 38 -4l2 -1v48q-9 -3 -14 -3q-27 -1 -52 -3h-202v284l216 -3l2 -1q3 0 6 -1v46q-6 0 -14 -3l-189 -2
h-21q0 102 3 112q0 6 11 25h-58l4 -36l1 -101l-161 1q-31 3 -39 4v-46q54 4 75 5h125v-284l-238 5q-1 1 -2 1v-48q19 4 36 5l181 1q-30 -63 -113 -173q-90 -108 -162 -145q33 -15 51 -27q57 51 125 129q33 40 60 77q27 39 62 94v-338zM442 499q21 -19 39 -40q13 -15 63 -86
q9 6 16 12q3 3 18 13l-53 66q-19 24 -54 62q-12 -13 -29 -27zM821 435q39 66 43 68q6 7 26 22q-7 6 -15 10q-18 9 -35 19q-12 -28 -34 -68q-25 -45 -59 -86q18 -7 39 -22q3 9 35 57zM165 545q9 15 20 28l180 -1q19 0 28 -4v46q-10 -3 -28 -3q-24 -1 -160 -2q9 21 19 37
l20 40q16 34 20 36q9 13 29 24q-33 13 -60 28q-9 -30 -23 -62q-16 -36 -34 -69q-18 -36 -23 -43q-55 -100 -120 -148q24 -7 47 -24q46 58 55 72zM221 272q-94 0 -123 2q-12 3 -25 3v-46q39 4 66 5h82v-210q0 -21 -3 -37q-3 -15 -17 -29q18 -21 37 -45q0 4 17 24q13 16 29 33
q9 15 45 55q4 6 10 11l51 60q-7 27 -13 53q-12 -21 -48 -65q-33 -39 -70 -78v228l81 -1l41 -4v46q-33 -1 -66 -5h-56v133q85 0 99 -2q9 0 21 -3v46l-111 -5q-100 0 -128 2q-12 3 -25 3v-46q45 4 82 5h24v-133z" />
  </g>

</svg>
