<?xml version="1.0" standalone="no"?>
<!DOCTYPE svg PUBLIC "-//W3C//DTD SVG 1.1//EN" "http://www.w3.org/Graphics/SVG/1.1/DTD/svg11.dtd" >
<svg xmlns="http://www.w3.org/2000/svg" xmlns:xlink="http://www.w3.org/1999/xlink" version="1.1" viewBox="-10 0 1034 1024">
  <g transform="matrix(1 0 0 -1 0 820)">
   <path fill="currentColor"
d="M170 511l26 44h173q39 0 52 -3l11 -2v46q-9 -3 -22 -3q-19 0 -41 -2h-157q12 21 24 51q18 45 33 68q9 15 28 26q-33 10 -62 23q-21 -112 -136 -290q-25 -36 -53 -53q18 -6 40 -19q4 -1 11 -7q36 55 40 65zM231 236h-95q-45 0 -65 6v-47q16 4 103 5h57v-246q0 -22 -9 -44
q-3 -7 -13 -22l34 -43q30 46 67 86l88 90q12 9 22 19q-6 25 -8 51q-36 -42 -69 -73q-37 -37 -75 -77v259h82q37 0 63 -5v47q-7 -1 -13 -4q-18 -1 -50 -2h-82v136q105 0 113 -3q7 0 14 -3v47q-15 -4 -33 -5l-216 1q-3 1 -5 2q-3 0 -12 2v-47q9 1 12 4l90 2v-136zM665 -66
h-196q-27 0 -52 3q-3 0 -13 3v-47l63 5l465 -1l28 -4v47q-10 -3 -23 -4q-21 0 -41 -2h-193v182q168 0 187 -3l10 -2v46l-98 -5h-99v153l200 -1q3 0 28 -4v46q-10 -1 -22 -4l-437 1l-15 3v-46q6 0 12 3q15 0 52 2h144v-153l-164 1q-24 3 -27 4v-46q12 3 38 4l153 1v-182z
M828 441q27 -1 56 -5q-6 51 -5 83l1 153l4 44q-90 -4 -92 -5l-251 1q-19 3 -44 4q1 -31 5 -65l-1 -172q-3 -12 -4 -43q49 4 99 5h232zM841 477h-302v199h302v-199z" />
  </g>

</svg>
