<?xml version="1.0" standalone="no"?>
<!DOCTYPE svg PUBLIC "-//W3C//DTD SVG 1.1//EN" "http://www.w3.org/Graphics/SVG/1.1/DTD/svg11.dtd" >
<svg xmlns="http://www.w3.org/2000/svg" xmlns:xlink="http://www.w3.org/1999/xlink" version="1.1" viewBox="-10 0 1010 1000">
   <path fill="currentColor"
d="M694 -6q20 53 30 123h95q65 0 98 -7v85q-38 -9 -96 -8h-265q-63 0 -106 8v-85q35 8 104 7h79q-8 -71 -26 -117zM181 -4q62 11 97 24q15 6 -10 29q-16 14 -20 21q-5 9 -20 37q-12 21 -18 32h98q68 0 99 -6v78q-36 -6 -97 -6h-129q-22 40 -56 87q29 6 85 6h105q51 1 82 -6
v75q-37 -5 -117 -5v111q87 0 133 -8v85q-41 -7 -133 -6v58v123q61 -40 109 -92l30 80q-111 74 -205 162l-51 -75q39 -25 39 -48v-208q-97 0 -142 6v-83q36 6 142 6v-111q-54 -1 -85 7v-59l-50 69q-9 -50 -37 -77q108 -136 151 -306zM764 213q20 7 51 18q28 10 36 13
q19 8 -2 27q-11 10 -14 15q-20 33 -59 115h73q60 0 101 -8v90q-37 -9 -97 -8h-145v133h129q65 1 92 -8v83q-29 -9 -92 -8h-129v137q-1 66 8 91h-91q9 -22 8 -91v-137h-89q-69 -1 -104 8v-83q35 9 104 8h89v-133h-91q-62 0 -107 6v-86q32 8 103 8h168q49 -106 58 -190z
M581 229q39 77 56 131l-81 21q-20 -80 -52 -135z" />
</svg>
