<?xml version="1.0" standalone="no"?>
<!DOCTYPE svg PUBLIC "-//W3C//DTD SVG 1.1//EN" "http://www.w3.org/Graphics/SVG/1.1/DTD/svg11.dtd" >
<svg xmlns="http://www.w3.org/2000/svg" xmlns:xlink="http://www.w3.org/1999/xlink" version="1.1" viewBox="-10 0 1034 1024">
  <g transform="matrix(1 0 0 -1 0 820)">
   <path fill="currentColor"
d="M319 563q54 0 64 -5q0 1 2 0v46q-54 -6 -74 -6h-104q4 12 10 22l47 79q18 24 41 32q-37 15 -64 34q-7 -28 -15 -45q-6 -18 -32 -64q-21 -37 -39 -64q-76 -112 -127 -131q18 -10 29 -17q21 -13 25 -16q37 46 102 135h135zM216 392v-144q-97 0 -122 2q-7 3 -20 4v-47
q30 4 47 5h95v-267q0 -13 -6 -25q-4 -10 -21 -20q9 -9 13 -14q1 0 19 -25q1 -1 3 -4q12 15 53 56l88 80q6 6 13 11q-7 24 -13 56q-27 -45 -111 -120v272q60 0 126 -3q1 0 5 -2v47q-24 -6 -70 -6h-61v144q97 0 104 -3q3 0 8 -2v46q-10 0 -26 -3l-95 -2q-93 0 -113 2
q-6 3 -19 3v-46q3 0 5 1q3 1 7 1q6 3 69 3h22zM524 193q3 18 9 39q1 4 8 11l-59 6q3 -33 4 -65q0 -51 -6 -106q-7 -70 -35 -114q-24 -39 -64 -63q-30 -15 -78 -27q28 -24 42 -41q63 30 106 76q36 39 53 92q13 48 19 148q0 22 1 44zM863 579q30 -3 52 -3q6 0 13 -4v48
q-13 -6 -65 -6h-378q-33 0 -54 4q-4 1 -8 1q-3 1 -6 1v-48q4 4 15 5l202 2q-9 -18 -19 -33q-12 -21 -39 -55q-58 -81 -103 -123q-25 -19 -51 -23q13 -28 20 -52q15 6 38 10q18 3 84 8l90 4l158 8l44 1q19 -18 41 -48q15 15 31 29q-3 3 -12 14l-38 40q-34 36 -61 61
q-24 24 -59 55q-12 -15 -28 -29q18 -13 48 -42q27 -24 50 -48l-328 -12q1 3 119 146q0 3 46 63q1 4 5 6q6 9 14 20h179zM586 756l-18 15q0 -1 -2 -4q-7 -9 -18 -19q0 -1 -3 -3q-3 -3 -6 -5q36 -28 73 -61q30 -25 54 -51q15 18 32 31l-63 56zM612 239q3 -13 4 -17
q1 -22 3 -55l-3 -268q-1 -3 -1 -8q0 -3 -3 -5h50q-4 30 -5 69l1 234q0 9 6 36q0 4 6 14h-58zM802 176q6 57 9 63q0 4 4 8h-57q3 -15 3 -18q1 -22 3 -55l1 -264q4 -31 28 -45q18 -10 58 -11q72 0 100 44q7 15 19 46l6 20q-6 3 -19 7q-10 4 -25 18q-7 -58 -22 -80
q-15 -18 -58 -18q-18 0 -28 3q-21 6 -22 41v241z" />
  </g>

</svg>
