<?xml version="1.0" standalone="no"?>
<!DOCTYPE svg PUBLIC "-//W3C//DTD SVG 1.1//EN" "http://www.w3.org/Graphics/SVG/1.1/DTD/svg11.dtd" >
<svg xmlns="http://www.w3.org/2000/svg" xmlns:xlink="http://www.w3.org/1999/xlink" version="1.1" viewBox="-10 0 1010 1000">
   <path fill="currentColor"
d="M645 -13q90 4 105 19q0 2 -4 8q-16 26 -16 70v216h76q98 -1 132 -10v85q-24 -8 -128 -8h-78q4 132 20 207q53 -91 63 -163q94 27 98 38q0 3 -6 8q-18 15 -34 43q-62 109 -95 157q44 129 83 137q14 -3 22 -91q29 30 83 49q-37 153 -81 157q-94 -13 -165 -178
q-30 31 -100 94q-3 4 -5 5q-28 -34 -65 -66q80 -36 142 -115q-30 -115 -37 -282h-115v133q14 -7 66 -30q7 -3 11 -5l6 77q-9 2 -24 6q-30 6 -59 18v230q2 52 -28 67q-24 17 -127 24q-3 -56 -28 -95q108 25 107 -18v-178q-49 20 -97 47l-20 -63q-24 -6 -103 -6v147
q10 -9 27 -24q27 -23 54 -50l34 84q-85 61 -180 162l-60 -83q49 -41 50 -64v-170q-66 0 -109 6v-82q41 6 109 6v-127q-43 -1 -56 4v-37q-7 9 -23 28q-14 16 -21 25q-20 -46 -51 -67q133 -133 178 -340q92 25 108 44q-1 2 -6 7q-17 15 -32 39q-4 6 -13 23q-29 51 -35 58h42
q37 0 103 -8v78q-33 -6 -109 -6h-67q-13 21 -30 48q-13 19 -20 31q14 7 77 8h32q65 0 99 -8v77q-29 -6 -101 -6v129q63 0 103 -8v56q6 12 117 -32v-155q-50 0 -95 6v-81q51 8 95 8v-143q-40 10 -55 17q-9 4 -22 7q-20 -49 -46 -75q118 -1 230 -52q62 64 60 79q-2 3 -12 3
q-32 -1 -79 7v157h113q-1 -23 -2 -99q-3 -171 -6 -214zM821 82q49 63 78 129l-78 33q-26 -81 -67 -127z" />
</svg>
