<?xml version="1.0" standalone="no"?>
<!DOCTYPE svg PUBLIC "-//W3C//DTD SVG 1.1//EN" "http://www.w3.org/Graphics/SVG/1.1/DTD/svg11.dtd" >
<svg xmlns="http://www.w3.org/2000/svg" xmlns:xlink="http://www.w3.org/1999/xlink" version="1.1" viewBox="-10 0 1034 1024">
  <g transform="matrix(1 0 0 -1 0 820)">
   <path fill="currentColor"
d="M343 569q27 0 62 -5v46q-66 -4 -98 -5h-98q12 24 23 48q24 49 35 66q9 12 29 23q-27 7 -64 24q-13 -51 -51 -127q-33 -66 -72 -117q-37 -46 -74 -72q34 -19 47 -29q52 60 106 148h155zM849 671l-40 -4h-223q28 48 37 58q6 9 35 28q-21 4 -43 14q-12 6 -18 8
q-30 -69 -77 -135q-61 -79 -125 -112q24 -12 48 -29q16 13 24 23q10 15 44 49q21 24 50 60h233q-45 -69 -119 -137q-72 40 -109 108l-32 -38q10 -12 38 -37l70 -58q-61 -52 -139 -87q-57 -24 -136 -36q24 -27 38 -44q159 57 273 144q118 -84 270 -132q15 27 32 47
q-57 7 -105 25q-102 36 -166 85q51 51 86 92q33 43 74 109q-10 0 -20 -1zM662 127v-93l-232 2q-6 3 -13 3v-46q3 3 45 5h200v-106q0 -42 -6 -60h49q0 7 -2 13q-3 48 -3 90v63h173q27 0 62 -5v46q-7 0 -16 -3l-219 -2v93h102q27 0 63 -6v47q-9 0 -17 -3q-48 -3 -87 -3h-61
v100l152 -1l34 -4v46q-9 -1 -16 -3q-13 -1 -46 -2h-124q0 60 3 67q1 16 11 31h-58q6 -30 6 -62v-36l-185 2q-6 3 -13 3v-46q30 4 59 5h139v-100l-167 3q-9 3 -14 3v-47q3 0 7 1q18 4 53 5h121zM223 408v-164l-143 3q-6 3 -13 3v-47q3 3 37 5l119 1v-227q0 -30 -5 -40
q-4 -7 -21 -21q21 -24 36 -52q33 36 64 67l91 84l-6 57q-24 -30 -49 -55q-27 -27 -72 -67v254h67q33 0 63 -6v47q-7 0 -16 -3q-48 -3 -114 -3v164h41q27 0 62 -5v46q-7 0 -16 -3q-174 0 -178 -2q-18 1 -40 2q-6 3 -14 3v-46q3 3 50 5h57z" />
  </g>

</svg>
