<?xml version="1.0" standalone="no"?>
<!DOCTYPE svg PUBLIC "-//W3C//DTD SVG 1.1//EN" "http://www.w3.org/Graphics/SVG/1.1/DTD/svg11.dtd" >
<svg xmlns="http://www.w3.org/2000/svg" xmlns:xlink="http://www.w3.org/1999/xlink" version="1.1" viewBox="-10 0 1034 1024">
  <g transform="matrix(1 0 0 -1 0 820)">
   <path fill="currentColor"
d="M309 541q27 0 63 -5v46l-39 -4l-159 -1q3 9 20 41q39 87 42 88q9 12 28 21q-21 6 -41 15q-9 3 -23 10q-13 -57 -30 -94q-39 -84 -63 -120q-31 -46 -68 -71q16 -7 26 -13q18 -12 24 -15q33 48 66 102h154zM594 327q6 6 12 11l-124 161q6 45 11 54q1 10 5 18q0 9 6 29
q3 19 24 34q-27 6 -64 20q-1 -75 -31 -187q-36 -117 -82 -172q9 -1 20 -4q10 -3 17 -4q6 -3 15 -5q21 45 34 80q13 34 33 92q72 -93 97 -148q3 3 27 21zM637 -88l-244 2q-6 3 -13 3v-46q3 3 45 5l513 -1q16 -1 32 -5v47q-24 -4 -62 -5h-232v237h175q28 0 63 -5v46
q-31 -1 -63 -5h-175v516q0 6 2 24q1 18 12 38h-58q1 -30 5 -62v-516l-198 2q-6 3 -13 3v-47q36 6 60 6h151v-237zM724 296q12 -3 30 -12q6 -3 13 -6q24 57 37 92q10 30 22 65q37 -45 60 -77q16 -24 37 -64q3 1 13 11q7 6 15 10l12 9q-3 6 -43 57l-81 101l12 49q13 52 19 75
q4 19 20 33q-27 6 -31 8l-31 10q-3 -49 -10 -92q-9 -42 -24 -98q-31 -108 -76 -169q3 0 6 -2zM195 376v-164l-133 3q-3 1 -9 2v-46q3 3 45 5h97v-227q0 -33 -23 -48q22 -27 37 -53q16 18 66 67l119 104q-6 21 -15 46q-42 -46 -144 -135v246h72q24 0 64 -5v46q-7 -1 -15 -2
l-2 -1l-119 -2v164h37q27 0 63 -5v46q-9 0 -17 -3l-167 -2q-21 0 -48 3q-6 0 -11 2v-46q3 3 45 5h58z" />
  </g>

</svg>
