<?xml version="1.0" standalone="no"?>
<!DOCTYPE svg PUBLIC "-//W3C//DTD SVG 1.1//EN" "http://www.w3.org/Graphics/SVG/1.1/DTD/svg11.dtd" >
<svg xmlns="http://www.w3.org/2000/svg" xmlns:xlink="http://www.w3.org/1999/xlink" version="1.1" viewBox="-10 0 1010 1000">
   <path fill="currentColor"
d="M183 -12q100 30 103 38q1 2 -5 6q-19 13 -31 38q-7 14 -19 39l-21 42h48q75 0 117 -6v78q-17 -2 -42 -3q-13 -1 -29 -1h-44h-85q-19 35 -53 84q-7 9 -9 13q20 4 83 4h68q57 0 95 -6v79q-32 -9 -107 -6v109q85 0 127 -6v78q-38 -9 -127 -6v180q59 -39 121 -95q3 45 18 84
q-142 85 -197 143q-6 6 -7 5q-3 -1 -16 -24q-20 -35 -34 -55q39 -26 42 -58v-180q-93 -1 -125 8v-83q43 9 125 9v-111q-48 -1 -78 8v-57q-12 18 -31 41q-5 6 -7 8q-17 -54 -39 -79q105 -114 159 -318zM833 8q37 48 54 86q-2 2 -13 1q-31 -3 -66 1q-13 2 -35 4q-52 7 -90 10
v95h111q71 0 131 -8v81q-37 -8 -117 -8h-66q69 109 218 133q-38 35 -59 82q-157 -78 -218 -203v74q0 57 7 99h-83q8 -41 8 -95v-82q-85 142 -200 205q-24 -32 -70 -52q137 -53 203 -161h-32q-71 -1 -113 8v-77q21 6 109 6h103v-94q-64 5 -175 18q-4 -34 -39 -83q81 9 223 -3
q133 -13 209 -37zM806 473l-32 125q83 0 125 -6q-10 52 -18 129q-6 85 -24 113q-21 47 -170 57q1 -46 -38 -97q69 10 96 7q30 -2 41 -19q15 -22 24 -127q-87 0 -123 10l29 -125h-99q-3 243 -210 363q-28 -32 -90 -55q217 -68 227 -310q-66 -1 -102 8v-73q0 -1 17 0
q50 4 93 4h136q77 0 118 -4z" />
</svg>
