<?xml version="1.0" standalone="no"?>
<!DOCTYPE svg PUBLIC "-//W3C//DTD SVG 1.1//EN" "http://www.w3.org/Graphics/SVG/1.1/DTD/svg11.dtd" >
<svg xmlns="http://www.w3.org/2000/svg" xmlns:xlink="http://www.w3.org/1999/xlink" version="1.1" viewBox="-10 0 1034 1024">
  <g transform="matrix(1 0 0 -1 0 820)">
   <path fill="currentColor"
d="M357 553q27 0 63 -5v46l-39 -4l-180 -1q21 36 64 116q16 28 45 40l-64 32q-30 -94 -99 -198q-60 -87 -122 -118q33 -15 58 -30q37 45 57 70q16 21 39 52h178zM494 358q-21 1 -48 2q-9 3 -13 3v-46q30 3 61 5h183v-178l-214 4q-3 1 -5 1v-46h2l29 4l188 1v-216
q0 -42 -6 -60h49l-4 36l-1 240h175q27 0 63 -5v46l-39 -4l-199 -1v178h200q30 0 62 -5v46q-58 -4 -88 -5h-103l60 122q18 31 47 43q-39 19 -65 37q-10 -39 -31 -91q-21 -49 -53 -111h-250zM934 639q-7 0 -16 -3l-212 -2l-219 4q-4 1 -7 1v-46q3 1 49 5l370 -1q15 0 35 -4v46
zM658 403q6 6 14 12l-112 133q-6 -3 -15 -13l-21 -14l38 -41q10 -12 18 -19l56 -74q9 6 16 12q3 3 6 4zM741 657l9 9l11 11q-90 79 -110 96q-16 -16 -32 -28l66 -57q22 -21 44 -46zM235 388v-145l-156 2q-7 3 -13 4v-47q3 0 7 1q21 4 54 5h108v-210q0 -51 -26 -70
q24 -27 39 -49q36 42 91 91q55 51 74 63l-6 56q-15 -13 -28 -29q-30 -31 -53 -51l-53 -46v245h100q30 0 63 -6v47q-6 0 -16 -4q-19 -1 -147 -2v145h77q27 0 63 -5v46q-9 0 -17 -3q-216 0 -220 -2q-18 1 -39 2q-3 0 -8 2q-3 1 -5 1v-46q46 4 97 5h14z" />
  </g>

</svg>
