<?xml version="1.0" standalone="no"?>
<!DOCTYPE svg PUBLIC "-//W3C//DTD SVG 1.1//EN" "http://www.w3.org/Graphics/SVG/1.1/DTD/svg11.dtd" >
<svg xmlns="http://www.w3.org/2000/svg" xmlns:xlink="http://www.w3.org/1999/xlink" version="1.1" viewBox="-10 0 1034 1024">
  <g transform="matrix(1 0 0 -1 0 820)">
   <path fill="currentColor"
d="M183 565h155q36 0 62 -5v46q-7 0 -16 -3l-181 -2q30 49 39 68q27 51 31 52q9 10 29 16l-3 2l-5 3q-1 0 -16 7q-33 16 -40 19q-15 -51 -52 -119q-36 -66 -72 -112q-30 -37 -65 -64q39 -12 55 -21zM659 -104q0 -42 -7 -59h50l-4 35l-1 339h215q0 -51 -6 -103q-1 -33 -4 -47
q0 -9 -3 -15q-6 -18 -35 -27q-24 -3 -43 -4q-13 0 -36 4q10 -24 19 -53q39 4 62 10q39 9 54 22q13 16 19 46q3 21 6 57l12 151q-15 -1 -29 -3q-30 -3 -33 -4h-198v147l160 -1l39 -4q-4 19 -5 50l1 133l4 40q-27 -1 -54 -5h-89q24 45 53 93q19 31 29 39q7 9 28 15
q-10 6 -19 10q-33 18 -42 24q-24 -64 -93 -181l-231 2q-6 3 -13 3v-46q3 3 45 5h149v-141q-147 0 -168 2q-6 3 -30 3v-103q-3 -36 -4 -75q-1 -22 -8 -49q46 4 93 5h94q-39 -66 -130 -152q-51 -45 -91 -73q-33 -21 -79 -41q21 -16 44 -39q153 111 279 263v-273zM496 245
l7 147h156v-147h-163zM853 428h-156v141h156v-141zM609 625q12 9 25 17q-13 21 -59 76q-19 24 -47 52q-13 -12 -34 -22q24 -24 56 -64q33 -40 48 -68q4 4 11 9zM219 404v-135l-141 2q-6 3 -13 3v-46q49 4 79 5h75v-204q0 -42 -24 -66q24 -27 39 -48q12 18 37 43q10 13 31 34
q69 75 98 103q-9 22 -15 52q-42 -60 -128 -144v230h87q28 0 63 -5v46l-39 -4l-111 -1v135h56q25 0 63 -5v46q-31 -1 -63 -5l-175 2q-6 3 -13 3v-46q49 4 80 5h14z" />
  </g>

</svg>
