<?xml version="1.0" standalone="no"?>
<!DOCTYPE svg PUBLIC "-//W3C//DTD SVG 1.1//EN" "http://www.w3.org/Graphics/SVG/1.1/DTD/svg11.dtd" >
<svg xmlns="http://www.w3.org/2000/svg" xmlns:xlink="http://www.w3.org/1999/xlink" version="1.1" viewBox="-10 0 1034 1024">
  <g transform="matrix(1 0 0 -1 0 820)">
   <path fill="currentColor"
d="M97 433q45 54 54 66q15 19 39 55l191 -1q15 -1 30 -5v47q-1 0 -61 -5h-140q33 63 58 102q10 18 36 27q-30 13 -58 36q-18 -54 -41 -101q-58 -108 -96 -151q-30 -36 -66 -53q18 -9 44 -31q4 7 10 14zM236 385v-151h-79q-42 0 -63 5v-46q6 3 22 4l120 1v-232q0 -42 -28 -69
l31 -43q42 46 50 52l46 40q58 55 80 71q6 6 16 11q-13 18 -21 38q-39 -42 -137 -124v256l92 -1l37 -4v46q-13 -3 -22 -3q-19 0 -41 -2h-66v151q75 0 91 -3q6 0 9 -2v46q-19 -3 -23 -4h-195q-18 1 -27 4v-46q3 0 7 2q54 3 101 3zM658 417h-173q-48 0 -64 5v-47q7 3 24 4
q16 3 40 2l454 -1q4 0 25 -5v47q-13 -3 -23 -3q-18 0 -41 -2h-205v83l146 -1q15 0 35 -5v47q-6 -1 -11 -3l-147 -2h-23v84l178 -1q21 0 30 -3q1 -1 5 -3v48q-19 -3 -23 -4l-190 -2v36q0 6 4 33q1 18 10 34h-57q6 -66 6 -89v-14l-184 2q-15 3 -23 4v-48q6 3 12 4q28 1 52 3
h143v-84l-184 4q-1 1 -3 1v-47q63 6 81 6h106v-83zM481 321q1 -31 5 -65q-3 -396 -5 -409h48q-1 3 -1 5q0 1 -4 53v131h305v-114q0 -19 -8 -27q-12 -10 -48 -11q-33 0 -69 9q6 -24 11 -49q33 1 69 3q16 0 47 8l13 6q22 13 23 56l1 360l4 44q-30 -1 -59 -5l-288 1
q-15 3 -44 4zM524 192v88h305v-88h-305zM829 72h-305v84h305v-84z" />
  </g>

</svg>
