<?xml version="1.0" standalone="no"?>
<!DOCTYPE svg PUBLIC "-//W3C//DTD SVG 1.1//EN" "http://www.w3.org/Graphics/SVG/1.1/DTD/svg11.dtd" >
<svg xmlns="http://www.w3.org/2000/svg" xmlns:xlink="http://www.w3.org/1999/xlink" version="1.1" viewBox="-10 0 1034 1024">
  <g transform="matrix(1 0 0 -1 0 820)">
   <path fill="currentColor"
d="M350 578q37 0 62 -6v47q-24 -6 -62 -6h-126l55 92q15 21 38 34l-28 15q-18 9 -32 20q-30 -93 -108 -209q-36 -51 -56 -72q-21 -24 -56 -51q21 -3 54 -19q25 30 50 64q25 36 61 91h148zM229 244h-86q-36 0 -64 6v-47q24 6 64 6h86v-237q0 -24 -7 -37q-3 -6 -21 -21
q18 -15 40 -46q33 40 92 95l82 76q-3 15 -9 52q-45 -57 -139 -137v255h86q34 0 62 -6v47q-36 -6 -85 -6h-63v155h53q36 0 62 -5v46q-30 -4 -62 -5h-127q-36 0 -62 5v-46q21 4 62 5h36v-155zM590 419h-96q-34 0 -63 5v-46q27 4 63 5h421q36 0 61 -5v46q-24 -4 -61 -5h-99v161
h69q36 0 62 -5v46q-24 -4 -62 -5h-69v94q0 15 4 30q1 12 10 33h-57q6 -60 6 -94v-63h-152v92q0 6 2 25q1 16 11 36h-55q1 -18 2 -16q3 -21 3 -63v-74h-71q-36 0 -63 5v-46q25 4 63 5h71v-161zM627 419v161h152v-161h-152zM495 -158h47q-4 54 -5 74h328l-4 -61q-1 -4 -2 -11
h49q-3 43 -5 72l1 338l4 42q-27 -1 -55 -5l-319 1q-15 3 -39 4q1 -30 5 -61l-1 -357q-3 -31 -4 -36zM537 132v123h328v-123h-328zM537 -48v144h328v-144h-328z" />
  </g>

</svg>
