<?xml version="1.0" standalone="no"?>
<!DOCTYPE svg PUBLIC "-//W3C//DTD SVG 1.1//EN" "http://www.w3.org/Graphics/SVG/1.1/DTD/svg11.dtd" >
<svg xmlns="http://www.w3.org/2000/svg" xmlns:xlink="http://www.w3.org/1999/xlink" version="1.1" viewBox="-10 0 1034 1024">
  <g transform="matrix(1 0 0 -1 0 820)">
   <path fill="currentColor"
d="M529 -94q0 -24 -5 -64h47q0 3 -1 7q-3 7 -4 36v30h289q0 -28 -5 -69h48q-4 39 -5 64l1 274l4 49q-33 -1 -67 -5l-239 1q-15 3 -38 4q37 49 87 121l290 -1l46 -4v46q-31 -1 -64 -5h-252q6 9 11 21q22 42 30 49q4 7 34 29q-37 18 -57 31q-15 -39 -28 -63q-12 -25 -38 -67
l-194 3q-6 0 -14 2v-46q70 6 106 5h80q-39 -63 -88 -119q-66 -70 -127 -105q15 -9 45 -33q27 21 58 52q15 13 27 27q12 12 19 23q3 -30 4 -44v-249zM855 -49h-289v241h289v-241zM550 639l-116 4q-3 1 -5 1v-46q39 3 80 5h41l-3 -117q-1 -3 -2 -10h47q-6 43 -5 69v58h199
q-3 -108 -5 -124h48q-6 60 -5 96v28l128 -5v46q-33 -1 -66 -5h-62v70q0 9 3 28q0 18 10 36h-56l4 -38l1 -96h-199q0 78 2 88q3 27 10 37q0 1 1 3h-55l4 -37zM183 549l192 -1q13 -1 28 -5v48l-83 -6h-117l21 39q36 76 43 84q13 18 38 39q-24 6 -65 23q-10 -39 -24 -72
q-15 -34 -44 -86q-64 -120 -130 -171q25 -7 51 -24q40 55 76 109q6 12 14 23zM233 238h-82q-24 0 -51 3q-1 0 -14 2v-46q42 6 70 5h77v-253q0 -21 -3 -35q-4 -18 -21 -31q9 -12 17 -20q6 -9 17 -25q27 30 60 62q96 96 108 106q-6 27 -10 54q-12 -18 -28 -35
q-76 -75 -102 -98v275q60 0 124 -3q6 0 15 -2v46q-33 -1 -66 -5h-73v135q57 0 77 -3q6 0 13 -3v47q-66 -6 -81 -6l-120 1l-49 5v-47q7 3 24 4l98 2v-135z" />
  </g>

</svg>
