<?xml version="1.0" standalone="no"?>
<!DOCTYPE svg PUBLIC "-//W3C//DTD SVG 1.1//EN" "http://www.w3.org/Graphics/SVG/1.1/DTD/svg11.dtd" >
<svg xmlns="http://www.w3.org/2000/svg" xmlns:xlink="http://www.w3.org/1999/xlink" version="1.1" viewBox="-10 0 1010 1000">
   <path fill="currentColor"
d="M700 -10q75 -2 96 6q0 3 -4 12q-10 21 -10 36v87q11 0 31 -1q78 -2 94 -7v80q-40 -8 -125 -8v129q150 -3 170 -12v85q-28 -8 -162 -8h-274q-106 0 -137 8v-81q13 5 39 7q13 1 34 1h62v-129q-72 -1 -121 8v-80q43 8 121 8v-57q0 -38 -5 -68q-2 -7 -1 -8q13 -2 60 2
q31 3 31 6q0 4 -4 10q-10 15 -10 36v79h123v-34q2 -91 -8 -107zM194 -6q99 24 104 34q0 5 -13 14q-17 11 -23 20q-1 2 -4 6q-43 66 -52 87q80 0 106 -1q32 -2 51 -7v78q-30 -8 -188 -8q-64 95 -108 145q-22 -37 -49 -60q124 -123 176 -308zM710 195h-125v129h125v-129z
M875 457q-8 37 -8 149v125q0 149 8 166h-93q8 -20 8 -71h-270q0 64 8 79h-91q7 -29 7 -143v-145q0 -125 -7 -156q40 6 156 6h107q146 1 175 -10zM520 530v83h272v-83h-272zM520 669v97h272v-97h-272zM236 312q96 0 123 -8v75q-11 -4 -32 -5q-17 -1 -71 -1v112q67 0 95 -1
q32 -2 50 -7v81q-19 -11 -145 -10v196q57 -40 125 -113l30 84q-87 63 -219 182l-49 -77q1 0 4 -2q40 -23 40 -48v-220q-58 0 -82 2q-29 1 -40 6v-79q30 8 122 8v-110q-33 1 -70 8v-81q32 8 119 8z" />
</svg>
