<?xml version="1.0" standalone="no"?>
<!DOCTYPE svg PUBLIC "-//W3C//DTD SVG 1.1//EN" "http://www.w3.org/Graphics/SVG/1.1/DTD/svg11.dtd" >
<svg xmlns="http://www.w3.org/2000/svg" xmlns:xlink="http://www.w3.org/1999/xlink" version="1.1" viewBox="-10 0 1010 1000">
   <path fill="currentColor"
d="M188 -8q95 39 106 54q0 3 -6 8q-33 24 -70 93h56q64 2 113 -4v78q-28 -6 -113 -6h-93q-39 64 -64 97q23 9 87 8h54q72 -3 107 -8v81q-3 0 -11 -1q-41 -5 -82 -5h-20v107h26q63 0 91 -6v82q-36 -5 -95 -6h-22v182q63 -40 113 -89q-1 41 22 78q-97 65 -191 160
q-8 -22 -41 -71q-6 -8 -8 -12q27 -18 28 -60v-188h-26q-55 1 -89 6v-82q31 6 91 6h24v-105q-40 0 -70 4v-61q-3 4 -8 12q-22 34 -32 45q-22 -55 -43 -87q129 -129 166 -310zM875 26q-5 32 -6 101v111q0 56 1 76q1 25 3 38q-38 -6 -149 -6h-155q-103 3 -132 6q3 -28 3 -117
v-106q0 -76 -5 -103q34 6 140 6h165q84 0 135 -6zM786 98h-266v71h266v-71zM520 221v59h266v-59h-266zM917 397v80q-25 -6 -88 -6v69h22q53 -1 87 -10v83q-26 -3 -63 -5q-17 -1 -24 -2h-22v220q1 37 -27 50q-26 16 -114 27q0 -58 -39 -103q103 22 97 -26v-168h-222
q-92 0 -121 6v-82q17 3 100 9q15 0 23 1h220v-69h-188q-80 0 -133 6v-78q28 6 129 6h246q66 -1 117 -8zM585 627q28 63 52 131l-87 22q-6 -57 -50 -135z" />
</svg>
