<?xml version="1.0" standalone="no"?>
<!DOCTYPE svg PUBLIC "-//W3C//DTD SVG 1.1//EN" "http://www.w3.org/Graphics/SVG/1.1/DTD/svg11.dtd" >
<svg xmlns="http://www.w3.org/2000/svg" xmlns:xlink="http://www.w3.org/1999/xlink" version="1.1" viewBox="-10 0 1010 1000">
   <path fill="currentColor"
d="M179 -2q17 5 49 13q62 14 58 21q-1 5 -11 12q-17 12 -25 26q-24 41 -38 73h50q50 0 105 -8v80q-23 -8 -105 -8h-85q-53 83 -74 103q4 3 18 3q11 1 56 1h55q84 0 111 -6v77q-47 -6 -113 -6v113q82 0 129 -5v81q-45 -9 -129 -8v169q56 -40 109 -92q2 43 26 82
q-139 96 -195 148q-7 7 -9 8q-4 -4 -15 -23q-15 -25 -27 -44q1 -2 10 -13q31 -36 30 -58v-177q-84 -3 -121 6v-81q55 7 121 7v-113q-48 -1 -64 4v-59l-12 16q-11 15 -18 25q-5 -32 -35 -77q97 -108 149 -290zM393 40q39 12 180 12h157q143 0 183 -8q-8 57 -8 200v489
q0 127 12 154h-94q10 -30 10 -69h-363q1 42 10 77h-91q10 -38 10 -145v-547q-1 -149 -5 -150q-1 -8 -1 -13zM470 115v639h363v-639h-363zM611 145h36q51 -3 45 6q0 2 -2 8q-9 19 -9 50v53h39q64 0 82 -6v76q-14 -6 -86 -6h-37v93q52 0 93 -8q-6 30 -6 101v58q0 60 6 103
q-11 -2 -32 -3q-11 -1 -26 -1h-41h-50q-80 0 -97 8q8 -38 8 -99v-62q0 -74 -8 -101q39 3 89 4v-93q-71 -4 -113 8v-80q38 8 113 8v-57q1 -49 -4 -60zM702 479h-105v131h105v-131z" />
</svg>
