<?xml version="1.0" standalone="no"?>
<!DOCTYPE svg PUBLIC "-//W3C//DTD SVG 1.1//EN" "http://www.w3.org/Graphics/SVG/1.1/DTD/svg11.dtd" >
<svg xmlns="http://www.w3.org/2000/svg" xmlns:xlink="http://www.w3.org/1999/xlink" version="1.1" viewBox="-10 0 1034 1024">
  <g transform="matrix(1 0 0 -1 0 820)">
   <path fill="currentColor"
d="M510 165q0 70 3 86q0 9 5 16q0 4 5 11h-56l4 -37v-314q-1 -3 -2 -8q-3 -12 -18 -24l26 -48q18 18 62 42l33 18l79 42q10 7 22 13l-3 51q-33 -24 -61 -41l-74 -41q-13 -6 -25 -14v212l116 -1q9 0 43 -4v46q-33 -1 -66 -5h-93zM476 713q1 -31 5 -65l-1 -265q-3 -12 -4 -48
q15 3 57 4l288 1q34 -1 71 -5q-3 33 -5 67l1 265l4 46q-60 -4 -71 -5l-295 1q-19 3 -50 4zM519 376v133h330v-133h-330zM519 545v127h330v-127h-330zM760 228q0 24 6 48q0 4 7 17h-57q0 -7 3 -14l3 -152v-202q0 -48 42 -61q24 -6 78 -6q84 0 113 65q4 10 9 25q4 15 11 42
q-19 4 -47 26q-4 -58 -12 -82q-15 -36 -74 -37q-57 0 -73 12q-9 9 -9 35v118q48 33 99 65q64 42 102 44q-28 31 -38 44q-3 4 -5 8q-28 -27 -58 -49q-36 -27 -100 -66v120zM364 557q45 0 63 -5h3v47q-66 -6 -85 -6h-125q6 12 13 28q13 24 27 48q22 46 58 67q-33 12 -63 28
q-21 -57 -35 -87q-40 -76 -88 -143q-30 -42 -44 -56q-15 -15 -38 -31q21 -9 47 -25l52 65q24 33 50 70h165zM229 236l-141 4q-3 1 -5 1v-46q39 4 66 5h80v-245q0 -28 -24 -56q21 -27 31 -45l26 24q3 4 42 34q24 18 67 53q18 13 43 30l-9 52q-60 -57 -138 -111v264
q69 0 144 -3q6 0 15 -2v46q-43 -4 -79 -5h-80v157q90 0 104 -2q9 0 20 -3v46q-33 -1 -66 -5l-156 1q-31 3 -38 4v-46q49 4 85 5h13v-157z" />
  </g>

</svg>
