<?xml version="1.0" standalone="no"?>
<!DOCTYPE svg PUBLIC "-//W3C//DTD SVG 1.1//EN" "http://www.w3.org/Graphics/SVG/1.1/DTD/svg11.dtd" >
<svg xmlns="http://www.w3.org/2000/svg" xmlns:xlink="http://www.w3.org/1999/xlink" version="1.1" viewBox="-10 0 1034 1024">
  <g transform="matrix(1 0 0 -1 0 820)">
   <path fill="currentColor"
d="M330 565q27 0 62 -5v47q-12 -3 -58 -6h-116q45 90 66 126q9 18 31 29q-21 7 -26 10q-12 4 -32 16q-18 -54 -61 -136q-40 -78 -79 -124q-39 -48 -76 -77q24 -12 50 -28l81 112l24 36h134zM553 611l-122 2q-7 3 -13 4v-47q4 3 54 6h81v-92q0 -40 -5 -60h48q-4 15 -5 31
l-1 121h196v-91q0 -42 -5 -59h48l-4 35l-1 115h89q21 0 62 -6v47q-3 0 -8 -1q-3 -1 -8 -3l-135 -2v104q0 10 2 26q1 15 11 36h-56q4 -99 5 -103v-63h-196v103q0 9 2 25q1 18 12 37h-56q4 -99 5 -103v-62zM466 -99q0 -40 -5 -60h47q-3 30 -5 62v28h369v-28q0 -45 -5 -59h48
q-4 39 -5 59l1 442l4 42q-49 -4 -57 -5l-365 1q-4 1 -7 1q-12 0 -25 3q1 -27 5 -56v-430zM503 -33v179h165v-179h-165zM503 182v164h165v-164h-165zM706 -33v179h166v-179h-166zM706 182v164h166v-164h-166zM225 403v-156l-146 4q-3 0 -7 1v-46q49 4 73 5h80v-216
q0 -42 -27 -64q15 -16 37 -51q15 19 73 76l97 94q-7 24 -12 46q-39 -43 -68 -72q-27 -27 -62 -57v244h85q27 0 63 -5v46l-39 -4l-109 -1v156h59q27 0 63 -5v46q-31 -1 -63 -5l-181 1q-12 1 -23 3q-3 1 -5 1v-46q49 4 80 5h32z" />
  </g>

</svg>
