<?xml version="1.0" standalone="no"?>
<!DOCTYPE svg PUBLIC "-//W3C//DTD SVG 1.1//EN" "http://www.w3.org/Graphics/SVG/1.1/DTD/svg11.dtd" >
<svg xmlns="http://www.w3.org/2000/svg" xmlns:xlink="http://www.w3.org/1999/xlink" version="1.1" viewBox="-10 0 1034 1024">
  <g transform="matrix(1 0 0 -1 0 820)">
   <path fill="currentColor"
d="M370 555q27 0 62 -5v46q-7 0 -16 -3l-191 -2q28 58 58 111q9 15 29 29q-28 7 -66 21q-22 -87 -88 -194q-63 -102 -114 -138q18 -7 48 -27q30 39 52 69l62 93h164zM662 243q-34 -81 -92 -139q-49 -45 -113 -65q21 -21 38 -42q69 40 117 92q54 61 96 154h94q-9 -37 -22 -76
q-15 -43 -26 -63q-51 -96 -141 -159q-61 -45 -139 -62q25 -27 34 -46q189 100 262 219q21 36 34 69q16 43 40 118h76q-3 -75 -3 -201q-1 -69 -9 -97q-7 -24 -40 -36q-33 -7 -76 -8q-19 3 -39 5q12 -30 17 -52q76 3 117 16q42 15 54 44q12 27 14 115l3 166q1 49 6 89
q-15 -1 -26 -2q-19 -3 -24 -3h-329q39 58 65 102l204 -1q12 0 37 -4q-3 27 -5 56l1 244l4 37q-25 -1 -52 -5l-292 1q-12 3 -39 4q6 -48 6 -52l-1 -247l-5 -38q45 4 75 5h18q-75 -135 -172 -199q19 -9 44 -26q28 27 46 46l37 41h106zM551 562v110h297v-110h-297zM551 417v109
h297v-109h-297zM240 377v-147l-149 2q-6 3 -14 3v-46q3 3 44 5h119v-214q0 -30 -5 -42q-3 -7 -16 -17q24 -33 37 -56q15 21 41 47q75 76 108 103q9 9 21 18l-5 58q-39 -42 -71 -75q-30 -28 -72 -62v240h91q28 0 63 -5v46q-9 -1 -16 -3q-18 -1 -47 -2h-91v147h57q27 0 62 -5
v46q-43 -4 -72 -5l-187 4q-3 1 -5 1v-46q46 4 97 5h10z" />
  </g>

</svg>
