<?xml version="1.0" standalone="no"?>
<!DOCTYPE svg PUBLIC "-//W3C//DTD SVG 1.1//EN" "http://www.w3.org/Graphics/SVG/1.1/DTD/svg11.dtd" >
<svg xmlns="http://www.w3.org/2000/svg" xmlns:xlink="http://www.w3.org/1999/xlink" version="1.1" viewBox="-10 0 1010 1000">
   <path fill="currentColor"
d="M185 -19q102 44 101 53q-1 3 -9 8q-19 12 -27 26q-6 10 -23 36q-17 27 -23 37h64q46 0 91 -6v80q-33 -6 -85 -6h-109q-13 21 -41 59q-15 21 -23 32q17 3 26 3q8 1 34 1h119q17 0 54 -4q-27 3 3 0v75l-3 -1q-29 -5 -60 -5h-38v112h36q42 -1 75 -4v71q-32 -3 -71 -2h-40
v179q3 -3 9 -10q45 -48 67 -74q8 39 39 74q-107 80 -176 178q-27 -50 -60 -79q46 -40 48 -60v-208h-44q-37 0 -47 1q-13 0 -30 3v-75q37 6 75 6h46v-112h-26q-36 -1 -48 4v-57q-6 8 -18 22q-10 11 -13 16q-15 -43 -42 -78q112 -109 169 -295zM875 44q-4 29 -4 75v237
q0 60 4 87q-39 -6 -91 -6h-119v73h147q63 0 105 -6v82q-42 -9 -107 -8h-104q101 149 244 206l-11 11q-42 42 -56 70q-145 -111 -218 -255v168q0 84 8 137h-88q5 -23 6 -53q2 -30 2 -92v-162q-76 149 -222 265q-24 -37 -79 -67q143 -47 256 -228h-74q-57 0 -105 6v-80
q44 7 113 6h111v-73h-107q-63 -1 -91 4q6 -51 6 -93v-215q0 -55 -6 -91q42 6 107 6h282q52 0 91 -4zM476 115v102h117v-102h-117zM665 115v102h127v-102h-127zM476 278v91h117v-91h-117zM665 278v91h125v-91h-125z" />
</svg>
