<?xml version="1.0" standalone="no"?>
<!DOCTYPE svg PUBLIC "-//W3C//DTD SVG 1.1//EN" "http://www.w3.org/Graphics/SVG/1.1/DTD/svg11.dtd" >
<svg xmlns="http://www.w3.org/2000/svg" xmlns:xlink="http://www.w3.org/1999/xlink" version="1.1" viewBox="-10 0 1034 1024">
  <g transform="matrix(1 0 0 -1 0 820)">
   <path fill="currentColor"
d="M411 152q34 4 66 5h307v-219q0 -48 -72 -48q-28 0 -68 7l16 -45q0 -4 2 -8q57 3 87 7q72 13 73 70v236l144 -3q4 0 10 -2v46q-33 -1 -65 -5h-89v110l106 -5v46q-33 -1 -65 -5l-394 1l-18 2q-6 0 -18 2v-46q6 0 15 2q51 3 71 3h265v-110l-359 3q-3 1 -14 2v-46zM818 423
q27 0 69 -5q-4 24 -5 61l1 209l4 41q-34 -1 -69 -5l-311 1l-47 4q6 -54 6 -58l-1 -209q-3 -9 -3 -25q0 -6 -2 -19q33 3 67 5h291zM503 459v99h341v-99h-341zM503 594v94h341v-94h-341zM642 7q-10 9 -23 20l-59 52l-46 39q-12 -13 -33 -30q72 -52 127 -115q16 18 34 34z
M103 444q7 12 15 22q7 9 14 20q1 6 52 79l187 -1l30 -4v47q-66 -6 -83 -6h-112q3 12 16 35q33 66 37 71q10 19 32 36q-33 12 -57 23q-12 -34 -33 -80q-28 -66 -82 -144q-24 -36 -38 -52q-9 -10 -34 -29q24 -9 39 -21q4 -3 9 -7q3 6 8 11zM232 247h-86l-52 3l-15 2v-46
q49 6 78 5h75v-253q0 -16 -4 -29q-3 -15 -19 -24l29 -42q0 -3 5 -9q21 25 72 69l104 88l-12 46q-12 -13 -27 -26l-68 -59q-15 -13 -42 -34v273l86 -1l40 -4v46q-33 -1 -65 -5h-61v153q72 0 84 -2q9 0 21 -3v46q-43 -4 -75 -5q-132 0 -160 2q-12 3 -25 3v-46q45 4 80 5h37
v-153z" />
  </g>

</svg>
