<?xml version="1.0" standalone="no"?>
<!DOCTYPE svg PUBLIC "-//W3C//DTD SVG 1.1//EN" "http://www.w3.org/Graphics/SVG/1.1/DTD/svg11.dtd" >
<svg xmlns="http://www.w3.org/2000/svg" xmlns:xlink="http://www.w3.org/1999/xlink" version="1.1" viewBox="-10 0 1010 1000">
   <path fill="currentColor"
d="M230 -8q88 29 91 38q0 2 -5 7q-20 17 -32 45q-4 9 -14 28q-15 32 -26 55q83 0 105 -1q30 0 40 -3v74q-25 -6 -171 -6q-33 51 -53 79q11 7 37 8h60q73 0 109 -8v69q-23 -6 -111 -6v116q101 0 119 -6v73q-7 -2 -33 -3q-12 -1 -31 -1h-55v151q36 -32 73 -80q18 37 44 66
q-100 86 -189 200q-10 -34 -45 -81q43 -41 49 -89v-167q-98 2 -125 8v-75q9 2 37 3q14 1 33 1h55v-114q-34 -1 -41 4v-47q-35 48 -68 89q-20 -42 -53 -67q130 -129 200 -360zM565 -2q81 24 84 38q-1 2 -7 6q-18 9 -29 24q-7 8 -29 41l-24 36h216q108 0 143 -8q-4 39 -12 131
q-16 213 -32 232q-23 36 -143 56q1 -48 -32 -93q75 19 110 -12q19 -73 27 -242h-51q-45 211 -228 351q-23 -31 -70 -48q182 -98 228 -303h-61q-44 149 -203 276q-28 -41 -69 -54q149 -69 208 -222h-69q-32 50 -84 101q-31 -31 -73 -40q133 -102 200 -270zM657 536
q57 102 71 135l-71 34q-19 -72 -70 -141zM839 592q89 140 109 184l-79 44q-23 -108 -103 -199zM510 612q67 2 83 13q0 2 -3 6q-13 16 -13 42v119q-1 28 24 32q29 6 64 2q34 -4 45 -14q23 -26 24 -89q45 39 87 41q-13 81 -57 107q-28 14 -94 19q-64 4 -112 -5q-45 -9 -46 -49
v-157q1 -48 -2 -67zM419 615l12 3q67 14 63 19q0 1 -4 7q-15 18 -24 39q-6 14 -25 62q-31 77 -42 99q-34 -18 -78 -24q63 -79 98 -205z" />
</svg>
