<?xml version="1.0" standalone="no"?>
<!DOCTYPE svg PUBLIC "-//W3C//DTD SVG 1.1//EN" "http://www.w3.org/Graphics/SVG/1.1/DTD/svg11.dtd" >
<svg xmlns="http://www.w3.org/2000/svg" xmlns:xlink="http://www.w3.org/1999/xlink" version="1.1" viewBox="-10 0 1034 1024">
  <g transform="matrix(1 0 0 -1 0 820)">
   <path fill="currentColor"
d="M469 396q-55 3 -65 5v-47q24 6 48 6h135q-36 -57 -94 -107q-51 -42 -96 -50q15 -13 25 -22l15 -20q30 19 84 65q6 6 10 9q1 -27 5 -56v-249q0 -7 2 -20q6 -25 29 -39q18 -9 55 -12q42 -3 162 -3l71 4q45 6 61 41q12 30 23 103q-25 3 -39 8q-9 3 -11 4q3 -27 3 -47
q0 -28 -10 -47q-12 -21 -50 -25q-7 -1 -55 -2q-39 -1 -59 -2q-45 0 -84 4q-31 3 -44 8q-18 9 -18 45v269h209v-129q0 -30 -16 -36q-15 -4 -48 -5q-22 0 -53 5q10 -24 16 -49q45 1 71 5q15 1 33 6q33 9 34 59v120q1 22 4 44q57 -39 104 -64q12 21 42 44q-39 1 -90 32
q-82 52 -111 109l160 -3l2 -1q1 0 5 -2v47q-9 -3 -12 -3q-13 0 -51 -2h-226q7 27 17 67q3 18 8 35l185 -1q21 0 29 -4q3 0 5 -2v48l-9 -2q1 0 -13 -2l-191 -1q15 171 18 177q3 19 18 38q-27 1 -65 8q3 -39 3 -68q0 -33 -2 -67q-3 -37 -9 -88l-193 3l-6 2v-48q1 0 3 2
q4 0 10 2q28 1 52 3h126q-7 -45 -26 -102h-136zM555 259q30 31 77 101h94q24 -49 74 -102l-40 -3h-159q-24 3 -46 4zM466 693q45 -39 101 -125q13 13 33 27q-30 39 -45 57q-9 10 -20 25q-12 15 -37 43q-12 -10 -32 -27zM830 645q19 33 49 47q-27 18 -49 37q-7 -21 -19 -41
q-12 -21 -34 -54q-19 -31 -43 -59q18 -9 36 -24zM329 561l63 -6v47q-10 -1 -22 -4l-169 -1q40 76 49 90q15 24 23 28q7 7 19 11q-31 15 -62 36q-10 -52 -49 -123q-36 -70 -79 -123q-31 -36 -65 -52q25 -9 53 -29l62 84q10 13 29 42h148zM226 390v-147h-85q-42 0 -65 6v-47
q16 4 40 5l110 1v-246q0 -21 -5 -39q-6 -15 -21 -26l33 -43q33 36 63 63q61 58 81 73q15 13 31 23q-13 22 -18 43q-21 -22 -56 -55q-36 -33 -71 -63v270q102 0 115 -3l16 -3v47q-18 -3 -22 -4q-21 0 -40 -2h-69v147l110 -4q1 0 4 -1v46q-3 0 -61 -5q-162 0 -186 2
q-12 1 -19 3v-46q39 4 59 5h56z" />
  </g>

</svg>
