<?xml version="1.0" standalone="no"?>
<!DOCTYPE svg PUBLIC "-//W3C//DTD SVG 1.1//EN" "http://www.w3.org/Graphics/SVG/1.1/DTD/svg11.dtd" >
<svg xmlns="http://www.w3.org/2000/svg" xmlns:xlink="http://www.w3.org/1999/xlink" version="1.1" viewBox="-10 0 1034 1024">
  <g transform="matrix(1 0 0 -1 0 820)">
   <path fill="currentColor"
d="M465 -72l-71 2l-15 3v-47q9 4 25 5l519 1q42 0 63 -6v47q-10 0 -13 -3l-70 -2l1 286l4 46q-18 -1 -33 -3q-16 -1 -26 -2h-326q-6 0 -22 2q-16 1 -41 3q1 -30 5 -61v-271zM502 -72v291h90v-291h-90zM629 -72v291h98v-291h-98zM764 -72v291h101v-291h-101zM677 510l-221 1
q-12 0 -24 4v-47q12 3 26 4q24 1 76 2h143v-98q0 -30 -18 -37q-22 -6 -58 -7q-21 0 -49 5q9 -18 11 -24q3 -10 8 -27q72 6 107 17q36 12 37 56v115h161q43 0 62 -6v47q-3 0 -12 -3l-93 -2h-118v40q69 54 89 73l93 89q-19 -1 -30 -2q-24 -3 -72 -3l-302 1l-24 4v-47
q12 6 52 6h280q-69 -63 -129 -99q1 -27 5 -54v-8zM189 563h156q43 0 62 -6v47q-3 0 -12 -3l-94 -2h-87l34 59q22 39 53 60q-30 16 -54 33q-18 -43 -49 -100q-63 -108 -111 -161q-31 -31 -53 -43q18 -6 42 -21q4 -3 9 -6q4 6 11 14q28 36 84 116q4 7 9 13zM219 248h-82
q-46 0 -66 6v-47q25 3 52 5h96v-235q0 -30 -23 -52q16 -22 34 -45q18 21 31 34q12 13 49 51q37 39 89 86q-6 31 -9 54q-61 -67 -134 -136v243h93q40 0 63 -5v47q-9 0 -52 -6q-6 1 -11 0h-93v147h68q45 0 63 -6v47q-3 0 -12 -3l-210 -2q-7 1 -16 1q-15 0 -36 4v-47q6 1 37 5
l69 1v-147z" />
  </g>

</svg>
