<?xml version="1.0" standalone="no"?>
<!DOCTYPE svg PUBLIC "-//W3C//DTD SVG 1.1//EN" "http://www.w3.org/Graphics/SVG/1.1/DTD/svg11.dtd" >
<svg xmlns="http://www.w3.org/2000/svg" xmlns:xlink="http://www.w3.org/1999/xlink" version="1.1" viewBox="-10 0 1010 1000">
   <path fill="currentColor"
d="M815 46q45 -1 80 -4q-5 22 -4 83v78q-1 64 4 81q-16 -5 -64 -4h-69q-57 0 -85 4q4 -54 4 -87v-80q0 -28 -4 -75q38 4 79 4h59zM827 106h-83v115h83v-115zM425 332q44 6 105 6h244q70 0 107 -6v77q-34 -6 -103 -6h-240q-75 0 -113 4v-75zM927 461v77q-45 -4 -100 -4h-212
l-24 68h149q55 0 117 -4q-5 35 -13 98q-8 72 -15 108q-8 52 -46 70q-37 20 -142 25q-11 -60 -46 -109q147 34 159 -30q6 -18 14 -69q3 -16 4 -24h-183q-64 0 -93 4q6 -21 17 -59q16 -55 21 -78h-52q-53 0 -95 6v-79q39 3 99 4h335q44 0 106 -4zM540 48q43 -1 79 -4
q-5 22 -4 83v78q-1 64 4 81q-16 -5 -63 -4h-70q-56 0 -85 4q4 -54 4 -87v-80q0 -28 -4 -75q31 3 79 4h60zM552 108h-84v115h84v-115zM190 0q113 31 104 38q0 2 -6 6q-24 14 -36 40q-3 6 -17 32q-14 25 -21 37h66q47 0 95 -8v80q-31 -8 -97 -8h-91q-2 2 -5 8q-40 63 -53 81
q24 3 65 4h84q55 0 85 -6v79q-26 -6 -89 -6h-32v115h24q67 0 111 -5v79q-30 -6 -95 -6h-40v200q42 -27 109 -87q-5 46 12 87q-119 71 -184 137q-16 -42 -42 -73q29 -24 32 -48v-216h-28q-48 0 -81 8v-81q32 5 67 5h42v-115h-20l-36 2v-49q-25 39 -40 55q-14 -36 -45 -75
q116 -121 162 -310z" />
</svg>
