<?xml version="1.0" standalone="no"?>
<!DOCTYPE svg PUBLIC "-//W3C//DTD SVG 1.1//EN" "http://www.w3.org/Graphics/SVG/1.1/DTD/svg11.dtd" >
<svg xmlns="http://www.w3.org/2000/svg" xmlns:xlink="http://www.w3.org/1999/xlink" version="1.1" viewBox="-10 0 1010 1000">
   <path fill="currentColor"
d="M194 -2q18 6 48 14q54 15 52 20t-7 7q-14 8 -29 31l-12 18q-25 38 -32 53h76q69 0 111 -8v78q-42 -6 -115 -6h-103q-84 127 -112 162q-18 -42 -37 -81q97 -103 160 -288zM895 44q-8 29 -8 93v66q0 75 6 105q-20 -8 -127 -8h-42v107h91q84 -1 120 -10v82q-48 -8 -123 -8
h-88v103h66q65 0 101 -6q-6 51 -6 111v77q0 108 8 131h-87l4 -49h-201q0 34 4 59h-89q0 -3 1 -10q9 -38 9 -127v-57q0 -93 -6 -131q18 3 87 4h38v-105h-147q-11 249 -109 408q-30 -13 -109 -25q97 -95 120 -216q27 -106 25 -451q0 -101 -6 -139q56 4 138 4h189q98 0 141 -8z
M808 115h-298v123h296zM653 302h-143q-2 51 -2 105h145v-105zM810 633h-201v145h201v-145zM121 308q0 -1 16 0q35 2 67 2h68q74 0 113 -6v71q-38 -6 -91 -6h-48v116h40q68 0 101 -6v81q-27 -9 -91 -8h-50v177q43 -40 75 -84q15 49 34 80q-113 90 -149 138q-3 4 -4 4l-3 -4
q-24 -33 -50 -57q-1 -1 5 -8q26 -31 25 -50v-196q-87 -1 -125 8v-83q48 8 125 8v-116q-12 0 -41 4q-14 2 -17 2v-67z" />
</svg>
