<?xml version="1.0" standalone="no"?>
<!DOCTYPE svg PUBLIC "-//W3C//DTD SVG 1.1//EN" "http://www.w3.org/Graphics/SVG/1.1/DTD/svg11.dtd" >
<svg xmlns="http://www.w3.org/2000/svg" xmlns:xlink="http://www.w3.org/1999/xlink" version="1.1" viewBox="-10 0 1034 1024">
  <g transform="matrix(1 0 0 -1 0 820)">
   <path fill="currentColor"
d="M518 636q0 75 2 86q0 13 6 29q1 3 5 11h-56q3 -39 6 -64l-1 -268q-4 -12 -11 -20q-4 -3 -10 -9q15 -24 24 -50q27 21 78 48l124 58q-3 25 -4 50q-37 -24 -80 -42l-83 -41v176q78 0 158 -3q6 0 14 -2v46q-33 -1 -65 -5h-107zM514 -152q-3 15 -4 44v24h339v-20
q0 -24 -4 -48h47q-3 39 -5 77l1 331l4 45q-33 -1 -66 -5h-153q21 52 30 64q9 13 29 26q-39 10 -64 22q-6 -36 -40 -112l-115 1q-15 3 -45 4q1 -21 2 -34q3 -21 3 -30v-324q0 -28 -3 -53q0 -6 -2 -12h46zM510 -48v144h339v-144h-339zM510 132v129h339v-129h-339zM771 722
q0 10 3 30q1 18 12 35h-58q0 -9 2 -14q0 -42 3 -86v-228q0 -54 40 -68q27 -7 65 -8q43 0 74 14q27 15 45 50q6 15 21 54q-12 6 -19 11q-6 4 -26 22q-1 -24 -7 -50q-9 -36 -28 -48q-18 -13 -59 -14q-45 0 -56 12q-12 9 -12 34v97l106 56q18 7 30 16q9 3 18 8q30 9 37 12
q-24 21 -42 46q-24 -22 -77 -58q-37 -21 -72 -39v116zM342 575q51 -3 60 -6h5v48q-6 -1 -13 -4q-45 -3 -95 -3h-84q6 15 13 29q10 21 21 42q24 57 56 78q-36 9 -61 19q-13 -42 -30 -79q-15 -37 -40 -82q-60 -114 -122 -162q21 -9 44 -25q27 34 53 74q33 51 35 54q6 7 13 17
h145zM229 253h-79q-24 0 -51 3q-1 0 -14 2v-46q42 6 70 5h74v-240q0 -24 -4 -36q-4 -18 -17 -29q21 -18 39 -44l35 40l134 135q-9 28 -17 55q-36 -61 -132 -144v263l127 -3q6 0 11 -2v46q-31 -1 -64 -5h-74v152q72 0 85 -2q9 0 20 -3v46q-33 -1 -66 -5l-146 2q-15 3 -26 3
v-46q54 6 85 5h10v-152z" />
  </g>

</svg>
