<?xml version="1.0" standalone="no"?>
<!DOCTYPE svg PUBLIC "-//W3C//DTD SVG 1.1//EN" "http://www.w3.org/Graphics/SVG/1.1/DTD/svg11.dtd" >
<svg xmlns="http://www.w3.org/2000/svg" xmlns:xlink="http://www.w3.org/1999/xlink" version="1.1" viewBox="-10 0 1010 1000">
   <path fill="currentColor"
d="M187 -4q85 23 97 40q1 5 -9 14q-14 12 -21 24q-4 6 -21 34q-23 38 -33 53h28q38 -2 89 -8v74q-43 -5 -99 -6h-43q-33 47 -60 83q15 5 79 6h18q20 0 66 -4q28 -3 41 -4v73q-46 -4 -79 -4h-16v125h12q48 -1 81 -6v68q-14 0 -43 -1q-26 -1 -38 -1h-12v169q54 -57 84 -92
l29 72q-82 90 -178 180l-54 -75q24 -15 52 -40v-214h-12q-55 1 -101 8v-72q32 4 97 4h16v-123q-39 0 -60 4v-49l-34 37q-7 -34 -33 -75q114 -126 157 -294zM653 2q52 0 87 10q0 4 -5 13q-8 14 -9 27q-2 12 -2 54h44q36 -1 113 -6l4 6q-6 47 -6 89v45q24 0 77 -3v65
q-42 -4 -77 -4v32q0 26 6 109l-8 6q-74 -6 -111 -6h-40v71h48h14q74 1 107 -4v66q-40 -4 -121 -6h-48v81h58h15q83 1 110 -2v66q-107 -6 -127 -6h-56v103q45 3 98 1q50 -2 132 -9q-35 37 -53 93q-386 -5 -470 -115q-46 64 -135 125q-24 -32 -74 -57q93 -32 167 -129
q-36 -64 -72 -189l74 -6q4 46 28 139q24 -87 35 -224q-65 3 -119 24l-24 -62q38 -15 56 -53q35 -79 73 -187q-69 3 -115 14v-71q105 8 195 0l4 6q-41 120 -107 279l55 -6q25 -3 54 -10l6 6q-22 227 -68 348q38 55 193 79v-97h-22q-76 0 -111 4v-70q10 1 32 2q57 4 77 4h24
v-81h-20q-44 0 -85 3q-5 1 -8 1v-66q6 0 20 2q54 4 75 4h18v-71h-16q-33 0 -91 4v-70q38 5 93 6h14v-77h-18q-68 0 -137 6v-73q33 6 131 7h24v-77h-14q-63 0 -93 4v-69q9 1 28 2q45 4 63 4h14q3 -60 -4 -104zM726 165v77h86v-77h-86zM726 302v77h86v-77h-86z" />
</svg>
