<?xml version="1.0" standalone="no"?>
<!DOCTYPE svg PUBLIC "-//W3C//DTD SVG 1.1//EN" "http://www.w3.org/Graphics/SVG/1.1/DTD/svg11.dtd" >
<svg xmlns="http://www.w3.org/2000/svg" xmlns:xlink="http://www.w3.org/1999/xlink" version="1.1" viewBox="-10 0 1034 1024">
  <g transform="matrix(1 0 0 -1 0 820)">
   <path fill="currentColor"
d="M477 627h427q43 0 62 -6v48q-1 0 -3 -1q-3 0 -5 -1q-3 0 -4 -2l-77 -2l-394 1q-9 1 -48 5q1 -33 5 -67l-1 -358q-7 -85 -14 -128l-17 -76q-16 -54 -41 -100q-22 -40 -56 -69q36 -10 55 -21q78 145 98 266q4 36 9 87q3 49 4 88v336zM694 681l17 -17q15 18 32 29l-41 39
q-51 48 -58 54q-9 -12 -29 -28q49 -40 63 -58q7 -7 16 -19zM570 232q-46 0 -65 5v-46q24 4 47 5h34q7 -16 16 -33q22 -45 41 -77l50 -75q-57 -58 -134 -104q-45 -25 -91 -36q27 -24 41 -44q129 79 213 155q39 -31 67 -51q28 -18 69 -40q39 -21 85 -42l2 3q3 6 8 13
q9 18 24 36q-39 3 -84 21q-73 30 -141 89q42 55 72 100q28 46 69 126q-30 -1 -60 -5h-263zM825 196q-34 -76 -102 -157q-28 39 -51 72q-9 16 -20 37q-10 21 -24 48h197zM606 495h-30q-45 0 -66 5v-47q7 3 23 4q12 1 73 2v-88q0 -9 -3 -32q0 -15 -3 -26q15 3 50 4l120 1
q30 -1 61 -5q-4 48 -5 94v52h63q42 0 63 -6v47q-9 0 -13 -3l-100 -2h-13q0 60 3 69q1 15 10 30h-57q0 -3 3 -10q3 -57 3 -89h-144v32q0 6 4 26q3 24 10 39h-58q0 -6 3 -11q3 -18 3 -86zM644 354v105h144v-105h-144zM155 546q6 12 11 16h151q40 0 63 -5v46q-10 0 -13 -3
l-94 -2h-87q33 76 48 102q10 19 35 36q-28 12 -57 29q-6 -27 -31 -90q-27 -61 -50 -102q-48 -81 -88 -104l25 -10q13 -6 28 -16l30 50q13 27 29 53zM223 252q-99 0 -120 3q-3 0 -10 2v-47q12 3 25 4q25 1 79 2h26v-196q0 -39 -20 -63l31 -43q18 27 28 38q12 15 33 38
q19 22 40 44q12 15 45 46q-6 30 -9 49l-111 -116v203h68q45 0 63 -6v47q-9 0 -13 -3l-100 -2h-18v138h40q43 0 62 -6v47q-3 0 -12 -3l-94 -2q-99 0 -120 3q-3 0 -10 2v-47q12 3 25 4q25 1 72 2v-138z" />
  </g>

</svg>
