<?xml version="1.0" standalone="no"?>
<!DOCTYPE svg PUBLIC "-//W3C//DTD SVG 1.1//EN" "http://www.w3.org/Graphics/SVG/1.1/DTD/svg11.dtd" >
<svg xmlns="http://www.w3.org/2000/svg" xmlns:xlink="http://www.w3.org/1999/xlink" version="1.1" viewBox="-10 0 1010 1000">
   <path fill="currentColor"
d="M204 -12q85 25 84 40q-1 2 -5 7q-22 33 -51 94h56h16q25 1 77 -4v58q31 6 87 6h141v-70q-14 1 -48 4q-81 7 -132 12q-6 -35 -44 -79q281 10 470 -50q66 89 50 96q-6 2 -19 -1q-27 -9 -55 -5q-34 5 -119 14q-23 2 -33 3v76h146q49 0 112 -4v67q-15 -2 -39 -3
q-12 -1 -27 -1h-42h-150v66h127q27 0 89 -4q-45 3 6 0q-8 36 -8 77v161q0 47 4 75q-2 0 -6 -1q-52 -5 -83 -5h-129v62h129q49 -1 97 -4v65q-45 -5 -103 -5h-123v69h133q57 0 121 -8v73q-48 -6 -120 -6h-327q-69 0 -117 8v-75q60 8 111 8h129v-69h-107q-31 0 -72 2
q-19 1 -29 1v-67q55 8 89 8h119v-64h-123q-40 0 -78 5q-5 1 -7 1q6 -47 6 -107v-125q0 -20 -1 -52q-1 -19 -1 -27q33 4 91 4h113v-66h-139q-53 0 -95 6v-55q-49 -4 -95 -4h-80q-28 48 -67 111q30 4 93 4q95 0 125 -6v71q-56 -8 -109 -6v135h36q39 0 89 -6v80q-21 -4 -89 -6
h-36v168q63 -49 95 -85q7 51 22 78q-75 55 -180 151q-7 6 -10 9l-24 -42q-16 -29 -24 -43q44 -19 50 -60v-174h-28q-68 2 -91 6v-80q22 4 95 6h24v-135q-42 0 -64 6v-31l-30 43q-21 -34 -63 -53q143 -150 190 -348zM480 369v70h129v-70h-129zM679 369v70h140v-70h-140z
M480 490v70h129v-70h-129zM679 490v72h140v-72h-140z" />
</svg>
