<?xml version="1.0" standalone="no"?>
<!DOCTYPE svg PUBLIC "-//W3C//DTD SVG 1.1//EN" "http://www.w3.org/Graphics/SVG/1.1/DTD/svg11.dtd" >
<svg xmlns="http://www.w3.org/2000/svg" xmlns:xlink="http://www.w3.org/1999/xlink" version="1.1" viewBox="-10 0 1034 1024">
  <g transform="matrix(1 0 0 -1 0 820)">
   <path fill="currentColor"
d="M181 543l186 -1q19 -1 40 -5v47q-33 -1 -65 -5h-143q36 63 43 79q24 46 51 61q-31 16 -54 32q-15 -42 -29 -72q-12 -28 -34 -66q-66 -121 -134 -177q25 -9 46 -23q21 24 34 44l35 52q12 18 24 34zM477 619q-24 0 -65 5v-46q6 0 14 2q25 0 51 3l445 -1l46 -4v46
q-33 -1 -65 -5h-200q12 18 25 29q-16 18 -121 115q-13 -15 -31 -30q67 -51 122 -114h-221zM242 237l-112 1q-7 1 -38 2q-6 0 -14 3v-47q54 6 79 5h85v-235q0 -21 -6 -39q-3 -10 -15 -25q16 -16 33 -43q15 19 26 36l37 45q82 99 87 103q3 4 7 7l-21 48q-55 -84 -110 -140v243
l139 -3q6 0 11 -2v47q-12 -3 -66 -6h-84v143l108 -3q6 0 11 -2v46q-33 -1 -65 -5l-162 1q-13 1 -25 2q-1 0 -14 2v-46q49 4 85 5h24v-143zM538 -55q0 -42 -20 -59q16 -22 29 -41q6 6 38 28q13 15 39 28q15 7 103 69q1 3 6 4q-3 27 -4 52q-57 -54 -153 -110v186q27 33 42 51
q51 72 60 84l154 -1l51 -4q-4 54 -5 107l1 126q0 18 4 47q-36 -1 -72 -5l-291 1q-15 3 -45 4q4 -99 5 -103q0 -111 -2 -137l-3 -40q57 4 87 5h68q-40 -66 -96 -126q-84 -81 -154 -105q27 -24 38 -39l79 59q0 1 3 3q6 4 13 11q3 6 17 15q4 3 8 7v-117zM840 273h-323v198h323
v-198zM978 -100l12 12q-124 36 -192 161q15 16 30 33q39 45 60 64q12 12 43 27q-18 18 -37 39q-10 -15 -25 -33q-64 -70 -93 -98q-6 13 -12 27q-21 48 -22 96q-28 -6 -49 -14q69 -226 258 -346q9 15 21 27q3 3 6 5v0z" />
  </g>

</svg>
