<?xml version="1.0" standalone="no"?>
<!DOCTYPE svg PUBLIC "-//W3C//DTD SVG 1.1//EN" "http://www.w3.org/Graphics/SVG/1.1/DTD/svg11.dtd" >
<svg xmlns="http://www.w3.org/2000/svg" xmlns:xlink="http://www.w3.org/1999/xlink" version="1.1" viewBox="-10 0 1034 1024">
  <g transform="matrix(1 0 0 -1 0 820)">
   <path fill="currentColor"
d="M654 93q6 7 10 18q24 -37 53 -77q30 -36 62 -70q70 -70 159 -116q16 24 39 47q-19 4 -40 9q-13 4 -44 23q-33 21 -54 39q-81 69 -144 169h192q43 0 64 -6v47q-6 0 -13 -3l-157 -2h-105l7 128h163q42 0 64 -5v46q-10 0 -14 -3l-93 -2h-119v101h112q43 0 62 -6v46
q-3 0 -12 -3l-95 -2h-67v92l193 -1l33 -4v46q-10 0 -14 -3l-99 -2h-73q42 60 80 107q18 22 43 37l-55 31q-12 -30 -36 -66q-31 -48 -69 -99q-4 -4 -8 -10h-171q-45 0 -66 5v-46q54 4 75 5h129v-92h-109q-45 0 -66 5v-46q12 3 26 4q24 1 76 2h73v-101q-168 0 -187 2l-16 3
v-46q24 4 49 5h154q0 -39 -3 -66q0 -25 -5 -62h-171q-45 0 -66 5v-47q1 1 37 5l191 1q-36 -109 -159 -198q-48 -33 -67 -42q-22 -12 -52 -19q24 -21 41 -42q4 3 8 7q6 3 18 11q177 118 227 220zM518 737q-9 10 -18 18l-31 -31q73 -60 115 -114q16 18 35 32l-53 49zM328 560
q42 0 62 -5v46q-4 0 -8 -1q-3 0 -4 -2l-99 -2h-74l9 21q16 34 25 53q9 15 19 33q13 24 34 38q-34 9 -59 20q-16 -51 -37 -96q-22 -46 -60 -112q-52 -87 -94 -111l26 -9q6 -3 27 -12q30 42 42 63q6 9 47 76h144zM215 245l-114 1q-12 0 -32 5v-48q9 3 21 5q27 1 103 2h22v-241
q0 -28 -24 -58q15 -22 31 -45q45 51 53 55q93 82 99 86q10 9 28 21q-3 12 -5 24q-4 15 -7 27q-12 -13 -25 -25l-41 -37q-33 -30 -72 -60v253h79q45 0 63 -7v48q-9 0 -13 -3q-36 0 -71 -3h-58v145h52q43 0 62 -6v47q-3 0 -12 -3l-97 -2q-105 0 -127 3q-3 0 -9 2v-47q6 1 37 5
l57 1v-145z" />
  </g>

</svg>
