<?xml version="1.0" standalone="no"?>
<!DOCTYPE svg PUBLIC "-//W3C//DTD SVG 1.1//EN" "http://www.w3.org/Graphics/SVG/1.1/DTD/svg11.dtd" >
<svg xmlns="http://www.w3.org/2000/svg" xmlns:xlink="http://www.w3.org/1999/xlink" version="1.1" viewBox="-10 0 1010 1000">
   <path fill="currentColor"
d="M851 26q51 81 48 95q-2 2 -12 -1q-29 -5 -56 -3q-36 4 -93 9q-35 3 -57 5v106h156q58 0 77 -1q23 -1 46 -5v79q-44 -9 -127 -8h-152v454h132v-127h-29q-40 0 -58 4v-71q27 3 60 4h27v-107q-67 -3 -93 2v-74q16 4 29 5q10 1 45 1h33q41 0 68 -4q-6 35 -6 80v347q0 43 6 79
h-89q6 -42 6 -73h-336q0 46 4 69h-83q10 -32 10 -83v-331q0 -32 -4 -80q64 0 155 -39l12 27q27 56 19 60q-1 1 -6 -1q-35 -11 -101 1v123h30q6 0 29 -2q20 -1 32 -2v73q-2 -6 -59 -6h-32v125h119v-454h-111q-63 -1 -111 8v-79q36 6 105 6h117v-100q-13 1 -36 3
q-105 8 -128 11q-4 -30 -31 -79q-2 -2 -3 -4q89 14 211 3q128 -13 237 -45zM198 -19q104 45 102 53q-1 3 -9 8q-19 12 -27 26q-6 10 -23 36q-17 27 -23 37h64q46 0 91 -6v80q-33 -6 -85 -6h-109q-12 19 -37 52q-16 22 -25 35q1 0 2 1q23 7 56 7h119q17 0 54 -4q-27 3 3 0v73
q-1 1 -13 -1q-28 -3 -50 -3h-38v112h36q31 0 75 -4v71q-33 -3 -71 -2h-40v179q2 -2 6 -7q47 -50 69 -77q10 40 40 74q-104 78 -177 178q-25 -50 -59 -79q46 -40 48 -60v-208h-44q-37 0 -47 1q-13 0 -30 3v-75q37 6 75 6h46v-112h-26q-30 0 -48 6v-59q-7 10 -21 25
q-8 9 -11 13q-13 -42 -41 -78q113 -110 168 -295z" />
</svg>
