<?xml version="1.0" standalone="no"?>
<!DOCTYPE svg PUBLIC "-//W3C//DTD SVG 1.1//EN" "http://www.w3.org/Graphics/SVG/1.1/DTD/svg11.dtd" >
<svg xmlns="http://www.w3.org/2000/svg" xmlns:xlink="http://www.w3.org/1999/xlink" version="1.1" viewBox="-10 0 1034 1024">
  <g transform="matrix(1 0 0 -1 0 820)">
   <path fill="currentColor"
d="M485 -89q-3 -48 -5 -64h48q0 3 -1 7q-3 6 -3 28l-1 442q69 -75 88 -125q15 19 35 33q-25 43 -123 152v54q27 0 51 -2q18 -1 16 -2q12 0 18 -2v47q-33 -1 -65 -5h-20v189l28 6q31 7 49 12q15 1 36 4q-30 24 -48 40q-25 -10 -50 -18l-70 -19q-45 -10 -78 -16q-27 -3 -64 -4
q18 -18 35 -42l56 11q33 7 68 14v-177l-88 1l-39 4v-47q1 0 3 1q-3 0 9 1q72 3 106 4q-6 -31 -20 -67q-16 -42 -48 -112q-24 -55 -44 -87q-18 -27 -48 -58l55 -14q36 63 59 112q24 49 55 128v-429zM797 380l-2 245q0 73 7 95q3 18 11 35h-61q6 -63 7 -107l-2 -298
q-1 -60 -11 -109q-9 -37 -22 -78q-12 -39 -27 -72q-45 -102 -104 -164q-19 -21 -57 -42q28 -16 47 -32q127 133 194 345q27 -96 50 -153q22 -55 60 -118l46 -74q24 15 55 25q-36 30 -72 85l-43 82q-18 37 -35 90q-18 57 -26 91q-7 39 -15 91v63zM690 489q3 21 17 47
q-24 1 -55 7q-3 -63 -13 -110q-19 -73 -36 -114q6 0 19 1q9 0 27 -3q15 43 26 96zM825 325q12 -3 23 -9q6 -1 22 -10q1 9 4 13q0 6 62 174q9 18 29 30q-15 6 -25 8q-16 6 -38 16q-27 -127 -77 -222zM138 501q9 15 14 25q9 18 22 35q139 0 156 -2q9 0 20 -3v47q-7 -3 -13 -3
q-22 -1 -53 -3h-91q18 51 33 79q18 40 43 55q-3 1 -7 3q-3 0 -9 5l-24 9q-3 1 -7 3q-3 0 -10 5q-3 -13 -23 -66q-3 -6 -50 -109q-4 -6 -7 -13q-6 -13 -33 -53q-28 -39 -56 -63q30 -9 50 -20q27 45 45 69zM189 259l-123 3q-6 0 -13 2v-46q15 1 33 3l103 2v-226q0 -22 -4 -37
q-6 -19 -20 -34q16 -19 34 -44q16 18 45 54q15 18 30 34q21 22 40 46l18 19l-14 50q-33 -51 -91 -108v246q84 0 105 -3q6 0 14 -2v46q-33 -1 -66 -5h-53v132q36 0 74 -3q6 0 10 -2v46q-30 0 -66 -5q-105 0 -130 2q-12 3 -24 3v-46q49 4 98 5v-132z" />
  </g>

</svg>
