<?xml version="1.0" standalone="no"?>
<!DOCTYPE svg PUBLIC "-//W3C//DTD SVG 1.1//EN" "http://www.w3.org/Graphics/SVG/1.1/DTD/svg11.dtd" >
<svg xmlns="http://www.w3.org/2000/svg" xmlns:xlink="http://www.w3.org/1999/xlink" version="1.1" viewBox="-10 0 1034 1024">
  <g transform="matrix(1 0 0 -1 0 820)">
   <path fill="currentColor"
d="M651 135v-91h-143q-39 0 -53 4q-4 1 -8 1v-46q3 0 8 1q7 3 33 4h163v-97h-228q-36 0 -53 4q-4 1 -8 1v-46q30 3 61 5l519 -1q3 0 35 -4v46q-21 -4 -59 -5h-229v97l178 -1l36 -4v46q-21 -4 -59 -5h-155v91l165 -1l42 -4q-3 30 -5 60l1 228q0 18 4 42q-27 -1 -56 -5h-151
v89l233 -1q3 0 35 -4v46q-21 -4 -60 -5h-208v101l68 12q96 18 105 18l41 -1q-3 4 -29 38q-3 7 -9 17q-39 -15 -80 -26q-78 -18 -165 -30q-75 -9 -126 -9q-18 0 -50 4q6 -12 7 -16q3 -6 5 -15q1 -9 4 -15q28 0 71 5q51 3 120 12v-95l-243 1l-25 4v-46q6 0 58 5h210v-89
l-159 1q-15 3 -41 4q1 -28 5 -59l-1 -230q-3 -12 -4 -41q45 4 95 5h105zM493 171v103h158v-103h-158zM493 308v111h158v-111h-158zM689 171v103h164v-103h-164zM853 419v-111h-164v111h164zM307 577q1 0 63 -6v48q-3 0 -6 -1l-2 -1l-37 -4l-128 -1l39 94q6 18 14 24
q9 10 26 18q-6 1 -11 3q-21 6 -55 18q-22 -85 -70 -184q-46 -91 -93 -137q12 -1 22 -6q9 -1 14 -4q6 -1 16 -4l40 64q18 33 42 79h126zM345 416q-73 -6 -83 -7l-109 3q-15 1 -29 4v-49q16 6 44 7h37v-160l-105 1q-31 3 -37 5v-47q18 4 61 5h81v-190q0 -37 -24 -59
q27 -30 40 -53q42 52 80 97q18 21 36 40q9 9 17 20q-9 42 -9 57q-55 -79 -102 -124v212q114 0 124 -3q3 0 9 -2v47q-19 -1 -39 -5l-94 -1v160q60 0 89 -3q4 0 13 -4v49z" />
  </g>

</svg>
