<?xml version="1.0" standalone="no"?>
<!DOCTYPE svg PUBLIC "-//W3C//DTD SVG 1.1//EN" "http://www.w3.org/Graphics/SVG/1.1/DTD/svg11.dtd" >
<svg xmlns="http://www.w3.org/2000/svg" xmlns:xlink="http://www.w3.org/1999/xlink" version="1.1" viewBox="-10 0 1010 1000">
   <path fill="currentColor"
d="M188 -10q120 28 108 32q1 5 -11 17q-41 41 -89 116h74q40 0 79 -8v74q-35 -6 -77 -6h-103q-24 24 -66 85q27 6 68 6h85q49 -1 85 -10v77q-38 -9 -77 -8h-30v120q40 0 109 -8v79q-24 -10 -109 -10v153q27 -27 56 -64q7 -8 10 -12l23 80q-95 92 -150 162l-54 -71
q45 -41 44 -54v-192q-59 -1 -98 8v-77q54 6 98 6v-120q-36 -1 -70 8v-61q-15 20 -30 36q-11 -41 -33 -74q99 -103 158 -284zM546 6q55 72 49 80q-1 2 -13 2q-46 1 -118 12v131q52 1 105 -12v75q-38 -6 -105 -6v127q57 0 103 -12v80q-25 -6 -103 -6v150l115 -35q-3 34 0 73
q-56 17 -115 32v117q0 39 7 81l3 18h-87q0 -2 1 -5q7 -51 7 -102v-81q-24 6 -46 17l-22 -83q48 -7 68 -16v-486v-12q1 -63 -6 -93q79 -10 157 -46zM859 28q-2 23 -5 64q-8 85 -9 115q-4 54 17 63q15 11 94 -4q-12 18 -18 80q-28 0 -66 1q-15 1 -19 1q-48 1 -61 -18
q-16 -19 -14 -78q0 -34 3 -88q3 -41 3 -62h-74q6 192 -73 283q-26 -23 -79 -37q50 -38 67 -81q19 -41 18 -120q0 -55 -5 -110q-1 -8 -1 -9q37 6 85 6h52q55 0 85 -6zM899 405q-34 210 -107 312q70 55 170 85q-21 22 -42 62q-8 14 -13 23q-94 -49 -169 -113q-56 53 -188 121
q-1 -2 -4 -6q-18 -36 -62 -69q116 -31 210 -99q-35 -42 -97 -197l78 -22q7 93 67 171q51 -81 71 -200h-123q-43 -1 -91 8v-80q63 8 93 8h121q51 -1 86 -4z" />
</svg>
