<?xml version="1.0" standalone="no"?>
<!DOCTYPE svg PUBLIC "-//W3C//DTD SVG 1.1//EN" "http://www.w3.org/Graphics/SVG/1.1/DTD/svg11.dtd" >
<svg xmlns="http://www.w3.org/2000/svg" xmlns:xlink="http://www.w3.org/1999/xlink" version="1.1" viewBox="-10 0 1034 1024">
  <g transform="matrix(1 0 0 -1 0 820)">
   <path fill="currentColor"
d="M688 77q31 -57 57 -87q21 -25 61 -57q64 -51 152 -91q12 18 19 25q9 9 23 25q-72 1 -168 71q-57 42 -97 114l222 -1l31 -4v46q-1 0 -60 -5h-238q12 64 13 71q1 15 4 30q159 0 175 -3q9 0 21 -2q-1 27 -3 31q-3 25 -3 34v183q0 9 3 37l3 27q-30 -1 -60 -5h-57v100l120 -1
q24 -1 48 -5v47q-9 -3 -23 -4q-18 -1 -41 -2h-104v51q0 33 13 67h-57q1 -7 3 -14q3 -51 3 -104h-146v50q0 34 14 66h-58q0 -6 3 -13q3 -51 3 -103h-93q-46 0 -65 6v-47q3 1 65 6h93v-100q-57 0 -111 5q1 -30 5 -61l-1 -211q-3 -7 -4 -33v-7q54 4 76 5h137q-4 -48 -19 -101
h-196q-48 0 -65 5v-46q12 3 60 5h190q-39 -82 -133 -143q-87 -51 -163 -50q24 -24 40 -50q16 4 63 25q40 18 61 31q126 75 175 187h9zM495 390v90h364v-90h-364zM495 250v104h364v-104h-364zM602 516v100h146v-100h-146zM106 436q79 123 85 129l165 -1q3 0 34 -4l2 -1v47
q-9 -3 -22 -3q-19 0 -41 -2h-117q10 24 23 49q21 48 33 64q9 15 31 26q-36 10 -63 25q-22 -102 -124 -248q-33 -45 -67 -65q30 -12 53 -28q3 6 8 12zM228 388v-131h-83q-39 0 -65 5v-46q1 0 62 5h86v-254q0 -33 -25 -58q16 -19 33 -41q21 31 48 60q60 60 95 84q-6 21 -9 49
q-15 -18 -44 -44q-30 -27 -61 -53v257q108 0 123 -3q6 0 8 -2v46q-6 0 -12 -3q-12 0 -50 -2h-69v131q70 0 86 -3q6 0 8 -2v46q-9 -3 -22 -3q-19 0 -41 -2h-116q-46 0 -65 5v-46q24 4 47 5h66z" />
  </g>

</svg>
