<?xml version="1.0" standalone="no"?>
<!DOCTYPE svg PUBLIC "-//W3C//DTD SVG 1.1//EN" "http://www.w3.org/Graphics/SVG/1.1/DTD/svg11.dtd" >
<svg xmlns="http://www.w3.org/2000/svg" xmlns:xlink="http://www.w3.org/1999/xlink" version="1.1" viewBox="-10 0 1034 1024">
  <g transform="matrix(1 0 0 -1 0 820)">
   <path fill="currentColor"
d="M904 167q40 0 62 -6v47q-4 0 -9 -1l-3 -3l-85 -2h-228q25 51 53 67q-27 13 -55 31q-12 -37 -40 -98h-112q-45 0 -65 6v-47q19 4 45 5l113 1q-15 -31 -31 -59l-45 -70l41 -15l120 -45q-70 -40 -113 -59q-79 -33 -136 -33q-12 0 -28 1q21 -30 31 -53q54 15 125 41
q36 13 69 29q36 18 95 54q30 -9 47 -17l92 -43q52 -25 86 -56q6 15 17 32l9 17q-18 7 -39 17l-181 81q39 49 59 82q21 37 47 96h59zM801 167q-33 -84 -103 -161q-12 3 -18 7l-71 26q-21 7 -47 20q39 66 62 108h177zM657 370q-3 -48 -4 -52q0 -3 -3 -9h50v2q-1 3 -1 4
q-3 15 -5 45v125q3 0 17 -16q54 -60 69 -72q4 -4 14 -11q51 -39 73 -51l78 -43q10 21 33 47q-48 4 -110 43q-36 22 -66 49q-31 27 -77 76h146q43 0 62 -6v47q-3 0 -12 -3l-97 -2h-130v168q0 33 14 64h-57q1 -4 3 -11l3 -53v-168h-163q-48 0 -66 5v-47q6 3 11 3q21 3 55 3
h133q-39 -45 -69 -76l-60 -55q-57 -48 -103 -59q24 -19 45 -43q18 13 34 29l64 55q25 24 46 46l73 82v-116zM451 703q9 -7 79 -77q25 -28 40 -50q15 18 33 31q-19 24 -54 59l-66 65q-18 -18 -32 -28zM760 601q21 -10 37 -24q60 84 89 117q12 15 35 26q-15 9 -26 18
q-9 6 -24 19q-19 -39 -41 -70q-45 -60 -70 -86zM102 431q10 16 23 31q37 61 56 85h145q42 0 63 -5v46q-4 0 -8 -1q-3 0 -4 -2l-174 -2l48 96q16 39 44 57q-36 15 -59 28q-9 -39 -48 -123q-45 -93 -86 -137q-31 -33 -52 -43q18 -7 26 -14q12 -7 26 -16zM233 240
q-129 0 -146 3q-3 0 -9 2v-47q12 3 26 4q24 1 75 2h54v-256q0 -18 -7 -39q-4 -9 -11 -17l34 -44q67 90 76 98q64 75 100 113q-9 24 -13 50q-34 -49 -125 -148q-9 -9 -17 -19v262h63q43 0 62 -6v47q-6 0 -9 -2q-1 0 -3 -1l-100 -2h-13v145h41q42 0 63 -6v47q-9 0 -13 -3
l-95 -2q-97 0 -117 2l-15 3v-47q12 3 25 4q25 1 74 2v-145z" />
  </g>

</svg>
