<?xml version="1.0" standalone="no"?>
<!DOCTYPE svg PUBLIC "-//W3C//DTD SVG 1.1//EN" "http://www.w3.org/Graphics/SVG/1.1/DTD/svg11.dtd" >
<svg xmlns="http://www.w3.org/2000/svg" xmlns:xlink="http://www.w3.org/1999/xlink" version="1.1" viewBox="-10 0 1034 1024">
  <g transform="matrix(1 0 0 -1 0 820)">
   <path fill="currentColor"
d="M383 -135q28 -19 44 -35q31 21 65 49q37 28 87 70q30 27 39 31q6 4 33 15q-27 15 -55 37q-21 -30 -41 -49q-24 -24 -66 -56q-66 -49 -106 -62zM471 85h-20q-49 0 -66 5v-46q24 4 44 5l521 -1q15 0 27 -4v46q-9 0 -12 -3l-99 -2h-7l1 413q1 24 5 49q-66 -4 -92 -5h-121
q3 42 8 83h215q42 0 63 -6v47q-3 0 -12 -3l-157 -2h-105q0 27 6 59q7 36 19 53q-24 1 -28 3q-10 0 -34 6l-1 -76q-1 -6 -2 -45h-152q-48 0 -66 5v-47q9 4 26 5l188 1q-4 -40 -8 -83l-105 1q-19 3 -42 4q6 -48 6 -62v-400zM508 85v82h314v-82h-314zM822 202h-314v78h314v-78z
M508 422v84h314v-84h-314zM508 316v70h314v-70h-314zM919 -95q-117 90 -144 108q-10 6 -30 21q-12 -15 -31 -31q46 -28 77 -53q72 -54 110 -91q9 -7 20 -19q9 15 16 21q1 1 3 4q6 6 13 15zM174 536q7 12 15 22h144q43 0 62 -6v47q-3 0 -12 -3l-99 -2h-74q21 52 54 113
q9 19 30 35q-24 7 -58 25q-36 -117 -101 -221q-61 -93 -106 -117q16 -7 26 -12q13 -7 25 -17l53 73q0 1 41 63zM211 244l-119 2q-4 1 -6 2q-1 0 -12 2v-48q4 4 23 5q27 1 114 2v-241q0 -25 -8 -42q-4 -9 -17 -19l31 -49q51 60 64 73l57 55q16 15 33 30q-6 24 -10 52
q-13 -16 -50 -54l-63 -58v253h90q45 0 63 -7v48q-3 0 -6 -1q-6 0 -7 -2q-36 0 -74 -3h-66v152h66q43 0 64 -6v47q-4 0 -8 -1q-3 0 -5 -2l-182 -2q-42 0 -62 5h-3v-47q9 4 26 5l67 1v-152z" />
  </g>

</svg>
