<?xml version="1.0" standalone="no"?>
<!DOCTYPE svg PUBLIC "-//W3C//DTD SVG 1.1//EN" "http://www.w3.org/Graphics/SVG/1.1/DTD/svg11.dtd" >
<svg xmlns="http://www.w3.org/2000/svg" xmlns:xlink="http://www.w3.org/1999/xlink" version="1.1" viewBox="-10 0 1010 1000">
   <path fill="currentColor"
d="M179 2q116 30 103 38q-1 1 -5 4q-29 15 -73 105h70q54 0 93 -6v74q-14 -2 -35 -3q-17 -1 -60 -1h-99l-68 95q11 9 72 8h75q78 -3 95 -6v77q-48 -6 -105 -6v104h42q59 -3 83 -6v77q-15 -4 -63 -7q-17 0 -24 -1h-38v149q36 -28 95 -82q4 -3 6 -5q1 55 22 77
q-90 64 -196 171q-21 -44 -42 -74q44 -26 44 -49v-185h-34q-45 0 -91 6v-77q25 5 85 6h40v-104q-57 0 -82 6v-59l-43 53q-10 -51 -30 -83q114 -113 163 -296zM825 125h-138v117h138v-117zM615 127h-135v115h135v-115zM520 371q21 3 135 6h97q112 -3 145 -6q-6 36 -6 119v274
q2 92 8 123h-91q5 -23 5 -65h-216l4 63h-85q8 -30 10 -139v-258q-3 -96 -6 -117zM595 437v67h220v-67h-220zM595 560v71h220v-71h-220zM595 687v75h220v-75h-220zM371 691q24 -68 31 -173q3 -54 4 -131q1 -75 -1 -202q0 -96 -6 -127q22 3 60 5q19 0 43 1h60h170
q121 0 171 -6q-4 29 -4 89v62q1 70 6 103q-5 0 -15 -1q-82 -5 -126 -5h-284q0 241 -25 351q-24 123 -96 238q-30 -47 -59 -83q20 -24 71 -121z" />
</svg>
