<?xml version="1.0" standalone="no"?>
<!DOCTYPE svg PUBLIC "-//W3C//DTD SVG 1.1//EN" "http://www.w3.org/Graphics/SVG/1.1/DTD/svg11.dtd" >
<svg xmlns="http://www.w3.org/2000/svg" xmlns:xlink="http://www.w3.org/1999/xlink" version="1.1" viewBox="-10 0 1034 1024">
  <g transform="matrix(1 0 0 -1 0 820)">
   <path fill="currentColor"
d="M471 455q-3 -72 -3 -152q-1 -126 -21 -212q-28 -135 -98 -206q21 -1 32 -5l30 -10q15 34 33 69q28 90 33 103q27 94 30 247l2 175l385 -1l50 -4q-4 19 -5 51l-1 138l6 63q-60 -4 -70 -5l-359 1q-7 1 -15 2q-15 0 -34 2q1 -36 5 -73v-183zM509 500v170h176v-170h-176z
M723 500v170h177v-170h-177zM550 -89q-3 -48 -5 -64h48q-1 4 -1 7t-4 59v11h302q0 -30 -5 -70h48q-4 19 -5 46l1 435l4 45l-62 -4l-285 1q-9 3 -41 3q1 -31 5 -64v-405zM890 241h-302v99h302v-99zM588 100v106h302v-106h-302zM588 -40v104h302v-104h-302zM355 546
q27 0 55 -3q4 0 11 -2v46q-6 0 -14 -3l-93 -3h-111q6 13 14 27q16 30 34 64t23 40q7 10 26 23q-27 10 -58 26q-16 -58 -65 -144q-73 -129 -144 -176q24 -7 52 -22q27 30 97 127h173zM241 249q-153 3 -169 5v-46q39 4 65 5h104v-241q0 -15 -4 -36q-3 -10 -15 -24
q15 -19 34 -42q31 43 64 84l87 104l-23 47q-24 -39 -61 -88l-44 -50v246q108 0 133 -3q6 0 14 -2v46q-43 -4 -78 -5h-69v136q94 0 107 -2q9 0 20 -3v46l-40 -4h-219l-39 4v-46q45 4 133 5v-136z" />
  </g>

</svg>
