<?xml version="1.0" standalone="no"?>
<!DOCTYPE svg PUBLIC "-//W3C//DTD SVG 1.1//EN" "http://www.w3.org/Graphics/SVG/1.1/DTD/svg11.dtd" >
<svg xmlns="http://www.w3.org/2000/svg" xmlns:xlink="http://www.w3.org/1999/xlink" version="1.1" viewBox="-10 0 1010 1000">
   <path fill="currentColor"
d="M188 -4q85 25 94 34q0 1 -4 4q-33 28 -72 121h12q62 0 87 -1q30 -1 50 -5v78q-58 -8 -135 -8h-47q-12 17 -40 62q-9 15 -14 23q52 8 119 8q88 0 131 -6v79q-35 -8 -109 -8v110q75 0 117 -8v87q-61 -8 -117 -8v169q61 -58 83 -86q10 49 36 74q-123 115 -177 180
q-8 -28 -53 -77q38 -26 39 -52v-208q-55 0 -79 1q-28 2 -49 7v-87q67 8 128 8v-110q-57 0 -81 8v-55q-11 15 -26 37q-28 -39 -57 -61q105 -106 164 -310zM504 -4q88 0 95 10q1 1 -1 7q-11 28 -11 73v27h100v-23q0 -37 -5 -81q-1 -5 -1 -7q63 -2 91 8q1 1 -1 5q-11 23 -11 69
v29h40q80 -1 131 -7v79q-5 0 -20 -2q-69 -6 -111 -6h-40l8 56h-89l8 -56h-100l8 60h-91l8 -60h-12q-57 0 -113 8v-81q68 8 111 8h14v-22q0 -60 -8 -94zM881 244q-9 47 -8 141v58q0 74 8 129q-11 -1 -39 -2q-91 -6 -146 -6h-23l-4 71h111q91 0 149 -8v78q-75 -6 -145 -6h-72
q59 117 244 129q-40 25 -63 79q-170 -40 -244 -186q-71 125 -268 194q-20 -46 -56 -75q192 -31 260 -141h-61q-75 0 -129 6v-78q84 8 129 8h71l4 -71h-30q-99 0 -156 8q8 -56 8 -145v-89q0 -44 -4 -71q-3 -13 -4 -23q114 8 186 8h93q113 0 189 -8zM802 316h-310v59h310v-59z
M802 439h-310v61h310v-61z" />
</svg>
