<?xml version="1.0" standalone="no"?>
<!DOCTYPE svg PUBLIC "-//W3C//DTD SVG 1.1//EN" "http://www.w3.org/Graphics/SVG/1.1/DTD/svg11.dtd" >
<svg xmlns="http://www.w3.org/2000/svg" xmlns:xlink="http://www.w3.org/1999/xlink" version="1.1" viewBox="-10 0 1010 1000">
   <path fill="currentColor"
d="M187 2q84 24 105 46q-2 4 -9 10q-33 24 -71 107h64q41 2 97 -4v76q-30 -6 -95 -6h-97l-48 83q24 7 95 6q81 0 121 -8v81q-13 -3 -48 -5q-46 -3 -57 -1v107q34 0 87 -5q14 -2 18 -2v79q-45 -7 -105 -4v192q75 -59 113 -95q1 3 1 8q3 28 23 62q-108 81 -196 162l-50 -67
q24 -18 29 -29q7 -13 7 -41v-192q-70 0 -100 6v-80q37 6 100 6v-107q-39 0 -60 4v-39l-48 65q-7 -39 -39 -77q105 -117 163 -338zM599 8q92 4 105 12q0 2 -5 10q-18 28 -18 60v121h125q37 -1 105 -6v79q-45 -6 -99 -8h-66q61 86 183 131q-34 21 -68 70q-103 -78 -180 -197
v58q1 35 7 91h-89q7 -39 8 -89v-58q-60 120 -182 201q-30 -39 -76 -62q149 -48 191 -145h-34q-70 0 -103 6v-77q52 7 105 8h99v-119q0 -72 -8 -86zM798 36q76 25 81 40q-1 4 -8 10q-35 28 -85 101q-33 -16 -68 -20q58 -73 80 -131zM490 42q49 67 77 121l-69 30
q-22 -67 -77 -121zM585 439q86 21 90 30q0 4 -8 12q-20 21 -38 51h190q83 -1 118 -6v80q-23 -6 -94 -6h-30q-30 85 -63 133q51 21 158 74q9 5 13 7q-13 15 -38 51l-18 24q-86 -66 -165 -103q-91 65 -305 109q-22 -57 -58 -91q169 14 296 -50q-74 -34 -181 -61q8 -11 28 -39
q24 -34 38 -54h-30q-9 1 -31 1q-56 1 -70 7v-80q26 5 97 6h68q31 -61 33 -95zM740 600h-147l-33 57l128 50q30 -36 52 -107z" />
</svg>
