<?xml version="1.0" standalone="no"?>
<!DOCTYPE svg PUBLIC "-//W3C//DTD SVG 1.1//EN" "http://www.w3.org/Graphics/SVG/1.1/DTD/svg11.dtd" >
<svg xmlns="http://www.w3.org/2000/svg" xmlns:xlink="http://www.w3.org/1999/xlink" version="1.1" viewBox="-10 0 1034 1024">
  <g transform="matrix(1 0 0 -1 0 820)">
   <path fill="currentColor"
d="M542 10q37 -40 62 -81l37 39q-39 36 -80 79q18 45 31 91q15 48 31 118q-66 -4 -79 -5q-120 0 -144 2q-9 1 -14 3v-43q24 4 44 5h146q-15 -67 -43 -147q-34 39 -89 95q-15 -15 -30 -27l102 -101q-27 -45 -82 -100q-39 -36 -93 -52q28 -21 42 -38q82 60 142 140q7 12 17 22
zM385 321q64 12 108 13l286 14q-6 -57 -7 -63h50l-6 52v13q54 3 92 4q31 0 53 -3q-1 24 -1 48q-39 -6 -62 -9l-82 -6v285h49q42 0 62 -5v43q-3 0 -12 -3q-28 0 -50 -2l-444 1q-18 1 -27 4v-43q24 4 57 5h32v-299q-27 -3 -47 -3q-22 0 -57 4zM779 453v-70q-27 -1 -56 -3
l-123 -5l-80 -4v82h259zM779 567v-83h-259v83h259zM520 599v70h259v-70h-259zM829 67q24 51 42 93q27 81 35 97q-28 -1 -58 -5q-150 0 -176 2q-10 1 -18 3v-43q25 3 52 5h142q-9 -36 -28 -86q-27 -60 -53 -99q-57 84 -62 155q-22 -9 -51 -14q21 -52 39 -89q21 -36 51 -82
q-18 -22 -40 -42q-15 -13 -63 -45q-43 -27 -82 -32q28 -24 45 -44q34 22 77 56q30 22 48 40q16 15 38 37q40 -37 80 -69q42 -31 97 -68q15 22 38 43q-49 15 -89 40q-36 24 -61 43q-18 15 -43 41q6 9 13 21zM45 439q7 -3 15 -8q9 -6 29 -16q18 25 31 47q34 52 64 104h138
q42 0 63 -5v46q-9 0 -12 -3l-168 -2q4 10 9 19q16 30 25 49q9 13 19 31q13 21 34 34q-27 10 -59 27q-18 -51 -40 -97q-24 -48 -60 -111q-54 -87 -97 -111q4 -1 9 -4zM205 252q-103 0 -125 2l-15 3v-47q12 3 26 4q24 1 79 2h35v-241q0 -33 -21 -60l36 -44q15 22 23 32
q108 126 116 133q6 7 16 16l-14 53q-1 -1 -72 -87q-4 -1 -26 -27l-22 -25v250h58q45 0 62 -6v47q-6 0 -8 -2q-3 0 -4 -1l-100 -2h-8v153h53q43 0 62 -6v47q-3 0 -12 -3l-97 -2q-96 0 -115 2q-6 1 -9 1l-12 2v-47q6 1 37 5l57 1v-153z" />
  </g>

</svg>
