<?xml version="1.0" standalone="no"?>
<!DOCTYPE svg PUBLIC "-//W3C//DTD SVG 1.1//EN" "http://www.w3.org/Graphics/SVG/1.1/DTD/svg11.dtd" >
<svg xmlns="http://www.w3.org/2000/svg" xmlns:xlink="http://www.w3.org/1999/xlink" version="1.1" viewBox="-10 0 1034 1024">
  <g transform="matrix(1 0 0 -1 0 820)">
   <path fill="currentColor"
d="M791 147q-54 -99 -69 -120q15 3 55 4l122 1l-15 -57q-19 -60 -49 -78q-21 -12 -75 -12q-24 0 -63 4q12 -21 21 -49q84 6 111 12q24 6 48 28q15 16 25 36q9 19 24 67l30 90q-31 -1 -64 -5h-101l63 120q-31 -1 -64 -5q-306 0 -324 3h-2q-3 1 -13 2v-46q6 3 29 3q15 1 69 2
h13q-9 -43 -17 -72q-6 -22 -17 -45q-34 -76 -92 -118q-43 -30 -100 -45q21 -13 42 -36q102 51 157 131q36 54 70 185h186zM475 545l21 24l-2 -344q-1 -1 -2 -5q-1 -3 -2 -7h46q-3 15 -3 41l387 -1l47 -4v46q-31 -1 -64 -5h-162v82l125 -1q24 -1 48 -5v47q-6 -3 -28 -5
q-18 0 -38 -2h-107v82l129 -1q9 0 43 -4v47q-6 -1 -63 -6h-109v74l191 -3q4 0 11 -2v46q-33 -1 -66 -5h-340q16 27 28 48t18 28q9 13 32 23q-28 13 -58 27q-51 -118 -132 -217q-33 -37 -59 -52q18 -7 35 -19q6 -3 13 -8l37 48zM533 290v82h170v-82h-170zM533 406v82h170v-82
h-170zM533 524v74h170v-74h-170zM667 735q63 -51 96 -95q25 21 34 31q-15 15 -54 51l-48 44q-12 -15 -28 -31zM174 532q6 12 13 22l187 -1l30 -4v47l-83 -6h-114q1 7 16 36q13 25 22 46q15 30 22 37q9 12 28 26q-25 9 -60 26q-19 -70 -62 -152q-42 -75 -63 -103
q-22 -30 -54 -56q27 -9 48 -24q33 46 43 63zM239 247q-133 3 -150 5v-46q39 4 65 5h85v-226q0 -12 -5 -34q-4 -15 -19 -38q22 -24 39 -47q66 82 87 106q16 19 37 42q19 19 25 26l-15 49q-27 -39 -111 -127v249l86 -1l40 -4v46q-12 -1 -14 -2l-104 -3h-8v140l87 -3q6 0 11 -2
v46q-12 -1 -14 -2l-105 -3l-88 1q-31 3 -38 4v-46q49 4 85 5h24v-140z" />
  </g>

</svg>
