<?xml version="1.0" standalone="no"?>
<!DOCTYPE svg PUBLIC "-//W3C//DTD SVG 1.1//EN" "http://www.w3.org/Graphics/SVG/1.1/DTD/svg11.dtd" >
<svg xmlns="http://www.w3.org/2000/svg" xmlns:xlink="http://www.w3.org/1999/xlink" version="1.1" viewBox="-10 0 1034 1024">
  <g transform="matrix(1 0 0 -1 0 820)">
   <path fill="currentColor"
d="M646 -107q0 -21 -3 -51q0 -3 -2 -8v-2h48q-3 19 -5 39v241q42 -57 106 -111q13 -12 55 -42l91 -62q21 21 48 45q-97 30 -171 91q-51 45 -101 108h180q31 0 49 -3q3 0 15 -2v46q-3 0 -12 -3l-156 -2h-104v103l150 -1q15 0 43 -4q-4 48 -5 94l1 263q0 21 4 42
q-27 -1 -56 -5h-186q9 34 25 60q6 15 27 30q-28 6 -63 16q-4 -18 -31 -106l-117 3q-12 1 -21 2q1 -30 5 -62l-1 -300l-4 -37q49 4 77 5h114v-103h-185q-49 0 -66 5v-46q24 4 44 5h167q-24 -37 -42 -58q-58 -66 -111 -105q-48 -31 -102 -47q21 -15 28 -22l20 -19
q78 52 139 108q54 51 108 126v-231zM834 316h-337v80h337v-80zM834 433h-337v81h337v-81zM497 550v83h337v-83h-337zM60 452l33 -20l79 118q6 7 8 12h153q42 0 62 -5v46q-4 0 -8 -1q-3 0 -4 -2l-95 -2h-89q36 72 48 89l23 37q4 6 23 19q-33 9 -62 23q-16 -48 -33 -86
q-18 -36 -44 -82q-33 -57 -62 -93q-24 -28 -50 -44zM229 254q-127 0 -149 2l-15 3v-47q12 3 26 4q24 1 79 2h59v-241q0 -21 -6 -39q-6 -12 -15 -25l34 -43q7 10 15 23q87 141 130 188q-13 24 -24 44q-10 -21 -44 -68q-27 -40 -53 -70v231h68q45 0 63 -6v47l-104 -5h-27v141
h42q42 0 63 -6v47q-6 0 -9 -2q-3 0 -4 -1l-93 -2q-120 0 -141 3q-3 1 -9 2v-47q6 1 37 5l77 1v-141z" />
  </g>

</svg>
