<?xml version="1.0" standalone="no"?>
<!DOCTYPE svg PUBLIC "-//W3C//DTD SVG 1.1//EN" "http://www.w3.org/Graphics/SVG/1.1/DTD/svg11.dtd" >
<svg xmlns="http://www.w3.org/2000/svg" xmlns:xlink="http://www.w3.org/1999/xlink" version="1.1" viewBox="-10 0 1010 1000">
   <path fill="currentColor"
d="M190 0q6 2 18 7q81 31 76 37q0 1 -4 5q-25 26 -74 106h50q72 -1 103 -6v82q-34 -8 -101 -8h-87q-32 43 -60 91q15 3 74 4h65q78 -3 95 -6v77q-27 -5 -87 -6h-22v111h26q44 1 95 -9v85q-40 -8 -93 -8h-28v167q54 -42 97 -96q7 39 28 76q-19 19 -35 34q-111 107 -124 125
q-7 8 -17 19q-18 -35 -56 -69q38 -29 38 -74v-182h-32q-22 0 -52 4q-14 1 -21 2v-81q41 7 75 7h30v-111q-18 1 -42 4q-14 1 -22 2v-67l-38 47q-14 -51 -35 -87q99 -77 160 -282zM581 40q44 42 52 68q-6 4 -23 5q-53 3 -136 22v187l84 -50q-3 -25 -30 -73l57 -26
q30 72 66 159l-66 24q-3 -18 -10 -30q-73 43 -162 125q-12 -40 -38 -64l-4 -4q32 -23 30 -39v-258q97 -6 180 -46zM935 66q-2 30 -6 82q-18 243 -28 243q-15 40 -121 48q2 -47 -26 -89q50 13 65 6q16 -4 20 -38q9 -74 14 -177h-75q-9 217 -133 314q-49 -33 -91 -46
q150 -52 154 -266q-40 2 -61 8v-83q34 6 107 8h63q88 0 118 -10zM915 473q-6 47 -6 146v165q1 72 8 113h-90q3 -21 6 -55h-343q0 30 6 53h-89q8 -23 8 -121v-178q0 -100 -6 -123q18 3 149 6h216q86 -1 141 -6zM490 542v85h135v-85h-135zM833 542h-143v85h143v-85zM833 687
h-143v91h143v-91zM625 687h-135v91h135v-91z" />
</svg>
