<?xml version="1.0" standalone="no"?>
<!DOCTYPE svg PUBLIC "-//W3C//DTD SVG 1.1//EN" "http://www.w3.org/Graphics/SVG/1.1/DTD/svg11.dtd" >
<svg xmlns="http://www.w3.org/2000/svg" xmlns:xlink="http://www.w3.org/1999/xlink" version="1.1" viewBox="-10 0 1010 1000">
   <path fill="currentColor"
d="M599 -10q19 3 53 7q58 6 54 9q0 2 -11 12l-8 8q87 145 265 177q-32 41 -45 83q-48 -20 -137 -79v30q-24 -6 -89 -6h-74q-65 0 -89 6v-34q-94 77 -147 109q-28 -37 -71 -56q205 -62 299 -266zM206 -8q102 19 104 24q-1 2 -5 6q-29 24 -65 97h64q77 0 97 -6v76
q-51 -6 -95 -6h-98q-8 13 -23 37q-32 52 -56 88q20 5 63 6h72q73 -2 95 -6v71q-12 -2 -54 -3q-27 0 -35 -1h-24v133h36q61 1 87 -4v74q-33 -8 -91 -8h-32v184q69 -34 111 -73q0 27 5 62q2 13 3 19q-77 36 -198 129l-24 -48q-10 -18 -14 -27q51 -31 50 -60v-184h-38
q-60 0 -85 8v-74q75 6 91 4h32v-135q-53 0 -74 4v-41q-18 24 -49 63q-7 -48 -32 -79q149 -162 182 -330zM649 58q-30 34 -90 107q-5 5 -7 8q12 3 53 4h72q43 -3 57 -6q-62 -61 -85 -113zM440 276q44 3 125 6h157q111 -1 129 -4q-3 18 -4 60v37q0 44 6 68q-27 -6 -135 -6
h-141q-127 0 -139 6q5 -20 6 -60v-49q-1 -10 -2 -26q-1 -17 -2 -32zM778 330h-264v59h264v-59zM863 459q47 57 46 73q-2 3 -12 -2q-18 -7 -30 -6q-98 6 -175 8v54h110q80 0 101 -4v67q-28 -6 -103 -8h-108v56h153q67 -3 109 -8v71q-27 -7 -103 -8h-159v84q2 45 -23 55
q-18 12 -113 16q5 -24 -34 -81q63 10 80 4q20 -5 19 -32v-46h-131q-72 1 -111 6v-69q67 7 115 8h127v-56h-117q-70 0 -93 4v-65q24 3 95 6h115v-50q-53 3 -135 6q-41 1 -57 2q-1 -30 -26 -65q99 12 250 6q142 -7 210 -26z" />
</svg>
