<?xml version="1.0" standalone="no"?>
<!DOCTYPE svg PUBLIC "-//W3C//DTD SVG 1.1//EN" "http://www.w3.org/Graphics/SVG/1.1/DTD/svg11.dtd" >
<svg xmlns="http://www.w3.org/2000/svg" xmlns:xlink="http://www.w3.org/1999/xlink" version="1.1" viewBox="-10 0 1010 1000">
   <path fill="currentColor"
d="M694 -10l16 112h145q45 0 78 -6q-3 11 -3 25q-1 10 -1 46v34q-1 49 4 71h-86q6 -42 6 -99h-373q0 49 1 64q1 21 5 43q168 -9 286 -47q12 26 40 61q16 20 13 24q-3 5 -27 2q-30 -4 -48 -2q-21 1 -97 11q-68 9 -115 15v75h248q53 0 95 -6v81q-38 -7 -97 -7h-24v117h67
q46 0 115 -4v81q-38 -9 -113 -8h-295h-52q-49 0 -68 1q-23 1 -37 3v-79q42 3 85 4v-211q0 -82 -2 -103h-63q6 -42 6 -79v-40q0 -44 -6 -73q39 6 101 6h129q-6 -48 -30 -104zM538 487v117h150v-117h-150zM746 707q90 59 191 143l-70 57q-68 -74 -179 -145zM550 709
q77 46 73 57q-2 2 -11 4q-23 4 -41 18q-49 40 -160 117q-2 -1 -6 -4q-44 -31 -80 -45q96 -35 225 -147zM188 0q106 29 104 38q0 2 -6 6q-24 14 -36 40q-3 6 -17 32q-14 25 -21 37h66q47 0 95 -8v80q-31 -8 -97 -8h-91q-2 2 -5 8q-40 63 -53 81q24 3 65 4h84q55 0 85 -6v79
q-26 -6 -89 -6h-32v115h24q72 0 111 -5v79q-16 -1 -47 -3l-48 -3h-40v200q42 -27 109 -87q-5 46 12 87q-119 71 -184 137q-16 -42 -42 -73q29 -24 32 -48v-216h-28q-48 0 -81 8v-81q32 5 67 5h42v-115h-20l-36 2v-49q-25 39 -40 55q-14 -36 -45 -75q116 -121 162 -310z" />
</svg>
