<?xml version="1.0" standalone="no"?>
<!DOCTYPE svg PUBLIC "-//W3C//DTD SVG 1.1//EN" "http://www.w3.org/Graphics/SVG/1.1/DTD/svg11.dtd" >
<svg xmlns="http://www.w3.org/2000/svg" xmlns:xlink="http://www.w3.org/1999/xlink" version="1.1" viewBox="-10 0 1034 1024">
  <g transform="matrix(1 0 0 -1 0 820)">
   <path fill="currentColor"
d="M419 -80q0 -24 -5 -65h47q0 3 -1 7q-1 3 -4 58v317h435v-305q0 -22 -13 -32q-15 -9 -46 -9q-27 0 -63 5l6 -12q0 -1 1 -4q3 -3 7 -14q1 -9 5 -21q34 1 47 2q46 4 70 17t24 56l1 311q1 24 5 47q-36 -1 -71 -5l-400 1q-19 3 -50 4q1 -33 5 -67v-291zM792 351q24 0 64 -5
q-4 45 -5 71q0 73 2 84q0 16 3 33l-64 -6l-253 1q-24 4 -45 5q1 -28 5 -59q0 -72 -2 -98q-3 -3 -3 -31q30 3 62 5h236zM536 385v110h277v-110h-277zM720 -26l63 -6q-6 60 -6 74q0 66 2 76l4 41q-72 -4 -107 -5q-63 0 -86 2q-6 3 -38 3q1 -30 5 -60q0 -72 -2 -98
q-3 -3 -3 -33q60 6 74 6h94zM593 8v112h148v-112h-148zM396 597q10 0 18 2l49 3l447 -1l48 -4v46q-33 -1 -66 -5l-454 1q-12 1 -25 2q-3 0 -17 2v-46zM584 747q12 -7 57 -48q21 -21 49 -56l33 32l-102 100q-19 -13 -37 -28zM130 449q18 33 41 67q4 9 10 16q150 0 165 -2
q12 0 20 -4v49q-6 -3 -13 -4q-22 -1 -52 -3h-104q9 21 17 43q27 75 39 97q10 21 31 37q-36 7 -64 16l-6 -25q-37 -139 -99 -232q-24 -36 -52 -62q24 -6 50 -20q7 13 17 27zM209 222h-56q-24 0 -51 3q-1 0 -14 2v-46q42 6 69 5h52v-225q0 -33 -21 -66q19 -22 35 -45
q67 85 96 115q0 1 3 3q30 39 50 58q-9 24 -17 46q-39 -61 -108 -132v246l86 -1l41 -4v46q-33 -1 -66 -5h-61v145q70 0 85 -2q9 0 20 -3v46l-40 -4h-146l-38 4v-46q49 4 81 5v-145z" />
  </g>

</svg>
