<?xml version="1.0" standalone="no"?>
<!DOCTYPE svg PUBLIC "-//W3C//DTD SVG 1.1//EN" "http://www.w3.org/Graphics/SVG/1.1/DTD/svg11.dtd" >
<svg xmlns="http://www.w3.org/2000/svg" xmlns:xlink="http://www.w3.org/1999/xlink" version="1.1" viewBox="-10 0 1010 1000">
   <path fill="currentColor"
d="M688 -10q12 50 30 98h88q1 -1 47 -3q70 -3 82 -5v79q-36 -6 -125 -8h-274q-94 0 -127 6v-77q41 5 119 8h107q-1 -1 -2 -4q-16 -42 -38 -84zM188 0q80 18 108 34q-1 6 -8 13q-26 25 -62 94h62q47 0 89 -4v74q-27 -6 -89 -6h-90q-34 47 -67 101q14 4 77 4h62q82 -3 103 -6
v75q-36 -6 -93 -6h-24v115h34q73 0 81 -5v81q-35 -8 -91 -8h-24v184q63 -49 117 -97q10 46 30 72q-135 108 -207 180q-2 -2 -5 -8q-26 -39 -46 -57q40 -32 38 -84v-190h-34q-12 1 -31 2q-57 2 -62 6v-81q20 5 87 5h40v-113q-60 3 -78 6v-37l-36 45q-15 -38 -43 -65
q125 -134 162 -324zM738 157q71 16 85 28q-1 2 -5 6q-22 25 -52 83h32q10 0 29 -1q60 -2 94 -7q-6 36 -6 72q0 34 6 73h-84q6 -33 6 -73h-357q1 45 6 77h-83q7 -26 8 -73q0 -34 -4 -74h5q59 6 94 6h32q-5 -34 -42 -89l79 -22q5 12 16 34q17 34 24 51l-65 26h142
q27 -45 40 -117zM690 373q2 7 6 23q11 41 14 59h115q99 -3 119 -6v81q-58 -9 -119 -10h-212q-3 29 -6 74h159q59 0 76 -1q22 0 29 -3q-7 33 -17 111q-8 59 -13 95q1 92 -158 97q-3 -47 -42 -91q111 21 123 -32q12 -55 16 -113h-181q-27 152 -186 248q-33 -36 -90 -53
q124 -52 166 -122q45 -66 47 -210h-30q-70 2 -111 8v-81q31 5 109 8h123q-2 -18 -26 -76z" />
</svg>
