<?xml version="1.0" standalone="no"?>
<!DOCTYPE svg PUBLIC "-//W3C//DTD SVG 1.1//EN" "http://www.w3.org/Graphics/SVG/1.1/DTD/svg11.dtd" >
<svg xmlns="http://www.w3.org/2000/svg" xmlns:xlink="http://www.w3.org/1999/xlink" version="1.1" viewBox="-10 0 1034 1024">
  <g transform="matrix(1 0 0 -1 0 820)">
   <path fill="currentColor"
d="M923 499q7 -4 16 -10q15 25 38 47q-55 6 -141 55q-102 61 -169 134q12 10 25 20q-19 6 -40 14q-3 1 -16 7q-21 -39 -67 -95q-48 -60 -127 -123q-30 -24 -49 -36q-12 -6 -39 -19q30 -16 46 -33q46 37 82 69q31 27 57 51q46 46 104 115q70 -66 82 -75l122 -83zM803 553
q-33 -1 -65 -5l-214 3q-6 0 -12 2v-44q39 4 66 5q171 0 194 -2q6 0 31 -3v44zM661 43l-238 3q-6 0 -17 2v-46q7 0 17 2q3 0 49 3h189v-81q0 -27 -14 -37q-13 -9 -46 -9q-21 0 -71 6q13 -28 19 -51l98 9q12 3 21 7q31 18 32 71v85l210 -1q9 0 43 -4v46q-33 -1 -66 -5h-187v59
l132 -1q31 0 48 -4v47q-12 -3 -28 -4q-18 -1 -38 -2h-114v86l90 7q30 1 36 3q34 3 48 3q12 0 39 -3q-13 18 -16 24q-7 13 -15 28q-33 -7 -66 -13q-37 -6 -100 -10q-78 -6 -115 -6l-119 -2q-31 0 -63 7q12 -24 20 -49l190 8q15 1 32 1v-84q-210 3 -218 5l-1 1v-47q49 6 105 5
h114v-59zM777 314q24 0 64 -5q-4 45 -5 72q0 30 3 61q0 12 2 23q-31 -1 -64 -5l-242 1q-15 3 -47 4q0 -15 5 -52l-1 -66l-4 -38q33 3 66 5h223zM530 347v79h268v-79h-268zM140 496l49 69l184 -1l30 -4v47l-82 -6h-111q9 22 13 28l34 60q21 39 49 60q-36 12 -59 22
q-12 -40 -37 -88q-57 -102 -94 -153q-21 -30 -39 -50q-15 -15 -35 -31q24 -7 47 -25q13 18 18 25zM224 242q-108 0 -135 2q-15 3 -24 4v-47q66 6 85 6h74v-226q0 -25 -3 -41q-3 -21 -20 -35q27 -24 42 -43q7 10 16 19l142 168q-15 24 -25 45q-36 -52 -56 -76
q-27 -34 -56 -67q-1 0 -2 -2v258q72 0 86 -2l45 -4v47q-6 0 -14 -3l-104 -3h-13v146l83 -1q13 -1 29 -4v46q-33 -1 -66 -5l-153 1l-24 2l-15 2v-46q49 6 108 5v-146z" />
  </g>

</svg>
