<?xml version="1.0" standalone="no"?>
<!DOCTYPE svg PUBLIC "-//W3C//DTD SVG 1.1//EN" "http://www.w3.org/Graphics/SVG/1.1/DTD/svg11.dtd" >
<svg xmlns="http://www.w3.org/2000/svg" xmlns:xlink="http://www.w3.org/1999/xlink" version="1.1" viewBox="-10 0 1034 1024">
  <g transform="matrix(1 0 0 -1 0 820)">
   <path fill="currentColor"
d="M851 97q-1 -22 -5 -43q-12 -114 -28 -135q-18 -30 -87 -31q-15 0 -59 6q10 -28 17 -52q96 3 138 28q21 13 31 35q9 27 19 84q3 42 13 106q3 18 9 43q-27 -1 -56 -5h-205l11 99h258q42 0 62 -5v47q-1 0 -3 -1q-3 0 -5 -1l-108 -4l-385 1q-18 3 -29 5v-47q24 4 52 5h116
q-6 -204 -135 -309q-45 -33 -94 -45q22 -21 44 -45q64 43 107 88q67 75 103 176h219zM498 458l-59 6q1 -27 5 -55q0 -34 -2 -65q-1 -4 -1 -11l-2 -11h48q-3 7 -5 49v51h422q-3 -87 -6 -93h50q0 1 -2 5q-4 22 -5 54l7 76l-33 -4q-19 -1 -80 -2h-63q46 81 83 101
q-30 13 -56 31q-21 -45 -36 -72q-15 -25 -39 -60h-61q-18 25 -40 53q-6 9 -42 52l-15 15q-19 -19 -30 -25l40 -46q16 -21 37 -49h-115zM944 634q-9 0 -13 -3l-100 -2l-357 1q-18 1 -30 4v-46q15 6 66 6h371q42 0 63 -6v46zM733 689l-43 35q-19 16 -53 43q-13 -15 -32 -31
q72 -48 116 -100q16 18 34 35q-12 9 -22 18zM674 379l-25 19q-10 -15 -26 -33q81 -57 108 -92q18 28 29 41q-33 28 -86 65zM352 557q40 0 63 -5v46q-6 0 -13 -3l-95 -2h-89q4 10 9 20l35 71q12 28 43 53q-30 9 -58 21q-45 -124 -107 -220q-60 -85 -98 -105q16 -6 52 -24
q30 39 58 79l45 69h155zM241 244l-149 2q-4 1 -6 2q-1 0 -12 2v-48q12 4 23 5q27 1 144 2v-240q0 -27 -7 -48q-4 -9 -19 -23l31 -43q16 18 26 29q19 18 84 82l24 22l42 36q-1 18 -3 37q0 10 -2 22q-57 -66 -139 -132v258h76q45 0 64 -7v48q-10 0 -14 -3q-6 -1 -14 -2
l-112 -1v149h46q45 0 63 -6v47q-6 0 -12 -3l-195 -2q-7 1 -16 1q-12 0 -35 4v-47q1 1 36 5l76 1v-149z" />
  </g>

</svg>
