<?xml version="1.0" standalone="no"?>
<!DOCTYPE svg PUBLIC "-//W3C//DTD SVG 1.1//EN" "http://www.w3.org/Graphics/SVG/1.1/DTD/svg11.dtd" >
<svg xmlns="http://www.w3.org/2000/svg" xmlns:xlink="http://www.w3.org/1999/xlink" version="1.1" viewBox="-10 0 1034 1024">
  <g transform="matrix(1 0 0 -1 0 820)">
   <path fill="currentColor"
d="M545 16q10 12 21 22q15 15 42 27q-24 12 -56 36q-18 -37 -71 -94q-60 -61 -103 -85q24 -19 41 -34q42 39 103 103q10 13 23 25zM702 144q243 0 266 -3q1 0 11 -2v46q-6 0 -8 -1q-3 0 -4 -2q-27 0 -50 -2l-468 1q-18 1 -29 4v-46q24 4 47 5h197v-223q0 -34 -59 -35
q-28 0 -63 6q16 -48 17 -53q37 1 69 7q48 9 63 26q10 15 11 40v232zM761 672h136q31 0 50 -3q1 0 14 -2v46q-3 0 -8 -2q-3 0 -4 -1l-187 -2l-308 1q-18 1 -27 4v-46q24 4 57 5h109v-87l-126 3q-10 0 -21 2q1 -16 2 -27q3 -19 4 -31v-89q0 -6 -3 -25q-1 -9 -3 -33q30 3 62 5
l367 -1l43 -4q-4 49 -5 94q0 66 2 77q0 16 3 34q-55 -4 -82 -5h-75v87zM488 426v123h105v-123h-105zM630 426v123h94v-123h-94zM630 585v87h94v-87h-94zM761 426v123h114v-123h-114zM888 307q-10 0 -17 -3q-18 0 -45 -2h-271q-48 0 -66 5v-47q9 4 26 5l311 1q39 0 56 -4
q1 0 6 -2v47zM963 -54l-158 152q-15 -18 -32 -33q55 -48 85 -77q42 -42 68 -73q6 -9 14 -22q18 21 37 40q-7 7 -14 13zM102 414l42 57q21 30 52 78h144q42 0 62 -5v46q-9 0 -12 -3l-99 -2h-74q3 6 11 21q37 78 53 100q12 21 34 36q-37 10 -64 23q-30 -106 -107 -224
q-61 -93 -106 -114q7 -3 24 -11q27 -15 29 -18q4 9 11 16zM232 241q-117 0 -137 3q-3 1 -8 3v-48q4 1 11 3q72 3 107 4h27v-223q0 -18 -5 -36q-4 -12 -16 -24q15 -22 32 -45q75 84 95 101q6 9 35 34q16 15 35 27q0 3 -2 10q-6 24 -11 48q-10 -9 -30 -35l-80 -76
q-7 -4 -16 -13v232h73q42 0 62 -7v48h-3q-3 -1 -5 -3q-3 0 -4 -1l-99 -2h-24v141h49q45 0 64 -6v47q-3 0 -8 -2q-3 0 -4 -1l-190 -2q-7 1 -16 1q-12 0 -35 4v-47q12 3 25 4q24 1 78 2v-141z" />
  </g>

</svg>
