<?xml version="1.0" standalone="no"?>
<!DOCTYPE svg PUBLIC "-//W3C//DTD SVG 1.1//EN" "http://www.w3.org/Graphics/SVG/1.1/DTD/svg11.dtd" >
<svg xmlns="http://www.w3.org/2000/svg" xmlns:xlink="http://www.w3.org/1999/xlink" version="1.1" viewBox="-10 0 1010 1000">
   <path fill="currentColor"
d="M157 -6q106 27 103 36q0 2 -4 4q-29 15 -66 103h74q60 0 89 -6v78q-29 -6 -95 -6h-101q-4 6 -12 19q-21 34 -48 76q19 3 76 6h75q32 0 97 -10v79q-36 -4 -97 -4h-20v114h32q47 0 89 -8v77q-18 -4 -89 -4h-34v177q57 -39 109 -92q6 40 26 78q-103 65 -200 160
q-5 -8 -16 -23q-21 -31 -32 -46q43 -42 40 -73v-181h-32q-48 0 -81 6v-79q24 5 83 8h32v-114q-8 -2 -68 4v-57l-24 34q-16 -52 -37 -82q96 -107 131 -274zM675 -4q6 24 16 75q5 22 7 33h141q88 -1 115 -6v75q-40 -8 -115 -8h-99q78 26 72 42q-2 5 -9 10q-24 18 -55 67h46
q73 -3 109 -6q-6 33 -6 139v381q3 63 -21 77q-24 19 -122 28q-4 -59 -38 -97q67 15 87 8q21 -5 20 -38v-432h-367v400q0 102 6 139h-89q5 -14 6 -47q1 -16 2 -38v-56v-305q-1 -111 -6 -161q44 7 113 8h185q36 -62 55 -119h-246q-70 0 -113 8v-75q18 3 119 6h125
q-11 -51 -32 -96zM597 352q71 1 84 8q1 2 -2 9q-14 25 -14 62h33q66 -3 86 -6v69q-21 -7 -84 -7h-37v69h22q33 2 61 -4q-2 17 -2 60v71q0 52 6 73q-26 -4 -79 -4h-60q-65 0 -89 6q4 -21 4 -81v-58q-3 -52 -6 -67q28 3 65 4h20v-69h-32q-71 -1 -89 5v-67q2 0 10 1q31 4 77 5
h34q-2 -61 -8 -79zM681 610h-96v89h96v-89zM558 171q22 48 37 85l-65 18q-11 -25 -39 -74q-3 -6 -5 -9z" />
</svg>
