<?xml version="1.0" standalone="no"?>
<!DOCTYPE svg PUBLIC "-//W3C//DTD SVG 1.1//EN" "http://www.w3.org/Graphics/SVG/1.1/DTD/svg11.dtd" >
<svg xmlns="http://www.w3.org/2000/svg" xmlns:xlink="http://www.w3.org/1999/xlink" version="1.1" viewBox="-10 0 1034 1024">
  <g transform="matrix(1 0 0 -1 0 820)">
   <path fill="currentColor"
d="M343 557q16 0 62 -5v47q-21 -1 -44 -5l-162 -1l47 89q16 34 24 42q7 9 28 20q-24 10 -59 29q-45 -138 -119 -234q-24 -33 -42 -52q-15 -18 -34 -31q3 0 20 -11q12 -6 25 -15q15 19 31 41q21 28 60 86h163zM550 107q-3 -3 -12 -7q42 -63 106 -121q-51 -37 -116 -66
q-78 -28 -143 -39q27 -27 38 -45q48 18 86 33q33 12 59 26q42 21 114 66q78 -45 112 -62q69 -30 150 -60q4 9 9 17q19 30 23 36q-42 1 -122 26q-81 30 -139 70q57 51 97 94q36 42 73 96q-60 -6 -81 -6l-325 3q-3 1 -8 3v-47q39 4 59 5h277q-25 -33 -55 -62q-30 -30 -74 -65
q-22 18 -40 35q-13 13 -28 31q-22 30 -27 58q-9 -6 -33 -19zM431 216q19 4 51 5l429 -1l41 -4q-4 45 -5 69l1 98l4 40q-36 -6 -57 -6l-425 1q-4 1 -39 5q6 -54 6 -74l-1 -93q0 -1 -5 -40zM475 257v124h116v-124h-116zM628 257v124h110v-124h-110zM774 257v124h135v-124h-135
zM545 735q-36 6 -56 6q6 -57 6 -80l-1 -156q-4 -15 -5 -40q45 4 73 5l272 -1l42 -4q-6 54 -6 67q0 163 2 174l4 35q-15 -1 -28 -2q-18 -3 -28 -4h-275zM832 506h-301v79h301v-79zM832 700v-79h-301v79h301zM388 436q-21 -1 -44 -5h-205q-9 3 -19 5v-47q49 4 80 5h30v-154
q-124 0 -143 2q-3 0 -18 5v-48q49 4 74 5h87v-241q0 -45 -22 -64q1 -1 37 -44l1 -2q109 120 130 139q7 9 15 15q24 24 27 26q-15 39 -14 46q-27 -34 -55 -64q-30 -33 -80 -79v268h74q18 0 46 -3q1 0 16 -2v48q-24 -6 -38 -6l-98 -1v154q69 0 81 -2q3 0 38 -3v47z" />
  </g>

</svg>
