<?xml version="1.0" standalone="no"?>
<!DOCTYPE svg PUBLIC "-//W3C//DTD SVG 1.1//EN" "http://www.w3.org/Graphics/SVG/1.1/DTD/svg11.dtd" >
<svg xmlns="http://www.w3.org/2000/svg" xmlns:xlink="http://www.w3.org/1999/xlink" version="1.1" viewBox="-10 0 1034 1024">
  <g transform="matrix(1 0 0 -1 0 820)">
   <path fill="currentColor"
d="M536 323l-7 -144q-6 -181 -7 -199q0 -31 -4 -49q-4 -12 -11 -19q-10 -9 -34 -9q-13 0 -47 4q9 -24 14 -48q51 3 78 11q24 7 32 30q9 25 9 82q6 226 9 239q1 51 6 87l4 56q-30 -1 -61 -5h-58l5 155l115 -3q3 0 7 -3v47q-9 -3 -23 -3q-18 0 -41 -2h-115q-40 0 -64 5v-47
q6 3 26 4q27 1 55 2l-2 -146q0 -43 -3 -78q-9 -136 -29 -202q-18 -69 -57 -134q-36 -54 -71 -64q21 -9 53 -33q69 102 100 187q15 49 27 114q9 67 15 165h79zM394 723q70 -91 94 -151q18 16 38 25q-55 85 -85 124q-6 9 -14 23q-9 -9 -13 -12q-6 -3 -20 -9zM660 310
q0 -39 -2 -70q-3 -31 -12 -79q-15 -103 -47 -188q-27 -60 -56 -86q21 -6 45 -24q15 27 37 81q13 31 23 63q10 34 26 93q15 -58 32 -93q31 -69 106 -100q15 -4 51 -12q36 -6 90 -14q6 15 18 31q6 9 13 17q-27 -1 -46 -2q-43 0 -84 8q-27 6 -59 25v193q54 0 114 -3q1 0 4 -2
q3 0 5 -1v47q-3 0 -8 -2q-15 0 -32 -2l-83 -1v211h108l-18 -51q-15 -45 -29 -66q21 -6 37 -15q16 45 34 89l32 84q-30 -1 -60 -5l-249 1q-18 1 -27 4v-46q24 4 45 5h90v-410q-24 39 -33 63q-24 72 -34 151q1 36 10 60q4 19 20 33q-27 4 -46 10zM269 562l64 -6v47
q-9 -3 -23 -3q-19 0 -41 -2h-79q28 67 42 89q12 19 36 30q-33 12 -62 33q-10 -48 -46 -126t-65 -119q-31 -42 -53 -51q24 -10 47 -26l40 60l44 74h96zM186 377v-141h-57q-42 0 -65 5v-46q12 3 46 4l76 1v-232q0 -22 -9 -37q-3 -4 -12 -12l30 -39l16 19q13 13 20 23l82 91
q12 15 33 31q-15 18 -25 37q-15 -21 -60 -73l-38 -36v228q90 0 105 -3q3 0 9 -2v46q-1 0 -59 -5q-3 1 -5 0h-50v141q69 0 85 -3q6 0 8 -2v46q-10 -1 -22 -4h-167q-18 1 -27 4v-46q42 6 69 5h17zM883 551q39 0 51 -3q6 0 13 -3v47q-19 -3 -23 -4l-232 -1q30 84 42 104
q12 22 36 36q-21 6 -35 13l-32 16q-4 -31 -25 -93q-33 -100 -75 -163q-27 -39 -57 -59q31 -6 56 -21l34 60l39 71h208z" />
  </g>

</svg>
