<?xml version="1.0" standalone="no"?>
<!DOCTYPE svg PUBLIC "-//W3C//DTD SVG 1.1//EN" "http://www.w3.org/Graphics/SVG/1.1/DTD/svg11.dtd" >
<svg xmlns="http://www.w3.org/2000/svg" xmlns:xlink="http://www.w3.org/1999/xlink" version="1.1" viewBox="-10 0 1010 1000">
   <path fill="currentColor"
d="M665 -12q9 28 23 96h127q63 0 112 -6v69q-42 -6 -108 -6h-131v54h116q16 0 52 -3q7 -1 11 -1q-4 17 -4 51v54h24q20 0 44 -3q7 -1 11 -1v62q-23 -6 -51 -6h-28v61q0 12 1 31q1 13 1 19q-34 -4 -75 -4h-102v47h98q46 0 93 -4q-5 22 -4 78v254q10 67 -121 71q0 -42 -26 -81
q84 21 80 -28v-30h-120v42v56q1 19 2 31h-71q6 -36 6 -97v-32h-97v32q0 61 6 109h-86q10 -48 10 -121v-208l-4 -76l72 4h99v-47h-77q-55 0 -82 4v-62q17 4 29 5q9 1 43 1h87v-53h-192q5 368 -116 555q-34 -19 -99 -26q91 -89 122 -236q16 -74 22 -175q5 -97 1 -257
q0 -7 -1 -20q-1 -86 -7 -115q56 8 103 8h153q-10 -46 -34 -82zM625 141h-188l-4 159h192v-54h-67q-60 -1 -84 4v-59q33 4 74 4h77v-54zM688 246v54h108v-54h-108zM688 350v53h108v-53h-108zM526 554v54h99v-54h-99zM688 554v54h120v-54h-120zM526 655v56h99v-56h-99z
M688 655v56h120v-56h-120zM175 4q100 45 93 50q-1 2 -8 6q-18 10 -26 24q-12 24 -42 69h58q46 0 87 -6v74q-13 -1 -31 -2h-50h-101q-5 8 -15 23q-24 38 -41 60q12 5 52 4h111q15 0 50 -4q-26 3 3 0v71l-3 -1q-27 -5 -56 -5h-32v106h30q42 -1 71 -4v67q-22 -2 -69 -2h-32v165
q18 -21 60 -67q5 -6 8 -9q8 39 31 64q-90 65 -158 175q-29 -55 -54 -76q42 -42 42 -57v-195h-40q-34 0 -43 1q-12 0 -28 3v-71q33 6 71 6h40v-106h-24q-32 0 -44 4v-53q-18 21 -29 36q-9 -34 -36 -74q100 -102 155 -276z" />
</svg>
