<?xml version="1.0" standalone="no"?>
<!DOCTYPE svg PUBLIC "-//W3C//DTD SVG 1.1//EN" "http://www.w3.org/Graphics/SVG/1.1/DTD/svg11.dtd" >
<svg xmlns="http://www.w3.org/2000/svg" xmlns:xlink="http://www.w3.org/1999/xlink" version="1.1" viewBox="-10 0 1010 1000">
   <path fill="currentColor"
d="M175 -4q13 2 37 5q68 7 70 15q0 3 -9 9q-19 11 -27 25q-25 43 -44 71h66q62 0 111 -8v80q-48 -9 -109 -8h-97q-18 32 -47 75q-11 15 -15 22l85 4h46q63 0 113 -6v76q-35 -9 -113 -6v123h34q76 0 109 -6v75q-42 -6 -103 -6h-40v175q40 -33 115 -113q5 55 22 87
q-122 104 -202 190q-6 -8 -15 -27q-17 -36 -35 -60q42 -29 44 -57v-193q-78 -3 -113 6v-79q47 8 113 8v-123q-45 0 -70 6v-58q-11 18 -25 37q-5 7 -7 11q-5 -24 -34 -69l-9 -15q97 -91 149 -266zM581 2h100q10 33 25 72h98q89 0 125 -6v73q-36 -9 -121 -8h-274
q-87 -1 -123 8v-77q36 9 123 10h87q-23 -47 -40 -72zM722 141q23 6 71 21q12 4 17 5q-1 1 -4 3q-20 13 -46 61h93q55 0 109 -8v75q-37 -6 -115 -6h-333q-86 0 -125 6v-75q38 8 121 8h22q-10 -30 -34 -68l77 -14l28 82h85q24 -37 34 -90zM877 346q-10 35 -10 142v66
q0 48 6 99q-36 -6 -139 -6l-2 127q-7 36 70 30q42 0 54 -19q14 -15 27 -84q33 42 77 57q-15 115 -119 117q-10 1 -41 1q-34 0 -48 1q-93 6 -89 -57v-173h-68q-6 210 -232 248q-22 -48 -81 -77q228 3 244 -171q-78 -4 -101 8q10 -25 10 -133v-59q0 -88 -6 -117q35 6 138 6
h157q93 0 153 -6zM506 407v68h290v-68h-290zM506 592h290v-70h-290v70z" />
</svg>
