<?xml version="1.0" standalone="no"?>
<!DOCTYPE svg PUBLIC "-//W3C//DTD SVG 1.1//EN" "http://www.w3.org/Graphics/SVG/1.1/DTD/svg11.dtd" >
<svg xmlns="http://www.w3.org/2000/svg" xmlns:xlink="http://www.w3.org/1999/xlink" version="1.1" viewBox="-10 0 1034 1024">
  <g transform="matrix(1 0 0 -1 0 820)">
   <path fill="currentColor"
d="M101 426q10 15 78 119h171q24 0 46 -3l17 -2v47q-9 0 -17 -3q-18 -3 -66 -3h-132q27 52 48 98q15 33 23 44q4 6 25 17q-27 9 -62 28q-10 -57 -63 -164q-54 -102 -113 -158q16 -4 33 -13q6 -3 12 -7zM601 348l-168 3l-9 3v-48q15 4 35 5l455 1q42 0 52 -3q3 0 10 -3v48
q-45 -6 -71 -6h-131v238q147 0 156 -3q4 0 8 -2v47q-21 -1 -43 -5q-420 0 -428 3l-6 2v-47q42 6 70 5h70v-238zM638 348v238h98v-238h-98zM503 538q-9 -9 -17 -12l-20 -10q40 -63 68 -130q13 12 36 21q-15 33 -33 64q-3 6 -8 13q-18 36 -26 54zM508 -116q0 -31 -3 -44
l-2 -13h47q-3 4 -5 54v4h304l-6 -56h49q-3 27 -5 56l1 312l4 41q-55 -4 -71 -5l-279 1q-15 3 -39 4q1 -28 5 -58v-296zM545 -79v128h304v-128h-304zM545 85v112h304v-112h-304zM525 762q-6 -6 -9 -8q-3 -3 -12 -6q61 -69 89 -117q18 12 36 26l-92 114zM735 644q3 -1 31 -20
q60 96 73 112q10 12 32 19q-31 13 -55 30q-6 -24 -33 -71q-27 -45 -48 -70zM801 405q19 -9 32 -14q1 -1 7 -4q9 13 17 30q39 75 65 88q-27 12 -48 30q-30 -75 -73 -130zM377 416q-73 -6 -87 -7q-102 0 -127 2q-7 1 -15 2l-13 3v-48q15 4 34 5l59 1v-145l-129 3q-9 3 -14 3
v-47q1 0 57 5h86v-232q0 -21 -4 -32q-3 -12 -15 -21q16 -18 33 -49q45 49 65 67q75 72 88 83q-4 18 -6 34q0 7 -2 18q-36 -42 -65 -71q-24 -24 -56 -53v256q117 0 126 -3q4 0 7 -2v47l-58 -6q-3 1 -5 0h-70v145l99 -3q4 0 12 -3v48z" />
  </g>

</svg>
