<?xml version="1.0" standalone="no"?>
<!DOCTYPE svg PUBLIC "-//W3C//DTD SVG 1.1//EN" "http://www.w3.org/Graphics/SVG/1.1/DTD/svg11.dtd" >
<svg xmlns="http://www.w3.org/2000/svg" xmlns:xlink="http://www.w3.org/1999/xlink" version="1.1" viewBox="-10 0 1010 1000">
   <path fill="currentColor"
d="M538 -17q79 16 93 27q-1 2 -7 6q-25 14 -51 42h151q72 0 107 -6q-38 65 -93 123h64q76 -3 99 -6q-6 30 -6 105v56q0 94 6 121q-61 -7 -165 -4h-165q-88 -2 -158 4q6 -46 8 -105v-121q-14 15 -38 35q-30 -33 -64 -43q18 -7 44 -28q-55 -6 -151 -6q-30 57 -61 105
q27 5 91 6q92 0 127 -8v76q-15 -3 -39 -3q-12 -1 -28 -1h-48v119h34q40 0 75 -6v79q-52 -6 -83 -6h-26v189q60 -33 101 -78q3 51 18 85q-109 69 -198 145q-23 -47 -50 -83q61 -34 62 -58v-200h-42q-60 2 -83 8v-81q23 3 81 6h44v-119q-38 0 -64 5v-31q-26 39 -38 51
q-23 -33 -59 -57q116 -107 176 -330q102 18 100 32q-1 4 -6 9q-23 20 -50 82h54q56 -3 81 -6v64q114 -100 157 -194zM718 110h-180l-19 19q-22 24 -45 46h191q24 -33 53 -65zM490 225v63h129v-63h-129zM685 225v63h138v-63h-138zM490 334v59h129v-59h-129zM685 393h138v-59
h-138v59zM381 483q45 4 121 5h341q82 0 105 -3v65q-23 -6 -101 -6h-351q-82 0 -115 6v-67zM431 586q22 3 144 6h131q135 -3 155 -6q-4 29 -4 91v123q0 37 6 111h-81q4 -18 4 -55h-278q-1 44 4 55h-81q7 -15 6 -97v-133q-3 -69 -6 -95zM508 643v54h278v-54h-278zM508 746v58
h278v-58h-278z" />
</svg>
