<?xml version="1.0" standalone="no"?>
<!DOCTYPE svg PUBLIC "-//W3C//DTD SVG 1.1//EN" "http://www.w3.org/Graphics/SVG/1.1/DTD/svg11.dtd" >
<svg xmlns="http://www.w3.org/2000/svg" xmlns:xlink="http://www.w3.org/1999/xlink" version="1.1" viewBox="-10 0 1010 1000">
   <path fill="currentColor"
d="M192 -2q6 2 19 5q48 9 73 25q-18 14 -35 47q-18 35 -35 66q91 3 125 -6v76q-76 -8 -154 -8l-58 85q1 0 5 1q30 7 58 7h64q20 0 64 -7q6 -1 9 -1v79q-32 -7 -85 -7v107q84 0 119 -8v83q-32 -8 -119 -8v173q32 -25 77 -72l18 -18q1 15 18 40q12 16 14 24q-149 136 -179 182
q-9 -26 -45 -77q31 -22 30 -67v-185q-49 0 -119 8v-83q57 8 119 8v-107q-36 0 -66 7v-49l-42 55q-2 -3 -4 -9q-9 -26 -43 -56q108 -118 172 -310zM917 44v79q-40 -8 -143 -8h-38v58h32q70 0 145 -8q-10 41 -10 101q0 77 8 113q-72 -8 -173 -8h-214q-108 0 -171 8
q8 -41 8 -109q0 -63 -8 -105l135 8h36v-58h-30q-66 0 -143 8v-79q85 8 145 8h280q80 0 141 -8zM673 115h-86v58h86v-58zM524 233h-91v79h91v-79zM673 233h-86v79h86v-79zM831 233h-95v79h95v-79zM802 471h-342v47h342v-47zM802 568h-342v47h342v-47zM482 721h109v-50h-55
q-66 0 -153 8q6 -54 6 -123v-28q0 -77 -8 -121q69 8 163 8h164q121 0 173 -8q-8 36 -8 121v30q0 67 8 121q-41 -8 -139 -8h-75v50h117q77 0 102 -1q32 -1 49 -5v71q-20 -4 -54 -5q-16 -1 -38 -1h-59h-117v22q0 78 8 107h-92q8 -29 8 -105v-24h-113q-87 0 -135 6v-71
q0 6 139 6z" />
</svg>
