<?xml version="1.0" standalone="no"?>
<!DOCTYPE svg PUBLIC "-//W3C//DTD SVG 1.1//EN" "http://www.w3.org/Graphics/SVG/1.1/DTD/svg11.dtd" >
<svg xmlns="http://www.w3.org/2000/svg" xmlns:xlink="http://www.w3.org/1999/xlink" version="1.1" viewBox="-10 0 1034 1024">
  <g transform="matrix(1 0 0 -1 0 820)">
   <path fill="currentColor"
d="M658 21h-193q-43 0 -65 5v-46q10 3 65 5h193l-3 -128q-1 -1 -1 -4q0 -4 -3 -11h50q-1 3 -1 5q-3 4 -5 57v81l258 -1l26 -4v46q-9 -3 -22 -3q-19 0 -41 -2h-221v70l155 -1q15 0 40 -4l-4 61q0 156 2 168q-1 3 0 5q0 18 2 33q-30 -1 -61 -5l-324 1q-19 3 -46 4q1 -31 5 -65
q0 -138 -2 -167q-3 -6 -3 -35q49 4 99 5h100v-70zM501 129v71h346v-71h-346zM501 236v76h346v-76h-346zM959 716l-64 -5l-466 1q-18 1 -30 4v-46q34 4 54 5h126v-83l-122 1q-3 1 -43 4q4 -109 5 -114q-3 -34 -5 -71q30 3 62 5l408 -1l45 -4q-4 49 -5 78l5 107q-28 -1 -57 -5
h-109v83l159 -1l37 -4v46zM456 453v103h123v-103h-123zM616 453v103h110v-103h-110zM726 592h-110v83h110v-83zM763 453v103h122v-103h-122zM322 553q39 0 52 -3q6 0 12 -3v47q-3 0 -8 -2q-15 0 -32 -2l-140 -1q12 27 26 52q10 22 22 43q18 40 51 60q-34 10 -65 26
q-24 -90 -81 -183q-42 -70 -70 -104q-25 -28 -52 -42q31 -15 52 -32l35 50q24 34 61 94h137zM222 392v-152h-85q-40 0 -66 5v-47q16 4 38 5l113 1v-260q0 -12 -3 -24q-4 -13 -22 -27l36 -44q18 36 58 75l59 62q15 15 31 28q-12 27 -16 48q-15 -21 -44 -52q-30 -33 -62 -63
v257q138 -3 145 -6v47l-12 -3q-12 0 -51 -2h-82v152h49q33 0 52 -3q1 0 12 -2v46q-19 -3 -23 -4h-203q-18 1 -28 4v-46q42 6 70 5h34z" />
  </g>

</svg>
