<?xml version="1.0" standalone="no"?>
<!DOCTYPE svg PUBLIC "-//W3C//DTD SVG 1.1//EN" "http://www.w3.org/Graphics/SVG/1.1/DTD/svg11.dtd" >
<svg xmlns="http://www.w3.org/2000/svg" xmlns:xlink="http://www.w3.org/1999/xlink" version="1.1" viewBox="-10 0 1010 1000">
   <path fill="currentColor"
d="M508 -8q19 43 40 116l-80 21q-10 -48 -35 -115zM165 -4q88 26 101 38q-1 3 -7 8q-32 28 -74 117h33q59 0 84 -6v78q-37 -4 -82 -4h-67q-6 10 -19 32q-16 28 -25 43q25 6 89 6q91 0 119 -6v73q-14 -2 -35 -3q-18 -1 -62 -1v114q44 0 93 -8h2v81q-18 -6 -95 -6v177l78 -90
l31 68q-127 135 -146 172q-33 -35 -66 -65q33 -19 32 -70v-190q-77 0 -99 6v-81q36 8 99 8v-116q-12 0 -35 2q-17 2 -23 2v-39l-35 55q-22 -40 -50 -67q122 -154 159 -328zM720 -2q91 15 105 30q0 2 -3 4q-15 8 -30 64q-5 18 -19 70q-6 19 -9 31h107q62 -1 89 -6v81l-65 -6
q0 249 -74 403q48 75 149 149q-46 25 -79 67q-59 -62 -111 -147q-76 94 -159 167q-30 -44 -77 -59q112 -47 192 -173q-46 -114 -79 -274q84 -13 89 -6q1 3 -2 9q-9 21 -4 45q16 79 38 147q45 -111 43 -328h-77q-33 95 -46 115q-37 -15 -73 -19v11q0 21 4 64q-10 -2 -32 -3
q-11 -1 -27 -1h-44h-74q-85 0 -103 6q4 -15 4 -66v-57q0 -45 -4 -64q24 3 95 4h80q22 0 105 -6q-3 18 -4 60v30q79 -108 95 -342zM659 131v78q-30 -6 -101 -6h-114q-83 1 -107 6v-76q30 3 109 4h108q74 -3 105 -6zM421 312v65h133v-65h-133zM633 475v69q-38 11 -101 56v31
q11 -2 41 -8q51 -9 66 -13v73q-50 1 -103 12v111q3 48 -21 58q-15 13 -128 29q2 -46 -28 -91q65 9 84 2q20 -6 19 -36v-61q-77 13 -105 28q0 -46 -22 -86q51 3 127 -8v-59q27 -19 54 -40h-89q-8 1 -31 2q-41 2 -55 4v-71q22 4 86 4h111q57 0 95 -6z" />
</svg>
