<?xml version="1.0" standalone="no"?>
<!DOCTYPE svg PUBLIC "-//W3C//DTD SVG 1.1//EN" "http://www.w3.org/Graphics/SVG/1.1/DTD/svg11.dtd" >
<svg xmlns="http://www.w3.org/2000/svg" xmlns:xlink="http://www.w3.org/1999/xlink" version="1.1" viewBox="-10 0 1034 1024">
  <g transform="matrix(1 0 0 -1 0 820)">
   <path fill="currentColor"
d="M151 510q9 15 20 29h119q22 0 46 -3q1 0 16 -2v47q-21 -1 -44 -5l-117 -1l48 101q21 40 43 55q-9 3 -61 29q-24 -90 -74 -179q-60 -102 -110 -142q10 -3 49 -23q10 12 22 29q13 18 34 50zM435 654h446q24 0 46 -3l17 -2v47q-22 -1 -45 -5h-469q-1 0 -38 5q1 -27 5 -57
l-1 -362q-1 -9 -1 -20q-3 -78 -11 -133q-16 -105 -51 -180q-22 -45 -56 -74q39 -12 56 -19q21 43 45 100q34 96 47 196q7 93 10 192v315zM463 -139q3 -3 10 -7q57 64 88 123q27 57 40 137h55q0 -15 -5 -35h48q-6 22 -6 58l1 144q0 13 13 42h-57q6 -21 6 -60v-113h-54l3 268
q76 0 86 -3q4 0 7 -2v46q-31 -1 -63 -5h-4q22 42 40 80q18 40 27 51q6 9 25 18q-12 4 -56 30q-13 -43 -35 -94q-22 -54 -42 -85l-118 3l-8 2v-46q33 3 63 5h39v-101l-3 -167h-50v113q0 9 2 25q0 15 12 35h-56q0 -6 3 -13l2 -149q0 -1 -5 -52q39 4 79 5h11q-12 -75 -37 -126
q-36 -69 -99 -105q24 -15 38 -22zM567 501q7 3 12 7q-34 48 -71 103l-1 1q-9 -6 -22 -13q-7 -3 -13 -7q33 -42 71 -108q6 3 10 6q6 6 14 11zM934 -148q19 21 46 36q-25 16 -54 45q-18 19 -37 48q-67 102 -68 210v60q0 24 4 37q3 13 17 25q-30 3 -65 12q6 -24 6 -56
q0 -84 -15 -138q-30 -120 -116 -201q-36 -33 -81 -55q19 -7 50 -28q9 6 18 16q52 45 87 93q34 48 71 128q43 -117 112 -200zM911 419q-18 -46 -29 -72q-9 -19 -21 -41q24 0 43 -6q45 114 50 124q7 16 15 35q-54 -6 -73 -6h-115q10 27 18 51q3 16 10 33q10 33 16 43
q4 15 22 27q-9 3 -20 6q-18 6 -37 15q-21 -118 -69 -213q-21 -40 -38 -59q24 -3 49 -11q18 36 33 74h146zM337 424q-63 -6 -92 -6l-133 3q-3 1 -8 3v-47q42 6 70 5h20v-127q-111 0 -123 3q-6 1 -10 3v-47q6 3 56 6h77v-206q0 -31 -9 -46q-4 -7 -18 -17q24 -30 35 -51
q73 84 81 89q0 1 3 1l5 5q28 33 53 52q-7 37 -8 56q-42 -52 -103 -110v227q87 0 101 -2q12 0 26 -4v47q-4 0 -7 -1q-3 0 -6 -2q-36 0 -72 -3h-42v127h41q24 0 46 -3q3 0 17 -2v47z" />
  </g>

</svg>
