<?xml version="1.0" standalone="no"?>
<!DOCTYPE svg PUBLIC "-//W3C//DTD SVG 1.1//EN" "http://www.w3.org/Graphics/SVG/1.1/DTD/svg11.dtd" >
<svg xmlns="http://www.w3.org/2000/svg" xmlns:xlink="http://www.w3.org/1999/xlink" version="1.1" viewBox="-10 0 1010 1000">
   <path fill="currentColor"
d="M520 -10q88 3 87 10q1 2 -2 10q-10 34 -10 80v115h80v-109q-3 -93 -6 -108q86 2 97 10q1 3 -4 10q-20 35 -20 98v99h79q19 -1 51 -3l65 -5v75q-33 -6 -118 -6h-341q-53 0 -72 1q-23 1 -35 3v-75q49 9 101 10h54v-121q0 -71 -6 -94zM179 4q89 27 93 42q0 1 -2 2
q-27 17 -62 105h56q70 -2 95 -6v78q-22 -8 -97 -8h-85q-12 19 -34 55q-19 31 -28 46q25 8 101 8q86 -1 133 -6v75q-35 -6 -107 -6v115h44q12 -1 31 -1q36 0 50 -5v74q-21 -6 -79 -6h-46v196q55 -41 101 -97q6 41 26 81q-123 94 -194 163q-8 -12 -25 -35q-17 -24 -25 -36
q45 -38 44 -70v-202h-38q-59 0 -85 6v-74q18 3 49 5q29 2 42 1h32v-115q-51 0 -78 6v-45l-37 53q-13 -29 -37 -73l-3 -6q120 -132 165 -320zM837 30q14 7 46 20q37 16 36 18t-5 5q-29 25 -85 118q-19 -10 -69 -16q54 -64 77 -145zM440 40q9 18 43 81q12 23 17 32l-67 24
q-15 -50 -62 -121zM724 270q65 15 88 30q-1 2 -5 6q-26 22 -57 77h60q74 -3 101 -8v78q-41 -8 -99 -8h-137v65h109q66 -1 95 -6v76q-56 -8 -97 -8h-107q-3 36 -4 67h144q82 0 112 -8v76q-42 -8 -114 -8h-105q59 109 252 129q-38 41 -51 81q-191 -46 -258 -192
q-43 134 -272 204q-8 -38 -62 -83q193 -12 264 -139h-97q-79 2 -103 8v-76q43 7 101 8h113q0 -4 1 -13q3 -37 3 -54h-81q-78 0 -99 6v-74q41 5 105 6h75v-65h-101q-77 0 -107 6v-76q41 7 115 8h28q-31 -59 -56 -83l70 -26q15 24 44 73q7 13 11 20l-41 16h119q28 -58 43 -113
z" />
</svg>
