<?xml version="1.0" standalone="no"?>
<!DOCTYPE svg PUBLIC "-//W3C//DTD SVG 1.1//EN" "http://www.w3.org/Graphics/SVG/1.1/DTD/svg11.dtd" >
<svg xmlns="http://www.w3.org/2000/svg" xmlns:xlink="http://www.w3.org/1999/xlink" version="1.1" viewBox="-10 0 1010 1000">
   <path fill="currentColor"
d="M147 2q91 15 97 28q-1 3 -6 9q-27 29 -59 102h47q66 -3 78 -6v76l-78 -4h-85q-3 5 -11 16q-39 63 -70 105q-14 -34 -40 -70q98 -113 127 -256zM617 137q54 12 89 30q3 2 -5 6q-21 13 -28 30q-12 28 -42 97q55 1 69 -4v66q-38 -4 -101 -4v236h44v-104q0 -67 -6 -85
q68 5 73 14q0 3 -4 11q-10 19 -10 43v87l4 93l-73 -6h-32q-32 155 -151 232q-28 -39 -69 -49q138 -58 163 -183h-30q-5 1 -24 1q-32 1 -44 3q4 -33 4 -93v-81q-3 -69 -6 -84q63 -2 74 8q0 2 -3 7q-11 22 -11 51v135h46q0 -96 -2 -202v-34h-34q-70 0 -83 4v-68q18 3 81 6h67
q37 -71 44 -163zM522 155q6 14 18 45q13 34 20 52l-66 18q-1 -2 -2 -7q-13 -58 -38 -92zM758 447q77 -1 95 10q0 1 -5 8q-13 17 -13 27q-2 212 127 320q-19 27 -39 83q-98 -86 -125 -264q-20 161 -153 264q-27 -31 -78 -53q201 -70 191 -395zM315 695q20 -48 25 -206
q4 -151 -5 -443q36 8 161 8h327q89 -1 114 -8v79q-24 -6 -106 -6h-424q3 243 1 341q-3 113 -13 183q-16 134 -97 252q-17 -41 -54 -71q47 -56 69 -125zM764 141q84 18 93 30q-1 3 -5 9q-22 28 -46 102h53q53 0 81 -4q-23 89 -41 149q-44 -16 -74 -12q15 -33 32 -79h-69
q-24 52 -42 85q-31 -21 -58 -26q54 -67 76 -254zM89 296q3 0 9 1q33 7 81 7q89 -1 119 -8v77q-38 -4 -90 -4v110q52 0 90 -6v73q-8 -2 -28 -3q-16 -1 -64 -1v161l82 -76q11 47 24 66q-58 42 -155 151q-24 -42 -46 -66q31 -29 30 -59v-177q-57 1 -95 8v-75q23 4 97 4v-110
q-42 0 -54 6v-79z" />
</svg>
