<?xml version="1.0" standalone="no"?>
<!DOCTYPE svg PUBLIC "-//W3C//DTD SVG 1.1//EN" "http://www.w3.org/Graphics/SVG/1.1/DTD/svg11.dtd" >
<svg xmlns="http://www.w3.org/2000/svg" xmlns:xlink="http://www.w3.org/1999/xlink" version="1.1" viewBox="-10 0 1034 1024">
  <g transform="matrix(1 0 0 -1 0 820)">
   <path fill="currentColor"
d="M906 382l-10 -359q-1 -90 -30 -114q-28 -18 -67 -19q-15 0 -41 4q9 -28 17 -54q111 15 141 65q9 18 13 45q3 34 6 98l3 190q4 111 12 185q-30 -1 -62 -5h-333q27 39 55 77l252 -1q21 -1 44 -5q-6 60 -6 75l1 110q1 25 5 51q-28 -1 -57 -5l-358 1q-19 3 -44 4q6 -60 6 -93
l-1 -96q-4 -19 -5 -47q63 6 95 6h21q-60 -84 -104 -127q-46 -39 -81 -51q24 -15 46 -35q45 40 103 100h379zM489 530v152h100v-152h-100zM626 530v152h96v-152h-96zM759 530v152h104v-152h-104zM637 110l118 -1l42 -4q-4 49 -5 75q0 61 4 90q0 6 1 12l-91 -5h-69q0 18 1 21
q6 46 9 50q0 4 3 7h-57q6 -63 6 -78l-116 1q-19 3 -40 4q1 -30 5 -60q0 -54 -2 -80q-3 -3 -3 -37q34 3 71 5h85v-101q-42 -3 -63 -4q-45 -4 -68 -6h-72q10 -33 16 -54q33 7 67 13l202 24l102 10q13 -18 32 -51l38 30l-96 120q-15 -15 -36 -27q16 -13 37 -37q-61 -9 -121 -15
v98zM485 146v95h114v-95h-114zM637 146v95h117v-95h-117zM173 543q9 18 19 35q174 0 196 -3q3 0 12 -3v47q-4 0 -8 -1q-3 0 -4 -2q-7 0 -15 -2q-18 0 -35 -1h-129q4 12 11 23q10 22 22 44q19 42 49 65q-31 7 -67 21q-4 -30 -26 -82q-51 -117 -96 -181q-31 -45 -55 -63
q18 -4 26 -9l27 -12q34 54 49 82zM224 272q-117 0 -137 3q-3 0 -9 2v-47q6 1 37 5l109 1v-241q0 -18 -3 -32q-3 -15 -12 -27q16 -24 35 -48q48 67 157 182q-10 30 -14 57q-10 -16 -22 -30q-12 -15 -37 -43q-33 -39 -67 -70v252h70q45 0 63 -6v47q-6 0 -9 -2q-1 0 -3 -1
l-121 -2v145h49q43 0 64 -6v47q-6 0 -13 -3l-165 -2l-57 4q-3 0 -7 1v-47q7 3 28 4t64 2v-145z" />
  </g>

</svg>
