<?xml version="1.0" standalone="no"?>
<!DOCTYPE svg PUBLIC "-//W3C//DTD SVG 1.1//EN" "http://www.w3.org/Graphics/SVG/1.1/DTD/svg11.dtd" >
<svg xmlns="http://www.w3.org/2000/svg" xmlns:xlink="http://www.w3.org/1999/xlink" version="1.1" viewBox="-10 0 1010 1000">
   <path fill="currentColor"
d="M675 -13q14 59 27 97h117q15 -1 40 -1q45 0 58 -5v75q-38 -5 -100 -6h-65q53 20 61 32q0 4 -7 11q-21 21 -44 58h93q61 -2 101 -8v74q-12 -2 -35 -3q-12 -1 -29 -1h-47h-377q-44 -2 -111 4v-74l111 8h58l-46 -69l80 -22l45 91h82q31 -69 35 -101h-216q-78 0 -105 6v-77
q36 5 107 8h109q-15 -40 -34 -82zM187 -12q102 30 97 40q-1 2 -5 7q-22 30 -51 90h56h16q25 1 77 -4v80q-24 -6 -101 -6h-80q-28 47 -67 107q30 4 93 4q95 0 125 -6v75q-54 -8 -105 -6v135h32q39 0 89 -6v84q-21 -6 -89 -6h-34v164q68 -55 93 -85q8 54 24 83
q-75 56 -179 151q-7 7 -11 10q-14 -29 -45 -83q-3 -5 -5 -8q42 -18 48 -60v-170h-26q-69 0 -91 6v-84q21 3 95 6h24v-135q-42 0 -64 6v-31l-30 43q-28 -37 -67 -55q133 -137 181 -346zM409 352q63 7 149 8h172q109 0 145 -6q-4 35 -4 113v73q0 76 4 107q-42 -6 -147 -6h-163
q-82 0 -108 1q-33 1 -48 3q5 -41 6 -115v-69q-3 -93 -6 -109zM792 419h-300v54h300v-54zM792 524h-300v56h300v-56zM675 655q3 6 16 31q30 57 39 76l-77 28q-10 -49 -46 -115zM845 655q70 74 119 147l-77 52q-55 -109 -109 -161zM393 661q81 21 81 26q0 2 -4 13
q-26 61 -65 185q-49 -26 -90 -35q58 -81 78 -189zM490 675q89 0 91 10q1 3 -2 10q-10 24 -10 53v52q-8 44 78 40h38q40 1 52 -17q13 -16 19 -77q28 24 75 44q4 1 6 2q-16 73 -41 96q-24 24 -86 23h-87q-77 1 -101 -17q-27 -16 -26 -68v-64q-3 -67 -6 -87z" />
</svg>
