<?xml version="1.0" standalone="no"?>
<!DOCTYPE svg PUBLIC "-//W3C//DTD SVG 1.1//EN" "http://www.w3.org/Graphics/SVG/1.1/DTD/svg11.dtd" >
<svg xmlns="http://www.w3.org/2000/svg" xmlns:xlink="http://www.w3.org/1999/xlink" version="1.1" viewBox="-10 0 1034 1024">
  <g transform="matrix(1 0 0 -1 0 820)">
   <path fill="currentColor"
d="M596 261v-102h-44q-45 0 -66 6v-44q9 6 40 7h55q-36 -78 -103 -156q-36 -37 -84 -59q27 -16 51 -33q90 96 151 201l-1 -226q-3 -24 -4 -33h46q-3 30 -5 60v246h106l-1 -270q-3 -27 -4 -31q0 -1 -1 -4h47q-3 15 -6 53v221q48 -102 160 -209q10 12 19 16q21 16 28 21
q-49 21 -107 87q-46 54 -79 116q76 0 90 -2q7 0 33 -5q-4 52 -5 105v35q45 0 56 -5v42q-9 0 -13 -3q-24 0 -43 -2q0 63 2 77q0 18 3 35q-27 -1 -55 -5h-89v70h120q45 0 62 -6v44q-9 0 -12 -3l-99 -2h-74q40 61 83 86q-27 12 -54 32q-16 -34 -34 -63q-24 -39 -36 -55h-283
v129h448q39 0 63 -5v44q-1 0 -3 -1q-3 0 -6 -1q-6 0 -10 -2q-16 0 -44 -2h-175q4 9 16 17q3 3 7 6q-13 12 -72 53q-25 19 -37 25q-15 -19 -29 -34q36 -21 59 -35l42 -31l-261 1q-1 0 -42 4l3 -37q3 -24 3 -35v-351q0 -39 -5 -91q-6 -72 -18 -115q-13 -49 -42 -105
q-27 -48 -70 -80q15 -1 58 -23q63 102 88 191q24 85 27 236h150zM446 293v177h150v-70h-48q-42 0 -66 5v-42q54 4 82 5h32v-75h-150zM632 159v102h106v-102h-106zM632 293v75h106v-75h-106zM632 400v70h106v-70h-106zM773 159v102h101v-102h-101zM773 293v75h101v-75h-101z
M543 586q39 -31 77 -70l8 -8q10 12 26 26q-10 12 -20 22l-64 58q-12 -15 -27 -28zM300 558q43 0 62 -6v47q-3 0 -12 -3l-100 -2h-58q3 9 9 17l27 59q16 37 22 42q7 15 22 24q-52 16 -59 20q-18 -60 -37 -105q-22 -51 -56 -108q-33 -54 -49 -73q-15 -19 -41 -38q24 -6 55 -20
q21 31 41 62q21 33 52 84h122zM207 252l-112 1q-18 3 -25 4v-47q6 1 37 5l100 1v-241q0 -16 -6 -31q-4 -9 -12 -19l37 -47q67 114 130 193q-13 31 -19 51q-48 -76 -94 -132v226h58q43 0 62 -6v47q-9 0 -12 -3l-100 -2h-8v144h49q43 0 62 -6v47q-4 0 -8 -1q-3 0 -4 -2l-98 -2
l-113 1q-12 0 -24 4v-47q1 1 37 5l63 1v-144z" />
  </g>

</svg>
