<?xml version="1.0" standalone="no"?>
<!DOCTYPE svg PUBLIC "-//W3C//DTD SVG 1.1//EN" "http://www.w3.org/Graphics/SVG/1.1/DTD/svg11.dtd" >
<svg xmlns="http://www.w3.org/2000/svg" xmlns:xlink="http://www.w3.org/1999/xlink" version="1.1" viewBox="-10 0 1034 1024">
  <g transform="matrix(1 0 0 -1 0 820)">
   <path fill="currentColor"
d="M291 569q15 0 62 -5v47q-21 -1 -44 -5l-106 -1q6 16 14 33q25 64 36 81q9 16 29 31q-13 3 -25 6l-38 15q-31 -111 -81 -209q-27 -51 -50 -85q-21 -28 -40 -46q22 -4 51 -13q15 22 38 61q24 42 49 90h105zM389 484l-4 -48l-1 -7h48q-6 24 -6 36v108h225v-194q0 -39 -6 -57
h49q-4 24 -5 57v194h227q0 -97 -2 -121q-1 -1 -1 -5l-2 -12h48q-4 30 -5 56q0 78 2 90q0 16 3 33q-49 -4 -61 -5h-209v77q198 0 209 -3q4 0 7 -2v47q-21 -1 -44 -5h-416q-6 0 -19 5v-47q34 4 60 5h165v-77l-227 1q-1 0 -40 4q4 -42 5 -78v-52zM440 271l4 -41l-1 -360
q-1 -15 -4 -26h47q-3 21 -5 44v29h389v-14q0 -36 -5 -55h48q-4 24 -5 55l1 345l4 43l-57 -6l-373 1q-24 4 -36 5h-8q0 -9 1 -20zM481 131v119h170v-119h-170zM481 -47v142h170v-142h-170zM689 -47v142h181v-142h-181zM689 131v119h181v-119h-181zM473 458q18 3 45 4h42
q21 0 39 -4v42q-18 -3 -46 -4q-36 1 -73 3q-3 0 -7 1v-42zM731 463q25 3 45 4h58q21 0 38 -4v42q-19 -3 -48 -4l-90 3q-1 1 -3 1v-42zM732 353q33 3 65 4q66 0 76 -3q1 0 3 -1v42q-13 -3 -60 -3q-42 1 -84 3v-42zM474 351q24 3 45 4h43q18 0 38 -4v43q-19 -1 -40 -5
q-39 1 -79 3l-7 2v-43zM347 433q-63 -6 -93 -6l-128 3q-9 3 -13 3v-47q42 6 69 5h31v-143q-90 0 -114 2q-1 0 -19 4v-47q34 4 60 5h73v-211q0 -42 -29 -62q18 -16 41 -46q7 9 17 17q93 99 111 115q13 13 29 26q-7 27 -13 55q-25 -34 -48 -57q-3 -3 -13 -14q-15 -18 -56 -59
v236q63 0 132 -3q1 0 8 -2v47q-12 -3 -58 -6h-82v143q60 0 89 -4q1 0 6 -1v47z" />
  </g>

</svg>
