<?xml version="1.0" standalone="no"?>
<!DOCTYPE svg PUBLIC "-//W3C//DTD SVG 1.1//EN" "http://www.w3.org/Graphics/SVG/1.1/DTD/svg11.dtd" >
<svg xmlns="http://www.w3.org/2000/svg" xmlns:xlink="http://www.w3.org/1999/xlink" version="1.1" viewBox="-10 0 1034 1024">
  <g transform="matrix(1 0 0 -1 0 820)">
   <path fill="currentColor"
d="M109 471q15 25 42 65h128q27 0 46 -4q3 0 17 -2v49q-7 0 -23 -6l-75 -2h-70l44 83q18 39 29 52q7 10 28 18q-24 12 -57 34q-24 -75 -74 -165q-55 -96 -106 -126q28 -7 53 -25q9 15 18 29zM603 459q-24 -54 -40 -81q-24 19 -51 40q-1 0 -6 5q-12 -15 -28 -30q15 -3 33 -17
q18 -12 33 -28q-18 -24 -33 -41l-60 52q-10 -12 -16 -16t-16 -11q39 -21 67 -49q-54 -54 -110 -70q24 -18 39 -31q72 51 127 110q58 64 117 208q-90 -4 -92 -5h-53l12 18q7 12 12 18q3 9 21 14q-27 12 -49 27q-21 -66 -74 -126q-46 -48 -78 -62q7 -6 13 -8l25 -20
q10 9 21 21q36 36 72 82h114zM384 -93q27 -15 35 -24q22 21 38 38q13 16 29 31q42 45 52 52q9 9 32 17q-10 6 -25 19q-7 6 -18 16q-43 -58 -74 -90q-25 -24 -41 -35q-18 -12 -33 -20q1 -1 5 -4zM389 632q3 -18 3 -47l-4 -57q-1 -1 -1 -5h48q-4 15 -5 32l-1 57h451
q0 -54 -2 -74q0 -6 -3 -16h48q-4 45 -5 70q1 30 5 61q-25 -1 -52 -5h-205q9 15 15 19q3 1 10 9q-12 15 -47 50q-16 15 -42 42q-9 -9 -33 -23q67 -60 90 -97l-236 1q-15 3 -36 4q0 -10 2 -21zM894 154q-21 -1 -44 -5q-411 0 -419 3l-6 2v-48q15 4 35 5l173 1v-188
q0 -27 -25 -33q-12 -3 -34 -4q-21 0 -43 4q12 -27 16 -49q54 6 81 11q42 9 43 74v185l192 -1q12 0 31 -5v48zM777 271q-21 -1 -43 -5q-180 0 -190 3l-6 2v-47q42 6 67 5q135 0 150 -2q3 0 6 -1q1 0 16 -2v47zM666 546l21 -76q9 -24 20 -50q36 -85 98 -141q28 -24 58 -46
l61 -42q27 25 47 37q-60 21 -97 44q-52 37 -80 69q46 82 88 165q-27 -1 -56 -5h-113q-9 36 -10 60q0 10 4 25q-30 -4 -50 -6zM823 465q-19 -45 -52 -95q-34 60 -45 95h97zM789 19q-12 12 -23 21q-9 -10 -31 -25q49 -45 76 -71q42 -45 59 -70q21 18 35 26q-66 72 -83 89
q-18 15 -33 30zM324 395q-60 -6 -83 -6q-87 0 -122 2q-4 1 -8 1q-3 0 -12 3v-48q15 4 35 5l53 1v-135q-108 3 -113 5q-1 1 -3 1v-47q24 4 61 5h55v-190q0 -51 -26 -73q27 -21 44 -43q0 3 10 16q4 6 35 42q33 43 96 116q-7 25 -13 53q-39 -64 -107 -137v216q93 0 102 -3
q4 0 11 -2v47q-63 -6 -93 -6h-20v135q63 0 76 -2q7 0 22 -4v48z" />
  </g>

</svg>
