<?xml version="1.0" standalone="no"?>
<!DOCTYPE svg PUBLIC "-//W3C//DTD SVG 1.1//EN" "http://www.w3.org/Graphics/SVG/1.1/DTD/svg11.dtd" >
<svg xmlns="http://www.w3.org/2000/svg" xmlns:xlink="http://www.w3.org/1999/xlink" version="1.1" viewBox="-10 0 1034 1024">
  <g transform="matrix(1 0 0 -1 0 820)">
   <path fill="currentColor"
d="M300 532q18 0 47 -2q12 0 17 -3v45q-31 -1 -64 -5h-112q37 60 53 90q21 37 52 52q-33 12 -62 30q-15 -45 -41 -95q-25 -45 -47 -79q-21 -33 -45 -61q-24 -30 -37 -45q-10 -10 -25 -21q30 -10 52 -22l79 116h133zM332 322q6 -3 30 -27q42 31 87 70q6 7 14 14q64 63 91 108
q45 81 79 198q-15 -1 -28 -3q-19 -3 -65 -3l-96 3l-9 3v-46q49 4 73 5h72q-24 -72 -57 -133q-66 66 -75 73q-6 -6 -10 -12q-15 -16 -22 -21q37 -18 85 -76q-36 -48 -87 -91q-54 -42 -93 -53q4 -4 11 -9zM461 -113q-39 3 -53 3q-6 1 -9 2v-45q30 3 62 5l467 -1q16 0 32 -4v45
q-33 -1 -65 -5h-163q9 19 38 92q16 33 21 37q10 15 30 22q-15 6 -26 13q-9 4 -18 10q-12 7 -23 13q-15 -91 -65 -187h-228zM841 248l6 56q-30 -1 -60 -5l-288 1q-15 3 -41 4q1 -27 5 -54l-1 -111q-3 -12 -4 -43q27 3 56 5l290 -1l43 -4q-6 48 -6 77v75zM500 136v128h302
v-128h-302zM519 53q-1 0 -4 -1t-8 -4q37 -51 70 -145q21 13 39 20l-72 143q-4 -3 -8 -5q-1 0 -5 -2zM783 415q-66 -6 -75 -6l-172 1q-7 1 -13 2q-1 0 -13 3v-45q39 4 61 5l178 -1q9 0 34 -4v45zM953 324q7 9 27 23q-99 33 -190 161q7 6 56 39q40 25 68 26q-24 28 -37 50
q-19 -24 -37 -37q-24 -18 -70 -48q-21 36 -35 71q48 36 66 44q18 10 41 14q-15 16 -35 46q-27 -30 -86 -72q-6 15 -9 28q-6 27 -7 41q0 9 2 23q-27 -6 -48 -6q46 -193 152 -308q51 -57 125 -112q7 9 17 17zM336 407q-66 -6 -79 -6q-96 0 -130 2q-4 1 -8 1q-3 0 -12 3v-46
q42 6 69 5h20v-144q-133 3 -139 5q-1 1 -3 1v-46q18 4 60 5h82v-241q0 -40 -24 -59q6 -6 27 -35q6 -9 13 -18q31 39 74 88l76 83q-6 24 -12 52q-73 -97 -115 -135v265q112 0 123 -3q4 0 12 -2v46q-13 -3 -18 -3q-24 -1 -47 -3h-70v144q79 0 90 -3q4 0 11 -2v46z" />
  </g>

</svg>
