<?xml version="1.0" standalone="no"?>
<!DOCTYPE svg PUBLIC "-//W3C//DTD SVG 1.1//EN" "http://www.w3.org/Graphics/SVG/1.1/DTD/svg11.dtd" >
<svg xmlns="http://www.w3.org/2000/svg" xmlns:xlink="http://www.w3.org/1999/xlink" version="1.1" viewBox="-10 0 1010 1000">
   <path fill="currentColor"
d="M659 -10q2 7 7 19q19 52 26 79h139q86 0 115 -6v77q-26 -6 -111 -6h-83v84h71q64 0 94 -6q-4 50 -4 85v36q0 62 4 83q-17 -3 -58 -4q-20 -1 -30 -2h-77v79q75 -31 113 -55q42 52 38 67h-5q-29 -3 -146 42v48q-6 27 50 25q40 1 52 -14q13 -11 17 -59q27 33 71 50
q-16 58 -40 71q-23 17 -94 16q-81 1 -99 -14q-21 -10 -19 -66v-190h-134v61h31q37 0 70 -7v65q-13 -4 -51 -5q-18 0 -23 -1h-27v79q64 -14 107 -41q0 39 6 69q-80 20 -179 62q-12 -41 -42 -70q52 -7 48 -63v-151h-63q-1 337 -108 476q-29 -25 -85 -40q84 -70 106 -202
q12 -64 16 -166q4 -78 3 -312q0 -69 -4 -101q18 6 81 6h171q-10 -28 -46 -80zM155 10q3 1 10 3q93 30 89 33q-1 4 -7 10q-28 26 -59 101h44q12 -1 35 -1q42 0 56 -5v76q-18 -4 -37 -5q-16 -1 -54 -1h-71q-12 20 -30 52q-15 27 -20 35q13 4 34 5q16 1 61 1q93 0 113 -6v73
q-22 -2 -53 -4q-18 -1 -26 -2h-28v123h28q39 0 89 -6v78q-27 -4 -91 -6h-26v165q52 -46 82 -76q3 49 12 82q-74 43 -161 138q-13 -26 -36 -66q-7 -13 -10 -19q44 -20 44 -65v-159h-28q-25 0 -70 5q-5 1 -7 1v-78q35 5 81 6h24v-121l-44 4v-57q-32 50 -55 73q-8 -46 -38 -85
q112 -102 149 -302zM435 153v84h91v-84h-91zM589 153v84h101v-84h-101zM589 290v87h101v-87h-101zM526 290h-91v85h91v-85zM845 290h-93v87h93v-87zM853 737q61 75 91 136l-83 28q-14 -58 -73 -149zM462 744q9 3 29 8q49 13 45 20q-1 5 -8 16q-23 42 -58 119
q-47 -18 -73 -20q53 -82 65 -143zM744 758q21 57 32 119l-78 8q-5 -71 -23 -123zM623 762q20 71 24 125l-76 4q6 -40 -13 -125z" />
</svg>
