<?xml version="1.0" standalone="no"?>
<!DOCTYPE svg PUBLIC "-//W3C//DTD SVG 1.1//EN" "http://www.w3.org/Graphics/SVG/1.1/DTD/svg11.dtd" >
<svg xmlns="http://www.w3.org/2000/svg" xmlns:xlink="http://www.w3.org/1999/xlink" version="1.1" viewBox="-10 0 1010 1000">
   <path fill="currentColor"
d="M254 0q109 5 119 18q0 2 -3 9q-27 48 -27 156v180h415q104 0 161 -7v93q-34 -8 -157 -8h-200q90 234 382 288v2q-64 26 -97 105q-284 -129 -365 -395h-139v301q88 -62 147 -127l28 94q-199 134 -238 188l-62 -97q44 -34 44 -65v-294h-30q-84 0 -112 1q-36 2 -66 7v-93
q31 4 69 6q18 1 42 1h65h32v-176q0 -111 -7 -175q-1 -9 -1 -12zM724 14q91 46 103 64q-1 3 -14 6q-25 6 -39 18q-137 114 -286 226q-25 -35 -81 -58q194 -95 317 -256z" />
</svg>
