<?xml version="1.0" standalone="no"?>
<!DOCTYPE svg PUBLIC "-//W3C//DTD SVG 1.1//EN" "http://www.w3.org/Graphics/SVG/1.1/DTD/svg11.dtd" >
<svg xmlns="http://www.w3.org/2000/svg" xmlns:xlink="http://www.w3.org/1999/xlink" version="1.1" viewBox="-10 0 1010 1000">
   <path fill="currentColor"
d="M238 -4q52 54 101 133l-83 44q-37 -77 -91 -135zM893 50q-7 36 -6 91v631q3 74 -23 92q-15 19 -130 35q-4 -53 -40 -103q121 22 114 -32v-637h-290q-67 0 -121 6v-81q43 7 121 6h282q33 0 93 -8zM442 159q85 1 94 8q-14 22 -12 79h111q74 0 105 -4v74q-60 -8 -101 -8
h-115v81h83q66 0 113 -8v78q-46 -8 -111 -8h-85v81h135q58 -3 91 -6q-6 37 -9 98q-2 72 -15 89q-24 30 -131 39q-5 -48 -18 -75q-4 -7 -6 -12q67 13 82 1q16 -7 12 -68h-141v135q0 81 6 121h-90q8 -30 8 -121v-135h-83q-88 0 -131 8v-82q50 8 125 8h89v-81h-57q-70 0 -121 6
v-76q61 7 119 8h59v-81h-81q-65 0 -113 6v-76q21 5 48 6q12 1 28 2h41h77q3 -49 -6 -87zM103 185q100 2 107 10q-19 44 -18 87v466q1 81 8 143h-97q10 -37 10 -153v-442q-1 -81 -10 -111z" />
</svg>
