<?xml version="1.0" standalone="no"?>
<!DOCTYPE svg PUBLIC "-//W3C//DTD SVG 1.1//EN" "http://www.w3.org/Graphics/SVG/1.1/DTD/svg11.dtd" >
<svg xmlns="http://www.w3.org/2000/svg" xmlns:xlink="http://www.w3.org/1999/xlink" version="1.1" viewBox="-10 0 1034 1024">
  <g transform="matrix(1 0 0 -1 0 820)">
   <path fill="currentColor"
d="M182 -150q-1 3 -1 5q-1 3 -4 57l1 572q0 15 4 28q1 10 8 19h-56q0 -7 3 -16q0 -24 2 -50l-1 -572q-3 -31 -4 -43h48zM219 724l-16 17q-12 -16 -31 -33q78 -69 125 -141q16 22 34 38q-76 84 -112 119zM716 407q30 -1 63 -5v46q-19 -3 -23 -4l-254 -1q9 39 25 78
q12 28 16 33q1 3 21 22q-16 6 -33 11q-13 3 -29 11q-4 -34 -41 -155l-184 1q-9 1 -15 2q-3 0 -12 2v-46q39 4 64 5h131q-61 -162 -174 -273q-24 -21 -47 -31q31 -12 54 -31q79 99 132 178q43 72 77 157h229zM372 -54q90 33 333 44q10 -15 21 -51q24 15 43 30l-56 90l-71 117
q-22 -16 -35 -22q37 -57 65 -102q6 -13 14 -27l-256 -18q24 30 67 99q39 63 80 136q24 45 56 71q-33 12 -59 30q-16 -51 -35 -90q-67 -129 -129 -214q-27 -33 -56 -42zM889 682q-7 0 -58 -5l-397 2q-6 0 -15 3v-46q19 3 41 5h386v-686q0 -30 -20 -43q-24 -9 -61 -9
q-21 0 -64 4q12 -24 20 -54q36 1 67 6q61 10 82 32q13 13 14 57l1 683q0 10 4 51v0z" />
  </g>

</svg>
