<?xml version="1.0" standalone="no"?>
<!DOCTYPE svg PUBLIC "-//W3C//DTD SVG 1.1//EN" "http://www.w3.org/Graphics/SVG/1.1/DTD/svg11.dtd" >
<svg xmlns="http://www.w3.org/2000/svg" xmlns:xlink="http://www.w3.org/1999/xlink" version="1.1" viewBox="-10 0 1034 1024">
  <g transform="matrix(1 0 0 -1 0 820)">
   <path fill="currentColor"
d="M137 536q6 -30 6 -67l-1 -572l-5 -38h50q-4 28 -5 75v536q0 36 15 66h-60zM168 716q54 -40 98 -105q13 -21 29 -43q12 12 36 33q-21 27 -51 61q-33 39 -78 89q-18 -21 -34 -35zM520 390l222 -1q22 0 43 -5v47q-18 -1 -20 -2q-24 -1 -36 -3l-455 1q-6 1 -12 1q-10 0 -22 3
v-47q27 6 69 6h172v-100l-166 3q-9 1 -19 2q6 -72 6 -106q0 -135 -2 -167q-3 -13 -4 -28h50q-4 30 -5 75v185h140v-284q0 -42 -5 -77h49q-4 28 -5 75v286h171v-150q0 -39 -20 -49q-15 -6 -58 -7q-9 0 -26 1q12 -16 20 -41q1 -3 3 -7q51 7 75 16q21 6 31 21q13 24 14 66
q0 130 2 144q0 9 2 20q0 9 2 27q-66 -4 -95 -5h-121v100zM874 668l-71 -4l-352 1q-6 1 -12 1q-12 0 -20 3v-47q25 6 67 6h358v-643q0 -42 -19 -54q-27 -13 -60 -14q-28 1 -58 3q18 -25 31 -52q31 3 52 7q43 9 67 25q25 18 26 68l1 626l4 75q-7 0 -14 -1zM432 542
q19 -13 50 -45q27 -30 54 -66q9 18 28 37q-66 73 -97 104q-6 -6 -9 -8q0 -1 -3 -3q-6 -6 -15 -12q-4 -3 -8 -7z" />
  </g>

</svg>
