<?xml version="1.0" standalone="no"?>
<!DOCTYPE svg PUBLIC "-//W3C//DTD SVG 1.1//EN" "http://www.w3.org/Graphics/SVG/1.1/DTD/svg11.dtd" >
<svg xmlns="http://www.w3.org/2000/svg" xmlns:xlink="http://www.w3.org/1999/xlink" version="1.1" viewBox="-10 0 1034 1024">
  <g transform="matrix(1 0 0 -1 0 820)">
   <path fill="currentColor"
d="M123 619q1 -33 5 -67l-3 -682q0 -4 -1 -8q-1 -3 -1 -7h48q-3 33 -5 67l1 650q0 21 7 35q1 6 5 12h-56zM234 749q-13 -15 -28 -25q72 -70 133 -156l30 26q-21 30 -53 68q-45 49 -82 87zM595 274v-237q0 -34 25 -50q16 -10 61 -11q54 0 72 33q15 30 21 89q-22 6 -43 20
q-1 -18 -1 -37q-1 -46 -15 -58q-10 -10 -38 -11q-19 0 -30 6q-15 6 -15 30l1 222l4 43l-101 -5l-125 1q-15 3 -42 4q4 -58 6 -93q0 -72 -14 -114q-16 -54 -69 -88q-27 -16 -63 -27q18 -13 30 -37q90 42 129 122q13 34 18 67q3 37 4 131h185zM248 400q33 3 67 5l420 -1
q4 0 37 -4v44q-6 0 -13 -2q-18 -3 -50 -3l-446 3q-6 0 -15 2v-44zM412 563l66 -59q21 -21 49 -52q13 13 29 26q-21 25 -51 53q-33 31 -66 59q-19 -22 -27 -27zM492 688q-57 3 -68 6v-45l31 4l401 1v-725q0 -24 -13 -29q-19 -6 -73 -6q-33 0 -71 10q9 -22 13 -47q39 0 71 -2
q21 0 72 9q6 1 13 3q25 10 26 66l1 711l4 50q-39 -6 -62 -6h-345z" />
  </g>

</svg>
