<?xml version="1.0" standalone="no"?>
<!DOCTYPE svg PUBLIC "-//W3C//DTD SVG 1.1//EN" "http://www.w3.org/Graphics/SVG/1.1/DTD/svg11.dtd" >
<svg xmlns="http://www.w3.org/2000/svg" xmlns:xlink="http://www.w3.org/1999/xlink" version="1.1" viewBox="-10 0 1010 1000">
   <path fill="currentColor"
d="M252 0q39 43 105 141l-87 54q-37 -77 -99 -149zM403 40q51 9 121 10h282q42 -1 91 -10q-8 46 -8 81v639q5 85 -27 105q-29 26 -146 32q3 -47 -33 -105q84 12 100 2q21 -7 19 -56v-615h-280q-82 0 -119 8v-91zM452 159q73 4 100 12q-18 31 -18 111h107q6 -1 21 -2
q40 -2 58 -6q-7 31 -8 76v129q0 38 4 65q-46 -9 -79 -8h-105v135l109 -4q-23 -42 -44 -69l74 -26q3 6 10 18q53 95 73 148l-79 34q-6 -30 -16 -43q-254 8 -415 37l-18 -97q33 4 86 5q49 1 148 -1v-137h-99q1 31 6 60h-89q10 -34 10 -88v-164q-1 -43 -8 -72q6 1 21 3
q32 4 54 7h105v-28q0 -36 -1 -54q-2 -21 -7 -41zM105 191q110 8 119 20q-24 35 -22 91v448q0 72 8 139h-103q8 -32 8 -131v-478q-2 -54 -10 -89zM460 346h-101v127h101v-127zM532 346v127h109v-127h-109z" />
</svg>
