<?xml version="1.0" standalone="no"?>
<!DOCTYPE svg PUBLIC "-//W3C//DTD SVG 1.1//EN" "http://www.w3.org/Graphics/SVG/1.1/DTD/svg11.dtd" >
<svg xmlns="http://www.w3.org/2000/svg" xmlns:xlink="http://www.w3.org/1999/xlink" version="1.1" viewBox="-10 0 1034 1024">
  <g transform="matrix(1 0 0 -1 0 820)">
   <path fill="currentColor"
d="M136 539q6 -30 6 -67l-1 -591l-5 -37h50q-4 28 -5 75v555q0 34 15 65h-60zM198 730q33 -33 69 -80q37 -48 50 -73q1 0 3 3q22 24 30 28l-60 81q-31 40 -57 69q-19 -19 -35 -28zM266 -36q30 9 64 14l53 7q36 3 83 10q214 24 247 26q18 -25 39 -67q9 12 16 16q9 7 19 15
q-12 18 -27 38l-63 88q-12 16 -32 40q-18 -13 -39 -26q18 -15 32 -30q13 -15 33 -41q-43 -6 -69 -9l-42 -3l-60 -6v156q151 0 166 -2q18 0 39 -3q-4 64 -5 130l5 141q-36 -1 -74 -5h-131v50q0 15 3 28q1 18 13 36h-60q3 -12 3 -27l2 -87l-124 1q-19 3 -52 4l5 -83
q0 -108 -2 -142q-3 -6 -3 -46q60 4 86 5h90v-158l-139 -12q-57 -3 -100 -4q10 -18 17 -36q3 -9 7 -18zM347 228v189h134v-189h-134zM520 228v189h163v-189h-163zM496 669q-46 0 -68 5v-47q24 6 68 6h347v-687q0 -33 -17 -44q-18 -9 -52 -10q-27 0 -69 8q15 -27 23 -50
q87 0 118 16q36 21 36 75l1 663l4 70q-66 -4 -108 -5h-283z" />
  </g>

</svg>
