<?xml version="1.0" standalone="no"?>
<!DOCTYPE svg PUBLIC "-//W3C//DTD SVG 1.1//EN" "http://www.w3.org/Graphics/SVG/1.1/DTD/svg11.dtd" >
<svg xmlns="http://www.w3.org/2000/svg" xmlns:xlink="http://www.w3.org/1999/xlink" version="1.1" viewBox="-10 0 1010 1000">
   <path fill="currentColor"
d="M246 -6q42 41 101 141l-79 44q-36 -74 -99 -143zM413 46q49 8 135 8h252q57 -1 101 -8q-7 41 -8 91v665q3 54 -27 70q-29 20 -128 29q-1 -43 -36 -89q72 8 90 -5q20 -9 18 -61v-625h-258q-90 0 -139 8v-83zM452 137q80 13 90 24q0 3 -12 17q-23 27 -34 49h137
q56 -1 111 -10v73q-36 -7 -105 -8h-48q73 99 201 131q-43 36 -58 68q-11 -5 -29 -16q-19 -11 -20 -8q-1 4 -3 11q-5 23 -5 34v111q2 44 8 70q-48 -4 -72 -4h-101q-2 56 10 64q10 14 61 13q82 1 107 -69q6 26 52 42q-23 55 -54 68q-16 8 -41 11q-21 2 -76 2q-78 0 -104 -15
q-27 -13 -25 -57v-59h-91q0 32 8 56h-87q9 -35 10 -106v-131v-4q1 -28 -4 -37l-40 28q-21 -48 -40 -66q103 -32 187 -137h-30q-51 0 -113 8v-73q65 9 113 10h64q15 -35 31 -84q1 -4 2 -6zM460 284q-63 83 -127 135q24 6 34 6h77q0 -44 -6 -71q-1 -5 -1 -6q106 -1 95 8
q-22 24 -22 69h93l38 -4q-54 -38 -107 -137h-74zM347 473v53h95v-53h-95zM510 473v53h99v-53h-99zM349 574v57h93v-57h-93zM510 574v57h99v-57h-99zM187 742q0 116 7 151h-93q10 -84 10 -145v-448q-2 -87 -12 -121q94 2 109 12q0 3 -4 10q-17 30 -17 73v468z" />
</svg>
