<?xml version="1.0" standalone="no"?>
<!DOCTYPE svg PUBLIC "-//W3C//DTD SVG 1.1//EN" "http://www.w3.org/Graphics/SVG/1.1/DTD/svg11.dtd" >
<svg xmlns="http://www.w3.org/2000/svg" xmlns:xlink="http://www.w3.org/1999/xlink" version="1.1" viewBox="-10 0 1010 1000">
   <path fill="currentColor"
d="M280 -2q12 19 43 72q27 45 40 67l-95 42q-33 -78 -72 -141zM409 46q38 8 125 8h212q110 -3 147 -6q-7 63 -8 171v581q2 55 -25 70q-24 18 -126 29q-3 -51 -40 -97q120 20 110 -24v-651h-270q-97 3 -125 8v-89zM353 177q89 27 87 40q-1 3 -7 10q-29 33 -52 93v349
q0 75 8 113h-89q9 -32 10 -113v-228q-24 36 -54 79q-17 -21 -52 -38q-1 -1 -2 -1v271q1 85 6 131h-97q11 -48 12 -133v-426q0 -46 -7 -111q-1 -10 -1 -14q91 5 109 18q0 2 -4 7q-18 25 -18 60v177q87 -83 151 -284zM478 179q101 6 101 14q1 1 -2 6q-9 20 -12 49q-3 46 2 102
q132 -16 183 -30l8 73q-29 -5 -166 15l-21 3q8 74 32 141q52 -61 72 -129q75 39 81 48q0 4 -8 9q-19 12 -34 32q-1 1 -10 12q-50 61 -77 88q32 59 61 71q21 -1 24 -70q27 38 68 48q-22 114 -66 115q-71 -2 -139 -117q-79 69 -117 87q-17 -21 -61 -53q92 -42 149 -91
q-31 -95 -42 -179q-49 9 -81 18q-4 1 -6 2l-10 -80q16 2 73 -3q12 -1 18 -2q-10 -165 -20 -179zM679 185q18 25 51 99l-81 24q-8 -33 -28 -67q-10 -17 -16 -28z" />
</svg>
