<?xml version="1.0" standalone="no"?>
<!DOCTYPE svg PUBLIC "-//W3C//DTD SVG 1.1//EN" "http://www.w3.org/Graphics/SVG/1.1/DTD/svg11.dtd" >
<svg xmlns="http://www.w3.org/2000/svg" xmlns:xlink="http://www.w3.org/1999/xlink" version="1.1" viewBox="-10 0 1010 1000">
   <path fill="currentColor"
d="M240 -4q54 64 97 147l-75 42q-36 -75 -93 -143zM415 54q47 8 117 8h256q48 0 64 -1q20 -2 51 -9q-10 61 -10 115v661q2 26 -3 33q-5 9 -29 20q-34 14 -115 20q-4 -53 -38 -97q71 9 86 6q20 -2 19 -20v-659h-275q-82 0 -123 8v-85zM702 165q6 9 15 25q17 29 31 50
q7 11 -23 5q-26 -5 -35 -3q-179 24 -402 38q-16 -49 -36 -73q53 6 135 6q214 -14 315 -48zM103 189q103 12 103 18q0 3 -4 11q-15 28 -15 82v474v20q-1 74 5 99h-91q7 -24 6 -97v-18v-502q0 -40 -1 -55q-1 -19 -3 -32zM647 262q48 12 83 28q7 3 -6 13q-20 14 -30 27
q-5 7 -15 22q-17 28 -32 47q54 0 72 -1q23 -2 43 -7q-6 23 -6 60q0 40 4 61h-83q6 -29 6 -57h-368q-1 31 4 55h-89q6 -30 6 -57q0 -39 -6 -62q35 8 99 8h254q35 -60 58 -123q4 -9 6 -14zM514 280q20 38 32 93l-66 14q-6 -46 -30 -95zM367 292q18 30 36 83l-66 16
q-11 -45 -37 -85zM298 516q34 8 97 8h224q49 0 79 -6q-64 106 -113 155q78 30 139 65l-41 74q-4 -3 -11 -8q-87 -65 -138 -81q-90 57 -236 107q-22 -49 -50 -76q142 -25 218 -63q-91 -28 -147 -40l38 -57l163 53q37 -31 57 -69h-178q-56 -1 -101 10v-72z" />
</svg>
