<?xml version="1.0" standalone="no"?>
<!DOCTYPE svg PUBLIC "-//W3C//DTD SVG 1.1//EN" "http://www.w3.org/Graphics/SVG/1.1/DTD/svg11.dtd" >
<svg xmlns="http://www.w3.org/2000/svg" xmlns:xlink="http://www.w3.org/1999/xlink" version="1.1" viewBox="-10 0 1034 1024">
  <g transform="matrix(1 0 0 -1 0 820)">
   <path fill="currentColor"
d="M176 485q0 36 15 66h-60q6 -30 6 -67l-1 -603l-5 -37h50q-4 24 -5 75v566zM228 771q-15 -12 -45 -28q52 -54 87 -133q6 -12 10 -22q22 18 43 29q-52 90 -95 154zM460 514q24 33 36 46q9 9 33 22q-43 15 -64 27q-15 -33 -30 -59q-19 -31 -56 -80q-30 -39 -53 -60
q-18 -15 -65 -45q33 -10 52 -24q36 33 61 60q24 28 60 76h188q-46 -73 -104 -125q18 -4 26 -7q9 -3 18 -10q24 25 49 58q46 61 91 127q-60 -6 -92 -6h-150zM666 -21q33 -1 67 -5q-4 64 -5 92l1 184l4 58q-33 -1 -67 -5q-79 0 -106 2q-10 1 -18 3v-47q24 4 67 5h80v-98h-72
q-45 0 -68 5v-47q48 6 82 6h58v-116l-346 -1v114q93 0 115 -2q13 0 29 -5v49q-31 -6 -66 -6h-78v98q45 9 93 25q48 12 83 15q-30 24 -51 46q-21 -13 -35 -20l-57 -19q-34 -9 -78 -10l3 -42q3 -27 3 -34v-170q0 -12 -3 -41q-1 -21 -3 -39q60 4 94 5h274zM891 701l-78 -6
l-369 1q-18 3 -32 5v-48q24 6 47 6l389 1v-692q0 -48 -25 -61q-22 -9 -58 -9q-22 0 -61 3q15 -30 21 -51q37 1 61 5q51 6 76 24q24 19 24 75l1 681q0 30 4 66v0z" />
  </g>

</svg>
