<?xml version="1.0" standalone="no"?>
<!DOCTYPE svg PUBLIC "-//W3C//DTD SVG 1.1//EN" "http://www.w3.org/Graphics/SVG/1.1/DTD/svg11.dtd" >
<svg xmlns="http://www.w3.org/2000/svg" xmlns:xlink="http://www.w3.org/1999/xlink" version="1.1" viewBox="-10 0 1010 1000">
   <path fill="currentColor"
d="M252 -6q54 59 99 145l-91 44q-31 -82 -91 -145zM381 40q57 9 135 8h274q62 0 99 -8q-7 38 -8 93v633q1 53 -4 70q-5 23 -21 35q-26 25 -144 32q-4 -64 -39 -103q136 29 129 -44v-637h-284q-91 1 -137 10v-89zM103 187q87 3 119 14q-2 3 -8 11q-25 31 -24 58v482
q0 70 8 129h-95q8 -64 8 -129v-472q0 -48 -8 -93zM444 187q37 47 42 73q-24 -2 -63 2q-37 4 -64 4v78q61 3 113 -6v65q-54 -8 -113 -8v76h284v-74q-72 0 -123 8v-67q53 8 123 8v-76h-20q-56 0 -103 8v-77q64 8 103 8q20 0 66 -4q18 -1 27 -2q-7 36 -6 89v171q0 55 8 79
q-37 -8 -87 -8h-42v127q-5 66 42 60q52 6 52 -94q29 28 79 42q-15 76 -42 98q-13 12 -34 16q-16 3 -59 3q-75 1 -90 -12q-20 -12 -19 -65v-175h-54q-12 192 -174 270q-48 -52 -88 -66q185 -27 191 -204h-26q-32 1 -83 8q9 -39 8 -85v-242q95 -1 152 -28z" />
</svg>
