<?xml version="1.0" standalone="no"?>
<!DOCTYPE svg PUBLIC "-//W3C//DTD SVG 1.1//EN" "http://www.w3.org/Graphics/SVG/1.1/DTD/svg11.dtd" >
<svg xmlns="http://www.w3.org/2000/svg" xmlns:xlink="http://www.w3.org/1999/xlink" version="1.1" viewBox="-10 0 1034 1024">
  <g transform="matrix(1 0 0 -1 0 820)">
   <path fill="currentColor"
d="M190 724q63 -70 104 -139q15 12 26 20q1 0 14 9q-69 87 -85 109q-9 12 -23 29q-16 -16 -36 -28zM258 256q-1 -19 -2 -54q-3 -9 -3 -13h46q-4 54 -5 83v32h444l-3 -93q-1 -6 -3 -14h48q-6 24 -6 46q0 37 3 76q0 6 3 27q-66 -6 -87 -6h-58q9 13 17 28q21 34 43 61
q19 24 37 29q1 3 9 4q-48 25 -57 35q-3 3 -5 4q-12 -33 -39 -79q-30 -49 -56 -82l-287 1q-33 4 -44 5q1 -33 5 -66v-24zM330 499q28 0 215 15l89 9q84 9 92 7q7 0 23 -3q-7 13 -14 21q-12 16 -20 35q-31 -10 -75 -19q-81 -12 -156 -20q-81 -4 -128 -6q-42 0 -91 7
q10 -15 14 -25q3 -7 11 -24zM413 223q-21 0 -66 5v-46l17 2q24 1 49 3h200q-43 -72 -90 -112q-79 39 -108 52q-13 6 -25 12q-6 -21 -18 -42q28 -7 63 -22l55 -28q-42 -33 -123 -67q-60 -22 -100 -27q16 -19 30 -45q141 52 234 122q139 -72 184 -108q7 18 23 40l-61 36
l-114 59q73 79 126 171q-36 -1 -72 -5h-204zM377 426l-46 49q-15 -18 -32 -30q58 -58 94 -99q13 15 29 31q-4 6 -13 15zM545 413l-40 52q-7 9 -18 21q-13 -12 -34 -24q28 -33 39 -45q12 -16 34 -53q9 9 33 30q-7 10 -14 19zM126 551l4 -36l-4 -670h48q-4 15 -5 35l-1 605
q0 37 3 40q1 13 11 26h-56zM904 700l-34 -4q-27 -3 -34 -3h-365q-24 0 -49 3q-6 1 -17 4v-48l66 6h390v-707q0 -9 -4 -29q-1 -15 -14 -20q-21 -7 -59 -8q-25 0 -54 7q15 -30 20 -53q93 4 123 23q24 18 25 71l1 708q0 15 5 50v0z" />
  </g>

</svg>
