<?xml version="1.0" standalone="no"?>
<!DOCTYPE svg PUBLIC "-//W3C//DTD SVG 1.1//EN" "http://www.w3.org/Graphics/SVG/1.1/DTD/svg11.dtd" >
<svg xmlns="http://www.w3.org/2000/svg" xmlns:xlink="http://www.w3.org/1999/xlink" version="1.1" viewBox="-10 0 1010 1000">
   <path fill="currentColor"
d="M236 -4q54 66 97 135l-81 50q-44 -84 -93 -135zM901 32q-8 48 -10 169v587q3 65 -29 82q-31 22 -144 31q-5 -58 -35 -103q81 12 100 0q22 -10 21 -63v-616h-262q-70 0 -93 1q-30 1 -64 5v-93q38 10 157 10h174q104 0 185 -10zM423 153q12 5 38 16q59 24 53 26q-2 2 -9 8
q-23 17 -47 39h141q21 0 68 -3q35 -2 47 -2q-62 94 -135 180q-36 -23 -81 -34q39 -28 83 -81h-164q-60 66 -113 115q-31 -34 -70 -54q120 -64 189 -210zM99 197q120 14 115 26q0 2 -2 7q-22 36 -22 133v370q0 132 6 162h-101q13 -44 14 -162v-391q-3 -96 -10 -145zM448 401
q39 61 42 80q-2 0 -8 -1q-34 -12 -127 7v79q36 0 87 -4q15 -2 22 -2v67q-45 -6 -107 -6v98h272v-94q-29 0 -45 1q-17 0 -68 3v-67q48 9 113 6v-83h-60q-44 0 -65 5v-71q33 5 101 6q13 0 53 -2q37 -2 48 -2q-4 54 -4 95v139q0 30 6 131q-35 -8 -129 -8h-174q-104 3 -129 6
q6 -29 8 -109v-113q1 -90 -10 -127q95 -3 174 -34z" />
</svg>
