<?xml version="1.0" standalone="no"?>
<!DOCTYPE svg PUBLIC "-//W3C//DTD SVG 1.1//EN" "http://www.w3.org/Graphics/SVG/1.1/DTD/svg11.dtd" >
<svg xmlns="http://www.w3.org/2000/svg" xmlns:xlink="http://www.w3.org/1999/xlink" version="1.1" viewBox="-10 0 1034 1024">
  <g transform="matrix(1 0 0 -1 0 820)">
   <path fill="currentColor"
d="M167 732q21 -15 64 -55l59 -59q13 16 28 33l-64 61l-59 51q-12 -15 -28 -31zM294 121q-25 3 -50 4q-1 0 -16 2v-47q9 1 18 3q48 3 94 3h128q-36 -61 -89 -95q-66 -36 -127 -46q24 -15 49 -41q15 6 31 17q78 39 108 64q33 28 65 79l36 -24q120 -76 172 -127q10 18 32 40
q-9 3 -164 107l-39 26l231 -1q4 0 31 -5v47q-9 0 -17 -3q-24 0 -48 -3h-219q0 21 5 42q6 27 26 45q-21 0 -44 5q-6 1 -21 4q0 -15 1 -31q0 -27 -8 -65h-185zM295 571q1 -33 5 -66l-1 -234q-3 -15 -4 -49q24 4 62 5l317 -1l52 -4q-3 33 -5 66l1 236q0 18 4 47q-36 -1 -72 -5
l-310 1q-19 3 -49 4zM337 370v63h346v-63h-346zM337 467v65h346v-65h-346zM683 336v-75h-346v75h346zM631 211q-9 3 -22 12q-12 -18 -26 -32q25 -10 47 -25q28 -18 51 -35q21 27 25 34q-33 18 -45 26zM127 568l4 -36l-3 -681q-1 -1 -1 -4h48q-3 7 -6 63l1 616q0 21 12 40
q0 1 1 2h-56zM488 708l-49 3q-6 0 -16 2v-46l42 4l389 1v-721q0 -39 -15 -49q-15 -7 -40 -8q-22 0 -69 7q15 -30 20 -53q57 3 88 10q54 12 54 84l1 727l4 44q-33 -1 -67 -5h-342z" />
  </g>

</svg>
