<?xml version="1.0" standalone="no"?>
<!DOCTYPE svg PUBLIC "-//W3C//DTD SVG 1.1//EN" "http://www.w3.org/Graphics/SVG/1.1/DTD/svg11.dtd" >
<svg xmlns="http://www.w3.org/2000/svg" xmlns:xlink="http://www.w3.org/1999/xlink" version="1.1" viewBox="-10 0 1034 1024">
  <g transform="matrix(1 0 0 -1 0 820)">
   <path fill="currentColor"
d="M177 740q21 -24 52 -68q24 -36 47 -72q21 21 37 32q-27 33 -102 138q-16 -12 -34 -30zM348 400h115q45 0 65 -5v46q-9 0 -11 -2q-27 0 -54 -3l-210 1l-42 4v-46q1 0 4 1q15 3 13 2l82 2q0 -229 -41 -332q-30 -72 -74 -107q52 -15 56 -17q45 75 64 140q19 69 29 173h102
l-4 -123q-3 -57 -6 -88q-4 -25 -10 -34q-10 -21 -45 -21q-16 0 -46 4q16 -21 24 -47q60 6 85 25q25 18 33 118q3 72 3 93q4 93 7 110l18 -12q48 61 77 103q24 37 50 90l41 -62q27 -37 36 -48q33 -37 84 -85q3 6 32 26q4 3 16 7q-49 21 -103 79q-55 63 -86 132q18 28 37 40
q-18 6 -40 17q-9 6 -17 8q-12 -42 -35 -95q-30 -69 -74 -127q-33 -42 -63 -59q10 -4 22 -10q-28 -1 -57 -5h-80zM306 559l53 -58q30 -34 41 -52l33 33q-24 31 -45 53q-24 24 -48 53q-15 -15 -34 -29zM548 78q93 -60 160 -125q13 21 30 36q-25 21 -87 66l-77 59
q-9 -16 -20 -28q-1 -1 -6 -8zM588 264q21 -15 48 -36l75 -63l23 34q-6 4 -14 15l-98 80q-4 3 -6 5q-12 -18 -28 -35zM121 542q0 -4 2 -8q0 -18 4 -58l-5 -635l-1 -3h49q-6 18 -6 67l1 594q0 22 12 41q0 1 1 2h-57zM480 691q-34 0 -65 5v-47q3 0 45 5l396 1v-699
q0 -13 -3 -29q-1 -15 -14 -20q-22 -7 -59 -8q-25 0 -54 6q15 -31 20 -52q93 3 123 22q24 18 25 72l1 705l4 44q-60 -4 -67 -5h-352z" />
  </g>

</svg>
