<?xml version="1.0" standalone="no"?>
<!DOCTYPE svg PUBLIC "-//W3C//DTD SVG 1.1//EN" "http://www.w3.org/Graphics/SVG/1.1/DTD/svg11.dtd" >
<svg xmlns="http://www.w3.org/2000/svg" xmlns:xlink="http://www.w3.org/1999/xlink" version="1.1" viewBox="-10 0 1034 1024">
  <g transform="matrix(1 0 0 -1 0 820)">
   <path fill="currentColor"
d="M296 589q12 19 29 33q-78 81 -116 115q-7 6 -12 10q-10 -15 -26 -30q78 -67 125 -128zM568 217v-201q0 -48 37 -66q12 -3 43 -6q30 0 60 -2q43 0 72 20q19 15 33 65q3 15 9 29q-28 15 -47 29q-1 -42 -5 -57q-7 -34 -26 -41q-18 -6 -50 -6q-21 1 -41 1q-28 1 -40 11
q-6 6 -7 28v196l101 -1l46 -4q-4 49 -5 65l1 214l4 47q-63 -6 -95 -6l-91 2q-6 0 -37 4v-47q12 3 18 3q48 3 94 3h68v-102l-139 4q-3 1 -6 1v-47q42 6 92 6h53v-106h-394v101h79q28 0 50 -3q3 0 16 -2v47q-72 -6 -87 -6h-58v108q18 3 36 8q25 6 51 11q85 21 95 20q6 0 13 -1
q-21 21 -38 47q-25 -15 -90 -32q-37 -9 -109 -19q1 -30 5 -62l-1 -211q-3 -12 -4 -47q49 6 108 5h38q-1 -105 -51 -166q-72 -76 -158 -90q36 -22 52 -37q106 57 148 115q43 63 50 178h107zM129 557l4 -36l-4 -676h48q-4 15 -5 35l-1 611q0 37 3 40q1 13 11 26h-56zM478 691
q-34 0 -65 5v-47q3 0 45 5l395 1v-695q0 -33 -16 -46q-16 -9 -55 -10q-25 0 -54 6q15 -28 20 -53q24 0 45 3q19 1 36 5q61 12 62 85l1 702l4 44q-60 -4 -67 -5h-351z" />
  </g>

</svg>
