<?xml version="1.0" standalone="no"?>
<!DOCTYPE svg PUBLIC "-//W3C//DTD SVG 1.1//EN" "http://www.w3.org/Graphics/SVG/1.1/DTD/svg11.dtd" >
<svg xmlns="http://www.w3.org/2000/svg" xmlns:xlink="http://www.w3.org/1999/xlink" version="1.1" viewBox="-10 0 1034 1024">
  <g transform="matrix(1 0 0 -1 0 820)">
   <path fill="currentColor"
d="M169 710l61 -55q36 -36 63 -66q15 22 33 37q-25 27 -85 81q-18 18 -40 37q-18 -19 -32 -34zM448 -28q-4 -64 -5 -68h47q-4 54 -5 111v48q36 10 52 13q3 1 12 2q3 1 8 3q1 22 4 45q-43 -15 -76 -23v290q30 0 75 -5v45q-4 0 -7 -2q-3 0 -4 -1l-108 -3l12 32q13 45 18 54
q6 12 10 24q1 4 5 10q-36 -1 -71 -5l-149 4q-3 1 -6 1v-44q-3 0 9 1l56 4h105l-28 -81h-130l-49 3q-6 0 -16 3v-45q51 4 76 5v-333q-37 -6 -81 -8q9 -27 13 -51q48 16 233 55v-84zM448 279v-76h-128v76h128zM320 170h128v-77q-30 -6 -56 -12q-27 -6 -72 -14v103zM320 313v80
h128v-80h-128zM710 409q-1 -55 -10 -105q-9 -48 -25 -94q-9 12 -14 18l-53 60q-12 -15 -29 -33l83 -88q-10 -27 -22 -49t-34 -53q-45 -63 -93 -95q7 -3 17 -7q21 -9 32 -17q72 78 127 188q16 -15 29 -31q15 -18 45 -58q12 -16 26 -38q19 18 36 31q-10 15 -52 60q-3 3 -69 79
q18 52 29 106q9 57 15 126q27 0 74 -5v46q-4 0 -8 -1q-3 0 -4 -1l-111 -3h-66q12 39 28 81q9 30 34 46l-60 16q-1 1 -2 1q-12 -76 -45 -161q-27 -66 -47 -98q-18 -30 -45 -59q24 -3 46 -10q24 36 39 67q13 25 36 81h93zM125 547l4 -36l-4 -653h48q-3 7 -6 65l1 581
q0 22 12 41q0 1 1 2h-56zM496 684q-33 3 -66 5v-46q7 0 17 2q24 1 49 3h361v-685q0 -39 -15 -49q-19 -9 -52 -10q-24 0 -63 8q15 -27 20 -53q94 4 123 24q24 15 25 70l1 692l4 44q-33 -1 -67 -5h-337z" />
  </g>

</svg>
