<?xml version="1.0" standalone="no"?>
<!DOCTYPE svg PUBLIC "-//W3C//DTD SVG 1.1//EN" "http://www.w3.org/Graphics/SVG/1.1/DTD/svg11.dtd" >
<svg xmlns="http://www.w3.org/2000/svg" xmlns:xlink="http://www.w3.org/1999/xlink" version="1.1" viewBox="-10 0 1010 1000">
   <path fill="currentColor"
d="M240 2q71 78 93 113l-71 46q-45 -70 -93 -113zM905 20q-7 45 -6 94v15v659q8 86 -135 107q0 -52 -28 -91q87 15 83 -44v-664h-180h-121q-74 0 -119 8v-82q40 8 121 8h270q64 1 115 -10zM464 121q63 11 90 14q8 0 -2 12q-14 17 -20 30h133q58 1 87 -8v68q-36 -9 -89 -8
h-149l-22 51h121q49 1 95 -8q-7 34 -6 84v271q54 0 92 -8v64q-31 -6 -100 -6h-279q3 3 9 8q48 42 48 48q-33 8 -190 109l-58 -56q111 -52 171 -109h-87q-68 -1 -106 8v-62q34 5 78 4h14v-275q1 -53 -6 -80q39 6 89 6h46l19 -49h-109q-49 -1 -87 8v-66q27 7 72 6h13h123
q10 -24 10 -56zM93 201q21 1 65 6q16 1 23 2q17 1 11 12q-10 20 -11 41q-3 43 -4 113v371q0 84 8 127h-96q9 -38 8 -127v-440zM631 328h-268v43h268v-43zM633 411h-270v44h270v-44zM363 494v44h270v-44h-270zM363 578v49h270v-49h-270zM575 687l173 91l-60 60
q-60 -49 -160 -103z" />
</svg>
