<?xml version="1.0" standalone="no"?>
<!DOCTYPE svg PUBLIC "-//W3C//DTD SVG 1.1//EN" "http://www.w3.org/Graphics/SVG/1.1/DTD/svg11.dtd" >
<svg xmlns="http://www.w3.org/2000/svg" xmlns:xlink="http://www.w3.org/1999/xlink" version="1.1" viewBox="-10 0 1034 1024">
  <g transform="matrix(1 0 0 -1 0 820)">
   <path fill="currentColor"
d="M130 569q1 -7 4 -16q0 -15 2 -50v-570q0 -43 -6 -76h50q-4 28 -5 75v573q0 36 15 64h-60zM199 721q42 -28 72 -51q27 -24 60 -57q6 19 28 39q-9 9 -28 24q-25 16 -104 81q-6 -12 -12 -18q-6 -7 -16 -18zM221 359q54 -25 108 -85q3 3 10 14q4 7 15 20q-18 18 -103 85
q-10 -15 -30 -34zM326 74q4 13 61 134q-15 9 -40 29q-6 -27 -13 -46q-7 -22 -26 -61q-13 -36 -30 -64q-15 -27 -39 -63q28 -15 41 -24q19 36 30 58q7 19 16 37zM350 508l-54 46q-12 -16 -29 -36q43 -24 108 -89q7 15 24 36q-10 9 -23 20zM581 374h-109q-45 0 -69 5v-47
q27 6 69 6h109l-4 -114q-55 0 -85 2q-12 3 -48 3q1 -33 5 -67q0 -100 -2 -134q-3 -6 -3 -45q60 4 114 5l131 -1q15 0 49 -4q-6 78 -6 93q0 99 2 114q0 3 1 6q0 12 3 33q-33 -1 -65 -5h-57l4 114q126 0 149 -2q19 0 34 -4v47q-61 -4 -98 -5h-84l5 126q102 9 114 9q15 0 39 -5
q-21 27 -29 53q-42 -9 -73 -15q-36 -6 -74 -9q-33 -3 -70 -4q-42 0 -103 10q12 -21 21 -50l135 8zM488 22v166h207v-166h-207zM489 679q-45 0 -67 5v-47q25 6 67 6h362v-681q0 -39 -23 -53q-18 -9 -54 -9q-27 0 -69 7q15 -21 30 -57q30 1 54 6q61 10 83 34q18 19 18 62
l1 677l4 55q-34 -1 -70 -5h-336z" />
  </g>

</svg>
