<?xml version="1.0" standalone="no"?>
<!DOCTYPE svg PUBLIC "-//W3C//DTD SVG 1.1//EN" "http://www.w3.org/Graphics/SVG/1.1/DTD/svg11.dtd" >
<svg xmlns="http://www.w3.org/2000/svg" xmlns:xlink="http://www.w3.org/1999/xlink" version="1.1" viewBox="-10 0 1010 1000">
   <path fill="currentColor"
d="M220 -10q30 34 109 135l-75 44q-57 -91 -103 -135zM363 26q48 8 115 8h300q71 0 119 -8q-10 35 -10 109v403v280q14 86 -143 89q-1 -55 -34 -97q103 13 94 -46v-658h-322q-66 -1 -119 7v-87zM452 127q3 0 10 1q45 3 70 7q10 1 4 17q-10 30 -10 59h93q41 0 79 -8v63
q-22 -9 -79 -8h-93v60h133q53 0 87 -6v67q-35 -10 -87 -10h-159l-113 80l216 -4q-15 -18 -34 -36l60 -26l113 107l-67 40l-28 -40q-40 2 -116 6q-178 7 -251 18l-20 -71q78 -7 151 -76h-84q-55 -1 -91 8v-65q21 7 86 6h11h121v-58h-83q-57 -1 -89 8v-63q35 9 89 8h83
q0 -10 -1 -33q-1 -32 -1 -51zM107 163q22 4 56 10q17 2 27 4q35 3 19 18q-16 25 -17 55v512v31q-1 86 4 106h-93q4 -14 5 -44q1 -15 1 -35v-56v-516v-15q-2 -37 -2 -70zM252 534q35 9 105 8h266q56 1 97 -8q-8 37 -8 91v100q27 1 50 -6v75q-48 -12 -101 -8h-346
q-55 -1 -103 8v-77q19 6 48 6v-111q1 -49 -8 -78zM391 594h-66v133h66v-133zM516 594h-66v133h66v-133zM575 594v133h72v-133h-72z" />
</svg>
