<?xml version="1.0" standalone="no"?>
<!DOCTYPE svg PUBLIC "-//W3C//DTD SVG 1.1//EN" "http://www.w3.org/Graphics/SVG/1.1/DTD/svg11.dtd" >
<svg xmlns="http://www.w3.org/2000/svg" xmlns:xlink="http://www.w3.org/1999/xlink" version="1.1" viewBox="-10 0 1034 1024">
  <g transform="matrix(1 0 0 -1 0 820)">
   <path fill="currentColor"
d="M345 734q1 -21 2 -35q3 -24 3 -83q-3 -744 -5 -758h48q-1 3 -1 5q-3 7 -4 36v794h221q-39 -76 -51 -106l-79 -155q-9 -13 -18 -30q43 -15 70 -32q42 -24 71 -60q48 -57 49 -125q0 -66 -44 -90q-33 -16 -74 -17q-24 0 -67 9q9 -36 10 -53q87 9 92 9q24 6 53 17
q67 31 68 127q0 72 -58 145q-24 27 -42 41q-24 21 -75 50q130 259 135 265q15 25 26 46q-30 -1 -62 -5l-222 1q-15 3 -46 4v0z" />
  </g>

</svg>
