<?xml version="1.0" standalone="no"?>
<!DOCTYPE svg PUBLIC "-//W3C//DTD SVG 1.1//EN" "http://www.w3.org/Graphics/SVG/1.1/DTD/svg11.dtd" >
<svg xmlns="http://www.w3.org/2000/svg" xmlns:xlink="http://www.w3.org/1999/xlink" version="1.1" viewBox="-10 0 1034 1024">
  <g transform="matrix(1 0 0 -1 0 820)">
   <path fill="currentColor"
d="M644 346h-195q-43 0 -65 5v-47q9 4 26 5l234 1l-1 -435q-3 -21 -4 -35h48q-3 30 -5 60v410l240 -1q3 0 28 -5v47q-6 -1 -12 -3q3 0 -11 -1l-245 -1v328q37 6 116 26q33 6 55 11q22 1 46 3l-21 24l-20 28q-42 -18 -82 -30q-99 -27 -196 -41q-126 -9 -142 -11q-9 1 -20 2
q18 -33 25 -51l201 32v-321zM91 725q1 -30 5 -62l-1 -794q-1 -10 -2 -25q0 -3 -2 -8v-2h48q-3 24 -5 50v800h200q-9 -30 -21 -55q-12 -28 -34 -74q-30 -66 -76 -142q30 -24 50 -45q13 -13 34 -41q54 -75 54 -150q0 -39 -21 -58q-34 -27 -86 -28q-15 0 -46 5q6 -9 12 -19
l15 -37l43 8q55 12 85 38q36 30 37 92q0 72 -48 151q-27 40 -76 90l39 83q42 85 52 108q15 36 31 71q6 13 18 44q-28 -1 -57 -5l-205 1q-19 3 -43 4v0z" />
  </g>

</svg>
