<?xml version="1.0" standalone="no"?>
<!DOCTYPE svg PUBLIC "-//W3C//DTD SVG 1.1//EN" "http://www.w3.org/Graphics/SVG/1.1/DTD/svg11.dtd" >
<svg xmlns="http://www.w3.org/2000/svg" xmlns:xlink="http://www.w3.org/1999/xlink" version="1.1" viewBox="-10 0 1010 1000">
   <path fill="currentColor"
d="M103 34q45 8 139 8h52q69 0 89 -1q26 -1 44 -5l-8 16q24 8 166 8h193q66 0 96 -2t49 -8v89q-16 -4 -46 -5q-14 -1 -34 -1h-57h-34v570q-1 39 7 46q7 10 39 9q75 3 75 -119q36 40 93 62q-27 143 -139 135h-77q-46 1 -59 -21q-15 -20 -14 -88v-594h-86q6 395 -45 517
q-42 133 -231 233q-22 -38 -69 -75q187 -63 225 -182q26 -64 34 -177q9 -108 5 -316q-71 0 -99 6v-71l-103 270q106 122 103 210q-6 108 -169 133q1 -63 -40 -101q35 7 53 8q21 1 34 -4q29 -9 36 -46q-5 -106 -99 -180q49 -118 84 -226q6 -18 7 -20h-127v551q0 181 6 204
h-93q5 -12 6 -52q2 -39 2 -150v-440q0 -163 -8 -191z" />
</svg>
