<?xml version="1.0" standalone="no"?>
<!DOCTYPE svg PUBLIC "-//W3C//DTD SVG 1.1//EN" "http://www.w3.org/Graphics/SVG/1.1/DTD/svg11.dtd" >
<svg xmlns="http://www.w3.org/2000/svg" xmlns:xlink="http://www.w3.org/1999/xlink" version="1.1" viewBox="-10 0 1034 1024">
  <g transform="matrix(1 0 0 -1 0 820)">
   <path fill="currentColor"
d="M80 730l6 -59l-3 -810q-1 -3 -1 -6q-1 -1 -2 -5h50l-4 30l-1 809h210q-6 -15 -54 -105l-73 -122q-7 -9 -15 -20q78 -70 110 -126q30 -60 31 -112q0 -57 -41 -85q-27 -13 -65 -14q-19 0 -51 5q12 -18 25 -54q45 6 69 13q63 18 87 69q13 33 14 71q0 51 -29 110
q-27 51 -97 128q3 12 25 47l62 108l31 63l33 65q-28 -1 -57 -5l-219 1q-15 3 -41 4zM822 425q-6 -45 -15 -81q-9 -34 -25 -81q-12 -36 -27 -68q-15 -33 -41 -74q-34 54 -58 102q-33 66 -41 98l-17 61q-21 -9 -54 -17q18 -24 39 -66q0 -4 38 -89q3 -4 6 -11q27 -55 34 -65
l28 -45q-75 -84 -156 -136q-66 -37 -116 -45q16 -12 35 -32q3 -3 11 -12q9 6 19 12q43 24 69 42q22 15 56 42q36 27 109 98q48 -55 99 -100q52 -40 123 -87q19 22 46 43q-126 33 -245 175q81 129 112 286l21 91q-30 -1 -60 -5h-316l1 194q15 3 39 4q69 3 118 10q54 6 138 23
l65 12q16 0 52 7l-23 22q-10 13 -19 28q-60 -25 -122 -39q-63 -12 -125 -21q-60 -9 -101 -9q-27 0 -70 6q6 -51 8 -87q1 -37 2 -97l-2 -155q-3 -109 -18 -174q-31 -139 -122 -227q-27 -24 -66 -43l31 -17q9 -6 19 -15q84 81 134 177q31 69 46 149q12 85 15 216h326z" />
  </g>

</svg>
