<?xml version="1.0" standalone="no"?>
<!DOCTYPE svg PUBLIC "-//W3C//DTD SVG 1.1//EN" "http://www.w3.org/Graphics/SVG/1.1/DTD/svg11.dtd" >
<svg xmlns="http://www.w3.org/2000/svg" xmlns:xlink="http://www.w3.org/1999/xlink" version="1.1" viewBox="-10 0 1010 1000">
   <path fill="currentColor"
d="M77 18q30 3 115 6h104q76 -2 109 -6q-60 199 -107 320q115 123 107 230q-2 118 -195 149q1 -29 -30 -86q-10 -16 -9 -18q54 13 97 -5q42 -19 47 -56q3 -113 -105 -192q64 -140 88 -264h-135v648q0 118 6 149h-92q8 -47 10 -149v-565q-1 -124 -10 -161zM437 38q29 7 128 8
h197q84 0 119 -6v87q-16 -4 -43 -5q-12 -1 -29 -1h-45h-202q-82 -1 -125 6v-89zM359 274q31 7 109 6h38h306q96 0 138 -8v93q-42 -9 -125 -9h-75v351q0 46 12 57q9 13 50 12q40 1 50 -20q11 -16 15 -99q45 49 93 56q-13 94 -45 120q-25 27 -117 27q-87 3 -111 -19
q-27 -20 -26 -91v-394h-84q13 371 -230 535q-38 -44 -99 -67q266 -89 246 -468h-30q-57 0 -115 9v-91z" />
</svg>
