<?xml version="1.0" standalone="no"?>
<!DOCTYPE svg PUBLIC "-//W3C//DTD SVG 1.1//EN" "http://www.w3.org/Graphics/SVG/1.1/DTD/svg11.dtd" >
<svg xmlns="http://www.w3.org/2000/svg" xmlns:xlink="http://www.w3.org/1999/xlink" version="1.1" viewBox="-10 0 1034 1024">
  <g transform="matrix(1 0 0 -1 0 820)">
   <path fill="currentColor"
d="M124 -152h49q-3 33 -5 68v776h220q-87 -163 -97 -180l-38 -63q63 -57 95 -107q36 -58 37 -118q0 -52 -37 -77q-27 -19 -74 -20q-18 0 -48 5q13 -33 18 -55q96 15 126 32q54 34 55 118q0 49 -26 100q-27 57 -96 129l61 112l50 88l41 77q-33 -1 -66 -5l-219 1q-19 3 -46 4
q1 -33 5 -69q0 -769 -3 -798v-2q-1 -3 -1 -8q-1 -3 -1 -8zM863 213v-252q0 -36 -15 -47q-15 -9 -47 -9h-17q-27 0 -64 7q15 -34 23 -56l58 5q13 0 25 4q52 9 65 32q9 21 9 59l1 716q1 30 5 62q-33 -1 -65 -5l-290 1q-19 3 -47 4q1 -36 5 -72l-1 -349q-1 -9 -1 -19
q-1 -45 -5 -80q-9 -96 -45 -179q-37 -81 -84 -123q-19 -15 -50 -28q36 -18 57 -33q135 148 162 362h321zM544 249l3 191h316v-191h-319zM547 476v217h316v-217h-316z" />
  </g>

</svg>
