<?xml version="1.0" standalone="no"?>
<!DOCTYPE svg PUBLIC "-//W3C//DTD SVG 1.1//EN" "http://www.w3.org/Graphics/SVG/1.1/DTD/svg11.dtd" >
<svg xmlns="http://www.w3.org/2000/svg" xmlns:xlink="http://www.w3.org/1999/xlink" version="1.1" viewBox="-10 0 1010 1000">
   <path fill="currentColor"
d="M883 40q-8 44 -8 185v541q11 108 -177 107q5 -57 -31 -105q117 35 129 -49v-171h-223q-22 198 -172 333q-40 -24 -93 -37q133 -92 162 -196q36 -98 34 -410q0 -94 -2 -134q-3 -44 -10 -64q21 5 59 6q19 1 43 2h65h69h27q100 2 128 -8zM99 42q37 9 140 8h33q72 0 156 -11
q9 -1 12 -1q-4 17 -48 136q-47 128 -61 170q59 93 75 142q19 56 9 106q-28 94 -169 107q-1 -58 -42 -95q78 17 111 -14q33 -32 15 -99q-20 -67 -82 -141q91 -234 85 -238h-150v541q0 184 7 214h-91q6 -16 8 -61q2 -43 2 -149v-415q0 -176 -10 -200zM585 115l-2 149h213v-149
h-211zM581 332q0 51 -4 149h219v-149h-215z" />
</svg>
