<?xml version="1.0" standalone="no"?>
<!DOCTYPE svg PUBLIC "-//W3C//DTD SVG 1.1//EN" "http://www.w3.org/Graphics/SVG/1.1/DTD/svg11.dtd" >
<svg xmlns="http://www.w3.org/2000/svg" xmlns:xlink="http://www.w3.org/1999/xlink" version="1.1" viewBox="-10 0 1010 1000">
   <path fill="currentColor"
d="M577 -12q100 19 108 38q-1 6 -11 13q-12 8 -17 17q-11 20 -24 54q-6 18 -10 27h198q51 0 102 -8q10 -2 12 -2v88q-3 0 -15 -2q-46 -6 -97 -6h-226q-6 12 -19 39q-63 130 -88 169h139v-69q0 -46 -4 -72q98 6 107 18q0 2 -6 10q-20 24 -20 52v61h66q63 0 123 -10
q11 -2 14 -2v89q-4 0 -16 -2q-53 -7 -123 -7h-64v146h68q94 0 158 -9q7 -1 8 -1v94q-3 0 -13 -1q-61 -7 -151 -7h-70v67q0 72 5 123q1 11 1 14h-97q0 -1 1 -7q7 -54 7 -132v-65h-95q-70 0 -126 7q-13 1 -17 1v-94q5 0 20 2q57 8 123 8h99v-146q-196 6 -218 17l-30 -83
q38 31 133 -210h-6q-39 0 -96 6q-13 2 -15 2v-86q4 0 17 2q48 6 96 6h32q31 -95 37 -149zM87 38q49 8 123 8h80q68 0 121 -10q-64 188 -117 314q97 106 87 210q0 114 -157 145q-12 -34 -32 -80q-9 -21 -9 -23q112 29 117 -58q7 -90 -90 -194q73 -147 92 -235h-125v618
q0 73 7 140q1 13 1 16h-98q0 -2 1 -12q7 -59 7 -144v-556q0 -97 -8 -139z" />
</svg>
