<?xml version="1.0" standalone="no"?>
<!DOCTYPE svg PUBLIC "-//W3C//DTD SVG 1.1//EN" "http://www.w3.org/Graphics/SVG/1.1/DTD/svg11.dtd" >
<svg xmlns="http://www.w3.org/2000/svg" xmlns:xlink="http://www.w3.org/1999/xlink" version="1.1" viewBox="-10 0 1034 1024">
  <g transform="matrix(1 0 0 -1 0 820)">
   <path fill="currentColor"
d="M117 679q3 -21 3 -31q0 -744 -3 -775q-1 -3 -1 -6q-1 -1 -1 -5h50q-3 15 -4 19l-2 41v747h206q-73 -159 -127 -245q49 -42 71 -71q60 -75 60 -145q0 -51 -39 -74q-34 -21 -82 -21q-16 0 -50 5q12 -27 16 -53q24 1 39 4q66 9 102 34q49 34 50 108q0 52 -31 109
q-12 21 -30 47q-21 27 -54 65q4 12 11 25q1 3 3 7q0 -3 14 27q16 34 35 68q22 45 43 89q15 30 32 62q-27 -1 -56 -5l-215 1q-15 3 -42 4q0 -15 2 -31zM466 -73q-3 -30 -3 -49q0 -4 -2 -12h49q0 6 -3 10l-2 100v32h349q0 -99 -3 -129q-1 -4 -2 -9h49q-3 25 -5 52l1 748l4 43
q-27 -1 -56 -5l-341 1q-15 3 -40 4q1 -30 5 -61v-725zM505 44v286h349v-286h-349zM505 365v307h349v-307h-349z" />
  </g>

</svg>
