<?xml version="1.0" standalone="no"?>
<!DOCTYPE svg PUBLIC "-//W3C//DTD SVG 1.1//EN" "http://www.w3.org/Graphics/SVG/1.1/DTD/svg11.dtd" >
<svg xmlns="http://www.w3.org/2000/svg" xmlns:xlink="http://www.w3.org/1999/xlink" version="1.1" viewBox="-10 0 1010 1000">
   <path fill="currentColor"
d="M681 0q40 59 71 135l-83 30h105q105 -1 164 -6v79q-55 -4 -160 -5h-155q-5 34 -8 140h256q-20 282 -30 365q-9 90 -51 112q-30 16 -139 37q-20 -60 -52 -107q80 13 112 2q34 -10 41 -51q15 -82 27 -282q1 -11 1 -10h-173q-12 127 -61 240q-60 126 -167 216
q-24 -26 -87 -57q100 -61 164 -165q62 -101 80 -329l2 -113h-26q-52 0 -117 4v-76q12 1 39 2q68 4 88 4h135q-22 -87 -64 -141zM95 48q33 6 93 6h137q51 0 100 -6l-129 300q95 110 103 226q0 42 -46 77q-40 33 -113 50q-6 -54 -44 -95q64 -3 83 -13q25 -10 31 -37
q4 -78 -98 -202l96 -233h-131v677q0 63 4 97h-84q2 -20 3 -41q1 -16 1 -54v-651q1 -63 -6 -101z" />
</svg>
