<?xml version="1.0" standalone="no"?>
<!DOCTYPE svg PUBLIC "-//W3C//DTD SVG 1.1//EN" "http://www.w3.org/Graphics/SVG/1.1/DTD/svg11.dtd" >
<svg xmlns="http://www.w3.org/2000/svg" xmlns:xlink="http://www.w3.org/1999/xlink" version="1.1" viewBox="-10 0 1034 1024">
  <g transform="matrix(1 0 0 -1 0 820)">
   <path fill="currentColor"
d="M825 322q-15 -72 -40 -127q-37 -72 -77 -122q-55 75 -79 120q-21 39 -29 79q-9 -6 -17 -10q-12 -6 -32 -13q39 -64 45 -80q9 -18 30 -47q27 -40 55 -78q-42 -39 -116 -88q-93 -57 -175 -67q24 -22 42 -47q10 4 107 53q27 15 52 31q48 33 120 89q69 -64 143 -109l70 -39
q10 -6 22 -12q16 27 40 46q-63 12 -132 52q-69 43 -119 92q51 66 75 114q25 52 45 118q12 36 16 49q3 18 12 37q-48 -6 -71 -6h-113v218h197q-12 -54 -38 -123q21 -1 44 -5l6 22l28 101q3 12 6 21q1 3 3 10q1 6 5 15q-39 -6 -58 -6h-193v102q0 27 14 63h-57q4 -99 5 -104
v-61l-178 1q-10 3 -45 5l5 -96v-243q0 -117 -27 -190q-25 -66 -84 -136q-40 -43 -82 -68q27 -13 54 -29q81 90 122 163q33 60 44 117q9 55 13 188h342zM483 357v218h178v-218h-178zM92 716q1 -19 3 -36q1 -24 2 -126l-1 -673q-3 -21 -4 -34h48q-3 30 -5 60v768h196
q-27 -64 -60 -133q-33 -66 -65 -120q27 -22 44 -40q39 -39 61 -80q27 -46 28 -93q0 -69 -58 -94q-30 -10 -69 -11q-12 0 -29 4q12 -34 16 -53q55 9 85 19q93 36 93 132q0 72 -58 154q-21 30 -61 72q16 39 72 148q7 19 36 76q4 12 31 60q-28 -1 -57 -5l-205 1q-19 3 -43 4v0z
" />
  </g>

</svg>
