<?xml version="1.0" standalone="no"?>
<!DOCTYPE svg PUBLIC "-//W3C//DTD SVG 1.1//EN" "http://www.w3.org/Graphics/SVG/1.1/DTD/svg11.dtd" >
<svg xmlns="http://www.w3.org/2000/svg" xmlns:xlink="http://www.w3.org/1999/xlink" version="1.1" viewBox="-10 0 1010 1000">
   <path fill="currentColor"
d="M556 2q127 31 125 36q1 3 -9 8q-24 14 -39 36q-33 56 -44 85h199q114 0 154 -10v83q-23 -6 -100 -5h-44h-163v156h127q123 0 153 -10v86q-20 -5 -51 -6q-31 -2 -100 -2h-129v164h147q127 1 158 -13v89q-30 -8 -160 -8h-145q0 187 8 212h-97q7 -15 9 -53q0 -20 1 -54v-111
v-458q-35 76 -106 188q-34 -30 -79 -48q145 -177 185 -365zM95 38q27 8 137 8h44q121 0 155 -8q-51 165 -118 322q149 143 100 275q-28 73 -163 98q-2 -54 -46 -104q73 12 102 -8q44 -30 23 -101q-22 -71 -99 -153q57 -91 97 -254h-144v586q0 177 9 204h-97q5 -22 6 -66
q2 -43 2 -132v-463q0 -162 -8 -204z" />
</svg>
