<?xml version="1.0" standalone="no"?>
<!DOCTYPE svg PUBLIC "-//W3C//DTD SVG 1.1//EN" "http://www.w3.org/Graphics/SVG/1.1/DTD/svg11.dtd" >
<svg xmlns="http://www.w3.org/2000/svg" xmlns:xlink="http://www.w3.org/1999/xlink" version="1.1" viewBox="-10 0 1034 1024">
  <g transform="matrix(1 0 0 -1 0 820)">
   <path fill="currentColor"
d="M89 -96q-1 -15 -1 -30q-1 -12 -3 -25q-1 -1 -1 -5h49q-3 6 -4 31l-1 811h186l-69 -147q-25 -51 -53 -99q22 -18 38 -34q15 -15 31 -34q37 -48 56 -89q18 -39 19 -82q0 -63 -45 -87q-33 -15 -71 -15q-18 0 -45 5q12 -24 19 -54q85 9 127 37q52 33 53 108q0 85 -59 168
q-21 30 -77 86q30 57 60 120q42 93 67 139q4 10 10 19l-51 -5l-199 1q-15 3 -41 4q1 -30 5 -63v-760zM849 642h47q39 0 61 -5v47l-33 -4q-19 -1 -118 -2l-382 1q-12 1 -26 2q-3 0 -12 3v-47q39 4 61 5h363v-676q0 -15 -2 -30q-3 -18 -20 -24q-25 -9 -59 -9q-16 0 -53 7
q13 -22 21 -52q72 6 107 17q24 9 35 26q9 15 10 61v680zM447 204q0 -1 -5 -57q49 4 70 5l150 -1q12 0 40 -4q-4 19 -5 51l1 249q0 18 4 43l-96 -5l-120 1q-15 3 -44 4q1 -30 5 -60v-226zM485 188v261h173v-261h-173z" />
  </g>

</svg>
