<?xml version="1.0" standalone="no"?>
<!DOCTYPE svg PUBLIC "-//W3C//DTD SVG 1.1//EN" "http://www.w3.org/Graphics/SVG/1.1/DTD/svg11.dtd" >
<svg xmlns="http://www.w3.org/2000/svg" xmlns:xlink="http://www.w3.org/1999/xlink" version="1.1" viewBox="-10 0 1034 1024">
  <g transform="matrix(1 0 0 -1 0 820)">
   <path fill="currentColor"
d="M594 540l-1 -649q-3 -27 -4 -35h48q-3 30 -5 60v197l250 -1q15 0 37 -4v46q-19 -3 -23 -4l-264 -1v191l213 -1q15 0 36 -4v46l-63 -5h-186v164l306 -1q15 0 36 -4v46q-10 -3 -22 -4q-19 0 -40 -2h-372q6 15 47 92q10 18 18 33q1 6 11 20l11 14q6 6 14 15q-30 9 -58 24
q-9 -36 -38 -100q-54 -114 -137 -223q-39 -45 -72 -67q25 -12 51 -29l132 186h75zM104 709q1 -30 5 -63l-1 -762q-3 -21 -4 -34h48q-3 30 -5 60v758h184l-28 -77l-51 -116q-18 -31 -28 -56q19 -22 34 -43t31 -46q46 -81 47 -152q0 -64 -46 -81q-27 -7 -55 -8q-9 0 -27 3
q18 -39 22 -50q25 3 34 6q45 9 71 28q37 33 38 104q0 67 -39 146q-6 15 -63 102l71 160q6 19 50 119q-19 0 -40 -3l-206 1q-15 3 -42 4v0z" />
  </g>

</svg>
