<?xml version="1.0" standalone="no"?>
<!DOCTYPE svg PUBLIC "-//W3C//DTD SVG 1.1//EN" "http://www.w3.org/Graphics/SVG/1.1/DTD/svg11.dtd" >
<svg xmlns="http://www.w3.org/2000/svg" xmlns:xlink="http://www.w3.org/1999/xlink" version="1.1" viewBox="-10 0 1010 1000">
   <path fill="currentColor"
d="M764 10q90 2 103 12q0 2 -3 8q-17 35 -17 95v98q63 0 95 -8v89q-26 -8 -95 -8v496q1 48 -27 63q-26 16 -116 20q-1 -55 -41 -109q67 16 88 11q22 -3 21 -33v-450h-50q-71 0 -139 8v-87q2 0 7 1q54 7 132 7h50v-100q1 -77 -8 -113zM506 20q97 20 103 30q0 4 -9 14
q-16 17 -23 32q-10 21 -18 49q-5 17 -9 28v583q0 73 8 123h-86q1 -7 2 -23q6 -55 6 -104v-414q-30 65 -67 131q-25 -34 -62 -52q111 -131 155 -397zM407 62q-67 218 -107 311q47 51 71 118q24 70 14 124q-10 81 -145 110q-10 -51 -42 -92q94 7 106 -43q20 -105 -82 -211
q34 -58 84 -244h-119v627q0 81 7 121h-91q6 -36 6 -123v-581q0 -83 -6 -117q49 8 93 8h94q87 1 117 -8zM677 379q27 72 49 179l-77 20q-13 -95 -46 -179z" />
</svg>
