<?xml version="1.0" standalone="no"?>
<!DOCTYPE svg PUBLIC "-//W3C//DTD SVG 1.1//EN" "http://www.w3.org/Graphics/SVG/1.1/DTD/svg11.dtd" >
<svg xmlns="http://www.w3.org/2000/svg" xmlns:xlink="http://www.w3.org/1999/xlink" version="1.1" viewBox="-10 0 1034 1024">
  <g transform="matrix(1 0 0 -1 0 820)">
   <path fill="currentColor"
d="M626 -69h-218q-46 0 -65 5v-46q31 3 65 5l504 -1q9 0 31 -4v46q-19 -3 -23 -4l-256 -1v260l176 -1q15 0 36 -4v46q-9 -3 -28 -4h-394q-19 1 -28 4v-46q1 0 3 1q-3 0 9 1q27 3 54 3h134v-260zM883 358l-109 70l-68 42q-15 10 -30 19q28 31 53 63q24 31 54 78l44 78l-98 -5
l-275 1q-19 1 -28 4v-46q1 0 3 1q-3 0 9 1q27 3 54 3h266q-40 -69 -79 -115q-72 -81 -167 -147q-78 -51 -145 -66q30 -24 44 -40q72 39 116 69q22 15 49 35q30 22 70 56q34 -19 99 -60l29 -18q81 -57 103 -75q10 -10 20 -21q9 18 29 46zM102 -107q0 -21 -3 -50q0 -3 -2 -8
v-2h48q-3 24 -5 50v787h189q-9 -25 -20 -50q-10 -27 -32 -70q-16 -39 -35 -72q-16 -33 -41 -71q52 -42 83 -84q54 -72 55 -149q0 -37 -21 -57q-33 -27 -86 -28q-13 0 -46 4q9 -15 27 -55l43 8q54 12 85 37q36 33 37 92q0 75 -48 150q-27 40 -76 90q106 225 110 230
q18 42 30 66q-28 -1 -57 -5l-207 1q-19 3 -33 4q1 -30 5 -63v-755z" />
  </g>

</svg>
