<?xml version="1.0" standalone="no"?>
<!DOCTYPE svg PUBLIC "-//W3C//DTD SVG 1.1//EN" "http://www.w3.org/Graphics/SVG/1.1/DTD/svg11.dtd" >
<svg xmlns="http://www.w3.org/2000/svg" xmlns:xlink="http://www.w3.org/1999/xlink" version="1.1" viewBox="-10 0 1034 1024">
  <g transform="matrix(1 0 0 -1 0 820)">
   <path fill="currentColor"
d="M150 712q-7 0 -27 3q-9 0 -28 2q1 -28 5 -59l-3 -807q-1 -3 -1 -6q-1 -1 -1 -5h49l-4 30l-1 806h207q-40 -88 -79 -161q-34 -63 -66 -112q45 -39 68 -68q39 -48 59 -91q24 -55 25 -100q0 -84 -95 -85q-22 0 -59 6q9 -15 21 -53q48 0 78 9q93 24 93 124q0 61 -35 127
q-27 52 -105 136q9 16 16 34l93 178q25 52 34 62l21 35q-49 -4 -54 -5h-211zM630 372l-230 1q-18 3 -28 4v-46q3 0 5 1q16 3 56 4h197v-391l-149 -9v214q0 13 2 32q1 15 13 33h-59q0 -3 2 -9q0 -27 3 -56l-1 -212q-3 -12 -4 -43q21 0 35 3q28 3 376 27q0 -60 -3 -78
q0 -6 -2 -14h49q-3 15 -4 30l-1 290q0 34 3 38q1 13 12 27h-59q0 -4 5 -65v-193l-179 -12v388h216q40 0 61 -5v46q-30 -1 -61 -5h-216v181h168q43 0 61 -6v47q-30 -1 -61 -5h-168v111q0 12 2 31q1 15 11 33h-57l5 -101v-74l-182 1q-18 3 -28 4v-47q15 3 35 5l175 1v-181z
" />
  </g>

</svg>
