<?xml version="1.0" standalone="no"?>
<!DOCTYPE svg PUBLIC "-//W3C//DTD SVG 1.1//EN" "http://www.w3.org/Graphics/SVG/1.1/DTD/svg11.dtd" >
<svg xmlns="http://www.w3.org/2000/svg" xmlns:xlink="http://www.w3.org/1999/xlink" version="1.1" viewBox="-10 0 1010 1000">
   <path fill="currentColor"
d="M605 -8q92 6 115 18q1 3 -7 12q-23 31 -23 62v67h88q62 0 119 -8q11 -2 14 -2v92q-3 0 -12 -1q-52 -7 -115 -7h-94v131h133q68 0 119 -9q8 -1 10 -1v89q-3 0 -14 -2q-50 -8 -113 -8h-135v331h123v-170v-9q1 -50 -3 -65q98 0 101 10q1 3 -5 12q-15 25 -15 56v162
q0 73 7 127q1 10 1 12h-91q6 -15 5 -61h-271q-106 0 -129 6q8 -25 8 -115v-135q0 -53 -4 -80q99 8 101 16q0 2 -5 10q-19 28 -19 50v174h119v-331h-113q-72 0 -127 7q-8 1 -10 1v-85q2 0 9 1q53 7 130 7h111v-131h-71q-64 0 -116 7q-10 1 -13 1v-90q2 0 11 1q56 7 118 7h71
v-67q0 -36 -6 -77q-2 -12 -2 -15zM87 46q38 8 125 8h48q101 0 149 -10q-41 139 -127 312q106 123 107 228q16 137 -171 164q0 1 -5 -11q-25 -54 -40 -78v95q0 71 7 128q1 13 1 17h-94q0 -2 1 -10q7 -57 7 -133v-579q0 -94 -8 -131zM173 123v518q118 33 135 -31
q24 -102 -110 -241q53 -100 100 -246h-125z" />
</svg>
