<?xml version="1.0" standalone="no"?>
<!DOCTYPE svg PUBLIC "-//W3C//DTD SVG 1.1//EN" "http://www.w3.org/Graphics/SVG/1.1/DTD/svg11.dtd" >
<svg xmlns="http://www.w3.org/2000/svg" xmlns:xlink="http://www.w3.org/1999/xlink" version="1.1" viewBox="-10 0 1010 1000">
   <path fill="currentColor"
d="M411 36q-103 279 -109 314q0 3 15 23q76 97 80 177q-1 120 -147 149q-7 -52 -46 -93q110 16 117 -54q10 -66 -81 -170q-19 -21 -18 -24q1 -6 13 -32q26 -46 82 -214h-130v589q1 80 5 168h-85q8 -117 8 -168v-548q-1 -78 -4 -117q34 5 143 8h36q30 0 103 -6q12 -1 18 -2z
M522 115v102h260v-102h-260zM522 276v95h260v-95h-260zM865 44q-8 19 -8 71v252q0 49 8 72q-4 -4 -83 -4h-113q6 67 35 139q94 -71 125 -115q8 5 22 14q61 38 56 49q0 2 -6 3q-29 4 -62 29q-57 42 -101 77q77 95 218 135q-53 20 -95 84q-227 -142 -260 -415h-79v311
q72 -33 123 -75q0 59 8 85q-127 64 -199 125q-26 -54 -47 -79q33 -15 43 -65v-620q0 -46 -8 -73q29 8 82 8h258q59 -1 83 -8z" />
</svg>
