<?xml version="1.0" standalone="no"?>
<!DOCTYPE svg PUBLIC "-//W3C//DTD SVG 1.1//EN" "http://www.w3.org/Graphics/SVG/1.1/DTD/svg11.dtd" >
<svg xmlns="http://www.w3.org/2000/svg" xmlns:xlink="http://www.w3.org/1999/xlink" version="1.1" viewBox="-10 0 1034 1024">
  <g transform="matrix(1 0 0 -1 0 820)">
   <path fill="currentColor"
d="M99 688l4 -50l-1 -762q-1 -4 -1 -7q-1 -10 -3 -23h49l-4 30l-1 781h186q-24 -57 -62 -127q-36 -69 -69 -119q40 -34 71 -72q63 -82 64 -148q0 -45 -28 -69q-24 -19 -63 -20q-22 0 -48 4q12 -25 17 -50q43 4 70 11q21 6 38 17q48 30 49 106q0 72 -46 137q-15 25 -73 91
l17 36l42 77l45 94l38 73l-55 -6l-198 1q-19 3 -39 5q0 -4 1 -10zM679 165h164q36 0 62 -6v47q-39 -6 -84 -6h-142v159h199q39 0 61 -5v46q-39 -4 -61 -5h-210v157h154q37 0 60 -5v46q-30 -1 -60 -5h-154v102q0 12 3 28q1 18 10 36h-57q4 -12 5 -64v-102l-170 1q-24 3 -38 4
v-46q39 4 61 5h147v-157l-234 1q-24 3 -39 4v-46q30 4 39 5h245v-424q-66 39 -98 82q-42 54 -67 117q6 19 8 31q9 37 14 48q3 9 13 24q3 3 5 10q-30 4 -57 15q-13 -177 -121 -311q-40 -48 -89 -75q28 -10 54 -26q60 69 87 109q30 43 69 121q63 -111 130 -158q42 -30 114 -41
q78 -9 249 -10l26 63q-28 -9 -51 -13q-54 -7 -95 -8l-80 2q-36 1 -72 8v242z" />
  </g>

</svg>
