<?xml version="1.0" standalone="no"?>
<!DOCTYPE svg PUBLIC "-//W3C//DTD SVG 1.1//EN" "http://www.w3.org/Graphics/SVG/1.1/DTD/svg11.dtd" >
<svg xmlns="http://www.w3.org/2000/svg" xmlns:xlink="http://www.w3.org/1999/xlink" version="1.1" viewBox="-10 0 1010 1000">
   <path fill="currentColor"
d="M601 0q84 -3 99 18q0 4 -8 10q-13 10 -13 22v87h65q125 0 153 -8v88q-20 -8 -155 -8h-65v121h89q138 0 167 -8v85q-26 -8 -171 -8h-74v123q118 0 150 -1q44 -2 57 -7v84q-17 -4 -65 -5q-22 -1 -55 -1h-87v194q130 20 268 0q-44 48 -55 103q-390 -11 -431 -188
q-44 120 -111 182q-35 -28 -103 -37q175 -105 190 -383q93 17 112 31q1 4 -7 8q-18 10 -23 30q-6 21 -17 59q-8 26 -11 36q35 85 115 133v-361h-87q-122 0 -161 8v-85q17 5 55 6q18 1 43 2h63h75v-121h-51q-106 0 -149 8v-88q31 7 153 8h47q1 -80 -3 -127q-1 -12 1 -10z
M73 46q33 8 161 8q117 0 167 -6q5 -4 -127 306q167 216 55 317q-34 31 -125 48q-3 -50 -33 -100q76 8 101 -11q33 -33 9 -107q-25 -74 -91 -145l96 -231h-129v570q0 185 8 202h-96q10 -53 10 -198v-455q0 -89 -1 -132q-2 -47 -5 -66z" />
</svg>
