<?xml version="1.0" standalone="no"?>
<!DOCTYPE svg PUBLIC "-//W3C//DTD SVG 1.1//EN" "http://www.w3.org/Graphics/SVG/1.1/DTD/svg11.dtd" >
<svg xmlns="http://www.w3.org/2000/svg" xmlns:xlink="http://www.w3.org/1999/xlink" version="1.1" viewBox="-10 0 1010 1000">
   <path fill="currentColor"
d="M655 2q25 40 43 110l-75 25h169q72 -1 113 -8v84q-69 -8 -115 -8h-266q-103 2 -113 6v-82q37 7 111 8h89q-6 -58 -40 -113zM99 64q41 8 103 8h108q59 -1 99 -8q-53 125 -96 262l-15 45q117 136 103 251q-18 108 -161 126q-8 -61 -48 -107q123 29 136 -54q4 -84 -114 -200
q38 -92 84 -244h-119v631q1 75 8 117h-88q7 -47 8 -115v-613q-1 -62 -8 -99zM724 223q108 18 107 31q0 6 -11 15q-23 17 -40 41q-26 39 -50 69h83q85 -1 125 -8v90q-41 -8 -119 -10h-317q-115 4 -125 8v-88q43 7 123 8h165q39 -62 59 -156zM552 227q31 45 57 109l-79 24
q-18 -59 -54 -108zM440 520q43 7 110 8h196q66 0 113 -8q-8 44 -8 103v193q0 44 8 79h-87q0 -5 3 -23q5 -35 5 -56h-260q-1 29 6 65q2 11 2 14h-88q8 -38 8 -77v-197q-1 -63 -8 -101zM520 600v144h260v-144h-260z" />
</svg>
