<?xml version="1.0" standalone="no"?>
<!DOCTYPE svg PUBLIC "-//W3C//DTD SVG 1.1//EN" "http://www.w3.org/Graphics/SVG/1.1/DTD/svg11.dtd" >
<svg xmlns="http://www.w3.org/2000/svg" xmlns:xlink="http://www.w3.org/1999/xlink" version="1.1" viewBox="-10 0 1034 1024">
  <g transform="matrix(1 0 0 -1 0 820)">
   <path fill="currentColor"
d="M104 -113q-3 -54 -5 -61h49v7q-1 3 -5 54v766h187q-39 -82 -70 -140l-47 -79q-15 -25 -33 -47q51 -36 81 -74q61 -75 62 -151q0 -61 -32 -87q-33 -24 -75 -24q-10 0 -28 2q12 -19 23 -51q48 10 74 23q76 39 77 131q0 85 -62 169q-24 31 -66 70q12 25 95 171l36 69
q18 30 33 59q-30 -1 -59 -5l-198 1q-15 3 -43 4q6 -36 6 -60v-747zM263 -102q24 -15 44 -36l88 92q3 7 38 42q27 31 38 38q12 12 46 31q-33 24 -46 36q-42 -55 -80 -97q-45 -48 -73 -70q-24 -18 -55 -36zM284 396q28 -15 50 -38q91 75 149 144q55 69 106 162
q72 -93 176 -175q39 -27 71 -46q40 -22 101 -53q30 39 40 50q-81 4 -179 73q-123 82 -187 192q12 18 33 38q-16 3 -30 7q-12 3 -30 11q-10 -36 -27 -72q-15 -34 -49 -90q-22 -34 -57 -78q-40 -46 -61 -62q-60 -48 -106 -63zM601 223h-154q-19 0 -48 3q-7 0 -12 2v-46
q49 4 80 5h134v-257q0 -51 -55 -52q-18 0 -51 3q7 -27 11 -51q63 6 95 18q39 18 39 66v273h193q39 0 60 -5v46q-30 -1 -60 -5h-193v137h125q36 0 61 -5v47q-60 -6 -79 -6l-276 1q-12 1 -26 2q-3 0 -12 3v-47q30 4 35 5h133v-137zM918 -42q-105 108 -133 135l-23 20
q-27 -30 -37 -37q36 -21 75 -58q49 -48 69 -71q18 -21 45 -60q12 18 37 40q-16 16 -33 31v0z" />
  </g>

</svg>
