<?xml version="1.0" standalone="no"?>
<!DOCTYPE svg PUBLIC "-//W3C//DTD SVG 1.1//EN" "http://www.w3.org/Graphics/SVG/1.1/DTD/svg11.dtd" >
<svg xmlns="http://www.w3.org/2000/svg" xmlns:xlink="http://www.w3.org/1999/xlink" version="1.1" viewBox="-10 0 1010 1000">
   <path fill="currentColor"
d="M593 4q92 17 107 30q0 4 -15 15q-19 14 -16 21q78 165 287 236q-45 24 -69 75q-83 -41 -113 -67v55q-21 -6 -115 -6v106h55q131 1 151 -8v83q-21 -9 -149 -8h-57v258q1 51 -31 70q-28 20 -120 27q-7 -62 -44 -101q128 28 119 -34v-220h-45q-129 0 -143 8v-81q27 8 143 8
h45v-108q-79 0 -107 6v-49q-19 23 -83 79q-26 -28 -81 -49q185 -110 281 -346zM85 46q19 6 57 8q18 1 43 2h71q120 0 157 -8l-125 300q47 57 70 127q21 69 7 117q-17 63 -133 99q-2 -54 -45 -97q53 7 79 -10q37 -30 20 -103q-19 -73 -78 -125q87 -191 94 -233h-131v582
q0 86 2 122q1 36 6 52h-96q6 -19 8 -56q2 -36 2 -118v-470q0 -89 -1 -122q-2 -42 -7 -67zM631 115q-65 102 -133 179q21 8 85 8h78q47 0 63 -1q20 -1 32 -5q-64 -61 -125 -181zM448 580q84 35 88 45q1 3 -7 7q-19 8 -31 25q-13 18 -105 143q-14 20 -22 30q-37 -30 -85 -38
q93 -66 162 -212zM758 596q62 48 153 166l-74 54q-65 -106 -149 -181z" />
</svg>
