<?xml version="1.0" standalone="no"?>
<!DOCTYPE svg PUBLIC "-//W3C//DTD SVG 1.1//EN" "http://www.w3.org/Graphics/SVG/1.1/DTD/svg11.dtd" >
<svg xmlns="http://www.w3.org/2000/svg" xmlns:xlink="http://www.w3.org/1999/xlink" version="1.1" viewBox="-10 0 1010 1000">
   <path fill="currentColor"
d="M571 2q93 13 110 26q0 2 -6 7q-13 10 -14 21q88 175 299 226q-35 40 -53 95q-6 -4 -23 -13q-62 -32 -92 -56v77q-30 -7 -125 -6h-60q-105 0 -137 8v-73q-42 54 -95 103q-17 -28 -79 -46q202 -135 275 -369zM87 58q15 5 50 6q16 1 39 2h62q81 0 105 -1q33 -2 54 -7
l-117 311q103 131 85 246q-20 87 -139 112q-6 -52 -41 -100q69 15 95 -17q24 -33 2 -105q-23 -69 -78 -130q36 -62 78 -244h-113v530q0 181 7 210q1 5 1 8h-92q0 -1 1 -2q9 -10 9 -218v-403q0 -103 -1 -137q-2 -43 -7 -61zM619 92q-75 140 -143 214q21 8 133 8h58
q89 0 117 -10q-117 -100 -165 -212zM748 409q82 23 105 44q0 6 -11 16q-14 13 -19 25q-72 194 -107 274h20q85 0 111 -1q34 -2 58 -7v86q-44 -8 -181 -8h-190q-162 -1 -199 8v-86q23 6 65 8q40 2 134 2h115q85 -216 99 -361zM619 423q33 101 48 230l-84 14q-8 -137 -37 -230
zM478 451q36 91 52 230l-82 16q-2 -119 -43 -230z" />
</svg>
