<?xml version="1.0" standalone="no"?>
<!DOCTYPE svg PUBLIC "-//W3C//DTD SVG 1.1//EN" "http://www.w3.org/Graphics/SVG/1.1/DTD/svg11.dtd" >
<svg xmlns="http://www.w3.org/2000/svg" xmlns:xlink="http://www.w3.org/1999/xlink" version="1.1" viewBox="-10 0 1010 1000">
   <path fill="currentColor"
d="M492 -2q96 29 113 42q2 3 -12 10q-24 13 -31 24q-35 49 -42 63h214q88 0 125 -1q43 -2 58 -5q-7 97 -18 395q-8 224 -14 274q-13 89 -167 97q-10 -64 -47 -105q76 19 119 -4q32 40 39 -585h-347q-66 86 -93 117q-28 -23 -70 -36q128 -107 173 -286zM93 54q25 8 141 8
q66 0 97 -1q34 -2 50 -5q15 -21 -59 197q-27 83 -42 128q52 54 72 141q19 85 -9 139q-31 60 -131 68q-3 -59 -25 -94q44 8 69 -4q38 -24 22 -102q-19 -77 -76 -134q93 -273 80 -270h-109v508q0 220 8 250h-90q10 -30 10 -240v-377q0 -168 -8 -212zM482 235q83 11 91 23
q1 4 -12 12q-25 15 -33 32h85q122 -1 151 -8v71q-9 -3 -44 -4q-17 -1 -42 -1h-67v89h42q63 0 88 -1q29 -1 43 -5v71q-21 -7 -133 -6h-38v183h70v-70q0 -29 -3 -50q-1 -6 1 -5q70 1 83 12q1 3 -5 13q-9 13 -9 19v49q-1 79 6 99q-27 -6 -119 -6h-119q-94 0 -123 8
q8 -19 8 -109q0 -40 -2 -78q-1 -14 0 -13q77 3 83 12q1 3 -6 13q-10 15 -10 21v87h78v-183h-52q-90 0 -123 8v-75q21 7 127 8h46v-91h-46q-27 47 -40 63q-28 -15 -73 -22q80 -83 97 -166z" />
</svg>
