<?xml version="1.0" standalone="no"?>
<!DOCTYPE svg PUBLIC "-//W3C//DTD SVG 1.1//EN" "http://www.w3.org/Graphics/SVG/1.1/DTD/svg11.dtd" >
<svg xmlns="http://www.w3.org/2000/svg" xmlns:xlink="http://www.w3.org/1999/xlink" version="1.1" viewBox="-10 0 1034 1024">
  <g transform="matrix(1 0 0 -1 0 820)">
   <path fill="currentColor"
d="M120 -72q0 -27 -2 -49q-1 -1 -1 -3q-1 -1 -1 -3q-1 -1 -1 -4h49q-3 4 -4 12q0 25 -3 47v762h192q-16 -42 -32 -77q-16 -36 -45 -88q-22 -45 -47 -77q42 -42 76 -95q45 -70 46 -139q0 -75 -59 -99q-33 -9 -60 -9q-9 0 -25 1q12 -16 22 -50q40 7 69 19q52 24 69 56
q19 33 20 86q0 69 -48 149q-22 39 -59 85q3 9 47 96q63 135 76 156q6 12 16 27q-30 -1 -61 -5l-202 1q-15 3 -37 4q1 -30 5 -61v-742zM465 503q-3 -4 10 14q21 27 34 49q15 22 39 66h262q-39 -93 -115 -197q27 0 52 -7q7 13 20 42q30 60 108 203q-3 0 -9 -1q-18 -1 -16 -2
q-21 -3 -61 -3h-223q36 73 67 106q-33 7 -56 18q-15 -43 -30 -77q-51 -108 -103 -177q-36 -51 -80 -76q33 -12 52 -26q16 21 22 30q13 19 27 38zM425 -64q-1 -18 -2 -48q0 -4 -3 -10h47q-3 6 -4 30l-1 52h401q0 -60 -3 -70q-1 -3 -3 -8h48q-6 57 -6 83l1 362q1 25 5 51
q-58 -4 -87 -5q-108 0 -129 2q-9 1 -13 3v-46q18 4 59 5h128v-152l-119 1q-18 3 -38 3q-3 1 -4 1v-46q15 6 58 6h103v-156h-401v156l113 -1q15 0 34 -4l2 -1v46q-7 0 -15 -3q-27 -1 -134 -2v131q78 31 97 37q15 3 31 9l40 11q-21 22 -34 44q-30 -18 -96 -49q-31 -12 -80 -23
q4 -49 5 -64v-345z" />
  </g>

</svg>
