<?xml version="1.0" standalone="no"?>
<!DOCTYPE svg PUBLIC "-//W3C//DTD SVG 1.1//EN" "http://www.w3.org/Graphics/SVG/1.1/DTD/svg11.dtd" >
<svg xmlns="http://www.w3.org/2000/svg" xmlns:xlink="http://www.w3.org/1999/xlink" version="1.1" viewBox="-10 0 1010 1000">
   <path fill="currentColor"
d="M863 16q3 6 10 17q36 59 46 82q-7 2 -36 1q-38 -2 -66 -1h-9q-59 2 -133 8v84h154q60 0 75 -1q21 -1 40 -5v79q-31 -7 -97 -8v147q77 -3 93 -8v77q-33 -5 -93 -5v146q53 -1 95 -6v80q-36 -8 -129 -8h-138v91h101q106 0 133 -6v82q-53 -8 -135 -8h-252q-100 0 -142 7
q-7 1 -11 2v-85q37 6 155 8h83v-91h-159q-77 0 -95 6v-76q25 5 91 6v-148q-49 0 -73 5v-77q21 3 73 6v-147q-19 0 -62 4q-19 1 -27 2v-73q33 4 109 4h143v-80q-32 0 -128 6q-40 3 -60 4q-7 -50 -40 -85q38 9 107 11t151 -4q178 -14 226 -43zM75 34q48 5 115 8h66
q44 0 101 -4q14 -1 22 -2q-48 177 -105 320q59 80 76 130q19 53 7 106q-21 96 -141 109q-7 -34 -39 -91q52 5 71 -5q21 -11 26 -45q15 -77 -78 -202q47 -98 86 -252h-117v617q1 122 8 168h-96q0 -2 1 -8q7 -60 7 -154v-508q-4 -140 -10 -187zM512 270v149h95v-149h-95z
M675 270v149h105v-149h-105zM675 483v148h105v-148h-105zM512 483v148h95v-148h-95z" />
</svg>
