<?xml version="1.0" standalone="no"?>
<!DOCTYPE svg PUBLIC "-//W3C//DTD SVG 1.1//EN" "http://www.w3.org/Graphics/SVG/1.1/DTD/svg11.dtd" >
<svg xmlns="http://www.w3.org/2000/svg" xmlns:xlink="http://www.w3.org/1999/xlink" version="1.1" viewBox="-10 0 1034 1024">
  <g transform="matrix(1 0 0 -1 0 820)">
   <path fill="currentColor"
d="M105 681q3 -21 3 -30l-3 -792q-1 -1 -2 -10h49l-4 30l-1 791h178l-82 -162q-22 -42 -50 -89q54 -60 76 -95q48 -67 48 -136q0 -51 -28 -71q-27 -16 -61 -17q-18 0 -46 3q12 -15 24 -52q40 4 72 15q28 9 48 32q27 31 28 91q0 69 -49 147q-12 18 -27 37t-39 46q9 19 20 38
l107 209q13 24 25 45q-30 -1 -62 -5l-184 1q-3 0 -42 4q0 -15 2 -30zM878 587l-4 -567q-1 -72 -24 -90q-21 -18 -85 -19q-27 0 -68 5q13 -22 22 -53q60 6 97 13q31 7 51 18q42 22 44 126l4 546l3 31l3 31q-27 -1 -55 -5h-384q24 45 33 63q19 39 42 60q-28 9 -55 24
q-30 -112 -119 -221q-39 -42 -75 -66q28 -10 49 -28l70 86q18 22 34 46h417zM586 289l-177 1q-12 1 -26 2q-3 0 -12 3v-47q39 4 61 5h154v-199l-120 -6v78q0 18 14 63h-59q0 -6 3 -12l3 -99l-6 -73l34 4q3 1 29 5l252 13q-3 -24 -3 -44q0 -4 -3 -11h51q-3 12 -4 20
q-1 25 -2 98q0 48 2 54q3 16 13 48h-60q6 -60 6 -94v-36l-112 -6v197h147q40 0 61 -5v47q-60 -6 -81 -6h-127v130h82q39 0 61 -5v47q-4 -1 -27 -4q-18 -1 -34 -2h-184q24 46 50 71q-30 12 -50 24q-15 -42 -47 -102q-46 -81 -94 -109q27 -9 36 -14q6 -3 15 -9q10 21 26 40
q12 19 27 38q9 12 18 25h83v-130z" />
  </g>

</svg>
