<?xml version="1.0" standalone="no"?>
<!DOCTYPE svg PUBLIC "-//W3C//DTD SVG 1.1//EN" "http://www.w3.org/Graphics/SVG/1.1/DTD/svg11.dtd" >
<svg xmlns="http://www.w3.org/2000/svg" xmlns:xlink="http://www.w3.org/1999/xlink" version="1.1" viewBox="-10 0 1034 1024">
  <g transform="matrix(1 0 0 -1 0 820)">
   <path fill="currentColor"
d="M705 96h-276q-45 0 -66 5v-47q6 3 13 3q27 3 53 3h276l-2 -184q0 -34 -3 -41l-1 -2h49q-3 24 -5 50v177l191 -1q18 -1 37 -5v47l-95 -5h-133v73q0 30 14 63h-58l6 -77v-59zM572 262q-28 -45 -71 -83q-31 -27 -80 -40q24 -18 45 -39q27 18 63 51q49 49 87 111l232 -1
l43 -4q-4 48 -5 96l1 266l4 43q-49 -4 -55 -5h-238q31 57 42 68q12 15 37 27q-27 12 -54 34q-13 -31 -33 -66q-19 -36 -40 -63q-69 0 -93 2q-6 3 -36 3q1 -30 5 -62l-1 -305q-1 -1 -2 -12q0 -13 -2 -26q49 4 73 5h78zM630 439q-10 -76 -39 -141h-128v141h167zM463 475v146
h177q0 -48 -2 -82q0 -30 -4 -64h-171zM635 298q15 45 24 79q6 30 12 62h177v-141h-213zM673 475q0 33 7 146h168v-146h-175zM87 692l4 -49l-1 -779q-3 -21 -4 -35h48q-3 24 -5 50v782h187q-30 -73 -65 -148q-39 -81 -60 -111q12 -9 23 -18q9 -9 18 -16q15 -15 31 -32
q57 -67 58 -144q0 -33 -13 -63q-10 -21 -31 -32q-27 -13 -64 -14q-9 0 -37 3q13 -25 20 -51l37 5q51 12 83 36q45 40 45 119q0 66 -41 128q-25 40 -77 91l39 82q66 136 76 161q12 19 26 45l-58 -6l-196 1q-9 1 -44 5q0 -4 1 -10v0z" />
  </g>

</svg>
