<?xml version="1.0" standalone="no"?>
<!DOCTYPE svg PUBLIC "-//W3C//DTD SVG 1.1//EN" "http://www.w3.org/Graphics/SVG/1.1/DTD/svg11.dtd" >
<svg xmlns="http://www.w3.org/2000/svg" xmlns:xlink="http://www.w3.org/1999/xlink" version="1.1" viewBox="-10 0 1010 1000">
   <path fill="currentColor"
d="M518 -15q86 20 105 39q0 3 -10 9q-28 18 -46 45h217q53 0 101 -8q-106 159 -163 204q161 46 254 38q-36 37 -41 91q-158 -28 -278 -87q-102 44 -294 95q-10 -39 -57 -75q125 -2 289 -66q-39 -32 -85 -91l-72 103q-57 -25 -81 -28q133 -138 161 -269zM73 40q44 8 98 8h115
q54 0 93 -8q-14 44 -30 97q-19 71 -75 226q193 296 -74 342q3 -46 -39 -101q102 20 115 -46q9 -65 -78 -189q50 -133 78 -257h-119v658q1 87 8 145h-92q8 -57 8 -145v-635q0 -53 -8 -95zM752 141h-189q33 59 98 97q35 -21 91 -97zM476 391q65 9 89 8h173q88 -3 99 -8v76
q-35 -7 -91 -8h-58v89h100q63 -1 105 -8v77q-37 -7 -103 -7h-102v67h70q94 -4 105 -8v75q-36 -7 -103 -7h-72v73h96q134 -6 149 -10v81q-49 -7 -145 -8h-328q-86 1 -133 8v-81q43 8 131 10h155v-73h-79q-60 0 -97 7v-75q62 8 97 8h79v-67h-155l-41 63q-28 -22 -74 -20
q77 -74 99 -176q78 16 86 27q0 2 -5 5q-17 12 -33 39h123v-89h-46q-53 0 -91 8v-76z" />
</svg>
