<?xml version="1.0" standalone="no"?>
<!DOCTYPE svg PUBLIC "-//W3C//DTD SVG 1.1//EN" "http://www.w3.org/Graphics/SVG/1.1/DTD/svg11.dtd" >
<svg xmlns="http://www.w3.org/2000/svg" xmlns:xlink="http://www.w3.org/1999/xlink" version="1.1" viewBox="-10 0 1010 1000">
   <path fill="currentColor"
d="M421 30q40 3 158 6h139q89 0 151 -6q-6 54 -6 145v101q0 109 6 145q-43 -7 -141 -6h-51v70h73q109 0 165 -6q-6 46 -6 136v173q3 59 -25 75q-27 20 -122 26q4 -36 -30 -93q66 14 84 5q21 -7 21 -45v-212h-160v121q4 0 20 -1q21 -2 37 -3q-9 -30 -28 -61l58 -18
q28 58 51 143l-65 17q-1 -5 -2 -14q-1 -11 -2 -23q-179 18 -234 35l-18 -69q67 -1 115 -4v-125h-143v191q-1 90 6 140h-83q6 -25 6 -144v-121q-1 -79 -6 -131q52 5 147 6h73v-68h-51q-90 0 -137 6q5 -34 6 -141v-99q0 -110 -6 -151zM99 30q54 6 131 6h12q95 0 167 -6
q-56 162 -115 300q56 108 66 152q13 50 -1 106q-15 68 -131 87q-1 -53 -41 -97q89 22 107 -42q4 -83 -76 -200q43 -80 80 -226h-117v585q0 134 7 188h-91q7 -45 8 -186v-556q0 -31 -6 -111zM609 100h-111v95h111v-95zM677 100v95h111v-95h-111zM609 258h-111v94h111v-94z
M677 258v94h111v-94h-111z" />
</svg>
