<?xml version="1.0" standalone="no"?>
<!DOCTYPE svg PUBLIC "-//W3C//DTD SVG 1.1//EN" "http://www.w3.org/Graphics/SVG/1.1/DTD/svg11.dtd" >
<svg xmlns="http://www.w3.org/2000/svg" xmlns:xlink="http://www.w3.org/1999/xlink" version="1.1" viewBox="-10 0 1010 1000">
   <path fill="currentColor"
d="M83 22q42 6 104 6h111q61 1 105 -6q-21 58 -50 140q-56 152 -65 190q57 79 75 124q20 47 16 94q-4 59 -46 93q-39 34 -101 40q-3 -55 -40 -95q64 7 86 -10q28 -16 22 -64q-4 -67 -94 -194q24 -54 47 -121q24 -66 45 -125h-127v623q0 78 6 137q1 14 2 23h-94q4 -27 5 -60
q1 -15 1 -37v-61v-594q1 -54 -8 -103zM415 22q47 6 121 6h230q75 -1 137 -8q-7 51 -6 113v165q-1 63 6 107q-49 -3 -96 -2h-31h-228h-20q-80 -1 -113 4q7 -37 6 -123v-149q0 -67 -6 -113zM619 92h-127v97h127v-97zM690 92v97h135v-97h-135zM492 244v96h127v-96h-127z
M690 244v96h135v-96h-135zM401 463q47 6 115 6h321q68 1 109 -6v79q-32 -6 -105 -6h-158q14 76 51 129q57 -47 97 -105q14 9 41 22q26 13 43 22q-56 20 -147 99q72 67 212 81q-51 41 -71 95q-98 -34 -173 -103q-86 -92 -113 -240h-93v220q6 -4 17 -12q42 -28 74 -55
q-5 39 18 75q-177 126 -185 139q-11 -46 -45 -69q2 -2 7 -4q40 -23 36 -42v-254q-23 -1 -51 6v-77z" />
</svg>
