<?xml version="1.0" standalone="no"?>
<!DOCTYPE svg PUBLIC "-//W3C//DTD SVG 1.1//EN" "http://www.w3.org/Graphics/SVG/1.1/DTD/svg11.dtd" >
<svg xmlns="http://www.w3.org/2000/svg" xmlns:xlink="http://www.w3.org/1999/xlink" version="1.1" viewBox="-10 0 1034 1024">
  <g transform="matrix(1 0 0 -1 0 820)">
   <path fill="currentColor"
d="M648 -89l-241 1l-18 2q-3 0 -12 2v-47l39 5l483 1q19 0 51 -3q7 0 12 -3v47q-9 -3 -23 -3q-18 0 -40 -2h-213v142h128q18 0 51 -3q7 0 12 -3v47q-6 0 -12 -3l-179 -2v108h172q18 0 51 -3q6 0 12 -3v47q-19 -3 -23 -4h-447q-9 1 -15 2q-3 0 -12 2v-47q12 6 52 6h172v-108
h-122q-45 0 -65 5v-47q1 0 38 5l149 1v-142zM452 655q1 -30 5 -62l-1 -244q-3 -12 -4 -41q30 3 62 5l338 -1q13 0 42 -4q-3 27 -5 56l1 249l4 42q-28 -1 -58 -5h-223q33 78 62 99q-34 10 -57 22q-6 -27 -19 -59q-12 -33 -27 -62q-60 0 -86 2q-6 3 -34 3zM851 469v-120h-357
v120h357zM494 505v109h357v-109h-357zM106 703l4 -52l-1 -783q-1 -10 -2 -25q0 -3 -2 -8v-2h48q-3 24 -5 50v788h176q-9 -39 -43 -128q-28 -73 -56 -127q34 -33 62 -71q51 -76 52 -139q0 -54 -33 -75q-27 -18 -68 -18q-12 0 -40 3q12 -24 20 -53q51 9 82 20q78 27 78 113
q0 66 -38 138q-24 36 -66 90l113 287q-31 -1 -64 -5l-181 1q-15 3 -37 4q0 -3 1 -8v0z" />
  </g>

</svg>
