<?xml version="1.0" standalone="no"?>
<!DOCTYPE svg PUBLIC "-//W3C//DTD SVG 1.1//EN" "http://www.w3.org/Graphics/SVG/1.1/DTD/svg11.dtd" >
<svg xmlns="http://www.w3.org/2000/svg" xmlns:xlink="http://www.w3.org/1999/xlink" version="1.1" viewBox="-10 0 1010 1000">
   <path fill="currentColor"
d="M591 -10q94 0 101 8q0 3 -6 10q-23 30 -41 76h61q119 0 183 -6q-9 67 -10 131v91q0 48 8 131q-56 -7 -163 -8h-133q-58 0 -93 1q-41 2 -89 7q-1 -11 1 -39q5 -57 5 -116v-55q0 -90 -4 -145q56 7 131 8h35q13 -48 14 -94zM81 30q39 5 131 6h34q91 -1 147 -6
q-53 183 -107 339q113 154 79 266q-18 68 -147 88q-2 -43 -37 -102q97 31 111 -29q13 -88 -80 -217q61 -167 82 -267h-131v589q0 171 8 194h-94q10 -44 10 -190v-528q-1 -89 -6 -143zM494 151v72h306v-72h-306zM800 282h-306v74h306v-74zM403 473q43 8 133 10h232
q70 0 157 -10v83q-39 -6 -161 -6h-81v81h59q87 0 147 -8v82q-41 -7 -143 -6h-63v99h93q82 0 180 -10v95q-59 -9 -180 -10h-296q-116 0 -157 8v-91q56 8 151 8h127v-99h-59q-93 1 -133 8v-82q49 5 133 6h59v-81h-63q-88 0 -135 8v-85z" />
</svg>
