<?xml version="1.0" standalone="no"?>
<!DOCTYPE svg PUBLIC "-//W3C//DTD SVG 1.1//EN" "http://www.w3.org/Graphics/SVG/1.1/DTD/svg11.dtd" >
<svg xmlns="http://www.w3.org/2000/svg" xmlns:xlink="http://www.w3.org/1999/xlink" version="1.1" viewBox="-10 0 1034 1024">
  <g transform="matrix(1 0 0 -1 0 820)">
   <path fill="currentColor"
d="M110 -70q-6 -49 -5 -58h48v8q-3 7 -4 36l-1 753h153q-51 -147 -115 -247q33 -27 57 -54q36 -39 54 -68q24 -42 24 -86q0 -54 -33 -74q-33 -19 -70 -20q-18 0 -38 4q15 -24 23 -49q51 10 75 20q79 30 80 116q0 46 -27 99q-15 30 -36 54q-24 30 -62 67q48 97 71 152
q37 87 50 122q0 1 1 3q-24 -1 -50 -5q-147 0 -168 2q-6 3 -32 3q1 -16 2 -26q3 -18 3 -27v-725zM435 -58l-97 4q-3 0 -6 1v-44q39 4 60 5l539 -1q15 0 27 -4v44q-43 -4 -76 -5h-30l1 278l4 42q-55 -4 -79 -5l-307 1q-15 3 -41 4l5 -91v-229zM471 -58v280h86v-280h-86z
M594 -58v280h91v-280h-91zM722 -58v280h92v-280h-92zM347 285q24 -13 45 -31l59 61q57 63 90 97q15 18 50 37q-27 16 -47 36q-16 -28 -39 -57q-24 -30 -71 -77q-30 -30 -48 -44q-15 -10 -39 -22zM657 549l-264 1q-12 0 -29 4v-45q16 4 61 5h429q40 0 60 -5v45q-43 -4 -70 -5
h-142q15 28 59 93q27 36 41 57q13 16 33 32q-21 10 -52 32q-16 -54 -80 -149q-24 -31 -46 -65zM438 718q73 -63 119 -146q15 16 35 29l-44 55l-75 88q-15 -12 -35 -26zM814 392l-55 40q-30 21 -62 46q-13 -18 -31 -37q40 -24 111 -71q19 -13 84 -65q15 -15 35 -38
q18 25 33 39z" />
  </g>

</svg>
