<?xml version="1.0" standalone="no"?>
<!DOCTYPE svg PUBLIC "-//W3C//DTD SVG 1.1//EN" "http://www.w3.org/Graphics/SVG/1.1/DTD/svg11.dtd" >
<svg xmlns="http://www.w3.org/2000/svg" xmlns:xlink="http://www.w3.org/1999/xlink" version="1.1" viewBox="-10 0 1010 1000">
   <path fill="currentColor"
d="M730 10q110 29 107 48q-1 5 -11 10q-31 13 -58 51q-31 44 -50 82h92q70 -1 105 -8v83q-36 -7 -103 -8h-344q-65 1 -103 8v-83q38 8 101 8h181q28 -39 83 -191zM534 22q41 79 69 129l-79 28q-18 -53 -66 -131zM75 36q34 8 88 8h125q56 0 95 -8q-74 191 -88 233
q-15 44 -27 63q99 147 83 247q-18 100 -143 118q-8 -55 -41 -101q98 29 111 -57q4 -84 -90 -199q27 -41 79 -192q9 -26 13 -36h-121v625q1 88 8 144h-92q7 -53 8 -143v-613q0 -51 -8 -89zM512 284q89 21 87 38q0 5 -12 10q-30 13 -53 37q-10 10 -42 40q-46 43 -63 60
q-32 -29 -78 -40q109 -54 161 -145zM712 284q89 57 179 131l-62 56q-91 -90 -178 -143zM379 481q33 7 87 7h310q59 0 89 -7q-7 35 -8 91v206q2 -1 32 -3q52 -3 57 -5v84q-33 -7 -87 -8h-472q-60 1 -99 8v-84q2 0 27 3q69 6 72 5v-216q0 -44 -8 -81zM587 556v222h66v-222h-66
zM454 556v222h66v-222h-66zM720 556v222h70v-222h-70z" />
</svg>
