<?xml version="1.0" standalone="no"?>
<!DOCTYPE svg PUBLIC "-//W3C//DTD SVG 1.1//EN" "http://www.w3.org/Graphics/SVG/1.1/DTD/svg11.dtd" >
<svg xmlns="http://www.w3.org/2000/svg" xmlns:xlink="http://www.w3.org/1999/xlink" version="1.1" viewBox="-10 0 1010 1000">
   <path fill="currentColor"
d="M601 0q89 4 101 16q0 2 -4 8q-14 24 -17 50v115q-1 33 7 75h-87q8 -31 8 -75v-123q0 -38 -8 -66zM85 24q38 8 90 8h142q50 -1 84 -8l-119 292q111 135 95 236q-19 96 -161 117q-4 -44 -35 -95q105 20 116 -58q4 -80 -95 -188q57 -141 74 -194q10 -29 14 -38h-125v654
q6 122 10 131h-90q7 -52 8 -133v-640q0 -45 -8 -84zM800 44q74 61 144 145l-71 51q-57 -83 -135 -150zM476 48q88 20 91 34q0 6 -8 11q-21 14 -41 48q-39 62 -81 117q-32 -24 -80 -29q91 -74 119 -181zM893 274q-8 41 -8 91v161q1 61 8 91q-48 -8 -97 -9h-113v196
q2 47 -23 62q-21 16 -112 31q-6 -51 -34 -93q102 27 97 -34v-162h-103q-45 0 -99 7q8 -38 8 -91v-164q-1 -53 -8 -86q38 8 91 8h300q60 -1 93 -8zM488 346v67h325v-67h-325zM488 477v67h325v-67h-325zM470 647q42 15 84 40q-42 26 -187 167q-35 -31 -83 -44
q114 -54 186 -163zM796 653q81 60 150 149l-73 46q-64 -98 -141 -157z" />
</svg>
