<?xml version="1.0" standalone="no"?>
<!DOCTYPE svg PUBLIC "-//W3C//DTD SVG 1.1//EN" "http://www.w3.org/Graphics/SVG/1.1/DTD/svg11.dtd" >
<svg xmlns="http://www.w3.org/2000/svg" xmlns:xlink="http://www.w3.org/1999/xlink" version="1.1" viewBox="-10 0 1010 1000">
   <path fill="currentColor"
d="M663 -13q26 61 39 99h86q71 -1 119 -4v73q-72 -5 -117 -6h-60q81 23 82 36q-1 5 -13 13q-27 16 -47 40h69q75 -1 119 -3v71q-44 -4 -123 -4h-335q-76 1 -127 6v-75q40 4 129 5h30q-6 -19 -28 -61l76 -26q16 27 31 64l-61 23h149q29 -53 37 -89h-182q-91 0 -133 4v-73
q39 0 139 6h81q-2 -3 -5 -9q-18 -36 -49 -77zM490 417v58h298v-58h-298zM490 526v58h298v-58h-298zM85 50q39 6 123 6h54q74 1 129 -6q-30 86 -65 187q-29 81 -44 125q84 124 81 212q-5 105 -149 135q-11 -58 -39 -92q102 12 105 -67q-1 -82 -78 -179q33 -76 88 -252h-123
v669q0 82 4 107h-88q9 -37 8 -105v-637q1 -70 -6 -103zM415 354l89 4h272l93 -4l-6 71v151l6 73l-81 -6h-111v72h178q44 1 82 -8v77q-31 -9 -82 -8h-178v52q0 56 4 83h-92q6 -39 6 -81v-54h-147q-63 1 -109 10v-79q41 7 107 8h151v-72h-87l-95 6l6 -71v-147z" />
</svg>
