<?xml version="1.0" standalone="no"?>
<!DOCTYPE svg PUBLIC "-//W3C//DTD SVG 1.1//EN" "http://www.w3.org/Graphics/SVG/1.1/DTD/svg11.dtd" >
<svg xmlns="http://www.w3.org/2000/svg" xmlns:xlink="http://www.w3.org/1999/xlink" version="1.1" viewBox="-10 0 1034 1024">
  <g transform="matrix(1 0 0 -1 0 820)">
   <path fill="currentColor"
d="M357 351q-12 0 -49 3q-7 0 -12 2v-49q15 4 29 5l60 1v-312q-57 -15 -100 -57l-46 -45q21 -15 38 -39q18 34 39 59q33 39 66 39q21 0 45 -14q64 -34 95 -49q36 -12 67 -18q51 -9 143 -9l66 1q90 4 154 5q6 25 21 61q-27 -7 -49 -13q-42 -7 -94 -13q-52 -3 -107 -4
q-93 0 -144 12t-102 44q-37 21 -40 24q-7 4 -14 7l1 318l5 46q-25 -1 -52 -5h-20zM304 630q58 -48 92 -146q9 10 20 19q6 3 18 12q-30 61 -89 145q-24 -19 -41 -30zM663 568q-51 -58 -118 -102q-55 -36 -115 -48q39 -31 47 -39l76 46q21 12 47 32q30 -28 54 -61
q-51 -51 -107 -93q-57 -37 -106 -46q28 -24 43 -42q10 9 23 16q58 39 98 70q36 28 73 67q19 -37 29 -63q-51 -67 -120 -126q-72 -55 -129 -69q9 -9 27 -21q9 -9 16 -18q36 21 85 59q43 33 71 60q27 27 62 72q4 -45 5 -90q0 -102 -36 -132q-18 -13 -58 -14q-24 0 -59 6
q13 -27 20 -54q42 3 75 10q54 15 77 63q18 39 18 116q0 37 -6 104l68 -59q24 -21 41 -39q24 -24 50 -62q13 25 31 47q-39 36 -77 68l-111 89l85 82q21 16 67 43q-25 21 -47 47q-21 -31 -50 -65q-22 -27 -39 -42q-12 -13 -32 -30q-6 -6 -8 -7q-27 58 -75 111l-26 26
q24 22 40 41q16 16 42 47h162q39 0 60 -6v50q-4 -1 -27 -4q-18 -1 -33 -2h-113q45 78 61 97q15 22 46 47q-3 3 -8 4q-4 1 -10 5q-12 7 -23 15q-6 3 -17 11q-15 -46 -24 -65l-70 -114l-232 1l-31 5v-50q21 6 61 6h147zM505 744q39 -27 72 -59q25 -27 46 -63q15 18 37 32
q-22 28 -45 53l-74 71q-18 -18 -36 -34zM144 717q-21 1 -55 6q1 -30 5 -63l-1 -776q-1 -7 -2 -34q-1 -1 -2 -13h49v8q0 3 -2 11l-3 95v729h133q-3 -13 -17 -56l-31 -84l-42 -102q48 -64 61 -86q31 -55 32 -114q0 -48 -26 -80q-12 -16 -36 -24q-21 -6 -45 -6h-14
q19 -30 28 -55q21 6 35 12q39 18 60 45q31 39 32 107q0 81 -47 154q-6 10 -37 53q21 54 33 84l24 69q37 112 43 126q-13 -1 -25 -3q-19 -3 -27 -3h-123z" />
  </g>

</svg>
