<?xml version="1.0" standalone="no"?>
<!DOCTYPE svg PUBLIC "-//W3C//DTD SVG 1.1//EN" "http://www.w3.org/Graphics/SVG/1.1/DTD/svg11.dtd" >
<svg xmlns="http://www.w3.org/2000/svg" xmlns:xlink="http://www.w3.org/1999/xlink" version="1.1" viewBox="-10 0 1034 1024">
  <g transform="matrix(1 0 0 -1 0 820)">
   <path fill="currentColor"
d="M442 14q-18 9 -38 25q-18 -33 -45 -75q-25 -39 -67 -79q36 -21 40 -25l24 32l41 59q25 37 52 58q-4 3 -7 5zM370 251q15 3 51 8q49 4 80 5q-33 -40 -70 -77q-48 -45 -76 -59l20 -40q27 7 83 16q55 9 121 17q6 -25 10 -53q12 3 19 6q-1 0 19 4q-21 78 -45 144
q-21 -7 -35 -10q10 -25 24 -63q-118 -15 -155 -20q21 19 89 96q63 73 68 77q19 19 44 34q-19 13 -41 32q-28 -40 -58 -76l-115 -3q63 75 82 90q18 18 42 27q-10 9 -18 13q-15 12 -27 19q-34 -52 -72 -100q-30 -34 -54 -50q6 -18 14 -37zM413 683q3 -67 4 -70q0 -114 -2 -143
q-3 -3 -3 -31q27 3 57 5l370 -1l41 -4q-4 48 -5 94l1 114l4 45q-28 -1 -57 -5l-366 1q-19 3 -45 4q0 -4 1 -9zM453 474v76h385v-76h-385zM453 579v76h385v-76h-385zM566 -126l14 5q6 0 18 4q-4 24 -21 82q-7 27 -18 65q-18 -6 -39 -11q25 -69 36 -148q4 1 10 3zM645 265
q60 9 123 12q-39 -48 -81 -90q-25 -25 -45 -36q6 -19 14 -40q73 15 107 20q52 9 108 17q9 -27 14 -52q18 12 37 17q-1 6 -8 18l-59 122l-32 -19q9 -15 17 -27q9 -13 23 -39q-45 -6 -81 -11l-93 -9q45 43 72 74q25 25 55 62q31 39 67 60q-13 9 -25 17q-9 7 -17 15
q-34 -54 -47 -67l-121 -12q19 24 49 53q33 34 73 45q-30 18 -38 27q-3 3 -8 7q-28 -39 -65 -78q-18 -21 -31 -32q-10 -9 -24 -17q7 -18 16 -37zM677 29l25 -69q7 -28 11 -46q3 -15 3 -32q18 6 45 9l-47 149q-12 -6 -37 -11zM855 61q-6 -3 -16 -7q-4 -1 -8 -4t-13 -7
q13 -19 37 -67q21 -43 32 -69q9 -19 15 -41q33 18 42 20zM123 -99q0 -6 -4 -48q0 -4 -2 -9h48q-6 15 -6 50v759h155q-25 -72 -58 -145q-36 -76 -56 -109q21 -15 31 -26q7 -6 25 -26q54 -69 54 -132q0 -48 -41 -72q-18 -12 -58 -12q-18 0 -29 4q10 -24 19 -51q45 7 73 18
q72 28 73 113q0 54 -36 114q-18 33 -60 80q0 6 62 137l24 56q19 46 40 90q-30 -1 -61 -5l-159 1q-15 3 -40 4q6 -51 6 -59v-732z" />
  </g>

</svg>
