<?xml version="1.0" standalone="no"?>
<!DOCTYPE svg PUBLIC "-//W3C//DTD SVG 1.1//EN" "http://www.w3.org/Graphics/SVG/1.1/DTD/svg11.dtd" >
<svg xmlns="http://www.w3.org/2000/svg" xmlns:xlink="http://www.w3.org/1999/xlink" version="1.1" viewBox="-10 0 1010 1000">
   <path fill="currentColor"
d="M125 22q4 0 13 1q57 7 86 7h552q92 0 151 -8v88q-59 -8 -151 -8h-564q0 126 -1 179q-1 66 -5 156q96 -102 157 -306q72 17 97 36q-30 16 -63 80q-5 10 -8 15v496q0 99 8 147h-91q7 -46 7 -145v-359l-59 109q-39 -51 -50 -45q-7 244 -93 428q-8 -5 -21 -12
q-38 -25 -68 -31q117 -147 111 -530v-203q0 -39 -8 -95zM746 131q38 28 73 84l-79 39q-22 -56 -61 -91zM581 332v83h113v-83h-113zM581 487v83h113v-83h-113zM581 641v92h113v-92h-113zM544 127q77 17 105 32q-32 19 -63 93q-2 5 -3 8h207q64 0 113 -6q13 -2 18 -2v86
q-3 0 -14 -1q-48 -5 -115 -5h-24v83q64 0 115 -6q12 -2 16 -2v87q-3 0 -12 -1q-52 -6 -119 -6v83q67 0 119 -7q9 -1 12 -1v87q-4 0 -19 -2q-56 -6 -112 -6v92h24q71 0 125 -6q13 -2 18 -2v87q-5 0 -19 -2q-52 -6 -126 -6h-209q0 49 6 85h-89q9 -39 8 -115v-365
q-19 38 -52 96l-12 21q-17 -38 -47 -67q107 -137 149 -332z" />
</svg>
