<?xml version="1.0" standalone="no"?>
<!DOCTYPE svg PUBLIC "-//W3C//DTD SVG 1.1//EN" "http://www.w3.org/Graphics/SVG/1.1/DTD/svg11.dtd" >
<svg xmlns="http://www.w3.org/2000/svg" xmlns:xlink="http://www.w3.org/1999/xlink" version="1.1" viewBox="-10 0 1010 1000">
   <path fill="currentColor"
d="M423 -17q112 2 119 15q-27 38 -26 114v126q79 -46 129 -97q73 57 75 66q0 1 -13 4q-27 7 -34 12q-216 135 -395 176h264q-9 -44 -34 -69l85 -28l38 75l-62 22h211q50 0 103 -8v76q-45 -8 -99 -8h-175v73h137q23 0 77 -6q12 -1 18 -2v72q-41 -7 -95 -6h-137v67h141
q32 0 103 -8v76q-58 -8 -101 -8h-143v77h199q60 0 113 -8v76q-16 0 -55 -4t-54 -4h-512q0 2 1 7q3 34 9 54h-94q9 -36 10 -119v-375l-149 42q-14 -51 -47 -82q189 -8 403 -111v-194q-1 -60 -10 -93zM702 28q182 109 236 151l-65 69q-101 -100 -224 -158zM270 44q82 48 79 54
q-4 6 -17 12q-14 6 -22 13q-11 10 -36 32q-86 74 -125 111q-16 -19 -80 -51q122 -64 201 -171zM300 459v73h232v-73h-232zM300 590v67h232v-67h-232zM300 717v77h232v-77h-232z" />
</svg>
