<?xml version="1.0" standalone="no"?>
<!DOCTYPE svg PUBLIC "-//W3C//DTD SVG 1.1//EN" "http://www.w3.org/Graphics/SVG/1.1/DTD/svg11.dtd" >
<svg xmlns="http://www.w3.org/2000/svg" xmlns:xlink="http://www.w3.org/1999/xlink" version="1.1" viewBox="-10 0 1010 1000">
   <path fill="currentColor"
d="M510 4q105 35 99 42q0 2 -5 7q-14 14 -25 31q-20 36 -37 87h303q62 0 97 -6v79q-40 -6 -99 -6h-101v114h81q48 0 90 -6v77q-36 -6 -90 -6h-81v117h75q57 -1 96 -4v76q-45 -6 -100 -6h-71v123h113q46 0 76 -6v77q-24 -5 -86 -4h-313q0 69 4 101h-86q0 -5 2 -18
q6 -46 6 -91v-448q-17 32 -51 85q-35 -68 -48 -81q117 -135 151 -334zM720 18q44 59 68 109l-78 36q-28 -64 -65 -115zM161 137v133h119v-133h-119zM534 238v114h137v-114h-137zM280 332h-119v139h119v-139zM534 417v117h137v-117h-137zM280 530h-119v193l119 -44v-149z
M534 600v123h137v-123h-137zM353 189v464l56 -26q-6 39 0 76q-212 80 -340 143q-8 -35 -35 -80q21 -9 53 -18v-543q0 -75 -4 -139q36 3 96 4h71q69 -1 113 -4q-10 42 -10 123z" />
</svg>
