<?xml version="1.0" standalone="no"?>
<!DOCTYPE svg PUBLIC "-//W3C//DTD SVG 1.1//EN" "http://www.w3.org/Graphics/SVG/1.1/DTD/svg11.dtd" >
<svg xmlns="http://www.w3.org/2000/svg" xmlns:xlink="http://www.w3.org/1999/xlink" version="1.1" viewBox="-10 0 1010 1000">
   <path fill="currentColor"
d="M183 2q97 21 103 32q-1 2 -8 7q-18 13 -24 27q-16 34 -34 67h145q28 0 75 -8q-58 92 -130 238h29q14 0 62 -3q15 -1 24 -2q-6 44 -6 69v355q0 71 8 111h-92q8 -42 8 -95h-160q-41 0 -108 10v-81q41 8 104 9h164v-130h-137q-69 0 -113 9v-85q53 9 111 10h139v-111h-133
q-45 0 -125 8v-81q60 7 117 7h26l84 -166h-120q-29 51 -81 135q-4 7 -6 10q-28 -19 -77 -30q116 -129 155 -312zM552 4q97 30 99 42q0 1 -4 4q-19 17 -28 34q-8 17 -21 45q-11 26 -17 38h256q27 1 107 -10v85q-60 -7 -105 -7h-57v111h28q60 1 115 -6v79q-59 -8 -112 -8h-31
v127h33q66 -1 114 -8v80q-55 -7 -114 -6h-33v142h51q30 0 115 -9v87q-57 -10 -111 -10h-254q0 32 6 79h-87q8 -40 8 -131v-450q-3 6 -11 19q-19 32 -33 54q-30 -33 -71 -45q116 -111 157 -336zM772 6q42 61 61 107l-83 34q-16 -58 -54 -111zM710 235h-129v111h129v-111z
M581 411v127h129v-127h-129zM581 604v142h129v-142h-129z" />
</svg>
