<?xml version="1.0" standalone="no"?>
<!DOCTYPE svg PUBLIC "-//W3C//DTD SVG 1.1//EN" "http://www.w3.org/Graphics/SVG/1.1/DTD/svg11.dtd" >
<svg xmlns="http://www.w3.org/2000/svg" xmlns:xlink="http://www.w3.org/1999/xlink" version="1.1" viewBox="-10 0 1034 1024">
  <g transform="matrix(1 0 0 -1 0 820)">
   <path fill="currentColor"
d="M371 580q-31 -67 -53 -109q-21 -39 -57 -101l-155 2q-6 1 -12 1l-15 2v-49q9 3 15 4q25 0 51 3h250v-155l-240 1q-7 1 -38 2q-1 0 -14 2v-47q13 1 66 5h226v-160h-254q-3 0 -51 3q-4 0 -15 3v-48q49 4 66 5h254q-1 -33 -3 -68q-1 -1 -1 -3h47q0 4 -1 10q-1 3 -4 68l1 374
l4 50q-31 -1 -64 -5h-68q45 81 66 123q22 45 46 89q12 18 22 40q-21 -1 -39 -3q-25 -3 -35 -3h-151q18 51 32 78q9 24 19 37q6 10 24 23q-9 3 -22 9q-18 6 -36 15q-30 -103 -76 -192q-37 -72 -60 -106q-21 -31 -50 -55q25 -10 42 -23q30 37 55 79l34 61l22 38h172zM498 452
q49 82 53 87l-1 -666q-1 -7 -2 -30q-1 -1 -1 -5q-1 -3 -1 -8h47q-3 30 -5 72v25q360 0 370 -2q6 0 16 -4v48l-27 -3q-19 0 -38 -2h-128v189l137 -3q6 -1 9 -2v47q-39 -4 -71 -5h-75v165q63 0 134 -3q3 0 10 -3v48q-33 -1 -66 -5h-78v162h100q31 0 53 -3q6 0 14 -3v48
q-33 -1 -67 -5h-304q9 24 40 95q3 9 8 18q4 9 10 21q12 28 34 43l-62 20q-4 -24 -12 -44l-28 -72q-30 -82 -79 -161q-37 -61 -82 -95l53 -26q36 60 39 62zM743 153v-189h-155v189h155zM588 190v165h155v-165h-155zM743 392h-155v162h155v-162zM802 661q-21 27 -53 76
q-16 27 -30 41q-18 -15 -37 -27q43 -45 100 -144q15 15 38 29q-9 13 -18 25v0z" />
  </g>

</svg>
