<?xml version="1.0" standalone="no"?>
<!DOCTYPE svg PUBLIC "-//W3C//DTD SVG 1.1//EN" "http://www.w3.org/Graphics/SVG/1.1/DTD/svg11.dtd" >
<svg xmlns="http://www.w3.org/2000/svg" xmlns:xlink="http://www.w3.org/1999/xlink" version="1.1" viewBox="-10 0 1010 1000">
   <path fill="currentColor"
d="M575 2q81 17 88 30q0 3 -8 12q-12 14 -14 24q-15 53 -34 105h238q32 0 101 -8v77q-39 -5 -97 -5h-47v119h27q55 1 104 -8v81q-29 -7 -104 -8h-27v127h29q37 0 102 -10v81q-44 -7 -104 -7h-27v128h51q31 1 103 -9v83q-52 -8 -105 -8h-236q0 57 6 93h-85q8 -35 10 -109
v-452q-30 69 -58 117q-17 -22 -55 -52q34 -50 55 -95h-77v391q26 -18 73 -70q6 45 22 82q-95 71 -139 135q-32 -40 -55 -62q26 -22 39 -65v-391h-79v329l65 -22v76q-153 42 -281 101q-6 -51 -24 -91q9 -2 27 -5q20 -3 30 -5v-459q0 -62 -6 -95q87 1 84 12q-19 21 -18 73v453
l63 -16v-587q0 -43 -8 -82q96 7 86 16q-18 24 -18 78v164h79v-188q-1 -44 -8 -82q89 5 88 16q-20 33 -20 82v152h89v28q47 -105 75 -274zM774 10q40 59 59 113l-85 24q-8 -51 -46 -113zM730 237h-117v119h117v-119zM613 421v127h117v-127h-117zM730 612h-117v128h117v-128z
" />
</svg>
