<?xml version="1.0" standalone="no"?>
<!DOCTYPE svg PUBLIC "-//W3C//DTD SVG 1.1//EN" "http://www.w3.org/Graphics/SVG/1.1/DTD/svg11.dtd" >
<svg xmlns="http://www.w3.org/2000/svg" xmlns:xlink="http://www.w3.org/1999/xlink" version="1.1" viewBox="-10 0 1034 1024">
  <g transform="matrix(1 0 0 -1 0 820)">
   <path fill="currentColor"
d="M169 -95q-3 -42 -3 -55q-1 -3 -1 -6q-1 -3 -1 -6h44q0 6 -2 12l-4 55v27l241 -3l2 -1q4 0 10 -1v45q-12 -3 -29 -4l-91 -2v174q75 0 85 -4q3 0 7 -2v45q-33 -1 -66 -5h-26v151q57 0 83 -4q1 0 5 -1v44l-40 -4l-48 -1v157q84 0 94 -2q6 0 10 -2q3 0 7 -1v45q-9 -3 -13 -3
q-54 -3 -100 -3q-93 0 -118 2q-10 0 -21 2q9 24 14 38q40 114 47 119q6 10 20 20l-58 20q-12 -75 -60 -184q-33 -73 -55 -108q-24 -39 -58 -71q30 -6 48 -18q21 31 37 60l24 44l16 24v-593zM202 -34v174h97v-174h-97zM202 174v151h97v-151h-97zM202 359v157h97v-157h-97z
M272 682q58 -63 86 -106q16 13 31 28q-6 6 -12 15l-25 28q-31 40 -51 60q-4 -4 -22 -19q-4 -3 -7 -6zM553 452q-54 -6 -78 -6q-58 3 -72 6v-45q4 1 10 1q3 1 7 1q3 3 22 3l68 1l-5 -411q0 -24 -13 -45q18 -13 38 -35q21 34 30 45l45 54q15 15 33 39l-21 39q-36 -54 -75 -106
l3 400q3 0 9 -1q3 -1 7 -3q9 -4 25 -14q18 30 30 52q9 21 20 41l20 35l-1 -621q-3 -18 -3 -38q-1 -1 -1 -5q-1 -3 -1 -8h44q-1 7 -3 28l-2 80q253 0 264 -3q6 0 9 -1q3 0 7 -1v44q-43 -4 -80 -5h-58v173q48 0 101 -3l2 -1q4 0 10 -1v44q-33 -1 -66 -5h-47v153q48 0 104 -3
q3 0 11 -3v45q-12 0 -14 -2l-69 -4h-32v156q102 0 115 -2q3 0 19 -4v45q-9 -1 -28 -3l-127 -2l-94 1q-15 3 -37 4l27 91q6 21 12 40q3 13 9 25q6 15 22 32q-30 9 -39 10q-7 3 -17 6q-18 -91 -41 -163q-22 -66 -51 -120q-18 -34 -30 -51q-10 -13 -22 -24q1 22 4 45zM689 -27
v173h106v-173h-106zM689 180v153h106v-153h-106zM689 366v156h106v-156h-106zM507 626l-52 64q-15 -13 -29 -25q24 -25 42 -49q22 -28 60 -79q15 13 30 27zM767 705q12 -12 24 -26q16 -19 48 -59q12 -16 25 -35q15 16 30 29q-36 45 -98 116q-12 -12 -29 -25v0z" />
  </g>

</svg>
