<?xml version="1.0" standalone="no"?>
<!DOCTYPE svg PUBLIC "-//W3C//DTD SVG 1.1//EN" "http://www.w3.org/Graphics/SVG/1.1/DTD/svg11.dtd" >
<svg xmlns="http://www.w3.org/2000/svg" xmlns:xlink="http://www.w3.org/1999/xlink" version="1.1" viewBox="-10 0 1034 1024">
  <g transform="matrix(1 0 0 -1 0 820)">
   <path fill="currentColor"
d="M953 224q-33 -1 -66 -5l-774 1q-31 3 -39 4v-46q13 1 66 5h224q-18 -33 -35 -68q-15 -27 -34 -55q7 1 43 2q30 1 45 3h370q-9 -63 -25 -97q-21 -51 -72 -60q-54 -7 -104 -8q-36 0 -83 10q16 -24 27 -53q57 0 90 3q24 0 45 4q102 6 138 96q7 19 15 46q7 33 21 100
q-120 -4 -123 -5h-317l45 82q537 -3 543 -5v46zM489 626h-303q-7 0 -32 3q-16 0 -33 2q6 -60 6 -90q-1 -37 -3 -76q-1 -3 -1 -6l-2 -6h48q-4 54 -5 80v57h325l-1 -184q-1 -3 -2 -22q-1 -3 -2 -12h49q-3 6 -4 26q0 21 -2 41v151h348l-3 -119q0 -3 -1 -6t-1 -6h48q-4 54 -5 82
l5 90q-34 -1 -70 -5h-321v70l316 -1q18 0 37 -3l2 -1v46q-30 -4 -66 -5q-621 3 -638 5v-46q49 4 65 5h246v-70zM842 335q-33 -1 -66 -5l-577 3q-6 0 -13 2v-46q49 4 66 5q564 0 575 -3q9 0 15 -2v46zM430 526q-33 -1 -66 -5q-90 0 -118 2q-6 1 -11 1q-1 0 -14 2v-43
q45 4 138 5q64 -3 71 -5v43zM815 530l-65 -4l-148 3q-1 1 -4 1v-43q66 6 83 6q99 0 115 -3q12 0 19 -3v43zM817 433q-33 -1 -65 -5l-141 3q-6 0 -13 2v-43q54 6 78 5q111 0 130 -3q4 0 11 -2v43zM431 429q-33 -1 -66 -5l-130 3q-6 0 -13 2v-43q54 6 81 5q123 -3 128 -5v43z
" />
  </g>

</svg>
