<?xml version="1.0" standalone="no"?>
<!DOCTYPE svg PUBLIC "-//W3C//DTD SVG 1.1//EN" "http://www.w3.org/Graphics/SVG/1.1/DTD/svg11.dtd" >
<svg xmlns="http://www.w3.org/2000/svg" xmlns:xlink="http://www.w3.org/1999/xlink" version="1.1" viewBox="-10 0 1034 1024">
  <g transform="matrix(1 0 0 -1 0 820)">
   <path fill="currentColor"
d="M96 218q39 4 61 5h144q3 -6 15 -21q45 -57 77 -91l83 -80q-57 -30 -103 -50q-42 -16 -97 -32q-90 -22 -176 -22q27 -31 37 -53q31 4 78 16q49 10 100 26q126 45 199 92q49 -31 92 -52q45 -18 107 -35q51 -12 89 -20l107 -15q7 24 28 51q-21 -1 -33 -2q-36 0 -124 13
q-42 6 -76 15t-67 23q-45 19 -85 45q58 52 96 93q28 33 73 99l167 -1l39 -4v46q-30 -1 -62 -5h-281q6 15 16 30q-3 1 -6 4q-3 0 -13 7q-15 9 -81 46q-18 9 -39 22q-12 -19 -25 -38q87 -36 131 -71l-471 5v-46zM672 223q-60 -96 -160 -168q-109 88 -162 168h322zM500 626
l-326 1q-1 0 -44 4q4 -60 5 -90l-2 -97q-1 -1 -2 -5q-1 -3 -1 -6h45q-1 4 -5 63v94h330l-2 -211q-1 -1 -2 -5q-1 -3 -1 -8h47q0 1 -5 65v159h328l-2 -137l-2 -6t-2 -7h47q-3 12 -6 53q0 90 2 100l4 38q-21 -1 -35 -2q-24 -3 -31 -3h-303v84l307 -3l2 -1q3 0 6 -1v46
q-30 -4 -61 -5l-570 1l-26 2l-13 2v-46q19 3 62 5h256v-84zM434 513l-101 -5q-79 3 -97 5v-43q54 6 87 5q106 -3 111 -5v43zM806 516l-61 -4l-140 3q-1 1 -4 1v-43q45 4 73 5l97 -1q22 0 29 -3q3 0 6 -1v43zM801 409l-101 -5q-87 3 -98 5v-43l30 4l108 2q55 -3 61 -6v43z
M434 405l-101 -5q-79 3 -97 5v-43q6 0 14 2l108 2q36 0 74 -3l2 -1v43z" />
  </g>

</svg>
