<?xml version="1.0" standalone="no"?>
<!DOCTYPE svg PUBLIC "-//W3C//DTD SVG 1.1//EN" "http://www.w3.org/Graphics/SVG/1.1/DTD/svg11.dtd" >
<svg xmlns="http://www.w3.org/2000/svg" xmlns:xlink="http://www.w3.org/1999/xlink" version="1.1" viewBox="-10 0 1010 1000">
   <path fill="currentColor"
d="M863 20v72q-25 -6 -109 -6h-222v61h293q66 -1 98 -4q-5 24 -4 76v23q-1 60 4 84h-82q0 -4 1 -20q3 -53 3 -99h-313v115q0 59 6 81h-84q6 -25 6 -83v-113h-299q0 78 8 121h-90q6 -29 6 -82v-29q0 -48 -4 -74q36 3 96 4h283v-61h-202q-48 0 -68 1q-24 1 -41 3v-70
q33 6 107 6h381h111q94 0 115 -6zM585 252q0 -2 18 -1q33 3 62 3h35q43 0 82 -6v58q-25 -4 -74 -4h-43q-58 -1 -80 4v-54zM327 256q54 0 80 -4v56q-12 -3 -25 -3q-9 -1 -49 -1h-35q-42 0 -53 1q-14 0 -29 3v-56q31 4 84 4h27zM714 352q43 0 82 -4v55q-23 -4 -68 -4h-57
q-41 0 -56 1q-18 1 -28 3v-55q39 4 82 4h45zM202 354q13 0 42 1q35 1 54 1h35q45 -1 86 -4v55q-24 -5 -84 -4h-35q-47 0 -64 1q-22 1 -34 3v-53zM185 449l101 6h414q73 0 117 -6v69q-41 -6 -113 -6h-142h-270q-44 0 -107 4v-67zM933 558v73q1 1 -21 -1q-50 -3 -83 -3h-458
l-12 60h314q102 1 140 -8q-15 79 -29 159q5 63 -207 77q4 -50 -37 -97q109 15 140 0q36 -12 36 -70h-345q-72 0 -107 10q16 -53 26 -131h-100q-82 0 -121 6v-73q56 4 123 4h489h142q69 0 110 -6z" />
</svg>
