<?xml version="1.0" standalone="no"?>
<!DOCTYPE svg PUBLIC "-//W3C//DTD SVG 1.1//EN" "http://www.w3.org/Graphics/SVG/1.1/DTD/svg11.dtd" >
<svg xmlns="http://www.w3.org/2000/svg" xmlns:xlink="http://www.w3.org/1999/xlink" version="1.1" viewBox="-10 0 1010 1000">
   <path fill="currentColor"
d="M133 16q10 1 33 2q62 6 120 6h440q88 0 139 -8v78q-37 -8 -137 -8h-196v65h289q47 0 102 -7q7 -1 10 -1q-8 32 -8 88q0 52 8 105h-96q8 -58 8 -107v-24h-313v81q-1 49 8 77h-90q9 -25 8 -79v-73h-301v24q0 70 8 101h-96q1 -4 2 -13q6 -41 6 -86q0 -48 -8 -92q57 8 153 8
h236v-67h-174q-114 0 -151 8v-78zM208 258q48 4 86 4h23q36 0 75 -3q7 -1 11 -1v68q-4 0 -12 -1q-40 -3 -76 -3h-21q-39 0 -53 1q-18 0 -33 3v-68zM780 258v72q-37 -4 -84 -4h-17q-21 0 -57 2q-27 2 -39 2v-72q54 4 96 4h15q41 0 55 -1q17 0 31 -3zM212 365q41 4 86 4h19
q56 3 82 -4v68q-9 -3 -25 -3q-13 -1 -55 -1h-21q-45 0 -58 1q-17 0 -28 3v-68zM589 365q39 4 90 4h17q24 0 56 -2q19 -2 28 -2v72q-60 -4 -82 -4h-17q-45 0 -92 4v-72zM518 518q23 40 32 82l-80 13q-10 -49 -30 -81zM810 621q-112 96 -254 191q15 5 43 14q64 22 93 30
l-51 69q-130 -63 -349 -121l37 -67l117 39q25 8 36 12q53 -29 141 -99h-258q-47 0 -110 6q-20 1 -29 2v-76q9 1 30 2q61 6 107 6h316q68 0 131 -8zM464 371q90 24 96 36q0 4 -11 7l-9 3q159 115 424 137q-34 33 -59 91q-249 -65 -415 -194q-141 111 -393 200
q-20 -41 -63 -85q316 -43 430 -195z" />
</svg>
