<?xml version="1.0" standalone="no"?>
<!DOCTYPE svg PUBLIC "-//W3C//DTD SVG 1.1//EN" "http://www.w3.org/Graphics/SVG/1.1/DTD/svg11.dtd" >
<svg xmlns="http://www.w3.org/2000/svg" xmlns:xlink="http://www.w3.org/1999/xlink" version="1.1" viewBox="-10 0 1034 1024">
  <g transform="matrix(1 0 0 -1 0 820)">
   <path fill="currentColor"
d="M925 122q-96 3 -116 5q-90 10 -150 20q-40 9 -91 23l102 61q34 21 77 55l150 -3q6 0 10 -3v47q-33 -1 -66 -5h-277q6 16 24 37l-85 45l-40 21q-10 -18 -25 -37l70 -35l52 -31l-414 1q-6 1 -23 2l-14 2v-47q7 3 36 4l91 2h115q-15 -16 -33 -31q45 -37 142 -85
q-45 -16 -88 -27l-87 -18q-42 -6 -82 -10q-55 -4 -84 -5q-16 0 -46 3q15 -21 32 -54q72 7 131 17q54 7 100 18q82 18 181 54q75 -24 126 -37q45 -9 102 -18q54 -9 103 -14q45 -4 82 -7q6 24 29 50h-34zM673 286q-25 -21 -74 -50q-33 -21 -71 -38l-13 -6q-43 16 -89 42
q-24 15 -40 26q-7 6 -26 26h313zM344 83q3 -24 3 -41q0 -48 -26 -87q-25 -36 -79 -53q-36 -12 -74 -12q18 -22 35 -46q163 51 178 160l3 21q0 10 2 19q3 15 14 39h-56zM678 85q1 -33 5 -67l-3 -156q-1 -1 -1 -5q-1 -3 -1 -7h48q-4 54 -5 80q0 109 2 119q1 22 10 36h-55z
M493 620l-340 1l-47 4q1 -34 5 -70l-3 -96q-1 -1 -2 -13h48q-4 15 -5 36l-1 102h345l-4 -141q-1 -1 -1 -5q-1 -3 -1 -7h50q-6 31 -6 63v90h347l-3 -117q-1 -1 -1 -5q-1 -3 -2 -7h49q-4 54 -5 81q1 45 5 89q-36 -1 -71 -5h-319v68l291 -1q27 0 40 -4v46q-33 -1 -66 -5l-594 1
l-38 4v-46q54 6 83 5h246v-68zM431 521q-33 -1 -66 -5l-113 1q-31 3 -38 4v-43q49 4 82 5q129 -3 135 -5v43zM806 524l-65 -4l-148 4v-43q54 6 82 5q100 0 112 -2q7 0 12 -2q3 0 7 -1v43zM806 440q-33 -1 -65 -5q-135 3 -151 5v-43q54 6 77 5l130 -3l2 -1q3 0 7 -1v43z
M430 439q-33 -1 -66 -5q-97 0 -124 2q-6 1 -11 1q-1 0 -14 2v-43q9 0 14 2l135 2q51 0 64 -3l2 -1v43z" />
  </g>

</svg>
