<?xml version="1.0" standalone="no"?>
<!DOCTYPE svg PUBLIC "-//W3C//DTD SVG 1.1//EN" "http://www.w3.org/Graphics/SVG/1.1/DTD/svg11.dtd" >
<svg xmlns="http://www.w3.org/2000/svg" xmlns:xlink="http://www.w3.org/1999/xlink" version="1.1" viewBox="-10 0 1034 1024">
  <g transform="matrix(1 0 0 -1 0 820)">
   <path fill="currentColor"
d="M72 -117q4 -6 11 -12q15 -19 21 -25q54 30 90 57q33 24 65 55q51 -33 94 -50q40 -12 95 -19q63 -4 151 -5l261 4q12 1 65 2q12 33 28 55q-33 -7 -68 -12q-61 -4 -175 -9l-223 2q-69 4 -111 15q-39 10 -93 46q57 75 88 186q-27 -1 -54 -5h-108l110 114q10 15 19 21
q12 12 22 24l-98 -5l-147 2q-6 3 -13 3v-46q3 3 45 5h124q-51 -54 -87 -90q-34 -30 -74 -69q15 3 53 4l153 1q-21 -64 -64 -121q-27 22 -59 58q-13 16 -16 21q-3 7 -7 22q-21 -19 -41 -35q21 -22 71 -70q3 -1 7 -6q6 -7 19 -21q-84 -75 -160 -92q3 -1 6 -5zM618 191l-159 1
q-16 1 -34 3q-3 1 -5 1v-46q3 3 45 5h153v-113l-170 2q-6 3 -13 3v-46q30 3 61 5l336 -1q15 0 35 -4v46l-39 -4l-172 -1v113h177q27 0 62 -5v46q-7 0 -16 -3l-223 -2v94l45 6q114 15 130 15q6 0 18 -3q-36 45 -40 51q-57 -15 -136 -28q-42 -4 -94 -8q-51 -3 -90 -4
q-27 0 -67 4q9 -22 17 -46q39 4 97 5l82 5v-91zM108 610q3 -60 4 -62l-3 -99q-1 -1 -2 -6h48q-4 15 -5 36l-1 100h340l-3 -187l-2 -6h49q-6 25 -6 49v144h347v-71q0 -40 -5 -60h48l-4 36l-1 78q1 28 5 58l-52 -6h-338v70h278q28 0 64 -5v46q-31 -1 -64 -5l-631 2q-6 3 -14 3
v-46q30 3 61 5h268v-70l-334 1q-24 4 -48 5q0 -4 1 -10zM420 436l-39 -4l-156 1q-6 3 -13 3v-45l60 4q111 0 130 -2q7 0 18 -2v45zM211 485q3 1 49 5q121 0 137 -2q10 0 23 -3v44q-9 0 -17 -3q-135 0 -137 -2q-21 1 -41 2q-9 3 -14 3v-44zM599 396q49 4 73 5l103 -1
q15 0 35 -4v44q-43 -4 -80 -5l-126 4q-3 1 -5 1v-44zM596 488q60 6 80 6l100 -1q15 -1 38 -5v44q-43 -4 -75 -5l-130 2q-6 3 -13 3v-44z" />
  </g>

</svg>
