<?xml version="1.0" standalone="no"?>
<!DOCTYPE svg PUBLIC "-//W3C//DTD SVG 1.1//EN" "http://www.w3.org/Graphics/SVG/1.1/DTD/svg11.dtd" >
<svg xmlns="http://www.w3.org/2000/svg" xmlns:xlink="http://www.w3.org/1999/xlink" version="1.1" viewBox="-10 0 1010 1000">
   <path fill="currentColor"
d="M159 12q62 8 123 8h452q32 0 113 -8v80q-58 -8 -111 -8h-196v51h309q32 0 80 -6q-7 29 -8 72q0 74 8 117h-90q10 -63 10 -123h-309v53q0 69 8 114h-86q7 -43 8 -110v-57h-313q0 74 8 127h-88q7 -42 8 -107q-1 -46 -8 -88q42 8 88 8h305v-51h-188q-79 0 -123 8v-80z
M222 237q43 6 90 5q33 0 49 -1q19 -1 44 -4v57q-24 -4 -43 -5q-16 -1 -50 -1q-54 0 -90 6v-57zM589 237q47 5 94 5q63 0 99 -5v57q-39 -6 -97 -6q-46 0 -96 6v-57zM222 320q29 5 74 4h14h12q41 1 81 -4v53q-31 -7 -91 -6h-30q36 6 71 30q1 3 -11 9q-15 7 -21 13
q-11 13 -23 24l-8 8h240q-17 -26 -48 -65q-3 -3 -4 -5l80 -12l33 82h167q51 0 115 -8v63q-51 -7 -111 -6h-189v64h173q51 0 97 -8v63q-46 -7 -95 -7h-175v57h169q24 0 90 -9q6 -1 9 -1v68q-50 -8 -95 -8h-173v63h221q26 1 107 -8v68q-43 -9 -103 -10h-516q0 50 8 77h-90
q10 -33 10 -111v-244q-27 33 -105 111q-39 -36 -73 -48q130 -75 232 -248l-42 4v-53zM776 326v57q-24 -4 -43 -5q-15 -1 -48 -1q-65 -1 -98 6v-57q44 6 100 6q56 1 89 -6zM504 500h-222v64h222v-64zM282 612v57h222v-57h-222zM504 719h-222v63h222v-63z" />
</svg>
