<?xml version="1.0" standalone="no"?>
<!DOCTYPE svg PUBLIC "-//W3C//DTD SVG 1.1//EN" "http://www.w3.org/Graphics/SVG/1.1/DTD/svg11.dtd" >
<svg xmlns="http://www.w3.org/2000/svg" xmlns:xlink="http://www.w3.org/1999/xlink" version="1.1" viewBox="-10 0 1010 1000">
   <path fill="currentColor"
d="M849 4v78q-35 -7 -99 -6h-210v47h305q41 0 84 -8q-8 25 -8 80q0 34 1 50q1 20 5 39h-88q8 -40 8 -105h-307v101q0 51 8 101h-88q9 -52 10 -97v-105h-303q1 54 6 103h-84q6 -36 6 -77q1 -60 -8 -90q39 8 82 8h301v-47h-208q-63 0 -107 8v-80q46 8 103 8h492q52 0 99 -8z
M788 215v61q-48 -6 -92 -6q-49 0 -111 6v-61q56 7 105 6q24 1 98 -6zM214 221q54 6 105 6q52 -3 100 -8v61q-54 -7 -98 -6q-44 -1 -107 6v-59zM587 306q74 8 103 8q35 0 98 -8v63q-40 -8 -94 -7q-55 -1 -107 7v-63zM417 306v61q-54 -6 -96 -5q-23 0 -33 1q16 6 49 23l18 9
q-14 3 -20 12h439q36 0 105 -8v68q-9 -1 -26 -3q-47 -5 -75 -5h-504q-33 27 -48 39q29 5 60 6h454q47 0 85 -8q-8 40 -8 70v51h36q54 -1 97 -7v67q-40 -7 -95 -8h-38v71q37 0 84 -7v69q-37 -8 -82 -8q1 75 -28 96q-18 21 -128 31q-7 -28 -30 -64q-8 -12 -12 -19q68 10 93 0
q26 -8 30 -44h-470q-48 0 -97 6q0 -1 1 -3q6 -18 18 -70l8 -56h-41q-67 0 -111 10v-71q62 8 111 9h47l4 -47q4 -29 -4 -58q-44 31 -57 38q-29 -31 -68 -50q132 -51 193 -139q-24 0 -62 4v-61q51 7 103 6q36 0 53 -1q20 -1 45 -5zM748 556h-240l54 34l-26 29h212v-63z
M288 556l-6 63h222l-58 -31l36 -32h-194zM748 671h-244q9 3 38 22q9 7 14 10l-44 39h236v-71zM278 671l-10 71h232q-17 -24 -56 -45l28 -26h-194z" />
</svg>
