<?xml version="1.0" standalone="no"?>
<!DOCTYPE svg PUBLIC "-//W3C//DTD SVG 1.1//EN" "http://www.w3.org/Graphics/SVG/1.1/DTD/svg11.dtd" >
<svg xmlns="http://www.w3.org/2000/svg" xmlns:xlink="http://www.w3.org/1999/xlink" version="1.1" viewBox="-10 0 1010 1000">
   <path fill="currentColor"
d="M869 10v80q-21 -6 -190 -6h-143v57h224q114 0 167 -6q-9 97 2 187h-90q3 -10 3 -35q1 -12 1 -30v-54h-309v117q0 91 4 107h-82q4 -34 4 -111v-113h-293q0 7 1 20q3 87 5 105h-94q6 -29 8 -83q2 -59 -2 -110q57 6 127 6h250v-57h-147q-94 0 -134 1q-44 2 -52 5v-80
q19 7 190 8h358q152 0 192 -8zM583 246q9 1 22 3q25 3 54 3h61q42 0 72 -6v74q-24 -5 -70 -4h-67q-52 -1 -72 4v-74zM210 248q17 5 76 4h55q34 -1 70 -4v72q-20 -5 -70 -4h-55q-48 0 -76 4v-72zM579 346q18 7 60 6h22h49h26q47 1 68 -2v69q-24 -4 -90 -4h-53q-41 0 -55 1
q-17 1 -27 3v-73zM202 350q31 3 88 4h43q63 1 82 -4v71q-22 -5 -82 -4h-43q-52 0 -88 4v-71zM153 421q18 9 73 35q49 24 78 38l-46 70q-91 -61 -151 -81zM651 433q-6 25 -6 71h127q76 0 106 -1q37 -1 53 -3v66q-15 -2 -161 -2h-125v59h109q61 0 127 -4q-3 38 -4 104v49
q5 54 -21 68q-24 18 -126 31q-4 -50 -30 -91q72 9 92 -2q9 -11 10 -34v-65h-157v101q0 93 6 129h-86q6 -39 6 -123v-107h-129v75q0 59 1 79q1 25 3 36h-83q2 -15 3 -39q1 -12 1 -28v-42v-39q0 -27 -3 -90q-1 -8 -1 -12q63 4 129 4h79v-59h-79q-127 0 -175 6v-72q61 6 171 6
h83q-1 -44 -6 -71h86zM83 540q51 20 153 75l-49 70q-53 -42 -149 -85zM292 617q25 54 43 76q-74 62 -190 196q-31 -48 -68 -73q120 -76 215 -199z" />
</svg>
