<?xml version="1.0" standalone="no"?>
<!DOCTYPE svg PUBLIC "-//W3C//DTD SVG 1.1//EN" "http://www.w3.org/Graphics/SVG/1.1/DTD/svg11.dtd" >
<svg xmlns="http://www.w3.org/2000/svg" xmlns:xlink="http://www.w3.org/1999/xlink" version="1.1" viewBox="-10 0 1034 1024">
  <g transform="matrix(1 0 0 -1 0 820)">
   <path fill="currentColor"
d="M251 -77q0 -45 -5 -69h48q-4 15 -5 70h592q36 0 64 -5v46q-31 -1 -64 -5h-302v84l246 -1q21 -1 42 -5v47q-10 0 -16 -4q-15 -1 -47 -2h-228v81h223q36 0 63 -5v46q-31 -1 -63 -5h-223v79h254q34 0 62 -5v46q-30 -1 -62 -5h-214q9 15 20 29q-3 0 -7 5l-17 10q-13 7 -25 15
q-9 4 -84 47q-4 -4 -7 -10q-9 -12 -23 -22q85 -42 125 -74h-300q15 24 31 39q15 15 36 23l-22 12q-9 6 -18 11q-9 4 -16 9q-21 -37 -45 -74q-27 -36 -63 -77q-75 -84 -127 -108q21 -15 42 -36q27 24 53 51q27 27 82 91v-329zM289 -40v84h249v-84h-249zM289 79v81h249v-81
h-249zM289 196v79h249v-79h-249zM144 522q0 -30 -2 -47q-1 -6 -3 -12h47q0 6 -2 12q-3 48 -3 92v29h333l-3 -152q-1 -3 -2 -7h49q-6 24 -6 38v121h332v-67q0 -36 -5 -59h48l-4 35l1 101q0 15 3 32q-48 -6 -53 -6h-322v60h252q27 0 63 -5v46l-39 -4l-628 3q-4 1 -7 1v-46
q3 1 51 5h270v-60l-336 1q-4 1 -39 5q4 -60 5 -92v-24zM453 454q-19 -1 -39 -5l-169 3q-6 1 -9 2v-46q21 3 56 5q129 0 147 -3q6 0 14 -2v46zM240 505q49 4 73 5q100 0 118 -2q10 0 24 -3v44q-7 -1 -15 -2l-2 -1l-89 -2l-95 2q-6 3 -14 3v-44zM611 413q3 3 50 5l129 -1
q15 0 35 -4v44l-39 -4l-169 3q-3 1 -6 1v-44zM609 506q3 3 50 5q127 0 144 -2q10 0 23 -3v44q-9 0 -17 -3h-186q-6 3 -14 3v-44z" />
  </g>

</svg>
