<?xml version="1.0" standalone="no"?>
<!DOCTYPE svg PUBLIC "-//W3C//DTD SVG 1.1//EN" "http://www.w3.org/Graphics/SVG/1.1/DTD/svg11.dtd" >
<svg xmlns="http://www.w3.org/2000/svg" xmlns:xlink="http://www.w3.org/1999/xlink" version="1.1" viewBox="-10 0 1010 1000">
   <path fill="currentColor"
d="M153 8q74 8 105 8h478q28 0 91 -7q9 -1 14 -1v76q-70 -8 -105 -8h-200v55h297q54 1 92 -6q-6 27 -6 80q0 19 4 72q1 19 2 27h-100q9 -50 10 -113h-299v36q-1 58 10 111h-96q11 -41 12 -107v-40h-311q-1 82 6 119h-90q5 -38 6 -101q0 -47 -6 -86q13 1 34 4q33 4 40 4h321
v-55h-202q-62 0 -107 8v-76zM407 229v59q-1 1 -23 -1q-46 -3 -78 -3q-55 -1 -104 6v-61q49 7 106 6q55 1 99 -6zM587 229q45 8 101 8q54 0 98 -6v61q-7 -1 -24 -2q-49 -4 -72 -4q-58 0 -103 6v-63zM204 322q44 7 100 6h15q58 1 90 -4v63q-42 -8 -109 -8q-51 0 -67 1
q-21 1 -29 3v-61zM585 326q28 4 50 5q18 1 52 1q48 0 101 -6v59q-9 -1 -27 -2q-45 -4 -71 -4q-70 0 -105 6v-59zM732 560h-460v52h460v-52zM734 667h-462v52h462v-52zM462 504q1 -106 -16 -142q78 2 102 9q-23 28 -22 133h204q10 -2 32 -2q32 -1 57 -4q-6 39 -6 70v230
q3 70 -28 90q-32 24 -130 25q0 -42 -32 -93q120 31 111 -46h-462q1 64 8 123h-97q6 -44 7 -121v-192q0 -51 -5 -88q39 7 85 8h192zM603 453q72 -19 135 -64q71 40 72 50q-30 1 -169 55q-8 -14 -38 -41zM365 447l-36 45q-41 -22 -148 -53l23 -46q95 22 161 54z" />
</svg>
