<?xml version="1.0" standalone="no"?>
<!DOCTYPE svg PUBLIC "-//W3C//DTD SVG 1.1//EN" "http://www.w3.org/Graphics/SVG/1.1/DTD/svg11.dtd" >
<svg xmlns="http://www.w3.org/2000/svg" xmlns:xlink="http://www.w3.org/1999/xlink" version="1.1" viewBox="-10 0 1034 1024">
  <g transform="matrix(1 0 0 -1 0 820)">
   <path fill="currentColor"
d="M338 110v-176q0 -30 -26 -42q15 -24 26 -50q34 21 80 46l133 68v49q-46 -28 -84 -49q-36 -18 -91 -43v197h145q39 -63 65 -93q52 -60 134 -105q76 -39 215 -73l6 9q3 3 4 6l22 41q-6 0 -16 -1q-28 0 -60 4q-57 9 -118 33q-43 18 -75 42q27 21 66 45q28 18 62 24
q-15 21 -34 55q-49 -52 -130 -99q-67 55 -94 112h286q25 0 63 -5v46q-30 -4 -63 -5h-614q3 51 5 88q1 33 2 86h553q27 0 63 -5v42q-9 0 -17 -3q-24 0 -46 -2l-562 1q-15 3 -37 4q6 -63 6 -87q-1 -16 -1 -47q-1 -48 -6 -82q-13 -108 -82 -186q-27 -30 -67 -56q34 -21 46 -32
q106 109 141 243h100zM316 216q3 1 49 5l426 -1q15 0 35 -4v42q-9 0 -17 -3l-201 -2l-285 4q-4 1 -7 1v-42zM114 526q-3 -30 -5 -60h48q-6 24 -6 53v75h347l-3 -198l-2 -6h48q-4 49 -5 98v106h347l-3 -114q-1 -3 -2 -7h48l-4 35l1 89q0 16 3 34q-4 0 -8 -1l-46 -4h-336v72
h265q15 0 31 -2l32 -4v42q-9 0 -17 -3q-24 0 -46 -2l-619 2q-6 3 -13 3v-42q4 3 54 6h275v-72h-332q-9 0 -28 3q-12 0 -29 2q4 -60 5 -92v-13zM429 444q-31 -1 -63 -5l-143 4q-4 1 -7 1v-41q3 1 49 5l128 -1q15 0 36 -4v41zM217 493q3 3 45 5q130 0 146 -2q9 0 22 -3v41
q-18 -6 -63 -6l-137 2q-7 3 -13 4v-41zM605 498q3 1 51 5q127 0 144 -2q10 0 23 -3v41l-39 -4l-172 3q-4 1 -7 1v-41zM605 411q3 1 51 5q130 0 146 -2q10 0 23 -3v41q-21 -6 -64 -6l-151 4q-3 1 -5 2v-41z" />
  </g>

</svg>
