<?xml version="1.0" standalone="no"?>
<!DOCTYPE svg PUBLIC "-//W3C//DTD SVG 1.1//EN" "http://www.w3.org/Graphics/SVG/1.1/DTD/svg11.dtd" >
<svg xmlns="http://www.w3.org/2000/svg" xmlns:xlink="http://www.w3.org/1999/xlink" version="1.1" viewBox="-10 0 1034 1024">
  <g transform="matrix(1 0 0 -1 0 820)">
   <path fill="currentColor"
d="M384 5l-262 1q-31 3 -38 4v-46q49 4 65 5h235l-3 -106q-1 -3 -1 -6q-1 -3 -1 -6h48q-3 33 -5 68l1 361q0 33 3 38q0 3 1 8h-47q3 -27 4 -64l-232 1l-39 4v-46q13 1 66 5h205v-95l-241 5q-1 1 -2 1v-47q54 6 78 5h165v-90zM601 266q0 24 4 63h-47q0 -9 5 -74l-3 -388
q0 -3 -1 -5q-1 -3 -1 -7h49q-3 6 -4 28q0 21 -2 40v50l293 -1l38 -4v46q-33 -1 -65 -5h-266v91l260 -3l2 -1q3 0 7 -1v46q-33 -1 -66 -5h-203v94q276 0 286 -2q10 0 20 -3v46q-12 -3 -28 -3q-18 -1 -38 -2h-240zM478 626l-331 1q-15 3 -46 4q1 -34 5 -70l-3 -100
q-1 -3 -1 -6q-1 -3 -1 -7h47q-6 51 -5 113v29h335q0 -204 -3 -226v-6q-1 -1 -1 -4q-1 -1 -1 -5h49q-4 57 -5 115v126h356l-3 -123q-3 -3 -3 -12h49q-1 3 -5 65q0 63 2 76q0 18 3 35q-22 -1 -36 -2q-25 -3 -34 -3h-329v66l343 -3q6 0 10 -2v46q-33 -1 -66 -5l-615 1
q-36 3 -41 4v-46q45 4 136 5h194v-66zM411 518q-10 -3 -14 -3q-54 -3 -106 -3l-75 2q-7 1 -13 1q-4 0 -14 3v-44q42 3 84 4q123 0 130 -3q3 0 8 -1v44zM808 522l-65 -4l-157 4v-44q54 6 83 5q63 0 129 -3q4 0 10 -2v44zM809 420q-33 -1 -65 -5q-138 3 -155 5v-44q54 6 83 5
q132 -3 137 -5v44zM410 417q-33 -1 -66 -5l-129 2q-6 1 -10 1q-1 0 -14 2v-44q9 0 14 2l139 2q51 0 64 -3l2 -1v44z" />
  </g>

</svg>
