<?xml version="1.0" standalone="no"?>
<!DOCTYPE svg PUBLIC "-//W3C//DTD SVG 1.1//EN" "http://www.w3.org/Graphics/SVG/1.1/DTD/svg11.dtd" >
<svg xmlns="http://www.w3.org/2000/svg" xmlns:xlink="http://www.w3.org/1999/xlink" version="1.1" viewBox="-10 0 1010 1000">
   <path fill="currentColor"
d="M153 16q53 7 115 8h478q31 0 103 -8v76q-48 -8 -103 -8h-216v41h311q26 0 78 -6q-6 23 -6 68q-1 57 8 99h-90q7 -39 8 -109h-309v36q0 63 10 107h-86q10 -33 10 -109v-34h-313q0 55 8 109h-84q6 -25 6 -103q-1 -41 -6 -66q4 1 11 2q44 6 63 6h315v-41h-196q-60 -1 -115 8
v-76zM188 213q28 4 49 5q18 1 49 1q65 1 109 -6v59q-43 -4 -64 -5q-17 -1 -43 -1q-39 -1 -100 6v-59zM583 217q33 6 96 6q32 0 52 -1q24 -1 55 -5v57q-45 -6 -103 -6q-34 0 -52 1q-21 1 -48 5v-57zM177 298q36 4 58 5q19 1 51 1q29 0 46 -1q21 -1 63 -5v60q-50 -4 -70 -5
q-18 -1 -37 -1q-30 0 -50 1q-24 1 -61 5v-60zM579 298q36 5 108 6q54 0 115 -6v62q-35 -4 -60 -5q-22 -1 -55 -1q-34 0 -54 1q-24 1 -54 5v-62zM520 342q27 40 42 73h200q46 1 103 -8v68q-56 -8 -99 -8h-115q50 17 57 29q-30 12 -55 40h188q62 1 103 -6v68q-52 -8 -101 -8
h-408q2 1 6 2q34 15 51 25q-18 11 -40 38h342q47 0 103 -4v64q-46 -7 -101 -8h-100q-29 40 -69 75q47 9 122 25q94 20 138 27l-40 73q-97 -41 -270 -83q-148 72 -458 79q-11 -42 -50 -79q52 8 107 11q56 3 112 0q122 -6 208 -31q-189 -28 -250 -30l69 -67h-101q-68 1 -105 8
v-68q36 7 107 8h145q21 -27 54 -65h-246q-34 0 -107 8v-70q69 8 105 8h186q-8 -7 -29 -24t-26 -22l89 -15l44 61h144q37 -36 58 -69h-399q-60 0 -97 8v-70q63 10 97 10h256q-11 -19 -33 -47l-9 -12zM623 707h-224l-34 33q106 13 195 28q43 -34 63 -61z" />
</svg>
