<?xml version="1.0" standalone="no"?>
<!DOCTYPE svg PUBLIC "-//W3C//DTD SVG 1.1//EN" "http://www.w3.org/Graphics/SVG/1.1/DTD/svg11.dtd" >
<svg xmlns="http://www.w3.org/2000/svg" xmlns:xlink="http://www.w3.org/1999/xlink" version="1.1" viewBox="-10 0 1034 1024">
  <g transform="matrix(1 0 0 -1 0 820)">
   <path fill="currentColor"
d="M133 115q-24 0 -53 3q-3 0 -13 3v-43q9 3 66 6h207q-27 -28 -78 -77l109 -20q12 -3 26 -5l90 -22q-34 -18 -81 -33q-87 -24 -140 -31q-63 -7 -107 -8q-15 0 -40 2q21 -24 33 -49q135 18 203 37q100 27 189 71q28 -6 53 -14q15 -3 98 -29l105 -32q22 -7 58 -25q3 3 8 13
q4 12 21 28l-307 86q79 66 121 108l219 -1q18 0 38 -5v43q-9 -3 -13 -3q-30 -1 -53 -3h-476q19 21 33 38q12 16 32 44l382 -1l39 -4v44q-7 -1 -14 -3q-22 0 -51 -3h-216q12 12 23 25q33 36 67 49q-16 10 -30 23l143 -1l39 -4v43q-33 -1 -66 -5h-227q6 15 18 30
q-39 21 -66 34q-37 16 -63 31q-10 -18 -23 -32l66 -31q42 -21 55 -32l-355 1q-12 0 -29 4v-43q54 6 85 5h57q-10 -18 -22 -30l75 -42q9 -6 16 -11q10 -6 21 -13l-269 4q-1 1 -3 1v-44q15 1 65 5h235q-10 -9 -21 -26l-44 -55q-1 0 -1 -1h-234zM661 327l-36 -37l-33 -29
q-3 -3 -12 -11l22 -20h-183q3 7 20 27q-100 63 -116 70h338zM647 84q-33 -31 -57 -52q-22 -18 -57 -44q-3 0 -99 23q-24 3 -94 19q15 13 55 54h252zM490 634l-327 1q-3 0 -47 4q1 -33 5 -69q-1 -37 -3 -77q-1 -3 -1 -6q-1 -3 -1 -7h48q-3 4 -3 13q-3 54 -3 82v24h332
q0 -108 -3 -133q-1 -1 -1 -5q-1 -3 -1 -7h50q-6 54 -6 88v57h350l-3 -96q-3 -3 -3 -13h50q-3 7 -6 64l6 85q-34 -1 -70 -5h-324v58q298 0 308 -2q6 0 9 -2q3 0 7 -1v45q-31 -1 -64 -5l-580 3q-7 0 -14 2v-45q49 4 66 5h229v-58zM425 556q-33 -1 -66 -5l-110 2q-4 1 -9 1
l-13 2v-43q30 3 75 4q84 0 100 -2q10 0 23 -2v43zM816 560l-65 -4l-147 4v-43q30 4 71 5l104 -1q24 0 31 -3q3 0 6 -1v43zM818 480q-33 -1 -65 -5l-125 2q-6 1 -12 1q-3 0 -15 2v-43q54 6 77 5l131 -3q6 0 9 -2v43zM427 476q-33 -1 -65 -5q-81 0 -110 2q-6 1 -11 1
q-1 0 -14 2v-43q3 1 8 1q6 3 32 3l95 1q21 0 65 -5v43z" />
  </g>

</svg>
