<?xml version="1.0" standalone="no"?>
<!DOCTYPE svg PUBLIC "-//W3C//DTD SVG 1.1//EN" "http://www.w3.org/Graphics/SVG/1.1/DTD/svg11.dtd" >
<svg xmlns="http://www.w3.org/2000/svg" xmlns:xlink="http://www.w3.org/1999/xlink" version="1.1" viewBox="-10 0 1034 1024">
  <g transform="matrix(1 0 0 -1 0 820)">
   <path fill="currentColor"
d="M385 67q-15 -51 -37 -80q-21 -27 -63 -54q-79 -48 -216 -52l16 -22q12 -15 16 -27q114 19 192 61q54 31 80 64q27 36 55 110h143v-106q0 -63 49 -78q1 0 97 -9l93 6q49 6 73 17q33 18 50 69q3 9 5 19l9 40q-21 7 -53 26q1 -21 2 -37q0 -52 -25 -77q-21 -15 -79 -21
q-63 -3 -72 -4q-1 0 -60 4q-51 3 -51 57v94q156 0 168 -2q15 0 30 -3q-6 54 -6 65l1 159q1 18 5 37q-27 -1 -53 -5l-198 2q-6 3 -13 3v-46q3 3 45 5h175v-63l-207 2q-6 3 -13 3v-46q46 4 91 5h129v-80h-544v68h165q27 0 62 -5v46q-7 0 -16 -3l-211 -2v67q57 7 174 28
q60 12 75 12q6 0 15 -1q-6 4 -20 21q-4 6 -9 10q-6 4 -14 15q-66 -22 -133 -36q-78 -12 -115 -12h-17q1 -27 5 -54l-1 -153q-3 -12 -4 -42q46 4 88 5h122zM89 604q4 -75 5 -78l-4 -85q-1 -1 -1 -4h48q-3 12 -6 58v77h347l-3 -197q-1 -3 -2 -8h49q-6 31 -6 53v152h342v-61
q0 -39 -5 -59h49q-6 25 -6 49q0 67 2 81l4 31q-27 -1 -54 -5h-332v67h271q24 0 62 -5v46q-7 0 -16 -3l-202 -2l-483 4q-4 1 -7 1v-46q3 3 50 5h287v-67l-348 1q-15 3 -41 4v-9zM404 421q-30 -1 -62 -5l-126 2q-6 3 -14 3v-44q49 4 71 5q93 0 109 -2q9 0 22 -3v44zM205 472
q49 4 81 5q78 0 108 -3q6 0 13 -2v44q-7 0 -16 -3l-126 -2q-24 0 -47 2q-6 3 -13 3v-44zM589 385q3 3 45 5q129 0 145 -2q9 0 22 -3v44q-7 0 -16 -3q-139 0 -143 -2q-18 1 -40 2q-6 3 -13 3v-44zM587 479q3 3 45 5q124 0 140 -2q10 0 23 -3v44q-31 -1 -63 -5l-132 2
q-6 3 -13 3v-44z" />
  </g>

</svg>
