<?xml version="1.0" standalone="no"?>
<!DOCTYPE svg PUBLIC "-//W3C//DTD SVG 1.1//EN" "http://www.w3.org/Graphics/SVG/1.1/DTD/svg11.dtd" >
<svg xmlns="http://www.w3.org/2000/svg" xmlns:xlink="http://www.w3.org/1999/xlink" version="1.1" viewBox="-10 0 1034 1024">
  <g transform="matrix(1 0 0 -1 0 820)">
   <path fill="currentColor"
d="M161 352l6 -50l-1 -432l-5 -25h49q-4 19 -5 50v94h203q30 0 63 -5v45q-27 -4 -63 -5h-203v73h169q22 0 47 -3q-1 0 16 -2v45q-10 0 -16 -3q-24 0 -47 -2h-169v70h205q9 0 27 -2l25 -3q-1 13 -3 27q-3 18 -3 43l4 74q0 4 2 11q-27 -1 -54 -5l-210 1q-15 3 -37 4zM418 237
h-213v76h213v-76zM404 -134q6 -9 14 -25q51 12 107 31q90 33 158 78q45 -30 93 -51q19 -9 64 -23q39 -13 91 -29q18 33 33 48q-63 0 -135 23q-67 19 -116 56q52 48 89 86q30 33 69 87q-30 -1 -60 -5l-282 1q-36 3 -40 4v-44l52 4l47 -67q22 -27 60 -68q-105 -75 -255 -87
q4 -9 11 -19zM795 107q-51 -61 -114 -113q-54 52 -91 113h205zM798 240l-231 1q-31 3 -36 4v-45l61 6l204 -1q15 0 45 -5q-4 42 -5 63q0 54 2 64q0 15 3 30q-27 -1 -54 -5l-221 1q-4 1 -6 1q-6 0 -17 2q-3 1 -5 1v-44q3 1 7 1q25 1 53 3h200v-77zM103 627q1 -27 5 -55
l-3 -91q-1 -1 -2 -6h48q-6 25 -6 54v62h344l-1 -190q-3 -7 -4 -19h49q-6 24 -6 37v172h337l-1 -91q-1 -3 -1 -7q0 -3 -4 -12h49q-3 48 -5 93q1 27 5 53q-27 -1 -55 -5h-325v52h236q33 0 63 -5v41q-27 -4 -63 -5l-582 3q-3 1 -11 2v-41q3 1 50 5h269v-52l-347 1q-12 3 -39 4z
M427 441q-24 -4 -63 -5l-151 3q-3 1 -12 2v-39q4 3 47 5l143 -1q15 0 36 -4v39zM210 494q49 4 79 5l101 -1q25 0 38 -4v38l-59 -5q-3 1 -4 0l-150 4q-3 1 -5 1v-38zM597 402q4 3 47 5q124 0 140 -2q9 0 22 -3v39q-27 -4 -91 -5l-107 3q-3 1 -11 2v-39zM599 495q49 4 72 5
l98 -1q15 0 35 -4v39q-60 -6 -84 -6l-108 2q-7 3 -13 4v-39z" />
  </g>

</svg>
