<?xml version="1.0" standalone="no"?>
<!DOCTYPE svg PUBLIC "-//W3C//DTD SVG 1.1//EN" "http://www.w3.org/Graphics/SVG/1.1/DTD/svg11.dtd" >
<svg xmlns="http://www.w3.org/2000/svg" xmlns:xlink="http://www.w3.org/1999/xlink" version="1.1" viewBox="-10 0 1034 1024">
  <g transform="matrix(1 0 0 -1 0 820)">
   <path fill="currentColor"
d="M271 -100q0 -36 -5 -57h48q-4 54 -5 57v245q70 -67 96 -110q19 19 34 28q1 3 4 3q-21 24 -40 40l-72 67l-22 20v28h70q34 0 62 -5v44q-24 -4 -62 -5h-70q0 73 3 80q1 13 10 28h-56q1 -30 5 -60v-48l-149 1l-6 1q-10 1 -22 3v-44q46 4 97 5h77q-36 -85 -94 -161
q-55 -70 -105 -97q30 -15 51 -30q75 85 151 203v-236zM499 337q1 -25 5 -52l-1 -401q-1 -15 -4 -28h47q-6 60 -5 69h299v-6q0 -37 -5 -58h49q-3 27 -5 54l1 385q0 13 4 37q-27 -1 -54 -5l-294 1q-15 3 -37 4zM541 207v92h299v-92h-299zM541 84v91h299v-91h-299zM840 -43
h-299v96h299v-96zM124 510q0 -33 -3 -45q-1 -6 -3 -12h48q0 6 -2 12q-3 6 -3 32l-1 85h351v-151q0 -30 -3 -44q0 -3 -3 -12h49q-6 60 -5 86v121h341v-61q0 -36 -5 -56h48q-6 60 -5 92q1 31 5 64q-45 -4 -56 -5h-328v58h247q27 0 62 -5v44q-24 -4 -62 -5l-612 4q-3 1 -5 1
v-44h2q0 1 25 4l305 1v-58l-353 1q-3 0 -40 4q6 -54 6 -81v-30zM441 433q-9 -1 -16 -3q-151 0 -155 -2q-19 1 -39 2q-3 0 -8 2q-3 1 -5 1v-39l60 4l132 -1q21 0 31 -3v39zM218 484h2q0 1 48 5l137 -1q15 0 31 -4v39q-24 -4 -62 -5l-145 3q-3 1 -11 2v-39zM617 397q3 1 50 5
q141 0 155 -2q9 0 19 -3v39q-9 -1 -16 -3q-151 0 -155 -2q-18 1 -40 2q-6 3 -13 3v-39zM617 491q6 3 46 6l145 -1q15 -1 33 -5v39q-99 -4 -103 -5l-108 2q-6 3 -13 3v-39z" />
  </g>

</svg>
