<?xml version="1.0" standalone="no"?>
<!DOCTYPE svg PUBLIC "-//W3C//DTD SVG 1.1//EN" "http://www.w3.org/Graphics/SVG/1.1/DTD/svg11.dtd" >
<svg xmlns="http://www.w3.org/2000/svg" xmlns:xlink="http://www.w3.org/1999/xlink" version="1.1" viewBox="-10 0 1010 1000">
   <path fill="currentColor"
d="M859 14v78q-14 -6 -149 -6h-170v51h285q49 0 88 -5q7 -1 8 -1q-5 18 -4 66v26q0 52 8 61h-88q4 -27 4 -61v-26h-301v119q-1 58 4 77h-80q4 -33 4 -83v-113h-305v22q0 35 4 65h-88q0 -2 1 -6q7 -37 7 -53v-30q0 -50 -4 -64q24 6 76 6h309v-51h-162q-140 -1 -149 8v-80
q20 8 147 8h408q124 0 147 -8zM202 233q29 3 107 3q79 0 110 -3v55q-37 -3 -113 -3t-104 3v-55zM802 233v55q-37 -3 -108 -3t-103 3v-55q104 6 211 0zM202 326q30 3 105 3t112 -3v55q-35 -3 -108 -3q-74 0 -109 3v-55zM591 326q32 3 104 3t107 -3v55q-31 -3 -106 -3t-105 3
v-55zM220 401h26q67 -2 66 6q1 3 -3 11q-15 26 -15 69h65q54 -1 78 -4v63q-22 -5 -82 -4h-61v260q0 84 8 95h-84q8 -19 8 -93v-210q-17 74 -127 224l-5 -5q-35 -41 -60 -49q114 -88 176 -222h-65q-65 -1 -83 4v-63q29 3 83 4h83q-1 -69 -8 -86zM464 421q28 6 98 6h222
q55 0 97 -6q-6 33 -6 97v278q0 63 6 99h-81q5 -15 4 -61h-262q-1 50 4 61h-82q6 -24 6 -97v-286q0 -55 -6 -91zM542 487v59h262v-59h-262zM542 598v61h262v-61h-262zM542 711v63h262v-63h-262zM306 633l41 -35q43 39 82 87l-54 42q-23 -41 -69 -94z" />
</svg>
