<?xml version="1.0" standalone="no"?>
<!DOCTYPE svg PUBLIC "-//W3C//DTD SVG 1.1//EN" "http://www.w3.org/Graphics/SVG/1.1/DTD/svg11.dtd" >
<svg xmlns="http://www.w3.org/2000/svg" xmlns:xlink="http://www.w3.org/1999/xlink" version="1.1" viewBox="-10 0 1010 1000">
   <path fill="currentColor"
d="M171 28q70 4 129 4h412q70 0 141 -4v60q-48 -4 -139 -4h-176v49h254q67 0 139 -4q-4 31 -4 86q0 29 4 69h-80q4 -49 4 -95h-317v26q0 63 4 141h-80q4 -70 4 -141v-26h-315q0 50 4 87h-82v-3q4 -35 4 -66q0 -50 -4 -78q50 4 108 4h285v-49h-168q-62 0 -127 4v-60zM194 221
q58 4 104 4q60 0 121 -4v53q-47 -3 -121 -4q-51 0 -104 4v-53zM581 223q45 3 107 4q66 0 110 -4v53q-46 -4 -106 -4q-59 0 -111 4v-53zM196 308q50 4 108 4q64 0 115 -4v54q-63 -4 -117 -4q-64 0 -106 4v-54zM581 310q53 4 106 4q58 0 115 -4v53h-10q-56 -3 -104 -3
q-36 0 -91 2q-11 1 -16 1v-53zM177 365q28 17 91 61q26 18 40 27l-54 55q-68 -61 -125 -91zM857 377q64 64 62 76q-3 1 -25 -2q-37 -5 -53 -4q-325 12 -500 14q3 -28 -35 -68q110 9 295 4q175 -5 256 -20zM776 461q73 13 79 24q1 3 -7 7q-36 20 -66 76q-40 -16 -68 -16
q45 -49 62 -91zM615 467q6 12 27 59q8 18 13 28l-68 24q-4 -42 -35 -93zM429 475q16 17 19 20q3 2 11 14q6 9 29 39l-61 30q-14 -35 -56 -78zM89 483q84 46 139 85l-51 63q-33 -42 -135 -93zM855 572q60 58 60 73q-2 1 -23 0q-103 -8 -241 -2v50h133q66 0 141 -8v73
q-2 0 -7 -1q-74 -9 -138 -9h-129v60h101q60 0 82 -1q28 -1 49 -5v67q-40 -6 -133 -6h-260q-55 0 -84 1q-33 2 -57 5v-69q61 8 145 8h89v-60h-158q-75 0 -129 8v-71q49 8 129 8h158v-48q-38 0 -115 1q-82 1 -125 1q-22 -41 -49 -65q57 6 134 9q79 3 164 1q179 -4 263 -20z
M218 631q26 45 52 60q-91 93 -125 190q-30 -45 -66 -67q67 -58 139 -183z" />
</svg>
