<?xml version="1.0" standalone="no"?>
<!DOCTYPE svg PUBLIC "-//W3C//DTD SVG 1.1//EN" "http://www.w3.org/Graphics/SVG/1.1/DTD/svg11.dtd" >
<svg xmlns="http://www.w3.org/2000/svg" xmlns:xlink="http://www.w3.org/1999/xlink" version="1.1" viewBox="-10 0 1034 1024">
  <g transform="matrix(1 0 0 -1 0 820)">
   <path fill="currentColor"
d="M174 55q0 6 2 25q1 15 11 37h-55q1 -30 5 -62v-142q-33 -6 -74 -9q6 -15 29 -52l217 58l134 30q3 27 14 53q-46 -18 -156 -45v116h56q27 0 63 -5v46q-27 -4 -63 -5h-56v77q87 0 98 -2q10 0 30 -3q-4 42 -5 63l1 80l4 34q-24 -1 -50 -5l-207 1q-12 3 -35 4q6 -36 6 -58
q0 -66 -2 -90l-4 -29q39 4 79 5h47v-235q-40 -12 -89 -20v133zM180 213v95h206v-95h-206zM619 316q21 27 55 45q-24 9 -58 26q-27 -48 -87 -110q-45 -45 -93 -61q25 -15 45 -34q27 21 40 37q19 18 29 28q18 15 36 33h200q-36 -33 -62 -53q-21 -16 -47 -34q-51 36 -69 71
q-15 -18 -32 -34q15 -16 43 -39q10 -7 21 -17q-43 -21 -86 -36q-67 -22 -127 -30q7 -10 29 -45q54 15 102 34q51 19 120 51q57 -30 130 -54q42 -13 72 -22q24 -6 44 -10q9 13 20 27l13 19q-126 1 -243 65q58 43 95 78q33 31 64 70q-30 -1 -59 -5h-195zM520 -92q0 -37 -4 -54
q-1 -3 -1 -7h46q-3 13 -4 52h251q-1 -6 -2 -32q0 -12 -2 -17h48q-6 24 -6 58v117q0 9 3 28l3 24q-25 -1 -51 -5l-250 1q-15 3 -36 4q1 -25 5 -52v-117zM557 -66v102h251v-102h-251zM107 627q6 -54 6 -80q0 -57 -5 -79q-1 -1 -1 -3h49q-4 15 -5 34l-1 87h339v-141
q0 -33 -2 -47l-3 -12h49q-6 25 -6 49v151h340l-3 -109q-1 -3 -2 -7h49q-3 15 -4 23l-2 68l6 66q-27 -1 -55 -5h-329v63h278q28 0 63 -5v46l-39 -4l-669 3q-4 1 -7 1v-46q3 1 51 5h285v-63l-347 1q-12 3 -35 4zM421 444q-31 -1 -63 -5l-143 4q-4 1 -7 1v-46q3 1 49 5l128 -1
q15 0 36 -4v46zM212 488q4 3 54 6l112 -1q4 0 10 -1l32 -4v44l-39 -4l-156 1q-6 3 -13 3v-44zM596 399q49 4 75 5q114 0 130 -2q10 0 23 -3v44q-31 -1 -63 -5l-160 4q-3 1 -5 1v-44zM596 489q3 3 37 5l122 1q31 0 62 -6v45q-4 0 -29 -5q-4 1 -9 0l-170 1q-7 3 -13 4v-45z
" />
  </g>

</svg>
