<?xml version="1.0" standalone="no"?>
<!DOCTYPE svg PUBLIC "-//W3C//DTD SVG 1.1//EN" "http://www.w3.org/Graphics/SVG/1.1/DTD/svg11.dtd" >
<svg xmlns="http://www.w3.org/2000/svg" xmlns:xlink="http://www.w3.org/1999/xlink" version="1.1" viewBox="-10 0 1010 1000">
   <path fill="currentColor"
d="M452 395q39 8 74 8h272q38 0 83 -6q-8 27 -8 62v145q0 45 4 65q-23 -4 -67 -4h-122v52h108q39 0 81 -6v61q-23 -4 -81 -4h-108v54h133q52 0 94 -4v63q-48 -6 -102 -6h-299q-43 0 -61 1q-21 1 -36 3v-63q30 6 91 6h123v-54h-97q-45 0 -82 6v-63q30 6 80 6h99v-52h-107
q-35 -1 -74 2q1 -4 2 -11q6 -44 6 -64v-121q0 -46 -6 -76zM688 455v55h122v-55h-122zM631 455h-109v55h109v-55zM383 447q58 45 57 55q-1 4 -15 6q-18 3 -28 8q-72 36 -105 52q111 82 101 194q-8 122 -153 145q-5 -47 -42 -77q145 18 137 -117q-148 104 -252 150
q-21 -36 -47 -55q147 -29 283 -143q-14 -22 -21 -30q-26 16 -43 26q-60 41 -155 80q-10 4 -21 9q-3 -13 -39 -45q117 -30 226 -99l-6 -6q-9 -10 -16 -16q-113 40 -171 57l-33 -55q71 -9 133 -28q-28 -24 -46 -38l58 -28q19 21 37 46q17 -3 55 -19q8 -3 13 -5
q-16 -25 -50 -37l64 -26q19 18 31 36q31 -23 48 -40zM688 556v57h122v-57h-122zM631 556h-109v57h109v-57zM361 411q-3 4 -14 4q-19 2 -34 8q-32 14 -124 44q-49 16 -82 27q-16 -38 -45 -53q115 -12 250 -78q53 43 49 48zM861 10v72q-25 -6 -109 -6h-222v61h293q66 -1 98 -4
q-5 24 -4 76v33l4 84h-82q5 -41 6 -63q2 -25 2 -70h-317v97q0 61 6 81h-84q6 -23 6 -83v-95l-301 2q0 92 6 125h-86q6 -29 6 -82v-31q0 -48 -4 -74q36 3 96 4h283v-61h-202q-48 0 -68 1q-24 1 -41 3v-70q33 6 107 6h381h111q94 0 115 -6zM567 223q0 -1 12 0q37 4 72 4h32
q30 0 81 -4v55q-25 -4 -74 -4h-43q-58 -1 -80 4v-55zM329 229q54 0 80 -4v55l-74 -4h-35q-42 0 -53 1q-14 0 -29 3v-55q31 4 84 4h27zM704 314q43 0 82 -4v55l-68 -3h-57q-41 0 -56 1q-18 0 -28 2v-55q39 4 82 4h45zM196 304q13 0 42 1q35 1 54 1h35q45 -1 86 -4v56
q-24 -5 -84 -4h-35q-47 0 -64 1q-22 1 -34 3v-54z" />
</svg>
