<?xml version="1.0" standalone="no"?>
<!DOCTYPE svg PUBLIC "-//W3C//DTD SVG 1.1//EN" "http://www.w3.org/Graphics/SVG/1.1/DTD/svg11.dtd" >
<svg xmlns="http://www.w3.org/2000/svg" xmlns:xlink="http://www.w3.org/1999/xlink" version="1.1" viewBox="-10 0 1010 1000">
   <path fill="currentColor"
d="M859 4v82q-40 -9 -109 -8h-216v47h319q30 0 82 -8q-6 41 -6 78q1 55 6 89h-88q0 -7 2 -24q4 -57 4 -79h-319v87q1 69 8 109h-88q8 -44 8 -109v-87h-313q1 75 6 113h-88q10 -32 10 -91q0 -42 -8 -86q52 8 80 8h313v-47h-232q-30 0 -105 8v-80q80 8 105 8h526q46 0 103 -10
zM597 221q37 8 97 8q43 0 63 -1q25 -1 49 -5v65q-38 -6 -106 -6q-48 0 -63 1q-21 1 -40 5v-67zM196 229q54 5 106 6q62 -1 101 -6v59q-34 -6 -99 -6q-77 1 -108 6v-59zM804 314v61q-37 -8 -102 -8q-70 0 -107 6v-59q47 7 105 8q68 -1 104 -8zM194 320q51 6 98 6q60 0 111 -6
v59q-51 -6 -109 -6h-24q-52 -1 -76 4v-57zM732 381q4 9 14 34q9 22 14 34h61q36 -1 96 -10v71q-45 -8 -96 -8h-208q-50 0 -95 8v-69q47 8 101 8h68q-9 -28 -42 -60zM123 423l73 8h211q38 0 73 -6q-8 36 -8 83q0 51 6 92q-27 -4 -73 -4h-218q-1 7 -4 19q-3 20 -6 28
q25 6 63 6h169q27 0 71 -8q-8 51 -8 70v73q1 42 8 93h-85q6 -25 6 -53h-159q1 26 6 57h-83q8 -36 10 -99v-65q0 -12 -6 -48q-18 74 -82 169q-13 -40 -49 -62q87 -100 89 -284v-11q1 -34 -4 -58zM196 485q0 36 -4 57h213v-57h-209zM643 516q12 30 32 70l-68 16
q-14 -44 -34 -70zM786 522q79 27 79 32q-15 8 -40 38q-11 14 -17 20h27q44 0 94 -8v69q-39 -8 -92 -8h-85v64h56q56 0 101 -8v73q-54 -9 -101 -8h-56q1 81 8 123h-85q9 -54 10 -123h-64q-35 0 -99 8v-71q45 7 95 8h68v-66h-76q-59 0 -101 8v-73q57 10 101 10h141
q24 -40 36 -88zM240 703v67h161v-67h-161z" />
</svg>
