<?xml version="1.0" standalone="no"?>
<!DOCTYPE svg PUBLIC "-//W3C//DTD SVG 1.1//EN" "http://www.w3.org/Graphics/SVG/1.1/DTD/svg11.dtd" >
<svg xmlns="http://www.w3.org/2000/svg" xmlns:xlink="http://www.w3.org/1999/xlink" version="1.1" viewBox="-10 0 1034 1024">
  <g transform="matrix(1 0 0 -1 0 820)">
   <path fill="currentColor"
d="M287 332q-9 15 -23 35q-12 -12 -30 -21q18 -18 34 -50q-21 -15 -46 -29l-33 50l-30 -23q9 -13 23 -29l10 -13q-24 -16 -59 -32q-30 -12 -59 -17q15 -18 28 -42l74 37q27 18 54 31q4 3 18 11q15 -12 30 -31q-25 -24 -80 -63q-54 -34 -95 -45q18 -15 33 -40q36 21 69 45
l93 70q9 -21 17 -47q-66 -64 -168 -119q-36 -16 -70 -25q15 -15 37 -44q39 22 67 41l130 88l9 7q1 -18 2 -41q0 -67 -12 -97q-18 -42 -80 -42q-24 0 -53 9q21 -52 23 -56q42 3 70 9q57 12 76 67q13 37 14 120q0 81 -23 139q-18 42 -53 77q10 6 20 13q66 51 81 56q12 6 26 8
q-19 15 -45 39q-15 -19 -25 -29q-15 -13 -45 -35zM131 296q72 51 111 82q24 19 30 22q6 4 26 7q-21 13 -33 24q109 0 130 -2q6 0 23 -3v43q-19 -4 -58 -5l-113 1q-6 1 -21 2q-3 1 -6 1q-6 0 -7 1v-42q12 1 27 3q-27 -31 -65 -59q-52 -36 -99 -51q21 -18 36 -38q9 7 19 14z
M627 -77l-204 1q-31 3 -38 4v-42q15 3 66 5q487 -3 494 -5v42q-12 -3 -36 -4l-243 -1v80l179 -1q24 0 33 -4q3 0 6 -2v41q-31 -1 -64 -5h-154v77l152 -1q12 0 25 -3q4 0 23 -2q-4 54 -5 77q0 156 2 167q0 19 3 39q-33 -1 -66 -5l-321 1q-15 3 -45 4q1 -31 5 -64l-1 -171
q-3 -12 -4 -48q36 6 93 6h100v-77h-143q-24 0 -51 3q-1 0 -14 2v-42q63 6 84 6h124v-78zM476 265v84h151v-84h-151zM627 141h-151v94h151v-94zM666 265v84h157v-84h-157zM666 141v94h157v-94h-157zM488 643l-329 1q-15 3 -46 4l4 -156q-3 -12 -3 -20q-1 -3 -1 -6h47
q0 1 -5 65v76h333q0 -150 -3 -171v-3q-1 -1 -1 -5q-1 -3 -1 -7h50q-3 7 -3 12q-3 54 -3 79v95h347l-3 -121q0 -4 -2 -12h48q0 3 -5 64l5 110q-34 -1 -69 -5h-321v56q303 0 319 -3q10 0 20 -3v47q-6 0 -14 -3q-25 0 -52 -3l-598 1q-12 1 -25 2q-6 1 -13 3v-47q60 6 82 6h242
v-56zM418 560q-12 -1 -14 -2l-101 -3q-72 3 -89 5v-43q3 1 6 1q75 3 117 4q34 0 71 -3q6 0 10 -2v43zM810 562q-28 -4 -65 -5h-87q-25 0 -66 5v-43q45 4 136 5q78 -3 82 -5v43zM810 474q-33 -1 -65 -5q-96 0 -127 2q-12 3 -24 3v-43q45 4 134 5q54 0 71 -3q6 0 11 -2v43z
" />
  </g>

</svg>
