<?xml version="1.0" standalone="no"?>
<!DOCTYPE svg PUBLIC "-//W3C//DTD SVG 1.1//EN" "http://www.w3.org/Graphics/SVG/1.1/DTD/svg11.dtd" >
<svg xmlns="http://www.w3.org/2000/svg" xmlns:xlink="http://www.w3.org/1999/xlink" version="1.1" viewBox="-10 0 1010 1000">
   <path fill="currentColor"
d="M149 2q28 8 196 8h330q87 0 123 -2q42 -1 59 -6v72q-18 -5 -53 -7q-17 0 -44 -1h-79h-143v47h240q134 0 155 -7q-9 17 -8 77q0 52 8 67h-86q4 -11 5 -28q1 -12 1 -57h-315v48q0 54 2 77q1 23 6 40h-86q9 -24 10 -115v-50h-311q0 73 6 99h-84q8 -23 8 -79q-1 -56 -6 -79
q28 7 177 7h210v-47h-125q-143 1 -196 10v-74zM813 199v57q-7 -7 -111 -6h-26q-78 -1 -93 6v-57q19 4 45 5q12 1 29 1h41q67 0 83 -1q23 -1 32 -5zM206 197q11 9 102 8q92 0 119 -6v55q-13 -4 -36 -5q-11 -1 -28 -1h-51q-83 0 -106 6v-57zM425 278v52q-8 -2 -32 -3
q-12 -1 -30 -1h-50q-85 0 -105 6v-54q43 6 104 6q93 0 113 -6zM813 282v56q-7 -4 -27 -5q-13 -1 -82 -1q-96 0 -119 6v-56q10 4 35 5q12 1 31 1h53q59 0 78 -1q23 -1 31 -5zM169 346q67 1 77 8q0 3 -3 10q-9 18 -9 37h153q0 -20 -2 -41v-6q66 1 69 8q0 2 -2 7q-6 13 -6 30
q67 1 84 -6v58q-17 -6 -84 -6q0 74 8 95q-13 -4 -48 -7q-33 -2 -69 -1v40h48q88 0 121 -8q-7 27 -8 75q0 71 8 86q-39 -9 -121 -8h-48v43h42q56 0 77 -1q26 -2 40 -7v72q-22 -10 -119 -10h-38q0 70 6 85h-71q8 -19 8 -85h-48q-122 0 -155 10v-72q32 8 153 8h50v-43h-52
q-79 0 -113 8q8 -26 8 -80q0 -45 -1 -57q-1 -17 -5 -24q28 8 127 8h38v-40q-101 -1 -121 8q8 -25 8 -95q-72 -1 -98 6v-56q9 4 32 5q11 1 26 1h42q1 -44 -4 -55zM885 381q-8 43 -8 157v270q3 55 -20 68q-21 18 -107 27q-1 -49 -28 -79q90 10 88 -26v-89h-181
q-21 122 -77 196q-29 -21 -82 -32q106 -81 101 -315v-25q1 -119 -8 -152q20 5 58 7q18 0 44 1h71q68 0 96 -1q33 -2 53 -7zM639 439v83h171v-83h-171zM387 443h-155v45h155v-45zM639 570l-4 85h175v-85h-171zM438 617h-101v58h101v-58zM284 617h-99v58h99v-58z" />
</svg>
