<?xml version="1.0" standalone="no"?>
<!DOCTYPE svg PUBLIC "-//W3C//DTD SVG 1.1//EN" "http://www.w3.org/Graphics/SVG/1.1/DTD/svg11.dtd" >
<svg xmlns="http://www.w3.org/2000/svg" xmlns:xlink="http://www.w3.org/1999/xlink" version="1.1" viewBox="-10 0 1034 1024">
  <g transform="matrix(1 0 0 -1 0 820)">
   <path fill="currentColor"
d="M259 427h-150q-36 0 -46 2q-4 0 -13 4v-47q28 3 59 5l343 -1q18 0 35 -4v47q-9 0 -22 -4l-168 -2v81h88q12 0 46 -3q3 0 16 -2v47q-21 -1 -44 -5l-106 -1v77q126 0 143 -2l28 -3v47q-4 0 -7 -2q-75 -3 -114 -4h-50q0 72 3 80q1 13 10 30h-56q1 -30 5 -61v-49l-175 3l-9 3
v-47q49 4 69 5h115v-77l-147 3q-3 1 -8 3v-47q42 6 67 5h88v-81zM120 306q1 -16 5 -34l-1 -391q-3 -16 -5 -24h48q-6 60 -6 86v73h227v-66q0 -34 -28 -39q-24 -3 -42 -3q-9 0 -43 4q9 -21 17 -46q24 3 52 3q28 1 47 7q34 13 35 65l1 345l4 39q-4 0 -8 -1q-18 -1 -16 -2
q-19 -3 -27 -3l-225 1q-6 0 -19 3q-4 0 -17 2q0 -9 1 -19zM388 52h-227v99h227v-99zM388 187h-227v96h227v-96zM427 -127q30 -18 45 -30q129 105 186 227q27 60 44 145q13 82 22 218q3 61 8 77q3 13 16 28q-21 1 -32 4q-6 3 -35 7q4 -34 5 -79q0 -37 -4 -103
q-6 -87 -22 -165q-36 -159 -142 -263q-42 -42 -91 -66zM539 264q0 -42 -5 -58h47q-3 28 -5 58v421h258v-417q0 -45 -5 -59h48q0 6 -2 12q-3 48 -3 74l1 391l4 40q-27 -1 -56 -5l-246 1q-3 0 -41 4q1 -27 5 -57v-405zM761 170q0 7 2 22q1 16 11 39h-56q1 -30 5 -61l1 -236
q1 -24 11 -37q15 -21 50 -28q25 -3 41 -4q10 0 36 3q37 3 55 13q27 13 41 57q7 22 16 67q-19 3 -55 17q3 -24 3 -37q0 -33 -8 -53q-9 -22 -47 -27q-24 -3 -38 -3q-33 0 -47 8q-21 9 -21 59v201z" />
  </g>

</svg>
