<?xml version="1.0" standalone="no"?>
<!DOCTYPE svg PUBLIC "-//W3C//DTD SVG 1.1//EN" "http://www.w3.org/Graphics/SVG/1.1/DTD/svg11.dtd" >
<svg xmlns="http://www.w3.org/2000/svg" xmlns:xlink="http://www.w3.org/1999/xlink" version="1.1" viewBox="-10 0 1010 1000">
   <path fill="currentColor"
d="M242 -6q59 0 73 1q19 2 20 7q1 2 -3 6q-13 13 -13 36v38h50q95 0 117 -6v69q-36 -9 -117 -8h-50v64q128 0 143 -6v69q-18 -9 -143 -8v62h32q112 0 141 -6v71q-28 -10 -151 -10h-141q-109 0 -144 10v-75q25 10 150 10h44v-60q-124 0 -149 8q6 -25 0 -71q18 8 149 8v-64
h-38q-99 1 -139 8v-71q30 8 139 8h38q0 -74 -8 -90zM903 38q-6 49 -6 161v220q0 136 10 163h-95q9 -24 9 -157v-312h-216v314q0 144 6 159h-91q10 -32 10 -161v-200q0 -146 -8 -187q31 8 166 8h62q108 -1 153 -8zM669 169q105 10 99 14q0 3 -6 8q-16 14 -16 42
q-3 158 -22 297q66 0 68 12q0 3 -4 13q-12 25 -12 43v152q-6 53 45 50q63 9 54 -111q49 37 91 46q-14 151 -115 142h-75q-44 1 -55 -15q-13 -16 -13 -70v-139q0 -15 1 -38q0 -27 -1 -31q-48 180 -206 319q-40 -37 -85 -53q162 -87 215 -236q28 -77 37 -184q9 -106 0 -261z
M97 419q35 8 131 8h80q106 0 146 -8q-6 56 -6 165v196q5 77 -127 87q4 -44 -33 -87q55 13 75 2q9 -5 12 -19q2 -9 2 -52h-198v80q0 27 1 42q2 33 7 42h-92q12 -26 12 -166v-127q0 -127 -10 -163zM377 475h-198v71h198v-71zM179 594v69h198v-69h-198z" />
</svg>
