<?xml version="1.0" standalone="no"?>
<!DOCTYPE svg PUBLIC "-//W3C//DTD SVG 1.1//EN" "http://www.w3.org/Graphics/SVG/1.1/DTD/svg11.dtd" >
<svg xmlns="http://www.w3.org/2000/svg" xmlns:xlink="http://www.w3.org/1999/xlink" version="1.1" viewBox="-10 0 1034 1024">
  <g transform="matrix(1 0 0 -1 0 820)">
   <path fill="currentColor"
d="M267 425l-195 2q-6 3 -13 3v-46q49 4 79 5l299 -1q16 0 35 -4v46l-106 -5h-61v81h57q27 0 63 -5v46q-9 0 -17 -3l-103 -2v93l127 -1l33 -4v46q-9 -1 -17 -3q-15 -1 -47 -2h-96q0 69 3 78q1 15 10 27h-56l4 -40l1 -65l-162 2q-6 3 -13 3v-46h2q1 1 5 1q6 3 38 3l130 1v-93
l-126 4q-4 1 -7 1v-46h2q1 1 47 5h84v-81zM128 -81l-2 -48l-3 -12h47l-4 35l-1 151h227v-92q0 -39 -26 -44q-31 -3 -54 -4q-10 1 -27 4q12 -22 20 -45q24 0 50 5q42 6 61 24q13 15 14 67l1 325l4 41q-27 -1 -54 -5l-220 1q-15 3 -38 4q1 -28 5 -58v-349zM392 197h-227v88
h227v-88zM165 80v81h227v-81h-227zM453 472q3 -1 8 -3q12 12 26 30l100 130h192l-55 -89q-19 -30 -43 -63l-176 3q-9 3 -15 3v-46q49 4 74 5h87v-128l-173 2q-6 3 -13 3v-46q3 3 45 5h141v-136l-151 2q-6 3 -14 3v-46h2q3 3 44 5h119v-169q0 -25 -4 -34q-4 -7 -22 -13
q-19 -3 -36 -4q-21 0 -50 4q15 -33 20 -51q84 6 107 20q22 16 23 67v180h163q-1 -33 -4 -44h48q-6 24 -6 48v168h16q27 0 62 -5v46q-7 0 -16 -3l-62 -2l1 129q1 19 5 40q-13 -1 -27 -3q-21 -3 -26 -3h-116q12 19 24 37q15 22 29 46q31 55 68 110q-60 -4 -88 -5h-154
q7 13 15 25q24 42 52 57q-39 15 -57 26q-33 -84 -74 -145q-60 -90 -123 -137zM689 142v136h163v-136h-163zM689 314v128h163v-128h-163z" />
  </g>

</svg>
