<?xml version="1.0" standalone="no"?>
<!DOCTYPE svg PUBLIC "-//W3C//DTD SVG 1.1//EN" "http://www.w3.org/Graphics/SVG/1.1/DTD/svg11.dtd" >
<svg xmlns="http://www.w3.org/2000/svg" xmlns:xlink="http://www.w3.org/1999/xlink" version="1.1" viewBox="-10 0 1034 1024">
  <g transform="matrix(1 0 0 -1 0 820)">
   <path fill="currentColor"
d="M266 429h-142q-3 0 -48 3q-6 0 -16 2v-45q4 1 9 1q0 1 55 4l329 -1q15 0 25 -2q7 0 14 -2v45q-9 -1 -14 -2q-37 0 -75 -3h-99v73l137 -3q6 0 10 -2v45q-7 -1 -14 -3q-25 0 -50 -2h-83v80q138 0 145 -2q16 0 25 -4v46q-4 -3 -13 -3q-27 -1 -50 -3h-107v53q0 39 12 65h-55
q1 -31 5 -65v-53h-111q-6 0 -47 3q-6 0 -16 3v-46q4 1 9 1q1 1 5 1q7 3 86 4h74v-80l-133 3q-6 0 -10 2v-45q6 3 59 5h84v-73zM137 326q1 -30 5 -61l-1 -354q-1 -7 -2 -29q-1 -3 -1 -7q-1 -3 -1 -6h46q-3 16 -5 54v106h209v-66q0 -19 -12 -28q-21 -10 -47 -11q-24 1 -47 3
q6 -12 11 -21q3 -9 8 -28l43 5q39 7 59 20q21 13 22 68l1 312l4 43q-66 -4 -100 -5l-156 1q-4 1 -8 1zM178 63v93h209v-93h-209zM178 191v97h209v-97h-209zM592 3q31 -36 49 -52q34 -24 89 -40q37 -9 95 -12l101 -5q10 0 25 1q1 9 3 15q0 3 6 15q1 3 3 7q3 6 6 14
q-52 -9 -104 -10q-33 0 -63 3q-33 3 -69 13v238q162 -3 166 -5v45q-4 -1 -13 -2q-27 -1 -50 -3h-103v174q159 0 170 -3q6 0 9 -2v45q-31 -1 -64 -5l-282 1q-16 1 -19 2l-17 2v-45q4 0 10 1q7 3 33 4h124v-434q-34 18 -68 53q-30 33 -48 68q6 45 11 90q3 42 8 55q3 12 15 30
q-12 0 -57 5q-1 -181 -50 -280q-36 -66 -73 -95q28 -7 49 -18q51 72 83 160q12 -15 25 -30zM576 631q-34 3 -70 5q1 -31 5 -64l-1 -56q-3 -21 -3 -27q-1 -3 -1 -6h46q0 1 -5 62v51h319l-2 -95l-2 -6t-1 -7h48q-3 15 -4 36q-1 24 -2 56l6 56q-33 -1 -67 -5h-102q10 12 20 23
q4 3 10 10q-37 31 -58 50l-47 43q-12 7 -18 14q-16 -18 -32 -31q60 -42 119 -109h-158z" />
  </g>

</svg>
