<?xml version="1.0" standalone="no"?>
<!DOCTYPE svg PUBLIC "-//W3C//DTD SVG 1.1//EN" "http://www.w3.org/Graphics/SVG/1.1/DTD/svg11.dtd" >
<svg xmlns="http://www.w3.org/2000/svg" xmlns:xlink="http://www.w3.org/1999/xlink" version="1.1" viewBox="-10 0 1034 1024">
  <g transform="matrix(1 0 0 -1 0 820)">
   <path fill="currentColor"
d="M59 -13q0 -3 1 -5q1 -1 4 -8l121 39l228 59q0 19 4 35q0 3 2 17q-37 -16 -67 -27q-31 -10 -91 -27q0 10 19 68q12 39 25 77q48 163 53 172q12 27 32 39q-21 6 -65 21q-4 -31 -12 -60q-6 -33 -21 -83q-25 -96 -43 -150l-30 -94q-103 -28 -175 -36q6 -12 8 -18q3 -9 7 -19z
M407 551l-59 -5q-3 1 -4 0l-281 4q-3 1 -5 1v-46q3 1 49 5l265 -1q15 0 35 -4v46zM132 428q-21 -7 -40 -13q31 -90 74 -277q3 0 5 2q3 0 8 3q7 1 13 4q4 1 13 3q-6 31 -25 97q-22 96 -48 181zM147 721q69 -91 90 -148q13 10 28 19q3 1 12 8q-15 27 -34 56l-57 87q-1 0 -4 -2
q-3 -1 -8 -7q-15 -4 -27 -13zM643 424l-199 1q-39 4 -43 5v-46q30 3 61 5l484 -1q15 0 36 -4v46q-27 -4 -63 -5h-236v84h144q27 0 62 -5v46q-7 0 -16 -3l-190 -2v89h176q34 0 63 -6v46q-9 -1 -16 -3q-15 -1 -47 -2h-176q0 72 3 80q1 13 11 28h-59q0 -9 2 -14q3 -18 3 -77
v-17l-204 2q-6 3 -13 3v-46q36 6 60 6h157v-89l-174 4q-4 1 -7 1v-46q3 3 45 5h136v-85zM472 -99q0 -30 -2 -47q-1 -6 -3 -12h47l-4 35l-1 142h322v-81q0 -39 -22 -46q-15 -3 -36 -3q-22 0 -48 4q7 -18 19 -54q39 4 54 8q43 9 58 23q12 12 13 47l1 356l4 39q-28 -1 -57 -5
l-314 1q-15 3 -36 4q1 -27 5 -55v-356zM509 55v82h322v-82h-322zM509 173v98h322v-98h-322z" />
  </g>

</svg>
