<?xml version="1.0" standalone="no"?>
<!DOCTYPE svg PUBLIC "-//W3C//DTD SVG 1.1//EN" "http://www.w3.org/Graphics/SVG/1.1/DTD/svg11.dtd" >
<svg xmlns="http://www.w3.org/2000/svg" xmlns:xlink="http://www.w3.org/1999/xlink" version="1.1" viewBox="-10 0 1034 1024">
  <g transform="matrix(1 0 0 -1 0 820)">
   <path fill="currentColor"
d="M207 379q12 -13 16 -20q7 -9 16 -24q42 15 85 29v-25q24 4 52 5h160q-9 -39 -23 -81l-192 1q-12 3 -40 4q6 -60 6 -80l-1 -309q-3 -18 -3 -27q0 -1 -2 -8h49q-6 30 -6 76h512q-1 -28 -3 -58q-1 -1 -3 -6h49q-1 3 -1 5q-3 6 -3 39l-1 308q1 30 5 60q-28 -1 -57 -5h-267
l22 81l242 -4l2 -1v39l90 -24l30 -7l28 48q-13 0 -23 -1q-24 0 -56 5q-96 18 -161 54q-48 27 -93 66h213q25 0 50 -3q6 0 13 -3v45q-9 -3 -38 -4l-323 -1q21 66 30 78q4 7 14 17q-31 3 -60 12q-6 -51 -26 -107l-254 3q-3 1 -5 1q-3 1 -6 1v-45q24 6 53 6h191
q-21 -27 -43 -45q-43 -36 -112 -65q-75 -30 -115 -30h-11zM324 -47v276h133v-276h-133zM363 379q69 36 108 68q36 31 64 72h49q49 -49 97 -80q39 -25 121 -59l-114 -2zM494 160v69h155v-69h-155zM494 -47v74h155v-74h-155zM494 61v66h155v-66h-155zM686 -47v276h150v-276
h-150zM733 636q-27 18 -50 33q-9 -16 -23 -34q69 -37 117 -78q9 18 24 37q-3 1 -68 42zM191 674l708 -1q13 -1 29 -4v44l-54 -5q-4 1 -8 0l-678 1q-15 3 -40 4q1 -30 5 -60l-1 -389q-3 -52 -11 -113q-15 -102 -50 -178q-24 -45 -58 -71q36 -6 60 -17q24 43 45 97
q27 78 41 171q4 36 8 87q3 51 4 92v342z" />
  </g>

</svg>
