<?xml version="1.0" standalone="no"?>
<!DOCTYPE svg PUBLIC "-//W3C//DTD SVG 1.1//EN" "http://www.w3.org/Graphics/SVG/1.1/DTD/svg11.dtd" >
<svg xmlns="http://www.w3.org/2000/svg" xmlns:xlink="http://www.w3.org/1999/xlink" version="1.1" viewBox="-10 0 1034 1024">
  <g transform="matrix(1 0 0 -1 0 820)">
   <path fill="currentColor"
d="M486 -16h-195q-48 0 -65 5v-46q12 6 50 6h210l-4 -106q-1 0 -1 -3h48q-3 30 -5 59l1 330q1 24 14 46h-58q4 -19 5 -62v-11h-161q-48 0 -64 6v-46q4 1 9 4l108 2h108v-75h-126q-48 0 -65 5v-46q9 4 24 5l167 1v-74zM685 204q0 36 11 58q1 6 5 10h-60q4 -27 5 -60l-1 -337
q-3 -27 -4 -35h49q-4 19 -5 49v61h210q45 0 64 -6v46q-6 0 -12 -3l-157 -2h-105v77h147q30 0 48 -3q1 0 14 -2v45q-3 0 -6 -1q-3 0 -6 -2l-99 -2h-98v73h173q45 0 64 -5v46q-6 0 -10 -3q-72 -3 -100 -4h-127zM416 341q-3 -30 -3 -50q0 -6 -2 -10h49q-6 15 -6 48v90
q43 -27 70 -49q3 12 11 20q3 7 9 15q-3 3 -7 4q-6 3 -83 46v31h33q48 0 64 -6v46q-3 0 -6 -1q-3 0 -6 -2l-85 -2v22l4 16q4 24 10 36h-57q4 -33 5 -63v-11h-98q-46 0 -64 5v-46q9 4 25 5l128 1q-49 -60 -123 -119q-43 -30 -65 -36q30 -19 44 -33q55 48 90 81q30 27 63 63
v-101zM706 346l-4 -55q0 -3 -1 -5h48q-4 21 -5 60v107q69 -78 184 -143q18 21 38 37q-45 16 -89 42q-75 48 -119 98h95q39 0 63 -5v45q-3 0 -6 -1q-3 0 -6 -2l-160 -2q0 18 4 37q3 21 10 33h-57q4 -45 5 -70q-79 0 -98 2q-1 0 -15 3v-45q18 3 37 5h65q-49 -60 -102 -105
q-54 -45 -89 -56q13 -9 42 -34l98 85q30 28 62 66v-97zM156 650l4 -55l-1 -400q-3 -63 -13 -126q-15 -87 -46 -144q-18 -31 -55 -66q4 -1 11 -4q3 0 5 -2l37 -19q24 45 46 92q27 64 41 150q12 93 13 167v378h671q45 0 62 -5v45q-6 0 -12 -3q-34 0 -69 -3h-269q3 12 9 18
q1 1 4 5q0 3 2 4q1 4 5 8q-4 3 -57 35l-60 32q-12 -19 -23 -34q7 -4 16 -8q69 -36 97 -60l-371 1q-30 4 -48 5q0 -4 1 -11v0z" />
  </g>

</svg>
