<?xml version="1.0" standalone="no"?>
<!DOCTYPE svg PUBLIC "-//W3C//DTD SVG 1.1//EN" "http://www.w3.org/Graphics/SVG/1.1/DTD/svg11.dtd" >
<svg xmlns="http://www.w3.org/2000/svg" xmlns:xlink="http://www.w3.org/1999/xlink" version="1.1" viewBox="-10 0 1010 1000">
   <path fill="currentColor"
d="M141 -12q95 4 97 10q-19 39 -20 112h125v-32q-1 -45 -6 -82q96 -2 100 10q-26 36 -26 102q22 0 75 -7q7 -1 10 -1v81q-36 -7 -85 -6v62q0 17 7 62q1 5 1 7q-52 -6 -74 -6h-33v71h77q24 0 77 -8q-5 30 -6 64v83q0 27 8 78q-56 -6 -77 -6h-81v81h51q74 -1 119 -6v76
q-44 -7 -115 -8h-53v75q0 53 9 107h-93q9 -38 10 -105v-75h-91q-57 1 -99 10v-80q51 7 101 8h89v-85h-75q-45 1 -80 6q7 -37 8 -72v-79q-1 -44 -6 -72q55 8 74 8h83v-71h-32q-38 1 -67 6q7 -46 8 -73v-60q-47 0 -91 8v-81q43 8 93 8q-1 -80 -12 -120zM508 56q46 5 89 6h230
h9q22 1 75 -4q-4 35 -4 79v336q0 53 10 103h-94q1 -5 3 -17q7 -44 7 -63h-246v223q-3 52 14 59q14 13 87 12h76q66 1 87 -24q24 -25 32 -105q37 47 93 60q-20 84 -59 115q-34 31 -115 29h-141q-94 1 -120 -22q-29 -18 -27 -91v-609q-1 -48 -6 -87zM587 129v304h92v-304h-92z
M833 129h-91v304h91v-304zM218 171v69h127v-69h-127zM312 429v95h77v-95h-77zM159 429v93h83v-93h-83z" />
</svg>
