<?xml version="1.0" standalone="no"?>
<!DOCTYPE svg PUBLIC "-//W3C//DTD SVG 1.1//EN" "http://www.w3.org/Graphics/SVG/1.1/DTD/svg11.dtd" >
<svg xmlns="http://www.w3.org/2000/svg" xmlns:xlink="http://www.w3.org/1999/xlink" version="1.1" viewBox="-10 0 1034 1024">
  <g transform="matrix(1 0 0 -1 0 820)">
   <path fill="currentColor"
d="M261 96l-193 1q-15 3 -19 4v-46q49 4 80 5h132v-168q0 -33 -5 -57h48q-3 22 -5 45v180h145q42 0 64 -5v46q-31 -1 -64 -5h-145v94q94 0 108 -2q12 0 31 -3q-4 49 -5 74l1 108l4 44q-39 -6 -67 -6h-72v82h44q6 0 27 -3q6 0 25 -2q-6 55 -5 87v56q81 0 88 -3q4 0 11 -2v47
q-4 0 -7 -2q-72 -3 -75 -4h-17q0 72 3 81q1 13 10 27h-56q1 -30 5 -60v-48h-151q0 69 3 73q3 16 12 31h-57l6 -80v-24q-81 0 -92 3q-6 3 -11 3v-47q42 6 69 5h34l-1 -103q-1 -3 -5 -40q19 4 51 5h51v-82q-93 0 -115 2q-7 3 -34 4q1 -28 5 -58q0 -108 -2 -133q-3 -3 -3 -35
q46 4 94 5h55v-94zM261 370v-144h-107v144h107zM201 523v102h151v-102h-151zM299 226v144h96v-144h-96zM912 254q18 0 63 -5v47q-63 -6 -93 -6h-4l1 257q0 15 4 40q-30 -1 -59 -5h-99l2 118q1 43 22 63l-67 11q3 -21 4 -38l1 -154h-96q-7 0 -30 3q-10 0 -27 2l6 -58v-239
q-33 1 -66 3q-3 1 -8 3v-47q42 6 70 5h140q-15 -138 -121 -261q-72 -87 -142 -118q21 -15 43 -33q51 45 82 77q24 24 57 66q43 58 64 99q24 46 47 124l53 -126q18 -39 50 -86q27 -39 51 -66l77 -84q18 19 52 30q-39 22 -65 46q-33 28 -72 81q-75 99 -120 251h180zM578 290
v256h109q0 -180 -4 -256h-105zM721 290l3 256h116v-256h-119z" />
  </g>

</svg>
