<?xml version="1.0" standalone="no"?>
<!DOCTYPE svg PUBLIC "-//W3C//DTD SVG 1.1//EN" "http://www.w3.org/Graphics/SVG/1.1/DTD/svg11.dtd" >
<svg xmlns="http://www.w3.org/2000/svg" xmlns:xlink="http://www.w3.org/1999/xlink" version="1.1" viewBox="-10 0 1010 1000">
   <path fill="currentColor"
d="M643 -8q107 2 101 14q1 2 -3 6q-19 22 -19 62v89q0 1 30 2q26 1 53 0q49 -2 82 -8q-8 32 -8 93v213q57 1 85 -6v79q-39 -9 -75 -8h-159q41 183 244 264q-49 39 -71 81q-177 -111 -213 -281q-45 158 -228 299q-34 -44 -79 -61q198 -88 256 -304q-172 0 -195 10v-77
q15 2 50 2v-195q0 -59 -8 -107q43 6 163 6q0 -151 -6 -173zM808 229h-88v234h88v-74v-160zM649 229h-84v234h84v-234zM113 -6q85 0 89 12q0 1 -2 5q-15 26 -15 101h138q0 -88 -6 -116q81 3 88 12q0 1 -2 5q-14 29 -14 99q56 0 77 -6v75q-23 -6 -77 -6q0 113 6 143
q-26 -8 -111 -8v65q75 0 107 -2q32 -1 51 -6q-6 11 -5 78v79q0 51 5 70q-18 -10 -158 -10v79q89 0 120 -2q33 -2 50 -8v80q0 1 -13 -1q-50 -7 -92 -7h-65q0 155 4 180h-80q4 -16 5 -49q1 -36 1 -129h-107q-69 0 -87 6v-76q0 -1 6 0q33 6 77 6h113v-77q-117 0 -153 8
q6 -30 6 -74v-87q0 -44 -6 -62q44 4 153 4v-65q-55 0 -72 1q-22 1 -29 3q6 -27 6 -139q-54 0 -66 1q-17 0 -29 3v-75q3 0 8 1q32 7 87 7q0 -102 -8 -118zM185 175v71h140v-71h-140zM133 431v95h83v-95h-83zM284 435v91h89v-91h-89z" />
</svg>
