<?xml version="1.0" standalone="no"?>
<!DOCTYPE svg PUBLIC "-//W3C//DTD SVG 1.1//EN" "http://www.w3.org/Graphics/SVG/1.1/DTD/svg11.dtd" >
<svg xmlns="http://www.w3.org/2000/svg" xmlns:xlink="http://www.w3.org/1999/xlink" version="1.1" viewBox="-10 0 1034 1024">
  <g transform="matrix(1 0 0 -1 0 820)">
   <path fill="currentColor"
d="M693 -63h-180q-45 0 -66 5v-47q9 4 26 5l446 1q43 0 62 -6v47q-4 0 -8 -1q-3 0 -4 -2q-27 0 -50 -2h-188v182h119q42 0 63 -6v47q-4 0 -8 -1q-3 0 -5 -2l-98 -2h-71v90q0 36 14 65h-57q3 -6 3 -24l2 -131h-94q-45 0 -65 5v-47q9 4 26 5l133 1v-182zM693 378h-126
q-45 0 -65 5v-47q9 4 26 5l372 1q45 0 64 -6v47q-10 0 -13 -3l-221 -2v189h127q45 0 63 -6v47q-4 0 -8 -1q-3 0 -4 -2l-178 -2l1 97q0 30 13 64h-56q0 -4 3 -11q0 -24 2 -53v-97q-118 0 -142 2l-16 3v-47q12 6 52 6h106v-189zM268 69h-157q-45 0 -65 5v-47q9 4 26 5l196 1
l-1 -158q-3 -21 -4 -35h48q-4 19 -5 60v133h138q45 0 63 -6v47q-6 0 -8 -2q-6 0 -10 -1l-82 -2h-101v103q124 0 140 -3q7 0 20 -2q-4 45 -5 69q0 91 2 101q0 18 3 38q-21 -1 -31 -4q-15 -1 -24 -3h-105v93h48q7 0 31 -3l28 -3q-6 48 -6 69v78h28q42 0 63 -6v47q-10 0 -14 -3
l-77 -2v57q0 30 14 64h-57q6 -63 6 -94v-27h-179v60q0 34 14 64h-57q1 -31 5 -64v-60h-16q-45 0 -66 5v-47q9 4 26 5l56 1l-1 -115l-4 -32q54 6 82 6h38v-93l-114 1q-10 1 -49 6q6 -54 6 -84q0 -69 -2 -96q-1 -1 -1 -6q0 -12 -3 -22q46 4 93 5h70v-103zM148 208v125h120
v-125h-120zM191 495v107h179v-106zM306 208v125h117v-125h-117z" />
  </g>

</svg>
