<?xml version="1.0" standalone="no"?>
<!DOCTYPE svg PUBLIC "-//W3C//DTD SVG 1.1//EN" "http://www.w3.org/Graphics/SVG/1.1/DTD/svg11.dtd" >
<svg xmlns="http://www.w3.org/2000/svg" xmlns:xlink="http://www.w3.org/1999/xlink" version="1.1" viewBox="-10 0 1010 1000">
   <path fill="currentColor"
d="M149 -4q93 12 97 16q-25 34 -24 90h133q0 -57 -6 -96q106 5 103 12q-27 36 -25 82q37 0 91 -8v81q-42 -8 -93 -8v70q1 39 6 73q-42 -6 -76 -6h-36v61h88q38 0 81 -7q-5 30 -6 75v87q0 41 8 78q-52 -8 -77 -8h-94v83h86q87 -1 111 -8v77q-70 -7 -107 -7h-90v45q0 15 6 72
q3 35 4 47h-91q8 -45 10 -117v-47h-79q-51 0 -113 7v-77q56 7 113 8h79v-83h-89q-36 0 -80 6q6 -58 6 -80v-85q-1 -41 -8 -73q52 7 82 7h89v-61h-20q-22 0 -69 7q-5 1 -8 1q8 -60 8 -79v-68q-51 0 -96 8v-79q67 8 96 8q0 -75 -10 -104zM669 2q100 -2 105 12q-25 45 -24 129
h83q49 0 102 -10v86q-47 -10 -100 -10h-87v135h97q36 0 115 -10v89q-65 -12 -119 -12h-222q-51 0 -115 10v-85q53 7 105 8h68v-135h-52q-56 0 -101 8v-82q76 8 99 8h54v-45q-1 -55 -8 -96zM222 163v79h133v-79h-133zM155 425v101h93v-101h-93zM319 425v101h96v-101h-96z
M665 437q55 0 105 10q-12 18 -14 36q-3 11 -6 81h44q33 1 117 -10v85q-6 -1 -18 -2q-68 -6 -95 -6h-48v149h81q85 0 119 -6v82q-45 -7 -115 -8h-254q-68 1 -119 8v-86q45 9 115 10h96v-149h-40q-84 0 -117 6v-83q64 9 113 10h44q0 -77 -8 -127z" />
</svg>
