<?xml version="1.0" standalone="no"?>
<!DOCTYPE svg PUBLIC "-//W3C//DTD SVG 1.1//EN" "http://www.w3.org/Graphics/SVG/1.1/DTD/svg11.dtd" >
<svg xmlns="http://www.w3.org/2000/svg" xmlns:xlink="http://www.w3.org/1999/xlink" version="1.1" viewBox="-10 0 1010 1000">
   <path fill="currentColor"
d="M655 -4q92 -2 101 8q-19 35 -20 90v186h77q52 0 102 -8q-7 48 -8 78v224v222q1 59 -25 77q-21 20 -110 30q0 -57 -34 -103q92 20 93 -22v-119h-240v115q1 57 10 125h-95q9 -72 10 -125v-411q-1 -38 -8 -91q56 8 93 8h64v-202q-1 -39 -10 -82zM135 6q97 3 91 8
q-16 37 -16 107h113v-47v-6q1 -37 -4 -62q13 1 40 3q50 3 46 7q-14 27 -14 88v13q37 -1 71 -7v77q-21 -4 -73 -4v61q0 38 6 68q-42 -6 -66 -6h-27v69h79q17 0 77 -6q-6 46 -6 64v95q0 32 6 70q-53 -6 -77 -6h-79v77h79q15 0 69 -7q18 -2 26 -3v78q-72 -8 -93 -8h-81v45
q1 68 8 127h-84q8 -53 10 -127v-45h-81q-26 0 -99 8v-78q47 8 99 10h81v-77h-75q-9 0 -37 3q-24 2 -37 3q5 -34 6 -70v-87q-1 -31 -8 -70q50 6 78 6h73v-69h-30q-23 0 -71 6q6 -49 6 -70v-61q-57 0 -81 6v-76q50 8 81 8v-43q0 -49 -6 -72zM851 40q43 20 82 44
q-27 27 -82 118q-16 27 -24 40q-23 -19 -59 -29q43 -58 83 -173zM538 42q38 56 87 163l-69 35q-27 -81 -82 -160zM210 181v69h111v-69h-111zM831 340h-240v107h240v-107zM302 435v99h79v-99h-79zM236 437h-77v97h77v-97zM831 502h-240v102h240v-102z" />
</svg>
