<?xml version="1.0" standalone="no"?>
<!DOCTYPE svg PUBLIC "-//W3C//DTD SVG 1.1//EN" "http://www.w3.org/Graphics/SVG/1.1/DTD/svg11.dtd" >
<svg xmlns="http://www.w3.org/2000/svg" xmlns:xlink="http://www.w3.org/1999/xlink" version="1.1" viewBox="-10 0 1034 1024">
  <g transform="matrix(1 0 0 -1 0 820)">
   <path fill="currentColor"
d="M539 -6q-37 -10 -54 -22q-3 0 -79 -56q21 -18 38 -38q12 16 34 38q42 39 72 40q13 0 44 -12q36 -15 52 -23q39 -15 94 -23q63 -6 184 -7h37q4 25 18 58q-42 -7 -80 -12q-36 -3 -83 -3q-117 0 -168 27q-13 7 -27 13q-12 4 -24 11q-9 3 -19 8l1 355q0 19 4 44
q-18 -1 -24 -2q-21 -3 -68 -3q-30 1 -44 5v-47q7 3 24 4q10 1 68 2v-357zM494 679q-18 -12 -37 -20q30 -48 47 -85q15 -30 34 -81q21 9 42 20l-74 145q-6 9 -12 21zM886 501q42 0 63 -6v47q-6 0 -13 -3l-94 -2h-67v161q0 33 14 63h-56q1 -30 5 -63v-161h-73q-45 0 -66 5v-47
q7 3 23 4q12 1 112 2l-5 -111q-9 -91 -31 -154q-21 -60 -54 -105q-34 -46 -64 -56q27 -10 53 -28q60 82 85 138q24 57 43 159q42 -75 84 -158q42 -87 55 -132q22 15 37 20l9 4l-120 230l-58 101l4 92h114zM246 94h-136q-45 0 -65 5v-46q21 3 43 5h158v-148q0 -21 -4 -51
q0 -4 -2 -9h49l-6 51v157h112q39 0 64 -5v46q-4 0 -8 -1q-3 0 -5 -2l-163 -2v97q108 0 117 -3q9 -1 24 -2q-4 45 -5 68l1 96l4 43q-28 -1 -57 -5h-84v86l98 -5q-6 54 -6 76v61h11q37 0 63 -5v46q-36 -1 -74 -5v58q0 27 13 63h-56q1 -3 2 -12l3 -101v-8h-142v53q0 34 13 64
h-55l5 -106v-11q-66 0 -89 2l-16 3v-46q24 4 47 5h58l-1 -98q-3 -12 -4 -39q45 4 93 5v-86q-93 0 -119 2q-6 3 -30 3q1 -27 5 -56l-1 -114q-3 -12 -4 -37q46 4 94 5h55v-97zM139 227v125h107v-125h-107zM195 508v98h142v-98h-142zM283 227v125h98v-125h-98z" />
  </g>

</svg>
