<?xml version="1.0" standalone="no"?>
<!DOCTYPE svg PUBLIC "-//W3C//DTD SVG 1.1//EN" "http://www.w3.org/Graphics/SVG/1.1/DTD/svg11.dtd" >
<svg xmlns="http://www.w3.org/2000/svg" xmlns:xlink="http://www.w3.org/1999/xlink" version="1.1" viewBox="-10 0 1010 1000">
   <path fill="currentColor"
d="M429 433q113 -43 184 -147h-99q-60 -1 -89 8v-65q44 6 216 6q-45 -41 -117 -62l71 -50q20 15 86 82l6 -6q54 -48 93 -93h-155q-129 0 -145 7v-71q31 3 64 3q16 1 42 1h81q126 0 209 -7q12 -1 19 -1v85q-67 10 -179 112h135q43 0 93 -8l-61 156q-37 -17 -81 -12
q15 -21 27 -50q9 -19 16 -35h-97v145q4 58 -117 65q-1 -3 -3 -13q-8 -43 -21 -62q77 18 74 -20v-111q-67 97 -197 206q-25 -42 -55 -63zM313 -8q76 0 82 8q1 2 -1 6q-13 21 -13 62v42q63 -3 81 -8v81q-28 -8 -81 -8v20q0 72 7 108q1 3 1 5q-29 -8 -97 -8v60h35q48 0 85 -6
q9 -2 13 -2q-8 32 -8 95v24q0 60 8 99q-5 -1 -18 -2q-41 -6 -72 -6h-43v79h43q50 0 73 -2q22 -1 42 -6v76q-14 -4 -35 -5q-16 -1 -80 -1h-43v71q0 95 6 123h-80q10 -49 10 -123v-73h-45q-92 0 -127 6v-72q37 6 125 6h47v-79h-34q-48 0 -99 8q1 -9 2 -27q4 -37 4 -68v-30
q0 -39 -5 -85q-1 -6 -1 -8q44 8 109 8h24v-60q-38 0 -81 7q-5 1 -8 1q6 -33 6 -111v-22q-62 -3 -91 6v-77q35 8 91 8v-28q0 -74 -6 -92q81 0 85 8q1 3 -2 8q-14 24 -14 72v32h109v-38q0 -43 -4 -82zM317 175h-109v69h109v-69zM228 411h-63v97h63v-97zM353 411h-61v97h61v-97
zM718 510q1 2 -2 9q-8 18 -8 37h115q54 0 96 -6v73q-32 -9 -98 -8h-85q84 123 220 187q-40 24 -69 71q-134 -122 -187 -214v169q0 46 6 79h-79q6 -16 6 -83v-159q-59 103 -179 216q-37 -35 -79 -51q138 -69 224 -215q-127 0 -162 6v-73q44 6 74 7q35 1 124 1q-2 -39 -8 -54
q82 0 91 8z" />
</svg>
