<?xml version="1.0" standalone="no"?>
<!DOCTYPE svg PUBLIC "-//W3C//DTD SVG 1.1//EN" "http://www.w3.org/Graphics/SVG/1.1/DTD/svg11.dtd" >
<svg xmlns="http://www.w3.org/2000/svg" xmlns:xlink="http://www.w3.org/1999/xlink" version="1.1" viewBox="-10 0 1010 1000">
   <path fill="currentColor"
d="M567 -12q67 27 100 48q-23 18 -32 36q-27 45 -48 75h246q46 0 98 -8q-7 86 -15 351q-5 277 -19 340q-28 68 -151 77q-4 -43 -46 -109q71 25 104 4q31 36 41 -455q2 -89 4 -140h-295q-32 44 -64 91l50 -18q29 50 43 123l-65 16q-2 -53 -36 -107l-26 32q-24 -36 -59 -54
q42 -36 79 -97q-49 -8 -91 -8v69q1 33 8 62q-45 -6 -70 -6h-37v67h63q37 0 84 -8q-8 51 -8 74v89q0 26 8 78q-60 -9 -78 -8h-69v75h39q51 0 110 -10v71q91 -82 150 -224h-25q-60 1 -104 8v-73q70 8 106 8h55v-135q0 -54 -6 -84q101 13 95 24q-22 28 -23 82v113h39
q44 0 93 -8v75q-38 -7 -91 -8h-39v82l49 -36q42 44 85 111l-61 44q-34 -60 -73 -102v129q1 71 7 119h-81q7 -33 8 -119v-166q-41 114 -155 240q-30 -32 -69 -48l28 -22q-51 -7 -94 -8h-43v48q2 77 10 119h-82q6 -45 8 -121v-46h-71q-51 0 -105 8v-79q51 7 107 8h69v-75h-75
q-16 0 -56 4q-15 1 -22 2q7 -27 8 -82v-77q-1 -57 -8 -80q34 7 82 8h71v-67h-16q-32 1 -71 6q8 -34 8 -74v-55q-41 0 -99 8v-80q52 8 97 8v-39q-1 -43 -6 -80q85 -2 91 8q-25 33 -24 113h117q-1 -74 -6 -119q88 -5 96 8q-13 18 -18 41q-4 21 -4 68q42 -1 101 -10v64
q59 -95 79 -189zM200 187v65h117v-65h-117zM754 280q42 12 71 28q-11 14 -47 87l-18 36q-5 -2 -13 -5q-27 -10 -49 -11q1 -2 4 -7q31 -47 52 -128zM147 435v109h75v-109h-75zM286 435v109h69v-109h-69z" />
</svg>
