<?xml version="1.0" standalone="no"?>
<!DOCTYPE svg PUBLIC "-//W3C//DTD SVG 1.1//EN" "http://www.w3.org/Graphics/SVG/1.1/DTD/svg11.dtd" >
<svg xmlns="http://www.w3.org/2000/svg" xmlns:xlink="http://www.w3.org/1999/xlink" version="1.1" viewBox="-10 0 1010 1000">
   <path fill="currentColor"
d="M121 -13q72 3 87 13q-19 30 -18 100h98q-1 -75 -6 -113q89 3 91 11q-23 43 -22 102q32 -1 99 -8v67q-62 -6 -97 -6v70q0 13 7 64q0 -3 1 5q-43 -8 -71 -8h-28v74h63q36 0 66 -10l-30 -22q104 -102 141 -339q68 19 101 35l-7 7q-13 13 -17 25q-5 13 -22 54q-23 56 -33 79
v611l2 36q67 -21 131 -78q-46 -48 -84 -137l66 -23q2 7 4 13q11 47 44 91q2 4 5 9q26 -51 28 -133h-63q-15 0 -63 4q-13 2 -19 2q5 -37 6 -78v-224q-1 -44 -8 -67q43 6 76 6h71v-92h-35q-47 -1 -98 8v-83q50 10 100 10h170q36 -1 93 -10v83q-53 -9 -89 -8h-81v92h71
q37 0 76 -8q-8 48 -8 71v232q0 11 3 42q2 17 3 26q-42 -6 -74 -6h-71q-1 99 -36 170q110 49 218 48q-29 29 -47 91q-119 -35 -205 -87q-46 52 -133 113q-14 -38 -49 -59q0 12 5 39l3 18h-96q10 -55 12 -107v-468q-18 24 -33 49l-22 -25q-8 23 -8 61v107q0 36 6 72
q-34 -4 -70 -4h-63v75h55q57 1 104 -8v70q-47 -8 -102 -8h-55v63q0 54 10 117h-80q10 -42 10 -119v-59h-69q-54 0 -89 6v-68q58 8 87 8h71v-79h-61q-31 0 -72 6q7 -29 8 -72v-113q0 -27 -8 -61q38 6 72 6h61v-74h-17q-13 0 -49 4q-14 1 -21 2q6 -36 8 -71v-64q-44 0 -87 8
v-71q54 8 89 8q0 -69 -6 -113zM190 153v76h98v-76h-98zM645 276v93h75v-93h-75zM855 276h-75v93h75v-93zM139 411v127h65v-127h-65zM262 411v129h67v-129h-67zM645 423v93h75v-93h-75zM780 423v93h75v-93h-75z" />
</svg>
