<?xml version="1.0" standalone="no"?>
<!DOCTYPE svg PUBLIC "-//W3C//DTD SVG 1.1//EN" "http://www.w3.org/Graphics/SVG/1.1/DTD/svg11.dtd" >
<svg xmlns="http://www.w3.org/2000/svg" xmlns:xlink="http://www.w3.org/1999/xlink" version="1.1" viewBox="-10 0 1010 1000">
   <path fill="currentColor"
d="M548 -10q14 5 37 13q65 22 58 27q-2 5 -10 12q-19 16 -36 40q-15 23 -28 41h112q134 0 246 -11q-4 20 -4 87q-1 103 0 270q2 316 -10 339q-12 76 -163 99q-6 -47 -42 -97q77 9 102 -7q29 -15 31 -68q6 -59 8 -550h-317q-23 24 -68 85q33 4 121 4h20q-11 -30 -40 -57
l78 -18q18 42 30 75h23q75 0 110 -6v56q-26 -5 -95 -4h-17h-109q-82 0 -131 6v-46q-24 -26 -61 -36q122 -109 155 -254zM312 18q68 -2 81 8q1 2 -2 7q-12 21 -12 57v18q53 0 81 -6v61q-28 -5 -81 -6v24q1 88 6 119q-29 -4 -93 -4v71h23q73 0 120 -5q-4 57 -4 103v14
q0 74 4 103q-64 -4 -100 -4h-43v79h33q75 0 112 -8v72q-44 -9 -118 -6h-27v65q1 90 10 127h-78q8 -33 8 -125v-67h-42q-10 0 -31 1q-85 2 -113 9v-78q54 8 141 10h45v-79h-36h-59l-54 2q4 -31 4 -109v-14q0 -18 -4 -65q-1 -20 -2 -29q60 4 109 4h42v-71q-63 0 -95 4
q5 -33 6 -117v-26q-56 1 -101 8v-65q33 7 101 8v-8q0 -59 -4 -78q13 0 34 1q49 0 47 7q0 1 -2 3q-12 16 -14 63v12h113v-18q0 -44 -5 -72zM317 157h-113v87h113v-87zM772 363v58q-33 -4 -127 -4h-66q-78 0 -111 6v-58q26 5 111 6h66q69 0 127 -8zM155 423v99h77v-99h-77z
M361 423h-69v99h69v-99zM776 463v59q-22 -6 -121 -6h-64q-86 0 -121 8v-59q43 6 121 6h62q77 -1 123 -8zM770 564q-4 25 -4 91v22q0 42 4 83q-31 -4 -95 -4h-135v12q-1 37 4 52h-76q8 -38 8 -129v-38q0 -56 -6 -87q80 4 127 4h48q79 -1 125 -6zM706 619h-168v88h168v-88z
" />
</svg>
