<?xml version="1.0" standalone="no"?>
<!DOCTYPE svg PUBLIC "-//W3C//DTD SVG 1.1//EN" "http://www.w3.org/Graphics/SVG/1.1/DTD/svg11.dtd" >
<svg xmlns="http://www.w3.org/2000/svg" xmlns:xlink="http://www.w3.org/1999/xlink" version="1.1" viewBox="-10 0 1034 1024">
  <g transform="matrix(1 0 0 -1 0 820)">
   <path fill="currentColor"
d="M431 461l50 75l-1 -642q-3 -15 -4 -27h45q-4 49 -5 59v671q3 9 50 109q18 33 39 46q-27 9 -37 15q-9 3 -19 10q-21 -84 -88 -199q-33 -55 -57 -88q-21 -24 -49 -45q21 -6 49 -24zM844 231q28 -1 58 -5q-3 10 -4 32q0 15 -2 26v207q0 10 2 30l4 32q-60 -4 -89 -5h-45v111
q138 0 151 -2q6 0 15 -4v43q-3 0 -8 -2q-3 0 -4 -1q-27 0 -49 -2l-278 1q-7 1 -11 2q1 0 -12 2v-43q18 6 39 6h119v-111q-79 0 -106 2q-6 3 -32 3q1 -30 5 -62l-1 -227q-3 -3 -3 -25q-1 -6 -1 -13q49 4 78 5h50q-1 -25 -9 -54q-6 -31 -23 -77q-48 60 -62 109
q-25 -16 -44 -26q9 -15 72 -97l17 -24q-18 -31 -51 -73q-24 -30 -42 -45q-18 -13 -49 -29q33 -15 53 -29q13 13 28 32l59 75q12 15 31 44q78 -69 229 -132q18 22 43 44q-123 10 -257 117q18 45 27 79q9 33 17 86h85zM631 405v110h99v-110h-99zM631 264v109h99l-5 -109h-94z
M763 264l5 109h93v-109h-98zM768 405v110h93v-110h-93zM228 103h-98q-46 0 -64 5v-43q12 6 48 6h114l-1 -178q-3 -15 -4 -27h48q-6 36 -6 49v156h110q39 0 60 -6v43q-3 0 -8 -2q-3 0 -4 -1l-144 -2h-14v97l115 -4q6 0 10 -1q-4 45 -5 63l1 117l4 41q-27 -1 -54 -5h-71v85
q27 0 51 -3q3 0 25 -3q-4 45 -5 89v40h22q42 0 61 -6v42q-9 0 -13 -3l-70 -2v46q0 36 12 64h-52q6 -45 6 -62v-48h-115v46q0 31 12 64h-51q6 -63 6 -94v-16q-63 0 -76 3q-3 1 -9 2v-42q3 0 7 3q30 3 78 3q0 -75 -2 -99q-3 -3 -3 -30q54 6 79 6v-85q-66 0 -89 2q-6 3 -30 3
q1 -27 5 -55l-1 -130q-3 -12 -4 -36q45 4 94 5h25v-97zM148 232v146h80v-146h-80zM187 527v92h115v-92h-115zM265 232v146h84v-146h-84z" />
  </g>

</svg>
