<?xml version="1.0" standalone="no"?>
<!DOCTYPE svg PUBLIC "-//W3C//DTD SVG 1.1//EN" "http://www.w3.org/Graphics/SVG/1.1/DTD/svg11.dtd" >
<svg xmlns="http://www.w3.org/2000/svg" xmlns:xlink="http://www.w3.org/1999/xlink" version="1.1" viewBox="-10 0 1034 1024">
  <g transform="matrix(1 0 0 -1 0 820)">
   <path fill="currentColor"
d="M272 101l-181 4q-4 1 -7 1v-46q15 4 33 5l155 1v-157q0 -37 -5 -55h47q-4 45 -5 66v146q132 0 148 -2q9 0 22 -4v46q-30 -1 -60 -5h-110v90q90 0 103 -2q16 0 35 -3q-6 55 -5 86l5 131q-51 -4 -67 -5h-71v84l93 -5q-4 49 -5 98v45q30 0 64 -3q4 0 13 -4v48q-55 -6 -73 -7
h-4q0 75 3 81q1 15 11 28h-56q1 -28 5 -58v-51h-148q0 70 3 79q1 13 10 25h-53q3 -75 4 -104q-57 0 -72 3q-4 1 -10 4v-48q6 1 11 4q45 3 71 3q0 -90 -2 -111q0 -15 -2 -32q6 3 36 3q7 1 64 2v-84l-122 3q-7 1 -17 2q1 -27 5 -56l-1 -118q-1 -4 -4 -43q42 4 87 5h52v-90z
M174 226v137h98v-137h-98zM212 517v103h148v-103h-148zM309 226v137h96v-137h-96zM504 535q12 18 36 50h334l-6 -559q-1 -33 -3 -66q-4 -18 -15 -27q-21 -12 -66 -13q-13 0 -48 4q15 -27 24 -52l19 3q76 10 99 27q21 15 25 61l5 432l3 194q1 18 5 36q-30 -1 -61 -5h-293
l39 75q18 34 44 45q-13 6 -23 11q-10 6 -30 19q-18 -48 -36 -85q-18 -36 -43 -75q-52 -82 -92 -105q24 -9 44 -23q3 3 6 8q3 6 11 16q10 15 22 29zM540 454q-36 0 -48 3q-3 1 -11 2v-45q28 3 59 5l267 -1q16 0 30 -4v45q-30 -1 -61 -5h-90l10 14q6 6 13 14l-93 74l-28 -30
q48 -24 89 -72h-137zM520 49q0 -12 -5 -57q45 4 89 5q150 0 162 -2q10 0 30 -3q-4 48 -5 91q0 63 2 71q0 15 3 31q-4 0 -8 -1q-55 -3 -78 -4q-142 0 -163 2q-3 1 -5 1q-12 0 -27 2q4 -42 5 -69v-67zM754 32h-198v113h198v-113zM798 279q-42 -6 -71 -6l-197 3q-3 1 -7 3v-46
q46 4 89 5l157 -1q15 0 29 -4v46zM805 366q-60 -6 -71 -6l-202 3q-3 1 -8 3v-46q46 4 91 5q159 0 174 -2q7 0 16 -3v46z" />
  </g>

</svg>
