<?xml version="1.0" standalone="no"?>
<!DOCTYPE svg PUBLIC "-//W3C//DTD SVG 1.1//EN" "http://www.w3.org/Graphics/SVG/1.1/DTD/svg11.dtd" >
<svg xmlns="http://www.w3.org/2000/svg" xmlns:xlink="http://www.w3.org/1999/xlink" version="1.1" viewBox="-10 0 1010 1000">
   <path fill="currentColor"
d="M714 0q91 0 92 8q0 2 -4 7q-18 23 -18 67q79 0 119 -8v69q-14 0 -59 -3t-58 -3v66h9q92 -4 104 -12v69q-21 -4 -113 -4v60h16q93 -2 136 -12v75q-46 -8 -158 -8h-90v58h44q62 0 143 -4q-4 31 -4 115v119q45 5 79 -4v72q-21 -7 -79 -6v95q2 47 -22 60q-24 17 -109 23
q-2 -34 -26 -83q95 16 90 -20v-75h-276v45q1 99 8 125h-90q9 -23 10 -121v-49q-44 -3 -69 4v-72q21 6 71 8v-113q0 -82 -4 -125q68 6 143 6h30v-58h-79q-117 -1 -139 8v-71q38 7 123 8v-62q-64 0 -97 8v-67q26 5 97 6v-60q-72 -1 -92 6v-69q28 7 92 8q0 -57 -6 -82
q81 4 85 10q1 4 -4 14q-12 25 -12 58h123q0 -59 -6 -86zM97 20q73 -4 78 4q1 3 -1 10q-7 21 -7 52v27h129v-23q1 -40 -12 -72q77 -3 83 6q1 3 -1 8q-8 21 -7 58v23q40 -1 58 -7v67q-17 -4 -58 -4v14q0 57 1 80q1 29 5 45q-29 -7 -97 -6h-10v60h24q71 0 111 -4q-5 36 -2 97
v39q1 63 6 106q-42 -4 -101 -4h-38v69q69 -1 115 -8v74q-25 -7 -99 -6h-16v49q3 116 10 127h-80q10 -33 10 -127v-49h-31q-9 0 -31 1q-78 2 -102 9v-76q34 6 133 6h31v-69h-11q-72 1 -122 6q4 -54 4 -112v-39q0 -42 -4 -93q20 0 81 3q20 1 31 1h21v-60q-47 -3 -101 6
q5 -39 6 -123v-16q-50 -1 -67 6v-69q24 9 67 7v-21q0 -49 -6 -72zM722 141h-125v62h125v-62zM296 169h-129v77h129v-77zM597 254v62h125v-62h-125zM131 417v123h67v-123h-67zM329 417h-71v123h71v-123zM629 488h-99v60h99v-60zM804 488h-114v60h114v-60zM629 596h-99v65h99
v-65zM804 596h-112v65h112v-65z" />
</svg>
