<?xml version="1.0" standalone="no"?>
<!DOCTYPE svg PUBLIC "-//W3C//DTD SVG 1.1//EN" "http://www.w3.org/Graphics/SVG/1.1/DTD/svg11.dtd" >
<svg xmlns="http://www.w3.org/2000/svg" xmlns:xlink="http://www.w3.org/1999/xlink" version="1.1" viewBox="-10 0 1010 1000">
   <path fill="currentColor"
d="M206 4q102 0 104 10q1 7 -9 28q-7 16 -7 20v69h71q71 -1 91 -6v82q-43 -4 -103 -4h-59v81h53q57 0 97 -6v82q-34 -4 -95 -4h-55v99h99q70 0 103 -6q-10 56 -10 91q-2 129 -22 157q-37 32 -125 41q5 -41 -29 -91q7 0 20 1q50 5 63 -9q7 -7 11 -40q2 -19 2 -43
q1 -31 -1 -32h-111v236q1 100 8 131h-100q7 -32 8 -125v-238h-37q-96 1 -127 6v-83q39 7 125 8h39v-101h-33q-86 0 -106 5v-85q41 7 108 8h31v-83h-29q-96 0 -123 4v-84q21 8 105 8h47v-63q0 -25 -4 -52q-2 -13 0 -12zM506 70q35 7 127 8h175q75 -1 113 -10q0 5 -2 27
q-5 59 -6 104q0 28 -1 94q-2 453 -17 481q-30 64 -163 80q1 -49 -51 -106q100 14 125 -8q14 -14 19 -130q5 -85 8 -465h-91q5 179 -3 282q-8 106 -33 180q-43 140 -210 274q-27 -28 -68 -44q-18 -8 -31 -13q172 -80 223 -218q57 -132 49 -461h-36q-99 0 -127 8v-83zM536 250
h18q67 -2 73 10q3 5 -3 13q-11 17 -13 39q-2 18 -9 89q-7 78 -11 117q-37 -7 -87 -4q35 -73 32 -264z" />
</svg>
