<?xml version="1.0" standalone="no"?>
<!DOCTYPE svg PUBLIC "-//W3C//DTD SVG 1.1//EN" "http://www.w3.org/Graphics/SVG/1.1/DTD/svg11.dtd" >
<svg xmlns="http://www.w3.org/2000/svg" xmlns:xlink="http://www.w3.org/1999/xlink" version="1.1" viewBox="-10 0 1034 1024">
  <g transform="matrix(1 0 0 -1 0 820)">
   <path fill="currentColor"
d="M957 -122q7 27 30 62q-39 -12 -58 -15l-46 -6q-30 -3 -56 -5q-153 -6 -182 -7q-120 0 -193 10q-52 9 -94 25v163h85q33 0 63 -5v46q-28 -4 -63 -5h-85v134q105 0 121 -3q-1 0 16 -2v46q-66 -4 -101 -5l-269 1q-16 1 -30 4v-46q25 4 62 5h162v-309q-57 54 -106 137
q10 54 16 65q4 13 26 29q-31 6 -66 19q-1 -13 -2 -24q-10 -87 -48 -170q-24 -54 -45 -81q-18 -24 -52 -45q27 -12 54 -29q33 54 55 93q19 39 43 94q42 -60 48 -65q27 -30 46 -46q55 -49 159 -64q69 -10 162 -11l167 4l62 2zM139 392q27 3 57 5l220 -1l43 -4q-6 60 -6 62
l1 225l5 46q-30 -1 -62 -5l-216 1q-15 3 -42 4q1 -19 2 -33q3 -24 3 -32l-1 -221q-3 -12 -4 -47zM415 537v-104h-234v104h234zM181 572v112h234v-112h-234zM667 638h-84q-36 0 -63 5v-46q25 4 63 5h84v-130h-65q-36 0 -63 5v-46q25 4 63 5h65v-122h-83q-39 0 -63 5v-46
q25 4 63 5h83l-3 -297q-1 -3 -2 -15h48q-3 30 -5 60v252h178l-8 -115q-1 -4 -3 -11q-4 -33 -18 -43q-9 -9 -46 -10q-9 0 -43 4q18 -37 18 -48q33 3 51 7q15 3 24 6q45 15 55 100q0 33 10 111q3 21 4 40q-28 -1 -57 -5h-165v122h110q33 0 64 -5v46q-30 -4 -64 -5h-110v130
h148q37 0 65 -5v46q-27 -4 -65 -5h-148q0 84 3 93q1 13 10 28h-56l5 -106v-15z" />
  </g>

</svg>
