<?xml version="1.0" standalone="no"?>
<!DOCTYPE svg PUBLIC "-//W3C//DTD SVG 1.1//EN" "http://www.w3.org/Graphics/SVG/1.1/DTD/svg11.dtd" >
<svg xmlns="http://www.w3.org/2000/svg" xmlns:xlink="http://www.w3.org/1999/xlink" version="1.1" viewBox="-10 0 1034 1024">
  <g transform="matrix(1 0 0 -1 0 820)">
   <path fill="currentColor"
d="M227 433h-60q-27 0 -51 3q-6 0 -12 2v-47q4 3 53 6h70v-141q-115 0 -144 2q-9 0 -22 3v-46q9 3 57 6h109q-3 -384 -5 -396h48q-3 34 -5 69v327h140q-3 -36 -4 -84q-1 -73 -11 -89q-12 -21 -46 -21q-13 0 -40 4q9 -21 14 -50q81 9 107 53q7 19 9 36q0 4 8 190
q-30 -1 -58 -4h-119v141l132 -3q3 0 10 -3v47q-18 -4 -68 -5h-74v148l134 -1q22 0 39 -5v47q-21 -4 -67 -5h-106v86q0 15 3 29q3 18 17 36h-63q4 -18 5 -65v-86l-116 1q-18 3 -33 3q-3 1 -6 1v-47q4 3 54 6h101v-148zM471 685q9 -21 17 -51q85 4 167 14q76 7 138 19l94 16
l67 7q-21 21 -40 54q-18 -12 -30 -17q-30 -12 -121 -27q-142 -22 -220 -23q-36 0 -72 8zM500 -102q-3 -64 -5 -69h47q-4 28 -5 69v18h370q0 -45 -4 -82q-1 0 -1 -3h49q-6 42 -5 117l1 335l4 44q-31 -1 -63 -5q-136 3 -149 5v-47q6 3 12 3q21 3 51 3h105v-134l-148 3
q-3 0 -7 1q-3 1 -5 1v-47q4 3 53 6h107v-165h-370v165q109 0 125 -2q13 0 26 -4v47q-21 -4 -68 -5h-83v138q40 6 88 18q9 0 19 3q49 4 53 5q-22 30 -32 51q-39 -19 -73 -28q-61 -15 -82 -15q-9 0 -15 1q1 -27 5 -57v-370zM612 416q-37 78 -93 159q-13 -15 -37 -25
q27 -28 52 -72q21 -40 38 -90q9 6 14 12q4 1 10 6q7 6 16 10zM643 591q36 -49 68 -155q21 9 43 16q-33 88 -68 156q-22 -7 -43 -17zM818 372l52 92l48 88q12 15 32 27q-10 4 -19 8l-40 21q-18 -51 -49 -114q-45 -81 -68 -102z" />
  </g>

</svg>
