<?xml version="1.0" standalone="no"?>
<!DOCTYPE svg PUBLIC "-//W3C//DTD SVG 1.1//EN" "http://www.w3.org/Graphics/SVG/1.1/DTD/svg11.dtd" >
<svg xmlns="http://www.w3.org/2000/svg" xmlns:xlink="http://www.w3.org/1999/xlink" version="1.1" viewBox="-10 0 1010 1000">
   <path fill="currentColor"
d="M627 -10h30q67 -2 65 8q2 3 -1 7q-18 28 -17 108q136 0 187 -7v81q-9 -11 -187 -10v111q147 -1 173 -10v82q-11 -12 -173 -8v101q161 0 203 -10q0 5 -2 20q-8 62 -8 89q0 89 -10 107q-30 54 -135 60q2 -38 -28 -90q69 16 84 2q14 -17 11 -115h-115v119q0 130 12 151h-95
q12 -12 12 -155v-115q-121 -3 -133 6v-75q26 8 133 8v-103q-102 -3 -127 6v-78q9 8 127 8v-111q-122 0 -139 10v-79q24 5 139 5v-34q3 -66 -6 -89zM115 34q16 10 159 10h36q118 0 148 -8q-8 27 -8 151v44q-1 141 10 152q-30 -6 -160 -6h-42q-131 -1 -143 8q8 -51 8 -162v-40
q0 -108 -8 -149zM379 108h-185v77h185v-77zM379 240h-185v74h185v-74zM474 425v75q-23 -9 -137 -8v96q144 0 161 -8v79q-13 -11 -161 -10v123q68 26 251 35q196 8 374 -7q-22 31 -37 97q-403 -3 -541 -37q-141 -27 -227 -135q-5 14 -12 38q-16 57 -44 120q-3 -1 -9 -4
q-44 -22 -68 -23q89 -136 101 -322q105 18 99 26q1 4 -5 10q-25 23 -38 85q53 65 83 82v-241h-60q-149 0 -156 8v-81q28 10 164 10h90q127 0 172 -8z" />
</svg>
