<?xml version="1.0" standalone="no"?>
<!DOCTYPE svg PUBLIC "-//W3C//DTD SVG 1.1//EN" "http://www.w3.org/Graphics/SVG/1.1/DTD/svg11.dtd" >
<svg xmlns="http://www.w3.org/2000/svg" xmlns:xlink="http://www.w3.org/1999/xlink" version="1.1" viewBox="-10 0 1034 1024">
  <g transform="matrix(1 0 0 -1 0 820)">
   <path fill="currentColor"
d="M427 619q-54 -6 -83 -6h-101v76q0 12 4 33q0 15 4 23q0 3 9 17h-60q0 -12 3 -33q0 -30 3 -60v-56q-93 0 -121 2q-9 1 -16 2q-3 0 -13 2v-47q22 3 57 6h93v-133l-108 3q-1 0 -5 1q-3 1 -6 1v-47q4 1 38 5l81 1v-144q-97 0 -132 2q-6 0 -19 3v-46q54 4 112 5h39l-1 -349
q-4 -36 -5 -38h49l-4 42q0 12 -2 27v318h132l-5 -96q0 -24 -5 -54q-3 -30 -9 -43q-12 -12 -43 -13q-16 0 -43 8q9 -24 15 -52q67 6 90 20q18 15 23 41q3 25 9 116q0 6 12 114q-24 -1 -39 -2q-27 -3 -36 -3h-101v144q135 0 146 -3q3 0 7 -3v47q-27 -1 -53 -5h-100v133l178 -4
q1 0 6 -2v47zM482 -80q-34 1 -70 3q-6 1 -13 3v-46q33 3 67 5l483 -1q12 -1 24 -4v46q-7 -3 -20 -3q-15 -1 -50 -3l1 311q0 21 4 48q-72 -4 -109 -5l-275 1l-47 4q1 -31 5 -65v-294zM521 -80v318h89v-318h-89zM647 -80v318h86v-318h-86zM771 -80v318h94v-318h-94zM509 381
q15 3 54 4l253 1q33 -1 68 -5q-3 30 -5 61l1 244l4 47q-36 -1 -71 -5l-257 1q-3 0 -47 4q6 -54 6 -66l-1 -241q-4 -15 -5 -38v-7zM552 421v117h289v-117h-289zM552 573v120h289v-120h-289z" />
  </g>

</svg>
