<?xml version="1.0" standalone="no"?>
<!DOCTYPE svg PUBLIC "-//W3C//DTD SVG 1.1//EN" "http://www.w3.org/Graphics/SVG/1.1/DTD/svg11.dtd" >
<svg xmlns="http://www.w3.org/2000/svg" xmlns:xlink="http://www.w3.org/1999/xlink" version="1.1" viewBox="-10 0 1010 1000">
   <path fill="currentColor"
d="M302 -2q8 20 27 66q9 21 14 32l-81 23q-26 -79 -40 -99zM613 4q95 16 105 24q0 5 -9 14q-17 17 -24 36q-13 33 -42 91h170q70 1 108 -14q0 1 -1 4q-7 50 -7 85q-2 98 -4 244q-3 235 -8 292q13 97 -207 121q-1 -64 -45 -113q104 13 137 0q35 -11 35 -63q12 -287 14 -490
h-220q-4 7 -12 19q-34 54 -59 100q-37 -28 -86 -34q119 -127 155 -316zM79 123q72 8 133 8h161q70 0 127 -10v80q-48 -6 -117 -6h-175q-65 0 -124 7q-3 1 -5 1v-80zM345 205q86 17 92 28q0 3 -6 10q-31 35 -62 119h54q51 0 93 -6v77q-31 -6 -103 -6h-266q-59 0 -105 6v-83
q52 12 109 12h153q35 -96 41 -157zM214 227q12 55 26 99l-77 18q-4 -60 -22 -104zM655 332q28 45 69 156l-83 30q-24 -88 -64 -153zM101 481q36 9 113 9h131q61 0 109 -7q-8 43 -8 109v198q0 63 6 111h-87q8 -39 8 -77h-194q-1 60 4 79h-86q7 -52 10 -135v-194q0 -53 -6 -93
zM770 536q-5 32 4 79q-261 72 -266 90q-9 -44 -29 -85l-5 -10q122 -14 296 -74zM179 550v75h194v-75h-194zM179 685v79h192v-79h-192z" />
</svg>
