<?xml version="1.0" standalone="no"?>
<!DOCTYPE svg PUBLIC "-//W3C//DTD SVG 1.1//EN" "http://www.w3.org/Graphics/SVG/1.1/DTD/svg11.dtd" >
<svg xmlns="http://www.w3.org/2000/svg" xmlns:xlink="http://www.w3.org/1999/xlink" version="1.1" viewBox="-10 0 1010 1000">
   <path fill="currentColor"
d="M925 50q-14 50 -33 229q-6 59 -9 81q0 98 -163 113q1 -57 -33 -98q73 10 92 2q22 -5 31 -43q12 -62 23 -203h-115q-14 226 -158 344q-52 -43 -88 -56q-19 -2 -50 -3q-15 -1 -35 -1h-54h-186q-47 0 -87 6v-83q46 8 93 8h162q37 -71 50 -139q18 5 47 11q48 11 46 15
q1 3 -6 11q-32 35 -69 104h42q32 1 69 -6v67q136 -61 147 -274h-28q-58 0 -91 4v-83q74 4 121 4h147q76 0 135 -10zM544 490q29 6 99 6h155q42 0 107 -9q-8 34 -8 109v190q0 66 8 105h-92q5 -19 6 -32q2 -14 2 -45h-202q0 36 1 49q0 17 3 32h-79q4 -33 5 -60q1 -30 1 -89
v-154q0 -60 -6 -102zM621 566v178h200v-178h-200zM105 481q36 9 113 9h131q61 0 109 -7q-8 43 -8 109v198q0 63 6 111h-87q6 -29 6 -77h-192q-1 60 4 79h-86q10 -56 10 -135v-194q0 -53 -6 -93zM183 558v67h194v-67h-194zM183 689v71h192v-71h-192zM304 -2q8 20 27 66
q9 21 14 32l-81 23q-26 -79 -40 -99zM83 115q72 8 133 8h161q70 0 127 -10v90q-48 -9 -125 -10h-171q-62 0 -116 3q-6 1 -9 1v-82zM222 219q12 55 26 99l-77 18q-4 -61 -22 -103z" />
</svg>
