<?xml version="1.0" standalone="no"?>
<!DOCTYPE svg PUBLIC "-//W3C//DTD SVG 1.1//EN" "http://www.w3.org/Graphics/SVG/1.1/DTD/svg11.dtd" >
<svg xmlns="http://www.w3.org/2000/svg" xmlns:xlink="http://www.w3.org/1999/xlink" version="1.1" viewBox="-10 0 1034 1024">
  <g transform="matrix(1 0 0 -1 0 820)">
   <path fill="currentColor"
d="M137 397q-45 0 -65 5v-47q9 4 25 5l390 1q45 0 63 -6v47q-6 0 -12 -3l-161 -2q10 21 20 38q6 12 23 41q21 39 51 62q-31 12 -43 18l-15 8q-27 -78 -80 -167h-196zM106 572q9 6 61 7l312 -1q19 -1 31 -6v48q-6 0 -12 -3l-143 -3l-219 1l-30 5v-48zM170 -94l-4 -55
q0 -1 -1 -4h48q-3 18 -5 37v45h223q0 -33 -5 -74h48q-3 16 -5 34l1 355l4 42q-27 -1 -56 -5l-216 1q-12 3 -37 4q1 -30 5 -61v-319zM208 -35v124h223v-124h-223zM208 125v120h223v-120h-223zM177 523q42 -48 66 -105q18 16 36 26q-31 51 -69 104q-13 -12 -33 -25zM254 761
q-12 -16 -28 -33q63 -37 114 -103q12 15 32 33l-36 32zM884 566v-575q0 -66 -60 -76q-27 -3 -57 -4q-18 0 -47 2q12 -28 18 -51q43 3 72 7q25 4 45 11q28 9 45 25q21 24 22 65l1 595l4 42q-27 -1 -55 -5h-230q13 31 45 94q12 27 38 53q-34 9 -62 20q-9 -36 -34 -100
q-28 -72 -86 -145q-33 -36 -62 -53q21 -9 54 -28l88 123h261zM686 155q30 16 61 31q34 16 90 46q-6 25 -7 45q-30 -18 -77 -43q-51 -27 -102 -52q-48 -22 -80 -36q-25 -9 -49 -15q18 -22 31 -51q16 10 29 20q15 9 45 25zM631 430q-12 -16 -29 -34q81 -48 136 -111
q10 19 29 37q-28 28 -136 108v0z" />
  </g>

</svg>
