<?xml version="1.0" standalone="no"?>
<!DOCTYPE svg PUBLIC "-//W3C//DTD SVG 1.1//EN" "http://www.w3.org/Graphics/SVG/1.1/DTD/svg11.dtd" >
<svg xmlns="http://www.w3.org/2000/svg" xmlns:xlink="http://www.w3.org/1999/xlink" version="1.1" viewBox="-10 0 676 1000">
   <path fill="currentColor"
d="M236 754q114 -1 183 -93q-54 -54 -156 -168q-23 -27 -35 -40q-116 76 -119 164q7 129 127 137zM181 231q-4 50 65 136q109 -52 103 -140q-1 -97 -83 -98q-82 3 -85 102zM655 770l-58 62q-50 -42 -125 -115q-90 113 -242 113q-192 -11 -204 -201q-2 -143 159 -230
q-86 -94 -84 -168q10 -161 165 -171q151 10 161 165q6 122 -135 196q45 55 164 175q35 -86 38 -183l79 12q-14 138 -59 224q73 71 141 121z" />
</svg>
