<?xml version="1.0" standalone="no"?>
<!DOCTYPE svg PUBLIC "-//W3C//DTD SVG 1.1//EN" "http://www.w3.org/Graphics/SVG/1.1/DTD/svg11.dtd" >
<svg xmlns="http://www.w3.org/2000/svg" xmlns:xlink="http://www.w3.org/1999/xlink" version="1.1" viewBox="-10 0 1034 1024">
  <g transform="matrix(1 0 0 -1 0 820)">
   <path fill="currentColor"
d="M78 126q9 -19 13 -36q45 22 73 32q153 57 251 89q1 1 3 1q1 25 4 51l-44 -23q-36 -15 -59 -24q-21 -9 -54 -18v416l135 -3q-1 0 14 -2v45q-31 -1 -64 -5l-239 1q-6 1 -7 1q-12 1 -25 3v-45q3 3 47 5h100v-428q-34 -12 -86 -28q-45 -12 -70 -15q3 -7 8 -17zM650 386l1 -42
q0 -43 -5 -96q-9 -97 -39 -157q-57 -108 -208 -161q-45 -15 -98 -20q15 -12 25 -25l17 -24q43 13 116 47q127 64 181 156q22 45 33 85q9 46 16 128q3 45 9 69q1 13 14 34q-27 0 -62 6zM706 700l197 -1q15 0 25 -3l13 -2v45q-9 -1 -60 -6l-437 1l-29 5v-45q3 0 6 1q21 4 57 5
h183q-7 -30 -20 -67q-12 -42 -36 -103q-75 0 -95 2q-1 0 -45 4q1 -33 5 -68l-1 -344q-1 -13 -2 -28l-2 -9h47q-3 31 -5 64v345h338l-5 -404h47q-3 12 -4 44l-1 332q0 33 5 68q-69 -6 -103 -6h-136q6 13 38 110q9 30 20 60zM944 -109q6 7 10 12q-15 12 -18 16l-84 64
q-126 96 -136 104q-12 -21 -28 -37q24 -13 45 -28l63 -47q66 -51 128 -111q9 13 20 27v0z" />
  </g>

</svg>
