<?xml version="1.0" standalone="no"?>
<!DOCTYPE svg PUBLIC "-//W3C//DTD SVG 1.1//EN" "http://www.w3.org/Graphics/SVG/1.1/DTD/svg11.dtd" >
<svg xmlns="http://www.w3.org/2000/svg" xmlns:xlink="http://www.w3.org/1999/xlink" version="1.1" viewBox="-10 0 1034 1024">
  <g transform="matrix(1 0 0 -1 0 820)">
   <path fill="currentColor"
d="M237 337l-161 1l-18 2q-3 0 -12 2v-47q1 0 38 5l153 1v-369q0 -39 -3 -51q0 -3 -2 -13h49q-3 7 -4 27q0 16 -2 37v369l142 -1q12 0 26 -5v47l-98 -5h-70v316l132 -3q3 0 9 -3v47q-19 -3 -23 -4l-296 1q-6 0 -15 3v-47q12 6 52 6h103v-316zM350 -105q21 -24 36 -49
q9 3 20 9q51 24 84 42q30 15 62 40q96 72 128 162q21 54 36 219q3 42 18 69q-24 0 -59 5q1 -27 2 -89q-7 -87 -11 -112q-7 -43 -21 -80q-25 -67 -80 -116q-60 -51 -134 -83q-39 -15 -81 -17zM669 535l31 100l15 49q229 0 242 -2q6 0 16 -4v47q-10 -1 -22 -4l-489 1
q-3 0 -16 3v-47q6 3 13 3q27 3 53 3h157q-15 -67 -41 -149l-94 1q-3 0 -47 4q1 -16 3 -32q3 -21 3 -30v-348q0 -45 -6 -64h50q-3 6 -5 39q0 24 -2 50v344h324v-363q0 -37 -3 -52q0 -3 -2 -13h49q-3 6 -6 58l1 364q0 12 5 47q-28 -1 -57 -5h-172zM920 -53q-6 6 -116 76
q-63 40 -65 43l-8 -12q-6 -10 -18 -26q18 -9 41 -21l80 -51l77 -55q21 -15 42 -39q9 19 28 43q-1 0 -61 42v0z" />
  </g>

</svg>
