<?xml version="1.0" standalone="no"?>
<!DOCTYPE svg PUBLIC "-//W3C//DTD SVG 1.1//EN" "http://www.w3.org/Graphics/SVG/1.1/DTD/svg11.dtd" >
<svg xmlns="http://www.w3.org/2000/svg" xmlns:xlink="http://www.w3.org/1999/xlink" version="1.1" viewBox="-10 0 1034 1024">
  <g transform="matrix(1 0 0 -1 0 820)">
   <path fill="currentColor"
d="M189 606v62h260q25 0 53 -3l13 -2v47q-12 -3 -28 -4q-19 0 -38 -2l-256 1q-15 3 -25 3q-9 0 -23 2q7 -60 8 -112l-6 -361q-3 -46 -13 -104l-14 -64q-31 -115 -79 -168q33 -3 54 -12q91 192 92 411zM306 468h140v-177q0 -27 -9 -37q-16 -19 -52 -20q-13 0 -42 4
q13 -22 21 -49q73 7 101 33q18 19 18 70l1 172q0 18 4 46q-18 -1 -32 -3q-24 -3 -77 -3q-57 0 -81 2q-1 0 -34 4q1 -33 5 -67l-1 -492q-3 -9 -9 -18q-1 -1 -3 -4l31 -43q15 19 41 40q27 21 54 46q45 40 71 56l48 34l-13 56q-18 -22 -35 -39q-12 -10 -92 -74q-18 -16 -55 -42
v505zM762 314q0 69 20 93l-62 7q1 -21 3 -42l2 -99q0 -45 -7 -89q-9 -70 -39 -122q-55 -88 -158 -137q-33 -15 -80 -26q19 -15 43 -44q45 22 74 41q70 45 115 94q48 54 70 122q18 63 19 181v21zM902 672q31 -1 65 -5v46q-39 -4 -65 -5l-331 1l-25 3q-3 0 -6 1v-46q7 3 36 4
l139 1q0 -24 -4 -38l-9 -55q-3 -18 -10 -43q-58 0 -86 2q-12 3 -41 3q1 -34 5 -70l-1 -353q-1 -12 -2 -27q0 -6 -2 -14h47q-3 33 -5 67v356h273q-3 -396 -5 -414h48q-4 34 -5 66l1 339l4 50q-34 -1 -70 -5h-121l15 66l11 70h144zM786 71q-13 -18 -31 -36q33 -18 89 -63
q42 -36 70 -62q24 -24 43 -47q3 3 6 9q3 3 4 8l17 25q-3 1 -94 81q-63 54 -104 85v0z" />
  </g>

</svg>
