<?xml version="1.0" standalone="no"?>
<!DOCTYPE svg PUBLIC "-//W3C//DTD SVG 1.1//EN" "http://www.w3.org/Graphics/SVG/1.1/DTD/svg11.dtd" >
<svg xmlns="http://www.w3.org/2000/svg" xmlns:xlink="http://www.w3.org/1999/xlink" version="1.1" viewBox="-10 0 1010 1000">
   <path fill="currentColor"
d="M407 18q47 8 129 8h295q67 0 113 -10v96q-49 -10 -113 -10h-141l-25 109h125q43 0 91 -8q-8 44 -10 107v234q1 63 12 113h-95q7 -53 8 -109v-272h-278v284q1 72 10 115h-93q7 -39 7 -115v-278q0 -27 -7 -79q39 8 81 8h73l28 -109h-83q-75 1 -127 8v-92zM60 54
q58 12 101 12h123q44 0 97 -10v89q-9 -1 -23 -3q-38 -5 -62 -5h-26v193h18q51 0 91 -8v87q-39 -9 -85 -8h-24v212q7 -2 21 -5q73 -16 104 -30l-4 85q-152 27 -324 85l-25 -89q3 -1 12 -2q67 -14 140 -28v-228h-25q-64 0 -104 8v-87q37 8 104 8h25v-193h-35h-15q-55 -2 -84 8
v-91zM613 340q108 12 101 14q2 3 -10 21q-9 14 -10 18q-2 15 -4 56q-6 188 -67 272q-75 106 -212 174q-27 -46 -92 -73q260 -67 290 -260q5 -45 6 -106q1 -64 -2 -116zM730 643q132 106 203 175l-84 69q-59 -98 -186 -192z" />
</svg>
