<?xml version="1.0" standalone="no"?>
<!DOCTYPE svg PUBLIC "-//W3C//DTD SVG 1.1//EN" "http://www.w3.org/Graphics/SVG/1.1/DTD/svg11.dtd" >
<svg xmlns="http://www.w3.org/2000/svg" xmlns:xlink="http://www.w3.org/1999/xlink" version="1.1" viewBox="-10 0 1034 1024">
  <g transform="matrix(1 0 0 -1 0 820)">
   <path fill="currentColor"
d="M252 614h60q27 0 69 -6v47q-37 -4 -69 -5h-189q-30 0 -58 4q-4 1 -8 1v-47q30 6 66 6h90v-593q0 -33 -13 -43q-15 -9 -50 -10q-27 0 -68 6q9 -21 19 -52q28 0 66 6q46 6 65 24t20 62v600zM322 -144l27 -33q222 75 286 204q18 36 26 78q7 45 13 126l9 79q3 18 14 33
q-30 0 -65 8q3 -27 3 -47q0 -108 -11 -183q-12 -67 -52 -119q-60 -78 -170 -112q-46 -13 -97 -14zM947 694q-36 -4 -71 -5h-396q-42 0 -69 5v-47q33 6 69 6h159q-12 -48 -23 -80q-9 -33 -26 -83l-96 1q-16 3 -49 6q1 -19 3 -34q1 -24 3 -36l-1 -343q-1 -1 -1 -6
q-3 -39 -4 -42h51q-3 9 -5 37q0 15 -2 33v349h336l-1 -380q-3 -28 -6 -33h51q-4 31 -5 70l1 334l4 51q-15 -1 -32 -3q-21 -3 -36 -4h-169q7 30 50 163h194q39 0 71 -6v47zM935 -115q-52 42 -107 82l-117 82q-6 -9 -12 -19q-6 -7 -17 -18q66 -36 123 -79q49 -36 74 -59
q24 -21 49 -51q4 6 11 16q9 10 21 26z" />
  </g>

</svg>
