<?xml version="1.0" standalone="no"?>
<!DOCTYPE svg PUBLIC "-//W3C//DTD SVG 1.1//EN" "http://www.w3.org/Graphics/SVG/1.1/DTD/svg11.dtd" >
<svg xmlns="http://www.w3.org/2000/svg" xmlns:xlink="http://www.w3.org/1999/xlink" version="1.1" viewBox="-10 0 1010 1000">
   <path fill="currentColor"
d="M409 32q56 7 109 8h276q59 0 115 -8v87q-58 -7 -115 -7h-107l-20 117h121q17 0 87 -10q-5 37 -6 85v232q0 78 12 121l-101 2q9 -49 10 -115v-244h-274v254q1 86 10 123h-99q10 -32 10 -123v-250q0 -36 -8 -83q38 8 83 8h77l24 -117h-91q-79 0 -113 7v-87zM385 52v91
q-47 -8 -89 -8h-28v244h38q42 0 95 -8v86q-3 0 -11 -2q-56 -8 -88 -8h-34v291q0 51 10 122h-95q8 -41 9 -120v-291h-39q-69 0 -113 8v-86q59 10 109 10h43v-246h-29q-29 0 -83 6q-8 1 -13 2v-89q40 7 98 6h117q66 0 103 -8zM609 350q94 9 95 13q1 2 -4 10q-9 16 -10 28
q-1 16 -3 59q-6 171 -26 223q-72 136 -286 230q-32 -52 -75 -79q266 -56 297 -232q14 -151 12 -252zM738 657q21 19 80 70q89 77 126 109l-77 63q-73 -93 -196 -190z" />
</svg>
