<?xml version="1.0" standalone="no"?>
<!DOCTYPE svg PUBLIC "-//W3C//DTD SVG 1.1//EN" "http://www.w3.org/Graphics/SVG/1.1/DTD/svg11.dtd" >
<svg xmlns="http://www.w3.org/2000/svg" xmlns:xlink="http://www.w3.org/1999/xlink" version="1.1" viewBox="-10 0 1034 1024">
  <g transform="matrix(1 0 0 -1 0 820)">
   <path fill="currentColor"
d="M421 161q-36 -15 -80 -31q-55 -21 -70 -25v278q93 0 117 -3q3 0 9 -3v47q-9 -3 -22 -3q-19 0 -41 -2h-63v233q108 0 132 -3q3 0 9 -3v47q-9 -3 -22 -3q-19 0 -41 -2l-244 1q-12 1 -30 4v-47q7 3 28 4q12 1 130 2v-233l-112 1q-9 1 -17 2q-3 0 -12 2v-47q12 6 52 6h89
v-290q-132 -42 -171 -46q13 -24 26 -50q28 10 58 24q213 73 226 76l52 14q-3 22 -3 50zM686 396q-10 1 -21 1q3 -42 4 -68q0 -81 -10 -141q-24 -123 -122 -198q-66 -48 -133 -75q-39 -13 -84 -16q28 -25 46 -51q21 9 53 26q36 18 81 43q97 57 152 142q27 40 38 93
q12 57 20 169q3 48 18 72q-21 1 -42 3zM658 529l12 32l46 119l214 -1q12 0 26 -5v47q-3 0 -61 -5l-415 1q-9 1 -17 2q-3 0 -12 2v-47q6 3 12 3q27 3 52 3h155q-21 -73 -60 -151q-72 0 -96 2q-1 0 -38 5q1 -30 5 -63l-1 -367l-3 -23q-1 -3 -1 -7h49q-4 15 -5 38l-1 380h335
l-1 -390q0 -3 -4 -25h49q-3 10 -6 51l1 358q0 7 5 48q-19 0 -25 -4q-25 -3 -32 -3h-183zM958 -79q-55 42 -88 64l-116 78l-15 9q-3 -1 -13 -17q-6 -10 -15 -23q34 -13 120 -70q78 -54 117 -97q3 3 6 9q3 3 4 8q7 12 20 24q-10 7 -20 15v0z" />
  </g>

</svg>
