<?xml version="1.0" standalone="no"?>
<!DOCTYPE svg PUBLIC "-//W3C//DTD SVG 1.1//EN" "http://www.w3.org/Graphics/SVG/1.1/DTD/svg11.dtd" >
<svg xmlns="http://www.w3.org/2000/svg" xmlns:xlink="http://www.w3.org/1999/xlink" version="1.1" viewBox="-10 0 1010 1000">
   <path fill="currentColor"
d="M200 0q86 -2 96 14q1 6 -5 15q-11 17 -11 37v40h47q51 0 86 -6v75q-42 -9 -88 -8h-45v111h77q34 0 74 -8q-6 42 -6 97v151q0 90 6 139h-90q6 -42 6 -83h-182q-8 162 -70 315q-42 -55 -63 -71q75 -100 65 -462q0 -28 -6 -71q-1 -7 -2 -11q33 3 72 4h49v-178
q0 -56 -10 -100zM347 340h-180v174h180v-174zM645 381q99 3 97 14q1 6 -4 14q-10 20 -12 50q4 349 -309 436q-28 -45 -84 -85q304 -14 312 -314q3 -64 0 -115zM758 687q148 93 184 139l-61 63q-64 -75 -181 -145zM476 32q4 0 11 1q68 9 92 9h260q34 0 99 -8v76h-8
q-58 -4 -91 -4h-115q-15 67 -34 127h108q48 0 63 -1q19 0 36 -3q-7 28 -8 44q-2 19 -2 69v212q0 66 8 115h-99q1 -7 3 -24q7 -51 7 -95v-202v-56h-244v252q0 48 1 70q2 27 6 51h-97q0 -2 1 -5q11 -35 11 -120v-224q0 -48 -4 -93q46 9 76 10h65l6 -39q3 -18 14 -88h-68
q-53 -1 -97 6v-80z" />
</svg>
