<?xml version="1.0" standalone="no"?>
<!DOCTYPE svg PUBLIC "-//W3C//DTD SVG 1.1//EN" "http://www.w3.org/Graphics/SVG/1.1/DTD/svg11.dtd" >
<svg xmlns="http://www.w3.org/2000/svg" xmlns:xlink="http://www.w3.org/1999/xlink" version="1.1" viewBox="-10 0 1034 1024">
  <g transform="matrix(1 0 0 -1 0 820)">
   <path fill="currentColor"
d="M258 588q-145 0 -175 2q-4 1 -7 1t-12 2v-47q1 0 38 5l156 1v-149q-114 0 -141 2q-4 1 -7 1t-12 2v-47q1 0 38 5l252 1q39 0 57 -4q1 0 6 -2v47l-100 -5h-55v149q147 0 171 -3q3 0 9 -3v47l-102 -5h-78v112q0 12 3 29q3 21 11 35h-57l5 -101v-75zM113 -63q0 -40 -5 -64
h49q-4 12 -5 35l-1 56h218q0 -30 -6 -66h50q-6 21 -7 54l1 257q0 12 5 48q-30 -1 -59 -5q-183 0 -207 2l-38 3q1 -30 5 -63v-257zM151 -1v217h218v-217h-218zM693 405q-10 1 -21 1q3 -42 4 -69q0 -39 -4 -90q-3 -48 -8 -84q-18 -99 -67 -162q-63 -81 -146 -110
q-24 -6 -55 -9q27 -28 38 -49q39 18 61 32q21 12 49 33q93 69 136 176q12 36 18 69q6 42 12 117l8 88q3 30 15 54q-19 1 -40 3zM673 522l47 146l219 -3q3 0 9 -3v47l-63 -5l-394 1l-18 2q-3 0 -12 2v-47q3 3 12 3q30 1 53 3h149q-15 -63 -43 -146q-57 0 -81 2q-6 3 -38 3
q1 -30 5 -61l-1 -368q-1 -16 -4 -28h49q-3 6 -5 41l-1 375h282v-345q0 -37 -3 -52q0 -3 -2 -13h49q-3 6 -6 59l1 346l4 34q0 4 1 12q-28 -1 -57 -5h-152zM783 -22q18 -13 37 -29q79 -60 116 -102q12 18 31 37q-22 19 -54 45q-9 6 -103 82q-34 27 -57 45q-15 -16 -29 -35
q9 -4 59 -43v0z" />
  </g>

</svg>
