<?xml version="1.0" standalone="no"?>
<!DOCTYPE svg PUBLIC "-//W3C//DTD SVG 1.1//EN" "http://www.w3.org/Graphics/SVG/1.1/DTD/svg11.dtd" >
<svg xmlns="http://www.w3.org/2000/svg" xmlns:xlink="http://www.w3.org/1999/xlink" version="1.1" viewBox="-10 0 1010 1000">
   <path fill="currentColor"
d="M272 -15q105 4 109 17q1 3 -5 8q-31 26 -31 90v37h88q28 0 87 -4q-4 14 -10 41q-28 105 -34 140q-38 -12 -85 -6q27 -58 38 -105h-84v131v45h62q24 0 67 -4q-36 162 -85 270q21 20 89 107l-79 56q-20 -57 -52 -97q-58 75 -137 154q-33 -36 -79 -53q104 -57 173 -163
q-41 -57 -116 -131l62 -37q28 31 63 73q16 19 26 30q28 -69 40 -139h-196q-2 263 -104 434q-2 -4 -6 -9q-12 -25 -55 -64q60 -72 79 -196q20 -103 18 -389q0 -25 -6 -94q2 1 7 2q32 8 78 8h84v-33q1 -76 -6 -119zM528 50q47 8 91 8h240q42 -1 91 -10v83q-50 -6 -89 -6h-105
q-7 45 -24 117q-1 7 -2 10h93q43 0 56 -1q18 0 32 -3q-4 24 -5 42q-1 13 -1 72v212q0 65 6 113h-90q0 -5 2 -16q6 -54 6 -101v-252h-222v246q0 73 6 121h-89q0 -2 1 -5q11 -35 11 -120v-224q0 -60 -4 -90q39 6 75 6h54q9 -55 18 -127h-62q-48 -1 -89 6v-81zM185 203v178h93
v-178h-93zM673 373q113 3 111 16q1 3 -7 10q-18 16 -19 32q-10 245 -59 313q-45 84 -225 167q-25 -44 -75 -69q285 -38 282 -346q-1 -68 -8 -123zM770 693q106 78 188 155l-73 57q-73 -88 -177 -161z" />
</svg>
