<?xml version="1.0" standalone="no"?>
<!DOCTYPE svg PUBLIC "-//W3C//DTD SVG 1.1//EN" "http://www.w3.org/Graphics/SVG/1.1/DTD/svg11.dtd" >
<svg xmlns="http://www.w3.org/2000/svg" xmlns:xlink="http://www.w3.org/1999/xlink" version="1.1" viewBox="-10 0 1034 1024">
  <g transform="matrix(1 0 0 -1 0 820)">
   <path fill="currentColor"
d="M187 383h139l-1 -444l-4 -40h49q-4 12 -5 42l-1 442l96 -1q13 0 28 -3l2 -1v46q-33 -1 -65 -5h-238v209q34 6 56 11q18 3 34 8q97 22 106 23l65 8q-24 19 -43 49q-31 -15 -60 -25q-25 -9 -82 -22q-61 -12 -86 -13q-12 0 -33 2q1 -21 2 -34q3 -24 3 -33v-313
q0 -124 -17 -212q-21 -94 -54 -145q-12 -16 -34 -36q12 -3 22 -6l38 -10q21 39 40 94q42 132 43 314v95zM472 -150q25 9 78 43q87 55 134 131q36 60 52 236q4 72 8 76q3 18 17 35q-33 3 -64 4l4 -41l-4 -90q-10 -105 -29 -164q-31 -84 -126 -144q-42 -25 -112 -44
q16 -12 33 -31q4 -4 9 -11zM968 699q-4 0 -7 -1q-3 0 -6 -2q-21 0 -52 -3l-383 1q-9 1 -13 2q-9 3 -14 3v-47q3 3 19 3q33 1 66 3h125q-9 -34 -25 -78q-18 -52 -31 -75l-117 5q6 -66 6 -89l-1 -308q-1 -7 -2 -28q0 3 -3 -14h48q-1 6 -6 70v328h283l-1 -341l-4 -52h48
q-4 30 -5 70l1 314l4 50q-33 -1 -67 -5h-142l37 95q9 24 20 58l194 -1l26 -4l2 -1v47zM744 22q96 -61 194 -161l24 28l6 6l-99 85q-46 39 -99 77q-10 -19 -26 -35v0z" />
  </g>

</svg>
