<?xml version="1.0" standalone="no"?>
<!DOCTYPE svg PUBLIC "-//W3C//DTD SVG 1.1//EN" "http://www.w3.org/Graphics/SVG/1.1/DTD/svg11.dtd" >
<svg xmlns="http://www.w3.org/2000/svg" xmlns:xlink="http://www.w3.org/1999/xlink" version="1.1" viewBox="-10 0 1010 1000">
   <path fill="currentColor"
d="M210 -2q104 0 105 12q0 3 -4 10q-17 30 -17 74v45h81q17 0 48 -1q25 -1 37 -1v78q-30 -6 -91 -6h-75v115h67q42 -1 72 -4v75q-27 -4 -84 -4h-172q-53 0 -86 6v-79q27 3 74 4h57v-113h-75q-63 0 -95 6v-82q41 6 95 6h75v-41q-1 -54 -12 -100zM647 358q97 6 103 17
q0 2 -5 9q-21 28 -21 65q4 207 -47 279q-43 80 -237 187q-21 -42 -77 -77q163 -39 228 -116q63 -69 60 -220q0 -65 -1 -93q-1 -33 -3 -51zM99 473q2 0 6 1q49 7 72 7h158q34 0 74 -4q-5 14 -4 69v181q0 44 1 60q1 20 3 31h-82q6 -30 6 -60h-156q0 60 6 96h-88q6 -13 8 -40
q1 -13 2 -31v-50v-185q0 -46 -6 -75zM177 544v151h156v-151h-156zM752 671q104 66 216 165l-79 57q-73 -91 -195 -168zM474 48q1 -1 21 1q52 5 88 5h254q63 0 98 -6v79h-5q-55 -6 -91 -6h-111q-15 69 -34 127h106q45 0 59 -1q18 0 36 -3q0 2 -1 5q-8 35 -7 111v216
q0 66 6 111h-89q0 -8 2 -25q6 -47 6 -110v-236h-243v250q0 51 1 68q1 22 7 53h-93q11 -33 10 -131v-220q0 -48 -8 -96q4 1 12 2q47 6 65 6h64q9 -55 18 -127h-64q-63 0 -107 6v-79z" />
</svg>
