<?xml version="1.0" standalone="no"?>
<!DOCTYPE svg PUBLIC "-//W3C//DTD SVG 1.1//EN" "http://www.w3.org/Graphics/SVG/1.1/DTD/svg11.dtd" >
<svg xmlns="http://www.w3.org/2000/svg" xmlns:xlink="http://www.w3.org/1999/xlink" version="1.1" viewBox="-10 0 1034 1024">
  <g transform="matrix(1 0 0 -1 0 820)">
   <path fill="currentColor"
d="M384 353v-76q-3 -12 -3 -129q-3 -172 -6 -188q-1 -1 -2 -5q-9 -31 -56 -32q-16 0 -55 8q12 -30 17 -53q12 1 26 1q76 4 98 41q10 19 13 102l8 308q0 12 2 29q1 15 4 35q-36 -1 -72 -5q-159 0 -186 2q-15 3 -20 3v-46q49 6 74 5q-4 -99 -16 -160q-28 -129 -84 -200
q-19 -24 -44 -48q-22 -16 -45 -29q13 -3 26 -10q9 -3 28 -16q90 93 128 190q34 93 48 273h117zM55 336q28 -3 52 -15q22 45 48 107q27 72 56 184q12 55 41 76q-34 6 -60 20q-19 -100 -43 -182q-39 -129 -94 -190zM486 409l-59 127q-76 153 -100 194q-1 1 -2 3
q-15 -9 -34 -17l30 -53q108 -223 115 -239l35 -90q18 13 41 24q-13 25 -26 51zM419 -109q19 -10 47 -41q39 15 102 62q93 70 126 144q39 85 44 209q0 60 3 70q3 15 15 37q-39 0 -59 4l2 -115l-12 -104q-10 -51 -28 -88q-48 -94 -151 -149q-45 -22 -89 -29zM896 668
q25 0 67 -5v47q-15 -3 -28 -4q-18 0 -39 -2h-356q-27 0 -54 3q-1 0 -13 3v-47q25 3 53 5h172q-6 -33 -18 -79q-10 -43 -22 -75q-54 0 -84 2q-9 3 -38 3q1 -34 5 -71l-1 -338q-1 -10 -2 -25q0 -1 -2 -14h48q-4 39 -5 67v340h278q-3 -390 -5 -406h48q-3 33 -5 67l1 333l4 47
q-21 -1 -34 -2q-27 -3 -36 -3h-128q3 12 7 22q13 49 21 78l17 54h149zM745 4q48 -27 91 -61l75 -60q19 -18 36 -33q9 18 26 38q-60 49 -126 97l-75 55q-12 -18 -27 -36v0z" />
  </g>

</svg>
