<?xml version="1.0" standalone="no"?>
<!DOCTYPE svg PUBLIC "-//W3C//DTD SVG 1.1//EN" "http://www.w3.org/Graphics/SVG/1.1/DTD/svg11.dtd" >
<svg xmlns="http://www.w3.org/2000/svg" xmlns:xlink="http://www.w3.org/1999/xlink" version="1.1" viewBox="-10 0 1034 1024">
  <g transform="matrix(1 0 0 -1 0 820)">
   <path fill="currentColor"
d="M160 706q-33 3 -65 5v-46q60 4 65 5h200q-36 -55 -67 -91q-78 -87 -163 -143q-51 -30 -87 -42q30 -18 47 -36l62 45q27 21 32 24q45 37 84 73q93 -55 187 -135q9 21 25 38l-181 126q73 75 133 182q-39 -1 -78 -5h-194zM302 8l93 27q25 9 60 16q0 15 4 32q0 1 4 23
q-24 -15 -53 -27q-30 -10 -77 -24q-21 -4 -40 -10v226h74q28 0 53 -3l13 -2v46l-63 -5l-236 1q-15 1 -25 3q-3 1 -6 1v-46q54 4 77 5h75v-237q-52 -15 -106 -28q-48 -12 -82 -17q15 -25 25 -52q18 10 84 32zM382 -96q21 -16 41 -45q72 30 139 75q115 81 152 198
q12 52 22 195q0 33 5 44q1 9 16 29q-34 0 -63 4q3 -54 4 -94q0 -169 -62 -254q-60 -81 -171 -130q-36 -15 -83 -22zM977 730q-39 -4 -65 -5l-420 1q-9 1 -15 2q-1 0 -13 2v-46q51 4 98 5h138q-3 -15 -45 -121q-4 -7 -10 -20h-71q-9 0 -34 3q-15 0 -34 2q1 -33 5 -69l-1 -382
q-1 -7 -2 -17q0 -3 -2 -15h47q-4 54 -5 93v349h322l-3 -414q0 -6 -2 -13h47q-3 24 -4 66l1 352q0 16 3 50q-19 -1 -32 -2q-24 -3 -32 -3h-161q12 24 22 48l36 93h167q27 0 51 -3q1 0 14 -2v46zM736 26q66 -40 120 -85q60 -45 87 -79q12 22 29 39q-36 30 -90 71l-121 89
q-6 -12 -16 -24q-3 -6 -9 -11v0z" />
  </g>

</svg>
