<?xml version="1.0" standalone="no"?>
<!DOCTYPE svg PUBLIC "-//W3C//DTD SVG 1.1//EN" "http://www.w3.org/Graphics/SVG/1.1/DTD/svg11.dtd" >
<svg xmlns="http://www.w3.org/2000/svg" xmlns:xlink="http://www.w3.org/1999/xlink" version="1.1" viewBox="-10 0 1010 1000">
   <path fill="currentColor"
d="M417 20q53 91 43 92q-3 1 -15 0q-21 -3 -38 -2q-16 0 -52 2q-25 1 -38 1v104h62q66 0 93 -6v79q-29 -9 -89 -8h-66v197h26h37q11 -1 23 -2q-10 26 -10 71v153q22 -21 55 -60q9 -10 14 -16q3 33 24 76q-92 79 -147 139q-26 -54 -49 -78q33 -19 33 -45v-173h-93
q8 220 -99 327q-32 -35 -85 -49q68 -38 93 -117q12 -39 17 -94q4 -54 1 -136q27 4 67 4h24v-149q-44 77 -145 180q-29 -39 -61 -61q110 -61 168 -167h-51q-70 -1 -97 4v-77q43 8 103 8h83v-98l-149 16q-3 -45 -26 -73q213 4 344 -42zM381 308q42 34 121 107l-64 56
q-49 -71 -107 -117zM667 360q95 1 99 17q0 3 -4 8q-16 20 -16 58q3 198 -50 282q-52 94 -208 164q-29 -45 -77 -71q152 -31 207 -111q57 -76 53 -250q0 -68 -4 -97zM788 687q119 86 160 135l-75 61q-81 -95 -153 -143zM504 48q48 8 97 8h250q27 0 88 -7q6 -1 9 -1v79
q-53 -6 -93 -6h-111q-18 81 -32 123h103q52 0 92 -4q-6 28 -7 45q-1 20 -1 67v206q0 65 8 107h-94q6 -56 6 -113v-242h-232v236q0 47 1 67q1 25 5 52h-91q1 -4 2 -11q8 -36 8 -112v-216q0 -58 -6 -88q48 6 75 6h62q9 -40 20 -123h-64q-51 -1 -95 6v-79z" />
</svg>
