<?xml version="1.0" standalone="no"?>
<!DOCTYPE svg PUBLIC "-//W3C//DTD SVG 1.1//EN" "http://www.w3.org/Graphics/SVG/1.1/DTD/svg11.dtd" >
<svg xmlns="http://www.w3.org/2000/svg" xmlns:xlink="http://www.w3.org/1999/xlink" version="1.1" viewBox="-10 0 1010 1000">
   <path fill="currentColor"
d="M262 -2q92 3 93 16q1 6 -6 18q-12 19 -12 36v83q24 -1 65 -2q63 -2 80 -2v72q-36 -6 -145 -6v105h26q30 0 129 -6v77q0 1 -61 -2q-52 -2 -64 -2h-34v254q54 -103 70 -186q10 4 30 11q54 19 53 23q2 4 -5 11q-20 23 -33 58q-69 215 -355 309q-16 -39 -65 -77
q168 -39 236 -91v-312h-131q-35 1 -89 8v-79q33 4 63 4h14v-167q0 -39 -6 -75q89 4 89 14q0 7 -6 18q-10 21 -10 41v169h80v-246q0 -50 -6 -74zM476 44q10 1 34 2q74 4 101 4h189q88 0 144 -6v79q-89 -5 -138 -6h-68l-20 121h66q96 0 133 -5q-8 46 -10 127v168q1 53 6 135
h-80q2 -27 2 -139v-218h-240v226q0 66 1 88q1 29 3 43h-79q3 -52 4 -135v-176q0 -84 -6 -119q27 5 107 5h30l10 -121h-54q-69 0 -92 1q-30 1 -43 3v-77zM766 377q3 4 -4 18q-13 29 -16 60q-1 6 -2 19q-16 197 -61 253q-81 97 -217 158q-26 -32 -83 -65q142 -40 204 -97
q52 -49 70 -131q20 -82 14 -229q6 1 19 2q75 7 76 12zM145 429l73 24q-51 142 -79 198q-32 -19 -76 -22q51 -86 82 -200zM778 685q95 64 174 155l-71 55q-78 -95 -161 -157z" />
</svg>
