<?xml version="1.0" standalone="no"?>
<!DOCTYPE svg PUBLIC "-//W3C//DTD SVG 1.1//EN" "http://www.w3.org/Graphics/SVG/1.1/DTD/svg11.dtd" >
<svg xmlns="http://www.w3.org/2000/svg" xmlns:xlink="http://www.w3.org/1999/xlink" version="1.1" viewBox="-10 0 1034 1024">
  <g transform="matrix(1 0 0 -1 0 820)">
   <path fill="currentColor"
d="M190 267q-12 -90 -48 -174q-45 -103 -94 -128q27 -12 52 -27q45 69 87 167q12 28 22 67q6 21 13 52l18 84q-16 -1 -27 -2q-21 -3 -69 -3l-63 4q-3 1 -6 1v-47q7 3 28 4q12 1 87 2zM197 684q0 13 3 30q1 15 12 35h-58q0 -1 1 -5q0 -1 1 -4l3 -104v-133q0 -33 31 -50
q27 -13 117 -14q67 0 107 8q49 12 82 75q7 19 16 34q-24 13 -46 33q-1 -30 -5 -48q-9 -27 -22 -40q-28 -25 -138 -26q-49 0 -71 5q-33 9 -33 44v93q117 13 156 20q72 10 99 11q9 0 19 -1q-15 27 -27 53q-42 -15 -99 -27l-89 -15q-31 -4 -59 -7v33zM315 209q33 -40 64 -86
q24 -39 56 -99q10 -24 17 -43q1 1 43 26q-18 24 -72 118q-16 27 -47 67q24 27 26 32q57 66 61 68q9 9 32 22q-25 18 -46 39q-12 -22 -31 -51q-21 -30 -66 -81l-37 45v67q0 12 3 29q3 21 12 35h-58q0 -1 1 -5q0 -3 1 -6l3 -152l-1 -289q-4 -21 -17 -31q-18 -9 -47 -9
q-21 0 -50 6q12 -24 21 -51q93 9 117 33q15 18 15 44v272zM421 -111q24 -22 42 -46q121 55 176 102q54 51 79 113q24 61 31 169q3 94 8 121q1 24 13 47q-30 3 -59 5q3 -46 3 -80q0 -78 -8 -148q-15 -123 -80 -186q-51 -48 -125 -80q-40 -15 -80 -17zM716 532l37 123l185 -1
q12 0 26 -5v47q-3 0 -8 -2q-16 0 -33 -2l-400 1q-6 0 -15 3v-47q12 6 52 6h147q-6 -30 -13 -54q-6 -27 -18 -69h-70q-9 0 -30 4q-15 0 -33 2q4 -60 5 -62l-1 -395q-1 -16 -4 -27h49q-3 7 -4 26l-2 114v303h291v-376q0 -37 -3 -52q0 -1 -2 -12h49q-3 6 -6 58l1 376q1 24 5 47
q-57 -6 -77 -6h-128zM782 40q-4 -6 -9 -10q-4 -6 -19 -24q46 -28 103 -78q55 -51 78 -83l33 36l-14 14q-127 111 -136 116q-3 1 -23 18q-7 6 -13 11v0z" />
  </g>

</svg>
