<?xml version="1.0" standalone="no"?>
<!DOCTYPE svg PUBLIC "-//W3C//DTD SVG 1.1//EN" "http://www.w3.org/Graphics/SVG/1.1/DTD/svg11.dtd" >
<svg xmlns="http://www.w3.org/2000/svg" xmlns:xlink="http://www.w3.org/1999/xlink" version="1.1" viewBox="-10 0 1010 1000">
   <path fill="currentColor"
d="M448 48v73q-12 -5 -65 -4h-20v155q54 -1 83 -4q-5 13 -4 60v159q-1 62 4 79q-23 -5 -83 -4v161q62 1 85 -4v73q-9 -2 -28 -3q-15 -1 -59 -1h-178q-64 -1 -88 4q4 -48 4 -67v-588q0 -53 -4 -89q33 4 88 4h164q72 -1 101 -4zM167 117v606h129v-159q-57 -1 -74 4
q4 -42 4 -89v-145q0 -39 -4 -66q14 3 29 3q11 1 45 1v-155h-129zM379 332h-89v170h89v-170zM649 334q104 5 105 14q0 3 -5 11q-17 26 -17 50q18 349 -262 486q-18 -31 -73 -69q264 -74 258 -379q0 -83 -6 -113zM762 671q80 45 186 129l-71 69q-104 -105 -175 -144zM476 30
q63 8 105 8h254q53 0 100 -8v82h-5q-57 -6 -93 -6h-109q-4 16 -12 46q-14 52 -22 77h106q43 0 58 -1q19 0 37 -3q-10 45 -10 113v210q0 66 6 111h-93q0 -5 2 -17q6 -50 6 -98v-252h-233v244q0 56 5 107q0 10 1 16h-97q0 -2 1 -6q11 -38 11 -119v-220q0 -60 -4 -91q48 6 95 6
h42q8 -48 18 -123h-66q-60 0 -103 6v-82z" />
</svg>
