<?xml version="1.0" standalone="no"?>
<!DOCTYPE svg PUBLIC "-//W3C//DTD SVG 1.1//EN" "http://www.w3.org/Graphics/SVG/1.1/DTD/svg11.dtd" >
<svg xmlns="http://www.w3.org/2000/svg" xmlns:xlink="http://www.w3.org/1999/xlink" version="1.1" viewBox="-10 0 1034 1024">
  <g transform="matrix(1 0 0 -1 0 820)">
   <path fill="currentColor"
d="M115 437q66 72 119 139q6 12 48 70q1 6 13 19q34 -27 56 -47q36 -30 87 -81l26 -33q7 12 14 18q9 6 17 17l-182 161q7 16 36 41q-31 12 -54 25q-33 -93 -119 -203q-75 -93 -129 -114q21 -12 33 -19q9 -6 17 -11zM137 401q1 0 38 5l199 1q39 0 57 -4q1 0 5 -2v47
q-10 -1 -22 -4l-262 1q-6 0 -15 3v-47zM149 -22q0 -33 -5 -64h49q0 3 -4 13l-2 75h199q0 -42 -3 -60q-1 -1 -1 -4q-1 -1 -1 -5h49q-3 7 -4 27l-2 155l1 137q0 24 5 44q-19 -1 -33 -2q-21 -3 -41 -3l-168 1q-15 3 -44 4q1 -30 5 -63v-255zM187 39v216h199v-216h-199zM724 281
q1 27 3 39q3 28 15 53q-9 0 -62 6q4 -39 5 -66q0 -57 -7 -131q-10 -105 -69 -175q-54 -63 -111 -96q-42 -21 -81 -25q33 -24 51 -43q102 64 160 125q46 52 67 107q19 60 26 163zM657 504l65 176q198 0 226 -3q3 0 9 -3v47l-88 -5l-386 1q-9 1 -17 2q-3 0 -12 2v-47
q24 6 44 6h176q-16 -84 -61 -176q-43 0 -67 2q-1 0 -38 4q4 -99 5 -105l-1 -306q-1 -16 -4 -28h49q0 3 -5 41l-1 356h307v-327q0 -37 -3 -52q0 -3 -2 -13h50q-3 4 -4 13q-1 30 -3 52v306q0 7 3 27l4 36q-54 -6 -58 -6h-188zM954 -134q6 7 19 22l-54 44q-6 3 -118 91
q-33 25 -43 33q0 -3 -5 -7q-15 -19 -23 -28q40 -27 100 -71q75 -60 88 -73q9 -10 22 -28q6 9 14 17v0z" />
  </g>

</svg>
