<?xml version="1.0" standalone="no"?>
<!DOCTYPE svg PUBLIC "-//W3C//DTD SVG 1.1//EN" "http://www.w3.org/Graphics/SVG/1.1/DTD/svg11.dtd" >
<svg xmlns="http://www.w3.org/2000/svg" xmlns:xlink="http://www.w3.org/1999/xlink" version="1.1" viewBox="-10 0 1034 1024">
  <g transform="matrix(1 0 0 -1 0 820)">
   <path fill="currentColor"
d="M156 409q-64 0 -84 3q-7 3 -18 4v-46q49 6 77 5h169v-231q0 -25 -3 -53q0 -4 -2 -14h48q-3 33 -5 67v231h105q24 0 52 -3q1 0 14 -2v46q-73 -6 -87 -7h-84v154h93q22 0 51 -3l15 -2v47q-15 -3 -28 -4q-18 -1 -38 -2h-93q0 126 3 134q1 10 10 24h-56q0 -6 2 -12l3 -110
v-226h-106v185q0 16 2 34q1 13 12 32h-57q1 -33 5 -66v-185zM75 116q21 -9 40 -25q54 75 65 92q48 76 52 78q7 9 24 14q-15 6 -54 33q-12 -31 -50 -94q-34 -55 -77 -98zM510 248q-9 3 -17 6q-24 9 -40 18q-30 -108 -97 -199q-120 -148 -268 -177q18 -15 41 -42
q100 48 166 99q102 90 157 205q16 39 21 44q1 6 14 21t31 21q-4 3 -8 4zM456 -149q1 -3 8 -9q72 36 117 70q43 34 77 75q42 57 61 119q16 64 19 161q0 55 4 66q3 13 16 31q-31 1 -64 3q4 -55 5 -83q0 -48 -5 -84q-6 -66 -21 -106q-39 -94 -131 -159q-51 -33 -118 -51
q7 -4 32 -33zM747 661l193 -3q3 0 11 -3v47q-36 -6 -67 -6l-340 1q-9 1 -20 2q-12 1 -24 3v-47q3 1 32 5l170 1q-19 -69 -52 -146q-54 0 -81 2q-6 3 -35 3q1 -34 5 -71l-1 -346q-3 -27 -2 -27q0 -6 -2 -14h47q-4 39 -5 68v349h282l-1 -383l-4 -31h50q-4 12 -5 25l-2 42
l1 337l4 38q0 6 2 13q-19 -1 -33 -2q-24 -3 -31 -3h-146q24 54 29 73zM784 55q-12 -19 -25 -34q51 -39 89 -71q39 -36 98 -95q12 16 33 38q-30 22 -71 57q-34 31 -124 105v0z" />
  </g>

</svg>
