<?xml version="1.0" standalone="no"?>
<!DOCTYPE svg PUBLIC "-//W3C//DTD SVG 1.1//EN" "http://www.w3.org/Graphics/SVG/1.1/DTD/svg11.dtd" >
<svg xmlns="http://www.w3.org/2000/svg" xmlns:xlink="http://www.w3.org/1999/xlink" version="1.1" viewBox="-10 0 1034 1024">
  <g transform="matrix(1 0 0 -1 0 820)">
   <path fill="currentColor"
d="M440 260q46 0 63 -6v47q-9 -3 -22 -3q-21 0 -41 -2h-119l5 296q123 0 152 -3q3 0 9 -3v47q-10 -1 -22 -4l-139 -1v75q0 10 4 29q1 18 11 35h-58q0 -3 1 -5q0 -7 3 -23l2 -111q-162 0 -180 3q-3 0 -9 2v-47q1 0 38 5l151 1q0 -174 -6 -296l-175 1q-12 1 -30 4v-47
q6 3 13 3q27 3 53 3h133q-7 -52 -24 -106q-42 -112 -134 -198q-52 -45 -86 -53q31 -18 54 -37q84 79 129 138q45 60 81 148q117 -117 163 -191q13 18 19 21q4 3 19 16l-190 200q6 33 10 62h122zM223 396q-15 22 -29 45q-36 58 -51 76q-15 -12 -36 -23q12 -12 20 -25
q9 -12 25 -36q31 -48 46 -86q18 10 40 26q-7 12 -15 23zM358 360q21 -9 40 -26q64 114 71 122q16 24 34 39q-24 12 -48 30q-21 -48 -45 -96q-30 -46 -52 -69zM740 286l3 39q4 30 15 52q-25 0 -60 5q3 -31 3 -51q0 -22 -4 -63l-5 -65q-13 -109 -83 -191q-52 -60 -107 -93
q-39 -22 -79 -30q10 -9 22 -18t27 -24q156 105 211 198q24 43 36 85q10 43 16 108q1 24 5 48zM701 519q49 129 57 150h132q25 0 50 -3q4 0 13 -3v47q-12 -3 -23 -4l-409 1q-3 1 -4 1q-3 0 -12 2v-47l39 5l168 1q-28 -87 -55 -150h-54q-6 0 -31 3q-15 0 -32 2q4 -49 5 -61
l-1 -340l-4 -30h49q0 3 -5 40l-1 350h278l-1 -352l-5 -33h50q-3 3 -6 42l-1 323q1 19 5 39q0 7 2 22q-28 -1 -58 -5h-146zM957 -92l-48 44q-123 108 -133 116q-7 -6 -19 -25q-3 -3 -10 -11q1 0 84 -67q33 -30 82 -79q10 -12 22 -27l24 27q6 3 12 10l-14 12v0z" />
  </g>

</svg>
