<?xml version="1.0" standalone="no"?>
<!DOCTYPE svg PUBLIC "-//W3C//DTD SVG 1.1//EN" "http://www.w3.org/Graphics/SVG/1.1/DTD/svg11.dtd" >
<svg xmlns="http://www.w3.org/2000/svg" xmlns:xlink="http://www.w3.org/1999/xlink" version="1.1" viewBox="-10 0 1010 1000">
   <path fill="currentColor"
d="M250 -17q83 27 89 37q0 3 -7 9q-15 14 -22 31q74 54 186 141l-69 65q-95 -108 -161 -154q-3 4 -10 12q-46 58 -161 194q-41 -33 -77 -54q176 -125 232 -281zM300 185q21 38 33 101l-77 20q-16 -74 -38 -105zM444 322q-76 133 -109 186l-81 -27q36 -43 71 -94h-140
q-64 -1 -88 4v-69q30 6 91 6h165q20 0 68 -4q16 -1 23 -2zM95 510q30 6 84 6h164q29 0 76 -4q-10 35 -10 92v150q0 84 8 117h-80q4 -34 4 -85h-172q0 46 1 62q1 21 3 31h-78q4 -29 4 -77v-202q0 -48 -4 -90zM167 584v135h174v-135h-174zM655 363q94 7 103 22q0 3 -5 10
q-21 30 -21 74q10 326 -232 438q-18 -35 -63 -61q130 -57 174 -131q46 -70 46 -221v-21q-2 -90 -2 -110zM762 699q113 66 192 147l-67 65q-69 -84 -193 -161zM468 46l6 1q79 7 125 7h238q34 0 76 -5q8 -1 12 -1v79q-48 -6 -88 -6h-103q-8 38 -21 95q-5 21 -7 30h96
q39 0 52 -1q16 0 33 -3q-3 24 -3 42q-1 13 -1 72v210q0 47 1 67q1 24 3 42h-87q0 -4 2 -14q6 -51 6 -99v-252h-219v246q0 51 1 73q1 27 3 46h-81q6 -21 6 -123v-222q0 -60 -4 -90q39 6 67 6h60q10 -53 16 -125h-60q-103 0 -129 4v-79z" />
</svg>
