<?xml version="1.0" standalone="no"?>
<!DOCTYPE svg PUBLIC "-//W3C//DTD SVG 1.1//EN" "http://www.w3.org/Graphics/SVG/1.1/DTD/svg11.dtd" >
<svg xmlns="http://www.w3.org/2000/svg" xmlns:xlink="http://www.w3.org/1999/xlink" version="1.1" viewBox="-10 0 1034 1024">
  <g transform="matrix(1 0 0 -1 0 820)">
   <path fill="currentColor"
d="M248 243h200q33 0 63 -5v46q-39 -4 -63 -5h-331q-36 0 -63 5v-46q49 4 105 5h49q-12 -66 -29 -132q49 4 81 5h137q-7 -66 -17 -115q-7 -45 -23 -69q-15 -21 -44 -26q-36 -6 -56 -6q-30 1 -35 3q-15 0 -33 4q9 -18 14 -29q4 -9 8 -23q91 3 131 17q57 21 76 125l28 160
q-27 -1 -54 -5h-164q9 46 20 91zM223 491q24 -1 50 -5q-4 45 -5 87l1 103l4 39q-24 -1 -48 -5l-88 1q-12 3 -37 4q1 -27 5 -54q0 -118 -2 -143q-3 -3 -3 -32q39 4 61 5h62zM142 527v147h88v-147h-88zM125 376q30 3 63 5l241 -1q21 0 33 -4v47q-27 -6 -63 -6h-211
q-45 0 -63 6v-47zM318 543l-4 -35q-1 -9 -1 -19q48 6 66 6q69 0 77 -2q7 0 32 -4q-4 19 -5 50l1 139l4 38q-25 -1 -51 -5l-87 1q-15 3 -37 4q1 -25 5 -53v-120zM355 530v145h90v-145h-90zM718 314v-73q-1 -48 -7 -104q-9 -70 -46 -127q-34 -46 -90 -82q-42 -24 -103 -45
q18 -19 39 -40q58 33 94 56q30 22 63 56q78 85 84 230l5 157q0 33 2 38q1 21 12 47q-24 0 -57 9q3 -45 4 -71v-51zM746 696l181 -1q12 -1 27 -4v46q-39 -4 -63 -5h-307q-37 0 -64 5v-46q51 4 104 5h82l-33 -148q-63 0 -88 2q-15 1 -32 3q1 -30 5 -62l-1 -395q-1 -15 -4 -31
h47q-4 33 -5 57v390h275l-1 -398q-3 -12 -4 -27h48q-3 30 -5 60l1 361l4 45q-55 -4 -85 -5h-116zM745 19q42 -24 89 -62q42 -33 65 -54q18 -16 37 -36q13 21 27 36l-138 108l-52 39q-12 -16 -28 -31v0z" />
  </g>

</svg>
