<?xml version="1.0" standalone="no"?>
<!DOCTYPE svg PUBLIC "-//W3C//DTD SVG 1.1//EN" "http://www.w3.org/Graphics/SVG/1.1/DTD/svg11.dtd" >
<svg xmlns="http://www.w3.org/2000/svg" xmlns:xlink="http://www.w3.org/1999/xlink" version="1.1" viewBox="-10 0 1010 1000">
   <path fill="currentColor"
d="M244 -4q99 4 91 10q-17 25 -16 80v121h96v-74q-1 -50 -6 -87l42 3q53 3 47 7q-10 17 -10 73v66q0 42 6 81q-3 -1 -9 -2q-42 -8 -74 -8h-248q-46 1 -82 8q7 -31 8 -75v-74q0 -50 -6 -81q72 5 100 14q-22 31 -20 79v70h87v-117q0 -61 -6 -94zM952 32v83q-41 -7 -95 -7h-95
l-18 115h93q34 0 86 -8q-10 52 -10 79v238q2 84 12 125h-96q7 -49 8 -127v-244h-202v262q0 78 10 121h-93q7 -32 8 -117v-260q-1 -48 -8 -77q22 5 79 8h42l14 -115h-52q-63 0 -105 7v-83q65 8 107 8h220q51 0 95 -8zM54 318q38 11 101 12h248q36 0 103 -10v79
q-47 -9 -105 -8h-84l-17 84h119q39 0 89 -8q-11 36 -10 81v45q1 219 -2 241q122 -46 161 -109q41 -58 39 -199v-27q1 -66 -4 -153q7 0 20 1q89 3 82 5q2 2 -5 15q-13 23 -13 38q0 7 -1 28q-4 236 -35 294q-59 118 -182 180q-8 -8 -19 -21q-24 -31 -49 -42q-28 36 -113 37
q-8 -45 -44 -87q101 26 98 -32v-230h-68v147q-1 66 8 95h-71q8 -29 8 -97v-145h-58v153q0 65 8 107h-73q8 -39 9 -105v-155h-55v222q1 49 8 111h-87q8 -37 9 -111v-214q-1 -44 -6 -73q24 5 72 8h101l14 -84h-91q-69 0 -105 10v-83zM810 691q23 22 74 68q90 81 86 83l-75 53
q-55 -86 -143 -157z" />
</svg>
