<?xml version="1.0" standalone="no"?>
<!DOCTYPE svg PUBLIC "-//W3C//DTD SVG 1.1//EN" "http://www.w3.org/Graphics/SVG/1.1/DTD/svg11.dtd" >
<svg xmlns="http://www.w3.org/2000/svg" xmlns:xlink="http://www.w3.org/1999/xlink" version="1.1" viewBox="-10 0 1034 1024">
  <g transform="matrix(1 0 0 -1 0 820)">
   <path fill="currentColor"
d="M189 402l311 -1q6 0 39 -4v45q-43 -4 -80 -5h-56l40 78q13 24 38 38q-27 15 -52 28q-7 -24 -31 -72q-22 -48 -40 -72q-147 0 -174 2q-6 3 -39 3q6 -171 7 -192l-7 -125q-6 -63 -14 -98q-7 -33 -33 -85q-18 -36 -56 -70q24 0 59 -10q39 70 60 140q21 78 26 193zM512 635
q-12 -3 -28 -3q-18 -1 -38 -2h-246q-36 0 -58 4q-4 1 -7 1v-46q45 4 65 5l280 -1q7 0 18 -2q1 0 14 -2v46zM530 76q-34 27 -43 35q-55 -75 -141 -144q-87 -66 -162 -79q25 -16 50 -38q57 27 129 82q70 54 116 104q27 30 59 34zM279 455q18 15 32 26q-30 39 -40 53
q-6 7 -10 14l-22 29l-30 -24q1 -1 35 -46q12 -19 30 -44q1 -3 5 -8zM217 69q24 -12 46 -35q85 49 197 158q21 24 49 28q-30 24 -45 41q-43 -57 -108 -115q-72 -58 -139 -77zM446 360q-9 9 -21 24l-27 -31q-48 -42 -67 -57q-16 -9 -38 -24q-39 -21 -70 -32q27 -15 47 -32
q94 69 109 82q48 39 61 42q10 4 29 7q-12 10 -23 21zM291 759q-15 -15 -29 -30q42 -24 108 -94q12 13 25 30l-55 52q-21 15 -49 42zM760 302q0 6 1 12q3 24 19 46q-46 3 -61 6q0 -33 3 -68l-10 -125q-15 -111 -76 -182q-30 -33 -86 -72q-39 -27 -103 -47q9 -6 26 -19
q3 -1 20 -19q48 30 99 65q76 58 120 139q36 75 44 199q1 33 4 65zM904 645q31 -1 65 -5v46q-12 -3 -28 -3q-16 -1 -37 -2h-296q-33 0 -58 4q-4 1 -7 1v-46q3 1 49 5h118q-9 -27 -12 -51q-9 -28 -17 -63q-1 0 -11 -40h-24q-12 0 -38 4q-15 0 -33 2q1 -36 5 -74l-1 -321
q-1 -9 -2 -33l-2 -13h48q-4 15 -5 37l-1 363h252l-3 -377q0 -6 -2 -13h48q-4 30 -5 67l1 308q0 27 4 56q-72 -6 -90 -6h-112l19 63l27 91h148zM767 3q42 -27 94 -71l61 -55q16 -15 30 -30q10 18 26 38l-142 121q-16 13 -41 32q-12 -19 -28 -35v0z" />
  </g>

</svg>
