<?xml version="1.0" standalone="no"?>
<!DOCTYPE svg PUBLIC "-//W3C//DTD SVG 1.1//EN" "http://www.w3.org/Graphics/SVG/1.1/DTD/svg11.dtd" >
<svg xmlns="http://www.w3.org/2000/svg" xmlns:xlink="http://www.w3.org/1999/xlink" version="1.1" viewBox="-10 0 1010 1000">
   <path fill="currentColor"
d="M218 167q7 3 21 7q77 25 69 33q-2 4 -9 7q-12 5 -23 13q-18 18 -30 35h121q78 0 115 -6q6 2 4 6q-56 87 -131 169q43 19 109 54q32 17 50 27l-52 70q-76 -63 -156 -101q-70 56 -118 91h100q74 0 137 -6q9 1 10 8q-6 54 -6 117v42q0 49 3 114q1 14 1 16h-76q4 -35 4 -65
h-157q0 61 4 89h-75q1 -31 2 -77q2 -48 2 -58v-150q-21 11 -54 35q-16 -28 -57 -63q123 -44 218 -125l-83 -40l47 -53q13 7 36 19q33 19 48 26q32 -29 69 -79h-151q-30 32 -78 84q-19 20 -27 29q-30 -30 -67 -42q113 -99 180 -226zM679 342q94 -4 97 4q2 5 -6 14
q-8 10 -8 17q-9 275 -53 346q-39 90 -209 180q-31 -38 -63 -67q159 -50 205 -150q25 -50 33 -129q8 -74 4 -215zM204 631v107h157v-107h-157zM778 679q118 67 184 147l-65 67q-76 -92 -177 -153zM530 26h3q32 4 82 4h244q53 0 89 -4v78q-23 -5 -91 -4h-95q-8 27 -32 115h83
q61 0 106 -6q-6 29 -6 89v224q-2 74 8 131h-88q4 -54 4 -129v-246h-226v264q0 44 1 66q1 26 3 47h-83q6 -34 6 -111v-250q0 -57 -4 -83q21 3 63 4h66q11 -67 18 -117h-78q-54 0 -73 6v-78zM310 -8q1 8 15 51q9 29 14 45q153 0 173 -4q-4 22 -4 69q0 31 1 42q0 14 3 34h-79
q2 -41 2 -84h-300q-1 68 8 92h-85q9 -36 9 -78q0 -63 -4 -77q23 4 64 5q42 1 137 1q-4 -12 -22 -49q-10 -20 -16 -33z" />
</svg>
