<?xml version="1.0" standalone="no"?>
<!DOCTYPE svg PUBLIC "-//W3C//DTD SVG 1.1//EN" "http://www.w3.org/Graphics/SVG/1.1/DTD/svg11.dtd" >
<svg xmlns="http://www.w3.org/2000/svg" xmlns:xlink="http://www.w3.org/1999/xlink" version="1.1" viewBox="-10 0 1010 1000">
   <path fill="currentColor"
d="M95 28q39 3 90 4h208q48 -1 83 -4v68q-22 -5 -71 -4h-78v61h115q35 0 98 -8q-5 14 -4 58v35q0 42 4 58h-76q4 -33 4 -83h-141v127q0 52 4 79h-71q4 -36 4 -81v-125h-139q1 74 4 101h-79q4 -30 4 -72v-31q0 -36 -4 -66q49 8 83 8h131v-61h-87q-65 -1 -82 4v-68zM351 252
q11 3 44 3t51 -3v54q-51 -6 -95 0v-54zM141 254q13 3 45 3q31 0 44 -3v54q-14 -1 -45 -2q-31 1 -44 2v-54zM470 350v51q-61 -6 -111 0v-51q56 6 111 0zM133 352q45 6 95 0v53q-47 -6 -95 0v-53zM403 897q-2 -43 -32 -79q79 14 71 -62v-129h-65v104q0 40 4 65h-68q0 -4 1 -11
q3 -36 3 -52v-106h-49v96q0 39 6 75h-70q4 -48 4 -79v-92h-51v145q0 64 6 111h-78q8 -38 8 -99v-141q0 -18 -1 -47q-1 -20 -1 -28q30 3 72 4h83l14 -64h-109q-62 0 -86 4v-63q33 3 96 4h277q55 0 88 -6v69q-30 -9 -84 -8h-113l-17 64h119q37 0 79 -6q-5 15 -4 77v161
q2 48 -16 61q-16 17 -87 32zM702 334q79 2 98 10q0 2 -4 7q-16 23 -16 52q0 216 -44 312q-43 105 -173 194q-22 -52 -53 -77q118 -55 158 -140q44 -85 40 -257q-1 -67 -6 -101zM804 685q72 59 158 157l-71 49q-74 -104 -147 -164zM532 36q76 6 115 6h224q42 0 85 -6v79
q-23 -5 -83 -5h-97q-18 82 -30 128h93h52q16 -1 30 -3q-5 27 -7 45q-1 20 -1 70v214q0 69 8 111h-84q0 -4 1 -12q7 -55 7 -105v-256h-212v240q0 74 8 133h-81q0 -8 1 -25q4 -45 4 -102v-226q0 -59 -5 -91q44 7 81 7h44q1 -7 3 -22q9 -66 12 -106h-55q-65 0 -113 5v-79z" />
</svg>
