<?xml version="1.0" standalone="no"?>
<!DOCTYPE svg PUBLIC "-//W3C//DTD SVG 1.1//EN" "http://www.w3.org/Graphics/SVG/1.1/DTD/svg11.dtd" >
<svg xmlns="http://www.w3.org/2000/svg" xmlns:xlink="http://www.w3.org/1999/xlink" version="1.1" viewBox="-10 0 1010 1000">
   <path fill="currentColor"
d="M321 -13q1 3 2 11q11 47 16 84h80q52 0 91 -6v65q-56 -8 -97 -8h-266q-40 0 -93 8v-65q34 6 91 6h119q-21 -59 -34 -86zM534 32q37 4 107 8q-48 -3 6 0h198q60 -3 101 -8v78q-47 -6 -103 -6h-73q-12 46 -30 109q77 0 105 -1q35 -2 60 -7q-4 41 -4 103v250q-1 60 6 111
h-82q6 -45 8 -117v-280h-204v284q0 46 8 113h-81q6 -39 6 -115v-254q1 -61 -6 -93q36 7 117 6q7 -20 17 -73q5 -25 8 -36h-49q-63 0 -115 6v-78zM77 173q44 6 217 6t210 -6q-6 35 -6 146t6 154q-38 -6 -207 -6q-171 0 -220 6q6 -47 6 -156t-6 -144zM143 223v200h295v-200
h-295zM196 264q31 4 98 4q66 0 93 -4q-6 59 0 123q-28 -4 -94 -5q-66 1 -97 5q3 -22 3 -63q0 -40 -3 -60zM242 300v52h99v-52h-99zM692 326q33 0 84 8q0 1 -1 5q-16 44 -19 199q1 147 -46 213q-49 80 -190 158q-20 -33 -66 -69q237 -57 236 -258q3 -73 4 -156q0 -70 -2 -100
zM101 502q43 6 186 6t183 -6q-6 32 -6 113t6 108q-37 -6 -186 -6q-148 0 -183 6q6 -34 6 -114t-6 -107zM167 548v48h238v-48h-238zM167 631v46h238v-46h-238zM798 697q101 83 162 137l-65 57q-100 -106 -155 -147zM468 748q-7 21 -6 60q-46 4 -128 11q-260 20 -276 35
q-7 -53 -16 -88q21 3 64 4q43 0 106 -2q151 -7 256 -20z" />
</svg>
