<?xml version="1.0" standalone="no"?>
<!DOCTYPE svg PUBLIC "-//W3C//DTD SVG 1.1//EN" "http://www.w3.org/Graphics/SVG/1.1/DTD/svg11.dtd" >
<svg xmlns="http://www.w3.org/2000/svg" xmlns:xlink="http://www.w3.org/1999/xlink" version="1.1" viewBox="-10 0 1034 1024">
  <g transform="matrix(1 0 0 -1 0 820)">
   <path fill="currentColor"
d="M141 274q-34 0 -53 3q-1 0 -13 2v-47q7 3 28 4q12 1 125 2q-12 -57 -34 -119l-39 40l-32 35q-12 -15 -30 -29l46 -44q18 -18 39 -43q-30 -57 -66 -102q-36 -42 -65 -52l48 -30q36 40 62 74q22 33 50 81q25 -30 48 -65q15 19 33 34q-31 33 -65 72q21 54 38 113q9 31 20 76
q-28 -1 -58 -5h-82zM179 393q-24 1 -48 1q-25 3 -51 4v-44q28 3 58 4l269 4l-4 -53q0 -3 -1 -5h50q-4 9 -5 23q-1 9 -2 35q43 0 83 -4q-1 22 -1 45q-37 -3 -52 -5q-15 0 -30 -1v272q39 0 57 -4q1 0 5 -2v47l-12 -3l-141 -2q-234 0 -252 3q-3 0 -9 2v-47q1 0 38 5l48 1v-276z
M216 493v64h191v-64h-191zM407 669v-76h-191v76h191zM216 393v64h191v-62zM374 275l-61 4q-3 0 -5 1v-47q1 0 38 5l116 1q-12 -42 -21 -70q-9 -25 -26 -59q-37 36 -74 76q-27 -25 -32 -29q24 -21 42 -39t44 -47q-30 -58 -81 -110q-57 -54 -85 -59q28 -18 46 -35q42 39 74 74
q30 36 74 98q51 -60 71 -92q25 30 33 34l-84 96q19 45 33 79q12 30 26 74q6 21 12 34q0 4 6 16q-90 -4 -92 -5h-54zM489 -115q31 -19 50 -37q88 69 124 119q46 63 64 121q16 60 25 178q3 75 8 95q1 21 13 44q-27 1 -61 8q3 -42 3 -70q0 -63 -4 -119q-12 -123 -53 -196
q-34 -55 -91 -101q-33 -28 -78 -42zM713 523l45 150q168 0 198 -3q3 0 9 -3v47q-9 -3 -22 -3l-81 -2l-293 1q-9 1 -15 2q-3 0 -12 2v-47q6 3 12 3q27 3 52 3h106q-6 -39 -15 -67q-7 -31 -26 -83l-82 4q-12 1 -22 1q1 -30 5 -61l-1 -353l-2 -12q0 -1 -2 -12h50q-6 12 -6 41
l-1 356h249v-333q0 -37 -3 -52q0 -1 -2 -12h50q-1 4 -4 9q-1 37 -3 76l1 307l6 46q-28 -1 -58 -5h-133zM926 -70q-18 21 -128 131q-3 -3 -5 -6q-4 -3 -7 -8q-3 -6 -15 -13q-1 -3 -5 -5q12 -7 28 -23l57 -57q63 -67 78 -97q15 18 26 27q4 3 11 10z" />
  </g>

</svg>
