<?xml version="1.0" standalone="no"?>
<!DOCTYPE svg PUBLIC "-//W3C//DTD SVG 1.1//EN" "http://www.w3.org/Graphics/SVG/1.1/DTD/svg11.dtd" >
<svg xmlns="http://www.w3.org/2000/svg" xmlns:xlink="http://www.w3.org/1999/xlink" version="1.1" viewBox="-10 0 1034 1024">
  <g transform="matrix(1 0 0 -1 0 820)">
   <path fill="currentColor"
d="M243 672h521l-4 -129l-2 -86l6 -195q3 -100 19 -174q15 -84 54 -143q39 -57 86 -58q28 0 44 47q4 15 7 29q4 25 12 81q-15 3 -34 16q-4 1 -8 5l-13 7q4 -66 5 -87l-3 -24q-3 -24 -20 -25q-13 0 -32 20q-16 19 -34 60q-15 40 -26 88q-9 52 -15 126q-3 34 -8 201l1 81
q3 141 6 150q1 27 6 51q-60 -4 -63 -5l-502 1q-19 3 -47 4q6 -79 7 -88l-1 -296l-12 -135q-3 -19 -5 -37q-21 -100 -76 -186q-28 -43 -88 -81q28 -10 52 -28q70 69 116 177q36 90 46 192q3 67 5 141v300zM318 510q-12 -12 -22 -20q66 -40 198 -184q-75 -100 -133 -156
q-40 -39 -63 -54q-24 -16 -58 -32q28 -15 52 -33q36 30 97 91q28 27 55 59q31 36 79 96q69 -73 110 -122q31 -36 70 -93q18 22 38 37q-63 72 -103 113l-94 98q42 72 64 116q46 94 52 99q10 22 38 31q-15 6 -28 12q-22 10 -44 24q-6 -43 -27 -95q-27 -66 -82 -156
q-9 7 -95 94l-89 88q-7 -6 -15 -13v0z" />
  </g>

</svg>
