<?xml version="1.0" standalone="no"?>
<!DOCTYPE svg PUBLIC "-//W3C//DTD SVG 1.1//EN" "http://www.w3.org/Graphics/SVG/1.1/DTD/svg11.dtd" >
<svg xmlns="http://www.w3.org/2000/svg" xmlns:xlink="http://www.w3.org/1999/xlink" version="1.1" viewBox="-10 0 1010 1000">
   <path fill="currentColor"
d="M677 4q78 4 89 12q0 1 -2 4q-22 28 -22 84v232h93v-78l-65 2v-57q15 3 65 4v-76q-42 0 -67 2v-63q74 9 131 0q-4 35 -4 79v159q0 56 4 87q-22 -2 -56 -3q-17 -1 -39 -1h-62v64q61 0 83 -1q29 -1 64 -5q-50 116 -103 174q19 9 65 33q39 20 62 31q-39 29 -62 59
q-45 -41 -111 -81q-39 36 -131 93q-2 -2 -7 -6q-41 -34 -66 -45q57 -18 124 -58l21 -12q-31 -23 -141 -63l53 -48l135 70q38 -41 60 -80h-163q-63 0 -101 4v-67q5 0 15 1q43 2 88 3h56v-66q-52 0 -81 1q-34 1 -74 3q4 -37 4 -85v-151q1 -46 -6 -75q47 2 115 -24q2 5 5 15
q5 12 17 52q-1 1 -27 3q-33 3 -45 5v74q35 0 60 -4v59q-18 -4 -60 -4v76h92v-232q0 -21 -6 -100zM183 266v72q4 232 -18 349q57 -87 101 -218q-15 -42 -77 -189q-4 -9 -6 -14zM877 727q29 32 73 37q-16 78 -33 98q-19 26 -60 27q-358 15 -424 -206q-26 -72 -27 -414
q0 -100 -1 -142h-222v104l45 -8l64 170q23 -112 25 -190l18 3q69 12 62 17q-20 23 -74 250q22 65 64 173q21 53 30 77q-36 7 -70 23q-14 -80 -51 -206q-17 46 -47 116q-21 47 -33 77q-16 -10 -57 -14q-4 10 -11 28q-36 100 -63 146q-8 -18 -28 -43q-16 -20 -29 -36
q82 -87 89 -304q1 -147 -1 -270q-2 -124 -7 -184q72 4 198 4q125 0 173 -4q-8 72 -8 99q-5 164 -5 230q0 86 5 146q9 128 40 178q63 89 218 107q58 6 81 5q27 -1 41 -9q28 -15 25 -85z" />
</svg>
