<?xml version="1.0" standalone="no"?>
<!DOCTYPE svg PUBLIC "-//W3C//DTD SVG 1.1//EN" "http://www.w3.org/Graphics/SVG/1.1/DTD/svg11.dtd" >
<svg xmlns="http://www.w3.org/2000/svg" xmlns:xlink="http://www.w3.org/1999/xlink" version="1.1" viewBox="-10 0 1034 1024">
  <g transform="matrix(1 0 0 -1 0 820)">
   <path fill="currentColor"
d="M54 -51q12 -4 28 -12l119 157q7 7 25 12q-19 9 -21 11q-9 3 -12 7q-7 3 -12 7q-6 1 -13 6q-24 -58 -68 -115q-30 -36 -72 -61q12 -6 26 -12zM507 223q-4 0 -7 -2q-15 0 -51 -4l-378 1l-14 2l-12 3v-47q21 3 45 5h181v-214q0 -9 -2 -23q-3 -10 -13 -14q-19 -3 -45 -4
q-21 0 -47 5q10 -21 18 -51q48 3 76 7q51 10 52 62v232l166 -1q18 0 31 -4v47zM504 730q-4 0 -7 -2q-4 0 -7 -1q-16 0 -44 -3l-336 1q-12 1 -28 2q-3 0 -13 3v-47q19 3 41 5h103v-89q-70 0 -89 2q-6 3 -30 3q1 -25 5 -52l-1 -132l-4 -31v-2q39 4 69 5l277 -1l36 -4
q-6 43 -5 68q0 108 2 119q0 9 2 13q0 9 1 17q-24 -1 -50 -5h-69v89q120 0 136 -3q4 0 11 -2v47zM213 428h-77v135h77v-135zM319 428h-69v135h69v-135zM250 599v89h69v-89h-69zM433 428h-76v135h76v-135zM113 288q21 4 58 5l278 -3q3 0 10 -2v46q-4 0 -7 -2q-3 0 -5 -1
q-3 0 -8 -1q-9 0 -38 -3l-251 1q-33 4 -37 6v-46zM354 127q24 -36 41 -62q15 -30 38 -80q6 4 10 6q15 9 20 14q1 0 3 3q-1 3 -3 5q-36 72 -59 113l-12 20q-22 -13 -38 -19zM577 688h254l-6 -163l-1 -92l4 -250l7 -119q9 -84 33 -133q24 -55 52 -56q18 0 39 42q9 24 25 77
q-15 12 -33 24l-13 10q-1 -42 -8 -70q-6 -16 -14 -17q-18 0 -34 65q-9 33 -13 84q-3 54 -5 133l-3 283q9 193 13 212q0 6 2 12q-15 -1 -26 -3q-21 -3 -29 -3l-253 1q-6 0 -18 3q-1 0 -16 2q1 -25 5 -53l-1 -319q-1 -16 -1 -33q0 -76 -6 -136q-9 -159 -56 -227
q-42 -57 -88 -71l41 -31q3 -3 7 -6q45 48 63 74q51 72 63 170q13 111 14 233l2 99v258zM752 368q9 39 29 103q12 48 40 69q-18 4 -28 8q-16 6 -33 11q-22 -115 -49 -203q-6 13 -61 113l-26 48q-3 -1 -4 -3q-18 -6 -27 -13q-4 -1 -10 -6q33 -42 53 -75q37 -66 58 -113
q-18 -52 -32 -81q-10 -22 -24 -46q-46 -81 -74 -101q30 -13 48 -24q24 39 46 82q24 49 58 125q51 -108 68 -174q19 12 45 20q0 3 -65 141q-3 9 -9 20q-9 21 -20 41q7 30 17 58v0z" />
  </g>

</svg>
