<?xml version="1.0" standalone="no"?>
<!DOCTYPE svg PUBLIC "-//W3C//DTD SVG 1.1//EN" "http://www.w3.org/Graphics/SVG/1.1/DTD/svg11.dtd" >
<svg xmlns="http://www.w3.org/2000/svg" xmlns:xlink="http://www.w3.org/1999/xlink" version="1.1" viewBox="-10 0 1034 1024">
  <g transform="matrix(1 0 0 -1 0 820)">
   <path fill="currentColor"
d="M137 718l5 -101l-1 -289q-1 -21 -2 -94q0 -34 -6 -77q-7 -49 -12 -64q-6 -25 -17 -58q-12 -39 -18 -49q-25 -51 -59 -80q34 -9 52 -18q84 136 96 329q4 100 5 174v286h241q0 -339 2 -382q0 -37 5 -81q6 -67 24 -119q24 -81 79 -132q70 -61 157 -83q78 -19 171 -20
q78 0 99 27q15 21 23 79q-15 3 -48 17l1 -32q0 -27 -9 -39q-13 -12 -71 -12q-64 0 -138 13q-61 13 -108 40q-37 21 -67 55q30 36 48 61q15 27 28 61q30 -33 46 -56q12 -16 24 -40q15 18 34 27l-95 121q9 145 12 148q3 18 12 34q-27 1 -57 8q3 -37 4 -79l-7 -112
q-7 -40 -23 -73q-18 -36 -49 -68q-33 57 -45 115q-15 81 -15 224l3 297q0 16 4 42q-27 -1 -55 -5l-230 1q-15 3 -43 4zM197 -43q9 -1 15 -4q57 126 107 268q54 -135 77 -241q36 15 43 15l-36 111l-64 184q3 12 5 23q13 72 40 183q4 28 17 45l-53 18q-3 -51 -12 -115
q-9 -37 -19 -101q-6 21 -15 40q-18 45 -62 167q-9 -6 -38 -21q27 -57 39 -88l60 -162q-15 -51 -34 -100q-16 -48 -38 -93q-40 -87 -70 -117q6 0 38 -12zM541 208q12 57 15 60q3 6 12 13q-24 6 -50 16q-3 -84 -30 -136l41 -7q3 7 6 20zM906 421l9 9q-27 27 -62 58
q-1 1 -50 44l30 44l14 21q21 36 34 48q9 12 32 26q-21 10 -50 35q-19 -40 -38 -72q-19 -33 -52 -81l-53 44q0 6 2 12q6 84 11 100q0 10 4 17q1 7 10 32q-10 0 -59 7q3 -39 3 -58q0 -24 -4 -63q-4 -45 -12 -71q-24 -69 -84 -116q-34 -27 -71 -41l28 -18q10 -9 16 -15
q10 9 23 19q54 45 75 72q24 31 50 83l111 -95q25 -24 53 -57q1 -3 6 -8q1 3 3 4q1 0 3 3q12 12 18 17zM599 626q9 24 25 50q-27 4 -49 14q-13 -90 -47 -141q18 -3 42 -15q12 48 29 92zM681 211q1 7 5 13q13 31 18 37q1 4 7 11q1 1 4 6q9 15 16 19q-15 4 -41 23
q-10 -51 -44 -98q21 -7 32 -18q1 4 3 7zM832 382q-21 1 -37 3q6 -45 6 -92q0 -81 -9 -126q-15 -73 -48 -122q-18 -22 -49 -50q28 -9 44 -21q34 46 55 84q18 39 33 88q54 -85 82 -151q18 12 35 21q-21 42 -45 81q-24 42 -64 104l2 83q0 70 16 95zM704 142l42 -7q3 30 15 72
q7 30 23 47q-25 7 -49 12q-4 -42 -10 -60q-4 -24 -10 -40q-3 -12 -11 -24zM870 204q15 -6 33 -14l12 36q13 42 20 51q6 12 23 23q-25 9 -49 25q-9 -39 -29 -96q-6 -12 -10 -25v0z" />
  </g>

</svg>
