<?xml version="1.0" standalone="no"?>
<!DOCTYPE svg PUBLIC "-//W3C//DTD SVG 1.1//EN" "http://www.w3.org/Graphics/SVG/1.1/DTD/svg11.dtd" >
<svg xmlns="http://www.w3.org/2000/svg" xmlns:xlink="http://www.w3.org/1999/xlink" version="1.1" viewBox="-10 0 1010 1000">
   <path fill="currentColor"
d="M649 10q98 5 97 12q-2 4 -8 11q-17 16 -18 37q-2 49 -16 113q14 8 40 21q107 57 163 94q-40 33 -60 64q-43 -51 -166 -127q-51 75 -169 117q-16 -36 -58 -66q125 -13 163 -71q43 -58 32 -205zM97 56q60 8 95 8h173q40 -1 93 -10q-7 58 -12 239q-1 39 -2 59q-4 111 0 201
q3 86 14 124q55 -50 70 -114q17 -64 8 -194q67 1 71 12q1 1 -4 6q-14 16 -14 28q-2 73 -13 150q-1 5 -1 7q55 44 100 89q-29 15 -56 40q-23 -49 -61 -82q-18 51 -46 96q-15 -16 -50 -22q62 117 272 117q106 5 132 -16q31 -19 27 -93q31 19 77 32q-20 97 -53 122
q-30 28 -127 26q-369 2 -401 -226q-15 -102 0 -476q1 -33 2 -50h-222v102l37 -14q33 76 64 166q29 -101 32 -216q76 18 77 26q0 3 -7 11q-12 12 -13 21q-32 164 -57 240q38 95 87 244l-64 31q-8 -68 -51 -190q-40 112 -89 204q-15 -26 -40 -53q-31 114 -74 186
q-9 -38 -45 -85q55 -77 71 -222q9 -71 10 -173q1 -94 -4 -266q0 -34 -6 -85zM169 278q8 263 -18 397q48 -55 97 -202q-44 -128 -79 -195zM873 405q60 20 65 26q0 2 -6 9q-10 15 -15 25q-15 50 -44 111q-18 -13 -46 -18q38 -70 46 -153zM454 536q14 -35 22 -121l42 8
q-7 74 -22 123zM597 542q17 -41 28 -119l9 3q37 8 37 11q-4 4 -15 48q-12 46 -19 67q-21 -16 -40 -10zM690 403l52 6q0 3 -1 11q-13 110 -21 146l-49 -6q16 -61 19 -157zM851 725q-13 -29 -53 -79q-4 -5 -6 -7q-2 4 -6 11q-34 68 -70 106q-25 -22 -63 -29q79 -67 98 -141
q23 -71 11 -238q56 3 79 15q0 1 -3 4q-17 20 -17 40q-3 135 -11 175q20 20 65 60q25 23 36 33q-38 29 -60 50zM520 58q27 1 73 10q-10 41 -30 133q-38 -12 -73 -8q25 -63 30 -135zM821 56q39 15 84 42q-37 25 -95 113l-3 -3q-23 -22 -55 -31q49 -57 69 -121z" />
</svg>
