<?xml version="1.0" standalone="no"?>
<!DOCTYPE svg PUBLIC "-//W3C//DTD SVG 1.1//EN" "http://www.w3.org/Graphics/SVG/1.1/DTD/svg11.dtd" >
<svg xmlns="http://www.w3.org/2000/svg" xmlns:xlink="http://www.w3.org/1999/xlink" version="1.1" viewBox="-10 0 1034 1024">
  <g transform="matrix(1 0 0 -1 0 820)">
   <path fill="currentColor"
d="M541 747q-24 9 -43 17q-9 4 -17 8q-27 -58 -111 -140q-99 -94 -239 -162q-49 -21 -89 -26q21 -19 37 -48q7 3 15 7q133 66 212 122q42 30 85 71q43 42 99 105q52 -51 96 -89q34 -28 101 -71q88 -57 260 -118l30 53q-46 3 -97 19q-82 27 -161 73q-112 72 -203 164
q12 7 25 15zM459 587q-16 -21 -31 -33q45 -30 78 -54q28 -21 48 -38q12 19 23 32q3 3 6 7q-1 0 -6 4l-32 21q-19 15 -60 41zM751 464l-61 -6l-375 1q-4 1 -7 1q-1 0 -38 4q6 -66 6 -100l-1 -441q-4 -21 -22 -40q13 -27 29 -54q18 16 32 23q13 9 40 21q132 69 153 78q0 1 3 1
q0 4 3 53q-115 -64 -199 -100v256l395 -1l42 -4q-4 54 -5 78q0 175 2 188q0 18 3 42zM314 341v81h394v-81h-394zM314 197v108h394v-108h-394zM500 100q-7 3 -48 28q-10 -18 -28 -39q30 -13 67 -33l135 -75q90 -52 149 -90q51 -33 79 -61q15 25 24 36q3 3 6 7l-138 86l-81 47
l74 59q19 13 42 31l49 33q15 7 37 15l-21 22l-21 27q-51 -52 -200 -163q-6 3 -15 8q-7 6 -110 62v0z" />
  </g>

</svg>
