<?xml version="1.0" standalone="no"?>
<!DOCTYPE svg PUBLIC "-//W3C//DTD SVG 1.1//EN" "http://www.w3.org/Graphics/SVG/1.1/DTD/svg11.dtd" >
<svg xmlns="http://www.w3.org/2000/svg" xmlns:xlink="http://www.w3.org/1999/xlink" version="1.1" viewBox="-10 0 1010 1000">
   <path fill="currentColor"
d="M458 -33q73 17 117 35q-1 6 -8 8t-9 6q136 218 416 266q-39 39 -77 91l-129 -65q-4 19 -4 40v214q0 29 6 57l15 12q65 52 58 56q-2 7 -24 8q-25 0 -39 6q-44 15 -115 51q104 40 230 86l-62 81q-87 -56 -381 -175l-14 88q-152 39 -234 97l-43 -75q1 -2 8 -8q39 -34 39 -62
v-462q-45 34 -123 67q-1 -2 -3 -5q-27 -54 -66 -68q280 -84 442 -349zM500 48q-84 120 -244 234q5 0 16 1q33 2 63 3h314q30 0 71 -6q-132 -85 -220 -232zM284 627v179q3 -1 10 -4q109 -38 144 -64q-10 -5 -37 -14q-26 -9 -42 -15l58 -62q65 33 174 76q92 -47 153 -90
q-30 -6 -57 -6h-403zM688 346h-404v81h404v-81zM284 487v81h404v-81h-404zM510 153q14 29 38 107l-92 14q-10 -59 -33 -105z" />
</svg>
