<?xml version="1.0" standalone="no"?>
<!DOCTYPE svg PUBLIC "-//W3C//DTD SVG 1.1//EN" "http://www.w3.org/Graphics/SVG/1.1/DTD/svg11.dtd" >
<svg xmlns="http://www.w3.org/2000/svg" xmlns:xlink="http://www.w3.org/1999/xlink" version="1.1" viewBox="-10 0 1034 1024">
  <g transform="matrix(1 0 0 -1 0 820)">
   <path fill="currentColor"
d="M960 282q-51 0 -103 15q-108 27 -214 86q-60 33 -123 80q15 7 31 15q-21 12 -49 34q-79 -102 -254 -202q-114 -63 -202 -71q21 -21 38 -47q138 57 229 112q90 54 176 134q9 -3 35 -24q55 -36 116 -72q69 -34 110 -51q79 -30 202 -60q6 22 28 51h-20zM411 568
q-13 -18 -33 -36q-22 -21 -64 -54q-28 22 -82 61q-4 -9 -26 -31q48 -28 76 -51q-103 -70 -205 -81q24 -25 35 -44q126 42 233 126q45 34 83 73q30 33 58 78q-28 -1 -57 -5h-91v70q132 0 148 -2q12 0 24 -4v46q-6 0 -12 -3l-160 -2v-1q0 36 12 64h-55q0 -3 5 -59q-1 -1 0 -5
v-104h-75q16 19 41 33q-27 15 -45 30q-25 -46 -50 -76q-46 -52 -96 -85q16 -9 36 -28q51 48 89 90h211zM270 -175l54 32q24 10 63 29q24 9 47 21q6 4 28 12q6 1 10 4q0 28 2 47q-54 -27 -89 -44q-30 -15 -77 -34v146h381q10 0 28 -2l28 -3q-4 45 -5 72l1 132l4 38
q-27 -1 -56 -5l-376 1l-47 4q1 -28 5 -59l-1 -311q-12 -27 -13 -31q-4 -4 -9 -10q10 -19 22 -39zM308 166v68h395v-68h-395zM308 74v56h395v-56h-395zM534 8q-15 6 -28 11q-10 -24 -18 -36q231 -81 354 -157q7 21 21 41l-164 74q82 72 88 73q18 12 43 17q-19 18 -39 43
q-42 -42 -69 -67q-25 -22 -61 -50q-100 40 -127 51zM477 384q-10 -15 -23 -29l71 -53q15 -10 28 -28q7 13 12 17q3 4 16 17q-42 33 -88 65q-9 6 -16 11zM882 705l-49 -4l-245 1q-18 1 -28 4v-47q9 4 24 5l232 1q-43 -58 -87 -104q-3 0 -8 5q-7 4 -15 12q-33 19 -76 48
q-10 -18 -23 -32l92 -59q-60 -48 -115 -62q25 -15 43 -34q60 39 104 74q40 -24 82 -59q48 -37 64 -56q10 19 29 37l-44 33q-36 24 -64 45q-22 15 -37 27q42 42 101 122l31 44q-6 0 -11 -1v0z" />
  </g>

</svg>
