<?xml version="1.0" standalone="no"?>
<!DOCTYPE svg PUBLIC "-//W3C//DTD SVG 1.1//EN" "http://www.w3.org/Graphics/SVG/1.1/DTD/svg11.dtd" >
<svg xmlns="http://www.w3.org/2000/svg" xmlns:xlink="http://www.w3.org/1999/xlink" version="1.1" viewBox="-10 0 1010 1000">
   <path fill="currentColor"
d="M244 -17h32q54 -1 51 4q1 3 -3 10q-9 20 -9 43q112 0 181 -8v72q-40 -4 -76 -5q-18 -1 -41 -1h-64v59q56 0 136 -5q41 -2 49 -1q-111 187 -375 292q-27 -38 -62 -66q95 -15 185 -65q-21 -15 -67 -32l47 -47q19 8 76 43q47 -36 69 -61h-206q-3 4 -11 14q-36 44 -65 83
q-27 -32 -59 -48q79 -60 125 -158q23 10 64 35q2 1 3 2q-12 3 -18 16h42q0 -71 -1 -108q-1 -42 -3 -68zM909 34q-49 97 -139 210q84 53 127 78q-30 30 -58 65q-28 -29 -113 -91q-6 6 -22 21q-41 39 -61 54q-30 -29 -68 -49q58 -32 100 -62q-43 -29 -117 -59q24 -28 59 -52
q13 8 42 26q38 24 55 34q43 -52 74 -105h-145q-61 0 -97 8v-78q53 9 95 10h167q29 0 85 -8q10 -1 16 -2zM470 252q90 37 86 42q-10 -1 -22 12q132 142 424 139q-42 48 -51 95q-131 -32 -161 -42q-4 24 -4 103t4 112q61 37 58 47q-1 2 -8 4q-35 7 -92 36q23 9 67 27
q48 20 70 29q-18 18 -44 55q-5 7 -7 10q-161 -92 -326 -129q4 -4 11 -12q29 -31 37 -45q12 2 100 32q27 10 37 13q47 -22 67 -47l-399 -2v85q12 -5 37 -15q50 -21 86 -39q-2 33 4 72q-15 6 -53 21q-111 44 -139 60q-2 -4 -7 -11q-22 -37 -37 -56q41 -38 38 -84v-244
q-62 32 -151 76q-16 -35 -57 -70q254 -58 432 -274zM488 346q-81 75 -169 133q28 3 70 4h79q-5 -9 -16 -32q-8 -15 -12 -24l80 -14q9 24 24 70h77q33 -1 67 -4q-132 -60 -200 -133zM671 534h-354v50h354v-50zM317 631v48h354v-48h-354z" />
</svg>
