<?xml version="1.0" standalone="no"?>
<!DOCTYPE svg PUBLIC "-//W3C//DTD SVG 1.1//EN" "http://www.w3.org/Graphics/SVG/1.1/DTD/svg11.dtd" >
<svg xmlns="http://www.w3.org/2000/svg" xmlns:xlink="http://www.w3.org/1999/xlink" version="1.1" viewBox="-10 0 1010 1000">
   <path fill="currentColor"
d="M645 -13q76 14 87 23l-22 14q96 126 262 151q-32 34 -53 79q-169 -76 -246 -188q-82 101 -187 180q-21 -26 -53 -41q-93 188 -318 276q-21 -39 -61 -60q112 -19 202 -85q-41 -35 -68 -44l54 -42q4 4 12 11q21 18 42 39q28 -26 63 -85h-123q-55 65 -119 111
q-28 -30 -65 -44q126 -50 184 -176h-49q-70 0 -116 6v-76q64 8 114 10h210q54 -1 107 -8v74q-63 -7 -107 -6h-87q-19 30 -40 57h113l73 -6l-16 36q143 -74 207 -206zM673 133q56 34 55 46q-1 1 -8 3q-25 8 -32 15q-57 52 -128 107q-4 -3 -10 -9q-17 -18 -40 -29
q90 -45 163 -133zM744 201q3 2 9 5q58 34 51 38q-2 2 -13 5q-17 6 -23 11t-21 17q-74 63 -120 92q-32 -31 -60 -35q102 -42 177 -133zM825 260q11 8 31 21q47 28 37 33q0 1 -5 2q-19 4 -33 14q-68 50 -153 113q-26 -25 -65 -40q116 -48 188 -143zM446 282q98 24 96 32
l-22 14q181 177 442 182l-20 25q-32 35 -35 61l-159 -52v123q0 11 3 37l3 27q-7 -1 -22 -3q-20 -3 -26 -3q11 7 32 19q38 21 36 28q-1 0 -12 3q-56 11 -87 23q38 11 112 35l48 15l-53 67q-81 -40 -298 -111l-42 -14q-8 27 -7 68q-107 17 -215 59q-1 -1 -4 -10
q-11 -35 -29 -57q49 -5 47 -94v-206q-30 18 -129 69q-31 -43 -71 -63q282 -77 412 -274zM478 360q-56 66 -186 152h391q-113 -53 -205 -152zM494 417q9 11 27 45q8 15 13 23l-66 17q-12 -41 -31 -67zM310 552v46h363v-46h-363zM310 637v48h363v-48h-363zM310 725v99
q7 -2 19 -6q77 -23 100 -34l37 -51q111 34 137 43q51 -16 93 -51h-386z" />
</svg>
