<?xml version="1.0" standalone="no"?>
<!DOCTYPE svg PUBLIC "-//W3C//DTD SVG 1.1//EN" "http://www.w3.org/Graphics/SVG/1.1/DTD/svg11.dtd" >
<svg xmlns="http://www.w3.org/2000/svg" xmlns:xlink="http://www.w3.org/1999/xlink" version="1.1" viewBox="-10 0 1010 1000">
   <path fill="currentColor"
d="M542 -19q3 7 10 33q7 27 11 40h262q69 -1 110 -8v77q-64 -6 -110 -6h-103q18 17 32 38l-67 24h154q41 -1 82 -6v54q-33 -6 -73 -4h-13h-103v35h85q55 0 80 -4v48q-27 -4 -82 -4h-83v38h83q32 0 84 -6v51q-51 -6 -82 -6h-85v42h103q61 0 90 -8v58q-27 -6 -100 -6h-238
q204 95 367 79q-32 40 -45 83q-48 -7 -140 -29q-12 -3 -17 -4v95q0 55 8 75l20 -12q58 52 53 58q-31 -1 -78 13q-23 7 -37 11q91 26 129 43l-39 52q-204 -75 -354 -113l40 -52h-218v62q73 -3 172 -36q-15 26 -15 76q-126 16 -237 55q-16 -47 -37 -77q44 -5 49 -36v-206
l-135 51q-12 -46 -49 -75q224 -1 438 -199v-95l-47 54q-18 -30 -48 -48q98 -66 135 -167h-288q42 25 64 46q-21 3 -34 10q-9 4 -30 16q-33 19 -55 28q52 0 127 -8q33 -26 55 -58q79 67 66 62q0 1 -10 3q-24 4 -32 9q-54 35 -141 101q38 -4 99 -4l20 -30q48 37 62 62
q-20 6 -32 17q-115 121 -290 149q-7 -41 -43 -69q163 6 252 -86q-123 12 -191 36q-4 -30 -20 -57q-1 -3 -2 -4q82 -20 161 -88q-101 6 -159 20q2 -28 -16 -57q80 -15 135 -98h-37q-69 0 -105 8v-81q48 9 109 10h307q-4 -30 -32 -66zM530 117q25 8 55 26q-37 24 -37 36h131
l-36 -46l47 -16h-160zM526 223v35h143v-35h-143zM526 298v40h143v-40h-143zM526 377v40h143v-40h-143zM488 435q-68 68 -198 121h381q-112 -40 -183 -121zM510 481q12 28 18 55l-66 14q-5 -30 -20 -56zM278 596v41h409v-41h-409zM278 677v44h409v-44h-409zM752 766
q-38 -6 -69 -6h-169q16 5 43 14q79 27 88 32q48 -6 107 -40z" />
</svg>
