<?xml version="1.0" standalone="no"?>
<!DOCTYPE svg PUBLIC "-//W3C//DTD SVG 1.1//EN" "http://www.w3.org/Graphics/SVG/1.1/DTD/svg11.dtd" >
<svg xmlns="http://www.w3.org/2000/svg" xmlns:xlink="http://www.w3.org/1999/xlink" version="1.1" viewBox="-10 0 1034 1024">
  <g transform="matrix(1 0 0 -1 0 820)">
   <path fill="currentColor"
d="M72 183q4 -7 10 -15q3 -6 7 -12l83 23q27 7 65 21v-285q0 -19 -23 -26q15 -27 23 -45q25 12 69 24q52 18 99 30q43 9 85 22q4 21 10 42q-54 -18 -100 -30l-125 -33v128h460q-46 -30 -100 -58q-24 7 -46 13l-51 15l-84 26q-4 -9 -9 -18q-3 -4 -5 -9q-3 -3 -6 -7l94 -23
l124 -36q142 -40 200 -71q4 15 11 25q3 6 9 15l-186 54q21 15 37 24q45 31 82 47q18 9 45 11q-1 3 -23 31q-4 4 -11 15q-33 -24 -72 -50v183q64 -18 111 -30l94 -19q4 15 21 46l-31 -1q-15 0 -27 2q-16 1 -50 9q-84 15 -147 42q-61 24 -105 52q18 33 27 87h124v-48
q0 -36 28 -43q18 -6 41 -6q15 0 42 4q33 7 46 29q3 4 7 12q0 1 13 31q-10 3 -13 5q-13 6 -30 20q-3 -57 -29 -65q-4 0 -26 -3q-16 0 -29 3q-12 1 -13 25q0 36 2 45q0 13 3 28q-24 -1 -47 -5q-112 0 -130 2q-6 3 -27 3q3 -18 3 -32q0 -16 -5 -36q-3 -18 -16 -40l-44 32
q7 6 17 12l-41 31q-19 -21 -38 -36q-18 -16 -43 -32q-34 -22 -74 -44q-39 -21 -79 -38q-114 -48 -219 -56q6 -7 12 -17zM706 59h-431v47h431v-47zM706 182v-44h-431v44h431zM275 214q64 30 113 57q49 28 117 74q54 -43 103 -71q54 -30 131 -60h-203q9 21 18 29q-9 12 -32 30
q-24 19 -40 30l-14 -15q-3 -3 -10 -9q49 -31 73 -65h-256zM454 557l-116 -4l-261 2l-6 2h-7v-40q3 0 6 1t6 1l111 3q-12 -46 -29 -85q49 4 80 5h135q-3 -18 -6 -29q-9 -52 -69 -56q-27 0 -55 -3q-24 0 -51 5q15 -27 20 -44q9 1 18 1q85 4 117 14q43 12 58 81q3 19 8 37l6 31
q-27 -1 -56 -5h-154q6 24 13 48l189 -1l43 -4v40zM140 602q24 3 48 5l199 -1q12 0 36 -4q-6 21 -5 56q1 37 5 76q-15 -1 -26 -2q-18 -3 -24 -3l-197 1q-15 3 -36 4q1 -22 5 -46q0 -36 -2 -57q-3 -3 -3 -29zM182 639v59h198v-59h-198zM451 379q7 -3 11 -6q39 43 55 89
q13 42 21 141h325l-29 -48l37 -7q18 42 27 54q6 13 22 38q-55 -4 -78 -5h-155v44l157 -1l39 -4v42q-4 -1 -10 -2l-2 -1l-184 -2q1 30 14 51h-57l5 -81v-46l-140 3l-12 2q3 -72 4 -74q-7 -57 -8 -62q-9 -40 -27 -70q-13 -21 -40 -43zM557 546q1 -16 5 -35q6 3 24 4q6 3 24 4
q24 3 49 5v-14q0 -30 26 -40q9 -3 37 -6q21 -3 46 -3q30 0 61 5q31 6 46 23l20 33q-6 0 -14 5q-3 1 -29 16q0 -42 -46 -48q-21 -3 -35 -4q-36 0 -58 5q-15 3 -16 20v9q28 4 58 7q12 1 52 2q-1 16 -1 33l-17 -3q-24 -6 -36 -6q-28 -1 -56 -5q0 13 11 36h-54q3 -12 5 -38
q-28 -1 -57 -5h-45z" />
  </g>

</svg>
