<?xml version="1.0" standalone="no"?>
<!DOCTYPE svg PUBLIC "-//W3C//DTD SVG 1.1//EN" "http://www.w3.org/Graphics/SVG/1.1/DTD/svg11.dtd" >
<svg xmlns="http://www.w3.org/2000/svg" xmlns:xlink="http://www.w3.org/1999/xlink" version="1.1" viewBox="-10 0 1010 1000">
   <path fill="currentColor"
d="M569 14q100 1 106 12q0 3 -5 12q-19 30 -19 66v69h159q69 0 99 -6v75h-4q-49 -5 -95 -5h-159v315h131v-121q0 -78 -6 -99q91 1 99 10q0 5 -6 14q-12 19 -12 37v147q0 62 6 125h-89q5 -15 6 -46h-129v161q-1 30 14 36q11 7 75 6q67 1 83 -16q18 -14 28 -85q42 41 89 57
q-29 87 -56 99q-24 20 -126 18q-126 1 -149 -12q-32 -12 -30 -69v-195h-107q-58 -1 -77 4q4 -29 4 -65v-117q0 -84 -8 -109q88 0 93 8q0 4 -4 9q-10 15 -10 36v167h109v-315h-85h-49q-18 1 -36 3v-73q27 6 73 6h97v-69q0 -47 -8 -81q-2 -7 -2 -9zM185 6q114 22 111 30
q0 3 -7 10q-39 34 -79 127h102q40 -3 81 -6q-9 26 -23 68q-23 70 -43 128l-79 -17q31 -50 48 -109h-115q-7 12 -30 53q-47 85 -72 125q-22 -53 -51 -79q109 -133 157 -330zM155 369q103 5 113 18q0 4 -8 15q-24 35 -24 73v285q68 -58 113 -131l36 94q-112 89 -183 178
l-59 -75q19 -21 18 -86v-242q0 -90 -6 -129z" />
</svg>
