<?xml version="1.0" standalone="no"?>
<!DOCTYPE svg PUBLIC "-//W3C//DTD SVG 1.1//EN" "http://www.w3.org/Graphics/SVG/1.1/DTD/svg11.dtd" >
<svg xmlns="http://www.w3.org/2000/svg" xmlns:xlink="http://www.w3.org/1999/xlink" version="1.1" viewBox="-10 0 1034 1024">
  <g transform="matrix(1 0 0 -1 0 820)">
   <path fill="currentColor"
d="M362 537q-18 -54 -30 -85q-10 -25 -27 -55q24 0 49 -2l27 81q18 51 38 102l-30 -2q-18 -3 -29 -4h-152l35 104q12 34 39 45q-36 15 -60 30q-39 -171 -110 -298q-18 -34 -33 -53q-13 -18 -31 -34q16 -6 19 -7q9 -3 16 -6q6 -3 14 -6q24 39 44 78l53 112h168zM230 332
q0 6 2 24q1 19 12 36h-57q4 -39 5 -60v-362q0 -39 -24 -58q21 -21 39 -46l189 189q-4 19 -6 37q0 7 -2 18q-27 -30 -43 -49q-13 -13 -26 -27q-28 -31 -46 -48q-15 -15 -43 -38v384zM657 323l-239 1q-6 3 -14 3q-3 1 -5 2v-47h6l55 6h197v-360l-225 2q-6 3 -13 3v-47q3 1 6 1
q7 3 33 4l424 1q42 0 57 -5q3 0 7 -1v47q-45 -4 -64 -5h-185v360l219 -1q24 -3 40 -3q6 0 13 -2v47q-4 -1 -7 -3q-27 0 -56 -3h-209v303q30 6 61 10q27 3 56 10q75 15 80 15q12 0 28 -2l-15 25q-7 10 -17 33q-21 -12 -37 -19q-27 -9 -67 -18q-96 -18 -204 -28
q-66 -4 -109 -5l-35 3q15 -24 26 -47l41 4l152 14v-298z" />
  </g>

</svg>
