<?xml version="1.0" standalone="no"?>
<!DOCTYPE svg PUBLIC "-//W3C//DTD SVG 1.1//EN" "http://www.w3.org/Graphics/SVG/1.1/DTD/svg11.dtd" >
<svg xmlns="http://www.w3.org/2000/svg" xmlns:xlink="http://www.w3.org/1999/xlink" version="1.1" viewBox="-10 0 1034 1024">
  <g transform="matrix(1 0 0 -1 0 820)">
   <path fill="currentColor"
d="M399 547q-33 -97 -59 -141l34 -8q4 -1 10 -3l32 85q19 61 37 108q-30 -1 -62 -5h-165q33 96 42 113q9 18 31 27q-13 3 -29 9q-15 6 -35 15q-21 -105 -80 -225q-46 -93 -95 -137q25 -9 48 -20q57 93 101 182h190zM266 350q0 9 2 25q1 18 12 36h-57q4 -30 5 -61l-1 -396
q-4 -22 -17 -35q3 -4 11 -13q13 -15 25 -33q33 42 63 71l64 66q0 3 -9 50q-45 -55 -98 -108v398zM749 344q-19 -102 -54 -177q-57 -120 -148 -195q-73 -57 -132 -76q9 -6 25 -15q3 0 13 -8q7 -6 12 -8q67 46 114 85q42 36 75 79q52 67 83 139q30 75 53 176h110l-13 -285
q-3 -75 -18 -103q-15 -27 -56 -36q-25 -7 -73 -8q-21 0 -49 5q15 -25 25 -54q30 0 98 12q85 19 100 85q6 27 10 69q16 336 18 339q1 9 4 17q-60 -4 -67 -5h-337l200 198q3 6 100 112q-9 0 -69 -5l-288 2q-6 3 -13 3v-46h6q7 3 36 4l243 1q-57 -64 -106 -115q-46 -46 -98 -93
q-39 -34 -54 -44q-15 -9 -38 -14q15 -36 19 -49q9 1 14 4l89 6q-42 -117 -122 -200q-36 -36 -83 -55q21 -16 26 -17q9 -3 20 -14q72 67 104 110q52 70 96 176h125z" />
  </g>

</svg>
