<?xml version="1.0" standalone="no"?>
<!DOCTYPE svg PUBLIC "-//W3C//DTD SVG 1.1//EN" "http://www.w3.org/Graphics/SVG/1.1/DTD/svg11.dtd" >
<svg xmlns="http://www.w3.org/2000/svg" xmlns:xlink="http://www.w3.org/1999/xlink" version="1.1" viewBox="-10 0 1010 1000">
   <path fill="currentColor"
d="M194 -2q13 4 46 16q77 25 73 26q0 2 -10 10q-22 18 -31 32q-13 21 -32 57q-7 15 -12 24h119q40 -1 86 -6q-2 4 -5 12q-22 44 -79 212q-35 -21 -77 -21q34 -57 61 -129h-135q-55 122 -117 212q-17 -53 -51 -89q122 -140 164 -356zM437 56q45 7 119 8h200q15 0 105 -6v87
q-55 2 -93 36q-20 18 -54 50q-83 77 -147 129h229q64 0 121 -8q-9 64 -10 85q-5 54 -14 158q-14 217 -34 241q-39 60 -180 61q7 -61 -48 -115q145 41 161 -16q19 -60 33 -339h-65q-23 296 -302 464q-32 -46 -79 -65q281 -103 304 -399h-68q-51 194 -196 317q-32 -38 -70 -55
q158 -89 191 -260q-74 0 -109 12q0 -40 -14 -87q77 11 257 -190q18 -18 26 -27h-142q-63 0 -121 8v-89zM157 356q17 2 47 5q65 7 60 10q-23 36 -24 72v282q35 -38 73 -96q8 60 30 102q-105 92 -149 148q-18 -40 -49 -75q19 -19 18 -99v-252q-1 -50 -6 -97z" />
</svg>
