<?xml version="1.0" standalone="no"?>
<!DOCTYPE svg PUBLIC "-//W3C//DTD SVG 1.1//EN" "http://www.w3.org/Graphics/SVG/1.1/DTD/svg11.dtd" >
<svg xmlns="http://www.w3.org/2000/svg" xmlns:xlink="http://www.w3.org/1999/xlink" version="1.1" viewBox="-10 0 1034 1024">
  <g transform="matrix(1 0 0 -1 0 820)">
   <path fill="currentColor"
d="M522 442h327q-15 -150 -116 -320q-37 51 -81 162q-24 66 -22 121q-28 -12 -53 -17l18 -53l24 -69q1 -3 4 -9q33 -85 84 -168q-27 -33 -75 -77q-46 -40 -77 -59q-81 -48 -148 -55q28 -27 45 -46l111 60q45 27 79 56q39 33 91 86q18 -21 87 -90q33 -30 64 -52
q33 -24 53 -40q15 21 41 47q-37 10 -91 46q-75 54 -128 124q72 127 105 237l39 157q-30 -1 -62 -5h-319v186q42 3 67 6q24 1 56 6l82 10q48 4 89 13q51 6 99 10q-30 27 -48 51q-39 -15 -78 -25q-91 -15 -187 -25q-54 -4 -79 -5q-15 0 -45 3q4 -49 6 -79l-4 -356
q-4 -51 -14 -90q-30 -126 -118 -222q-34 -36 -72 -51q33 -18 50 -32q48 48 66 72q58 73 89 152q40 108 41 290v50zM361 567q-15 -51 -29 -84q-10 -21 -27 -47q16 0 27 -2q9 -1 24 -4q3 10 7 19q6 12 14 36l30 86q7 19 15 37q-31 -1 -63 -5h-158l39 102q13 37 40 59
q-30 7 -62 21q-13 -66 -47 -151q-33 -82 -68 -139q-36 -60 -68 -82q27 -9 55 -24l40 70q30 52 55 108h176zM228 379q0 31 12 64h-55l4 -24q0 -19 1 -40v-349q0 -33 -18 -61l35 -43q30 60 94 151q51 81 60 91q-9 25 -16 51q-21 -34 -49 -74q-28 -43 -68 -99v333z" />
  </g>

</svg>
