<?xml version="1.0" standalone="no"?>
<!DOCTYPE svg PUBLIC "-//W3C//DTD SVG 1.1//EN" "http://www.w3.org/Graphics/SVG/1.1/DTD/svg11.dtd" >
<svg xmlns="http://www.w3.org/2000/svg" xmlns:xlink="http://www.w3.org/1999/xlink" version="1.1" viewBox="-10 0 1010 1000">
   <path fill="currentColor"
d="M575 -10q101 28 108 44q0 3 -7 10q-35 36 -71 117h208q62 0 116 -6v80q-29 -6 -123 -6h-229q-23 49 -99 168q-40 -30 -81 -35q138 -159 178 -372zM571 288q100 2 110 10q1 3 -4 12q-21 41 -24 119h137q66 1 101 -12q-14 145 -21 270q-3 46 -5 69q-4 69 -43 94
q-32 25 -155 43q2 -51 -40 -105q89 13 122 -2q32 -10 37 -65q13 -111 22 -225h-163q-9 284 -256 411q-26 -34 -81 -65q240 -76 261 -344h-65h-16q-56 -1 -89 4v-77q40 4 99 4h75q3 -70 -1 -130q-1 -9 -1 -11zM163 348q92 5 99 14q0 3 -4 9q-16 28 -16 68v309q49 -46 89 -107
l40 80q-91 67 -157 154l-59 -59q17 -25 16 -79v-266q0 -62 -8 -123zM200 4q87 25 108 42q0 3 -7 6q-40 24 -71 105h107q61 -1 100 -4q-41 142 -62 222l-81 -19q18 -41 44 -113q3 -9 5 -14h-143q-13 24 -46 98q-30 66 -51 112q-16 -36 -49 -79q107 -173 146 -356z" />
</svg>
