<?xml version="1.0" standalone="no"?>
<!DOCTYPE svg PUBLIC "-//W3C//DTD SVG 1.1//EN" "http://www.w3.org/Graphics/SVG/1.1/DTD/svg11.dtd" >
<svg xmlns="http://www.w3.org/2000/svg" xmlns:xlink="http://www.w3.org/1999/xlink" version="1.1" viewBox="-10 0 1010 1000">
   <path fill="currentColor"
d="M514 -13l33 6q91 14 82 19q0 1 -7 6q-25 17 -33 36q-18 38 -35 77h228q37 0 127 -8v84q-75 -8 -125 -8h-252l-9 21q-42 100 -79 167q-1 0 -5 -5q-26 -25 -64 -48q111 -161 139 -347zM177 -4q121 35 111 36q1 2 -12 15q-21 19 -26 29q-2 3 -6 10q-20 36 -32 63h121
q41 -1 84 -6q-11 27 -34 96q-29 87 -44 123q-4 -1 -11 -4q-41 -15 -66 -16q39 -57 59 -127h-136q-64 137 -106 198q-28 -43 -63 -69q126 -151 161 -348zM857 274v80q-60 -6 -97 -6h-155q-37 0 -93 8v-84q44 8 95 8h151q50 -1 99 -6zM149 334q117 14 109 18q-30 53 -30 103
v297q60 -47 137 -137q6 34 36 80q-133 113 -211 198q-16 -40 -55 -73q21 -26 20 -97v-292q0 -45 -6 -97zM387 417q48 7 121 8h177q42 0 101 -6q-15 95 -16 155q1 191 59 220q25 9 28 -119q46 47 85 58q-40 190 -115 162q-113 -44 -129 -250q-5 -75 4 -157h-192q-74 1 -123 8
v-79z" />
</svg>
