<?xml version="1.0" standalone="no"?>
<!DOCTYPE svg PUBLIC "-//W3C//DTD SVG 1.1//EN" "http://www.w3.org/Graphics/SVG/1.1/DTD/svg11.dtd" >
<svg xmlns="http://www.w3.org/2000/svg" xmlns:xlink="http://www.w3.org/1999/xlink" version="1.1" viewBox="-10 0 1010 1000">
   <path fill="currentColor"
d="M185 -8q13 4 39 11q69 17 66 23q0 4 -7 12q-32 38 -63 123h111q43 -1 88 -4q-48 124 -66 193q-48 -17 -91 -14q31 -49 50 -109h-122q-8 15 -23 47q-49 100 -86 161q-23 -49 -51 -79q117 -166 155 -364zM938 60v79h-2q-31 -4 -73 -4h-34v492q56 -5 117 -21l6 85
q-39 -5 -123 6v75q-3 81 8 133h-91q6 -54 6 -129v-71q-36 4 -97 12q-274 31 -286 39l-4 -81q5 -1 34 -3q45 -3 61 -5v-532h-25q-32 -1 -68 2v-77q27 4 54 5q13 1 30 1h51h308q88 0 128 -6zM752 135h-212v117h212v-117zM752 314h-212v133h212v-133zM752 508h-212v151l212 -22
v-129zM353 703q-104 88 -161 159q-23 -36 -53 -60q18 -26 18 -93v-240q1 -99 -8 -111q104 1 111 11q0 2 -4 7q-20 26 -20 73v272q56 -55 93 -102q8 50 24 84z" />
</svg>
