<?xml version="1.0" standalone="no"?>
<!DOCTYPE svg PUBLIC "-//W3C//DTD SVG 1.1//EN" "http://www.w3.org/Graphics/SVG/1.1/DTD/svg11.dtd" >
<svg xmlns="http://www.w3.org/2000/svg" xmlns:xlink="http://www.w3.org/1999/xlink" version="1.1" viewBox="-10 0 1010 1000">
   <path fill="currentColor"
d="M200 -6q115 22 119 34q0 2 -5 5q-42 23 -78 122h99q52 -1 94 -4q-49 129 -76 211q-43 -23 -87 -20q37 -61 55 -121h-115l-17 34q-62 125 -108 200q-14 -53 -55 -86q115 -136 174 -375zM427 54q59 6 121 6h248q59 0 111 -8q-9 42 -10 135v593q2 72 -33 93q-34 26 -140 28
q0 -62 -39 -107q87 20 108 5q25 -10 24 -76v-528v-70h-269q-59 0 -121 6v-77zM421 233q46 6 109 9h125q82 1 107 -7v83q-29 -10 -101 -10h-133q-51 -1 -107 8v-83zM159 352q56 0 75 2q23 2 26 8q2 4 -4 15q-16 32 -16 74v284q91 -91 105 -114q9 56 34 86q-116 90 -173 164
q-29 -39 -61 -63q18 -26 18 -85v-274q0 -48 -4 -97zM403 401q51 8 85 8h129q72 -1 101 -4q-11 18 -10 105v143q0 50 6 85h-87q4 -25 4 -55h-145q0 38 1 51q0 17 3 32h-89q10 -38 10 -93v-169q0 -62 -8 -103zM488 475v142h145v-142h-145z" />
</svg>
