<?xml version="1.0" standalone="no"?>
<!DOCTYPE svg PUBLIC "-//W3C//DTD SVG 1.1//EN" "http://www.w3.org/Graphics/SVG/1.1/DTD/svg11.dtd" >
<svg xmlns="http://www.w3.org/2000/svg" xmlns:xlink="http://www.w3.org/1999/xlink" version="1.1" viewBox="-10 0 1034 1024">
  <g transform="matrix(1 0 0 -1 0 820)">
   <path fill="currentColor"
d="M506 453h-76q-39 0 -65 5v-47q9 4 25 5l116 1v-186q-60 -33 -92 -45q-36 -12 -64 -16q4 -9 8 -14q3 -3 8 -17q4 -10 10 -22l56 32l74 39v-239q0 -27 -8 -36q-15 -13 -55 -14q-18 0 -51 4q6 -9 19 -39l2 -10q84 9 107 25q24 15 24 54v275l93 45q0 9 1 13q0 15 3 39
q-21 -15 -55 -32q-21 -10 -42 -21v165h163q9 -147 44 -307q-37 -52 -93 -105q-46 -39 -76 -49q27 -15 48 -36q60 57 87 87q24 24 47 53q36 -88 76 -148q36 -55 68 -56q21 0 41 36q13 24 37 94q-21 19 -42 44q-1 -42 -6 -64q-12 -61 -33 -62q-19 0 -58 71q-30 55 -53 123
q27 51 45 90l30 66q19 51 45 72q-33 12 -53 26q-25 -91 -80 -198q-12 55 -22 126l-15 137h137q42 0 63 -6v47q-6 0 -7 -1q-3 0 -6 -2l-97 -2h-93l-4 96l1 127q4 28 11 57q1 6 4 16q-33 0 -58 3l3 -59l6 -240h-160v202q42 10 59 12q12 0 25 3l29 1q-18 21 -36 48
q-43 -19 -126 -35q-84 -16 -141 -17q19 -27 29 -45q6 0 123 26v-195zM823 637l42 -62q13 -21 30 -52q18 15 36 24l-90 135q-15 -9 -35 -20q7 -12 17 -25zM96 372q7 16 19 35q37 66 69 130h144q-27 -75 -58 -130q27 -4 45 -10q7 27 11 29q0 3 3 5q15 43 31 85l25 62
q-60 -6 -79 -6h-107q6 15 18 42q24 69 33 86q9 18 28 35q-7 1 -60 21q-9 -48 -43 -143q-33 -84 -73 -152q-37 -60 -69 -84q25 -4 55 -18q3 7 8 13zM231 330q0 33 12 64h-56l4 -32q0 -12 2 -32l-1 -382q-1 -12 -7 -27l-11 -18l40 -44l13 21q75 108 91 127q13 19 28 37
q6 7 13 17q-12 24 -19 46q-48 -64 -109 -141v364z" />
  </g>

</svg>
