<?xml version="1.0" standalone="no"?>
<!DOCTYPE svg PUBLIC "-//W3C//DTD SVG 1.1//EN" "http://www.w3.org/Graphics/SVG/1.1/DTD/svg11.dtd" >
<svg xmlns="http://www.w3.org/2000/svg" xmlns:xlink="http://www.w3.org/1999/xlink" version="1.1" viewBox="-10 0 1010 1000">
   <path fill="currentColor"
d="M181 -6q107 17 113 32q0 3 -7 9q-41 36 -73 132h131l72 -6q-3 8 -8 24q-44 129 -64 169q-36 -24 -79 -18q41 -70 51 -103h-129q-7 13 -25 47q-62 116 -88 155q-28 -43 -55 -70q107 -122 161 -371zM845 36q77 69 70 81q-5 5 -33 4q-50 -1 -94 4q-25 3 -90 9
q-102 10 -275 29q-7 -12 -18 -31q-18 -32 -30 -50q255 10 470 -46zM817 181q88 26 94 38q-2 6 -14 15q-11 10 -14 16q-6 11 -18 36q-39 81 -65 127q-23 -15 -70 -26q68 -93 87 -206zM663 185q16 45 33 141q3 15 4 22l-81 12q-1 -79 -28 -161zM504 207q12 76 36 158l-76 14
q-17 -108 -37 -156zM139 338q104 1 111 12q1 4 -5 15q-17 37 -17 84v286q61 -60 97 -118q6 45 40 86q-94 83 -169 170q-25 -38 -59 -63q15 -35 14 -93v-270q0 -69 -12 -109zM571 381q91 22 98 30q-1 4 -10 9q-30 18 -52 63h232q58 0 111 -6v77q-47 -8 -89 -8h-44
q-33 96 -87 175q28 14 85 43q75 39 120 60q-42 28 -70 71q-78 -66 -180 -121q-114 82 -312 127q-21 -51 -65 -79q166 -3 303 -85q-108 -45 -188 -70q4 -6 13 -18q43 -59 66 -105h-60q-58 0 -115 6v-77q71 8 115 8h90q18 -41 39 -100zM738 546h-161l-27 45t-26 44q21 9 67 27
q48 19 72 29q52 -71 75 -145z" />
</svg>
