<?xml version="1.0" standalone="no"?>
<!DOCTYPE svg PUBLIC "-//W3C//DTD SVG 1.1//EN" "http://www.w3.org/Graphics/SVG/1.1/DTD/svg11.dtd" >
<svg xmlns="http://www.w3.org/2000/svg" xmlns:xlink="http://www.w3.org/1999/xlink" version="1.1" viewBox="-10 0 1010 1000">
   <path fill="currentColor"
d="M879 38q-2 16 -3 40q-1 12 -1 26v39v187q0 50 8 95q-33 -4 -95 -4h-228q-95 0 -141 8q8 -71 8 -103v-163q0 -45 -8 -127q27 3 95 6h260q49 0 65 -1q21 0 40 -3zM502 113v82h298v-82h-298zM800 266h-298v84h298v-84zM637 447q93 1 99 12q0 2 -3 7q-13 22 -13 52v88
q60 -37 121 -98q62 55 72 78q-5 6 -21 8q-24 2 -41 12q-18 10 -61 31q-73 35 -70 38v91q-9 44 78 40q41 2 51 -18q12 -18 12 -85q38 36 87 45q-15 90 -42 107q-25 23 -120 22q-103 1 -122 -17q-25 -14 -23 -90v-196q0 -91 -4 -127zM385 447q80 2 107 12q0 2 -4 8
q-16 19 -16 47v36h28q40 0 89 -6v75q-22 -6 -89 -6h-28v157q54 -30 107 -69l14 89q-161 75 -180 97l-46 -61q27 -19 26 -64v-220q0 -57 -8 -95zM192 -13q97 17 112 29q0 3 -7 10q-39 34 -79 127h101q40 -3 82 -6q-7 22 -20 60q-24 74 -46 137l-79 -18q31 -50 48 -109h-116
q-6 10 -23 41q-50 93 -78 137q-25 -55 -51 -79q110 -134 156 -329zM143 342q104 6 113 18q0 2 -5 7q-27 30 -27 80v288q59 -57 113 -131l36 93q-100 75 -183 166l-55 -67q14 -24 14 -85v-240q0 -91 -6 -129z" />
</svg>
