<?xml version="1.0" standalone="no"?>
<!DOCTYPE svg PUBLIC "-//W3C//DTD SVG 1.1//EN" "http://www.w3.org/Graphics/SVG/1.1/DTD/svg11.dtd" >
<svg xmlns="http://www.w3.org/2000/svg" xmlns:xlink="http://www.w3.org/1999/xlink" version="1.1" viewBox="-10 0 1034 1024">
  <g transform="matrix(1 0 0 -1 0 820)">
   <path fill="currentColor"
d="M366 549q-27 -76 -56 -127q19 -1 44 -9q21 45 31 75l21 62q9 21 16 40q-30 -1 -60 -5h-172l28 75q13 40 38 53q-15 6 -29 12q-10 4 -28 16q-21 -99 -68 -202q-45 -96 -85 -134q12 -3 17 -7q13 -6 24 -10q3 -3 7 -4q18 28 33 57q1 4 50 108h189zM243 343q0 10 3 24
q1 19 12 36h-59q4 -15 5 -38l2 -144l-1 -276l-3 -16q-3 -9 -16 -23q25 -21 43 -47q4 7 10 15l109 135q12 15 30 35q-12 27 -17 51q-27 -39 -52 -71q-25 -33 -66 -77v396zM494 173q0 81 3 86q1 15 11 29h-57q4 -30 5 -61v-287q0 -33 -24 -49q21 -25 33 -49q54 45 130 91
q30 18 61 35q-3 21 -4 51q-49 -36 -86 -60q-33 -22 -72 -45v223q78 0 162 -3q6 0 12 -2v46q-3 0 -5 -1q-4 0 -7 -1l-104 -3h-58zM465 395q-3 -30 -5 -62q30 3 62 5l325 -1q15 0 44 -4q-3 31 -5 64l1 262l4 46q-30 -1 -60 -5l-327 1q-15 3 -44 4q1 -31 5 -64v-246zM502 542
v122h346v-122h-346zM502 374v132h346v-132h-346zM753 231q0 6 2 25q1 18 12 36h-57q4 -30 5 -61l1 -309q1 -19 10 -33q10 -18 50 -24q30 -3 54 -4q15 0 38 2q42 4 62 19q27 18 40 68q3 15 7 28q1 12 5 26q-18 6 -52 21q1 -21 2 -35q0 -34 -7 -52q-9 -27 -45 -34
q-19 -3 -47 -4q-16 1 -33 1q-15 0 -26 3q-21 6 -21 56v124l119 64q49 28 57 33q12 6 39 12q-21 12 -51 36q-48 -42 -164 -102v104z" />
  </g>

</svg>
