<?xml version="1.0" standalone="no"?>
<!DOCTYPE svg PUBLIC "-//W3C//DTD SVG 1.1//EN" "http://www.w3.org/Graphics/SVG/1.1/DTD/svg11.dtd" >
<svg xmlns="http://www.w3.org/2000/svg" xmlns:xlink="http://www.w3.org/1999/xlink" version="1.1" viewBox="-10 0 1010 1000">
   <path fill="currentColor"
d="M155 -12q32 17 84 31q20 5 21 7q1 6 -10 15q-17 16 -26 33q-17 34 -36 79h78q36 -1 61 -4v-20q10 0 28 1q13 1 18 1v-53q0 -42 -6 -66q81 -3 87 6q1 3 -4 9q-13 20 -13 49v55h71v-57q1 -34 -8 -68q7 0 19 1q76 1 72 9q1 2 -4 7q-16 20 -16 49v57h18q20 0 48 -4h4v68
q-17 -4 -50 -4h-20v107h16q12 0 42 -3q4 -1 6 -1v42q75 -153 93 -344q8 2 24 4q83 15 79 20q1 6 -7 17q-14 20 -20 39q-26 74 -40 129h123q33 0 71 -6v75q-20 -5 -65 -4q-1 18 -3 52q-13 311 -75 415q73 67 157 101q-49 27 -83 65q-62 -40 -113 -105q-71 75 -135 125
q-3 -2 -11 -9q-34 -28 -63 -41q95 -50 163 -132q-51 -98 -63 -330l-56 -36l8 -9q-16 -5 -50 -4h-192q-41 0 -55 1q-17 1 -24 3v-68q27 4 49 4h26v-105q-24 0 -48 6q-17 41 -59 149q-42 -13 -79 -12q29 -45 61 -123h-77q-1 1 -10 21q-39 88 -88 183q-15 -35 -49 -63
q107 -207 131 -364zM437 191v105h71v-105h-71zM821 262h-81q-3 9 -10 27q-14 42 -24 59q9 1 22 0q11 -1 14 2q-11 49 -2 146q9 101 30 167q51 -164 51 -401zM133 354q106 9 99 17q1 2 -3 6q-21 26 -21 80v278q33 -33 72 -86q12 42 32 82q-71 59 -135 136q-26 -42 -54 -69
q14 -34 14 -81v-250q0 -72 -4 -113zM323 413q36 6 100 6h117q37 0 79 -6q-8 32 -8 99v288q6 57 -121 75q-5 -45 -38 -79q98 7 92 -20v-67h-149v69q0 77 6 103q-45 -6 -82 0q8 -29 8 -103v-276q0 -56 -4 -89zM395 471v73h149v-73h-149zM395 592v65h149v-65h-149z" />
</svg>
