<?xml version="1.0" standalone="no"?>
<!DOCTYPE svg PUBLIC "-//W3C//DTD SVG 1.1//EN" "http://www.w3.org/Graphics/SVG/1.1/DTD/svg11.dtd" >
<svg xmlns="http://www.w3.org/2000/svg" xmlns:xlink="http://www.w3.org/1999/xlink" version="1.1" viewBox="-10 0 1034 1024">
  <g transform="matrix(1 0 0 -1 0 820)">
   <path fill="currentColor"
d="M62 373q6 0 27 -6q45 78 78 149h166q-21 -61 -46 -120q25 0 47 -6q4 16 8 27q3 9 5 18q10 33 22 65q6 22 22 57q-55 -4 -82 -5h-126l29 85q12 36 20 47q3 7 23 21q-30 6 -62 19q-16 -78 -46 -153q-51 -127 -109 -194q12 -1 24 -4zM221 343q0 6 2 24q1 18 12 36h-57
q4 -39 5 -60l-1 -367q-4 -24 -22 -47q21 -18 39 -45q9 12 14 22q30 48 66 98q15 22 60 77q3 6 9 11q-9 25 -17 53q-34 -60 -110 -157v355zM636 -76l-273 4q-3 0 -7 1v-46h5q7 3 36 4l503 1q30 0 53 -3q3 0 9 -2h2v46q-12 -3 -28 -3q-18 0 -36 -2h-226v90l182 -1l34 -4h4v46
q-10 -3 -27 -3l-68 -2h-125v69l206 -1l39 -4v46q-3 0 -5 -1q-4 0 -7 -1q-25 0 -51 -3h-182v73l178 -1l40 -4q-4 49 -5 76q0 75 2 85q0 16 3 34q-55 -4 -78 -5h-140v67q90 0 102 -2q12 0 31 -3q-4 19 -5 51v76l111 -1l39 -4v46q-31 -1 -64 -5h-86q0 67 3 74q1 15 11 29h-57
q0 -9 2 -15q0 1 2 -23l1 -65h-221v41q0 13 2 24q1 18 12 36h-56q4 -33 5 -65v-36l-118 2q-6 3 -13 3v-46h5q7 3 36 4l90 1q0 -67 -2 -93q-1 -16 -3 -34q45 4 66 5h69v-67l-166 1q-12 3 -39 4q1 -28 5 -58q0 -78 -2 -104q-3 -3 -3 -33q45 4 66 5h139v-73l-229 4q-4 1 -7 1
v-46q3 0 6 1q6 3 41 3l189 1v-69l-193 1q-12 3 -19 4v-46h6l2 1q4 0 10 1q15 0 42 3h152v-90zM473 264v113h163v-113h-163zM543 516v86h221v-86h-221zM674 264v113h175v-113h-175z" />
  </g>

</svg>
