<?xml version="1.0" standalone="no"?>
<!DOCTYPE svg PUBLIC "-//W3C//DTD SVG 1.1//EN" "http://www.w3.org/Graphics/SVG/1.1/DTD/svg11.dtd" >
<svg xmlns="http://www.w3.org/2000/svg" xmlns:xlink="http://www.w3.org/1999/xlink" version="1.1" viewBox="-10 0 1034 1024">
  <g transform="matrix(1 0 0 -1 0 820)">
   <path fill="currentColor"
d="M375 466v-484q0 -72 48 -87q22 -4 70 -9q18 0 42 -2l178 -2q12 1 44 2q79 1 118 9q55 13 86 80q9 24 21 76q-27 9 -49 23q-1 -93 -35 -125q-30 -25 -140 -26l-89 -4q-159 4 -205 8q-33 3 -41 15q-9 12 -10 55l1 468l4 44q-39 -6 -60 -7l-97 -2l-1 167q0 30 5 53
q1 15 17 29q-42 4 -69 10q4 -30 5 -53l3 -207q-75 -3 -96 -3l-49 6v-51l46 7l77 4h21q0 -48 -2 -113q-3 -63 -8 -109q-12 -88 -24 -131q-15 -51 -45 -112q-45 -84 -97 -130q18 -6 49 -21q97 141 126 240q19 69 29 146l7 98q3 60 4 134zM508 587q-36 0 -48 3q-3 1 -12 2v-46
h7q7 3 33 4l194 1q-16 -48 -32 -97q-55 0 -82 2q-6 3 -32 3q4 -99 5 -103l-1 -281q-1 -3 -1 -8q0 -16 -3 -32q39 4 59 5l231 -1q15 0 43 -4q-3 30 -5 61l1 319q0 15 4 44q-30 -1 -60 -5h-120q16 49 34 97l174 -1l39 -4h4v46q-3 0 -4 -1q-4 0 -8 -2l-99 -2h-54q7 18 32 62
q6 13 14 26q0 1 2 5l5 8q16 36 49 46q-39 18 -62 35q-27 -90 -82 -182h-225zM578 331v86h248v-86h-248zM578 208v87h248v-87h-248zM826 172v-96h-248v96h248zM521 715l54 -60q18 -24 36 -52q4 6 11 11q3 6 18 21q-21 28 -81 98q-1 1 -11 14q-9 -9 -21 -17q-3 -1 -12 -8
q3 -3 6 -7v0z" />
  </g>

</svg>
