<?xml version="1.0" standalone="no"?>
<!DOCTYPE svg PUBLIC "-//W3C//DTD SVG 1.1//EN" "http://www.w3.org/Graphics/SVG/1.1/DTD/svg11.dtd" >
<svg xmlns="http://www.w3.org/2000/svg" xmlns:xlink="http://www.w3.org/1999/xlink" version="1.1" viewBox="-10 0 1010 1000">
   <path fill="currentColor"
d="M714 2q48 0 61 1q18 1 19 5q1 2 -2 10q-12 35 -12 88h69q53 -1 82 -8v83q-28 -10 -86 -10h-63v75q0 29 2 56q-30 -6 -60 -6h-69v48h139q25 0 73 -8q-2 20 -2 73v52q0 36 1 47q0 13 3 28q-30 -10 -61 -10h-153v54h164q35 0 69 -3q7 -1 11 -1v69q-36 -6 -82 -6h-162v56h111
q60 -1 93 -10v75q-32 -6 -83 -6h-121v58h174q76 0 111 -6v75q-20 -5 -66 -4h-27h-143h-315q-60 0 -107 8v-83q20 6 40 8q21 2 67 2h194v-58h-33h-106q-50 0 -75 4v-71q43 8 79 8h135v-56h-164q-54 0 -76 6v-71q45 6 78 6h162v-54h-148q-42 0 -66 6q4 -33 4 -67v-64
q0 -39 -4 -65q47 8 75 8h114h25v-48h-67q-44 -1 -60 4q6 -30 6 -65v-64h-24q-31 0 -75 7q-3 1 -4 1q-30 74 -57 171q-26 -11 -39 -13q-16 -2 -45 -1q26 -44 46 -105h-91q-7 14 -24 47q-43 84 -72 141q-24 -43 -53 -69q99 -140 133 -348q15 2 41 6q70 10 66 18q0 3 -7 7
q-19 13 -25 35q-3 10 -13 36q-13 36 -21 61h82q24 -1 45 -6v-57q29 4 94 4h39q0 -49 -6 -102q75 -3 82 6q0 3 -2 9q-10 30 -10 87h196q0 -41 -4 -104zM524 171v60h196v-60h-196zM437 399v72h146v-72h-146zM655 399v72h147v-72h-147zM149 342q10 1 30 2q76 5 73 12q0 4 -4 9
q-18 25 -18 90v262q39 -46 85 -113q7 57 28 91q-77 73 -147 163q-19 -31 -53 -56q12 -33 12 -95v-240q0 -78 -6 -125z" />
</svg>
