<?xml version="1.0" standalone="no"?>
<!DOCTYPE svg PUBLIC "-//W3C//DTD SVG 1.1//EN" "http://www.w3.org/Graphics/SVG/1.1/DTD/svg11.dtd" >
<svg xmlns="http://www.w3.org/2000/svg" xmlns:xlink="http://www.w3.org/1999/xlink" version="1.1" viewBox="-10 0 1034 1024">
  <g transform="matrix(1 0 0 -1 0 820)">
   <path fill="currentColor"
d="M54 407q12 -3 25 -11q21 34 35 63q15 31 42 94h126q-18 -57 -39 -97q16 -3 28 -5l12 -3q3 15 12 32q1 10 6 19q3 10 36 95q-28 -1 -57 -5h-110q31 105 37 116q6 21 30 32l-60 17q-10 -54 -31 -121q-10 -36 -29 -82q-9 -22 -18 -42l-15 -28q-25 -42 -51 -67q10 -3 21 -7z
M210 362q0 6 2 25q1 18 11 36h-56q1 -30 5 -61l-1 -355q-6 -18 -8 -22q-4 -4 -11 -13q19 -12 31 -21q6 -4 19 -17l55 86l66 96q-9 21 -20 45l-49 -82q-18 -30 -44 -63v346zM415 471q-72 0 -92 3q-3 1 -11 2v-47q3 1 6 1q3 3 27 3q13 1 28 2l241 -1q12 0 25 -3q3 0 6 -1
q3 0 7 -1v47q-6 0 -15 -3l-62 -2v119q57 0 65 -4q6 0 9 -1v46q-4 0 -7 -2q-4 0 -7 -1l-60 -2q0 93 3 99q1 15 11 29h-58q3 -9 3 -13q1 -25 3 -48v-67h-85q0 93 3 99q1 15 11 29h-56q4 -42 5 -74v-54q-27 0 -54 2q-6 3 -13 3v-46h6q7 3 36 4q4 0 25 1v-119zM452 471v119h85
v-119h-85zM375 -79q0 -39 -5 -57h47q-3 22 -5 45v167h158v-135q0 -15 -6 -22t-24 -8h-32q-9 0 -20 3q0 -1 1 -4q3 -9 8 -17q3 -9 6 -26q43 3 59 7q45 10 46 63l1 388l4 41q-36 -6 -64 -6q-126 0 -148 2q-3 1 -31 4q1 -18 2 -29q3 -21 3 -28v-388zM412 112v86h158v-86h-158z
M570 234h-158v90h158v-90zM940 -120q6 -6 14 -16q22 25 52 35q-48 19 -87 59q-54 57 -101 142q42 117 60 261l9 85l8 72q30 0 60 -3q6 0 9 -2v46q-99 -4 -103 -5h-111q43 162 46 165q4 9 20 20q-22 3 -60 15q-1 -25 -6 -53q-4 -27 -11 -55q-15 -60 -33 -110
q-43 -118 -86 -163q13 -3 23 -6t26 -7l41 94q12 28 26 64h119q-9 -198 -58 -376l-27 66l-18 59q-21 79 -21 97q0 10 5 31q-21 -6 -47 -9q15 -72 32 -138q9 -31 18 -58l40 -99q-42 -78 -85 -135q-39 -49 -79 -71q22 -13 43 -29q45 51 76 92q28 42 66 106l61 -85z" />
  </g>

</svg>
