<?xml version="1.0" standalone="no"?>
<!DOCTYPE svg PUBLIC "-//W3C//DTD SVG 1.1//EN" "http://www.w3.org/Graphics/SVG/1.1/DTD/svg11.dtd" >
<svg xmlns="http://www.w3.org/2000/svg" xmlns:xlink="http://www.w3.org/1999/xlink" version="1.1" viewBox="-10 0 1034 1024">
  <g transform="matrix(1 0 0 -1 0 820)">
   <path fill="currentColor"
d="M488 514l-1 -194q-4 -24 -5 -27h49q-1 3 -1 5q-3 6 -3 39l-1 177l66 -61q27 -27 42 -37q30 -24 76 -53q85 -52 224 -99q10 12 19 24q9 9 22 24q-39 0 -75 9q-31 7 -86 32q-75 33 -123 67q-48 33 -109 94h279q30 0 48 -3q1 0 14 -2v44q-6 0 -12 -3q-28 0 -50 -2h-335v130
q46 3 105 12l121 18l70 4h2q-22 24 -41 50q-28 -10 -77 -21q-85 -16 -186 -29q-48 -4 -111 -8q-63 -3 -115 -4q-36 0 -83 4q-28 1 -60 8q6 -9 19 -50q15 1 30 1l221 7l67 4v-126h-349q-42 0 -65 5v-44q66 6 84 5h264q-37 -45 -68 -75q-27 -27 -58 -52q-69 -57 -131 -89
q-57 -27 -108 -37q28 -22 43 -44q69 34 122 67q48 30 89 64q45 37 76 69q33 34 84 97h17zM266 -100q0 -30 -3 -50q0 -4 -2 -8h49q-3 10 -5 54v33h427q0 -33 -3 -69l-3 -8h49q-3 39 -5 78l1 290l4 44q-30 -1 -62 -5l-408 1q-25 3 -44 4q4 -99 5 -102v-262zM305 -36v116h427
v-116h-427zM305 114v111h427v-111h-427z" />
  </g>

</svg>
