<?xml version="1.0" standalone="no"?>
<!DOCTYPE svg PUBLIC "-//W3C//DTD SVG 1.1//EN" "http://www.w3.org/Graphics/SVG/1.1/DTD/svg11.dtd" >
<svg xmlns="http://www.w3.org/2000/svg" xmlns:xlink="http://www.w3.org/1999/xlink" version="1.1" viewBox="-10 0 1010 1000">
   <path fill="currentColor"
d="M679 -2l103 14q-32 46 -32 171h77q59 -1 110 -8v69q-84 -7 -108 -6h-75q-1 194 32 356q62 -167 53 -300q26 8 66 19q34 10 30 9q0 1 -3 9q-13 31 -17 48q-1 6 -4 19q-44 197 -96 287q30 74 68 99q17 6 20 -81q39 41 75 55q-31 142 -75 137q-61 -15 -133 -149
q-70 86 -155 153q-37 -31 -85 -51q134 -58 210 -173q-46 -153 -52 -437h-142q-47 0 -113 8v-71q51 8 111 8h144q0 -83 -2 -121q-2 -43 -7 -64zM315 14q80 32 98 46q-1 1 -7 6q-26 16 -39 34q-16 21 -37 56q-13 20 -20 31q40 0 99 -8v71q-72 -8 -121 -8l-34 72h61q27 0 80 -6
q-6 38 -6 75v385q0 39 8 101h-82q8 -25 8 -57h-166q0 18 8 63h-82q7 -26 8 -111v-379q-1 -45 -6 -77q40 5 84 6h25l20 -70h-53q-35 1 -103 8v-73q16 2 34 4q23 4 65 4h93q40 -80 65 -173zM155 20q43 56 75 109l-65 38q-32 -65 -70 -111zM849 22q52 48 78 82l-56 43
q-24 -39 -77 -87zM440 320q40 5 76 6h59q22 0 70 -6q-5 27 -6 67v137q1 37 6 68q-36 -6 -66 -6h-69q-14 0 -49 4q-14 1 -21 2q5 -26 6 -72v-129q-1 -39 -6 -71zM157 365v94h166v-94h-166zM502 381v149h81v-149h-81zM157 510v94h166v-94h-166zM673 637l-6 72q-77 19 -230 65
l-36 -75q130 -15 272 -62zM157 655v105h166v-105h-166z" />
</svg>
