<?xml version="1.0" standalone="no"?>
<!DOCTYPE svg PUBLIC "-//W3C//DTD SVG 1.1//EN" "http://www.w3.org/Graphics/SVG/1.1/DTD/svg11.dtd" >
<svg xmlns="http://www.w3.org/2000/svg" xmlns:xlink="http://www.w3.org/1999/xlink" version="1.1" viewBox="-10 0 1010 1000">
   <path fill="currentColor"
d="M754 4q4 4 11 12q74 82 62 94q-2 4 -18 1q-48 -11 -105 -9q-133 11 -178 19v96h244q44 0 117 -6q23 -1 32 -2v79q-56 -5 -82 -6q-30 -2 -73 -2h-155q147 136 345 143q-43 54 -61 101q-71 -20 -107 -39q-10 29 -10 57v226q0 24 5 91q2 26 3 36h-88q4 -25 4 -71h-414
q-2 39 4 77h-88q0 -2 1 -5q7 -59 7 -114v-234q0 -41 -6 -63q-25 17 -99 47q-31 -41 -64 -67q-11 -8 -7 -10q204 -51 329 -175h-157q-46 0 -127 7q-7 1 -10 1v-79q10 1 34 3q58 5 101 5h246v-90q-32 1 -97 4q-127 4 -186 8q-15 -47 -38 -81q140 13 347 -4q199 -18 278 -50z
M526 280v197h159q31 0 67 -6q-158 -98 -226 -191zM450 282q-81 101 -218 187q27 8 60 8h158v-195zM700 540h-414v77h414v-77zM700 677h-414v83h414v-83z" />
</svg>
