<?xml version="1.0" standalone="no"?>
<!DOCTYPE svg PUBLIC "-//W3C//DTD SVG 1.1//EN" "http://www.w3.org/Graphics/SVG/1.1/DTD/svg11.dtd" >
<svg xmlns="http://www.w3.org/2000/svg" xmlns:xlink="http://www.w3.org/1999/xlink" version="1.1" viewBox="-10 0 1034 1024">
  <g transform="matrix(1 0 0 -1 0 820)">
   <path fill="currentColor"
d="M104 563q-36 0 -46 2q-3 0 -8 2q-3 1 -5 1v-46q3 1 6 1q6 3 39 3l147 1q-7 -36 -14 -59q-6 -24 -18 -62l-74 4q-7 1 -17 3q1 -31 5 -64l-1 -475q-1 -13 -4 -24h47q-4 21 -5 56v34h218v-16q0 -36 -5 -57h48q-3 28 -5 57l1 443q0 18 4 46l-61 -7h-110l16 62q7 24 18 59
l128 -1q28 0 38 -4v46q-4 -1 -10 -2l-2 -1l-113 -2l67 92q33 43 56 52q-31 19 -50 35q-9 -24 -19 -42q-10 -21 -30 -50q-10 -16 -24 -33l-42 -54h-175zM156 -24v122h218v-122h-218zM156 133v102h218v-102h-218zM156 271v100h218v-100h-218zM216 608q6 9 10 13q3 3 7 5
l-98 99q-4 3 -7 6q-4 -3 -7 -8q-1 -3 -10 -11q-3 -3 -10 -7q75 -70 104 -109q4 6 11 12zM469 -48q1 0 29 10q54 18 69 20q12 1 21 5q28 9 126 30q0 21 8 47q-58 -22 -135 -41q-69 -15 -141 -26q1 -3 3 -5q6 -6 20 -40zM516 522q-36 0 -49 3q-3 1 -11 2v-47q3 0 6 1q6 3 24 3
q15 0 30 2h225l4 -66q4 -105 11 -166q0 -3 9 -85l15 -110q-45 -69 -90 -113q-54 -51 -100 -75q36 -18 51 -27q79 75 155 167q33 -114 61 -143q19 -21 41 -22q12 0 23 11q9 9 18 33q12 28 29 84q-31 16 -48 35q0 -15 1 -23q0 -21 -4 -52q-4 -34 -23 -35q-19 0 -48 82
q-10 36 -21 78q24 58 44 114q18 54 34 117q9 45 15 55q3 9 22 22q-3 0 -8 3q-3 0 -16 5q-18 4 -41 13q-9 -117 -63 -267l-19 163l-12 202l136 -1q24 0 30 -3q6 0 9 -2v47q-3 0 -5 -1l-112 -4h-59q0 22 -3 48l-4 128q0 36 19 57q-31 0 -64 7q3 -27 4 -49q3 -30 4 -90l5 -101
h-225zM688 388q-55 -3 -85 -4q-63 0 -84 2q-3 1 -5 1q-10 0 -26 2q6 -54 6 -74l-1 -147q-4 -19 -5 -43q45 4 69 5l102 -1l39 -4q-6 54 -6 75q0 147 2 157l4 32q-6 0 -10 -1zM530 166v183h124v-183h-124zM898 658l-61 62q-13 -15 -28 -27l62 -62q18 -19 35 -43q18 21 29 31
q-6 7 -15 15q-12 12 -22 24v0z" />
  </g>

</svg>
