<?xml version="1.0" standalone="no"?>
<!DOCTYPE svg PUBLIC "-//W3C//DTD SVG 1.1//EN" "http://www.w3.org/Graphics/SVG/1.1/DTD/svg11.dtd" >
<svg xmlns="http://www.w3.org/2000/svg" xmlns:xlink="http://www.w3.org/1999/xlink" version="1.1" viewBox="-10 0 1034 1024">
  <g transform="matrix(1 0 0 -1 0 820)">
   <path fill="currentColor"
d="M51 274q9 -6 13 -10q3 -3 10 -9q87 61 184 182v-100q0 -33 -5 -57h48q-6 43 -5 69v80q105 -76 150 -138q15 24 22 32l6 8q-43 39 -85 72q-40 31 -93 69v7l122 -1l39 -4v45q-42 -3 -83 -4h-78v151q123 21 138 21q7 0 15 -1l-36 46q-27 -9 -56 -16q-54 -12 -87 -15
q-33 -4 -73 -7q-36 -3 -61 -3q-24 0 -38 4q9 -21 16 -32q1 -7 5 -16l139 13v-145l-173 1q-12 3 -19 3v-45h6q7 3 33 4l135 1q-42 -67 -100 -123q-57 -51 -107 -68q9 -6 18 -14zM135 -64q0 -48 -4 -69l-2 -6h48q-1 6 -3 25q0 18 -2 41h214q0 -30 -4 -47h47q-4 27 -5 69l1 260
q0 16 4 45q-30 -1 -59 -5l-198 1q-15 3 -43 4q1 -16 3 -32q3 -21 3 -31v-255zM172 105v108h214v-108h-214zM386 -37h-214v106h214v-106zM615 198q22 39 47 76q186 0 199 -2q15 0 33 -3q-4 49 -5 73q0 174 2 184q0 18 3 35q-54 -6 -73 -6l-260 1q-6 1 -42 5q1 -28 5 -58
l-1 -191q-3 -12 -4 -43q18 1 27 2q21 3 67 3q-84 -144 -166 -194q25 -10 50 -25q4 3 9 9q12 12 17 19q15 19 58 68q4 4 10 11h237q-40 -73 -116 -152l-43 42q-7 6 -21 22q-22 33 -26 57q-27 -18 -45 -27q9 -13 16 -20q18 -24 24 -31q3 -1 6 -6l60 -61q-54 -45 -126 -80
q-63 -30 -139 -39q16 -16 36 -46q78 27 136 57q60 33 130 80q90 -63 237 -111q9 24 35 48q-120 12 -245 88q52 61 85 106q30 45 71 114q-49 -4 -61 -5h-227zM561 432v87h290v-87h-290zM851 310h-290v86h290v-86zM884 635q42 0 57 -5h7v46q-6 0 -64 -5h-319q18 33 31 50
q12 18 37 32q-12 4 -23 8q-12 3 -20 7q-6 3 -19 8q-18 -54 -57 -114q-45 -70 -91 -105q13 -6 22 -9q3 -1 24 -12q37 45 75 99h340z" />
  </g>

</svg>
