<?xml version="1.0" standalone="no"?>
<!DOCTYPE svg PUBLIC "-//W3C//DTD SVG 1.1//EN" "http://www.w3.org/Graphics/SVG/1.1/DTD/svg11.dtd" >
<svg xmlns="http://www.w3.org/2000/svg" xmlns:xlink="http://www.w3.org/1999/xlink" version="1.1" viewBox="-10 0 1034 1024">
  <g transform="matrix(1 0 0 -1 0 820)">
   <path fill="currentColor"
d="M193 109q30 7 57 17q1 -27 5 -56l-1 -194q-1 -16 -4 -26h46q-3 24 -4 48h453q-1 -36 -4 -45h47q-3 24 -5 47l1 183q0 13 4 42q75 -18 140 -31q15 -3 28 -5q6 27 20 46q-196 1 -382 88l281 -1l39 -4v39q-84 -3 -125 -4h-248v60q12 0 53 4l110 9q33 0 54 3q6 0 26 -4
q-16 18 -25 46q-63 -15 -172 -24q51 24 81 40q48 24 66 36q27 -6 49 -16q24 -9 66 -28q34 -18 56 -30q0 7 6 20l8 15q1 3 3 6l-63 21l-98 37q51 48 59 58q24 31 42 50q-31 -1 -63 -5l-200 1q-12 3 -18 4v-37q46 4 90 5h126q-13 -15 -28 -28q-15 -15 -42 -37q-24 9 -37 14
q-60 21 -75 27q-6 -21 -16 -40q27 0 50 -6q21 -6 42 -14q4 -1 9 -3q-48 -24 -83 -38q-33 -10 -76 -22q16 -15 34 -30q-54 -4 -118 -6l-187 1q-21 1 -45 5q3 -9 9 -18q3 -15 9 -23l260 5v-58l-352 1q-18 3 -21 3v-39q3 0 6 1q6 3 39 3l268 1q-69 -27 -114 -42
q-39 -13 -96 -28q-55 -15 -97 -23q-39 -6 -89 -10q27 -21 38 -43q94 28 108 32zM503 121l-196 1q-33 4 -48 5q66 19 116 39q51 21 128 57v-102zM292 -74v69h453v-69h-453zM745 94v-72h-453v72h453zM541 121v101q66 -33 118 -56q51 -19 112 -39q-63 -6 -86 -6h-144zM460 391
q9 0 52 -5q-4 42 -5 63q0 51 2 58q0 7 2 12q0 9 1 18l-53 -6l-263 1q-9 1 -37 5h-7q3 -24 4 -46v-24q0 -93 -46 -144q-12 -13 -41 -33q10 -6 24 -12q7 -3 18 -11q54 60 77 124h272zM318 418h-128l3 87h125v-87zM352 418v87h119v-87h-119zM354 683q0 34 13 59h-54
q3 -15 5 -59l-197 3q-3 1 -7 3v-38q12 3 41 4q18 0 39 2h124v-49l-154 4q-4 1 -8 1v-36q30 3 61 5l256 -1l38 -4v36q-31 -1 -63 -5h-94v49l148 -1q9 0 39 -5v38q-9 -1 -17 -4zM793 689v-43q0 -27 11 -39q7 -9 34 -12q28 -3 44 -4h32q4 25 11 45q-24 -6 -42 -9l-30 -1
q-27 0 -27 29q0 24 3 50q0 1 1 2q0 7 1 14q-43 -4 -63 -5q-126 0 -156 3l-12 2q3 -18 3 -31q0 -24 -6 -47q-6 -28 -32 -51q-12 -9 -35 -21q24 -13 35 -24q37 36 51 53q18 33 24 89h153z" />
  </g>

</svg>
