<?xml version="1.0" standalone="no"?>
<!DOCTYPE svg PUBLIC "-//W3C//DTD SVG 1.1//EN" "http://www.w3.org/Graphics/SVG/1.1/DTD/svg11.dtd" >
<svg xmlns="http://www.w3.org/2000/svg" xmlns:xlink="http://www.w3.org/1999/xlink" version="1.1" viewBox="-10 0 1034 1024">
  <g transform="matrix(1 0 0 -1 0 820)">
   <path fill="currentColor"
d="M50 94q9 -27 12 -58q39 16 75 26l135 31q45 9 69 16q1 13 3 24l8 28q-30 -15 -105 -32l-102 -23q-10 -3 -22 -4q-36 -4 -73 -8zM343 299q3 15 4 35q33 310 38 330q1 15 10 49l-61 -5l-214 1l-41 4v-47q9 1 18 3q21 1 45 3h205l-10 -99l-31 -274h-141l16 229q3 33 21 61
l-24 3q-18 0 -40 5q6 -25 6 -68q-3 -39 -5 -81q-4 -81 -11 -148q-3 -21 -9 -42q30 3 60 5h225l-19 -274q-3 -51 -31 -62q-27 -12 -65 -12l-55 7q15 -27 21 -53q39 1 79 11q57 12 77 50q6 13 9 34q3 27 8 89q4 99 10 132q4 78 8 92q1 12 6 28q-54 -6 -74 -6h-35zM550 674h332
q24 0 52 -3q6 0 16 -3v47q-24 -4 -68 -5h-311q-7 0 -32 3q-15 0 -32 2q1 -30 5 -62l-1 -692q-3 -12 -4 -46l64 6l358 -1q7 0 18 -1q6 -3 15 -4v47q-19 -6 -69 -6h-343v718zM790 258q90 -126 116 -190l27 26q6 3 14 8l-65 95q-3 6 -64 92l-22 30q3 12 14 29l35 71
q30 67 40 81q16 33 34 49q-24 9 -28 11q-9 4 -26 18q-18 -57 -35 -99q-18 -42 -45 -94q-9 -15 -16 -30q-12 15 -24 32q-66 87 -121 154q-15 -15 -22 -21q-6 -6 -18 -12q18 -12 30 -24q15 -15 38 -43q54 -66 96 -126q-34 -64 -104 -145q-48 -52 -85 -73q25 -12 49 -32
q1 3 20 23l49 59l64 85l33 49q7 -10 16 -23v0z" />
  </g>

</svg>
