<?xml version="1.0" standalone="no"?>
<!DOCTYPE svg PUBLIC "-//W3C//DTD SVG 1.1//EN" "http://www.w3.org/Graphics/SVG/1.1/DTD/svg11.dtd" >
<svg xmlns="http://www.w3.org/2000/svg" xmlns:xlink="http://www.w3.org/1999/xlink" version="1.1" viewBox="-10 0 1034 1024">
  <g transform="matrix(1 0 0 -1 0 820)">
   <path fill="currentColor"
d="M89 138q6 -27 8 -53q22 15 57 20l53 12q73 16 155 30q0 24 4 32q1 6 3 16q-43 -15 -135 -35q-39 -9 -78 -14q-36 -6 -67 -8zM164 709q-27 0 -59 5v-46q15 4 38 5l229 1q-1 -27 -8 -75l-34 -269h-144q7 111 8 115l5 74q3 51 10 68q3 12 10 21q-30 3 -57 9q0 -3 3 -13
q3 -24 3 -49q-3 -27 -10 -151q-3 -61 -9 -96q-1 -7 -4 -18q27 3 54 5h222l-5 -77q-6 -72 -10 -140q0 -10 -6 -66q-6 -33 -26 -43q-33 -10 -65 -11q-6 0 -47 6q9 -16 13 -25q0 -1 8 -28q40 4 65 10q18 3 37 10q30 12 42 35q9 22 12 85l7 106l8 107l8 71q-28 -1 -57 -5h-40
q1 10 4 20q27 250 34 292q0 6 2 11q9 57 10 61q-49 -4 -61 -5h-190zM827 297l6 12q12 24 28 42q-33 9 -56 23q-28 -135 -112 -250q-36 45 -70 130q-21 51 -25 108q-21 -7 -55 -10q9 -15 13 -26q0 -1 9 -24q43 -133 104 -213q-42 -54 -134 -114q-61 -33 -116 -44
q22 -18 42 -44q39 18 109 64q67 46 123 107q51 -54 93 -84q51 -33 132 -80q12 30 32 50q-136 40 -232 146q12 19 32 54q21 36 41 75zM791 493q42 -34 97 -84q19 27 27 35q-21 21 -77 63l-23 17l-65 48l-21 15q96 115 99 116q18 21 40 32q-27 18 -46 42q-12 -24 -39 -64
q-45 -60 -85 -103q-42 27 -85 58q-46 33 -99 64q-10 -24 -22 -38q43 -21 71 -41l72 -47q18 -12 36 -26q-33 -36 -65 -63q-28 -24 -63 -48q-42 -30 -90 -44q22 -13 45 -39q16 9 38 25l51 40q57 48 116 105q24 -15 88 -63v0z" />
  </g>

</svg>
