<?xml version="1.0" standalone="no"?>
<!DOCTYPE svg PUBLIC "-//W3C//DTD SVG 1.1//EN" "http://www.w3.org/Graphics/SVG/1.1/DTD/svg11.dtd" >
<svg xmlns="http://www.w3.org/2000/svg" xmlns:xlink="http://www.w3.org/1999/xlink" version="1.1" viewBox="-10 0 1010 1000">
   <path fill="currentColor"
d="M147 32q43 10 139 10h373q30 0 117 -6q-6 25 -14 86q-3 18 -4 27q-14 97 -34 278h33q104 1 138 -4q-21 313 -46 399q-25 61 -184 81q-15 -64 -48 -109q84 14 118 1q36 -13 43 -58q20 -152 24 -235h-427q-55 0 -82 1q-30 2 -51 5q-6 -2 -8 -12q13 -98 19 -197
q6 -92 1 -136q72 1 103 6q14 3 1 23q-16 25 -17 43q-5 81 -14 192h312l34 -310h-387h-14q-74 -2 -125 10v-95zM708 610v95q-41 -9 -113 -8h-401q-84 0 -121 8v-95q31 7 121 7h401q75 0 113 -7z" />
</svg>
