<?xml version="1.0" standalone="no"?>
<!DOCTYPE svg PUBLIC "-//W3C//DTD SVG 1.1//EN" "http://www.w3.org/Graphics/SVG/1.1/DTD/svg11.dtd" >
<svg xmlns="http://www.w3.org/2000/svg" xmlns:xlink="http://www.w3.org/1999/xlink" version="1.1" viewBox="-10 0 1010 1000">
   <path fill="currentColor"
d="M621 10q24 2 64 5q59 3 55 7q0 2 -7 18q-18 41 -19 58q-6 62 -6 176h62q107 -3 159 -8v90q-38 -8 -149 -8h-66q32 297 244 436q-48 47 -69 89q-167 -129 -210 -386q-48 254 -173 408q-32 -27 -93 -53q161 -101 208 -494h-63q-58 0 -118 10v-90q41 9 114 8h73
q3 -67 1 -144q-2 -80 -7 -122zM79 72q50 9 117 10h108q98 0 123 -8q-22 151 -42 375q-1 20 -2 28q75 0 105 -6q-24 315 -50 333q-26 48 -170 71q-2 -43 -34 -99q105 16 135 -22q19 -29 31 -200q1 -7 1 -6h-149q-88 2 -135 8q7 -38 11 -154q1 -10 1 -15q6 -130 0 -158
q54 2 95 8q0 2 -2 7q-22 49 -24 233h108l27 -324h-139q-73 2 -115 10v-91zM335 602q-3 41 0 89q-174 21 -272 59q-5 -71 -15 -101q181 -5 287 -47z" />
</svg>
