<?xml version="1.0" standalone="no"?>
<!DOCTYPE svg PUBLIC "-//W3C//DTD SVG 1.1//EN" "http://www.w3.org/Graphics/SVG/1.1/DTD/svg11.dtd" >
<svg xmlns="http://www.w3.org/2000/svg" xmlns:xlink="http://www.w3.org/1999/xlink" version="1.1" viewBox="-10 0 1010 1000">
   <path fill="currentColor"
d="M655 6q10 14 26 38q38 54 49 79l-75 38q-22 -70 -72 -119zM438 159q57 8 114 8h254q67 0 85 -1q25 -2 40 -7v89q-19 -6 -61 -8q-39 -2 -154 -2v205h84q27 0 43 -1q31 -1 54 -7v81q-27 -10 -181 -8v262q114 2 163 0q50 -2 71 -8v92q-24 -12 -170 -12h-207q-106 0 -152 8
v-90q35 7 72 8q37 2 136 2v-262q-74 0 -106 2q-30 1 -57 6v-83h3q69 12 160 10v-205h-4h-30q-76 0 -157 8v-87zM91 60q30 6 96 6h103q74 -1 119 -4q-3 19 -9 55q-6 37 -9 56l-28 292q40 0 75 -4q-4 40 -15 128q-20 171 -22 211q1 84 -165 107q-7 -51 -42 -95q39 9 84 -1
q35 -8 39 -29q20 -114 32 -250h-119q-65 0 -107 12q12 -54 18 -107l10 -149q3 -55 0 -85q95 7 95 14q1 3 -4 10q-17 27 -20 63l-14 177h80l35 -334h-154q-48 0 -78 10v-83zM276 606q-9 37 -2 75q-129 22 -218 46q0 -51 -16 -86q97 6 236 -35z" />
</svg>
