<?xml version="1.0" standalone="no"?>
<!DOCTYPE svg PUBLIC "-//W3C//DTD SVG 1.1//EN" "http://www.w3.org/Graphics/SVG/1.1/DTD/svg11.dtd" >
<svg xmlns="http://www.w3.org/2000/svg" xmlns:xlink="http://www.w3.org/1999/xlink" version="1.1" viewBox="-10 0 1034 1024">
  <g transform="matrix(1 0 0 -1 0 820)">
   <path fill="currentColor"
d="M361 138q-24 -9 -49 -15q-28 -7 -75 -17l-102 -20q-36 -6 -73 -10q15 -48 15 -52q31 12 121 33l160 33zM148 688q-33 3 -65 5v-46q31 4 65 5h219l-34 -367h-151l16 243q3 42 27 67q-31 4 -63 8q0 -18 2 -37l-21 -277q-3 -21 -8 -45l68 6h224l-17 -258q-6 -55 -20 -71
q-21 -21 -83 -22q-21 0 -49 5q1 -9 8 -20l11 -33q60 3 100 14q36 12 51 36q12 24 18 89l18 230q7 63 8 71q-25 0 -61 -5l-40 -1l34 342q3 31 8 54q0 4 2 12q-33 -1 -66 -5h-201zM841 596l-79 -131q-27 -45 -68 -104l-201 4q-3 1 -7 1v-46q33 3 66 5h330v-153q-339 3 -351 5
v-46q49 4 66 5h285v-174l-386 3l-8 2v-46q31 3 65 5h329q0 -58 -3 -74q-1 -1 -1 -4q-1 -1 -1 -5h48q0 3 -1 7l-4 56l1 413l4 47q-34 -1 -69 -5h-110q7 19 14 26q6 13 54 86q27 40 99 165q-19 -1 -35 -3q-25 -3 -36 -3h-193q33 63 48 82q13 18 39 27q-33 9 -69 28
q-16 -45 -31 -75q-15 -27 -37 -62q-31 -52 -71 -114q-34 -48 -56 -72q-15 -16 -43 -39q24 -6 50 -24l97 136q30 42 53 77h212z" />
  </g>

</svg>
