<?xml version="1.0" standalone="no"?>
<!DOCTYPE svg PUBLIC "-//W3C//DTD SVG 1.1//EN" "http://www.w3.org/Graphics/SVG/1.1/DTD/svg11.dtd" >
<svg xmlns="http://www.w3.org/2000/svg" xmlns:xlink="http://www.w3.org/1999/xlink" version="1.1" viewBox="-10 0 1010 1000">
   <path fill="currentColor"
d="M683 8q32 46 53 102l-81 25q-45 -79 -62 -97zM405 68q-26 132 -46 399l109 -6q-5 43 -14 149q-15 178 -25 200q-26 71 -191 81q-4 -54 -34 -93q71 9 99 3q27 -3 42 -27q25 -46 30 -246h-133q-126 3 -147 8q9 -54 16 -180q1 -26 4 -69q6 -108 0 -106q31 4 75 7q27 1 26 3
l-3 6q-27 26 -38 268h105l26 -318h-131q-76 2 -123 8v-85q13 3 89 8q16 1 24 2h95q60 0 145 -12zM550 316q10 1 29 3q83 8 82 11q1 2 -5 11q-21 30 -21 60v111q123 -75 178 -135q22 23 58 57q28 26 24 25q-2 1 -8 2q-26 6 -72 27q-93 45 -180 96v153q-1 37 18 45
q12 10 89 12q72 3 96 -25q26 -26 23 -106q45 40 97 42q-33 177 -148 166h-120q-87 1 -111 -25q-25 -20 -23 -106v-299q-2 -99 -6 -125zM313 613q-5 44 -5 80q-91 11 -241 47q0 -45 -9 -95q104 4 255 -32zM802 143q70 0 127 -6q0 5 -2 16q-6 49 -6 82q0 78 4 103h-94
q0 -3 1 -9q7 -51 7 -118h-317q-3 98 2 129h-93q7 -43 9 -103v-72q-1 -22 -2 -30q29 6 122 8h242z" />
</svg>
