<?xml version="1.0" standalone="no"?>
<!DOCTYPE svg PUBLIC "-//W3C//DTD SVG 1.1//EN" "http://www.w3.org/Graphics/SVG/1.1/DTD/svg11.dtd" >
<svg xmlns="http://www.w3.org/2000/svg" xmlns:xlink="http://www.w3.org/1999/xlink" version="1.1" viewBox="-10 0 1034 1024">
  <g transform="matrix(1 0 0 -1 0 820)">
   <path fill="currentColor"
d="M326 108q0 15 4 32q0 3 2 15q-30 -13 -57 -23q-27 -9 -72 -23q-97 -28 -156 -35q10 -24 16 -50l116 39zM380 717l-48 -4l-237 1q-15 3 -17 3q-1 0 -9 1v-46q30 3 60 5h219l-37 -371h-147q1 22 4 44l9 102l7 76l4 31q3 28 21 43q-25 0 -60 9q0 -72 -2 -95l-11 -132
q-6 -54 -15 -98q-3 -9 -5 -21q30 3 61 5h218l-14 -199q-4 -60 -11 -99q-9 -42 -36 -56q-28 -9 -64 -10h-19q-19 0 -34 4q12 -27 17 -52q64 6 86 11q67 13 83 79l9 54l18 213q3 60 7 76q1 12 5 20q-30 -1 -61 -5h-32l15 179l26 233q-6 0 -10 -1zM534 -49l-92 1q-12 3 -19 4
v-46q3 3 44 5l478 -1q21 0 29 -4v46q-31 -1 -63 -5h-52l1 717q1 25 5 52q-54 -4 -65 -5l-226 1q-19 3 -46 4l6 -66v-703zM570 472v207h252v-207h-252zM570 243v195h252v-195h-252zM570 -49v257h252v-257h-252z" />
  </g>

</svg>
