<?xml version="1.0" standalone="no"?>
<!DOCTYPE svg PUBLIC "-//W3C//DTD SVG 1.1//EN" "http://www.w3.org/Graphics/SVG/1.1/DTD/svg11.dtd" >
<svg xmlns="http://www.w3.org/2000/svg" xmlns:xlink="http://www.w3.org/1999/xlink" version="1.1" viewBox="-10 0 1010 1000">
   <path fill="currentColor"
d="M554 -6q98 16 115 28q0 1 -9 11q-22 22 -27 35q-3 8 -11 26q-12 27 -25 55h218q69 0 102 -6q-10 271 -10 540q2 135 -31 169q-22 36 -150 51q-16 -59 -51 -99q56 8 81 6q27 -2 41 -14q30 -20 30 -115q1 -74 3 -208q3 -181 3 -256h-266q-5 10 -33 63q-16 30 -26 48
q27 3 61 4h94q49 -1 85 -4q-8 38 -8 95v214q0 53 4 78h-77q0 -3 1 -11q3 -19 3 -43h-100v53q1 19 2 30h-75q6 -28 6 -89v-254q0 -36 -4 -59q-30 43 -42 67q-22 -14 -56 -27q-17 -7 -29 -11q140 -150 181 -377zM571 395v203h102v-203h-102zM288 598l-2 75q-89 5 -221 36
l-15 -88q96 5 238 -23zM69 42q42 9 114 10h65q98 -3 125 -8q-22 161 -32 401q46 0 82 -6q-7 31 -18 158q-13 148 -22 197q-3 66 -181 85q4 -49 -27 -99q139 38 144 -45q10 -57 20 -179q3 -29 4 -42h-141q-58 0 -93 10q10 -24 14 -176q1 -24 2 -63q4 -95 4 -110q88 5 89 10
q0 2 -5 9q-14 20 -15 39l-13 214h91l16 -328h-111q-52 -1 -99 10q-10 2 -13 2v-89z" />
</svg>
