<?xml version="1.0" standalone="no"?>
<!DOCTYPE svg PUBLIC "-//W3C//DTD SVG 1.1//EN" "http://www.w3.org/Graphics/SVG/1.1/DTD/svg11.dtd" >
<svg xmlns="http://www.w3.org/2000/svg" xmlns:xlink="http://www.w3.org/1999/xlink" version="1.1" viewBox="-10 0 1034 1024">
  <g transform="matrix(1 0 0 -1 0 820)">
   <path fill="currentColor"
d="M129 289q66 24 102 43t95 63q43 -15 86 -35q7 -1 50 -28q3 12 5 13q6 15 15 34q-27 9 -66 24q-24 9 -32 11q-6 3 -28 10q79 97 117 210q-19 -1 -33 -2q-24 -3 -32 -3h-136q34 75 39 79q13 21 36 33q-21 9 -41 21l-16 11q-4 -18 -22 -60q-18 -40 -40 -84l-142 4q-4 1 -7 1
v-46q9 0 18 2l115 3q-16 -37 -28 -60q-10 -19 -28 -46q-4 -4 -7 -10q-7 -9 -13 -20l121 -36l28 -9q-97 -78 -218 -90q18 -15 37 -43q12 6 25 10zM239 564q7 15 16 29h162q-37 -87 -101 -155q-15 6 -28 11l-93 32q7 12 16 27q13 28 28 56zM757 -18q-54 -6 -66 -6l-553 1
q-9 1 -17 1q-6 0 -16 4v-47q9 0 18 2l117 3l486 -1q7 0 16 -2q3 0 15 -2v47zM740 296l-56 -4l-436 1q-12 1 -21 2q-3 0 -11 2v-46q7 0 17 2q24 0 48 3h422l-17 -160h-376q9 87 12 92q0 15 20 38q-28 6 -57 10q1 -15 0 -44q0 -4 -1 -9q-6 -34 -10 -71q0 -7 -13 -57
q60 4 107 5h483l-14 -131q-6 -45 -27 -55q-27 -12 -56 -10l-66 6q-3 0 -24 5q6 -12 11 -21q3 -12 9 -33q15 0 31 2q93 1 124 20q27 18 36 78q12 132 16 141q3 18 6 39q-55 -4 -84 -5h-86l14 142q0 19 9 59q-6 0 -10 -1zM539 312q43 24 90 54q52 36 72 53q78 -66 170 -103
l57 -22q18 27 36 44q-141 25 -235 105q105 108 160 239q-60 -4 -82 -5l-283 1q-15 1 -23 4v-46q27 4 49 5h4q24 -64 56 -115q31 -48 62 -81q-43 -34 -89 -59q-42 -22 -86 -32q15 -10 29 -28q6 -7 13 -14zM830 641q-27 -54 -56 -93q-30 -39 -73 -78q-37 42 -68 89
q-25 42 -37 82h234z" />
  </g>

</svg>
