<?xml version="1.0" standalone="no"?>
<!DOCTYPE svg PUBLIC "-//W3C//DTD SVG 1.1//EN" "http://www.w3.org/Graphics/SVG/1.1/DTD/svg11.dtd" >
<svg xmlns="http://www.w3.org/2000/svg" xmlns:xlink="http://www.w3.org/1999/xlink" version="1.1" viewBox="-10 0 1034 1024">
  <g transform="matrix(1 0 0 -1 0 820)">
   <path fill="currentColor"
d="M348 150q-61 -27 -133 -54q-81 -27 -133 -38q15 -30 23 -51q24 13 51 24l113 43q37 13 76 27zM871 561l-18 -542q-3 -88 -18 -109q-21 -22 -89 -23q-24 0 -66 4q12 -19 26 -54l53 5q6 0 12 2q70 9 96 43q10 18 17 42q3 30 6 80l8 259q9 256 10 269l4 65q-30 -1 -62 -5
h-266l3 6q1 6 5 11l15 36l24 46q13 31 39 41q-31 12 -61 27q-13 -45 -49 -127q-25 -60 -47 -102q-21 -39 -48 -83q-24 -34 -49 -59q27 -4 48 -16q25 39 47 76q22 40 57 108h303zM533 408q1 -30 5 -61l-1 -195l-4 -40q49 4 75 5l109 -1q18 0 46 -4q-4 52 -5 98l1 154l4 44
q-30 -1 -62 -5q-105 0 -132 2q-6 3 -36 3zM572 153v214h149v-214h-149zM160 671q-52 3 -62 5v-46q49 4 62 5h199l-35 -354h-140l18 217q3 36 18 63q-18 0 -36 4q-7 0 -15 3q0 -42 -3 -61l-20 -235q-3 -1 -5 -27v-6l65 6h207l-23 -271q-4 -45 -17 -62q-21 -19 -69 -20
q-25 0 -56 6q12 -36 18 -53q57 3 99 15q51 18 59 102q21 264 24 288q0 9 4 17l3 19q-31 -1 -64 -5h-32l32 322q1 27 12 73q-66 -4 -100 -5h-143z" />
  </g>

</svg>
