<?xml version="1.0" standalone="no"?>
<!DOCTYPE svg PUBLIC "-//W3C//DTD SVG 1.1//EN" "http://www.w3.org/Graphics/SVG/1.1/DTD/svg11.dtd" >
<svg xmlns="http://www.w3.org/2000/svg" xmlns:xlink="http://www.w3.org/1999/xlink" version="1.1" viewBox="-10 0 1010 1000">
   <path fill="currentColor"
d="M538 -2q101 26 109 36q0 2 -8 9q-21 19 -28 33q-12 23 -34 69q-8 17 -12 26v569q0 114 6 157h-83q6 -29 6 -164v-425q-3 1 -77 131q-9 -8 -23 -21q-31 -30 -45 -35q143 -175 189 -385zM782 8q101 6 101 10q0 1 -3 6q-19 32 -19 89v129h20q45 0 81 -5v75q-24 -2 -81 -2
h-20v478q15 94 -153 103q-8 -64 -41 -101q128 30 119 -44v-436h-90q-56 0 -95 8v-80q41 4 91 4h94v-132q0 -66 -4 -102zM677 375q47 100 71 203l-81 20q-21 -110 -58 -197zM292 604l-8 73q-171 25 -234 50l-18 -84q150 -11 260 -39zM367 38q-1 10 -5 29q-6 36 -9 70
q-1 19 -6 80q-13 167 -16 232q53 0 76 -6q-12 276 -22 333q-1 106 -181 115q-8 -45 -43 -89q130 24 145 -44q13 -97 17 -248h-127q-53 -1 -95 14q10 -66 10 -127v-133q0 -87 -6 -105q100 0 103 6q0 1 -2 4q-16 26 -16 69v213h68l20 -349h-115q-72 0 -101 10v-74q65 4 105 4
h73q67 -1 127 -4z" />
</svg>
