<?xml version="1.0" standalone="no"?>
<!DOCTYPE svg PUBLIC "-//W3C//DTD SVG 1.1//EN" "http://www.w3.org/Graphics/SVG/1.1/DTD/svg11.dtd" >
<svg xmlns="http://www.w3.org/2000/svg" xmlns:xlink="http://www.w3.org/1999/xlink" version="1.1" viewBox="-10 0 1034 1024">
  <g transform="matrix(1 0 0 -1 0 820)">
   <path fill="currentColor"
d="M75 36q51 24 173 65q39 12 87 30q0 25 2 51q-27 -15 -54 -26q-30 -12 -76 -26q-54 -18 -92 -28q-31 -9 -60 -14q4 -9 7 -15q-1 3 6 -17q3 -9 7 -20zM397 712q-75 -3 -106 -4l-197 5v-46q49 4 65 5h200l-40 -365h-149l25 225q4 39 19 65q-6 0 -55 6q-1 -21 -2 -61
l-22 -207q-3 -36 -10 -69q31 3 65 5h223l-29 -278q-4 -46 -25 -62t-61 -17q-24 0 -69 8l20 -54q67 4 103 12q28 9 43 25q10 15 17 33q6 19 11 67l26 252q3 27 9 55q-66 -4 -81 -5h-18q37 354 42 373q0 1 7 33q-6 0 -11 -1zM506 -63q-3 -51 -3 -56q-1 -6 -2 -9h48
q-6 30 -6 59v39h344q-3 -84 -5 -93q-1 0 -1 -3h49q0 3 -1 8l-4 54l1 735l4 42q-55 -4 -82 -5l-303 1q-19 3 -44 4q1 -30 5 -61v-715zM543 6v666h97l-2 -277q-6 -82 -20 -129q-15 -42 -37 -78q-13 -21 -35 -48q27 -6 46 -19q30 51 46 87q15 33 24 72t13 87q3 54 3 135v170h70
v-422q0 -36 12 -51q10 -13 50 -17q37 -3 77 -3v-173h-344zM887 219q-82 0 -94 12q-6 9 -7 35v406h101v-453z" />
  </g>

</svg>
