<?xml version="1.0" standalone="no"?>
<!DOCTYPE svg PUBLIC "-//W3C//DTD SVG 1.1//EN" "http://www.w3.org/Graphics/SVG/1.1/DTD/svg11.dtd" >
<svg xmlns="http://www.w3.org/2000/svg" xmlns:xlink="http://www.w3.org/1999/xlink" version="1.1" viewBox="-10 0 1034 1024">
  <g transform="matrix(1 0 0 -1 0 820)">
   <path fill="currentColor"
d="M59 65q12 -30 19 -57q45 22 128 48l73 21q24 7 59 14q1 24 5 48q-58 -21 -125 -41q-60 -16 -97 -24q-27 -6 -62 -9zM345 694l-232 1q-3 1 -42 5v-48q45 7 63 7h225l-20 -230q-6 -81 -15 -145h-154l19 234q3 42 21 67q-19 0 -62 9q4 -42 5 -71q-1 -7 -2 -27
q-12 -157 -22 -237q-1 -6 -3 -16l61 6h234l-21 -296l-3 -9q-9 -36 -39 -46q-28 -9 -61 -9q-21 0 -48 6q10 -21 16 -49q7 1 16 1q129 9 147 65q6 21 9 46q0 3 9 113q12 171 16 191q1 13 4 28q-60 -6 -84 -6h-20l5 73l21 212l9 82q3 24 8 49zM469 500v-11q0 -12 -5 -58h48
q-3 10 -4 31q0 18 -2 36v89h373v-83q0 -24 -3 -54q0 -3 -2 -15h47q-6 55 -5 90q0 39 3 80q0 12 2 23q-51 -4 -76 -5h-118q1 3 4 7q4 7 24 22l-81 95l-22 22q-19 -19 -40 -32q25 -15 61 -56q28 -36 41 -58l-205 1q-24 3 -45 4q4 -99 5 -102v-26zM623 372q0 9 2 25q0 15 12 40
h-58q6 -54 6 -65l1 -444q3 -24 15 -36q24 -19 66 -25q4 0 27 -3h64q67 0 95 6q48 12 72 45q7 12 14 26l27 73q-22 4 -51 21q-7 -61 -24 -89q-15 -25 -40 -36q-27 -7 -92 -8q-90 0 -119 14q-16 12 -17 48v211q33 16 106 59q102 57 116 62q22 10 53 22q-19 18 -22 21
q-4 4 -20 23q-42 -33 -85 -60q-34 -21 -68 -41l-80 -45v156z" />
  </g>

</svg>
