<?xml version="1.0" standalone="no"?>
<!DOCTYPE svg PUBLIC "-//W3C//DTD SVG 1.1//EN" "http://www.w3.org/Graphics/SVG/1.1/DTD/svg11.dtd" >
<svg xmlns="http://www.w3.org/2000/svg" xmlns:xlink="http://www.w3.org/1999/xlink" version="1.1" viewBox="-10 0 1010 1000">
   <path fill="currentColor"
d="M619 -6q14 4 41 11q80 19 76 25q0 3 -9 9q-25 18 -40 45q-8 14 -23 41q-81 148 -120 197l269 -20q-26 -47 -87 -113l80 -38q82 118 152 236l-83 38q-12 -42 -30 -65q-327 29 -383 45q-11 -54 -31 -89q43 -5 81 -60q61 -101 107 -262zM54 54q53 8 127 8h87q84 0 117 -4
q-9 74 -28 288q-7 90 -10 117q21 0 59 -3q27 -2 42 -3q-11 78 -20 210q-8 157 -29 173q-51 50 -163 63q-9 -67 -36 -103q79 15 115 -6q34 -12 39 -216q2 -34 3 -52q-115 2 -264 14q15 -196 16 -365q8 1 23 3q75 10 74 13q1 1 -3 6q-15 21 -18 49q-9 87 -12 221q18 0 80 -2
h21q4 -69 14 -195q7 -96 10 -137h-110q-11 0 -33 1q-66 2 -101 7v-87zM877 477q-2 11 -3 33q-1 17 -1 64v230l4 97h-87q2 -13 3 -35q1 -17 1 -66h-209q0 59 4 97h-87q4 -46 4 -99v-220q0 -41 -1 -59q-1 -22 -3 -42q24 2 54 3q15 1 32 1h45h113q81 -1 131 -4zM794 548h-209
v185h209v-185zM313 612q-9 31 -11 77q-158 12 -246 36q-4 -48 -12 -88q128 -1 269 -25z" />
</svg>
