<?xml version="1.0" standalone="no"?>
<!DOCTYPE svg PUBLIC "-//W3C//DTD SVG 1.1//EN" "http://www.w3.org/Graphics/SVG/1.1/DTD/svg11.dtd" >
<svg xmlns="http://www.w3.org/2000/svg" xmlns:xlink="http://www.w3.org/1999/xlink" version="1.1" viewBox="-10 0 1034 1024">
  <g transform="matrix(1 0 0 -1 0 820)">
   <path fill="currentColor"
d="M287 108l35 10l6 49q-40 -15 -132 -40q-54 -15 -90 -23q-28 -4 -58 -8q6 -27 10 -53q64 21 91 27q49 15 138 38zM506 292q0 -36 -5 -65h48q-1 4 -2 7l-4 58v332l29 53l19 30q10 15 34 25l-54 36q-24 -54 -43 -91q-18 -33 -48 -78q-33 -49 -61 -85q-25 -28 -53 -54
q9 -6 15 -8q12 -6 29 -23q36 46 56 77q18 24 40 57v-271zM700 130v24q0 36 12 68h-56q1 -10 6 -65v-27l-211 3l-9 3v-47q49 6 76 5h144q0 -229 -3 -245q0 -3 -3 -11h50q0 3 -6 60v196h198q28 0 52 -3q1 0 14 -2v47q-18 -1 -35 -5zM587 385q43 25 94 61v-119q0 -48 25 -66
q21 -16 114 -17q61 0 92 24q24 21 42 83q3 15 8 29q-27 12 -30 14q-9 6 -17 15q-1 -39 -7 -63q-12 -42 -36 -54q-19 -6 -59 -7q-42 0 -60 3q-16 3 -25 11q-9 9 -9 35v143q51 36 85 67q30 30 88 77q21 19 41 25q3 1 8 2l-45 47q-13 -18 -27 -32q-28 -30 -101 -98l-49 -38v160
q0 39 13 67h-57q4 -24 5 -43l1 -212q-63 -49 -132 -75q13 -12 27 -27q4 -6 11 -12zM132 691q-57 3 -66 5v-45q48 6 66 6h190l-26 -361h-136l19 238q1 42 26 66q-31 4 -63 8v-70q-16 -228 -18 -246q-3 -1 -6 -29q-1 -3 -1 -8q36 3 75 5h202l-17 -257q-1 -36 -4 -54
q-3 -15 -13 -26q-16 -16 -73 -17q-33 0 -67 6q4 -12 10 -24q4 -15 7 -30q52 3 78 6q81 9 93 68l6 69l17 229q3 24 11 71q-31 -1 -64 -5h-44l26 335q0 27 10 65q-33 -1 -66 -5h-172z" />
  </g>

</svg>
