<?xml version="1.0" standalone="no"?>
<!DOCTYPE svg PUBLIC "-//W3C//DTD SVG 1.1//EN" "http://www.w3.org/Graphics/SVG/1.1/DTD/svg11.dtd" >
<svg xmlns="http://www.w3.org/2000/svg" xmlns:xlink="http://www.w3.org/1999/xlink" version="1.1" viewBox="-10 0 1010 1000">
   <path fill="currentColor"
d="M125 20q30 4 93 4h143q69 0 97 -4q-4 28 -4 80v81q0 39 3 80q1 6 1 9q-31 -4 -93 -4h-143q-59 0 -97 4q4 -21 4 -87v-75q0 -53 -4 -88zM534 26q24 3 97 4h145q79 0 99 -4q-4 18 -4 74v85q0 68 4 87q-31 -4 -89 -4h-161q-72 1 -91 4q4 -22 4 -85v-83q0 -12 -1 -31
q-1 -43 -3 -47zM204 92v107h175v-107h-175zM613 98v103h183v-103h-183zM161 322q1 0 8 1q45 9 103 9h373q37 0 97 -6q9 -1 14 -2q-9 18 -22 83l-20 133h68q70 0 95 -6q-6 56 -11 156q-6 97 -11 128q-7 46 -41 61q-24 15 -137 26q-3 -50 -40 -97q103 18 129 -14
q18 -33 20 -184h-562q22 -96 28 -175q86 7 95 14q2 4 -5 12q-12 13 -15 27q-1 4 -4 19q-7 28 -8 35h320l18 -143h-381q-80 1 -111 10v-87zM69 693q23 7 129 8h334q107 -1 139 -10v91q-39 -9 -139 -10h-336q-76 2 -127 8v-87z" />
</svg>
