<?xml version="1.0" standalone="no"?>
<!DOCTYPE svg PUBLIC "-//W3C//DTD SVG 1.1//EN" "http://www.w3.org/Graphics/SVG/1.1/DTD/svg11.dtd" >
<svg xmlns="http://www.w3.org/2000/svg" xmlns:xlink="http://www.w3.org/1999/xlink" version="1.1" viewBox="-10 0 1034 1024">
  <g transform="matrix(1 0 0 -1 0 820)">
   <path fill="currentColor"
d="M498 625q-10 -106 -25 -125q-18 -21 -60 -21q-18 0 -49 6q12 -21 17 -52q85 6 112 32q25 27 37 113l7 52q3 15 5 35q-51 -4 -77 -5h-123q9 73 12 76q3 15 20 32h-65q3 -6 3 -31q-1 -9 -2 -26q0 -21 -6 -51h-128q-9 0 -27 2q-18 0 -34 3v-45q42 6 69 5h109
q-21 -72 -72 -128q-60 -60 -137 -79q21 -13 42 -38q90 54 134 103q42 51 74 142h164zM121 -11q39 6 61 6l545 -1q21 0 38 -5v46q-24 -4 -64 -5h-519q-37 0 -61 5v-46zM284 374q-27 1 -53 3q-3 0 -7 2v-45q7 3 32 4l464 1q-13 -127 -16 -156q0 -12 -2 -26h-360q3 28 8 55
q3 34 22 57l-31 6q-9 1 -31 10q3 -48 4 -66q-9 -63 -18 -102q39 4 56 5h501q-4 -70 -10 -110q-3 -30 -10 -49q-16 -49 -106 -50q-33 0 -69 7q9 -25 14 -54q9 1 19 1q109 4 147 33q36 28 44 115l10 94l7 53q-66 -4 -78 -5h-82q0 15 4 32l9 95l10 80q1 6 3 15q-49 -4 -63 -5
h-418zM611 653q1 -27 2 -88l-3 -102q0 -13 -2 -24q49 4 73 5q162 0 178 -2q16 0 38 -3q-4 24 -5 65q0 127 2 141q0 19 3 39q-33 -1 -65 -5l-177 1q-15 3 -47 4zM649 478v166h206v-166h-206z" />
  </g>

</svg>
