<?xml version="1.0" standalone="no"?>
<!DOCTYPE svg PUBLIC "-//W3C//DTD SVG 1.1//EN" "http://www.w3.org/Graphics/SVG/1.1/DTD/svg11.dtd" >
<svg xmlns="http://www.w3.org/2000/svg" xmlns:xlink="http://www.w3.org/1999/xlink" version="1.1" viewBox="-10 0 1010 1000">
   <path fill="currentColor"
d="M268 -8q18 3 43 7q51 7 44 11q0 4 -5 13q-12 22 -17 55h76q76 -6 109 -6q-11 131 -28 208q-8 71 -151 85q-7 -55 -29 -85q79 15 103 -18q15 -37 22 -119h-114q-35 177 -206 246q-19 -34 -63 -65q181 -48 198 -179h-48q-49 0 -107 6v-81q43 8 109 8h58q6 -42 6 -86z
M899 52q-4 42 -4 73v117q1 67 6 102q-15 -6 -89 -6h-145q-48 0 -63 1q-20 1 -27 3q5 -30 6 -82v-117q0 -71 -4 -89q6 0 33 1q36 2 61 3h125q80 -3 101 -6zM823 125h-164v145h164v-145zM177 383q32 6 146 6h292l173 -6q-10 13 -22 76l-22 115h40q71 -2 109 -8q-3 28 -9 80
q-12 126 -23 178q-2 70 -167 79q-6 -55 -35 -89q99 12 119 -20q16 -49 22 -153h-435q-28 0 -123 6q16 -64 22 -159q30 4 73 6q22 0 22 2q0 4 -4 10q-15 22 -22 68h330l24 -117h-366q-109 2 -144 8v-82zM95 709q15 1 95 5q44 2 70 3h250q0 -1 57 -3q122 -3 137 -7v83
q-34 -6 -192 -6h-254q-108 3 -163 8v-83z" />
</svg>
