<?xml version="1.0" standalone="no"?>
<!DOCTYPE svg PUBLIC "-//W3C//DTD SVG 1.1//EN" "http://www.w3.org/Graphics/SVG/1.1/DTD/svg11.dtd" >
<svg xmlns="http://www.w3.org/2000/svg" xmlns:xlink="http://www.w3.org/1999/xlink" version="1.1" viewBox="-10 0 1034 1024">
  <g transform="matrix(1 0 0 -1 0 820)">
   <path fill="currentColor"
d="M371 152q-34 -12 -70 -21q-42 -10 -123 -28q-90 -19 -137 -28q7 -18 18 -48l67 20l128 30q49 10 74 17q18 4 38 11q1 24 5 47zM839 608q-19 -12 -41 -23q22 -33 49 -74q24 -42 44 -78q-33 -3 -37 -4q-12 0 -252 -12q-15 0 -30 -1l31 48q39 63 70 117q66 111 71 118
q12 18 36 29q-12 4 -24 11q-21 9 -38 20q-15 -40 -32 -74q-21 -40 -61 -110q-57 -97 -79 -126q-19 -24 -51 -41q10 -21 16 -38q1 -4 3 -9q49 12 94 16l303 21q1 -3 3 -4q16 -33 28 -50l2 -3q0 -3 5 -10q16 16 38 25q-9 16 -21 34zM566 -85q-4 -57 -5 -61q-1 0 -1 -3h50
q-6 30 -6 60v21h266q-1 -33 -3 -66q-1 -3 -1 -6q-1 -1 -1 -5h49q0 3 -2 7q-3 6 -3 43l-1 301l6 65q-54 -4 -64 -5l-243 1q-19 3 -47 4q6 -60 6 -84v-272zM604 -32v262h266v-262h-266zM129 694q-49 3 -66 6v-47l66 6h242l-29 -354h-184l20 208q3 36 19 64q-12 0 -55 7
l-10 -156q-12 -127 -16 -151q-1 -6 -2 -13q51 4 82 5h240l-18 -279q0 -15 -5 -40q-3 -18 -19 -29q-24 -15 -75 -16q-30 0 -76 8q12 -25 21 -55q78 3 115 9q30 6 49 21q25 24 31 107q15 279 20 308q0 4 1 7q-66 -4 -98 -5q24 327 26 328q0 7 12 67q-18 -1 -33 -2
q-22 -3 -36 -4h-222z" />
  </g>

</svg>
