<?xml version="1.0" standalone="no"?>
<!DOCTYPE svg PUBLIC "-//W3C//DTD SVG 1.1//EN" "http://www.w3.org/Graphics/SVG/1.1/DTD/svg11.dtd" >
<svg xmlns="http://www.w3.org/2000/svg" xmlns:xlink="http://www.w3.org/1999/xlink" version="1.1" viewBox="-10 0 1010 1000">
   <path fill="currentColor"
d="M621 -17q0 1 -1 4q-16 39 -3 126l167 -31q53 -12 109 -30l16 77q-39 1 -97 16l-177 38q15 60 44 105q99 -70 136 -117q80 52 78 64q-3 3 -12 4q-22 4 -42 17l-72 52q-42 31 -43 32q79 59 115 57q24 -11 28 -83q33 30 85 42q-34 123 -81 127q-96 -1 -214 -108
q-86 42 -215 102q-21 -45 -69 -78q107 -12 240 -77q-43 -72 -51 -125l-64 12q-51 10 -93 28l-20 -84q24 0 76 -8q6 -1 9 -2l76 -14q-6 -30 -15 -76q-9 -56 -15 -66q105 -11 105 -4zM268 600v77q-118 9 -220 38l-10 -90q97 2 230 -25zM357 840q180 -76 175 -256h-24
q-69 0 -101 4v-78q45 6 107 6h307q80 0 104 -6v80q-30 -6 -98 -6h-71v182q-1 29 9 34q7 7 47 6q39 1 51 -18q12 -15 16 -77q32 22 85 41q-22 91 -45 103q-21 21 -107 20q-98 1 -115 -11q-22 -8 -20 -60v-220h-68q-6 234 -204 325q-14 -30 -48 -69zM48 58q29 6 95 6h103
q75 -1 119 -4q-3 19 -9 55q-6 37 -9 56l-28 292q39 0 76 -4q-3 28 -10 88q-25 205 -28 251q1 84 -165 107q-5 -51 -41 -95q38 9 82 -1q35 -8 41 -29q18 -83 32 -250h-119q-66 0 -108 12q12 -54 18 -107l10 -149q3 -55 0 -85q97 10 95 14q0 2 -3 7q-17 27 -20 66l-12 175h77
l36 -332h-155q-48 0 -77 10v-83z" />
</svg>
