<?xml version="1.0" standalone="no"?>
<!DOCTYPE svg PUBLIC "-//W3C//DTD SVG 1.1//EN" "http://www.w3.org/Graphics/SVG/1.1/DTD/svg11.dtd" >
<svg xmlns="http://www.w3.org/2000/svg" xmlns:xlink="http://www.w3.org/1999/xlink" version="1.1" viewBox="-10 0 1034 1024">
  <g transform="matrix(1 0 0 -1 0 820)">
   <path fill="currentColor"
d="M269 61l28 8q0 25 7 49q-135 -51 -257 -63q7 -27 13 -58q39 18 88 31zM120 688q-7 0 -62 5v-47q19 4 44 5l207 1q-1 -7 -11 -127l-15 -149l-11 -109h-132l19 237q6 45 23 69q-15 0 -27 3l-39 10q6 -72 7 -80q-1 -31 -6 -78l-10 -125q-3 -40 -11 -77q28 3 59 5h210
q-6 -63 -10 -155q-9 -120 -14 -149q-3 -10 -7 -18q-15 -18 -63 -19q-19 0 -56 7q12 -30 18 -53q37 3 75 11q61 12 70 65q9 87 16 196q6 108 9 113q1 21 9 43q-99 -4 -103 -5l44 426q-33 -1 -65 -5h-168zM680 737q-43 15 -63 26q-6 -30 -21 -63q-42 -88 -89 -156
q-55 -78 -89 -111t-83 -57q30 -15 47 -33q46 30 121 127q33 43 59 84q27 43 64 111q127 -171 306 -284q27 27 50 41q-201 78 -331 283q6 12 18 21q4 6 11 11zM482 -87l-45 3q-1 0 -4 1l-13 2v-48q45 6 62 7l395 -1q27 0 45 -4q1 0 6 -2v48q-19 -6 -69 -6h-103q9 27 23 58
q1 6 5 12q10 24 20 49q3 12 54 126q13 34 19 39q9 18 27 36q-21 9 -33 16q-6 3 -21 13q-6 -24 -25 -74l-74 -183l-40 -92h-229zM455 193q18 -24 31 -43q12 -21 27 -54q19 -45 27 -88q15 7 20 9q10 4 28 10l-44 96l-45 93q-24 -15 -44 -23zM485 346q24 3 27 4q18 0 36 2
l248 -1q24 0 40 -5v47q-21 -4 -68 -5h-220q-9 0 -28 2q-18 0 -35 3v-47zM649 275q-13 -9 -44 -17q48 -75 73 -194q9 3 16 6q15 6 30 10q-16 54 -33 99q-16 42 -42 96v0z" />
  </g>

</svg>
