<?xml version="1.0" standalone="no"?>
<!DOCTYPE svg PUBLIC "-//W3C//DTD SVG 1.1//EN" "http://www.w3.org/Graphics/SVG/1.1/DTD/svg11.dtd" >
<svg xmlns="http://www.w3.org/2000/svg" xmlns:xlink="http://www.w3.org/1999/xlink" version="1.1" viewBox="-10 0 1010 1000">
   <path fill="currentColor"
d="M375 48q62 4 117 4h341q72 0 113 -6v81q-18 -2 -44 -3q-13 -1 -29 -1h-42h-337q-85 0 -119 6v-81zM669 193q41 6 95 6h51q28 0 90 -6q10 -1 16 -2q-8 32 -8 113v494q2 38 -22 53q-23 18 -95 30q1 -45 -28 -81q86 15 81 -30v-143l-47 10q-23 -142 -64 -254v355q0 71 8 133
v4h-79q0 -5 1 -17q7 -77 7 -133v-417q0 -73 -6 -115zM738 258v111l46 -6q31 78 65 221v-326h-111zM242 590l-8 65q-148 25 -176 40l-8 -82q113 -4 192 -23zM391 199q47 4 87 4h54q43 0 97 -6q-2 18 -3 46q-1 13 -1 31v48v476q14 65 -113 81q1 -41 -26 -79q81 15 76 -30v-141
l-44 10q-23 -146 -62 -252v351q0 100 4 137h-73q8 -55 8 -138v-427q0 -75 -4 -111zM456 262v111l44 -6q36 103 62 219v-324h-106zM323 44q-1 7 -3 19q-6 39 -8 80q-1 12 -3 48q-14 182 -17 260l69 -6q-17 317 -22 327q0 106 -160 113q-5 -43 -40 -87q117 24 131 -44
q12 -97 16 -242h-111q-48 0 -88 12q8 -55 8 -125v-131q0 -85 -4 -103q86 1 92 6q0 4 -4 10q-12 22 -12 61v211h59l18 -345h-103q-43 0 -57 1q-19 0 -32 3v-68q15 3 32 3q13 1 61 1h65q60 -1 113 -4z" />
</svg>
