<?xml version="1.0" standalone="no"?>
<!DOCTYPE svg PUBLIC "-//W3C//DTD SVG 1.1//EN" "http://www.w3.org/Graphics/SVG/1.1/DTD/svg11.dtd" >
<svg xmlns="http://www.w3.org/2000/svg" xmlns:xlink="http://www.w3.org/1999/xlink" version="1.1" viewBox="-10 0 1010 1000">
   <path fill="currentColor"
d="M607 0q104 14 105 28q0 7 -8 14q-6 7 -8 12q73 155 276 242q-39 31 -59 81q-211 -112 -254 -289q-59 142 -232 315q-35 -35 -70 -55q182 -123 250 -348zM772 443q105 20 107 36q0 6 -12 19q-14 16 -16 26q-5 15 -14 44q-45 144 -77 230h24q88 0 127 -6v75q-42 -5 -127 -5
h-221q-105 1 -148 5v-77q69 6 147 8h123q70 -166 87 -355zM663 449q28 130 33 234l-81 10q-2 -124 -32 -234zM512 467q39 106 61 256l-81 14q-10 -154 -50 -254zM278 625l-2 74q-124 28 -214 45l-16 -89q88 -7 232 -30zM339 477q24 -4 66 -4q-1 19 -3 56q-10 284 -35 313
q-26 42 -136 59q-19 2 -29 4q-10 -55 -39 -95q106 18 135 -22q25 -35 31 -248q-17 1 -55 3q-109 7 -183 13q7 -60 10 -163q4 -118 0 -176q100 4 99 18q0 4 -5 13q-10 19 -12 40q-14 148 -14 199q10 1 51 -2q36 -2 48 -2q14 -215 24 -330q-150 2 -242 14v-93q51 5 111 5
q54 0 218 -3q-14 122 -33 330q-6 69 -7 71zM510 322q39 3 115 4h50q83 -1 133 -4v75q-38 -7 -129 -8h-52q-77 0 -117 4v-71z" />
</svg>
