<?xml version="1.0" standalone="no"?>
<!DOCTYPE svg PUBLIC "-//W3C//DTD SVG 1.1//EN" "http://www.w3.org/Graphics/SVG/1.1/DTD/svg11.dtd" >
<svg xmlns="http://www.w3.org/2000/svg" xmlns:xlink="http://www.w3.org/1999/xlink" version="1.1" viewBox="-10 0 1010 1000">
   <path fill="currentColor"
d="M601 -10q59 0 76 1q22 1 23 3q1 3 -3 10q-16 22 -16 62h87q73 0 115 -6v73q-28 -7 -113 -6h-87v52h121q88 0 134 -6v71q-39 -6 -124 -6h-8h-123v118q84 -47 134 -110q79 60 72 64q0 4 -11 5q-14 2 -21 7q-6 4 -17 12q-150 126 -465 158q-16 -50 -50 -77q133 8 282 -38
v-139h-135q-54 0 -77 1q-28 1 -52 5v-71q36 6 105 6q0 -75 -8 -131q69 -2 90 8q0 2 -2 8q-12 40 -12 115h91v-81v-6q1 -73 -6 -102zM81 40q39 6 119 6h56q73 0 121 -6q-15 28 -59 118q-17 34 -26 53q65 54 65 113q0 83 -141 109q-4 -44 -39 -85q106 14 99 -38
q-7 -45 -70 -85q48 -88 58 -115h-101v244q0 83 6 131h-86q4 -28 5 -56q1 -13 1 -30v-43v-207q0 -74 -8 -109zM478 246q3 1 10 4q74 29 70 36q0 1 -6 4q-20 8 -34 22l-20 20q-34 32 -65 63q-31 -28 -70 -37q69 -44 115 -112zM752 492q-27 96 -40 161q22 -1 61 -4q68 -3 96 -6
q-15 123 -26 187q-1 83 -155 93q-1 -39 -37 -81q104 13 113 -40q7 -25 15 -80q1 -7 1 -11h-415q-91 0 -145 6q23 -88 24 -141q80 -3 87 6q1 2 -3 9q-13 25 -18 60h327l24 -89h-351q-88 0 -135 6v-72q52 6 135 6h303q90 0 139 -10zM530 828h-312q-97 0 -145 6v-78q48 6 141 6
h318q57 0 82 -1q30 -1 51 -5v78q-45 -6 -135 -6z" />
</svg>
