<?xml version="1.0" standalone="no"?>
<!DOCTYPE svg PUBLIC "-//W3C//DTD SVG 1.1//EN" "http://www.w3.org/Graphics/SVG/1.1/DTD/svg11.dtd" >
<svg xmlns="http://www.w3.org/2000/svg" xmlns:xlink="http://www.w3.org/1999/xlink" version="1.1" viewBox="-10 0 1010 1000">
   <path fill="currentColor"
d="M645 -13q79 15 97 25q0 2 -8 8q-17 15 -26 28q-17 24 -41 65h182q57 0 97 -5v71q-26 -4 -81 -4h-16q-36 106 -103 175q103 54 212 53q-34 31 -55 85q-145 -42 -213 -97q-61 36 -184 72q-16 -42 -62 -72q98 -8 191 -51q-19 -29 -70 -109l66 -26q20 55 61 99
q52 -46 82 -131h-145q-21 24 -36 42q-20 -19 -65 -28q73 -72 117 -200zM510 40v72q-24 -11 -121 93h163q-35 88 -50 139l-81 -12q24 -45 39 -72h-71v135q2 40 -24 53q-27 15 -105 19q0 -39 -28 -86q94 35 91 -14v-99q-75 88 -238 187q-12 -29 -57 -62q145 -57 220 -133h-93
q-71 0 -93 6v-69q42 8 93 8h101q-35 -37 -69 -56l59 -34q44 29 79 70q36 -36 78 -83h-199q-59 0 -105 8v-72q46 8 113 8h193q69 0 105 -6zM661 812q-21 -1 -49 -2h-30h-44h-314q-90 0 -125 6v-76h4q45 6 117 6h320q58 0 121 -6v72zM746 481q-24 36 -46 152h100q47 -1 89 -4
q-9 30 -22 95q-12 61 -20 94q-9 46 -41 59q-26 14 -143 24q2 -37 -32 -79q130 15 139 -34q1 -7 4 -20q11 -50 16 -79h-64h-393q-83 0 -115 6q20 -64 20 -135q90 5 97 14q0 3 -5 10q-17 21 -24 49h315l22 -93h-320q-96 0 -133 8v-67q38 4 135 4h292q39 0 90 -3q28 -1 39 -1z
" />
</svg>
