<?xml version="1.0" standalone="no"?>
<!DOCTYPE svg PUBLIC "-//W3C//DTD SVG 1.1//EN" "http://www.w3.org/Graphics/SVG/1.1/DTD/svg11.dtd" >
<svg xmlns="http://www.w3.org/2000/svg" xmlns:xlink="http://www.w3.org/1999/xlink" version="1.1" viewBox="-10 0 1010 1000">
   <path fill="currentColor"
d="M899 18q-6 35 -6 105v187q0 57 6 105q-39 -6 -111 -6h-80v78h137q65 0 99 -6v75q-35 -9 -99 -6h-79q64 159 204 216q-48 44 -61 80q-132 -93 -201 -294v218q0 84 6 131h-81q7 -45 6 -125v-8v-216q-64 141 -204 302l-7 -7q-37 -38 -55 -47q-18 46 -181 77q-4 -67 -41 -111
q93 21 126 1q33 -17 36 -94q0 -45 6 -169h-117h-19q-59 -1 -88 6q12 -58 12 -162q0 -126 -6 -167q87 0 93 10q1 3 -1 15q-15 74 -16 237h95l10 -331h-127q-71 0 -109 3v-77q32 6 109 6h101q52 0 107 -8q-8 35 -8 103l-10 304q43 0 58 -6q-4 42 -11 159q-6 119 -11 180
q127 -83 188 -226h-35q-57 -3 -109 6v-75q43 6 107 6h107v-78h-64q-75 -1 -117 6q4 -35 4 -105v-191q0 -74 -4 -101q51 6 151 6h177q74 0 113 -6zM534 88v103h105v-103h-105zM821 88h-113v101h113v-101zM534 250v96h105v-96h-105zM821 248h-113v98h113v-98zM276 584
q-13 43 -8 77q-103 8 -224 46q-2 -36 -14 -86q113 -5 246 -37z" />
</svg>
