<?xml version="1.0" standalone="no"?>
<!DOCTYPE svg PUBLIC "-//W3C//DTD SVG 1.1//EN" "http://www.w3.org/Graphics/SVG/1.1/DTD/svg11.dtd" >
<svg xmlns="http://www.w3.org/2000/svg" xmlns:xlink="http://www.w3.org/1999/xlink" version="1.1" viewBox="-10 0 1034 1024">
  <g transform="matrix(1 0 0 -1 0 820)">
   <path fill="currentColor"
d="M54 64q7 -16 15 -45q91 36 106 40l159 51q1 21 5 42q-61 -22 -145 -49q-81 -24 -140 -39zM365 713q-21 -3 -29 -3h-207q-39 0 -46 3q-6 0 -14 2v-45q3 3 45 5h229l-51 -376h-153l32 225q6 42 28 61q-30 4 -64 13q0 -30 -3 -64q-3 -42 -13 -114q-9 -78 -29 -161q28 3 59 5
h236l-29 -331l-2 -6q-4 -19 -25 -29q-25 -7 -61 -8q-18 0 -26 1q-9 0 -28 4q13 -27 20 -51q69 4 105 13q51 18 58 93q21 265 25 290q1 18 5 37q1 13 4 27q-30 -1 -61 -5h-38l31 241q7 43 14 91l6 38q4 19 10 46q-15 0 -28 -2zM667 -102q0 -36 -5 -55h48q-4 49 -5 55v328
q16 -36 48 -89q24 -39 52 -75q25 -31 59 -65l71 -69q12 12 30 25q1 4 21 17q-64 21 -133 93q-73 81 -115 175l183 -1l30 -4v45q-45 -4 -63 -5h-183v100h116q9 0 32 -3q15 0 29 -3q-3 30 -5 61l1 249q0 18 4 43q-30 -1 -62 -5l-300 1q-15 3 -42 4q1 -30 5 -60l-1 -248
q-3 -12 -4 -45q60 6 77 6h112v-100l-209 3q-1 0 -5 1q-3 1 -5 1v-45q49 4 76 5h103q-58 -114 -112 -179q-60 -70 -114 -97l6 -4q1 0 4 -2q9 -6 17 -9q15 -6 18 -9q3 0 8 -5q75 79 121 142q46 66 92 156v-333zM520 407v111h147v-111h-147zM520 553v127h147v-127h-147z
M705 553v127h134v-127h-134zM705 407v111h134v-111h-134z" />
  </g>

</svg>
