<?xml version="1.0" standalone="no"?>
<!DOCTYPE svg PUBLIC "-//W3C//DTD SVG 1.1//EN" "http://www.w3.org/Graphics/SVG/1.1/DTD/svg11.dtd" >
<svg xmlns="http://www.w3.org/2000/svg" xmlns:xlink="http://www.w3.org/1999/xlink" version="1.1" viewBox="-10 0 1034 1024">
  <g transform="matrix(1 0 0 -1 0 820)">
   <path fill="currentColor"
d="M98 337q-3 -33 -3 -52q0 -3 -4 -10h49q-6 30 -6 60v342h157q-12 -21 -28 -40q-16 -21 -48 -57q33 -24 54 -46q37 -39 38 -74q0 -51 -70 -52q-24 0 -53 8q9 -18 18 -49q70 4 102 18q42 21 43 73q0 42 -42 88q-18 16 -40 39q48 61 99 131q-66 -4 -101 -5l-134 1l-38 4
q6 -48 7 -68v-311zM98 -46q6 1 17 2q27 1 38 3l496 1q42 0 66 -6v44l-35 -4h-549l-33 4v-44zM463 577q-106 3 -116 5v-44q15 3 40 3l140 2h113v-159l-77 -28q-97 -21 -168 -23l-38 1q15 -18 27 -44q141 9 278 64q39 15 71 32q31 16 73 45q45 27 56 32q12 6 37 9q-9 4 -47 42
q-28 -25 -71 -54q-58 -39 -103 -60v143l225 -1q6 0 43 -4v44q-6 0 -10 -2q-27 0 -56 -3h-217v82q198 -3 204 -5q1 0 5 -1v45q-7 0 -56 -7q-6 1 -10 0h-143v1q0 36 13 65h-57q3 -12 3 -16q1 -27 3 -49v-115h-125v54q0 36 13 64h-56q4 -24 5 -42zM557 483q-30 27 -35 32
q-60 -61 -129 -98q22 -18 34 -31q18 12 32 23q18 13 24 20q42 39 82 48zM740 267q-34 -1 -70 -5l-434 1q-12 1 -21 2q-1 0 -12 2v-44q49 4 66 5h419l-22 -121h-367q4 19 10 37q6 25 33 43l-62 14l-24 -111q-6 -18 -7 -23q33 3 69 5h505l-16 -93q-10 -63 -47 -75
q-22 -7 -61 -8q-24 0 -61 9q12 -21 22 -52q120 6 153 37q22 19 37 94q4 34 11 69l10 59q-66 -4 -101 -5h-65l20 104q6 27 8 38q3 9 7 18v0z" />
  </g>

</svg>
