<?xml version="1.0" standalone="no"?>
<!DOCTYPE svg PUBLIC "-//W3C//DTD SVG 1.1//EN" "http://www.w3.org/Graphics/SVG/1.1/DTD/svg11.dtd" >
<svg xmlns="http://www.w3.org/2000/svg" xmlns:xlink="http://www.w3.org/1999/xlink" version="1.1" viewBox="-10 0 1010 1000">
   <path fill="currentColor"
d="M532 -12q3 1 10 3q94 30 89 35q-1 4 -9 16q-33 46 -74 125h303q60 0 97 -6v76q-22 -4 -77 -3q-14 1 -20 1h-95v113q97 0 153 -8v81q-36 -8 -153 -8v115q30 1 66 -3q44 -4 89 -5v80q-36 -6 -155 -6v131h87q80 0 109 -6v79q-23 -6 -107 -6h-289q-3 73 6 115h-82
q7 -32 6 -111v-16v-504q-5 8 -15 22q-38 60 -62 87q-31 -41 -52 -55q110 -106 175 -342zM742 -10q37 64 68 137l-90 30q-7 -56 -59 -133zM688 235h-132v115h132v-115zM688 413h-132v117h132v-117zM688 594h-132v131h132v-131zM300 596q-8 38 -8 75q-112 16 -232 48
q-2 -22 -22 -88q159 -8 262 -35zM339 449q46 -2 90 -12q-7 28 -15 153q-4 69 -7 111q-3 104 -36 128q-34 34 -153 48q-9 -59 -35 -99q90 9 110 -3q25 -10 30 -64q9 -82 14 -201q-178 11 -242 22q13 -61 18 -184q3 -118 -2 -173q101 3 99 12q1 3 -3 13q-17 41 -20 106
l-10 153l89 -6l14 -332l-117 4q-77 1 -111 6v-81q30 4 150 4q128 0 167 -6q-10 30 -27 340q-2 44 -3 61z" />
</svg>
