<?xml version="1.0" standalone="no"?>
<!DOCTYPE svg PUBLIC "-//W3C//DTD SVG 1.1//EN" "http://www.w3.org/Graphics/SVG/1.1/DTD/svg11.dtd" >
<svg xmlns="http://www.w3.org/2000/svg" xmlns:xlink="http://www.w3.org/1999/xlink" version="1.1" viewBox="-10 0 1010 1000">
   <path fill="currentColor"
d="M665 10v70q-7 -5 -36 -4v246q8 -4 32 -8q-1 3 -2 9q-6 25 -6 40q62 -37 101 -95q-19 -15 -65 -41q-17 -11 -26 -16l6 -6q22 -21 37 -44q55 40 82 56q21 -44 37 -102q-98 0 -150 12v-73q29 3 101 4h24h29q33 0 80 -10q-11 88 -68 206q68 51 125 100q-36 17 -57 53
q-34 -45 -99 -99q-50 64 -96 105q-35 -36 -63 -42l-20 4q-1 47 4 60q-39 -3 -72 4q0 -6 1 -21q1 -20 1 -31q-10 2 -32 6q-127 22 -168 34q-3 -32 -24 -69q13 2 39 -1q6 -1 9 -1v-276q-35 -1 -44 4v-72q67 4 171 4q72 0 96 -1q30 -1 53 -5zM323 30q-1 8 -3 22q-6 40 -8 79
q-1 14 -4 57q-13 180 -16 255l67 -6q-13 308 -20 333q0 106 -158 115q-5 -43 -38 -89q114 24 127 -44q12 -99 16 -246h-109q-47 0 -86 12q8 -56 8 -127v-133q0 -96 -4 -105q36 0 90 6q0 4 -4 12q-12 25 -12 62v212h59l18 -349h-101q-64 0 -89 10v-76q44 6 93 6h63
q59 0 111 -6zM565 78h-115v61h115v-61zM450 183v59h115v-59h-115zM565 286h-115v64l115 -14v-50zM841 405q60 71 58 89q-2 2 -15 1q-74 -7 -192 9q14 49 50 106q55 -36 105 -92q70 47 70 62q-1 3 -13 7q-56 16 -130 66q85 77 188 105q-41 33 -67 78q-194 -105 -222 -272v188
q0 79 1 101q2 29 7 50h-84q15 -68 12 -200v-187q-66 6 -190 18q-17 -51 -36 -71q274 8 458 -58zM508 538q71 53 59 50q-22 11 -81 65q-45 41 -65 56q0 -1 -1 -2q-17 -22 -49 -40q76 -39 137 -129zM238 588q2 22 10 71q-125 35 -186 66q0 -46 -16 -88q86 -7 192 -49zM605 699
q-21 10 -110 93q-52 48 -84 77q-23 -24 -66 -43q123 -66 199 -181q2 2 7 6q36 30 54 48z" />
</svg>
