<?xml version="1.0" standalone="no"?>
<!DOCTYPE svg PUBLIC "-//W3C//DTD SVG 1.1//EN" "http://www.w3.org/Graphics/SVG/1.1/DTD/svg11.dtd" >
<svg xmlns="http://www.w3.org/2000/svg" xmlns:xlink="http://www.w3.org/1999/xlink" version="1.1" viewBox="-10 0 1034 1024">
  <g transform="matrix(1 0 0 -1 0 820)">
   <path fill="currentColor"
d="M418 420q-3 -39 -17 -53q-15 -12 -44 -13q-16 0 -47 4q7 -9 12 -18q4 -9 12 -26q42 1 69 10q24 10 35 28q10 18 20 65q3 18 8 41q-55 -4 -86 -5h-93q3 12 4 24l2 13q171 0 200 -3q3 0 13 -2v43l-36 -4l-126 -1v42q111 0 122 -3q3 0 8 -2v43q-4 0 -7 -1q-3 0 -4 -1
q-40 0 -81 -3h-38v40h89q25 0 50 -3q3 0 16 -2v43q-39 -1 -78 -5h-77v18q0 36 13 64h-57q3 -12 3 -17q3 -54 3 -65l-154 3q-4 1 -7 2v-43q7 0 17 2l106 3h38v-40l-120 4q-3 1 -7 1v-43q6 1 17 2q48 3 93 3h17v-42h-148q-25 1 -49 2q-6 0 -16 3v-43q54 6 84 5h76
q-4 -93 -100 -137q-48 -19 -98 -27q22 -16 39 -43q136 51 186 137h138zM708 -8q-7 -1 -14 -3l-83 -2l-490 3q-3 1 -7 2v-44q30 4 66 5l519 -3q4 0 9 -2v44zM519 332q81 27 189 98q39 -30 96 -62q22 -12 44 -22l77 -30q4 7 11 15q12 15 31 29q-40 3 -93 23q-79 27 -140 74
q63 69 104 154q64 0 90 -4q1 0 5 -1v45q-48 -6 -65 -6h-232q3 10 8 21q18 51 46 64q-39 15 -60 27q-12 -60 -37 -114q-39 -79 -84 -109q30 -12 43 -23q24 28 38 50q12 21 29 50h172q-27 -75 -85 -129l-13 13q-39 39 -47 73q-21 -12 -45 -23q36 -51 77 -89q-108 -72 -197 -79
q16 -12 29 -31q4 -6 9 -14zM290 292q-54 3 -66 5v-44q1 0 4 1q-1 0 13 2q24 0 49 2h439l-30 -159h-382l9 74q6 30 29 52q-33 7 -64 13q-1 -15 -2 -52q-6 -34 -11 -70q-3 -27 -13 -56q34 3 70 5h505q-9 -40 -16 -82q-6 -30 -15 -50q-9 -16 -32 -25q-24 -7 -56 -8q-15 0 -65 7
q18 -24 24 -51q42 1 68 5q51 6 78 29q19 21 37 84q15 82 24 113q1 7 5 18q-21 -1 -37 -3q-25 -3 -33 -3h-84q18 102 34 171q0 3 2 7q3 9 7 20q-24 -1 -37 -2q-18 -1 -33 -3h-421z" />
  </g>

</svg>
