<?xml version="1.0" standalone="no"?>
<!DOCTYPE svg PUBLIC "-//W3C//DTD SVG 1.1//EN" "http://www.w3.org/Graphics/SVG/1.1/DTD/svg11.dtd" >
<svg xmlns="http://www.w3.org/2000/svg" xmlns:xlink="http://www.w3.org/1999/xlink" version="1.1" viewBox="-10 0 1034 1024">
  <g transform="matrix(1 0 0 -1 0 820)">
   <path fill="currentColor"
d="M328 139q0 4 3 29q-16 -7 -41 -16q-27 -9 -73 -21l-110 -28q-30 -6 -62 -9q9 -24 15 -44q0 -3 2 -11q45 19 69 26l198 61q-1 7 -1 13zM142 700l-59 4q-3 1 -6 1v-46q31 3 65 5h195l-6 -63l-38 -303h-142l29 215q1 9 3 21q6 31 28 60l-61 9q-1 -40 -5 -74q-3 -36 -11 -94
l-16 -115q-4 -31 -13 -63q13 1 29 2l33 3h209l-32 -288q-3 -30 -12 -43q-12 -13 -33 -19q-18 -3 -47 -4q-22 0 -51 5q9 -21 15 -53q69 4 98 13q57 19 66 84l3 39l30 254l4 26q3 12 5 27h-9q-18 -1 -16 -2q-27 -3 -51 -3h-18l30 231l15 104q3 30 5 32q3 16 8 40
q-30 -1 -60 -5h-184zM482 3q15 49 19 52q4 9 19 25q-30 7 -53 18q-6 -48 -27 -106q-21 -60 -43 -84q18 -4 45 -17q7 18 15 39q12 37 25 73zM758 483q-9 -12 -18 -25q-15 -24 -27 -37q-9 -12 -21 -24l-57 46q-6 -6 -27 -29l55 -44q-27 -22 -65 -45q-33 -15 -58 -20l38 -38
q60 36 117 79l35 -30q13 -12 32 -31q9 12 17 20q6 6 13 15l-70 55q34 42 57 77q21 31 42 72l-31 -3q-15 0 -30 -2h-106q16 30 26 39q6 6 28 19q-30 12 -54 28q-12 -36 -42 -82q-43 -63 -81 -82q27 -16 43 -30q21 24 55 72h129zM836 200q27 0 63 -5q-3 30 -5 61l1 356l4 48
l-59 -6h-208q15 27 37 60q9 12 33 23q-30 15 -58 32q-6 -25 -16 -46q-12 -27 -37 -69q-69 0 -85 2l-39 4q1 -33 5 -66l-1 -357q-1 0 -4 -39v-3q30 3 61 5h308zM856 619v-383h-347v383h347zM803 -15q0 -48 -22 -69q-24 -19 -93 -20q-39 0 -69 7q-28 7 -29 42v112q0 13 2 30
q0 18 11 38h-56q1 -33 5 -68l1 -140q3 -19 18 -34q12 -10 37 -18q30 -6 83 -6q51 0 75 5q37 9 61 47q10 22 25 68q-30 10 -49 23v-17zM734 38q6 7 25 21l-85 114q-3 3 -7 10q-13 -12 -31 -25q24 -30 50 -64q27 -39 40 -63q3 4 8 7zM865 102q-12 -10 -21 -17q0 -1 -3 -3
q-3 -3 -7 -5q70 -82 107 -152q15 15 35 27q-16 24 -98 133q-7 9 -13 17v0z" />
  </g>

</svg>
