<?xml version="1.0" standalone="no"?>
<!DOCTYPE svg PUBLIC "-//W3C//DTD SVG 1.1//EN" "http://www.w3.org/Graphics/SVG/1.1/DTD/svg11.dtd" >
<svg xmlns="http://www.w3.org/2000/svg" xmlns:xlink="http://www.w3.org/1999/xlink" version="1.1" viewBox="-10 0 1010 1000">
   <path fill="currentColor"
d="M575 165q87 4 84 8q0 3 -3 7q-9 13 -9 39h65q67 0 94 -6v63l-78 -6h-81v48h85q41 0 56 -1q18 0 31 -3v63q-12 -6 -95 -8h-77v50h188q69 -1 90 -4v64q-28 -5 -92 -4h-143q97 65 272 83q-37 30 -61 81q-91 -23 -197 -91q-2 6 -8 39q-8 47 -15 78h77q44 0 87 -6
q-5 28 -15 104q-7 61 -11 81q-1 61 -148 79q-8 -42 -38 -95q40 17 77 7q31 -10 38 -43q9 -48 8 -67h-383q-51 0 -71 1q-25 1 -42 3q1 -3 3 -10q22 -80 27 -115q10 1 29 2q59 5 56 9q0 3 -6 9q-15 18 -20 41h260l20 -79h-244q-38 0 -80 3q-5 1 -7 1v-34q-105 65 -201 105
q-12 -28 -63 -69q196 -39 266 -117h-123q-45 0 -64 1q-23 1 -38 3v-66q42 6 106 6h162v-50h-73q-59 0 -93 6v-61q46 4 87 4h79v-48h-73q-39 0 -52 1q-16 0 -31 3v-61q15 6 85 6h71q0 -6 -1 -21q-1 -20 -1 -31q8 0 23 1q58 2 55 7q0 2 -3 6q-9 14 -9 38h174q0 -24 -5 -46
q-1 -6 -1 -8zM583 270h-176v48h176v-48zM407 369v50h176v-50h-176zM621 475h-236q-19 22 -54 51q21 3 66 4h182q61 0 94 -6q-46 -38 -52 -49zM538 -27q8 30 26 91q5 15 7 22h217q86 0 129 -6q-8 27 -8 57v30q-1 57 4 71h-96q8 -29 8 -87h-496h-156q0 45 1 63q1 22 3 36h-94
q6 -24 6 -65v-42q0 -39 -4 -65q38 9 111 8h282q-17 -39 -45 -92zM621 838q-4 0 -19 -1q-48 -3 -94 -3h-272q-82 0 -125 4v-70q36 3 119 4h272q74 0 119 -6v72z" />
</svg>
