<?xml version="1.0" standalone="no"?>
<!DOCTYPE svg PUBLIC "-//W3C//DTD SVG 1.1//EN" "http://www.w3.org/Graphics/SVG/1.1/DTD/svg11.dtd" >
<svg xmlns="http://www.w3.org/2000/svg" xmlns:xlink="http://www.w3.org/1999/xlink" version="1.1" viewBox="-10 0 1010 1000">
   <path fill="currentColor"
d="M679 -23q1 7 3 27q5 37 8 62h135q41 0 62 -1q25 -1 51 -5v73q-37 -6 -115 -6h-351q-86 0 -125 6v-73q48 6 125 6h139q-11 -52 -28 -83zM34 58q35 4 135 4q104 0 144 -6q-3 11 -7 69q-3 34 -4 48l-18 272q47 -3 59 -6q-6 59 -18 325q110 -38 203 -131h-50q-71 -1 -121 8
v-73q54 6 145 6v-48q-46 0 -64 1q-23 1 -37 3v-63q20 0 75 3q17 1 26 1v-48q-84 0 -127 6v-67q44 5 127 5v-51q-56 0 -77 1q-26 1 -42 3q12 -85 0 -155q36 4 116 4q79 0 106 -4q-4 19 -4 71q0 53 4 82q-11 -3 -38 -2v51h123v-53q-20 0 -33 2q12 -83 0 -151q41 4 116 4
t108 -4q-4 20 -4 73q0 52 4 80q-11 -2 -38 -3q-13 -1 -32 -1h-55v53h52q80 1 113 -5v69q-35 -9 -113 -8h-52v48q69 0 123 -6v67q-48 -6 -123 -6v50q145 0 186 -6v71q-38 -6 -117 -6h-154q17 58 53 94q12 -11 29 -26q34 -27 53 -62q11 8 31 21q48 30 44 35q0 2 -10 8
q-42 22 -99 65q82 35 182 44q-43 43 -59 87q-257 -77 -286 -268q-2 2 -10 9q-27 25 -41 41q-2 26 -4 77q-1 29 -2 40q20 -13 75 -62q3 -2 4 -3q2 37 20 77q-107 65 -151 109q-1 -1 -10 -15q-25 -37 -38 -52q39 -22 36 -48v-64q-20 21 -86 63q-24 15 -37 23q-18 -29 -40 -48
q2 49 -28 69q-28 22 -118 38q-3 -31 -40 -91q85 8 98 -6q20 -9 21 -75l8 -207l-105 2h-7q-58 -1 -87 6q9 -76 13 -161q3 -79 3 -188q69 4 84 14q1 1 -2 13q-13 41 -16 86l-10 169l79 -2l18 -318h-99h-9q-63 -1 -94 6v-77zM817 221h-93v41h93v-41zM450 221v43h90v-43h-90z
M567 423v48h123v-48h-123zM567 526v50h123v-50h-123zM234 590q-12 37 -6 75q-6 1 -18 5q-127 30 -172 55q-5 -54 -14 -88q115 -10 210 -47z" />
</svg>
