<?xml version="1.0" standalone="no"?>
<!DOCTYPE svg PUBLIC "-//W3C//DTD SVG 1.1//EN" "http://www.w3.org/Graphics/SVG/1.1/DTD/svg11.dtd" >
<svg xmlns="http://www.w3.org/2000/svg" xmlns:xlink="http://www.w3.org/1999/xlink" version="1.1" viewBox="-10 0 1010 1000">
   <path fill="currentColor"
d="M851 2q74 82 62 86q-3 3 -19 1q-27 -3 -47 -1q-5 1 -23 3q-55 8 -70 9l6 248q97 0 159 -8v75q-69 -9 -155 -6q24 245 99 349q12 0 20 -97q29 48 75 74q-42 133 -79 136q-144 -56 -183 -462h-109v304q10 -8 43 -44q23 -25 37 -40q4 23 23 70q-84 69 -156 168
q-17 -37 -46 -67q18 -19 23 -40q5 -22 5 -77v-480q0 -87 -6 -143q188 -8 341 -58zM685 106l-98 9v235h105zM714 746q16 25 54 117l-81 16q-13 -70 -46 -115zM85 22q52 8 109 8h135q60 3 115 -8q-8 28 -7 107v169q33 0 55 -4q-6 20 -6 64q0 42 6 57h-71q-6 34 -6 105v302
q1 29 -21 40q-15 11 -96 29q5 -46 -30 -83q49 5 62 0q14 -4 13 -24v-77h-170v95q0 65 4 89h-80q4 -33 4 -91v-272q0 -74 -6 -101h-65q4 -34 4 -67q0 -44 -4 -66q27 4 65 4v-179q1 -70 -10 -97zM365 94h-198v59h55q61 0 91 -4q0 9 -1 25q-2 31 -2 63v61h55v-204zM343 467
h-170v69h170v-69zM343 588h-170v67h170v-67zM242 213h-75v85h75v-85zM413 354h-306q0 20 4 47q36 6 107 6h90q80 0 99 -6q6 -17 6 -47z" />
</svg>
