<?xml version="1.0" standalone="no"?>
<!DOCTYPE svg PUBLIC "-//W3C//DTD SVG 1.1//EN" "http://www.w3.org/Graphics/SVG/1.1/DTD/svg11.dtd" >
<svg xmlns="http://www.w3.org/2000/svg" xmlns:xlink="http://www.w3.org/1999/xlink" version="1.1" viewBox="-10 0 1034 1024">
  <g transform="matrix(1 0 0 -1 0 820)">
   <path fill="currentColor"
d="M52 387q0 -27 -3 -45q0 -4 -2 -10h47q-4 45 -5 73v35h331q-1 -42 -6 -58h49q-6 51 -5 68q0 12 4 20q0 6 1 11q-21 -1 -42 -5h-25l1 228q0 12 3 19q0 10 1 19q-51 -6 -64 -6l-173 1q-6 1 -36 5h-4q1 -27 5 -54v-212q-40 3 -82 5q1 -24 5 -50v-44zM255 573v-97h-89v97h89z
M166 609v92h192v-225h-65q0 99 2 108q0 15 3 30q-90 -4 -92 -5h-40zM953 339q15 15 35 20q-25 9 -71 43q-58 48 -117 135q-61 93 -91 189q3 4 10 11q6 6 17 9q-45 16 -65 27q-19 -105 -96 -243q-76 -126 -146 -183q27 -6 49 -15q69 90 119 167q42 69 89 177q39 -97 111 -200
q48 -66 141 -150q7 7 15 13zM129 -89q0 -30 -3 -46q0 -4 -2 -10h47q-4 45 -5 66v141h189v-108q0 -37 -22 -44q-15 -3 -32 -4q-16 0 -40 5q10 -21 20 -51q36 4 74 14q37 12 38 70l1 384l4 42q-36 -6 -56 -6l-180 1q-18 3 -38 5q1 -30 5 -61v-398zM166 98v95h189v-95h-189z
M166 229v100h189v-100h-189zM616 323q0 12 1 18q0 13 13 31q-9 0 -26 2q-12 0 -35 6q6 -36 7 -80l-6 -145q-12 -142 -76 -210q-33 -33 -81 -57l44 -29q51 42 75 70q22 28 46 77q18 45 24 86l6 70q1 78 8 161zM823 -143q0 6 -2 12q-3 7 -4 36l1 435q0 10 5 23q1 10 9 21h-58
q3 -31 4 -38q1 -15 2 -23l-1 -437l-5 -29h49z" />
  </g>

</svg>
