<?xml version="1.0" standalone="no"?>
<!DOCTYPE svg PUBLIC "-//W3C//DTD SVG 1.1//EN" "http://www.w3.org/Graphics/SVG/1.1/DTD/svg11.dtd" >
<svg xmlns="http://www.w3.org/2000/svg" xmlns:xlink="http://www.w3.org/1999/xlink" version="1.1" viewBox="-10 0 1010 1000">
   <path fill="currentColor"
d="M663 -8q113 10 105 22q1 6 -5 18q-8 17 -7 30q38 169 214 260q-31 26 -55 87q-175 -133 -201 -329q-30 86 -152 311q-1 -2 -4 -11q-19 -53 -38 -76q117 -137 143 -312zM395 106h-203v67h64q35 0 81 -8q-6 24 -6 143h64v-202zM270 229h-78v79h78v-79zM760 367q90 4 93 14
q1 5 -4 14q-10 20 -10 48v280q0 101 8 154h-91q-1 0 1 -14q11 -77 11 -150v-268q0 -31 -8 -78zM196 479v73h179v-73h-30h-149zM196 600v73h179v-73h-179zM512 360q0 39 4 57h-76q0 -3 1 -13q3 -27 3 -44h-319q0 51 2 69h-73q4 -25 4 -66q0 -48 -4 -63q22 6 73 6v-165
q0 -57 -6 -105q24 6 91 6h161q40 0 95 -8q-10 35 -10 101v171q31 0 58 -6q-5 11 -4 60zM323 895q-5 -53 -35 -81q92 11 87 -26v-67h-179q0 77 1 108q1 37 3 60h-79q13 -28 12 -166v-233q0 -21 1 -45q0 -19 -1 -24q33 6 107 6h131q43 0 71 -5q4 -1 6 -1q-6 18 -6 81v318
q12 64 -119 75zM585 367q90 -1 88 12q0 6 -5 16q-9 17 -9 32q3 342 -135 462q-35 -37 -74 -53q82 -51 112 -157q15 -53 20 -127q6 -72 3 -185z" />
</svg>
