<?xml version="1.0" standalone="no"?>
<!DOCTYPE svg PUBLIC "-//W3C//DTD SVG 1.1//EN" "http://www.w3.org/Graphics/SVG/1.1/DTD/svg11.dtd" >
<svg xmlns="http://www.w3.org/2000/svg" xmlns:xlink="http://www.w3.org/1999/xlink" version="1.1" viewBox="-10 0 1010 1000">
   <path fill="currentColor"
d="M639 -2l97 14q1 1 -3 5q-23 25 -35 75h114q59 0 95 -6q-6 39 -6 109v200q0 75 8 109q-28 -4 -103 -4v133h43q58 0 97 -8v82q-41 -8 -140 -8q0 186 6 200h-86q4 -18 5 -55q1 -40 1 -145h-188q-68 0 -98 6v-80q33 6 92 6q44 -50 83 -131q-71 0 -113 6q6 -33 8 -56
q2 -27 2 -77v-198q0 -51 -8 -87q30 6 117 6q14 -51 12 -96zM679 155h-94v115h90q4 -77 4 -115zM833 155h-83l-6 115h89v-115zM669 330h-84v107h58q17 -43 26 -107zM833 330h-95q-5 26 -17 70q-6 25 -9 37h121v-107zM734 500h-42q-20 53 -71 135h113v-135zM95 30q49 8 105 8
h131q59 3 111 -8q-7 35 -7 107v167q33 0 55 -4q-6 20 -6 62t6 57h-69q-6 33 -6 103v298q1 29 -20 40q-16 11 -95 29q5 -45 -28 -83q48 5 60 0q14 -4 13 -24v-75h-166v89q0 67 4 93h-78q4 -33 4 -91v-268q0 -72 -6 -99h-63q4 -34 4 -68q0 -41 -4 -63q26 4 63 4v-177
q1 -68 -8 -97zM363 102h-188v59h53q56 0 89 -4q0 8 -1 23q-3 31 -3 62v62h50v-202zM246 221h-71v83h71v-83zM413 360h-298q0 18 4 45q35 6 105 6h88q76 0 95 -6q6 -17 6 -45zM345 467h-166v69h166v-69zM345 588h-166v67h166v-67z" />
</svg>
