<?xml version="1.0" standalone="no"?>
<!DOCTYPE svg PUBLIC "-//W3C//DTD SVG 1.1//EN" "http://www.w3.org/Graphics/SVG/1.1/DTD/svg11.dtd" >
<svg xmlns="http://www.w3.org/2000/svg" xmlns:xlink="http://www.w3.org/1999/xlink" version="1.1" viewBox="-10 0 1034 1024">
  <g transform="matrix(1 0 0 -1 0 820)">
   <path fill="currentColor"
d="M739 93l-296 2q-6 3 -13 3v-46q49 4 59 5h250v-153q0 -30 -6 -56h49q0 6 -2 12q-3 55 -4 85v112l163 -1l38 -4v46q-12 -3 -27 -3l-63 -2h-111v79q0 10 3 24q1 19 12 36h-58q6 -60 6 -81v-58zM841 264q28 -1 58 -5q-4 49 -5 79l1 292l4 42q-49 -4 -58 -5h-183q31 58 41 71
q12 15 29 23l-24 6q-10 3 -34 14q-10 -28 -22 -54q-12 -27 -31 -60h-53q-6 0 -28 3q-13 0 -30 2q4 -94 5 -98l-1 -273q-3 -12 -4 -42q46 4 93 5h31q-49 -91 -128 -123q25 -15 45 -30q42 39 70 72q21 27 56 81h168zM548 478v153h140l-2 -153h-138zM548 300v145h133
q-10 -78 -34 -145h-99zM687 300q21 75 33 145h136v-145h-169zM724 478l3 153h129v-153h-132zM53 374q0 -36 -5 -56h47q-4 45 -5 69v33h334l-3 -89q-1 -3 -2 -8h48q-3 21 -5 44q0 54 2 63q0 15 3 32q-12 -1 -23 -3q-18 -3 -46 -3l1 226l4 43q-55 -4 -66 -5l-171 1q-6 1 -13 2
q-12 0 -28 2q1 -18 2 -30q3 -21 3 -28v-211q-37 0 -49 2q-3 1 -14 2q-6 0 -19 2q4 -79 5 -85v-3zM166 456v108h88v-108h-88zM166 598v86h194v-228h-69l1 106l4 41q-24 -1 -50 -5h-80zM133 -92q0 -39 -5 -56h47q-3 21 -5 44v156h180l-1 -123q-1 -12 -8 -16q-13 -6 -29 -7
q-18 0 -48 5q3 -10 8 -21q9 -27 9 -29q63 4 86 15q21 12 21 50l1 386l4 40q-25 -1 -51 -5l-178 1q-3 0 -36 4q1 -27 5 -54v-390zM170 216v95h180v-95h-180zM170 88v92h180v-92h-180z" />
  </g>

</svg>
