<?xml version="1.0" standalone="no"?>
<!DOCTYPE svg PUBLIC "-//W3C//DTD SVG 1.1//EN" "http://www.w3.org/Graphics/SVG/1.1/DTD/svg11.dtd" >
<svg xmlns="http://www.w3.org/2000/svg" xmlns:xlink="http://www.w3.org/1999/xlink" version="1.1" viewBox="-10 0 1034 1024">
  <g transform="matrix(1 0 0 -1 0 820)">
   <path fill="currentColor"
d="M123 730q1 -30 5 -60v-204q-27 1 -55 3q-13 1 -20 2q1 -28 5 -58q0 -39 -5 -84h48q-3 16 -5 34v67h331l-4 -89q0 -1 -1 -4h49q-6 24 -6 40l4 77q0 6 2 17q-27 -1 -55 -5h-20l1 219q1 22 5 45q-30 -1 -60 -5l-177 1q-19 3 -42 4zM165 466v93h88v-93h-88zM165 595v94h193
v-223h-68l5 134q-66 -4 -98 -5h-32zM126 359q1 -28 5 -59l-1 -418q-1 -10 -2 -26q0 -4 -2 -9h48q-4 49 -5 70v143h188v-127q0 -18 -14 -26q-12 -6 -37 -7q-9 0 -47 5q12 -25 19 -50q57 4 77 13q39 18 40 62l1 389l4 40q-28 -1 -58 -5l-171 1q-15 3 -45 4zM169 96v89h188v-89
h-188zM169 221v98h188v-98h-188zM678 428q-72 -64 -143 -103q-66 -30 -110 -33q22 -27 35 -49q9 4 19 11q19 10 41 19q58 33 61 33q10 6 58 39q31 24 67 54q61 -46 114 -80q55 -31 114 -57q9 9 15 18q9 12 26 26q-108 15 -243 121q42 54 80 108q34 57 70 126l-60 -6h-197
q6 12 14 24q18 33 29 42q3 3 20 16q-27 15 -54 29q-21 -60 -69 -138q-39 -61 -63 -87q-22 -24 -55 -39q19 -7 30 -16q10 -6 22 -14q69 96 84 113q12 16 24 35h209q-30 -54 -54 -92q-24 -36 -56 -72q-18 16 -40 46q-27 36 -36 66q-22 -15 -41 -26l37 -51q48 -57 52 -63z
M890 243q-28 -1 -58 -5l-276 1q-15 3 -45 4q4 -60 5 -76l-1 -275q-3 -15 -4 -45h48q-6 21 -5 85h293q0 -39 -5 -81h48q-3 21 -5 42l1 308q0 21 4 42zM554 -32v234h293v-234h-293z" />
  </g>

</svg>
