<?xml version="1.0" standalone="no"?>
<!DOCTYPE svg PUBLIC "-//W3C//DTD SVG 1.1//EN" "http://www.w3.org/Graphics/SVG/1.1/DTD/svg11.dtd" >
<svg xmlns="http://www.w3.org/2000/svg" xmlns:xlink="http://www.w3.org/1999/xlink" version="1.1" viewBox="-10 0 1034 1024">
  <g transform="matrix(1 0 0 -1 0 820)">
   <path fill="currentColor"
d="M62 385q-3 -30 -3 -51q0 -6 -3 -12h49q-1 4 -1 7q-3 7 -4 36v52h325q-1 -37 -3 -77q0 -3 -2 -11h48q-6 42 -5 73q1 27 5 56q-25 -1 -52 -5h-16l1 227l4 48q-27 -1 -55 -5l-209 3q-10 1 -21 2q6 -63 7 -65v-210q-10 0 -71 5q6 -57 6 -73zM162 589v98h201v-234h-73l5 141
q-51 -4 -79 -5h-54zM162 453v100h91v-100h-91zM133 -104q-3 -51 -5 -63h48q-3 7 -4 33l-1 186h184v-131q0 -24 -13 -30q-15 -4 -32 -5q-24 0 -57 6q12 -25 19 -51q25 0 42 4q40 4 62 20q18 15 18 49l1 384l4 46q-28 -1 -57 -5l-171 1l-43 4q1 -33 5 -67v-381zM171 88v83h184
v-83h-184zM171 207v96h184v-96h-184zM504 -78q19 18 41 36l45 46q31 30 63 42q-24 18 -47 39q-12 -21 -21 -32l-90 -89q-54 -48 -92 -59q25 -18 41 -36q10 12 60 53zM541 446q3 -24 4 -39v-256h-25q-43 0 -64 5v-46q15 3 31 4l422 1q27 0 55 -3l2 -1q1 0 5 -1v46
q-15 -3 -22 -4l-155 -1v164q103 0 116 -3q4 0 9 -2q1 0 4 -1v47q-6 -3 -12 -4q-12 0 -52 -2h-277v90q75 6 163 18q66 10 112 13h26q-18 24 -31 54q-31 -15 -84 -26q-93 -21 -184 -21q-16 0 -46 2zM757 151h-175v164h175v-164zM474 542q0 -22 -3 -52q0 -6 -2 -10h48
q0 4 -2 10q-1 12 -3 52v48h408l-3 -96q0 -3 -2 -12h48q-3 7 -4 33l-1 53q1 31 5 63q-28 -1 -58 -5l-394 1q-19 3 -42 4q1 -30 5 -63v-26zM631 765q-10 -18 -26 -34q22 -15 61 -44q28 -22 42 -34q4 -3 20 -23q15 21 25 28l7 7zM743 43q37 -27 99 -87q34 -33 49 -50
q16 -18 34 -42q13 21 35 38q-28 24 -92 85l-95 87q-12 -13 -30 -31v0z" />
  </g>

</svg>
