<?xml version="1.0" standalone="no"?>
<!DOCTYPE svg PUBLIC "-//W3C//DTD SVG 1.1//EN" "http://www.w3.org/Graphics/SVG/1.1/DTD/svg11.dtd" >
<svg xmlns="http://www.w3.org/2000/svg" xmlns:xlink="http://www.w3.org/1999/xlink" version="1.1" viewBox="-10 0 1034 1024">
  <g transform="matrix(1 0 0 -1 0 820)">
   <path fill="currentColor"
d="M640 506q-57 -82 -128 -145q-21 -18 -35 -27q-9 -6 -32 -17q24 -12 28 -16q6 -3 14 -11q99 82 181 192v-145q0 -39 -5 -56h48q-4 45 -5 65v126q49 -51 93 -90q48 -37 122 -89l42 42q-46 9 -118 59q-55 42 -122 112l185 -1l39 -4v46q-37 -1 -75 -5h-166v164q0 6 2 24
q1 19 12 36h-57q4 -42 5 -71v-153l-203 4q-3 0 -7 1v-46h6q7 3 33 4zM646 271q-18 -42 -44 -87l-156 2q-6 3 -13 3v-46q3 0 5 1q7 3 33 4l110 1q-24 -42 -43 -68q-15 -22 -36 -48q88 -21 174 -55q-46 -33 -97 -57q-67 -30 -144 -36q21 -22 32 -45q151 46 252 125
q66 -28 111 -52q43 -24 93 -56q6 6 17 22q3 1 5 4q3 3 9 10l-90 48q-42 19 -118 52q46 58 88 156q57 0 121 -3q4 0 11 -3v46q-10 -1 -15 -3q-30 0 -48 -2h-256q22 37 30 45q6 9 26 18q-10 3 -21 8q-10 4 -14 5q-3 1 -6 3q-9 4 -16 8zM623 149h167q-36 -91 -84 -142l-142 49z
M582 654l-63 79q-13 -13 -27 -22q63 -76 98 -133q9 9 31 20q-1 3 -4 6q-4 4 -35 50zM795 594q27 36 68 80q15 18 40 24q-18 12 -49 36q-51 -85 -112 -143q18 -9 32 -19q10 12 21 22zM53 427q3 -51 4 -81q-1 -22 -5 -38h47q-4 45 -5 69v26h319q0 -51 -3 -67q0 -6 -3 -11h50
q-3 7 -4 25q-1 13 -2 54q0 10 6 40q-43 -4 -65 -5l1 238l4 45q-55 -4 -66 -5q-151 0 -175 2l-35 3l6 -60v-223q-24 0 -75 5q0 -7 1 -17zM162 439v121h82v-121h-82zM162 594v87h192v-242h-73l1 121q1 21 6 39q-55 -4 -83 -5h-43zM125 325q4 -49 5 -55l-1 -406q-1 -13 -4 -24
h47q-3 21 -5 44v147h179v-106q0 -27 -7 -34q-7 -3 -18 -5q-13 -1 -18 -2q-24 0 -48 4q12 -22 19 -46q37 3 60 7q15 3 29 10q21 9 21 53l1 372l4 41q-54 -6 -75 -6l-154 1q-3 0 -35 5zM167 193v90h179v-90h-179zM167 67v90h179v-90h-179z" />
  </g>

</svg>
