<?xml version="1.0" standalone="no"?>
<!DOCTYPE svg PUBLIC "-//W3C//DTD SVG 1.1//EN" "http://www.w3.org/Graphics/SVG/1.1/DTD/svg11.dtd" >
<svg xmlns="http://www.w3.org/2000/svg" xmlns:xlink="http://www.w3.org/1999/xlink" version="1.1" viewBox="-10 0 1010 1000">
   <path fill="currentColor"
d="M710 4q7 19 23 75q2 8 3 11h113q61 -1 88 -4q-6 23 -6 63q0 34 1 43q1 12 5 29h-84q9 -27 8 -72h-46h-295q0 41 1 50q0 12 3 20h-72q6 -31 6 -76q0 -37 -3 -54q-1 -3 -1 -5q33 6 90 6h115q-4 -24 -32 -76zM571 173q80 -1 78 4q1 1 -2 5q-12 24 -12 66h83q0 -58 -4 -73
q52 0 64 1q16 1 16 5q0 2 -2 6q-12 21 -12 61q75 0 119 -4v64q-16 -3 -37 -3q-16 -1 -82 -1v52q1 17 2 27h-70q6 -30 6 -79h-83q0 39 1 52q1 17 3 27h-74q8 -40 8 -79q-45 0 -62 1q-20 1 -31 3v-66q36 3 95 4q0 -39 -1 -48q0 -13 -3 -25zM480 393q22 8 91 8h189q63 0 111 -6
q-8 35 -8 99v92q-1 65 4 91h-77q0 -5 2 -14q4 -26 4 -63v-139h-242v103q0 55 1 75q1 26 3 40h-80q8 -31 8 -121v-71q0 -61 -6 -94zM409 818q226 -71 214 -328q90 0 93 10q0 4 -4 11q-19 27 -27 95q78 0 83 7q0 1 -2 4q-20 30 -20 127q-1 57 8 63q5 11 56 9q43 1 53 -16
q11 -13 10 -79q16 17 77 37q-10 79 -36 99q-22 23 -99 22q-98 1 -112 -8q-22 -7 -20 -49v-203q-35 181 -235 272q-9 -49 -39 -73zM103 42q5 0 17 2q41 4 80 4h119q60 0 104 -6q-8 30 -8 105v165q33 0 49 -4q0 6 -1 18q-1 22 -1 41q0 18 1 43q1 11 1 15h-61q-6 33 -6 101v294
q1 29 -19 40q-14 11 -86 27q5 -43 -28 -81q78 12 69 -24v-73h-154v87q0 69 4 91h-72l4 -89v-264q0 -71 -6 -97h-57q0 -8 1 -24q1 -26 1 -44q0 -24 -1 -47q-1 -10 -1 -14q21 4 57 4v-175q0 -65 -6 -95zM349 112h-174v59h49q52 0 84 -4q0 7 -1 21q-3 30 -3 62v62h45v-200z
M242 227h-67v85h67v-85zM333 473h-154v69h154v-69zM333 594h-154v63h154v-63zM395 363h-274q0 21 4 48q33 6 95 6h82q71 0 87 -6q6 -17 6 -48z" />
</svg>
