<?xml version="1.0" standalone="no"?>
<!DOCTYPE svg PUBLIC "-//W3C//DTD SVG 1.1//EN" "http://www.w3.org/Graphics/SVG/1.1/DTD/svg11.dtd" >
<svg xmlns="http://www.w3.org/2000/svg" xmlns:xlink="http://www.w3.org/1999/xlink" version="1.1" viewBox="-10 0 1034 1024">
  <g transform="matrix(1 0 0 -1 0 820)">
   <path fill="currentColor"
d="M371 -89q21 -15 39 -38q15 30 37 49q34 30 55 30q12 0 38 -19q51 -40 97 -53q48 -13 149 -14l177 1q3 31 14 57q-82 -18 -200 -19q-78 0 -116 9q-42 10 -76 34l-38 28q-1 0 -9 5q-10 4 -19 9v287q1 33 5 64q-51 -6 -70 -6q-30 1 -52 6v-47q6 1 37 5l43 1v-310
q-40 -18 -51 -28l-30 -27q-9 -7 -19 -15q-6 -4 -11 -9zM471 596l-44 53q-12 -12 -31 -24l41 -49q31 -39 39 -53q4 -7 9 -16q18 15 35 32zM748 530v-73h-91q-45 0 -66 5v-47q9 4 26 5l273 1q42 0 64 -6v47q-3 0 -6 -1q-4 0 -8 -2l-99 -2h-56v73h78q45 0 63 -6v47q-3 0 -8 -2
q-3 0 -4 -1l-151 -2h-100q21 36 40 72h184q39 0 64 -5v46q-6 0 -10 -2q-1 0 -3 -1l-218 -2q13 42 47 71q-36 9 -61 19q-6 -36 -32 -90q-115 0 -135 2q-6 1 -9 1l-11 2v-46q24 4 39 5h100q-48 -93 -103 -149q-42 -40 -73 -49q27 -15 47 -36q36 34 58 60q21 24 51 66h110z
M618 37q0 -21 -3 -51q0 -3 -2 -6q0 -1 -1 -3h49q-4 49 -5 75v58h209v-68q0 -30 -41 -31q-19 0 -53 9q12 -30 13 -52h13q39 0 75 12q30 13 31 56l1 279l4 44q-28 -1 -57 -5l-197 1q-12 3 -42 4q6 -63 6 -81v-241zM656 145v67h209v-67h-209zM656 248v70h209v-70h-209zM119 462
l-54 4q-10 1 -20 1q1 -28 5 -59q0 -33 -5 -71h48q-6 12 -6 48v41h315q-1 -33 -3 -66q0 -3 -2 -9h46q-7 54 -4 69q0 21 4 47q-27 -1 -54 -5h-19l1 209l4 45q-27 -1 -56 -5l-163 1q-15 3 -42 4q1 -30 5 -61v-193zM156 462v94h76v-94h-76zM156 592v83h177v-213h-64q0 88 2 100
q0 18 3 35q-60 -4 -76 -5h-42zM119 344q6 -57 6 -84l-3 -395q-3 -15 -3 -18h50q-4 19 -5 60v138h158v-128q0 -19 -13 -23q-7 0 -34 -3q-12 0 -29 5q7 -24 9 -29l6 -19q42 3 60 7q37 9 38 60l1 388l4 41q-28 -1 -58 -5l-140 1q-15 3 -47 4zM164 80v91h158v-91h-158zM164 207
v96h158v-96h-158z" />
  </g>

</svg>
