<?xml version="1.0" standalone="no"?>
<!DOCTYPE svg PUBLIC "-//W3C//DTD SVG 1.1//EN" "http://www.w3.org/Graphics/SVG/1.1/DTD/svg11.dtd" >
<svg xmlns="http://www.w3.org/2000/svg" xmlns:xlink="http://www.w3.org/1999/xlink" version="1.1" viewBox="-10 0 1010 1000">
   <path fill="currentColor"
d="M667 14q83 9 95 18q1 1 -8 10q-13 13 -18 20q-8 11 -16 28l-6 12h117q30 0 98 -8v69q-56 -6 -96 -6h-141q-3 8 -25 41q-7 11 -4 7h135q70 -2 97 -10v73q-56 -8 -97 -8h-26v66h45q37 0 116 -8v71q-84 -8 -112 -8h-142q-75 0 -106 6v-59l-37 37q-18 -21 -64 -37
q99 -60 155 -173h-14q-44 0 -83 8v-69q49 7 93 8h20q19 -49 24 -88zM109 50q47 6 78 6h134q21 0 76 -6q-6 40 -6 73v201l38 -4q-8 51 0 83q51 7 95 -4q-6 40 -6 66v287q61 50 143 58q69 5 151 0q80 -4 136 -16q-40 45 -47 87q-261 2 -332 -31q-23 -13 -55 -34
q-32 -24 -38 -18q-26 11 -55 71l-42 -51q-14 56 -121 63q-5 -49 -30 -83q90 21 85 -18v-55h-134v39q1 67 9 117h-83q10 -44 12 -117v-248q0 -30 -6 -65h-57q13 -57 0 -135q46 7 61 4v-197q-1 -42 -6 -73zM492 86q19 77 28 176l-76 10q2 -110 -21 -176zM173 106v71h113v147
h45v-218h-158zM173 227v97h59v-97h-59zM710 260h-85q-10 13 -28 36q-13 17 -18 24q29 6 96 6h35v-66zM123 373l6 66q36 6 59 6h118q33 0 77 -6q-5 31 -6 63v298q63 -33 79 -77v-258l-37 4v-48h-62q4 -54 -2 -48h-232zM583 423q35 6 72 6h157q17 0 69 -6q-6 33 -6 67v243
q4 51 -115 55q-5 -47 -30 -73q73 23 83 -14v-30h-162q0 43 12 99h-82q9 -36 10 -99v-183q0 -32 -8 -65zM651 477v57h162v-57h-162zM179 492v78h134v-78h-134zM651 574v57h162v-57h-162zM179 610v75h134v-75h-134z" />
</svg>
