<?xml version="1.0" standalone="no"?>
<!DOCTYPE svg PUBLIC "-//W3C//DTD SVG 1.1//EN" "http://www.w3.org/Graphics/SVG/1.1/DTD/svg11.dtd" >
<svg xmlns="http://www.w3.org/2000/svg" xmlns:xlink="http://www.w3.org/1999/xlink" version="1.1" viewBox="-10 0 1034 1024">
  <g transform="matrix(1 0 0 -1 0 820)">
   <path fill="currentColor"
d="M166 213h-40q-46 1 -50 3q-6 0 -17 2v-44q55 6 76 5h144q-19 -42 -81 -141q-24 -36 -37 -50q-13 -12 -31 -18q18 -30 24 -50q15 3 45 13q19 6 51 10q15 0 243 40l38 -54l29 27q-33 43 -74 90q-42 48 -70 72q-12 -12 -26 -24q52 -52 77 -82q-48 -9 -202 -32l-67 -9
q12 25 20 33q60 93 82 122q7 9 31 28l-31 25q243 0 258 -3q0 1 2 0q-1 0 16 -2v44q-34 -4 -64 -5h-309v126l286 -3q3 0 13 -2v44q-31 -1 -64 -5h-235v124l286 -3q3 0 12 -3v45q-43 -3 -65 -6h-233v132l331 -3q4 0 13 -2v44q-9 0 -13 -2q-15 -1 -52 -4l-270 1q-30 4 -53 5
l7 -64v-424zM498 -103q21 -15 40 -35q189 93 321 293q37 57 45 63q13 18 42 32q-28 15 -52 35q-39 -73 -86 -140q-81 -111 -189 -191q-42 -28 -65 -40q-25 -10 -56 -17zM535 478q21 -12 41 -33q109 70 229 201q39 45 51 53q10 7 38 17q-36 22 -52 37q-21 -31 -49 -66
q-33 -37 -81 -86q-58 -55 -97 -84q-39 -25 -80 -39zM855 445q4 4 9 10q15 15 40 24q-25 16 -51 40q-30 -58 -118 -152q-88 -88 -163 -123q22 -16 37 -32q54 36 106 85q27 24 56 54q30 30 43 46q19 24 41 48v0z" />
  </g>

</svg>
