<?xml version="1.0" standalone="no"?>
<!DOCTYPE svg PUBLIC "-//W3C//DTD SVG 1.1//EN" "http://www.w3.org/Graphics/SVG/1.1/DTD/svg11.dtd" >
<svg xmlns="http://www.w3.org/2000/svg" xmlns:xlink="http://www.w3.org/1999/xlink" version="1.1" viewBox="-10 0 1034 1024">
  <g transform="matrix(1 0 0 -1 0 820)">
   <path fill="currentColor"
d="M824 237l-8 -24q-6 -28 -20 -38q-12 -6 -39 -9q-60 -3 -62 -4q-21 3 -36 6q10 -21 21 -50q108 7 135 22q25 15 44 81q3 16 8 31q0 6 9 27q-16 -1 -29 -3q-22 -3 -31 -3l-637 1q-9 1 -17 2q-3 0 -12 3v-47q19 4 60 5h215q-60 -63 -136 -98q-78 -36 -210 -39q13 -18 28 -43
q93 16 158 37q57 16 104 47q48 33 111 96h344zM249 -91q0 -43 -6 -65h47q-4 24 -5 51h538q-1 -30 -5 -44h48q-6 43 -5 125q0 42 3 85q0 13 2 24l-60 -6l-518 1q-24 4 -45 5q6 -60 6 -76v-100zM285 -69v115h538v-115h-538zM557 667q0 -3 5 -7q1 -6 25 -37q15 3 24 7
q70 19 120 37q48 16 110 45q33 13 66 16q-24 27 -37 46q-60 -40 -149 -73q-90 -30 -164 -34zM568 395q15 -18 31 -45q87 21 153 42q67 22 157 61q28 12 58 12l-24 28q-3 3 -14 20q-34 -24 -73 -43q-39 -18 -99 -38q-102 -34 -189 -37zM574 528q25 -24 36 -42q51 12 103 31
q51 18 98 39q22 9 39 17q15 6 25 9q13 3 44 4q-15 16 -18 22q-9 12 -18 31q-54 -39 -158 -79q-64 -21 -151 -32zM175 449l-89 1q-6 1 -9 2q-6 3 -13 3v-47h6q6 3 27 4q15 1 121 2q-7 -10 -13 -22q-31 -49 -62 -60l19 -42q15 3 29 8l74 16l74 16l102 19q16 -27 27 -50
q18 18 33 27l-58 88l91 -1q21 0 29 -4q1 0 5 -1h4v47q-63 -6 -83 -6h-276v64l252 -1l43 -4v44q-12 -3 -28 -3q-18 0 -35 -2h-232v54l255 -1l39 -4v44l-28 -4l-266 -1v58l286 -1l38 -4v46q-4 0 -8 -1q-3 0 -5 -1q-24 0 -50 -3l-268 1q-3 1 -36 4q1 -27 5 -56v-229zM400 414
l22 -34l-215 -41l55 75h138z" />
  </g>

</svg>
