<?xml version="1.0" standalone="no"?>
<!DOCTYPE svg PUBLIC "-//W3C//DTD SVG 1.1//EN" "http://www.w3.org/Graphics/SVG/1.1/DTD/svg11.dtd" >
<svg xmlns="http://www.w3.org/2000/svg" xmlns:xlink="http://www.w3.org/1999/xlink" version="1.1" viewBox="-10 0 1010 1000">
   <path fill="currentColor"
d="M817 -8q87 47 80 64q-2 3 -13 5q-34 7 -72 27q-60 29 -221 95q-32 -46 -55 -64q200 -52 281 -127zM833 137q12 10 33 26q46 36 37 38q-4 5 -23 10q-34 9 -61 22q-156 71 -216 89q-22 -42 -55 -66q157 -14 285 -119zM881 266q73 56 67 68q-2 3 -13 5q-30 6 -66 21
q-86 38 -250 95q-31 -39 -57 -66q174 -27 319 -123zM873 481q-3 10 -9 31q-12 42 -19 60q-19 55 -56 68q-36 17 -152 21q-10 -50 -36 -85q151 32 171 -38h-296q-53 75 -157 135h427q57 0 93 -6q-6 42 -6 87v70q-1 57 4 81h-83q-2 0 1 -21q3 -23 3 -34h-240h-216q0 34 4 51
h-86q6 -28 6 -79v-109q-69 20 -111 29q-18 -40 -63 -77q225 -8 341 -127h-159q-77 0 -119 6v-63q33 6 113 6h554q64 0 91 -6zM302 723v77h456v-77h-280h-176zM159 14q31 6 107 6h172q90 0 108 -6v68q-23 -6 -104 -6h-212v43h183q67 0 85 -6v50q-9 -3 -25 -3q-11 -1 -58 -1
h-185v46h181q64 0 85 -6v51q-16 -6 -89 -6h-177v38h203q41 0 91 -5q6 -1 8 -1v70q-37 -8 -101 -8q53 54 75 87l-56 36q-2 -3 -6 -10q-5 -7 -7 -12q-282 18 -275 30q-5 1 -7 2q-11 -35 -36 -66q68 -13 109 -67h-53q-35 0 -75 6q-12 1 -17 2v-68q18 4 32 5q11 1 50 1v-161
q0 -74 -6 -109zM302 338l-62 61h175l-32 -34l30 -27h-111z" />
</svg>
