<?xml version="1.0" standalone="no"?>
<!DOCTYPE svg PUBLIC "-//W3C//DTD SVG 1.1//EN" "http://www.w3.org/Graphics/SVG/1.1/DTD/svg11.dtd" >
<svg xmlns="http://www.w3.org/2000/svg" xmlns:xlink="http://www.w3.org/1999/xlink" version="1.1" viewBox="-10 0 1034 1024">
  <g transform="matrix(1 0 0 -1 0 820)">
   <path fill="currentColor"
d="M174 454h-44q-39 0 -66 5v-45q9 4 24 5l123 1q-57 -75 -93 -99q9 -21 20 -42q27 9 61 16l153 31l82 17q15 -27 25 -46q12 9 18 15q7 3 18 9q-4 3 -14 18l-55 81h55q46 0 64 -6v45q-16 -4 -64 -5h-270v54h219q42 0 63 -6v45q-19 -4 -63 -5h-219v52h223q45 0 63 -6v45
q-19 -4 -63 -5h-223v64h241q45 0 63 -6v45q-21 -4 -63 -5l-244 1q-19 3 -39 4q1 -28 5 -59v-218zM179 329q21 21 39 41l44 50h119l30 -47q-31 -7 -60 -13zM72 23q1 -24 4 -48q28 4 58 8l325 19v-46q0 -42 29 -60q21 -12 49 -17q60 -12 168 -12q84 0 137 7q66 10 102 60
q9 12 21 37q-18 9 -37 23q-3 3 -11 9q0 -21 -4 -30q-12 -46 -66 -62q-42 -9 -143 -10q-58 0 -109 4q-58 4 -79 17q-18 12 -19 41v41l367 20q28 0 59 -2q-1 24 -1 46q-30 -3 -59 -8l-366 -21v72l302 19q28 0 59 -1q-1 24 -1 47q-30 -4 -58 -11l-302 -18v82l176 21q34 3 65 8
q40 6 53 7q18 0 47 2q-21 21 -45 51q-27 -12 -53 -17q-36 -9 -82 -16q-48 -7 -112 -14q-73 -7 -125 -12q-43 -3 -81 -4l-102 -2q-39 0 -66 5q16 -27 24 -47l263 14v-79l-284 -17l-60 2q1 -22 4 -46q31 4 64 8l276 17v-72l-325 -18zM874 740q-3 6 -5 11q-3 3 -5 8
q-66 -48 -191 -90q-72 -22 -121 -23q18 -24 30 -44q54 12 134 42l91 37q45 21 87 25q-6 10 -14 22zM577 516q12 -16 18 -25t11 -19q15 3 105 33q4 3 12 5q27 7 101 39q45 18 85 24q-19 24 -31 53q-64 -45 -187 -86q-69 -24 -114 -24zM925 484q-1 1 -3 4q-4 4 -7 9
q-28 -18 -53 -31q-30 -15 -73 -33q-42 -18 -71 -28q-88 -28 -150 -29q6 -6 10 -13q10 -13 22 -32q34 7 69 18q33 9 103 35l83 35q54 21 100 26q-13 13 -20 22q-6 9 -10 17v0z" />
  </g>

</svg>
