<?xml version="1.0" standalone="no"?>
<!DOCTYPE svg PUBLIC "-//W3C//DTD SVG 1.1//EN" "http://www.w3.org/Graphics/SVG/1.1/DTD/svg11.dtd" >
<svg xmlns="http://www.w3.org/2000/svg" xmlns:xlink="http://www.w3.org/1999/xlink" version="1.1" viewBox="-10 0 1034 1024">
  <g transform="matrix(1 0 0 -1 0 820)">
   <path fill="currentColor"
d="M164 434q-78 0 -92 3q-3 1 -11 2v-46q3 0 6 1q7 3 36 4l104 1q-33 -54 -45 -67q-12 -12 -34 -18q15 -24 23 -38q0 -1 1 -6q18 6 75 20l203 43q6 -15 12 -32q6 6 22 14q1 0 3 3q3 3 7 5q-12 24 -21 37l-29 39q117 -3 123 -5q3 0 6 -1v46q-10 -1 -15 -3q-24 0 -48 -2h-289
v64l244 -1l38 -4v44q-13 0 -28 -3l-35 -3h-219v55l240 -1l39 -4v44q-13 -1 -27 -4l-252 -1v58l260 -1l42 -4v46q-19 0 -64 -5l-238 1q-15 3 -43 4l6 -55v-230zM380 399l31 -37q-105 -22 -216 -42l58 79h127zM217 31l-134 1q-7 3 -18 4v-46h6q7 3 33 4l113 1v-90
q0 -33 -5 -56h47q-4 45 -5 68v78h543v-60q0 -30 -17 -34q-19 -3 -40 -4q-25 0 -47 4q9 -18 16 -48q60 6 85 11q40 7 41 67v64q114 0 136 -3q3 0 9 -2h2v46q-12 -3 -15 -3l-132 -2l1 182l4 44q-31 -1 -63 -5h-240q0 31 3 38q1 15 11 28h-57q4 -42 5 -66l-245 1q-15 3 -42 4
q1 -28 5 -59v-167zM254 31v77h245v-77h-245zM499 216v-72h-245v72h245zM537 31v77h260v-77h-260zM537 144v72h260v-72h-260zM559 613l9 -12q58 19 117 43q55 21 98 41q12 7 26 14q10 6 23 10q18 6 41 8q-31 30 -41 41q-144 -96 -298 -115q9 -9 25 -30zM928 455l-22 23
q-3 3 -6 5q-4 6 -9 11q-33 -30 -130 -70q-69 -25 -112 -36q-48 -9 -94 -12q24 -27 33 -42q114 22 244 80q51 22 60 26q13 4 42 9zM824 551q13 7 28 13q13 6 39 8q-15 19 -38 42q-54 -36 -139 -72q-85 -31 -148 -35q13 -16 29 -43q60 16 102 32q39 15 84 35q21 10 43 20v0z
" />
  </g>

</svg>
