<?xml version="1.0" standalone="no"?>
<!DOCTYPE svg PUBLIC "-//W3C//DTD SVG 1.1//EN" "http://www.w3.org/Graphics/SVG/1.1/DTD/svg11.dtd" >
<svg xmlns="http://www.w3.org/2000/svg" xmlns:xlink="http://www.w3.org/1999/xlink" version="1.1" viewBox="-10 0 1010 1000">
   <path fill="currentColor"
d="M800 -4q4 4 12 10q73 58 61 60q-2 3 -14 6q-27 6 -55 20q-105 51 -217 99q-3 -5 -8 -13q-23 -38 -45 -53q173 -43 266 -129zM815 137q70 59 64 68q-4 4 -16 7q-23 7 -50 19q-13 6 -38 17q-151 71 -170 74q-12 -21 -47 -55q-7 -6 -10 -9q154 -29 267 -121zM861 262
q84 64 72 74q-2 3 -14 5q-36 6 -72 22q-51 26 -242 100q-25 -43 -59 -70q152 -20 315 -131zM456 445h28q62 -1 60 4q1 3 -2 8q-8 13 -8 31h200q42 0 78 -3q-6 23 -6 77v137h23q66 -1 108 -4v65q-48 -6 -108 -6h-23v80q12 52 -133 67q-6 -48 -30 -85q93 12 91 -20v-42h-472
v46q-1 65 4 91h-81q5 -46 5 -93v-44h-55q-62 0 -85 4v-65q0 -2 16 1q38 5 69 5h55v-143q0 -22 -2 -60q-1 -9 -1 -13q23 5 87 5h188q0 -34 -6 -43zM534 540v56h200v-56h-200zM462 540h-200v56h200v-56zM462 639h-200v60h200v-60zM534 639v60h200v-60h-200zM145 22q32 6 111 6
h179q91 0 109 -6v66q-24 -6 -106 -6h-220v41h189q68 0 89 -6v52q-12 -4 -29 -5q-12 -1 -62 -1h-187v38h185q46 0 62 -1q19 -1 29 -3v47q-9 -3 -27 -3q-13 -1 -64 -1h-185v38h211q43 0 95 -5q4 -1 6 -1v68q-36 -8 -103 -8q22 23 71 79l-50 32l-15 -16q-292 18 -285 30
q-5 1 -7 2q-8 -28 -38 -64q72 -12 113 -63h-55q-36 0 -77 6q-13 1 -19 2v-66q19 4 34 5q11 1 52 1v-153q0 -70 -6 -105zM292 332l-64 57h181l-32 -31l30 -26h-115z" />
</svg>
