<?xml version="1.0" standalone="no"?>
<!DOCTYPE svg PUBLIC "-//W3C//DTD SVG 1.1//EN" "http://www.w3.org/Graphics/SVG/1.1/DTD/svg11.dtd" >
<svg xmlns="http://www.w3.org/2000/svg" xmlns:xlink="http://www.w3.org/1999/xlink" version="1.1" viewBox="-10 0 1034 1024">
  <g transform="matrix(1 0 0 -1 0 820)">
   <path fill="currentColor"
d="M213 170v-285q0 -36 -5 -57h49q-4 39 -5 57v321q31 33 61 62q24 22 50 28q-22 15 -39 29q39 6 65 13q27 3 69 11q12 -24 21 -48q6 4 11 8q4 1 12 6q6 4 13 7l-55 98l66 -1q21 -1 42 -5v47q-99 -4 -103 -5h-264v58l255 -1q24 0 40 -4l2 -1v45q-4 0 -8 -2q-27 0 -56 -3
h-233v51l255 -1l40 -4v45l-28 -4l-267 -1v56l280 -1l41 -4v46q-31 -1 -63 -5l-264 1q-12 3 -37 4l6 -53v-222q-75 0 -92 3q-3 1 -11 2v-47q48 6 73 6h83q-9 -15 -14 -19q-42 -57 -78 -65q9 -15 10 -19l13 -25q45 13 154 30q-30 -39 -55 -65q-24 -24 -61 -57
q-63 -54 -130 -81q31 -24 40 -33q36 21 75 52zM419 420l22 -40q-69 -12 -118 -20q-48 -7 -124 -18q33 37 72 78h148zM613 -109q0 -33 -5 -57h49l-6 54v288h10q51 -84 107 -137q55 -54 164 -120l40 43q-52 10 -120 58q-87 63 -146 156l207 -1l30 -4h4v46q-13 0 -63 -5h-233
q0 60 3 63q3 18 12 31h-58q4 -42 5 -76v-18l-291 2q-6 3 -13 3v-46q16 3 60 5h203q-48 -72 -120 -134q-85 -72 -171 -97q27 -18 44 -39q55 33 92 59q31 22 65 53q31 25 62 59q28 33 69 85v-271zM553 667q15 -21 27 -44q52 13 96 28q43 15 101 40q63 28 69 29l30 1
q-22 30 -36 50q-72 -45 -136 -70q-87 -30 -151 -34zM588 352l13 -20q12 3 22 5q51 12 80 20q24 7 55 21q27 9 66 28l81 38q18 10 36 11h12q-24 21 -39 45q-63 -45 -164 -86q-81 -30 -178 -41q7 -10 16 -21zM872 635q-133 -91 -294 -104q10 -15 23 -32q0 -3 2 -5q1 -3 3 -7
q121 33 209 71q42 19 49 22q15 6 45 7q-16 16 -26 32q-6 9 -11 16v0z" />
  </g>

</svg>
