<?xml version="1.0" standalone="no"?>
<!DOCTYPE svg PUBLIC "-//W3C//DTD SVG 1.1//EN" "http://www.w3.org/Graphics/SVG/1.1/DTD/svg11.dtd" >
<svg xmlns="http://www.w3.org/2000/svg" xmlns:xlink="http://www.w3.org/1999/xlink" version="1.1" viewBox="-10 0 1010 1000">
   <path fill="currentColor"
d="M800 -2q80 60 77 70q-2 5 -17 7q-28 3 -48 13q-33 15 -85 39q-79 38 -140 64q-16 -27 -57 -64q168 -42 270 -129zM141 20q56 5 172 6h50q113 -3 161 -6v66q-18 -3 -56 -5q-19 0 -43 -1h-62h-143v43h137q64 0 86 -1q29 -1 47 -3v58q-50 -8 -135 -8h-135v44h121
q108 0 147 -6v57q-41 -6 -149 -6h-119v40h169q98 0 141 -8v68q-27 -6 -103 -6q59 59 99 107l-60 37q-5 -7 -14 -19q-16 -24 -21 -32q-166 11 -294 38q-4 -11 -11 -31q-12 -33 -17 -43q-1 -2 12 -7q51 -20 79 -52q-95 -2 -138 8v-70q29 7 85 8v-147q0 -50 -1 -76
q-2 -30 -5 -53zM823 139q82 53 74 62q-2 3 -13 6q-34 9 -74 30q-6 3 -18 8q-80 39 -187 85q-17 -32 -53 -66q153 -32 271 -125zM857 284q79 59 70 70q-1 1 -8 2q-27 2 -56 13q-76 33 -266 98q-16 -26 -57 -68q187 -24 317 -115zM413 352h-119q-7 4 -20 12q-55 34 -74 49
q105 -6 203 -8q-9 -12 -28 -30zM272 467q8 3 23 9q67 24 64 32q0 4 -20 14q-22 10 -31 18q-35 29 -46 46v164q0 109 10 145h-89q11 -37 11 -149v-99q-20 17 -75 69q-17 16 -26 24q-23 -39 -63 -63q131 -52 242 -210zM569 471q91 -4 92 4q1 2 -2 6q-15 23 -14 67h89
q135 -1 173 -10v81q-31 -7 -167 -7h-50q84 132 266 174q-41 27 -75 77q-165 -79 -238 -240v112q-1 135 6 158h-86q10 -55 12 -158v-114q-75 141 -212 252q-32 -32 -81 -61q143 -53 238 -200h-50q-106 0 -139 5v-77q45 8 137 8h107q0 -58 -6 -77z" />
</svg>
