<?xml version="1.0" standalone="no"?>
<!DOCTYPE svg PUBLIC "-//W3C//DTD SVG 1.1//EN" "http://www.w3.org/Graphics/SVG/1.1/DTD/svg11.dtd" >
<svg xmlns="http://www.w3.org/2000/svg" xmlns:xlink="http://www.w3.org/1999/xlink" version="1.1" viewBox="-10 0 1010 1000">
   <path fill="currentColor"
d="M804 -2q77 56 67 64q-3 4 -11 5q-22 2 -50 15q-129 58 -248 103q-15 -30 -56 -60q156 -22 298 -127zM827 117q65 46 60 58q-1 2 -9 3q-25 4 -55 19q-48 29 -248 97q-16 -31 -44 -53q-3 -3 -5 -4q198 -34 301 -120zM863 231q75 57 64 65q-3 6 -21 7q-24 1 -41 7
q-85 30 -241 78q-32 10 -49 15q-31 -46 -55 -63q154 -6 343 -109zM607 627h-232q-24 17 -48 38q21 6 56 6h192q28 0 64 -6q-14 -14 -30 -36zM552 417q0 5 -10 13q-27 21 -56 57h121q3 -5 10 -14q22 -31 46 -72q15 4 41 10q43 8 40 14q0 2 -10 8q-37 22 -63 54h83q57 0 93 -6
v57q-26 -5 -93 -4h-300l-37 46h389q61 0 103 -6v61q-42 -9 -97 -8h-133q109 70 281 76q-39 42 -51 81q-154 -40 -242 -95q-11 88 -33 104q-18 21 -110 25q-6 -42 -24 -68q96 25 99 -31h-236v79q-10 40 72 36h190q88 6 95 -78q28 31 78 44q-29 66 -46 76q-19 16 -75 15h-270
q-70 0 -91 -14q-22 -12 -20 -57v-135q-74 59 -201 125q-25 -37 -63 -70q136 -24 254 -113h-131q-50 0 -92 6v-59q42 6 104 6h172q7 -7 18 -20q12 -14 24 -26h-159q-52 0 -93 8v-61q30 4 43 5q11 1 42 1h70l-15 -15q-27 -29 -43 -41l78 -18q2 3 6 8q30 44 49 66h56
q35 -48 53 -96q10 2 27 7q61 14 57 19zM141 26q39 4 105 4h169q78 0 105 -4v60q-33 -4 -101 -4h-209v37h179q64 0 85 -6v50q-27 -8 -85 -8h-179v36h177q62 0 85 -6v48q-17 -6 -85 -6h-177v31h197q58 0 99 -4v62q-25 -6 -93 -6q7 6 28 26q32 29 43 39l-49 30q-2 -2 -6 -7
t-6 -7q-267 16 -279 31q-5 2 -7 3q-8 -26 -36 -58q66 -11 107 -57h-53q-38 0 -78 5q-8 1 -12 1v-62q20 5 55 4h25v-137q0 -52 -4 -95zM280 310l-62 52l167 -10l-24 -20l28 -22h-109z" />
</svg>
