<?xml version="1.0" standalone="no"?>
<!DOCTYPE svg PUBLIC "-//W3C//DTD SVG 1.1//EN" "http://www.w3.org/Graphics/SVG/1.1/DTD/svg11.dtd" >
<svg xmlns="http://www.w3.org/2000/svg" xmlns:xlink="http://www.w3.org/1999/xlink" version="1.1" viewBox="-10 0 1034 1024">
  <g transform="matrix(1 0 0 -1 0 820)">
   <path fill="currentColor"
d="M64 145q6 3 33 3q15 1 130 2l693 -1l39 -4v42q-18 -3 -28 -4l-854 1q-6 3 -13 3v-42zM401 9q-34 -19 -75 -36q-67 -27 -105 -36q-49 -12 -87 -20q-30 -4 -62 -7q15 -15 31 -39q58 13 118 31q61 18 125 42v-42q0 -21 -20 -31q18 -22 26 -40q45 21 130 41l97 24q3 18 8 40
q-28 -9 -70 -19q-51 -13 -133 -33v77l83 43q9 4 14 5h75q66 -78 162 -116q46 -16 85 -27q45 -10 115 -24q3 6 7 12q9 18 26 36q-21 -3 -35 -4q-42 0 -95 11q-57 12 -105 33q60 34 81 43q24 12 46 13q-9 12 -32 45q-13 -9 -25 -20q0 76 2 86q0 13 3 27q-27 -6 -50 -6l-471 1
q-19 4 -34 5q1 -22 5 -47q0 -24 -2 -46q-3 -3 -3 -27q39 4 80 5h85zM748 87v-47h-470v47h470zM782 9l-99 -65q-33 18 -82 65h181zM773 220q25 -1 52 -5q-6 43 -5 70q0 27 3 55q0 12 2 20q-18 -1 -29 -2q-12 -1 -24 -3l-533 1q-12 3 -37 4q6 -48 6 -70l-6 -75q25 3 52 5h519z
M397 323v-71h-153v71h153zM434 252v71h153v-71h-153zM782 323v-71h-158v71h158zM548 641q16 -12 37 -36q54 15 95 31q40 15 90 39l56 28q15 6 39 9q-19 19 -31 40q-57 -40 -142 -76q-69 -27 -144 -35zM549 408q30 -27 37 -34q85 19 152 39q60 19 121 45q45 19 71 22
q6 0 13 2q-16 19 -33 41q-150 -97 -361 -115zM856 589q15 6 36 7q-12 12 -31 42q-46 -39 -139 -77q-91 -34 -151 -37q24 -16 38 -31q0 -1 3 -5q108 36 209 83l19 10q7 4 16 8zM183 501l-95 2l-6 2h-8v-41q1 0 54 5h106q-40 -54 -84 -67l19 -41q46 15 145 28l70 9q36 3 70 9
q12 -16 16 -26q1 -1 4 -7q19 15 24 16l9 5l-62 74q48 0 98 -3l2 -1q1 0 4 -1h4v41q-10 0 -14 -2l-103 -2h-215v44h217q51 -3 55 -4q4 0 9 -1v41l-64 -4h-217v33l242 -1l39 -4v42q-6 0 -64 -5h-217v46l274 -1q27 0 39 -4v42q-10 0 -13 -2q-25 0 -51 -3l-252 1q-6 1 -13 2
q-12 0 -27 2q1 -15 2 -26q3 -18 3 -24v-174zM282 469h122l28 -35l-212 -28z" />
  </g>

</svg>
