<?xml version="1.0" standalone="no"?>
<!DOCTYPE svg PUBLIC "-//W3C//DTD SVG 1.1//EN" "http://www.w3.org/Graphics/SVG/1.1/DTD/svg11.dtd" >
<svg xmlns="http://www.w3.org/2000/svg" xmlns:xlink="http://www.w3.org/1999/xlink" version="1.1" viewBox="-10 0 1034 1024">
  <g transform="matrix(1 0 0 -1 0 820)">
   <path fill="currentColor"
d="M75 -133q21 -10 31 -20q37 39 73 83q37 48 53 75q36 63 58 122q19 55 36 143q147 0 162 -2q18 0 37 -3q-3 30 -5 62l1 273l4 43q-49 -4 -63 -5h-205l39 68q16 28 45 40q-24 6 -44 17q-6 3 -15 6l-28 -64q-13 -27 -37 -67q-51 0 -76 2q-6 3 -33 3l6 -58l-1 -273
q-4 -15 -5 -40v-7q49 6 98 5h78q-12 -66 -24 -111q-21 -69 -61 -134q-61 -100 -145 -145q10 -6 21 -13zM151 471v131h156q-3 -72 -3 -131h-153zM151 306v129h150q-3 -67 -9 -129h-141zM330 306q3 36 6 63q3 25 4 66h142v-129h-152zM342 471l2 131h138v-131h-140zM376 163
q0 6 2 25q1 19 12 36h-57q4 -39 5 -61v-202q0 -81 39 -95q13 -4 45 -8l225 -6q60 4 129 5q42 0 65 3q3 1 7 1q48 6 68 28q27 33 49 120q-19 6 -56 26l1 -29q0 -52 -15 -77q-18 -30 -107 -33l-158 -4l-118 3q-63 0 -87 3q-30 3 -39 11q-9 9 -10 49v69q12 -12 24 -29
q42 12 155 22q9 -15 17 -42l36 25q-18 30 -48 90q-12 22 -29 51q-25 -16 -33 -17q24 -37 42 -77q-63 -6 -80 -6q-13 -1 -34 -4q43 90 70 136q6 12 14 22q6 9 23 17q-6 1 -21 8q-16 6 -35 17q-9 -34 -19 -57q-9 -22 -26 -57q-18 -39 -31 -57q-7 -10 -25 -26v120zM717 414
l-142 1q-9 3 -14 3q-3 1 -5 1v-46h6q7 3 36 4l113 1q-27 -72 -81 -149q-45 -61 -82 -86q30 -15 44 -26q31 39 34 43q22 34 46 67q30 45 45 72v-291q0 -28 -3 -44q0 -4 -3 -13h49q-4 39 -5 45v303q37 -54 97 -122q6 -7 15 -17l47 -49q7 9 15 16l29 19q-46 19 -103 81
q-24 24 -59 77q-28 45 -40 74l152 -1l39 -4v46q-12 -1 -15 -3l-143 -2h-34v137l136 -1q24 0 30 -3q6 0 9 -1v46q-31 -1 -63 -5h-112v112q0 6 2 24q1 19 12 36h-58q1 -6 6 -57v-115q-111 0 -127 2q-9 1 -18 3v-46h7q7 3 33 4l105 1v-137z" />
  </g>

</svg>
