<?xml version="1.0" standalone="no"?>
<!DOCTYPE svg PUBLIC "-//W3C//DTD SVG 1.1//EN" "http://www.w3.org/Graphics/SVG/1.1/DTD/svg11.dtd" >
<svg xmlns="http://www.w3.org/2000/svg" xmlns:xlink="http://www.w3.org/1999/xlink" version="1.1" viewBox="-10 0 1034 1024">
  <g transform="matrix(1 0 0 -1 0 820)">
   <path fill="currentColor"
d="M384 280q28 -1 58 -5q-3 28 -5 58l1 269q0 18 4 42q-55 -4 -80 -5h-133q37 69 51 84q10 16 29 22q-12 3 -27 9t-31 16q-25 -72 -60 -131q-24 0 -78 5l5 -91l-1 -238q-3 -12 -4 -40q45 4 66 5h64q-10 -79 -33 -154q-6 -19 -15 -43t-22 -48q-27 -52 -46 -80
q-42 -54 -71 -74q6 -1 21 -8q18 -4 33 -13q58 76 108 183q24 51 36 99q13 57 28 138h102zM155 316v122h101l-8 -122h-93zM155 474v129h106l-3 -129h-103zM399 316h-114q1 31 5 61q1 31 4 61h105v-122zM295 474q0 63 3 129h101v-129h-104zM335 179q0 6 2 24q1 19 12 36h-57
q4 -39 5 -60l1 -217q1 -18 6 -33q6 -25 37 -40q34 -16 170 -19l157 -2q18 3 112 3q73 3 105 12q33 9 52 30q21 24 42 92q-4 0 -51 21q-1 -60 -17 -82q-12 -16 -47 -26q-31 -6 -105 -11l-186 -2l-149 7q-18 3 -33 3q-27 6 -38 14q-18 12 -18 60v81q6 -7 18 -25q24 9 45 14
q18 6 73 15q6 -21 12 -44q7 3 14 7q1 1 21 8q-7 25 -22 62q-9 24 -21 50q-16 -6 -34 -9q10 -21 18 -44q-42 -6 -82 -13q9 18 19 35l28 52q18 36 42 42q-25 9 -55 28q-9 -36 -31 -85q-13 -28 -23 -44q-7 -12 -22 -27v87zM537 561q-27 1 -53 3q-3 0 -7 2v-46h6q7 3 36 4l115 1
q-18 -111 -54 -209q-48 -120 -94 -171q9 -3 18 -5q3 0 27 -9q57 91 108 243h198q-25 -93 -71 -165l-71 91l-14 18q-12 -12 -38 -26q36 -36 41 -42q3 -4 62 -76q-102 -138 -229 -176l44 -31q51 27 115 78q30 24 95 96q30 -39 57 -75q24 -33 44 -67q21 21 34 29l-46 62l-68 86
q52 96 98 239l-58 -6h-185q13 55 25 116l244 -1l39 -4v46q-15 -3 -28 -4l-251 -1q6 48 10 96q1 43 7 60q3 12 17 28q-34 4 -63 12q1 -18 2 -72q-1 -10 -2 -26q-1 -45 -9 -98h-101zM894 635l-82 87l-19 19q-15 -18 -28 -28q30 -28 58 -59q30 -33 42 -51q12 15 29 32v0z" />
  </g>

</svg>
