<?xml version="1.0" standalone="no"?>
<!DOCTYPE svg PUBLIC "-//W3C//DTD SVG 1.1//EN" "http://www.w3.org/Graphics/SVG/1.1/DTD/svg11.dtd" >
<svg xmlns="http://www.w3.org/2000/svg" xmlns:xlink="http://www.w3.org/1999/xlink" version="1.1" viewBox="-10 0 1010 1000">
   <path fill="currentColor"
d="M921 24v64q-33 -4 -102 -4h-228q-7 48 -16 87h147q-14 -51 -30 -67l58 -12q25 35 36 65l-44 14h38q50 0 104 -5q6 -1 9 -1v66q-14 -3 -35 -3q-17 -1 -72 -1h-147q74 96 294 109q-32 39 -44 75l-46 -10q-6 24 -6 52v139q0 25 6 67q-20 -5 -71 -4q-35 34 -68 74l104 -4
q-4 -4 -15 -18q-8 -11 -11 -14l41 -18q34 38 58 83l-44 24l-12 -26q-140 10 -162 22l-22 -59q40 -16 65 -62h-101v107q-7 55 52 50h97q87 1 111 -17q28 -16 36 -78q33 31 73 39q-19 75 -55 95q-31 22 -135 20h-119q-82 0 -103 -14q-22 -10 -20 -59v-139q-90 166 -316 234
q-16 -40 -59 -73q218 -35 301 -165h-127q0 27 2 58h-77q10 -49 10 -109v-131q0 -45 -4 -66l-22 8q-15 -39 -44 -71q180 -18 272 -119h-109q-80 0 -117 8v-72q28 7 119 8h131q11 -46 14 -87h-322q9 326 -14 522q-23 195 -85 299q-35 -38 -83 -55q68 -98 89 -242
q11 -72 15 -175q4 -95 3 -276q0 -87 -8 -137q67 8 109 8h595q67 0 106 -4zM556 227q-73 101 -231 166q39 8 62 8h89q18 -38 20 -71q73 -1 93 10q0 1 -5 6q-26 23 -36 55h210q24 0 69 -4q-205 -55 -260 -170h-11zM339 449v59h177q6 -19 6 -59h-183zM770 449h-177q0 10 -4 43
q-1 11 -2 16h183v-59zM772 556h-193q-5 30 -14 54h207v-54zM339 556v54h151q6 -12 18 -54h-169z" />
</svg>
