<?xml version="1.0" standalone="no"?>
<!DOCTYPE svg PUBLIC "-//W3C//DTD SVG 1.1//EN" "http://www.w3.org/Graphics/SVG/1.1/DTD/svg11.dtd" >
<svg xmlns="http://www.w3.org/2000/svg" xmlns:xlink="http://www.w3.org/1999/xlink" version="1.1" viewBox="-10 0 1034 1024">
  <g transform="matrix(1 0 0 -1 0 820)">
   <path fill="currentColor"
d="M390 292q21 -1 44 -5q9 -1 17 -2q-6 45 -6 62l1 272q1 21 5 43q-30 -1 -61 -5h-156l29 59q12 27 39 38q-16 7 -28 14q-7 4 -26 18q-21 -72 -54 -129q-33 0 -55 2q-6 3 -33 3q6 -48 6 -60l-1 -270l-5 -47l30 4q18 3 63 3h56q-10 -72 -28 -130q-18 -54 -46 -110
q-61 -112 -129 -151q18 -7 48 -28q72 84 120 174q27 54 43 107q15 51 30 138h97zM149 489v132h116l-1 -132h-115zM149 327v127h114q0 -63 -4 -127h-110zM296 327q3 66 4 127h107v-127h-111zM302 489l2 132h103v-132h-105zM339 196q0 6 2 25q1 18 11 36h-56q4 -39 5 -61
l1 -239q1 -16 7 -32q6 -21 37 -30q30 -9 139 -9l163 -2q12 1 81 2q36 0 136 11q3 1 7 2q40 9 63 41q19 30 39 93q-16 6 -53 26l-1 -45q-3 -51 -33 -70q-24 -12 -80 -17q-24 -3 -50 -3q-34 -1 -111 -3l-202 2q-79 3 -94 15q-10 9 -11 54v104q9 -13 13 -25q1 -4 3 -8l127 25
q0 -6 14 -31l4 -9q12 9 30 15l-29 63l-28 58q-15 -6 -30 -11q16 -30 28 -59l-88 -9q15 36 25 49l42 69q4 6 23 18q-43 24 -48 27q-21 -58 -41 -97q-28 -51 -45 -65v90zM535 44q0 -42 -6 -57h48q-6 33 -6 78v137h272v-137q0 -18 -7 -26q-3 -3 -18 -7q-16 -3 -31 -3
q-27 0 -48 4q10 -22 18 -47q6 1 13 1q28 1 45 4q12 1 25 5q40 9 41 61l1 428l4 40l-28 -3q-21 -3 -28 -3h-112v197q0 9 2 25q1 18 12 35h-57q1 -6 2 -13q0 1 2 -23l1 -221q-97 0 -120 2q-3 0 -13 2q-3 0 -18 2q1 -15 2 -29q3 -18 4 -28v-424zM571 377v106h272v-106h-272z
M571 238v103h272v-103h-272zM500 680q10 -9 67 -66q27 -27 42 -49q18 18 32 30l-125 125q-13 -13 -31 -27q7 -6 15 -13zM769 587q27 -18 34 -25l74 92q21 25 30 32q6 6 26 10q-9 10 -21 21q-12 12 -23 26q-40 -81 -120 -156v0z" />
  </g>

</svg>
