<?xml version="1.0" standalone="no"?>
<!DOCTYPE svg PUBLIC "-//W3C//DTD SVG 1.1//EN" "http://www.w3.org/Graphics/SVG/1.1/DTD/svg11.dtd" >
<svg xmlns="http://www.w3.org/2000/svg" xmlns:xlink="http://www.w3.org/1999/xlink" version="1.1" viewBox="-10 0 1010 1000">
   <path fill="currentColor"
d="M605 0q106 25 101 30q-18 10 -41 52q-11 19 -18 30h174q30 0 84 -8q-5 37 -6 77v226q0 26 8 78q-45 -8 -84 -8h-123q-15 56 -23 71q54 -3 57 6q-13 24 -12 91q37 -24 78 -149q68 28 69 34q-23 9 -52 61q-28 48 -51 74l101 -20q-12 -24 -26 -45l54 -18q42 68 55 117
l-59 18q0 -21 -8 -26l-135 28q-1 -2 -3 -7q-12 -31 -25 -47v87q-2 37 11 44q11 10 57 10q55 1 71 -14q19 -14 26 -63q29 24 75 35q-14 68 -53 89q-32 21 -135 20q-83 1 -102 -15q-23 -13 -21 -70v-182q-71 175 -248 291q-18 -28 -74 -61q224 -95 306 -359h-89q0 12 6 43h-84
q10 -55 10 -109v-230q-1 -49 -6 -77q36 7 84 8h21q23 -46 30 -112zM397 18q53 67 55 84q0 2 -17 1q-14 -1 -22 -1q-54 4 -111 13v92h53q42 0 97 -10v77q-51 -10 -95 -10h-55v64l47 -30q70 60 99 97l-55 44q-46 -65 -91 -103q1 47 10 105h-88q11 -37 14 -97v-34
q-65 97 -139 155q-18 -33 -57 -58q97 -42 168 -143h-31q-63 1 -110 10v-77q52 10 108 10h61v-82q-68 2 -125 14q-7 -34 -34 -69q179 5 318 -52zM653 173h-111v95h111v-95zM718 171v97h105v-97h-105zM653 322h-111v95h103q4 -28 8 -95zM718 322q-2 41 -12 95h117v-95h-105z
M361 568h-125q-20 41 -38 71l96 34q48 -61 67 -105zM218 449q63 8 76 22l-3 3q-22 14 -29 32h93q46 0 99 -6q-35 118 -97 199q43 21 70 39l-50 62q-10 -7 -31 -21q-29 -20 -40 -27q-76 68 -193 123q-24 -42 -65 -73q109 -26 194 -83q-78 -33 -135 -48q28 -33 64 -103h-24
q-37 0 -87 8v-80q46 8 89 8h45q2 -5 8 -17q10 -23 16 -38z" />
</svg>
