<?xml version="1.0" standalone="no"?>
<!DOCTYPE svg PUBLIC "-//W3C//DTD SVG 1.1//EN" "http://www.w3.org/Graphics/SVG/1.1/DTD/svg11.dtd" >
<svg xmlns="http://www.w3.org/2000/svg" xmlns:xlink="http://www.w3.org/1999/xlink" version="1.1" viewBox="-10 0 1034 1024">
  <g transform="matrix(1 0 0 -1 0 820)">
   <path fill="currentColor"
d="M395 280q27 -1 54 -5q-4 45 -5 57l1 258l4 39q-55 -4 -85 -5h-130l32 67q12 28 41 46q-30 9 -59 21q-13 -55 -52 -134q-40 0 -91 5q1 -16 2 -27q3 -21 3 -27v-245q0 -7 -3 -29q0 -13 -2 -26q45 4 85 5h64q-21 -174 -112 -314q-37 -54 -88 -93q21 -9 44 -24q25 25 66 85
q37 58 59 104q48 108 68 242h104zM147 464v124h117l-1 -124h-116zM147 316v112h115l-5 -112h-110zM293 316l6 112h107v-112h-113zM300 464l2 124h104v-124h-106zM333 162q0 6 2 25q1 19 11 36h-56q4 -39 5 -61l1 -217q1 -15 7 -30q9 -27 46 -34q34 -6 131 -7l160 -2l222 9
q21 3 31 7q27 9 43 30q16 24 42 81q-27 13 -51 31q-1 -69 -32 -97q-15 -12 -46 -17q-19 -3 -51 -4l-154 -4l-218 3q-51 3 -65 6q-27 9 -28 57v100q15 -16 22 -28l43 11l75 18q9 -21 9 -31q15 9 32 15q-19 55 -52 112q-12 -9 -29 -18q12 -18 28 -49q-40 -6 -79 -14
q40 105 48 116q6 16 25 26q-18 3 -32 11q-10 4 -20 9q-9 -42 -26 -93q-12 -33 -22 -51q-6 -9 -22 -23v77zM516 45q0 -39 -5 -57h47q-3 22 -5 45v608h301v-560q0 -33 -16 -39q-12 -3 -28 -5q-24 3 -50 5q13 -25 21 -50q46 3 74 13q36 9 37 56l1 578l4 43q-45 -4 -56 -5
l-288 1q-6 1 -13 2q-12 0 -29 2q4 -94 5 -97v-540zM577 283q18 4 50 6v-106q0 -6 -3 -28q0 -9 -2 -25q39 4 68 5l96 -1l39 -4v46q-31 -1 -64 -5h-96v118q111 0 126 -2l43 -4v43q-4 -1 -12 -2l-2 -1l-105 -2q-114 0 -128 3q-6 1 -10 2v-43zM636 459q-19 1 -46 2q-6 3 -13 3
v-46h5q3 3 26 3q18 1 74 2q-10 -13 -24 -26q36 -30 59 -64q0 1 2 3q18 15 27 21q-6 7 -12 13q-22 22 -48 53q60 0 126 -3q3 0 9 -2h3v46q-12 -3 -15 -3l-63 -2q25 58 46 94q9 21 33 32l-20 10q-7 3 -29 18q-24 -73 -66 -154h-74zM653 504l12 -18q3 6 8 10q6 3 17 14
q-31 52 -65 96q-15 -10 -30 -17q25 -33 40 -57q9 -13 18 -28v0z" />
  </g>

</svg>
