<?xml version="1.0" standalone="no"?>
<!DOCTYPE svg PUBLIC "-//W3C//DTD SVG 1.1//EN" "http://www.w3.org/Graphics/SVG/1.1/DTD/svg11.dtd" >
<svg xmlns="http://www.w3.org/2000/svg" xmlns:xlink="http://www.w3.org/1999/xlink" version="1.1" viewBox="-10 0 1010 1000">
   <path fill="currentColor"
d="M556 -17q9 26 25 81h234q41 0 120 -10v85q-59 -10 -120 -10h-607v242q73 -36 125 -117h-21q-48 1 -76 6v-63q60 8 89 8h48q-1 -42 -6 -58q85 4 77 8q-14 23 -15 48h29q30 0 78 -8v65q-45 -8 -76 -8h-31v58l29 -38q44 36 82 60l-40 37q-35 -29 -71 -51v18q0 35 8 91h-72
q8 -32 10 -89v-56q-31 60 -109 131q-20 -21 -58 -30q-4 290 -115 508q-28 -36 -81 -59q80 -110 104 -244q27 -139 21 -419q0 -56 -10 -113q58 7 101 8h274q-19 -42 -38 -68zM661 149q58 1 75 6q-16 24 -16 50h60q28 0 91 -8v67q-60 -8 -87 -8h-32q69 79 159 111
q-37 22 -56 58q-57 -32 -133 -149v60v11q-1 50 6 80h-67q7 -36 8 -85v-64q-33 68 -90 119q-24 -23 -59 -30q65 -39 115 -113q-20 -2 -73 6v-63q55 7 75 8h30q-3 -42 -6 -56zM480 391q33 6 74 22q-26 28 -26 37q1 2 2 1h226q36 0 83 -8q-8 33 -8 69v113q1 28 6 68
q-40 -6 -67 -6h-28q-25 20 -69 65h101l-22 -35l46 -12q29 42 45 83l-47 18l-10 -28q-61 1 -135 22q-6 -31 -18 -58q32 -17 55 -53h-77v99q-1 34 16 43q13 10 69 9h78q52 1 69 -21q20 -23 22 -88q33 39 79 49q-34 82 -56 98q-21 21 -82 19h-139q-87 1 -103 -14
q-22 -11 -20 -73v-117q-101 146 -304 220q-29 -46 -69 -69q195 -25 297 -159h-127q1 13 6 30h-81q7 -41 8 -100v-103q0 -34 -6 -67q52 6 77 6h105zM339 496v52h177q3 -13 5 -36q0 -10 1 -16h-183zM768 496h-177q-3 33 -6 52h183v-52zM508 590h-169v49h153q11 -23 16 -49z
M768 590h-191q-6 23 -17 53h208v-53z" />
</svg>
