<?xml version="1.0" standalone="no"?>
<!DOCTYPE svg PUBLIC "-//W3C//DTD SVG 1.1//EN" "http://www.w3.org/Graphics/SVG/1.1/DTD/svg11.dtd" >
<svg xmlns="http://www.w3.org/2000/svg" xmlns:xlink="http://www.w3.org/1999/xlink" version="1.1" viewBox="-10 0 1034 1024">
  <g transform="matrix(1 0 0 -1 0 820)">
   <path fill="currentColor"
d="M194 641l700 -1q4 0 41 -4v46q-45 -4 -66 -5h-280l2 3q6 12 17 25l-61 34q-42 24 -61 32q-12 -21 -25 -40q12 -4 22 -8q24 -9 41 -17q18 -9 50 -29l-373 1q-19 3 -50 4q1 -34 5 -71l-1 -316q-4 -93 -11 -161l-3 -30q-15 -120 -67 -201q-21 -30 -46 -53q37 -1 66 -8
q69 117 88 276q12 109 12 261v262zM600 83v-162q0 -61 63 -69l127 -3q81 0 116 12q27 9 48 45q9 21 19 57q-21 10 -43 26q0 -67 -31 -88q-24 -15 -113 -16q-51 0 -91 2q-27 1 -38 5q-18 6 -19 39v152l160 -1q25 -1 52 -5q-6 60 -5 94q0 102 2 114q0 18 3 36q-33 -1 -67 -5
h-260q27 33 59 45q-12 4 -55 32q-15 -31 -49 -77q-117 0 -142 2q-6 3 -38 3q6 -63 6 -95q0 -87 -2 -114l-4 -35q63 6 95 6h125q-64 -100 -164 -157q-90 -49 -172 -62q22 -16 44 -44q48 18 77 32q24 10 53 27q138 79 207 204h37zM341 114v70h208q-3 -30 -16 -70h-192z
M341 216v67h219q-3 -33 -5 -67h-214zM575 115l16 69h216v-69h-232zM595 216q3 30 5 67h207v-67h-212zM415 421q-3 -33 -5 -67h46q-6 42 -6 60l1 43q27 -10 71 -42q9 19 18 32q-22 15 -60 30q-15 6 -29 13v24q57 0 87 -4q1 0 7 -1v42q-33 -1 -68 -5h-26q1 30 13 58h-54l4 -38
q0 -12 1 -20h-96q-33 0 -58 4q-4 1 -9 1v-42q45 4 90 5h66q-115 -108 -196 -132q16 -9 45 -34q42 28 76 56q36 30 82 73v-56zM709 423q-3 -33 -5 -68h45q-4 54 -5 111v21q84 -78 191 -123q3 6 8 11q7 12 25 29q-24 3 -57 13q-6 3 -11 4q-52 21 -91 48q-48 40 -57 47l154 -3
q4 0 12 -3v42q-33 -1 -67 -5h-107q4 37 13 59h-54q1 -12 3 -23q0 -18 3 -36q-72 0 -95 3q-6 1 -16 2v-42q19 4 48 5l57 1q-75 -87 -138 -112q19 -9 29 -15q7 -4 17 -13q22 18 42 38q22 21 56 59v-50zM698 -68q30 7 64 11q46 4 90 11q10 -16 20 -35q13 12 25 17q4 1 8 4
q-34 61 -68 103q-9 -10 -18 -17q-4 -3 -12 -7q15 -18 30 -38q-60 -6 -115 -8q30 33 47 53q10 10 35 23q-34 16 -49 26q-18 -31 -40 -62q-18 -24 -38 -37q4 -9 8 -14z" />
  </g>

</svg>
