<?xml version="1.0" standalone="no"?>
<!DOCTYPE svg PUBLIC "-//W3C//DTD SVG 1.1//EN" "http://www.w3.org/Graphics/SVG/1.1/DTD/svg11.dtd" >
<svg xmlns="http://www.w3.org/2000/svg" xmlns:xlink="http://www.w3.org/1999/xlink" version="1.1" viewBox="-10 0 1010 1000">
   <path fill="currentColor"
d="M218 -2q101 20 92 26q0 4 -8 12q-30 26 -54 77h113q39 0 74 -5q-6 31 -6 79v210q0 49 4 74q-33 -6 -78 -6h-85q-7 27 -13 58q-1 4 -1 5q66 -3 65 6q0 4 -4 9q-13 21 -13 69v53q41 -52 59 -177q42 12 72 30q-1 2 -5 4q-19 11 -29 38q-22 60 -48 107l68 -14q-7 -19 -18 -57
l45 -6q28 89 34 125l-47 16q-2 -17 -6 -40q-58 9 -98 38q-15 -27 -27 -44v69q-1 32 17 40q14 9 76 8h129h252q93 2 99 -73q-19 22 -97 35q-2 -32 -28 -69q80 8 79 -32v-145h-144q-18 55 -40 97l83 -7q-13 -27 -24 -42l48 -16q27 50 54 113l-50 20q-3 -13 -9 -28
q-3 -7 -5 -12l-18 3q-50 8 -129 27q0 -5 -22 -54q26 -12 58 -101h-79v143q0 43 1 62q1 22 3 37h-70q6 -47 6 -117v-107q0 -48 -4 -75q24 3 72 4h87q0 -10 10 -44q3 -9 4 -14h-111q-37 0 -58 4q6 -30 6 -53v-82q0 -18 -1 -46q-1 -20 -1 -29q40 0 52 1q16 1 21 3q2 4 -2 10
q-9 18 -9 47v96h204h57v-84q0 -36 -4 -69h26q55 -2 52 6q1 3 -2 9q-12 24 -12 76v46q0 41 6 71q-30 -6 -70 -6h-97l-18 58h108q51 0 87 -6q-6 30 -6 75v179q30 34 65 51q-26 74 -60 85q-31 17 -164 16h-395q-66 1 -79 -13q-17 -12 -16 -70v-125q0 -49 -4 -67
q-46 129 -143 275q-38 -25 -79 -37q142 -122 194 -363h-73q1 30 4 57h-72q8 -58 8 -97v-240q0 -48 -6 -77q30 3 74 4h40q27 -70 33 -114zM702 -2q1 3 4 10q12 36 26 88h97q67 0 94 -6v69q-57 -6 -94 -6h-264q-45 0 -95 4v-67q33 6 95 6h96q-15 -41 -44 -84zM137 163v99h87
v-99h-87zM369 165h-85v97h85v-97zM137 314v99h81l6 -99h-87zM369 314h-87l-8 99h95v-99zM754 159q11 8 31 20q17 9 17 12q0 4 -29 27l-35 30q44 31 70 54l-48 34q-2 -2 -6 -7q-35 -39 -48 -49q-28 25 -83 64q-34 -27 -56 -32q4 -2 11 -7q67 -39 87 -55q-1 -1 -3 -2
q-49 -33 -75 -45l36 -34q40 26 73 50q38 -29 58 -60z" />
</svg>
