<?xml version="1.0" standalone="no"?>
<!DOCTYPE svg PUBLIC "-//W3C//DTD SVG 1.1//EN" "http://www.w3.org/Graphics/SVG/1.1/DTD/svg11.dtd" >
<svg xmlns="http://www.w3.org/2000/svg" xmlns:xlink="http://www.w3.org/1999/xlink" version="1.1" viewBox="-10 0 1034 1024">
  <g transform="matrix(1 0 0 -1 0 820)">
   <path fill="currentColor"
d="M333 624l-23 -45q-6 -12 -7 -15q-3 -4 -40 -65l-111 1q-1 0 -41 4q1 -30 5 -61l-1 -275q-3 -12 -4 -42q28 3 59 5l228 -1q13 0 42 -4q-6 36 -6 57l1 278q1 21 5 43q-51 -4 -78 -5h-51l89 166q-27 -1 -54 -5h-138q30 57 43 75q9 13 31 28q-24 9 -59 27q-25 -78 -92 -174
q-27 -39 -48 -59q-18 -16 -45 -29q36 -21 50 -32q10 10 20 23q45 60 52 68q12 15 27 37h146zM153 167v134h102v-134h-102zM153 337v126h102v-126h-102zM292 167v134h104v-134h-104zM292 337v126h104v-126h-104zM70 -25q13 -24 23 -53q27 7 61 19l91 24l196 47l4 50
q-7 -4 -38 -14l-102 -27q-105 -25 -139 -33l-60 -10zM664 456h56v-500q0 -39 25 -54q21 -12 73 -12q82 0 111 33q18 19 34 86l9 35q-22 6 -52 23q1 -22 2 -40q0 -48 -22 -74q-19 -24 -80 -24q-39 0 -50 9q-12 9 -12 37v481h124q45 0 64 -7v48q-6 0 -9 -2q-3 0 -4 -1
q-15 0 -51 -3h-215v227q0 31 14 65h-56l4 -65v-227h-79q-40 0 -66 6v-48q9 6 41 7h100q-6 -135 -27 -239q-21 -127 -118 -235q-60 -63 -106 -79q30 -18 52 -39q54 54 91 97q30 39 62 94q30 51 49 123q18 72 28 179zM850 545q16 15 39 30q-51 67 -91 116l-17 23
q-7 -6 -15 -10q-12 -7 -10 -7q-4 -3 -12 -8q18 -18 30 -36q21 -25 57 -75q12 -16 19 -33v0z" />
  </g>

</svg>
