<?xml version="1.0" standalone="no"?>
<!DOCTYPE svg PUBLIC "-//W3C//DTD SVG 1.1//EN" "http://www.w3.org/Graphics/SVG/1.1/DTD/svg11.dtd" >
<svg xmlns="http://www.w3.org/2000/svg" xmlns:xlink="http://www.w3.org/1999/xlink" version="1.1" viewBox="-10 0 1034 1024">
  <g transform="matrix(1 0 0 -1 0 820)">
   <path fill="currentColor"
d="M417 -11q1 24 5 39q1 6 3 16q-30 -18 -115 -38q-81 -18 -140 -29q-52 -7 -110 -12q21 -36 26 -51q-1 0 0 -2q28 12 59 18q3 1 66 16q183 39 204 43h2zM527 -137q22 13 29 19q39 24 91 61l89 81q79 -88 194 -150q4 7 10 13q15 15 29 28q-49 15 -95 42q-55 36 -113 97
q49 72 83 153q15 34 29 79q13 42 23 77q-36 -1 -72 -5h-200l21 131q292 0 305 -3q1 0 6 -2v46q-33 -1 -66 -5h-243l7 92l6 73q3 54 24 78q-34 1 -66 8q3 -19 4 -55l-9 -132q-1 -3 -1 -8q-1 -30 -5 -56q-123 0 -143 2q-6 3 -19 3v-46q21 3 61 5h99l-16 -110q-3 -31 -11 -61
q-25 -111 -79 -227q-51 -111 -115 -151q33 -7 63 -19q9 12 19 28t21 36q22 42 47 92l37 89q18 45 32 94q13 -27 27 -57q16 -39 28 -59l52 -90q-48 -60 -124 -108q-55 -31 -105 -39q19 -18 46 -44zM610 286l9 36h224q-27 -120 -107 -236q-12 15 -31 50q-21 33 -26 47
q-27 61 -29 95q-37 -13 -45 -14q1 12 5 22zM875 632q-3 3 -60 53l-38 35q-7 7 -15 14q-12 -16 -31 -33q67 -49 118 -108q9 13 31 33q-3 3 -5 6zM100 487q0 3 59 92q9 16 21 31h148q-6 -7 -12 -17q-19 -33 -35 -56q-12 -21 -33 -49q-75 0 -103 2q-7 3 -31 4h-6q1 -33 5 -67
l-1 -270q-3 -15 -4 -46q60 6 89 6l170 -1q25 -1 53 -5q-3 33 -5 67l1 267q0 21 4 49q-72 -6 -94 -6h-34l45 71q36 58 66 92q-36 -1 -74 -5h-128q27 55 39 71q10 18 32 31q-15 6 -28 12t-28 16q-9 -36 -33 -83q-19 -39 -43 -77q-22 -36 -43 -61q-27 -31 -58 -49q15 -4 27 -9
q15 -6 31 -16zM150 152v130h96v-130h-96zM150 318v135h96v-135h-96zM283 152v132h94v-132h-94zM283 318v135h94v-135h-94z" />
  </g>

</svg>
