<?xml version="1.0" standalone="no"?>
<!DOCTYPE svg PUBLIC "-//W3C//DTD SVG 1.1//EN" "http://www.w3.org/Graphics/SVG/1.1/DTD/svg11.dtd" >
<svg xmlns="http://www.w3.org/2000/svg" xmlns:xlink="http://www.w3.org/1999/xlink" version="1.1" viewBox="-10 0 1010 1000">
   <path fill="currentColor"
d="M613 2q10 1 31 3q84 8 80 15q0 2 -5 10q-20 32 -23 58q-5 38 -13 174h121q73 0 133 -6v78q-14 -2 -41 -3q-13 -1 -31 -1h-50h-134q-14 407 -227 581q-34 -35 -103 -48q228 -99 256 -535h-55q-36 0 -70 6v-78q24 4 66 6h61q4 -119 4 -260zM813 52q42 71 80 131l-74 38
q-45 -97 -81 -127zM685 395q98 4 101 14q1 2 -3 7q-17 25 -17 74v264q-1 31 7 35q6 8 40 7q31 1 42 -17q11 -15 18 -78q32 39 83 49q-18 87 -42 105q-12 11 -33 15q-17 3 -64 3q-90 1 -109 -10q-22 -7 -20 -47v-326q0 -59 -3 -95zM448 685l-2 79q-223 25 -353 64l-35 -99
q170 3 390 -44zM208 -6q92 30 98 42q-1 2 -9 5q-19 7 -29 19q-15 21 -36 48h99q73 0 109 -2q-14 20 -38 55q-65 94 -67 101q48 0 112 -4h9q-4 22 -5 44q-1 18 -1 60v170q0 50 1 71q1 25 5 44q-13 -6 -127 -6h-123q-81 0 -115 6q6 -33 6 -95v-196q0 -36 -6 -54q-1 1 -4 5
q-12 17 -22 27q-8 -32 -39 -74q110 -95 182 -266zM325 163h-121q-29 42 -75 93q22 6 56 6h65q19 -23 54 -72q19 -26 21 -27zM165 318v101h79v-101h-79zM304 318v101h79v-101h-79zM304 475v111h79v-111h-79zM165 475v111h79v-111h-79z" />
</svg>
