<?xml version="1.0" standalone="no"?>
<!DOCTYPE svg PUBLIC "-//W3C//DTD SVG 1.1//EN" "http://www.w3.org/Graphics/SVG/1.1/DTD/svg11.dtd" >
<svg xmlns="http://www.w3.org/2000/svg" xmlns:xlink="http://www.w3.org/1999/xlink" version="1.1" viewBox="-10 0 1034 1024">
  <g transform="matrix(1 0 0 -1 0 820)">
   <path fill="currentColor"
d="M334 596l-79 -130l-99 1q-15 3 -40 4q1 -27 5 -54l-1 -279q-3 -12 -4 -38q45 4 55 5l214 -1l39 -4q-4 45 -5 89l1 241l4 41q-25 -1 -52 -5h-74q31 57 58 95q22 36 46 77q-54 -6 -79 -6h-114q12 27 12 30q6 18 20 41q10 19 32 30q-36 12 -58 22q-12 -39 -29 -81
q-18 -42 -39 -77q-28 -49 -50 -78q-16 -22 -44 -43q33 -15 36 -15q6 -3 12 -7q28 40 49 73q18 30 41 69h143zM158 141v129h93v-129h-93zM158 306v124h93v-124h-93zM289 141v129h92v-129h-92zM289 306v124h92v-124h-92zM70 -38q3 -12 8 -27q4 -9 6 -15q0 -3 1 -7l145 35
l169 33l39 6q1 21 9 48q-27 -9 -52 -15l-76 -16q-84 -18 -139 -27q-49 -7 -110 -15zM467 336q3 0 5 -1q9 15 16 27q18 33 37 64v-514q0 -36 -4 -51q-1 -1 -1 -5h48q-3 27 -5 56v591l66 155q15 42 45 58q-10 1 -19 4q-13 3 -42 16q-33 -121 -96 -247q-51 -99 -95 -144
q33 -6 45 -9zM809 470l-165 1q-24 3 -38 4q-3 1 -5 1v-47q19 4 60 5h148v-481q0 -25 -7 -33q-6 -9 -32 -13l-30 -2q-21 0 -54 4q15 -30 20 -49q24 0 95 10q16 4 28 12q18 15 19 60v492q93 0 103 -3q4 0 8 -2v47q-63 -6 -92 -6h-19v206q0 9 2 25q1 18 13 35h-59q4 -15 5 -60
v-206zM646 319q-12 -9 -29 -20q37 -49 61 -89q28 -48 41 -79q18 13 39 21l-41 67q-25 42 -67 103q-3 -1 -4 -3v0z" />
  </g>

</svg>
