<?xml version="1.0" standalone="no"?>
<!DOCTYPE svg PUBLIC "-//W3C//DTD SVG 1.1//EN" "http://www.w3.org/Graphics/SVG/1.1/DTD/svg11.dtd" >
<svg xmlns="http://www.w3.org/2000/svg" xmlns:xlink="http://www.w3.org/1999/xlink" version="1.1" viewBox="-10 0 1010 1000">
   <path fill="currentColor"
d="M194 -8q25 14 68 28q28 10 28 14q0 6 -15 15q-14 9 -19 15q-4 6 -14 20q-11 16 -20 28h109q13 0 43 -1q39 -1 61 -1q-23 26 -72 96q-27 38 -38 52q74 0 127 -4q-6 33 -6 88v200q0 51 4 105q-35 -6 -105 -6h-151q-66 0 -105 6q6 -34 6 -115v-163q1 -56 -6 -71l-10 15
q-7 13 -16 23q-14 -39 -49 -68q118 -109 180 -276zM915 64v83q-19 -2 -53 -3q-16 -1 -39 -1h-59h-34v371h44q107 0 172 -6v82q-39 -2 -79 -3q-20 -1 -42 -1h-51h-46v166q3 108 10 153h-91q8 -55 8 -155v-164q-142 0 -185 6v-84q63 6 187 6v-371q-99 0 -179 8v-85q58 6 185 6
h95q75 0 157 -8zM312 177h-127q-11 13 -32 42q-17 22 -26 33q19 7 58 8h67q4 -6 12 -17q30 -42 48 -66zM563 207q26 129 44 238l-79 12q-2 -116 -44 -238zM833 211q89 20 92 31q0 2 -5 5q-16 11 -21 31q-27 98 -64 189q-36 -17 -69 -20q46 -93 67 -236zM163 326v95h79v-95
h-79zM300 324v97h79v-97h-79zM242 475h-79v101h79v-101zM300 475v101h79v-101h-79zM456 691q-13 36 -14 79q-201 23 -377 60l-27 -92q215 -11 418 -47z" />
</svg>
