<?xml version="1.0" standalone="no"?>
<!DOCTYPE svg PUBLIC "-//W3C//DTD SVG 1.1//EN" "http://www.w3.org/Graphics/SVG/1.1/DTD/svg11.dtd" >
<svg xmlns="http://www.w3.org/2000/svg" xmlns:xlink="http://www.w3.org/1999/xlink" version="1.1" viewBox="-10 0 1010 1000">
   <path fill="currentColor"
d="M645 12q95 -4 101 6q1 3 -4 8q-16 19 -16 50v39h131q57 0 91 -5l-2 75q-30 -6 -85 -6h-135v101h119q34 -1 64 -4q-6 42 -6 97v183q0 46 1 64q1 22 3 35h-90q6 -27 6 -67h-206q-4 172 -169 333q-38 -38 -93 -48q130 -85 157 -175q37 -95 30 -348q-1 -44 -6 -74q27 4 49 4
h66v-168q0 -73 -6 -100zM823 344h-204v180h204v-180zM444 703l-15 83q-171 14 -352 58l-21 -94q226 -11 388 -47zM204 -2q10 3 28 9q84 27 78 37q0 2 -7 5q-16 7 -27 19q-14 11 -40 47h95q32 0 88 -2q22 -1 33 -1q-14 19 -46 74q-35 60 -47 74q39 0 100 -5q6 -1 9 -1
q-6 36 -6 88v208q0 28 5 81q2 18 3 26q-5 0 -16 -1q-56 -5 -85 -5h-173q-38 0 -97 8q6 -36 6 -97v-228q0 -22 -4 -32l-38 40q-12 -37 -43 -70q105 -90 184 -274zM335 177h-139q-15 25 -47 68l-6 9q9 6 36 6h99q43 -57 57 -83zM252 324h-75v103h75v-103zM391 324h-78v103h78
v-103zM177 487v101h75v-101h-75zM313 487v101h78v-101h-78z" />
</svg>
