<?xml version="1.0" standalone="no"?>
<!DOCTYPE svg PUBLIC "-//W3C//DTD SVG 1.1//EN" "http://www.w3.org/Graphics/SVG/1.1/DTD/svg11.dtd" >
<svg xmlns="http://www.w3.org/2000/svg" xmlns:xlink="http://www.w3.org/1999/xlink" version="1.1" viewBox="-10 0 1010 1000">
   <path fill="currentColor"
d="M581 -6q113 38 109 48q0 2 -8 8q-19 15 -25 30q-29 67 -56 135v569v43q-1 56 2 74h-87q6 -31 6 -117v-428q-5 10 -15 29q-21 39 -33 58q-19 -32 -41 -46v155q0 62 5 101q-25 -2 -46 -3q-18 -1 -53 -1h-160q-56 1 -90 6q8 -35 8 -101v-181q0 -25 -6 -49q-2 2 -7 11
q-15 23 -21 27q-11 -35 -41 -70q132 -137 170 -298q87 31 94 42q-1 2 -6 5q-13 8 -24 23q-9 13 -34 51h97q65 0 100 -3q-27 48 -59 112q-18 36 -27 52q49 0 107 -4q-5 49 -5 88q109 -153 146 -366zM806 10q112 10 105 16q0 3 -4 8q-14 20 -14 64v150h26q24 0 59 -4v80
q-1 0 -4 -1q-20 -3 -55 -3h-26v500q1 40 -29 55q-26 16 -122 28q-6 -54 -50 -111q126 28 121 -10v-462h-105q-54 0 -85 3q-2 1 -4 1v-80q36 4 81 4h113v-127q0 -56 -7 -108v-3zM720 393q25 79 54 211l-91 19q-12 -139 -40 -210zM450 707l-17 81q-206 18 -348 56l-29 -96
q154 2 394 -41zM308 173h-116q-23 45 -65 99q11 4 46 4h81q28 -42 54 -103zM367 338h-73v93h73v-93zM161 338v93h71v-93h-71zM161 487v101h71v-101h-71zM294 487v101h75v-101h-75z" />
</svg>
