<?xml version="1.0" standalone="no"?>
<!DOCTYPE svg PUBLIC "-//W3C//DTD SVG 1.1//EN" "http://www.w3.org/Graphics/SVG/1.1/DTD/svg11.dtd" >
<svg xmlns="http://www.w3.org/2000/svg" xmlns:xlink="http://www.w3.org/1999/xlink" version="1.1" viewBox="-10 0 1010 1000">
   <path fill="currentColor"
d="M210 -8q80 18 98 32q-1 2 -8 6q-21 10 -30 26l-24 42q-13 24 -20 35h84q71 0 97 -8q-30 54 -74 134q-12 23 -18 33h26q46 0 57 -1q15 0 27 -3v4q-4 31 -4 87v191q0 52 4 89q-40 -4 -94 -4h-148q-46 0 -82 4q0 -4 1 -11q3 -33 3 -88v-242l-26 30q-22 -29 -61 -52
q114 -103 192 -304zM931 86v87q-39 -8 -119 -8h-84q-18 39 -40 115h80q105 0 143 -8q-8 26 -8 129v415q7 77 -131 87q1 -41 -24 -85q58 10 69 4q15 -3 14 -34v-438h-61v333q0 71 8 101h-74q8 -33 8 -101v-333h-59v333q0 57 7 98q1 6 1 9h-74q5 -21 6 -41q2 -20 2 -66v-333
h-53v420q0 85 8 131h-88q8 -51 8 -133v-371q0 -87 -8 -125q26 9 125 8h40q10 -51 16 -115h-95q-66 -1 -108 8v-87q3 0 10 1q39 7 98 7h260q81 0 123 -8zM294 193h-104q-11 19 -63 99h109q4 -7 12 -20q33 -52 46 -79zM355 350h-63v99h63v-99zM236 352h-65v97h65v-97zM236 500
h-65v96h65v-96zM355 500h-63v96h63v-96zM437 703q-16 29 -16 83q-182 11 -340 58q-2 -7 -8 -27q-13 -39 -21 -67q162 -5 385 -47z" />
</svg>
