<?xml version="1.0" standalone="no"?>
<!DOCTYPE svg PUBLIC "-//W3C//DTD SVG 1.1//EN" "http://www.w3.org/Graphics/SVG/1.1/DTD/svg11.dtd" >
<svg xmlns="http://www.w3.org/2000/svg" xmlns:xlink="http://www.w3.org/1999/xlink" version="1.1" viewBox="-10 0 1034 1024">
  <g transform="matrix(1 0 0 -1 0 820)">
   <path fill="currentColor"
d="M120 491l62 96h133l-44 -76l-25 -42q-78 0 -99 2l-32 3l5 -91l-1 -242q-3 -12 -4 -41q27 3 55 5l209 -1l41 -4q-6 54 -6 71v98q24 -4 45 -18l85 114v-454q0 -36 -4 -51q-1 -1 -1 -5h47q-3 21 -5 44v178h265v-131q0 -19 -7 -27q-3 -3 -22 -8l-30 -1q-18 0 -46 5
q9 -15 13 -24q0 -6 11 -29q9 0 18 2l51 8q28 9 38 16q12 12 13 49l1 458l4 41l-57 -6h-249l56 119l300 -1q12 0 26 -4v46q-31 -1 -63 -5h-252q15 39 28 79q12 42 19 53q6 9 24 20q-34 12 -61 24q-9 -49 -21 -89q-10 -39 -28 -87l-134 1q-9 1 -31 2q-3 0 -12 2v-46q22 4 60 5
h102q-18 -49 -72 -138q-61 -94 -111 -136l1 159q0 9 5 40q-28 -1 -57 -5h-72q33 63 51 89l20 32q12 16 25 38q-30 -1 -59 -5h-126l36 70q15 27 39 39q-36 10 -58 21q-39 -105 -79 -169q-49 -73 -94 -104q24 -9 53 -19zM157 141v129h96v-129h-96zM157 306v127h96v-127h-96z
M291 141v129h85v-129h-85zM291 306v127h85v-127h-85zM581 113v116h265v-116h-265zM581 265v129h265v-129h-265zM399 -31l41 6q3 24 12 48q-37 -12 -74 -19q-42 -9 -114 -22l-80 -12q-28 -4 -52 -7q-36 -3 -73 -6q18 -31 25 -50q67 21 235 49q39 7 80 13v0z" />
  </g>

</svg>
