<?xml version="1.0" standalone="no"?>
<!DOCTYPE svg PUBLIC "-//W3C//DTD SVG 1.1//EN" "http://www.w3.org/Graphics/SVG/1.1/DTD/svg11.dtd" >
<svg xmlns="http://www.w3.org/2000/svg" xmlns:xlink="http://www.w3.org/1999/xlink" version="1.1" viewBox="-10 0 1034 1024">
  <g transform="matrix(1 0 0 -1 0 820)">
   <path fill="currentColor"
d="M363 596q-45 -72 -92 -136q-99 0 -119 2q-6 3 -34 3l6 -57l-1 -267q-3 -15 -4 -29q-1 -6 -1 -14q39 4 61 5l227 -1l42 -4q-3 27 -5 56l1 271q0 15 4 40q-30 -1 -59 -5h-72q12 19 25 38l90 139q-28 -1 -58 -5h-147q33 60 46 75q10 13 30 22q-33 15 -56 29q-10 -27 -35 -77
l-76 -122q-43 -57 -87 -91q21 -7 46 -25q27 33 53 70l58 83h157zM160 299v125h106v-125h-106zM266 139h-106v124h106v-124zM405 299h-101v125h101v-125zM304 139v124h101v-124h-101zM82 -50q1 -6 5 -12q9 -19 12 -30q24 9 76 22l170 39l112 22q1 19 9 47q-36 -12 -79 -24
q-48 -12 -128 -28l-106 -20q-37 -6 -74 -10zM682 -84l-239 2q-6 0 -16 5v-48q15 3 12 3q24 3 47 3l461 -1q15 -1 31 -5v48q-48 -6 -62 -7h-196v190h152q25 0 47 -3q1 0 16 -2v47q-21 -1 -44 -5l-171 -1v82q0 9 2 25q1 18 12 35h-57q1 -6 3 -13q1 -18 2 -47v-82l-172 3
q-3 1 -8 3v-47q42 6 67 5h113v-190zM680 349l-200 4q-4 1 -7 2v-47q39 4 61 5l398 -1q7 0 16 -2q1 0 16 -2v47q-4 0 -7 -2l-57 -4h-182v175h140q24 0 47 -3q1 0 16 -2v47q-21 -1 -44 -5l-159 -1q0 163 3 169q1 15 11 28h-57q1 -30 5 -61v-136l-172 3q-3 1 -8 3v-47
q42 6 68 5h112v-175z" />
  </g>

</svg>
