<?xml version="1.0" standalone="no"?>
<!DOCTYPE svg PUBLIC "-//W3C//DTD SVG 1.1//EN" "http://www.w3.org/Graphics/SVG/1.1/DTD/svg11.dtd" >
<svg xmlns="http://www.w3.org/2000/svg" xmlns:xlink="http://www.w3.org/1999/xlink" version="1.1" viewBox="-10 0 1010 1000">
   <path fill="currentColor"
d="M663 12q101 1 105 12q0 3 -4 8q-14 22 -14 68v61h69q60 0 96 -6v82q-28 -5 -100 -8h-65v134h103q44 0 57 -1q16 -1 30 -4v79q-38 -6 -83 -6h-290q-37 0 -47 1q-14 0 -30 3v-75q22 4 50 3h23h106v-134h-66q-48 0 -97 6v-80q36 6 99 6h64v-53q0 -54 -6 -96zM665 465
q97 1 105 10q0 5 -6 12q-14 18 -14 47v54h75q27 0 62 -3q9 -1 14 -1v75q-27 -4 -80 -4h-71v157h111q48 0 89 -4v75q-9 -2 -29 -3q-16 -1 -62 -1h-296q-49 0 -85 6v-77q41 4 97 4h94v-157h-70q-48 0 -87 6v-79q32 6 87 6h70v-50q0 -46 -4 -73zM458 727l-6 79q-287 45 -361 75
l-35 -99q236 -13 402 -55zM212 12q85 25 100 40q0 3 -11 12q-11 8 -17 14q-20 22 -40 51h103q43 0 59 -1q21 -1 36 -3q-3 6 -11 18q-49 79 -88 145q83 0 119 -8q-2 14 -3 39q-1 11 -1 28v44v169q0 56 1 75q0 24 3 56q-30 -8 -145 -8h-81q-57 0 -82 1q-31 1 -53 3
q7 -48 8 -123v-185q0 -37 -4 -47q-4 4 -14 16q-9 9 -14 15q-15 -41 -39 -73q118 -108 174 -278zM325 193h-115q-27 43 -65 85q4 5 43 8h78q13 -20 38 -60zM313 348v99h78v-99h-78zM177 346v101h77v-101h-77zM254 508h-77v115h77v-115zM313 508v115h78v-115h-78z" />
</svg>
