<?xml version="1.0" standalone="no"?>
<!DOCTYPE svg PUBLIC "-//W3C//DTD SVG 1.1//EN" "http://www.w3.org/Graphics/SVG/1.1/DTD/svg11.dtd" >
<svg xmlns="http://www.w3.org/2000/svg" xmlns:xlink="http://www.w3.org/1999/xlink" version="1.1" viewBox="-10 0 1034 1024">
  <g transform="matrix(1 0 0 -1 0 820)">
   <path fill="currentColor"
d="M121 481q18 27 39 55q18 24 42 65h177l-55 -75q-21 -28 -46 -59l-114 1l-43 4q6 -54 6 -74l-1 -260q-1 -4 -5 -45q28 3 59 5l237 -1l42 -4q-4 49 -5 77l1 259q0 19 4 43q-28 -1 -57 -5h-72l36 52l92 124q-31 -1 -64 -5h-172l36 66q12 24 37 40q-36 9 -62 21
q-21 -70 -71 -153q-57 -94 -113 -136q30 -13 37 -18q6 -3 12 -8q10 16 23 31zM164 303v128h107v-128h-107zM164 134v133h107v-133h-107zM309 303v128h107v-128h-107zM309 134v133h107v-133h-107zM73 -58q6 -12 12 -28q18 3 33 7q34 7 69 14q27 3 107 16q69 9 107 16l74 8
q6 22 11 49q-34 -9 -68 -15q-37 -7 -103 -18q-84 -12 -143 -20q-51 -4 -108 -7q4 -10 9 -22zM704 595l-208 1q-9 3 -19 5v-47q39 4 61 5h166v-169l-167 1q-9 3 -19 5v-47q39 4 61 5l319 -1q6 0 15 -2q1 0 16 -2v47q-60 -6 -79 -6h-108v169h166q22 0 46 -3q1 0 16 -2v47
q-60 -6 -84 -6h-144v103q0 6 2 24q1 19 12 36h-57q0 -7 3 -13zM542 241q1 -30 5 -60l-1 -313q-1 -10 -4 -22h47q-4 30 -5 52v34h279v-30q0 -30 -4 -44q0 -4 -2 -12h50q-6 18 -6 34l-1 301q1 31 7 60q-49 -4 -62 -5l-264 1q-15 3 -39 4zM584 -32v232h279v-232h-279z" />
  </g>

</svg>
