<?xml version="1.0" standalone="no"?>
<!DOCTYPE svg PUBLIC "-//W3C//DTD SVG 1.1//EN" "http://www.w3.org/Graphics/SVG/1.1/DTD/svg11.dtd" >
<svg xmlns="http://www.w3.org/2000/svg" xmlns:xlink="http://www.w3.org/1999/xlink" version="1.1" viewBox="-10 0 1034 1024">
  <g transform="matrix(1 0 0 -1 0 820)">
   <path fill="currentColor"
d="M657 -77h-199q-42 0 -55 3q-3 1 -6 1q-1 0 -8 1v-46q3 3 19 3q7 1 48 2q483 0 494 -3q1 0 6 -2v46q-4 0 -7 -1q-18 0 -58 -4h-197v169q178 0 188 -3q1 0 6 -2v46q-33 -1 -65 -5h-129v23q0 13 4 28q1 18 14 40h-62q0 -9 7 -64q-1 -1 0 -4v-23q-138 0 -159 2q-6 3 -19 3
v-46q3 3 20 3q9 1 151 2h7v-169zM526 289q-3 12 -3 28q0 21 -2 41v263q0 15 2 32q3 19 13 38h-58l5 -87l-5 -315h48zM637 236q-4 49 -5 70l1 374q0 18 4 29q3 12 11 23h-59q4 -49 5 -74q-3 -408 -5 -422h48zM654 284q4 0 7 -3q12 -12 24 -18q18 12 44 42q21 21 35 37
q15 16 38 46q7 -9 12 -17q60 -69 82 -90q4 -4 32 -29q18 19 41 36q-81 42 -145 133q24 52 41 94q13 39 29 95q12 33 19 60q-39 -1 -80 -5l-163 1q-10 1 -19 3v-42q12 3 46 4q25 -114 80 -213q-67 -97 -135 -127q6 -3 12 -7zM861 631q-13 -57 -26 -97q-12 -34 -36 -78
q-22 37 -40 83q-12 30 -24 92h126zM89 -90l60 17l109 22l93 20l49 10q15 1 33 6q1 25 5 38q1 6 3 16q-13 -9 -27 -14q-27 -9 -72 -20q-21 -3 -138 -30q-84 -12 -107 -13q-10 0 -33 3zM95 450q10 18 47 71l31 47q7 13 16 26h122l-35 -62q-18 -31 -37 -60q-60 0 -88 2
q-6 3 -37 3q1 -33 5 -66l-1 -270q-3 -15 -4 -45q54 4 78 5l182 -1l52 -4q-4 54 -5 66l1 267q0 21 4 48q-36 -1 -71 -5h-73q63 105 65 108q24 33 37 55q-34 -1 -69 -5h-105q39 78 71 93q-28 6 -62 21q-15 -61 -89 -177q-33 -51 -49 -68q-18 -18 -46 -30q30 -9 56 -26q1 4 4 7
zM156 136v131h96v-131h-96zM156 303v133h96v-133h-96zM290 136v133h93v-133h-93zM290 303v133h93v-133h-93z" />
  </g>

</svg>
