<?xml version="1.0" standalone="no"?>
<!DOCTYPE svg PUBLIC "-//W3C//DTD SVG 1.1//EN" "http://www.w3.org/Graphics/SVG/1.1/DTD/svg11.dtd" >
<svg xmlns="http://www.w3.org/2000/svg" xmlns:xlink="http://www.w3.org/1999/xlink" version="1.1" viewBox="-10 0 1034 1024">
  <g transform="matrix(1 0 0 -1 0 820)">
   <path fill="currentColor"
d="M95 209q67 39 140 95q69 55 150 145h209q115 -142 346 -237q16 27 34 45q-73 6 -173 64q-96 55 -157 128l276 -1q3 0 27 -4v46q-48 -6 -64 -6h-471q9 19 20 38q10 21 22 41l386 -1l26 -4v46q-51 -6 -63 -6h-336l29 77q13 40 19 47q4 7 25 21q-43 9 -68 17
q-4 -54 -45 -162l-227 1q-9 1 -30 2q-7 1 -13 3v-46q24 4 60 5h195q-21 -39 -47 -79q-282 3 -292 5q-1 1 -2 1v-46q18 4 61 5h203q-67 -78 -159 -141q-66 -45 -123 -63q6 -3 15 -12q12 -12 27 -24zM104 -109q39 4 60 5l713 -1q7 0 15 -2q3 0 17 -2v45q-31 -1 -63 -5
q-720 0 -732 3q-6 1 -10 2v-45zM369 645l2 3q1 1 3 5q-24 19 -79 56q-7 4 -12 8q-15 9 -39 26q-12 -21 -24 -32q40 -24 124 -83q4 -3 9 -6q1 6 6 10q4 7 10 13zM243 269q6 -54 6 -66l-1 -164q-4 -15 -5 -37v-7q48 6 58 6l434 -1q24 -1 48 -5q-6 60 -6 82l1 145q1 24 5 47
q-28 -1 -57 -5h-143q45 63 65 85q3 3 6 7q-55 -4 -72 -5h-153q30 37 39 44q10 9 29 14l-50 28q-18 -31 -58 -79q-12 -15 -37 -37q-18 -15 -41 -30q16 -10 32 -27l-80 4q-10 1 -20 1zM487 114v-79h-202v79h202zM285 149v80h202v-80h-202zM350 264l47 52h182l-40 -52h-189z
M740 114v-79h-215v79h215zM525 149v80h215v-80h-215zM677 664q39 33 50 40q12 7 38 12q-9 6 -17 14q-10 9 -19 17q-6 3 -13 10q-24 -31 -60 -65q-34 -27 -64 -46q19 -13 32 -26q9 6 19 16q16 15 34 28v0z" />
  </g>

</svg>
