<?xml version="1.0" standalone="no"?>
<!DOCTYPE svg PUBLIC "-//W3C//DTD SVG 1.1//EN" "http://www.w3.org/Graphics/SVG/1.1/DTD/svg11.dtd" >
<svg xmlns="http://www.w3.org/2000/svg" xmlns:xlink="http://www.w3.org/1999/xlink" version="1.1" viewBox="-10 0 1034 1024">
  <g transform="matrix(1 0 0 -1 0 820)">
   <path fill="currentColor"
d="M359 589q-6 -9 -19 -32q-36 -61 -60 -95q-96 0 -120 2q-6 3 -31 3q1 -28 5 -58l-1 -277q-3 -12 -4 -43q19 4 50 5l238 -1q12 0 41 -4q-4 48 -5 91v137q13 -6 26 -13q4 -1 8 -4q51 49 96 103q15 18 27 33q10 10 18 19q9 10 27 17q3 0 7 2q-27 13 -43 23q-6 4 -15 9
q-67 -126 -151 -173l1 94l4 40q-30 -1 -59 -5h-73q69 111 84 132l22 36q-34 -1 -69 -5h-131l50 86q12 18 38 31q-25 9 -60 23q-13 -36 -44 -93q-42 -69 -93 -134q-43 -51 -78 -74q21 -9 44 -26q63 72 122 151h148zM171 300v126h106v-126h-106zM171 130v134h106v-134h-106z
M315 130v134h100v-134h-100zM315 300v126h100v-126h-100zM101 -97q70 24 255 59l117 23q4 24 11 49l-119 -31q-21 -3 -44 -9q-120 -24 -153 -29q-48 -7 -90 -10q12 -21 22 -50zM837 299q-3 0 -6 3q-15 9 -33 19q-30 -78 -43 -104q-33 -66 -70 -118q-42 60 -66 111
q-28 60 -31 99q-37 -15 -47 -17q28 -66 53 -114q27 -48 66 -112q-48 -55 -114 -105q-84 -57 -179 -73q25 -19 39 -45q94 39 153 78q57 37 129 113q67 -63 115 -98q58 -39 138 -85q18 30 38 48q-61 12 -138 61q-75 48 -130 110q30 42 46 71q36 60 53 97q15 33 20 39
q3 6 22 16zM948 582q-7 -1 -17 -3q-33 -3 -46 -3l-428 1q-7 1 -23 2l-12 3v-47q16 4 60 5l440 -1q1 0 26 -4v47zM568 719q49 -36 81 -63q30 -27 67 -63q7 15 26 35q-63 60 -147 123q-9 -16 -27 -32zM742 477l39 -34q61 -57 91 -89q13 -16 30 -38q19 27 26 31q1 1 5 3
q-34 36 -80 81l-84 76q-6 -9 -17 -19q-1 -1 -3 -4q-4 -3 -7 -7v0z" />
  </g>

</svg>
