<?xml version="1.0" standalone="no"?>
<!DOCTYPE svg PUBLIC "-//W3C//DTD SVG 1.1//EN" "http://www.w3.org/Graphics/SVG/1.1/DTD/svg11.dtd" >
<svg xmlns="http://www.w3.org/2000/svg" xmlns:xlink="http://www.w3.org/1999/xlink" version="1.1" viewBox="-10 0 1010 1000">
   <path fill="currentColor"
d="M187 -8q9 4 25 11q74 32 70 35q1 2 -14 17q-34 35 -50 62h92q53 0 91 -5q-7 3 -67 106q-21 36 -34 58q63 0 107 -6q-6 45 -6 121v171q0 82 6 117q-54 -8 -97 -8h-118q-61 0 -111 6q8 -48 8 -101v-216q1 -41 -4 -54q-2 3 -8 10q-5 6 -8 10q-17 -41 -45 -72
q113 -97 163 -262zM573 16q7 0 21 1q69 1 67 9q1 3 -3 9q-11 15 -11 37l-2 381q0 25 6 55h-80q6 -27 6 -101v-319q1 -55 -4 -72zM450 60q92 3 90 12q1 3 -3 10q-13 21 -13 55v250v58q1 19 2 40h-74q4 -11 4 -100v-254q0 -44 -6 -71zM284 177h-99q-38 56 -74 93q10 6 50 6h65
q31 -39 58 -99zM214 336h-63v107h63v-107zM339 336h-69v105h69v-105zM151 498v114h63v-114h-63zM270 496v116h69v-116h-69zM417 713q-9 37 -4 79q-225 29 -342 66l-27 -90q157 -10 373 -55zM663 453q47 -13 93 -72q-44 -83 -68 -230l52 -18q-6 1 -17 1q-25 2 -36 5v-73
q20 2 53 3q16 1 37 1h52q55 0 111 -4q-37 203 -101 313q56 51 131 68q-40 28 -59 75q-68 -34 -115 -89q-34 48 -78 85q12 0 14 6q1 3 -5 10q-13 17 -13 34v49q116 -1 189 -7v79q-54 -7 -189 -8v129h58q49 0 162 -3q13 -1 20 -1v83q-81 -11 -204 -12h-159q-100 0 -192 6v-81
q38 8 174 8h64v-129q-144 0 -171 6v-77q27 4 67 6q20 0 44 1h60v-49q0 -43 -6 -54q32 0 64 2h9q-16 -36 -41 -63zM752 131q15 123 42 191q35 -72 57 -191h-99z" />
</svg>
