<?xml version="1.0" standalone="no"?>
<!DOCTYPE svg PUBLIC "-//W3C//DTD SVG 1.1//EN" "http://www.w3.org/Graphics/SVG/1.1/DTD/svg11.dtd" >
<svg xmlns="http://www.w3.org/2000/svg" xmlns:xlink="http://www.w3.org/1999/xlink" version="1.1" viewBox="-10 0 1034 1024">
  <g transform="matrix(1 0 0 -1 0 820)">
   <path fill="currentColor"
d="M777 216h-252q-46 0 -65 5v-47q6 3 11 3q21 3 54 3h252v-261q0 -21 -19 -28q-16 -6 -49 -7q-30 0 -62 5q9 -22 17 -50q55 3 86 9q25 6 45 17q19 15 20 54v261h98q43 0 62 -6v47q-3 0 -12 -3l-96 -2h-52v37q0 28 15 63h-58q0 -6 2 -11zM839 518v-121l-352 2q-3 1 -4 1
q-4 0 -11 2v-46q24 4 57 5l311 -1l42 -4q-3 30 -5 59l1 256l4 39q-60 -4 -77 -5l-301 1q-18 1 -29 4v-47q6 3 11 3q21 3 55 3h298v-115h-282q-45 0 -65 5v-47q9 4 26 5zM644 43q-16 18 -78 95q-12 -15 -24 -24q-3 -3 -6 -5q45 -42 95 -123q15 18 35 29zM321 606
q-7 -16 -21 -37q-12 -16 -24 -34q-7 -15 -26 -37q-78 0 -99 2q-6 3 -34 3q0 -27 5 -57v-291q-4 -24 -5 -49q28 3 59 5l218 -1l43 -4l-3 29q-3 19 -3 65l1 260q1 21 5 43q-51 -4 -76 -5h-65q6 6 33 48l64 95q0 4 4 7q-60 -6 -79 -6h-113l36 65q15 24 43 45q-54 18 -61 21
q-13 -40 -26 -63q-25 -46 -53 -89q-25 -37 -45 -61q-28 -31 -58 -47q31 -13 50 -27q12 15 34 45q9 9 57 75h139zM159 147v143h96v-143h-96zM159 325v137h96v-137h-96zM292 147v143h102v-143h-102zM292 325v137h102v-137h-102zM61 -38l10 -30l7 -27q37 16 95 29q72 12 145 28
q45 9 77 14q28 3 58 9q3 21 10 47q-22 -4 -43 -11q-6 0 -144 -28l-90 -16q-93 -15 -118 -15h-7z" />
  </g>

</svg>
