<?xml version="1.0" standalone="no"?>
<!DOCTYPE svg PUBLIC "-//W3C//DTD SVG 1.1//EN" "http://www.w3.org/Graphics/SVG/1.1/DTD/svg11.dtd" >
<svg xmlns="http://www.w3.org/2000/svg" xmlns:xlink="http://www.w3.org/1999/xlink" version="1.1" viewBox="-10 0 1010 1000">
   <path fill="currentColor"
d="M472 693l-10 81q-249 27 -393 68l-23 -98q202 -6 426 -51zM710 -10q30 63 48 120l-85 25q-21 -71 -50 -117zM468 141q30 5 55 6q25 2 70 2h230q90 0 125 -6v76q-42 -6 -125 -6h-226q-96 0 -129 6v-78zM788 250q121 105 174 165q-46 23 -79 50q-49 -80 -155 -165
q24 -18 60 -50zM466 431q93 -81 129 -177q12 6 35 17q62 30 57 33q-1 3 -10 7q-26 10 -36 29q-19 35 -95 121l77 -12q-9 88 67 198q57 -105 62 -208q105 20 99 26q0 2 -5 7q-17 19 -27 50q-30 100 -77 177q89 77 228 115q-54 36 -85 81q-94 -57 -191 -135q-92 88 -250 159
q-23 -42 -81 -79q181 -38 280 -133q-68 -87 -105 -238q-8 6 -14 16q-13 -20 -44 -43q-9 -7 -14 -11zM202 2q104 29 102 46q0 2 -7 5q-16 7 -27 19q-13 13 -38 47h91q49 0 117 -4q-15 22 -49 82q-30 54 -40 67q54 0 101 -4q-4 39 -4 82v222q0 46 4 97q-6 0 -18 -2
q-48 -4 -75 -4h-167q-36 0 -91 8q6 -36 6 -97v-228q0 -22 -4 -32l-36 40q-12 -37 -43 -70q104 -92 178 -274zM327 181h-133q-2 3 -5 8q-27 46 -46 69q9 6 36 6h91q32 -40 57 -83zM248 328h-73v103h73v-103zM381 328h-73v103h73v-103zM175 490v102h73v-102h-73zM308 490v102
h73v-102h-73z" />
</svg>
