<?xml version="1.0" standalone="no"?>
<!DOCTYPE svg PUBLIC "-//W3C//DTD SVG 1.1//EN" "http://www.w3.org/Graphics/SVG/1.1/DTD/svg11.dtd" >
<svg xmlns="http://www.w3.org/2000/svg" xmlns:xlink="http://www.w3.org/1999/xlink" version="1.1" viewBox="-10 0 1034 1024">
  <g transform="matrix(1 0 0 -1 0 820)">
   <path fill="currentColor"
d="M321 607q-24 -51 -40 -80l-34 -59q-67 0 -92 2q-6 3 -31 3q1 -28 5 -58l-1 -284q-3 -12 -4 -40q45 4 67 5q159 0 173 -2q15 0 33 -3q-4 48 -5 93l1 247l4 42q-55 -4 -87 -5h-18q16 30 33 62l63 118l-106 -5h-61q12 30 30 58q12 21 37 39q-54 21 -60 25q-6 -28 -39 -100
q-15 -30 -31 -58q-15 -28 -29 -46q-27 -39 -46 -61q-15 -16 -33 -31q18 -7 46 -25q45 55 106 163h119zM241 302h-75v130h75v-130zM241 132h-75v134h75v-134zM279 266h75v-134h-75v134zM279 302v130h75v-130h-75zM86 -79q6 -15 11 -24l10 -27q22 6 41 15q48 16 143 44
q87 25 121 33l6 49q-67 -24 -153 -48q-88 -24 -179 -42zM970 689q-30 -6 -62 -6l-455 1q-7 1 -22 2l-12 3v-47q16 4 59 5l467 -1q12 0 25 -4v47zM457 515q1 -27 5 -55l-1 -588q-1 -13 -4 -27h48q0 1 -1 5q-3 15 -4 51v572l124 1v-558q0 -18 -7 -23q-12 -6 -35 -6
q-18 1 -35 4q10 -22 17 -48q1 1 18 2l42 7q4 1 10 4q27 12 28 60l1 559l4 40q-28 -1 -57 -5l-115 1q-15 3 -38 4zM549 296q-7 12 -11 18q-16 -9 -34 -17l46 -81q15 -27 24 -50q13 12 34 23q-13 30 -33 63zM725 -97q0 -36 -5 -56h47q-3 21 -5 44v588h135v-546q0 -22 -4 -30
q-3 -6 -15 -9q-10 -1 -25 -2q-16 0 -43 4q13 -30 19 -53q25 6 44 7q21 3 37 9q24 12 25 68l1 550q0 19 4 43q-27 -1 -55 -5l-129 1q-6 1 -36 4q1 -30 5 -60v-557zM824 292q-9 12 -16 24q-16 -13 -33 -23q61 -85 83 -141q18 13 32 27q-3 6 -66 113v0z" />
  </g>

</svg>
