<?xml version="1.0" standalone="no"?>
<!DOCTYPE svg PUBLIC "-//W3C//DTD SVG 1.1//EN" "http://www.w3.org/Graphics/SVG/1.1/DTD/svg11.dtd" >
<svg xmlns="http://www.w3.org/2000/svg" xmlns:xlink="http://www.w3.org/1999/xlink" version="1.1" viewBox="-10 0 1010 1000">
   <path fill="currentColor"
d="M407 66q42 3 111 4h327q69 -1 107 -4v75q-18 -2 -43 -3q-12 -1 -27 -1h-39h-323q-72 0 -113 4v-75zM425 211q31 3 79 4h48q41 0 89 -6q-2 17 -3 45q-1 13 -1 31v49v478q12 63 -103 83q1 -44 -22 -81q69 14 65 -34v-135l-37 8q-23 -167 -52 -252v339q0 68 1 95q1 33 3 54
h-67q0 -11 1 -40q3 -59 3 -99v-428q0 -75 -4 -111zM488 276v107l36 -4q26 101 53 227v-330h-89zM696 209q36 3 84 4h53q25 0 84 -3q8 -1 12 -1q-6 42 -6 123v480q14 63 -110 83q1 -45 -25 -81q80 15 75 -30v-143l-44 10q-21 -139 -59 -252v353q0 98 4 137h-70v-6
q6 -70 6 -135v-428q0 -75 -4 -111zM760 274v111l42 -6q10 38 32 114q22 77 29 105v-324h-103zM383 705l-6 75q-221 37 -304 70l-23 -90q215 -18 333 -55zM169 0q23 7 58 16q32 7 31 10q1 3 -8 9q-14 9 -20 17q-18 21 -30 48h92q23 0 79 -4q-31 58 -68 133q-13 25 -17 33
q70 0 97 -4q-4 37 -4 84v228q0 52 4 97q-14 -1 -34 -2h-55h-117h-63q-22 1 -35 2q6 -36 6 -99v-220q1 -39 -4 -50q-6 11 -19 26l-4 4q-13 -44 -42 -68q102 -130 153 -260zM270 159h-95q-20 30 -49 72q-14 20 -19 27q4 5 42 4h65q21 -26 56 -103zM206 322h-65v111h65v-111z
M323 322h-65v111h65v-111zM141 488v118h65v-118h-65zM323 488h-65v118h65v-118z" />
</svg>
