<?xml version="1.0" standalone="no"?>
<!DOCTYPE svg PUBLIC "-//W3C//DTD SVG 1.1//EN" "http://www.w3.org/Graphics/SVG/1.1/DTD/svg11.dtd" >
<svg xmlns="http://www.w3.org/2000/svg" xmlns:xlink="http://www.w3.org/1999/xlink" version="1.1" viewBox="-10 0 1034 1024">
  <g transform="matrix(1 0 0 -1 0 820)">
   <path fill="currentColor"
d="M192 602h146q-39 -57 -82 -113l-96 1q-19 4 -44 5l3 -29q3 -25 4 -29l-1 -256q-1 -6 -6 -49q45 4 57 5l214 -1l43 -4q-4 39 -5 57l1 266q0 15 4 40q-57 -6 -86 -6h-42q13 24 73 103l39 51q-60 -4 -91 -5h-106q36 64 50 80q9 13 35 24q-19 7 -40 20q-7 6 -19 10
q-22 -63 -83 -151q-57 -84 -118 -126q15 -6 45 -26q22 27 53 67zM159 334v120h96v-120h-96zM159 173v125h96v-125h-96zM293 334v120h94v-120h-94zM387 173h-94v125h94v-125zM79 -21l22 -51q55 22 143 46l114 29l70 16l10 47q-52 -18 -92 -29q-121 -31 -158 -40
q-39 -9 -44 -10q-33 -4 -65 -8zM609 104q-25 15 -40 28q-27 -54 -68 -103q-72 -81 -114 -107q28 -18 42 -30q21 21 85 90l53 69q9 9 18 22q12 15 36 24q-6 4 -12 7zM473 503q7 -6 12 -8q25 22 39 37l67 70h234q-55 -85 -130 -143q-78 49 -102 95q-15 -22 -30 -34
q43 -43 104 -86q-66 -52 -117 -78q-51 -24 -104 -32q18 -18 38 -42q103 46 216 130q72 -40 125 -66q54 -21 136 -48l31 51q-135 6 -262 89q51 51 91 97q37 48 77 108q-30 -1 -61 -5h-217q9 13 19 29q28 45 42 58q10 12 35 21q-33 13 -59 32q-16 -40 -58 -100
q-40 -57 -79 -94q-45 -42 -81 -61q12 -9 34 -20zM680 231l-164 1q-31 3 -39 4q-1 0 -5 1v-47q19 4 61 5h147v-259q0 -40 -19 -48q-18 -6 -42 -6q-18 0 -57 4q15 -31 17 -47q9 1 20 2l52 5q4 0 11 2q31 7 43 21q12 15 13 58v268l189 -1q12 0 25 -4v47q-60 -6 -82 -6h-132
q0 70 3 76q1 15 11 29h-57q1 -39 5 -81v-24zM972 -47q-21 27 -46 55l-67 71l-53 57q-15 -22 -26 -33q96 -87 163 -180q1 3 8 9q4 3 10 10q4 6 11 11v0z" />
  </g>

</svg>
