<?xml version="1.0" standalone="no"?>
<!DOCTYPE svg PUBLIC "-//W3C//DTD SVG 1.1//EN" "http://www.w3.org/Graphics/SVG/1.1/DTD/svg11.dtd" >
<svg xmlns="http://www.w3.org/2000/svg" xmlns:xlink="http://www.w3.org/1999/xlink" version="1.1" viewBox="-10 0 1010 1000">
   <path fill="currentColor"
d="M438 110q19 3 64 3h81q50 0 80 -3q-8 30 -8 105v450q0 47 6 93h-74q0 -1 1 -3q5 -25 5 -50h-85q-1 57 4 81h-75q5 -36 5 -113v-484q0 -33 -4 -79zM591 173h-85v206h85v-206zM750 381q2 9 7 30q22 94 33 173l-74 14q-6 -117 -29 -207zM591 439h-85v206h85v-206zM401 709
l-16 83q-194 25 -306 60l-29 -94q201 -8 351 -49zM808 2q103 8 105 16q0 3 -4 8q-14 20 -14 64v150h26q16 0 43 -2q11 -1 16 -1v79q-1 0 -4 -1q-20 -3 -55 -3h-26v500q1 40 -29 55q-26 16 -122 28q-6 -54 -50 -111q126 28 121 -10v-462h-23q-51 0 -93 4h-5v-79q6 0 17 1
q32 2 67 2h37v-127q0 -56 -7 -108v-3zM173 10q76 13 93 28q1 3 -9 9q-14 9 -21 17q-18 21 -30 48h96q23 0 77 -4q-39 3 6 0q-68 124 -89 166q73 0 103 -4q-6 28 -6 84v228q0 63 6 99q-26 -5 -95 -4h-123q-48 0 -66 1q-23 1 -36 3q6 -39 6 -101v-220q1 -39 -4 -50
q-15 21 -25 30q-7 -65 -18 -92q78 -88 135 -238zM278 171h-99q-51 72 -72 99q4 5 44 4h69q23 -26 58 -103zM212 334h-69v111h69v-111zM335 334h-71v111h71v-111zM143 500v117h69v-117h-69zM335 500h-71v117h71v-117z" />
</svg>
