<?xml version="1.0" standalone="no"?>
<!DOCTYPE svg PUBLIC "-//W3C//DTD SVG 1.1//EN" "http://www.w3.org/Graphics/SVG/1.1/DTD/svg11.dtd" >
<svg xmlns="http://www.w3.org/2000/svg" xmlns:xlink="http://www.w3.org/1999/xlink" version="1.1" viewBox="-10 0 1034 1024">
  <g transform="matrix(1 0 0 -1 0 820)">
   <path fill="currentColor"
d="M77 -55q7 -12 11 -21q3 -9 7 -27l57 20l96 27q102 28 124 32l51 11l10 46q-40 -15 -75 -25l-84 -22q-52 -12 -94 -21q-40 -9 -103 -20zM381 -95q12 -4 20 -9q1 0 27 -17q70 75 138 183q15 25 41 35q-28 15 -54 33q-22 -64 -89 -150q-42 -49 -83 -75zM906 688
q-10 15 -20 33q-39 -12 -99 -26q-84 -12 -178 -21q-30 -3 -120 -3l-44 6q15 -28 22 -49q49 3 119 6q30 0 56 4q-24 -55 -93 -139q-43 -49 -78 -58q13 -24 25 -52q30 9 69 15l106 9q-66 -78 -132 -133q-33 -27 -44 -32q-10 -4 -40 -12q13 -27 22 -54q27 7 74 15l121 12v-259
q0 -24 -4 -31q-4 -9 -18 -12q-15 -3 -43 -4q-10 1 -19 1q-15 0 -28 4q9 -21 15 -31q3 -6 6 -19q48 3 75 6q18 3 29 10q24 15 25 60v278l167 13q9 -15 26 -49q12 12 36 28l-53 74l-70 89q-15 -9 -37 -20q24 -24 35 -38q16 -21 37 -51l-308 -25q45 40 79 74q30 27 54 53
q45 46 99 110q49 54 63 66q15 15 35 21q-22 9 -43 21q-9 6 -17 9q-40 -73 -107 -141l-166 -9q0 3 17 23q51 63 82 97q39 46 44 48q7 6 23 11q-22 9 -45 23l88 11q33 3 64 10q42 6 59 10q12 0 18 1q10 0 29 -3q-7 10 -13 20zM976 -60q-30 42 -98 127q-36 42 -57 70
q-13 -10 -23 -17l-3 -3q-4 -1 -7 -4q97 -109 151 -201q12 12 25 20zM91 482q9 -1 19 -9l81 118h135l-71 -122l-94 1q-15 3 -40 4q6 -51 6 -71l-1 -265q-1 -4 -2 -12q0 -9 -3 -28q27 3 56 5l200 -1q36 -3 39 -4q-3 25 -5 52l1 284l4 40l-86 -5h-29q30 54 96 163
q-28 -1 -57 -5h-130q36 67 41 71q13 22 36 32q-31 13 -59 28q-30 -90 -78 -164q-52 -75 -89 -101q15 -4 30 -11zM164 139v133h90v-133h-90zM164 308v125h90v-125h-90zM292 139v133h81v-133h-81zM292 308v125h81v-125h-81z" />
  </g>

</svg>
