<?xml version="1.0" standalone="no"?>
<!DOCTYPE svg PUBLIC "-//W3C//DTD SVG 1.1//EN" "http://www.w3.org/Graphics/SVG/1.1/DTD/svg11.dtd" >
<svg xmlns="http://www.w3.org/2000/svg" xmlns:xlink="http://www.w3.org/1999/xlink" version="1.1" viewBox="-10 0 1010 1000">
   <path fill="currentColor"
d="M603 -10q83 12 107 24q1 3 -7 11q-32 31 -60 90h167q49 0 95 -5q-57 114 -153 232q92 45 210 55q-32 33 -47 86q-141 -41 -219 -96q-74 59 -198 119q-13 -29 -54 -71q102 -23 205 -93q-40 -48 -68 -107q-11 20 -15 25q-7 10 -38 62q-1 -1 -4 -3q-11 -13 -74 -35
q118 -128 153 -294zM782 179h-169q35 65 85 121q58 -60 84 -121zM663 449q23 2 60 4q42 1 39 6q0 2 -4 7q-14 17 -14 44v32h54q75 0 111 -6v74q-33 -4 -101 -4h-64v220q2 54 -19 65q-19 15 -106 22q-10 -57 -44 -91q103 34 98 -22v-194h-86q-45 0 -62 1q-22 1 -35 3v-72
q44 4 93 4h90v-32q1 -42 -10 -61zM843 659q67 72 123 143l-75 54q-39 -84 -107 -161zM548 663q8 3 25 8q64 18 58 26q-1 2 -7 6q-14 8 -23 22l-18 27q-41 65 -79 113q-33 -22 -69 -35q75 -58 113 -167zM440 681l-15 87q-195 23 -344 72l-37 -98q194 -9 396 -61zM202 -19
q15 6 42 17q71 27 64 32q-1 4 -15 13q-17 10 -23 17q-18 20 -32 40h97q63 0 94 -4q-10 21 -31 62q-39 83 -57 110q76 0 105 -4q-2 10 -3 29q-1 15 -1 57v206v59q1 22 2 38q-13 -2 -38 -3q-12 -1 -28 -1h-43h-154q-57 0 -102 6q7 -43 10 -119v-159q0 -42 -4 -51q-2 4 -11 13
q-7 8 -11 13q-18 -46 -47 -70q134 -115 186 -301zM321 163h-115q-30 56 -75 101q10 3 46 4h87q28 -38 57 -105zM157 332v93h77v-93h-77zM294 332v91h81v-91h-81zM294 479v107h81v-107h-81zM157 481v105h77v-105h-77z" />
</svg>
