<?xml version="1.0" standalone="no"?>
<!DOCTYPE svg PUBLIC "-//W3C//DTD SVG 1.1//EN" "http://www.w3.org/Graphics/SVG/1.1/DTD/svg11.dtd" >
<svg xmlns="http://www.w3.org/2000/svg" xmlns:xlink="http://www.w3.org/1999/xlink" version="1.1" viewBox="-10 0 1010 1000">
   <path fill="currentColor"
d="M202 -8q91 26 94 38q0 3 -9 8q-15 8 -23 16q-4 4 -14 16q-13 16 -22 26h103q60 -1 98 -4q-78 118 -100 158q76 0 121 -4q-8 51 -8 119v155q0 86 6 123q-53 -8 -125 -8h-121q-28 0 -90 5q-12 1 -17 1q6 -33 6 -93v-218q1 -43 -4 -50q-5 6 -15 17t-15 17q-8 -39 -35 -76
q106 -92 170 -246zM883 20q63 70 61 93q-2 1 -10 0q-26 -6 -61 -3q-41 2 -137 14q-35 5 -53 7q14 11 38 28q28 18 25 22q-1 2 -7 4q-20 7 -45 26q-63 48 -131 107q105 -8 193 -20q37 -42 59 -81q88 58 84 69q0 4 -7 5q-18 4 -37 15q-15 9 -79 65q-117 102 -173 139
q124 -7 234 -20q-14 -22 -49 -55l73 -36q62 82 109 165l-79 40q-5 -24 -26 -60q-25 2 -101 11q-18 2 -26 3v246q2 62 -22 75q-21 18 -127 34q-2 -53 -31 -93q63 12 91 0q13 -9 12 -54v-200q-82 6 -161 22q-5 -51 -26 -84q70 -12 143 -73q53 -42 87 -79q-121 17 -198 35
q-6 -32 -23 -67q-5 -11 -7 -16q97 -36 175 -167q-91 9 -173 22q-8 -34 -41 -83q244 11 446 -56zM310 155h-114q-20 24 -71 89q13 6 46 6h77q9 -10 28 -43q22 -37 34 -52zM296 306v111h83v-111h-83zM238 306h-73v111h73v-111zM238 469h-73v111h73v-111zM296 469v111h83v-111
h-83zM522 627q83 33 87 42q1 3 -7 9q-19 15 -33 33q-14 19 -44 60q-53 75 -67 89q-24 -26 -77 -42q96 -79 141 -191zM847 629q87 115 117 179l-79 42q-34 -87 -111 -183zM413 677q-9 43 -6 83q-224 29 -322 68l-31 -95q168 -11 359 -56z" />
</svg>
