<?xml version="1.0" standalone="no"?>
<!DOCTYPE svg PUBLIC "-//W3C//DTD SVG 1.1//EN" "http://www.w3.org/Graphics/SVG/1.1/DTD/svg11.dtd" >
<svg xmlns="http://www.w3.org/2000/svg" xmlns:xlink="http://www.w3.org/1999/xlink" version="1.1" viewBox="-10 0 1010 1000">
   <path fill="currentColor"
d="M460 48q52 8 105 8h250q70 0 112 -6q-10 45 -10 83v685q5 86 -153 89q0 -48 -36 -97q122 33 117 -46v-103v-546h-307v358q2 303 -131 438q-47 -24 -94 -28q107 -87 133 -230q15 -71 19 -183q4 -95 -1 -327q0 -14 -2 -58q-1 -23 -2 -37zM645 139q71 -2 81 10q1 2 -2 8
q-10 18 -10 42v24h28q33 -1 66 -4v63q-18 -4 -58 -4h-36v95h42q48 0 61 -2v70q-18 -5 -77 -4h-109q-57 -1 -75 4v-72q31 4 63 4h32v-95h-22q-67 0 -69 2v-63q23 6 61 6h30v-28q0 -39 -6 -56zM579 490q24 3 50 4h73q51 -1 86 -4q-5 18 -4 70v99q0 63 4 91q-26 -6 -62 -6h-75
q-54 0 -76 4q8 -42 8 -75v-117q0 -36 -4 -66zM647 550v139h73v-139h-73zM411 675l-16 79q-245 30 -326 60l-25 -95q159 -4 367 -44zM179 -15q12 6 37 16q61 26 58 31q0 5 -8 9q-12 6 -20 15q-7 8 -17 24t-17 24h98q47 0 95 -6q-20 29 -62 103q-17 31 -24 43q69 1 86 -4
q-2 33 -2 37v26v43v214q0 65 2 87q-34 -4 -107 -4h-117q-59 0 -104 6q6 -44 6 -91v-195q0 -33 -4 -43q-15 21 -27 34q-1 -4 -3 -11q-14 -56 -33 -75q123 -132 163 -283zM298 163h-115q-25 46 -50 77q6 4 32 4h85q20 -27 48 -81zM270 308v111h67v-111h-67zM147 308v111h63
v-111h-63zM272 473v107h65v-107h-65zM147 473v107h65v-107h-65z" />
</svg>
