<?xml version="1.0" standalone="no"?>
<!DOCTYPE svg PUBLIC "-//W3C//DTD SVG 1.1//EN" "http://www.w3.org/Graphics/SVG/1.1/DTD/svg11.dtd" >
<svg xmlns="http://www.w3.org/2000/svg" xmlns:xlink="http://www.w3.org/1999/xlink" version="1.1" viewBox="-10 0 1034 1024">
  <g transform="matrix(1 0 0 -1 0 820)">
   <path fill="currentColor"
d="M98 480l91 117h156q-24 -42 -32 -51l-49 -72q-96 0 -118 2q-6 3 -36 3q1 -15 3 -29q3 -18 3 -63l-1 -250l-5 -39q28 3 59 5l231 -1q15 0 40 -4q-4 19 -5 51l1 290q0 15 4 40q-51 -4 -70 -5h-57l44 73l60 91q-55 -4 -86 -5h-117l36 57q16 30 40 38q-30 15 -53 30
q-24 -60 -76 -137q-66 -96 -115 -127q22 -10 46 -21q3 4 6 7zM153 306v132h106v-132h-106zM153 138v132h106v-132h-106zM297 138v132h99v-132h-99zM297 306v132h99v-132h-99zM66 -50q12 -34 16 -49l78 21l144 27l56 11l93 17l7 49q-30 -12 -65 -22q-39 -10 -95 -21
q-85 -15 -139 -23q-43 -6 -95 -10zM604 116l-149 5q-1 0 -3 1v-47q46 4 96 5h56v-189q0 -31 -5 -56h48q-4 30 -5 56l1 817q0 12 4 22q1 10 10 21h-58q4 -22 5 -61v-120q-69 0 -141 3q-4 1 -10 4v-48q48 6 78 6h73v-193l-108 1q-9 3 -19 5v-47q42 6 70 5h57v-190zM742 755
q0 -6 3 -13q0 -24 2 -48l-1 -824q-1 -9 -1 -20l-3 -12h49q-6 24 -6 40v199h114q25 0 47 -3q1 0 16 -2v47q-63 -6 -93 -6h-84v196h88q24 0 46 -3q1 0 16 -2v47q-12 -3 -58 -6h-92v192l139 -1q4 0 30 -5v48q-4 0 -7 -2q-7 0 -15 -2q-42 -3 -84 -3h-63v122q0 6 2 25q1 19 12 36
h-57z" />
  </g>

</svg>
