<?xml version="1.0" standalone="no"?>
<!DOCTYPE svg PUBLIC "-//W3C//DTD SVG 1.1//EN" "http://www.w3.org/Graphics/SVG/1.1/DTD/svg11.dtd" >
<svg xmlns="http://www.w3.org/2000/svg" xmlns:xlink="http://www.w3.org/1999/xlink" version="1.1" viewBox="-10 0 1034 1024">
  <g transform="matrix(1 0 0 -1 0 820)">
   <path fill="currentColor"
d="M494 280q3 -60 4 -88l-1 -300q-1 -7 -2 -21q0 -6 -2 -9h48q-4 49 -5 75h348l-4 -69q0 -1 -1 -4h48q-3 30 -5 61l1 320l4 45q-15 -1 -28 -2q-18 -3 -28 -4l-328 1q-6 0 -50 5q0 -4 1 -10zM536 -27v115h348v-115h-348zM536 124v125h348v-125h-348zM521 370q33 3 66 5
l264 -1l41 -4q-4 54 -5 57l1 245l4 46q-27 -1 -55 -5l-270 1q-19 3 -46 4q1 -21 3 -38q1 -15 2 -25l-1 -244q-3 -12 -4 -41zM849 564h-286v113h286v-113zM563 411v117h286v-117h-286zM119 522l74 98h136q-31 -58 -70 -113l-105 1q-15 3 -42 4q4 -66 5 -107l-1 -240
q-3 -12 -4 -43q54 6 59 6q205 0 236 -3q10 0 27 -3q-4 48 -5 94l1 253l4 43q-18 -1 -24 -2q-21 -3 -27 -3h-75l59 93l41 61q-66 -6 -84 -6h-110q43 78 73 96q-28 9 -60 23q-24 -69 -73 -141q-69 -97 -107 -116q33 -10 51 -22zM154 163v138h105v-138h-105zM154 337v134h105
v-134h-105zM296 471h96v-134h-96v134zM296 163v138h96v-138h-96zM71 -22l18 -42q39 13 89 25l155 29l107 17q9 45 12 49q-24 -7 -56 -14q-174 -33 -205 -38q-21 -1 -45 -6q-45 -6 -83 -7q3 -6 8 -13v0z" />
  </g>

</svg>
