<?xml version="1.0" standalone="no"?>
<!DOCTYPE svg PUBLIC "-//W3C//DTD SVG 1.1//EN" "http://www.w3.org/Graphics/SVG/1.1/DTD/svg11.dtd" >
<svg xmlns="http://www.w3.org/2000/svg" xmlns:xlink="http://www.w3.org/1999/xlink" version="1.1" viewBox="-10 0 1034 1024">
  <g transform="matrix(1 0 0 -1 0 820)">
   <path fill="currentColor"
d="M73 -44q12 -21 21 -50l76 19l147 27q30 4 58 11l81 15l12 48q-27 -9 -65 -17l-106 -22l-152 -24q-42 -4 -72 -7zM681 -42q0 22 3 50q-30 -21 -47 -31q-19 -12 -61 -36q-18 -9 -34 -19v213q94 0 111 -2q15 0 28 -3v47q-4 0 -7 -1q-3 0 -6 -2l-106 -3h-20q0 82 3 91
q1 13 10 26h-56q1 -9 3 -14q0 -22 2 -46v-282q0 -30 -20 -46q18 -19 35 -46q45 39 141 92zM828 346q27 -1 56 -5q-3 28 -5 58l1 268l4 43q-16 -1 -30 -3q-21 -3 -64 -3l-247 1q-19 4 -39 5q1 -28 5 -58l-1 -271q-3 -12 -4 -40q27 3 56 5h268zM546 382v123h295v-123h-295z
M546 541v127h295v-127h-295zM775 229q0 7 2 25q3 18 13 36h-57q1 -7 3 -14l3 -47v-281q0 -36 9 -55q7 -15 27 -21q27 -7 68 -8q45 0 73 9q27 12 44 51q12 28 17 43q-22 6 -46 23q-4 -39 -8 -49q-9 -30 -36 -34q-21 -4 -40 -5q-7 0 -27 2q-15 0 -27 4q-18 6 -18 46v145l71 31
q84 36 103 36h14q-22 27 -33 50q-76 -55 -155 -82v95zM347 591q-18 -30 -33 -52q-15 -25 -50 -73h-86q-6 0 -27 3q-12 0 -28 2q1 -27 5 -54l-1 -282q0 -3 -4 -39q36 6 57 6l223 -1q4 0 14 -2q12 0 28 -3q-6 43 -5 72l1 264q0 18 4 39q-55 -4 -88 -5h-45l104 166
q-33 -1 -65 -5h-134q13 33 36 69q15 30 41 43q-36 10 -60 22q-30 -94 -97 -190q-45 -61 -91 -90q31 -10 53 -24q51 69 95 134h153zM165 138v124h98v-124h-98zM165 298v132h98v-132h-98zM301 298v132h101v-132h-101zM301 138v124h101v-124h-101z" />
  </g>

</svg>
