<?xml version="1.0" standalone="no"?>
<!DOCTYPE svg PUBLIC "-//W3C//DTD SVG 1.1//EN" "http://www.w3.org/Graphics/SVG/1.1/DTD/svg11.dtd" >
<svg xmlns="http://www.w3.org/2000/svg" xmlns:xlink="http://www.w3.org/1999/xlink" version="1.1" viewBox="-10 0 1034 1024">
  <g transform="matrix(1 0 0 -1 0 820)">
   <path fill="currentColor"
d="M78 -18q10 -27 15 -54q180 57 318 85q3 21 12 48q-12 -3 -24 -7q-30 -10 -69 -22l-101 -25q-94 -21 -151 -25zM437 -95q6 -1 14 -3q9 27 15 42q1 4 3 8q15 39 34 95q9 34 17 45q4 10 25 23q-39 15 -51 22q-3 1 -5 3l-19 -70q-6 -24 -16 -48q-33 -78 -54 -110q12 0 37 -7z
M965 408q12 16 27 28q-34 12 -62 30q-51 31 -104 83q-66 60 -132 169q12 19 26 34q-24 6 -52 19q-36 -103 -99 -204q-79 -117 -145 -159q24 -9 45 -26q99 99 205 295q36 -54 68 -92q31 -36 69 -74l60 -54q31 -25 81 -63q6 7 13 14zM592 391l-53 4l-6 2v-48q15 4 34 5l242 1
q-30 -57 -51 -94q-18 -30 -40 -61q25 -4 43 -13q60 114 118 210l-56 -6h-231zM574 144q1 -30 5 -60v-129q0 -63 45 -74q30 -9 79 -9q18 0 41 3q48 6 70 25q19 15 45 75q-30 15 -50 34q-4 -45 -8 -58q-9 -27 -53 -36q-27 -3 -47 -4q-16 0 -35 2q-24 1 -34 9q-13 10 -14 49
v113q0 6 2 24q1 19 11 36h-57zM623 209l54 -76l45 -76q18 13 38 22q-16 27 -46 71l-56 80q-15 -12 -35 -21zM663 556q-9 -10 -21 -20q-3 -1 -10 -9q51 -31 103 -102q13 15 29 31l-52 53q-42 39 -49 47zM931 -31q6 -12 14 -24q6 4 12 10q21 18 24 19q-6 9 -14 22l-99 165
q-15 -9 -17 -11q-4 -1 -21 -9q33 -45 79 -126zM330 601l-32 -49q-19 -31 -46 -66q-78 0 -101 2q-15 1 -32 3q6 -57 6 -76l-1 -262q-4 -24 -5 -41v-3q45 4 91 5l156 -1l44 -4q-1 15 -3 29q-3 21 -3 65l1 247l4 34q0 3 1 7q-30 -1 -62 -5h-48q24 36 42 68l60 89q-60 -6 -79 -6
h-112l19 36q18 33 28 46q7 12 26 20q-34 15 -56 28q-22 -69 -75 -154q-49 -75 -91 -109q30 -9 46 -19q3 7 16 21q6 7 66 95h140zM246 321h-85v129h85v-129zM246 150h-85v135h85v-135zM283 285h83v-135h-83v135zM283 321v129h83v-129h-83z" />
  </g>

</svg>
