<?xml version="1.0" standalone="no"?>
<!DOCTYPE svg PUBLIC "-//W3C//DTD SVG 1.1//EN" "http://www.w3.org/Graphics/SVG/1.1/DTD/svg11.dtd" >
<svg xmlns="http://www.w3.org/2000/svg" xmlns:xlink="http://www.w3.org/1999/xlink" version="1.1" viewBox="-10 0 1034 1024">
  <g transform="matrix(1 0 0 -1 0 820)">
   <path fill="currentColor"
d="M417 -86q18 -12 41 -27q42 51 81 105q3 9 57 81q10 18 34 33q-27 15 -52 32q-19 -45 -47 -86q-40 -61 -67 -95q-19 -22 -47 -43zM970 594q-3 0 -8 -2l-106 -3l-370 1q-18 1 -28 4v-47q9 4 26 5l424 1q43 0 62 -6v47zM536 452l5 -96l-1 -118q0 -1 -4 -41q46 4 91 5h66
v-287q0 -40 -68 -41q-22 0 -48 9q6 -19 11 -53l50 5q4 0 9 2q37 4 61 19q22 16 23 59v287q117 0 132 -2q15 0 33 -3q-4 45 -5 82l1 129q0 15 4 44l-55 -6l-266 1q-15 4 -38 5h-1zM577 238v173h276v-173h-276zM691 703q-19 16 -37 33q-9 12 -19 18q-15 -18 -32 -33
q33 -24 68 -59q36 -36 50 -61q13 18 23 27q6 3 12 10zM848 134q-6 9 -12 16q-10 -9 -35 -29q30 -25 78 -93q49 -69 71 -112q15 16 38 32q-1 3 -4 4l-2 3q-48 63 -66 91q-15 21 -27 34q-21 27 -41 54zM182 595h158q-34 -58 -53 -86q-13 -16 -29 -31l-104 1q-15 3 -42 4
q1 -18 2 -30q3 -21 3 -65l-1 -248q-3 -12 -4 -42q28 3 59 5q228 0 252 -3q7 0 17 -2q-4 48 -5 93l1 250l4 42q-55 -4 -84 -5h-49q40 55 75 107q18 27 41 51q-99 -4 -103 -5h-110q7 9 14 21q28 43 39 53q9 10 33 21l-56 32q-15 -37 -67 -113q-78 -105 -141 -128
q33 -21 44 -34q3 1 61 59q0 3 3 4zM154 139v138h101v-138h-101zM154 313v129h101v-129h-101zM292 441h106v-128h-106v128zM292 139v138h106v-138h-106zM90 -89q1 -4 4 -9q45 18 87 27l142 31l111 21q4 19 10 50q-21 -7 -53 -16q-117 -27 -160 -35q-109 -18 -115 -20
q-27 -3 -49 -4q9 -12 23 -45v0z" />
  </g>

</svg>
