<?xml version="1.0" standalone="no"?>
<!DOCTYPE svg PUBLIC "-//W3C//DTD SVG 1.1//EN" "http://www.w3.org/Graphics/SVG/1.1/DTD/svg11.dtd" >
<svg xmlns="http://www.w3.org/2000/svg" xmlns:xlink="http://www.w3.org/1999/xlink" version="1.1" viewBox="-10 0 1034 1024">
  <g transform="matrix(1 0 0 -1 0 820)">
   <path fill="currentColor"
d="M583 423q-55 0 -78 2q-3 1 -18 2q-9 0 -23 2l4 -36q1 -24 2 -169q0 -15 -6 -89q63 6 93 6h26v-154q-52 -10 -87 -16q-27 -3 -59 -4q12 -33 17 -56q27 13 43 18q9 3 53 13q30 6 52 12q7 3 102 24h2l9 -21q15 -30 24 -62q9 6 17 11q4 3 20 9l-31 68l-56 113q-6 -4 -15 -9
q-6 -3 -21 -8q13 -21 36 -66l-69 -18v146q64 0 79 -2l35 -4q-4 54 -5 76l1 169l4 49q-60 -6 -78 -6h-36v137q55 7 88 8l35 -1q-12 24 -22 55q-42 -15 -78 -22q-78 -12 -149 -13q-30 0 -66 6q6 -21 13 -50q12 0 25 3q16 0 35 3q13 0 82 7v-133zM507 178v208h76v-208h-76z
M692 386v-208h-72v208h72zM813 734q-13 0 -25 -2h-288q-43 0 -65 5v-48q3 0 7 2q57 3 98 3h262l-2 -102l-4 -196l-2 -178l5 -239q12 -93 47 -119q13 -10 33 -11q24 0 40 16q21 25 31 58l24 90q-24 9 -47 22q0 -7 1 -18q0 -34 -10 -74q-15 -49 -37 -50q-24 0 -34 39
q-15 52 -16 115l-2 260l9 344l7 86zM328 610q-9 -9 -40 -61q-1 -3 -38 -63h-75q-7 0 -30 3q-12 0 -30 4q6 -60 6 -81l-1 -278q0 -3 -5 -47q54 6 85 6l174 -1q21 -1 43 -5q-6 63 -6 83l1 278q1 22 5 45q-34 -6 -60 -7h-64q1 6 66 107l6 8l18 27q7 13 16 26q-15 -1 -28 -3
q-24 -3 -32 -3h-122l19 34q18 34 29 47q7 9 29 18q-15 9 -21 13q-12 7 -31 24q-7 -24 -21 -54q-13 -28 -31 -59q-40 -69 -71 -105q-43 -51 -57 -58q-3 -1 -19 -8q-4 -1 -8 -3q18 -12 42 -36q30 31 53 60l65 89h133zM158 130v146h85v-146h-85zM158 314v135h85v-135h-85z
M281 130v146h92v-146h-92zM281 314v135h92v-135h-92zM421 -31l1 30q-37 -13 -159 -44q-76 -15 -123 -22q-34 -3 -61 -4q7 -25 14 -59q9 3 15 8q10 6 26 10l118 28l115 25q31 6 55 10q-1 9 -1 18v0z" />
  </g>

</svg>
