<?xml version="1.0" standalone="no"?>
<!DOCTYPE svg PUBLIC "-//W3C//DTD SVG 1.1//EN" "http://www.w3.org/Graphics/SVG/1.1/DTD/svg11.dtd" >
<svg xmlns="http://www.w3.org/2000/svg" xmlns:xlink="http://www.w3.org/1999/xlink" version="1.1" viewBox="-10 0 1034 1024">
  <g transform="matrix(1 0 0 -1 0 820)">
   <path fill="currentColor"
d="M433 32q-27 -9 -58 -17q-60 -15 -112 -26q-90 -18 -130 -24q-34 -4 -68 -5l20 -57q21 6 39 14q121 31 159 38q99 21 140 29zM665 -109q0 -33 -5 -57h48q-3 22 -5 45v255q43 -60 68 -87q19 -24 55 -54q60 -49 120 -84q3 6 7 10q1 3 3 5q13 21 25 32q-82 22 -152 88
q-48 45 -102 119l201 -1q13 0 32 -5v49q-1 0 -34 -6q-6 1 -11 0l-212 -1v98l188 -1q13 0 32 -5v48l-64 -6h-324v236h96l-1 -123l-4 -32q45 4 75 5q90 0 103 -2q15 0 31 -3q-4 45 -5 87v68h63q22 0 46 -3q3 0 17 -2v46q-31 -1 -63 -5h-63v102q0 6 2 24q1 18 12 36h-58
q1 -30 5 -60v-102h-123q0 123 3 133q1 13 10 26h-55q0 -6 3 -13l2 -146h-96q0 99 3 105q1 15 11 29h-57q4 -33 5 -66v-68q-37 1 -76 3q-4 0 -9 2v-46q42 6 70 5h15l-1 -236q-3 -12 -4 -42q12 3 36 4q7 1 74 2h63v-98l-208 3q-4 1 -10 4v-49q15 4 39 5l159 1
q-46 -61 -142 -147q-66 -58 -144 -85q25 -19 44 -37q82 55 137 102q57 52 125 126v-231zM668 455v114h123v-114h-123zM330 610q-16 -30 -32 -54l-50 -75h-87q-6 0 -26 3q-12 0 -29 2q1 -24 5 -50l-1 -290q-3 -12 -4 -45q28 3 58 5l206 -1l40 -4q-1 15 -3 29q-3 21 -3 66
l1 254l5 36q-27 -1 -53 -5h-62l104 170q-31 -1 -64 -5h-121q18 39 30 56q21 31 47 42q-36 9 -65 23q-31 -87 -86 -162q-58 -75 -103 -102q18 -6 50 -27q21 24 39 48q22 27 66 86h138zM148 142v134h93v-134h-93zM148 312v133h93v-133h-93zM279 312v133h87v-133h-87zM279 142
v134h87v-134h-87z" />
  </g>

</svg>
