<?xml version="1.0" standalone="no"?>
<!DOCTYPE svg PUBLIC "-//W3C//DTD SVG 1.1//EN" "http://www.w3.org/Graphics/SVG/1.1/DTD/svg11.dtd" >
<svg xmlns="http://www.w3.org/2000/svg" xmlns:xlink="http://www.w3.org/1999/xlink" version="1.1" viewBox="-10 0 1010 1000">
   <path fill="currentColor"
d="M196 -13q76 22 98 39q0 2 -6 6q-34 25 -66 93h88q59 0 96 -7q2 -1 3 -1q-34 69 -92 165q51 0 73 -2q22 -1 43 -6q0 5 -2 17q-6 55 -6 92v159q0 82 8 121q-37 -8 -114 -8h-87q-87 0 -139 8q8 -38 8 -127v-182l-4 -42q-3 7 -18 28q-12 -44 -47 -76q129 -136 164 -277z
M647 -2q82 1 91 10q1 3 -2 10q-10 26 -10 66v22h72q49 0 108 -6q15 -2 21 -2v79q-37 -8 -129 -8h-72v12q0 31 8 67h-87q9 -27 8 -67v-12h-72q-63 0 -115 7q-3 1 -4 1v-79q50 8 119 8h72v-16q0 -56 -8 -92zM296 185h-113q-29 47 -62 95l34 4h83q22 -33 58 -99zM772 195
q74 6 87 16q2 4 -2 10q-10 15 -10 39v24q75 0 115 -8v86q-36 -9 -115 -8v11q-1 30 8 50h-83q9 -24 8 -50v-11h-181v11q0 21 9 42q1 1 1 2h-85q9 -21 8 -44v-11q-49 0 -80 8v-86q42 8 80 8v-10q0 -36 -8 -75q77 3 85 12q1 1 -1 5q-9 18 -9 50v20h181v-16q0 -45 -8 -75z
M234 348h-65v93h65v-93zM357 348h-63v91h63v-91zM825 441q61 0 63 -4q6 -3 17 -4q0 3 -1 10q-7 49 -7 101v46q0 67 8 121h-90q4 -26 5 -50q1 -18 1 -73v-76h-244v98q0 84 6 119h-89q8 -43 8 -117v-54q0 -81 -8 -125q10 1 20 4q10 4 65 4h246zM234 502h-65v90h65v-90z
M357 502h-63v88h63v-88zM665 548q71 4 85 12q1 1 -3 6q-15 20 -15 44q21 197 -258 301q-20 -47 -65 -75q164 -29 213 -88q54 -56 43 -200zM766 711q120 66 194 123l-63 67q-77 -88 -183 -135zM442 715q-5 52 -2 79q-244 17 -355 66q-12 -41 -31 -98q229 -13 388 -47z" />
</svg>
