<?xml version="1.0" standalone="no"?>
<!DOCTYPE svg PUBLIC "-//W3C//DTD SVG 1.1//EN" "http://www.w3.org/Graphics/SVG/1.1/DTD/svg11.dtd" >
<svg xmlns="http://www.w3.org/2000/svg" xmlns:xlink="http://www.w3.org/1999/xlink" version="1.1" viewBox="-10 0 1034 1024">
  <g transform="matrix(1 0 0 -1 0 820)">
   <path fill="currentColor"
d="M74 -60q1 -6 4 -15q15 3 28 7l162 29l130 21q3 22 12 46q-34 -9 -70 -17q-36 -7 -89 -16q-63 -9 -110 -15q-39 -3 -78 -5q4 -16 11 -35zM394 -65q18 -3 37 -8q9 -1 13 -3q7 12 15 31q7 15 15 34q15 37 31 83q13 42 16 45q3 7 19 24q-18 3 -53 19q-10 -60 -33 -120
q-33 -75 -60 -105zM485 686q1 -18 2 -29q3 -24 3 -68l-1 -261q-3 -12 -4 -44q6 1 30 2q19 3 30 4l316 -1q10 0 41 -5q0 1 2 0l-6 60l1 294q0 9 4 29q-1 9 1 19q-30 -1 -60 -5l-317 1q-15 3 -42 4zM527 325v140h150v-140h-150zM677 501h-150v144h150v-144zM715 325v140h146
v-140h-146zM715 501v144h146v-144h-146zM812 9q0 -16 1 -33q0 -15 -3 -30q-3 -16 -15 -32q-15 -10 -39 -14q-27 -1 -53 -3q-18 0 -39 2q-30 3 -39 11q-12 9 -13 46v155q0 12 3 25q1 18 12 36h-58q4 -19 5 -38q0 -198 3 -212q1 -18 9 -30q12 -19 40 -25q30 -6 76 -7
q16 0 61 4q54 4 75 38q7 13 21 53q6 15 11 29q-10 4 -19 7t-39 18zM678 268q-18 -12 -38 -20q27 -40 50 -78q21 -39 45 -90q1 1 36 22q-18 39 -48 90zM872 201q-12 -9 -24 -15q-6 0 -15 -6q28 -39 53 -82q24 -43 37 -68q9 -21 18 -44q13 13 40 32q-7 12 -13 24zM319 603
q-18 -28 -36 -51q-19 -27 -55 -68l-83 1q-12 3 -40 4q1 -30 5 -61l-1 -289l-4 -45q39 4 56 5l222 -1l39 -4q-4 48 -5 95l1 255q0 16 4 45q-51 -4 -80 -5h-63l118 160q-60 -4 -89 -5h-102q33 54 44 68q12 13 34 23q-28 12 -60 29q-18 -51 -70 -133q-63 -93 -108 -125
q27 -9 48 -20q21 27 38 49l52 73h135zM147 135v139h99v-139h-99zM147 310v138h99v-138h-99zM283 310v138h96v-138h-96zM283 135v139h96v-139h-96z" />
  </g>

</svg>
