<?xml version="1.0" standalone="no"?>
<!DOCTYPE svg PUBLIC "-//W3C//DTD SVG 1.1//EN" "http://www.w3.org/Graphics/SVG/1.1/DTD/svg11.dtd" >
<svg xmlns="http://www.w3.org/2000/svg" xmlns:xlink="http://www.w3.org/1999/xlink" version="1.1" viewBox="-10 0 1034 1024">
  <g transform="matrix(1 0 0 -1 0 820)">
   <path fill="currentColor"
d="M193 606h145l-82 -131q-79 0 -102 2q-6 3 -31 3q4 -60 5 -93l-1 -256q-3 -12 -4 -40q49 4 57 5l211 -1q15 0 39 -4q-3 27 -5 56l1 294l4 39q-27 -1 -54 -5h-74l104 173q-60 -6 -79 -6h-112q31 63 41 77q9 15 27 25l-59 23q-15 -63 -69 -156q-60 -97 -109 -139l19 -8
q12 -4 25 -16q19 24 35 49q18 27 47 74q10 18 21 35zM165 132v139h95v-139h-95zM165 307v132h95v-132h-95zM298 132v139h89v-139h-89zM298 307v132h89v-132h-89zM77 -59q15 -24 25 -50q37 15 125 36l197 44q7 43 8 47q-76 -22 -95 -27q-180 -39 -185 -41q-36 -6 -75 -9z
M638 176q27 45 61 56q-13 3 -43 18q-9 3 -18 8q-87 -171 -198 -228q22 -12 43 -31l69 70q27 30 59 71h218q-24 -36 -48 -64q-27 -28 -67 -65q-19 15 -34 30l-24 25q-16 18 -20 39q-15 -12 -24 -19q-7 -3 -18 -9q16 -19 35 -39l53 -50q-117 -88 -263 -99l18 -28q3 -9 8 -19
q84 21 142 47q58 27 130 74q66 -45 117 -67l115 -48l11 22l26 31q-60 3 -119 25q-72 27 -122 62l76 77q40 57 61 87q7 15 17 30l-58 -6h-203zM878 628q16 0 62 -5v47q-21 -1 -44 -5l-293 -1q13 30 29 54q13 24 39 35q-36 9 -64 21q-18 -58 -60 -133q-18 -34 -51 -76
q-34 -42 -58 -61q31 -9 35 -11q6 -3 14 -6q21 27 41 56q22 31 56 85h294zM539 314q-3 -27 -5 -56q27 3 55 5l265 -1l41 -4q-4 48 -5 92q0 153 2 162q0 16 3 33q-27 -1 -55 -5l-266 1q-3 0 -40 4q1 -27 5 -55v-176zM576 299v83h276v-83h-276zM852 418h-276v86h276v-86z" />
  </g>

</svg>
