<?xml version="1.0" standalone="no"?>
<!DOCTYPE svg PUBLIC "-//W3C//DTD SVG 1.1//EN" "http://www.w3.org/Graphics/SVG/1.1/DTD/svg11.dtd" >
<svg xmlns="http://www.w3.org/2000/svg" xmlns:xlink="http://www.w3.org/1999/xlink" version="1.1" viewBox="-10 0 1034 1024">
  <g transform="matrix(1 0 0 -1 0 820)">
   <path fill="currentColor"
d="M77 -39q13 -27 23 -56q24 9 47 15l81 17q93 18 173 31q3 22 12 48q-73 -18 -162 -36l-141 -19h-33zM456 26q51 105 80 206l-1 -376q0 -1 -5 -18h50q-4 15 -5 35l-1 202h80v-120q0 -39 -5 -56h48q-4 15 -5 33l-1 143h82v-100q0 -33 -5 -56h47q-4 45 -5 70v86h89v-143
q0 -33 -12 -39q-12 -3 -31 -5q-18 0 -50 4q10 -22 17 -48q24 0 47 5q33 6 47 15q19 15 20 59v317q0 7 3 27q0 12 3 27q-27 -1 -54 -5h-345l9 107l321 -1l40 -4q-4 24 -5 59l1 149l4 40q-18 -1 -27 -2q-19 -3 -28 -3h-115q6 16 21 38l-119 85q-12 -15 -28 -33q27 -13 55 -36
l43 -31q10 -9 24 -23l-190 1q-15 3 -39 4q1 -28 5 -58l-2 -216q-6 -72 -14 -113q-15 -64 -41 -126q-27 -54 -58 -89q24 -3 48 -9q3 0 7 -2zM554 432v166h317v-166h-317zM574 111v142h80v-142h-80zM691 111v142h82v-142h-82zM810 111v142h89v-142h-89zM329 598
q-24 -39 -42 -64q-15 -24 -38 -52q-63 0 -86 2q-6 3 -34 3l5 -61l-1 -272q-3 -12 -4 -43q46 4 93 5l161 -1l43 -4q-4 48 -5 93l1 240l4 43q-30 -1 -61 -5h-65q30 45 47 71l60 86q-30 -1 -60 -5h-128l38 67q12 16 35 26q-18 7 -35 20q-10 7 -20 13q-12 -36 -27 -64
q-18 -34 -49 -83q-52 -84 -112 -119q40 -22 47 -28l48 59q19 27 51 73h134zM257 291v-139h-86v139h86zM171 325v121h86v-121h-86zM295 152v139h87v-139h-87zM295 321v125h87v-125h-87z" />
  </g>

</svg>
