<?xml version="1.0" standalone="no"?>
<!DOCTYPE svg PUBLIC "-//W3C//DTD SVG 1.1//EN" "http://www.w3.org/Graphics/SVG/1.1/DTD/svg11.dtd" >
<svg xmlns="http://www.w3.org/2000/svg" xmlns:xlink="http://www.w3.org/1999/xlink" version="1.1" viewBox="-10 0 1010 1000">
   <path fill="currentColor"
d="M179 -13q105 25 101 31q-1 4 -10 11q-32 25 -58 71h38q77 -1 139 -6q-23 42 -56 110q-15 32 -25 52h15q8 0 29 -1q45 -1 77 -1q-5 21 -4 92v158q0 116 4 155q-55 -4 -151 -4h-40q-120 0 -159 4q4 -46 4 -161v-95q0 -65 -1 -85q0 -26 -3 -38l-19 26q-13 -58 -28 -83
q81 -72 147 -236zM563 -12q96 24 90 30q-1 5 -10 14q-12 11 -22 24q-20 23 -28 40h173q120 -1 161 -8v75q-48 -7 -161 -8h-208l-36 54q27 5 105 6h125q102 0 135 -4q-4 30 -4 115v61q0 85 4 121q-42 -6 -133 -6h-97q-28 42 -42 70h135q100 0 141 -6q-60 105 -153 208
q39 21 107 32t117 4q-31 38 -47 93q-150 -19 -236 -83q-87 58 -252 93q-13 -34 -56 -85q147 2 260 -60q-49 -68 -73 -113q-22 21 -76 85q-27 -31 -59 -51q91 -62 162 -189q-73 1 -107 6q5 -51 6 -117v-24q-1 -77 -6 -103q-28 -24 -75 -33q93 -88 160 -241zM278 157h-101
q-24 27 -66 91q22 7 99 8h20q7 -14 20 -41q19 -41 28 -58zM556 270v64h254v-64h-254zM357 318h-75v109h75v-109zM222 318h-71v109h71v-109zM558 381v66h252v-66h-252zM357 481h-75v113h75v-113zM222 481h-71v113h71v-113zM617 621q31 63 71 112q51 -47 90 -112h-161z
M419 782q-150 14 -336 76q-6 -34 -33 -98q217 -10 377 -63q-8 46 -8 85z" />
</svg>
