<?xml version="1.0" standalone="no"?>
<!DOCTYPE svg PUBLIC "-//W3C//DTD SVG 1.1//EN" "http://www.w3.org/Graphics/SVG/1.1/DTD/svg11.dtd" >
<svg xmlns="http://www.w3.org/2000/svg" xmlns:xlink="http://www.w3.org/1999/xlink" version="1.1" viewBox="-10 0 1034 1024">
  <g transform="matrix(1 0 0 -1 0 820)">
   <path fill="currentColor"
d="M293 599q-30 -63 -63 -123l-88 1q-12 3 -39 4q4 -90 5 -92l-1 -249q-3 -12 -4 -43q45 4 66 5l171 -1q13 0 42 -4l-6 57q21 -7 37 -17q19 31 38 67l47 98v-399q0 -36 -5 -56h48q-3 25 -5 52v427q46 -57 64 -104q13 10 23 15q6 3 13 8q-18 31 -33 53q-10 16 -41 54l-26 34
v38q55 0 81 -4q1 0 6 -1v47q-63 -6 -87 -6v202q67 21 87 22q9 0 17 -1q-9 10 -36 47q-117 -51 -218 -64q1 -1 3 -5q3 -6 7 -12q9 -12 16 -23l52 15q16 6 34 11v-192l-87 3l-9 3v-47q42 6 69 5h24v-16q-39 -139 -119 -245l1 277q1 21 5 41q-28 -1 -57 -5h-53q60 123 82 164
q-60 -4 -93 -5h-78q18 31 37 63q12 24 36 36q-15 7 -25 12q-6 3 -11 6q-3 3 -18 10q-7 -27 -29 -70q-18 -39 -44 -79q-48 -69 -87 -99q21 -9 43 -26l36 48t43 63h129zM145 277h76v-139h-76v139zM145 313v127h76v-127h-76zM259 313v127h79v-127h-79zM259 277h79v-139h-79v139
zM65 -18q18 -30 27 -55q36 9 108 19l191 24l11 34q0 4 6 18q-40 -12 -82 -19q-30 -6 -67 -11q-34 -4 -59 -7q-51 -6 -91 -6q-15 0 -44 3zM789 546v92q0 22 2 38q1 30 14 53q-9 0 -20 3q-21 3 -45 12q6 -48 10 -96q1 -36 2 -120q-3 -225 -6 -253q-1 -4 -2 -12
q-12 -87 -43 -169q-39 -96 -97 -164q-24 -27 -56 -49q39 -21 45 -27q63 69 102 136q24 42 45 93q18 51 35 117q22 -84 58 -161q18 -39 42 -79q24 -42 55 -91q21 16 51 31q-24 18 -54 58q-9 15 -20 30q-46 72 -82 183q-31 94 -33 161zM711 486q-33 3 -54 9l-6 -72
q0 -18 -4 -32q-9 -57 -22 -99q16 -1 45 -10q22 165 25 166q3 13 9 24zM827 272q16 0 48 -7q3 30 10 51q7 39 20 91q9 49 15 63q4 12 18 27q-7 3 -40 9q-6 3 -20 8q-16 -153 -51 -242v0z" />
  </g>

</svg>
