<?xml version="1.0" standalone="no"?>
<!DOCTYPE svg PUBLIC "-//W3C//DTD SVG 1.1//EN" "http://www.w3.org/Graphics/SVG/1.1/DTD/svg11.dtd" >
<svg xmlns="http://www.w3.org/2000/svg" xmlns:xlink="http://www.w3.org/1999/xlink" version="1.1" viewBox="-10 0 1010 1000">
   <path fill="currentColor"
d="M474 365h-14q-42 0 -67 6v-69q27 6 71 6h18v-153q-12 4 -31 10q-23 8 -38 12q-6 -38 -24 -60q84 -6 208 -67q48 44 50 71q-3 3 -14 3q-16 0 -30 3q-17 3 -53 14q-5 1 -8 2v165h23q30 -1 54 -4v69q-24 -6 -59 -6h-18v98l61 -22q38 82 60 139l-68 31q-17 -84 -53 -136v335
q194 -136 198 -419v-123v-62q-1 -37 -4 -120q0 -21 -10 -80q56 0 74 2q22 1 23 6q1 2 -4 11q-13 22 -13 41v80q-1 85 2 253q26 256 174 397q-18 13 -71 73q-112 -169 -133 -291q-36 140 -169 299q-22 -33 -67 -55q0 40 6 85h-74q8 -67 8 -105v-280q-13 30 -36 90
q-29 73 -43 105q-19 -22 -49 -39q-8 -5 -11 -7l24 -30q-26 -4 -61 -3q-13 1 -20 1h-101q-54 0 -74 1q-25 1 -38 3q4 -24 5 -47q1 -19 1 -64v-165q-2 -3 -4 -24t-4 -23q-12 21 -25 34q-5 -61 -32 -102q104 -68 163 -273q11 4 30 12q72 27 67 33q0 4 -11 10q-17 11 -25 22
q-1 2 -3 5q-16 23 -25 41h96q45 0 81 -6q-80 142 -91 172q48 0 81 -6q-4 41 -4 129v145v39q-1 38 2 52q67 -106 99 -264zM278 163h-97q-54 83 -66 101q7 5 44 4h61q25 -38 58 -105zM141 332v93h57v-93h-57zM254 330v95h58v-95h-58zM141 485v95h57v-95h-57zM254 485v95h58
v-95h-58zM349 772q-164 23 -299 58l-16 -93q128 0 333 -44zM641 187q17 1 50 5q18 2 25 3q-3 12 -11 87q-11 94 -18 147q-45 -13 -72 -8q26 -87 26 -234zM869 191q43 6 77 20q-10 16 -33 121q-15 73 -24 105q-39 -16 -68 -18q33 -96 48 -228z" />
</svg>
