<?xml version="1.0" standalone="no"?>
<!DOCTYPE svg PUBLIC "-//W3C//DTD SVG 1.1//EN" "http://www.w3.org/Graphics/SVG/1.1/DTD/svg11.dtd" >
<svg xmlns="http://www.w3.org/2000/svg" xmlns:xlink="http://www.w3.org/1999/xlink" version="1.1" viewBox="-10 0 1010 1000">
   <path fill="currentColor"
d="M730 6q88 -2 97 12q1 2 -3 6q-14 15 -14 56q0 28 -1 79q-1 45 -1 66h49q39 0 70 -4q-4 31 -4 61v451q2 79 -20 100q-22 28 -105 44q1 -53 -38 -91q99 18 95 -57q6 -232 6 -443h-51q-2 469 -112 607q-32 -28 -81 -33q73 -73 101 -202q29 -121 28 -372q-47 -1 -59 4v-67
q23 3 59 4q-2 -182 -16 -221zM442 12q70 1 80 12q0 2 -3 8q-13 20 -13 54v43h79v-41q0 -43 -4 -76q67 -2 80 6q0 3 -3 8q-13 20 -13 68v35q36 -3 59 -6v62q-26 -3 -59 -2v87q0 33 2 52q-27 -6 -72 -6v65h44q43 0 64 -6q-2 29 -2 56v91q0 49 4 74q-21 -4 -62 -4h-48v75h50
q28 0 38 -1q12 -1 29 -5v68q-18 -6 -77 -6h-40v101q0 51 8 75h-71q8 -32 8 -77v-99h-44q-49 -1 -71 4v-64q18 3 65 4h50v-75h-46q-34 0 -41 1q-10 0 -20 3q6 -34 6 -88v-65q0 -42 -6 -66q21 3 59 4h48v-65q-47 -3 -80 4q6 -25 6 -64v-73q-31 -3 -61 4v-62q24 3 61 4v-45
q0 -33 -3 -67q-1 -3 -1 -5zM506 181v85h79v-85h-79zM575 433v107h58v-107h-58zM466 433v107h54v-107h-54zM385 699l-14 79q-295 41 -300 54l-15 -88q237 -4 329 -45zM181 -8q7 3 22 10q69 30 67 36q0 4 -10 11q-16 10 -24 21q-11 16 -26 45h88q40 -1 79 -7q-15 28 -37 72
q-42 77 -50 102q51 0 81 -6q-8 80 -8 129v133q0 74 8 121q-33 -6 -91 -6h-93q-50 0 -68 1q-24 1 -38 3q4 -25 5 -49q1 -19 1 -64v-169q0 -38 -4 -41q-7 18 -23 33q-10 -34 -42 -73q112 -123 163 -302zM272 175h-87q-50 83 -62 101q6 5 42 4h55q30 -52 52 -105zM147 342v95
h53v-95h-53zM250 342v95h54v-95h-54zM147 496v96h53v-96h-53zM250 496v96h54v-96h-54z" />
</svg>
