<?xml version="1.0" standalone="no"?>
<!DOCTYPE svg PUBLIC "-//W3C//DTD SVG 1.1//EN" "http://www.w3.org/Graphics/SVG/1.1/DTD/svg11.dtd" >
<svg xmlns="http://www.w3.org/2000/svg" xmlns:xlink="http://www.w3.org/1999/xlink" version="1.1" viewBox="-10 0 1010 1000">
   <path fill="currentColor"
d="M266 -6q47 0 79 4q0 2 -2 7q-6 24 -6 51h102h49q33 -1 44 -2v56q-16 -4 -47 -5q-17 -1 -48 -1h-100v39q112 0 153 -6v54q-37 -4 -153 -4v38q83 0 116 -2q33 -1 51 -6v59q-12 -1 -33 -2h-60h-137q-1 5 -4 23q-1 9 -2 13q110 0 149 -1q48 -1 75 -3q-2 6 -6 19
q-22 84 -40 94q-17 16 -69 20q22 3 34 12l-10 12h161q72 0 130 -8q-47 61 -77 91h95h82q-6 33 -6 75v86q-1 54 4 69q-18 -6 -80 -6h-426q-48 0 -68 4q10 -30 10 -59v-66v-53q-9 6 -25 18q-25 19 -38 27q-18 -24 -64 -51q145 -49 240 -149l-20 -2q1 -25 -19 -60q61 17 83 12
q25 -5 32 -35h-163q-56 102 -119 150q-25 -39 -62 -61q113 -43 139 -173q-75 0 -101 1q-32 1 -46 3v-53q5 0 15 1q56 3 192 3v-42q-77 0 -100 1q-30 1 -41 3v-52q33 3 141 4v-37q-94 0 -123 1q-37 1 -50 3v-58q20 5 55 6q34 2 120 2q0 -40 -6 -64zM583 506h-226q-7 6 -20 16
q-23 19 -27 24h234zM474 590h-184v43h184v-43zM538 590v47h184v-47h-184zM290 677v50h184v-50h-184zM538 679v48h184v-48h-184zM60 816q38 6 140 6h590q73 0 127 -6v63q-4 0 -22 -1q-57 -5 -101 -5h-592q-95 1 -142 6v-63zM514 237q80 -83 107 -239q12 3 34 9q52 13 51 17
q1 2 -5 9q-24 31 -46 84h200q35 0 82 -4v68q-18 -1 -39 -2h-51q-35 110 -93 175q86 39 198 41q-44 52 -55 82q-138 -41 -193 -86q-85 42 -172 60q-10 -31 -52 -70q109 -7 175 -33q-17 -22 -45 -74q-10 -19 -15 -28l60 -29q13 41 53 97q39 -37 72 -137h-151l-67 105
q-26 -35 -48 -45z" />
</svg>
