<?xml version="1.0" standalone="no"?>
<!DOCTYPE svg PUBLIC "-//W3C//DTD SVG 1.1//EN" "http://www.w3.org/Graphics/SVG/1.1/DTD/svg11.dtd" >
<svg xmlns="http://www.w3.org/2000/svg" xmlns:xlink="http://www.w3.org/1999/xlink" version="1.1" viewBox="-10 0 1034 1024">
  <g transform="matrix(1 0 0 -1 0 820)">
   <path fill="currentColor"
d="M192 475h-81q-24 1 -46 2q-3 0 -13 4v-43q46 4 93 5h40l-20 -113q45 4 74 5l322 -1l26 -4v42q-48 -6 -73 -6q3 39 8 77h17q42 0 62 -5v43q-3 0 -6 -2l-69 -4q7 81 13 111q-25 -1 -51 -5l-247 1q-6 1 -13 2q-12 0 -26 2q0 -9 3 -18q-6 -30 -13 -93zM210 366l12 77h263
l-9 -77h-81q3 13 13 23l-46 26q-24 12 -44 20l-17 -26q40 -12 78 -43h-169zM228 475q4 37 11 75h257q-4 -37 -8 -75h-92q6 13 17 26q-13 7 -26 13l-36 18q-7 6 -30 15q-6 -15 -15 -27q13 -4 23 -9q7 -3 16 -8q24 -12 43 -28h-160zM946 -85q-48 -6 -63 -6q-759 0 -772 3
q-6 0 -10 3v-45q6 1 57 5l758 -1q16 0 30 -4v45zM214 635h291q39 0 62 -5v45l-62 -6h-270q3 7 11 14q1 3 5 7q25 39 51 51q-33 7 -58 20q-36 -70 -63 -106q-46 -52 -77 -71q24 -6 47 -22q12 13 25 27q18 24 38 46zM640 571l24 34h161q-24 -67 -77 -143q-51 63 -58 99
q-3 -1 -11 -9q-25 -12 -30 -16q10 -19 26 -40q18 -25 49 -65q-57 -70 -140 -110q18 -10 41 -28q51 33 127 112q84 -75 186 -123q15 28 41 44q-45 7 -95 31q-49 27 -108 78q33 51 48 79q21 37 43 91q36 0 82 -5v44q-31 -1 -63 -5h-202q27 55 37 69q7 12 27 25q-16 6 -58 23
q-42 -132 -136 -220q27 -12 43 -23q21 25 25 33q9 13 18 25zM356 254q21 18 49 22q-30 18 -51 38q-43 -48 -103 -93q-60 -42 -122 -58q7 -6 40 -38q36 24 73 46l-1 -179q-3 -12 -4 -40q46 4 89 5l452 -1l39 -4q-4 45 -5 64l1 125l4 39q-27 -1 -56 -5h-148l72 84
q-60 -4 -78 -5h-251zM505 51v-60h-226v60h226zM505 141v-58h-226v58h226zM249 175q33 21 64 45h292q-16 -22 -39 -45h-317zM543 -9v60h231v-60h-231zM774 141v-58h-231v58h231z" />
  </g>

</svg>
