<?xml version="1.0" standalone="no"?>
<!DOCTYPE svg PUBLIC "-//W3C//DTD SVG 1.1//EN" "http://www.w3.org/Graphics/SVG/1.1/DTD/svg11.dtd" >
<svg xmlns="http://www.w3.org/2000/svg" xmlns:xlink="http://www.w3.org/1999/xlink" version="1.1" viewBox="-10 0 1010 1000">
   <path fill="currentColor"
d="M921 38v83q-48 -10 -133 -9h-344q1 225 -2 331q-4 117 -14 192q-16 145 -85 256q-17 -26 -54 -60l-5 -5q65 -66 81 -191q19 -111 18 -472q0 -60 -1 -81q-1 -26 -5 -42q70 8 135 8h212q99 0 138 -2q40 -2 59 -8zM784 151q88 24 83 30q0 2 -5 9q-25 30 -52 90q57 0 146 -4
q-43 104 -55 145q-28 -14 -68 -14l44 -75h-87l-44 79q-35 -16 -69 -16q79 -70 107 -244zM641 157q73 16 73 26q1 2 -5 8q-30 33 -50 101q26 0 49 -3q3 -1 4 -1v56q-9 0 -26 -1q-31 -1 -61 -1v216h44v-83q0 -34 -4 -52q42 0 51 1q13 2 14 7q1 3 -2 9q-8 16 -8 39v131
q0 38 2 57h-55q2 -17 2 -63h-46q-19 158 -137 279q-44 -30 -75 -39q138 -82 154 -238q-68 0 -93 7q6 -29 6 -63v-87q0 -33 -4 -50h44q11 1 16 2q1 1 0 4q-8 16 -8 44v95h43v-216h-65q-24 1 -40 2v-58q30 3 52 3q17 1 93 1q18 -49 32 -133zM546 161q13 29 35 113l-61 10
q-5 -57 -36 -109zM768 411q85 0 85 14q0 3 -3 8q-10 16 -11 50q3 207 123 325q-30 24 -57 71q-85 -110 -95 -273q-7 186 -141 281q-34 -35 -78 -47q113 -53 152 -151q41 -96 25 -278zM319 663q-5 29 -2 74q-128 18 -265 71q-9 -39 -30 -79q156 -20 297 -66zM149 -15
q88 15 101 29q0 4 -10 11q-16 10 -24 21q-12 18 -26 46h88q35 0 79 -8q-18 35 -44 86q-35 66 -43 88q43 0 73 -6q-4 41 -4 129v145q0 77 6 109q-34 -7 -85 -6h-93q-50 0 -68 1q-23 1 -37 3q3 -24 4 -48q1 -19 1 -65v-168q0 -78 -4 -80q-8 -25 -43 -51q90 -95 129 -236z
M252 151h-87q-50 83 -62 101q6 5 42 4h55q28 -48 52 -105zM127 316v97h52v-97h-52zM230 316v97h54v-97h-54zM127 473v95h52v-95h-52zM230 473v95h54v-95h-54z" />
</svg>
