<?xml version="1.0" standalone="no"?>
<!DOCTYPE svg PUBLIC "-//W3C//DTD SVG 1.1//EN" "http://www.w3.org/Graphics/SVG/1.1/DTD/svg11.dtd" >
<svg xmlns="http://www.w3.org/2000/svg" xmlns:xlink="http://www.w3.org/1999/xlink" version="1.1" viewBox="-10 0 1010 1000">
   <path fill="currentColor"
d="M728 4q6 45 18 88q133 3 204 -10v73q-59 -9 -206 -6v54h87q48 0 78 -6q-15 36 -12 103q36 -1 57 -4v54q-24 -6 -57 -6q-3 76 8 103q-42 -6 -163 -6v57q117 0 189 -6q-6 42 -6 102v242q1 39 -21 52q-20 14 -81 15q1 -38 -25 -75q62 15 63 -12v-54h-119q0 96 6 129h-75
q4 -7 5 -35q1 -14 1 -35v-61h-96q-3 96 6 135h-73q8 -47 8 -135v-91q0 -149 -6 -179q48 8 161 8v-57q-104 -3 -149 4v-54q42 6 149 6v-53q-93 0 -122 1q-37 1 -53 3q1 381 -107 551q-19 -28 -76 -55q74 -64 98 -194q24 -101 23 -429q0 -81 -5 -133q62 6 244 6q-1 -4 -4 -10
q-9 -34 -36 -64zM506 149v147q17 2 54 3q18 1 45 1h74v-54q-126 0 -151 6v-55q42 6 151 6v-54h-173zM742 246v54h97v-54h-97zM742 344v53h97v-53h-97zM585 546v62h94v-62h-94zM742 546v62h119v-62h-119zM679 651h-96v66h96v-66zM742 651v68h119v-68h-119zM369 675
q-8 34 -2 81q-178 19 -304 64q0 -1 -1 -4q-8 -51 -26 -89q179 -6 333 -52zM192 -19q96 31 98 43q0 3 -11 9q-20 10 -27 23q-4 7 -12 22t-12 22h93q38 0 86 -8q-20 36 -50 88q-37 62 -45 84q48 0 81 -6q-4 41 -4 127v141q0 77 6 109q-38 -6 -93 -6h-104q-54 0 -75 1
q-26 1 -40 3q4 -24 5 -48q1 -19 1 -63v-166q0 -39 -4 -42q-10 17 -25 34q-11 -31 -46 -72q120 -117 178 -295zM292 159h-96q-5 7 -15 23q-36 57 -52 76q6 5 46 4h61q36 -56 56 -103zM149 322v95h59v-95h-59zM268 322v95h61v-95h-61zM149 477v93h59v-93h-59zM268 477v93h61
v-93h-61z" />
</svg>
