<?xml version="1.0" standalone="no"?>
<!DOCTYPE svg PUBLIC "-//W3C//DTD SVG 1.1//EN" "http://www.w3.org/Graphics/SVG/1.1/DTD/svg11.dtd" >
<svg xmlns="http://www.w3.org/2000/svg" xmlns:xlink="http://www.w3.org/1999/xlink" version="1.1" viewBox="-10 0 1010 1000">
   <path fill="currentColor"
d="M601 -10q105 14 103 24q0 2 -4 7q-24 26 -41 85h91q78 -3 117 -6q-3 28 -11 141q-6 83 -9 111q-3 57 -31 74q-27 20 -118 31q-1 -47 -27 -92q56 12 75 2q18 -7 22 -49q6 -49 10 -149h-224v325h232q38 -1 129 -9q-11 84 -34 289q-5 75 -37 94q-27 23 -150 41
q5 -61 -33 -107q77 14 106 3q29 -8 33 -51q6 -43 21 -196h-218q-101 2 -131 8q7 -43 6 -147v-173q0 -118 -6 -148q23 6 91 6h20q16 -50 18 -114zM119 14q17 2 47 4q58 5 54 8q0 3 -3 10q-15 28 -15 76v65q117 -54 177 -103q17 20 45 48q28 27 22 29q-4 4 -14 5q-25 3 -59 17
q-20 8 -71 28q-72 29 -100 41v72q-6 55 52 49h56q32 1 41 -12q9 -8 22 -65q31 32 79 40q-22 76 -47 93q-21 20 -95 18h-82q-70 1 -87 -19q-18 -13 -16 -86v-207q0 -90 -6 -111zM679 211q17 55 35 117l-79 14q-11 -73 -36 -119zM200 453l30 3q77 6 72 15q0 2 -3 6
q-15 23 -15 81h45q66 0 102 -6v83q-29 -6 -104 -6h-45v153q2 48 8 103h-96q9 -37 10 -107v-151h-53q-71 0 -107 8v-87q33 7 111 8h51q0 -57 -1 -74q-1 -23 -5 -29zM433 653q29 6 111 6h107q68 -2 103 -6v82q-26 -7 -94 -6h-9h-107q-85 0 -111 6v-82z" />
</svg>
