<?xml version="1.0" standalone="no"?>
<!DOCTYPE svg PUBLIC "-//W3C//DTD SVG 1.1//EN" "http://www.w3.org/Graphics/SVG/1.1/DTD/svg11.dtd" >
<svg xmlns="http://www.w3.org/2000/svg" xmlns:xlink="http://www.w3.org/1999/xlink" version="1.1" viewBox="-10 0 1010 1000">
   <path fill="currentColor"
d="M639 -13q81 16 103 31q0 1 -4 4q-14 12 -22 26q-7 12 -20 49q-3 7 -4 11h127q50 0 82 -8q-8 45 -16 147q-11 133 -26 156q-31 42 -135 48q-4 -47 -30 -88q71 14 94 -11q10 -10 20 -132q4 -39 5 -49h-212l-8 323h240q54 0 105 -9q-6 46 -11 155q-5 182 -30 210
q-35 50 -181 61q-5 -56 -47 -115q44 15 89 12q42 -4 61 -26q10 -12 21 -157q3 -44 5 -59h-224q-79 0 -115 8q10 -26 12 -107l6 -280q3 -66 -4 -87q43 7 103 8q16 -80 16 -121zM77 62q41 7 110 8h202q55 -1 87 -8v87q-35 -7 -87 -8v236q70 -1 103 -8v80q-22 -8 -103 -8v290
v31q28 131 -155 135q-2 -55 -32 -99q78 10 98 -10q18 -9 17 -57v-290q-74 217 -234 397q-19 -54 -49 -84q114 -93 226 -317q-119 3 -163 30l-34 -82q65 -33 82 -198q83 18 95 34q0 3 -8 11q-14 15 -20 28q-40 93 -55 119h160v-236h-129q-81 1 -111 8v-89zM716 213
q21 43 38 101l-75 24q-12 -53 -34 -103zM450 641q42 9 127 10h82q77 0 125 -10v90q-36 -7 -125 -8h-86q-81 1 -123 8v-90z" />
</svg>
