<?xml version="1.0" standalone="no"?>
<!DOCTYPE svg PUBLIC "-//W3C//DTD SVG 1.1//EN" "http://www.w3.org/Graphics/SVG/1.1/DTD/svg11.dtd" >
<svg xmlns="http://www.w3.org/2000/svg" xmlns:xlink="http://www.w3.org/1999/xlink" version="1.1" viewBox="-10 0 1034 1024">
  <g transform="matrix(1 0 0 -1 0 820)">
   <path fill="currentColor"
d="M94 -142q102 150 141 272q22 69 37 163q10 97 17 227h138q0 -78 -2 -103q-3 -12 -4 -17h49q-4 54 -5 81q1 39 5 80q-66 -4 -95 -5h-86l4 109q3 58 24 85h-70q3 -43 4 -97q0 -54 -3 -97q-102 0 -128 2l-40 3q6 -48 7 -69q-1 -42 -3 -86q-1 -3 -1 -6q-1 -3 -3 -7h49
q-4 24 -5 62v65h124l-6 -131q-3 -49 -9 -93q-25 -174 -117 -323q-40 -66 -80 -94q21 -4 42 -15q7 -3 16 -6zM289 -73q9 -9 18 -27q0 -1 2 -4q19 30 93 116q34 42 58 65l25 33l-19 45q-60 -79 -128 -156l1 257q3 30 8 40q0 4 4 8h-56q0 -10 5 -67l-1 -257q-6 -25 -20 -41
q4 -6 10 -12zM472 21q30 4 65 5l273 -1q27 0 40 -4v46q-43 -4 -63 -5l-281 1q-3 0 -34 4v-46zM535 655q1 -30 5 -62l-1 -339q-3 -15 -4 -48q33 3 67 5h301l-6 -74q-6 -103 -15 -185q-4 -40 -24 -55q-21 -16 -75 -17q-24 0 -70 9q15 -25 25 -56q27 0 83 8q78 9 90 58
q9 40 22 191l7 101q3 31 8 49q0 1 2 12q-34 -1 -69 -5h-303v367h278l-4 -68q-1 -9 -5 -78q-1 -36 -12 -51q-15 -21 -53 -22q-9 0 -64 6q19 -33 25 -55l30 4q57 7 80 26q30 27 35 95q4 132 7 140l4 31q0 6 1 13q-55 -4 -86 -5h-139q24 58 34 73q9 15 33 34q-51 12 -61 16
q-13 -45 -22 -65q-7 -16 -29 -58l-74 4q-10 1 -21 1zM713 522q-30 21 -42 26q-6 3 -19 13q-9 -18 -25 -36q57 -24 123 -83q9 21 24 40q-9 4 -18 12z" />
  </g>

</svg>
