<?xml version="1.0" standalone="no"?>
<!DOCTYPE svg PUBLIC "-//W3C//DTD SVG 1.1//EN" "http://www.w3.org/Graphics/SVG/1.1/DTD/svg11.dtd" >
<svg xmlns="http://www.w3.org/2000/svg" xmlns:xlink="http://www.w3.org/1999/xlink" version="1.1" viewBox="-10 0 1010 1000">
   <path fill="currentColor"
d="M375 -23q2 1 2 9q1 26 14 48q22 37 73 93l157 -19q-42 -38 -117 -70l61 -53q17 3 122 61l-58 60l153 -24q101 -17 133 -30l14 85q-21 1 -81 9q-31 4 -44 5l-262 36q191 104 295 101q10 -3 17 -31q6 -28 3 -56q25 32 83 55q-13 84 -49 113q-28 19 -139 -13q-3 18 -8 70
q-5 51 -8 70q-4 45 -31 58q-23 16 -118 32q-4 -53 -35 -94q67 21 95 -2q11 -12 15 -34q3 -14 4 -30q1 -22 -1 -23h-389v197h409q148 0 194 -6q-6 44 -17 147q-5 51 -7 69q-4 60 -38 78q-28 21 -144 37q-4 -57 -38 -99q130 31 135 -38q10 -68 12 -123h-465q-111 0 -129 6
q4 -28 6 -109v-133q-3 -69 -6 -93q27 4 110 4h43q19 -47 20 -105q80 15 99 27q-1 3 -6 9q-23 23 -39 69h164q88 0 104 -4q-161 -65 -243 -135l-248 34q-72 11 -121 23l-11 -83q19 2 86 -5l33 -3l200 -26q-3 -3 -9 -10q-59 -71 -102 -129q85 -25 107 -25zM383 439
q93 38 147 69l-56 56q-58 -47 -139 -77zM93 727q39 7 135 8h328q87 0 129 -4v79q-25 -8 -115 -6h-18h-328q-98 1 -131 8v-85z" />
</svg>
