<?xml version="1.0" standalone="no"?>
<!DOCTYPE svg PUBLIC "-//W3C//DTD SVG 1.1//EN" "http://www.w3.org/Graphics/SVG/1.1/DTD/svg11.dtd" >
<svg xmlns="http://www.w3.org/2000/svg" xmlns:xlink="http://www.w3.org/1999/xlink" version="1.1" viewBox="-10 0 1010 1000">
   <path fill="currentColor"
d="M460 70v87q-33 -8 -129 -8h-160v125l59 -37q15 22 64 89q26 36 39 53q42 -111 50 -166q16 7 41 17q53 21 48 26q0 3 -5 7q-18 17 -34 53q-23 49 -54 127q62 85 105 153l-77 43q-26 -70 -64 -127q-45 87 -99 171q-22 -21 -73 -44v115h160q103 -3 127 -6v86q-26 -6 -129 -6
h-123q-85 0 -121 8q9 -55 10 -191v-363q-2 -144 -10 -210q13 2 43 3q14 1 34 1h58h107q94 -2 133 -6zM627 -12q98 15 95 24q0 4 -5 12q-18 27 -36 76h93q76 -2 117 -8q-2 21 -7 64q-21 210 -33 235q-20 52 -145 64q3 -39 -37 -93q63 9 85 -1q22 -8 28 -47q6 -31 15 -130
q1 -17 1 -15h-221v319h207q120 -2 160 -9q-8 60 -23 257q-1 24 -2 32q-3 75 -37 99q-33 27 -146 42q-12 -67 -48 -109q87 15 114 3q28 -10 33 -65q11 -89 16 -178h-246q-81 0 -111 6q5 -43 8 -133v-208q-2 -105 -8 -131q13 4 53 5q20 0 30 1h30q11 -41 17 -83q2 -18 3 -29z
M171 288v343q60 -52 129 -182q-93 -124 -129 -161zM776 643v82q-35 -8 -103 -8h-106q-81 0 -105 6v-78q10 0 53 2q31 1 50 2h112q74 -3 99 -6zM696 209l42 109l-79 16q-7 -55 -38 -103z" />
</svg>
