<?xml version="1.0" standalone="no"?>
<!DOCTYPE svg PUBLIC "-//W3C//DTD SVG 1.1//EN" "http://www.w3.org/Graphics/SVG/1.1/DTD/svg11.dtd" >
<svg xmlns="http://www.w3.org/2000/svg" xmlns:xlink="http://www.w3.org/1999/xlink" version="1.1" viewBox="-10 0 1034 1024">
  <g transform="matrix(1 0 0 -1 0 820)">
   <path fill="currentColor"
d="M110 92q-3 -36 -3 -54q-1 -3 -1 -7q-1 -1 -1 -5h48q-4 54 -5 79v49h149v-13q0 -25 -4 -46h47q-6 66 -5 106l1 393l4 51q-33 -1 -67 -5q-102 0 -128 2q-6 3 -40 3q1 -36 5 -74v-479zM148 190v414h149v-414h-149zM358 23q30 4 65 5q336 0 345 -2q6 0 9 -2q3 0 8 -1v46
q-43 -4 -65 -5l-329 1q-6 0 -33 4v-46zM466 267q-3 -36 -5 -74q37 3 76 5h337l-2 -112q-1 -78 -5 -118q-3 -28 -8 -43q-7 -24 -44 -33q-37 -10 -83 -11q-12 0 -63 7q12 -19 25 -56q76 6 110 14q88 21 96 83l8 117q7 172 10 188q0 3 1 5q-37 -1 -75 -5h-340v372h299l-3 -134
q0 -57 -29 -72q-28 -12 -77 -13q-7 0 -26 3q10 -25 17 -49l61 10q48 9 71 35q13 16 18 42q4 24 5 96l1 59l4 64q-33 -1 -65 -5h-148q9 30 21 61q12 27 31 42q-36 6 -66 14q-3 -33 -8 -56q-6 -25 -19 -61q-60 0 -89 2q-6 3 -41 3q1 -31 5 -65v-315zM649 509q-27 24 -52 45
q-10 -15 -28 -32q45 -25 109 -99q10 13 30 33z" />
  </g>

</svg>
