<?xml version="1.0" standalone="no"?>
<!DOCTYPE svg PUBLIC "-//W3C//DTD SVG 1.1//EN" "http://www.w3.org/Graphics/SVG/1.1/DTD/svg11.dtd" >
<svg xmlns="http://www.w3.org/2000/svg" xmlns:xlink="http://www.w3.org/1999/xlink" version="1.1" viewBox="-10 0 1010 1000">
   <path fill="currentColor"
d="M611 -19q96 12 95 25q0 4 -5 8q-20 22 -34 84h117q72 -3 109 -10q-9 68 -19 193q-5 60 -7 79q-4 56 -31 72q-19 17 -120 33q6 -50 -28 -96q94 18 96 -23q16 -90 18 -179h-221v331h213q93 -1 139 -10q-6 60 -14 169q-5 71 -8 109q-4 81 -40 103q-31 26 -165 46
q3 -58 -35 -109q144 36 150 -54q7 -46 14 -159q1 -17 2 -25h-208q-94 1 -133 6q5 -43 6 -137v-222q-1 -89 -6 -121q26 3 99 6q19 -67 16 -119zM208 -10q106 3 104 10q0 3 -4 9q-16 23 -16 65v39h79q72 -1 95 -5v79q-30 -5 -97 -6h-77v93h27q84 0 114 -6q-4 27 -4 105v96
q1 74 6 113q-30 -6 -118 -8h-136q2 196 -70 333q-2 -1 -5 -4q-45 -39 -76 -51q52 -77 64 -166q7 -47 9 -118q1 -68 -2 -187q0 -12 -1 -33q-1 -67 -5 -78q30 3 95 4h26v-145q-1 -99 -8 -139zM700 207q34 71 42 111l-75 18q-13 -65 -40 -113zM351 342h-170v162h170v-162z
M742 655v82q-35 -9 -127 -6h-135q-72 0 -115 6v-82q23 3 117 6h125q99 -3 135 -6z" />
</svg>
