<?xml version="1.0" standalone="no"?>
<!DOCTYPE svg PUBLIC "-//W3C//DTD SVG 1.1//EN" "http://www.w3.org/Graphics/SVG/1.1/DTD/svg11.dtd" >
<svg xmlns="http://www.w3.org/2000/svg" xmlns:xlink="http://www.w3.org/1999/xlink" version="1.1" viewBox="-10 0 1034 1024">
  <g transform="matrix(1 0 0 -1 0 820)">
   <path fill="currentColor"
d="M412 183l-4 -49q-1 -3 -2 -13h50q-3 10 -7 57l1 235l6 52q-30 -1 -61 -5h-87v154l149 -1q15 0 38 -5v47q-12 -3 -38 -4l-149 -1q0 19 2 39q0 31 13 65h-58l6 -65v-229q-66 0 -91 2q-6 3 -31 3q1 -21 2 -35q3 -21 3 -32v-161q0 -39 -4 -90q-4 -57 -13 -97
q-18 -84 -58 -138q-19 -24 -41 -38q27 -10 54 -23q60 97 79 178q7 39 19 154h222zM191 219v205h221v-205h-221zM452 23q12 6 52 6l294 -1q24 0 34 -3q1 0 4 -2v47l-63 -5l-292 1q-9 1 -17 2q-3 0 -12 2v-47zM555 648q1 -24 5 -51l-1 -359q-3 -15 -4 -41q33 3 66 5h295
l-7 -145q-3 -58 -9 -90q-3 -25 -12 -44q-19 -42 -94 -42q-30 0 -67 5q12 -28 17 -52q51 3 84 9q27 4 51 16q33 15 48 58q12 42 19 162l11 164l-101 -5h-259v379h271l-6 -134q-6 -78 -20 -93q-15 -12 -60 -13q-24 0 -59 5q10 -27 18 -50q100 4 127 29q24 25 31 125q3 43 5 74
q9 72 9 99q-6 0 -8 -1q-18 -1 -16 -2q-30 -3 -43 -4h-163q30 60 74 94q-31 12 -63 28q-4 -24 -13 -46q-12 -27 -36 -76h-32q-6 0 -29 3q-6 3 -29 4v-11zM687 554l-11 11q-12 -15 -28 -29q39 -33 57 -49l51 -52q12 18 29 33z" />
  </g>

</svg>
