<?xml version="1.0" standalone="no"?>
<!DOCTYPE svg PUBLIC "-//W3C//DTD SVG 1.1//EN" "http://www.w3.org/Graphics/SVG/1.1/DTD/svg11.dtd" >
<svg xmlns="http://www.w3.org/2000/svg" xmlns:xlink="http://www.w3.org/1999/xlink" version="1.1" viewBox="-10 0 1010 1000">
   <path fill="currentColor"
d="M613 -15q101 9 105 19q-1 5 -8 11q-23 22 -35 81h103q6 0 35 -2q45 -4 78 -6q-9 54 -22 234q-5 77 -35 101q-23 24 -120 34q-5 -58 -29 -86q65 8 82 -3q19 -9 23 -56q10 -100 10 -149h-242v335h230q102 0 139 -10q-9 65 -20 233q-3 35 -4 55q-3 77 -39 101
q-34 28 -144 36q-4 -50 -32 -101q123 33 131 -48q9 -72 16 -198h-202q-116 1 -157 8q7 -50 8 -161v-194q-1 -91 -6 -129q24 3 89 6h32q18 -77 14 -111zM210 6q105 0 105 10q0 3 -6 12q-19 30 -19 66v97h55q75 -3 101 -6v83q-28 -6 -97 -6h-59v157h31q60 -1 84 -4
q-5 39 -6 125v165q1 76 6 117h-95q6 -48 7 -85h-144q0 73 6 109h-96q7 -21 8 -47q1 -13 2 -32v-56v-169q-3 -121 -8 -129q21 3 84 6h47v-157h-63q-80 2 -109 6v-83q32 6 107 6h65v-93q0 -72 -6 -92zM688 205q18 48 36 115l-83 14q-5 -71 -30 -111zM319 483h-146v190h146
v-190zM433 649q28 6 117 6h105q78 0 117 -4v84q-30 -6 -117 -6h-101q-98 0 -121 6v-86z" />
</svg>
