<?xml version="1.0" standalone="no"?>
<!DOCTYPE svg PUBLIC "-//W3C//DTD SVG 1.1//EN" "http://www.w3.org/Graphics/SVG/1.1/DTD/svg11.dtd" >
<svg xmlns="http://www.w3.org/2000/svg" xmlns:xlink="http://www.w3.org/1999/xlink" version="1.1" viewBox="-10 0 1034 1024">
  <g transform="matrix(1 0 0 -1 0 820)">
   <path fill="currentColor"
d="M273 652q12 21 36 49q9 9 14 13q6 3 18 8q-18 4 -42 19q-7 3 -18 8q-15 -39 -54 -91q-37 -46 -88 -92q-45 -36 -79 -49q16 -9 35 -18q4 -1 14 -10q19 13 35 28l103 103h188q-46 -87 -86 -124q-43 24 -101 52q-12 -21 -25 -38q73 -27 95 -45q-30 -30 -107 -72
q-93 -45 -156 -56q22 -15 42 -39q225 90 323 221q43 63 81 139q-63 -6 -86 -6h-142zM109 -45q7 1 64 6q520 0 536 -3q3 0 19 -3v43q-43 -4 -64 -5l-522 1l-33 4v-43zM836 75q-4 -60 -12 -114q-9 -37 -27 -54q-19 -12 -58 -12q-22 0 -67 7q12 -19 22 -51q90 3 126 22
q22 13 36 43q10 33 19 102q1 49 5 61q0 12 5 34q-49 -4 -65 -5h-526v201h431q-4 -70 -23 -89q-21 -15 -62 -16q-10 0 -44 5q12 -22 21 -53q55 4 91 19q46 24 56 92q1 24 4 46q0 16 6 34q-34 -1 -69 -5h-266q7 24 27 49q18 27 41 37q-30 7 -62 22q-12 -30 -25 -57
q-18 -31 -25 -51l-123 3q-12 1 -21 2q1 -28 5 -58q0 -159 -2 -187q-3 -3 -3 -32q33 3 67 5h518zM482 236l-67 31q-6 -13 -21 -36q85 -27 146 -69q12 25 23 38zM552 485q0 -36 17 -53q16 -15 71 -19l99 -2q72 0 110 7q52 10 80 49q13 22 29 56q-18 9 -45 32q-1 -22 -5 -36
q-9 -33 -30 -50q-30 -24 -131 -24l-59 1q-67 1 -82 9q-16 9 -17 48v145h209q0 -24 -4 -44q-7 -33 -21 -42q-18 -12 -47 -12q-12 0 -40 7q15 -30 18 -51q48 3 79 15q42 18 55 100q1 25 8 54q0 4 2 11q-55 -4 -83 -5l-179 1l-39 4q4 -54 5 -85v-116z" />
  </g>

</svg>
