<?xml version="1.0" standalone="no"?>
<!DOCTYPE svg PUBLIC "-//W3C//DTD SVG 1.1//EN" "http://www.w3.org/Graphics/SVG/1.1/DTD/svg11.dtd" >
<svg xmlns="http://www.w3.org/2000/svg" xmlns:xlink="http://www.w3.org/1999/xlink" version="1.1" viewBox="-10 0 1034 1024">
  <g transform="matrix(1 0 0 -1 0 820)">
   <path fill="currentColor"
d="M54 6q33 -9 54 -20q13 21 33 56q19 34 33 62q15 33 25 46q6 9 30 21q-42 15 -61 27q-4 -31 -27 -78q-22 -51 -45 -76q-18 -24 -42 -38zM147 568l-62 4q-3 0 -7 1v-46q9 6 75 5h57q-27 -81 -64 -170q-12 -30 -22 -43q-6 -7 -22 -15l22 -50q10 4 20 6q39 4 76 5h56v-327
q0 -28 -8 -37q-13 -13 -42 -14q-12 0 -42 4q10 -27 15 -49q49 6 67 12q48 15 48 78v333l127 -1q12 0 30 -4v45q-7 0 -13 -2l-144 -3q0 90 3 92q3 15 12 29h-59q0 -6 3 -12q0 -36 3 -73v-36h-119q12 33 42 103q39 108 46 118q1 6 5 11q205 0 215 -3q1 0 6 -2v46
q-33 -1 -66 -5h-144l29 91q13 39 21 48q6 10 27 21q-43 9 -73 18q-1 -27 -10 -65q-10 -42 -33 -113h-75zM441 112q-6 16 -17 35q-9 19 -22 42q-21 -13 -38 -19q37 -57 74 -146q9 9 37 23q-9 16 -11 20q-12 22 -23 45zM822 69q-33 -1 -66 -5q-204 0 -228 2q-3 1 -13 2
q-3 1 -6 1v-46q39 4 45 5q252 0 261 -3q3 0 7 -2v46zM523 197q24 4 65 5h311l-10 -240q-3 -36 -28 -53q-34 -18 -80 -19q-21 0 -47 4q6 -13 11 -26q3 -9 7 -24q39 3 65 8q24 6 46 14q36 15 51 41q12 27 14 86q6 177 11 229q0 12 4 21q-34 -1 -69 -5h-308v367h271l-5 -200
q-3 -10 -7 -19q-4 -6 -17 -11q-15 -4 -33 -5q-10 0 -44 2q19 -30 24 -48q33 3 70 17q28 10 37 28t9 67q6 189 9 202q0 4 1 8q-36 -1 -72 -5h-136q4 12 9 22q18 39 29 53q10 15 33 25q-24 7 -49 18l-19 7q-6 -31 -15 -55q-9 -28 -28 -70q-49 0 -110 5q1 -33 5 -68l-1 -332
q-3 -12 -4 -49zM697 503l-41 45q-18 -19 -31 -29q54 -52 89 -100q12 13 33 28z" />
  </g>

</svg>
