<?xml version="1.0" standalone="no"?>
<!DOCTYPE svg PUBLIC "-//W3C//DTD SVG 1.1//EN" "http://www.w3.org/Graphics/SVG/1.1/DTD/svg11.dtd" >
<svg xmlns="http://www.w3.org/2000/svg" xmlns:xlink="http://www.w3.org/1999/xlink" version="1.1" viewBox="-10 0 1010 1000">
   <path fill="currentColor"
d="M613 -12q103 15 97 22q0 5 -7 12q-22 24 -36 76h93q107 -3 133 -10q-4 42 -11 141q-10 141 -15 162q-4 52 -139 74q-1 -40 -34 -88q65 11 88 -15q16 -23 22 -197h-225v335h242q66 -2 110 -12q0 5 -1 17q-11 186 -17 271q-3 72 -37 95q-35 27 -136 36q-3 -56 -40 -93
q81 8 102 -4q22 -8 27 -60q5 -34 11 -156q1 -19 1 -26h-190q-120 1 -151 8q6 -29 6 -133v-203q-1 -116 -8 -146q10 0 49 2q29 1 46 2q25 -57 20 -110zM413 42q67 76 59 85q-3 1 -11 1q-48 -3 -153 19v153h57q79 -3 103 -8v83q-16 -4 -66 -3q-26 0 -35 -1h-59v129h37
q66 0 90 -6q-6 35 -6 102v174q0 61 6 92h-92q0 -4 2 -17q4 -32 4 -51h-159q-2 5 -1 43q0 31 3 56h-87q8 -34 8 -107v-167q-1 -18 -3 -50q-2 -51 -5 -75q21 0 80 6h41v-129h-73q-68 3 -97 8v-85q33 5 101 6h69v-141q-62 7 -131 19q-4 1 -6 1q-13 -44 -45 -77q214 3 369 -60z
M696 205q35 84 44 123l-79 22q-5 -69 -38 -127zM351 566h-161v163h161v-163zM460 651q33 6 102 6h125q73 0 97 -6v82q-27 -5 -94 -6h-123q-60 1 -107 6v-82z" />
</svg>
