<?xml version="1.0" standalone="no"?>
<!DOCTYPE svg PUBLIC "-//W3C//DTD SVG 1.1//EN" "http://www.w3.org/Graphics/SVG/1.1/DTD/svg11.dtd" >
<svg xmlns="http://www.w3.org/2000/svg" xmlns:xlink="http://www.w3.org/1999/xlink" version="1.1" viewBox="-10 0 1034 1024">
  <g transform="matrix(1 0 0 -1 0 820)">
   <path fill="currentColor"
d="M339 663q-9 7 -21 16q16 33 45 47q-27 10 -45 18l-16 8q-45 -132 -153 -252q-31 -36 -58 -60q-22 -18 -48 -31q22 -10 49 -29q45 45 101 110q27 33 51 66q24 36 56 87l41 -29l40 -32q88 -81 109 -116q6 7 20 26q6 7 13 15q-129 115 -148 128q-18 15 -36 28zM151 264
q1 -33 5 -66l-1 -303q-1 -12 -3 -21q-1 -3 -1 -7h48q-6 25 -6 66v34h197q0 -57 -3 -78q-3 -6 -3 -14h50q-4 18 -5 37l-1 286l6 66q-19 -1 -33 -2q-22 -3 -70 -3l-134 1q-19 3 -46 4zM193 3v220h197v-220h-197zM153 372q30 4 65 5l188 -1q19 0 26 -3q3 0 7 -1v46
q-48 -4 -85 -5l-168 1q-6 0 -33 4v-46zM469 27q16 4 45 5q292 0 304 -2q7 0 12 -2q3 0 7 -1v47q-9 -3 -15 -3q-48 -3 -50 -3l-270 1q-9 1 -17 2q-6 0 -16 3v-47zM542 195q49 4 104 5h268l-3 -161q-1 -7 -1 -11q-3 -69 -22 -93q-15 -24 -46 -33q-31 -7 -75 -8q-24 0 -76 11
q15 -25 23 -57q18 1 33 2q117 4 164 48q19 22 27 42q6 21 8 73q4 162 8 176q1 19 6 52q-36 -1 -72 -5h-304v371h273l-8 -178q-3 -13 -9 -25q-16 -28 -82 -29q-24 0 -55 3q15 -27 21 -52q64 7 96 17q40 15 56 39q12 25 15 84l9 182q-21 -1 -35 -2q-22 -3 -28 -3h-166
q19 36 37 58q13 24 45 38q-13 7 -27 14q-15 6 -32 18q-21 -57 -69 -128q-22 0 -83 5q1 -34 5 -71l-1 -338q-3 -15 -4 -44zM763 483l-105 72q-12 -18 -25 -36q30 -15 61 -38q10 -6 63 -48l4 -4l25 38q-12 9 -23 16v0z" />
  </g>

</svg>
