<?xml version="1.0" standalone="no"?>
<!DOCTYPE svg PUBLIC "-//W3C//DTD SVG 1.1//EN" "http://www.w3.org/Graphics/SVG/1.1/DTD/svg11.dtd" >
<svg xmlns="http://www.w3.org/2000/svg" xmlns:xlink="http://www.w3.org/1999/xlink" version="1.1" viewBox="-10 0 1010 1000">
   <path fill="currentColor"
d="M623 -8q93 11 111 24q1 2 -8 9q-16 13 -26 25q-6 7 -15 23q-8 15 -14 25h115q55 -2 97 -10q-10 62 -14 196q-2 82 -6 95q-18 61 -151 72q-1 -36 -41 -93q89 16 111 -6q10 12 16 -187h-215v333h260q63 0 94 -8q-4 32 -9 122q-9 212 -33 234q-38 44 -165 57
q-8 -56 -43 -105q99 17 140 -18q19 -21 27 -197q1 -12 1 -17h-254q-57 0 -97 8q8 -31 8 -91v-250l-60 61q-72 -76 -172 -147q-48 80 -119 159q38 10 87 10h62q56 -1 111 -10v89q-37 -7 -108 -8h-67q-53 0 -95 8v-75q-26 33 -62 67q-30 -39 -65 -57q157 -122 238 -328
q102 25 109 32q0 1 -10 9q-17 13 -22 19q-8 10 -16 26q-1 3 -2 4q82 46 191 129v-40q0 -47 -8 -93q35 7 89 8q30 -68 30 -104zM700 197q23 27 52 105l-79 26q-19 -65 -48 -105zM440 467q-7 35 -7 91v230q1 42 7 70h-93q7 -24 8 -68h-149q0 31 6 70q2 12 2 15h-93
q7 -33 8 -85v-236q-1 -49 -8 -87q33 8 99 8h115q55 0 105 -8zM204 538v189h153v-189h-153zM796 651v86q-42 -7 -117 -8h-92q-72 1 -113 8v-86q48 9 115 10h94q65 -1 113 -10z" />
</svg>
