<?xml version="1.0" standalone="no"?>
<!DOCTYPE svg PUBLIC "-//W3C//DTD SVG 1.1//EN" "http://www.w3.org/Graphics/SVG/1.1/DTD/svg11.dtd" >
<svg xmlns="http://www.w3.org/2000/svg" xmlns:xlink="http://www.w3.org/1999/xlink" version="1.1" viewBox="-10 0 1010 1000">
   <path fill="currentColor"
d="M222 0q8 2 23 6q84 23 80 26q-1 4 -10 14q-28 31 -47 69h89q47 0 99 -3h6q-6 95 -18 253q-1 48 -29 64q-29 20 -113 30q1 -55 -28 -90q97 21 97 -39q1 -9 3 -26q8 -78 7 -121h-198v313h194q100 -1 137 -8q-6 71 -20 220q-4 46 -6 64q-5 72 -42 95q-36 26 -140 30
q2 -47 -42 -105q126 37 145 -32q10 -60 22 -196h-211q-85 2 -121 8q5 -33 6 -121v-222q-1 -10 -2 -30q-5 -76 -8 -89q24 5 95 5q19 -28 32 -115zM726 16q18 41 44 129h51q72 -3 104 -6q-8 29 -8 92q0 72 8 101l-90 2q6 -29 6 -60v-59h-258v53q-1 57 4 70h-87q6 -28 8 -101
q0 -53 -1 -67q0 -19 -3 -29q11 2 34 3q12 1 28 1h47h66q-10 -40 -48 -99zM296 219q15 41 33 107l-83 18q-5 -61 -26 -109zM591 316q104 11 103 20q1 2 -4 10q-15 29 -15 61v119q89 -49 148 -121q13 13 39 36q50 44 43 46q-4 3 -11 3q-21 1 -51 18q-129 77 -168 96v148
q-1 37 11 44q7 9 54 8h46q33 1 45 -22q12 -21 18 -93q44 45 93 51q-26 97 -48 117q-21 27 -81 26h-97q-87 1 -101 -15q-20 -11 -18 -82v-327q0 -118 -6 -143zM375 623q-12 35 -8 86q-239 23 -302 53q-2 -53 -19 -103q168 9 329 -36z" />
</svg>
