<?xml version="1.0" standalone="no"?>
<!DOCTYPE svg PUBLIC "-//W3C//DTD SVG 1.1//EN" "http://www.w3.org/Graphics/SVG/1.1/DTD/svg11.dtd" >
<svg xmlns="http://www.w3.org/2000/svg" xmlns:xlink="http://www.w3.org/1999/xlink" version="1.1" viewBox="-10 0 1034 1024">
  <g transform="matrix(1 0 0 -1 0 820)">
   <path fill="currentColor"
d="M100 326q3 9 8 16q13 22 28 45q24 40 49 80v-557q0 -37 -3 -52q0 -3 -2 -12h49q-3 6 -4 26q0 18 -2 38v633q21 49 32 79l29 69q7 13 28 30q-18 6 -57 25q-24 -76 -49 -143q-19 -45 -48 -99q-13 -27 -28 -51q-15 -25 -25 -39q-36 -51 -68 -71q27 -9 58 -25q1 4 5 8z
M397 -94q0 -27 -3 -52q0 -1 -2 -12h49q-3 6 -4 26q0 18 -2 38v472q60 -63 94 -146q19 19 40 32l-54 73l-44 60q-12 18 -36 45v54q114 -3 120 -6q0 1 2 -1v48q-9 -3 -22 -3q-19 -1 -41 -3h-59v144q0 27 14 65h-57q0 -3 1 -6q3 -75 4 -117v-86l-84 1q-3 1 -6 1q-18 0 -37 4
v-48q1 0 3 1q4 4 34 5l90 1q-6 -31 -21 -77q-31 -84 -57 -131q-30 -60 -53 -95q-18 -25 -41 -43q24 -6 35 -11q9 -1 20 -8q24 39 59 109q34 70 58 124v-458zM508 30q1 0 38 5l237 1q27 0 55 -3q3 0 7 -3v47l-59 -5l-249 1q-9 1 -17 2q-3 0 -12 2v-47zM597 651q1 -30 5 -60
l-1 -349q-3 -15 -4 -41q6 1 33 2q19 3 33 4h254l-7 -222q-1 -3 -1 -7q-6 -63 -31 -78q-30 -13 -87 -14q-30 0 -68 5q6 -13 11 -27q3 -10 8 -23q72 3 111 11q51 10 71 34q18 24 22 85l6 104q3 102 6 135q0 21 2 39q-18 -6 -45 -7h-276v368h238l-4 -123q-4 -81 -23 -99
q-13 -15 -65 -15q-27 0 -60 6q0 -1 2 -4q0 -3 3 -10l10 -36q96 0 134 26q18 18 26 44q6 28 9 86q3 70 13 166q-27 -1 -54 -5h-139q15 27 24 48l15 27q9 13 24 24q-42 18 -56 27q-24 -78 -50 -126l-69 4q-10 1 -20 1zM713 514q21 -24 47 -54q3 -3 6 -8q6 -9 14 -18q1 3 3 4
q3 0 7 7q6 9 19 18q-7 9 -50 55q-31 31 -44 48q-12 -13 -27 -27z" />
  </g>

</svg>
