<?xml version="1.0" standalone="no"?>
<!DOCTYPE svg PUBLIC "-//W3C//DTD SVG 1.1//EN" "http://www.w3.org/Graphics/SVG/1.1/DTD/svg11.dtd" >
<svg xmlns="http://www.w3.org/2000/svg" xmlns:xlink="http://www.w3.org/1999/xlink" version="1.1" viewBox="-10 0 1010 1000">
   <path fill="currentColor"
d="M230 -12q93 3 97 12q1 3 -2 9q-15 23 -15 75h39q63 0 84 -4v73q-21 -6 -84 -6h-41v70q55 -12 121 -24l-4 69q-71 3 -117 12v80q5 58 -96 71q39 9 84 10h45q16 -33 24 -79q3 1 9 2q75 11 74 17q1 5 -7 15q-17 19 -30 45h234q101 0 131 -6q-1 10 -5 33q-5 44 -9 64
q-6 42 -29 55q-21 15 -100 29q0 -41 -32 -76q61 10 75 2q17 -5 14 -40h-404v125h448q104 -1 149 -8q-6 33 -22 140q-6 39 -8 51q-9 64 -42 81q-29 20 -132 22q0 -45 -32 -89q118 33 123 -22q13 -57 20 -113h-419q-126 1 -167 8q5 -38 6 -99v-66q0 -68 -4 -99h-27
q-3 -48 -34 -83q97 18 93 -10v-50q-77 11 -161 32l-17 -78q77 0 178 -11v-80h-73q-45 0 -61 1q-19 1 -29 3v-75q18 5 94 8h69q-2 -81 -8 -96zM595 -8q81 1 97 12q2 4 -2 11q-14 26 -19 71q10 -1 29 -2q122 -9 133 -12q-16 51 -22 98t-1 87q14 95 55 93q16 -5 30 -80
q20 48 61 70q-41 93 -91 97q-64 -4 -102 -91q-15 -40 -20 -92q-4 -52 3 -115l-81 8q-6 58 -22 107l85 44l-47 58q-2 -2 -7 -5q-31 -25 -57 -39q-28 50 -91 103q-21 -26 -76 -48q69 -29 108 -87q-17 -14 -82 -40l38 -51l67 36q15 -40 16 -72q-87 6 -117 12l-8 -75q54 7 131 2
q3 -61 -8 -100zM413 510q76 20 158 50l-49 55q-47 -37 -149 -55zM93 729q51 4 133 6h347q81 0 121 -6v81q-32 -7 -112 -6h-9h-347q-93 0 -133 6v-81z" />
</svg>
