<?xml version="1.0" standalone="no"?>
<!DOCTYPE svg PUBLIC "-//W3C//DTD SVG 1.1//EN" "http://www.w3.org/Graphics/SVG/1.1/DTD/svg11.dtd" >
<svg xmlns="http://www.w3.org/2000/svg" xmlns:xlink="http://www.w3.org/1999/xlink" version="1.1" viewBox="-10 0 1034 1024">
  <g transform="matrix(1 0 0 -1 0 820)">
   <path fill="currentColor"
d="M99 372q30 3 61 5l735 -1q12 0 29 -4v44q-30 -1 -59 -5l-739 1q-18 1 -27 4v-44zM451 288q9 13 15 25q3 6 11 16q6 7 28 23q-25 7 -53 20q-3 -3 -10 -21q-1 -3 -2 -7l-9 -21q-16 -27 -17 -34l-1 -1l-132 1q-12 3 -40 4q1 -16 3 -31q3 -21 3 -71l-1 -98l-5 -42q49 4 99 5
h500q-9 -108 -34 -131q-22 -24 -92 -24q-15 0 -43 3q18 -45 18 -47q4 0 21 2q45 6 71 12q21 6 40 18q27 19 41 62q3 16 8 42q6 34 14 102q-49 -4 -53 -5h-550v164h438q0 -36 -4 -52q-6 -19 -24 -30q-19 -9 -46 -9q-9 3 -23 3q7 -21 12 -46q79 12 100 36q16 21 22 85l5 52
q-27 -1 -55 -5h-255zM125 -68q3 3 9 4l174 2l364 -1q7 0 18 -1q9 -1 11 -3l1 -1v45l-9 -2q1 0 -13 -2l-540 1l-15 3v-45zM150 569q49 7 87 10l68 5q-105 -84 -161 -97q4 -19 11 -40q37 9 55 10l192 18l56 4q1 18 5 37q-22 -3 -37 -5l-180 -14l103 80l59 51q34 30 65 38
q-24 19 -43 40q-25 -37 -84 -88l-146 -9q7 10 17 19l53 52q28 27 35 32q6 6 37 22q-16 12 -44 35q-12 -19 -29 -39q-15 -19 -53 -57q-30 -30 -48 -46q-16 -12 -34 -19q7 -19 16 -39zM555 148q4 9 9 22q-12 3 -25 9q-87 34 -140 52q-3 -12 -6 -18q-1 -6 -6 -16
q115 -36 162 -67zM526 587q30 7 58 11l113 9l-61 -44q-16 -12 -35 -21q-46 -27 -75 -32q6 -19 13 -41q48 9 101 13l209 14q6 0 24 1q1 21 9 41q-37 -6 -67 -10l-188 -12q37 30 125 92l65 51q25 18 51 26q-18 15 -40 40q-31 -37 -86 -83l-153 -9q45 39 65 59q36 36 52 42
q7 6 22 11q-9 6 -19 17q-7 6 -23 20q-27 -43 -103 -112q-43 -34 -70 -47q6 -18 13 -36v0z" />
  </g>

</svg>
