<?xml version="1.0" standalone="no"?>
<!DOCTYPE svg PUBLIC "-//W3C//DTD SVG 1.1//EN" "http://www.w3.org/Graphics/SVG/1.1/DTD/svg11.dtd" >
<svg xmlns="http://www.w3.org/2000/svg" xmlns:xlink="http://www.w3.org/1999/xlink" version="1.1" viewBox="-10 0 1010 1000">
   <path fill="currentColor"
d="M665 2q88 12 93 24q-1 2 -4 5q-21 18 -46 82h90q82 0 111 -5q-19 155 -21 220q-4 60 -9 79q-6 50 -143 66q-1 -46 -36 -92q87 13 102 -12q14 -26 21 -194h-178v335h143q104 -1 149 -10q-8 63 -13 189q-6 116 -13 139q-25 77 -163 67q-2 -46 -34 -91q96 19 111 -6
q20 -42 24 -224h-129q-95 -2 -160 8q7 -61 7 -171v-161q2 -46 -4 -127q-1 -11 -1 -15q31 6 79 7q25 -62 24 -113zM167 32q51 58 75 113l-71 36q-13 -41 -68 -115zM268 80q63 8 121 8h38q58 -1 91 -4q-6 42 -6 194v532q-2 62 -139 75q-3 -46 -34 -91q110 23 98 -44v-127
l-58 14q-16 -90 -48 -182l56 -20q10 28 45 133q4 13 5 16v-433h-42q-72 0 -127 6v-77zM65 199q101 -1 100 10q0 2 -3 8q-15 23 -15 63v427q0 96 2 129q2 36 8 55h-95q9 -47 9 -182v-389q0 -73 -6 -121zM738 213q22 45 46 117l-72 16q-8 -65 -33 -115zM538 649q50 6 117 6h49
q66 0 113 -8v80q-29 -8 -115 -8h-43q-57 0 -121 6v-76zM323 663q0 88 8 131h-75q0 -1 1 -4q7 -25 7 -129v-147q-21 87 -70 177q-25 -51 -43 -72q76 -89 105 -240q-41 0 -57 1q-19 1 -30 3v-69q35 6 95 6v-48q0 -33 -6 -69q76 -3 83 8q1 3 -3 8q-13 16 -13 41v58q51 0 96 -6
v73q-29 -6 -98 -6v72v212z" />
</svg>
