<?xml version="1.0" standalone="no"?>
<!DOCTYPE svg PUBLIC "-//W3C//DTD SVG 1.1//EN" "http://www.w3.org/Graphics/SVG/1.1/DTD/svg11.dtd" >
<svg xmlns="http://www.w3.org/2000/svg" xmlns:xlink="http://www.w3.org/1999/xlink" version="1.1" viewBox="-10 0 1034 1024">
  <g transform="matrix(1 0 0 -1 0 820)">
   <path fill="currentColor"
d="M521 489q-15 -1 -31 -3q-21 -3 -28 -3h-140v115l173 -1q15 0 39 -5v47q-6 -1 -11 -3l-142 -2h-59v64q0 28 15 64h-59q3 -13 6 -45v-83l-209 4q-3 1 -5 1v-47q9 4 25 5l189 1v-115q-132 0 -156 2q-3 1 -37 4q1 -28 5 -59q0 -54 -2 -72q-3 -3 -3 -16h49q-3 7 -4 26
q0 16 -2 37v42h343v-33q0 -42 -5 -64h49q-3 15 -4 32q0 79 4 107zM256 81l33 9v-146q0 -39 -22 -48q-18 -6 -43 -6q-15 0 -43 3q7 -21 15 -47q91 6 113 32q16 18 17 60v161l103 21q60 15 78 18v45q-33 -12 -67 -20l-114 -25v49q30 25 48 43q94 90 105 102q-30 0 -59 -5h-226
q-3 1 -6 1q-12 0 -37 4v-48q1 0 3 1q4 4 33 5l197 1q-27 -24 -75 -72q-12 -9 -26 -20q6 -57 6 -69q-28 -9 -53 -14q-24 -6 -61 -13q-57 -9 -100 -12q6 -24 13 -54q63 18 101 29zM468 37q13 6 62 7l261 -1q21 0 33 -4q1 0 5 -2v48q-15 -4 -34 -5l-310 1q-3 1 -5 2q-3 0 -12 2
v-48zM628 644q-30 3 -60 5l6 -60l-1 -333q-4 -24 -5 -50q33 3 66 5h258q-6 -222 -9 -241q-1 -3 -1 -8q-4 -48 -26 -59q-24 -10 -66 -11q-21 0 -56 4q9 -24 15 -49q117 9 135 24q24 16 30 51q6 30 11 164l9 166q-24 -1 -48 -5h-276v361h251l-9 -161q-3 -46 -19 -60
q-12 -9 -64 -9q-18 0 -47 4q13 -34 17 -47q51 1 88 10q39 10 50 36q10 27 16 116q1 42 4 83q1 27 5 41q1 15 2 28q-33 -1 -65 -5h-156q28 51 43 68q9 13 36 31q-30 15 -58 32q0 -3 -21 -53l-37 -78h-18zM781 485q-67 43 -88 59q-4 3 -11 7q-6 -9 -13 -21q-3 -6 -7 -10
q40 -25 54 -37l55 -45l19 28l6 8q-7 6 -15 11v0z" />
  </g>

</svg>
