<?xml version="1.0" standalone="no"?>
<!DOCTYPE svg PUBLIC "-//W3C//DTD SVG 1.1//EN" "http://www.w3.org/Graphics/SVG/1.1/DTD/svg11.dtd" >
<svg xmlns="http://www.w3.org/2000/svg" xmlns:xlink="http://www.w3.org/1999/xlink" version="1.1" viewBox="-10 0 1034 1024">
  <g transform="matrix(1 0 0 -1 0 820)">
   <path fill="currentColor"
d="M194 -53q0 -27 -18 -39q-21 -10 -46 -11q-6 0 -51 6q15 -28 22 -54q28 1 44 4q40 7 64 22q22 18 23 69v250q10 7 22 14t26 13q13 6 19 9q4 3 11 6q-3 30 -5 59q-13 -15 -22 -21q-12 -9 -35 -24q-1 0 -4 -2q-6 -3 -12 -8v148h111l8 -142q6 -72 15 -134q-49 -73 -125 -127
q27 -10 46 -30q57 63 73 84q9 10 18 18q10 -42 20 -64q25 -69 56 -106q24 -33 53 -34q30 0 54 33q15 24 27 66q-24 10 -49 36q0 -30 -2 -45q-6 -42 -30 -42t-56 72q-25 54 -40 125l66 117q24 42 60 58q-9 3 -28 15q-6 3 -16 10q-9 6 -17 11q-10 -31 -20 -50
q-51 -90 -59 -103l-9 110l-7 122l139 -3l2 -1q3 0 7 -1v46q-31 -1 -64 -5h-84l-2 178q0 43 4 79q0 30 17 55q0 3 2 3q-37 1 -66 8q3 -27 3 -146l3 -177h-110v176l65 8q9 0 25 -1q-19 21 -33 52q-36 -15 -84 -23l-81 -10q-25 1 -51 3q7 -16 11 -21q9 -18 12 -27l98 12v-169
h-75q-24 0 -48 3q-6 0 -16 2v-46q42 6 69 5h70v-168q-69 -39 -143 -69q19 -24 34 -43q13 9 23 17q6 6 86 49v-227zM462 632l-15 21q-15 -12 -35 -25q36 -43 51 -66q24 -39 35 -61q15 16 37 30l-17 24q-15 19 -30 42zM494 47q9 3 35 4l136 4l134 -4l36 -4v46q-43 -4 -65 -5
l-244 1q-7 1 -32 4v-46zM619 636q-9 0 -28 3q-9 0 -28 2q1 -34 5 -71l-2 -344q-1 -10 -3 -25q60 6 80 6h265q-1 -12 -1 -24l-5 -147q-1 -22 -5 -45q-6 -60 -25 -80q-25 -21 -84 -22q-21 0 -71 7q21 -34 25 -55q73 3 101 9q27 6 50 21q27 21 38 68q9 45 15 165l9 144
q-18 -1 -32 -3q-25 -3 -34 -3h-282v358h243q-3 -36 -3 -133l-4 -43q-4 -15 -11 -27q-21 -21 -63 -22q-18 0 -56 4q15 -28 22 -54q60 6 94 20q54 22 58 112q1 94 8 184q-30 -1 -61 -5h-160l12 18q25 46 41 65q10 13 35 27q-13 3 -30 10q-16 6 -31 16q-39 -87 -70 -136h-12z
M658 525q72 -51 108 -97q16 18 31 37q-18 18 -55 47q-36 31 -59 46q-13 -21 -25 -33v0z" />
  </g>

</svg>
