<?xml version="1.0" standalone="no"?>
<!DOCTYPE svg PUBLIC "-//W3C//DTD SVG 1.1//EN" "http://www.w3.org/Graphics/SVG/1.1/DTD/svg11.dtd" >
<svg xmlns="http://www.w3.org/2000/svg" xmlns:xlink="http://www.w3.org/1999/xlink" version="1.1" viewBox="-10 0 1034 1024">
  <g transform="matrix(1 0 0 -1 0 820)">
   <path fill="currentColor"
d="M128 214q18 19 37 39q12 12 24 27l45 59q42 58 84 124q138 -115 202 -209l16 20q3 4 18 17l-161 157q-33 30 -56 49q10 9 26 16q-27 15 -53 32q-21 -58 -67 -131q-49 -76 -103 -131q-43 -42 -79 -57q27 -15 46 -35q10 12 21 23zM151 531q19 25 41 50l56 70q9 12 18 22
q9 12 30 20q-22 15 -45 32q-1 1 -5 4q-24 -49 -64 -104q-51 -61 -87 -87q21 -12 41 -26q7 10 15 19zM240 262q-28 3 -58 5q1 -30 5 -61l-3 -331q-1 -3 -1 -7q-1 -1 -1 -5h49q-3 7 -4 27l-2 67h208q0 -63 -3 -80q-1 -1 -2 -10h48q-4 19 -5 45l1 310l4 45q-55 -4 -85 -5h-151z
M225 -7v233h208v-233h-208zM363 698q16 -15 88 -87q31 -34 50 -63l22 23q6 6 11 10l-72 76l-70 71q-12 -16 -29 -30zM517 49q1 0 38 5l239 1q27 0 55 -3q3 0 7 -3v47l-62 -5l-247 1l-18 2q-3 0 -12 2v-47zM582 662q1 -30 5 -61l-1 -341q-3 -15 -4 -41q15 3 54 4l284 1
q-3 -48 -3 -148q-1 -72 -7 -114q-1 -3 -2 -8q-7 -36 -49 -50q-34 -12 -79 -12q-13 0 -39 3q15 -27 22 -53q30 3 65 10q39 9 62 19q15 6 30 22q18 22 24 44q6 24 8 75q6 174 7 181q3 45 4 72q-66 -4 -101 -5h-238v361h240q0 -54 -3 -110l-4 -77q-3 -36 -31 -45q-16 -6 -52 -6
q-12 0 -33 4q9 -21 17 -50q18 0 49 6q54 9 74 37q9 15 13 36q3 18 5 72l5 118q1 25 3 56q-27 -1 -55 -5h-135q21 54 29 65q9 16 26 33q-15 4 -39 14l-18 6q-4 -37 -38 -118q-37 0 -61 2q-6 3 -34 3zM755 456q9 -12 11 -14q13 18 29 32q-60 57 -94 93l-25 -28q24 -22 79 -83
v0z" />
  </g>

</svg>
