<?xml version="1.0" standalone="no"?>
<!DOCTYPE svg PUBLIC "-//W3C//DTD SVG 1.1//EN" "http://www.w3.org/Graphics/SVG/1.1/DTD/svg11.dtd" >
<svg xmlns="http://www.w3.org/2000/svg" xmlns:xlink="http://www.w3.org/1999/xlink" version="1.1" viewBox="-10 0 1034 1024">
  <g transform="matrix(1 0 0 -1 0 820)">
   <path fill="currentColor"
d="M57 427q18 -10 35 -23l62 -42q12 -7 19 -13t22 -16q6 16 25 34l-59 43l-81 54q0 -4 -18 -29q-3 -3 -5 -8zM269 218q-18 21 -31 42l-28 -103q-21 -67 -38 -111q-12 -36 -25 -63q-21 -48 -42 -76q21 -12 46 -38q7 31 14 46l63 189q15 39 22 58q9 28 19 56zM162 667
q15 -10 80 -59q9 -9 35 -38q9 15 23 30q3 3 6 7q-24 22 -61 54l-78 58q-13 -24 -26 -37zM427 508l87 -3l2 -1q4 0 8 -1v46q-66 -4 -104 -5q-96 0 -121 2q-12 3 -20 3v-46q54 4 81 5h29v-369q-31 -16 -58 -26q-19 -6 -55 -15q15 -21 29 -48q30 19 47 28l172 84q1 30 7 52
q-31 -19 -88 -52q-7 -1 -16 -7v353zM475 26q39 4 67 5l254 -1l39 -4v46q-18 -1 -16 -2q-25 0 -52 -3l-261 1q-15 1 -23 3q-4 1 -8 1v-46zM560 626l4 -39l-1 -336q-3 -12 -4 -45q15 3 52 4l288 1l-7 -108q-6 -82 -13 -133q-9 -51 -53 -61q-42 -7 -76 -8q-7 0 -33 3
q-12 0 -31 3q13 -24 22 -53q91 4 129 15q39 12 60 38q13 21 20 54q3 24 6 63q15 180 15 200l3 28q-49 -4 -61 -5h-279v361h242l-5 -143q0 -24 -3 -36q-3 -21 -15 -30q-18 -10 -58 -11q-27 0 -59 5q13 -21 24 -52q84 6 117 26q19 13 27 38q4 25 8 109q1 48 3 81q3 25 5 54
q-30 -1 -61 -5h-129q1 4 3 8q1 9 4 16q12 43 42 72q-31 6 -64 19q-6 -54 -22 -115l-101 5q0 -10 1 -23zM761 456q1 0 3 3q3 0 7 7q-30 33 -48 47q-45 37 -51 42q-19 -22 -28 -29q54 -33 100 -89q3 7 9 11q3 4 8 8v0z" />
  </g>

</svg>
