<?xml version="1.0" standalone="no"?>
<!DOCTYPE svg PUBLIC "-//W3C//DTD SVG 1.1//EN" "http://www.w3.org/Graphics/SVG/1.1/DTD/svg11.dtd" >
<svg xmlns="http://www.w3.org/2000/svg" xmlns:xlink="http://www.w3.org/1999/xlink" version="1.1" viewBox="-10 0 1010 1000">
   <path fill="currentColor"
d="M532 -13q16 46 28 105h220q88 -1 158 -12v87q-65 -11 -158 -12h-137v89q1 61 8 90h-86q6 -27 6 -88v-91h-133v82q0 68 4 97q7 3 22 7q42 13 38 19q-1 2 -7 4q-23 10 -37 31h207q11 -1 30 -2q81 -4 87 -6q-1 9 -4 26q-7 58 -16 107q-4 62 -131 72q-1 -45 -24 -78
q55 10 71 -1q17 -9 18 -54h-416v154h420q137 0 175 -7q-13 88 -20 194q-3 57 -33 76q-27 21 -124 35q-3 -52 -37 -89q99 19 113 -50q1 -11 1 -7q5 -49 9 -88h-423q-91 0 -163 6q8 -45 10 -113v-68q-2 -82 -6 -115q33 5 96 8h83q24 -29 30 -59h-54q10 -47 10 -92v-89h-143
q-94 1 -149 8v-83q54 9 149 12h250q-4 -34 -43 -92zM238 193q91 40 85 47q-1 1 -11 5q-25 9 -38 19q-14 11 -67 57q-47 42 -66 58q-31 -28 -72 -47q116 -63 169 -139zM738 195q78 42 197 123l-68 63q-41 -50 -184 -133zM433 477q38 18 119 69l-58 44q-34 -32 -115 -74z
M524 810h-294q-98 0 -151 6v-87q23 6 54 7q28 2 97 2h294q110 0 147 -7v85q0 -3 -147 -6z" />
</svg>
