<?xml version="1.0" standalone="no"?>
<!DOCTYPE svg PUBLIC "-//W3C//DTD SVG 1.1//EN" "http://www.w3.org/Graphics/SVG/1.1/DTD/svg11.dtd" >
<svg xmlns="http://www.w3.org/2000/svg" xmlns:xlink="http://www.w3.org/1999/xlink" version="1.1" viewBox="-10 0 1034 1024">
  <g transform="matrix(1 0 0 -1 0 820)">
   <path fill="currentColor"
d="M250 195v-217q0 -43 -37 -44q-10 0 -39 4q15 -24 23 -46q19 0 31 3q30 6 46 24q12 15 13 62l1 665q0 16 4 45q-55 -4 -86 -5q-34 0 -57 2q-6 3 -35 3q4 -66 5 -86q0 -459 -3 -496q-4 -51 -14 -100q-12 -43 -28 -83q-10 -24 -28 -43q27 -9 52 -19q33 90 46 171
q12 88 11 160h95zM155 231v185h95v-185h-95zM155 452v198h95v-198h-95zM498 199v-252q0 -22 -8 -31q-9 -10 -27 -11q-10 0 -41 6q15 -21 20 -46q30 3 38 4q30 6 44 23q10 15 11 68l1 688l4 47q-28 -1 -58 -5q-70 0 -95 2q-6 3 -36 3q1 -30 5 -62l-1 -485q-1 -10 -2 -22
q-6 -100 -28 -168q-16 -49 -46 -83q27 -6 50 -16q36 78 51 151q12 78 12 189h106zM498 456h-106v198h106v-198zM392 235v185h106v-185h-106zM570 38q48 6 60 6l189 -1q21 0 27 -3q3 0 6 -1q3 0 7 -1v47q-48 -6 -74 -6l-194 3q-3 1 -21 3v-47zM607 647q1 -18 3 -34
q3 -21 3 -69l-1 -287q0 -1 -5 -48l73 6h233q0 -69 -5 -140l-11 -111q-3 -45 -28 -59q-24 -9 -73 -10q-30 0 -63 7q16 -22 23 -52q88 1 129 19q36 18 47 65q4 18 8 57l7 139l7 93q1 16 4 33q-33 -1 -65 -5h-243v355h214q0 -87 -4 -116q-1 -3 -1 -6q-3 -60 -18 -78
q-15 -15 -53 -16q-16 0 -50 8q12 -21 20 -52q87 3 115 33q22 30 26 147l2 61q3 24 5 60q-30 -1 -60 -5h-130l2 3q6 18 24 48q9 19 17 23q6 6 25 18q-33 15 -61 30q-1 -12 -12 -43q-1 -1 -2 -4q-9 -24 -35 -75l-47 4q-10 1 -20 1zM740 550l-17 14q-9 -12 -29 -29
q48 -27 91 -90q12 18 29 36q-12 15 -47 45q-15 12 -27 24v0z" />
  </g>

</svg>
