<?xml version="1.0" standalone="no"?>
<!DOCTYPE svg PUBLIC "-//W3C//DTD SVG 1.1//EN" "http://www.w3.org/Graphics/SVG/1.1/DTD/svg11.dtd" >
<svg xmlns="http://www.w3.org/2000/svg" xmlns:xlink="http://www.w3.org/1999/xlink" version="1.1" viewBox="-10 0 1010 1000">
   <path fill="currentColor"
d="M647 -4q110 10 103 16q-1 6 -7 13q-21 20 -39 75h96q72 -1 99 -8q-13 77 -16 240q0 65 -25 85q-19 21 -108 34q-5 -47 -36 -88q96 18 99 -37q0 -25 1 -84q1 -55 1 -77h-178v325h171q83 -2 121 -9q-7 112 -14 283q-1 75 -33 99q-32 30 -130 44q-5 -63 -48 -109
q83 16 104 7q27 -7 29 -49q7 -83 9 -167q0 -25 1 -33h-153q-96 1 -134 8q4 -50 5 -133v-218q-2 -88 -7 -119q17 3 77 6q7 -22 11 -55q4 -31 1 -49zM341 10q10 0 30 1q75 2 71 7q0 1 -4 7q-14 17 -15 31q-6 65 0 194q79 -3 103 -6v76q-33 -6 -101 -6q1 112 21 272
q21 146 54 184q15 -4 16 -55q24 37 67 51q-45 119 -83 119q-81 -13 -121 -281q-19 -158 -24 -290h-69v139q25 0 36 -1q14 0 33 -3v71h-3q-35 -4 -66 -4v175q44 -13 77 -30q-7 39 -4 77q-200 47 -287 76l-18 6q-6 -46 -26 -87q45 2 71 -4v-203q-2 -91 -8 -113q12 1 34 1
q54 0 54 7q1 4 -2 12q-12 24 -12 59v225l55 -12v-391h-67q-84 3 -109 6v-76q17 6 111 6h198q0 -14 -1 -41q-5 -161 -11 -199zM500 80q24 44 48 95l-66 28q-19 -55 -42 -99zM87 108q24 3 90 4h53q67 -2 91 -6v73q-13 -2 -33 -3q-16 -1 -58 -1h-55q-27 0 -69 4q-13 1 -19 2
v-73zM738 199q21 95 24 119l-68 10q-2 -82 -17 -119zM798 633v76q-24 -6 -78 -6h-99l-93 4v-74q24 3 89 6h99q52 0 82 -6z" />
</svg>
