<?xml version="1.0" standalone="no"?>
<!DOCTYPE svg PUBLIC "-//W3C//DTD SVG 1.1//EN" "http://www.w3.org/Graphics/SVG/1.1/DTD/svg11.dtd" >
<svg xmlns="http://www.w3.org/2000/svg" xmlns:xlink="http://www.w3.org/1999/xlink" version="1.1" viewBox="-10 0 1034 1024">
  <g transform="matrix(1 0 0 -1 0 820)">
   <path fill="currentColor"
d="M136 480q-18 0 -64 5v-46q45 4 64 5h253l5 -132q7 -136 34 -244q18 -73 51 -126q33 -54 72 -55q24 0 41 29q10 24 25 69q-30 13 -47 28l-1 -31q-1 -27 -7 -36t-15 -10q-21 0 -45 42q-25 45 -41 111q-18 82 -18 91q-6 43 -12 112q-3 63 -4 152q72 0 92 -2q12 0 17 -2
q3 0 7 -1v46q-48 -4 -83 -5h-34q0 21 -2 33l3 135q1 54 21 75q-3 1 -19 2q-34 3 -42 6l-1 1l3 -252h-253zM171 241q0 12 2 30q3 21 4 21l8 16h-57q0 -7 2 -17l3 -50v-289l-63 -16q15 -21 26 -45q36 16 78 34l125 46q57 21 93 37l3 54q-33 -30 -112 -54v211h40q21 0 37 -3
q1 0 14 -2v46q-33 -4 -59 -5h-32l1 117q0 12 7 35q0 4 6 14h-58q1 -25 5 -53q0 -7 2 -15v-361q-63 -22 -75 -26v275zM341 631q-48 -4 -82 -5q-81 0 -109 2q-1 0 -22 3v-46q30 4 63 5q144 -3 150 -5v46zM443 640q22 -22 66 -102q13 12 34 22l-67 102q-15 -12 -33 -22zM538 39
q10 3 36 5l230 1q25 0 52 -3q4 0 7 -2q3 0 7 -1v47q-48 -6 -65 -6l-221 1q-3 1 -6 1q-4 0 -40 4v-47zM698 749l-21 -49l-6 -14q-12 -24 -26 -44l-48 4l-18 2q1 -34 5 -71l-1 -320q-1 -4 -2 -15q0 -18 -2 -36q33 3 69 5h251l-3 -137q0 10 -1 -29q-1 -48 -4 -70q0 -15 -3 -25
q-7 -30 -39 -41q-33 -12 -81 -12q-15 0 -40 4q7 -9 11 -13q9 -25 10 -28q0 -1 2 -4q1 -3 4 -9q96 13 131 34q24 13 35 46q9 34 12 106l2 109l6 110q-30 -1 -62 -5h-258v359h221l-7 -156q-6 -43 -20 -58q-18 -16 -65 -17q-24 0 -51 7q13 -24 24 -50q39 1 59 5q48 7 69 29
q12 13 17 31q4 21 7 68q6 171 9 175q0 6 2 8q-49 -6 -61 -6h-135q30 57 43 75q9 12 32 27q-36 10 -59 22q-4 -7 -8 -17zM699 562q-15 -12 -33 -24q24 -27 39 -47q10 -15 33 -59q19 18 33 26l-58 86l-14 18v0z" />
  </g>

</svg>
