<?xml version="1.0" standalone="no"?>
<!DOCTYPE svg PUBLIC "-//W3C//DTD SVG 1.1//EN" "http://www.w3.org/Graphics/SVG/1.1/DTD/svg11.dtd" >
<svg xmlns="http://www.w3.org/2000/svg" xmlns:xlink="http://www.w3.org/1999/xlink" version="1.1" viewBox="-10 0 1010 1000">
   <path fill="currentColor"
d="M647 -8q19 3 47 7q48 7 44 11q0 4 -5 11q-19 26 -41 85h121q69 -3 92 -6q-3 33 -8 111q-8 101 -10 127q-3 65 -30 81q-23 20 -123 28q3 -48 -26 -87q98 21 100 -32q3 -26 6 -86q3 -53 5 -71h-188v314h165q120 0 146 -6q-2 53 -6 152q-3 102 -5 139q-1 68 -38 91
q-36 27 -141 36q-1 -55 -42 -105q131 27 135 -46q6 -44 10 -196h-170q-108 0 -131 4q5 -72 6 -123v-216q-2 -85 -8 -115q17 6 77 6q20 -60 18 -114zM252 6l30 6q71 12 65 20q0 2 -3 5q-17 21 -34 82h97q64 -1 99 -6v74q-13 -2 -36 -3q-12 -1 -27 -1h-42h-107
q-41 95 -157 192q21 8 63 8h62q0 -69 -8 -97q84 5 91 14q0 2 -3 7q-13 25 -13 76h72q55 -1 91 -4q-6 30 -6 109v92q0 85 6 109q-39 -3 -87 -6h-76v107q26 -10 145 -83q-3 36 10 83q-110 52 -220 123q-12 -44 -36 -79q33 -8 34 -48v-103h-85q-2 5 -1 35q1 24 3 36h-82
q7 -37 8 -93v-178q0 -63 -4 -78l-24 20q-26 -42 -65 -63q131 -56 204 -179h-51q-80 0 -98 6v-76q26 6 100 6h69q14 -51 16 -113zM353 199q96 48 193 109l-56 63q-88 -76 -190 -123zM740 209q18 53 30 107l-70 18q-6 -71 -27 -115zM329 435v73h90v-73h-90zM175 435v73h87v-73
h-87zM329 558v73h90v-73h-90zM175 558v73h87v-73h-87zM514 633q37 6 97 6h95q81 0 107 -4v78q-26 -6 -101 -6h-101q-70 0 -97 6v-80z" />
</svg>
