<?xml version="1.0" standalone="no"?>
<!DOCTYPE svg PUBLIC "-//W3C//DTD SVG 1.1//EN" "http://www.w3.org/Graphics/SVG/1.1/DTD/svg11.dtd" >
<svg xmlns="http://www.w3.org/2000/svg" xmlns:xlink="http://www.w3.org/1999/xlink" version="1.1" viewBox="-10 0 1010 1000">
   <path fill="currentColor"
d="M639 -12q13 2 36 6q69 11 63 16q-1 3 -6 8q-22 24 -47 80h103q78 0 105 -6q-4 42 -10 134q-8 135 -14 153q-16 57 -143 66q-6 -51 -28 -85q48 13 82 -4q24 1 28 -193h-201v325h242q60 0 70 -5l18 -4q-7 57 -17 192q-4 65 -7 97q-4 79 -38 100q-31 26 -143 37
q2 -51 -44 -95q77 14 105 0q31 -13 36 -64l20 -190h-242q14 0 -10 0q-57 -1 -71 2q6 -46 8 -117v-228q-1 -84 -6 -119q19 3 79 4q25 -43 32 -110zM331 0q105 20 98 32q0 3 -5 6q-33 21 -69 105h40q54 -1 83 -4q-6 23 -6 90v67q1 57 6 89q-14 -2 -60 -4q-25 -1 -33 -2h-72
v108h80q45 0 93 -8q-2 35 -4 132q-1 56 -2 72q-2 64 -24 85q-18 22 -93 40q-7 -51 -34 -85q73 19 76 -40q3 -22 4 -60t0 -69h-94v252q1 56 6 103h-85q8 -37 10 -101v-181q-99 159 -161 225q-34 -38 -67 -64q122 -80 186 -232h-31q-78 0 -94 6q5 -21 6 -74v-91q0 -65 -4 -89
q21 3 90 6h73v-105h-79q-82 0 -107 6v-78q17 6 109 6h121q33 -50 43 -143zM204 2q6 13 21 42q18 38 29 60l-75 25q-7 -43 -46 -107zM401 207h-88v107h88v-107zM718 207q7 18 21 58q11 31 17 47l-77 12q-1 -36 -30 -107zM157 379v109h87v-109h-87zM798 641q-9 36 0 78
q-24 -6 -100 -6h-89q-60 1 -101 6v-78q27 6 99 6h87q78 -3 104 -6z" />
</svg>
