<?xml version="1.0" standalone="no"?>
<!DOCTYPE svg PUBLIC "-//W3C//DTD SVG 1.1//EN" "http://www.w3.org/Graphics/SVG/1.1/DTD/svg11.dtd" >
<svg xmlns="http://www.w3.org/2000/svg" xmlns:xlink="http://www.w3.org/1999/xlink" version="1.1" viewBox="-10 0 1010 1000">
   <path fill="currentColor"
d="M663 -4q95 4 93 14q-1 5 -6 11q-18 26 -34 81h94q73 0 97 -6q-4 44 -12 149q-6 69 -8 99q-3 57 -30 78q-21 21 -109 39q-7 -64 -32 -90q104 19 97 -51q1 -7 3 -31q8 -88 9 -124h-192v343h196q1 -2 45 -5q53 -4 66 -7q-6 58 -16 175q-9 95 -11 115q-6 62 -38 79
q-24 19 -141 34q5 -56 -32 -107q79 13 99 5q25 -7 30 -45l18 -180h-172q-101 0 -123 6q6 -31 6 -153v-200q-1 -89 -4 -129q20 3 89 6q19 -60 18 -106zM71 52q41 4 78 4h53q46 0 86 -4q-7 32 -8 93v74q0 53 6 77q-10 -2 -27 -3q-14 -1 -55 -1h-51q-66 0 -82 4q6 -24 6 -75
v-84q-3 -74 -6 -85zM520 54q-4 44 -4 83v76q0 52 8 85q-27 -6 -84 -6h-45q-66 0 -78 4q0 -11 2 -51q1 -19 2 -30v-78q0 -62 -4 -83q7 0 36 2q26 1 42 2h51q31 0 74 -4zM216 115h-75v118h75v-118zM385 117v116h67v-116h-67zM734 203q25 53 40 125l-74 14q-4 -69 -33 -123z
M83 348l104 8h186q79 0 103 -6v75q-30 -6 -105 -6h-184q-80 0 -104 6v-77zM42 473q37 5 75 4h34h256q82 0 109 -6v75q-42 -5 -111 -6h-145l-12 70h121q69 -3 89 -6q-1 8 -4 25q-15 106 -25 147q-5 92 -193 107q-3 -47 -32 -103q113 32 143 -18q7 -15 18 -78q1 -6 2 -9h-109
q-81 3 -99 6q19 -72 26 -141h-34q-8 1 -39 2q-56 2 -70 4v-73zM500 643q33 6 105 6h111q64 -1 94 -4q-6 38 0 80q-30 -6 -92 -6h-113q-77 -3 -105 4v-80z" />
</svg>
