<?xml version="1.0" standalone="no"?>
<!DOCTYPE svg PUBLIC "-//W3C//DTD SVG 1.1//EN" "http://www.w3.org/Graphics/SVG/1.1/DTD/svg11.dtd" >
<svg xmlns="http://www.w3.org/2000/svg" xmlns:xlink="http://www.w3.org/1999/xlink" version="1.1" viewBox="-10 0 1010 1000">
   <path fill="currentColor"
d="M649 -8q86 2 95 14q1 3 -6 11q-24 25 -38 65h46q100 0 151 -6q-9 71 -15 189q-5 90 -11 104q-19 54 -147 76q-3 -40 -41 -95q89 9 101 -8q16 -18 21 -57q6 -36 7 -136h-181v336h153q94 0 164 -6q-6 49 -14 144q-16 214 -47 235q-31 35 -147 45q0 -51 -42 -103
q101 31 129 -12q20 -27 30 -231q0 -6 0 -5h-137q-111 0 -168 8q8 -83 8 -165v-174q0 -86 -8 -143q22 6 85 6q14 -36 12 -92zM131 44q63 8 131 8h83q48 0 121 -8q-8 36 -8 131v129q36 0 68 -4q0 2 -1 5q-3 22 -3 62q-1 52 4 62h-60q-6 21 -6 139v270q3 39 -117 63
q-7 -52 -35 -85q84 11 83 -16v-85h-177v59q0 90 8 131h-85q8 -71 8 -137v-196q0 -108 -4 -155q56 8 129 8h61q62 0 81 -1q24 -1 28 -5q9 -33 8 -54h-319q0 39 4 66h-77q4 -12 4 -68q0 -45 -6 -63q34 6 83 6v-137q0 -63 -4 -104q-1 -13 -2 -21zM395 112h-197v59h137v135h60
v-194zM734 187q13 45 28 123l-72 16q-6 -76 -25 -121zM198 223v83h76v-83h-76zM391 477h-177v67h177v-67zM391 596h-177v67h177v-67zM812 639v76q-36 -6 -139 -6h-50q-104 0 -135 10v-78q42 6 133 6h50q84 0 141 -8z" />
</svg>
