<?xml version="1.0" standalone="no"?>
<!DOCTYPE svg PUBLIC "-//W3C//DTD SVG 1.1//EN" "http://www.w3.org/Graphics/SVG/1.1/DTD/svg11.dtd" >
<svg xmlns="http://www.w3.org/2000/svg" xmlns:xlink="http://www.w3.org/1999/xlink" version="1.1" viewBox="-10 0 1010 1000">
   <path fill="currentColor"
d="M683 -10q86 0 93 8q1 3 -4 10q-22 31 -30 82h64q68 -3 95 -6q-7 82 -14 193q-3 46 -4 65q-3 65 -25 83q-18 20 -100 34q-3 -39 -36 -88q85 26 88 -43q6 -97 7 -173h-152v347h148q73 -3 118 -8q-4 85 -5 205q0 56 -1 81q-1 71 -30 89q-17 19 -133 36q1 -61 -34 -103
q66 16 88 3q25 -11 27 -59q0 -7 1 -24q7 -110 5 -154h-153q-86 0 -107 6q5 -40 6 -143v-240q0 -90 -6 -107q18 3 86 6q8 -56 8 -100zM149 4q90 3 91 12q0 1 -3 6q-15 26 -15 68v103q57 0 84 -6v79q-27 -6 -84 -6v139q58 -3 80 -6q-6 27 -6 117v157q0 30 6 71q26 -67 31 -172
q5 -88 0 -399q-1 -74 -4 -117q32 4 82 4h61q14 0 53 -4q19 -1 27 -2q-5 36 -6 121v633q2 43 -19 57q-21 16 -96 28q4 -54 -26 -89q79 23 75 -40v-192h-83q-6 184 -107 335q-37 -25 -86 -28q51 -39 90 -117h-76q3 -19 6 -67h-81q-3 58 2 105h-82q8 -37 8 -109v-171
q-3 -95 -6 -119q25 3 88 4v-139h-24q-66 0 -85 6v-81q13 5 87 8h22v-111q0 -61 -4 -78zM397 121v147h83v-147h-83zM762 195q13 72 26 117l-68 18q-5 -69 -22 -121zM397 336v162h83v-162h-83zM139 461v168h87v-168h-87zM573 645q31 5 94 6h65q56 0 87 -4v78q-22 -6 -79 -6
h-75q-65 0 -92 6v-80z" />
</svg>
