<?xml version="1.0" standalone="no"?>
<!DOCTYPE svg PUBLIC "-//W3C//DTD SVG 1.1//EN" "http://www.w3.org/Graphics/SVG/1.1/DTD/svg11.dtd" >
<svg xmlns="http://www.w3.org/2000/svg" xmlns:xlink="http://www.w3.org/1999/xlink" version="1.1" viewBox="-10 0 1010 1000">
   <path fill="currentColor"
d="M651 -8q30 3 95 24q1 3 -4 9q-23 25 -44 77q117 3 183 -6q-1 47 -2 121q-1 55 -2 109q0 59 -29 81q-29 26 -116 42q0 -40 -30 -84q111 7 106 -53v-147h-171v329h125q57 0 144 -7q16 -1 23 -2l-2 289q18 107 -185 129q5 -62 -32 -101q86 11 115 1q28 -7 28 -45
q0 -30 2 -127q1 -46 2 -73h-129q-98 0 -168 10q7 -93 7 -171v-305q36 11 58 10q21 -60 26 -110zM113 52q15 1 50 3q74 5 119 5h61q120 0 181 -8q-8 37 -8 111v50q0 72 8 109q-68 -8 -161 -8h-173q2 230 -15 337q-18 125 -66 224q-33 -29 -85 -35q62 -85 80 -188
q10 -52 14 -127q3 -67 3 -207v-117q0 -91 -8 -149zM292 127h-104v119h104v-119zM448 127h-93v117h93v-117zM718 197q11 17 33 48t29 43l-64 34q-27 -55 -63 -91zM520 371q0 4 -2 15q-6 59 -6 104v233q0 107 8 146h-83q1 -5 2 -15q5 -26 5 -36h-152q0 31 8 67h-84
q8 -70 8 -133v-262q0 -60 -8 -119q5 0 14 1q88 7 129 7h32q57 0 119 -7q7 -1 10 -1zM444 435h-152v73h152v-73zM444 564h-152v71h152v-71zM538 637q80 8 133 8q89 0 137 -8v78q-37 -8 -131 -8q-64 0 -139 8v-78zM444 691h-152v71h152v-71z" />
</svg>
