<?xml version="1.0" standalone="no"?>
<!DOCTYPE svg PUBLIC "-//W3C//DTD SVG 1.1//EN" "http://www.w3.org/Graphics/SVG/1.1/DTD/svg11.dtd" >
<svg xmlns="http://www.w3.org/2000/svg" xmlns:xlink="http://www.w3.org/1999/xlink" version="1.1" viewBox="-10 0 1010 1000">
   <path fill="currentColor"
d="M677 -8q92 2 97 14q1 3 -5 7q-28 21 -49 81h34q117 0 159 -6q-11 77 -18 189q-4 109 -22 126q-32 37 -123 48q2 -48 -28 -86q71 15 84 -7q16 -39 19 -199h-164v337h97q121 0 186 -8q-4 51 -8 139q-5 143 -19 203q-18 67 -171 73q2 -35 -44 -91q113 17 133 -16
q17 -35 24 -232h-113q-131 -1 -161 8q8 -80 8 -179v-135q0 -139 -8 -170q23 6 74 6q8 -33 18 -102zM224 0q35 49 68 119l-56 24h85q32 -47 52 -143q89 19 91 30q2 5 -6 12q-36 29 -67 101h49q73 -1 110 -8v70q-30 -6 -108 -6h-49v75q96 0 137 -6q-8 42 -8 125q29 0 57 -6v70
q-20 -4 -57 -4q-1 106 8 129q-39 -4 -137 -4v75l53 -38q78 77 116 135l-72 48q-34 -67 -97 -129v77q0 73 8 137q2 11 2 16h-82q10 -41 10 -151v-170h-77v174q0 108 8 149h-79q5 -21 7 -50t2 -91v-77q-33 73 -118 165q-5 5 -7 8q-5 -47 -41 -82q117 -82 155 -196
q-45 -1 -100 8v-70q25 4 48 5q19 1 65 1v-69q-108 2 -148 8v-72q69 8 148 8v-67q-73 -1 -115 8v-70q45 8 115 8v-73q-53 0 -80 1q-32 1 -62 5v-76q44 11 158 10q-31 -80 -59 -113zM331 201h-77v75h77v-75zM752 203q17 35 36 113l-74 6q-1 -55 -24 -109zM331 330h-77v67h77
v-67zM466 330h-73v67h73v-67zM331 453h-77v69h77v-69zM393 453v69h73v-69h-73zM552 645q41 6 117 6h39q71 0 105 -6v74q-49 -5 -103 -6h-43q-64 0 -115 6v-74z" />
</svg>
