<?xml version="1.0" standalone="no"?>
<!DOCTYPE svg PUBLIC "-//W3C//DTD SVG 1.1//EN" "http://www.w3.org/Graphics/SVG/1.1/DTD/svg11.dtd" >
<svg xmlns="http://www.w3.org/2000/svg" xmlns:xlink="http://www.w3.org/1999/xlink" version="1.1" viewBox="-10 0 1010 1000">
   <path fill="currentColor"
d="M619 -15q88 18 97 29q0 2 -6 7q-30 29 -59 85h161q75 -2 113 -8v79q-8 -2 -29 -3q-16 -1 -67 -1q-29 99 -77 155q58 35 198 34q-38 42 -53 91q-138 -39 -201 -82q-53 42 -156 74q-17 -45 -54 -72q92 -4 155 -45q-18 -22 -60 -91q-4 -7 -6 -10l62 -24q30 59 57 87
q45 -56 60 -119h-147q-4 5 -12 16q-21 27 -33 44l-30 -26q-26 62 -64 135l-81 -18q30 -25 57 -78h-77v106q11 84 -121 85q-1 -37 -28 -79q84 23 84 -20v-84q-87 103 -213 177q-30 -44 -67 -66q116 -19 212 -119h-59q-68 1 -108 6v-69q36 3 104 6h75q-21 -24 -59 -42l61 -37
q39 35 62 65q23 -23 61 -58q14 -13 20 -19h-177q-77 0 -107 6v-72q30 6 111 6h179q63 0 99 -6v74q-26 -7 -127 83h129q88 -63 121 -202zM387 383q12 1 35 3q65 6 60 11q0 4 -5 10q-16 20 -27 54h189q87 0 123 -6q-1 4 -2 13q-13 79 -20 108q-13 58 -137 65q1 -32 -30 -73
q102 22 96 -46h-399v135h422q126 0 175 -4q-4 27 -10 87q-6 62 -10 88q-5 44 -33 58q-27 16 -118 27q0 -40 -33 -79v18q-30 -6 -125 -10h-326q-100 0 -127 6v-84q36 5 131 8h320q91 0 127 -4v62q84 5 95 -12q18 -10 22 -99h-439q-111 0 -151 8q7 -27 6 -104v-15v-48
q0 -85 -4 -105q35 5 114 6h69q1 -2 2 -7q12 -47 10 -71zM450 536q36 42 54 72l-69 29q-23 -45 -56 -75z" />
</svg>
