<?xml version="1.0" standalone="no"?>
<!DOCTYPE svg PUBLIC "-//W3C//DTD SVG 1.1//EN" "http://www.w3.org/Graphics/SVG/1.1/DTD/svg11.dtd" >
<svg xmlns="http://www.w3.org/2000/svg" xmlns:xlink="http://www.w3.org/1999/xlink" version="1.1" viewBox="-10 0 1034 1024">
  <g transform="matrix(1 0 0 -1 0 820)">
   <path fill="currentColor"
d="M91 223q43 55 88 124v-431q0 -18 -2 -40q0 -21 -3 -37h46q0 1 -1 4q-4 60 -5 108l329 -4q3 0 7 -2v44q-15 -3 -40 -4l-139 -1v122l131 -3q6 0 13 -3v44q-15 -3 -40 -4l-104 -1v109q130 -3 141 -6l2 -1v44q-19 -3 -41 -4l-102 -1v103l151 -3q4 0 12 -3v44q-24 -3 -60 -5
h-251q25 42 45 84q21 45 47 109h178v-44q0 -42 -7 -78h51q-1 21 -3 41q-3 57 -2 67q0 22 5 53q-33 -1 -65 -5h-146l26 69q10 21 27 35q-27 7 -66 21q-4 -54 -30 -125h-129q-7 0 -30 3q-15 0 -30 2q1 -30 5 -62q0 -55 -3 -90q-1 -7 -2 -16h49q-1 12 -3 23q-3 54 -3 83v23h136
q-18 -39 -38 -93q-10 -22 -21 -46q-39 -63 -80 -122q-55 -69 -102 -101q9 -4 40 -15q3 0 6 -3q6 -3 13 -6zM335 383v-103h-121v103h121zM214 139v109h121v-109h-121zM335 106v-122h-121v122h121zM307 508q33 -25 83 -87q12 13 28 25q-33 37 -48 51l-41 39q-12 -18 -22 -28z
M867 78q-55 -4 -67 -5l-227 1q-16 1 -42 4v-47q30 6 59 6l266 -3q6 0 11 -3v47zM584 652q1 -31 5 -64l-1 -342q-3 -12 -4 -48q66 6 83 5h254l-8 -196l-4 -72q-6 -36 -31 -45q-3 -1 -28 -6q-19 -1 -37 -2q-28 0 -63 6q6 -12 20 -54q79 4 113 14q31 9 49 33q9 15 14 33
q3 24 5 71l7 184q1 34 5 74q-54 -6 -79 -6h-257v376h253l-3 -89q0 -64 -5 -105q-4 -36 -29 -44q-19 -6 -41 -7q-10 1 -22 3q-3 0 -6 1l-21 3q9 -12 13 -22q4 -12 11 -34q72 7 98 23q25 15 34 55q3 13 4 40l4 94q1 69 5 121q-21 -1 -36 -2q-22 -3 -31 -3h-152q37 57 53 73
q16 18 39 31q-28 9 -65 26q-21 -54 -76 -130l-51 4q-10 1 -19 1zM791 479q-18 22 -58 63q-9 7 -17 16q-15 -21 -32 -35q49 -33 91 -97q12 12 23 21q6 4 11 11z" />
  </g>

</svg>
