<?xml version="1.0" standalone="no"?>
<!DOCTYPE svg PUBLIC "-//W3C//DTD SVG 1.1//EN" "http://www.w3.org/Graphics/SVG/1.1/DTD/svg11.dtd" >
<svg xmlns="http://www.w3.org/2000/svg" xmlns:xlink="http://www.w3.org/1999/xlink" version="1.1" viewBox="-10 0 1034 1024">
  <g transform="matrix(1 0 0 -1 0 820)">
   <path fill="currentColor"
d="M293 187q-195 0 -218 3q-3 0 -9 2v-47q1 0 38 5l189 1v-197l-123 -8v91q0 27 14 64h-58q3 -12 6 -47l-1 -117q-1 -4 -2 -14q0 -15 -3 -24l43 7q15 3 50 6l226 16v-4q0 -39 -5 -64h49q-3 6 -4 27l-2 155q0 27 15 63h-58q4 -99 5 -105v-36l-114 -8v195h129q19 0 50 -3
q6 0 12 -3v47q-10 -1 -22 -4l-169 -1v120q105 0 123 -2q10 -1 23 -4v47l-9 -2q1 0 -13 -2l-240 -1q18 33 49 50q-25 9 -52 28q-21 -46 -56 -96q-21 -30 -38 -48q-16 -13 -36 -24q30 -16 44 -28q9 9 18 20q39 51 49 62h100v-120zM92 659q12 -24 23 -51q82 9 151 22
q67 12 141 29q31 6 52 10q15 3 46 4l-19 19q-9 12 -25 31q-18 -9 -30 -14q-33 -12 -86 -24q-118 -27 -212 -27zM197 472q-43 67 -60 90q-15 -12 -35 -23q40 -51 68 -114q21 18 41 28q-7 10 -14 19zM350 481q-30 51 -72 114q-18 -12 -37 -24q45 -54 68 -117q12 10 22 15
q15 9 19 12zM400 414q10 15 23 30l48 66q28 39 58 54q-30 18 -55 35q-7 -19 -19 -39q-12 -21 -35 -52q-39 -54 -71 -84q24 -12 41 -26q4 9 10 16zM518 38q12 4 23 5q27 1 141 2q118 0 135 -2q12 0 24 -5v48q-4 0 -62 -6l-218 1q-3 1 -6 1q-18 0 -37 4v-48zM555 267
q-3 -30 -5 -60q33 3 66 5h271q-1 -123 -8 -237q-4 -60 -29 -75q-24 -12 -78 -12q-25 0 -70 6q15 -45 15 -52q142 6 174 37q15 15 21 43t8 104l6 155q4 45 5 73q-60 -6 -81 -6h-258v357h241l-8 -188q-1 -1 -1 -4q-6 -27 -32 -33q-13 -3 -52 -3q-18 0 -47 5l19 -51q51 3 88 10
q63 12 66 94l6 154l4 35q0 6 2 22q-27 -1 -55 -5h-150q33 79 67 107q-36 10 -62 22q-9 -37 -17 -61q-9 -21 -23 -51q-4 -7 -8 -17q-39 3 -80 5q1 -30 5 -60v-319zM757 460q6 6 10 8l-81 78l-17 17q-19 -18 -29 -32q42 -31 95 -97z" />
  </g>

</svg>
