<?xml version="1.0" standalone="no"?>
<!DOCTYPE svg PUBLIC "-//W3C//DTD SVG 1.1//EN" "http://www.w3.org/Graphics/SVG/1.1/DTD/svg11.dtd" >
<svg xmlns="http://www.w3.org/2000/svg" xmlns:xlink="http://www.w3.org/1999/xlink" version="1.1" viewBox="-10 0 1034 1024">
  <g transform="matrix(1 0 0 -1 0 820)">
   <path fill="currentColor"
d="M183 170q-1 -18 -1 -38q-1 -12 -4 -27h48q-6 30 -6 53h287q21 0 50 -3q6 0 12 -3v47q-10 -1 -22 -4l-141 -1v96l124 -4q3 0 7 -2v47q-12 -3 -26 -5l-105 -1v96q88 0 106 -2q16 0 25 -4v47q-12 -1 -23 -4l-108 -1v107q109 0 126 -2q15 0 24 -4v47q-9 -3 -22 -3
q-19 0 -41 -2h-269q9 15 19 32q9 12 17 28q6 15 15 25q13 24 39 42q-18 7 -43 22l-10 5q-46 -121 -137 -230q-43 -48 -75 -65l20 -15q1 -1 4 -3l20 -16q24 28 60 74l30 38v-367zM220 325v96h149v-96h-149zM220 457v107h149v-107h-149zM220 194v96h149v-96h-149zM333 696
q30 -27 48 -46t40 -49q3 4 31 32q-6 3 -16 14q-16 21 -35 38q-16 18 -40 39q-12 -15 -28 -28zM124 -23q-13 -33 -24 -52q-9 -15 -22 -33q24 -6 43 -17l37 82q13 31 23 51q9 15 25 39q-25 6 -52 16q-3 -12 -18 -58q-6 -13 -12 -28zM294 -5q-7 27 -16 64q-21 -9 -37 -10
q24 -90 28 -145q31 10 42 11q0 6 -2 12zM387 77q-9 -4 -18 -7q-6 -1 -17 -3q27 -82 35 -141q15 7 40 14q-3 18 -17 65q-10 39 -23 72zM469 88q37 -81 48 -139q18 12 41 18q-10 31 -27 71l-24 64q-16 -6 -38 -14zM577 15q12 6 52 6l194 -1q15 0 38 -5v47q-9 -3 -23 -3
q-25 -1 -71 -2q-142 0 -171 2q-4 1 -7 1t-12 2v-47zM617 232l-6 -60q33 3 66 5h250q-6 -138 -6 -181q0 -18 -8 -58q-6 -21 -15 -30q-18 -18 -67 -19q-21 0 -52 4q10 -33 14 -51q90 9 120 25q27 15 38 65q3 21 5 45l5 94q3 87 8 126q0 10 1 21q-30 -1 -61 -5h-256v377h228
l-5 -162q-3 -66 -22 -83q-21 -19 -68 -20q-18 0 -45 6l6 -18q1 -7 5 -15q1 -7 4 -17q105 3 134 44q18 28 22 99l5 114l8 93q-27 -1 -54 -5h-149q9 24 32 63q18 34 42 53q-39 15 -56 27q-28 -87 -62 -143q-33 3 -67 5l6 -61v-338zM709 506q30 -33 73 -110q15 15 33 27
q-36 51 -62 91q-3 3 -12 15q-7 -3 -12 -9q-6 -6 -20 -14v0z" />
  </g>

</svg>
