<?xml version="1.0" standalone="no"?>
<!DOCTYPE svg PUBLIC "-//W3C//DTD SVG 1.1//EN" "http://www.w3.org/Graphics/SVG/1.1/DTD/svg11.dtd" >
<svg xmlns="http://www.w3.org/2000/svg" xmlns:xlink="http://www.w3.org/1999/xlink" version="1.1" viewBox="-10 0 1010 1000">
   <path fill="currentColor"
d="M657 -6q81 4 99 16q1 4 -5 10q-23 25 -35 82h50q87 0 141 -10q-8 62 -13 171q-5 137 -25 158q-30 35 -129 46q-4 -51 -38 -94q77 15 94 -2q19 -3 23 -204h-198v323h135q133 0 194 -13q-9 80 -17 201q-7 134 -20 160q-24 52 -159 63q2 -44 -40 -99q95 22 119 -18
q18 -33 26 -226h-165q-116 -1 -154 8q6 -48 6 -167v-151q0 -110 -6 -154q54 8 107 8q5 -18 8 -50q4 -34 2 -58zM196 0q107 36 100 46q-1 4 -8 8q-18 12 -32 34l-6 9q-12 20 -36 66h151q84 0 141 -8v78q-45 -6 -135 -6v71q85 0 121 -6v70q-42 -9 -121 -8v71q65 0 121 -8v68
q-39 -6 -121 -6v77q77 0 141 -8v79q-39 -9 -137 -8h-167q0 26 6 44h-87q10 -42 10 -182v-173q-33 53 -72 113q-9 -38 -39 -83q111 -121 170 -338zM385 24q30 63 38 107l-74 12q-16 -68 -41 -103zM736 213q27 66 34 119l-74 16q-3 -15 -6 -36q-5 -43 -27 -81zM206 227v73h102
v-73h-102zM308 356h-102v69h102v-69zM308 481h-102v75h102v-75zM808 641v78q-30 -9 -106 -8h-39q-89 0 -125 6v-80q38 9 119 10h39q70 0 112 -6zM504 659q32 71 48 159l-76 16q-8 -75 -41 -157zM391 681q19 60 26 157l-78 8q-3 -97 -18 -159zM97 685l72 10q-23 150 -32 178
q-23 -10 -81 -13q40 -93 41 -175zM278 691q5 40 8 92q3 48 2 69h-78q14 -65 4 -157z" />
</svg>
