<?xml version="1.0" standalone="no"?>
<!DOCTYPE svg PUBLIC "-//W3C//DTD SVG 1.1//EN" "http://www.w3.org/Graphics/SVG/1.1/DTD/svg11.dtd" >
<svg xmlns="http://www.w3.org/2000/svg" xmlns:xlink="http://www.w3.org/1999/xlink" version="1.1" viewBox="-10 0 1010 1000">
   <path fill="currentColor"
d="M663 0q4 1 14 2q86 15 83 24q0 1 -3 5q-23 24 -43 92h68q74 -3 113 -6q-7 48 -17 219q-1 17 -1 22q-1 69 -26 87q-25 24 -111 34q4 -44 -30 -92q94 27 94 -35q9 -114 8 -165h-179v321h190q82 1 117 -10q-9 38 -22 238q-2 29 -3 38q-3 70 -32 88q-29 24 -129 33
q-2 -63 -44 -99q74 14 96 2q26 -10 31 -58l10 -168h-172q-91 2 -117 6q5 -27 5 -113v-207q0 -116 -9 -141q20 3 89 6q19 -57 20 -123zM341 2q1 4 5 12q22 59 33 96l-79 17q-12 -53 -40 -107zM516 133v78q-41 -5 -123 -6h-222v137h77q0 -69 -10 -102q9 0 26 1q62 2 59 7
q0 3 -2 9q-9 24 -9 85h85q0 -42 -1 -58q0 -20 -3 -46q83 -3 81 6q1 3 -2 12q-10 34 -10 86q34 0 64 -6v73q-13 -5 -64 -4v87q1 77 6 102q-12 -3 -40 -4t-47 0h-52q-48 0 -62 1q-19 1 -25 3q3 -24 6 -102v-87h-75q1 99 -2 153q-2 57 -10 103q-15 90 -66 195q-30 -36 -69 -62
q55 -73 68 -182q16 -112 5 -354q-1 -13 -2 -46q-1 -64 -4 -81q39 8 133 8h169q87 -1 121 -6zM732 235q24 53 42 101l-66 22l-3 -9q-20 -67 -34 -97zM312 405v127h87v-127h-87zM512 621q47 114 63 173q-28 5 -69 22q-14 -91 -50 -175zM210 631l56 20q-26 137 -48 222
q-22 -17 -67 -39q44 -74 59 -203zM427 645q13 58 29 159l-65 6q3 -69 -16 -157zM569 649q25 4 86 4h65q72 0 90 -6v74q-24 -6 -82 -6h-73q-50 -3 -86 6v-72zM292 653l51 2q3 93 6 163l-63 4q8 -23 10 -75q2 -53 -4 -94z" />
</svg>
