<?xml version="1.0" standalone="no"?>
<!DOCTYPE svg PUBLIC "-//W3C//DTD SVG 1.1//EN" "http://www.w3.org/Graphics/SVG/1.1/DTD/svg11.dtd" >
<svg xmlns="http://www.w3.org/2000/svg" xmlns:xlink="http://www.w3.org/1999/xlink" version="1.1" viewBox="-10 0 1010 1000">
   <path fill="currentColor"
d="M677 -12q84 4 91 12q3 3 -4 15q-22 32 -38 75h56q77 0 125 -6q-4 63 -7 155q-3 122 -13 148q-17 61 -147 76q-1 -54 -26 -96q84 24 99 -7q18 -24 20 -207h-184v337h125q91 0 170 -7q-5 54 -11 159q-6 166 -24 192q-34 45 -147 53q3 -47 -38 -101q88 24 115 -8
q19 -26 22 -224h-139q-100 0 -147 8q8 -60 8 -185v-139q0 -113 -6 -152q30 3 84 4q8 -14 13 -43q5 -33 3 -59zM75 54q37 6 104 6h35q74 0 98 -6q-6 24 -6 115v165q48 24 51 29q0 2 -3 3q-5 2 -7 5q161 84 213 119l-64 58q-72 -79 -196 -139q-87 79 -209 147q-22 -40 -55 -64
q121 -31 228 -140h-24v-4q4 -26 4 -46q-72 36 -139 82q-16 11 -18 11q-3 -27 -25 -77q1 -1 20 -8q76 -27 162 -66v-125h-57q-50 0 -69 1q-23 1 -43 5v-71zM321 52q31 5 96 6q48 0 111 -4q-2 12 -3 33q-1 17 -1 64v115q0 90 8 117h-80q6 -35 6 -107q-57 32 -95 66q-8 7 -10 8
q-1 -1 -6 -11q-13 -26 -28 -49q2 -1 7 -2q46 -14 132 -61v-112h-37q-64 0 -100 6v-69zM391 141q13 32 26 94l-54 13q-8 -51 -28 -97zM163 149q34 61 35 101l-59 18q-7 -44 -36 -101zM748 197q20 37 36 107l-72 18q-8 -74 -33 -107zM308 455q11 7 31 20q42 25 38 27q0 1 -4 2
q-27 10 -54 32q-79 65 -180 123q-15 -36 -52 -55q129 -41 221 -149zM387 530q4 2 10 7q50 33 49 41q-1 3 -10 8q-22 10 -41 26q-140 120 -246 172q-28 -42 -64 -63q154 -26 302 -191zM450 610q75 40 74 51q-1 1 -7 3q-24 9 -43 29q-147 149 -341 222q-33 -45 -66 -65
q223 -42 383 -240zM532 633q36 6 131 6h25q96 0 131 -6v76q-50 -6 -125 -6h-27q-108 0 -135 6v-76z" />
</svg>
