<?xml version="1.0" standalone="no"?>
<!DOCTYPE svg PUBLIC "-//W3C//DTD SVG 1.1//EN" "http://www.w3.org/Graphics/SVG/1.1/DTD/svg11.dtd" >
<svg xmlns="http://www.w3.org/2000/svg" xmlns:xlink="http://www.w3.org/1999/xlink" version="1.1" viewBox="-10 0 1034 1024">
  <g transform="matrix(1 0 0 -1 0 820)">
   <path fill="currentColor"
d="M246 178h-99q-30 0 -63 5v-45q30 4 63 5h81q-16 -39 -58 -96q24 -9 45 -15q18 -6 33 -13q27 -10 62 -31q-25 -18 -49 -31q-19 -12 -53 -27q-66 -27 -131 -35q24 -18 40 -45q132 45 235 120q117 -55 169 -96q6 18 11 26q4 7 10 17q-105 57 -150 78q-3 1 -5 2q3 7 10 13
l1 2q54 66 86 131q30 0 64 -3l2 -1q3 0 7 -1v46q-12 -1 -15 -2q-24 0 -49 -3h-202q6 13 14 25q16 36 36 53q-28 9 -53 22q-12 -40 -31 -80q-6 -10 -11 -21zM439 143q-24 -64 -93 -127l-115 51q21 45 42 76h166zM236 605q-9 0 -39 4q3 -45 3 -66q0 -75 -12 -128
q-12 -55 -46 -100q-24 -28 -60 -48q24 -9 44 -29q37 45 61 78q42 66 47 192q1 67 4 71q1 13 15 26h-17zM113 479l-4 -59q0 -3 -1 -6h48q-3 9 -6 57v205h131v-196q0 -37 -4 -58q0 -3 -2 -7h48q-4 54 -5 77l1 181l4 44q-30 -1 -59 -5l-111 1q-6 1 -14 2q-15 0 -31 2
q1 -30 5 -60v-178zM269 400q-12 -15 -28 -30q46 -27 90 -75q10 16 15 20q3 6 9 11q-1 1 -86 74zM448 582q0 -12 3 -22l-12 -130q-12 -52 -41 -100q-19 -30 -51 -55q27 -9 45 -25q37 52 66 118q21 63 27 177q1 36 16 60q-6 0 -17 -1q-13 0 -37 5q0 -13 1 -27zM363 479
q0 -37 -3 -53q-1 -1 -1 -5q-1 -3 -2 -7h48q-4 21 -5 65v197h133l-1 -217q-1 -3 -1 -6q0 -15 -5 -35h49l-6 51l1 200l4 33q0 9 1 15q-60 -4 -93 -5q-64 0 -88 2q-6 3 -37 3q1 -19 3 -34q3 -24 3 -33v-171zM496 366q-9 -15 -24 -29q57 -39 90 -90l28 34l-45 43zM518 48
q30 4 64 5l219 -1q27 0 40 -4v47q-9 -3 -15 -3l-49 -3l-226 1q-9 1 -16 2q-6 0 -17 3v-47zM632 279l-4 -47q-1 -10 -1 -21q15 3 51 4l216 1l-3 -99l-7 -129q-6 -54 -30 -65q-25 -12 -74 -12q-24 0 -55 5q9 -25 17 -52q34 1 73 7q78 13 96 53q7 16 12 77l6 98l7 159l-63 -6
h-204v379h202l-2 -171q-1 -42 -14 -55q-13 -15 -53 -15q-15 0 -49 3q12 -18 21 -48q42 3 60 7q40 6 55 29q12 21 16 47q3 19 3 104l2 83q1 28 8 57q-66 -4 -79 -5h-86q0 3 2 5q0 6 4 11q15 42 23 54q6 12 27 26q-21 3 -59 19q-10 -54 -40 -115l-83 5q1 -33 5 -66v-327z
M758 543q-10 12 -26 26q-13 -15 -31 -29q33 -22 98 -102q13 16 30 29q-6 6 -26 30z" />
  </g>

</svg>
