<?xml version="1.0" standalone="no"?>
<!DOCTYPE svg PUBLIC "-//W3C//DTD SVG 1.1//EN" "http://www.w3.org/Graphics/SVG/1.1/DTD/svg11.dtd" >
<svg xmlns="http://www.w3.org/2000/svg" xmlns:xlink="http://www.w3.org/1999/xlink" version="1.1" viewBox="-10 0 1010 1000">
   <path fill="currentColor"
d="M679 -10q103 14 97 24q0 4 -7 10q-25 22 -37 68h72q75 -3 105 -10q0 6 -2 30q-9 146 -14 214q-5 76 -32 99q-23 26 -113 40q-4 -55 -30 -88q3 0 8 1q90 16 91 -58q4 -53 5 -120q0 -30 1 -43h-174v333h172q75 -5 121 -15q-3 39 -9 157q-5 115 -8 142q-4 76 -34 95
q-29 26 -137 42q4 -57 -38 -99q68 8 93 -3q24 -8 30 -47q5 -26 12 -152q3 -37 4 -56h-157q-100 0 -133 6q5 -25 7 -107q1 -23 1 -36v-192q0 -71 -8 -141q18 5 94 8q17 -46 20 -102zM351 6q95 3 91 10q0 2 -2 8q-9 27 -9 74h33q59 -1 84 -6v69q-21 -6 -88 -6h-29q-1 34 4 46
h-84q3 -16 6 -46h-105q0 26 4 50h-81q6 -21 6 -50h-56q-10 1 -44 4q-22 1 -31 2v-69q20 6 75 6h56q-1 -70 -6 -90q89 0 91 12q0 2 -2 7q-12 22 -12 71h105q0 -49 -1 -62q-1 -19 -5 -30zM754 197q15 71 20 125l-76 6q4 -74 -13 -125zM524 217l-4 59v36q-1 63 4 73
q-36 -6 -101 -6q-25 0 -48 1q-11 1 -16 1q6 16 19 45q5 10 7 15l-24 14h64q10 0 27 -1q44 -2 60 -5v67q-24 -9 -87 -6h-60v50h64h13q40 1 60 -4v59q-18 -3 -67 -3h-70v51h66q58 1 73 -4v62q-21 -6 -75 -6h-64v59h64q38 2 89 -6v68q-20 -5 -91 -6h-233q-2 38 3 79q1 3 1 4
h-81q10 -28 10 -101v-242q-37 52 -56 85q-8 -17 -24 -46q-10 -19 -15 -29q83 -75 133 -201h-20q-24 0 -72 6q6 -24 6 -69v-32q0 -48 -4 -69q7 0 36 3q32 3 54 5h41q57 0 78 -6q-3 17 -4 65v36q0 15 5 57q1 7 1 10q-24 -6 -78 -6h-39q7 3 20 8q58 22 57 26q1 4 -7 9
q-17 14 -33 33h113q-11 -33 -27 -58l47 -14h-22q6 -22 6 -87q-1 -52 -6 -79q18 3 80 4h43q59 0 84 -4zM218 270h-77v62h77v-62zM385 268v64h73v-64h-73zM192 510v50h112v-50h-112zM304 612h-112v51h112v-51zM815 639v80q-20 -6 -95 -6h-87q-69 0 -93 6v-80q23 6 93 6h89
q55 0 93 -6zM304 715h-112v59h112v-59z" />
</svg>
