<?xml version="1.0" standalone="no"?>
<!DOCTYPE svg PUBLIC "-//W3C//DTD SVG 1.1//EN" "http://www.w3.org/Graphics/SVG/1.1/DTD/svg11.dtd" >
<svg xmlns="http://www.w3.org/2000/svg" xmlns:xlink="http://www.w3.org/1999/xlink" version="1.1" viewBox="-10 0 1034 1024">
  <g transform="matrix(1 0 0 -1 0 820)">
   <path fill="currentColor"
d="M706 567q9 12 6 9q3 6 13 12q-36 27 -66 43q-10 6 -19 12q-9 -18 -19 -33q42 -9 72 -43h-172q30 39 54 51q-28 12 -46 24q-25 -51 -73 -111q-39 -45 -86 -74q30 -15 37 -22l19 19q13 15 29 29q13 13 26 28v-209q-27 9 -47 19q-12 -48 -31 -82q-33 1 -67 5q1 -31 5 -65
q0 -93 -2 -120q-3 -3 -3 -34q30 3 62 5h479q-3 -39 -8 -65q-9 -39 -26 -53q-15 -7 -39 -8q-33 3 -68 5q12 -18 21 -48q69 0 101 13q30 12 39 45l17 90q4 30 11 57q-33 -1 -66 -5h-482v148h392q-6 -45 -20 -59q-13 -13 -55 -14q-18 0 -46 3q9 -18 9 -22q1 -3 7 -24
q52 3 90 14q28 7 39 32q9 22 20 105q-66 -4 -92 -5h-279q16 39 37 54q-3 -7 -5 -17h45l-3 29h346q6 0 45 -3q1 0 18 -2v38q-31 -1 -63 -5h-159v49l140 -1q22 0 41 -5v37q-9 -1 -16 -3q-81 -3 -126 -3h-39v54q157 0 170 -3q3 0 7 -2v37q-9 -1 -18 -4l-159 -2v53h146
q6 0 45 -3q3 0 19 -2v37q-55 -4 -83 -5h-124zM516 333v49h153v-49h-153zM516 407v54h153v-54h-153zM669 540v-53h-153v53h153zM741 -29q-34 -4 -65 -5h-365q-43 0 -65 5v-45q49 4 65 5l384 -1q6 0 46 -4v45zM462 148q42 -13 58 -24q37 -21 60 -36q6 19 17 36l-118 59
q-4 -13 -17 -35zM885 648q18 0 65 -5v45q-10 -1 -19 -3q-40 -1 -46 -2h-279q7 15 22 30q-18 12 -26 16q-42 27 -99 59q-9 -21 -24 -39q84 -34 116 -66l-370 1q-15 3 -48 4q1 -36 5 -74v-261q0 -133 -9 -203q-15 -99 -54 -178q-16 -34 -47 -71q30 -3 51 -13q25 45 44 85
q30 81 44 185q3 39 6 97l2 130v263h152q-39 -81 -58 -109q-49 -69 -89 -98q24 -10 38 -22q7 9 11 13q10 13 22 27q15 18 24 35l1 -145q0 -39 -6 -73h45q-4 28 -5 73v195q24 39 34 48q9 9 30 22q-28 18 -45 34h512z" />
  </g>

</svg>
