<?xml version="1.0" standalone="no"?>
<!DOCTYPE svg PUBLIC "-//W3C//DTD SVG 1.1//EN" "http://www.w3.org/Graphics/SVG/1.1/DTD/svg11.dtd" >
<svg xmlns="http://www.w3.org/2000/svg" xmlns:xlink="http://www.w3.org/1999/xlink" version="1.1" viewBox="-10 0 1010 1000">
   <path fill="currentColor"
d="M815 598q-1 2 -12 7q-48 20 -97 58h106q57 0 101 -6v60q-26 -5 -92 -4h-180q117 84 294 107q-34 25 -54 81q-176 -57 -302 -166v91q0 48 8 77h-83q8 -46 8 -81v-91q-106 104 -280 178q-29 -42 -59 -67q146 -24 269 -125h-123q-59 0 -107 6v-66q3 0 8 1q40 7 86 7h69
q-30 -36 -79 -67l61 -38q42 26 85 67l-47 38h117v-46q1 -37 -10 -59q85 0 85 6q2 4 -2 17q-6 22 -6 40v40h109l-43 -36q29 -14 56 -35q21 -17 39 -30q68 24 75 36zM544 -13q16 47 25 83h235q60 0 109 -8v71q-17 -2 -41 -3q-12 -1 -28 -1h-42h-18h-137v58h123h30q29 0 65 -6
q-5 12 -4 48v63q0 38 4 56q-16 -2 -67 -2h-84h-95v51q97 -8 228 -41q55 43 48 47q-5 5 -24 6q-14 0 -22 2q-131 20 -230 28v18q-5 27 54 24h107q51 1 65 -11q15 -8 22 -49q37 28 68 38q-15 45 -41 62q-24 16 -81 15h-170q-62 1 -73 -9q-15 -8 -14 -50v-131h-102h-113v41h78
q65 -1 101 -4v56q-31 -6 -109 -6h-72v55q71 0 179 -31q-6 32 -6 65q-161 13 -234 36q-11 -31 -26 -58q27 -18 26 -45v-109h-90q5 371 -97 533q-32 -36 -75 -65q57 -76 79 -187q21 -99 20 -303q-3 -174 -12 -264q46 10 113 10h264q-7 -27 -32 -74zM583 129h-156v58h156v-58z
M363 129h-175v58h175v-58zM794 235h-36h-111v59h103l44 -2v-57zM363 235h-175v59h175v-59zM427 235v59h156v-59h-156z" />
</svg>
