<?xml version="1.0" standalone="no"?>
<!DOCTYPE svg PUBLIC "-//W3C//DTD SVG 1.1//EN" "http://www.w3.org/Graphics/SVG/1.1/DTD/svg11.dtd" >
<svg xmlns="http://www.w3.org/2000/svg" xmlns:xlink="http://www.w3.org/1999/xlink" version="1.1" viewBox="-10 0 1010 1000">
   <path fill="currentColor"
d="M317 -2l52 100l-50 25h104q15 1 85 -8v80q-51 -9 -83 -8h-22v87h59q23 0 72 -8q-5 36 -6 68v83q0 23 8 70q-44 -6 -76 -6h-41v99q39 0 73 -8v69q-6 -1 -16 -2q-36 -6 -57 -6v113q42 -31 61 -57q4 29 26 61q-79 58 -127 115q-10 -36 -36 -65q18 -45 18 -60v-259h-89v99
q30 0 73 -8v69q-35 -11 -73 -10v119q31 -20 51 -41q7 43 18 59q-87 63 -125 103q-5 -32 -33 -73q28 -10 25 -44v-273h-43q-8 238 -80 386q-35 -54 -61 -71q46 -70 59 -159q15 -80 14 -287v-159q0 -46 -6 -76q64 8 84 8h111q-10 -41 -50 -91zM780 2l36 3q64 4 57 7
q-18 33 -18 119q41 -1 82 -8v82q-42 -9 -82 -8v409q51 0 95 -8v81q-65 -10 -97 -10h-240q-45 1 -99 10v-83q2 0 5 1q51 7 66 7v-407q-32 0 -55 4v-74q23 4 55 4q-1 -90 -8 -115q96 -4 94 6q-19 34 -18 111h133q1 -96 -6 -131zM165 185v87h67v-87h-67zM349 187h-65v87h65v-87
zM786 197h-133v101h133v-101zM163 322v107h69v-107h-69zM466 324h-63v105h63v-105zM349 324h-65v105h65v-105zM653 352v99h133v-99h-133zM786 504h-133v102h133v-102zM617 703q7 5 21 14q54 35 50 37q-63 51 -154 155q-32 -36 -76 -55q94 -43 159 -151zM823 705l51 51
q59 58 86 90l-65 57q-11 -14 -28 -36q-53 -72 -105 -119z" />
</svg>
