<?xml version="1.0" standalone="no"?>
<!DOCTYPE svg PUBLIC "-//W3C//DTD SVG 1.1//EN" "http://www.w3.org/Graphics/SVG/1.1/DTD/svg11.dtd" >
<svg xmlns="http://www.w3.org/2000/svg" xmlns:xlink="http://www.w3.org/1999/xlink" version="1.1" viewBox="-10 0 1034 1024">
  <g transform="matrix(1 0 0 -1 0 820)">
   <path fill="currentColor"
d="M488 266l56 -6q-4 49 -5 75q0 118 3 130q0 9 2 18q-25 -1 -51 -5h-72v122h52q43 0 63 -5v46q-6 0 -13 -3l-89 -2l-271 1q-15 3 -47 4q1 -31 5 -65l-1 -374q-3 -52 -8 -92q-10 -84 -38 -154q-18 -39 -40 -65q30 -3 52 -11q30 70 48 143q24 111 24 243h330zM158 302v140
h103v-140h-103zM158 478v122h103v-122h-103zM298 302v140h86v-140h-86zM298 478v122h86v-122h-86zM501 302h-80v140h80v-140zM365 680q-79 79 -84 82q-12 -12 -29 -27l55 -50q18 -19 42 -47q12 15 31 29q-7 7 -15 13zM233 -132q28 25 63 48l63 44l-7 38q-37 -27 -88 -60v156
q75 0 93 -5q0 1 3 0v47q-1 0 -2 -1q-3 0 -4 -1q-3 0 -6 -2l-84 -2v44q0 30 14 64h-57q4 -22 5 -64v-218q0 -28 -17 -50q12 -18 24 -38zM425 180q0 30 14 63h-57q4 -30 5 -63v-238q0 -24 -11 -45q12 -15 24 -32q51 42 73 59q39 28 72 56q-3 15 -6 42q-33 -30 -61 -50
q-24 -18 -53 -38v158q36 18 87 47q19 7 48 20q-9 7 -20 17q-7 6 -22 18q-33 -31 -93 -61v47zM592 -141q22 28 47 56q6 6 49 66q31 42 60 61q-31 13 -53 26q-16 -33 -34 -59q-15 -24 -36 -51q-63 -78 -102 -96q24 -9 49 -25q9 12 20 22zM645 136h-15q-43 0 -65 5v-47
q12 6 52 6l340 -1q16 -1 28 -5v47q-6 0 -7 -1q-4 0 -7 -2l-84 -2v444h17q45 0 62 -7v48q-3 0 -6 -1q-3 0 -6 -2l-67 -2v73q0 30 15 64h-58q4 -30 5 -64v-73h-166v69q0 30 15 64h-58q4 -21 5 -64v-69h-13q-48 0 -66 5v-48q9 6 61 7h18v-444zM683 460v120h166v-120h-166z
M683 136v129h166v-129h-166zM683 301v123h166v-123h-166zM962 -100l-34 46q-24 34 -70 96l-14 18l-35 -22q93 -111 128 -189q19 16 40 30z" />
  </g>

</svg>
