<?xml version="1.0" standalone="no"?>
<!DOCTYPE svg PUBLIC "-//W3C//DTD SVG 1.1//EN" "http://www.w3.org/Graphics/SVG/1.1/DTD/svg11.dtd" >
<svg xmlns="http://www.w3.org/2000/svg" xmlns:xlink="http://www.w3.org/1999/xlink" version="1.1" viewBox="-10 0 1034 1024">
  <g transform="matrix(1 0 0 -1 0 820)">
   <path fill="currentColor"
d="M288 629q-70 -79 -132 -123q-57 -39 -106 -50q34 -30 44 -39q81 55 121 90q36 30 90 93l-1 -160q-1 -7 -2 -22q0 -3 -3 -10h50q-6 25 -6 47v113q48 -33 90 -88q10 21 29 39q-45 37 -62 47l-33 24q-1 1 -8 6q-7 4 -16 11v21q102 0 124 -3q1 0 11 -2v46q-4 0 -6 -1
q-3 0 -6 -2l-99 -2h-24v41q0 30 14 63h-58q6 -25 6 -63v-41l-192 1q-24 3 -28 4v-46q3 1 64 6h139zM312 107v-197q0 -22 -6 -35q-3 -4 -11 -15l23 -37q30 19 72 35l136 47q0 34 2 41l-179 -62v109h125q43 0 64 -6v47q-4 0 -7 -1q-4 0 -7 -2l-100 -2h-75v78h245v-179
q0 -13 3 -26q4 -18 23 -30q37 -21 161 -22q105 0 145 36q18 18 43 70q-31 18 -45 28q0 -30 -7 -48q-22 -51 -140 -51q-27 0 -45 2q-51 3 -75 10q-25 7 -26 41v46l150 30q45 7 67 8l30 -1q-13 22 -25 51q-10 -4 -24 -9q-12 -3 -54 -12q-42 -10 -72 -16q-28 -6 -72 -13v85
l185 -1q12 0 40 -4q-6 48 -6 73q0 48 2 58q0 3 1 5l3 28q-60 -4 -87 -5h-122v80h202q37 0 63 -5v46q-6 0 -13 -3l-88 -2h-246q6 9 14 17q-6 6 -41 28q-45 27 -68 44q-18 -24 -27 -33q30 -18 69 -44q4 -4 14 -12l-301 1q-15 3 -41 4q4 -99 5 -105q0 -82 -2 -121
q-3 -40 -10 -81q-12 -70 -61 -140q-25 -36 -66 -60q31 -13 54 -28q57 78 80 128q22 51 39 132h89zM226 143q0 42 1 82h189v-82h-190zM416 341v-80h-189v80h189zM610 143h-157v82h157v-82zM453 261v80h157v-80h-157zM812 143h-165v82h165v-82zM689 470l-4 -56q0 -3 -2 -5h49
q-4 21 -5 61v123q37 -43 81 -76q51 -39 119 -76q7 12 19 25q7 6 17 18q-33 4 -95 37q-75 45 -140 113h145q43 0 62 -6v46q-6 0 -12 -3l-99 -2h-97v34q0 30 15 64h-59q6 -25 6 -64v-34h-90q-48 0 -65 5v-46q9 4 26 5l112 1q-52 -54 -92 -85q-49 -36 -100 -49q19 -13 46 -38
q99 70 163 146v-138z" />
  </g>

</svg>
