<?xml version="1.0" standalone="no"?>
<!DOCTYPE svg PUBLIC "-//W3C//DTD SVG 1.1//EN" "http://www.w3.org/Graphics/SVG/1.1/DTD/svg11.dtd" >
<svg xmlns="http://www.w3.org/2000/svg" xmlns:xlink="http://www.w3.org/1999/xlink" version="1.1" viewBox="-10 0 1010 1000">
   <path fill="currentColor"
d="M643 -21q87 5 93 9q0 1 -3 6q-15 22 -15 46v44h78q118 -5 135 -10v77q-47 -7 -135 -8h-24q53 75 161 94q-34 23 -60 73q-118 -58 -155 -155v58q4 71 10 93h-85q3 -7 6 -43t2 -48v-64q-8 10 -25 33q-51 68 -74 88q-35 -29 -72 -41q71 -32 111 -88q-50 -1 -95 8v-77
q43 9 93 10h62v-48q1 -30 -8 -57zM254 -19q85 1 93 11q1 2 -4 9q-14 24 -14 49v34h34q87 -5 107 -10v77q-52 -8 -111 -8h-30v72q3 70 10 97h-85q3 -4 6 -42q3 -37 2 -53v-48q-70 100 -161 165q-21 -35 -65 -56q103 -37 170 -135h-21q-72 0 -116 8v-77q42 8 118 10h75v-40
q0 -37 -8 -63zM385 161q37 24 85 76l-57 47q-38 -54 -76 -81zM536 276q23 41 29 62h193q90 -1 145 -8v77q-53 -8 -143 -8h-115v56h107q67 1 107 -6q-8 37 -8 79v28q-1 50 8 85q-39 -8 -111 -8h-103v72q94 -19 155 -46q36 56 37 70q-1 1 -8 1q-58 2 -184 28v28q-2 38 51 36
h110q55 0 63 -107q31 38 83 47q-17 73 -47 97q-26 24 -99 28h-151q-53 1 -68 -13q-17 -13 -16 -58v-183h-206v50h36q69 0 117 -8v75q-13 -3 -60 -6t-59 -2h-34v70q88 -18 145 -40l-8 74q-160 39 -222 63l-26 -71q42 -16 40 -56v-149h-68q-14 120 -93 252q-44 -32 -97 -37
q71 -60 98 -156q13 -46 17 -106q5 -49 4 -163q0 -50 -8 -93q45 8 107 8h224q-18 -32 -34 -48zM230 397v58h137v-58h-137zM573 397h-135v58h135v-58zM780 514h-135v60h135v-60zM230 514v60h137v-60h-137zM573 514h-135v60h135v-60z" />
</svg>
