<?xml version="1.0" standalone="no"?>
<!DOCTYPE svg PUBLIC "-//W3C//DTD SVG 1.1//EN" "http://www.w3.org/Graphics/SVG/1.1/DTD/svg11.dtd" >
<svg xmlns="http://www.w3.org/2000/svg" xmlns:xlink="http://www.w3.org/1999/xlink" version="1.1" viewBox="-10 0 1010 1000">
   <path fill="currentColor"
d="M623 -4q72 18 91 34q0 2 -5 6q-36 29 -68 115h85q114 0 197 -8q-10 69 -10 205v464q9 85 -147 89q2 -52 -34 -93q117 35 109 -44v-551h-234l-18 30q-28 47 -39 67q-37 -25 -84 -32q95 -83 157 -282zM254 4q77 1 89 12q1 3 -3 10q-15 25 -15 64v39h20q45 0 121 -8
q11 -1 16 -2v80q-40 -8 -133 -8h-24v169q91 49 159 99l-51 49q-41 -50 -108 -87q0 45 8 66h-77q5 -21 6 -52q-87 87 -165 143q-28 -42 -49 -60q103 -36 214 -166v-161h-34q-80 0 -147 8v-78q91 8 145 8h36v-29q0 -47 -8 -96zM619 246q60 -2 95 10q1 2 -3 7q-17 25 -17 77
v121h14q63 0 104 -8v81q-53 -8 -104 -8h-14v58l40 -26q60 58 97 113l-55 42q-34 -59 -82 -94v135q0 53 10 106h-85q9 -44 8 -112v-138q-69 93 -131 158q-17 -25 -67 -47q100 -76 174 -197q-52 0 -97 8v-79q54 8 101 8h20v-88q0 -55 -2 -79q-1 -29 -6 -48zM760 298
q42 15 67 34q-1 3 -9 11q-32 31 -68 90q-15 -13 -48 -23q-2 -1 -4 -1q35 -41 62 -111zM562 320q32 48 49 83l-48 26q-14 -40 -57 -79zM238 485q64 21 77 31q-1 1 -5 3q-12 4 -16 15h49q54 0 117 -8q-37 141 -77 189l5 5q42 35 52 48l-59 54q-11 -18 -44 -54q-79 70 -200 131
q-13 -32 -64 -65q117 -28 217 -113q-48 -42 -90 -66q-2 1 -6 6q-18 26 -55 72q-29 -24 -72 -38q88 -59 171 -210zM371 586h-119l-16 22q69 46 95 67q25 -39 40 -89zM218 373q-3 -3 -9 -11q-20 -24 -36 -38q-9 14 -23 39q-28 46 -33 56q-19 -17 -57 -30q65 -83 101 -180
q43 9 71 26q-1 1 -4 3q-19 11 -34 42q39 23 62 44q-35 42 -38 49zM331 322q42 -39 70 -117q61 21 65 28l-4 4q-18 11 -33 43l79 52l-42 45q-17 -22 -59 -55q-5 6 -13 20q-10 16 -15 23q-12 -7 -48 -43z" />
</svg>
