<?xml version="1.0" standalone="no"?>
<!DOCTYPE svg PUBLIC "-//W3C//DTD SVG 1.1//EN" "http://www.w3.org/Graphics/SVG/1.1/DTD/svg11.dtd" >
<svg xmlns="http://www.w3.org/2000/svg" xmlns:xlink="http://www.w3.org/1999/xlink" version="1.1" viewBox="-10 0 1034 1024">
  <g transform="matrix(1 0 0 -1 0 820)">
   <path fill="currentColor"
d="M136 453q6 7 12 17q42 -30 62 -53q7 18 23 32q-30 21 -64 42q-3 1 -8 5l27 40q3 6 22 16q-18 9 -34 22q-6 4 -11 10q-21 -54 -42 -90q-36 -55 -69 -81q24 -7 42 -17q0 1 40 57zM263 362q0 -18 -5 -64h46q-4 33 -5 62v27q54 -42 86 -69q24 -24 50 -55q9 16 16 25l10 14
q-10 7 -19 15q-6 6 -72 53l-71 51v187q108 0 124 -2q12 0 24 -3v42q-6 -1 -13 -3q-36 0 -73 -3h-62v59q0 9 3 28q0 18 10 36h-54q0 -15 3 -27l2 -96l-121 1q-24 4 -52 5v-42q12 1 25 3l76 2h72v-158q-37 -51 -83 -93q-60 -52 -123 -76q19 -16 37 -38q57 43 75 59
q49 46 94 98v-38zM376 -73l29 -34q9 15 25 32q-15 16 -47 45l-49 45q45 72 92 194q-18 -1 -32 -2q-19 -3 -30 -4h-129q18 33 22 40q9 13 30 27q-25 15 -51 28q-22 -73 -69 -143q-43 -60 -92 -88q24 -12 45 -29q25 28 45 54q21 28 53 80h151q-12 -40 -25 -68q-10 -24 -36 -66
l-72 71q-16 -15 -30 -24l82 -74q-55 -54 -101 -81q-58 -31 -112 -43q18 -15 32 -37q117 42 204 140q6 -4 65 -63zM406 507q9 22 37 47q-18 7 -44 26q-15 -46 -36 -82q-24 -39 -52 -65q21 -7 34 -17q27 36 46 68q18 -13 32 -28q12 -10 28 -28q9 18 21 32q-1 0 -5 3q-1 3 -8 7
zM904 557l-2 -255l-6 -319q-1 -4 -1 -9q-6 -48 -20 -61q-16 -12 -57 -12q-39 0 -77 9q10 -33 14 -53q48 0 81 4q12 1 35 7q31 10 48 38q13 27 14 99l4 264l2 177q1 93 5 106q1 22 5 45q-34 -1 -70 -5h-268q25 54 34 79q18 39 36 55q-9 3 -16 6q-18 7 -28 13l-12 8
q-9 -69 -56 -163q-39 -81 -66 -119q-27 -39 -64 -69q22 -12 41 -26q52 63 116 181h308zM660 208v-207q0 -25 -3 -49q0 -4 -3 -16h49q-3 28 -5 57v172q81 -72 126 -138l10 13q7 7 18 19q-21 27 -48 55l-106 101v41q111 0 123 -2q3 0 7 -1l13 -2v45q-9 -1 -29 -3l-114 -2v142
q0 9 3 29q0 18 10 37h-57q0 -9 3 -20q3 -45 3 -84v-104h-99q-24 0 -49 3q-3 0 -18 2v-45q19 1 40 3q15 1 47 2h61q-45 -87 -103 -152q-51 -51 -102 -73q24 -15 40 -32q30 21 66 55q34 34 50 55q9 12 67 99zM575 452q-18 -12 -37 -19q21 -39 44 -112q18 9 36 12
q-7 28 -43 119zM739 339q15 -7 33 -21q42 78 51 90t24 25q-31 15 -47 30q-10 -46 -61 -124v0z" />
  </g>

</svg>
