<?xml version="1.0" standalone="no"?>
<!DOCTYPE svg PUBLIC "-//W3C//DTD SVG 1.1//EN" "http://www.w3.org/Graphics/SVG/1.1/DTD/svg11.dtd" >
<svg xmlns="http://www.w3.org/2000/svg" xmlns:xlink="http://www.w3.org/1999/xlink" version="1.1" viewBox="-10 0 1034 1024">
  <g transform="matrix(1 0 0 -1 0 820)">
   <path fill="currentColor"
d="M167 296q0 -108 -18 -201t-58 -162q-21 -30 -52 -55q30 -9 59 -21q25 45 42 81q33 78 48 160q16 105 17 218v294h666q43 0 62 -6v47q-6 0 -12 -3l-93 -2l-624 1q-19 3 -43 4q6 -66 6 -85v-270zM403 -106l-4 -56q0 -3 -1 -5h45q-3 16 -5 61l-1 390q60 -58 96 -108
q15 22 25 40q-69 63 -120 105v52h49q45 0 63 -7v43q-3 0 -6 -1q-3 0 -6 -2l-100 -2v92q0 30 15 63h-55q4 -30 5 -63v-92h-77q-45 0 -64 5v-43q15 6 27 6l105 1q-39 -126 -94 -231q-36 -63 -59 -93q-24 -30 -56 -51q25 -9 53 -25q54 78 87 142q28 57 47 102q16 39 31 83v-406
zM479 736q63 -34 113 -85q9 16 31 38l-114 80q-12 -18 -30 -33zM703 -105q0 -21 -3 -51q0 -4 -2 -10h44q0 6 -2 10l-4 51v411q28 -69 77 -147q19 -30 45 -61l81 -100q16 15 26 23q7 6 20 14q-57 30 -118 111q-81 102 -123 228h111q45 0 63 -7v44q-3 0 -6 -2q-3 0 -6 -2
l-170 -2v99q0 28 15 63h-53q6 -72 6 -89v-73h-42q-48 0 -65 6v-44q9 6 60 7h42q-25 -69 -54 -124q-21 -45 -50 -93q-27 -45 -49 -74q-39 -48 -67 -67q28 -9 51 -26q18 24 39 57q22 34 49 81q18 31 37 69q21 40 48 101v-403z" />
  </g>

</svg>
