<?xml version="1.0" standalone="no"?>
<!DOCTYPE svg PUBLIC "-//W3C//DTD SVG 1.1//EN" "http://www.w3.org/Graphics/SVG/1.1/DTD/svg11.dtd" >
<svg xmlns="http://www.w3.org/2000/svg" xmlns:xlink="http://www.w3.org/1999/xlink" version="1.1" viewBox="-10 0 1010 1000">
   <path fill="currentColor"
d="M565 16q7 31 14 90q1 9 2 13h147q118 -1 175 -6v82q-62 -6 -171 -8h-518v216l-6 103q-9 178 -87 365q-20 -28 -61 -47q-11 -5 -16 -8q49 -72 71 -165q23 -123 26 -268v-101q-1 -81 -6 -169q48 5 192 6h163q-5 -41 -30 -97zM639 217q94 4 95 20q0 6 -7 14q-9 11 -9 21v68
q44 -2 94 -3q44 0 59 -3v67q0 1 -26 -1q-68 -3 -123 -3q39 128 97 195q41 49 125 97q-42 25 -79 65q-102 -91 -145 -214v200q1 47 6 143h-77q3 -54 4 -148v-193q-47 107 -117 226q-36 -27 -76 -37q91 -93 183 -332h-59q-21 1 -36 2v-65q9 0 46 2q34 1 55 2q0 -45 -10 -123z
M363 221q95 -1 95 12q1 4 -3 11q-7 10 -7 20q0 15 -1 39q-1 23 -1 37q34 0 74 -6v73q-47 -4 -74 -4v117l46 -45q42 37 68 75l-52 52q-31 -39 -62 -68v214q0 109 6 129h-81q6 -88 6 -129v-224q-35 104 -107 236q-27 -24 -78 -37q91 -90 161 -320q-42 1 -109 4v-73q80 4 129 4
q-1 -72 -10 -117z" />
</svg>
