<?xml version="1.0" standalone="no"?>
<!DOCTYPE svg PUBLIC "-//W3C//DTD SVG 1.1//EN" "http://www.w3.org/Graphics/SVG/1.1/DTD/svg11.dtd" >
<svg xmlns="http://www.w3.org/2000/svg" xmlns:xlink="http://www.w3.org/1999/xlink" version="1.1" viewBox="-10 0 1034 1024">
  <g transform="matrix(1 0 0 -1 0 820)">
   <path fill="currentColor"
d="M203 627l694 -1l38 -4v46q-10 0 -15 -3q-19 0 -48 -2h-284q7 10 20 20l-111 87q-3 -3 -11 -10l-18 -19q54 -34 96 -78l-363 1q-12 3 -42 4q1 -13 3 -30q3 -19 4 -31l-1 -356q-6 -100 -12 -138q-12 -99 -47 -168q-18 -39 -52 -82l51 -13q39 84 43 93q19 60 32 105l14 83
q9 81 9 172v324zM541 103v-72l-241 -9q-21 0 -43 2q-9 0 -31 4q0 -24 2 -50q9 1 15 4q6 0 10 1q24 3 49 4l239 8v-58q0 -51 29 -71q18 -10 53 -14q36 -3 66 -4l127 3q4 1 8 1q54 9 78 45q6 12 21 49q-6 3 -13 8q-18 9 -25 16q-6 6 -14 11q1 -15 2 -27q0 -25 -11 -44
q-15 -18 -60 -21q-69 -3 -95 -4q-36 3 -67 4q-33 1 -46 11q-15 13 -15 53v44q267 10 326 10l53 -4q-3 27 -4 52q-30 -9 -85 -12l-290 -11v73l230 5q15 0 33 -4q-1 25 -2 49q-18 -6 -33 -6l-45 -5l-183 -6v83q151 19 232 26q24 3 47 -1q1 0 5 -1q-18 24 -30 51
q-48 -13 -93 -21l-185 -20l-111 -7q-61 -3 -103 -3q-33 0 -69 6q12 -30 15 -43l254 12v-83l-159 -6l-66 3q-9 0 -17 3q0 -22 1 -47q34 6 80 8zM248 331q12 -9 21 -16q15 10 29 25q45 45 57 59q51 64 63 76v-125q0 -39 -5 -56h46q-4 18 -5 56v82q18 -10 32 -22q15 -12 37 -28
q3 6 6 10q6 7 15 19q-15 7 -64 37q-1 0 -9 6l-18 9v32q49 0 76 -4q10 0 22 -3v44q-4 0 -7 -1q-72 -3 -75 -4h-16v5q0 4 3 25q3 18 11 36h-54q4 -42 5 -66q-147 0 -163 3q-3 1 -12 2v-44q36 6 49 7h100q-43 -60 -77 -91q-52 -45 -87 -61q9 -6 20 -12zM556 307q84 72 158 164
v-112q0 -36 -5 -56h45q-4 18 -5 56v112q27 -37 49 -57q42 -40 74 -58q28 -16 68 -43q19 31 29 44q-39 9 -106 51q-31 21 -48 37q-22 18 -55 55q115 0 136 -2q15 0 31 -3v42q-9 -1 -28 -3q-18 0 -34 -2h-116q0 28 3 38q1 13 10 27h-53q0 -6 3 -13q0 -25 2 -52q-87 0 -101 3
q-3 1 -11 2v-42h6q3 1 7 2q42 1 84 3q-100 -120 -182 -168q4 0 39 -25v0z" />
  </g>

</svg>
