<?xml version="1.0" standalone="no"?>
<!DOCTYPE svg PUBLIC "-//W3C//DTD SVG 1.1//EN" "http://www.w3.org/Graphics/SVG/1.1/DTD/svg11.dtd" >
<svg xmlns="http://www.w3.org/2000/svg" xmlns:xlink="http://www.w3.org/1999/xlink" version="1.1" viewBox="-10 0 1010 1000">
   <path fill="currentColor"
d="M784 0q45 72 47 98q-2 3 -33 -1q-32 -5 -48 -5q-48 1 -212 16v71h260q48 0 127 -8v83q-42 -7 -127 -8h-262q0 -6 0 23q2 69 14 89q143 164 414 174q-43 48 -57 99q-319 -93 -409 -240q-105 134 -407 250q-15 -50 -61 -83q269 -33 420 -210q13 -24 12 -80
q-105 93 -369 193q-15 -50 -55 -80q138 -7 371 -135h-222q-90 1 -125 8v-83q38 7 125 8h275v-67q-13 1 -42 2q-171 11 -271 11q-2 -46 -28 -85q102 6 198 7q95 0 181 -5q178 -11 284 -42zM615 268q149 56 286 121l-56 78q-126 -87 -282 -143zM448 488q80 1 104 14q0 1 -4 6
q-14 19 -14 36v97q30 11 47 20q72 -61 86 -105q9 7 29 24q55 43 50 45q-2 2 -11 4q-21 5 -37 16q-5 4 -16 12q-32 22 -45 34q44 18 142 63q66 31 88 40l-59 73q-102 -79 -274 -164v103q5 42 -25 57q-32 20 -126 32q-5 -43 -38 -85q60 14 95 -2q14 -10 14 -52v-204
q0 -51 -6 -64zM317 556q30 47 50 91l-71 32q-11 -39 -48 -85zM425 643q-6 40 4 78q-177 68 -270 133q-14 -35 -50 -80q132 -36 316 -131z" />
</svg>
