<?xml version="1.0" standalone="no"?>
<!DOCTYPE svg PUBLIC "-//W3C//DTD SVG 1.1//EN" "http://www.w3.org/Graphics/SVG/1.1/DTD/svg11.dtd" >
<svg xmlns="http://www.w3.org/2000/svg" xmlns:xlink="http://www.w3.org/1999/xlink" version="1.1" viewBox="-10 0 1010 1000">
   <path fill="currentColor"
d="M855 20q-6 28 -6 93v171q0 52 6 83q-48 -6 -109 -5h-208v75h170q111 0 138 -4h1v77h-2q-45 -6 -137 -6h-170v80h194q171 0 205 -8v81h-1q-31 -6 -202 -6h-504q-147 0 -171 6h-1v-81q23 8 170 8h238v-80h-172q-71 0 -127 5q-11 2 -12 1v-79q9 6 143 6h168v-75h-220
q-66 0 -95 5q6 -41 6 -89v-170q0 -52 -6 -88q28 6 99 6h498q63 0 107 -6zM538 94v200h240v-200h-240zM228 94v200h238v-200h-238zM641 127q83 19 89 26q0 5 -8 11q-13 10 -20 23l-37 87l-78 -20q30 -48 54 -127zM365 135q27 53 48 111l-80 20q-18 -62 -43 -109zM149 687
l93 30q-37 90 -85 168l-94 -33q48 -61 86 -165zM815 691q60 83 96 157l-99 33q-25 -103 -82 -160zM613 691q34 87 50 159l-94 23q-17 -115 -45 -160zM413 709q16 41 31 151l-93 15q-4 -79 -26 -150z" />
</svg>
