<?xml version="1.0" standalone="no"?>
<!DOCTYPE svg PUBLIC "-//W3C//DTD SVG 1.1//EN" "http://www.w3.org/Graphics/SVG/1.1/DTD/svg11.dtd" >
<svg xmlns="http://www.w3.org/2000/svg" xmlns:xlink="http://www.w3.org/1999/xlink" version="1.1" viewBox="-10 0 1010 1000">
   <path fill="currentColor"
d="M593 0q45 11 78 24q15 6 -2 22q-16 15 -22 26q-12 24 -24 47h192q41 0 104 -4q-21 132 -46 250q1 57 -133 78q-12 -49 -40 -93q100 17 104 -34q18 -80 25 -135h-71q-51 132 -133 200q-25 -25 -73 -43q89 -46 133 -157h-92q-26 45 -51 79q-25 -32 -60 -45v25
q-22 -5 -125 -5v128q-1 50 8 88h-83q9 -20 8 -88v-91q-88 114 -161 179q-31 -35 -66 -52q127 -85 195 -164q-115 -1 -165 13v-77q41 8 197 8v-66q-37 6 -153 14l-22 -69q162 3 345 -46q26 36 38 74q5 16 -25 13q-28 -3 -44 -1q-20 2 -72 10v71q86 1 125 -10v38
q77 -84 111 -207zM411 262q46 33 77 72l-55 41q-37 -49 -68 -77zM488 346q36 12 72 37q12 10 -10 21l-6 3q178 129 418 129q-46 46 -71 99q-285 -82 -391 -200q-109 118 -385 226q-22 -37 -69 -75q259 -31 442 -240zM458 520q44 1 82 8q27 6 10 33q-12 17 -12 27v61l55 24
q39 -34 72 -91q43 22 71 49q15 15 -17 26q-18 5 -25 10q-1 1 -3 2q-22 16 -44 34q62 24 204 93l-61 75q-83 -64 -250 -160v127q2 34 -22 43q-16 10 -117 22q-7 -44 -42 -95q113 27 107 -24v-69l-24 12q-179 85 -254 135q-13 -39 -51 -78q116 -22 327 -131v-45q0 -41 -5 -75
q-1 -9 -1 -13zM329 592q39 29 72 67l-78 36q-31 -46 -65 -64z" />
</svg>
