<?xml version="1.0" standalone="no"?>
<!DOCTYPE svg PUBLIC "-//W3C//DTD SVG 1.1//EN" "http://www.w3.org/Graphics/SVG/1.1/DTD/svg11.dtd" >
<svg xmlns="http://www.w3.org/2000/svg" xmlns:xlink="http://www.w3.org/1999/xlink" version="1.1" viewBox="-10 0 1034 1024">
  <g transform="matrix(1 0 0 -1 0 820)">
   <path fill="currentColor"
d="M265 493q0 -33 -5 -54h46q-4 18 -5 54v144q33 30 65 62q15 12 37 17q-40 18 -43 20q-9 7 -12 9q-27 -42 -82 -92q-99 -85 -173 -106q18 -12 23 -18q6 -4 19 -17q45 28 73 49q25 18 57 44v-112zM145 -144q24 -12 36 -22q27 28 41 46l50 64q19 24 41 32q-28 9 -40 15
q-3 0 -11 6q-13 -27 -46 -70q-34 -42 -77 -68zM342 334q42 -25 98 -77q12 15 25 28q-18 16 -37 31l-61 46q-13 -21 -25 -28zM597 278q18 -12 29 -25q34 30 43 39q30 28 53 34l-35 36q-16 -19 -35 -37q-18 -18 -55 -47zM514 42l-359 3q-3 0 -6 2v-44q1 1 18 2q3 1 39 3
l673 -1q24 0 31 -3q3 0 6 -1v44q-9 -3 -14 -3q-18 0 -45 -2h-307v63l244 -1l37 -4v44q-4 -1 -11 -3q-27 0 -48 -2h-222v65l219 -1l40 -4q-4 49 -5 74l5 145q-49 -4 -55 -5l-467 1q-15 3 -33 4q4 -54 5 -76l-3 -130q-1 -6 -2 -13q19 4 51 5h209v-65l-273 1q-7 3 -17 4v-44
q3 3 31 3q10 1 25 2h234v-63zM514 238h-220v141h220v-141zM550 238v141h218v-141h-218zM617 569q22 -30 40 -49q37 -40 92 -75q54 -30 98 -31q39 0 61 33q10 19 24 59q-22 6 -49 23q0 -39 -3 -53q-6 -27 -33 -28q-46 0 -111 49q-39 30 -77 75q196 22 217 23q10 0 28 -3
q-3 24 -4 47q-21 -6 -63 -14l-199 -22q-22 45 -32 73q-7 24 -8 40q0 9 9 25l-58 1q18 -72 49 -141l-149 -16q-30 -3 -41 -3q-16 0 -43 3l6 -49q18 6 27 7q28 3 54 8zM414 -7q-16 -12 -33 -19q34 -54 56 -115q16 9 35 19q-9 21 -30 61q-15 27 -28 54zM641 -124q4 3 17 8
q4 0 8 2q-13 30 -20 43q-1 3 -4 9q-12 27 -26 53q-24 -9 -37 -13q34 -55 50 -108zM768 702q-61 34 -67 38l-23 -29q-1 0 -1 -1q10 -3 107 -62l20 -14q9 18 24 35q-1 0 -5 3q-1 0 -5 2q-1 0 -5 3q-22 13 -45 25zM749 -24q78 -63 125 -116q6 -7 14 -16q12 13 21 19q3 3 9 6
q-15 18 -40 40l-97 88z" />
  </g>

</svg>
