<?xml version="1.0" standalone="no"?>
<!DOCTYPE svg PUBLIC "-//W3C//DTD SVG 1.1//EN" "http://www.w3.org/Graphics/SVG/1.1/DTD/svg11.dtd" >
<svg xmlns="http://www.w3.org/2000/svg" xmlns:xlink="http://www.w3.org/1999/xlink" version="1.1" viewBox="-10 0 1034 1024">
  <g transform="matrix(1 0 0 -1 0 820)">
   <path fill="currentColor"
d="M738 750q-22 4 -36 8q-3 1 -26 8q-19 -157 -95 -275q-79 -108 -135 -125q24 -13 50 -32q84 87 128 158q43 70 77 182q34 -81 79 -149q7 -12 65 -88q18 -21 85 -88l3 -2q10 6 48 33q-27 12 -46 26q-45 36 -84 87q-72 93 -131 232q9 13 18 25zM894 227l-56 -4l-285 1
q-18 1 -29 4v-47q9 4 25 5l291 1q-42 -103 -113 -214q-51 -75 -94 -110q21 -10 43 -29q70 91 118 171q46 81 110 223q-6 0 -10 -1zM709 401q-6 10 -15 22q-7 -4 -14 -9q-9 -6 -23 -15q64 -73 90 -134q15 10 25 19q6 3 15 9zM57 -95q24 -9 38 -18q18 33 31 65q25 66 49 95
q-25 6 -51 17q-9 -40 -29 -91q-18 -37 -38 -68zM222 525l-17 55l-9 27q-12 -6 -38 -10q22 -55 35 -120q15 6 21 8l19 4q-6 18 -11 36zM315 500q13 -4 35 -21l37 70q12 19 31 39q-21 9 -41 24q-3 -9 -39 -80q-3 -3 -5 -8q-6 -9 -18 -24zM257 266v-105q-168 -9 -187 -13
q-4 1 -7 0q4 -25 8 -51q42 15 91 19q279 27 298 27q7 0 20 -2l-1 51q-42 -10 -91 -17l-94 -10v101h100q43 0 64 -6v47q-3 0 -6 -1q-4 0 -8 -2l-97 -2h-53v91l140 -1l40 -4q-3 28 -5 58l1 226l4 45q-90 -4 -92 -5l-246 1q-15 3 -40 4q1 -30 5 -63l-1 -227q-3 -12 -4 -39
q45 4 70 5h91v-91h-84q-45 0 -65 5v-47q9 4 24 5zM138 429v247h119v-247h-119zM294 429v247h137v-247h-137zM223 52h-22q15 -34 22 -76q3 -30 4 -52q0 -6 -1 -11q15 3 25 3t19 -1l-24 137h-23zM383 -29q-9 31 -23 63q-6 18 -15 41q-16 -6 -38 -10q12 -25 30 -73
q9 -30 16 -60q18 12 39 16q-4 12 -9 23zM459 92q-24 -9 -30 -12q-4 -1 -8 -3q27 -45 52 -120l22 14q4 3 16 6q-3 4 -7 15z" />
  </g>

</svg>
