<?xml version="1.0" standalone="no"?>
<!DOCTYPE svg PUBLIC "-//W3C//DTD SVG 1.1//EN" "http://www.w3.org/Graphics/SVG/1.1/DTD/svg11.dtd" >
<svg xmlns="http://www.w3.org/2000/svg" xmlns:xlink="http://www.w3.org/1999/xlink" version="1.1" viewBox="-10 0 1034 1024">
  <g transform="matrix(1 0 0 -1 0 820)">
   <path fill="currentColor"
d="M111 -60q27 69 40 93q3 12 27 40q-25 7 -49 20q-22 -84 -73 -172q16 -6 40 -21zM180 598q27 -36 55 -116q18 15 26 18q4 0 11 4l-10 19q-12 22 -22 45l-11 21q-4 10 -12 25q-15 -7 -37 -16zM392 513q42 69 49 77q3 6 12 13q-18 10 -29 17q-4 3 -11 7q-27 -69 -66 -116
l16 -7q6 -4 17 -13q6 12 12 22zM291 292l-1 -107l-139 -12q-36 0 -73 -3q6 -27 10 -53q36 15 91 19l292 31q28 1 41 3q15 0 29 -2q-1 15 -2 51q-42 -10 -92 -18l-119 -13v104h115q45 0 64 -7v48q-4 0 -7 -1q-3 0 -6 -2l-151 -3h-15v81l140 -1l42 -4q-6 54 -6 59l1 210
q1 22 5 46q-28 -1 -57 -5l-296 1q-15 3 -40 4l6 -63l-1 -209q-4 -31 -5 -43q46 4 96 5h78v-81h-102q-42 0 -64 6v-48q9 6 59 7h107zM159 444v233h132v-233h-132zM328 444v233h138v-233h-138zM885 418q42 0 63 -6v47q-4 0 -7 -1q-3 0 -6 -2l-95 -2h-123l1 265q6 39 10 43
q0 1 3 4h-57q4 -19 5 -63v-249h-75q-46 0 -65 5v-47q9 4 24 5l116 1q-9 -297 -150 -452q-39 -45 -66 -67q-22 -16 -51 -27l52 -32q58 57 96 100q33 39 59 81q61 105 87 268q34 -145 84 -240q15 -36 60 -91q42 -54 89 -100q12 9 19 16q12 9 31 22q-45 19 -91 69
q-79 87 -122 209q-45 133 -59 244h168zM776 683q19 -27 47 -78q25 -52 34 -80q21 15 25 16q3 3 16 8q-15 27 -37 70q-24 45 -46 82q-18 -10 -39 -18zM235 -54v-2l43 1q0 13 -4 30q-3 21 -4 42l-7 49q0 10 -2 19q-22 -6 -38 -6q3 -18 5 -36q3 -33 5 -54q1 -15 2 -43zM364 104
q-18 -7 -39 -13q19 -34 44 -133q21 12 41 16q-3 3 -3 7q-3 6 -27 81q-6 18 -16 42zM500 79q-3 12 -22 48q-15 -7 -38 -14q27 -43 53 -121q1 1 6 5q10 9 31 15q-6 9 -30 67v0z" />
  </g>

</svg>
