<?xml version="1.0" standalone="no"?>
<!DOCTYPE svg PUBLIC "-//W3C//DTD SVG 1.1//EN" "http://www.w3.org/Graphics/SVG/1.1/DTD/svg11.dtd" >
<svg xmlns="http://www.w3.org/2000/svg" xmlns:xlink="http://www.w3.org/1999/xlink" version="1.1" viewBox="-10 0 1010 1000">
   <path fill="currentColor"
d="M665 -4q78 2 121 14q1 1 -4 9q-17 23 -22 47q-6 28 -9 127l-3 69h93q36 0 109 -8v88q-43 -8 -111 -8h-73q37 359 208 460q-54 41 -81 83q-150 -143 -159 -424q-31 300 -182 446q-45 -49 -100 -51v-1q-1 -3 1 -3q2 7 75 -54l-56 12q-10 -65 -34 -119l66 -10q20 37 38 99
q126 -142 129 -440h-18q-38 1 -95 8v-86q58 10 93 10h24q0 -176 -10 -268zM81 28q55 8 84 8h295q38 0 78 -8q-7 29 -8 78v204q0 15 6 62q2 13 2 17q-31 -4 -90 -4h-109v70h105h10q70 1 84 -6v71q-42 -8 -92 -8h-107v68q18 -2 54 -7q113 -13 163 -23v69q-283 23 -487 58
l-17 -79q63 1 226 -12v-74h-117q-34 0 -90 8v-73q45 8 90 8h117v-70h-113q-35 0 -82 6q6 -32 6 -69v-212q0 -37 -8 -82zM869 64q16 28 46 131l-86 28q-15 -86 -43 -137zM155 96v232h123v-232h-123zM339 96v232h123v-232h-123zM389 147q37 5 67 20q-20 28 -45 117
q-23 -16 -56 -16q18 -39 32 -111q1 -7 2 -10zM224 151q11 18 41 105q2 7 3 10l-64 16q-11 -69 -31 -119zM387 685q18 53 36 125l-74 10q-4 -61 -26 -127zM93 695q30 0 78 6q-17 42 -34 170q-40 -10 -78 -8h-3q28 -54 37 -168zM268 695q17 53 26 133l-70 8q-4 -87 -22 -137z
" />
</svg>
