<?xml version="1.0" standalone="no"?>
<!DOCTYPE svg PUBLIC "-//W3C//DTD SVG 1.1//EN" "http://www.w3.org/Graphics/SVG/1.1/DTD/svg11.dtd" >
<svg xmlns="http://www.w3.org/2000/svg" xmlns:xlink="http://www.w3.org/1999/xlink" version="1.1" viewBox="-10 0 1010 1000">
   <path fill="currentColor"
d="M671 -8q110 17 111 28q0 7 -10 14q-8 6 -10 10q63 193 214 310q-30 31 -45 77q-146 -123 -203 -337q-46 155 -141 333q-17 -31 -63 -62q119 -162 147 -373zM524 48q-10 36 -10 131v111q0 54 2 80q2 27 8 49q-49 -8 -133 -8h-56v64h48q71 1 109 -8v79q-51 -8 -109 -8h-48
v60q134 -11 191 -22v73q-258 17 -447 42l-17 -83q95 0 206 -6v-64h-54q-71 0 -123 8v-79q2 0 6 1q48 7 119 7h52v-64h-60q-93 -1 -129 8q1 -5 2 -13q6 -46 6 -118v-95q0 -85 -8 -145q27 5 53 6q26 2 78 2h175q88 0 139 -8zM446 117h-111v151q36 -52 48 -105l63 16v-62z
M268 119h-113v229h113v-64l-60 18q-16 -65 -41 -109l55 -18q22 33 46 87v-143zM446 203q-24 3 -63 111l-48 -20v54h111v-145zM752 316q24 73 26 129l-70 8q-1 -58 -29 -129zM571 502q26 5 45 6q20 2 57 2h148q50 0 96 -5q14 -2 23 -3q-115 222 -220 401q-39 -29 -77 -45
q102 -143 170 -280h-138q-47 0 -67 1q-23 1 -37 3v-80zM488 661q48 85 68 141l-74 26q-13 -66 -55 -143zM385 685q23 57 40 151l-74 12q-2 -82 -32 -145zM103 695l78 26q-13 24 -53 142q-7 23 -11 34q-39 -20 -75 -24q45 -88 61 -178zM270 703q20 84 24 157l-74 5
q8 -60 -14 -152z" />
</svg>
