<?xml version="1.0" standalone="no"?>
<!DOCTYPE svg PUBLIC "-//W3C//DTD SVG 1.1//EN" "http://www.w3.org/Graphics/SVG/1.1/DTD/svg11.dtd" >
<svg xmlns="http://www.w3.org/2000/svg" xmlns:xlink="http://www.w3.org/1999/xlink" version="1.1" viewBox="-10 0 1034 1024">
  <g transform="matrix(1 0 0 -1 0 820)">
   <path fill="currentColor"
d="M460 347q25 6 47 8l68 5q-21 -54 -42 -101q-19 -42 -37 -74q-31 -52 -63 -65l23 -44q39 13 74 19q13 1 116 19q6 -12 12 -25q6 3 36 22q-6 15 -11 21q-9 18 -16 35l-41 80q-7 -6 -18 -10q-13 -3 -18 -8q25 -42 43 -83l-61 -8q-24 -3 -64 -6q10 24 22 46q91 207 121 266
q12 24 30 39q-27 12 -52 25q-22 -69 -41 -112l-104 -6q24 49 47 104l56 136q13 34 21 46q4 9 24 30q-24 6 -44 17q-3 0 -12 5q-3 -24 -14 -58q-10 -34 -33 -92q-18 -48 -34 -84q-12 -30 -24 -53q-18 -36 -35 -51zM804 481h104l-8 -110l-18 -302q-3 -112 -29 -137
q-24 -21 -80 -22q-12 0 -35 2q12 -28 16 -55q70 12 101 28q30 15 45 46q9 21 14 46q3 31 5 88q1 25 3 62l7 105q12 183 18 235q3 22 8 55q-60 -4 -72 -5h-78l6 120q1 46 7 67q3 18 16 43q-28 0 -60 4q1 -42 0 -125q0 -3 -4 -109h-11q-36 0 -59 5v-47q12 6 50 6h17l-11 -157
q-6 -51 -15 -99q-30 -144 -141 -268q-60 -63 -108 -79q24 -15 52 -36q135 129 186 231q49 105 65 280q6 111 9 128zM62 -100q30 -9 42 -15l31 119q12 42 27 66q-24 3 -49 9q-3 -25 -8 -45q-3 -21 -14 -58q-10 -36 -29 -76zM197 607q-16 -7 -35 -13q22 -39 39 -106
q18 10 35 15l-6 18l-16 42q-3 9 -17 44zM300 506q15 -4 31 -18q3 7 7 15q18 45 26 57q3 9 23 31q-24 12 -41 22q-16 -60 -46 -107zM252 198q-126 -9 -146 -10q-9 0 -19 1q9 -22 15 -59q63 18 151 32q36 4 63 10l45 7l68 8q3 28 14 47q-67 -15 -154 -30v86h71q45 0 63 -7v48
q-3 0 -6 -1l-6 -3l-122 -2v86l104 -1q9 0 45 -5l-3 28q-3 22 -3 67l1 160q1 22 5 46q-28 -1 -57 -5l-240 1q-15 3 -40 4q1 -30 5 -63l-1 -199q-3 -12 -4 -39q12 1 30 2q33 3 52 4h69v-86l-125 2q-4 1 -6 2q-4 0 -11 2v-48q13 6 61 7h81v-92zM143 446v219h109v-219h-109z
M289 446v219h105v-219h-105zM232 74q-18 -3 -40 -5q6 -24 7 -34q6 -52 8 -61q3 -24 3 -48q19 1 41 3q-15 100 -17 123q0 10 -2 22zM313 90q-15 -4 -37 -9q13 -48 22 -110q1 -9 4 -32q19 7 42 10l-6 26l-12 56zM412 -39q9 3 14 6q6 0 18 4l-53 145q-18 -6 -38 -11
q34 -72 50 -148q4 3 9 4v0z" />
  </g>

</svg>
