<?xml version="1.0" standalone="no"?>
<!DOCTYPE svg PUBLIC "-//W3C//DTD SVG 1.1//EN" "http://www.w3.org/Graphics/SVG/1.1/DTD/svg11.dtd" >
<svg xmlns="http://www.w3.org/2000/svg" xmlns:xlink="http://www.w3.org/1999/xlink" version="1.1" viewBox="-10 0 1010 1000">
   <path fill="currentColor"
d="M736 14q99 8 105 16l-4 4q-21 15 -24 38q-1 12 -3 40q-4 58 -8 91h61q35 -1 72 -8q-6 84 -15 326q-8 186 -11 231q-2 97 -161 117q-1 -51 -44 -95q120 20 127 -39q21 -110 32 -471h-65q-12 298 -46 395q-62 139 -179 232q-35 -35 -91 -49q137 -57 203 -193l-24 6l-2 -12
q-63 24 -93 36q-62 23 -58 25q-3 1 -8 5l-42 -68q61 -42 135 -244q-52 2 -91 18l-24 -55q0 27 6 69q-56 -6 -69 -6h-109v60h55q51 0 97 -8v73q-59 -9 -95 -8h-57v68q32 -5 119 -23q20 -5 31 -7q-16 25 -19 67q-17 2 -53 6q-228 25 -313 54q-6 -46 -20 -81q-2 -4 -3 -7
q74 7 202 -4v-71h-67q-64 0 -100 6v-71q60 8 96 8h71v-62h-103q-30 0 -70 6q0 -4 2 -14q4 -42 4 -57v-227q0 -9 -4 -42q-3 -21 -4 -33q43 6 78 6h246q31 0 85 -6q-5 30 -6 75v197q58 -42 97 -286q73 20 84 32q-1 2 -7 7q-20 15 -25 31q-42 123 -84 225q-3 9 -5 13l71 -2
q23 -85 20 -119l46 17v-49q1 0 31 3q18 2 30 3v-189zM250 123h-101v240h101v-240zM306 123v240h107v-240h-107zM206 187q6 23 16 65q12 43 16 62l-48 12q-12 -90 -33 -129zM736 262l-30 8q-16 16 -59 124q-70 170 -111 243l105 -31q-7 -25 -32 -60l58 -14q21 51 33 76
q23 -100 36 -346zM464 691q12 48 36 109l-62 16q-5 -43 -29 -117zM355 697q20 77 28 129l-62 10q-1 -73 -21 -129zM252 711q0 3 1 10q6 75 13 117l-64 10q4 -86 -8 -135zM93 713l64 12q-8 26 -21 70q-14 49 -19 65l-67 -12q30 -51 43 -135zM312 312q22 -65 39 -129l54 18
q-30 65 -48 131z" />
</svg>
