<?xml version="1.0" standalone="no"?>
<!DOCTYPE svg PUBLIC "-//W3C//DTD SVG 1.1//EN" "http://www.w3.org/Graphics/SVG/1.1/DTD/svg11.dtd" >
<svg xmlns="http://www.w3.org/2000/svg" xmlns:xlink="http://www.w3.org/1999/xlink" version="1.1" viewBox="-10 0 1010 1000">
   <path fill="currentColor"
d="M716 -21q32 45 48 83l-72 24q-21 -46 -51 -78zM256 -12q81 37 85 50q-1 3 -7 5q-13 4 -24 13q-39 28 -42 34v115q0 57 6 87h-80q4 -33 4 -79v-54q-33 33 -105 89q-2 -2 -5 -6q-26 -32 -62 -53q121 -49 230 -201zM456 -4h44q50 -1 48 2q1 2 3 16q11 67 32 99
q221 -33 280 -52l12 -3l18 83q-96 5 -260 34q69 64 151 83q56 6 67 -87q29 43 78 62q-33 104 -110 103q-3 24 -4 73v64q-1 49 4 67q-23 -4 -77 -4h-222v56h250q57 0 105 -6v67q-30 -6 -99 -6h-256v60h315q50 0 86 -6v67q-27 -6 -88 -6h-16q41 38 102 105l-72 48
q-27 -45 -103 -119l48 -34h-403h-218q-75 0 -102 10v-75q45 9 108 10h273v-60h-212q-59 0 -101 6v-67q27 6 93 6h220v-58h-226q-52 -1 -67 4q6 -33 6 -63v-94q0 -38 -4 -71q36 6 119 6h367q58 0 81 -6q-98 -39 -176 -123q-229 35 -237 42l-13 -82q7 7 210 -24
q-26 -53 -54 -127zM232 369v112h218v-112h-218zM520 369v114h226v-114h-226zM349 379q23 28 46 70l-66 22q-12 -30 -43 -64zM623 381l69 24q-34 35 -49 66l-58 -24q10 -19 31 -54q5 -8 7 -12zM163 772q32 13 73 38q-47 38 -93 107q-21 -16 -78 -32q63 -51 98 -113zM617 778
q22 44 40 109l-76 12q-12 -70 -33 -105zM407 786q22 72 28 105l-70 14q-10 -57 -30 -105z" />
</svg>
