<?xml version="1.0" standalone="no"?>
<!DOCTYPE svg PUBLIC "-//W3C//DTD SVG 1.1//EN" "http://www.w3.org/Graphics/SVG/1.1/DTD/svg11.dtd" >
<svg xmlns="http://www.w3.org/2000/svg" xmlns:xlink="http://www.w3.org/1999/xlink" version="1.1" viewBox="-10 0 1034 1024">
  <g transform="matrix(1 0 0 -1 0 820)">
   <path fill="currentColor"
d="M85 -114q9 -3 16 -7l33 77q7 24 17 46q1 3 3 6q6 12 22 22q-31 12 -49 23q-9 -40 -27 -85q-21 -46 -44 -73q6 0 29 -9zM284 -88l-19 76q-9 36 -17 64q-21 -6 -37 -8q22 -66 37 -142q18 6 36 10zM348 64q-18 -6 -35 -7q18 -51 28 -128q19 6 36 7q-3 24 -14 61zM474 29
q-6 15 -12 29q-6 13 -16 31l-26 -14q-3 -1 -7 -3q39 -58 53 -132l38 15q-1 3 -30 74zM708 589l-157 1q-12 3 -18 3v-46q3 1 6 1q7 3 33 4l136 1v-169q-129 0 -143 3q-3 1 -11 2v-47q3 0 6 1q7 3 33 4l268 1q39 0 56 -5q3 0 6 -1v47q-15 -3 -28 -4l-149 -1v169l174 -1
q24 0 30 -3q6 0 9 -2v46l-114 -4h-99v123q0 6 2 24q1 19 12 36h-57q4 -30 5 -60v-123zM575 -105q0 -39 -6 -56h48q-6 33 -6 80v21h250q0 -55 -3 -78l-3 -12h49q0 6 -2 12q-3 7 -4 36l1 295q1 22 5 45q-33 -6 -57 -6l-240 1q-7 1 -38 5q6 -57 6 -77v-266zM611 -24v220h250
v-220h-250zM198 607q-15 -9 -32 -15q40 -75 52 -116q21 12 34 18q-13 27 -28 60q-13 30 -26 53zM343 478q18 -7 35 -15q1 3 3 7q0 3 4 8l36 80q6 10 19 22q-34 15 -46 22q-4 -24 -21 -61q-13 -34 -30 -63zM282 163l-106 -5q-55 0 -93 3q4 -12 8 -22q3 -12 7 -34q60 12 77 13
l83 9l244 22q3 24 16 51q-55 -21 -198 -33v82q145 0 154 -3l20 -4v48q-9 0 -14 -4l-94 -2h-66v93l128 -1q15 0 44 -4q-6 27 -7 50l1 234q0 3 6 45q-24 0 -53 -5h-291q-24 4 -43 5q1 -30 5 -60l-1 -228q-3 -12 -4 -41q46 4 90 5h87v-93l-141 1q-10 3 -20 5v-48q3 0 7 1
q9 4 24 5l130 1v-86zM147 413v247h135v-247h-135zM320 413v247h126v-247h-126z" />
  </g>

</svg>
