<?xml version="1.0" standalone="no"?>
<!DOCTYPE svg PUBLIC "-//W3C//DTD SVG 1.1//EN" "http://www.w3.org/Graphics/SVG/1.1/DTD/svg11.dtd" >
<svg xmlns="http://www.w3.org/2000/svg" xmlns:xlink="http://www.w3.org/1999/xlink" version="1.1" viewBox="-10 0 1034 1024">
  <g transform="matrix(1 0 0 -1 0 820)">
   <path fill="currentColor"
d="M33 -128q30 -3 55 -12q22 42 43 87q21 51 31 69q9 13 23 26q-24 7 -51 21q-10 -40 -48 -120q-21 -40 -53 -71zM256 -85q9 1 23 4q-10 72 -25 138q-22 -6 -43 -9q21 -54 26 -136zM398 -43q-18 40 -22 62q-7 18 -19 51q-13 -6 -38 -12q3 -12 6 -20q3 -6 6 -16q6 -22 17 -52
q3 -12 12 -32q6 3 10 6q9 3 28 13zM468 8q4 4 17 11q12 7 10 6l1 1q-7 12 -14 22q-3 6 -8 12q-6 12 -15 26l-5 10q-3 6 -6 10q-12 -7 -33 -18q24 -49 50 -83zM426 -77q34 -12 56 -25q18 19 37 49q48 72 72 114q15 28 44 42q-22 6 -61 29q-18 -54 -61 -123q-40 -58 -87 -86z
M516 582q37 4 68 5h303q24 0 49 -3q1 0 18 -2v46q-7 0 -67 -5l-338 1q-19 1 -33 4v-46zM557 202q66 6 86 6h55v-307q0 -15 -11 -27q-9 -6 -29 -6q-24 0 -68 5q13 -22 25 -53q72 4 96 19t24 56v313l109 -1q15 0 50 -5q-4 52 -5 102l1 125l4 47q-60 -4 -66 -5l-225 1
q-19 3 -46 4q1 -31 5 -65q0 -141 -2 -171q-3 -3 -3 -38zM850 242h-251v193h251v-193zM748 627q9 10 21 19q7 3 15 11q-72 91 -107 125q-18 -18 -37 -31q6 -3 46 -44q15 -16 30 -35q12 -15 32 -45zM830 126q-10 -10 -16 -14q-7 -6 -25 -17q72 -54 138 -183q19 18 43 31
q-33 49 -73 102q-39 51 -67 81zM191 616q-1 -1 -14 -8q-3 0 -12 -5q30 -43 46 -123q24 12 39 15q0 3 -23 70q-6 18 -27 56q-4 -1 -9 -5zM403 565q9 22 28 40q-13 3 -49 18q-18 -87 -61 -125q16 -1 45 -13q12 21 21 40q7 21 16 40zM273 178q-99 -9 -196 -12q9 -19 16 -59
q9 1 15 4q13 4 28 7l53 10l192 28l94 11q4 27 23 49q-39 -9 -74 -16l-114 -16v81h97q45 0 64 -6v47q-3 0 -6 -1q-3 0 -6 -2l-149 -2v91l140 -1q13 0 42 -4q-6 54 -6 58l1 230q1 22 5 46l-96 -5l-258 1q-15 3 -40 4q1 -30 5 -62l-1 -233q-3 -15 -4 -39q45 4 64 5h111v-91
l-141 2q-6 3 -15 3v-47q12 6 50 6h106v-87zM139 427v254h133v-254h-133zM310 427v254h138v-254h-138z" />
  </g>

</svg>
