<?xml version="1.0" standalone="no"?>
<!DOCTYPE svg PUBLIC "-//W3C//DTD SVG 1.1//EN" "http://www.w3.org/Graphics/SVG/1.1/DTD/svg11.dtd" >
<svg xmlns="http://www.w3.org/2000/svg" xmlns:xlink="http://www.w3.org/1999/xlink" version="1.1" viewBox="-10 0 1034 1024">
  <g transform="matrix(1 0 0 -1 0 820)">
   <path fill="currentColor"
d="M299 478q0 -39 -5 -55h44q-4 19 -5 55v76q81 -57 112 -83q9 15 21 32l-133 83l101 -1q22 -1 47 -5v39q-12 0 -26 -3q-36 -3 -93 -3h-29v83q1 0 59 10q54 9 80 9h12q-21 25 -32 40q-39 -10 -106 -24q-4 0 -6 -1q-21 -3 -45 -6l-101 -8q-57 6 -64 8q-1 1 -2 1
q10 -24 23 -50q55 4 148 17v-79q-168 0 -185 3q-6 3 -13 3v-39q3 1 6 1q6 3 38 3l129 1q-99 -96 -183 -119q21 -18 42 -34q76 48 166 140v-94zM688 650q-28 -75 -73 -127q-57 -61 -132 -79q27 -12 53 -30l66 51q18 16 39 38q27 30 47 63q18 30 39 84h134q-4 -39 -9 -83
q-6 -63 -22 -82q-13 -13 -53 -14h-14q-15 0 -37 5q12 -19 18 -52q64 6 96 19q21 10 32 33q7 21 16 83l6 67q3 25 11 61q-49 -4 -55 -5h-238q12 27 20 39q13 19 34 29l-57 23q-18 -69 -54 -125q-37 -54 -81 -87q3 0 19 -5q13 -3 18 -5q6 -1 13 -4q28 37 74 103h90zM488 -120
q6 3 14 9q-33 45 -38 55q-21 31 -38 50l-3 -2q-3 -4 -16 -12q-1 0 -11 -7q21 -24 41 -53q7 -9 16 -25l18 -31q1 0 17 16zM632 -3q-27 -16 -33 -20q19 -30 37 -59q15 -27 26 -50q3 1 10 6q12 7 25 11l-33 59q-19 36 -32 53zM782 4q-4 -9 -25 -30q66 -42 140 -105q12 18 26 31
q-18 15 -36 28l-94 68q-6 4 -11 8zM448 273l-21 14q-9 4 -30 17l-60 35q-12 -18 -26 -31q60 -21 117 -65q1 4 7 11q6 12 8 13q1 3 5 6zM649 261q19 15 40 35q13 9 34 16l-29 42q-15 -21 -26 -33q-15 -15 -37 -32q-12 -9 -27 -19q15 -9 29 -22q7 7 16 13zM497 45l-395 1
q-7 3 -17 4v-46q1 1 5 1q7 3 36 4l763 1q39 0 57 -5q1 0 4 -1v46q-9 -1 -15 -3l-224 -2h-177v54l288 -1q18 -1 16 -2q4 0 8 -1q3 0 6 -1v45q-30 -1 -60 -5h-258v64l248 -1l42 -4q-6 54 -6 81q0 75 2 83l4 37q-28 -1 -57 -5l-526 1q-19 3 -39 4q6 -54 6 -73q0 -73 -2 -98
q-3 -15 -4 -30q27 3 57 5h238v-64l-297 1q-7 3 -17 4v-45q1 1 5 1l2 1q6 0 10 1q12 0 40 2h257v-54zM497 230h-254v127h254v-127zM534 230v127h248v-127h-248zM160 -142q42 27 88 62q10 10 22 19q10 9 18 13q9 9 31 10q-19 18 -40 41q-21 -30 -68 -66q-48 -33 -87 -46
q9 -6 17 -15q9 -9 19 -18v0z" />
  </g>

</svg>
