<?xml version="1.0" standalone="no"?>
<!DOCTYPE svg PUBLIC "-//W3C//DTD SVG 1.1//EN" "http://www.w3.org/Graphics/SVG/1.1/DTD/svg11.dtd" >
<svg xmlns="http://www.w3.org/2000/svg" xmlns:xlink="http://www.w3.org/1999/xlink" version="1.1" viewBox="-10 0 1010 1000">
   <path fill="currentColor"
d="M665 -13q89 1 93 13q0 2 -3 5q-15 14 -15 63v40h117q47 0 81 -6v69q-23 -4 -77 -4h-121v85h139q42 -1 83 -4q-6 21 -17 61q-26 98 -38 136q-41 -21 -76 -26q43 -83 48 -109h-264q-53 0 -72 1q-24 1 -37 3v-70q30 6 99 6h68v-85h-74q-61 -1 -71 4v-69q27 6 79 6h66v-44
q0 -41 -8 -75zM474 38q-5 27 -6 47q-2 21 -2 72v121q-1 80 8 129q-2 0 -6 -1q-52 -7 -125 -7h-47v64h37q63 0 102 -6v71l-102 -6h-37v60q88 -8 180 -22v67q-164 10 -407 44l-13 -77q63 0 184 -8v-64h-38q-83 -1 -119 8v-75q51 8 117 8h40v-64h-61q-88 -1 -119 8q1 -7 2 -20
q7 -48 7 -109v-131q0 -61 -7 -109l30 3q48 5 102 5h153q87 0 127 -8zM399 110h-103v226h103v-226zM240 110h-103v226h103v-226zM339 151l50 12q-17 72 -40 135l-47 -14q2 -6 5 -17q27 -84 32 -116zM188 157q27 55 44 127l-47 14q-26 -91 -42 -123zM587 330q61 41 94 75
l-48 48q-32 -40 -89 -78zM704 350q98 6 100 17q0 3 -4 8q-15 21 -18 68q-1 10 -2 38q-4 72 -8 132h83q54 0 85 -5v73q-25 -8 -91 -8h-87q-42 143 -276 238q-27 -45 -73 -77q206 -30 274 -163h-110q-40 0 -53 1q-18 1 -26 3v-71q41 8 101 8h103q8 -103 8 -150t-6 -112z
M546 449q69 51 95 85l-46 46q-44 -51 -95 -84zM444 667q37 62 62 125l-66 26q-21 -75 -59 -131zM343 681q12 24 44 131l-68 14q-9 -64 -39 -129zM87 683q48 6 72 16q-24 40 -68 180q-3 -1 -10 -3q-38 -14 -59 -16q48 -83 65 -177zM238 695q13 45 24 135l-68 6
q1 -58 -19 -137zM792 713q44 26 160 125l-59 63q-49 -75 -147 -137z" />
</svg>
