<?xml version="1.0" standalone="no"?>
<!DOCTYPE svg PUBLIC "-//W3C//DTD SVG 1.1//EN" "http://www.w3.org/Graphics/SVG/1.1/DTD/svg11.dtd" >
<svg xmlns="http://www.w3.org/2000/svg" xmlns:xlink="http://www.w3.org/1999/xlink" version="1.1" viewBox="-10 0 1010 1000">
   <path fill="currentColor"
d="M544 -6q16 1 45 1q54 0 54 5q1 2 -2 9q-15 28 -16 71v145h167q105 -1 158 -10v85q-40 -8 -160 -8h-250v161h117q131 -2 200 -10q-5 59 -6 153v186q3 71 -22 86q-16 18 -129 35q-4 -43 -41 -95q121 19 111 -48v-240h-230v222q0 71 1 98q2 34 7 55h-98q13 -43 12 -158v-217
h-220v230q0 120 6 149h-93q6 -35 6 -155v-134q0 -101 -8 -163q74 5 162 6h147v-161h-256q-39 -2 -92 1q-48 2 -68 7v-85q55 8 158 10h165v-129q0 -61 -8 -96q92 -5 93 2q1 3 -1 12q-10 31 -9 74v137h106v-139v-17q1 -53 -6 -75zM772 32q69 38 77 50l-2 1q-21 14 -32 27
q-6 8 -19 25q-40 55 -52 66q-22 -14 -61 -28q57 -74 89 -141zM216 40q58 70 94 121l-72 38q-27 -56 -91 -119zM282 308q70 55 99 95l-56 44q-54 -65 -105 -93zM702 312q75 34 74 42q-2 1 -24 17q-14 10 -16 12q-35 30 -63 60q-33 -24 -58 -30q71 -68 87 -101zM349 596
q81 22 80 27q-4 7 -11 14q-10 8 -15 18q-24 44 -54 115l-63 -30q52 -85 63 -144zM647 598q49 56 85 107l-59 45q-17 -29 -88 -113z" />
</svg>
