<?xml version="1.0" standalone="no"?>
<!DOCTYPE svg PUBLIC "-//W3C//DTD SVG 1.1//EN" "http://www.w3.org/Graphics/SVG/1.1/DTD/svg11.dtd" >
<svg xmlns="http://www.w3.org/2000/svg" xmlns:xlink="http://www.w3.org/1999/xlink" version="1.1" viewBox="-10 0 1034 1024">
  <g transform="matrix(1 0 0 -1 0 820)">
   <path fill="currentColor"
d="M238 542l-144 2q-3 1 -14 2v-45h6q7 3 36 4l171 1v-176l-133 1q-6 1 -35 4q1 -27 5 -54l-1 -386q-1 -15 -4 -25h45q-4 39 -5 45v379h127v-327q0 -39 -5 -57h47q-4 24 -5 57v327h124v-331q0 -24 -6 -32q-4 -6 -22 -9q-12 -1 -21 -2q-18 0 -40 4q13 -43 14 -50q52 6 71 12
q39 10 40 57v12q21 -6 39 -16q27 51 57 118q18 43 34 91q18 55 42 145q19 -63 36 -103l20 -45l33 -65q-51 -67 -117 -126q-49 -39 -83 -52q9 -6 17 -12q19 -15 23 -18q27 21 69 58l49 48q27 27 62 69q30 -39 79 -94l73 -72q18 19 39 34q-10 6 -34 22l-47 39q-42 39 -89 104
q33 63 57 132q21 66 46 175q-18 -1 -25 -2q-21 -3 -29 -3h-164l19 138l218 -1q19 0 40 -3l2 -1v46q-34 -4 -61 -5h-194q3 66 8 97q1 33 5 65q0 24 4 32q4 19 19 33q-40 3 -67 10q4 -28 5 -57q-1 -75 -11 -180q-102 0 -115 3q-3 1 -11 2v-46q1 1 5 1q1 1 12 2l80 2h26
q-12 -105 -27 -187q-15 -75 -37 -148q-49 -154 -107 -221l1 334q1 18 5 37q-55 -4 -82 -5h-84v176l146 -1q27 0 33 -3l2 -1h6v45q-6 0 -11 -2l-115 -2q0 195 3 204q1 12 10 27h-55q1 -34 5 -71v-160h-80q0 196 3 202q1 13 12 29h-55q0 -7 3 -13q0 -22 2 -47v-171zM671 346
h178q-27 -126 -79 -229q-21 40 -41 81q-27 64 -27 100q0 10 1 20q-21 -9 -41 -15zM201 600q6 3 13 11q-25 39 -81 105q-4 -6 -10 -12q-3 0 -19 -15q51 -55 80 -107q3 3 10 11q3 4 7 7zM137 456q48 -45 86 -101q21 25 28 30q-10 13 -30 36l-55 60q-16 -16 -29 -25zM180 23
l43 -6q15 54 29 128q3 16 5 29q1 6 3 13q1 10 14 28q-25 4 -49 12q-3 -52 -11 -101q-13 -63 -34 -103zM442 52q-3 6 -5 11q-34 94 -63 160q-18 -13 -34 -21q36 -75 68 -176q6 4 11 8q6 1 11 5q7 3 14 8q-1 3 -2 5zM373 374q7 -6 29 -28l60 78q9 10 33 19q-24 16 -43 38
q-33 -57 -79 -107zM413 592q22 -12 31 -21q12 25 27 52q31 55 39 62q7 7 23 14q-24 10 -51 28q-28 -63 -74 -134q1 0 5 -1zM897 632q1 0 3 3q3 3 10 13q-43 46 -112 112q-9 -15 -26 -31q48 -39 110 -116q1 6 9 13z" />
  </g>

</svg>
