<?xml version="1.0" standalone="no"?>
<!DOCTYPE svg PUBLIC "-//W3C//DTD SVG 1.1//EN" "http://www.w3.org/Graphics/SVG/1.1/DTD/svg11.dtd" >
<svg xmlns="http://www.w3.org/2000/svg" xmlns:xlink="http://www.w3.org/1999/xlink" version="1.1" viewBox="-10 0 1034 1024">
  <g transform="matrix(1 0 0 -1 0 820)">
   <path fill="currentColor"
d="M272 546v165q0 28 13 69h-54q4 -24 5 -69v-165q-135 0 -146 3q-3 1 -15 2v-44q7 3 49 5h164v-169q-105 0 -128 2q-6 3 -33 3q1 -30 5 -63l-1 -381q-3 -12 -4 -28h45q-4 39 -5 62v369h121l-3 -350q-3 -6 -3 -16h48q-6 25 -6 49v317h128v-341q0 -24 -8 -33q-4 -4 -21 -9
q-12 0 -24 -1q-18 0 -47 7q7 -21 15 -54q10 1 21 2q42 3 56 6q43 12 44 73l1 347q4 39 5 44q-51 -4 -81 -5h-89v169l186 -1q12 0 29 -4v44q-33 -1 -65 -5h-91v162q0 24 13 69h-54q4 -30 5 -69v-162h-75zM132 732q-16 -15 -30 -24q51 -57 82 -115q12 15 28 27q-18 28 -78 110
zM194 396q7 -10 18 -29q12 15 27 26q-39 58 -65 90q-13 -9 -27 -19q18 -21 21 -27zM213 35q19 73 21 76q7 27 15 57q7 34 26 51q-22 6 -47 19q0 -15 -6 -51q-4 -24 -19 -70l-27 -70zM356 207q6 -15 10 -31q1 0 25 -93q4 -22 8 -45q19 7 32 10q-15 70 -27 114q-9 33 -21 68
q-15 -6 -31 -11q1 -6 4 -12zM418 383l18 26q4 9 20 26q15 18 34 23l-47 38q-15 -49 -70 -113q18 -9 31 -20q6 10 14 20zM523 715l-31 24q-36 -79 -86 -130q15 -10 30 -25q4 6 9 12q66 93 71 95q9 9 23 14q-9 6 -16 10zM712 603q-144 0 -163 2q-12 3 -21 3v-44q7 3 50 5h135
v-97q-93 0 -115 2q-3 1 -35 4q1 -30 5 -62l-1 -489q-1 -9 -2 -34q-1 -3 -2 -13h45q-1 4 -1 7q-1 3 -4 58v186h110v-128q0 -39 -6 -58h48q-4 31 -5 58v128h109v-164q0 -9 -2 -25q-3 -10 -12 -14q-15 -6 -33 -6q-30 6 -42 6l13 -48q-1 -1 0 -4h29q39 6 54 12q30 12 30 68
l1 477q1 22 5 45q-57 -6 -83 -6h-69v97q162 0 173 -2q9 0 22 -3v44q-33 -1 -65 -5h-131v117q0 10 2 29q1 15 12 38h-56q4 -31 5 -67v-117zM603 167v116h110v-116h-110zM603 319v117h110v-117h-110zM750 167v116h109v-116h-109zM859 436v-117h-109v117h109zM783 747
q55 -40 97 -99q10 15 27 32q-15 15 -32 34q-21 21 -64 60q-12 -13 -28 -27v0z" />
  </g>

</svg>
