<?xml version="1.0" standalone="no"?>
<!DOCTYPE svg PUBLIC "-//W3C//DTD SVG 1.1//EN" "http://www.w3.org/Graphics/SVG/1.1/DTD/svg11.dtd" >
<svg xmlns="http://www.w3.org/2000/svg" xmlns:xlink="http://www.w3.org/1999/xlink" version="1.1" viewBox="-10 0 1010 1000">
   <path fill="currentColor"
d="M522 8q27 6 71 6h211q41 -1 65 -4q-6 21 -6 46v30q-1 41 4 57q-20 -4 -65 -4h-211q-59 -1 -71 4q6 -19 6 -59v-30q0 -28 -4 -46zM800 54h-211v46h211v-46zM179 169q56 6 123 6h345h105q51 -1 77 -4q-4 20 -4 66v47q0 47 4 70q-16 -5 -77 -4h-81h-407q-67 -1 -87 4
q4 -27 4 -56v-63q0 -16 -1 -42q-1 -17 -1 -24zM244 207v39h220v-39h-220zM526 207v39h236v-39h-236zM244 276v42h220v-42h-220zM601 276h-75v42h190h46v-42h-161zM54 375q53 8 87 8h288h424q51 0 82 -4v50q-42 -6 -82 -6h-145h-565q-61 0 -89 4v-52zM175 455q42 4 81 4h153
h317q42 -1 72 -4q-4 17 -4 45v30q0 23 2 44q-36 -6 -82 -6h-210v40h244q55 0 91 -6q-6 26 -6 65v64l4 65l-83 -6h-194h-56v24q-1 21 13 25q13 5 68 5h177q78 0 90 -15q18 -10 27 -85q32 42 75 52q-27 70 -50 83q-19 17 -87 16h-75h-175q-82 0 -105 -10q-24 -9 -22 -45v-50
h-27h-213q0 31 4 48h-81q0 -4 1 -11q3 -52 3 -77v-71q0 -48 -4 -77q36 6 93 6h226v-40h-194q-54 0 -75 4q0 -2 1 -7q3 -24 3 -45v-24q0 -10 -1 -26q-1 -11 -1 -15zM246 490v46h478v-46h-478zM200 639v44h242v-44h-242zM504 639v44h254v-44h-254zM442 715h-242v43h242v-43z
M504 715v43h256v-43h-256zM123 12q27 6 71 6h211q42 -1 65 -4q-6 21 -6 46v30q-1 41 4 57q-20 -5 -65 -4h-211q-59 -1 -71 4q6 -19 6 -59v-30q0 -28 -4 -46zM401 58h-211v46h211v-46z" />
</svg>
