<?xml version="1.0" standalone="no"?>
<!DOCTYPE svg PUBLIC "-//W3C//DTD SVG 1.1//EN" "http://www.w3.org/Graphics/SVG/1.1/DTD/svg11.dtd" >
<svg xmlns="http://www.w3.org/2000/svg" xmlns:xlink="http://www.w3.org/1999/xlink" version="1.1" viewBox="-10 0 1034 1024">
  <g transform="matrix(1 0 0 -1 0 820)">
   <path fill="currentColor"
d="M68 -87q9 -21 19 -48l183 28l238 27q6 18 16 43l-65 -13l-55 -7q28 48 61 55q-34 15 -52 27q-19 -37 -50 -87q-28 -4 -64 -8l-57 88q-3 0 -13 -7l-29 -14q21 -15 57 -71q-57 -7 -96 -12q-31 -3 -58 -3q-12 0 -35 2zM135 401l135 37q111 36 148 79q33 40 40 119q3 51 5 61
q0 9 12 21q-21 0 -57 8q3 -10 3 -21q0 -19 1 -39q0 -19 -7 -68q-105 -18 -150 -25q-63 -9 -96 -12q-25 -3 -55 -4q1 -1 3 -5q1 -4 4 -10q3 -12 9 -27q51 13 66 14q12 3 51 9q3 1 157 27q-13 -24 -24 -36q-33 -30 -103 -54q-45 -13 -96 -25q-51 -10 -79 -11q-10 0 -26 1
q18 -21 32 -46q13 4 27 7zM287 353q-165 0 -176 3q-3 1 -11 2v-44q3 1 6 1q6 3 39 3l142 1v-58q-120 0 -137 2q-9 0 -17 2v-43q6 3 29 3q15 0 30 2l251 -1l39 -4v43l-120 -4h-38v58l161 -3q6 0 10 -2v44l-28 -4l-143 -1q0 49 7 64q3 7 8 14h-58q6 -54 6 -78zM143 80l-6 -55
q39 4 54 5l253 -1l41 -4q-4 45 -5 88q0 21 3 44q0 12 2 22q-49 -4 -55 -5l-253 1q-15 3 -40 4q6 -51 6 -77v-22zM180 64v76h262v-76h-262zM323 667q-52 12 -108 27q-24 6 -53 12q-6 -18 -15 -34q105 -24 212 -54q4 15 14 35q-3 0 -17 5zM879 206q-19 -1 -40 -5h-114v92
l158 -1l43 -4v43l-46 -4l-155 -1q0 43 3 49q1 15 12 27h-58q1 -27 5 -56v-20l-143 1q-19 3 -24 4v-43q3 1 6 1q3 3 104 4h57v-92h-91q-39 0 -54 5q-4 1 -7 1v-45q7 4 54 6q19 -52 41 -91q18 -34 61 -86q-27 -21 -53 -37q-27 -16 -66 -35q-57 -27 -118 -38q19 -19 36 -39
q60 24 112 52q52 30 116 74q25 -18 47 -33q21 -13 44 -26q49 -24 130 -59q10 12 39 48q-51 0 -117 26q-66 27 -115 64q36 39 72 88q18 24 33 50q18 30 46 81q-9 0 -18 -1zM833 168q-24 -43 -48 -79q-27 -34 -67 -77q-39 45 -55 72q-15 24 -37 84h207zM598 667q0 4 2 23
q1 18 11 34h-56q1 -27 5 -57l1 -184q3 -27 19 -41q16 -15 72 -18q55 0 74 -2l109 6q10 3 24 6q42 9 62 40q9 16 22 53q-18 7 -52 27q1 -16 2 -29q0 -25 -14 -42q-18 -18 -72 -23q-84 -4 -93 -5q-19 3 -60 4q-24 0 -39 7q-16 10 -17 49v51q138 -36 152 -43l75 -28q6 25 15 43
q-114 30 -242 58v9q12 1 29 6q202 55 205 56q12 1 36 2l-21 16q-13 12 -26 25q-51 -27 -223 -74v31z" />
  </g>

</svg>
