<?xml version="1.0" standalone="no"?>
<!DOCTYPE svg PUBLIC "-//W3C//DTD SVG 1.1//EN" "http://www.w3.org/Graphics/SVG/1.1/DTD/svg11.dtd" >
<svg xmlns="http://www.w3.org/2000/svg" xmlns:xlink="http://www.w3.org/1999/xlink" version="1.1" viewBox="-10 0 1034 1024">
  <g transform="matrix(1 0 0 -1 0 820)">
   <path fill="currentColor"
d="M114 396q57 27 99 51q36 21 58 41q24 22 60 62v-268q0 -6 -3 -27q-3 -18 -3 -29q19 4 51 5l297 -1l39 -4q-3 27 -5 56l1 243l4 39q-27 -1 -55 -5h-321q33 63 55 111h303q-21 -46 -47 -87q15 3 50 4l203 1q-9 -37 -13 -49q-10 -34 -24 -45q-16 -12 -55 -12q-15 0 -44 5
q10 -30 12 -48q48 4 75 10q21 6 35 14q24 12 43 84l12 48q4 13 9 31q-28 -1 -58 -5h-181q12 28 22 48l23 40q-28 -1 -58 -5l-550 2q-6 3 -13 3v-44q3 1 6 1q1 1 4 1q34 1 70 3h127q-42 -139 -168 -202q-51 -24 -101 -34q15 -12 41 -38zM367 265v69h302v-69h-302zM367 367v61
h302v-61h-302zM367 462v63h302v-63h-302zM137 -150q51 30 87 65q40 48 57 122h145v-136q0 -33 -5 -53h48q-3 27 -5 53l1 242l4 39q-39 -4 -56 -5h-184v143q0 6 2 23q1 18 11 34h-56q4 -42 5 -74q0 -108 -2 -132q-1 -1 -1 -5q0 -12 -2 -28q25 3 52 5h188v-73l-310 4
q-3 0 -7 1v-43q3 0 6 1q6 3 41 3l84 1q-12 -64 -48 -102q-36 -36 -99 -52q9 -9 19 -14zM581 -99q0 -33 -5 -53h48q-3 21 -5 42v149h221v-113q0 -33 -5 -54h48q-4 19 -5 54l1 116l4 36q-49 -4 -56 -5h-208v72l195 -1l39 -4q-6 43 -5 68q0 139 3 146q1 15 12 27h-58l5 -96
v-106q-177 0 -201 2q-16 1 -33 3q1 -28 5 -58v-225z" />
  </g>

</svg>
