<?xml version="1.0" standalone="no"?>
<!DOCTYPE svg PUBLIC "-//W3C//DTD SVG 1.1//EN" "http://www.w3.org/Graphics/SVG/1.1/DTD/svg11.dtd" >
<svg xmlns="http://www.w3.org/2000/svg" xmlns:xlink="http://www.w3.org/1999/xlink" version="1.1" viewBox="-10 0 1034 1024">
  <g transform="matrix(1 0 0 -1 0 820)">
   <path fill="currentColor"
d="M139 -156q28 24 58 45q27 19 66 41q45 25 80 50q-1 21 -3 44q-25 -18 -65 -43q-43 -27 -104 -61v360q0 28 14 64h-57q1 -31 5 -64l-1 -360q-4 -21 -17 -40zM121 668q1 -15 4 -32l-1 -217q-3 -1 -6 -39q30 3 61 5l611 -1l43 -4q-3 30 -5 60l1 229l4 44q-30 -1 -59 -5
l-228 1q-18 1 -30 4v-47q6 3 11 3q21 3 55 3h208v-110h-193q-45 0 -66 5v-46q19 4 38 5h221v-105h-629v100l247 -3q3 0 11 -2v46q-9 0 -11 -2q-4 0 -7 -2l-240 -1v109q84 9 142 22l76 19q30 6 60 8q-19 24 -34 50q-43 -27 -140 -48q-48 -9 -82 -13q-21 -3 -65 -3zM284 118
q12 -7 26 -16q18 -12 43 -32q3 7 7 13q1 1 3 4q1 3 14 19q-118 75 -121 77q-6 -12 -14 -21q-3 -4 -9 -10q3 -1 4 -3q6 -3 8 -5q4 -3 10 -6zM248 293q97 -51 130 -76q6 15 20 37q-39 24 -111 62l-19 10q-3 -9 -8 -16q-3 -6 -12 -17zM485 276q0 30 15 64h-58q4 -31 5 -64v-320
q0 -37 -21 -63l25 -37q27 22 50 37l83 51q24 16 46 27q3 1 11 6q-4 18 -8 43q-57 -39 -148 -91v347zM549 134q61 -42 110 -79q9 16 20 35q-21 15 -54 36q-30 18 -56 36q-9 -15 -20 -28zM575 272q51 -33 84 -58q10 18 23 35q-13 9 -38 23l-75 46q-18 -30 -19 -32
q12 -6 25 -14zM911 26q0 -15 1 -27q0 -25 -9 -53q-12 -31 -31 -32q-36 0 -66 69q-19 40 -34 125q-12 84 -13 168q0 39 13 71q-16 0 -58 7q4 -39 12 -140q3 -69 14 -122q12 -90 47 -150q36 -70 88 -71q36 0 57 49q6 12 11 27q6 18 17 57q-18 6 -45 19q-1 1 -4 3v0z" />
  </g>

</svg>
