<?xml version="1.0" standalone="no"?>
<!DOCTYPE svg PUBLIC "-//W3C//DTD SVG 1.1//EN" "http://www.w3.org/Graphics/SVG/1.1/DTD/svg11.dtd" >
<svg xmlns="http://www.w3.org/2000/svg" xmlns:xlink="http://www.w3.org/1999/xlink" version="1.1" viewBox="-10 0 1010 1000">
   <path fill="currentColor"
d="M935 26v80q-39 -6 -102 -6h-111l-12 107h100q47 -1 83 -4q-12 78 -26 204h30q39 -1 65 -4v70q-19 -5 -77 -4h-290q-41 0 -58 1q-20 1 -33 3v-74q22 4 79 4h34l16 -133h-40q-47 -1 -71 2v-69q36 4 91 4h28l10 -109h-38q-64 -1 -85 4v-74q42 6 89 6h210q73 1 108 -8z
M810 270h-108l-14 135h108zM407 375q15 1 37 2q40 1 38 8q1 3 -2 14q-13 43 -14 97q-1 233 14 266q18 -3 32 -87q20 33 46 40v-119q0 -46 -6 -70q46 4 99 4h164q54 -1 98 -4q-6 24 -6 70v192q0 45 1 63q1 22 3 36h-76q-2 0 0 -16q4 -31 4 -53h-214q-1 49 4 69h-77
q6 -27 6 -141q-44 121 -74 127q-42 1 -58 -89q-17 -86 -17 -307v-68q-1 -22 -2 -34zM200 427q6 14 18 45q13 31 20 48l-48 14q-10 -50 -35 -95zM355 556q24 38 54 101l-46 22q-20 -67 -46 -107zM190 558q22 36 48 93l-48 18q-11 -40 -39 -93zM839 594h-172h-42v135v25h214
v-160zM405 518l-44 20q-14 -53 -46 -103l42 -12q24 42 48 95zM484 358q-22 -5 -81 -4h-256q-65 -1 -80 4q6 -45 6 -84v-139q0 -52 -6 -91q88 -10 169 -30q39 75 30 76q-3 1 -12 0q-43 -5 -113 2v75h46q35 -1 65 -4v64q-21 -4 -64 -4h-47v71h272v-69h-42q-42 0 -57 1
q-19 1 -30 3v-68q47 4 87 4h42v-69h-58q-48 -1 -69 2v-68q25 6 85 6h52q39 0 63 -6q-6 39 -6 97v159q0 47 4 72zM75 385q12 1 32 2q46 3 44 8q1 3 -2 8q-12 23 -12 74v271q1 0 2 -1q30 -20 59 -44q0 22 10 61q1 4 2 6q-85 52 -121 92q-13 -27 -39 -58q24 -20 27 -56v-263
q0 -25 -1 -65q-1 -25 -1 -35zM246 371q74 3 79 10q1 2 -2 9q-13 26 -13 63v311q15 -11 50 -40q10 -9 15 -13q2 37 16 71q-80 52 -129 101q-27 -37 -42 -55q31 -45 30 -66v-297q0 -64 -4 -94z" />
</svg>
