<?xml version="1.0" standalone="no"?>
<!DOCTYPE svg PUBLIC "-//W3C//DTD SVG 1.1//EN" "http://www.w3.org/Graphics/SVG/1.1/DTD/svg11.dtd" >
<svg xmlns="http://www.w3.org/2000/svg" xmlns:xlink="http://www.w3.org/1999/xlink" version="1.1" viewBox="-10 0 1034 1024">
  <g transform="matrix(1 0 0 -1 0 820)">
   <path fill="currentColor"
d="M155 278q4 -4 11 -9q30 -28 54 -61q10 15 14 17l8 8q-13 19 -68 70q-6 -6 -23 -21zM234 109l-57 54q-9 -12 -22 -22q51 -45 68 -69q9 15 23 26q-6 6 -12 11zM333 161q-12 -13 -25 -23q28 -27 43 -43q7 -7 25 -30q0 3 19 31zM384 257q-16 19 -33 37q-6 9 -12 16
q-12 -12 -26 -21q45 -48 62 -76q9 12 23 25q-7 10 -14 19zM464 347q-33 4 -57 12q4 -34 6 -65l7 -157q1 -30 3 -53q6 -76 18 -121q15 -70 41 -71q21 0 39 28q15 24 32 65q-21 12 -43 34q-1 -27 -5 -46q-6 -31 -17 -32q-7 0 -12 21q-4 15 -12 57q-9 48 -15 146q-1 27 -2 119
q0 15 4 35q1 15 13 28zM547 103q-39 0 -58 5v-46q46 4 93 5h97q-27 -75 -72 -120q-57 -51 -118 -62q33 -24 45 -37q28 15 51 32q21 15 40 32q54 51 87 136q39 -64 88 -110q28 -25 44 -36l71 -47q13 18 40 38q-51 12 -94 44q-70 46 -118 130l155 -1q21 0 30 -4h6v46
q-34 -1 -70 -5h-139q6 42 9 91q79 6 157 10q15 -24 26 -44q18 24 31 32q-21 27 -53 66q-27 33 -53 68q-12 -12 -34 -26q33 -31 60 -66l-256 -11q33 24 56 42l55 46q78 61 99 82q31 28 43 30q6 1 16 3q-22 15 -31 23q-6 6 -19 16q-39 -48 -90 -92l-139 -8q34 28 62 57
q28 30 43 39q12 6 34 10q-6 3 -21 13l-20 16q-6 3 -14 8q-24 -48 -83 -102q-36 -28 -75 -36q12 -27 16 -49l40 7l71 7q21 0 49 3q-57 -51 -112 -84q-42 -24 -86 -29l16 -51q9 1 18 4q6 3 23 4q33 3 95 7q19 0 39 3q-3 -45 -9 -89h-141zM870 769q-28 -15 -60 -26
q-43 -13 -104 -26q-87 -16 -143 -17q-36 0 -63 5q18 -27 27 -46q63 3 133 14q78 12 136 27q76 18 85 18t17 -1q-18 30 -28 52zM582 565q-22 33 -38 61q-9 -9 -19 -17q1 1 -10 -7q34 -46 61 -94q7 -13 15 -28q13 15 31 24zM693 636l-2 3l-2 3q-4 6 -9 11q-13 -9 -32 -19
q43 -48 72 -106q15 15 31 24q-43 61 -58 84zM762 491q22 -12 32 -21q27 36 49 71q28 42 35 47q9 9 32 21q-25 16 -47 38q-42 -85 -101 -156zM98 -104q15 -19 21 -29q6 7 116 123q-6 21 -14 44q-15 -22 -29 -40q-16 -21 -51 -56v357q0 7 2 24q0 16 11 36h-55q1 -30 5 -60
l-1 -354q-4 -15 -11 -24q-3 -1 -5 -6q4 -7 11 -15zM95 443q0 -9 -5 -55q45 4 89 5l245 -1l41 -4q-3 27 -5 55l1 234l4 42q-28 -1 -57 -5l-97 2q-6 3 -13 3v-47q9 1 13 4q9 1 44 2h68v-109l-109 3q-3 1 -7 3v-47q54 6 84 6h32v-105h-293v100l105 -3l2 -1q3 0 6 -1v45l-60 -4
h-53v115l42 10q37 12 44 14q33 6 39 7q7 0 15 -1q-21 33 -28 45q-31 -16 -70 -28q-51 -13 -82 -14q1 -21 2 -35q3 -18 3 -27v-208zM294 295q0 7 2 24q0 16 11 36h-54q0 -3 5 -60v-346q0 -31 -18 -43q13 -13 33 -46q54 63 77 81l42 40q-6 21 -8 42l-42 -44q-30 -28 -48 -45
v361z" />
  </g>

</svg>
