<?xml version="1.0" standalone="no"?>
<!DOCTYPE svg PUBLIC "-//W3C//DTD SVG 1.1//EN" "http://www.w3.org/Graphics/SVG/1.1/DTD/svg11.dtd" >
<svg xmlns="http://www.w3.org/2000/svg" xmlns:xlink="http://www.w3.org/1999/xlink" version="1.1" viewBox="-10 0 1010 1000">
   <path fill="currentColor"
d="M893 12q44 68 44 82q-5 3 -18 1q-26 -4 -54 -3q-27 1 -164 17q-130 15 -169 18q-17 -44 -36 -71q232 0 397 -44zM724 119q1 3 4 10q25 69 28 88l-66 16q-4 -26 -33 -94zM849 121l84 34q-29 25 -82 107q-37 -19 -65 -24q43 -55 63 -117zM573 141q18 33 48 97l-63 26
q-9 -39 -44 -99zM643 231q12 5 33 13q39 15 36 22q0 2 -10 9q-46 33 -97 88l121 -5q43 -43 68 -78q88 40 81 48q-1 4 -13 7q-20 7 -31 17q-93 77 -204 146l202 -13q-20 -25 -53 -58l59 -30q50 49 107 131l-65 40q-6 -18 -16 -36l-113 10q0 14 -4 66h115q54 0 83 -6v73
q-34 -9 -91 -8h-77q52 114 180 153q-41 27 -61 73q-110 -61 -169 -194q-37 117 -137 200q-21 -30 -69 -47q120 -80 143 -185h-74q-47 0 -71 6v-71q30 6 81 6h76q4 -36 4 -64q-61 5 -143 20q-6 -43 -22 -76q25 -8 39 -13q30 -5 71 -36q19 -13 53 -36q-107 6 -153 22
q-7 -44 -16 -62q67 -18 137 -132zM405 385q85 13 81 20q1 6 -5 17q-12 24 -13 57q-1 244 26 285q5 0 15 -33q5 -17 9 -28q17 42 45 59q-43 99 -67 96q-86 9 -87 -377q0 -40 -4 -96zM204 419q10 27 30 99l-49 10q-5 -50 -18 -83q-2 -8 -4 -12zM365 423q18 39 37 88q2 5 3 7
l-48 18q-10 -37 -30 -79l-8 -16zM369 552q11 25 28 68q7 16 10 23l-48 20q-8 -45 -34 -97zM206 554q27 68 36 99l-48 12q-3 -33 -31 -99zM484 373q-22 -5 -81 -4h-256q-65 -1 -80 4q6 -44 6 -83v-139q0 -52 -6 -91q88 -10 169 -30q37 65 30 76q-3 1 -12 0q-43 -5 -113 2v75
h46q35 -1 65 -4v63q-21 -4 -64 -4h-47v72h272v-70h-42q-42 0 -57 1q-19 1 -30 3v-67q47 4 87 4h42v-69h-58q-48 0 -69 1v-67q25 6 85 6h52q39 0 63 -6q-6 39 -6 97v159q0 47 4 71zM83 389q12 1 31 2q47 3 45 8q1 2 -2 8q-14 25 -14 76v269q2 -1 8 -5q30 -19 55 -40
q0 22 10 61q1 4 2 6q-84 52 -121 91q-13 -26 -39 -57q27 -21 29 -52v-273q0 -54 -4 -94zM252 393q7 1 19 2q53 5 52 8q1 2 -2 9q-11 23 -11 57v285q30 -25 57 -49q2 33 16 65q-60 40 -113 88l-4 4q-23 -35 -38 -50q25 -36 26 -64v-265q0 -22 -1 -57q-1 -23 -1 -33z" />
</svg>
