<?xml version="1.0" standalone="no"?>
<!DOCTYPE svg PUBLIC "-//W3C//DTD SVG 1.1//EN" "http://www.w3.org/Graphics/SVG/1.1/DTD/svg11.dtd" >
<svg xmlns="http://www.w3.org/2000/svg" xmlns:xlink="http://www.w3.org/1999/xlink" version="1.1" viewBox="-10 0 1010 1000">
   <path fill="currentColor"
d="M897 24q-6 27 -6 82v134q-1 56 4 78q-24 -4 -83 -4h-187q-63 -1 -89 4q0 -4 1 -12q3 -24 3 -48v-139q0 -55 -4 -91q30 3 93 4h183q38 0 77 -7q5 -1 8 -1zM821 88h-214v59h214v-59zM823 199h-216v59h216v-59zM738 322q6 15 21 48q5 10 7 15h93q42 0 95 -8q0 11 -1 25
t-1 25v28q0 25 1 31q0 8 3 18h-73q6 -25 6 -67h-327q0 39 3 59h-65q0 -7 1 -23t1 -24v-22q0 -14 -1 -34q-1 -9 -1 -12q16 3 58 4h130q-4 -17 -33 -55zM391 379q5 0 13 1q72 5 70 13q1 3 -3 10q-13 26 -13 64q-3 296 26 301q10 8 36 -71q14 38 47 63q-52 107 -89 98
q-81 10 -77 -377q0 -67 -10 -102zM196 423q7 17 21 76q3 14 5 21l-45 12q-6 -64 -18 -99zM357 423q10 21 28 97l-44 16q-7 -59 -24 -99zM355 544q21 56 32 101l-42 18q-13 -70 -28 -105zM194 550q22 62 30 107l-43 18q-9 -50 -24 -109zM790 610h-115l-32 53q57 24 95 42
q31 -36 52 -95zM488 369q-22 -4 -81 -4h-256q-65 -1 -80 4q6 -44 6 -83v-139q0 -52 -6 -91q86 -9 169 -30q35 60 30 76q-3 1 -12 0q-43 -5 -113 2v75h45q36 -1 66 -4v63q-21 -3 -64 -3h-47v71h272v-69h-42q-42 0 -57 1q-19 0 -30 2v-67q47 4 87 4h42v-69h-58q-48 -1 -69 2
v-68q25 6 85 6h52q39 0 63 -6q-6 39 -6 97v159q0 47 4 71zM67 389q77 3 76 10q1 3 -2 8q-12 23 -12 74v271q1 0 2 -1q30 -20 59 -44q0 22 10 61q1 4 2 6q-84 52 -121 91q-16 -31 -39 -57q24 -18 27 -56v-262q0 -25 -1 -65q-1 -26 -1 -36zM240 385q70 2 72 10q1 2 -2 8
q-12 23 -12 58v285q17 -13 57 -49q2 34 16 65q-68 45 -117 92q-23 -35 -38 -50q29 -38 28 -60v-273q0 -57 -4 -86zM540 820q103 -29 150 -72q-64 -31 -130 -55q19 -26 42 -68q4 -8 7 -13h-51q-36 -1 -66 5v-71q22 3 70 4h75q22 -41 44 -103q14 6 38 15q39 13 37 17q0 2 -6 7
q-13 11 -20 24q-4 7 -12 20t-12 20h163q39 -1 73 -4v71q-19 -4 -65 -4h-14l-13 26q-29 58 -50 94q47 21 160 79q-41 49 -49 71q-89 -63 -159 -101q-66 57 -171 111q-17 -49 -41 -73z" />
</svg>
