<?xml version="1.0" standalone="no"?>
<!DOCTYPE svg PUBLIC "-//W3C//DTD SVG 1.1//EN" "http://www.w3.org/Graphics/SVG/1.1/DTD/svg11.dtd" >
<svg xmlns="http://www.w3.org/2000/svg" xmlns:xlink="http://www.w3.org/1999/xlink" version="1.1" viewBox="-10 0 1034 1024">
  <g transform="matrix(1 0 0 -1 0 820)">
   <path fill="currentColor"
d="M102 361q4 -24 5 -55l-1 -362q-3 -9 -5 -16q-6 -9 -16 -18q16 -19 32 -48q25 36 47 64l66 73q-7 24 -12 48q-36 -52 -74 -95v354q0 21 13 55h-55zM90 705l4 -39l-1 -231q-3 -12 -4 -38h8q-3 0 9 1l48 4l281 -1l36 -4q-3 27 -5 53l1 239l4 34q-24 -1 -49 -5q-75 0 -101 2
l-18 3v-47q22 6 61 7h65v-105h-51q-40 0 -62 5v-46q27 4 62 5h51v-104h-300v99q75 0 88 -2q24 -3 27 -5v48q-21 -6 -60 -7h-55v118q64 18 96 23q25 6 52 6q-18 19 -41 50q-46 -40 -147 -45q0 -9 1 -18zM164 299q34 -36 59 -80q10 12 25 24q-30 45 -58 77q-12 -12 -26 -21z
M167 154q9 -9 18 -19q9 -12 27 -33q6 -9 14 -23q10 15 25 24q-22 31 -40 49q-10 12 -21 24q-7 -9 -15 -16zM264 367q1 -30 5 -60l-1 -367q-4 -10 -12 -24q-3 -1 -7 -7q13 -18 29 -47q33 49 121 123q-6 18 -13 40q-40 -45 -81 -80v362q0 9 2 22q0 18 11 38h-54zM351 311
q-12 -12 -26 -19q30 -30 57 -76q12 12 25 22q-12 21 -35 47q-10 13 -21 26zM408 93q-27 39 -57 68q-12 -10 -23 -23q15 -12 33 -36q12 -15 23 -34q10 15 15 17q0 3 9 8zM461 356q-18 0 -45 5q3 -10 5 -45l6 -218q6 -64 11 -95q6 -40 14 -68q15 -61 43 -62q13 0 29 15
q12 -12 26 -38q114 48 201 120q114 -69 155 -110q4 9 16 21q7 9 11 15q-30 19 -46 32q-12 6 -23 14q-30 19 -62 39q-12 6 -23 15q36 61 49 88q12 28 28 82q58 0 88 -4q4 0 12 -2v44q-36 -4 -62 -5h-199q33 75 71 104q-25 10 -44 23h184q-3 -72 -6 -79l-1 -2h48q-3 4 -6 43
q0 31 2 40l4 38q-13 -1 -25 -3q-19 -3 -28 -3h-137q9 15 22 28l-8 6q-22 22 -43 37l-23 19h135q6 0 27 -3q12 0 27 -3l-6 60l1 199q1 21 5 43q-27 -1 -54 -5l-251 1q-15 3 -39 4q1 -24 3 -27q1 -19 2 -31l-1 -206q-3 -7 -4 -36v-2q48 6 70 6h66q-12 -10 -22 -21
q42 -27 84 -69l-211 1q-9 3 -19 3q-3 0 -13 2q3 -69 4 -108q-3 -6 -3 -14q-1 -3 -1 -6h45q-1 3 -5 37v51h166q-9 -27 -23 -57q-9 -27 -16 -40l-16 -30l-136 1q-9 1 -31 4v-44q60 6 78 6h71q-19 -39 -33 -61q-10 -18 -28 -42q76 -37 140 -73q-51 -42 -90 -62q-51 -24 -96 -32
q13 27 24 57l9 27q-16 6 -40 33q-1 -34 -4 -46q-6 -40 -20 -41q-10 0 -17 27q-9 34 -15 77q-6 36 -6 59q-1 18 -5 96l-1 68q0 57 3 69q1 18 11 34h-9zM590 612v93h262v-93h-262zM590 486v92h262v-92h-262zM679 166h139q-19 -85 -74 -151q-48 27 -67 37q-21 10 -47 26
q24 45 49 88v0z" />
  </g>

</svg>
