<?xml version="1.0" standalone="no"?>
<!DOCTYPE svg PUBLIC "-//W3C//DTD SVG 1.1//EN" "http://www.w3.org/Graphics/SVG/1.1/DTD/svg11.dtd" >
<svg xmlns="http://www.w3.org/2000/svg" xmlns:xlink="http://www.w3.org/1999/xlink" version="1.1" viewBox="-10 0 1034 1024">
  <g transform="matrix(1 0 0 -1 0 820)">
   <path fill="currentColor"
d="M408 56l99 -3q6 0 10 -3v45q-31 -1 -64 -5l-364 3q-9 0 -18 2v-45q1 1 3 1q3 1 15 2q-3 0 9 1l97 2h21q-9 -78 -45 -122q-45 -42 -105 -45q15 -18 31 -42q72 19 117 79q30 43 41 130h116l-3 -181l-3 -23h50q-6 12 -6 36zM117 359q6 -51 6 -75q0 -87 -2 -105q-3 -7 -4 -33
v-6q30 3 62 5l278 -1l44 -4q-4 45 -5 69l1 109l4 41q-31 -1 -64 -5l-277 1q-15 3 -43 4zM159 178v54h125v-54h-125zM284 321v-56h-125v56h125zM321 178v54h137v-54h-137zM321 265v56h137v-56h-137zM161 453q-3 -28 -5 -58q30 3 61 5l202 -1l42 -4q-4 49 -5 90q0 136 2 147
q0 15 3 34q-55 -4 -81 -5h-89q4 21 12 39q6 18 26 31q-3 0 -7 3q-3 0 -13 7q-7 3 -15 5q-10 4 -21 10q-9 -54 -21 -95q-42 0 -96 5q1 -27 5 -56v-157zM198 510v42h220v-42h-220zM198 585v43h220v-43h-220zM198 433v44h220v-44h-220zM483 -131q4 1 10 1q6 3 33 3l372 1
q15 0 65 -5v44q-30 -4 -65 -5l-378 1q-15 1 -37 4v-44zM689 388q-3 -48 -6 -65h49q0 1 -5 62v166q30 -58 82 -117q55 -58 111 -94q13 19 40 37q-63 24 -112 67q-75 76 -100 133l127 -1q18 0 25 -3q-1 0 16 -2v45q-9 -1 -60 -6h-129q0 90 2 99q1 12 4 23q3 6 8 18h-58
q3 -15 3 -20q1 -22 3 -45v-75l-189 5q-3 1 -5 1v-45q3 0 9 1q7 3 36 4l132 1q-81 -145 -193 -189q24 -15 41 -32q43 30 81 69q63 70 88 119v-156zM545 -3l67 6l215 -1q45 -4 52 -5q-4 54 -5 77q0 174 2 185q0 19 3 39q-64 -4 -67 -5l-223 1q-6 1 -14 2q-15 0 -30 2
q1 -31 5 -64l-1 -190q-3 -12 -4 -47zM587 36v94h249v-94h-249zM836 163h-249v96h249v-96z" />
  </g>

</svg>
