<?xml version="1.0" standalone="no"?>
<!DOCTYPE svg PUBLIC "-//W3C//DTD SVG 1.1//EN" "http://www.w3.org/Graphics/SVG/1.1/DTD/svg11.dtd" >
<svg xmlns="http://www.w3.org/2000/svg" xmlns:xlink="http://www.w3.org/1999/xlink" version="1.1" viewBox="-10 0 1034 1024">
  <g transform="matrix(1 0 0 -1 0 820)">
   <path fill="currentColor"
d="M164 446l-94 4q-4 1 -7 2v-47l66 6l385 -1q34 -3 41 -5v47q-28 0 -59 -6q-4 1 -7 0h-144v119l135 -3q6 0 9 -2v46q-33 -1 -65 -5h-79v74q0 40 12 67h-56l4 -38l1 -258h-106v144q0 40 13 67h-55q0 -9 2 -15l4 -52v-144zM170 -62v336q0 40 12 67h-54l4 -38v-357
q-3 -15 -4 -53q31 7 74 12l262 28q-1 -33 -3 -69q0 -6 -2 -12h48q-3 33 -5 67l1 385q1 24 11 41h-55l4 -38l1 -339zM319 245l7 25q13 54 20 66q3 9 20 19q-24 4 -44 12l-18 8q-9 -93 -38 -159q-45 -94 -93 -130q24 -10 47 -26q28 37 46 67q18 31 40 76q75 -81 110 -139
q12 21 30 39q-4 7 -26 32q-33 39 -101 110zM604 325q1 1 11 6v-359q0 -63 59 -78q30 -7 89 -8q93 0 124 15q34 15 66 100q3 13 11 29q-3 0 -28 13q-12 6 -21 12q-1 -25 -5 -43q-6 -25 -21 -56q-13 -22 -62 -28q-31 -3 -65 -3q-49 0 -78 11q-31 12 -32 50v363q40 18 111 58
q96 54 120 66q22 10 51 11q-12 13 -13 16q-25 33 -28 39q-75 -66 -241 -146v281q0 40 13 67h-56q0 -7 1 -10q1 -37 5 -77v-279q-30 -13 -84 -26q16 -12 24 -21q7 -7 15 -19q16 9 34 16v0z" />
  </g>

</svg>
