<?xml version="1.0" standalone="no"?>
<!DOCTYPE svg PUBLIC "-//W3C//DTD SVG 1.1//EN" "http://www.w3.org/Graphics/SVG/1.1/DTD/svg11.dtd" >
<svg xmlns="http://www.w3.org/2000/svg" xmlns:xlink="http://www.w3.org/1999/xlink" version="1.1" viewBox="-10 0 1010 1000">
   <path fill="currentColor"
d="M460 -13q110 -1 109 11q1 5 -7 14q-16 18 -16 44v57h188q49 0 139 -9v87q-38 -6 -135 -6h-192v115h240q115 0 164 -8v87q-49 -9 -129 -8h-25h-619q-92 0 -127 8v-89q48 10 129 10h53v-155q0 -53 -10 -83q109 0 109 10q1 6 -7 16q-16 21 -16 51v161h158v-242q0 -36 -6 -71
zM478 389q96 15 105 30q1 6 -11 13q-13 7 -16 15q-18 34 -34 55q89 52 218 147l-71 72q-37 -52 -177 -161q-54 87 -131 171q-40 -41 -79 -48q150 -105 196 -294zM754 431q10 0 27 1q73 1 72 7q1 2 -2 12q-12 33 -12 71v256q0 26 9 123q1 5 1 8h-93l4 -59h-462q-27 0 -92 4
q-20 2 -29 2q6 -25 6 -114v-228q0 -47 -4 -77q93 1 103 14q2 5 -5 14q-15 22 -15 55v254h498v-254q0 -24 -6 -89z" />
</svg>
