<?xml version="1.0" standalone="no"?>
<!DOCTYPE svg PUBLIC "-//W3C//DTD SVG 1.1//EN" "http://www.w3.org/Graphics/SVG/1.1/DTD/svg11.dtd" >
<svg xmlns="http://www.w3.org/2000/svg" xmlns:xlink="http://www.w3.org/1999/xlink" version="1.1" viewBox="-10 0 1010 1000">
   <path fill="currentColor"
d="M653 0q102 19 109 26q1 4 -9 12q-9 7 -13 12q77 202 240 288q-8 7 -20 17q-36 28 -53 60q-162 -127 -205 -317q-37 136 -166 325q-33 -21 -84 -36l18 -18q-13 -5 -29 -6q-14 -1 -54 -1h-212q-86 0 -123 7v-77q27 10 79 10v-111q1 -70 -8 -103q84 1 89 10q0 2 -3 8
q-11 20 -11 49v147h86v-185q0 -79 -8 -111q86 2 95 14q0 3 -4 9q-14 23 -14 49v63h26q82 1 113 -8v78q-49 -8 -113 -8h-26v99h34q67 0 101 -8v54q134 -163 165 -348zM728 298q13 38 30 129l-83 8q-5 -75 -26 -127zM262 381q74 10 87 22q0 1 -3 6q-24 41 -40 103
q59 64 103 147l-58 46q-16 -55 -69 -137q-21 81 -52 155q-21 -19 -67 -28q87 -117 99 -314zM530 475q49 8 119 8h170q34 0 80 -6q15 -1 22 -2q-84 166 -177 287q36 39 83 103l-83 48q-75 -134 -196 -240l67 -48q38 41 77 88q53 -76 100 -161h-143q-69 -1 -119 8v-85z
M413 528q0 -69 -8 -103q89 7 97 16q1 2 -2 11q-14 38 -14 94v234q0 58 8 107h-89q9 -32 8 -63q-32 2 -95 5q-188 8 -237 23q8 -59 8 -127v-189q0 -91 -8 -119q91 5 104 16q0 2 -4 7q-22 35 -22 100v232h254v-244z" />
</svg>
