<?xml version="1.0" standalone="no"?>
<!DOCTYPE svg PUBLIC "-//W3C//DTD SVG 1.1//EN" "http://www.w3.org/Graphics/SVG/1.1/DTD/svg11.dtd" >
<svg xmlns="http://www.w3.org/2000/svg" xmlns:xlink="http://www.w3.org/1999/xlink" version="1.1" viewBox="-10 0 1034 1024">
  <g transform="matrix(1 0 0 -1 0 820)">
   <path fill="currentColor"
d="M142 449h-27q-19 0 -48 4q-7 0 -20 2v-47q30 6 68 6l349 -1q16 0 35 -3q-3 0 12 -2v47q-15 -1 -19 -2q-63 -3 -91 -4h-79v136l90 -1q6 0 48 -4v46q-61 -4 -84 -5h-54q0 108 3 115q1 10 8 22q1 3 3 6h-57q4 -54 6 -65v-250h-106v168q0 15 2 30q1 16 11 35h-56q1 -9 3 -16
l3 -105v-112zM146 -49v314q0 15 2 31q1 15 11 35h-55l5 -104l-1 -270q-3 -15 -4 -48q34 7 85 12l236 17q-3 -42 -5 -85h49q-4 19 -5 44l-1 383q0 31 3 40q1 12 10 26h-56q4 -54 5 -66v-311zM399 96q-48 58 -110 127q0 6 2 12q3 12 5 26q6 54 13 81q3 22 20 36q-39 3 -58 8
q-3 1 -4 1q1 -15 2 -24q0 -6 -3 -43q0 -18 -7 -55q-4 -33 -11 -57q-21 -69 -53 -113q-15 -19 -42 -41q21 -6 32 -9q9 -3 18 -10q27 36 42 67q16 33 32 79q48 -48 89 -117q9 9 14 15q3 1 7 6q6 6 12 11zM610 329l-66 1q-25 3 -24 2q-6 0 -20 2v-46q33 3 68 5l363 -1
q10 0 28 -2l19 -2v46q-61 -4 -100 -5h-5q0 169 2 182l4 37q-31 -1 -64 -5h-137l19 135l205 -1q22 0 48 -4v46q-18 -1 -20 -2q-27 -1 -40 -3l-344 1q-7 1 -40 4v-46q48 3 56 5h98l-19 -135q-99 3 -114 5v-46q54 4 108 5zM646 329l26 178h163v-178h-189zM555 190l4 -44
l-1 -266l-4 -41h48q-4 60 -5 81h268l-6 -77h51q-3 36 -5 72l1 249q0 18 4 47q-33 -1 -66 -5l-245 1q-6 1 -14 2q-13 0 -31 2q0 -10 1 -21zM597 -45v215h268v-215h-268z" />
  </g>

</svg>
