<?xml version="1.0" standalone="no"?>
<!DOCTYPE svg PUBLIC "-//W3C//DTD SVG 1.1//EN" "http://www.w3.org/Graphics/SVG/1.1/DTD/svg11.dtd" >
<svg xmlns="http://www.w3.org/2000/svg" xmlns:xlink="http://www.w3.org/1999/xlink" version="1.1" viewBox="-10 0 1034 1024">
  <g transform="matrix(1 0 0 -1 0 820)">
   <path fill="currentColor"
d="M154 -54v337q0 6 2 25q3 21 12 38h-57q4 -31 5 -63l-1 -346q-3 -7 -4 -36q84 19 282 44q0 -16 -3 -28h46q-4 48 -5 79l1 303q0 16 4 27q1 10 8 21h-56q0 -4 2 -8q3 -24 3 -55v-306zM511 702l4 -45l-1 -395q-1 -13 -2 -30q-1 -63 -11 -136q-12 -63 -32 -122
q-24 -60 -69 -115q33 -3 52 -7q22 40 53 116q31 87 41 182q6 132 7 161v201l334 -1q18 -1 38 -5q-6 54 -6 81l1 86q0 12 3 19q0 9 2 18q-25 -1 -51 -5l-324 1q-12 3 -40 4q0 -3 1 -8zM553 548v121h328v-121h-328zM207 45q7 -1 14 -3q21 48 35 85q12 33 22 69q30 -52 61 -136
q33 21 38 23l-33 63l-53 108q18 87 21 89q4 12 18 23q-34 4 -63 10q0 -126 -47 -240q-22 -49 -52 -81l22 -6q7 -1 17 -4zM738 -75l-155 1q-3 0 -22 1q-6 3 -13 3v-46h2l29 4l331 1q27 0 62 -5v46q-27 -4 -62 -5h-135v130h84q28 0 63 -5v46q-9 -1 -16 -3q-18 -1 -47 -2h-84
v124l119 14q12 -16 19 -28q6 -10 13 -25q21 15 36 26l-60 86q-3 6 -51 64q-18 -15 -35 -25q33 -33 59 -69q-117 -13 -232 -23l137 151q135 0 152 -2q10 0 23 -3v46q-6 0 -17 -3l-218 -2l-131 2q-6 3 -13 3v-46h2q3 3 24 3q21 1 127 2q-57 -70 -93 -107q-39 -33 -64 -40
q13 -21 25 -50q34 9 54 11l87 11v-120l-126 4q-3 0 -7 1v-46q3 1 49 5h84v-130zM155 441l-85 2q-6 3 -13 3v-46q46 4 79 5l305 -1q15 0 35 -4v46q-7 0 -16 -3q-18 -1 -92 -2h-50v129h70q36 0 64 -5v47q-30 -6 -64 -6h-70v82q0 6 2 25q1 16 12 38h-57q1 -30 5 -63v-247h-88
v155q0 10 2 26q1 16 12 38h-56q1 -31 5 -64v-155z" />
  </g>

</svg>
