<?xml version="1.0" standalone="no"?>
<!DOCTYPE svg PUBLIC "-//W3C//DTD SVG 1.1//EN" "http://www.w3.org/Graphics/SVG/1.1/DTD/svg11.dtd" >
<svg xmlns="http://www.w3.org/2000/svg" xmlns:xlink="http://www.w3.org/1999/xlink" version="1.1" viewBox="-10 0 1010 1000">
   <path fill="currentColor"
d="M256 4q93 -3 93 8q-17 45 -18 121h40q36 0 101 -8v76q-45 -8 -101 -8h-42v93h54q41 0 113 -8v76l-109 -8h-240q-55 0 -95 8v-78q36 10 83 10v-127q1 -48 -6 -69q84 4 83 12q-8 25 -11 65q-3 36 -3 119h66v-196q-1 -52 -8 -86zM889 42q-6 41 -6 71v266q0 46 8 78
q-7 -1 -21 -2q-47 -6 -55 -6h-87q8 93 32 149q72 -68 107 -125q55 43 71 65q-4 5 -13 8q-14 4 -28 14q-55 36 -117 87q91 106 198 133q-51 34 -79 80q-226 -134 -232 -411h-66v313q30 -21 86 -71q0 46 17 77q-59 39 -146 110q-11 9 -16 13q-12 -36 -42 -65q29 -15 28 -40
v-669q-1 -43 -8 -75q52 8 79 8h214q40 0 76 -8zM808 112h-207v113h207v-113zM601 280v107h207v-107h-207zM258 358q78 12 87 27q-1 3 -8 9q-12 9 -18 21q-6 13 -16 53q-3 12 -5 19q22 33 79 120l12 18v-140q0 -47 -6 -74q95 -1 91 8q-7 21 -8 38q-2 17 -2 61v248
q1 68 10 105h-87q6 -23 6 -59h-230q-46 1 -76 6q7 -37 8 -68v-262q-2 -58 -6 -91q82 2 90 12q-18 36 -18 70v176q79 -104 97 -297zM278 556q-21 68 -64 149q-15 -12 -51 -24v67h226v-87q-9 0 -49 16q-3 1 -5 2q-32 -85 -57 -123z" />
</svg>
