<?xml version="1.0" standalone="no"?>
<!DOCTYPE svg PUBLIC "-//W3C//DTD SVG 1.1//EN" "http://www.w3.org/Graphics/SVG/1.1/DTD/svg11.dtd" >
<svg xmlns="http://www.w3.org/2000/svg" xmlns:xlink="http://www.w3.org/1999/xlink" version="1.1" viewBox="-10 0 1010 1000">
   <path fill="currentColor"
d="M240 -8q98 5 99 18q-13 16 -18 40q-4 23 -4 79q42 0 127 -8v70q-44 -5 -67 -6q-26 -2 -62 -2v113h56q38 0 101 -8v81q-49 -8 -99 -7h-236q-53 0 -91 7v-75q37 5 65 6v-149l-8 -77q86 -6 87 8q-12 23 -14 61q-3 34 -3 155h77v-194q-1 -62 -10 -112zM875 30q46 60 48 83
q-1 2 -15 -1q-32 -6 -51 -4q-48 6 -121 13v90h101q20 0 72 -6q-6 44 -6 73v72q0 37 6 79q-44 -8 -74 -8h-101v79h133q20 0 77 -6q-7 31 -7 74v226q1 56 -22 70q-18 17 -107 27q-8 -53 -38 -83q107 28 99 -28v-224h-135v123l48 -6l-18 -56l48 -9q14 42 30 97q6 23 9 33
l-59 16l-4 -37q-66 4 -183 35q-3 -42 -18 -69l88 -4v-123h-117v236q1 56 9 97h-81q7 -42 8 -97v-230q0 -34 -6 -72q46 10 79 10h108v-79h-90q-42 0 -75 6q6 -38 6 -65v-86q0 -44 -6 -69q29 4 77 4h90v-88q-58 9 -171 20q-4 -33 -34 -73q207 12 403 -40zM575 266v99h102v-99
h-102zM839 266h-103v99h103v-99zM228 375q42 3 84 18q0 2 -6 11q-13 16 -14 27q-1 4 -2 12q-7 51 -16 81q86 96 93 97v-129q0 -10 -6 -67q103 4 95 10q-23 37 -21 95v240q1 68 9 115h-83q6 -34 6 -77l-214 26q-43 5 -82 22q7 -52 8 -88v-260q0 -48 -8 -85q98 11 96 16
q-21 42 -22 81v147q89 -110 83 -292zM260 568q-31 96 -66 157q-16 -25 -49 -40v83l222 -16v-99q-20 8 -42 34q-8 -17 -35 -64q-24 -42 -30 -55z" />
</svg>
