<?xml version="1.0" standalone="no"?>
<!DOCTYPE svg PUBLIC "-//W3C//DTD SVG 1.1//EN" "http://www.w3.org/Graphics/SVG/1.1/DTD/svg11.dtd" >
<svg xmlns="http://www.w3.org/2000/svg" xmlns:xlink="http://www.w3.org/1999/xlink" version="1.1" viewBox="-10 0 1034 1024">
  <g transform="matrix(1 0 0 -1 0 820)">
   <path fill="currentColor"
d="M162 71q6 -3 13 -6q16 -6 21 -9q4 -1 9 -4q24 37 40 69q15 28 31 66q57 -66 80 -117q10 12 23 23q6 6 8 9q-12 21 -26 36l-30 36q-16 18 -44 55q18 78 24 89q6 16 23 30q-15 1 -22 4l-40 10q-1 -28 -10 -72q-16 -84 -52 -152q-25 -40 -54 -65q3 0 6 -2zM443 -126l28 -12
q34 60 86 187q45 -67 85 -101q54 -42 157 -59q4 0 28 -3q118 -6 124 -7q7 30 21 59q-48 -12 -95 -13q-36 0 -83 5q-33 4 -71 16v231h124q27 0 63 -5v46q-27 -4 -63 -5h-124v194q93 0 107 -2q15 0 32 -3l-6 59l1 198q0 10 5 41q-15 -1 -27 -4q-22 -3 -30 -3l-235 1
q-18 4 -36 6q1 -27 5 -56l-1 -200q-3 -12 -4 -42q42 4 85 5h66v-440q-27 18 -59 52q-36 39 -56 88l13 68q6 30 10 41q6 24 23 43q-10 3 -20 4q-7 0 -28 6q-7 3 -15 5q0 -99 -35 -216q-34 -111 -93 -176q9 -3 18 -8zM818 443h-242v215h242v-215zM136 435q-36 1 -74 3
q-3 1 -13 2v-46h2l29 4l353 1q28 0 64 -5v46q-18 -1 -16 -2q-18 -3 -86 -3h-74v133h84q19 0 47 -3q-1 0 16 -2v46q-31 -1 -63 -5h-84q0 102 3 108q1 12 11 31h-58q0 -1 1 -3q1 -30 5 -60v-245h-110q0 186 3 193q1 13 11 31h-56q1 -30 5 -63v-161zM141 -36v285q0 6 2 24
q1 18 11 38h-56q6 -60 6 -80l-1 -264q-1 -3 -5 -41l41 5q21 3 141 12l118 8q-1 -33 -4 -45h47q-3 30 -5 62l1 304q0 12 6 28q1 7 6 16h-56q4 -30 5 -62v-271z" />
  </g>

</svg>
