<?xml version="1.0" standalone="no"?>
<!DOCTYPE svg PUBLIC "-//W3C//DTD SVG 1.1//EN" "http://www.w3.org/Graphics/SVG/1.1/DTD/svg11.dtd" >
<svg xmlns="http://www.w3.org/2000/svg" xmlns:xlink="http://www.w3.org/1999/xlink" version="1.1" viewBox="-10 0 1010 1000">
   <path fill="currentColor"
d="M401 -2q88 -2 105 10q1 2 -6 17q-13 25 -14 35q-2 19 -5 52q-5 59 -9 107h300q111 0 145 -8v85q-40 -7 -145 -8h-310q-24 174 -81 296q-78 165 -258 313q-37 -37 -95 -63q316 -173 357 -546h-167q-93 0 -145 8v-85q50 8 145 8h175q5 -39 6 -84q2 -44 2 -137zM661 14
q31 23 143 127l-70 60q-79 -94 -143 -133zM486 338q107 4 103 8q0 1 -4 6q-17 21 -18 43v218q103 -104 167 -255q76 41 97 63q1 2 -6 6q-18 12 -31 28q-22 25 -68 87q-94 128 -155 181q-1 56 34 69q33 12 115 8q69 -4 90 -20q17 -14 35 -93q46 50 90 63q-28 79 -66 108
q-34 22 -126 27q-107 4 -174 -12q-41 -11 -56 -32q-14 -18 -17 -69q-40 29 -127 82q-8 5 -12 8q-21 -39 -71 -76q103 -37 206 -111v-260q-3 -66 -6 -77z" />
</svg>
