<?xml version="1.0" standalone="no"?>
<!DOCTYPE svg PUBLIC "-//W3C//DTD SVG 1.1//EN" "http://www.w3.org/Graphics/SVG/1.1/DTD/svg11.dtd" >
<svg xmlns="http://www.w3.org/2000/svg" xmlns:xlink="http://www.w3.org/1999/xlink" version="1.1" viewBox="-10 0 1034 1024">
  <g transform="matrix(1 0 0 -1 0 820)">
   <path fill="currentColor"
d="M145 436q18 18 35 28q4 -60 5 -81l-1 -264q-3 -12 -4 -49l62 6h245v-126q0 -36 14 -59q7 -13 26 -20q13 -4 32 -8l59 -4l84 -4h14q36 0 113 9q27 4 47 9q30 12 55 40q21 27 34 96q-31 12 -52 23q0 -16 1 -35q0 -54 -33 -76q-30 -21 -96 -23q-45 -1 -66 -3q-12 0 -127 5
q-42 3 -55 16q-12 10 -12 54v106l262 -1q22 -1 46 -5q-3 33 -5 67l1 294l4 49q-33 -1 -67 -5h-187q10 13 21 26q22 24 52 59q15 18 29 35q18 18 53 57l-120 -5h-252q49 64 64 76q13 12 42 16q-33 18 -63 44q-27 -52 -86 -123q-81 -96 -166 -164q-54 -45 -104 -65
q27 -15 49 -35q9 6 19 16q13 12 28 24zM192 475l74 70l64 66h314l-122 -136h-330zM487 112h-265v145h265v-145zM222 293v146h265v-146h-265zM525 112v145h265v-145h-265zM525 293v146h265v-146h-265z" />
  </g>

</svg>
