<?xml version="1.0" standalone="no"?>
<!DOCTYPE svg PUBLIC "-//W3C//DTD SVG 1.1//EN" "http://www.w3.org/Graphics/SVG/1.1/DTD/svg11.dtd" >
<svg xmlns="http://www.w3.org/2000/svg" xmlns:xlink="http://www.w3.org/1999/xlink" version="1.1" viewBox="-10 0 1010 1000">
   <path fill="currentColor"
d="M478 78q49 8 113 8h205q66 0 99 -6v83q-30 -6 -78 -6h-97v167h62q44 0 57 -1q18 0 32 -3v81q-33 -6 -87 -6h-64v207h84q50 0 101 -6v85q-18 -5 -36 -6q-18 -2 -63 -2h-237q-45 0 -99 6v-83q24 4 43 5q16 1 52 1h78v-207h-74q-41 0 -71 6v-81q33 3 77 4h68v-167h-58
q-71 -1 -107 8v-87zM187 20q18 2 49 4q61 4 58 10q1 4 -4 10q-15 18 -18 48q-1 12 -2 59q-1 41 -2 62h117q48 0 95 -8v79q-39 -6 -85 -6v462q-1 43 24 54q22 13 105 12h166q128 1 155 -16q35 -14 38 -79q19 27 60 47q13 6 19 10q-21 70 -71 90q-25 11 -65 15q-36 4 -116 4
h-250q-89 1 -115 -19q-27 -16 -24 -76v-504h-55q0 382 -153 623q-33 -43 -85 -51q164 -176 164 -572h-77q-42 0 -73 5q-10 2 -16 3v-83q52 8 111 10h57q0 -107 -1 -136q-1 -40 -6 -57z" />
</svg>
