<?xml version="1.0" standalone="no"?>
<!DOCTYPE svg PUBLIC "-//W3C//DTD SVG 1.1//EN" "http://www.w3.org/Graphics/SVG/1.1/DTD/svg11.dtd" >
<svg xmlns="http://www.w3.org/2000/svg" xmlns:xlink="http://www.w3.org/1999/xlink" version="1.1" viewBox="-10 0 1010 1000">
   <path fill="currentColor"
d="M185 18q94 116 117 161l-84 56q-60 -111 -111 -169zM694 18q97 41 100 46q0 1 -6 6q-27 25 -30 38q-45 174 -95 289q75 138 121 240l-76 44q-19 -64 -87 -196q-63 118 -127 202q-37 -37 -67 -50v101l373 -11v-413q-1 -57 -6 -105q15 1 46 3q57 3 53 7q-13 32 -14 91v448
q1 77 10 119h-93q6 -40 6 -89l-369 20q-42 3 -75 9l-15 3q2 -29 2 -95v-379q0 -57 -6 -109q24 2 68 3q43 0 39 4q-18 41 -19 88v297q93 -92 152 -228q-103 -202 -178 -317l73 -34q37 67 96 177q31 58 47 87q44 -103 77 -296zM48 292q47 7 93 8q51 -1 99 -4q-10 53 -10 87
v308q55 -63 80 -91q3 39 27 81q-101 95 -147 149q-13 -24 -53 -60q21 -22 20 -81v-318q-59 1 -109 6v-85z" />
</svg>
