<?xml version="1.0" standalone="no"?>
<!DOCTYPE svg PUBLIC "-//W3C//DTD SVG 1.1//EN" "http://www.w3.org/Graphics/SVG/1.1/DTD/svg11.dtd" >
<svg xmlns="http://www.w3.org/2000/svg" xmlns:xlink="http://www.w3.org/1999/xlink" version="1.1" viewBox="-10 0 1010 1000">
   <path fill="currentColor"
d="M484 -4q21 0 64 -2q48 -3 45 0q0 1 -1 6q-17 51 -11 149h195q61 -1 123 -10v88q-33 -7 -123 -6h-193q0 30 6 97q1 11 2 16q94 -42 145 -82q65 65 58 68q0 1 -8 3q-23 3 -42 13q-22 12 -102 44q-27 11 -41 17q7 49 18 90q93 -40 159 -102q57 46 63 64q-1 3 -13 6
q-14 5 -22 10q-62 41 -165 89q24 67 42 95q99 -67 138 -121q7 6 23 18q61 44 55 46q1 2 -7 3q-19 1 -29 11q-58 51 -141 103q66 79 113 95q24 -23 26 -117q42 49 81 61q-29 173 -99 155q-104 -33 -192 -153q-8 3 -23 11q-108 49 -182 67q-17 -33 -63 -70q136 -23 232 -73
q-17 -27 -44 -107q-40 17 -91 32q-21 -33 -49 -66q78 -11 119 -32q-15 -56 -18 -89q-38 15 -80 28q-24 -49 -43 -74q39 -4 105 -19q5 -1 8 -2q-1 -14 -5 -57q-7 -61 -7 -78h-320q-95 0 -142 8v-88q49 7 139 8h315q-1 -8 -1 -24q-6 -98 -17 -129zM399 306q-7 30 -8 71v133
q1 44 6 82q-48 -6 -82 -6h-136q-37 0 -82 6q5 -21 6 -78v-133q0 -40 -6 -75q33 6 86 6h130q57 -3 86 -6zM312 379h-129v139h129v-139zM423 649q-13 61 -10 80q-216 28 -350 73q-8 -54 -29 -101q161 5 389 -52zM667 34l75 -28l12 18q19 26 52 80l-74 29q-7 -26 -65 -99z" />
</svg>
