<?xml version="1.0" standalone="no"?>
<!DOCTYPE svg PUBLIC "-//W3C//DTD SVG 1.1//EN" "http://www.w3.org/Graphics/SVG/1.1/DTD/svg11.dtd" >
<svg xmlns="http://www.w3.org/2000/svg" xmlns:xlink="http://www.w3.org/1999/xlink" version="1.1" viewBox="-10 0 1010 1000">
   <path fill="currentColor"
d="M548 -13q88 6 109 15q0 2 -5 6q-20 14 -21 36q-1 5 -2 20q-3 36 -6 49h115q132 -1 177 -13v91q-27 -10 -167 -10h-133q-1 7 -3 20q-6 40 -9 59h76q142 0 178 -10v86q-33 -8 -172 -8h-94q-11 48 -18 71h213q121 0 152 -10v86q-33 -8 -142 -8v91q97 0 129 -8v79
q-26 -8 -127 -8v213q11 59 -149 77q-11 -60 -46 -99q76 9 96 1q23 -6 21 -41v-149h-228q-65 126 -153 235q-46 -36 -97 -48q156 -118 238 -343h-24q-106 0 -143 10v-88q25 10 147 10h40q9 -39 18 -71h-74q-24 0 -39 1q-30 1 -48 5v-82q32 8 171 8q9 -34 12 -79h-30
q-133 -1 -161 10v-87q21 9 161 9h36q8 -67 2 -126zM190 10q88 140 100 171l-84 46q-33 -99 -97 -179zM234 284q-9 48 -10 163v212q36 -43 88 -117q17 71 37 93q-130 122 -176 197q-17 -39 -52 -78q25 -24 24 -83v-304q-76 0 -103 8v-89q14 6 101 6q60 0 91 -8zM718 467h-164
q-17 51 -36 93h200v-93zM597 639q35 81 44 119l-81 24q-7 -65 -46 -121z" />
</svg>
