<?xml version="1.0" standalone="no"?>
<!DOCTYPE svg PUBLIC "-//W3C//DTD SVG 1.1//EN" "http://www.w3.org/Graphics/SVG/1.1/DTD/svg11.dtd" >
<svg xmlns="http://www.w3.org/2000/svg" xmlns:xlink="http://www.w3.org/1999/xlink" version="1.1" viewBox="-10 0 1010 1000">
   <path fill="currentColor"
d="M562 -21q7 62 21 85h250q61 -1 113 -8v83q-66 -8 -115 -8h-625q-73 0 -131 8v-81q42 6 133 6h292q-14 -47 -34 -81zM863 165q-5 42 -6 75v175q0 37 6 83q-62 -6 -83 -6h-538q-41 0 -89 6q5 -36 6 -77v-179q-1 -41 -6 -77q36 6 85 6h526q50 -1 99 -6zM238 223v218h540
v-218h-540zM306 260q47 6 75 6h238q40 0 85 -6q-6 36 -6 74q-1 29 6 73q-57 -6 -75 -6h-250q-39 1 -73 6q6 -45 6 -75q0 -34 -6 -72zM377 310v48h254v-48h-254zM821 528q-5 38 -6 76v73q0 39 6 81q-50 -6 -77 -6h-472q-19 0 -57 4q-17 1 -25 2q6 -30 6 -75v-91q0 -36 -6 -66
q7 1 22 2q40 4 56 4h472q55 0 81 -4zM744 580h-476v37h476v-37zM268 665v40h476v-40h-476zM966 786v87q-64 -8 -103 -8h-675q-80 0 -136 10v-89q39 6 135 12h672q45 -1 107 -12z" />
</svg>
