<?xml version="1.0" standalone="no"?>
<!DOCTYPE svg PUBLIC "-//W3C//DTD SVG 1.1//EN" "http://www.w3.org/Graphics/SVG/1.1/DTD/svg11.dtd" >
<svg xmlns="http://www.w3.org/2000/svg" xmlns:xlink="http://www.w3.org/1999/xlink" version="1.1" viewBox="-10 0 1010 1000">
   <path fill="currentColor"
d="M869 -15q61 84 52 93q-6 2 -20 1q-34 -5 -80 -1q-199 17 -418 32q-16 -39 -48 -76q301 13 514 -49zM73 86q32 5 86 6h87q77 -1 103 -6v81q-24 -6 -103 -6h-89q-66 0 -84 4v-79zM889 143q-1 3 -8 11q-32 33 -75 100h57q54 0 83 -6q-2 55 -1 84q1 32 5 65h-85q7 -24 6 -81
h-423q0 44 4 77h-87q10 -65 4 -145q36 6 109 6h260q41 -72 66 -152q79 26 85 41zM683 104q20 58 29 113l-71 16q-3 -13 -8 -33q-7 -41 -32 -81zM510 117q2 4 8 14q34 55 47 90l-75 25q-12 -45 -50 -99zM347 306v79q-15 -5 -71 -4h-32q-42 197 -101 288l169 -28
q-4 -8 -11 -24q-36 -78 -49 -99l65 -26q6 11 16 30q40 69 80 167l-74 40q-3 8 -12 -34q-140 25 -246 59q-3 -5 -8 -16q-15 -31 -33 -61q76 -15 127 -296h-60q-58 0 -73 6v-83q21 6 99 6h97q90 0 117 -4zM601 613q21 55 80 112q52 -47 79 -112h-159zM419 701q64 -79 111 -216
h-36q-49 1 -91 7v-79q18 6 87 6h60q12 -52 12 -89q95 9 99 24q-1 4 -6 9q-17 15 -26 56h123q80 0 135 -8v79q-25 -6 -135 -5h-145q-21 47 -30 71h185q52 0 103 -4q-52 147 -131 212q103 47 232 48q-43 46 -59 85q-148 -38 -224 -89q-110 72 -217 103q-19 -36 -57 -69
q103 -12 218 -80q-54 -59 -83 -129q-72 139 -171 240q-32 -28 -85 -53q44 -24 131 -119z" />
</svg>
