<?xml version="1.0" standalone="no"?>
<!DOCTYPE svg PUBLIC "-//W3C//DTD SVG 1.1//EN" "http://www.w3.org/Graphics/SVG/1.1/DTD/svg11.dtd" >
<svg xmlns="http://www.w3.org/2000/svg" xmlns:xlink="http://www.w3.org/1999/xlink" version="1.1" viewBox="-10 0 1010 1000">
   <path fill="currentColor"
d="M667 -10q69 2 87 14q1 2 -2 6q-12 27 -12 84h75q27 0 88 -6q-6 19 -6 75v70q39 2 53 -4v71q-3 0 -11 -1q-22 -4 -42 -1v71q1 51 6 80q-21 -6 -93 -6h-72v69l44 34q59 -54 75 -87q30 18 60 47q-2 2 -8 6q-38 22 -88 66q20 20 70 64q21 19 32 29l-66 50q-57 -92 -117 -143
v129q2 49 -21 63q-19 17 -104 28q-5 -44 -34 -85q101 20 90 -28v-66q-55 42 -115 96q-27 -36 -54 -62q73 -21 169 -91v-119h-58q-55 0 -91 8v-78q23 6 93 6h56v-81h-80q-47 -2 -91 6v-75q21 6 91 6h80v-78h-46q-47 0 -63 1q-20 1 -30 3v-75q25 5 91 8h48q0 5 0 -21
q-1 -63 -4 -83zM323 344q18 4 67 4q53 -1 80 -6q-10 32 -10 127v250q63 88 176 108q115 22 318 -17q-33 58 -35 97q-179 2 -250 -5q-76 -5 -111 -25q-35 -17 -80 -57q-31 -27 -43 -28q-26 -8 -100 111q-7 -6 -20 -19q-23 -24 -45 -40q86 -75 121 -123v-304q-33 0 -43 1
q-13 0 -25 3v-77zM28 304q18 3 87 6h119l76 -6v81q-10 -3 -41 -4q-17 -1 -23 -2h-30q-49 239 -101 334l135 -28q-2 -4 -6 -14q-25 -61 -50 -103q17 -4 64 -20q-37 13 4 -2q35 64 93 202l-77 30l-12 -38q-84 20 -212 66q-16 -48 -36 -81q77 -34 117 -346h-28q-58 0 -79 6v-81
zM60 78q34 8 93 10h71q60 0 84 -6v81q-20 -9 -86 -8h-71q-48 0 -64 1q-19 1 -27 3v-81zM419 68q32 85 59 169l-77 27q-21 -106 -54 -176zM827 298h-89v81h89v-81zM827 157h-89v78h89v-78zM563 461q40 33 74 77l-52 40q-43 -59 -71 -82z" />
</svg>
