<?xml version="1.0" standalone="no"?>
<!DOCTYPE svg PUBLIC "-//W3C//DTD SVG 1.1//EN" "http://www.w3.org/Graphics/SVG/1.1/DTD/svg11.dtd" >
<svg xmlns="http://www.w3.org/2000/svg" xmlns:xlink="http://www.w3.org/1999/xlink" version="1.1" viewBox="-10 0 1010 1000">
   <path fill="currentColor"
d="M595 -8q99 20 107 26q0 1 -7 7q-21 19 -28 37q-6 14 -14 37q-16 42 -34 84h200q48 0 96 -6q-10 48 -12 147q-2 48 -5 178q-7 221 -9 286q-6 79 -171 97q-10 -49 -47 -91q127 11 137 -36q9 4 23 -464q1 -33 2 -50h-43q-12 251 -52 355q-34 105 -165 249q-29 -26 -91 -38
q249 -155 246 -566h-43q-14 278 -153 425q-37 -23 -72 -32v155q1 71 8 105h-89q6 -18 6 -55h-198q0 25 5 61h-89q6 -29 6 -107v-184q-1 -52 -6 -80q53 6 89 6h191q24 0 83 -6q-6 41 -6 66v27q142 -113 165 -381h-28q-10 23 -46 91q-10 18 -15 28q-18 -35 -34 -45v93
q1 36 6 74q-68 -8 -89 -8h-282q-33 0 -79 8q5 -20 5 -78v-190q0 -49 -5 -80q39 5 79 6h50q-19 -43 -72 -109l64 -32q3 4 10 14q57 73 69 92l-64 35h104q49 -68 77 -149q92 31 91 40q0 2 -9 9q-46 38 -90 100h62q24 0 79 -6q-6 44 -6 72v61q78 -126 93 -278zM435 203h-125
v214h125v-214zM131 203v214h119v-214h-119zM198 237q19 50 38 132l-57 10q-11 -76 -34 -133zM385 594h-200v69h200v-69zM185 717v69h200v-69h-200zM405 296q-1 3 -4 10q-16 42 -36 81q-27 -16 -48 -22q34 -66 52 -132q60 13 60 19q0 1 -3 4q-12 18 -21 40z" />
</svg>
