<?xml version="1.0" standalone="no"?>
<!DOCTYPE svg PUBLIC "-//W3C//DTD SVG 1.1//EN" "http://www.w3.org/Graphics/SVG/1.1/DTD/svg11.dtd" >
<svg xmlns="http://www.w3.org/2000/svg" xmlns:xlink="http://www.w3.org/1999/xlink" version="1.1" viewBox="-10 0 1010 1000">
   <path fill="currentColor"
d="M258 -8q109 35 109 38q0 5 -11 17q-16 18 -25 35q-10 17 -31 66q-22 47 -34 71v438q1 190 8 248h-101q12 -108 12 -250v-311q-12 17 -57 88q-22 35 -35 55q-27 -34 -73 -60q180 -162 238 -435zM911 60v91q-31 -8 -135 -8h-105v371h121q119 -4 160 -10v94
q-31 -10 -156 -10h-125v156q1 110 6 157h-98q8 -35 10 -161v-152h-141q-118 3 -152 10v-94q37 7 150 10h143v-371h-63q-112 0 -135 6v-89q24 3 131 10h250q106 -4 139 -10zM804 215q95 28 95 39q-2 6 -7 10q-13 9 -23 32q-3 8 -10 24q-34 88 -67 151l-82 -30q61 -77 94 -226
zM438 217q72 130 98 200l-86 34q-18 -88 -89 -199z" />
</svg>
