<?xml version="1.0" standalone="no"?>
<!DOCTYPE svg PUBLIC "-//W3C//DTD SVG 1.1//EN" "http://www.w3.org/Graphics/SVG/1.1/DTD/svg11.dtd" >
<svg xmlns="http://www.w3.org/2000/svg" xmlns:xlink="http://www.w3.org/1999/xlink" version="1.1" viewBox="-10 0 1010 1000">
   <path fill="currentColor"
d="M234 0q51 15 107 42q0 6 -9 13q-16 11 -24 29q-27 51 -70 149v456q0 167 6 206h-95q0 -7 2 -26q8 -86 8 -178v-324q-24 61 -70 127l-63 -71q148 -150 208 -423zM669 10q103 0 107 10q1 6 -6 11q-11 9 -12 25q-9 99 -12 171h81q11 -1 32 -2q60 -5 74 -8v85q-33 -8 -100 -8
h-87q-6 12 -6 42q107 155 202 313l-83 50q-74 -174 -139 -266q-26 145 -121 284q-31 -24 -93 -36q135 -102 163 -387h-44q-67 1 -105 10v-85q19 4 101 8h52q3 -190 -4 -217zM413 80q3 5 8 15q49 87 71 134l-77 35q-29 -92 -72 -154zM482 328q-5 50 -6 115v262q49 108 472 63
q-22 37 -33 99q-205 1 -312 -13q-72 -16 -137 -65q-22 -17 -29 -17q-30 12 -106 97q-5 -6 -15 -19q-25 -31 -40 -48q21 -18 88 -64q32 -22 39 -27v-306h-60q-25 0 -67 6v-83q5 1 15 2q58 6 80 6q65 0 111 -8z" />
</svg>
