<?xml version="1.0" standalone="no"?>
<!DOCTYPE svg PUBLIC "-//W3C//DTD SVG 1.1//EN" "http://www.w3.org/Graphics/SVG/1.1/DTD/svg11.dtd" >
<svg xmlns="http://www.w3.org/2000/svg" xmlns:xlink="http://www.w3.org/1999/xlink" version="1.1" viewBox="-10 0 1010 1000">
   <path fill="currentColor"
d="M238 -4q98 38 105 46q0 1 -5 6q-20 16 -30 36q-10 19 -30 61q-22 49 -36 74v539q2 70 12 137h-103q9 -65 10 -133v-399q-9 14 -28 44q-41 66 -62 91q-15 -43 -53 -87q168 -197 220 -415zM367 58q70 9 105 10h270q70 -1 141 -8q-8 45 -8 89v288q1 59 8 95q-10 -1 -28 -3
q-48 -5 -65 -5h-332q-50 1 -91 6q5 -28 6 -85v-308q0 -33 -6 -79zM655 135v123h141v-123h-141zM452 135v123h131v-123h-131zM583 322h-131v135h131v-135zM796 322h-141v135h141v-135zM635 544q43 89 61 139l-71 28q-22 -80 -65 -149zM833 560q83 132 125 212l-85 40
q-39 -114 -119 -224zM440 582q14 1 44 3q54 3 50 7q-17 38 -14 69v58q-1 54 17 65q12 14 82 12q79 1 97 -18q23 -18 22 -87q39 34 87 44q-21 85 -50 108q-30 27 -106 26h-94q-86 1 -107 -17q-24 -14 -22 -78v-99q0 -64 -6 -93zM333 590q39 12 80 25q-17 33 -50 142
q-16 51 -24 75l-79 -26q49 -86 73 -216z" />
</svg>
