<?xml version="1.0" standalone="no"?>
<!DOCTYPE svg PUBLIC "-//W3C//DTD SVG 1.1//EN" "http://www.w3.org/Graphics/SVG/1.1/DTD/svg11.dtd" >
<svg xmlns="http://www.w3.org/2000/svg" xmlns:xlink="http://www.w3.org/1999/xlink" version="1.1" viewBox="-10 0 1010 1000">
   <path fill="currentColor"
d="M641 -6q26 2 61 5q61 4 58 11q0 1 -4 4q-25 16 -28 72q-1 9 -2 29q-5 57 -6 88h66q59 0 123 -8q-1 16 -4 46q-11 108 -10 126q-7 229 -16 360q-2 86 -33 106q-29 27 -142 38q-1 -55 -35 -97q89 15 109 -2q23 -11 24 -87q3 -56 13 -285q4 -84 6 -128h-101
q-18 460 -266 631q-36 -37 -91 -53q59 -25 95 -56q-34 -7 -121 -6h-109q-78 0 -145 8q1 -12 4 -38q6 -55 6 -91v-315q-2 -223 -10 -286q86 8 161 8h157q89 0 133 -8v89q-77 -10 -139 -10h-224v572h166q94 0 139 -6v65q152 -136 167 -504q-53 0 -111 8v-87q65 12 115 10v-64
q0 -115 -6 -145zM500 209v77q-54 -8 -109 -8v109q79 1 113 -8v78q-53 -8 -113 -8v119q86 1 123 -8v79q-49 -10 -149 -10h-24q-82 0 -154 10v-79q44 8 103 8h31v-119q-73 0 -113 8v-78q47 8 113 8v-109h-15q-42 0 -110 8v-77q39 8 127 8h44q68 0 133 -8z" />
</svg>
