<?xml version="1.0" standalone="no"?>
<!DOCTYPE svg PUBLIC "-//W3C//DTD SVG 1.1//EN" "http://www.w3.org/Graphics/SVG/1.1/DTD/svg11.dtd" >
<svg xmlns="http://www.w3.org/2000/svg" xmlns:xlink="http://www.w3.org/1999/xlink" version="1.1" viewBox="-10 0 1010 1000">
   <path fill="currentColor"
d="M569 -8q74 3 104 8q11 1 2 16q-17 31 -16 60l-4 101h119q63 0 111 -6q-6 38 -6 109v526q1 48 -29 64q-22 16 -124 25q-3 -60 -43 -109q116 31 113 -30v-166l-80 37q-50 -116 -105 -182q-26 89 -121 216q-29 -30 -69 -46v137q0 58 2 87q1 34 6 56h-100q9 -49 8 -147v-480
q1 -57 -6 -95q60 3 125 4h121q1 -125 -8 -185zM163 22q77 55 154 121l-63 66q-86 -81 -155 -119zM649 248q-6 78 -12 119q46 56 159 207v-326h-147zM89 250l173 121l-64 70q-51 -49 -166 -121zM421 248v346q52 -36 89 -107q56 -106 63 -239h-152zM161 481q32 45 83 55
q-42 106 -103 367q-56 -41 -99 -59q75 -176 119 -363z" />
</svg>
