<?xml version="1.0" standalone="no"?>
<!DOCTYPE svg PUBLIC "-//W3C//DTD SVG 1.1//EN" "http://www.w3.org/Graphics/SVG/1.1/DTD/svg11.dtd" >
<svg xmlns="http://www.w3.org/2000/svg" xmlns:xlink="http://www.w3.org/1999/xlink" version="1.1" viewBox="-10 0 1010 1000">
   <path fill="currentColor"
d="M175 4q87 50 158 111l-61 74q-54 -61 -157 -119zM849 12q-9 57 -10 129q0 57 8 125q-4 0 -14 -1q-91 -7 -139 -7h-160q-69 0 -169 12q8 -52 8 -125q0 -75 -8 -133q80 8 167 8h153q50 0 132 -6q23 -1 32 -2zM448 92v95h316v-95h-316zM93 229q84 42 187 111l-66 79
q-84 -76 -180 -119zM881 316q-8 38 -8 131v85q0 60 8 131h-103q9 -51 8 -123v-141h-346v147q0 57 1 79q1 28 5 46h-101q7 -62 8 -125v-91q0 -106 -8 -139q94 8 143 8h250q95 0 143 -8zM558 449q16 2 45 5q58 5 56 9q1 1 -2 8q-13 28 -16 63q-8 180 -107 246q-80 61 -211 111
q-19 -39 -75 -77q205 -48 257 -117q62 -66 53 -248zM185 461q35 33 83 47q-81 272 -95 377q-56 -34 -108 -55q77 -132 120 -369zM685 641q74 42 259 167l-69 73q-108 -93 -250 -178z" />
</svg>
