<?xml version="1.0" standalone="no"?>
<!DOCTYPE svg PUBLIC "-//W3C//DTD SVG 1.1//EN" "http://www.w3.org/Graphics/SVG/1.1/DTD/svg11.dtd" >
<svg xmlns="http://www.w3.org/2000/svg" xmlns:xlink="http://www.w3.org/1999/xlink" version="1.1" viewBox="-10 0 1010 1000">
   <path fill="currentColor"
d="M417 -8q50 0 91 8q14 3 6 20q-14 29 -14 56v438q17 268 -208 401q-40 -39 -94 -55q138 -68 180 -136q46 -68 45 -210v-402q0 -85 -6 -120zM153 18q87 55 135 94l-62 71q-74 -74 -133 -101zM538 42q32 9 91 8h238q57 1 85 -8v89q-35 -10 -85 -10h-101v123h63q60 1 98 -7
q-9 32 -8 103v335q1 40 -22 55q-20 16 -91 28q1 -52 -28 -93q73 18 73 -26v-331h-83v486q-1 80 8 111h-95q6 -30 11 -111v-486h-73v343q0 67 6 97h-81q8 -22 8 -99v-317q1 -58 -8 -95q61 7 97 7h49v-123h-61q-54 -1 -91 8v-87zM95 242q67 36 151 90l-56 73q-4 -3 -11 -8
q-86 -66 -137 -89zM145 461l83 43q-26 87 -67 236q-13 48 -18 66q-4 16 -7 39q-1 30 -17 18q-13 -7 -34 -17q-58 -29 -53 -30q76 -146 113 -355zM276 129q83 2 93 18q1 4 -2 14q-10 25 -10 64v351q0 22 5 82q1 13 1 19h-89q8 -56 8 -101v-341q0 -54 -6 -106z" />
</svg>
