<?xml version="1.0" standalone="no"?>
<!DOCTYPE svg PUBLIC "-//W3C//DTD SVG 1.1//EN" "http://www.w3.org/Graphics/SVG/1.1/DTD/svg11.dtd" >
<svg xmlns="http://www.w3.org/2000/svg" xmlns:xlink="http://www.w3.org/1999/xlink" version="1.1" viewBox="-10 0 1010 1000">
   <path fill="currentColor"
d="M774 -6q13 80 22 116h21q71 0 116 -8v87q-35 -7 -110 -8h-136q-92 1 -112 8v-85q27 8 106 8h45q-1 -3 -4 -11q-20 -60 -41 -97zM163 16q80 69 131 131q-3 -65 -6 -95q11 1 7 1q71 7 104 9h59q76 0 117 -8q-8 32 -8 83v137q0 52 8 86q-31 -7 -103 -8h-111q-3 58 -10 97
h101q102 -3 117 -8q-7 26 -7 97v141q0 129 7 153h-89q12 -37 12 -88h-103q0 54 6 121h-87q6 -40 7 -128v-161q-19 54 -81 159q-28 -22 -69 -42q-23 93 -44 182q-34 -32 -83 -67q74 -147 95 -355q44 38 79 49q-22 84 -31 127q-5 26 -10 46q75 -83 103 -205q15 -60 19 -135
q5 -74 1 -178l-72 50q-59 -86 -127 -141zM363 129v155h137v-155h-137zM813 207q105 18 98 28q-1 3 -8 10q-18 18 -24 33q-7 15 -22 48q-25 54 -40 89q80 -1 121 -8v87q-18 -7 -115 -7h-33v119h12q80 -1 127 -8v85q-33 -7 -119 -8h-20v103q0 96 8 125h-88q8 -35 8 -125v-103
h-28q-86 1 -111 8v-85q38 8 113 8h26v-121h-14q-112 -1 -125 7v-85q26 8 131 8h44q36 -65 59 -208zM685 213q28 65 59 154l-73 16q-21 -90 -60 -154zM77 242l145 112l-63 65q-45 -51 -135 -117zM387 512v169h103v-169h-103z" />
</svg>
