<?xml version="1.0" standalone="no"?>
<!DOCTYPE svg PUBLIC "-//W3C//DTD SVG 1.1//EN" "http://www.w3.org/Graphics/SVG/1.1/DTD/svg11.dtd" >
<svg xmlns="http://www.w3.org/2000/svg" xmlns:xlink="http://www.w3.org/1999/xlink" version="1.1" viewBox="-10 0 1010 1000">
   <path fill="currentColor"
d="M187 -6q18 12 146 141l-73 60q-66 -82 -141 -145zM869 14q-8 46 -8 135v58q0 71 8 147q-48 -8 -161 -8h-59v186h159q92 0 136 -8v80q-36 -8 -136 -8h-100v121q-1 58 10 66q7 12 62 11q44 0 62 -23q17 -19 25 -88q36 34 89 55q-28 90 -60 112q-28 25 -118 23
q-104 1 -123 -15q-24 -12 -22 -80v-182h-70q4 216 -269 305q-19 -45 -64 -81q253 -32 256 -224h-51q-51 0 -133 8v-80q85 8 138 8h129v-186h-73q-85 0 -149 8q6 -49 6 -147v-54q0 -86 -6 -139q93 8 209 8h91q154 0 222 -8zM782 90h-349v65h349v-65zM782 213h-349v65h349v-65
zM81 225q75 39 165 107l-63 69q-58 -56 -157 -115zM804 358q64 41 73 51q1 5 -8 8q-19 7 -36 24q-6 6 -20 22q-28 32 -51 55q-33 -23 -60 -33q54 -58 102 -127zM417 362q3 3 10 12q51 59 79 99l-66 39q-24 -40 -87 -111zM202 461q35 43 72 63q-88 222 -131 351
q-51 -57 -83 -81q81 -102 142 -333z" />
</svg>
