<?xml version="1.0" standalone="no"?>
<!DOCTYPE svg PUBLIC "-//W3C//DTD SVG 1.1//EN" "http://www.w3.org/Graphics/SVG/1.1/DTD/svg11.dtd" >
<svg xmlns="http://www.w3.org/2000/svg" xmlns:xlink="http://www.w3.org/1999/xlink" version="1.1" viewBox="-10 0 1010 1000">
   <path fill="currentColor"
d="M208 -15q72 88 102 138l-80 40q-1 -3 -4 -8q-49 -92 -89 -129zM891 42q-4 27 -5 55q-1 14 -1 30v40v605q3 88 -25 106q-25 25 -134 33q-7 -65 -38 -103q75 13 95 1q21 -7 19 -57v-633h-328q-72 0 -123 10v-85q46 9 121 8h296q57 1 123 -10zM438 139q17 0 50 3q24 3 34 3
q6 0 0 20q-8 22 -8 34v103h115v-127q72 6 77 6q13 2 7 14q-9 22 -9 45v38q0 37 1 53q2 19 7 38q-30 -4 -52 -6q-18 -1 -49 -1h-258q-70 0 -105 7q5 -25 7 -45q1 -16 1 -48q0 -40 -1 -57q-1 -20 -3 -36q45 0 79 6q16 2 8 19q-7 17 -8 30v64h111v-105q1 -40 -4 -58zM77 171
q54 0 98 10q11 2 5 12q-15 27 -15 61v518q1 86 10 133h-102q5 -23 7 -50q0 -13 1 -29v-46v-518q0 -7 -2 -38q-1 -32 -2 -53zM262 415q35 9 113 8h190q59 1 118 -10q-6 38 -6 89v28q-1 56 8 95q-54 -10 -116 -10h-214v72q-1 42 10 48q8 8 66 9h89q67 1 90 -17q27 -18 33 -70
q35 31 69 41q7 2 10 3q-21 73 -53 89q-31 21 -131 20h-129q-88 3 -106 -15q-23 -14 -21 -84v-159q28 5 48 7q17 1 47 1h220v-81h-224q-67 -1 -111 8v-72z" />
</svg>
