<?xml version="1.0" standalone="no"?>
<!DOCTYPE svg PUBLIC "-//W3C//DTD SVG 1.1//EN" "http://www.w3.org/Graphics/SVG/1.1/DTD/svg11.dtd" >
<svg xmlns="http://www.w3.org/2000/svg" xmlns:xlink="http://www.w3.org/1999/xlink" version="1.1" viewBox="-10 0 1010 1000">
   <path fill="currentColor"
d="M163 -6q87 -2 99 10q1 3 -5 10q-19 23 -19 54v165l62 -20l12 27q32 72 45 94v-28q2 -107 -8 -131q44 10 151 10v-75h-30q-121 0 -151 7v-85q16 6 49 8q31 2 106 2h276q71 0 104 -2q34 -2 55 -8v85q-14 -4 -49 -6q-17 0 -40 -1h-64h-46v73q124 0 161 -6q-8 17 -8 121
q-1 99 8 117q-18 -5 -56 -6q-37 -2 -134 -2h-141q-165 0 -193 8q7 -25 8 -55l-61 17q-13 -53 -56 -125v449q0 108 2 144q2 39 8 52h-91q10 -24 10 -194v-580q0 -50 -4 -129zM565 110v73h80v-73h-80zM58 207q15 2 45 4q37 2 40 4q0 6 -3 15q-8 22 -13 54q-2 19 -12 81
q-9 60 -16 104q-51 -7 -75 -2q38 -111 34 -260zM645 242h-78v106h78v-106zM502 244h-65v104h65v-104zM784 242h-74v106h74v-106zM365 455q26 8 171 8h160q70 0 99 -2q28 -1 48 -6v79q-21 -5 -48 -6q-29 -2 -101 -2h-154q-87 0 -118 1q-38 2 -57 7v-79zM317 570q25 8 169 8
h266q137 0 173 -8v81q-38 -10 -171 -10h-103v189q1 37 -26 51q-26 14 -105 20q-7 -47 -40 -95q62 16 80 10q19 -3 17 -36v-139h-95q-115 1 -165 10v-81zM446 663q19 13 46 30q24 15 22 16q-2 4 -8 7q-15 6 -32 21q-21 19 -79 66q-55 45 -62 53l-69 -42q87 -47 182 -151z
M752 663q109 83 169 143l-78 56q-61 -94 -147 -155z" />
</svg>
