<?xml version="1.0" standalone="no"?>
<!DOCTYPE svg PUBLIC "-//W3C//DTD SVG 1.1//EN" "http://www.w3.org/Graphics/SVG/1.1/DTD/svg11.dtd" >
<svg xmlns="http://www.w3.org/2000/svg" xmlns:xlink="http://www.w3.org/1999/xlink" version="1.1" viewBox="-10 0 1010 1000">
   <path fill="currentColor"
d="M577 -8q66 2 110 14q0 3 -5 8q-14 19 -17 46q-2 15 -8 58q-1 9 -2 13h77q129 0 177 -12q-6 23 -6 98q0 77 6 97h-94q14 -41 14 -115h-182q-17 70 -46 149l74 -2q0 73 21 142q77 -52 139 -126q44 36 74 69q-2 3 -8 3q-22 2 -50 25q-57 44 -131 91q48 122 228 222
q-58 37 -79 68q-234 -156 -274 -480q-35 81 -57 117v303l12 -6q63 -31 121 -55q-3 47 10 77q-154 61 -214 103q-4 3 -5 4q-3 -12 -24 -53q-7 -11 -9 -16q35 -18 35 -54v-218q-40 62 -131 147q-29 -37 -73 -64q253 -163 307 -444h-121q0 94 8 103h-85q1 7 14 34t16 37l-74 30
q-28 -107 -67 -178l61 -22q23 44 44 91q6 -26 6 -75q-1 -69 -8 -96q32 8 133 8h83q14 -118 0 -141zM62 199q84 7 89 14q0 3 -4 9q-11 16 -14 44q-1 10 -3 35q-10 138 -15 187q-51 -15 -83 -15q28 -128 30 -274zM246 679q0 98 3 139q2 45 9 63h-105q8 -17 11 -64
q3 -43 3 -134v-556q0 -81 -8 -113q9 0 25 1q88 1 82 9q0 7 -6 15q-14 21 -14 55v585z" />
</svg>
