<?xml version="1.0" standalone="no"?>
<!DOCTYPE svg PUBLIC "-//W3C//DTD SVG 1.1//EN" "http://www.w3.org/Graphics/SVG/1.1/DTD/svg11.dtd" >
<svg xmlns="http://www.w3.org/2000/svg" xmlns:xlink="http://www.w3.org/1999/xlink" version="1.1" viewBox="-10 0 1010 1000">
   <path fill="currentColor"
d="M679 -8q11 37 19 104h96q48 0 127 -4v77q-8 -1 -26 -2q-52 -4 -89 -4h-64q85 33 81 38q0 6 -10 15q-28 26 -55 68h85q50 0 94 -8q-7 29 -6 70q0 28 3 64q1 5 1 7h-86q-1 0 2 -12q6 -33 6 -53h-409q-6 38 6 63h-87q1 -6 2 -16q2 -20 2 -53v-29q1 -20 -2 -37q49 4 117 4
h202q34 -60 44 -121h-248q-66 0 -103 6v-81q48 8 97 8h139q-16 -61 -34 -98zM560 175q23 37 45 83l-81 22q-15 -59 -40 -89zM671 393q9 20 23 64l6 18h125q69 0 104 -6v81q-1 1 -22 -2q-52 -6 -82 -6h-238q0 25 -4 71h165q66 0 101 -3h6q-8 83 -22 180q-6 54 -35 70
q-25 17 -123 27q-4 -47 -36 -93q79 11 101 -11q25 -17 30 -100h-203q-29 125 -198 218q-31 -50 -81 -69q227 -48 224 -290h-36q-70 -1 -93 4v-77q42 6 97 6h139q-12 -36 -30 -74zM355 481q-20 7 -59 23q-21 10 -32 14v240q3 73 -24 88q-25 22 -133 31q2 -48 -36 -101
q74 16 93 7q22 -7 21 -52v-181q-22 9 -73 37q-26 13 -37 19q-2 -7 -7 -22q-15 -49 -26 -66q27 -6 143 -47v-201h-58q-42 0 -77 6v-79q21 0 71 4h6h58v-66q0 -96 -10 -123q103 0 105 10q0 2 -3 8q-13 23 -13 62v109h32q29 0 65 -6v81q-24 -6 -65 -6h-32v173q3 -1 8 -4
q61 -27 75 -36q-6 33 8 78z" />
</svg>
