<?xml version="1.0" standalone="no"?>
<!DOCTYPE svg PUBLIC "-//W3C//DTD SVG 1.1//EN" "http://www.w3.org/Graphics/SVG/1.1/DTD/svg11.dtd" >
<svg xmlns="http://www.w3.org/2000/svg" xmlns:xlink="http://www.w3.org/1999/xlink" version="1.1" viewBox="-10 0 1010 1000">
   <path fill="currentColor"
d="M183 -19q47 45 101 123l-76 51q-33 -71 -91 -133zM329 24q50 8 113 8h338q59 1 123 -10q-10 50 -10 113l2 675q3 55 -24 72q-22 18 -123 33q2 -57 -38 -97q60 9 79 2q21 -7 21 -36v-684h-370q-53 -1 -111 8v-84zM440 117q8 1 22 2q46 5 58 8q10 1 3 13q-5 11 -7 19
q-4 13 -4 30h101q57 1 89 -6q-8 30 -8 59v56q-1 38 6 60q-33 -7 -81 -6h-109v47h165q54 0 87 -8v78q-33 -10 -89 -10h-365q-66 -1 -102 8v-78q53 8 113 10h125v-47h-97q-45 -1 -83 6q9 -14 8 -56v-60q0 -34 -6 -61q33 8 87 8h91q1 -52 -4 -72zM93 189q1 -1 49 5q33 4 43 5
q17 1 8 14q-16 24 -16 47v500q0 90 8 139h-102q7 -45 10 -133v-577zM629 237h-119v67h119v-67zM339 237v67h105v-67h-105zM266 496q59 9 113 10h200q62 0 115 -10q-6 24 -6 72v47q-1 70 8 94h-95q10 -63 10 -90v-57h-258v59q0 55 10 88h-99q8 -33 8 -88v-33q1 -68 -6 -92z
M442 584q75 5 80 14q1 2 -2 6q-8 15 -10 33q-19 101 -81 155q-58 46 -161 73q-22 -45 -60 -77q106 3 183 -51q49 -44 51 -153zM532 695l172 99l-57 60q-73 -68 -159 -106z" />
</svg>
