<?xml version="1.0" standalone="no"?>
<!DOCTYPE svg PUBLIC "-//W3C//DTD SVG 1.1//EN" "http://www.w3.org/Graphics/SVG/1.1/DTD/svg11.dtd" >
<svg xmlns="http://www.w3.org/2000/svg" xmlns:xlink="http://www.w3.org/1999/xlink" version="1.1" viewBox="-10 0 1010 1000">
   <path fill="currentColor"
d="M528 695v83h282v-83h-282zM421 187l55 -32q18 26 56 115l-56 32q-20 -57 -55 -115zM849 302q-16 -7 -45 -20q-12 -5 -18 -8q30 -51 63 -123q27 18 60 36q-43 75 -60 115zM625 104v261h75v-261h-75zM417 38q96 6 166 6h163q29 0 119 -4q36 -1 52 -2v72q-5 0 -16 -1
q-95 -5 -129 -5h-14v261h42q55 0 148 -5v71q-91 -6 -170 -6h-242q-43 0 -143 6v-71q74 4 139 5h35v-261h-19q-33 0 -122 5q-6 1 -9 1v-72zM458 483q100 5 179 5h50q77 0 192 -5q-1 13 -2 44q-4 81 -4 108v119q0 37 4 95q1 22 2 32h-73q0 -9 3 -31q1 -8 1 -12h-282q1 9 2 22
q1 16 2 25h-74q1 -13 2 -39q4 -59 4 -90v-111q0 -46 -6 -154v-8zM528 548v87h282v-87h-282zM363 473q-17 7 -78 36q-12 6 -19 9v282q11 84 -133 103q-5 -48 -32 -95q104 11 95 -38v-226q-58 28 -103 62q-22 -41 -39 -80q63 -20 142 -55v-181h-27q-66 -1 -104 8v-73
q37 9 104 8h27v-120q0 -46 -8 -99q41 -2 82 6q12 6 4 22q-7 13 -8 36v155q50 -1 103 -8v73q-19 -3 -89 -7q-9 -1 -14 -1v155q28 -10 89 -44q0 34 8 72z" />
</svg>
