<?xml version="1.0" standalone="no"?>
<!DOCTYPE svg PUBLIC "-//W3C//DTD SVG 1.1//EN" "http://www.w3.org/Graphics/SVG/1.1/DTD/svg11.dtd" >
<svg xmlns="http://www.w3.org/2000/svg" xmlns:xlink="http://www.w3.org/1999/xlink" version="1.1" viewBox="-10 0 1010 1000">
   <path fill="currentColor"
d="M169 2q90 0 99 12q2 1 -2 7q-20 31 -20 85v97q30 0 50 -1q22 -1 53 -3v75q-31 -3 -52 -3q-18 -1 -51 -1v155q54 -19 101 -40q-9 33 0 84q-14 2 -54 16q-32 11 -47 15v276q15 77 -145 91q0 -47 -35 -90q-10 -12 -8 -15q116 21 117 -16v-226q-96 36 -113 54q-6 -48 -24 -97
q62 -6 137 -30v-177q-33 0 -55 1q-25 2 -58 7v-81q45 9 113 8v-99q0 -32 -4 -82q-2 -18 -2 -22zM464 -4q78 3 92 10q2 1 -2 8q-16 26 -16 66v16q59 0 93 -6v71q-21 -6 -93 -6v74q65 1 89 -6v73q-27 -7 -89 -6v68q64 0 91 -6v71q-33 -6 -91 -8q0 66 6 93h-80q6 -34 6 -91
q-59 -3 -107 8v-73q39 6 107 6v-70q-60 0 -87 6v-73q44 8 87 6v-72q-60 -3 -103 6v-73q26 5 103 6v-18q-1 -44 -6 -80zM583 514q85 3 98 16q0 4 -5 10q-13 19 -19 48h139q113 -3 144 -8v75q-46 -8 -148 -8h-96q58 142 268 167q-49 44 -69 85q-223 -69 -252 -250
q-42 169 -280 248q-30 -48 -75 -71q225 -31 283 -179h-51q-122 0 -167 8v-75q79 8 169 8h57q0 -34 4 -74zM712 135q-27 -1 -55 8v-81q17 5 81 6h85q67 -1 106 -4q-5 50 -12 185q-9 165 -16 186q-16 58 -123 65q-5 -40 -36 -87q72 12 83 -8q18 1 24 -270h-71q2 263 -117 365
q-45 -31 -84 -37q138 -57 135 -328z" />
</svg>
