<?xml version="1.0" standalone="no"?>
<!DOCTYPE svg PUBLIC "-//W3C//DTD SVG 1.1//EN" "http://www.w3.org/Graphics/SVG/1.1/DTD/svg11.dtd" >
<svg xmlns="http://www.w3.org/2000/svg" xmlns:xlink="http://www.w3.org/1999/xlink" version="1.1" viewBox="-10 0 1010 1000">
   <path fill="currentColor"
d="M304 -12q12 1 34 4q59 5 57 10q1 2 -4 8q-14 17 -14 38v54h250v-56q0 -36 -4 -56q11 1 31 2q62 5 60 8q1 2 -3 9q-13 23 -13 47v46h94q43 0 69 -2q29 -1 62 -6v87q-53 -8 -131 -8h-96q0 53 8 101h-87q10 -41 10 -101h-250q4 84 10 105h-89q8 -39 8 -103h-100
q-100 1 -133 8v-87q22 9 133 8h100v-52q0 -18 -1 -46q-1 -13 -1 -18zM518 221q32 73 45 125l-79 23h288q55 0 127 -7q-8 32 -8 77l8 119h-101q12 -31 12 -117h-623q-5 71 3 111h-97q7 -47 8 -111q0 -48 -8 -79q50 7 113 7h268q-6 -55 -37 -129zM357 518q100 33 99 42
q1 3 -12 16q-10 10 -13 14q-8 14 -26 46q-101 205 -260 271q-34 -41 -89 -67q252 -65 301 -322zM631 522q2 2 0 10q-4 20 0 38q54 194 278 262q-58 29 -96 77q-219 -119 -279 -379q85 -16 97 -8z" />
</svg>
