<?xml version="1.0" standalone="no"?>
<!DOCTYPE svg PUBLIC "-//W3C//DTD SVG 1.1//EN" "http://www.w3.org/Graphics/SVG/1.1/DTD/svg11.dtd" >
<svg xmlns="http://www.w3.org/2000/svg" xmlns:xlink="http://www.w3.org/1999/xlink" version="1.1" viewBox="-10 0 1010 1000">
   <path fill="currentColor"
d="M587 -6q97 1 107 10q1 4 -4 10q-21 29 -29 94h115q77 0 129 -8v79q-42 -9 -127 -8h-125q61 34 189 100q25 13 37 19l-62 73q-79 -72 -194 -128q-56 82 -204 132q-21 -50 -64 -79q176 -10 214 -117h-79q-71 -1 -119 8v-79q9 1 31 3q60 5 92 5h85q8 -45 8 -114zM161 -4
q96 0 105 12q2 2 -2 8q-20 37 -20 125v111q73 0 103 -8v84q-36 -8 -103 -8v270q57 -17 119 -48q-11 34 -2 89q-161 41 -301 102q-8 -56 -30 -98q69 -6 141 -25v-290q-39 -2 -102 4q-17 2 -25 2v-82q46 8 127 8v-125q1 -79 -10 -131zM956 371v78q-41 -8 -111 -8v337
q2 73 -23 90q-17 19 -128 35q-3 -58 -37 -99q69 12 89 6q21 -5 20 -36v-333h-286q-41 0 -108 6q-19 1 -27 2v-78q2 0 7 1q69 7 130 7h328q81 0 146 -8zM401 508q67 4 107 4h67q69 0 108 -4q-4 31 -4 86v85q0 56 4 91h-82q4 -20 4 -39h-131q1 29 4 47h-77q4 -64 4 -117v-71
q0 -52 -4 -82zM476 572v99h131v-99h-131z" />
</svg>
