<?xml version="1.0" standalone="no"?>
<!DOCTYPE svg PUBLIC "-//W3C//DTD SVG 1.1//EN" "http://www.w3.org/Graphics/SVG/1.1/DTD/svg11.dtd" >
<svg xmlns="http://www.w3.org/2000/svg" xmlns:xlink="http://www.w3.org/1999/xlink" version="1.1" viewBox="-10 0 1010 1000">
   <path fill="currentColor"
d="M294 -19q74 1 93 7q1 1 -3 6q-11 15 -11 34v58h218v-54q0 -41 -4 -49q72 -2 96 5q1 1 -3 5q-13 18 -13 35v58h109q79 -1 143 -8v85q-67 -7 -143 -8h-109q1 57 8 99h-90q5 -16 6 -99h-218q1 83 8 111h-91q7 -44 8 -111h-90q-109 3 -150 8v-85q53 7 150 8h90v-58
q0 -39 -4 -47zM429 217q82 -2 99 10q2 2 -3 8q-13 14 -13 31v48h184q83 0 151 -8v79q-64 -7 -151 -8h-184v106h236q132 0 177 -6v85q-61 -8 -159 -8h-254v210q1 103 8 147h-95q8 -53 8 -147v-208h-233q-91 0 -142 8v-87q62 7 142 8h233v-191q0 -50 -4 -77zM609 590
q7 4 22 13q132 73 230 139l-71 74q-90 -87 -238 -163z" />
</svg>
