<?xml version="1.0" standalone="no"?>
<!DOCTYPE svg PUBLIC "-//W3C//DTD SVG 1.1//EN" "http://www.w3.org/Graphics/SVG/1.1/DTD/svg11.dtd" >
<svg xmlns="http://www.w3.org/2000/svg" xmlns:xlink="http://www.w3.org/1999/xlink" version="1.1" viewBox="-10 0 1010 1000">
   <path fill="currentColor"
d="M595 -21q71 1 95 9q1 2 -3 10q-16 36 -16 94h162q78 0 109 -6v75q-44 -6 -111 -6h-160q-1 50 4 68h-80q4 -32 4 -68h-216q1 0 2 22q2 32 4 46h-81q4 -24 4 -68h-149q-74 -1 -113 6v-75q45 6 113 6h149q0 -84 -4 -109q87 0 95 9q1 3 -3 12q-17 34 -17 88h216
q0 -84 -4 -113zM714 332h-180q36 43 99 75q57 -34 81 -75zM484 362q-13 15 -37 41q-23 26 -34 38q-6 -41 -30 -68q79 -63 133 -174q74 24 77 34q0 2 -5 6q-18 15 -36 41h164q78 0 121 -8q-51 101 -141 163q95 33 262 38q-35 35 -49 87q-137 -25 -268 -77q-8 -3 -12 -4
q-92 49 -222 95q-13 -33 -36 -54v107q0 87 6 133h-75q7 -49 6 -129v-144q0 -81 -6 -116q79 8 83 18q0 1 -2 4q-12 21 -12 111q96 -14 200 -63q-40 -28 -87 -79zM629 514q62 33 63 50q0 2 -10 6q-32 11 -65 34q-37 26 -165 83q-21 -30 -65 -54q150 -33 242 -119zM716 586
q69 37 66 49q-1 1 -10 6q-33 16 -58 36q-73 59 -254 119q-18 -32 -49 -58q178 -28 305 -152zM817 657q76 48 78 60q-2 4 -16 11q-32 16 -62 40q-134 115 -373 149q-19 -40 -61 -71q283 -8 434 -189zM353 258q-2 6 -16 18q-46 41 -103 111v379q-3 98 6 139h-81q5 -24 6 -56
q1 -15 2 -34v-47v-307q-54 52 -105 107q-11 -52 -34 -89q142 -103 234 -270q96 44 91 49z" />
</svg>
