<?xml version="1.0" standalone="no"?>
<!DOCTYPE svg PUBLIC "-//W3C//DTD SVG 1.1//EN" "http://www.w3.org/Graphics/SVG/1.1/DTD/svg11.dtd" >
<svg xmlns="http://www.w3.org/2000/svg" xmlns:xlink="http://www.w3.org/1999/xlink" version="1.1" viewBox="-10 0 1010 1000">
   <path fill="currentColor"
d="M321 -17q52 0 68 1q21 1 24 4t-1 12q-13 31 -13 82h190q-1 0 -1 -17q-2 -58 -9 -80q57 0 70 1q18 1 22 4q2 3 -1 14q-9 33 -9 78h147h16q74 1 113 -6v79q-51 -6 -131 -6h-145q0 42 4 58h-82q4 -19 4 -58h-188q-2 42 4 64h-80q5 -13 4 -64h-142q-90 -3 -127 6v-79
q38 6 125 6h144q0 -67 -6 -99zM113 225q29 4 64 5q18 1 42 1h69q87 0 116 -1q37 -1 60 -5q-6 28 -6 98q0 71 6 102q-38 -10 -103 -4h-153v73h143q73 0 111 -6q-4 35 -11 185q-5 91 -7 127q9 90 -172 105q-9 -60 -40 -97q80 10 109 2q28 -6 30 -36l12 -216h-137q-78 0 -111 6
q6 -34 6 -106t-6 -102q33 6 105 6h151v-72h-157q-82 0 -121 6v-71zM853 223q-4 22 -4 92q0 71 4 106q-21 -6 -84 -4h-15h-153v73h171q6 0 17 -1q78 -2 94 -6q-7 57 -13 202q-3 69 -5 103q0 71 -31 89q-29 24 -138 36q-7 -58 -37 -95q86 10 106 -1q23 -9 23 -59l10 -204h-157
q-71 0 -113 6q12 -121 0 -208q36 6 111 6h143v-70h-159q-43 0 -61 1q-23 1 -38 3v-69q26 4 61 5q17 1 41 1h70q78 0 105 -1q34 -1 52 -5zM631 564q9 5 63 68q4 5 6 7l-69 34q-25 -42 -64 -77zM204 572q15 14 40 37q28 26 36 34l-68 40q-24 -39 -69 -77zM754 671q-4 38 -2 71
q-116 15 -224 58q-17 -50 -38 -83q68 -2 250 -43q9 -2 14 -3zM343 673q-11 36 -8 65q-162 28 -248 60q-10 -52 -29 -83q157 -10 285 -42z" />
</svg>
