<?xml version="1.0" standalone="no"?>
<!DOCTYPE svg PUBLIC "-//W3C//DTD SVG 1.1//EN" "http://www.w3.org/Graphics/SVG/1.1/DTD/svg11.dtd" >
<svg xmlns="http://www.w3.org/2000/svg" xmlns:xlink="http://www.w3.org/1999/xlink" version="1.1" viewBox="-10 0 1010 1000">
   <path fill="currentColor"
d="M310 -23h33q62 -3 64 6q1 2 -3 12q-15 32 -15 67h174q0 -65 -3 -87h26q68 -1 67 4q1 3 -3 15q-11 33 -11 68h149q89 0 139 -6v79q-42 -6 -135 -6h-153q-1 51 4 62h-83q3 -18 3 -62h-172q-5 9 4 62h-85q3 -21 3 -62h-142q-77 0 -123 6v-79q41 6 119 6h146q0 -60 -3 -85z
M67 203q37 7 91 6h11h599q90 0 135 -6q-4 24 -4 94q0 71 4 100h-86q4 -41 4 -123h-672q-2 90 4 129h-86q12 -106 0 -200zM202 318q42 6 113 6h314q99 0 135 -6q-5 27 -4 110v45v40q-1 75 4 93q-32 -7 -125 -6h-314q-90 0 -123 6q5 -22 4 -102v-45v-41q1 -75 -4 -100z
M284 379v54h399v-54h-399zM284 487v57h399v-57h-399zM524 610q3 9 9 31q7 25 11 38h264q70 0 127 -8v79q-30 -9 -127 -6h-625q-90 -1 -139 8v-81q51 9 135 8h279q-17 -42 -31 -62zM345 752q72 38 76 54q0 2 -13 4q-31 7 -57 18q-30 12 -114 47q-52 20 -86 34
q-21 -43 -64 -71q149 -19 258 -86zM621 752q93 34 190 81q36 17 54 25l-67 63q-106 -74 -238 -117z" />
</svg>
