<?xml version="1.0" standalone="no"?>
<!DOCTYPE svg PUBLIC "-//W3C//DTD SVG 1.1//EN" "http://www.w3.org/Graphics/SVG/1.1/DTD/svg11.dtd" >
<svg xmlns="http://www.w3.org/2000/svg" xmlns:xlink="http://www.w3.org/1999/xlink" version="1.1" viewBox="-10 0 1010 1000">
   <path fill="currentColor"
d="M587 -19h37q59 -1 59 2q1 1 -1 7q-15 30 -15 86h150q81 0 121 -6v75q-50 -6 -123 -6h-146q-1 63 4 82h-84q6 -49 6 -82h-204q0 59 4 86h-80q4 -33 4 -86h-152q-66 0 -115 6v-75q29 6 113 6h154q0 -64 -6 -93q20 1 49 1q46 0 45 4q1 2 -3 12q-13 35 -13 76h206
q-1 -50 -10 -95zM194 195q15 1 39 2q65 1 59 12q0 3 -4 8q-16 19 -16 81q0 165 -6 292q87 100 147 156v-47q33 6 121 6h95v-68h-97q-70 -3 -111 6v-73q35 6 109 6h260q85 0 115 -6v73q-24 -6 -113 -6h-88v68h127q87 0 109 -6v79q-23 -9 -107 -8h-129q0 91 6 145h-87
q6 -54 6 -145h-93q-77 -3 -123 6v-18q-28 14 -70 56q-31 -76 -95 -147q-38 106 -141 228q-39 -30 -81 -51q167 -121 172 -308v-3q1 -302 -4 -338zM800 304h-276v50h276v-50zM361 310l28 14q53 26 48 30q-1 1 -3 4q-12 12 -27 35q-23 40 -62 127q-37 -29 -63 -37
q51 -92 79 -173zM153 328q0 59 -8 210l-82 -2q22 -91 16 -206zM800 413h-276v50h276v-50zM879 235q-4 16 -5 44q-1 14 -1 35v61q0 75 1 102q1 35 5 55q-21 -6 -99 -6h-228h-12q-57 -1 -94 6q5 -30 4 -108v-43v-46q1 -87 -4 -100q42 5 119 5h215q61 0 99 -5z" />
</svg>
