<?xml version="1.0" standalone="no"?>
<!DOCTYPE svg PUBLIC "-//W3C//DTD SVG 1.1//EN" "http://www.w3.org/Graphics/SVG/1.1/DTD/svg11.dtd" >
<svg xmlns="http://www.w3.org/2000/svg" xmlns:xlink="http://www.w3.org/1999/xlink" version="1.1" viewBox="-10 0 1010 1000">
   <path fill="currentColor"
d="M597 -19q57 0 70 1q19 0 20 3q1 2 -2 12q-10 38 -10 81h150q94 0 123 -6v75q-35 -6 -125 -6h-148q0 50 4 72h-80q4 -30 4 -72h-192q-3 10 8 76h-84q5 -17 4 -76h-162q-87 -3 -125 6v-75q47 7 125 6h162q0 -63 -6 -91h66q18 1 20 3t-1 15q-7 35 -7 73h192q0 -72 -6 -97z
M238 175q8 3 22 8q67 24 61 30q-1 4 -14 15q-19 17 -37 34q134 0 196 -6q-20 40 -64 108q-13 20 -19 29q75 0 117 -6q-10 44 -10 90v303q2 61 -17 78q-19 22 -88 35q-1 -42 -26 -83q73 15 68 -32v-53h-84v57q0 48 1 71q1 26 5 46h-79q6 -45 6 -117v-57h-88q-18 98 -91 194
q-29 -40 -61 -59q55 -54 77 -117q21 -59 20 -165v-155q-10 8 -24 25q-4 5 -6 7q-32 -37 -69 -52q129 -76 204 -228zM359 318h-129q-10 12 -31 35q-20 22 -30 34q50 6 143 6zM196 449v85h80v-85h-80zM343 449v85h84v-85h-84zM276 588h-80l-2 81h82v-81zM427 588h-84v81h84
v-81zM504 453q107 -25 139 -153q-87 0 -129 8v-75q60 5 137 5h127q71 -1 119 -7q-1 10 -2 38q-3 58 -6 89q-3 67 -35 87q-33 26 -120 28q0 -48 -28 -84q58 12 78 6q19 -4 26 -37q4 -23 5 -58h-107q-21 137 -146 210q-18 -27 -58 -57zM603 488q16 5 41 12q38 10 35 14
q0 4 -8 10q-16 14 -28 30h61q0 -47 -4 -71q18 1 45 1q33 0 35 3q3 1 -1 16q-6 29 -5 51h41q42 0 60 -1q21 -1 38 -5v69q-28 -3 -48 -3q-17 -1 -52 -1h-39v84h57q79 1 113 -6v75q-43 -6 -109 -6h-61q-3 102 6 147h-82q6 -45 6 -147h-71q-60 -3 -109 6v-75q37 6 109 6h71v-84
h-91q-6 6 -20 26q-17 23 -24 30q-24 -23 -63 -30q63 -53 97 -151z" />
</svg>
