<?xml version="1.0" standalone="no"?>
<!DOCTYPE svg PUBLIC "-//W3C//DTD SVG 1.1//EN" "http://www.w3.org/Graphics/SVG/1.1/DTD/svg11.dtd" >
<svg xmlns="http://www.w3.org/2000/svg" xmlns:xlink="http://www.w3.org/1999/xlink" version="1.1" viewBox="-10 0 1010 1000">
   <path fill="currentColor"
d="M319 -21q84 -3 88 6q2 2 -1 14q-9 35 -9 71h176q0 -55 -4 -82q84 -5 84 4q2 4 0 12q-8 25 -8 66h153q93 0 131 -6v75q-36 -6 -129 -6h-155q0 44 4 64h-80q4 -18 4 -64h-176q0 42 4 60h-80q4 -30 4 -60h-148q-96 0 -137 6v-75q41 6 137 6h148q0 -63 -6 -91zM163 171
q76 66 127 123l-66 56q-44 -61 -123 -131zM895 205v69q-39 -6 -121 -6h-82v62q98 0 167 -8q-4 32 -4 105t4 103q-41 -9 -117 -6h-317q-73 -3 -117 6q11 -103 0 -208q70 8 164 8v-62h-53q-81 0 -119 6v-69q32 6 119 6h355q85 0 121 -6zM629 268h-93v62h93v-62zM73 340
q71 36 153 105l-57 65q-75 -69 -149 -107zM472 381h-95v92h95v-92zM629 381h-93v92h93v-92zM692 381v92h100v-92h-100zM212 510q3 3 8 10q30 38 56 54q-137 234 -167 313q-33 -56 -67 -85q108 -130 170 -292zM339 562q42 6 127 6h258q75 0 101 -6v69q-29 -6 -101 -6h-262
q-81 0 -123 6v-69zM268 661q42 6 125 6h399q81 0 117 -6v72q-42 -9 -117 -6h-163v129q12 51 -127 63q-7 -52 -34 -87q56 7 70 4q17 -2 16 -16v-93h-165q-68 0 -121 6v-72zM423 735q67 29 71 43q1 3 -7 6q-20 9 -43 24q-85 56 -142 93q-30 -34 -72 -49q106 -42 193 -117z
M726 737q122 73 181 117l-70 59q-69 -71 -168 -131z" />
</svg>
