<?xml version="1.0" standalone="no"?>
<!DOCTYPE svg PUBLIC "-//W3C//DTD SVG 1.1//EN" "http://www.w3.org/Graphics/SVG/1.1/DTD/svg11.dtd" >
<svg xmlns="http://www.w3.org/2000/svg" xmlns:xlink="http://www.w3.org/1999/xlink" version="1.1" viewBox="-10 0 1010 1000">
   <path fill="currentColor"
d="M264 8q87 49 83 62q-5 7 -18 11q-16 5 -23 15q-107 122 -191 198q-12 -13 -52 -42q-13 -10 -19 -14q149 -88 220 -230zM518 14q29 66 44 137l-80 14q-13 -72 -40 -133zM671 58q26 5 91 6h51q82 -3 100 -6v79q-29 -7 -98 -4h-53q-65 0 -91 4v-79zM323 181q45 8 119 8h123
q64 0 116 -8v83q-39 -9 -129 -6h-72q69 41 66 50q-1 2 -6 5q-39 24 -131 134l121 -10q39 -53 49 -77q77 55 78 65q-1 3 -8 5q-23 7 -44 31q-67 79 -198 208l176 -14q-17 -42 -41 -77l65 -26q60 106 89 194l-77 26q-8 -33 -20 -57q-203 13 -274 41q-11 -44 -31 -83
q52 -7 206 -186q-31 3 -169 33q-5 -41 -27 -81q72 -2 170 -181h-39q-7 1 -39 2q-55 2 -73 4v-83zM268 233q88 64 79 69q-1 3 -9 4q-15 3 -21 10q-9 11 -29 32q-35 38 -44 49v290q0 154 6 194h-95q7 -25 12 -151q1 -31 2 -47v-200q-4 4 -12 13q-51 53 -74 74q-23 -42 -53 -74
q144 -83 238 -263zM966 296v81q-7 -2 -48 -3q-26 0 -33 -1h-24v413q2 60 -22 74q-20 18 -117 27q-2 -46 -39 -95q66 9 83 2q19 -5 18 -36v-383h-40q-77 2 -95 8v-85q24 3 107 6h101q62 -2 109 -8z" />
</svg>
