<?xml version="1.0" standalone="no"?>
<!DOCTYPE svg PUBLIC "-//W3C//DTD SVG 1.1//EN" "http://www.w3.org/Graphics/SVG/1.1/DTD/svg11.dtd" >
<svg xmlns="http://www.w3.org/2000/svg" xmlns:xlink="http://www.w3.org/1999/xlink" version="1.1" viewBox="-10 0 1010 1000">
   <path fill="currentColor"
d="M185 0q91 8 93 16q0 1 -2 5q-18 30 -18 108v510l57 -12v-329q0 -100 -5 -127q5 1 16 2q83 11 79 16q0 1 -2 5q-20 26 -20 96v357q1 92 8 135h-83q4 -33 4 -91l-161 26q-23 3 -76 16q-13 3 -19 4q1 -16 2 -46q5 -68 5 -103v-272q0 -105 -5 -135q86 0 89 10q1 2 -2 7
q-14 25 -14 70v391l59 -10v-488q-2 -122 -5 -161zM909 28q-7 41 -8 105v171q1 76 8 105q-15 -3 -69 -5q-25 0 -38 -1h-94v66h119q84 -1 113 -4q-7 40 -7 117v212q2 63 -22 77q-18 17 -113 24q-4 -45 -30 -93q62 13 75 8q16 -3 14 -34v-244h-149v123l48 -4l-22 -49l54 -22
q51 107 63 142q1 3 2 5l-63 19q-3 -12 -12 -37q-2 -5 -2 -6q-124 18 -213 45q-9 -45 -25 -81q10 -1 39 -1q46 -1 64 -3v-131h-127v220q0 91 8 129h-93q8 -50 9 -135v-166q-2 -103 -5 -121q38 6 123 10h85v-66h-99q-57 1 -96 6q4 -34 6 -119v-157q-3 -82 -6 -105q13 1 73 4
q41 3 66 4h161q121 -3 163 -8zM641 100h-109v93h109v-93zM708 100v93h113v-93h-113zM532 248v92h109v-92h-109zM821 248h-113v92h113v-92z" />
</svg>
