<?xml version="1.0" standalone="no"?>
<!DOCTYPE svg PUBLIC "-//W3C//DTD SVG 1.1//EN" "http://www.w3.org/Graphics/SVG/1.1/DTD/svg11.dtd" >
<svg xmlns="http://www.w3.org/2000/svg" xmlns:xlink="http://www.w3.org/1999/xlink" version="1.1" viewBox="-10 0 1010 1000">
   <path fill="currentColor"
d="M131 16q62 55 107 107q9 -17 26 -46q25 -44 32 -59q12 12 34 32q21 20 29 28v-32q39 8 129 8h337q68 -1 121 -8v85q-65 -8 -121 -8h-166q-36 78 -54 112h205q61 0 99 -6q-5 44 -6 77v452q2 79 10 123h-96q10 -31 10 -85h-363q-3 48 8 77h-95q9 -49 10 -115v-448
q-1 -47 -8 -81q52 6 91 6h68q24 -49 33 -112h-83h-19q-64 -1 -110 6v-33q-23 19 -79 87q38 69 49 242q18 293 -49 375q-50 55 -175 63q-4 -57 -30 -105q79 19 125 -2q30 -16 45 -107q15 -97 9 -224q-39 79 -153 206q-27 -28 -81 -53q117 -70 218 -254q-6 -40 -16 -78
q-46 57 -133 119q-25 -37 -65 -55q73 -35 163 -129q-48 -63 -120 -103zM694 298h-109v99h109v-99zM524 298h-62v435h62v-435zM756 298v435h71v-435h-71zM694 453h-109v105h109v-105zM585 613v120h109v-120h-109z" />
</svg>
