<?xml version="1.0" standalone="no"?>
<!DOCTYPE svg PUBLIC "-//W3C//DTD SVG 1.1//EN" "http://www.w3.org/Graphics/SVG/1.1/DTD/svg11.dtd" >
<svg xmlns="http://www.w3.org/2000/svg" xmlns:xlink="http://www.w3.org/1999/xlink" version="1.1" viewBox="-10 0 1010 1000">
   <path fill="currentColor"
d="M347 32l56 52q-26 45 -91 127q43 72 59 202q9 68 9 145q1 82 -7 135q-15 176 -200 196q0 -51 -58 -113q42 12 84 9q39 -4 55 -21q71 -79 46 -319q-78 110 -183 196q-24 -42 -71 -69q146 -81 238 -228q-3 -22 -21 -62q-5 -10 -7 -16q-52 48 -135 105q-18 -36 -67 -67
q91 -37 158 -101q-45 -55 -115 -101l66 -56q20 21 60 59q28 27 41 40q50 -55 83 -113zM613 165v83h113v-83h-113zM804 308h-272v65h272v-65zM804 425h-64h-208v63h272v-63zM480 102h66v-36q0 -43 -4 -70q90 0 89 6q1 5 -5 15q-13 22 -13 47v38h115v-44q0 -15 -1 -41
q-1 -20 -1 -29q79 1 89 12q1 4 -5 12q-16 22 -16 54v36h77q49 0 67 -6v77q-25 -8 -67 -8h-77v83h37q20 0 42 -3q5 -1 8 -1q-6 36 -6 80v170q-1 44 4 58q-34 -4 -89 -4h-88q-6 51 -12 75h153q63 0 95 -6v74q-23 -5 -89 -4h-109q52 109 222 145q-51 29 -77 73
q-163 -70 -214 -218q-64 155 -240 222q-18 -40 -76 -71q192 -35 236 -151h-87q-53 0 -101 6v-74q37 3 97 4h115q1 -3 2 -10q8 -46 8 -65h-91q-61 -1 -78 4q4 -47 4 -99v-131q0 -48 -4 -78q32 4 56 4h34v-83h-60q-41 0 -77 6v-75q5 0 16 2q26 4 55 4z" />
</svg>
