<?xml version="1.0" standalone="no"?>
<!DOCTYPE svg PUBLIC "-//W3C//DTD SVG 1.1//EN" "http://www.w3.org/Graphics/SVG/1.1/DTD/svg11.dtd" >
<svg xmlns="http://www.w3.org/2000/svg" xmlns:xlink="http://www.w3.org/1999/xlink" version="1.1" viewBox="-10 0 1010 1000">
   <path fill="currentColor"
d="M627 -15q119 9 113 17q0 2 -4 10q-21 41 -24 82v252h119v-177q0 -51 -6 -77q10 1 29 2q81 5 75 10q-22 39 -22 69v161q0 24 6 89q-61 -7 -86 -6h-115v355h125v-180q0 -63 -6 -94q103 7 102 12q-14 41 -16 98v178q1 55 12 125h-96q5 -24 6 -67h-323q-38 1 -85 6
q5 -35 6 -86v-190q-1 -50 -6 -87q16 1 45 3q73 5 66 8q-27 49 -26 82v192h117v-355h-97q-30 0 -90 8q6 -36 6 -81v-159q0 -57 -6 -89q102 8 104 14q-20 38 -22 71v165h105v-244q0 -85 -6 -117zM177 -6q26 5 73 13q46 7 42 9l-1 1q-22 18 -35 47q-6 13 -15 37q-20 49 -35 78
h131q29 0 76 -6q-26 83 -60 198q-37 -13 -87 -9q29 -49 51 -116h-138q-42 81 -98 173q-26 -54 -55 -77q118 -151 151 -348zM163 369q111 18 109 28q0 1 -4 7q-20 36 -20 65l-6 293q48 -38 125 -119q5 57 26 90q-116 81 -191 156q-17 -30 -55 -69q16 -17 18 -107l4 -262
q0 -57 -6 -82z" />
</svg>
