<?xml version="1.0" standalone="no"?>
<!DOCTYPE svg PUBLIC "-//W3C//DTD SVG 1.1//EN" "http://www.w3.org/Graphics/SVG/1.1/DTD/svg11.dtd" >
<svg xmlns="http://www.w3.org/2000/svg" xmlns:xlink="http://www.w3.org/1999/xlink" version="1.1" viewBox="-10 0 1010 1000">
   <path fill="currentColor"
d="M175 12q10 2 29 5q82 14 80 19q1 2 -6 9q-20 20 -24 41q-14 69 -20 133h74q50 0 87 -8q-1 7 -3 24q-41 316 -79 396q86 55 127 90q-32 19 -63 63q-30 -34 -101 -85q-75 107 -161 184q-30 -33 -89 -57q124 -72 192 -169q-66 -49 -131 -77q35 -93 64 -290q-70 0 -113 8v-85
q52 8 119 8q17 -129 18 -209zM913 72v93q-77 -8 -171 -8h-155q-99 0 -164 8v-93q70 8 164 8h155q107 0 171 -8zM879 233q-8 46 -8 119v174q0 67 3 147q1 9 1 14h-7q-78 -4 -130 -4h-153q-68 0 -123 4q8 -59 8 -139v-200q0 -83 -6 -113q27 2 56 2q14 1 32 1h47h135
q95 0 145 -5zM226 290l-23 138q-15 88 -20 120q63 40 69 46q47 -123 54 -304h-80zM792 310h-242v115h242v-115zM792 488h-242v124h242v-124zM393 784q37 8 172 8h187q99 0 128 -1q38 -2 53 -7v87q-28 -7 -181 -8h-187q-145 1 -172 8v-87z" />
</svg>
