<?xml version="1.0" standalone="no"?>
<!DOCTYPE svg PUBLIC "-//W3C//DTD SVG 1.1//EN" "http://www.w3.org/Graphics/SVG/1.1/DTD/svg11.dtd" >
<svg xmlns="http://www.w3.org/2000/svg" xmlns:xlink="http://www.w3.org/1999/xlink" version="1.1" viewBox="-10 0 1010 1000">
   <path fill="currentColor"
d="M218 12q8 3 22 9q86 36 79 39q0 3 -9 10q-23 20 -38 45q-19 32 -56 93q-51 82 -73 122l125 -12q8 -14 22 -37q34 -54 47 -86q83 42 84 53q0 3 -6 8q-26 19 -54 62q-78 121 -180 246q121 -18 178 -36q-16 48 -16 91q-151 5 -258 42q-11 -60 -25 -95q40 23 176 -185
q-132 16 -178 36q-10 -50 -26 -83q82 -24 186 -322zM427 56q53 6 138 6h175q84 0 125 -6q-6 31 -6 121v169q0 61 6 97q-42 -6 -115 -6h-188q-89 0 -135 6q6 -39 6 -125v-137q0 -90 -6 -125zM776 133h-260v82h260v-82zM776 280h-260v85h260v-85zM895 498q-5 32 -4 100v10v194
q42 0 65 -4v83q-40 -6 -127 -6h-359q-98 0 -143 6v-83q30 4 72 4v-202q0 -69 -6 -102q51 6 155 6h214q82 0 133 -6zM607 576v226h72v-226h-72zM742 576v226h73v-226h-73zM544 576h-70v226h70v-226zM361 695q-12 45 -12 87q-200 30 -297 80q-5 -77 -14 -108q141 -12 323 -59z
" />
</svg>
