<?xml version="1.0" standalone="no"?>
<!DOCTYPE svg PUBLIC "-//W3C//DTD SVG 1.1//EN" "http://www.w3.org/Graphics/SVG/1.1/DTD/svg11.dtd" >
<svg xmlns="http://www.w3.org/2000/svg" xmlns:xlink="http://www.w3.org/1999/xlink" version="1.1" viewBox="-10 0 1010 1000">
   <path fill="currentColor"
d="M385 8q42 6 123 6h260q71 0 101 -6v72q-27 -6 -105 -6h-109v57h160q69 0 108 -6q-6 25 -6 77q0 53 6 72h-78q4 -36 4 -89h-194v93v15q-1 71 6 102h-78q7 -22 6 -101v-16v-93h-174q3 -1 6 93h-78q9 -83 0 -153q45 6 113 6h133v-57h-79q-83 0 -125 6v-72zM38 34q56 6 141 6
q102 0 134 -6q-7 28 -12 100q-1 14 -1 19l-16 290l53 -2q-7 60 -17 196q-8 93 -10 109q-7 67 -35 83q-29 24 -134 44q-3 -48 -36 -91q76 11 108 -10q31 -18 33 -81q1 -14 3 -51q4 -82 7 -138h-81q-72 0 -108 6q13 -90 16 -339q72 -2 82 8q1 3 -3 12q-14 38 -15 87l-6 167h75
l16 -337h-85q-72 -3 -109 6v-78zM688 225q80 8 127 0v53q-12 -4 -56 -5q-44 1 -71 5v-53zM442 229q47 8 110 0v51q-49 -6 -110 0v-51zM407 320q74 9 141 0v53q-64 -9 -141 0v-53zM688 320q81 9 163 0v55q-25 -6 -81 -6q-57 0 -82 6v-55zM683 485v59h144v-59h-144zM827 592
h-144v65h144v-65zM216 592q-7 29 -4 63q-9 3 -27 8q-97 28 -139 46q-2 -34 -16 -74q74 -12 186 -43zM683 705v65h144v-65h-144zM325 744q62 -51 117 -198q-52 0 -91 6v-69q39 5 97 5q-3 -67 -6 -91q73 -2 88 4q1 3 -3 12q-13 32 -13 75q49 0 85 -3v65q-33 -7 -85 -4v75
l34 -23q12 12 35 42q22 28 34 41v-141q0 -75 -6 -113q150 12 288 0q-6 21 -6 115v228q0 68 8 109h-82q6 -15 8 -57h-142l3 61h-77q7 -23 6 -98v-19v-73l-54 30q-15 -43 -49 -82v133q0 69 6 113h-78q4 -33 5 -58q1 -22 1 -55v-131q-38 86 -85 163q-17 -46 -38 -62z" />
</svg>
