<?xml version="1.0" standalone="no"?>
<!DOCTYPE svg PUBLIC "-//W3C//DTD SVG 1.1//EN" "http://www.w3.org/Graphics/SVG/1.1/DTD/svg11.dtd" >
<svg xmlns="http://www.w3.org/2000/svg" xmlns:xlink="http://www.w3.org/1999/xlink" version="1.1" viewBox="-10 0 1010 1000">
   <path fill="currentColor"
d="M157 -8q102 12 107 24q0 2 -5 8q-19 19 -25 54q-1 9 -6 39q-13 71 -14 86h78q39 -1 81 -6q-4 13 -16 102q-21 144 -34 215q-1 4 -3 14q-11 46 -24 91q86 50 125 86q-22 13 -56 65q-32 -38 -103 -87q-70 118 -169 196q-28 -37 -83 -63q138 -76 190 -173q-60 -37 -125 -63
q34 -93 58 -306q-65 0 -95 6v-87q39 10 103 10q7 -43 16 -211zM885 22q-6 48 -6 95v153q0 49 4 97q2 12 2 18h-81q4 -43 4 -109q-20 11 -88 61l-30 21q-10 -30 -43 -72q82 -21 161 -75v-123h-58q-69 0 -109 4v-68q42 4 99 4h72q32 0 73 -6zM720 117q43 63 54 86l-62 34
q-27 -59 -53 -92zM458 127q5 7 14 21q39 58 48 75l-60 31q-22 -51 -65 -97zM280 274h-74q-7 39 -23 159q-10 72 -16 111q21 14 61 34q42 -119 52 -304zM627 461q3 2 10 7q63 45 59 50q-1 1 -5 2q-21 4 -46 22q-9 6 -28 20q-93 67 -175 113q-13 -29 -59 -58q149 -55 244 -156
zM810 619q72 58 69 64q-1 2 -7 4q-19 6 -41 24q-176 144 -430 194q-22 -44 -56 -69q278 -25 465 -217zM425 717q170 -45 289 -183q72 59 68 64q-1 3 -14 6q-14 4 -20 8q-125 95 -278 166q-17 -35 -45 -61zM335 518q123 -31 240 -166h-25q2 -15 2 -56q-85 54 -137 97
q-15 -35 -50 -69q105 -39 187 -91v-139q-27 1 -61 0h-17q-79 1 -113 6v-70q7 4 105 4h80q33 0 81 -8q-2 10 -3 28q-1 15 -1 59v149q0 61 6 80l24 9q30 10 28 12q0 1 -3 2q-7 4 -7 8q126 106 291 119q-47 34 -67 82q-149 -50 -268 -171q-122 116 -248 177q-4 -19 -44 -62z
" />
</svg>
