<?xml version="1.0" standalone="no"?>
<!DOCTYPE svg PUBLIC "-//W3C//DTD SVG 1.1//EN" "http://www.w3.org/Graphics/SVG/1.1/DTD/svg11.dtd" >
<svg xmlns="http://www.w3.org/2000/svg" xmlns:xlink="http://www.w3.org/1999/xlink" version="1.1" viewBox="-10 0 1010 1000">
   <path fill="currentColor"
d="M359 441q60 5 119 8h310q75 0 139 -4v75q-59 -8 -145 -8h-123q-5 14 -32 64h177q28 0 71 -1q22 -1 30 -1q-8 32 -8 75v181q7 73 -119 83q-11 -65 -28 -91q64 26 73 -8v-181h-87v175q0 21 2 55h-73q8 -53 8 -85v-147h-82v161q0 57 2 75h-69q0 -3 1 -9q3 -37 3 -76v-151
h-78v165q0 45 1 63q1 23 3 40h-83q6 -58 6 -117v-131q0 -42 -4 -85q51 8 91 8h92q3 -8 8 -21q13 -33 17 -41h-111q-50 0 -70 1q-24 1 -41 3v-75zM395 24q44 6 123 6h73h189q75 0 129 -6v70q-17 -2 -44 -3q-13 -1 -31 -1h-48h-107v55h182q42 0 87 -4q-6 23 -6 82q-1 32 6 63
h-81q6 -45 6 -87h-196v139q-1 65 4 89h-76q6 -42 6 -91v-137h-176q-7 51 3 89h-85q0 -1 1 -4q10 -29 9 -69v-51q-1 -13 -2 -27q52 8 101 8h149v-55h-101q-51 0 -73 1q-25 1 -42 3v-70zM454 244q17 3 57 3t58 -3v54q-14 -3 -46 -4q-38 0 -69 2v-52zM720 254q16 3 62 3
q45 0 67 -3v52q-7 0 -32 -1q-80 -2 -97 1v-52zM411 340q67 6 154 0v51q-87 -6 -154 0v-51zM718 346h19q100 1 130 -2v51q-19 -3 -74 -3q-56 0 -75 3v-49zM192 -6l21 9q82 34 69 43q-1 3 -9 9q-23 17 -33 37q-75 147 -131 214l131 -14q37 -67 48 -113q77 41 71 46q0 4 -9 12
q-16 15 -27 33q-90 160 -164 254l174 -30q-10 22 -13 62q-1 7 -1 10q-133 7 -240 36q-7 -52 -21 -90q55 12 152 -160q-5 1 -14 1q-94 8 -138 24q1 -29 -20 -83q25 -16 47 -50q69 -117 107 -250zM331 645q-3 41 8 80q-143 32 -268 93q-12 -54 -31 -93q185 -30 291 -80z" />
</svg>
