<?xml version="1.0" standalone="no"?>
<!DOCTYPE svg PUBLIC "-//W3C//DTD SVG 1.1//EN" "http://www.w3.org/Graphics/SVG/1.1/DTD/svg11.dtd" >
<svg xmlns="http://www.w3.org/2000/svg" xmlns:xlink="http://www.w3.org/1999/xlink" version="1.1" viewBox="-10 0 1010 1000">
   <path fill="currentColor"
d="M585 2q115 12 105 20q0 7 -9 17q-10 12 -8 19q71 219 301 276q-40 33 -65 91q-29 -15 -88 -52q-9 71 -15 152q-3 45 -6 75q10 86 -161 93q-4 -32 -25 -87q-2 -6 -3 -8q110 24 111 -32q2 -15 7 -59q4 -46 7 -70h-192v333q-2 36 18 42q16 9 105 8q107 2 125 -17
q24 -13 29 -102q32 41 92 57q-22 87 -54 110q-30 26 -115 25h-123q-98 1 -126 -18q-30 -16 -29 -75v-331l-4 -82l-39 44q-15 -11 -35 -29q-26 -23 -43 -29q178 -135 240 -371zM623 119q-46 109 -139 243q27 5 68 5h192q42 0 66 -5q-121 -88 -187 -243zM42 117h4q38 4 89 4
h157q47 -1 89 -4v80q-27 -4 -69 -4h-62v198h42q11 0 31 -1t30 -1v76q-20 -5 -75 -4h-28v228q76 -17 127 -36q-12 50 -10 89q-204 33 -319 98q-2 -25 -11 -68q-5 -28 -7 -41q47 0 147 -26v-244h-44q-57 -1 -85 8v-84q26 6 83 6h46v-198h-50q-51 0 -85 6v-82z" />
</svg>
