<?xml version="1.0" standalone="no"?>
<!DOCTYPE svg PUBLIC "-//W3C//DTD SVG 1.1//EN" "http://www.w3.org/Graphics/SVG/1.1/DTD/svg11.dtd" >
<svg xmlns="http://www.w3.org/2000/svg" xmlns:xlink="http://www.w3.org/1999/xlink" version="1.1" viewBox="-10 0 1010 1000">
   <path fill="currentColor"
d="M708 -15q108 25 105 33q0 2 -4 7q-34 39 -79 150h85q39 0 111 -5q27 -2 38 -3q-42 90 -91 216q-44 -18 -89 -16q36 -50 65 -127h-149q-18 49 -55 110l-14 -12v49q-24 -4 -60 -4v310q0 31 8 81q1 8 2 12q114 -144 102 -482q20 4 51 9q48 9 46 11q1 2 -4 9q-16 20 -16 42
q11 299 206 457q-25 11 -64 40q-17 13 -29 21q-127 -164 -143 -359q-3 234 -157 381q-15 -17 -91 -50q47 -24 81 -59h-65q8 -59 8 -113v-310h-64q-3 199 -27 295q-20 96 -92 215q-36 -30 -87 -45q72 -72 107 -187q-7 0 -50 32q-7 5 -11 8q-9 -29 -40 -90q-11 -21 -16 -31
q-25 134 -121 299q-19 -14 -72 -37q-8 -4 -13 -6q157 -167 159 -508q2 -98 2 -150q1 -56 0 -91q-2 -72 -10 -100q7 1 21 2q91 7 88 13q0 3 -4 8q-13 19 -14 56q-2 36 -3 90q-2 67 -5 98q51 -62 63 -111q8 8 24 23q19 18 30 29q4 -51 -8 -107q87 3 246 -48q53 74 50 85
q-14 0 -86 9q-91 12 -131 15v167h163l-28 -14q109 -122 131 -317zM60 189q46 4 85 4q-1 7 -2 25q-1 17 -2 26q-13 209 -16 239q-13 -1 -32 -2h-51q14 -46 20 -135q5 -95 -2 -157zM371 217q-25 18 -86 95q-20 24 -31 38l-8 150q57 71 101 133q27 -84 24 -416z" />
</svg>
