<?xml version="1.0" standalone="no"?>
<!DOCTYPE svg PUBLIC "-//W3C//DTD SVG 1.1//EN" "http://www.w3.org/Graphics/SVG/1.1/DTD/svg11.dtd" >
<svg xmlns="http://www.w3.org/2000/svg" xmlns:xlink="http://www.w3.org/1999/xlink" version="1.1" viewBox="-10 0 1010 1000">
   <path fill="currentColor"
d="M575 -15q104 0 110 7q1 2 -3 6q-19 25 -19 74v61h99q70 0 95 -1q31 -2 56 -7v88q-53 -8 -147 -8h-103v107h65q93 1 155 -8v87q-52 -8 -151 -8h-69v105h99q102 0 153 -7q-5 139 -18 224q8 66 -161 89q-5 -46 -36 -99q84 11 102 -4q25 -26 23 -127h-162v222q0 59 8 123h-96
q8 -65 8 -125v-220h-23q-79 0 -139 8l12 20l-80 41q-50 -102 -74 -134q-7 -10 -11 -16v289q0 74 8 135h-93q7 -59 7 -137v-274q-63 76 -115 125q-16 -32 -65 -75q142 -70 258 -284h-93q-89 0 -127 8v-83q49 8 121 8h77q64 0 139 -8q-81 175 -117 232v50l61 -34q55 76 78 115
v-69q37 5 135 7h20h21v-105h-27q-71 0 -147 8v-87q62 8 149 8h25v-107h-29q-78 0 -145 8v-88q35 5 68 6q16 1 34 2h45h27v-39q0 -84 -8 -109zM242 -4q28 39 83 143l-85 32q-20 -52 -79 -145z" />
</svg>
