<?xml version="1.0" standalone="no"?>
<!DOCTYPE svg PUBLIC "-//W3C//DTD SVG 1.1//EN" "http://www.w3.org/Graphics/SVG/1.1/DTD/svg11.dtd" >
<svg xmlns="http://www.w3.org/2000/svg" xmlns:xlink="http://www.w3.org/1999/xlink" version="1.1" viewBox="-10 0 1010 1000">
   <path fill="currentColor"
d="M589 -2l39 6q63 8 62 14q2 4 -4 12q-7 9 -11 16q61 237 291 329q-26 20 -52 55q-14 17 -23 29q-203 -143 -258 -346q-44 141 -101 233q13 1 35 1q40 0 40 5q1 2 -2 8q-16 30 -16 77v119q133 -72 193 -135q76 74 69 83q-2 2 -10 3q-29 2 -63 21q-91 48 -189 93v137
q-2 42 16 49q13 9 87 7q80 0 96 -22q19 -15 24 -107q51 43 95 50q-24 107 -52 127q-17 17 -56 23q-19 4 -45 5q-22 1 -67 1q-115 1 -146 -16q-32 -12 -29 -67v-323q1 -80 -6 -104q-43 69 -99 131q-27 -29 -88 -57q211 -144 270 -457zM212 14q57 6 69 6q12 1 30 5q3 0 6 1
q2 5 -4 14q-13 22 -13 50q0 111 -8 206q62 -72 95 -139q3 2 10 6q47 30 75 56q-1 1 -6 3q-25 9 -41 28q-92 100 -137 145q0 96 -6 147q128 128 192 196q-44 16 -81 60q-49 -91 -133 -179q-21 118 -143 280q-33 -27 -99 -47q194 -124 196 -447q4 -122 4 -256q0 -32 -6 -135z
M69 189q8 0 23 1q75 1 73 7q1 1 -2 7q-9 19 -10 40q-2 27 -5 77q-7 105 -13 179q-39 -9 -87 -6q16 -60 23 -156q6 -93 -2 -149z" />
</svg>
