<?xml version="1.0" standalone="no"?>
<!DOCTYPE svg PUBLIC "-//W3C//DTD SVG 1.1//EN" "http://www.w3.org/Graphics/SVG/1.1/DTD/svg11.dtd" >
<svg xmlns="http://www.w3.org/2000/svg" xmlns:xlink="http://www.w3.org/1999/xlink" version="1.1" viewBox="-10 0 1010 1000">
   <path fill="currentColor"
d="M177 -17q97 12 103 19q0 2 -4 7q-20 25 -20 67v109h30q32 0 95 -8v85q-2 0 -6 -1q-57 -5 -93 -5h-26v155l56 -36q51 65 101 155l-80 36q-34 -88 -77 -141v355q3 109 8 127h-93q10 -39 10 -131v-315q-73 176 -114 222q-11 -46 -51 -91q115 -106 165 -336h-30q-69 0 -109 6
v-83q3 0 10 1q53 5 95 5h34q3 -139 -4 -202zM512 -13q12 4 35 11q65 20 60 26q0 5 -5 9q-10 9 -17 23q-18 34 -31 69h196q107 0 165 -4q-9 75 -10 141v522q2 67 -30 87q-26 22 -147 40q-6 -59 -45 -101q86 11 113 -3q28 -12 27 -63v-549h-299q-37 73 -58 101q18 3 86 4h77
q59 0 103 -8q-6 33 -6 121v204q0 120 6 161h-87q3 -37 6 -61h-145q0 57 6 81h-89q8 -29 8 -159v-285q-6 6 -23 30q-7 10 -11 15q-28 -23 -76 -41q137 -119 191 -371zM506 360v119h145v-119h-145zM651 534h-145v123h145v-123z" />
</svg>
