<?xml version="1.0" standalone="no"?>
<!DOCTYPE svg PUBLIC "-//W3C//DTD SVG 1.1//EN" "http://www.w3.org/Graphics/SVG/1.1/DTD/svg11.dtd" >
<svg xmlns="http://www.w3.org/2000/svg" xmlns:xlink="http://www.w3.org/1999/xlink" version="1.1" viewBox="-10 0 1010 1000">
   <path fill="currentColor"
d="M599 -12l36 6q70 11 67 14q0 5 -5 11q-10 12 -12 33q-1 7 -4 24q-4 22 -6 36h109q102 0 139 -8v81q-30 -6 -137 -6h-119q-11 50 -14 77h101q73 1 133 -10v78q-31 -6 -133 -6h-113q-1 -1 -11 35q-11 40 -15 50h181q102 -1 150 -12v86q-29 -9 -136 -6h-211q-6 10 -24 51
q-9 19 -13 28h190q0 -54 -4 -71q5 0 13 1q88 8 84 14q1 4 -3 9q-14 15 -13 45h26q46 0 89 -8v77q-31 -7 -85 -7h-30v180q0 47 -3 62q-4 18 -16 28q-17 19 -118 27q-8 -55 -39 -93q65 14 83 6q18 -5 16 -44v-166h-220q-102 161 -159 222q-37 -29 -93 -50q147 -96 236 -313
h-26q-67 1 -89 6l14 27l-74 34q-47 -110 -71 -141v379q0 94 8 129h-97q10 -42 11 -133v-317q-47 131 -111 226q-23 -39 -59 -79q110 -115 165 -336h-26q-84 -1 -113 8v-81q28 3 109 4h37v-121q-1 -43 -4 -76q99 7 96 14q0 2 -2 7q-12 22 -12 71v103h32q67 1 89 -6v81
q-21 -6 -81 -6h-42v107l51 -29q15 24 46 76q14 24 22 37v-56q25 3 109 6h40q13 -31 25 -85h-45q-71 0 -99 6v-76q42 6 101 8h55q5 -16 11 -48q3 -19 5 -29h-75q-68 0 -125 4v-77q54 3 131 6h73q12 -59 4 -124zM617 629q12 16 43 75q13 24 21 38l-78 32q-15 -52 -61 -117z
" />
</svg>
