<?xml version="1.0" standalone="no"?>
<!DOCTYPE svg PUBLIC "-//W3C//DTD SVG 1.1//EN" "http://www.w3.org/Graphics/SVG/1.1/DTD/svg11.dtd" >
<svg xmlns="http://www.w3.org/2000/svg" xmlns:xlink="http://www.w3.org/1999/xlink" version="1.1" viewBox="-10 0 1010 1000">
   <path fill="currentColor"
d="M772 12q99 0 101 10q1 2 -4 10q-18 28 -18 70v103h24q35 0 69 -6v77q-2 0 -6 -1q-36 -5 -67 -5h-20v153h22q47 0 81 -6v79q-28 -9 -73 -8h-30v177q0 45 8 101h-91q10 -62 10 -99v-179h-88q-9 155 -93 278q-39 -35 -87 -43q100 -88 107 -235h-30l-77 6v-81q12 2 34 4
q31 4 45 6h32v-155h-34q-40 0 -65 4v-75q33 6 69 6h30v-74q0 -86 -12 -115q87 1 97 10q1 2 -2 8q-12 26 -12 60v111h86v-91q0 -52 -6 -100zM429 60q32 85 57 186l-85 16q-12 -76 -52 -184zM778 268h-86v155h86v-155zM339 350q28 3 70 4q42 -1 77 -4q-8 24 -8 99v238
q5 78 136 104q134 25 356 -9q-28 54 -33 103q-313 3 -409 -43q-29 -15 -68 -53q-26 -25 -35 -25q-40 10 -102 109q-38 -48 -73 -75q118 -78 153 -127v-246h-14q-29 0 -50 2v-77zM42 100q28 6 89 6h151q34 0 67 -4v73q-1 1 -26 0q-31 -2 -49 -2h-32v190h16q27 0 67 -3v73
q-26 -4 -69 -4h-14v216q48 -11 99 -28q-17 48 -16 82q-202 43 -275 89q-2 -23 -11 -63q-5 -27 -7 -40q41 0 139 -26v-230h-40q-58 0 -81 6v-77q22 5 79 5h42v-190h-46q-51 0 -83 6v-79z" />
</svg>
