<?xml version="1.0" standalone="no"?>
<!DOCTYPE svg PUBLIC "-//W3C//DTD SVG 1.1//EN" "http://www.w3.org/Graphics/SVG/1.1/DTD/svg11.dtd" >
<svg xmlns="http://www.w3.org/2000/svg" xmlns:xlink="http://www.w3.org/1999/xlink" version="1.1" viewBox="-10 0 1010 1000">
   <path fill="currentColor"
d="M173 -6q9 1 25 3q90 8 84 15q-1 3 -4 7q-18 19 -22 71q-1 14 0 56v39h38q50 -2 91 -10v83q-18 -6 -85 -6h-44v147l56 -28q18 33 45 72q14 -49 8 -145q16 6 87 6v-175q0 -57 -1 -76q-1 -24 -3 -35q44 6 125 6h147q102 -2 137 -6q-9 38 -10 127v159q28 2 77 -2q15 -2 22 -2
q-7 97 4 149h-85v-2q6 -24 6 -80h-434q0 38 3 80h-79q7 11 20 30l18 27l-68 36q-41 -89 -75 -127v351q0 88 6 137h-93q12 -43 12 -129v-343q-52 143 -104 226q-24 -36 -67 -65q125 -133 165 -338h-44q-76 3 -91 8v-83q15 3 55 4q21 1 30 2h56v-89q0 -30 -1 -47
q-2 -36 -7 -53zM528 88v67h83q66 0 95 -6q-3 15 -5 58q0 20 -1 30v67h72v-216h-244zM528 217v87h101v-87h-101zM442 421q39 4 129 4h155q80 0 129 -4q-7 47 -8 121v226q2 81 -25 102q-25 26 -118 31q-2 -55 -31 -97q62 13 82 7q19 -4 17 -35v-49h-248v35q0 83 6 137h-95
q6 -24 11 -141q1 -21 2 -33v-163q0 -108 -6 -141zM526 488v58h246v-58h-246zM524 606v57h248v-57h-248z" />
</svg>
