<?xml version="1.0" standalone="no"?>
<!DOCTYPE svg PUBLIC "-//W3C//DTD SVG 1.1//EN" "http://www.w3.org/Graphics/SVG/1.1/DTD/svg11.dtd" >
<svg xmlns="http://www.w3.org/2000/svg" xmlns:xlink="http://www.w3.org/1999/xlink" version="1.1" viewBox="-10 0 1010 1000">
   <path fill="currentColor"
d="M171 -12q95 6 101 14q0 2 -4 8q-20 31 -20 78v101h24q23 2 69 -6v85q-13 -2 -46 -4q-19 -1 -25 -2h-22v88l42 -18l59 99v-68q24 6 99 6h20v-81h-22q-4 1 -19 2q-37 2 -54 6v-77q27 7 64 6h31v-76h-26q-63 0 -93 6v-75q33 5 99 6h20q0 -63 -6 -96q55 0 90 10q1 2 -2 8
q-14 27 -14 78h18q40 -1 59 -6v75q-14 -6 -57 -6h-20v76h20q21 0 51 -6v71q-18 -3 -53 -2h-18v81h12q46 0 67 -4v76q-16 -5 -48 -7q-12 0 -15 -1h-18q1 39 4 61h-80q8 -29 8 -61h-22q-47 0 -63 1q-20 1 -30 3l18 34l-73 35q-4 -35 -50 -99v353q0 93 8 135h-93
q13 -51 14 -133v-315q-37 96 -90 178q-28 -32 -65 -53q108 -126 147 -310h-22q-67 0 -105 8v-87q22 3 103 6h34v-107q0 -78 -6 -94zM813 2q1 2 -2 9q-9 31 -9 75h13q49 0 100 -8v75q-16 -5 -74 -4h-24h-17v76h15q34 2 88 -6v75q-21 -6 -90 -6h-13v81h23q76 0 100 -6v78
q-24 -9 -102 -8h-23q0 42 6 59h-78q0 -3 2 -14q4 -26 4 -45h-24q-38 -3 -69 4v-75q14 4 51 6q15 0 22 1h20v-81h-20q-29 0 -69 4v-75q19 8 67 8h22v-76h-16q-29 0 -77 6v-77q31 7 79 8h14q-1 -11 -1 -31q-1 -51 -7 -65q45 3 89 12zM355 512q29 5 58 6q30 2 93 2h258
q109 -3 139 -6q-6 21 -6 82v204q1 65 6 109h-90q0 -4 1 -11q3 -22 3 -35h-313q-126 0 -155 6v-83q43 8 151 8h319v-73h-287q-108 0 -139 6v-82q28 7 108 6h27h291v-69h-315q-119 0 -149 6v-76z" />
</svg>
