<?xml version="1.0" standalone="no"?>
<!DOCTYPE svg PUBLIC "-//W3C//DTD SVG 1.1//EN" "http://www.w3.org/Graphics/SVG/1.1/DTD/svg11.dtd" >
<svg xmlns="http://www.w3.org/2000/svg" xmlns:xlink="http://www.w3.org/1999/xlink" version="1.1" viewBox="-10 0 1010 1000">
   <path fill="currentColor"
d="M413 -6q74 47 75 50l-12 10q27 3 109 6h250q65 0 109 -8v89q-68 -8 -107 -8h-190v113h139q25 0 81 -8q-4 72 -6 314q-1 101 -2 123q-3 78 0 101q3 24 16 24q36 6 32 -97q36 38 75 47q-9 73 -35 101q-13 14 -30 19q-16 6 -48 5q-56 1 -70 -15q-16 -12 -15 -64v-480h-143
l-10 428q48 -42 95 -97q1 41 20 88q-99 77 -175 156q-1 -3 -4 -9q-22 -46 -45 -72q32 -7 39 -118q9 -88 18 -559q-35 -1 -113 8v-79q-9 7 -27 22q-42 33 -70 53q62 40 143 90l-68 59q-36 -34 -107 -80q-19 -12 -29 -19q-74 53 -187 115q-24 -29 -63 -60q94 -23 194 -91
q-89 -54 -157 -71l60 -60q32 17 96 54q38 21 57 32q52 -45 105 -112zM258 231q16 6 43 16q54 19 48 21q0 1 -7 7q-29 22 -44 49h135q56 0 99 -8v81q-31 -6 -103 -6h-157q-9 14 -27 44q-31 51 -47 71h88v-24q1 -47 -4 -67q17 2 50 3q44 2 39 5q-21 28 -18 81h80q33 0 77 -6
q-6 23 -6 70v165q2 43 -20 58q-24 18 -93 25q-7 -50 -26 -81q76 17 68 -36v-131h-78v204q1 91 8 131h-83q7 -37 8 -131v-202h-76v137q1 82 10 121h-85q9 -46 10 -117v-133q-49 72 -68 89q-27 -35 -61 -55q82 -60 178 -223h-25q-37 0 -117 12v-87q52 9 115 10h55
q22 -42 34 -93zM728 379q25 101 42 201l-76 16q-5 -111 -33 -205z" />
</svg>
