<?xml version="1.0" standalone="no"?>
<!DOCTYPE svg PUBLIC "-//W3C//DTD SVG 1.1//EN" "http://www.w3.org/Graphics/SVG/1.1/DTD/svg11.dtd" >
<svg xmlns="http://www.w3.org/2000/svg" xmlns:xlink="http://www.w3.org/1999/xlink" version="1.1" viewBox="-10 0 1010 1000">
   <path fill="currentColor"
d="M607 -17q87 24 93 37q-1 4 -9 10q-16 12 -26 30q-2 4 -9 16q-12 20 -19 32h169q68 -1 127 -8v85q-19 -7 -82 -8q-18 64 -63 125q8 6 25 18q64 47 92 69l-68 60q-55 -57 -99 -89q-74 63 -188 89q-8 -22 -47 -68q-6 -6 -7 -8q113 -16 179 -61q-47 -34 -104 -64l50 -49
q51 27 107 65q39 -50 46 -89h-165q-25 48 -61 91q-27 -24 -46 -31v47q-30 -5 -147 -10h-12v52q-2 66 6 113h-77q7 -43 8 -101v-44q-77 92 -175 165q-37 -42 -63 -60q91 -31 176 -125h-16q-81 1 -119 8v-75q38 7 137 8h58v-70h-32q-95 1 -129 8v-77q64 9 141 10h20v-24
q-1 -42 -10 -72q95 -2 97 6q1 1 -4 8q-20 33 -20 64v18h18q103 0 135 -8v75q-33 -7 -125 -8h-28v70h36q78 -1 115 -8q63 -53 115 -222zM407 286q59 41 101 68l-52 55q-8 -7 -19 -17q-22 -23 -80 -60zM161 449q22 5 95 6h470q148 0 181 -6v81q-50 -7 -181 -8h-484
q24 236 -123 377q-23 -27 -85 -55q138 -72 133 -292q0 -46 -6 -103zM526 534q82 0 93 8q1 1 -2 6q-13 23 -10 50q24 34 62 73q32 -26 91 -111q66 41 77 59q-1 3 -7 4q-15 4 -36 22q-18 15 -47 41q-22 20 -31 27q108 68 224 77q-34 43 -55 89q-182 -61 -276 -186v133
q21 73 -143 89q-6 -43 -37 -95q106 25 103 -30v-190q0 -42 -6 -66zM278 588q23 7 105 8h12q66 0 113 -4q-66 204 -242 309q-27 -37 -72 -61q152 -56 213 -181h-24q-78 0 -105 8v-79z" />
</svg>
