<?xml version="1.0" standalone="no"?>
<!DOCTYPE svg PUBLIC "-//W3C//DTD SVG 1.1//EN" "http://www.w3.org/Graphics/SVG/1.1/DTD/svg11.dtd" >
<svg xmlns="http://www.w3.org/2000/svg" xmlns:xlink="http://www.w3.org/1999/xlink" version="1.1" viewBox="-10 0 1010 1000">
   <path fill="currentColor"
d="M571 4q8 1 24 2q80 2 74 16q0 8 -9 18q-13 15 -13 32v95q93 -36 190 -107q43 39 55 55q14 20 9 32q-3 8 -18 6q-29 -4 -56 8q-53 21 -180 66v65q-3 39 53 36h112q63 1 61 -107q33 41 81 53q-24 132 -109 125h-151q-132 6 -123 -75v-320zM323 6q13 2 37 4q62 4 59 14
q0 7 -8 15q-14 15 -14 35v61q59 0 86 -2q31 -1 51 -6v74q-34 -7 -137 -6v91q32 -7 78 -16q30 -6 39 -8q-13 39 -8 76q-282 36 -419 69q-5 -52 -14 -89l102 -6v-145q0 -36 -1 -51q-1 -18 -3 -34q99 9 93 18q-1 6 -7 13q-11 12 -11 30v165l81 -12v-192q0 -44 -1 -62
q-1 -22 -3 -36zM484 354q9 1 26 3q69 7 65 12q0 5 -5 9q-8 8 -10 23q-1 9 -7 30l-3 12h194q76 1 113 -8q-7 53 -6 115v258q2 44 -23 59q-17 15 -116 38q-2 -48 -35 -93q94 16 93 -24v-284h-234l-8 16q8 6 53 26q85 37 155 73l-69 56q-56 -49 -173 -113q-58 60 -159 111
q-24 -46 -63 -61q127 -28 182 -108h-198v282q-1 76 8 103h-97q9 -22 8 -101v-238q1 -75 -8 -115q49 9 127 8h186q10 -42 4 -89zM494 592q69 34 73 43q0 3 -8 8q-21 13 -35 32q103 34 180 77l-61 56q-84 -65 -159 -95q-3 3 -9 8q-76 67 -122 103q-34 -35 -73 -62
q144 -60 214 -170z" />
</svg>
