<?xml version="1.0" standalone="no"?>
<!DOCTYPE svg PUBLIC "-//W3C//DTD SVG 1.1//EN" "http://www.w3.org/Graphics/SVG/1.1/DTD/svg11.dtd" >
<svg xmlns="http://www.w3.org/2000/svg" xmlns:xlink="http://www.w3.org/1999/xlink" version="1.1" viewBox="-10 0 1010 1000">
   <path fill="currentColor"
d="M647 -4q96 1 107 10q1 3 -5 11q-19 25 -19 53v77h101q42 0 62 -1q24 -1 45 -3v74q-3 0 -10 -1q-57 -3 -97 -3h-101v129h60q41 0 101 -4q-62 268 -139 373q104 75 206 101q-29 29 -61 87q-109 -50 -199 -131q-82 71 -254 125q-37 -62 -77 -83q171 -17 278 -109
q-61 -104 -89 -240l89 -16q3 90 51 202q69 -104 92 -236h-127q-54 0 -75 1q-25 1 -40 3v-79q21 7 90 6h15v-270q0 -55 -4 -76zM319 24q18 90 30 177l-75 16q-2 -77 -32 -185zM442 24q98 28 100 38q1 2 -5 6q-22 16 -39 45q-13 22 -38 75q-19 41 -33 68q63 0 99 -4
q-6 36 -6 80q0 55 6 83h-82q4 -26 4 -91h-319q0 90 4 103h-79q6 -28 6 -91l-2 -82l97 4h200q44 -86 87 -234zM149 52q40 82 63 167l-69 18q-15 -63 -62 -161zM149 395q46 4 103 4h95q61 0 82 -2q-3 58 2 86q-47 9 -96 63v34q91 -9 157 -26q-15 35 -16 77q-56 2 -141 14v167
v6q18 64 -152 75q3 -36 -26 -93q69 11 89 4q14 -2 12 -40v-107q-97 15 -175 34l-25 -81l200 -20v-60q32 -21 81 -67h-79q-63 0 -111 6v-74z" />
</svg>
