<?xml version="1.0" standalone="no"?>
<!DOCTYPE svg PUBLIC "-//W3C//DTD SVG 1.1//EN" "http://www.w3.org/Graphics/SVG/1.1/DTD/svg11.dtd" >
<svg xmlns="http://www.w3.org/2000/svg" xmlns:xlink="http://www.w3.org/1999/xlink" version="1.1" viewBox="-10 0 1010 1000">
   <path fill="currentColor"
d="M464 16q48 8 187 8h103q137 0 179 -8q-10 46 -10 211v555q1 58 -26 75q-18 16 -127 30q-5 -63 -34 -97q120 16 111 -34v-662h-301q3 226 -1 336q-5 120 -19 196q-22 144 -123 273q-25 -16 -93 -39q107 -77 135 -204q16 -65 21 -169q6 -97 4 -290q0 -93 -1 -128
q-2 -42 -5 -53zM79 24q53 8 147 8h52q112 0 139 -10q-8 27 -8 191v232q0 128 8 155h-90q10 -32 10 -153v-347h-178v345q0 147 10 172h-94q12 -29 12 -172v-212q0 -174 -8 -209zM651 115q73 1 87 8q1 2 -3 7q-15 24 -15 77q74 0 103 -8v75q-39 -8 -105 -8v92q86 0 109 -8v75
q-32 -8 -113 -8h-47q-78 0 -109 10v-75q19 6 97 6v-90q-70 0 -90 8v-75q29 7 90 8q0 -79 -4 -94zM208 161q80 0 92 10q1 4 -3 11q-11 17 -11 41q-4 368 -36 422l44 -28q68 66 113 114l-62 53q-30 -46 -103 -117q-75 136 -133 196q-26 -23 -81 -47q122 -96 156 -198
q19 -51 26 -123q6 -63 6 -201q0 -48 -1 -71q-2 -29 -7 -62zM571 475q31 6 110 6q97 0 121 -6q-5 23 -6 117q0 102 8 131q-28 -6 -123 -6q-77 0 -112 8q8 -29 8 -123q0 -101 -6 -127zM641 544v109h91v-109h-91z" />
</svg>
