<?xml version="1.0" standalone="no"?>
<!DOCTYPE svg PUBLIC "-//W3C//DTD SVG 1.1//EN" "http://www.w3.org/Graphics/SVG/1.1/DTD/svg11.dtd" >
<svg xmlns="http://www.w3.org/2000/svg" xmlns:xlink="http://www.w3.org/1999/xlink" version="1.1" viewBox="-10 0 1010 1000">
   <path fill="currentColor"
d="M629 -4q109 8 105 16q0 3 -4 10q-22 31 -22 99q10 196 223 246q-41 29 -72 80q-147 -73 -186 -214q-37 133 -167 216q-30 -33 -85 -50q214 -74 214 -309q0 -55 -6 -94zM403 8q51 66 49 78q-6 2 -20 1q-14 -2 -23 -1q-24 2 -76 10q-10 1 -16 2v69h36q66 0 99 -8v78
q-49 -10 -101 -10h-34v63l48 -36q48 31 103 78l-61 47q-66 -64 -90 -79v40q0 39 8 101h-89q7 -43 8 -99v-80q-60 93 -149 151q-33 -35 -69 -55q114 -54 172 -129h-27q-73 0 -108 8v-76q40 8 108 8h73v-63q-19 2 -74 8q-41 5 -63 7q-5 -35 -34 -75q204 11 330 -38zM825 70
q9 4 26 10q60 24 56 30q-3 3 -11 9q-21 16 -25 28q-19 39 -58 97q-11 -7 -45 -20q-24 -9 -24 -11q55 -53 81 -143zM44 453q43 7 119 8h633q56 -1 125 -10v81q-51 -9 -119 -8h-445l-18 64h290q40 0 83 -6q-8 34 -8 71v95q-1 41 7 49q5 10 33 9q44 2 55 -17q14 -18 18 -88
q35 36 88 51q-21 80 -47 110q-13 14 -28 20q-14 5 -40 5h-82q-55 1 -67 -13q-17 -12 -16 -60v-163h-298l-45 149q85 -27 141 -48q-11 39 -8 78q-150 39 -223 71q-8 -38 -29 -85q42 -10 55 -52q38 -113 60 -240h-115q-78 0 -119 8v-79zM433 665q97 54 152 93l-59 58
q-55 -56 -147 -99zM510 72q75 14 87 26q0 6 -11 17q-11 12 -13 20q-14 64 -31 113q-32 -13 -74 -17q37 -57 42 -159z" />
</svg>
