<?xml version="1.0" standalone="no"?>
<!DOCTYPE svg PUBLIC "-//W3C//DTD SVG 1.1//EN" "http://www.w3.org/Graphics/SVG/1.1/DTD/svg11.dtd" >
<svg xmlns="http://www.w3.org/2000/svg" xmlns:xlink="http://www.w3.org/1999/xlink" version="1.1" viewBox="-10 0 1010 1000">
   <path fill="currentColor"
d="M520 -10q6 22 14 55q12 45 14 49h264q2 -1 55 -4q36 -1 46 -2q-4 23 -4 77v8q-1 98 8 115h-102q11 -50 12 -119h-668q-3 82 6 119h-98q8 -43 8 -115v-12q0 -45 -4 -71q39 4 96 4h293q-4 -7 -30 -72q-4 -12 -7 -18zM355 191q74 43 83 57q1 3 -18 9q-32 12 -47 23
q-8 6 -73 47q-52 33 -54 35q18 8 121 7h218q116 0 149 -7q-46 -34 -182 -102l61 -55q217 116 316 178l-68 74q-26 -25 -78 -62q-3 -3 -5 -4q-9 33 -10 113v266q1 84 10 135h-88q7 -25 6 -77h-414q0 63 4 79h-82q7 -38 6 -127v-20v-264q1 -87 -6 -107q-44 31 -99 62
q-5 -12 -63 -68q158 -53 313 -192zM282 435v67h414v-67h-414zM282 566v65h414v-65h-414zM282 695v67h414v-67h-414z" />
</svg>
