<?xml version="1.0" standalone="no"?>
<!DOCTYPE svg PUBLIC "-//W3C//DTD SVG 1.1//EN" "http://www.w3.org/Graphics/SVG/1.1/DTD/svg11.dtd" >
<svg xmlns="http://www.w3.org/2000/svg" xmlns:xlink="http://www.w3.org/1999/xlink" version="1.1" viewBox="-10 0 1010 1000">
   <path fill="currentColor"
d="M591 -17q12 32 20 101h157q131 -1 161 -10v91q-44 -10 -159 -10h-490q-4 356 -31 466q-17 107 -124 272l-25 -15q-42 -28 -74 -38q144 -128 161 -357q-66 38 -107 74q-10 8 -13 9q-18 -33 -46 -79q-2 -3 -3 -4q1 -2 9 -5q58 -17 165 -81q0 -13 1 -48q1 -64 1 -107
q0 -127 -7 -166q58 8 172 8h159q-3 -34 -26 -94zM131 137q21 83 36 197l-80 12q-1 -63 -31 -197zM617 173q10 33 23 76q5 17 7 23h105q111 0 165 -10v84q-36 -8 -163 -8h-220q11 7 31 23q8 7 12 10q-1 2 -7 4q-20 6 -40 26l-80 80l167 -2q45 -55 75 -119q92 34 94 51
q0 3 -7 5q-28 10 -49 39q-130 194 -430 329q-15 -33 -58 -81q199 -36 323 -165q-211 10 -226 21q-1 1 -2 1q-9 -58 -22 -81q79 1 169 -141h-46q-94 -1 -140 8v-82q33 5 62 6q31 2 92 2h106q-9 -27 -42 -85zM772 481q80 46 83 61q-1 2 -7 6q-23 12 -44 36q-53 61 -98 105
q34 26 138 112q34 29 47 39l-78 71q-34 -56 -160 -167q-138 112 -314 171q-10 -29 -57 -77q320 -73 490 -357z" />
</svg>
