<?xml version="1.0" standalone="no"?>
<!DOCTYPE svg PUBLIC "-//W3C//DTD SVG 1.1//EN" "http://www.w3.org/Graphics/SVG/1.1/DTD/svg11.dtd" >
<svg xmlns="http://www.w3.org/2000/svg" xmlns:xlink="http://www.w3.org/1999/xlink" version="1.1" viewBox="-10 0 1010 1000">
   <path fill="currentColor"
d="M538 -23q5 21 15 55q8 31 10 40h258q25 0 84 -3q8 -1 12 -1q-4 32 -4 71v14q0 76 8 109h-96q8 -67 8 -123h-672q0 61 8 113h-96q7 -40 8 -111v-8q1 -38 -4 -65q25 3 92 4h307q-14 -36 -39 -80zM409 147q73 47 71 54q-1 2 -15 5q-36 5 -66 17q-21 8 -51 18t-56 19
q5 0 14 1q40 1 41 7q2 2 -2 9q-8 20 -8 39h78q74 -1 111 -8v75q-33 -9 -115 -8h-78v58h22q102 -1 135 -8v77q-18 -5 -48 -6q-15 -1 -34 -2h-47h-111q-85 0 -125 8v-77q16 5 42 7q13 0 31 1h48h22v-56h-58q-52 0 -75 2q-28 1 -44 6v-75q17 8 113 8h64q0 -3 -1 -9
q-1 -29 -7 -41l-44 14q-13 -30 -45 -67q129 -10 238 -68zM589 153q181 71 223 93l-48 64q-74 -51 -228 -103zM595 266q103 23 95 26q0 4 -7 13q-10 13 -18 27q-11 19 -24 51h137q101 -1 143 -4q-31 75 -66 171q-38 -12 -85 -12q33 -42 49 -89h-198q-15 27 -38 73
q-17 36 -25 50q-51 -17 -92 -18v56q-38 -7 -127 -8h-103q-95 0 -125 8v-78q28 8 123 8h103q93 0 127 -4q88 -48 131 -270zM639 475q15 1 43 2q59 2 54 10q0 2 -3 5q-13 13 -13 54q15 179 230 284q-41 25 -79 73q-154 -121 -179 -254q-32 171 -206 270q-34 -42 -85 -56
q138 -48 195 -142q29 -47 39 -107q11 -60 4 -139zM69 629q54 8 143 8h159q97 0 141 -8v78q-33 -8 -139 -8h-42v137q10 64 -123 77q-4 -41 -29 -81q78 16 83 -26v-107h-48q-99 0 -145 8v-78zM163 711q4 2 11 5q66 27 60 30q-2 1 -8 5q-34 18 -41 25q-39 34 -108 93
q-27 -25 -61 -47q78 -38 147 -111zM409 713q43 37 85 79l-59 40q-24 -41 -76 -84z" />
</svg>
