<?xml version="1.0" standalone="no"?>
<!DOCTYPE svg PUBLIC "-//W3C//DTD SVG 1.1//EN" "http://www.w3.org/Graphics/SVG/1.1/DTD/svg11.dtd" >
<svg xmlns="http://www.w3.org/2000/svg" xmlns:xlink="http://www.w3.org/1999/xlink" version="1.1" viewBox="-10 0 1010 1000">
   <path fill="currentColor"
d="M950 34v87q-31 -5 -81 -6v655q3 55 -27 69q-25 17 -146 30q-4 -54 -35 -109q77 14 100 7q26 -6 25 -42v-610h-177q-110 1 -169 10v-91q63 7 169 8h246q54 -1 95 -8zM62 58q20 7 119 6h105q97 0 127 -6v85q-24 -6 -121 -6h-14q-22 103 -42 163h54q63 0 111 -6
q-7 50 -8 107v218q1 -2 2 34q2 79 6 89h-88q4 -31 4 -75h-103q0 111 6 129h-91q6 -21 8 -52q1 -15 2 -34v-51v-176q1 -2 -31 38q-23 29 -33 41q-22 -39 -49 -79q141 -116 172 -346h-25q-91 -1 -111 6v-85zM623 235q27 0 87 -5q10 -1 14 -1q-6 27 -6 99v186q0 109 6 127h-89
q6 -18 6 -47h-103q0 53 6 83h-90q6 -54 6 -133v-216q0 -29 -5 -84q-1 -10 -1 -15q66 6 108 6h61zM536 302v224h107v-224h-107zM214 365v237h103v-237h-103z" />
</svg>
