<?xml version="1.0" standalone="no"?>
<!DOCTYPE svg PUBLIC "-//W3C//DTD SVG 1.1//EN" "http://www.w3.org/Graphics/SVG/1.1/DTD/svg11.dtd" >
<svg xmlns="http://www.w3.org/2000/svg" xmlns:xlink="http://www.w3.org/1999/xlink" version="1.1" viewBox="-10 0 1010 1000">
   <path fill="currentColor"
d="M629 -13q64 0 84 1q26 1 27 4q1 2 -3 6q-20 22 -21 64q-1 24 -2 49v27v37h32q110 0 153 -6v79q-35 -5 -149 -6h-38q-3 18 -6 169h64q15 -1 58 -2q80 -1 99 -4v83q-60 -4 -163 -5h-50q56 248 254 337q-57 30 -87 71q-168 -127 -210 -305q-28 194 -238 323q-31 -33 -94 -63
q235 -77 284 -361h-52q-108 0 -136 5v-83q46 5 130 6h64q6 -127 6 -171h-24q0 1 -53 3q-81 3 -94 5v-81q32 5 139 6h32v-123q-1 -37 -6 -65zM50 82q37 7 144 8h98q104 -1 162 -8v91q-32 -7 -150 -8h-22q-29 105 -44 165h52q72 0 117 -6q-6 35 -6 121v214q0 113 6 137h-90
q6 -27 6 -87h-101q0 58 1 78q1 26 5 43h-87q4 -18 5 -46q1 -13 1 -31v-48v-185q-19 27 -45 63q-23 33 -35 50q-12 -26 -53 -87q145 -118 188 -381h-23q-93 1 -129 6v-89zM222 397v244h103v-244h-103z" />
</svg>
