<?xml version="1.0" standalone="no"?>
<!DOCTYPE svg PUBLIC "-//W3C//DTD SVG 1.1//EN" "http://www.w3.org/Graphics/SVG/1.1/DTD/svg11.dtd" >
<svg xmlns="http://www.w3.org/2000/svg" xmlns:xlink="http://www.w3.org/1999/xlink" version="1.1" viewBox="-10 0 1010 1000">
   <path fill="currentColor"
d="M865 42q-58 127 -121 204l69 46q85 56 131 91q-44 38 -67 68q-101 -98 -179 -153q-83 84 -224 171q-22 -46 -63 -74q191 -56 333 -278h-119q-124 0 -163 6v-81q44 5 159 6h115q85 -3 129 -6zM327 381h-113v270h113v-270zM486 477q42 8 125 8h135q101 -3 123 -8v83
q-30 -7 -111 -8h-40v218h58q103 -1 151 -8v88q-33 -8 -147 -8h-220q-97 1 -129 8v-86q37 6 127 6h83v-218h-34q-96 0 -121 8v-83zM403 671q0 109 6 133h-90q6 -31 6 -89h-111q0 52 1 77q2 29 5 50h-87q7 -39 6 -139v-228q-8 10 -24 31q-26 35 -38 52q-15 -35 -51 -79
q133 -117 190 -346h-29q-56 0 -83 1q-30 2 -48 5v-85q36 6 127 6h134q73 0 118 -6v85q-48 -6 -120 -6h-19q-34 120 -64 185h52q82 -1 125 -8q-5 19 -6 87v274z" />
</svg>
