<?xml version="1.0" standalone="no"?>
<!DOCTYPE svg PUBLIC "-//W3C//DTD SVG 1.1//EN" "http://www.w3.org/Graphics/SVG/1.1/DTD/svg11.dtd" >
<svg xmlns="http://www.w3.org/2000/svg" xmlns:xlink="http://www.w3.org/1999/xlink" version="1.1" viewBox="-10 0 1010 1000">
   <path fill="currentColor"
d="M823 -2q51 73 50 80q-3 4 -21 4q-24 -1 -42 2q-98 13 -133 20q-2 11 -7 41q-9 60 -15 84h129q82 0 135 -8v85q-14 -3 -86 -4q-35 -1 -51 -2h-42q80 160 222 202q-45 33 -71 70q-49 -31 -113 -89q-6 18 -6 85v194q0 59 1 82q1 28 5 45h-88q6 -30 6 -129v-192
q0 -64 -4 -103h72q-54 -68 -93 -165h-32q-51 98 -109 165q11 1 30 2q47 3 45 8q1 3 -3 12q-9 24 -9 49q-2 150 -39 219q-34 71 -145 142q-23 -31 -88 -61q131 -45 166 -116q40 -66 31 -241l-95 83q-25 -27 -54 -38v103q0 61 2 87q1 29 6 40h-89q10 -32 10 -77h-90
q-2 42 0 65q1 25 8 60h-97q15 -54 14 -143v-206q-13 24 -62 85q-19 -30 -55 -65q137 -111 182 -334h-27h-19q-81 -1 -98 4v-81q36 5 121 6h121q78 -1 109 -6v83q-18 -6 -99 -6h-34q-34 119 -64 181h44q10 -1 43 -2q59 -2 80 -4q-6 50 -6 117v57q118 -49 189 -188h-32
q-116 0 -139 6v-83q33 6 139 6h55q13 -47 16 -119q-81 7 -145 13v-3q-4 -36 -27 -72q242 9 398 -50zM298 387h-94v223h94v-223z" />
</svg>
