<?xml version="1.0" standalone="no"?>
<!DOCTYPE svg PUBLIC "-//W3C//DTD SVG 1.1//EN" "http://www.w3.org/Graphics/SVG/1.1/DTD/svg11.dtd" >
<svg xmlns="http://www.w3.org/2000/svg" xmlns:xlink="http://www.w3.org/1999/xlink" version="1.1" viewBox="-10 0 1010 1000">
   <path fill="currentColor"
d="M403 12q54 4 143 4h212q101 0 153 -6v76q-62 -4 -155 -4h-73v55h121q70 0 94 -1q30 0 52 -3q-6 83 0 155h-81q8 -25 8 -87h-194v129q0 95 7 125h-87q8 -35 8 -125v-129h-174q0 54 3 81h-81q10 -51 6 -149q25 2 53 3q14 1 30 1h42h119v-55h-61q-109 0 -145 4v-74zM38 50
q47 6 125 6h83q68 -1 107 -6v81q-22 -2 -44 -3q-19 -1 -59 -1q-7 24 -40 116q-13 37 -18 51h70q55 -1 85 -4q-4 28 -4 103v238q0 68 1 94q1 32 3 51h-81q4 -38 4 -93h-97q0 63 1 88q1 30 3 45h-82q4 -52 4 -135v-208q-7 15 -36 60q-3 5 -5 7q-15 -39 -54 -81
q117 -108 165 -332q-84 0 -131 8v-85zM456 242q54 8 129 0v64q-27 -2 -69 -1q-38 0 -60 3v-66zM710 244q47 8 139 0v66q-62 -6 -139 0v-66zM427 344q63 7 144 4h14v65q-70 -6 -158 0v-69zM708 348q87 6 173 0v65q-76 -6 -173 0v-65zM171 362v253h101v-253h-101zM409 465
q42 5 113 6h270q59 0 101 -4q-5 39 -4 95v244q1 55 4 79h-87q7 -21 7 -75h-325q-2 40 6 77h-87q6 -23 6 -85v-230q0 -69 -4 -107zM488 534v78h125v-78h-125zM679 534v78h134v-78h-134zM488 671v75h125v-75h-125zM679 671v75h134v-75h-134z" />
</svg>
