<?xml version="1.0" standalone="no"?>
<!DOCTYPE svg PUBLIC "-//W3C//DTD SVG 1.1//EN" "http://www.w3.org/Graphics/SVG/1.1/DTD/svg11.dtd" >
<svg xmlns="http://www.w3.org/2000/svg" xmlns:xlink="http://www.w3.org/1999/xlink" version="1.1" viewBox="-10 0 1010 1000">
   <path fill="currentColor"
d="M601 -10q96 4 103 12q1 2 -5 12q-18 25 -18 46v81h77q163 0 186 -6v88q-26 -10 -192 -10h-71v143q173 3 224 -6v83q-95 -5 -209 -6q94 255 262 315l-21 21q-37 32 -46 69q-139 -99 -210 -290v212q0 109 6 147h-86q6 -40 6 -143v-226q-81 195 -262 337q-30 -46 -75 -73
q56 -23 85 -50h-65q2 -6 2 -41h-141q0 58 1 75q1 21 3 26h-82q6 -18 6 -105v-544q0 -32 -5 -84q-1 -8 -1 -11q19 2 44 3q12 1 27 1h39h83q61 -1 103 -4q-4 29 -4 101v464q0 94 2 111q135 -114 206 -311q-119 0 -166 6v-85q117 8 200 8v-141h-51q-140 0 -169 8v-88
q26 8 173 8h47v-45q0 -54 -1 -72q-1 -24 -5 -36zM151 133v133h143v-133h-143zM151 330v123h143v-123h-143zM151 516v121h143v-121h-143z" />
</svg>
