<?xml version="1.0" standalone="no"?>
<!DOCTYPE svg PUBLIC "-//W3C//DTD SVG 1.1//EN" "http://www.w3.org/Graphics/SVG/1.1/DTD/svg11.dtd" >
<svg xmlns="http://www.w3.org/2000/svg" xmlns:xlink="http://www.w3.org/1999/xlink" version="1.1" viewBox="-10 0 1010 1000">
   <path fill="currentColor"
d="M502 -8q100 -1 97 10q0 1 -2 5q-14 19 -14 63v55h157v-51q0 -49 -6 -82q6 1 19 2q81 7 80 12q1 3 -4 10q-16 30 -16 68v43h38q46 -1 82 -4v74q-36 -6 -82 -6h-38q0 63 2 87h-83q8 -32 8 -87h-157q0 44 6 77h-87q8 -39 8 -77h-24q-41 0 -65 4v-74q31 4 61 4h28v-47
q0 -55 -8 -86zM655 320q-91 91 -159 143q13 3 58 4h182q31 0 70 -4q-73 -48 -151 -143zM448 594q55 8 112 8h206q63 -1 95 -4q-8 41 -8 89v129q0 54 6 89h-87q6 -27 6 -75h-252q-1 56 4 75h-86q9 -24 8 -89v-141q0 -35 -4 -81zM526 659v115h252v-115h-252zM331 461
q229 -77 294 -238q61 18 91 37q-1 2 -6 6q-7 5 -6 10q99 138 264 163q-24 19 -57 85q-28 -15 -72 -39q-12 -7 -18 -10v59q-18 -5 -83 -4h-182q-48 0 -78 6v-63q-11 7 -30 20q-35 25 -49 33q-35 -49 -68 -65zM214 -23q105 44 101 53q-1 3 -9 9q-18 11 -26 25q-6 10 -23 36
q-17 27 -23 37h64q46 0 91 -6v80q-33 -6 -85 -6h-110q-13 23 -43 63q-13 18 -20 28q17 5 59 4h120q17 0 57 -4v75q-27 -6 -63 -6h-36v112h18q44 -1 59 -4v75q-27 -6 -63 -6h-14v179q19 -20 57 -65q11 -13 16 -19q10 40 40 74q-104 78 -177 178q-25 -50 -59 -79
q45 -39 47 -60v-208h-43q-37 0 -47 1q-13 0 -31 3v-75q38 6 76 6h45v-112h-25q-36 -1 -48 4v-57q-7 10 -21 25q-8 9 -11 13q-15 -46 -41 -78q111 -108 168 -295z" />
</svg>
