<?xml version="1.0" standalone="no"?>
<!DOCTYPE svg PUBLIC "-//W3C//DTD SVG 1.1//EN" "http://www.w3.org/Graphics/SVG/1.1/DTD/svg11.dtd" >
<svg xmlns="http://www.w3.org/2000/svg" xmlns:xlink="http://www.w3.org/1999/xlink" version="1.1" viewBox="-10 0 1010 1000">
   <path fill="currentColor"
d="M226 -12q102 27 101 40q0 2 -9 9q-19 14 -26 27q-5 10 -16 29q-21 40 -34 66h20q73 -1 127 -10v86q-35 -7 -131 -8h-58l-69 95q37 7 83 8h40q95 -1 123 -8v79q-25 -6 -115 -6v107q43 0 63 -2q25 -2 56 -8v84q-37 -8 -119 -8v190q60 -55 105 -109q7 43 32 80
q-95 67 -195 178q-21 -42 -51 -81q39 -31 39 -52v-204q-91 -7 -134 6v-80q32 6 134 6v-107q-63 0 -75 4v-57q-14 16 -35 45q-7 11 -11 16q-21 -42 -53 -79q140 -126 208 -336zM728 -10q11 0 32 1q66 1 65 9q1 2 -3 7q-16 26 -16 81v61h27q80 -1 115 -6v76q-15 -6 -111 -6
h-31v12v16q-1 55 4 75h-86q8 -39 8 -93v-10h-153v20v19q-1 52 4 66h-85q7 -26 8 -87v-18q-82 -1 -95 6v-80q27 9 93 10v-69v-28q1 -47 -2 -58q8 0 22 1q75 1 73 9q1 2 -3 9q-16 25 -17 65v71h155v-55v-21q1 -57 -4 -83zM687 288q8 27 21 69q11 36 14 46l-85 14
q0 -31 -34 -109zM950 421v85q-47 -7 -154 -8h-236v294h170q125 -1 173 -8v87q-47 -7 -171 -8h-113q-95 1 -141 6q2 -16 3 -44q1 -13 1 -31v-50v-246q-47 -7 -83 2v-79q31 5 99 6h298q118 0 154 -6z" />
</svg>
