<?xml version="1.0" standalone="no"?>
<!DOCTYPE svg PUBLIC "-//W3C//DTD SVG 1.1//EN" "http://www.w3.org/Graphics/SVG/1.1/DTD/svg11.dtd" >
<svg xmlns="http://www.w3.org/2000/svg" xmlns:xlink="http://www.w3.org/1999/xlink" version="1.1" viewBox="-10 0 1010 1000">
   <path fill="currentColor"
d="M593 -15q99 24 101 33q-1 3 -6 4q-24 8 -61 42q-11 11 -56 51q-39 34 -53 48l246 -8q-48 -45 -83 -71l75 -30q11 11 35 33q98 92 132 128l-80 43l-33 -43l-183 6q65 15 65 23q-1 5 -9 11q-19 14 -34 39h149q91 0 142 -12v83q-51 -6 -140 -7h-48q79 84 220 109
q-5 8 -19 25q-32 41 -40 58q-166 -85 -236 -192h-64q-79 105 -175 176q-26 -39 -61 -57q75 -24 153 -119q-69 0 -91 1q-29 1 -46 4v-81q42 9 133 10h41q25 -43 28 -69q-161 6 -168 21q-20 -48 -40 -73q97 -19 206 -186zM377 16q43 62 52 86q-1 3 -11 2q-55 -2 -148 21v149
q66 0 101 -8v84q-35 -4 -101 -4v79l49 -28q3 5 10 16q59 92 78 133l-74 32q-3 -7 -8 -20q-30 -71 -55 -103v283q0 102 10 167h-101q10 -61 11 -163v-261q-37 98 -107 210q-46 -52 -69 -68q96 -84 167 -277h-26q-74 0 -113 8v-86q28 8 119 8h29v-139q-15 3 -50 9
q-39 7 -61 11q-13 -38 -37 -73q222 -14 335 -68zM665 419q53 42 67 66q-1 3 -9 3q-22 1 -42 16q-110 79 -221 135q-19 -34 -55 -57q159 -52 260 -163zM762 518q62 53 67 74q-2 3 -9 4q-18 1 -40 16q-165 104 -336 154q-16 -34 -53 -67q242 -48 371 -181zM859 617
q70 59 74 74q-1 2 -12 4q-30 6 -46 18q-159 131 -466 198q-14 -38 -56 -85q282 -4 506 -209z" />
</svg>
