<?xml version="1.0" standalone="no"?>
<!DOCTYPE svg PUBLIC "-//W3C//DTD SVG 1.1//EN" "http://www.w3.org/Graphics/SVG/1.1/DTD/svg11.dtd" >
<svg xmlns="http://www.w3.org/2000/svg" xmlns:xlink="http://www.w3.org/1999/xlink" version="1.1" viewBox="-10 0 1010 1000">
   <path fill="currentColor"
d="M623 -12q60 1 103 8q1 3 -4 8q-19 19 -16 50q0 66 2 101q17 155 211 193q-44 28 -64 77q-140 -69 -186 -183q-28 103 -159 175q-34 -34 -83 -52q189 -56 200 -220q1 -43 1 -67q3 -58 -3 -79q-1 -5 -2 -11zM387 -8q51 51 55 76q-2 1 -8 0q-35 -8 -126 4v73q101 0 142 -6
v72q-32 -5 -58 -6q-27 -2 -84 -2v53l45 -33q68 43 105 75l-61 46q-49 -56 -89 -74q0 96 7 137h-83q6 -34 6 -109v-46q-84 96 -137 135q-31 -30 -71 -43q113 -61 186 -141h-43q-77 0 -125 8v-70q37 6 127 6h65v-69q-17 3 -59 9q-43 6 -60 9q-15 -42 -34 -70q132 6 300 -34z
M804 64q80 27 85 38q-1 6 -9 11q-16 10 -25 28q-4 9 -22 40q-25 43 -35 63q-17 -7 -46 -19q-15 -5 -22 -8q51 -80 74 -153zM353 363q78 12 80 20q0 3 -5 7q-16 15 -21 43h172q115 0 203 -8q-3 21 -7 57q-7 69 -19 92q-13 32 -131 39q-4 -47 -32 -79q59 12 88 6q19 -1 23 -48
h-426v141h337q146 0 266 -8q-30 237 -44 242q-22 33 -150 42q-5 -53 -36 -85q92 10 111 -8q27 -24 28 -123h-409q-129 0 -183 6q6 -39 6 -111v-46q0 -73 -8 -115q18 1 53 2q54 3 80 4q20 -49 24 -70zM458 502q56 51 80 96l-76 23q-30 -53 -75 -93zM702 737v77
q-47 -8 -160 -8h-288q-128 0 -167 8v-79q66 9 165 9h286q87 0 164 -7zM512 64q74 12 85 24q1 6 -7 12q-14 10 -17 29q-14 80 -29 125q-26 -14 -72 -19q34 -77 40 -171z" />
</svg>
