<?xml version="1.0" standalone="no"?>
<!DOCTYPE svg PUBLIC "-//W3C//DTD SVG 1.1//EN" "http://www.w3.org/Graphics/SVG/1.1/DTD/svg11.dtd" >
<svg xmlns="http://www.w3.org/2000/svg" xmlns:xlink="http://www.w3.org/1999/xlink" version="1.1" viewBox="-10 0 1010 1000">
   <path fill="currentColor"
d="M653 0q95 8 103 18q0 4 -6 11q-26 27 -48 86h62q67 0 115 -3h10q-6 63 -11 163q-6 133 -21 152q-21 35 -121 44q-8 -48 -36 -86q73 9 84 -4q13 -12 17 -47q4 -33 5 -151h-163v327h103q104 0 179 -6q-3 37 -9 134q-10 192 -21 204q-28 44 -169 55q-3 -57 -38 -103
q44 8 82 8q36 -1 45 -10q18 -18 24 -214h-125q-104 0 -154 6q13 -54 13 -189v-158q0 -76 -6 -129q22 5 74 5q20 -71 12 -113zM315 6q26 63 40 115h34q94 0 145 -8v80q-63 -6 -143 -6h-222v214h129v-73q-61 0 -108 6v-76q47 8 108 8v-10q0 -36 -4 -57q85 3 89 8q1 2 -2 6
q-14 16 -14 51q91 -1 145 -4q-4 27 -4 139q27 0 48 -6v70q-18 -6 -48 -6q0 111 8 147q-42 -6 -113 -6h-48q-4 12 -4 21q87 86 165 187l-76 48q-26 -74 -107 -163q-32 103 -117 208q-37 -28 -87 -43q111 -49 157 -260q-59 0 -103 6v-74q44 6 111 6q4 -30 4 -75h-129
q-4 240 -80 404q-22 -15 -83 -31q60 -86 77 -204q19 -105 18 -395q-2 -87 -4 -118q38 6 179 6q-9 -44 -44 -97zM738 219q26 58 36 115l-74 16q-7 -65 -33 -115zM365 328v73h75v-73h-75zM363 459q0 38 -4 75h81v-75h-77zM502 641q22 4 50 5q13 1 29 1h42h54q78 0 123 -6v80
q-39 -6 -123 -6h-54q-95 0 -121 6v-80z" />
</svg>
