<?xml version="1.0" standalone="no"?>
<!DOCTYPE svg PUBLIC "-//W3C//DTD SVG 1.1//EN" "http://www.w3.org/Graphics/SVG/1.1/DTD/svg11.dtd" >
<svg xmlns="http://www.w3.org/2000/svg" xmlns:xlink="http://www.w3.org/1999/xlink" version="1.1" viewBox="-10 0 1010 1000">
   <path fill="currentColor"
d="M589 -6q103 14 103 20q1 3 -4 7q-29 25 -57 98h83q80 0 131 -6q12 -1 16 -1q-1 8 -3 33q-6 59 -7 84q-11 172 -30 194q-37 36 -136 46q-11 -55 -44 -92q84 12 101 -6q28 -23 32 -183v-1h-203v311h173q107 0 177 -8q-3 30 -8 113q-10 190 -20 221q-15 58 -171 79
q-7 -48 -49 -109q94 20 131 -8q24 -29 27 -220h-172q-128 0 -175 8q10 -54 10 -175v-166l-69 53q-75 -90 -169 -137q-3 4 -9 13q-66 103 -96 140q25 6 105 6h30q69 0 125 -8q-8 41 -8 103v22q-2 133 -16 141q-22 25 -121 44q-2 -49 -40 -92q82 10 91 -6q13 -28 10 -139h-123
v342q-6 50 52 47q51 1 66 -20q19 -20 21 -85q50 46 80 50q-16 135 -135 135h-86q-71 0 -71 -104v-271q-1 -96 -4 -141l-56 65q-20 -60 -41 -79q138 -111 202 -308q57 11 101 32q1 4 -6 9q-21 16 -37 45q67 37 204 123q0 -76 -6 -100q36 6 79 6q19 -70 22 -125zM433 639
q51 10 136 10h92q80 0 121 -8v84q-42 -8 -123 -8h-94q-55 0 -80 1q-29 1 -52 5v-84zM657 221q43 53 65 99l-71 28q-25 -68 -54 -102z" />
</svg>
