<?xml version="1.0" standalone="no"?>
<!DOCTYPE svg PUBLIC "-//W3C//DTD SVG 1.1//EN" "http://www.w3.org/Graphics/SVG/1.1/DTD/svg11.dtd" >
<svg xmlns="http://www.w3.org/2000/svg" xmlns:xlink="http://www.w3.org/1999/xlink" version="1.1" viewBox="-10 0 1010 1000">
   <path fill="currentColor"
d="M605 -4q16 4 43 12q69 18 60 18q1 1 -7 8q-21 16 -26 30q-9 26 -24 75q-4 14 -6 20h210q36 0 87 -6q-6 96 -13 336q-5 226 -14 299q-2 70 -177 93q1 -49 -44 -103q129 25 141 -38q20 -94 30 -519h-40q4 424 -218 601q-25 -31 -81 -52q235 -130 236 -549h-44
q-19 266 -166 426q-12 -46 -40 -75q-44 123 -95 180q9 5 35 18q58 29 90 48q-30 19 -60 53l-6 6q-70 -51 -117 -75q-103 72 -242 97q-8 -41 -48 -81q136 1 223 -48q-66 -27 -145 -47q36 -49 53 -94h-35q-55 0 -98 8v-83q60 8 100 8h59q20 -48 24 -79v-4h-75q-36 0 -72 6
q5 -26 6 -68v-153q-1 -37 -6 -65q29 5 68 6h63v-80h-79q-53 0 -97 8v-77q47 7 97 8h295q53 0 100 -10v79q-54 -8 -98 -8h-49v80h67q27 0 68 -8q-6 24 -6 55v24q56 -110 73 -280zM288 125v80h61v-80h-61zM659 221h-30q-30 84 -64 144q-34 -40 -37 -37v89q1 33 6 68
q-41 -7 -70 -6h-206q15 5 46 14q46 14 41 13q-24 19 -43 58h135q31 0 79 -8l-2 12q122 -105 145 -347zM288 260v163h61v-163h-61zM177 260v163h57v-163h-57zM403 260v163h57v-163h-57zM415 627h-139q-3 6 -10 18q-16 29 -22 42q9 3 31 11q47 16 76 27q34 -31 64 -98z" />
</svg>
