<?xml version="1.0" standalone="no"?>
<!DOCTYPE svg PUBLIC "-//W3C//DTD SVG 1.1//EN" "http://www.w3.org/Graphics/SVG/1.1/DTD/svg11.dtd" >
<svg xmlns="http://www.w3.org/2000/svg" xmlns:xlink="http://www.w3.org/1999/xlink" version="1.1" viewBox="-10 0 1010 1000">
   <path fill="currentColor"
d="M248 -2q94 1 97 10q-19 28 -20 86v79h76q51 0 99 -6v71q-56 -7 -99 -7h-76v41q1 9 1 27q2 39 5 53h-59q47 26 45 31q0 1 -6 4q-50 23 -109 88l125 -10q44 -40 72 -82q57 41 67 54q-1 3 -15 9q-21 10 -30 17q-6 5 -21 17q-119 97 -192 132q135 -9 191 -18q-17 -24 -38 -44
l58 -28q40 51 91 125l-66 36q-8 -24 -23 -50q-14 2 -43 7t-43 7v167q1 39 -25 53q-22 15 -106 26q-8 -50 -31 -89q84 10 91 -32v-119q-16 2 -58 8q-75 9 -105 14q-7 -42 -20 -69q94 -13 197 -94q-90 9 -187 24l-20 -61q72 5 185 -143q6 -36 6 -88q-76 94 -177 159
q-17 -35 -57 -59q100 -35 178 -111h-65q-54 1 -97 9v-75q51 7 95 8h119v-91q-2 -55 -10 -86zM931 22v84q-65 -8 -108 -8h-85l-24 117h78q65 -1 105 -6q-1 6 -3 17q-5 33 -5 58v252q1 82 12 119h-95q11 -52 11 -111v-266h-212v260q1 83 8 115h-87q8 -35 8 -115v-258
q-1 -44 -6 -73q37 8 81 8h36l16 -117h-58q-72 0 -107 8v-84q45 8 103 8h224q57 0 108 -8zM159 24q9 11 69 105l-71 36q-20 -51 -64 -109zM421 24l67 40q-49 66 -79 95l-60 -28q41 -39 72 -107zM671 336q101 4 103 10q-1 2 -8 12q-13 17 -14 23q-2 20 -4 77q-3 190 -40 255
q-71 120 -200 186q-29 -45 -81 -63q155 -42 224 -173q42 -89 20 -327zM399 677l107 85l-58 46q-49 -58 -103 -95zM774 677q94 75 176 147l-77 65q-31 -53 -157 -158zM143 685q79 39 75 44q-3 4 -16 11q-17 10 -23 16q-17 16 -51 54q-31 34 -49 52l-61 -38q67 -46 125 -139z
M335 272l50 -32q44 27 92 66q14 10 21 16l-56 51q-77 -74 -107 -101z" />
</svg>
