<?xml version="1.0" standalone="no"?>
<!DOCTYPE svg PUBLIC "-//W3C//DTD SVG 1.1//EN" "http://www.w3.org/Graphics/SVG/1.1/DTD/svg11.dtd" >
<svg xmlns="http://www.w3.org/2000/svg" xmlns:xlink="http://www.w3.org/1999/xlink" version="1.1" viewBox="-10 0 1010 1000">
   <path fill="currentColor"
d="M196 -8q100 0 98 10q0 1 -1 4q-19 41 -19 123h34q62 -1 85 -6v78q-25 -6 -85 -6h-34v81h30q57 0 75 -6v78q-32 -6 -71 -6h-36v91h36q64 -3 91 -8v79q-27 -9 -89 -6h-40v80l43 -26q48 54 94 123l-72 40q-45 -97 -65 -107v168q0 95 6 127h-91q6 -22 12 -121q1 -5 1 -8v-162
q-56 97 -140 206q-10 -52 -32 -91q109 -103 159 -229h-26q-93 0 -117 10v-83q38 8 127 8h31v-91h-41q-48 0 -72 6v-80q34 8 74 8h41v-81h-29q-48 0 -111 6v-82q33 10 107 10h31v-35q1 -84 -4 -102zM917 24q-3 57 -4 111v92q0 11 2 46q2 38 2 51q-25 -4 -95 -3q-40 0 -56 -1
h-72v73h64q102 -3 129 -8v78q-36 -6 -123 -6h-72v79h86q131 -7 168 -10v82q-58 -5 -154 -8h-147q60 39 57 43q-2 4 -11 5q-21 5 -40 25l-31 31l-90 90l250 -20q-40 -59 -70 -81l72 -30q49 59 121 154q24 32 35 46l-83 32q-9 -16 -25 -40q-8 -12 -11 -17q-289 23 -386 43
q-7 -24 -26 -75q-4 -10 -6 -16q117 -31 198 -190h-65q-8 1 -34 2q-82 4 -107 8v-84q69 12 147 10h81v-79h-58q-95 0 -125 6v-76q32 7 104 6h23h56v-73h-73q-65 -1 -125 6q4 -27 4 -111v-86q-3 -83 -6 -101q35 6 184 6h133q15 -1 43 -2q117 -5 136 -8zM837 100h-69v154h69
v-154zM502 100v154h71v-154h-71zM633 100v154h75v-154h-75z" />
</svg>
