<?xml version="1.0" standalone="no"?>
<!DOCTYPE svg PUBLIC "-//W3C//DTD SVG 1.1//EN" "http://www.w3.org/Graphics/SVG/1.1/DTD/svg11.dtd" >
<svg xmlns="http://www.w3.org/2000/svg" xmlns:xlink="http://www.w3.org/1999/xlink" version="1.1" viewBox="-10 0 1010 1000">
   <path fill="currentColor"
d="M631 -17q49 7 97 29q-33 25 -101 105h165q70 0 99 -7v79q-31 -8 -91 -8h-268v73h186q79 0 115 -8v80q-45 -8 -137 -8h-164v81h268q94 0 121 -8v84q-23 -5 -50 -6q-12 -1 -27 -2h-38h-405q82 33 73 35q-2 5 -15 11q-13 5 -19 11q-7 8 -29 30h192q103 1 149 -6
q-54 90 -133 159q113 96 321 125q-16 14 -34 41q-15 22 -27 40q-183 -45 -310 -169q-63 53 -204 112q-101 43 -240 57q-14 -44 -58 -89q183 1 316 -56q152 -69 218 -153h-246q-84 69 -174 122q-22 -35 -66 -66q184 -67 260 -204h-190q-74 -1 -114 8v-88q45 11 116 12h265
v-81h-196q-80 0 -113 6v-78q29 8 107 8h202v-73h-246q-74 0 -107 8v-81q46 9 105 9h149q-24 -41 -79 -97l73 -30q60 60 93 104l-51 23h159q58 -77 83 -134z" />
</svg>
