<?xml version="1.0" standalone="no"?>
<!DOCTYPE svg PUBLIC "-//W3C//DTD SVG 1.1//EN" "http://www.w3.org/Graphics/SVG/1.1/DTD/svg11.dtd" >
<svg xmlns="http://www.w3.org/2000/svg" xmlns:xlink="http://www.w3.org/1999/xlink" version="1.1" viewBox="-10 0 1010 1000">
   <path fill="currentColor"
d="M460 -23q75 1 100 13q0 1 -2 5q-18 26 -18 89v93h252q34 0 45 -1q14 -1 44 -7v71q-38 -8 -87 -7h-181q134 101 308 117q-51 25 -76 73q-184 -42 -305 -190v129q0 49 8 83h-88q9 -39 8 -83v-127q-169 143 -335 198q-26 -45 -75 -66q179 -36 315 -134h-133q-45 -1 -93 7
v-69q38 7 75 6h20h226q0 -93 -2 -134q-1 -48 -6 -66zM726 2q26 8 87 35l6 3q-10 -1 -105 117l-65 -36q56 -65 77 -119zM294 6q51 60 87 115l-71 38q-32 -70 -82 -121zM260 407q56 14 87 28q4 5 -5 9q-17 10 -25 25q-7 14 -25 39h93q64 -1 101 -12q-41 162 -113 246
q-95 92 -246 147q-3 -2 -13 -15q-30 -42 -54 -48q102 -21 214 -93q-39 -46 -84 -74l56 -28q33 20 77 58q50 -66 62 -125h-135q-52 71 -119 123q-3 -1 -10 -9q-24 -26 -52 -29q151 -128 191 -242zM692 413q82 3 98 14q0 2 -4 7q-12 15 -12 31v41q129 -2 153 -12v78
q-26 -6 -51 -7q-13 -1 -35 -1h-67v119q143 1 172 -8v73q-27 -3 -67 -5q-19 0 -44 -1h-61v72q0 42 8 93h-88q1 -7 3 -17q5 -23 5 -74v-74h-107q-33 0 -52 1q-36 1 -53 7q27 -71 30 -156q41 0 81 10q16 3 3 17q-14 14 -17 24q-2 7 -4 19q-2 14 -4 19h123v-117h-109
q-22 0 -34 1q-11 1 -51 7v-74q29 7 66 6h17h111q0 -37 -7 -74q-3 -13 -3 -19z" />
</svg>
