<?xml version="1.0" standalone="no"?>
<!DOCTYPE svg PUBLIC "-//W3C//DTD SVG 1.1//EN" "http://www.w3.org/Graphics/SVG/1.1/DTD/svg11.dtd" >
<svg xmlns="http://www.w3.org/2000/svg" xmlns:xlink="http://www.w3.org/1999/xlink" version="1.1" viewBox="-10 0 1010 1000">
   <path fill="currentColor"
d="M341 -8q29 9 79 29q13 5 18 7q-22 11 -99 169q75 0 105 -6v77q-42 -9 -150 -8v103q31 2 56 0q24 -2 71 -9v81q-48 -8 -127 -8q0 48 -1 69q-1 25 -3 48q98 0 154 -12v83q-23 -4 -61 -6q-19 0 -42 -1h-59q-39 175 -177 297q-39 -39 -87 -55q146 -83 184 -244
q-118 -1 -158 7v-79q51 8 168 8q4 -19 5 -43q1 -11 1 -27v-45h-18q-76 -1 -113 6v-79q52 10 131 9v-103q-107 0 -155 6v-79q42 11 145 10h64q59 -142 69 -205zM175 8q46 77 69 139l-75 26q-35 -89 -72 -135zM468 66q46 7 127 6h181q85 1 127 -6q-6 29 -6 113v272
q0 72 10 107h-94q5 -14 4 -46h-263v219q-1 41 14 51q14 12 65 12h131q63 1 83 -25q24 -26 22 -96q39 42 87 52q-11 87 -39 114q-27 31 -98 30h-242q-62 2 -81 -15q-22 -18 -22 -70v-601v-16q1 -66 -6 -101zM554 139v306h99v-54v-252h-99zM724 139v175v131h93v-306h-93z" />
</svg>
