<?xml version="1.0" standalone="no"?>
<!DOCTYPE svg PUBLIC "-//W3C//DTD SVG 1.1//EN" "http://www.w3.org/Graphics/SVG/1.1/DTD/svg11.dtd" >
<svg xmlns="http://www.w3.org/2000/svg" xmlns:xlink="http://www.w3.org/1999/xlink" version="1.1" viewBox="-10 0 1010 1000">
   <path fill="currentColor"
d="M202 -10q12 1 34 3q77 6 74 13q0 2 -3 10q-23 47 -21 143h71q38 0 78 -8q-7 32 -8 89v183q1 39 10 105h-82v-40h-69v189q3 -1 10 -2q34 -7 57 -12l-36 -73l70 -20q15 29 56 123q22 50 31 71l-87 30q-6 -39 -12 -65q-235 39 -308 75l-35 -101q62 0 163 -13q13 -2 19 -3
v-197h-75q0 31 6 82h-85q7 -45 7 -115v-228q0 -43 -5 -76q3 0 9 1q39 5 60 5h81q0 -74 -2 -107q-2 -36 -8 -62zM476 48q62 9 105 10h201q65 -1 135 -8q-9 42 -10 83v419q0 53 12 129h-96q6 -45 8 -79h-103v196q0 67 10 109h-91q9 -28 10 -109v-196h-97q0 14 3 52q1 14 2 21
h-89q7 -29 6 -105v-409q-1 -77 -6 -113zM657 121h-99v175h99v-175zM831 121h-103v175h103v-175zM139 223v204h73v-204h-73zM284 223v202h71v-202h-71zM558 360v178h99v-178h-99zM728 360v178h103v-178h-103z" />
</svg>
