<?xml version="1.0" standalone="no"?>
<!DOCTYPE svg PUBLIC "-//W3C//DTD SVG 1.1//EN" "http://www.w3.org/Graphics/SVG/1.1/DTD/svg11.dtd" >
<svg xmlns="http://www.w3.org/2000/svg" xmlns:xlink="http://www.w3.org/1999/xlink" version="1.1" viewBox="-10 0 1010 1000">
   <path fill="currentColor"
d="M621 -6q7 1 20 4q86 17 81 22q1 4 -10 12q-36 28 -65 74h95q164 0 196 -10v83q-21 -6 -125 -6h-55q4 10 12 27q21 51 38 88l-92 14q-5 -44 -31 -114l-6 -15h-76q-35 49 -69 89q2 9 9 33q10 41 17 67h198q116 -1 163 -12v89q-24 -10 -163 -10h-492q-153 0 -181 10v-85
q28 8 173 8h216q-10 -40 -34 -84l76 -14q-23 -16 -78 -29q110 -70 183 -241zM248 -4q13 3 37 8q68 14 64 18q1 2 -9 11q-34 32 -64 75h73q120 1 149 -10v83q-17 -6 -141 -6l54 107l-86 20q-12 -58 -45 -127h-46q-41 60 -107 139q-33 -30 -75 -42q-6 -1 -8 -2
q121 -91 204 -274zM351 437q40 20 82 48q1 2 2 2q-1 2 -10 5q-27 11 -50 30q-50 40 -140 105q-26 19 -35 26q-28 -33 -75 -55q139 -60 226 -161zM637 445q10 6 30 17q175 98 192 110l-65 71q-73 -75 -213 -145zM599 552q48 18 89 46q0 3 -10 10q-18 12 -27 25
q-45 67 -86 107q54 25 165 40q120 16 203 10q-47 54 -56 101q-272 -37 -371 -101q-175 83 -389 111q-16 -54 -54 -91q212 8 379 -68q-72 -65 -130 -150l79 -34q48 90 111 141q55 -50 97 -147z" />
</svg>
