<?xml version="1.0" standalone="no"?>
<!DOCTYPE svg PUBLIC "-//W3C//DTD SVG 1.1//EN" "http://www.w3.org/Graphics/SVG/1.1/DTD/svg11.dtd" >
<svg xmlns="http://www.w3.org/2000/svg" xmlns:xlink="http://www.w3.org/1999/xlink" version="1.1" viewBox="-10 0 1010 1000">
   <path fill="currentColor"
d="M452 -19q11 5 30 14q73 32 64 37q-1 2 -7 2q-28 2 -65 24q-48 28 -105 59q-24 12 -34 18l260 -6q92 -47 131 -89q99 74 86 73q0 3 -11 5q-28 4 -57 17q-161 71 -341 141l325 -10q46 -42 72 -87q88 58 87 67q-1 1 -2 1q-13 2 -42 27q-110 113 -343 161q6 1 16 3q28 4 28 7
q1 1 -2 6q-10 20 -10 47h95q102 0 134 -1q42 -1 58 -5q-6 24 -6 121q0 67 6 102q-25 -8 -186 -8h-105v95l228 -2q7 -1 -52 -46l72 -31l157 152q-40 13 -80 42q-15 -33 -53 -67q-529 27 -689 54q-12 2 -14 1q-6 -19 -8 -27q-3 -14 -9 -26q-4 -10 -17 -42h11q99 5 376 -4v-99
h-198q-2 35 6 53h-93q8 -22 8 -129q0 -111 -6 -139q17 3 61 5q44 1 145 1h79q-1 -35 -10 -53q-145 24 -380 34q-2 -41 -36 -90q183 17 357 -2q175 -19 274 -67q-450 19 -451 30q-17 3 -25 2q-5 -46 -26 -84q159 13 347 -81q-47 2 -126 5q-195 8 -217 11q-15 -64 -26 -80
q-1 -2 13 -1q70 6 122 -18q135 -69 184 -123zM452 558h-200v89h200v-89zM530 558v89h204v-89h-204z" />
</svg>
