<?xml version="1.0" standalone="no"?>
<!DOCTYPE svg PUBLIC "-//W3C//DTD SVG 1.1//EN" "http://www.w3.org/Graphics/SVG/1.1/DTD/svg11.dtd" >
<svg xmlns="http://www.w3.org/2000/svg" xmlns:xlink="http://www.w3.org/1999/xlink" version="1.1" viewBox="-10 0 1010 1000">
   <path fill="currentColor"
d="M248 -6q79 10 99 18q0 3 -7 9q-34 29 -52 110q91 0 147 -10q-1 6 -2 17q-6 62 -6 110v516q51 -125 51 -303v-129q0 -45 -1 -75q0 -63 -3 -106q31 4 52 5q17 1 47 1h80q0 -75 -1 -98q-1 -29 -5 -61q79 4 95 14q0 1 -3 5q-19 29 -19 71v67h99q54 0 102 -6q-10 29 -34 127
q-9 38 -14 58q-29 -13 -75 -8q18 -54 25 -103h-103v170h54q71 -3 107 -8q-45 216 -129 346q71 61 186 93q-23 24 -47 83q-115 -52 -189 -123q-58 59 -156 133q-20 -35 -62 -63q73 -37 162 -121q6 -5 9 -8q-48 -68 -99 -213l69 -16q18 105 75 177q50 -77 84 -212h-236
q3 255 -108 426q-8 -13 -35 -18q-14 18 -113 32q5 -40 -20 -85q58 3 72 -5q16 -6 15 -37v-276h-163q-4 157 -20 226q-15 71 -69 173q-22 -39 -65 -63q52 -61 70 -132q19 -71 19 -204q-43 0 -77 6v-83q50 8 77 8v-187q0 -74 -8 -119q42 11 103 10q16 -63 22 -139zM359 199
h-161v232h161v-232zM292 252q13 50 37 119l-71 20q-2 -53 -30 -119zM292 542q12 31 31 110q3 13 4 19l-69 14q-5 -62 -30 -129zM552 225v168h101v-168h-101z" />
</svg>
