<?xml version="1.0" standalone="no"?>
<!DOCTYPE svg PUBLIC "-//W3C//DTD SVG 1.1//EN" "http://www.w3.org/Graphics/SVG/1.1/DTD/svg11.dtd" >
<svg xmlns="http://www.w3.org/2000/svg" xmlns:xlink="http://www.w3.org/1999/xlink" version="1.1" viewBox="-10 0 1010 1000">
   <path fill="currentColor"
d="M677 8q41 8 107 8q79 0 127 -8q-9 43 -8 111v58q0 83 8 125q-51 -8 -119 -8q-55 0 -115 8v-81q61 8 119 8h29v-147h-31q-50 0 -117 8v-82zM411 10q7 1 20 2q55 6 103 6q56 0 121 -8q-8 43 -8 125v34q0 86 8 133q-47 -8 -131 -8h-38v113q38 0 95 -4q25 -1 38 -2v72
q-68 -8 -133 -8v121q56 0 116 -6q11 -1 17 -2v73q-57 -8 -133 -8v95q0 83 8 127h-81q6 -58 6 -130v-171l-56 46q-12 -30 -48 -86q6 125 -13 211q-7 102 -175 132q2 -52 -38 -97q125 20 139 -63q12 -47 18 -175q-74 96 -177 197q-14 -39 -45 -72q152 -103 216 -232
q-2 -30 -14 -56q-65 88 -147 173q-19 -31 -53 -59q109 -76 174 -175q-12 -31 -31 -46q-34 44 -92 100q-14 -38 -43 -70q94 -59 170 -204h-23q-80 0 -123 6v-78q54 8 125 8h75q71 0 137 -8v80q-50 -8 -113 -8l-72 121q50 56 74 125q46 -49 63 -92q4 4 10 11q55 56 50 63
q-1 0 -2 1q-27 3 -107 76l6 30l24 24q62 62 91 97v-395q0 -107 -8 -139zM486 82v149h93v-149h-93zM645 365q50 8 131 8q82 -1 149 -10q-38 219 -117 346q62 49 154 85q-21 21 -55 81q-71 -34 -143 -115q-76 73 -181 129q-13 -47 -69 -81q122 -28 204 -107q-46 -93 -65 -240
l51 -18q-26 0 -59 6v-84zM726 441q6 123 40 208q47 -87 75 -208h-115z" />
</svg>
