<?xml version="1.0" standalone="no"?>
<!DOCTYPE svg PUBLIC "-//W3C//DTD SVG 1.1//EN" "http://www.w3.org/Graphics/SVG/1.1/DTD/svg11.dtd" >
<svg xmlns="http://www.w3.org/2000/svg" xmlns:xlink="http://www.w3.org/1999/xlink" version="1.1" viewBox="-10 0 1010 1000">
   <path fill="currentColor"
d="M619 -17q110 8 107 15q1 2 -6 11q-14 21 -18 35q-1 11 -2 34q-1 19 -2 32h68q107 -3 149 -6v79q-36 -6 -145 -6h-70q52 33 195 111q-39 28 -70 62q-65 -60 -164 -121q-51 85 -167 129q-19 -34 -63 -64q141 -24 178 -117h-46h-29q-73 -2 -103 6v-79q35 5 129 6h63
q0 -71 -4 -127zM91 48q66 7 129 8h40q81 1 125 -6q-7 33 -8 129v87q0 75 6 103q-34 -6 -99 -6v125q79 0 109 -5v79q-27 -9 -109 -6v155q70 -21 113 -40q-2 17 -1 49q2 26 5 40q-172 37 -359 107q-3 -21 -12 -69q-3 -13 -4 -20q2 -1 7 -2q24 -7 54 -18v-242q0 -40 -6 -79
q86 4 90 12q1 1 -2 7q-10 24 -10 54v234q1 0 3 -1q34 -8 52 -16v-364h-18q-71 0 -101 6q4 -48 4 -105v-117q-1 -61 -8 -99zM175 121v177h127v-177h-127zM403 360q34 5 133 5h313q65 -1 95 -5v77q-12 -7 -87 -6v387q2 55 -25 69q-23 16 -132 24q-3 -47 -35 -97q71 15 91 9
q25 -5 22 -35v-357h-242q-97 0 -133 6v-77zM437 494q23 0 89 6h87q28 0 93 -4q-6 29 -6 96v87q0 84 6 103h-83q6 -21 6 -44h-115q0 48 4 66h-81q5 -47 5 -107v-119q0 -36 -5 -84zM514 556v127h115v-127h-115z" />
</svg>
