<?xml version="1.0" standalone="no"?>
<!DOCTYPE svg PUBLIC "-//W3C//DTD SVG 1.1//EN" "http://www.w3.org/Graphics/SVG/1.1/DTD/svg11.dtd" >
<svg xmlns="http://www.w3.org/2000/svg" xmlns:xlink="http://www.w3.org/1999/xlink" version="1.1" viewBox="-10 0 1010 1000">
   <path fill="currentColor"
d="M208 -10q102 34 104 46q0 3 -13 12q-18 14 -27 24q-21 23 -36 51h133q53 0 93 -6q-33 54 -87 165q75 -1 117 -4q-4 24 -5 48q-1 21 -1 61v161q0 48 1 66q1 23 3 39q-39 -6 -107 -6h-171q-45 0 -63 1q-22 1 -36 3q8 -45 8 -103v-188q0 -43 -6 -56q-17 20 -32 38
q-33 -34 -73 -50q116 -88 198 -302zM913 84q-15 125 -23 560q-2 107 -3 134q4 69 -179 89q-7 -54 -47 -107q32 8 76 6q39 -2 51 -14q13 -10 16 -89l13 -498h-130q-6 397 -48 512q-46 131 -161 228q-34 -41 -97 -61q151 -69 202 -262q26 -118 22 -419q-31 0 -104 8
q-10 1 -15 2v-89q58 5 129 6h187q40 0 111 -6zM351 185h-147q-4 7 -12 18q-34 52 -53 73q10 6 61 6h96q37 -61 55 -97zM187 342v93h89v-93h-89zM335 342v93h86v-93h-86zM187 487v101h89v-101h-89zM335 487v101h86v-101h-86zM488 679q-14 43 -12 81q-18 3 -90 14
q-241 33 -291 54q-4 -46 -28 -103q258 0 421 -46z" />
</svg>
