<?xml version="1.0" standalone="no"?>
<!DOCTYPE svg PUBLIC "-//W3C//DTD SVG 1.1//EN" "http://www.w3.org/Graphics/SVG/1.1/DTD/svg11.dtd" >
<svg xmlns="http://www.w3.org/2000/svg" xmlns:xlink="http://www.w3.org/1999/xlink" version="1.1" viewBox="-10 0 1010 1000">
   <path fill="currentColor"
d="M129 10q36 8 133 8h452q98 0 149 -8v86q-36 -8 -139 -8h-188v57h270q88 0 117 -6l-3 24q-5 32 -5 60v19q0 53 8 98h-100q7 -36 8 -111v-24h-295v139q0 46 7 99q1 4 1 6h-96q9 -43 8 -101v-143h-307v26q0 56 6 91h-97q7 -28 7 -85v-18q0 -53 -7 -82q29 9 85 8h313v-57
h-192q-82 0 -135 8v-86zM187 256q31 4 83 4h45q41 0 54 -1q17 0 30 -3v72h-6q-43 -4 -83 -4h-38q-48 0 -79 3q-4 1 -6 1v-72zM581 258q2 0 6 1q50 5 92 5h23q45 0 89 -6h3v74q-10 -3 -29 -3q-14 -1 -63 -1h-23q-41 0 -85 3q-8 1 -13 1v-74zM177 367q31 4 91 4h38q59 0 93 -4
v74q-6 0 -28 -2q-46 -4 -71 -4h-24q-40 0 -84 5q-10 1 -15 1v-74zM577 369q10 0 33 2q36 2 61 2h29q50 0 66 -1q20 0 34 -3v72q-40 -4 -100 -4h-35q-41 0 -88 4v-72zM151 439q86 41 155 87l-52 64q-92 -69 -149 -94zM544 459q100 3 99 8q1 3 -3 8q-15 17 -15 43v14h163
q80 0 111 -8v78q-25 -8 -109 -8h-105q61 138 230 196q-48 27 -80 77q-160 -105 -210 -255v200q-1 57 8 95h-89q8 -19 8 -97v-204q-56 128 -227 261q-23 -30 -77 -61q150 -62 246 -212h-65q-65 -1 -100 8v-78q21 7 100 8h123q0 -51 -8 -73zM87 550q132 69 143 79l-49 68
q-51 -44 -137 -85zM308 637q11 44 27 80q-138 95 -214 156q-8 -12 -49 -62q-10 -12 -16 -19q136 -49 252 -155z" />
</svg>
