<?xml version="1.0" standalone="no"?>
<!DOCTYPE svg PUBLIC "-//W3C//DTD SVG 1.1//EN" "http://www.w3.org/Graphics/SVG/1.1/DTD/svg11.dtd" >
<svg xmlns="http://www.w3.org/2000/svg" xmlns:xlink="http://www.w3.org/1999/xlink" version="1.1" viewBox="-10 0 1010 1000">
   <path fill="currentColor"
d="M194 -15q93 35 96 47q0 4 -11 11q-18 14 -31 29q-7 9 -21 25q-11 13 -15 18h115q32 0 80 -2q11 -1 16 -1q-16 21 -54 85q-31 53 -46 75q36 0 106 -6q-4 32 -4 82v218q0 46 1 61q0 20 3 32q-14 -2 -39 -3q-11 -1 -27 -1h-44h-125q-72 0 -109 4q6 -39 6 -107v-212
q0 -37 -4 -46q-8 11 -15 16q-4 3 -7 6q-18 -44 -47 -68q117 -99 176 -263zM942 52q-5 39 -5 111v621q3 77 -22 91q-16 19 -137 36q-5 -58 -40 -105q57 16 99 4q28 -8 26 -44v-639h-309v653q0 97 8 131h-92q10 -41 10 -139v-607q0 -78 -6 -111q64 6 165 6h135q80 -1 168 -8z
M312 175h-135q-27 40 -66 91q18 6 54 6h77q50 -63 70 -97zM819 223v71q-22 -4 -111 -4q-51 0 -73 1q-26 1 -44 3v-69q48 6 119 6q78 0 109 -8zM157 332v99h69v-99h-69zM284 332v99h75v-99h-75zM603 379q33 3 72 4h57q31 0 42 -1q13 0 26 -3q-6 30 -6 96v125q0 44 1 60
q1 20 3 31q-31 -4 -60 -4h-69q-53 -1 -68 4q6 -33 6 -97v-123zM671 439v192h59v-192h-59zM284 487v109h75v-109h-75zM157 487v109h69v-109h-69zM435 707q-21 36 -18 81q-127 9 -348 56l-29 -96q164 -6 395 -41z" />
</svg>
