<?xml version="1.0" standalone="no"?>
<!DOCTYPE svg PUBLIC "-//W3C//DTD SVG 1.1//EN" "http://www.w3.org/Graphics/SVG/1.1/DTD/svg11.dtd" >
<svg xmlns="http://www.w3.org/2000/svg" xmlns:xlink="http://www.w3.org/1999/xlink" version="1.1" viewBox="-10 0 1010 1000">
   <path fill="currentColor"
d="M643 -12q110 3 109 10q1 2 -4 10q-16 24 -16 50v105h81q116 1 129 -6v81q-24 -6 -140 -7h-70v305l83 -12v-168q0 -31 -3 -46q83 -3 93 4q0 2 -2 5q-10 13 -10 44v233q0 63 6 93h-86q4 -38 4 -97l-85 12v148q-2 72 22 76q21 6 56 6q30 -1 43 -8q27 -13 30 -84q32 32 85 48
q-17 81 -65 109q-17 9 -76 11q-73 1 -109 -7q-65 -16 -65 -103v-187l-78 12q-8 1 -21 3q-39 6 -56 13q5 -29 6 -71v-216q0 -29 -8 -56q106 8 99 20q0 4 -4 11q-12 20 -12 50v179l74 -12v-313h-58q-115 1 -143 7v-85q21 10 139 10h62v-103q0 -44 -10 -74zM196 0q89 38 88 46
q0 4 -8 10q-13 11 -22 24q-4 7 -16 29q-5 11 -8 16h87q65 0 96 -4q-49 90 -86 147q78 0 119 -6q-6 36 -6 92v212q0 80 4 97q-13 -1 -38 -2h-30h-49h-127q-76 0 -113 2q2 -14 3 -38q1 -12 1 -28v-43v-163q0 -47 -4 -53q-10 15 -29 33q-13 -43 -38 -79q121 -112 176 -292z
M306 185h-106q-5 8 -16 24q-27 42 -39 55q6 3 42 4h67q25 -36 52 -83zM159 336v89h77v-89h-77zM373 336h-79v89h79v-89zM159 483v111h77v-111h-77zM373 483h-79v111h79v-111zM456 705q-16 38 -18 87q-262 37 -367 70q-13 -61 -27 -98q232 -15 412 -59z" />
</svg>
