<?xml version="1.0" standalone="no"?>
<!DOCTYPE svg PUBLIC "-//W3C//DTD SVG 1.1//EN" "http://www.w3.org/Graphics/SVG/1.1/DTD/svg11.dtd" >
<svg xmlns="http://www.w3.org/2000/svg" xmlns:xlink="http://www.w3.org/1999/xlink" version="1.1" viewBox="-10 0 1010 1000">
   <path fill="currentColor"
d="M188 -8q11 2 32 5q72 9 66 17q-1 3 -10 10q-21 18 -32 38q-19 34 -28 53h42q95 0 139 -3q-6 14 -11 25q-31 68 -57 112q-7 12 -17 29q85 0 128 -4q-2 10 -3 49q-1 26 -2 37v190q0 84 3 105q-26 -4 -107 -4h-117q-88 1 -123 6q4 -29 4 -121v-151q0 -81 -4 -89
q-20 -22 -63 -26q102 -106 160 -278zM940 38q-3 12 -6 76q-1 11 -1 17v187q1 81 7 113h-93q8 -29 10 -99q-67 23 -131 63q-7 -31 -39 -73q126 -37 170 -58v-154h-42q-81 1 -113 7v-79q25 4 115 4h12q72 0 111 -4zM790 143q18 51 29 94l-69 19q-8 -34 -32 -97zM536 157
q12 29 34 86q3 9 5 13l-67 20q-9 -53 -42 -103zM296 177h-109q-14 21 -64 99q19 4 95 4h18q21 -27 41 -66q11 -22 19 -37zM167 342v97h65v-97h-65zM296 342v97h67v-97h-67zM363 490h-67v100h67v-100zM232 490h-65v100h65v-100zM823 554h-238v85h238v-85zM823 699h-238v89
h238v-89zM466 701q-9 39 -10 75q-309 29 -393 54q-7 -53 -21 -93q216 -2 424 -36zM454 344q86 -21 147 -46v-183h-38q-91 2 -123 10v-85q47 6 108 6h33q56 -1 100 -4q-4 25 -4 93v191q1 68 8 87q12 3 38 8q37 8 35 10q0 4 -10 11q-26 19 -44 52h46q105 0 157 -6
q-8 63 -8 133v143q0 112 12 139h-96q7 -17 8 -55h-238v5q-1 30 6 46h-89q8 -27 8 -135v-168v-21q1 -66 -4 -90q45 6 125 7q3 -8 8 -23q10 -31 16 -46h-62q7 -30 8 -67l-36 18q-72 34 -87 53q-12 -48 -24 -83z" />
</svg>
