<?xml version="1.0" standalone="no"?>
<!DOCTYPE svg PUBLIC "-//W3C//DTD SVG 1.1//EN" "http://www.w3.org/Graphics/SVG/1.1/DTD/svg11.dtd" >
<svg xmlns="http://www.w3.org/2000/svg" xmlns:xlink="http://www.w3.org/1999/xlink" version="1.1" viewBox="-10 0 1010 1000">
   <path fill="currentColor"
d="M633 -13q95 -1 95 9q1 2 -4 9q-12 18 -12 37v26h70q100 0 151 -8v75q-46 -6 -143 -6h-78v68h145q53 0 115 -10q-30 75 -51 151q-55 -15 -78 -16q10 -6 30 -66h-317v117l89 -10v-41q0 -24 -4 -48q81 4 85 12q1 2 -4 7q-12 11 -12 25v36q142 -13 163 -22l8 69
q-75 1 -171 14v40q2 26 28 30q22 3 49 1q24 -2 30 -7q27 -26 26 -64q39 29 78 36q-15 59 -56 83q-17 9 -68 11q-56 2 -97 -5q-32 -6 -42 -19q-10 -9 -11 -42v-56l-93 12q11 304 -141 474q-33 -29 -90 -44q161 -126 159 -400q2 -86 -1 -164q-2 -74 -7 -108q35 4 109 4h56
v-127q0 -68 -6 -83zM196 -15q106 39 102 47q0 5 -9 9q-13 6 -21 15q-7 8 -18 24t-18 24h101q52 0 100 -6q-22 31 -67 111l-21 35q71 1 90 -4q-2 13 -3 36q-1 11 -1 26v42v214q0 65 4 87q-47 -6 -100 -6h-129q-51 1 -115 8q6 -44 6 -91v-194q0 -34 -4 -44q-15 21 -28 34
q-14 -33 -49 -68q132 -128 180 -299zM321 163h-121q-2 4 -7 13q-23 41 -44 64q8 4 34 4h89q28 -37 49 -81zM296 308v109h69v-109h-69zM163 306v111h69v-111h-69zM296 471v105h69v-105h-69zM163 471v105h69v-105h-69zM611 588q19 6 77 6h64q71 0 89 -4q-7 29 -8 85v111
q-3 34 20 36q30 3 42 -10q6 -7 8 -22q2 -11 2 -46q27 28 75 40q-13 63 -36 87q-14 17 -52 22q-42 5 -84 -4q-49 -10 -48 -69v-167h-79q3 173 -112 262q-41 -38 -79 -46q73 -35 101 -101q14 -32 19 -75q4 -42 1 -105zM405 693q-14 38 -14 77q-201 23 -314 62l-39 -90
q192 -14 367 -49z" />
</svg>
