<?xml version="1.0" standalone="no"?>
<!DOCTYPE svg PUBLIC "-//W3C//DTD SVG 1.1//EN" "http://www.w3.org/Graphics/SVG/1.1/DTD/svg11.dtd" >
<svg xmlns="http://www.w3.org/2000/svg" xmlns:xlink="http://www.w3.org/1999/xlink" version="1.1" viewBox="-10 0 1010 1000">
   <path fill="currentColor"
d="M562 -25q3 24 27 77h191q110 0 160 -8v77q-45 -7 -160 -8h-101v50h79q65 0 92 -1q32 -1 51 -3q-2 17 -2 85q1 60 6 84q-31 -4 -115 -4h-147v47q98 -1 190 -19q31 64 26 67q-3 3 -31 0q-17 -1 -28 -2h-12q-69 -2 -145 -4v16q-1 24 5 27q5 6 31 9q17 1 83 1q71 -1 81 -3
q46 -3 52 -88q36 25 75 36q-26 96 -59 97q-54 11 -244 8q-61 -1 -76 -15q-17 -11 -16 -60v-119h-220v40h52q80 -1 129 -6v59q-31 -6 -129 -6h-52v50q131 -11 183 -26q-8 36 -8 57q-132 7 -250 34q-4 -10 -13 -30q-9 -19 -13 -29q35 -12 34 -46v-97h-72q-3 224 -26 337
q-24 117 -91 240q-29 -26 -93 -39q85 -97 111 -227q25 -106 20 -368v-104q-1 -70 -8 -117q85 7 226 8h153q-12 -24 -36 -60zM216 113v52h163v-52h-163zM448 113v50h161v-50h-161zM448 217v47h161v-47h-161zM214 219v45h165v-45h-165zM679 217v49h144v-49h-144zM498 530
q10 19 25 41q11 15 9 17q-1 3 -20 1q-30 -2 -54 -1q-6 0 -17 1q-51 3 -114 5v37h50q90 -1 133 -6v58q-20 -6 -133 -6h-50v38h447v-38h-86q-57 0 -82 1q-30 2 -44 5v-56q22 5 99 4h26h87v-35h-93q-90 -1 -121 6v-60q35 6 121 8h57q82 0 111 -4q-4 51 -4 87v52q0 65 4 87
q-50 -6 -101 -6h-93v38q-1 32 10 39q10 11 49 13q42 2 81 1q35 -1 46 -5q36 -20 38 -96q38 41 83 54q-1 4 -4 13q-22 97 -93 96q-87 6 -169 0q-79 -6 -96 -23q-19 -11 -17 -68v-62h-87q12 130 -286 159q-6 -40 -37 -79q44 6 93 4q46 -3 80 -13q67 -22 79 -71h-30h-72
q-35 1 -71 2q4 -32 4 -107v-18q0 -32 -4 -95q146 6 246 -18z" />
</svg>
