<?xml version="1.0" standalone="no"?>
<!DOCTYPE svg PUBLIC "-//W3C//DTD SVG 1.1//EN" "http://www.w3.org/Graphics/SVG/1.1/DTD/svg11.dtd" >
<svg xmlns="http://www.w3.org/2000/svg" xmlns:xlink="http://www.w3.org/1999/xlink" version="1.1" viewBox="-10 0 1010 1000">
   <path fill="currentColor"
d="M810 -19q2 2 6 7q44 52 37 54q-1 1 -6 0q-27 0 -59 12q-150 58 -246 83q-16 -38 -36 -59q162 -22 304 -97zM508 6v58q-4 0 -14 -1q-72 -7 -123 -7h-177v32h175q80 0 105 -4v39q-14 -3 -87 -2h-20h-173v28h171q89 0 111 -4v40q-20 -3 -80 -2h-25h-177v24h205q90 0 109 -6
v55q-24 -7 -83 -8q20 17 60 53l9 9l-48 32h244q68 0 108 -4q-4 19 -4 71v20q1 46 4 79q-29 -4 -115 -4h-387q-79 0 -113 4q3 -34 4 -77v-16q0 -29 -4 -77q52 4 109 4h146q-11 -22 -23 -34q-15 1 -64 5q-245 17 -260 29q-5 -21 -18 -52q54 -13 88 -40q-104 1 -129 8v-55
q18 5 83 4h14v-86q0 -82 -4 -113q35 4 117 4h131q97 0 135 -6zM837 74q50 57 44 61q-1 2 -8 2q-26 -1 -61 14q-101 40 -252 82q-7 -14 -35 -51q-3 -5 -5 -7q153 -15 317 -101zM877 169q44 58 40 64q-4 3 -28 6q-32 4 -46 9q-164 57 -289 80q-6 -28 -36 -62q161 -5 359 -97z
M371 250h-131q-11 7 -32 21q-17 12 -25 17q36 -1 113 -6q62 -4 97 -6zM722 375h-462v34h462v-34zM722 471v-36h-462v36h462zM873 528q-6 24 -6 54v37q1 30 4 52q-47 -6 -151 -6h-474q-91 1 -137 6q3 -16 6 -61v-22q0 -28 -4 -60q21 2 54 3q16 1 36 1h53h472q103 0 147 -4z
M647 574v49h149v-49h-149zM187 574v49h160v-49h-160zM419 574v49h156v-49h-156zM151 687q55 7 133 8h317h23q94 1 156 -4q-85 77 -218 133q73 14 184 13q108 -2 179 -19q-29 40 -42 83q-264 11 -427 -45q-76 27 -363 59q-9 -35 -43 -79q32 3 73 4q42 0 90 -3q113 -7 176 -21
q-53 -24 -117 -79q-86 -1 -121 7v-57zM353 737q27 20 119 61q113 -35 153 -61h-272z" />
</svg>
