<?xml version="1.0" standalone="no"?>
<!DOCTYPE svg PUBLIC "-//W3C//DTD SVG 1.1//EN" "http://www.w3.org/Graphics/SVG/1.1/DTD/svg11.dtd" >
<svg xmlns="http://www.w3.org/2000/svg" xmlns:xlink="http://www.w3.org/1999/xlink" version="1.1" viewBox="-10 0 1010 1000">
   <path fill="currentColor"
d="M526 -25q15 32 26 65h260q28 0 91 -10q8 -1 12 -2v68q-49 -8 -100 -8h-176v57h149q12 0 41 -7q24 -5 38 -7q-7 32 -6 66q0 30 6 79q-23 -3 -59 -2h-14h-173v56q135 -11 226 -44q18 14 48 50q-166 24 -272 31q-10 43 50 40h91h19q67 11 72 -55q40 22 72 27q-19 51 -49 66
q-14 8 -36 10q-17 2 -66 2h-121q-98 5 -93 -76v-107h-237v42h115q27 0 70 -8v54q-29 -6 -70 -6h-115v47q81 -6 177 -24q-8 21 -8 48q-116 14 -244 40q-9 -21 -26 -46q41 -22 42 -58v-89h-93q2 431 -82 595q-27 -39 -67 -65q46 -69 63 -208q17 -128 16 -427q-1 -93 -8 -137
q47 7 80 8h297q-14 -30 -37 -57zM575 88h-164v57h164v-57zM171 88v57h176v-57h-176zM794 185h-155v46h155v-46zM173 185v46h174v-46h-174zM411 185v46h164v-46h-164zM206 465q34 9 111 8h423q63 0 84 -1q27 0 43 -3q-6 30 -8 53q-2 27 -2 68v218q0 80 6 103h-6
q-45 -4 -105 -4h-442q-65 0 -106 10q4 -25 5 -45q1 -15 1 -82v-216q0 -63 -4 -109zM272 512v355h524v-355h-524zM708 516q27 27 38 58q-3 2 -13 0q-13 -3 -21 -2q-44 6 -160 14v55h125q69 0 105 -6v60q-30 -9 -90 -6h-87q97 49 163 103l-46 54q-71 -68 -170 -123v65v11
q-1 35 4 59h-70q6 -19 6 -62v-87q-66 80 -167 139q-6 -27 -45 -58q76 -24 157 -101h-52q-73 0 -97 6v-60q25 3 91 6h113v-51q-11 1 -32 2q-88 6 -133 8q-11 -38 -25 -50q261 2 406 -34z" />
</svg>
