<?xml version="1.0" standalone="no"?>
<!DOCTYPE svg PUBLIC "-//W3C//DTD SVG 1.1//EN" "http://www.w3.org/Graphics/SVG/1.1/DTD/svg11.dtd" >
<svg xmlns="http://www.w3.org/2000/svg" xmlns:xlink="http://www.w3.org/1999/xlink" version="1.1" viewBox="-10 0 1010 1000">
   <path fill="currentColor"
d="M218 0q13 2 33 6q58 9 57 14q2 2 -7 13q-19 24 -29 47q-3 6 -7 17q-8 18 -13 28h63q100 1 147 -6q-6 35 -6 118v117q1 109 6 154q-32 -6 -147 -6h-23l-4 28q13 4 43 6q28 2 28 6q0 2 -3 6q-12 13 -13 44v79q44 -37 68 -141l15 6q49 17 46 22q0 2 -8 13q-11 14 -18 25
l-6 9q-26 39 -47 78q54 -12 105 -14l-36 -52l44 -17q8 13 35 55q18 28 24 38l-47 28l-6 -18q-79 13 -137 41q-17 -40 -32 -61v87q-2 38 11 47q10 10 61 11q117 4 234 4q119 -1 151 -6q38 -5 52 -24q13 -15 19 -69l-48 29q-33 -55 -101 -121l54 -31l115 111l-12 8
q36 28 73 43q-18 78 -59 99q-27 14 -175 21q-78 3 -171 3q-94 1 -162 -2q-73 -2 -91 -19q-18 -12 -16 -72v-240q-35 173 -189 337q-22 -24 -73 -51q163 -107 212 -346h-77q0 44 4 58h-86q10 -43 10 -143v-175q-2 -76 -6 -123q26 5 108 6q32 -72 37 -125zM562 10q84 1 87 12
q0 2 -3 7q-12 20 -11 61v31h137v-25q0 -46 -4 -80q52 0 66 1q19 2 21 7q1 3 -3 12q-13 27 -13 62v23q60 0 88 -6v70q-18 -5 -73 -4h-15v345q69 0 94 -6v74q-36 -7 -129 -8h-197q-92 0 -121 6v-74q41 8 81 8v-347q-13 1 -33 1q-34 0 -46 5v-72q34 6 79 8v-35q-1 -52 -5 -76z
M772 181h-137v79h137v-79zM385 187h-85v99h85v-99zM151 187v99h85v-99h-85zM772 316h-137v75h137v-75zM302 340q-1 -1 -4 57q-1 33 -2 44h89v-101h-83zM151 340v101h83q0 -9 1 -33q1 -42 1 -68h-85zM772 447h-137v79h137v-79zM625 606q72 31 71 37q-2 4 -15 15
q-19 16 -26 27q-40 66 -84 119q-30 -25 -71 -40q79 -59 125 -158z" />
</svg>
