<?xml version="1.0" standalone="no"?>
<!DOCTYPE svg PUBLIC "-//W3C//DTD SVG 1.1//EN" "http://www.w3.org/Graphics/SVG/1.1/DTD/svg11.dtd" >
<svg xmlns="http://www.w3.org/2000/svg" xmlns:xlink="http://www.w3.org/1999/xlink" version="1.1" viewBox="-10 0 1010 1000">
   <path fill="currentColor"
d="M790 -19q62 39 63 55q0 2 -18 6q-32 8 -49 16q-6 3 -35 16q-162 72 -193 81q-2 -3 -7 -11q-15 -25 -39 -48q137 -23 278 -115zM520 2v56q-29 -4 -137 -4h-179v34h169q92 0 119 -4v45q-24 -5 -98 -4h-23h-167v32h165q92 0 123 -4v48q-30 -7 -125 -6h-163v30h203
q99 -1 135 -6v57q-23 -6 -96 -6q40 43 62 72l-56 16q7 1 18 0q9 -1 10 2q1 2 -1 6q-7 10 -7 27h76q47 0 93 -4v36q117 -59 176 -109q60 50 62 61q-1 1 -10 1q-23 -3 -38 5q-113 57 -198 92h216q56 0 89 -6v55q-33 -4 -89 -4h-289q-33 14 -141 46q12 -1 35 -4
q228 -23 258 -30q6 15 14 31q6 12 4 13q-57 4 -222 12q-102 5 -157 8v17q103 6 369 -1q57 2 58 -70q14 12 46 27q13 6 19 9q-30 64 -71 67q-33 3 -117 3q-40 1 -108 1h-206q-72 3 -65 -36q-129 44 -213 64q-11 -26 -43 -60q80 -3 256 -51q0 -5 -1 -16q-1 -3 -1 -4q4 1 17 3
q22 4 30 5q65 -16 117 -34h-297q-42 -1 -81 8v-57q16 3 34 3q14 1 55 1h258v-40h-131q-30 0 -82 4v-50q19 5 74 4h139q0 -21 -4 -39l41 4l-11 -18q-178 9 -326 37q-7 -29 -22 -59q58 -7 103 -48q-61 0 -89 1q-32 2 -47 5v-61q18 7 83 10v-108q-1 -72 -6 -115q37 6 121 6h133
q99 -1 137 -6zM837 74q60 49 54 55q-3 3 -15 7q-30 9 -61 25q-74 41 -224 99q-10 -16 -32 -41q-10 -10 -15 -16q163 -36 293 -129zM871 175q64 50 58 63q-3 2 -11 3q-27 2 -57 17q-187 90 -276 115q-21 -40 -51 -61q184 -27 337 -137zM268 270q-46 30 -87 54q74 -8 234 -20
q-1 -2 -5 -6q-13 -18 -21 -28h-121zM472 435v40h66q16 -7 55 -25q17 -8 24 -11q-32 -5 -73 -4h-72zM200 677q61 4 117 4h377q89 0 121 -4q-5 38 -5 101v12q1 84 7 123h-89q6 -18 6 -48h-454q0 20 4 50h-88q7 -39 8 -133v-14q0 -64 -4 -91zM280 717v41h454v-41h-454zM280 790
v40h454v-40h-454z" />
</svg>
