<?xml version="1.0" standalone="no"?>
<!DOCTYPE svg PUBLIC "-//W3C//DTD SVG 1.1//EN" "http://www.w3.org/Graphics/SVG/1.1/DTD/svg11.dtd" >
<svg xmlns="http://www.w3.org/2000/svg" xmlns:xlink="http://www.w3.org/1999/xlink" version="1.1" viewBox="-10 0 1010 1000">
   <path fill="currentColor"
d="M306 -19q18 1 53 3q56 2 54 6q1 1 -5 8q-25 31 -25 60v22h228v-14q-2 -56 -10 -81q11 1 35 1q73 3 72 6q1 2 -4 7q-21 27 -21 69v12h83q150 0 180 -6v85q-63 -11 -178 -12h-83q0 78 5 88h-83q5 -20 6 -88h-232q0 68 8 90h-87q9 -18 8 -90h-110q-116 0 -148 8v-83
q42 6 144 8h116v-28q0 -42 -6 -71zM538 195q2 16 6 51q2 26 4 40h242q82 0 107 -8q-7 28 -8 76v9q0 49 8 84h-97q12 -49 12 -93h-643q3 63 10 93h-96q9 -31 8 -85v-16q-1 -45 -8 -68q36 7 117 8h276q-11 -47 -30 -79zM347 367q7 5 22 14q63 40 56 40q-3 2 -16 6
q-32 9 -52 22q-7 5 -22 15q-53 36 -107 68q-22 -26 -67 -53q115 -42 186 -112zM597 365q49 27 125 67q50 27 68 37l-68 53q-61 -57 -184 -111zM433 471q105 3 105 10q1 1 -5 11q-16 24 -19 42q-1 12 -3 29q-3 22 -3 29h127q-6 -21 -58 -66l66 -28q43 32 73 68l-51 26h77
q124 0 183 -8v81q-39 -7 -177 -8h-171q76 155 371 167q-49 49 -63 91q-309 -56 -375 -258h-14q-86 168 -395 254q-10 -32 -71 -89q253 -11 381 -165h-185q-118 1 -164 8v-81q27 8 170 8h199q6 -48 2 -121z" />
</svg>
