<?xml version="1.0" standalone="no"?>
<!DOCTYPE svg PUBLIC "-//W3C//DTD SVG 1.1//EN" "http://www.w3.org/Graphics/SVG/1.1/DTD/svg11.dtd" >
<svg xmlns="http://www.w3.org/2000/svg" xmlns:xlink="http://www.w3.org/1999/xlink" version="1.1" viewBox="-10 0 1010 1000">
   <path fill="currentColor"
d="M544 209q10 0 30 1q76 2 73 7q-18 12 -18 29v26h81q84 -2 143 -8q-8 43 -8 92v39q0 75 4 109q-62 -8 -141 -8h-81v98h143q76 -1 115 -6q-6 41 -11 118q-5 103 -17 110q-25 37 -161 44q-3 -61 -31 -96q83 14 105 0q21 -12 24 -101h-167v89q0 104 8 159h-93q8 -44 8 -159
v-89h-121q-21 162 -318 254q-20 -54 -77 -93q257 -12 313 -161h-87q-79 0 -119 4q9 -34 12 -102q3 -76 -2 -146q42 6 111 6h93v-87h-123q-97 0 -143 8v-80q43 8 143 8h125v-34q0 -22 -8 -35h29q73 -1 72 4q1 2 -4 8q-11 12 -11 25v30h113v-28q0 -8 -3 -29q-1 -4 -1 -6z
M325 -19q45 -3 92 4q-10 14 -10 43v46h192v-44q0 -36 -6 -53q82 4 94 13q0 2 -4 9q-8 15 -8 27v46h107q139 0 164 -8v87q-28 -8 -164 -8h-107q0 44 4 56h-86q6 -16 6 -54h-192q-1 34 4 52h-84q4 -14 4 -52h-121q-109 2 -152 8v-87q21 8 152 8h121v-44q0 -34 -6 -49zM627 336
v91h139v-91h-139zM230 494q0 46 -6 100h131v-100h-125zM431 494v100h119v-100h-119zM433 336v89h117v-89h-117z" />
</svg>
