<?xml version="1.0" standalone="no"?>
<!DOCTYPE svg PUBLIC "-//W3C//DTD SVG 1.1//EN" "http://www.w3.org/Graphics/SVG/1.1/DTD/svg11.dtd" >
<svg xmlns="http://www.w3.org/2000/svg" xmlns:xlink="http://www.w3.org/1999/xlink" version="1.1" viewBox="-10 0 1010 1000">
   <path fill="currentColor"
d="M575 -13q17 1 46 2q59 0 56 7q1 3 -7 13q-20 23 -21 43v42h89q93 0 133 -2q46 -1 64 -6v83q-35 -7 -197 -8h-89q1 54 4 77h-78q4 -23 4 -77h-194q0 46 4 76h-79q3 -24 3 -74h-95q-151 1 -174 6v-81q23 8 176 8h95v-50q-1 -33 -5 -56q9 0 25 1q81 1 78 9q1 3 -8 12
q-19 19 -20 36v46h194v-54q0 -23 -4 -53zM421 246q3 5 10 15q47 72 41 73q-2 2 -15 -1q-27 -6 -46 -5q-4 0 -11 1q-65 5 -77 9v117q70 0 125 -6v75q-47 -9 -125 -10v68l50 -32q56 55 115 123l-73 54q-35 -70 -92 -123v154q0 97 8 147h-83q6 -57 6 -147v-190
q-49 106 -157 248q-33 -37 -81 -50q139 -108 198 -252h-41q-93 2 -125 10v-77q44 7 127 8h79v-107q-11 1 -40 3q-65 4 -111 7q-9 -41 -36 -80q74 10 171 2q102 -10 183 -34zM629 250q116 3 113 10q1 2 -7 12q-19 23 -19 38q-1 46 -2 66q0 24 1 44q1 42 7 76q46 238 256 328
q-56 39 -83 83q-176 -135 -207 -327q-25 198 -240 331q-33 -41 -99 -63q262 -87 286 -344q4 -55 2 -140q-2 -76 -8 -114zM817 340q89 10 94 20q1 2 -5 7q-14 14 -19 32q-12 42 -31 96q-15 44 -25 75q-35 -14 -81 -14q49 -94 67 -216zM544 373q27 83 45 179l-81 10
q-4 -102 -44 -179z" />
</svg>
