<?xml version="1.0" standalone="no"?>
<!DOCTYPE svg PUBLIC "-//W3C//DTD SVG 1.1//EN" "http://www.w3.org/Graphics/SVG/1.1/DTD/svg11.dtd" >
<svg xmlns="http://www.w3.org/2000/svg" xmlns:xlink="http://www.w3.org/1999/xlink" version="1.1" viewBox="-10 0 1010 1000">
   <path fill="currentColor"
d="M87 84q43 8 139 8q91 0 127 -6q-8 40 -8 188v250q0 138 10 181h-93q8 -36 8 -92h-101q0 117 8 137h-96q12 -41 12 -212v-236q0 -135 -6 -218zM169 159v387h101v-387h-101zM865 30q-7 33 -8 87v100q0 57 8 93q-38 -7 -101 -8h-87q-1 67 -4 99h137q61 0 103 -8q-7 36 -8 97
v268q4 70 -26 93q-18 20 -131 40q0 -58 -42 -105q43 6 59 6q19 1 30 -3q23 -7 24 -41v-277h-152q-1 1 -4 10q-1 5 -2 7q21 20 77 75q55 54 74 72l-74 58q-47 -87 -99 -135q-38 70 -99 155q-26 -33 -72 -54q90 -59 123 -190h-129v277q1 86 8 133h-99q7 -56 8 -135v-250
q1 -65 -6 -105q41 8 105 10h123q0 -6 1 -32q1 -47 1 -65h-93q-53 0 -99 8q8 -42 8 -93v-94q-1 -61 -8 -93q42 7 107 8h242q67 -1 105 -8zM502 108v125h272v-125h-272z" />
</svg>
