<?xml version="1.0" standalone="no"?>
<!DOCTYPE svg PUBLIC "-//W3C//DTD SVG 1.1//EN" "http://www.w3.org/Graphics/SVG/1.1/DTD/svg11.dtd" >
<svg xmlns="http://www.w3.org/2000/svg" xmlns:xlink="http://www.w3.org/1999/xlink" version="1.1" viewBox="-10 0 1010 1000">
   <path fill="currentColor"
d="M720 -6q90 6 105 14q1 1 -3 7q-16 22 -20 49q-5 33 -7 111q-1 25 -1 38h16q72 -1 127 -8q-8 76 -17 339q-4 122 -7 179q-2 83 -27 105q-19 23 -116 37q-1 -63 -42 -97q77 11 92 -2q19 -8 21 -67q2 -38 7 -127q11 -194 15 -290h-71q-3 263 -44 385q-36 122 -155 238
q-37 -33 -81 -45q52 -31 73 -50h-81q-122 0 -191 8q8 -70 8 -153v-97q-37 -1 -61 8v-80q40 8 97 8v-325q-28 0 -67 8v-81q25 8 67 7v-35q0 -54 -6 -84q79 1 87 14q1 2 -3 6q-16 20 -16 62v39h133v-41q0 -29 -4 -66q-2 -9 -2 -14q88 0 87 14q0 1 -3 5q-19 22 -19 65v35
q48 -1 68 -7v81q-19 -8 -66 -8v325q39 0 68 -8v80q-46 -8 -116 -8h-176v172h123q65 0 105 -7v39q104 -99 107 -490q-30 0 -69 8v-85q29 8 71 8v-94q0 -71 -6 -125zM147 8q95 4 97 12q0 4 -5 9q-17 18 -17 61v135q46 0 93 -8v83q-47 -8 -93 -8v353q7 -3 20 -8q34 -12 46 -18
q-8 34 0 72q-144 42 -225 87q-13 -61 -27 -87q50 -9 117 -28v-371q-50 0 -105 8v-83q37 9 105 8v-80q0 -53 -5 -116q-1 -14 -1 -21zM419 179v73h133v-73h-133zM419 304v71h133v-71h-133zM419 427v77h133v-77h-133zM595 586q14 25 42 78q10 21 16 31l-60 22q-19 -61 -49 -107
zM462 590q59 17 66 27q-1 1 -5 4q-17 11 -25 26q-2 4 -8 13q-16 28 -30 57l-61 -20q47 -47 63 -107z" />
</svg>
