<?xml version="1.0" standalone="no"?>
<!DOCTYPE svg PUBLIC "-//W3C//DTD SVG 1.1//EN" "http://www.w3.org/Graphics/SVG/1.1/DTD/svg11.dtd" >
<svg xmlns="http://www.w3.org/2000/svg" xmlns:xlink="http://www.w3.org/1999/xlink" version="1.1" viewBox="-10 0 1010 1000">
   <path fill="currentColor"
d="M456 -15q12 0 34 1q73 2 70 6q1 3 -4 10q-15 24 -14 52v38h208q150 -1 187 -8v85q-41 -8 -179 -8h-216v77h131q142 0 178 -7v85q-31 -8 -172 -8h-367q-118 1 -149 8v-85q25 7 156 7h143v-75h-220q-117 1 -167 8v-85q19 8 165 8h222v-40q1 -47 -6 -69zM921 354
q-7 30 -8 77v10q0 72 8 91h-98q8 -27 8 -103h-662q0 70 8 95h-98q8 -34 8 -99v-8q-1 -37 -8 -63q26 7 98 8h631q88 -1 113 -8zM792 481v83q-26 -8 -151 -8h-16v250h109q159 -1 193 -8q-6 43 0 85q-58 -6 -191 -8h-508q-128 2 -155 8q6 -43 0 -85q23 8 159 8h145v-250h-24
q-114 1 -147 8v-83q24 7 145 7h288q137 0 153 -7zM456 556v250h90v-250h-90zM746 588q85 24 91 37q-1 3 -9 8q-18 11 -26 26q-35 62 -62 117q-24 -16 -77 -32q65 -100 83 -156zM268 594q13 25 42 89q18 41 27 61l-93 24q-27 -102 -61 -153z" />
</svg>
