<?xml version="1.0" standalone="no"?>
<!DOCTYPE svg PUBLIC "-//W3C//DTD SVG 1.1//EN" "http://www.w3.org/Graphics/SVG/1.1/DTD/svg11.dtd" >
<svg xmlns="http://www.w3.org/2000/svg" xmlns:xlink="http://www.w3.org/1999/xlink" version="1.1" viewBox="-10 0 1010 1000">
   <path fill="currentColor"
d="M538 -17q111 7 119 15q2 6 -9 16q-22 21 -21 52v137h97q143 -1 191 -10v89q-42 -9 -185 -8h-101q10 412 188 516q28 -22 40 -155q54 64 89 82q-49 164 -83 186q-48 36 -131 -45q-177 -177 -186 -584h-292q-164 0 -194 10v-91q47 9 196 10h286q-1 -46 -2 -119
q-1 -51 -2 -101zM107 417q48 6 149 6h67q111 0 153 -6v85q-35 -6 -155 -6h-65q-101 -1 -149 8v-87zM508 606q-15 40 -10 97q-226 47 -399 117q-9 -51 -39 -101q3 -1 15 -2q180 -16 433 -111zM804 -6q50 72 81 137l-81 42q-21 -63 -76 -141z" />
</svg>
