<?xml version="1.0" standalone="no"?>
<!DOCTYPE svg PUBLIC "-//W3C//DTD SVG 1.1//EN" "http://www.w3.org/Graphics/SVG/1.1/DTD/svg11.dtd" >
<svg xmlns="http://www.w3.org/2000/svg" xmlns:xlink="http://www.w3.org/1999/xlink" version="1.1" viewBox="-10 0 1010 1000">
   <path fill="currentColor"
d="M532 -15q105 22 105 29q0 1 -7 7q-20 17 -27 31t-19 36q-7 13 -9 18h137q94 -1 167 -6q-66 161 -161 269q119 64 244 74q-39 46 -55 93q-159 -45 -246 -117q-91 66 -187 107q30 6 70 6h220q38 0 89 -6q-6 41 -6 87v187q2 68 10 113h-93q8 -48 8 -81h-246q0 27 8 75h-92
q7 -44 8 -121v-176q-1 -44 -6 -70q-41 20 -73 32q-20 -52 -69 -87q170 -17 301 -114q-45 -53 -87 -136q-22 47 -68 119q-39 -28 -85 -28q120 -129 169 -341zM161 -10q7 2 21 5q105 22 100 33q0 1 -7 5q-22 11 -31 27q-8 13 -20 39q-15 30 -26 48h114q30 0 93 -6
q-6 16 -15 39q-23 53 -59 174q-37 -19 -87 -18q37 -70 52 -121h-121q-2 0 -27 51q-54 109 -75 139q-17 -43 -55 -73q119 -167 143 -342zM758 171h-200q26 65 99 155q55 -57 101 -155zM145 342q5 1 14 2q96 10 89 18q0 2 -4 10q-16 35 -16 71v282q60 -60 105 -117
q15 56 36 81q-115 100 -175 171q-21 -37 -57 -66q16 -21 16 -85v-278q-1 -50 -8 -89zM526 600l-2 164h248v-164h-246z" />
</svg>
