<?xml version="1.0" standalone="no"?>
<!DOCTYPE svg PUBLIC "-//W3C//DTD SVG 1.1//EN" "http://www.w3.org/Graphics/SVG/1.1/DTD/svg11.dtd" >
<svg xmlns="http://www.w3.org/2000/svg" xmlns:xlink="http://www.w3.org/1999/xlink" version="1.1" viewBox="-10 0 1010 1000">
   <path fill="currentColor"
d="M526 -13q71 2 85 9q0 2 -4 6q-14 14 -14 36v34h105q1 -74 -4 -85q79 -3 84 7q1 3 -2 7q-10 14 -10 45v26h67q79 0 111 -8v77q-53 -8 -111 -10h-65q-3 30 6 58h-84q8 -25 8 -58h-103q-3 33 6 58h-79q8 -28 8 -58q-95 -1 -149 8v-75q57 8 147 8q0 -26 -1 -63q-1 -16 -1 -22
zM169 -12q76 1 87 10q1 2 -3 6q-15 17 -15 48v105h36q63 0 93 -6q-6 36 -6 171v339q0 49 -91 58q0 -47 -22 -84q52 20 50 -23v-393h-60v531q-1 133 10 147q-45 -6 -85 0q10 -53 10 -147v-531h-54v381q0 85 6 127h-79q8 -79 8 -127v-332q0 -77 -6 -119q26 8 93 8h32v-81
q0 -49 -4 -88zM389 193q45 12 125 12h301q88 0 118 -6q-2 10 -3 28q-1 14 -1 57q0 27 8 64h-90q8 -40 8 -84h-389q-3 60 8 90h-89q8 -39 8 -74q0 -64 -4 -87zM504 302q50 8 119 8h85q78 0 107 -6v69q-12 -2 -34 -3q-18 -1 -65 -1h-93q-83 0 -119 6v-73zM421 405q6 0 20 2
q65 8 136 8h187q87 0 131 -10v78q-12 -9 -60 -8q58 59 52 67q-1 1 -6 2q-18 4 -34 18q-26 20 -43 38q35 126 148 184q-30 21 -69 68q-107 -117 -125 -219l-28 20q14 72 10 115q-4 45 -28 82q-33 44 -137 61q-10 -57 -43 -85q58 10 93 -6q44 -29 40 -127q-96 90 -250 176
q-23 -33 -66 -59q153 -37 306 -177q-5 -18 -15 -37q-1 -1 -1 -2q-113 101 -206 154q-27 -32 -62 -57q139 -44 244 -141q-9 -15 -18 -20q-90 63 -176 99q-4 -16 -48 -59q105 -16 216 -95h-45q-90 0 -123 8v-78zM677 475q-14 4 -34 23q39 39 67 98q86 -67 109 -121h-142z" />
</svg>
