<?xml version="1.0" standalone="no"?>
<!DOCTYPE svg PUBLIC "-//W3C//DTD SVG 1.1//EN" "http://www.w3.org/Graphics/SVG/1.1/DTD/svg11.dtd" >
<svg xmlns="http://www.w3.org/2000/svg" xmlns:xlink="http://www.w3.org/1999/xlink" version="1.1" viewBox="-10 0 1010 1000">
   <path fill="currentColor"
d="M560 -10q69 0 90 2q27 2 27 8q0 3 -5 9q-16 20 -17 51q0 3 -6 109h79q56 0 131 -8q-12 88 -14 294h22q22 0 65 -7q3 -1 5 -1v87q-4 0 -12 -1q-35 -5 -62 -5h-202q71 219 270 276q-50 40 -74 89q-198 -119 -246 -315q-46 222 -294 327q-21 -42 -71 -81q258 -50 304 -296
h-84q-63 0 -105 6v-85q45 6 109 6h93q5 -76 6 -213h-65q-56 -1 -89 8v-87q31 6 85 6h69q-1 -134 -9 -179zM649 242q0 9 -1 28q-3 119 -7 185h131v-213h-123zM48 90q3 0 9 1q35 3 86 3h165q51 0 91 -4h4v75h-5q-42 -4 -69 -4h-65v187h44q25 0 73 -4v75q-21 -5 -87 -6h-30v212
q91 -20 133 -33q-12 45 -10 81q-214 31 -335 91q-2 -21 -10 -59q-6 -29 -8 -42q39 0 153 -24v-226h-46q-60 0 -89 6v-77q26 6 87 6h48v-187h-52q-55 0 -87 6v-77z" />
</svg>
