<?xml version="1.0" standalone="no"?>
<!DOCTYPE svg PUBLIC "-//W3C//DTD SVG 1.1//EN" "http://www.w3.org/Graphics/SVG/1.1/DTD/svg11.dtd" >
<svg xmlns="http://www.w3.org/2000/svg" xmlns:xlink="http://www.w3.org/1999/xlink" version="1.1" viewBox="-10 0 1010 1000">
   <path fill="currentColor"
d="M200 28q53 8 157 8h331q79 0 149 -4q5 0 6 2q1 1 -2 4q-119 92 -244 159q28 54 58 103q118 -63 202 -137q11 12 29 33q48 52 41 52q-2 2 -13 3q-30 3 -53 17q-19 11 -95 49q-46 24 -72 37q109 107 264 127q-31 27 -54 64q-11 17 -19 29q-261 -113 -337 -347v228
q3 60 -24 74q-25 18 -133 29q2 -56 -28 -103q114 29 105 -22v-256q79 -26 151 -73h-256q-69 0 -163 8v-84zM450 205q-99 240 -329 367q-24 -35 -77 -70q168 -50 293 -222h-91q-60 2 -137 10v-85q52 8 139 8h73q96 0 129 -8zM165 578q81 8 162 8h350q117 0 150 -8v85
q-4 0 -14 -1q-74 -7 -132 -7h-358q-71 0 -158 8v-85zM190 677q87 24 92 34q-1 2 -5 7q-17 16 -37 46q-9 13 -27 43q-36 61 -60 92l-91 -39q84 -74 128 -183zM617 687q45 78 75 171l-91 21q-17 -86 -69 -172zM825 685q66 86 110 184l-92 34q-36 -106 -107 -194zM413 695
q31 76 57 170l-93 20q-3 -84 -46 -180z" />
</svg>
