<?xml version="1.0" standalone="no"?>
<!DOCTYPE svg PUBLIC "-//W3C//DTD SVG 1.1//EN" "http://www.w3.org/Graphics/SVG/1.1/DTD/svg11.dtd" >
<svg xmlns="http://www.w3.org/2000/svg" xmlns:xlink="http://www.w3.org/1999/xlink" version="1.1" viewBox="-10 0 1010 1000">
   <path fill="currentColor"
d="M613 -15q77 0 93 11q2 2 -5 13q-11 20 -11 31v133h127q94 -1 125 -6v75q-23 -5 -123 -5h-127q26 140 70 222q28 -32 84 -129q7 -12 11 -18q82 60 76 69q-1 3 -10 6q-24 9 -40 26q-54 57 -95 109q67 154 182 224q-49 21 -83 62q-165 -164 -197 -427v449q1 73 -134 75
q-8 -58 -30 -93q100 22 93 -48v-210q-137 173 -171 232l-2 2q-11 -10 -29 -27q-23 -21 -30 -26q-172 108 -201 161q-1 2 -1 3q-1 -2 -4 -12q-18 -65 -38 -85q1 -1 10 -6q41 -24 41 -50v-178q-80 0 -136 6v-80q55 8 136 8v-119q-40 0 -73 8v-59q-17 25 -46 59
q-19 -44 -51 -73q124 -118 188 -322q105 27 107 42q1 3 -6 7q-18 11 -33 33q-2 4 -8 13q-32 54 -40 64h70q82 0 121 -6v74q-19 -2 -46 -3q-13 -1 -31 -1h-46h-104q-13 24 -50 76q-11 16 -13 19q23 6 99 6h30q92 -1 143 -10v83q-45 -10 -139 -10v119q113 -4 149 -10v82
q-65 -8 -149 -8v167q81 -47 141 -96q0 27 8 58q1 -1 6 -5q72 -58 198 -227v-226h-75h-19q-70 -1 -96 5v-75q23 6 113 6h77v-121q0 -37 -6 -62q-1 -5 0 -5zM815 -4q54 81 68 114l-77 37q-29 -75 -64 -111zM496 326q46 58 83 129l-71 43q-29 -77 -77 -135z" />
</svg>
