<?xml version="1.0" standalone="no"?>
<!DOCTYPE svg PUBLIC "-//W3C//DTD SVG 1.1//EN" "http://www.w3.org/Graphics/SVG/1.1/DTD/svg11.dtd" >
<svg xmlns="http://www.w3.org/2000/svg" xmlns:xlink="http://www.w3.org/1999/xlink" version="1.1" viewBox="-10 0 1010 1000">
   <path fill="currentColor"
d="M246 28q10 4 29 12q76 30 68 36q-1 4 -10 9q-22 13 -39 38q-30 44 -76 108q-39 54 -65 91q25 0 74 -2q46 -2 67 -2q7 -12 21 -34q42 -65 52 -95q102 56 91 61q-2 3 -9 6q-24 11 -56 52q-13 16 -42 54q-81 107 -159 194q41 -5 133 -19q43 -6 62 -9q-18 31 -20 80
q-193 7 -276 35q-1 -5 -5 -24q-12 -51 -17 -69q62 11 181 -173q-117 9 -187 26q-5 -49 -21 -91q76 4 204 -284zM835 64q70 84 66 89q-2 2 -28 3q-77 2 -167 13v242h102q88 0 127 -6v83q-57 -6 -123 -5h-106v301h74q87 0 129 -6v85q-39 -5 -125 -5h-228q-84 0 -139 5v-85
q50 6 135 6h75v-301h-99q-72 -3 -133 5v-83q37 7 115 6h14h103v-232q-63 6 -194 18q-10 -48 -36 -85q93 11 226 -3q131 -15 212 -45zM421 685q-11 41 -12 87q-158 14 -334 76q0 -28 -11 -92q-1 -8 -2 -12q92 -8 359 -59z" />
</svg>
