<?xml version="1.0" standalone="no"?>
<!DOCTYPE svg PUBLIC "-//W3C//DTD SVG 1.1//EN" "http://www.w3.org/Graphics/SVG/1.1/DTD/svg11.dtd" >
<svg xmlns="http://www.w3.org/2000/svg" xmlns:xlink="http://www.w3.org/1999/xlink" version="1.1" viewBox="-10 0 1010 1000">
   <path fill="currentColor"
d="M216 -6q79 -2 109 6q0 1 -2 5q-14 30 -17 101q-1 11 -3 70q-3 72 -5 110q39 -49 85 -141q36 35 61 56q-7 7 -54 68q-60 78 -90 114l-10 123q118 149 158 219q-57 25 -85 45q-17 -55 -80 -153q-10 -15 -15 -23q-31 175 -147 309q-42 -34 -87 -53q194 -173 188 -492
q6 -222 -6 -364zM927 58q-4 40 -4 87v572q-3 131 8 156h-96q5 -26 8 -93h-305q-3 76 2 105h-90q9 -41 8 -95v-637q0 -42 -1 -60q-1 -21 -3 -35q35 0 98 4h260zM843 133h-121v240h121v-240zM93 171q4 0 12 1q82 5 82 9q0 3 -2 10q-7 17 -8 38q-5 139 -16 252q-32 -7 -92 -8
q34 -86 24 -302zM724 443v268h119v-268h-119zM538 443v268h111v-268h-111zM538 133v240h109v-240h-109z" />
</svg>
