<?xml version="1.0" standalone="no"?>
<!DOCTYPE svg PUBLIC "-//W3C//DTD SVG 1.1//EN" "http://www.w3.org/Graphics/SVG/1.1/DTD/svg11.dtd" >
<svg xmlns="http://www.w3.org/2000/svg" xmlns:xlink="http://www.w3.org/1999/xlink" version="1.1" viewBox="-10 0 1010 1000">
   <path fill="currentColor"
d="M185 4q4 0 13 1q95 7 90 15q0 1 -4 5q-22 24 -22 69v113h36q11 -1 31 -3q49 -4 56 -5v83q-10 -2 -29 -3q-16 -1 -62 -1h-32v91l53 -29q48 70 90 145l-68 37q-44 -98 -75 -137v353q0 111 6 153h-87q1 -9 3 -35q8 -73 8 -116v-271q-35 102 -101 212q-27 -44 -65 -71
q120 -140 157 -332h-48q-15 1 -40 4q-23 1 -43 4v-87q20 5 77 8h63v-105q-2 -61 -7 -98zM423 48q47 6 135 8h174q23 -1 61 -3q65 -4 78 -5q-8 56 -8 123v145q0 91 6 127q-36 -6 -127 -6h-196q-103 3 -123 8q7 -41 8 -137v-157q-2 -88 -8 -103zM788 123h-282v92h282v-92z
M788 278h-282v91h282v-91zM385 500q13 2 93 6q28 1 44 2h252q92 0 125 -6q-6 42 -6 119v183q6 -1 18 -1q26 0 49 -5v81q-62 -8 -182 -8h-278q4 1 -50 2q-116 2 -138 6v-79q5 0 22 2q40 3 59 2v-185q0 -70 -8 -119zM460 574v230h74v-230h-74zM599 574v230h76v-230h-76z
M740 574v230h79v-230h-79z" />
</svg>
