<?xml version="1.0" standalone="no"?>
<!DOCTYPE svg PUBLIC "-//W3C//DTD SVG 1.1//EN" "http://www.w3.org/Graphics/SVG/1.1/DTD/svg11.dtd" >
<svg xmlns="http://www.w3.org/2000/svg" xmlns:xlink="http://www.w3.org/1999/xlink" version="1.1" viewBox="-10 0 1010 1000">
   <path fill="currentColor"
d="M567 -27q96 9 98 19q-18 15 -18 52h145q65 -1 95 -10v74q-21 -8 -91 -8h-149v49h174q72 0 117 -14q-15 20 -9 92q0 45 6 87h-82q2 -12 3 -35q1 -11 1 -27v-43h-448q-3 77 6 107h-82q0 -1 1 -6q7 -27 7 -77q0 -52 -3 -83q-1 -6 -1 -9q49 8 119 8h117v-95q0 -53 -6 -81z
M433 250q18 4 99 4h208q78 0 89 -6v72q-64 -6 -73 -6h-87q93 200 305 220q-39 42 -55 89q-38 -15 -100 -47v194q0 111 8 141h-81q-2 0 1 -11q5 -24 5 -42h-252q-1 39 4 51h-81q10 -44 10 -161v-188q-35 26 -96 61q-10 -25 -38 -56q-10 -11 -15 -17q182 -50 299 -234h-79
q1 1 2 3q23 32 24 39q1 4 -8 8q-21 9 -40 25q-26 23 -65 55l-18 15q-13 -31 -46 -60q74 -26 113 -85q-17 0 -33 6v-70zM625 360q-65 97 -111 136h206q-57 -58 -95 -136zM502 548v54h250v-54h-250zM752 647h-252v54h252v-54zM500 746v60h252v-60h-252zM147 106h95
q57 -1 91 -4v75q-48 -4 -109 -4v234q69 0 103 -6v82q-22 -6 -103 -6v214q4 -5 123 -52q-6 45 0 78q-202 70 -279 119q-5 4 -6 4q-14 -59 -32 -96q3 -1 10 -2q35 -5 113 -29v-236q-94 0 -109 6v-82q29 6 109 6v-234q-63 0 -107 4v-75q18 4 101 4zM891 413l-52 60
q-49 -63 -121 -110l32 -41q3 2 9 5q109 67 132 86z" />
</svg>
