<?xml version="1.0" standalone="no"?>
<!DOCTYPE svg PUBLIC "-//W3C//DTD SVG 1.1//EN" "http://www.w3.org/Graphics/SVG/1.1/DTD/svg11.dtd" >
<svg xmlns="http://www.w3.org/2000/svg" xmlns:xlink="http://www.w3.org/1999/xlink" version="1.1" viewBox="-10 0 1010 1000">
   <path fill="currentColor"
d="M119 28q58 8 137 8h91q84 0 159 -8q-9 69 -12 141q-5 130 -5 213q0 88 3 154q85 -66 121 -210l-73 12q-1 -15 -2 -40q-2 -34 -2 -40q44 -2 236 -156h-89q-49 0 -137 11v-81q52 8 139 8h75q47 0 114 -6q16 -2 23 -2v78q-58 12 -217 137l-27 21q199 0 272 -14q-1 13 -3 38
q-12 126 -11 149q-5 212 -32 218q-25 23 -127 36q-7 -55 -38 -89q66 11 87 3q24 -8 28 -43q4 -39 13 -172q3 -53 5 -78l-57 4q-16 219 -163 371q-37 -28 -85 -34q161 -99 184 -337l-49 4q-40 164 -125 260q-15 -19 -58 -28q23 220 294 222q71 -3 95 -109q31 36 81 54
q-27 79 -56 103q-27 26 -91 28q-234 5 -329 -117q-50 -66 -61 -171q-14 -107 -4 -359v-107h-225v127l52 -20l67 156q27 -137 24 -194q67 24 76 34l-1 1q-7 8 -17 52q-27 122 -48 191q46 119 82 222l-70 24q-14 -82 -44 -163q-50 131 -91 189q-21 -36 -41 -54q3 -11 31 -65
q50 -98 68 -147q-28 -85 -88 -193q9 300 -23 401q-35 105 -90 202q-26 -36 -65 -63q63 -81 87 -199q12 -57 16 -130q4 -62 4 -189v-123q0 -60 -8 -131z" />
</svg>
