<?xml version="1.0" standalone="no"?>
<!DOCTYPE svg PUBLIC "-//W3C//DTD SVG 1.1//EN" "http://www.w3.org/Graphics/SVG/1.1/DTD/svg11.dtd" >
<svg xmlns="http://www.w3.org/2000/svg" xmlns:xlink="http://www.w3.org/1999/xlink" version="1.1" viewBox="-10 0 1010 1000">
   <path fill="currentColor"
d="M603 -4q107 10 105 16q2 3 -4 11q-12 16 -14 29q-4 24 -13 81q-8 49 -8 46h129q96 -2 135 -10v89q-16 -5 -129 -8h-147q-70 401 -298 637q-54 -43 -83 -53q60 -36 147 -151q99 -139 158 -431h-39q-51 0 -80 8v-85q18 6 78 6h51q10 -78 12 -116q3 -41 0 -69zM274 14
q18 47 45 153l-81 18q-9 -75 -48 -151zM62 197q15 5 109 8h148q74 0 121 -8v87q-41 -8 -127 -8h-142q-65 2 -109 8v-87zM181 328q4 19 11 52q23 101 40 216l-83 16q-7 -143 -50 -268zM716 342q106 21 103 39q-1 2 -7 6q-17 10 -22 26q-94 266 -169 367l181 -18
q-27 -71 -54 -115l73 -24q74 147 116 246l-84 30q-8 -36 -26 -79q-174 28 -295 57q-18 -49 -30 -91q123 -27 214 -444zM75 796l-33 -95q46 1 206 -42q55 -197 62 -351q105 15 103 26q-15 12 -24 43q-26 94 -68 264q52 -18 100 -39q-5 29 2 71q-279 90 -348 123z" />
</svg>
