<?xml version="1.0" standalone="no"?>
<!DOCTYPE svg PUBLIC "-//W3C//DTD SVG 1.1//EN" "http://www.w3.org/Graphics/SVG/1.1/DTD/svg11.dtd" >
<svg xmlns="http://www.w3.org/2000/svg" xmlns:xlink="http://www.w3.org/1999/xlink" version="1.1" viewBox="-10 0 1010 1000">
   <path fill="currentColor"
d="M583 -8q114 32 111 38q1 3 -9 9q-28 19 -42 47q-19 32 -32 67h165q93 -2 151 -8v88q-28 -6 -147 -6h-207l-79 119q45 9 125 10h111q32 0 145 -6v91q-94 11 -141 61q-83 96 -155 219q-31 61 -15 81q12 21 87 22q62 2 86 1q30 -1 51 -4q44 -7 55 -27q20 -34 20 -85
q36 48 93 55q-27 89 -53 105q-51 43 -266 32q-169 -5 -167 -89q-3 -76 113 -236q98 -133 129 -157h-93q-89 -2 -133 6v-67l-24 29q-35 -28 -79 -45q141 -124 200 -350zM52 100q39 8 123 8h113q101 -1 150 -6v87q-53 -6 -144 -6h-22q-36 158 -56 188h82q68 -1 109 -6
q-6 29 -6 104v216q0 12 1 34q2 83 7 91h-92q9 -31 8 -73h-113q0 92 6 123h-87q6 -35 6 -139v-219q-36 51 -66 84q-13 -24 -55 -72q139 -111 176 -331h-17q-93 1 -123 6v-89zM325 437h-113v234h113v-234z" />
</svg>
