<?xml version="1.0" standalone="no"?>
<!DOCTYPE svg PUBLIC "-//W3C//DTD SVG 1.1//EN" "http://www.w3.org/Graphics/SVG/1.1/DTD/svg11.dtd" >
<svg xmlns="http://www.w3.org/2000/svg" xmlns:xlink="http://www.w3.org/1999/xlink" version="1.1" viewBox="-10 0 1010 1000">
   <path fill="currentColor"
d="M865 22q-3 40 0 93q-30 2 -103 65q-62 60 -197 146h252q44 0 92 -8q-5 51 -10 183q-9 236 -28 293q-12 57 -161 79q-11 -62 -55 -105q99 22 135 -24q26 -33 29 -349h-67q-38 319 -304 474q-22 -42 -75 -69q254 -100 306 -405h-66q-52 173 -194 294q-24 -31 -58 -56
q0 58 10 98h-93q5 -14 6 -66h-131q0 73 8 103h-92q8 -29 8 -143v-474q-2 -64 -8 -95q44 7 80 8h139q33 0 79 -10q-7 53 -8 95v464q118 -45 177 -214q-50 1 -113 20q-5 -37 -30 -83q145 -25 349 -236h-210q-66 0 -113 8v-84q55 8 113 8h230q46 0 103 -10zM153 131v199h131
v-199h-131zM153 397v201h131v-201h-131z" />
</svg>
