<?xml version="1.0" standalone="no"?>
<!DOCTYPE svg PUBLIC "-//W3C//DTD SVG 1.1//EN" "http://www.w3.org/Graphics/SVG/1.1/DTD/svg11.dtd" >
<svg xmlns="http://www.w3.org/2000/svg" xmlns:xlink="http://www.w3.org/1999/xlink" version="1.1" viewBox="-10 0 1010 1000">
   <path fill="currentColor"
d="M183 -6q16 1 43 2q46 2 46 8q1 2 -4 5q-18 16 -18 47v117q123 -3 133 -8q-8 23 -8 141v117q72 -45 131 -141q-72 0 -97 6q8 -25 8 -127q0 -103 -8 -133q37 6 172 6h135q149 0 185 -10q-4 27 -4 129q-1 113 8 137q-43 -8 -177 -8h-170q14 6 29 22q-1 2 -5 4q-16 9 -32 30
q9 2 85 2h145q110 0 141 -6q-8 39 -8 174l-4 292q0 61 -29 79q-25 21 -118 28q-9 -43 -40 -83q81 11 103 -14q13 -35 14 -409h-341q-3 3 -9 10q-39 39 -45 52q-20 -17 -69 -28q0 87 6 107h-81q6 -9 6 -32h-56v183q19 -10 58 -18l-26 -60l59 -25l12 30q31 76 46 120l-68 32
q0 -7 -10 -39q-195 47 -261 75q-5 2 -6 2q-8 -45 -28 -87q7 3 161 -20v-195h-60q0 35 6 46h-81q6 -22 8 -57q2 -34 2 -112v-69q0 -75 -1 -101q-1 -33 -5 -50q32 8 131 8v-117q0 -33 -4 -62zM425 475q9 5 41 7q15 0 38 1h67q1 -50 -6 -64q65 -1 84 4q1 4 -2 11q-8 20 -8 49
q119 0 143 -8q-6 19 -6 91q0 70 6 95q-41 -10 -145 -10v87q23 0 69 -3q-12 -22 -29 -40l59 -16q46 58 81 119l-67 18q-5 -11 -15 -25q-3 -4 -5 -7q-304 49 -297 55q-8 3 -12 3q-10 -47 -28 -82q6 -2 50 -4q78 -4 128 -10v-95h-81q-1 16 4 24h-75q7 -18 10 -97q0 -47 -1 -66
q-1 -23 -3 -37zM250 238v203h58v-203h-58zM187 240h-58v201h58v-201zM746 96v123h79v-123h-79zM615 98v121h75v-121h-75zM560 98h-74v121h74v-121zM490 534v66h81v-66h-81zM637 534v66l77 -2v-64h-77z" />
</svg>
