<?xml version="1.0" standalone="no"?>
<!DOCTYPE svg PUBLIC "-//W3C//DTD SVG 1.1//EN" "http://www.w3.org/Graphics/SVG/1.1/DTD/svg11.dtd" >
<svg xmlns="http://www.w3.org/2000/svg" xmlns:xlink="http://www.w3.org/1999/xlink" version="1.1" viewBox="-10 0 1010 1000">
   <path fill="currentColor"
d="M591 -12q92 14 103 22q0 1 -5 7q-18 20 -22 31q-4 9 -9 25t-9 25h137q90 -1 139 -10v81q-35 -7 -129 -8h-96q19 54 66 109q29 -29 61 -79q68 35 76 47q-1 2 -14 9q-16 8 -26 15q-36 24 -55 44q77 53 166 65q-34 22 -59 86q-38 -16 -74 -46v157q3 57 8 87q-46 -8 -97 -10
h-81v92q-1 18 0 50q30 116 -147 120q-6 -61 -34 -103q66 21 93 10q18 -6 16 -76v-93h-77q-67 3 -107 8q8 -32 10 -87v-139q-33 24 -46 34q-11 -18 -50 -42v210q0 132 12 181h-87q10 -13 10 -64h-121q-3 59 4 102h-84q10 -71 10 -195v-397q0 -137 -10 -196q27 6 135 6h30
q72 0 113 -8q-12 29 -12 177v152q84 -32 121 -71q-31 -39 -79 -72l62 -41l4 4q40 42 55 61q37 -48 64 -107h-66q-81 0 -123 8v-81q51 9 127 10h81q18 -58 16 -110zM141 133v137h123v-137h-123zM629 167q-38 89 -115 173h228q-78 -79 -113 -173zM262 334h-121v137h121v-137z
M496 399v64h274v-64h-274zM770 522h-274v64h274v-64zM262 534h-121v145h121v-145zM472 677q12 5 39 15q41 13 35 17q-2 2 -8 9q-16 19 -30 32q-56 59 -109 137q-31 -29 -87 -49q101 -59 160 -161zM766 683q102 70 174 135l-69 61q-91 -104 -169 -154z" />
</svg>
