<?xml version="1.0" standalone="no"?>
<!DOCTYPE svg PUBLIC "-//W3C//DTD SVG 1.1//EN" "http://www.w3.org/Graphics/SVG/1.1/DTD/svg11.dtd" >
<svg xmlns="http://www.w3.org/2000/svg" xmlns:xlink="http://www.w3.org/1999/xlink" version="1.1" viewBox="-10 0 1010 1000">
   <path fill="currentColor"
d="M855 -2q0 3 -1 10q-9 57 -9 94v55q0 63 10 129h-97q9 -36 8 -67q-29 9 -114 32q-104 29 -144 41q-8 -35 -26 -75q153 -14 284 -60v-83h-143q-87 -3 -145 6v-82q65 9 147 8h87q77 0 143 -8zM93 0q9 1 27 2q69 6 120 6h64q95 0 158 -8q-8 40 -8 117v74q0 45 8 101h-97
q8 -32 8 -69q-152 37 -260 77q-10 -37 -34 -77q114 -8 296 -56v-91h-141q-100 0 -141 8v-84zM601 84q51 49 68 75l-84 26q-21 -44 -55 -77zM224 90q8 9 23 25q24 25 41 46l-80 24q-28 -39 -59 -70zM46 314q80 4 127 4h621q42 0 109 -3q8 -1 12 -1q-4 25 -4 61q0 45 4 66h-86
q0 -4 2 -14q4 -34 4 -50h-442q4 1 12 4q76 24 69 28q0 2 -5 6q-20 14 -42 44h258q42 0 123 -7q9 -1 13 -1v75q-58 -7 -133 -8h-301q-67 67 -93 90h182v-10q0 -26 -4 -66q97 9 95 14q1 2 -3 5q-14 15 -14 49v8h137q82 0 117 -8v73q-3 0 -11 -1q-63 -5 -101 -5h-142v60h238
q76 0 143 -8v81q-8 -1 -22 -3q-50 -7 -115 -7h-244q0 48 8 105h-90q6 -39 6 -105h-258q-44 0 -107 7q-29 4 -44 5v-83q79 8 153 8h258v-60h-153q-68 -1 -117 18q-15 -52 -35 -81q51 -11 121 -86h-20q-45 0 -126 7q-5 1 -7 1v-75q3 0 9 1q67 7 126 7h59q41 -60 44 -82h-254
q0 36 8 60h-85q4 -40 4 -60q0 -34 -4 -63z" />
</svg>
