<?xml version="1.0" standalone="no"?>
<!DOCTYPE svg PUBLIC "-//W3C//DTD SVG 1.1//EN" "http://www.w3.org/Graphics/SVG/1.1/DTD/svg11.dtd" >
<svg xmlns="http://www.w3.org/2000/svg" xmlns:xlink="http://www.w3.org/1999/xlink" version="1.1" viewBox="-10 0 1010 1000">
   <path fill="currentColor"
d="M917 32q0 4 -1 17q-1 32 -1 53v172v74q1 21 2 33h-80q6 -40 6 -85q-79 44 -135 71l-37 -69q91 -20 172 -63v-135h-91q-42 0 -67 8v-76q29 3 71 4h93q39 -1 68 -4zM375 34q42 6 93 6h99q61 -1 88 -4q-5 14 -4 76v150q0 37 1 47q0 12 3 23h-76q6 -25 6 -46
q-124 77 -180 107l-28 -75q115 -31 204 -76v-134h-111q-67 0 -95 4v-78zM762 119q17 23 40 98l-72 23q-11 -66 -36 -103zM480 121q23 36 42 110l-72 21q-15 -82 -35 -111zM643 457q64 31 81 49l-15 10q-25 14 -42 26q-122 91 -236 145q-5 -4 -20 -18q-25 -23 -40 -36
q181 -53 272 -176zM754 540q77 49 75 58q-1 2 -9 4q-22 7 -40 21q-140 110 -340 181q-18 -30 -53 -59q-3 -2 -4 -3q241 -45 371 -202zM835 615q83 51 88 62q0 2 -11 6q-31 10 -49 28q-156 145 -438 220q-17 -49 -62 -77q329 -47 472 -239zM601 342q64 7 93 20q0 3 -10 7
q-5 1 -5 2q97 108 297 129q-43 34 -65 86q-186 -73 -274 -181q-68 68 -209 149q-10 5 -15 8q-19 -45 -48 -62q153 -37 236 -158zM187 2q84 24 105 46q-2 4 -9 10q-33 24 -71 107h64q41 2 97 -4v76q-30 -6 -95 -6h-97l-48 83q24 7 95 6q81 0 121 -8v81q-13 -3 -48 -5
q-46 -3 -57 -1v107q34 0 87 -5q14 -2 18 -2v79q-45 -7 -105 -4v192q75 -59 113 -95q1 3 1 8q3 28 23 62q-108 81 -196 162l-50 -67q24 -18 29 -29q7 -13 7 -41v-192q-70 0 -100 6v-80q37 6 100 6v-107q-39 0 -60 4v-39l-48 65q-7 -39 -39 -77q105 -117 163 -338z" />
</svg>
