<?xml version="1.0" standalone="no"?>
<!DOCTYPE svg PUBLIC "-//W3C//DTD SVG 1.1//EN" "http://www.w3.org/Graphics/SVG/1.1/DTD/svg11.dtd" >
<svg xmlns="http://www.w3.org/2000/svg" xmlns:xlink="http://www.w3.org/1999/xlink" version="1.1" viewBox="-10 0 1010 1000">
   <path fill="currentColor"
d="M409 30q39 3 117 4h200q83 0 147 -8q-4 25 -4 87v80q0 63 6 93q-29 -6 -137 -6h-248v83h294q108 0 143 -5q-12 100 -22 410q0 70 -32 90q-28 24 -137 35q-9 -55 -42 -97q135 26 127 -54q6 -116 12 -309h-345q-8 243 -133 450q-41 -34 -85 -51q81 -79 116 -239
q35 -157 29 -418q0 -30 -3 -93q-2 -35 -3 -52zM490 104v107h300v-107h-300zM518 500q25 4 101 4h52q58 -1 85 -4q-2 10 -3 29q-1 16 -1 61v59q0 15 6 88h-73l2 -34h-100q0 39 6 57h-75q5 -17 4 -86v-11v-81q0 -64 -4 -82zM585 560v87h102v-87h-102zM87 213q8 1 24 4
q66 11 64 14q1 2 -4 9q-16 19 -20 42q-21 124 -28 205q-36 -13 -83 -14q34 -91 47 -260zM367 635l-57 48q-30 -63 -66 -109q-29 150 -117 291q-29 -27 -85 -45q138 -135 146 -373q3 -102 4 -186q0 -77 -2 -173q-1 -26 -6 -54q-3 -15 -1 -20q49 -2 105 16q1 3 -6 8
q-15 10 -16 26q-2 28 -3 115q0 65 -1 105q55 -71 71 -125q5 3 14 8q62 36 58 42q0 7 -10 12q-7 4 -10 8q-50 77 -127 156q0 57 -4 115q72 75 113 135z" />
</svg>
