<?xml version="1.0" standalone="no"?>
<!DOCTYPE svg PUBLIC "-//W3C//DTD SVG 1.1//EN" "http://www.w3.org/Graphics/SVG/1.1/DTD/svg11.dtd" >
<svg xmlns="http://www.w3.org/2000/svg" xmlns:xlink="http://www.w3.org/1999/xlink" version="1.1" viewBox="-10 0 851 1000">
   <path fill="currentColor"
d="M554 508l-22 78h-258q58 172 220 178q176 3 220 -202l88 24q-63 257 -308 254q-252 -6 -315 -254h-137l21 -78h104q0 -8 -1 -24q-1 -15 -1 -23t1 -24t1 -24h-125l21 -77h116q69 -270 317 -276q223 -1 292 218l-86 32q-60 -180 -208 -175q-166 8 -224 201h331l-22 77h-321
q-2 15 -2 44q0 27 2 51h296z" />
</svg>
