<?xml version="1.0" standalone="no"?>
<!DOCTYPE svg PUBLIC "-//W3C//DTD SVG 1.1//EN" "http://www.w3.org/Graphics/SVG/1.1/DTD/svg11.dtd" >
<svg xmlns="http://www.w3.org/2000/svg" xmlns:xlink="http://www.w3.org/1999/xlink" version="1.1" viewBox="-10 0 1010 1000">
   <path fill="currentColor"
d="M506 -17q421 35 468 468q-26 454 -470 480q-448 -38 -478 -480q34 -438 480 -468zM942 451q-47 -410 -436 -437q-411 24 -448 437q30 413 448 448q412 -27 436 -448zM538 119v187h238v75h-238v258h291v74h-654v-74h287v-563q50 1 88 12q0 6 -5 13q-7 8 -7 18z" />
</svg>
