<?xml version="1.0" standalone="no"?>
<!DOCTYPE svg PUBLIC "-//W3C//DTD SVG 1.1//EN" "http://www.w3.org/Graphics/SVG/1.1/DTD/svg11.dtd" >
<svg xmlns="http://www.w3.org/2000/svg" xmlns:xlink="http://www.w3.org/1999/xlink" version="1.1" viewBox="-10 0 1010 1000">
   <path fill="currentColor"
d="M399 800h-89l15 -22q78 -331 16 -313q-20 7 -66 43q-19 14 -29 22l-30 -61q143 -122 201 -72q25 23 27 79q3 47 -17 167l182 -248h87l-47 66q-50 72 -56 158v42q-1 67 26 74q32 2 83 -90l80 12q-84 158 -171 155q-87 2 -89 -115v-50v-12z" />
</svg>
