<?xml version="1.0" standalone="no"?>
<!DOCTYPE svg PUBLIC "-//W3C//DTD SVG 1.1//EN" "http://www.w3.org/Graphics/SVG/1.1/DTD/svg11.dtd" >
<svg xmlns="http://www.w3.org/2000/svg" xmlns:xlink="http://www.w3.org/1999/xlink" version="1.1" viewBox="-10 0 1010 1000">
   <path fill="currentColor"
d="M470 60h97l-121 145h-47zM690 433v248q5 43 46 38v79h-61q-60 -7 -66 -63q0 -2 -3 -1t-3 -1q-79 92 -219 76q-119 -24 -122 -134q2 -148 165 -165q7 -1 21 -2q142 -9 153 -63v-8q-2 -90 -123 -89q-113 5 -121 89h-85q6 -161 208 -171q203 3 210 167zM603 594v-54
q-48 33 -153 38q-105 7 -109 95q2 79 123 64q121 -26 139 -143z" />
</svg>
