<?xml version="1.0" standalone="no"?>
<!DOCTYPE svg PUBLIC "-//W3C//DTD SVG 1.1//EN" "http://www.w3.org/Graphics/SVG/1.1/DTD/svg11.dtd" >
<svg xmlns="http://www.w3.org/2000/svg" xmlns:xlink="http://www.w3.org/1999/xlink" version="1.1" viewBox="-10 0 1010 1000">
   <path fill="currentColor"
d="M145 338h678v-86h-291v-125q2 -3 9 -8q15 -11 11 -23q-12 -2 -36 -9q-44 -13 -68 -11v176h-303v86zM137 744l65 58q89 -95 149 -210q9 -15 24 -46q17 -37 28 -52q2 -3 9 -8q17 -12 15 -23l-84 -40h-8q-48 151 -198 321zM790 802l61 -73q-142 -134 -214 -310l-74 32
q55 187 227 351zM496 -29q442 42 484 484q-42 442 -484 484q-441 -42 -484 -484q43 -442 484 -484z" />
</svg>
