<?xml version="1.0" standalone="no"?>
<!DOCTYPE svg PUBLIC "-//W3C//DTD SVG 1.1//EN" "http://www.w3.org/Graphics/SVG/1.1/DTD/svg11.dtd" >
<svg xmlns="http://www.w3.org/2000/svg" xmlns:xlink="http://www.w3.org/1999/xlink" version="1.1" viewBox="-10 0 1010 1000">
   <path fill="currentColor"
d="M419 44v230h-213v72h201q-22 281 -250 387l49 69l8 4q130 -64 205 -191q48 -84 73 -269h81q-4 32 -10 99q-7 66 -11 99q-12 87 -12 133v20q2 53 41 77q33 20 92 20h45h8q59 -9 84 -34q26 -32 41 -67q16 -37 16 -54l-4 -8l-69 -35q-1 5 -4 17q-21 102 -80 100h-49
q-28 -3 -32 -40v-46q0 -26 7 -80q4 -25 5 -37q1 -8 3 -23q18 -138 25 -213h-169l12 -166l32 -20v-12l-113 -32h-12zM496 -29q442 42 484 484q-42 442 -484 484q-441 -42 -484 -484q43 -442 484 -484z" />
</svg>
