<?xml version="1.0" standalone="no"?>
<!DOCTYPE svg PUBLIC "-//W3C//DTD SVG 1.1//EN" "http://www.w3.org/Graphics/SVG/1.1/DTD/svg11.dtd" >
<svg xmlns="http://www.w3.org/2000/svg" xmlns:xlink="http://www.w3.org/1999/xlink" version="1.1" viewBox="-10 0 1010 1000">
   <path fill="currentColor"
d="M988 532l-36 48q-42 -62 -139 -66q-16 -1 -83 7q-94 12 -131 11q-64 -1 -99 -53q-12 58 -99 53q-18 0 -97 -9q-97 -10 -117 -9q-78 2 -139 66l-40 -48q60 -65 175 -73q20 0 90 11q76 13 100 13q80 -2 99 -60h56q25 57 99 60q22 1 97 -12q70 -12 93 -12q103 0 171 73z" />
</svg>
