<?xml version="1.0" standalone="no"?>
<!DOCTYPE svg PUBLIC "-//W3C//DTD SVG 1.1//EN" "http://www.w3.org/Graphics/SVG/1.1/DTD/svg11.dtd" >
<svg xmlns="http://www.w3.org/2000/svg" xmlns:xlink="http://www.w3.org/1999/xlink" version="1.1" viewBox="-10 0 1010 1000">
   <path fill="currentColor"
d="M145 -49h77q6 6 25 20q78 53 76 101q0 29 -53 72q-40 33 -40 49q0 15 39 54q54 52 54 81q0 36 -64 88q-29 24 -29 31q0 10 31 35q62 49 62 90q0 26 -54 74q-39 34 -39 47q0 18 40 51q53 44 53 76q0 41 -93 119h-8h-65v-8q13 -21 50 -55q43 -39 43 -58q0 -13 -39 -49
q-54 -50 -54 -76q0 -25 54 -71q43 -36 43 -52q0 -15 -41 -47q-56 -44 -56 -72q0 -26 53 -70q42 -35 42 -51q0 -20 -41 -58q-54 -49 -54 -83q0 -30 60 -83q33 -29 33 -38q0 -19 -50 -59q-49 -38 -55 -58z" />
</svg>
