<?xml version="1.0" standalone="no"?>
<!DOCTYPE svg PUBLIC "-//W3C//DTD SVG 1.1//EN" "http://www.w3.org/Graphics/SVG/1.1/DTD/svg11.dtd" >
<svg xmlns="http://www.w3.org/2000/svg" xmlns:xlink="http://www.w3.org/1999/xlink" version="1.1" viewBox="-10 0 1010 1000">
   <path fill="currentColor"
d="M397 756q111 -1 180 -95q-107 -110 -188 -206q-117 71 -119 164q6 130 127 137zM339 231q-4 49 68 138q106 -52 101 -142q-2 -96 -83 -98q-82 4 -86 102zM813 772l-57 62q-51 -45 -123 -115q-97 114 -242 113q-195 -11 -206 -201q-2 -143 158 -230q-83 -93 -81 -168
q10 -162 163 -171q152 8 160 163q8 122 -135 198q47 53 165 173q33 -72 40 -183l77 14q-14 135 -59 224q67 63 140 121z" />
</svg>
