<?xml version="1.0" standalone="no"?>
<!DOCTYPE svg PUBLIC "-//W3C//DTD SVG 1.1//EN" "http://www.w3.org/Graphics/SVG/1.1/DTD/svg11.dtd" >
<svg xmlns="http://www.w3.org/2000/svg" xmlns:xlink="http://www.w3.org/1999/xlink" version="1.1" viewBox="-10 0 1010 1000">
   <path fill="currentColor"
d="M534 485v265q131 -14 135 -133q6 -92 -135 -132zM472 381v-234q-113 14 -117 119q-3 77 117 115zM534 830v91h-62v-93q-188 -14 -228 -230l79 -28q27 165 149 176v-277q-214 -58 -200 -201q9 -180 200 -200v-80h62v82q170 15 202 200l-81 28q-25 -130 -121 -149v246
q229 58 220 224q-12 192 -220 211z" />
</svg>
