<?xml version="1.0" standalone="no"?>
<!DOCTYPE svg PUBLIC "-//W3C//DTD SVG 1.1//EN" "http://www.w3.org/Graphics/SVG/1.1/DTD/svg11.dtd" >
<svg xmlns="http://www.w3.org/2000/svg" xmlns:xlink="http://www.w3.org/1999/xlink" version="1.1" viewBox="-10 0 1010 1000">
   <path fill="currentColor"
d="M337 846h-93l421 -790h91zM254 381q84 -2 85 -129q-3 -122 -83 -125q-87 0 -87 129q3 121 85 125zM256 56q155 7 161 202q-6 190 -167 197q-153 -11 -161 -199q6 -193 167 -200zM744 772q84 -1 85 -127q-2 -124 -83 -127q-86 2 -87 131q3 118 85 123zM746 447
q157 6 163 202q-5 191 -169 197q-152 -10 -159 -197q5 -196 165 -202z" />
</svg>
