<?xml version="1.0" standalone="no"?>
<!DOCTYPE svg PUBLIC "-//W3C//DTD SVG 1.1//EN" "http://www.w3.org/Graphics/SVG/1.1/DTD/svg11.dtd" >
<svg xmlns="http://www.w3.org/2000/svg" xmlns:xlink="http://www.w3.org/1999/xlink" version="1.1" viewBox="-10 0 1034 1024">
  <g transform="matrix(1 0 0 -1 0 820)">
   <path fill="currentColor"
d="M303 -37h402q6 21 13 40q4 19 35 94h-19q-21 -39 -58 -50q-48 -9 -283 -10q222 210 287 334q28 72 29 120q0 57 -22 100q-27 51 -75 77q-43 21 -101 21q-114 0 -165 -103q-12 -27 -23 -82h16q28 58 59 83q36 28 76 29q76 0 121 -56q33 -39 33 -118q0 -90 -79 -199
q-108 -130 -246 -257v-23z" />
  </g>

</svg>
