<?xml version="1.0" standalone="no"?>
<!DOCTYPE svg PUBLIC "-//W3C//DTD SVG 1.1//EN" "http://www.w3.org/Graphics/SVG/1.1/DTD/svg11.dtd" >
<svg xmlns="http://www.w3.org/2000/svg" xmlns:xlink="http://www.w3.org/1999/xlink" version="1.1" viewBox="-10 0 1034 1024">
  <g transform="matrix(1 0 0 -1 0 820)">
   <path fill="currentColor"
d="M519 686q-69 0 -125 -53q-135 -130 -89 -427q10 -75 40 -125q69 -115 172 -116q72 0 134 68q52 60 72 135q12 57 13 156q0 220 -99 312q-51 49 -118 50zM519 658q18 0 37 -10q27 -12 43 -44q60 -123 31 -457q-1 -4 -1 -11q-7 -67 -41 -107q-33 -33 -74 -34q-28 0 -44 11
q-78 46 -78 292q-1 30 -1 59l2 96q9 120 51 168q34 36 75 37v0z" />
  </g>

</svg>
