<?xml version="1.0" standalone="no"?>
<!DOCTYPE svg PUBLIC "-//W3C//DTD SVG 1.1//EN" "http://www.w3.org/Graphics/SVG/1.1/DTD/svg11.dtd" >
<svg xmlns="http://www.w3.org/2000/svg" xmlns:xlink="http://www.w3.org/1999/xlink" version="1.1" viewBox="-10 0 1034 1024">
  <g transform="matrix(1 0 0 -1 0 820)">
   <path fill="currentColor"
d="M466 669q-118 -240 -119 -247q0 -9 19 -13q169 -9 239 -118q31 -51 32 -120q0 -66 -39 -112q-45 -51 -111 -52q-42 0 -89 26q-48 28 -72 11q-9 -9 -10 -23q0 -30 38 -47q39 -15 85 -16q135 0 210 106q51 69 51 164q0 60 -33 121q-57 96 -194 131q-24 3 -50 10l49 104h204
l38 75h-248z" />
  </g>

</svg>
