<?xml version="1.0" standalone="no"?>
<!DOCTYPE svg PUBLIC "-//W3C//DTD SVG 1.1//EN" "http://www.w3.org/Graphics/SVG/1.1/DTD/svg11.dtd" >
<svg xmlns="http://www.w3.org/2000/svg" xmlns:xlink="http://www.w3.org/1999/xlink" version="1.1" viewBox="-10 0 1034 1024">
  <g transform="matrix(1 0 0 -1 0 820)">
   <path fill="currentColor"
d="M710 689q-186 0 -307 -117q-129 -120 -128 -309q0 -195 105 -268q57 -42 131 -42q57 0 102 24q111 66 112 247q0 81 -35 132q-49 75 -147 76q-64 0 -156 -49q52 165 165 239q69 45 158 53v14zM376 341q66 42 121 42q69 0 105 -60q30 -51 30 -168t-40 -149
q-34 -25 -74 -26q-30 0 -58 15q-87 51 -88 252q0 39 4 94v0z" />
  </g>

</svg>
