<?xml version="1.0" standalone="no"?>
<!DOCTYPE svg PUBLIC "-//W3C//DTD SVG 1.1//EN" "http://www.w3.org/Graphics/SVG/1.1/DTD/svg11.dtd" >
<svg xmlns="http://www.w3.org/2000/svg" xmlns:xlink="http://www.w3.org/1999/xlink" version="1.1" viewBox="-10 0 1010 1000">
   <path fill="currentColor"
d="M496 471q-147 5 -153 150q9 132 157 139q148 -9 157 -141q-2 -149 -161 -148zM496 135q-115 4 -123 125q6 129 127 135q121 -7 127 -137q-6 -119 -131 -123zM258 621q4 -134 133 -188q-102 -54 -103 -169q12 -194 208 -204q208 4 216 198q4 118 -101 173q128 49 131 188
q-7 210 -244 217q-237 -5 -240 -215z" />
</svg>
