<?xml version="1.0" standalone="no"?>
<!DOCTYPE svg PUBLIC "-//W3C//DTD SVG 1.1//EN" "http://www.w3.org/Graphics/SVG/1.1/DTD/svg11.dtd" >
<svg xmlns="http://www.w3.org/2000/svg" xmlns:xlink="http://www.w3.org/1999/xlink" version="1.1" viewBox="-10 0 1034 1024">
  <g transform="matrix(1 0 0 -1 0 820)">
   <path fill="currentColor"
d="M87 -195q99 36 133 105q12 33 13 66q0 54 -25 83q-27 25 -59 26q-63 0 -64 -61q0 -52 50 -53q15 0 54 12q6 -21 6 -35q0 -57 -108 -127v-16zM162 478q-54 0 -55 -56q0 -57 57 -58q57 0 57 57t-59 57v0z" />
  </g>

</svg>
