<?xml version="1.0" standalone="no"?>
<!DOCTYPE svg PUBLIC "-//W3C//DTD SVG 1.1//EN" "http://www.w3.org/Graphics/SVG/1.1/DTD/svg11.dtd" >
<svg xmlns="http://www.w3.org/2000/svg" xmlns:xlink="http://www.w3.org/1999/xlink" version="1.1" viewBox="-10 0 1034 1024">
  <g transform="matrix(1 0 0 -1 0 820)">
   <path fill="currentColor"
d="M945 62q-105 -114 -207 -146q-91 -24 -183 -25q-123 0 -224 46q-132 58 -182 171q-36 78 -36 183q0 117 47 226q57 133 180 197q114 60 292 34q67 -7 133 -49q150 -88 151 -285q0 -220 -142 -309q-33 -21 -67 -21q-40 0 -41 41q0 46 119 433h-86q-16 -34 -31 -71
q-37 54 -63 67q-30 16 -79 17q-111 0 -179 -91q-90 -117 -90 -265q0 -76 25 -121q34 -66 120 -67q67 0 160 70q40 -60 75 -68q10 -1 24 -2q147 0 238 142q63 99 63 242q0 66 -15 124q-39 133 -162 207q-103 60 -234 61q-189 0 -317 -110q-82 -69 -134 -205q-31 -84 -32 -194
q0 -202 123 -321q124 -124 358 -125q222 0 347 105q66 67 95 109h-46zM539 515q37 0 62 -20q30 -22 31 -97q0 -69 -24 -141q-30 -84 -63 -119q-45 -48 -111 -48q-40 0 -60 16q-25 22 -26 80q0 72 33 175q18 66 56 106q45 48 102 48v0z" />
  </g>

</svg>
