<?xml version="1.0" standalone="no"?>
<!DOCTYPE svg PUBLIC "-//W3C//DTD SVG 1.1//EN" "http://www.w3.org/Graphics/SVG/1.1/DTD/svg11.dtd" >
<svg xmlns="http://www.w3.org/2000/svg" xmlns:xlink="http://www.w3.org/1999/xlink" version="1.1" viewBox="-10 0 1010 1000">
   <path fill="currentColor"
d="M518 352q-153 12 -171 218q-9 145 97 145q138 -29 163 -248q-7 -110 -89 -115zM631 284h89l-43 308q-4 32 -4 47q-2 73 55 70q126 -15 133 -228q-19 -323 -349 -342q-348 24 -373 403q10 382 369 389q204 -1 339 -117l52 65q-174 132 -397 129q-439 -13 -452 -464
q30 -458 466 -480q406 27 434 413q-13 288 -236 311q-115 2 -119 -117q-55 116 -170 119q-169 -4 -163 -222q34 -272 254 -294q75 1 109 64z" />
</svg>
