<?xml version="1.0" standalone="no"?>
<!DOCTYPE svg PUBLIC "-//W3C//DTD SVG 1.1//EN" "http://www.w3.org/Graphics/SVG/1.1/DTD/svg11.dtd" >
<svg xmlns="http://www.w3.org/2000/svg" xmlns:xlink="http://www.w3.org/1999/xlink" version="1.1" viewBox="-10 0 1034 1024">
  <g transform="matrix(1 0 0 -1 0 820)">
   <path fill="currentColor"
d="M605 274q37 0 55 -10t19 -46v-85q0 -75 -63 -108q-37 -18 -89 -19q-144 0 -209 129q-42 85 -42 200l2 59q9 111 60 184q69 99 185 99q135 0 229 -150q4 -9 16 -11q16 0 17 21l-56 169q-4 15 -17 15q-6 0 -12 -7q-21 -27 -39 -28q-12 0 -43 10q-151 51 -277 -28
q-87 -52 -123 -169q-25 -81 -26 -170q0 -123 60 -217q96 -141 260 -142q55 0 131 28q52 25 82 4q15 -13 21 -14q12 0 12 15v228q0 42 47 43h26q16 0 17 16q0 15 -17 16h-268q-16 0 -17 -16q0 -15 17 -16h42z" />
  </g>

</svg>
