<?xml version="1.0" standalone="no"?>
<!DOCTYPE svg PUBLIC "-//W3C//DTD SVG 1.1//EN" "http://www.w3.org/Graphics/SVG/1.1/DTD/svg11.dtd" >
<svg xmlns="http://www.w3.org/2000/svg" xmlns:xlink="http://www.w3.org/1999/xlink" version="1.1" viewBox="-10 0 1034 1024">
  <g transform="matrix(1 0 0 -1 0 820)">
   <path fill="currentColor"
d="M254 55q0 138 93 242q135 190 18 291q-46 40 -117 41q-79 0 -136 -53q-51 -49 -33 -123q9 -33 24 -44q12 -6 27 -7q39 0 39 37q-39 93 -34 105q6 22 29 39q19 15 54 16q63 0 92 -55q45 -93 -33 -267q-42 -96 -45 -203v-19h22zM249 -27q-27 0 -48 -26q-9 -13 -10 -33
q0 -21 15 -38q15 -21 48 -21q19 0 33 10q21 15 22 48q0 60 -60 60v0z" />
  </g>

</svg>
