<?xml version="1.0" standalone="no"?>
<!DOCTYPE svg PUBLIC "-//W3C//DTD SVG 1.1//EN" "http://www.w3.org/Graphics/SVG/1.1/DTD/svg11.dtd" >
<svg xmlns="http://www.w3.org/2000/svg" xmlns:xlink="http://www.w3.org/1999/xlink" version="1.1" viewBox="-10 0 1034 1024">
  <g transform="matrix(1 0 0 -1 0 820)">
   <path fill="currentColor"
d="M339 303v305q0 22 8 35q12 21 75 20q15 0 16 14q0 13 -16 14h-252q-15 0 -16 -14q0 -13 16 -14q60 0 74 -11q16 -12 17 -45v-548q0 -30 -8 -43q-15 -18 -76 -19q-18 0 -19 -16q0 -15 19 -15h253q18 0 19 15q0 15 -19 16q-60 0 -78 15q-12 7 -13 42v201l108 110
q234 -316 235 -344q0 -24 -44 -24h-28q-18 0 -18 -15t18 -16h256q15 0 16 15q0 15 -16 16q-57 9 -90 41q-19 18 -278 380q211 217 250 234q24 10 74 11q15 0 16 14q0 13 -16 14h-219q-15 0 -15 -14q0 -13 15 -14h29q21 0 22 -16q0 -16 -18 -37z" />
  </g>

</svg>
