<?xml version="1.0" standalone="no"?>
<!DOCTYPE svg PUBLIC "-//W3C//DTD SVG 1.1//EN" "http://www.w3.org/Graphics/SVG/1.1/DTD/svg11.dtd" >
<svg xmlns="http://www.w3.org/2000/svg" xmlns:xlink="http://www.w3.org/1999/xlink" version="1.1" viewBox="-10 0 1034 1024">
  <g transform="matrix(1 0 0 -1 0 820)">
   <path fill="currentColor"
d="M236 496q-60 -42 -115 -47q-12 0 -23 -1q-13 0 -14 -12q0 -12 14 -12q10 0 23 -2q24 0 38 -13q15 -12 16 -52v-309q0 -45 -50 -45h-17q-12 0 -13 -15q0 -13 12 -14h198q16 0 17 14q0 15 -17 15h-22q-21 0 -33 9q-13 9 -14 38v287q0 15 13 38q9 21 26 41q42 46 90 47
q93 0 93 -120v-290q0 -21 -9 -34q-12 -15 -45 -16h-15q-12 0 -13 -15q0 -13 13 -14h203q12 0 13 14q0 15 -13 15h-20q-51 0 -51 56v283q0 24 18 48q42 73 125 74q45 0 67 -35q21 -33 22 -95v-280q0 -51 -41 -51h-17q-18 0 -18 -16q0 -12 16 -13h193q15 0 16 14q0 15 -16 15
h-18q-27 0 -40 11q-12 12 -13 35v292q0 63 -19 94q-39 63 -115 63q-57 0 -107 -37q-30 -22 -54 -67q-21 46 -50 71q-39 30 -82 30q-42 0 -83 -22q-33 -18 -69 -71v94z" />
  </g>

</svg>
