<?xml version="1.0" standalone="no"?>
<!DOCTYPE svg PUBLIC "-//W3C//DTD SVG 1.1//EN" "http://www.w3.org/Graphics/SVG/1.1/DTD/svg11.dtd" >
<svg xmlns="http://www.w3.org/2000/svg" xmlns:xlink="http://www.w3.org/1999/xlink" version="1.1" viewBox="-10 0 1034 1024">
  <g transform="matrix(1 0 0 -1 0 820)">
   <path fill="currentColor"
d="M542 711q-21 -13 -38 -20q-43 -12 -71 -15q-13 0 -26 -1q-15 0 -16 -14q0 -12 14 -13q13 0 28 -1q21 0 34 -13q12 -16 12 -49v-529q0 -24 -8 -38q-13 -24 -43 -24h-38q-18 0 -17 -15q0 -12 16 -12h254q12 0 13 13q0 13 -13 14h-34q-36 0 -51 11q-15 12 -16 49v657z" />
  </g>

</svg>
