<?xml version="1.0" standalone="no"?>
<!DOCTYPE svg PUBLIC "-//W3C//DTD SVG 1.1//EN" "http://www.w3.org/Graphics/SVG/1.1/DTD/svg11.dtd" >
<svg xmlns="http://www.w3.org/2000/svg" xmlns:xlink="http://www.w3.org/1999/xlink" version="1.1" viewBox="-10 0 1034 1024">
  <g transform="matrix(1 0 0 -1 0 820)">
   <path fill="currentColor"
d="M190 367q-60 0 -60 -60q0 -55 58 -56q58 0 59 58q0 57 -57 58zM512 367q-58 0 -59 -60q0 -55 58 -56q57 0 58 58q0 57 -57 58zM847 371q-58 0 -59 -61q0 -55 58 -56q58 0 59 58q0 58 -58 59v0z" />
  </g>

</svg>
