<?xml version="1.0" standalone="no"?>
<!DOCTYPE svg PUBLIC "-//W3C//DTD SVG 1.1//EN" "http://www.w3.org/Graphics/SVG/1.1/DTD/svg11.dtd" >
<svg xmlns="http://www.w3.org/2000/svg" xmlns:xlink="http://www.w3.org/1999/xlink" version="1.1" viewBox="-10 0 1010 1000">
   <path fill="currentColor"
d="M187 121q-73 3 -76 78q3 74 76 77q74 -4 77 -77q-3 -75 -77 -78zM333 199q-7 133 -146 141q-137 -7 -145 -141q10 -130 145 -139q138 9 146 139zM875 560l83 26q-60 255 -293 254q-302 -14 -314 -379q19 -378 318 -403q211 1 277 220l-83 32q-55 -181 -198 -175
q-213 19 -225 322q12 290 225 307q160 2 210 -204z" />
</svg>
