<?xml version="1.0" standalone="no"?>
<!DOCTYPE svg PUBLIC "-//W3C//DTD SVG 1.1//EN" "http://www.w3.org/Graphics/SVG/1.1/DTD/svg11.dtd" >
<svg xmlns="http://www.w3.org/2000/svg" xmlns:xlink="http://www.w3.org/1999/xlink" version="1.1" viewBox="-10 0 1034 1024">
  <g transform="matrix(1 0 0 -1 0 820)">
   <path fill="currentColor"
d="M533 105l-171 410q-13 33 -14 53q0 18 15 34q19 18 59 18q12 1 12 12q0 12 -14 12h-238q-10 0 -11 -11q0 -7 8 -10q64 -18 101 -100l232 -544l221 541q33 82 77 97q1 3 25 6q12 3 12 12q0 12 -15 12h-182q-15 0 -15 -12q0 -6 11 -11q12 -1 24 -5q39 -10 39 -41
q0 -21 -15 -61z" />
  </g>

</svg>
