<?xml version="1.0" standalone="no"?>
<!DOCTYPE svg PUBLIC "-//W3C//DTD SVG 1.1//EN" "http://www.w3.org/Graphics/SVG/1.1/DTD/svg11.dtd" >
<svg xmlns="http://www.w3.org/2000/svg" xmlns:xlink="http://www.w3.org/1999/xlink" version="1.1" viewBox="-10 0 1034 1024">
  <g transform="matrix(1 0 0 -1 0 820)">
   <path fill="currentColor"
d="M263 -18q156 594 164 604q18 43 58 44h32q40 0 61 -32q12 -18 13 -58v-421q0 -48 -10 -68q-9 -18 -62 -37q-9 0 -10 -11q0 -9 9 -10h461q12 0 12 13q0 6 -6 10q-10 3 -20 5q-54 15 -54 98v421q0 46 8 60q12 27 56 34q12 1 12 11q0 9 -13 10h-626q-12 0 -12 -10
q0 -3 22 -18q30 -12 15 -95l-93 -379q-109 417 -109 429q0 34 19 41q7 3 16 5q13 4 14 15q0 12 -18 12h-150q-18 0 -18 -10q0 -1 33 -22q21 -6 49 -106zM722 21q-36 0 -49 32q-10 27 -11 66q0 450 5 471q10 39 55 40h47q39 0 57 -27q12 -18 13 -62v-422q0 -45 -9 -66
q-16 -31 -61 -32h-47z" />
  </g>

</svg>
