<?xml version="1.0" standalone="no"?>
<!DOCTYPE svg PUBLIC "-//W3C//DTD SVG 1.1//EN" "http://www.w3.org/Graphics/SVG/1.1/DTD/svg11.dtd" >
<svg xmlns="http://www.w3.org/2000/svg" xmlns:xlink="http://www.w3.org/1999/xlink" version="1.1" viewBox="-10 0 1034 1024">
  <g transform="matrix(1 0 0 -1 0 820)">
   <path fill="currentColor"
d="M210 -12l130 591q6 31 20 44q9 9 61 8q51 0 52 -96q0 -444 -9 -481q-4 -9 -27 -27q-10 -3 -11 -13q0 -12 13 -12h528q13 0 14 12q0 9 -11 13q-31 15 -38 43q-3 31 -4 499q0 21 2 26q6 30 33 43q9 6 9 11q1 12 -10 12l-683 -1q-12 0 -12 -12q0 -7 8 -10q6 -1 13 -4
q15 -3 16 -36q0 -3 -78 -417q-84 382 -83 419q0 24 13 30l20 14q0 12 -18 13h-122q-9 0 -9 -9q0 -6 9 -12q21 -4 33 -30q7 -15 21 -69zM666 131q0 -45 -8 -68q-13 -33 -45 -36h-20q-27 0 -39 33q-10 33 -11 73v402q0 49 12 75q9 25 35 26h25q24 0 38 -30q12 -27 13 -71v-404
zM787 27q-28 0 -41 33q-12 28 -12 73v402q0 48 13 75q10 25 38 26h21q30 0 42 -35q9 -30 10 -66v-404q0 -45 -8 -68q-10 -36 -42 -36h-21z" />
  </g>

</svg>
