<?xml version="1.0" standalone="no"?>
<!DOCTYPE svg PUBLIC "-//W3C//DTD SVG 1.1//EN" "http://www.w3.org/Graphics/SVG/1.1/DTD/svg11.dtd" >
<svg xmlns="http://www.w3.org/2000/svg" xmlns:xlink="http://www.w3.org/1999/xlink" version="1.1" viewBox="-10 0 1034 1024">
  <g transform="matrix(1 0 0 -1 0 820)">
   <path fill="currentColor"
d="M694 359q171 256 206 270q12 6 45 11q13 1 14 13q0 12 -14 12h-187q-12 0 -12 -13q0 -9 9 -12q9 -1 19 -4q31 -6 32 -26q0 -10 -16 -39l-117 -174l-71 123q-39 67 -39 81q0 27 33 34q9 3 20 4q9 1 10 9q0 12 -16 12h-519q-10 0 -11 -10q0 -9 14 -13q48 -7 68 -37
q15 -21 16 -66v-402q0 -48 -12 -69q-15 -21 -68 -39q-10 -3 -11 -11q0 -10 12 -11h455q12 0 11 11q0 9 -11 10q-9 3 -16 4q-33 9 -34 33q0 21 142 228q120 -208 121 -228q0 -9 -4 -13q-9 -12 -34 -17q-31 -3 -31 -13t16 -11h235q15 0 15 12q0 9 -9 10q-78 21 -112 76l-12 20
zM623 324q-156 -231 -173 -255q-42 -42 -121 -42h-5q-42 0 -63 33q-18 31 -18 73v401q0 48 22 74q21 27 61 28h58q33 0 60 -19q18 -13 51 -67z" />
  </g>

</svg>
