<?xml version="1.0" standalone="no"?>
<!DOCTYPE svg PUBLIC "-//W3C//DTD SVG 1.1//EN" "http://www.w3.org/Graphics/SVG/1.1/DTD/svg11.dtd" >
<svg xmlns="http://www.w3.org/2000/svg" xmlns:xlink="http://www.w3.org/1999/xlink" version="1.1" viewBox="-10 0 1034 1024">
  <g transform="matrix(1 0 0 -1 0 820)">
   <path fill="currentColor"
d="M265 273q87 -196 88 -211q0 -24 -23 -30q-7 -1 -14 -3q-9 0 -10 -10q0 -10 16 -11h619q13 0 14 11q0 6 -9 11q-36 18 -43 44q-9 27 -8 267q0 250 7 268q6 21 28 30q6 3 13 4q9 1 9 11t-11 11h-586q-12 0 -12 -11q0 -6 10 -11q6 -3 14 -6q19 -6 20 -27q0 -24 -15 -52
l-80 -150q-79 171 -80 200q0 19 14 24q6 3 14 5q10 3 11 12q0 12 -15 12h-177q-12 0 -12 -12q0 -7 9 -10q13 -3 28 -8q30 -9 53 -68q12 -25 17 -41l89 -202q-133 -255 -155 -278q-3 -1 -42 -18q-12 -3 -12 -11q0 -9 13 -10h147q12 0 12 10q0 9 -11 12q-6 3 -12 4
q-21 6 -22 28q0 18 104 216zM313 364l95 179q27 49 34 60q27 36 69 36h39q31 0 44 -33q9 -21 9 -56v-417q0 -42 -9 -70q-9 -30 -46 -30h-42q-33 0 -57 36q-21 36 -136 295zM723 35q-33 0 -44 32q-10 30 -11 66q0 445 5 466q9 39 50 40h43q36 0 52 -27q12 -18 12 -61v-418
q0 -97 -64 -98h-43z" />
  </g>

</svg>
