<?xml version="1.0" standalone="no"?>
<!DOCTYPE svg PUBLIC "-//W3C//DTD SVG 1.1//EN" "http://www.w3.org/Graphics/SVG/1.1/DTD/svg11.dtd" >
<svg xmlns="http://www.w3.org/2000/svg" xmlns:xlink="http://www.w3.org/1999/xlink" version="1.1" viewBox="-10 0 1034 1024">
  <g transform="matrix(1 0 0 -1 0 820)">
   <path fill="currentColor"
d="M823 170l-12 58q-87 -10 -143 24q-28 18 -63 61q73 94 159 94q16 0 46 -6q6 30 13 59q-160 0 -244 -92q-7 -6 -13 -15q-96 105 -191 106q-72 0 -117 -41q-45 -39 -45 -106q0 -63 40 -100q45 -45 123 -45q93 0 190 102q96 -97 257 -99zM528 313q-63 -93 -156 -93
q-48 0 -80 31q-24 24 -25 61q0 40 26 63q30 28 81 29q75 0 154 -91v0z" />
  </g>

</svg>
