<?xml version="1.0" standalone="no"?>
<!DOCTYPE svg PUBLIC "-//W3C//DTD SVG 1.1//EN" "http://www.w3.org/Graphics/SVG/1.1/DTD/svg11.dtd" >
<svg xmlns="http://www.w3.org/2000/svg" xmlns:xlink="http://www.w3.org/1999/xlink" version="1.1" viewBox="-10 0 1034 1024">
  <g transform="matrix(1 0 0 -1 0 820)">
   <path fill="currentColor"
d="M516 579q-54 0 -58 -58q-3 -58 56 -59q60 0 61 59q0 57 -59 58zM275 173q-25 0 -41 -18q-15 -15 -17 -40q-1 -58 56 -59q60 0 61 59q0 57 -59 58zM755 175q-57 0 -60 -58t57 -59q60 0 60 60q0 57 -57 57v0z" />
  </g>

</svg>
