<?xml version="1.0" standalone="no"?>
<!DOCTYPE svg PUBLIC "-//W3C//DTD SVG 1.1//EN" "http://www.w3.org/Graphics/SVG/1.1/DTD/svg11.dtd" >
<svg xmlns="http://www.w3.org/2000/svg" xmlns:xlink="http://www.w3.org/1999/xlink" version="1.1" viewBox="-10 0 1010 1000">
   <path fill="currentColor"
d="M238 106h272q149 2 196 118q24 66 2 132q-24 64 -75 77q-1 2 -2 3q-1 0 0 0t2 1q143 44 122 205q-39 152 -195 158h-322v-694zM319 181v222h191q109 -6 120 -112q-7 -105 -116 -110h-195zM319 479v246h207q129 -5 143 -120q-6 -119 -133 -126h-217z" />
</svg>
