<?xml version="1.0" standalone="no"?>
<!DOCTYPE svg PUBLIC "-//W3C//DTD SVG 1.1//EN" "http://www.w3.org/Graphics/SVG/1.1/DTD/svg11.dtd" >
<svg xmlns="http://www.w3.org/2000/svg" xmlns:xlink="http://www.w3.org/1999/xlink" version="1.1" viewBox="-10 0 1034 1024">
  <g transform="matrix(1 0 0 -1 0 820)">
   <path fill="currentColor"
d="M473 363q-33 0 -50 21q-15 19 -16 41q-1 16 -11 17q-9 0 -9 -8v-202q0 -9 9 -10q6 0 11 9q3 6 5 23q0 15 9 25q15 22 52 23h60q24 0 42 -7q25 -15 30 -41q0 -15 3 -21q0 -7 12 -8q9 0 10 12v200q0 7 -8 8q-9 0 -11 -8q-1 -1 -7 -32q-3 -18 -17 -29q-15 -12 -54 -13h-60z
M514 654q-40 0 -84 -9q-48 -12 -84 -39q-79 -54 -118 -148q-27 -67 -27 -148q0 -130 66 -219q87 -117 240 -118q145 0 238 111q75 93 75 228q0 204 -144 298q-69 43 -162 44zM513 619q141 0 198 -143q27 -66 28 -168q0 -85 -24 -145q-28 -69 -81 -110q-52 -42 -123 -43
q-105 0 -165 82q-64 87 -65 215q0 93 32 169q30 75 84 109q49 33 116 34v0z" />
  </g>

</svg>
