<?xml version="1.0" standalone="no"?>
<!DOCTYPE svg PUBLIC "-//W3C//DTD SVG 1.1//EN" "http://www.w3.org/Graphics/SVG/1.1/DTD/svg11.dtd" >
<svg xmlns="http://www.w3.org/2000/svg" xmlns:xlink="http://www.w3.org/1999/xlink" version="1.1" viewBox="-10 0 1010 1000">
   <path fill="currentColor"
d="M500 -51q444 42 486 488q-41 442 -486 484q-447 -41 -488 -484q42 -447 488 -488zM407 185l-28 180q55 -41 129 -41q208 18 220 212q-12 228 -244 232q-195 -4 -216 -182h87q14 108 143 111q131 -9 141 -151q-6 -139 -149 -147q-76 1 -125 64l-71 -4l49 -355h349v81h-285
zM500 -27q-425 39 -464 464q38 422 464 460q424 -39 462 -460q-40 -425 -462 -464z" />
</svg>
