<?xml version="1.0" standalone="no"?>
<!DOCTYPE svg PUBLIC "-//W3C//DTD SVG 1.1//EN" "http://www.w3.org/Graphics/SVG/1.1/DTD/svg11.dtd" >
<svg xmlns="http://www.w3.org/2000/svg" xmlns:xlink="http://www.w3.org/1999/xlink" version="1.1" viewBox="-10 0 1010 1000">
   <path fill="currentColor"
d="M500 -51q444 42 486 488q-41 442 -486 484q-447 -41 -488 -484q42 -447 488 -488zM714 270h-81q-21 -101 -117 -101q-144 7 -161 246l2 2q52 -80 161 -81q203 17 210 210q2 98 -63 167q-56 65 -171 63q-109 -4 -173 -95q-51 -84 -51 -230q10 -349 248 -355
q181 12 196 174zM367 554q10 141 143 147q125 -8 133 -151q-9 -137 -137 -141q-131 6 -139 145zM500 -27q-425 39 -464 464q38 422 464 460q424 -39 462 -460q-40 -425 -462 -464z" />
</svg>
