<?xml version="1.0" standalone="no"?>
<!DOCTYPE svg PUBLIC "-//W3C//DTD SVG 1.1//EN" "http://www.w3.org/Graphics/SVG/1.1/DTD/svg11.dtd" >
<svg xmlns="http://www.w3.org/2000/svg" xmlns:xlink="http://www.w3.org/1999/xlink" version="1.1" viewBox="-10 0 1034 1024">
  <g transform="matrix(1 0 0 -1 0 820)">
   <path fill="currentColor"
d="M468 311q-94 -64 -94 -137q0 -52 40 -89q39 -36 97 -37q60 0 101 38q40 36 41 94q0 61 -97 148l-4 4q90 63 91 128q0 48 -38 85q-39 36 -93 36t-92 -37q-37 -37 -38 -89q0 -57 86 -144zM499 288l47 -40q48 -45 48 -96q0 -66 -74 -67q-46 0 -69 35q-15 24 -15 56
q0 63 63 112zM525 354q-12 9 -21 16q-61 61 -62 110q0 63 70 64q36 0 55 -26q18 -21 18 -58q0 -49 -60 -106zM517 702q-225 0 -342 -195q-51 -90 -52 -194q0 -162 114 -277q114 -114 276 -115q160 0 277 114q114 115 114 276q0 168 -123 285q-114 105 -264 106zM509 665
q153 0 260 -111q96 -102 97 -241q0 -147 -103 -249q-102 -102 -250 -103q-147 0 -250 103q-102 102 -103 249q0 127 83 226q106 126 266 126v0z" />
  </g>

</svg>
