<?xml version="1.0" standalone="no"?>
<!DOCTYPE svg PUBLIC "-//W3C//DTD SVG 1.1//EN" "http://www.w3.org/Graphics/SVG/1.1/DTD/svg11.dtd" >
<svg xmlns="http://www.w3.org/2000/svg" xmlns:xlink="http://www.w3.org/1999/xlink" version="1.1" viewBox="-10 0 1010 1000">
   <path fill="currentColor"
d="M500 -51q444 42 486 488q-41 442 -486 484q-447 -41 -488 -484q42 -447 488 -488zM282 600h83q10 103 113 107q134 6 163 -248l-2 -2q-43 75 -155 79q-201 -10 -210 -214q13 -216 214 -226q236 2 236 305q-11 369 -244 375q-182 -5 -198 -176zM496 463q129 -5 131 -151
q-6 -139 -137 -143q-123 9 -131 151q0 144 137 143zM500 -27q-425 39 -464 464q38 422 464 460q424 -39 462 -460q-40 -425 -462 -464z" />
</svg>
