<?xml version="1.0" standalone="no"?>
<!DOCTYPE svg PUBLIC "-//W3C//DTD SVG 1.1//EN" "http://www.w3.org/Graphics/SVG/1.1/DTD/svg11.dtd" >
<svg xmlns="http://www.w3.org/2000/svg" xmlns:xlink="http://www.w3.org/1999/xlink" version="1.1" viewBox="-11 0 1020 1000">
   <path fill="currentColor"
d="M169 -33h59q-145 239 -135 496q-7 177 137 440h-59q-179 -246 -171 -464q-4 -238 169 -472zM829 903h-61q147 -235 137 -494q7 -177 -137 -442h57q181 246 173 468q4 233 -169 468zM403 167l-30 195q55 -44 137 -44q217 19 230 224q-15 241 -256 246q-202 -5 -226 -192
h91q14 114 149 117q138 -10 149 -161q-7 -148 -157 -157q-78 1 -131 68l-75 -4l53 -377h363v85h-297z" />
</svg>
