<?xml version="1.0" standalone="no"?>
<!DOCTYPE svg PUBLIC "-//W3C//DTD SVG 1.1//EN" "http://www.w3.org/Graphics/SVG/1.1/DTD/svg11.dtd" >
<svg xmlns="http://www.w3.org/2000/svg" xmlns:xlink="http://www.w3.org/1999/xlink" version="1.1" viewBox="-10 0 1034 1024">
  <g transform="matrix(1 0 0 -1 0 820)">
   <path fill="currentColor"
d="M367 368q139 -3 210 -79q43 -45 44 -108q0 -36 -16 -64q-31 -63 -102 -64q-36 0 -96 38q-9 6 -22 6q-36 0 -37 -34q0 -57 96 -57q91 0 153 61q63 63 63 152q0 57 -31 105q-57 84 -201 114l53 117h168q12 36 25 71q3 10 -8 11q-10 0 -34 -23h-159zM194 701
q-84 -60 -119 -236q-15 -67 -15 -141q0 -225 111 -357q9 -10 48 -43q10 -12 22 -13q6 0 7 6l-55 75q-55 105 -61 362q0 156 39 261q12 37 29 56q36 42 37 52q0 3 -4 5q-12 0 -39 -27zM839 -52q39 34 81 126q48 114 48 248q0 270 -151 391q-16 12 -22 13q-4 0 -5 -5
q0 -6 37 -52q36 -43 59 -181q22 -214 -18 -405q-28 -102 -85 -160q-3 -3 -3 -8q0 -6 6 -6q3 0 53 39v0z" />
  </g>

</svg>
