<?xml version="1.0" standalone="no"?>
<!DOCTYPE svg PUBLIC "-//W3C//DTD SVG 1.1//EN" "http://www.w3.org/Graphics/SVG/1.1/DTD/svg11.dtd" >
<svg xmlns="http://www.w3.org/2000/svg" xmlns:xlink="http://www.w3.org/1999/xlink" version="1.1" viewBox="-11 0 1020 1000">
   <path fill="currentColor"
d="M169 -33h59q-145 239 -135 496q-7 177 137 440h-59q-179 -246 -171 -464q-4 -238 169 -472zM829 903h-61q147 -235 137 -494q7 -177 -137 -442h57q181 246 173 468q4 233 -169 468zM724 262h-85q-22 -109 -121 -109q-152 7 -169 260l2 2q54 -85 169 -85q210 19 218 224
q2 104 -65 175q-57 70 -179 67q-116 -4 -181 -101q-54 -85 -53 -244q11 -368 260 -375q186 12 204 186zM361 562q11 150 149 157q131 -9 139 -161q-9 -145 -143 -149q-138 6 -145 153z" />
</svg>
