<?xml version="1.0" standalone="no"?>
<!DOCTYPE svg PUBLIC "-//W3C//DTD SVG 1.1//EN" "http://www.w3.org/Graphics/SVG/1.1/DTD/svg11.dtd" >
<svg xmlns="http://www.w3.org/2000/svg" xmlns:xlink="http://www.w3.org/1999/xlink" version="1.1" viewBox="-10 0 1034 1024">
  <g transform="matrix(1 0 0 -1 0 820)">
   <path fill="currentColor"
d="M237 627q33 3 51 4q75 0 124 -56q25 -30 44 -88q18 -67 18 -121v-232q0 -43 -8 -68q-12 -28 -59 -35l-32 -3q-12 0 -13 -10q0 -10 14 -11h271q13 0 14 11q0 9 -11 10l-26 3q-39 3 -55 22q-24 27 -24 81v232q0 84 32 156q36 81 84 81q22 0 39 -20q10 -15 21 -31
q12 -16 45 -17q54 0 55 57q0 36 -26 58q-33 24 -78 25q-54 0 -96 -28q-64 -37 -91 -125q-12 -31 -21 -115q-10 81 -24 117q-22 75 -75 113q-48 34 -122 35l-61 -2q4 -21 10 -43v0z" />
  </g>

</svg>
