<?xml version="1.0" standalone="no"?>
<!DOCTYPE svg PUBLIC "-//W3C//DTD SVG 1.1//EN" "http://www.w3.org/Graphics/SVG/1.1/DTD/svg11.dtd" >
<svg xmlns="http://www.w3.org/2000/svg" xmlns:xlink="http://www.w3.org/1999/xlink" version="1.1" viewBox="-11 0 1020 1000">
   <path fill="currentColor"
d="M169 -33h59q-145 239 -135 496q-7 177 137 440h-59q-179 -246 -171 -464q-4 -238 169 -472zM829 903h-61q147 -235 137 -494q7 -177 -137 -442h57q181 246 173 468q4 233 -169 468zM371 84v702h-89v-498h-161v-69q98 -5 129 -31q38 -26 56 -104h65zM784 437
q-2 -281 -143 -284q-140 2 -141 284q1 278 141 280q141 -3 143 -280zM875 437q-7 354 -234 359q-227 -4 -232 -359q5 -357 232 -361q228 4 234 361z" />
</svg>
