<?xml version="1.0" standalone="no"?>
<!DOCTYPE svg PUBLIC "-//W3C//DTD SVG 1.1//EN" "http://www.w3.org/Graphics/SVG/1.1/DTD/svg11.dtd" >
<svg xmlns="http://www.w3.org/2000/svg" xmlns:xlink="http://www.w3.org/1999/xlink" version="1.1" viewBox="-10 0 1034 1024">
  <g transform="matrix(1 0 0 -1 0 820)">
   <path fill="currentColor"
d="M191 691q-75 -51 -115 -219q-19 -75 -19 -158q0 -211 100 -344q15 -21 59 -57q15 -12 22 -12q6 0 6 6q0 1 -30 38q-84 105 -85 399q0 156 39 261q12 37 29 56q36 42 37 52q0 3 -4 5q-12 0 -39 -27zM841 -61q40 34 81 125q48 114 48 249q0 243 -124 368q-10 10 -26 23
q-18 12 -23 13q-4 0 -5 -5q0 -6 37 -52q84 -120 63 -425q0 -184 -79 -290q-30 -33 -30 -39t6 -6q7 0 52 39zM391 648q-52 -54 -123 -96q-28 -13 -28 -27q0 -7 11 -8q1 0 4 1q24 12 46 12q12 0 21 -10q10 -12 11 -47v-344q0 -43 -11 -60q-15 -19 -47 -26q-27 -4 -27 -15
q0 -9 12 -10h209q10 0 11 10q0 9 -11 11q-9 3 -17 5q-60 13 -61 85v519zM707 651q-49 -49 -123 -96q-28 -13 -28 -27q0 -7 10 -8q1 0 4 1q24 12 48 13q12 0 20 -11q9 -12 10 -47v-344q0 -42 -10 -60q-15 -18 -62 -29q-12 0 -13 -12q0 -9 13 -10h209q10 0 11 10q0 10 -11 12
q-9 3 -18 4q-60 12 -60 85v519z" />
  </g>

</svg>
