<?xml version="1.0" standalone="no"?>
<!DOCTYPE svg PUBLIC "-//W3C//DTD SVG 1.1//EN" "http://www.w3.org/Graphics/SVG/1.1/DTD/svg11.dtd" >
<svg xmlns="http://www.w3.org/2000/svg" xmlns:xlink="http://www.w3.org/1999/xlink" version="1.1" viewBox="-11 0 1020 1000">
   <path fill="currentColor"
d="M169 -33h59q-145 239 -135 496q-7 177 137 440h-59q-179 -246 -171 -464q-4 -238 169 -472zM829 903h-61q147 -235 137 -494q7 -177 -137 -442h57q181 246 173 468q4 233 -169 468zM367 84v704h-85v-500h-149v-69q91 -5 121 -31q35 -26 52 -104h61zM480 336h-81
q3 -245 222 -252q189 13 200 210q6 145 -170 236l-68 40q-97 60 -111 135h349v83h-438q5 -192 151 -280l83 -53q127 -66 119 -165q-10 -122 -127 -127q-127 0 -129 173z" />
</svg>
