<?xml version="1.0" standalone="no"?>
<!DOCTYPE svg PUBLIC "-//W3C//DTD SVG 1.1//EN" "http://www.w3.org/Graphics/SVG/1.1/DTD/svg11.dtd" >
<svg xmlns="http://www.w3.org/2000/svg" xmlns:xlink="http://www.w3.org/1999/xlink" version="1.1" viewBox="-10 0 1034 1024">
  <g transform="matrix(1 0 0 -1 0 820)">
   <path fill="currentColor"
d="M563 604q-33 -114 -33 -119q0 -10 9 -11q6 0 18 23q18 42 59 42h110l-121 -530q21 -3 43 -8l144 603h-229zM190 679q-75 -51 -115 -219q-19 -75 -19 -157q0 -213 100 -345q18 -22 59 -56q12 -12 22 -12q6 0 6 6q0 1 -30 38q-76 93 -84 382q-12 66 22 221q15 79 75 148
q3 9 7 17q0 3 -4 5q-10 0 -39 -28zM839 -73q37 31 81 125q48 114 48 249q0 171 -75 303q-36 55 -76 87q-15 13 -23 14q-3 -1 -4 -5q0 -6 37 -53q84 -111 63 -424q0 -153 -61 -264q-16 -27 -46 -58q-3 -3 -3 -7q0 -6 6 -6q9 0 53 39zM390 639q-54 -52 -123 -95
q-28 -18 -28 -27q0 -7 11 -8q1 0 4 1q52 18 67 2q10 -12 11 -47v-345q0 -42 -11 -59q-12 -19 -62 -30q-12 0 -12 -11q0 -9 12 -10h209q10 0 11 10q0 9 -11 11q-9 3 -17 4q-60 15 -61 85v519z" />
  </g>

</svg>
