<?xml version="1.0" standalone="no"?>
<!DOCTYPE svg PUBLIC "-//W3C//DTD SVG 1.1//EN" "http://www.w3.org/Graphics/SVG/1.1/DTD/svg11.dtd" >
<svg xmlns="http://www.w3.org/2000/svg" xmlns:xlink="http://www.w3.org/1999/xlink" version="1.1" viewBox="-11 0 1020 1000">
   <path fill="currentColor"
d="M169 -33h59q-145 239 -135 496q-7 177 137 440h-59q-179 -246 -171 -464q-4 -238 169 -472zM829 903h-61q147 -235 137 -494q7 -177 -137 -442h57q181 246 173 468q4 233 -169 468zM385 84v702h-91v-498h-157v-69q97 -5 127 -31q37 -26 53 -104h68zM837 256
q1 107 -87 147q109 49 111 171q-13 214 -228 222q-97 -2 -165 -54q-72 -59 -69 -166q0 -123 115 -171q-90 -38 -91 -137q14 -187 206 -192q194 7 208 180zM631 447q-132 5 -141 131q8 136 145 139q134 -1 135 -133q-4 -132 -139 -137zM629 371q114 -6 121 -113
q-9 -102 -127 -105q-108 2 -113 111q7 99 119 107z" />
</svg>
