<?xml version="1.0" standalone="no"?>
<!DOCTYPE svg PUBLIC "-//W3C//DTD SVG 1.1//EN" "http://www.w3.org/Graphics/SVG/1.1/DTD/svg11.dtd" >
<svg xmlns="http://www.w3.org/2000/svg" xmlns:xlink="http://www.w3.org/1999/xlink" version="1.1" viewBox="-10 0 1034 1024">
  <g transform="matrix(1 0 0 -1 0 820)">
   <path fill="currentColor"
d="M190 694q-129 -123 -134 -359v-18q0 -211 100 -344q15 -21 59 -57q12 -12 22 -12q6 0 6 6q0 1 -30 38q-75 94 -83 353q-7 117 21 250q15 81 75 149l7 16q0 3 -4 5q-12 0 -39 -27zM840 -59q40 36 81 126q48 114 48 249q0 217 -110 352q-12 15 -24 24q-9 7 -17 15
q-15 12 -22 13q-4 0 -5 -5q0 -6 37 -52q36 -43 59 -181q36 -333 -61 -514q-43 -54 -44 -59q0 -6 6 -6q3 0 52 38zM670 635q-40 0 -72 -34q-73 -75 -73 -280q0 -160 47 -242q42 -70 102 -71q48 0 86 51q54 78 56 254q0 124 -25 198q-42 123 -121 124zM670 600q27 0 45 -39
q43 -130 23 -409q-6 -36 -15 -61q-18 -48 -48 -48q-39 0 -57 67q-24 82 -24 213q0 93 9 151q7 63 26 93q15 33 41 33zM295 84q174 259 174 378q0 69 -35 119q-34 48 -85 49q-43 0 -75 -38q-39 -46 -39 -121q0 -12 13 -12q9 0 13 16q0 18 9 39q15 48 65 49q34 0 53 -35
q16 -28 17 -84q0 -150 -183 -399v-23h242q27 102 28 105q0 9 -8 10q-6 0 -9 -6q-30 -39 -56 -47h-124z" />
  </g>

</svg>
