<?xml version="1.0" standalone="no"?>
<!DOCTYPE svg PUBLIC "-//W3C//DTD SVG 1.1//EN" "http://www.w3.org/Graphics/SVG/1.1/DTD/svg11.dtd" >
<svg xmlns="http://www.w3.org/2000/svg" xmlns:xlink="http://www.w3.org/1999/xlink" version="1.1" viewBox="-11 0 1020 1000">
   <path fill="currentColor"
d="M169 -33h59q-145 239 -135 496q-7 177 137 440h-59q-179 -246 -171 -464q-4 -238 169 -472zM829 903h-61q147 -235 137 -494q7 -177 -137 -442h57q181 246 173 468q4 233 -169 468zM260 336h-64q2 -245 175 -252q152 13 161 210q5 143 -135 234l-54 40q-79 62 -87 135
h276v83h-349q3 -190 119 -280l67 -53q58 -41 74 -72q21 -35 21 -91q-7 -123 -101 -127q-98 0 -103 173zM819 437q-1 -282 -107 -284q-106 3 -107 284q1 278 107 280q106 -2 107 -280zM887 437q-5 355 -175 359q-170 -4 -174 -359q4 -357 174 -361q170 4 175 361z" />
</svg>
