<?xml version="1.0" standalone="no"?>
<!DOCTYPE svg PUBLIC "-//W3C//DTD SVG 1.1//EN" "http://www.w3.org/Graphics/SVG/1.1/DTD/svg11.dtd" >
<svg xmlns="http://www.w3.org/2000/svg" xmlns:xlink="http://www.w3.org/1999/xlink" version="1.1" viewBox="-10 0 1034 1024">
  <g transform="matrix(1 0 0 -1 0 820)">
   <path fill="currentColor"
d="M367 69q141 222 167 313q21 90 -7 153q-33 81 -104 81q-46 0 -82 -40q-42 -45 -50 -115q-1 -15 12 -16q10 0 17 16q4 12 9 23q21 67 77 68q34 0 53 -31q45 -78 -8 -220q-33 -81 -88 -165q-75 -111 -74 -118q0 -9 11 -10h233l28 99q3 18 -9 18q-3 0 -24 -31
q-21 -24 -80 -25h-81zM707 109q-24 0 -41 -15q-16 -13 -18 -41q-3 -61 62 -62q55 0 56 60q0 57 -59 58v0z" />
  </g>

</svg>
