<?xml version="1.0" standalone="no"?>
<!DOCTYPE svg PUBLIC "-//W3C//DTD SVG 1.1//EN" "http://www.w3.org/Graphics/SVG/1.1/DTD/svg11.dtd" >
<svg xmlns="http://www.w3.org/2000/svg" xmlns:xlink="http://www.w3.org/1999/xlink" version="1.1" viewBox="-10 0 1034 1024">
  <g transform="matrix(1 0 0 -1 0 820)">
   <path fill="currentColor"
d="M538 614q9 6 10 12q0 6 -14 10q-67 0 -134 -71q-19 -19 -38 -46q-78 -114 -79 -283q0 -141 60 -203q33 -33 73 -34q78 0 115 90q45 115 5 217q-34 75 -103 76q-34 0 -70 -28q27 196 175 260zM355 299q27 34 58 35q24 0 36 -13q36 -30 37 -150q0 -55 -8 -85
q-15 -49 -47 -50q-19 0 -38 17q-43 43 -43 197q0 25 5 49zM692 118q-22 0 -41 -17q-15 -15 -15 -39q0 -27 16 -43q15 -15 42 -15q57 0 57 57t-59 57v0z" />
  </g>

</svg>
