<?xml version="1.0" standalone="no"?>
<!DOCTYPE svg PUBLIC "-//W3C//DTD SVG 1.1//EN" "http://www.w3.org/Graphics/SVG/1.1/DTD/svg11.dtd" >
<svg xmlns="http://www.w3.org/2000/svg" xmlns:xlink="http://www.w3.org/1999/xlink" version="1.1" viewBox="-10 0 1010 1000">
   <path fill="currentColor"
d="M611 262h-85q-22 -109 -121 -109q-152 7 -169 260l2 2q54 -85 169 -85q212 20 220 224q2 102 -67 175q-57 70 -179 67q-116 -4 -181 -101q-54 -85 -53 -244q11 -368 260 -375q186 12 204 186zM250 562q10 151 147 157q131 -9 139 -161q-9 -145 -143 -149q-136 5 -143 153
zM851 701v85h-83v-85h83z" />
</svg>
