<?xml version="1.0" standalone="no"?>
<!DOCTYPE svg PUBLIC "-//W3C//DTD SVG 1.1//EN" "http://www.w3.org/Graphics/SVG/1.1/DTD/svg11.dtd" >
<svg xmlns="http://www.w3.org/2000/svg" xmlns:xlink="http://www.w3.org/1999/xlink" version="1.1" viewBox="-10 0 1034 1024">
  <g transform="matrix(1 0 0 -1 0 820)">
   <path fill="currentColor"
d="M473 325l-150 -198q-39 -52 -57 -66q-34 -27 -64 -31q-13 -1 -27 -4q-9 0 -9 -10q0 -13 15 -14h206q16 0 17 13q0 9 -13 11q-15 3 -29 4q-15 3 -24 19q-3 6 -4 12q0 15 28 51l135 180l112 -178q6 -9 14 -19q12 -18 12 -32q0 -15 -17 -25q-1 0 -53 -9q-10 0 -11 -13
q0 -12 13 -12h267q12 0 13 11q0 9 -12 13l-31 6q-60 16 -106 92l-151 231l159 207q45 60 102 68l23 3q12 1 12 11q0 12 -14 13h-214q-9 0 -10 -10q0 -12 14 -14l23 -3q33 -3 33 -30q0 -15 -28 -54l-122 -159q-124 193 -124 196q-1 6 -2 11q0 27 33 34q13 3 28 5q10 1 11 11
q0 12 -13 12h-253q-10 0 -11 -10q0 -10 15 -13q12 -1 25 -5q30 -6 53 -25q16 -13 52 -68z" />
  </g>

</svg>
