<?xml version="1.0" standalone="no"?>
<!DOCTYPE svg PUBLIC "-//W3C//DTD SVG 1.1//EN" "http://www.w3.org/Graphics/SVG/1.1/DTD/svg11.dtd" >
<svg xmlns="http://www.w3.org/2000/svg" xmlns:xlink="http://www.w3.org/1999/xlink" version="1.1" viewBox="-10 0 1034 1024">
  <g transform="matrix(1 0 0 -1 0 820)">
   <path fill="currentColor"
d="M830 110q-24 0 -42 -17q-15 -16 -16 -39q0 -27 17 -43q15 -15 41 -16q57 0 57 58q0 57 -57 57zM288 633q-45 -57 -118 -94q-31 -15 -32 -25q0 -9 10 -9q57 12 69 3q1 0 4 -3q7 -9 8 -38v-365q0 -21 -11 -42q-15 -24 -59 -25q-12 0 -13 -14q0 -12 13 -13h199q13 0 14 13
q0 13 -17 14q-36 0 -52 19q-15 18 -15 52v527zM488 69q126 202 161 292q30 102 -1 174q-33 81 -103 81q-46 0 -82 -40q-33 -36 -50 -115q1 -15 11 -16q10 0 18 16q4 12 9 23q21 67 77 68q33 0 53 -31q18 -30 18 -89q0 -63 -27 -131q-33 -85 -88 -165q-75 -111 -74 -118
q0 -9 12 -10h231l30 99q3 18 -9 18q-1 0 -25 -31q-18 -24 -72 -25h-89z" />
  </g>

</svg>
