<?xml version="1.0" standalone="no"?>
<!DOCTYPE svg PUBLIC "-//W3C//DTD SVG 1.1//EN" "http://www.w3.org/Graphics/SVG/1.1/DTD/svg11.dtd" >
<svg xmlns="http://www.w3.org/2000/svg" xmlns:xlink="http://www.w3.org/1999/xlink" version="1.1" viewBox="-10 0 1010 1000">
   <path fill="currentColor"
d="M385 608h83q12 113 115 115q134 7 163 -262l-2 -2q-44 78 -155 83q-202 -11 -212 -226q14 -229 216 -240q237 2 238 325q-14 388 -246 395q-184 -6 -200 -188zM601 463q129 -5 131 -159q-6 -147 -137 -151q-124 8 -131 159q0 152 137 151zM312 86v700h-90v-498h-159v-69
q99 -5 128 -30q37 -25 55 -103h66zM935 701v85h-86v-85h86z" />
</svg>
