<?xml version="1.0" standalone="no"?>
<!DOCTYPE svg PUBLIC "-//W3C//DTD SVG 1.1//EN" "http://www.w3.org/Graphics/SVG/1.1/DTD/svg11.dtd" >
<svg xmlns="http://www.w3.org/2000/svg" xmlns:xlink="http://www.w3.org/1999/xlink" version="1.1" viewBox="-10 0 1034 1024">
  <g transform="matrix(1 0 0 -1 0 820)">
   <path fill="currentColor"
d="M615 4q33 0 45 -10q9 -9 10 -34q0 -24 -10 -50q-18 -34 -43 -35q-12 0 -33 10q-34 15 -48 15q-12 0 -21 -3q-28 -9 -29 -33q0 -37 58 -38q82 0 131 67q30 48 31 90q0 34 -28 54q-18 13 -67 14l-87 -1q-57 0 -88 13q-52 25 -53 106q0 67 34 122q22 37 71 77q45 -3 69 -4
q45 0 83 18q36 18 36 41q0 30 -41 31q-30 0 -78 -18q-33 -12 -77 -41q-61 48 -62 84q0 27 25 60q18 22 56 50q52 -3 90 -3q64 0 99 14q28 9 29 31q0 9 -7 15q-15 13 -44 14q-30 0 -81 -12q-36 -7 -87 -34q-96 33 -96 58q0 9 9 16q16 18 17 23q0 6 -6 7q-3 0 -9 -5
q-9 -9 -30 -29q-21 -19 -22 -27q0 -9 29 -27q12 -7 73 -34q-30 -19 -47 -39q-39 -40 -40 -86q0 -34 25 -60q13 -13 52 -35q-54 -42 -82 -85q-46 -69 -47 -136q0 -85 54 -123q45 -30 122 -31z" />
  </g>

</svg>
