<?xml version="1.0" standalone="no"?>
<!DOCTYPE svg PUBLIC "-//W3C//DTD SVG 1.1//EN" "http://www.w3.org/Graphics/SVG/1.1/DTD/svg11.dtd" >
<svg xmlns="http://www.w3.org/2000/svg" xmlns:xlink="http://www.w3.org/1999/xlink" version="1.1" viewBox="-10 0 1010 1000">
   <path fill="currentColor"
d="M673 115v78q-60 -15 -107 -17q-48 -2 -83 9q-73 25 -76 95q3 101 129 105h137v76h-117q-170 15 -175 139q6 110 147 127q165 20 164 133q-10 151 -182 158q-53 -3 -97 -16l22 -75q179 42 172 -85q-15 -34 -97 -46q-85 -12 -127 -40q-71 -51 -75 -148q1 -141 111 -185
q-101 -37 -90 -167q9 -94 104 -134q94 -38 240 -7z" />
</svg>
