<?xml version="1.0" standalone="no"?>
<!DOCTYPE svg PUBLIC "-//W3C//DTD SVG 1.1//EN" "http://www.w3.org/Graphics/SVG/1.1/DTD/svg11.dtd" >
<svg xmlns="http://www.w3.org/2000/svg" xmlns:xlink="http://www.w3.org/1999/xlink" version="1.1" viewBox="-10 0 1034 1024">
  <g transform="matrix(1 0 0 -1 0 820)">
   <path fill="currentColor"
d="M392 48q30 -27 37 -32q36 -27 75 -28q84 0 146 77q51 64 52 165q0 93 -48 152q-58 72 -155 73q-54 0 -99 -27q-21 -13 -43 -46q-24 -42 -25 -129v-401h60v196zM392 274q0 57 15 88q28 57 94 57q63 0 102 -60q33 -51 34 -130q0 -78 -34 -135q-39 -69 -105 -70
q-28 0 -55 18q-18 10 -51 47v185z" />
  </g>

</svg>
