<?xml version="1.0" standalone="no"?>
<!DOCTYPE svg PUBLIC "-//W3C//DTD SVG 1.1//EN" "http://www.w3.org/Graphics/SVG/1.1/DTD/svg11.dtd" >
<svg xmlns="http://www.w3.org/2000/svg" xmlns:xlink="http://www.w3.org/1999/xlink" version="1.1" viewBox="-10 0 1010 1000">
   <path fill="currentColor"
d="M365 324l16 87q-140 32 -151 179q6 127 109 141q108 -1 119 -179v-64h78v66q9 165 121 177q103 -14 105 -145q-7 -135 -149 -183q-2 -1 14 -79q201 50 220 252q-2 219 -184 238q-103 -2 -163 -93q-2 -2 -3 -2t-1 2q-39 86 -155 91q-181 -10 -190 -222q21 -223 214 -266z
" />
</svg>
